<?xml version="1.0" encoding="UTF-8" standalone="no"?>
<!-- Created with Inkscape (http://www.inkscape.org/) -->

<svg
   width="16.0px"
   height="16.0px"
   viewBox="0 0 16.0 16.0"
   version="1.1"
   id="SVGRoot"
   sodipodi:docname="mask_off.svg"
   inkscape:version="1.1.2 (b8e25be833, 2022-02-05)"
   xmlns:inkscape="http://www.inkscape.org/namespaces/inkscape"
   xmlns:sodipodi="http://sodipodi.sourceforge.net/DTD/sodipodi-0.dtd"
   xmlns="http://www.w3.org/2000/svg"
   xmlns:svg="http://www.w3.org/2000/svg">
  <sodipodi:namedview
     id="namedview829"
     pagecolor="#ffffff"
     bordercolor="#666666"
     borderopacity="1.0"
     inkscape:pageshadow="2"
     inkscape:pageopacity="0.0"
     inkscape:pagecheckerboard="0"
     inkscape:document-units="px"
     showgrid="true"
     inkscape:zoom="31.054817"
     inkscape:cx="8.0019792"
     inkscape:cy="7.9536775"
     inkscape:window-width="2560"
     inkscape:window-height="1377"
     inkscape:window-x="-8"
     inkscape:window-y="-8"
     inkscape:window-maximized="1"
     inkscape:current-layer="layer1"
     inkscape:lockguides="false"
     inkscape:snap-global="false">
    <inkscape:grid
       type="xygrid"
       id="grid892" />
  </sodipodi:namedview>
  <defs
     id="defs824" />
  <g
     inkscape:label="Layer 1"
     inkscape:groupmode="layer"
     id="layer1">
    <g
       id="g2233"
       style="opacity:0.52439024">
      <path
         id="rect1617"
         style="color:#000000;overflow:visible;fill:#888a85;fill-opacity:1;stroke:none;stroke-width:0.999998;stroke-linecap:butt;stroke-linejoin:miter;stroke-miterlimit:4;stroke-dasharray:2, 0.999998;stroke-dashoffset:0;stop-color:#000000"
         d="M 5.0039062 2.5214844 C 3.6163248 2.5214844 2.5 3.6397623 2.5 5.0273438 L 2.5 6.234375 L 6.2148438 2.5214844 L 5.0039062 2.5214844 z " />
      <path
         id="rect1673"
         style="color:#000000;overflow:visible;fill:#babdb6;fill-opacity:1;stroke:none;stroke-width:0.999998;stroke-linecap:butt;stroke-linejoin:miter;stroke-miterlimit:4;stroke-dasharray:2, 0.999998;stroke-dashoffset:0;stop-color:#000000"
         d="M 6.1757812 2.5214844 L 2.5 6.1953125 L 2.5 9.6523438 L 9.6328125 2.5214844 L 6.1757812 2.5214844 z " />
      <path
         id="rect1675"
         style="color:#000000;overflow:visible;fill:#888a85;fill-opacity:1;stroke:none;stroke-width:0.999998;stroke-linecap:butt;stroke-linejoin:miter;stroke-miterlimit:4;stroke-dasharray:2, 0.999998;stroke-dashoffset:0;stop-color:#000000"
         d="M 9.515625 2.5214844 L 2.5 9.5390625 L 2.5 11.0625 C 2.5 11.609927 2.6749516 12.114153 2.9707031 12.525391 L 12.492188 3.0019531 C 12.078764 2.7008403 11.570426 2.5214844 11.017578 2.5214844 L 9.515625 2.5214844 z " />
      <path
         id="rect1677"
         style="color:#000000;overflow:visible;fill:#babdb6;fill-opacity:1;stroke:none;stroke-width:0.999998;stroke-linecap:butt;stroke-linejoin:miter;stroke-miterlimit:4;stroke-dasharray:2, 0.999998;stroke-dashoffset:0;stop-color:#000000"
         d="M 12.492188 3.0019531 L 2.9707031 12.525391 C 3.424603 13.156532 4.1637517 13.566406 5.0039062 13.566406 L 5.3847656 13.566406 L 13.521484 5.4296875 L 13.521484 5.0273438 C 13.521484 4.1926101 13.116407 3.4565973 12.492188 3.0019531 z " />
      <path
         id="rect1679"
         style="color:#000000;overflow:visible;fill:#888a85;fill-opacity:1;stroke:none;stroke-width:0.999998;stroke-linecap:butt;stroke-linejoin:miter;stroke-miterlimit:4;stroke-dasharray:2, 0.999998;stroke-dashoffset:0;stop-color:#000000"
         d="M 13.521484 5.3164062 L 5.2695312 13.566406 L 8.7265625 13.566406 L 13.521484 8.7695312 L 13.521484 5.3164062 z " />
      <path
         id="rect1681"
         style="color:#000000;overflow:visible;fill:#babdb6;fill-opacity:1;stroke:none;stroke-width:0.999998;stroke-linecap:butt;stroke-linejoin:miter;stroke-miterlimit:4;stroke-dasharray:2, 0.999998;stroke-dashoffset:0;stop-color:#000000"
         d="M 13.521484 8.734375 L 8.6875 13.566406 L 11.017578 13.566406 C 12.40516 13.566406 13.521484 12.450081 13.521484 11.0625 L 13.521484 8.734375 z " />
      <rect
         style="color:#000000;overflow:visible;fill:none;fill-opacity:0.565421;stroke:#2e3436;stroke-width:1;stroke-linecap:butt;stroke-linejoin:miter;stroke-miterlimit:4;stroke-dasharray:none;stroke-dashoffset:10;stop-color:#000000"
         id="rect2205"
         width="11.02277"
         height="11.04554"
         x="2.5956717"
         y="2.5540388"
         ry="2.5046597" />
      <rect
         style="color:#000000;overflow:visible;fill:none;fill-opacity:0.565421;stroke:#ffffff;stroke-width:0.99999899;stroke-linecap:butt;stroke-linejoin:miter;stroke-miterlimit:4;stroke-dasharray:1.99999797, 1.99999797;stop-color:#000000;stroke-dashoffset:9.99998987"
         id="rect973"
         width="11.02277"
         height="11.04554"
         x="2.4990683"
         y="2.5218377"
         ry="2.5046597" />
    </g>
    <path
       id="path3031"
       style="color:#000000;overflow:visible;opacity:1;fill:#ffffff;fill-opacity:1;stroke:#555753;stroke-width:1;stroke-linecap:butt;stroke-linejoin:round;stroke-miterlimit:4;stroke-dasharray:none;stroke-dashoffset:9.99999;stop-color:#000000"
       d="M 4.7988281 5.9257812 L 7.0859375 8.0019531 L 4.7988281 10.078125 L 6.7617188 10.078125 L 8.0664062 8.8925781 L 9.3710938 10.078125 L 11.333984 10.078125 L 9.046875 8.0019531 L 11.333984 5.9257812 L 9.3710938 5.9257812 L 8.0664062 7.1113281 L 6.7617188 5.9257812 L 4.7988281 5.9257812 z " />
    <path
       id="rect2902"
       style="color:#000000;overflow:visible;opacity:1;fill:#fbcfcf;fill-opacity:1;stroke:none;stroke-width:0.999992;stroke-linecap:butt;stroke-linejoin:miter;stroke-miterlimit:4;stroke-dasharray:none;stroke-dashoffset:9.99999;stop-color:#000000"
       d="M 4.7988281 5.9257812 L 7.0859375 8.0019531 L 4.7988281 10.078125 L 6.7617188 10.078125 L 8.0664062 8.8925781 L 9.3710938 10.078125 L 11.333984 10.078125 L 9.046875 8.0019531 L 11.333984 5.9257812 L 9.3710938 5.9257812 L 8.0664062 7.1113281 L 6.7617188 5.9257812 L 4.7988281 5.9257812 z " />
  </g>
</svg>
