<?xml version="1.0" encoding="UTF-8" standalone="no"?>
<!-- Created with Inkscape (http://www.inkscape.org/) -->

<svg
   width="16.0px"
   height="16.0px"
   viewBox="0 0 16.0 16.0"
   version="1.1"
   id="SVGRoot"
   sodipodi:docname="match_case.svg"
   inkscape:version="1.1.1 (3bf5ae0d25, 2021-09-20)"
   xmlns:inkscape="http://www.inkscape.org/namespaces/inkscape"
   xmlns:sodipodi="http://sodipodi.sourceforge.net/DTD/sodipodi-0.dtd"
   xmlns="http://www.w3.org/2000/svg"
   xmlns:svg="http://www.w3.org/2000/svg">
  <sodipodi:namedview
     id="namedview73498"
     pagecolor="#ffffff"
     bordercolor="#666666"
     borderopacity="1.0"
     inkscape:pageshadow="2"
     inkscape:pageopacity="0.0"
     inkscape:pagecheckerboard="0"
     inkscape:document-units="px"
     showgrid="true"
     inkscape:zoom="57.761785"
     inkscape:cx="8.007024"
     inkscape:cy="8.007024"
     inkscape:window-width="2880"
     inkscape:window-height="1557"
     inkscape:window-x="-8"
     inkscape:window-y="-8"
     inkscape:window-maximized="1"
     inkscape:current-layer="layer1"
     inkscape:snap-global="false">
    <inkscape:grid
       type="xygrid"
       id="grid73561" />
  </sodipodi:namedview>
  <defs
     id="defs73493" />
  <g
     inkscape:label="Layer 1"
     inkscape:groupmode="layer"
     id="layer1">
    <path
       d="m 12.334804,13.274599 -0.0711,0.07901 q -1.753806,-0.0474 -2.117208,-0.0474 -1.4536044,0 -2.7018091,0.0474 l -0.071101,-0.07901 v -0.497702 l 0.079,-0.0869 0.6873025,-0.0395 q 0.4345016,-0.0237 0.4345016,-0.3081 0,-0.165902 -0.2212008,-0.742604 L 7.7132874,9.9328872 q -1.090204,-0.0158 -2.2278082,-0.0158 -0.6162023,0 -1.8328068,0.0158 L 3.3050712,10.89669 q -0.3950015,1.098104 -0.3950015,1.374606 0,0.300201 0.3713013,0.355501 0.2054008,0.03161 0.8058031,0.0632 l 0.079,0.079 v 0.505602 l -0.079,0.079 q -1.4615055,-0.0474 -1.880207,-0.0474 -0.3239011,0 -1.6037059,0.0474 l -0.0790001,-0.0711 v -0.513502 l 0.0869005,-0.07901 Q 1.4248647,12.642605 1.6065653,12.366103 1.796166,12.089602 3.0048705,9.0717906 L 5.0667777,3.9130651 Q 5.2958785,3.3126629 5.7619802,2.1039584 H 6.8837844 L 11.0708,11.955295 q 0.2449,0.560902 0.442402,0.632002 0.2607,0.0948 0.750502,0.0948 l 0.0711,0.0869 z M 7.326186,9.0243838 5.6355798,4.8847686 4.0160738,9.0243838 q 0.6478024,0.0237 1.6827062,0.0237 1.0033037,0 1.627406,-0.0237 z M 6.3228823,1.708957 Z M 6.0621814,13.922402 Z"
       id="path75951"
       style="font-weight:bold;font-size:17.3333px;line-height:125%;font-family:'Palatino Linotype';-inkscape-font-specification:'Palatino Linotype, Bold';letter-spacing:0px;word-spacing:0px;fill:#eeeeec;stroke:#2e3436;stroke-width:0.933421;stroke-linejoin:round;stroke-miterlimit:4;stroke-dasharray:none" />
    <path
       d="m 12.334804,13.274599 -0.0711,0.07901 q -1.753806,-0.0474 -2.117208,-0.0474 -1.4536044,0 -2.7018091,0.0474 l -0.071101,-0.07901 v -0.497702 l 0.079,-0.0869 0.6873025,-0.0395 q 0.4345016,-0.0237 0.4345016,-0.3081 0,-0.165902 -0.2212008,-0.742604 L 7.7132874,9.9328872 q -1.090204,-0.0158 -2.2278082,-0.0158 -0.6162023,0 -1.8328068,0.0158 L 3.3050712,10.89669 q -0.3950015,1.098104 -0.3950015,1.374606 0,0.300201 0.3713013,0.355501 0.2054008,0.03161 0.8058031,0.0632 l 0.079,0.079 v 0.505602 l -0.079,0.079 q -1.4615055,-0.0474 -1.880207,-0.0474 -0.3239011,0 -1.6037059,0.0474 l -0.0790001,-0.0711 v -0.513502 l 0.0869005,-0.07901 Q 1.4248647,12.642605 1.6065653,12.366103 1.796166,12.089602 3.0048705,9.0717906 L 5.0667777,3.9130651 Q 5.2958785,3.3126629 5.7619802,2.1039584 H 6.8837844 L 11.0708,11.955295 q 0.2449,0.560902 0.442402,0.632002 0.2607,0.0948 0.750502,0.0948 l 0.0711,0.0869 z M 7.326186,9.0243838 5.6355798,4.8847686 4.0160738,9.0243838 q 0.6478024,0.0237 1.6827062,0.0237 1.0033037,0 1.627406,-0.0237 z M 6.3228823,1.708957 Z M 6.0621814,13.922402 Z"
       id="path75926"
       style="font-weight:bold;font-size:17.3333px;line-height:125%;font-family:'Palatino Linotype';-inkscape-font-specification:'Palatino Linotype, Bold';letter-spacing:0px;word-spacing:0px;fill:#ffffff;stroke-width:0.933421px" />
    <path
       d="m 15.52177,13.258799 -0.0869,0.0869 q -0.663603,-0.0395 -1.524707,-0.0395 -0.671501,0 -1.287704,0.0395 l -0.0711,-0.0869 0.0711,-1.058604 -1.532605,1.169205 q -0.181701,0.134301 -0.521403,0.165901 -0.1343,0.0158 -0.316001,0.0158 -0.8769028,0 -1.350905,-0.529301 -0.4661018,-0.529303 -0.4661018,-1.461506 0,-1.232404 0.7821029,-1.7459064 0.8453039,-0.5609021 3.4049129,-1.0112038 0,-1.2561046 -0.663602,-1.6827061 -0.402902,-0.260701 -0.963803,-0.260701 -0.616203,0 -0.971705,0.2528009 l -0.3002007,0.7347028 -0.1027005,0.0553 -0.4029017,-0.0948 -0.055296,-0.1106003 0.039502,-0.9322035 q 1.3035059,-0.9638035 1.9592089,-1.090204 0.2765,-0.055301 0.718902,-0.055301 1.556306,0 2.219908,0.813703 0.481902,0.5925022 0.481902,1.8170067 0,0.300201 -0.0237,0.9638034 -0.0395,1.1060033 -0.0395,1.4773053 0,1.192904 0.0395,1.524705 0.0395,0.323902 0.181702,0.410802 0.150099,0.0869 0.703102,0.1027 l 0.079,0.0869 z M 12.622459,11.418093 V 9.4746855 q -1.303505,0.2844011 -1.761706,0.6162025 -0.450302,0.323901 -0.450302,0.995403 0,1.074404 0.940103,1.074404 0.797903,0 1.271905,-0.742602 z M 11.990457,5.26397 Z m 0,8.658432 z"
       id="path76007"
       style="font-weight:bold;font-size:17.3333px;line-height:125%;font-family:'Palatino Linotype';-inkscape-font-specification:'Palatino Linotype, Bold';letter-spacing:0px;word-spacing:0px;fill:#eeeeec;stroke:#2e3436;stroke-width:0.933421px;stroke-linejoin:round" />
    <path
       d="m 15.52177,13.258799 -0.0869,0.0869 q -0.663603,-0.0395 -1.524707,-0.0395 -0.671501,0 -1.287704,0.0395 l -0.0711,-0.0869 0.0711,-1.058604 -1.532605,1.169205 q -0.181701,0.134301 -0.521403,0.165901 -0.1343,0.0158 -0.316001,0.0158 -0.8769028,0 -1.350905,-0.529301 -0.4661018,-0.529303 -0.4661018,-1.461506 0,-1.232404 0.7821029,-1.7459064 0.8453039,-0.5609021 3.4049129,-1.0112038 0,-1.2561046 -0.663602,-1.6827061 -0.402902,-0.260701 -0.963803,-0.260701 -0.616203,0 -0.971705,0.2528009 l -0.3002007,0.7347028 -0.1027005,0.0553 -0.4029017,-0.0948 -0.055296,-0.1106003 0.039502,-0.9322035 q 1.3035059,-0.9638035 1.9592089,-1.090204 0.2765,-0.055301 0.718902,-0.055301 1.556306,0 2.219908,0.813703 0.481902,0.5925022 0.481902,1.8170067 0,0.300201 -0.0237,0.9638034 -0.0395,1.1060033 -0.0395,1.4773053 0,1.192904 0.0395,1.524705 0.0395,0.323902 0.181702,0.410802 0.150099,0.0869 0.703102,0.1027 l 0.079,0.0869 z M 12.622459,11.418093 V 9.4746855 q -1.303505,0.2844011 -1.761706,0.6162025 -0.450302,0.323901 -0.450302,0.995403 0,1.074404 0.940103,1.074404 0.797903,0 1.271905,-0.742602 z M 11.990457,5.26397 Z m 0,8.658432 z"
       id="path75928"
       style="font-weight:bold;font-size:17.3333px;line-height:125%;font-family:'Palatino Linotype';-inkscape-font-specification:'Palatino Linotype, Bold';letter-spacing:0px;word-spacing:0px;fill:#d3d7cf;stroke-width:0.933421px" />
  </g>
</svg>
