<?xml version="1.0" encoding="UTF-8" standalone="no"?>
<!-- Created with Inkscape (http://www.inkscape.org/) -->

<svg
   width="16.0px"
   height="16.0px"
   viewBox="0 0 16.0 16.0"
   version="1.1"
   id="SVGRoot"
   sodipodi:docname="regex.svg"
   inkscape:version="1.1.1 (3bf5ae0d25, 2021-09-20)"
   xmlns:inkscape="http://www.inkscape.org/namespaces/inkscape"
   xmlns:sodipodi="http://sodipodi.sourceforge.net/DTD/sodipodi-0.dtd"
   xmlns="http://www.w3.org/2000/svg"
   xmlns:svg="http://www.w3.org/2000/svg">
  <sodipodi:namedview
     id="namedview73498"
     pagecolor="#ffffff"
     bordercolor="#666666"
     borderopacity="1.0"
     inkscape:pageshadow="2"
     inkscape:pageopacity="0.0"
     inkscape:pagecheckerboard="0"
     inkscape:document-units="px"
     showgrid="true"
     inkscape:zoom="57.761785"
     inkscape:cx="8.1455239"
     inkscape:cy="8.3705862"
     inkscape:window-width="2880"
     inkscape:window-height="1557"
     inkscape:window-x="-8"
     inkscape:window-y="-8"
     inkscape:window-maximized="1"
     inkscape:current-layer="layer1"
     inkscape:snap-global="false">
    <inkscape:grid
       type="xygrid"
       id="grid73561" />
  </sodipodi:namedview>
  <defs
     id="defs73493" />
  <g
     inkscape:label="Layer 1"
     inkscape:groupmode="layer"
     id="layer1">
    <path
       d="m 2.3568936,11.027222 q 0.6588573,0 1.1074411,0.462601 0.4485838,0.448584 0.4485838,1.093424 0,0.644839 -0.4626021,1.10744 -0.4485838,0.448584 -1.0934228,0.448584 -0.6448392,0 -1.1074412,-0.448584 -0.44858375,-0.462601 -0.44858375,-1.10744 0,-0.658857 0.44858375,-1.107442 0.462602,-0.448583 1.1074412,-0.448583 z"
       id="path77909"
       style="font-size:20px;line-height:125%;font-family:serif;-inkscape-font-specification:'serif, Normal';letter-spacing:0px;word-spacing:0px;fill:#eeeeec;stroke:#2e3436;stroke-width:1.43547px" />
    <path
       d="M 9.5436011,7.4719402 Q 9.4846845,6.455564 9.1311594,5.4539182 8.6303354,4.0103696 8.6303354,3.4653564 q 0,-0.7659645 0.3535221,-1.1636768 0.3682527,-0.3977123 0.8985365,-0.3977123 0.456632,0 0.795424,0.3977123 0.338792,0.3977123 0.338792,1.1342167 0,0.6628539 -0.397712,1.8559908 -0.382981,1.1784072 -0.471363,2.1800531 0.810155,-0.515553 1.458279,-1.2520575 1.001645,-1.1636769 1.487739,-1.4435486 0.486092,-0.2798715 0.986916,-0.2798715 0.486091,0 0.810154,0.3387919 0.338791,0.324062 0.338791,0.7806947 0,0.5450132 -0.486091,0.9721858 -0.486094,0.4271725 -2.430465,0.8543449 -1.134216,0.2504115 -1.885451,0.5744735 0.765963,0.3977123 1.870721,0.6039335 1.782341,0.324062 2.327354,0.8101548 0.559743,0.4860929 0.559743,1.0605663 0,0.441903 -0.338793,0.765965 -0.324062,0.324061 -0.765963,0.324061 -0.441903,0 -0.986916,-0.309332 -0.530285,-0.309331 -1.443549,-1.3846275 -0.603934,-0.7217744 -1.502469,-1.355168 0.02946,0.8396149 0.338791,1.8265305 0.530284,1.738151 0.530284,2.371544 0,0.589203 -0.353521,1.001646 -0.353523,0.397713 -0.7512352,0.397713 -0.545013,0 -0.9869159,-0.427174 -0.3093318,-0.309331 -0.3093318,-0.986915 0,-0.707044 0.3387916,-1.69396 Q 9.2931906,10.020245 9.38157,9.651993 9.4699448,9.2690107 9.5436011,8.5325065 8.6745257,9.1069797 8.0264027,9.8140239 6.9511064,11.021891 6.4060934,11.345953 q -0.3829819,0.235681 -0.7954251,0.235681 -0.5008225,0 -0.8543446,-0.338792 -0.3535221,-0.338792 -0.3535221,-0.751234 0,-0.368252 0.2946025,-0.7659645 Q 5.0067357,9.313201 5.6106683,9.0480593 6.0083808,8.8712983 7.4224692,8.5766966 8.3357343,8.3852055 9.2048097,8.0169534 8.4093846,7.619241 7.3046285,7.3982897 5.4928277,7.0153075 5.0656553,6.7059757 4.4028016,6.2198827 4.4028016,5.5275686 q 0,-0.3977124 0.3240623,-0.7217742 0.3387914,-0.338792 0.7806944,-0.338792 0.4860934,0 1.0311065,0.3093317 0.5450129,0.309332 1.3551665,1.2520575 0.8101558,0.9279956 1.6497698,1.4435486 z"
       id="path77911"
       style="font-size:20px;line-height:125%;font-family:serif;-inkscape-font-specification:'serif, Normal';letter-spacing:0px;word-spacing:0px;fill:#eeeeec;stroke:#2e3436;stroke-width:1.50836px" />
    <path
       d="m 2.3568936,11.027222 q 0.6588573,0 1.1074411,0.462601 0.4485838,0.448584 0.4485838,1.093424 0,0.644839 -0.4626021,1.10744 -0.4485838,0.448584 -1.0934228,0.448584 -0.6448392,0 -1.1074412,-0.448584 -0.44858375,-0.462601 -0.44858375,-1.10744 0,-0.658857 0.44858375,-1.107442 0.462602,-0.448583 1.1074412,-0.448583 z"
       id="path77866"
       style="font-size:20px;line-height:125%;font-family:serif;-inkscape-font-specification:'serif, Normal';letter-spacing:0px;word-spacing:0px;fill:#eeeeec;stroke-width:1.43547px" />
    <path
       d="M 9.5436011,7.4719402 Q 9.4846845,6.455564 9.1311594,5.4539182 8.6303354,4.0103696 8.6303354,3.4653564 q 0,-0.7659645 0.3535221,-1.1636768 0.3682527,-0.3977123 0.8985365,-0.3977123 0.456632,0 0.795424,0.3977123 0.338792,0.3977123 0.338792,1.1342167 0,0.6628539 -0.397712,1.8559908 -0.382981,1.1784072 -0.471363,2.1800531 0.810155,-0.515553 1.458279,-1.2520575 1.001645,-1.1636769 1.487739,-1.4435486 0.486092,-0.2798715 0.986916,-0.2798715 0.486091,0 0.810154,0.3387919 0.338791,0.324062 0.338791,0.7806947 0,0.5450132 -0.486091,0.9721858 -0.486094,0.4271725 -2.430465,0.8543449 -1.134216,0.2504115 -1.885451,0.5744735 0.765963,0.3977123 1.870721,0.6039335 1.782341,0.324062 2.327354,0.8101548 0.559743,0.4860929 0.559743,1.0605663 0,0.441903 -0.338793,0.765965 -0.324062,0.324061 -0.765963,0.324061 -0.441903,0 -0.986916,-0.309332 -0.530285,-0.309331 -1.443549,-1.3846275 -0.603934,-0.7217744 -1.502469,-1.355168 0.02946,0.8396149 0.338791,1.8265305 0.530284,1.738151 0.530284,2.371544 0,0.589203 -0.353521,1.001646 -0.353523,0.397713 -0.7512352,0.397713 -0.545013,0 -0.9869159,-0.427174 -0.3093318,-0.309331 -0.3093318,-0.986915 0,-0.707044 0.3387916,-1.69396 Q 9.2931906,10.020245 9.38157,9.651993 9.4699448,9.2690107 9.5436011,8.5325065 8.6745257,9.1069797 8.0264027,9.8140239 6.9511064,11.021891 6.4060934,11.345953 q -0.3829819,0.235681 -0.7954251,0.235681 -0.5008225,0 -0.8543446,-0.338792 -0.3535221,-0.338792 -0.3535221,-0.751234 0,-0.368252 0.2946025,-0.7659645 Q 5.0067357,9.313201 5.6106683,9.0480593 6.0083808,8.8712983 7.4224692,8.5766966 8.3357343,8.3852055 9.2048097,8.0169534 8.4093846,7.619241 7.3046285,7.3982897 5.4928277,7.0153075 5.0656553,6.7059757 4.4028016,6.2198827 4.4028016,5.5275686 q 0,-0.3977124 0.3240623,-0.7217742 0.3387914,-0.338792 0.7806944,-0.338792 0.4860934,0 1.0311065,0.3093317 0.5450129,0.309332 1.3551665,1.2520575 0.8101558,0.9279956 1.6497698,1.4435486 z"
       id="path77868"
       style="font-size:20px;line-height:125%;font-family:serif;-inkscape-font-specification:'serif, Normal';letter-spacing:0px;word-spacing:0px;fill:#eeeeec;stroke-width:1.50836px" />
  </g>
</svg>
