<?xml version="1.0" encoding="UTF-8" standalone="no"?>
<!-- Created with Inkscape (http://www.inkscape.org/) -->

<svg
   width="16px"
   height="16px"
   id="svg66253"
   version="1.1"
   inkscape:version="1.1.2 (b8e25be833, 2022-02-05)"
   sodipodi:docname="simulation_disable.svg"
   xmlns:inkscape="http://www.inkscape.org/namespaces/inkscape"
   xmlns:sodipodi="http://sodipodi.sourceforge.net/DTD/sodipodi-0.dtd"
   xmlns:xlink="http://www.w3.org/1999/xlink"
   xmlns="http://www.w3.org/2000/svg"
   xmlns:svg="http://www.w3.org/2000/svg"
   xmlns:rdf="http://www.w3.org/1999/02/22-rdf-syntax-ns#"
   xmlns:cc="http://creativecommons.org/ns#"
   xmlns:dc="http://purl.org/dc/elements/1.1/"
   xmlns:a="http://ns.adobe.com/AdobeSVGViewerExtensions/3.0/">
  <defs
     id="defs66255">
    <linearGradient
       inkscape:collect="always"
       id="linearGradient2167">
      <stop
         style="stop-color:#ffc5c5;stop-opacity:1"
         offset="0"
         id="stop2163" />
      <stop
         style="stop-color:#f46262;stop-opacity:1"
         offset="1"
         id="stop2165" />
    </linearGradient>
    <linearGradient
       inkscape:collect="always"
       id="linearGradient1301">
      <stop
         style="stop-color:#a40000;stop-opacity:1"
         offset="0"
         id="stop1297" />
      <stop
         style="stop-color:#690000;stop-opacity:1"
         offset="1"
         id="stop1299" />
    </linearGradient>
    <linearGradient
       inkscape:collect="always"
       xlink:href="#linearGradient1301"
       id="linearGradient1303"
       x1="3"
       y1="3"
       x2="13"
       y2="13"
       gradientUnits="userSpaceOnUse"
       gradientTransform="translate(0,1.0830636)" />
    <linearGradient
       inkscape:collect="always"
       xlink:href="#linearGradient2167"
       id="linearGradient2169"
       x1="3.9499967"
       y1="3.7314553"
       x2="11.922585"
       y2="12.555238"
       gradientUnits="userSpaceOnUse"
       gradientTransform="translate(0,1.0830636)" />
    <radialGradient
       gradientUnits="userSpaceOnUse"
       fy="175.7305"
       fx="17.949699"
       r="12.5232"
       cy="175.7305"
       cx="17.949699"
       id="XMLID_342_">
      <stop
         id="stop13948"
         style="stop-color:#FFFFFF"
         offset="0" />
      <stop
         id="stop13950"
         style="stop-color:#F5D9D9"
         offset="1" />
      <a:midPointStop
         style="stop-color:#FFFFFF"
         offset="0" />
      <a:midPointStop
         style="stop-color:#FFFFFF"
         offset="0.5" />
      <a:midPointStop
         style="stop-color:#F5D9D9"
         offset="1" />
    </radialGradient>
    <radialGradient
       gradientUnits="userSpaceOnUse"
       fy="178.1367"
       fx="19.8755"
       r="6.2732"
       cy="178.1367"
       cx="19.8755"
       id="XMLID_335_">
      <stop
         id="stop13879"
         style="stop-color:#FFFFFF"
         offset="0" />
      <stop
         id="stop13881"
         style="stop-color:#d0d0d0;stop-opacity:1;"
         offset="1" />
      <a:midPointStop
         style="stop-color:#FFFFFF"
         offset="0" />
      <a:midPointStop
         style="stop-color:#FFFFFF"
         offset="0.5" />
      <a:midPointStop
         style="stop-color:#F5D9D9"
         offset="1" />
    </radialGradient>
    <radialGradient
       gradientUnits="userSpaceOnUse"
       fy="170.2549"
       fx="21.107901"
       r="11.3447"
       cy="170.2549"
       cx="21.107901"
       id="XMLID_333_">
      <stop
         id="stop13831"
         style="stop-color:#F5CDCD"
         offset="0.0056" />
      <stop
         id="stop13833"
         style="stop-color:#F4B1B3"
         offset="1" />
      <a:midPointStop
         style="stop-color:#F5CDCD"
         offset="0.0056" />
      <a:midPointStop
         style="stop-color:#F5CDCD"
         offset="0.5" />
      <a:midPointStop
         style="stop-color:#F4B1B3"
         offset="1" />
    </radialGradient>
    <linearGradient
       id="XMLID_332_"
       gradientUnits="userSpaceOnUse"
       x1="30.721201"
       y1="191.5322"
       x2="30.3613"
       y2="189.0127">
      <stop
         offset="0"
         style="stop-color:#F79899"
         id="stop13816" />
      <stop
         offset="0.2851"
         style="stop-color:#F29596"
         id="stop13818" />
      <stop
         offset="0.5962"
         style="stop-color:#E08B8B"
         id="stop13820" />
      <stop
         offset="0.9183"
         style="stop-color:#C77B7C"
         id="stop13822" />
      <stop
         offset="1"
         style="stop-color:#BF7777"
         id="stop13824" />
      <a:midPointStop
         offset="0"
         style="stop-color:#F79899" />
      <a:midPointStop
         offset="0.6893"
         style="stop-color:#F79899" />
      <a:midPointStop
         offset="1"
         style="stop-color:#BF7777" />
    </linearGradient>
    <linearGradient
       y2="170.23441"
       x2="15.4385"
       y1="165.9277"
       x1="6.2603002"
       gradientUnits="userSpaceOnUse"
       id="XMLID_330_">
      <stop
         id="stop13714"
         style="stop-color:#F79899"
         offset="0" />
      <stop
         id="stop13716"
         style="stop-color:#F29596"
         offset="0.3873" />
      <stop
         id="stop13718"
         style="stop-color:#E28C8C"
         offset="0.8091" />
      <stop
         id="stop13720"
         style="stop-color:#D88686"
         offset="1" />
      <a:midPointStop
         style="stop-color:#F79899"
         offset="0" />
      <a:midPointStop
         style="stop-color:#F79899"
         offset="0.6893" />
      <a:midPointStop
         style="stop-color:#D88686"
         offset="1" />
    </linearGradient>
    <radialGradient
       gradientUnits="userSpaceOnUse"
       fy="192.1543"
       fx="20.836399"
       r="25.121799"
       cy="192.1543"
       cx="20.836399"
       id="XMLID_329_">
      <stop
         id="stop13705"
         style="stop-color:black;stop-opacity:0.8041237;"
         offset="0" />
      <stop
         id="stop13707"
         style="stop-color:black;stop-opacity:0;"
         offset="1" />
      <a:midPointStop
         style="stop-color:#B5BABE"
         offset="0" />
      <a:midPointStop
         style="stop-color:#B5BABE"
         offset="0.5" />
      <a:midPointStop
         style="stop-color:#FFFFFF"
         offset="1" />
    </radialGradient>
    <radialGradient
       inkscape:collect="always"
       xlink:href="#XMLID_335_"
       id="radialGradient2385"
       gradientUnits="userSpaceOnUse"
       gradientTransform="matrix(0.341521,0,0,0.340841,-0.61178,-52.29232)"
       cx="22.811001"
       cy="169.3398"
       fx="22.811001"
       fy="169.3398"
       r="14.4674" />
    <radialGradient
       inkscape:collect="always"
       xlink:href="#XMLID_335_"
       id="radialGradient2390"
       gradientUnits="userSpaceOnUse"
       gradientTransform="matrix(0.341521,0,0,0.340841,-0.61178,-52.29232)"
       cx="20.1411"
       cy="171.53419"
       fx="20.1411"
       fy="171.53419"
       r="10.533" />
    <radialGradient
       inkscape:collect="always"
       xlink:href="#XMLID_335_"
       id="radialGradient2393"
       gradientUnits="userSpaceOnUse"
       gradientTransform="matrix(0.341521,0,0,0.340841,-0.61178,-52.29232)"
       cx="18.6763"
       cy="170.998"
       fx="18.6763"
       fy="170.998"
       r="12.6468" />
    <radialGradient
       inkscape:collect="always"
       xlink:href="#XMLID_335_"
       id="radialGradient2396"
       gradientUnits="userSpaceOnUse"
       gradientTransform="matrix(0.341521,0,0,0.340841,-0.61178,-52.29232)"
       cx="12.7739"
       cy="172.56351"
       fx="12.7739"
       fy="172.56351"
       r="9.9041004" />
    <radialGradient
       inkscape:collect="always"
       xlink:href="#XMLID_335_"
       id="radialGradient2399"
       gradientUnits="userSpaceOnUse"
       gradientTransform="matrix(0.341521,0,0,0.340841,-0.61178,-52.29232)"
       cx="21.607901"
       cy="172.16991"
       fx="21.607901"
       fy="172.16991"
       r="3.8350999" />
    <radialGradient
       inkscape:collect="always"
       xlink:href="#XMLID_335_"
       id="radialGradient2402"
       gradientUnits="userSpaceOnUse"
       gradientTransform="matrix(0.341521,0,0,0.340841,-0.61178,-52.29232)"
       cx="20.2603"
       cy="172.9404"
       fx="20.2603"
       fy="172.9404"
       r="6.6736002" />
    <radialGradient
       inkscape:collect="always"
       xlink:href="#XMLID_335_"
       id="radialGradient2405"
       gradientUnits="userSpaceOnUse"
       gradientTransform="matrix(0.341521,0,0,0.340841,-0.61178,-52.29232)"
       cx="19.8755"
       cy="178.1367"
       fx="19.8755"
       fy="178.1367"
       r="6.2732" />
    <radialGradient
       inkscape:collect="always"
       xlink:href="#XMLID_335_"
       id="radialGradient2419"
       gradientUnits="userSpaceOnUse"
       gradientTransform="matrix(0.341521,0,0,0.340841,-0.61178,-52.29232)"
       cx="8.1274004"
       cy="179.32809"
       fx="8.1274004"
       fy="179.32809"
       r="6.3284998" />
    <linearGradient
       inkscape:collect="always"
       xlink:href="#XMLID_330_"
       id="linearGradient2477"
       gradientUnits="userSpaceOnUse"
       gradientTransform="matrix(0.341521,0,0,0.34084,-0.611779,-52.29228)"
       x1="6.2603002"
       y1="165.9277"
       x2="15.4385"
       y2="170.23441" />
    <radialGradient
       inkscape:collect="always"
       xlink:href="#XMLID_329_"
       id="radialGradient2481"
       gradientUnits="userSpaceOnUse"
       gradientTransform="matrix(0.330386,0,0,0.204557,0.163132,4.496092)"
       cx="26.125883"
       cy="32.449398"
       fx="26.125883"
       fy="32.449398"
       r="22.072868" />
  </defs>
  <sodipodi:namedview
     id="base"
     pagecolor="#ffffff"
     bordercolor="#666666"
     borderopacity="1.0"
     inkscape:pageopacity="0.0"
     inkscape:pageshadow="2"
     inkscape:zoom="31.392433"
     inkscape:cx="-2.2457641"
     inkscape:cy="7.3266064"
     inkscape:current-layer="layer1"
     showgrid="true"
     inkscape:grid-bbox="true"
     inkscape:document-units="px"
     inkscape:window-width="2880"
     inkscape:window-height="1557"
     inkscape:window-x="-8"
     inkscape:window-y="-8"
     inkscape:window-maximized="1"
     inkscape:pagecheckerboard="0"
     inkscape:snap-global="false">
    <inkscape:grid
       type="xygrid"
       id="grid66265" />
  </sodipodi:namedview>
  <metadata
     id="metadata66258">
    <rdf:RDF>
      <cc:Work
         rdf:about="">
        <dc:format>image/svg+xml</dc:format>
        <dc:type
           rdf:resource="http://purl.org/dc/dcmitype/StillImage" />
      </cc:Work>
    </rdf:RDF>
  </metadata>
  <g
     id="layer1"
     inkscape:label="Layer 1"
     inkscape:groupmode="layer">
    <g
       id="layer1-7"
       inkscape:label="Layer 1"
       transform="matrix(0.72294862,0,0,0.7209388,0.12455872,-0.55779067)"
       style="stroke-width:1.38515">
      <path
         style="fill:#c8c8c8;fill-opacity:1;stroke:none;stroke-width:0.692575"
         d="M 6.9952523,2.951141 C 7.7661076,2.7681984 8.2961623,2.0243351 9.0228804,1.8180714 9.6942429,1.7395179 10.369705,1.5941483 11.047004,1.7150503 c 1.17939,0.2157929 2.444241,0.6322309 3.187803,1.6301023 0.886438,0.1909939 1.450671,1.0308449 1.488557,1.9033056 0.258645,0.8443302 0.208307,1.7425518 -0.125858,2.5580121 -0.235048,0.7555347 -0.807381,1.3601187 -0.661667,2.1625534 -0.587518,0.5302433 -0.761444,1.3510023 -0.823022,2.0593103 -0.422398,0.808798 -1.230411,1.12891 -2.084257,0.870938 -0.890317,-0.0061 -1.569159,1.134122 -2.4662591,0.624344 C 8.8484772,12.937994 8.2175384,12.146283 7.1685113,12.261519 6.1799607,12.307372 5.278225,11.860018 4.3364452,11.604036 3.4120741,11.203655 3.7653627,10.037583 3.6015378,9.2520301 3.6593841,8.3165337 4.0599775,7.4499917 4.4697067,6.6219933 4.4664606,5.6715504 5.073423,4.9694787 5.5995356,4.2870198 5.9636639,3.7450162 6.5342273,3.3999245 6.9952523,2.951141 Z"
         id="path13711" />
      <path
         id="path13735"
         style="fill:#888a85;stroke:#2e3436;stroke-width:0.692575"
         d="m 7.8855963,12.381175 c 0.3764646,0.555357 0.7399523,1.2947 1.3867618,1.509759 0.2279033,0.115437 0.5033927,0.02118 0.4864792,-0.264327 M 7.7937278,12.348114 C 6.9108525,12.221113 5.995527,12.271997 5.180171,11.871186 4.7503878,11.776686 4.3083108,11.652932 3.9611825,11.369902 M 9.8469496,1.777968 c 0.7361184,-0.3654211 1.5345544,0.082177 2.2804424,0.1873396 0.860135,0.2251362 1.514818,0.7998198 2.16108,1.3532184 0.90027,0.3158796 1.410379,1.1233996 1.462788,2.0512814 0.241352,0.8315809 0.147432,1.7065491 -0.176217,2.5039564 -0.09796,0.6421146 -0.879628,1.2195366 -0.549616,1.8727142 -0.463754,0.696489 -0.932995,1.380084 -0.914237,2.22845 -0.310396,0.887035 -1.228467,1.112533 -2.054111,0.933977 -0.875304,-0.04696 -1.422315,0.948084 -2.2965342,0.71702 M 9.8469496,1.777968 C 8.1953665,0.93556833 6.1185268,1.1375011 4.6333928,2.2307308 3.8259948,2.625378 3.0913445,3.1527253 2.5372464,3.8584396 1.780661,4.4992021 1.3861777,5.4206244 0.78808852,6.1865578 0.18734865,6.9272037 0.51115847,7.8239897 0.25034204,8.6262631 0.32382644,9.7490314 1.2567056,10.639902 2.3219728,10.88991 c 0.5318501,0.227925 0.9621974,0.797302 1.6398926,0.479992" />
      <path
         style="fill:#f57e80;stroke:#cb696b;stroke-width:0.692575"
         d="M 9.7595202,13.626607 C 9.0476821,13.360654 8.7394511,12.462036 7.9235223,12.393458 l -0.037584,-0.01228"
         id="path13724" />
      <path
         style="fill:none;stroke:#a4a4a4;stroke-width:0.692575;stroke-opacity:1"
         d="m 7.5655917,12.21689 c 1.0230353,-0.252447 2.2472234,-0.07626 3.0433903,-0.907383 0.772166,-0.510889 1.534027,-1.043173 2.327138,-1.5169099 0.871555,-0.2714591 1.149967,-1.1999626 1.953175,-1.5390674 0.152201,-0.092713 0.531829,-0.2404403 0.476629,0.089367"
         id="path13737" />
      <path
         style="fill:none;stroke:#a4a4a4;stroke-width:0.692575;stroke-opacity:1"
         d="m 11.629004,1.884992 c 0.781879,0.3991321 1.519619,0.9743692 1.819215,1.8279965 0.402657,0.8354839 1.103294,1.5472644 1.287222,2.4736728 0.107231,0.8704965 -0.304642,1.685408 -0.585331,2.4827609"
         id="path13739" />
      <path
         style="fill:#bababa;fill-opacity:1;stroke-width:1.38515"
         d="M 8.4552542,9.3030508 C 7.8470904,8.4598166 7.3882321,7.3261334 6.2709909,7.052914 5.6929422,6.9954028 4.844667,6.6491536 4.4327558,6.7677858 4.9734287,7.133619 5.769303,7.0700612 6.3917659,7.3502171 7.1612578,7.6421496 7.7301384,8.2536517 8.0471257,9.0015133 8.1419402,9.143119 8.2743031,9.2864813 8.4552542,9.3030508 Z"
         id="path13743" />
      <path
         style="fill:#adadad;fill-opacity:1;stroke-width:1.38515"
         d="M 5.8279353,5.132523 C 6.6342977,4.8296769 7.835889,4.908565 8.0617023,5.9166451 8.4861866,6.908164 8.9773838,7.8825113 9.6481168,8.728802 9.8468741,9.2741207 9.4954058,10.767693 8.7702539,10.152506 8.0339723,9.6250815 6.9798088,10.301467 6.3996446,9.515253 5.942645,8.660629 5.0153534,8.9671338 4.2756553,9.1304595 4.5266605,8.9810639 5.8300791,8.3398298 6.1073226,9.0897565 6.625257,9.9783438 7.806042,9.4817407 8.5513236,9.9555081 9.3855365,10.472727 9.8873741,9.0992563 9.3647668,8.5522629 8.6270216,7.7207535 8.3127911,6.6446735 7.8148914,5.6752765 7.4854343,4.805453 6.3291974,5.3216841 5.8032703,5.1630839 Z"
         id="path13745" />
      <path
         style="fill:#adadad;fill-opacity:1;stroke-width:1.38515"
         d="M 7.5847176,2.7452743 C 8.173313,2.8904691 9.4506166,3.3802258 8.6678217,4.1087128 8.3838998,4.382225 7.5709495,5.0094569 7.7502004,5.1963749 8.107851,4.6102219 9.3068353,4.0871057 8.9333764,3.3324671 8.5789571,3.0480923 8.0473186,2.6518994 7.5847176,2.7452743 Z"
         id="path13747" />
      <path
         style="fill:#adadad;fill-opacity:1;stroke-width:1.38515"
         d="M 5.3156541,4.7763443 C 5.934268,4.4509107 6.9667662,4.1035535 7.4185807,4.1509173 6.7740979,4.1164221 7.239488,3.9924242 7.4910994,3.7412557 6.8197113,4.0224278 6.1501407,4.4375837 5.4531883,4.5907927 5.4107327,4.6551421 5.362417,4.7151349 5.3156541,4.7763443 Z"
         id="path13749" />
      <path
         style="fill:#adadad;fill-opacity:1;stroke-width:1.38515"
         d="M 3.6872833,9.906679 C 4.2281087,10.733094 5.5753584,10.20885 6.0429915,11.102715 5.7020185,10.889306 4.7837408,10.528911 4.1644754,10.396617 3.975786,10.318642 3.6275927,10.134365 3.6872833,9.906679 Z"
         id="path13751" />
      <path
         style="fill:#bababa;fill-opacity:1;stroke-width:1.38515"
         d="M 9.3599428,5.2692 C 8.5572461,5.5053873 9.8300155,6.3729936 9.5891108,6.9408368 9.5300524,7.2427353 9.0085151,8.2234839 9.5561661,7.4766428 10.143333,6.7584519 8.9451771,5.8225928 9.3599428,5.2692 Z"
         id="path13753" />
      <path
         style="fill:#adadad;fill-opacity:1;stroke-width:1.38515"
         d="M 9.9589701,6.6956185 C 10.486085,6.2819379 10.168606,4.6812863 11.110893,5.4276258 11.80694,5.5186193 13.16452,6.1338899 12.569284,6.9720089 12.0894,7.4778345 11.564881,6.9030608 11.161326,6.8061118 11.219782,7.06843 11.797557,7.3550697 11.927853,7.4088316 11.905867,7.125083 13.450585,7.0264375 12.695138,6.3359361 12.358795,6.0247755 12.201889,4.9101737 12.042878,4.9964732 12.253132,5.3521979 12.284724,5.9643509 11.737056,5.5336084 11.13621,5.4393243 10.132487,4.9384097 11.001997,4.382197 11.43404,3.5278973 10.279379,3.1195892 9.7399734,2.73169 9.4198352,2.4701884 9.0594121,2.3442213 9.5678419,2.7436713 10.218107,3.1080395 11.447203,3.7160296 10.63492,4.5709599 10.37855,5.2157187 9.9355425,6.1294069 9.9589701,6.6956185 Z"
         id="path13755" />
      <path
         style="fill:#adadad;fill-opacity:1;stroke-width:1.38515"
         d="M 8.8203401,2.0213287 C 9.2320877,2.0245327 10.030822,2.2474601 10.14068,2.3476033 9.6788573,2.3459361 9.2644642,2.1006285 8.8203401,2.0213287 Z"
         id="path13757" />
      <path
         style="fill:#adadad;fill-opacity:1;stroke-width:1.38515"
         d="M 9.8425117,1.7858077 C 10.726898,1.8827138 11.366758,2.5289072 11.86987,3.1883464 12.203999,3.2029434 11.399431,2.4889535 11.212544,2.335489 10.817204,2.0581547 10.328002,1.7863488 9.8425117,1.7858077 Z"
         id="path13759" />
      <path
         style="fill:#adadad;fill-opacity:1;stroke-width:1.38515"
         d="m 12.421676,4.4668609 c 0.888381,0.5128585 0.987941,1.5775872 1.034676,2.4856499 0.262932,0.791935 0.123645,1.6059836 0.140159,2.4102673 C 13.327765,9.1129265 13.707438,8.101312 13.509546,7.5685704 13.240328,6.8142432 13.383676,5.9495072 13.051205,5.2409119 12.853793,4.9731426 12.556486,4.7792344 12.421676,4.4668609 Z"
         id="path13761" />
      <path
         style="fill:#adadad;fill-opacity:1;stroke-width:1.38515"
         d="M 10.562437,7.4635332 C 10.386505,8.2107439 11.137801,9.0315426 11.790662,8.3489808 12.039018,8.1769912 12.831141,8.028596 12.162554,8.297044 11.505039,8.4800369 10.406369,9.1234874 10.92927,9.9023569 11.42781,10.513542 10.37912,9.7471202 10.761607,9.3558953 11.379152,8.6870719 10.327018,8.2818023 10.441479,7.6056296 l 0.04802,-0.073317 0.07294,-0.068779 z"
         id="path13763" />
      <path
         style="fill:#bababa;fill-opacity:1;stroke-width:1.38515"
         d="m 11.845872,9.5637936 c 0.132923,0.1084776 0.357773,0.7314094 -0.02717,0.280602 -0.0909,-0.076347 -0.06219,-0.2158543 0.02717,-0.280602 z"
         id="path13765" />
      <path
         style="fill:#bababa;fill-opacity:1;stroke-width:1.38515"
         d="m 12.855066,9.1633057 c 0.03364,-0.4093362 -0.603349,-0.3516829 -0.09832,-0.045205 z"
         id="path13767" />
      <path
         style="fill:#a4a4a4;fill-opacity:1;stroke-width:1.38515"
         d="m 6.9457328,11.326623 c 0.288582,0.403151 1.2212503,0.650164 1.3366245,0.762205 -0.5059107,0.01626 -1.1251196,-0.291092 -1.3366245,-0.762205 z"
         id="path13769" />
      <path
         style="fill:#adadad;fill-opacity:1;stroke-width:1.38515"
         d="M 9.2178699,10.530418 C 8.9513355,10.781973 9.0420143,11.619067 9.0216143,11.533512 8.5241348,11.292684 9.0966089,10.82175 9.2178699,10.530418 Z"
         id="path13771" />
      <path
         style="fill:#a4a4a4;fill-opacity:1;stroke-width:1.38515"
         d="m 11.055593,10.97283 c -0.328981,0.20322 -1.4787045,-0.290247 -0.575894,0.09901 0.22973,0.132731 0.407006,0.139808 0.575894,-0.09901 z"
         id="path13773" />
      <path
         style="fill:#a4a4a4;fill-opacity:1;stroke-width:1.38515"
         d="M 3.5947312,9.597537 C 2.8799424,10.167111 1.909734,9.5960987 1.1331965,9.4508696 0.96104564,9.2190238 1.9385361,9.6856427 2.1888992,9.6649199 2.6460794,10.016162 3.6244399,9.3783264 3.5895858,9.4487257 l 0.00515,0.1488113 z"
         id="path13775" />
      <path
         style="fill:#adadad;fill-opacity:1;stroke-width:1.38515"
         d="M 0.50226063,7.8612939 C 1.0463135,7.0707401 1.7800166,8.3005028 1.9696598,8.5568847 2.0865124,7.8064202 0.95357809,7.4656662 0.43747774,7.5159883 0.19373019,7.3369109 0.56813162,7.7980418 0.50226063,7.8612939 Z"
         id="path13777" />
      <path
         style="fill:#adadad;fill-opacity:1;stroke-width:1.38515"
         d="M 0.74849707,6.6335858 C 1.1047261,5.8740591 1.907525,6.2471908 2.4860785,6.3887527 2.9248418,6.4422346 4.1559518,6.2152292 4.0784359,6.5122135 3.2821789,6.5250706 2.4867596,6.3668864 1.6941976,6.3100792 1.2783069,6.0960625 0.56950374,6.8711586 0.59185677,6.7838241 l 0.0975354,-0.097552 z"
         id="path13779" />
      <path
         style="fill:#a4a4a4;fill-opacity:1;stroke-width:1.38515"
         d="M 5.0403884,4.9597167 C 4.2076516,4.8126507 4.5870237,3.3052963 3.7826403,3.4677904 3.4063058,3.5374128 4.4180659,3.4989686 4.1495776,3.9427009 4.0587337,4.540464 4.8180098,4.7706384 4.9751837,5.0997421 Z"
         id="path13781" />
      <path
         style="fill:#9a9a9a;fill-opacity:1;stroke-width:1.38515"
         d="m 5.0789801,3.1406497 c 0.2991031,0.017824 1.3042572,1.0882391 0.5171348,0.61445 C 5.4029435,3.5681351 5.2598979,3.338232 5.0789801,3.1406497 Z"
         id="path13783" />
      <path
         style="fill:#9a9a9a;fill-opacity:1;stroke-width:1.38515"
         d="M 7.2172414,2.8407098 C 6.7313136,2.3324536 5.3100815,2.3732846 5.218595,2.5689373 5.9054108,2.3043327 6.5862714,2.7245339 7.2172414,2.8407098 Z"
         id="path13785" />
      <path
         style="fill:#a4a4a4;fill-opacity:1;stroke-width:1.38515"
         d="M 3.3331262,3.4859214 C 2.7885313,3.8900113 4.1311484,4.4952187 3.3865314,4.749418 3.9696857,4.3392311 2.6553242,3.8888183 3.3331262,3.4859214 Z"
         id="path13787" />
      <path
         style="fill:#a4a4a4;fill-opacity:1;stroke-width:1.38515"
         d="M 2.0097331,4.8523519 C 2.1795678,4.3999353 3.3490303,4.3651025 3.0532981,3.9033567 2.9687652,4.4200191 2.1660528,4.253173 2.0097331,4.8523519 Z"
         id="path13789" />
      <path
         style="fill:#9a9a9a;fill-opacity:1;stroke-width:1.38515"
         d="M 9.092532,1.7339999 C 8.216587,1.4247272 7.2380392,1.3623852 6.3292479,1.5467118 5.9439358,1.6295827 5.6804873,1.8449802 6.2642805,1.789569 6.9461474,1.6797847 7.8094664,1.9816114 8.2546346,2.1323378 7.9311113,1.5448145 6.7305031,1.971658 6.0976512,1.6688141 6.9065602,1.3383939 7.811459,1.5219358 8.6458778,1.6390151 9.069694,1.6547293 8.6965537,2.277629 9.0164662,1.7949883 Z"
         id="path13791" />
      <path
         style="fill:#bababa;fill-opacity:1;stroke-width:1.38515"
         d="m 4.6466151,2.2445793 c 0.6080779,-0.035224 0.2000401,-0.2854323 0,0 z"
         id="path13793" />
      <path
         style="fill:#bababa;fill-opacity:1;stroke-width:1.38515"
         d="m 14.357416,6.3346683 c 0.296516,0.1873256 0.324528,1.4722518 0.157398,0.5980476 -0.01625,-0.2090151 -0.149295,-0.3878043 -0.157398,-0.5980476 z"
         id="path13795" />
      <path
         style="fill:#bababa;fill-opacity:1;stroke-width:1.38515"
         d="m 13.61495,4.5268492 c -0.340887,0.037447 -0.04469,0.4550427 0,0 z"
         id="path13797" />
      <path
         style="fill:#adadad;fill-opacity:1;stroke-width:1.38515"
         d="m 14.437332,3.5009183 c 0.133799,0.521562 0.528097,1.0512368 0.50903,1.6562961 0.340953,0.5498195 0.539027,1.5484727 0.663339,1.924564 C 15.571034,6.2579765 15.117726,5.557426 14.967635,4.7577081 14.942551,4.2526293 14.566382,3.9215837 14.437332,3.5009183 Z"
         id="path13799" />
      <path
         style="fill:#bababa;fill-opacity:1;stroke-width:1.38515"
         d="M 15.52405,8.0842037 C 15.224926,7.7839156 14.326868,8.6292445 15.036188,8.2076734 15.254742,7.8627052 15.440548,8.5811566 15.52405,8.0842037 Z"
         id="path13803" />
      <path
         style="fill:#b0b0b0;fill-opacity:1;stroke-width:1.38515"
         d="m 14.078393,11.385247 c -0.309865,0.49613 -1.094337,0.626608 -1.354123,1.207491 -0.295546,0.20449 -0.999183,0.398599 -0.301042,0.05091 0.58289,-0.378825 1.008564,-0.973341 1.655165,-1.258396 z"
         id="path13805" />
      <path
         style="fill:#b0b0b0;fill-opacity:1;stroke-width:1.38515"
         d="m 12.604732,11.845381 c 0.848554,-0.03492 -1.240436,0.664646 -0.272637,0.185756 0.08593,-0.06846 0.171178,-0.140583 0.272637,-0.185756 z"
         id="path13807" />
      <path
         style="fill:#a4a4a4;fill-opacity:1;stroke-width:1.38515"
         d="m 13.405256,10.653802 c -0.513535,0.596748 -1.328893,0.815083 -1.911623,1.326165 -0.638676,0.658535 0.431083,-0.165365 0.645613,-0.289277 0.441286,-0.300336 1.001951,-0.553417 1.26601,-1.036888 z"
         id="path13809" />
      <path
         style="fill:#b0b0b0;fill-opacity:1;stroke-width:1.38515"
         d="m 14.629608,8.979592 c -0.03195,0.7375364 -0.373532,1.275655 -0.915587,1.682528 -0.492298,-0.07621 0.451718,-0.246059 0.484786,-0.61853 0.353089,-0.2861849 0.251088,-0.7286545 0.430801,-1.063998 z"
         id="path13813" />
      <path
         style="fill:#888a85;stroke-width:1.38515"
         d="M 11.741025,10.596541 C 11.138356,11.090465 10.51868,11.5899 9.9334045,12.083345 9.2473033,11.976744 9.3398745,12.698601 8.9625571,12.914809 8.561968,12.638933 8.0806278,12.402263 7.6905205,12.231036 c 0.7470548,-0.29902 1.639534,-0.07913 2.3530055,-0.523169 0.588808,-0.338969 1.069962,-0.826278 1.697499,-1.111326 z"
         id="path13826" />
      <path
         style="fill:#a4a4a4;fill-opacity:1;stroke-width:1.38515"
         d="m 10.171738,12.415949 c 0.264992,-0.101729 0.07137,0.454187 -0.01774,0.425164 -0.108739,0.53761 -0.1764595,-0.376987 0.01774,-0.425164 z"
         id="path13828" />
      <path
         style="fill:#babdb6;stroke-width:1.38515"
         d="M 4.2262031,8.9291482 C 4.9495239,8.6922322 5.9845227,8.2220183 6.3370615,9.232028 6.9707483,9.8530183 7.8993965,9.3074734 8.6072378,9.650859 9.5518813,10.218307 9.5606639,8.5886497 8.9244874,8.2356093 8.2428923,7.5009774 8.1620802,6.4472761 7.637442,5.6243278 7.2224691,4.8296373 5.8112468,5.7354888 5.5926366,5.2127538 6.1831545,4.5387059 7.1908624,5.3296715 7.7847644,4.7920084 7.9647532,4.184055 8.7619672,4.1215141 8.859511,3.586708 8.4974564,3.0881329 7.7680955,3.3113969 7.4036476,2.9157197 6.8963216,3.2705958 6.2678351,3.5625093 5.9293232,4.0969563 5.9136493,4.7413615 6.8627715,3.8024252 7.2176785,3.7721061 7.593682,3.629501 7.6955186,3.5458744 7.5500806,3.951379 7.6938815,4.6678815 6.4817531,4.0844144 6.1049032,4.5156354 5.2969292,4.7637737 4.6674723,5.7015693 4.9030892,6.5206199 5.6686945,6.8693705 6.6991141,6.7886939 7.3139709,7.5100222 7.743708,7.9763951 8.4284163,8.9406408 8.3425457,9.3253536 7.7189998,8.8275536 7.5356903,7.9063585 6.7009111,7.6027158 5.9332855,7.4511229 4.6415433,6.6199963 4.1794548,7.6109085 4.1164138,8.3990734 3.417063,9.5452826 4.3204956,10.070046 c 0.6954548,0.311765 2.0412094,0.03031 1.8933554,1.208755 -0.706561,-0.05406 -1.3368356,-0.766716 -2.1251064,-0.76679 -0.6534451,0.09987 0.2193239,1.13734 0.7331545,1.041479 0.8287232,-0.07815 1.5026914,1.065877 2.2903536,0.447786 0.120659,-0.351708 -0.7939402,-0.455964 -0.1578354,-0.753919 0.3750137,0.02653 0.4320224,0.522548 0.7740906,0.0691 -0.1421968,0.822016 1.7416944,0.742645 0.9930719,0.06654 0.018094,-0.31717 0.569796,-1.240579 -0.3407771,-1.18658 C 7.572836,10.134828 6.6775287,10.087571 6.1419385,9.3810437 5.5564194,8.6285399 4.758835,9.3384487 4.0456375,9.2235447 3.8757708,9.1276409 4.1647509,8.9768622 4.2262031,8.9291482 Z"
         id="path13835" />
      <path
         style="fill:#babdb6;stroke-width:1.38515"
         d="m 9.3630164,10.652439 c -0.8662653,0.579066 0.9216346,1.147734 0.6457606,0.567865 -0.6830774,-0.05445 -0.3909037,-1.203989 0.182766,-0.5451 0.441895,0.456695 1.44131,-0.243745 0.587291,-0.553454 -0.682368,-0.5236324 0.636344,-1.449473 -0.365458,-1.8432964 -0.4259395,-0.3449429 0.201992,-1.33187 0.341711,-0.680384 -0.224085,0.9931975 1.024506,0.952389 1.508069,0.4212944 0.526452,-0.4716756 0.502087,0.1830684 0.05227,0.3243177 -0.109784,0.5164032 1.182286,0.4793761 0.459898,0.8771322 C 12.353308,8.9250008 11.991089,8.2763268 11.375949,8.7914721 10.675753,9.1528876 11.162056,10.322557 11.667088,10.438562 12.136476,10.336229 11.513404,9.0470188 12.119055,9.6536673 12.607018,10.253303 13.705253,9.2487013 13.439632,8.5656264 13.748664,7.7713424 13.108404,6.2923365 12.303199,7.384465 11.847486,7.9318844 11.587725,7.2444594 11.168419,7.1366676 10.805454,6.6578953 11.391577,6.4644137 11.632607,6.9037621 12.460209,7.546441 13.077141,6.1101359 12.103617,5.8519976 11.558906,5.8921799 10.929856,5.0561922 10.527335,5.4399405 10.536222,6.2817466 9.9308282,6.8518609 9.5347643,7.5350229 9.1200165,8.3210831 10.338615,8.9694159 9.6420354,9.7797198 9.5251058,10.061288 9.3873305,10.343921 9.3630164,10.652439 Z"
         id="path13837" />
      <path
         style="fill:#babdb6;stroke-width:1.38515"
         d="M 9.1751804,7.6567892 C 9.9643875,6.8983875 8.626793,5.9364852 9.1047249,5.2037179 9.6407429,5.1300827 9.1722307,5.7705293 9.517728,6.0488671 9.6872735,6.3761653 9.8344086,7.2232909 9.8999605,6.3972507 9.8566466,5.4265084 10.697081,4.7341345 10.797744,3.8724803 10.583193,3.0908116 9.3517929,3.0499741 9.2292372,2.3458183 c 0.6241306,0.4545202 1.3810958,0.8039948 1.9828328,1.312281 0.569758,0.6231322 -0.757938,0.9792263 -0.361447,1.44708 0.419181,0.3001018 1.52579,0.6361345 1.113361,-0.1937493 0.385201,-0.4202505 0.261157,0.8277119 0.534306,1.0655943 0.283626,0.7347005 0.998116,0.2850398 0.635748,-0.3519964 -0.049,-0.5087275 -1.076739,-0.8760649 -0.669554,-1.3015117 0.24178,0.3080273 0.842717,1.1127416 0.941392,0.2623514 0.467785,-0.3914143 0.268514,0.3179104 -0.0165,0.4641182 -0.09668,0.7754558 0.128723,1.5756169 0.264565,2.3373554 0.272883,0.5030911 -0.145232,1.4050575 0.10112,1.7063212 0.417778,-0.6509221 0.775494,-1.4373879 0.661602,-2.2332909 -0.17373,-0.301516 -0.144467,-1.0106602 0.138149,-0.4156036 0.174779,0.9323105 0.184999,-0.4915355 -0.07548,-0.7549445 -0.39111,-0.8133363 -0.890207,-1.5669907 -1.297594,-2.3729593 -0.583011,-0.884814 -1.605584,-1.4233098 -2.631431,-1.6109995 -0.516072,0.1719879 0.965617,0.3160447 0.961634,0.8364622 0.274898,0.1178099 0.893997,1.0646305 0.249626,0.5921497 C 11.184415,2.5719555 10.595904,1.8908591 9.7322523,1.8556629 9.4087752,1.6477813 8.6785017,1.959483 9.3776436,2.083438 9.7191277,2.0684406 10.768792,2.4453215 9.9099412,2.3822723 9.3526572,2.185014 8.0136589,1.8207759 8.0816421,2.7616131 8.6266463,3.0126554 9.6960099,3.4518664 8.8521417,4.1148856 8.1495754,4.5937896 7.5706885,5.3847048 8.2340565,6.1641217 c 0.225545,0.422187 0.4274703,1.4538031 0.9411239,1.4926675 z"
         id="path13839" />
      <path
         style="fill:#babdb6;stroke-width:1.38515"
         d="m 12.522425,2.2643481 c 0.831328,0.1204406 1.328369,0.8203485 1.759016,1.4390369 0.07888,0.7881908 0.530629,1.4302182 0.868058,2.1356935 0.395495,0.8236816 0.162627,2.0007079 -0.638672,2.4956867 C 14.333541,7.8723068 15.106193,6.8960696 14.806341,6.1768211 14.596088,5.2376364 13.856054,4.5329155 13.547319,3.6284403 13.419713,3.0166925 12.721425,2.6998349 12.522425,2.2643481 Z"
         id="path13841" />
      <path
         style="fill:#d3d3d3;fill-opacity:1;stroke-width:1.38515"
         d="m 14.749141,3.802903 c 0.608313,0.7426266 0.852486,1.7679047 1.061869,2.6654065 0.02351,0.3943556 -0.246337,0.6191419 -0.214889,0.078024 C 15.237593,5.6849784 15.042074,4.7578871 14.750522,3.8919072 l -0.0014,-0.089004 z"
         id="path13843" />
      <path
         style="fill:#d3d3d3;fill-opacity:1;stroke-width:1.38515"
         d="m 9.5768086,12.224738 c 0.8761564,0.230647 1.1212534,-1.105301 1.8681964,-1.182152 0.565968,-0.77659 1.558504,-1.0509704 2.305445,-1.5973812 0.386264,-0.3400243 0.915207,-1.4332811 1.45129,-1.0313002 0.04194,0.4039942 -0.301894,0.8253675 -0.534383,0.4681745 -0.505874,0.3782158 -0.247203,1.2855119 -1.010146,1.4627799 -0.552281,0.630995 -1.416784,0.79669 -1.985604,1.384761 -0.586629,0.176428 -0.658855,1.603952 -1.288538,0.899749 -0.129388,-1.000748 -0.8639964,0.677296 0.0038,0.666631 -0.4686466,0.824861 -1.7106855,-0.383798 -0.9208127,-0.997947 l 0.1107253,-0.07331 z"
         id="path13845" />
      <path
         style="fill:#b0b0b0;fill-opacity:1;stroke-width:1.38515"
         d="m 12.294289,11.621108 c 0.682821,-0.407413 1.45365,-0.776216 1.964114,-1.378963 0.102109,0.778079 -0.889845,0.988214 -1.222331,1.492804 -0.579281,-0.257559 -1.441445,0.947802 -1.601577,0.582326 0.255285,-0.269322 0.59841,-0.433678 0.859794,-0.696167 z"
         id="path13847" />
      <path
         style="fill:url(#radialGradient2419);fill-opacity:1;stroke-width:1.38515"
         d="M 0.59003142,7.1421204 C 0.8887013,6.2530256 1.9375272,6.3687316 2.6691651,6.4852077 3.2033341,6.4022916 4.3385885,6.4803752 3.6979524,7.2630541 3.2809156,8.0548071 3.619824,9.7410472 2.3199766,9.6149948 1.8506926,9.7370872 0.9976618,8.9607823 0.85291166,9.4202616 1.3192247,9.9247052 2.2065505,9.7462082 2.8531507,9.8487441 3.6057645,9.9110957 3.1055759,10.827038 3.5236249,11.260552 2.8407934,11.090644 2.0507543,10.743064 1.3950762,10.374461 0.63801574,9.9336801 0.2070861,8.9472964 0.44893685,8.1037263 0.92780949,7.182485 1.7606572,8.3198374 1.9968464,8.603594 2.1226388,8.0413114 1.2006708,7.2895082 0.64987795,7.5832133 0.38684895,7.5566346 0.3966642,7.2620029 0.59003142,7.1421204 Z"
         id="path13854" />
      <path
         style="fill:#d3d3d3;fill-opacity:1;stroke-width:1.38515"
         d="M 1.3434262,5.8544238 C 1.4922011,5.0650049 2.4834136,4.6852068 3.0666319,4.3427535 3.653641,4.2197768 3.0999769,5.1794882 3.6576387,4.7285162 3.9236448,4.2294817 2.8114886,3.5420322 3.7672357,3.5648447 4.1850647,3.8203723 3.9318406,4.5197923 4.5437295,4.7188882 5.0498004,5.0786543 4.2599573,5.3529932 4.2995732,5.8057081 3.8939533,6.5810756 2.9123798,6.3756107 2.2171125,6.2196261 1.9131101,6.1312857 1.6248046,5.9976894 1.3434262,5.8544238 Z"
         id="path13856" />
      <path
         style="fill:#babdb6;stroke-width:1.38515"
         d="M 2.1774199,4.4072138 C 2.2588957,4.0586435 3.3017317,3.4975657 2.768472,4.1308095 2.5672943,4.1843857 2.3936965,4.4591723 2.1774199,4.4072138 Z"
         id="path13858" />
      <path
         style="fill:#babdb6;stroke-width:1.38515"
         d="M 4.9177824,4.7149931 C 5.5080102,4.3078178 5.3448973,3.4908137 5.0601421,3.0694602 5.3676639,2.9032688 5.9826756,4.0023174 6.0322239,3.1108951 6.0275585,2.8178818 7.0735615,3.0856569 6.4827582,2.6621305 5.7027308,2.4460338 4.4491433,2.6675509 4.403218,3.656493 4.37848,4.0602595 4.5222941,4.5338012 4.9177824,4.7149931 Z"
         id="path13860" />
      <path
         style="fill:#babdb6;stroke-width:1.38515"
         d="M 3.684551,3.3247037 C 3.7819944,2.9306912 4.7767019,2.4696569 4.796197,2.7247954 4.4251989,2.9221901 4.2127253,3.7081455 3.684551,3.3247037 Z"
         id="path13862" />
      <path
         style="fill:#babdb6;stroke-width:1.38515"
         d="M 4.8832888,2.3560342 C 5.5995364,2.0676298 6.8058642,1.6624375 7.3631366,2.2165074 7.1600965,2.9301129 6.2242638,2.2115661 5.7200745,2.390798 5.4431852,2.4056919 5.1486783,2.4668102 4.8832888,2.3560342 Z"
         id="path13864" />
      <path
         style="fill:#babdb6;stroke-width:1.38515"
         d="M 8.046454,1.8427281 C 8.3276932,1.3552201 7.1035876,1.6072123 6.7865574,1.5372423 6.075036,1.6103124 6.4536036,1.7572063 6.9144542,1.7259275 7.2922146,1.760718 7.6683648,1.8112919 8.046454,1.8427281 Z"
         id="path13866" />
      <path
         style="fill:#babdb6;stroke-width:1.38515"
         d="M 5.15753,2.0138302 C 5.4271763,1.6475819 6.6187669,1.8683301 5.6292883,1.9734415 5.5395413,1.9613668 5.1296683,2.1459874 5.15753,2.0138302 Z"
         id="path13868" />
      <path
         style="fill:#babdb6;stroke-width:1.38515"
         d="M 9.0740898,1.5809624 C 8.5412494,1.2926374 7.2295444,1.2590914 7.1049581,1.3757874 c 0.6266132,-0.00582 1.5228337,0.2074472 1.9691317,0.205175 z"
         id="path13870" />
      <path
         style="fill:#babdb6;stroke-width:1.38515"
         d="M 3.045224,3.4726285 C 3.4134667,3.0183644 4.2980465,2.2923375 4.7275352,2.526484 3.8416578,2.3694142 3.8388158,3.6204731 3.045224,3.4726285 Z"
         id="path13872" />
      <path
         style="fill:#e7e7e7;fill-opacity:1;stroke-width:1.38515"
         d="m 10.539555,7.2856135 c -0.9105718,0.4255459 0.460495,1.5779227 -0.394987,2.1154529 -0.034,0.3682484 1.081166,1.2830706 0.18874,1.0501536 C 9.6678164,10.465957 9.3841601,9.829025 9.9627507,9.4146193 10.265948,8.6387769 9.0432774,8.0291111 9.8003848,7.2809439 10.114903,6.7454088 10.621227,6.2457858 10.590617,5.580019 c 0.485839,-0.4014369 1.224158,0.3703405 1.724742,0.5366904 0.441662,0.8009686 -0.682827,1.0205801 -0.953066,0.3203128 -0.601588,-0.012429 -0.776855,0.9715044 -0.03441,0.8683354 0.349954,0.4366941 0.839209,0.6874797 1.117806,0.022296 0.667153,-0.5504272 1.154615,0.2574683 0.840645,0.863339 0.112019,0.28454 0.19551,1.2904287 -0.154826,0.968763 0.208788,-0.5438676 -0.946523,-0.5954764 -0.365797,-1.0341063 0.04807,-1.0703539 -0.867834,0.2997065 -1.418026,0.034756 -0.712279,0.021993 -0.209117,-0.9438102 -0.808132,-0.8747921 z"
         id="path13874" />
      <path
         style="fill:#e7e7e7;fill-opacity:1;stroke-width:1.38515"
         d="m 11.136534,9.3381569 c -0.02819,0.6241324 0.618457,0.4905387 0.769446,0.025904 0.280476,0.4666779 1.577515,0.1096871 0.645199,-0.079651 C 12.29242,8.6305964 11.389478,8.53993 11.151308,9.2503892 l -0.01477,0.087768 z"
         id="path13876" />
      <path
         style="fill:url(#radialGradient2405);fill-opacity:1;stroke-width:1.38515"
         d="M 8.6769017,10.462932 C 8.7469452,10.866954 8.4494269,11.428403 8.4039416,11.707375 7.8392157,11.589858 7.5250014,10.908682 6.8500206,11.079774 6.1779291,10.580051 5.640309,9.8617631 4.7070034,9.9520367 3.6173729,9.4442378 5.3943217,8.7872463 5.8434707,9.3404185 c 0.6281148,0.553222 1.377325,0.9553435 2.2252758,1.0243505 0.2026482,0.03315 0.4058538,0.0629 0.6081552,0.09816 z"
         id="path13883" />
      <path
         style="fill:url(#radialGradient2402);fill-opacity:1;stroke-width:1.38515"
         d="M 4.727897,7.5371549 C 5.8516771,7.2302369 7.1156639,7.7534134 7.731457,8.7308179 8.1660042,9.0290034 8.1836164,9.6546298 7.5032596,9.4048788 6.5982413,9.2459929 5.9435777,8.0229198 4.9412339,8.5662216 4.180852,9.0071856 3.8542465,8.0757676 4.4797988,7.6698013 l 0.1193811,-0.075234 z"
         id="path13890" />
      <path
         style="fill:url(#radialGradient2399);fill-opacity:1;stroke-width:1.38515"
         d="M 7.4214706,5.5111971 C 7.9531797,6.2235905 8.0908407,7.1460731 8.6208404,7.8633191 8.9426441,8.1810278 9.6620029,9.3868492 8.7779892,9.2485094 7.8823925,8.6583922 7.8354414,7.2809973 6.8050369,6.8602255 5.9277162,6.9887186 4.3736081,6.0741425 5.8088812,5.5224853 6.3222797,5.4265855 6.9201728,5.3466828 7.4214706,5.5111971 Z"
         id="path13897" />
      <path
         style="fill:url(#radialGradient2396);fill-opacity:1;stroke-width:1.38515"
         d="M 1.8311178,6.7886685 C 2.6620095,6.5360436 3.8462082,7.1081864 3.3281954,8.0985565 3.3993545,9.0227353 2.4703285,9.58138 1.6617488,9.1844726 1.1665919,9.1852471 0.54324201,7.8424552 1.2758081,8.1294144 1.5155637,8.452621 2.0879586,9.1667315 2.2237313,8.3565398 2.5033408,7.6020754 0.77241706,7.3921694 1.342688,6.7952825 1.5024383,6.7526773 1.6697787,6.7658193 1.8311178,6.7886685 Z"
         id="path13904" />
      <path
         style="fill:url(#radialGradient2393);fill-opacity:1;stroke-width:1.38515"
         d="M 2.2204516,5.0742393 C 2.4844868,4.5278321 3.1479642,4.363959 3.4179592,4.961949 3.888265,5.0374535 3.6414359,3.7331361 4.1310469,4.4852238 4.8425396,4.9242548 4.0160372,6.0147386 3.5852039,6.2164818 2.9551262,6.4028281 1.5901743,5.9735513 2.0614902,5.1702077 l 0.074983,-0.052501 z"
         id="path13911" />
      <path
         style="fill:url(#radialGradient2390);fill-opacity:1;stroke-width:1.38515"
         d="M 4.9666198,2.9426211 C 4.945558,3.4398785 5.5381989,4.528785 4.8202931,4.595036 4.3274512,4.2088446 4.2217842,3.1174167 4.9666198,2.9426211 Z"
         id="path13918" />
      <path
         style="fill:#d3d7cf;stroke-width:1.38515"
         d="M 1.7030476,9.8541899 C 2.2287804,9.9267772 3.509784,9.9717973 2.9506229,10.807862 2.6016785,10.601236 1.2069292,10.368705 1.7030476,9.8541899 Z"
         id="path13920" />
      <path
         style="fill:#e7e7e7;fill-opacity:1;stroke-width:1.38515"
         d="m 13.995404,9.352813 c -0.244025,0.829977 -0.932605,1.329786 -1.663626,1.589067 -0.6707,0.456615 -1.126197,1.275042 -1.656146,1.754369 -0.7201108,-0.378193 0.272191,-1.212547 0.73937,-1.331106 0.494701,-0.554892 0.970124,-1.144312 1.652882,-1.4804299 0.30404,-0.1860092 0.613425,-0.3633513 0.92752,-0.5319001 z"
         id="path13922" />
      <path
         style="fill:url(#radialGradient2385);fill-opacity:1;stroke-width:1.38515"
         d="M 5.5571089,2.2306049 C 5.9389404,1.9850881 7.3889642,1.9833035 6.8833153,2.4650004 6.6749279,2.2384675 5.1576741,2.4491256 5.5571089,2.2306049 Z"
         id="path13929" />
      <path
         style="fill:#e7e7e7;fill-opacity:1;stroke-width:1.38515"
         d="M 5.3856659,2.788902 C 6.0021594,2.2017979 6.254697,3.567083 5.5469267,3.276345 5.4238255,3.1730261 5.2200586,2.9414167 5.3856659,2.788902 Z"
         id="path13931" />
      <path
         style="fill:#e7e7e7;fill-opacity:1;stroke-width:1.38515"
         d="M 8.0689943,1.6382237 C 7.6815237,1.5514663 6.4350792,1.6340005 7.4264449,1.7169928 7.5818856,1.6868679 8.1597054,2.0032126 8.0689943,1.6382237 Z"
         id="path13933" />
      <path
         style="fill:#e7e7e7;fill-opacity:1;stroke-width:1.38515"
         d="M 8.640017,2.2991139 C 9.1244185,3.0019201 10.161343,3.0279565 10.616516,3.736834 10.849418,4.5495589 9.4643809,4.3329276 9.9457497,5.1243253 10.063481,5.5500796 9.8066939,6.9308318 9.5195712,5.9154878 9.4730621,5.4819934 9.6858657,4.7801513 8.9939487,5.099167 8.4719979,5.7156847 9.3860681,6.3666246 9.311161,7.0489497 9.2091989,8.1394629 8.4572385,6.7996804 8.3560552,6.3384816 8.0120476,5.676657 7.9402098,5.0428422 8.5906504,4.5560571 8.7580775,4.1135713 9.745805,3.633311 9.4556266,3.289307 9.0927309,3.0802462 7.2812333,2.6234857 8.640017,2.2991139 Z"
         id="path13935" />
      <path
         style="fill:#e7e7e7;fill-opacity:1;stroke-width:1.38515"
         d="M 10.718171,4.9539224 C 11.185394,4.5832901 11.939398,3.9361653 11.106108,3.4327416 10.747834,3.0931256 9.6606966,2.8815515 9.7114118,2.451461 10.128079,2.3869613 10.72351,2.931003 10.956324,2.7727546 10.653035,2.5660132 10.239737,1.863625 10.906394,2.3353985 c 0.299113,0.3625049 0.962001,1.6651881 1.372487,0.8903637 -0.384594,-0.4684577 -1.039225,-0.8237207 -1.290879,-1.3229748 1.075336,0.2701003 1.97246,1.0972694 2.413599,2.1047107 0.05657,0.3813524 -0.382443,1.1537386 -0.538466,0.38523 -0.453911,-0.8513307 -1.445149,0.4664044 -0.891089,0.9744051 -0.423461,0.045072 -0.904032,-0.1858256 -1.253875,-0.4132108 z"
         id="path13937" />
      <path
         style="fill:#e7e7e7;fill-opacity:1;stroke-width:1.38515"
         d="m 12.339369,4.931427 c 0.577202,-0.02614 1.122762,1.4434533 0.440209,1.2452049 C 12.513043,5.8606118 12.268997,5.2757856 12.339369,4.931427 Z"
         id="path13939" />
      <path
         style="fill:#e7e7e7;fill-opacity:1;stroke-width:1.38515"
         d="m 13.424381,5.1362724 c 0.729463,-0.647038 1.051918,0.8567721 0.719879,1.2316681 0.298836,0.7620449 0.170026,1.9355902 -0.380665,2.4334446 C 13.94601,7.9243485 13.619185,7.1254226 13.499721,6.270217 13.459475,5.8933828 13.443385,5.5145979 13.424381,5.1362724 Z"
         id="path13941" />
      <path
         style="fill:#e7e7e7;fill-opacity:1;stroke-width:1.38515"
         d="m 13.047684,2.6631317 c 0.925733,0.292574 1.129175,1.2425783 1.39433,2.007627 0.469958,0.7212024 1.018253,1.5469652 0.692432,2.4369763 0.10328,0.4459139 -0.757724,1.288997 -0.411701,0.417951 0.4071,-0.9803701 0.03698,-1.9847573 -0.542623,-2.8006207 C 13.83159,4.0222462 13.41686,3.3019716 13.047684,2.6631317 Z"
         id="path13943" />
      <path
         style="fill:#e7e7e7;fill-opacity:1;stroke-width:1.38515"
         d="M 7.273934,2.9692068 C 7.7018415,2.9564164 7.8063829,3.6148189 8.3201954,3.3200605 9.0803817,3.3745358 8.5720517,4.1666074 8.0904115,4.1752252 7.8685722,4.758719 7.3616013,5.204204 6.7519468,4.8163225 6.478555,4.8581294 5.2604156,5.22097 5.8252026,4.7178937 6.4366171,4.2714267 8.0891448,4.7193392 7.6449731,3.5195284 7.0524151,3.4829106 6.5734961,4.2962909 5.9392711,4.2037319 6.2928724,3.6978493 6.9120037,3.4673428 7.273934,2.9692068 Z"
         id="path13945" />
      <path
         style="fill:#d3d7cf;stroke-width:1.38515"
         d="m 3.9447898,10.592792 c 0.8644023,-0.02076 1.5029725,0.61187 2.1946506,1.011 0.3132318,0.08303 0.9744298,0.538976 0.2221639,0.435273 C 5.7035515,11.38654 4.4015994,11.793806 3.9840935,10.878342 3.9518977,10.799074 3.8840301,10.68086 3.9447898,10.592792 Z"
         id="path13952" />
      <path
         style="fill:none;stroke:#9a9a9a;stroke-width:0.692575;stroke-opacity:1"
         d="M 9.7595202,13.626607 C 9.0293916,13.327825 8.6802638,12.414934 7.8251231,12.359276 l -0.031395,-0.01082"
         id="path13958" />
      <path
         style="fill:none;stroke:#a4a4a4;stroke-width:0.692575;stroke-opacity:1"
         d="M 3.9615238,11.370243 C 3.5269103,10.664257 3.679728,9.778028 3.6259696,8.9923733 3.7351942,8.1524904 4.0975976,7.3748837 4.4693651,6.6230158 4.4661114,5.672496 5.0731762,4.970422 5.5992997,4.2878906 6.1494634,3.5397303 6.9113005,3.0224058 7.7099799,2.6281452 8.3013283,2.0996886 9.0524906,1.6537019 9.846608,1.7776272"
         id="path13962" />
    </g>
    <g
       id="g7730"
       transform="translate(1.0830636)">
      <path
         id="path66272"
         style="color:#000000;display:inline;overflow:visible;visibility:visible;fill:none;fill-opacity:1;fill-rule:nonzero;stroke:url(#linearGradient1303);stroke-width:2;stroke-miterlimit:4;stroke-dasharray:none;marker:none;enable-background:accumulate"
         d="m 8,3.1221261 c -3.2923306,0 -5.9609375,2.6686069 -5.9609375,5.9609375 0,3.2923314 2.6686069,5.9609384 5.9609375,5.9609384 3.292331,0 5.960938,-2.668607 5.960938,-5.9609384 C 13.960938,5.790733 11.292331,3.1221261 8,3.1221261 Z m 0,1.5839844 c 0.9550209,0 1.8382118,0.3071144 2.558594,0.828125 L 4.4511719,11.641658 C 3.9301613,10.921275 3.6230469,10.038084 3.6230469,9.0830636 3.6230469,6.6690744 5.5860108,4.7061105 8,4.7061105 Z m 3.558594,1.8320312 c 0.515038,0.7178907 0.818359,1.5959292 0.818359,2.5449219 0,2.4139894 -1.962964,4.3769534 -4.376953,4.3769534 -0.9489927,0 -1.8270312,-0.303321 -2.5449219,-0.818359 z" />
      <path
         id="path66261"
         style="color:#000000;display:inline;overflow:visible;visibility:visible;fill:url(#linearGradient2169);fill-opacity:1;fill-rule:nonzero;stroke:none;stroke-width:1;marker:none;enable-background:accumulate"
         d="m 8,3.1221261 c -3.2923306,0 -5.9609375,2.6686069 -5.9609375,5.9609375 0,3.2923314 2.6686069,5.9609384 5.9609375,5.9609384 3.292331,0 5.960938,-2.668607 5.960938,-5.9609384 C 13.960938,5.790733 11.292331,3.1221261 8,3.1221261 Z m 0,1.5839844 c 0.9550209,0 1.8382118,0.3071144 2.558594,0.828125 L 4.4511719,11.641658 C 3.9301613,10.921275 3.6230469,10.038084 3.6230469,9.0830636 3.6230469,6.6690744 5.5860108,4.7061105 8,4.7061105 Z m 3.558594,1.8320312 c 0.515038,0.7178907 0.818359,1.5959292 0.818359,2.5449219 0,2.4139894 -1.962964,4.3769534 -4.376953,4.3769534 -0.9489927,0 -1.8270312,-0.303321 -2.5449219,-0.818359 z" />
    </g>
  </g>
</svg>
