<?xml version="1.0" encoding="UTF-8" standalone="no"?>
<!-- Created with Inkscape (http://www.inkscape.org/) -->

<svg
   width="16.0px"
   height="16.0px"
   viewBox="0 0 16.0 16.0"
   version="1.1"
   id="SVGRoot"
   sodipodi:docname="sync2.svg"
   inkscape:version="1.3-dev (fdc7329b, 2022-05-31)"
   xmlns:inkscape="http://www.inkscape.org/namespaces/inkscape"
   xmlns:sodipodi="http://sodipodi.sourceforge.net/DTD/sodipodi-0.dtd"
   xmlns="http://www.w3.org/2000/svg"
   xmlns:svg="http://www.w3.org/2000/svg">
  <sodipodi:namedview
     id="namedview1"
     pagecolor="#ffffff"
     bordercolor="#666666"
     borderopacity="1.0"
     inkscape:showpageshadow="2"
     inkscape:pageopacity="0.0"
     inkscape:pagecheckerboard="0"
     inkscape:deskcolor="#d1d1d1"
     inkscape:document-units="px"
     showgrid="true"
     inkscape:zoom="26.910887"
     inkscape:cx="7.7663736"
     inkscape:cy="9.3270803"
     inkscape:window-width="2880"
     inkscape:window-height="1557"
     inkscape:window-x="-8"
     inkscape:window-y="-8"
     inkscape:window-maximized="1"
     inkscape:current-layer="layer1">
    <inkscape:grid
       type="xygrid"
       id="grid1" />
  </sodipodi:namedview>
  <defs
     id="defs1" />
  <g
     inkscape:label="Layer 1"
     inkscape:groupmode="layer"
     id="layer1">
    <path
       d="M 4.7429359,14.692055 1.9893317,11.450541 4.7573527,8.1920543 5.3628573,8.904848 3.6328441,10.941402 h 9.3564879 v 1.018277 H 3.6328441 l 1.7155964,2.019582 z M 11.235728,8.1920543 10.630224,7.4792606 12.34582,5.4596783 H 2.9893317 V 4.4414016 H 12.34582 L 10.615807,2.404848 11.221311,1.6920543 13.989332,4.9505399 Z"
       id="Shape-Copy-2"
       stroke="#565656"
       stroke-width="3"
       stroke-linejoin="round"
       style="fill:none;fill-rule:nonzero;stroke:#2e3436;stroke-width:3;stroke-dasharray:none" />
    <path
       d="M 4.7057762,13.989332 1.952172,10.747818 4.720193,7.4893318 5.3256976,8.2021255 3.5956844,10.238679 h 9.3564876 v 1.018277 H 3.5956844 l 1.7155964,2.019582 z M 11.198568,7.4893318 10.593064,6.7765381 12.30866,4.7569558 H 2.952172 V 3.7386791 H 12.30866 L 10.578647,1.7021255 11.184151,0.98933176 13.952172,4.2478174 Z"
       id="Shape-Copy"
       stroke="#565656"
       stroke-width="3"
       stroke-linejoin="round"
       style="fill:none;fill-rule:nonzero;stroke:#555753;stroke-width:2;stroke-dasharray:none" />
    <path
       d="M 4.7057762,13.989332 1.952172,10.747818 4.720193,7.4893318 5.3256976,8.2021255 3.5956844,10.238679 h 9.3564876 v 1.018277 H 3.5956844 l 1.7155964,2.019582 z M 11.198568,7.4893318 10.593064,6.7765381 12.30866,4.7569558 H 2.952172 V 3.7386791 H 12.30866 L 10.578647,1.7021255 11.184151,0.98933176 13.952172,4.2478174 Z"
       id="Shape"
       fill="#ffffff"
       style="fill-rule:nonzero;stroke:none;stroke-width:1" />
  </g>
</svg>
