<?xml version="1.0" encoding="UTF-8" standalone="no"?>
<svg
   xmlns:dc="http://purl.org/dc/elements/1.1/"
   xmlns:cc="http://creativecommons.org/ns#"
   xmlns:rdf="http://www.w3.org/1999/02/22-rdf-syntax-ns#"
   xmlns:svg="http://www.w3.org/2000/svg"
   xmlns="http://www.w3.org/2000/svg"
   xmlns:sodipodi="http://sodipodi.sourceforge.net/DTD/sodipodi-0.dtd"
   xmlns:inkscape="http://www.inkscape.org/namespaces/inkscape"
   width="16px"
   height="16px"
   id="svg70604"
   version="1.1"
   inkscape:version="1.0.2-2 (e86c870879, 2021-01-15)"
   sodipodi:docname="texture_only_show_groups.svg">
  <defs
     id="defs70606" />
  <sodipodi:namedview
     id="base"
     pagecolor="#ffffff"
     bordercolor="#666666"
     borderopacity="1.0"
     inkscape:pageopacity="0.0"
     inkscape:pageshadow="2"
     inkscape:zoom="44.395604"
     inkscape:cx="6.9863861"
     inkscape:cy="8.0675743"
     inkscape:current-layer="g13502"
     showgrid="true"
     inkscape:grid-bbox="true"
     inkscape:document-units="px"
     inkscape:snap-global="false"
     inkscape:window-width="2560"
     inkscape:window-height="1377"
     inkscape:window-x="-8"
     inkscape:window-y="-8"
     inkscape:window-maximized="1"
     inkscape:document-rotation="0">
    <inkscape:grid
       type="xygrid"
       id="grid70612"
       empspacing="5"
       visible="true"
       enabled="true"
       snapvisiblegridlinesonly="true" />
  </sodipodi:namedview>
  <metadata
     id="metadata70609">
    <rdf:RDF>
      <cc:Work
         rdf:about="">
        <dc:format>image/svg+xml</dc:format>
        <dc:type
           rdf:resource="http://purl.org/dc/dcmitype/StillImage" />
        <dc:title></dc:title>
      </cc:Work>
    </rdf:RDF>
  </metadata>
  <g
     id="layer1"
     inkscape:label="Layer 1"
     inkscape:groupmode="layer">
    <path
       sodipodi:type="arc"
       style="color:#000000;fill:none;stroke:#eeeeec;stroke-width:1.52817523000000000;stroke-linecap:butt;stroke-linejoin:miter;stroke-miterlimit:4;stroke-opacity:0.50196078000000000;stroke-dasharray:none;stroke-dashoffset:3.20916809999999986;marker:none;visibility:visible;display:inline;overflow:visible"
       id="path2943"
       sodipodi:cx="11.42005"
       sodipodi:cy="11.431189"
       sodipodi:rx="11.014604"
       sodipodi:ry="11.014604"
       d="m 22.434653,11.431189 a 11.014604,11.014604 0 1 1 -22.02920695,0 11.014604,11.014604 0 1 1 22.02920695,0 z"
       transform="matrix(0.67469917,0,0,0.67235259,0.3148697,0.25040694)" />
    <path
       sodipodi:type="arc"
       style="color:#000000;fill:none;stroke:#555753;stroke-width:1.52817518;stroke-linecap:butt;stroke-linejoin:miter;stroke-miterlimit:4;stroke-opacity:1;stroke-dasharray:1.52817518,1.52817518;stroke-dashoffset:1.83381022;marker:none;visibility:visible;display:inline;overflow:visible"
       id="path9608"
       sodipodi:cx="11.42005"
       sodipodi:cy="11.431189"
       sodipodi:rx="11.014604"
       sodipodi:ry="11.014604"
       d="m 22.434653,11.431189 a 11.014604,11.014604 0 1 1 -22.02920695,0 11.014604,11.014604 0 1 1 22.02920695,0 z"
       transform="matrix(0.67469917,0,0,0.67235259,0.29805825,0.24637764)" />
    <rect
       style="color:#000000;fill:#eeeeec;fill-opacity:1;stroke:#2e3436;stroke-width:0.98222935;stroke-linecap:round;stroke-linejoin:miter;stroke-miterlimit:4;stroke-opacity:1;stroke-dasharray:none;stroke-dashoffset:1.23511677;marker:none;visibility:visible;display:inline;overflow:visible;enable-background:accumulate"
       id="rect72924"
       width="8.8316889"
       height="8.966836"
       x="3.6254928"
       y="3.5428193" />
    <rect
       style="color:#000000;overflow:visible;fill:#2e3436;stroke:none;stroke-width:2;stroke-linecap:round;stop-color:#000000"
       id="rect5194"
       width="4.4599013"
       height="4.6626234"
       x="3.4913366"
       y="3.4462872" />
    <rect
       style="color:#000000;overflow:visible;fill:#2e3436;stroke:none;stroke-width:2;stroke-linecap:round;stop-color:#000000"
       id="rect5196"
       width="4.504951"
       height="4.437376"
       x="7.9512377"
       y="8.0863867" />
    <g
       id="g13502"
       transform="matrix(0.88341191,0,0,0.87798071,3.6998835,5.456341)"
       style="stroke-width:1.13547">
      <path
         d="m 13.381381,7.9726662 c 0,0.1380233 -0.04057,0.2780743 -0.12171,0.4201571 -0.56798,0.9336872 -1.3317,1.6816407 -2.291183,2.2438837 -0.959482,0.562241 -1.9727047,0.843358 -3.0396975,0.843358 -1.0669929,0 -2.0802153,-0.282131 -3.0396974,-0.846403 C 3.929611,10.069391 3.1658909,9.3224512 2.5979098,8.3928233 2.5167697,8.2507405 2.4762002,8.1106895 2.4762002,7.9726662 c 0,-0.1380233 0.04057,-0.2780743 0.1217096,-0.4201572 C 3.1658909,6.6228813 3.929611,5.8759427 4.8890931,5.311671 5.8485752,4.7473991 6.8617976,4.4652674 7.9287905,4.4652674 c 1.0669928,0 2.0802155,0.2821317 3.0396975,0.8464036 0.959483,0.5642717 1.723203,1.3112103 2.291183,2.240838 0.08114,0.1420829 0.12171,0.2821339 0.12171,0.4201572 z"
         id="Path"
         inkscape:connector-curvature="0"
         style="fill:#ffffff;stroke:#204a87;stroke-width:1.13547" />
      <circle
         id="Oval-1"
         cx="8"
         cy="8"
         r="3.5"
         style="fill:#63a9fa;stroke:none;stroke-width:1.13547"
         transform="matrix(0.77894148,0,0,0.77942194,1.6972588,1.3475797)" />
      <path
         d="m 7.9497828,5.8725487 c 0,-0.081191 -0.028399,-0.1502009 -0.085197,-0.207034 -0.056798,-0.056833 -0.1257663,-0.085249 -0.2069063,-0.085249 -0.5071259,0 -0.9422334,0.1816604 -1.3053356,0.5449863 -0.3631021,0.3633262 -0.5446505,0.7987021 -0.5446505,1.3061408 0,0.081191 0.028399,0.150201 0.085197,0.2070341 0.056798,0.056833 0.1257662,0.085249 0.2069064,0.085249 0.081141,0 0.1501082,-0.028416 0.2069063,-0.085249 0.056798,-0.056833 0.085197,-0.1258439 0.085197,-0.2070341 0,-0.3491178 0.1237368,-0.6474873 0.3712142,-0.8951173 0.2474777,-0.2476302 0.5456632,-0.3714434 0.8945659,-0.3714434 0.08114,0 0.1501081,-0.028416 0.2069062,-0.085249 0.056798,-0.056833 0.085197,-0.1258437 0.085196,-0.2070344 z"
         id="path4558"
         inkscape:connector-curvature="0"
         style="fill:#ffffff;stroke:none;stroke-width:1.13547" />
    </g>
  </g>
</svg>
