<?xml version="1.0" encoding="UTF-8" standalone="no"?>
<svg
   viewBox="0 0 16 16"
   version="1.1"
   id="svg1"
   sodipodi:docname="tools_outline.svg"
   width="16"
   height="16"
   inkscape:version="1.3-dev (fdc7329b, 2022-05-31)"
   xmlns:inkscape="http://www.inkscape.org/namespaces/inkscape"
   xmlns:sodipodi="http://sodipodi.sourceforge.net/DTD/sodipodi-0.dtd"
   xmlns="http://www.w3.org/2000/svg"
   xmlns:svg="http://www.w3.org/2000/svg">
  <defs
     id="defs1" />
  <sodipodi:namedview
     id="namedview1"
     pagecolor="#ffffff"
     bordercolor="#666666"
     borderopacity="1.0"
     inkscape:showpageshadow="2"
     inkscape:pageopacity="0.0"
     inkscape:pagecheckerboard="0"
     inkscape:deskcolor="#d1d1d1"
     showgrid="false"
     inkscape:zoom="29.5"
     inkscape:cx="15.322034"
     inkscape:cy="16"
     inkscape:window-width="2560"
     inkscape:window-height="1377"
     inkscape:window-x="-8"
     inkscape:window-y="-8"
     inkscape:window-maximized="1"
     inkscape:current-layer="svg1" />
  <path
     d="M 1.6145893,0.1059322 1.2751415,0.42652184 0.42652185,1.2751415 0.1059322,1.6145893 0.35108899,2.0106119 1.6145893,4.1227319 1.7843133,4.4244633 H 3.5569854 L 5.9708369,6.8194564 C 3.8139284,8.9857939 1.0700583,11.739093 0.97341007,11.835741 c -0.94526785,0.945268 -0.94762498,2.494 0.0188582,3.394479 0.94291073,0.931124 2.47985523,0.954697 3.37562033,0 0.00707,-0.0071 0.011786,-0.01179 0.018858,-0.01886 l 3.7150684,-3.733927 3.733927,3.752785 0.05658,0.03772 c 0.947625,0.893408 2.453925,0.905195 3.337904,-0.03772 v -0.01886 h 0.01886 c 0.924052,-0.945268 0.933482,-2.482213 -0.01886,-3.375621 l -0.01886,-0.01886 -3.149322,-3.1304634 c 2.119192,-0.1980112 3.778715,-1.9871845 3.809359,-4.148807 h 0.01886 c 0.0024,-0.011786 0,-0.025931 0,-0.037717 0,-0.00707 0,-0.011786 0,-0.018858 0.05893,-0.6977539 -0.09193,-1.3648634 -0.452597,-1.942396 L 15.02278,1.8974626 12.212906,4.7073365 11.364287,3.8210004 14.230735,0.95455185 13.400974,0.61510399 C 12.915375,0.40766363 12.354343,0.25679791 11.722593,0.25679791 c -2.3195609,0 -4.2242405,1.90467969 -4.2242405,4.22423999 0,0.2522288 0.054215,0.4714554 0.094291,0.697754 -0.264015,0.264015 -0.4620262,0.4808844 -0.7731867,0.792045 L 4.4244633,3.5758436 V 1.7843133 L 4.1227319,1.6145893 2.0106119,0.35108899 Z M 11.722593,1.4637236 c 0.08486,0 0.143794,0.049503 0.226298,0.056575 l -2.2818439,2.2818439 0.4148809,0.4337389 1.69724,1.753814 0.41488,0.4337388 2.394993,-2.3949931 c 0.01179,0.1390795 0.110793,0.2404425 0.09429,0.3960225 v 0.056575 c 0,1.6618799 -1.355435,3.0173142 -3.017315,3.0173142 -0.221583,0 -0.490313,-0.051862 -0.792045,-0.1131493 L 10.553384,7.3286282 10.327085,7.5549268 3.519269,14.3816 H 3.500411 v 0.01886 C 3.0713867,14.869557 2.3217724,14.881343 1.8220297,14.3816 V 14.36274 H 1.8031715 C 1.3340733,13.933718 1.322287,13.184104 1.8220297,12.684361 2.0506854,12.455705 6.4800089,7.9886657 8.6487036,5.8199712 L 8.8938603,5.5748144 8.7995693,5.2353665 C 8.7500672,5.0397124 8.7052782,4.7026223 8.7052782,4.4810379 c 0,-1.66188 1.3554348,-3.0173143 3.0173148,-3.0173143 z M 1.8031715,1.6145893 3.2175376,2.4820672 V 3.0855301 L 3.0855301,3.2175376 H 2.4820672 L 1.6145893,1.8031715 Z m 8.8256445,7.3358453 3.752785,3.7339264 v 0.01886 h 0.01886 c 0.469099,0.429025 0.480885,1.178639 -0.01886,1.678381 h -0.01886 v 0.01886 c -0.429024,0.469098 -1.178638,0.480884 -1.678381,-0.01886 L 8.950435,10.628816 Z"
     id="path1"
     style="fill:#eeeeec;stroke-width:0.999998" />
</svg>
