<?xml version="1.0" encoding="UTF-8" standalone="no"?>
<!-- Created with Inkscape (http://www.inkscape.org/) -->

<svg
   width="16px"
   height="16px"
   id="svg2383"
   sodipodi:version="0.32"
   inkscape:version="1.3 (0e150ed6c4, 2023-07-21)"
   sodipodi:docname="info.svg"
   inkscape:output_extension="org.inkscape.output.svg.inkscape"
   version="1.1"
   xmlns:inkscape="http://www.inkscape.org/namespaces/inkscape"
   xmlns:sodipodi="http://sodipodi.sourceforge.net/DTD/sodipodi-0.dtd"
   xmlns="http://www.w3.org/2000/svg"
   xmlns:svg="http://www.w3.org/2000/svg"
   xmlns:rdf="http://www.w3.org/1999/02/22-rdf-syntax-ns#"
   xmlns:cc="http://creativecommons.org/ns#"
   xmlns:dc="http://purl.org/dc/elements/1.1/">
  <defs
     id="defs2385">
    <inkscape:perspective
       sodipodi:type="inkscape:persp3d"
       inkscape:vp_x="0 : 8 : 1"
       inkscape:vp_y="0 : 1000 : 0"
       inkscape:vp_z="16 : 8 : 1"
       inkscape:persp3d-origin="8 : 5.3333333 : 1"
       id="perspective2391" />
  </defs>
  <sodipodi:namedview
     id="base"
     pagecolor="#ffffff"
     bordercolor="#666666"
     borderopacity="1.0"
     inkscape:pageopacity="0.0"
     inkscape:pageshadow="2"
     inkscape:zoom="45.460418"
     inkscape:cx="11.779478"
     inkscape:cy="8.0839555"
     inkscape:current-layer="layer1"
     showgrid="true"
     inkscape:grid-bbox="true"
     inkscape:document-units="px"
     inkscape:window-width="2560"
     inkscape:window-height="1377"
     inkscape:window-x="-8"
     inkscape:window-y="-8"
     inkscape:snap-bbox="true"
     inkscape:pagecheckerboard="0"
     inkscape:snap-global="false"
     inkscape:window-maximized="1"
     inkscape:showpageshadow="2"
     inkscape:deskcolor="#d1d1d1">
    <inkscape:grid
       type="xygrid"
       id="grid3189"
       visible="true"
       enabled="true"
       originx="0"
       originy="0"
       spacingy="1"
       spacingx="1"
       units="px" />
  </sodipodi:namedview>
  <metadata
     id="metadata2388">
    <rdf:RDF>
      <cc:Work
         rdf:about="">
        <dc:format>image/svg+xml</dc:format>
        <dc:type
           rdf:resource="http://purl.org/dc/dcmitype/StillImage" />
      </cc:Work>
    </rdf:RDF>
  </metadata>
  <g
     id="layer1"
     inkscape:label="Layer 1"
     inkscape:groupmode="layer">
    <path
       style="font-style:italic;font-variant:normal;font-weight:normal;font-stretch:normal;font-size:45.1447px;line-height:125%;font-family:'Bell MT';text-align:start;writing-mode:lr-tb;text-anchor:start;fill:#729fcf;fill-opacity:1;stroke:#204a87;stroke-width:1px;stroke-linecap:butt;stroke-linejoin:miter;stroke-opacity:1"
       d="M 8.2624446,1.5393108 C 9.4406347,1.2821806 10.446988,2.7401519 9.791099,3.7502903 9.2476301,4.836834 7.4667738,4.6906676 7.0995162,3.5365461 6.7441449,2.682317 7.3532001,1.6626072 8.2624446,1.5393108 Z"
       id="path3" />
    <path
       style="font-style:italic;font-variant:normal;font-weight:normal;font-stretch:normal;font-size:45.1447px;line-height:125%;font-family:'Bell MT';text-align:start;writing-mode:lr-tb;text-anchor:start;fill:#729fcf;fill-opacity:1;stroke:#204a87;stroke-width:1px;stroke-linecap:butt;stroke-linejoin:miter;stroke-opacity:1"
       d="m 8.9139538,12.735859 c 0.3865871,-0.325261 0.8515962,-0.680376 1.1658942,-1.068435 0.53896,-0.290186 0.235267,0.565311 -0.01742,0.714853 C 9.4613136,13.086799 7.659692,14.381475 6.6712632,14.377873 6.1557294,14.422803 5.7292385,13.929206 5.8989853,13.429932 6.1936659,11.35621 6.8633286,9.3526051 7.1263986,7.2738514 7.2669922,6.624966 6.6485156,7.032613 6.3757397,7.2900527 6.031757,7.6079654 5.7187738,7.9075812 5.3642942,8.2121181 4.8235154,8.233621 5.4644374,7.4963757 5.6491535,7.3045586 6.1858533,6.7049272 7.8397412,5.4656907 8.6932131,5.4018907 9.2064178,5.4180875 9.5296715,5.9515856 9.4413091,6.4293211 9.297419,7.3861239 9.0178241,8.3191451 8.8112298,9.2643746 8.5213851,10.470687 8.2176449,12.087628 8.0551292,12.909156 c -0.084334,0.426322 0.4330773,0.147293 0.8588246,-0.173297 z"
       id="path4" />
    <path
       style="font-style:italic;font-variant:normal;font-weight:normal;font-stretch:normal;font-size:45.1447px;line-height:125%;font-family:'Bell MT';text-align:start;writing-mode:lr-tb;text-anchor:start;fill:#7bafe7;fill-opacity:1;stroke:none;stroke-width:1px;stroke-linecap:butt;stroke-linejoin:miter;stroke-opacity:1"
       d="M 8.2624446,1.5393108 C 9.4406347,1.2821806 10.446988,2.7401519 9.791099,3.7502903 9.2476301,4.836834 7.4667738,4.6906676 7.0995162,3.5365461 6.7441449,2.682317 7.3532001,1.6626072 8.2624446,1.5393108 Z"
       id="path11735" />
    <path
       style="font-style:italic;font-variant:normal;font-weight:normal;font-stretch:normal;font-size:45.1447px;line-height:125%;font-family:'Bell MT';text-align:start;writing-mode:lr-tb;text-anchor:start;fill:#7bafe7;fill-opacity:1;stroke:none;stroke-width:1px;stroke-linecap:butt;stroke-linejoin:miter;stroke-opacity:1"
       d="m 8.9139538,12.735859 c 0.3865871,-0.325261 0.8515962,-0.680376 1.1658942,-1.068435 0.53896,-0.290186 0.235267,0.565311 -0.01742,0.714853 C 9.4613136,13.086799 7.659692,14.381475 6.6712632,14.377873 6.1557294,14.422803 5.7292385,13.929206 5.8989853,13.429932 6.1936659,11.35621 6.8633286,9.3526051 7.1263986,7.2738514 7.2669922,6.624966 6.6485156,7.032613 6.3757397,7.2900527 6.031757,7.6079654 5.7187738,7.9075812 5.3642942,8.2121181 4.8235154,8.233621 5.4644374,7.4963757 5.6491535,7.3045586 6.1858533,6.7049272 7.8397412,5.4656907 8.6932131,5.4018907 9.2064178,5.4180875 9.5296715,5.9515856 9.4413091,6.4293211 9.297419,7.3861239 9.0178241,8.3191451 8.8112298,9.2643746 8.5213851,10.470687 8.2176449,12.087628 8.0551292,12.909156 c -0.084334,0.426322 0.4330773,0.147293 0.8588246,-0.173297 z"
       id="text11727" />
  </g>
</svg>
