<?xml version="1.0" encoding="UTF-8"?>
<svg xmlns="http://www.w3.org/2000/svg" xmlns:xlink="http://www.w3.org/1999/xlink" viewBox="0 0 75 75">
  <defs>
    <style>
      .cls-1 {
        opacity: 0;
        stroke-linecap: round;
        stroke-linejoin: round;
      }

      .cls-1, .cls-2, .cls-3, .cls-4, .cls-5, .cls-6 {
        stroke: #231f20;
      }

      .cls-1, .cls-2, .cls-7, .cls-8 {
        fill: none;
      }

      .cls-2, .cls-3, .cls-9, .cls-4, .cls-7, .cls-5, .cls-6, .cls-8 {
        fill-rule: evenodd;
      }

      .cls-2, .cls-3, .cls-4, .cls-7, .cls-5, .cls-6, .cls-8 {
        stroke-miterlimit: 10;
        stroke-width: 3.1px;
      }

      .cls-3 {
        fill: url(#Linear_Gradient_44);
      }

      .cls-9 {
        fill: #231f20;
      }

      .cls-4 {
        fill: url(#Linear_Gradient_44-3);
      }

      .cls-7 {
        stroke: #000;
      }

      .cls-5 {
        fill: url(#Linear_Gradient_44-2);
      }

      .cls-6 {
        fill: url(#Linear_Gradient_44-4);
      }

      .cls-8 {
        stroke: #fff;
      }
    </style>
    <linearGradient id="Linear_Gradient_44" data-name="Linear Gradient 44" x1="25.85" y1="49.5" x2="17.84" y2="25.49" gradientUnits="userSpaceOnUse">
      <stop offset="0" stop-color="#e0e0e0"/>
      <stop offset="1" stop-color="#fff"/>
    </linearGradient>
    <linearGradient id="Linear_Gradient_44-2" data-name="Linear Gradient 44" x1="38.5" y1="32.34" x2="30.5" y2="8.33" xlink:href="#Linear_Gradient_44"/>
    <linearGradient id="Linear_Gradient_44-3" data-name="Linear Gradient 44" x1="53.36" y1="37.69" x2="45.36" y2="13.68" xlink:href="#Linear_Gradient_44"/>
    <linearGradient id="Linear_Gradient_44-4" data-name="Linear Gradient 44" x1="47.69" y1="54.07" x2="39.68" y2="30.06" xlink:href="#Linear_Gradient_44"/>
  </defs>
  <g id="KEEP_ON_FOR_EXPORT" data-name="KEEP ON FOR EXPORT">
    <line class="cls-1" x1="-.35" y1=".35" x2=".35" y2="-.35"/>
    <line class="cls-1" x1="74.65" y1="75.35" x2="75.35" y2="74.65"/>
  </g>
  <g id="ICON">
    <polyline class="cls-2" points="70.32 15.63 70.32 4.69 59.38 4.69"/>
    <polyline class="cls-2" points="4.69 59.38 4.69 70.31 15.63 70.31"/>
    <g>
      <polygon class="cls-3" points="11.93 24.79 11.85 63.66 39.37 63.67 39.37 33.93 30.22 24.79 11.93 24.79"/>
      <polygon class="cls-9" points="38.3 33.94 30.29 25.93 30.29 33.94 38.3 33.94"/>
      <polyline class="cls-2" points="30.22 24.79 30.22 33.94 39.44 33.94"/>
      <polyline class="cls-8" points="29.08 27.08 14.14 27.07 14.07 62.52"/>
      <polyline class="cls-7" points="31.36 36.22 37.09 36.22 37.01 61.38 12.93 61.37"/>
    </g>
    <g>
      <polygon class="cls-5" points="24.58 7.63 24.51 46.5 52.03 46.51 52.03 16.78 42.88 7.63 24.58 7.63"/>
      <polygon class="cls-9" points="50.96 16.78 42.94 8.78 42.94 16.78 50.96 16.78"/>
      <polyline class="cls-2" points="42.88 7.64 42.88 16.78 52.09 16.78"/>
      <polyline class="cls-8" points="41.74 9.92 26.8 9.91 26.73 45.36"/>
      <polyline class="cls-7" points="44.02 19.07 49.74 19.07 49.67 44.22 25.59 44.21"/>
    </g>
    <g>
      <polygon class="cls-4" points="39.44 12.98 39.37 51.85 66.88 51.86 66.88 22.12 57.74 12.98 39.44 12.98"/>
      <polygon class="cls-9" points="65.82 22.13 57.8 14.12 57.8 22.13 65.82 22.13"/>
      <polyline class="cls-2" points="57.74 12.98 57.74 22.13 66.95 22.13"/>
      <polyline class="cls-8" points="56.6 15.27 41.66 15.26 41.59 50.71"/>
      <polyline class="cls-7" points="58.88 24.41 64.6 24.41 64.53 49.57 40.45 49.56"/>
    </g>
    <g>
      <polygon class="cls-6" points="33.77 29.36 33.69 68.23 61.21 68.24 61.21 38.51 52.06 29.36 33.77 29.36"/>
      <polygon class="cls-9" points="60.14 38.51 52.13 30.51 52.13 38.51 60.14 38.51"/>
      <polyline class="cls-2" points="52.06 29.37 52.06 38.51 61.28 38.51"/>
      <polyline class="cls-8" points="50.92 31.65 35.98 31.64 35.91 67.09"/>
      <polyline class="cls-7" points="53.2 40.8 58.93 40.8 58.85 65.95 34.77 65.94"/>
    </g>
  </g>
</svg>