<?xml version="1.0" encoding="UTF-8" standalone="no"?>
<svg
   viewBox="0 0 48 48"
   version="1.1"
   id="svg162"
   sodipodi:docname="big_red_button.svg"
   inkscape:version="1.3.2 (091e20e, 2023-11-25, custom)"
   xmlns:inkscape="http://www.inkscape.org/namespaces/inkscape"
   xmlns:sodipodi="http://sodipodi.sourceforge.net/DTD/sodipodi-0.dtd"
   xmlns:xlink="http://www.w3.org/1999/xlink"
   xmlns="http://www.w3.org/2000/svg"
   xmlns:svg="http://www.w3.org/2000/svg"
   xmlns:rdf="http://www.w3.org/1999/02/22-rdf-syntax-ns#"
   xmlns:cc="http://creativecommons.org/ns#"
   xmlns:dc="http://purl.org/dc/elements/1.1/">
  <metadata
     id="metadata166">
    <rdf:RDF>
      <cc:Work
         rdf:about="">
        <dc:format>image/svg+xml</dc:format>
        <dc:type
           rdf:resource="http://purl.org/dc/dcmitype/StillImage" />
      </cc:Work>
    </rdf:RDF>
  </metadata>
  <sodipodi:namedview
     pagecolor="#ffffff"
     bordercolor="#666666"
     borderopacity="1"
     objecttolerance="10"
     gridtolerance="10"
     guidetolerance="10"
     inkscape:pageopacity="0"
     inkscape:pageshadow="2"
     inkscape:window-width="2560"
     inkscape:window-height="1377"
     id="namedview164"
     showgrid="false"
     inkscape:zoom="15.3125"
     inkscape:cx="23.9673"
     inkscape:cy="23.9673"
     inkscape:window-x="-8"
     inkscape:window-y="-8"
     inkscape:window-maximized="1"
     inkscape:current-layer="svg162"
     inkscape:showpageshadow="2"
     inkscape:pagecheckerboard="0"
     inkscape:deskcolor="#d1d1d1" />
  <defs
     id="defs63">
    <style
       id="style2">.cls-1{fill:url(#linear-gradient);}.cls-2{isolation:isolate;}.cls-3{fill:#d0d0d0;}.cls-4{fill:url(#radial-gradient);}.cls-5{fill:url(#linear-gradient-2);}.cls-25,.cls-26,.cls-33,.cls-34,.cls-6{mix-blend-mode:multiply;}.cls-6{fill:url(#linear-gradient-3);}.cls-7{clip-path:url(#clip-path);}.cls-8{fill:url(#linear-gradient-5);}.cls-9{fill:url(#linear-gradient-6);}.cls-10{fill:url(#linear-gradient-7);}.cls-11{fill:url(#linear-gradient-8);}.cls-12{fill:url(#linear-gradient-9);}.cls-13{fill:url(#linear-gradient-10);}.cls-14{fill:url(#linear-gradient-11);}.cls-15,.cls-22{fill:#eeeeec;}.cls-16{fill:url(#linear-gradient-12);}.cls-17{fill:url(#linear-gradient-13);}.cls-18,.cls-28,.cls-32{fill:none;}.cls-18{stroke:#2e3436;}.cls-18,.cls-20,.cls-22{stroke-miterlimit:10;}.cls-18,.cls-22{stroke-width:0.35px;}.cls-19{fill:#2e3436;}.cls-20{stroke:#a40000;fill:url(#linear-gradient-14);}.cls-21{fill:#d3d7cf;}.cls-22,.cls-32{stroke:#babdb6;}.cls-23{fill:#888a85;}.cls-24{fill:url(#linear-gradient-15);}.cls-25{fill:url(#linear-gradient-16);}.cls-26{fill:url(#linear-gradient-17);}.cls-27{fill:url(#linear-gradient-18);}.cls-28{stroke:#888a85;}.cls-28,.cls-32{stroke-linecap:round;stroke-linejoin:round;stroke-width:0.7px;}.cls-29{fill:url(#linear-gradient-19);}.cls-30{fill:url(#linear-gradient-20);}.cls-31{fill:url(#linear-gradient-21);}.cls-33{fill:url(#linear-gradient-22);}.cls-34{fill:url(#linear-gradient-23);}.cls-35{fill:url(#linear-gradient-24);}</style>
    <linearGradient
       id="linear-gradient"
       x1="14.94"
       y1="6.1"
       x2="35.97"
       y2="62.26"
       gradientUnits="userSpaceOnUse">
      <stop
         offset="0"
         stop-color="#2e3436"
         id="stop4" />
      <stop
         offset="1"
         stop-color="#d3d7cf"
         id="stop6" />
    </linearGradient>
    <radialGradient
       id="radial-gradient"
       cx="24.28"
       cy="38.04"
       r="20.08"
       gradientTransform="matrix(1.19,0,0,0.74,-5,4.23)"
       gradientUnits="userSpaceOnUse">
      <stop
         offset="0.44"
         stop-color="#2c2c2c"
         stop-opacity="0.5"
         id="stop9" />
      <stop
         offset="0.82"
         stop-color="#2c2c2c"
         stop-opacity="0.1"
         id="stop11" />
      <stop
         offset="0.99"
         stop-color="#2c2c2c"
         stop-opacity="0"
         id="stop13" />
    </radialGradient>
    <linearGradient
       id="linear-gradient-2"
       x1="28.86"
       y1="19.73"
       x2="37.11"
       y2="11.26"
       gradientUnits="userSpaceOnUse">
      <stop
         offset="0"
         stop-color="#fff"
         stop-opacity="0"
         id="stop16" />
      <stop
         offset="1"
         stop-color="snow"
         id="stop18" />
    </linearGradient>
    <linearGradient
       id="linear-gradient-3"
       x1="39.53"
       y1="5.76"
       x2="34.31"
       y2="14.66"
       xlink:href="#linear-gradient" />
    <clipPath
       id="clip-path">
      <polygon
         class="cls-1"
         points="21.89 39.64 4.68 29.23 24.31 16.13 41.52 26.54 21.89 39.64"
         id="polygon22" />
    </clipPath>
    <linearGradient
       id="linear-gradient-5"
       x1="23.54"
       y1="6.77"
       x2="23.54"
       y2="43.82"
       gradientUnits="userSpaceOnUse">
      <stop
         offset="0"
         stop-color="#c4a000"
         id="stop25" />
      <stop
         offset="0.2"
         stop-color="#edd400"
         id="stop27" />
      <stop
         offset="0.92"
         stop-color="#fffade"
         id="stop29" />
    </linearGradient>
    <linearGradient
       id="linear-gradient-6"
       x1="23.27"
       y1="6.77"
       x2="23.27"
       y2="43.82"
       xlink:href="#linear-gradient-5" />
    <linearGradient
       id="linear-gradient-7"
       x1="22.99"
       y1="6.77"
       x2="22.99"
       y2="43.82"
       xlink:href="#linear-gradient-5" />
    <linearGradient
       id="linear-gradient-8"
       x1="22.71"
       y1="6.77"
       x2="22.71"
       y2="43.82"
       xlink:href="#linear-gradient-5" />
    <linearGradient
       id="linear-gradient-9"
       x1="22.44"
       y1="6.77"
       x2="22.44"
       y2="43.82"
       xlink:href="#linear-gradient-5" />
    <linearGradient
       id="linear-gradient-10"
       x1="22.16"
       y1="6.77"
       x2="22.16"
       y2="43.82"
       xlink:href="#linear-gradient-5" />
    <linearGradient
       id="linear-gradient-11"
       x1="21.88"
       y1="6.77"
       x2="21.88"
       y2="43.82"
       xlink:href="#linear-gradient-5" />
    <linearGradient
       id="linear-gradient-12"
       x1="24.36"
       y1="23.15"
       x2="23.57"
       y2="32.41"
       xlink:href="#linear-gradient-2" />
    <linearGradient
       id="linear-gradient-13"
       x1="25.43"
       y1="34.35"
       x2="23.79"
       y2="28.53"
       gradientTransform="matrix(1.14893,0.112249,-0.112249,1.14893,-1.66666,-4.8068)"
       xlink:href="#linear-gradient" />
    <linearGradient
       id="linear-gradient-14"
       x1="23.37"
       y1="25.39"
       x2="25.19"
       y2="30.38"
       gradientTransform="matrix(1.1441,0.153875,-0.153875,1.1441,-1.49209,-4.85963)"
       gradientUnits="userSpaceOnUse">
      <stop
         offset="0"
         stop-color="#ef2929"
         id="stop40" />
      <stop
         offset="1"
         stop-color="#c00"
         id="stop42" />
    </linearGradient>
    <linearGradient
       id="linear-gradient-15"
       x1="6.39"
       y1="38.82"
       x2="31.8"
       y2="28.85"
       xlink:href="#linear-gradient" />
    <linearGradient
       id="linear-gradient-16"
       x1="19.49"
       y1="13.9"
       x2="31.76"
       y2="24.47"
       xlink:href="#linear-gradient" />
    <linearGradient
       id="linear-gradient-17"
       x1="25.39"
       y1="39.42"
       x2="53.81"
       y2="18.48"
       gradientUnits="userSpaceOnUse">
      <stop
         offset="0"
         stop-color="#555753"
         id="stop47" />
      <stop
         offset="1"
         stop-color="#d3d7cf"
         id="stop49" />
    </linearGradient>
    <linearGradient
       id="linear-gradient-18"
       x1="10.53"
       y1="23.77"
       x2="24.22"
       y2="23.77"
       xlink:href="#linear-gradient" />
    <linearGradient
       id="linear-gradient-19"
       x1="23.96"
       y1="26.98"
       x2="22.74"
       y2="23.48"
       xlink:href="#linear-gradient-2"
       gradientTransform="matrix(1.1544,0,0,1.1544,-2.12975,-4.61561)" />
    <linearGradient
       id="linear-gradient-20"
       x1="24.13"
       y1="27.06"
       x2="25.88"
       y2="28.74"
       gradientUnits="userSpaceOnUse"
       gradientTransform="matrix(1.1544,0,0,1.1544,-2.12975,-4.61561)">
      <stop
         offset="0"
         stop-color="#a40000"
         stop-opacity="0"
         id="stop54" />
      <stop
         offset="1"
         stop-color="#a40000"
         id="stop56" />
    </linearGradient>
    <linearGradient
       id="linear-gradient-21"
       x1="28.01"
       y1="25.6"
       x2="34.04"
       y2="19.41"
       xlink:href="#linear-gradient-2" />
    <linearGradient
       id="linear-gradient-22"
       x1="23.37"
       y1="3.28"
       x2="28.4"
       y2="14.29"
       xlink:href="#linear-gradient" />
    <linearGradient
       id="linear-gradient-23"
       x1="41.13"
       y1="3.17"
       x2="38.53"
       y2="23.92"
       xlink:href="#linear-gradient" />
    <linearGradient
       id="linear-gradient-24"
       x1="34.53"
       y1="13.71"
       x2="33.26"
       y2="6.88"
       xlink:href="#linear-gradient-2" />
    <linearGradient
       inkscape:collect="always"
       xlink:href="#linear-gradient-2"
       id="linearGradient997"
       gradientUnits="userSpaceOnUse"
       x1="28.86"
       y1="19.73"
       x2="37.11"
       y2="11.26" />
    <linearGradient
       inkscape:collect="always"
       xlink:href="#linear-gradient-5"
       id="linearGradient1001"
       gradientUnits="userSpaceOnUse"
       x1="23.54"
       y1="6.77"
       x2="23.54"
       y2="43.82" />
  </defs>
  <title
     id="title65">14-BigRed</title>
  <g
     id="shadow"
     style="isolation:isolate"
     transform="translate(0.26122449,1.4367347)">
    <ellipse
       class="cls-4"
       cx="23.799999"
       cy="32.279999"
       rx="22.879999"
       ry="14.29"
       id="ellipse70"
       style="fill:url(#radial-gradient)" />
  </g>
  <polygon
     class="cls-5"
     points="41.37,11.22 40.04,22.19 28.82,15.44 30.14,4.47 "
     id="polygon73"
     style="isolation:isolate;fill:url(#linearGradient997);stroke-width:0.866251"
     transform="matrix(1.1544,0,0,1.1544,-2.12975,-4.61561)" />
  <polygon
     class="cls-6"
     points="41.37,11.22 40.04,22.19 28.82,15.44 30.14,4.47 "
     id="polygon75"
     style="isolation:isolate;fill:url(#linear-gradient-3);stroke-width:0.866251"
     transform="matrix(1.1544,0,0,1.1544,-2.12975,-4.61561)" />
  <polygon
     class="cls-1"
     points="4.68,29.23 24.31,16.13 41.52,26.54 21.89,39.64 "
     id="polygon77"
     style="isolation:isolate;fill:#555753;stroke-width:0.866251"
     transform="matrix(1.1544,0,0,1.1544,-2.12975,-4.61561)" />
  <g
     class="cls-7"
     clip-path="url(#clip-path)"
     id="g93"
     style="isolation:isolate;stroke-width:0.866251"
     transform="matrix(1.1544,0,0,1.1544,-2.12975,-4.61561)">
    <polygon
       class="cls-8"
       points="1.53,20.35 1.67,18.75 45.56,16.78 45.42,18.38 "
       id="polygon79"
       style="fill:url(#linearGradient1001);stroke-width:0.866251" />
    <polygon
       class="cls-9"
       points="1.25,23.56 1.39,21.95 45.28,19.98 45.14,21.59 "
       id="polygon81"
       style="fill:url(#linear-gradient-6);stroke-width:0.866251" />
    <polygon
       class="cls-10"
       points="0.98,26.76 1.11,25.16 45,23.19 44.87,24.79 "
       id="polygon83"
       style="fill:url(#linear-gradient-7);stroke-width:0.866251" />
    <polygon
       class="cls-11"
       points="0.7,29.97 0.84,28.36 44.73,26.39 44.59,28 "
       id="polygon85"
       style="fill:url(#linear-gradient-8);stroke-width:0.866251" />
    <polygon
       class="cls-12"
       points="0.42,33.17 0.56,31.57 44.45,29.6 44.31,31.2 "
       id="polygon87"
       style="fill:url(#linear-gradient-9);stroke-width:0.866251" />
    <polygon
       class="cls-13"
       points="0.15,36.38 0.28,34.78 44.17,32.81 44.03,34.41 "
       id="polygon89"
       style="fill:url(#linear-gradient-10);stroke-width:0.866251" />
    <polygon
       class="cls-14"
       points="-0.13,39.59 0.01,37.98 43.9,36.01 43.76,37.62 "
       id="polygon91"
       style="fill:url(#linear-gradient-11);stroke-width:0.866251" />
  </g>
  <polygon
     class="cls-15"
     points="10.53,27.93 24.22,18.8 37.33,26.73 23.65,35.86 "
     id="polygon95"
     style="isolation:isolate;stroke-width:0.866251;fill:#d3d7cf"
     transform="matrix(1.1544,0,0,1.1544,-2.12975,-4.61561)" />
  <ellipse
     class="cls-17"
     cx="22.5642"
     cy="31.2451"
     rx="8.38095"
     ry="5.28715"
     transform="rotate(-5.58002)"
     id="ellipse99"
     style="isolation:isolate;fill:url(#linear-gradient-13);stroke-width:1" />
  <ellipse
     class="cls-18"
     cx="22.5642"
     cy="31.2451"
     rx="8.38095"
     ry="5.28715"
     transform="rotate(-5.58002)"
     id="ellipse101"
     style="isolation:isolate" />
  <ellipse
     class="cls-19"
     cx="22.5642"
     cy="31.2451"
     rx="6.46464"
     ry="4.08658"
     transform="rotate(-5.58002)"
     id="ellipse103"
     style="isolation:isolate;stroke-width:1" />
  <ellipse
     class="cls-20"
     cx="21.7345"
     cy="29.6454"
     rx="5.93362"
     ry="4.21356"
     transform="rotate(-7.65999)"
     id="ellipse105"
     style="isolation:isolate;fill:url(#linear-gradient-14);stroke-width:1" />
  <ellipse
     class="cls-21"
     cx="11.9586"
     cy="35.0664"
     rx="1.32756"
     ry="0.842712"
     transform="rotate(-5.58002)"
     id="ellipse107"
     style="isolation:isolate;stroke-width:1" />
  <ellipse
     class="cls-21"
     cx="11.9586"
     cy="35.0664"
     rx="1.32756"
     ry="0.842712"
     transform="rotate(-5.58002)"
     id="ellipse109"
     style="isolation:isolate;stroke-width:1" />
  <ellipse
     class="cls-22"
     cx="11.9586"
     cy="35.0664"
     rx="1.80086"
     ry="1.14286"
     transform="rotate(-5.58002)"
     id="ellipse111"
     style="isolation:isolate" />
  <ellipse
     class="cls-23"
     cx="11.9586"
     cy="35.0664"
     rx="0.911976"
     ry="0.5772"
     transform="rotate(-5.58002)"
     id="ellipse113"
     style="isolation:isolate;stroke-width:1" />
  <polygon
     class="cls-24"
     points="4.68,32.6 4.68,29.23 21.89,39.64 21.89,43 "
     id="polygon115"
     style="isolation:isolate;fill:#555753;stroke-width:0.866251"
     transform="matrix(1.1544,0,0,1.1544,-2.12975,-4.61561)" />
  <polygon
     class="cls-23"
     points="35.98,27.63 24.22,20.52 24.22,18.8 37.33,26.72 "
     id="polygon117"
     style="isolation:isolate;stroke-width:0.866251"
     transform="matrix(1.1544,0,0,1.1544,-2.12975,-4.61561)" />
  <polygon
     class="cls-25"
     points="35.98,27.63 24.22,20.52 24.22,18.8 37.33,26.72 "
     id="polygon119"
     style="isolation:isolate;fill:url(#linear-gradient-16);stroke-width:0.866251"
     transform="matrix(1.1544,0,0,1.1544,-2.12975,-4.61561)" />
  <polygon
     class="cls-21"
     points="41.52,29.91 41.52,26.54 21.89,39.64 21.89,43 "
     id="polygon121"
     style="isolation:isolate;stroke-width:0.866251"
     transform="matrix(1.1544,0,0,1.1544,-2.12975,-4.61561)" />
  <polygon
     class="cls-26"
     points="41.52,29.91 41.52,26.54 21.89,39.64 21.89,43 "
     id="polygon123"
     style="isolation:isolate;fill:#555753;stroke-width:0.866251"
     transform="matrix(1.1544,0,0,1.1544,-2.12975,-4.61561)" />
  <polygon
     class="cls-27"
     points="24.22,18.8 10.53,27.93 11.88,28.75 24.22,20.51 "
     id="polygon125"
     style="isolation:isolate;fill:url(#linear-gradient-18);stroke-width:0.866251"
     transform="matrix(1.1544,0,0,1.1544,-2.12975,-4.61561)" />
  <polygon
     class="cls-28"
     points="10.53,27.93 24.22,18.8 37.33,26.73 23.65,35.86 "
     id="polygon127"
     transform="matrix(1.1544,0,0,1.1544,-2.12975,-4.61561)"
     style="isolation:isolate" />
  <polygon
     class="cls-28"
     points="4.68,29.23 24.31,16.13 41.52,26.54 21.89,39.64 "
     id="polygon129"
     transform="matrix(1.1544,0,0,1.1544,-2.12975,-4.61561)"
     style="isolation:isolate" />
  <polygon
     class="cls-28"
     points="4.68,32.6 4.68,29.23 21.89,39.64 21.89,43 "
     id="polygon131"
     transform="matrix(1.1544,0,0,1.1544,-2.12975,-4.61561)"
     style="isolation:isolate;stroke:#555753" />
  <polygon
     class="cls-28"
     points="41.52,29.91 41.52,26.54 21.89,39.64 21.89,43 "
     id="polygon133"
     transform="matrix(1.1544,0,0,1.1544,-2.12975,-4.61561)"
     style="isolation:isolate;stroke:#2e3436" />
  <path
     class="cls-29"
     d="M 30.3435,26.2184 A 3.09379,3.09379 0 0 0 27.8847,23.367 c -1.3853,-0.404 -4.9524,-0.4502 -6.4993,1.7201 a 2.63203,2.63203 0 0 0 -0.1732,3.2323 1.76623,1.76623 0 0 0 1.0274,0.4041 c 0.5311,0 0.6119,-0.5772 0.4849,-1.3853 -0.127,-0.8081 0.254,-2.3088 2.9668,-2.8052 2.7128,-0.4964 4.075,0.7734 4.6522,1.6854 z"
     id="path135"
     style="isolation:isolate;fill:url(#linear-gradient-19);stroke-width:1" />
  <path
     class="cls-30"
     d="m 25.5066,29.5777 a 7.36507,7.36507 0 0 0 3.1746,-1.1544 3.78643,3.78643 0 0 0 1.5123,-1.9625 0.415584,0.415584 0 0 0 -0.4503,-0.5656 c -0.6349,0 -0.785,0.6118 -2.228,1.5007 a 4.89466,4.89466 0 0 1 -3.2785,0.658 0.935064,0.935064 0 0 0 -1.1544,0.6927 c 0,0.5425 0.9697,0.9235 2.4243,0.8311 z"
     id="path137"
     style="isolation:isolate;fill:url(#linear-gradient-20);stroke-width:1" />
  <polygon
     class="cls-31"
     points="24.22,18.8 28.82,15.44 40.04,22.19 37.33,26.73 "
     id="polygon139"
     style="isolation:isolate;fill:#ffffff;stroke-width:0.866251;fill-opacity:0.558333"
     transform="matrix(1.1544,0,0,1.1544,-2.12975,-4.61561)" />
  <polygon
     class="cls-32"
     points="24.22,18.8 28.82,15.44 40.04,22.19 37.33,26.73 "
     id="polygon141"
     transform="matrix(1.1544,0,0,1.1544,-2.12975,-4.61561)"
     style="isolation:isolate" />
  <polygon
     class="cls-33"
     points="28.82,15.44 24.22,18.8 25.55,4.66 30.14,4.47 "
     id="polygon143"
     style="isolation:isolate;fill:url(#linear-gradient-22);stroke-width:0.866251"
     transform="matrix(1.1544,0,0,1.1544,-2.12975,-4.61561)" />
  <polygon
     class="cls-32"
     points="28.82,15.44 24.22,18.8 25.55,4.66 30.14,4.47 "
     id="polygon145"
     transform="matrix(1.1544,0,0,1.1544,-2.12975,-4.61561)"
     style="isolation:isolate" />
  <polygon
     class="cls-32"
     points="24.22,18.8 25.55,4.66 38.66,12.59 37.33,26.73 "
     id="polygon147"
     transform="matrix(1.1544,0,0,1.1544,-2.12975,-4.61561)"
     style="isolation:isolate" />
  <polygon
     class="cls-34"
     points="40.04,22.19 37.33,26.73 38.66,12.59 41.37,11.22 "
     id="polygon149"
     style="isolation:isolate;fill:url(#linear-gradient-23);stroke-width:0.866251"
     transform="matrix(1.1544,0,0,1.1544,-2.12975,-4.61561)" />
  <polygon
     class="cls-32"
     points="40.04,22.19 37.33,26.73 38.66,12.59 41.37,11.22 "
     id="polygon151"
     transform="matrix(1.1544,0,0,1.1544,-2.12975,-4.61561)"
     style="isolation:isolate" />
  <polygon
     class="cls-23"
     points="25.55,4.66 30.14,4.47 41.37,11.22 38.66,12.59 "
     id="polygon153"
     style="isolation:isolate;stroke-width:0.866251"
     transform="matrix(1.1544,0,0,1.1544,-2.12975,-4.61561)" />
  <polygon
     class="cls-35"
     points="25.55,4.66 30.14,4.47 41.37,11.22 38.66,12.59 "
     id="polygon155"
     style="isolation:isolate;fill:url(#linear-gradient-24);stroke-width:0.866251"
     transform="matrix(1.1544,0,0,1.1544,-2.12975,-4.61561)" />
  <polygon
     class="cls-32"
     points="25.55,4.66 30.14,4.47 41.37,11.22 38.66,12.59 "
     id="polygon157"
     transform="matrix(1.1544,0,0,1.1544,-2.12975,-4.61561)"
     style="isolation:isolate" />
</svg>
