<?xml version="1.0" encoding="UTF-8" standalone="no"?>
<svg
   viewBox="0 0 48 48"
   version="1.1"
   id="svg20712"
   sodipodi:docname="connection.svg"
   inkscape:version="1.1 (c68e22c387, 2021-05-23)"
   xmlns:inkscape="http://www.inkscape.org/namespaces/inkscape"
   xmlns:sodipodi="http://sodipodi.sourceforge.net/DTD/sodipodi-0.dtd"
   xmlns:xlink="http://www.w3.org/1999/xlink"
   xmlns="http://www.w3.org/2000/svg"
   xmlns:svg="http://www.w3.org/2000/svg"
   xmlns:rdf="http://www.w3.org/1999/02/22-rdf-syntax-ns#"
   xmlns:cc="http://creativecommons.org/ns#"
   xmlns:dc="http://purl.org/dc/elements/1.1/">
  <sodipodi:namedview
     id="namedview20714"
     pagecolor="#ffffff"
     bordercolor="#666666"
     borderopacity="1.0"
     inkscape:pageshadow="2"
     inkscape:pageopacity="0.0"
     inkscape:pagecheckerboard="0"
     showgrid="false"
     inkscape:zoom="15.6875"
     inkscape:cx="24"
     inkscape:cy="24"
     inkscape:window-width="2880"
     inkscape:window-height="1557"
     inkscape:window-x="-8"
     inkscape:window-y="-8"
     inkscape:window-maximized="1"
     inkscape:current-layer="svg20712" />
  <defs
     id="defs20660">
    <style
       id="style20618">.cls-1{fill:url(#radial-gradient);}.cls-19,.cls-2,.cls-20,.cls-3,.cls-7{fill:none;stroke-linecap:round;stroke-linejoin:round;}.cls-2,.cls-7{stroke:#99723a;}.cls-19,.cls-2{stroke-width:2.4px;}.cls-3{stroke:url(#linear-gradient);}.cls-4{fill:url(#linear-gradient-2);}.cls-5{fill:#fff4cf;}.cls-6{fill:url(#linear-gradient-3);}.cls-7{stroke-width:0.7px;}.cls-8{fill:#99723a;}.cls-9{fill:url(#linear-gradient-4);}.cls-10{fill:#ce5c00;}.cls-11{fill:url(#linear-gradient-5);}.cls-12,.cls-16{opacity:0.62;}.cls-12{fill:url(#linear-gradient-6);}.cls-13{fill:url(#linear-gradient-7);}.cls-14{fill:url(#linear-gradient-8);}.cls-15{fill:url(#linear-gradient-9);}.cls-16{fill:url(#linear-gradient-10);}.cls-17{fill:url(#linear-gradient-11);}.cls-18{fill:url(#linear-gradient-12);}.cls-19{stroke:#ce5c00;}.cls-20{stroke:url(#linear-gradient-13);}</style>
    <radialGradient
       id="radial-gradient"
       cx="101.18"
       cy="53.57"
       r="19.95"
       gradientTransform="matrix(1.19,0,0,0.6,-96.05,2.55)"
       gradientUnits="userSpaceOnUse">
      <stop
         offset="0.01"
         stop-color="#2c2c2c"
         stop-opacity="0.35"
         id="stop20620" />
      <stop
         offset="0.42"
         stop-color="#2c2c2c"
         stop-opacity="0.2"
         id="stop20622" />
      <stop
         offset="0.93"
         stop-color="#2c2c2c"
         stop-opacity="0"
         id="stop20624" />
    </radialGradient>
    <linearGradient
       id="linear-gradient"
       x1="43.03"
       y1="23.2"
       x2="30.99"
       y2="23.2"
       gradientUnits="userSpaceOnUse">
      <stop
         offset="0"
         stop-color="#ccae87"
         id="stop20627" />
      <stop
         offset="1"
         stop-color="#f9e6b9"
         id="stop20629" />
    </linearGradient>
    <linearGradient
       id="linear-gradient-2"
       x1="23.69"
       y1="15.17"
       x2="30.98"
       y2="15.17"
       gradientUnits="userSpaceOnUse">
      <stop
         offset="0"
         stop-color="#f57900"
         id="stop20632" />
      <stop
         offset="1"
         stop-color="#fcaf3e"
         id="stop20634" />
    </linearGradient>
    <linearGradient
       id="linear-gradient-3"
       x1="25.06"
       y1="17.69"
       x2="36.52"
       y2="19.11"
       gradientUnits="userSpaceOnUse">
      <stop
         offset="0"
         stop-color="#ccae87"
         stop-opacity="0"
         id="stop20637" />
      <stop
         offset="1"
         stop-color="#99723a"
         id="stop20639" />
    </linearGradient>
    <linearGradient
       id="linear-gradient-4"
       x1="29.01"
       y1="27.18"
       x2="23.73"
       y2="12.15"
       xlink:href="#linear-gradient-3" />
    <linearGradient
       id="linear-gradient-5"
       x1="16.84"
       y1="16.41"
       x2="20.13"
       y2="19.23"
       xlink:href="#linear-gradient-2" />
    <linearGradient
       id="linear-gradient-6"
       x1="17.23"
       y1="14.65"
       x2="19.93"
       y2="18.52"
       gradientUnits="userSpaceOnUse">
      <stop
         offset="0"
         stop-color="#fff"
         stop-opacity="0"
         id="stop20644" />
      <stop
         offset="1"
         stop-color="snow"
         id="stop20646" />
    </linearGradient>
    <linearGradient
       id="linear-gradient-7"
       x1="22.47"
       y1="12.88"
       x2="22.45"
       y2="24.22"
       gradientUnits="userSpaceOnUse">
      <stop
         offset="0"
         stop-color="#ce5c00"
         id="stop20649" />
      <stop
         offset="1"
         stop-color="#f57900"
         id="stop20651" />
    </linearGradient>
    <linearGradient
       id="linear-gradient-8"
       x1="21.29"
       y1="26.02"
       x2="19.09"
       y2="16.33"
       xlink:href="#linear-gradient-2" />
    <linearGradient
       id="linear-gradient-9"
       x1="13.82"
       y1="20.62"
       x2="21.86"
       y2="20.62"
       xlink:href="#linear-gradient-2" />
    <linearGradient
       id="linear-gradient-10"
       x1="13.82"
       y1="20.62"
       x2="21.86"
       y2="20.62"
       xlink:href="#linear-gradient-6" />
    <linearGradient
       id="linear-gradient-11"
       x1="14.89"
       y1="21.42"
       x2="21.86"
       y2="21.42"
       xlink:href="#linear-gradient-7" />
    <linearGradient
       id="linear-gradient-12"
       x1="13.08"
       y1="22.93"
       x2="16.04"
       y2="22.93"
       gradientTransform="rotate(15.46,14.554837,22.933792)"
       xlink:href="#linear-gradient-7" />
    <linearGradient
       id="linear-gradient-13"
       x1="6.92"
       y1="31.33"
       x2="14.55"
       y2="31.33"
       xlink:href="#linear-gradient-2" />
    <linearGradient
       inkscape:collect="always"
       xlink:href="#linear-gradient-2"
       id="linearGradient20773"
       gradientUnits="userSpaceOnUse"
       x1="23.69"
       y1="15.17"
       x2="30.98"
       y2="15.17" />
    <linearGradient
       inkscape:collect="always"
       xlink:href="#linear-gradient-3"
       id="linearGradient20775"
       gradientUnits="userSpaceOnUse"
       x1="25.06"
       y1="17.69"
       x2="36.52"
       y2="19.11" />
    <linearGradient
       inkscape:collect="always"
       xlink:href="#linear-gradient-6"
       id="linearGradient20777"
       gradientUnits="userSpaceOnUse"
       x1="17.23"
       y1="14.65"
       x2="19.93"
       y2="18.52" />
    <linearGradient
       inkscape:collect="always"
       xlink:href="#linear-gradient-7"
       id="linearGradient20779"
       gradientUnits="userSpaceOnUse"
       x1="22.47"
       y1="12.88"
       x2="22.45"
       y2="24.22" />
  </defs>
  <title
     id="title20662">24-Connection</title>
  <g
     id="shadow"
     transform="matrix(1.0518594,0,0,0.70093562,-1.145378,15.435267)"
     style="stroke-width:1.16461">
    <ellipse
       class="cls-1"
       cx="23.93"
       cy="34.560001"
       rx="22.74"
       ry="11.51"
       id="ellipse20664"
       style="fill:url(#radial-gradient);stroke-width:1.16461" />
  </g>
  <g
     id="ART"
     transform="matrix(1.3591,0,0,1.3646353,-9.5481399,-10.460962)"
     style="stroke-width:0.734287">
    <path
       class="cls-2"
       d="m 31.49,16.19 c 1.25,-0.52 4.35,-1.29 3.95,3.16 -0.4,4.45 -0.29,7.82 0.34,9.59 0.63,1.77 1.95,2.06 3.55,1.26 a 13.35,13.35 0 0 0 3.2,-2.58"
       id="path20667" />
    <path
       class="cls-3"
       d="m 31.49,16.19 c 1.25,-0.52 4.35,-1.29 3.95,3.16 -0.4,4.45 -0.29,7.82 0.34,9.59 0.63,1.77 1.95,2.06 3.55,1.26 a 13.35,13.35 0 0 0 3.2,-2.58"
       id="path20669"
       style="stroke:url(#linear-gradient);stroke-width:0.734287" />
    <path
       class="cls-4"
       d="m 31,14.31 a 6,6 0 0 1 -1.57,0 12,12 0 0 1 -2.79,-1 3.1,3.1 0 0 0 -1.93,-0.1 l -1,0.39 3.63,1.73 2.1,1.81 1.24,-0.86"
       id="path20671"
       style="fill:url(#linearGradient20773);stroke-width:0.734287" />
    <path
       class="cls-5"
       d="m 31.4,14.31 a 1,1 0 0 0 -0.42,0 v 0 a 6,6 0 0 1 -1.57,0 12,12 0 0 1 -2.79,-1 3.1,3.1 0 0 0 -1.93,-0.1 l -1,0.39 3.63,1.73 0.17,0.14 v 6.64 l 1.38,-0.56 A 2.87,2.87 0 0 0 30.4,20.38 8,8 0 0 1 32.18,18 v 0 a 1.65,1.65 0 0 0 0.7,-1.46 2.18,2.18 0 0 0 -1.48,-2.23 z"
       id="path20673"
       style="stroke-width:0.734287" />
    <path
       class="cls-6"
       d="m 32.88,16.49 a 2.18,2.18 0 0 0 -1.48,-2.18 1,1 0 0 0 -0.53,0 v 0 l -0.14,0.06 a 16.39,16.39 0 0 1 -1.84,0.46 l -1.38,0.56 v 6.74 l 1.38,-0.56 A 2.87,2.87 0 0 0 30.42,20.4 8,8 0 0 1 32.18,18 v 0 a 1.65,1.65 0 0 0 0.7,-1.51 z"
       id="path20675"
       style="fill:url(#linearGradient20775);stroke-width:0.734287" />
    <path
       class="cls-7"
       d="m 31.4,14.31 a 1,1 0 0 0 -0.42,0 v 0 a 6,6 0 0 1 -1.57,0 12,12 0 0 1 -2.79,-1 3.1,3.1 0 0 0 -1.93,-0.1 l -1,0.39 3.63,1.73 0.17,0.14 v 6.64 l 1.38,-0.56 A 2.87,2.87 0 0 0 30.4,20.38 8,8 0 0 1 32.18,18 v 0 a 1.65,1.65 0 0 0 0.7,-1.46 2.18,2.18 0 0 0 -1.48,-2.23 z"
       id="path20677" />
    <path
       class="cls-5"
       d="m 27.5,14.64 -4.23,-1.58 a 0.94,0.94 0 0 0 -0.68,0 l -0.84,0.34 a 0.94,0.94 0 0 0 -0.58,0.87 v 6.94 a 0.93,0.93 0 0 0 0.6,0.88 l 4.23,1.6 a 0.94,0.94 0 0 0 0.68,0 l 0.84,-0.34 a 1,1 0 0 0 0.58,-0.87 v -6.96 a 0.94,0.94 0 0 0 -0.6,-0.88 z"
       id="path20679"
       style="stroke-width:0.734287" />
    <path
       class="cls-8"
       d="m 22.94,13 a 1,1 0 0 1 0.33,0.06 l 4.23,1.58 a 1,1 0 0 1 0.61,0.88 v 7 a 1,1 0 0 1 -0.59,0.87 l -0.84,0.34 A 1,1 0 0 1 26.33,23.8 1,1 0 0 1 26,23.74 L 21.77,22.1 a 0.93,0.93 0 0 1 -0.6,-0.88 v -6.94 a 0.94,0.94 0 0 1 0.58,-0.87 l 0.84,-0.34 A 0.84,0.84 0 0 1 22.94,13 m 0,-0.7 a 1.67,1.67 0 0 0 -0.62,0.12 l -0.83,0.34 a 1.63,1.63 0 0 0 -1,1.52 v 6.94 a 1.65,1.65 0 0 0 1.06,1.54 l 4.22,1.58 a 1.66,1.66 0 0 0 0.58,0.11 1.9,1.9 0 0 0 0.62,-0.12 l 0.83,-0.34 a 1.65,1.65 0 0 0 1,-1.52 V 15.52 A 1.63,1.63 0 0 0 27.74,14 l -4.22,-1.6 a 1.65,1.65 0 0 0 -0.58,-0.1 z"
       id="path20681"
       style="stroke-width:0.734287" />
    <path
       class="cls-9"
       d="m 28.1,15.52 v 7 a 1,1 0 0 1 -0.58,0.87 l -0.84,0.34 a 1,1 0 0 1 -0.68,0 L 24.32,23.1 26,15.73 27.9,15 a 0.9,0.9 0 0 1 0.2,0.52 z"
       id="path20683"
       style="fill:url(#linear-gradient-4);stroke-width:0.734287" />
    <path
       class="cls-10"
       d="m 21.39,22 4.5,1.68 a 0.33,0.33 0 0 0 0.45,-0.31 V 16 a 0.6,0.6 0 0 0 -0.38,-0.56 l -4.34,-1.62 a 0.33,0.33 0 0 0 -0.45,0.31 v 7.51 A 0.33,0.33 0 0 0 21.39,22 Z"
       id="path20685"
       style="stroke-width:0.734287" />
    <path
       class="cls-8"
       d="m 21.39,22 4.5,1.68 a 0.33,0.33 0 0 0 0.45,-0.31 V 16 a 0.6,0.6 0 0 0 -0.38,-0.56 l -4.34,-1.62 a 0.33,0.33 0 0 0 -0.45,0.31 v 7.51 A 0.33,0.33 0 0 0 21.39,22 Z"
       id="path20687"
       style="stroke-width:0.734287" />
    <path
       class="cls-11"
       d="m 23.73,16.14 -4.22,-1.58 a 0.89,0.89 0 0 0 -0.68,0 l -0.84,0.34 a 0.92,0.92 0 0 0 -0.59,0.87 v 6.94 a 1,1 0 0 0 0.61,0.88 l 4.23,1.59 a 1,1 0 0 0 0.68,0 l 0.84,-0.34 a 1,1 0 0 0 0.58,-0.87 V 17 a 0.94,0.94 0 0 0 -0.61,-0.86 z"
       id="path20689"
       style="fill:url(#linear-gradient-5);stroke-width:0.734287" />
    <path
       class="cls-12"
       d="m 23.73,16.14 -4.22,-1.58 a 0.89,0.89 0 0 0 -0.68,0 l -0.84,0.34 a 0.92,0.92 0 0 0 -0.59,0.87 v 6.94 a 1,1 0 0 0 0.61,0.88 l 4.23,1.59 a 1,1 0 0 0 0.68,0 l 0.84,-0.34 a 1,1 0 0 0 0.58,-0.87 V 17 a 0.94,0.94 0 0 0 -0.61,-0.86 z"
       id="path20691"
       style="fill:url(#linearGradient20777);stroke-width:0.734287" />
    <path
       class="cls-13"
       d="m 24.34,17 v 7 a 1,1 0 0 1 -0.58,0.87 l -0.84,0.34 a 1,1 0 0 1 -0.68,0 l -1.68,-0.63 1.66,-7.33 1.92,-0.78 a 0.9,0.9 0 0 1 0.2,0.53 z"
       id="path20693"
       style="fill:url(#linearGradient20779);stroke-width:0.734287" />
    <path
       class="cls-14"
       d="m 17.62,23.46 4.5,1.68 a 0.33,0.33 0 0 0 0.46,-0.31 V 17.5 a 0.59,0.59 0 0 0 -0.39,-0.56 l -4.33,-1.62 a 0.34,0.34 0 0 0 -0.46,0.31 v 7.51 a 0.35,0.35 0 0 0 0.22,0.32 z"
       id="path20695"
       style="fill:url(#linear-gradient-8);stroke-width:0.734287" />
    <path
       class="cls-15"
       d="m 13.82,21.15 a 5.15,5.15 0 0 0 1.11,-1.29 20.34,20.34 0 0 0 1.07,-2.5 2.61,2.61 0 0 1 1.34,-1.18 0.58,0.58 0 0 1 0.56,-0.05 l 3.54,1.33 a 0.68,0.68 0 0 1 0.44,0.63 V 24 a 0.67,0.67 0 0 1 -0.43,0.63 10.86,10.86 0 0 1 -1.64,0.54 c -0.77,0.17 -1.67,-0.5 -2.44,-0.61 a 7.14,7.14 0 0 0 -2,0.17"
       id="path20697"
       style="fill:url(#linear-gradient-9);stroke-width:0.734287" />
    <path
       class="cls-16"
       d="m 13.82,21.15 a 5.15,5.15 0 0 0 1.11,-1.29 20.34,20.34 0 0 0 1.07,-2.5 2.61,2.61 0 0 1 1.34,-1.18 0.58,0.58 0 0 1 0.56,-0.05 l 3.54,1.33 a 0.68,0.68 0 0 1 0.44,0.63 V 24 a 0.67,0.67 0 0 1 -0.43,0.63 10.86,10.86 0 0 1 -1.64,0.54 c -0.77,0.17 -1.67,-0.5 -2.44,-0.61 a 7.14,7.14 0 0 0 -2,0.17"
       id="path20699"
       style="fill:url(#linear-gradient-10);stroke-width:0.734287" />
    <path
       class="cls-17"
       d="M 21.86,18.09 V 24 a 0.67,0.67 0 0 1 -0.43,0.63 10.86,10.86 0 0 1 -1.64,0.54 c -0.77,0.17 -1.67,-0.5 -2.44,-0.61 a 7.23,7.23 0 0 0 -2,0.17 l -0.44,-1.05 0.07,-1.1 a 13.66,13.66 0 0 0 1.46,-0.59 7.73,7.73 0 0 0 2.81,-2.41 3.12,3.12 0 0 1 1.35,-1.36 l 1.14,-0.48 a 0.63,0.63 0 0 1 0.12,0.35 z"
       id="path20701"
       style="fill:url(#linear-gradient-11);stroke-width:0.734287" />
    <ellipse
       class="cls-18"
       cx="14.56"
       cy="22.93"
       rx="1.4400001"
       ry="1.9400001"
       transform="rotate(-15.46,14.554534,22.946061)"
       id="ellipse20703"
       style="fill:url(#linear-gradient-12);stroke-width:0.734287" />
    <path
       class="cls-10"
       d="m 19.18,14.5 a 1,1 0 0 1 0.33,0.06 l 4.22,1.58 a 0.94,0.94 0 0 1 0.61,0.88 v 7 a 1,1 0 0 1 -0.58,0.87 l -0.84,0.34 a 1,1 0 0 1 -0.35,0.06 1.2,1.2 0 0 1 -0.33,0 L 21,24.73 a 10.28,10.28 0 0 1 -1.24,0.39 1,1 0 0 1 -0.25,0 16.64,16.64 0 0 1 -2.19,-0.64 2.73,2.73 0 0 0 -0.41,0 8.51,8.51 0 0 0 -1.6,0.2 v 0 a 1.09,1.09 0 0 1 -0.56,0.15 0.82,0.82 0 0 1 -0.22,0 2.17,2.17 0 0 1 -1.48,-2.17 1.62,1.62 0 0 1 0.74,-1.48 v 0 a 5.15,5.15 0 0 0 1.11,-1.29 20.34,20.34 0 0 0 1.1,-2.53 2.61,2.61 0 0 1 1.34,-1.18 h 0.08 v -0.37 a 0.92,0.92 0 0 1 0.59,-0.87 l 0.84,-0.34 a 0.84,0.84 0 0 1 0.35,-0.07 m 0,-0.7 a 1.67,1.67 0 0 0 -0.62,0.12 l -0.83,0.34 a 1.64,1.64 0 0 0 -1,1.45 3.13,3.13 0 0 0 -1.39,1.26 5.66,5.66 0 0 0 -0.43,1.1 5.08,5.08 0 0 1 -0.58,1.34 5.39,5.39 0 0 1 -0.94,1.12 v 0 a 2.31,2.31 0 0 0 -1,2 2.86,2.86 0 0 0 2,2.86 2,2 0 0 0 0.35,0 1.79,1.79 0 0 0 0.79,-0.18 7.06,7.06 0 0 1 1.37,-0.17 h 0.31 a 3.61,3.61 0 0 1 0.79,0.26 4.16,4.16 0 0 0 1.5,0.39 2.58,2.58 0 0 0 0.4,0 10.73,10.73 0 0 0 1.08,-0.24 l 1,0.36 a 1.65,1.65 0 0 0 0.58,0.1 1.58,1.58 0 0 0 0.61,-0.12 l 0.84,-0.34 A 1.62,1.62 0 0 0 25,24 V 17 A 1.65,1.65 0 0 0 24,15.48 L 19.75,13.9 a 1.56,1.56 0 0 0 -0.57,-0.1 z"
       id="path20705"
       style="stroke-width:0.734287" />
    <path
       class="cls-19"
       d="m 14.05,23.15 c -1.58,1 -1.66,2.42 -1.51,3.9 0.19,1.9 1.18,4.15 1.29,7.4 0.11,3.25 -2.95,5 -6.41,5.07"
       id="path20707" />
    <path
       class="cls-20"
       d="m 14.05,23.15 c -1.58,1 -1.66,2.42 -1.51,3.9 0.19,1.9 1.18,4.15 1.29,7.4 0.11,3.25 -2.95,5 -6.41,5.07"
       id="path20709"
       style="stroke:url(#linear-gradient-13);stroke-width:0.734287" />
  </g>
  <metadata
     id="metadata20781">
    <rdf:RDF>
      <cc:Work
         rdf:about="">
        <dc:title>24-Connection</dc:title>
      </cc:Work>
    </rdf:RDF>
  </metadata>
</svg>
