<?xml version="1.0" encoding="UTF-8" standalone="no"?>
<svg
   viewBox="0 0 48 48"
   version="1.1"
   id="svg17100"
   sodipodi:docname="fix_repair.svg"
   inkscape:version="1.1 (c68e22c387, 2021-05-23)"
   xmlns:inkscape="http://www.inkscape.org/namespaces/inkscape"
   xmlns:sodipodi="http://sodipodi.sourceforge.net/DTD/sodipodi-0.dtd"
   xmlns="http://www.w3.org/2000/svg"
   xmlns:svg="http://www.w3.org/2000/svg"
   xmlns:rdf="http://www.w3.org/1999/02/22-rdf-syntax-ns#"
   xmlns:cc="http://creativecommons.org/ns#"
   xmlns:dc="http://purl.org/dc/elements/1.1/">
  <sodipodi:namedview
     id="namedview17102"
     pagecolor="#ffffff"
     bordercolor="#666666"
     borderopacity="1.0"
     inkscape:pageshadow="2"
     inkscape:pageopacity="0.0"
     inkscape:pagecheckerboard="0"
     showgrid="false"
     inkscape:zoom="15.6875"
     inkscape:cx="24"
     inkscape:cy="24"
     inkscape:window-width="2880"
     inkscape:window-height="1557"
     inkscape:window-x="-8"
     inkscape:window-y="-8"
     inkscape:window-maximized="1"
     inkscape:current-layer="svg17100" />
  <defs
     id="defs17062">
    <style
       id="style17053">.cls-1{fill:url(#radial-gradient);}.cls-2{fill:#e9b96e;}.cls-3{fill:#ffdcae;}.cls-4,.cls-5{fill:none;stroke:#c17d11;stroke-miterlimit:10;}.cls-4{stroke-width:0.66px;}.cls-5{stroke-width:0.33px;}.cls-6{fill:#c17d11;}</style>
    <radialGradient
       id="radial-gradient"
       cx="-144.48"
       cy="96.9"
       r="19.76"
       gradientTransform="matrix(1.19,0,0,0.46,195.32,-9.7)"
       gradientUnits="userSpaceOnUse">
      <stop
         offset="0.01"
         stop-color="#2c2c2c"
         stop-opacity="0.35"
         id="stop17055" />
      <stop
         offset="0.42"
         stop-color="#2c2c2c"
         stop-opacity="0.2"
         id="stop17057" />
      <stop
         offset="0.93"
         stop-color="#2c2c2c"
         stop-opacity="0"
         id="stop17059" />
    </radialGradient>
  </defs>
  <title
     id="title17064">20-FixRepair</title>
  <g
     id="shadow"
     transform="matrix(1.0608308,0,0,0.86205519,-1.5555567,10.297725)"
     style="stroke-width:1.0457">
    <ellipse
       class="cls-1"
       cx="24"
       cy="34.91"
       rx="22.530001"
       ry="8.7799997"
       id="ellipse17066"
       style="fill:url(#radial-gradient);stroke-width:1.0457" />
  </g>
  <path
     class="cls-2"
     d="m 44.936319,12.267917 a 82.742308,82.742308 0 0 0 -30.457291,30.457291 2.4800937,2.4800937 0 0 1 -4.13349,0.652657 L 4.0365278,37.068854 A 4.8876701,4.8876701 0 0 1 3.2823472,31.528528 82.66979,82.66979 0 0 1 33.739638,1.0712369 4.8731666,4.8731666 0 0 1 39.279965,1.810914 l 6.338017,6.2945068 a 2.4800937,2.4800937 0 0 1 -0.681663,4.1624962 z"
     id="path17069"
     style="stroke-width:1.45035" />
  <path
     class="cls-3"
     d="m 35.944166,2.9276813 a 2.4075764,2.4075764 0 0 1 1.653396,0.5801389 l 6.323514,6.3235138 a 0.44960763,0.44960763 0 0 1 0.116028,0.1450347 1.4503472,1.4503472 0 0 1 -0.275566,0.2175523 85.178891,85.178891 0 0 0 -31.28399,31.269485 1.0297465,1.0297465 0 0 1 -0.217552,0.275566 L 12.114962,41.622945 5.7769444,35.313934 A 2.4800937,2.4800937 0 0 1 5.4288611,32.674302 80.392745,80.392745 0 0 1 34.95793,3.1452334 2.0304861,2.0304861 0 0 1 35.944166,2.9276813 m 0,-2.40757636 A 4.3510416,4.3510416 0 0 0 33.754142,1.0712369 82.66979,82.66979 0 0 0 3.2968507,31.528528 4.8876701,4.8876701 0 0 0 4.0510312,37.068854 l 6.3090108,6.309011 a 2.581618,2.581618 0 0 0 1.856444,0.841201 2.6541354,2.6541354 0 0 0 2.277045,-1.450347 82.742308,82.742308 0 0 1 30.457291,-30.457291 2.4800937,2.4800937 0 0 0 0.66716,-4.2060072 L 39.294468,1.810914 A 4.8296562,4.8296562 0 0 0 35.944166,0.52010494 Z"
     id="path17071"
     style="stroke-width:1.45035" />
  <path
     class="cls-4"
     d="m 44.936319,12.267917 a 82.742308,82.742308 0 0 0 -30.457291,30.457291 2.4800937,2.4800937 0 0 1 -4.13349,0.652657 L 4.0365278,37.068854 A 4.8876701,4.8876701 0 0 1 3.2823472,31.528528 82.66979,82.66979 0 0 1 33.739638,1.0712369 4.8731666,4.8731666 0 0 1 39.279965,1.810914 l 6.338017,6.2945068 a 2.4800937,2.4800937 0 0 1 -0.681663,4.1624962 z"
     id="path17073" />
  <path
     class="cls-3"
     d="m 23.935291,13.703761 2.465591,2.46559 2.17552,2.161018 A 83.902586,83.902586 0 0 0 20.6285,26.278271 L 18.452979,24.05924 16.001892,21.608153 a 82.075148,82.075148 0 0 1 7.933399,-7.947902 m 0.07252,-2.900695 a 0.94272568,0.94272568 0 0 0 -0.638153,0.232056 81.886603,81.886603 0 0 0 -10.036403,10.021899 1.015243,1.015243 0 0 0 0,1.363326 c 2.248038,2.248038 4.481573,4.496077 6.729611,6.729611 a 0.81219443,0.81219443 0 0 0 0.594643,0.246559 0.87020832,0.87020832 0 0 0 0.652656,-0.304573 82.916349,82.916349 0 0 1 10.021899,-10.036402 0.8266979,0.8266979 0 0 0 0.07252,-1.232795 L 24.674973,11.049626 A 1.015243,1.015243 0 0 0 23.9498,10.759556 Z"
     id="path17075"
     style="stroke-width:1.45035" />
  <path
     class="cls-5"
     d="m 31.390076,19.070046 a 82.916349,82.916349 0 0 0 -10.021899,10.036402 0.8266979,0.8266979 0 0 1 -1.247299,0 l -6.729611,-6.729611 a 1.015243,1.015243 0 0 1 0,-1.363326 81.886603,81.886603 0 0 1 9.978389,-10.007396 1.015243,1.015243 0 0 1 1.363326,0 l 6.729611,6.729611 a 0.8266979,0.8266979 0 0 1 -0.07252,1.33432 z"
     id="path17077" />
  <path
     class="cls-6"
     d="m 12.405031,26.713375 a 1.1167673,1.1167673 0 0 1 0.08702,1.450348 0.76868402,0.76868402 0 0 1 -1.203788,0.101524 1.1167673,1.1167673 0 0 1 -0.101525,-1.450347 0.78318749,0.78318749 0 0 1 1.218293,-0.101525 z"
     id="path17079"
     style="stroke-width:1.45035" />
  <path
     class="cls-6"
     d="m 12.405031,31.601045 a 1.2037882,1.2037882 0 0 1 0.116028,1.450348 0.7251736,0.7251736 0 0 1 -1.174781,0.130531 1.1747812,1.1747812 0 0 1 -0.130532,-1.450347 0.73967707,0.73967707 0 0 1 1.189285,-0.130532 z"
     id="path17081"
     style="stroke-width:1.45035" />
  <path
     class="cls-6"
     d="m 12.521059,36.575736 a 1.2618021,1.2618021 0 0 1 0.159538,1.450348 0.71067013,0.71067013 0 0 1 -1.145774,0.159538 1.2763055,1.2763055 0 0 1 -0.174042,-1.450347 0.71067013,0.71067013 0 0 1 1.160278,-0.159539 z"
     id="path17083"
     style="stroke-width:1.45035" />
  <path
     class="cls-6"
     d="M 7.4593472,34.110146 A 0.68166318,0.68166318 0 0 0 8.590618,33.950608 1.2182916,1.2182916 0 0 0 8.4310798,32.500261 0.71067013,0.71067013 0 0 0 7.2853055,32.645295 1.2472986,1.2472986 0 0 0 7.4593472,34.110146 Z"
     id="path17085"
     style="stroke-width:1.45035" />
  <path
     class="cls-6"
     d="m 15.378243,32.311716 a 0.76868402,0.76868402 0 0 0 1.203788,-0.116028 1.1167673,1.1167673 0 0 0 -0.101524,-1.450347 0.78318749,0.78318749 0 0 0 -1.218292,0.101524 1.1312708,1.1312708 0 0 0 0.116028,1.464851 z"
     id="path17087"
     style="stroke-width:1.45035" />
  <path
     class="cls-6"
     d="M 28.9825,10.1069 A 1.1167673,1.1167673 0 0 0 30.432847,10.208424 0.76868402,0.76868402 0 0 0 30.548875,9.0046361 1.1167673,1.1167673 0 0 0 29.098527,8.9031118 0.76868402,0.76868402 0 0 0 28.9825,10.1069 Z"
     id="path17089"
     style="stroke-width:1.45035" />
  <path
     class="cls-6"
     d="M 33.884673,10.1069 A 1.1747812,1.1747812 0 0 0 35.33502,10.237431 0.7251736,0.7251736 0 0 0 35.465552,9.06265 1.1747812,1.1747812 0 0 0 34.015204,8.9321187 0.7251736,0.7251736 0 0 0 33.884673,10.1069 Z"
     id="path17091"
     style="stroke-width:1.45035" />
  <path
     class="cls-6"
     d="m 38.873868,10.222928 a 1.2182916,1.2182916 0 0 0 1.450347,0.159538 0.68166318,0.68166318 0 0 0 0.159538,-1.1312709 1.2472986,1.2472986 0 0 0 -1.450347,-0.1740417 0.69616666,0.69616666 0 0 0 -0.159538,1.1457746 z"
     id="path17093"
     style="stroke-width:1.45035" />
  <path
     class="cls-6"
     d="M 36.408277,5.2047264 A 0.69616666,0.69616666 0 0 1 36.248739,6.3505007 1.2472986,1.2472986 0 0 1 34.798392,6.1909625 0.69616666,0.69616666 0 0 1 34.95793,5.0451882 1.2472986,1.2472986 0 0 1 36.408277,5.2047264 Z"
     id="path17095"
     style="stroke-width:1.45035" />
  <path
     class="cls-6"
     d="m 34.595343,13.080112 a 0.76868402,0.76868402 0 0 1 -0.101524,1.203788 1.1167673,1.1167673 0 0 1 -1.450347,-0.08702 0.78318749,0.78318749 0 0 1 0.08702,-1.218292 1.1312708,1.1312708 0 0 1 1.46485,0.101525 z"
     id="path17097"
     style="stroke-width:1.45035" />
  <metadata
     id="metadata17176">
    <rdf:RDF>
      <cc:Work
         rdf:about="">
        <dc:title>20-FixRepair</dc:title>
      </cc:Work>
    </rdf:RDF>
  </metadata>
</svg>
