<?xml version="1.0" encoding="UTF-8" standalone="no"?>
<svg
   viewBox="0 0 48 48"
   version="1.1"
   id="svg110"
   sodipodi:docname="popcorn.svg"
   inkscape:version="1.2-dev (7be2d9a5, 2021-09-13)"
   xmlns:inkscape="http://www.inkscape.org/namespaces/inkscape"
   xmlns:sodipodi="http://sodipodi.sourceforge.net/DTD/sodipodi-0.dtd"
   xmlns:xlink="http://www.w3.org/1999/xlink"
   xmlns="http://www.w3.org/2000/svg"
   xmlns:svg="http://www.w3.org/2000/svg"
   xmlns:rdf="http://www.w3.org/1999/02/22-rdf-syntax-ns#"
   xmlns:cc="http://creativecommons.org/ns#"
   xmlns:dc="http://purl.org/dc/elements/1.1/">
  <metadata
     id="metadata114">
    <rdf:RDF>
      <cc:Work
         rdf:about="">
        <dc:format>image/svg+xml</dc:format>
        <dc:type
           rdf:resource="http://purl.org/dc/dcmitype/StillImage" />
      </cc:Work>
    </rdf:RDF>
  </metadata>
  <sodipodi:namedview
     pagecolor="#ffffff"
     bordercolor="#666666"
     borderopacity="1"
     objecttolerance="10"
     gridtolerance="10"
     guidetolerance="10"
     inkscape:pageopacity="0"
     inkscape:pageshadow="2"
     inkscape:window-width="2880"
     inkscape:window-height="1557"
     id="namedview112"
     showgrid="false"
     inkscape:zoom="15.3125"
     inkscape:cx="11.363265"
     inkscape:cy="24"
     inkscape:window-x="-8"
     inkscape:window-y="-8"
     inkscape:window-maximized="1"
     inkscape:current-layer="svg110"
     inkscape:pagecheckerboard="0" />
  <defs
     id="defs29">
    <linearGradient
       inkscape:collect="always"
       id="linearGradient370522">
      <stop
         style="stop-color:#ffffff;stop-opacity:1"
         offset="0"
         id="stop370518" />
      <stop
         style="stop-color:#d3d7cf;stop-opacity:1"
         offset="1"
         id="stop370520" />
    </linearGradient>
    <linearGradient
       inkscape:collect="always"
       id="linearGradient369586">
      <stop
         style="stop-color:#eeeeec;stop-opacity:1"
         offset="0"
         id="stop369582" />
      <stop
         style="stop-color:#babdb6;stop-opacity:1"
         offset="1"
         id="stop369584" />
    </linearGradient>
    <style
       id="style2">.cls-1{isolation:isolate;}.cls-2{fill:#d0d0d0;}.cls-3{fill:url(#radial-gradient);}.cls-4{fill:#eeeeec;}.cls-5{fill:#ef2929;}.cls-6{fill:url(#linear-gradient);}.cls-7{opacity:0.65;fill:url(#linear-gradient-2);}.cls-7,.cls-8,.cls-9{mix-blend-mode:multiply;}.cls-8{fill:url(#linear-gradient-3);}.cls-9{opacity:0.68;fill:url(#linear-gradient-4);}.cls-10{fill:none;stroke:#a40000;stroke-linecap:round;stroke-linejoin:round;stroke-width:0.7px;}.cls-11{fill:#fce94f;}.cls-12{fill:url(#linear-gradient-5);}.cls-13{fill:url(#linear-gradient-6);}.cls-14{fill:#edd400;}.cls-15{fill:#c4a000;}</style>
    <radialGradient
       id="radial-gradient"
       cx="-34.89"
       cy="37.95"
       r="18.91"
       gradientTransform="matrix(1.2,0,0,0.44,65.72,19.51)"
       gradientUnits="userSpaceOnUse">
      <stop
         offset="0.03"
         stop-color="#2c2c2c"
         stop-opacity="0.5"
         id="stop4" />
      <stop
         offset="0.68"
         stop-color="#2c2c2c"
         stop-opacity="0.1"
         id="stop6" />
      <stop
         offset="0.93"
         stop-color="#2c2c2c"
         stop-opacity="0"
         id="stop8" />
    </radialGradient>
    <linearGradient
       id="linear-gradient"
       x1="20.79"
       y1="37.46"
       x2="15.85"
       y2="15"
       gradientUnits="userSpaceOnUse">
      <stop
         offset="0"
         stop-color="#fff"
         stop-opacity="0"
         id="stop11" />
      <stop
         offset="1"
         stop-color="snow"
         id="stop13" />
    </linearGradient>
    <linearGradient
       id="linear-gradient-2"
       x1="17.94"
       y1="28.19"
       x2="19.53"
       y2="20.4"
       gradientUnits="userSpaceOnUse">
      <stop
         offset="0"
         stop-color="#d3d7cf"
         stop-opacity="0"
         id="stop16" />
      <stop
         offset="1"
         stop-color="#555753"
         id="stop18" />
    </linearGradient>
    <linearGradient
       id="linear-gradient-3"
       x1="34.06"
       y1="36.35"
       x2="17.99"
       y2="17.93"
       xlink:href="#linear-gradient-2" />
    <linearGradient
       id="linear-gradient-4"
       x1="30.78"
       y1="38.58"
       x2="25.79"
       y2="17.65"
       xlink:href="#linear-gradient-2" />
    <linearGradient
       id="linear-gradient-5"
       x1="15.22"
       y1="10.48"
       x2="32.68"
       y2="23"
       gradientUnits="userSpaceOnUse"
       gradientTransform="matrix(1.2665193,0,0,1.2665193,-4.5249006,-6.7010068)">
      <stop
         offset="0"
         stop-color="#edd400"
         stop-opacity="0"
         id="stop23" />
      <stop
         offset="1"
         stop-color="#edd400"
         id="stop25" />
    </linearGradient>
    <linearGradient
       id="linear-gradient-6"
       x1="21.97"
       y1="17.44"
       x2="17.04"
       y2="8.51"
       xlink:href="#linear-gradient"
       gradientTransform="matrix(1.2665193,0,0,1.2665193,-4.5249006,-6.7010068)" />
    <linearGradient
       inkscape:collect="always"
       xlink:href="#linearGradient369586"
       id="linearGradient369588"
       x1="23.002508"
       y1="23.44706"
       x2="32.255573"
       y2="35.358219"
       gradientUnits="userSpaceOnUse" />
    <linearGradient
       inkscape:collect="always"
       xlink:href="#linearGradient370522"
       id="linearGradient370524"
       x1="12.802566"
       y1="20.347416"
       x2="21.362101"
       y2="40.044659"
       gradientUnits="userSpaceOnUse" />
  </defs>
  <title
     id="title31">10-Popcorn</title>
  <g
     id="shadow"
     style="isolation:isolate;stroke-width:0.944642"
     transform="matrix(1,0,0,1.1206394,0.84897959,-1.8443352)">
    <ellipse
       class="cls-3"
       cx="23.799999"
       cy="36.400002"
       rx="21.83"
       ry="8.1199999"
       id="ellipse36"
       style="fill:url(#radial-gradient);stroke-width:0.944642" />
  </g>
  <polygon
     class="cls-4"
     points="21.38,40.75 22.59,41.7 22.59,18.91 20.94,18.92 18.16,18.94 15.89,18.95 14.01,18.96 12.42,18.97 14.44,35.3 15.82,36.39 17.41,37.64 19.24,39.07 "
     id="polygon39"
     style="isolation:isolate;stroke-width:0.789566;fill:url(#linearGradient370524);fill-opacity:1"
     transform="matrix(1.2665193,0,0,1.2665193,-4.5249006,-6.7010068)" />
  <polygon
     class="cls-5"
     points="14.44,35.3 12.42,18.97 14.01,18.96 15.82,36.39 "
     id="polygon41"
     style="isolation:isolate;stroke-width:0.789566"
     transform="matrix(1.2665193,0,0,1.2665193,-4.5249006,-6.7010068)" />
  <polygon
     class="cls-5"
     points="17.41,37.64 15.89,18.95 18.16,18.94 19.24,39.07 "
     id="polygon43"
     style="isolation:isolate;stroke-width:0.789566"
     transform="matrix(1.2665193,0,0,1.2665193,-4.5249006,-6.7010068)" />
  <polygon
     class="cls-5"
     points="21.38,40.75 20.94,18.92 22.59,18.91 22.59,41.7 "
     id="polygon45"
     style="isolation:isolate;stroke-width:0.789566"
     transform="matrix(1.2665193,0,0,1.2665193,-4.5249006,-6.7010068)" />
  <polygon
     class="cls-4"
     points="30.87,36.39 32.57,35.3 35.04,18.97 33.1,18.96 30.79,18.95 28.02,18.94 24.61,18.92 22.59,18.91 22.59,41.7 24.07,40.75 26.69,39.07 28.93,37.64 "
     id="polygon51"
     style="isolation:isolate;stroke-width:0.789566;fill:url(#linearGradient369588);fill-opacity:1"
     transform="matrix(1.2665193,0,0,1.2665193,-4.5249006,-6.7010068)" />
  <polygon
     class="cls-5"
     points="32.57,35.3 35.04,18.97 33.1,18.96 30.87,36.39 "
     id="polygon53"
     style="isolation:isolate;stroke-width:0.789566"
     transform="matrix(1.2665193,0,0,1.2665193,-4.5249006,-6.7010068)" />
  <polygon
     class="cls-5"
     points="28.93,37.64 30.79,18.95 28.02,18.94 26.69,39.07 "
     id="polygon55"
     style="isolation:isolate;stroke-width:0.789566"
     transform="matrix(1.2665193,0,0,1.2665193,-4.5249006,-6.7010068)" />
  <polygon
     class="cls-5"
     points="24.07,40.75 24.61,18.92 22.59,18.91 22.59,41.7 "
     id="polygon57"
     style="isolation:isolate;stroke-width:0.789566"
     transform="matrix(1.2665193,0,0,1.2665193,-4.5249006,-6.7010068)" />
  <polygon
     class="cls-10"
     points="21.38,40.75 22.59,41.7 22.59,18.91 20.94,18.92 18.16,18.94 15.89,18.95 14.01,18.96 12.42,18.97 14.44,35.3 15.82,36.39 17.41,37.64 19.24,39.07 "
     id="polygon63"
     transform="matrix(1.2665193,0,0,1.2665193,-4.5249006,-6.7010068)"
     style="isolation:isolate" />
  <polygon
     class="cls-10"
     points="30.87,36.39 32.57,35.3 35.04,18.97 33.1,18.96 30.79,18.95 28.02,18.94 24.61,18.92 22.59,18.91 22.59,41.7 24.07,40.75 26.69,39.07 28.93,37.64 "
     id="polygon65"
     transform="matrix(1.2665193,0,0,1.2665193,-4.5249006,-6.7010068)"
     style="isolation:isolate" />
  <path
     class="cls-11"
     d="m 11.293925,19.199313 c 0,0 -1.7477962,-0.07599 -2.064426,-1.380506 a 2.0264309,2.0264309 0 0 1 1.570484,-2.533039 1.380506,1.380506 0 0 1 0.721916,-1.557818 2.8749988,2.8749988 0 0 1 -0.468612,-2.697687 2.5330386,2.5330386 0 0 1 2.34306,-1.2665189 c 0,0 -0.379955,-1.9504397 1.051212,-2.5330386 a 2.6596905,2.6596905 0 0 1 2.31773,-0.1013215 c 0,0 0.544603,-2.0897569 2.735682,-0.9118939 0,0 -1.063877,-2.0137657 -0.126652,-3.1283027 A 2.2037436,2.2037436 0 0 1 21.76804,2.5445841 2.3177303,2.3177303 0 0 1 23.667819,1.2780648 c 1.266519,0 1.988435,1.6718055 1.988435,1.6718055 0,0 1.557819,-1.6464751 2.988986,-1.2665193 1.431167,0.3799558 1.405836,2.0264308 1.405836,2.0264308 a 2.2544044,2.2544044 0 0 1 1.697136,0.2153083 1.2665193,1.2665193 0 0 1 0.519273,1.3298453 1.507158,1.507158 0 0 1 1.266519,0.6205944 2.2923999,2.2923999 0 0 1 1.92511,-0.075991 2.4190519,2.4190519 0 0 1 0.734581,3.1029723 2.1404176,2.1404176 0 0 1 0.671255,1.0892066 2.4443822,2.4443822 0 0 1 2.26707,0.7345813 c 0.835902,1.038546 0,2.735681 0,2.735681 0,0 0.70925,0.468613 0.65859,0.937225 a 2.0770917,2.0770917 0 0 1 1.747796,1.266519 1.6844707,1.6844707 0 0 1 -0.65859,1.97577 2.2164088,2.2164088 0 0 1 -0.392621,1.621145 c -0.544603,0.671255 -2.153082,0.151982 -2.153082,0.151982 a 2.6596905,2.6596905 0 0 1 -1.443832,0.468612 1.2665193,1.2665193 0 0 1 -0.797908,-0.443281 1.2665193,1.2665193 0 0 1 -1.595814,-0.443282 2.3810563,2.3810563 0 0 1 -0.569934,1.329845 1.8871138,1.8871138 0 0 1 -2.533038,-0.620594 1.7224662,1.7224662 0 0 1 -0.569934,0.886563 1.5324884,1.5324884 0 0 1 -1.203193,0.303965 c 0,0 0,0.709251 -0.886564,1.266519 -0.886563,0.557269 -2.039096,-0.569934 -2.077091,-1.063876 a 1.1525326,1.1525326 0 0 1 -1.000551,0.645925 c 0,0 0.139317,0.810572 -1.089206,1.329845 a 2.0264309,2.0264309 0 0 1 -2.533039,-1.089207 c 0,0 -1.266519,0 -1.266519,-1.051211 a 1.6844707,1.6844707 0 0 1 -1.798458,-1.266519 2.6596905,2.6596905 0 0 1 -2.381056,1.329845 1.4058364,1.4058364 0 0 1 -1.380506,-1.494492 1.507158,1.507158 0 0 1 -1.190528,0.633259 1.2665193,1.2665193 0 0 1 -1.456497,0.443282 1.5451535,1.5451535 0 0 1 -1.26652,-1.380506 z"
     id="path67"
     style="isolation:isolate;stroke-width:1" />
  <path
     class="cls-12"
     d="m 11.293925,19.199313 c 0,0 -1.7477962,-0.07599 -2.064426,-1.380506 a 2.0264309,2.0264309 0 0 1 1.570484,-2.533039 1.380506,1.380506 0 0 1 0.721916,-1.557818 2.8749988,2.8749988 0 0 1 -0.468612,-2.697687 2.5330386,2.5330386 0 0 1 2.34306,-1.2665189 c 0,0 -0.379955,-1.9504397 1.051212,-2.5330386 a 2.6596905,2.6596905 0 0 1 2.31773,-0.1013215 c 0,0 0.544603,-2.0897569 2.735682,-0.9118939 0,0 -1.063877,-2.0137657 -0.126652,-3.1283027 A 2.2037436,2.2037436 0 0 1 21.76804,2.5445841 2.3177303,2.3177303 0 0 1 23.667819,1.2780648 c 1.266519,0 1.988435,1.6718055 1.988435,1.6718055 0,0 1.557819,-1.6464751 2.988986,-1.2665193 1.431167,0.3799558 1.405836,2.0264308 1.405836,2.0264308 a 2.2544044,2.2544044 0 0 1 1.697136,0.2153083 1.2665193,1.2665193 0 0 1 0.519273,1.3298453 1.507158,1.507158 0 0 1 1.266519,0.6205944 2.2923999,2.2923999 0 0 1 1.92511,-0.075991 2.4190519,2.4190519 0 0 1 0.734581,3.1029723 2.1404176,2.1404176 0 0 1 0.671255,1.0892066 2.4443822,2.4443822 0 0 1 2.26707,0.7345813 c 0.835902,1.038546 0,2.735681 0,2.735681 0,0 0.70925,0.468613 0.65859,0.937225 a 2.0770917,2.0770917 0 0 1 1.747796,1.266519 1.6844707,1.6844707 0 0 1 -0.65859,1.97577 2.2164088,2.2164088 0 0 1 -0.392621,1.621145 c -0.544603,0.671255 -2.153082,0.151982 -2.153082,0.151982 a 2.6596905,2.6596905 0 0 1 -1.443832,0.468612 1.2665193,1.2665193 0 0 1 -0.797908,-0.443281 1.2665193,1.2665193 0 0 1 -1.595814,-0.443282 2.3810563,2.3810563 0 0 1 -0.569934,1.329845 1.8871138,1.8871138 0 0 1 -2.533038,-0.620594 1.7224662,1.7224662 0 0 1 -0.569934,0.886563 1.5324884,1.5324884 0 0 1 -1.203193,0.303965 c 0,0 0,0.709251 -0.886564,1.266519 -0.886563,0.557269 -2.039096,-0.569934 -2.077091,-1.063876 a 1.1525326,1.1525326 0 0 1 -1.000551,0.645925 c 0,0 0.139317,0.810572 -1.089206,1.329845 a 2.0264309,2.0264309 0 0 1 -2.533039,-1.089207 c 0,0 -1.266519,0 -1.266519,-1.051211 a 1.6844707,1.6844707 0 0 1 -1.798458,-1.266519 2.6596905,2.6596905 0 0 1 -2.381056,1.329845 1.4058364,1.4058364 0 0 1 -1.380506,-1.494492 1.507158,1.507158 0 0 1 -1.190528,0.633259 1.2665193,1.2665193 0 0 1 -1.456497,0.443282 1.5451535,1.5451535 0 0 1 -1.26652,-1.380506 z"
     id="path69"
     style="isolation:isolate;fill:url(#linear-gradient-5);stroke-width:1" />
  <path
     class="cls-11"
     d="M 33.141383,6.9394061 A 1.1018718,1.1018718 0 0 1 32.102838,6.7240978 c 0,0.1899779 0.557268,2.0390961 -0.683921,2.4190518 -1.241189,0.3799558 -1.393171,0 -1.393171,0 0,0 -0.759912,-0.6712552 -1.266519,0 -0.506608,0.6712553 -0.126652,1.6211444 0.544603,1.6211444 a 1.2665193,1.2665193 0 0 1 0.215308,1.076542 c -0.164647,0.671255 -1.519823,1.165198 -2.165748,0.962554 0,0 -1.127202,-0.113986 -1.355175,0.329295 a 1.6971359,1.6971359 0 0 0 0.139317,1.697136 2.2164088,2.2164088 0 0 1 -0.873899,1.545154 2.5330386,2.5330386 0 0 1 -1.861783,0.430616 c 0,0 -0.899229,0.139318 -0.924559,0.899229 a 1.2665193,1.2665193 0 0 0 0.291299,1.013216 c 0,0 -2.229074,0.36729 -2.039096,2.077091 a 1.6844707,1.6844707 0 0 1 -1.798457,-1.266519 2.6596905,2.6596905 0 0 1 -2.381056,1.329845 1.4058364,1.4058364 0 0 1 -1.380506,-1.494493 1.507158,1.507158 0 0 1 -1.190529,0.63326 1.2665193,1.2665193 0 0 1 -1.456497,0.443282 1.5451535,1.5451535 0 0 1 -1.266519,-1.26652 c 0,0 -1.7477968,-0.07599 -2.0644266,-1.380506 a 2.0264309,2.0264309 0 0 1 1.5704836,-2.533038 1.380506,1.380506 0 0 1 0.721916,-1.557819 2.8749988,2.8749988 0 0 1 -0.430616,-2.672356 2.5330386,2.5330386 0 0 1 2.34306,-1.2665189 c 0,0 -0.379955,-1.9504397 1.051212,-2.5330386 a 2.6596905,2.6596905 0 0 1 2.31773,-0.1013215 c 0,0 0.544603,-2.0897569 2.735682,-0.9118939 0,0 -1.063877,-2.0137657 -0.126652,-3.1283027 A 2.2037436,2.2037436 0 0 1 21.76804,2.5445841 2.3177303,2.3177303 0 0 1 23.667819,1.2780648 c 1.266519,0 1.988435,1.6718055 1.988435,1.6718055 0,0 1.557819,-1.6464751 2.988986,-1.2665193 a 2.0517613,2.0517613 0 0 1 1.405836,2.0264308 2.2544044,2.2544044 0 0 1 1.697136,0.2153083 1.2665193,1.2665193 0 0 1 0.519273,1.3298453 1.507158,1.507158 0 0 1 1.266519,0.6205944 c 0,0 0.240639,0.8612332 -0.392621,1.0638763 z"
     id="path71"
     style="isolation:isolate;stroke-width:1" />
  <path
     class="cls-13"
     d="M 33.141383,6.9394061 A 1.1018718,1.1018718 0 0 1 32.102838,6.7240978 c 0,0.1899779 0.557268,2.0390961 -0.683921,2.4190518 -1.241189,0.3799558 -1.393171,0 -1.393171,0 0,0 -0.759912,-0.6712552 -1.266519,0 -0.506608,0.6712553 -0.126652,1.6211444 0.544603,1.6211444 a 1.2665193,1.2665193 0 0 1 0.215308,1.076542 c -0.164647,0.671255 -1.519823,1.165198 -2.165748,0.962554 0,0 -1.127202,-0.113986 -1.355175,0.329295 a 1.6971359,1.6971359 0 0 0 0.139317,1.697136 2.2164088,2.2164088 0 0 1 -0.873899,1.545154 2.5330386,2.5330386 0 0 1 -1.861783,0.430616 c 0,0 -0.899229,0.139318 -0.924559,0.899229 a 1.2665193,1.2665193 0 0 0 0.291299,1.013216 c 0,0 -2.229074,0.36729 -2.039096,2.077091 a 1.6844707,1.6844707 0 0 1 -1.798457,-1.266519 2.6596905,2.6596905 0 0 1 -2.381056,1.329845 1.4058364,1.4058364 0 0 1 -1.380506,-1.494493 1.507158,1.507158 0 0 1 -1.190529,0.63326 1.2665193,1.2665193 0 0 1 -1.456497,0.443282 1.5451535,1.5451535 0 0 1 -1.266519,-1.26652 c 0,0 -1.7477968,-0.07599 -2.0644266,-1.380506 a 2.0264309,2.0264309 0 0 1 1.5704836,-2.533038 1.380506,1.380506 0 0 1 0.721916,-1.557819 2.8749988,2.8749988 0 0 1 -0.430616,-2.672356 2.5330386,2.5330386 0 0 1 2.34306,-1.2665189 c 0,0 -0.379955,-1.9504397 1.051212,-2.5330386 a 2.6596905,2.6596905 0 0 1 2.31773,-0.1013215 c 0,0 0.544603,-2.0897569 2.735682,-0.9118939 0,0 -1.063877,-2.0137657 -0.126652,-3.1283027 A 2.2037436,2.2037436 0 0 1 21.76804,2.5445841 2.3177303,2.3177303 0 0 1 23.667819,1.2780648 c 1.266519,0 1.988435,1.6718055 1.988435,1.6718055 0,0 1.557819,-1.6464751 2.988986,-1.2665193 a 2.0517613,2.0517613 0 0 1 1.405836,2.0264308 2.2544044,2.2544044 0 0 1 1.697136,0.2153083 1.2665193,1.2665193 0 0 1 0.519273,1.3298453 1.507158,1.507158 0 0 1 1.266519,0.6205944 c 0,0 0.240639,0.8612332 -0.392621,1.0638763 z"
     id="path73"
     style="isolation:isolate;fill:url(#linear-gradient-6);stroke-width:1" />
  <path
     class="cls-14"
     d="m 16.397998,12.296783 a 1.7351314,1.7351314 0 0 1 -0.455947,1.418501 c -0.595264,0.645925 -1.722466,0.189978 -1.722466,0.189978 a 2.2417392,2.2417392 0 0 1 -0.949889,0.899229 c -0.620595,0.291299 -1.177863,0.202643 -1.405837,-0.126652 0,0 -0.253304,1.367841 0.899229,1.507158 a 1.2665193,1.2665193 0 0 0 1.456497,-0.810572 1.9631049,1.9631049 0 0 0 2.191078,0.240638 c 1.405837,-0.569933 0.92456,-2.697686 -0.01266,-3.31828 z"
     id="path75"
     style="isolation:isolate;stroke-width:1" />
  <path
     class="cls-14"
     d="m 17.791169,7.8133044 a 1.2665193,1.2665193 0 0 0 -0.151982,0.9245591 c 0.151982,0.4432817 0.823238,0.4432817 0.823238,0.4432817 0,0 -1.114537,0.4306166 -0.823238,1.2665198 a 0.93722428,0.93722428 0 0 0 1.760462,0 1.1651978,1.1651978 0 0 1 0,1.418501 1.3931712,1.3931712 0 0 1 -2.279735,-0.34196 2.0011005,2.0011005 0 0 1 0.177313,-1.7604619 0.96255467,0.96255467 0 0 1 -0.455947,-1.0132154 1.5831491,1.5831491 0 0 1 0.949889,-0.9372243 z"
     id="path77"
     style="isolation:isolate;stroke-width:1" />
  <path
     class="cls-14"
     d="m 20.349538,15.969689 a 1.4058364,1.4058364 0 0 1 0.227974,1.393171 1.1778629,1.1778629 0 0 1 -1.912444,0.177313 c 0,0 -0.2913,1.266519 -1.26652,1.570484 a 1.1272022,1.1272022 0 0 1 -1.443832,-1.380507 1.7984574,1.7984574 0 0 0 -0.215308,1.60848 1.5578187,1.5578187 0 0 0 2.279735,0.405286 1.9757701,1.9757701 0 0 0 0.759912,-1.063876 1.6084795,1.6084795 0 1 0 1.570483,-2.710351 z"
     id="path79"
     style="isolation:isolate;stroke-width:1" />
  <path
     class="cls-14"
     d="m 23.515837,12.182796 a 0.5446033,0.5446033 0 0 0 -0.468612,0.68392 0.74724639,0.74724639 0 0 0 0.620594,0.721916 1.4691624,1.4691624 0 0 0 -0.31663,1.127203 c 0.113987,0.620594 1.583149,1.076541 2.26707,0.151982 0,0 0.202643,0.835903 -0.987885,1.34251 a 1.4944928,1.4944928 0 0 1 -2.216409,-1.00055 1.2665193,1.2665193 0 0 1 0.34196,-1.355176 0.81057235,0.81057235 0 0 1 -0.392621,-0.924559 0.8992287,0.8992287 0 0 1 1.152533,-0.747246 z"
     id="path81"
     style="isolation:isolate;stroke-width:1" />
  <path
     class="cls-15"
     d="m 25.40295,17.134886 a 1.1018718,1.1018718 0 0 1 0.240639,1.101872 1.5958143,1.5958143 0 0 1 -1.95044,1.025881 1.8491182,1.8491182 0 0 1 0.493943,1.266519 c -0.08866,0.620595 -1.266519,0.810573 -1.595814,0.113987 a 0.93722428,0.93722428 0 0 1 0,-0.810572 1.773127,1.773127 0 0 0 -0.557269,1.266519 1.5578187,1.5578187 0 0 0 1.709801,1.266519 1.507158,1.507158 0 0 0 1.431167,-1.747796 1.1905281,1.1905281 0 0 0 1.266519,-0.557269 2.1150872,2.1150872 0 0 0 -1.038546,-2.92566 z"
     id="path83"
     style="isolation:isolate;stroke-width:1" />
  <path
     class="cls-15"
     d="m 28.9872,13.563302 c 0,0 0.772577,0.443282 0.595264,1.076541 -0.177313,0.63326 -1.013215,0.696586 -1.013215,0.696586 a 1.1398674,1.1398674 0 0 1 -0.468612,1.266519 0.77257677,0.77257677 0 0 1 -1.101872,-0.31663 c 0,0 0.240638,1.418502 1.545153,1.26652 1.304515,-0.151983 0.835903,-1.507158 0.835903,-1.507158 a 1.2665193,1.2665193 0 0 0 1.089207,-0.785242 c 0.227973,-0.797907 -0.329295,-1.60848 -1.481828,-1.697136 z"
     id="path85"
     style="isolation:isolate;stroke-width:1" />
  <path
     class="cls-15"
     d="m 35.028497,6.5847807 a 1.9631049,1.9631049 0 0 1 0.582599,1.7477966 c -0.215308,1.0132154 -1.861783,0.8992287 -1.861783,0.8992287 0,0 0.405286,0.7599116 0,1.139867 -0.405287,0.379956 -1.659141,-0.126652 -1.659141,-0.126652 0,0 0.94989,0.177313 1.051211,-0.4686117 a 2.4317171,2.4317171 0 0 0 -0.405286,-1.443832 3.938875,3.938875 0 0 0 2.001101,-0.3166298 c 0.747246,-0.4432818 0.291299,-1.4311668 0.291299,-1.4311668 z"
     id="path87"
     style="isolation:isolate;stroke-width:1" />
  <path
     class="cls-15"
     d="m 37.903496,10.865616 a 2.3303955,2.3303955 0 0 1 0.164647,1.595814 c -0.278634,0.747247 -1.393171,0.65859 -1.393171,0.65859 0,0 1.570484,0.60793 2.039096,-0.31663 a 1.3678408,1.3678408 0 0 0 -0.810572,-1.937774 z"
     id="path89"
     style="isolation:isolate;stroke-width:1" />
  <path
     class="cls-15"
     d="m 37.878166,14.145901 a 1.0765414,1.0765414 0 0 1 0.721916,1.076541 c 0,0 1.038545,0 1.152532,0.747247 0.113987,0.747246 -0.65859,1.165197 -0.65859,1.165197 0,0 0.08866,1.127203 -0.810572,1.051211 a 2.3177303,2.3177303 0 0 0 1.266519,0.303965 c 0.557269,-0.113987 0.405286,-1.00055 0.405286,-1.00055 a 1.5958143,1.5958143 0 0 0 0.785242,-1.266519 c 0,-0.911894 -1.443832,-1.26652 -1.443832,-1.26652 0,0 -0.02533,-1.101872 -1.418501,-0.810572 z"
     id="path91"
     style="isolation:isolate;stroke-width:1" />
  <path
     class="cls-15"
     d="m 32.495459,11.942157 a 1.3425105,1.3425105 0 0 1 0.645924,0.97522 2.102422,2.102422 0 0 1 -0.557268,1.342511 c 0,0 1.00055,-0.06333 1.266519,0.65859 a 1.2665193,1.2665193 0 0 1 -0.595264,1.722466 1.7224662,1.7224662 0 0 0 1.836453,0 1.4944928,1.4944928 0 0 0 -0.696586,-2.533039 1.9631049,1.9631049 0 0 0 0,-1.266519 c -0.215308,-0.785242 -1.355175,-0.962555 -1.899778,-0.899229 z"
     id="path93"
     style="isolation:isolate;stroke-width:1" />
  <path
     class="cls-15"
     d="m 32.723432,17.489512 a 1.1778629,1.1778629 0 0 1 0.177313,1.152532 c -0.2913,0.531938 -1.26652,0.08866 -1.26652,0.08866 a 1.3678408,1.3678408 0 0 0 1.329846,1.02588 c 1.215858,0.139318 1.570484,-1.950439 -0.240639,-2.267069 z"
     id="path95"
     style="isolation:isolate;stroke-width:1" />
  <path
     class="cls-15"
     d="m 29.67112,18.933344 c 0,0 -0.379955,0.696585 -0.949889,0.721916 a 0.721916,0.721916 0 0 0 1.038546,0.405286 c 0.810572,-0.367291 0.531938,-1.00055 -0.08866,-1.127202 z"
     id="path97"
     style="isolation:isolate;stroke-width:1" />
  <path
     class="cls-14"
     d="m 29.32916,4.5836802 a 1.380506,1.380506 0 0 1 0.34196,1.2665193 c 0,0 0.696586,0 0.734582,0.7852419 0.03799,0.785242 -1.773127,0.721916 -1.773127,0.721916 a 1.6971359,1.6971359 0 0 0 1.63381,0.9625547 1.2665193,1.2665193 0 0 0 0.899228,-2.0517613 1.1651978,1.1651978 0 0 0 -0.531938,-0.4432817 c 0,0 -0.05066,-1.3805061 -1.304515,-1.2411889 z"
     id="path99"
     style="isolation:isolate;stroke-width:1" />
  <path
     class="cls-14"
     d="m 27.404051,10.270352 c 0,0 -0.06333,1.00055 -0.734581,1.114537 -0.671255,0.113987 -0.797907,-0.177313 -0.797907,-0.177313 0,0 0.240638,1.139867 1.266519,0.886564 1.025881,-0.253304 0.265969,-1.823788 0.265969,-1.823788 z"
     id="path101"
     style="isolation:isolate;stroke-width:1" />
  <path
     class="cls-14"
     d="M 25.149647,4.444363 A 1.2665193,1.2665193 0 0 1 24.592378,5.7108823 C 23.895792,6.0908381 24.833017,6.9774016 25.516937,6.4454635 26.200858,5.9135254 25.66892,4.6976669 25.149647,4.444363 Z"
     id="path103"
     style="isolation:isolate;stroke-width:1" />
  <path
     class="cls-15"
     d="m 23.693149,1.2653996 c 1.26652,0 1.963105,1.6718055 1.963105,1.6718055 a 4.4074872,4.4074872 0 0 1 2.533039,-1.3551757 1.4818276,1.4818276 0 0 1 0.405286,0 2.0517613,2.0517613 0 0 1 1.405837,2.0264309 2.7103513,2.7103513 0 0 1 0.645924,-0.075991 1.8491182,1.8491182 0 0 1 1.051211,0.2912995 1.2665193,1.2665193 0 0 1 0.519273,1.3298452 1.507158,1.507158 0 0 1 1.26652,0.6205945 2.6723557,2.6723557 0 0 1 1.114537,-0.265969 1.7224662,1.7224662 0 0 1 0.810572,0.1899778 2.4190519,2.4190519 0 0 1 0.734581,3.1029723 2.1404176,2.1404176 0 0 1 0.671255,1.0892066 2.887664,2.887664 0 0 1 0.481278,0 2.1910784,2.1910784 0 0 1 1.785792,0.7725768 c 0.835903,1.038546 0,2.735681 0,2.735681 0,0 0.709251,0.468613 0.65859,0.937225 a 2.0770917,2.0770917 0 0 1 1.747797,1.266519 1.6844707,1.6844707 0 0 1 -0.65859,1.97577 2.2164088,2.2164088 0 0 1 -0.392621,1.621145 1.2665193,1.2665193 0 0 1 -0.97522,0.34196 4.4708131,4.4708131 0 0 1 -1.177863,-0.189978 2.9636552,2.9636552 0 0 1 -1.26652,0.481278 H 36.86495 a 1.2665193,1.2665193 0 0 1 -0.797907,-0.443282 1.5704839,1.5704839 0 0 1 -0.582599,0.113987 1.1651978,1.1651978 0 0 1 -1.013215,-0.557269 2.3810563,2.3810563 0 0 1 -0.569934,1.329845 1.2665193,1.2665193 0 0 1 -0.861233,0.265969 1.9124441,1.9124441 0 0 1 -1.671806,-0.886563 1.7224662,1.7224662 0 0 1 -0.569933,0.886563 1.4311668,1.4311668 0 0 1 -0.937225,0.329295 1.2665193,1.2665193 0 0 1 -0.265969,0 c 0,0 0,0.709251 -0.886563,1.26652 a 1.0892066,1.0892066 0 0 1 -0.519273,0.126652 1.7604618,1.7604618 0 0 1 -1.557819,-1.190529 1.1525326,1.1525326 0 0 1 -1.00055,0.645925 c 0,0 0.139317,0.810573 -1.089207,1.329846 a 1.6971359,1.6971359 0 0 1 -0.68392,0.139317 2.1530828,2.1530828 0 0 1 -1.836453,-1.26652 c 0,0 -1.101872,0 -1.266519,-0.861233 0,-0.06333 0,-0.126652 0,-0.189978 h -0.126652 a 1.6464751,1.6464751 0 0 1 -1.671806,-1.266519 2.7483469,2.7483469 0 0 1 -2.127752,1.342511 h -0.253304 a 1.4058364,1.4058364 0 0 1 -1.380506,-1.494493 1.5198232,1.5198232 0 0 1 -1.152533,0.633259 v 0 a 1.1398674,1.1398674 0 0 1 -1.02588,0.493943 1.7984574,1.7984574 0 0 1 -0.430617,0 1.5451535,1.5451535 0 0 1 -1.266519,-1.266519 c 0,0 -1.7477968,-0.07599 -2.0644266,-1.380506 a 2.0264309,2.0264309 0 0 1 1.5704836,-2.533039 1.380506,1.380506 0 0 1 0.721916,-1.557819 2.8749988,2.8749988 0 0 1 -0.493942,-2.811673 2.5330386,2.5330386 0 0 1 2.267069,-1.2665187 h 0.07599 c 0,0 -0.379955,-1.9504397 1.051212,-2.5330386 a 3.4829281,3.4829281 0 0 1 1.355175,-0.3039646 2.0137657,2.0137657 0 0 1 0.962555,0.2026431 1.6844707,1.6844707 0 0 1 1.519823,-1.2665193 2.6596905,2.6596905 0 0 1 1.266519,0.3546254 c 0,0 -1.063876,-2.0137657 -0.126652,-3.1283027 A 1.9251093,1.9251093 0 0 1 20.957467,2.392602 2.5330386,2.5330386 0 0 1 21.8187,2.5445843 2.3177303,2.3177303 0 0 1 23.718479,1.278065 v 0 m 0,-0.88656352 v 0 A 3.1029723,3.1029723 0 0 0 21.45141,1.4807079 c -0.139317,0 -0.303964,0 -0.481277,0 a 2.8116728,2.8116728 0 0 0 -2.216409,1.0132154 2.9763204,2.9763204 0 0 0 -0.531938,2.4570475 2.3050651,2.3050651 0 0 0 -1.861783,1.1018718 3.0143159,3.0143159 0 0 0 -0.493943,0 4.26817,4.26817 0 0 0 -1.709801,0.3799557 2.8623336,2.8623336 0 0 0 -1.63381,2.6090298 3.1029723,3.1029723 0 0 0 -2.203743,1.6844709 3.3816065,3.3816065 0 0 0 0.05066,2.837003 2.1404176,2.1404176 0 0 0 -0.4686118,1.114537 2.9763204,2.9763204 0 0 0 -1.5324883,3.330946 2.7863425,2.7863425 0 0 0 2.3050651,1.988435 2.4063867,2.4063867 0 0 0 1.709801,1.266519 2.6850209,2.6850209 0 0 0 0.620595,0.07599 2.1530828,2.1530828 0 0 0 1.469162,-0.481278 1.0892066,1.0892066 0 0 0 0.291299,-0.07599 2.3810563,2.3810563 0 0 0 1.735132,0.962555 1.8491182,1.8491182 0 0 0 0.36729,0 3.0776419,3.0776419 0 0 0 2.001101,-0.759912 2.5330386,2.5330386 0 0 0 1.266519,0.63326 2.0644265,2.0644265 0 0 0 1.431167,1.038546 3.0016507,3.0016507 0 0 0 2.381056,1.266519 2.4063867,2.4063867 0 0 0 1.025881,-0.215308 2.5330386,2.5330386 0 0 0 1.519823,-1.431167 h 0.06333 a 2.5330386,2.5330386 0 0 0 1.722466,0.747246 2.0137657,2.0137657 0 0 0 0.937225,-0.227973 2.5330386,2.5330386 0 0 0 1.139867,-1.114537 2.102422,2.102422 0 0 0 1.127202,-0.519273 2.0137657,2.0137657 0 0 0 0.164648,-0.164648 2.9383248,2.9383248 0 0 0 1.481827,0.392621 2.0897568,2.0897568 0 0 0 1.469163,-0.506607 2.5330386,2.5330386 0 0 0 0.455947,-0.595265 2.3303955,2.3303955 0 0 0 0.519272,0.06333 h 0.341961 a 2.3177303,2.3177303 0 0 0 0.886563,0.341961 h 0.303965 a 3.216959,3.216959 0 0 0 1.418501,-0.417952 4.8760993,4.8760993 0 0 0 1.051211,0.126652 2.0011005,2.0011005 0 0 0 1.659141,-0.671255 2.9636552,2.9636552 0 0 0 0.620594,-1.798457 2.4570474,2.4570474 0 0 0 0.481277,-2.672356 A 2.9003292,2.9003292 0 0 0 40.4492,13.563302 2.6343601,2.6343601 0 0 0 40.145235,13.132685 3.2549546,3.2549546 0 0 0 39.803275,10.11837 3.0396463,3.0396463 0 0 0 37.409553,9.0164977 3.5589192,3.5589192 0 0 0 37.168915,8.6238767 3.1029723,3.1029723 0 0 0 35.902395,4.963636 2.6596905,2.6596905 0 0 0 34.635876,4.6723365 3.4575977,3.4575977 0 0 0 33.774643,4.7863233 2.8749988,2.8749988 0 0 0 33.154049,4.4696934 2.0517613,2.0517613 0 0 0 32.28015,3.2031741 2.5330386,2.5330386 0 0 0 30.810988,2.7472272 2.621695,2.621695 0 0 0 28.847883,0.77145707 2.4190519,2.4190519 0 0 0 28.239954,0.69546591 4.1921789,4.1921789 0 0 0 25.884228,1.5820294 2.8370032,2.8370032 0 0 0 23.693149,0.31551012 Z"
     id="path105"
     style="isolation:isolate;stroke-width:1" />
</svg>
