<?xml version="1.0" encoding="UTF-8"?>
<svg width="128" height="128" version="1.1" viewBox="0 0 128 128" xmlns="http://www.w3.org/2000/svg">
 <defs>
  <radialGradient id="radial-gradient" cx="-883.07" cy="574.03" r="1" gradientTransform="matrix(49.387 -.75902 -.27123 -25.115 43834 13845)" gradientUnits="userSpaceOnUse">
   <stop offset="0"/>
   <stop stop-opacity=".72" offset=".46"/>
   <stop stop-opacity="0" offset="1"/>
  </radialGradient>
  <linearGradient id="linear-gradient" x1="-888.09" x2="-887.09" y1="594.4" y2="594.4" gradientTransform="matrix(56.135 0 0 -56.135 49888 33462)" gradientUnits="userSpaceOnUse">
   <stop stop-color="#8d8d8d" offset="0"/>
   <stop stop-color="#949494" offset=".18"/>
   <stop stop-color="#484848" offset=".72"/>
  </linearGradient>
  <radialGradient id="radial-gradient-2" cx="51.4" cy="89.88" r="27.82" gradientTransform="matrix(-.99501 -.12446 .052275 -.4179 109.2 135.6)" gradientUnits="userSpaceOnUse">
   <stop stop-color="#484848" offset=".28"/>
   <stop stop-color="#606060" offset=".56"/>
   <stop stop-color="#8d8d8d" offset="1"/>
  </radialGradient>
  <radialGradient id="radial-gradient-3" cx="-823.01" cy="565.83" r="1.1" gradientTransform="matrix(-.22099 -12.412 -10.015 .21082 5514.6 -10266)" gradientUnits="userSpaceOnUse">
   <stop stop-color="#4df5fb" offset="0"/>
   <stop stop-color="#046ecf" offset="1"/>
  </radialGradient>
  <radialGradient id="radial-gradient-4" cx="-923.8" cy="579.96" r="1.16" gradientTransform="matrix(-12.602 -23.532 -29.417 6.9219 5496.7 -25680)" gradientUnits="userSpaceOnUse">
   <stop stop-color="#168fc8" offset=".41"/>
   <stop stop-color="#4fe6fc" offset=".79"/>
   <stop stop-color="#0473cf" offset="1"/>
  </radialGradient>
  <radialGradient id="radial-gradient-5" cx="85.7" cy="69.67" r="21.76" gradientTransform="matrix(-.58174 .81677 -.57174 -.40722 187.03 30.075)" gradientUnits="userSpaceOnUse">
   <stop stop-color="#14446e" offset=".13"/>
   <stop stop-color="#1b87b2" offset=".82"/>
   <stop stop-color="#10bac0" offset="1"/>
  </radialGradient>
  <radialGradient id="radial-gradient-6" cx="-885.42" cy="592.99" r="1" gradientTransform="matrix(74.24 2.7954 2.1686 -57.593 64540 36663)" gradientUnits="userSpaceOnUse">
   <stop stop-color="#63fbd9" offset="0"/>
   <stop stop-color="#1ccbd7" offset=".37507"/>
   <stop stop-color="#147cc6" offset=".69704"/>
   <stop stop-color="#044a89" offset="1"/>
  </radialGradient>
  <radialGradient id="radial-gradient-7" cx="-926.54" cy="605.51" r="1" gradientTransform="matrix(-42.382 -13.738 -21.202 65.409 -26367 -52292)" gradientUnits="userSpaceOnUse">
   <stop stop-color="#063a56" offset="0"/>
   <stop stop-color="#00548f" offset=".59141"/>
   <stop stop-color="#00abec" stop-opacity=".42767" offset=".79785"/>
   <stop stop-color="#0472c3" stop-opacity="0" offset="1"/>
  </radialGradient>
  <radialGradient id="radial-gradient-8" cx="-944.85" cy="600.77" r="1" gradientTransform="matrix(-21.267 -12.91 -15.751 25.947 -10579 -27740)" gradientUnits="userSpaceOnUse">
   <stop stop-color="#d4d4d4" offset="0"/>
   <stop stop-color="#c6c6c6" offset=".31"/>
   <stop stop-color="#697a79" offset="1"/>
  </radialGradient>
 </defs>
 <ellipse cx="65.074" cy="99.105" rx="63.04" ry="27.959" fill="url(#radial-gradient)" stroke-width="1.3671"/>
 <g stroke="#000" stroke-linecap="round" stroke-linejoin="round" stroke-width="1.0028">
  <ellipse cx="64.366" cy="100.08" rx="31.286" ry="13.979" fill="#282828"/>
  <ellipse cx="64.507" cy="96.759" rx="31.286" ry="13.979" fill="#6b6b6b"/>
  <path d="m35.818 94.422v-7.5007h57.097v7.5007c0 7.27-12.795 13.166-28.549 13.166-15.753 0-28.549-5.8963-28.549-13.166z" fill="url(#linear-gradient)" fill-rule="evenodd"/>
  <ellipse cx="64.366" cy="86.922" rx="28.549" ry="13.166" fill="url(#radial-gradient-2)"/>
 </g>
 <path d="m28.658 95.104c-4.5225 0-8.2728-1.1933-11.141-3.5297-4.7431-3.8807-4.7932-8.9647-4.7932-9.1753-0.66182-15.914 9.7067-22.432 10.148-22.703 0.24066-0.15041 0.51141-0.22061 0.78216-0.22061 0.21058 0 0.43119 0.05014 0.63174 0.14039 0.45124 0.21058 0.77213 0.63174 0.85235 1.1331 0 0.04011 0.72199 4.2116 4.5225 9.6867 3.5698 5.1442 7.5709 7.992 7.611 8.0221 0.44122 0.31086 0.68188 0.83229 0.63174 1.3638l-0.61168 6.8188c0.05014 0.42116 0.19052 1.6546 0.31086 2.888 0.36099 3.4796 0.45124 4.4122-1.0228 4.6829l-0.19052 0.03008c-2.0055 0.361-4.7531 0.86238-7.7413 0.86238z" fill="url(#radial-gradient-3)" fill-rule="evenodd" stroke-width="1.0028"/>
 <path d="m23.654 60.97s0.69191 4.4322 4.7732 10.318c3.7804 5.455 7.992 8.3931 7.992 8.3931l-0.63174 6.9792s0.70193 6.0366 0.54149 6.0667c-1.9754 0.36099-4.723 0.8724-7.6611 0.8724-3.4395 0-7.1397-0.70193-10.188-3.1988-4.2417-3.4696-4.2417-8.0121-4.2417-8.0121-0.63174-15.272 9.426-21.419 9.426-21.419m-0.01003-2.9983c-0.54149 0-1.083 0.14039-1.5543 0.43119-0.4713 0.2908-11.552 7.26-10.86 24.096 0.03008 0.86238 0.39108 6.187 5.3447 10.228 3.1487 2.5671 7.2199 3.8707 12.093 3.8707 3.1186 0 5.9464-0.51141 8.0121-0.89246l0.19052-0.03008c1.805-0.33091 2.6272-1.7248 2.4467-4.1414-0.04011-0.59163-0.12033-1.3838-0.20055-2.166-0.1103-1.1131-0.24066-2.2261-0.30083-2.7476l0.60166-6.6684c0.10028-1.073-0.39108-2.1158-1.2735-2.7375-0.03008-0.02006-3.8406-2.7476-7.2399-7.6411-3.5698-5.1542-4.2718-9.0449-4.2718-9.085-0.17047-0.98271-0.81224-1.825-1.7248-2.2362-0.4011-0.1805-0.83229-0.27075-1.2635-0.27075z" stroke-width="1.0028"/>
 <path d="m35.577 86.661 0.51141 5.816s-4.3319 0.53146-7.4806 0.55152c-7.1597 0.05014-13.206-4.0211-13.447-11.341-0.17047-4.9436 1.1732-6.2171 3.2389-6.3876 2.2061-0.1805 3.4796 1.4139 3.6501 5.6756 0.22061 5.6556 5.0238 6.3375 7.2199 6.167 2.196-0.17047 6.3074-0.4713 6.3074-0.4713z" fill="none" stroke="#000" stroke-linecap="round" stroke-linejoin="round" stroke-width="2.2261px"/>
 <g stroke-width="1.0028">
  <path d="m35.577 86.661 0.51141 5.816s-4.3319 0.53146-7.4806 0.55152c-7.1597 0.05014-13.206-4.0211-13.447-11.341-0.17047-4.9436 1.1732-6.2171 3.2389-6.3876 2.2061-0.1805 3.4796 1.4139 3.6501 5.6756 0.22061 5.6556 5.0238 6.3375 7.2199 6.167 2.196-0.17047 6.3074-0.4713 6.3074-0.4713z" fill="#004c8f" fill-rule="evenodd"/>
  <path d="m75.176 114.65c-0.6518 0-1.2535-0.43119-1.444-1.083l-3.5398-11.983c-0.12033-0.40111-0.06016-0.84232 0.15042-1.2033 0.22061-0.36099 0.5816-0.61168 0.99274-0.70193 1.083-0.22061 2.2161-0.51141 3.3793-0.8724-0.07019-0.52144-0.23064-1.2735-0.42116-1.9353-0.12033-0.42116-0.05014-0.86238 0.1805-1.2334 0.23064-0.36099 0.61168-0.61168 1.0429-0.67185 0.08022-0.01003 8.0522-1.1933 11.883-2.918 0.25069-0.1103 0.53146-0.361 0.82227-0.62171 0.19052-0.17047 0.37102-0.33091 0.55152-0.4713 3.7303-2.888 3.3994-6.899 2.8779-9.0349-0.14039-0.57158-0.28077-0.92254-0.28077-0.93257-0.22061-0.56155-0.10028-1.2033 0.33091-1.6345 9.4962-9.4761 11.371-16.927 11.391-16.997 0.1103-0.45124 0.42116-0.83229 0.85234-1.0228 0.20056-0.09025 0.41114-0.13036 0.62172-0.13036 0.24066 0 0.49135 0.06017 0.71196 0.1805 0.30083 0.16044 7.3803 4.0712 8.8343 13.648 0.64177 3.981 1.815 17.749-9.9976 27.185-11.913 9.5262-27.997 12.284-28.679 12.394-0.08022 0.01-0.17047 0.0201-0.25069 0.0201z" fill="url(#radial-gradient-4)" fill-rule="evenodd"/>
  <path d="m104.56 62.725s6.6984 3.6099 8.0622 12.545c1.2033 7.5107-0.16044 18.361-9.446 25.791-11.752 9.3859-27.987 12.083-27.987 12.083l-3.5398-11.983c1.444-0.2908 2.9281-0.69191 4.4021-1.1933 0.6518-0.22061-0.2908-3.4996-0.2908-3.4996s8.2126-1.2033 12.284-3.0384c0.67185-0.30083 1.1632-0.8724 1.6746-1.2735 4.5124-3.4996 3.9509-8.3931 3.4094-10.579-0.1805-0.71196-0.35097-1.1331-0.35097-1.1331 9.9775-9.9574 11.792-17.719 11.792-17.719m0-3.0083c-0.42116 0-0.84232 0.09025-1.2334 0.27075-0.85235 0.38105-1.4741 1.1331-1.6846 2.0356-0.0401 0.15041-1.9153 7.2299-10.99 16.285-0.86238 0.86238-1.1231 2.1459-0.66182 3.269 0 0 0.10028 0.27075 0.21058 0.71196 0.54149 2.166 0.57157 5.2344-2.3364 7.4806-0.21058 0.16044-0.42116 0.35097-0.63174 0.53146-0.15041 0.13036-0.37102 0.33091-0.45124 0.38105-2.9983 1.3437-9.2956 2.4768-11.472 2.7877-0.86238 0.13036-1.6245 0.62171-2.0958 1.3437-0.4713 0.73202-0.60166 1.6245-0.361 2.4668 0.04011 0.15042 0.08022 0.30083 0.12033 0.46127-0.6518 0.1805-1.2936 0.33091-1.9253 0.45124-0.83229 0.16044-1.5543 0.67185-1.9855 1.3938-0.44122 0.72199-0.55152 1.5944-0.31086 2.4066l3.5398 11.983c0.38105 1.2936 1.5743 2.1559 2.8779 2.1559 0.16044 0 0.33091-0.01 0.49135-0.0401 0.69191-0.12033 17.147-2.9381 29.371-12.705 12.454-9.9474 11.221-24.417 10.539-28.619-1.5643-10.278-9.2756-14.54-9.6065-14.721-0.44121-0.24066-0.93256-0.36099-1.4239-0.36099z"/>
  <path d="m100.18 68.952c4.5225 4.0411 7.2099 8.9246 2.4969 15.984 0 0-7.5107 6.5882-13.979 8.0823 0 0 7.7413-6.1068 3.3893-12.705l8.1023-11.361z" fill="url(#radial-gradient-5)" fill-rule="evenodd"/>
 </g>
 <path d="m71.406 101.34-0.38105 6.5681 1.4741 3.3392s0.97268 2.3665 2.7075 1.9955c1.3638-0.29079 1.3738-3.3191 1.815-6.538 0.95262-7.0093 0.05013-9.8973-1.3036-10.198-1.3537-0.30083-1.0128 3.4395-1.1231 6.3776-0.10028 2.527-0.82227 3.0785-1.7348 1.444-0.91251-1.6245-1.464-2.9983-1.464-2.9983" fill="none" stroke="#000" stroke-linecap="round" stroke-linejoin="round" stroke-width="2.2261px"/>
 <path d="m71.406 101.34-0.38105 6.5681 1.4741 3.3392s0.97268 2.3665 2.7075 1.9955c1.3638-0.29079 1.3738-3.3191 1.815-6.538 0.95262-7.0093 0.05013-9.8973-1.3036-10.198-1.3537-0.30083-1.0128 3.4395-1.1231 6.3776-0.10028 2.527-0.82227 3.0785-1.7348 1.444-0.91251-1.6245-1.464-2.9983-1.464-2.9983" fill="#004c8f" fill-rule="evenodd" stroke-width="1.0028"/>
 <path d="m102.78 72.111c1.0128 1.0228 1.5543 2.6874 1.7147 4.4723 0.15042 1.5743 0 3.249-0.60166 4.6428-0.76209 1.825-2.2061 3.4996-4.001 5.064-1.0529 0.91252-2.2161 1.7849-3.4796 2.6072-1.073 0.70193-2.2061 1.3738-3.3793 1.9955-1.7348 0.92254-3.5498 1.7348-5.3447 2.4467-2.1359 0.85235-4.2417 1.5844-6.2272 2.0557 2.0456-0.19052 4.2517-0.57157 6.4778-1.2033 1.8952-0.54149 3.7904-1.2735 5.6054-2.1158 1.2434-0.57158 2.4367-1.2133 3.5598-1.9153 1.3437-0.83229 2.5771-1.7348 3.6701-2.7175 1.9454-1.7448 3.3893-3.7002 4.1615-5.7258 0.59164-1.6245 0.73201-3.5297 0.38105-5.2745-0.1103-0.53146-0.26072-1.0328-0.45124-1.5142-0.49135-1.2133-1.2033-2.2061-2.0958-2.8178z" fill="#b4fee8" fill-rule="evenodd" stroke-width="1.0028"/>
 <ellipse cx="63.725" cy="48.165" rx="45.034" ry="44.984" fill="url(#radial-gradient-6)" stroke="#000" stroke-linecap="round" stroke-linejoin="round" stroke-width="3.0092"/>
 <path d="m30.343 24.149c6.3976-7.7714 11.742-13.417 28.248-9.4861 14.54 3.4696 23.154 12.294 16.395 31.316-7.4906 21.108-18.29 26.593-35.458 19.063-14.249-6.2472-19.464-12.765-15.854-27.917" fill="url(#radial-gradient-7)" fill-rule="evenodd" stroke-width="1.0028"/>
 <path d="m32.92 33.515c-2.7877 6.6182-3.4696 12.745-1.2735 17.949 3.0384 7.2099 18.651 12.264 25.671 10.489 8.1825-2.0557 18.11-20.356 13.788-31.336-3.2088-8.1625-20.908-11.933-26.443-9.787-5.9965 2.3264-9.8872 8.2527-11.752 12.685z" fill="url(#radial-gradient-8)" fill-rule="evenodd" stroke="#001430" stroke-linecap="round" stroke-linejoin="round" stroke-width="3.0083px"/>
 <path d="m93.376 33.264c-2.2662-0.06016-5.435 0.1805-9.0449 1.3738-0.77213 0.26072-1.1933 1.083-0.93257 1.8451 0.05014 0.15042 0.13036 0.2908 0.22061 0.41113 0 0 2.2963 2.9983 2.7375 7.621 0.54149 5.7759-0.82227 9.7268-0.82227 9.7268-0.26072 0.7621 0.15042 1.5844 0.92254 1.8451 0.25069 0.08022 0.52144 0.10028 0.78216 0.04012 0 0 8.2427-1.6746 12.936-4.3019 0.38105-0.21058 0.64177-0.5816 0.72199-1.0028 0 0 2.1058-9.9675-3.1286-16.646-0.20055-0.25069-0.4713-0.43119-0.78216-0.51141 0 0-1.3638-0.36099-3.63-0.42116z" fill="#88fede" stroke-width="1.0028"/>
 <path d="m93.176 36.142c1.3337 0.03009 2.0958 0.16044 2.557 0.25069 3.259 4.6328 2.5671 11.582 2.3565 13.226-2.6573 1.3236-6.6483 2.4568-9.1753 3.0985 0.37102-1.9454 0.72199-4.8534 0.38105-8.4733-0.30083-3.2088-1.3938-5.7659-2.2462-7.3503 2.4568-0.62171 4.5626-0.79218 6.1169-0.7621z" fill="#fff" stroke-width="1.0028"/>
</svg>
