<?xml version="1.0" encoding="UTF-8"?>
<svg xmlns="http://www.w3.org/2000/svg" xmlns:xlink="http://www.w3.org/1999/xlink" viewBox="0 0 528.9 324.25">
  <defs>
    <style>
      .cls-1 {
        fill: url(#Linear_Gradient_5);
      }

      .cls-1, .cls-2, .cls-3, .cls-4, .cls-5, .cls-6, .cls-7, .cls-8, .cls-9, .cls-10, .cls-11, .cls-12, .cls-13, .cls-14 {
        fill-rule: evenodd;
      }

      .cls-15 {
        opacity: 0;
        stroke-linecap: round;
      }

      .cls-15, .cls-4 {
        stroke-linejoin: round;
      }

      .cls-15, .cls-4, .cls-11 {
        fill: none;
      }

      .cls-15, .cls-11 {
        stroke: #231f20;
      }

      .cls-2 {
        fill: #ff8f61;
      }

      .cls-3 {
        fill: #fff;
      }

      .cls-4 {
        stroke: #000;
      }

      .cls-4, .cls-11 {
        stroke-width: 3.1px;
      }

      .cls-5 {
        fill: #c00;
      }

      .cls-6 {
        fill: #b5b5b5;
      }

      .cls-7 {
        fill: #6380fa;
      }

      .cls-8 {
        fill: url(#Linear_Gradient_6);
      }

      .cls-9 {
        fill: #d68700;
      }

      .cls-10 {
        fill: #231f20;
      }

      .cls-11 {
        stroke-linejoin: bevel;
      }

      .cls-12 {
        fill: #122675;
      }

      .cls-13 {
        fill: #fff5a1;
      }

      .cls-14 {
        fill: #ff4a00;
      }
    </style>
    <linearGradient id="Linear_Gradient_5" data-name="Linear Gradient 5" x1="389.52" y1="97.71" x2="404" y2="98.31" gradientUnits="userSpaceOnUse">
      <stop offset="0" stop-color="#010101"/>
      <stop offset=".01" stop-color="#060606"/>
      <stop offset=".18" stop-color="#474747"/>
      <stop offset=".34" stop-color="#7f7f7f"/>
      <stop offset=".49" stop-color="#acacac"/>
      <stop offset=".64" stop-color="#d0d0d0"/>
      <stop offset=".78" stop-color="#eaeaea"/>
      <stop offset=".9" stop-color="#f9f9f9"/>
      <stop offset="1" stop-color="#fff"/>
    </linearGradient>
    <linearGradient id="Linear_Gradient_6" data-name="Linear Gradient 6" x1="399.92" y1="94.25" x2="388.99" y2="94.25" gradientUnits="userSpaceOnUse">
      <stop offset="0" stop-color="#969696"/>
      <stop offset=".17" stop-color="#a0a0a0"/>
      <stop offset=".45" stop-color="#bababa"/>
      <stop offset=".82" stop-color="#e6e6e6"/>
      <stop offset="1" stop-color="#fff"/>
    </linearGradient>
  </defs>
  <g id="KEEP_ON_FOR_EXPORT">
    <line class="cls-15" x1="373" y1="37.57" x2="373.71" y2="36.86"/>
    <line class="cls-15" x1="448" y1="112.57" x2="448.71" y2="111.86"/>
  </g>
  <g id="ICON">
    <g>
      <g>
        <polygon class="cls-14" points="395.79 66.99 414.64 90.68 414.64 82.17 395.79 58.48 395.79 66.99"/>
        <polygon class="cls-3" points="395.79 75.51 414.64 99.2 414.64 90.68 395.79 66.99 395.79 75.51"/>
        <polygon class="cls-7" points="414.64 99.2 395.79 75.51 395.79 84.02 414.64 107.71 414.64 99.2"/>
        <path class="cls-12" d="M442.67,85.61c-6.62,7.66-18.74,11.75-28.03,13.59v8.51c9.29-1.84,21.41-5.93,28.03-13.59v-8.51Z"/>
        <path class="cls-6" d="M414.64,99.2c9.29-1.84,21.41-5.93,28.03-13.59v-8.52c-6.62,7.66-18.74,11.75-28.03,13.59v8.52Z"/>
        <path class="cls-5" d="M414.64,90.68c9.29-1.84,21.41-5.93,28.03-13.59v-8.51c-6.62,7.66-18.74,11.75-28.03,13.59v8.51Z"/>
        <path class="cls-2" d="M414.64,82.17c9.29-1.84,21.41-5.93,28.03-13.59-15.62-3.37-31.25-6.73-46.88-10.1,6.29,7.9,12.57,15.79,18.85,23.69Z"/>
      </g>
      <path class="cls-4" d="M395.79,58.48v25.54l18.85,23.69c10.49-2.16,20.39-5.55,28.03-13.59v-25.54l-46.88-10.1Z"/>
    </g>
    <g>
      <path class="cls-9" d="M388.04,87.66c-.32-1.88.15-3.86-.31-5.73-.52-2.09-1.63-4.04-2.74-5.92-1.33-2.27-3.58-4.03-4.68-6.41-1.37-2.98-2.39-6.29-2.25-9.54.14-3.29,1.2-6.69,3.11-9.44,2.08-3,5.24-5.39,8.62-7.03,2.54-1.23,5.47-1.91,8.33-1.88,3.41.05,6.88,1.01,9.9,2.51,2.51,1.26,4.75,3.11,6.46,5.24,1.69,2.12,3.01,4.61,3.54,7.2.67,3.3.48,6.86-.57,10.07-.96,2.91-3.15,5.34-5.02,7.82-1.28,1.69-3.18,2.96-4.23,4.79-1.13,2-1.5,4.3-2.07,6.5-.33,1.24-.29,2.57-.78,3.75-.29.69-.67,1.38-1.24,1.89-.96.85-2.23,1.42-3.49,1.8-1.37.43-2.87.58-4.31.52-1.39-.06-2.82-.26-4.07-.81-1.3-.59-2.6-1.41-3.39-2.55-.56-.8-.65-1.82-.81-2.78Z"/>
      <path class="cls-13" d="M388.02,87.68c-.32-1.88.15-3.86-.31-5.73-.52-2.09-1.63-4.04-2.73-5.92-1.34-2.27-3.58-4.03-4.68-6.41-1.38-2.98-2.4-6.29-2.26-9.54.15-3.3,1.2-6.69,3.11-9.44,2.08-3.01,5.25-5.39,8.62-7.03,2.54-1.23,5.48-1.91,8.33-1.88,3.42.04,6.88,1,9.91,2.51,2.5,1.26,4.74,3.11,6.45,5.24,1.69,2.11,3.01,4.6,3.54,7.2.68,3.3.48,6.86-.57,10.07-.95,2.91-3.14,5.33-5.01,7.81-1.29,1.7-3.19,2.97-4.23,4.8-1.14,1.99-1.51,4.3-2.08,6.5-.33,1.24-.29,2.57-.78,3.75-.29.69-.67,1.37-1.23,1.89-.97.85-2.23,1.41-3.49,1.8-1.38.43-2.87.57-4.32.52-1.38-.06-2.81-.26-4.06-.81-1.31-.59-2.6-1.41-3.39-2.55-.56-.8-.66-1.83-.82-2.78Z"/>
      <path class="cls-1" d="M389.81,97.06c.94.58,1.36,1.13,2.17,1.48,1.31.57,2.76.87,4.19.93,1.35.04,2.71-.18,3.99-.59.89-.28,1.73-.71,2.47-1.25.52-.38.81-.65,1.35-1.37.1-.14.28.13.31.26.08.41-.32.8-.59,1.13-.48.58-1.09,1.07-1.77,1.43-.9.47-1.91.74-2.92.87-1.81.22-3.69.21-5.46-.21-1.03-.23-2.02-.67-2.88-1.27-.36-.25-.6-.47-.9-.93-.11-.17-.15-.59.04-.48Z"/>
      <path class="cls-3" d="M407.11,82.02l-1.65-.89c-2.68-1.46-5.57-3.03-6.96-3.16-4.28-.38-8.08-.24-11.73.35l-.45.1-1.33-2.41c-1.33-2.27-3.58-4.03-4.68-6.41-1.37-2.98-2.39-6.29-2.25-9.54.07-1.65.38-3.32.89-4.92l.62-1.54-.3,2.52c-.36,4.73.33,8.87,4.92,11.74,10.76,6.72,29.39,4.46,33.53-6.54.13-.35.27-.65.39-.9l.26-.41v1.72c-.09,1.7-.4,3.4-.92,5-.96,2.91-3.15,5.34-5.02,7.82-1.28,1.69-3.18,2.96-4.23,4.79-.28.5-.52,1.02-.72,1.55l-.37,1.13Z"/>
      <path class="cls-3" d="M392.76,48.88c5.29-2.29,11.19-.84,14.42,1.69.32.25.48.71.88.83l2.01.63-2.49,5.71c-6.79.01-11.73-1.57-15.51-4.13l.28-.78.41-3.95Z"/>
      <path class="cls-10" d="M396.31,93.8c-1.39-.06-2.82-.26-4.07-.81-1.3-.59-2.6-1.41-3.39-2.55-.56-.8-.65-1.82-.81-2.78-.25-1.41-.04-2.88-.12-4.31l-.03-.26,1.25.81c5.39,2.91,11.39,2.87,16.79.81l.54-.24-.34,1.37c-.33,1.24-.29,2.57-.78,3.75-.29.69-.67,1.38-1.24,1.89-.96.85-2.23,1.42-3.49,1.8-1.37.43-2.87.58-4.31.52Z"/>
      <path class="cls-8" d="M396.83,100.77c-1.43.02-2.89-.27-4.21-.92-.97-.48-1.83-1.29-2.59-2.17-.42-.49-.84-1.03-1.06-1.68-.15-.45-.08-.96-.13-1.46-.02-.25-.03-.52-.08-.79-.09-.4-.38-.76-.37-1.19,0-.4.37-.73.36-1.15.01-.39-.37-.71-.36-1.12s.38-.72.41-1.13c.02-.31-.19-.61-.17-.92.01-.14.02-.29.07-.43l.05-.09.1.22c.79,1.42,2.09,2.43,3.39,3.16,1.25.69,2.68.94,4.07,1.01,1.44.07,2.94-.11,4.31-.64,1.26-.48,2.53-1.18,3.49-2.25.29-.32.52-.69.72-1.08l.16-.37.09.11c.06.26-.11.53-.11.79-.01.42.16.83.14,1.25-.03.36-.26.69-.26,1.06,0,.39.27.76.26,1.16-.02.33-.28.61-.31.95-.03.24.08.48.07.72,0,.41-.04.83-.14,1.22-.18.7-.41,1.41-.81,1.99-.76,1.13-1.78,2.09-2.89,2.71-1.3.71-2.77,1.02-4.2,1.04Z"/>
      <path class="cls-11" d="M402.01,99.82c-.27.16-.53.3-.82.42-1.3.58-2.79.83-4.23.85s-2.91-.22-4.23-.75c-.99-.39-1.85-1.05-2.61-1.75-.43-.4-.85-.84-1.07-1.36-.15-.37-.09-.78-.13-1.18-.03-.21-.03-.43-.08-.64-.09-.33-.39-.62-.38-.96,0-.33.37-.6.37-.93s-.37-.59-.36-.91c0-.33.37-.58.41-.92.02-.25-.19-.49-.17-.74.01-.11.02-.24.07-.35l.05-.06-.09-.15c-.1-.18-.18-.38-.25-.58l-.1-.4-.02-.05-.02-.07-.02-.1c-.09-.43-.15-.86-.22-1.28-.08-.47-.11-.95-.12-1.44v-.61s0-.11,0-.11c0-.73.04-1.46,0-2.17l-.04-.27h.01s-.04-.45-.04-.45c-.03-.24-.08-.47-.13-.71-.53-2.11-1.64-4.07-2.76-5.95-1.34-2.28-3.6-4.06-4.71-6.45-.35-.74-.67-1.52-.96-2.3l-.23-.75-.18-.44-.21-.79-.13-.41-.04-.22-.1-.39c-.14-.61-.25-1.22-.32-1.83-.1-.82-.14-1.64-.1-2.46.03-.83.13-1.66.27-2.49l.57-2.22.06-.24c.52-1.62,1.27-3.16,2.23-4.55,1.57-2.26,3.75-4.17,6.18-5.68.81-.51,1.65-.96,2.5-1.38,2.56-1.23,5.52-1.92,8.39-1.89,3.44.05,6.93,1.01,9.98,2.53,2.52,1.26,4.78,3.12,6.5,5.27,1.7,2.12,3.03,4.63,3.57,7.23.16.84.28,1.68.35,2.53v.84h0v1.19s0,.54,0,.54c-.09,1.71-.41,3.41-.94,5.03l-.53,1.22h0s-.13.27-.13.27l-.27.62-.02.03-1.23,1.95-.49.65-.21.3c-.71.95-1.46,1.88-2.17,2.81-.64.85-1.44,1.6-2.22,2.36-.77.76-1.51,1.55-2.04,2.47-1.14,2-1.51,4.32-2.09,6.53-.17.62-.24,1.26-.33,1.9s-.21,1.27-.46,1.87c-.06.17-.15.35-.23.52l-.12.21.08.08c.07.21-.11.43-.11.64,0,.34.17.67.14,1-.03.3-.25.57-.26.87,0,.32.28.61.27.93-.02.27-.29.49-.32.77-.03.2.08.39.08.59,0,.33-.04.67-.14.98-.19.57-.42,1.14-.82,1.61-.58.69-1.3,1.3-2.1,1.77ZM405.03,90.86l.16-.28h-.01s-.15.28-.15.28ZM388.93,90.7l-.1-.17h0s.1.17.1.17Z"/>
      <path class="cls-3" d="M415.71,67.94l-.02-.1c-.27-1.75-.14-5.03-.34-5.7-1.07-3.59-4.38-6.44-7.13-9.03-7.26-6.83-20.23-1-24.66,5.25-.7.99-2.19,5-3.4,6.81h-.01v-.06c-.39-1.51-.59-3.05-.53-4.58.13-3.1,1.11-6.29,2.89-8.88,1.93-2.82,4.87-5.07,8-6.6,2.36-1.16,5.09-1.81,7.74-1.77,3.18.04,6.39.94,9.2,2.36,2.33,1.18,4.42,2.92,6,4.93,1.57,1.98,2.8,4.32,3.29,6.76.63,3.11.45,6.46-.53,9.48l-.5,1.13Z"/>
    </g>
  </g>
</svg>