<?xml version="1.0" encoding="UTF-8"?>
<svg xmlns="http://www.w3.org/2000/svg" viewBox="0 0 75 75">
  <defs>
    <style>
      .cls-1 {
        opacity: 0;
        stroke-linecap: round;
      }

      .cls-1, .cls-2 {
        stroke: #231f20;
      }

      .cls-1, .cls-2, .cls-3, .cls-4 {
        fill: none;
      }

      .cls-1, .cls-5 {
        stroke-linejoin: round;
      }

      .cls-6 {
        fill: #bdc9fa;
      }

      .cls-6, .cls-2, .cls-5, .cls-7, .cls-8, .cls-4 {
        fill-rule: evenodd;
      }

      .cls-2, .cls-5, .cls-3, .cls-4 {
        stroke-width: 3.1px;
      }

      .cls-2, .cls-3, .cls-4 {
        stroke-miterlimit: 10;
      }

      .cls-5 {
        fill: #c4c4c4;
      }

      .cls-5, .cls-4 {
        stroke: #000;
      }

      .cls-7 {
        fill: #2e4ab5;
      }

      .cls-8 {
        fill: #6380fa;
      }

      .cls-3 {
        stroke: #c4c4c4;
      }
    </style>
  </defs>
  <g id="KEEP_ON_FOR_EXPORT" data-name="KEEP ON FOR EXPORT">
    <line class="cls-1" x1="-.35" y1=".35" x2=".35" y2="-.35"/>
    <line class="cls-1" x1="74.65" y1="75.35" x2="75.35" y2="74.65"/>
  </g>
  <g id="ICON">
    <polyline class="cls-4" points="64.06 18.82 64.06 70.39 12.51 70.39"/>
    <line class="cls-3" x1="10.94" y1="36.01" x2="60.94" y2="36.01"/>
    <line class="cls-3" x1="44.54" y1="4.76" x2="44.54" y2="36.01"/>
    <line class="cls-3" x1="25" y1="36.01" x2="25" y2="67.26"/>
    <polygon class="cls-2" points="10.94 4.76 10.94 67.26 60.94 67.26 60.94 14.14 51.56 4.76 10.94 4.76"/>
    <polygon class="cls-5" points="51.56 4.76 51.56 14.14 60.94 14.14 51.56 4.76"/>
    <g>
      <polygon class="cls-8" points="16.62 28.44 28.69 32.25 28.69 19.54 16.62 15.73 16.62 28.44"/>
      <polygon class="cls-6" points="16.62 15.73 28.69 19.54 36.95 13.19 24.88 9.38 16.62 15.73"/>
      <polygon class="cls-7" points="28.69 19.54 28.69 32.25 36.95 25.9 36.95 13.19 28.69 19.54"/>
      <polygon class="cls-2" points="16.62 15.73 16.62 28.44 28.69 32.25 36.95 25.9 36.95 13.19 24.88 9.38 16.62 15.73"/>
    </g>
    <g>
      <polygon class="cls-8" points="34.38 58.69 46.45 62.5 46.45 49.79 34.38 45.98 34.38 58.69"/>
      <polygon class="cls-6" points="34.38 45.98 46.45 49.79 54.71 43.44 42.64 39.63 34.38 45.98"/>
      <polygon class="cls-7" points="46.45 49.79 46.45 62.5 54.71 56.15 54.71 43.44 46.45 49.79"/>
      <polygon class="cls-2" points="34.38 45.98 34.38 58.69 46.45 62.5 54.71 56.15 54.71 43.44 42.64 39.63 34.38 45.98"/>
    </g>
  </g>
</svg>