<?xml version="1.0" encoding="UTF-8"?>
<svg xmlns="http://www.w3.org/2000/svg" viewBox="0 0 528.9 324.25">
  <defs>
    <style>
      .cls-1 {
        fill: #fff;
        stroke: #292929;
        stroke-width: 3.15px;
      }

      .cls-1, .cls-2, .cls-3, .cls-4 {
        stroke-miterlimit: 10;
      }

      .cls-5 {
        stroke: #0f4f00;
      }

      .cls-5, .cls-6 {
        stroke-linejoin: round;
      }

      .cls-5, .cls-6, .cls-2, .cls-3, .cls-4, .cls-7 {
        fill: none;
      }

      .cls-5, .cls-8, .cls-2, .cls-3, .cls-4, .cls-9, .cls-10, .cls-11 {
        fill-rule: evenodd;
      }

      .cls-5, .cls-2, .cls-3 {
        stroke-width: 2px;
      }

      .cls-6 {
        opacity: 0;
        stroke-linecap: round;
      }

      .cls-6, .cls-2, .cls-4 {
        stroke: #231f20;
      }

      .cls-8 {
        fill: #bdc9fa;
      }

      .cls-3 {
        stroke: #004545;
      }

      .cls-12 {
        fill: #ccfa6b;
      }

      .cls-4 {
        stroke-width: 3.1px;
      }

      .cls-9 {
        fill: #2e4ab5;
      }

      .cls-10 {
        fill: #6380fa;
      }

      .cls-13 {
        fill: #59ffa8;
      }
    </style>
  </defs>
  <g id="KEEP_ON_FOR_EXPORT">
    <line class="cls-6" x1="373" y1="37.57" x2="373.71" y2="36.86"/>
    <line class="cls-6" x1="448" y1="112.57" x2="448.71" y2="111.86"/>
  </g>
  <g id="ICON">
    <rect class="cls-1" x="380.91" y="44.51" width="34.88" height="33.14"/>
    <rect class="cls-12" x="393.58" y="46.03" width="9.94" height="29.94"/>
    <rect class="cls-13" x="403.52" y="46.03" width="10.61" height="29.94"/>
    <polygon class="cls-11" points="385.28 75.03 390.51 75.03 390.51 73.29 388.76 73.29 388.76 62.82 387.02 62.82 387.02 64.57 385.28 64.57 385.28 66.31 387.02 66.31 387.02 73.29 385.28 73.29 385.28 75.03"/>
    <path class="cls-3" d="M405.33,66.31c0-1.44,1.18-2.62,2.62-2.62h1.75c1.45,0,2.62,1.17,2.61,2.62,0,1.43-1.18,2.61-2.61,2.61,1.45,0,2.61,1.17,2.61,2.62s-1.18,2.62-2.61,2.62h-1.75c-1.45,0-2.62-1.17-2.62-2.62"/>
    <path class="cls-5" d="M394.86,66.31c0-1.45,1.17-2.62,2.62-2.62h1.75c1.43,0,2.61,1.18,2.61,2.62,0,.74-.31,1.4-.8,1.88l-6.18,5.97h7.85"/>
    <rect class="cls-7" x="381.79" y="45.38" width="33.14" height="31.4"/>
    <path class="cls-2" d="M384.55,53.65h4.62c1.52,0,2.77-1.24,2.77-2.77s-1.24-2.77-2.77-2.77h-4.62v12"/>
    <path class="cls-2" d="M394.85,53.65h4.62c1.52,0,2.77-1.24,2.77-2.77s-1.24-2.77-2.77-2.77h-4.62v12"/>
    <path class="cls-2" d="M405.8,53.65h4.62c1.52,0,2.77-1.24,2.77-2.77s-1.24-2.77-2.77-2.77h-4.62v12"/>
    <polygon class="cls-10" points="382.3 102.98 395.69 107.21 395.69 93.11 382.3 88.88 382.3 102.98"/>
    <polygon class="cls-8" points="382.3 88.88 395.69 93.11 404.85 86.06 391.46 81.83 382.3 88.88"/>
    <polygon class="cls-9" points="395.69 93.11 395.69 107.21 404.85 100.16 404.85 86.06 395.69 93.11"/>
    <polygon class="cls-4" points="382.3 88.88 382.3 102.98 395.69 107.21 404.85 100.16 404.85 86.06 391.46 81.83 382.3 88.88"/>
    <polygon class="cls-10" points="421.46 102.98 434.84 107.21 434.84 93.11 421.46 88.88 421.46 102.98"/>
    <polygon class="cls-8" points="421.46 88.88 434.84 93.11 444.01 86.06 430.62 81.83 421.46 88.88"/>
    <polygon class="cls-9" points="434.84 93.11 434.84 107.21 444.01 100.16 444.01 86.06 434.84 93.11"/>
    <polygon class="cls-4" points="421.46 88.88 421.46 102.98 434.84 107.21 444.01 100.16 444.01 86.06 430.62 81.83 421.46 88.88"/>
    <polygon class="cls-10" points="421.46 65.65 434.84 69.87 434.84 55.78 421.46 51.55 421.46 65.65"/>
    <polygon class="cls-8" points="421.46 51.55 434.84 55.78 444.01 48.73 430.62 44.5 421.46 51.55"/>
    <polygon class="cls-9" points="434.84 55.78 434.84 69.87 444.01 62.83 444.01 48.73 434.84 55.78"/>
    <polygon class="cls-4" points="421.46 51.55 421.46 65.65 434.84 69.87 444.01 62.83 444.01 48.73 430.62 44.5 421.46 51.55"/>
  </g>
</svg>