<?xml version="1.0" encoding="UTF-8" standalone="no"?>
<svg
   viewBox="0 0 48 48"
   version="1.1"
   id="svg76"
   sodipodi:docname="12-APEX_Layout_Graph.svg"
   inkscape:version="1.3-dev (e30a5ffc, 2022-05-30)"
   xmlns:inkscape="http://www.inkscape.org/namespaces/inkscape"
   xmlns:sodipodi="http://sodipodi.sourceforge.net/DTD/sodipodi-0.dtd"
   xmlns:xlink="http://www.w3.org/1999/xlink"
   xmlns="http://www.w3.org/2000/svg"
   xmlns:svg="http://www.w3.org/2000/svg">
  <sodipodi:namedview
     id="namedview76"
     pagecolor="#ffffff"
     bordercolor="#000000"
     borderopacity="0.25"
     inkscape:showpageshadow="2"
     inkscape:pageopacity="0.0"
     inkscape:pagecheckerboard="0"
     inkscape:deskcolor="#d1d1d1"
     showgrid="false"
     inkscape:zoom="19.666667"
     inkscape:cx="23.059322"
     inkscape:cy="23.974576"
     inkscape:current-layer="svg76" />
  <defs
     id="defs14">
    <linearGradient
       inkscape:collect="always"
       id="linearGradient85">
      <stop
         style="stop-color:#000000;stop-opacity:0.49685535;"
         offset="0"
         id="stop84" />
      <stop
         style="stop-color:#000000;stop-opacity:0;"
         offset="1"
         id="stop85" />
    </linearGradient>
    <style
       id="style1">.cls-1{isolation:isolate;}.cls-2{fill:url(#radial-gradient);}.cls-3{fill:#8ae234;}.cls-10,.cls-15,.cls-16,.cls-20,.cls-22,.cls-24,.cls-4,.cls-43,.cls-44,.cls-48,.cls-49,.cls-50,.cls-51{fill:none;}.cls-4{stroke:#4e9a06;stroke-width:1.4px;}.cls-10,.cls-15,.cls-16,.cls-20,.cls-22,.cls-24,.cls-4,.cls-43,.cls-44,.cls-48,.cls-49,.cls-50,.cls-51,.cls-8{stroke-miterlimit:10;}.cls-5,.cls-8{fill:#b8bbb4;}.cls-14,.cls-19,.cls-21,.cls-23,.cls-25,.cls-39,.cls-40,.cls-41,.cls-42,.cls-45,.cls-46,.cls-47,.cls-6,.cls-7,.cls-9{mix-blend-mode:multiply;}.cls-13,.cls-14,.cls-19,.cls-21,.cls-23,.cls-25,.cls-26,.cls-27,.cls-28,.cls-31,.cls-32,.cls-33,.cls-34,.cls-35,.cls-36,.cls-37,.cls-38,.cls-39,.cls-40,.cls-41,.cls-42,.cls-45,.cls-46,.cls-47,.cls-6,.cls-7,.cls-9{opacity:0.7;}.cls-6{fill:url(#linear-gradient);}.cls-7{fill:url(#linear-gradient-2);}.cls-15,.cls-16,.cls-8{stroke:#555753;}.cls-15,.cls-8{stroke-width:0.7px;}.cls-9{fill:url(#linear-gradient-3);}.cls-10{stroke:url(#linear-gradient-5);}.cls-11{fill:url(#linear-gradient-6);}.cls-12{fill:url(#linear-gradient-7);}.cls-13{fill:url(#linear-gradient-8);}.cls-14{fill:url(#linear-gradient-9);}.cls-16{stroke-width:0.5px;}.cls-17{fill:#555753;}.cls-18{fill:#4e9806;}.cls-19{fill:url(#linear-gradient-10);}.cls-20,.cls-44,.cls-51{stroke:#8ae234;}.cls-20{stroke-width:1.2px;}.cls-21{fill:url(#linear-gradient-11);}.cls-22{stroke:url(#linear-gradient-12);}.cls-23{fill:url(#linear-gradient-13);}.cls-24{stroke:url(#linear-gradient-14);}.cls-25{fill:url(#linear-gradient-15);}.cls-26{fill:url(#linear-gradient-16);}.cls-27{fill:url(#linear-gradient-17);}.cls-28{fill:url(#linear-gradient-18);}.cls-29{fill:#fce94f;}.cls-30{fill:url(#linear-gradient-19);}.cls-31{fill:url(#linear-gradient-20);}.cls-32{fill:url(#linear-gradient-21);}.cls-33{fill:url(#linear-gradient-22);}.cls-34{fill:url(#linear-gradient-23);}.cls-35{fill:url(#linear-gradient-24);}.cls-36{fill:url(#linear-gradient-25);}.cls-37{fill:url(#linear-gradient-26);}.cls-38{fill:url(#linear-gradient-27);}.cls-39{fill:url(#linear-gradient-28);}.cls-40{fill:url(#linear-gradient-29);}.cls-41{fill:url(#linear-gradient-30);}.cls-42{fill:url(#linear-gradient-31);}.cls-43{stroke:url(#linear-gradient-32);}.cls-45{fill:url(#linear-gradient-33);}.cls-46{fill:url(#linear-gradient-34);}.cls-47{fill:url(#linear-gradient-35);}.cls-48{stroke:url(#linear-gradient-36);}.cls-49{stroke:url(#linear-gradient-37);}.cls-50{stroke:url(#linear-gradient-38);}.cls-51{stroke-dasharray:1.31 1.31;}.cls-52{fill:#4e9a06;}</style>
    <radialGradient
       id="radial-gradient"
       cx="-46.25"
       cy="-14.33"
       r="21.09"
       gradientTransform="matrix(1.02,0,0,-0.25,71.36,38.76)"
       gradientUnits="userSpaceOnUse">
      <stop
         offset="0"
         stop-opacity="0.4"
         id="stop1" />
      <stop
         offset="1"
         stop-opacity="0"
         id="stop2" />
    </radialGradient>
    <linearGradient
       id="linear-gradient"
       x1="38.8"
       y1="23.14"
       x2="32.23"
       y2="29.42"
       gradientUnits="userSpaceOnUse">
      <stop
         offset="0"
         stop-color="#eeeeec"
         id="stop3" />
      <stop
         offset="1"
         stop-color="#555753"
         id="stop4" />
    </linearGradient>
    <linearGradient
       id="linear-gradient-2"
       x1="37.64"
       y1="25.17"
       x2="32.75"
       y2="28.43"
       xlink:href="#linear-gradient"
       gradientTransform="matrix(1.0995938,0,0,1.0993791,-3.9034535,-2.7828414)" />
    <linearGradient
       id="linear-gradient-3"
       x1="25.47"
       y1="36.72"
       x2="32.93"
       y2="30.14"
       xlink:href="#linear-gradient"
       gradientTransform="matrix(1.0995938,0,0,1.0993791,-3.9034535,-2.7828414)" />
    <linearGradient
       id="linear-gradient-5"
       x1="25.46"
       y1="32.13"
       x2="30.85"
       y2="32.13"
       gradientUnits="userSpaceOnUse">
      <stop
         offset="0.32"
         stop-color="#8ae234"
         id="stop5" />
      <stop
         offset="0.8"
         stop-color="#8ae234"
         stop-opacity="0"
         id="stop6" />
    </linearGradient>
    <linearGradient
       id="linear-gradient-6"
       x1="31.48"
       y1="40.5"
       x2="30.34"
       y2="39.16"
       gradientUnits="userSpaceOnUse">
      <stop
         offset="0"
         stop-color="#fff"
         stop-opacity="0"
         id="stop7" />
      <stop
         offset="1"
         stop-color="snow"
         id="stop8" />
    </linearGradient>
    <linearGradient
       id="linear-gradient-7"
       x1="28.57"
       y1="39.92"
       x2="27.45"
       y2="38.6"
       gradientTransform="matrix(1.0995938,0.08795033,-0.0879675,1.0993791,-0.38475328,-5.113525)"
       xlink:href="#linear-gradient-6" />
    <linearGradient
       id="linear-gradient-8"
       x1="27.26"
       y1="38.12"
       x2="26.21"
       y2="36.87"
       xlink:href="#linear-gradient-6"
       gradientTransform="matrix(1.0995938,0,0,1.0993791,-3.9034535,-2.7828414)" />
    <linearGradient
       id="linear-gradient-9"
       x1="28.64"
       y1="33.67"
       x2="34.7"
       y2="29.57"
       xlink:href="#linear-gradient"
       gradientTransform="matrix(1.0995938,0,0,1.0993791,-3.9034535,-2.7828414)" />
    <linearGradient
       id="linear-gradient-10"
       x1="16.71"
       y1="20.35"
       x2="34.12"
       y2="40.72"
       xlink:href="#linear-gradient"
       gradientTransform="matrix(1.0995938,0,0,1.0993791,-3.9034535,-2.7828414)" />
    <linearGradient
       id="linear-gradient-11"
       x1="18.02"
       y1="27.75"
       x2="29.46"
       y2="41.13"
       xlink:href="#linear-gradient"
       gradientTransform="matrix(1.0995938,0,0,1.0993791,-3.9034535,-2.7828414)" />
    <linearGradient
       id="linear-gradient-12"
       x1="21.44"
       y1="8.8"
       x2="21.44"
       y2="21.8"
       gradientUnits="userSpaceOnUse">
      <stop
         offset="0.03"
         stop-color="#8ae234"
         stop-opacity="0"
         id="stop9" />
      <stop
         offset="0.2"
         stop-color="#8ae234"
         id="stop10" />
    </linearGradient>
    <linearGradient
       id="linear-gradient-13"
       x1="17.75"
       y1="16.66"
       x2="4.96"
       y2="23.73"
       xlink:href="#linear-gradient"
       gradientTransform="matrix(1.0995938,0,0,1.0993791,-3.9034535,-2.7828414)" />
    <linearGradient
       id="linear-gradient-14"
       x1="12.91"
       y1="15.37"
       x2="15.91"
       y2="18.36"
       gradientUnits="userSpaceOnUse"
       gradientTransform="matrix(1.0995938,0,0,1.0993791,-3.9034535,-2.7828414)">
      <stop
         offset="0.5"
         stop-color="#8ae234"
         id="stop11" />
      <stop
         offset="0.89"
         stop-color="#8ae234"
         stop-opacity="0"
         id="stop12" />
    </linearGradient>
    <linearGradient
       id="linear-gradient-15"
       x1="18.17"
       y1="7.32"
       x2="18.24"
       y2="9.6"
       xlink:href="#linear-gradient"
       gradientTransform="matrix(1.0995938,0,0,1.0993791,-3.9034535,-2.7828414)" />
    <linearGradient
       id="linear-gradient-16"
       x1="29.82"
       y1="14.61"
       x2="31.27"
       y2="10.46"
       xlink:href="#linear-gradient-6"
       gradientTransform="matrix(1.0995938,0,0,1.0993791,-3.9034535,-2.7828414)" />
    <linearGradient
       id="linear-gradient-17"
       x1="18.54"
       y1="10"
       x2="22.63"
       y2="4.46"
       xlink:href="#linear-gradient-6"
       gradientTransform="matrix(1.0995938,0,0,1.0993791,-3.9034535,-2.7828414)" />
    <linearGradient
       id="linear-gradient-18"
       x1="10.28"
       y1="13.58"
       x2="17.55"
       y2="13.58"
       xlink:href="#linear-gradient-6"
       gradientTransform="matrix(1.0995938,0,0,1.0993791,-3.9034535,-2.7828414)" />
    <linearGradient
       id="linear-gradient-19"
       x1="17.11"
       y1="43.93"
       x2="16.67"
       y2="41.95"
       xlink:href="#linear-gradient-6"
       gradientTransform="matrix(1.0995938,0,0,1.0993791,-3.9034535,-2.7828414)" />
    <linearGradient
       id="linear-gradient-20"
       x1="13.83"
       y1="42.29"
       x2="13.36"
       y2="40.18"
       xlink:href="#linear-gradient-6"
       gradientTransform="matrix(1.0995938,0,0,1.0993791,-3.9034535,-2.7828414)" />
    <linearGradient
       id="linear-gradient-21"
       x1="12.85"
       y1="39.32"
       x2="13.04"
       y2="38.11"
       xlink:href="#linear-gradient-6"
       gradientTransform="matrix(1.0995938,0,0,1.0993791,-3.9034535,-2.7828414)" />
    <linearGradient
       id="linear-gradient-22"
       x1="38.71"
       y1="23.92"
       x2="37.53"
       y2="23.92"
       xlink:href="#linear-gradient-6"
       gradientTransform="matrix(1.0995938,0,0,1.0993791,-3.9034535,-2.7828414)" />
    <linearGradient
       id="linear-gradient-23"
       x1="34.98"
       y1="25.04"
       x2="33.65"
       y2="24.55"
       xlink:href="#linear-gradient-6"
       gradientTransform="matrix(1.0995938,0,0,1.0993791,-3.9034535,-2.7828414)" />
    <linearGradient
       id="linear-gradient-24"
       x1="31.6"
       y1="23.32"
       x2="30.68"
       y2="22.71"
       xlink:href="#linear-gradient-6"
       gradientTransform="matrix(1.0995938,0,0,1.0993791,-3.9034535,-2.7828414)" />
    <linearGradient
       id="linear-gradient-25"
       x1="16.43"
       y1="21.87"
       x2="16.98"
       y2="20.81"
       xlink:href="#linear-gradient-6"
       gradientTransform="matrix(1.0995938,0,0,1.0993791,-3.9034535,-2.7828414)" />
    <linearGradient
       id="linear-gradient-26"
       x1="11.33"
       y1="26.06"
       x2="12.43"
       y2="24.3"
       xlink:href="#linear-gradient-6"
       gradientTransform="matrix(1.0995938,0,0,1.0993791,-3.9034535,-2.7828414)" />
    <linearGradient
       id="linear-gradient-27"
       x1="14.11"
       y1="24.59"
       x2="15.39"
       y2="22.54"
       gradientTransform="matrix(1.095103,-0.09925738,0.09927677,1.0948891,-6.124633,-1.2107293)"
       xlink:href="#linear-gradient-6" />
    <linearGradient
       id="linear-gradient-28"
       x1="21.17"
       y1="30.2"
       x2="24.97"
       y2="32.13"
       xlink:href="#linear-gradient" />
    <linearGradient
       id="linear-gradient-29"
       x1="34.06"
       y1="16.97"
       x2="31.53"
       y2="18.14"
       xlink:href="#linear-gradient"
       gradientTransform="matrix(1.0995938,0,0,1.0993791,-3.9034535,-2.7828414)" />
    <linearGradient
       id="linear-gradient-30"
       x1="23.83"
       y1="13"
       x2="24.66"
       y2="20.19"
       xlink:href="#linear-gradient"
       gradientTransform="matrix(1.0995938,0,0,1.0993791,-3.9034535,-2.7828414)" />
    <linearGradient
       id="linear-gradient-31"
       x1="21.72"
       y1="19.98"
       x2="18.59"
       y2="21.44"
       xlink:href="#linear-gradient"
       gradientTransform="matrix(1.0995938,0,0,1.0993791,-3.9034535,-2.7828414)" />
    <linearGradient
       id="linear-gradient-32"
       x1="21.42"
       y1="26.23"
       x2="26.08"
       y2="26.23"
       gradientUnits="userSpaceOnUse"
       gradientTransform="matrix(1.0995938,0,0,1.0993791,-3.9034535,-2.7828414)">
      <stop
         offset="0.22"
         stop-color="#8ae234"
         id="stop13" />
      <stop
         offset="0.8"
         stop-color="#8ae234"
         stop-opacity="0"
         id="stop14" />
    </linearGradient>
    <linearGradient
       id="linear-gradient-33"
       x1="21.4"
       y1="11.4"
       x2="18.38"
       y2="10.78"
       xlink:href="#linear-gradient"
       gradientTransform="matrix(1.0995938,0,0,1.0993791,-3.9034535,-2.7828414)" />
    <linearGradient
       id="linear-gradient-34"
       x1="13.78"
       y1="14.21"
       x2="15.09"
       y2="16.24"
       xlink:href="#linear-gradient"
       gradientTransform="matrix(1.0995938,0,0,1.0993791,-3.9034535,-2.7828414)" />
    <linearGradient
       id="linear-gradient-35"
       x1="12.07"
       y1="19.31"
       x2="8.35"
       y2="21.33"
       xlink:href="#linear-gradient"
       gradientTransform="matrix(1.0995938,0,0,1.0993791,-3.9034535,-2.7828414)" />
    <linearGradient
       id="linear-gradient-36"
       x1="21.03"
       y1="21.62"
       x2="26.62"
       y2="21.62"
       xlink:href="#linear-gradient-12"
       gradientTransform="matrix(1.0995938,0,0,1.0993791,-3.9034535,-2.7828414)" />
    <linearGradient
       id="linear-gradient-37"
       x1="20.86"
       y1="26.09"
       x2="26.86"
       y2="26.09"
       xlink:href="#linear-gradient-12"
       gradientTransform="matrix(1.0995938,0,0,1.0993791,-3.9034535,-2.7828414)" />
    <linearGradient
       id="linear-gradient-38"
       x1="20.08"
       y1="30.08"
       x2="20.08"
       y2="39.83"
       xlink:href="#linear-gradient-5"
       gradientTransform="matrix(1.0995938,0,0,1.0993791,-3.9034535,-2.7828414)" />
    <linearGradient
       inkscape:collect="always"
       xlink:href="#linear-gradient"
       id="linearGradient80"
       gradientUnits="userSpaceOnUse"
       x1="38.8"
       y1="23.14"
       x2="32.23"
       y2="29.42"
       gradientTransform="matrix(1.0995938,0,0,1.0993791,-3.9034535,-2.7828414)" />
    <linearGradient
       inkscape:collect="always"
       xlink:href="#linear-gradient"
       id="linearGradient81"
       x1="25.47"
       y1="36.72"
       x2="32.93"
       y2="30.14"
       gradientTransform="matrix(1.0995938,0,0,1.0993791,-3.9034535,-2.7828414)" />
    <linearGradient
       inkscape:collect="always"
       xlink:href="#linear-gradient-5"
       id="linearGradient82"
       gradientUnits="userSpaceOnUse"
       x1="25.46"
       y1="32.13"
       x2="30.85"
       y2="32.13"
       gradientTransform="matrix(1.0995938,0,0,1.0993791,-3.9034535,-2.7828414)" />
    <linearGradient
       inkscape:collect="always"
       xlink:href="#linear-gradient-6"
       id="linearGradient83"
       gradientUnits="userSpaceOnUse"
       x1="31.48"
       y1="40.5"
       x2="30.34"
       y2="39.16"
       gradientTransform="matrix(1.0995938,0,0,1.0993791,-3.9034535,-2.7828414)" />
    <linearGradient
       inkscape:collect="always"
       xlink:href="#linear-gradient-12"
       id="linearGradient84"
       gradientUnits="userSpaceOnUse"
       x1="21.44"
       y1="8.8"
       x2="21.44"
       y2="21.8"
       gradientTransform="matrix(1.0995938,0,0,1.0993791,-3.9034535,-2.7828414)" />
    <radialGradient
       inkscape:collect="always"
       xlink:href="#linearGradient85"
       id="radialGradient85"
       cx="24.1"
       cy="42.335"
       fx="24.1"
       fy="42.335"
       r="21.55"
       gradientTransform="matrix(1,0,0,0.24431555,0,31.991901)"
       gradientUnits="userSpaceOnUse" />
  </defs>
  <path
     id="ellipse4139"
     class="cls-2"
     d="m 45.65,42.34 c 0,2.9 -9.64,5.26 -21.55,5.26 v 0 c -11.9,0 -21.55,-2.36 -21.55,-5.26 0,-2.9 9.65,-5.27 21.55,-5.27 v 0 c 11.91,0 21.55,2.36 21.55,5.27 z"
     style="isolation:isolate;fill:url(#radialGradient85);fill-opacity:1" />
  <path
     id="polygon14"
     style="isolation:isolate;fill:#8ae234;stroke-width:0.999996"
     class="cls-3"
     d="m 43.478044,13.037223 -0.197927,3.408075 -2.836952,-0.450746 0.868679,-3.309131 1.088598,0.175902 z" />
  <path
     id="polygon15"
     style="isolation:isolate;fill:none;stroke:#4e9a06;stroke-width:1.4px;stroke-miterlimit:10"
     class="cls-4"
     d="m 43.478044,13.037223 -0.197927,3.408075 -2.836952,-0.450746 0.868679,-3.309131 1.088598,0.175902 z" />
  <path
     class="cls-5"
     d="m 25.455701,18.281261 c 0,0 0.714736,-1.099379 3.5187,-1.462174 2.803965,-0.362795 6.377644,1.473168 7.763133,7.101989 1.385488,5.62882 2.342135,8.882983 3.672643,9.45466 a 2.3971145,2.3966464 0 0 0 2.968904,-0.824535 5.3880097,5.3869573 0 0 0 0.07697,-1.473168 c 0,0 0.945651,0.373789 0.824696,2.198758 -0.120956,1.824969 -0.450834,2.198758 -3.298782,2.561553 -2.847948,0.362796 -4.563314,-2.429628 -6.399636,-7.62969 -1.836322,-5.200063 -2.199188,-7.200933 -4.750245,-7.695653 -2.551059,-0.494721 -4.002522,4.397516 -4.002522,4.397516 z"
     id="path15"
     style="isolation:isolate;stroke-width:0.999996" />
  <path
     class="cls-6"
     d="m 25.455701,18.281261 c 0,0 0.714736,-1.099379 3.5187,-1.462174 2.803965,-0.362795 6.377644,1.473168 7.763133,7.101989 1.385488,5.62882 2.342135,8.882983 3.672643,9.45466 a 2.3971145,2.3966464 0 0 0 2.968904,-0.824535 5.3880097,5.3869573 0 0 0 0.07697,-1.473168 c 0,0 0.945651,0.373789 0.824696,2.198758 -0.120956,1.824969 -0.450834,2.198758 -3.298782,2.561553 -2.847948,0.362796 -4.563314,-2.429628 -6.399636,-7.62969 -1.836322,-5.200063 -2.199188,-7.200933 -4.750245,-7.695653 -2.551059,-0.494721 -4.002522,4.397516 -4.002522,4.397516 z"
     id="path16"
     style="isolation:isolate;fill:url(#linearGradient80);stroke-width:0.999996" />
  <path
     class="cls-7"
     d="m 29.30428,20.556976 a 2.1991877,2.1987581 0 0 0 -1.264533,0.791552 c -0.09896,-0.1759 -0.274899,-0.340807 -0.362867,-0.538695 -0.08796,-0.197888 -0.07697,-0.494721 -0.219918,-0.703603 -0.142947,-0.208882 -0.131951,-0.142919 -0.186931,-0.219876 a 1.0116263,1.0114287 0 0 1 -0.175935,-0.340807 l -0.46183,-1.099379 c 0,-0.07696 0,-0.197889 0,-0.219876 0,-0.02199 0.10996,0 0.142948,0.06597 0.03298,0.06597 0.252907,0.329813 0.395854,0.483727 a 0.76971568,0.76956534 0 0 0 0.527805,0.285838 l 0.241911,-1.04441 c 0,-0.06597 0.05498,-0.142919 0.120954,-0.153913 0.06598,-0.011 0.07697,0 0.10996,0.08795 0.208922,0.296832 0.395854,1.099379 0.736727,1.264286 0.340875,0.164907 0.527806,-0.230869 0.560794,-0.549689 0.03298,-0.318821 0.142947,-0.725591 0.450833,-0.736584 l 0.593781,1.231304 a 0.21991877,0.21987581 0 0 0 0.08796,0.109938 0.17593501,0.17590065 0 0 0 0.186931,-0.109938 3.9255499,3.9247833 0 0 0 0.252907,-0.626646 c 0.09896,-0.197888 0.274898,-0.395777 0.494817,-0.384783 0.219919,0.011 0.483821,0.384783 0.527805,0.703603 0.04398,0.31882 0.08797,0.692609 0.373862,0.835528 0.285894,0.142919 0.934655,-0.340807 1.40748,-0.230869 0.472826,0.109938 0.538801,0.747577 0.450833,1.22031 -0.08797,0.472733 -0.153942,0.945467 0.21992,1.099379 0.373861,0.153913 0.747723,-0.07696 0.94565,0.197889 a 0.6047766,0.60465848 0 0 1 0,0.417764 L 35.13212,24.81158 c 0,0.230869 0,0.538695 0.208922,0.593665 0.208924,0.05497 0.439838,-0.09894 0.494818,0.07695 a 0.25290658,0.25285718 0 0 1 0,0.197888 l -0.626769,1.154348 1.000631,-0.05497 a 0.37386191,0.37378888 0 0 1 0.219919,0 c 0.252906,0.120931 0.109959,0.527702 -0.131952,0.681615 -0.241911,0.153913 -0.549796,0.252857 -0.615772,0.527702 a 0.50581316,0.50571436 0 0 0 0.318882,0.549689 1.0336182,1.0334163 0 0 0 0.681748,0 0.42884159,0.42875783 0 0 1 0.285894,0 c 0.208924,0.09894 0.08797,0.450746 -0.120955,0.571678 -0.208923,0.120931 -0.472825,0.186894 -0.571788,0.395777 -0.09896,0.208881 0.109958,0.615651 0.406849,0.681615 a 1.4844517,1.4841617 0 0 0 0.87968,-0.175907 c 0.120955,0.516709 -0.736728,0.758572 -0.813699,1.27528 a 0.24191064,0.24186339 0 0 0 0,0.197888 0.36286597,0.36279509 0 0 0 0.208922,0.08795 1.9242892,1.9239133 0 0 0 0.615774,-0.05497 0.6047766,0.60465848 0 0 1 0.340873,0 c 0.197927,0.08795 0.186931,0.384783 0.08796,0.571677 a 1.3305085,1.3302486 0 0 0 -0.263903,0.582671 0.57178879,0.5716771 0 0 0 0.450834,0.527702 1.5174395,1.5171431 0 0 0 0.736727,0 1.6164029,1.6160872 0 0 0 -0.153943,0.835528 c 0,0.285838 0.318883,0.549689 0.593781,0.483727 0.274898,-0.06597 0.472825,-0.439752 0.769716,-0.417765 a 1.6164029,1.6160872 0 0 0 0.186931,0.604659 0.5168091,0.51670815 0 0 0 0.538801,0.23087 c 0.35187,-0.09894 0.472825,-0.681615 0.835691,-0.648634 0.362866,0.03298 0.362866,0.296832 0.571789,0.395776 0.208923,0.09894 0.681748,-0.142919 0.824695,-0.472733 A 1.0006304,1.0004349 0 0 1 43.3131,33.84847 1.2755288,1.2752797 0 0 1 43.774929,33.694557 c 0.153943,0 0.318883,-0.197887 0.274899,-0.362795 a 1.7483542,1.7480127 0 0 1 -0.879675,1.671056 4.6842697,4.6833548 0 0 1 -1.880305,0.571677 4.7832331,4.7822988 0 0 1 -2.430103,0 4.2774199,4.2765845 0 0 1 -1.979269,-1.890931 C 34.9342,30.539338 34.28544,26.74648 32.746008,23.371386 a 6.1907132,6.1895041 0 0 0 -1.308517,-2.00087 2.5730495,2.572547 0 0 0 -2.133211,-0.81354 z"
     id="path17"
     style="isolation:isolate;fill:#babdb6;stroke-width:0.999996" />
  <path
     class="cls-8"
     d="m 25.56566,26.482629 c -0.09896,0 -3.144838,3.298137 -3.144838,3.298137 a 4.9811601,4.9801871 0 0 0 1.308517,1.407205 c 0.549796,0.241864 0.593781,0.197888 0.94565,0.593665 0.351871,0.395776 -0.64876,0.978447 2.265164,3.748883 a 3.9475419,3.9467708 0 0 0 -1.231546,0.802546 11.985573,11.983232 0 0 0 -1.836321,1.956894 c -0.340874,0.615653 -0.64876,1.09938 2.57305,0.318821 a 14.3497,14.346897 0 0 0 -1.16557,2.58354 c 0,0.516708 0.626768,0.736585 1.627399,0.120932 a 7.125368,7.1239763 0 0 0 1.935285,-1.429193 4.2114443,4.2106217 0 0 0 0.64876,2.748448 5.9048189,5.9036655 0 0 0 2.001261,-2.715466 c 0.296891,-1.429193 0.604776,-1.879938 0.8137,-3.067268 a 1.5174395,1.5171431 0 0 0 -0.09896,-1.011429 4.5193307,4.5184479 0 0 0 -1.715366,-1.726025 c 0,0 -0.439838,-1.572112 -0.890671,-2.924348 -0.450834,-1.352236 -1.682379,-3.891802 -4.03551,-4.705342 z"
     id="path18"
     style="isolation:isolate" />
  <path
     class="cls-9"
     d="m 25.56566,26.482629 c -0.09896,0 -3.144838,3.298137 -3.144838,3.298137 a 4.9811601,4.9801871 0 0 0 1.308517,1.407205 c 0.549796,0.241864 0.593781,0.197888 0.94565,0.593665 0.351871,0.395776 -0.64876,0.978447 2.265164,3.748883 a 3.9475419,3.9467708 0 0 0 -1.231546,0.802546 11.985573,11.983232 0 0 0 -1.836321,1.956894 c -0.340874,0.615653 -0.64876,1.09938 2.57305,0.318821 a 14.3497,14.346897 0 0 0 -1.16557,2.58354 c 0,0.516708 0.626768,0.736585 1.627399,0.120932 a 7.125368,7.1239763 0 0 0 1.935285,-1.429193 4.2114443,4.2106217 0 0 0 0.64876,2.748448 5.9048189,5.9036655 0 0 0 2.001261,-2.715466 c 0.296891,-1.429193 0.604776,-1.879938 0.8137,-3.067268 a 1.5174395,1.5171431 0 0 0 -0.09896,-1.011429 4.5193307,4.5184479 0 0 0 -1.715366,-1.726025 c 0,0 -0.439838,-1.572112 -0.890671,-2.924348 -0.450834,-1.352236 -1.682379,-3.891802 -4.03551,-4.705342 z"
     id="path19"
     style="isolation:isolate;fill:url(#linearGradient81);stroke-width:0.999996" />
  <path
     class="cls-9"
     d="m 25.56566,26.482629 c -0.09896,0 -3.144838,3.298137 -3.144838,3.298137 a 4.9811601,4.9801871 0 0 0 1.308517,1.407205 c 0.549796,0.241864 0.593781,0.197888 0.94565,0.593665 0.351871,0.395776 -0.64876,0.978447 2.265164,3.748883 a 3.9475419,3.9467708 0 0 0 -1.231546,0.802546 11.985573,11.983232 0 0 0 -1.836321,1.956894 c -0.340874,0.615653 -0.64876,1.09938 2.57305,0.318821 a 14.3497,14.346897 0 0 0 -1.16557,2.58354 c 0,0.516708 0.626768,0.736585 1.627399,0.120932 a 7.125368,7.1239763 0 0 0 1.935285,-1.429193 4.2114443,4.2106217 0 0 0 0.64876,2.748448 5.9048189,5.9036655 0 0 0 2.001261,-2.715466 c 0.296891,-1.429193 0.604776,-1.879938 0.8137,-3.067268 a 1.5174395,1.5171431 0 0 0 -0.09896,-1.011429 4.5193307,4.5184479 0 0 0 -1.715366,-1.726025 c 0,0 -0.439838,-1.572112 -0.890671,-2.924348 -0.450834,-1.352236 -1.682379,-3.891802 -4.03551,-4.705342 z"
     id="path20"
     style="isolation:isolate;fill:url(#linear-gradient-3);stroke-width:0.999996" />
  <path
     class="cls-10"
     d="m 24.433079,28.890269 c 1.484451,1.176336 3.232805,3.990746 5.102115,7.464783"
     id="path21"
     style="isolation:isolate;stroke:url(#linearGradient82);stroke-width:0.999996" />
  <path
     class="cls-11"
     d="m 29.007389,39.906047 a 3.7716069,3.7708701 0 0 0 2.199188,0.329813 8.4338846,8.4322373 0 0 1 -0.923658,1.539131 c -0.527806,0.681615 -0.736729,0.747578 -0.736729,0.747578 a 3.7826027,3.7818639 0 0 1 -0.538801,-2.616522 z"
     id="path22"
     style="isolation:isolate;fill:url(#linearGradient83);stroke-width:0.999996" />
  <path
     class="cls-12"
     d="m 26.797206,38.553811 a 3.2987815,3.2981372 0 0 0 -1.264533,2.72646 c 0.219919,0.230869 1.968273,-0.263851 2.606037,-0.802547 0.637764,-0.538696 0.417846,-0.483726 0.417846,-0.483726 a 5.2560585,5.2550319 0 0 1 -1.033619,-0.648635 7.6311812,7.6296906 0 0 1 -0.725731,-0.791552 z"
     id="path23"
     style="isolation:isolate;fill:url(#linear-gradient-7);stroke-width:0.999996" />
  <path
     class="cls-13"
     d="m 25.708607,36.37704 a 6.3666483,6.3654047 0 0 1 0.593781,1.09938 5.1131113,5.1121126 0 0 0 0.505813,0.879503 c 0,0 -2.51807,0.890496 -2.81496,0.659627 -0.29689,-0.23087 1.099594,-1.989876 1.099594,-1.989876 z"
     id="path24"
     style="isolation:isolate;fill:url(#linear-gradient-8);stroke-width:0.999996" />
  <path
     class="cls-14"
     d="m 25.26877,29.659834 v 0.527703 l 0.340875,0.1759 a 1.5834151,1.5831058 0 0 1 0.846687,-0.714597 c 0.384858,-0.08795 0.879674,0.219876 0.835691,0.604659 -0.04398,0.384783 -0.318882,0.538695 -0.131951,0.758571 0.18693,0.219876 0.450833,0.06596 0.670752,0.164907 0.219918,0.09894 0.241911,0.593665 0.120955,0.890497 -0.120955,0.296832 -0.219919,0.714597 0.06598,0.912485 0.285894,0.197888 0.285894,0.08795 0.406849,0.175901 0.439838,0.3518 -0.362866,1.187329 0.10996,1.495155 0.29689,0.197889 0.824695,-0.07695 0.934655,0.252857 0.109959,0.329814 -0.153943,0.362795 -0.120956,0.560683 0.03298,0.197889 0.648761,0.197889 0.978639,0.395777 a 0.90166694,0.90149082 0 0 1 0.285895,0.351802 l 0.439836,0.780559 a 7.477238,7.4757776 0 0 1 0.318883,2.770435 c 0.120955,-0.934472 0.8137,-2.198758 0.846687,-3.166212 a 1.7593501,1.7590065 0 0 0 -0.09896,-0.824534 2.7379886,2.7374539 0 0 0 -0.659756,-0.769566 C 29.568186,33.15586 29.634162,30.055611 27.819832,28.131698 a 2.0892283,2.0888202 0 0 0 -1.979269,-0.791553 2.1991877,2.1987581 0 0 0 -0.846688,0.626645 c -0.560792,0.593665 -1.75935,1.638076 -1.880305,2.495591 a 0.35187003,0.35180129 0 0 0 0,0.186895 0.42884159,0.42875783 0 0 0 0.175935,0.164906 6.7954898,6.7941626 0 0 1 1.484452,1.374224 3.8925621,3.8918018 0 0 1 -0.274898,-1.748013 c 0.120955,-0.241863 0.780711,-0.560683 0.769715,-0.780559 z"
     id="path25"
     style="opacity:1;isolation:isolate;fill:#dddedb;stroke-width:0.999996;fill-opacity:1" />
  <path
     class="cls-15"
     d="m 25.56566,26.482629 c -0.09896,0 -3.144838,3.298137 -3.144838,3.298137 a 4.9811601,4.9801871 0 0 0 1.308517,1.407205 c 0.549796,0.241864 0.593781,0.197888 0.94565,0.593665 0.351871,0.395776 -0.64876,0.978447 2.265164,3.748883 a 3.9475419,3.9467708 0 0 0 -1.231546,0.802546 11.985573,11.983232 0 0 0 -1.836321,1.956894 c -0.340874,0.615653 -0.64876,1.09938 2.57305,0.318821 a 14.3497,14.346897 0 0 0 -1.16557,2.58354 c 0,0.516708 0.626768,0.736585 1.627399,0.120932 a 7.125368,7.1239763 0 0 0 1.935285,-1.429193 4.2114443,4.2106217 0 0 0 0.64876,2.748448 5.9048189,5.9036655 0 0 0 2.001261,-2.715466 c 0.296891,-1.429193 0.604776,-1.879938 0.8137,-3.067268 a 1.5174395,1.5171431 0 0 0 -0.09896,-1.011429 4.5193307,4.5184479 0 0 0 -1.715366,-1.726025 c 0,0 -0.439838,-1.572112 -0.890671,-2.924348 -0.450834,-1.352236 -1.682379,-3.891802 -4.03551,-4.705342 z"
     id="path26"
     style="isolation:isolate" />
  <path
     class="cls-16"
     d="m 25.455701,18.281261 c 0,0 0.714736,-1.099379 3.5187,-1.462174 2.803965,-0.362795 6.377644,1.473168 7.763133,7.101989 1.385488,5.62882 2.342135,8.882983 3.672643,9.45466 a 2.3971145,2.3966464 0 0 0 2.968904,-0.824535 5.3880097,5.3869573 0 0 0 0.07697,-1.473168 c 0,0 0.945651,0.373789 0.824696,2.198758 -0.120956,1.824969 -0.450834,2.198758 -3.298782,2.561553 -2.847948,0.362796 -4.563314,-2.429628 -6.399636,-7.62969 -1.836322,-5.200063 -2.199188,-7.200933 -4.750245,-7.695653 -2.551059,-0.494721 -4.002522,4.397516 -4.002522,4.397516 z"
     id="path27"
     style="isolation:isolate;stroke:#888a85" />
  <path
     class="cls-5"
     d="m 14.789641,9.0904522 a 2.5620536,2.5615532 0 0 0 -2.452094,0 3.2987815,3.2981372 0 0 0 -1.660387,2.5835408 8.2139658,8.2123615 0 0 0 -2.2541667,1.835963 5.1460991,5.1450939 0 0 0 -0.5607928,1.352236 4.0465053,4.0457149 0 0 0 -0.9566467,1.27528 3.4857125,3.4850316 0 0 0 0.186931,2.451615 13.305085,13.302486 0 0 0 1.0995938,1.572113 8.1479902,8.1463988 0 0 0 -0.879675,2.341677 2.5950414,2.5945345 0 0 0 0.7477238,2.385652 9.3245556,9.3227344 0 0 0 2.8039636,1.231304 c 0,0 -0.615772,-2.110807 -0.9896339,-3.298137 0,0 2.4630899,1.91292 4.3983739,1.68205 a 22.882548,22.878078 0 0 0 -1.24254,-3.649938 c 0,0 1.946281,1.308261 3.22181,0.63764 0,0 -1.099594,-2.583541 -2.485082,-2.968324 a 5.0251438,5.0241623 0 0 0 -2.133212,-0.230869 5.2670545,5.2660257 0 0 0 -0.8137,-2.033851 3.4967083,3.4960254 0 0 0 2.089229,-0.362796 3.2987815,3.2981372 0 0 0 0.791707,-0.923478 c 0.08797,-0.23087 0.142947,-0.241864 0.219919,-0.05497 0.07697,0.186895 0.307886,0.802547 0.417846,1.099379 0.18693,0.428758 0.94565,0.802547 0.94565,0.802547 a 8.6098196,8.6081379 0 0 0 1.099594,2.40764 6.9164452,6.9150942 0 0 0 2.144208,1.77 3.3977449,3.3970813 0 0 0 0.05498,1.956895 4.1124809,4.1116776 0 0 0 0.09896,2.121801 10.380166,10.378138 0 0 0 -0.70374,2.528572 c -0.05498,1.011429 -0.08797,1.462174 -0.08797,1.462174 0,0 -0.846688,0.571677 -0.956647,1.09938 a 3.8925621,3.8918018 0 0 0 0.05498,1.264286 18.693095,18.689444 0 0 0 -1.099594,3.166211 34.461271,34.45454 0 0 0 -0.692744,3.561989 2.2651633,2.2647208 0 0 0 -1.594411,0.26385 6.1907132,6.1895041 0 0 1 -3.133843,0.428758 4.8821966,4.881243 0 0 0 -1.8693086,0.23087 c 0,0 0,1.099379 2.3091466,1.45118 a 4.1234769,4.1226714 0 0 0 -2.3311285,1.879938 7.0923802,7.0909949 0 0 0 5.3660165,0.450745 4.2774199,4.2765845 0 0 0 -0.879674,2.418634 c 0,0 4.398375,-0.263851 6.190713,-2.49559 a 3.6396555,3.6389447 0 0 0 0.340874,-2.968323 17.274619,17.271244 0 0 1 1.000631,-2.627516 9.4015272,9.3996909 0 0 0 1.363496,-4.177641 c 0,-1.638075 0,-1.879938 0,-1.879938 a 9.269576,9.2677654 0 0 1 1.253537,-1.737018 38.485784,38.478267 0 0 0 3.672643,-4.210622 6.4766076,6.4753426 0 0 0 0.582785,-4.23261 13.360065,13.357456 0 0 0 -1.044615,-1.923913 6.8284776,6.8271439 0 0 1 -0.263902,-1.846957 7.4002664,7.3988211 0 0 1 0.593781,-2.484596 6.1357336,6.1345351 0 0 0 1.869309,0.417763 8.0600228,8.0584485 0 0 0 1.660388,-0.109937 3.6836393,3.6829198 0 0 0 0.48382,1.275279 10.292198,10.290188 0 0 1 0.989635,2.583541 3.4747165,3.4740378 0 0 0 -1.737359,1.330248 7.5652056,7.5637279 0 0 0 -1.253537,3.968758 21.420088,21.415904 0 0 0 3.111851,-1.605092 36.759422,36.752241 0 0 0 0.736728,4.26559 c 0,0 2.606037,-2.121801 3.067867,-3.979752 0,0 1.29752,2.49559 2.672013,2.605528 A 15.867139,15.86404 0 0 0 37.441274,20.941759 3.7386191,3.7378888 0 0 0 35.604952,19.138777 17.593501,17.590065 0 0 0 35.000176,14.543372 9.6764257,9.6745357 0 0 0 32.976923,11.509087 C 32.515094,11.168279 31.547451,9.9809492 28.072735,9.51921 27.698873,9.4092721 27.533933,8.15598 25.752592,8.0350482 A 3.6176637,3.6169571 0 0 0 23.355477,8.419831 2.9469115,2.9463358 0 0 0 21.947996,7.1555451 c 0,0 0.197927,-0.3518014 0.835692,-0.2088821 a 2.6500211,2.6495035 0 0 0 -1.396484,-1.0993789 0.71473598,0.71459639 0 0 1 0.879675,-0.1978881 4.0025215,4.0017398 0 0 0 -1.3525,-1.0993791 2.0782323,2.0778264 0 0 1 1.198557,0.1649069 2.9139237,2.9133545 0 0 0 -1.506443,-1.2532922 0.98963444,0.98944115 0 0 0 0,-0.8025467 1.957277,1.9568947 0 0 0 -1.418477,-1.0444101 1.0006304,1.0004349 0 0 0 -0.75872,-0.81354048 3.4967083,3.4960254 0 0 0 -3.46372,1.00043488 2.1991877,2.1987581 0 0 0 -0.94565,0.1429193 c -0.241911,0.1868945 0,0.8245344 0.131951,0.9014909 0.131951,0.076956 0.142947,0.2308696 0,0.4067702 a 8.6208156,8.6191317 0 0 0 -1.440469,1.9788822 c -0.450832,1.0004351 -0.164938,1.3302486 0.395855,1.5061491 a 0.47282535,0.47273299 0 0 0 0.263902,0.5606834 3.7606109,3.7598764 0 0 0 1.638395,0.3627951 c 0,0 -0.307887,0.2858385 0.208923,0.8685094 a 1.7263623,1.7260252 0 0 0 -0.428842,0.5606834 z"
     id="path28"
     style="isolation:isolate;stroke-width:0.999996" />
  <path
     class="cls-17"
     d="m 27.061108,27.516045 a 3.3977449,3.3970813 0 0 1 -1.011627,-0.802547 c 0,0 -2.078231,1.945901 -2.265162,2.121801 -0.186931,0.175902 -0.901667,0.78056 -1.033618,1.253293 -0.197927,0.670622 0.615772,1.176335 1.231545,1.374223 -0.450834,-0.879503 0.285894,-1.901925 0.857683,-2.528571 a 4.2994119,4.2985721 0 0 1 2.221179,-1.418199 z"
     id="path29"
     style="isolation:isolate;stroke-width:0.999996" />
  <path
     id="circle29"
     style="isolation:isolate;fill:#4e9806;stroke-width:0.999996"
     class="cls-18"
     d="m 25.433709,28.890268 a 1.0006304,1.000435 0 0 1 -1.00063,1.000434 1.0006304,1.000435 0 0 1 -1.000631,-1.000434 1.0006304,1.000435 0 0 1 1.000631,-1.000435 1.0006304,1.000435 0 0 1 1.00063,1.000435 z" />
  <path
     class="cls-19"
     d="m 14.789641,9.0904522 a 2.5620536,2.5615532 0 0 0 -2.452094,0 3.2987815,3.2981372 0 0 0 -1.660387,2.5835408 8.2139658,8.2123615 0 0 0 -2.2541667,1.835963 5.1460991,5.1450939 0 0 0 -0.5607928,1.352236 4.0465053,4.0457149 0 0 0 -0.9566467,1.27528 3.4857125,3.4850316 0 0 0 0.186931,2.451615 13.305085,13.302486 0 0 0 1.0995938,1.572113 8.1479902,8.1463988 0 0 0 -0.879675,2.341677 2.5950414,2.5945345 0 0 0 0.7477238,2.385652 9.3245556,9.3227344 0 0 0 2.8039636,1.231304 c 0,0 -0.615772,-2.110807 -0.9896339,-3.298137 0,0 2.4630899,1.91292 4.3983739,1.68205 a 22.882548,22.878078 0 0 0 -1.24254,-3.649938 c 0,0 1.946281,1.308261 3.22181,0.63764 0,0 -1.099594,-2.583541 -2.485082,-2.968324 a 5.0251438,5.0241623 0 0 0 -2.133212,-0.230869 5.2670545,5.2660257 0 0 0 -0.8137,-2.033851 3.4967083,3.4960254 0 0 0 2.089229,-0.362796 3.2987815,3.2981372 0 0 0 0.791707,-0.923478 c 0.08797,-0.23087 0.142947,-0.241864 0.219919,-0.05497 0.07697,0.186895 0.307886,0.802547 0.417846,1.099379 0.18693,0.428758 0.94565,0.802547 0.94565,0.802547 a 8.6098196,8.6081379 0 0 0 1.099594,2.40764 6.9164452,6.9150942 0 0 0 2.144208,1.77 3.3977449,3.3970813 0 0 0 0.05498,1.956895 4.1124809,4.1116776 0 0 0 0.09896,2.121801 10.380166,10.378138 0 0 0 -0.70374,2.528572 c -0.05498,1.011429 -0.08797,1.462174 -0.08797,1.462174 0,0 -0.846688,0.571677 -0.956647,1.09938 a 3.8925621,3.8918018 0 0 0 0.05498,1.264286 18.693095,18.689444 0 0 0 -1.099594,3.166211 34.461271,34.45454 0 0 0 -0.692744,3.561989 2.2651633,2.2647208 0 0 0 -1.594411,0.26385 6.1907132,6.1895041 0 0 1 -3.133843,0.428758 4.8821966,4.881243 0 0 0 -1.8693086,0.23087 c 0,0 0,1.099379 2.3091466,1.45118 a 4.1234769,4.1226714 0 0 0 -2.3311285,1.879938 7.0923802,7.0909949 0 0 0 5.3660165,0.450745 4.2774199,4.2765845 0 0 0 -0.879674,2.418634 c 0,0 4.398375,-0.263851 6.190713,-2.49559 a 3.6396555,3.6389447 0 0 0 0.340874,-2.968323 17.274619,17.271244 0 0 1 1.000631,-2.627516 9.4015272,9.3996909 0 0 0 1.363496,-4.177641 c 0,-1.638075 0,-1.879938 0,-1.879938 a 9.269576,9.2677654 0 0 1 1.253537,-1.737018 38.485784,38.478267 0 0 0 3.672643,-4.210622 6.4766076,6.4753426 0 0 0 0.582785,-4.23261 13.360065,13.357456 0 0 0 -1.044615,-1.923913 6.8284776,6.8271439 0 0 1 -0.263902,-1.846957 7.4002664,7.3988211 0 0 1 0.593781,-2.484596 6.1357336,6.1345351 0 0 0 1.869309,0.417763 8.0600228,8.0584485 0 0 0 1.660388,-0.109937 3.6836393,3.6829198 0 0 0 0.48382,1.275279 10.292198,10.290188 0 0 1 0.989635,2.583541 3.4747165,3.4740378 0 0 0 -1.737359,1.330248 7.5652056,7.5637279 0 0 0 -1.253537,3.968758 21.420088,21.415904 0 0 0 3.111851,-1.605092 36.759422,36.752241 0 0 0 0.736728,4.26559 c 0,0 2.606037,-2.121801 3.067867,-3.979752 0,0 1.29752,2.49559 2.672013,2.605528 A 15.867139,15.86404 0 0 0 37.441274,20.941759 3.7386191,3.7378888 0 0 0 35.604952,19.138777 17.593501,17.590065 0 0 0 35.000176,14.543372 9.6764257,9.6745357 0 0 0 32.976923,11.509087 C 32.515094,11.168279 31.547451,9.9809492 28.072735,9.51921 27.698873,9.4092721 27.533933,8.15598 25.752592,8.0350482 A 3.6176637,3.6169571 0 0 0 23.355477,8.419831 2.9469115,2.9463358 0 0 0 21.947996,7.1555451 c 0,0 0.197927,-0.3518014 0.835692,-0.2088821 a 2.6500211,2.6495035 0 0 0 -1.396484,-1.0993789 0.71473598,0.71459639 0 0 1 0.879675,-0.1978881 4.0025215,4.0017398 0 0 0 -1.3525,-1.0993791 2.0782323,2.0778264 0 0 1 1.198557,0.1649069 2.9139237,2.9133545 0 0 0 -1.506443,-1.2532922 0.98963444,0.98944115 0 0 0 0,-0.8025467 1.957277,1.9568947 0 0 0 -1.418477,-1.0444101 1.0006304,1.0004349 0 0 0 -0.75872,-0.81354048 3.4967083,3.4960254 0 0 0 -3.46372,1.00043488 2.1991877,2.1987581 0 0 0 -0.94565,0.1429193 c -0.241911,0.1868945 0,0.8245344 0.131951,0.9014909 0.131951,0.076956 0.142947,0.2308696 0,0.4067702 a 8.6208156,8.6191317 0 0 0 -1.440469,1.9788822 c -0.450832,1.0004351 -0.164938,1.3302486 0.395855,1.5061491 a 0.47282535,0.47273299 0 0 0 0.263902,0.5606834 3.7606109,3.7598764 0 0 0 1.638395,0.3627951 c 0,0 -0.307887,0.2858385 0.208923,0.8685094 a 1.7263623,1.7260252 0 0 0 -0.428842,0.5606834 z"
     id="path30"
     style="isolation:isolate;fill:url(#linear-gradient-10);stroke-width:0.999996" />
  <path
     class="cls-20"
     d="M 13.986937,11.322191 A 24.542934,24.538141 0 0 0 25.08184,10.552626"
     id="path31"
     style="isolation:isolate" />
  <path
     class="cls-21"
     d="m 17.373686,15.708714 v 0 c -0.142947,0.06597 -0.263902,0.153913 -0.384858,0.219876 a 3.8485784,3.8478267 0 0 1 -0.780711,0.351801 3.9915255,3.990746 0 0 1 -0.879675,0.120932 4.9371763,4.936212 0 0 0 1.099594,2.770435 6.9164452,6.9150942 0 0 0 2.144208,1.770001 3.3977449,3.3970813 0 0 0 0.05498,1.956894 4.1124809,4.1116776 0 0 0 0.09896,2.121802 10.380166,10.378138 0 0 0 -0.70374,2.528572 c -0.05498,1.011428 -0.08796,1.462174 -0.08796,1.462174 0,0 -0.846688,0.571677 -0.956647,1.099378 a 3.8925621,3.8918018 0 0 0 0.011,1.319256 18.693095,18.689444 0 0 0 -1.099593,3.166211 34.461271,34.45454 0 0 0 -0.692744,3.561989 2.2651633,2.2647208 0 0 0 -1.594411,0.26385 6.1907132,6.1895041 0 0 1 -3.133843,0.428758 4.8821966,4.881243 0 0 0 -1.8693087,0.23087 c 0,0 0,1.099379 2.3091467,1.45118 a 4.1234769,4.1226714 0 0 0 -2.3311415,1.879938 7.0923802,7.0909949 0 0 0 5.3660165,0.450745 4.2774199,4.2765845 0 0 0 -0.879674,2.418634 c 0,0 4.398375,-0.263851 6.190713,-2.49559 a 3.6396555,3.6389447 0 0 0 0.340874,-2.968323 17.274619,17.271244 0 0 1 1.000631,-2.627516 9.4015272,9.3996909 0 0 0 1.363496,-4.177641 c 0,-1.638075 0,-1.879938 0,-1.879938 a 9.269576,9.2677654 0 0 1 1.253537,-1.737018 38.485784,38.478267 0 0 0 3.672643,-4.210622 6.4766076,6.4753426 0 0 0 0.582785,-4.23261 13.360065,13.357456 0 0 0 -1.044615,-1.923913 c -0.241909,-0.769566 -0.05498,-1.572113 -0.274898,-2.297702 a 2.2761592,2.2757146 0 0 0 -2.023252,-1.605094 4.6732737,4.672361 0 0 0 -1.16557,0.175901 11.171874,11.169691 0 0 1 -3.760611,0.362795 3.3757531,3.3750937 0 0 0 -1.825326,0.04397 z"
     id="path32"
     style="isolation:isolate;fill:url(#linear-gradient-11);stroke-width:0.999996" />
  <path
     class="cls-22"
     d="M 17.681573,6.946663 A 32.361046,32.354725 0 0 0 21.75007,20.908777"
     id="path33"
     style="isolation:isolate;stroke:url(#linearGradient84);stroke-width:0.999996" />
  <path
     class="cls-23"
     d="m 12.38153,9.0904522 a 3.2987815,3.2981372 0 0 0 -1.660386,2.5835408 8.2139658,8.2123615 0 0 0 -2.2541669,1.835963 5.1460991,5.1450939 0 0 0 -0.5607929,1.352236 4.0465053,4.0457149 0 0 0 -0.9566466,1.27528 3.4857125,3.4850316 0 0 0 0.1429472,2.451615 13.305085,13.302486 0 0 0 1.0995938,1.572113 8.1479902,8.1463988 0 0 0 -0.879675,2.341677 2.5950414,2.5945345 0 0 0 0.7477238,2.385652 9.3245556,9.3227344 0 0 0 2.8039636,1.231304 c 0,0 -0.615772,-2.110807 -0.9896339,-3.298137 0,0 2.4630899,1.91292 4.3983739,1.68205 a 22.882548,22.878078 0 0 0 -1.24254,-3.649938 c 0,0 1.946281,1.308261 3.22181,0.63764 0,0 -1.099594,-2.583541 -2.485082,-2.968324 a 5.0251438,5.0241623 0 0 0 -2.133212,-0.230869 5.2670545,5.2660257 0 0 0 -0.8137,-2.033851 3.4967083,3.4960254 0 0 0 2.089229,-0.362796 2.3751227,2.3746588 0 0 0 0.659756,-2.660497 2.9359155,2.935342 0 0 1 -0.175935,-1.429193 1.7923379,1.7919879 0 0 1 0.329878,-0.560683 4.5303265,4.5294416 0 0 1 1.781342,-1.3302486 C 15.295454,10.002937 14.998564,9.5082162 14.8996,9.3982783 A 2.1002242,2.099814 0 0 0 12.38153,9.0904522 Z"
     id="path34"
     style="isolation:isolate;fill:url(#linear-gradient-13);stroke-width:0.999996" />
  <path
     id="polyline34"
     style="isolation:isolate;fill:none;stroke:url(#linear-gradient-14);stroke-width:0.999996;stroke-miterlimit:10"
     class="cls-24"
     d="M 13.986937,11.322191 8.7308796,16.467286 10.589193,20.1612" />
  <path
     id="circle34"
     style="isolation:isolate;fill:#4e9806;stroke-width:0.999996"
     class="cls-18"
     d="m 15.020556,11.322191 a 1.0336182,1.0334163 0 0 1 -1.033619,1.033417 1.0336182,1.0334163 0 0 1 -1.033618,-1.033417 1.0336182,1.0334163 0 0 1 1.033618,-1.033416 1.0336182,1.0334163 0 0 1 1.033619,1.033416 z" />
  <path
     class="cls-25"
     d="m 13.975942,6.276042 c 0.285894,0.08795 0.527805,-0.2968323 0.824695,-0.263851 0.29689,0.032982 0.274899,0.1649068 0.395854,0.2748448 0.120956,0.1099379 0.505812,0.2748446 0.659756,0.08795 0.153943,-0.1868945 0.08797,-0.1978883 0.153943,-0.2858386 0.06598,-0.08795 0.516809,-0.1429192 0.769716,0 0.252907,0.1429194 0.604776,0.1868945 0.769716,0 0.164938,-0.1868943 0.09896,-0.2528572 0.197927,-0.3188199 0.09896,-0.065962 0.659756,0.2418634 0.879674,0 0.219919,-0.2418634 0.08797,-0.2418634 0.175935,-0.3298137 0.08797,-0.08795 0.505814,-0.076956 0.527805,-0.2968323 A 0.34087409,0.34080751 0 0 1 19.429923,5.4954826 0.98963444,0.98944115 0 0 1 19.242992,5.8252963 4.8492087,4.8482616 0 0 1 18.363317,6.8367249 4.2334363,4.2326093 0 0 1 17.16476,7.4413833 4.8382129,4.8372678 0 0 1 14.074901,7.7162281 1.0995938,1.0993791 0 0 1 13.360165,7.1115696 C 13.206226,6.8257313 12.832364,6.6608244 12.755392,6.3529985 a 0.890671,0.89049703 0 0 1 0,-0.3408075 0.98963444,0.98944115 0 0 1 0.285895,-0.681615 1.0336182,1.0334163 0 0 0 -0.07697,0.4067703 c 0,0.1319254 0.05498,0.2858385 0.186931,0.2968323 0.131951,0.010994 0.219919,-0.1099379 0.340874,-0.1319254 0.120955,-0.021988 0.285895,0.3078261 0.483822,0.3737888 z"
     id="path35"
     style="isolation:isolate;fill:url(#linear-gradient-15);stroke-width:0.999996" />
  <path
     class="cls-26"
     d="M 27.742857,11.761943 C 27.314015,11.60803 26.588283,10.387719 26.445336,10.233807 a 2.7159967,2.7154663 0 0 0 -3.419737,-0.07696 l -0.10996,0.05497 a 0.17593501,0.17590065 0 0 1 -0.164938,-0.120932 0.37386191,0.37378888 0 0 1 0,-0.2198758 2.2871552,2.2867084 0 0 1 1.00063,-1.4951555 2.1991877,2.1987581 0 0 1 1.781342,-0.2858385 4.0575013,4.0567087 0 0 1 2.012256,0.9344722 2.7929683,2.7924228 0 0 0 0.582785,0.5057143 2.3311389,2.3306835 0 0 0 0.615773,0.1759007 9.5554704,9.5536039 0 0 1 4.288416,1.9898766 6.7844939,6.7831688 0 0 1 2.342135,4.056708 C 35.033164,14.213557 33.603692,13.18014 32.240195,12.45455 l -1.979269,-1.099379 a 4.8492087,4.8482616 0 0 0 -1.902297,-0.417764 0.59378067,0.59366469 0 0 0 -0.516809,0.08795 1.3525004,1.3522362 0 0 1 0.153943,0.46174 0.36286597,0.36279509 0 0 1 0,0.241863 0.17593501,0.17590065 0 0 1 -0.252906,0.03298 z"
     id="path36"
     style="isolation:isolate;fill:url(#linear-gradient-16);stroke-width:0.999996" />
  <path
     class="cls-27"
     d="M 23.234521,8.782626 A 2.4520942,2.4516153 0 0 0 21.728078,8.3648619 0.92365882,0.9234784 0 0 1 21.101309,8.2769116 C 20.936371,8.1339924 21.035334,7.7711973 21.244257,7.83716 21.04633,7.6942407 20.573504,7.5293339 20.705455,7.210514 c 0,-0.054969 0.05498,-0.098944 0.07698,-0.1539131 C 20.870395,6.8257313 20.63948,6.6058555 20.430557,6.4739302 20.221635,6.3420047 19.968728,6.1770978 20.001716,5.9242407 20.034704,5.6713835 20.441553,5.4515077 20.309602,5.1986505 A 0.30788627,0.30782614 0 0 0 20.177651,5.066725 L 19.275983,4.3631225 c -0.07697,0 0.472827,-0.527702 0.51681,-0.5716771 A 0.92365882,0.9234784 0 0 0 20.001716,2.9779048 0.82469538,0.82453428 0 0 0 19.407935,2.4502029 3.0678668,3.0672676 0 0 0 18.594236,2.186352 2.5950414,2.5945345 0 0 0 16.988828,2.7140538 0.67075224,0.67062122 0 0 1 16.801897,2.340265 L 16.142141,2.8899545 A 0.87967506,0.87950324 0 0 1 16.01019,2.2962898 0.85768318,0.85751566 0 0 0 15.526369,2.6700787 1.4734557,1.473168 0 0 0 14.30582,2.3732463 2.1991877,2.1987581 0 0 1 14.217853,2.6590849 h -0.16494 C 13.931958,2.4611967 13.800006,2.0104513 13.997933,1.8565382 a 2.1991877,2.1987581 0 0 1 0.945651,-0.1429193 3.4967083,3.4960254 0 0 1 3.463721,-1.00043491 c 0.780711,0.30782611 0.780711,0.90149081 0.780711,0.90149081 a 1.9792689,1.9788823 0 0 1 1.495448,1.099379 0.98963444,0.98944115 0 0 1 0,0.8025468 2.8259561,2.8254042 0 0 1 1.495448,1.2422983 2.0892283,2.0888202 0 0 0 -1.187562,-0.1539131 4.0025215,4.0017398 0 0 1 1.352501,1.0993791 0.71473598,0.71459639 0 0 0 -0.879675,0.1978883 2.6500211,2.6495035 0 0 1 1.396483,1.0993787 C 22.222896,6.8587127 22.024969,7.210514 22.024969,7.210514 a 2.8809358,2.8803731 0 0 1 1.374492,1.1983232 0.6047766,0.60465848 0 0 0 -0.16494,0.3737888 z"
     id="path37"
     style="isolation:isolate;fill:url(#linear-gradient-17);stroke-width:0.999996" />
  <path
     class="cls-28"
     d="m 10.490229,13.268092 a 1.1875614,1.1873294 0 0 0 0.395854,0 c 0.450833,-0.153913 0.362866,-0.945466 0.813699,-1.099378 0.06598,0 0.142947,0 0.219919,-0.07696 0.07697,-0.07695 0.230915,-0.373789 0.285895,-0.604658 a 2.0892283,2.0888202 0 0 1 1.286524,-1.363231 5.2670545,5.2660257 0 0 1 1.902298,-0.2968319 2.1991877,2.1987581 0 0 0 -2.737989,-0.8355281 3.4087409,3.4080751 0 0 0 -1.891301,2.352671 0.98963444,0.98944115 0 0 1 -0.120955,0.296832 0.82469538,0.82453428 0 0 1 -0.373862,0.23087 3.4197368,3.4190689 0 0 0 -2.0782324,2.31969 3.4197368,3.4190689 0 0 1 -0.7587197,1.330248 L 8.5329527,14.763248 C 9.2037049,14.24654 9.3906359,13.235111 10.490229,13.268092 Z"
     id="path38"
     style="isolation:isolate;fill:url(#linear-gradient-18);stroke-width:0.999996" />
  <path
     class="cls-29"
     d="m 14.14088,2.6480911 a 0.17593501,0.17590065 0 0 1 0.08797,-0.054968 c 0.29689,-0.1319255 0.417846,0.3847826 0.472825,0.6046585 a 3.7716069,3.7708701 0 0 1 0.06598,0.3737888 c 0,0 0,0 0,0 a 1.8473176,1.8469568 0 0 1 -1.220549,0 l 0.48382,-0.8135409 A 0.93465475,0.93447219 0 0 1 14.14088,2.6480911 Z"
     id="path39"
     style="isolation:isolate;stroke-width:0.999996" />
  <path
     class="cls-29"
     d="m 19.297976,2.8349856 a 1.5504273,1.5501245 0 0 0 -1.81433,0 c -0.670752,0.4837267 -0.923659,1.099379 -0.791707,1.1873294 a 1.6933745,1.6930437 0 0 0 1.550426,0 c 0.802704,-0.3627952 1.154574,-1.055404 1.055611,-1.1873294 z"
     id="path40"
     style="isolation:isolate;stroke-width:0.999996" />
  <path
     class="cls-30"
     d="m 14.107893,42.753438 c 0.604776,-0.208881 1.550427,-0.208881 1.847317,0.428759 0.296891,0.637639 -0.29689,1.253292 -0.64876,1.473168 a 15.581244,15.578201 0 0 1 -2.023253,0.648633 c 0,0 -0.29689,-1.770001 0.824696,-2.55056 z"
     id="path41"
     style="isolation:isolate;fill:url(#linear-gradient-19);stroke-width:0.999996" />
  <path
     class="cls-31"
     d="m 8.7198837,42.445613 a 3.7166271,3.7159012 0 0 1 1.7373583,-1.539131 2.9469115,2.9463358 0 0 1 0.791707,-0.329814 2.0782323,2.0778264 0 0 1 1.242541,0.285839 c 0.945651,0.483727 0.879675,1.759006 0.241911,1.912919 a 7.1033761,7.1019887 0 0 1 -1.990265,0.07695 17.21964,17.216276 0 0 1 -2.0232523,-0.406769 z"
     id="path42"
     style="isolation:isolate;fill:url(#linear-gradient-20);stroke-width:0.999996" />
  <path
     class="cls-32"
     d="M 9.9294369,40.257848 A 1.8473176,1.8469568 0 0 1 8.8298431,39.246419 c -0.1099594,-0.296832 2.8369509,-0.285838 3.0128859,-0.274844 0.142947,0.505714 0.241911,1.341242 -0.362865,1.517143 a 2.7599805,2.7594414 0 0 1 -1.5504271,-0.23087 z"
     id="path43"
     style="isolation:isolate;fill:url(#linear-gradient-21);stroke-width:0.999996" />
  <path
     class="cls-33"
     d="m 37.111396,21.942193 a 0.61577254,0.61565227 0 0 1 0.307886,0.109938 0.93465475,0.93447219 0 0 1 0.285895,0.439752 6.0697579,6.0685723 0 0 1 0.307885,1.407205 c 0,0.362795 0.06598,0.72559 0.07698,1.099379 0,0 0,0.07695 0,0.08795 a 3.5406921,3.5400005 0 0 1 -0.549798,-0.252856 3.1778261,3.1772054 0 0 1 -1.462459,-1.660063 0.98963444,0.98944115 0 0 1 1.033618,-1.231305 z"
     id="path44"
     style="isolation:isolate;fill:url(#linear-gradient-22);stroke-width:0.999996" />
  <path
     class="cls-34"
     d="m 34.450379,22.359957 a 1.0995938,1.0993791 0 0 1 0.538801,0.967454 2.1991877,2.1987581 0 0 1 -0.219919,0.681615 1.594411,1.5940996 0 0 1 -0.241911,0.417764 c -0.582784,0.63764 -0.978638,1.440187 -1.583415,2.099814 -0.725732,-0.934472 -0.549797,-2.253727 -0.681748,-3.353106 -0.131951,-1.099379 1.429472,-1.264286 2.188192,-0.813541 z"
     id="path45"
     style="isolation:isolate;fill:url(#linear-gradient-23);stroke-width:0.999996" />
  <path
     class="cls-35"
     d="m 31.096617,20.622939 a 1.242541,1.2422983 0 0 1 0.604777,1.36323 2.3531308,2.3526712 0 0 1 -1.275528,1.264285 q -0.725732,0.395777 -1.484452,0.758572 a 10.083275,10.081306 0 0 0 0.197927,-1.330248 10.633072,10.630996 0 0 1 0.406849,-1.396212 1.0336182,1.0334163 0 0 1 1.550427,-0.659627 z"
     id="path46"
     style="isolation:isolate;fill:url(#linear-gradient-24);stroke-width:0.999996" />
  <path
     class="cls-36"
     d="m 13.327181,20.688901 a 1.3525004,1.3522362 0 0 0 0.571789,0.296832 3.2987815,3.2981372 0 0 0 1.968273,0.296833 c 0,0 0.10996,0 0.120955,-0.07696 a 0.17593501,0.17590065 0 0 0 0,-0.109938 5.9158148,5.9146593 0 0 0 -0.670751,-1.176335 C 14.943584,19.446603 14.3608,18.940888 13.734031,19.193746 a 0.92365882,0.9234784 0 0 0 -0.40685,1.495155 z"
     id="path47"
     style="isolation:isolate;fill:url(#linear-gradient-25);stroke-width:0.999996" />
  <path
     class="cls-37"
     d="M 9.4456156,25.724057 10.62218,25.932939 9.9184409,23.8771 A 2.6390252,2.6385097 0 0 0 9.5995587,23.184491 0.84668724,0.84652187 0 0 0 8.9617943,22.83269 0.76971568,0.76956534 0 0 0 8.6868959,22.88766 1.3085166,1.3082611 0 0 0 7.8072208,23.888094 0.9786385,0.97844735 0 0 0 8.4889689,24.987473 c 0.4618294,0.428758 0.3188822,0.626647 0.9566467,0.736584 z"
     id="path48"
     style="isolation:isolate;fill:url(#linear-gradient-26);stroke-width:0.999996" />
  <path
     class="cls-38"
     d="m 12.777385,24.096976 c 0.252906,0 1.352499,0 1.407479,0.120932 L 13.08527,21.865237 a 3.0348789,3.0342862 0 0 0 -0.439837,-0.78056 0.96764257,0.96745357 0 0 0 -0.791708,-0.3518 1.0995938,1.0993791 0 0 0 -0.318882,0.09894 1.5504273,1.5501245 0 0 0 -0.934654,1.27528 1.8473176,1.8469568 0 0 0 1.220549,1.605092 5.6849001,5.6837897 0 0 0 0.956647,0.384783 z"
     id="path49"
     style="isolation:isolate;fill:url(#linear-gradient-27);stroke-width:0.999996" />
  <path
     class="cls-39"
     d="m 24.070213,17.61064 -0.483821,0.494721 a 0.61577254,0.61565227 0 0 1 0.230914,1.022422 9.7094135,9.707517 0 0 1 1.099594,0.307826 0.79170756,0.79155291 0 0 1 0.35187,0.197888 c 0.263903,0.296833 0,0.747578 -0.362866,1.022422 a 3.0458749,3.04528 0 0 1 0.615772,0.868511 0.6047766,0.60465848 0 0 1 0.07698,0.274844 c 0,0.318819 -0.472826,0.406771 -0.626769,0.681615 -0.329878,0.571677 0.75872,1.27528 0.395854,1.824969 -0.362867,0.549689 -1.319513,0.14292 -1.440468,0.692609 a 0.96764257,0.96745357 0 0 0 0.05498,0.428757 1.0995938,1.0993791 0 0 1 -0.75872,1.209318 c -0.208923,0 -0.439838,0 -0.637765,0.109938 a 0.48382129,0.48372678 0 0 0 -0.395854,0.450745 1.5614232,1.5611183 0 0 0 0.07698,0.241864 1.1765654,1.1763356 0 0 1 -0.439837,1.36323 c -0.362866,0.230869 -0.912663,0.318819 -1.000631,0.736583 0,0.164907 0,0.31882 0,0.483727 a 0.69274411,0.6926088 0 0 1 -1.16557,0.340808 1.6823786,1.6820499 0 0 0 0.318883,1.352236 c 0.241911,0.417765 0.439837,0.95646 0.153943,1.341242 -0.285895,0.384783 -0.813699,0.494721 -0.769715,0.912485 0.04398,0.417764 0.417845,0.450745 0.549796,0.747578 0.131951,0.296832 -0.230914,0.813541 -0.59378,1.099379 a 0.6597563,0.65962743 0 0 0 -0.263903,0.285839 c -0.175935,0.439751 0.516809,0.802546 0.461829,1.264286 -0.05498,0.461739 -1.253536,0.637639 -1.198556,1.253292 0,0.395776 0.626767,0.736583 0.373861,1.099379 -0.09896,0.142919 -0.307886,0.142919 -0.439837,0.252857 -0.131951,0.109938 -0.153944,0.505714 0,0.758571 0.571788,1.099379 -0.197927,1.198324 -1.099594,0.681615 -0.384858,-0.230869 -1.011627,-0.296832 -1.099594,0.131926 0,-0.09894 0.439838,0.373789 0.461829,0.40677 a 3.0018911,3.0013049 0 0 1 0.252907,0.747578 2.1991877,2.1987581 0 0 1 -0.274898,1.550124 3.2328059,3.2321744 0 0 0 1.792337,-0.857515 3.2987815,3.2981372 0 0 0 1.319513,-2.770436 5.4979691,5.4968953 0 0 1 -0.06598,-0.593665 2.3421349,2.3416773 0 0 1 0.10996,-0.538695 c 0.681748,-2.198758 1.847318,-4.287578 2.067236,-6.596274 a 7.5212218,7.5197527 0 0 1 0.186931,-1.495156 4.7722372,4.7713051 0 0 1 0.857683,-1.506149 27.566818,27.561433 0 0 1 2.847949,-3.298138 7.4552462,7.45379 0 0 0 1.770345,-2.198758 4.1344727,4.1336652 0 0 0 0.29689,-1.704037 5.8608351,5.8596904 0 0 0 -2.309146,-4.540436 z"
     id="path50"
     style="opacity:1;isolation:isolate;fill:#c7c7c7;fill-opacity:1;stroke-width:0.999996" />
  <path
     class="cls-40"
     d="m 31.800358,13.938714 a 2.5730495,2.572547 0 0 0 -0.351871,1.209317 l 0.934655,-0.120932 c 0.09896,0 0.230915,0 0.263903,0.07695 a 0.19792689,0.19788823 0 0 1 -0.07697,0.219875 1.6273989,1.627081 0 0 1 -0.549798,0.23087 c -0.175934,0.07696 -0.362865,0.23087 -0.340874,0.428758 0.022,0.197888 0.274898,0.329813 0.494818,0.340807 a 1.594411,1.5940996 0 0 1 0.64876,0.06597 0.34087409,0.34080751 0 0 1 0.153943,0.175901 c 0.142947,0.395776 -0.626769,0.714596 -0.417845,1.231304 0.109958,0.274845 0.670752,0.417765 0.64876,0.714597 a 0.53880097,0.53869573 0 0 1 -0.263903,0.384783 1.5284354,1.5281369 0 0 1 -0.923659,0.252856 C 31.899322,18.721012 30.502838,14.939148 30.46985,14.961136 Z"
     id="path51"
     style="isolation:isolate;fill:url(#linear-gradient-29);stroke-width:0.999996" />
  <path
     class="cls-41"
     d="m 26.56629,14.499397 a 1.5504273,1.5501245 0 0 0 -0.59378,-0.186894 c -0.472825,0 -0.769716,0.483727 -0.94565,0.868509 a 9.6434378,9.6415543 0 0 0 -0.417846,1.462174 10.083275,10.081306 0 0 0 -0.483821,1.231305 c -0.175936,-0.571677 -0.483822,-1.253292 -1.099594,-1.286274 -0.439838,0 -0.846687,0.373789 -1.286525,0.296832 -0.439838,-0.07695 -0.505814,-0.49472 -1.099594,-0.164906 a 1.242541,1.2422983 0 0 1 -0.395854,0.153912 0.29689033,0.29683234 0 0 1 -0.219918,0 c -0.07698,0 -0.120956,-0.12093 -0.175936,-0.186894 -0.274898,-0.340807 -0.824695,-0.08795 -1.187561,-0.164906 -0.362866,-0.07696 -1.374492,-0.989442 -1.715366,-0.307827 0,0.07696 0,0.175901 -0.09896,0.252858 -0.09896,0.07695 -0.417845,0.263851 -0.670751,0.307825 -0.252907,0.04397 -0.549798,0.164908 -0.560794,0.417765 a 1.0995938,1.0993791 0 0 0 -0.692744,-0.846522 3.0128871,3.0122986 0 0 1 -0.307886,-0.05497 c -0.186931,-0.06596 -0.230915,-0.241863 -0.274898,-0.417764 a 12.623337,12.620871 0 0 1 -0.527806,-2.715466 c 0.142948,0.230869 0.670753,1.440186 0.912663,1.462174 0.241911,0.02199 0.40685,-0.736584 0.725733,-0.593665 a 1.7263623,1.7260252 0 0 0 0.802703,1.165342 c 0.439838,0.197888 1.099594,-0.109938 1.033618,-0.593665 0.35187,-0.07695 0.494817,0.461739 0.802703,0.659628 a 0.69274411,0.6926088 0 0 0 0.835692,-0.186895 2.0782323,2.0778264 0 0 0 0.384858,-0.835528 c 0.450833,0.340808 0.923658,0.670622 1.396483,0.978447 a 0.8356913,0.83552808 0 0 0 0.384858,0.186895 0.62676848,0.62664606 0 0 0 0.582785,-0.395776 1.6713826,1.6710561 0 0 0 0.10996,-0.736585 c 0.384858,0 0.637764,0.483727 1.022622,0.461739 0.384858,-0.02199 0.472825,-0.307825 0.538801,-0.593665 a 1.781342,1.7809941 0 0 1 0.307887,-0.791552 c 0.153942,0.241863 0.582784,0.06596 0.637763,-0.219876 a 1.0995938,1.0993791 0 0 0 -0.263902,-0.791553 3.3647571,3.3640999 0 0 0 2.100225,0.23087 c 0.186931,0 0.483821,0 0.472825,0.175901 -0.011,0.1759 -0.142947,0.1759 -0.230915,0.241863 -0.08797,0.06597 -0.153943,0.23087 0,0.285838 A 3.7716069,3.7708701 0 0 0 28.4466,12.883309 l -0.06598,0.813541 a 1.0116263,1.0114287 0 0 0 1.022623,0.131926 2.2871552,2.2867084 0 0 1 1.099594,-0.208882 c -0.06598,0.340807 0.439838,0.461739 0.780711,0.417764 a 5.2890463,5.2880132 0 0 1 -1.781341,0.923478 3.1888221,3.1881992 0 0 1 -1.92429,0 4.7172575,4.7163361 0 0 1 -1.011627,-0.461739 z"
     id="path52"
     style="isolation:isolate;fill:url(#linear-gradient-30);stroke-width:0.999996" />
  <path
     class="cls-42"
     d="m 15.889235,16.610205 a 0.94565069,0.94546598 0 0 1 0,0.1759 0.70374005,0.70360259 0 0 0 0,0.450746 c 0.395853,0.626646 1.374492,0.439751 1.957276,0.571677 0.142948,0.329813 -0.505812,0.571677 -0.439836,0.923478 0,0.186895 0.230914,0.274845 0.406849,0.329814 a 3.4857125,3.4850316 0 0 0 1.099594,0.09894 c 0.06598,0.09894 -0.09896,0.186895 -0.186931,0.274845 -0.08796,0.08795 0.09896,0.593665 0.417845,0.626646 0.318883,0.03298 0.648761,-0.07696 0.934656,0 -0.307887,0.274845 -0.637765,0.659628 -0.494818,1.099379 0.07697,0.219876 0.296891,0.362796 0.439838,0.538696 a 1.4514638,1.4511804 0 0 1 0,1.594099 4.1674607,4.1666466 0 0 1 -1.099594,1.209318 l -0.197927,-2.660498 a 1.4734557,1.473168 0 0 0 -0.10996,-0.571677 2.0232526,2.0228574 0 0 0 -0.824694,-0.780559 6.3886401,6.3873922 0 0 1 -2.012257,-2.616522 2.3971145,2.3966464 0 0 1 -0.230915,-0.769566 0.86867912,0.86850945 0 0 1 0.241911,-0.72559 0.24191064,0.24186339 0 0 1 0.09896,0.23087 z"
     id="path53"
     style="isolation:isolate;fill:url(#linear-gradient-31);stroke-width:0.999996" />
  <path
     class="cls-43"
     d="m 20.155659,22.997597 a 14.767545,14.76466 0 0 0 4.27742,5.892672"
     id="path54"
     style="isolation:isolate;stroke:url(#linear-gradient-32);stroke-width:0.999996" />
  <path
     class="cls-44"
     d="m 19.308972,20.392069 a 17.593501,17.590065 0 0 0 0.846687,2.605528"
     id="path55"
     style="isolation:isolate;stroke-width:0.999996" />
  <path
     class="cls-45"
     d="m 18.352325,7.1115698 -0.846687,1.3302487 a 0.42884159,0.42875783 0 0 0 -0.08796,0.2198758 c 0,0.1319255 0.153943,0.2198758 0.285894,0.263851 a 0.61577254,0.61565227 0 0 1 0.362867,0.1649069 10.061284,10.059319 0 0 1 -1.011627,0.3737888 3.6066677,3.6059632 0 0 0 1.341505,0.5057144 0.890671,0.89049703 0 0 1 -0.560793,0.5826706 1.8913014,1.890932 0 0 0 -0.692744,0.450746 0.8356913,0.83552808 0 0 1 0.384858,0.538695 0.15394314,0.15391307 0 0 1 0,0.120932 c 0,0 -0.08797,0 -0.142948,0 A 2.1991877,2.1987581 0 0 1 15.658325,10.56362 3.8155905,3.8148453 0 0 1 15.174504,8.5297688 0.49481722,0.49472058 0 0 1 15.59235,7.9910731 2.9139237,2.9133545 0 0 0 16.559992,7.3314456 Z"
     id="path56"
     style="isolation:isolate;fill:url(#linear-gradient-33);stroke-width:0.999996" />
  <path
     class="cls-46"
     d="m 13.876978,14.74126 h 0.307886 l -0.351869,-3.463043 c -0.06598,-0.604659 -0.549798,-0.09894 -0.736729,0.142918 a 3.0018911,3.0013049 0 0 0 -0.505812,1.36323 2.7379886,2.7374539 0 0 1 -0.362867,1.352236 c 0,0.06597 -0.131951,0.14292 -0.219918,0.120932 -0.08797,-0.02199 -0.142948,-0.208882 -0.142948,-0.340807 0,-0.131925 -0.109959,-0.307826 -0.230914,-0.241863 a 0.21991877,0.21987581 0 0 0 -0.08797,0.153913 c -0.10996,0.461739 -0.472826,1.187329 -0.989636,1.264286 a 8.1589862,8.1573926 0 0 0 -1.1545721,0.08795 0.42884159,0.42875783 0 0 0 -0.1209554,0.06597 0.20892283,0.20888202 0 0 0 0,0.285838 0.92365882,0.9234784 0 0 0 0.2858944,0.164907 4.6622779,4.6613672 0 0 1 1.2315441,1.099379 c 0,0 0.08796,0.06597 0.120956,0 0.03298,-0.06596 0,0 0,-0.07696 0.09896,-0.615653 1.253537,-0.791553 1.737358,-0.95646 a 2.5400617,2.5395656 0 0 0 0.670752,-0.329814 c 0.274899,-0.153913 0.571789,-0.439751 0.549797,-0.692609 z"
     id="path57"
     style="isolation:isolate;fill:url(#linear-gradient-34);stroke-width:0.999996" />
  <path
     class="cls-47"
     d="m 8.0381355,15.203 c -0.1539431,0.505714 -0.5278051,1.165342 -0.3738619,1.704037 l 0.4398375,-0.164906 c 0.098964,0.131924 0,0.296832 -0.076971,0.439751 a 0.94565069,0.94546598 0 0 0 -0.1099593,0.615652 0.5168091,0.51670815 0 0 0 0.4508335,0.395777 c 0.1979268,0 0.4068496,-0.14292 0.5937806,0 0.186931,0.142919 0.2199188,0.615651 0.2858944,0.714596 0.186931,0.274845 0.3848578,0.296832 0.6927442,0.384783 -0.098964,0.373789 -0.7037402,0.472733 -0.7037402,0.90149 l 0.2858944,0.09894 c 0,0 0.098964,0 0.1099594,0.08795 0.010996,0.08795 0,0.05497 -0.05498,0.07696 -0.2639026,0.241863 -0.6817482,0.318819 -0.901667,0.604658 a 0.17593501,0.17590065 0 0 0 0,0.09894 c 0,0.109938 0.1649391,0.131926 0.2309147,0.219876 a 0.2309147,0.2308696 0 0 1 0,0.285838 c -0.1649391,0.1869 -0.4288416,0.318826 -0.6157725,0.50572 A 2.1991877,2.1987581 0 0 0 7.6862655,22.964616 2.7819724,2.781429 0 0 0 7.598298,23.492317 0.52780503,0.52770195 0 0 1 7.3563873,22.953622 4.7172575,4.7163361 0 0 1 7.5653102,22.403933 c 0,-0.175902 0,-0.351802 0.065976,-0.527702 0.076971,-0.362795 0.2639025,-0.692609 0.3408741,-1.09938 A 1.5614232,1.5611183 0 0 0 7.8072208,19.754429 4.2114443,4.2106217 0 0 1 7.0045173,16.698155 C 7.3453914,15.257969 8.0381355,15.203 8.0381355,15.203 Z"
     id="path58"
     style="isolation:isolate;fill:url(#linear-gradient-35);stroke-width:0.999996" />
  <path
     class="cls-15"
     d="m 14.789641,9.0904522 a 2.5620536,2.5615532 0 0 0 -2.452094,0 3.2987815,3.2981372 0 0 0 -1.660387,2.5835408 8.2139658,8.2123615 0 0 0 -2.2541667,1.835963 5.1460991,5.1450939 0 0 0 -0.5607928,1.352236 4.0465053,4.0457149 0 0 0 -0.9566467,1.27528 3.4857125,3.4850316 0 0 0 0.186931,2.451615 13.305085,13.302486 0 0 0 1.0995938,1.572113 8.1479902,8.1463988 0 0 0 -0.879675,2.341677 2.5950414,2.5945345 0 0 0 0.7477238,2.385652 9.3245556,9.3227344 0 0 0 2.8039636,1.231304 c 0,0 -0.615772,-2.110807 -0.9896339,-3.298137 0,0 2.4630899,1.91292 4.3983739,1.68205 a 22.882548,22.878078 0 0 0 -1.24254,-3.649938 c 0,0 1.946281,1.308261 3.22181,0.63764 0,0 -1.099594,-2.583541 -2.485082,-2.968324 a 5.0251438,5.0241623 0 0 0 -2.133212,-0.230869 5.2670545,5.2660257 0 0 0 -0.8137,-2.033851 3.4967083,3.4960254 0 0 0 2.089229,-0.362796 3.2987815,3.2981372 0 0 0 0.791707,-0.923478 c 0.08797,-0.23087 0.142947,-0.241864 0.219919,-0.05497 0.07697,0.186895 0.307886,0.802547 0.417846,1.099379 0.18693,0.428758 0.94565,0.802547 0.94565,0.802547 a 8.6098196,8.6081379 0 0 0 1.099594,2.40764 6.9164452,6.9150942 0 0 0 2.144208,1.77 3.3977449,3.3970813 0 0 0 0.05498,1.956895 4.1124809,4.1116776 0 0 0 0.09896,2.121801 10.380166,10.378138 0 0 0 -0.70374,2.528572 c -0.05498,1.011429 -0.08797,1.462174 -0.08797,1.462174 0,0 -0.846688,0.571677 -0.956647,1.09938 a 3.8925621,3.8918018 0 0 0 0.05498,1.264286 18.693095,18.689444 0 0 0 -1.099594,3.166211 34.461271,34.45454 0 0 0 -0.692744,3.561989 2.2651633,2.2647208 0 0 0 -1.594411,0.26385 6.1907132,6.1895041 0 0 1 -3.133843,0.428758 4.8821966,4.881243 0 0 0 -1.8693086,0.23087 c 0,0 0,1.099379 2.3091466,1.45118 a 4.1234769,4.1226714 0 0 0 -2.3311285,1.879938 7.0923802,7.0909949 0 0 0 5.3660165,0.450745 4.2774199,4.2765845 0 0 0 -0.879674,2.418634 c 0,0 4.398375,-0.263851 6.190713,-2.49559 a 3.6396555,3.6389447 0 0 0 0.340874,-2.968323 17.274619,17.271244 0 0 1 1.000631,-2.627516 9.4015272,9.3996909 0 0 0 1.363496,-4.177641 c 0,-1.638075 0,-1.879938 0,-1.879938 a 9.269576,9.2677654 0 0 1 1.253537,-1.737018 38.485784,38.478267 0 0 0 3.672643,-4.210622 6.4766076,6.4753426 0 0 0 0.582785,-4.23261 13.360065,13.357456 0 0 0 -1.044615,-1.923913 6.8284776,6.8271439 0 0 1 -0.263902,-1.846957 7.4002664,7.3988211 0 0 1 0.593781,-2.484596 6.1357336,6.1345351 0 0 0 1.869309,0.417763 8.0600228,8.0584485 0 0 0 1.660388,-0.109937 3.6836393,3.6829198 0 0 0 0.48382,1.275279 10.292198,10.290188 0 0 1 0.989635,2.583541 3.4747165,3.4740378 0 0 0 -1.737359,1.330248 7.5652056,7.5637279 0 0 0 -1.253537,3.968758 21.420088,21.415904 0 0 0 3.111851,-1.605092 36.759422,36.752241 0 0 0 0.736728,4.26559 c 0,0 2.606037,-2.121801 3.067867,-3.979752 0,0 1.29752,2.49559 2.672013,2.605528 A 15.867139,15.86404 0 0 0 37.441274,20.941759 3.7386191,3.7378888 0 0 0 35.604952,19.138777 17.593501,17.590065 0 0 0 35.000176,14.543372 9.6764257,9.6745357 0 0 0 32.976923,11.509087 C 32.515094,11.168279 31.547451,9.9809492 28.072735,9.51921 27.698873,9.4092721 27.533933,8.15598 25.752592,8.0350482 A 3.6176637,3.6169571 0 0 0 23.355477,8.419831 2.9469115,2.9463358 0 0 0 21.947996,7.1555451 c 0,0 0.197927,-0.3518014 0.835692,-0.2088821 a 2.6500211,2.6495035 0 0 0 -1.396484,-1.0993789 0.71473598,0.71459639 0 0 1 0.879675,-0.1978881 4.0025215,4.0017398 0 0 0 -1.3525,-1.0993791 2.0782323,2.0778264 0 0 1 1.198557,0.1649069 2.9139237,2.9133545 0 0 0 -1.506443,-1.2532922 0.98963444,0.98944115 0 0 0 0,-0.8025467 1.957277,1.9568947 0 0 0 -1.418477,-1.0444101 1.0006304,1.0004349 0 0 0 -0.75872,-0.81354048 3.4967083,3.4960254 0 0 0 -3.46372,1.00043488 c 0,0 -0.164939,0 -0.186931,0 a 2.8149602,2.8144104 0 0 0 -0.428841,0 c -0.373862,0.065962 -0.560793,0.3298138 -0.384858,0.6926089 a 1.253537,1.2532921 0 0 0 0,1.099379 c 0,-0.065962 -0.274898,0.2308696 -0.285895,0.2528572 l -0.307886,0.3847826 a 4.8052251,4.8042864 0 0 0 -0.571789,0.945466 C 12.348543,6.1770978 12.634437,6.5069113 13.19523,6.682812 a 0.47282535,0.47273299 0 0 0 0.263903,0.5606833 3.7606109,3.7598764 0 0 0 1.638394,0.3627951 c 0,0 -0.307886,0.2858386 0.208923,0.8685095 a 1.7263623,1.7260252 0 0 0 -0.516809,0.6156523 z"
     id="path59"
     style="isolation:isolate;stroke:#888a85" />
  <path
     class="cls-17"
     d="m 18.319338,27.087287 a 13.041182,13.038636 0 0 1 2.364126,-3.902796 1.0995938,1.0993791 0 0 0 -0.395854,-1.704037 3.7935987,3.7928577 0 0 1 -0.428842,1.50615 5.0361397,5.035156 0 0 1 -0.824694,1.011428 c -0.351871,0.296832 -0.648761,-0.109938 -0.648761,-0.109938 l -0.10996,1.91292 z"
     id="path60"
     style="isolation:isolate;stroke-width:0.999996;fill:#808080;fill-opacity:1" />
  <path
     class="cls-17"
     d="m 14.569722,16.071509 -0.164938,-0.274845 a 0.38485783,0.38478267 0 0 1 -0.06598,-0.186894 0.13195126,0.13192548 0 0 1 0.109959,-0.142919 0.18693095,0.18689444 0 0 1 0.120955,0.06597 c 0.219919,0.208882 0.494818,0.483727 0.791708,0.395777 a 0.6047766,0.60465848 0 0 1 0.186931,-0.05497 c 0.109959,0 0.175935,0.08795 0.252906,0.153913 a 2.1991877,2.1987581 0 0 0 1.253537,-0.120932 14.228744,14.225965 0 0 1 -1.59441,1.099379 c -0.274899,0.06596 -0.670753,-0.549689 -0.890672,-0.934472 z"
     id="path61"
     style="isolation:isolate;stroke-width:0.999996" />
  <path
     class="cls-17"
     d="M 27.401982,14.631322 C 26.742226,14.257533 26.368364,13.476974 25.56566,13.454987 h -1.044614 a 3.8705703,3.8698142 0 0 1 -1.253536,2.033852 0.62676848,0.62664606 0 0 0 0.307885,0.120931 c 0.07698,0 -0.516808,0.626646 -0.571788,0.692608 -0.05498,0.06597 0.94565,0 1.264533,0.373789 0.318882,0.37379 -0.681748,1.165342 -0.417846,1.33025 0.263903,0.164906 0.846688,0.09894 0.791708,0.58267 -0.05498,0.483727 0.263902,0.582671 0.692744,0.90149 a 13.612971,13.610313 0 0 0 1.539431,0.747579 c 0.263902,0.153913 -1.099594,-3.243169 -1.099594,-3.243169 l 0.901667,-1.956894 z"
     id="path62"
     style="isolation:isolate;fill:#747771;fill-opacity:1;stroke-width:0.999996" />
  <path
     class="cls-17"
     d="m 28.831454,14.807224 a 4.1894525,4.1886341 0 0 0 3.034879,-1.220312 c 0,0 0.362866,0.505715 -1.385488,1.649069 z"
     id="path63"
     style="isolation:isolate;stroke-width:0.999996" />
  <path
     class="cls-17"
     d="m 14.30582,14.74126 a 6.7515061,6.7501874 0 0 1 -0.329878,-2.561552 c 0.07697,-0.46174 0.142947,-1.09938 -0.07697,-1.264286 -0.219919,-0.164908 -0.461829,0.428757 -0.571789,1.099378 0,0.351802 0.07698,1.099379 0.08797,1.770001 a 2.320143,2.3196898 0 0 1 -0.450833,1.62708 c 0.296891,0 0.472826,-0.340807 0.75872,-0.417763 z"
     id="path64"
     style="isolation:isolate;stroke-width:0.999996" />
  <path
     class="cls-17"
     d="M 14.789641,7.4413835 A 12.227483,12.225095 0 0 0 17.835516,6.6718182 C 18.594236,6.3310109 18.93511,5.7263525 18.88013,6.166104 a 3.5956719,3.5949694 0 0 1 -1.429472,1.7150312 c -0.692744,0.5057143 -1.297521,0.5057143 -1.198557,0.8575157 0.09896,0.3518013 0.252907,0.571677 -0.131951,0.7695653 -0.384858,0.1978882 0.384858,0.9124848 0.384858,0.9124848 0,0 -1.715367,0.06596 -1.682379,-0.9454662 0.03298,-1.0114287 0.373862,-0.5167082 0.186931,-1.0993791 A 4.7172575,4.7163361 0 0 1 14.789641,7.4413835 Z"
     id="path65"
     style="isolation:isolate;stroke-width:0.999996" />
  <path
     class="cls-17"
     d="M 11.908705,6.7817561 C 11.49086,7.100576 11.160982,7.5843028 10.644173,7.6722531 A 1.6493907,1.6490685 0 0 1 9.4016319,7.2544891 0.90166694,0.90149082 0 0 0 10.149356,8.1449862 1.3854882,1.3852176 0 0 1 9.2366927,8.3428743 1.7373582,1.7370189 0 0 0 10.62218,8.782626 3.1778261,3.1772054 0 0 0 12.117628,7.9690855 3.2987815,3.2981372 0 0 1 14.151877,6.7377809 1.4624598,1.4621742 0 0 0 14.679682,6.6278431 2.9689033,2.9683234 0 0 0 11.908705,6.7817561 Z"
     id="path66"
     style="isolation:isolate;stroke-width:0.999996" />
  <path
     class="cls-17"
     d="m 18.330333,15.906602 c 0,0 0.648761,0.131926 0.692744,0.14292 0.35187,0.05497 0.681748,0 0.956647,0.1759 a 2.0232526,2.0228574 0 0 0 1.638394,0 c 0.2749,-0.153913 0.593782,-0.31882 0.86868,-0.1759 0.07697,0 0.142947,0.109938 0.230914,0.153912 0.527805,0.274845 1.484452,-0.560683 1.682379,-1.022422 a 0.2309147,0.2308696 0 0 0 -0.120956,-0.307826 0.30788627,0.30782614 0 0 0 -0.219918,0 c -0.252907,0.153913 -0.450833,0.417764 -0.747724,0.461739 -0.29689,0.04397 -0.835691,-0.329813 -1.231545,-0.186894 a 1.3195126,1.3192548 0 0 0 -0.373862,0.23087 1.4624598,1.4621742 0 0 1 -1.825325,-0.153914 c -0.274899,0.384783 -0.659756,0.340808 -1.099594,0.340808 a 0.47282535,0.47273299 0 0 0 -0.450834,0.340807 z"
     id="path67"
     style="isolation:isolate;fill:#666864;fill-opacity:1;stroke-width:0.999996" />
  <path
     id="polyline67"
     style="isolation:isolate;fill:none;stroke:url(#linear-gradient-36);stroke-width:0.999996;stroke-miterlimit:10"
     class="cls-48"
     d="M 25.246778,21.579398 22.112936,20.875795 19.308972,20.392069" />
  <path
     id="circle67"
     style="isolation:isolate;fill:#4e9806;stroke-width:0.999996"
     class="cls-18"
     d="M 9.5775669,16.467286 A 0.84668722,0.84652185 0 0 1 8.7308796,17.313808 0.84668722,0.84652185 0 0 1 7.8841924,16.467286 0.84668722,0.84652185 0 0 1 8.7308796,15.620763 0.84668722,0.84652185 0 0 1 9.5775669,16.467286 Z" />
  <path
     class="cls-4"
     d="m 33.482736,1.9664761 7.400266,3.1222365 c 1.099594,1.6710559 1.407481,5.3649694 1.506444,7.7726104"
     id="path68"
     style="isolation:isolate" />
  <path
     id="circle68"
     style="isolation:isolate;fill:#4e9806;stroke-width:0.999996"
     class="cls-18"
     d="m 20.309603,20.392069 a 1.0006304,1.000435 0 0 1 -1.00063,1.000435 1.0006304,1.000435 0 0 1 -1.00063,-1.000435 1.0006304,1.000435 0 0 1 1.00063,-1.000436 1.0006304,1.000435 0 0 1 1.00063,1.000436 z" />
  <path
     class="cls-49"
     d="m 25.246778,21.579398 a 23.894174,23.889506 0 0 0 -5.706892,8.850001"
     id="path69"
     style="isolation:isolate;stroke:url(#linear-gradient-37);stroke-width:0.999996" />
  <path
     id="line69"
     style="isolation:isolate;fill:none;stroke:url(#linear-gradient-38);stroke-width:0.999996;stroke-miterlimit:10"
     class="cls-50"
     d="M 19.539886,30.429398 16.801897,40.8735" />
  <path
     id="circle69"
     style="isolation:isolate;fill:#4e9806;stroke-width:0.999996"
     class="cls-18"
     d="m 20.540517,30.429398 a 1.0006304,1.000435 0 0 1 -1.000631,1.000436 1.0006304,1.000435 0 0 1 -1.00063,-1.000436 1.0006304,1.000435 0 0 1 1.00063,-1.000435 1.0006304,1.000435 0 0 1 1.000631,1.000435 z" />
  <path
     id="circle70"
     style="isolation:isolate;fill:#4e9806;stroke-width:0.999996"
     class="cls-18"
     d="m 26.247409,21.579398 a 1.0006304,1.000435 0 0 1 -1.000631,1.000435 1.0006304,1.000435 0 0 1 -1.00063,-1.000435 1.0006304,1.000435 0 0 1 1.00063,-1.000435 1.0006304,1.000435 0 0 1 1.000631,1.000435 z" />
  <path
     id="line70"
     style="isolation:isolate;fill:none;stroke:#8ae234;stroke-width:0.999996;stroke-miterlimit:10"
     class="cls-44"
     d="M 25.037856,10.409707 25.587652,9.8600175" />
  <path
     id="line71"
     style="isolation:isolate;fill:none;stroke:#8ae234;stroke-width:0.999996;stroke-miterlimit:10;stroke-dasharray:1.31, 1.31"
     class="cls-51"
     d="M 26.599279,8.8485888 32.207207,3.2527494" />
  <path
     id="line72"
     style="isolation:isolate;fill:none;stroke:#8ae234;stroke-width:0.999996;stroke-miterlimit:10"
     class="cls-44"
     d="M 32.71302,2.7470354 33.251822,2.2083395" />
  <path
     id="circle72"
     style="isolation:isolate;fill:#4e9806;stroke-width:0.999996"
     class="cls-18"
     d="m 26.390357,10.552626 a 1.3085167,1.3082612 0 0 1 -1.308516,1.308261 1.3085167,1.3082612 0 0 1 -1.308517,-1.308261 1.3085167,1.3082612 0 0 1 1.308517,-1.3082608 1.3085167,1.3082612 0 0 1 1.308516,1.3082608 z" />
  <path
     id="circle73"
     style="isolation:isolate;fill:#4e9a06;stroke-width:0.999996"
     class="cls-52"
     d="m 35.319058,1.9994574 a 1.8143298,1.8139755 0 0 1 -1.81433,1.8139754 1.8143298,1.8139755 0 0 1 -1.81433,-1.8139754 1.8143298,1.8139755 0 0 1 1.81433,-1.81397546 1.8143298,1.8139755 0 0 1 1.81433,1.81397546 z" />
  <path
     id="circle74"
     style="isolation:isolate;fill:#8ae234;stroke-width:0.999996"
     class="cls-3"
     d="M 34.274444,1.9994574 A 0.76971567,0.76956533 0 0 1 33.504728,2.7690228 0.76971567,0.76956533 0 0 1 32.735012,1.9994574 0.76971567,0.76956533 0 0 1 33.504728,1.229892 0.76971567,0.76956533 0 0 1 34.274444,1.9994574 Z" />
  <path
     id="circle75"
     style="isolation:isolate;fill:#4e9a06;stroke-width:0.999996"
     class="cls-52"
     d="m 42.466416,5.1656691 a 1.6493907,1.6490685 0 0 1 -1.649392,1.6490684 1.6493907,1.6490685 0 0 1 -1.64939,-1.6490684 1.6493907,1.6490685 0 0 1 1.64939,-1.6490685 1.6493907,1.6490685 0 0 1 1.649392,1.6490685 z" />
  <path
     id="circle76"
     style="isolation:isolate;fill:#8ae234;stroke-width:0.999996"
     class="cls-3"
     d="m 41.443793,5.1656691 a 0.62676847,0.62664605 0 0 1 -0.626769,0.6266461 0.62676847,0.62664605 0 0 1 -0.626767,-0.6266461 0.62676847,0.62664605 0 0 1 0.626767,-0.626646 0.62676847,0.62664605 0 0 1 0.626769,0.626646 z" />
</svg>
