<?xml version="1.0" encoding="UTF-8" standalone="no"?>
<svg
   viewBox="0 0 48 48"
   version="1.1"
   id="svg2223"
   sodipodi:docname="bonesolidify.svg"
   inkscape:version="1.1 (c68e22c387, 2021-05-23)"
   xmlns:inkscape="http://www.inkscape.org/namespaces/inkscape"
   xmlns:sodipodi="http://sodipodi.sourceforge.net/DTD/sodipodi-0.dtd"
   xmlns:xlink="http://www.w3.org/1999/xlink"
   xmlns="http://www.w3.org/2000/svg"
   xmlns:svg="http://www.w3.org/2000/svg"
   xmlns:rdf="http://www.w3.org/1999/02/22-rdf-syntax-ns#"
   xmlns:cc="http://creativecommons.org/ns#"
   xmlns:dc="http://purl.org/dc/elements/1.1/">
  <sodipodi:namedview
     id="namedview2225"
     pagecolor="#ffffff"
     bordercolor="#666666"
     borderopacity="1.0"
     inkscape:pageshadow="2"
     inkscape:pageopacity="0.0"
     inkscape:pagecheckerboard="0"
     showgrid="false"
     inkscape:zoom="15.6875"
     inkscape:cx="24"
     inkscape:cy="24.12749"
     inkscape:window-width="2880"
     inkscape:window-height="1557"
     inkscape:window-x="-8"
     inkscape:window-y="-8"
     inkscape:window-maximized="1"
     inkscape:current-layer="svg2223" />
  <defs
     id="defs2140">
    <style
       id="style2119">.cls-1{isolation:isolate;}.cls-2{fill:url(#radial-gradient);}.cls-3{fill:#e2e1cf;}.cls-4{fill:url(#linear-gradient);}.cls-5{fill:#a8a796;}.cls-6{mix-blend-mode:multiply;}.cls-7{fill:url(#linear-gradient-2);}.cls-8{fill:url(#linear-gradient-3);}.cls-13,.cls-9{fill:none;stroke-miterlimit:10;stroke-width:0.7px;}.cls-9{stroke:#7b7c7a;}.cls-10{fill:#eeeeec;}.cls-11{fill:url(#linear-gradient-4);}.cls-12{fill:#babdb6;}.cls-13{stroke:#91938d;}</style>
    <radialGradient
       id="radial-gradient"
       cx="77.93"
       cy="91.61"
       r="14.62"
       gradientTransform="matrix(1.54,0,0,0.33,-97.963586,12.738367)"
       gradientUnits="userSpaceOnUse">
      <stop
         offset="0.07"
         stop-color="#2c2c2c"
         stop-opacity="0.3"
         id="stop2121" />
      <stop
         offset="0.27"
         stop-color="#2c2c2c"
         stop-opacity="0.2"
         id="stop2123" />
      <stop
         offset="0.85"
         stop-color="#2c2c2c"
         stop-opacity="0"
         id="stop2125" />
    </radialGradient>
    <linearGradient
       id="linear-gradient"
       x1="14.42"
       y1="23.07"
       x2="15.08"
       y2="27.29"
       gradientTransform="translate(-9.03 15.28) rotate(-30)"
       gradientUnits="userSpaceOnUse">
      <stop
         offset="0"
         stop-color="#fff"
         stop-opacity="0"
         id="stop2128" />
      <stop
         offset="1"
         stop-color="snow"
         id="stop2130" />
    </linearGradient>
    <linearGradient
       id="linear-gradient-2"
       x1="16.31"
       y1="30.57"
       x2="13.93"
       y2="5.44"
       gradientTransform="translate(-9.03 15.28) rotate(-30)"
       gradientUnits="userSpaceOnUse">
      <stop
         offset="0"
         stop-color="#fff"
         id="stop2133" />
      <stop
         offset="1"
         stop-color="#555753"
         id="stop2135" />
    </linearGradient>
    <linearGradient
       id="linear-gradient-3"
       x1="14.19"
       y1="24.2"
       x2="23.53"
       y2="7.9"
       xlink:href="#linear-gradient-2" />
    <linearGradient
       id="linear-gradient-4"
       x1="34.01"
       y1="25.02"
       x2="33.49"
       y2="22.62"
       xlink:href="#linear-gradient"
       gradientTransform="translate(-2.1035857,4.9083665)" />
    <linearGradient
       inkscape:collect="always"
       xlink:href="#linear-gradient"
       id="linearGradient2284"
       gradientUnits="userSpaceOnUse"
       gradientTransform="rotate(-30,32.105212,30.869737)"
       x1="14.42"
       y1="23.07"
       x2="15.08"
       y2="27.29" />
    <linearGradient
       inkscape:collect="always"
       xlink:href="#linear-gradient-2"
       id="linearGradient2286"
       gradientUnits="userSpaceOnUse"
       gradientTransform="rotate(-30,23.997868,24.490209)"
       x1="16.31"
       y1="30.57"
       x2="13.93"
       y2="5.44" />
  </defs>
  <title
     id="title2142">3-BoneSolidify</title>
  <ellipse
     class="cls-2"
     cx="21.896414"
     cy="43.158367"
     rx="21.610001"
     ry="4.6799998"
     id="ellipse2144"
     style="isolation:isolate;fill:url(#radial-gradient)" />
  <g
     id="g2402"
     transform="matrix(1.2554872,0,0,1.2572124,-3.4256442,-10.894204)"
     style="stroke-width:0.795957">
    <path
       class="cls-3"
       d="m 23.046414,30.908366 c 0.37,-0.21 0.14,-1.28 -0.49,-2.38 -0.63,-1.1 -1.45,-1.83 -1.81,-1.62 l -8.8,5.08 c -2.1299997,1.230001 -3.1299997,0.9 -4.0899997,0.65 a 4,4 0 0 0 -3.33,0.11 3,3 0 0 0 -1.09,3.66 5,5 0 0 0 1,1.27 3.48,3.48 0 0 1 1.16,1.92 5,5 0 0 0 0.58,1.55 3,3 0 0 0 3.71,0.88 3.94,3.94 0 0 0 1.7599997,-2.82 c 0.26,-1 0.48,-2 2.61,-3.23 z"
       id="path2146"
       style="isolation:isolate;stroke-width:0.795957" />
    <path
       class="cls-4"
       d="m 23.046414,30.908366 c 0.37,-0.21 0.14,-1.28 -0.49,-2.38 -0.63,-1.1 -1.45,-1.83 -1.81,-1.62 l -8.8,5.08 c -2.1299997,1.230001 -3.1299997,0.9 -4.0899997,0.65 a 4,4 0 0 0 -3.33,0.11 3,3 0 0 0 -1.09,3.66 5,5 0 0 0 1,1.27 3.48,3.48 0 0 1 1.16,1.92 5,5 0 0 0 0.58,1.55 3,3 0 0 0 3.71,0.88 3.94,3.94 0 0 0 1.7599997,-2.82 c 0.26,-1 0.48,-2 2.61,-3.23 z"
       id="path2148"
       style="isolation:isolate;fill:url(#linearGradient2284);stroke-width:0.795957" />
    <circle
       class="cls-5"
       cx="21.846415"
       cy="29.668367"
       r="0.41"
       id="circle2150"
       style="isolation:isolate;stroke-width:0.795957" />
    <circle
       class="cls-5"
       cx="21.666414"
       cy="28.178368"
       r="0.41"
       id="circle2152"
       style="isolation:isolate;stroke-width:0.795957" />
    <circle
       class="cls-5"
       cx="18.506414"
       cy="30.108368"
       r="0.41"
       id="circle2154"
       style="isolation:isolate;stroke-width:0.795957" />
    <circle
       class="cls-5"
       cx="19.996414"
       cy="29.008368"
       r="0.54000002"
       id="circle2156"
       style="isolation:isolate;stroke-width:0.795957" />
    <circle
       class="cls-5"
       cx="18.656414"
       cy="31.848368"
       r="0.54000002"
       id="circle2158"
       style="isolation:isolate;stroke-width:0.795957" />
    <circle
       class="cls-5"
       cx="20.276413"
       cy="30.578367"
       r="0.57999998"
       id="circle2160"
       style="isolation:isolate;stroke-width:0.795957" />
    <circle
       class="cls-5"
       cx="16.946413"
       cy="30.988367"
       r="0.57999998"
       id="circle2162"
       style="isolation:isolate;stroke-width:0.795957" />
    <circle
       class="cls-5"
       cx="16.426414"
       cy="32.538364"
       r="0.41"
       id="circle2164"
       style="isolation:isolate;stroke-width:0.795957" />
    <circle
       class="cls-5"
       cx="13.476415"
       cy="33.018368"
       r="0.41"
       id="circle2166"
       style="isolation:isolate;stroke-width:0.795957" />
    <circle
       class="cls-5"
       cx="14.756415"
       cy="32.028366"
       r="0.54000002"
       id="circle2168"
       style="isolation:isolate;stroke-width:0.795957" />
    <circle
       class="cls-5"
       cx="13.236415"
       cy="34.688366"
       r="0.54000002"
       id="circle2170"
       style="isolation:isolate;stroke-width:0.795957" />
    <circle
       class="cls-5"
       cx="15.166415"
       cy="33.948368"
       r="0.57999998"
       id="circle2172"
       style="isolation:isolate;stroke-width:0.795957" />
    <circle
       class="cls-5"
       cx="11.606415"
       cy="33.958366"
       r="0.57999998"
       id="circle2174"
       style="isolation:isolate;stroke-width:0.795957" />
    <circle
       class="cls-5"
       cx="11.556415"
       cy="35.648365"
       r="0.41"
       id="circle2176"
       style="isolation:isolate;stroke-width:0.795957" />
    <circle
       class="cls-5"
       cx="8.7464151"
       cy="36.498367"
       r="0.41"
       id="circle2178"
       style="isolation:isolate;stroke-width:0.795957" />
    <circle
       class="cls-5"
       cx="9.7264147"
       cy="34.938366"
       r="0.54000002"
       id="circle2180"
       style="isolation:isolate;stroke-width:0.795957" />
    <circle
       class="cls-5"
       cx="8.2164145"
       cy="38.208366"
       r="0.54000002"
       id="circle2182"
       style="isolation:isolate;stroke-width:0.795957" />
    <circle
       class="cls-5"
       cx="10.676414"
       cy="37.088367"
       r="0.57999998"
       id="circle2184"
       style="isolation:isolate;stroke-width:0.795957" />
    <circle
       class="cls-5"
       cx="6.7064147"
       cy="36.578365"
       r="0.57999998"
       id="circle2186"
       style="isolation:isolate;stroke-width:0.795957" />
    <circle
       class="cls-5"
       cx="6.3764138"
       cy="38.348366"
       r="0.41"
       id="circle2188"
       style="isolation:isolate;stroke-width:0.795957" />
    <circle
       class="cls-5"
       cx="6.1164145"
       cy="34.328365"
       r="0.49000001"
       id="circle2190"
       style="isolation:isolate;stroke-width:0.795957" />
    <circle
       class="cls-5"
       cx="5.0964141"
       cy="35.738365"
       r="0.54000002"
       id="circle2192"
       style="isolation:isolate;stroke-width:0.795957" />
    <circle
       class="cls-5"
       cx="7.9864144"
       cy="34.868366"
       r="0.57999998"
       id="circle2194"
       style="isolation:isolate;stroke-width:0.795957" />
    <circle
       class="cls-5"
       cx="9.0964146"
       cy="40.598366"
       r="0.49000001"
       id="circle2196"
       style="isolation:isolate;stroke-width:0.795957" />
    <circle
       class="cls-5"
       cx="7.5164142"
       cy="40.068367"
       r="0.54000002"
       id="circle2198"
       style="isolation:isolate;stroke-width:0.795957" />
    <circle
       class="cls-5"
       cx="9.656415"
       cy="38.828365"
       r="0.57999998"
       id="circle2200"
       style="isolation:isolate;stroke-width:0.795957" />
    <g
       class="cls-6"
       id="g2204"
       transform="translate(-2.1035857,4.9083665)"
       style="isolation:isolate;stroke-width:0.795957">
      <path
         class="cls-7"
         d="M 6.6,32.77 A 4.79,4.79 0 0 1 5.54,31.5 3,3 0 0 1 6.63,27.84 3.94,3.94 0 0 1 10,27.73 c 1,0.25 2,0.58 4.1,-0.65 l 11.1,-6.41 c -0.31,0.18 -0.19,1 0.25,1.88 L 14.26,29 C 12.1,30.25 11.01,30.25 10.09,30 9.17,29.75 8.28,29.32 7.64,29.69 a 1.3,1.3 0 0 0 -0.35,2 c 0.46,0.69 0.91,0.6 1.4,1.45 0.34,0.59 0.1,1.61 0.65,2.57 0.55,0.96 1.28,1.91 2.65,1.48 A 3,3 0 0 1 8.28,36.31 5,5 0 0 1 7.7,34.75 3.53,3.53 0 0 0 6.6,32.77 Z"
         id="path2202"
         style="fill:url(#linearGradient2286);stroke-width:0.795957" />
    </g>
    <g
       class="cls-6"
       id="g2208"
       transform="translate(-2.1035857,4.9083665)"
       style="isolation:isolate;stroke-width:0.795957">
      <path
         class="cls-8"
         d="M 6.6,32.77 A 4.79,4.79 0 0 1 5.54,31.5 3,3 0 0 1 6.63,27.84 3.94,3.94 0 0 1 10,27.73 c 1,0.25 2,0.58 4.1,-0.65 l 11.1,-6.41 c -0.31,0.18 -0.19,1 0.25,1.88 L 14.26,29 C 12.1,30.25 11.01,30.25 10.09,30 9.17,29.75 8.28,29.32 7.64,29.69 a 1.3,1.3 0 0 0 -0.35,2 c 0.46,0.69 0.91,0.6 1.4,1.45 0.34,0.59 0.1,1.61 0.65,2.57 0.55,0.96 1.28,1.91 2.65,1.48 A 3,3 0 0 1 8.28,36.31 5,5 0 0 1 7.7,34.75 3.53,3.53 0 0 0 6.6,32.77 Z"
         id="path2206"
         style="fill:url(#linear-gradient-3);stroke-width:0.795957" />
    </g>
    <path
       class="cls-9"
       d="m 23.046414,30.908366 c 0.37,-0.21 0.14,-1.28 -0.49,-2.38 -0.63,-1.1 -1.45,-1.83 -1.81,-1.62 l -8.8,5.08 c -2.1299997,1.230001 -3.1299997,0.9 -4.0899997,0.65 a 4,4 0 0 0 -3.33,0.11 3,3 0 0 0 -1.09,3.66 5,5 0 0 0 1,1.27 3.48,3.48 0 0 1 1.16,1.92 5,5 0 0 0 0.58,1.55 3,3 0 0 0 3.71,0.88 3.94,3.94 0 0 0 1.7599997,-2.82 c 0.26,-1 0.48,-2 2.61,-3.23 z"
       id="path2210"
       style="isolation:isolate" />
    <path
       class="cls-10"
       d="m 23.046414,30.908366 c 0.37,-0.21 0.14,-1.28 -0.49,-2.38 -0.63,-1.1 -1.45,-1.83 -1.81,-1.62 l 8.79,-5.07 c 2.13,-1.24 2.35,-2.27 2.61,-3.23 a 3.94,3.94 0 0 1 1.75,-2.82 3,3 0 0 1 3.71,0.88 5,5 0 0 1 0.58,1.550001 3.48,3.48 0 0 0 1.11,1.919999 5,5 0 0 1 1.05,1.27 3,3 0 0 1 -1.09,3.66 4,4 0 0 1 -3.33,0.11 c -1,-0.25 -2,-0.58 -4.09,0.65 z"
       id="path2212"
       style="isolation:isolate;stroke-width:0.795957" />
    <path
       class="cls-11"
       d="m 34.636414,16.788367 a 2.19,2.19 0 0 0 -0.74,2.189999 c 0.19,1 -0.17,2.240001 -1.8,3.18 l -9.96,5.75 c -0.54,-0.75 -1.1,-1.16 -1.39,-1 l 8.79,-5.07 c 2.14,-1.24 2.35,-2.27 2.61,-3.23 a 4.33,4.33 0 0 1 1.33,-2.529999 v 0 a 4.63,4.63 0 0 1 0.84,-0.28 c 0.43,0.02 0.84,0.649999 0.32,0.99 z"
       id="path2214"
       style="isolation:isolate;fill:url(#linear-gradient-4);stroke-width:0.795957" />
    <path
       class="cls-12"
       d="m 39.296414,20.138366 a 4.79,4.79 0 0 1 1.06,1.27 3,3 0 0 1 -1.09,3.66 3.94,3.94 0 0 1 -3.33,0.11 c -1,-0.25 -2,-0.58 -4.1,0.65 l -8.79,5.08 c 0.31,-0.18 0.19,-1 -0.24,-1.89 l 8.83,-5.11 c 2.16,-1.25 3.25,-1.25 4.17,-1 0.92,0.25 1.81,0.68 2.45,0.31 a 1.3,1.3 0 0 0 0.35,-2 c -0.46,-0.69 -0.91,-0.6 -1.4,-1.45 -0.34,-0.59 -0.1,-1.61 -0.65,-2.57 -0.55,-0.96 -1,-1.62 -2.41,-1.199999 a 2.6,2.6 0 0 1 3.47,0.599999 5,5 0 0 1 0.58,1.56 3.53,3.53 0 0 0 1.1,1.98 z"
       id="path2216"
       style="isolation:isolate;stroke-width:0.795957" />
    <path
       class="cls-13"
       d="m 23.046414,30.908366 c 0.37,-0.21 0.14,-1.28 -0.49,-2.38 -0.63,-1.1 -1.45,-1.83 -1.81,-1.62 l 8.79,-5.07 c 2.13,-1.24 2.35,-2.27 2.61,-3.23 a 3.94,3.94 0 0 1 1.75,-2.82 3,3 0 0 1 3.71,0.88 5,5 0 0 1 0.58,1.550001 3.48,3.48 0 0 0 1.11,1.919999 5,5 0 0 1 1.05,1.27 3,3 0 0 1 -1.09,3.66 4,4 0 0 1 -3.33,0.11 c -1,-0.25 -2,-0.58 -4.09,0.65 z"
       id="path2218"
       style="isolation:isolate" />
  </g>
  <metadata
     id="metadata2404">
    <rdf:RDF>
      <cc:Work
         rdf:about="">
        <dc:title>3-BoneSolidify</dc:title>
      </cc:Work>
    </rdf:RDF>
  </metadata>
</svg>
