<?xml version="1.0" encoding="UTF-8" standalone="no"?>
<svg
   viewBox="0 0 48 48"
   version="1.1"
   id="svg28"
   sodipodi:docname="cloudshapefromline.svg"
   inkscape:version="1.3 (0e150ed6c4, 2023-07-21)"
   xmlns:inkscape="http://www.inkscape.org/namespaces/inkscape"
   xmlns:sodipodi="http://sodipodi.sourceforge.net/DTD/sodipodi-0.dtd"
   xmlns:xlink="http://www.w3.org/1999/xlink"
   xmlns="http://www.w3.org/2000/svg"
   xmlns:svg="http://www.w3.org/2000/svg">
  <sodipodi:namedview
     id="namedview28"
     pagecolor="#ffffff"
     bordercolor="#666666"
     borderopacity="1.0"
     inkscape:showpageshadow="2"
     inkscape:pageopacity="0.0"
     inkscape:pagecheckerboard="0"
     inkscape:deskcolor="#d1d1d1"
     showgrid="false"
     inkscape:zoom="16.278187"
     inkscape:cx="24.480613"
     inkscape:cy="25.709251"
     inkscape:window-width="2560"
     inkscape:window-height="1377"
     inkscape:window-x="-8"
     inkscape:window-y="-8"
     inkscape:window-maximized="1"
     inkscape:current-layer="svg28" />
  <defs
     id="defs11">
    <linearGradient
       id="linearGradient30"
       inkscape:collect="always">
      <stop
         style="stop-color:#000000;stop-opacity:0.36477986;"
         offset="0"
         id="stop30" />
      <stop
         style="stop-color:#000000;stop-opacity:0;"
         offset="1"
         id="stop31" />
    </linearGradient>
    <radialGradient
       id="radial-gradient"
       cx="-101.08"
       cy="-41.27"
       fx="-101.08"
       fy="-41.27"
       r="11.9"
       gradientTransform="matrix(1.83,0,0,0.78,209.2,70.71)"
       gradientUnits="userSpaceOnUse">
      <stop
         offset=".32"
         stop-color="#2c2c2c"
         stop-opacity=".5"
         id="stop1" />
      <stop
         offset=".73"
         stop-color="#2c2c2c"
         stop-opacity=".1"
         id="stop2" />
      <stop
         offset=".99"
         stop-color="#2c2c2c"
         stop-opacity="0"
         id="stop3" />
    </radialGradient>
    <linearGradient
       id="linear-gradient"
       x1="20.58"
       y1="16.05"
       x2="28.05"
       y2="47.83"
       gradientUnits="userSpaceOnUse">
      <stop
         offset=".2"
         stop-color="#fff"
         stop-opacity=".1"
         id="stop4" />
      <stop
         offset=".79"
         stop-color="#6d93c2"
         id="stop5" />
    </linearGradient>
    <linearGradient
       id="linear-gradient-2"
       x1="22.97"
       y1="20.9"
       x2="25.51"
       y2="40.05"
       gradientUnits="userSpaceOnUse">
      <stop
         offset="0"
         stop-color="#d4e2f0"
         stop-opacity="0"
         id="stop6" />
      <stop
         offset=".83"
         stop-color="#3465a4"
         id="stop7" />
    </linearGradient>
    <linearGradient
       id="linear-gradient-3"
       x1="-52.7"
       y1="11.96"
       x2="-51.68"
       y2="12.99"
       gradientTransform="translate(82.04 4.1) rotate(-.11)"
       gradientUnits="userSpaceOnUse">
      <stop
         offset="0"
         stop-color="#e9e9e6"
         id="stop8" />
      <stop
         offset="1"
         stop-color="#757772"
         id="stop9" />
    </linearGradient>
    <linearGradient
       id="linear-gradient-4"
       x1="66.53"
       y1="-129.58"
       x2="67.55"
       y2="-129.58"
       gradientTransform="translate(168.31 -28.12) rotate(-135.11)"
       gradientUnits="userSpaceOnUse">
      <stop
         offset="0"
         stop-color="#fff"
         id="stop10" />
      <stop
         offset="1"
         stop-color="#e9e9e6"
         id="stop11" />
    </linearGradient>
    <linearGradient
       id="linear-gradient-5"
       x1="-46.93"
       y1="5.45"
       x2="-45.56"
       y2="6.81"
       xlink:href="#linear-gradient-3" />
    <linearGradient
       id="linear-gradient-6"
       x1="119.1"
       y1="79.91"
       x2="130.34"
       y2="79.91"
       gradientTransform="rotate(-0.11,-36177.616,46661.361)"
       xlink:href="#linear-gradient-4" />
    <linearGradient
       id="linear-gradient-7"
       x1="-6.2"
       y1="-15.27"
       x2="-2.84"
       y2="-11.91"
       gradientTransform="rotate(45,-4.2389881,51.734154)"
       xlink:href="#linear-gradient-3" />
    <linearGradient
       id="linear-gradient-8"
       x1="-4.41"
       y1="-14.55"
       x2="-4.07"
       y2="-14.21"
       gradientTransform="rotate(-0.11,9794.8918,-24325.693)"
       xlink:href="#linear-gradient-3" />
    <linearGradient
       id="linear-gradient-9"
       x1="-4.88"
       y1="-15.05"
       x2="-4.24"
       y2="-14.41"
       gradientTransform="rotate(-0.11,9794.8918,-24325.693)"
       xlink:href="#linear-gradient-3" />
    <linearGradient
       id="linear-gradient-10"
       x1="-4.88"
       y1="-15.05"
       x2="-4.24"
       y2="-14.41"
       gradientTransform="rotate(-0.11,9794.8918,-24325.693)"
       xlink:href="#linear-gradient-3" />
    <linearGradient
       inkscape:collect="always"
       xlink:href="#linear-gradient-3"
       id="linearGradient28"
       gradientUnits="userSpaceOnUse"
       gradientTransform="rotate(-0.11,2176.5893,-42730.171)"
       x1="-52.7"
       y1="11.96"
       x2="-51.68"
       y2="12.99" />
    <linearGradient
       inkscape:collect="always"
       xlink:href="#linear-gradient-4"
       id="linearGradient29"
       gradientUnits="userSpaceOnUse"
       gradientTransform="rotate(-135.11,78.346963,-48.823537)"
       x1="66.53"
       y1="-129.58"
       x2="67.55"
       y2="-129.58" />
    <radialGradient
       inkscape:collect="always"
       xlink:href="#linearGradient30"
       id="radialGradient31"
       cx="24"
       cy="38.669998"
       fx="24"
       fy="38.669998"
       r="20.950001"
       gradientTransform="matrix(1.1392847,0,0,0.42529831,-3.2506858,22.223713)"
       gradientUnits="userSpaceOnUse" />
  </defs>
  <path
     id="ellipse11"
     style="opacity:1;isolation:isolate;mix-blend-mode:multiply;fill:url(#radialGradient31);stroke-width:1"
     d="m 47.960162,38.669998 a 23.868015,8.9099998 0 0 1 -23.868016,8.91 23.868015,8.9099998 0 0 1 -23.8680144,-8.91 23.868015,8.9099998 0 0 1 23.8680144,-8.91 23.868015,8.9099998 0 0 1 23.868016,8.91 z" />
  <g
     id="ART"
     style="isolation:isolate;stroke-width:0.846399"
     transform="matrix(1.1812944,0,0,1.1816567,-4.2755342,-3.4725176)">
    <g
       id="g13"
       style="stroke-width:0.846399">
      <path
         d="M 39.92,26.5 H 38.5 c -0.34,-3.09 -2.95,-5.49 -6.13,-5.49 h -1.66 c -0.65,-2.72 -3.09,-4.74 -6,-4.74 h -1.4 c -2.92,0 -5.35,2.02 -6,4.74 h -1.66 c -3.18,0 -5.79,2.4 -6.13,5.49 H 8.1 c -2.26,0 -4.1,1.83 -4.1,4.1 0,2.27 1.83,4.1 4.1,4.1 h 3.68 c 0.77,1.69 2.47,2.87 4.44,2.87 1.37,0 2.6,-0.56 3.49,-1.47 0.82,1.53 2.44,2.58 4.3,2.58 1.86,0 3.48,-1.04 4.3,-2.58 0.89,0.91 2.12,1.47 3.49,1.47 1.98,0 3.68,-1.18 4.44,-2.87 h 3.68 c 2.26,0 4.1,-1.83 4.1,-4.1 0,-2.27 -1.83,-4.1 -4.1,-4.1 z"
         style="fill:url(#linear-gradient);stroke-width:0.846399"
         id="path11" />
      <path
         d="M 9.5,26.5 H 8.08 c -2.26,0 -4.1,1.83 -4.1,4.1 0,2.27 1.83,4.1 4.1,4.1 h 3.68 c 0.77,1.69 2.47,2.87 4.44,2.87 1.37,0 2.6,-0.56 3.49,-1.47 0.82,1.53 2.44,2.58 4.3,2.58 1.86,0 3.48,-1.04 4.3,-2.58 0.89,0.91 2.12,1.47 3.49,1.47 1.98,0 3.68,-1.18 4.44,-2.87 h 3.68 c 2.26,0 4.1,-1.83 4.1,-4.1 0,-2.27 -1.83,-4.1 -4.1,-4.1 h -1.42 c -0.34,-3.09 -2.95,-5.49 -6.13,-5.49 h -1.66 c -0.31,-1.3 -1.03,-2.43 -2.01,-3.27"
         style="fill:none;stroke:#204a80;stroke-width:0.59248px;stroke-linecap:round;stroke-linejoin:round"
         id="path12" />
      <path
         d="m 40.55,30.63 c 0,1.13 -0.92,2.05 -2.05,2.05 h -4.09 c -0.46,1.63 -1.96,2.83 -3.73,2.83 -1.43,0 -2.67,-0.77 -3.35,-1.92 -0.49,1.37 -1.79,2.36 -3.33,2.36 -1.54,0 -2.84,-0.99 -3.33,-2.36 -0.68,1.15 -1.92,1.92 -3.35,1.92 -1.78,0 -3.27,-1.2 -3.74,-2.83 h -3.56 c -1.13,0 -2.05,-0.91 -2.05,-2.05 0,-1.14 0.92,-2.05 2.05,-2.05 h 4.72 c 0,-0.06 -0.01,-0.11 -0.01,-0.18 0,-2.76 2.24,-5.01 5.02,-5.01 h 1.67 c 2.14,0 4.02,1.08 5.14,2.72 -0.35,-2.47 -2.46,-4.38 -5.01,-4.43 0.81,-1.45 2.36,-2.43 4.14,-2.43 h 0.25 c 2.45,0 4.46,1.85 4.72,4.23 0.3,-0.06 0.59,-0.08 0.9,-0.08 2.69,0 4.88,2.18 4.88,4.88 0,0.1 -0.01,0.2 -0.01,0.3 h 2.08 c 1.13,0 2.05,0.91 2.05,2.05 z"
         style="fill:url(#linear-gradient-2);stroke-width:0.846399"
         id="path13" />
    </g>
    <g
       id="g27"
       style="stroke-width:0.846399">
      <g
         id="g22"
         style="stroke-width:0.846399">
        <path
           d="m 29.91,14.37 c 0,0 -1.29,1.73 -1.2,3.49 1.76,0.09 3.48,-1.21 3.48,-1.21"
           style="fill:url(#linearGradient28);stroke-width:0.846399"
           id="path14" />
        <path
           d="m 29.71,15.3 c -0.31,0.44 -0.53,1.01 -0.68,1.5 -0.12,0.41 -0.12,0.84 0.1,0.5 0.22,-0.34 0.96,-1.19 0.96,-1.19 0,0 -0.33,-0.27 -0.39,-0.82 z"
           style="fill:url(#linearGradient29);stroke-width:0.846399"
           id="path15" />
        <path
           d="M 29.96,14.31 40.61,3.62 c -0.46,0.47 -0.33,1.35 0.3,1.98 0.63,0.63 1.52,0.76 1.98,0.29 L 32.24,16.58 c -0.47,0.47 -1.35,0.33 -1.98,-0.29 -0.63,-0.62 -0.77,-1.51 -0.3,-1.98 z"
           style="fill:#4d4d4d;stroke-width:0.846399"
           id="path16" />
        <path
           d="m 29.91,14.37 c 0,0 -1.29,1.73 -1.2,3.49 1.76,0.09 3.48,-1.21 3.48,-1.21"
           style="fill:none;stroke:#434542;stroke-width:0.29624px;stroke-linecap:round;stroke-linejoin:round"
           id="path17" />
        <g
           id="g21"
           style="stroke-width:0.846399">
          <path
             d="M 29.96,14.31 40.61,3.62 c -0.46,0.47 -0.33,1.35 0.3,1.98 0.63,0.63 1.52,0.76 1.98,0.29 L 32.24,16.58 c -0.47,0.47 -1.35,0.33 -1.98,-0.29 -0.63,-0.62 -0.77,-1.51 -0.3,-1.98 z"
             style="fill:url(#linear-gradient-5);stroke-width:0.846399"
             id="path18" />
          <polygon
             points="40.84,5.4 30.18,16.09 29.61,15.52 40.59,4.49 "
             style="fill:url(#linear-gradient-6);stroke-width:0.846399"
             id="polygon18" />
          <path
             d="M 30.65,16.6 41.4,5.81 c 0.11,-0.11 0.29,-0.11 0.4,0 0.11,0.11 0.11,0.29 0,0.4 L 31.22,16.83 Z"
             style="fill:#434542;stroke-width:0.846399"
             id="path19" />
          <path
             d="m 30.65,16.6 c 0,0 0,0 0,0 0.18,0.11 0.37,0.19 0.56,0.23"
             style="fill:none;stroke:#434542;stroke-width:0.29624px;stroke-linecap:round;stroke-linejoin:round"
             id="path20" />
          <ellipse
             cx="41.75"
             cy="4.7600002"
             rx="1.1900001"
             ry="1.61"
             transform="rotate(-45.11,41.754869,4.7517744)"
             style="fill:url(#linear-gradient-7);stroke-width:0.846399"
             id="ellipse20" />
          <ellipse
             cx="41.75"
             cy="4.7600002"
             rx="1.1900001"
             ry="1.61"
             transform="rotate(-45.11,41.754869,4.7517744)"
             style="fill:none;stroke:#434542;stroke-width:0.29624px;stroke-linecap:round;stroke-linejoin:round"
             id="ellipse21" />
        </g>
        <path
           d="M 42.89,5.89 32.24,16.58 c -0.47,0.47 -1.35,0.33 -1.98,-0.29 -0.63,-0.63 -0.77,-1.51 -0.3,-1.98 L 40.61,3.62 c 0.47,-0.46 1.35,-0.33 1.98,0.3 0.63,0.63 0.76,1.51 0.3,1.98 z"
           style="fill:none;stroke:#434542;stroke-width:0.29624px;stroke-linecap:round;stroke-linejoin:round"
           id="path21" />
      </g>
      <g
         id="g26"
         style="stroke-width:0.846399">
        <g
           id="g25"
           style="stroke-width:0.846399">
          <path
             d="m 41.61,4.9 c 0.32,0.32 0.74,0.4 0.93,0.21 l 0.43,-0.44 c 0.32,-0.32 0.31,-0.83 0,-1.14 -0.31,-0.31 -0.83,-0.31 -1.14,0 L 41.4,3.97 c -0.19,0.19 -0.1,0.61 0.22,0.93 z"
             style="fill:url(#linear-gradient-8);stroke-width:0.846399"
             id="path22" />
          <path
             d="M 42.98,4.68 42.55,5.11 C 42.41,5.25 42.14,5.24 41.88,5.1 42.09,4.89 42.52,4.45 42.72,4.25 42.97,4 42.98,3.58 42.98,3.54 c 0.32,0.32 0.32,0.83 0,1.14 z"
             style="fill:url(#linear-gradient-9);stroke-width:0.846399"
             id="path23" />
          <path
             d="m 42.98,4.68 -0.43,0.43 c -0.14,0.14 -0.58,-0.04 -0.84,-0.18 0.21,-0.21 0.64,-0.65 0.84,-0.85 0.25,-0.25 0.43,-0.5 0.43,-0.55 0.32,0.32 0.32,0.83 0,1.14 z"
             style="fill:url(#linear-gradient-10);stroke-width:0.846399"
             id="path24" />
          <path
             d="m 41.61,4.9 c 0.32,0.32 0.74,0.4 0.93,0.21 l 0.43,-0.44 c 0.32,-0.32 0.31,-0.83 0,-1.14 -0.31,-0.31 -0.83,-0.31 -1.14,0 L 41.4,3.97 c -0.19,0.19 -0.1,0.61 0.22,0.93 z"
             style="fill:none;stroke:#434542;stroke-width:0.29624px;stroke-linecap:round;stroke-linejoin:round"
             id="path25" />
        </g>
        <path
           d="m 30.65,16.6 c 0,0 -0.53,0.58 -1.12,0.83 0,0 0.75,-0.05 1.68,-0.59"
           style="fill:#434542;stroke-width:0.846399"
           id="path26" />
      </g>
    </g>
  </g>
</svg>
