<?xml version="1.0" encoding="UTF-8" standalone="no"?>
<svg
   viewBox="0 0 48 48"
   version="1.1"
   id="svg62"
   sodipodi:docname="crowdmotionpathedit.svg"
   inkscape:version="1.3 (0e150ed6c4, 2023-07-21)"
   xmlns:inkscape="http://www.inkscape.org/namespaces/inkscape"
   xmlns:sodipodi="http://sodipodi.sourceforge.net/DTD/sodipodi-0.dtd"
   xmlns:xlink="http://www.w3.org/1999/xlink"
   xmlns="http://www.w3.org/2000/svg"
   xmlns:svg="http://www.w3.org/2000/svg">
  <sodipodi:namedview
     id="namedview62"
     pagecolor="#ffffff"
     bordercolor="#666666"
     borderopacity="1.0"
     inkscape:showpageshadow="2"
     inkscape:pageopacity="0.0"
     inkscape:pagecheckerboard="0"
     inkscape:deskcolor="#d1d1d1"
     inkscape:zoom="16.292919"
     inkscape:cx="24.028844"
     inkscape:cy="23.998156"
     inkscape:window-width="2560"
     inkscape:window-height="1378"
     inkscape:window-x="-6"
     inkscape:window-y="-6"
     inkscape:window-maximized="1"
     inkscape:current-layer="svg62" />
  <defs
     id="defs12">
    <linearGradient
       id="linear-gradient"
       x1="24.64"
       y1="37.21"
       x2="19.35"
       y2="15.56"
       gradientUnits="userSpaceOnUse">
      <stop
         offset="0"
         stop-color="#7be028"
         id="stop1" />
      <stop
         offset=".99"
         stop-color="#e0ff70"
         id="stop2" />
    </linearGradient>
    <linearGradient
       id="linear-gradient-2"
       x1="4.14"
       y1="31.17"
       x2="42.11"
       y2="31.17"
       gradientTransform="matrix(0.99999743,0.00226893,0.00240509,0.94000788,-0.09,2.32)"
       gradientUnits="userSpaceOnUse">
      <stop
         offset="0"
         stop-color="#64cc13"
         id="stop3" />
      <stop
         offset="1"
         stop-color="#408b09"
         id="stop4" />
    </linearGradient>
    <radialGradient
       id="radial-gradient"
       cx="-263.87"
       cy="-38.99"
       fx="-263.87"
       fy="-38.99"
       r="4.5"
       gradientTransform="matrix(4.67,0,0,1.02,1255.91,81.88)"
       gradientUnits="userSpaceOnUse">
      <stop
         offset=".32"
         stop-color="#1a1718"
         stop-opacity=".5"
         id="stop5" />
      <stop
         offset=".79"
         stop-color="#1a1718"
         stop-opacity="0"
         id="stop6" />
    </radialGradient>
    <linearGradient
       id="linear-gradient-3"
       x1="27.47"
       y1="21.69"
       x2="26.42"
       y2="25.05"
       gradientTransform="matrix(1, 0, 0, 1, 0, 0)"
       gradientUnits="userSpaceOnUse">
      <stop
         offset="0"
         stop-color="#a2bede"
         id="stop7" />
      <stop
         offset="1"
         stop-color="#285092"
         id="stop8" />
    </linearGradient>
    <linearGradient
       id="linear-gradient-4"
       x1="15.86"
       y1="39.89"
       x2="19.65"
       y2="39.89"
       gradientTransform="matrix(1, 0, 0, 1, 0, 0)"
       gradientUnits="userSpaceOnUse">
      <stop
         offset="0"
         stop-color="#00255d"
         stop-opacity="0"
         id="stop9" />
      <stop
         offset="1"
         stop-color="#00255d"
         id="stop10" />
    </linearGradient>
    <linearGradient
       id="linear-gradient-5"
       x1="32.21"
       y1="39.51"
       x2="34.22"
       y2="42"
       xlink:href="#linear-gradient-4" />
    <linearGradient
       id="linear-gradient-6"
       x1="27.57"
       y1="25.76"
       x2="27.57"
       y2="54.09"
       xlink:href="#linear-gradient-4" />
    <linearGradient
       id="linear-gradient-7"
       x1="27.99"
       y1="29.99"
       x2="24.47"
       y2="31.34"
       xlink:href="#linear-gradient-4" />
    <linearGradient
       id="New_Gradient_Swatch_27"
       x1="17.67"
       y1="30.09"
       x2="22.31"
       y2="31.75"
       gradientTransform="matrix(1, 0, 0, 1, 0, 0)"
       gradientUnits="userSpaceOnUse">
      <stop
         offset="0"
         stop-color="#608bc3"
         id="stop11" />
      <stop
         offset="1"
         stop-color="#285092"
         id="stop12" />
    </linearGradient>
    <linearGradient
       id="linear-gradient-8"
       x1="19.86"
       y1="30.99"
       x2="23.08"
       y2="32.89"
       xlink:href="#linear-gradient-4" />
    <linearGradient
       id="linear-gradient-9"
       x1="29.72"
       y1="18.97"
       x2="30.03"
       y2="21.88"
       xlink:href="#linear-gradient-3" />
    <linearGradient
       id="linear-gradient-10"
       x1="21.04"
       y1="18.03"
       x2="23.12"
       y2="18.31"
       xlink:href="#linear-gradient-4" />
    <linearGradient
       id="linear-gradient-11"
       x1="24.91"
       y1="15.34"
       x2="24.91"
       y2="19.92"
       xlink:href="#linear-gradient-4" />
    <linearGradient
       id="New_Gradient_Swatch_27-2"
       x1="27.55"
       y1="11.65"
       x2="27.5"
       y2="13.51"
       xlink:href="#New_Gradient_Swatch_27" />
    <linearGradient
       id="linear-gradient-12"
       x1="25.66"
       y1="13.71"
       x2="26.68"
       y2="11.34"
       xlink:href="#linear-gradient-3" />
    <linearGradient
       id="linear-gradient-13"
       x1="25.83"
       y1="13.78"
       x2="26.85"
       y2="11.41"
       xlink:href="#linear-gradient-3" />
    <linearGradient
       id="New_Gradient_Swatch_27-3"
       x1="22.19"
       y1="10.97"
       x2="22.76"
       y2="13.49"
       xlink:href="#New_Gradient_Swatch_27" />
    <linearGradient
       id="linear-gradient-14"
       x1="23.77"
       y1="11.27"
       x2="26.18"
       y2="10.18"
       xlink:href="#linear-gradient-3" />
    <linearGradient
       id="linear-gradient-15"
       x1="24.34"
       y1="13.14"
       x2="25.36"
       y2="10.77"
       xlink:href="#linear-gradient-3" />
    <linearGradient
       id="linear-gradient-16"
       x1="23.73"
       y1="7.94"
       x2="28.78"
       y2="8.8"
       xlink:href="#linear-gradient-3" />
    <linearGradient
       id="New_Gradient_Swatch_27-4"
       x1="24.75"
       y1="5.51"
       x2="26.71"
       y2="8.15"
       xlink:href="#New_Gradient_Swatch_27" />
    <linearGradient
       id="linear-gradient-17"
       x1="19.78"
       y1="-2.09"
       x2="22.43"
       y2="-2.09"
       gradientTransform="rotate(3.16,-142.12703,89.000534)"
       xlink:href="#linear-gradient-4" />
    <linearGradient
       id="linear-gradient-18"
       x1="23.63"
       y1="8.51"
       x2="28.69"
       y2="9.37"
       xlink:href="#linear-gradient-3" />
    <linearGradient
       inkscape:collect="always"
       xlink:href="#linearGradient10846"
       id="linearGradient10822"
       gradientUnits="userSpaceOnUse"
       gradientTransform="matrix(0.35124422,-0.60913796,-0.60913796,-0.35124422,66.278611,59.118839)"
       x1="28.244684"
       y1="60.445503"
       x2="28.244684"
       y2="68.224884" />
    <linearGradient
       id="linearGradient10846">
      <stop
         id="stop10840"
         offset="0"
         style="stop-color:#ecef52;stop-opacity:1" />
      <stop
         style="stop-color:#feffb1;stop-opacity:1"
         offset="0.31578946"
         id="stop10842" />
      <stop
         id="stop10844"
         offset="1"
         style="stop-color:#d2cb09;stop-opacity:1" />
    </linearGradient>
    <linearGradient
       inkscape:collect="always"
       xlink:href="#linearGradient9952"
       id="linearGradient18932"
       gradientUnits="userSpaceOnUse"
       gradientTransform="matrix(0.35124422,-0.60913796,-0.60913796,-0.35124422,66.278611,59.118839)"
       x1="55.876038"
       y1="62.401989"
       x2="38.061356"
       y2="62.827091" />
    <linearGradient
       id="linearGradient9952"
       inkscape:collect="always">
      <stop
         id="stop9954"
         offset="0"
         style="stop-color:#ffffff;stop-opacity:1;" />
      <stop
         id="stop9956"
         offset="1"
         style="stop-color:#ffffff;stop-opacity:0;" />
    </linearGradient>
    <linearGradient
       inkscape:collect="always"
       xlink:href="#linearGradient10846"
       id="linearGradient62"
       gradientUnits="userSpaceOnUse"
       gradientTransform="matrix(0.35124422,-0.60913796,-0.60913796,-0.35124422,66.278611,59.118839)"
       x1="28.244684"
       y1="60.445503"
       x2="28.244684"
       y2="68.224884" />
    <linearGradient
       inkscape:collect="always"
       xlink:href="#linearGradient10846"
       id="linearGradient63"
       gradientUnits="userSpaceOnUse"
       gradientTransform="matrix(0.35124422,-0.60913796,-0.60913796,-0.35124422,66.278611,59.118839)"
       x1="28.244684"
       y1="60.445503"
       x2="28.244684"
       y2="68.224884" />
    <linearGradient
       inkscape:collect="always"
       xlink:href="#linear-gradient-3"
       id="linearGradient64"
       gradientUnits="userSpaceOnUse"
       x1="27.47"
       y1="21.69"
       x2="26.42"
       y2="25.05" />
    <linearGradient
       inkscape:collect="always"
       xlink:href="#linear-gradient-4"
       id="linearGradient65"
       gradientUnits="userSpaceOnUse"
       x1="15.86"
       y1="39.89"
       x2="19.65"
       y2="39.89" />
    <linearGradient
       inkscape:collect="always"
       xlink:href="#New_Gradient_Swatch_27"
       id="linearGradient66"
       gradientUnits="userSpaceOnUse"
       x1="17.67"
       y1="30.09"
       x2="22.31"
       y2="31.75" />
  </defs>
  <g
     style="isolation:isolate"
     id="g62"
     transform="translate(-3.9894632,1.4730326)">
    <g
       id="back_layer">
      <path
         d="M 30.33,42.85 C 24.4,42.82 3.1,40.48 4.44,35.57 5.78,30.66 31.55,28.16 35.68,27.02 39.81,25.88 38.74,24.3 35.24,23.36 32.23,22.56 19.81,21.22 15.98,21.15 12.15,21.08 5.84,20.66 5.84,20.66 c 0,0 13.07,-0.31 21.49,0.2 8.42,0.51 13.63,2.21 14.39,4.4 1,2.86 -5.36,4.23 -16.38,6.1 -9.15,1.56 -15.62,2.89 -14.77,4.27 1.69,2.75 15.49,3.14 21.06,3.89 1,0.14 3.49,0.31 3.98,1.03 1.18,1.73 -1.67,2.31 -5.29,2.29 z"
         style="fill:url(#linear-gradient)"
         id="path12" />
      <path
         d="M 30.33,42.85 C 24.4,42.82 3.1,40.48 4.44,35.57 5.78,30.66 31.55,28.16 35.68,27.02 39.81,25.88 38.74,24.3 35.24,23.36 32.23,22.56 19.81,21.22 15.98,21.15 12.15,21.08 5.84,20.66 5.84,20.66 c 0,0 13.07,-0.31 21.49,0.2 8.42,0.51 13.63,2.21 14.39,4.4 1,2.86 -5.36,4.23 -16.38,6.1 -9.15,1.56 -15.62,2.89 -14.77,4.27 1.69,2.75 15.49,3.14 21.06,3.89 1,0.14 3.49,0.31 3.98,1.03 1.18,1.73 -1.67,2.31 -5.29,2.29 z"
         style="fill:none;stroke:url(#linear-gradient-2);stroke-width:0.5px;stroke-miterlimit:10"
         id="path13" />
    </g>
    <g
       id="shadow"
       style="opacity:0.45;mix-blend-mode:multiply">
      <ellipse
         cx="24.49"
         cy="41.939999"
         rx="20.18"
         ry="4.4499998"
         style="fill:url(#radial-gradient)"
         id="ellipse13" />
    </g>
    <g
       id="description">
      <path
         d="m 27.28,21.7 c 0.51,0.47 0.81,0.76 0.93,1.49 0.12,0.73 -0.54,1.84 -0.54,1.84 l -2.03,-1.91 z"
         style="fill:url(#linearGradient64)"
         id="path14" />
      <path
         d="m 27.28,21.7 c 0.51,0.47 0.81,0.76 0.93,1.49 0.12,0.73 -0.54,1.84 -0.54,1.84 l -2.03,-1.91 z"
         style="fill:none;stroke:#608bc3;stroke-width:0.35px;stroke-miterlimit:10"
         id="path15" />
      <path
         d="m 27.19,22.84 c 0,0 0.51,-0.28 0.92,-0.18 0,0 -0.35,-1.21 -0.75,-1.55 -0.4,-0.34 -0.68,0.81 -0.68,0.81 l 0.52,0.92 z"
         style="fill:#193774"
         id="path16" />
      <path
         d="m 27.19,22.84 c 0,0 0.51,-0.28 0.92,-0.18 0,0 -0.35,-1.21 -0.75,-1.55 -0.4,-0.34 -0.68,0.81 -0.68,0.81 l 0.52,0.92 z"
         style="fill:none;stroke:#608bc3;stroke-width:0.35px;stroke-linecap:round;stroke-linejoin:round"
         id="path17" />
      <path
         d="m 16.7,37.24 c 0,0 -0.4,0.57 -0.55,0.87 -0.15,0.3 -0.29,0.66 -0.3,0.96 -0.01,0.3 0.33,0.9 0.62,1.77 0.29,0.87 0.74,1.33 1.11,1.5 0.37,0.17 0.95,0.25 1.35,0.18 0.4,-0.07 0.71,-0.17 0.71,-0.4 0,-0.23 -0.06,-0.66 -0.32,-0.82 -0.26,-0.16 -0.61,-0.52 -0.73,-0.83 -0.12,-0.31 0.13,-1.25 0.15,-1.64"
         style="fill:#193774"
         id="path18" />
      <path
         d="m 16.7,37.24 c 0,0 -0.4,0.57 -0.55,0.87 -0.15,0.3 -0.29,0.66 -0.3,0.96 -0.01,0.3 0.33,0.9 0.62,1.77 0.29,0.87 0.74,1.33 1.11,1.5 0.37,0.17 0.95,0.25 1.35,0.18 0.4,-0.07 0.71,-0.17 0.71,-0.4 0,-0.23 -0.06,-0.66 -0.32,-0.82 -0.26,-0.16 -0.61,-0.52 -0.73,-0.83 -0.12,-0.31 0.13,-1.25 0.15,-1.64"
         style="fill:url(#linearGradient65)"
         id="path19" />
      <path
         d="m 16.7,37.24 c 0,0 -0.4,0.57 -0.55,0.87 -0.15,0.3 -0.29,0.66 -0.3,0.96 -0.01,0.3 0.33,0.9 0.62,1.77 0.29,0.87 0.74,1.33 1.11,1.5 0.37,0.17 0.95,0.25 1.35,0.18 0.4,-0.07 0.71,-0.17 0.71,-0.4 0,-0.23 -0.06,-0.66 -0.32,-0.82 -0.26,-0.16 -0.61,-0.52 -0.73,-0.83 -0.12,-0.31 0.13,-1.25 0.15,-1.64"
         style="fill:none;stroke:#608bc3;stroke-width:0.35px;stroke-miterlimit:10"
         id="path20" />
      <path
         d="m 29.71,40.1 c -0.11,-0.4 -0.18,-0.74 -0.49,-1.13 -0.31,-0.39 2.15,-0.79 2.15,-0.79 0,0 0.16,0.45 0.41,0.61 0.25,0.16 -1.01,2.12 -1.03,2.04"
         style="fill:#608bc3"
         id="path21" />
      <path
         d="m 29.71,40.1 c -0.11,-0.4 -0.18,-0.74 -0.49,-1.13 -0.31,-0.39 2.15,-0.79 2.15,-0.79 0,0 0.16,0.45 0.41,0.61 0.25,0.16 -1.01,2.12 -1.03,2.04"
         style="fill:none;stroke:#608bc3;stroke-width:0.35px;stroke-miterlimit:10"
         id="path22" />
      <path
         d="m 29.71,40.1 c 0,0 0.15,0.6 0.52,1.06 0.28,0.35 0.72,0.58 0.89,0.58 0.17,0 1.22,-0.38 1.9,-0.83 0.68,-0.45 1.89,-1.54 2,-1.76 0.11,-0.22 -0.21,-0.55 -0.44,-0.62 -0.32,-0.09 -0.86,0.2 -1.35,0.39 -0.49,0.19 -0.97,0.12 -1.16,0.04 -0.19,-0.08 -0.29,-0.17 -0.29,-0.17 0,0 -0.46,0.2 -0.72,0.6 -0.63,0.98 -1.07,0.75 -1.35,0.71 z"
         style="fill:#193774"
         id="path23" />
      <path
         d="m 29.71,40.1 c 0,0 0.15,0.6 0.52,1.06 0.28,0.35 0.72,0.58 0.89,0.58 0.17,0 1.22,-0.38 1.9,-0.83 0.68,-0.45 1.89,-1.54 2,-1.76 0.11,-0.22 -0.21,-0.55 -0.44,-0.62 -0.32,-0.09 -0.86,0.2 -1.35,0.39 -0.49,0.19 -0.97,0.12 -1.16,0.04 -0.19,-0.08 -0.29,-0.17 -0.29,-0.17 0,0 -0.46,0.2 -0.72,0.6 -0.63,0.98 -1.07,0.75 -1.35,0.71 z"
         style="fill:url(#linear-gradient-5)"
         id="path24" />
      <path
         d="m 29.71,40.1 c 0,0 0.15,0.6 0.52,1.06 0.28,0.35 0.72,0.58 0.89,0.58 0.17,0 1.22,-0.38 1.9,-0.83 0.68,-0.45 1.89,-1.54 2,-1.76 0.11,-0.22 -0.21,-0.55 -0.44,-0.62 -0.32,-0.09 -0.86,0.2 -1.35,0.39 -0.49,0.19 -0.97,0.12 -1.16,0.04 -0.19,-0.08 -0.29,-0.17 -0.29,-0.17 0,0 -0.46,0.2 -0.72,0.6 -0.63,0.98 -1.07,0.75 -1.35,0.71 z"
         style="fill:none;stroke:#608bc3;stroke-width:0.35px;stroke-miterlimit:10"
         id="path25" />
      <path
         d="m 23.41,21.91 c 0,0 -0.27,1.74 0.12,3.29 0.39,1.55 1.11,3.03 1.79,3.97 0.68,0.94 1.22,2.32 1.22,2.32 0,0 0,1.61 0.38,3.13 0.38,1.52 1.81,4.68 1.81,4.68 0,0 1.31,0 3.08,-0.63 0,0 -2.22,-5.56 -2.22,-6.98 0,-1.42 -0.07,-1.18 -0.22,-1.58 -0.15,-0.4 -1.75,-5.36 -1.87,-6.21 -0.12,-0.85 -0.02,-2.35 -0.02,-2.4"
         style="fill:#193774"
         id="path26" />
      <path
         d="m 23.41,21.91 c 0,0 -0.27,1.74 0.12,3.29 0.39,1.55 1.11,3.03 1.79,3.97 0.68,0.94 1.22,2.32 1.22,2.32 0,0 0,1.61 0.38,3.13 0.38,1.52 1.81,4.68 1.81,4.68 0,0 1.31,0 3.08,-0.63 0,0 -2.22,-5.56 -2.22,-6.98 0,-1.42 -0.07,-1.18 -0.22,-1.58 -0.15,-0.4 -1.75,-5.36 -1.87,-6.21 -0.12,-0.85 -0.02,-2.35 -0.02,-2.4"
         style="fill:url(#linear-gradient-6)"
         id="path27" />
      <path
         d="m 29.54,39.23 c -0.51,0.07 -0.81,0.07 -0.81,0.07 0,0 -1.41,-3.17 -1.81,-4.69 -0.39,-1.52 -0.38,-3.12 -0.38,-3.12 0,0 -0.54,-1.39 -1.22,-2.33 -0.68,-0.94 -1.4,-2.42 -1.79,-3.97 -0.39,-1.55 -0.12,-3.29 -0.12,-3.29 l 0.94,-0.1 v 0.1 c 0,0 -0.2,2.17 0.59,4.2 0.79,2.02 1.69,4.3 2.13,4.94 0.44,0.65 0.22,1.71 1.24,4.94 0.52,1.62 0.94,2.63 1.23,3.25 z"
         style="fill:url(#linear-gradient-7)"
         id="path28" />
      <path
         d="m 23.41,21.91 c 0,0 -0.27,1.74 0.12,3.29 0.39,1.55 1.11,3.03 1.79,3.97 0.68,0.94 1.22,2.32 1.22,2.32 0,0 0,1.61 0.38,3.13 0.38,1.52 1.81,4.68 1.81,4.68 0,0 1.31,0 3.08,-0.63 0,0 -2.22,-5.56 -2.22,-6.98 0,-1.42 -0.07,-1.18 -0.22,-1.58 -0.15,-0.4 -1.79,-5.35 -1.87,-6.21 -0.07,-0.8 -0.14,-1.62 -0.14,-1.62"
         style="fill:none;stroke:#608bc3;stroke-width:0.35px;stroke-linecap:round;stroke-linejoin:round"
         id="path29" />
      <path
         d="m 20.58,21.92 -0.74,8.57 c 0,0 -0.68,0.74 -1.75,3.03 -1.07,2.29 -1.74,4.36 -1.74,4.36 0,0 -0.15,1.17 0.97,1.55 1.12,0.38 1.58,0.01 1.58,0.01 0,0 0.35,-1.07 0.86,-2.76 0.51,-1.68 1.76,-3.18 1.96,-3.56 0.2,-0.38 1.03,-1.26 1.23,-1.84 0.2,-0.58 1.39,-4.1 1.8,-5.58 0.17,-0.63 0.54,-0.77 0.54,-0.77 l -0.14,-3.06 z"
         style="fill:#193774"
         id="path30" />
      <path
         d="m 20.8,30.79 c 0,0 -0.53,0.26 -1.72,2.45 -1.02,1.89 -2.15,4.95 -2.37,5.74 -0.1,-0.1 -0.17,-0.19 -0.23,-0.29 -0.16,-0.27 -0.16,-0.53 -0.14,-0.68 0,-0.08 0.01,-0.14 0.01,-0.14 0,0 0.68,-2.07 1.74,-4.35 1.07,-2.28 1.75,-3.03 1.75,-3.03 l 0.71,-8.32 h 0.8 c -0.19,1.66 -0.75,7.21 -0.55,8.62 z"
         style="opacity:0.53;fill:url(#linearGradient66)"
         id="path31" />
      <path
         d="m 23.15,30.62 c -0.14,0.59 -0.14,0.51 -0.2,0.67 -0.21,0.58 -1.04,1.46 -1.23,1.84 -0.2,0.38 -1.46,1.87 -1.96,3.56 -0.5,1.68 -0.86,2.75 -0.86,2.75 0,0 -0.1,0.35 -1.12,0.05 0.34,-1.15 0.72,-3.09 1.9,-5.27 1.18,-2.18 1.66,-2.41 2.02,-2.74 0.35,-0.33 2.06,-5.58 2.06,-5.58 0.6,-1.42 1.98,-1.21 2.02,-1.14 0.04,0.07 -0.62,0.32 -0.9,0.8 -0.28,0.48 -0.95,2.82 -0.95,2.82 l -0.06,0.39 -0.71,1.86 z"
         style="fill:url(#linear-gradient-8)"
         id="path32" />
      <path
         d="m 25.28,24.94 c 0,0 -0.37,0.14 -0.54,0.77 -0.41,1.49 -1.59,5.01 -1.8,5.58 -0.21,0.57 -0.99,1.49 -1.23,1.84 -0.51,0.74 -1.45,1.87 -1.96,3.56 -0.51,1.68 -0.86,2.76 -0.86,2.76 0,0 -0.46,0.37 -1.58,-0.01 -1.12,-0.38 -0.97,-1.55 -0.97,-1.55 0,0 0.67,-2.08 1.74,-4.36 1.07,-2.28 1.75,-3.03 1.75,-3.03 l 0.74,-8.57"
         style="fill:none;stroke:#608bc3;stroke-width:0.35px;stroke-linecap:round;stroke-linejoin:round"
         id="path33" />
      <path
         d="m 28.41,21.05 c 0.47,0.07 0.94,0.09 1.42,0.07 0.23,0 0.43,-0.02 0.64,-0.14 0.19,-0.11 0.35,-0.26 0.51,-0.41 0.11,-0.11 0.22,-0.22 0.3,-0.35 0.08,-0.13 0.12,-0.29 0.08,-0.44 0,-0.03 -0.02,-0.06 -0.01,-0.1 0,-0.05 0.06,-0.09 0.1,-0.12 0.07,-0.06 0.14,-0.14 0.15,-0.23 0.01,-0.1 -0.03,-0.2 -0.1,-0.27 -0.12,-0.13 -0.31,-0.18 -0.46,-0.25 -0.17,-0.07 -0.35,-0.09 -0.53,-0.09 -0.36,0.01 -0.71,0.12 -1.06,0.23 -0.33,0.1 -0.67,0.22 -1.01,0.18 -0.15,-0.02 -0.28,0 -0.44,0 -0.03,0 -0.07,0 -0.09,0.03 -0.01,0.02 -0.01,0.04 -0.01,0.06 0,0.11 0.05,0.21 0.07,0.31 0.02,0.13 0.02,0.25 0.03,0.38 0.02,0.35 0.13,0.69 0.23,1.03 0.01,0.04 0.03,0.08 0.06,0.1 0.07,0.04 0.05,-0.02 0.13,0 z"
         style="fill:url(#linear-gradient-9)"
         id="path34" />
      <path
         d="m 28.41,21.05 c 0.47,0.07 0.94,0.09 1.42,0.07 0.23,0 0.43,-0.02 0.64,-0.14 0.19,-0.11 0.35,-0.26 0.51,-0.41 0.11,-0.11 0.22,-0.22 0.3,-0.35 0.08,-0.13 0.12,-0.29 0.08,-0.44 0,-0.03 -0.02,-0.06 -0.01,-0.1 0,-0.05 0.06,-0.09 0.1,-0.12 0.07,-0.06 0.14,-0.14 0.15,-0.23 0.01,-0.1 -0.03,-0.2 -0.1,-0.27 -0.12,-0.13 -0.31,-0.18 -0.46,-0.25 -0.17,-0.07 -0.35,-0.09 -0.53,-0.09 -0.36,0.01 -0.71,0.12 -1.06,0.23 -0.33,0.1 -0.67,0.22 -1.01,0.18 -0.15,-0.02 -0.28,0 -0.44,0 -0.03,0 -0.07,0 -0.09,0.03 -0.01,0.02 -0.01,0.04 -0.01,0.06 0,0.11 0.05,0.21 0.07,0.31 0.02,0.13 0.02,0.25 0.03,0.38 0.02,0.35 0.13,0.69 0.23,1.03 0.01,0.04 0.03,0.08 0.06,0.1 0.07,0.04 0.05,-0.02 0.13,0 z"
         style="fill:none;stroke:#d0dfef;stroke-width:0.35px;stroke-linecap:round;stroke-linejoin:round"
         id="path35" />
      <g
         id="g61">
        <path
           d="m 24.08,11.07 c -0.81,0.4 -2.51,0.67 -2.93,0.84 -0.42,0.17 -0.7,1.09 -0.8,2.63 -0.1,1.54 0.59,3.02 0.23,7.74 h 6.78 c 0,0 0.04,-2.99 0.89,-5.88 0.05,-0.19 0.11,-0.59 0.16,-1.04 0.85,-0.63 1.16,-1.78 1.06,-2.15 -0.27,-0.96 -1.06,-0.98 -1.53,-1.14 -0.79,-0.25 -1.43,-0.74 -1.43,-0.74"
           style="fill:#193774"
           id="path36" />
        <path
           d="m 22.29,15.3 c -0.23,0.8 -0.7,2.89 -0.68,6.21 h -1.03 c 0.37,-3.95 -0.32,-5.43 -0.23,-6.97 0,-0.01 0,-0.02 0,-0.04 0.64,-0.2 1.34,0.19 1.93,0.8 z"
           style="fill:url(#linear-gradient-10)"
           id="path37" />
        <path
           d="m 24.08,11.07 c -0.81,0.4 -2.51,0.67 -2.93,0.84 -0.42,0.17 -0.7,1.09 -0.8,2.63 -0.1,1.54 0.59,3.02 0.23,7.74 h 6.78 c 0,0 0.04,-2.99 0.89,-5.88 0.05,-0.19 0.11,-0.59 0.16,-1.04 0.85,-0.63 1.16,-1.78 1.06,-2.15 -0.27,-0.96 -1.06,-0.98 -1.53,-1.14 -0.79,-0.25 -1.43,-0.74 -1.43,-0.74"
           style="fill:url(#linear-gradient-11)"
           id="path38" />
        <path
           d="m 29.41,13.31 c 0,0.08 0,0.14 0,0.2 -1.46,-0.76 -3.51,-1.09 -3.51,-1.09 l -0.25,-0.75 0.37,-0.38 0.48,0.05 c 0,0 0.65,0.49 1.43,0.74 0.47,0.15 1.45,0.49 1.47,1.23 z"
           style="fill:url(#New_Gradient_Swatch_27-2)"
           id="path39" />
        <g
           id="g41">
          <path
             d="m 28.21,15.45 c 0.06,-0.5 0.1,-1.06 0.11,-1.48 0,0 0.23,0.74 0.16,1.27 l -0.27,0.21"
             style="fill:#608bc3"
             id="path40" />
          <path
             d="m 24.08,11.07 c -0.81,0.4 -2.51,0.67 -2.93,0.84 -0.42,0.17 -0.7,1.09 -0.8,2.63 -0.1,1.54 0.59,3.02 0.23,7.74 h 6.78 c 0,0 0.04,-2.99 0.89,-5.88 0.05,-0.19 0.11,-0.59 0.16,-1.04 0.85,-0.63 1.18,-1.55 1.06,-2.15 -0.17,-0.82 -1.06,-0.98 -1.53,-1.14 -0.79,-0.25 -1.43,-0.74 -1.43,-0.74"
             style="fill:none;stroke:#608bc3;stroke-width:0.35px;stroke-linecap:round;stroke-linejoin:round"
             id="path41" />
        </g>
        <path
           d="m 26.04,12.28 0.57,-0.21 c -0.1,0.12 -0.24,0.21 -0.44,0.21 z"
           style="fill:url(#linear-gradient-12)"
           id="path42" />
        <path
           d="m 26.76,11.44 v 0.2 c 0,0.12 -0.05,0.3 -0.16,0.43 z"
           style="fill:url(#linear-gradient-13)"
           id="path43" />
        <path
           d="m 21.15,11.91 c -1.67,0.49 -2.03,1.94 -1.5,4.02 0.53,2.08 1.9,3.87 2.71,4.54 0.73,0.61 4.16,0.73 6.01,0.92 0,0 0.52,-0.17 0.73,-0.62 0.27,-0.59 0.31,-1.26 -0.22,-1.68 -1.76,-0.16 -3.07,-0.09 -4.69,-0.76 -0.9,-1.1 -1.7,-2.22 -1.72,-3.6"
           style="fill:#193774"
           id="path44" />
        <path
           d="m 25.93,11.28 -0.36,1.04 c -1.63,-0.21 -3.39,0.28 -4.26,0.66 -0.87,0.39 -1.94,0.71 -1.76,2.18 0.02,0.16 0.02,0.28 0,0.34 -0.37,-1.85 0.05,-3.13 1.6,-3.59 0.42,-0.16 2.13,-0.44 2.93,-0.83 z"
           style="fill:url(#New_Gradient_Swatch_27-3)"
           id="path45" />
        <path
           d="m 21.15,11.91 c -1.67,0.49 -2.03,1.94 -1.5,4.02 0.53,2.08 1.9,3.87 2.71,4.54 0.73,0.61 4.16,0.73 6.01,0.92 0,0 0.52,-0.17 0.73,-0.62 0.27,-0.59 0.31,-1.26 -0.22,-1.68 -1.76,-0.16 -3.07,-0.09 -4.69,-0.76 -0.9,-1.1 -1.7,-2.22 -1.72,-3.6"
           style="fill:none;stroke:#608bc3;stroke-width:0.35px;stroke-linecap:round;stroke-linejoin:round"
           id="path46" />
        <path
           d="m 23.48,11.31 c -0.86,0.28 -1.99,0.47 -2.33,0.6"
           style="fill:none;stroke:#285092;stroke-width:0.35px;stroke-miterlimit:10"
           id="path47" />
        <path
           d="m 21.18,11.9 c 0.47,-0.16 2.11,-0.43 2.91,-0.82 l 0.24,0.03"
           style="fill:none;stroke:#608bc3;stroke-width:0.35px;stroke-linecap:round;stroke-linejoin:round"
           id="path48" />
        <g
           id="g60">
          <path
             d="m 25.9,8.82 c 0,0 1.2,0.91 1.02,1.37 -0.18,0.46 -0.16,1.21 -0.16,1.45 0,0.24 -0.18,0.63 -0.6,0.63 -0.27,0 -0.9,0.03 -1.48,-0.37 -0.58,-0.4 -0.61,-0.83 -0.61,-0.83 0.44,-0.5 0.35,-1.91 0.29,-2.22"
             style="fill:url(#linear-gradient-14)"
             id="path49" />
          <path
             d="m 26.92,10.2 c -0.14,0.36 -0.16,0.91 -0.16,1.25 l -0.16,0.63 -0.57,0.21 v 0 c 0,0 -1.56,-2.8 -1.59,-2.8 L 24.35,9.45 C 24.38,9.18 24.39,8.96 24.37,8.86 L 25.9,8.84 c 0,0 1.2,0.91 1.02,1.37 z"
             style="fill:url(#linear-gradient-15)"
             id="path50" />
          <path
             d="m 25.9,8.82 c 0,0 1.2,0.91 1.02,1.37 -0.18,0.46 -0.16,1.21 -0.16,1.45 0,0.24 -0.18,0.63 -0.6,0.63 -0.27,0 -0.9,0.03 -1.48,-0.37 -0.58,-0.4 -0.61,-0.83 -0.61,-0.83 0.43,-0.45 0.35,-1.91 0.29,-2.22"
             style="fill:none;stroke:#608bc3;stroke-width:0.35px;stroke-linecap:round;stroke-linejoin:round"
             id="path51" />
          <path
             d="m 26.14,6.1 c 0.39,0.02 1.47,0.14 1.58,1.15 0.11,1.01 -0.05,2.02 -0.16,2.51 -0.1,0.45 -0.42,0.87 -0.84,0.88 -0.42,0.01 -0.83,0.03 -1.46,-0.5 C 24.63,9.61 24.63,8.87 24.61,8.7 24.59,8.53 24.66,7.78 24.68,7.39 24.7,7 25.26,6.05 26.14,6.1 Z"
             style="fill:url(#linear-gradient-16)"
             id="path52" />
          <path
             d="M 24.6,8.7 C 24.58,8.53 24.65,7.78 24.67,7.39 24.69,7 25.25,6.05 26.13,6.1 c 0.39,0.02 1.47,0.14 1.58,1.15 0.11,1.01 -0.05,2.02 -0.16,2.51 -0.1,0.45 -0.42,0.87 -0.84,0.88 -0.09,0 -0.19,0 -0.28,0"
             style="fill:none;stroke:#d0dfef;stroke-width:0.35px;stroke-linecap:round;stroke-linejoin:round"
             id="path53" />
          <path
             d="m 24.71,8.08 c 0,0 0.22,0.1 0.38,0.08 0.17,-0.03 0.14,-0.25 0.14,-0.39 0.02,-0.34 0.16,-1.04 0.88,-1 0.72,0.04 1.2,0.11 1.54,0 0,0 0.04,-0.25 0.03,-0.7 C 27.67,5.62 27.11,5.5 26.64,5.46 26.17,5.42 25.19,5.36 24.53,5.72 c -0.66,0.36 -0.68,0.92 -0.6,1.55 0.08,0.63 0.32,1.08 0.32,1.08 0,0 0.17,-0.3 0.46,-0.28 z"
             style="fill:#608bc3;stroke:#d0dfef;stroke-width:0.35px;stroke-miterlimit:10"
             id="path54" />
          <path
             d="m 24.71,8.08 c 0,0 0.22,0.1 0.38,0.08 0.17,-0.03 0.14,-0.25 0.14,-0.39 0.02,-0.34 0.16,-1.04 0.88,-1 0.72,0.04 1.2,0.11 1.54,0 0,0 0.04,-0.25 0.03,-0.7 C 27.67,5.62 27.11,5.5 26.64,5.46 26.17,5.42 25.19,5.36 24.53,5.72 c -0.66,0.36 -0.68,0.92 -0.6,1.55 0.08,0.63 0.32,1.08 0.32,1.08 0,0 0.17,-0.3 0.46,-0.28 z"
             style="fill:url(#New_Gradient_Swatch_27-4)"
             id="path55" />
          <path
             d="m 27.21,6.78 c -0.3,0 -0.44,-0.03 -0.92,-0.06 -0.75,-0.04 -0.9,0.69 -0.92,1.04 -0.02,0.35 -0.62,0.34 -0.62,0.34 0,0 -0.29,-0.69 -0.16,-1.29 0.12,-0.6 0.61,-0.84 1.1,-0.85 0.48,-0.02 0.85,0 1.22,0.12 0.28,0.09 0.39,0.41 0.31,0.71 z"
             style="fill:#193774"
             id="path56" />
          <path
             d="m 27.21,6.78 c -0.3,0 -0.44,-0.03 -0.92,-0.06 -0.75,-0.04 -0.9,0.69 -0.92,1.04 -0.02,0.35 -0.62,0.34 -0.62,0.34 0,0 -0.29,-0.69 -0.16,-1.29 0.12,-0.6 0.61,-0.84 1.1,-0.85 0.48,-0.02 0.85,0 1.22,0.12 0.28,0.09 0.39,0.41 0.31,0.71 z"
             style="fill:url(#linear-gradient-17)"
             id="path57" />
          <path
             d="m 24.71,8.08 c 0,0 0.22,0.1 0.38,0.08 0.17,-0.03 0.14,-0.25 0.14,-0.39 0.02,-0.34 0.16,-1.04 0.88,-1 0.72,0.04 1.2,0.11 1.54,0 0,0 0.04,-0.25 0.03,-0.7 C 27.67,5.62 27.11,5.5 26.64,5.46 26.17,5.42 25.19,5.36 24.53,5.72 c -0.66,0.36 -0.68,0.92 -0.6,1.55 0.08,0.63 0.32,1.08 0.32,1.08 0,0 0.17,-0.3 0.46,-0.28 z"
             style="fill:none;stroke:#285092;stroke-width:0.35px;stroke-miterlimit:10"
             id="path58" />
          <path
             d="m 24.82,8.24 c -0.1,-0.12 -0.23,-0.2 -0.36,-0.18 -0.24,0.03 -0.4,0.32 -0.36,0.65 0.04,0.33 0.27,0.58 0.51,0.55 0.08,0 0.15,-0.05 0.21,-0.11"
             style="fill:url(#linear-gradient-18)"
             id="path59" />
          <path
             d="m 24.82,8.24 c -0.1,-0.12 -0.23,-0.2 -0.36,-0.18 -0.24,0.03 -0.4,0.32 -0.36,0.65 0.04,0.33 0.27,0.58 0.51,0.55 0.04,0 0.08,-0.02 0.11,-0.03"
             style="fill:none;stroke:#608bc3;stroke-width:0.35px;stroke-linecap:round;stroke-linejoin:round"
             id="path60" />
        </g>
      </g>
    </g>
  </g>
  <g
     id="g63"
     transform="matrix(0.75907677,-0.11845391,0.11978827,0.76227856,8.6015582,8.4140765)"
     style="stroke-width:1.29879">
    <path
       inkscape:connector-curvature="0"
       style="color:#000000;display:inline;overflow:visible;visibility:visible;fill:#e7e7e7;fill-opacity:1;fill-rule:evenodd;stroke:#7d7d7d;stroke-width:1.29879;stroke-linecap:butt;stroke-linejoin:miter;stroke-miterlimit:4;stroke-dashoffset:0;stroke-opacity:1;marker:none"
       d="m 36.360498,21.040386 c -0.750027,-0.432484 -2.621566,1.494509 -4.224449,4.274276 -1.602883,2.779767 -1.748348,5.702058 -1.583099,5.797345 0.18417,0.106197 2.621566,-1.494509 4.22445,-4.274276 1.602883,-2.779768 2.333126,-5.36486 1.583098,-5.797345 z"
       id="path9903"
       sodipodi:nodetypes="cszsc"
       inkscape:r_cx="true"
       inkscape:r_cy="true" />
    <g
       id="g9975"
       transform="matrix(-0.63596824,0.11781601,0.11781601,0.63596824,52.415054,-4.7555988)"
       inkscape:r_cx="true"
       inkscape:r_cy="true"
       style="stroke:#c4a000;stroke-width:1.29879">
      <path
         transform="matrix(-0.56251,-0.817194,0.825069,-0.567931,-15.22056,83.88674)"
         sodipodi:end="6.067175"
         sodipodi:start="4.0433671"
         inkscape:r_cy="true"
         inkscape:r_cx="true"
         sodipodi:ry="5.5"
         sodipodi:rx="13.0625"
         sodipodi:cy="62"
         sodipodi:cx="40.1875"
         id="path9905"
         style="color:#000000;display:inline;overflow:visible;visibility:visible;fill:none;stroke:#c4a000;stroke-width:2.01442;stroke-linecap:butt;stroke-linejoin:miter;stroke-miterlimit:4;stroke-dasharray:none;stroke-dashoffset:0;stroke-opacity:1;marker:none"
         sodipodi:type="arc"
         sodipodi:arc-type="slice"
         d="m 32.085889,57.685642 a 13.0625,5.5 0 0 1 12.49326,-0.865485 13.0625,5.5 0 0 1 8.367283,4.001004 L 40.1875,62 Z" />
      <path
         transform="matrix(-0.56251,-0.817194,0.825069,-0.567931,-14.28556,81.45324)"
         sodipodi:end="2.7801561"
         sodipodi:start="5.9815064"
         inkscape:r_cy="true"
         inkscape:r_cx="true"
         sodipodi:ry="1.5625"
         sodipodi:rx="3"
         sodipodi:cy="54.9375"
         sodipodi:cx="33.5"
         id="path9907"
         style="color:#000000;display:inline;overflow:visible;visibility:visible;fill:#729fcf;fill-opacity:1;fill-rule:evenodd;stroke:#c4a000;stroke-width:2.01442;stroke-linecap:butt;stroke-linejoin:miter;stroke-miterlimit:4;stroke-dasharray:none;stroke-dashoffset:0;stroke-opacity:1;marker:none"
         sodipodi:type="arc"
         sodipodi:arc-type="slice"
         d="m 36.364517,54.473244 a 3,1.5625 0 0 1 -1.887968,1.941657 3,1.5625 0 0 1 -3.782718,-0.924872 L 33.5,54.9375 Z" />
    </g>
    <path
       inkscape:connector-curvature="0"
       style="color:#000000;display:inline;overflow:visible;visibility:visible;fill:url(#linearGradient62);fill-opacity:1;fill-rule:evenodd;stroke:#c4a000;stroke-width:1.29879;stroke-linecap:butt;stroke-linejoin:miter;stroke-miterlimit:4;stroke-dasharray:none;stroke-dashoffset:0;stroke-opacity:1;marker:none"
       d="m 40.687236,18.702374 c -2.102308,3.536679 -4.199548,6.621826 -5.954957,8.858612 l -3.28729,-1.895534 c 1.190219,-2.973773 3.104109,-6.851884 5.472395,-10.959035 4.274931,-7.4137093 8.643215,-13.150612 10.489623,-13.9373975 0.05675,-0.023108 0.132884,-0.053641 0.184674,-0.067052 0.03648,-0.00858 0.09134,-0.011043 0.12521,-0.01457 0.05334,-0.00402 0.122594,0.00152 0.169041,0.010704 0.01139,0.00271 0.0454,1.79e-5 0.05635,0.00357 0.01073,0.00397 0.03355,0.020456 0.04383,0.025274 0.005,0.00262 0.017,0.0098 0.02191,0.012637 0.0049,0.00283 0.01713,0.0096 0.02191,0.012637 0.0093,0.00649 0.03502,0.017979 0.04383,0.025274 0.0086,0.0077 0.02326,0.038479 0.03131,0.04698 0.03121,0.0356 0.0707,0.092758 0.09394,0.1409394 0.01391,0.031081 0.03926,0.079798 0.05011,0.1156665 0.01434,0.051537 0.02605,0.1327272 0.03448,0.193417 0.243996,1.9921653 -2.532926,8.6466863 -6.807857,16.0603966 -0.265996,0.461298 -0.522528,0.919999 -0.788525,1.367482 z"
       id="path9898"
       inkscape:r_cx="true"
       inkscape:r_cy="true" />
    <path
       inkscape:connector-curvature="0"
       style="color:#000000;display:inline;overflow:visible;visibility:visible;fill:url(#linearGradient63);fill-opacity:1;fill-rule:evenodd;stroke:#c4a000;stroke-width:1.29879;stroke-linecap:butt;stroke-linejoin:miter;stroke-miterlimit:4;stroke-dasharray:none;stroke-dashoffset:0;stroke-opacity:1;marker:none"
       d="m 43.966591,13.420363 c -0.534345,0.89208 -1.092973,1.752838 -1.624043,2.563251 L 37.74034,13.329866 c 0.619264,-1.231245 1.312508,-2.529404 2.068254,-3.8400423 3.606973,-6.255317 7.465923,-10.9950481 9.247443,-11.5299571 0.01567,-0.00442 0.05352,-0.014385 0.06886,-0.018138 0.01518,-0.00342 0.05402,-0.015394 0.06886,-0.018139 0.03669,-0.00602 0.09065,-0.01282 0.12521,-0.01457 0.01365,-3.572e-4 0.04305,0.00324 0.05635,0.00357 0.03938,0.00204 0.09844,0.011431 0.13461,0.019773 0.01188,0.00314 0.04484,-2.779e-4 0.05635,0.00357 0.01699,0.0063 0.04959,0.03 0.06575,0.03791 0.0053,0.00282 0.01672,0.00964 0.02191,0.012637 0.0052,0.003 0.01683,0.00947 0.02191,0.012637 0.01494,0.01002 0.05178,0.026363 0.06575,0.037911 0.0091,0.00804 0.02265,0.038272 0.03131,0.04698 0.02534,0.027122 0.06305,0.07354 0.08454,0.1065966 0.0069,0.011344 0.02479,0.034988 0.03131,0.04698 0.01579,0.030785 0.03694,0.080898 0.05011,0.1156662 0.0051,0.014221 0.01415,0.053838 0.0188,0.068686 0.0044,0.015159 0.01478,0.052906 0.0188,0.068686 0.429484,1.8098296 -1.739552,7.5240073 -5.346525,13.7793256 -0.224434,0.389219 -0.437647,0.773594 -0.663362,1.150421 z"
       id="path9893"
       inkscape:r_cx="true"
       inkscape:r_cy="true" />
    <path
       inkscape:connector-curvature="0"
       style="color:#000000;display:inline;overflow:visible;visibility:visible;fill:url(#linearGradient10822);fill-opacity:1;fill-rule:evenodd;stroke:#c4a000;stroke-width:1.29879;stroke-linecap:butt;stroke-linejoin:miter;stroke-miterlimit:4;stroke-dasharray:none;stroke-dashoffset:0;stroke-opacity:1;marker:none"
       d="m 49.216763,2.5935012 -3.24346,-1.8702603 c 1.485366,-1.9550207 2.867673,-3.1996993 3.666025,-3.2178606 0.0051,-1.53e-5 0.0245,-7.028e-4 0.02956,-6.124e-4 0.005,1.891e-4 0.0246,-9.052e-4 0.02955,-6.124e-4 0.0049,3.94e-4 0.0247,-0.00111 0.02956,-6.124e-4 0.02883,0.0036 0.07594,0.016697 0.102942,0.024048 0.0044,0.00133 0.01752,0.011201 0.02191,0.012637 0.0043,0.00154 0.02527,-0.00226 0.02956,-6.123e-4 0.0042,0.00175 0.01773,0.010777 0.02191,0.012637 0.0041,0.00196 0.01784,0.010562 0.02191,0.012637 0.004,0.00218 0.01795,0.010349 0.02192,0.012637 0.004,0.00229 0.01801,0.010247 0.02191,0.012637 0.0038,0.00249 0.01814,0.010047 0.02192,0.012637 0.0037,0.00269 0.01827,0.00985 0.02191,0.012637 0.0036,0.00288 0.01077,0.022899 0.01427,0.025886 0.0034,0.00309 0.01854,0.00945 0.02191,0.012637 0.01989,0.019685 0.05482,0.053895 0.07238,0.077047 0.0029,0.00395 0.01148,0.021838 0.01427,0.025886 0.0027,0.00414 0.01161,0.02165 0.01428,0.025886 0.0026,0.00433 0.01173,0.021462 0.01428,0.025886 0.38421,0.7000562 -5.8e-4,2.5199275 -0.948531,4.7848355 z"
       id="path9888"
       inkscape:r_cx="true"
       inkscape:r_cy="true" />
    <path
       inkscape:connector-curvature="0"
       inkscape:r_cy="true"
       inkscape:r_cx="true"
       style="color:#000000;display:inline;overflow:visible;visibility:visible;opacity:0.357143;fill:none;stroke:url(#linearGradient18932);stroke-width:1.29879;stroke-linecap:round;stroke-linejoin:round;stroke-miterlimit:4;stroke-dasharray:none;stroke-dashoffset:0;stroke-opacity:1;marker:none"
       d="m 42.643112,13.841991 c -0.134899,0.227522 -0.271363,0.440366 -0.405614,0.663347 l -3.187254,-1.840172 c 0.36326,-0.660114 0.864367,-1.729548 1.246901,-2.416242 4.404118,-7.9059286 9.008923,-12.0486271 9.224601,-11.9249363 0.237248,0.1360609 -1.262022,6.163192 -5.796851,13.6616583 -0.266254,0.440258 -0.826182,1.425251 -1.081783,1.856345 z"
       id="path9930"
       sodipodi:nodetypes="cccszsc" />
  </g>
</svg>
