<?xml version="1.0" encoding="UTF-8" standalone="no"?>
<svg
   viewBox="0 0 48 48"
   version="1.1"
   id="svg62"
   sodipodi:docname="crowdmotionpath.svg"
   inkscape:version="1.3 (0e150ed6c4, 2023-07-21)"
   xmlns:inkscape="http://www.inkscape.org/namespaces/inkscape"
   xmlns:sodipodi="http://sodipodi.sourceforge.net/DTD/sodipodi-0.dtd"
   xmlns:xlink="http://www.w3.org/1999/xlink"
   xmlns="http://www.w3.org/2000/svg"
   xmlns:svg="http://www.w3.org/2000/svg">
  <sodipodi:namedview
     id="namedview62"
     pagecolor="#ffffff"
     bordercolor="#666666"
     borderopacity="1.0"
     inkscape:showpageshadow="2"
     inkscape:pageopacity="0.0"
     inkscape:pagecheckerboard="0"
     inkscape:deskcolor="#d1d1d1"
     inkscape:zoom="23.041667"
     inkscape:cx="23.9783"
     inkscape:cy="24"
     inkscape:window-width="2560"
     inkscape:window-height="1378"
     inkscape:window-x="-6"
     inkscape:window-y="-6"
     inkscape:window-maximized="1"
     inkscape:current-layer="svg62" />
  <defs
     id="defs12">
    <linearGradient
       id="linear-gradient"
       x1="24.64"
       y1="37.21"
       x2="19.35"
       y2="15.56"
       gradientTransform="matrix(1, 0, 0, 1, 0, 0)"
       gradientUnits="userSpaceOnUse">
      <stop
         offset="0"
         stop-color="#7be028"
         id="stop1" />
      <stop
         offset=".99"
         stop-color="#e0ff70"
         id="stop2" />
    </linearGradient>
    <linearGradient
       id="linear-gradient-2"
       x1="4.14"
       y1="31.17"
       x2="42.11"
       y2="31.17"
       gradientTransform="translate(-.09 2.32) rotate(.13) scale(1 .94) skewX(.26)"
       gradientUnits="userSpaceOnUse">
      <stop
         offset="0"
         stop-color="#64cc13"
         id="stop3" />
      <stop
         offset="1"
         stop-color="#408b09"
         id="stop4" />
    </linearGradient>
    <radialGradient
       id="radial-gradient"
       cx="-263.87"
       cy="-38.99"
       fx="-263.87"
       fy="-38.99"
       r="4.5"
       gradientTransform="translate(1255.91 81.88) scale(4.67 1.02)"
       gradientUnits="userSpaceOnUse">
      <stop
         offset=".32"
         stop-color="#1a1718"
         stop-opacity=".5"
         id="stop5" />
      <stop
         offset=".79"
         stop-color="#1a1718"
         stop-opacity="0"
         id="stop6" />
    </radialGradient>
    <linearGradient
       id="linear-gradient-3"
       x1="27.47"
       y1="21.69"
       x2="26.42"
       y2="25.05"
       gradientTransform="matrix(1, 0, 0, 1, 0, 0)"
       gradientUnits="userSpaceOnUse">
      <stop
         offset="0"
         stop-color="#a2bede"
         id="stop7" />
      <stop
         offset="1"
         stop-color="#285092"
         id="stop8" />
    </linearGradient>
    <linearGradient
       id="linear-gradient-4"
       x1="15.86"
       y1="39.89"
       x2="19.65"
       y2="39.89"
       gradientTransform="matrix(1, 0, 0, 1, 0, 0)"
       gradientUnits="userSpaceOnUse">
      <stop
         offset="0"
         stop-color="#00255d"
         stop-opacity="0"
         id="stop9" />
      <stop
         offset="1"
         stop-color="#00255d"
         id="stop10" />
    </linearGradient>
    <linearGradient
       id="linear-gradient-5"
       x1="32.21"
       y1="39.51"
       x2="34.22"
       y2="42"
       xlink:href="#linear-gradient-4" />
    <linearGradient
       id="linear-gradient-6"
       x1="27.57"
       y1="25.76"
       x2="27.57"
       y2="54.09"
       xlink:href="#linear-gradient-4" />
    <linearGradient
       id="linear-gradient-7"
       x1="27.99"
       y1="29.99"
       x2="24.47"
       y2="31.34"
       xlink:href="#linear-gradient-4" />
    <linearGradient
       id="New_Gradient_Swatch_27"
       x1="17.67"
       y1="30.09"
       x2="22.31"
       y2="31.75"
       gradientTransform="matrix(1, 0, 0, 1, 0, 0)"
       gradientUnits="userSpaceOnUse">
      <stop
         offset="0"
         stop-color="#608bc3"
         id="stop11" />
      <stop
         offset="1"
         stop-color="#285092"
         id="stop12" />
    </linearGradient>
    <linearGradient
       id="linear-gradient-8"
       x1="19.86"
       y1="30.99"
       x2="23.08"
       y2="32.89"
       xlink:href="#linear-gradient-4" />
    <linearGradient
       id="linear-gradient-9"
       x1="29.72"
       y1="18.97"
       x2="30.03"
       y2="21.88"
       xlink:href="#linear-gradient-3" />
    <linearGradient
       id="linear-gradient-10"
       x1="21.04"
       y1="18.03"
       x2="23.12"
       y2="18.31"
       xlink:href="#linear-gradient-4" />
    <linearGradient
       id="linear-gradient-11"
       x1="24.91"
       y1="15.34"
       x2="24.91"
       y2="19.92"
       xlink:href="#linear-gradient-4" />
    <linearGradient
       id="New_Gradient_Swatch_27-2"
       x1="27.55"
       y1="11.65"
       x2="27.5"
       y2="13.51"
       xlink:href="#New_Gradient_Swatch_27" />
    <linearGradient
       id="linear-gradient-12"
       x1="25.66"
       y1="13.71"
       x2="26.68"
       y2="11.34"
       xlink:href="#linear-gradient-3" />
    <linearGradient
       id="linear-gradient-13"
       x1="25.83"
       y1="13.78"
       x2="26.85"
       y2="11.41"
       xlink:href="#linear-gradient-3" />
    <linearGradient
       id="New_Gradient_Swatch_27-3"
       x1="22.19"
       y1="10.97"
       x2="22.76"
       y2="13.49"
       xlink:href="#New_Gradient_Swatch_27" />
    <linearGradient
       id="linear-gradient-14"
       x1="23.77"
       y1="11.27"
       x2="26.18"
       y2="10.18"
       xlink:href="#linear-gradient-3" />
    <linearGradient
       id="linear-gradient-15"
       x1="24.34"
       y1="13.14"
       x2="25.36"
       y2="10.77"
       xlink:href="#linear-gradient-3" />
    <linearGradient
       id="linear-gradient-16"
       x1="23.73"
       y1="7.94"
       x2="28.78"
       y2="8.8"
       xlink:href="#linear-gradient-3" />
    <linearGradient
       id="New_Gradient_Swatch_27-4"
       x1="24.75"
       y1="5.51"
       x2="26.71"
       y2="8.15"
       xlink:href="#New_Gradient_Swatch_27" />
    <linearGradient
       id="linear-gradient-17"
       x1="19.78"
       y1="-2.09"
       x2="22.43"
       y2="-2.09"
       gradientTransform="translate(4.69 7.97) rotate(3.16)"
       xlink:href="#linear-gradient-4" />
    <linearGradient
       id="linear-gradient-18"
       x1="23.63"
       y1="8.51"
       x2="28.69"
       y2="9.37"
       xlink:href="#linear-gradient-3" />
  </defs>
  <g
     style="isolation:isolate;"
     id="g62">
    <g
       id="back_layer">
      <path
         d="M30.33,42.85c-5.93-.03-27.23-2.37-25.89-7.28,1.34-4.91,27.11-7.41,31.24-8.55s3.06-2.72-.44-3.66c-3.01-.8-15.43-2.14-19.26-2.21s-10.14-.49-10.14-.49c0,0,13.07-.31,21.49,.2,8.42,.51,13.63,2.21,14.39,4.4,1,2.86-5.36,4.23-16.38,6.1-9.15,1.56-15.62,2.89-14.77,4.27,1.69,2.75,15.49,3.14,21.06,3.89,1,.14,3.49,.31,3.98,1.03,1.18,1.73-1.67,2.31-5.29,2.29Z"
         style="fill:url(#linear-gradient);"
         id="path12" />
      <path
         d="M30.33,42.85c-5.93-.03-27.23-2.37-25.89-7.28,1.34-4.91,27.11-7.41,31.24-8.55s3.06-2.72-.44-3.66c-3.01-.8-15.43-2.14-19.26-2.21s-10.14-.49-10.14-.49c0,0,13.07-.31,21.49,.2,8.42,.51,13.63,2.21,14.39,4.4,1,2.86-5.36,4.23-16.38,6.1-9.15,1.56-15.62,2.89-14.77,4.27,1.69,2.75,15.49,3.14,21.06,3.89,1,.14,3.49,.31,3.98,1.03,1.18,1.73-1.67,2.31-5.29,2.29Z"
         style="fill:none; stroke:url(#linear-gradient-2); stroke-miterlimit:10; stroke-width:.5px;"
         id="path13" />
    </g>
    <g
       id="shadow"
       style="mix-blend-mode:multiply; opacity:.45;">
      <ellipse
         cx="24.49"
         cy="41.94"
         rx="20.18"
         ry="4.45"
         style="fill:url(#radial-gradient);"
         id="ellipse13" />
    </g>
    <g
       id="description">
      <path
         d="M27.28,21.7c.51,.47,.81,.76,.93,1.49s-.54,1.84-.54,1.84l-2.03-1.91,1.64-1.42Z"
         style="fill:url(#linear-gradient-3);"
         id="path14" />
      <path
         d="M27.28,21.7c.51,.47,.81,.76,.93,1.49s-.54,1.84-.54,1.84l-2.03-1.91,1.64-1.42Z"
         style="fill:none; stroke:#608bc3; stroke-miterlimit:10; stroke-width:.35px;"
         id="path15" />
      <path
         d="M27.19,22.84s.51-.28,.92-.18c0,0-.35-1.21-.75-1.55s-.68,.81-.68,.81l.52,.92Z"
         style="fill:#193774;"
         id="path16" />
      <path
         d="M27.19,22.84s.51-.28,.92-.18c0,0-.35-1.21-.75-1.55s-.68,.81-.68,.81l.52,.92Z"
         style="fill:none; stroke:#608bc3; stroke-linecap:round; stroke-linejoin:round; stroke-width:.35px;"
         id="path17" />
      <path
         d="M16.7,37.24s-.4,.57-.55,.87-.29,.66-.3,.96,.33,.9,.62,1.77,.74,1.33,1.11,1.5,.95,.25,1.35,.18,.71-.17,.71-.4-.06-.66-.32-.82-.61-.52-.73-.83,.13-1.25,.15-1.64"
         style="fill:#193774;"
         id="path18" />
      <path
         d="M16.7,37.24s-.4,.57-.55,.87-.29,.66-.3,.96,.33,.9,.62,1.77,.74,1.33,1.11,1.5,.95,.25,1.35,.18,.71-.17,.71-.4-.06-.66-.32-.82-.61-.52-.73-.83,.13-1.25,.15-1.64"
         style="fill:url(#linear-gradient-4);"
         id="path19" />
      <path
         d="M16.7,37.24s-.4,.57-.55,.87-.29,.66-.3,.96,.33,.9,.62,1.77,.74,1.33,1.11,1.5,.95,.25,1.35,.18,.71-.17,.71-.4-.06-.66-.32-.82-.61-.52-.73-.83,.13-1.25,.15-1.64"
         style="fill:none; stroke:#608bc3; stroke-miterlimit:10; stroke-width:.35px;"
         id="path20" />
      <path
         d="M29.71,40.1c-.11-.4-.18-.74-.49-1.13s2.15-.79,2.15-.79c0,0,.16,.45,.41,.61s-1.01,2.12-1.03,2.04"
         style="fill:#608bc3;"
         id="path21" />
      <path
         d="M29.71,40.1c-.11-.4-.18-.74-.49-1.13s2.15-.79,2.15-.79c0,0,.16,.45,.41,.61s-1.01,2.12-1.03,2.04"
         style="fill:none; stroke:#608bc3; stroke-miterlimit:10; stroke-width:.35px;"
         id="path22" />
      <path
         d="M29.71,40.1s.15,.6,.52,1.06c.28,.35,.72,.58,.89,.58s1.22-.38,1.9-.83,1.89-1.54,2-1.76-.21-.55-.44-.62c-.32-.09-.86,.2-1.35,.39s-.97,.12-1.16,.04-.29-.17-.29-.17c0,0-.46,.2-.72,.6-.63,.98-1.07,.75-1.35,.71Z"
         style="fill:#193774;"
         id="path23" />
      <path
         d="M29.71,40.1s.15,.6,.52,1.06c.28,.35,.72,.58,.89,.58s1.22-.38,1.9-.83,1.89-1.54,2-1.76-.21-.55-.44-.62c-.32-.09-.86,.2-1.35,.39s-.97,.12-1.16,.04-.29-.17-.29-.17c0,0-.46,.2-.72,.6-.63,.98-1.07,.75-1.35,.71Z"
         style="fill:url(#linear-gradient-5);"
         id="path24" />
      <path
         d="M29.71,40.1s.15,.6,.52,1.06c.28,.35,.72,.58,.89,.58s1.22-.38,1.9-.83,1.89-1.54,2-1.76-.21-.55-.44-.62c-.32-.09-.86,.2-1.35,.39s-.97,.12-1.16,.04-.29-.17-.29-.17c0,0-.46,.2-.72,.6-.63,.98-1.07,.75-1.35,.71Z"
         style="fill:none; stroke:#608bc3; stroke-miterlimit:10; stroke-width:.35px;"
         id="path25" />
      <path
         d="M23.41,21.91s-.27,1.74,.12,3.29,1.11,3.03,1.79,3.97,1.22,2.32,1.22,2.32c0,0,0,1.61,.38,3.13s1.81,4.68,1.81,4.68c0,0,1.31,0,3.08-.63,0,0-2.22-5.56-2.22-6.98s-.07-1.18-.22-1.58-1.75-5.36-1.87-6.21-.02-2.35-.02-2.4"
         style="fill:#193774;"
         id="path26" />
      <path
         d="M23.41,21.91s-.27,1.74,.12,3.29,1.11,3.03,1.79,3.97,1.22,2.32,1.22,2.32c0,0,0,1.61,.38,3.13s1.81,4.68,1.81,4.68c0,0,1.31,0,3.08-.63,0,0-2.22-5.56-2.22-6.98s-.07-1.18-.22-1.58-1.75-5.36-1.87-6.21-.02-2.35-.02-2.4"
         style="fill:url(#linear-gradient-6);"
         id="path27" />
      <path
         d="M29.54,39.23c-.51,.07-.81,.07-.81,.07,0,0-1.41-3.17-1.81-4.69-.39-1.52-.38-3.12-.38-3.12,0,0-.54-1.39-1.22-2.33-.68-.94-1.4-2.42-1.79-3.97-.39-1.55-.12-3.29-.12-3.29l.94-.1v.1s-.2,2.17,.59,4.2c.79,2.02,1.69,4.3,2.13,4.94,.44,.65,.22,1.71,1.24,4.94,.52,1.62,.94,2.63,1.23,3.25Z"
         style="fill:url(#linear-gradient-7);"
         id="path28" />
      <path
         d="M23.41,21.91s-.27,1.74,.12,3.29,1.11,3.03,1.79,3.97,1.22,2.32,1.22,2.32c0,0,0,1.61,.38,3.13s1.81,4.68,1.81,4.68c0,0,1.31,0,3.08-.63,0,0-2.22-5.56-2.22-6.98s-.07-1.18-.22-1.58-1.79-5.35-1.87-6.21c-.07-.8-.14-1.62-.14-1.62"
         style="fill:none; stroke:#608bc3; stroke-linecap:round; stroke-linejoin:round; stroke-width:.35px;"
         id="path29" />
      <path
         d="M20.58,21.92l-.74,8.57s-.68,.74-1.75,3.03-1.74,4.36-1.74,4.36c0,0-.15,1.17,.97,1.55s1.58,.01,1.58,.01c0,0,.35-1.07,.86-2.76,.51-1.68,1.76-3.18,1.96-3.56s1.03-1.26,1.23-1.84,1.39-4.1,1.8-5.58c.17-.63,.54-.77,.54-.77l-.14-3.06-4.57,.05Z"
         style="fill:#193774;"
         id="path30" />
      <path
         d="M20.8,30.79s-.53,.26-1.72,2.45c-1.02,1.89-2.15,4.95-2.37,5.74-.1-.1-.17-.19-.23-.29-.16-.27-.16-.53-.14-.68,0-.08,.01-.14,.01-.14,0,0,.68-2.07,1.74-4.35,1.07-2.28,1.75-3.03,1.75-3.03l.71-8.32h.8c-.19,1.66-.75,7.21-.55,8.62Z"
         style="fill:url(#New_Gradient_Swatch_27); opacity:.53;"
         id="path31" />
      <path
         d="M23.15,30.62c-.14,.59-.14,.51-.2,.67-.21,.58-1.04,1.46-1.23,1.84-.2,.38-1.46,1.87-1.96,3.56-.5,1.68-.86,2.75-.86,2.75,0,0-.1,.35-1.12,.05,.34-1.15,.72-3.09,1.9-5.27s1.66-2.41,2.02-2.74c.35-.33,2.06-5.58,2.06-5.58,.6-1.42,1.98-1.21,2.02-1.14s-.62,.32-.9,.8-.95,2.82-.95,2.82l-.06,.39-.71,1.86Z"
         style="fill:url(#linear-gradient-8);"
         id="path32" />
      <path
         d="M25.28,24.94s-.37,.14-.54,.77c-.41,1.49-1.59,5.01-1.8,5.58s-.99,1.49-1.23,1.84c-.51,.74-1.45,1.87-1.96,3.56-.51,1.68-.86,2.76-.86,2.76,0,0-.46,.37-1.58-.01s-.97-1.55-.97-1.55c0,0,.67-2.08,1.74-4.36s1.75-3.03,1.75-3.03l.74-8.57"
         style="fill:none; stroke:#608bc3; stroke-linecap:round; stroke-linejoin:round; stroke-width:.35px;"
         id="path33" />
      <path
         d="M28.41,21.05c.47,.07,.94,.09,1.42,.07,.23,0,.43-.02,.64-.14,.19-.11,.35-.26,.51-.41,.11-.11,.22-.22,.3-.35s.12-.29,.08-.44c0-.03-.02-.06-.01-.1,0-.05,.06-.09,.1-.12,.07-.06,.14-.14,.15-.23,.01-.1-.03-.2-.1-.27-.12-.13-.31-.18-.46-.25-.17-.07-.35-.09-.53-.09-.36,.01-.71,.12-1.06,.23-.33,.1-.67,.22-1.01,.18-.15-.02-.28,0-.44,0-.03,0-.07,0-.09,.03-.01,.02-.01,.04-.01,.06,0,.11,.05,.21,.07,.31,.02,.13,.02,.25,.03,.38,.02,.35,.13,.69,.23,1.03,.01,.04,.03,.08,.06,.1,.07,.04,.05-.02,.13,0Z"
         style="fill:url(#linear-gradient-9);"
         id="path34" />
      <path
         d="M28.41,21.05c.47,.07,.94,.09,1.42,.07,.23,0,.43-.02,.64-.14,.19-.11,.35-.26,.51-.41,.11-.11,.22-.22,.3-.35s.12-.29,.08-.44c0-.03-.02-.06-.01-.1,0-.05,.06-.09,.1-.12,.07-.06,.14-.14,.15-.23,.01-.1-.03-.2-.1-.27-.12-.13-.31-.18-.46-.25-.17-.07-.35-.09-.53-.09-.36,.01-.71,.12-1.06,.23-.33,.1-.67,.22-1.01,.18-.15-.02-.28,0-.44,0-.03,0-.07,0-.09,.03-.01,.02-.01,.04-.01,.06,0,.11,.05,.21,.07,.31,.02,.13,.02,.25,.03,.38,.02,.35,.13,.69,.23,1.03,.01,.04,.03,.08,.06,.1,.07,.04,.05-.02,.13,0Z"
         style="fill:none; stroke:#d0dfef; stroke-linecap:round; stroke-linejoin:round; stroke-width:.35px;"
         id="path35" />
      <g
         id="g61">
        <path
           d="M24.08,11.07c-.81,.4-2.51,.67-2.93,.84s-.7,1.09-.8,2.63,.59,3.02,.23,7.74h6.78s.04-2.99,.89-5.88c.05-.19,.11-.59,.16-1.04,.85-.63,1.16-1.78,1.06-2.15-.27-.96-1.06-.98-1.53-1.14-.79-.25-1.43-.74-1.43-.74"
           style="fill:#193774;"
           id="path36" />
        <path
           d="M22.29,15.3c-.23,.8-.7,2.89-.68,6.21h-1.03c.37-3.95-.32-5.43-.23-6.97,0-.01,0-.02,0-.04,.64-.2,1.34,.19,1.93,.8Z"
           style="fill:url(#linear-gradient-10);"
           id="path37" />
        <path
           d="M24.08,11.07c-.81,.4-2.51,.67-2.93,.84s-.7,1.09-.8,2.63,.59,3.02,.23,7.74h6.78s.04-2.99,.89-5.88c.05-.19,.11-.59,.16-1.04,.85-.63,1.16-1.78,1.06-2.15-.27-.96-1.06-.98-1.53-1.14-.79-.25-1.43-.74-1.43-.74"
           style="fill:url(#linear-gradient-11);"
           id="path38" />
        <path
           d="M29.41,13.31c0,.08,0,.14,0,.2-1.46-.76-3.51-1.09-3.51-1.09l-.25-.75,.37-.38,.48,.05s.65,.49,1.43,.74c.47,.15,1.45,.49,1.47,1.23Z"
           style="fill:url(#New_Gradient_Swatch_27-2);"
           id="path39" />
        <g
           id="g41">
          <path
             d="M28.21,15.45c.06-.5,.1-1.06,.11-1.48,0,0,.23,.74,.16,1.27l-.27,.21"
             style="fill:#608bc3;"
             id="path40" />
          <path
             d="M24.08,11.07c-.81,.4-2.51,.67-2.93,.84s-.7,1.09-.8,2.63,.59,3.02,.23,7.74h6.78s.04-2.99,.89-5.88c.05-.19,.11-.59,.16-1.04,.85-.63,1.18-1.55,1.06-2.15-.17-.82-1.06-.98-1.53-1.14-.79-.25-1.43-.74-1.43-.74"
             style="fill:none; stroke:#608bc3; stroke-linecap:round; stroke-linejoin:round; stroke-width:.35px;"
             id="path41" />
        </g>
        <path
           d="M26.04,12.28l.57-.21c-.1,.12-.24,.21-.44,.21h-.13Z"
           style="fill:url(#linear-gradient-12);"
           id="path42" />
        <path
           d="M26.76,11.44v.2c0,.12-.05,.3-.16,.43l.16-.63Z"
           style="fill:url(#linear-gradient-13);"
           id="path43" />
        <path
           d="M21.15,11.91c-1.67,.49-2.03,1.94-1.5,4.02s1.9,3.87,2.71,4.54c.73,.61,4.16,.73,6.01,.92,0,0,.52-.17,.73-.62,.27-.59,.31-1.26-.22-1.68-1.76-.16-3.07-.09-4.69-.76-.9-1.1-1.7-2.22-1.72-3.6"
           style="fill:#193774;"
           id="path44" />
        <path
           d="M25.93,11.28l-.36,1.04c-1.63-.21-3.39,.28-4.26,.66-.87,.39-1.94,.71-1.76,2.18,.02,.16,.02,.28,0,.34-.37-1.85,.05-3.13,1.6-3.59,.42-.16,2.13-.44,2.93-.83l1.85,.2Z"
           style="fill:url(#New_Gradient_Swatch_27-3);"
           id="path45" />
        <path
           d="M21.15,11.91c-1.67,.49-2.03,1.94-1.5,4.02s1.9,3.87,2.71,4.54c.73,.61,4.16,.73,6.01,.92,0,0,.52-.17,.73-.62,.27-.59,.31-1.26-.22-1.68-1.76-.16-3.07-.09-4.69-.76-.9-1.1-1.7-2.22-1.72-3.6"
           style="fill:none; stroke:#608bc3; stroke-linecap:round; stroke-linejoin:round; stroke-width:.35px;"
           id="path46" />
        <path
           d="M23.48,11.31c-.86,.28-1.99,.47-2.33,.6"
           style="fill:none; stroke:#285092; stroke-miterlimit:10; stroke-width:.35px;"
           id="path47" />
        <path
           d="M21.18,11.9c.47-.16,2.11-.43,2.91-.82l.24,.03"
           style="fill:none; stroke:#608bc3; stroke-linecap:round; stroke-linejoin:round; stroke-width:.35px;"
           id="path48" />
        <g
           id="g60">
          <path
             d="M25.9,8.82s1.2,.91,1.02,1.37-.16,1.21-.16,1.45-.18,.63-.6,.63c-.27,0-.9,.03-1.48-.37s-.61-.83-.61-.83c.44-.5,.35-1.91,.29-2.22"
             style="fill:url(#linear-gradient-14);"
             id="path49" />
          <path
             d="M26.92,10.2c-.14,.36-.16,.91-.16,1.25l-.16,.63-.57,.21h0s-1.56-2.8-1.59-2.8l-.09-.04c.03-.27,.04-.49,.02-.59l1.53-.02s1.2,.91,1.02,1.37Z"
             style="fill:url(#linear-gradient-15);"
             id="path50" />
          <path
             d="M25.9,8.82s1.2,.91,1.02,1.37-.16,1.21-.16,1.45-.18,.63-.6,.63c-.27,0-.9,.03-1.48-.37s-.61-.83-.61-.83c.43-.45,.35-1.91,.29-2.22"
             style="fill:none; stroke:#608bc3; stroke-linecap:round; stroke-linejoin:round; stroke-width:.35px;"
             id="path51" />
          <path
             d="M26.14,6.1c.39,.02,1.47,.14,1.58,1.15s-.05,2.02-.16,2.51c-.1,.45-.42,.87-.84,.88s-.83,.03-1.46-.5-.63-1.27-.65-1.44,.05-.92,.07-1.31,.58-1.34,1.46-1.29Z"
             style="fill:url(#linear-gradient-16);"
             id="path52" />
          <path
             d="M24.6,8.7c-.02-.17,.05-.92,.07-1.31s.58-1.34,1.46-1.29c.39,.02,1.47,.14,1.58,1.15s-.05,2.02-.16,2.51c-.1,.45-.42,.87-.84,.88-.09,0-.19,0-.28,0"
             style="fill:none; stroke:#d0dfef; stroke-linecap:round; stroke-linejoin:round; stroke-width:.35px;"
             id="path53" />
          <path
             d="M24.71,8.08s.22,.1,.38,.08c.17-.03,.14-.25,.14-.39,.02-.34,.16-1.04,.88-1s1.2,.11,1.54,0c0,0,.04-.25,.03-.7s-.57-.57-1.04-.61-1.45-.1-2.11,.26-.68,.92-.6,1.55,.32,1.08,.32,1.08c0,0,.17-.3,.46-.28Z"
             style="fill:#608bc3; stroke:#d0dfef; stroke-miterlimit:10; stroke-width:.35px;"
             id="path54" />
          <path
             d="M24.71,8.08s.22,.1,.38,.08c.17-.03,.14-.25,.14-.39,.02-.34,.16-1.04,.88-1s1.2,.11,1.54,0c0,0,.04-.25,.03-.7s-.57-.57-1.04-.61-1.45-.1-2.11,.26-.68,.92-.6,1.55,.32,1.08,.32,1.08c0,0,.17-.3,.46-.28Z"
             style="fill:url(#New_Gradient_Swatch_27-4);"
             id="path55" />
          <path
             d="M27.21,6.78c-.3,0-.44-.03-.92-.06-.75-.04-.9,.69-.92,1.04s-.62,.34-.62,.34c0,0-.29-.69-.16-1.29,.12-.6,.61-.84,1.1-.85,.48-.02,.85,0,1.22,.12,.28,.09,.39,.41,.31,.71Z"
             style="fill:#193774;"
             id="path56" />
          <path
             d="M27.21,6.78c-.3,0-.44-.03-.92-.06-.75-.04-.9,.69-.92,1.04s-.62,.34-.62,.34c0,0-.29-.69-.16-1.29,.12-.6,.61-.84,1.1-.85,.48-.02,.85,0,1.22,.12,.28,.09,.39,.41,.31,.71Z"
             style="fill:url(#linear-gradient-17);"
             id="path57" />
          <path
             d="M24.71,8.08s.22,.1,.38,.08c.17-.03,.14-.25,.14-.39,.02-.34,.16-1.04,.88-1s1.2,.11,1.54,0c0,0,.04-.25,.03-.7s-.57-.57-1.04-.61-1.45-.1-2.11,.26-.68,.92-.6,1.55,.32,1.08,.32,1.08c0,0,.17-.3,.46-.28Z"
             style="fill:none; stroke:#285092; stroke-miterlimit:10; stroke-width:.35px;"
             id="path58" />
          <path
             d="M24.82,8.24c-.1-.12-.23-.2-.36-.18-.24,.03-.4,.32-.36,.65s.27,.58,.51,.55c.08,0,.15-.05,.21-.11"
             style="fill:url(#linear-gradient-18);"
             id="path59" />
          <path
             d="M24.82,8.24c-.1-.12-.23-.2-.36-.18-.24,.03-.4,.32-.36,.65s.27,.58,.51,.55c.04,0,.08-.02,.11-.03"
             style="fill:none; stroke:#608bc3; stroke-linecap:round; stroke-linejoin:round; stroke-width:.35px;"
             id="path60" />
        </g>
      </g>
    </g>
  </g>
</svg>
