<?xml version="1.0" encoding="UTF-8" standalone="no"?>
<svg
   viewBox="0 0 48 48"
   version="1.1"
   id="svg149036"
   sodipodi:docname="elastictransform.svg"
   inkscape:version="1.1 (c68e22c387, 2021-05-23)"
   xmlns:inkscape="http://www.inkscape.org/namespaces/inkscape"
   xmlns:sodipodi="http://sodipodi.sourceforge.net/DTD/sodipodi-0.dtd"
   xmlns:xlink="http://www.w3.org/1999/xlink"
   xmlns="http://www.w3.org/2000/svg"
   xmlns:svg="http://www.w3.org/2000/svg"
   xmlns:rdf="http://www.w3.org/1999/02/22-rdf-syntax-ns#"
   xmlns:cc="http://creativecommons.org/ns#"
   xmlns:dc="http://purl.org/dc/elements/1.1/">
  <sodipodi:namedview
     id="namedview149038"
     pagecolor="#ffffff"
     bordercolor="#666666"
     borderopacity="1.0"
     inkscape:pageshadow="2"
     inkscape:pageopacity="0.0"
     inkscape:pagecheckerboard="0"
     showgrid="false"
     inkscape:snap-global="false"
     inkscape:zoom="15.6875"
     inkscape:cx="14.215139"
     inkscape:cy="23.74502"
     inkscape:window-width="2880"
     inkscape:window-height="1557"
     inkscape:window-x="-8"
     inkscape:window-y="-8"
     inkscape:window-maximized="1"
     inkscape:current-layer="svg149036" />
  <defs
     id="defs148912">
    <style
       id="style148850">.cls-1{isolation:isolate;}.cls-2{fill:url(#radial-gradient);}.cls-3{fill:url(#radial-gradient-2);}.cls-4{mix-blend-mode:multiply;}.cls-19,.cls-5,.cls-8{fill:none;stroke:#3465a4;}.cls-19,.cls-5{stroke-linecap:round;stroke-linejoin:round;}.cls-5{stroke-width:0.7px;}.cls-6{fill:url(#linear-gradient);}.cls-7{fill:url(#linear-gradient-2);}.cls-8{stroke-miterlimit:10;}.cls-19,.cls-8{stroke-width:0.35px;}.cls-9{fill:url(#linear-gradient-3);}.cls-10{fill:url(#linear-gradient-4);}.cls-11{fill:url(#linear-gradient-5);}.cls-12{fill:url(#linear-gradient-6);}.cls-13{fill:url(#linear-gradient-7);}.cls-14{fill:url(#linear-gradient-8);}.cls-15{fill:url(#linear-gradient-9);}.cls-16{fill:url(#linear-gradient-10);}.cls-17{fill:url(#linear-gradient-11);}.cls-18{fill:url(#linear-gradient-12);}.cls-20{fill:url(#linear-gradient-13);}.cls-21{fill:url(#linear-gradient-14);}.cls-22{fill:url(#linear-gradient-15);}.cls-23,.cls-27{fill:#3465a4;}.cls-24{fill:url(#linear-gradient-16);}.cls-25{fill:url(#linear-gradient-17);}.cls-26{fill:#204a87;}.cls-27{opacity:0.41;}.cls-28{fill:url(#linear-gradient-18);}.cls-29{fill:url(#linear-gradient-19);}.cls-30{fill:url(#linear-gradient-20);}.cls-31{fill:url(#linear-gradient-21);}.cls-32{fill:url(#linear-gradient-22);}.cls-33{fill:url(#linear-gradient-23);}.cls-34{fill:url(#linear-gradient-24);}.cls-35{fill:url(#linear-gradient-25);}.cls-36{fill:url(#linear-gradient-26);}.cls-37{fill:url(#linear-gradient-27);}.cls-38{fill:url(#linear-gradient-28);}.cls-39{fill:url(#linear-gradient-29);}.cls-40{fill:url(#linear-gradient-30);}.cls-41{fill:url(#linear-gradient-31);}.cls-42{fill:url(#linear-gradient-32);}.cls-43{fill:url(#linear-gradient-33);}.cls-44{fill:url(#linear-gradient-34);}.cls-45{fill:url(#linear-gradient-35);}.cls-46{fill:url(#linear-gradient-36);}</style>
    <radialGradient
       id="radial-gradient"
       cx="4.02"
       cy="-65.65"
       r="7"
       gradientTransform="translate(9.67 63.11) scale(1.11 0.42)"
       gradientUnits="userSpaceOnUse">
      <stop
         offset="0.03"
         stop-color="#2c2c2c"
         stop-opacity="0.5"
         id="stop148852" />
      <stop
         offset="0.68"
         stop-color="#2c2c2c"
         stop-opacity="0.1"
         id="stop148854" />
      <stop
         offset="0.93"
         stop-color="#2c2c2c"
         stop-opacity="0"
         id="stop148856" />
    </radialGradient>
    <radialGradient
       id="radial-gradient-2"
       cx="22.05"
       cy="-65.65"
       r="7"
       xlink:href="#radial-gradient" />
    <linearGradient
       id="linear-gradient"
       x1="5.54"
       y1="24.87"
       x2="7.03"
       y2="24.62"
       gradientUnits="userSpaceOnUse">
      <stop
         offset="0"
         stop-color="#b2cbe5"
         id="stop148860" />
      <stop
         offset="1"
         stop-color="#3465a4"
         id="stop148862" />
    </linearGradient>
    <linearGradient
       id="linear-gradient-2"
       x1="3.45"
       y1="25"
       x2="7.46"
       y2="24.58"
       gradientUnits="userSpaceOnUse">
      <stop
         offset="0"
         stop-color="#b2cbe5"
         stop-opacity="0"
         id="stop148865" />
      <stop
         offset="1"
         stop-color="#3465a4"
         id="stop148867" />
    </linearGradient>
    <linearGradient
       id="linear-gradient-3"
       x1="-53.88"
       y1="24.87"
       x2="-52.4"
       y2="24.62"
       gradientTransform="matrix(-1,0,0,1,-31.14,0)"
       xlink:href="#linear-gradient" />
    <linearGradient
       id="linear-gradient-4"
       x1="-55.97"
       y1="25"
       x2="-51.96"
       y2="24.58"
       gradientTransform="matrix(-1,0,0,1,-31.14,0)"
       xlink:href="#linear-gradient-2" />
    <linearGradient
       id="linear-gradient-5"
       x1="14.14"
       y1="15.39"
       x2="14.14"
       y2="36.09"
       xlink:href="#linear-gradient" />
    <linearGradient
       id="linear-gradient-6"
       x1="12.55"
       y1="26.46"
       x2="10.18"
       y2="29.32"
       xlink:href="#linear-gradient-2" />
    <linearGradient
       id="linear-gradient-7"
       x1="-46.88"
       y1="26.46"
       x2="-49.24"
       y2="29.32"
       gradientTransform="matrix(-1,0,0,1,-31.14,0)"
       xlink:href="#linear-gradient-2" />
    <linearGradient
       id="linear-gradient-8"
       x1="14.14"
       y1="18.44"
       x2="14.14"
       y2="59.33"
       gradientUnits="userSpaceOnUse">
      <stop
         offset="0"
         stop-color="#c1d5ea"
         id="stop148875" />
      <stop
         offset="1"
         stop-color="#3465a4"
         id="stop148877" />
    </linearGradient>
    <linearGradient
       id="linear-gradient-9"
       x1="13.58"
       y1="26.97"
       x2="13.58"
       y2="8.7"
       gradientTransform="matrix(-1,0,0,1,27.72,0)"
       xlink:href="#linear-gradient-8" />
    <linearGradient
       id="linear-gradient-10"
       x1="14.01"
       y1="10.06"
       x2="14.01"
       y2="20.63"
       xlink:href="#linear-gradient" />
    <linearGradient
       id="linear-gradient-11"
       x1="14.01"
       y1="9.91"
       x2="14.01"
       y2="18.41"
       gradientUnits="userSpaceOnUse">
      <stop
         offset="0"
         stop-color="#00255d"
         stop-opacity="0"
         id="stop148882" />
      <stop
         offset="1"
         stop-color="#00255d"
         id="stop148884" />
    </linearGradient>
    <linearGradient
       id="linear-gradient-12"
       x1="14.14"
       y1="14.59"
       x2="14.14"
       y2="18.47"
       xlink:href="#linear-gradient-11" />
    <linearGradient
       id="linear-gradient-13"
       x1="14.1"
       y1="22.87"
       x2="14.01"
       y2="28.78"
       xlink:href="#linear-gradient-2" />
    <linearGradient
       id="linear-gradient-14"
       x1="11.44"
       y1="29.43"
       x2="11.44"
       y2="19.92"
       xlink:href="#linear-gradient-2" />
    <linearGradient
       id="linear-gradient-15"
       x1="16.84"
       y1="26.06"
       x2="16.84"
       y2="20.1"
       xlink:href="#linear-gradient-2" />
    <linearGradient
       id="linear-gradient-16"
       x1="14.14"
       y1="31.84"
       x2="14.14"
       y2="29.42"
       xlink:href="#linear-gradient-11" />
    <linearGradient
       id="linear-gradient-17"
       x1="14.14"
       y1="33.16"
       x2="14.14"
       y2="31.7"
       xlink:href="#linear-gradient-2" />
    <linearGradient
       id="linear-gradient-18"
       x1="13.82"
       y1="9.9"
       x2="13.82"
       y2="15.26"
       gradientTransform="rotate(0.44,-19.472556,15.701045)"
       xlink:href="#linear-gradient" />
    <linearGradient
       id="linear-gradient-19"
       x1="25.56"
       y1="25.47"
       x2="27.05"
       y2="25.22"
       gradientTransform="rotate(13.14,29.37999,22.877449)"
       xlink:href="#linear-gradient" />
    <linearGradient
       id="linear-gradient-20"
       x1="23.48"
       y1="25.61"
       x2="27.48"
       y2="25.18"
       gradientTransform="rotate(13.14,29.37999,22.877449)"
       xlink:href="#linear-gradient-2" />
    <linearGradient
       id="linear-gradient-21"
       x1="28.2"
       y1="24.86"
       x2="29.69"
       y2="24.6"
       gradientTransform="matrix(-0.97,0.23,0.23,0.97,65.1,-6.08)"
       xlink:href="#linear-gradient" />
    <linearGradient
       id="linear-gradient-22"
       x1="26.12"
       y1="24.99"
       x2="30.13"
       y2="24.56"
       gradientTransform="matrix(-0.97,0.23,0.23,0.97,65.1,-6.08)"
       xlink:href="#linear-gradient-2" />
    <linearGradient
       id="linear-gradient-23"
       x1="34.18"
       y1="16.62"
       x2="34.18"
       y2="38.64"
       xlink:href="#linear-gradient" />
    <linearGradient
       id="linear-gradient-24"
       x1="30.1"
       y1="30.12"
       x2="29.04"
       y2="32.98"
       gradientTransform="matrix(-1,0,0,1,68.37,0)"
       xlink:href="#linear-gradient" />
    <linearGradient
       id="linear-gradient-25"
       x1="30.1"
       y1="30.12"
       x2="29.04"
       y2="32.98"
       xlink:href="#linear-gradient" />
    <linearGradient
       id="linear-gradient-26"
       x1="36.89"
       y1="18.48"
       x2="36.89"
       y2="59.36"
       gradientTransform="matrix(-1,0,0,1,71.07,0)"
       xlink:href="#linear-gradient-8" />
    <linearGradient
       id="linear-gradient-27"
       x1="-6.46"
       y1="27"
       x2="-6.46"
       y2="8.74"
       gradientTransform="matrix(-1,0,0,1,27.72,0)"
       xlink:href="#linear-gradient-8" />
    <linearGradient
       id="linear-gradient-28"
       x1="34.04"
       y1="10.09"
       x2="34.04"
       y2="20.67"
       xlink:href="#linear-gradient" />
    <linearGradient
       id="linear-gradient-29"
       x1="34.04"
       y1="9.94"
       x2="34.04"
       y2="18.44"
       xlink:href="#linear-gradient-11" />
    <linearGradient
       id="linear-gradient-30"
       x1="34.18"
       y1="14.63"
       x2="34.18"
       y2="18.51"
       xlink:href="#linear-gradient-11" />
    <linearGradient
       id="linear-gradient-31"
       x1="34.14"
       y1="22.9"
       x2="34.05"
       y2="28.81"
       xlink:href="#linear-gradient-2" />
    <linearGradient
       id="linear-gradient-32"
       x1="31.48"
       y1="29.03"
       x2="31.48"
       y2="21.01"
       xlink:href="#linear-gradient-2" />
    <linearGradient
       id="linear-gradient-33"
       x1="36.88"
       y1="25.66"
       x2="36.88"
       y2="21.19"
       xlink:href="#linear-gradient-2" />
    <linearGradient
       id="linear-gradient-34"
       x1="33.86"
       y1="9.78"
       x2="33.86"
       y2="15.14"
       gradientTransform="rotate(0.44,-19.472556,15.701045)"
       xlink:href="#linear-gradient" />
    <linearGradient
       id="linear-gradient-35"
       x1="34.18"
       y1="29.65"
       x2="34.18"
       y2="28.41"
       gradientTransform="matrix(1,0,0,-1,0,58.88)"
       xlink:href="#linear-gradient-11" />
    <linearGradient
       id="linear-gradient-36"
       x1="36.89"
       y1="32.45"
       x2="36.89"
       y2="31.37"
       gradientTransform="matrix(-1,0,0,1,71.07,0)"
       xlink:href="#linear-gradient-2" />
    <linearGradient
       inkscape:collect="always"
       xlink:href="#linear-gradient"
       id="linearGradient149042"
       gradientUnits="userSpaceOnUse"
       x1="5.54"
       y1="24.87"
       x2="7.03"
       y2="24.62" />
    <linearGradient
       inkscape:collect="always"
       xlink:href="#linear-gradient-2"
       id="linearGradient149044"
       gradientUnits="userSpaceOnUse"
       x1="3.45"
       y1="25"
       x2="7.46"
       y2="24.58" />
    <linearGradient
       inkscape:collect="always"
       xlink:href="#linear-gradient-8"
       id="linearGradient149046"
       gradientUnits="userSpaceOnUse"
       x1="14.14"
       y1="18.44"
       x2="14.14"
       y2="59.33" />
    <linearGradient
       inkscape:collect="always"
       xlink:href="#linear-gradient-11"
       id="linearGradient149048"
       gradientUnits="userSpaceOnUse"
       x1="14.01"
       y1="9.91"
       x2="14.01"
       y2="18.41" />
  </defs>
  <title
     id="title148914">14-Elastic_Transform</title>
  <g
     id="g149274"
     transform="matrix(1.3797635,0,0,1.37603,-6.6766935,-10.594381)"
     style="stroke-width:0.725744">
    <path
       class="cls-5"
       d="m 21.92,22.05 a 1.33,1.33 0 0 0 -0.45,0 c 0.11,-1.26 0.21,-2.78 0.2,-4.32 A 2.91,2.91 0 0 0 20.45,15 a 1.73,1.73 0 0 0 -1,-0.28 c 0.25,-1 -0.11,-1.36 0,-2.09 a 0.94,0.94 0 0 1 0.63,-0.84 17.81,17.81 0 0 0 -5.44,-0.54 11.69,11.69 0 0 0 -4.6,1 3.94,3.94 0 0 0 -1.83,1.64 2.66,2.66 0 0 0 -0.57,1.2 2,2 0 0 0 -0.77,0.62 4.42,4.42 0 0 0 -0.48,2.39 c 0.06,1.41 0.19,2.78 0.34,3.94 a 1.88,1.88 0 0 0 -0.34,0 C 5.11,22.17 4.82,24.12 5.57,25.7 a 2.22,2.22 0 0 0 1.88,1.51 c 0.52,1.65 1.84,2.24 2.74,3.5 1.05,1.49 1.73,3.49 2.44,4.31 a 2,2 0 0 0 1.54,0.61 2,2 0 0 0 1.51,-0.63 c 0.71,-0.82 1.39,-2.82 2.44,-4.31 0.9,-1.26 2.22,-1.85 2.74,-3.5 a 2.22,2.22 0 0 0 1.88,-1.51 c 0.75,-1.55 0.46,-3.5 -0.82,-3.63 z"
       id="path148921"
       style="isolation:isolate" />
    <path
       class="cls-6"
       d="m 8.66,25 c -0.12,-1.5 -1.12,-3.05 -2.3,-2.93 -1.18,0.12 -1.57,2.08 -0.82,3.66 0.53,1.15 1.44,1.68 2.12,1.47 0.68,-0.21 1.08,-1.1 1,-2.2 z"
       id="path148925"
       style="isolation:isolate;fill:url(#linearGradient149042);stroke-width:0.725744" />
    <path
       class="cls-7"
       d="m 7.78,24.83 c 0,-0.83 -0.56,-1.68 -1.15,-1.61 -0.59,0.07 -0.79,1.14 -0.42,2 0.27,0.62 0.73,0.91 1.07,0.8 0.34,-0.11 0.55,-0.58 0.5,-1.19 z"
       id="path148927"
       style="isolation:isolate;fill:url(#linearGradient149044);stroke-width:0.725744" />
    <path
       class="cls-8"
       d="m 8.66,25 c -0.12,-1.5 -1.12,-3.05 -2.3,-2.93 -1.18,0.12 -1.57,2.08 -0.82,3.66 0.53,1.15 1.44,1.68 2.12,1.47 0.68,-0.21 1.08,-1.1 1,-2.2 z"
       id="path148929"
       style="isolation:isolate" />
    <path
       class="cls-9"
       d="m 19.62,25 c 0.12,-1.5 1.12,-3.05 2.3,-2.93 1.18,0.12 1.57,2.08 0.82,3.66 -0.53,1.15 -1.44,1.68 -2.12,1.47 -0.68,-0.21 -1.08,-1.1 -1,-2.2 z"
       id="path148931"
       style="isolation:isolate;fill:url(#linear-gradient-3);stroke-width:0.725744" />
    <path
       class="cls-10"
       d="m 20.5,24.83 c 0.05,-0.83 0.56,-1.68 1.15,-1.61 0.59,0.07 0.79,1.14 0.42,2 -0.27,0.62 -0.73,0.91 -1.07,0.8 -0.34,-0.11 -0.55,-0.58 -0.5,-1.19 z"
       id="path148933"
       style="isolation:isolate;fill:url(#linear-gradient-4);stroke-width:0.725744" />
    <path
       class="cls-8"
       d="m 19.62,25 c 0.12,-1.5 1.12,-3.05 2.3,-2.93 1.18,0.12 1.57,2.08 0.82,3.66 -0.53,1.15 -1.44,1.68 -2.12,1.47 -0.68,-0.21 -1.08,-1.1 -1,-2.2 z"
       id="path148935"
       style="isolation:isolate" />
    <path
       class="cls-11"
       d="m 14.14,13.92 v 0 a 6.71,6.71 0 0 1 6.66,7 24.73,24.73 0 0 1 0.29,4.73 c 0,3 -1.83,3.51 -3,5.12 -1.17,1.61 -1.7,3.44 -2.4,4.23 a 2,2 0 0 1 -1.55,0.61 v 0 A 2,2 0 0 1 12.6,35 c -0.71,-0.82 -1.39,-2.82 -2.44,-4.31 -1.05,-1.49 -3,-2.11 -3,-5.12 a 24.73,24.73 0 0 1 0.29,-4.73 6.71,6.71 0 0 1 6.66,-7 z"
       id="path148937"
       style="isolation:isolate;fill:url(#linear-gradient-5);stroke-width:0.725744" />
    <path
       class="cls-12"
       d="M 12.17,34.43 C 11.57,33.49 11,31.92 10.17,30.72 9,29.11 7.38,28.6 7.38,25.6 v -0.42 a 3.3,3.3 0 0 0 0.84,2.42 11.32,11.32 0 0 1 2.31,2.52 c 0.56,0.88 0.77,2.81 1.64,4.31 z"
       id="path148939"
       style="isolation:isolate;fill:url(#linear-gradient-6);stroke-width:0.725744" />
    <path
       class="cls-13"
       d="m 16.11,34.43 c 0.6,-0.94 1.17,-2.51 2,-3.71 1.13,-1.61 2.77,-2.12 2.77,-5.12 v -0.42 a 3.3,3.3 0 0 1 -0.84,2.42 11.57,11.57 0 0 0 -2.31,2.52 C 17.19,31 17,32.93 16.11,34.43 Z"
       id="path148941"
       style="isolation:isolate;fill:url(#linear-gradient-7);stroke-width:0.725744" />
    <path
       class="cls-14"
       d="M 14.14,16 C 12.5,16 9.05,16.11 8.67,18.06 A 22.67,22.67 0 0 0 8.42,22.3 c -0.06,0.61 -0.38,1.25 -0.5,2.34 -0.12,1.09 0.67,1.53 1.83,2.17 a 4.78,4.78 0 0 1 2.09,3 c 0.19,0.91 0.21,5.06 2.3,5.06 2.09,0 2.11,-4.15 2.3,-5.06 a 4.78,4.78 0 0 1 2.09,-3 c 1.16,-0.64 1.94,-1.08 1.83,-2.17 -0.11,-1.09 -0.44,-1.73 -0.5,-2.34 A 22.67,22.67 0 0 0 19.61,18.06 C 19.23,16.1 15.78,16 14.14,16"
       id="path148943"
       style="isolation:isolate;fill:url(#linearGradient149046);stroke-width:0.725744" />
    <path
       class="cls-15"
       d="m 14.14,27.45 c 1.09,0 0.71,-1.26 0.63,-1.82 A 10.19,10.19 0 0 1 14.65,23.48 1.62,1.62 0 0 1 15.4,22 2.24,2.24 0 0 1 14.14,22.42 v 0 A 2.24,2.24 0 0 1 12.88,22 a 1.62,1.62 0 0 1 0.75,1.51 10.19,10.19 0 0 1 -0.12,2.15 c -0.08,0.56 -0.46,1.82 0.63,1.82 z"
       id="path148945"
       style="isolation:isolate;fill:url(#linear-gradient-9);stroke-width:0.725744" />
    <path
       class="cls-8"
       d="m 14.14,13.92 v 0 a 6.71,6.71 0 0 1 6.66,7 24.73,24.73 0 0 1 0.29,4.73 c 0,3 -1.83,3.51 -3,5.12 -1.17,1.61 -1.7,3.44 -2.4,4.23 a 2,2 0 0 1 -1.55,0.61 v 0 A 2,2 0 0 1 12.6,35 c -0.71,-0.82 -1.39,-2.82 -2.44,-4.31 -1.05,-1.49 -3,-2.11 -3,-5.12 a 24.73,24.73 0 0 1 0.29,-4.73 6.71,6.71 0 0 1 6.66,-7 z"
       id="path148947"
       style="isolation:isolate" />
    <path
       class="cls-16"
       d="m 21.09,25.21 c 0,0 -0.5,-3.61 -0.5,-4.55 0,-2.11 -0.89,-4.38 -2.74,-4.38 v 0 c -1.85,0 -2.51,0.22 -3.71,0.22 -1.2,0 -1.86,-0.22 -3.71,-0.22 -1.85,0 -2.74,2.27 -2.74,4.38 0,0.94 -0.5,4.55 -0.5,4.55 a 53,53 0 0 1 -0.83,-7.08 4.42,4.42 0 0 1 0.48,-2.39 2,2 0 0 1 0.77,-0.62 2.66,2.66 0 0 1 0.57,-1.2 3.94,3.94 0 0 1 1.82,-1.64 11.69,11.69 0 0 1 4.6,-1 17.81,17.81 0 0 1 5.44,0.54 0.94,0.94 0 0 0 -0.63,0.84 c -0.12,0.73 0.24,1.12 0,2.09 a 1.51,1.51 0 0 1 1,0.28 4,4 0 0 1 1.22,2.91 46.93,46.93 0 0 1 -0.58,7.27 z"
       id="path148949"
       style="isolation:isolate;fill:url(#linear-gradient-10);stroke-width:0.725744" />
    <path
       class="cls-17"
       d="m 21.09,25.21 c 0,0 -0.5,-3.61 -0.5,-4.55 0,-2.11 -0.89,-4.38 -2.74,-4.38 v 0 c -1.85,0 -2.51,0.22 -3.71,0.22 -1.2,0 -1.86,-0.22 -3.71,-0.22 -1.85,0 -2.74,2.27 -2.74,4.38 0,0.94 -0.5,4.55 -0.5,4.55 a 53,53 0 0 1 -0.83,-7.08 4.42,4.42 0 0 1 0.48,-2.39 2,2 0 0 1 0.77,-0.62 2.66,2.66 0 0 1 0.57,-1.2 3.94,3.94 0 0 1 1.82,-1.64 11.69,11.69 0 0 1 4.6,-1 17.81,17.81 0 0 1 5.44,0.54 0.94,0.94 0 0 0 -0.63,0.84 c -0.12,0.73 0.24,1.12 0,2.09 a 2.36,2.36 0 0 1 1,0.28 c 0.74,0.44 1.21,1.32 1.22,2.91 a 46.93,46.93 0 0 1 -0.58,7.27 z"
       id="path148951"
       style="isolation:isolate;fill:url(#linearGradient149048);stroke-width:0.725744" />
    <path
       class="cls-18"
       d="M 20.76,20.66 H 20.6 c 0,-2.11 -0.9,-4.38 -2.75,-4.38 a 20.92,20.92 0 0 0 -2.1,0.11 c -0.55,0.05 -1,0.11 -1.61,0.11 -1.2,0 -1.86,-0.22 -3.71,-0.22 -1.85,0 -2.74,2.27 -2.74,4.38 H 7.51 c 0.1,-2.26 0.46,-4.47 1.85,-5.41 0.45,-0.31 2,0.08 4.78,0.08 2.78,0 4.32,-0.39 4.78,-0.08 1.39,0.94 1.75,3.15 1.84,5.41 z"
       id="path148953"
       style="isolation:isolate;fill:url(#linear-gradient-12);stroke-width:0.725744" />
    <path
       class="cls-19"
       d="m 21.09,25.21 c 0,0 -0.5,-3.61 -0.5,-4.55 0,-2.11 -0.89,-4.38 -2.74,-4.38 v 0 c -1.85,0 -2.51,0.22 -3.71,0.22 -1.2,0 -1.86,-0.22 -3.71,-0.22 -1.85,0 -2.74,2.27 -2.74,4.38 a 37.55,37.55 0 0 1 -0.5,4.55 53,53 0 0 1 -0.83,-7.08 4.42,4.42 0 0 1 0.48,-2.39 2,2 0 0 1 0.77,-0.62 2.66,2.66 0 0 1 0.57,-1.2 3.94,3.94 0 0 1 1.82,-1.64 11.69,11.69 0 0 1 4.6,-1 17.81,17.81 0 0 1 5.44,0.54 0.94,0.94 0 0 0 -0.63,0.84 c -0.12,0.73 0.24,1.12 0,2.09 a 1.73,1.73 0 0 1 1,0.28 2.91,2.91 0 0 1 1.22,2.74 50.77,50.77 0 0 1 -0.58,7.44 z"
       id="path148955"
       style="isolation:isolate" />
    <path
       class="cls-20"
       d="m 13.58,22.94 a 16.44,16.44 0 0 1 -0.23,3.7 c -0.12,0.91 0.29,1.12 0.79,1.12 0.5,0 0.68,-0.31 1,-0.31 h 0.55 c 0,0 -0.72,1 -1.55,1 a 2.83,2.83 0 0 1 -1.64,-0.81 0.84,0.84 0 0 1 -0.09,-0.7 3.7,3.7 0 0 0 0.47,-2.63 2.05,2.05 0 0 0 0.7,-1.37 z"
       id="path148957"
       style="isolation:isolate;fill:url(#linear-gradient-13);stroke-width:0.725744" />
    <path
       class="cls-21"
       d="m 9.38,23 a 2,2 0 0 1 0.73,-2.38 c 1.09,-0.43 1.46,-0.15 2.67,0.32 A 1.76,1.76 0 0 1 13.6,22.21 21.15,21.15 0 0 1 13.35,26.65 16.91,16.91 0 0 0 12.9,24.33 0.72,0.72 0 0 0 12.13,23.86 4.72,4.72 0 0 1 10.72,23.8 1.6,1.6 0 0 1 9.38,23 Z"
       id="path148959"
       style="isolation:isolate;fill:url(#linear-gradient-14);stroke-width:0.725744" />
    <path
       class="cls-22"
       d="m 18.9,23 a 1.64,1.64 0 0 1 -1.34,0.81 6.51,6.51 0 0 1 -1.87,0 1.28,1.28 0 0 0 -1,0.51 20.72,20.72 0 0 1 0,-2.12 1.74,1.74 0 0 1 0.81,-1.27 c 1.21,-0.47 1.58,-0.75 2.68,-0.31 A 2,2 0 0 1 18.9,23 Z"
       id="path148961"
       style="isolation:isolate;fill:url(#linear-gradient-15);stroke-width:0.725744" />
    <path
       class="cls-23"
       d="m 14.14,29.8 a 2.39,2.39 0 0 0 0.5,0.45 c 0,0 0,0.77 -0.5,0.77 v 0 c -0.51,0 -0.51,-0.77 -0.51,-0.77 a 2.34,2.34 0 0 0 0.51,-0.45 z"
       id="path148963"
       style="isolation:isolate;stroke-width:0.725744" />
    <path
       class="cls-24"
       d="m 14.14,29.8 a 2.39,2.39 0 0 0 0.5,0.45 c 0,0 0,0.77 -0.5,0.77 v 0 c -0.51,0 -0.51,-0.77 -0.51,-0.77 a 2.34,2.34 0 0 0 0.51,-0.45 z"
       id="path148965"
       style="isolation:isolate;fill:url(#linear-gradient-16);stroke-width:0.725744" />
    <path
       class="cls-25"
       d="m 14.13,32.34 a 0.6,0.6 0 0 0 0.47,-0.29 c 0.13,-0.29 0.15,-0.53 0.06,-0.41 a 0.91,0.91 0 0 1 -0.52,0.25 0.94,0.94 0 0 1 -0.53,-0.25 c -0.09,-0.12 -0.07,0.12 0.07,0.41 a 0.59,0.59 0 0 0 0.46,0.29 z"
       id="path148967"
       style="isolation:isolate;fill:url(#linear-gradient-17);stroke-width:0.725744" />
    <path
       class="cls-26"
       d="M 12.91,20.6 12.82,20.53 A 4.78,4.78 0 0 0 10,20.17 1.45,1.45 0 0 0 8.81,21.49 2.47,2.47 0 0 1 10,21 6.3,6.3 0 0 1 13.36,21.25 2.11,2.11 0 0 0 12.91,20.6 Z"
       id="path148969"
       style="isolation:isolate;stroke-width:0.725744" />
    <path
       class="cls-26"
       d="m 15.37,20.6 0.09,-0.07 a 4.78,4.78 0 0 1 2.82,-0.36 1.45,1.45 0 0 1 1.19,1.32 2.47,2.47 0 0 0 -1.14,-0.49 6.3,6.3 0 0 0 -3.36,0.25 2.11,2.11 0 0 1 0.4,-0.65 z"
       id="path148971"
       style="isolation:isolate;stroke-width:0.725744" />
    <path
       class="cls-27"
       d="m 9.7,22.83 a 1.75,1.75 0 0 1 1.49,-0.65 3.46,3.46 0 0 1 1.64,0.63 c 0.15,0.13 0.13,0.26 0,0.29 a 8.71,8.71 0 0 1 -1.8,0.07 2.21,2.21 0 0 1 -1.33,-0.34 z"
       id="path148973"
       style="isolation:isolate;stroke-width:0.725744" />
    <path
       class="cls-27"
       d="m 18.58,22.83 a 1.75,1.75 0 0 0 -1.49,-0.65 3.46,3.46 0 0 0 -1.64,0.63 c -0.15,0.13 -0.13,0.26 0,0.29 a 8.75,8.75 0 0 0 1.8,0.07 2.21,2.21 0 0 0 1.33,-0.34 z"
       id="path148975"
       style="isolation:isolate;stroke-width:0.725744" />
    <path
       class="cls-28"
       d="m 8.51,14.51 a 4.72,4.72 0 0 1 2.32,-2 c 1.35,-0.54 -0.15,0.73 0.25,0.72 0.4,-0.01 1.92,-1.23 2.56,-1.16 0.64,0.07 -0.62,1.08 0.13,1.07 0.75,-0.01 1.49,-1.14 2.34,-1.14 0.85,0 -0.34,1.37 0.53,1.09 0.87,-0.28 0.89,-1.18 2.52,-1.07 a 1.45,1.45 0 0 0 -1.1,0.77 2.2,2.2 0 0 1 -2.06,1.45 c -1.23,0 -0.49,-1.17 -1,-0.91 a 7.75,7.75 0 0 1 -2.64,1 c -0.93,0.06 0.13,-0.74 -0.21,-0.82 -0.34,-0.08 -1.34,0.74 -1.84,0.81 -0.5,0.07 -0.35,-0.45 -0.26,-0.69 0.09,-0.24 -0.83,0.17 -1.54,0.88 z"
       id="path148977"
       style="isolation:isolate;fill:url(#linear-gradient-18);stroke-width:0.725744" />
  </g>
  <g
     id="g149304"
     transform="matrix(1.3304201,0,0,1.3282865,-10.879639,-2.9930545)"
     style="stroke-width:0.752246">
    <path
       class="cls-5"
       d="m 42.55,27 a 2.75,2.75 0 0 0 0.93,-1.64 c 0.36,-1.72 -0.36,-3.54 -1.64,-3.38 a 1.66,1.66 0 0 0 -0.21,0.06 c 0,-1.24 0.09,-2.73 0.08,-4.24 a 2.94,2.94 0 0 0 -1.21,-2.74 1.77,1.77 0 0 0 -1,-0.28 c 0.25,-1 -0.11,-1.36 0,-2.09 a 1,1 0 0 1 0.63,-0.84 18.06,18.06 0 0 0 -5.43,-0.54 11.88,11.88 0 0 0 -4.61,1 4,4 0 0 0 -1.87,1.69 2.71,2.71 0 0 0 -0.57,1.2 2,2 0 0 0 -0.77,0.63 3.63,3.63 0 0 0 -0.48,2.38 c 0.17,1.46 0.29,2.79 0.38,3.9 a 1.29,1.29 0 0 0 -0.26,-0.08 c -1.28,-0.16 -2,1.66 -1.64,3.38 A 2.8,2.8 0 0 0 25.81,27 c -0.84,1 -1.64,1.84 -1.21,3.37 0.82,2.89 4.63,2 7.59,4.69 a 3.5,3.5 0 0 0 4,0 c 3,-2.69 6.77,-1.8 7.59,-4.69 C 44.2,28.84 43.39,28 42.55,27 Z"
       id="path148923"
       style="isolation:isolate" />
    <path
       class="cls-29"
       d="m 28.09,25.35 c 0.23,-1.48 -0.4,-3.22 -1.57,-3.37 -1.17,-0.15 -2,1.66 -1.64,3.38 0.26,1.23 1,2 1.74,1.9 0.74,-0.1 1.3,-0.8 1.47,-1.91 z"
       id="path148979"
       style="isolation:isolate;fill:url(#linear-gradient-19);stroke-width:0.752246" />
    <path
       class="cls-30"
       d="m 27.27,25 c 0.13,-0.81 -0.16,-1.75 -0.75,-1.82 -0.59,-0.07 -1,0.92 -0.86,1.85 0.11,0.67 0.49,1.06 0.85,1 0.36,-0.06 0.67,-0.42 0.76,-1.03 z"
       id="path148981"
       style="isolation:isolate;fill:url(#linear-gradient-20);stroke-width:0.752246" />
    <path
       class="cls-8"
       d="m 28.09,25.35 c 0.23,-1.48 -0.4,-3.22 -1.57,-3.37 -1.17,-0.15 -2,1.66 -1.64,3.38 0.26,1.23 1,2 1.74,1.9 0.74,-0.1 1.3,-0.8 1.47,-1.91 z"
       id="path148983"
       style="isolation:isolate" />
    <path
       class="cls-31"
       d="m 40.27,25.35 c -0.22,-1.48 0.4,-3.22 1.57,-3.37 1.17,-0.15 2,1.66 1.64,3.38 -0.26,1.23 -1,2 -1.74,1.9 -0.74,-0.1 -1.3,-0.8 -1.47,-1.91 z"
       id="path148985"
       style="isolation:isolate;fill:url(#linear-gradient-21);stroke-width:0.752246" />
    <path
       class="cls-32"
       d="m 41.09,25 c -0.13,-0.81 0.17,-1.75 0.76,-1.82 0.59,-0.07 1,0.92 0.86,1.85 -0.12,0.67 -0.5,1.06 -0.86,1 C 41.49,25.97 41.18,25.61 41.09,25 Z"
       id="path148987"
       style="isolation:isolate;fill:url(#linear-gradient-22);stroke-width:0.752246" />
    <path
       class="cls-8"
       d="m 40.27,25.35 c -0.22,-1.48 0.4,-3.22 1.57,-3.37 1.17,-0.15 2,1.66 1.64,3.38 -0.26,1.23 -1,2 -1.74,1.9 -0.74,-0.1 -1.3,-0.8 -1.47,-1.91 z"
       id="path148989"
       style="isolation:isolate" />
    <path
       class="cls-33"
       d="m 34.18,14 v 0 a 6.71,6.71 0 0 1 6.67,7 c 0,0 0.14,1.83 0.23,2.8 0.34,3.56 3.45,4 2.68,6.67 -0.82,2.89 -4.63,2 -7.59,4.69 a 3,3 0 0 1 -2,0.62 v 0 a 3,3 0 0 1 -2,-0.62 c -3,-2.69 -6.77,-1.8 -7.59,-4.69 -0.77,-2.71 2.34,-3.11 2.68,-6.67 0.09,-1 0.24,-2.8 0.24,-2.8 a 6.71,6.71 0 0 1 6.68,-7 z"
       id="path148991"
       style="isolation:isolate;fill:url(#linear-gradient-23);stroke-width:0.752246" />
    <path
       class="cls-34"
       d="m 35.33,35.37 0.09,0.12 a 2.22,2.22 0 0 0 0.76,-0.43 c 2.53,-2.3 5.69,-2 7.06,-3.66 a 1.73,1.73 0 0 0 0.18,-0.57 c -0.73,1.18 -3.94,1.44 -5,1.87 -1.06,0.43 -1.87,2.12 -3.09,2.67 z"
       id="path148993"
       style="isolation:isolate;fill:url(#linear-gradient-24);stroke-width:0.752246" />
    <path
       class="cls-35"
       d="m 33,35.37 -0.09,0.12 a 2.22,2.22 0 0 1 -0.76,-0.43 c -2.53,-2.3 -5.69,-2 -7.06,-3.66 a 1.73,1.73 0 0 1 -0.18,-0.57 c 0.73,1.18 3.94,1.44 5,1.87 1.06,0.43 1.91,2.12 3.09,2.67 z"
       id="path148995"
       style="isolation:isolate;fill:url(#linear-gradient-25);stroke-width:0.752246" />
    <path
       class="cls-36"
       d="m 34.19,16 c 1.63,0 5.09,0.12 5.47,2.07 a 24.53,24.53 0 0 1 0.25,4.23 c 0.05,0.62 1.24,1.55 0.49,2.34 -1.32,1.4 3.53,2.92 2.56,5.45 -0.79,2.09 -3.85,0.74 -5.7,2.5 -0.76,0.73 -1.53,2.26 -3.08,2.26 -1.55,0 -2.31,-1.53 -3.07,-2.26 -1.85,-1.76 -4.91,-0.41 -5.7,-2.5 -1,-2.53 3.88,-4.05 2.56,-5.45 -0.76,-0.79 0.44,-1.72 0.49,-2.34 a 24.53,24.53 0 0 1 0.25,-4.23 C 29.09,16.12 32.55,16 34.18,16"
       id="path148997"
       style="isolation:isolate;fill:url(#linear-gradient-26);stroke-width:0.752246" />
    <path
       class="cls-37"
       d="m 34.18,27.48 c 1.09,0 0.71,-1.26 0.63,-1.81 A 10.19,10.19 0 0 1 34.69,23.52 1.62,1.62 0 0 1 35.44,22 2.22,2.22 0 0 1 34.18,22.43 v 0 A 2.25,2.25 0 0 1 32.92,22 a 1.62,1.62 0 0 1 0.75,1.52 10.19,10.19 0 0 1 -0.12,2.15 c -0.07,0.55 -0.46,1.81 0.63,1.81 z"
       id="path148999"
       style="isolation:isolate;fill:url(#linear-gradient-27);stroke-width:0.752246" />
    <path
       class="cls-8"
       d="m 34.18,14 v 0 a 6.71,6.71 0 0 1 6.67,7 c 0,0 0.14,1.83 0.23,2.8 0.34,3.56 3.45,4 2.68,6.67 -0.82,2.89 -4.63,2 -7.59,4.69 a 3,3 0 0 1 -2,0.62 v 0 a 3,3 0 0 1 -2,-0.62 c -3,-2.69 -6.77,-1.8 -7.59,-4.69 -0.77,-2.71 2.34,-3.11 2.68,-6.67 0.09,-1 0.24,-2.8 0.24,-2.8 a 6.71,6.71 0 0 1 6.68,-7 z"
       id="path149001"
       style="isolation:isolate" />
    <path
       class="cls-38"
       d="m 41.46,25.25 a 13.87,13.87 0 0 1 -0.82,-4.56 c 0,-2.1 -0.9,-4.37 -2.75,-4.37 v 0 c -1.84,0 -2.51,0.21 -3.71,0.21 -1.2,0 -1.86,-0.21 -3.71,-0.21 -1.85,0 -2.74,2.27 -2.74,4.37 a 40.58,40.58 0 0 1 -0.79,4.47 c 0,0 -0.17,-3.16 -0.54,-7 a 3.83,3.83 0 0 1 0.48,-2.38 2,2 0 0 1 0.77,-0.63 2.71,2.71 0 0 1 0.57,-1.2 4,4 0 0 1 1.83,-1.64 11.88,11.88 0 0 1 4.61,-1 18.06,18.06 0 0 1 5.43,0.54 1,1 0 0 0 -0.63,0.84 c -0.12,0.73 0.24,1.13 0,2.09 a 1.54,1.54 0 0 1 1,0.28 4,4 0 0 1 1.25,2.94 c 0,3.78 -0.25,7.27 -0.25,7.27 z"
       id="path149003"
       style="isolation:isolate;fill:url(#linear-gradient-28);stroke-width:0.752246" />
    <path
       class="cls-39"
       d="m 41.46,25.25 a 14.65,14.65 0 0 1 -0.82,-4.56 c 0,-2.1 -0.9,-4.37 -2.75,-4.37 v 0 c -1.84,0 -2.51,0.21 -3.71,0.21 -1.2,0 -1.86,-0.21 -3.71,-0.21 -1.85,0 -2.74,2.27 -2.74,4.37 a 40.58,40.58 0 0 1 -0.79,4.47 c 0,0 -0.08,-3.16 -0.54,-7 a 3.63,3.63 0 0 1 0.48,-2.38 2,2 0 0 1 0.77,-0.63 2.71,2.71 0 0 1 0.57,-1.2 4,4 0 0 1 1.83,-1.64 11.88,11.88 0 0 1 4.61,-1 18.06,18.06 0 0 1 5.43,0.54 1,1 0 0 0 -0.63,0.84 c -0.12,0.73 0.24,1.13 0,2.09 a 2.42,2.42 0 0 1 1,0.28 c 0.73,0.44 1.2,1.32 1.21,2.92 0,3.78 -0.25,7.27 -0.25,7.27 z"
       id="path149005"
       style="isolation:isolate;fill:url(#linear-gradient-29);stroke-width:0.752246" />
    <path
       class="cls-40"
       d="m 40.8,20.7 h -0.16 c 0,-2.11 -0.9,-4.38 -2.75,-4.38 a 20.92,20.92 0 0 0 -2.1,0.11 c -0.54,0 -1,0.1 -1.61,0.1 -1.2,0 -1.86,-0.21 -3.71,-0.21 -1.85,0 -2.74,2.27 -2.74,4.38 h -0.18 c 0.1,-2.27 0.46,-4.47 1.86,-5.42 0.44,-0.3 1.94,0.08 4.77,0.08 2.83,0 4.32,-0.36 4.82,-0.08 1.35,0.95 1.71,3.15 1.8,5.42 z"
       id="path149007"
       style="isolation:isolate;fill:url(#linear-gradient-30);stroke-width:0.752246" />
    <path
       class="cls-19"
       d="m 41.46,25.25 a 13.87,13.87 0 0 1 -0.82,-4.56 c 0,-2.1 -0.9,-4.37 -2.75,-4.37 v 0 c -1.84,0 -2.51,0.21 -3.71,0.21 -1.2,0 -1.86,-0.21 -3.71,-0.21 -1.85,0 -2.74,2.27 -2.74,4.37 a 23.05,23.05 0 0 1 -0.79,4.47 c 0,0 -0.07,-3.05 -0.54,-7 a 3.63,3.63 0 0 1 0.48,-2.38 2,2 0 0 1 0.77,-0.63 2.71,2.71 0 0 1 0.57,-1.2 4,4 0 0 1 1.83,-1.64 11.88,11.88 0 0 1 4.61,-1 18.06,18.06 0 0 1 5.43,0.54 1,1 0 0 0 -0.63,0.84 c -0.12,0.73 0.24,1.13 0,2.09 a 1.77,1.77 0 0 1 1,0.28 2.94,2.94 0 0 1 1.21,2.74 c 0,3.79 -0.25,7.45 -0.25,7.45 z"
       id="path149009"
       style="isolation:isolate" />
    <path
       class="cls-41"
       d="m 33.63,23 a 17.11,17.11 0 0 1 -0.24,3.71 c -0.12,0.9 0.29,1.12 0.79,1.12 0.5,0 0.68,-0.31 1,-0.31 h 0.55 c 0,0 -0.72,1 -1.55,1 A 2.83,2.83 0 0 1 32.54,27.71 0.81,0.81 0 0 1 32.45,27.02 3.73,3.73 0 0 0 32.92,24.38 2,2 0 0 0 33.63,23 Z"
       id="path149011"
       style="isolation:isolate;fill:url(#linear-gradient-31);stroke-width:0.752246" />
    <path
       class="cls-42"
       d="m 29.42,23 c -0.34,-0.73 0,-1.1 0.73,-1.39 1.09,-0.44 1.46,-0.16 2.67,0.31 a 1.48,1.48 0 0 1 0.82,1.11 14.35,14.35 0 0 1 -0.25,3.63 A 16.91,16.91 0 0 0 32.94,24.34 0.7,0.7 0 0 0 32.17,23.87 5.51,5.51 0 0 1 30.76,23.81 1.61,1.61 0 0 1 29.42,23 Z"
       id="path149013"
       style="isolation:isolate;fill:url(#linear-gradient-32);stroke-width:0.752246" />
    <path
       class="cls-43"
       d="m 38.94,23 a 1.62,1.62 0 0 1 -1.34,0.82 7.32,7.32 0 0 1 -1.87,0 1.3,1.3 0 0 0 -1,0.5 7.48,7.48 0 0 1 0,-1.29 1.44,1.44 0 0 1 0.81,-1.03 c 1.22,-0.47 1.58,-0.76 2.68,-0.32 0.78,0.23 1.06,0.61 0.72,1.32 z"
       id="path149015"
       style="isolation:isolate;fill:url(#linear-gradient-33);stroke-width:0.752246" />
    <path
       class="cls-26"
       d="m 33,22 h -0.06 a 4.69,4.69 0 0 0 -2.76,-0.69 1.45,1.45 0 0 0 -1.33,1.17 2.45,2.45 0 0 1 1.2,-0.4 6.44,6.44 0 0 1 3.3,0.65 A 2,2 0 0 0 33,22 Z"
       id="path149017"
       style="isolation:isolate;stroke-width:0.752246" />
    <path
       class="cls-26"
       d="m 35.33,22 0.09,-0.08 A 4.69,4.69 0 0 1 38.18,21.23 1.45,1.45 0 0 1 39.51,22.4 2.39,2.39 0 0 0 38.32,22 6.45,6.45 0 0 0 35.01,22.65 2,2 0 0 1 35.33,22 Z"
       id="path149019"
       style="isolation:isolate;stroke-width:0.752246" />
    <path
       class="cls-27"
       d="m 29.74,22.87 a 1.77,1.77 0 0 1 1.49,-0.66 3.68,3.68 0 0 1 1.64,0.63 c 0.15,0.14 0.13,0.26 0,0.3 a 9.63,9.63 0 0 1 -1.8,0.06 2.27,2.27 0 0 1 -1.33,-0.33 z"
       id="path149021"
       style="isolation:isolate;stroke-width:0.752246" />
    <path
       class="cls-27"
       d="m 38.62,22.87 a 1.77,1.77 0 0 0 -1.49,-0.66 3.68,3.68 0 0 0 -1.64,0.63 c -0.15,0.14 -0.13,0.26 0,0.3 a 9.67,9.67 0 0 0 1.8,0.06 2.27,2.27 0 0 0 1.33,-0.33 z"
       id="path149023"
       style="isolation:isolate;stroke-width:0.752246" />
    <path
       class="cls-44"
       d="m 28.55,14.55 a 4.67,4.67 0 0 1 2.32,-2 c 1.35,-0.55 -0.15,0.72 0.25,0.71 0.4,-0.01 1.88,-1.26 2.56,-1.16 0.68,0.1 -0.62,1.08 0.13,1.07 C 34.56,13.16 35.3,12 36.15,12 37,12 35.81,13.37 36.68,13.09 37.55,12.81 37.57,11.9 39.2,12 a 1.42,1.42 0 0 0 -1.1,0.77 2.2,2.2 0 0 1 -2.1,1.5 c -1.23,0 -0.49,-1.16 -1,-0.91 a 7.54,7.54 0 0 1 -2.64,1 c -0.93,0.05 0.13,-0.75 -0.21,-0.82 -0.34,-0.07 -1.34,0.73 -1.84,0.8 -0.5,0.07 -0.35,-0.44 -0.25,-0.69 0.1,-0.25 -0.8,0.19 -1.51,0.9 z"
       id="path149025"
       style="isolation:isolate;fill:url(#linear-gradient-34);stroke-width:0.752246" />
    <path
       class="cls-23"
       d="m 37.61,30.69 c 1.15,0.11 -0.68,-1.16 -3.43,-1.16 -2.75,0 -4.58,1.27 -3.43,1.16 0.58,-0.05 2,-0.23 3.43,-0.23 1.43,0 2.82,0.18 3.43,0.23 z"
       id="path149027"
       style="isolation:isolate;stroke-width:0.752246" />
    <path
       class="cls-45"
       d="m 37.61,30.69 c 1.15,0.11 -0.68,-1.16 -3.43,-1.16 -2.75,0 -4.58,1.27 -3.43,1.16 0.58,-0.05 2,-0.23 3.43,-0.23 1.43,0 2.82,0.18 3.43,0.23 z"
       id="path149029"
       style="isolation:isolate;fill:url(#linear-gradient-35);stroke-width:0.752246" />
    <path
       class="cls-46"
       d="m 34.18,31.85 c 0.64,0 1.15,-0.59 1,-0.54 a 4.15,4.15 0 0 1 -2.06,0 1.27,1.27 0 0 0 1.06,0.54 z"
       id="path149031"
       style="isolation:isolate;fill:url(#linear-gradient-36);stroke-width:0.752246" />
  </g>
  <metadata
     id="metadata149306">
    <rdf:RDF>
      <cc:Work
         rdf:about="">
        <dc:title>14-Elastic_Transform</dc:title>
      </cc:Work>
    </rdf:RDF>
  </metadata>
</svg>
