<?xml version="1.0" encoding="UTF-8" standalone="no"?>
<svg
   viewBox="0 0 48 48"
   version="1.1"
   id="svg30"
   sodipodi:docname="4-Feather_Identify.svg"
   inkscape:version="1.3-dev (e30a5ffc, 2022-05-30)"
   xmlns:inkscape="http://www.inkscape.org/namespaces/inkscape"
   xmlns:sodipodi="http://sodipodi.sourceforge.net/DTD/sodipodi-0.dtd"
   xmlns:xlink="http://www.w3.org/1999/xlink"
   xmlns="http://www.w3.org/2000/svg"
   xmlns:svg="http://www.w3.org/2000/svg">
  <sodipodi:namedview
     id="namedview30"
     pagecolor="#505050"
     bordercolor="#ffffff"
     borderopacity="1"
     inkscape:showpageshadow="0"
     inkscape:pageopacity="0"
     inkscape:pagecheckerboard="1"
     inkscape:deskcolor="#505050"
     showgrid="false"
     inkscape:zoom="21.395833"
     inkscape:cx="23.111977"
     inkscape:cy="24.093476"
     inkscape:window-width="2560"
     inkscape:window-height="1378"
     inkscape:window-x="-6"
     inkscape:window-y="-6"
     inkscape:window-maximized="1"
     inkscape:current-layer="svg30" />
  <defs
     id="defs9">
    <linearGradient
       inkscape:collect="always"
       id="linearGradient31">
      <stop
         style="stop-color:#000000;stop-opacity:0.41509435;"
         offset="0"
         id="stop30" />
      <stop
         style="stop-color:#000000;stop-opacity:0;"
         offset="1"
         id="stop31" />
    </linearGradient>
    <style
       id="style1">.cls-1{isolation:isolate;}.cls-2{fill:url(#radial-gradient);}.cls-3{fill:#232729;}.cls-4{fill:#757772;}.cls-5{fill:#204a87;}.cls-6{fill:#729fcf;}.cls-7{fill:#3465a4;}.cls-8{fill:#88408b;}.cls-9{fill:url(#linear-gradient);}.cls-10{fill:none;stroke:#204a87;stroke-linecap:round;stroke-linejoin:round;stroke-width:0.7px;}.cls-11{fill:#e3f1ef;}.cls-12{mix-blend-mode:multiply;fill:url(#linear-gradient-2);}.cls-13{fill:url(#linear-gradient-3);}.cls-14{fill:#fae63f;}.cls-15{fill:#4e9a06;}</style>
    <radialGradient
       id="radial-gradient"
       cx="-218"
       cy="114.2"
       r="11.94"
       gradientTransform="matrix(0.97662948,0,0,0.31138911,228.71245,5.5611746)"
       gradientUnits="userSpaceOnUse">
      <stop
         offset="0"
         stop-color="#212121"
         stop-opacity="0.4"
         id="stop1" />
      <stop
         offset="0.45"
         stop-color="#212121"
         stop-opacity="0.13"
         id="stop2" />
      <stop
         offset="1"
         stop-color="#212121"
         stop-opacity="0"
         id="stop3" />
    </radialGradient>
    <linearGradient
       id="linear-gradient"
       x1="30.31"
       y1="26.5"
       x2="17.37"
       y2="4.44"
       gradientUnits="userSpaceOnUse">
      <stop
         offset="0"
         stop-color="#fff"
         stop-opacity="0"
         id="stop4" />
      <stop
         offset="1"
         stop-color="#fff8f8"
         id="stop5" />
    </linearGradient>
    <linearGradient
       id="linear-gradient-2"
       x1="17.92"
       y1="11.57"
       x2="29.57"
       y2="11.57"
       gradientUnits="userSpaceOnUse">
      <stop
         offset="0"
         stop-color="#757772"
         stop-opacity="0"
         id="stop6" />
      <stop
         offset="1"
         stop-color="#434542"
         id="stop7" />
    </linearGradient>
    <linearGradient
       id="linear-gradient-3"
       x1="22.42"
       y1="12.15"
       x2="21.57"
       y2="2.66"
       gradientUnits="userSpaceOnUse">
      <stop
         offset="0"
         stop-color="#fff"
         stop-opacity="0"
         id="stop8" />
      <stop
         offset="1"
         stop-color="#fff8f8"
         id="stop9" />
    </linearGradient>
    <radialGradient
       inkscape:collect="always"
       xlink:href="#linearGradient31"
       id="radialGradient31"
       cx="15.97"
       cy="41.470001"
       fx="15.97"
       fy="41.470001"
       r="11.20293"
       gradientTransform="matrix(1,0,0,0.32343651,0,28.057089)"
       gradientUnits="userSpaceOnUse" />
    <radialGradient
       inkscape:collect="always"
       xlink:href="#linearGradient31"
       id="radialGradient32"
       gradientUnits="userSpaceOnUse"
       gradientTransform="matrix(1,0,0,0.32343651,0,28.057089)"
       cx="15.97"
       cy="41.470001"
       fx="15.97"
       fy="41.470001"
       r="11.20293" />
  </defs>
  <g
     id="shadow"
     transform="matrix(1.4186447,0,0,1.14121,-1.4154686,-3.6568357)"
     style="isolation:isolate;fill:url(#radialGradient31);fill-opacity:1">
    <path
       id="ellipse9"
       style="fill:url(#radialGradient32);stroke-width:0.707703"
       class="cls-2"
       d="M 27.172931,41.470001 A 11.20293,3.6234367 0 0 1 15.97,45.093438 11.20293,3.6234367 0 0 1 4.7670698,41.470001 11.20293,3.6234367 0 0 1 15.97,37.846565 11.20293,3.6234367 0 0 1 27.172931,41.470001 Z" />
  </g>
  <g
     id="ART"
     transform="matrix(1.14121,0,0,1.14121,-0.09291799,-3.6568357)"
     style="isolation:isolate">
    <path
       class="cls-3"
       d="m 28.86,14.12 a 35.1,35.1 0 0 1 -8.7,-7.75 l -2.24,3.89 a 35.26,35.26 0 0 0 8.7,7.74 z"
       id="path9" />
    <path
       class="cls-4"
       d="m 20.16,6.37 a 35.1,35.1 0 0 0 8.7,7.75 L 26.62,18 a 35.26,35.26 0 0 1 -8.7,-7.74 l 2.24,-3.89 m 0,-0.7 h -0.05 a 0.7,0.7 0 0 0 -0.55,0.35 l -2.25,3.89 a 0.7,0.7 0 0 0 0.07,0.79 35.91,35.91 0 0 0 8.87,7.9 0.69,0.69 0 0 0 0.37,0.1 0.5,0.5 0 0 0 0.17,0 0.65,0.65 0 0 0 0.43,-0.33 l 0.37,-0.62 1.88,-3.26 a 0.71,0.71 0 0 0 -0.24,-1 A 34.24,34.24 0 0 1 20.71,5.9 0.71,0.71 0 0 0 20.16,5.64 Z"
       id="path10" />
    <path
       class="cls-5"
       d="M 13.51,39.47 C 22.15,29.49 29.68,18.39 34.28,6 c 0,-0.1 0.2,-0.06 0.18,0 -1.15,6.64 -4.24,12.76 -7.57,18.55 A 161.27,161.27 0 0 1 15.58,41.19 1.35,1.35 0 1 1 13.51,39.47 Z"
       id="path11" />
    <path
       class="cls-6"
       d="M 36,14.22 A 24.12,24.12 0 0 0 36.35,7 7.58,7.58 0 0 0 35.52,4.19 0.92,0.92 0 0 0 34.08,4 18.36,18.36 0 0 0 32.35,5.7 c -0.72,0.83 -1.57,1.92 -2.41,3.05 0.43,1.46 0.89,3.5 0.89,3.5 A 10,10 0 0 1 29.32,9.6 c -0.66,0.92 -1.29,1.84 -1.82,2.65 -1.1,1.67 -2.15,3.45 -3.11,5.22 0.24,0.86 1.38,4 1.54,4.64 A 27.35,27.35 0 0 0 23.8,18.55 c -0.53,0.95 -1.06,1.87 -1.61,2.78 -0.38,0.63 -0.74,1.21 -1.08,1.76 a 36.29,36.29 0 0 0 -0.93,8.67 52.44,52.44 0 0 1 -1.13,-5.49 c -0.26,0.4 -1,1.57 -1.21,1.88 -0.7,1 0.51,4.45 0.4,5.52 0,0.13 0,0.27 0,0.42 a 13.41,13.41 0 0 1 -0.45,2.23 5.74,5.74 0 0 1 2,-1.19 2.94,2.94 0 0 1 0.75,-0.06 c 0.45,0 3.46,0.49 4.26,-0.41 0.19,-0.21 0.41,-0.44 0.66,-0.74 a 0.69,0.69 0 0 1 -0.5,0 c -0.37,-0.17 -2.91,-1 -3.32,-1.07 a 22.4,22.4 0 0 0 3.75,0.47 5.12,5.12 0 0 0 1.38,-1 v 0 a 21.23,21.23 0 0 1 -3.56,-0.33 c -0.55,-0.22 -0.8,-0.61 -1.7,-0.66 l 0.59,-0.83 -0.18,0.66 a 8,8 0 0 0 2.12,0.19 32.43,32.43 0 0 1 3.56,0.13 A 26.85,26.85 0 0 0 30,27.54 23.38,23.38 0 0 1 26.1,27 4.06,4.06 0 0 0 24.65,26.79 2,2 0 0 1 25.84,26.46 c 0.9,0.09 3.83,0.54 5.09,-0.62 0.57,-0.95 1.12,-1.92 1.65,-2.89 a 7.45,7.45 0 0 1 -4.75,-0.06 c 0,0 4.17,0.1 5.51,-1.35 a 46.21,46.21 0 0 0 2.07,-4.39 35.82,35.82 0 0 1 -3.59,0.38 5.51,5.51 0 0 1 -1,-0.08 30,30 0 0 1 4.44,-1.2 7.56,7.56 0 0 0 0.74,-2.03 z"
       id="path12" />
    <path
       class="cls-7"
       d="m 27,22.8 a 3.43,3.43 0 0 0 1.16,-0.19 c 0,0 0,0.52 0.71,0.36 a 35.32,35.32 0 0 1 3.76,0 c -0.53,1 -1.08,1.94 -1.65,2.89 -1.26,1.16 -4.19,0.71 -5.09,0.62 a 2.24,2.24 0 0 0 -1.6,0.65 c 0,0 -1.06,-4.9 -1.4,-6.94 l 1,-1.69 C 24,18.8 26,21.65 26,22.2 c 0.05,-0.19 -1.29,-3.82 -1.56,-4.77 0.22,-0.4 0.44,-0.82 0.65,-1.22 0.11,1 2.03,5.11 1.91,6.59 z"
       id="path13" />
    <path
       class="cls-7"
       d="m 34.08,4 a 18.36,18.36 0 0 0 -1.73,1.7 v 0 a 19.73,19.73 0 0 1 1,2.89 9.53,9.53 0 0 0 2.75,0 A 12.1,12.1 0 0 0 35.48,4.26 0.92,0.92 0 0 0 34.08,4 Z"
       id="path14" />
    <path
       class="cls-8"
       d="m 34.69,17.38 -0.74,0.07 c 0.26,0 0.51,0 0.73,0 z"
       id="path15" />
    <path
       class="cls-8"
       d="m 32.64,17.52 c 0.39,0 0.86,0 1.31,-0.07 a 8.55,8.55 0 0 0 -1.31,0.07 z"
       id="path16" />
    <path
       class="cls-7"
       d="M 30.81,12.18 A 9.87,9.87 0 0 1 29.32,9.56 c -0.6,0.84 -1.17,1.67 -1.67,2.43 a 34.21,34.21 0 0 0 1.35,4.53 5.07,5.07 0 0 1 0.3,2 c 0,0 4.37,0.14 5.82,-0.94 0,0 -2.48,0 -2.43,-0.05 h -0.82 v 0 A 5.75,5.75 0 0 1 31,17.47 h -0.11 v 0 a 32.8,32.8 0 0 1 4,-1.11 l 0.26,-0.18 a 31.9,31.9 0 0 0 0.9,-3.31 21.92,21.92 0 0 1 -4.7,1.13 c 0,0 -0.23,-0.83 -0.54,-1.82 z"
       id="path17" />
    <path
       class="cls-9"
       d="M 36,14.22 A 24.12,24.12 0 0 0 36.35,7 7.58,7.58 0 0 0 35.52,4.19 0.92,0.92 0 0 0 34.08,4 18.36,18.36 0 0 0 32.35,5.7 c -0.72,0.83 -1.57,1.92 -2.41,3.05 0.43,1.46 0.89,3.5 0.89,3.5 A 10,10 0 0 1 29.32,9.6 c -0.66,0.92 -1.29,1.84 -1.82,2.65 -1.1,1.67 -2.15,3.45 -3.11,5.22 0.24,0.86 1.38,4 1.54,4.64 A 27.35,27.35 0 0 0 23.8,18.55 c -0.53,0.95 -1.06,1.87 -1.61,2.78 -0.38,0.63 -0.74,1.21 -1.08,1.76 a 36.29,36.29 0 0 0 -0.93,8.67 52.44,52.44 0 0 1 -1.13,-5.49 c -0.26,0.4 -1,1.57 -1.21,1.88 -0.7,1 0.51,4.45 0.4,5.52 0,0.13 0,0.27 0,0.42 a 13.41,13.41 0 0 1 -0.45,2.23 5.74,5.74 0 0 1 2,-1.19 2.94,2.94 0 0 1 0.75,-0.06 c 0.45,0 3.46,0.49 4.26,-0.41 0.19,-0.21 0.41,-0.44 0.66,-0.74 a 0.69,0.69 0 0 1 -0.5,0 c -0.37,-0.17 -2.91,-1 -3.32,-1.07 a 22.4,22.4 0 0 0 3.75,0.47 5.12,5.12 0 0 0 1.38,-1 v 0 a 21.23,21.23 0 0 1 -3.56,-0.33 c -0.55,-0.22 -0.8,-0.61 -1.7,-0.66 l 0.59,-0.83 -0.18,0.66 a 8,8 0 0 0 2.12,0.19 32.43,32.43 0 0 1 3.56,0.13 A 26.85,26.85 0 0 0 30,27.54 23.38,23.38 0 0 1 26.1,27 4.06,4.06 0 0 0 24.65,26.79 2,2 0 0 1 25.84,26.46 c 0.9,0.09 3.83,0.54 5.09,-0.62 0.57,-0.95 1.12,-1.92 1.65,-2.89 a 7.45,7.45 0 0 1 -4.75,-0.06 c 0,0 4.17,0.1 5.51,-1.35 a 46.21,46.21 0 0 0 2.07,-4.39 35.82,35.82 0 0 1 -3.59,0.38 5.51,5.51 0 0 1 -1,-0.08 30,30 0 0 1 4.44,-1.2 7.56,7.56 0 0 0 0.74,-2.03 z"
       id="path18"
       style="fill:url(#linear-gradient)" />
    <path
       class="cls-7"
       d="m 26.7,32.24 v 0 a 5.12,5.12 0 0 1 -1.38,1 22.4,22.4 0 0 1 -3.75,-0.47 c 0.41,0.07 2.95,0.9 3.32,1.07 a 0.69,0.69 0 0 0 0.5,0 c -0.25,0.3 -0.47,0.54 -0.66,0.75 -0.79,0.89 -3.81,0.42 -4.26,0.4 a 2.9,2.9 0 0 0 -0.75,0.06 5.74,5.74 0 0 0 -2,1.19 13.41,13.41 0 0 0 0.45,-2.23 c 0,-0.15 0,-0.28 0,-0.42 0.11,-1.07 -1.1,-4.49 -0.4,-5.52 0.2,-0.3 0.95,-1.48 1.21,-1.88 0.05,0.35 1.34,4.57 1.13,5.49 a 53,53 0 0 1 0.86,-8.4 c -0.05,0.43 0.42,-0.54 0.42,-0.54 a 66.83,66.83 0 0 1 0,8.47 c 0.9,0.05 1.15,0.44 1.7,0.66 a 21.23,21.23 0 0 0 3.61,0.37 z"
       id="path19" />
    <path
       class="cls-10"
       d="M 36,14.22 A 24.12,24.12 0 0 0 36.35,7 7.58,7.58 0 0 0 35.52,4.19 0.92,0.92 0 0 0 34.08,4 18.36,18.36 0 0 0 32.35,5.7 c -0.72,0.83 -1.57,1.92 -2.41,3.05 0.43,1.46 0.89,3.5 0.89,3.5 A 10,10 0 0 1 29.32,9.6 c -0.66,0.92 -1.29,1.84 -1.82,2.65 -1.1,1.67 -2.15,3.45 -3.11,5.22 0.24,0.86 1.38,4 1.54,4.64 A 27.35,27.35 0 0 0 23.8,18.55 c -0.53,0.95 -1.06,1.87 -1.61,2.78 -0.38,0.63 -0.74,1.21 -1.08,1.76 a 36.29,36.29 0 0 0 -0.93,8.67 52.44,52.44 0 0 1 -1.13,-5.49 c -0.26,0.4 -1,1.57 -1.21,1.88 -0.7,1 0.51,4.45 0.4,5.52 0,0.13 0,0.27 0,0.42 a 13.41,13.41 0 0 1 -0.45,2.23 5.74,5.74 0 0 1 2,-1.19 2.94,2.94 0 0 1 0.75,-0.06 c 0.45,0 3.46,0.49 4.26,-0.41 0.19,-0.21 0.41,-0.44 0.66,-0.74 a 0.69,0.69 0 0 1 -0.5,0 c -0.37,-0.17 -2.91,-1 -3.32,-1.07 a 22.4,22.4 0 0 0 3.75,0.47 5.12,5.12 0 0 0 1.38,-1 v 0 a 21.23,21.23 0 0 1 -3.56,-0.33 c -0.55,-0.22 -0.8,-0.61 -1.7,-0.66 l 0.59,-0.83 -0.18,0.66 a 8,8 0 0 0 2.12,0.19 32.43,32.43 0 0 1 3.56,0.13 A 26.85,26.85 0 0 0 30,27.54 23.38,23.38 0 0 1 26.1,27 4.06,4.06 0 0 0 24.65,26.79 2,2 0 0 1 25.84,26.46 c 0.9,0.09 3.83,0.54 5.09,-0.62 0.57,-0.95 1.12,-1.92 1.65,-2.89 a 7.45,7.45 0 0 1 -4.75,-0.06 c 0,0 4.17,0.1 5.51,-1.35 a 46.21,46.21 0 0 0 2.07,-4.39 35.82,35.82 0 0 1 -3.59,0.38 5.51,5.51 0 0 1 -1,-0.08 30,30 0 0 1 4.44,-1.2 7.56,7.56 0 0 0 0.74,-2.03 z"
       id="path20" />
    <path
       class="cls-5"
       d="m 18.85,35 c 6.58,-8.8 12.31,-18.41 15.48,-29 0,0 0.07,0 0.06,0 a 60.77,60.77 0 0 1 -6,15.45 121.84,121.84 0 0 1 -8.76,14.1 0.5,0.5 0 0 1 -0.81,-0.58 z"
       id="path21" />
    <path
       class="cls-11"
       d="M 14.08,40 C 22.49,29.82 30.27,18.7 34.33,6 c 0,0 0.09,0 0.08,0 -1.49,6.53 -4.55,12.59 -7.92,18.32 A 158.14,158.14 0 0 1 15,40.71 0.60052061,0.60052061 0 1 1 14.07,39.95 Z"
       id="path22" />
    <path
       class="cls-4"
       d="m 27.33,16.77 a 33.48,33.48 0 0 0 -9.41,-6.51 l 2.24,-3.89 a 33.17,33.17 0 0 1 9.41,6.52 z"
       id="path23" />
    <path
       class="cls-12"
       d="m 27.33,16.77 a 33.48,33.48 0 0 0 -9.41,-6.51 l 2.24,-3.89 a 33.17,33.17 0 0 1 9.41,6.52 z"
       id="path24"
       style="fill:url(#linear-gradient-2)" />
    <path
       class="cls-13"
       d="M 26.59,10.29 A 23.64,23.64 0 0 0 19,10.8 c -0.37,-0.19 -0.74,-0.37 -1.12,-0.54 l 2.24,-3.89 a 32.45,32.45 0 0 1 6.47,3.92 z"
       id="path25"
       style="fill:url(#linear-gradient-3)" />
    <path
       class="cls-4"
       d="m 20.16,6.37 a 33.17,33.17 0 0 1 9.41,6.52 l -2.24,3.88 a 33.48,33.48 0 0 0 -9.41,-6.51 l 2.24,-3.89 m 0,-0.7 a 0.7,0.7 0 0 0 -0.6,0.35 l -2.25,3.89 a 0.69,0.69 0 0 0 -0.06,0.56 0.71,0.71 0 0 0 0.38,0.42 32.66,32.66 0 0 1 9.21,6.38 0.7,0.7 0 0 0 0.49,0.2 h 0.09 a 0.68,0.68 0 0 0 0.51,-0.35 l 2.25,-3.88 a 0.7,0.7 0 0 0 -0.12,-0.85 34.33,34.33 0 0 0 -9.6,-6.66 0.8,0.8 0 0 0 -0.3,-0.06 z"
       id="path26" />
    <path
       class="cls-14"
       d="m 21.75,11 v 0 a 0.5,0.5 0 0 1 -0.17,-0.68 l 0.57,-1 a 0.47,0.47 0 0 1 0.67,-0.17 v 0 A 0.5,0.5 0 0 1 23,9.8 l -0.57,1 A 0.49,0.49 0 0 1 21.75,11 Z"
       id="path27" />
    <path
       class="cls-14"
       d="m 20.3,10.13 v 0 A 0.48,0.48 0 0 1 20.11,9.47 c 0.19,-0.33 0.38,-0.66 0.58,-1 a 0.52,0.52 0 0 1 0.67,-0.2 v 0 a 0.48,0.48 0 0 1 0.19,0.66 l -0.57,1 a 0.52,0.52 0 0 1 -0.68,0.2 z"
       id="path28" />
    <path
       class="cls-14"
       d="m 23.17,11.86 v 0 A 0.53,0.53 0 0 1 23,11.17 l 0.58,-1 a 0.45,0.45 0 0 1 0.65,-0.15 v 0 a 0.54,0.54 0 0 1 0.16,0.71 l -0.57,1 a 0.44,0.44 0 0 1 -0.65,0.13 z"
       id="path29" />
    <path
       class="cls-15"
       d="m 26.56,14.49 c -0.65,-0.58 -1.33,-1.12 -2,-1.64 A 0.44,0.44 0 0 1 24.44,12.3 l 0.69,-1.2 a 0.33,0.33 0 0 1 0.49,-0.09 c 0.69,0.52 1.36,1.06 2,1.64 a 0.47,0.47 0 0 1 0.1,0.57 L 27,14.42 a 0.29,0.29 0 0 1 -0.44,0.07 z"
       id="path30" />
  </g>
</svg>
