<?xml version="1.0" encoding="UTF-8"?><svg xmlns="http://www.w3.org/2000/svg" xmlns:xlink="http://www.w3.org/1999/xlink" viewBox="0 0 48 48"><defs><radialGradient id="radial-gradient" cx="-57.54" cy="-42.77" fx="-57.54" fy="-42.77" r="9.86" gradientTransform="translate(162.4 75.12) scale(2.4 1.02)" gradientUnits="userSpaceOnUse"><stop offset=".38" stop-color="#2c2c2c" stop-opacity=".5"/><stop offset=".85" stop-color="#2c2c2c" stop-opacity=".1"/><stop offset=".99" stop-color="#2c2c2c" stop-opacity="0"/></radialGradient><linearGradient id="linear-gradient" x1="18.45" y1="33.91" x2="26.29" y2="17.95" gradientTransform="matrix(1, 0, 0, 1, 0, 0)" gradientUnits="userSpaceOnUse"><stop offset="0" stop-color="#eeeeec"/><stop offset="1" stop-color="#555753"/></linearGradient><linearGradient id="linear-gradient-2" x1="13.35" y1="33.04" x2="22.6" y2="21.7" gradientTransform="matrix(1, 0, 0, 1, 0, 0)" gradientUnits="userSpaceOnUse"><stop offset="0" stop-color="#fff"/><stop offset="1" stop-color="#555753"/></linearGradient><linearGradient id="linear-gradient-3" x1="31.12" y1="11.63" x2="28.21" y2="15.84" gradientTransform="matrix(1, 0, 0, 1, 0, 0)" gradientUnits="userSpaceOnUse"><stop offset=".11" stop-color="#d681d5"/><stop offset="1" stop-color="#88408b"/></linearGradient><linearGradient id="linear-gradient-4" x1="28.69" y1="14.66" x2="33.74" y2="11.17" gradientTransform="matrix(1, 0, 0, 1, 0, 0)" gradientUnits="userSpaceOnUse"><stop offset="0" stop-color="#fff" stop-opacity="0"/><stop offset="1" stop-color="#fff8f8"/></linearGradient><linearGradient id="linear-gradient-5" x1="36.55" y1="14.77" x2="33.65" y2="18.98" xlink:href="#linear-gradient-3"/><linearGradient id="linear-gradient-6" x1="34.12" y1="17.79" x2="39.17" y2="14.3" xlink:href="#linear-gradient-4"/><linearGradient id="linear-gradient-7" x1="41.98" y1="17.9" x2="39.08" y2="22.11" xlink:href="#linear-gradient-3"/><linearGradient id="linear-gradient-8" x1="39.55" y1="20.93" x2="44.6" y2="17.44" xlink:href="#linear-gradient-4"/><linearGradient id="linear-gradient-9" x1="14.46" y1="8.66" x2="10.32" y2="24.51" gradientTransform="translate(14.91 -8.11) rotate(27.88)" xlink:href="#linear-gradient-3"/><linearGradient id="linear-gradient-10" x1="18.79" y1="13.86" x2="22.69" y2="1.83" xlink:href="#linear-gradient-4"/><linearGradient id="linear-gradient-11" x1="20.72" y1="8.9" x2="16.58" y2="24.74" gradientTransform="translate(14.91 -8.11) rotate(27.88)" xlink:href="#linear-gradient-3"/><linearGradient id="linear-gradient-12" x1="24.22" y1="16.99" x2="28.12" y2="4.96" xlink:href="#linear-gradient-4"/><linearGradient id="linear-gradient-13" x1="26.99" y1="9.13" x2="22.85" y2="24.97" gradientTransform="translate(14.91 -8.11) rotate(27.88)" xlink:href="#linear-gradient-3"/><linearGradient id="linear-gradient-14" x1="29.65" y1="20.13" x2="33.55" y2="8.1" xlink:href="#linear-gradient-4"/><linearGradient id="linear-gradient-15" x1="11.68" y1="10.61" x2="7.25" y2="27.57" xlink:href="#linear-gradient-3"/><linearGradient id="linear-gradient-16" x1="8.38" y1="22.4" x2="13.41" y2="8.24" xlink:href="#linear-gradient-4"/><linearGradient id="linear-gradient-17" x1="17.15" y1="13.79" x2="12.72" y2="30.75" xlink:href="#linear-gradient-3"/><linearGradient id="linear-gradient-18" x1="13.85" y1="25.58" x2="18.88" y2="11.42" xlink:href="#linear-gradient-4"/><linearGradient id="linear-gradient-19" x1="22.62" y1="16.97" x2="18.19" y2="33.92" xlink:href="#linear-gradient-3"/><linearGradient id="linear-gradient-20" x1="19.32" y1="28.76" x2="24.35" y2="14.6" xlink:href="#linear-gradient-4"/></defs><g style="isolation:isolate;"><g id="shadow" style="mix-blend-mode:multiply; opacity:.45;"><ellipse cx="24.24" cy="31.67" rx="22.75" ry="9.66" transform="translate(-4.96 4.5) rotate(-9.63)" style="fill:url(#radial-gradient);"/></g><g id="ART"><g><g><path d="M23.86,14.45c1.32,.76,2.47,1.89,3.36,3.35h0l16.4,9.47c-.89-1.46-2.04-2.59-3.36-3.35L23.86,14.45Z" style="fill:#2e3436;"/><path d="M23.86,14.45c1.32,.76,2.47,1.89,3.36,3.35h0l16.4,9.47c-.89-1.46-2.04-2.59-3.36-3.35L23.86,14.45Z" style="fill:none; stroke:#555753; stroke-linecap:round; stroke-linejoin:round; stroke-width:.7px;"/><path d="M4.67,30.82c.6-6.47,4.27-12.95,9.47-15.93,3.48-1.99,6.97-2.01,9.72-.44h0l16.4,9.47c-2.74-1.57-6.23-1.55-9.72,.44-5.21,2.98-8.87,9.46-9.47,15.93L4.67,30.82Z" style="fill:url(#linear-gradient);"/><path d="M21.39,38.1c-.15,.73-.25,1.46-.32,2.19L4.67,30.82c.17-1.8,.57-3.6,1.19-5.32-.06,.53-.19,5.87,15.53,12.6Z" style="fill:url(#linear-gradient-2);"/><path d="M4.67,30.82c.6-6.47,4.27-12.95,9.47-15.93,3.48-1.99,6.97-2.01,9.72-.44h0l16.4,9.47c-2.74-1.57-6.23-1.55-9.72,.44-5.21,2.98-8.87,9.46-9.47,15.93L4.67,30.82Z" style="fill:none; stroke:#555753; stroke-linecap:round; stroke-linejoin:round; stroke-width:.7px;"/></g><g><path d="M21.15,14.2s1.35-3.8,5.6-4.01c2.17-.02,4.53,1.2,6.21,2.58s2.67,2.91,3.21,3.71c0,.03-.65-1.95-4.36-2.35-2.43-.38-6.91-.44-10.65,.07Z" style="fill:url(#linear-gradient-3);"/><path d="M31.52,11.71s-.69,.2-.89,.37c0,0,2.41,1.95,2.74,2.31l.79,.32s-1.93-1.83-2.21-2.11l.35-.35-.79-.53Z" style="fill:#88408b;"/><path d="M27.78,10.33s-1.1,.59-1.68,1.34c0,0,2.33,1.58,4.14,2.23l1.56,.23s-2.86-2.24-3.26-2.54c0,0,.69-.79,.91-.87l-1.68-.39Z" style="fill:#88408b;"/><path d="M24.72,10.69l-1,1.61s2.6,1.26,3.17,1.58l-5.58,.35s.38-2.22,3.41-3.54Z" style="fill:#88408b;"/><g><path d="M29.94,10.95s-.75,.06-1.04,.22c0,0,.27-.37,.51-.43l.53,.21Z" style="fill:#5c3566;"/><path d="M24.72,10.69s-.45,.37-.68,.98c0,0,.65-.89,1.37-1.16l-.69,.18Z" style="fill:#5c3566;"/><polygon points="29.63 13.86 28.49 13.09 30.39 13.84 29.63 13.86" style="fill:#5c3566;"/></g><path d="M21.15,14.2s1.35-3.8,5.6-4.01c3.48-.03,6.43,2.37,8.05,4.26,.81,.95,1.14,1.71,1.36,2.03,0,.01-.61-.91-1.25-1.28-.8-.46-1.71-.88-3.1-1.07-2.43-.38-6.91-.44-10.65,.07Z" style="fill:url(#linear-gradient-4); opacity:.7;"/><path d="M21.15,14.2s1.35-3.8,5.6-4.01c3.48-.03,6.43,2.37,8.05,4.26,.81,.95,1.14,1.71,1.36,2.03,0,.01-.61-.91-1.25-1.28-.8-.46-1.71-.88-3.1-1.07-2.43-.38-6.91-.44-10.65,.07Z" style="fill:none; stroke:#5c3566; stroke-linecap:round; stroke-linejoin:round; stroke-width:.4px;"/><path d="M20.31,15.14s2.21-3.29,6.79-3.55c2.85-.17,5.6,1.34,7.23,2.71,1.34,1.13,1.83,2.18,1.83,2.18" style="fill:none; stroke:#5c3566; stroke-linecap:round; stroke-linejoin:round; stroke-width:.4px;"/></g><g><path d="M26.58,17.33s1.35-3.8,5.6-4.01c2.17-.02,4.53,1.2,6.21,2.58s2.67,2.91,3.21,3.71c0,.03-.65-1.95-4.36-2.35-2.43-.38-6.91-.44-10.65,.07Z" style="fill:url(#linear-gradient-5);"/><path d="M36.95,14.84s-.69,.2-.89,.37c0,0,2.41,1.95,2.74,2.31l.79,.32s-1.93-1.83-2.21-2.11l.35-.35-.79-.53Z" style="fill:#88408b;"/><path d="M33.21,13.46s-1.1,.59-1.68,1.34c0,0,2.33,1.58,4.14,2.23l1.56,.23s-2.86-2.24-3.26-2.54c0,0,.69-.79,.91-.87l-1.68-.39Z" style="fill:#88408b;"/><path d="M30.15,13.82l-1,1.61s2.6,1.26,3.17,1.58l-5.58,.35s.38-2.22,3.41-3.54Z" style="fill:#88408b;"/><g><path d="M35.37,14.08s-.75,.06-1.04,.22c0,0,.27-.37,.51-.43l.53,.21Z" style="fill:#5c3566;"/><path d="M30.15,13.82s-.45,.37-.68,.98c0,0,.65-.89,1.37-1.16l-.69,.18Z" style="fill:#5c3566;"/><polygon points="35.06 16.99 33.92 16.22 35.83 16.98 35.06 16.99" style="fill:#5c3566;"/></g><path d="M26.58,17.33s1.35-3.8,5.6-4.01c3.48-.03,6.43,2.37,8.05,4.26,.81,.95,1.14,1.71,1.36,2.03,0,.01-.61-.91-1.25-1.28-.8-.46-1.71-.88-3.1-1.07-2.43-.38-6.91-.44-10.65,.07Z" style="fill:url(#linear-gradient-6); opacity:.7;"/><path d="M26.58,17.33s1.35-3.8,5.6-4.01c3.48-.03,6.43,2.37,8.05,4.26,.81,.95,1.14,1.71,1.36,2.03,0,.01-.61-.91-1.25-1.28-.8-.46-1.71-.88-3.1-1.07-2.43-.38-6.91-.44-10.65,.07Z" style="fill:none; stroke:#5c3566; stroke-linecap:round; stroke-linejoin:round; stroke-width:.4px;"/><path d="M25.74,18.27s2.21-3.29,6.79-3.55c2.85-.17,5.6,1.34,7.23,2.71,1.34,1.13,1.83,2.18,1.83,2.18" style="fill:none; stroke:#5c3566; stroke-linecap:round; stroke-linejoin:round; stroke-width:.4px;"/></g><g><path d="M32.01,20.47s1.35-3.8,5.6-4.01c2.17-.02,4.53,1.2,6.21,2.58s2.67,2.91,3.21,3.71c0,.03-.65-1.95-4.36-2.35-2.43-.38-6.91-.44-10.65,.07Z" style="fill:url(#linear-gradient-7);"/><path d="M42.39,17.98s-.69,.2-.89,.37c0,0,2.41,1.95,2.74,2.31l.79,.32s-1.93-1.83-2.21-2.11l.35-.35-.79-.53Z" style="fill:#88408b;"/><path d="M38.64,16.6s-1.1,.59-1.68,1.34c0,0,2.33,1.58,4.14,2.23l1.56,.23s-2.86-2.24-3.26-2.54c0,0,.69-.79,.91-.87l-1.68-.39Z" style="fill:#88408b;"/><path d="M35.58,16.96l-1,1.61s2.6,1.26,3.17,1.58l-5.58,.35s.38-2.22,3.41-3.54Z" style="fill:#88408b;"/><g><path d="M40.8,17.22s-.75,.06-1.04,.22c0,0,.27-.37,.51-.43l.53,.21Z" style="fill:#5c3566;"/><path d="M35.58,16.96s-.45,.37-.68,.98c0,0,.65-.89,1.37-1.16l-.69,.18Z" style="fill:#5c3566;"/><polygon points="40.49 20.13 39.35 19.36 41.26 20.12 40.49 20.13" style="fill:#5c3566;"/></g><path d="M32.01,20.47s1.35-3.8,5.6-4.01c3.48-.03,6.43,2.37,8.05,4.26,.81,.95,1.14,1.71,1.36,2.03,0,.01-.61-.91-1.25-1.28-.8-.46-1.71-.88-3.1-1.07-2.43-.38-6.91-.44-10.65,.07Z" style="fill:url(#linear-gradient-8); opacity:.7;"/><path d="M32.01,20.47s1.35-3.8,5.6-4.01c3.48-.03,6.43,2.37,8.05,4.26,.81,.95,1.14,1.71,1.36,2.03,0,.01-.61-.91-1.25-1.28-.8-.46-1.71-.88-3.1-1.07-2.43-.38-6.91-.44-10.65,.07Z" style="fill:none; stroke:#5c3566; stroke-linecap:round; stroke-linejoin:round; stroke-width:.4px;"/><path d="M31.17,21.41s2.21-3.29,6.79-3.55c2.85-.17,5.6,1.34,7.23,2.71,1.34,1.13,1.83,2.18,1.83,2.18" style="fill:none; stroke:#5c3566; stroke-linecap:round; stroke-linejoin:round; stroke-width:.4px;"/></g><g><g><path d="M25.99,6.25s-1.13,1.01-2.11,2.36c-2.53,3.48-4.44,6.74-7.64,8.99-1.48,1.04-2.64,.82-2.64,.82,0,0-.88-2.36,1.05-5.61,1.88-3.17,4.32-4.75,6.41-5.84,2.35-1.23,4.59-1.09,4.94-.71Z" style="fill:url(#linear-gradient-9);"/><path d="M19.97,7.55s-.21,.73,.13,1.93c0,0,1.86,.31,3,.03l1.1-1.47-2.24-.14,.05-1.35-2.05,1.02Z" style="fill:#88408b;"/><path d="M16.46,13.84s1.86,.45,3.34,.15l1.83-2.41s-2.07,.12-3.34-.05c0,0-.69-1.52-.55-2.44,0,0-1.37,1.33-2.16,2.48,0,0,.42,1.57,.88,2.26Z" style="fill:#88408b;"/><path d="M14.1,13.91s.35,1.73,.64,2.3c0,0,2.33,.18,3.06,.13,0,0-1.79,2.13-4.2,2.07,0,0-.56-2.28,.5-4.5Z" style="fill:#88408b;"/><path d="M14.55,13.04s-.31,1.3-.09,2.4c0,0-.24-.66-.36-1.53,.02-.13,.45-.87,.45-.87Z" style="fill:#5c3566;"/><path d="M25.99,6.25s-1.13,1.01-2.11,2.36c-2.53,3.48-4.44,6.74-7.64,8.99-1.48,1.04-2.64,.82-2.64,.82,0,0-.88-2.36,1.05-5.61,1.88-3.17,4.32-4.75,6.41-5.84,2.35-1.23,4.59-1.09,4.94-.71Z" style="fill:url(#linear-gradient-10); opacity:.7;"/><path d="M12.85,19.83c.91-1.86,2.93-5.42,5.45-8.3,4.67-5.34,7.7-5.28,7.7-5.28" style="fill:none; stroke:#5c3566; stroke-linecap:round; stroke-linejoin:round; stroke-width:.4px;"/><path d="M25.99,6.25s-1.13,1.01-2.11,2.36c-2.53,3.48-4.44,6.74-7.64,8.99-1.48,1.04-2.64,.82-2.64,.82,0,0-.88-2.36,1.05-5.61,1.88-3.17,4.32-4.75,6.41-5.84,2.35-1.23,4.59-1.09,4.94-.71Z" style="fill:none; stroke:#5c3566; stroke-miterlimit:10; stroke-width:.4px;"/></g><g><path d="M31.43,9.39s-1.13,1.01-2.11,2.36c-2.53,3.48-4.44,6.74-7.64,8.99-1.48,1.04-2.64,.82-2.64,.82,0,0-.88-2.36,1.05-5.61,1.88-3.17,4.32-4.75,6.41-5.84,2.35-1.23,4.59-1.09,4.94-.71Z" style="fill:url(#linear-gradient-11);"/><path d="M25.4,10.69s-.21,.73,.13,1.93c0,0,1.86,.31,3,.03l1.1-1.47-2.24-.14,.05-1.35-2.05,1.02Z" style="fill:#88408b;"/><path d="M21.89,16.97s1.86,.45,3.34,.15l1.83-2.41s-2.07,.12-3.34-.05c0,0-.69-1.52-.55-2.44,0,0-1.37,1.33-2.16,2.48,0,0,.42,1.57,.88,2.26Z" style="fill:#88408b;"/><path d="M19.53,17.05s.35,1.73,.64,2.3c0,0,2.33,.18,3.06,.13,0,0-1.79,2.13-4.2,2.07,0,0-.56-2.28,.5-4.5Z" style="fill:#88408b;"/><path d="M19.98,16.18s-.31,1.3-.09,2.4c0,0-.24-.66-.36-1.53,.02-.13,.45-.87,.45-.87Z" style="fill:#5c3566;"/><path d="M31.43,9.39s-1.13,1.01-2.11,2.36c-2.53,3.48-4.44,6.74-7.64,8.99-1.48,1.04-2.64,.82-2.64,.82,0,0-.88-2.36,1.05-5.61,1.88-3.17,4.32-4.75,6.41-5.84,2.35-1.23,4.59-1.09,4.94-.71Z" style="fill:url(#linear-gradient-12); opacity:.7;"/><path d="M18.28,22.97c.91-1.86,2.93-5.42,5.45-8.3,4.67-5.34,7.7-5.28,7.7-5.28" style="fill:none; stroke:#5c3566; stroke-linecap:round; stroke-linejoin:round; stroke-width:.4px;"/><path d="M31.43,9.39s-1.13,1.01-2.11,2.36c-2.53,3.48-4.44,6.74-7.64,8.99-1.48,1.04-2.64,.82-2.64,.82,0,0-.88-2.36,1.05-5.61,1.88-3.17,4.32-4.75,6.41-5.84,2.35-1.23,4.59-1.09,4.94-.71Z" style="fill:none; stroke:#5c3566; stroke-miterlimit:10; stroke-width:.4px;"/></g><g><path d="M36.86,12.52s-1.13,1.01-2.11,2.36c-2.53,3.48-4.44,6.74-7.64,8.99-1.48,1.04-2.64,.82-2.64,.82,0,0-.88-2.36,1.05-5.61,1.88-3.17,4.32-4.75,6.41-5.84,2.35-1.23,4.59-1.09,4.94-.71Z" style="fill:url(#linear-gradient-13);"/><path d="M30.83,13.82s-.21,.73,.13,1.93c0,0,1.86,.31,3,.03l1.1-1.47-2.24-.14,.05-1.35-2.05,1.02Z" style="fill:#88408b;"/><path d="M27.32,20.11s1.86,.45,3.34,.15l1.83-2.41s-2.07,.12-3.34-.05c0,0-.69-1.52-.55-2.44,0,0-1.37,1.33-2.16,2.48,0,0,.42,1.57,.88,2.26Z" style="fill:#88408b;"/><path d="M24.96,20.19s.35,1.73,.64,2.3c0,0,2.33,.18,3.06,.13,0,0-1.79,2.13-4.2,2.07,0,0-.56-2.28,.5-4.5Z" style="fill:#88408b;"/><path d="M25.41,19.32s-.31,1.3-.09,2.4c0,0-.24-.66-.36-1.53,.02-.13,.45-.87,.45-.87Z" style="fill:#5c3566;"/><path d="M36.86,12.52s-1.13,1.01-2.11,2.36c-2.53,3.48-4.44,6.74-7.64,8.99-1.48,1.04-2.64,.82-2.64,.82,0,0-.88-2.36,1.05-5.61,1.88-3.17,4.32-4.75,6.41-5.84,2.35-1.23,4.59-1.09,4.94-.71Z" style="fill:url(#linear-gradient-14); opacity:.7;"/><path d="M23.71,26.1c.91-1.86,2.93-5.42,5.45-8.3,4.67-5.34,7.7-5.28,7.7-5.28" style="fill:none; stroke:#5c3566; stroke-linecap:round; stroke-linejoin:round; stroke-width:.4px;"/><path d="M36.86,12.52s-1.13,1.01-2.11,2.36c-2.53,3.48-4.44,6.74-7.64,8.99-1.48,1.04-2.64,.82-2.64,.82,0,0-.88-2.36,1.05-5.61,1.88-3.17,4.32-4.75,6.41-5.84,2.35-1.23,4.59-1.09,4.94-.71Z" style="fill:none; stroke:#5c3566; stroke-miterlimit:10; stroke-width:.4px;"/></g></g><g><path d="M13.67,9.32s-.58,1.64-.88,3.51c-.74,4.7-1.02,8.72-2.8,12.3-.8,1.61-1.84,1.92-1.84,1.92,0,0-1.66-1.72-1.45-5.52,.21-3.8,1.57-6.52,2.88-8.68,1.68-2.77,3.25-3.8,4.08-3.53Z" style="fill:url(#linear-gradient-15);"/><path d="M8.92,14s.14,.8,.93,1.73c0,0,1.75-.71,2.63-1.61l.35-2.03-2.05,1.13-.54-1.31-1.32,2.09Z" style="fill:#88408b;"/><path d="M8.62,21.6s1.75-.5,2.89-1.5l.57-3.21s-1.74,1.2-2.9,1.69c0,0-1.21-1.04-1.48-1.96,0,0-.57,1.91-.74,3.36,0,0,.99,1.22,1.66,1.63Z" style="fill:#88408b;"/><path d="M6.72,22.8s.99,1.4,1.46,1.77c0,0,2-.92,2.6-1.31,0,0-.62,2.77-2.63,3.79,0,0-1.38-1.79-1.44-4.26Z" style="fill:#88408b;"/><path d="M13.67,9.32s-.58,1.64-.88,3.51c-.74,4.7-1.02,8.72-2.8,12.3-.8,1.61-1.84,1.92-1.84,1.92,0,0-1.66-1.72-1.45-5.52,.21-3.8,1.57-6.52,2.88-8.68,1.68-2.77,3.25-3.8,4.08-3.53Z" style="fill:url(#linear-gradient-16);"/><path d="M10.32,11.73s.31,1.07,.4,1.34c0,0-.54-.7-.65-1.21" style="fill:#5c3566;"/><path d="M9.04,13.72s.39,1.29,.82,2.03c0,0-.74-.93-.95-1.6l.12-.44Z" style="fill:#5c3566;"/><path d="M7.68,16.67s.28,1.15,.81,2.19c0,0-.66-.64-.97-1.59l.16-.6Z" style="fill:#5c3566;"/><path d="M6.73,21.8s.29,1.31,.91,2.21c0,0-.46-.49-.92-1.21-.04-.12,0-1,0-1Z" style="fill:#5c3566;"/><path d="M11.55,20.13s-1.39,1.03-2.26,1.26c0,0,2.18-1.58,2.65-2.34l-.39,1.08Z" style="fill:#5c3566;"/><path d="M12.13,16.33s-.59,.87-1.2,1.33c0,0,.82-.51,1.11-.71l.09-.62Z" style="fill:#5c3566;"/><path d="M8.12,28.64c-.02-2.05,.16-6.19,1.06-10.06,1.74-7.54,4.49-9.27,4.49-9.27" style="fill:none; stroke:#5c3566; stroke-linecap:round; stroke-linejoin:round; stroke-width:.4px;"/><path d="M13.67,9.32s-.58,1.64-.88,3.51c-.74,4.7-1.02,8.72-2.8,12.3-.8,1.61-1.84,1.92-1.84,1.92,0,0-1.66-1.72-1.45-5.52,.21-3.8,1.57-6.52,2.88-8.68,1.68-2.77,3.25-3.8,4.08-3.53Z" style="fill:none; stroke:#5c3566; stroke-miterlimit:10; stroke-width:.4px;"/></g><g><path d="M19.14,12.5s-.58,1.64-.88,3.51c-.74,4.7-1.02,8.72-2.8,12.3-.8,1.61-1.84,1.92-1.84,1.92,0,0-1.66-1.72-1.45-5.52,.21-3.8,1.57-6.52,2.88-8.68,1.68-2.77,3.25-3.8,4.08-3.53Z" style="fill:url(#linear-gradient-17);"/><path d="M14.39,17.18s.14,.8,.93,1.73c0,0,1.75-.71,2.63-1.61l.35-2.03-2.05,1.13-.54-1.31-1.32,2.09Z" style="fill:#88408b;"/><path d="M14.08,24.78s1.75-.5,2.89-1.5l.57-3.21s-1.74,1.2-2.9,1.69c0,0-1.21-1.04-1.48-1.96,0,0-.57,1.91-.74,3.36,0,0,.99,1.22,1.66,1.63Z" style="fill:#88408b;"/><path d="M12.19,25.98s.99,1.4,1.46,1.77c0,0,2-.92,2.6-1.31,0,0-.62,2.77-2.63,3.79,0,0-1.38-1.79-1.44-4.26Z" style="fill:#88408b;"/><path d="M19.14,12.5s-.58,1.64-.88,3.51c-.74,4.7-1.02,8.72-2.8,12.3-.8,1.61-1.84,1.92-1.84,1.92,0,0-1.66-1.72-1.45-5.52,.21-3.8,1.57-6.52,2.88-8.68,1.68-2.77,3.25-3.8,4.08-3.53Z" style="fill:url(#linear-gradient-18);"/><path d="M15.79,14.9s.31,1.07,.4,1.34c0,0-.54-.7-.65-1.21" style="fill:#5c3566;"/><path d="M14.51,16.9s.39,1.29,.82,2.03c0,0-.74-.93-.95-1.6l.12-.44Z" style="fill:#5c3566;"/><path d="M13.15,19.85s.28,1.15,.81,2.19c0,0-.66-.64-.97-1.59l.16-.6Z" style="fill:#5c3566;"/><path d="M12.2,24.98s.29,1.31,.91,2.21c0,0-.46-.49-.92-1.21-.04-.12,0-1,0-1Z" style="fill:#5c3566;"/><path d="M17.02,23.31s-1.39,1.03-2.26,1.26c0,0,2.18-1.58,2.65-2.34l-.39,1.08Z" style="fill:#5c3566;"/><path d="M17.6,19.51s-.59,.87-1.2,1.33c0,0,.82-.51,1.11-.71l.09-.62Z" style="fill:#5c3566;"/><path d="M13.59,31.82c-.02-2.05,.16-6.19,1.06-10.06,1.74-7.54,4.49-9.27,4.49-9.27" style="fill:none; stroke:#5c3566; stroke-linecap:round; stroke-linejoin:round; stroke-width:.4px;"/><path d="M19.14,12.5s-.58,1.64-.88,3.51c-.74,4.7-1.02,8.72-2.8,12.3-.8,1.61-1.84,1.92-1.84,1.92,0,0-1.66-1.72-1.45-5.52,.21-3.8,1.57-6.52,2.88-8.68,1.68-2.77,3.25-3.8,4.08-3.53Z" style="fill:none; stroke:#5c3566; stroke-miterlimit:10; stroke-width:.4px;"/></g><g><path d="M24.61,15.68s-.58,1.64-.88,3.51c-.74,4.7-1.02,8.72-2.8,12.3-.8,1.61-1.84,1.92-1.84,1.92,0,0-1.66-1.72-1.45-5.52,.21-3.8,1.57-6.52,2.88-8.68,1.68-2.77,3.25-3.8,4.08-3.53Z" style="fill:url(#linear-gradient-19);"/><path d="M19.86,20.36s.14,.8,.93,1.73c0,0,1.75-.71,2.63-1.61l.35-2.03-2.05,1.13-.54-1.31-1.32,2.09Z" style="fill:#88408b;"/><path d="M19.55,27.96s1.75-.5,2.89-1.5l.57-3.21s-1.74,1.2-2.9,1.69c0,0-1.21-1.04-1.48-1.96,0,0-.57,1.91-.74,3.36,0,0,.99,1.22,1.66,1.63Z" style="fill:#88408b;"/><path d="M17.66,29.15s.99,1.4,1.46,1.77c0,0,2-.92,2.6-1.31,0,0-.62,2.77-2.63,3.79,0,0-1.38-1.79-1.44-4.26Z" style="fill:#88408b;"/><path d="M24.61,15.68s-.58,1.64-.88,3.51c-.74,4.7-1.02,8.72-2.8,12.3-.8,1.61-1.84,1.92-1.84,1.92,0,0-1.66-1.72-1.45-5.52,.21-3.8,1.57-6.52,2.88-8.68,1.68-2.77,3.25-3.8,4.08-3.53Z" style="fill:url(#linear-gradient-20);"/><path d="M21.26,18.08s.31,1.07,.4,1.34c0,0-.54-.7-.65-1.21" style="fill:#5c3566;"/><path d="M19.97,20.07s.39,1.29,.82,2.03c0,0-.74-.93-.95-1.6l.12-.44Z" style="fill:#5c3566;"/><path d="M18.62,23.03s.28,1.15,.81,2.19c0,0-.66-.64-.97-1.59l.16-.6Z" style="fill:#5c3566;"/><path d="M17.67,28.16s.29,1.31,.91,2.21c0,0-.46-.49-.92-1.21-.04-.12,0-1,0-1Z" style="fill:#5c3566;"/><path d="M22.49,26.49s-1.39,1.03-2.26,1.26c0,0,2.18-1.58,2.65-2.34l-.39,1.08Z" style="fill:#5c3566;"/><path d="M23.07,22.69s-.59,.87-1.2,1.33c0,0,.82-.51,1.11-.71l.09-.62Z" style="fill:#5c3566;"/><path d="M19.06,35c-.02-2.05,.16-6.19,1.06-10.06,1.74-7.54,4.49-9.27,4.49-9.27" style="fill:none; stroke:#5c3566; stroke-linecap:round; stroke-linejoin:round; stroke-width:.4px;"/><path d="M24.61,15.68s-.58,1.64-.88,3.51c-.74,4.7-1.02,8.72-2.8,12.3-.8,1.61-1.84,1.92-1.84,1.92,0,0-1.66-1.72-1.45-5.52,.21-3.8,1.57-6.52,2.88-8.68,1.68-2.77,3.25-3.8,4.08-3.53Z" style="fill:none; stroke:#5c3566; stroke-miterlimit:10; stroke-width:.4px;"/></g></g></g></g></svg>