<?xml version="1.0" encoding="UTF-8"?><svg xmlns="http://www.w3.org/2000/svg" xmlns:xlink="http://www.w3.org/1999/xlink" viewBox="0 0 48 48"><defs><radialGradient id="radial-gradient" cx="-1.07" cy="-45.87" fx="-1.07" fy="-45.87" r="8.81" gradientTransform="translate(26.73 82.84) scale(2.4 .96)" gradientUnits="userSpaceOnUse"><stop offset=".28" stop-color="#2c2c2c" stop-opacity=".5"/><stop offset=".75" stop-color="#2c2c2c" stop-opacity=".1"/><stop offset=".99" stop-color="#2c2c2c" stop-opacity="0"/></radialGradient><linearGradient id="linear-gradient" x1="14.4" y1="25.75" x2="11.91" y2="-10.32" gradientTransform="translate(-3.34 .78) rotate(-4.39)" gradientUnits="userSpaceOnUse"><stop offset="0" stop-color="#fff" stop-opacity="0"/><stop offset="1" stop-color="#fff8f8"/></linearGradient><linearGradient id="linear-gradient-2" x1="17.54" y1="25.42" x2="14.7" y2="-15.62" gradientTransform="translate(52.85 37.94) rotate(-108.56) scale(1 -1)" xlink:href="#linear-gradient"/></defs><g style="isolation:isolate;"><g id="shadow" style="mix-blend-mode:multiply; opacity:.45;"><ellipse cx="24.18" cy="38.98" rx="20.33" ry="8.13" transform="translate(-.22 .14) rotate(-.33)" style="fill:url(#radial-gradient);"/></g><g id="ART"><g><g style="opacity:.5;"><g><path d="M12.12,31.95s2.17-.21,3.16-.53,1.52-.65,1.52-.65c0,0,.76-1.84,.78-3.72,0,0-.98,.46-2.31,.47-1.79,0-2.46,.77-2.46,.77l-.69,3.66Z" style="fill:#d681d5;"/><path d="M12.12,31.95s2.17-.21,3.16-.53,1.52-.65,1.52-.65c0,0,.76-1.84,.78-3.72,0,0-.98,.46-2.31,.47-1.79,0-2.46,.77-2.46,.77l-.69,3.66Z" style="fill:none; stroke:#633569; stroke-linecap:round; stroke-linejoin:round; stroke-width:.65px;"/><g><path d="M7.15,40.79c4.73-10.4,7.63-21.98,4.27-33.25-.03-.09,.12-.17,.16-.07,2.73,5.26,3.11,11.47,2.41,17.28-.82,5.88-2.37,11.51-4.48,17.07-.26,.67-1,1-1.67,.74-.7-.27-1.03-1.09-.7-1.77h0Z" style="fill:#633569;"/><path d="M11.95,31.21c.19-.5,.75-3,.75-3,0,0,.48-.78,1.82-1,1.34-.22,2.19-.42,3.16-1.7,.13-.9,.22-1.81,.29-2.72-.1,.04-.87,.46-1.74,.8-.93,.36-1.45,.28-1.45,.28,0,0,2.38-.86,3.26-2.39,.05-1.46,0-2.83-.2-3.99-.06,.1-.54,.88-1.21,1.04-.72,.17-1.21,.63-1.21,.63,0,0,1.82-1.26,1.97-3.75-.86-3.34-2.12-6.05-3.69-7.58-1.84-1.78-3.5-1.81-3.79-1.55-.29,.25-.3,2.55-.15,4.79,.14,2.04,.19,3.91,.22,5.96,.03,1.65,.04,3.29-.06,4.93,1.06,.64,1.59,1.81,1.66,1.97-.38-.42-1.27-.79-1.73-.96-.07,.89-.16,1.76-.3,2.62-.09,.6-.18,1.16-.27,1.68,1.21,3.17,.9,5.72,.9,5.72-.36-.76-1.37-1.61-1.69-1.86-.09,.39-.18,.73-.25,1.03-.26,1,.25,1.77,.85,2.62,.07,.1,.15,.22,.23,.33,.72,1.05,.66,2.12,.66,2.12,0,0,.83-1.09,1.93-1.52,.35-.14,.7-.23,1.01-.29,.66-.13,1.65-.34,2.14-1.27,.12-.22,.26-.47,.4-.77-.22,.11-.47,.19-.68,.19-.65-.01-1.22-.22-1.85-.15,0,0,1.43-.17,2.04-.45,.53-.25,1.08-1.04,1.21-1.23,0-.02,.02-.03,.02-.04-.1,.05-.78,.48-1.66,.49-.95,0-1.59-.21-2.9,.04" style="fill:#d681d5;"/><path d="M13.72,7.82c.38,.38,.75,.82,1.1,1.33h0c-.42,1.67-2.39,2.04-2.39,2.04-1.2-.82-2.59-.92-2.59-.92l-.13-.06c-.19-1.77-.03-3.73,.22-3.95,.29-.25,1.95-.23,3.79,1.55Z" style="fill:#613c63;"/><path d="M13.72,7.82c.38,.38,.75,.82,1.1,1.33h0c-.42,1.67-2.39,2.04-2.39,2.04-1.2-.82-2.59-.92-2.59-.92l-.13-.06c-.19-1.77-.03-3.73,.22-3.95,.29-.25,1.95-.23,3.79,1.55Z" style="fill:#88408b;"/><path d="M16.83,13.44c.2,.63,.4,1.28,.57,1.95h0c-.14,2.5-1.97,3.75-1.97,3.75,0,0,.49-.46,1.21-.63,.59-.15,1.03-.76,1.17-.97-.16,.34,.08,.5-.18,.76-1.29,1.28-3.97,1.76-3.97,1.76-.58-.77-2.58-2.47-3.66-3.27-.04-1.1-.1-2.13-.18-3.02,2.04,.66,3.58,2.17,3.58,2.17,2.51-.59,3.43-2.5,3.43-2.5Z" style="fill:#88408b;"/><path d="M13.45,24.05s.73-.13,1.51-.51c0,0,.35,.4,1.27,.04,.86-.34,1.64-.75,1.74-.8-.07,.9-.16,1.82-.29,2.72-.97,1.28-1.82,1.48-3.16,1.7-1.34,.22-1.82,1-1.82,1,0,0-1.04-2.23-2.99-3.66,.07-.52,.12-1.05,.16-1.58,.47,.16,1.36,.53,1.73,.96-.07-.16-.6-1.33-1.66-1.97,.03-.37,.04-.76,.05-1.13,.95,.71,2.65,2.06,3.46,3.23Z" style="fill:#88408b;"/><path d="M12.7,28.21s.48-.78,1.82-1c1.34-.22,2.19-.42,3.16-1.7,.13-.9,.22-1.81,.29-2.72-.1,.04-.87,.46-1.74,.8-.93,.36-1.45,.28-1.45,.28" style="fill:#88408b;"/><path d="M16.22,31.69s0,.02-.01,.04c-.34,.8-.71,1.65-1.12,2.41-.49,.93-1.49,1.14-2.14,1.27-.31,.06-.66,.15-1.01,.29-1.1,.43-1.93,1.52-1.93,1.52,0,0-.05-1.13-.77-2.18-.08-.12-.15-.22-.23-.34-.61-.84-1-1.55-.75-2.55,.08-.3,.17-.64,.26-1.03,.38-1.99,.5-2.63,.88-3.63,.47,2.25,1.84,3.8,2.28,4.73,1.32-.25,1.95-.03,2.9-.04,.88-.01,1.56-.44,1.66-.49Z" style="fill:#88408b;"/><path d="M11.95,31.21c.19-.5,.75-3,.75-3,0,0,.48-.78,1.82-1,1.34-.22,2.19-.42,3.16-1.7,.13-.9,.22-1.81,.29-2.72-.1,.04-.87,.46-1.74,.8-.93,.36-1.45,.28-1.45,.28,0,0,2.38-.86,3.26-2.39,.05-1.46,0-2.83-.2-3.99-.06,.1-.54,.88-1.21,1.04-.72,.17-1.21,.63-1.21,.63,0,0,1.82-1.26,1.97-3.75-.86-3.34-2.12-6.05-3.69-7.58-1.84-1.78-3.5-1.81-3.79-1.55-.29,.25-.77,2.38-.42,4.61,.31,2.02,.46,4.1,.5,6.14,.03,1.65,.04,3.29-.06,4.93,1.06,.64,1.59,1.81,1.66,1.97-.38-.42-1.27-.79-1.73-.96-.07,.89-.16,1.76-.3,2.62-.09,.6-.18,1.16-.27,1.68,1.21,3.17,.9,5.72,.9,5.72-.36-.76-1.37-1.61-1.69-1.86-.09,.39-.18,.73-.25,1.03-.26,1-.06,2.06,.54,2.9,.07,.1,.15,.22,.23,.33,.72,1.05,.97,1.83,.97,1.83,0,0,.83-1.09,1.93-1.52,.35-.14,.7-.23,1.01-.29,.66-.13,1.65-.34,2.14-1.27,.22-.41,.39-.83,.58-1.25,.11-.26,.3-1.05,.56-1.19-.51,.27-1.07,.48-1.66,.49-.95,0-1.59-.21-2.9,.04" style="fill:url(#linear-gradient);"/><path d="M11.95,31.21c.19-.5,.75-3,.75-3,0,0,.48-.78,1.82-1,1.34-.22,2.19-.42,3.16-1.7,.13-.9,.22-1.81,.29-2.72-.1,.04-.87,.46-1.74,.8-.93,.36-1.45,.28-1.45,.28,0,0,2.38-.86,3.26-2.39,.05-1.46,0-2.83-.2-3.99-.06,.1-.43,.56-.99,.96-.61,.43-1.43,.71-1.43,.71,0,0,1.82-1.26,1.97-3.75-.86-3.34-2.12-6.05-3.69-7.58-1.84-1.78-3.5-1.81-3.79-1.55-.29,.25-.3,2.55-.15,4.79,.14,2.04,.19,3.91,.22,5.96,.03,1.65,.04,3.29-.06,4.93,1.06,.64,1.59,1.81,1.66,1.97-.38-.42-1.27-.79-1.73-.96-.07,.89-.16,1.76-.3,2.62-.09,.6-.98,5.03-1.06,5.33-.26,1-.27,2.62,.34,3.47,.07,.1,.15,.22,.23,.33,.72,1.05,.91,2.5,.91,2.5,0,0,.83-1.09,1.93-1.52,.35-.14,.7-.23,1.01-.29,.66-.13,1.65-.34,2.14-1.27,.12-.22,.99-2.21,1.12-2.41,0-.02,.02-.03,.02-.04-.1,.05-.78,.48-1.66,.49-.95,0-1.59-.21-2.9,.04" style="fill:none; stroke:#633569; stroke-linecap:round; stroke-linejoin:round; stroke-width:.65px;"/><path d="M10.58,35.54c3.13-8.97,4.28-18.95,.9-28.02-.02-.04,.04-.06,.06-.03,4.09,8.91,2.76,19.24-.04,28.32-.18,.6-1.11,.33-.91-.28h0Z" style="fill:#633569;"/><path d="M7.81,41.08c4.47-10.45,7.6-22.44,3.66-33.56-.02-.04,.05-.08,.07-.03,.62,1.32,1.07,2.71,1.42,4.13,1.07,4.26,1.17,8.72,.59,13.07-.88,5.8-2.54,11.4-4.69,16.85-.29,.7-1.37,.25-1.05-.46h0Z" style="fill:#ebe0ea;"/></g></g><path d="M9.55,26.64c-.1,.55,.07,2.54,1.38,4.35,0,0-2.04-1.3-1.84-2.61l.45-1.73Z" style="fill:#633569;"/></g><g><g><path d="M16.63,33.26s-.74-2.37-.85-3.55,0-1.89,0-1.89c0,0,1.59-1.61,3.55-2.47,0,0-.05,1.23,.54,2.63,.79,1.88,.28,2.92,.28,2.92l-3.52,2.35Z" style="fill:#d681d5;"/><path d="M16.63,33.26s-.74-2.37-.85-3.55,0-1.89,0-1.89c0,0,1.59-1.61,3.55-2.47,0,0-.05,1.23,.54,2.63,.79,1.88,.28,2.92,.28,2.92l-3.52,2.35Z" style="fill:none; stroke:#633569; stroke-linecap:round; stroke-linejoin:round; stroke-width:.74px;"/><g><path d="M9.58,42.38c8.8-9.57,19.64-17.75,32.94-19.23,.11,0,.12-.2,0-.2-6.73-.53-13.4,1.83-19.17,5.14-5.8,3.47-11,7.59-15.89,12.26-.58,.56-.6,1.5-.03,2.08,.59,.62,1.6,.59,2.16-.05h0Z" style="fill:#633569;"/><path d="M17.49,33.1c.45-.42,2.81-2.12,2.81-2.12,0,0,.6-.85,.24-2.35-.36-1.51-.53-2.48,.38-4.07,.88-.54,1.8-1.04,2.72-1.51,0,.12-.09,1.12-.06,2.17,.03,1.13,.35,1.64,.35,1.64,0,0-.15-2.87,1.06-4.47,1.5-.7,2.97-1.26,4.27-1.56-.07,.1-.68,.96-.55,1.73,.14,.83-.12,1.55-.12,1.55,0,0,.51-2.47,3.06-3.73,3.88-.58,7.28-.47,9.57,.5,2.69,1.14,3.45,2.86,3.31,3.28-.13,.41-2.53,1.45-4.96,2.28-2.2,.76-4.18,1.54-6.34,2.41-1.74,.7-3.46,1.42-5.14,2.25-1.13-.82-2.6-.86-2.8-.86,.61,.21,1.39,.98,1.77,1.39-.9,.46-1.77,.95-2.61,1.47-.59,.36-1.13,.71-1.64,1.03-3.85,.14-6.39,1.59-6.39,1.59,.96,.04,2.3,.72,2.7,.95-.36,.27-.68,.51-.96,.72-.93,.72-1.97,.52-3.12,.27-.14-.03-.29-.06-.45-.09-1.42-.28-2.51,.25-2.51,.25,0,0,.77-1.36,.73-2.7-.01-.43-.07-.84-.14-1.19-.16-.74-.38-1.88,.38-2.81,.18-.22,.38-.48,.63-.77-.02,.28,0,.57,.11,.8,.3,.68,.78,1.18,.98,1.88,0,0-.45-1.57-.44-2.34,.02-.67,.61-1.59,.75-1.82,.02-.02,.02-.03,.03-.03-.01,.12-.15,1.03,.22,1.96,.41,1,.92,1.57,1.24,3.06" style="fill:#d681d5;"/><path d="M41.21,20.88c-.57-.23-1.2-.42-1.88-.56h0c-1.55,1.18-1.07,3.41-1.07,3.41,1.4,.89,2.12,2.31,2.12,2.31l.11,.11c1.94-.58,3.93-1.63,4.04-1.99,.14-.42-.62-2.14-3.31-3.28Z" style="fill:#613c63;"/><path d="M41.21,20.88c-.57-.23-1.2-.42-1.88-.56h0c-1.55,1.18-1.07,3.41-1.07,3.41,1.4,.89,2.12,2.31,2.12,2.31l.11,.11c1.94-.58,3.93-1.63,4.04-1.99,.14-.42-.62-2.14-3.31-3.28Z" style="fill:#88408b;"/><path d="M33.94,20.1c-.75,.07-1.51,.15-2.3,.27h0c-2.54,1.26-3.05,3.73-3.05,3.73,0,0,.26-.71,.12-1.55-.11-.68,.34-1.42,.5-1.66-.29,.32-.56,.13-.71,.52-.77,1.93-.08,4.94-.08,4.94,1.07,.26,3.73,1.6,5.05,2.39,1.16-.45,2.27-.84,3.24-1.15-1.6-1.84-3.86-2.79-3.86-2.79-.49-2.9,1.1-4.7,1.1-4.7Z" style="fill:#88408b;"/><path d="M24.33,28.35s-.19-.82-.14-1.81c0,0-.58-.18-.61-1.31-.03-1.05,.06-2.05,.06-2.17-.92,.47-1.83,.97-2.72,1.51-.91,1.59-.75,2.56-.38,4.07,.36,1.5-.24,2.35-.24,2.35,0,0,2.79,.1,5.17,1.51,.52-.3,1.05-.59,1.59-.87-.38-.42-1.16-1.19-1.77-1.39,.2,0,1.66,.04,2.8,.86,.38-.19,.77-.38,1.16-.55-1.16-.68-3.33-1.87-4.92-2.19Z" style="fill:#88408b;"/><path d="M20.3,30.98s.6-.85,.24-2.35c-.36-1.51-.53-2.48,.38-4.07,.88-.54,1.8-1.04,2.72-1.51,0,.12-.09,1.12-.06,2.17,.03,1.13,.35,1.64,.35,1.64" style="fill:#88408b;"/><path d="M15.1,28.84s-.02,.02-.03,.03c-.69,.71-1.42,1.47-2.03,2.25-.75,.93-.53,2.07-.38,2.81,.08,.35,.14,.76,.15,1.19,.04,1.34-.73,2.7-.73,2.7,0,0,1.21-.44,2.63-.16,.16,.03,.3,.06,.45,.09,1.15,.26,2.07,.37,3-.35,.28-.21,.59-.46,.96-.72,1.92-1.28,2.53-1.69,3.41-2.53-2.56,.5-4.8-.24-5.96-.29-.33-1.49-.83-2.06-1.24-3.06-.38-.93-.24-1.83-.22-1.96Z" style="fill:#88408b;"/><path d="M17.49,33.1c.45-.42,2.81-2.12,2.81-2.12,0,0,.6-.85,.24-2.35-.36-1.51-.53-2.48,.38-4.07,.88-.54,1.8-1.04,2.72-1.51,0,.12-.09,1.12-.06,2.17,.03,1.13,.35,1.64,.35,1.64,0,0-.15-2.87,1.06-4.47,1.5-.7,2.97-1.26,4.27-1.56-.07,.1-.68,.96-.55,1.73,.14,.83-.12,1.55-.12,1.55,0,0,.51-2.47,3.06-3.73,3.88-.58,7.28-.47,9.57,.5,2.69,1.14,3.45,2.86,3.31,3.28-.13,.41-2.16,1.86-4.64,2.49-2.26,.57-4.5,1.33-6.66,2.2-1.74,.7-3.46,1.42-5.14,2.25-1.13-.82-2.6-.86-2.8-.86,.61,.21,1.39,.98,1.77,1.39-.9,.46-1.77,.95-2.61,1.47-.59,.36-1.13,.71-1.64,1.03-3.85,.14-6.39,1.59-6.39,1.59,.96,.04,2.3,.72,2.7,.95-.36,.27-.68,.51-.96,.72-.93,.72-2.13,.98-3.28,.72-.14-.03-.29-.06-.45-.09-1.42-.28-2.35-.2-2.35-.2,0,0,.77-1.36,.73-2.7-.01-.43-.07-.84-.14-1.19-.16-.74-.38-1.88,.38-2.81,.33-.41,.69-.78,1.06-1.16,.22-.23,.96-.78,.99-1.11-.06,.66-.03,1.33,.23,1.95,.41,1,.92,1.57,1.24,3.06" style="fill:url(#linear-gradient-2);"/><path d="M17.49,33.1c.45-.42,2.81-2.12,2.81-2.12,0,0,.6-.85,.24-2.35-.36-1.51-.53-2.48,.38-4.07,.88-.54,1.8-1.04,2.72-1.51,0,.12-.09,1.12-.06,2.17,.03,1.13,.35,1.64,.35,1.64,0,0-.15-2.87,1.06-4.47,1.5-.7,2.97-1.26,4.27-1.56-.07,.1-.4,.7-.57,1.46-.18,.83-.11,1.81-.11,1.81,0,0,.51-2.47,3.06-3.73,3.88-.58,7.28-.47,9.57,.5,2.69,1.14,3.45,2.86,3.31,3.28-.13,.41-2.53,1.45-4.96,2.28-2.2,.76-4.18,1.54-6.34,2.41-1.74,.7-3.46,1.42-5.14,2.25-1.13-.82-2.6-.86-2.8-.86,.61,.21,1.39,.98,1.77,1.39-.9,.46-1.77,.95-2.61,1.47-.59,.36-4.84,3.26-5.11,3.47-.93,.72-2.63,1.44-3.78,1.19-.14-.03-.29-.06-.45-.09-1.42-.28-3.03,.15-3.03,.15,0,0,.77-1.36,.73-2.7-.01-.43-.07-.84-.14-1.19-.16-.74-.38-1.88,.38-2.81,.18-.22,1.88-2.02,2.02-2.24,.02-.02,.02-.03,.03-.03-.01,.12-.15,1.03,.22,1.96,.41,1,.92,1.57,1.24,3.06" style="fill:none; stroke:#633569; stroke-linecap:round; stroke-linejoin:round; stroke-width:.74px;"/><path d="M12.86,35.62c8.27-6.97,18.51-12.95,29.66-12.61,.05,0,.05,.08,0,.07-8.17,.4-15.98,3.57-22.61,8.27-2.19,1.59-4.29,3.32-6.35,5.1-.54,.46-1.26-.37-.7-.83h0Z" style="fill:#633569;"/><path d="M8.99,41.82c8.97-9.32,20.14-17.92,33.53-18.72,.05,0,.06-.09,0-.09-1.66-.06-3.32,.08-4.96,.34-4.94,.77-9.66,2.64-13.95,5.18-5.68,3.49-10.82,7.71-15.57,12.39-.61,.61,.34,1.55,.95,.9h0Z" style="fill:#ebe0ea;"/></g></g><path d="M23.35,33.59c-.53,.35-2.7,1.05-5.17,.48,0,0,2.27,1.56,3.55,.77l1.62-1.25Z" style="fill:#633569;"/></g><g><path d="M36.98,13.88c-3.73-5.12-10.27-7.86-16.05-7.17" style="fill:none; stroke:#ef2929; stroke-linecap:round; stroke-linejoin:round;"/><polygon points="38.73 16.95 37.94 11.63 36.8 13.68 34.45 13.7 38.73 16.95" style="fill:#ef2929;"/><polygon points="17.51 7.51 21.94 4.46 21.22 6.7 22.8 8.44 17.51 7.51" style="fill:#ef2929;"/></g></g></g></g></svg>