<?xml version="1.0" encoding="UTF-8"?><svg xmlns="http://www.w3.org/2000/svg" xmlns:xlink="http://www.w3.org/1999/xlink" viewBox="0 0 48 48"><defs><radialGradient id="radial-gradient" cx="110.98" cy="-46.15" fx="110.98" fy="-46.15" r="8.81" gradientTransform="translate(-242.32 83.11) scale(2.4 .96)" gradientUnits="userSpaceOnUse"><stop offset=".28" stop-color="#2c2c2c" stop-opacity=".5"/><stop offset=".75" stop-color="#2c2c2c" stop-opacity=".1"/><stop offset=".99" stop-color="#2c2c2c" stop-opacity="0"/></radialGradient><linearGradient id="linear-gradient" x1="28.35" y1="24.86" x2="17.9" y2="19.2" gradientTransform="matrix(1, 0, 0, 1, 0, 0)" gradientUnits="userSpaceOnUse"><stop offset="0" stop-color="#fff" stop-opacity="0"/><stop offset="1" stop-color="#fff8f8"/></linearGradient></defs><g style="isolation:isolate;"><g id="shadow" style="mix-blend-mode:multiply; opacity:.45;"><ellipse cx="24.18" cy="38.98" rx="20.33" ry="8.13" transform="translate(-.22 .14) rotate(-.33)" style="fill:url(#radial-gradient);"/></g><g id="ART"><g><path d="M16.2,35.99s-1-1.74-1.24-2.76,.02-1.85,.02-1.85c0,0,0,1.99,1.69,3.72l.33,1.14-.8-.25Z" style="fill:#633569;"/><path d="M31.59,25.12c-.08,.2-.19,.4-.25,.61-.76,2.97-1.62,4-4.19,6.07-1.3,1.04-1.42,2.59-1.99,3.25-1.37,1.59-2.5,2.07-2.66,2.2-.93,.76-2.07,.54-2.81,.38-.35-.07-.76-.13-1.19-.14-1.34-.04-2.7,.73-2.7,.73,0,0,.44-1.61,.15-3.03-.03-.16-.06-.31-.09-.45-.18-.82-.28-2.09,.13-3.04,0,0,.74,.77,2.05,1.3-.31-3.42,.51-5.2,.51-5.2,.6-1.47,1.16-2.53,1.16-2.53,0,0,1.07,1.58,2.01,2.56,0,0,.08-2.72-.4-5.16,.79-1.43,1.59-2.85,2.35-4.09,1.06-1.74,2.48-2.78,2.91-3.71,.56-1.24,.46-2.97,1-4.28,.97-2.37,2.13-4.71,2.55-4.82,.36-.1,1.39,1.05,2.29,3.08,0,0-.79,2.12-1.23,2.51l1.79-1.08c.16,.55,.3,1.2,.4,1.9,0,0-1.99,1.41-2.49,2.09,0,0,1.36-.63,2.63-.94,.05,.58,.09,1.18,.1,1.79,0,0-2.19,1.57-3,2.13l2.98-.67c-.03,.55-.08,1.1-.15,1.63-.06,.36-.11,.71-.18,1.05,0,0-2.48,1.06-3.83,1.8l-1.35,.74s4.03-.97,4.97-1.52l-.18,.78c-.2,.84-.43,1.62-.68,2.37,0,0-3.7,1.45-4.41,1.71,0,0,2.6,.03,3.79,0Z" style="fill:#d681d5;"/><polygon points="30.21 12.94 31.83 12.1 31.83 13.08 29.89 14.79 30.21 12.94" style="fill:#b15bba;"/><path d="M29.11,17.99s1.3-.48,1.63-.58,1.46-1.28,1.46-1.28l.24-1.17-1.37,.45,.78-.62-2.3,.62-.45,2.59Z" style="fill:#88408b;"/><path d="M28.22,21.52l3.78-2.03s-.51-.2-1.02-.17,1.02-.74,1.02-.74l.2-.7s-2.45,.83-3.12,1.04l-.86,2.61Z" style="fill:#b15bba;"/><path d="M26.99,25.93s1.2,.28,3.07,.21l-.45,1.41-2.62-1.62Z" style="fill:#b15bba;"/><path d="M31.01,23.69l.61-1.53s-2.47,.92-4.4,1.15l-1.16,2.08s.93,.26,2.24,0l2.71-1.71Z" style="fill:#88408b;"/><path d="M18.38,36.38s1.64,.33,3.1,.36l-.37-.36s1.57-.32,1.83-.29,.39,0,.39,0c0,0-1.64-.71-2.23-.55l3.19-.5s.4-.75,.38-1.15c0,0,0-.92,.22-1.26s1.17-.89,1.17-.89l.48-.75,1.76-.33,.78-.62s-2.3-.14-3.46-.54l4.95-1.48-.72-.28-1.28-.88s-1.72,.19-2.3,.29,.1-.46,.1-.46l1.33-.33-1.65-.95-7.68,10.99Z" style="fill:#b15bba;"/><path d="M28.3,12.33c-.39,1.67-.87,3.24-1.11,3.58-.24,.34-.85,.82-1.54,2.42-.16,.37-.29,.73-.42,1.07l.49,2.57-.84-1.62c-.1,.28-.21,.54-.31,.78l.57,2.17-.97-1.4c-.06,.09-.11,.17-.17,.24-.63,.76-.9,1.53-.9,1.53l1.56,.94,.84,.45c5.05-8.31,5.01-16.16,5.01-16.16,0,0-1.83,1.73-2.22,3.4Z" style="fill:#b15bba;"/><path d="M16.98,35.54s-.18-1.28-.24-1.75,.92,.46,.95,.42,.61-.24,.61-.24l.96-1.12s-.37-1.91-.31-2.81,.31-1.84,.31-1.84c0,0,.16,1.27,.52,1.84s.56,.11,.59-.47,0-1.88,0-1.88c0,0,.4,.87,.84,1.21s.89-.29,1.07-.55,.57-2.51,.42-3.51-.24-1.51-.24-1.51l.64,.37s.33,1.99,.54,2.49,.35-1.3,.28-1.62-.12-.47-.12-.47l1.1,.63s-1.01,2.78-1.49,3.47-6.01,7.66-6.01,7.66l-.41-.31Z" style="fill:#88408b;"/><g><path d="M31.59,25.12c-.08,.2-.19,.4-.25,.61-.76,2.97-1.62,4-4.19,6.07-1.3,1.04-1.42,2.59-1.99,3.25-1.37,1.59-2.5,2.07-2.66,2.2-.93,.76-2.07,.54-2.81,.38-.35-.07-.76-.13-1.19-.14-1.34-.04-2.7,.73-2.7,.73,0,0,.44-1.61,.15-3.03-.03-.16-.06-.31-.09-.45-.18-.82-.28-2.09,.13-3.04,0,0,.74,.77,2.05,1.3-.31-3.42,.51-5.2,.51-5.2,.6-1.47,1.16-2.53,1.16-2.53,0,0,1.07,1.58,2.01,2.56,0,0,.08-2.72-.4-5.16,.79-1.43,1.59-2.85,2.35-4.09,1.06-1.74,2.48-2.78,2.91-3.71,.56-1.24,.46-2.97,1-4.28,.97-2.37,2.13-4.71,2.55-4.82,.36-.1,1.39,1.05,2.29,3.08,0,0-.79,2.12-1.23,2.51l1.79-1.08c.16,.55,.3,1.2,.4,1.9,0,0-1.99,1.41-2.49,2.09,0,0,1.36-.63,2.63-.94,.05,.58,.09,1.18,.1,1.79,0,0-2.19,1.57-3,2.13l2.98-.67c-.03,.55-.08,1.1-.15,1.63-.06,.36-.11,.71-.18,1.05,0,0-2.48,1.06-3.83,1.8l-1.35,.74s4.03-.97,4.97-1.52l-.18,.78c-.2,.84-.43,1.62-.68,2.37,0,0-3.7,1.45-4.41,1.71,0,0,2.6,.03,3.79,0Z" style="fill:url(#linear-gradient);"/><path d="M31.59,25.12c-.08,.2-.19,.4-.25,.61-.76,2.97-1.62,4-4.19,6.07-1.3,1.04-1.42,2.59-1.99,3.25-1.37,1.59-2.5,2.07-2.66,2.2-.93,.76-2.07,.54-2.81,.38-.35-.07-.76-.13-1.19-.14-1.34-.04-2.7,.73-2.7,.73,0,0,.44-1.61,.15-3.03-.03-.16-.06-.31-.09-.45-.18-.82-.28-2.09,.13-3.04,0,0,.74,.77,2.05,1.3-.31-3.42,.51-5.2,.51-5.2,.6-1.47,1.16-2.53,1.16-2.53,0,0,1.07,1.58,2.01,2.56,0,0,.08-2.72-.4-5.16,.79-1.43,1.59-2.85,2.35-4.09,1.06-1.74,2.48-2.78,2.91-3.71,.56-1.24,.46-2.97,1-4.28,.97-2.37,2.13-4.71,2.55-4.82,.36-.1,1.39,1.05,2.29,3.08,0,0-.79,2.12-1.23,2.51l1.79-1.08c.16,.55,.3,1.2,.4,1.9,0,0-1.99,1.41-2.49,2.09,0,0,1.36-.63,2.63-.94,.05,.58,.09,1.18,.1,1.79,0,0-2.19,1.57-3,2.13l2.98-.67c-.03,.55-.08,1.1-.15,1.63-.06,.36-.11,.71-.18,1.05,0,0-2.48,1.06-3.83,1.8l-1.35,.74s4.03-.97,4.97-1.52l-.18,.78c-.2,.84-.43,1.62-.68,2.37,0,0-3.7,1.45-4.41,1.71,0,0,2.6,.03,3.79,0Z" style="fill:none; stroke:#633569; stroke-linecap:round; stroke-linejoin:round; stroke-width:.74px;"/></g><path d="M30.52,27.8s-4.26,1.38-5.63,1.62c0,0,2.21,.41,4.77-.15l.86-1.47Z" style="fill:#633569;"/><path d="M28.74,30.31s-1.92,.32-3.19,.41-1.55-.06-1.55-.06c0,0,.64,.47,2.09,.56s2.2,0,2.2,0l.46-.91Z" style="fill:#633569;"/><path d="M24.68,31.85s1.14,.03,2.76-.41l-.45,.74s-1.9,0-2.31-.33Z" style="fill:#633569;"/><path d="M26.1,33.21s-2.13,.52-3.35,.42-1.35-.26-1.35-.26c0,0,.46,.89,4.41,.69l.28-.85Z" style="fill:#633569;"/><path d="M24.89,34.79s-1.31,.12-2.19,0c0,0,.8,.51,1.92,.51l.28-.51Z" style="fill:#633569;"/><path d="M19.25,36.18s2.57,.38,2.97,1.21l.72-.6s-.73-.94-3.69-.6Z" style="fill:#633569;"/><path d="M23.17,36.64s-.66-.93-1.69-.96c0,0,.53-.44,2.43,.28l-.74,.68Z" style="fill:#633569;"/><path d="M30.06,27.71s-2.38,.21-3.52,.27c0,0,2.22-.65,2.53-.84l.98,.57Z" style="fill:#633569;"/><path d="M17.39,32.48s-.35-1.97-.22-3.02,.65-1.73,.65-1.73c0,0-.67,1.88,.32,4.07l-.08,1.19-.66-.51Z" style="fill:#633569;"/><path d="M21.11,27.37s-.9-2.45-1.62-3.29c-.14-.26,.28-.92,2.24,3.16l.09,.43-.71-.3Z" style="fill:#633569;"/><path d="M16.34,36.09s-.54-2.2-1.7-2.18-1.38,.39-1.38,.39c0,0,1.23-.08,1.7,.63s.81,1.65,.81,1.65l.56-.49Z" style="fill:#633569;"/><path d="M16.05,35.6s-.61-.81-1.96-.35c-.62,.21-.67,.86-.67,.86,0,0,1.47-1.15,2.36,.25l.27-.75Z" style="fill:#633569;"/><path d="M30.68,7.76c0-.12-.2-.11-.2,0-.41,3.67-1.51,7.62-2.84,10.96-1.63,3.93-3.88,7.67-6.43,11.1h0c-2.79,3.9-6.44,7.65-9.96,10.89-.64,.56-.67,1.57-.05,2.16,.58,.56,1.51,.55,2.08-.03,3.56-3.72,7.18-7.94,9.93-12.23h0c.81-1.2,1.59-2.42,2.34-3.67,1.23-2.14,2.35-4.44,3.22-6.79,.12-.33,.21-.68,.32-1.01h0c1.14-3.56,1.89-7.69,1.6-11.37Z" style="fill:#633569;"/><path d="M11.81,41.3C21.13,32.33,29.73,21.16,30.53,7.76c0-.05,.09-.06,.09,0,.06,1.66-.08,3.32-.34,4.96-.77,4.94-2.64,9.66-5.18,13.95-3.49,5.68-7.71,10.82-12.39,15.57-.61,.61-1.55-.34-.9-.95h0Z" style="fill:#8ae234;"/><g><line x1="9.48" y1="15.83" x2="10.78" y2="16.58" style="fill:none; stroke:#8ae234; stroke-miterlimit:10;"/><line x1="12.6" y1="17.63" x2="38.99" y2="32.86" style="fill:none; stroke:#8ae234; stroke-dasharray:0 0 3.15 2.1; stroke-miterlimit:10;"/><line x1="39.9" y1="33.39" x2="41.2" y2="34.14" style="fill:none; stroke:#8ae234; stroke-miterlimit:10;"/></g></g></g></g></svg>