<?xml version="1.0" encoding="UTF-8" standalone="no"?>
<svg
   viewBox="0 0 48 48"
   version="1.1"
   id="svg23"
   sodipodi:docname="2-Find_Instances.svg"
   inkscape:version="1.3 (0e150ed, 2023-07-21)"
   xmlns:inkscape="http://www.inkscape.org/namespaces/inkscape"
   xmlns:sodipodi="http://sodipodi.sourceforge.net/DTD/sodipodi-0.dtd"
   xmlns:xlink="http://www.w3.org/1999/xlink"
   xmlns="http://www.w3.org/2000/svg"
   xmlns:svg="http://www.w3.org/2000/svg">
  <sodipodi:namedview
     id="namedview23"
     pagecolor="#ffffff"
     bordercolor="#000000"
     borderopacity="0.25"
     inkscape:showpageshadow="2"
     inkscape:pageopacity="0.0"
     inkscape:pagecheckerboard="0"
     inkscape:deskcolor="#d1d1d1"
     inkscape:zoom="17.583333"
     inkscape:cx="24"
     inkscape:cy="23.971564"
     inkscape:window-width="1392"
     inkscape:window-height="1245"
     inkscape:window-x="602"
     inkscape:window-y="114"
     inkscape:window-maximized="0"
     inkscape:current-layer="svg23" />
  <defs
     id="defs10">
    <radialGradient
       id="radial-gradient"
       cx="-182.97"
       cy="115.4"
       fx="-182.97"
       fy="115.4"
       r="8.76"
       gradientTransform="matrix(2.7,0,0,0.62,518.68,-29.51)"
       gradientUnits="userSpaceOnUse">
      <stop
         offset=".04"
         stop-color="#1a1718"
         stop-opacity=".5"
         id="stop1" />
      <stop
         offset=".68"
         stop-color="#1a1718"
         stop-opacity=".15"
         id="stop2" />
      <stop
         offset=".93"
         stop-color="#1a1718"
         stop-opacity="0"
         id="stop3" />
    </radialGradient>
    <linearGradient
       id="linear-gradient"
       x1="25.56"
       y1="29.03"
       x2="29.99"
       y2="29.03"
       gradientUnits="userSpaceOnUse">
      <stop
         offset="0"
         stop-color="#eeeeec"
         id="stop4" />
      <stop
         offset=".51"
         stop-color="#babdb6"
         id="stop5" />
      <stop
         offset=".99"
         stop-color="#888a85"
         id="stop6" />
    </linearGradient>
    <linearGradient
       id="linear-gradient-2"
       x1="23.91"
       y1="16.12"
       x2="16.89"
       y2="23.15"
       gradientTransform="matrix(1, 0, 0, 1, 0, 0)"
       gradientUnits="userSpaceOnUse">
      <stop
         offset="0"
         stop-color="#fff"
         stop-opacity="0"
         id="stop7" />
      <stop
         offset="1"
         stop-color="#fff8f8"
         id="stop8" />
    </linearGradient>
    <linearGradient
       id="linear-gradient-3"
       x1="24.56"
       y1="20.29"
       x2="17.53"
       y2="27.32"
       gradientTransform="rotate(180,18.59,19.345)"
       xlink:href="#linear-gradient-2" />
    <linearGradient
       id="linear-gradient-4"
       x1="34.82"
       y1="33.5"
       x2="33.52"
       y2="34.8"
       gradientTransform="rotate(45,33.932926,34.395478)"
       gradientUnits="userSpaceOnUse">
      <stop
         offset="0"
         stop-color="#3465a4"
         id="stop9" />
      <stop
         offset="1"
         stop-color="#204a87"
         id="stop10" />
    </linearGradient>
    <linearGradient
       id="linear-gradient-5"
       x1="34.13"
       y1="34.19"
       x2="35.22"
       y2="33.1"
       gradientTransform="rotate(45,34.910891,33.410565)"
       xlink:href="#linear-gradient-2" />
    <linearGradient
       inkscape:collect="always"
       xlink:href="#linear-gradient-2"
       id="linearGradient23"
       gradientUnits="userSpaceOnUse"
       x1="23.91"
       y1="16.12"
       x2="16.89"
       y2="23.15" />
  </defs>
  <g
     id="shadow"
     style="opacity:0.45;isolation:isolate;mix-blend-mode:multiply">
    <ellipse
       cx="24"
       cy="42.529999"
       rx="22.77"
       ry="5.2800002"
       style="opacity:0.9;fill:url(#radial-gradient)"
       id="ellipse10" />
  </g>
  <g
     id="ART"
     style="isolation:isolate"
     transform="matrix(1.3437038,0,0,1.3437038,-8.3999252,-9.1566393)">
    <g
       id="g11">
      <polygon
         points="27.93,30.21 29.99,28.15 29.69,27.84 25.56,27.84 "
         style="fill:url(#linear-gradient)"
         id="polygon10" />
      <polygon
         points="27.93,30.21 29.99,28.15 29.69,27.84 25.56,27.84 "
         style="fill:none;stroke:#3465a4;stroke-width:0.7px;stroke-miterlimit:10"
         id="polygon11" />
    </g>
    <g
       id="g22">
      <line
         x1="14.06"
         y1="23.24"
         x2="40.299999"
         y2="23.24"
         style="fill:none;stroke:#2e3436;stroke-miterlimit:10"
         id="line11" />
      <path
         d="m 26.48,24.87 1.98,1.57 h -6.84 l 2.21,-6.47 0.92,2.6 c 5.17,-5.52 0.88,-14.88 -6.85,-14.9 -0.21,0 -0.22,-0.34 -0.01,-0.35 1.98,-0.18 4.04,0.25 5.82,1.26 5.79,3.06 7.05,11.41 2.76,16.29 z"
         style="fill:#3465a4"
         id="path11" />
      <path
         d="m 26.48,24.87 1.98,1.57 h -6.84 l 2.21,-6.47 0.92,2.6 c 5.17,-5.52 0.88,-14.88 -6.85,-14.9 -0.21,0 -0.22,-0.34 -0.01,-0.35 1.98,-0.18 4.04,0.25 5.82,1.26 5.79,3.06 7.05,11.41 2.76,16.29 z"
         style="opacity:0.79;fill:url(#linearGradient23)"
         id="path12" />
      <path
         d="m 26.48,24.87 1.98,1.57 h -6.84 l 2.21,-6.47 0.92,2.6 c 5.17,-5.52 0.88,-14.88 -6.85,-14.9 -0.21,0 -0.22,-0.34 -0.01,-0.35 1.98,-0.18 4.04,0.25 5.82,1.26 5.79,3.06 7.05,11.41 2.76,16.29 z"
         style="fill:none;stroke:#204a87;stroke-width:0.7px;stroke-miterlimit:10"
         id="path13" />
      <path
         d="M 10.05,9.65 8.07,8.08 h 6.84 l -2.21,6.47 -0.92,-2.6 c -5.17,5.52 -0.88,14.88 6.85,14.9 0.21,0 0.22,0.34 0.01,0.35 C 16.66,27.38 14.6,26.95 12.82,25.94 7.03,22.88 5.77,14.53 10.06,9.65 Z"
         style="fill:#3465a4"
         id="path14" />
      <path
         d="M 10.05,9.65 8.07,8.08 h 6.84 l -2.21,6.47 -0.92,-2.6 c -5.17,5.52 -0.88,14.88 6.85,14.9 0.21,0 0.22,0.34 0.01,0.35 C 16.66,27.38 14.6,26.95 12.82,25.94 7.03,22.88 5.77,14.53 10.06,9.65 Z"
         style="opacity:0.79;fill:url(#linear-gradient-3)"
         id="path15" />
      <path
         d="M 10.05,9.65 8.07,8.08 h 6.84 l -2.21,6.47 -0.92,-2.6 c -5.17,5.52 -0.88,14.88 6.85,14.9 0.21,0 0.22,0.34 0.01,0.35 C 16.66,27.38 14.6,26.95 12.82,25.94 7.03,22.88 5.77,14.53 10.06,9.65 Z"
         style="fill:none;stroke:#204a87;stroke-width:0.7px;stroke-miterlimit:10"
         id="path16" />
      <path
         d="m 32.53,27.07 h 3.05 c 0.22,0 0.39,0.18 0.39,0.39 v 14 h -3.84 v -14 c 0,-0.22 0.18,-0.39 0.39,-0.39 z"
         transform="rotate(-45,34.044412,34.268343)"
         style="fill:#3465a4"
         id="path17" />
      <rect
         x="33.23"
         y="27.190001"
         width="1.39"
         height="14.4"
         transform="rotate(-45,33.924057,34.388196)"
         style="fill:url(#linear-gradient-4)"
         id="rect17" />
      <rect
         x="34.209999"
         y="26.209999"
         width="1.39"
         height="14.4"
         transform="rotate(-45,34.908971,33.410231)"
         style="opacity:0.79;fill:url(#linear-gradient-5)"
         id="rect18" />
      <path
         d="m 32.53,27.07 h 3.05 c 0.22,0 0.39,0.18 0.39,0.39 v 14 h -3.84 v -14 c 0,-0.22 0.18,-0.39 0.39,-0.39 z"
         transform="rotate(-45,34.044412,34.268343)"
         style="fill:none;stroke:#204a87;stroke-width:0.7px;stroke-miterlimit:10"
         id="path18" />
      <g
         id="g21">
        <path
           d="m 16.94,11.5 c 0,0 1.33,0.35 1.33,1.33"
           style="fill:none;stroke:#2e3436;stroke-miterlimit:10"
           id="path19" />
        <path
           d="m 19.59,20.3 c 0,0 -1.33,-0.35 -1.33,-1.33 v -6.14 c 0,-0.97 1.33,-1.33 1.33,-1.33"
           style="fill:none;stroke:#2e3436;stroke-miterlimit:10"
           id="path20" />
        <path
           d="m 16.94,20.3 c 0,0 1.33,-0.35 1.33,-1.33"
           style="fill:none;stroke:#2e3436;stroke-miterlimit:10"
           id="path21" />
        <line
           x1="16.860001"
           y1="17.15"
           x2="19.67"
           y2="17.15"
           style="fill:none;stroke:#2e3436;stroke-miterlimit:10"
           id="line21" />
      </g>
    </g>
  </g>
</svg>
