<?xml version="1.0" encoding="UTF-8" standalone="no"?>
<svg
   viewBox="0 0 48 48"
   version="1.1"
   id="svg28"
   sodipodi:docname="flatten.svg"
   inkscape:version="1.3 (0e150ed6c4, 2023-07-21)"
   xmlns:inkscape="http://www.inkscape.org/namespaces/inkscape"
   xmlns:sodipodi="http://sodipodi.sourceforge.net/DTD/sodipodi-0.dtd"
   xmlns:xlink="http://www.w3.org/1999/xlink"
   xmlns="http://www.w3.org/2000/svg"
   xmlns:svg="http://www.w3.org/2000/svg">
  <sodipodi:namedview
     id="namedview28"
     pagecolor="#ffffff"
     bordercolor="#666666"
     borderopacity="1.0"
     inkscape:showpageshadow="2"
     inkscape:pageopacity="0.0"
     inkscape:pagecheckerboard="0"
     inkscape:deskcolor="#d1d1d1"
     inkscape:zoom="16.278187"
     inkscape:cx="23.989157"
     inkscape:cy="23.989157"
     inkscape:window-width="2560"
     inkscape:window-height="1377"
     inkscape:window-x="-8"
     inkscape:window-y="-8"
     inkscape:window-maximized="1"
     inkscape:current-layer="svg28" />
  <defs
     id="defs10">
    <linearGradient
       id="linearGradient28"
       inkscape:collect="always">
      <stop
         style="stop-color:#000000;stop-opacity:0.40251571;"
         offset="0"
         id="stop28" />
      <stop
         style="stop-color:#000000;stop-opacity:0;"
         offset="1"
         id="stop29" />
    </linearGradient>
    <radialGradient
       id="radial-gradient"
       cx="-144.68"
       cy="-41.27"
       fx="-144.68"
       fy="-41.27"
       r="11.9"
       gradientTransform="matrix(1.83,0,0,0.78,289.09,70.71)"
       gradientUnits="userSpaceOnUse">
      <stop
         offset=".32"
         stop-color="#2c2c2c"
         stop-opacity=".5"
         id="stop1" />
      <stop
         offset=".73"
         stop-color="#2c2c2c"
         stop-opacity=".1"
         id="stop2" />
      <stop
         offset=".99"
         stop-color="#2c2c2c"
         stop-opacity="0"
         id="stop3" />
    </radialGradient>
    <radialGradient
       id="radial-gradient-2"
       cx="16.01"
       cy="14.9"
       fx="16.01"
       fy="14.9"
       r="24.44"
       gradientUnits="userSpaceOnUse">
      <stop
         offset="0"
         stop-color="#88b6e9"
         id="stop4" />
      <stop
         offset=".37"
         stop-color="#7297c7"
         id="stop5" />
      <stop
         offset="1"
         stop-color="#285092"
         id="stop6" />
    </radialGradient>
    <radialGradient
       id="radial-gradient-3"
       cx="33.52"
       cy="21.56"
       fx="33.52"
       fy="21.56"
       r="21.86"
       gradientTransform="matrix(1, 0, 0, 1, 0, 0)"
       gradientUnits="userSpaceOnUse">
      <stop
         offset=".72"
         stop-color="#fffdfd"
         stop-opacity="0"
         id="stop7" />
      <stop
         offset="1"
         stop-color="snow"
         stop-opacity=".8"
         id="stop8" />
    </radialGradient>
    <radialGradient
       id="radial-gradient-4"
       r="21.86"
       xlink:href="#radial-gradient-3" />
    <radialGradient
       id="radial-gradient-5"
       r="21.86"
       xlink:href="#radial-gradient-3" />
    <radialGradient
       id="radial-gradient-6"
       r="21.86"
       xlink:href="#radial-gradient-3" />
    <radialGradient
       id="radial-gradient-7"
       cx="25.81"
       cy="23.65"
       fx="25.81"
       fy="23.65"
       r="18.81"
       xlink:href="#radial-gradient-3" />
    <radialGradient
       id="radial-gradient-8"
       cx="16.32"
       cy="15.08"
       fx="16.32"
       fy="15.08"
       r="34.04"
       gradientUnits="userSpaceOnUse">
      <stop
         offset="0"
         stop-color="#c8cdc3"
         stop-opacity="0"
         id="stop9" />
      <stop
         offset="1"
         stop-color="#232729"
         id="stop10" />
    </radialGradient>
    <radialGradient
       inkscape:collect="always"
       xlink:href="#radial-gradient-3"
       id="radialGradient28"
       gradientUnits="userSpaceOnUse"
       cx="33.52"
       cy="21.56"
       fx="33.52"
       fy="21.56"
       r="21.86" />
    <radialGradient
       inkscape:collect="always"
       xlink:href="#linearGradient28"
       id="radialGradient29"
       cx="24"
       cy="38.669998"
       fx="24"
       fy="38.669998"
       r="20.950001"
       gradientTransform="matrix(1.1472154,0,0,0.42529831,-3.5331698,22.701541)"
       gradientUnits="userSpaceOnUse" />
  </defs>
  <path
     id="ellipse10"
     style="opacity:1;isolation:isolate;mix-blend-mode:multiply;fill:url(#radialGradient29);stroke-width:1"
     d="M 48.034164,39.147826 A 24.034164,8.9099998 0 0 1 24,48.057826 24.034164,8.9099998 0 0 1 -0.0341637,39.147826 24.034164,8.9099998 0 0 1 24,30.237826 a 24.034164,8.9099998 0 0 1 24.034164,8.91 z" />
  <g
     id="ART"
     style="isolation:isolate;stroke-width:0.876598"
     transform="matrix(1.1407736,0,0,1.140773,-2.6722018,-4.6377792)">
    <g
       id="g27"
       style="stroke-width:0.876598">
      <path
         d="M 42.11,31.01 C 41.73,31.98 33.32,29.63 23.32,25.76 13.43,21.94 5.7,18.06 5.88,17.03 V 17 C 9.76,6.99 21.01,2.02 31,5.89 41,9.76 45.97,21 42.1,31 Z"
         style="fill:url(#radial-gradient-2);stroke-width:0.876598"
         id="path10" />
      <path
         d="M 29.17,6.76 29.37,6.7 29.1,6.37 C 29.05,6.31 28.97,6.27 28.88,6.27 L 25.31,6.09 C 25.25,6.08 25.19,6.1 25.14,6.13 l -0.41,0.25 0.78,0.88 c 0.1,0.12 0.1,0.29 0,0.4 l -0.27,0.33 0.36,0.26 2.2,-1.38 c 0.1,-0.07 0.24,-0.06 0.34,0.01 l 0.35,0.25 c 0.06,0.05 0.11,0.12 0.12,0.2 l 0.08,0.47 c 0.03,0.15 0.16,0.25 0.31,0.25 h 0.32 c 0.14,0 0.27,0.1 0.3,0.24 l 0.6,2.57 c 0.06,0.24 -0.18,0.45 -0.41,0.36 L 29.4,11.07 c -0.1,-0.04 -0.18,-0.14 -0.19,-0.26 l -0.05,-0.43 c 0,-0.11 -0.09,-0.21 -0.19,-0.25 L 27.95,9.72 c 0,0 -0.11,-0.03 -0.17,-0.02 l -1.1,0.2 1.2,0.2 c 0.12,0.02 0.22,0.11 0.25,0.24 l 0.08,0.37 c 0.04,0.19 -0.09,0.37 -0.28,0.38 l -3.1,0.16 c -0.07,0.01 -0.13,0.03 -0.18,0.07 l -0.97,0.79 c 0,0 -0.11,0.06 -0.17,0.07 l -1.86,0.13 c 0,0 -0.08,0.02 -0.12,0.04 l -1.04,0.52 c -0.08,0.04 -0.14,0.12 -0.16,0.21 l -0.28,1.27 c -0.03,0.15 -0.16,0.25 -0.3,0.25 -0.04,0 -0.07,-0.01 -0.1,-0.02 -0.13,-0.05 -0.22,-0.17 -0.21,-0.31 l 0.08,-1.37 c 0.01,-0.13 -0.07,-0.25 -0.19,-0.3 l -1.95,-0.8 c -0.28,-0.12 -0.59,-0.1 -0.85,0.05 l -1.45,0.82 c -0.06,0.03 -0.1,0.08 -0.13,0.14 l -0.76,1.6 c -0.06,0.14 -0.02,0.31 0.11,0.39 l 0.63,0.44 c 0.1,0.07 0.24,0.07 0.34,0 l 0.92,-0.49 c 0.09,-0.06 0.21,-0.06 0.3,-0.01 l 0.17,0.08 c 0.2,0.11 0.23,0.37 0.06,0.52 l -1.06,0.73 c -0.15,0.13 -0.14,0.37 0.02,0.49 l 0.66,0.46 c 0.12,0.08 0.17,0.23 0.12,0.36 l -0.45,1.2 c -0.03,0.07 -0.03,0.14 -0.01,0.21 l 0.2,0.56 c 0.04,0.12 0.15,0.21 0.28,0.21 l 0.64,0.03 c 0.12,0 0.22,0.07 0.27,0.16 l 0.12,0.24 c 0.07,0.13 0.21,0.19 0.35,0.16 l 1.05,-0.27 c 0.23,-0.06 0.49,-0.03 0.7,0.09 l 2.83,1.56 c 0.18,0.09 0.32,0.24 0.41,0.42 l 0.79,1.64 c 0.03,0.07 0.08,0.12 0.14,0.15 l 1.51,0.75 c 0.09,0.04 0.15,0.13 0.16,0.23 l 0.24,1.4 c 0.01,0.07 0.05,0.14 0.1,0.19 L 26.61,27 c -1.07,-0.39 -2.17,-0.81 -3.29,-1.24 -2.96,-1.15 -5.72,-2.3 -8.14,-3.38 0.16,-0.24 0.4,-0.43 0.67,-0.52 l 1.07,-0.38 c 0.13,-0.05 0.21,-0.17 0.2,-0.31 l -0.04,-0.91 c -0.01,-0.13 -0.09,-0.24 -0.22,-0.28 l -0.73,-0.21 c -0.24,-0.07 -0.45,-0.24 -0.58,-0.46 -0.27,-0.45 -0.72,-1.26 -0.83,-1.71 -0.11,-0.43 -0.06,-0.89 0,-1.16 0.02,-0.14 -0.05,-0.28 -0.19,-0.34 l -1.34,-0.58 c -0.07,-0.03 -0.13,-0.09 -0.16,-0.16 l -0.7,-1.64 c -0.04,-0.09 -0.03,-0.19 0.01,-0.27 l 0.57,-0.99 c 0.05,-0.08 0.06,-0.11 0.06,-0.15 l 0.29,-1.31 0.47,-1.29 -0.8,1 -0.65,1.49 -0.02,-0.06 c -0.1,-0.23 -0.09,-0.49 0,-0.72 l 0.3,-0.73 c 0.09,-0.22 0.2,-0.42 0.34,-0.6 L 13.77,8.96 14.38,8.1 c 0.19,-0.25 0.43,-0.46 0.7,-0.6 l 4.6,-2.4 c 0,0 0.02,-0.01 0.03,-0.03 h 0.01 c 3.31,-0.77 6.86,-0.66 10.29,0.47 0.03,0.04 0.06,0.08 0.07,0.13 l 0.24,1.29 c 0.02,0.13 -0.04,0.27 -0.17,0.33 L 29.62,7.56 C 29.49,7.63 29.34,7.6 29.25,7.49 L 29.04,7.26 C 28.89,7.1 28.97,6.83 29.18,6.76 Z"
         style="fill:#f4e14f;stroke-width:0.876598"
         id="path11" />
      <path
         d="M 35.04,8.02 33.56,8.71 C 33.49,8.74 33.44,8.8 33.42,8.87 L 33.29,9.53 C 33.26,9.67 33.11,9.75 32.98,9.68 L 31.85,9.08 C 31.79,9.05 31.74,8.99 31.73,8.92 L 31.3,6.24 c -0.02,-0.08 0.01,-0.15 0.07,-0.2 1.32,0.54 2.54,1.21 3.67,1.98 z"
         style="fill:#f4e14f;stroke-width:0.876598"
         id="path12" />
      <path
         d="m 17.63,15.12 0.28,-0.06 c 0.2,-0.04 0.42,-0.01 0.6,0.09 l 0.82,0.47 c 0.15,0.09 0.28,0.21 0.37,0.35 l 0.75,1.16 -0.88,-0.27 C 19.39,16.8 19.23,16.68 19.12,16.52 l -0.6,-0.94 -0.89,-0.47 z"
         style="fill:#f4e14f;stroke-width:0.876598"
         id="path13" />
      <path
         d="m 21.02,17.68 -0.18,0.26 c -0.06,0.09 -0.01,0.22 0.1,0.25 l 1.13,0.26 -0.8,-0.8 c -0.07,-0.07 -0.19,-0.06 -0.24,0.02 z"
         style="fill:#f4e14f;stroke-width:0.876598"
         id="path14" />
      <path
         d="M 29.17,6.76 29.37,6.7 29.1,6.37 C 29.05,6.31 28.97,6.27 28.88,6.27 L 25.31,6.09 C 25.25,6.08 25.19,6.1 25.14,6.13 l -0.41,0.25 0.78,0.88 c 0.1,0.12 0.1,0.29 0,0.4 l -0.27,0.33 0.36,0.26 2.2,-1.38 c 0.1,-0.07 0.24,-0.06 0.34,0.01 l 0.35,0.25 c 0.06,0.05 0.11,0.12 0.12,0.2 l 0.08,0.47 c 0.03,0.15 0.16,0.25 0.31,0.25 h 0.32 c 0.14,0 0.27,0.1 0.3,0.24 l 0.6,2.57 c 0.06,0.24 -0.18,0.45 -0.41,0.36 L 29.4,11.07 c -0.1,-0.04 -0.18,-0.14 -0.19,-0.26 l -0.05,-0.43 c 0,-0.11 -0.09,-0.21 -0.19,-0.25 L 27.95,9.72 c 0,0 -0.11,-0.03 -0.17,-0.02 l -1.1,0.2 1.2,0.2 c 0.12,0.02 0.22,0.11 0.25,0.24 l 0.08,0.37 c 0.04,0.19 -0.09,0.37 -0.28,0.38 l -3.1,0.16 c -0.07,0.01 -0.13,0.03 -0.18,0.07 l -0.97,0.79 c 0,0 -0.11,0.06 -0.17,0.07 l -1.86,0.13 c 0,0 -0.08,0.02 -0.12,0.04 l -1.04,0.52 c -0.08,0.04 -0.14,0.12 -0.16,0.21 l -0.28,1.27 c -0.03,0.15 -0.16,0.25 -0.3,0.25 -0.04,0 -0.07,-0.01 -0.1,-0.02 -0.13,-0.05 -0.22,-0.17 -0.21,-0.31 l 0.08,-1.37 c 0.01,-0.13 -0.07,-0.25 -0.19,-0.3 l -1.95,-0.8 c -0.28,-0.12 -0.59,-0.1 -0.85,0.05 l -1.45,0.82 c -0.06,0.03 -0.1,0.08 -0.13,0.14 l -0.76,1.6 c -0.06,0.14 -0.02,0.31 0.11,0.39 l 0.63,0.44 c 0.1,0.07 0.24,0.07 0.34,0 l 0.92,-0.49 c 0.09,-0.06 0.21,-0.06 0.3,-0.01 l 0.17,0.08 c 0.2,0.11 0.23,0.37 0.06,0.52 l -1.06,0.73 c -0.15,0.13 -0.14,0.37 0.02,0.49 l 0.66,0.46 c 0.12,0.08 0.17,0.23 0.12,0.36 l -0.45,1.2 c -0.03,0.07 -0.03,0.14 -0.01,0.21 l 0.2,0.56 c 0.04,0.12 0.15,0.21 0.28,0.21 l 0.64,0.03 c 0.12,0 0.22,0.07 0.27,0.16 l 0.12,0.24 c 0.07,0.13 0.21,0.19 0.35,0.16 l 1.05,-0.27 c 0.23,-0.06 0.49,-0.03 0.7,0.09 l 2.83,1.56 c 0.18,0.09 0.32,0.24 0.41,0.42 l 0.79,1.64 c 0.03,0.07 0.08,0.12 0.14,0.15 l 1.51,0.75 c 0.09,0.04 0.15,0.13 0.16,0.23 l 0.24,1.4 c 0.01,0.07 0.05,0.14 0.1,0.19 L 26.61,27 c -1.07,-0.39 -2.17,-0.81 -3.29,-1.24 -2.96,-1.15 -5.72,-2.3 -8.14,-3.38 0.16,-0.24 0.4,-0.43 0.67,-0.52 l 1.07,-0.38 c 0.13,-0.05 0.21,-0.17 0.2,-0.31 l -0.04,-0.91 c -0.01,-0.13 -0.09,-0.24 -0.22,-0.28 l -0.73,-0.21 c -0.24,-0.07 -0.45,-0.24 -0.58,-0.46 -0.27,-0.45 -0.72,-1.26 -0.83,-1.71 -0.11,-0.43 -0.06,-0.89 0,-1.16 0.02,-0.14 -0.05,-0.28 -0.19,-0.34 l -1.34,-0.58 c -0.07,-0.03 -0.13,-0.09 -0.16,-0.16 l -0.7,-1.64 c -0.04,-0.09 -0.03,-0.19 0.01,-0.27 l 0.57,-0.99 c 0.05,-0.08 0.06,-0.11 0.06,-0.15 l 0.29,-1.31 0.47,-1.29 -0.8,1 -0.65,1.49 -0.02,-0.06 c -0.1,-0.23 -0.09,-0.49 0,-0.72 l 0.3,-0.73 c 0.09,-0.22 0.2,-0.42 0.34,-0.6 L 13.77,8.96 14.38,8.1 c 0.19,-0.25 0.43,-0.46 0.7,-0.6 l 4.6,-2.4 c 0,0 0.02,-0.01 0.03,-0.03 h 0.01 c 3.31,-0.77 6.86,-0.66 10.29,0.47 0.03,0.04 0.06,0.08 0.07,0.13 l 0.24,1.29 c 0.02,0.13 -0.04,0.27 -0.17,0.33 L 29.62,7.56 C 29.49,7.63 29.34,7.6 29.25,7.49 L 29.04,7.26 C 28.89,7.1 28.97,6.83 29.18,6.76 Z"
         style="fill:url(#radialGradient28);stroke-width:0.876598"
         id="path15" />
      <path
         d="M 35.04,8.02 33.56,8.71 C 33.49,8.74 33.44,8.8 33.42,8.87 L 33.29,9.53 C 33.26,9.67 33.11,9.75 32.98,9.68 L 31.85,9.08 C 31.79,9.05 31.74,8.99 31.73,8.92 L 31.3,6.24 c -0.02,-0.08 0.01,-0.15 0.07,-0.2 1.32,0.54 2.54,1.21 3.67,1.98 z"
         style="fill:url(#radial-gradient-4);stroke-width:0.876598"
         id="path16" />
      <path
         d="m 17.63,15.12 0.28,-0.06 c 0.2,-0.04 0.42,-0.01 0.6,0.09 l 0.82,0.47 c 0.15,0.09 0.28,0.21 0.37,0.35 l 0.75,1.16 -0.88,-0.27 C 19.39,16.8 19.23,16.68 19.12,16.52 l -0.6,-0.94 -0.89,-0.47 z"
         style="fill:url(#radial-gradient-5);stroke-width:0.876598"
         id="path17" />
      <path
         d="m 21.02,17.68 -0.18,0.26 c -0.06,0.09 -0.01,0.22 0.1,0.25 l 1.13,0.26 -0.8,-0.8 c -0.07,-0.07 -0.19,-0.06 -0.24,0.02 z"
         style="fill:url(#radial-gradient-6);stroke-width:0.876598"
         id="path18" />
      <g
         id="g21"
         style="stroke-width:0.876598">
        <path
           d="M 5.89,16.99 C 5.71,17.46 5.55,17.93 5.4,18.41"
           style="fill:none;stroke:#e72929;stroke-width:0.613619px;stroke-miterlimit:10"
           id="path19" />
        <path
           d="M 4.92,20.39 C 3.2,29.42 8.11,38.67 17,42.11 c 9.21,3.56 19.47,-0.37 24.06,-8.82"
           style="fill:none;stroke:#e72929;stroke-width:0.613619px;stroke-miterlimit:10;stroke-dasharray:0, 0, 2.67362, 1.77949"
           id="path20" />
        <path
           d="M 41.51,32.38 C 41.72,31.93 41.92,31.47 42.1,31"
           style="fill:none;stroke:#e72929;stroke-width:0.613619px;stroke-miterlimit:10"
           id="path21" />
      </g>
      <g
         id="g26"
         style="stroke-width:0.876598">
        <path
           d="m 42.11,31.01 c -0.09,0.23 -0.62,0.27 -1.52,0.14 0.04,-0.18 0.07,-0.32 0.08,-0.39 0.01,-0.05 0.03,-0.09 0.05,-0.13 l 1.16,-1.69 c 0.09,-0.13 0.08,-0.3 -0.04,-0.41 L 41.51,28.2 C 41.36,28.05 41.11,28.09 41,28.27 l -0.75,1.27 c -0.06,0.11 -0.18,0.17 -0.3,0.16 -0.32,-0.02 -0.97,-0.07 -1.57,-0.17 -0.34,-0.05 -0.63,-0.28 -0.77,-0.6 l -0.79,-1.81 c -0.11,-0.25 -0.11,-0.54 0,-0.8 l 1.7,-4.08 c 0.07,-0.16 0.18,-0.3 0.32,-0.41 l 0.55,-0.43 0.16,-0.91 c 0.02,-0.1 0.05,-0.2 0.1,-0.29 l 0.44,-0.86 -0.5,-0.89 c 0,0 -0.03,-0.09 -0.03,-0.14 l -0.02,-1.5 c 0,-0.16 0.13,-0.29 0.29,-0.29 h 0.05 c 0.23,0 0.37,-0.25 0.24,-0.44 l -0.49,-0.79 c -0.09,-0.14 -0.04,-0.34 0.12,-0.41 l 0.36,-0.16 0.02,-1.52 c 3.39,5.08 4.35,11.68 1.98,17.81 z"
           style="fill:#f4e14f;stroke-width:0.876598"
           id="path22" />
        <path
           d="m 9.58,11.06 c -1.55,1.74 -2.82,3.78 -3.69,6.09 -0.2,0.55 2.19,2.01 6.11,3.86 0.19,-1.43 0.55,-2.86 1.07,-4.26 2.34,-6.21 7.53,-10.52 13.52,-12 -0.07,0 -0.14,-0.02 -0.21,-0.03 C 26.18,4.69 25.98,4.67 25.77,4.66 25.53,4.64 25.28,4.62 25.04,4.61 24.83,4.6 24.62,4.59 24.41,4.59 c -0.28,0 -0.56,0 -0.84,0 -0.24,0 -0.48,0.02 -0.73,0.03 -0.23,0.02 -0.46,0.03 -0.69,0.06 -0.04,0 -0.07,0 -0.1,0.01 -0.15,0.01 -0.3,0.03 -0.45,0.05 -0.1,0.01 -0.21,0.03 -0.31,0.04 -0.2,0.03 -0.4,0.06 -0.6,0.1 -0.24,0.04 -0.47,0.09 -0.71,0.14 h -0.01 c -0.2,0.05 -0.4,0.09 -0.6,0.14 C 19.29,5.18 19.2,5.2 19.12,5.22 18.97,5.26 18.83,5.3 18.69,5.34 18.63,5.36 18.57,5.37 18.52,5.39 18.31,5.45 18.11,5.52 17.9,5.59 17.67,5.67 17.45,5.74 17.22,5.83 17,5.91 16.77,6 16.55,6.09 c -0.21,0.09 -0.43,0.18 -0.64,0.28 -0.02,0 -0.03,0.02 -0.04,0.02 -0.2,0.09 -0.4,0.19 -0.59,0.29 -0.02,0 -0.03,0.01 -0.04,0.02 -0.21,0.1 -0.42,0.22 -0.62,0.33 -0.25,0.14 -0.49,0.28 -0.72,0.42 -0.15,0.09 -0.3,0.19 -0.45,0.28 -0.06,0.03 -0.11,0.07 -0.16,0.11 -0.12,0.08 -0.23,0.15 -0.34,0.23 -0.08,0.05 -0.15,0.1 -0.23,0.16 -0.17,0.12 -0.34,0.25 -0.5,0.37 -0.18,0.14 -0.35,0.27 -0.52,0.41 -0.09,0.08 -0.19,0.16 -0.28,0.23 -0.08,0.07 -0.17,0.14 -0.25,0.21 -0.06,0.05 -0.11,0.1 -0.16,0.15 -0.13,0.11 -0.25,0.23 -0.37,0.35 -0.04,0.03 -0.08,0.07 -0.12,0.11 -0.16,0.15 -0.31,0.3 -0.46,0.46 -0.17,0.17 -0.34,0.35 -0.5,0.53 z"
           style="fill:url(#radial-gradient-7);stroke-width:0.876598"
           id="path23" />
        <path
           d="M 42.11,31.01 C 41.73,31.98 33.32,29.63 23.32,25.76 13.43,21.94 5.7,18.06 5.88,17.03 V 17 C 9.76,6.99 21.01,2.02 31,5.89 41,9.76 45.97,21 42.1,31 Z"
           style="fill:none;stroke-width:0.876598"
           id="path24" />
        <path
           d="m 39.05,14.37 c 0.11,0.1 0.25,0.16 0.39,0.16 l 0.39,-0.09 -1.21,-1.84 c -0.18,-0.27 -0.59,-0.2 -0.67,0.12 l -0.07,0.29 c -0.03,0.13 0,0.26 0.1,0.35 l 1.06,1.02 z"
           style="fill:#f4e14f;stroke-width:0.876598"
           id="path25" />
        <path
           d="m 43.42,24 c 0,2.33 -0.42,4.7 -1.31,7 -0.21,0.54 -2.97,0.04 -7.13,-1.2 0,0 1.18,-2.44 1.72,-3.84 2.4,-6.19 1.72,-12.91 -1.75,-18.01 0.06,0.04 0.12,0.08 0.17,0.12 0.17,0.12 0.33,0.23 0.5,0.36 0.2,0.15 0.39,0.29 0.58,0.45 0.16,0.13 0.32,0.26 0.48,0.4 0.21,0.18 0.42,0.37 0.62,0.56 0.18,0.16 0.35,0.34 0.52,0.51 0.16,0.16 0.32,0.33 0.47,0.5 0.03,0.03 0.05,0.05 0.07,0.08 0.1,0.11 0.2,0.22 0.3,0.34 0.07,0.08 0.14,0.16 0.2,0.24 0.13,0.16 0.26,0.31 0.38,0.47 0.15,0.19 0.29,0.38 0.44,0.57 v 0 c 0.12,0.18 0.23,0.34 0.35,0.51 0.05,0.07 0.1,0.14 0.14,0.21 0.09,0.13 0.16,0.25 0.24,0.38 0.03,0.05 0.07,0.1 0.1,0.15 0.12,0.19 0.22,0.37 0.33,0.56 0.12,0.21 0.23,0.42 0.34,0.63 0.11,0.21 0.22,0.42 0.32,0.64 0.1,0.21 0.2,0.42 0.29,0.63 0,0.02 0.01,0.03 0.02,0.04 0.09,0.2 0.17,0.41 0.25,0.61 0,0.01 0.01,0.03 0.01,0.04 0.09,0.22 0.17,0.44 0.25,0.66 0.09,0.26 0.18,0.53 0.26,0.8 0.05,0.17 0.1,0.34 0.15,0.51 0.02,0.06 0.03,0.13 0.05,0.19 0.04,0.13 0.07,0.27 0.1,0.4 0.02,0.09 0.04,0.18 0.06,0.27 0.04,0.2 0.09,0.41 0.13,0.61 0.04,0.22 0.08,0.44 0.11,0.66 0.02,0.12 0.04,0.24 0.05,0.36 0.01,0.11 0.03,0.22 0.04,0.32 0.01,0.07 0.02,0.15 0.02,0.22 0.02,0.17 0.04,0.34 0.05,0.51 0,0.05 0.01,0.11 0.01,0.16 0.02,0.22 0.03,0.43 0.04,0.65 0.01,0.24 0.01,0.49 0.01,0.73 z"
           style="mix-blend-mode:multiply;fill:url(#radial-gradient-8);stroke-width:0.876598"
           id="path26" />
      </g>
      <path
         d="M 42.11,31.01 C 41.73,31.98 33.32,29.63 23.32,25.76 13.43,21.94 5.7,18.06 5.88,17.03 V 17 C 9.76,6.99 21.01,2.02 31,5.89 41,9.76 45.97,21 42.1,31 Z"
         style="fill:none;stroke:#285092;stroke-width:0.613619px;stroke-linecap:round;stroke-linejoin:round"
         id="path27" />
    </g>
  </g>
</svg>
