<?xml version="1.0" encoding="UTF-8" standalone="no"?>
<!-- Created with Inkscape (http://www.inkscape.org/) -->

<svg
   width="10.839592mm"
   height="11.716766mm"
   viewBox="0 0 10.839592 11.716766"
   version="1.1"
   id="svg5"
   xml:space="preserve"
   xmlns:inkscape="http://www.inkscape.org/namespaces/inkscape"
   xmlns:sodipodi="http://sodipodi.sourceforge.net/DTD/sodipodi-0.dtd"
   xmlns:xlink="http://www.w3.org/1999/xlink"
   xmlns="http://www.w3.org/2000/svg"
   xmlns:svg="http://www.w3.org/2000/svg"
   xmlns:i="http://ns.adobe.com/AdobeIllustrator/10.0/"><sodipodi:namedview
     id="namedview7"
     pagecolor="#ffffff"
     bordercolor="#666666"
     borderopacity="1.0"
     inkscape:showpageshadow="2"
     inkscape:pageopacity="0.0"
     inkscape:pagecheckerboard="0"
     inkscape:deskcolor="#d1d1d1"
     inkscape:document-units="mm"
     showgrid="false" /><defs
     id="defs2"><linearGradient
       id="linearGradient3413"
       x1="36.630001"
       y1="29.969999"
       x2="11.49"
       y2="42.279999"
       gradientUnits="userSpaceOnUse"><stop
         offset="0"
         stop-color="#900004"
         id="stop3409"
         style="stop-color:#57a40a;stop-opacity:1;" /><stop
         offset="1"
         stop-color="#900004"
         stop-opacity="0"
         id="stop3411"
         style="stop-color:#a6eb26;stop-opacity:1;" /></linearGradient><style
       id="style19125">.cls-1{fill:url(#linear-gradient);}.cls-2{fill:url(#linear-gradient-2);}.cls-11,.cls-12,.cls-13,.cls-14,.cls-15,.cls-16,.cls-17,.cls-20,.cls-25,.cls-26,.cls-3,.cls-32{fill:none;}.cls-3{stroke:#757772;}.cls-20,.cls-3,.cls-32{stroke-linecap:round;stroke-linejoin:round;}.cls-20,.cls-25,.cls-3,.cls-32{stroke-width:0.7px;}.cls-4{fill:url(#radial-gradient);}.cls-5{mask:url(#mask);}.cls-6{fill:url(#New_Gradient_Swatch_14);}.cls-7{fill:url(#radial-gradient-2);}.cls-8{fill:url(#radial-gradient-4);}.cls-9{fill:url(#radial-gradient-5);}.cls-10{fill:url(#radial-gradient-6);}.cls-11,.cls-12,.cls-13,.cls-14,.cls-15,.cls-16,.cls-17,.cls-25,.cls-26{stroke-miterlimit:10;}.cls-11,.cls-12,.cls-13,.cls-14,.cls-15,.cls-16,.cls-17{stroke-width:0.35px;}.cls-11{stroke:url(#linear-gradient-3);}.cls-12{stroke:url(#linear-gradient-4);}.cls-13{stroke:url(#linear-gradient-5);}.cls-14{stroke:url(#linear-gradient-6);}.cls-15{stroke:url(#linear-gradient-7);}.cls-16{stroke:url(#linear-gradient-8);}.cls-17{stroke:url(#linear-gradient-9);}.cls-18{fill:#900004;}.cls-19{fill:url(#linear-gradient-10);}.cls-20{stroke:#900004;}.cls-21{fill:url(#linear-gradient-11);}.cls-22{fill:url(#linear-gradient-12);}.cls-23{fill:url(#linear-gradient-13);}.cls-24{fill:url(#radial-gradient-7);}.cls-25{stroke:#663e04;}.cls-26{stroke:#8f5902;stroke-width:1.4px;}.cls-27{fill:#c17d11;}.cls-28{fill:url(#linear-gradient-14);}.cls-29{fill:url(#linear-gradient-15);}.cls-30{fill:url(#linear-gradient-16);}.cls-31{fill:url(#linear-gradient-17);}.cls-32{stroke:#f587a5;}</style><linearGradient
       id="linear-gradient"
       x1="31.5"
       y1="32.240002"
       x2="37.77"
       y2="30.26"
       gradientUnits="userSpaceOnUse"><stop
         offset="0"
         stop-color="#fff"
         id="stop19127" /><stop
         offset="1"
         id="stop19129" /></linearGradient><linearGradient
       id="linear-gradient-2"
       x1="35.889999"
       y1="36.799999"
       x2="35.759998"
       y2="33.869999"
       gradientUnits="userSpaceOnUse"><stop
         offset="0.36"
         stop-color="#abafa6"
         id="stop19132" /><stop
         offset="0.85"
         stop-color="#e9e9e6"
         id="stop19134" /></linearGradient><radialGradient
       id="radial-gradient-2"
       cx="35.099998"
       cy="36.860001"
       r="16.75"
       gradientTransform="matrix(1,0.01,0,0.41,-10.66,17.5)"
       gradientUnits="userSpaceOnUse"><stop
         offset="0.41"
         stop-color="#fff"
         stop-opacity="0"
         id="stop19160" /><stop
         offset="1"
         stop-color="#fff8f8"
         id="stop19162" /></radialGradient><radialGradient
       id="radial-gradient-4"
       cx="7.1399999"
       cy="36.169998"
       r="1.3"
       gradientTransform="matrix(0.6559273,-0.75482407,0.30947787,0.26893019,-8.86,31.72)"
       gradientUnits="userSpaceOnUse"><stop
         offset="0.41"
         stop-color="#900004"
         stop-opacity="0"
         id="stop19165" /><stop
         offset="1"
         stop-color="#900004"
         id="stop19167" /></radialGradient><radialGradient
       id="radial-gradient-5"
       cx="17.049999"
       cy="39.810001"
       r="4.7199998"
       gradientTransform="matrix(0.6559273,-0.75482407,0.30947787,0.26893019,-6.59,41.85)"
       xlink:href="#radial-gradient-4" /><radialGradient
       id="radial-gradient-6"
       cx="31.98"
       cy="40.189999"
       r="1.11"
       gradientTransform="matrix(0.6559273,-0.75482407,0.30947787,0.26893019,-1.57,53.4)"
       xlink:href="#radial-gradient-4" /><linearGradient
       id="linear-gradient-10"
       x1="-104.87"
       y1="205.02"
       x2="-104.87"
       y2="202.72"
       gradientTransform="translate(112.03,-168.36)"
       xlink:href="#linear-gradient-2" /><linearGradient
       id="linear-gradient-13"
       x1="42.099998"
       y1="29.75"
       x2="38.959999"
       y2="31.559999"
       gradientUnits="userSpaceOnUse"
       gradientTransform="matrix(0.28004158,0,0,0.28002023,98.00573,185.0875)"><stop
         offset="0"
         stop-color="#e9b96e"
         id="stop19204" /><stop
         offset="1"
         stop-color="#663e04"
         id="stop19206" /></linearGradient><radialGradient
       id="radial-gradient-7"
       cx="37.380001"
       cy="36.639999"
       r="5.5900002"
       gradientUnits="userSpaceOnUse"
       gradientTransform="matrix(0.28004158,0,0,0.28002023,98.00573,185.0875)"><stop
         offset="0.50999999"
         stop-color="#cb1b41"
         id="stop19209"
         style="stop-color:#87cb09;stop-opacity:1;" /><stop
         offset="0.81999999"
         stop-color="#f47b9c"
         id="stop19211"
         style="stop-color:#74b309;stop-opacity:1;" /><stop
         offset="0.94999999"
         stop-color="#f582a1"
         id="stop19213"
         style="stop-color:#a5ea25;stop-opacity:1;" /><stop
         offset="1"
         stop-color="#f587a5"
         id="stop19215"
         style="stop-color:#74b309;stop-opacity:1;" /></radialGradient><linearGradient
       id="linear-gradient-14"
       x1="34.52"
       y1="25.57"
       x2="29.68"
       y2="10.91"
       gradientUnits="userSpaceOnUse"
       gradientTransform="matrix(0.28004158,0,0,0.28002023,98.00573,185.0875)"><stop
         offset="0"
         stop-color="#8f5902"
         stop-opacity="0.5"
         id="stop19218" /><stop
         offset="0.13"
         stop-color="#8f5902"
         stop-opacity="0.4"
         id="stop19220" /><stop
         offset="0.47"
         stop-color="#8f5902"
         stop-opacity="0.18"
         id="stop19222" /><stop
         offset="0.75"
         stop-color="#8f5902"
         stop-opacity="0.05"
         id="stop19224" /><stop
         offset="0.95"
         stop-color="#8f5902"
         stop-opacity="0"
         id="stop19226" /></linearGradient><linearGradient
       id="linear-gradient-15"
       x1="33.380001"
       y1="27.200001"
       x2="37.630001"
       y2="24.84"
       gradientUnits="userSpaceOnUse"><stop
         offset="0"
         stop-color="#555753"
         id="stop19229" /><stop
         offset="1"
         stop-color="#d3d7cf"
         id="stop19231" /></linearGradient><linearGradient
       id="linear-gradient-16"
       x1="22.389999"
       y1="7.4099998"
       x2="26.639999"
       y2="5.0500002"
       xlink:href="#linear-gradient-15"
       gradientTransform="matrix(0.28004158,0,0,0.28002023,98.123713,185.20548)" /><linearGradient
       id="linear-gradient-17"
       x1="28.629999"
       y1="16.77"
       x2="32.689999"
       y2="13.75"
       gradientUnits="userSpaceOnUse"
       gradientTransform="matrix(0.28004158,0,0,0.28002023,98.00573,185.0875)"><stop
         offset="0"
         stop-color="#fff"
         stop-opacity="0"
         id="stop19235" /><stop
         offset="1"
         stop-color="#fff8f8"
         id="stop19237" /></linearGradient><linearGradient
       inkscape:collect="always"
       xlink:href="#linear-gradient-2"
       id="linearGradient19392"
       gradientUnits="userSpaceOnUse"
       x1="35.889999"
       y1="36.799999"
       x2="35.759998"
       y2="33.869999"
       gradientTransform="matrix(0.28004158,0,0,0.28002023,95.567436,189.02023)" /><radialGradient
       inkscape:collect="always"
       xlink:href="#radial-gradient-2"
       id="radialGradient19394"
       gradientUnits="userSpaceOnUse"
       gradientTransform="matrix(1,0.01,0,0.41,-10.66,17.5)"
       cx="35.099998"
       cy="36.860001"
       r="16.75" /><radialGradient
       inkscape:collect="always"
       xlink:href="#radial-gradient-2"
       id="radialGradient19396"
       gradientUnits="userSpaceOnUse"
       gradientTransform="matrix(1,0.01,0,0.41,-10.66,17.5)"
       cx="35.099998"
       cy="36.860001"
       r="16.75" /><radialGradient
       inkscape:collect="always"
       xlink:href="#radial-gradient-4"
       id="radialGradient19398"
       gradientUnits="userSpaceOnUse"
       gradientTransform="matrix(0.6559273,-0.75482407,0.30947787,0.26893019,-8.86,31.72)"
       cx="7.1399999"
       cy="36.169998"
       r="1.3" /><linearGradient
       inkscape:collect="always"
       xlink:href="#linearGradient3413"
       id="linearGradient19402"
       gradientUnits="userSpaceOnUse"
       x1="36.630001"
       y1="29.969999"
       x2="11.49"
       y2="42.279999" /><linearGradient
       inkscape:collect="always"
       xlink:href="#linear-gradient-15"
       id="linearGradient19404"
       gradientUnits="userSpaceOnUse"
       x1="33.380001"
       y1="27.200001"
       x2="37.630001"
       y2="24.84"
       gradientTransform="matrix(0.28004158,0,0,0.28002023,98.00573,185.0875)" /><mask
       maskUnits="userSpaceOnUse"
       id="mask706"><g
         id="g710"
         transform="matrix(3.5708983,0,0,3.5711706,-341.26159,-675.02348)"><rect
           class="cls-1"
           x="96.525177"
           y="195.99553"
           width="11.089646"
           height="5.5724025"
           id="rect708"
           style="fill:url(#linearGradient712);stroke-width:0.280031" /></g></mask><linearGradient
       inkscape:collect="always"
       xlink:href="#linear-gradient"
       id="linearGradient712"
       gradientUnits="userSpaceOnUse"
       gradientTransform="matrix(0.28004158,0,0,0.28002023,95.567436,189.02023)"
       x1="31.5"
       y1="32.240002"
       x2="37.77"
       y2="30.26" /><mask
       maskUnits="userSpaceOnUse"
       id="mask714"><g
         id="g718"
         transform="matrix(3.5708983,0,0,3.5711706,-341.26159,-675.02348)"><rect
           class="cls-1"
           x="96.525177"
           y="195.99553"
           width="11.089646"
           height="5.5724025"
           id="rect716"
           style="fill:url(#linearGradient720);stroke-width:0.280031" /></g></mask><linearGradient
       inkscape:collect="always"
       xlink:href="#linear-gradient"
       id="linearGradient720"
       gradientUnits="userSpaceOnUse"
       gradientTransform="matrix(0.28004158,0,0,0.28002023,95.567436,189.02023)"
       x1="31.5"
       y1="32.240002"
       x2="37.77"
       y2="30.26" /><mask
       maskUnits="userSpaceOnUse"
       id="mask722"><g
         id="g726"
         transform="matrix(3.5708983,0,0,3.5711706,-341.26159,-675.02348)"><rect
           class="cls-1"
           x="96.525177"
           y="195.99553"
           width="11.089646"
           height="5.5724025"
           id="rect724"
           style="fill:url(#linearGradient728);stroke-width:0.280031" /></g></mask><linearGradient
       inkscape:collect="always"
       xlink:href="#linear-gradient"
       id="linearGradient728"
       gradientUnits="userSpaceOnUse"
       gradientTransform="matrix(0.28004158,0,0,0.28002023,95.567436,189.02023)"
       x1="31.5"
       y1="32.240002"
       x2="37.77"
       y2="30.26" /><mask
       maskUnits="userSpaceOnUse"
       id="mask730"><g
         id="g734"
         transform="matrix(3.5708983,0,0,3.5711706,-341.26159,-675.02348)"><rect
           class="cls-1"
           x="96.525177"
           y="195.99553"
           width="11.089646"
           height="5.5724025"
           id="rect732"
           style="fill:url(#linearGradient736);stroke-width:0.280031" /></g></mask><linearGradient
       inkscape:collect="always"
       xlink:href="#linear-gradient"
       id="linearGradient736"
       gradientUnits="userSpaceOnUse"
       gradientTransform="matrix(0.28004158,0,0,0.28002023,95.567436,189.02023)"
       x1="31.5"
       y1="32.240002"
       x2="37.77"
       y2="30.26" /><mask
       maskUnits="userSpaceOnUse"
       id="mask738"><g
         id="g742"
         transform="matrix(3.5708983,0,0,3.5711706,-341.26159,-675.02348)"><rect
           class="cls-1"
           x="96.525177"
           y="195.99553"
           width="11.089646"
           height="5.5724025"
           id="rect740"
           style="fill:url(#linearGradient744);stroke-width:0.280031" /></g></mask><linearGradient
       inkscape:collect="always"
       xlink:href="#linear-gradient"
       id="linearGradient744"
       gradientUnits="userSpaceOnUse"
       gradientTransform="matrix(0.28004158,0,0,0.28002023,95.567436,189.02023)"
       x1="31.5"
       y1="32.240002"
       x2="37.77"
       y2="30.26" /><mask
       maskUnits="userSpaceOnUse"
       id="mask802"><g
         id="g806"
         transform="matrix(3.5708983,0,0,3.5711706,-341.26159,-675.02348)"><rect
           class="cls-1"
           x="96.525177"
           y="195.99553"
           width="11.089646"
           height="5.5724025"
           id="rect804"
           style="fill:url(#linearGradient808);stroke-width:0.280031" /></g></mask><linearGradient
       inkscape:collect="always"
       xlink:href="#linear-gradient"
       id="linearGradient808"
       gradientUnits="userSpaceOnUse"
       gradientTransform="matrix(0.28004158,0,0,0.28002023,95.567436,189.02023)"
       x1="31.5"
       y1="32.240002"
       x2="37.77"
       y2="30.26" /><mask
       maskUnits="userSpaceOnUse"
       id="mask810"><g
         id="g814"
         transform="matrix(3.5708983,0,0,3.5711706,-341.26159,-675.02348)"><rect
           class="cls-1"
           x="96.525177"
           y="195.99553"
           width="11.089646"
           height="5.5724025"
           id="rect812"
           style="fill:url(#linearGradient816);stroke-width:0.280031" /></g></mask><linearGradient
       inkscape:collect="always"
       xlink:href="#linear-gradient"
       id="linearGradient816"
       gradientUnits="userSpaceOnUse"
       gradientTransform="matrix(0.28004158,0,0,0.28002023,95.567436,189.02023)"
       x1="31.5"
       y1="32.240002"
       x2="37.77"
       y2="30.26" /><mask
       maskUnits="userSpaceOnUse"
       id="mask818"><g
         id="g822"
         transform="matrix(3.5708983,0,0,3.5711706,-341.26159,-675.02348)"><rect
           class="cls-1"
           x="96.525177"
           y="195.99553"
           width="11.089646"
           height="5.5724025"
           id="rect820"
           style="fill:url(#linearGradient824);stroke-width:0.280031" /></g></mask><linearGradient
       inkscape:collect="always"
       xlink:href="#linear-gradient"
       id="linearGradient824"
       gradientUnits="userSpaceOnUse"
       gradientTransform="matrix(0.28004158,0,0,0.28002023,95.567436,189.02023)"
       x1="31.5"
       y1="32.240002"
       x2="37.77"
       y2="30.26" /><mask
       maskUnits="userSpaceOnUse"
       id="mask826"><g
         id="g830"
         transform="matrix(3.5708983,0,0,3.5711706,-341.26159,-675.02348)"><rect
           class="cls-1"
           x="96.525177"
           y="195.99553"
           width="11.089646"
           height="5.5724025"
           id="rect828"
           style="fill:url(#linearGradient832);stroke-width:0.280031" /></g></mask><linearGradient
       inkscape:collect="always"
       xlink:href="#linear-gradient"
       id="linearGradient832"
       gradientUnits="userSpaceOnUse"
       gradientTransform="matrix(0.28004158,0,0,0.28002023,95.567436,189.02023)"
       x1="31.5"
       y1="32.240002"
       x2="37.77"
       y2="30.26" /><mask
       maskUnits="userSpaceOnUse"
       id="mask834"><g
         id="g838"
         transform="matrix(3.5708983,0,0,3.5711706,-341.26159,-675.02348)"><rect
           class="cls-1"
           x="96.525177"
           y="195.99553"
           width="11.089646"
           height="5.5724025"
           id="rect836"
           style="fill:url(#linearGradient840);stroke-width:0.280031" /></g></mask><linearGradient
       inkscape:collect="always"
       xlink:href="#linear-gradient"
       id="linearGradient840"
       gradientUnits="userSpaceOnUse"
       gradientTransform="matrix(0.28004158,0,0,0.28002023,95.567436,189.02023)"
       x1="31.5"
       y1="32.240002"
       x2="37.77"
       y2="30.26" /><mask
       maskUnits="userSpaceOnUse"
       id="mask842"><g
         id="g846"
         transform="matrix(3.5708983,0,0,3.5711706,-341.26159,-675.02348)"><rect
           class="cls-1"
           x="96.525177"
           y="195.99553"
           width="11.089646"
           height="5.5724025"
           id="rect844"
           style="fill:url(#linearGradient848);stroke-width:0.280031" /></g></mask><linearGradient
       inkscape:collect="always"
       xlink:href="#linear-gradient"
       id="linearGradient848"
       gradientUnits="userSpaceOnUse"
       gradientTransform="matrix(0.28004158,0,0,0.28002023,95.567436,189.02023)"
       x1="31.5"
       y1="32.240002"
       x2="37.77"
       y2="30.26" /></defs><g
     inkscape:label="Layer 1"
     inkscape:groupmode="layer"
     id="layer1"
     transform="translate(-93.212191,-190.74078)"><g
       id="g9018"
       transform="translate(-4.9552436,0.55058264)"><line
         class="cls-32"
         x1="104.35794"
         y1="196.19435"
         x2="103.94908"
         y2="196.19435"
         id="line19306"
         style="stroke:#a1e622;stroke-width:0.3;stroke-dasharray:none;stroke-opacity:1" /><line
         class="cls-32"
         x1="103.33859"
         y1="196.19435"
         x2="102.92693"
         y2="196.19435"
         id="line19308"
         style="stroke:#98dc19;stroke-width:0.3;stroke-dasharray:none;stroke-opacity:1" /><line
         class="cls-32"
         x1="103.64104"
         y1="197.09322"
         x2="103.64104"
         y2="196.50237"
         id="line19310"
         style="stroke:#a1e622;stroke-width:0.3;stroke-dasharray:none;stroke-opacity:1" /><line
         class="cls-32"
         x1="103.64104"
         y1="195.88913"
         x2="103.64104"
         y2="195.30109"
         id="line19312"
         style="stroke:#a1e622;stroke-width:0.3;stroke-dasharray:none;stroke-opacity:1" /><line
         class="cls-32"
         x1="102.6973"
         y1="194.17821"
         x2="102.47046"
         y2="194.17821"
         id="line19314"
         style="stroke:#98dd19;stroke-width:0.3;stroke-dasharray:none;stroke-opacity:1" /><line
         class="cls-32"
         x1="101.89918"
         y1="194.17821"
         x2="101.67234"
         y2="194.17821"
         id="line19316"
         style="stroke:#93d714;stroke-width:0.3;stroke-dasharray:none;stroke-opacity:1" /><line
         class="cls-32"
         x1="102.18201"
         y1="194.82225"
         x2="102.18201"
         y2="194.46663"
         id="line19318"
         style="stroke:#93d714;stroke-width:0.3;stroke-dasharray:none;stroke-opacity:1" /><line
         class="cls-32"
         x1="102.18201"
         y1="193.88979"
         x2="102.18201"
         y2="193.53696"
         id="line19320"
         style="stroke:#93d714;stroke-width:0.3;stroke-dasharray:none;stroke-opacity:1" /><line
         class="cls-32"
         x1="100.16852"
         y1="195.07426"
         x2="100.0397"
         y2="195.07426"
         id="line19322"
         style="stroke:#89cb09;stroke-width:0.2;stroke-dasharray:none;stroke-opacity:1" /><line
         class="cls-32"
         x1="99.706451"
         y1="195.07426"
         x2="99.574829"
         y2="195.07426"
         id="line19324"
         style="stroke:#89cb09;stroke-width:0.2;stroke-dasharray:none;stroke-opacity:1" /><line
         class="cls-32"
         x1="99.871674"
         y1="195.44949"
         x2="99.871674"
         y2="195.24228"
         id="line19326"
         style="stroke:#89cb09;stroke-width:0.2;stroke-dasharray:none;stroke-opacity:1" /><line
         class="cls-32"
         x1="99.871674"
         y1="194.90906"
         x2="99.871674"
         y2="194.70184"
         id="line19328"
         style="stroke:#89cb09;stroke-width:0.2;stroke-dasharray:none;stroke-opacity:1" /></g><g
       id="g8991"
       transform="translate(-3.6574417,1.4944386)"><path
         class="cls-2"
         d="m 107.60922,198.76773 c 0,0.19322 -0.042,0.35003 -0.0924,0.35003 0,0 -2.96564,0.10921 -3.92058,0.28002 a 1.9994969,1.9993445 0 0 0 0.0728,-0.63845 v 0 a 1.9994969,1.9993445 0 0 0 -0.0728,-0.63844 c 0.95774,0.17921 3.92058,0.28002 3.92058,0.28002 0.056,0.0196 0.0924,0.17641 0.0924,0.36682 z"
         id="path19242"
         style="fill:url(#linearGradient19392);stroke-width:0.264583" /><path
         class="cls-10"
         d="m 33.29,39.43 -0.48,0.3 a 14.75,14.75 0 0 1 -2.32,1.15 25.91,25.91 0 0 0 2.8,-1.45 z"
         id="path19258"
         style="fill:url(#radial-gradient-6);stroke-width:0.944836"
         transform="matrix(0.28004158,0,0,0.28002023,95.567436,189.02023)"
         mask="url(#mask802)" /><path
         class="cls-3"
         d="m 107.60922,198.76773 c 0,0.19322 -0.042,0.35003 -0.0924,0.35003 0,0 -2.96564,0.10921 -3.92058,0.28002 a 1.9994969,1.9993445 0 0 0 0.0728,-0.63845 v 0 a 1.9994969,1.9993445 0 0 0 -0.0728,-0.63844 c 0.95774,0.17921 3.92058,0.28002 3.92058,0.28002 0.056,0.0196 0.0924,0.17641 0.0924,0.36682 z"
         id="path19244"
         style="stroke-width:0.2;stroke-dasharray:none" /><path
         class="cls-6"
         d="M 8.76,36.58 C 8.55,36.49 8.38,35.71 8.39,34.76 A 3.08,3.08 0 0 1 8.74,33 v 0 a 13,13 0 0 0 1.83,-0.56 c 2.15,-0.84 4,-2.41 6.94,-3.7 a 15.56,15.56 0 0 1 13,0 c 3,1.3 4.79,2.87 6.93,3.72 A 15.18,15.18 0 0 0 39.17,33 h 0.11 a 3,3 0 0 1 0.34,1.81 c 0,0.94 -0.16,1.72 -0.37,1.81 v 0 a 14.14,14.14 0 0 0 -1.81,0.55 c -2.15,0.85 -4,2.41 -6.94,3.7 A 16.23,16.23 0 0 1 24,42.3 16.29,16.29 0 0 1 17.51,40.86 c -2.95,-1.3 -4.79,-2.87 -6.93,-3.72 A 15.18,15.18 0 0 0 8.85,36.6 Z"
         id="path19248"
         style="fill:#74b309;fill-opacity:1;stroke-width:0.944836"
         transform="matrix(0.28004158,0,0,0.28002023,95.567436,189.02023)"
         mask="url(#mask842)" /><path
         class="cls-7"
         d="M 8.62,33 8.5,33.42 a 18.22,18.22 0 0 0 3.64,-1 32.25,32.25 0 0 1 13,-2.23 c 6,0.37 10.85,2.82 14.25,3.22 v 0 L 39.27,33 a 26.16,26.16 0 0 1 -4.63,-1.88 c -1.58,-1 -4.61,-3.43 -9.23,-3.75 -4.62,-0.32 -7.52,0.51 -10.25,2.34 -2.73,1.83 -4.83,3.11 -6.49,3.06"
         id="path19250"
         style="fill:url(#radialGradient19394);stroke-width:0.944836"
         transform="matrix(0.28004158,0,0,0.28002023,95.567436,189.02023)"
         mask="url(#mask834)" /><path
         class="cls-7"
         d="M 8.62,33 8.5,33.42 a 18.22,18.22 0 0 0 3.64,-1 32.25,32.25 0 0 1 13,-2.23 c 6,0.37 10.85,2.82 14.25,3.22 v 0 L 39.27,33 a 26.16,26.16 0 0 1 -4.63,-1.88 c -1.58,-1 -4.61,-3.43 -9.23,-3.75 -4.62,-0.32 -7.52,0.51 -10.25,2.34 -2.73,1.83 -4.83,3.11 -6.49,3.06"
         id="path19252"
         style="fill:url(#radialGradient19396);stroke-width:0.944836"
         transform="matrix(0.28004158,0,0,0.28002023,95.567436,189.02023)"
         mask="url(#mask826)" /><path
         class="cls-8"
         d="M 8.76,36.58 H 8.82 A 23.82,23.82 0 0 0 5.27,36.09 v -0.41 a 21.56,21.56 0 0 1 3.23,0.14 c 0.03,0.43 0.14,0.71 0.26,0.76 z"
         id="path19254"
         style="fill:url(#radialGradient19398);stroke-width:0.944836"
         transform="matrix(0.28004158,0,0,0.28002023,95.567436,189.02023)"
         mask="url(#mask818)" /><path
         class="cls-9"
         d="m 17.5,40.86 a 16.65,16.65 0 0 0 5.34,1.39 15.22,15.22 0 0 1 -4,-0.73 c -2.62,-0.86 -6.32,-3.58 -8.4,-4.42 h 0.12 c 2.15,0.9 3.99,2.46 6.94,3.76 z"
         id="path19256"
         style="fill:url(#radial-gradient-5);stroke-width:0.944836"
         transform="matrix(0.28004158,0,0,0.28002023,95.567436,189.02023)"
         mask="url(#mask810)" /><path
         class="cls-18"
         d="M 8.76,36.58 A 28,28 0 0 0 5.31,36 C 5.13,36 5,35.45 5,34.76 5,34.07 5.15,33.51 5.34,33.51 A 26.79,26.79 0 0 0 8.74,33 3.08,3.08 0 0 0 8.39,34.8 c -0.01,0.91 0.16,1.69 0.37,1.78 z"
         id="path19274"
         style="stroke-width:0.944836"
         transform="matrix(0.28004158,0,0,0.28002023,95.567436,189.02023)"
         mask="url(#mask738)" /><path
         class="cls-19"
         d="M 8.76,36.58 A 28,28 0 0 0 5.31,36 C 5.13,36 5,35.45 5,34.76 5,34.07 5.15,33.51 5.34,33.51 A 26.79,26.79 0 0 0 8.74,33 3.08,3.08 0 0 0 8.39,34.8 c -0.01,0.91 0.16,1.69 0.37,1.78 z"
         id="path19276"
         style="fill:url(#linear-gradient-10);stroke-width:0.944836"
         transform="matrix(0.28004158,0,0,0.28002023,95.567436,189.02023)"
         mask="url(#mask730)" /><path
         class="cls-3"
         d="M 8.76,36.58 A 28,28 0 0 0 5.31,36 C 5.13,36 5,35.45 5,34.76 5,34.07 5.15,33.51 5.34,33.51 A 26.79,26.79 0 0 0 8.74,33 3.08,3.08 0 0 0 8.39,34.8 c -0.01,0.91 0.16,1.69 0.37,1.78 z"
         id="path19278"
         transform="matrix(0.28004158,0,0,0.28002023,95.567436,189.02023)"
         mask="url(#mask722)" /><path
         class="cls-20"
         d="M 8.76,36.58 C 8.55,36.49 8.38,35.71 8.39,34.76 A 3.08,3.08 0 0 1 8.74,33 v 0 a 13,13 0 0 0 1.83,-0.56 c 2.15,-0.84 4,-2.41 6.94,-3.7 a 15.56,15.56 0 0 1 13,0 c 3,1.3 4.79,2.87 6.93,3.72 A 15.18,15.18 0 0 0 39.17,33 h 0.11 a 3,3 0 0 1 0.34,1.81 c 0,0.94 -0.16,1.72 -0.37,1.81 v 0 a 14.14,14.14 0 0 0 -1.81,0.55 c -2.15,0.85 -4,2.41 -6.94,3.7 A 16.23,16.23 0 0 1 24,42.3 16.29,16.29 0 0 1 17.51,40.86 c -2.95,-1.3 -4.79,-2.87 -6.93,-3.72 A 15.18,15.18 0 0 0 8.85,36.6 Z"
         id="path19280"
         transform="matrix(0.28004158,0,0,0.28002023,95.567436,189.02023)"
         mask="url(#mask714)"
         style="stroke:#414951;stroke-opacity:1" /><path
         class="cls-21"
         d="m 39.53,35.9 c -0.06,0.38 -0.16,0.64 -0.27,0.7 h -0.29 a 11.28,11.28 0 0 0 -3,1.23 l -0.64,0.35 c -0.64,0.35 -1.29,0.75 -1.9,1.13 l -0.12,0.07 a 25.91,25.91 0 0 1 -2.8,1.45 l -0.32,0.13 a 21.32,21.32 0 0 1 -3.27,1 3.1,3.1 0 0 1 -0.42,0.08 l -0.39,0.06 h -0.36 a 19.53,19.53 0 0 1 -2.82,0.08 h -0.07 a 16.65,16.65 0 0 1 -5.34,-1.39 c -2.95,-1.3 -4.79,-2.87 -6.93,-3.72 h -0.12 a 2.09,2.09 0 0 0 -0.3,-0.11 L 9.74,36.82 9.19,36.66 8.84,36.57 H 8.78 c -0.12,0 -0.23,-0.33 -0.3,-0.74 a 11.59,11.59 0 0 1 1.88,0.38 c 2.15,0.65 3.94,1.22 6.9,2.21 a 20.31,20.31 0 0 0 12.22,0.28 c 2.16,-0.63 4.18,-1.59 6.3,-2.32 0.57,-0.19 2.98,-0.38 3.75,-0.48 z"
         id="path19282"
         style="fill:url(#linearGradient19402);stroke-width:0.944836"
         transform="matrix(0.28004158,0,0,0.28002023,95.685418,188.94158)"
         mask="url(#mask706)" /><path
         i:knockout="Off"
         d="m 105.54087,199.03546 c 0.13087,-0.0567 0.0217,-0.61603 -0.39705,-0.77502 -0.41911,-0.15938 -0.85365,-0.43392 -1.67263,0.45684 -0.41514,0.46541 -1.20668,0.47881 -1.79741,0.86701 -0.36384,0.23572 -0.22453,1.06293 1.68979,0.85672 0.84941,-0.0745 1.01866,-0.28222 1.22616,-0.57331 0.20763,-0.29131 0.63176,-0.69363 0.95114,-0.83224 z"
         id="path20742-9"
         style="fill:#57a40a;fill-opacity:0.579041;stroke-width:0.246077"
         inkscape:connector-curvature="0" /><g
         id="g5836"
         transform="matrix(1.1754821,-0.13320698,0.17844373,0.87748903,-52.776353,37.498104)"><path
           style="fill:none;stroke:#386c05;stroke-width:0.181882px;stroke-linecap:butt;stroke-linejoin:miter;stroke-opacity:1"
           d="m 101.24094,196.94234 c -1.39834,0.83399 -2.012986,1.88579 -2.390248,3.00358"
           id="path50312-6"
           inkscape:connector-curvature="0"
           sodipodi:nodetypes="cc" /><path
           style="color:#000000;display:inline;overflow:visible;visibility:visible;fill:none;stroke:#234403;stroke-width:0.181882px;stroke-linecap:butt;stroke-linejoin:miter;stroke-miterlimit:4;stroke-dasharray:none;stroke-dashoffset:0;stroke-opacity:1;marker:none;enable-background:accumulate"
           d="m 100.27812,197.18171 0.70683,0.38996"
           id="path50314-8"
           inkscape:connector-curvature="0" /><path
           style="color:#000000;display:inline;overflow:visible;visibility:visible;fill:none;stroke:#234403;stroke-width:0.181882px;stroke-linecap:butt;stroke-linejoin:miter;stroke-miterlimit:4;stroke-dasharray:none;stroke-dashoffset:0;stroke-opacity:1;marker:none;enable-background:accumulate"
           d="m 99.405261,197.99772 0.706829,0.38996"
           id="path50335-1"
           inkscape:connector-curvature="0" /><path
           style="color:#000000;display:inline;overflow:visible;visibility:visible;fill:none;stroke:#234403;stroke-width:0.181882px;stroke-linecap:butt;stroke-linejoin:miter;stroke-miterlimit:4;stroke-dasharray:none;stroke-dashoffset:0;stroke-opacity:1;marker:none;enable-background:accumulate"
           d="m 98.702138,199.10814 0.804962,0.17845"
           id="path50339-4"
           inkscape:connector-curvature="0" /></g><path
         style="color:#000000;display:inline;overflow:visible;visibility:visible;fill:none;stroke:#336204;stroke-width:0.181882px;stroke-linecap:butt;stroke-linejoin:miter;stroke-miterlimit:4;stroke-dasharray:none;stroke-dashoffset:0;stroke-opacity:1;marker:none;enable-background:accumulate"
         d="m 103.4295,197.01388 c -0.40909,1.44089 -1.94275,2.4048 -4.124205,1.8553"
         id="path50343-1"
         inkscape:connector-curvature="0"
         sodipodi:nodetypes="cc" /><path
         style="color:#000000;display:inline;overflow:visible;visibility:visible;fill:none;stroke:#336204;stroke-width:0.181882px;stroke-linecap:butt;stroke-linejoin:miter;stroke-miterlimit:4;stroke-dasharray:none;stroke-dashoffset:0;stroke-opacity:1;marker:none;enable-background:accumulate"
         d="m 102.30023,198.49588 c 0.33641,0.68139 0.34282,1.59039 1.19124,2.08231"
         id="path50345-9"
         inkscape:connector-curvature="0"
         sodipodi:nodetypes="cc" /><path
         style="color:#000000;display:inline;overflow:visible;visibility:visible;fill:none;stroke:#336204;stroke-width:0.181882px;stroke-linecap:butt;stroke-linejoin:miter;stroke-miterlimit:4;stroke-dasharray:none;stroke-dashoffset:0;stroke-opacity:1;marker:none;enable-background:accumulate"
         d="m 105.6915,197.89387 c -0.72612,0.86847 -1.32837,1.85074 -2.93005,1.9149"
         id="path50347-9"
         inkscape:connector-curvature="0"
         sodipodi:nodetypes="cc" /><path
         inkscape:connector-curvature="0"
         id="path50366-1"
         d="m 100.47894,198.65911 -0.0924,0.72553"
         style="color:#000000;display:inline;overflow:visible;visibility:visible;fill:none;stroke:#234403;stroke-width:0.181882px;stroke-linecap:butt;stroke-linejoin:miter;stroke-miterlimit:4;stroke-dasharray:none;stroke-dashoffset:0;stroke-opacity:1;marker:none;enable-background:accumulate" /><path
         style="color:#000000;display:inline;overflow:visible;visibility:visible;fill:none;stroke:#234403;stroke-width:0.181882px;stroke-linecap:butt;stroke-linejoin:miter;stroke-miterlimit:4;stroke-dasharray:none;stroke-dashoffset:0;stroke-opacity:1;marker:none;enable-background:accumulate"
         d="m 101.44438,198.56627 0.16146,0.71987"
         id="path50368-2"
         inkscape:connector-curvature="0" /><path
         inkscape:connector-curvature="0"
         id="path50370-4"
         d="m 102.51345,197.87513 0.59732,0.51471"
         style="color:#000000;display:inline;overflow:visible;visibility:visible;fill:none;stroke:#234403;stroke-width:0.181882px;stroke-linecap:butt;stroke-linejoin:miter;stroke-miterlimit:4;stroke-dasharray:none;stroke-dashoffset:0;stroke-opacity:1;marker:none;enable-background:accumulate" /><path
         style="color:#000000;display:inline;overflow:visible;visibility:visible;fill:none;stroke:#234403;stroke-width:0.181882px;stroke-linecap:butt;stroke-linejoin:miter;stroke-miterlimit:4;stroke-dasharray:none;stroke-dashoffset:0;stroke-opacity:1;marker:none;enable-background:accumulate"
         d="m 102.9271,197.27919 0.75323,0.31271"
         id="path50372-2"
         inkscape:connector-curvature="0" /><path
         inkscape:connector-curvature="0"
         id="path50374-6"
         d="m 102.28023,199.46506 0.75959,-0.27697"
         style="color:#000000;display:inline;overflow:visible;visibility:visible;fill:none;stroke:#234403;stroke-width:0.181882px;stroke-linecap:butt;stroke-linejoin:miter;stroke-miterlimit:4;stroke-dasharray:none;stroke-dashoffset:0;stroke-opacity:1;marker:none;enable-background:accumulate" /><path
         style="color:#000000;display:inline;overflow:visible;visibility:visible;fill:none;stroke:#234403;stroke-width:0.181882px;stroke-linecap:butt;stroke-linejoin:miter;stroke-miterlimit:4;stroke-dasharray:none;stroke-dashoffset:0;stroke-opacity:1;marker:none;enable-background:accumulate"
         d="m 103.8193,199.22654 0.0509,0.74657"
         id="path50376-3"
         inkscape:connector-curvature="0"
         sodipodi:nodetypes="cc" /><path
         inkscape:connector-curvature="0"
         id="path50378-7"
         d="m 104.52152,198.87576 0.27576,0.32661"
         style="color:#000000;display:inline;overflow:visible;visibility:visible;fill:none;stroke:#234403;stroke-width:0.181882px;stroke-linecap:butt;stroke-linejoin:miter;stroke-miterlimit:4;stroke-dasharray:none;stroke-dashoffset:0;stroke-opacity:1;marker:none;enable-background:accumulate" /><path
         style="color:#000000;display:inline;overflow:visible;visibility:visible;fill:none;stroke:#234403;stroke-width:0.181882px;stroke-linecap:butt;stroke-linejoin:miter;stroke-miterlimit:4;stroke-dasharray:none;stroke-dashoffset:0;stroke-opacity:1;marker:none;enable-background:accumulate"
         d="m 105.04103,198.09331 0.59265,0.51892"
         id="path50380-2"
         inkscape:connector-curvature="0" /><path
         style="color:#000000;display:inline;overflow:visible;visibility:visible;fill:none;stroke:#234403;stroke-width:0.181882px;stroke-linecap:butt;stroke-linejoin:miter;stroke-miterlimit:4;stroke-dasharray:none;stroke-dashoffset:0;stroke-opacity:1;marker:none;enable-background:accumulate"
         d="m 102.69804,200.35522 0.7596,-0.27696"
         id="path50382-2"
         inkscape:connector-curvature="0" /><path
         sodipodi:nodetypes="cc"
         inkscape:connector-curvature="0"
         id="path50384-7"
         d="m 104.26552,199.63645 -0.8415,-0.0733"
         style="color:#000000;display:inline;overflow:visible;visibility:visible;fill:none;stroke:#234403;stroke-width:0.181882px;stroke-linecap:butt;stroke-linejoin:miter;stroke-miterlimit:4;stroke-dasharray:none;stroke-dashoffset:0;stroke-opacity:1;marker:none;enable-background:accumulate" /></g><g
       id="g9001"
       transform="translate(-6.8822828,5.2698622)"
       style="display:inline"><path
         class="cls-23"
         d="m 108.25525,192.83846 a 1.1677734,1.1676844 0 0 0 0,0.86806 c 0.19043,0.50124 0.56008,0.72805 0.7029,1.05008 a 0.75331187,0.75325443 0 0 1 0,0.59364 c 0,0 0.37246,-0.12041 0.56009,-0.76445 a 1.7866653,1.7865291 0 0 0 -0.6189,-1.93774"
         id="path19288"
         style="fill:url(#linear-gradient-13);stroke-width:0.264583" /><path
         class="cls-24"
         d="m 109.55464,194.58579 c -0.20723,0.64404 -0.57689,0.76445 -0.57689,0.76445 a 0.7589127,0.75885484 0 0 0 0,-0.59644 1.4730187,1.4729064 0 0 0 -0.25483,-0.36123 0.72250728,0.72245219 0 0 1 0.098,-0.28002 c 0.0644,-0.0672 0.20443,-0.0588 0.28004,0.13161 0.0756,0.19041 0.21283,0 0.23244,-0.28002 0,-0.23242 0.18483,-0.19601 0.29964,-0.0252 v 0 a 1.6802495,1.6801214 0 0 1 -0.0784,0.64685 z"
         id="path19290"
         style="fill:url(#radial-gradient-7);stroke-width:0.264583" /><path
         class="cls-25"
         d="m 108.25525,192.83846 a 1.1677734,1.1676844 0 0 0 0,0.86806 c 0.19043,0.50124 0.56008,0.72805 0.7029,1.05008 a 0.75331187,0.75325443 0 0 1 0,0.59364 c 0,0 0.37246,-0.12041 0.56009,-0.76445 a 1.7866653,1.7865291 0 0 0 -0.6189,-1.93774"
         id="path19292"
         style="stroke-width:0.2;stroke-dasharray:none" /><path
         class="cls-26"
         d="m 108.16563,193.17728 c 0.0728,0.0756 0.29685,0.0392 0.52368,-0.0924 0.22684,-0.13161 0.37246,-0.30522 0.34445,-0.40603 v 0 a 50.687528,50.683662 0 0 0 -2.90683,-5.00116 17.519402,17.518066 0 0 0 -1.51222,-1.94054 c -0.13722,-0.14561 -0.31925,-0.042 -0.26044,0.14841 a 17.64262,17.641275 0 0 0 0.93254,2.28216 50.499898,50.496049 0 0 0 2.87882,5.00956 z"
         id="path19294"
         style="stroke-width:0.4;stroke-dasharray:none" /><path
         class="cls-27"
         d="m 108.16563,193.17728 c 0.0728,0.0756 0.29685,0.0392 0.52368,-0.0924 0.22684,-0.13161 0.37246,-0.30522 0.34445,-0.40603 v 0 a 50.687528,50.683662 0 0 0 -2.90683,-5.00116 17.519402,17.518066 0 0 0 -1.51222,-1.94054 c -0.13722,-0.14561 -0.31925,-0.042 -0.26044,0.14841 a 17.64262,17.641275 0 0 0 0.93254,2.28216 50.499898,50.496049 0 0 0 2.87882,5.00956 z"
         id="path19296"
         style="stroke-width:0.264583" /><path
         class="cls-28"
         d="m 108.16563,193.17728 c 0.0728,0.0756 0.29685,0.0392 0.52368,-0.0924 0.22684,-0.13161 0.37246,-0.30522 0.34445,-0.40603 v 0 a 50.687528,50.683662 0 0 0 -2.90683,-5.00116 17.519402,17.518066 0 0 0 -1.51222,-1.94054 c -0.13722,-0.14561 -0.31925,-0.042 -0.26044,0.14841 a 17.64262,17.641275 0 0 0 0.93254,2.28216 50.499898,50.496049 0 0 0 2.87882,5.00956 z"
         id="path19298"
         style="fill:url(#linear-gradient-14);stroke-width:0.264583" /><path
         class="cls-30"
         d="m 106.1021,187.58285 a 16.550458,16.549196 0 0 0 -1.3638,-1.72772 c -0.13722,-0.14561 -0.31925,-0.042 -0.26044,0.14841 a 16.469245,16.46799 0 0 0 0.81492,2.04695 c 0.0616,0.0448 0.26044,0 0.46487,-0.12881 0.20443,-0.12881 0.35005,-0.26322 0.34445,-0.33883 z"
         id="path19302"
         style="fill:url(#linear-gradient-16);stroke-width:0.264583" /><path
         class="cls-29"
         d="m 108.68931,193.08488 c 0.22684,-0.12881 0.37246,-0.30522 0.34445,-0.40603 0,0 -0.33605,-0.66365 -0.84012,-1.57092 0,0.0896 -0.18203,0.25482 -0.42566,0.39483 a 0.84012475,0.8400607 0 0 1 -0.56009,0.17082 c 0.53488,0.88206 0.94374,1.5037 0.94374,1.5037 0.0868,0.0756 0.31085,0.0308 0.53768,-0.0924 z"
         id="path19300"
         style="fill:url(#linearGradient19404);stroke-width:0.264583" /><path
         class="cls-31"
         d="m 108.68931,193.08488 v 0 c 0.22684,-0.12881 0.37246,-0.30522 0.34445,-0.40603 a 50.687528,50.683662 0 0 0 -2.90683,-5.00116 17.519402,17.518066 0 0 0 -1.51222,-1.94054 0.17082537,0.17081234 0 0 0 -0.20443,-0.0532 v 0 z"
         id="path19304"
         style="fill:url(#linear-gradient-17);stroke-width:0.264583" /></g></g></svg>
