<?xml version="1.0" encoding="UTF-8" standalone="no"?>
<svg
   viewBox="0 0 48 48"
   version="1.1"
   id="svg115"
   sodipodi:docname="1-Heightfield_Flatten.svg"
   inkscape:version="1.3-dev (e30a5ffc, 2022-05-30)"
   xmlns:inkscape="http://www.inkscape.org/namespaces/inkscape"
   xmlns:sodipodi="http://sodipodi.sourceforge.net/DTD/sodipodi-0.dtd"
   xmlns:xlink="http://www.w3.org/1999/xlink"
   xmlns="http://www.w3.org/2000/svg"
   xmlns:svg="http://www.w3.org/2000/svg">
  <sodipodi:namedview
     id="namedview115"
     pagecolor="#505050"
     bordercolor="#ffffff"
     borderopacity="1"
     inkscape:showpageshadow="0"
     inkscape:pageopacity="0"
     inkscape:pagecheckerboard="1"
     inkscape:deskcolor="#505050"
     showgrid="false"
     inkscape:zoom="21.395833"
     inkscape:cx="23.158715"
     inkscape:cy="26.103213"
     inkscape:window-width="2560"
     inkscape:window-height="1378"
     inkscape:window-x="-6"
     inkscape:window-y="-6"
     inkscape:window-maximized="1"
     inkscape:current-layer="svg115" />
  <defs
     id="defs11">
    <linearGradient
       inkscape:collect="always"
       id="linearGradient125">
      <stop
         style="stop-color:#623c01;stop-opacity:1;"
         offset="0"
         id="stop124" />
      <stop
         style="stop-color:#432901;stop-opacity:1;"
         offset="1"
         id="stop125" />
    </linearGradient>
    <linearGradient
       id="linearGradient123"
       x1="25.87"
       y1="12.65"
       x2="32.74"
       y2="34.48"
       gradientUnits="userSpaceOnUse">
      <stop
         offset="0"
         stop-color="#8f5902"
         id="stop122"
         style="stop-color:#754902;stop-opacity:1;" />
      <stop
         offset="1"
         stop-color="#e9b96e"
         id="stop123"
         style="stop-color:#c17d11;stop-opacity:1" />
    </linearGradient>
    <linearGradient
       id="linearGradient121"
       x1="25.87"
       y1="12.65"
       x2="32.74"
       y2="34.48"
       gradientUnits="userSpaceOnUse">
      <stop
         offset="0"
         stop-color="#8f5902"
         id="stop120"
         style="stop-color:#6b4301;stop-opacity:1" />
      <stop
         offset="1"
         stop-color="#e9b96e"
         id="stop121"
         style="stop-color:#8f5902;stop-opacity:1" />
    </linearGradient>
    <linearGradient
       id="linearGradient119"
       x1="25.87"
       y1="12.65"
       x2="32.74"
       y2="34.48"
       gradientUnits="userSpaceOnUse">
      <stop
         offset="0"
         stop-color="#8f5902"
         id="stop118"
         style="stop-color:#8f5902;stop-opacity:1" />
      <stop
         offset="1"
         stop-color="#e9b96e"
         id="stop119"
         style="stop-color:#c17d11;stop-opacity:1" />
    </linearGradient>
    <style
       id="style1">.cls-1,.cls-36,.cls-37,.cls-4,.cls-42{fill:none;}.cls-2{isolation:isolate;}.cls-3{fill:url(#radial-gradient);}.cls-4{stroke:#8f5902;stroke-width:1.4px;}.cls-36,.cls-37,.cls-4,.cls-42{stroke-miterlimit:10;}.cls-5{fill:url(#linear-gradient);}.cls-12,.cls-16,.cls-21,.cls-25,.cls-6,.cls-8{mix-blend-mode:multiply;opacity:0.7;}.cls-6{fill:url(#linear-gradient-2);}.cls-7{fill:url(#linear-gradient-3);}.cls-8{fill:url(#linear-gradient-4);}.cls-9{fill:url(#linear-gradient-5);}.cls-10{fill:url(#linear-gradient-6);}.cls-11{fill:url(#linear-gradient-7);}.cls-12{fill:url(#linear-gradient-8);}.cls-13{fill:url(#linear-gradient-9);}.cls-14{fill:url(#linear-gradient-10);}.cls-15{fill:url(#linear-gradient-11);}.cls-16{fill:url(#linear-gradient-12);}.cls-17{fill:url(#linear-gradient-13);}.cls-18{fill:url(#linear-gradient-14);}.cls-19{fill:url(#linear-gradient-15);}.cls-20{fill:url(#linear-gradient-16);}.cls-21{fill:url(#linear-gradient-17);}.cls-22{fill:url(#linear-gradient-18);}.cls-23{fill:url(#linear-gradient-19);}.cls-24{fill:url(#linear-gradient-20);}.cls-25{fill:url(#linear-gradient-21);}.cls-26{fill:url(#linear-gradient-22);}.cls-27{fill:url(#linear-gradient-23);}.cls-28{fill:url(#linear-gradient-24);}.cls-29{fill:#555753;}.cls-30{clip-path:url(#clip-path);}.cls-31{fill:#888a85;}.cls-32{fill:#2e3436;}.cls-33{fill:#babdb6;}.cls-34{fill:#d3d7cf;}.cls-35{fill:url(#linear-gradient-25);}.cls-36,.cls-37,.cls-42{stroke:#2e3436;}.cls-36{stroke-width:0.61px;}.cls-37{stroke-width:0.87px;}.cls-38{fill:url(#linear-gradient-26);}.cls-39{fill:url(#linear-gradient-27);}.cls-40{fill:url(#linear-gradient-28);}.cls-41{clip-path:url(#clip-path-2);}.cls-42{stroke-width:0.64px;}.cls-43{fill:url(#linear-gradient-29);}.cls-44{fill:url(#linear-gradient-30);}.cls-45{fill:url(#linear-gradient-31);}.cls-46{fill:url(#linear-gradient-32);}.cls-47{fill:url(#linear-gradient-33);}.cls-48{fill:url(#linear-gradient-34);}.cls-49{fill:url(#linear-gradient-35);}.cls-50{fill:url(#linear-gradient-36);}.cls-51{fill:url(#linear-gradient-37);}.cls-52{fill:url(#linear-gradient-38);}.cls-53{fill:url(#linear-gradient-39);}.cls-54{fill:url(#linear-gradient-40);}</style>
    <radialGradient
       id="radial-gradient"
       cx="41.84"
       cy="49.93"
       r="18.85"
       gradientTransform="matrix(1.21,0,0,0.54,-26.83,7.2)"
       gradientUnits="userSpaceOnUse">
      <stop
         offset="0.35"
         stop-color="#2c2c2c"
         stop-opacity="0.5"
         id="stop1" />
      <stop
         offset="0.73"
         stop-color="#2c2c2c"
         stop-opacity="0.1"
         id="stop2" />
      <stop
         offset="0.95"
         stop-color="#2c2c2c"
         stop-opacity="0"
         id="stop3" />
    </radialGradient>
    <linearGradient
       id="linear-gradient"
       x1="20.86"
       y1="34.99"
       x2="44.21"
       y2="34.99"
       gradientUnits="userSpaceOnUse">
      <stop
         offset="0"
         stop-color="#4e9a06"
         id="stop4" />
      <stop
         offset="1"
         stop-color="#8ae234"
         id="stop5" />
    </linearGradient>
    <linearGradient
       id="linear-gradient-2"
       x1="34.32"
       y1="37.77"
       x2="32.72"
       y2="33.41"
       gradientUnits="userSpaceOnUse">
      <stop
         offset="0"
         stop-color="#eeeeec"
         id="stop6" />
      <stop
         offset="1"
         stop-color="#555753"
         id="stop7" />
    </linearGradient>
    <linearGradient
       id="linear-gradient-3"
       x1="25.87"
       y1="12.65"
       x2="32.74"
       y2="34.48"
       gradientUnits="userSpaceOnUse">
      <stop
         offset="0"
         stop-color="#8f5902"
         id="stop8" />
      <stop
         offset="1"
         stop-color="#e9b96e"
         id="stop9" />
    </linearGradient>
    <linearGradient
       id="linear-gradient-4"
       x1="33.46"
       y1="16.59"
       x2="28.63"
       y2="20.89"
       xlink:href="#linear-gradient-2" />
    <linearGradient
       id="linear-gradient-5"
       x1="31.69"
       y1="26.18"
       x2="40.29"
       y2="16.51"
       xlink:href="#linear-gradient-3" />
    <linearGradient
       id="linear-gradient-6"
       x1="14.49"
       y1="12.8"
       x2="17.01"
       y2="20.81"
       gradientTransform="matrix(-1,0,0,1,46.2,0)"
       xlink:href="#linear-gradient" />
    <linearGradient
       id="linear-gradient-7"
       x1="32.77"
       y1="15.25"
       x2="39.24"
       y2="35.8"
       xlink:href="#linear-gradient-3" />
    <linearGradient
       id="linear-gradient-8"
       x1="37.48"
       y1="21.12"
       x2="32.65"
       y2="25.41"
       xlink:href="#linear-gradient-2" />
    <linearGradient
       id="linear-gradient-9"
       x1="35.48"
       y1="27.91"
       x2="45.81"
       y2="16.29"
       xlink:href="#linear-gradient-3" />
    <linearGradient
       id="linear-gradient-10"
       x1="7.9"
       y1="13.98"
       x2="10"
       y2="20.66"
       gradientTransform="matrix(-1,0,0,1,46.2,0)"
       xlink:href="#linear-gradient" />
    <linearGradient
       id="linear-gradient-11"
       x1="37.89"
       y1="21.42"
       x2="42.74"
       y2="36.8"
       xlink:href="#linear-gradient-3" />
    <linearGradient
       id="linear-gradient-12"
       x1="41.55"
       y1="25.7"
       x2="36.72"
       y2="29.99"
       xlink:href="#linear-gradient-2" />
    <linearGradient
       id="linear-gradient-13"
       x1="36.794968"
       y1="37.359047"
       x2="33.35788"
       y2="31.222071"
       xlink:href="#linearGradient121" />
    <linearGradient
       id="linear-gradient-14"
       x1="3.4"
       y1="20.01"
       x2="5.51"
       y2="26.69"
       gradientTransform="matrix(-1,0,0,1,46.2,0)"
       xlink:href="#linear-gradient" />
    <linearGradient
       id="linear-gradient-15"
       x1="9.93"
       y1="10.73"
       x2="17.32"
       y2="34.2"
       xlink:href="#linear-gradient-3" />
    <linearGradient
       id="linear-gradient-16"
       x1="12.47"
       y1="25.09"
       x2="24.04"
       y2="12.07"
       xlink:href="#linear-gradient-3" />
    <linearGradient
       id="linear-gradient-17"
       x1="13.15"
       y1="16.71"
       x2="18.16"
       y2="20.37"
       xlink:href="#linear-gradient-2" />
    <linearGradient
       id="linear-gradient-18"
       x1="30.4"
       y1="9.55"
       x2="32.5"
       y2="16.23"
       gradientTransform="matrix(-1,0,0,1,46.2,0)"
       xlink:href="#linear-gradient" />
    <linearGradient
       id="linear-gradient-19"
       x1="5.91"
       y1="16.05"
       x2="12.04"
       y2="35.51"
       xlink:href="#linear-gradient-3" />
    <linearGradient
       id="linear-gradient-20"
       x1="8.67"
       y1="28.08"
       x2="18.54"
       y2="16.98"
       xlink:href="#linear-gradient-3" />
    <linearGradient
       id="linear-gradient-21"
       x1="9.78"
       y1="21.31"
       x2="14.79"
       y2="24.98"
       xlink:href="#linear-gradient-2" />
    <linearGradient
       id="linear-gradient-22"
       x1="34.9"
       y1="14.75"
       x2="37"
       y2="21.43"
       gradientTransform="matrix(-1,0,0,1,46.2,0)"
       xlink:href="#linear-gradient" />
    <linearGradient
       id="linear-gradient-23"
       x1="10.344009"
       y1="37.373093"
       x2="14.104465"
       y2="29.606302"
       xlink:href="#linearGradient123" />
    <linearGradient
       id="linear-gradient-24"
       x1="26.63"
       y1="46.67"
       x2="47.47"
       y2="23.22"
       xlink:href="#linear-gradient-3" />
    <clipPath
       id="clip-path">
      <path
         class="cls-1"
         d="M30.09,26c.32.08.73-.12.95.12s.13.33.27.41.47-.11.72-.11c.49,0,.65.82,1.14.82a1.59,1.59,0,0,0,.35-.08c.47-.08.32.42.63.59a.67.67,0,0,0,.46,0c.78-.26,1.08.33.88,1.05l-.64,2.61a1,1,0,0,1-.73.65,1.53,1.53,0,0,1-1-.17l-.1,0-.13,0a2.62,2.62,0,0,1-.74.06l-.87,1.79a1.05,1.05,0,0,1-.68.62,2.13,2.13,0,0,1-.94,0,.7.7,0,0,1-.29-.09c-.21-.12-.3-.43-.54-.48a1,1,0,0,0-.24,0,1.26,1.26,0,0,1-.51,0,.66.66,0,0,1-.24-.11c-.06-.06-.14-.09-.15.07s0,.44-.05.6a2.26,2.26,0,0,1-.32,1,2.39,2.39,0,0,1-.36.35,1.93,1.93,0,0,1-.36.28,2.88,2.88,0,0,1-1.24.4A1.56,1.56,0,0,1,24.19,36c-.35-.35-.53-.92-1-1-.31-.09-.67.06-1-.07-.49-.23-.42-1-.79-1.35a1.63,1.63,0,0,0-1.22-.33,1.26,1.26,0,0,1-1.15-.46,2.25,2.25,0,0,1-.15-.46c-.4-1.21-1.76-.6-2.43-1.46a2.27,2.27,0,0,0-.57-.69c-.2-.11-.43-.12-.64-.21a.93.93,0,0,1-.53-.64c-.06-.32,0-.67-.13-.94-.07-.1-.16-.18-.23-.29a.76.76,0,0,1,0-.73,2.66,2.66,0,0,1,.46-.6A.53.53,0,0,0,15,26.4a.59.59,0,0,0,0-.23,1.16,1.16,0,0,1,.49-1.27c.17-.1.41-.21.4-.42s-.2-.29-.35-.39A1.15,1.15,0,0,1,15.05,23a5.15,5.15,0,0,1,.38-.91A1.25,1.25,0,0,0,15.27,21a1.81,1.81,0,0,1-.17-1.25,2,2,0,0,0,.09-.73c-.07-.43-.48-.74-.62-1.16a1.89,1.89,0,0,1,.3-1.4.52.52,0,0,0,.07-.27c0-.17-.17-.27-.3-.38a1.37,1.37,0,0,1,0-2,.41.41,0,0,0,.16-.16c.06-.19-.19-.32-.34-.46a.76.76,0,0,1-.18-.79,2,2,0,0,1,.47-.72.72.72,0,0,0,.21-.31A.86.86,0,0,0,15,11c-.11-.94.33-5.77,1.11-6.31,0,0,.09,0,.12,0s0,.09,0,.05a11.52,11.52,0,0,1,2.49.1,12.09,12.09,0,0,1,2.54.54,16.45,16.45,0,0,0,2.53.79A11.17,11.17,0,0,0,26,6.19a17,17,0,0,0,7.12-1.42c.42.24.36,4.71.16,5.15a2.34,2.34,0,0,0-.42,1.35c0,.3.26.58.24.89s-.52.69-.83,1a1.51,1.51,0,0,0-.41,1.23,2.84,2.84,0,0,1,.06.5c-.05.69-1.05.94-1.21,1.61-.1.4.14.85-.05,1.23a1.36,1.36,0,0,1-.75.54c-.28.13-.59.34-.61.65a1.69,1.69,0,0,1,0,.45.56.56,0,0,1-.22.24,4.29,4.29,0,0,1-1.12.59,2,2,0,0,1-1.15,1.9,3,3,0,0,1,1.35.83c.2.33,1,.07,1.36.16a.78.78,0,0,1,.6.68,4,4,0,0,0-.26.79A2.66,2.66,0,0,0,30.09,26Z"
         id="path9" />
    </clipPath>
    <linearGradient
       id="linear-gradient-25"
       x1="31.71"
       y1="26.26"
       x2="32.19"
       y2="24.83"
       gradientTransform="translate(-1.04 1.27) rotate(-2.7)"
       gradientUnits="userSpaceOnUse">
      <stop
         offset="0"
         stop-color="#fff"
         stop-opacity="0"
         id="stop10" />
      <stop
         offset="1"
         stop-color="#fff8f8"
         id="stop11" />
    </linearGradient>
    <linearGradient
       id="linear-gradient-26"
       x1="24.61"
       y1="35.41"
       x2="28.18"
       y2="35.41"
       xlink:href="#linear-gradient-25"
       gradientTransform="matrix(1.0272026,0,0,1.0272026,-0.62935701,-1.2710543)" />
    <linearGradient
       id="linear-gradient-27"
       x1="31.2"
       y1="34.71"
       x2="32.78"
       y2="33.18"
       xlink:href="#linear-gradient-25"
       gradientTransform="matrix(1.0272026,0,0,1.0272026,-0.62935701,-1.2710543)" />
    <linearGradient
       id="linear-gradient-28"
       x1="35.58"
       y1="32.02"
       x2="37.14"
       y2="30.51"
       xlink:href="#linear-gradient-25"
       gradientTransform="matrix(1.0272026,0,0,1.0272026,-0.62935701,-1.2710543)" />
    <clipPath
       id="clip-path-2">
      <path
         class="cls-1"
         d="M26.83,5.28c-1.93,0-3.92-.92-6.15-1.1s-3.71-.1-4.59.53,0,1.86,4.49,3A17.94,17.94,0,0,0,31.29,6.62c1.73-.76,2.17-1.76,1.5-2.15s-1.91.1-2.89.42A8.58,8.58,0,0,1,26.83,5.28Z"
         id="path11" />
    </clipPath>
    <linearGradient
       id="linear-gradient-29"
       x1="1.9"
       y1="21.42"
       x2="6.75"
       y2="36.8"
       xlink:href="#linear-gradient-3" />
    <linearGradient
       id="linear-gradient-30"
       x1="4.9"
       y1="31.08"
       x2="13.02"
       y2="21.94"
       xlink:href="#linear-gradient-3" />
    <linearGradient
       id="linear-gradient-31"
       x1="39.4"
       y1="20.01"
       x2="41.5"
       y2="26.69"
       gradientTransform="matrix(-1,0,0,1,46.2,0)"
       xlink:href="#linear-gradient" />
    <linearGradient
       id="linear-gradient-32"
       x1="8.41"
       y1="25.41"
       x2="13.88"
       y2="42.76"
       xlink:href="#linear-gradient-3" />
    <linearGradient
       id="linear-gradient-33"
       x1="14.49"
       y1="36.34"
       x2="21.17"
       y2="28.81"
       xlink:href="#linear-gradient-3" />
    <linearGradient
       id="linear-gradient-34"
       x1="32.49"
       y1="25.43"
       x2="35.01"
       y2="33.45"
       gradientTransform="matrix(-1,0,0,1,46.2,0)"
       xlink:href="#linear-gradient" />
    <linearGradient
       id="linear-gradient-35"
       x1="15.4"
       y1="28.52"
       x2="20.24"
       y2="43.9"
       xlink:href="#linear-gradient-3" />
    <linearGradient
       id="linear-gradient-36"
       x1="18.39"
       y1="38.18"
       x2="26.51"
       y2="29.04"
       xlink:href="#linear-gradient-3" />
    <linearGradient
       id="linear-gradient-37"
       x1="25.9"
       y1="27.11"
       x2="28"
       y2="33.78"
       gradientTransform="matrix(-1,0,0,1,46.2,0)"
       xlink:href="#linear-gradient" />
    <linearGradient
       id="linear-gradient-38"
       x1="20.65"
       y1="35.51"
       x2="23.52"
       y2="44.61"
       xlink:href="#linear-gradient-3" />
    <linearGradient
       id="linear-gradient-39"
       x1="24"
       y1="41.52"
       x2="29.44"
       y2="35.4"
       xlink:href="#linear-gradient-3" />
    <linearGradient
       id="linear-gradient-40"
       x1="21.4"
       y1="33.92"
       x2="23.5"
       y2="40.6"
       gradientTransform="matrix(-1,0,0,1,46.2,0)"
       xlink:href="#linear-gradient" />
    <linearGradient
       inkscape:collect="always"
       xlink:href="#linear-gradient"
       id="linearGradient115"
       gradientUnits="userSpaceOnUse"
       x1="20.86"
       y1="34.99"
       x2="44.21"
       y2="34.99" />
    <linearGradient
       inkscape:collect="always"
       xlink:href="#linear-gradient-2"
       id="linearGradient116"
       gradientUnits="userSpaceOnUse"
       x1="34.32"
       y1="37.77"
       x2="32.72"
       y2="33.41"
       gradientTransform="matrix(1.0272026,0,0,1.0272026,-0.62935701,-1.2710543)" />
    <linearGradient
       inkscape:collect="always"
       xlink:href="#linear-gradient-25"
       id="linearGradient118"
       gradientUnits="userSpaceOnUse"
       gradientTransform="matrix(1.0260623,-0.04838787,0.04838787,1.0260623,-1.6976477,0.03349302)"
       x1="31.71"
       y1="26.26"
       x2="32.19"
       y2="24.83" />
    <linearGradient
       inkscape:collect="always"
       xlink:href="#linearGradient125"
       id="linearGradient126"
       x1="9.8090677"
       y1="12.399262"
       x2="38.271931"
       y2="37.469952"
       gradientUnits="userSpaceOnUse" />
  </defs>
  <g
     id="shadow"
     transform="matrix(1.0272026,0,0,1.0272026,-0.62935701,-1.2710543)"
     style="isolation:isolate">
    <path
       id="ellipse11"
       style="fill:url(#radial-gradient)"
       class="cls-3"
       d="m 46.02,34.389999 a 22.02,9.9099998 0 0 1 -22.02,9.91 22.02,9.9099998 0 0 1 -22.0200005,-9.91 A 22.02,9.9099998 0 0 1 24,24.48 22.02,9.9099998 0 0 1 46.02,34.389999 Z" />
  </g>
  <path
     id="polygon11"
     style="isolation:isolate;fill:none;stroke:url(#linearGradient126);stroke-width:1.4px;stroke-miterlimit:10"
     class="cls-4"
     transform="matrix(1.0272026,0,0,1.0272026,-0.62935701,-1.2710543)"
     d="m 33,19.41 2.73,-1.43 1.77,0.92 V 29.68 L 42,27.31 v 4.73 L 24,41.5 6,32.04 v -4.73 l 4.5,2.37 v -4.73 l 4.5,2.36 4.5,-2.36 V 12.11 L 15,9.74 10.5,12.11 v 2.83 L 6,17.3 v 0 2.9 l -4.5,2.37 v 9.87 L 24,44.27 46.49,32.44 V 22.57 L 42,20.2 V 16.54 L 37.5,14.17 34.76,15.61 28.5,12.32 24,14.68 Z" />
  <path
     id="polygon12"
     style="isolation:isolate;fill:url(#linearGradient115)"
     class="cls-5"
     transform="matrix(1.0272026,0,0,1.0272026,-0.62935701,-1.2710543)"
     d="M 44.21,32.1 42.35,29.52 36.2,29 l -15.34,5.11 6.52,6.88 z" />
  <path
     class="cls-6"
     d="m 28.132316,39.067192 c 0,0 0.441697,0.15408 1.910597,-0.65741 1.468899,-0.81149 -0.287617,-2.876167 1.581892,-2.578278 a 4.5607795,4.5607795 0 0 1 2.670726,1.109378 l 2.506375,-0.96557 a 24.837759,24.837759 0 0 0 -0.914211,-2.793991 c -0.410881,-0.883394 2.824808,-0.215713 3.934186,0.81149 1.109379,1.027203 3.451401,-1.62298 0.215713,-3.163784 a 14.082948,14.082948 0 0 0 -6.430288,-1.284003 l -9.059927,4.71486 z"
     id="path12"
     style="isolation:isolate;fill:url(#linearGradient116);stroke-width:1.0272" />
  <path
     id="polygon15"
     style="isolation:isolate;fill:url(#linear-gradient-5)"
     class="cls-9"
     transform="matrix(1.0272026,0,0,1.0272026,-0.62935701,-1.2710543)"
     d="M 37.5,17.05 33,19.41 v 7.9 l 4.5,-2.36 z" />
  <path
     id="polygon16"
     style="isolation:isolate;fill:#6db32b"
     class="cls-10"
     transform="matrix(1.0272026,0,0,1.0272026,-0.62935701,-1.2710543)"
     d="m 28.5,12.32 -4.5,2.36 9,4.73 4.5,-2.36 z" />
  <path
     id="polygon19"
     style="isolation:isolate;fill:#6b4301"
     class="cls-13"
     transform="matrix(1.0272026,0,0,1.0272026,-0.62935701,-1.2710543)"
     d="M 42,16.54 37.5,18.9 V 29.68 L 42,27.31 Z" />
  <path
     id="polygon13"
     style="isolation:isolate;fill:#4d3001;fill-opacity:1"
     class="cls-7"
     d="M 23.999934 14.680306 L 23.999934 22.590138 L 32.999269 27.309417 L 37.499888 29.680465 L 42.000506 32.040105 L 42.000506 24.930763 L 37.499888 22.569222 L 37.499888 18.899516 L 32.999269 16.539877 L 32.999269 19.409092 L 23.999934 14.680306 z "
     transform="matrix(1.0272026,0,0,1.0272026,-0.62935701,-1.2710543)" />
  <path
     id="polygon20"
     style="isolation:isolate;fill:#84d03d"
     class="cls-14"
     transform="matrix(1.0272026,0,0,1.0272026,-0.62935701,-1.2710543)"
     d="M 37.5,14.17 33,16.54 37.5,18.9 42,16.54 Z" />
  <path
     id="polygon24"
     style="isolation:isolate;fill:#6db32b"
     class="cls-18"
     transform="matrix(1.0272026,0,0,1.0272026,-0.62935701,-1.2710543)"
     d="m 42,20.2 -4.5,2.37 4.5,2.36 4.49,-2.36 z" />
  <path
     id="polygon25"
     style="isolation:isolate;fill:url(#linear-gradient-15)"
     class="cls-19"
     transform="matrix(1.0272026,0,0,1.0272026,-0.62935701,-1.2710543)"
     d="M 10.5,12.11 15,14.47 V 27.31 L 10.5,24.95 Z" />
  <path
     id="polygon26"
     style="isolation:isolate;fill:url(#linear-gradient-16)"
     class="cls-20"
     transform="matrix(1.0272026,0,0,1.0272026,-0.62935701,-1.2710543)"
     d="M 19.5,12.11 15,14.47 v 12.84 l 4.5,-2.36 z" />
  <path
     id="polygon27"
     style="opacity:0.7;isolation:isolate;mix-blend-mode:multiply;fill:url(#linear-gradient-17)"
     class="cls-21"
     transform="matrix(1.0272026,0,0,1.0272026,-0.62935701,-1.2710543)"
     d="M 19.5,12.11 15,14.47 v 12.84 l 4.5,-2.36 z" />
  <path
     id="polygon28"
     style="isolation:isolate;fill:#8ad246"
     class="cls-22"
     transform="matrix(1.0272026,0,0,1.0272026,-0.62935701,-1.2710543)"
     d="m 15,9.74 -4.5,2.37 4.5,2.36 4.5,-2.36 z" />
  <path
     id="polygon29"
     style="isolation:isolate;fill:#6b4301"
     class="cls-23"
     transform="matrix(1.0272026,0,0,1.0272026,-0.62935701,-1.2710543)"
     d="m 6,17.3 4.5,2.37 V 29.68 L 6,27.31 Z" />
  <path
     id="polygon30"
     style="isolation:isolate;fill:url(#linear-gradient-20)"
     class="cls-24"
     transform="matrix(1.0272026,0,0,1.0272026,-0.62935701,-1.2710543)"
     d="m 15,17.3 -4.5,2.37 V 29.68 L 15,27.31 Z" />
  <path
     class="cls-29"
     d="m 30.279169,25.436213 c 0.328705,0.08218 0.749858,-0.123264 0.975843,0.123265 0.225984,0.246528 0.133536,0.338976 0.277344,0.421153 0.143809,0.08218 0.482786,-0.112993 0.739586,-0.112993 0.50333,0 0.667682,0.842307 1.171011,0.842307 a 1.6332521,1.6332521 0 0 0 0.359521,-0.08218 c 0.482785,-0.08218 0.328705,0.431425 0.647138,0.60605 a 0.68822574,0.68822574 0 0 0 0.472513,0 c 0.801218,-0.267073 1.109379,0.338977 0.903938,1.078563 l -0.657409,2.680998 a 1.0272026,1.0272026 0 0 1 -0.749858,0.667682 1.57162,1.57162 0 0 1 -1.027203,-0.174624 h -0.10272 -0.133536 a 2.6912708,2.6912708 0 0 1 -0.76013,0.06163 l -0.893667,1.838692 a 1.0785627,1.0785627 0 0 1 -0.698497,0.636866 2.1879415,2.1879415 0 0 1 -0.965571,0 0.71904182,0.71904182 0 0 1 -0.297889,-0.09245 c -0.215712,-0.123265 -0.30816,-0.441697 -0.554689,-0.493057 a 1.0272026,1.0272026 0 0 0 -0.246529,0 1.2942753,1.2942753 0 0 1 -0.523873,0 0.67795372,0.67795372 0 0 1 -0.246529,-0.112993 c -0.06163,-0.06163 -0.143808,-0.09245 -0.15408,0.0719 -0.01027,0.164353 0,0.45197 -0.05136,0.616322 a 2.3214779,2.3214779 0 0 1 -0.328705,1.027203 2.4550142,2.4550142 0 0 1 -0.369793,0.359521 1.982501,1.982501 0 0 1 -0.369793,0.287616 2.9583435,2.9583435 0 0 1 -1.273731,0.410881 1.6024361,1.6024361 0 0 1 -1.201827,-0.390337 c -0.359521,-0.359521 -0.544417,-0.945026 -1.027203,-1.027202 -0.318433,-0.09245 -0.688225,0.06163 -1.027202,-0.0719 -0.50333,-0.236257 -0.431425,-1.027203 -0.81149,-1.386724 a 1.6743402,1.6743402 0 0 0 -1.253188,-0.338977 1.2942753,1.2942753 0 0 1 -1.181283,-0.472513 2.3112059,2.3112059 0 0 1 -0.15408,-0.472513 C 18.353347,30.695491 16.956352,31.322084 16.268126,30.43869 A 2.3317499,2.3317499 0 0 0 15.68262,29.72992 c -0.20544,-0.112992 -0.441697,-0.123264 -0.657409,-0.215712 a 0.95529842,0.95529842 0 0 1 -0.544418,-0.65741 c -0.06163,-0.328705 0,-0.688226 -0.133536,-0.96557 -0.0719,-0.102721 -0.164353,-0.184897 -0.236257,-0.297889 a 0.78067398,0.78067398 0 0 1 0,-0.749858 2.7323589,2.7323589 0 0 1 0.472513,-0.616322 0.54441738,0.54441738 0 0 0 0.195169,-0.380065 0.60604953,0.60604953 0 0 0 0,-0.236256 1.191555,1.191555 0 0 1 0.503329,-1.304548 c 0.174625,-0.10272 0.421153,-0.215712 0.410881,-0.431425 -0.01027,-0.215712 -0.20544,-0.297888 -0.359521,-0.400609 a 1.181283,1.181283 0 0 1 -0.503329,-1.11965 5.2900934,5.2900934 0 0 1 0.390337,-0.934755 1.2840032,1.2840032 0 0 0 -0.164352,-1.119651 1.8592367,1.8592367 0 0 1 -0.174625,-1.284003 2.0544052,2.0544052 0 0 0 0.09245,-0.749858 c -0.0719,-0.441697 -0.493057,-0.76013 -0.636865,-1.191555 a 1.9414129,1.9414129 0 0 1 0.308161,-1.438084 0.53414535,0.53414535 0 0 0 0.0719,-0.277344 c 0,-0.174625 -0.174625,-0.277345 -0.308161,-0.390337 a 1.4072676,1.4072676 0 0 1 0,-2.054405 0.42115307,0.42115307 0 0 0 0.164352,-0.164353 c 0.06163,-0.195168 -0.195168,-0.328705 -0.349248,-0.472513 a 0.78067398,0.78067398 0 0 1 -0.184897,-0.81149 2.0544052,2.0544052 0 0 1 0.482785,-0.739586 0.73958587,0.73958587 0 0 0 0.215713,-0.318433 0.88339424,0.88339424 0 0 0 0.04109,-0.380065 c -0.112992,-0.9655701 0.338977,-5.9269587 1.140195,-6.4816481 0,0 0.09245,0 0.123264,0 0.03082,0 0,0.092448 0,0.05136 a 11.833374,11.833374 0 0 1 2.557735,0.1027203 12.418879,12.418879 0 0 1 2.609094,0.5546894 16.897483,16.897483 0 0 0 2.598823,0.81149 11.473853,11.473853 0 0 0 2.270118,0.020544 17.462444,17.462444 0 0 0 7.313682,-1.4586277 c 0.431425,0.2465286 0.369793,4.8381242 0.164353,5.2900934 A 2.4036541,2.4036541 0 0 0 33.12452,10.305519 c 0,0.308161 0.267073,0.595778 0.246529,0.91421 -0.02054,0.318433 -0.534145,0.70877 -0.852578,1.027203 a 1.5510759,1.5510759 0 0 0 -0.421153,1.263459 2.9172554,2.9172554 0 0 1 0.06163,0.513601 c -0.05136,0.70877 -1.078563,0.965571 -1.242915,1.653797 -0.10272,0.410881 0.143808,0.873122 -0.05136,1.263459 a 1.3969955,1.3969955 0 0 1 -0.770402,0.554689 c -0.287617,0.133537 -0.60605,0.349249 -0.626594,0.667682 a 1.7359724,1.7359724 0 0 1 0,0.462241 0.57523346,0.57523346 0 0 1 -0.225984,0.246529 4.4066992,4.4066992 0 0 1 -1.150467,0.606049 2.0544052,2.0544052 0 0 1 -1.181283,1.951685 3.0816078,3.0816078 0 0 1 1.386723,0.852578 c 0.205441,0.338977 1.027203,0.0719 1.396996,0.164353 a 0.80121803,0.80121803 0 0 1 0.616321,0.698498 4.1088104,4.1088104 0 0 0 -0.267072,0.81149 2.7323589,2.7323589 0 0 0 0.236256,1.479171 z"
     id="path34"
     style="isolation:isolate;stroke-width:1.0272;fill:#66725a;fill-opacity:1" />
  <path
     id="polygon31"
     style="opacity:0.7;isolation:isolate;mix-blend-mode:multiply;fill:#4d3001"
     class="cls-25"
     transform="matrix(1.0272026,0,0,1.0272026,-0.62935701,-1.2710543)"
     d="m 15,17.3 -4.5,2.37 V 29.68 L 15,27.31 Z" />
  <path
     id="polygon32"
     style="isolation:isolate;fill:#6db32b"
     class="cls-26"
     transform="matrix(1.0272026,0,0,1.0272026,-0.62935701,-1.2710543)"
     d="M 10.5,14.94 6,17.3 10.5,19.67 15,17.3 Z" />
  <g
     class="cls-30"
     clip-path="url(#clip-path)"
     id="g39"
     transform="matrix(1.0272026,0,0,1.0272026,-0.62935701,-1.2710543)"
     style="isolation:isolate;fill:#89927d;fill-opacity:1">
    <path
       class="cls-31"
       d="m 13.07,12.78 c 0.36,-0.57 0.84,-1.06 1.23,-1.6 A 3.47,3.47 0 0 0 15,9.72 16,16 0 0 1 15.29,7.9 5.67,5.67 0 0 0 15.76,5.24 l 0.5,0.65 a 1.06,1.06 0 0 1 0.23,0.43 c 0.05,0.31 -0.2,0.58 -0.3,0.88 a 0.94,0.94 0 0 0 0.22,0.89 c 0.2,0.2 0.5,0.34 0.55,0.62 a 0.86,0.86 0 0 1 0,0.35 c -0.24,1 0.28,2.33 -0.33,3.24 -0.19,0.27 -0.46,0.52 -0.48,0.85 0,0.57 0.72,1 0.6,1.57 a 2.14,2.14 0 0 1 -0.21,0.43 c -0.25,0.5 0.13,0.87 0.05,1.43 l -0.21,1.65 a 1.51,1.51 0 0 0 0,0.67 3.12,3.12 0 0 0 0.3,0.53 1.58,1.58 0 0 1 0.13,1.31 c -0.16,0.43 -0.5,0.83 -0.45,1.28 0.05,0.45 0.51,0.78 0.7,1.2 a 4.91,4.91 0 0 1 0.08,1.84 1.67,1.67 0 0 1 0,0.59 1.39,1.39 0 0 1 -0.31,0.45 3.3,3.3 0 0 0 -0.83,1.9 0.77,0.77 0 0 0 0,0.45 1,1 0 0 0 0.25,0.26 4.3,4.3 0 0 0 1,0.53 1.4,1.4 0 0 1 0.47,0.24 c 0.09,0.1 0.15,0.23 0.25,0.34 a 1.54,1.54 0 0 0 0.95,0.33 1.7,1.7 0 0 1 1.42,1 3.55,3.55 0 0 0 0.17,0.64 c 0.22,0.4 0.77,0.45 1.15,0.65 0.38,0.2 0.53,0.56 0.72,1 a 0.93,0.93 0 0 0 0.29,0.46 1.35,1.35 0 0 0 0.44,0.15 1.69,1.69 0 0 1 1.14,0.72 c 0.16,0.28 0.22,0.63 0.46,0.84 0.24,0.21 0.58,0.22 0.87,0.34 0.29,0.12 0.56,0.46 0.38,0.72 a 6.92,6.92 0 0 1 -4,-0.35 A 14.52,14.52 0 0 0 18.14,35 11.71,11.71 0 0 1 15.81,34.41 C 14.75,34.05 13.69,33.67 12.64,33.26 A 5.76,5.76 0 0 1 10.24,31.79 5.94,5.94 0 0 1 9.34,28 v -3.19 a 7.34,7.34 0 0 1 0.16,-2 6,6 0 0 1 1.21,-2.15 4,4 0 0 0 0.54,-2.05 c 0,-0.32 0,-0.66 0.11,-1 a 15.58,15.58 0 0 1 1.71,-4.83 z"
       id="path35"
       style="fill:#89927d;fill-opacity:1" />
    <path
       class="cls-32"
       d="m 16.57,17 a 2.4,2.4 0 0 1 0.25,-1.75 c 0.39,-0.52 0.66,-1 0.32,-1.64 -0.07,-0.13 -0.39,-0.41 -0.4,-0.55 -0.01,-0.14 0.33,-0.45 0.4,-0.58 a 1.47,1.47 0 0 0 0.14,-0.92 c 0,-0.17 -0.07,-0.33 -0.11,-0.5 a 1.55,1.55 0 0 1 0,-0.21 c 0,-0.18 0,-0.2 -0.15,-0.05 L 16.3,10.51 v 0 l 0.1,-0.77 v 0 l 1.06,0.62 a 3.42,3.42 0 0 0 -0.05,-2.19 1.7,1.7 0 0 1 0,-1 1.09,1.09 0 0 0 0,-0.9 A 0.32,0.32 0 0 0 16.91,6.21 2,2 0 0 0 16,8 c 0.07,0.72 0.46,1.38 0.17,2.1 a 0.64,0.64 0 0 0 1.07,0.62 v 0 a 0.65,0.65 0 0 0 0.1,-0.77 v 0 A 0.63,0.63 0 0 0 16.62,9.66 c -0.86,0.23 -0.84,1.2 -0.64,1.89 a 1.12,1.12 0 0 1 0.09,0.47 c 0,0.16 -0.24,0.31 -0.32,0.44 a 1.27,1.27 0 0 0 -0.19,0.93 c 0.08,0.31 0.29,0.47 0.43,0.74 0.14,0.27 0.12,0.18 0,0.39 a 3,3 0 0 0 -0.2,0.4 2.09,2.09 0 0 0 -0.12,1 c 0.07,0.44 0.54,0.73 0.57,1.17 0,0.18 0.31,0.19 0.3,0 z"
       id="path36"
       style="fill:#89927d;fill-opacity:1" />
    <path
       class="cls-31"
       d="M 20.69,20.12 V 20 a 2.77,2.77 0 0 1 0.69,-1.31 c 0.26,-0.26 0.69,-0.46 0.53,-0.91 -0.26,-0.05 -0.42,0.21 -0.66,0.26 a 0.43,0.43 0 0 1 -0.38,-0.07 0.16,0.16 0 0 0 -0.08,-0.05 0.17,0.17 0 0 0 -0.1,0 c -0.3,0.13 -0.49,0.42 -0.77,0.59 -0.28,0.17 -0.34,0.13 -0.44,0 a 0.61,0.61 0 0 1 0.23,-1 7.94,7.94 0 0 0 1.47,-0.51 c 0,0 0,0 0,0 a 0.14,0.14 0 0 0 0,-0.06 0.48,0.48 0 0 0 -0.12,-0.26 0.65,0.65 0 0 1 0,-1 3.75,3.75 0 0 1 1.4,-0.9 c 0.34,-0.16 0.74,-0.51 0.53,-0.83 0,0 -2,0.69 -2.23,0.77 a 0.66,0.66 0 0 1 0.06,-0.65 c 0.14,-0.22 0.66,-0.54 0.4,-0.85 -0.26,-0.31 -0.45,-0.14 -0.69,-0.08 -0.24,0.06 -0.54,0.1 -0.67,-0.11 -0.28,-0.44 0.06,-0.64 -0.54,-0.86 -0.28,-0.11 -0.61,-0.09 -0.83,-0.34 A 1.24,1.24 0 0 1 19,10 0.69,0.69 0 0 0 19.32,9.81 0.45,0.45 0 0 0 19.17,9.23 C 18.99,9.1 18.77,9.03 18.6,8.9 18.43,8.77 18.31,8.5 18.44,8.32 a 0.78,0.78 0 0 1 0.2,-0.16 c 0.34,-0.28 0.3,-0.82 0.23,-1.26 a 41.51,41.51 0 0 0 9.42,-1 C 30,5.49 31.76,5 33.5,4.66 a 0.39,0.39 0 0 1 0.24,0 0.37,0.37 0 0 1 0.17,0.18 1.64,1.64 0 0 1 0,1.32 12.3,12.3 0 0 0 -0.51,1.26 c -0.44,1.68 1.28,3.69 2.08,5 a 8.5,8.5 0 0 1 0.92,4.48 28.73,28.73 0 0 0 0.06,4.64 15.09,15.09 0 0 0 1.54,4.52 1.16,1.16 0 0 1 0.19,0.64 1.17,1.17 0 0 1 -0.56,0.72 l -2.32,1.76 a 1.56,1.56 0 0 1 -0.81,0.33 c -0.23,0 -0.6,0.15 -0.81,0 -0.21,-0.15 -0.18,-0.29 -0.25,-0.45 -0.07,-0.16 -0.23,-0.33 -0.39,-0.27 -0.16,0.06 -0.15,0.14 -0.22,0.22 a 0.52,0.52 0 0 1 -0.47,0.16 0.38,0.38 0 0 1 -0.18,-0.09 c -0.16,-0.19 0.06,-0.51 -0.09,-0.71 -0.15,-0.2 -0.38,-0.09 -0.56,0 -0.18,0.09 -0.43,0.17 -0.56,0 -0.13,-0.17 0,-0.34 -0.13,-0.49 a 0.52,0.52 0 0 0 -0.46,-0.19 1.25,1.25 0 0 1 -0.51,0 c -0.31,-0.13 -0.4,-0.58 -0.72,-0.68 a 1.19,1.19 0 0 0 -0.64,0.08 c -0.21,0.05 -0.49,0 -0.55,-0.21 a 1.42,1.42 0 0 0 0.08,0.65 0.5,0.5 0 0 0 0.53,0.29 1.81,1.81 0 0 0 1,1.45 5.36,5.36 0 0 1 1.56,1 1.11,1.11 0 0 1 -0.12,1.64 1.55,1.55 0 0 1 -0.77,0.08 2.63,2.63 0 0 1 -0.49,0.07 0.31,0.31 0 0 1 -0.25,-0.18 0.59,0.59 0 0 1 0,-0.29 1,1 0 0 0 0,-0.3 0.2,0.2 0 0 0 -0.07,-0.15 0.13,0.13 0 0 0 -0.09,0 0.77,0.77 0 0 0 -0.4,0.18 0.46,0.46 0 0 1 -0.42,0.07 0.43,0.43 0 0 1 -0.15,-0.46 1.1,1.1 0 0 0 0,-0.51 4,4 0 0 0 -0.63,0.3 0.76,0.76 0 0 1 -0.67,0 c -0.47,-0.26 0,-0.51 0.06,-0.76 0.06,-0.25 -0.25,-0.45 -0.49,-0.51 a 0.5,0.5 0 0 1 -0.38,-0.27 c -0.09,-0.27 0.26,-0.51 0.28,-0.79 a 0.54,0.54 0 0 0 -0.38,-0.48 c -0.19,-0.08 -0.42,-0.1 -0.62,-0.17 a 0.39,0.39 0 0 1 -0.26,-0.22 c -0.09,-0.31 0.48,-0.44 0.51,-0.76 a 0.37,0.37 0 0 0 -0.3,-0.34 1.13,1.13 0 0 0 -0.48,0.05 l -0.81,0.22 a 0.89,0.89 0 0 1 -0.78,0 c 0.15,-0.16 0.3,-0.4 0.16,-0.57 a 0.43,0.43 0 0 0 -0.4,-0.1 8.54,8.54 0 0 0 -1.41,0.44 5.62,5.62 0 0 1 -1.69,0 c -0.1,-0.48 0.92,-0.44 1,-0.92 0,-0.25 -0.23,-0.45 -0.48,-0.47 -0.25,-0.02 -0.51,0.06 -0.76,0.06 a 0.51,0.51 0 0 1 -0.21,-0.06 c -0.2,-0.16 0.05,-0.47 0.27,-0.61 a 9.7,9.7 0 0 0 1.82,-1.63 1,1 0 0 0 0.28,-0.39 3.54,3.54 0 0 0 0,-0.73 2.32,2.32 0 0 1 0.42,-0.9 3,3 0 0 0 0.35,-1 4.08,4.08 0 0 0 -1.35,1.39 c -0.35,0.56 -0.71,1.27 -1.36,1.3 a 6.08,6.08 0 0 1 0.16,-1 3.33,3.33 0 0 0 0.38,-1.11 c 0.12,-0.05 0.1,-0.16 0.09,-0.27 z"
       id="path37"
       style="fill:#89927d;fill-opacity:1" />
    <path
       class="cls-33"
       d="m 33.47,23.12 c -1.8,-1.62 -0.88,-3.77 0.07,-5.63 q 1.22,-2.35 2.52,-4.67 A 9.66,9.66 0 0 0 37.27,10.09 3.09,3.09 0 0 0 36.59,7.29 0.62,0.62 0 0 0 36.29,7.11 0.58,0.58 0 0 0 36,7.17 C 35.35,7.41 34.73,5.64 34.51,5.27 34.29,4.9 34.15,4.54 33.82,4.56 c -0.5,0 -0.9,1 -1.42,1.17 a 2.31,2.31 0 0 0 -0.74,0.25 1.11,1.11 0 0 0 -0.24,1.2 4.35,4.35 0 0 1 0.33,1.26 c 0,0.64 -0.55,1.17 -0.59,1.81 a 9.51,9.51 0 0 1 0.05,1.06 c -0.12,0.67 -1.69,1.27 -1.54,1.88 0,0.17 0.28,0.17 0.45,0.21 0.77,0.18 0.37,1.24 0.06,1.62 l -0.9,1.08 c -0.09,0.12 -0.2,0.25 -0.17,0.4 a 1.11,1.11 0 0 0 0.17,0.27 c 0.23,0.38 -0.09,0.88 -0.48,1.08 -0.39,0.2 -0.86,0.24 -1.25,0.45 -0.14,0.08 -0.28,0.2 -0.26,0.36 l 0.47,0.22 a 6.32,6.32 0 0 1 -2,2.06 1.32,1.32 0 0 0 -0.29,0.24 2.07,2.07 0 0 0 -0.15,0.5 2,2 0 0 1 -1,1 c -0.43,0.26 -0.87,0.43 -1.3,0.66 l -1.1,0.6 a 14.84,14.84 0 0 1 2.08,-0.26 6,6 0 0 0 1.88,-0.51 0.67,0.67 0 0 1 0.52,0 0.42,0.42 0 0 1 0.15,0.46 1.12,1.12 0 0 1 -0.27,0.44 c 0.34,-0.13 1,-0.32 1.32,-0.07 0.11,0.09 0.43,1 0.25,1.06 a 1.38,1.38 0 0 1 1.57,1.06 0.52,0.52 0 0 0 0.09,0.28 0.38,0.38 0 0 0 0.29,0.12 c 0.54,0.06 1.17,-0.15 1.57,0.21 0.17,0.15 0.26,0.38 0.44,0.52 0.44,0.36 1.28,0.09 1.51,0.61 0.06,0.12 0.06,0.28 0.16,0.37 0.1,0.09 0.4,0.05 0.6,0 a 0.93,0.93 0 0 1 0.74,0.18 0.84,0.84 0 0 0 0.27,0.16 0.53,0.53 0 0 0 0.3,-0.07 l 1.77,-0.88 c 0.55,-0.27 1.17,-0.63 1.24,-1.24 a 1.3,1.3 0 0 0 -0.72,-1.2 6,6 0 0 0 -1.39,-0.48 7.22,7.22 0 0 1 -2.82,-1.58 z"
       id="path38"
       style="fill:#89927d;fill-opacity:1" />
    <path
       class="cls-32"
       d="M 29.88,12.81 C 30,12.6 30.4,12.49 30.61,12.39 a 6.86,6.86 0 0 0 0.79,-0.32 1.23,1.23 0 0 0 0.51,-0.91 c 0,-0.4 -0.24,-0.67 -0.3,-1 a 2.45,2.45 0 0 1 0.21,-1 1.82,1.82 0 0 0 0,-1.24 C 31.7,7.62 31.5,7.41 31.72,7.1 A 1.88,1.88 0 0 0 32.28,5.79 0.7028869,0.7028869 0 1 0 30.89,6 c 0,-0.18 0,-0.09 0,0 a 1.28,1.28 0 0 0 -0.15,0.25 2.6,2.6 0 0 0 -0.21,0.59 1.72,1.72 0 0 0 0.22,1.16 0.85,0.85 0 0 1 0.13,0.9 4.79,4.79 0 0 0 -0.41,1.1 1.76,1.76 0 0 0 0.31,1.19 c 0,-0.07 0,0 0,0 0,0 -0.13,0.25 -0.18,0.33 a 3.92,3.92 0 0 1 -0.55,0.6 2.2,2.2 0 0 0 -0.37,0.58 c -0.06,0.14 0.13,0.26 0.21,0.12 z"
       id="path39"
       style="fill:#89927d;fill-opacity:1" />
  </g>
  <path
     class="cls-31"
     d="m 27.310554,26.566136 a 0.93475437,0.93475437 0 0 1 0.359521,1.027203 c 0,0.15408 -0.133537,0.308161 -0.09245,0.462241 0.112993,0.503329 1.140195,0.143808 1.304548,0.636866 0,0.09245 0,0.184896 0.06163,0.277344 0.164352,0.380065 0.96557,0.102721 1.027202,0.513602 0,0.143808 -0.0719,0.328704 0,0.441697 0.0719,0.112992 0.143809,0.06163 0.225985,0.08218 0.60605,0.164352 0.616322,1.027202 1.027203,1.489444 a 1.9516849,1.9516849 0 0 0 0.955298,0.441697 l 0.626594,-1.694885 a 0.5546894,0.5546894 0 0 0 0,-0.225984 c 0,-0.287617 -0.349249,-0.431425 -0.636866,-0.503329 A 0.69849777,0.69849777 0 0 1 31.727525,29.277951 2.2290296,2.2290296 0 0 1 31.573444,28.91843 C 31.2961,28.353469 30.279169,28.599997 29.950464,28.05558 a 2.4652862,2.4652862 0 0 0 -0.215712,-0.472513 0.81149005,0.81149005 0 0 0 -0.441697,-0.215713 l -1.027203,-0.267072 c 0,0 -0.174624,-0.647138 -0.215712,-0.719042 a 3.564393,3.564393 0 0 0 -0.55469,-0.626594 0.4725132,0.4725132 0 0 0 -0.164352,-0.15408 0.52387333,0.52387333 0 0 0 -0.256801,0 2.6399107,2.6399107 0 0 0 -1.027202,0.30816 3.5233049,3.5233049 0 0 1 1.263459,0.65741 z"
     id="path40"
     style="isolation:isolate;stroke-width:1.0272;fill:#bec7b1;fill-opacity:1" />
  <path
     class="cls-31"
     d="m 23.54072,28.240476 a 1.4791717,1.4791717 0 0 0 -0.05136,0.513602 c 0.112992,0.431425 0.780674,0.421153 1.027203,0.81149 0.246528,0.390337 -0.267073,0.96557 -0.06163,1.396995 0.205441,0.431425 1.150467,0.431425 1.222372,0.955299 0,0.287616 -0.215713,0.554689 -0.133537,0.832034 0.08218,0.277345 0.267073,0.297889 0.451969,0.390337 l 2.146854,0.945026 a 1.1401949,1.1401949 0 0 0 -0.133537,-1.62298 c -0.225984,-0.174624 -0.544417,-0.277345 -0.647137,-0.544417 -0.10272,-0.267073 0,-0.380065 -0.08218,-0.55469 -0.205441,-0.503329 -1.099107,-0.267072 -1.41754,-0.719042 -0.318433,-0.451969 -0.06163,-0.924482 -0.647138,-1.335363 -0.380065,-0.267073 -0.647137,-0.390337 -0.821762,-0.86285 -0.174624,-0.472513 -0.462241,-1.818149 -1.479171,-1.284003 a 1.0272026,1.0272026 0 0 1 0.626593,1.078562 z"
     id="path41"
     style="isolation:isolate;stroke-width:1.0272;fill:#bec7b1;fill-opacity:1" />
  <path
     class="cls-34"
     d="m 30.186721,25.045876 a 10.066585,10.066585 0 0 1 -0.133536,-1.325091 1.4175396,1.4175396 0 0 1 0.164352,-0.780674 6.6357288,6.6357288 0 0 1 2.793991,0.719042 3.4308567,3.4308567 0 0 1 1.386724,3.174056 c 0,0 -2.054406,-0.739586 -3.081608,-1.078563 -1.027203,-0.338977 -1.129923,-0.70877 -1.129923,-0.70877 z"
     id="path42"
     style="isolation:isolate;stroke-width:1.0272" />
  <path
     class="cls-35"
     d="m 30.186721,23.99813 a 3.4924888,3.4924888 0 0 1 2.403654,0.534145 c 1.078563,0.76013 1.109379,1.427812 1.109379,1.427812 l 0.883394,-0.195169 a 2.9480715,2.9480715 0 0 0 -1.314819,-1.859237 18.407471,18.407471 0 0 0 -2.958344,-0.955298 l -0.2568,1.027203 z"
     id="path43"
     style="isolation:isolate;fill:url(#linearGradient118);stroke-width:1.0272" />
  <path
     class="cls-36"
     d="m 30.186721,25.045876 a 10.066585,10.066585 0 0 1 -0.133536,-1.325091 1.4175396,1.4175396 0 0 1 0.164352,-0.780674 6.6357288,6.6357288 0 0 1 2.793991,0.719042 3.4308567,3.4308567 0 0 1 1.386724,3.174056 c 0,0 -2.054406,-0.739586 -3.081608,-1.078563 -1.027203,-0.338977 -1.129923,-0.70877 -1.129923,-0.70877 z"
     id="path44"
     style="isolation:isolate" />
  <path
     class="cls-34"
     d="m 26.437432,32.852616 c -0.482786,-0.133536 -0.945027,0.15408 -1.171011,0.965571 -0.225985,0.81149 -0.215713,1.910596 0.35952,2.054405 a 18.643727,18.643727 0 0 1 3.256233,1.458627 4.9100284,4.9100284 0 0 0 -0.595778,-3.081607 3.8211937,3.8211937 0 0 0 -1.848964,-1.396996 z"
     id="path52"
     style="isolation:isolate;stroke-width:1.0272" />
  <path
     class="cls-36"
     d="m 30.309985,23.155824 a 0.80121803,0.80121803 0 0 0 -0.616321,-0.698498 c -0.338977,-0.09245 -1.191555,0.174624 -1.396996,-0.164353 a 3.0816078,3.0816078 0 0 0 -1.386723,-0.852578 2.0544052,2.0544052 0 0 0 1.222371,-1.951685 4.4066992,4.4066992 0 0 0 1.150467,-0.606049 0.57523346,0.57523346 0 0 0 0.225984,-0.246529 1.7359724,1.7359724 0 0 0 0,-0.462241 c 0,-0.318433 0.338977,-0.534145 0.626594,-0.667682 a 1.3969955,1.3969955 0 0 0 0.770402,-0.554689 c 0.195168,-0.390337 -0.05136,-0.852578 0.05136,-1.263459 0.164352,-0.688226 1.191555,-0.945027 1.242915,-1.653797 a 2.9172554,2.9172554 0 0 0 -0.06163,-0.513601 1.5510759,1.5510759 0 0 1 0.421153,-1.263459 c 0.318433,-0.328705 0.81149,-0.575234 0.852578,-1.027203 0.04109,-0.451969 -0.195168,-0.606049 -0.246528,-0.91421 A 2.4036541,2.4036541 0 0 1 33.597034,8.9290675 C 33.802474,8.4770984 33.864106,3.8855028 33.432681,3.6389741 A 17.462444,17.462444 0 0 1 26.077911,5.0873298 11.473853,11.473853 0 0 1 23.776977,5.0154256 16.897483,16.897483 0 0 1 21.178154,4.2039356 12.418879,12.418879 0 0 0 18.56906,3.6492462 11.833374,11.833374 0 0 0 16.011325,3.5465259 c 0,0 0.08218,0 0,-0.05136 -0.08218,-0.05136 -0.08218,0 -0.123264,0 -0.76013,0.5752334 -1.212099,5.5058059 -1.109379,6.5330081 a 0.88339424,0.88339424 0 0 1 0,0.328705 0.73958587,0.73958587 0 0 1 -0.215713,0.318433 2.0544052,2.0544052 0 0 0 -0.482785,0.739586 0.78067398,0.78067398 0 0 0 0.184897,0.81149 c 0.15408,0.143808 0.410881,0.277345 0.349249,0.472513 a 0.42115307,0.42115307 0 0 1 -0.164353,0.164352 1.4072676,1.4072676 0 0 0 0,2.054406 c 0.133536,0.112992 0.297889,0.215712 0.308161,0.390337 a 0.53414535,0.53414535 0 0 1 -0.0719,0.277344 1.9414129,1.9414129 0 0 0 -0.308161,1.438084 c 0.143808,0.431425 0.564961,0.749858 0.636866,1.191555 a 2.0544052,2.0544052 0 0 1 -0.09245,0.749858 1.8592367,1.8592367 0 0 0 0.133537,1.335363 1.2840032,1.2840032 0 0 1 0.164352,1.027203 5.2900934,5.2900934 0 0 0 -0.390337,0.934754 1.181283,1.181283 0 0 0 0.462241,1.171011 c 0.154081,0.10272 0.359521,0.215713 0.359521,0.400609 0,0.184897 -0.236256,0.328705 -0.410881,0.431425 a 1.191555,1.191555 0 0 0 -0.462241,1.345636 0.60604953,0.60604953 0 0 1 0,0.236256 0.54441738,0.54441738 0 0 1 -0.174624,0.328705 2.7323589,2.7323589 0 0 0 -0.472514,0.616322 0.78067398,0.78067398 0 0 0 0,0.749858 c 0.07191,0.112992 0.164353,0.195168 0.236257,0.297888 0.174624,0.277345 0.0719,0.636866 0.133536,0.965571 a 0.95529842,0.95529842 0 0 0 0.544418,0.657409 c 0.215712,0.09245 0.451969,0.102721 0.657409,0.215713 a 2.3317499,2.3317499 0 0 1 0.585506,0.70877 c 0.688226,0.883394 2.054405,0.2568 2.496102,1.499716 a 2.3112059,2.3112059 0 0 0 0.154081,0.472513 1.2942753,1.2942753 0 0 0 1.181283,0.472513 1.6743402,1.6743402 0 0 1 1.253187,0.338977 c 0.380065,0.400609 0.30816,1.150467 0.81149,1.386723 0.297888,0.133537 0.667681,0 1.027202,0.07191 0.493058,0.133536 0.677954,0.719041 1.027203,1.027202 a 1.6024361,1.6024361 0 0 0 1.222371,0.431425 2.9583435,2.9583435 0 0 0 1.273731,-0.410881 1.982501,1.982501 0 0 0 0.369793,-0.287617 2.4550142,2.4550142 0 0 0 0.369793,-0.35952 2.3214779,2.3214779 0 0 0 0.328705,-1.027203 l 0.112992,-0.873122"
     id="path45"
     style="isolation:isolate" />
  <path
     class="cls-38"
     d="m 25.204788,33.653834 a 3.6362972,3.6362972 0 0 1 1.705157,1.263459 8.7209501,8.7209501 0 0 1 0.81149,1.818149 l 1.294275,0.585505 c 0,0 0.143808,-2.300933 -0.903938,-3.184328 a 13.353634,13.353634 0 0 0 -1.67434,-1.232643 1.6024361,1.6024361 0 0 0 -1.232644,0.749858 z"
     id="path53"
     style="isolation:isolate;fill:url(#linear-gradient-26);stroke-width:1.0272" />
  <path
     class="cls-32"
     d="m 23.859153,27.14137 c 0.790946,0.06163 0.328705,1.458627 0.81149,1.653796 0.277345,0 0.883394,0.05136 1.109379,0.380065 0.225984,0.328705 0.338977,0.832034 0.349249,1.160739 0,0.143808 0.05136,0.123264 0.09245,0.143808 a 1.8078766,1.8078766 0 0 1 1.160739,0.451969 1.0272026,1.0272026 0 0 1 0.236256,0.81149 c -0.05136,0.215713 0,0.338977 0,0.215713 0,-0.123265 0,0 0,0 a 1.2531872,1.2531872 0 0 1 0.832035,0.832034 c 0,0.164352 0,0.236257 0.06163,0.246529 l -0.595778,0.677953 a 0.93475437,0.93475437 0 0 1 -0.277344,-0.441697 c -0.0719,-0.380065 0,-0.359521 -0.338977,-0.523873 a 0.94502639,0.94502639 0 0 1 -0.400609,-0.287617 0.76012992,0.76012992 0 0 1 -0.133537,-0.534145 c 0,-0.205441 0.112993,-0.380065 0,-0.493058 -0.112992,-0.112992 -0.421153,-0.195168 -0.821762,-0.328704 -0.770402,-0.256801 -0.297889,-1.222371 -0.616321,-1.57162 -0.318433,-0.349249 -0.431425,-0.174625 -0.86285,-0.308161 -0.934755,-0.410881 0,-1.57162 -0.65741,-2.054405 z"
     id="path46"
     style="isolation:isolate;stroke-width:1.0272" />
  <path
     class="cls-32"
     d="m 27.670075,25.867638 a 0.80121803,0.80121803 0 0 1 0.821762,0.770402 c 0,0.225985 0,0.287617 0,0.256801 a 1.6435242,1.6435242 0 0 0 0.297888,0 1.2840032,1.2840032 0 0 1 1.396996,1.171011 c 0,0.05136 0,0 0,0 0,0 0,0 0,0 a 2.1571255,2.1571255 0 0 1 1.201827,0.277345 1.2737312,1.2737312 0 0 1 0.554689,0.852578 c 0,0 0,-0.05136 0,0 0,0.05136 0.184897,0 0.410881,0.133536 a 1.0272026,1.0272026 0 0 1 0.595778,0.65741 1.6229801,1.6229801 0 0 1 -0.287617,1.314819 l -0.780674,-0.451969 c 0.164353,-0.297889 0.236257,-0.503329 0.195169,-0.60605 -0.04109,-0.10272 -0.297889,-0.08218 -0.60605,-0.287616 A 0.790946,0.790946 0 0 1 31.131747,29.52448 c -0.09245,-0.277345 0,-0.267073 -0.184896,-0.431425 -0.184897,-0.164353 -0.81149,-0.07191 -1.222371,-0.338977 a 0.66768169,0.66768169 0 0 1 -0.256801,-0.472513 c 0,-0.246529 0,-0.246529 -0.0719,-0.359521 -0.277345,-0.534146 -0.719042,-0.133537 -1.232643,-0.482786 -0.513601,-0.349249 0.133536,-1.027202 -0.493057,-1.468899 z"
     id="path47"
     style="isolation:isolate;stroke-width:1.0272" />
  <path
     class="cls-37"
     d="m 27.844699,33.099145 a 0.5136013,0.5136013 0 0 0 0.390337,0.328705 1.2942753,1.2942753 0 0 0 0.523873,0 1.0272026,1.0272026 0 0 1 0.246529,0 c 0.246529,0 0.338977,0.369792 0.554689,0.493057 a 0.71904182,0.71904182 0 0 0 0.297889,0.09245 2.1879415,2.1879415 0 0 0 0.965571,0 1.0785627,1.0785627 0 0 0 0.698497,-0.636866"
     id="path48"
     style="isolation:isolate" />
  <path
     class="cls-37"
     d="m 32.415751,31.455621 a 2.6912708,2.6912708 0 0 0 0.76013,-0.06163 h 0.133536 0.10272 a 1.57162,1.57162 0 0 0 1.027203,0.174625 1.0272026,1.0272026 0 0 0 0.749858,-0.667682"
     id="path49"
     style="isolation:isolate" />
  <path
     class="cls-33"
     d="m 34.531788,27.254362 a 0.70876979,0.70876979 0 0 1 -0.308161,0.338977 2.1468534,2.1468534 0 0 0 -0.821762,-0.636866 9.2448234,9.2448234 0 0 1 -0.924482,-0.195168 c -0.236257,-0.112993 -0.400609,-0.349249 -0.626594,-0.482786 a 1.6332521,1.6332521 0 0 0 -0.903938,-0.20544 c -0.647138,0 -0.790946,-0.09245 -1.088835,-0.595778 -0.297889,-0.503329 -0.575233,-0.719041 -0.81149,-1.11965 a 0.49305725,0.49305725 0 0 1 -0.09245,-0.246529 c 0.451969,0 0.780674,0 1.099107,0.359521 a 1.0991068,1.0991068 0 0 0 0.297888,0.318433 c 0.328705,0.195168 0.852579,-0.112993 1.109379,0.174624 0.112992,0.123264 0.133537,0.338977 0.277345,0.421153 0.143808,0.08218 0.482785,-0.112992 0.739586,-0.112992 0.503329,0 0.667681,0.842306 1.160739,0.842306 a 1.4072676,1.4072676 0 0 0 0.359521,-0.08218 c 0.493057,-0.08218 0.328704,0.431425 0.657409,0.606049 a 0.68822574,0.68822574 0 0 0 0.472513,0 c 0.801219,-0.267072 1.099107,0.338977 0.903939,1.078563"
     id="path50"
     style="isolation:isolate;stroke-width:1.0272;fill:#bec7b1;fill-opacity:1" />
  <path
     class="cls-32"
     d="m 29.159518,24.008402 a 1.0272026,1.0272026 0 0 1 1.160739,0.400609 c 0.133537,0.164352 0.174625,0.20544 0.308161,0.20544 0.133536,0 0.688226,-0.143808 1.027203,0.08218 a 0.69849777,0.69849777 0 0 1 0.2568,0.338977 c 0,0.09245 0.08218,0.123265 0.06163,0.102721 -0.02054,-0.02054 0,0 0,0 a 1.2634592,1.2634592 0 0 1 0.708769,-0.164353 c 0.523874,0.123264 0.667682,0.585506 0.965571,0.780674 0.05136,0 0,0 0.287616,-0.06163 a 0.7498579,0.7498579 0 0 1 0.575234,0.06163 0.95529842,0.95529842 0 0 1 0.328705,0.421153 c 0.08218,0.205441 0.08218,0.112992 0,0.10272 h 0.143808 c 1.171011,-0.451969 1.828421,0.852579 1.52026,1.787333 l -0.86285,-0.236257 a 0.87312221,0.87312221 0 0 0 -0.06163,-0.708769 c -0.215713,-0.184897 -0.441697,0.08218 -0.76013,0 a 0.87312221,0.87312221 0 0 1 -0.76013,-0.647138 c 0,-0.09245 0,-0.09245 0,0 0,0.09245 0.06163,0 0,0 a 1.0272026,1.0272026 0 0 1 -0.832034,-0.05136 c -0.359521,-0.215713 -0.493058,-0.60605 -0.719042,-0.76013 0,0 -0.154081,0 -0.410881,0.10272 a 0.66768169,0.66768169 0 0 1 -0.523874,-0.0719 0.73958587,0.73958587 0 0 1 -0.267072,-0.369793 c -0.08218,-0.174624 0,-0.133536 -0.174625,-0.174624 -0.174624,-0.04109 -0.729313,0.08218 -1.027202,-0.164353 -0.297889,-0.246528 -0.482785,-0.70877 -1.027203,-0.924482 z"
     id="path51"
     style="isolation:isolate;stroke-width:1.0272" />
  <path
     class="cls-34"
     d="m 31.50154,30.459234 c -0.544417,-0.10272 -1.314819,0.832034 -1.407267,1.777061 -0.09245,0.945026 0.236256,1.643524 0.626593,1.818148 0.390337,0.174625 1.212099,0.359521 2.413926,0.842306 a 3.4411287,3.4411287 0 0 1 1.633253,1.160739 6.8308973,6.8308973 0 0 0 -0.513602,-3.513033 3.9136419,3.9136419 0 0 0 -2.752903,-2.085221 z"
     id="path54"
     style="isolation:isolate;stroke-width:1.0272" />
  <path
     class="cls-36"
     d="m 26.437432,32.852616 c -0.482786,-0.133536 -0.945027,0.15408 -1.171011,0.965571 -0.225985,0.81149 -0.215713,1.910596 0.35952,2.054405 a 18.643727,18.643727 0 0 1 3.256233,1.458627 4.9100284,4.9100284 0 0 0 -0.595778,-3.081607 3.8211937,3.8211937 0 0 0 -1.848964,-1.396996 z"
     id="path98"
     style="isolation:isolate" />
  <path
     id="polygon23"
     style="isolation:isolate;fill:url(#linear-gradient-13)"
     class="cls-17"
     d="M 46.489716 22.569222 L 42.000506 24.930763 L 42.000506 32.040105 L 28.500552 39.134236 L 28.500552 36.470372 L 23.999934 38.839518 L 23.999934 41.49958 L 23.999934 44.269922 L 46.489716 32.4394 L 46.489716 29.680465 L 46.489716 22.569222 z "
     transform="matrix(1.0272026,0,0,1.0272026,-0.62935701,-1.2710543)" />
  <path
     class="cls-39"
     d="m 30.515426,31.424804 a 4.5813236,4.5813236 0 0 1 2.054405,1.4689 3.163784,3.163784 0 0 1 0.698498,1.961957 l 1.561348,0.821762 c 0,0 -0.0719,-2.670727 -0.81149,-3.595209 a 7.3958587,7.3958587 0 0 0 -2.506375,-1.62298 l -0.647137,0.349249 z"
     id="path55"
     style="isolation:isolate;fill:url(#linear-gradient-27);stroke-width:1.0272" />
  <path
     class="cls-36"
     d="m 31.50154,30.459234 c -0.544417,-0.10272 -1.314819,0.832034 -1.407267,1.777061 -0.09245,0.945026 0.236256,1.643524 0.626593,1.818148 0.390337,0.174625 1.212099,0.359521 2.413926,0.842306 a 3.4411287,3.4411287 0 0 1 1.633253,1.160739 6.8308973,6.8308973 0 0 0 -0.513602,-3.513033 3.9136419,3.9136419 0 0 0 -2.752903,-2.085221 z"
     id="path56"
     style="isolation:isolate" />
  <path
     class="cls-34"
     d="m 35.394638,27.922044 c -0.493057,0 -0.70877,0.503329 -0.81149,1.355907 -0.10272,0.852578 0.0719,1.746244 0.441697,1.797605 0.369793,0.05136 1.777061,0.277344 2.948072,0.564961 a 4.4272432,4.4272432 0 0 1 1.633252,0.70877 4.1088104,4.1088104 0 0 0 -0.832034,-2.927528 5.2181892,5.2181892 0 0 0 -3.379497,-1.499715 z"
     id="path57"
     style="isolation:isolate;stroke-width:1.0272" />
  <path
     class="cls-40"
     d="m 34.768045,29.206047 a 6.8308973,6.8308973 0 0 1 2.280389,0.719042 2.773447,2.773447 0 0 1 1.479172,1.869508 l 1.027203,0.359521 a 3.4205847,3.4205847 0 0 0 -0.86285,-2.711815 7.0774259,7.0774259 0 0 0 -3.081608,-1.540803 1.5099878,1.5099878 0 0 0 -1.027203,0.770401 z"
     id="path58"
     style="isolation:isolate;fill:url(#linear-gradient-28);stroke-width:1.0272" />
  <path
     class="cls-32"
     d="m 27.49545,29.545024 -0.20544,0.133536 a 1.0272026,1.0272026 0 0 0 -0.195169,0.164352 0.84230613,0.84230613 0 0 0 -0.143808,0.267073 0.39033699,0.39033699 0 0 0 0,0.154081 0.50332927,0.50332927 0 0 0 0.05136,0.20544 0.22598457,0.22598457 0 0 0 0.123264,0.09245 0.20544052,0.20544052 0 0 0 0.133537,0 0.19516849,0.19516849 0 0 0 0.112992,-0.246528 c 0,0 0,-0.06163 0,-0.09245 0,-0.03082 0,0 0,0 v 0 c 0,0 0,-0.08218 0,0 0,0.08218 0,0 0,0 v 0 0 0 a 0.09244823,0.09244823 0 0 0 0,-0.05136 v -0.05136 0 0 a 0.42115307,0.42115307 0 0 1 0.05136,-0.09245 0.71904182,0.71904182 0 0 1 0.133536,-0.174625 c 0,0 0,-0.123264 -0.0719,-0.08218 z"
     id="path59"
     style="isolation:isolate;stroke-width:1.0272" />
  <path
     class="cls-32"
     d="m 28.820542,29.771008 a 2.6707268,2.6707268 0 0 0 -1.181283,1.078563 1.9105968,1.9105968 0 0 0 -0.215713,0.852578 1.2840032,1.2840032 0 0 0 0.287617,0.832034 0.2773447,0.2773447 0 0 0 0.369793,0 0.28761673,0.28761673 0 0 0 0.0719,-0.369793 1.4175396,1.4175396 0 0 1 0,-1.222371 2.752903,2.752903 0 0 1 0.729314,-1.099107 0.05555461,0.05555461 0 0 0 -0.06163,-0.09245 z"
     id="path60"
     style="isolation:isolate;stroke-width:1.0272" />
  <path
     class="cls-32"
     d="m 29.159518,30.942019 a 2.0544052,2.0544052 0 0 0 -0.410881,0.595778 1.4483557,1.4483557 0 0 0 -0.05136,0.81149 0.24652862,0.24652862 0 0 0 0.297889,0.174624 0.25680065,0.25680065 0 0 0 0.164352,-0.297889 0.85257816,0.85257816 0 0 1 0,-0.15408 c 0,0 0,-0.05136 0,-0.08218 v 0 0 a 1.7565164,1.7565164 0 0 1 0,-0.390337 1.0272026,1.0272026 0 0 1 0.184897,-0.585506 c 0.05136,-0.08218 -0.06163,-0.15408 -0.123264,-0.09245 z"
     id="path61"
     style="isolation:isolate;stroke-width:1.0272" />
  <path
     class="cls-32"
     d="m 32.508199,28.045308 a 1.57162,1.57162 0 0 0 -0.164353,0.112992 0.83203411,0.83203411 0 0 0 -0.143808,0.123265 0.87312221,0.87312221 0 0 0 -0.246529,0.35952 1.3353634,1.3353634 0 0 0 -0.09245,0.410881 1.3764515,1.3764515 0 0 0 0,0.205441 0.41088104,0.41088104 0 0 0 0.164353,0.277345 0.25680065,0.25680065 0 0 0 0.338977,-0.09245 0.24652862,0.24652862 0 0 0 -0.09245,-0.328704 c 0,0 0,0 0,0 v 0 0 a 0.88339424,0.88339424 0 0 1 0,-0.164353 v -0.15408 c 0,0 0,0 0,0 0,0 0,0 0,0 0,0 0,-0.06163 0,-0.09245 0,-0.03082 0,-0.07191 0,0 v 0 c 0,0 0,-0.05136 0,-0.08218 a 1.0272026,1.0272026 0 0 1 0,-0.143808 0.80121803,0.80121803 0 0 1 0,-0.143808 0.4725132,0.4725132 0 0 1 0.09245,-0.154081 c 0,0 0,-0.0719 -0.05136,0 z"
     id="path62"
     style="isolation:isolate;stroke-width:1.0272" />
  <path
     class="cls-32"
     d="m 33.740842,27.891228 a 1.4791717,1.4791717 0 0 0 -0.318433,0.472513 5.8139667,5.8139667 0 0 0 -0.20544,0.595777 2.6707268,2.6707268 0 0 0 -0.112993,0.636866 1.0272026,1.0272026 0 0 0 0.154081,0.698498 0.24652862,0.24652862 0 0 0 0.410881,-0.164353 1.4894438,1.4894438 0 0 0 -0.06163,-0.308161 2.4036541,2.4036541 0 0 1 0,-0.267072 3.163784,3.163784 0 0 1 0,-0.544418 c 0,-0.174624 0,-0.349249 0.0719,-0.513601 a 1.5305319,1.5305319 0 0 1 0.15408,-0.534145 0.06163216,0.06163216 0 0 0 -0.09245,-0.0719 z"
     id="path63"
     style="isolation:isolate;stroke-width:1.0272" />
  <path
     class="cls-32"
     d="m 22.996303,24.480915 c 0.462241,-0.05136 0.91421,-0.143808 1.376451,-0.205441 0.462241,-0.06163 0.832034,0 1.242915,-0.08218 a 1.4894438,1.4894438 0 0 0 0.873123,-0.503329 c 0.287616,-0.277345 0.657409,-0.462241 0.76013,-0.873122 a 0.20544052,0.20544052 0 0 0 -0.338977,-0.195169 c -0.256801,0.225985 -0.544418,0.421153 -0.780674,0.667682 a 1.5099878,1.5099878 0 0 1 -0.739586,0.544417 l -1.099107,0.267073 c -0.431425,0.112992 -0.86285,0.225984 -1.304547,0.297889 0,0 0,0.09245 0,0.08218 z"
     id="path64"
     style="isolation:isolate;stroke-width:1.0272" />
  <path
     class="cls-32"
     d="m 16.155133,14.219161 a 1.961957,1.961957 0 0 0 -0.349248,0.945026 1.2429151,1.2429151 0 0 0 0.0719,0.513602 2.372838,2.372838 0 0 1 0.184896,0.359521 c 0,0 0,0 0,0 v 0.15408 c 0,0.05136 0,0.10272 0,0.15408 0,0.05136 0,0.246529 0,0.359521 0,0.112992 0,0.195169 0,0.297889 0,0.10272 0,0.06163 0,0.09245 v 0 c 0,0.143809 0.225985,0.143809 0.236257,0 0,0.10272 0,0 0,0 v -0.08218 c 0,-0.09245 0,-0.184896 0.05136,-0.267073 a 2.0544052,2.0544052 0 0 0 0,-0.698497 0.82176208,0.82176208 0 0 0 -0.09245,-0.267073 3.2767763,3.2767763 0 0 1 -0.267073,-0.390337 1.3148193,1.3148193 0 0 1 0.123264,-1.088835 0.06435406,0.06435406 0 0 0 -0.112992,-0.06163 z"
     id="path65"
     style="isolation:isolate;stroke-width:1.0272" />
  <path
     class="cls-32"
     d="m 16.504382,23.217456 a 1.6537962,1.6537962 0 0 1 -0.133536,1.797604 c -0.225985,0.297889 -0.523873,0.493057 -0.65741,0.86285 a 1.5408039,1.5408039 0 0 0 0.112993,1.129923 0.41088104,0.41088104 0 0 0 0.790946,-0.215712 1.961957,1.961957 0 0 1 0,-0.482785 0.65740966,0.65740966 0 0 1 0.174624,-0.369793 3.9855461,3.9855461 0 0 0 0.585506,-0.934755 1.4072676,1.4072676 0 0 0 0,-1.027202 2.5782785,2.5782785 0 0 0 -0.677954,-0.81149 0.08423688,0.08423688 0 0 0 -0.133536,0.10272 z"
     id="path66"
     style="isolation:isolate;stroke-width:1.0272" />
  <path
     class="cls-32"
     d="m 16.329758,26.822937 a 0.88339424,0.88339424 0 0 0 -0.903938,0.369793 0.96557044,0.96557044 0 0 0 0.380065,1.325091 3.14324,3.14324 0 0 0 0.647137,0.256801 0.64713764,0.64713764 0 0 1 0.277345,0.297889 2.362566,2.362566 0 0 0 0.924482,0.873122 c 0.677954,0.328705 1.479172,0.164352 1.972229,0.832034 0.133537,0.174624 0.215713,0.369793 0.338977,0.544417 a 1.3148193,1.3148193 0 0 0 0.585506,0.441697 c 0.451969,0.195169 0.770402,0.595778 1.232643,0.749858 0.225984,0.08218 0.410881,-0.15408 0.359521,-0.369793 A 1.6640682,1.6640682 0 0 0 21.404139,31.270724 C 21.239786,31.14746 21.05489,31.055012 20.900809,30.931747 20.746729,30.808483 20.736457,30.64413 20.654281,30.49005 a 2.2701177,2.2701177 0 0 0 -1.592164,-1.150467 4.1088104,4.1088104 0 0 1 -0.955299,-0.15408 c -0.318432,-0.154081 -0.410881,-0.482785 -0.585505,-0.76013 a 1.4278116,1.4278116 0 0 0 -0.893666,-0.667682 c -0.154081,0 -0.246529,0 -0.328705,-0.184896 a 3.4205847,3.4205847 0 0 1 -0.164353,-0.410881 v 0.2568 a 0.41088104,0.41088104 0 0 1 0.236257,-0.30816 0.14380836,0.14380836 0 0 0 0,-0.267073 z"
     id="path67"
     style="isolation:isolate;stroke-width:1.0272" />
  <path
     class="cls-32"
     d="m 17.110432,20.3002 a 1.2942753,1.2942753 0 0 1 0,0.595778 4.1088104,4.1088104 0 0 1 -0.184897,0.606049 1.2223711,1.2223711 0 0 0 0.143809,1.201827 c 0.184896,0.215713 0.554689,-0.0719 0.400609,-0.297888 -0.154081,-0.225985 0,-0.70877 0,-1.027203 A 2.0544052,2.0544052 0 0 0 17.223424,20.3002 c 0,-0.06163 -0.133536,0 -0.112992,0.05136 z"
     id="path68"
     style="isolation:isolate;stroke-width:1.0272" />
  <path
     class="cls-32"
     d="m 18.969669,20.207752 c 0,0.267073 -0.215713,0.575234 -0.318433,0.801218 a 5.7317905,5.7317905 0 0 0 -0.287617,0.688226 2.6912708,2.6912708 0 0 0 0,1.561348 c 0.0719,0.184896 0.338977,0.308161 0.297889,0.523873 -0.04109,0.215713 -0.369793,0.410881 -0.503329,0.585506 a 0.94502639,0.94502639 0 0 0 0,1.160739 c 0.143808,0.184896 0.380065,-0.05136 0.297888,-0.236257 a 0.62659359,0.62659359 0 0 1 0.08218,-0.688226 6.4611044,6.4611044 0 0 0 0.441697,-0.482785 0.77040195,0.77040195 0 0 0 0.123264,-0.554689 c -0.06163,-0.225985 -0.287617,-0.297889 -0.359521,-0.493058 a 2.4447422,2.4447422 0 0 1 0.236257,-1.540804 3.2870483,3.2870483 0 0 0 0.225984,-0.677953 1.1401949,1.1401949 0 0 0 -0.133536,-0.65741 0.04109,0 0 0 0 -0.08218,0 z"
     id="path69"
     style="isolation:isolate;stroke-width:1.0272" />
  <path
     id="polygon69"
     style="isolation:isolate;fill:#2e3436"
     class="cls-32"
     transform="matrix(1.0272026,0,0,1.0272026,-0.62935701,-1.2710543)"
     d="M 18.69,27.08 V 27.07 Z" />
  <path
     class="cls-32"
     d="m 18.209539,26.53532 c 0,0.164352 0,0.318433 0,0.482785 a 1.0272026,1.0272026 0 0 0 0.76013,1.027203 c 0.20544,0.06163 0.544417,0 0.677953,0.215712 a 0.68822574,0.68822574 0 0 1 0.06163,0.154081 0.58550548,0.58550548 0 0 0 0.123265,0.236256 0.60604953,0.60604953 0 0 0 0.410881,0.164353 0.21571255,0.21571255 0 0 0 0,-0.431425 c -0.09245,0 -0.10272,-0.05136 -0.123264,-0.133537 A 0.71904182,0.71904182 0 0 0 19.935237,27.9015 1.3867235,1.3867235 0 0 0 19.226467,27.593339 0.96557044,0.96557044 0 0 1 18.88749,27.490619 0.90393829,0.90393829 0 0 1 18.661506,27.274906 2.6604547,2.6604547 0 0 1 18.466337,26.956473 1.3969955,1.3969955 0 0 1 18.322529,26.514776 c 0,-0.06163 -0.10272,0 -0.10272,0 z"
     id="path70"
     style="isolation:isolate;stroke-width:1.0272" />
  <path
     class="cls-32"
     d="m 21.321963,23.44344 a 14.134308,14.134308 0 0 0 2.054405,-0.174624 5.0127487,5.0127487 0 0 0 1.109379,0 2.4036541,2.4036541 0 0 0 0.91421,-0.421153 c 0.267073,-0.195169 0.493057,-0.431425 0.770402,-0.60605 a 4.4580593,4.4580593 0 0 1 0.729314,-0.380065 2.2803898,2.2803898 0 0 0 1.222371,-1.027202 c 0.112992,-0.246529 -0.205441,-0.564962 -0.410881,-0.318433 a 2.9686155,2.9686155 0 0 1 -1.222371,0.76013 5.3311815,5.3311815 0 0 0 -1.345636,0.903938 3.2048721,3.2048721 0 0 1 -1.766788,0.677954 11.175964,11.175964 0 0 1 -2.054405,0.462241 c -0.102721,0 -0.123265,0.15408 0,0.164352 z"
     id="path71"
     style="isolation:isolate;stroke-width:1.0272" />
  <path
     class="cls-32"
     d="m 20.520745,13.828824 a 1.0272026,1.0272026 0 0 1 0.35952,-0.451969 h -0.112992 a 0.30816078,0.30816078 0 0 0 0.246529,-0.06163 l 0.174624,-0.0719 a 1.5510759,1.5510759 0 0 0 0.482785,-0.328704 0.82176208,0.82176208 0 0 0 0.154081,-0.215713 0.76012992,0.76012992 0 0 0 0.06163,-0.277345 1.7976046,1.7976046 0 0 0 0,-0.544417 0.19516849,0.19516849 0 0 0 -0.380065,-0.05136 c -0.05136,0.15408 -0.112992,0.297889 -0.164352,0.451969 a 0.77040195,0.77040195 0 0 1 -0.07191,0.123264 c 0,0 -0.0719,0.0719 0,0 l -0.0719,0.05136 a 1.191555,1.191555 0 0 0 -0.380065,0.369793 c -0.06163,0.133537 -0.215712,0.246529 -0.164352,0.421153 v -0.123264 a 1.2531872,1.2531872 0 0 0 -0.174625,0.667682 z"
     id="path72"
     style="isolation:isolate;stroke-width:1.0272" />
  <path
     class="cls-32"
     d="m 24.424114,12.380468 a 0.50332927,0.50332927 0 0 1 -0.05136,0.421153 1.3250914,1.3250914 0 0 1 -0.225984,0.308161 c -0.184897,0.215713 -0.421153,0.400609 -0.616322,0.60605 a 1.9516849,1.9516849 0 0 0 -0.595777,1.653796 c 0,0.236256 0.431425,0.184896 0.421153,-0.05136 a 1.4483557,1.4483557 0 0 1 0.297888,-0.81149 7.3136825,7.3136825 0 0 1 0.564962,-0.677954 1.5510759,1.5510759 0 0 0 0.410881,-0.749858 1.3353634,1.3353634 0 0 0 -0.08218,-0.749858 0.07190418,0.07190418 0 0 0 -0.123265,0 z"
     id="path73"
     style="isolation:isolate;stroke-width:1.0272" />
  <path
     class="cls-32"
     d="m 21.9691,17.043968 a 2.2495737,2.2495737 0 0 0 -0.451969,0.318433 3.5335769,3.5335769 0 0 0 -0.390337,0.472513 1.7154283,1.7154283 0 0 0 -0.256801,0.554689 4.345067,4.345067 0 0 1 -0.133536,0.523874 0.2362566,0.2362566 0 0 0 0.0719,0.308161 0.2362566,0.2362566 0 0 0 0.308161,-0.08218 c 0.195169,-0.318432 0.215713,-0.698497 0.390337,-1.027202 l 0.256801,-0.482785 A 2.9891596,2.9891596 0 0 1 22.041,17.126141 c 0,0 0,-0.133536 -0.0719,-0.09245 z"
     id="path74"
     style="isolation:isolate;stroke-width:1.0272" />
  <path
     class="cls-32"
     d="m 20.44884,20.536457 c -0.10272,0.338977 -0.277344,0.647138 -0.400609,0.975842 a 1.0272026,1.0272026 0 0 0 0,0.955299 0.22598457,0.22598457 0 0 0 0.390337,-0.225985 0.5546894,0.5546894 0 0 1 0,-0.287617 3.3384085,3.3384085 0 0 1 0.112993,-0.431425 7.3136825,7.3136825 0 0 0 0.10272,-0.96557 c 0,-0.112992 -0.164353,-0.123264 -0.184897,0 z"
     id="path75"
     style="isolation:isolate;stroke-width:1.0272" />
  <path
     class="cls-32"
     d="m 19.986599,23.309904 v 0.0719 0 0 c 0,0 0,0 0,0 v 0 h 0.05136 a 0.12326431,0.12326431 0 0 0 -0.10272,0.06163 0.09244823,0.09244823 0 0 0 0,0.08218 0.13353634,0.13353634 0 0 0 0,0.06163 c 0,0 0,0 0,0.05136 a 0.14380836,0.14380836 0 0 0 0.205441,0 v 0 c 0,0 0,-0.05136 0,-0.08218 v -0.08218 a 0.02568,0 90 0 0 0,-0.05136 c 0,0 0,0 0,-0.05136 a 0.15408039,0.15408039 0 0 0 -0.09245,0 0.15408039,0.15408039 0 0 0 -0.10272,0 0.13353634,0.13353634 0 0 0 0,0.10272 v 0.08218 h 0.29789 v 0 -0.05136 0 0 h -0.05136 0.05136 v 0 -0.08218 c 0,0 0,-0.05136 0,0 z"
     id="path76"
     style="isolation:isolate;stroke-width:1.0272" />
  <path
     class="cls-32"
     d="m 23.366096,18.307427 a 3.5335769,3.5335769 0 0 1 -0.277345,0.277345 1.181283,1.181283 0 0 0 -0.20544,0.297889 2.362566,2.362566 0 0 0 -0.123265,0.349249 0.7498579,0.7498579 0 0 1 -0.225984,0.246528 1.8695087,1.8695087 0 0 0 -0.780674,1.304548 c 0,0.236256 0.338977,0.267072 0.400609,0.05136 a 1.8284206,1.8284206 0 0 1 0.267072,-0.595778 4.2628908,4.2628908 0 0 1 0.50333,-0.462241 0.90393829,0.90393829 0 0 0 0.277344,-0.688226 1.181283,1.181283 0 0 1 0.256801,-0.688226 c 0,-0.06163 0,-0.143808 -0.09245,-0.09245 z"
     id="path77"
     style="isolation:isolate;stroke-width:1.0272" />
  <path
     class="cls-32"
     d="m 28.224764,14.260249 -0.08218,0.267073 a 1.972229,1.972229 0 0 1 -0.123264,0.2568 0.42115307,0.42115307 0 0 1 -0.07191,0.112993 v 0.06163 0 0 l -0.06163,0.08218 v 0 a 0.53414535,0.53414535 0 0 1 -0.10272,0.112992 0.2362566,0.2362566 0 0 0 0,0.308161 0.22598457,0.22598457 0 0 0 0.308161,0 0.91421031,0.91421031 0 0 0 0.195168,-0.318433 1.592164,1.592164 0 0 0 0.06163,-0.318433 2.7118149,2.7118149 0 0 0 0,-0.287616 c 0,-0.112993 0,-0.215713 0,-0.318433 a 0.03595,0 0 0 0 -0.0719,0 z"
     id="path78"
     style="isolation:isolate;stroke-width:1.0272" />
  <path
     class="cls-32"
     d="m 25.471861,18.553956 v 0 c 0,0 0,0 0,0 z"
     id="path79"
     style="isolation:isolate;stroke-width:1.0272" />
  <path
     class="cls-32"
     d="m 25.512949,18.451236 c 0,0 0,0 0,0 0,0 0,0 0,0 z"
     id="path80"
     style="isolation:isolate;stroke-width:1.0272" />
  <path
     class="cls-32"
     d="m 30.371617,12.698901 a 4.8792124,4.8792124 0 0 1 0,0.667682 1.0272026,1.0272026 0 0 1 -0.267072,0.523873 1.4586277,1.4586277 0 0 1 -0.297889,0.267073 2.6707268,2.6707268 0 0 0 -0.256801,0.318433 1.4380836,1.4380836 0 0 0 -0.246528,0.790946 c 0,0.174624 0.287616,0.287616 0.369793,0.10272 a 2.1160374,2.1160374 0 0 1 0.380065,-0.65741 c 0.20544,-0.20544 0.482785,-0.338977 0.626593,-0.616321 0.246529,-0.472514 -0.06163,-0.945027 -0.164352,-1.41754 a 0.0821765,0.0821765 0 0 0 -0.164353,0 z"
     id="path81"
     style="isolation:isolate;stroke-width:1.0272" />
  <path
     class="cls-31"
     d="m 26.930489,4.1525754 c -1.982501,0 -4.026634,-0.9450264 -6.317296,-1.1299228 -2.290662,-0.1848965 -3.810922,-0.1027203 -4.71486,0.5444173 -0.903938,0.6471377 0,1.9105969 4.612139,3.0816078 a 18.428015,18.428015 0 0 0 11.00134,-1.1196508 c 1.777061,-0.780674 2.22903,-1.8078766 1.540804,-2.2084856 -0.688225,-0.400609 -1.961957,0.1027203 -2.968615,0.4314251 a 8.8133983,8.8133983 0 0 1 -3.153512,0.400609 z"
     id="path82"
     style="isolation:isolate;stroke-width:1.0272;fill:#888a85" />
  <g
     class="cls-41"
     clip-path="url(#clip-path-2)"
     id="g84"
     transform="matrix(1.0272026,0,0,1.0272026,-0.62935701,-1.2710543)"
     style="isolation:isolate;fill:#bec7b1;fill-opacity:1">
    <path
       class="cls-33"
       d="M 20.36,8.31 A 12.88,12.88 0 0 1 19.14,7.08 C 19,7 18.93,6.8 19,6.66 A 0.4,0.4 0 0 1 19.18,6.53 6.24,6.24 0 0 1 22.27,6.08 20.66,20.66 0 0 0 25.41,6.2 4,4 0 0 0 28.2,4.91 C 24.36,3.91 20.47,2.55 16.54,3.04 a 3.59,3.59 0 0 0 -1.7,0.54 1.55,1.55 0 0 0 -0.72,1.54 2.22,2.22 0 0 0 1.17,1.3 16.21,16.21 0 0 0 4.41,1.88 z"
       id="path83"
       style="fill:#bec7b1;fill-opacity:1" />
    <path
       class="cls-29"
       d="m 27.6,6.56 a 1,1 0 0 0 -0.78,0.59 0.75,0.75 0 0 0 0.29,0.79 1.64,1.64 0 0 0 0.83,0.3 5.87,5.87 0 0 0 1.87,-0.14 14.75,14.75 0 0 0 3.75,-1.35 3.31,3.31 0 0 0 1,-0.69 1.27,1.27 0 0 0 0.32,-1.14 C 34.53,3.67 32,3.1 31.2,4.21 a 7,7 0 0 1 -1.1,1.54 5.6,5.6 0 0 1 -2.5,0.81 z"
       id="path84"
       style="fill:#bec7b1;fill-opacity:1" />
  </g>
  <path
     class="cls-42"
     d="m 26.930489,4.1525754 c -1.982501,0 -4.026634,-0.9450264 -6.317296,-1.1299228 -2.290662,-0.1848965 -3.810922,-0.1027203 -4.71486,0.5444173 -0.903938,0.6471377 0,1.9105969 4.612139,3.0816078 a 18.428015,18.428015 0 0 0 11.00134,-1.1196508 c 1.777061,-0.780674 2.22903,-1.8078766 1.540804,-2.2084856 -0.688225,-0.400609 -1.961957,0.1027203 -2.968615,0.4314251 a 8.8133983,8.8133983 0 0 1 -3.153512,0.400609 z"
     id="path85"
     style="isolation:isolate" />
  <path
     class="cls-32"
     d="m 23.694801,21.224683 a 2.5474624,2.5474624 0 0 0 1.027202,0 2.4344702,2.4344702 0 0 0 0.934755,-0.564962 c 0.09245,-0.09245 0.164352,-0.225984 0.297888,-0.267072 0.133537,-0.04109 0.297889,0 0.441697,-0.09245 a 0.63686561,0.63686561 0 0 0 0.472514,-0.76013 0.22598457,0.22598457 0 0 0 -0.431426,0.06163 0.09244823,0.09244823 0 0 1 0,0.05136 l 0.06163,-0.112993 a 0.32870483,0.32870483 0 0 1 -0.205441,0.143809 c -0.112992,0 -0.246528,0 -0.369793,0 a 1.0272026,1.0272026 0 0 0 -0.410881,0.143808 2.9788875,2.9788875 0 0 0 -0.349249,0.369793 3.1946001,3.1946001 0 0 1 -0.297888,0.338977 1.171011,1.171011 0 0 1 -0.308161,0.287617 2.2393017,2.2393017 0 0 1 -0.852578,0.267072 c -0.06163,0 0,0.102721 0,0.112993 z"
     id="path86"
     style="isolation:isolate;stroke-width:1.0272" />
  <path
     class="cls-32"
     d="m 27.557082,18.595044 h -0.09245 v 0 c 0,0 0,0 0,0 v 0 h 0.08218 a 0.25680065,0.25680065 0 0 0 -0.15408,0 v 0 h -0.225985 v 0 l 0.164353,0.0719 a 0.2362566,0.2362566 0 0 0 -0.123265,-0.08218 0.22598457,0.22598457 0 0 0 -0.164352,0 0.20544052,0.20544052 0 0 0 -0.123264,0.10272 0.21571255,0.21571255 0 0 0 0,0.195169 0.28761673,0.28761673 0 0 0 0.246528,0.195168 0.25680065,0.25680065 0 0 0 0.184897,-0.08218 0.35952091,0.35952091 0 0 0 0.0719,-0.123264 l -0.164352,0.164352 0.215712,-0.09245 0.09245,-0.06163 v 0 a 0.20544052,0.20544052 0 0 0 0.06163,-0.154081 v 0.08218 a 0.49305725,0.49305725 0 0 0 0.08218,-0.164353 0.07190418,0.07190418 0 0 0 -0.06163,-0.09245 z"
     id="path87"
     style="isolation:isolate;stroke-width:1.0272" />
  <path
     class="cls-32"
     d="m 28.132316,17.691106 a 0.93475437,0.93475437 0 0 0 0.523873,-0.143809 c 0.10272,-0.05136 0.184897,-0.123264 0.287617,-0.174624 0.10272,-0.05136 0.184896,-0.08218 0.267073,-0.143808 a 1.0272026,1.0272026 0 0 0 0.595777,-1.027203 c 0,-0.184897 -0.09245,-0.338977 -0.133536,-0.513601 a 0.4725132,0.4725132 0 0 1 0.10272,-0.359521 c 0.20544,-0.338977 0.400609,-0.677954 0.626594,-1.027203 0.225984,-0.349249 -0.154081,-0.400609 -0.318433,-0.246529 a 5.8345108,5.8345108 0 0 0 -0.780674,0.811491 1.6537962,1.6537962 0 0 0 -0.308161,0.493057 1.0272026,1.0272026 0 0 0 0,0.575233 1.0272026,1.0272026 0 0 1 0.09245,0.380065 c 0,0.123265 -0.195168,0.215713 -0.277344,0.297889 -0.08218,0.08218 -0.267073,0.297889 -0.40061,0.441697 a 1.0272026,1.0272026 0 0 0 -0.287616,0.503329 0.030815,0 -90 0 0 0,0.06163 z"
     id="path88"
     style="isolation:isolate;stroke-width:1.0272" />
  <path
     class="cls-32"
     d="m 16.658463,20.3002 0.2568,-0.585505 0.112993,-0.308161 a 0.88339424,0.88339424 0 0 0 0.09245,-0.277345 0.790946,0.790946 0 0 0 0,-0.380065 1.3148193,1.3148193 0 0 0 -0.164352,-0.287616 1.1401949,1.1401949 0 0 1 -0.236257,-0.472514 0.31843281,0.31843281 0 0 0 -0.616322,0.08218 1.4483557,1.4483557 0 0 0 0.154081,0.626593 1.7565164,1.7565164 0 0 0 0.20544,0.277345 v 0 a 0.50332927,0.50332927 0 0 1 0,0.09245 2.0544052,2.0544052 0 0 1 0,1.129923 c 0,0.09245 0.123265,0.164352 0.164353,0.0719 z"
     id="path89"
     style="isolation:isolate;stroke-width:1.0272" />
  <path
     class="cls-32"
     d="m 16.555742,21.748556 a 0.21571255,0.21571255 0 0 1 0,-0.112992 c 0,-0.05136 0,-0.09245 0,-0.133537 v 0 -0.05136 c 0,0 0,0 0,0 a 0.77040195,0.77040195 0 0 1 0.07191,-0.123264 l -0.205441,0.123264 a 0.28761673,0.28761673 0 0 0 0.236257,-0.15408 l 0.06163,-0.09245 -0.174625,0.133536 a 0.30816078,0.30816078 0 0 0 0.215713,-0.174625 0.32870483,0.32870483 0 0 0 -0.10272,-0.431425 0.30816078,0.30816078 0 0 0 -0.421153,0.112993 0.33897686,0.33897686 0 0 0 0,0.297888 v -0.15408 a 0.90393829,0.90393829 0 0 0 0,0.164352 0.2773447,0.2773447 0 0 0 0.123264,0.267073 l -0.10272,-0.143808 a 0.76012992,0.76012992 0 0 0 0,0.143808 c 0,0 0,0.09245 0.05136,0.143808 a 0.93475437,0.93475437 0 0 0 0.0719,0.143809 c 0,0 0,0.09245 0.0719,0.143808 0.0719,0.05136 0.174625,0 0.133537,-0.08218 z"
     id="path90"
     style="isolation:isolate;stroke-width:1.0272" />
  <path
     class="cls-32"
     d="m 17.695937,17.608929 a 1.9311409,1.9311409 0 0 1 0.287617,-0.955298 3.2767763,3.2767763 0 0 0 0.308161,-0.431425 1.0272026,1.0272026 0 0 0 0.0719,-0.65741 c 0,-0.287616 -0.20544,-0.636865 -0.09245,-0.924482 0.112992,-0.287617 0.441697,-0.431425 0.359521,-0.780674 a 0.19516849,0.19516849 0 0 0 -0.328705,-0.08218 c -0.10272,0.09245 -0.195169,0.215712 -0.308161,0.308161 a 1.191555,1.191555 0 0 0 -0.308161,0.400609 1.8592367,1.8592367 0 0 0 0,1.109378 0.48278522,0.48278522 0 0 1 -0.09245,0.390337 1.0272026,1.0272026 0 0 0 -0.184896,0.564962 2.2495737,2.2495737 0 0 0 0,0.523873 c 0,0.184897 0.112992,0.369793 0.164352,0.55469 a 0.07190418,0.07190418 0 0 0 0.133536,0 z"
     id="path91"
     style="isolation:isolate;stroke-width:1.0272" />
  <path
     class="cls-32"
     d="m 18.168451,13.017334 a 0.82176208,0.82176208 0 0 1 0,-0.154081 0.42115307,0.42115307 0 0 1 0.0719,-0.15408 2.5577345,2.5577345 0 0 1 0.15408,-0.287617 0.54441738,0.54441738 0 0 0 0,-0.359521 v -0.0719 0 c 0,0 0,0.05136 0,0 0,-0.05136 -0.05136,0.06163 0,0 a 2.0544052,2.0544052 0 0 0 0.195169,-0.225984 0.69849777,0.69849777 0 0 0 0.112992,-0.338977 1.0888348,1.0888348 0 0 0 0,-0.318433 c 0,0 0,-0.06163 0,0 v -0.05136 -0.133536 a 0.22598457,0.22598457 0 0 0 -0.328705,-0.133537 0.35952091,0.35952091 0 0 0 -0.195168,0.297889 c 0,0 0,0.05136 0,0 v 0 a 0.42115307,0.42115307 0 0 0 0,0.112992 c 0,0 0,0.08218 0,0 a 0.13353634,0.13353634 0 0 1 0,0.06163 c 0,0 0,0 0,0.06163 v 0 c 0,0 0,0 0,0 l -0.05136,0.06163 a 0.92448234,0.92448234 0 0 0 -0.215712,0.318433 0.57523346,0.57523346 0 0 0 0,0.349248 0.68822574,0.68822574 0 0 0 0.123264,0.205441 c 0,0 0,0 0,0 a 0.790946,0.790946 0 0 1 0.0719,0.277345 c 0,0.06163 0,0.123264 0,0.184896 a 0.90393829,0.90393829 0 0 1 0,0.174625 c 0,0.0719 0.112993,0.09245 0.123265,0 z"
     id="path92"
     style="isolation:isolate;stroke-width:1.0272" />
  <path
     class="cls-32"
     d="m 18.332803,9.4118527 a 0.39033699,0.39033699 0 0 1 0.164352,-0.1232643 h 0.07191 v 0 l 0.112992,-0.05136 c 0,0 0.123264,0 0,0 h 0.15408 0.06163 a 0.77040195,0.77040195 0 0 0 0.246529,-0.2362566 0.80121803,0.80121803 0 0 0 0,-0.790946 1.4791717,1.4791717 0 0 0 -0.225985,-0.2773447 0.88339424,0.88339424 0 0 0 -0.369792,-0.2362566 0.32870483,0.32870483 0 0 0 -0.287617,0.082176 0.29788875,0.29788875 0 0 0 -0.0719,0.2876167 0.84230613,0.84230613 0 0 0 0.123264,0.2054406 c 0.05136,0.05136 0,0 0,0 l 0.08218,0.1027202 v 0.05136 c 0,0.061632 0,-0.05136 0,0 a 0.45196914,0.45196914 0 0 1 0.08218,0.1129923 v 0.05136 c 0,0.061632 0,-0.061632 0,0 a 0.14380836,0.14380836 0 0 1 0,0.061632 c 0,0.071904 0,-0.071904 0,0 v 0.071904 c 0,0.061632 0,-0.061632 0,0 v 0.1129923 c 0,0.061632 0,0 0,0 0,0 0,0 0,0 v 0 0.071904 c 0,0 0,0 0,0 0,0 0,0 0,0 v 0 0 l -0.08218,0.071904 a 0.73958587,0.73958587 0 0 0 -0.195168,0.4006091 0.07190418,0.07190418 0 0 0 0.123264,0.05136 z"
     id="path93"
     style="isolation:isolate;stroke-width:1.0272" />
  <path
     class="cls-32"
     d="m 19.966055,13.417943 v 0 a 0.12326431,0.12326431 0 0 0 -0.123264,0 0.61632156,0.61632156 0 0 0 -0.349249,0.369793 1.6127081,1.6127081 0 0 0 0,0.308161 c 0,0.10272 0,0.184896 0,0.277344 v 0.123265 a 0.38006496,0.38006496 0 0 0 0,0.112992 v 0 c 0,0 0,0.06163 0,0 0,-0.06163 0,0 0,0 l -0.05136,0.10272 a 1.0272026,1.0272026 0 0 0 -0.123265,0.523873 c 0,0.123265 0.195169,0.205441 0.267073,0.0719 a 1.181283,1.181283 0 0 1 0.256801,-0.328705 1.0991068,1.0991068 0 0 1 0.143808,-0.164353 0.72931385,0.72931385 0 0 0 0.184897,-0.287616 1.2429151,1.2429151 0 0 0 0,-0.667682 c 0,0 0,0 0,0 0,0 0,0 0,0 v -0.10272 a 0.2362566,0.2362566 0 0 1 0,-0.164353 0.11299229,0.11299229 0 0 0 0,-0.123264 v 0 z"
     id="path94"
     style="isolation:isolate;stroke-width:1.0272" />
  <path
     class="cls-32"
     d="M 18.466339,19.33463 A 1.7667885,1.7667885 0 0 1 18.7745,18.605316 c 0.15408,-0.267073 0.390337,-0.277345 0.636866,-0.421153 A 0.68822574,0.68822574 0 0 0 19.729799,17.434305 1.0272026,1.0272026 0 0 0 19.58599,17.1056 c 0,-0.0719 -0.123264,-0.164352 -0.123264,-0.246528 l -0.287617,0.380065 1.41754,-0.534146 c 0.349249,-0.133536 0.842306,-0.267072 0.883394,-0.70877 0.04109,-0.441697 -0.338977,-0.647137 -0.174625,-1.027202 0.164353,-0.380065 0.462242,-0.390337 0.441698,-0.739586 a 0.10272026,0.10272026 0 0 0 -0.195169,0 c 0,0.143808 -0.256801,0.236257 -0.369793,0.308161 a 1.2326431,1.2326431 0 0 0 -0.277345,0.287616 1.1401949,1.1401949 0 0 0 -0.195168,0.821763 1.2120991,1.2120991 0 0 0 0.0719,0.20544 c 0,0.08218 0.08218,0 0,0.09245 a 3.0816078,3.0816078 0 0 1 -0.544417,0.184897 l -1.242915,0.400609 a 0.39033699,0.39033699 0 0 0 -0.287617,0.369793 1.1504669,1.1504669 0 0 0 0.267073,0.688225 c 0.06163,0.09245 0,0.07191 0,0 0,-0.0719 -0.06163,0 -0.07191,0 -0.01027,0 -0.20544,0.143809 -0.297888,0.236257 a 1.2120991,1.2120991 0 0 0 -0.308161,0.677954 6.8822574,6.8822574 0 0 0 0.08218,0.790946 0.046225,0 -180 0 0 0.09245,0 z"
     id="path95"
     style="isolation:isolate;stroke-width:1.0272" />
  <path
     class="cls-32"
     d="m 26.314167,25.230773 a 0.93475437,0.93475437 0 0 0 0.688226,-0.06163 2.4036541,2.4036541 0 0 0 0.308161,-0.256801 1.9414129,1.9414129 0 0 1 0.277344,-0.205441 1.4791717,1.4791717 0 0 0 0.544418,-0.523873 1.0991068,1.0991068 0 0 0 -0.08218,-0.842306 0.17650263,0.17650263 0 0 0 -0.349249,0.05136 1.2429151,1.2429151 0 0 1 0,0.585506 l -0.05136,0.0719 -0.09245,0.09245 -0.246528,0.195169 a 4.1807146,4.1807146 0 0 0 -0.421153,0.534145 0.64713764,0.64713764 0 0 1 -0.513602,0.225984 0.07190418,0.07190418 0 0 0 0,0.133537 z"
     id="path96"
     style="isolation:isolate;stroke-width:1.0272" />
  <path
     class="cls-36"
     d="m 35.394638,27.922044 c -0.493057,0 -0.70877,0.503329 -0.81149,1.355907 -0.10272,0.852578 0.0719,1.746244 0.441697,1.797605 0.369793,0.05136 1.777061,0.277344 2.948072,0.564961 a 4.4272432,4.4272432 0 0 1 1.633252,0.70877 4.1088104,4.1088104 0 0 0 -0.832034,-2.927528 5.2181892,5.2181892 0 0 0 -3.379497,-1.499715 z"
     id="path97"
     style="isolation:isolate" />
  <path
     class="cls-32"
     d="m 20.428296,8.2100257 a 0.790946,0.790946 0 0 1 0.267073,0.5341454 0.88339424,0.88339424 0 0 1 -0.215713,0.5033292 1.8592367,1.8592367 0 0 0 -0.338976,0.5855055 0.89366626,0.89366626 0 0 0 0.112992,0.7087702 0.26707268,0.26707268 0 0 0 0.462241,-0.267073 0.08217621,0.08217621 0 0 1 0,-0.06163 v 0 -0.05136 A 1.6846123,1.6846123 0 0 1 20.880265,9.8638219 2.0544052,2.0544052 0 0 0 21.20897,9.2269563 0.78067398,0.78067398 0 0 0 21.013802,8.5490026 5.0641088,5.0641088 0 0 0 20.510472,8.1175775 c -0.06163,-0.05136 -0.112992,0 -0.0719,0.1027202 z"
     id="path99"
     style="isolation:isolate;stroke-width:1.0272" />
  <path
     class="cls-32"
     d="m 21.886924,7.8196887 a 0.50332927,0.50332927 0 0 0 -0.05136,0.2465286 v 0.1129923 c 0,0 0,0.05136 0,0.082176 v 0 c 0,0 0,0 0,0 v 0.061632 c 0,0 0,0 0,0 0,0 0,0.071904 0,0.1027202 0,0.030816 0.05136,0.1129923 0.0719,0.1746245 0.02054,0.061632 0,-0.05136 0,0 v 0 0.061632 a 0.14380836,0.14380836 0 0 1 0,0.061632 c 0,0 0.05136,0.1027203 0,0.05136 -0.05136,-0.05136 0,0 0,0 a 0.15408039,0.15408039 0 0 0 0,0.061632 v 0 a 0.43142509,0.43142509 0 0 0 0.08218,0.1848965 c 0.154081,0.1540803 0.380065,0 0.421153,-0.1643525 A 0.67795372,0.67795372 0 0 0 22.195085,8.2100257 0.72931385,0.72931385 0 0 0 22.051276,8.1073054 v 0 H 21.9691 v 0 0 A 0.25680065,0.25680065 0 0 1 21.86638,7.8710488 c 0,-0.05136 -0.06163,-0.092448 -0.09245,0 z"
     id="path100"
     style="isolation:isolate;stroke-width:1.0272" />
  <path
     class="cls-32"
     d="m 23.129839,10.110351 a 1.3969955,1.3969955 0 0 0 -0.20544,0.883394 1.592164,1.592164 0 0 0 0,0.225984 1.0272026,1.0272026 0 0 0 0,0.174625 v 0.06163 c 0,0 0,-0.06163 0,0 v 0 a 0.17462444,0.17462444 0 0 1 0,0.0719 c 0,0 0,0.05136 0,0 0,-0.05136 0,0 0,0 a 0.44169712,0.44169712 0 0 0 0,0.112992 c 0,0.102721 0,0.225985 0.164352,0.287617 l -0.0719,-0.0719 c 0,0 0,0 0,0 a 0.16435242,0.16435242 0 0 0 0.277345,0.0719 c 0.05136,-0.05136 -0.08218,0 0,0 l 0.10272,-0.0719 a 1.0272026,1.0272026 0 0 0 0.0719,-0.15408 0.59577751,0.59577751 0 0 0 0.05136,-0.267073 1.5408039,1.5408039 0 0 0 -0.15408,-0.564962 v -0.10272 0 0 -0.08218 0 a 0.43142509,0.43142509 0 0 1 0,-0.10272 0.56496143,0.56496143 0 0 1 0,-0.390337 0.10272026,0.10272026 0 1 0 -0.174625,-0.102721 z"
     id="path101"
     style="isolation:isolate;stroke-width:1.0272" />
  <path
     class="cls-32"
     d="m 25.389685,8.6414508 a 4.0471782,4.0471782 0 0 0 -0.359521,0.9655704 1.3148193,1.3148193 0 0 0 0.20544,0.9552988 c 0.174625,0.277344 0.45197,0.462241 0.575234,0.770402 a 1.0272026,1.0272026 0 0 1 0,0.842306 c -0.123264,0.277344 -0.308161,0.369793 -0.164353,0.677953 0.06163,0.133537 0.184897,0.390337 0.133537,0.534146 -0.05136,0.143808 -0.277345,0.143808 -0.400609,0.215712 a 0.7498579,0.7498579 0 0 0 -0.380065,0.513602 5.136013,5.136013 0 0 1 -0.205441,0.677953 c -0.05136,0.133537 0.09245,0.215713 0.195169,0.195169 0.10272,-0.02054 0.328705,-0.225985 0.390337,-0.410881 0.06163,-0.184897 0,-0.513601 0.338977,-0.616322 0.677953,-0.215712 0.390337,-0.801218 0.328705,-1.314819 l -0.123265,0.20544 a 1.7051563,1.7051563 0 0 0 0.513601,-1.900324 C 26.283351,10.552048 25.934102,10.315791 25.759478,9.925454 A 2.6501827,2.6501827 0 0 1 25.605397,8.6619948 c 0,-0.1232643 -0.15408,-0.1232643 -0.195168,0 z"
     id="path102"
     style="isolation:isolate;stroke-width:1.0272" />
  <path
     class="cls-32"
     d="m 24.537107,16.19139 -0.0719,0.10272 0.06163,-0.06163 v 0 0.05136 0.05136 0 l -0.0719,0.09245 v 0 a 0.89366626,0.89366626 0 0 0 -0.0719,0.174625 0.31843281,0.31843281 0 0 0 0,0.195168 0.28761673,0.28761673 0 0 0 0.154081,0.112993 0.25680065,0.25680065 0 0 0 0.30816,-0.174625 0.29788875,0.29788875 0 0 0 0,-0.09245 0.29788875,0.29788875 0 0 0 0,-0.09245 c 0,0 0,-0.06163 0,-0.09245 v -0.09245 c 0,0 0,-0.05136 0,-0.08218 v 0 c 0,0 0,-0.0719 0,-0.112992 a 0.16435242,0.16435242 0 0 0 0,-0.09245 0.18489647,0.18489647 0 0 0 -0.0719,-0.05136 0.15408039,0.15408039 0 0 0 -0.164352,0.07191 z"
     id="path103"
     style="isolation:isolate;stroke-width:1.0272" />
  <path
     class="cls-32"
     d="M 26.807224,8.3538341 A 0.34924888,0.34924888 0 0 1 26.673688,8.1483935 c 0,0 0,0 0,-0.061632 v 0 0 -0.1129923 c 0,0 0,0 0,0 a 0.95529842,0.95529842 0 0 1 0,-0.1335363 c 0,0 0,0 0,0 0,0 0,0 0,0 v 0 c 0,0 0,0 0,0 v 0 c 0,0 0,0 0,0 l 0.0719,-0.05136 a 0.2362566,0.2362566 0 0 0 0.0719,-0.071904 v 0 c 0,0 0,0 0,0 a 0.24652862,0.24652862 0 0 0 0.09245,-0.3287048 0.25680065,0.25680065 0 0 0 -0.338977,-0.082176 0.53414535,0.53414535 0 0 0 -0.174625,0.1232643 0.14380836,0.14380836 0 0 0 -0.05136,0.082176 c 0,0 0,0.1129923 0,0 v 0.071904 0 c 0,0 0,0 0,0 0,0 0,0 0,0.061632 0,0.061632 0,0 0,0 0,0 0,0 0,0.071904 a 0.91421031,0.91421031 0 0 0 0,0.2362565 0.59577751,0.59577751 0 0 0 0.154081,0.359521 1.181283,1.181283 0 0 0 0.297888,0.2054405 c 0.06163,0 0.123265,-0.082176 0.06163,-0.1232643 z"
     id="path104"
     style="isolation:isolate;stroke-width:1.0272" />
  <path
     id="polygon106"
     style="isolation:isolate;fill:#6db32b"
     class="cls-45"
     transform="matrix(1.0272026,0,0,1.0272026,-0.62935701,-1.2710543)"
     d="M 6,20.2 1.5,22.57 6,24.93 10.5,22.57 Z" />
  <path
     id="polygon108"
     style="isolation:isolate;fill:url(#linear-gradient-33)"
     class="cls-47"
     transform="matrix(1.0272026,0,0,1.0272026,-0.62935701,-1.2710543)"
     d="M 19.5,29.68 15,32.04 v 4.73 l 4.5,-2.36 z" />
  <path
     id="polygon109"
     style="isolation:isolate;fill:#6db32b"
     class="cls-48"
     transform="matrix(1.0272026,0,0,1.0272026,-0.62935701,-1.2710543)"
     d="m 10.5,24.95 -4.5,2.36 9,4.73 4.5,-2.36 z" />
  <path
     id="polygon111"
     style="isolation:isolate;fill:#6b4301"
     class="cls-50"
     transform="matrix(1.0272026,0,0,1.0272026,-0.62935701,-1.2710543)"
     d="m 24,29.66 -4.5,2.36 v 7.12 L 24,36.77 Z" />
  <path
     id="polygon112"
     style="isolation:isolate;fill:#8dd44b"
     class="cls-51"
     transform="matrix(1.0272026,0,0,1.0272026,-0.62935701,-1.2710543)"
     d="M 19.5,27.3 15,29.66 19.5,32.02 24,29.66 Z" />
  <path
     id="polygon115"
     style="isolation:isolate;fill:#6db32b"
     class="cls-54"
     transform="matrix(1.0272026,0,0,1.0272026,-0.62935701,-1.2710543)"
     d="m 24,34.11 -4.5,2.36 4.5,2.37 4.5,-2.37 z" />
  <path
     id="polygon33"
     style="isolation:isolate;fill:url(#linear-gradient-23)"
     class="cls-27"
     d="M 1.5006449 22.569222 L 1.5006449 29.680465 L 5.9993619 32.040105 L 15.000599 36.770793 L 1.5006449 29.680465 L 1.5006449 32.4394 L 23.999934 44.269922 L 23.999934 41.49958 L 23.999934 38.839518 L 19.499316 36.470372 L 19.499316 32.01919 L 15.000599 29.65955 L 15.000599 32.040105 L 5.9993619 27.309417 L 5.9993619 24.930763 L 1.5006449 22.569222 z "
     transform="matrix(1.0272026,0,0,1.0272026,-0.62935701,-1.2710543)" />
</svg>
