<?xml version="1.0" encoding="UTF-8" standalone="no"?>
<svg
   viewBox="0 0 48 48"
   version="1.1"
   id="svg8935"
   sodipodi:docname="6-CharacterBlendShapesExtract.svg"
   inkscape:version="1.1 (c68e22c387, 2021-05-23)"
   xmlns:inkscape="http://www.inkscape.org/namespaces/inkscape"
   xmlns:sodipodi="http://sodipodi.sourceforge.net/DTD/sodipodi-0.dtd"
   xmlns:xlink="http://www.w3.org/1999/xlink"
   xmlns="http://www.w3.org/2000/svg"
   xmlns:svg="http://www.w3.org/2000/svg">
  <sodipodi:namedview
     id="namedview8937"
     pagecolor="#ffffff"
     bordercolor="#666666"
     borderopacity="1.0"
     inkscape:pageshadow="2"
     inkscape:pageopacity="0.0"
     inkscape:pagecheckerboard="0"
     showgrid="false"
     inkscape:zoom="15.6875"
     inkscape:cx="24"
     inkscape:cy="24"
     inkscape:window-width="2880"
     inkscape:window-height="1557"
     inkscape:window-x="-8"
     inkscape:window-y="-8"
     inkscape:window-maximized="1"
     inkscape:current-layer="svg8935" />
  <defs
     id="defs8782">
    <style
       id="style8696">.cls-1,.cls-14,.cls-22,.cls-3,.cls-41,.cls-45,.cls-46,.cls-8{fill:none;}.cls-2{fill:url(#radial-gradient);}.cls-14,.cls-3{stroke:#193774;}.cls-14,.cls-22,.cls-23,.cls-26,.cls-28,.cls-3,.cls-31,.cls-38,.cls-42,.cls-46,.cls-8{stroke-miterlimit:10;}.cls-3,.cls-8{stroke-width:0.7px;}.cls-4{fill:#193774;}.cls-5{fill:url(#linear-gradient);}.cls-6{fill:url(#linear-gradient-2);}.cls-7{fill:url(#linear-gradient-3);}.cls-8{stroke:#285092;}.cls-9{fill:url(#linear-gradient-4);}.cls-10{fill:url(#linear-gradient-5);}.cls-11{clip-path:url(#clip-path);}.cls-12{fill:url(#New_Gradient_Swatch_13);}.cls-13{fill:url(#New_Gradient_Swatch_13-2);}.cls-14{stroke-width:0.35px;}.cls-15{fill:url(#linear-gradient-6);}.cls-16{fill:url(#linear-gradient-7);}.cls-17{fill:url(#linear-gradient-8);}.cls-18{clip-path:url(#clip-path-2);}.cls-19{fill:url(#linear-gradient-9);}.cls-20{fill:url(#linear-gradient-10);}.cls-21{fill:url(#linear-gradient-11);}.cls-22,.cls-23,.cls-26,.cls-28,.cls-31,.cls-38,.cls-42,.cls-46{stroke:#c4a000;}.cls-22{stroke-width:0.93px;}.cls-23,.cls-26,.cls-28,.cls-31{stroke-width:0.65px;}.cls-23{fill:url(#linear-gradient-12);}.cls-24{fill:url(#linear-gradient-13);}.cls-25{fill:#8f5902;}.cls-26{fill:url(#linear-gradient-14);}.cls-27{fill:url(#linear-gradient-15);}.cls-28{fill:url(#linear-gradient-16);}.cls-29{fill:url(#linear-gradient-17);}.cls-30{fill:url(#linear-gradient-18);}.cls-31{fill:url(#linear-gradient-19);}.cls-32{fill:url(#linear-gradient-20);}.cls-33{fill:url(#linear-gradient-21);}.cls-34{fill:url(#linear-gradient-22);}.cls-35{fill:url(#linear-gradient-23);}.cls-36{fill:#c4a000;}.cls-37{fill:#fff;}.cls-38{stroke-width:0.94px;fill:url(#linear-gradient-24);}.cls-39{fill:url(#linear-gradient-25);}.cls-40{fill:url(#linear-gradient-26);}.cls-41,.cls-45{stroke:#8f5902;stroke-linecap:round;stroke-linejoin:round;}.cls-41{stroke-width:0.5px;}.cls-42{stroke-width:0.65px;fill:url(#linear-gradient-27);}.cls-43{fill:url(#linear-gradient-28);}.cls-44{fill:url(#linear-gradient-29);}.cls-45{stroke-width:0.46px;}.cls-46{stroke-width:1.3px;}</style>
    <radialGradient
       id="radial-gradient"
       cx="42.67"
       cy="-22.78"
       r="9.9"
       gradientTransform="matrix(1.7094812,0,0,0.53494173,-46.49597,50.662666)"
       gradientUnits="userSpaceOnUse">
      <stop
         offset="0.03"
         stop-color="#212121"
         stop-opacity="0.5"
         id="stop8698" />
      <stop
         offset="0.68"
         stop-color="#212121"
         stop-opacity="0.1"
         id="stop8700" />
      <stop
         offset="0.93"
         stop-color="#212121"
         stop-opacity="0"
         id="stop8702" />
    </radialGradient>
    <linearGradient
       id="linear-gradient"
       x1="25.75"
       y1="23.84"
       x2="15"
       y2="26.62"
       gradientUnits="userSpaceOnUse">
      <stop
         offset="0"
         stop-color="#a2bede"
         id="stop8705" />
      <stop
         offset="1"
         stop-color="#285092"
         id="stop8707" />
    </linearGradient>
    <linearGradient
       id="linear-gradient-2"
       x1="24.45"
       y1="26.98"
       x2="20.94"
       y2="27.01"
       xlink:href="#linear-gradient"
       gradientTransform="matrix(1.1629124,0,0,1.1629168,-1.2819357,-3.8781318)" />
    <linearGradient
       id="linear-gradient-3"
       x1="25.98"
       y1="26.8"
       x2="25.76"
       y2="22.61"
       gradientUnits="userSpaceOnUse"
       gradientTransform="matrix(1.1629124,0,0,1.1629168,-1.2819357,-3.8781318)">
      <stop
         offset="0"
         stop-color="#a2bede"
         stop-opacity="0"
         id="stop8711" />
      <stop
         offset="0.89"
         stop-color="#285092"
         id="stop8713" />
    </linearGradient>
    <linearGradient
       id="linear-gradient-4"
       x1="25.87"
       y1="29.82"
       x2="25.75"
       y2="28"
       gradientUnits="userSpaceOnUse">
      <stop
         offset="0"
         stop-color="#00255d"
         stop-opacity="0"
         id="stop8716" />
      <stop
         offset="1"
         stop-color="#00255d"
         id="stop8718" />
    </linearGradient>
    <linearGradient
       id="linear-gradient-5"
       x1="23.16"
       y1="18.66"
       x2="24.15"
       y2="28.78"
       xlink:href="#linear-gradient-4"
       gradientTransform="matrix(1.1629124,0,0,1.1629168,-1.2819357,-3.8781318)" />
    <clipPath
       id="clip-path">
      <path
         class="cls-1"
         d="M25.15,16.11c-1.63.6-2.93,3.85-3.48,8.45s-.37,6.49,1.22,6.77a2.9,2.9,0,0,1-1.79.23,6.84,6.84,0,0,1-4.87-3.37c-.86-1.61-.77-4,.58-7,1.12-2.54,3.8-6,5.45-6.24a3.49,3.49,0,0,1,1.58.2,2.24,2.24,0,0,1,1.41-.32,6.46,6.46,0,0,1,4.18,2.39A13.73,13.73,0,0,1,32,25.66c0,3.75-1.71,4.83-3.63,5.17a3.28,3.28,0,0,0,.91-1.53,19.24,19.24,0,0,0,0-7.45C28.61,19.36,27.65,16.68,25.15,16.11Z"
         id="path8722" />
    </clipPath>
    <linearGradient
       id="New_Gradient_Swatch_13"
       x1="21.97"
       y1="16.38"
       x2="19.74"
       y2="21.53"
       gradientUnits="userSpaceOnUse">
      <stop
         offset="0"
         stop-color="#608bc3"
         id="stop8725" />
      <stop
         offset="1"
         stop-color="#285092"
         id="stop8727" />
    </linearGradient>
    <linearGradient
       id="New_Gradient_Swatch_13-2"
       x1="27.88"
       y1="16.6"
       x2="31.21"
       y2="20.89"
       xlink:href="#New_Gradient_Swatch_13" />
    <linearGradient
       id="linear-gradient-6"
       x1="25.4"
       y1="17.9"
       x2="25.26"
       y2="15.21"
       xlink:href="#linear-gradient-4"
       gradientTransform="matrix(1.1629124,0,0,1.1629168,-1.2819357,-3.8781318)" />
    <linearGradient
       id="linear-gradient-7"
       x1="26.82"
       y1="27.62"
       x2="27.05"
       y2="26.03"
       xlink:href="#linear-gradient"
       gradientTransform="matrix(1.1629124,0,0,1.1629168,-1.2819357,-3.8781318)" />
    <linearGradient
       id="linear-gradient-8"
       x1="25.66"
       y1="17.84"
       x2="25.66"
       y2="23.71"
       gradientTransform="matrix(1.1627559,-0.01907807,0.019078,1.1627603,-1.688955,-3.2966734)"
       xlink:href="#linear-gradient-4" />
    <clipPath
       id="clip-path-2">
      <path
         class="cls-1"
         d="M21.2,23.06a16.48,16.48,0,0,0,5.79.2c2.9-.48,2.94-.86,2.94-.86s.63-.47.28-2.17a5,5,0,0,0-5.15-4.17c-.9.05-2.8.88-3.69,3.84C20.68,22.17,21.2,23.06,21.2,23.06Z"
         id="path8734" />
    </clipPath>
    <linearGradient
       id="linear-gradient-9"
       x1="26.11"
       y1="18.2"
       x2="26.11"
       y2="22.63"
       gradientUnits="userSpaceOnUse">
      <stop
         offset="0"
         stop-color="#608bc3"
         id="stop8737" />
      <stop
         offset="1"
         stop-color="#285092"
         stop-opacity="0.5"
         id="stop8739" />
    </linearGradient>
    <linearGradient
       id="linear-gradient-10"
       x1="26.04"
       y1="27.39"
       x2="23.37"
       y2="31.59"
       gradientUnits="userSpaceOnUse"
       gradientTransform="matrix(1.1629124,0,0,1.1629168,-1.2819357,-3.8781318)">
      <stop
         offset="0"
         stop-color="#fff"
         id="stop8742" />
      <stop
         offset="1"
         stop-color="#285092"
         id="stop8744" />
    </linearGradient>
    <linearGradient
       id="linear-gradient-11"
       x1="25.66"
       y1="27.9"
       x2="25.66"
       y2="29.84"
       gradientUnits="userSpaceOnUse"
       gradientTransform="matrix(1.1629124,0,0,1.1629168,-1.2819357,-3.8781318)">
      <stop
         offset="0"
         stop-color="#a2bede"
         stop-opacity="0"
         id="stop8747" />
      <stop
         offset="1"
         stop-color="#285092"
         id="stop8749" />
    </linearGradient>
    <linearGradient
       id="linear-gradient-12"
       x1="24.82"
       y1="5.08"
       x2="22.45"
       y2="11.35"
       gradientUnits="userSpaceOnUse">
      <stop
         offset="0"
         stop-color="#fdf39c"
         id="stop8752" />
      <stop
         offset="0.98"
         stop-color="#ffde00"
         id="stop8754" />
    </linearGradient>
    <linearGradient
       id="linear-gradient-13"
       x1="24.72"
       y1="5.79"
       x2="22.63"
       y2="10"
       gradientUnits="userSpaceOnUse">
      <stop
         offset="0"
         stop-color="#fce94f"
         id="stop8757" />
      <stop
         offset="0.98"
         stop-color="#edd400"
         id="stop8759" />
    </linearGradient>
    <linearGradient
       id="linear-gradient-14"
       x1="39.33"
       y1="13.46"
       x2="36.96"
       y2="19.73"
       xlink:href="#linear-gradient-12"
       gradientTransform="matrix(1.1629124,0,0,1.1629168,-1.2819357,-3.8781318)" />
    <linearGradient
       id="linear-gradient-15"
       x1="39.23"
       y1="14.17"
       x2="37.14"
       y2="18.38"
       xlink:href="#linear-gradient-13"
       gradientTransform="matrix(1.1629124,0,0,1.1629168,-1.2819357,-3.8781318)" />
    <linearGradient
       id="linear-gradient-16"
       x1="39.33"
       y1="30.21"
       x2="36.96"
       y2="36.48"
       xlink:href="#linear-gradient-12"
       gradientTransform="matrix(1.1629124,0,0,1.1629168,-1.2819357,-3.8781318)" />
    <linearGradient
       id="linear-gradient-17"
       x1="39.23"
       y1="30.93"
       x2="37.14"
       y2="35.13"
       xlink:href="#linear-gradient-13"
       gradientTransform="matrix(1.1629124,0,0,1.1629168,-1.2819357,-3.8781318)" />
    <linearGradient
       id="linear-gradient-18"
       x1="39.15"
       y1="30.06"
       x2="39.78"
       y2="33.86"
       gradientUnits="userSpaceOnUse">
      <stop
         offset="0"
         stop-color="#fff"
         id="stop8766" />
      <stop
         offset="1"
         stop-color="#fff"
         stop-opacity="0.1"
         id="stop8768" />
    </linearGradient>
    <linearGradient
       id="linear-gradient-19"
       x1="24.82"
       y1="38.59"
       x2="22.45"
       y2="44.86"
       xlink:href="#linear-gradient-12"
       gradientTransform="matrix(1.1629124,0,0,1.1629168,-1.2819357,-3.8781318)" />
    <linearGradient
       id="linear-gradient-20"
       x1="24.72"
       y1="39.3"
       x2="22.63"
       y2="43.51"
       xlink:href="#linear-gradient-13"
       gradientTransform="matrix(1.1629124,0,0,1.1629168,-1.2819357,-3.8781318)" />
    <linearGradient
       id="linear-gradient-21"
       x1="24.64"
       y1="38.44"
       x2="25.27"
       y2="42.24"
       xlink:href="#linear-gradient-18"
       gradientTransform="matrix(1.1629124,0,0,1.1629168,-1.2819357,-3.8781318)" />
    <linearGradient
       id="linear-gradient-22"
       x1="24.64"
       y1="4.93"
       x2="25.27"
       y2="8.73"
       xlink:href="#linear-gradient-18"
       gradientTransform="matrix(1.1629124,0,0,1.1629168,-1.2819357,-3.8781318)" />
    <linearGradient
       id="linear-gradient-23"
       x1="39.15"
       y1="13.31"
       x2="39.78"
       y2="17.11"
       xlink:href="#linear-gradient-18"
       gradientTransform="matrix(1.1629124,0,0,1.1629168,-1.2819357,-3.8781318)" />
    <linearGradient
       id="linear-gradient-24"
       x1="10.77"
       y1="12.23"
       x2="7.07"
       y2="22.04"
       xlink:href="#linear-gradient-12"
       gradientTransform="matrix(1.1629124,0,0,1.1629168,-1.2819357,-3.8781318)" />
    <linearGradient
       id="linear-gradient-25"
       x1="10.62"
       y1="13.35"
       x2="7.35"
       y2="19.93"
       xlink:href="#linear-gradient-13"
       gradientTransform="matrix(1.1629124,0,0,1.1629168,-1.2819357,-3.8781318)" />
    <linearGradient
       id="linear-gradient-26"
       x1="10.5"
       y1="12.01"
       x2="11.47"
       y2="17.95"
       xlink:href="#linear-gradient-18"
       gradientTransform="matrix(1.1629124,0,0,1.1629168,-1.2819357,-3.8781318)" />
    <linearGradient
       id="linear-gradient-27"
       x1="10.31"
       y1="30.21"
       x2="7.94"
       y2="36.48"
       xlink:href="#linear-gradient-12"
       gradientTransform="matrix(1.1629124,0,0,1.1629168,-1.2819357,-3.8781318)" />
    <linearGradient
       id="linear-gradient-28"
       x1="10.21"
       y1="30.93"
       x2="8.12"
       y2="35.13"
       xlink:href="#linear-gradient-13"
       gradientTransform="matrix(1.1629124,0,0,1.1629168,-1.2819357,-3.8781318)" />
    <linearGradient
       id="linear-gradient-29"
       x1="10.13"
       y1="30.06"
       x2="10.76"
       y2="33.87"
       xlink:href="#linear-gradient-18"
       gradientTransform="matrix(1.1629124,0,0,1.1629168,-1.2819357,-3.8781318)" />
    <linearGradient
       inkscape:collect="always"
       xlink:href="#linear-gradient"
       id="linearGradient9008"
       gradientUnits="userSpaceOnUse"
       x1="25.75"
       y1="23.84"
       x2="15"
       y2="26.62"
       gradientTransform="matrix(1.1629124,0,0,1.1629168,-1.2819357,-3.8781318)" />
    <linearGradient
       inkscape:collect="always"
       xlink:href="#linear-gradient-4"
       id="linearGradient9010"
       gradientUnits="userSpaceOnUse"
       x1="25.87"
       y1="29.82"
       x2="25.75"
       y2="28"
       gradientTransform="matrix(1.1629124,0,0,1.1629168,-1.2819357,-3.8781318)" />
    <linearGradient
       inkscape:collect="always"
       xlink:href="#New_Gradient_Swatch_13"
       id="linearGradient9012"
       gradientUnits="userSpaceOnUse"
       x1="21.97"
       y1="16.38"
       x2="19.74"
       y2="21.53" />
    <linearGradient
       inkscape:collect="always"
       xlink:href="#linear-gradient-12"
       id="linearGradient9014"
       gradientUnits="userSpaceOnUse"
       x1="24.82"
       y1="5.08"
       x2="22.45"
       y2="11.35"
       gradientTransform="matrix(1.1629124,0,0,1.1629168,-1.2819357,-3.8781318)" />
    <linearGradient
       inkscape:collect="always"
       xlink:href="#linear-gradient-13"
       id="linearGradient9016"
       gradientUnits="userSpaceOnUse"
       x1="24.72"
       y1="5.79"
       x2="22.63"
       y2="10"
       gradientTransform="matrix(1.1629124,0,0,1.1629168,-1.2819357,-3.8781318)" />
    <linearGradient
       inkscape:collect="always"
       xlink:href="#linear-gradient-18"
       id="linearGradient9018"
       gradientUnits="userSpaceOnUse"
       x1="39.15"
       y1="30.06"
       x2="39.78"
       y2="33.86"
       gradientTransform="matrix(1.1629124,0,0,1.1629168,-1.2819357,-3.8781318)" />
    <radialGradient
       inkscape:collect="always"
       xlink:href="#linearGradient8150"
       id="radialGradient8152"
       cx="24.127222"
       cy="38.334164"
       fx="24.127222"
       fy="38.334164"
       r="16.314093"
       gradientTransform="matrix(1,0,0,0.31665166,2.1357261,25.725965)"
       gradientUnits="userSpaceOnUse" />
    <linearGradient
       inkscape:collect="always"
       id="linearGradient8150">
      <stop
         style="stop-color:#000000;stop-opacity:0.40654206"
         offset="0"
         id="stop8146" />
      <stop
         style="stop-color:#000000;stop-opacity:0;"
         offset="1"
         id="stop8148" />
    </linearGradient>
  </defs>
  <ellipse
     class="cls-2"
     cx="26.262949"
     cy="37.86454"
     rx="16.314093"
     ry="5.1658845"
     id="ellipse7870"
     style="fill:url(#radialGradient8152);fill-opacity:1;stroke-width:1" />
  <path
     class="cls-3"
     d="m 27.965311,14.856458 c -1.895547,0.69775 -3.407333,4.47723 -4.046935,9.826647 -0.639602,5.349417 -0.430278,7.54733 1.418753,7.872947 a 3.372446,3.3724587 0 0 1 -2.081613,0.26747 7.9543208,7.9543509 0 0 1 -5.663383,-3.919029 c -1.000105,-1.872296 -0.895443,-4.651667 0.674489,-8.140418 1.302462,-2.953808 4.419067,-6.977501 6.337872,-7.256601 a 4.0585643,4.0585796 0 0 1 1.837402,0.232584 2.6049238,2.6049336 0 0 1 1.639706,-0.372134 7.5124141,7.5124425 0 0 1 4.860974,2.779371 15.966787,15.966848 0 0 1 2.988685,9.815018 c 0,4.360938 -1.98858,5.616888 -4.221372,6.01228 a 3.8143527,3.8143671 0 0 0 1.05825,-1.779263 22.374435,22.374519 0 0 0 0,-8.66373 c -0.779151,-2.895663 -1.895547,-6.01228 -4.802828,-6.675142 z"
     id="path8786" />
  <path
     class="cls-4"
     d="m 32.302974,31.660606 c 0.348874,-0.348875 0.639602,-1.162917 -0.534939,-1.476905 -1.174542,-0.313987 0.500052,-2.465383 0.500052,-4.453971 a 11.338396,11.338439 0 0 1 1.023363,-4.465601 c 0.09303,0.05815 1.232687,2.128138 1.232687,2.128138 l 0.244212,2.895663 -0.430278,3.046842"
     id="path8788"
     style="stroke-width:1" />
  <path
     class="cls-5"
     d="m 21.453002,27.450847 a 12.187322,12.187368 0 0 0 1.686223,3.0701 10.908118,10.90816 0 0 0 3.279413,2.628192 4.0236769,4.0236921 0 0 0 3.198009,0.383763 c 0.744264,-0.197696 1.081508,-0.674492 1.488528,-1.523421 0.279099,-0.546571 0.569827,-1.081513 0.872184,-1.616455 a 11.722157,11.722201 0 0 0 1.302462,-2.872404 6.7914084,6.7914341 0 0 0 0.174437,-1.744375 10.466212,10.466251 0 0 1 -0.220954,-2.093251 c 0.05815,-0.302358 0.255841,-0.627975 0.348874,-0.930333 0.372132,-1.337354 -0.627973,-3.267796 -1.221058,-4.744701 a 4.4888419,4.4888588 0 0 0 -2.174646,-2.639821 7.4426394,7.4426675 0 0 0 -6.826296,0.255842 6.0820319,6.0820549 0 0 0 -2.546778,3.20965 13.082765,13.082814 0 0 0 0.639602,8.617214 z"
     id="path8790"
     style="fill:url(#linearGradient9008);stroke-width:1" />
  <path
     class="cls-6"
     d="m 24.360283,21.706038 a 38.887791,38.887938 0 0 1 -0.116292,4.04695 c -0.186066,1.616455 -0.244211,5.686663 2.802619,7.605476 0,0 -3.930644,-1.825779 -4.651649,-3.279425 -0.721006,-1.453646 0.907071,-8.314855 0.907071,-8.314855"
     id="path8792"
     style="fill:url(#linear-gradient-2);stroke-width:1" />
  <path
     class="cls-7"
     d="m 33.605436,21.706038 a 2.1165006,2.1165086 0 0 1 -0.488423,0.348875 c -0.162808,0.0814 -0.814039,0.232583 -1.418753,0.453537 a 5.0586689,5.0586881 0 0 0 -0.825668,-0.40702 l -3.744578,0.534941 0.127921,0.313988 a 0.50005233,0.50005422 0 0 0 -0.162808,0 c -0.418649,0 -0.988476,-0.383763 -1.686223,-0.313988 -0.697748,0.06977 -1.767627,0.662863 -1.523415,1.662971 a 2.0467258,2.0467336 0 0 0 1.290832,1.279209 4.5121001,4.5121172 0 0 0 2.081614,0.209325 1.7211104,1.7211169 0 0 0 1.407124,-0.662863 1.314091,1.314096 0 0 0 0,-1.162917 c 0.52331,0 1.162912,-0.104662 1.814143,-0.209325 a 1.6513356,1.6513419 0 0 0 0.302357,1.442017 4.7911991,4.7912172 0 0 0 1.721111,-0.267471 1.3606075,1.3606127 0 0 0 0.569827,-0.941962 c 0,-0.325617 0.151178,-0.511684 0.197695,-0.872188 0.04652,-0.360504 0.209324,-0.639604 0.279099,-0.953592 a 2.0699841,2.0699919 0 0 0 0.05814,-0.453537 z"
     id="path8794"
     style="fill:url(#linear-gradient-3);stroke-width:1" />
  <path
     class="cls-8"
     d="m 21.453002,27.450847 a 12.187322,12.187368 0 0 0 1.686223,3.0701 10.908118,10.90816 0 0 0 3.279413,2.628192 4.0236769,4.0236921 0 0 0 3.198009,0.383763 c 0.744264,-0.197696 1.081508,-0.674492 1.488528,-1.523421 0.279099,-0.546571 0.569827,-1.081513 0.872184,-1.616455 a 11.722157,11.722201 0 0 0 1.302462,-2.872404 6.7914084,6.7914341 0 0 0 0.174437,-1.744375 10.466212,10.466251 0 0 1 -0.220954,-2.093251 c 0.05815,-0.302358 0.255841,-0.627975 0.348874,-0.930333 0.372132,-1.337354 -0.627973,-3.267796 -1.221058,-4.744701 a 4.4888419,4.4888588 0 0 0 -2.174646,-2.639821 7.4426394,7.4426675 0 0 0 -6.826296,0.255842 6.0820319,6.0820549 0 0 0 -2.546778,3.20965 13.082765,13.082814 0 0 0 0.639602,8.617214 z"
     id="path8796" />
  <path
     class="cls-4"
     d="m 25.837181,28.160226 c -0.476794,0 -0.930329,0.313988 -0.744263,0.779154 1.162912,2.860776 4.174855,3.163134 5.291251,2.093251 a 8.6055518,8.6055843 0 0 0 1.825772,-3.488751 14.257306,14.25736 0 0 1 -6.37276,0.616346 z"
     id="path8798"
     style="stroke-width:1" />
  <path
     class="cls-9"
     d="m 25.837181,28.160226 c -0.476794,0 -0.930329,0.313988 -0.744263,0.779154 1.162912,2.860776 4.174855,3.163134 5.291251,2.093251 a 8.6055518,8.6055843 0 0 0 1.825772,-3.488751 14.257306,14.25736 0 0 1 -6.37276,0.616346 z"
     id="path8800"
     style="fill:url(#linearGradient9010);stroke-width:1" />
  <path
     class="cls-4"
     d="m 31.628485,23.182942 a 1.2559454,1.2559501 0 0 1 1.011734,0.500054 0.56982708,0.56982923 0 0 0 0.755893,0.337246 1.3257201,1.3257252 0 0 1 -0.709376,0.2791 c -0.418649,0 -1.000105,-1.162917 -2.209534,0.348875 0,0 0.255841,-1.372242 1.151283,-1.465275 z"
     id="path8802"
     style="stroke-width:1" />
  <path
     class="cls-4"
     d="m 27.790874,25.03198 c 0,0 -0.407019,-1.244321 -1.418753,-1.372242 a 1.59319,1.593196 0 0 0 -1.383866,0.686121 c 0,0 -0.372132,0.651233 -0.755893,0.220954 a 0.80240956,0.80241259 0 0 0 0.790781,0.511684 c 0.500052,-0.03489 1.116396,-1.430388 2.767731,-0.04652 z"
     id="path8804"
     style="stroke-width:1" />
  <path
     class="cls-4"
     d="m 30.512089,23.264346 a 2.0816132,2.0816211 0 0 1 0.430278,-0.69775 3.3840751,3.3840879 0 0 1 1.697852,-0.860558 c 0.907072,-0.186067 0.976846,0.802412 0.976846,0.802412 A 0.66286007,0.66286258 0 0 0 32.75651,22.159575 c -0.66286,0.116292 -1.476898,0.895446 -2.244421,1.104771 z"
     id="path8806"
     style="stroke-width:1" />
  <path
     class="cls-4"
     d="m 28.442105,23.566705 a 1.9536928,1.9537002 0 0 0 -0.430277,-0.604717 5.0819272,5.0819464 0 0 0 -2.837507,-0.755896 1.872289,1.872296 0 0 0 -1.162912,1.023367 2.2095336,2.2095419 0 0 1 1.348978,-0.569829 c 0.67449,0.03489 1.790885,0.779154 3.081718,0.907075 z"
     id="path8808"
     style="stroke-width:1" />
  <path
     class="cls-4"
     d="m 27.965311,14.856458 c -1.895547,0.69775 -3.407333,4.47723 -4.046935,9.826647 -0.639602,5.349417 -0.430278,7.54733 1.418753,7.872947 a 3.372446,3.3724587 0 0 1 -2.081613,0.26747 7.9543208,7.9543509 0 0 1 -5.663383,-3.919029 c -1.000105,-1.872296 -0.895443,-4.651667 0.674489,-8.140418 1.302462,-2.953808 4.419067,-6.977501 6.337872,-7.256601 a 4.0585643,4.0585796 0 0 1 1.837402,0.232584 2.6049238,2.6049336 0 0 1 1.639706,-0.372134 7.5124141,7.5124425 0 0 1 4.860974,2.779371 15.966787,15.966848 0 0 1 2.988685,9.815018 c 0,4.360938 -1.98858,5.616888 -4.221372,6.01228 a 3.8143527,3.8143671 0 0 0 1.05825,-1.779263 22.374435,22.374519 0 0 0 0,-8.66373 c -0.779151,-2.895663 -1.895547,-6.01228 -4.802828,-6.675142 z"
     id="path8810"
     style="stroke-width:1" />
  <path
     class="cls-10"
     d="m 27.965311,14.647133 c -1.907176,0.686121 -3.407333,4.651667 -4.046935,10.035972 -0.639602,5.384305 -0.430278,7.54733 1.418753,7.872947 a 3.372446,3.3724587 0 0 1 -2.081613,0.26747 7.9543208,7.9543509 0 0 1 -5.663383,-3.919029 c -1.000105,-1.872296 -0.895443,-4.651667 0.674489,-8.140418 1.302462,-2.953808 4.419067,-6.977501 6.337872,-7.256601 a 4.0585643,4.0585796 0 0 1 1.837402,0.232584 2.6049238,2.6049336 0 0 1 1.639706,-0.372134 7.5124141,7.5124425 0 0 1 4.860974,2.779371 15.966787,15.966848 0 0 1 2.988685,9.815018 c 0,4.360938 -1.98858,5.616888 -4.221372,6.01228 a 3.8143527,3.8143671 0 0 0 1.05825,-1.779263 22.374435,22.374519 0 0 0 0,-8.66373 c -0.779151,-2.895663 -1.907176,-6.221605 -4.802828,-6.884467 z"
     id="path8812"
     style="fill:url(#linear-gradient-5);stroke-width:1" />
  <g
     class="cls-11"
     clip-path="url(#clip-path)"
     id="g8818"
     style="stroke-width:0.859909"
     transform="matrix(1.1629124,0,0,1.1629168,-1.2819357,-3.8781318)">
    <path
       class="cls-12"
       d="m 22.91,21.08 c 0,0.23 -0.25,0.39 -0.42,0.55 a 2,2 0 0 0 -0.36,0.45 c -0.06,0.1 -0.15,0.22 -0.26,0.18 a 0.22,0.22 0 0 1 -0.09,-0.1 1.67,1.67 0 0 1 -0.11,-0.44 0.46,0.46 0 0 0 -0.25,-0.35 0.57,0.57 0 0 0 -0.52,0.2 c -0.15,0.13 -0.32,0.28 -0.52,0.24 A 0.41,0.41 0 0 1 20.1,21.47 c 0,-0.19 0.16,-0.65 -0.12,-0.73 -0.28,-0.08 -0.74,0.41 -1,0.34 -0.26,-0.07 -0.19,-0.24 -0.17,-0.43 a 2.49,2.49 0 0 0 0.06,-0.6 0.24,0.24 0 0 0 -0.13,-0.21 c -0.24,-0.1 -0.63,0.26 -0.9,0.2 a 0.31,0.31 0 0 1 -0.2,-0.35 1.42,1.42 0 0 1 0.17,-0.53 10.32,10.32 0 0 1 2.49,-3.23 c -0.31,0.33 -1.54,1.85 -0.61,1.55 0.16,-0.05 0.34,-0.14 0.46,-0.1 0.29,0.1 0.1,0.69 0.33,0.85 0.23,0.16 0.44,-0.05 0.69,-0.15 a 0.84,0.84 0 0 1 0.63,0 c 0.25,0.13 0.28,0.48 0.26,0.83 a 1.52,1.52 0 0 0 0,0.48 c 0.11,0.5 0.7,0.15 1.16,0.05"
       id="path8814"
       style="fill:url(#linearGradient9012);stroke-width:0.859909" />
    <path
       class="cls-13"
       d="m 31,21.15 a 0.64,0.64 0 0 0 0.19,-0.59 7.43,7.43 0 0 0 -0.34,-0.82 Q 30.54,18.95 30.19,18.15 A 2.27,2.27 0 0 0 29.81,17.49 1.06,1.06 0 0 1 29.62,18 0.47,0.47 0 0 1 29.15,18.21 l 0.75,2.08 a 2.35,2.35 0 0 0 0.34,0.83 0.63,0.63 0 0 0 0.64,0.14 z"
       id="path8816"
       style="fill:url(#New_Gradient_Swatch_13-2);stroke-width:0.859909" />
  </g>
  <path
     class="cls-14"
     d="m 27.965311,14.856458 c -1.895547,0.69775 -3.407333,4.47723 -4.046935,9.826647 -0.639602,5.349417 -0.430278,7.54733 1.418753,7.872947 a 3.372446,3.3724587 0 0 1 -2.081613,0.26747 7.9543208,7.9543509 0 0 1 -5.663383,-3.919029 c -1.000105,-1.872296 -0.895443,-4.651667 0.674489,-8.140418 1.302462,-2.953808 4.419067,-6.977501 6.337872,-7.256601 a 4.0585643,4.0585796 0 0 1 1.837402,0.232584 2.6049238,2.6049336 0 0 1 1.639706,-0.372134 7.5124141,7.5124425 0 0 1 4.860974,2.779371 15.966787,15.966848 0 0 1 2.988685,9.815018 c 0,4.360938 -1.98858,5.616888 -4.221372,6.01228 a 3.8143527,3.8143671 0 0 0 1.05825,-1.779263 22.374435,22.374519 0 0 0 0,-8.66373 c -0.779151,-2.895663 -1.895547,-6.01228 -4.802828,-6.675142 z"
     id="path8820" />
  <path
     class="cls-15"
     d="m 26.441896,13.693541 a 4.9772651,4.9772839 0 0 1 1.72111,1.302467 3.2677838,3.2677962 0 0 1 1.674594,0.779154 5.4540592,5.4540798 0 0 0 -1.034992,-0.965221 c -0.453536,-0.2791 -0.174437,-0.395392 0.151179,-0.395392 0.325615,0 0,-0.290729 -0.755893,-0.325616 -0.755893,-0.03489 -0.476794,-0.290729 0.09303,-0.302359 0.569827,-0.01163 -0.860556,-0.500054 -1.849031,-0.09303 z"
     id="path8822"
     style="fill:url(#linear-gradient-6);stroke-width:1" />
  <path
     class="cls-16"
     d="m 30.988883,26.357705 a 0.74426394,0.74426675 0 0 1 -0.418648,0.453538 2.9654266,2.9654378 0 0 1 -1.011734,0.2791 h -0.39539 a 4.1167099,4.1167255 0 0 0 0.581456,0.383762 1.4652696,1.4652752 0 0 0 0.872184,-0.2791 c 0.279099,-0.116292 0.546569,-0.488425 0.372132,-0.8373 z"
     id="path8824"
     style="fill:url(#linear-gradient-7);stroke-width:1" />
  <path
     class="cls-4"
     d="m 23.371807,22.93873 a 19.164796,19.164869 0 0 0 6.733263,0.232583 c 3.372446,-0.5582 3.418962,-1.000108 3.418962,-1.000108 0,0 0.732635,-0.546571 0.325616,-2.52353 a 5.814562,5.814584 0 0 0 -5.988999,-4.849363 c -1.046621,0.05815 -3.256155,1.023367 -4.291147,4.465601 -0.802409,2.639821 -0.197695,3.674817 -0.197695,3.674817 z"
     id="path8826"
     style="stroke-width:1" />
  <path
     class="cls-17"
     d="m 23.371807,22.93873 a 19.164796,19.164869 0 0 0 6.733263,0.232583 c 3.372446,-0.5582 3.418962,-1.000108 3.418962,-1.000108 0,0 0.732635,-0.546571 0.325616,-2.52353 a 5.814562,5.814584 0 0 0 -5.988999,-4.849363 c -1.046621,0.05815 -3.256155,1.023367 -4.291147,4.465601 -0.802409,2.639821 -0.197695,3.674817 -0.197695,3.674817 z"
     id="path8828"
     style="fill:url(#linear-gradient-8);stroke-width:1" />
  <g
     class="cls-18"
     clip-path="url(#clip-path-2)"
     id="g8832"
     style="stroke-width:0.859909"
     transform="matrix(1.1629124,0,0,1.1629168,-1.2819357,-3.8781318)">
    <path
       class="cls-19"
       d="m 29.4,17.86 c 0.31,-0.12 -0.12,0.42 -0.26,0.47 a 1,1 0 0 1 -0.5,0.11 c -0.31,-0.05 -0.5,-0.27 -0.84,-0.24 -0.53,0 -0.64,0.68 -1.2,0.42 a 2.77,2.77 0 0 0 -0.78,-0.33 1.72,1.72 0 0 0 -0.89,0.3 1,1 0 0 1 -0.9,0.14 c -0.29,-0.12 -0.5,-0.47 -0.8,-0.46 -0.3,0.01 -0.44,0.28 -0.69,0.35 a 0.52,0.52 0 0 1 -0.57,-0.29 0.88,0.88 0 0 1 -0.1,-0.27 13.56,13.56 0 0 0 -0.72,2.73 0.92,0.92 0 0 0 0.15,0.83 0.59,0.59 0 0 0 0.59,0.08 c 0.27,-0.1 0.49,-0.34 0.77,-0.35 0.28,-0.01 0.54,0.21 0.82,0.31 0.28,0.1 0.57,0.27 0.91,0.09 a 2.19,2.19 0 0 1 0.69,-0.33 2.24,2.24 0 0 1 0.83,0.23 1.57,1.57 0 0 0 1.2,-0.13 c 0.33,-0.18 0.55,-0.44 1,-0.36 a 3.23,3.23 0 0 0 0.75,0.22 0.63,0.63 0 0 0 0.51,-0.23 c 0.05,0 0.08,-0.11 0.13,-0.16 a 0.46,0.46 0 0 1 0.61,0 c 0,0 0.07,0.08 0.12,0.1 a 0.32,0.32 0 0 0 0.17,0 1.17,1.17 0 0 0 0.44,-0.13 0.55,0.55 0 0 0 0.27,-0.34"
       id="path8830"
       style="fill:url(#linear-gradient-9);stroke-width:0.859909" />
  </g>
  <path
     class="cls-4"
     d="m 27.988569,15.205333 a 5.44243,5.4424506 0 0 1 5.465689,4.523746 c 0.325615,1.628084 -0.174437,2.116509 -0.174437,2.116509 v 0 l -0.13955,0.104662 v 0 a 10.780198,10.780239 0 0 1 -3.104976,0.790784 15.606284,15.606343 0 0 1 -2.511891,0.197696 20.467258,20.467336 0 0 1 -3.84924,-0.383763 5.814562,5.814584 0 0 1 0.279099,-3.174763 c 0.953589,-3.174763 2.918911,-4.116725 3.919015,-4.174871 h 0.116291 m 0,-0.407021 h -0.12792 c -1.046621,0.05815 -3.256155,1.023367 -4.291147,4.465601 -0.802409,2.639821 -0.197695,3.674817 -0.197695,3.674817 a 19.769511,19.769586 0 0 0 4.151597,0.441908 15.431848,15.431906 0 0 0 2.593295,-0.209325 c 3.372446,-0.5582 3.418963,-1.000108 3.418963,-1.000108 0,0 0.732634,-0.546571 0.325615,-2.52353 a 5.814562,5.814584 0 0 0 -5.814562,-4.849363 z"
     id="path8834"
     style="stroke-width:1" />
  <path
     class="cls-20"
     d="m 26.011618,28.532359 a 12.164064,12.16411 0 0 0 5.44243,-0.360504 2.6049238,2.6049336 0 0 1 -0.220953,0.895446 8.907909,8.9079427 0 0 1 -2.79099,0.465167 9.000942,9.000976 0 0 1 -2.721215,-0.2791 0.6279727,0.62797507 0 0 1 -0.151178,-0.383763 c 0.01163,-0.186066 0.116291,-0.383762 0.441906,-0.337246 z"
     id="path8836"
     style="fill:url(#linear-gradient-10);stroke-width:1" />
  <path
     class="cls-21"
     d="m 30.198103,30.707014 a 2.5467782,2.5467878 0 0 1 -1.535044,0.511683 3.7096906,3.7097046 0 0 1 -1.755998,-0.511683 2.7328441,2.7328545 0 0 1 1.59319,-0.465167 3.372446,3.3724587 0 0 1 1.697852,0.465167 z"
     id="path8838"
     style="fill:url(#linear-gradient-11);stroke-width:1" />
  <path
     class="cls-4"
     d="m 25.209209,33.032847 a 2.5584073,2.558417 0 0 0 0.860555,-0.616345 3.372446,3.3724587 0 0 1 -0.686118,0 l -0.465165,0.41865"
     id="path8840"
     style="stroke-width:1" />
  <path
     class="cls-4"
     d="m 31.861068,31.311731 a 7.8612878,7.8613176 0 0 1 -1.093138,1.162916 4.2678885,4.2679047 0 0 0 0.523311,-0.06977 c 0.209324,0 0.569827,-0.500054 0.569827,-0.500054"
     id="path8842"
     style="stroke-width:1" />
  <path
     class="cls-22"
     d="M 10.021573,34.230652 A 19.478783,19.478856 0 1 0 26.627962,4.553015"
     id="path8844" />
  <ellipse
     class="cls-23"
     cx="26.627962"
     cy="4.5530152"
     id="circle8846"
     style="fill:url(#linearGradient9014)"
     rx="3.9887896"
     ry="3.9888048" />
  <ellipse
     class="cls-24"
     cx="26.627962"
     cy="4.5530152"
     id="circle8848"
     style="fill:url(#linearGradient9016);stroke-width:1"
     rx="2.5700364"
     ry="2.5700462" />
  <ellipse
     class="cls-25"
     cx="24.883593"
     cy="3.9715567"
     rx="0.52331054"
     ry="0.95359176"
     id="ellipse8850"
     style="stroke-width:1" />
  <ellipse
     class="cls-25"
     cx="28.37233"
     cy="3.9715567"
     rx="0.52331054"
     ry="0.95359176"
     id="ellipse8852"
     style="stroke-width:1" />
  <path
     class="cls-25"
     d="M 26.627962,6.1927277 A 3.4887372,3.4887504 0 0 1 24.150958,5.4252026 c 0.244212,1.4303877 2.477004,1.4303877 2.477004,1.4303877 0,0 2.232792,0 2.477003,-1.453646 a 3.4887372,3.4887504 0 0 1 -2.477003,0.7907834 z"
     id="path8854"
     style="stroke-width:1" />
  <ellipse
     class="cls-26"
     cx="43.50182"
     cy="14.286629"
     id="circle8856"
     style="fill:url(#linear-gradient-14)"
     rx="3.9887896"
     ry="3.9888048" />
  <ellipse
     class="cls-27"
     cx="43.50182"
     cy="14.286629"
     id="circle8858"
     style="fill:url(#linear-gradient-15);stroke-width:1"
     rx="2.5700364"
     ry="2.5700462" />
  <ellipse
     class="cls-25"
     cx="41.75745"
     cy="13.7168"
     rx="0.52331054"
     ry="0.95359176"
     id="ellipse8860"
     style="stroke-width:1" />
  <ellipse
     class="cls-25"
     cx="45.246189"
     cy="13.7168"
     rx="0.52331054"
     ry="0.95359176"
     id="ellipse8862"
     style="stroke-width:1" />
  <path
     class="cls-25"
     d="m 43.501821,16.054262 a 3.3957042,3.3957171 0 0 1 2.477003,0.802413 C 45.734613,15.3914 43.501821,15.3914 43.501821,15.3914 c 0,0 -2.232792,0 -2.477004,1.465275 a 3.3957042,3.3957171 0 0 1 2.477004,-0.802413 z"
     id="path8864"
     style="stroke-width:1" />
  <ellipse
     class="cls-28"
     cx="43.50182"
     cy="33.777115"
     id="circle8866"
     style="fill:url(#linear-gradient-16)"
     rx="3.9887896"
     ry="3.9888048" />
  <ellipse
     class="cls-29"
     cx="43.50182"
     cy="33.777115"
     id="circle8868"
     style="fill:url(#linear-gradient-17);stroke-width:1"
     rx="2.5700364"
     ry="2.5700462" />
  <path
     class="cls-30"
     d="m 42.292392,31.009372 a 2.721215,2.7212253 0 0 1 2.965427,0.232584 3.1980091,3.1980212 0 0 1 1.290832,3.163133 5.4191718,5.4191923 0 0 0 -1.523415,-2.593304 4.314405,4.3144213 0 0 0 -2.732844,-0.802413 z"
     id="path8870"
     style="fill:url(#linearGradient9018);stroke-width:1" />
  <path
     class="cls-25"
     d="m 42.641266,34.067843 a 2.442116,2.4421253 0 0 0 -1.767627,-1.767633 2.442116,2.4421253 0 0 0 1.767627,1.767633 z"
     id="path8872"
     style="stroke-width:1" />
  <path
     class="cls-25"
     d="m 42.641266,32.30021 a 2.442116,2.4421253 0 0 0 -1.767627,1.767633 2.4770034,2.4770128 0 0 0 1.767627,-1.767633 z"
     id="path8874"
     style="stroke-width:1" />
  <path
     class="cls-25"
     d="m 46.130003,34.067843 a 2.442116,2.4421253 0 0 0 -1.767627,-1.767633 2.4770034,2.4770128 0 0 0 1.767627,1.767633 z"
     id="path8876"
     style="stroke-width:1" />
  <path
     class="cls-25"
     d="m 46.130003,32.30021 a 2.4770034,2.4770128 0 0 0 -1.767627,1.767633 2.4770034,2.4770128 0 0 0 1.767627,-1.767633 z"
     id="path8878"
     style="stroke-width:1" />
  <ellipse
     class="cls-25"
     cx="43.50182"
     cy="35.695927"
     rx="0.46516496"
     ry="0.87218761"
     id="ellipse8880"
     style="stroke-width:1" />
  <ellipse
     class="cls-31"
     cx="26.627962"
     cy="43.510727"
     id="circle8882"
     style="fill:url(#linear-gradient-19)"
     rx="3.9887896"
     ry="3.9888048" />
  <ellipse
     class="cls-32"
     cx="26.627962"
     cy="43.510727"
     id="circle8884"
     style="fill:url(#linear-gradient-20);stroke-width:1"
     rx="2.5700364"
     ry="2.5700462" />
  <path
     class="cls-33"
     d="m 25.465049,40.719727 a 2.721215,2.7212253 0 0 1 2.965427,0.232584 3.18638,3.186392 0 0 1 1.290833,3.163134 5.4191718,5.4191923 0 0 0 -1.569932,-2.639822 4.314405,4.3144213 0 0 0 -2.686328,-0.755896 z"
     id="path8886"
     style="fill:url(#linear-gradient-21);stroke-width:1" />
  <path
     class="cls-25"
     d="m 25.581341,42.789719 a 2.5584073,2.558417 0 0 1 0.290728,1.476905 2.2560501,2.2560586 0 0 0 -1.221058,-0.581459 1.0698794,1.0698835 0 0 0 -0.848926,0.232584 c 0,0 0.174437,-0.70938 0.721005,-0.814042 0.546569,-0.104663 0.651231,0.162808 0.651231,0.162808 0,0 -0.220953,-0.604716 -0.616343,-0.721008 a 1.3373493,1.3373543 0 0 0 -0.872184,0.151179 1.1629124,1.1629168 0 0 1 0.883813,-0.5582 1.3954949,1.3955002 0 0 1 1.011734,0.651233 z"
     id="path8888"
     style="stroke-width:1" />
  <path
     class="cls-25"
     d="m 27.674583,42.789719 a 2.5584073,2.558417 0 0 0 -0.290728,1.476905 2.2560501,2.2560586 0 0 1 1.221058,-0.581459 1.0698794,1.0698835 0 0 1 0.848926,0.232584 c 0,0 -0.174437,-0.70938 -0.721006,-0.814042 -0.546568,-0.104663 -0.651231,0.162808 -0.651231,0.162808 0,0 0.220954,-0.604716 0.616344,-0.721008 a 1.3373493,1.3373543 0 0 1 0.872184,0.151179 1.1629124,1.1629168 0 0 0 -0.883813,-0.5582 1.3954949,1.3955002 0 0 0 -1.011734,0.651233 z"
     id="path8890"
     style="stroke-width:1" />
  <path
     class="cls-25"
     d="m 28.011828,46.615716 a 2.0932423,2.0932502 0 0 0 -1.383866,-0.41865 2.2211627,2.2211711 0 0 0 -1.407124,0.41865 2.1513879,2.1513961 0 0 1 0.255841,-1.162917 1.3838658,1.383871 0 0 1 2.325824,0 2.0350967,2.0351044 0 0 1 0.209325,1.162917 z"
     id="path8892"
     style="stroke-width:1" />
  <path
     class="cls-34"
     d="M 25.465049,1.7503855 A 2.721215,2.7212253 0 0 1 28.430476,1.9829689 3.18638,3.186392 0 0 1 29.721309,5.1461026 5.4191718,5.4191923 0 0 0 28.197894,2.5527981 4.314405,4.3144213 0 0 0 25.465049,1.7503855 Z"
     id="path8894"
     style="fill:url(#linear-gradient-22);stroke-width:1" />
  <path
     class="cls-35"
     d="m 42.292392,11.483999 a 2.7561024,2.7561128 0 0 1 2.965427,0.232583 3.2096382,3.2096504 0 0 1 1.290832,3.174763 5.4191718,5.4191923 0 0 0 -1.523415,-2.593304 4.3725506,4.3725672 0 0 0 -2.732844,-0.814042 z"
     id="path8896"
     style="fill:url(#linear-gradient-23);stroke-width:1" />
  <ellipse
     class="cls-36"
     cx="9.7541027"
     cy="33.777115"
     id="circle8898"
     style="stroke-width:1"
     rx="1.3722366"
     ry="1.3722417" />
  <ellipse
     class="cls-37"
     cx="9.7541027"
     cy="14.286629"
     id="circle8900"
     style="stroke-width:1"
     rx="9.1288624"
     ry="9.1288967" />
  <ellipse
     class="cls-22"
     cx="9.7541027"
     cy="14.286629"
     id="circle8902"
     rx="9.1288624"
     ry="9.1288967" />
  <ellipse
     class="cls-38"
     cx="9.7541027"
     cy="14.286629"
     id="circle8904"
     style="fill:url(#linear-gradient-24)"
     rx="6.2332106"
     ry="6.2332344" />
  <ellipse
     class="cls-39"
     cx="9.7541027"
     cy="14.286629"
     id="circle8906"
     style="fill:url(#linear-gradient-25);stroke-width:1"
     rx="4.0120478"
     ry="4.012063" />
  <path
     class="cls-40"
     d="m 7.8701849,9.9140614 a 4.2678885,4.2679047 0 0 1 4.6516491,0.3605046 5.0005233,5.0005422 0 0 1 2.011839,4.954025 8.4776314,8.4776635 0 0 0 -2.38397,-4.058579 6.7100045,6.7100299 0 0 0 -4.2795181,-1.2559506 z"
     id="path8908"
     style="fill:url(#linear-gradient-26);stroke-width:1" />
  <path
     class="cls-25"
     d="m 5.4048106,14.577358 c 0,0 0,-1.744375 1.407124,-1.744375 1.407124,0 1.3606075,1.744375 1.3606075,1.744375 a 1.5583026,1.5583085 0 0 0 -1.314091,-0.790784 1.6164482,1.6164544 0 0 0 -1.4536405,0.790784 z"
     id="path8910"
     style="stroke-width:1" />
  <path
     class="cls-25"
     d="m 14.103395,14.577358 c 0,0 0,-1.744375 -1.407124,-1.744375 -1.407124,0 -1.360607,1.744375 -1.360607,1.744375 a 1.5466735,1.5466793 0 0 1 1.337349,-0.790784 1.6164482,1.6164544 0 0 1 1.430382,0.790784 z"
     id="path8912"
     style="stroke-width:1" />
  <path
     class="cls-37"
     d="m 13.080032,15.891454 c 0,0 -0.500052,2.988696 -3.325929,2.988696 -2.8258772,0 -3.3259295,-2.988696 -3.3259295,-2.988696 z"
     id="path8914"
     style="stroke-width:1" />
  <path
     class="cls-41"
     d="m 13.080032,15.891454 c 0,0 -0.500052,2.988696 -3.325929,2.988696 -2.8258772,0 -3.3259295,-2.988696 -3.3259295,-2.988696 z"
     id="path8916" />
  <ellipse
     class="cls-42"
     cx="9.7541027"
     cy="33.777115"
     id="circle8918"
     style="fill:url(#linear-gradient-27)"
     rx="3.9887896"
     ry="3.9888048" />
  <ellipse
     class="cls-43"
     cx="9.7541027"
     cy="33.777115"
     id="circle8920"
     style="fill:url(#linear-gradient-28);stroke-width:1"
     rx="2.5700364"
     ry="2.5700462" />
  <path
     class="cls-44"
     d="m 8.5446741,31.009372 a 2.721215,2.7212253 0 0 1 2.9654269,0.232584 3.18638,3.186392 0 0 1 1.290832,3.163133 5.4191718,5.4191923 0 0 0 -1.523415,-2.593304 4.314405,4.3144213 0 0 0 -2.7328439,-0.802413 z"
     id="path8922"
     style="fill:url(#linear-gradient-29);stroke-width:1" />
  <ellipse
     class="cls-25"
     cx="11.498471"
     cy="33.335205"
     id="circle8924"
     style="stroke-width:1"
     rx="0.74426395"
     ry="0.74426675" />
  <ellipse
     class="cls-25"
     cx="8.0097342"
     cy="33.335205"
     id="circle8926"
     style="stroke-width:1"
     rx="0.74426395"
     ry="0.74426675" />
  <polyline
     class="cls-45"
     points="11.62 34.04 9.49 34.04 7.36 34.04"
     id="polyline8928"
     transform="matrix(1.1629124,0,0,1.1629168,-1.2819357,-3.8781318)" />
  <line
     class="cls-46"
     x1="17.789827"
     y1="18.612679"
     x2="22.674061"
     y2="21.531601"
     id="line8930" />
  <ellipse
     class="cls-36"
     cx="21.650696"
     cy="20.950142"
     id="circle8932"
     style="stroke-width:1"
     rx="1.8955472"
     ry="1.8955544" />
</svg>
