<?xml version="1.0" encoding="UTF-8" standalone="no"?>
<svg
   viewBox="0 0 48 48"
   version="1.1"
   id="svg1552"
   sodipodi:docname="14-ConfigureRigVis.svg"
   inkscape:version="1.1 (c68e22c387, 2021-05-23)"
   xmlns:inkscape="http://www.inkscape.org/namespaces/inkscape"
   xmlns:sodipodi="http://sodipodi.sourceforge.net/DTD/sodipodi-0.dtd"
   xmlns:xlink="http://www.w3.org/1999/xlink"
   xmlns="http://www.w3.org/2000/svg"
   xmlns:svg="http://www.w3.org/2000/svg">
  <sodipodi:namedview
     id="namedview1554"
     pagecolor="#ffffff"
     bordercolor="#666666"
     borderopacity="1.0"
     inkscape:pageshadow="2"
     inkscape:pageopacity="0.0"
     inkscape:pagecheckerboard="0"
     showgrid="false"
     inkscape:zoom="18.474014"
     inkscape:cx="24.710385"
     inkscape:cy="24.872776"
     inkscape:window-width="2880"
     inkscape:window-height="1557"
     inkscape:window-x="-8"
     inkscape:window-y="-8"
     inkscape:window-maximized="1"
     inkscape:current-layer="svg1552" />
  <defs
     id="defs1229">
    <linearGradient
       inkscape:collect="always"
       id="linearGradient1926">
      <stop
         style="stop-color:#000000;stop-opacity:0.38551402"
         offset="0"
         id="stop1922" />
      <stop
         style="stop-color:#000000;stop-opacity:0;"
         offset="1"
         id="stop1924" />
    </linearGradient>
    <style
       id="style1190">.cls-1,.cls-10,.cls-12,.cls-14,.cls-18,.cls-20,.cls-28,.cls-3,.cls-30,.cls-5,.cls-6,.cls-7,.cls-8,.cls-9{fill:none;}.cls-2,.cls-6{opacity:0.45;}.cls-3,.cls-8{stroke:#fff;}.cls-10,.cls-12,.cls-14,.cls-18,.cls-3,.cls-5,.cls-6,.cls-7,.cls-8,.cls-9{stroke-linecap:round;stroke-linejoin:round;}.cls-3{stroke-width:2px;}.cls-14,.cls-4{opacity:0.4;}.cls-14,.cls-5{stroke:#4e9a06;stroke-width:0.4px;}.cls-12,.cls-6,.cls-7,.cls-9{stroke:#7be028;}.cls-6,.cls-9{stroke-width:0.9px;}.cls-10,.cls-18,.cls-30,.cls-7{stroke-width:0.35px;}.cls-8{stroke-width:1.5px;}.cls-10{stroke:#64cc13;}.cls-11{opacity:0.3;}.cls-12{stroke-width:0.72px;}.cls-13{fill:url(#radial-gradient);}.cls-15{fill:#193774;}.cls-16{fill:url(#linear-gradient);}.cls-17{fill:url(#linear-gradient-2);}.cls-18{stroke:#608bc3;}.cls-19{fill:url(#linear-gradient-3);}.cls-20,.cls-30{stroke:#d0dfef;}.cls-20,.cls-28,.cls-30{stroke-miterlimit:10;}.cls-20{stroke-width:0.26px;}.cls-21{fill:url(#linear-gradient-4);}.cls-22{fill:url(#linear-gradient-5);}.cls-23{fill:url(#linear-gradient-6);}.cls-24{clip-path:url(#clip-path);}.cls-25{fill:url(#New_Gradient_Swatch_13);}.cls-26{fill:url(#New_Gradient_Swatch_13-2);}.cls-27{fill:url(#linear-gradient-7);}.cls-28{stroke:#193774;stroke-width:0.38px;}.cls-29{fill:url(#linear-gradient-8);}.cls-31{fill:url(#linear-gradient-9);}.cls-32{fill:url(#New_Gradient_Swatch_13-3);}.cls-33{fill:url(#linear-gradient-10);}.cls-34{fill:url(#linear-gradient-11);}.cls-35{fill:url(#linear-gradient-12);}</style>
    <radialGradient
       id="radial-gradient"
       cx="-1.36"
       cy="41.4"
       r="20.08"
       gradientTransform="matrix(1.12,0,0,0.25,25.206125,32.853936)"
       gradientUnits="userSpaceOnUse">
      <stop
         offset="0.03"
         stop-color="#212121"
         stop-opacity="0.5"
         id="stop1192" />
      <stop
         offset="0.68"
         stop-color="#212121"
         stop-opacity="0.1"
         id="stop1194" />
      <stop
         offset="0.93"
         stop-color="#212121"
         stop-opacity="0"
         id="stop1196" />
    </radialGradient>
    <linearGradient
       id="linear-gradient"
       x1="19.93"
       y1="21.6"
       x2="23.1"
       y2="45.88"
       gradientUnits="userSpaceOnUse">
      <stop
         offset="0"
         stop-color="#00255d"
         stop-opacity="0"
         id="stop1199" />
      <stop
         offset="1"
         stop-color="#00255d"
         id="stop1201" />
    </linearGradient>
    <linearGradient
       id="linear-gradient-2"
       x1="22.58"
       y1="18.86"
       x2="22.58"
       y2="33.37"
       xlink:href="#linear-gradient"
       gradientTransform="matrix(1.1057724,0,0,1.10551,0.32397953,-3.584608)" />
    <linearGradient
       id="linear-gradient-3"
       x1="33.73"
       y1="11.29"
       x2="33.78"
       y2="13.33"
       gradientUnits="userSpaceOnUse">
      <stop
         offset="0"
         stop-color="#a2bede"
         id="stop1205" />
      <stop
         offset="1"
         stop-color="#285092"
         id="stop1207" />
    </linearGradient>
    <linearGradient
       id="linear-gradient-4"
       x1="24.16"
       y1="13.24"
       x2="25.93"
       y2="18.72"
       xlink:href="#linear-gradient"
       gradientTransform="matrix(1.1057724,0,0,1.10551,0.32397953,-3.584608)" />
    <linearGradient
       id="linear-gradient-5"
       x1="23.09"
       y1="14.76"
       x2="28.11"
       y2="14.76"
       xlink:href="#linear-gradient"
       gradientTransform="matrix(1.1057724,0,0,1.10551,0.32397953,-3.584608)" />
    <linearGradient
       id="linear-gradient-6"
       x1="25.57"
       y1="14.53"
       x2="26.3"
       y2="16.8"
       xlink:href="#linear-gradient"
       gradientTransform="matrix(1.1057724,0,0,1.10551,0.32397953,-3.584608)" />
    <clipPath
       id="clip-path">
      <path
         class="cls-1"
         d="M22.82,12.14a5.38,5.38,0,0,0-1.92.47c-.55.36-.45,1.25-.33,1.82a2.19,2.19,0,0,0,.95,1.25,2.33,2.33,0,0,0,.65.7,3.74,3.74,0,0,1,1.35,1.28,3,3,0,0,1,.28.92s.41.91,2.35.67,2-1.33,2-1.33A6.41,6.41,0,0,1,28,16.64c0-.7,0-2.28.07-3a4.26,4.26,0,0,0-.51-1.84c-.36-.67-.71-.83-.89-.87s-.79.06-1.77.63A4.42,4.42,0,0,1,22.82,12.14Z"
         id="path1213" />
    </clipPath>
    <linearGradient
       id="New_Gradient_Swatch_13"
       x1="24.05"
       y1="12.25"
       x2="24.91"
       y2="15.89"
       gradientUnits="userSpaceOnUse">
      <stop
         offset="0"
         stop-color="#608bc3"
         id="stop1216" />
      <stop
         offset="1"
         stop-color="#285092"
         id="stop1218" />
    </linearGradient>
    <linearGradient
       id="New_Gradient_Swatch_13-2"
       x1="0.05"
       y1="46.6"
       x2="1.24"
       y2="47.68"
       gradientTransform="matrix(-0.81807986,-0.74086528,-0.74069393,0.81826912,35.84615,-12.329198)"
       xlink:href="#New_Gradient_Swatch_13" />
    <linearGradient
       id="linear-gradient-7"
       x1="-0.09"
       y1="46.12"
       x2="0.93"
       y2="47.46"
       gradientTransform="matrix(-0.8293293,0.7296366,0.72980978,0.8291325,-8.2346988,-37.004175)"
       xlink:href="#linear-gradient" />
    <linearGradient
       id="linear-gradient-8"
       x1="23.67"
       y1="12.92"
       x2="23.85"
       y2="10.24"
       xlink:href="#linear-gradient-3"
       gradientTransform="matrix(1.1057724,0,0,1.10551,0.32397953,-3.584608)" />
    <linearGradient
       id="linear-gradient-9"
       x1="20.77"
       y1="9.38"
       x2="25.72"
       y2="8.3"
       xlink:href="#linear-gradient-3"
       gradientTransform="matrix(1.1057724,0,0,1.10551,0.32397953,-3.584608)" />
    <linearGradient
       id="New_Gradient_Swatch_13-3"
       x1="21.29"
       y1="7.05"
       x2="23.16"
       y2="8.83"
       xlink:href="#New_Gradient_Swatch_13"
       gradientTransform="matrix(1.1057724,0,0,1.10551,0.32397953,-3.584608)" />
    <linearGradient
       id="linear-gradient-10"
       x1="21.62"
       y1="7.63"
       x2="24.5"
       y2="9.86"
       xlink:href="#linear-gradient"
       gradientTransform="matrix(1.1057724,0,0,1.10551,0.32397953,-3.584608)" />
    <linearGradient
       id="linear-gradient-11"
       x1="20.9"
       y1="9.94"
       x2="25.85"
       y2="8.86"
       xlink:href="#linear-gradient-3"
       gradientTransform="matrix(1.1057724,0,0,1.10551,0.32397953,-3.584608)" />
    <linearGradient
       id="linear-gradient-12"
       x1="14.75"
       y1="19.17"
       x2="16.39"
       y2="21.08"
       xlink:href="#linear-gradient-3"
       gradientTransform="matrix(1.1057724,0,0,1.10551,0.32397953,-3.584608)" />
    <linearGradient
       inkscape:collect="always"
       xlink:href="#linear-gradient"
       id="linearGradient1636"
       gradientUnits="userSpaceOnUse"
       x1="19.93"
       y1="21.6"
       x2="23.1"
       y2="45.88"
       gradientTransform="matrix(1.1057724,0,0,1.10551,0.32397953,-3.584608)" />
    <linearGradient
       inkscape:collect="always"
       xlink:href="#linear-gradient"
       id="linearGradient1638"
       x1="22.58"
       y1="18.86"
       x2="22.58"
       y2="33.37"
       gradientTransform="matrix(1.1057724,0,0,1.10551,0.32397953,-3.584608)" />
    <linearGradient
       inkscape:collect="always"
       xlink:href="#linear-gradient-3"
       id="linearGradient1640"
       gradientUnits="userSpaceOnUse"
       x1="33.73"
       y1="11.29"
       x2="33.78"
       y2="13.33"
       gradientTransform="matrix(1.1057724,0,0,1.10551,0.32397953,-3.584608)" />
    <linearGradient
       inkscape:collect="always"
       xlink:href="#linear-gradient"
       id="linearGradient1642"
       x1="24.16"
       y1="13.24"
       x2="25.93"
       y2="18.72"
       gradientTransform="matrix(1.1057724,0,0,1.10551,0.32397953,-3.584608)" />
    <linearGradient
       inkscape:collect="always"
       xlink:href="#linear-gradient"
       id="linearGradient1644"
       x1="23.09"
       y1="14.76"
       x2="28.11"
       y2="14.76"
       gradientTransform="matrix(1.1057724,0,0,1.10551,0.32397953,-3.584608)" />
    <linearGradient
       inkscape:collect="always"
       xlink:href="#linear-gradient"
       id="linearGradient1646"
       x1="25.57"
       y1="14.53"
       x2="26.3"
       y2="16.8"
       gradientTransform="matrix(1.1057724,0,0,1.10551,0.32397953,-3.584608)" />
    <linearGradient
       inkscape:collect="always"
       xlink:href="#New_Gradient_Swatch_13"
       id="linearGradient1648"
       gradientUnits="userSpaceOnUse"
       x1="24.05"
       y1="12.25"
       x2="24.91"
       y2="15.89" />
    <linearGradient
       inkscape:collect="always"
       xlink:href="#New_Gradient_Swatch_13"
       id="linearGradient1650"
       gradientTransform="matrix(-0.81807986,-0.74086528,-0.74069393,0.81826912,35.84615,-12.329198)"
       x1="0.05"
       y1="46.6"
       x2="1.24"
       y2="47.68" />
    <linearGradient
       inkscape:collect="always"
       xlink:href="#linear-gradient"
       id="linearGradient1652"
       gradientTransform="matrix(-0.8293293,0.7296366,0.72980978,0.8291325,-8.2346988,-37.004175)"
       x1="-0.09"
       y1="46.12"
       x2="0.93"
       y2="47.46" />
    <linearGradient
       inkscape:collect="always"
       xlink:href="#linear-gradient-3"
       id="linearGradient1654"
       x1="23.67"
       y1="12.92"
       x2="23.85"
       y2="10.24"
       gradientTransform="matrix(1.1057724,0,0,1.10551,0.32397953,-3.584608)" />
    <linearGradient
       inkscape:collect="always"
       xlink:href="#linear-gradient-3"
       id="linearGradient1656"
       x1="20.77"
       y1="9.38"
       x2="25.72"
       y2="8.3"
       gradientTransform="matrix(1.1057724,0,0,1.10551,0.32397953,-3.584608)" />
    <linearGradient
       inkscape:collect="always"
       xlink:href="#New_Gradient_Swatch_13"
       id="linearGradient1658"
       x1="21.29"
       y1="7.05"
       x2="23.16"
       y2="8.83"
       gradientTransform="matrix(1.1057724,0,0,1.10551,0.32397953,-3.584608)" />
    <linearGradient
       inkscape:collect="always"
       xlink:href="#linear-gradient"
       id="linearGradient1660"
       x1="21.62"
       y1="7.63"
       x2="24.5"
       y2="9.86"
       gradientTransform="matrix(1.1057724,0,0,1.10551,0.32397953,-3.584608)" />
    <linearGradient
       inkscape:collect="always"
       xlink:href="#linear-gradient-3"
       id="linearGradient1662"
       x1="20.9"
       y1="9.94"
       x2="25.85"
       y2="8.86"
       gradientTransform="matrix(1.1057724,0,0,1.10551,0.32397953,-3.584608)" />
    <linearGradient
       inkscape:collect="always"
       xlink:href="#linear-gradient-3"
       id="linearGradient1664"
       x1="14.75"
       y1="19.17"
       x2="16.39"
       y2="21.08"
       gradientTransform="matrix(1.1057724,0,0,1.10551,0.32397953,-3.584608)" />
    <linearGradient
       inkscape:collect="always"
       xlink:href="#linear-gradient"
       id="linearGradient1666"
       gradientUnits="userSpaceOnUse"
       x1="19.93"
       y1="21.6"
       x2="23.1"
       y2="45.88"
       gradientTransform="matrix(1.1057724,0,0,1.10551,0.32397953,-3.584608)" />
    <linearGradient
       inkscape:collect="always"
       xlink:href="#linear-gradient-3"
       id="linearGradient1668"
       gradientUnits="userSpaceOnUse"
       x1="33.73"
       y1="11.29"
       x2="33.78"
       y2="13.33"
       gradientTransform="matrix(1.1057724,0,0,1.10551,0.32397953,-3.584608)" />
    <linearGradient
       inkscape:collect="always"
       xlink:href="#New_Gradient_Swatch_13"
       id="linearGradient1670"
       gradientUnits="userSpaceOnUse"
       x1="24.05"
       y1="12.25"
       x2="24.91"
       y2="15.89" />
    <radialGradient
       inkscape:collect="always"
       xlink:href="#linearGradient1926"
       id="radialGradient1928"
       cx="23.676126"
       cy="43.113937"
       fx="23.676126"
       fy="43.113937"
       r="21.700001"
       gradientTransform="matrix(1,0,0,0.22119816,0,33.577214)"
       gradientUnits="userSpaceOnUse" />
  </defs>
  <ellipse
     class="cls-13"
     cx="23.676126"
     cy="43.113937"
     rx="21.700001"
     ry="4.8000002"
     id="ellipse1343"
     style="fill:url(#radialGradient1928);fill-opacity:1" />
  <g
     class="cls-2"
     id="g1241"
     style="stroke-width:0.904453"
     transform="matrix(1.1057724,0,0,1.10551,0.32397953,-3.584608)">
    <polygon
       class="cls-3"
       points="30.9,40.1 30.76,37.57 28.49,36.6 28.53,40.83 33.07,43.61 33.07,42.3 "
       id="polygon1231" />
    <polygon
       class="cls-3"
       points="35.86,41.28 33.07,42.3 33.07,43.61 35.86,42.48 "
       id="polygon1233" />
    <polygon
       class="cls-3"
       points="30.76,37.57 30.9,40.1 33.07,42.3 35.86,41.28 33.46,39.41 33.31,36.98 "
       id="polygon1235" />
    <line
       class="cls-3"
       x1="30.9"
       y1="40.099998"
       x2="33.459999"
       y2="39.41"
       id="line1237" />
    <polyline
       class="cls-3"
       points="33.31 36.98 31.15 36.14 28.49 36.6"
       id="polyline1239" />
  </g>
  <g
     class="cls-4"
     id="g1247"
     style="stroke-width:0.904453;stroke:#ef2929"
     transform="matrix(1.1057724,0,0,1.10551,0.32397953,-3.584608)">
    <polyline
       class="cls-5"
       points="27.29 8.65 23.09 8.95 19.47 12.62"
       id="polyline1243"
       style="stroke:#ef2929" />
    <line
       class="cls-5"
       x1="21.030001"
       y1="4.3099999"
       x2="23.09"
       y2="8.9499998"
       id="line1245"
       style="stroke:#ef2929" />
  </g>
  <polyline
     class="cls-6"
     points="33.31 36.98 31.15 36.14 28.49 36.6"
     id="polyline1249"
     transform="matrix(1.1057724,0,0,1.10551,0.32397953,-3.584608)" />
  <polyline
     class="cls-7"
     points="33.31 36.98 31.15 36.14 28.49 36.6"
     id="polyline1251"
     transform="matrix(1.1057724,0,0,1.10551,0.32397953,-3.584608)" />
  <g
     class="cls-2"
     id="g1261"
     style="stroke-width:0.904453"
     transform="matrix(1.1057724,0,0,1.10551,0.32397953,-3.584608)">
    <polygon
       class="cls-3"
       points="31.92,22.25 31.46,18.69 19.89,20 20.27,23.56 "
       id="polygon1253" />
    <polyline
       class="cls-3"
       points="31.46 18.69 29.7 16.96 21.9 18 19.89 20"
       id="polyline1255" />
    <polyline
       class="cls-3"
       points="30.16 20.52 22.36 21.56 20.27 23.56"
       id="polyline1257" />
    <polyline
       class="cls-8"
       points="31.92 22.25 30.16 20.52 29.7 16.96"
       id="polyline1259" />
  </g>
  <g
     class="cls-2"
     id="g1271"
     style="stroke-width:0.904453"
     transform="matrix(1.1057724,0,0,1.10551,0.32397953,-3.584608)">
    <polyline
       class="cls-9"
       points="30.16 20.52 22.36 21.56 20.27 23.56"
       id="polyline1263" />
    <polyline
       class="cls-9"
       points="31.92 22.25 30.16 20.52 29.7 16.96"
       id="polyline1265" />
    <polyline
       class="cls-9"
       points="31.46 18.69 29.7 16.96 21.9 18 19.89 20"
       id="polyline1267" />
    <line
       class="cls-9"
       x1="22.360001"
       y1="21.559999"
       x2="21.9"
       y2="18"
       id="line1269" />
  </g>
  <g
     class="cls-2"
     id="g1281"
     style="stroke-width:0.904453"
     transform="matrix(1.1057724,0,0,1.10551,0.32397953,-3.584608)">
    <line
       class="cls-3"
       x1="11.47"
       y1="20.540001"
       x2="9.2299995"
       y2="20.530001"
       id="line1273" />
    <polygon
       class="cls-3"
       points="15.09,17.71 13.09,17.97 9.23,20.53 12.06,24.34 14.22,24.71 17.1,20.79 "
       id="polygon1275" />
    <polygon
       class="cls-3"
       points="11.47,20.54 15.09,17.71 17.1,20.79 14.22,24.71 "
       id="polygon1277" />
    <polyline
       class="cls-3"
       points="12.06 24.34 15.11 21.05 13.09 17.97"
       id="polyline1279" />
  </g>
  <g
     class="cls-2"
     id="g1289"
     style="stroke-width:0.904453"
     transform="matrix(1.1057724,0,0,1.10551,0.32397953,-3.584608)">
    <polygon
       class="cls-9"
       points="15.09,17.71 13.09,17.97 9.23,20.53 12.06,24.34 14.22,24.71 17.1,20.79 "
       id="polygon1283" />
    <polyline
       class="cls-9"
       points="13.09 17.97 15.11 21.05 17.1 20.79"
       id="polyline1285" />
    <line
       class="cls-9"
       x1="15.11"
       y1="21.049999"
       x2="12.06"
       y2="24.34"
       id="line1287" />
  </g>
  <polyline
     class="cls-10"
     points="13.09 17.97 15.11 21.05 17.1 20.79"
     id="polyline1291"
     transform="matrix(1.1057724,0,0,1.10551,0.32397953,-3.584608)" />
  <line
     class="cls-10"
     x1="17.0322"
     y1="19.686377"
     x2="13.659595"
     y2="23.323505"
     id="line1293" />
  <polyline
     class="cls-7"
     points="15.09 17.71 13.09 17.97 9.23 20.53 12.06 24.34 14.22 24.71"
     id="polyline1295"
     transform="matrix(1.1057724,0,0,1.10551,0.32397953,-3.584608)" />
  <g
     class="cls-11"
     id="g1303"
     style="stroke-width:0.904453"
     transform="matrix(1.1057724,0,0,1.10551,0.32397953,-3.584608)">
    <line
       class="cls-8"
       x1="8.1599998"
       y1="16.18"
       x2="9.0900002"
       y2="17.48"
       id="line1297" />
    <line
       class="cls-8"
       x1="5.5"
       y1="18.700001"
       x2="7.0700002"
       y2="19.25"
       id="line1299" />
    <line
       class="cls-8"
       x1="6.02"
       y1="22.52"
       x2="7.27"
       y2="22"
       id="line1301" />
  </g>
  <g
     class="cls-11"
     id="g1309"
     style="stroke-width:0.904453"
     transform="matrix(1.1057724,0,0,1.10551,0.32397953,-3.584608)">
    <line
       class="cls-8"
       x1="27.27"
       y1="33.360001"
       x2="27.790001"
       y2="34.360001"
       id="line1305" />
    <line
       class="cls-8"
       x1="24.860001"
       y1="35.360001"
       x2="26.530001"
       y2="35.93"
       id="line1307" />
  </g>
  <g
     class="cls-2"
     id="g1315"
     style="stroke-width:0.904453"
     transform="matrix(1.1057724,0,0,1.10551,0.32397953,-3.584608)">
    <line
       class="cls-12"
       x1="27.27"
       y1="33.360001"
       x2="27.790001"
       y2="34.360001"
       id="line1311" />
    <line
       class="cls-12"
       x1="24.860001"
       y1="35.360001"
       x2="26.530001"
       y2="35.93"
       id="line1313" />
  </g>
  <line
     class="cls-7"
     x1="30.478394"
     y1="33.295208"
     x2="31.053396"
     y2="34.400715"
     id="line1317" />
  <line
     class="cls-7"
     x1="27.813482"
     y1="35.506226"
     x2="29.660122"
     y2="36.136368"
     id="line1319" />
  <g
     class="cls-11"
     id="g1327"
     style="stroke-width:0.904453"
     transform="matrix(1.1057724,0,0,1.10551,0.32397953,-3.584608)">
    <line
       class="cls-8"
       x1="34.310001"
       y1="20.790001"
       x2="35.720001"
       y2="20.32"
       id="line1321" />
    <line
       class="cls-8"
       x1="34.509998"
       y1="22.959999"
       x2="36.299999"
       y2="23.700001"
       id="line1323" />
    <line
       class="cls-8"
       x1="33.25"
       y1="24.549999"
       x2="34.119999"
       y2="25.83"
       id="line1325" />
  </g>
  <g
     class="cls-2"
     id="g1335"
     style="stroke-width:0.904453"
     transform="matrix(1.1057724,0,0,1.10551,0.32397953,-3.584608)">
    <line
       class="cls-12"
       x1="34.310001"
       y1="20.790001"
       x2="35.720001"
       y2="20.32"
       id="line1329" />
    <line
       class="cls-12"
       x1="34.509998"
       y1="22.959999"
       x2="36.299999"
       y2="23.700001"
       id="line1331" />
    <line
       class="cls-12"
       x1="33.25"
       y1="24.549999"
       x2="34.119999"
       y2="25.83"
       id="line1333" />
  </g>
  <line
     class="cls-7"
     x1="38.263031"
     y1="19.398947"
     x2="39.82217"
     y2="18.879354"
     id="line1337" />
  <line
     class="cls-7"
     x1="38.484184"
     y1="21.797901"
     x2="40.463516"
     y2="22.61598"
     id="line1339" />
  <line
     class="cls-7"
     x1="37.090912"
     y1="23.555662"
     x2="38.052933"
     y2="24.970715"
     id="line1341" />
  <line
     class="cls-14"
     x1="40.452461"
     y1="11.947807"
     x2="40.032265"
     y2="6.6745243"
     id="line1345"
     style="stroke:#ef2929" />
  <polyline
     class="cls-14"
     points="34.73 14.17 32.82 14.1 32.41 10 34.36 9.52"
     id="polyline1347"
     style="stroke:#ef2929"
     transform="matrix(1.1057724,0,0,1.10551,0.32397953,-3.584608)" />
  <path
     class="cls-15"
     d="m 26.597132,16.778886 a 9.8856053,9.8832594 0 0 0 -0.464425,1.923588 c 0,0 -2.96347,4.842133 -3.991838,6.555674 a 11.312052,11.309367 0 0 0 -1.50385,3.139648 8.0057922,8.0038924 0 0 0 -0.187982,0.939684 11.46686,11.464139 0 0 0 -1.74712,2.807995 c -0.508655,1.359777 -1.879813,5.715487 -2.830778,6.942603 -0.276443,0.364818 -1.99039,2.21102 -2.499045,2.741665 -0.508655,0.530645 -1.105773,0.972849 -1.183177,1.227116 -0.0774,0.254267 0.24327,0.718581 0.962022,0.873353 a 2.8639505,2.8632709 0 0 0 1.924044,-0.364819 17.813993,17.809766 0 0 1 1.758178,-1.260281 c 0.718753,-0.420094 0.928849,-0.707526 0.917792,-0.928628 a 9.8634898,9.8611492 0 0 1 0,-1.171841 3.5384717,3.537632 0 0 1 0.762983,-1.978863 c 0.398078,-0.663306 1.537023,-2.100469 2.996643,-4.333599 1.105772,-1.64721 0.87356,-3.438136 1.84664,-4.974795 0,0 2.510103,-2.664279 3.538471,-3.615018 a 20.368328,20.363494 0 0 0 2.421642,-3.062262 31.58086,31.573366 0 0 0 2.908181,4.344654 6.1259791,6.1245254 0 0 1 1.481735,2.509508 2.5322188,2.5316179 0 0 1 -0.287501,0.762801 7.6630027,7.6611843 0 0 0 -0.508655,4.057222 26.77075,26.764397 0 0 1 0.464425,4.974795 15.867834,15.864069 0 0 0 -0.143751,2.133634 0.72980978,0.7296366 0 0 0 0.409136,0.49748 3.2288554,3.2280892 0 0 1 1.105772,0.707526 3.0077009,3.0069872 0 0 0 2.211545,0.873353 c 1.105773,0 1.315869,-0.265322 1.393273,-0.475369 a 1.1057724,1.10551 0 0 0 -0.796156,-1.271337 3.6822221,3.6813483 0 0 1 -2.156256,-2.752719 32.730863,32.723096 0 0 1 0.34279,-4.886355 29.911143,29.904046 0 0 0 0.276443,-3.416026 4.6442441,4.643142 0 0 0 0.187981,-1.614044 c -0.08846,-0.707527 -0.796156,-3.006987 -1.581255,-6.190856 A 8.3706971,8.3687107 0 0 0 32.524072,18.216049 C 32.04859,17.19898 31.418299,16.226131 31.418299,16.226131"
     id="path1349"
     style="stroke-width:1" />
  <path
     class="cls-16"
     d="m 26.597132,16.778886 a 9.8856053,9.8832594 0 0 0 -0.464425,1.923588 c 0,0 -2.96347,4.842133 -3.991838,6.555674 a 11.312052,11.309367 0 0 0 -1.50385,3.139648 8.0057922,8.0038924 0 0 0 -0.187982,0.939684 11.46686,11.464139 0 0 0 -1.74712,2.807995 c -0.508655,1.359777 -1.879813,5.715487 -2.830778,6.942603 -0.276443,0.364818 -1.99039,2.21102 -2.499045,2.741665 -0.508655,0.530645 -1.105773,0.972849 -1.183177,1.227116 -0.0774,0.254267 0.24327,0.718581 0.962022,0.873353 a 2.8639505,2.8632709 0 0 0 1.924044,-0.364819 17.813993,17.809766 0 0 1 1.758178,-1.260281 c 0.718753,-0.420094 0.928849,-0.707526 0.917792,-0.928628 a 9.8634898,9.8611492 0 0 1 0,-1.171841 3.5384717,3.537632 0 0 1 0.762983,-1.978863 c 0.398078,-0.663306 1.537023,-2.100469 2.996643,-4.333599 1.105772,-1.64721 0.87356,-3.438136 1.84664,-4.974795 0,0 2.510103,-2.664279 3.538471,-3.615018 a 20.368328,20.363494 0 0 0 2.421642,-3.062262 31.58086,31.573366 0 0 0 2.908181,4.344654 6.1259791,6.1245254 0 0 1 1.481735,2.509508 2.5322188,2.5316179 0 0 1 -0.287501,0.762801 7.6630027,7.6611843 0 0 0 -0.508655,4.057222 26.77075,26.764397 0 0 1 0.464425,4.974795 15.867834,15.864069 0 0 0 -0.143751,2.133634 0.72980978,0.7296366 0 0 0 0.409136,0.49748 3.2288554,3.2280892 0 0 1 1.105772,0.707526 3.0077009,3.0069872 0 0 0 2.211545,0.873353 c 1.105773,0 1.315869,-0.265322 1.393273,-0.475369 a 1.1057724,1.10551 0 0 0 -0.796156,-1.271337 3.6822221,3.6813483 0 0 1 -2.156256,-2.752719 32.730863,32.723096 0 0 1 0.34279,-4.886355 29.911143,29.904046 0 0 0 0.276443,-3.416026 4.6442441,4.643142 0 0 0 0.187981,-1.614044 c -0.08846,-0.707527 -0.796156,-3.006987 -1.581255,-6.190856 A 8.3706971,8.3687107 0 0 0 32.524072,18.216049 C 32.04859,17.19898 31.418299,16.226131 31.418299,16.226131"
     id="path1351"
     style="fill:url(#linearGradient1636);stroke-width:1" />
  <path
     class="cls-17"
     d="m 26.597132,16.778886 a 9.8856053,9.8832594 0 0 0 -0.464425,1.923588 c 0,0 -2.96347,4.842133 -3.991838,6.555674 a 11.312052,11.309367 0 0 0 -1.50385,3.139648 8.0057922,8.0038924 0 0 0 -0.187982,0.939684 11.46686,11.464139 0 0 0 -1.74712,2.807995 c -0.508655,1.359777 -1.879813,5.715487 -2.830778,6.942603 -0.276443,0.364818 -1.99039,2.21102 -2.499045,2.741665 -0.508655,0.530645 -1.105773,0.972849 -1.183177,1.227116 -0.0774,0.254267 0.24327,0.718581 0.962022,0.873353 a 2.8639505,2.8632709 0 0 0 1.924044,-0.364819 17.813993,17.809766 0 0 1 1.758178,-1.260281 c 0.718753,-0.420094 0.928849,-0.707526 0.917792,-0.928628 a 9.8634898,9.8611492 0 0 1 0,-1.171841 3.5384717,3.537632 0 0 1 0.762983,-1.978863 c 0.398078,-0.663306 1.537023,-2.100469 2.996643,-4.333599 1.105772,-1.64721 0.87356,-3.438136 1.84664,-4.974795 0,0 2.510103,-2.664279 3.538471,-3.615018 a 20.368328,20.363494 0 0 0 2.421642,-3.062262 31.58086,31.573366 0 0 0 2.908181,4.344654 6.1259791,6.1245254 0 0 1 1.481735,2.509508 2.5322188,2.5316179 0 0 1 -0.287501,0.762801 7.6630027,7.6611843 0 0 0 -0.508655,4.057222 26.77075,26.764397 0 0 1 0.464425,4.974795 15.867834,15.864069 0 0 0 -0.143751,2.133634 0.72980978,0.7296366 0 0 0 0.409136,0.49748 3.2288554,3.2280892 0 0 1 1.105772,0.707526 3.0077009,3.0069872 0 0 0 2.211545,0.873353 c 1.105773,0 1.315869,-0.265322 1.393273,-0.475369 a 1.1057724,1.10551 0 0 0 -0.796156,-1.271337 3.6822221,3.6813483 0 0 1 -2.156256,-2.752719 32.730863,32.723096 0 0 1 0.34279,-4.886355 29.911143,29.904046 0 0 0 0.276443,-3.416026 4.6442441,4.643142 0 0 0 0.187981,-1.614044 c -0.08846,-0.707527 -0.796156,-3.006987 -1.581255,-6.190856 A 8.3706971,8.3687107 0 0 0 32.524072,18.216049 C 32.04859,17.19898 31.418299,16.226131 31.418299,16.226131"
     id="path1353"
     style="fill:url(#linearGradient1638);stroke-width:1" />
  <path
     class="cls-18"
     d="m 26.597132,16.778886 a 9.8856053,9.8832594 0 0 0 -0.464425,1.923588 c 0,0 -2.96347,4.842133 -3.991838,6.555674 a 11.312052,11.309367 0 0 0 -1.50385,3.139648 8.0057922,8.0038924 0 0 0 -0.187982,0.939684 11.46686,11.464139 0 0 0 -1.74712,2.807995 c -0.508655,1.359777 -1.879813,5.715487 -2.830778,6.942603 -0.276443,0.364818 -1.99039,2.21102 -2.499045,2.741665 -0.508655,0.530645 -1.105773,0.972849 -1.183177,1.227116 -0.0774,0.254267 0.24327,0.718581 0.962022,0.873353 a 2.8639505,2.8632709 0 0 0 1.924044,-0.364819 17.813993,17.809766 0 0 1 1.758178,-1.260281 c 0.718753,-0.420094 0.928849,-0.707526 0.917792,-0.928628 a 9.8634898,9.8611492 0 0 1 0,-1.171841 3.5384717,3.537632 0 0 1 0.762983,-1.978863 c 0.398078,-0.663306 1.537023,-2.100469 2.996643,-4.333599 1.105772,-1.64721 0.87356,-3.438136 1.84664,-4.974795 0,0 2.510103,-2.664279 3.538471,-3.615018 a 20.368328,20.363494 0 0 0 2.421642,-3.062262 31.58086,31.573366 0 0 0 2.908181,4.344654 6.1259791,6.1245254 0 0 1 1.481735,2.509508 2.5322188,2.5316179 0 0 1 -0.287501,0.762801 7.6630027,7.6611843 0 0 0 -0.508655,4.057222 26.77075,26.764397 0 0 1 0.464425,4.974795 15.867834,15.864069 0 0 0 -0.143751,2.133634 0.72980978,0.7296366 0 0 0 0.409136,0.49748 3.2288554,3.2280892 0 0 1 1.105772,0.707526 3.0077009,3.0069872 0 0 0 2.211545,0.873353 c 1.105773,0 1.315869,-0.265322 1.393273,-0.475369 a 1.1057724,1.10551 0 0 0 -0.796156,-1.271337 3.6822221,3.6813483 0 0 1 -2.156256,-2.752719 32.730863,32.723096 0 0 1 0.34279,-4.886355 29.911143,29.904046 0 0 0 0.276443,-3.416026 4.6442441,4.643142 0 0 0 0.187981,-1.614044 c -0.08846,-0.707527 -0.796156,-3.006987 -1.581255,-6.190856 A 8.3706971,8.3687107 0 0 0 32.524072,18.216049 C 32.04859,17.19898 31.418299,16.226131 31.418299,16.226131"
     id="path1355" />
  <path
     class="cls-19"
     d="m 38.451012,10.444314 a 7.8952149,7.8933414 0 0 1 -2.322122,0.05527 15.724084,15.720352 0 0 0 -2.631738,0.51959 c -1.039427,0.276378 -2.211545,0.49748 -2.211545,0.49748 0,0 -0.862503,-0.165827 -1.404331,-1.492439 -0.541829,-1.3266119 0,-1.5034935 0,-1.5034935 a 14.463503,14.460071 0 0 1 2.653854,0.1326612 c 1.105772,0.099496 2.930296,0.2874326 3.49424,0.2542673 a 3.9807806,3.979836 0 0 1 1.60337,-0.2542673 25.432765,25.42673 0 0 0 3.671165,0 2.5764497,2.5758383 0 0 0 0.663463,-0.221102 6.4798263,6.4782886 0 0 1 1.105773,-0.6080305 c 0.254327,0 0.265385,0 0.619232,-0.077386 a 1.8134667,1.8130364 0 0 1 1.105772,0.4311489 l 0.751926,0.4753693 a 0.30961627,0.3095428 0 0 1 0.110577,0.3758734 0.29855855,0.2984877 0 0 1 -0.331732,0.088441 L 44.068336,8.6533877 C 43.90247,8.5981122 43.55968,9.0513713 43.55968,9.0513713 a 5.4182848,5.416999 0 0 0 0.575002,0.2653224 3.9918384,3.9908911 0 0 0 0.508655,0.1216061 0.28750082,0.2874326 0 0 1 0.232213,0.2763775 0.320674,0.3205979 0 0 1 -0.353848,0.2984877 10.051471,10.049086 0 0 1 -1.371157,-0.077386 11.444744,11.442028 0 0 0 -1.3601,-0.2542673 c -0.552887,0 -2.211545,0.5417003 -3.339433,0.7628023 z"
     id="path1357"
     style="fill:url(#linearGradient1640);stroke-width:1" />
  <path
     class="cls-20"
     d="m 38.451012,10.444314 a 7.8952149,7.8933414 0 0 1 -2.322122,0.05527 15.724084,15.720352 0 0 0 -2.631738,0.51959 c -1.039427,0.276378 -2.211545,0.49748 -2.211545,0.49748 0,0 -0.862503,-0.165827 -1.404331,-1.492439 -0.541829,-1.3266119 0,-1.5034935 0,-1.5034935 a 14.463503,14.460071 0 0 1 2.653854,0.1326612 c 1.105772,0.099496 2.930296,0.2874326 3.49424,0.2542673 a 3.9807806,3.979836 0 0 1 1.60337,-0.2542673 25.432765,25.42673 0 0 0 3.671165,0 2.5764497,2.5758383 0 0 0 0.663463,-0.221102 6.4798263,6.4782886 0 0 1 1.105773,-0.6080305 c 0.254327,0 0.265385,0 0.619232,-0.077386 a 1.8134667,1.8130364 0 0 1 1.105772,0.4311489 l 0.751926,0.4753693 a 0.30961627,0.3095428 0 0 1 0.110577,0.3758734 0.29855855,0.2984877 0 0 1 -0.331732,0.088441 L 44.068336,8.6533877 C 43.90247,8.5981122 43.55968,9.0513713 43.55968,9.0513713 a 5.4182848,5.416999 0 0 0 0.575002,0.2653224 3.9918384,3.9908911 0 0 0 0.508655,0.1216061 0.28750082,0.2874326 0 0 1 0.232213,0.2763775 0.320674,0.3205979 0 0 1 -0.353848,0.2984877 10.051471,10.049086 0 0 1 -1.371157,-0.077386 11.444744,11.442028 0 0 0 -1.3601,-0.2542673 c -0.552887,0 -2.211545,0.5417003 -3.339433,0.7628023 z"
     id="path1359" />
  <path
     class="cls-15"
     d="m 25.557706,9.8362834 a 5.9490555,5.9476438 0 0 0 -2.123083,0.5195896 c -0.608175,0.397984 -0.497598,1.381888 -0.364905,2.012028 a 2.4216416,2.4210669 0 0 0 1.050484,1.381888 2.5764497,2.5758383 0 0 0 0.718752,0.773857 4.1355888,4.1346074 0 0 1 1.492792,1.415053 3.3173172,3.31653 0 0 1 0.309617,1.017069 c 0,0 0.453366,1.006014 2.598565,0.740692 2.145198,-0.265323 2.211545,-1.470329 2.211545,-1.470329 a 7.0880011,7.0863191 0 0 1 -0.165866,-1.415053 c 0,-0.773857 0,-2.520562 0.0774,-3.31653 A 4.7105904,4.7094726 0 0 0 30.799067,9.46041 C 30.400989,8.7197183 30.013968,8.5428367 29.814929,8.4986163 c -0.199039,-0.04422 -0.87356,0.066331 -1.957217,0.6964713 a 4.887514,4.8863542 0 0 1 -2.300006,0.6411958 z"
     id="path1361"
     style="stroke-width:1" />
  <path
     class="cls-21"
     d="m 25.557706,9.8362834 a 5.9490555,5.9476438 0 0 0 -2.123083,0.5195896 c -0.608175,0.397984 -0.497598,1.381888 -0.364905,2.012028 a 2.4216416,2.4210669 0 0 0 1.050484,1.381888 2.5764497,2.5758383 0 0 0 0.718752,0.773857 4.1355888,4.1346074 0 0 1 1.492792,1.415053 3.3173172,3.31653 0 0 1 0.309617,1.017069 c 0,0 0.453366,1.006014 2.598565,0.740692 2.145198,-0.265323 2.211545,-1.470329 2.211545,-1.470329 a 7.0880011,7.0863191 0 0 1 -0.165866,-1.415053 c 0,-0.773857 0,-2.520562 0.0774,-3.31653 A 4.7105904,4.7094726 0 0 0 30.799067,9.46041 C 30.400989,8.7197183 30.013968,8.5428367 29.814929,8.4986163 c -0.199039,-0.04422 -0.87356,0.066331 -1.957217,0.6964713 a 4.887514,4.8863542 0 0 1 -2.300006,0.6411958 z"
     id="path1363"
     style="fill:url(#linearGradient1642);stroke-width:1" />
  <path
     class="cls-22"
     d="m 31.407242,11.516659 c -0.06635,0.729636 -0.06635,2.321571 -0.06635,3.150703 a 3.1956822,3.1949239 0 0 0 -1.459619,-0.56381 4.9980912,4.9969052 0 0 0 -2.056737,0.110551 2.001448,2.0009731 0 0 1 -1.968275,-0.110551 c 0.221155,0 1.448562,-0.56381 1.890871,-0.652251 0.442309,-0.08844 1.337985,-0.176881 1.901929,-0.320598 a 1.6586586,1.658265 0 0 0 1.337984,-1.10551 7.3202133,7.3184762 0 0 0 0.298559,-1.238171 v 0 c 0.0774,0.265322 0.09952,0.497479 0.121635,0.729637 z"
     id="path1365"
     style="fill:url(#linearGradient1644);stroke-width:1" />
  <path
     class="cls-23"
     d="m 31.407242,11.516659 c -0.06635,0.729636 -0.06635,2.321571 -0.06635,3.150703 a 3.1956822,3.1949239 0 0 0 -1.459619,-0.56381 4.9980912,4.9969052 0 0 0 -2.056737,0.110551 2.001448,2.0009731 0 0 1 -1.968275,-0.110551 c 0.221155,0 1.448562,-0.56381 1.890871,-0.652251 0.442309,-0.08844 1.337985,-0.176881 1.901929,-0.320598 a 1.6586586,1.658265 0 0 0 1.337984,-1.10551 7.3202133,7.3184762 0 0 0 0.298559,-1.238171 v 0 c 0.0774,0.265322 0.09952,0.497479 0.121635,0.729637 z"
     id="path1367"
     style="fill:url(#linearGradient1646);stroke-width:1" />
  <g
     class="cls-24"
     clip-path="url(#clip-path)"
     id="g1371"
     style="stroke-width:0.904453"
     transform="matrix(1.1057724,0,0,1.10551,0.32397953,-3.584608)">
    <path
       class="cls-25"
       d="M 28,11.33 A 5.83,5.83 0 0 0 24.67,12.11 9.86,9.86 0 0 0 21,15 l -1.11,-2.73 7.77,-2 z"
       id="path1369"
       style="fill:url(#linearGradient1648);stroke-width:0.904453" />
  </g>
  <path
     class="cls-18"
     d="m 25.557706,9.8362834 a 5.9490555,5.9476438 0 0 0 -2.123083,0.5195896 c -0.608175,0.397984 -0.497598,1.381888 -0.364905,2.012028 a 2.4216416,2.4210669 0 0 0 1.050484,1.381888 2.5764497,2.5758383 0 0 0 0.718752,0.773857 4.1355888,4.1346074 0 0 1 1.492792,1.415053 3.3173172,3.31653 0 0 1 0.309617,1.017069 c 0,0 0.453366,1.006014 2.598565,0.740692 2.145198,-0.265323 2.211545,-1.470329 2.211545,-1.470329 a 7.0880011,7.0863191 0 0 1 -0.165866,-1.415053 c 0,-0.773857 0,-2.520562 0.0774,-3.31653 A 4.7105904,4.7094726 0 0 0 30.799067,9.46041 C 30.400989,8.7197183 30.013968,8.5428367 29.814929,8.4986163 c -0.199039,-0.04422 -0.87356,0.066331 -1.957217,0.6964713 a 4.887514,4.8863542 0 0 1 -2.300006,0.6411958 z"
     id="path1373" />
  <ellipse
     class="cls-15"
     cx="0.18229017"
     cy="25.653971"
     rx="0.97285169"
     ry="1.039423"
     transform="matrix(0.11218897,-0.99368689,0.99369282,0.11213641,0,0)"
     id="ellipse1375"
     style="stroke-width:1" />
  <ellipse
     class="cls-26"
     cx="0.18229017"
     cy="25.653971"
     rx="0.97285169"
     ry="1.039423"
     transform="matrix(0.11218897,-0.99368689,0.99369282,0.11213641,0,0)"
     id="ellipse1377"
     style="fill:url(#linearGradient1650);stroke-width:1" />
  <path
     class="cls-15"
     d="m 24.827896,3.4243254 a 1.1057724,1.10551 0 0 0 0.575002,0.2432122 1.1057724,1.10551 0 0 0 0.906733,-0.3205979 0.88461792,0.884408 0 0 0 -0.48654,-0.7849121 0.75192523,0.7517468 0 0 0 -1.028368,0.2874326 0.47548213,0.4753693 0 0 0 0.03317,0.5748652 z"
     id="path1379"
     style="stroke-width:1" />
  <path
     class="cls-27"
     d="m 24.827896,3.4243254 a 1.1057724,1.10551 0 0 0 0.575002,0.2432122 1.1057724,1.10551 0 0 0 0.906733,-0.3205979 0.88461792,0.884408 0 0 0 -0.48654,-0.7849121 0.75192523,0.7517468 0 0 0 -1.028368,0.2874326 0.47548213,0.4753693 0 0 0 0.03317,0.5748652 z"
     id="path1381"
     style="fill:url(#linearGradient1652);stroke-width:1" />
  <ellipse
     class="cls-28"
     cx="0.18229017"
     cy="25.653971"
     rx="0.97285169"
     ry="1.039423"
     transform="matrix(0.11218897,-0.99368689,0.99369282,0.11213641,0,0)"
     id="ellipse1383" />
  <path
     class="cls-29"
     d="m 26.862517,6.5971391 a 4.5889555,4.5878665 0 0 0 0.552886,2.0341384 2.2115448,2.21102 0 0 0 0.674521,0.8401876 c 0,0 0.48654,0 0.298559,0.6190859 a 1.680774,1.6803752 0 0 1 -1.437504,1.10551 1.7581781,1.7577609 0 0 1 -1.514908,-0.453259 0.56394392,0.5638101 0 0 1 0,-0.56381 10.869743,10.867163 0 0 1 -0.608175,-1.7024859"
     id="path1385"
     style="fill:url(#linearGradient1654);stroke-width:1" />
  <path
     class="cls-30"
     d="m 26.862517,6.5971391 a 4.5889555,4.5878665 0 0 0 0.552886,2.0341384 2.2115448,2.21102 0 0 0 0.674521,0.8401876 c 0,0 0.48654,0 0.298559,0.6190859 a 1.680774,1.6803752 0 0 1 -1.437504,1.10551 1.7581781,1.7577609 0 0 1 -1.514908,-0.453259 0.56394392,0.5638101 0 0 1 0,-0.56381 10.869743,10.867163 0 0 1 -0.608175,-1.7024859"
     id="path1387" />
  <path
     class="cls-31"
     d="m 23.290872,5.9448882 a 6.5351149,6.5335641 0 0 0 0.563944,2.0673037 c 0.431251,0.773857 0.840387,0.9396835 1.105773,0.9286284 A 2.0346212,2.0341384 0 0 0 26.597132,7.470492 8.7577174,8.7556392 0 0 0 26.862517,6.0222739 1.802409,1.8019813 0 0 0 25.104339,3.93286 c -1.691832,0 -1.879813,1.0944549 -1.813467,2.0120282 z"
     id="path1389"
     style="fill:url(#linearGradient1656);stroke-width:1" />
  <path
     class="cls-30"
     d="m 26.862517,6.5971391 a 2.8528928,2.8522158 0 0 0 0,-0.5748652 A 1.802409,1.8019813 0 0 0 25.104339,3.93286 c -1.691832,0 -1.879813,1.10551 -1.813467,2.0120282 a 6.5351149,6.5335641 0 0 0 0.563944,2.0673037 c 0.431251,0.773857 0.840387,0.9396835 1.105773,0.9286284 a 1.9572171,1.9567527 0 0 0 0.884618,-0.3869285"
     id="path1391" />
  <path
     class="cls-32"
     d="m 23.191353,6.0775494 a 2.764431,2.763775 0 0 0 0.984137,0 c 0.519713,-0.099496 0.906734,-0.3869285 1.315869,-0.331653 a 1.0283683,1.0281243 0 0 1 0.862503,0.8401876 c 0,0.1437163 0.199039,0.1879367 0.221154,-0.088441 h 0.287501 A 3.3173172,3.31653 0 0 0 26.984152,5.259472 1.6365432,1.6361548 0 0 0 25.126454,3.7670335 1.7692358,1.768816 0 0 0 23.246641,5.03837 3.0629895,3.0622627 0 0 0 23.191353,6.0775494 Z"
     id="path1393"
     style="fill:url(#linearGradient1658);stroke-width:1" />
  <path
     class="cls-33"
     d="m 26.387035,5.701676 a 2.6870269,2.6863893 0 0 1 -0.08846,0.6080305 1.0062529,1.0060141 0 0 0 -0.807214,-0.6411958 c -0.431251,0 -0.851444,0.2542673 -1.393273,0.3648183 H 23.766356 A 1.8908708,1.8904221 0 0 1 24.18655,4.5851109 1.6476009,1.6472099 0 0 1 25.557708,4.3861191 1.1057724,1.10551 0 0 1 26.387037,5.701676 Z"
     id="path1395"
     style="fill:url(#linearGradient1660);stroke-width:1" />
  <path
     class="cls-28"
     d="m 23.191353,6.0775494 a 2.764431,2.763775 0 0 0 0.984137,0 c 0.519713,-0.099496 0.906734,-0.3869285 1.315869,-0.331653 a 1.0283683,1.0281243 0 0 1 0.862503,0.8401876 c 0,0.1437163 0.398078,0.1768816 0.420193,-0.099496 h 0.110578 A 3.3173172,3.31653 0 0 0 26.984152,5.259472 1.6365432,1.6361548 0 0 0 25.126454,3.7670335 1.7471204,1.7467058 0 0 0 23.246641,5.03837 2.6206806,2.6200587 0 0 0 23.191353,6.0775494 Z"
     id="path1397" />
  <path
     class="cls-34"
     d="m 26.497612,6.4423677 c 0,-0.2100469 0.187982,-0.3648183 0.364905,-0.3648183 0.176924,0 0.34279,0.2984877 0.287501,0.6964713 A 0.49759758,0.4974795 0 0 1 26.75194,7.2715002 c -0.0774,0 -0.221155,-0.1326612 -0.24327,-0.1989918 -0.02211,-0.066331 0.01106,-0.4643142 -0.01106,-0.6301407 z"
     id="path1399"
     style="fill:url(#linearGradient1662);stroke-width:1" />
  <path
     class="cls-35"
     d="m 23.832701,11.892532 a 4.5004937,4.4994257 0 0 0 -0.398078,-1.525604 4.047127,4.0461666 0 0 0 -1.006253,0.994959 28.363062,28.356331 0 0 1 -3.54953,4.013002 11.256763,11.254092 0 0 0 -2.13414,2.122579 18.311591,18.307246 0 0 1 -3.217798,3.117538 8.8461792,8.84408 0 0 1 -1.957217,0.442204 1.1057724,1.10551 0 0 0 -0.762983,0.309543 c -0.176924,0.187936 -0.8514449,0.807022 -1.2937538,1.271336 a 4.9096295,4.9084644 0 0 1 -0.7850984,0.729637 c -0.1548082,0.132661 0,0.309543 0.519713,0.309543 a 3.405779,3.4049708 0 0 0 1.5591392,-0.574866 12.307247,12.304326 0 0 0 0.97308,-0.884408 c 0.320674,-0.265322 0.928848,-0.375873 1.105772,-0.165826 0.176924,0.210047 0,0.364818 -0.24327,0.56381 -0.24327,0.198992 -0.464424,0.232157 -0.608175,0.386929 a 0.24326993,0.2432122 0 0 0 0,0.375873 c 0.110577,0.05528 0.420194,-0.06633 0.762983,-0.187937 a 2.4990456,2.4984526 0 0 0 0.917791,-0.619085 c 0.276443,-0.276378 0.298559,-0.751747 0.740868,-1.10551 v 0 a 32.343843,32.336168 0 0 0 3.859145,-2.763775 21.894294,21.889098 0 0 0 2.012506,-2.000973 c 0.552886,-0.608031 3.759626,-2.973822 3.759626,-2.973822 -0.320674,-0.608031 -0.121635,-0.807023 -0.254327,-1.835147 z"
     id="path1401"
     style="fill:url(#linearGradient1664);stroke-width:1" />
  <path
     class="cls-20"
     d="m 23.832701,11.892532 a 4.5004937,4.4994257 0 0 0 -0.398078,-1.525604 4.047127,4.0461666 0 0 0 -1.006253,0.994959 28.363062,28.356331 0 0 1 -3.54953,4.013002 11.256763,11.254092 0 0 0 -2.13414,2.122579 18.311591,18.307246 0 0 1 -3.217798,3.117538 8.8461792,8.84408 0 0 1 -1.957217,0.442204 1.1057724,1.10551 0 0 0 -0.762983,0.309543 c -0.176924,0.187936 -0.8514449,0.807022 -1.2937538,1.271336 a 4.9096295,4.9084644 0 0 1 -0.7850984,0.729637 c -0.1548082,0.132661 0,0.309543 0.519713,0.309543 a 3.405779,3.4049708 0 0 0 1.5591392,-0.574866 12.307247,12.304326 0 0 0 0.97308,-0.884408 c 0.320674,-0.265322 0.928848,-0.375873 1.105772,-0.165826 0.176924,0.210047 0,0.364818 -0.24327,0.56381 -0.24327,0.198992 -0.464424,0.232157 -0.608175,0.386929 a 0.24326993,0.2432122 0 0 0 0,0.375873 c 0.110577,0.05528 0.420194,-0.06633 0.762983,-0.187937 a 2.4990456,2.4984526 0 0 0 0.917791,-0.619085 c 0.276443,-0.276378 0.298559,-0.751747 0.740868,-1.10551 v 0 a 32.343843,32.336168 0 0 0 3.859145,-2.763775 21.894294,21.889098 0 0 0 2.012506,-2.000973 c 0.552886,-0.608031 3.759626,-2.973822 3.759626,-2.973822 -0.320674,-0.608031 -0.121635,-0.807023 -0.254327,-1.835147 z"
     id="path1403" />
  <path
     class="cls-18"
     d="m 23.434623,10.355873 a 4.5004937,4.4994257 0 0 1 0.398078,1.536659 c 0.132692,1.039179 -0.06635,1.238171 0.287501,1.868312 l 0.0774,0.0995"
     id="path1405" />
  <line
     class="cls-10"
     x1="25.049051"
     y1="20.250187"
     x2="24.540394"
     y2="16.314571"
     id="line1407" />
  <polyline
     class="cls-7"
     points="30.16 20.52 22.36 21.56 20.27 23.56"
     id="polyline1409"
     transform="matrix(1.1057724,0,0,1.10551,0.32397953,-3.584608)" />
  <line
     class="cls-10"
     x1="33.674076"
     y1="19.100458"
     x2="33.165421"
     y2="15.164841"
     id="line1411" />
  <line
     class="cls-7"
     x1="35.620235"
     y1="21.012989"
     x2="33.674076"
     y2="19.100458"
     id="line1413" />
  <polyline
     class="cls-7"
     points="31.46 18.69 29.7 16.96 21.9 18 19.89 20"
     id="polyline1415"
     transform="matrix(1.1057724,0,0,1.10551,0.32397953,-3.584608)" />
  <g
     class="cls-11"
     id="g1419"
     style="stroke-width:0.904453"
     transform="matrix(1.1057724,0,0,1.10551,0.32397953,-3.584608)">
    <line
       class="cls-9"
       x1="21.9"
       y1="18"
       x2="19.889999"
       y2="20"
       id="line1417" />
  </g>
  <polyline
     class="cls-10"
     points="31.46 18.69 29.7 16.96 21.9 18 19.89 20"
     id="polyline1421"
     transform="matrix(1.1057724,0,0,1.10551,0.32397953,-3.584608)" />
  <polyline
     class="cls-14"
     points="17.75 36.87 15.21 36.6 13 37.32"
     id="polyline1423"
     style="stroke:#ef2929"
     transform="matrix(1.1057724,0,0,1.10551,0.32397953,-3.584608)" />
  <path
     class="cls-15"
     d="m 26.597132,16.778886 a 9.8856053,9.8832594 0 0 0 -0.464425,1.923588 c 0,0 -2.96347,4.842133 -3.991838,6.555674 a 11.312052,11.309367 0 0 0 -1.50385,3.139648 8.0057922,8.0038924 0 0 0 -0.187982,0.939684 11.46686,11.464139 0 0 0 -1.74712,2.807995 c -0.508655,1.359777 -1.879813,5.715487 -2.830778,6.942603 -0.276443,0.364818 -1.99039,2.21102 -2.499045,2.741665 -0.508655,0.530645 -1.105773,0.972849 -1.183177,1.227116 -0.0774,0.254267 0.24327,0.718581 0.962022,0.873353 a 2.8639505,2.8632709 0 0 0 1.924044,-0.364819 17.813993,17.809766 0 0 1 1.758178,-1.260281 c 0.718753,-0.420094 0.928849,-0.707526 0.917792,-0.928628 a 9.8634898,9.8611492 0 0 1 0,-1.171841 3.5384717,3.537632 0 0 1 0.762983,-1.978863 c 0.398078,-0.663306 1.537023,-2.100469 2.996643,-4.333599 1.105772,-1.64721 0.87356,-3.438136 1.84664,-4.974795 0,0 2.510103,-2.664279 3.538471,-3.615018 a 20.368328,20.363494 0 0 0 2.421642,-3.062262 31.58086,31.573366 0 0 0 2.908181,4.344654 6.1259791,6.1245254 0 0 1 1.481735,2.509508 2.5322188,2.5316179 0 0 1 -0.287501,0.762801 7.6630027,7.6611843 0 0 0 -0.508655,4.057222 26.77075,26.764397 0 0 1 0.464425,4.974795 15.867834,15.864069 0 0 0 -0.143751,2.133634 0.72980978,0.7296366 0 0 0 0.409136,0.49748 3.2288554,3.2280892 0 0 1 1.105772,0.707526 3.0077009,3.0069872 0 0 0 2.211545,0.873353 c 1.105773,0 1.315869,-0.265322 1.393273,-0.475369 a 1.1057724,1.10551 0 0 0 -0.796156,-1.271337 3.6822221,3.6813483 0 0 1 -2.156256,-2.752719 32.730863,32.723096 0 0 1 0.34279,-4.886355 29.911143,29.904046 0 0 0 0.276443,-3.416026 4.6442441,4.643142 0 0 0 0.187981,-1.614044 c -0.08846,-0.707527 -0.796156,-3.006987 -1.581255,-6.190856 A 8.3706971,8.3687107 0 0 0 32.524072,18.216049 C 32.04859,17.19898 31.418299,16.226131 31.418299,16.226131"
     id="path1425"
     style="stroke-width:1" />
  <path
     class="cls-16"
     d="m 26.597132,16.778886 a 9.8856053,9.8832594 0 0 0 -0.464425,1.923588 c 0,0 -2.96347,4.842133 -3.991838,6.555674 a 11.312052,11.309367 0 0 0 -1.50385,3.139648 8.0057922,8.0038924 0 0 0 -0.187982,0.939684 11.46686,11.464139 0 0 0 -1.74712,2.807995 c -0.508655,1.359777 -1.879813,5.715487 -2.830778,6.942603 -0.276443,0.364818 -1.99039,2.21102 -2.499045,2.741665 -0.508655,0.530645 -1.105773,0.972849 -1.183177,1.227116 -0.0774,0.254267 0.24327,0.718581 0.962022,0.873353 a 2.8639505,2.8632709 0 0 0 1.924044,-0.364819 17.813993,17.809766 0 0 1 1.758178,-1.260281 c 0.718753,-0.420094 0.928849,-0.707526 0.917792,-0.928628 a 9.8634898,9.8611492 0 0 1 0,-1.171841 3.5384717,3.537632 0 0 1 0.762983,-1.978863 c 0.398078,-0.663306 1.537023,-2.100469 2.996643,-4.333599 1.105772,-1.64721 0.87356,-3.438136 1.84664,-4.974795 0,0 2.510103,-2.664279 3.538471,-3.615018 a 20.368328,20.363494 0 0 0 2.421642,-3.062262 31.58086,31.573366 0 0 0 2.908181,4.344654 6.1259791,6.1245254 0 0 1 1.481735,2.509508 2.5322188,2.5316179 0 0 1 -0.287501,0.762801 7.6630027,7.6611843 0 0 0 -0.508655,4.057222 26.77075,26.764397 0 0 1 0.464425,4.974795 15.867834,15.864069 0 0 0 -0.143751,2.133634 0.72980978,0.7296366 0 0 0 0.409136,0.49748 3.2288554,3.2280892 0 0 1 1.105772,0.707526 3.0077009,3.0069872 0 0 0 2.211545,0.873353 c 1.105773,0 1.315869,-0.265322 1.393273,-0.475369 a 1.1057724,1.10551 0 0 0 -0.796156,-1.271337 3.6822221,3.6813483 0 0 1 -2.156256,-2.752719 32.730863,32.723096 0 0 1 0.34279,-4.886355 29.911143,29.904046 0 0 0 0.276443,-3.416026 4.6442441,4.643142 0 0 0 0.187981,-1.614044 c -0.08846,-0.707527 -0.796156,-3.006987 -1.581255,-6.190856 A 8.3706971,8.3687107 0 0 0 32.524072,18.216049 C 32.04859,17.19898 31.418299,16.226131 31.418299,16.226131"
     id="path1427"
     style="fill:url(#linearGradient1666);stroke-width:1" />
  <path
     class="cls-17"
     d="m 26.597132,16.778886 a 9.8856053,9.8832594 0 0 0 -0.464425,1.923588 c 0,0 -2.96347,4.842133 -3.991838,6.555674 a 11.312052,11.309367 0 0 0 -1.50385,3.139648 8.0057922,8.0038924 0 0 0 -0.187982,0.939684 11.46686,11.464139 0 0 0 -1.74712,2.807995 c -0.508655,1.359777 -1.879813,5.715487 -2.830778,6.942603 -0.276443,0.364818 -1.99039,2.21102 -2.499045,2.741665 -0.508655,0.530645 -1.105773,0.972849 -1.183177,1.227116 -0.0774,0.254267 0.24327,0.718581 0.962022,0.873353 a 2.8639505,2.8632709 0 0 0 1.924044,-0.364819 17.813993,17.809766 0 0 1 1.758178,-1.260281 c 0.718753,-0.420094 0.928849,-0.707526 0.917792,-0.928628 a 9.8634898,9.8611492 0 0 1 0,-1.171841 3.5384717,3.537632 0 0 1 0.762983,-1.978863 c 0.398078,-0.663306 1.537023,-2.100469 2.996643,-4.333599 1.105772,-1.64721 0.87356,-3.438136 1.84664,-4.974795 0,0 2.510103,-2.664279 3.538471,-3.615018 a 20.368328,20.363494 0 0 0 2.421642,-3.062262 31.58086,31.573366 0 0 0 2.908181,4.344654 6.1259791,6.1245254 0 0 1 1.481735,2.509508 2.5322188,2.5316179 0 0 1 -0.287501,0.762801 7.6630027,7.6611843 0 0 0 -0.508655,4.057222 26.77075,26.764397 0 0 1 0.464425,4.974795 15.867834,15.864069 0 0 0 -0.143751,2.133634 0.72980978,0.7296366 0 0 0 0.409136,0.49748 3.2288554,3.2280892 0 0 1 1.105772,0.707526 3.0077009,3.0069872 0 0 0 2.211545,0.873353 c 1.105773,0 1.315869,-0.265322 1.393273,-0.475369 a 1.1057724,1.10551 0 0 0 -0.796156,-1.271337 3.6822221,3.6813483 0 0 1 -2.156256,-2.752719 32.730863,32.723096 0 0 1 0.34279,-4.886355 29.911143,29.904046 0 0 0 0.276443,-3.416026 4.6442441,4.643142 0 0 0 0.187981,-1.614044 c -0.08846,-0.707527 -0.796156,-3.006987 -1.581255,-6.190856 A 8.3706971,8.3687107 0 0 0 32.524072,18.216049 C 32.04859,17.19898 31.418299,16.226131 31.418299,16.226131"
     id="path1429"
     style="fill:url(#linear-gradient-2);stroke-width:1" />
  <path
     class="cls-18"
     d="m 26.597132,16.778886 a 9.8856053,9.8832594 0 0 0 -0.464425,1.923588 c 0,0 -2.96347,4.842133 -3.991838,6.555674 a 11.312052,11.309367 0 0 0 -1.50385,3.139648 8.0057922,8.0038924 0 0 0 -0.187982,0.939684 11.46686,11.464139 0 0 0 -1.74712,2.807995 c -0.508655,1.359777 -1.879813,5.715487 -2.830778,6.942603 -0.276443,0.364818 -1.99039,2.21102 -2.499045,2.741665 -0.508655,0.530645 -1.105773,0.972849 -1.183177,1.227116 -0.0774,0.254267 0.24327,0.718581 0.962022,0.873353 a 2.8639505,2.8632709 0 0 0 1.924044,-0.364819 17.813993,17.809766 0 0 1 1.758178,-1.260281 c 0.718753,-0.420094 0.928849,-0.707526 0.917792,-0.928628 a 9.8634898,9.8611492 0 0 1 0,-1.171841 3.5384717,3.537632 0 0 1 0.762983,-1.978863 c 0.398078,-0.663306 1.537023,-2.100469 2.996643,-4.333599 1.105772,-1.64721 0.87356,-3.438136 1.84664,-4.974795 0,0 2.510103,-2.664279 3.538471,-3.615018 a 20.368328,20.363494 0 0 0 2.421642,-3.062262 31.58086,31.573366 0 0 0 2.908181,4.344654 6.1259791,6.1245254 0 0 1 1.481735,2.509508 2.5322188,2.5316179 0 0 1 -0.287501,0.762801 7.6630027,7.6611843 0 0 0 -0.508655,4.057222 26.77075,26.764397 0 0 1 0.464425,4.974795 15.867834,15.864069 0 0 0 -0.143751,2.133634 0.72980978,0.7296366 0 0 0 0.409136,0.49748 3.2288554,3.2280892 0 0 1 1.105772,0.707526 3.0077009,3.0069872 0 0 0 2.211545,0.873353 c 1.105773,0 1.315869,-0.265322 1.393273,-0.475369 a 1.1057724,1.10551 0 0 0 -0.796156,-1.271337 3.6822221,3.6813483 0 0 1 -2.156256,-2.752719 32.730863,32.723096 0 0 1 0.34279,-4.886355 29.911143,29.904046 0 0 0 0.276443,-3.416026 4.6442441,4.643142 0 0 0 0.187981,-1.614044 c -0.08846,-0.707527 -0.796156,-3.006987 -1.581255,-6.190856 A 8.3706971,8.3687107 0 0 0 32.524072,18.216049 C 32.04859,17.19898 31.418299,16.226131 31.418299,16.226131"
     id="path1431" />
  <path
     class="cls-19"
     d="m 38.451012,10.444314 a 7.8952149,7.8933414 0 0 1 -2.322122,0.05527 15.724084,15.720352 0 0 0 -2.631738,0.51959 c -1.039427,0.276378 -2.211545,0.49748 -2.211545,0.49748 0,0 -0.862503,-0.165827 -1.404331,-1.492439 -0.541829,-1.3266119 0,-1.5034935 0,-1.5034935 a 14.463503,14.460071 0 0 1 2.653854,0.1326612 c 1.105772,0.099496 2.930296,0.2874326 3.49424,0.2542673 a 3.9807806,3.979836 0 0 1 1.60337,-0.2542673 25.432765,25.42673 0 0 0 3.671165,0 2.5764497,2.5758383 0 0 0 0.663463,-0.221102 6.4798263,6.4782886 0 0 1 1.105773,-0.6080305 c 0.254327,0 0.265385,0 0.619232,-0.077386 a 1.8134667,1.8130364 0 0 1 1.105772,0.4311489 l 0.751926,0.4753693 a 0.30961627,0.3095428 0 0 1 0.110577,0.3758734 0.29855855,0.2984877 0 0 1 -0.331732,0.088441 L 44.068336,8.6533877 C 43.90247,8.5981122 43.55968,9.0513713 43.55968,9.0513713 a 5.4182848,5.416999 0 0 0 0.575002,0.2653224 3.9918384,3.9908911 0 0 0 0.508655,0.1216061 0.28750082,0.2874326 0 0 1 0.232213,0.2763775 0.320674,0.3205979 0 0 1 -0.353848,0.2984877 10.051471,10.049086 0 0 1 -1.371157,-0.077386 11.444744,11.442028 0 0 0 -1.3601,-0.2542673 c -0.552887,0 -2.211545,0.5417003 -3.339433,0.7628023 z"
     id="path1433"
     style="fill:url(#linearGradient1668);stroke-width:1" />
  <path
     class="cls-20"
     d="m 38.451012,10.444314 a 7.8952149,7.8933414 0 0 1 -2.322122,0.05527 15.724084,15.720352 0 0 0 -2.631738,0.51959 c -1.039427,0.276378 -2.211545,0.49748 -2.211545,0.49748 0,0 -0.862503,-0.165827 -1.404331,-1.492439 -0.541829,-1.3266119 0,-1.5034935 0,-1.5034935 a 14.463503,14.460071 0 0 1 2.653854,0.1326612 c 1.105772,0.099496 2.930296,0.2874326 3.49424,0.2542673 a 3.9807806,3.979836 0 0 1 1.60337,-0.2542673 25.432765,25.42673 0 0 0 3.671165,0 2.5764497,2.5758383 0 0 0 0.663463,-0.221102 6.4798263,6.4782886 0 0 1 1.105773,-0.6080305 c 0.254327,0 0.265385,0 0.619232,-0.077386 a 1.8134667,1.8130364 0 0 1 1.105772,0.4311489 l 0.751926,0.4753693 a 0.30961627,0.3095428 0 0 1 0.110577,0.3758734 0.29855855,0.2984877 0 0 1 -0.331732,0.088441 L 44.068336,8.6533877 C 43.90247,8.5981122 43.55968,9.0513713 43.55968,9.0513713 a 5.4182848,5.416999 0 0 0 0.575002,0.2653224 3.9918384,3.9908911 0 0 0 0.508655,0.1216061 0.28750082,0.2874326 0 0 1 0.232213,0.2763775 0.320674,0.3205979 0 0 1 -0.353848,0.2984877 10.051471,10.049086 0 0 1 -1.371157,-0.077386 11.444744,11.442028 0 0 0 -1.3601,-0.2542673 c -0.552887,0 -2.211545,0.5417003 -3.339433,0.7628023 z"
     id="path1435" />
  <path
     class="cls-15"
     d="m 25.557706,9.8362834 a 5.9490555,5.9476438 0 0 0 -2.123083,0.5195896 c -0.608175,0.397984 -0.497598,1.381888 -0.364905,2.012028 a 2.4216416,2.4210669 0 0 0 1.050484,1.381888 2.5764497,2.5758383 0 0 0 0.718752,0.773857 4.1355888,4.1346074 0 0 1 1.492792,1.415053 3.3173172,3.31653 0 0 1 0.309617,1.017069 c 0,0 0.453366,1.006014 2.598565,0.740692 2.145198,-0.265323 2.211545,-1.470329 2.211545,-1.470329 a 7.0880011,7.0863191 0 0 1 -0.165866,-1.415053 c 0,-0.773857 0,-2.520562 0.0774,-3.31653 A 4.7105904,4.7094726 0 0 0 30.799067,9.46041 C 30.400989,8.7197183 30.013968,8.5428367 29.814929,8.4986163 c -0.199039,-0.04422 -0.87356,0.066331 -1.957217,0.6964713 a 4.887514,4.8863542 0 0 1 -2.300006,0.6411958 z"
     id="path1437"
     style="stroke-width:1" />
  <path
     class="cls-21"
     d="m 25.557706,9.8362834 a 5.9490555,5.9476438 0 0 0 -2.123083,0.5195896 c -0.608175,0.397984 -0.497598,1.381888 -0.364905,2.012028 a 2.4216416,2.4210669 0 0 0 1.050484,1.381888 2.5764497,2.5758383 0 0 0 0.718752,0.773857 4.1355888,4.1346074 0 0 1 1.492792,1.415053 3.3173172,3.31653 0 0 1 0.309617,1.017069 c 0,0 0.453366,1.006014 2.598565,0.740692 2.145198,-0.265323 2.211545,-1.470329 2.211545,-1.470329 a 7.0880011,7.0863191 0 0 1 -0.165866,-1.415053 c 0,-0.773857 0,-2.520562 0.0774,-3.31653 A 4.7105904,4.7094726 0 0 0 30.799067,9.46041 C 30.400989,8.7197183 30.013968,8.5428367 29.814929,8.4986163 c -0.199039,-0.04422 -0.87356,0.066331 -1.957217,0.6964713 a 4.887514,4.8863542 0 0 1 -2.300006,0.6411958 z"
     id="path1439"
     style="fill:url(#linear-gradient-4);stroke-width:1" />
  <path
     class="cls-22"
     d="m 31.407242,11.516659 c -0.06635,0.729636 -0.06635,2.321571 -0.06635,3.150703 a 3.1956822,3.1949239 0 0 0 -1.459619,-0.56381 4.9980912,4.9969052 0 0 0 -2.056737,0.110551 2.001448,2.0009731 0 0 1 -1.968275,-0.110551 c 0.221155,0 1.448562,-0.56381 1.890871,-0.652251 0.442309,-0.08844 1.337985,-0.176881 1.901929,-0.320598 a 1.6586586,1.658265 0 0 0 1.337984,-1.10551 7.3202133,7.3184762 0 0 0 0.298559,-1.238171 v 0 c 0.0774,0.265322 0.09952,0.497479 0.121635,0.729637 z"
     id="path1441"
     style="fill:url(#linear-gradient-5);stroke-width:1" />
  <path
     class="cls-23"
     d="m 31.407242,11.516659 c -0.06635,0.729636 -0.06635,2.321571 -0.06635,3.150703 a 3.1956822,3.1949239 0 0 0 -1.459619,-0.56381 4.9980912,4.9969052 0 0 0 -2.056737,0.110551 2.001448,2.0009731 0 0 1 -1.968275,-0.110551 c 0.221155,0 1.448562,-0.56381 1.890871,-0.652251 0.442309,-0.08844 1.337985,-0.176881 1.901929,-0.320598 a 1.6586586,1.658265 0 0 0 1.337984,-1.10551 7.3202133,7.3184762 0 0 0 0.298559,-1.238171 v 0 c 0.0774,0.265322 0.09952,0.497479 0.121635,0.729637 z"
     id="path1443"
     style="fill:url(#linear-gradient-6);stroke-width:1" />
  <g
     class="cls-24"
     clip-path="url(#clip-path)"
     id="g1447"
     style="stroke-width:0.904453"
     transform="matrix(1.1057724,0,0,1.10551,0.32397953,-3.584608)">
    <path
       class="cls-25"
       d="M 28,11.33 A 5.83,5.83 0 0 0 24.67,12.11 9.86,9.86 0 0 0 21,15 l -1.11,-2.73 7.77,-2 z"
       id="path1445"
       style="fill:url(#linearGradient1670);stroke-width:0.904453" />
  </g>
  <path
     class="cls-18"
     d="m 25.557706,9.8362834 a 5.9490555,5.9476438 0 0 0 -2.123083,0.5195896 c -0.608175,0.397984 -0.497598,1.381888 -0.364905,2.012028 a 2.4216416,2.4210669 0 0 0 1.050484,1.381888 2.5764497,2.5758383 0 0 0 0.718752,0.773857 4.1355888,4.1346074 0 0 1 1.492792,1.415053 3.3173172,3.31653 0 0 1 0.309617,1.017069 c 0,0 0.453366,1.006014 2.598565,0.740692 2.145198,-0.265323 2.211545,-1.470329 2.211545,-1.470329 a 7.0880011,7.0863191 0 0 1 -0.165866,-1.415053 c 0,-0.773857 0,-2.520562 0.0774,-3.31653 A 4.7105904,4.7094726 0 0 0 30.799067,9.46041 C 30.400989,8.7197183 30.013968,8.5428367 29.814929,8.4986163 c -0.199039,-0.04422 -0.87356,0.066331 -1.957217,0.6964713 a 4.887514,4.8863542 0 0 1 -2.300006,0.6411958 z"
     id="path1449" />
  <ellipse
     class="cls-15"
     cx="0.18229017"
     cy="25.653971"
     rx="0.97285169"
     ry="1.039423"
     transform="matrix(0.11218897,-0.99368689,0.99369282,0.11213641,0,0)"
     id="ellipse1451"
     style="stroke-width:1" />
  <ellipse
     class="cls-26"
     cx="0.18229017"
     cy="25.653971"
     rx="0.97285169"
     ry="1.039423"
     transform="matrix(0.11218897,-0.99368689,0.99369282,0.11213641,0,0)"
     id="ellipse1453"
     style="fill:url(#New_Gradient_Swatch_13-2);stroke-width:1" />
  <path
     class="cls-15"
     d="m 24.827896,3.4243254 a 1.1057724,1.10551 0 0 0 0.575002,0.2432122 1.1057724,1.10551 0 0 0 0.906733,-0.3205979 0.88461792,0.884408 0 0 0 -0.48654,-0.7849121 0.75192523,0.7517468 0 0 0 -1.028368,0.2874326 0.47548213,0.4753693 0 0 0 0.03317,0.5748652 z"
     id="path1455"
     style="stroke-width:1" />
  <path
     class="cls-27"
     d="m 24.827896,3.4243254 a 1.1057724,1.10551 0 0 0 0.575002,0.2432122 1.1057724,1.10551 0 0 0 0.906733,-0.3205979 0.88461792,0.884408 0 0 0 -0.48654,-0.7849121 0.75192523,0.7517468 0 0 0 -1.028368,0.2874326 0.47548213,0.4753693 0 0 0 0.03317,0.5748652 z"
     id="path1457"
     style="fill:url(#linear-gradient-7);stroke-width:1" />
  <ellipse
     class="cls-28"
     cx="0.18229017"
     cy="25.653971"
     rx="0.97285169"
     ry="1.039423"
     transform="matrix(0.11218897,-0.99368689,0.99369282,0.11213641,0,0)"
     id="ellipse1459" />
  <path
     class="cls-29"
     d="m 26.862517,6.5971391 a 4.5889555,4.5878665 0 0 0 0.552886,2.0341384 2.2115448,2.21102 0 0 0 0.674521,0.8401876 c 0,0 0.48654,0 0.298559,0.6190859 a 1.680774,1.6803752 0 0 1 -1.437504,1.10551 1.7581781,1.7577609 0 0 1 -1.514908,-0.453259 0.56394392,0.5638101 0 0 1 0,-0.56381 10.869743,10.867163 0 0 1 -0.608175,-1.7024859"
     id="path1461"
     style="fill:url(#linear-gradient-8);stroke-width:1" />
  <path
     class="cls-30"
     d="m 26.862517,6.5971391 a 4.5889555,4.5878665 0 0 0 0.552886,2.0341384 2.2115448,2.21102 0 0 0 0.674521,0.8401876 c 0,0 0.48654,0 0.298559,0.6190859 a 1.680774,1.6803752 0 0 1 -1.437504,1.10551 1.7581781,1.7577609 0 0 1 -1.514908,-0.453259 0.56394392,0.5638101 0 0 1 0,-0.56381 10.869743,10.867163 0 0 1 -0.608175,-1.7024859"
     id="path1463" />
  <path
     class="cls-31"
     d="m 23.290872,5.9448882 a 6.5351149,6.5335641 0 0 0 0.563944,2.0673037 c 0.431251,0.773857 0.840387,0.9396835 1.105773,0.9286284 A 2.0346212,2.0341384 0 0 0 26.597132,7.470492 8.7577174,8.7556392 0 0 0 26.862517,6.0222739 1.802409,1.8019813 0 0 0 25.104339,3.93286 c -1.691832,0 -1.879813,1.0944549 -1.813467,2.0120282 z"
     id="path1465"
     style="fill:url(#linear-gradient-9);stroke-width:1" />
  <path
     class="cls-30"
     d="m 26.862517,6.5971391 a 2.8528928,2.8522158 0 0 0 0,-0.5748652 A 1.802409,1.8019813 0 0 0 25.104339,3.93286 c -1.691832,0 -1.879813,1.10551 -1.813467,2.0120282 a 6.5351149,6.5335641 0 0 0 0.563944,2.0673037 c 0.431251,0.773857 0.840387,0.9396835 1.105773,0.9286284 a 1.9572171,1.9567527 0 0 0 0.884618,-0.3869285"
     id="path1467" />
  <path
     class="cls-32"
     d="m 23.191353,6.0775494 a 2.764431,2.763775 0 0 0 0.984137,0 c 0.519713,-0.099496 0.906734,-0.3869285 1.315869,-0.331653 a 1.0283683,1.0281243 0 0 1 0.862503,0.8401876 c 0,0.1437163 0.199039,0.1879367 0.221154,-0.088441 h 0.287501 A 3.3173172,3.31653 0 0 0 26.984152,5.259472 1.6365432,1.6361548 0 0 0 25.126454,3.7670335 1.7692358,1.768816 0 0 0 23.246641,5.03837 3.0629895,3.0622627 0 0 0 23.191353,6.0775494 Z"
     id="path1469"
     style="fill:url(#New_Gradient_Swatch_13-3);stroke-width:1" />
  <path
     class="cls-33"
     d="m 26.387035,5.701676 a 2.6870269,2.6863893 0 0 1 -0.08846,0.6080305 1.0062529,1.0060141 0 0 0 -0.807214,-0.6411958 c -0.431251,0 -0.851444,0.2542673 -1.393273,0.3648183 H 23.766356 A 1.8908708,1.8904221 0 0 1 24.18655,4.5851109 1.6476009,1.6472099 0 0 1 25.557708,4.3861191 1.1057724,1.10551 0 0 1 26.387037,5.701676 Z"
     id="path1471"
     style="fill:url(#linear-gradient-10);stroke-width:1" />
  <path
     class="cls-28"
     d="m 23.191353,6.0775494 a 2.764431,2.763775 0 0 0 0.984137,0 c 0.519713,-0.099496 0.906734,-0.3869285 1.315869,-0.331653 a 1.0283683,1.0281243 0 0 1 0.862503,0.8401876 c 0,0.1437163 0.398078,0.1768816 0.420193,-0.099496 h 0.110578 A 3.3173172,3.31653 0 0 0 26.984152,5.259472 1.6365432,1.6361548 0 0 0 25.126454,3.7670335 1.7471204,1.7467058 0 0 0 23.246641,5.03837 2.6206806,2.6200587 0 0 0 23.191353,6.0775494 Z"
     id="path1473" />
  <path
     class="cls-34"
     d="m 26.497612,6.4423677 c 0,-0.2100469 0.187982,-0.3648183 0.364905,-0.3648183 0.176924,0 0.34279,0.2984877 0.287501,0.6964713 A 0.49759758,0.4974795 0 0 1 26.75194,7.2715002 c -0.0774,0 -0.221155,-0.1326612 -0.24327,-0.1989918 -0.02211,-0.066331 0.01106,-0.4643142 -0.01106,-0.6301407 z"
     id="path1475"
     style="fill:url(#linear-gradient-11);stroke-width:1" />
  <path
     class="cls-35"
     d="m 23.832701,11.892532 a 4.5004937,4.4994257 0 0 0 -0.398078,-1.525604 4.047127,4.0461666 0 0 0 -1.006253,0.994959 28.363062,28.356331 0 0 1 -3.54953,4.013002 11.256763,11.254092 0 0 0 -2.13414,2.122579 18.311591,18.307246 0 0 1 -3.217798,3.117538 8.8461792,8.84408 0 0 1 -1.957217,0.442204 1.1057724,1.10551 0 0 0 -0.762983,0.309543 c -0.176924,0.187936 -0.8514449,0.807022 -1.2937538,1.271336 a 4.9096295,4.9084644 0 0 1 -0.7850984,0.729637 c -0.1548082,0.132661 0,0.309543 0.519713,0.309543 a 3.405779,3.4049708 0 0 0 1.5591392,-0.574866 12.307247,12.304326 0 0 0 0.97308,-0.884408 c 0.320674,-0.265322 0.928848,-0.375873 1.105772,-0.165826 0.176924,0.210047 0,0.364818 -0.24327,0.56381 -0.24327,0.198992 -0.464424,0.232157 -0.608175,0.386929 a 0.24326993,0.2432122 0 0 0 0,0.375873 c 0.110577,0.05528 0.420194,-0.06633 0.762983,-0.187937 a 2.4990456,2.4984526 0 0 0 0.917791,-0.619085 c 0.276443,-0.276378 0.298559,-0.751747 0.740868,-1.10551 v 0 a 32.343843,32.336168 0 0 0 3.859145,-2.763775 21.894294,21.889098 0 0 0 2.012506,-2.000973 c 0.552886,-0.608031 3.759626,-2.973822 3.759626,-2.973822 -0.320674,-0.608031 -0.121635,-0.807023 -0.254327,-1.835147 z"
     id="path1477"
     style="fill:url(#linear-gradient-12);stroke-width:1" />
  <path
     class="cls-20"
     d="m 23.832701,11.892532 a 4.5004937,4.4994257 0 0 0 -0.398078,-1.525604 4.047127,4.0461666 0 0 0 -1.006253,0.994959 28.363062,28.356331 0 0 1 -3.54953,4.013002 11.256763,11.254092 0 0 0 -2.13414,2.122579 18.311591,18.307246 0 0 1 -3.217798,3.117538 8.8461792,8.84408 0 0 1 -1.957217,0.442204 1.1057724,1.10551 0 0 0 -0.762983,0.309543 c -0.176924,0.187936 -0.8514449,0.807022 -1.2937538,1.271336 a 4.9096295,4.9084644 0 0 1 -0.7850984,0.729637 c -0.1548082,0.132661 0,0.309543 0.519713,0.309543 a 3.405779,3.4049708 0 0 0 1.5591392,-0.574866 12.307247,12.304326 0 0 0 0.97308,-0.884408 c 0.320674,-0.265322 0.928848,-0.375873 1.105772,-0.165826 0.176924,0.210047 0,0.364818 -0.24327,0.56381 -0.24327,0.198992 -0.464424,0.232157 -0.608175,0.386929 a 0.24326993,0.2432122 0 0 0 0,0.375873 c 0.110577,0.05528 0.420194,-0.06633 0.762983,-0.187937 a 2.4990456,2.4984526 0 0 0 0.917791,-0.619085 c 0.276443,-0.276378 0.298559,-0.751747 0.740868,-1.10551 v 0 a 32.343843,32.336168 0 0 0 3.859145,-2.763775 21.894294,21.889098 0 0 0 2.012506,-2.000973 c 0.552886,-0.608031 3.759626,-2.973822 3.759626,-2.973822 -0.320674,-0.608031 -0.121635,-0.807023 -0.254327,-1.835147 z"
     id="path1479" />
  <path
     class="cls-18"
     d="m 23.434623,10.355873 a 4.5004937,4.4994257 0 0 1 0.398078,1.536659 c 0.132692,1.039179 -0.06635,1.238171 0.287501,1.868312 l 0.0774,0.0995"
     id="path1481" />
  <g
     class="cls-4"
     id="g1491"
     style="stroke:#ef2929;stroke-width:0.904453"
     transform="matrix(1.1057724,0,0,1.10551,0.32397953,-3.584608)">
    <polygon
       class="cls-5"
       points="14.33,40.45 15.41,37.74 17.75,36.87 16.8,41.41 11.76,44.17 11.77,42.79 "
       id="polygon1483"
       style="stroke:#ef2929" />
    <polygon
       class="cls-5"
       points="11.94,39.76 9.25,41.78 9.25,43.12 11.76,44.17 11.77,42.79 14.33,40.45 15.41,37.74 13,37.32 "
       id="polygon1485"
       style="stroke:#ef2929" />
    <line
       class="cls-5"
       x1="11.77"
       y1="42.790001"
       x2="9.25"
       y2="41.779999"
       id="line1487"
       style="stroke:#ef2929" />
    <line
       class="cls-5"
       x1="11.93"
       y1="39.759998"
       x2="14.33"
       y2="40.450001"
       id="line1489"
       style="stroke:#ef2929" />
  </g>
  <g
     class="cls-2"
     id="g1495"
     style="stroke-width:0.904453"
     transform="matrix(1.1057724,0,0,1.10551,0.32397953,-3.584608)">
    <polygon
       class="cls-9"
       points="31.46,18.69 19.89,20 20.27,23.56 31.92,22.25 "
       id="polygon1493" />
  </g>
  <g
     class="cls-2"
     id="g1503"
     style="stroke-width:0.904453"
     transform="matrix(1.1057724,0,0,1.10551,0.32397953,-3.584608)">
    <line
       class="cls-12"
       x1="8.1599998"
       y1="16.18"
       x2="9.0900002"
       y2="17.48"
       id="line1497" />
    <line
       class="cls-12"
       x1="5.5"
       y1="18.700001"
       x2="7.0700002"
       y2="19.25"
       id="line1499" />
    <line
       class="cls-12"
       x1="6.02"
       y1="22.52"
       x2="7.27"
       y2="22"
       id="line1501" />
  </g>
  <line
     class="cls-7"
     x1="9.3470821"
     y1="14.302545"
     x2="10.375451"
     y2="15.739706"
     id="line1505" />
  <line
     class="cls-7"
     x1="6.4057279"
     y1="17.08843"
     x2="8.1417904"
     y2="17.696459"
     id="line1507" />
  <line
     class="cls-7"
     x1="6.9807296"
     y1="21.311478"
     x2="8.3629446"
     y2="20.736612"
     id="line1509" />
  <polygon
     class="cls-14"
     points="38.2,14.16 34.73,14.17 34.36,9.52 37.75,8.82 "
     id="polygon1511"
     style="stroke:#ef2929"
     transform="matrix(1.1057724,0,0,1.10551,0.32397953,-3.584608)" />
  <polygon
     class="cls-7"
     points="31.92,22.25 31.46,18.69 19.89,20 20.27,23.56 "
     id="polygon1513"
     transform="matrix(1.1057724,0,0,1.10551,0.32397953,-3.584608)" />
  <g
     class="cls-2"
     id="g1519"
     style="stroke-width:0.904453"
     transform="matrix(1.1057724,0,0,1.10551,0.32397953,-3.584608)">
    <polygon
       class="cls-9"
       points="11.47,20.54 15.09,17.71 17.1,20.79 14.22,24.71 "
       id="polygon1515" />
    <line
       class="cls-9"
       x1="11.47"
       y1="20.540001"
       x2="9.2299995"
       y2="20.530001"
       id="line1517" />
  </g>
  <polygon
     class="cls-7"
     points="14.22,24.71 11.47,20.54 15.09,17.71 17.1,20.79 "
     id="polygon1521"
     transform="matrix(1.1057724,0,0,1.10551,0.32397953,-3.584608)" />
  <line
     class="cls-7"
     x1="13.007189"
     y1="19.122568"
     x2="10.530258"
     y2="19.111513"
     id="line1523" />
  <polygon
     class="cls-7"
     points="33.07,42.3 30.9,40.1 30.76,37.57 28.49,36.6 28.53,40.83 33.07,43.61 "
     id="polygon1525"
     transform="matrix(1.1057724,0,0,1.10551,0.32397953,-3.584608)" />
  <polygon
     class="cls-7"
     points="35.86,42.48 35.86,41.28 33.07,42.3 33.07,43.61 "
     id="polygon1527"
     transform="matrix(1.1057724,0,0,1.10551,0.32397953,-3.584608)" />
  <polygon
     class="cls-7"
     points="33.31,36.98 30.76,37.57 30.9,40.1 33.07,42.3 35.86,41.28 33.46,39.41 "
     id="polygon1529"
     transform="matrix(1.1057724,0,0,1.10551,0.32397953,-3.584608)" />
  <line
     class="cls-7"
     x1="34.492348"
     y1="40.746342"
     x2="37.323124"
     y2="39.98354"
     id="line1531" />
  <g
     class="cls-2"
     id="g1541"
     style="stroke-width:0.904453"
     transform="matrix(1.1057724,0,0,1.10551,0.32397953,-3.584608)">
    <polygon
       class="cls-9"
       points="30.9,40.1 30.76,37.57 28.49,36.6 28.53,40.83 33.07,43.61 33.07,42.3 "
       id="polygon1533" />
    <polygon
       class="cls-9"
       points="35.86,41.28 33.07,42.3 33.07,43.61 35.86,42.48 "
       id="polygon1535" />
    <polygon
       class="cls-9"
       points="30.76,37.57 30.9,40.1 33.07,42.3 35.86,41.28 33.46,39.41 33.31,36.98 "
       id="polygon1537" />
    <line
       class="cls-9"
       x1="30.9"
       y1="40.099998"
       x2="33.459999"
       y2="39.41"
       id="line1539" />
  </g>
  <g
     class="cls-4"
     id="g1549"
     style="stroke:#ef2929;stroke-width:0.904453"
     transform="matrix(1.1057724,0,0,1.10551,0.32397953,-3.584608)">
    <polyline
       class="cls-5"
       points="21.67 7.23 24.04 12.62 19.47 12.62 17.01 7.69"
       id="polyline1543"
       style="stroke:#ef2929" />
    <polygon
       class="cls-5"
       points="25.78,3.53 21.67,7.23 17.01,7.69 21.03,4.31 "
       id="polygon1545"
       style="stroke:#ef2929" />
    <polyline
       class="cls-5"
       points="24.04 12.62 27.29 8.65 25.78 3.53"
       id="polyline1547"
       style="stroke:#ef2929" />
  </g>
</svg>
