<?xml version="1.0" encoding="UTF-8" standalone="no"?>
<svg
   viewBox="0 0 48 48"
   version="1.1"
   id="svg11801"
   sodipodi:docname="kinefx-motionclipextractkeyposes.svg"
   inkscape:version="1.1 (c68e22c387, 2021-05-23)"
   xmlns:inkscape="http://www.inkscape.org/namespaces/inkscape"
   xmlns:sodipodi="http://sodipodi.sourceforge.net/DTD/sodipodi-0.dtd"
   xmlns:xlink="http://www.w3.org/1999/xlink"
   xmlns="http://www.w3.org/2000/svg"
   xmlns:svg="http://www.w3.org/2000/svg"
   xmlns:rdf="http://www.w3.org/1999/02/22-rdf-syntax-ns#"
   xmlns:cc="http://creativecommons.org/ns#"
   xmlns:dc="http://purl.org/dc/elements/1.1/">
  <sodipodi:namedview
     id="namedview11803"
     pagecolor="#ffffff"
     bordercolor="#666666"
     borderopacity="1.0"
     inkscape:pageshadow="2"
     inkscape:pageopacity="0.0"
     inkscape:pagecheckerboard="0"
     showgrid="false"
     inkscape:zoom="15.905035"
     inkscape:cx="23.860369"
     inkscape:cy="23.29451"
     inkscape:window-width="2880"
     inkscape:window-height="1557"
     inkscape:window-x="-8"
     inkscape:window-y="-8"
     inkscape:window-maximized="1"
     inkscape:current-layer="svg11801" />
  <defs
     id="defs11701">
    <style
       id="style11666">.cls-1{fill:url(#radial-gradient);}.cls-2,.cls-6{stroke:#2671aa;}.cls-2,.cls-3,.cls-6{stroke-miterlimit:10;stroke-width:0.35px;}.cls-2{fill:url(#linear-gradient);}.cls-3,.cls-7{fill:#34393b;}.cls-3{stroke:#231f20;}.cls-4{fill:url(#linear-gradient-2);}.cls-5{fill:url(#linear-gradient-3);}.cls-6{fill:none;}.cls-8{fill:url(#linear-gradient-4);}.cls-9{fill:url(#linear-gradient-5);}.cls-10{fill:#2671aa;}.cls-11{fill:url(#linear-gradient-6);}.cls-12{fill:url(#linear-gradient-7);}.cls-13{fill:#231f20;}.cls-14{fill:url(#linear-gradient-8);}.cls-15{fill:url(#linear-gradient-9);}.cls-16{fill:url(#linear-gradient-10);}.cls-17{fill:url(#linear-gradient-11);}.cls-18{fill:url(#linear-gradient-12);}.cls-19{fill:url(#linear-gradient-13);}.cls-20{fill:url(#linear-gradient-14);}.cls-21{fill:url(#linear-gradient-15);}.cls-22{fill:url(#linear-gradient-16);}</style>
    <radialGradient
       id="radial-gradient"
       cx="-168.52"
       cy="91.93"
       r="18.97"
       gradientTransform="matrix(1.27,0,0,0.34,240.24,6.59)"
       gradientUnits="userSpaceOnUse">
      <stop
         offset="0.13"
         stop-color="#2c2c2c"
         stop-opacity="0.4"
         id="stop11668" />
      <stop
         offset="0.9"
         stop-color="#2c2c2c"
         stop-opacity="0"
         id="stop11670" />
    </radialGradient>
    <linearGradient
       id="linear-gradient"
       x1="25.04"
       y1="20.6"
       x2="32.98"
       y2="20.11"
       gradientUnits="userSpaceOnUse">
      <stop
         offset="0"
         stop-color="#41d9e5"
         id="stop11673" />
      <stop
         offset="1"
         stop-color="#31afbc"
         id="stop11675" />
    </linearGradient>
    <linearGradient
       id="linear-gradient-2"
       x1="15.55"
       y1="31.12"
       x2="25.86"
       y2="28.69"
       gradientUnits="userSpaceOnUse">
      <stop
         offset="0"
         stop-color="#231f20"
         id="stop11678" />
      <stop
         offset="1"
         stop-color="#2e3436"
         id="stop11680" />
    </linearGradient>
    <linearGradient
       id="linear-gradient-3"
       x1="23.71"
       y1="16.45"
       x2="24.11"
       y2="14.34"
       gradientTransform="rotate(4.61,16.276569,14.89735)"
       xlink:href="#linear-gradient-2" />
    <linearGradient
       id="linear-gradient-4"
       x1="15.39"
       y1="20.39"
       x2="13.97"
       y2="21.3"
       xlink:href="#linear-gradient-2" />
    <linearGradient
       id="linear-gradient-5"
       x1="3.69"
       y1="28.04"
       x2="12.35"
       y2="24.65"
       xlink:href="#linear-gradient-2" />
    <linearGradient
       id="linear-gradient-6"
       x1="23.77"
       y1="20.23"
       x2="17.41"
       y2="24.28"
       xlink:href="#linear-gradient-2" />
    <linearGradient
       id="linear-gradient-7"
       x1="17.83"
       y1="14.43"
       x2="20.14"
       y2="16.85"
       xlink:href="#linear-gradient-2" />
    <linearGradient
       id="linear-gradient-8"
       x1="22.89"
       y1="24.29"
       x2="23.76"
       y2="29.18"
       gradientTransform="translate(18.2 -18.38) rotate(38.32)"
       gradientUnits="userSpaceOnUse">
      <stop
         offset="0"
         stop-color="#b2cbe5"
         id="stop11688" />
      <stop
         offset="1"
         stop-color="#3465a4"
         id="stop11690" />
    </linearGradient>
    <linearGradient
       id="linear-gradient-9"
       x1="38.61"
       y1="27.05"
       x2="29.95"
       y2="23.19"
       xlink:href="#linear-gradient-2" />
    <linearGradient
       id="linear-gradient-10"
       x1="30.97"
       y1="27.83"
       x2="36.09"
       y2="22.33"
       xlink:href="#linear-gradient-2" />
    <linearGradient
       id="linear-gradient-11"
       x1="33.77"
       y1="15.68"
       x2="33.1"
       y2="11.35"
       xlink:href="#linear-gradient-2" />
    <linearGradient
       id="linear-gradient-12"
       x1="31.8"
       y1="36.81"
       x2="43.35"
       y2="24.34"
       xlink:href="#linear-gradient-2" />
    <linearGradient
       id="linear-gradient-13"
       x1="33.6"
       y1="19.51"
       x2="39.47"
       y2="24.78"
       xlink:href="#linear-gradient-2" />
    <linearGradient
       id="linear-gradient-14"
       x1="40.83"
       y1="20.09"
       x2="41.83"
       y2="20.75"
       xlink:href="#linear-gradient-2" />
    <linearGradient
       id="linear-gradient-15"
       x1="41.09"
       y1="12.76"
       x2="43.18"
       y2="14.63"
       xlink:href="#linear-gradient-2" />
    <linearGradient
       id="linear-gradient-16"
       x1="44.34"
       y1="15.62"
       x2="42.63"
       y2="14.27"
       xlink:href="#linear-gradient-8" />
    <linearGradient
       inkscape:collect="always"
       xlink:href="#linear-gradient-2"
       id="linearGradient11862"
       gradientUnits="userSpaceOnUse"
       x1="15.55"
       y1="31.12"
       x2="25.86"
       y2="28.69" />
    <linearGradient
       inkscape:collect="always"
       xlink:href="#linear-gradient-8"
       id="linearGradient11864"
       gradientUnits="userSpaceOnUse"
       gradientTransform="rotate(38.32,35.549526,17.000499)"
       x1="22.89"
       y1="24.29"
       x2="23.76"
       y2="29.18" />
  </defs>
  <title
     id="title11703">13-MotionClipExtractKeyPoses</title>
  <g
     id="shadow"
     transform="matrix(1.0344047,0,0,1,-0.66635015,4.6533865)"
     style="stroke-width:0.983229">
    <ellipse
       class="cls-1"
       cx="24"
       cy="37.139999"
       rx="23.16"
       ry="6.1399999"
       id="ellipse11705"
       style="fill:url(#radial-gradient);stroke-width:0.983229" />
  </g>
  <g
     id="ART"
     transform="matrix(1.1246244,0,0,1.1246244,-3.098791,-1.4499844)"
     style="stroke-width:0.889186">
    <rect
       class="cls-2"
       x="14.61"
       y="18.99"
       width="22.15"
       height="3.1500001"
       id="rect11708"
       style="fill:url(#linear-gradient)" />
    <path
       class="cls-3"
       d="M 22.94,36.26 A 2.59,2.59 0 0 0 22.83,35.9 0.5,0.5 0 0 0 22.32,35.7 4.47,4.47 0 0 1 20.7,35.78 C 20.33,35.7 19.95,35.17 19.95,35.17 a 14.58,14.58 0 0 1 -0.44,-3.34 c -0.08,-1 -0.26,-1.35 -0.39,-2.32 a 6.62,6.62 0 0 0 -0.55,-2.44 c -0.14,-0.27 -1.81,-2.9 -2.74,-4.65 -0.27,-0.5 0.05,-0.93 -0.16,-1.21 -1,-1.25 -2.31,-1.63 -3.23,-1.14 -0.73,0.39 -1,2.23 -0.31,3.09 a 30.62,30.62 0 0 0 3.25,4 15.68,15.68 0 0 1 1.22,1.2 1.39,1.39 0 0 1 0.23,0.31 c 0.09,0.47 0.12,1.36 0.29,2.6 0.17,1.24 1,3.32 1.24,4.42 a 1.84,1.84 0 0 1 0,0.52 6.62,6.62 0 0 0 0.09,1.27 1.69,1.69 0 0 0 0.2,0.51 1.05,1.05 0 0 0 0.86,0.08 18.94,18.94 0 0 0 2.94,-1.25 c 0.55,-0.34 0.49,-0.56 0.49,-0.56 z"
       id="path11710" />
    <path
       class="cls-4"
       d="m 14.78,23.37 c -0.44,1.08 0.06,1.5 0.06,1.5 0,0 2.26,2.32 2.68,2.67 0.42,0.35 0.23,1.73 0.48,2.79 0.25,1.06 0.62,3.3 1,4.65 0.18,0.64 0.27,1.15 0.34,1.52 a 0.65,0.65 0 0 0 0.83,0.51 c 0.59,-0.19 1.42,-0.45 1.77,-0.59 0.56,-0.21 1.17,-0.21 0.95,0 a 21.39,21.39 0 0 1 -3.17,1.65 2,2 0 0 1 -1,-0.13 c 0,0 -0.18,-0.75 -0.2,-1 -0.02,-0.25 -0.08,-1.45 -0.08,-1.45 0,0 -0.82,-2.48 -0.92,-2.81 -0.1,-0.33 -0.42,-2.07 -0.44,-2.42 -0.02,-0.35 -0.2,-1.67 -0.2,-1.67 L 15.43,27.08 13.59,25 14.38,23.79"
       id="path11712"
       style="fill:url(#linearGradient11862);stroke-width:0.889186" />
    <path
       class="cls-3"
       d="m 28,16.85 c 0,0 0.4,-0.28 0.37,-0.38 a 8.53,8.53 0 0 0 -0.38,-0.84 0.47,0.47 0 0 0 -0.26,-0.26 10.52,10.52 0 0 0 -1.12,0.31 0.7,0.7 0 0 1 -0.38,0 C 25.74,15.53 24.5,15.09 23.72,14.77 A 4.76,4.76 0 0 0 22,14.38 a 7.85,7.85 0 0 0 -1.31,0 c -0.46,0.05 -2.08,0.32 -2.53,0.44 -0.45,0.12 -0.57,-0.1 -1.39,0.1 a 2.44,2.44 0 0 0 -0.91,0.5 1.14,1.14 0 0 0 -0.17,1.17 c 0.21,0.46 1.45,0.77 2.41,0.64 A 15.49,15.49 0 0 0 21.34,16 c 0.45,-0.2 0.59,-0.14 0.59,-0.14 a 5,5 0 0 0 1.83,0.48 c 0.84,0.12 2.31,0.22 2.31,0.22 a 2.91,2.91 0 0 1 0.42,0.16 5.75,5.75 0 0 0 0.64,0.4 1.73,1.73 0 0 0 0.6,0 c 0.12,-0.05 0.28,-0.15 0.28,-0.21 A 0.11,0.11 0 0 0 28,16.85 Z"
       id="path11714" />
    <path
       class="cls-5"
       d="m 21.22,14.85 a 11.35,11.35 0 0 1 2.53,0.82 c 1,0.36 2.16,0.41 2.85,1 0,0 -1.12,-0.21 -1.83,-0.26 A 8.51,8.51 0 0 1 21.25,15.6"
       id="path11716"
       style="fill:url(#linear-gradient-3);stroke-width:0.889186" />
    <path
       class="cls-6"
       d="m 28,16.85 c 0,0 0.4,-0.28 0.37,-0.38 a 8.53,8.53 0 0 0 -0.38,-0.84 0.47,0.47 0 0 0 -0.26,-0.26 10.52,10.52 0 0 0 -1.12,0.31 0.7,0.7 0 0 1 -0.38,0 C 25.74,15.53 24.5,15.09 23.72,14.77 A 4.76,4.76 0 0 0 22,14.38 a 7.85,7.85 0 0 0 -1.31,0 c -0.46,0.05 -2.08,0.32 -2.53,0.44 -0.45,0.12 -0.57,-0.1 -1.39,0.1 a 2.44,2.44 0 0 0 -0.91,0.5 1.14,1.14 0 0 0 -0.17,1.17 c 0.21,0.46 1.45,0.77 2.41,0.64 A 15.49,15.49 0 0 0 21.34,16 c 0.45,-0.2 0.59,-0.14 0.59,-0.14 a 5,5 0 0 0 1.83,0.48 c 0.84,0.12 2.31,0.22 2.31,0.22 a 2.91,2.91 0 0 1 0.42,0.16 5.75,5.75 0 0 0 0.64,0.4 1.73,1.73 0 0 0 0.6,0 c 0.12,-0.05 0.28,-0.15 0.28,-0.21 A 0.11,0.11 0 0 0 28,16.85 Z"
       id="path11718" />
    <path
       class="cls-6"
       d="M 22.94,36.26 A 2.59,2.59 0 0 0 22.83,35.9 0.5,0.5 0 0 0 22.32,35.7 4.47,4.47 0 0 1 20.7,35.78 c -0.69,-0.15 -0.87,-0.9 -1,-1.49 -0.12,-0.82 -0.17,-1.64 -0.23,-2.46 -0.06,-0.82 -0.26,-1.35 -0.39,-2.32 a 6.62,6.62 0 0 0 -0.55,-2.44 c -0.14,-0.27 -1.81,-2.9 -2.74,-4.65 -0.27,-0.5 0.05,-0.93 -0.16,-1.21 -1,-1.25 -2.31,-1.63 -3.23,-1.14 -0.73,0.39 -1,2.23 -0.31,3.09 a 30.62,30.62 0 0 0 3.25,4 15.68,15.68 0 0 1 1.22,1.2 1.39,1.39 0 0 1 0.23,0.31 c 0.09,0.47 0.12,1.36 0.29,2.6 a 15.87,15.87 0 0 0 0.7,2.56 11.63,11.63 0 0 1 0.52,1.9 c 0.09,0.58 0,1.17 0.13,1.75 a 1.69,1.69 0 0 0 0.2,0.51 1.05,1.05 0 0 0 0.86,0.08 18.94,18.94 0 0 0 2.94,-1.25 c 0.57,-0.34 0.51,-0.56 0.51,-0.56 z"
       id="path11720" />
    <path
       class="cls-7"
       d="M 15,21.81 A 8.84,8.84 0 0 0 16.58,21.28 3,3 0 0 0 17.84,19 c -0.13,-0.54 -0.51,-1 -0.31,-1.33 a 1.51,1.51 0 0 1 1.56,-0.54 c 0.21,0 0.43,0.22 0.6,0.27 a 0.94,0.94 0 0 0 0.76,-0.14 C 20.81,17.07 19.53,15.9 19.53,15.9 l -0.81,-1.31 a 8,8 0 0 1 -0.89,0.18 2.59,2.59 0 0 0 -1.82,0.5 7.92,7.92 0 0 0 -2.46,2.39 13.11,13.11 0 0 1 -1.74,2.34 5.58,5.58 0 0 0 -1,1.07 4.2,4.2 0 0 0 -0.57,2.08 A 16,16 0 0 0 9,25.64 q -0.06,0.33 -0.12,0.63 c -0.2,-0.16 -0.73,-0.63 -1,-0.76 A 10.85,10.85 0 0 1 5.5,23.46 0.89,0.89 0 0 0 4.86,23.09 a 0.63,0.63 0 0 0 -0.58,0.39 18.42,18.42 0 0 1 -1,1.73 1.6,1.6 0 0 0 -0.05,1.57 c 0.29,0.32 1,0.43 1.21,0 a 3.32,3.32 0 0 0 0.37,-1.1 c 0,-0.14 0.46,-0.2 0.65,0.05 a 13.42,13.42 0 0 0 1.17,1.37 14.87,14.87 0 0 0 2,1.81 1.14,1.14 0 0 0 0.46,0.15 h 0.09 a 1.06,1.06 0 0 0 0.3,0 H 9.56 L 9.76,29 a 1.77,1.77 0 0 0 0.5,-0.28 14.22,14.22 0 0 0 2.74,-2.88 14.12,14.12 0 0 0 1.3,-1.9 c 0.06,-0.13 0.57,-0.59 0.66,-0.77"
       id="path11722"
       style="stroke-width:0.889186" />
    <path
       class="cls-8"
       d="m 15,19.92 c -0.32,-0.23 -0.22,-0.32 -0.75,-0.11 -0.53,0.21 -0.8,0.65 -0.57,0.7 a 3,3 0 0 1 1,0.45 c 0.47,0.3 0.38,0.62 1.3,0.41"
       id="path11724"
       style="fill:url(#linear-gradient-4);stroke-width:0.889186" />
    <path
       class="cls-9"
       d="m 3.55,27 a 0.88,0.88 0 0 1 0,-0.89 7.9,7.9 0 0 1 1.27,-1.89 C 5,24.17 6.48,25.88 7.36,26.65 a 14.89,14.89 0 0 0 1.52,1.17 c 0,0 -0.12,0.61 0.24,0.52 0.36,-0.09 0.7,-0.39 1.62,-1.13 0.92,-0.74 3.44,-3.11 3.44,-3.11 a 23.48,23.48 0 0 1 -2.71,3.52 c -1.12,1 -1.33,1.51 -2.3,1.48 -0.97,-0.03 -2.91,-2.24 -2.91,-2.24 0,0 -0.84,-1.2 -1.28,-1.2 -0.44,0 -0.2,1.08 -0.61,1.32 -0.41,0.24 -0.57,0.06 -0.57,0.06"
       id="path11726"
       style="fill:url(#linear-gradient-5);stroke-width:0.889186" />
    <path
       class="cls-10"
       d="m 15,21.8 c 0.81,-0.39 1.77,-0.45 2.21,-1.28 a 3.3,3.3 0 0 0 0.53,-1.18 c 0.09,-0.39 -0.22,-0.78 -0.34,-1.23 a 0.69,0.69 0 0 1 0,-0.4 1,1 0 0 1 0.22,-0.31 1.55,1.55 0 0 1 0.63,-0.34 A 2.16,2.16 0 0 1 19,17 a 1.39,1.39 0 0 1 0.66,0.26 0.62,0.62 0 0 0 0.55,0 l 0.15,-0.06 c 0.06,0 0.09,-0.05 0.07,0 a 0.52,0.52 0 0 0 -0.08,-0.19 5.27,5.27 0 0 0 -0.87,-1 v 0 0 l -0.81,-1.31 0.14,0.06 a 3.46,3.46 0 0 1 -1.17,0.18 2.23,2.23 0 0 0 -1,0.24 7.78,7.78 0 0 0 -1.81,1.32 9.75,9.75 0 0 0 -1.39,1.79 12,12 0 0 1 -1.42,1.83 v 0 a 4.7,4.7 0 0 0 -1.14,1.26 4.12,4.12 0 0 0 -0.49,1.62 2.22,2.22 0 0 1 -0.38,0.88 c -0.15,0.25 -0.29,0.51 -0.42,0.77 a 4.82,4.82 0 0 0 -0.5,1.64 L 9,26.59 8.77,26.41 C 8.46,26.16 8.17,25.89 7.88,25.68 a 8.75,8.75 0 0 1 -1,-0.65 12.29,12.29 0 0 1 -1.7,-1.59 0.62,0.62 0 0 0 -0.4,-0.18 0.5,0.5 0 0 0 -0.36,0.21 c -0.15,0.29 -0.36,0.68 -0.56,1 l -0.6,1 a 1.7,1.7 0 0 0 -0.1,1 c 0,0.29 0.42,0.45 0.73,0.43 a 0.38,0.38 0 0 0 0.33,-0.21 1.87,1.87 0 0 0 0.2,-0.5 L 4.49,25.92 V 25.78 25.7 c 0,0 0,-0.13 0.09,-0.15 a 0.63,0.63 0 0 1 0.77,0 c 0.32,0.35 0.5,0.62 0.77,0.92 a 22.65,22.65 0 0 0 1.73,1.63 6.3,6.3 0 0 0 0.87,0.71 1.08,1.08 0 0 0 1,0 v 0 a 2.35,2.35 0 0 0 0.77,-0.51 q 0.36,-0.31 0.72,-0.66 a 13.76,13.76 0 0 0 1.29,-1.45 l 1.16,-1.58 c 0.2,-0.26 0.35,-0.5 0.55,-0.81 0.2,-0.31 0.51,-0.43 0.73,-0.67 v 0 a 5.51,5.51 0 0 1 -0.56,0.81 4.28,4.28 0 0 1 -0.47,0.86 l -1.18,1.59 a 13.18,13.18 0 0 1 -1.32,1.48 9.32,9.32 0 0 1 -0.74,0.67 2.49,2.49 0 0 1 -0.86,0.57 v 0 A 1.44,1.44 0 0 1 8.53,29.06 6.31,6.31 0 0 1 7.59,28.31 C 7,27.83 6.47,27.3 6,26.71 5.75,26.43 5.48,26.06 5.29,25.84 a 0.35,0.35 0 0 0 -0.32,0 c 0,0 0,-0.06 0,0 v 0.07 0.15 L 4.9,26.35 A 2.8,2.8 0 0 1 4.67,26.93 0.76,0.76 0 0 1 4.06,27.31 1,1 0 0 1 2.97,26.62 2,2 0 0 1 3,25.29 c 0.22,-0.38 0.42,-0.65 0.62,-1 0.2,-0.35 0.37,-0.64 0.58,-1 a 0.87,0.87 0 0 1 0.62,-0.35 0.9,0.9 0 0 1 0.65,0.27 11.88,11.88 0 0 0 1.69,1.57 9.27,9.27 0 0 0 0.95,0.64 c 0.34,0.24 0.62,0.5 0.92,0.74 l -0.28,0.1 C 8.81,25.97 8.84,25.7 8.93,25.38 A 4.9,4.9 0 0 1 9.28,24.53 C 9.42,24.26 9.57,24 9.72,23.75 9.87,23.5 10.06,23.24 10.05,23.01 a 4.65,4.65 0 0 1 0.43,-1.77 5.35,5.35 0 0 1 1.23,-1.36 v 0 a 11.51,11.51 0 0 0 1.4,-1.79 9.61,9.61 0 0 1 1.44,-1.82 8,8 0 0 1 1.89,-1.37 2.38,2.38 0 0 1 1.17,-0.25 3.8,3.8 0 0 0 1.09,-0.17 h 0.1 v 0.08 l 0.8,1.31 v 0 a 6,6 0 0 1 0.91,1 0.51,0.51 0 0 1 0.09,0.43 0.36,0.36 0 0 1 -0.19,0.15 l -0.16,0.07 a 0.86,0.86 0 0 1 -0.75,0 1.25,1.25 0 0 0 -0.57,-0.23 2.21,2.21 0 0 0 -0.63,0.05 c -0.37,0.1 -0.84,0.4 -0.7,0.78 0.14,0.38 0.43,0.79 0.32,1.32 a 3.45,3.45 0 0 1 -0.56,1.25 2.18,2.18 0 0 1 -1.06,0.88 4.62,4.62 0 0 1 -1.32,0.31 z"
       id="path11728"
       style="stroke-width:0.889186" />
    <path
       class="cls-7"
       d="m 26.42,21.67 a 4.42,4.42 0 0 0 -0.61,-0.68 c -0.08,0 -0.63,-0.13 -0.78,0 a 6.84,6.84 0 0 0 -0.54,0.82 0.9,0.9 0 0 1 -0.32,0.3 16,16 0 0 1 -2.8,0.09 H 20.05 C 19.76,22.03 19.72,21.66 19.38,21.26 A 6.81,6.81 0 0 0 18.44,20.4 7.31,7.31 0 0 0 18.1,18.81 9.28,9.28 0 0 0 17.46,17.57 1.7,1.7 0 0 0 15.71,17.08 1.73,1.73 0 0 0 14.8,19 a 7,7 0 0 0 2.07,3.37 9.53,9.53 0 0 0 2.52,1.76 5.63,5.63 0 0 0 2.89,-0.25 l 2.23,-0.66 a 1.36,1.36 0 0 0 0.82,-0.35 c 0.24,-0.19 0.39,-0.33 0.39,-0.33 h 0.25 a 1.07,1.07 0 0 0 0.48,-0.39 0.6,0.6 0 0 0 -0.03,-0.48 z"
       id="path11730"
       style="stroke-width:0.889186" />
    <path
       class="cls-11"
       d="m 16.28,21.5 a 13.2,13.2 0 0 0 2.88,1.75 6.08,6.08 0 0 0 3.57,0 21.1,21.1 0 0 0 2.52,-0.48 5.36,5.36 0 0 1 -0.86,0.5 19.45,19.45 0 0 1 -3.52,0.92 3.55,3.55 0 0 1 -1.94,-0.27 16.59,16.59 0 0 1 -2.11,-1.59"
       id="path11732"
       style="fill:url(#linear-gradient-6);stroke-width:0.889186" />
    <path
       class="cls-3"
       d="m 19.9,17.3 a 2,2 0 0 0 0.93,-0.34 5.6,5.6 0 0 0 1.08,-1.31 2,2 0 0 0 0.3,-1.1 1.63,1.63 0 0 0 -0.73,-1.41 1.84,1.84 0 0 0 -2.17,0.27 7.39,7.39 0 0 0 -1.23,1.76"
       id="path11734" />
    <path
       class="cls-12"
       d="M 17.18,17.3 16.7,17 c 0,0 -1.27,-0.57 -0.47,-1.31 a 2.55,2.55 0 0 1 2,-0.55 L 18.92,14 19.59,13.28 c 0,0 0.72,-0.2 0.65,-0.2 a 1.3,1.3 0 0 0 -0.8,1.11 2.33,2.33 0 0 0 0.47,1.36 l -0.28,1.79 a 2.39,2.39 0 0 0 -1.37,-0.07 c -0.6,0.21 -0.73,0.45 -0.73,0.45"
       id="path11736"
       style="fill:url(#linear-gradient-7);stroke-width:0.889186" />
    <path
       class="cls-13"
       d="m 17.53,17.68 c 0,-0.18 0.11,-0.28 0.22,-0.37 A 1.52,1.52 0 0 1 18.13,17.11 1.94,1.94 0 0 1 19,17 c 0.31,0 0.58,0.23 0.76,0.29 a 1.65,1.65 0 0 0 0.32,0 1,1 0 0 0 0.16,-0.06 h 0.09 v 0 c 0,0 0,0 0.11,0.11 v 0 c 0.06,0.14 0.05,0.17 0,0.16 v 0 l -0.1,0.05 -0.22,0.07 a 0.64,0.64 0 0 1 -0.47,-0.06 c -0.31,-0.12 -0.46,-0.29 -0.71,-0.29 a 1.67,1.67 0 0 0 -0.74,0.07 1,1 0 0 0 -0.33,0.17 c -0.11,0.06 -0.16,0.16 -0.33,0.21 z"
       id="path11738"
       style="stroke-width:0.889186" />
    <path
       class="cls-10"
       d="m 17.53,17.68 c 0,-0.18 0.11,-0.28 0.22,-0.37 A 1.52,1.52 0 0 1 18.13,17.11 1.94,1.94 0 0 1 19,17 c 0.31,0 0.58,0.23 0.76,0.29 a 1.65,1.65 0 0 0 0.32,0 1,1 0 0 0 0.16,-0.06 h 0.09 v 0 c 0,0 0,0 0.11,0.11 v 0 c 0.06,0.14 0.05,0.17 0,0.16 v 0 l -0.1,0.05 -0.22,0.07 a 0.64,0.64 0 0 1 -0.47,-0.06 c -0.31,-0.12 -0.46,-0.29 -0.71,-0.29 a 1.67,1.67 0 0 0 -0.74,0.07 1,1 0 0 0 -0.33,0.17 c -0.11,0.06 -0.16,0.16 -0.33,0.21 z"
       id="path11740"
       style="stroke-width:0.889186" />
    <path
       class="cls-10"
       d="m 19.91,17.24 c 0.09,0.06 0.28,0 0.46,-0.14 a 2,2 0 0 0 0.5,-0.42 9.67,9.67 0 0 0 0.83,-1.08 1.66,1.66 0 0 0 -0.29,-2.24 1.7,1.7 0 0 0 -2.23,0.45 6.3,6.3 0 0 0 -0.74,1.19 2.48,2.48 0 0 1 -0.23,0.32 0.62,0.62 0 0 1 -0.45,0.12 1.93,1.93 0 0 1 -0.71,-0.16 v 0 c 0.24,0 0.48,-0.08 0.69,-0.11 A 0.85,0.85 0 0 0 18,15 a 2.36,2.36 0 0 0 0.17,-0.26 7.23,7.23 0 0 1 0.76,-1.22 2.09,2.09 0 0 1 2.73,-0.52 1.78,1.78 0 0 1 0.75,1.34 2.3,2.3 0 0 1 -0.36,1.47 8.92,8.92 0 0 1 -0.9,1.13 2.44,2.44 0 0 1 -0.58,0.47 0.83,0.83 0 0 1 -0.84,0.12 z"
       id="path11742"
       style="stroke-width:0.889186" />
    <path
       class="cls-14"
       d="m 21.52,14.55 c 0.18,0.14 0.47,0.36 0.47,0.68 a 1,1 0 0 1 -0.19,0.63 5.25,5.25 0 0 1 -1.06,1.2 c -0.28,0.22 -0.72,0.45 -0.93,0.24 a 1.63,1.63 0 0 1 -0.36,-1.6 1.88,1.88 0 0 1 1.05,-1.24 1.12,1.12 0 0 1 1.02,0.09 z"
       id="path11744"
       style="fill:url(#linearGradient11864);stroke-width:0.889186" />
    <path
       class="cls-10"
       d="m 9.09,26.29 c -0.12,0.59 -0.1,1.24 -0.21,1.86 H 8.79 c 0,-0.63 -0.09,-1.25 0,-1.91 z"
       id="path11746"
       style="stroke-width:0.889186" />
    <path
       class="cls-10"
       d="m 14.61,19.71 a 1.06,1.06 0 0 1 0.7,0.36 c 0.19,0.24 0.26,0.43 0.41,0.64 a 9.9,9.9 0 0 0 0.9,1.15 10.16,10.16 0 0 0 2.26,1.81 2.91,2.91 0 0 0 0.62,0.3 3.75,3.75 0 0 0 0.69,0.07 6.91,6.91 0 0 0 1.43,-0.18 c 0.93,-0.24 1.89,-0.56 2.83,-0.83 v 0 a 1.11,1.11 0 0 0 0.58,-0.2 6.67,6.67 0 0 0 0.53,-0.43 h 0.05 0.08 c 0.2,0 0.25,0 0.39,-0.15 a 0.73,0.73 0 0 0 0.15,-0.16 c 0,0 0,0 0,-0.12 a 0.46,0.46 0 0 0 0,-0.16 l -0.17,-0.2 a 4.62,4.62 0 0 0 -0.35,-0.38 c 0,0 -0.11,0 -0.17,0 H 25.3 c -0.07,0 -0.12,0 -0.12,0 l -0.15,0.2 -0.29,0.47 a 1.22,1.22 0 0 1 -0.46,0.47 v 0 0 a 27.44,27.44 0 0 1 -4.15,0 H 20 v 0 a 1.31,1.31 0 0 1 -0.44,-0.55 2.13,2.13 0 0 0 -0.31,-0.47 6.59,6.59 0 0 0 -0.87,-0.79 l -0.06,-0.05 v -0.07 c 0,-0.35 -0.1,-0.7 -0.17,-1 a 3.56,3.56 0 0 0 -0.36,-0.95 3.61,3.61 0 0 0 -0.5,-0.87 7.61,7.61 0 0 0 -0.79,-0.65 v 0 a 1.75,1.75 0 0 1 1,0.45 3.57,3.57 0 0 1 0.58,1 4.41,4.41 0 0 1 0.4,1 c 0.07,0.36 0.13,0.71 0.18,1.07 l -0.08,-0.12 a 7.35,7.35 0 0 1 0.94,0.83 c 0.3,0.32 0.43,0.82 0.66,0.94 h -0.1 a 29.26,29.26 0 0 0 4.09,-0.07 H 24.1 a 0.75,0.75 0 0 0 0.3,-0.33 l 0.3,-0.49 c 0.06,-0.08 0.11,-0.16 0.19,-0.25 a 0.66,0.66 0 0 1 0.39,-0.17 h 0.32 a 0.93,0.93 0 0 1 0.38,0.11 2.84,2.84 0 0 1 0.42,0.44 2.36,2.36 0 0 1 0.2,0.23 0.83,0.83 0 0 1 0.13,0.36 0.58,0.58 0 0 1 -0.09,0.42 1.42,1.42 0 0 1 -0.23,0.25 1.1,1.1 0 0 1 -0.31,0.19 l -0.34,0.05 0.14,-0.06 a 7,7 0 0 1 -0.58,0.47 1.69,1.69 0 0 1 -0.74,0.26 v 0 c -1,0.27 -1.88,0.57 -2.87,0.82 A 6.92,6.92 0 0 1 20.2,24.54 3.12,3.12 0 0 1 19.41,24.46 3.61,3.61 0 0 1 18.7,24.12 10.47,10.47 0 0 1 16.36,22.21 10.77,10.77 0 0 1 15.44,21.02 c -0.13,-0.2 -0.27,-0.46 -0.38,-0.63 -0.11,-0.17 -0.27,-0.35 -0.44,-0.55 z"
       id="path11748"
       style="stroke-width:0.889186" />
    <path
       class="cls-6"
       d="m 21.65,14.66 a 0.76,0.76 0 0 1 0.28,0.95 4,4 0 0 1 -1.19,1.45 c -0.28,0.22 -0.72,0.45 -0.93,0.24 a 1.63,1.63 0 0 1 -0.36,-1.6 1.85,1.85 0 0 1 1.15,-1.16 1.17,1.17 0 0 1 1.05,0.12 z"
       id="path11750" />
    <path
       class="cls-7"
       d="m 36.64,21.33 c 0,0 -0.87,1.77 -1.43,2.67 a 29.07,29.07 0 0 0 -1.33,3 8.3,8.3 0 0 0 -1.59,-1.54 c -0.73,-0.6 -1.69,-1.43 -1.77,-1.54 l -0.1,-0.07 A 0.68,0.68 0 0 0 29.67,23.93 15.77,15.77 0 0 1 28.11,25 c -0.37,0.22 -0.76,0.89 -0.62,1.24 a 0.82,0.82 0 0 0 1.07,0.44 2.44,2.44 0 0 0 0.6,-0.6 4.19,4.19 0 0 1 0.26,-0.33 0.93,0.93 0 0 1 0.35,-0.16 0.53,0.53 0 0 1 0.35,0 c 0.27,0.11 0.38,0.47 0.51,0.7 0.13,0.23 0.26,0.49 0.4,0.72 a 9.72,9.72 0 0 0 1.55,1.85 5.72,5.72 0 0 0 0.78,0.73 0.92,0.92 0 0 0 1,-0.19 v 0 a 18.24,18.24 0 0 0 2.62,-2.69 7.73,7.73 0 0 0 1.29,-3.2 c 0.07,-0.55 0.18,-1.08 0.18,-1.08 z"
       id="path11752"
       style="stroke-width:0.889186" />
    <path
       class="cls-15"
       d="m 36.64,21.33 c 0,0 -0.87,1.77 -1.43,2.67 a 29.07,29.07 0 0 0 -1.33,3 8.3,8.3 0 0 0 -1.59,-1.54 c -0.73,-0.6 -1.69,-1.43 -1.77,-1.54 l -0.1,-0.07 A 0.68,0.68 0 0 0 29.67,23.93 15.77,15.77 0 0 1 28.11,25 c -0.37,0.22 -0.76,0.89 -0.62,1.24 a 0.82,0.82 0 0 0 1.07,0.44 2.44,2.44 0 0 0 0.6,-0.6 4.19,4.19 0 0 1 0.26,-0.33 0.93,0.93 0 0 1 0.35,-0.16 0.53,0.53 0 0 1 0.35,0 c 0.27,0.11 0.38,0.47 0.51,0.7 0.13,0.23 0.26,0.49 0.4,0.72 a 9.72,9.72 0 0 0 1.55,1.85 5.72,5.72 0 0 0 0.78,0.73 0.92,0.92 0 0 0 1,-0.19 v 0 a 18.24,18.24 0 0 0 2.62,-2.69 7.73,7.73 0 0 0 1.29,-3.2 c 0.07,-0.55 0.18,-1.08 0.18,-1.08 z"
       id="path11754"
       style="fill:url(#linear-gradient-9);stroke-width:0.889186" />
    <path
       class="cls-16"
       d="m 36.34,27.5 a 17,17 0 0 1 -1.9,1.83 c 0,0 0,0 -0.06,0 a 0.91,0.91 0 0 1 -1,0.19 A 5.72,5.72 0 0 1 32.6,28.79 9.72,9.72 0 0 1 31,27 c -0.15,-0.23 -0.28,-0.48 -0.41,-0.72 -0.13,-0.24 -0.24,-0.59 -0.5,-0.7 a 0.55,0.55 0 0 0 -0.36,0 0.82,0.82 0 0 0 -0.34,0.16 2.69,2.69 0 0 0 -0.26,0.33 2.44,2.44 0 0 1 -0.6,0.6 0.82,0.82 0 0 1 -1.07,-0.44 0.15,0.15 0 0 1 0,-0.07 1,1 0 0 0 0.59,-0.07 c 0.36,-0.15 1,-0.83 1.51,-1.06 0.51,-0.23 0.77,-0.14 1.21,0.4 a 31.41,31.41 0 0 0 2.06,2.76 c 0.53,0.43 0.35,0.64 1,0.64 0.65,0 2.43,-1.34 2.43,-1.34 z"
       id="path11756"
       style="fill:url(#linear-gradient-10);stroke-width:0.889186" />
    <path
       class="cls-6"
       d="m 36.64,21.33 c 0,0 -0.87,1.77 -1.43,2.67 a 29.07,29.07 0 0 0 -1.33,3 8.3,8.3 0 0 0 -1.59,-1.54 l -1,-0.8 -0.47,-0.42 A 2.62,2.62 0 0 0 30.39,23.85 0.68,0.68 0 0 0 29.64,23.93 15.77,15.77 0 0 1 28.11,25 c -0.37,0.22 -0.85,0.74 -0.62,1.24 a 0.75,0.75 0 0 0 1.12,0.36 3,3 0 0 0 0.83,-0.79 c 0.17,-0.21 0.57,-0.39 0.79,-0.08 0.22,0.31 0.6,0.95 0.8,1.28 a 9.72,9.72 0 0 0 1.55,1.85 5.72,5.72 0 0 0 0.78,0.73 0.92,0.92 0 0 0 1,-0.19 v 0 a 18.24,18.24 0 0 0 2.62,-2.69 7.73,7.73 0 0 0 1.29,-3.2 c 0.07,-0.55 0.18,-1.08 0.18,-1.08 z"
       id="path11758" />
    <path
       class="cls-7"
       d="m 42.83,17.16 -0.08,-0.09 -0.2,-0.23 C 42.32,16.58 42.08,16.25 42.13,16 a 1.39,1.39 0 0 0 -0.36,-1.15 2.3,2.3 0 0 0 -0.62,-0.42 0.63,0.63 0 0 1 -0.46,0.08 c -0.18,-0.08 -0.59,-0.73 -1.08,-1.06 -0.22,-0.13 -0.49,-0.68 -0.92,-1 A 2.35,2.35 0 0 0 37.21,12 C 37.03,12 36.73,11.81 36,11.65 a 9.61,9.61 0 0 0 -1.3,-0.18 9.65,9.65 0 0 0 -1.88,0 c -0.9,0.08 -2.2,0.35 -2.88,0.35 -0.68,0 -1.35,-0.95 -1.84,-0.58 a 0.62,0.62 0 0 0 -0.21,0.55 3.31,3.31 0 0 0 0.13,0.78 c 0.05,0.15 0.33,0.35 0.82,0.39 A 7.16,7.16 0 0 0 30,12.84 c 0,0 1.81,0 2.54,0.1 a 14.31,14.31 0 0 1 1.87,0.16 10,10 0 0 1 1.46,0.83 c 0.77,0.46 0.81,0.44 1.07,0.81 0,0 0.19,0 0.13,0.39 A 6.08,6.08 0 0 1 36.51,16.89 29.23,29.23 0 0 1 35.18,20 c -0.4,0.5 1.24,1.24 1.85,1.62 a 9.47,9.47 0 0 0 1.5,0.73 3.58,3.58 0 0 1 0.68,-1.07 25.08,25.08 0 0 1 2.3,-2.11 4.66,4.66 0 0 0 1.24,-1.11 0.88,0.88 0 0 0 0.08,-0.9 z"
       id="path11760"
       style="stroke-width:0.889186" />
    <path
       class="cls-17"
       d="m 29.77,12.53 a 25,25 0 0 1 4.75,0 c 1.46,0.25 2.24,0.59 2.41,0.89 a 2.19,2.19 0 0 1 0.18,1.65 4.14,4.14 0 0 0 -1.55,-1.33 C 34.28,13 33.88,13 33.88,13 c 0,0 -4.19,-0.13 -4.2,-0.16"
       id="path11762"
       style="fill:url(#linear-gradient-11);stroke-width:0.889186" />
    <path
       class="cls-6"
       d="m 42.83,17.16 -0.08,-0.09 -0.2,-0.23 C 42.32,16.58 42.08,16.25 42.13,16 a 1.39,1.39 0 0 0 -0.36,-1.15 2.3,2.3 0 0 0 -0.62,-0.42 c 0,0 -0.17,0.26 -0.36,0.18 -0.19,-0.08 -0.69,-0.83 -1.18,-1.16 -0.22,-0.13 -0.49,-0.68 -0.92,-1 A 2.35,2.35 0 0 0 37.21,12 3.63,3.63 0 0 1 36.43,11.78 7,7 0 0 0 35.55,11.57 10.41,10.41 0 0 0 32.82,11.45 c -0.9,0.08 -2.2,0.35 -2.88,0.35 -0.52,0 -0.83,-0.51 -1.3,-0.6 a 0.87,0.87 0 0 0 -0.54,0 0.62,0.62 0 0 0 -0.21,0.55 3.31,3.31 0 0 0 0.13,0.78 c 0.05,0.15 0.33,0.35 0.82,0.39 A 7.16,7.16 0 0 0 30,12.84 c 0,0 1.81,0 2.54,0.1 a 14.31,14.31 0 0 1 1.87,0.16 10,10 0 0 1 1.46,0.83 c 0.77,0.46 1.26,0.86 1.2,1.2 A 6.08,6.08 0 0 1 36.51,16.89 29.23,29.23 0 0 1 35.18,20 c -0.4,0.5 1.24,1.24 1.85,1.62 a 9.47,9.47 0 0 0 1.5,0.73 3.58,3.58 0 0 1 0.68,-1.07 25.08,25.08 0 0 1 2.3,-2.11 4.66,4.66 0 0 0 1.24,-1.11 0.88,0.88 0 0 0 0.08,-0.9 z"
       id="path11764" />
    <path
       class="cls-7"
       d="m 36.9,21.15 c -0.36,-0.64 -1.72,-1.14 -1.72,-1.14 a 12.64,12.64 0 0 0 -1.08,1.84 3.51,3.51 0 0 0 -0.1,2.25 9.11,9.11 0 0 0 2,3.31 11.19,11.19 0 0 1 1.36,1.42 2.4,2.4 0 0 1 0.22,1.17 c 0,0.37 0,0.74 0,1.11 a 22.56,22.56 0 0 0 1.28,4.54 6.89,6.89 0 0 1 0.29,1.21 c 0.06,0.38 0,0.77 0.07,1.15 a 1.71,1.71 0 0 0 0.19,0.49 1,1 0 0 0 0.82,0.11 18.79,18.79 0 0 0 2.84,-1 c 0.49,-0.28 0.46,-0.49 0.46,-0.49 a 1.37,1.37 0 0 0 -0.1,-0.35 0.47,0.47 0 0 0 -0.48,-0.21 3.8,3.8 0 0 1 -1.6,0 c -0.36,-0.11 -0.68,-0.64 -0.69,-0.65 a 31.52,31.52 0 0 1 -0.65,-4 21,21 0 0 0 -0.36,-2.49 c 0,-0.09 0,-0.34 -0.09,-0.62 -0.08,-0.58 -1,-2 -1.48,-3.24 -0.31,-0.8 -0.5,-1.29 -0.64,-1.62 -0.14,-0.33 0.11,-0.4 0.18,-0.6 a 1,1 0 0 0 0,-0.74 1.12,1.12 0 0 0 -0.16,-0.22 L 37.3,22.19"
       id="path11766"
       style="stroke-width:0.889186" />
    <path
       class="cls-18"
       d="m 43.55,37.07 c 0,0 0,0.21 -0.46,0.49 a 19.19,19.19 0 0 1 -2.84,1 1.05,1.05 0 0 1 -0.83,-0.11 1.55,1.55 0 0 1 -0.18,-0.49 c -0.07,-0.38 0,-0.77 -0.07,-1.15 A 7.91,7.91 0 0 0 38.88,35.6 21.92,21.92 0 0 1 37.6,31.06 c 0,-0.37 0,-0.74 0,-1.11 a 2.28,2.28 0 0 0 -0.16,-1.13 11.19,11.19 0 0 0 -1.36,-1.42 9.29,9.29 0 0 1 -2,-3.31 3.51,3.51 0 0 1 0.07,-2.25 7.35,7.35 0 0 1 0.85,-1.55 l 0.39,0.77 a 2.28,2.28 0 0 0 -0.68,2.21 c 0.24,1.23 2.58,4.28 3,4.89 0.42,0.61 0.36,3.43 1,4.75 0.64,1.32 0.72,4 1.14,4.55 0.42,0.55 3.22,-0.49 3.41,-0.62 a 0.94,0.94 0 0 0 0.17,-0.15 v 0 a 2,2 0 0 1 0.12,0.38 z"
       id="path11768"
       style="fill:url(#linear-gradient-12);stroke-width:0.889186" />
    <path
       class="cls-19"
       d="m 34.73,20.85 a 1,1 0 0 0 0.58,0.91 3,3 0 0 1 1.51,1 8.46,8.46 0 0 1 0.64,1 3.26,3.26 0 0 0 0.21,-0.73 2.61,2.61 0 0 0 -0.06,-0.81 l -1.76,-1.46 a 0.65,0.65 0 0 1 -0.59,-0.18 c -0.22,-0.27 -0.41,-0.1 -0.41,-0.1"
       id="path11770"
       style="fill:url(#linear-gradient-13);stroke-width:0.889186" />
    <path
       class="cls-10"
       d="m 36.75,21.23 a 2.11,2.11 0 0 0 -0.72,-0.62 6.29,6.29 0 0 0 -0.91,-0.43 l 0.22,-0.09 a 7.57,7.57 0 0 0 -1.16,2.18 3.31,3.31 0 0 0 0.27,2.33 9.65,9.65 0 0 0 1.26,2.12 c 0.5,0.62 1.21,1.14 1.75,1.82 a 1.28,1.28 0 0 1 0.3,0.67 5,5 0 0 1 0,0.66 v 1.25 a 11,11 0 0 0 0.57,2.41 c 0.26,0.79 0.59,1.57 0.78,2.41 a 5.06,5.06 0 0 1 0.23,1.29 2.16,2.16 0 0 0 0.2,1.13 L 39.49,38.3 c 0.41,0.26 1.14,-0.08 1.75,-0.26 a 9.88,9.88 0 0 0 1.82,-0.73 0.54,0.54 0 0 0 0.23,-0.24 v 0 -0.12 c 0,-0.09 0,-0.08 -0.06,-0.12 a 0.29,0.29 0 0 0 -0.31,-0.07 4.36,4.36 0 0 1 -0.52,0 3.42,3.42 0 0 1 -1.05,-0.11 1,1 0 0 1 -0.51,-0.31 1.12,1.12 0 0 1 -0.18,-0.2 L 40.6,36 v -0.06 0 0 A 0.15,0.15 0 0 0 40.71,36 l -0.14,-0.13 a 28.16,28.16 0 0 1 -0.6,-3.6 C 39.82,31.06 39.65,29.93 39.47,28.7 A 7.69,7.69 0 0 0 38.76,27.1 15.68,15.68 0 0 1 37.99,25.44 L 37.66,24.61 37.49,24.19 37.34,24 v -0.11 a 0.57,0.57 0 0 1 0,-0.18 1.31,1.31 0 0 1 0.2,-0.47 0.94,0.94 0 0 0 0.12,-0.38 c 0.06,-0.28 -0.12,-0.51 -0.28,-0.78 a 1,1 0 0 1 0.51,0.79 1.4,1.4 0 0 1 -0.08,0.49 1.14,1.14 0 0 0 -0.14,0.36 l 0.65,1.62 a 15.8,15.8 0 0 0 0.68,1.6 8.15,8.15 0 0 1 0.75,1.69 c 0.16,1.16 0.36,2.41 0.5,3.6 a 31.32,31.32 0 0 0 0.6,3.53 l -0.14,-0.13 a 0.21,0.21 0 0 1 0.11,0.07 v 0 0 0 0 l 0.07,0.1 0.15,0.17 a 0.64,0.64 0 0 0 0.33,0.21 3.37,3.37 0 0 0 0.95,0.09 3.88,3.88 0 0 0 0.48,0 0.67,0.67 0 0 1 0.63,0.17 0.61,0.61 0 0 1 0.17,0.3 v 0.14 a 0.56,0.56 0 0 1 0,0.19 0.9,0.9 0 0 1 -0.4,0.51 11,11 0 0 1 -1.91,0.78 c -0.32,0.11 -0.64,0.21 -1,0.3 a 1.35,1.35 0 0 1 -1.15,-0.1 v 0 0 A 2.5,2.5 0 0 1 39,37.24 5.53,5.53 0 0 0 38.78,36.05 C 38.59,35.25 38.26,34.46 38,33.66 a 11.84,11.84 0 0 1 -0.6,-2.5 q 0,-0.64 0,-1.29 c 0,-0.42 0,-0.81 -0.24,-1.06 -0.51,-0.64 -1.19,-1.13 -1.75,-1.83 A 10.09,10.09 0 0 1 34.11,24.76 3.71,3.71 0 0 1 33.84,22.18 7.53,7.53 0 0 1 35,19.92 l 0.08,-0.14 h 0.14 a 6.73,6.73 0 0 1 1,0.48 2.3,2.3 0 0 1 0.84,0.75 z"
       id="path11772"
       style="stroke-width:0.889186" />
    <path
       class="cls-7"
       d="m 42.75,17.07 a 2.53,2.53 0 0 1 0.41,2 c -0.26,0.64 -0.54,0.86 -0.65,1.23 A 3.56,3.56 0 0 1 42,21.86 c -0.44,0.59 -0.63,0.94 -0.91,1.34 a 0.84,0.84 0 0 1 -1.13,0.35 2,2 0 0 1 -0.44,-1.91 6.44,6.44 0 0 1 1.35,-1.89 3.86,3.86 0 0 0 0.76,-0.69 c 0.2,-0.32 0.46,-0.6 0.68,-0.91 a 5.48,5.48 0 0 0 0.35,-0.49 1.53,1.53 0 0 0 0.09,-0.59 z"
       id="path11774"
       style="stroke-width:0.889186" />
    <path
       class="cls-20"
       d="m 42,18.94 a 5.65,5.65 0 0 0 -0.63,1.15 6.14,6.14 0 0 1 -0.73,1.56 c -0.17,0.13 -1,-0.49 -1,-0.49 l 1.54,-1.67"
       id="path11776"
       style="fill:url(#linear-gradient-14);stroke-width:0.889186" />
    <path
       class="cls-6"
       d="m 42.83,17.16 -0.08,-0.09 -0.2,-0.23 C 42.32,16.58 42.08,16.25 42.13,16"
       id="path11778" />
    <path
       class="cls-10"
       d="m 43,17.05 a 2.62,2.62 0 0 1 0.47,1.83 c -0.13,0.67 -0.64,1.14 -0.74,1.61 a 5.49,5.49 0 0 1 -0.22,0.89 3.46,3.46 0 0 1 -0.48,0.8 c -0.17,0.24 -0.33,0.48 -0.49,0.73 a 2.58,2.58 0 0 1 -0.61,0.74 0.93,0.93 0 0 1 -1.07,0.09 1.67,1.67 0 0 1 -0.52,-0.87 2.35,2.35 0 0 1 -0.1,-1 2.33,2.33 0 0 1 0.39,-0.87 6.62,6.62 0 0 1 2.56,-2.48 v 0 a 1.51,1.51 0 0 1 -0.56,0.73 l -0.67,0.56 a 5.53,5.53 0 0 0 -1,1.35 2.41,2.41 0 0 0 -0.33,0.73 2.18,2.18 0 0 0 0.1,0.79 1.44,1.44 0 0 0 0.36,0.64 0.53,0.53 0 0 0 0.59,-0.08 10.15,10.15 0 0 0 1,-1.37 2.91,2.91 0 0 0 0.64,-1.55 2.65,2.65 0 0 1 0.43,-0.84 2.59,2.59 0 0 0 0.34,-0.74 2.28,2.28 0 0 0 -0.35,-1.53 z"
       id="path11780"
       style="stroke-width:0.889186" />
    <path
       class="cls-7"
       d="M 41,21.83 A 7.81,7.81 0 0 0 39.28,21.28 10.5,10.5 0 0 1 37,20.19 a 7.49,7.49 0 0 1 -0.41,-0.63 6.15,6.15 0 0 1 -0.35,-0.55 0.32,0.32 0 0 0 -0.25,-0.16 2.27,2.27 0 0 0 -0.62,0.07 0.38,0.38 0 0 0 -0.19,0.19 4.59,4.59 0 0 0 -0.18,1 0.25,0.25 0 0 0 0,0.21 2.81,2.81 0 0 0 0.3,0.34 0.28,0.28 0 0 0 0.27,0 1.89,1.89 0 0 0 0.59,0.43 1.29,1.29 0 0 1 0.35,0.16 h -0.08 a 28.48,28.48 0 0 0 2.56,2 6.92,6.92 0 0 0 1.08,0.38 0.8,0.8 0 0 0 0.68,-0.05 4.36,4.36 0 0 0 0.49,-0.76 A 0.75,0.75 0 0 0 41,21.83 Z"
       id="path11782"
       style="stroke-width:0.889186" />
    <path
       class="cls-10"
       d="m 34.05,27 a 6,6 0 0 0 -0.43,1.12 v 0 a 7.48,7.48 0 0 1 0.14,-1.23 z"
       id="path11784"
       style="stroke-width:0.889186" />
    <path
       class="cls-10"
       d="m 40.59,21.66 a 6.25,6.25 0 0 1 -1,-0.12 5.74,5.74 0 0 1 -1,-0.29 13.24,13.24 0 0 1 -1.76,-0.9 v 0 0 c -0.29,-0.35 -0.41,-0.67 -0.66,-1 a 1.46,1.46 0 0 1 -0.15,-0.24 0.13,0.13 0 0 0 -0.11,-0.05 1.93,1.93 0 0 0 -0.52,0.06 c 0,0 -0.11,0.14 -0.14,0.32 A 5,5 0 0 0 35.17,20 c 0,0.08 0,0.23 0,0.23 l 0.12,0.15 a 0.74,0.74 0 0 0 0.17,0.18 c 0,0 0.05,0 0.07,0 h 0.11 0.07 a 11.07,11.07 0 0 1 1.55,1.12 11.09,11.09 0 0 0 1.43,1.17 4.27,4.27 0 0 0 0.8,0.4 c 0.14,0.06 0.28,0.1 0.43,0.15 l 0.23,0.07 a 0.42,0.42 0 0 0 0.16,0 0.84,0.84 0 0 0 0.35,-0.13 1.52,1.52 0 0 0 0.24,-0.31 c 0.17,-0.26 0.33,-0.53 0.53,-0.79 l 0.28,0.2 c -0.17,0.25 -0.33,0.52 -0.51,0.79 a 1.21,1.21 0 0 1 -0.34,0.41 1.27,1.27 0 0 1 -0.52,0.21 0.79,0.79 0 0 1 -0.3,0 L 39.81,23.79 C 39.66,23.74 39.5,23.7 39.35,23.64 A 4.43,4.43 0 0 1 38.47,23.22 9.86,9.86 0 0 1 37,22 9.76,9.76 0 0 0 35.5,20.91 h 0.19 a 0.49,0.49 0 0 1 -0.48,-0.08 1.6,1.6 0 0 1 -0.22,-0.24 0.9,0.9 0 0 1 -0.2,-0.33 2.87,2.87 0 0 1 0,-0.35 c 0,-0.19 0,-0.39 0.09,-0.59 A 2.22,2.22 0 0 1 35,19 a 0.52,0.52 0 0 1 0.34,-0.3 2.14,2.14 0 0 1 0.63,-0.07 0.53,0.53 0 0 1 0.39,0.21 1.63,1.63 0 0 0 0.15,0.25 c 0.23,0.3 0.41,0.7 0.62,0.95 v 0 a 11.47,11.47 0 0 0 1.7,0.89 c 0.29,0.13 0.58,0.19 0.9,0.3 a 5.29,5.29 0 0 1 0.91,0.41 z"
       id="path11786"
       style="stroke-width:0.889186" />
    <path
       class="cls-10"
       d="m 36.9,15.09 a 2.79,2.79 0 0 0 0.2,-1 v 0 a 3.06,3.06 0 0 1 0.09,1.09 z"
       id="path11788"
       style="stroke-width:0.889186" />
    <path
       class="cls-7"
       d="m 42.44,16.26 c 0,0 0.48,0.43 0.65,0.38 a 1.89,1.89 0 0 0 0.83,-0.41 5.6,5.6 0 0 0 1,-1.36 1.87,1.87 0 0 0 0.16,-1.08 1.53,1.53 0 0 0 -0.85,-1.26 1.78,1.78 0 0 0 -2.05,0.49 3,3 0 0 0 -0.61,1.05 c -0.11,0.25 -0.71,0.38 -0.84,0.4 -0.38,0.06 -0.59,0 -0.73,0.09 a 1.3,1.3 0 0 0 -0.19,1.53 c 0.43,0.64 0.89,0.85 1.28,0.69 0.39,-0.16 0.73,-0.65 1.35,-0.52 z"
       id="path11790"
       style="stroke-width:0.889186" />
    <path
       class="cls-21"
       d="m 43.78,12.53 a 2.12,2.12 0 0 0 -1.41,1.34 c -0.21,0.68 -0.36,1.13 -0.79,1.2 A 3.46,3.46 0 0 1 40.2,14.6 c 0,0 1.07,-0.12 1.28,-0.44 0.21,-0.32 0.57,-1.31 1.2,-1.54 l 0.64,-0.22"
       id="path11792"
       style="fill:url(#linear-gradient-15);stroke-width:0.889186" />
    <path
       class="cls-22"
       d="m 45,14.68 v 0 c 0,0.05 0,0.12 -0.07,0.18 a 5.6,5.6 0 0 1 -1,1.36 1.78,1.78 0 0 1 -0.64,0.35 v 0 A 0.43,0.43 0 0 1 42.97,16.38 2,2 0 0 1 43.19,14.46 1.14,1.14 0 0 1 44.68,14 1,1 0 0 1 45,14.68 Z"
       id="path11794"
       style="fill:url(#linear-gradient-16);stroke-width:0.889186" />
    <path
       class="cls-6"
       d="m 45,14.68 v 0 c 0,0.05 0,0.12 -0.07,0.18 a 5.6,5.6 0 0 1 -1,1.36 1.78,1.78 0 0 1 -0.64,0.35 v 0 A 0.43,0.43 0 0 1 42.97,16.38 2,2 0 0 1 43.19,14.46 1.14,1.14 0 0 1 44.68,14 1,1 0 0 1 45,14.68 Z"
       id="path11796" />
    <path
       class="cls-10"
       d="m 40.9,16.89 c 0.06,-0.37 0.41,-0.45 0.63,-0.58 a 1.44,1.44 0 0 1 0.87,-0.23 0.51,0.51 0 0 1 0.27,0.12 l 0.15,0.11 a 0.75,0.75 0 0 0 0.23,0.15 2.15,2.15 0 0 0 0.64,-0.29 5,5 0 0 0 1,-1.2 1.83,1.83 0 0 0 0.18,-1.41 1.3,1.3 0 0 0 -0.93,-1 1.61,1.61 0 0 0 -1.36,0.34 2,2 0 0 0 -0.49,0.55 c -0.15,0.23 -0.2,0.42 -0.38,0.74 a 1.45,1.45 0 0 1 -0.83,0.38 0.89,0.89 0 0 1 -0.84,-0.17 v 0 a 6,6 0 0 0 0.76,-0.13 1.32,1.32 0 0 0 0.6,-0.27 5.44,5.44 0 0 1 0.34,-0.71 2.38,2.38 0 0 1 0.57,-0.66 2,2 0 0 1 1.69,-0.41 1.75,1.75 0 0 1 1.25,1.23 2.2,2.2 0 0 1 -0.25,1.72 5.17,5.17 0 0 1 -1.08,1.31 2.17,2.17 0 0 1 -0.84,0.35 c -0.3,0 -0.34,-0.14 -0.48,-0.22 l -0.17,-0.13 a 0.19,0.19 0 0 0 -0.1,-0.05 1.25,1.25 0 0 0 -0.66,0.21 6.14,6.14 0 0 1 -0.7,0.3 z"
       id="path11798"
       style="stroke-width:0.889186" />
  </g>
  <metadata
     id="metadata11866">
    <rdf:RDF>
      <cc:Work
         rdf:about="">
        <dc:title>13-MotionClipExtractKeyPoses</dc:title>
      </cc:Work>
    </rdf:RDF>
  </metadata>
</svg>
