<?xml version="1.0" encoding="UTF-8" standalone="no"?>
<svg
   id="ART"
   viewBox="0 0 48 48"
   version="1.1"
   sodipodi:docname="layoutbrushline.svg"
   inkscape:version="1.3-dev (fdc7329b, 2022-05-31)"
   xmlns:inkscape="http://www.inkscape.org/namespaces/inkscape"
   xmlns:sodipodi="http://sodipodi.sourceforge.net/DTD/sodipodi-0.dtd"
   xmlns:xlink="http://www.w3.org/1999/xlink"
   xmlns="http://www.w3.org/2000/svg"
   xmlns:svg="http://www.w3.org/2000/svg">
  <sodipodi:namedview
     id="namedview78"
     pagecolor="#ffffff"
     bordercolor="#666666"
     borderopacity="1.0"
     inkscape:showpageshadow="2"
     inkscape:pageopacity="0.0"
     inkscape:pagecheckerboard="0"
     inkscape:deskcolor="#d1d1d1"
     showgrid="false"
     inkscape:zoom="19.666667"
     inkscape:cx="22.245763"
     inkscape:cy="24"
     inkscape:window-width="2880"
     inkscape:window-height="1557"
     inkscape:window-x="-8"
     inkscape:window-y="-8"
     inkscape:window-maximized="1"
     inkscape:current-layer="ART" />
  <defs
     id="defs36">
    <linearGradient
       inkscape:collect="always"
       id="linearGradient80">
      <stop
         style="stop-color:#000000;stop-opacity:0.3081761;"
         offset="0"
         id="stop79" />
      <stop
         style="stop-color:#000000;stop-opacity:0;"
         offset="1"
         id="stop80" />
    </linearGradient>
    <radialGradient
       id="radial-gradient"
       cx="-259.48"
       cy="224.55"
       fx="-259.48"
       fy="224.55"
       r="13.04"
       gradientTransform="translate(218.07 -300.48) rotate(-83.16) scale(1.88 -.68) skewX(17.94)"
       gradientUnits="userSpaceOnUse">
      <stop
         offset=".54"
         stop-color="#212121"
         stop-opacity=".3"
         id="stop1" />
      <stop
         offset=".97"
         stop-color="#212121"
         stop-opacity="0"
         id="stop2" />
    </radialGradient>
    <linearGradient
       id="linear-gradient"
       x1="20.02"
       y1="11.42"
       x2="11.57"
       y2="8.64"
       gradientUnits="userSpaceOnUse"
       gradientTransform="matrix(1.1127546,0,0,1.1127546,-2.6597805,-4.3874216)">
      <stop
         offset=".01"
         stop-color="#edd400"
         id="stop3" />
      <stop
         offset=".38"
         stop-color="#fce94f"
         id="stop4" />
      <stop
         offset=".96"
         stop-color="#c4a000"
         id="stop5" />
    </linearGradient>
    <linearGradient
       id="linear-gradient-2"
       x1="15.27"
       y1="21.89"
       x2="21.6"
       y2="21.89"
       gradientTransform="matrix(1, 0, 0, 1, 0, 0)"
       gradientUnits="userSpaceOnUse">
      <stop
         offset=".19"
         stop-color="#c17d11"
         id="stop6" />
      <stop
         offset="1"
         stop-color="#8f5902"
         id="stop7" />
    </linearGradient>
    <linearGradient
       id="linear-gradient-3"
       x1="5.78"
       y1="23.71"
       x2="5.51"
       y2="18.36"
       gradientTransform="matrix(1, 0, 0, 1, 0, 0)"
       gradientUnits="userSpaceOnUse">
      <stop
         offset=".19"
         stop-color="#e9b96e"
         id="stop8" />
      <stop
         offset="1"
         stop-color="#8f5902"
         id="stop9" />
    </linearGradient>
    <linearGradient
       id="linear-gradient-4"
       x1="2.9"
       y1="21.95"
       x2="6.13"
       y2="21.95"
       xlink:href="#linear-gradient-2"
       gradientTransform="matrix(1.1127546,0,0,1.1127546,-2.6597805,-4.3874216)" />
    <linearGradient
       id="linear-gradient-5"
       x1="15.76"
       y1="24.52"
       x2="13.72"
       y2="20.07"
       xlink:href="#linear-gradient-3"
       gradientTransform="matrix(1.1127546,0,0,1.1127546,-2.6597805,-4.3874216)" />
    <linearGradient
       id="linear-gradient-6"
       x1="11.23"
       y1="27.93"
       x2="11.64"
       y2="20.58"
       xlink:href="#linear-gradient-2"
       gradientTransform="matrix(1.1127546,0,0,1.1127546,-2.6597805,-4.3874216)" />
    <linearGradient
       id="linear-gradient-7"
       x1="12.76"
       y1="13.38"
       x2="11.08"
       y2="20.72"
       gradientUnits="userSpaceOnUse"
       gradientTransform="matrix(1.1127546,0,0,1.1127546,-2.6597805,-4.3874216)">
      <stop
         offset="0"
         stop-color="#fce94f"
         id="stop10" />
      <stop
         offset="1"
         stop-color="#c4a000"
         id="stop11" />
    </linearGradient>
    <linearGradient
       id="linear-gradient-8"
       x1="11.88"
       y1="15.25"
       x2="11.64"
       y2="20.65"
       gradientUnits="userSpaceOnUse"
       gradientTransform="matrix(1.1127546,0,0,1.1127546,-2.6597805,-4.3874216)">
      <stop
         offset=".01"
         stop-color="#edd400"
         id="stop12" />
      <stop
         offset=".38"
         stop-color="#fce94f"
         id="stop13" />
      <stop
         offset="1"
         stop-color="#fef7be"
         id="stop14" />
    </linearGradient>
    <linearGradient
       id="linear-gradient-9"
       x1="11.58"
       y1="16.15"
       x2="11.33"
       y2="19.93"
       gradientUnits="userSpaceOnUse"
       gradientTransform="matrix(1.1127546,0,0,1.1127546,-2.6597805,-4.3874216)">
      <stop
         offset="0"
         stop-color="#fce94f"
         id="stop15" />
      <stop
         offset="1"
         stop-color="#fef7be"
         id="stop16" />
    </linearGradient>
    <linearGradient
       id="linear-gradient-10"
       x1="31.42"
       y1="17.42"
       x2="22.97"
       y2="14.64"
       gradientUnits="userSpaceOnUse"
       gradientTransform="matrix(1.1127546,0,0,1.1127546,-2.6597805,-4.3874216)">
      <stop
         offset=".02"
         stop-color="#f24b4b"
         id="stop17" />
      <stop
         offset=".38"
         stop-color="#f46969"
         id="stop18" />
      <stop
         offset=".96"
         stop-color="#c00"
         id="stop19" />
    </linearGradient>
    <linearGradient
       id="linear-gradient-11"
       x1="26.67"
       y1="27.89"
       x2="33"
       y2="27.89"
       xlink:href="#linear-gradient-2"
       gradientTransform="matrix(1.1127546,0,0,1.1127546,-2.6597805,-4.3874216)" />
    <linearGradient
       id="linear-gradient-12"
       x1="17.18"
       y1="29.71"
       x2="16.91"
       y2="24.37"
       xlink:href="#linear-gradient-3"
       gradientTransform="matrix(1.1127546,0,0,1.1127546,-2.6597805,-4.3874216)" />
    <linearGradient
       id="linear-gradient-13"
       x1="14.3"
       y1="27.96"
       x2="17.53"
       y2="27.96"
       xlink:href="#linear-gradient-2"
       gradientTransform="matrix(1.1127546,0,0,1.1127546,-2.6597805,-4.3874216)" />
    <linearGradient
       id="linear-gradient-14"
       x1="27.16"
       y1="30.53"
       x2="25.12"
       y2="26.07"
       xlink:href="#linear-gradient-3"
       gradientTransform="matrix(1.1127546,0,0,1.1127546,-2.6597805,-4.3874216)" />
    <linearGradient
       id="linear-gradient-15"
       x1="22.63"
       y1="33.93"
       x2="23.04"
       y2="26.58"
       xlink:href="#linear-gradient-2"
       gradientTransform="matrix(1.1127546,0,0,1.1127546,-2.6597805,-4.3874216)" />
    <linearGradient
       id="linear-gradient-16"
       x1="24.16"
       y1="19.39"
       x2="22.48"
       y2="26.72"
       gradientUnits="userSpaceOnUse"
       gradientTransform="matrix(1.1127546,0,0,1.1127546,-2.6597805,-4.3874216)">
      <stop
         offset="0"
         stop-color="#ef2929"
         id="stop20" />
      <stop
         offset="1"
         stop-color="#c00"
         id="stop21" />
    </linearGradient>
    <linearGradient
       id="linear-gradient-17"
       x1="23.28"
       y1="21.26"
       x2="23.04"
       y2="26.65"
       gradientUnits="userSpaceOnUse"
       gradientTransform="matrix(1.1127546,0,0,1.1127546,-2.6597805,-4.3874216)">
      <stop
         offset=".01"
         stop-color="#ef2929"
         id="stop22" />
      <stop
         offset=".38"
         stop-color="#f24d4d"
         id="stop23" />
      <stop
         offset="1"
         stop-color="#fbd0d0"
         id="stop24" />
    </linearGradient>
    <linearGradient
       id="linear-gradient-18"
       x1="22.98"
       y1="22.16"
       x2="22.73"
       y2="25.93"
       gradientUnits="userSpaceOnUse"
       gradientTransform="matrix(1.1127546,0,0,1.1127546,-2.6597805,-4.3874216)">
      <stop
         offset="0"
         stop-color="#f14f4f"
         id="stop25" />
      <stop
         offset="1"
         stop-color="#fab6b6"
         id="stop26" />
    </linearGradient>
    <linearGradient
       id="linear-gradient-19"
       x1="42.82"
       y1="23.43"
       x2="34.37"
       y2="20.65"
       gradientUnits="userSpaceOnUse"
       gradientTransform="matrix(1.1127546,0,0,1.1127546,-2.6597805,-4.3874216)">
      <stop
         offset=".01"
         stop-color="#fcaf3e"
         id="stop27" />
      <stop
         offset=".38"
         stop-color="#fdbc5c"
         id="stop28" />
      <stop
         offset=".96"
         stop-color="#ce5c00"
         id="stop29" />
    </linearGradient>
    <linearGradient
       id="linear-gradient-20"
       x1="38.07"
       y1="33.9"
       x2="44.4"
       y2="33.9"
       xlink:href="#linear-gradient-2"
       gradientTransform="matrix(1.1127546,0,0,1.1127546,-2.6597805,-4.3874216)" />
    <linearGradient
       id="linear-gradient-21"
       x1="28.58"
       y1="35.71"
       x2="28.31"
       y2="30.37"
       xlink:href="#linear-gradient-3"
       gradientTransform="matrix(1.1127546,0,0,1.1127546,-2.6597805,-4.3874216)" />
    <linearGradient
       id="linear-gradient-22"
       x1="25.7"
       y1="33.96"
       x2="28.93"
       y2="33.96"
       xlink:href="#linear-gradient-2"
       gradientTransform="matrix(1.1127546,0,0,1.1127546,-2.6597805,-4.3874216)" />
    <linearGradient
       id="linear-gradient-23"
       x1="38.55"
       y1="36.53"
       x2="36.52"
       y2="32.08"
       xlink:href="#linear-gradient-3"
       gradientTransform="matrix(1.1127546,0,0,1.1127546,-2.6597805,-4.3874216)" />
    <linearGradient
       id="linear-gradient-24"
       x1="34.03"
       y1="39.94"
       x2="34.44"
       y2="32.59"
       xlink:href="#linear-gradient-2"
       gradientTransform="matrix(1.1127546,0,0,1.1127546,-2.6597805,-4.3874216)" />
    <linearGradient
       id="linear-gradient-25"
       x1="35.56"
       y1="25.39"
       x2="33.88"
       y2="32.72"
       gradientUnits="userSpaceOnUse"
       gradientTransform="matrix(1.1127546,0,0,1.1127546,-2.6597805,-4.3874216)">
      <stop
         offset="0"
         stop-color="#f57900"
         id="stop30" />
      <stop
         offset="1"
         stop-color="#ce5c00"
         id="stop31" />
    </linearGradient>
    <linearGradient
       id="linear-gradient-26"
       x1="34.68"
       y1="27.26"
       x2="34.44"
       y2="32.65"
       gradientUnits="userSpaceOnUse"
       gradientTransform="matrix(1.1127546,0,0,1.1127546,-2.6597805,-4.3874216)">
      <stop
         offset=".01"
         stop-color="#f57900"
         id="stop32" />
      <stop
         offset=".38"
         stop-color="#fca72b"
         id="stop33" />
      <stop
         offset="1"
         stop-color="#fdd292"
         id="stop34" />
    </linearGradient>
    <linearGradient
       id="linear-gradient-27"
       x1="34.38"
       y1="28.16"
       x2="34.13"
       y2="31.94"
       gradientUnits="userSpaceOnUse"
       gradientTransform="matrix(1.1127546,0,0,1.1127546,-2.6597805,-4.3874216)">
      <stop
         offset="0"
         stop-color="#fcad39"
         id="stop35" />
      <stop
         offset="1"
         stop-color="#fee1b6"
         id="stop36" />
    </linearGradient>
    <linearGradient
       inkscape:collect="always"
       xlink:href="#linear-gradient-2"
       id="linearGradient78"
       gradientUnits="userSpaceOnUse"
       x1="15.27"
       y1="21.89"
       x2="21.6"
       y2="21.89"
       gradientTransform="matrix(1.1127546,0,0,1.1127546,-2.6597805,-4.3874216)" />
    <linearGradient
       inkscape:collect="always"
       xlink:href="#linear-gradient-3"
       id="linearGradient79"
       gradientUnits="userSpaceOnUse"
       x1="5.78"
       y1="23.71"
       x2="5.51"
       y2="18.36"
       gradientTransform="matrix(1.1127546,0,0,1.1127546,-2.6597805,-4.3874216)" />
    <radialGradient
       inkscape:collect="always"
       xlink:href="#linearGradient80"
       id="radialGradient80"
       cx="24.200001"
       cy="29.719999"
       fx="24.200001"
       fy="29.719999"
       r="8.1099995"
       gradientTransform="matrix(0.31866953,-1.055682,2.9384212,1.080971,-71.183574,22.101418)"
       gradientUnits="userSpaceOnUse" />
  </defs>
  <path
     id="ellipse36"
     d="M 26.44251,20.118788 A 25.398283,8.9251793 20.677169 0 1 47.688695,37.447043 25.398283,8.9251793 20.677169 0 1 21.273691,37.24195 25.398283,8.9251793 20.677169 0 1 0.0275073,19.913695 25.398283,8.9251793 20.677169 0 1 26.44251,20.118788 Z"
     clip-path="none"
     style="fill:url(#radialGradient80);fill-opacity:1;stroke-width:0.999996" />
  <path
     style="fill:none;fill-rule:evenodd;stroke:#ef2929;stroke-width:1.5;stroke-linecap:butt;stroke-linejoin:miter;stroke-dasharray:3, 3;stroke-dashoffset:0;stroke-opacity:1"
     d="M 2.5166978,13.561361 47.799527,42.53371"
     id="path80"
     sodipodi:nodetypes="cc" />
  <path
     d="m 19.929138,8.4871492 c 0,1.3909434 -0.300443,2.5815908 -0.58976,3.9947888 C 18.738491,11.046484 16.123517,9.644414 14.387621,9.2215676 12.162112,8.6763172 10.826805,8.8766133 10.826805,8.8766133 c 0.0779,-0.011128 0.322699,-0.8123108 0.756674,-1.9807031 0.578633,-1.5689841 0.956968,-2.9042896 1.836045,-3.6275801 0.578633,-0.4673569 1.079371,-0.712163 1.8583,-0.5563773 1.446581,0.3004437 3.093457,1.0571169 3.683217,1.7358972 0.856822,1.1127546 0.979224,2.648356 0.968097,4.0504268 z"
     style="fill:url(#linear-gradient);stroke-width:1"
     id="path36"
     clip-path="none" />
  <path
     d="m 21.375719,22.685898 -0.778928,-0.422847 c 0,0 -3.516304,-3.571942 -3.950279,-3.816749 -1.079371,-0.612014 -2.303402,-0.200295 -2.303402,-0.200295 l 1.390943,-0.990352 3.060076,1.546729 2.592718,3.182479"
     style="fill:url(#linearGradient78);stroke-width:1"
     id="path37"
     clip-path="none" />
  <path
     d="m 0.57833548,23.22002 c 0,0 2.01408592,-4.94063 2.52595302,-5.953237 0.5118671,-1.012607 2.2811469,-2.370167 2.2811469,-2.370167 l 1.3575606,1.235157 c 0,0 -1.9139379,0.923586 -2.4369325,1.791535 -0.5229947,0.867949 -2.3256572,5.241075 -2.3256572,5.241075 l -0.7900558,0.389464 z"
     style="fill:url(#linearGradient79);stroke-width:1"
     id="path38"
     clip-path="none" />
  <path
     d="m 4.1614054,16.877318 c 0,0 -0.4228468,0.356082 -0.6342701,0.801185 -0.2114235,0.422846 -2.2143818,5.530389 -2.3367848,5.853088 H 1.1792229 L 0.56720793,23.208892 c 0,-0.100143 2.02521347,-4.951757 2.53708057,-5.953237 0.1112754,-0.233678 0.2893161,-0.478484 0.5007395,-0.72329 z"
     style="fill:url(#linear-gradient-4);stroke-width:1"
     id="path39"
     clip-path="none" />
  <path
     d="m 10.682148,17.978946 c 0,0 -1.190648,1.502218 -1.2574134,2.436933 -0.066765,0.934714 0.2559337,7.767026 0.3004438,7.789282 l 0.7678006,0.422846 0.845694,-0.456229 c 0,0 -0.200296,-6.576379 -0.05564,-7.410945 0.144658,-0.834567 1.045989,-1.402072 1.045989,-1.402072 1.190647,-0.489611 1.780407,-0.701034 2.058596,-0.81231 1.0905,-0.411719 2.459188,-0.522995 3.304881,0.255933 0.845694,0.778929 3.694345,3.894641 3.694345,3.894641 l 0.778929,-0.422846 c 0,0 -2.459188,-3.327137 -3.004438,-3.994789 -1.390943,-1.702515 -3.471794,-1.880556 -3.471794,-1.880556"
     style="fill:url(#linear-gradient-5);stroke-width:1"
     id="path40"
     clip-path="none" />
  <path
     d="m 10.470724,28.449966 c 0.01113,0.111276 0.01113,0.166914 0.01113,0.166914 L 9.7251784,28.205161 c 0,0 -0.367209,-6.854568 -0.3004438,-7.789282 0.022255,-0.244806 0.1112755,-0.522995 0.2336785,-0.801184 h 0.8234389 c 0,0 -0.289317,0.50074 -0.278189,1.301923 0.02225,0.72329 0.233678,6.465104 0.267061,7.533348 z"
     style="fill:url(#linear-gradient-6);stroke-width:1"
     id="path41"
     clip-path="none" />
  <path
     d="m 3.1042885,17.255655 c -0.5118671,1.012607 -2.57046321,5.930983 -2.52595302,5.953237 l 0.61201502,0.333827 0.7900558,-0.389465 c 0,0 1.8026625,-4.373124 2.3256572,-5.241074 C 4.8290581,17.044232 6.742996,16.120646 6.742996,16.120646 L 5.3854354,14.885488 c 0,0 -1.7692798,1.346434 -2.2811469,2.370167 z"
     style="fill:none;stroke:#8f5902;stroke-width:0.7px;stroke-miterlimit:10"
     id="path42"
     clip-path="none" />
  <path
     d="m 19.15021,18.268262 c -1.390943,-1.702514 -3.471795,-1.880555 -3.471795,-1.880555 l -4.996267,1.591239 c 0,0 -1.190648,1.502218 -1.2574134,2.436933 -0.066765,0.934714 0.2559337,7.767026 0.3004438,7.789282 l 0.7678006,0.422846 0.845694,-0.456229 c 0,0 -0.200296,-6.576379 -0.05564,-7.410945 0.13353,-0.823439 1.045989,-1.402072 1.045989,-1.402072 1.190647,-0.489611 1.780407,-0.701034 2.058596,-0.81231 0.534123,-0.200296 1.123883,-0.322699 1.702514,-0.311572 0.189169,0.05564 0.378337,0.122403 0.556378,0.222552 0.433975,0.244805 3.950279,3.816748 3.950279,3.816748 l 0.778928,0.422846 0.778928,-0.422846 c 0,0 -2.459187,-3.327137 -3.004437,-3.994789 z"
     style="fill:none;stroke:#8f5902;stroke-width:0.7px;stroke-miterlimit:10"
     id="path43"
     clip-path="none" />
  <path
     d="m 10.459596,9.7000519 c 0,0 0.689908,-1.2907955 1.123883,-2.8152693 0.433974,-1.5244738 0.956968,-2.9042895 1.836045,-3.6275801 0.578633,-0.4673569 1.079371,-0.7121629 1.8583,-0.5563773 1.446581,0.3004438 3.093457,1.0571169 3.683217,1.7358973 0.856822,1.1127546 0.979224,2.648356 0.968097,4.0504267 -0.01113,1.4020705 -0.445102,4.2395948 -0.968097,5.4970078"
     style="fill:none;stroke:#8f5902;stroke-width:0.7px;stroke-miterlimit:10"
     id="path44"
     clip-path="none" />
  <path
     d="M 19.339378,12.470811 C 18.738491,11.035357 16.123517,9.6332869 14.387621,9.2104394 12.162112,8.66519 11.015974,8.921124 11.004846,8.921124"
     style="fill:none;stroke:#8f5902;stroke-width:0.7px;stroke-miterlimit:10"
     id="path45"
     clip-path="none" />
  <path
     d="m 2.5701662,14.251218 c 1.4243259,-0.189169 3.3939016,-0.289316 4.8627377,-1.079372 2.5370806,-1.346433 3.1936061,-2.781887 3.1936061,-2.781887 0,0 0.05564,1.235158 2.870907,2.90429 2.136489,1.26854 5.463624,0.67878 5.463624,0.67878 v 0.968097 c 0,0 -0.656525,1.435454 -3.193605,2.781886 -1.735897,0.923586 -3.249243,1.435454 -4.640186,1.891683 -0.834567,0.278189 -1.7136428,0.300444 -2.5593364,0.06677 C 7.7222201,19.447782 6.6873583,19.047191 5.4299457,18.312772 3.9833646,17.455951 3.0263956,16.688151 2.4588908,16.154028 2.2252123,15.92035 2.1695746,15.78682 2.1695746,15.530886 v -0.956969 c 0,-0.100154 0.389464,-0.333827 0.389464,-0.333827 z"
     style="fill:url(#linear-gradient-7);stroke-width:1"
     id="path46"
     clip-path="none" />
  <path
     d="m 8.5679136,18.424048 c 0.8456936,0.233679 1.7247694,0.211423 2.5593364,-0.06677 1.390943,-0.456229 2.503697,-0.801183 4.239595,-1.724769 2.53708,-1.346433 3.204732,-2.748505 3.204732,-2.748505 0,0 -2.270019,0.03339 -5.085288,-1.635749 -2.815269,-1.669131 -2.870907,-2.9042887 -2.870907,-2.9042887 0,0 -0.6565251,1.4354527 -3.1936056,2.7818867 -1.8471727,0.979224 -3.4717945,1.8583 -4.7959724,2.292274 -0.3894642,0.122402 -0.2781887,0.378336 0.022255,0.656526 0.5563773,0.534122 1.2129025,1.057116 2.770759,1.980702 1.2574127,0.734418 2.3367846,1.146137 3.137968,1.368689 z"
     style="fill:url(#linear-gradient-8);stroke-width:1"
     id="path47"
     clip-path="none" />
  <path
     d="m 18.961041,13.895137 c 0,0 -2.648355,0.02226 -5.463624,-1.646877 -2.815269,-1.669132 -2.915418,-2.7596314 -2.915418,-2.7596314 0,0 -0.6008871,1.2907944 -3.1379676,2.6483554 -1.8471726,0.979224 -3.3048812,1.379816 -4.6290591,1.802662 -0.2225509,0.06677 -0.7566732,0.244806 -0.812311,0.600888 0,0 -0.011127,0.200296 -0.011127,0.200296 v 0.778929 c 0,0.255933 0.2559335,0.422846 0.489612,0.645397 0.5675049,0.534122 1.5133462,1.301922 2.9710548,2.158744 1.2574127,0.734418 2.3367847,1.146137 3.137968,1.368688 0.8456935,0.233678 1.7247699,0.211424 2.5593349,-0.06677 1.390943,-0.456229 2.904289,-0.968095 4.640187,-1.891683 2.537081,-1.346432 3.193606,-3.749982 3.193606,-3.749982 v 0 -0.0779 z"
     style="fill:none;stroke:#8f5902;stroke-width:0.7px;stroke-miterlimit:10"
     id="path48"
     clip-path="none" />
  <path
     d="m 11.049356,18.246007 c 4.629059,-1.13501 6.120151,-2.626101 5.8976,-2.826397 -0.222551,-0.200296 -3.293754,-1.012606 -7.5889866,-0.945841 -4.2952329,0.06677 -5.908727,0.05564 -6.0867678,0.411719 -0.1780407,0.356081 3.1268406,2.748504 4.7737173,3.204733 1.6468769,0.45623 1.669132,0.478485 3.0044371,0.155786 z"
     style="fill:url(#linear-gradient-9);stroke-width:1"
     id="path49"
     clip-path="none" />
  <path
     d="m 32.603413,15.163677 c 0,1.390944 -0.300444,2.581591 -0.58976,3.994789 -0.600887,-1.435454 -3.21586,-2.837524 -4.951758,-3.260372 -2.225509,-0.545249 -3.560814,-0.344953 -3.560814,-0.344953 0.0779,-0.01113 0.322699,-0.812311 0.756672,-1.980703 0.578633,-1.568984 0.95697,-2.90429 1.836046,-3.6275804 0.578632,-0.4673572 1.079372,-0.7121629 1.8583,-0.5563775 1.446581,0.3004446 3.093458,1.0571169 3.683218,1.7358969 0.85682,1.112755 0.979224,2.648357 0.968096,4.050427 z"
     style="fill:url(#linear-gradient-10);stroke-width:1"
     id="path50"
     clip-path="none" />
  <path
     d="m 34.061122,29.362425 -0.778929,-0.422846 c 0,0 -3.516304,-3.571943 -3.950278,-3.816748 -1.079372,-0.612016 -2.303402,-0.200297 -2.303402,-0.200297 l 1.390943,-0.990351 3.060075,1.546729 2.592719,3.182479"
     style="fill:url(#linear-gradient-11);stroke-width:1"
     id="path51"
     clip-path="none" />
  <path
     d="m 13.25261,29.896547 c 0,0 2.014086,-4.94063 2.525954,-5.953237 0.511867,-1.012606 2.281147,-2.370167 2.281147,-2.370167 l 1.35756,1.235158 c 0,0 -1.913938,0.923586 -2.436933,1.791534 -0.522994,0.86795 -2.325656,5.241075 -2.325656,5.241075 l -0.790056,0.389465 z"
     style="fill:url(#linear-gradient-12);stroke-width:1"
     id="path52"
     clip-path="none" />
  <path
     d="m 16.846808,23.564974 c 0,0 -0.422846,0.356081 -0.634271,0.801183 -0.211423,0.422847 -2.21438,5.53039 -2.336784,5.853089 h -0.01113 l -0.612015,-0.322699 c 0,-0.100143 2.025214,-4.951757 2.537081,-5.953237 0.111276,-0.233678 0.289316,-0.478484 0.50074,-0.72329 z"
     style="fill:url(#linear-gradient-13);stroke-width:1"
     id="path53"
     clip-path="none" />
  <path
     d="m 23.36755,24.655473 c 0,0 -1.190647,1.502219 -1.257412,2.436934 -0.06677,0.934713 0.255933,7.767026 0.300443,7.789282 l 0.767801,0.422846 0.845693,-0.456229 c 0,0 -0.200295,-6.57638 -0.05564,-7.410946 0.144658,-0.834566 1.04599,-1.402071 1.04599,-1.402071 1.190647,-0.489612 1.780407,-0.701035 2.058595,-0.812311 1.0905,-0.411718 2.459188,-0.522994 3.304882,0.255934 0.845694,0.778928 3.694345,3.894642 3.694345,3.894642 l 0.778928,-0.422848 c 0,0 -2.459187,-3.327136 -3.004437,-3.994789 -1.390943,-1.702514 -3.471795,-1.880555 -3.471795,-1.880555"
     style="fill:url(#linear-gradient-14);stroke-width:1"
     id="path54"
     clip-path="none" />
  <path
     d="m 23.156127,35.137622 c 0.01113,0.111275 0.01113,0.166913 0.01113,0.166913 l -0.756673,-0.411719 c 0,0 -0.367209,-6.854568 -0.300443,-7.789282 0.02226,-0.244806 0.111274,-0.522995 0.233678,-0.801183 h 0.823438 c 0,0 -0.289316,0.500739 -0.278188,1.301922 0.02226,0.72329 0.233678,6.465104 0.267061,7.533349 z"
     style="fill:url(#linear-gradient-15);stroke-width:1"
     id="path55"
     clip-path="none" />
  <path
     d="m 15.789691,23.94331 c -0.511867,1.012607 -2.570463,5.930983 -2.525953,5.953237 l 0.612015,0.333828 0.790056,-0.389465 c 0,0 1.802662,-4.373125 2.325657,-5.241075 0.522994,-0.867948 2.436933,-1.791534 2.436933,-1.791534 l -1.357561,-1.235158 c 0,0 -1.76928,1.346434 -2.281147,2.370167 z"
     style="fill:none;stroke:#8f5902;stroke-width:0.7px;stroke-miterlimit:10"
     id="path56"
     clip-path="none" />
  <path
     d="m 31.835612,24.94479 c -1.390943,-1.702514 -3.471794,-1.880556 -3.471794,-1.880556 l -4.996268,1.591239 c 0,0 -1.190647,1.502219 -1.257412,2.436934 -0.06677,0.934713 0.255933,7.767026 0.300443,7.789282 l 0.767801,0.422846 0.845693,-0.456229 c 0,0 -0.200295,-6.57638 -0.05564,-7.410946 0.133531,-0.823439 1.04599,-1.402071 1.04599,-1.402071 1.190647,-0.489612 1.780407,-0.701035 2.058595,-0.812311 0.534122,-0.200295 1.123883,-0.322698 1.702515,-0.311571 0.189168,0.05564 0.378337,0.122403 0.556378,0.222551 0.433973,0.244806 3.950278,3.816748 3.950278,3.816748 l 0.778929,0.422848 0.778928,-0.422848 c 0,0 -2.459187,-3.327136 -3.004438,-3.994789 z"
     style="fill:none;stroke:#8f5902;stroke-width:0.7px;stroke-miterlimit:10"
     id="path57"
     clip-path="none" />
  <path
     d="m 23.144999,16.387707 c 0,0 0.689908,-1.290796 1.123883,-2.815269 0.433973,-1.524474 0.956968,-2.90429 1.836045,-3.6275804 0.578632,-0.4673572 1.079371,-0.7121629 1.858299,-0.5563775 1.446581,0.3004446 3.093458,1.0571169 3.683218,1.7358969 0.856822,1.112755 0.979224,2.648357 0.968097,4.050427 -0.01113,1.402071 -0.445102,4.239595 -0.968097,5.497008"
     style="fill:none;stroke:#a40000;stroke-width:0.7px;stroke-miterlimit:10"
     id="path58"
     clip-path="none" />
  <path
     d="M 32.024781,19.158466 C 31.423893,17.723012 28.80892,16.320942 27.073022,15.898094 24.847513,15.352845 23.701376,15.608779 23.690249,15.608779"
     style="fill:none;stroke:#a40000;stroke-width:0.7px;stroke-miterlimit:10"
     id="path59"
     clip-path="none" />
  <path
     d="m 15.255569,20.927745 c 1.424326,-0.189168 3.393902,-0.289315 4.862737,-1.079371 2.537081,-1.346434 3.193606,-2.781887 3.193606,-2.781887 0,0 0.05564,1.235158 2.870907,2.90429 2.136489,1.26854 5.463625,0.67878 5.463625,0.67878 v 0.968097 c 0,0 -0.656525,1.435453 -3.193605,2.781886 -1.735898,0.923587 -3.249244,1.435453 -4.640187,1.891683 -0.834566,0.278189 -1.713643,0.300444 -2.559335,0.06677 -0.845694,-0.233679 -1.880556,-0.634271 -3.137968,-1.368688 -1.446582,-0.856821 -2.403551,-1.624622 -2.971056,-2.158744 -0.233678,-0.233679 -0.289315,-0.36721 -0.289315,-0.623143 v -0.95697 c 0,-0.100143 0.389464,-0.333826 0.389464,-0.333826 z"
     style="fill:url(#linear-gradient-16);stroke-width:1"
     id="path60"
     clip-path="none" />
  <path
     d="m 21.253317,25.100575 c 0.845692,0.233679 1.724769,0.211423 2.559335,-0.06677 1.390943,-0.456229 2.503698,-0.801183 4.239594,-1.724769 2.537081,-1.346434 3.204734,-2.748504 3.204734,-2.748504 0,0 -2.270019,0.03338 -5.085288,-1.635749 -2.815269,-1.669133 -2.870907,-2.904291 -2.870907,-2.904291 0,0 -0.656525,1.435454 -3.193606,2.781887 -1.847172,0.979225 -3.471794,1.8583 -4.795972,2.292275 -0.389464,0.122403 -0.278189,0.378336 0.02226,0.656525 0.556377,0.534122 1.212903,1.057117 2.770758,1.980703 1.257414,0.734418 2.336785,1.146138 3.137968,1.368688 z"
     style="fill:url(#linear-gradient-17);stroke-width:1"
     id="path61"
     clip-path="none" />
  <path
     d="m 31.635317,20.571664 c 0,0 -2.648356,0.02226 -5.463625,-1.646876 -2.815269,-1.669133 -2.915418,-2.759632 -2.915418,-2.759632 0,0 -0.600887,1.290795 -3.137968,2.648356 -1.847172,0.979224 -3.30488,1.379815 -4.629059,1.802663 -0.222551,0.06677 -0.756673,0.244805 -0.81231,0.600887 0,0 -0.01113,0.200296 -0.01113,0.200296 v 0.778928 c 0,0.255934 0.255934,0.422846 0.489612,0.645398 0.567505,0.534122 1.513346,1.301923 2.971055,2.158744 1.257413,0.734418 2.336784,1.146137 3.137968,1.368688 0.845694,0.233678 1.724769,0.211423 2.559336,-0.06677 1.390943,-0.45623 2.904289,-0.968096 4.640186,-1.891683 2.537081,-1.346433 3.193606,-3.749983 3.193606,-3.749983 v 0 -0.07789 z"
     style="fill:none;stroke:#a40000;stroke-width:0.7px;stroke-miterlimit:10"
     id="path62"
     clip-path="none" />
  <path
     d="m 23.734759,24.933663 c 4.629059,-1.135011 6.12015,-2.626102 5.8976,-2.826398 -0.222552,-0.200296 -3.293754,-1.012606 -7.588987,-0.945841 -4.295233,0.06677 -5.908727,0.05564 -6.086767,0.411719 -0.178041,0.356082 3.126839,2.748504 4.773717,3.204733 1.646877,0.45623 1.669131,0.478486 3.004437,0.155787 z"
     style="fill:url(#linear-gradient-18);stroke-width:1"
     id="path63"
     clip-path="none" />
  <path
     d="m 45.288816,21.840204 c 0,1.390944 -0.300444,2.581591 -0.58976,3.994789 -0.600887,-1.435453 -3.215861,-2.837524 -4.951758,-3.26037 -2.22551,-0.54525 -3.560815,-0.344955 -3.560815,-0.344955 0.0779,-0.01113 0.322699,-0.81231 0.756673,-1.980703 0.578632,-1.568984 0.956969,-2.904289 1.836046,-3.627579 0.578631,-0.467358 1.079371,-0.712163 1.8583,-0.556378 1.446581,0.300444 3.093457,1.057117 3.683217,1.735898 0.856821,1.112754 0.979224,2.648355 0.968097,4.050427 z"
     style="fill:url(#linear-gradient-19);stroke-width:1"
     id="path64"
     clip-path="none" />
  <path
     d="m 46.746524,36.050081 -0.778928,-0.422847 c 0,0 -3.516304,-3.571943 -3.950279,-3.816748 C 40.937946,31.19847 39.713916,31.61019 39.713916,31.61019 l 1.390943,-0.990351 3.060075,1.546728 2.592719,3.182479"
     style="fill:url(#linear-gradient-20);stroke-width:1"
     id="path65"
     clip-path="none" />
  <path
     d="m 25.938013,36.573076 c 0,0 2.014086,-4.940631 2.525953,-5.953237 0.511868,-1.012607 2.281147,-2.370168 2.281147,-2.370168 l 1.35756,1.235157 c 0,0 -1.913937,0.923587 -2.436932,1.791536 -0.522995,0.867948 -2.325657,5.241074 -2.325657,5.241074 l -0.790055,0.389464 z"
     style="fill:url(#linear-gradient-21);stroke-width:1"
     id="path66"
     clip-path="none" />
  <path
     d="m 29.53221,30.241502 c 0,0 -0.422846,0.356081 -0.63427,0.801183 -0.211423,0.422846 -2.214381,5.530391 -2.336784,5.85309 h -0.01113 l -0.612015,-0.322699 c 0,-0.100144 2.025213,-4.951758 2.537081,-5.953237 0.111276,-0.233679 0.289316,-0.478485 0.50074,-0.723292 z"
     style="fill:url(#linear-gradient-22);stroke-width:1"
     id="path67"
     clip-path="none" />
  <path
     d="m 36.052953,31.332001 c 0,0 -1.190647,1.502219 -1.257413,2.436933 -0.06677,0.934714 0.255934,7.767028 0.300443,7.789282 l 0.767801,0.422847 0.845694,-0.45623 c 0,0 -0.200296,-6.576379 -0.05564,-7.410945 0.144658,-0.834566 1.045989,-1.402071 1.045989,-1.402071 1.190648,-0.489612 1.780408,-0.701035 2.058596,-0.812311 1.0905,-0.411719 2.459188,-0.522995 3.304882,0.255934 0.845693,0.778928 3.694345,3.894641 3.694345,3.894641 l 0.778928,-0.422847 c 0,0 -2.459187,-3.327136 -3.004438,-3.994789 -1.390943,-1.702515 -3.471794,-1.880556 -3.471794,-1.880556"
     style="fill:url(#linear-gradient-23);stroke-width:1"
     id="path68"
     clip-path="none" />
  <path
     d="m 35.84153,41.81415 c 0.01113,0.111275 0.01113,0.166913 0.01113,0.166913 l -0.756674,-0.411719 c 0,0 -0.367208,-6.854569 -0.300443,-7.789282 0.02226,-0.244807 0.111275,-0.522995 0.233678,-0.801183 h 0.823439 c 0,0 -0.289317,0.500738 -0.278188,1.301923 0.02226,0.72329 0.233678,6.465103 0.26706,7.533348 z"
     style="fill:url(#linear-gradient-24);stroke-width:1"
     id="path69"
     clip-path="none" />
  <path
     d="m 28.475094,30.619839 c -0.511868,1.012606 -2.570463,5.930981 -2.525954,5.953237 l 0.612016,0.333826 0.790056,-0.389464 c 0,0 1.802662,-4.373126 2.325656,-5.241074 0.522995,-0.867949 2.436934,-1.791536 2.436934,-1.791536 l -1.357561,-1.235157 c 0,0 -1.76928,1.346433 -2.281147,2.370168 z"
     style="fill:none;stroke:#8f5902;stroke-width:0.7px;stroke-miterlimit:10"
     id="path70"
     clip-path="none" />
  <path
     d="M 44.521015,31.632445 C 43.130072,29.92993 41.049221,29.751889 41.049221,29.751889 l -4.996268,1.59124 c 0,0 -1.190647,1.502219 -1.257413,2.436933 -0.06677,0.934713 0.255934,7.767027 0.300443,7.789282 l 0.767801,0.422846 0.845694,-0.456228 c 0,0 -0.200296,-6.576381 -0.05564,-7.410947 0.133531,-0.823438 1.045989,-1.40207 1.045989,-1.40207 1.190648,-0.489613 1.780408,-0.701036 2.058596,-0.812312 0.534122,-0.200295 1.123883,-0.322698 1.702515,-0.31157 0.189168,0.05564 0.378336,0.122402 0.556377,0.22255 0.433974,0.244807 3.950279,3.816748 3.950279,3.816748 l 0.778928,0.422848 0.778928,-0.422848 c 0,0 -2.459188,-3.327136 -3.004437,-3.994789 z"
     style="fill:none;stroke:#8f5902;stroke-width:0.7px;stroke-miterlimit:10"
     id="path71"
     clip-path="none" />
  <path
     d="m 35.830401,23.064234 c 0,0 0.689909,-1.290795 1.123883,-2.815269 0.433974,-1.524473 0.956969,-2.904289 1.836045,-3.627579 0.578633,-0.467358 1.079372,-0.712163 1.8583,-0.556378 1.446581,0.300444 3.093458,1.057117 3.683218,1.735898 0.856822,1.112754 0.979224,2.648355 0.968096,4.050427 -0.01113,1.40207 -0.445102,4.239594 -0.968096,5.497007"
     style="fill:none;stroke:#8f5902;stroke-width:0.7px;stroke-miterlimit:10"
     id="path72"
     clip-path="none" />
  <path
     d="m 44.699056,25.834993 c -0.600887,-1.435453 -3.215861,-2.837524 -4.951758,-3.26037 -2.22551,-0.54525 -3.371646,-0.289317 -3.382774,-0.289317"
     style="fill:none;stroke:#8f5902;stroke-width:0.7px;stroke-miterlimit:10"
     id="path73"
     clip-path="none" />
  <path
     d="m 27.940972,27.615401 c 1.424326,-0.189168 3.393901,-0.289317 4.862737,-1.079372 2.537081,-1.346433 3.193606,-2.781886 3.193606,-2.781886 0,0 0.05564,1.235157 2.870907,2.904289 2.136489,1.26854 5.463625,0.67878 5.463625,0.67878 v 0.968097 c 0,0 -0.656526,1.435453 -3.193605,2.781887 -1.735898,0.923586 -3.249244,1.435453 -4.640187,1.891683 -0.834566,0.278188 -1.713643,0.300443 -2.559337,0.06677 C 33.093026,32.811965 32.058164,32.411373 30.80075,31.676956 29.354169,30.820135 28.397201,30.052334 27.829696,29.518212 27.596017,29.284533 27.54038,29.151002 27.54038,28.895069 V 27.9381 c 0,-0.100144 0.389464,-0.333827 0.389464,-0.333827 z"
     style="fill:url(#linear-gradient-25);stroke-width:1"
     id="path74"
     clip-path="none" />
  <path
     d="m 33.938718,31.777103 c 0.845694,0.233679 1.724771,0.211423 2.559337,-0.06677 1.390943,-0.45623 2.503697,-0.801183 4.239594,-1.72477 2.537081,-1.346433 3.204733,-2.748504 3.204733,-2.748504 0,0 -2.270018,0.03338 -5.085287,-1.635749 -2.81527,-1.669132 -2.870907,-2.90429 -2.870907,-2.90429 0,0 -0.656526,1.435454 -3.193606,2.781887 -1.847173,0.979224 -3.471795,1.8583 -4.795972,2.292275 -0.389465,0.122403 -0.27819,0.378336 0.02226,0.656525 0.556378,0.534122 1.212903,1.057116 2.770759,1.980703 1.257413,0.734417 2.336785,1.146137 3.137968,1.368688 z"
     style="fill:url(#linear-gradient-26);stroke-width:1"
     id="path75"
     clip-path="none" />
  <path
     d="m 44.320719,27.259319 c 0,0 -2.648355,0.02226 -5.463624,-1.646876 -2.81527,-1.669133 -2.915418,-2.759632 -2.915418,-2.759632 0,0 -0.600887,1.290796 -3.137968,2.648356 -1.847172,0.979224 -3.304881,1.379815 -4.629059,1.802663 -0.222551,0.06677 -0.756673,0.244806 -0.812311,0.600887 0,0 -0.01113,0.200296 -0.01113,0.200296 v 0.778928 c 0,0.255934 0.255933,0.422846 0.489611,0.645398 0.567505,0.534122 1.513346,1.301923 2.971056,2.158744 1.257412,0.734418 2.336784,1.146137 3.137968,1.368688 0.845693,0.233678 1.724769,0.211423 2.559335,-0.06677 1.390943,-0.45623 2.904289,-0.968097 4.640187,-1.891683 2.537081,-1.346434 3.193606,-3.749984 3.193606,-3.749984 v 0 -0.0779 z"
     style="fill:none;stroke:#8f5902;stroke-width:0.7px;stroke-miterlimit:10"
     id="path76"
     clip-path="none" />
  <path
     d="m 36.420161,31.61019 c 4.62906,-1.13501 6.120151,-2.6261 5.8976,-2.826396 -0.222551,-0.200297 -3.293754,-1.012607 -7.588986,-0.945842 -4.295233,0.06677 -5.908728,0.05564 -6.086769,0.411719 -0.17804,0.356082 3.126841,2.748504 4.773719,3.204733 1.646876,0.456229 1.669131,0.478485 3.004436,0.155786 z"
     style="fill:url(#linear-gradient-27);stroke-width:1"
     id="path77"
     clip-path="none" />
</svg>
