<?xml version="1.0" encoding="UTF-8" standalone="no"?>
<svg
   id="ART"
   viewBox="0 0 48 48"
   version="1.1"
   sodipodi:docname="layoutbrushcomb.svg"
   inkscape:version="1.3-dev (fdc7329b, 2022-05-31)"
   xmlns:inkscape="http://www.inkscape.org/namespaces/inkscape"
   xmlns:sodipodi="http://sodipodi.sourceforge.net/DTD/sodipodi-0.dtd"
   xmlns:xlink="http://www.w3.org/1999/xlink"
   xmlns="http://www.w3.org/2000/svg"
   xmlns:svg="http://www.w3.org/2000/svg">
  <sodipodi:namedview
     id="namedview71"
     pagecolor="#ffffff"
     bordercolor="#666666"
     borderopacity="1.0"
     inkscape:showpageshadow="2"
     inkscape:pageopacity="0.0"
     inkscape:pagecheckerboard="0"
     inkscape:deskcolor="#d1d1d1"
     showgrid="false"
     inkscape:zoom="19.666667"
     inkscape:cx="19.754237"
     inkscape:cy="25.576271"
     inkscape:window-width="2880"
     inkscape:window-height="1557"
     inkscape:window-x="-8"
     inkscape:window-y="-8"
     inkscape:window-maximized="1"
     inkscape:current-layer="ART" />
  <defs
     id="defs29">
    <linearGradient
       inkscape:collect="always"
       id="linearGradient76">
      <stop
         style="stop-color:#000000;stop-opacity:1;"
         offset="0"
         id="stop75" />
      <stop
         style="stop-color:#000000;stop-opacity:0;"
         offset="1"
         id="stop76" />
    </linearGradient>
    <radialGradient
       id="radial-gradient"
       cx="-88.63"
       cy="238.32"
       fx="-88.63"
       fy="238.32"
       r="11.57"
       gradientTransform="translate(-20.62 -119.17) rotate(-175.44) scale(1.03 -.59) skewX(5.36)"
       gradientUnits="userSpaceOnUse">
      <stop
         offset=".54"
         stop-color="#212121"
         stop-opacity=".3"
         id="stop1" />
      <stop
         offset=".97"
         stop-color="#212121"
         stop-opacity="0"
         id="stop2" />
    </radialGradient>
    <linearGradient
       id="linear-gradient"
       x1="18.79"
       y1="39.88"
       x2="26.92"
       y2="26.73"
       gradientUnits="userSpaceOnUse"
       gradientTransform="matrix(1.0848382,0,0,1.0849081,-3.2789667,-1.3573813)">
      <stop
         offset="0"
         stop-color="#fff"
         id="stop3" />
      <stop
         offset=".35"
         stop-color="#b2cbe5"
         id="stop4" />
      <stop
         offset="1"
         stop-color="#3465a4"
         id="stop5" />
    </linearGradient>
    <linearGradient
       id="linear-gradient-2"
       x1="38.23"
       y1="33.03"
       x2="8.18"
       y2="33.03"
       gradientUnits="userSpaceOnUse"
       gradientTransform="matrix(1.0848382,0,0,1.0849081,-3.2789667,-1.3573813)">
      <stop
         offset="0"
         stop-color="#204a87"
         id="stop6" />
      <stop
         offset=".85"
         stop-color="#9edbe8"
         id="stop7" />
    </linearGradient>
    <linearGradient
       id="New_Gradient_Swatch_20"
       x1="32.73"
       y1="28.38"
       x2="34.06"
       y2="25.57"
       gradientUnits="userSpaceOnUse"
       gradientTransform="matrix(1.0848382,0,0,1.0849081,-3.2789667,-1.3573813)">
      <stop
         offset="0"
         stop-color="#608bc3"
         id="stop8" />
      <stop
         offset="1"
         stop-color="#285092"
         id="stop9" />
    </linearGradient>
    <linearGradient
       id="linear-gradient-3"
       x1="38.21"
       y1="11.12"
       x2="41.44"
       y2="15.45"
       gradientTransform="translate(-3.2 4.18) rotate(-9.25)"
       gradientUnits="userSpaceOnUse">
      <stop
         offset=".19"
         stop-color="#e9b96e"
         id="stop10" />
      <stop
         offset="1"
         stop-color="#8f5902"
         id="stop11" />
    </linearGradient>
    <linearGradient
       id="linear-gradient-4"
       x1="24.7"
       y1="21.96"
       x2="22.89"
       y2="26.69"
       gradientTransform="translate(42.08) rotate(-180) scale(1 -1)"
       gradientUnits="userSpaceOnUse">
      <stop
         offset="0"
         stop-color="#f57900"
         id="stop12" />
      <stop
         offset="1"
         stop-color="#fcaf3e"
         id="stop13" />
    </linearGradient>
    <linearGradient
       id="linear-gradient-5"
       x1="24.63"
       y1="26.21"
       x2="24.14"
       y2="21.98"
       gradientTransform="translate(42.08) rotate(-180) scale(1 -1)"
       gradientUnits="userSpaceOnUse">
      <stop
         offset="0"
         stop-color="#f57900"
         id="stop14" />
      <stop
         offset="1"
         stop-color="#fcaf3e"
         id="stop15" />
    </linearGradient>
    <linearGradient
       id="linear-gradient-6"
       x1="31.09"
       y1="24.28"
       x2="29.28"
       y2="29.01"
       xlink:href="#linear-gradient-4"
       gradientTransform="matrix(1.1949845,0,0,1.1962509,-3.6410197,-6.5975347)" />
    <linearGradient
       id="linear-gradient-7"
       x1="31.02"
       y1="28.53"
       x2="30.53"
       y2="24.29"
       xlink:href="#linear-gradient-5"
       gradientTransform="matrix(1.1949845,0,0,1.1962509,-3.6410197,-6.5975347)" />
    <linearGradient
       id="linear-gradient-8"
       x1="37.48"
       y1="26.6"
       x2="35.67"
       y2="31.33"
       xlink:href="#linear-gradient-4"
       gradientTransform="matrix(1.1949845,0,0,1.1962509,-3.6410197,-6.5975347)" />
    <linearGradient
       id="linear-gradient-9"
       x1="37.41"
       y1="30.85"
       x2="36.92"
       y2="26.61"
       xlink:href="#linear-gradient-5"
       gradientTransform="matrix(1.1949845,0,0,1.1962509,-3.6410197,-6.5975347)" />
    <linearGradient
       id="linear-gradient-10"
       x1="19.97"
       y1="25.92"
       x2="18.16"
       y2="30.65"
       gradientTransform="translate(10.3)"
       gradientUnits="userSpaceOnUse">
      <stop
         offset="0"
         stop-color="#edd400"
         id="stop16" />
      <stop
         offset="1"
         stop-color="#fce94f"
         id="stop17" />
    </linearGradient>
    <linearGradient
       id="linear-gradient-11"
       x1="19.91"
       y1="30.17"
       x2="19.41"
       y2="25.93"
       gradientTransform="translate(10.3)"
       gradientUnits="userSpaceOnUse">
      <stop
         offset="0"
         stop-color="#edd400"
         id="stop18" />
      <stop
         offset="1"
         stop-color="#fdf08a"
         id="stop19" />
    </linearGradient>
    <linearGradient
       id="linear-gradient-12"
       x1="25.42"
       y1="28.24"
       x2="23.61"
       y2="32.96"
       gradientTransform="matrix(1.2564224,0,0,1.2581535,-10.464871,-7.8185767)"
       xlink:href="#linear-gradient-10" />
    <linearGradient
       id="linear-gradient-13"
       x1="25.36"
       y1="32.49"
       x2="24.87"
       y2="28.25"
       gradientTransform="matrix(1.2564224,0,0,1.2581535,-10.464871,-7.8185767)"
       xlink:href="#linear-gradient-11" />
    <linearGradient
       id="linear-gradient-14"
       x1="30.87"
       y1="30.56"
       x2="29.06"
       y2="35.28"
       gradientTransform="matrix(1.2564224,0,0,1.2581535,-25.340912,-7.8185767)"
       xlink:href="#linear-gradient-10" />
    <linearGradient
       id="linear-gradient-15"
       x1="30.8"
       y1="34.81"
       x2="30.31"
       y2="30.57"
       gradientTransform="matrix(1.2564224,0,0,1.2581535,-25.340912,-7.8185767)"
       xlink:href="#linear-gradient-11" />
    <linearGradient
       id="linear-gradient-16"
       x1="37.91"
       y1="8.8"
       x2="39.43"
       y2="25.97"
       xlink:href="#linear-gradient-3"
       gradientTransform="matrix(1.0848382,0,0,1.0849081,-3.2789667,-1.3573813)" />
    <linearGradient
       id="linear-gradient-17"
       x1="38.37"
       y1="28.75"
       x2="40.98"
       y2="23.65"
       gradientTransform="matrix(1.0707314,-0.17439091,0.17437968,1.0708004,-6.7504488,3.1775346)"
       gradientUnits="userSpaceOnUse">
      <stop
         offset="0"
         stop-color="#babdb6"
         id="stop20" />
      <stop
         offset="1"
         stop-color="#555753"
         id="stop21" />
    </linearGradient>
    <linearGradient
       id="linear-gradient-18"
       x1="34.82"
       y1="17.06"
       x2="36.16"
       y2="24.88"
       gradientTransform="matrix(1.0707314,-0.17439091,0.17437968,1.0708004,-6.7504488,3.1775346)"
       gradientUnits="userSpaceOnUse">
      <stop
         offset="0"
         stop-color="#fff"
         id="stop22" />
      <stop
         offset="1"
         stop-color="#d3d7cf"
         id="stop23" />
    </linearGradient>
    <linearGradient
       id="linear-gradient-19"
       x1="30.48"
       y1="14.42"
       x2="35.02"
       y2="22.19"
       gradientTransform="translate(2 -5.07) rotate(6.21)"
       gradientUnits="userSpaceOnUse">
      <stop
         offset="0"
         stop-color="#fff"
         id="stop24" />
      <stop
         offset="1"
         stop-color="#babdb6"
         id="stop25" />
    </linearGradient>
    <linearGradient
       id="linear-gradient-20"
       x1="31.52"
       y1="13.81"
       x2="36.06"
       y2="21.58"
       gradientTransform="matrix(1.0707314,-0.17439091,0.17437968,1.0708004,-6.7455821,3.182598)"
       xlink:href="#linear-gradient-19" />
    <linearGradient
       id="linear-gradient-21"
       x1="32.56"
       y1="13.2"
       x2="37.1"
       y2="20.97"
       gradientTransform="matrix(1.0707314,-0.17439091,0.17437968,1.0708004,-6.7448838,3.1840321)"
       xlink:href="#linear-gradient-19" />
    <linearGradient
       id="linear-gradient-22"
       x1="38.42"
       y1="16.2"
       x2="33.26"
       y2="18.47"
       gradientTransform="translate(-3.2 4.18) rotate(-9.25)"
       gradientUnits="userSpaceOnUse">
      <stop
         offset="0"
         stop-color="#fff"
         id="stop26" />
      <stop
         offset=".75"
         stop-color="#fff"
         stop-opacity=".1"
         id="stop27" />
    </linearGradient>
    <linearGradient
       id="linear-gradient-23"
       x1="41.9"
       y1="8.29"
       x2="44.25"
       y2="10.57"
       xlink:href="#linear-gradient-22"
       gradientTransform="matrix(1.0848382,0,0,1.0849081,-3.2789667,-1.3573813)" />
    <linearGradient
       id="linear-gradient-24"
       x1="43.43"
       y1="21.13"
       x2="42.35"
       y2="15.02"
       gradientTransform="matrix(1.0707314,-0.17439091,0.17437968,1.0708004,-6.7504488,3.1775346)"
       gradientUnits="userSpaceOnUse">
      <stop
         offset="0"
         stop-color="#8f5902"
         id="stop28" />
      <stop
         offset="1"
         stop-color="#683f09"
         id="stop29" />
    </linearGradient>
    <linearGradient
       id="linear-gradient-25"
       x1="7.1"
       y1="30.93"
       x2="5.29"
       y2="35.65"
       xlink:href="#linear-gradient-4"
       gradientTransform="matrix(1.2643439,0,0,1.2662004,-6.0654749,-6.075941)" />
    <linearGradient
       id="linear-gradient-26"
       x1="7.04"
       y1="35.17"
       x2="6.54"
       y2="30.94"
       xlink:href="#linear-gradient-4"
       gradientTransform="matrix(1.2643439,0,0,1.2662004,-6.0654749,-6.075941)" />
    <linearGradient
       id="linear-gradient-27"
       x1="13.49"
       y1="33.25"
       x2="11.68"
       y2="37.97"
       xlink:href="#linear-gradient-4"
       gradientTransform="matrix(1.2643439,0,0,1.2662004,-6.0654749,-6.075941)" />
    <linearGradient
       id="linear-gradient-28"
       x1="13.43"
       y1="37.49"
       x2="12.93"
       y2="33.26"
       xlink:href="#linear-gradient-4"
       gradientTransform="matrix(1.2643439,0,0,1.2662004,-6.0654749,-6.075941)" />
    <linearGradient
       id="linear-gradient-29"
       x1="19.88"
       y1="35.57"
       x2="18.07"
       y2="40.29"
       xlink:href="#linear-gradient-4"
       gradientTransform="matrix(1.2643439,0,0,1.2662004,-6.0654749,-6.075941)" />
    <linearGradient
       id="linear-gradient-30"
       x1="19.82"
       y1="39.81"
       x2="19.33"
       y2="35.58"
       xlink:href="#linear-gradient-4"
       gradientTransform="matrix(1.2643439,0,0,1.2662004,-6.0654749,-6.075941)" />
    <linearGradient
       inkscape:collect="always"
       xlink:href="#linear-gradient-19"
       id="linearGradient71"
       gradientUnits="userSpaceOnUse"
       gradientTransform="matrix(1.0707314,-0.17439091,0.17437968,1.0708004,-6.7437815,3.1778792)"
       x1="30.48"
       y1="14.42"
       x2="35.02"
       y2="22.19" />
    <linearGradient
       inkscape:collect="always"
       xlink:href="#linear-gradient-4"
       id="linearGradient72"
       gradientUnits="userSpaceOnUse"
       gradientTransform="matrix(-1.1949845,0,0,1.1962509,46.643929,-6.5975347)"
       x1="24.7"
       y1="21.96"
       x2="22.89"
       y2="26.69" />
    <linearGradient
       inkscape:collect="always"
       xlink:href="#linear-gradient-5"
       id="linearGradient73"
       gradientUnits="userSpaceOnUse"
       gradientTransform="matrix(-1.1949845,0,0,1.1962509,46.643929,-6.5975347)"
       x1="24.63"
       y1="26.21"
       x2="24.14"
       y2="21.98" />
    <linearGradient
       inkscape:collect="always"
       xlink:href="#linear-gradient-10"
       id="linearGradient74"
       gradientUnits="userSpaceOnUse"
       gradientTransform="matrix(1.2564224,0,0,1.2581535,4.2478347,-7.8185767)"
       x1="19.97"
       y1="25.92"
       x2="18.16"
       y2="30.65" />
    <linearGradient
       inkscape:collect="always"
       xlink:href="#linear-gradient-11"
       id="linearGradient75"
       gradientUnits="userSpaceOnUse"
       gradientTransform="matrix(1.2564224,0,0,1.2581535,4.2478347,-7.8185767)"
       x1="19.91"
       y1="30.17"
       x2="19.41"
       y2="25.93" />
    <radialGradient
       inkscape:collect="always"
       xlink:href="#linearGradient76"
       id="radialGradient76"
       cx="36.25"
       cy="26.870001"
       fx="36.25"
       fy="26.870001"
       r="11.54"
       gradientTransform="matrix(1.0129871,-0.38826591,0.22103489,0.57675513,-6.6078247,26.368321)"
       gradientUnits="userSpaceOnUse" />
    <linearGradient
       inkscape:collect="always"
       xlink:href="#linear-gradient-22"
       id="linearGradient77"
       gradientUnits="userSpaceOnUse"
       gradientTransform="matrix(1.0707314,-0.17439091,0.17437968,1.0708004,-6.7504488,3.1775346)"
       x1="38.42"
       y1="16.2"
       x2="33.26"
       y2="18.47" />
    <linearGradient
       inkscape:collect="always"
       xlink:href="#linear-gradient-3"
       id="linearGradient78"
       gradientUnits="userSpaceOnUse"
       gradientTransform="matrix(1.0707314,-0.17439091,0.17437968,1.0708004,-6.7504488,3.1775346)"
       x1="38.21"
       y1="11.12"
       x2="41.44"
       y2="15.45" />
  </defs>
  <path
     id="ellipse29"
     style="fill:url(#radialGradient76);fill-opacity:1;stroke-width:1"
     d="M 47.742038,23.310504 A 7.1277876,12.519136 69.027583 0 1 38.602909,34.446847 7.1277876,12.519136 69.027583 0 1 24.362295,32.271681 7.1277876,12.519136 69.027583 0 1 33.501424,21.135339 7.1277876,12.519136 69.027583 0 1 47.742038,23.310504 Z" />
  <path
     d="m 37.923188,30.983729 c -1.692348,1.714155 -2.289009,1.985382 -5.283162,3.710386 -4.447837,2.679723 -10.566324,5.218408 -11.705405,5.652371 -0.943809,0.35802 -1.94186,0.933021 -2.939911,1.041512 -0.6726,0.07594 -1.345199,0.130189 -1.974406,0.423114 -0.80278,0.379718 -1.703196,0.650945 -2.592763,0.564152 0.542419,-0.325472 5.402494,-2.104722 5.586917,-2.300005 0.0217,-0.0217 0.05424,-0.05425 0.05424,-0.09764 0,-0.08679 -0.130181,-0.108491 -0.216968,-0.08679 -0.46648,0.07594 -6.172729,1.703305 -7.203326,2.180665 -1.030596,0.477359 -2.0394953,1.041512 -3.1894238,1.019814 l 1.7140448,-1.008965 c 0.141029,-0.08679 1.442834,-0.878776 1.290957,-0.802832 -0.216968,0.11934 -2.4842795,0.683492 -2.299857,0.520756 1.095687,-0.325473 3.243666,-1.475475 4.274263,-1.963684 0.206119,-0.09764 2.495127,-1.356135 2.310705,-1.497173 -2.126283,0.726888 -8.1905285,2.441043 -9.1126406,2.755667 -0.1952708,0.06509 -0.4339352,0.130189 -0.6075093,0 -0.043394,-0.0434 0.021697,-0.108491 0.075939,-0.141038 0.9872024,-0.520756 4.8275289,-1.616513 6.9429639,-3.081139 0.238664,-0.162737 3.428088,-1.855193 3.362998,-1.985382 -0.06509,-0.151887 -3.569117,1.06321 -3.872872,1.18255 -1.301806,0.509906 -3.1351822,0.911322 -3.9705076,1.084908 -0.1301806,-0.07594 0.021697,-0.271227 0.1627257,-0.325473 0.6617513,-0.292925 4.1223849,-1.866042 5.1963749,-2.35425 0,-0.195284 -2.180525,0.542454 -2.375796,0.575001 C 9.6089091,36.364877 7.8080777,37.666767 5.8662177,37.373842 5.3780405,37.026671 15.401945,33.771947 14.0242,33.7394 12.679001,34.227608 8.9905513,35.366762 7.5694133,35.562045 6.2893046,35.74648 9.5872123,34.32525 10.845624,33.96723 c 0.423087,-0.119339 1.052293,-0.401416 1.507925,-0.509906 0.683448,-0.162737 1.497077,-0.575002 2.104586,-0.813681 1.659803,-0.629247 4.209173,-1.399532 8.711251,-3.808028 1.605561,-0.857077 3.330453,-1.800947 4.719046,-2.994346 l 10.023905,5.131615 z"
     style="fill:url(#linear-gradient);stroke-width:1"
     id="path29" />
  <path
     d="m 37.923188,30.983729 c -1.692348,1.714155 -2.289009,1.985382 -5.283162,3.710386 -4.447837,2.679723 -10.566324,5.218408 -11.705405,5.652371 -0.943809,0.35802 -1.94186,0.933021 -2.939911,1.041512 -0.6726,0.07594 -1.345199,0.130189 -1.974406,0.423114 -0.80278,0.379718 -1.703196,0.650945 -2.592763,0.564152 0.542419,-0.325472 5.402494,-2.104722 5.586917,-2.300005 0.0217,-0.0217 0.05424,-0.05425 0.05424,-0.09764 0,-0.08679 -0.130181,-0.108491 -0.216968,-0.08679 -0.46648,0.07594 -6.172729,1.703305 -7.203326,2.180665 -1.030596,0.477359 -2.0394953,1.041512 -3.1894238,1.019814 l 1.7140448,-1.008965 c 0.141029,-0.08679 1.442834,-0.878776 1.290957,-0.802832 -0.216968,0.11934 -2.4842795,0.683492 -2.299857,0.520756 1.095687,-0.325473 3.243666,-1.475475 4.274263,-1.963684 0.206119,-0.09764 2.495127,-1.356135 2.310705,-1.497173 -2.126283,0.726888 -8.1905285,2.441043 -9.1126406,2.755667 -0.1952708,0.06509 -0.4339352,0.130189 -0.6075093,0 -0.043394,-0.0434 0.021697,-0.108491 0.075939,-0.141038 0.9872024,-0.520756 4.8275289,-1.616513 6.9429639,-3.081139 0.238664,-0.162737 3.428088,-1.855193 3.362998,-1.985382 -0.06509,-0.151887 -3.569117,1.06321 -3.872872,1.18255 -1.301806,0.509906 -3.1351822,0.911322 -3.9705076,1.084908 -0.1301806,-0.07594 0.021697,-0.271227 0.1627257,-0.325473 0.6617513,-0.292925 4.1223849,-1.866042 5.1963749,-2.35425 0,-0.195284 -2.180525,0.542454 -2.375796,0.575001 C 9.6089091,36.364877 7.8080777,37.666767 5.8662177,37.373842 5.3780405,37.026671 15.401945,33.771947 14.0242,33.7394 12.679001,34.227608 8.9905513,35.366762 7.5694133,35.562045 6.2893046,35.74648 9.5872123,34.32525 10.845624,33.96723 c 0.423087,-0.119339 1.052293,-0.401416 1.507925,-0.509906 0.683448,-0.162737 1.497077,-0.575002 2.104586,-0.813681 1.659803,-0.629247 4.209173,-1.399532 8.711251,-3.808028 1.605561,-0.857077 3.330453,-1.800947 4.719046,-2.994346 l 10.023905,5.131615 z"
     style="fill:none;stroke:url(#linear-gradient-2);stroke-width:0.5px;stroke-linecap:round;stroke-linejoin:round"
     id="path30" />
  <path
     d="m 40.505103,25.852114 c 0,0 -1.497077,3.265573 -2.722944,4.610859 -2.126283,2.332553 -2.440886,1.855193 -2.440886,1.855193 l -8.732948,-4.914634 c 0,0 0.466481,-0.22783 1.594712,-1.659909 1.128232,-1.432079 2.223919,-3.959915 2.223919,-3.959915 l 10.067298,4.079255 z"
     style="fill:none;stroke:#683f09;stroke-width:1.4px;stroke-miterlimit:10"
     id="path31" />
  <path
     d="M 44.801062,0.9860202 C 44.611063,0.85785111 44.370797,0.89528229 44.236946,0.94262388 43.438261,1.2251094 42.827559,1.8873058 42.186602,2.428948 l -0.03254,0.032547 c -0.162726,0.1193399 -0.347149,0.271227 -0.574965,0.4990577 -0.726841,0.7377375 -1.442834,1.876891 -2.00695,3.3632151 -0.564116,1.4863241 -0.922113,4.5566142 -1.486229,6.0320892 -0.238664,0.629247 -0.629206,1.225946 -1.106535,1.757551 -0.184422,0.08679 -0.357996,0.173585 -0.53157,0.227831 -0.640055,0.216982 -1.171626,0.303774 -1.551319,0.34717 -0.162726,0.01085 -0.314603,0.07594 -0.444784,0.162737 -0.19527,0.130189 -1.703196,1.236795 -1.887618,1.518871 v 0.0217 c -0.09764,0.108491 -0.184423,0.227831 -0.238664,0.379718 l -0.03255,0.08679 -1.865921,4.925482 8.732947,4.914634 c 0,0 0.40139,0.08679 0.998051,-0.390567 0.390542,-0.314623 0.6726,-0.94387 0.6726,-0.94387 l 1.865922,-4.925483 0.03255,-0.08679 C 42.891753,19.928517 42.848359,19.429459 42.609695,19.038892 42.392727,18.670023 42.099821,18.11672 41.817763,17.368133 41.23195,15.849262 41.177708,13.625201 41.741823,12.138876 42.305939,10.652552 43.987438,8.3308488 44.551554,6.8445247 45.11567,5.3582006 45.365183,3.9586692 45.354334,2.8086666 45.455962,2.050204 45.279464,1.3087312 44.801067,0.986021 Z"
     style="fill:none;stroke:#683f09;stroke-width:1.4px;stroke-miterlimit:10"
     id="path32"
     sodipodi:nodetypes="sscccsccccsccccccccccccsscs" />
  <path
     d="m 40.505103,25.852114 c 0,0 -1.497077,3.265573 -2.722944,4.610859 -2.126283,2.332553 -2.440886,1.855193 -2.440886,1.855193 l -8.732948,-4.914634 c 0,0 0.466481,-0.22783 1.594712,-1.659909 1.128232,-1.432079 2.223919,-3.959915 2.223919,-3.959915 l 10.067298,4.079255 z"
     style="fill:url(#New_Gradient_Swatch_20);stroke-width:1"
     id="path33" />
  <path
     d="m 40.494254,25.852114 c 0,0 -0.412238,0.911323 -0.998051,1.963683 -0.813629,0.857078 -1.518773,1.204248 -1.518773,1.204248 0.347148,-0.596699 0.564115,-1.301889 0.564115,-1.301889 -0.357996,0.303774 -0.93296,0.748586 -1.030596,0.759435 0.73769,-0.70519 0.726842,-1.497173 0.726842,-1.497173 -0.867871,0.954719 -1.648954,1.334437 -1.648954,1.334437 0.347148,-0.596699 0.564116,-1.30189 0.564116,-1.30189 -0.368845,0.314624 -0.976355,0.770285 -1.041445,0.759436 l -0.06509,0.03255 c 0.759386,-0.70519 0.73769,-1.508022 0.73769,-1.508022 -0.867871,0.94387 -1.648954,1.334437 -1.648954,1.334437 0.357996,-0.596699 0.574964,-1.312739 0.574964,-1.312739 -0.368845,0.325473 -0.965506,0.759436 -1.052293,0.770285 0.759386,-0.70519 0.73769,-1.508022 0.73769,-1.508022 -0.867871,0.94387 -1.648954,1.334437 -1.648954,1.334437 0.357996,-0.5967 0.574964,-1.312739 0.574964,-1.312739 -0.379693,0.325472 -0.987203,0.770285 -1.052293,0.759436 l -0.06509,0.03255 c 0.770235,-0.694341 0.73769,-1.497173 0.73769,-1.497173 -0.857023,0.94387 -1.648955,1.323588 -1.648955,1.323588 0.357997,-0.585851 0.574965,-1.30189 0.574965,-1.30189 -0.368845,0.303774 -0.94381,0.748586 -1.041445,0.759436 0.748538,-0.705191 0.726842,-1.486325 0.726842,-1.486325 -0.857023,0.94387 -1.648954,1.323588 -1.648954,1.323588 0.357996,-0.58585 0.574964,-1.301889 0.574964,-1.301889 -0.379694,0.314623 -0.987203,0.770284 -1.052293,0.759435 l -0.05424,0.03255 c 0.759387,-0.694342 0.73769,-1.497174 0.73769,-1.497174 -0.867871,0.94387 -1.659803,1.323588 -1.659803,1.323588 0.357997,-0.58585 0.574965,-1.30189 0.574965,-1.30189 -0.249513,0.206133 -0.596661,0.466511 -0.813629,0.629247 0.683448,-1.215097 1.20417,-2.408496 1.20417,-2.408496 l 10.067299,4.079255 z"
     style="fill:#2e3436;stroke-width:1"
     id="path34" />
  <path
     d="m 44.768517,0.96432204 c -0.201369,-0.10087931 -0.3363,-0.0867927 -0.531571,-0.0216982 -0.04339,0.0108491 -0.141029,0.0542454 -0.141029,0.0542454 C 43.553498,1.2138509 42.577144,2.1251737 42.186602,2.428948 l -0.27121,0.3580196 c -0.444783,0.6509449 -0.292906,1.2584934 -0.650903,2.2132126 -0.564116,1.486324 -0.922112,4.556614 -1.486228,6.0320888 -0.564116,1.486324 -1.996102,2.875007 -3.319605,3.319819 -0.640054,0.216982 -1.171625,0.303774 -1.551318,0.347171 -0.162726,0.01085 -0.314604,0.07594 -0.444784,0.162736 -0.195271,0.130189 -1.703196,1.236795 -1.887619,1.518871 l -0.282058,1.280192 -0.184422,2.809912 7.051448,6.24907 c 0,0 0.40139,0.08679 0.998051,-0.390567 0.390542,-0.314623 0.6726,-0.94387 0.6726,-0.94387 l 1.865922,-4.925482 0.03255,-0.08679 c 0.162726,-0.423114 0.119332,-0.922172 -0.119332,-1.312739 -0.216968,-0.368869 -0.509874,-0.922172 -0.791932,-1.670758 -0.585813,-1.518872 -0.640055,-3.742933 -0.07594,-5.229257 0.564116,-1.486324 2.245615,-3.8080278 2.809731,-5.2943519 0.564116,-1.4863241 0.813629,-2.8858556 0.80278,-4.0358581 0.05626,-0.7112888 -0.11994,-1.632656 -0.585812,-1.86604196 z"
     style="fill:url(#linearGradient78);stroke-width:1"
     id="path35"
     sodipodi:nodetypes="sccccccccsccccccccccsscs" />
  <path
     id="polygon35"
     style="fill:url(#linearGradient72);stroke-width:1"
     d="m 20.079423,24.600689 v -3.899778 l -4.528992,-2.38054 v 3.899779 z" />
  <path
     id="polygon36"
     style="fill:url(#linearGradient73);stroke-width:1"
     d="m 15.550431,18.320371 v 3.899779 l 4.528992,-1.519239 z" />
  <path
     id="polygon37"
     style="fill:none;stroke:#f57900;stroke-width:0.5px;stroke-miterlimit:10"
     d="m 15.550431,18.320371 v 3.899779 l 4.528992,2.380539 v -3.899778 z" />
  <path
     id="line37"
     style="fill:none;stroke:#555753;stroke-width:0.5px;stroke-linecap:round;stroke-linejoin:round"
     d="M 20.27062,27.770753 V 20.5454" />
  <path
     id="line38"
     style="fill:none;stroke:#babdb6;stroke-width:0.3px;stroke-linecap:round;stroke-linejoin:round"
     d="m 20.27062,20.605211 v -0.05982" />
  <path
     id="polygon38"
     style="fill:url(#linear-gradient-6);stroke-width:1"
     d="m 12.443472,27.375991 v -3.899778 l -4.5289917,-2.38054 v 3.899779 z" />
  <path
     id="polygon39"
     style="fill:url(#linear-gradient-7);stroke-width:1"
     d="m 7.9144803,21.095673 v 3.899779 l 4.5289917,-1.519239 z" />
  <path
     id="polygon40"
     style="fill:none;stroke:#f57900;stroke-width:0.5px;stroke-miterlimit:10"
     d="m 7.9144803,21.095673 v 3.899779 l 4.5289917,2.380539 v -3.899778 z" />
  <path
     id="line40"
     style="fill:none;stroke:#555753;stroke-width:0.5px;stroke-linecap:round;stroke-linejoin:round"
     d="M 12.634669,30.546055 V 23.3207" />
  <path
     id="line41"
     style="fill:none;stroke:#babdb6;stroke-width:0.3px;stroke-linecap:round;stroke-linejoin:round"
     d="m 12.634669,23.380512 v -0.05982" />
  <path
     id="polygon41"
     style="fill:url(#linear-gradient-8);stroke-width:1"
     d="M 4.807521,30.151294 V 26.251515 L 0.2785296,23.870976 v 3.899777 z" />
  <path
     id="polygon42"
     style="fill:url(#linear-gradient-9);stroke-width:1"
     d="m 0.2785296,23.870976 v 3.899777 L 4.807521,26.251515 Z" />
  <path
     id="polygon43"
     style="fill:none;stroke:#f57900;stroke-width:0.5px;stroke-miterlimit:10"
     d="m 0.2785296,23.870976 v 3.899777 l 4.5289914,2.380541 v -3.899779 z" />
  <path
     id="line43"
     style="fill:none;stroke:#555753;stroke-width:0.5px;stroke-linecap:round;stroke-linejoin:round"
     d="M 4.9987185,33.321357 V 26.096002" />
  <path
     id="line44"
     style="fill:none;stroke:#babdb6;stroke-width:0.3px;stroke-linecap:round;stroke-linejoin:round"
     d="m 4.9987185,26.155813 v -0.05982" />
  <path
     id="polygon45"
     style="fill:url(#linearGradient74);stroke-width:1"
     d="m 26.222662,29.976354 v -4.10158 l 4.774406,-2.503726 v 4.101581 z" />
  <path
     id="polygon46"
     style="fill:url(#linearGradient75);stroke-width:1"
     d="m 30.997068,23.371048 v 4.101581 l -4.774406,-1.597855 z" />
  <path
     id="polygon47"
     style="fill:none;stroke:#c4a000;stroke-width:0.5px;stroke-miterlimit:10"
     d="m 30.997068,23.371048 v 4.101581 l -4.774406,2.503725 v -4.10158 z" />
  <path
     id="line47"
     style="fill:none;stroke:#555753;stroke-width:0.5px;stroke-linecap:round;stroke-linejoin:round"
     d="M 26.034198,33.310459 V 25.711214" />
  <path
     id="line48"
     style="fill:none;stroke:#babdb6;stroke-width:0.3px;stroke-linecap:round;stroke-linejoin:round"
     d="M 26.034198,25.774123 V 25.71121" />
  <path
     id="polygon48"
     style="fill:url(#linear-gradient-12);stroke-width:1"
     d="m 18.370023,32.895271 v -4.101582 l 4.76184,-2.503725 v 4.101581 z" />
  <path
     id="polygon49"
     style="fill:url(#linear-gradient-13);stroke-width:1"
     d="m 23.131863,26.289964 v 4.101581 l -4.76184,-1.597856 z" />
  <path
     id="polygon50"
     style="fill:none;stroke:#c4a000;stroke-width:0.5px;stroke-miterlimit:10"
     d="m 23.131863,26.289964 v 4.101581 l -4.76184,2.503726 v -4.101582 z" />
  <path
     id="line50"
     style="fill:none;stroke:#555753;stroke-width:0.5px;stroke-linecap:round;stroke-linejoin:round"
     d="M 18.181558,36.229374 V 28.630128" />
  <path
     id="line51"
     style="fill:none;stroke:#babdb6;stroke-width:0.3px;stroke-linecap:round;stroke-linejoin:round"
     d="m 20.490914,26.363245 v -0.06937" />
  <path
     id="polygon51"
     style="fill:url(#linear-gradient-14);stroke-width:1"
     d="m 10.341484,35.814187 v -4.101581 l 4.76184,-2.516307 v 4.114161 z" />
  <path
     id="polygon52"
     style="fill:url(#linear-gradient-15);stroke-width:1"
     d="m 15.103324,29.196299 v 4.114161 l -4.76184,-1.597854 z" />
  <path
     id="polygon53"
     style="fill:none;stroke:#c4a000;stroke-width:0.5px;stroke-miterlimit:10"
     d="m 15.103324,29.196299 v 4.114161 l -4.76184,2.503727 v -4.101581 z" />
  <path
     id="line53"
     style="fill:none;stroke:#555753;stroke-width:0.5px;stroke-linecap:round;stroke-linejoin:round"
     d="M 10.15302,39.148295 V 31.549047" />
  <path
     id="line54"
     style="fill:none;stroke:#babdb6;stroke-width:0.3px;stroke-linecap:round;stroke-linejoin:round"
     d="m 11.647218,29.581726 v -0.06937" />
  <path
     d="m 43.119563,2.3204571 c 0.390541,0.2169817 0.553267,0.661794 0.564116,1.8226457 0.01085,1.1608516 -0.238665,2.5603831 -0.802781,4.0358581 -0.564116,1.475475 -2.245615,3.8080271 -2.809731,5.2943511 -0.564116,1.486325 -0.499025,3.710386 0.07594,5.229257 0.282058,0.737738 0.574964,1.291041 0.791932,1.670759 0.238664,0.401416 0.271209,0.900474 0.119332,1.312739 l -0.03254,0.08679 -1.865922,4.925483 -8.732947,-4.914634 1.865921,-4.925482 0.03255,-0.08679 c 0.162725,-0.423114 0.499025,-0.70519 0.900415,-0.748587 0.379694,-0.03255 0.911264,-0.130189 1.551319,-0.34717 1.323503,-0.444812 2.755489,-1.833495 3.319605,-3.319819 0.564116,-1.486324 0.922112,-4.556614 1.486228,-6.032089 0.564116,-1.475475 1.269261,-2.6254776 2.006951,-3.3632151 0.73769,-0.7377375 1.106535,-0.8787755 1.507925,-0.6509448 l 0.03254,0.021698 z"
     style="fill:url(#linear-gradient-16);stroke-width:1"
     id="path55" />
  <path
     d="m 42.436115,21.154462 -1.594713,4.220292 c 0,0 -0.282057,0.629247 -0.672599,0.933021 -0.60751,0.47736 -0.998051,0.390567 -0.998051,0.390567 l -0.249513,-0.227831 0.531571,-2.95095 1.551318,-1.681607 c 0,0 0.444784,-0.03255 0.932961,-0.282076 0.206119,-0.108491 0.379693,-0.260378 0.509874,-0.401416 z"
     style="fill:url(#linear-gradient-17);stroke-width:1"
     id="path56" />
  <path
     id="polygon56"
     style="fill:url(#linear-gradient-18);stroke-width:1"
     d="m 30.437804,21.783708 8.722099,4.914634 1.844225,-4.860388 -8.732947,-4.914634 z" />
  <path
     id="ellipse56"
     style="fill:#683f09;stroke-width:1"
     d="m 42.628887,5.2186333 a 0.91132066,0.78108535 79.074492 0 1 -0.59413,1.0429016 0.91132066,0.78108535 79.074492 0 1 -0.939699,-0.7466806 0.91132066,0.78108535 79.074492 0 1 0.59413,-1.0429015 0.91132066,0.78108535 79.074492 0 1 0.939699,0.7466805 z" />
  <path
     id="ellipse57"
     style="fill:url(#linearGradient71);stroke-width:1"
     d="m 33.48421,18.80759 a 0.52075349,0.4447857 74.546065 0 1 -0.289883,0.620485 0.52075349,0.4447857 74.546065 0 1 -0.567496,-0.383342 0.52075349,0.4447857 74.546065 0 1 0.289883,-0.620485 0.52075349,0.4447857 74.546065 0 1 0.567496,0.383342 z" />
  <path
     id="ellipse58"
     style="fill:url(#linear-gradient-20);stroke-width:1"
     d="m 36.49097,20.411546 a 0.52075349,0.4447857 74.546065 0 1 -0.289884,0.620484 0.52075349,0.4447857 74.546065 0 1 -0.567496,-0.383342 0.52075349,0.4447857 74.546065 0 1 0.289883,-0.620485 0.52075349,0.4447857 74.546065 0 1 0.567497,0.383343 z" />
  <path
     id="ellipse59"
     style="fill:url(#linear-gradient-21);stroke-width:1"
     d="m 39.497344,22.001757 a 0.52075349,0.4447857 74.546065 0 1 -0.289883,0.620485 0.52075349,0.4447857 74.546065 0 1 -0.567496,-0.383342 0.52075349,0.4447857 74.546065 0 1 0.289883,-0.620485 0.52075349,0.4447857 74.546065 0 1 0.567496,0.383342 z" />
  <path
     id="line59"
     style="fill:none;stroke:#eeeeec;stroke-width:0.3px;stroke-linecap:round;stroke-miterlimit:10"
     d="m 31.566035,20.883235 7.02975,3.959914" />
  <path
     d="m 33.497048,15.946903 c 0,0 1.974405,-0.11934 3.373847,-1.714155 0,0 -0.618358,0.390567 -1.442835,0.542454 -0.824477,0.151887 -1.931012,1.160852 -1.931012,1.160852 z"
     style="fill:url(#linearGradient77);stroke-width:1"
     id="path59" />
  <path
     d="m 38.8453,9.404907 c 0.151878,-1.204248 0.249513,-2.2674579 1.193322,-4.1660471 0.943809,-1.8985891 2.267312,-3.0702899 2.939912,-3.1353844 0.672599,-0.065094 0.672599,1.3235879 0.672599,1.3235879 0,0 -0.141029,-0.8462283 -1.117383,-0.4990577 -0.976354,0.3471706 -2.299857,1.9528346 -3.677601,6.4769013 z"
     style="fill:url(#linear-gradient-23);stroke-width:1"
     id="path60" />
  <path
     d="m 40.157954,16.142186 c -0.08679,-1.638211 -0.184422,-2.701421 0.900416,-4.60001 1.084838,-1.8985892 1.594712,-2.8207611 1.594712,-2.8207611 0,0 -0.824477,1.9419851 -1.301806,3.1462331 -0.477328,1.204248 -0.390541,2.419345 -0.260361,3.482555 0,0 -0.433935,-0.629246 -0.922112,0.791983 z"
     style="fill:url(#linear-gradient-24);stroke-width:1"
     id="path61" />
  <path
     id="polygon61"
     style="fill:url(#linear-gradient-25);stroke-width:1"
     d="m 41.284203,38.304382 v -4.127814 l -4.791863,-2.5324 v 4.140475 z" />
  <path
     id="polygon62"
     style="fill:url(#linear-gradient-26);stroke-width:1"
     d="m 36.49234,31.644168 v 4.140475 l 4.791863,-1.608075 z" />
  <path
     id="polygon63"
     style="fill:none;stroke:#f57900;stroke-width:0.500001px;stroke-miterlimit:10"
     d="m 36.49234,31.644168 v 4.140475 l 4.791863,2.519739 v -4.127814 z" />
  <path
     id="line63"
     style="fill:none;stroke:#555753;stroke-width:0.500001px;stroke-linecap:round;stroke-linejoin:round"
     d="M 41.473852,41.659814 V 33.999301" />
  <path
     id="line64"
     style="fill:none;stroke:#babdb6;stroke-width:0.3px;stroke-linecap:round;stroke-linejoin:round"
     d="m 41.473852,34.075271 v -0.07597" />
  <path
     id="polygon64"
     style="fill:url(#linear-gradient-27);stroke-width:1"
     d="m 33.205046,41.241966 v -4.127812 l -4.791863,-2.532401 v 4.140475 z" />
  <path
     id="polygon65"
     style="fill:url(#linear-gradient-28);stroke-width:1"
     d="m 28.413183,34.581753 v 4.140475 l 4.791863,-1.608074 z" />
  <path
     id="polygon66"
     style="fill:none;stroke:#f57900;stroke-width:0.500001px;stroke-miterlimit:10"
     d="m 28.413183,34.581753 v 4.140475 l 4.791863,2.519738 v -4.127812 z" />
  <path
     id="line66"
     style="fill:none;stroke:#555753;stroke-width:0.500001px;stroke-linecap:round;stroke-linejoin:round"
     d="M 33.394696,44.584734 V 36.936887" />
  <path
     id="line67"
     style="fill:none;stroke:#babdb6;stroke-width:0.3px;stroke-linecap:round;stroke-linejoin:round"
     d="m 33.394696,37.012856 v -0.07597" />
  <path
     id="polygon67"
     style="fill:url(#linear-gradient-29);stroke-width:1"
     d="m 25.125888,44.179551 v -4.127812 l -4.804506,-2.532401 v 4.140475 z" />
  <path
     id="polygon68"
     style="fill:url(#linear-gradient-30);stroke-width:1"
     d="m 20.321382,37.519338 v 4.140475 l 4.804506,-1.608074 z" />
  <path
     id="polygon69"
     style="fill:none;stroke:#f57900;stroke-width:0.500001px;stroke-miterlimit:10"
     d="m 20.321382,37.519338 v 4.140475 l 4.804506,2.519738 v -4.127812 z" />
  <path
     id="line69"
     style="fill:none;stroke:#555753;stroke-width:0.500001px;stroke-linecap:round;stroke-linejoin:round"
     d="M 25.31554,47.522323 V 39.874472" />
  <path
     id="line70"
     style="fill:none;stroke:#babdb6;stroke-width:0.3px;stroke-linecap:round;stroke-linejoin:round"
     d="M 25.31554,39.95044 V 39.87447" />
</svg>
