<?xml version="1.0" encoding="UTF-8" standalone="no"?>
<svg
   viewBox="0 0 48 48"
   version="1.1"
   id="svg33"
   sodipodi:docname="3-Stack Brush.svg"
   inkscape:version="1.3-dev (e30a5ffc, 2022-05-30)"
   xmlns:inkscape="http://www.inkscape.org/namespaces/inkscape"
   xmlns:sodipodi="http://sodipodi.sourceforge.net/DTD/sodipodi-0.dtd"
   xmlns:xlink="http://www.w3.org/1999/xlink"
   xmlns="http://www.w3.org/2000/svg"
   xmlns:svg="http://www.w3.org/2000/svg">
  <sodipodi:namedview
     id="namedview33"
     pagecolor="#ffffff"
     bordercolor="#000000"
     borderopacity="0.25"
     inkscape:showpageshadow="2"
     inkscape:pageopacity="0.0"
     inkscape:pagecheckerboard="0"
     inkscape:deskcolor="#d1d1d1"
     showgrid="false"
     inkscape:zoom="19.666667"
     inkscape:cx="22.855932"
     inkscape:cy="23.567797"
     inkscape:window-width="2560"
     inkscape:window-height="1378"
     inkscape:window-x="-6"
     inkscape:window-y="-6"
     inkscape:window-maximized="1"
     inkscape:current-layer="svg33" />
  <defs
     id="defs13">
    <linearGradient
       inkscape:collect="always"
       id="linearGradient37">
      <stop
         style="stop-color:#214c8c;stop-opacity:1;"
         offset="0"
         id="stop36" />
      <stop
         style="stop-color:#5187d6;stop-opacity:1;"
         offset="1"
         id="stop37" />
    </linearGradient>
    <linearGradient
       inkscape:collect="always"
       id="linearGradient35">
      <stop
         style="stop-color:#000000;stop-opacity:0.4591195;"
         offset="0"
         id="stop34" />
      <stop
         style="stop-color:#000000;stop-opacity:0;"
         offset="1"
         id="stop35" />
    </linearGradient>
    <style
       id="style1">.cls-1{isolation:isolate;}.cls-2{fill:url(#radial-gradient);}.cls-10,.cls-3{fill:none;stroke-miterlimit:10;stroke-width:1.4px;}.cls-3{stroke:#8f5902;}.cls-4{fill:#f57900;}.cls-5{fill:url(#linear-gradient);}.cls-6{fill:#fcaf3e;}.cls-7{mix-blend-mode:multiply;}.cls-8{fill:url(#linear-gradient-2);}.cls-9{fill:url(#linear-gradient-3);}.cls-10{stroke:#a40000;}.cls-11{fill:#ef2929;}.cls-12{fill:url(#linear-gradient-4);}.cls-13{fill:url(#linear-gradient-5);}.cls-14{fill:#c00;}.cls-15{opacity:0.8;}.cls-16{fill:url(#linear-gradient-6);}.cls-17{fill:#edd400;}.cls-18{fill:url(#linear-gradient-7);}.cls-19{fill:#fce94f;}.cls-20{fill:url(#linear-gradient-8);}.cls-21{fill:url(#linear-gradient-9);}</style>
    <radialGradient
       id="radial-gradient"
       cx="-185.79"
       cy="113.8"
       r="16.75"
       gradientTransform="matrix(1.38,0,0,0.44,280.2,-7.9186441)"
       gradientUnits="userSpaceOnUse">
      <stop
         offset="0.2"
         stop-color="#212121"
         stop-opacity="0.4"
         id="stop1" />
      <stop
         offset="0.38"
         stop-color="#212121"
         stop-opacity="0.24"
         id="stop2" />
      <stop
         offset="0.8"
         stop-color="#212121"
         stop-opacity="0"
         id="stop3" />
    </radialGradient>
    <linearGradient
       id="linear-gradient"
       x1="17.58"
       y1="40.72"
       x2="23.36"
       y2="34.94"
       gradientUnits="userSpaceOnUse">
      <stop
         offset="0"
         stop-color="#f57900"
         stop-opacity="0.1"
         id="stop4" />
      <stop
         offset="1"
         stop-color="#ce5c00"
         id="stop5" />
    </linearGradient>
    <linearGradient
       id="linear-gradient-2"
       x1="23.97"
       y1="38.6"
       x2="23.97"
       y2="27.23"
       gradientUnits="userSpaceOnUse">
      <stop
         offset="0"
         stop-color="#a40000"
         stop-opacity="0.1"
         id="stop6" />
      <stop
         offset="1"
         stop-color="#8f5902"
         id="stop7" />
    </linearGradient>
    <linearGradient
       id="linear-gradient-3"
       x1="35.88"
       y1="30.82"
       x2="20.79"
       y2="45.91"
       gradientUnits="userSpaceOnUse">
      <stop
         offset="0"
         stop-color="#fff"
         stop-opacity="0"
         id="stop8" />
      <stop
         offset="1"
         stop-color="snow"
         id="stop9" />
    </linearGradient>
    <linearGradient
       id="linear-gradient-4"
       x1="17.58"
       y1="28.38"
       x2="23.36"
       y2="22.6"
       gradientUnits="userSpaceOnUse">
      <stop
         offset="0"
         stop-color="#a40000"
         stop-opacity="0.1"
         id="stop10" />
      <stop
         offset="1"
         stop-color="#a40000"
         id="stop11" />
    </linearGradient>
    <linearGradient
       id="linear-gradient-5"
       x1="23.97"
       y1="23.6"
       x2="23.97"
       y2="16.96"
       xlink:href="#linear-gradient-2" />
    <linearGradient
       id="linear-gradient-6"
       x1="35.88"
       y1="18.48"
       x2="20.79"
       y2="33.57"
       xlink:href="#linear-gradient-3" />
    <linearGradient
       id="linear-gradient-7"
       x1="17.58"
       y1="16.04"
       x2="23.36"
       y2="10.26"
       gradientUnits="userSpaceOnUse">
      <stop
         offset="0"
         stop-color="#c4a000"
         stop-opacity="0.1"
         id="stop12" />
      <stop
         offset="1"
         stop-color="#c4a000"
         id="stop13" />
    </linearGradient>
    <linearGradient
       id="linear-gradient-8"
       x1="23.97"
       y1="13.95"
       x2="23.97"
       y2="2.58"
       xlink:href="#linear-gradient-3" />
    <linearGradient
       id="linear-gradient-9"
       x1="35.88"
       y1="6.14"
       x2="20.79"
       y2="21.23"
       xlink:href="#linear-gradient-3" />
    <radialGradient
       inkscape:collect="always"
       xlink:href="#linearGradient35"
       id="radialGradient35"
       cx="24"
       cy="40.480335"
       fx="24"
       fy="40.480335"
       r="15.884916"
       gradientTransform="matrix(1,0,0,0.46677032,0,21.585316)"
       gradientUnits="userSpaceOnUse" />
    <linearGradient
       inkscape:collect="always"
       xlink:href="#linearGradient37"
       id="linearGradient38"
       x1="23.948982"
       y1="28.401525"
       x2="24.041866"
       y2="36.282883"
       gradientUnits="userSpaceOnUse" />
  </defs>
  <path
     id="ellipse13"
     style="isolation:isolate;fill:url(#radialGradient35);stroke-width:0.999998"
     class="cls-2"
     d="M 39.884916,40.480335 A 15.884916,7.4146075 0 0 1 24,47.894943 15.884916,7.4146075 0 0 1 8.1150837,40.480335 15.884916,7.4146075 0 0 1 24,33.065728 15.884916,7.4146075 0 0 1 39.884916,40.480335 Z" />
  <path
     id="polygon13"
     style="isolation:isolate;fill:none;stroke:#183764;stroke-width:1.33888px;stroke-miterlimit:10"
     class="cls-3"
     transform="matrix(1.0456462,0,0,1.0456462,-0.66168963,-2.0613821)"
     d="m 15.61,31.93 v 8.86 l 0.34,0.17 0.74,-7.24 1.06,0.56 1.93,1.01 0.29,0.15 2.91,1.54 0.76,8.01 0.33,0.17 0.33,-0.17 0.75,-8.01 6.21,-3.26 0.74,7.24 0.33,-0.18 v -8.85 l -8.37,-4.37 z" />
  <path
     id="polygon14"
     style="isolation:isolate;fill:#f57900;stroke-width:0.956346"
     class="cls-4"
     transform="matrix(1.0456462,0,0,1.0456462,-0.66168963,-2.0613821)"
     d="m 23.64,44.96 0.33,0.17 v -7.62 0 l 8.36,-4.38 -8.36,-4.39 v -1.22 l -8.36,4.39 v 8.84 l 0.33,0.18 0.75,-7.23 v -0.01 l 6.19,3.25 z" />
  <path
     id="polygon15"
     style="isolation:isolate;fill:#3465a4;stroke-width:0.956346"
     class="cls-5"
     transform="matrix(1.0456462,0,0,1.0456462,-0.66168963,-2.0613821)"
     d="m 23.64,44.96 0.33,0.17 v -7.62 0 l 8.36,-4.38 -8.36,-4.39 v -1.22 l -8.36,4.39 v 8.84 l 0.33,0.18 0.75,-7.23 v -0.01 l 6.19,3.25 z" />
  <path
     id="polygon16"
     style="isolation:isolate;fill:url(#linearGradient38);stroke-width:0.956346"
     class="cls-6"
     transform="matrix(1.0456462,0,0,1.0456462,-0.66168963,-2.0613821)"
     d="m 15.61,31.91 8.36,4.39 8.36,-4.39 -8.38,-4.39 z" />
  <path
     id="polygon18"
     style="isolation:isolate;fill:#f57900;stroke-width:0.956346"
     class="cls-4"
     transform="matrix(1.0456462,0,0,1.0456462,-0.66168963,-2.0613821)"
     d="m 24.3,44.99 0.76,-8.02 6.19,-3.24 0.74,7.23 0.34,-0.17 v -8.85 l -8.36,4.38 v 8.84 z" />
  <path
     id="polygon19"
     style="isolation:isolate;fill:#729fcf;stroke-width:0.956346"
     class="cls-9"
     transform="matrix(1.0456462,0,0,1.0456462,-0.66168963,-2.0613821)"
     d="m 24.3,44.99 0.76,-8.02 6.19,-3.24 0.74,7.23 0.34,-0.17 v -8.85 l -8.36,4.38 v 8.84 z" />
  <path
     id="polygon20"
     style="isolation:isolate;fill:none;stroke:#a40000;stroke-width:1.33888px;stroke-miterlimit:10"
     class="cls-10"
     transform="matrix(1.0456462,0,0,1.0456462,-0.66168963,-2.0613821)"
     d="m 15.61,19.59 v 8.86 l 0.34,0.17 0.74,-7.24 1.06,0.56 1.93,1.01 0.29,0.15 2.91,1.54 0.76,8.01 0.33,0.17 0.33,-0.17 0.75,-8.01 6.21,-3.26 0.74,7.24 0.33,-0.18 v -8.85 l -8.37,-4.37 z" />
  <path
     id="polygon21"
     style="isolation:isolate;fill:#ef2929;stroke-width:0.956346"
     class="cls-11"
     transform="matrix(1.0456462,0,0,1.0456462,-0.66168963,-2.0613821)"
     d="m 23.64,32.62 0.33,0.17 v -7.62 0 l 8.36,-4.39 -8.36,-4.39 v -1.21 l -8.36,4.39 v 8.84 l 0.33,0.18 0.75,-7.24 6.19,3.25 z" />
  <path
     id="polygon22"
     style="isolation:isolate;fill:url(#linear-gradient-4);stroke-width:0.956346"
     class="cls-12"
     transform="matrix(1.0456462,0,0,1.0456462,-0.66168963,-2.0613821)"
     d="m 23.64,32.62 0.33,0.17 v -7.62 0 l 8.36,-4.39 -8.36,-4.39 v -1.21 l -8.36,4.39 v 8.84 l 0.33,0.18 0.75,-7.24 6.19,3.25 z" />
  <path
     id="polygon23"
     style="isolation:isolate;fill:#ef2929;stroke-width:0.956346"
     class="cls-11"
     transform="matrix(1.0456462,0,0,1.0456462,-0.66168963,-2.0613821)"
     d="m 15.61,19.59 8.36,4.39 8.36,-4.38 -8.38,-4.39 z" />
  <path
     id="polygon24"
     style="isolation:isolate;mix-blend-mode:multiply;fill:url(#linear-gradient-5);stroke-width:0.956346"
     class="cls-13"
     transform="matrix(1.0456462,0,0,1.0456462,-0.66168963,-2.0613821)"
     d="m 32.33,19.6 -8.38,-4.39 -8.34,4.38 8.36,4.39 z" />
  <path
     id="polygon25"
     style="isolation:isolate;fill:#cc0000;stroke-width:0.956346"
     class="cls-14"
     transform="matrix(1.0456462,0,0,1.0456462,-0.66168963,-2.0613821)"
     d="m 24.3,32.65 0.76,-8.02 6.19,-3.24 0.74,7.23 0.34,-0.17 V 19.6 l -8.36,4.38 v 8.84 z" />
  <path
     id="polygon26"
     style="opacity:0.8;isolation:isolate;fill:url(#linear-gradient-6);stroke-width:0.956346"
     class="cls-16"
     transform="matrix(1.0456462,0,0,1.0456462,-0.66168963,-2.0613821)"
     d="m 31.25,21.39 0.74,7.23 0.34,-0.17 V 19.6 l -8.36,4.38 v 8.84 l 0.33,-0.17 0.76,-8.02 z" />
  <path
     id="polygon27"
     style="isolation:isolate;fill:none;stroke:#8f5902;stroke-width:1.33888px;stroke-miterlimit:10"
     class="cls-3"
     transform="matrix(1.0456462,0,0,1.0456462,-0.66168963,-2.0613821)"
     d="m 15.61,7.25 v 8.85 l 0.34,0.18 0.74,-7.24 1.06,0.56 1.93,1.01 0.29,0.15 2.91,1.53 0.76,8.02 0.33,0.17 0.33,-0.17 0.75,-8.02 6.21,-3.25 0.74,7.24 0.33,-0.18 V 7.25 L 23.96,2.88 Z" />
  <path
     id="polygon28"
     style="isolation:isolate;fill:#edd400;stroke-width:0.956346"
     class="cls-17"
     transform="matrix(1.0456462,0,0,1.0456462,-0.66168963,-2.0613821)"
     d="m 23.64,20.28 0.33,0.17 v -7.62 0 L 32.33,8.44 23.97,4.05 V 2.83 l -8.36,4.39 v 8.85 l 0.33,0.18 0.75,-7.24 6.19,3.25 z" />
  <path
     id="polygon29"
     style="isolation:isolate;fill:url(#linear-gradient-7);stroke-width:0.956346"
     class="cls-18"
     transform="matrix(1.0456462,0,0,1.0456462,-0.66168963,-2.0613821)"
     d="m 23.64,20.28 0.33,0.17 v -7.62 0 L 32.33,8.44 23.97,4.05 V 2.83 l -8.36,4.39 v 8.85 l 0.33,0.18 0.75,-7.24 6.19,3.25 z" />
  <path
     id="polygon30"
     style="isolation:isolate;fill:#fce94f;stroke-width:0.956346"
     class="cls-19"
     transform="matrix(1.0456462,0,0,1.0456462,-0.66168963,-2.0613821)"
     d="m 15.61,7.25 8.36,4.39 8.36,-4.39 -8.38,-4.38 z" />
  <path
     id="polygon31"
     style="isolation:isolate;fill:url(#linear-gradient-8);stroke-width:0.956346"
     class="cls-20"
     transform="matrix(1.0456462,0,0,1.0456462,-0.66168963,-2.0613821)"
     d="m 15.61,7.25 8.36,4.39 8.36,-4.39 -8.38,-4.38 z" />
  <path
     id="polygon32"
     style="isolation:isolate;fill:#edd400;stroke-width:0.956346"
     class="cls-17"
     transform="matrix(1.0456462,0,0,1.0456462,-0.66168963,-2.0613821)"
     d="m 24.3,20.31 0.76,-8.02 6.19,-3.24 0.74,7.23 0.34,-0.18 V 7.26 l -8.36,4.37 v 8.85 z" />
  <path
     id="polygon33"
     style="isolation:isolate;fill:url(#linear-gradient-9);stroke-width:0.956346"
     class="cls-21"
     transform="matrix(1.0456462,0,0,1.0456462,-0.66168963,-2.0613821)"
     d="m 24.3,20.31 0.76,-8.02 6.19,-3.24 0.74,7.23 0.34,-0.18 V 7.26 l -8.36,4.37 v 8.85 z" />
</svg>
