<?xml version="1.0" encoding="UTF-8" standalone="no"?>
<svg
   viewBox="0 0 48 48"
   version="1.1"
   id="svg27"
   sodipodi:docname="linearsolver.svg"
   inkscape:version="1.3 (0e150ed6c4, 2023-07-21)"
   xmlns:inkscape="http://www.inkscape.org/namespaces/inkscape"
   xmlns:sodipodi="http://sodipodi.sourceforge.net/DTD/sodipodi-0.dtd"
   xmlns:xlink="http://www.w3.org/1999/xlink"
   xmlns="http://www.w3.org/2000/svg"
   xmlns:svg="http://www.w3.org/2000/svg">
  <sodipodi:namedview
     id="namedview27"
     pagecolor="#ffffff"
     bordercolor="#666666"
     borderopacity="1.0"
     inkscape:showpageshadow="2"
     inkscape:pageopacity="0.0"
     inkscape:pagecheckerboard="0"
     inkscape:deskcolor="#d1d1d1"
     showgrid="false"
     inkscape:zoom="16.292919"
     inkscape:cx="24.028844"
     inkscape:cy="23.998156"
     inkscape:window-width="2560"
     inkscape:window-height="1378"
     inkscape:window-x="-6"
     inkscape:window-y="-6"
     inkscape:window-maximized="1"
     inkscape:current-layer="svg27" />
  <defs
     id="defs8">
    <radialGradient
       id="radial-gradient"
       cx="-304.38"
       cy="115.73"
       fx="-304.38"
       fy="115.73"
       r="7.62"
       gradientTransform="translate(60.12 1086.65) rotate(95.71) scale(3.14 1.21) skewX(-13.28)"
       gradientUnits="userSpaceOnUse">
      <stop
         offset=".29"
         stop-color="#1a1718"
         stop-opacity=".5"
         id="stop1" />
      <stop
         offset=".81"
         stop-color="#1a1718"
         stop-opacity=".15"
         id="stop2" />
      <stop
         offset=".93"
         stop-color="#1a1718"
         stop-opacity="0"
         id="stop3" />
    </radialGradient>
    <radialGradient
       id="radial-gradient-2"
       cx="-304.34"
       cy="115.77"
       fx="-304.34"
       fy="115.77"
       r="6.58"
       gradientTransform="matrix(-0.26408907,3.118839,-0.94006395,-0.86861546,53.04,1086.86)"
       xlink:href="#radial-gradient" />
    <linearGradient
       id="linear-gradient"
       x1="29.84"
       y1="19.3"
       x2="12.7"
       y2="36.44"
       gradientTransform="translate(7.91 -14.73) rotate(27.76) scale(.88) skewX(27.87)"
       gradientUnits="userSpaceOnUse">
      <stop
         offset="0"
         stop-color="#66b708"
         id="stop4" />
      <stop
         offset="1"
         stop-color="#4e9a06"
         id="stop5" />
    </linearGradient>
    <linearGradient
       id="linear-gradient-2"
       x1="30.19"
       y1="19.22"
       x2="13.05"
       y2="36.36"
       xlink:href="#linear-gradient" />
    <linearGradient
       id="linear-gradient-3"
       x1="28.47"
       y1="20.67"
       x2="15.67"
       y2="33.46"
       gradientTransform="matrix(0.7787176,0.4098767,0.00191115,0.99546144,7.91,-14.73)"
       gradientUnits="userSpaceOnUse">
      <stop
         offset="0"
         stop-color="#66b708"
         id="stop6" />
      <stop
         offset=".3"
         stop-color="#4e9a06"
         id="stop7" />
      <stop
         offset="1"
         stop-color="#4e9a06"
         id="stop8" />
    </linearGradient>
    <radialGradient
       inkscape:collect="always"
       xlink:href="#radial-gradient"
       id="radialGradient27"
       gradientUnits="userSpaceOnUse"
       gradientTransform="matrix(-0.31240933,3.12442,-1.1302609,-0.85781715,60.12,1086.65)"
       cx="-304.38"
       cy="115.73"
       fx="-304.38"
       fy="115.73"
       r="7.62" />
    <linearGradient
       inkscape:collect="always"
       xlink:href="#linear-gradient"
       id="linearGradient27"
       gradientUnits="userSpaceOnUse"
       gradientTransform="matrix(0.7787176,0.4098767,0.00191115,0.99546144,7.91,-14.73)"
       x1="29.84"
       y1="19.3"
       x2="12.7"
       y2="36.44" />
  </defs>
  <g
     id="shadow"
     style="opacity:0.45;isolation:isolate;mix-blend-mode:multiply;stroke-width:1.05315"
     transform="matrix(0.90161368,0,0,1,-1.9514786,1.1661508)">
    <ellipse
       cx="24.459999"
       cy="35.700001"
       rx="8.6199999"
       ry="23.76"
       transform="rotate(-69.49,24.45763,35.701467)"
       style="opacity:0.9;fill:url(#radialGradient27);stroke-width:1.05315"
       id="ellipse8" />
    <ellipse
       cx="24.459999"
       cy="35.700001"
       rx="6.21"
       ry="20.51"
       transform="rotate(-69.62,24.464169,35.699295)"
       style="opacity:0.9;fill:url(#radial-gradient-2);stroke-width:1.05315"
       id="ellipse9" />
  </g>
  <g
     id="ART"
     style="isolation:isolate;stroke-width:0.905825"
     transform="matrix(1.1043449,0,0,1.1035871,-2.9118645,-0.45466324)">
    <path
       d="m 39.08,17.01 v 23.44 c 0,0.87 -0.31,1.49 -0.79,1.75 0,0 -2.04,1.06 -2.04,1.06 L 35.99,41.66 14.16,30.17 c -1.22,-0.64 -2.2,-2.43 -2.2,-3.99 L 10.28,2.54 10.61,2.1 c 0,0 2.18,-1.14 2.23,-1.16 0.37,-0.17 0.82,-0.14 1.32,0.12 l 22.71,11.96 c 1.22,0.64 2.21,2.43 2.21,3.99 z"
       style="fill:#c17d11;stroke-width:0.905825"
       id="path9" />
    <path
       d="m 39.08,39.58 v 0.87 c 0,0.87 -0.31,1.49 -0.79,1.75 0,0 -2.04,1.06 -2.04,1.06 l -0.26,-1.6 -0.42,-0.22 z"
       style="fill:#e09427;stroke-width:0.905825"
       id="path10" />
    <path
       d="m 39.08,39.58 v 0.87 c 0,0.87 -0.31,1.49 -0.79,1.75 0,0 -2.04,1.06 -2.04,1.06 l -0.26,-1.6 -0.42,-0.22 z"
       style="fill:#e09427;stroke-width:0.905825"
       id="path11" />
    <path
       d="m 39.08,17.01 v 1.26 l -3.25,1.71 c 0.82,-2.94 -0.37,-4.22 -3.85,-6.06 -0.04,-0.02 0.66,-0.44 0.25,-0.26 l 2.91,-1.55 1.73,0.91 c 1.22,0.64 2.21,2.43 2.21,3.99 z"
       style="fill:#e09427;stroke-width:0.905825"
       id="path12" />
    <path
       d="M 15.33,1.68 10.41,4.31 10.28,2.54 10.61,2.1 c 0,0 2.18,-1.14 2.23,-1.16 0.37,-0.17 0.82,-0.14 1.32,0.12 z"
       style="fill:#e09427;stroke-width:0.905825"
       id="path13" />
    <path
       d="M 15.33,1.68 10.41,4.31 10.28,2.54 10.61,2.1 c 0,0 2.18,-1.14 2.23,-1.16 0.37,-0.17 0.82,-0.14 1.32,0.12 z"
       style="fill:#e09427;stroke-width:0.905825"
       id="path14" />
    <path
       d="m 39.08,17.01 v 23.44 c 0,0.87 -0.31,1.49 -0.79,1.75 0,0 -2.04,1.06 -2.04,1.06 L 35.99,41.66 14.16,30.17 c -1.22,-0.64 -2.2,-2.43 -2.2,-3.99 L 10.28,2.54 10.61,2.1 c 0,0 2.18,-1.14 2.23,-1.16 0.37,-0.17 0.82,-0.14 1.32,0.12 l 22.71,11.96 c 1.22,0.64 2.21,2.43 2.21,3.99 z"
       style="fill:none;stroke:#8f5902;stroke-width:0.634078px;stroke-linecap:round;stroke-linejoin:round"
       id="path15" />
    <g
       id="g26"
       style="stroke-width:0.905825">
      <path
         d="M 34.7,14.16 11.99,2.21 C 10.77,1.57 9.78,2.32 9.78,3.88 v 23.44 c 0,1.56 0.99,3.35 2.21,3.99 L 34.7,43.27 c 1.22,0.64 2.21,-0.11 2.21,-1.67 V 18.15 c 0,-1.56 -0.99,-3.35 -2.21,-3.99 z"
         style="fill:#c17d11;stroke-width:0.905825"
         id="path16" />
      <path
         d="M 36.91,18.16 V 41.6 c 0,0.78 -0.25,1.36 -0.64,1.66 v 0 L 34.72,40.43 11.98,5.04 10.32,2.3 c 0.41,-0.37 1,-0.44 1.66,-0.09 L 34.7,14.17 c 1.22,0.64 2.21,2.43 2.21,3.99 z"
         style="fill:#ffb45a;stroke-width:0.905825"
         id="path17" />
      <path
         d="M 34.7,14.16 11.99,2.21 C 10.77,1.57 9.78,2.32 9.78,3.88 v 23.44 c 0,1.56 0.99,3.35 2.21,3.99 L 34.7,43.27 c 1.22,0.64 2.21,-0.11 2.21,-1.67 V 18.15 c 0,-1.56 -0.99,-3.35 -2.21,-3.99 z"
         style="fill:none;stroke:#8f5902;stroke-width:0.634078px;stroke-linecap:round;stroke-linejoin:round"
         id="path18" />
      <polygon
         points="35.14,16.39 35.14,41.51 11.54,29.08 11.54,3.97 "
         style="fill:#66b708;stroke-width:0.905825"
         id="polygon18" />
      <path
         d="M 35.58,17.46 V 40.9 c 0,0.32 -0.1,0.54 -0.26,0.67 -0.17,0.12 -0.38,0.13 -0.63,0 L 11.98,29.61 C 11.49,29.35 11.1,28.64 11.1,28.01 V 4.58 c 0,-0.29 0.08,-0.51 0.22,-0.63 0.16,-0.15 0.4,-0.18 0.66,-0.04 L 34.7,15.87 c 0.49,0.26 0.88,0.96 0.88,1.6 z"
         style="fill:#c17d11;stroke-width:0.905825"
         id="path19" />
      <polygon
         points="34.7,16.99 34.7,40.44 11.99,28.48 11.99,5.04 "
         style="fill:url(#linearGradient27);stroke-width:0.905825"
         id="polygon19" />
      <polygon
         points="34.97,17.06 34.97,40.51 12.26,28.55 12.26,5.1 "
         style="fill:url(#linear-gradient-2);stroke-width:0.905825"
         id="polygon20" />
      <path
         d="m 11.99,5.04 c 0,0 7.09,18.89 22.71,35.4 L 11.99,28.48 Z"
         style="fill:url(#linear-gradient-3);stroke-width:0.905825"
         id="path20" />
      <g
         style="opacity:0.87;stroke-width:0.905825"
         id="g22">
        <path
           d="m 31.34,27.98 c 0.21,-0.11 0.12,-0.6 -0.13,-0.8 -0.92,-0.83 -1.97,-1.74 -2.76,-2.85 -0.06,-0.13 -0.18,-0.07 -0.12,0.06 0.44,0.89 1,1.61 1.6,2.27 -0.47,-0.27 -0.94,-0.56 -1.42,-0.88 -1.26,-0.75 -4.07,-2.21 -5.71,-3.09 1.46,-2.53 2.98,-4.85 6.35,-3.16 0.08,0.03 0.07,-0.12 0,-0.18 -0.79,-0.55 -1.62,-0.98 -2.43,-1.09 -2,-0.15 -3.14,1.33 -4.14,3.07 -0.02,-2.27 -0.1,-4.55 -0.27,-6.82 v -0.02 c 0.31,1 0.67,2.05 1.21,2.96 0.04,0.07 0.1,0.04 0.08,-0.04 -0.31,-1 -0.55,-2.08 -0.78,-3.07 -0.09,-0.31 -0.16,-0.73 -0.32,-1.04 -0.12,-0.25 -0.44,-0.36 -0.51,-0.15 -0.32,1 -0.62,2.22 -1.13,3.01 -0.09,0.06 0.02,0.31 0.13,0.28 0.54,-0.23 0.93,-0.91 1.2,-1.59 -0.16,2.39 -0.26,4.86 -0.27,7.38 -2.43,-1.23 -5.73,-3.1 -8.03,-3.93 -0.13,-0.05 -0.12,0.2 0,0.29 1.39,0.96 2.78,1.73 4.18,2.46 0.91,0.5 2.24,1.2 3.61,1.93 -1.05,1.92 -2.19,3.67 -4.32,3.56 -0.71,0.01 -1.56,-0.42 -2.31,-0.53 0.7,0.72 1.68,1.07 2.46,1.22 2.08,0.24 3.33,-1.26 4.42,-3.05 0.02,2.55 0.1,5.12 0.27,7.7 0,0.08 0.1,0.13 0.1,0.05 0.12,-1.45 0.19,-2.93 0.23,-4.42 0.03,-1.33 0.04,-2.68 0.05,-4.05 1.45,0.76 2.87,1.5 3.83,1.99 1.35,0.78 2.7,1.23 4.04,1.92 -0.55,0.16 -1.2,0.2 -1.69,0.5 -0.07,0.03 0.01,0.22 0.08,0.18 0.7,-0.23 1.5,-0.23 2.32,-0.05 0.04,0 0.11,0 0.16,-0.03 z"
           style="fill:#eeeeec;stroke-width:0.905825"
           id="path21" />
        <polygon
           points="30.31,32.67 30.78,31.94 31.25,33.17 31.79,33.45 31.03,31.59 31.76,30.57 31.22,30.29 30.78,30.99 30.34,29.83 29.8,29.54 30.53,31.33 29.77,32.39 "
           style="fill:#eeeeec;stroke-width:0.905825"
           id="polygon21" />
        <path
           d="m 19.03,15.68 c -0.07,0.2 -0.13,0.24 -0.32,0.14 L 18.6,15.76 v 0.52 l 0.18,0.1 c 0.17,0.09 0.33,0.13 0.46,0.03 0.07,-0.05 0.12,-0.14 0.16,-0.27 l 0.99,-2.91 -0.48,-0.25 -0.52,1.74 -0.53,-2.3 -0.48,-0.25 0.78,3.14 -0.12,0.38 z"
           style="fill:#eeeeec;stroke-width:0.905825"
           id="path22" />
        <polygon
           points="29.95,21.11 31.61,21.99 31.61,21.47 30.49,20.89 31.61,19.58 31.61,19.12 30.01,18.28 30.01,18.8 31.06,19.35 29.95,20.65 "
           style="fill:#eeeeec;stroke-width:0.905825"
           id="polygon22" />
      </g>
      <path
         d="M 34.7,15.87 11.98,3.91 C 11.72,3.77 11.48,3.79 11.32,3.95 l 0.66,1.1 22.72,11.96 v 23.44 l 0.63,1.13 c 0.16,-0.13 0.26,-0.35 0.26,-0.67 V 17.46 c 0,-0.63 -0.4,-1.34 -0.88,-1.6 z"
         style="fill:#c17d11;stroke-width:0.905825"
         id="path23" />
      <path
         d="m 35.33,41.57 c -0.17,0.12 -0.38,0.13 -0.63,0 L 11.98,29.61 C 11.49,29.35 11.1,28.64 11.1,28.01 V 4.58 c 0,-0.29 0.08,-0.51 0.22,-0.63 l 0.66,1.1 V 28.48 L 34.7,40.44 Z"
         style="fill:#f2a33b;stroke-width:0.905825"
         id="path24" />
      <path
         d="M 35.58,17.46 V 40.9 c 0,0.32 -0.1,0.54 -0.26,0.67 L 34.69,40.44 V 17 L 11.98,5.04 11.32,3.94 C 11.48,3.79 11.72,3.76 11.98,3.9 L 34.7,15.86 c 0.49,0.26 0.88,0.96 0.88,1.6 z"
         style="fill:#c17d11;stroke-width:0.905825"
         id="path25" />
      <path
         d="M 12.49,5.87 34.2,17.3 V 39.62 L 12.49,28.18 V 5.87 M 11.99,5.04 V 28.48 L 34.7,40.44 V 16.99 Z"
         style="fill:#467c00;stroke-width:0.905825"
         id="path26" />
    </g>
  </g>
</svg>
