<?xml version="1.0" encoding="UTF-8" standalone="no"?>
<svg
   viewBox="0 0 48 48"
   version="1.1"
   id="svg8865"
   sodipodi:docname="motionmixer.svg"
   inkscape:version="1.1 (c68e22c387, 2021-05-23)"
   xmlns:inkscape="http://www.inkscape.org/namespaces/inkscape"
   xmlns:sodipodi="http://sodipodi.sourceforge.net/DTD/sodipodi-0.dtd"
   xmlns:xlink="http://www.w3.org/1999/xlink"
   xmlns="http://www.w3.org/2000/svg"
   xmlns:svg="http://www.w3.org/2000/svg">
  <sodipodi:namedview
     id="namedview8867"
     pagecolor="#ffffff"
     bordercolor="#666666"
     borderopacity="1.0"
     inkscape:pageshadow="2"
     inkscape:pageopacity="0.0"
     inkscape:pagecheckerboard="0"
     showgrid="false"
     inkscape:zoom="15.6875"
     inkscape:cx="24"
     inkscape:cy="24.12749"
     inkscape:window-width="2880"
     inkscape:window-height="1557"
     inkscape:window-x="-8"
     inkscape:window-y="-8"
     inkscape:window-maximized="1"
     inkscape:current-layer="svg8865" />
  <defs
     id="defs8801">
    <style
       id="style8754">.cls-1{fill:url(#radial-gradient);}.cls-2{fill:url(#linear-gradient);}.cls-3{fill:url(#linear-gradient-2);}.cls-4{fill:url(#linear-gradient-3);}.cls-5{fill:#193774;}.cls-6{fill:url(#linear-gradient-4);}.cls-7{fill:url(#linear-gradient-5);}.cls-8{fill:url(#linear-gradient-6);}.cls-9{fill:url(#linear-gradient-7);}.cls-10{fill:url(#linear-gradient-8);}.cls-11{fill:url(#linear-gradient-9);}.cls-12,.cls-14,.cls-17{fill:none;}.cls-12{stroke:#193774;}.cls-12,.cls-14{stroke-miterlimit:10;}.cls-12,.cls-17{stroke-width:0.35px;}.cls-13{fill:url(#linear-gradient-10);}.cls-14{stroke:#d0dfef;stroke-width:0.27px;}.cls-15{fill:url(#linear-gradient-11);}.cls-16{fill:url(#linear-gradient-12);}.cls-17{stroke:#608bc3;stroke-linecap:round;stroke-linejoin:round;}.cls-18{fill:#d0dfef;}.cls-19{fill:#608bc3;}</style>
    <radialGradient
       id="radial-gradient"
       cx="33.43"
       cy="-0.15"
       r="14.76"
       gradientTransform="matrix(1.46,0,0,0.42,-22.22,41.6)"
       gradientUnits="userSpaceOnUse">
      <stop
         offset="0.03"
         stop-color="#2c2c2c"
         stop-opacity="0.5"
         id="stop8756" />
      <stop
         offset="0.68"
         stop-color="#2c2c2c"
         stop-opacity="0.1"
         id="stop8758" />
      <stop
         offset="0.93"
         stop-color="#2c2c2c"
         stop-opacity="0"
         id="stop8760" />
    </radialGradient>
    <linearGradient
       id="linear-gradient"
       x1="1.84"
       y1="13.14"
       x2="21.72"
       y2="13.14"
       gradientUnits="userSpaceOnUse">
      <stop
         offset="0"
         stop-color="#8ae234"
         id="stop8763" />
      <stop
         offset="1"
         stop-color="#729fcf"
         id="stop8765"
         style="stop-color:#fce94f;stop-opacity:1" />
    </linearGradient>
    <linearGradient
       id="linear-gradient-2"
       x1="5.13"
       y1="10.32"
       x2="38.04"
       y2="10.32"
       gradientUnits="userSpaceOnUse">
      <stop
         offset="0"
         stop-color="#f57900"
         id="stop8768" />
      <stop
         offset="1"
         stop-color="#729fcf"
         id="stop8770"
         style="stop-color:#8ae234;stop-opacity:1" />
    </linearGradient>
    <linearGradient
       id="linear-gradient-3"
       x1="4.56"
       y1="23.98"
       x2="38.01"
       y2="23.98"
       gradientUnits="userSpaceOnUse">
      <stop
         offset="0"
         stop-color="#fce94f"
         stop-opacity="0"
         id="stop8773" />
      <stop
         offset="0"
         stop-color="#edd400"
         id="stop8775" />
      <stop
         offset="1"
         stop-color="#3465a4"
         id="stop8777"
         style="stop-color:#ef2929;stop-opacity:1" />
    </linearGradient>
    <linearGradient
       id="linear-gradient-4"
       x1="33.58"
       y1="31.93"
       x2="32.84"
       y2="32.15"
       gradientUnits="userSpaceOnUse">
      <stop
         offset="0"
         stop-color="#00255d"
         stop-opacity="0"
         id="stop8780" />
      <stop
         offset="1"
         stop-color="#00255d"
         id="stop8782" />
    </linearGradient>
    <linearGradient
       id="linear-gradient-5"
       x1="27.53"
       y1="37.95"
       x2="29.58"
       y2="34.86"
       xlink:href="#linear-gradient-4" />
    <linearGradient
       id="linear-gradient-6"
       x1="29.8"
       y1="28.79"
       x2="22.7"
       y2="29.91"
       gradientUnits="userSpaceOnUse">
      <stop
         offset="0"
         stop-color="#a2bede"
         id="stop8786" />
      <stop
         offset="1"
         stop-color="#285092"
         id="stop8788" />
    </linearGradient>
    <linearGradient
       id="linear-gradient-7"
       x1="31.13"
       y1="28.17"
       x2="25.19"
       y2="30.34"
       gradientUnits="userSpaceOnUse">
      <stop
         offset="0"
         stop-color="#285092"
         stop-opacity="0"
         id="stop8791" />
      <stop
         offset="1"
         stop-color="#285092"
         id="stop8793" />
    </linearGradient>
    <linearGradient
       id="linear-gradient-8"
       x1="32.01"
       y1="31.41"
       x2="28.53"
       y2="34.64"
       xlink:href="#linear-gradient-7" />
    <linearGradient
       id="linear-gradient-9"
       x1="38.85"
       y1="30.94"
       x2="37.96"
       y2="22.82"
       xlink:href="#linear-gradient-6" />
    <linearGradient
       id="linear-gradient-10"
       x1="26.65"
       y1="31.5"
       x2="22.44"
       y2="26.31"
       xlink:href="#linear-gradient-6" />
    <linearGradient
       id="linear-gradient-11"
       x1="22.18"
       y1="19.22"
       x2="29.59"
       y2="25.36"
       xlink:href="#linear-gradient-6" />
    <linearGradient
       id="linear-gradient-12"
       x1="26.04"
       y1="20.73"
       x2="27.08"
       y2="22.42"
       xlink:href="#linear-gradient-4" />
    <linearGradient
       inkscape:collect="always"
       xlink:href="#linear-gradient-4"
       id="linearGradient9648"
       gradientUnits="userSpaceOnUse"
       x1="33.58"
       y1="31.93"
       x2="32.84"
       y2="32.15" />
    <linearGradient
       inkscape:collect="always"
       xlink:href="#linear-gradient-6"
       id="linearGradient9650"
       gradientUnits="userSpaceOnUse"
       x1="29.8"
       y1="28.79"
       x2="22.7"
       y2="29.91" />
    <linearGradient
       inkscape:collect="always"
       xlink:href="#linear-gradient-7"
       id="linearGradient9652"
       gradientUnits="userSpaceOnUse"
       x1="31.13"
       y1="28.17"
       x2="25.19"
       y2="30.34" />
  </defs>
  <title
     id="title8803">8-Motion_Mixer</title>
  <g
     id="shadow"
     transform="matrix(1.0374971,0,0,1.0374971,-1.7691118,-1.3345208)"
     style="stroke-width:0.963858">
    <path
       id="ellipse8805"
       class="cls-1"
       style="fill:url(#radial-gradient);stroke-width:0.963858"
       d="m 47.18,41.540001 a 20.68,5.9499998 0 0 1 -20.68,5.95 20.68,5.9499998 0 0 1 -20.6800003,-5.95 20.68,5.9499998 0 0 1 20.6800003,-5.95 20.68,5.9499998 0 0 1 20.68,5.95 z" />
  </g>
  <path
     class="cls-2"
     d="M 20.73,0.38 A 17.05,17.05 0 0 0 13.89,1.57 12.61,12.61 0 0 0 11.58,2.82 L 11.33,3 11.09,3.18 10.64,3.55 C 10.09,4 9.55,4.49 9,5 A 25,25 0 0 0 2.33,17.17 23.07,23.07 0 0 0 1.84,21.9 23.9,23.9 0 0 0 2.19,25.9 23.42,23.42 0 0 1 9,7.14 19.41,19.41 0 0 1 16.9,1.92 C 18.93,1.18 23.8,0.5 20.73,0.38 Z"
     id="path8808"
     style="fill:url(#linear-gradient)" />
  <path
     class="cls-3"
     d="M 38,4.27 A 23.82,23.82 0 0 0 10.87,8.89 23.24,23.24 0 0 0 5.13,18.73 C 5.13,18.73 9.74,7.2 21,4.28 31.28,1.58 38,4.27 38,4.27 Z"
     id="path8810"
     style="fill:url(#linear-gradient-2)" />
  <path
     class="cls-4"
     d="m 38,15.66 a 1.38,1.38 0 0 1 -0.23,0.82 1.35,1.35 0 0 1 -1.14,0.5 3.91,3.91 0 0 1 -1.25,-0.28 c 0.79,0.27 0.74,2.81 -0.26,2.9 a 7.1,7.1 0 0 1 -0.92,0 2.43,2.43 0 0 1 -1.63,-0.8 c 0,0 0,0 0,0 A 16.09,16.09 0 0 0 10.25,41.92 21.36,21.36 0 0 1 34.92,8 h 0.07 a 3.4,3.4 0 0 1 1.11,0.84 1.48,1.48 0 0 1 0.31,1.39 c -0.24,0.71 -0.76,0.64 -1.3,0.38 C 30,7.29 23.19,9.25 23.19,9.25 a 16.31,16.31 0 0 1 11,2.25 5,5 0 0 1 0.45,0.29 l 0.43,0.3 v 0 a 15.49,15.49 0 0 1 1.54,1.3 3.69,3.69 0 0 1 1.39,2.27 z"
     id="path8812"
     style="fill:url(#linear-gradient-3)" />
  <g
     id="g9745"
     transform="matrix(1.0261437,0,0,1.0261232,-1.1818263,-0.66090982)"
     style="stroke-width:0.974532">
    <path
       class="cls-5"
       d="m 33.22,33.53 a 0.22,0.22 0 0 0 0.3,-0.08 0.47,0.47 0 0 0 0,-0.33 1.51,1.51 0 0 0 -0.52,-0.9 0.61,0.61 0 0 1 -0.17,-0.15 0.2,0.2 0 0 1 0,-0.22 c 0.07,-0.06 0.18,0 0.27,0 a 0.54,0.54 0 0 0 0.45,0 0.39,0.39 0 0 0 0.15,-0.38 0.74,0.74 0 0 0 -0.22,-0.37 1.28,1.28 0 0 0 -0.94,-0.43 0.88,0.88 0 0 0 -0.8,0.6 1.48,1.48 0 0 0 0.44,1.19"
       id="path8814"
       style="stroke-width:0.974532" />
    <path
       class="cls-6"
       d="m 33.22,33.53 a 0.22,0.22 0 0 0 0.3,-0.08 0.47,0.47 0 0 0 0,-0.33 1.51,1.51 0 0 0 -0.52,-0.9 0.61,0.61 0 0 1 -0.17,-0.15 0.2,0.2 0 0 1 0,-0.22 c 0.07,-0.06 0.18,0 0.27,0 a 0.54,0.54 0 0 0 0.45,0 0.39,0.39 0 0 0 0.15,-0.38 0.74,0.74 0 0 0 -0.22,-0.37 1.28,1.28 0 0 0 -0.94,-0.43 0.88,0.88 0 0 0 -0.8,0.6 1.48,1.48 0 0 0 0.44,1.19"
       id="path8816"
       style="fill:url(#linearGradient9648);stroke-width:0.974532" />
    <path
       class="cls-5"
       d="m 31.16,35.73 a 0.42,0.42 0 0 0 -0.55,0.14 0.91,0.91 0 0 0 -0.11,0.61 c 0,0.21 0.09,0.42 0.1,0.63 a 0.72,0.72 0 0 1 -0.2,0.58 c -0.22,0.18 -0.56,0.14 -0.78,0.33 a 0.8,0.8 0 0 0 -0.19,0.72 2.91,2.91 0 0 1 0.1,0.77 c 0,0.26 -0.23,0.53 -0.49,0.51 a 0.45,0.45 0 0 0 0.19,-0.51 c 0,-0.19 -0.14,-0.36 -0.2,-0.55 a 1.05,1.05 0 0 1 0.35,-1.09 0.44,0.44 0 0 0 -0.58,0.1 1.73,1.73 0 0 0 -0.3,0.57 1.23,1.23 0 0 1 -0.92,0.88 1.48,1.48 0 0 1 -1.09,-0.64 1,1 0 0 0 1.4,-1.28 c 0,0.4 -0.51,0.67 -0.48,1.07 a 2.37,2.37 0 0 1 -0.2,-1.5 1.69,1.69 0 0 1 0.91,-1.17 1.26,1.26 0 0 0 -1.25,1 0.86,0.86 0 0 1 0,-0.65 2.08,2.08 0 0 1 0.38,-0.55 c -0.2,-0.15 -0.84,-0.57 -0.52,-0.87 a 0.63,0.63 0 0 1 0.3,-0.13 c 0.3,-0.07 0.9,-0.37 0.61,-0.78 0,-0.06 -0.11,-0.11 -0.15,-0.17 a 0.43,0.43 0 0 1 0,-0.56 c 0.17,-0.17 0.44,-0.16 0.67,-0.21 a 2.23,2.23 0 0 0 1.06,-0.74 c 0.32,-0.31 0.61,-0.64 0.9,-1 a 0.28,0.28 0 0 1 0.09,-0.07 c 0.1,0 0.2,0.06 0.25,0.15 a 7.74,7.74 0 0 1 0.9,2.25"
       id="path8818"
       style="stroke-width:0.974532" />
    <path
       class="cls-7"
       d="m 31.16,35.73 a 0.42,0.42 0 0 0 -0.55,0.14 0.91,0.91 0 0 0 -0.11,0.61 c 0,0.21 0.09,0.42 0.1,0.63 a 0.72,0.72 0 0 1 -0.2,0.58 c -0.22,0.18 -0.56,0.14 -0.78,0.33 a 0.8,0.8 0 0 0 -0.19,0.72 2.91,2.91 0 0 1 0.1,0.77 c 0,0.26 -0.23,0.53 -0.49,0.51 a 0.45,0.45 0 0 0 0.19,-0.51 c 0,-0.19 -0.14,-0.36 -0.2,-0.55 a 1.05,1.05 0 0 1 0.35,-1.09 0.44,0.44 0 0 0 -0.58,0.1 1.73,1.73 0 0 0 -0.3,0.57 1.23,1.23 0 0 1 -0.92,0.88 1.48,1.48 0 0 1 -1.09,-0.64 1,1 0 0 0 1.4,-1.28 c 0,0.4 -0.51,0.67 -0.48,1.07 a 2.37,2.37 0 0 1 -0.2,-1.5 1.69,1.69 0 0 1 0.91,-1.17 1.26,1.26 0 0 0 -1.25,1 0.86,0.86 0 0 1 0,-0.65 2.08,2.08 0 0 1 0.38,-0.55 c -0.2,-0.15 -0.84,-0.57 -0.52,-0.87 a 0.63,0.63 0 0 1 0.3,-0.13 c 0.3,-0.07 0.9,-0.37 0.61,-0.78 0,-0.06 -0.11,-0.11 -0.15,-0.17 a 0.43,0.43 0 0 1 0,-0.56 c 0.17,-0.17 0.44,-0.16 0.67,-0.21 a 2.23,2.23 0 0 0 1.06,-0.74 c 0.32,-0.31 0.61,-0.64 0.9,-1 a 0.28,0.28 0 0 1 0.09,-0.07 c 0.1,0 0.2,0.06 0.25,0.15 a 7.74,7.74 0 0 1 0.9,2.25"
       id="path8820"
       style="fill:url(#linear-gradient-5);stroke-width:0.974532" />
    <path
       class="cls-8"
       d="m 21.83,26.26 a 10.76,10.76 0 0 1 1.29,1.67 6.51,6.51 0 0 0 1.16,1.37 4.44,4.44 0 0 1 0.82,1.41 3.05,3.05 0 0 0 0.64,1.29 2.19,2.19 0 0 0 1.9,0.41 4.4,4.4 0 0 1 1,-0.08 1.17,1.17 0 0 1 0.84,0.43 4.26,4.26 0 0 1 0.32,1 0.24,0.24 0 0 0 -0.3,0.12 0.63,0.63 0 0 0 0.17,0.69 0.6,0.6 0 0 0 0.42,0.12 2.94,2.94 0 0 0 0.71,0.95 1.77,1.77 0 0 0 1.27,0.14 A 1.34,1.34 0 0 0 33,35 a 2.74,2.74 0 0 0 0.26,-0.94 0.38,0.38 0 0 0 0.27,-0.5 C 33.46,33.3 33.12,33.28 32.97,33 c -0.15,-0.28 -0.7,-0.86 -0.9,-1.14 a 0.9,0.9 0 0 1 -0.14,-0.62 c 0.1,-0.1 0.45,-0.07 0.45,-0.07 a 4.54,4.54 0 0 0 2.31,-0.7 11.6,11.6 0 0 1 1.89,-0.47 6.43,6.43 0 0 1 2.05,-0.47 6.68,6.68 0 0 0 1.26,-0.16 c 0.42,-0.05 2.07,-0.27 2.43,-0.29 a 1.37,1.37 0 0 1 0.57,0 c 0.26,0.09 0.47,0.28 0.76,0.24 0.12,0 0.21,-0.1 0.33,-0.1 a 1.13,1.13 0 0 0 0.26,0 1.11,1.11 0 0 0 0.25,0 c 0,0 0,0 0,-0.06 a 0.3,0.3 0 0 0 -0.3,-0.14 h -0.07 a 0.54,0.54 0 0 1 -0.31,-0.06 c 0,0 -0.14,-0.07 -0.11,-0.09 A 1,1 0 0 1 44,28.6 1.92,1.92 0 0 0 45.14,27.67 c 0,-0.1 0.07,-0.23 0,-0.3 a 0.28,0.28 0 0 0 -0.22,-0.06 2,2 0 0 0 -0.49,0 2.09,2.09 0 0 0 -0.47,0.22 3.46,3.46 0 0 1 -1.22,0.7 3.31,3.31 0 0 1 -0.54,0.06 c -0.92,0 -2.14,-0.18 -2.94,-0.13 -0.37,0 -0.61,0.16 -1,0.16 -0.89,0 -3.1,0.54 -3.89,0.41 a 5.86,5.86 0 0 1 -1.64,-0.6 c 0,0 -0.47,-0.72 -1,-1.49 a 33.71,33.71 0 0 1 -2,-2.77 3.31,3.31 0 0 1 -0.3,-1.55 L 26.17,22 24.89,25.27 a 7.24,7.24 0 0 0 1.32,1 3,3 0 0 1 0.11,1.57 3.91,3.91 0 0 0 0.22,2.16 c 0.07,0.18 0.1,0.3 -0.08,0.11 -0.18,-0.19 -0.33,-0.32 -0.53,-0.49 a 4.07,4.07 0 0 1 -1,-1.21 4.59,4.59 0 0 0 -1.11,-1.41 14.19,14.19 0 0 1 -1,-1"
       id="path8822"
       style="fill:url(#linearGradient9650);stroke-width:0.974532" />
    <path
       class="cls-9"
       d="m 21.83,26.26 a 10.76,10.76 0 0 1 1.29,1.67 6.51,6.51 0 0 0 1.16,1.37 4.44,4.44 0 0 1 0.82,1.41 3.05,3.05 0 0 0 0.64,1.29 2.19,2.19 0 0 0 1.9,0.41 4.4,4.4 0 0 1 1,-0.08 1.17,1.17 0 0 1 0.84,0.43 4.26,4.26 0 0 1 0.32,1 0.24,0.24 0 0 0 -0.3,0.12 0.63,0.63 0 0 0 0.17,0.69 0.6,0.6 0 0 0 0.42,0.12 2.94,2.94 0 0 0 0.71,0.95 1.77,1.77 0 0 0 1.27,0.14 A 1.34,1.34 0 0 0 33,35 a 2.74,2.74 0 0 0 0.26,-0.94 0.38,0.38 0 0 0 0.27,-0.5 C 33.46,33.3 33.12,33.28 32.97,33 c -0.15,-0.28 -0.7,-0.86 -0.9,-1.14 a 0.9,0.9 0 0 1 -0.14,-0.62 c 0.1,-0.1 0.45,-0.07 0.45,-0.07 a 4.54,4.54 0 0 0 2.31,-0.7 11.6,11.6 0 0 1 1.89,-0.47 6.43,6.43 0 0 1 2.05,-0.47 6.68,6.68 0 0 0 1.26,-0.16 c 0.42,-0.05 2.07,-0.27 2.43,-0.29 a 1.37,1.37 0 0 1 0.57,0 c 0.26,0.09 0.47,0.28 0.76,0.24 0.12,0 0.21,-0.1 0.33,-0.1 a 1.13,1.13 0 0 0 0.26,0 1.11,1.11 0 0 0 0.25,0 c 0,0 0,0 0,-0.06 a 0.3,0.3 0 0 0 -0.3,-0.14 h -0.07 a 0.54,0.54 0 0 1 -0.31,-0.06 c 0,0 -0.14,-0.07 -0.11,-0.09 A 1,1 0 0 1 44,28.6 1.92,1.92 0 0 0 45.14,27.67 c 0,-0.1 0.07,-0.23 0,-0.3 a 0.28,0.28 0 0 0 -0.22,-0.06 2,2 0 0 0 -0.49,0 2.09,2.09 0 0 0 -0.47,0.22 3.46,3.46 0 0 1 -1.22,0.7 3.31,3.31 0 0 1 -0.54,0.06 c -0.92,0 -2.14,-0.18 -2.94,-0.13 -0.37,0 -0.61,0.16 -1,0.16 -0.89,0 -3.1,0.54 -3.89,0.41 a 5.86,5.86 0 0 1 -1.64,-0.6 c 0,0 -0.47,-0.72 -1,-1.49 a 33.71,33.71 0 0 1 -2,-2.77 3.31,3.31 0 0 1 -0.3,-1.55 L 26.17,22 24.89,25.27 a 7.24,7.24 0 0 0 1.32,1 3,3 0 0 1 0.11,1.57 3.91,3.91 0 0 0 0.22,2.16 c 0.07,0.18 0.1,0.3 -0.08,0.11 -0.18,-0.19 -0.33,-0.32 -0.53,-0.49 a 4.07,4.07 0 0 1 -1,-1.21 4.59,4.59 0 0 0 -1.11,-1.41 14.19,14.19 0 0 1 -1,-1"
       id="path8824"
       style="fill:url(#linearGradient9652);stroke-width:0.974532" />
    <path
       class="cls-10"
       d="m 31.22,34.37 a 1.12,1.12 0 0 0 -0.45,0.71 c -0.08,0.31 0.35,0.69 0.37,0.72 a 1.1,1.1 0 0 1 -0.33,-0.14 3,3 0 0 1 -0.71,-0.95 0.63,0.63 0 0 1 -0.42,-0.11 0.67,0.67 0 0 1 -0.17,-0.7 0.26,0.26 0 0 1 0.31,-0.12 4.63,4.63 0 0 0 -0.33,-1 1.15,1.15 0 0 0 -0.84,-0.42 4,4 0 0 0 -0.47,0 c -0.16,-0.29 -0.3,-0.58 -0.33,-0.65 a 1.43,1.43 0 0 0 1.32,0.13 c 0.29,-0.12 0.73,-0.56 1.09,-0.4 0.36,0.16 0.83,0.23 0.69,0.34 a 1,1 0 0 0 -0.05,1.41 3.79,3.79 0 0 0 0.39,0.31 0.8,0.8 0 0 1 0.31,0.37 c 0.1,0.3 -0.16,0.38 -0.38,0.5 z"
       id="path8826"
       style="fill:url(#linear-gradient-8);stroke-width:0.974532" />
    <path
       class="cls-11"
       d="M 45.14,27.67 A 1.81,1.81 0 0 1 44,28.59 c 0,0 -0.23,0.17 -0.29,0.23 -0.06,0.06 0.08,0.06 0.12,0.1 a 0.81,0.81 0 0 0 0.31,0.06 h 0.07 a 0.32,0.32 0 0 1 0.3,0.14 c 0,0 0,0 0,0.06 l -0.25,0.06 H 44 c -0.12,0 -0.21,0.08 -0.34,0.09 -0.13,0.01 -0.5,-0.15 -0.74,-0.24 a 1.42,1.42 0 0 0 -0.58,0 c -0.36,0 -2,0.24 -2.42,0.29 a 6.9,6.9 0 0 1 -1.27,0.16 6.72,6.72 0 0 0 -2.06,0.46 12.74,12.74 0 0 0 -1.9,0.49 4.55,4.55 0 0 1 -2.32,0.69 H 32.18 A 4.24,4.24 0 0 0 32.12,30.69 5.47,5.47 0 0 1 32,29.51 v 0 a 1.87,1.87 0 0 1 0.72,-1.32 6,6 0 0 0 1.64,0.6 c 0.79,0.12 3,-0.4 3.89,-0.4 0.36,0 0.61,-0.15 1,-0.17 0.79,-0.05 2,0.17 2.94,0.13 a 2.42,2.42 0 0 0 0.54,-0.06 3.37,3.37 0 0 0 1.22,-0.7 2.09,2.09 0 0 1 0.47,-0.22 1.63,1.63 0 0 1 0.49,-0.05 0.32,0.32 0 0 1 0.22,0.06 0.27,0.27 0 0 1 0.01,0.29 z"
       id="path8828"
       style="fill:url(#linear-gradient-9);stroke-width:0.974532" />
    <path
       class="cls-12"
       d="M 32.75,28.17 A 1.87,1.87 0 0 0 32,29.49 v 0 a 5.47,5.47 0 0 0 0.07,1.15 4.24,4.24 0 0 1 0.06,0.49"
       id="path8830" />
    <path
       class="cls-13"
       d="M 28.18,32.34 A 5,5 0 0 0 27.64,32.41 2.13,2.13 0 0 1 25.74,32 3.07,3.07 0 0 1 25.1,30.72 4.22,4.22 0 0 0 24.27,29.3 6.8,6.8 0 0 1 23.12,27.93 10.76,10.76 0 0 0 21.83,26.26 l 1,-0.32 c 0,0 0.47,0.49 1,1 a 4.45,4.45 0 0 1 1.11,1.46 3.71,3.71 0 0 0 1,1.21 c 0.19,0.16 0.38,0.35 0.53,0.5 0.15,0.15 0.14,0.06 0.07,-0.12 a 4,4 0 0 1 -0.15,-0.45 6.28,6.28 0 0 0 0.8,1.25 c 0.14,0.23 0.32,0.49 0.5,0.79 a 5.84,5.84 0 0 0 0.49,0.76 z"
       id="path8832"
       style="fill:url(#linear-gradient-10);stroke-width:0.974532" />
    <path
       class="cls-5"
       d="M 32.75,28.17 A 1.87,1.87 0 0 0 32,29.49 c -0.07,0 -0.47,-0.11 -1.24,-0.24 a 2.36,2.36 0 0 0 -2.26,0.33 c -0.73,0.6 -1,1 -1.34,1.22 a 6.28,6.28 0 0 1 -0.8,-1.25 v 0 a 3.64,3.64 0 0 1 -0.07,-1.66 1.43,1.43 0 0 0 0,-0.22 3.74,3.74 0 0 0 2.57,-0.38 7.86,7.86 0 0 0 2.24,-1.34 c 0.22,0.27 0.43,0.53 0.57,0.74 0.61,0.77 1.08,1.48 1.08,1.48 z"
       id="path8834"
       style="stroke-width:0.974532" />
    <path
       class="cls-12"
       d="m 26.56,29.9 c 0.15,0.25 0.37,0.54 0.63,0.9 0.26,0.36 0.32,0.49 0.5,0.79 a 5.84,5.84 0 0 0 0.49,0.75"
       id="path8836" />
    <path
       class="cls-14"
       d="m 21.83,26.26 a 10.76,10.76 0 0 1 1.29,1.67 6.51,6.51 0 0 0 1.16,1.37 4.44,4.44 0 0 1 0.82,1.41 3.05,3.05 0 0 0 0.64,1.29 2.19,2.19 0 0 0 1.9,0.41 4.4,4.4 0 0 1 1,-0.08 1.17,1.17 0 0 1 0.84,0.43 4.26,4.26 0 0 1 0.32,1 0.24,0.24 0 0 0 -0.3,0.12 0.63,0.63 0 0 0 0.17,0.69 0.6,0.6 0 0 0 0.42,0.12 2.94,2.94 0 0 0 0.71,0.95 1.77,1.77 0 0 0 1.27,0.14 A 1.34,1.34 0 0 0 33,35 a 2.74,2.74 0 0 0 0.26,-0.94 0.38,0.38 0 0 0 0.27,-0.5 C 33.46,33.3 33.12,33.28 32.97,33 c -0.15,-0.28 -0.7,-0.86 -0.9,-1.14 a 0.9,0.9 0 0 1 -0.14,-0.62 c 0.1,-0.1 0.45,-0.07 0.45,-0.07 a 4.54,4.54 0 0 0 2.31,-0.7 11.6,11.6 0 0 1 1.89,-0.47 6.43,6.43 0 0 1 2.05,-0.47 6.68,6.68 0 0 0 1.26,-0.16 c 0.42,-0.05 2.07,-0.27 2.43,-0.29 a 1.37,1.37 0 0 1 0.57,0 c 0.26,0.09 0.47,0.28 0.76,0.24 0.12,0 0.21,-0.1 0.33,-0.1 a 1.13,1.13 0 0 0 0.26,0 1.11,1.11 0 0 0 0.25,0 c 0,0 0,0 0,-0.06 a 0.3,0.3 0 0 0 -0.3,-0.14 h -0.07 a 0.54,0.54 0 0 1 -0.31,-0.06 c 0,0 -0.14,-0.07 -0.11,-0.09 A 1,1 0 0 1 44,28.6 1.92,1.92 0 0 0 45.14,27.67 c 0,-0.1 0.07,-0.23 0,-0.3 a 0.28,0.28 0 0 0 -0.22,-0.06 2,2 0 0 0 -0.49,0 2.09,2.09 0 0 0 -0.47,0.22 3.46,3.46 0 0 1 -1.22,0.7 3.31,3.31 0 0 1 -0.54,0.06 c -0.92,0 -2.14,-0.18 -2.94,-0.13 -0.37,0 -0.61,0.16 -1,0.16 -0.89,0 -3.1,0.54 -3.89,0.41 a 5.86,5.86 0 0 1 -1.64,-0.6 c 0,0 -0.47,-0.72 -1,-1.49 a 33.71,33.71 0 0 1 -2,-2.77 3.31,3.31 0 0 1 -0.3,-1.55 L 26.17,22 24.89,25.27 a 7.24,7.24 0 0 0 1.32,1 3,3 0 0 1 0.11,1.57 3.91,3.91 0 0 0 0.22,2.16 c 0.07,0.18 0.1,0.3 -0.08,0.11 -0.18,-0.19 -0.33,-0.32 -0.53,-0.49 a 4.07,4.07 0 0 1 -1,-1.21 4.59,4.59 0 0 0 -1.11,-1.41 14.19,14.19 0 0 1 -1,-1"
       id="path8838" />
    <path
       class="cls-15"
       d="m 28.63,19.88 a 19.27,19.27 0 0 0 2,-3.93 c 0.47,-1.65 0.7,-3.67 1,-4.25 A 12.7,12.7 0 0 0 33,9.18 c 0.35,-1.14 1,-3.46 1.45,-4.5 0.06,-0.12 0.24,-0.17 0.3,-0.28 0.06,-0.11 0.05,-0.24 0.12,-0.35 a 7.82,7.82 0 0 1 0.92,-1 A 1.14,1.14 0 0 0 36,2.34 4.5,4.5 0 0 0 35.84,1.17 C 35.75,0.91 35.58,0.85 35.51,1.05 A 2.51,2.51 0 0 1 35.25,1.58 12.88,12.88 0 0 0 34.36,2.9 c -0.26,0.52 -0.84,1.93 -0.87,2 -0.03,0.07 -1.58,2.53 -2.63,4.21 -0.3,0.48 -0.4,0.88 -0.61,1.17 -1,1.3 -0.46,1.57 -0.8,1.94 A 6.46,6.46 0 0 0 28.3,13.5 c -0.6,0.85 -1.6,2.14 -2.19,3.07 -1.25,1.94 -1.83,3.1 -1.83,3.1 a 3.07,3.07 0 0 0 -1.6,1.09 32.22,32.22 0 0 0 -3,4.85 6.38,6.38 0 0 1 -1.19,2.07 c -0.19,0.22 -0.44,0.77 -0.73,1.09 a 17.93,17.93 0 0 0 -1.93,1.87 c -0.47,0.66 -0.88,2.79 -1.46,3.76 -0.58,0.97 -0.8,0.89 -0.8,0.89 a 2.3,2.3 0 0 0 -1,0.12 1.06,1.06 0 0 0 -0.29,1.08 2,2 0 0 1 -0.1,1.44 4.86,4.86 0 0 0 -0.78,1.2 1.28,1.28 0 0 0 0.09,0.72 c 0,0.07 0.2,0.08 0.3,0 0.1,-0.08 0.27,-0.55 0.48,-0.8 a 5.67,5.67 0 0 0 1.13,-1.37 8.44,8.44 0 0 1 1.21,-1.62 c 0.48,-0.62 2.25,-3 3.06,-4 A 20.32,20.32 0 0 1 19.16,30.25 3.17,3.17 0 0 0 20.13,29 7.28,7.28 0 0 1 21.48,27.87 9.22,9.22 0 0 0 24,25.28 4.85,4.85 0 0 0 24.61,24 Z"
       id="path8840"
       style="fill:url(#linear-gradient-11);stroke-width:0.974532" />
    <path
       class="cls-14"
       d="m 28.63,19.88 a 19.27,19.27 0 0 0 2,-3.93 c 0.47,-1.65 0.7,-3.67 1,-4.25 A 12.7,12.7 0 0 0 33,9.18 c 0.35,-1.14 1,-3.46 1.45,-4.5 0.06,-0.12 0.24,-0.17 0.3,-0.28 0.06,-0.11 0.05,-0.24 0.12,-0.35 a 7.82,7.82 0 0 1 0.92,-1 A 1.14,1.14 0 0 0 36,2.34 4.5,4.5 0 0 0 35.84,1.17 C 35.75,0.91 35.58,0.85 35.51,1.05 A 2.51,2.51 0 0 1 35.25,1.58 12.88,12.88 0 0 0 34.36,2.9 c -0.26,0.52 -0.84,1.93 -0.87,2 -0.03,0.07 -1.58,2.53 -2.63,4.21 -0.3,0.48 -0.4,0.88 -0.61,1.17 -1,1.3 -0.46,1.57 -0.8,1.94 A 6.46,6.46 0 0 0 28.3,13.5 c -0.6,0.85 -1.6,2.14 -2.19,3.07 -1.25,1.94 -1.83,3.1 -1.83,3.1 a 3.07,3.07 0 0 0 -1.6,1.09 32.22,32.22 0 0 0 -3,4.85 6.38,6.38 0 0 1 -1.19,2.07 c -0.19,0.22 -0.44,0.77 -0.73,1.09 a 17.93,17.93 0 0 0 -1.93,1.87 c -0.47,0.66 -0.88,2.79 -1.46,3.76 -0.58,0.97 -0.8,0.89 -0.8,0.89 a 2.3,2.3 0 0 0 -1,0.12 1.06,1.06 0 0 0 -0.29,1.08 2,2 0 0 1 -0.1,1.44 4.86,4.86 0 0 0 -0.78,1.2 1.28,1.28 0 0 0 0.09,0.72 c 0,0.07 0.2,0.08 0.3,0 0.1,-0.08 0.27,-0.55 0.48,-0.8 a 5.67,5.67 0 0 0 1.13,-1.37 8.44,8.44 0 0 1 1.21,-1.62 c 0.48,-0.62 2.25,-3 3.06,-4 A 20.32,20.32 0 0 1 19.16,30.25 3.17,3.17 0 0 0 20.13,29 7.28,7.28 0 0 1 21.48,27.87 9.22,9.22 0 0 0 24,25.28 4.85,4.85 0 0 0 24.61,24 Z"
       id="path8842" />
    <path
       class="cls-5"
       d="m 24.32,19.65 0.42,-0.71 a 7.14,7.14 0 0 1 3,-0.13 c 1.29,0.18 1.42,0.34 1.42,0.34 l -0.32,0.73 a 6.92,6.92 0 0 1 0.45,1 5.94,5.94 0 0 1 0.14,1.45 5.62,5.62 0 0 0 -2.57,1 8.94,8.94 0 0 0 -1.94,1.88 3,3 0 0 1 -0.53,-0.69 6.63,6.63 0 0 1 -0.6,-1.92 16.57,16.57 0 0 1 0,-2.74 z"
       id="path8844"
       style="stroke-width:0.974532" />
    <path
       class="cls-16"
       d="m 24.32,19.65 0.42,-0.71 a 7.14,7.14 0 0 1 3,-0.13 c 1.29,0.18 1.42,0.34 1.42,0.34 l -0.32,0.73 a 6.92,6.92 0 0 1 0.45,1 5.94,5.94 0 0 1 0.14,1.45 5.62,5.62 0 0 0 -2.57,1 8.94,8.94 0 0 0 -1.94,1.88 3,3 0 0 1 -0.53,-0.69 6.63,6.63 0 0 1 -0.6,-1.92 16.57,16.57 0 0 1 0,-2.74 z"
       id="path8846"
       style="fill:url(#linear-gradient-12);stroke-width:0.974532" />
    <path
       class="cls-17"
       d="m 24.32,19.65 0.42,-0.71 a 7.14,7.14 0 0 1 3,-0.13 c 1.29,0.18 1.42,0.34 1.42,0.34 l -0.32,0.73 a 6.92,6.92 0 0 1 0.45,1 5.94,5.94 0 0 1 0.14,1.45 5.62,5.62 0 0 0 -2.57,1 8.94,8.94 0 0 0 -1.94,1.88 3,3 0 0 1 -0.53,-0.69 6.63,6.63 0 0 1 -0.6,-1.92 16.57,16.57 0 0 1 0,-2.74 z"
       id="path8848" />
    <path
       class="cls-14"
       d="m 28.18,32.34 a 4,4 0 0 1 0.47,0 1.15,1.15 0 0 1 0.84,0.42 4.63,4.63 0 0 1 0.33,1 0.26,0.26 0 0 0 -0.31,0.12 0.67,0.67 0 0 0 0.17,0.7 0.63,0.63 0 0 0 0.42,0.11 3,3 0 0 0 0.71,0.95 1.74,1.74 0 0 0 1.26,0.14 A 1.32,1.32 0 0 0 33,35 a 2.6,2.6 0 0 0 0.25,-0.94 0.37,0.37 0 0 0 0.28,-0.5 C 33.46,33.3 33.12,33.28 32.97,33 c -0.15,-0.28 -0.7,-0.86 -0.9,-1.14 a 0.9,0.9 0 0 1 -0.14,-0.62 0.44,0.44 0 0 1 0.25,-0.07"
       id="path8850" />
    <path
       class="cls-5"
       d="m 31.35,35.52 a 1.41,1.41 0 0 1 0.69,-0.15 c 0.05,0 -0.09,0.13 -0.26,0.19 a 0.7,0.7 0 0 1 -0.43,-0.04 z"
       id="path8852"
       style="stroke-width:0.974532" />
    <path
       class="cls-5"
       d="m 31.76,35.44 a 0.44,0.44 0 0 0 0.19,-0.27 0.38,0.38 0 0 1 -0.3,0.11 c -0.16,0 -0.35,-0.15 -0.34,-0.05 a 0.29,0.29 0 0 0 0.45,0.21 z"
       id="path8854"
       style="stroke-width:0.974532" />
    <path
       class="cls-18"
       d="m 31.9,35.83 a 1.07,1.07 0 0 0 -0.2,0.4 c -0.05,0.14 -0.2,0.2 -0.26,0 -0.06,-0.2 0,-0.28 -0.19,-0.37"
       id="path8856"
       style="stroke-width:0.974532" />
    <path
       id="line8858"
       class="cls-19"
       style="fill:#608bc3;stroke-width:0.974532"
       d="m 27.190001,30.799999 -0.01,0.01" />
    <path
       class="cls-19"
       d="m 26.36,27.66 v 0"
       id="path8860"
       style="stroke-width:0.974532" />
    <path
       class="cls-19"
       d="m 31.18,25.93 v 0"
       id="path8862"
       style="stroke-width:0.974532" />
  </g>
</svg>
