<?xml version="1.0" encoding="UTF-8"?><svg xmlns="http://www.w3.org/2000/svg" xmlns:xlink="http://www.w3.org/1999/xlink" viewBox="0 0 48 48"><defs><radialGradient id="radial-gradient" cx="54.96" cy="-46.01" fx="54.96" fy="-46.01" r="8.81" gradientTransform="translate(-107.82 104.34) scale(2.4 1.53)" gradientUnits="userSpaceOnUse"><stop offset=".59" stop-color="#2c2c2c" stop-opacity=".5"/><stop offset=".99" stop-color="#2c2c2c" stop-opacity="0"/></radialGradient><linearGradient id="linear-gradient" x1="23.86" y1="21.31" x2="37.5" y2="21.31" gradientTransform="matrix(1, 0, 0, 1, 0, 0)" gradientUnits="userSpaceOnUse"><stop offset="0" stop-color="#e0aa5b"/><stop offset=".32" stop-color="#b06a10"/><stop offset="1" stop-color="#7b4706"/></linearGradient><linearGradient id="linear-gradient-2" x1="17.08" y1="21.39" x2="13.74" y2="13.75" xlink:href="#linear-gradient"/><linearGradient id="linear-gradient-3" x1="32.66" y1="16.69" x2="35.76" y2="8.62" gradientTransform="matrix(1, 0, 0, 1, 0, 0)" gradientUnits="userSpaceOnUse"><stop offset="0" stop-color="#e0aa5b"/><stop offset="1" stop-color="#b06a10"/></linearGradient><linearGradient id="linear-gradient-4" x1="37.77" y1="16.79" x2="32.8" y2="8.1" gradientTransform="matrix(1, 0, 0, 1, 0, 0)" gradientUnits="userSpaceOnUse"><stop offset="0" stop-color="#fff" stop-opacity="0"/><stop offset="1" stop-color="#fff7f7"/></linearGradient><linearGradient id="linear-gradient-5" x1="14.3" y1="17.12" x2="12.82" y2="9.89" xlink:href="#linear-gradient-3"/><linearGradient id="linear-gradient-6" x1="8.78" y1="15.21" x2="14.19" y2="10.74" xlink:href="#linear-gradient-4"/><linearGradient id="linear-gradient-7" x1="21.13" y1="9.79" x2="25.13" y2="21.3" gradientTransform="matrix(1, 0, 0, 1, 0, 0)" gradientUnits="userSpaceOnUse"><stop offset="0" stop-color="#ceddee"/><stop offset=".99" stop-color="#729ece"/></linearGradient><linearGradient id="linear-gradient-8" x1="29.01" y1="18.62" x2="24.05" y2="12.53" gradientTransform="matrix(1, 0, 0, 1, 0, 0)" gradientUnits="userSpaceOnUse"><stop offset="0" stop-color="#fff" stop-opacity="0"/><stop offset="1" stop-color="#fff7f7"/></linearGradient><linearGradient id="linear-gradient-9" x1="25.58" y1="19.67" x2="15.77" y2="11.47" xlink:href="#linear-gradient-8"/><linearGradient id="linear-gradient-10" x1="29.85" y1="20.27" x2="30.69" y2="10.74" xlink:href="#linear-gradient-8"/><linearGradient id="linear-gradient-11" x1="19.31" y1="17.51" x2="18.21" y2="20.31" gradientTransform="matrix(1, 0, 0, 1, 0, 0)" gradientUnits="userSpaceOnUse"><stop offset="0" stop-color="#729ece"/><stop offset=".99" stop-color="#204a86"/></linearGradient><linearGradient id="linear-gradient-12" x1="24.8" y1="18.29" x2="19.9" y2="12.48" xlink:href="#linear-gradient-7"/><linearGradient id="linear-gradient-13" x1="24.8" y1="18.29" x2="19.9" y2="12.48" xlink:href="#linear-gradient-8"/><linearGradient id="linear-gradient-14" x1="24.72" y1="7.62" x2="24.72" y2="28.68" xlink:href="#linear-gradient-11"/><linearGradient id="linear-gradient-15" x1="25.62" y1="39.83" x2="34.02" y2="20.96" xlink:href="#linear-gradient-3"/><linearGradient id="linear-gradient-16" x1="-197.35" y1="31.34" x2="-193.54" y2="24.65" gradientTransform="translate(-160.61) rotate(-180) scale(1 -1)" xlink:href="#linear-gradient"/><linearGradient id="linear-gradient-17" x1="9.75" y1="34.36" x2="24.74" y2="22.23" xlink:href="#linear-gradient"/><linearGradient id="linear-gradient-18" x1="22.6" y1="39.2" x2="29.3" y2=".55" xlink:href="#linear-gradient-4"/><linearGradient id="linear-gradient-19" x1="7.48" y1="38.94" x2="14.24" y2="25.77" xlink:href="#linear-gradient"/><linearGradient id="linear-gradient-20" x1="18.64" y1="20.56" x2="-8.21" y2="29.47" gradientTransform="matrix(1, 0, 0, 1, 0, 0)" gradientUnits="userSpaceOnUse"><stop offset="0" stop-color="#e7bb7b"/><stop offset="1" stop-color="#b06a10"/></linearGradient><linearGradient id="linear-gradient-21" x1="13.11" y1="27.94" x2="20.37" y2="4.18" xlink:href="#linear-gradient-4"/><linearGradient id="linear-gradient-22" x1="-175.05" y1="22.71" x2="-178.18" y2="18.88" gradientTransform="translate(-160.61) rotate(-180) scale(1 -1)" xlink:href="#linear-gradient-4"/><linearGradient id="linear-gradient-23" x1="-175.05" y1="22.71" x2="-178.18" y2="18.88" gradientTransform="translate(-160.61) rotate(-180) scale(1 -1)" xlink:href="#linear-gradient-4"/><linearGradient id="linear-gradient-24" x1="-190.02" y1="20.16" x2="-218.11" y2="29.48" gradientTransform="translate(-160.61) rotate(-180) scale(1 -1)" xlink:href="#linear-gradient-20"/><linearGradient id="linear-gradient-25" x1="37.4" y1="27.84" x2="21.48" y2="4.27" xlink:href="#linear-gradient-4"/><linearGradient id="linear-gradient-26" x1="33.28" y1="22.71" x2="30.14" y2="18.88" xlink:href="#linear-gradient-4"/><linearGradient id="linear-gradient-27" x1="33.28" y1="22.71" x2="30.14" y2="18.88" xlink:href="#linear-gradient-4"/><linearGradient id="linear-gradient-28" x1="35.25" y1="12.84" x2="34.81" y2="11.37" gradientTransform="translate(5.93 -10.95) rotate(18.63) scale(1 1.04) skewX(1.41)" xlink:href="#linear-gradient-20"/><linearGradient id="linear-gradient-29" x1="34.86" y1="11.57" x2="35.56" y2="14.04" gradientTransform="translate(5.93 -10.95) rotate(18.63) scale(1 1.04) skewX(1.41)" xlink:href="#linear-gradient-7"/><linearGradient id="linear-gradient-30" x1="35.4" y1="12.37" x2="35.1" y2="11.59" xlink:href="#linear-gradient-8"/><linearGradient id="linear-gradient-31" x1="32.62" y1="13.12" x2="32.3" y2="12.05" gradientTransform="translate(5.93 -10.95) rotate(18.63) scale(1 1.04) skewX(1.41)" xlink:href="#linear-gradient-20"/><linearGradient id="linear-gradient-32" x1="32.31" y1="12.31" x2="32.7" y2="13.69" gradientTransform="translate(5.93 -10.95) rotate(18.63) scale(1 1.04) skewX(1.41)" xlink:href="#linear-gradient-7"/><linearGradient id="linear-gradient-33" x1="32.72" y1="11.93" x2="32.71" y2="11.47" xlink:href="#linear-gradient-8"/><linearGradient id="linear-gradient-34" x1="13.08" y1="19.83" x2="12.63" y2="18.36" gradientTransform="translate(-1.04 .77) rotate(-2.87)" xlink:href="#linear-gradient-20"/><linearGradient id="linear-gradient-35" x1="15.95" y1="20.67" x2="15.55" y2="19.57" gradientTransform="translate(-1.04 .77) rotate(-2.87)" xlink:href="#linear-gradient-20"/><linearGradient id="linear-gradient-36" x1="16.2" y1="23.44" x2="16.31" y2="20.79" gradientTransform="translate(-1.04 .77) rotate(-2.87)" xlink:href="#linear-gradient-20"/><linearGradient id="linear-gradient-37" x1="15.64" y1="19.62" x2="16.31" y2="21.4" gradientTransform="translate(-1.04 .77) rotate(-2.87)" xlink:href="#linear-gradient-7"/><linearGradient id="linear-gradient-38" x1="15.83" y1="20.36" x2="15.54" y2="18.85" gradientTransform="translate(-1.04 .77) rotate(-2.87)" xlink:href="#linear-gradient-8"/><linearGradient id="linear-gradient-39" x1="12.82" y1="18.56" x2="13.44" y2="20.75" gradientTransform="translate(-1.04 .77) rotate(-2.87)" xlink:href="#linear-gradient-7"/><linearGradient id="linear-gradient-40" x1="13.12" y1="19.37" x2="12.78" y2="18.64" gradientTransform="translate(-1.04 .77) rotate(-2.87)" xlink:href="#linear-gradient-8"/><linearGradient id="linear-gradient-41" x1="15.7" y1="21.54" x2="17.5" y2="23.52" gradientTransform="translate(-1.04 .77) rotate(-2.87)" xlink:href="#linear-gradient-7"/><linearGradient id="linear-gradient-42" x1="16.67" y1="23.02" x2="15.68" y2="21.18" gradientTransform="translate(-1.04 .77) rotate(-2.87)" xlink:href="#linear-gradient-8"/></defs><g style="isolation:isolate;"><g id="shadow" style="mix-blend-mode:multiply; opacity:.45;"><ellipse cx="24.15" cy="34.14" rx="20.33" ry="12.97" transform="translate(-.19 .14) rotate(-.33)" style="fill:url(#radial-gradient);"/></g><g id="ART"><g><g><polygon points="37.49 33.8 37.49 15.96 23.86 8.79 23.86 26.63 37.49 33.8" style="fill:#e0aa5b;"/><polygon points="37.5 33.82 37.5 15.98 23.86 8.81 23.86 26.65 37.5 33.82" style="fill:url(#linear-gradient);"/><polygon points="10.22 33.8 10.22 15.96 23.86 8.79 23.86 26.63 10.22 33.8" style="fill:url(#linear-gradient-2);"/><g><polygon points="31.88 7.03 23.86 8.61 37.49 15.78 45.52 14.2 31.88 7.03" style="fill:url(#linear-gradient-3);"/><polygon points="31.88 7.03 23.86 8.61 37.49 15.78 45.52 14.2 31.88 7.03" style="fill:url(#linear-gradient-4);"/><polygon points="31.88 7.03 23.86 8.61 37.49 15.78 45.52 14.2 31.88 7.03" style="fill:none; stroke:#7b4706; stroke-linecap:round; stroke-linejoin:round; stroke-width:.5px;"/></g><g><polygon points="16.12 7.39 23.86 8.61 10.22 15.78 2.48 14.56 16.12 7.39" style="fill:url(#linear-gradient-5);"/><polygon points="16.12 7.39 23.86 8.61 10.22 15.78 2.48 14.56 16.12 7.39" style="fill:url(#linear-gradient-6);"/><polygon points="16.12 7.39 23.86 8.61 10.22 15.78 2.48 14.56 16.12 7.39" style="fill:none; stroke:#7b4706; stroke-linecap:round; stroke-linejoin:round; stroke-width:.5px;"/></g><path d="M11.93,19.47s1.28-2.14,2.68-4.2c.99-1.47,2.04-2.9,2.72-3.49,1.62-1.42,3.21-4.47,5.58-3.68s2.74,2.68,3.59,3.11c0,0,2.01,.2,3.02,1.1s2.87,3.82,2.87,3.82c0,0,1.66-.29,2.96,.54s2.08,4.06,2.08,4.06l-11.91,7.63-13.58-8.87Z" style="fill:#ededeb;"/><path d="M11.93,19.47c0-.27,.43-.59,.5-.86,.13-.54,.03-1.22,.1-1.79,.04-.32,.09-.64,.21-.93,.02-.06,.05-.11,.1-.15,.05-.03,.11-.04,.16-.04,.52-.04,1.29,.02,1.6-.44,.99-1.47,2.04-2.9,2.72-3.49,1.62-1.42,3.21-4.47,5.58-3.68s2.74,2.68,3.59,3.11c0,0,2.01,.2,3.02,1.1s2.87,3.82,2.87,3.82c0,0,1.66-.29,2.96,.54s2.08,4.06,2.08,4.06l-11.91,7.63-13.58-8.87Z" style="fill:url(#linear-gradient-7);"/><path d="M27.78,14.68c-.05-.02-.12-.01-.17,0-.56,.13-.98,.61-1.2,1.14-.21,.53-.25,1.12-.29,1.69,.19,.12,.41,.21,.63,.27,0-.02,0-.03,.02-.05,.09-.17,.2-.32,.31-.47l.74-1.01c.22-.3,.34-.56,.26-.92-.02-.1-.19-.6-.3-.65Z" style="fill:url(#linear-gradient-8);"/><path d="M35.34,16.66c-1.3-.82-2.96-.54-2.96-.54,0,0-1.86-2.92-2.87-3.82s-3.02-1.1-3.02-1.1c-.84-.42-1.22-2.32-3.59-3.11s-3.95,2.27-5.58,3.68c-.68,.59-1.72,2.02-2.72,3.49-.31,.46-1.08,.4-1.6,.44-.06,0-.12,0-.16,.04-.05,.03-.08,.09-.1,.15-.13,.29-.18,.61-.21,.93-.07,.56,.03,1.25-.1,1.79-.06,.27-.5,.59-.5,.86l13.58,8.87,11.91-7.63s-.78-3.24-2.08-4.06Zm-5.47,1.2c-.33,.06-.65,.19-.96,.31-.23,.09-.47,.18-.7,.28-.26,.22-.43,.56-.43,.91-.41,.19-.89,.16-1.33,.27-.36,.09-.69,.29-1.05,.41-.35,.12-.77,.16-1.08-.05,.14-.35-.08-.78-.42-.96-.34-.18-.75-.16-1.12-.06,.45-1.23,.72-2.52,.78-3.83,0-.19,.01-.38-.05-.55-.17-.51-.73-.66-1.14-.9-.11-.07-1.44-.7-1.42-.23,0-.17,.08-.33,.16-.48,.25-.44,.49-.88,.74-1.31,.05-.1,.11-.19,.17-.28,.3-.41,.84-.63,1.34-.54-.35-.45-.92-.58-1.46-.48,.1-.51,.4-1.15,1.01-1.13,.69,.03,.75,.69,1.17,1.01,.04,.03,.09,.05,.13,.08,.13,.11,.07,.33,0,.49l-.25,.55c.17,.05,.35,.05,.52,.1,.46,.11,.73,.7,1.19,.9,.46,.19,.97,.24,1.46,.29,.85,.08,1.85,.29,2.21,1.07,.17,.37,.16,.81,.35,1.17,.11,.21,.28,.38,.45,.55,.62,.66,1.08,1.41,1.52,2.19-.57,.22-1.2,.13-1.8,.24Z" style="fill:url(#linear-gradient-9);"/><path d="M34.58,17.41c-.43-.81-1.77-.73-2.49-.62-.31-.74-1.8-3.1-2.77-3.8,.55,.65,.69,2.03,.69,2.62,0,.41-.32,1.03-.51,1.37-.75,.1-1.42,.9-1.91,1.24-1.22,.84-2.35,2.94-2.35,2.94,0,0,1.73-1.62,3.33-2.66,1.59-1.03,6.62,.03,6.02-1.09Z" style="fill:url(#linear-gradient-10);"/><path d="M13.75,19.97c2.87,1.74,6.26,2.38,9.57,2.98,.08-.97-.59-1.83-.96-2.73-.07-.18-.14-.37-.11-.56,.03-.19,.13-.35,.23-.52,.37-.67,.52-1.47,.41-2.23l-1.38,1.29c-.21,.2-.43,.4-.54,.66-.1,.22-.12,.48-.14,.72l-.12,1.5c0,.11-.03,.23-.12,.29-.06,.04-.14,.04-.22,.03-.56-.08-.94-.61-1.24-1.09-.61-.97-1.25-2.06-1.08-3.2-.4,.06-.85-.13-1.2,.09-.51,.32-.43,1.31-1.03,1.39-.26,.03-.5-.16-.64-.39s-.2-.49-.34-.71c-.25-.43-.72-.72-1.21-.74-.21,.22-.37,.5-.46,.79-.3,.99-.29,1.88,.59,2.41Z" style="fill:url(#linear-gradient-11); opacity:.57;"/><path d="M21.68,8.96c0-.13-1.94,1.36-2.06,1.49-.8,.86-1.24,1.87-1.63,2.98,.3,.1,.64,.09,.94-.02-1.04,.73-2.87,1.65-3.58,2.71-.55,.83-.22,1.59,.81,1.58,.86,0,1.59-.84,2.26-1.29,.05-.03-.3,1.42-.3,1.49,0,.5,0,.77,.45,1.13,.29,.23,1.7,.69,1.99,.35l2.25-2.63s-.47,2.16-.28,2.63,1.22-2.63,1.88-3.19c.89-.77,1.85-1.38,2.7-2.24-.77,.31-1.61,.43-2.43,.55l-3.16,.46c.61-.6,1.57-.64,2.31-1.06,.25-.14,.48-.33,.75-.45,.79-.35,1.63,0,2.44-.13,.54-.08,1.08-.51,1.61-.42,.08,.01-.35-.91-.44-.99-.38-.33-.96-.44-1.44-.49s-1.35-.02-1.83,.07c-.19,.04-.34,.19-.48,.33-.26,.25-.61,.47-.97,.42-.14-.02-.27-.08-.4-.11-.96-.24-1.49,.57-2.06,1.13-.19,.19-1.47,.87-1.47,1.14,0,0,0-1.97,.94-3s1.22-2.44,1.22-2.44Z" style="fill:url(#linear-gradient-12);"/><path d="M21.68,8.96c0-.13-1.94,1.36-2.06,1.49-.8,.86-1.24,1.87-1.63,2.98,.3,.1,.64,.09,.94-.02-1.04,.73-2.87,1.65-3.58,2.71-.55,.83-.22,1.59,.81,1.58,.86,0,1.59-.84,2.26-1.29,.05-.03-.3,1.42-.3,1.49,0,.5,0,.77,.45,1.13,.29,.23,1.7,.69,1.99,.35l2.25-2.63s-.47,2.16-.28,2.63,1.22-2.63,1.88-3.19c.89-.77,1.85-1.38,2.7-2.24-.77,.31-1.61,.43-2.43,.55l-3.16,.46c.61-.6,1.57-.64,2.31-1.06,.25-.14,.48-.33,.75-.45,.79-.35,1.63,0,2.44-.13,.54-.08,1.08-.51,1.61-.42,.08,.01-.35-.91-.44-.99-.38-.33-.96-.44-1.44-.49s-1.35-.02-1.83,.07c-.19,.04-.34,.19-.48,.33-.26,.25-.61,.47-.97,.42-.14-.02-.27-.08-.4-.11-.96-.24-1.49,.57-2.06,1.13-.19,.19-1.47,.87-1.47,1.14,0,0,0-1.97,.94-3s1.22-2.44,1.22-2.44Z" style="fill:url(#linear-gradient-13);"/><path d="M12.21,19.32c-.19-.34-.28-.73-.25-1.21,.06-.79,.22-1.57,.47-2.32,.03-.09,.07-.18,.14-.24,.07-.06,.17-.07,.26-.09l1.04-.16c1.02-.16,1.27-.81,1.84-1.59,.49-.67,.99-1.38,1.62-1.93,1.62-1.42,3.21-4.47,5.58-3.68s2.74,2.68,3.59,3.11c0,0,2.01,.2,3.02,1.1s2.87,3.82,2.87,3.82c0,0,1.66-.29,2.96,.54s2.08,4.06,2.08,4.06c0,0-11.91,7.63-11.93,7.61l-6.38-4.16-4.41-2.88c-.91-.59-2.01-1.08-2.5-1.97Z" style="fill:none; stroke:url(#linear-gradient-14); stroke-miterlimit:10; stroke-width:.7px;"/><g><polygon points="23.86 40.97 23.86 23.13 37.49 15.96 37.49 33.8 23.86 40.97" style="fill:url(#linear-gradient-15);"/><polygon points="23.86 23.13 27.7 32.2 37.5 27.04 37.5 15.96 23.86 23.13" style="fill:url(#linear-gradient-16);"/><polygon points="23.86 40.97 23.86 23.13 10.22 15.96 10.22 33.8 23.86 40.97" style="fill:url(#linear-gradient-17);"/><polygon points="24.19 23.13 24.19 40.8 23.85 40.97 23.52 40.8 23.52 23.13 24.19 23.13" style="fill:#e0aa5b;"/><polygon points="24.19 23.13 24.19 40.8 23.85 40.97 23.52 40.8 23.52 23.13 24.19 23.13" style="fill:url(#linear-gradient-18);"/><polygon points="23.85 23.13 20.01 32.2 10.21 27.04 10.21 15.96 23.85 23.13" style="fill:url(#linear-gradient-19);"/><polygon points="37.49 15.96 37.49 33.8 23.85 40.96 10.21 33.8 10.21 15.96 23.85 23.13 37.49 15.96" style="fill:none; stroke:#7b4706; stroke-linecap:round; stroke-linejoin:round; stroke-width:.7px;"/></g><g><polygon points="17.2 28.44 23.86 23.13 10.22 15.96 3.56 21.27 17.2 28.44" style="fill:url(#linear-gradient-20);"/><path d="M23.85,23.13l-3.77,2.91c-.88,.19-2.4-.25-4.69-.84-3.59-.93-2.51-2.41-4.39-4.36-1.11-1.14-3.37-1.7-4.52-1.55l3.73-3.32,13.63,7.16Z" style="fill:url(#linear-gradient-21);"/><polygon points="9.61 16.68 23.27 23.84 23.7 23.31 10.06 16.14 9.61 16.68" style="fill:url(#linear-gradient-22);"/><polygon points="9.61 16.68 23.27 23.84 23.7 23.31 10.06 16.14 9.61 16.68" style="fill:url(#linear-gradient-23);"/><polygon points="17.2 28.44 23.86 23.13 10.22 15.96 3.56 21.27 17.2 28.44" style="fill:none; stroke:#7b4706; stroke-linecap:round; stroke-linejoin:round; stroke-width:.7px;"/></g><g><polygon points="31.64 27.78 23.86 23.13 37.49 15.96 45.28 20.61 31.64 27.78" style="fill:url(#linear-gradient-24);"/><path d="M41.29,18.25c-1.85,4.63-4.47,3.47-7.79,4.6-2.78,.95-4.3,2.63-4.41,3.38l-5.24-3.09,13.64-7.16,3.79,2.28Z" style="fill:url(#linear-gradient-25);"/><polygon points="38.1 16.68 24.45 23.84 24.01 23.31 37.65 16.14 38.1 16.68" style="fill:url(#linear-gradient-26);"/><polygon points="38.1 16.68 24.45 23.84 24.01 23.31 37.65 16.14 38.1 16.68" style="fill:url(#linear-gradient-27);"/><polygon points="31.64 27.78 23.86 23.13 37.49 15.96 45.28 20.61 31.64 27.78" style="fill:none; stroke:#7b4706; stroke-linecap:round; stroke-linejoin:round; stroke-width:.7px;"/></g></g><path d="M35.55,12.01c.12,.06,.26,.07,.38,.13s.23,.2,.2,.36c-.03,.15-.17,.24-.29,.3-.2,.09-.4,.14-.61,.16-.14,.01-.29,.01-.41-.06s-.22-.22-.2-.39c.02-.22,.21-.37,.38-.48s.38-.09,.55,0Z" style="fill:url(#linear-gradient-28);"/><path d="M34.75,12.22l.21,.53s.02,.04,.03,.05c.02,0,.04,0,.05,0l.48-.14c.06-.02,.13-.03,.18-.07,.06-.04,.1-.09,.17-.11,.03,0,.06-.02,.08-.09,0-.12-.06-.23-.11-.33l-.15-.29s-.04-.07-.07-.1c-.04-.03-.09-.05-.14-.05-.09,0-.18,.02-.25,.08-.09,.07-.13,.19-.22,.26-.1,.08-.19,.13-.27,.25Z" style="fill:url(#linear-gradient-29);"/><path d="M34.75,12.22l.21,.53s.02,.04,.03,.05c.02,0,.04,0,.05,0l.48-.14c.06-.02,.13-.03,.18-.07,.06-.04,.1-.09,.17-.11,.03,0,.06-.02,.08-.09,0-.12-.06-.23-.11-.33l-.15-.29s-.04-.07-.07-.1c-.04-.03-.09-.05-.14-.05-.09,0-.18,.02-.25,.08-.09,.07-.13,.19-.22,.26-.1,.08-.19,.13-.27,.25Z" style="fill:url(#linear-gradient-30);"/><path d="M32.91,11.75c.09,.05,.19,.05,.28,.09s.17,.14,.15,.26c-.02,.11-.12,.18-.21,.22-.14,.06-.29,.1-.44,.12-.1,.01-.21,0-.3-.04s-.16-.16-.14-.29c.02-.16,.15-.27,.27-.35s.28-.07,.4,0Z" style="fill:url(#linear-gradient-31);"/><path d="M32.34,11.9c-.05,.09,.14,.29,.21,.32,.12,.05,.34,.05,.45-.03,.07-.05,.18-.2,.11-.29-.03-.04-.07-.06-.12-.08-.02-.01-.05-.02-.07-.03-.03-.02-.05-.04-.08-.06l-.2-.16c-.1,.1-.23,.2-.3,.32Z" style="fill:url(#linear-gradient-32);"/><path d="M32.34,11.9c-.05,.09,.14,.29,.21,.32,.12,.05,.34,.05,.45-.03,.07-.05,.18-.2,.11-.29-.03-.04-.07-.06-.12-.08-.02-.01-.05-.02-.07-.03-.03-.02-.05-.04-.08-.06l-.2-.16c-.1,.1-.23,.2-.3,.32Z" style="fill:url(#linear-gradient-33);"/><path d="M12.82,18.89c.14,.01,.27-.03,.41-.02s.29,.09,.31,.25c.02,.15-.08,.28-.17,.37-.16,.15-.33,.27-.52,.36-.13,.06-.27,.11-.41,.09s-.28-.12-.32-.28c-.05-.2,.07-.4,.19-.57s.33-.22,.52-.2Z" style="fill:url(#linear-gradient-34);"/><path d="M15.69,19.88c-.37,.28-.44,.49-.17,.62s.55-.12,.65-.32-.48-.3-.48-.3Z" style="fill:url(#linear-gradient-35);"/><path d="M15.3,22.72c.09,.12,.42,.69,1.48,.64s.23-1.19,.23-1.19l-1.72,.55Z" style="fill:url(#linear-gradient-36);"/><path d="M15.43,19.49c-.52,.06-.09,.62,.1,.87s.34-.13,.57-.32-.21-.6-.67-.55Z" style="fill:url(#linear-gradient-37);"/><path d="M16.1,20.04c.22-.19-.21-.6-.67-.55-.52,.06-.09,.62,.1,.87l.57-.32Z" style="fill:url(#linear-gradient-38);"/><path d="M12.72,18.6c-.26,.12-.46,.37-.52,.65l.38,.4s.03,.03,.05,.03c.02,0,.03-.01,.05-.02l.71-.52c.06-.04,.12-.1,.11-.17,0-.04-.04-.07-.07-.1-.12-.1-.24-.2-.39-.26s-.32-.06-.45,.03" style="fill:url(#linear-gradient-39);"/><path d="M12.72,18.6c-.26,.12-.46,.37-.52,.65l.38,.4s.03,.03,.05,.03c.02,0,.03-.01,.05-.02l.71-.52c.06-.04,.12-.1,.11-.17,0-.04-.04-.07-.07-.1-.12-.1-.24-.2-.39-.26s-.32-.06-.45,.03" style="fill:url(#linear-gradient-40);"/><path d="M16.23,21.05c.4-.26,.85-.15,1.11,.77,.44,1.55-1.23,1.15-2.03,.89,.05-.59,.46-1.37,.92-1.66Z" style="fill:url(#linear-gradient-41);"/><path d="M16.23,21.05c.4-.26,.85-.15,1.11,.77,.44,1.55-1.23,1.15-2.03,.89,.05-.59,.46-1.37,.92-1.66Z" style="fill:url(#linear-gradient-42);"/></g></g></g></svg>