<?xml version="1.0" encoding="UTF-8"?><svg xmlns="http://www.w3.org/2000/svg" xmlns:xlink="http://www.w3.org/1999/xlink" viewBox="0 0 48 48"><defs><radialGradient id="radial-gradient" cx="13.8" cy="14.38" fx="13.8" fy="14.38" r="25.15" gradientTransform="translate(10.97 27.07) scale(.94 .42)" gradientUnits="userSpaceOnUse"><stop offset=".39" stop-color="#1a1718" stop-opacity=".5"/><stop offset=".84" stop-color="#1a1718" stop-opacity=".1"/><stop offset=".93" stop-color="#1a1718" stop-opacity="0"/></radialGradient><linearGradient id="linear-gradient" x1="35.06" y1="19.53" x2="33.53" y2="19.24" gradientTransform="matrix(1, 0, 0, 1, 0, 0)" gradientUnits="userSpaceOnUse"><stop offset="0" stop-color="#ceddee"/><stop offset=".99" stop-color="#729ece"/></linearGradient><linearGradient id="linear-gradient-2" x1="31.91" y1="19.21" x2="36.34" y2="19.21" gradientTransform="matrix(1, 0, 0, 1, 0, 0)" gradientUnits="userSpaceOnUse"><stop offset="0" stop-color="#729ece"/><stop offset="1" stop-color="#436ea5"/></linearGradient><linearGradient id="linear-gradient-3" x1="12.75" y1="19.21" x2="13.42" y2="19.21" xlink:href="#linear-gradient"/><linearGradient id="linear-gradient-4" x1="9.87" y1="19.64" x2="17.23" y2="19.64" xlink:href="#linear-gradient-2"/><linearGradient id="linear-gradient-5" x1="27.43" y1="9.42" x2="27.44" y2="9.43" gradientTransform="translate(-2.05 .74) rotate(-1.6)" gradientUnits="userSpaceOnUse"><stop offset="0" stop-color="#ef8086"/><stop offset=".33" stop-color="#ea7d83"/><stop offset=".69" stop-color="#dd777c"/><stop offset="1" stop-color="#cc7073"/></linearGradient><linearGradient id="linear-gradient-6" x1="16.45" y1="12.66" x2="20.6" y2="14.61" xlink:href="#linear-gradient-5"/><radialGradient id="radial-gradient-2" cx="23.24" cy="13.75" fx="23.24" fy="13.75" r="4.06" gradientTransform="translate(-2.05 .74) rotate(-1.6)" gradientUnits="userSpaceOnUse"><stop offset="0" stop-color="#eebfc1"/><stop offset="1" stop-color="#ed9ea2"/></radialGradient><radialGradient id="radial-gradient-3" cx="17.3" cy="17.32" fx="17.3" fy="17.32" r="2.09" xlink:href="#radial-gradient-2"/><radialGradient id="radial-gradient-4" cx="22.76" cy="15.9" fx="22.76" fy="15.9" r="3.02" gradientTransform="translate(-2.05 .74) rotate(-1.6)" gradientUnits="userSpaceOnUse"><stop offset="0" stop-color="#fff"/><stop offset="1" stop-color="#f0cdce"/></radialGradient><radialGradient id="radial-gradient-5" cx="23.37" cy="15.55" fx="23.37" fy="15.55" r="1.74" xlink:href="#radial-gradient-4"/><radialGradient id="radial-gradient-6" cx="16.67" cy="17.6" fx="16.67" fy="17.6" r="1.49" xlink:href="#radial-gradient-4"/><radialGradient id="radial-gradient-7" cx="19.34" cy="15.81" fx="19.34" fy="15.81" r="3.32" xlink:href="#radial-gradient-4"/><radialGradient id="radial-gradient-8" cx="22.04" cy="15.02" fx="22.04" fy="15.02" r="5.73" xlink:href="#radial-gradient-4"/><radialGradient id="radial-gradient-9" cx="22.7" cy="15.27" fx="22.7" fy="15.27" r="4.77" xlink:href="#radial-gradient-4"/><radialGradient id="radial-gradient-10" cx="23.91" cy="14.27" fx="23.91" fy="14.27" r="6.55" xlink:href="#radial-gradient-4"/><linearGradient id="linear-gradient-7" x1="21.85" y1="20.73" x2="25.08" y2="37.94" xlink:href="#linear-gradient"/><linearGradient id="linear-gradient-8" x1="23.67" y1="42.89" x2="23.67" y2="12.23" gradientTransform="matrix(1, 0, 0, 1, 0, 0)" gradientUnits="userSpaceOnUse"><stop offset="0" stop-color="#fff" stop-opacity="0"/><stop offset="1" stop-color="#fff7f7"/></linearGradient><linearGradient id="linear-gradient-9" x1="19.43" y1="18.17" x2="19.43" y2="31.59" gradientTransform="matrix(1, 0, 0, 1, 0, 0)" gradientUnits="userSpaceOnUse"><stop offset="0" stop-color="#fff"/><stop offset="1" stop-color="#fff" stop-opacity="0"/></linearGradient><linearGradient id="linear-gradient-10" x1="26" y1="17.14" x2="42.34" y2="22.83" gradientTransform="translate(1.4) skewX(-2.12)" gradientUnits="userSpaceOnUse"><stop offset="0" stop-color="#b9bcb5"/><stop offset="1" stop-color="#878984"/></linearGradient><linearGradient id="linear-gradient-11" x1="27.43" y1="25.16" x2="36.44" y2="41.07" gradientTransform="matrix(1, 0, 0, 1, 0, 0)" gradientUnits="userSpaceOnUse"><stop offset="0" stop-color="#ceddee"/><stop offset=".69" stop-color="#729ece"/></linearGradient><linearGradient id="linear-gradient-12" x1="32.15" y1="32.92" x2="33.21" y2="37.15" gradientTransform="matrix(1, 0, 0, 1, 0, 0)" gradientUnits="userSpaceOnUse"><stop offset="0" stop-color="#729ece"/><stop offset=".99" stop-color="#204a86"/></linearGradient><linearGradient id="linear-gradient-13" x1="15.04" y1="30.42" x2="13.88" y2="36.67" xlink:href="#linear-gradient-11"/><linearGradient id="linear-gradient-14" x1="12.08" y1="32.2" x2="11.73" y2="37" xlink:href="#linear-gradient-12"/><linearGradient id="linear-gradient-15" x1="41.87" y1="18.58" x2="39.28" y2="33.86" xlink:href="#linear-gradient-9"/><linearGradient id="linear-gradient-16" x1="41.33" y1="29.63" x2="42.31" y2="33.01" xlink:href="#linear-gradient-12"/><linearGradient id="linear-gradient-17" x1="26.08" y1="27.61" x2="34.45" y2="39.09" xlink:href="#linear-gradient"/><linearGradient id="linear-gradient-18" x1="22.84" y1="19.68" x2="24.59" y2="29.41" gradientTransform="translate(1.4) skewX(-2.12)" xlink:href="#linear-gradient-9"/><linearGradient id="linear-gradient-19" x1="18.83" y1="24.27" x2="21.47" y2="28.76" xlink:href="#linear-gradient-9"/><linearGradient id="linear-gradient-20" x1="22.2" y1="31.44" x2="21.86" y2="28.33" xlink:href="#linear-gradient"/><linearGradient id="linear-gradient-21" x1="25.24" y1="26.97" x2="29.41" y2="33.2" xlink:href="#linear-gradient"/><linearGradient id="linear-gradient-22" x1="22.49" y1="28.08" x2="26.65" y2="34.31" xlink:href="#linear-gradient"/><linearGradient id="linear-gradient-23" x1="19.68" y1="29.95" x2="19.87" y2="26.27" xlink:href="#linear-gradient"/><linearGradient id="linear-gradient-24" x1="29.42" y1="25.43" x2="28.89" y2="20.78" xlink:href="#linear-gradient"/><linearGradient id="linear-gradient-25" x1="47.82" y1="27.32" x2="43.26" y2="30.43" gradientTransform="matrix(1, 0, 0, 1, 0, 0)" gradientUnits="userSpaceOnUse"><stop offset=".11" stop-color="#ededeb"/><stop offset="1" stop-color="#b9bcb5"/></linearGradient><linearGradient id="linear-gradient-26" x1="47.13" y1="26.31" x2="42.58" y2="29.43" xlink:href="#linear-gradient-25"/><linearGradient id="linear-gradient-27" x1="23.75" y1="17.74" x2="23.75" y2="38.3" xlink:href="#linear-gradient-2"/><linearGradient id="linear-gradient-28" x1="20.02" y1="37.05" x2="21.97" y2="39.2" gradientTransform="translate(-1.16 -4.04) rotate(-2.87)" xlink:href="#linear-gradient"/><linearGradient id="linear-gradient-29" x1="21.08" y1="38.65" x2="20" y2="36.66" gradientTransform="translate(-1.16 -4.04) rotate(-2.87)" xlink:href="#linear-gradient-8"/><linearGradient id="linear-gradient-30" x1="8.95" y1="27.49" x2="10.33" y2="30.25" xlink:href="#linear-gradient"/><linearGradient id="linear-gradient-31" x1="10.08" y1="29.95" x2="8.91" y2="27.27" xlink:href="#linear-gradient-8"/><linearGradient id="linear-gradient-32" x1="22.18" y1="39.07" x2="22.76" y2="41.13" gradientTransform="translate(-1.16 -4.04) rotate(-2.87)" xlink:href="#linear-gradient"/><linearGradient id="linear-gradient-33" x1="22.46" y1="39.84" x2="22.14" y2="39.15" gradientTransform="translate(-1.16 -4.04) rotate(-2.87)" xlink:href="#linear-gradient-8"/><linearGradient id="linear-gradient-34" x1="26.36" y1="4.5" x2="27.01" y2="6.83" gradientTransform="translate(.9 19.72) rotate(18.63) scale(1 1.04) skewX(1.41)" xlink:href="#linear-gradient"/><linearGradient id="linear-gradient-35" x1="24.5" y1="33.25" x2="24.22" y2="32.51" xlink:href="#linear-gradient-8"/><linearGradient id="linear-gradient-36" x1="35.1" y1="26.54" x2="37.4" y2="28.18" xlink:href="#linear-gradient"/><linearGradient id="linear-gradient-37" x1="36.61" y1="28.09" x2="34.69" y2="25.25" xlink:href="#linear-gradient-8"/></defs><g style="isolation:isolate;"><g id="shadow" style="mix-blend-mode:multiply; opacity:.45;"><ellipse cx="24" cy="33.08" rx="22.82" ry="10.14" style="fill:url(#radial-gradient);"/></g><g id="ART"><g><path d="M36.07,18.91c-.18-.23-1.57,.85-1.7,1.03-.12,.16-.21,.34-.32,.51-.34,.53-.65,.71-1.21,.89l-.58,.19c0-1.31,.29-2.62,.84-3.8,.15-.34,.34-.68,.65-.87,.06-.04,.12-.07,.18-.08,.19,.34,.87,1.54,1.1,1.63,.27,.12,.81,.31,.81,.31,.08,.05,.16,.11,.22,.19Z" style="fill:url(#linear-gradient);"/><path d="M36.07,18.91c-.18-.23-1.57,.85-1.7,1.03-.12,.16-.21,.34-.32,.51-.34,.53-.65,.71-1.21,.89l-.58,.19c0-1.31,.29-2.62,.84-3.8,.15-.34,.34-.68,.65-.87,.06-.04,.12-.07,.18-.08,.19,.34,.87,1.54,1.1,1.63,.27,.12,.81,.31,.81,.31,.08,.05,.16,.11,.22,.19Z" style="fill:none; stroke:url(#linear-gradient-2); stroke-miterlimit:10; stroke-width:.7px;"/><path d="M13.7,19.6c.17,.1,.44,.73,1.03,1.13,.2,.13,.48,.05,.7,.03,.38-.03,.73-.03,1.11-.14,.04-.01,.09-.03,.11-.06,.03-.05,0-.12-.02-.18-.25-.54-.62-1.03-1.06-1.41-.39-.34-.7-1.06-1.14-1.28-.05-.03-.11-.04-.17-.05-.2-.03-.39,.05-.58,.13-.55,.23-1.02,.56-1.57,.39-.33-.1-.69-.05-1.04,0-.16,.02-.33,.04-.48,.14,.44,.08,.86,.29,1.19,.59,.33,.29,.63,.7,1.07,.71,.12,0,.24-.03,.36-.04,.19-.01,.35,0,.47,.06Z" style="fill:url(#linear-gradient-3);"/><path d="M13.06,18.05c-.31,.13-.61,.2-.94,.11s-.69-.05-1.04,0c-.28,.04-.62,.07-.77,.36-.09,.17-.09,.37-.08,.57,.02,.32,.11,.64,.28,.91,.16,.24,.38,.42,.61,.6,.33,.25,.68,.49,1.07,.65,.43,.17,.89,.24,1.35,.31,.5,.07,1.01,.14,1.51,.13s1.02-.12,1.46-.38c.19-.11,.38-.29,.36-.51-.01-.16-.13-.27-.23-.38-.13-.15-.16-.26-.23-.43-.15-.38-.54-.74-.84-1.01-.39-.34-.7-1.06-1.14-1.28-.05-.03-.11-.04-.17-.05-.2-.03-.39,.05-.58,.13-.22,.09-.43,.2-.63,.29Z" style="fill:none; stroke:url(#linear-gradient-4); stroke-miterlimit:10; stroke-width:.7px;"/><g><path d="M17.79,20.52c-.06,.61,.05,.86,.07,.96v.05c.62,.08,1.27-.21,1.84-.49,.39-.19,.77-.42,1.18-.56s.87-.17,1.25,.02c.36,.18,.59,.54,.9,.81,.29,.25,.64,.41,1.01,.47,.42,.06,.86,0,1.26,.14,.6,.22,.95,.85,1.48,1.23,.14,.1,.29,.18,.45,.2,.8,.09,1.41-.77,1.93-1.28,.4-.4,.86-.71,1.32-1.02,.07-.05,.15-.1,.24-.12,.12-.03,.24,.02,.35,.05,.33,.11,.61,.2,.9,.23,.13-.19,.28-.4,.36-.54,.15-.27,.47-.79,.49-.88,.02-.08-.02-.21-.04-.29-.03-.08-.19-.19-.19-.3s.17-.11,.22-.17c.04-.06,.05-.18,.06-.26,0-.08,.24-.44,.31-.71,.06-.27,.09-.17,.16-.26,.07-.09,.1-.26,.09-.38s.25-.65,.3-.96c.05-.32,.16-.91,.15-1.31s-.12-.64-.19-.76c-.06-.13-.08-.71-.1-.85-.03-.14-.09-.25-.19-.43-.1-.17-.07-.42-.16-.61-.09-.2-.65-.75-.79-.83-.14-.08-.65-.29-.91-.37-.23-.25-.82-.86-1.05-.98-.24-.12-1.65-.77-1.86-.82-.21-.05-.42-.05-.54-.04s-.47-.16-.69-.2c-.22-.04-1.32-.09-1.46-.05-.14,.04-.02,.13-.27,.18-.25,.05-.86-.07-1-.03-.14,.04-.2,.3-.36,.39-.16,.1-.66,.05-.79,.16-.13,.11-.54,.68-.62,.77-.08,.1-.59,.11-.97,.36-.29,.2-.4,.42-.55,.59-.15,.18-.5,.24-.79,.59-.29,.35-.57,.93-.73,1.2-.16,.27-.47,.04-.83,1.13-.35,1.09-.31,1.26-.32,1.46,0,.2-.36,.43-.9,2.4-.21,.78-.15,1.26-.14,1.5s.14,.43,.12,.59Z" style="fill:#ef8086; stroke:#ec666d; stroke-width:.49px;"/><g><path d="M25.65,9.39s-.01,0-.02,0h.02Z" style="fill:url(#linear-gradient-5); stroke:#ec666d; stroke-width:.49px;"/><path d="M13.69,20.13c.04,.12,.16,.43,.34,.59,.19,.16,.35,.21,.54,.38,.03,.03,.06,.06,.1,.09,.1-.05,.19-.12,.24-.22,.09-.16,.1-.41,.27-.47,.06-.02,.12-.01,.17,0,.37,.05,.82,.08,1.16,.23,.27,.12,.46,.39,.7,.56,.21,.15,.43,.22,.65,.25v-.05c-.02-.11-.14-.35-.07-.96,.02-.16-.12-.35-.12-.59s-.07-.71,.14-1.5c.54-1.97,.89-2.2,.9-2.4,0-.2-.04-.37,.32-1.46,.35-1.09,.66-.86,.83-1.13,.16-.27,.44-.84,.73-1.2,.29-.35,.64-.41,.79-.59,.15-.18,.26-.4,.55-.59,.38-.26,.89-.27,.97-.36,.08-.1,.49-.67,.62-.77,.12-.11,.63-.07,.79-.16,.16-.1,.22-.35,.36-.39,.14-.04,.72,.08,.98,.03-.22-.01-.36-.05-.46-.14-.11-.1-.08-.18-1.08-.35-1-.17-2.16-.27-3.66,.36-1.5,.62-1.51,.86-1.67,.95-.16,.1-1.34,.74-1.62,1.02-.28,.28-.42,.36-.51,.49-.09,.13-.14,.33-.29,.44-.16,.11-1.06,1.04-1.33,1.5-.28,.46-.36,.7-.48,.9-.12,.2-.58,.74-.82,1.22-.24,.48-.47,1.15-.47,1.33s.25,.57,.25,.68-.3,.35-.31,.5c-.01,.15,.05,.54,.1,.85,.04,.31,.03,.51,.11,.65,.08,.14,.28,.21,.32,.34Z" style="fill:url(#linear-gradient-6); stroke:#ec666d; stroke-width:.49px;"/></g><path d="M30.04,21.45c.14-.06,.24-.19,.37-.27,.22-.14,.5-.14,.76-.11s.53,.05,.77-.06c.1-.05,.18-.11,.26-.18,.12-.1,.24-.2,.31-.34,.06-.13,.07-.27,.08-.41,0-.22,0-.44,0-.66,0-.06,0-.13-.02-.19-.03-.1-.11-.17-.15-.27-.05-.11-.04-.24-.08-.35,0-.02-.02-.05-.04-.06-.04-.02-.08,.01-.09,.05s0,.08,0,.12c0,.1-.02,.2-.04,.3-.06,.26-.13,.53-.26,.76-.04,.06-.08,.13-.13,.18-.09,.09-.21,.13-.34,.17-.29,.08-.61,.08-.88,.23-.12,.06-.23,.15-.33,.24-.28,.23-.56,.46-.83,.71-.11,.1-.18,.14-.33,.18l-.49,.15c-.11,.03-.24,.06-.33,0-.23-.17,.17-.25,.24-.3,.2-.12,.39-.29,.58-.44,.31-.24,.66-.51,.82-.6,.37-.19,1.17-.67,1.37-.82,.15-.12,.29-.35,.44-.6,.07-.12,.14-.24,.21-.33,.07-.1,.33-.28,.45-.17,.07,.07,.02,.18,.04,.28,.02,.07,.08,.13,.12,.19,.04,.06,.07,.15,.02,.21,.14-.14,.25-.31,.36-.48l.58-.9c.09-.15,.19-.3,.24-.46,.05-.18,.05-.37,.05-.56v-.73c-.28,.47-.57,1.32-1.01,1.63-.2,.15-1.23,.39-1.22,.71-.07,.1-.15,.23-.23,.37-.11,.18-.24,.41-.33,.47-.14,.11-.3,.25-.48,.29s-.36,.03-.54,.06c-.02,0-.04,0-.06,.02-.02,.01-.03,.04-.04,.06-.08,.18-.2,.37-.38,.47s-.36,.17-.5,.32c-.09,.09-.16,.2-.24,.29-.14,.16-.33,.28-.54,.3s-.44-.07-.54-.25c-.06-.1-.1-.23-.22-.24-.12,0-.18,.13-.25,.23-.13,.19-.38,.25-.6,.28-.21,.03-.44,.05-.62-.06-.14-.09-.22-.25-.29-.4l-.14-.3s-.03-.05-.06-.06c-.02,0-.04,.01-.05,.03-.07,.06-.14,.14-.19,.22-.03,.05-.06,.1-.1,.14-.11,.09-.24,.04-.36,.02-.14-.03-.26,0-.39,.03-.37,.08-.75,.07-1.11-.04-.27-.08-.52-.21-.79-.25-.21-.03-.44,.02-.6,.15,.09,.02,.19,.05,.27,.1,.36,.18,.59,.54,.9,.81,.29,.25,.64,.41,1.01,.47,.42,.06,.86,0,1.26,.14,.6,.22,.95,.85,1.48,1.23,.14,.1,.29,.18,.45,.2,.8,.09,1.41-.77,1.93-1.28,.38-.38,.81-.68,1.25-.99l-1.11,.33" style="fill:#cd595f;"/><path d="M28.02,9.47c.12,.05,.42,.19,.82,.46,.4,.26,1.08,.86,1.14,.94,.07,.07,.63,1.21,.89,1.6,.26,.39,1.19,1.82,1.25,1.97,.06,.15,.18,.58,.2,.76,.02,.19-.04,1.07-.08,1.25-.04,.18-.26,.82-.33,1.02-.07,.2-.22,.79-.3,.92" style="fill:none; stroke:#cd595f; stroke-width:.49px;"/><path d="M24.09,19.44c-.21-.1-.96-1.57-1.45-1.99-.49-.43-.86-.85-2.17-1.04-1.31-.19-1.34-.17-1.52-.27-.18-.1-.25-.11-.25-.06,0,.05-.06,.17-.1,.21-.03,.1,.08,.02,.27,.04,.19,.01,.67,.25,.98,.3,.31,.05,1.36,.19,1.63,.35,.28,.16,1.16,.71,1.41,1.02,.25,.31,.47,.79,.56,.93,.09,.14,.33,.47,.44,.5,.11,.03,.33,.08,.2,.01Z" style="fill:#ec666d;"/><path d="M20.45,14c.2-.17,1.97-.43,2.46,.09,.49,.52,.85,1.63,1.18,2.19,.33,.56,.54,1.07,.95,1.55,.42,.49,.75,.89,.75,1.18,0,.3-.14,.63-.22,.91-.06,.22-.12,.48-.21,.68-.06,.13-.19,.33-.33,.38-.14,.06-.3,.13-.44,.17-.16,.04-.32,.05-.48,.05-.18,0-.36,.01-.53-.04-.12-.04-.23-.1-.34-.17-.6-.35-1.27-.68-1.97-.61-.49,.05-.93,.29-1.42,.32-.21,.01-.41,.16-.6,.24-.24,.1-.49,.17-.74,.22-.08,.02-.16,.03-.23,.01-.1-.02-.18-.09-.26-.16-.07-.06-.15-.13-.19-.22-.04-.08-.03-.18-.03-.26v-.77c.05,.12,.1,.25,.19,.33s.23,.13,.35,.08c.02,0,.04-.02,.04-.03,.01-.02,.01-.04,0-.06-.03-.16-.17-.29-.22-.45s-.08-.39,.08-.49c.11-.07,.18,.01,.28,.02,.05,0,.13-.03,.18-.04,.16-.03,.32-.06,.49-.1,.25-.05,.59-.06,.81-.19,.18-.1,.65-.15,.73-.07,.07,.08,.23,.58,.42,.72,.19,.14,.61,.4,1.02,.47,.42,.08,1.16,.02,1.39,.05,.54,.06,1,.59,1.54,.22,.22-.15,.29-.41,.38-.65,.06-.16,.16-.39,.12-.57-.06-.28-.85-1.21-1.22-1.84-.73-1.23-1.15-2.46-1.31-2.64-.16-.18-.32-.52-.98-.57-.66-.04-1.36,.06-1.55,.16-.19,.1-.23-.04-.1-.15Z" style="fill:#d95f65;"/><path d="M22.69,10.76c.3,.01,.7,.24,.94,.34,.24,.1,.64,.33,.83,.52,.2,.19,.14,.29,.05,.41-.09,.12-.14,.38-.31,.53-.17,.15-.73,.52-.9,.77-.17,.25-.31,.7-.53,.67,.1,.03,.21,.2,.21,.2,0-.18,.25-.55,.4-.65,.15-.11,.54-.59,.63-.71,.09-.11,.35-.28,.38-.37,.03-.09,.12-.37,.27-.5,.15-.14,.17-.19-.08-.39-.26-.2-.6-.46-.78-.51-.19-.05-.52-.21-.68-.31-.16-.09-.14-.16-.13-.22-.06,.1-.14,.23-.31,.22Z" style="fill:#d95f65;"/><path d="M19.76,13.54c.27-.14,.55-.29,.7-.34,.15-.05,.65-.22,.76-.31,.12-.09,.44-.25,.57-.26,.13-.01,.48,.16,.65,.15,.17-.01,.28-.18,.18-.18s-.15,.07-.34,.03c-.19-.04-.37-.08-.3-.11,.07-.02,.36-.14,.41-.21,.05-.07,.29-.27,.29-.34-.11,.1-.23,.24-.32,.29-.1,.05-.51,.15-.61,.22-.1,.06-.58,.37-.71,.4-.13,.03-.55,.22-.66,.26-.11,.05-.27,.21-.31,.16-.04-.05-.03-.19-.03-.19-.06,.15-.28,.43-.28,.43Z" style="fill:#d95f65;"/><path d="M25.14,14.05c-.05-.06-.15-.1-.32-.01-.17,.09-.13,.27-.08,.35,.05,.08,.77,1.4,.78,1.67s-.24,.97-.38,1.16c-.14,.2-.04,.32-.04,.34,0,.02,.17-.33,.24-.41,.07-.08,.34-.65,.34-.75s-.08-.57-.13-.72c-.06-.16-.57-1.04-.6-1.25-.04-.21,0-.23,.05-.23s.16-.03,.16-.06-.01-.08-.01-.08Z" style="fill:#ec666d;"/><path d="M25.98,15.92c.14-.22,.48-.96,.5-1.03,.02-.07,.07-.97,.15-1.04,.08-.07,.24,.02,.43,.12,.19,.1,.77,.37,.92,.4,.14,.03,.86,.22,.99,.26,.13,.03,.22,.2,.28,.28,.05,.07,.38,.66,.42,.74,.05,.08,.12,.24,.03,.31-.09,.06-.18,.18-.26,.22-.08,.03-.3,.32-.48,.32-.18,0-.48,0-.65-.16-.17-.17-.51-.14-.52-.28s-.07-.18-.11-.17c-.04,.02-.21,.25-.1,.34,.11,.09,.59,.28,.74,.37,.15,.09,.15,.17,.14,.23,0,.06,.09,.18,.17,.09,.08-.09,.08-.16,.02-.24-.05-.08-.21-.08-.19-.13,.02-.05,.25,.05,.41,.04s.27-.17,.37-.21c.1-.04,.36-.07,.47-.22,.11-.15,.19-.23,.16-.35-.03-.12-.28-.56-.49-.86-.21-.29-.34-.37-.34-.48s.01-.31-.09-.45c-.11-.14-.13-.23-.11-.31,.01-.08,.03-.25-.02-.3-.05-.05-.17-.06-.18,0-.01,.05,.02,.28,.07,.36,.05,.07,.22,.36,.22,.51s.04,.22-.02,.22-.44-.12-.7-.21c-.26-.09-.98-.36-1.12-.42-.14-.06-.35-.12-.34-.25,0-.14,.2-.5,.41-.65,.21-.15,.25-.58,.24-.8s-.15-.48-.49-.68c-.34-.2-1.14-.69-1.4-.85-.25-.16-.37-.22-.43-.29-.06-.07-.12-.16-.23-.14-.11,.03,.03,.17,.12,.22,.08,.05,1.11,.7,1.4,.87,.29,.18,.73,.45,.77,.69,.04,.24,.06,.58-.1,.79-.16,.21-.45,.54-.5,.76-.05,.23-.2,.86-.3,1.21-.1,.35-.38,.99-.36,1.09,.03,.1,.06,.13,.11,.06Z" style="fill:#d95f65;"/><path d="M24.3,9.75c.11-.05,.3-.04,.43,0,.14,.03,.66,.21,.79,.23,.13,.02,.59,.12,.65,.08,.07-.04,.07,.08-.08,.11-.15,.03-.44-.06-.65-.1-.2-.04-.7-.24-.83-.23s-.36-.03-.45-.02c.06-.02,.14-.05,.14-.05Z" style="fill:#d95f65;"/><path d="M25.65,9.4c.12,0,.68,.16,.8,.2,.13,.04,.72,.34,.9,.47,.18,.13,.71,.81,.82,.92,.12,.11,.3,.35,.39,.31,.1-.04,.04-.07-.03-.18-.08-.11-.58-.61-.74-.78-.16-.17-.33-.34-.49-.43-.17-.09-.79-.33-.92-.38-.12-.06-.65-.16-.65-.16l-.08,.03Z" style="fill:#d95f65;"/><path d="M30.78,18.74c0-.19,0-.39,.01-.58,.02-.32,.02-1.09-.03-1.16-.05-.07-.03-.22-.05-.34-.02-.12-.23-.35-.23-.47,0-.11-.09-.77-.14-1.1-.05-.33-.09-1-.22-1.11-.13-.1-.51-.61-.65-.7-.14-.09-.27-.24-.29-.31-.03-.07-.06-.08-.02-.11,.04-.03,.16,.18,.24,.25,.08,.06,.43,.36,.56,.48,.13,.11,.24,.31,.28,.38,.04,.08,.16,.52,.17,.63,.01,.11,.1,1.11,.13,1.26,.03,.15,.03,.31,.08,.42,.04,.11,.17,.24,.19,.57,.02,.33,.1,.65,.09,1.15-.01,.45,0,.96-.19,1.37-.03-.05-.02-.11,0-.16,.04-.17,.06-.31,.07-.48Z" style="fill:#d95f65;"/><path d="M26.81,16.92c.07-.03,.1,.04,.08,.1s-.07,.08-.11,.12c-.04,.04-.08,.18-.03,.26,.04,.08,.17,.37,.3,.47,.04,.09,.14,.31,.28,.4,.1,.06,.12,.29,.22,.27,.1-.01,.41-.23,.53-.29,.11-.06,.4-.19,.53-.23,.13-.05,.28-.18,.41-.2,.13-.02,.31-.1,.39-.15,.09-.05,.08,.04,0,.08-.08,.04-.39,.15-.49,.23-.1,.08-.32,.2-.41,.24-.09,.05-.29,.05-.6,.25-.3,.2-.36,.34-.43,.47-.07,.13-.26,.39-.3,.63-.04,.23-.01,.35,.05,.4,.11,.1,.26,.43,.21,.57-.04,.1-.14,.17-.25,.17,.06-.17,.05-.34,.01-.51-.03-.12-.09-.21-.13-.32-.03-.09-.05-.27,0-.37,.05-.1,.36-.6,.39-.69,.04-.1-.02-.19-.11-.3-.09-.11-.21-.33-.3-.41s-.2-.25-.27-.36c-.07-.1-.12-.24-.13-.39-.01-.15-.06-.25,.02-.29,.08-.04,.1,.03,.13-.03,.03-.06,.03-.1,.03-.1Z" style="fill:#d95f65;"/><path d="M28.59,19.66c.09-.05,.22,.05,.22,.08s-.09-.03-.11,.05c-.02,.08-.07,.17,.06,.24,.13,.08,.1,.06,.16,.16,.06,.09,.02,.05-.1-.01-.12-.06-.28-.08-.31-.2-.02-.12-.06-.26,.07-.32Z" style="fill:#ec666d;"/><path d="M29.91,19.09s.02-.13-.07-.17c-.09-.04-.11-.08-.05-.1,.06-.02,.14,.02,.16,0,.02-.03-.21-.1-.33-.08-.12,.01-.2-.07-.2-.03s.16,.12,.21,.19c.06,.07,.21,.26,.27,.2Z" style="fill:#ec666d;"/><path d="M14.96,20.84c.05-.14,.09-.3,.22-.35,.06-.02,.12-.01,.17,0,.37,.05,.82,.08,1.16,.23,.27,.12,.46,.39,.7,.56,.16,.12,.34,.18,.51,.22,.03-.02,.05-.04,.07-.07,.05-.08,.05-.18,.04-.28-.01-.32-.05-.64-.06-.95,0-.07,0-.14,0-.21,0-.09,0-.18-.04-.28-.02-.07-.08-.12-.1-.19s0-.16,0-.23c0-.22,.02-.45,.05-.67-.11,.28-.3,.52-.54,.71-.07,.06-.15,.12-.24,.15-.11,.05-.23,.06-.34,.07-.22,.02-.45,.02-.65-.09-.09-.05-.18-.13-.28-.14-.16-.01-.27,.13-.4,.22-.22,.16-.52,.18-.78,.1s-.48-.25-.68-.43c-.02-.02-.04-.04-.06-.04-.06,0-.08,.08-.08,.14,.02,.15,.07,.3,.16,.43,.09,.14,.22,.22,.34,.33,.13,.13,.23,.28,.36,.41s.29,.25,.45,.35Z" style="fill:#cd595f;"/><path d="M13.49,17.82c.11-.15,.31-.31,.43-.35,.12-.04,.4-.11,.5-.01,.1,.1,.21,.36,.27,.45,.07,.08,.23,.05,.28,.09,.04,.04,.39,.45,.4,.52s-.06,.22-.01,.26c.04,.04,.16-.03,.18-.09,.02-.05,.03-.25,0-.3-.03-.05-.35-.5-.43-.51-.07-.01-.24,0-.36-.13-.12-.13-.32-.47-.4-.47s-.23,.07-.34,.12c-.11,.05-.39,.11-.42,.1-.03,0-.24-.12-.3-.19,.08,.11,.21,.51,.21,.51Z" style="fill:#d95f65;"/><path d="M13.77,16.18c.12-.12,.23-.34,.38-.42,.14-.08,.43-.38,.56-.35,.13,.03,.38,.3,.68,.32,.31,.02,1.13,0,1.33,.05,.2,.06,1.07-.03,1.3-.13,.23-.1,.32,.17,.42,.18,.06,0-.14,.14-.32,.14s-.53-.14-.71-.11c-.17,.03-1.06-.06-1.23-.06s-.9,.06-1.22-.08c-.32-.13-.45-.07-.64,.05-.19,.12-.44,.43-.58,.56-.14,.12-.26,.22-.26,.16s.17-.2,.28-.31Z" style="fill:#d95f65;"/><path d="M19.4,13.8c-.18-.17-.75-.49-.87-.9-.12-.42-.27-.65-.23-.92,.04-.28-.08-.19-.16-.18-.08,.01-.4,.1-.54,.08-.14-.03-.22,0-.14,.06,.08,.05,.39,.04,.51,0,.12-.04,.14,.03,.16,.19,.01,.16-.02,.69,.16,.82,.18,.13,.32,.46,.55,.56,.23,.1,.42,.33,.42,.38s-.03,.2-.03,.23c.11-.22,.18-.31,.18-.31Z" style="fill:#cd595f;"/><path d="M19.38,11.38c0-.07,.11-.14,.15-.12,.04,.02,.04,.19,.12,.25,.08,.06,.45,.37,.56,.45,.12,.09,.29,.26,.35,.23,.06-.03,.03,.04,.03,.04-.06,.05-.18,.23-.18,.23-.06-.16-.29-.26-.35-.33-.05-.07-.18-.24-.35-.36-.17-.12-.35-.29-.35-.4Z" style="fill:#bc5157;"/><path d="M22.21,10.9c-.06,0-.33-.1-.52-.24-.19-.14-.44-.25-.66-.25s-1.09,0-1.3,.06c-.2,.07-.29,.13-.35,.21-.06,.07,.19-.09,.33-.11s.91-.07,1.14-.04c.24,.03,.56,.05,.77,.22,.21,.18,.29,.31,.29,.31,.1-.11,.29-.15,.29-.15Z" style="fill:#bc5157;"/><path d="M17.08,11.9s-.23,.35-.19,.45c.03,.1,.29,.41,.43,.5,.14,.09,.22,.29,.21,.37,0,.08-.11,.39-.24,.38-.13,0-.1-.05-.03-.09,.07-.04,.16-.16,.14-.32-.01-.16-.1-.25-.21-.34-.11-.09-.28-.34-.34-.39-.05-.05-.05-.11,.03-.25,.09-.13,.2-.32,.2-.32Z" style="fill:#cd595f;"/><path d="M15.38,13.77c.11-.07,.2-.31,.53-.48,.33-.17,.52-.3,.61-.29,.09,0,.3,.02,.27-.08-.02-.1-.08-.14-.07-.22,0-.08,0-.22,.07-.22s.11-.13,0-.08c-.1,.04-.17,.13-.17,.21s.07,.24,0,.25c-.06,.01-.21-.04-.33,.04-.11,.08-.6,.38-.66,.45-.06,.07-.27,.43-.27,.43Z" style="fill:#cd595f;"/><path d="M24.65,9.36c.19-.03-1.12-.27-1.3-.29-.18-.02-1.85-.02-2.11,.06-.26,.08-.73,.28-.93,.36-.07,.02,.06,.04,.22,.03s.51,.02,.73,.02c.22,0,.8,0,.98,.03,.18,.03,.83,.11,.98,.21,.15,.1,.13,.05,.13,.12s.01,.18,0,.21c.07-.09,.11-.16,.18-.19,.07-.03,.15-.06,.15-.06-.27-.1-.53-.28-.74-.29-.21,0-1.01-.06-1.21-.06-.2,0-1.17,.03-1.15-.03,.02-.05,.14-.1,.32-.17,.18-.07,.4-.16,.77-.17s1.61,0,1.83,.04c.22,.03,.85,.15,.88,.21,.02,.06-.03,.36-.08,.39,.1-.08,.19-.23,.24-.28,.04-.06,.05-.1,.11-.11Z" style="fill:#bc5258;"/><path d="M18.78,10.21c.21-.05,.51-.14,.59-.18-.16,.03-.44,.11-.41,.06,.03-.05,.07-.1,.07-.1-.11,.1-.25,.23-.25,.23Z" style="fill:#ec666d;"/><path d="M30.75,12.9c0-.11-.24,.15-.24,.22s.06,.14,.12,.04c.06-.1,.12-.21,.11-.26Z" style="fill:#ec666d;"/><path d="M31.8,11.51c-.06-.04-.16-.04-.15,.01,0,.05,.14,.32,.32,.46,.18,.14,.34,.61,.35,.69,.01,.08,.09,.92,.17,1.01,.08,.1,.31,.53,.38,.63,.07,.11,.26,.69,.31,.78,.05,.1,.08,.35,.14,.79,.07,.45,.18,.52,.22,.47,.04-.04,0-.02-.08-.24-.07-.22-.11-.62-.14-.84-.03-.21-.27-.77-.38-.97-.11-.19-.22-.39-.25-.64-.03-.24-.16-.65-.25-.93-.08-.28-.25-.63-.32-.71-.07-.08-.32-.32-.32-.39s0-.16,0-.16Z" style="fill:#d95f65;"/><path d="M32.75,12.22c.09-.01,.22,.15,.18,.17-.04,.02-.05,.08-.01,.16,.04,.09,.21,.46,.29,.55,.08,.09,.28,.32,.31,.33,.03,0,.05,.2,.05,.23s.04,.2-.07,.07c-.11-.14-.22-.32-.27-.44-.05-.12-.19-.42-.26-.55-.07-.13-.12-.29-.13-.36,0-.07-.14-.15-.08-.16Z" style="fill:#d95f65;"/><path d="M32.59,19.27c0,.07-.06,.37-.06,.46s.09-.03,.11-.15c.02-.12-.05-.31-.05-.31Z" style="fill:#cd595f;"/><path d="M31.06,20.97c.26,.09,.49,.15,.72,.19,.06-.05,.13-.09,.18-.15,.12-.12,.24-.25,.32-.4,.08-.15,.12-.33,.08-.5-.05,.06-.14,.09-.21,.05-.13-.07-.07-.26-.06-.37,0-.13,.07-.47,.06-.6s.13-.26,.21-.34c.08-.07-.03-.15-.1-.07,0,0-.07,.12-.12,.21-.06,.08-.06,.34-.08,.63-.02,.29-.1,.42-.18,.53-.1,.14-.36,.17-.5,.29-.17,.14-.29,.32-.49,.43-.03,.02-.07,.04-.1,.05,.09,0,.18,.02,.27,.05Z" style="fill:#cd595f;"/><path d="M32.21,18.68s-.04-.1-.05-.14c-.03-.08-.11-.15-.2-.16,.07-.09,.16-.17,.27-.2s.24,0,.31,.08c.05,.07,.06,.16,.09,.24,.02,.03,.04,.06,.05,.1,.03,.09,.02,.19,0,.28-.03,.13-.07,.25-.12,.37,0,.02-.02,.04-.03,.05-.03,.02-.06,.01-.09,0s-.04-.05-.05-.07c-.06-.13-.11-.26-.15-.39" style="fill:#cd595f;"/><path d="M29.38,21.84c.16-.14,.33-.27,.51-.4-.78,.24-1.57,.49-2.35,.73-.12-.3,.12-.32,.27-.45,.08-.06,.11-.16,.68-.68-.61,.56-1.71,1.21-2.4,.46-.21-.23-.39-.5-.67-.61-.33-.13-.7,.02-1.03-.1-.27-.1-.32-.35-.61-.43-.6-.17-1.24-.09-1.86-.08s-1.3-.09-1.74-.54l-1.14,.3c-.08,.02-.16,.04-.22,.09-.11,.1-.13,.27-.25,.37-.09,.07-.21,.07-.32,.06-.48-.07-.86-.55-.84-1.03,0,.17-.89,.26-1.02,.24-.44-.05-.88-.08-1.3,.07-.2,.07-.41,.18-.61,.11-.19-.07-.3-.29-.5-.33-.1,.41,.06,.87,.39,1.14,.33,.27,.77,.33,1.19,.37,.91,.09,1.82,.13,2.73,.14,.8,0,1.58-.16,2.37-.21,.58-.04,1.17,.02,1.73,.17,.19,.05,.38,.12,.56,.2,.35,.14,.69,.29,1.06,.35,.42,.06,.86,0,1.26,.14,.6,.22,.95,.85,1.48,1.23,.14,.1,.29,.18,.45,.2,.76,.09,1.34-.66,1.8-1.16,.59-.64,1.09-1.28,1.92-1.65,.3-.14,.64-.23,.87-.47,.17-.17,.27-.41,.46-.56-.06,.86-.54,1.69-1.26,2.16-.26,.17-.54,.3-.81,.42l-2.34,1.05" style="fill:#853c41;"/><path d="M18.48,19c.16,.02,.34-.05,.49-.1,.21-.06,.42-.11,.64-.15,.22-.04,.81-.25,.96-.21,.15,.04,.43,.52,.59,.75,.17,.23,.78,.54,1.02,.53s.99-.07,1.16-.07,.77-.04,.83,.02c.07,.06,.53,.4,.69,.35,.17-.05,.55-.69,.54-.99,0-.22-.5-.74-.72-1.04-.22-.3-1.02-1.71-1.08-1.94-.06-.23-.67-1.68-.87-1.78-.21-.11-.87-.22-1.16-.21s-1.08,.14-1.21,.25c-.13,.11-.47-.08-.25-.33,.22-.25,.82-.37,1.07-.37s1.27,.02,1.43,.06c.15,.04,.33-.07,.5-.36,.18-.3,.2-.59,.52-.78,.32-.19,.54-.13,.58-.27,.04-.14,.38-.47,.21-.61-.17-.15-.75-.43-.9-.43s-.32,.2-.51,.12c-.19-.08,.02-.26-.15-.33-.17-.07-.53-.21-.76,0-.23,.21-.41,.54-.49,.62-.08,.09-.59,.19-.73,.38-.14,.19-.52,.81-.44,.85,.08,.04,.6-.15,.79-.25,.18-.1,.55-.45,.73-.45s.32-.04,.38-.12c.06-.09,.48-.37,.52-.3,.04,.07-.11,.42-.23,.49-.12,.07,.16,.09,.18,.17,.02,.08-.03,.31-.21,.36-.19,.05-.52-.09-.69-.06-.17,.03-1.08,.32-1.31,.47-.23,.15-.82,.35-.9,.6-.08,.25-.85,1.79-.51,1.99,.34,.2,1.99,.43,2.33,.55s1.44,1.05,1.71,1.51c.27,.46,.6,1.17,.72,1.26,.11,.09,.29,.32,.23,.32s-.43,0-.49-.1c-.06-.1-.79-1.33-.89-1.38-.1-.04-1.55-1.14-1.97-1.13-.42,0-1.13-.01-1.35-.14-.22-.13-.45-.27-.66-.08-.21,.19-.5,.59-.59,1.09-.04,.22-.06,.44-.08,.66-.01,.14,0,.41,.12,.5,.06,.05,.13,.07,.2,.07Z" style="fill:url(#radial-gradient-2);"/><path d="M26.13,20.26c.11,.09,.26,.13,.39,.09,.05-.01,.09-.04,.13-.07,.14-.11,.2-.27,.23-.44s-.03-.33,.06-.48c.13-.21,.43-.51,.35-.69-.07-.18-.64-.53-.7-.84-.06-.3-.21-.51-.12-.73,.09-.22,.19-.28,.3-.31,.11-.03,.37-.01,.38,.13s-.2,.27-.11,.47c.09,.21,.28,.77,.49,.8,.21,.03,.63-.09,.92-.28,.29-.19,.82-.33,.91-.45,.09-.13,.27-.31,.28-.2,.02,.11,.03,.47-.09,.54-.12,.07-.44,.11-.42,.29,.02,.18,.22,.42,.35,.47,.13,.05,.47-.07,.55,.07,.09,.14,.12,.3,0,.3s.14,.23,.02,.28c-.12,.04-.48-.03-.6-.23-.12-.2-.14-.42-.36-.52-.22-.09-.44-.06-.8,.02-.36,.08-.73,.41-.73,.6s-.15,.5-.04,.75c.06,.14,.19,.21,.31,.29s.19,.22,.34,.27c.04,.01,.07,.02,.11,.02,.06,0,.11-.03,.15-.06,.24-.18,0-.31,0-.51,0-.15,.16-.34,.27-.34,.25,0,.35,.28,.6,.21,.09-.02,.19-.05,.26-.1s.14-.14,.14-.24c0-.04,0-.08,.02-.11,.03-.02,.06,0,.09,0,.17,.06,.36,.05,.51-.04,.29-.16,.35-.45,.36-.75,0-.28,.02-.56,0-.84-.02-.23-.05-.61-.09-.84-.05-.23-.15-.56-.29-.63-.14-.06-.35-.13-.56,.09-.22,.21-.54,.33-.68,.45-.13,.11-.2,.37-.32,.38-.12,.02-.38,.05-.39-.13s-.11-.34-.26-.38c-.15-.04-.59-.07-.62-.29-.02-.22,.01-.58,.18-.6,.16-.02,.28,.17,.42,.26,.14,.09,.69,.49,.87,.39,.18-.1,.37-.3,.49-.41,.12-.12,.24-.2,.01-.51-.23-.31-.27-.71-.51-.76-.24-.05-1.05-.12-1.28-.28-.23-.16-.68-.51-.87-.4-.19,.1-.08,.62-.11,.83-.04,.21-.49,1.1-.59,1.19-.09,.08-.82,1.42-.81,1.59s.31,.7,.51,.94c.13,.15,.22,.32,.21,.52,0,.13-.07,.25-.08,.38,0,.14,0,.3,.03,.44,.03,.14,.1,.27,.21,.36Z" style="fill:#ed9ea2;"/><path d="M24.98,17.23c.1-.21,.37-.95,.35-1.15-.02-.2-.49-.77-.62-1.26-.13-.49-.15-.76,.04-.83,.19-.07,.48-.09,.49,.04s-.23,.2-.17,.41c.06,.21,.52,.98,.57,1.2,.05,.22,.12,.64,.16,.48,.04-.16,.03-.46,.11-.71,.08-.25,.22-1.07,.33-1.45,.11-.38,.37-.72,.5-.89,.13-.17,.4-.67,.3-1.02-.1-.35-.88-.73-1.13-.92-.24-.19-1.15-.7-1.15-.83s.14-.19,.27-.14c.13,.05,.12,.21,.2,.26,.08,.05,1.36,.8,1.7,.99,.35,.19,.75,.45,.75,.71s-.07,.85-.24,.9c-.17,.05-.35,.04-.44,.22-.09,.18-.26,.39-.04,.47,.23,.08,.99,.43,1.18,.46,.18,.04,.63,.1,.63-.03s-.23-.41-.23-.62c0-.21,.1-.3,.21-.28,.12,.02,.16,.09,.16,.19s-.09,.34-.04,.41c.05,.06,.24,.24,.24,.36s0,.31,.06,.4c.05,.09,.56,.87,.63,.88,.07,.01,.42-.02,.41-.18s-.04-1.1-.15-1.23c-.11-.13-.76-.66-.85-.77-.08-.12-.33-.27-.15-.57,.19-.31,.29,.02,.31,.15,.02,.13,.63,.64,.73,.7,.09,.06,.31-.14,.32-.34,0-.2,.2-.49,.27-.49s.32,.08,.23,.24c-.09,.16-.28,.31-.39,.46-.11,.15-.26,.26-.2,.45,.06,.19,.23,.65,.23,.86s0,1.02,.08,1.15c.08,.13,.27,.74,.28,.99s.18,.81,.14,1.08c-.05,.27-.16,.87-.11,1.05,.04,.18,.18-.08,.36-.31,.18-.23,.15-.63,.23-.77,.07-.13,.18-.45,.33-.82,.15-.37,.08-.76,.06-1.01-.02-.25-.09-.47-.2-.58-.11-.11-.17-.39-.01-.44,.16-.06,.23-.05,.25,.08,.02,.13,.13,.4,.13,.51s.09,.43,.11,.31c.02-.12,.12-.91-.08-1.11-.2-.2-.45-1.18-.68-1.39s-.59-.83-.65-.96c-.07-.13-.48-.93-.59-1.15-.11-.22-1.12-1.2-1.53-1.38-.41-.18-1.37-.66-1.9-.71-.54-.05-.92,.02-.15,.22,.76,.2,.97,.48,1.08,.62,.11,.14,.94,.96,1,1.07,.06,.12,.11,.27-.18,.16-.29-.11-.82-.72-.95-.9-.14-.18-1.28-.85-1.48-.9-.2-.05-.69-.02-.83-.04-.13-.02-.45-.17-.58-.09-.13,.08-.22,.25-.08,.25s.69,.2,.78,.23c.09,.02,.59,.09,.79,.08s.23,.2,.02,.25c-.21,.04-.88-.11-.99-.17-.11-.06-.76-.19-.97-.15-.21,.03-.56,0-.81,.36-.25,.36-.34,.45-.01,.55,.33,.09,.77,.31,.87,.39,.11,.09,.48,.35,.58,.48,.09,.13-.1,.28-.2,.46-.1,.18-.27,.46-.49,.63-.22,.16-.6,.7-.7,.79-.1,.09-.42,.47-.35,.59,.07,.12,.52,.89,.54,1.02,.02,.13,.28,.74,.34,.88,.06,.14,.67,1.13,.79,1.18,.12,.05,.16,.06,.2-.02Z" style="fill:#ed9ea2;"/><path d="M29.22,9.94c.15,.02,1.13,.35,1.36,.6,.23,.25,.5,.47,.58,.76,.08,.28,.75,.68,.61,.77-.13,.1-.2,.32,.05,.62,.25,.3,.36,.84,.54,1.08,.19,.24,.72,1.22,.73,1.63s.01,.97-.1,1.24c-.11,.28-.38,.92-.56,1.03-.18,.11-.44,.47-.48,.32-.03-.15,.1-.65,.19-.9,.08-.24,.33-.65,.3-.74-.03-.09,.03-1.47-.12-1.68-.16-.21-.89-1.61-1.1-1.83-.2-.22-.74-1.47-.94-1.79-.21-.33-1.44-1.16-1.06-1.11Z" style="fill:#ed9ea2;"/><path d="M32.23,11.9c.06,.01,.42,.46,.58,.8,.16,.34,.49,1.29,.57,1.59,.08,.3,.31,.42,.32,.64s.08,.58-.01,.71c-.09,.14-.02,.44-.08,.46-.06,.02-.13-.27-.19-.77-.06-.5-.59-1.11-.66-1.44-.07-.33-.23-1.36-.38-1.61-.14-.26-.24-.4-.16-.39Z" style="fill:#ed9ea2;"/><path d="M13.58,16.86c.06-.17,.39-.62,.51-.71,.12-.09,.49-.41,.7-.35,.21,.06,.62,.12,.88,.11l1.03-.03c.18,0,1.17,.15,1.29,.16,.12,.01-.11,.35-.28,.83-.14,.38-.21,.79-.29,1.19-.09,.42-.14,.93-.59,1.13-.2,.09-.44,.09-.63,0-.14-.07-.25-.17-.39-.24s-.32-.07-.42,.04c-.03,.04-.05,.08-.08,.12-.06,.08-.14,.13-.23,.17-.14,.07-.3,.14-.46,.13-.19,0-.36-.11-.52-.21-.06-.04-.13-.08-.17-.14-.05-.06-.07-.15-.12-.21-.05-.07-.11-.13-.17-.19-.08-.08-.15-.15-.16-.27-.03-.28,.11-.58,.35-.73,.18-.11,.4-.19,.66,.15,.25,.34,.36,.25,.46,.3,.11,.06,.31,.25,.33,.38,.02,.14-.07,.35,.09,.36,.15,.01,.27-.22,.25-.36-.02-.14-.3-.49-.39-.58-.09-.09-.35-.1-.46-.23-.11-.13-.18-.45-.36-.46-.18-.01-.66,.31-.77,.25-.11-.06-.26-.25-.25-.37,.01-.12,.08,.09,.21-.25Z" style="fill:url(#radial-gradient-3);"/><path d="M14.53,15.12c-.17-.2,.24-.75,.49-.92,.25-.17,.76-.42,.91-.65,.15-.23,.43-.48,.61-.49s.4,.11,.42-.01c.03-.12,.38,.07,.28,.2-.1,.14-.22,.32-.17,.38,.05,.06,.31,.22,.39,.04,.09-.19,.26-.42,.15-.67-.11-.25-.59-.53-.56-.68,.03-.15,.05-.3,.29-.31s.5-.06,.59,.06c.09,.12-.07,.35,.06,.53,.13,.18,.15,.44,.44,.7,.3,.26,.68,.41,.65,.54-.03,.14-.23,.05-.44,.39-.22,.34-.27,1.08-.42,1.21-.15,.13-.75,.22-.93,.25-.18,.04-1.64-.03-1.95-.22-.31-.19-.75-.28-.81-.36Z" style="fill:#ed9ea2;"/><path d="M15.58,13.17c.08-.17,.69-.78,.88-.87,.19-.1,.15,.06,.1,.16-.06,.11,0,.24-.1,.29-.11,.05-.75,.37-.76,.43-.01,.06-.17,.08-.12-.01Z" style="fill:#ed9ea2;"/><path d="M19.23,13.48c.18,.04,.4-.78,.5-.89,.1-.11,.14-.35,.03-.53-.11-.18-.5-.52-.47-.64,.03-.12,.16-.34,.3-.28,.14,.06,.11,.26,.16,.31,.05,.06,.5,.44,.59,.36,.09-.08,.37-.21,.35-.37-.02-.17-.07-.41,.06-.4,.14,.01,.43,.25,.59,.07,.16-.17,.18-.43-.07-.42s-.99-.09-1.14-.09-.54,.17-.68,.22c-.13,.05-.45,.23-.55,.33-.1,.11-.41,.38-.4,.88s.08,.86,.27,1.07c.19,.21,.22,.33,.45,.38Z" style="fill:#ed9ea2;"/><path d="M17.54,11.68c0-.14,.62-.68,.83-.8,.21-.11,.89-.25,.84-.18-.04,.08-.57,.3-.64,.49-.07,.18-.14,.4-.23,.45-.09,.05-.79,.27-.8,.04Z" style="fill:#ed9ea2;"/><path d="M19.09,10.34c.21-.17,1.23-.5,1.61-.51s1.48-.21,1.64,.02c.16,.22,.07,.48-.09,.56-.16,.08-.2,.23-.59,.09-.38-.14-.81-.2-1.14-.16-.33,.04-.94,.07-1.12,.08s-.42,.03-.3-.07Z" style="fill:#ed9ea2;"/><path d="M23.27,9.55c.11-.02,.4-.24,.22-.28-.18-.04-1.43-.14-1.76-.1-.33,.04-1.07,.24-.78,.23s1.06,.06,1.18,.06,1.03,.11,1.14,.09Z" style="fill:#ed9ea2;"/><path d="M19.44,9.88c.17-.08,.55-.3,.7-.31s.71,.01,.61,.06c-.1,.05-.83,.22-1.02,.25-.2,.04-.53,.11-.29,0Z" style="fill:#ed9ea2;"/><path d="M24.62,9.16c-.07-.09-1.62-.49-2.78-.21-.18,.02,.76,.06,1.12,.05s1.48,.23,1.54,.23,.25,.1,.12-.06Z" style="fill:#ef8086;"/><path d="M16.7,11.9c.07-.19,.5-.58,.69-.72,.19-.14,1.22-.81,1.33-.79,.11,.01,.41,.19,.26,.19s-.61,.02-.81,.19c-.21,.17-.7,.87-.82,.98-.12,.11-.72,.35-.65,.16Z" style="fill:#ed9ea2;"/><path d="M26.77,16.68c-.25,.02-.44,.12-.44,.54,0,.35,.18,.72,.28,1.05,.1,.3,.23,.73-.03,.99-.05,.05-.11,.1-.18,.09-.06-.01-.1-.07-.14-.13-.13-.23,0-.47-.26-.65-.27-.19-.64-.7-.54-1.09,.09-.39,.6-1.3,.8-1.55,.2-.25,.54-.97,.51-1.37-.03-.4,.04-.48,.2-.39,.16,.08,.98,.38,1.23,.46,.25,.08,.93,.36,1.01,.73,.08,.37-.03,.76-.31,.77s-.55-.06-.87-.38c-.33-.33-.41-.34-.62,0-.2,.34-.53,.68-.24,.76,.28,.08,.92,.19,.96,.41,.04,.23,.42,.55,.57,.4,.15-.14,.34-.46,.53-.52,.19-.06,.53-.49,.76-.44,.23,.05,.52,.16,.53,.69s-.19,.83-.06,1.08c.12,.23,.18,.53,.09,.76-.02,.04-.03,.07-.06,.1-.05,.04-.12,.05-.18,.02-.22-.12,.03-.48-.29-.57-.28-.08-.69-.21-.5-.42,.19-.22,.32-.47,.3-.64-.02-.18-.19-.37-.41-.22-.22,.15-1.04,.72-1.35,.74-.32,.03-.81-.21-.79-.59,.03-.39,0-.63-.49-.6Z" style="fill:#f0cdce;"/><path d="M27.64,19.39c-.02,.26,.43,.88,.56,.67,.14-.21,.21-.69,.46-.66,.15,.02,.24,.14,.37,.2s.24-.01,.34-.1c.04-.04,.09-.08,.08-.14-.02-.1,.04-.08-.07-.15-.07-.04-.14-.09-.17-.17-.06-.21-.03-.51-.51-.48-.47,.03-1.01,.24-1.07,.82Z" style="fill:#f0cdce;"/><path d="M19.08,17.23c.45-.19,1.54-.17,1.88-.04,.34,.13,1.39,.47,1.81,1.09,.42,.62,.96,1.05,.9,1.19-.07,.14-.79,.22-1.09,.05-.3-.17-.8-.19-1.56-.89-.29-.27-.72-.3-1.1-.25-.2,.03-.39,.08-.57,.14-.2,.07-.37,.15-.58,.12-.09-.01-.19-.02-.27-.08-.24-.15-.15-.51-.06-.73,.12-.29,.36-.49,.65-.61Z" style="fill:url(#radial-gradient-4);"/><path d="M22.58,14.44c.33,.19,.74,1.47,1.06,2.05,.32,.57,1.43,2.18,1.51,2.53,.08,.35-.42,.87-1.15-.11-.73-.98-1.15-1.94-1.7-2.4-.56-.46-2.32-.41-2.63-.77-.31-.36,.25-1.17,.77-1.24,.53-.07,1.7-.31,2.13-.06Z" style="fill:url(#radial-gradient-5);"/><path d="M14.99,18.62c.03,.11,.08,.15,0,.27-.04,.05-.08,.09-.13,.13-.15,.12-.31,.11-.46,0-.11-.08-.15-.23-.2-.35-.03-.07-.29-.66-.09-.67,.21,0,.83,.36,.89,.62Z" style="fill:url(#radial-gradient-6);"/><path d="M17.39,17.37c-.19,.34-.12,.77-.35,1.09-.16,.22-.46,.34-.72,.28-.21-.05-.39-.19-.49-.39s-.03-.42-.2-.58c-1.24-1.15-1.37-.81-1.36-1.13,0-.32,.61-.36,.95-.31,.78,.12,1.04-.23,1.43,0,.39,.24,.92,.72,.75,1.02Z" style="fill:url(#radial-gradient-7);"/><path d="M15.67,14.05c.3-.17,.62-.91,.86-.83,.23,.08,.38,.38,.47,.48,.09,.1,.36,.36,.6,0,.24-.36-.07-.79,.12-.85,.19-.06,.74,.7,.94,.86,.2,.15-.35,.57-.45,.94-.09,.37-.24,.92-.61,.92-.37,0-1.88-.02-2.06-.47-.17-.45-.55-.65,.13-1.04Z" style="fill:url(#radial-gradient-8);"/><path d="M19.23,11.12c.22-.05-.14,.18-.1,.32,.04,.14,.37,.47,.41,.71,.04,.25-.02,.53-.05,.76-.03,.23-.07,.6-.25,.5-.18-.1-.72-.53-.69-1.25,.03-.72,.29-.96,.67-1.04Z" style="fill:url(#radial-gradient-9);"/><path d="M19.98,10.15c.34-.11,1.16-.27,1.6-.27,.44,0,.32,.22,.39,.34,.06,.12,.08,.3-.1,.26-.18-.04-.72-.25-1.08-.23-.36,.02-1.65,.17-.81-.1Z" style="fill:url(#radial-gradient-10);"/><path d="M19.77,10.9c.24-.15,.92-.18,.89-.03-.03,.15-.16,.69-.31,.75-.15,.06-.49-.11-.54-.29-.05-.18-.27-.29-.04-.44Z" style="fill:#f0cdce;"/><path d="M23.29,9.27c-.18-.02-1.39-.02-1.56,0-.17,.02,.23,.15,.81,.16,.58,.01,.62,.13,.7,.07,.07-.06,.18-.22,.05-.23Z" style="fill:#f0cdce;"/><path d="M24.07,10.13c.16-.02,.3,.43,.7,.62,.4,.19,1.75,.77,1.88,1.05,.13,.28,.28,.66-.06,.94-.34,.28-.82,.08-.85,.45-.03,.37,.33,.46,.24,.87-.1,.41-.08,1.44-.2,1.47-.12,.03-.51-.85-.52-1.14s.37-.3,.17-.54c-.2-.24-1.05-.06-1.04,.21s.2,.66,.28,.93c.08,.27,.48,1.09,.49,1.27s-.11,.82-.25,.85c-.14,.03-.78-.92-.9-1.25-.11-.33-.62-1.5-.66-1.77-.04-.27,.7-.82,.89-1.1,.19-.28,.64-1.09,.85-1.11,.21-.02,.46-.34,.25-.43-.21-.08-.73-.27-1.23-.5-.49-.23-.89-.25-.73-.48,.16-.23,.4-.33,.69-.37Z" style="fill:#f0cdce;"/><path d="M26.92,13.58c-.03-.18,.13-.38,.31-.43,.18-.05,.47-.04,.48-.22,0-.18,.34-.68,.12-1.02-.22-.34-2.52-1.37-2.53-1.53s.28-.12,.56-.05c.27,.07,1.29,.56,1.39,.46,.1-.09-.95-.81-.78-.9,.16-.1,.83,.45,.97,.58,.14,.13,.54,1.04,.85,1.11,.3,.07,.83-.1,.74-.23-.09-.13-.82-.73-1.07-1.03-.25-.29-1.07-.77-.87-.81,.2-.04,1.33,.46,1.61,.65,.28,.19,1.29,1.15,1.36,1.35,.07,.21,.53,.71,.39,.91-.15,.2-.13,.93-.32,.87-.2-.06-.51-1.06-.78-.96-.27,.1-.56,.02-.57,.36,0,.35-.37,.22-.44,.62-.06,.39,.43,.68,.31,.76-.12,.08-.76-.02-.99-.15-.23-.13-.7-.22-.72-.34Z" style="fill:#f0cdce;"/><path d="M29.07,13.49c.09-.04,.75,.45,.84,.61,.08,.16,.27,.98,.21,1.13-.06,.15-.35,.02-.55-.2-.2-.22-.25-.69-.36-.91-.11-.22-.47-.47-.14-.63Z" style="fill:#f0cdce;"/><path d="M30.52,13.72c.05-.16,.38-.45,.58-.27,.2,.18,.79,1.07,.61,1.24-.18,.17-.35,.34-.25,.64,.1,.3,.37,.84,.36,1.35-.02,.52-.29,1.05-.34,1.24-.05,.18-.25,.84-.35,.86-.11,.02,.05-.91,.04-1.12s-.2-1.22-.28-1.43c-.08-.21-.21-.58-.23-1.05s-.05-.89-.14-1.07c-.08-.18-.05-.19,0-.38Z" style="fill:#f0cdce;"/><path d="M29.93,10.45c.13-.02,.8,.4,.99,.67,.19,.27,.69,.75,.63,.86-.06,.11-.18,.19-.06,.44,.11,.25,.83,1.36,.95,1.55,.13,.19,.54,1.06,.56,1.26,.02,.2-.13,.26-.12,.73s-.12,1.03-.29,1.16c-.16,.13-.44,.57-.42,.3,.02-.27,.08-.43,.19-.7,.11-.28,.08-.4,.1-.65,.02-.26,.04-1.27-.09-1.44-.13-.16-.88-1.5-1.02-1.68-.14-.18-.81-1.52-.86-1.66-.05-.13-.41-.43-.49-.56-.08-.13-.2-.25-.1-.27Z" style="fill:#f0cdce;"/><path d="M22.28,11.07c.12-.03,.55,.04,.55,.12s-.19,.24,.03,.33c.22,.09,.61-.08,.81,0,.2,.09,.82,.15,.66,.44-.28,.52-.9,.48-1.02,.72-.12,.23-.32,.99-.6,1-.29,.02-1.07-.14-1.44-.09-.38,.05-1.11,.4-1.15,.2-.04-.2,.13-.3,.4-.37,.26-.07,1-.47,1.25-.49,.24-.03,.69,.17,.91-.04,.22-.21,.28-.3,.19-.5-.1-.2,.23-.68-.13-.68-.21,0-.45,.31-.59,.37-.14,.06-.34,.04-.47,.16-.13,.12-.5,.41-.65,.48-.15,.07-.56,.24-.47,.03,.09-.21,.42-.56,.66-.68,.24-.12,.49-.26,.57-.45,.08-.19,.27-.5,.49-.56Z" style="fill:#f0cdce;"/><path d="M25.65,9.39c.25-.05,.14-.15,.28-.18,.14-.04,1.24,.01,1.46,.05,.23,.04,.57,.2,.69,.2,.11,0,.32,0,.54,.04,.21,.05,1.62,.7,1.85,.83,.24,.12,.82,.73,1.06,.98,.26,.08,.76,.29,.91,.37s.71,.63,.79,.83c.09,.2,.06,.44,.16,.61,.1,.18,.16,.29,.19,.43,.02,.14,.04,.72,.1,.85,.06,.12,.17,.36,.18,.76s-.09,.99-.14,1.32c-.05,.31-.31,.84-.3,.96,0,.11-.03,.27-.09,.37s-.09,0-.15,.26c-.07,.27-.3,.63-.31,.71,0,.09-.01,.2-.06,.26s-.22,.06-.22,.18c0,.1,.18,.21,.2,.29,.03,.08,.06,.22,.05,.29-.03,.09-.33,.6-.49,.88-.09,.14-.24,.36-.36,.54" style="fill:none; stroke:#853c41; stroke-width:.49px;"/><path d="M17.86,21.53s-.01-.04-.01-.06c-.01-.1-.12-.36-.06-.96,.02-.15-.11-.36-.12-.59s-.07-.72,.15-1.5c.54-1.97,.88-2.2,.9-2.4,0-.19-.04-.37,.31-1.45,.36-1.1,.66-.87,.83-1.14s.44-.84,.73-1.19c.3-.36,.64-.41,.8-.59s.26-.39,.55-.6c.38-.26,.89-.26,.96-.36,.08-.1,.49-.67,.62-.77,.13-.12,.63-.06,.79-.16s.23-.36,.36-.4c.14-.04,.75,.08,1,.03" style="fill:none; stroke:#cc595f; stroke-width:.49px;"/><path d="M14.67,21.19l-.1-.09c-.18-.17-.36-.23-.54-.38s-.3-.46-.34-.59c-.04-.13-.24-.19-.32-.34-.07-.14-.07-.34-.1-.65-.05-.3-.11-.7-.1-.85s.31-.39,.31-.5c0-.1-.24-.49-.25-.68s.22-.86,.46-1.33c.24-.48,.7-1.02,.82-1.22,.13-.2,.2-.44,.48-.9s1.17-1.39,1.34-1.5c.16-.12,.21-.32,.29-.44,.09-.13,.23-.2,.52-.49s1.46-.93,1.61-1.02c.17-.1,.17-.34,1.67-.95,1.51-.63,2.67-.53,3.67-.36,1,.17,.96,.24,1.08,.35,.1,.09,.24,.13,.47,.14h0" style="fill:none; stroke:#853c41; stroke-width:.49px;"/><path d="M24.03,21.77c.42,.06,.86,0,1.26,.14,.6,.22,.95,.85,1.48,1.23,.14,.1,.29,.18,.45,.2,.49,.06,.9-.24,1.27-.6-.17,.07-.35,.14-.54,.17-.26,.03-.55-.02-.74-.21-.18-.19-.22-.53-.03-.72-.4,.14-.79,.17-1.16-.03-.16-.09-.35-.19-.5-.3-.04-.03-.38-.41-.36-.41-.7,.1-1.42,.18-2.11,.1,.28,.23,.61,.38,.97,.44Z" style="fill:#853c41; opacity:.71;"/><path d="M16.51,20.72c.27,.12,.46,.39,.7,.56,.77,.55,1.7,.14,2.48-.24,.02,0,.04-.02,.05-.03-.43,0-.87-.03-1.3-.07-.31-.02-.68-.1-.77-.39-.43,.12-.8,.21-1.17,.16h0Z" style="fill:#853c41; opacity:.71;"/></g><path d="M45.23,30.2c-.25-.46-2.21-2.41-2.53-3.08-.31-.67-1.23-2.59-1.39-2.85,0,0-.48-.62-1.22-.8-.74-.18-1.54-.53-1.54-.53,0,0-1.67-1.79-1.97-2.68-.23-.68-.33-1.11-.52-1.35-.01,0-.72,.12-1.47,.74-.22,.18-.23,.29-.43,.68-.21,.39-.9,.78-.9,.78-.69,.21-1.19,.06-1.86-.19-.11-.04-.23-.09-.35-.06-.09,.02-.16,.06-.24,.11-.47,.3-.94,.6-1.35,.98-.53,.5-1.16,1.34-1.96,1.23-.17-.02-.32-.11-.45-.21-.51-.39-.85-1.03-1.44-1.27-.39-.16-.84-.1-1.26-.18-.37-.07-.72-.24-1-.5-.3-.27-.53-.64-.88-.83-.37-.2-.83-.18-1.25-.05s-.8,.34-1.19,.53c-.79,.36-1.74,.74-2.49,.17-.24-.18-.41-.45-.68-.58-.33-.16-.79-.2-1.15-.26-.06,0-.12-.02-.17,0-.17,.06-.19,.3-.28,.46-.12,.21-.37,.29-.6,.3,0,0-.73-.11-.65-.47,.09-.45-.56-.78-.65-.73h-.68s-.36-.31-.89-.7c-.52-.39-.99-.9-1.65-.73-.07,.02-.14,0-.2-.04-.23,.18-.43,.41-.58,.67-.23,.41-.37,.87-.48,1.33-.16,.65-.27,1.33-.52,1.96-.15,.37-.28,.38-.58,.57-.25,.16-.38,.35-.59,.57-.14,.14-.3,.26-.45,.39-.36,.33-.66,.79-.92,1.2-.17,.28-.4,1.43-.67,1.54,0,0-.57,.23-.76,.39-.19,.16-.67,1.26-.73,1.73-.06,.47-.66,1.03-1,1.28-.34,.25-.65,.55-.62,.93s.14,.31,.48,.31,1.77,.62,2.07,1.13c.31,.51,1.63,1.28,3.03,1.42,1.39,.14,1.9,1.45,3.02,1.74,1.11,.28,3.57-.39,5.26-.42s4.41,1.8,6.21,2.17c1.8,.38,5.25,1.3,6.59,.77,1.34-.53,2.28-2.57,4.31-2.6,2.03-.03,5.03,.19,5.74,.12s1.44-.67,1.44-.67c0,0-.18-.82-.98-1.32,0,0,1.53-.96,2.79-1.13,1.26-.17,2.32-.29,2.6-.32s.82-.42,.82-.42c0,0,.04-.79-.22-1.25Z" style="fill:url(#linear-gradient-7);"/><path d="M45.14,30.33c-.25-.46-2.21-2.41-2.53-3.08-.31-.67-1.23-2.59-1.39-2.85,0,0-.48-.62-1.22-.8-.74-.18-1.54-.53-1.54-.53,0,0-1.67-1.79-1.97-2.68-.13-.38-.16-1.16-.63-1.3-.1-.03-.2-.02-.3,0-.47,.12-.85,.52-1.18,.85-.15,.15-.21,.32-.31,.51-.21,.39-.9,.78-.9,.78-.69,.21-1.19,.06-1.86-.19-.11-.04-.23-.09-.35-.06-.09,.02-.16,.06-.24,.11-.47,.3-.94,.6-1.35,.98-.53,.5-1.16,1.34-1.96,1.23-.17-.02-.32-.11-.45-.21-.51-.39-.85-1.03-1.44-1.27-.39-.16-.84-.1-1.26-.18-.37-.07-.72-.24-1-.5-.3-.27-.53-.64-.88-.83-.37-.2-.83-.18-1.25-.05s-.8,.34-1.19,.53c-.79,.36-1.74,.74-2.49,.17-.24-.18-.41-.45-.68-.58-.33-.16-.79-.2-1.15-.26-.06,0-.12-.02-.17,0-.17,.06-.19,.3-.28,.46-.12,.21-.37,.29-.6,.3,0,0-.73-.11-.65-.47,.09-.45-.56-.78-.65-.73-.11,.06-.66,.04-.75-.03-.12-.08-.1-.19-.27-.26-.18-.07-.39-.06-.58-.09-.17-.03-.34-.08-.5-.15-.09-.04-.18-.09-.23-.17-.16-.22,.03-.47-.19-.65-.19-.15-.48-.15-.7-.09-.07,.02-.14,0-.2-.04-.23,.18-.43,.41-.58,.67-.23,.41-.37,.87-.48,1.33-.16,.65-.27,1.33-.52,1.96-.15,.37-.28,.38-.58,.57-.25,.16-.38,.35-.59,.57-.14,.14-.3,.26-.45,.39-.36,.33-.66,.79-.92,1.2-.17,.28-.4,1.43-.67,1.54,0,0-.57,.23-.76,.39-.19,.16-.67,1.26-.73,1.73-.06,.47-.66,1.03-1,1.28-.34,.25-.65,.55-.62,.93s.14,.31,.48,.31,1.77,.62,2.07,1.13c.31,.51,1.63,1.28,3.03,1.42,1.39,.14,1.9,1.45,3.02,1.74,1.11,.28,3.57-.39,5.26-.42s4.41,1.8,6.21,2.17c1.8,.38,5.25,1.3,6.59,.77,1.34-.53,2.28-2.57,4.31-2.6,2.03-.03,5.03,.19,5.74,.12s1.44-.67,1.44-.67c0,0-.18-.82-.98-1.32,0,0,1.53-.96,2.79-1.13,1.26-.17,2.32-.29,2.6-.32s.82-.42,.82-.42c0,0,.04-.79-.22-1.25Z" style="fill:url(#linear-gradient-8);"/><path d="M12.52,28.47c1.13,.46,2.28,.95,3.46,1.28,1.07,.3,2.16,.13,3.25,.19,.32,.02,.64,.06,.96,.05,.34,0,.68-.06,1.02-.11-1.09,.53-2.23,.96-3.36,1.38-.47,.17-.95,.35-1.45,.33-.61-.03-1.36-.22-1.92-.45s-.96-.2-1.58-.19c-.75,.01-1.5-.2-2.24-.31-1.03-.15-2.09-.14-3.12,0-.23,.03-.47,.07-.7,.04-.51-.07-.91-.46-1.32-.77s-1-.53-1.43-.26c1.46-1.01,3.11-1.74,4.85-2.12-.43,.03-.89,.05-1.24-.19-.14-.09-.25-.22-.37-.33-.23-.2-.51-.34-.69-.58-.35-.44,.02-1.35,0-1.88-.02-.29,0-.6,.15-.85,.14-.25,.45-.43,.74-.35-.1,.28-.08,.6,.07,.87,.25,.46,.76,.52,1.24,.6-.25-.5,.2-1.06,.34-1.61,.17-.7,.04-1.35,.64-1.9,.24-.22,.55-.42,.57-.73,0-.14-.04-.26-.06-.4,0-.14,.02-.29,.14-.36,.06-.03,.13-.04,.17-.09,.03-.05,.02-.12,0-.18-.17-.41-.62-.59-1.03-.53-.01-.47,.28-.76,.73-.84,.29-.05,.58-.04,.86,.04,.04,.01,.09,.04,.08,.08,0,.03-.04,.04-.06,.05-.07,.04-.12,.12-.15,.2-.05,.12-.1,.26-.03,.37,.1,.15,.37,.15,.53,.16,.28,.02,.52-.02,.75,.15,.07,.05,.3,.32,.39,.32h.68c.09-.05,.75,.28,.65,.74-.08,.35,.65,.46,.65,.46,.24,0,.48-.09,.6-.3,.09-.16,.11-.41,.28-.46,.06-.02,.11,0,.17,0,.37,.06,.82,.09,1.16,.26,.26,.12,.44,.4,.68,.58,.75,.58,1.7,.19,2.48-.17,.4-.18,.78-.4,1.2-.52,.42-.13,.87-.15,1.25,.05,.35,.2,.58,.57,.88,.83,.28,.25,.63,.43,1,.5,.42,.08,.86,.02,1.26,.18,.59,.23,.93,.88,1.44,1.26,.13,.1,.28,.19,.44,.21,.8,.12,1.43-.73,1.96-1.23,.41-.39,.89-.69,1.35-.98,.08-.05,.16-.09,.25-.11,.11-.02,.24,.02,.35,.07,.44,.16,.8,.27,1.21,.27,0,.03-.02,.05-.03,.08-.02,.06-.04,.12-.07,.17-.12,.2-.41,.19-.6,.2-.23,0-.46,0-.69,.03-.34,.04-.73,.47-.44,.82,.09,.11,.23,.15,.37,.18,1.19,.27,2.39,.55,3.61,.55-.98,.21-1.99,.3-2.99,.29-1-.01-1.68,.18-2.61,.45-.56,.16-1.18,.25-1.67-.03-.53-.32-.74-1.01-1.17-1.46-.66-.71-1.88-.71-2.6-.02-.5-.28-1-.57-1.5-.86-.12-.07-.25-.13-.4-.13-.15,0-.29,.07-.42,.14-.52,.29-1.05,.59-1.58,.89-.15,.08-.32,.18-.5,.16-.14,0-.26-.08-.39-.14-.42-.26-.79-.57-1.13-.92-.32-.34-.69-.75-1.15-.68-.57,.09-.76,.74-1.24,.96-.7,.35-1.05-.59-1.83-.5-.04,0-.08,0-.09,.03-.04,.04-.04,.08-.05,.12-.02,.5,.24,.97,.49,1.41-.32,0-.64,0-.96-.02-.03,0-.06,0-.08,.02-.08,.04-.08,.14-.07,.23,.08,.46,.15,.93,.35,1.36,.45,.99,1.06,.83,1.97,.84,.58,0,1.15,0,1.73,0,.39,0,1.27,.13,1.6-.06-.95,.54-1.8,1.26-2.79,1.72-.53,.25-1.1,.39-1.68,.44-.62,.05-.94,.23-1.48,.55-.11,.07-.24,.17-.21,.3,.02,.09,.12,.13,.2,.17Z" style="fill:url(#linear-gradient-9);"/><path d="M37.17,21.29c-.27-.38-.49-.74-.59-1.02-.02-.05-.03-.11-.05-.16,.22,.42,.41,.85,.64,1.18Z" style="fill:url(#linear-gradient-10);"/><path d="M45.44,31.45s-.54,.39-.82,.42c-.04,0-.09,0-.14,.02-.41,.05-1.36,.15-2.46,.31-1.26,.17-2.79,1.13-2.79,1.13,.79,.49,.97,1.32,.97,1.32,0,0-.73,.6-1.44,.67s-3.71-.15-5.74-.12c-2.03,.03-2.97,2.07-4.31,2.59-1.33,.53-4.78-.39-6.59-.76-.82-.18-1.63-.48-2.34-.93-.37-.23-.73-.48-1.07-.76-.29-.23-.6-.65-.93-.81,.64,.32,1.4,.32,2.1,.2s1.39-.36,2.09-.49c.15-.03,.31-.05,.46-.04s.3,.06,.45,.11c2.16,.67,4.54,.57,6.63-.29,.1-.04,.21-.09,.26-.19,.04-.09,.02-.2,0-.3l-.31-1.37,3.24-.13c.37-.01,.84-.12,.88-.49,.83,.15,1.65,.35,2.45,.6-.37-.6-.95-1.07-1.62-1.3,1.27,.23,2.34-.03,3.54-.43,.61-.2,1.19-.47,1.84-.43,.36,.02,.76,.07,1.04-.16,.24-.21,.29-.56,.48-.81-.08,.1-1.4-.21-1.6-.23-.38-.03-.75,.07-.82-.44-.02-.18,.01-.35,.05-.53,.1-.49,.52-1.51,.28-1.98s-.92-.36-1.35-.38c-.13,0-.27-.02-.4,0-.16,.03-.31,.1-.45,.17-.97,.48-1.49,.84-2.58,.59,.25,.06,1.15-1.08,1.31-1.27,.79-.93-.12-.93-.43-1.69s.22-1.45-.98-1.21c.31-.19,.55-.46,.69-.8,.12-.3,.07-.68,.06-1,0-.06,0-.13-.03-.19-.03-.04-.07-.07-.11-.09-.15-.09-.35-.17-.53-.13l.66-.55c.15-.13,.31-.26,.5-.31,.07-.02,.15-.03,.21,0,.04,.02,.08,.06,.11,.1,.24,.3,.49,.68,.62,1.04,.02,.05,.03,.11,.05,.16,.09,.28,.32,.64,.59,1.02,.12,.15,.23,.31,.34,.46,.12,.14,.23,.28,.33,.41,.39,.46,.71,.8,.71,.8,0,0,.8,.35,1.54,.52,.73,.18,1.22,.8,1.22,.8,.16,.27,1.07,2.18,1.39,2.85,.31,.67,2.27,2.62,2.52,3.08,.25,.47,.21,1.25,.21,1.25Z" style="fill:url(#linear-gradient-11);"/><path d="M38.76,35.11c.49-.23,.28-.47-.05-.79-.68-.65-2.11-1.25-2.34-2.27,.07,.33,.1,.67,.07,1-.87-.21-1.72-.48-2.55-.81,.14,.15,.27,.43,.08,.53-.04,.02-.09,.02-.13,.03l-3.71,.24c.36,.17,.55,.62,.43,1-.08,.25-.27,.45-.46,.62-.51,.46-1.09,.84-1.72,1.12,.19,.35,.19,.79-.01,1.14-.28,.5-.88,.71-1.43,.89,.14-.04,.46,.06,.62,.06,.25,0,.51-.04,.75-.1,.46-.13,.92-.36,1.26-.71,.27-.27,.41-.52,.75-.72,.51-.3,1.02-.61,1.55-.86,.97-.46,2.06-.62,3.13-.6,.68,.01,1.35,.09,2.02,.19,.57,.09,1.2,.31,1.75,.05Z" style="fill:url(#linear-gradient-12); opacity:.52;"/><path d="M26.61,37.89c-1.52-.17-3.33-.63-4.48-.87-1.8-.38-4.52-2.21-6.22-2.17-1.69,.03-4.14,.71-5.26,.42-1.11-.28-1.62-1.59-3.02-1.73-1.39-.14-2.72-.91-3.02-1.43-.31-.51-1.74-1.13-2.08-1.13s-.44,.08-.47-.31c-.04-.38,.27-.68,.61-.92,.27-.19,.7-.58,.9-.96,.05-.03,.09-.07,.14-.09-.33,.2,.33,1.1,.52,1.21,.26,.15,1.27,.09,.87,.6,.41,.19,.89,.07,1.33-.02,.62-.12,1.25-.17,1.88-.14-.15,.59-.71,.96-1.09,1.43-.11,.14-.21,.34-.11,.49,.06,.09,.18,.12,.28,.15,.47,.12,.99,.24,1.44,.06,.28-.11,.5-.33,.73-.53,.58-.5,1.23-.92,1.93-1.24l-.22,1.03c-.06,.26-.11,.54-.04,.8,.18,.67,.91,.39,1.41,.34,.68-.07,1.35-.2,2-.42,1.41-.48,2.91-.71,4.4-.71-.83,.27-1.62,.68-2.33,1.2-.02,.01-.04,.03-.05,.06,0,.03,.01,.07,.03,.09,1.32,1.82,3.9,1.09,5.82,1.34-.33,.08-.63,.27-.87,.53,.8,1.35,2.38,1.98,3.85,2.53,.37,.13,.75,.27,1.11,.42Z" style="fill:url(#linear-gradient-13);"/><path d="M21.79,36.89c-.66-.38-1.15-1.03-1.32-1.77l-2.51-.68c-.53-.14-1.07-.29-1.53-.58s-.84-.77-.88-1.32l-.35,1.02c-.03,.09-.07,.18-.14,.23-.05,.04-.12,.05-.18,.05l-2.34,.31c-.25,.03-.51,.07-.76,.03-.41-.06-.8-.27-1.12-.52-.25-.2-.49-.67-.79-.72,0-.11-.01-.24-.05-.35l-.15,.45c-.03,.08-.06,.16-.13,.21-.05,.03-.11,.03-.17,.03-1.22,.05-2.35,.31-3.54-.17-.12-.05-.23-.1-.31-.2-.25-.31,.08-.75,.38-1.02l1.25-1.09c-.51,.24-1.04,.44-1.59,.58-.42,.11-.9,.18-1.28-.05-.24-.15-.4-.41-.62-.59-.2-.17-.46-.27-.63-.46s-.23-.54-.02-.7c-.3,.11-.56,.32-.73,.59-.1,.16-.17,.35-.12,.53,.09,.32,.48,.43,.81,.51,.57,.16,1.12,.43,1.59,.8,.54,.42,.99,.97,1.61,1.26,.58,.27,1.24,.29,1.88,.38,.71,.1,1.22,.32,1.7,.84,.43,.46,.88,.92,1.54,.98,1.26,.11,2.44-.54,3.67-.66,2.17-.21,4.25,.78,6.21,1.75" style="fill:url(#linear-gradient-14); opacity:.52;"/><path d="M45.13,30.06c.02,.15,0,.29-.08,.42-1.25-.08-2.43-.79-3.07-1.87-.34-.58-.64-1.32-1.29-1.43,.29-.77,.28-1.65-.04-2.42-.06-.13-.13-.26-.26-.33-.11-.07-.25-.05-.39-.04-.88,.1-1.76,.2-2.63,.3-.05-.33,.25-.59,.32-.92,.04-.25-.08-.51-.19-.75-.33-.68-.65-1.35-.98-2.02-.2-.42-.2-.83-.09-1.25,.06,.14,.1,.3,.16,.48,.3,.9,1.97,2.68,1.97,2.68,0,0,.8,.36,1.54,.54,.74,.18,1.22,.79,1.22,.79,.16,.26,1.08,2.18,1.39,2.85,.11,.25,.44,.66,.83,1.1h0c.04,.09,.08,.17,.13,.25,.12,.18,.29,.31,.47,.44h0c.42,.47,.81,.9,.99,1.15Z" style="fill:url(#linear-gradient-15);"/><path d="M39.91,32.98c.47-.29,.96-.54,1.47-.75,.24-.1,.5-.23,.75-.31s.4,0,.65,.04c.13,.02,.27,.02,.4,0,.77-.05,1.56-.04,2.06-.71,.04-.06,.3-.62,.29-.62-.92,.11-2.01,.25-2.69-.51l-.84-.94c.05,.36-.11,.73-.36,1-.39,.42-.93,.48-1.33,.82l-1,.82c-.36,.29-.73,.61-.87,1.04-.02,.07-.04,.17,.02,.23,.1,.1,.65,.62,.84,.39,.17-.21,.39-.36,.62-.5Z" style="fill:url(#linear-gradient-16); opacity:.52;"/><path d="M23.81,33.78c-1.11-.23-2.16-.7-3.19-1.16,.83-.09,1.6-.35,2.34-.73,.55-.28,1.23-.67,1.86-.67,.28,0,.57,.07,.85,.02s.56-.3,.5-.57c-.55,0-1.1,.08-1.63,.22,.6-.25,1.24-.55,1.54-1.12,.34-.64,.09-1.51-.52-1.89,.29,.18,1.32-.47,1.69-.43,.56,.06,.9,.67,1.56,.43,.3-.11,.52-.37,.75-.59,.45-.43,1.73-.86,2.21-.23,.69,.91-1.82,2.21-2.34,2.5-1.08,.6-2.01,1.47-2.68,2.51l3.28-1.45c.54-.24,1.09-.48,1.59-.79,.27-.17,.53-.36,.81-.51,.9-.48,1.44-.33,2.28-.09,.6,.17,1.47,.62,2.09,.59-.34,.01-.75,.45-1.08,.56-.36,.12-.69-.02-1.06-.04-.6-.03-1.39-.15-1.96-.03-.39,.08-.7,.35-1.04,.56-.9,.57-2,.74-2.97,1.17-.22,.1-.44,.22-.54,.43s-.02,.53,.21,.57c-1.26,.86-2.9,1.06-4.4,.78-.05,0-.09-.02-.14-.03Z" style="fill:url(#linear-gradient-17);"/><path d="M32.91,21.13h.09c.11,.01,.21,.02,.32-.01,.31-.08,.5-.45,.81-.51-.02,.13-.04,.26-.07,.38-.02,.09-.05,.17-.1,.25-.08,.12-.21,.19-.35,.24-.34,.13-.71,.15-1.07,.18-.32,.02-.66,.08-.99,.07-.22,0-.42-.09-.63,.05-.09,.08-.14,.19-.18,.3-.15,.42-.16,.88-.41,1.24-.27,.39-.74,.54-1.17,.66-.56,.16-1.18,.26-1.67-.03-.54-.32-.74-1.01-1.18-1.46-.31-.32-.74-.5-1.19-.53-.56-.03-.85,.29-1.33,.41s-1.11-.03-1.62,.04c-.57,.07-1.14,.22-1.67,.43,.81-.05,1.63-.02,2.43,.09-.95,.38-1.99,.5-3,.61l-4.74,.52c.71-.21,1.35-.65,1.79-1.24,.11-.15,.21-.31,.37-.41,.46-.32,.97-.23,.45-.79-.33-.35-.69-.76-1.16-.68-.66,.11-1.01,1.17-1.66,1.07-.26-.04-.45-.27-.65-.45-.3-.28-.7-.47-1.11-.47,.05-.05,.11-.07,.16-.09,.2-.08,.38-.12,.59-.17,.22-.06,.45-.02,.68-.03,.23,0,.48-.1,.61-.31,.09-.16,.11-.4,.28-.46,.06-.02,.11,0,.17,0,.37,.05,.83,.09,1.15,.26,.27,.13,.45,.4,.69,.58,.74,.56,1.7,.19,2.49-.18,.39-.18,.78-.4,1.19-.52,.42-.12,.87-.15,1.25,.06,.34,.19,.57,.55,.88,.83,.27,.26,.63,.43,.99,.49,.42,.08,.87,.02,1.26,.18,.6,.23,.93,.88,1.45,1.27,.13,.1,.29,.19,.45,.21,.8,.12,1.43-.73,1.96-1.23,.41-.39,.88-.68,1.36-.98,.08-.05,.15-.1,.24-.12,.11-.02,.24,.02,.35,.07,.45,.2,1.01,.18,1.5,.2Z" style="fill:url(#linear-gradient-18);"/><path d="M17.16,28.42c-.78,.14-1.55,.3-2.32,.5-.41,.1-.84,.22-1.25,.13,.66-.47,1.57-.5,2.23-.97,.48-.34,.85-.76,1.42-.94,.37-.12,.58-.1,.83-.46,.47-.69,1.74-.02,2.18-1.29s.73-1.1,1.3-1.1c.82,0,1.64-.46,2.37,.2,.08,.07,.15,.16,.24,.21,.21,.12,.47,.07,.71,.02,.73-.14,1.48-.18,2.22-.12-.58,.41-1.22,.77-1.93,.87-.68,.1-1.37-.04-2.06-.01-.86,.03-1.69,.33-2.51,.61,.91,.1,1.82,.13,2.73,.09-.47,.47-1.08,.76-1.71,.97-.45,.15-.95,.08-1.13,.64-.02,.07-.04,.14-.09,.19-.06,.06-.16,.07-.25,.08-1,.08-1.99,.21-2.97,.39Z" style="fill:url(#linear-gradient-19);"/><path d="M23.28,30.34c-.13-.24-3.73,.29-2.87,.93s1.19,.15,2.82-.12,.25-.45,.05-.81Z" style="fill:url(#linear-gradient-20); opacity:.61;"/><path d="M23.7,27.72c.23-.27,1.14-.65,1.37-.87s1.94-.29,1.94-.29l-2.13,1.23c-.5,.29-1.17-.07-1.17-.07Z" style="fill:url(#linear-gradient-21);"/><path d="M22.5,29.89c.45-.48,.68-.72,.95-.8s.96,.05,.96,.05c0,0-1.03,.6-1.91,.75Z" style="fill:url(#linear-gradient-22);"/><path d="M16.82,29.43c.89,0,1.35-1.02,2.88-.73s2.88,.73,2.88,.73c0,0-3.15-.18-3.93,0s-1.83,0-1.83,0Z" style="fill:url(#linear-gradient-23);"/><path d="M28.85,24.63c-.39,.29-.7,.54-1.18,.74-.17,.07-1.37,.62-1.49,.61,.77,.1,1.59-.04,2.38-.17,.2-.03,.4-.07,.57-.15,.56-.25,1.12-.53,1.64-.81,.56-.31,1.24-.51,1.76-.85l-2.82,.31c-.18,.02-.36,.04-.52,.11-.12,.05-.22,.13-.35,.22Z" style="fill:url(#linear-gradient-24);"/><path d="M45.13,30.06c-.18-.25-.58-.68-.99-1.14,.18,.12,.37,.25,.54,.4,.22,.19,.42,.46,.45,.75Z" style="fill:url(#linear-gradient-25);"/><path d="M44.13,28.91c-.18-.13-.35-.26-.47-.44-.05-.08-.09-.15-.13-.24,.2,.23,.41,.45,.6,.68Z" style="fill:url(#linear-gradient-26);"/><path d="M27.66,23.53c-.07,0-.13,0-.2-.01-.2-.03-.4-.12-.6-.27-.23-.17-.41-.38-.6-.58-.25-.27-.48-.53-.77-.64-.19-.08-.43-.09-.67-.11-.18-.01-.35-.02-.53-.05-.43-.08-.84-.28-1.16-.58-.12-.11-.22-.22-.33-.34-.16-.18-.31-.35-.49-.44-.34-.18-.76-.1-.99-.03-.27,.08-.53,.21-.8,.34-.12,.06-.23,.11-.35,.17-.7,.32-1.88,.86-2.82,.13-.11-.08-.2-.17-.29-.27-.11-.11-.22-.22-.33-.28-.23-.11-.57-.16-.87-.2l-.18-.03s-.02,.05-.03,.08c-.03,.08-.06,.15-.09,.22-.16,.28-.47,.45-.87,.47-.21-.02-.69-.12-.9-.42-.09-.13-.12-.28-.09-.44,.02-.13-.2-.29-.31-.34-.41,0-.79-.05-1.15-.25-.3-.17-.75-.63-1.1-.65,.44,.03,.88,.08,1.31,.15,.29,.05,.58,.13,.88,.09,.22-.03,.45,.11,.59,.21,.34,.25,.49,.58,.43,.92,.03-.02,.22,.05,.38,.08,.06-.01,.21-.05,.26-.14,.02-.04,.04-.08,.05-.12,.06-.16,.15-.4,.41-.49,.14-.05,.26-.03,.33-.02l.18,.03c.35,.05,.74,.11,1.07,.26,.21,.1,.37,.26,.51,.41,.07,.07,.14,.15,.22,.21,.59,.45,1.38,.14,2.15-.21,.11-.05,.22-.11,.33-.16,.29-.14,.58-.28,.9-.38,.4-.12,.98-.21,1.5,.08,.28,.15,.47,.37,.66,.58,.09,.1,.18,.2,.28,.29,.24,.22,.53,.36,.84,.42,.15,.03,.3,.03,.45,.04,.28,.02,.58,.04,.87,.15,.43,.17,.73,.5,1.02,.82,.17,.19,.33,.36,.5,.5,.11,.09,.21,.13,.3,.15,.49,.07,.97-.41,1.39-.84,.1-.11,.2-.21,.3-.3,.43-.41,.92-.72,1.39-1.02,.09-.06,.21-.13,.36-.16,.2-.04,.39,.03,.52,.08,.63,.23,1.06,.36,1.65,.18,.17-.1,.58-.4,.7-.62,.27-.53,.82-.92,1.4-1.04-.06,.01-.29,.51-.35,.59-.13,.17-.24,.32-.33,.51-.04,.07-.08,.15-.13,.26-.24,.46-.95,.87-1.03,.91-.85,.26-1.42,.1-2.13-.16-.06-.02-.14-.05-.18-.05-.02,0-.09,.04-.12,.07-.47,.3-.92,.58-1.3,.94-.09,.09-.18,.18-.28,.28-.46,.47-1.03,1.05-1.75,1.05Z" style="fill:#729ece;"/><path d="M36.07,18.91c.19,.25,.29,.67,.52,1.35,.3,.9,1.97,2.68,1.97,2.68,0,0,.8,.35,1.54,.53,.74,.18,1.22,.8,1.22,.8,.16,.27,1.07,2.18,1.39,2.85,.31,.67,2.27,2.62,2.53,3.08,.25,.46,.22,1.25,.22,1.25,0,0-.54,.38-.82,.42s-1.34,.15-2.6,.32c-1.26,.17-2.79,1.13-2.79,1.13,.8,.49,.98,1.32,.98,1.32,0,0-.73,.6-1.44,.67s-3.71-.14-5.74-.12c-2.03,.03-2.97,2.06-4.31,2.6-1.34,.53-4.78-.39-6.59-.77-1.8-.38-4.52-2.21-6.21-2.17s-4.15,.71-5.26,.42c-1.11-.28-1.62-1.6-3.02-1.74-1.39-.14-2.72-.9-3.03-1.42-.31-.51-1.73-1.13-2.07-1.13s-.44,.07-.48-.31,.27-.68,.62-.93c.34-.25,.94-.81,1-1.28,.06-.47,.54-1.57,.73-1.73,.19-.16,.76-.39,.76-.39,.27-.11,.49-1.26,.67-1.54,.26-.41,.55-.88,.92-1.2,.15-.13,.31-.25,.45-.39,.21-.22,.33-.42,.59-.57,.31-.19,.44-.19,.58-.57,.25-.62,.36-1.31,.52-1.96,.11-.46,.25-.92,.48-1.33,.16-.28,.4-.54,.73-.62s.68,.07,1.03-.05c.17-.06,.28,.04,.46,0" style="fill:none; stroke:url(#linear-gradient-27); stroke-miterlimit:10; stroke-width:.7px;"/><g><path d="M21.25,31.49c.44-.28,.92-.16,1.2,.83,.48,1.68-1.33,1.25-2.2,.97,.05-.64,.5-1.48,1-1.8Z" style="fill:url(#linear-gradient-28);"/><path d="M21.25,31.49c.44-.28,.92-.16,1.2,.83,.48,1.68-1.33,1.25-2.2,.97,.05-.64,.5-1.48,1-1.8Z" style="fill:url(#linear-gradient-29);"/></g><g><path d="M8.95,27.09s.08-.06,.13-.07c.53-.22,.82,.6,.97,.56l.81-.21s.08-.02,.11,0c.03,.01,.05,.03,.07,.06l.35,.39s.06,.07,.07,.11c.04,.17-.2,.23-.34,.33-.18,.13-.21,.38-.29,.59-.13,.35-.45,.62-.81,.73s-.75,.1-1.11,0c-.2-.05-.4-.13-.6-.14-.13,0-.27,.02-.38-.04-.19-.09-.24-.36-.42-.48-.06-.04-.15-.07-.19-.13-.1-.15,.09-.32,.26-.4l.92-.44c.08-.04,.17-.08,.21-.16,.04-.08,.03-.17,.03-.26,0-.17,.1-.33,.23-.43Z" style="fill:url(#linear-gradient-30);"/><path d="M8.95,27.09s.08-.06,.13-.07c.53-.22,.82,.6,.97,.56l.81-.21s.08-.02,.11,0c.03,.01,.05,.03,.07,.06l.35,.39s.06,.07,.07,.11c.04,.17-.2,.23-.34,.33-.18,.13-.21,.38-.29,.59-.13,.35-.45,.62-.81,.73s-.75,.1-1.11,0c-.2-.05-.4-.13-.6-.14-.13,0-.27,.02-.38-.04-.19-.09-.24-.36-.42-.48-.06-.04-.15-.07-.19-.13-.1-.15,.09-.32,.26-.4l.92-.44c.08-.04,.17-.08,.21-.16,.04-.08,.03-.17,.03-.26,0-.17,.1-.33,.23-.43Z" style="fill:url(#linear-gradient-31);"/></g><g><path d="M22.97,33.81c-.24,.11-.43,.35-.49,.61l.36,.38s.03,.03,.05,.03c.02,0,.03,0,.05-.02l.67-.49c.05-.04,.11-.09,.1-.16,0-.04-.04-.07-.07-.09-.11-.09-.23-.19-.37-.24s-.3-.06-.42,.03" style="fill:url(#linear-gradient-32);"/><path d="M22.97,33.81c-.24,.11-.43,.35-.49,.61l.36,.38s.03,.03,.05,.03c.02,0,.03,0,.05-.02l.67-.49c.05-.04,.11-.09,.1-.16,0-.04-.04-.07-.07-.09-.11-.09-.23-.19-.37-.24s-.3-.06-.42,.03" style="fill:url(#linear-gradient-33);"/></g><g><path d="M23.89,33.11l.2,.5s.02,.04,.03,.05c.02,0,.03,0,.05,0l.45-.13c.06-.02,.12-.03,.17-.06,.06-.04,.09-.08,.16-.1,.03,0,.06-.02,.08-.08,0-.11-.06-.21-.11-.31l-.14-.27s-.04-.07-.06-.09c-.03-.03-.08-.04-.13-.05-.09,0-.17,.02-.24,.08-.08,.07-.13,.18-.21,.25-.1,.08-.18,.13-.25,.24Z" style="fill:url(#linear-gradient-34);"/><path d="M23.89,33.11l.2,.5s.02,.04,.03,.05c.02,0,.03,0,.05,0l.45-.13c.06-.02,.12-.03,.17-.06,.06-.04,.09-.08,.16-.1,.03,0,.06-.02,.08-.08,0-.11-.06-.21-.11-.31l-.14-.27s-.04-.07-.06-.09c-.03-.03-.08-.04-.13-.05-.09,0-.17,.02-.24,.08-.08,.07-.13,.18-.21,.25-.1,.08-.18,.13-.25,.24Z" style="fill:url(#linear-gradient-35);"/></g><path d="M36.18,27.61c.15-.08,.32-.11,.49-.14,.33-.06,1.44-.44,.87-1.03-.2-.21-.58-.03-.82-.12-.45-.15-.56-.57-1.12-.31-.1,.05-.2,.1-.3,.16-.36,.21-.57,.73-.93,1.01-.38,.29,.02,.8,.34,.92,.63,.22,.97-.23,1.46-.48Z" style="fill:url(#linear-gradient-36);"/><path d="M36.18,27.61c.15-.08,.32-.11,.49-.14,.33-.06,1.44-.44,.87-1.03-.2-.21-.58-.03-.82-.12-.45-.15-.56-.57-1.12-.31-.1,.05-.2,.1-.3,.16-.36,.21-.57,.73-.93,1.01-.38,.29,.02,.8,.34,.92,.63,.22,.97-.23,1.46-.48Z" style="fill:url(#linear-gradient-37);"/></g></g></g></svg>