<?xml version="1.0" encoding="UTF-8" standalone="no"?>
<svg
   viewBox="0 0 48 48"
   version="1.1"
   id="svg6747"
   sodipodi:docname="muscletensionlines.svg"
   inkscape:version="1.2-dev (7be2d9a5, 2021-09-13)"
   xmlns:inkscape="http://www.inkscape.org/namespaces/inkscape"
   xmlns:sodipodi="http://sodipodi.sourceforge.net/DTD/sodipodi-0.dtd"
   xmlns:xlink="http://www.w3.org/1999/xlink"
   xmlns="http://www.w3.org/2000/svg"
   xmlns:svg="http://www.w3.org/2000/svg">
  <sodipodi:namedview
     id="namedview6749"
     pagecolor="#ffffff"
     bordercolor="#666666"
     borderopacity="1.0"
     inkscape:pageshadow="2"
     inkscape:pageopacity="0.0"
     inkscape:pagecheckerboard="0"
     showgrid="false"
     inkscape:zoom="16.145833"
     inkscape:cx="12.015484"
     inkscape:cy="24"
     inkscape:window-width="2880"
     inkscape:window-height="1557"
     inkscape:window-x="-8"
     inkscape:window-y="-8"
     inkscape:window-maximized="1"
     inkscape:current-layer="svg6747" />
  <defs
     id="defs6691">
    <linearGradient
       inkscape:collect="always"
       id="linearGradient7643">
      <stop
         style="stop-color:#000000;stop-opacity:0.54945058;"
         offset="0"
         id="stop7639" />
      <stop
         style="stop-color:#000000;stop-opacity:0;"
         offset="1"
         id="stop7641" />
    </linearGradient>
    <style
       id="style6648">.cls-1{fill:url(#radial-gradient);}.cls-2{fill:url(#New_Gradient_Swatch_13);}.cls-3{fill:url(#linear-gradient);}.cls-4{fill:url(#linear-gradient-2);}.cls-13,.cls-5{opacity:0.65;}.cls-5{fill:url(#linear-gradient-3);}.cls-6{fill:url(#New_Gradient_Swatch_13-2);}.cls-7{fill:url(#linear-gradient-4);}.cls-8{fill:url(#linear-gradient-5);}.cls-9{fill:url(#New_Gradient_Swatch_13-3);}.cls-10{fill:url(#linear-gradient-6);}.cls-11{fill:url(#linear-gradient-7);}.cls-12{fill:url(#linear-gradient-8);}.cls-13{fill:url(#linear-gradient-9);}.cls-14{fill:url(#linear-gradient-10);}.cls-15{fill:url(#linear-gradient-11);}.cls-16,.cls-17,.cls-18,.cls-20,.cls-22,.cls-23{fill:none;}.cls-16,.cls-17,.cls-18{stroke:#193774;}.cls-16,.cls-20,.cls-22{stroke-miterlimit:10;}.cls-16,.cls-17{stroke-width:0.35px;}.cls-17,.cls-18,.cls-23{stroke-linecap:round;stroke-linejoin:round;}.cls-18{stroke-width:0.7px;}.cls-19{fill:#64cc13;}.cls-20,.cls-22{stroke-width:0.5px;}.cls-20{stroke:url(#linear-gradient-12);}.cls-21{fill:#7be028;}.cls-22{stroke:url(#linear-gradient-13);}.cls-23{stroke:#8ae234;}</style>
    <radialGradient
       id="radial-gradient"
       cx="-4.28"
       cy="1.47"
       r="9.63"
       gradientTransform="translate(30.81 41.11) scale(1.79 0.63)"
       gradientUnits="userSpaceOnUse">
      <stop
         offset="0.16"
         stop-color="#2c2c2c"
         stop-opacity="0.5"
         id="stop6650" />
      <stop
         offset="0.67"
         stop-color="#2c2c2c"
         stop-opacity="0.1"
         id="stop6652" />
      <stop
         offset="0.95"
         stop-color="#2c2c2c"
         stop-opacity="0"
         id="stop6654" />
    </radialGradient>
    <linearGradient
       id="New_Gradient_Swatch_13"
       x1="28.24"
       y1="11.47"
       x2="23.07"
       y2="16.9"
       gradientUnits="userSpaceOnUse">
      <stop
         offset="0"
         stop-color="#608bc3"
         id="stop6657" />
      <stop
         offset="1"
         stop-color="#285092"
         id="stop6659" />
    </linearGradient>
    <linearGradient
       id="linear-gradient"
       x1="23.74"
       y1="12.42"
       x2="18.9"
       y2="18.24"
       gradientUnits="userSpaceOnUse">
      <stop
         offset="0"
         stop-color="#00255d"
         stop-opacity="0"
         id="stop6662" />
      <stop
         offset="0.41"
         stop-color="#031a41"
         stop-opacity="0.41"
         id="stop6664" />
      <stop
         offset="1"
         stop-color="#031b35"
         id="stop6666" />
    </linearGradient>
    <linearGradient
       id="linear-gradient-2"
       x1="22.46"
       y1="14.03"
       x2="19.38"
       y2="17.36"
       xlink:href="#linear-gradient" />
    <linearGradient
       id="linear-gradient-3"
       x1="25.77"
       y1="13.34"
       x2="28.66"
       y2="10.94"
       gradientUnits="userSpaceOnUse">
      <stop
         offset="0"
         stop-color="#fff"
         stop-opacity="0"
         id="stop6670" />
      <stop
         offset="1"
         stop-color="#fff8f8"
         id="stop6672" />
    </linearGradient>
    <linearGradient
       id="New_Gradient_Swatch_13-2"
       x1="23.62"
       y1="36.84"
       x2="18.92"
       y2="43.64"
       gradientTransform="rotate(5.13,22.901642,44.379901)"
       xlink:href="#New_Gradient_Swatch_13" />
    <linearGradient
       id="linear-gradient-4"
       x1="22.57"
       y1="41.04"
       x2="24.8"
       y2="39.39"
       xlink:href="#linear-gradient-3" />
    <linearGradient
       id="linear-gradient-5"
       x1="23.16"
       y1="38.21"
       x2="18.89"
       y2="44.07"
       xlink:href="#linear-gradient" />
    <linearGradient
       id="New_Gradient_Swatch_13-3"
       x1="23.93"
       y1="26.52"
       x2="28.35"
       y2="30.88"
       xlink:href="#New_Gradient_Swatch_13" />
    <linearGradient
       id="linear-gradient-6"
       x1="18.69"
       y1="33.48"
       x2="21.92"
       y2="40.51"
       xlink:href="#linear-gradient" />
    <linearGradient
       id="linear-gradient-7"
       x1="30.99"
       y1="18.07"
       x2="32.74"
       y2="25.51"
       xlink:href="#linear-gradient" />
    <linearGradient
       id="linear-gradient-8"
       x1="25.19"
       y1="30.25"
       x2="22.37"
       y2="28.3"
       xlink:href="#linear-gradient-3" />
    <linearGradient
       id="linear-gradient-9"
       x1="32.67"
       y1="21.45"
       x2="34.73"
       y2="19.76"
       xlink:href="#linear-gradient-3" />
    <linearGradient
       id="linear-gradient-10"
       x1="25.11"
       y1="28.52"
       x2="29.75"
       y2="32.67"
       xlink:href="#linear-gradient" />
    <linearGradient
       id="linear-gradient-11"
       x1="26.25"
       y1="29.11"
       x2="28.77"
       y2="31.84"
       xlink:href="#linear-gradient" />
    <linearGradient
       id="linear-gradient-12"
       x1="16.85"
       y1="8.22"
       x2="22.99"
       y2="8.22"
       gradientUnits="userSpaceOnUse">
      <stop
         offset="0"
         stop-color="#64cc13"
         id="stop6685" />
      <stop
         offset="1"
         stop-color="#408b09"
         id="stop6687" />
    </linearGradient>
    <linearGradient
       id="linear-gradient-13"
       x1="17.36"
       y1="37.06"
       x2="22.48"
       y2="37.06"
       xlink:href="#linear-gradient-12" />
    <radialGradient
       inkscape:collect="always"
       xlink:href="#linearGradient7643"
       id="radialGradient7645"
       cx="23.17"
       cy="42.040001"
       fx="23.17"
       fy="42.040001"
       r="16.530001"
       gradientTransform="matrix(1,0,0,0.35450695,0,27.136528)"
       gradientUnits="userSpaceOnUse" />
    <radialGradient
       inkscape:collect="always"
       xlink:href="#linearGradient7643"
       id="radialGradient8039"
       gradientUnits="userSpaceOnUse"
       gradientTransform="matrix(1,0,0,0.35450695,0,27.136528)"
       cx="23.17"
       cy="42.040001"
       fx="23.17"
       fy="42.040001"
       r="16.530001" />
    <linearGradient
       inkscape:collect="always"
       xlink:href="#New_Gradient_Swatch_13"
       id="linearGradient8041"
       gradientUnits="userSpaceOnUse"
       x1="28.24"
       y1="11.47"
       x2="23.07"
       y2="16.9" />
    <linearGradient
       inkscape:collect="always"
       xlink:href="#linear-gradient"
       id="linearGradient8043"
       gradientUnits="userSpaceOnUse"
       x1="23.74"
       y1="12.42"
       x2="18.9"
       y2="18.24" />
    <linearGradient
       inkscape:collect="always"
       xlink:href="#linear-gradient-3"
       id="linearGradient8045"
       gradientUnits="userSpaceOnUse"
       x1="25.77"
       y1="13.34"
       x2="28.66"
       y2="10.94" />
    <linearGradient
       inkscape:collect="always"
       xlink:href="#linear-gradient-12"
       id="linearGradient8047"
       gradientUnits="userSpaceOnUse"
       x1="16.85"
       y1="8.22"
       x2="22.99"
       y2="8.22" />
  </defs>
  <g
     id="shadow"
     style="fill:url(#radialGradient7645);fill-opacity:1;stroke-width:0.940352"
     transform="matrix(1.0634317,0,0,1.0634317,-0.78404485,-3.0383784)">
    <ellipse
       class="cls-1"
       cx="23.17"
       cy="42.040001"
       rx="16.530001"
       ry="5.8600001"
       id="ellipse6693"
       style="fill:url(#radialGradient8039);fill-opacity:1;stroke-width:0.940352" />
  </g>
  <g
     id="ART"
     transform="matrix(1.0634317,0,0,1.0634317,-0.78404485,-3.0383784)"
     style="stroke-width:0.940352">
    <path
       class="cls-2"
       d="m 17.41,4.18 c -1.94,1.59 -3.6,4.2 0.71,9.42 4.31,5.22 8.88,7.54 11.07,9.3 2.19,1.76 4.15,1.92 5.26,0.81 1.11,-1.11 1.24,-2.95 -0.24,-5.36 -3.22,-5.26 -9,-12.23 -11.16,-14 A 4.84,4.84 0 0 0 17.41,4.18 Z"
       id="path6696"
       style="fill:url(#linearGradient8041);stroke-width:0.940352" />
    <path
       class="cls-3"
       d="m 29.29,21.47 a 5.76,5.76 0 0 0 -0.46,0.89 7.6,7.6 0 0 1 -2.24,-1.29 40.76,40.76 0 0 1 -8.47,-7.47 c -3.94,-4.77 -2.89,-7.35 -1.2,-9 -0.17,1.33 0.65,2.51 3.59,6.55 A 35.73,35.73 0 0 0 23,14.1 c 1.28,1.42 2.62,2.79 4,4.14 l 1.91,1.85 a 1.56,1.56 0 0 0 1,0.61 6,6 0 0 0 -0.62,0.77 z"
       id="path6698"
       style="fill:url(#linearGradient8043);stroke-width:0.940352" />
    <path
       class="cls-4"
       d="m 15.81,6.35 c 0,0 -0.08,1.65 1.93,4.48 a 45.28,45.28 0 0 0 11.47,10.76 l -0.71,0.5 A 57.51,57.51 0 0 1 20.19,15.8 C 16,11.94 15.4,9.44 15.41,7.65"
       id="path6700"
       style="fill:url(#linear-gradient-2);stroke-width:0.940352" />
    <path
       class="cls-5"
       d="m 35.29,21.48 a 0.76,0.76 0 0 1 -0.81,0.34 C 33.91,21.71 33.8,21.28 32.48,19.3 31.16,17.32 24.32,8.1 22,6 19.68,3.9 17.69,4 16.94,4.6 a 6.14,6.14 0 0 1 0.47,-0.42 4.84,4.84 0 0 1 5.64,0.21 c 2.17,1.73 7.94,8.7 11.16,14 a 6.2,6.2 0 0 1 1.08,3.09 z"
       id="path6702"
       style="fill:url(#linearGradient8045);stroke-width:0.940352" />
    <path
       class="cls-6"
       d="m 18.42,35.67 c -1,0.78 -1.67,1.26 -1.54,2.37 0.13,1.11 1.74,2 2.48,2.86 0.74,0.86 1.29,2.59 2.7,3.07 A 4.8,4.8 0 0 0 25.92,43.61 1.27,1.27 0 0 0 25.8,41.51 22.58,22.58 0 0 1 22.58,38.19 5.79,5.79 0 0 1 22,36 c -0.18,-1.11 -1.5,-1.76 -2.11,-1.4 a 11.77,11.77 0 0 0 -1.47,1.07 z"
       id="path6704"
       style="fill:url(#New_Gradient_Swatch_13-2);stroke-width:0.940352" />
    <path
       class="cls-7"
       d="m 22.16,37.84 c 0.19,1.54 0.28,4 1.75,4.52 1.47,0.52 2.24,-0.35 1.89,-0.69 l -2.41,-2.5"
       id="path6706"
       style="fill:url(#linear-gradient-4);stroke-width:0.940352" />
    <path
       class="cls-8"
       d="m 20,38.51 h 0.26 a 2.64,2.64 0 0 0 1.33,-0.31 l -0.42,0.57 a 2.52,2.52 0 0 0 -0.5,0.94 c -0.16,0.82 0.49,1.59 0.94,2.19 0.95,1.28 1.25,1.18 2.25,1.12 1,-0.06 2,-0.36 2.2,-0.78 a 0.68,0.68 0 0 0 0,-0.37 1.2,1.2 0 0 1 -0.21,1.75 4.8,4.8 0 0 1 -3.86,0.36 c -1.41,-0.48 -2,-2.22 -2.7,-3.07 a 9.07,9.07 0 0 1 -0.82,-0.82 c -0.08,-0.11 -0.1,-0.24 -0.19,-0.35 a 2.63,2.63 0 0 0 -0.39,-0.35 3.46,3.46 0 0 1 -0.7,-0.78 1.49,1.49 0 0 1 -0.23,-1 1.8,1.8 0 0 1 1,-1.23 1.33,1.33 0 0 0 0.12,0.92 c 0.13,0.24 0.16,0.41 0.41,0.57 a 5.54,5.54 0 0 0 0.76,0.54 2.13,2.13 0 0 0 0.75,0.1 z"
       id="path6708"
       style="fill:url(#linear-gradient-5);stroke-width:0.940352" />
    <path
       class="cls-9"
       d="m 28.55,31.43 a 30.66,30.66 0 0 0 6.09,-7.62 c 1.17,-1.94 0.59,-3.13 -0.37,-3.89 -0.96,-0.76 -3.4,-0.44 -4.72,1.3 -1.32,1.74 -2.65,2.45 -4.1,4.49 -1.45,2.04 -1.49,4.23 -6,9.09 -1.49,1.61 -1.27,2.81 -0.77,3.36 0.5,0.55 1.77,0.71 3,-0.23 1.23,-0.94 4.32,-4.11 6.87,-6.5 z"
       id="path6710"
       style="fill:url(#New_Gradient_Swatch_13-3);stroke-width:0.940352" />
    <path
       class="cls-10"
       d="m 21.69,37.93 0.59,-0.48 C 22.18,37.07 22.14,36.66 22.03,36 21.85,34.89 20.53,34.24 19.92,34.6 a 7.61,7.61 0 0 0 -0.69,0.45 c -1.26,1.48 -1,2.59 -0.56,3.11 0.44,0.52 1.77,0.71 3.02,-0.23 z"
       id="path6712"
       style="fill:url(#linear-gradient-6);stroke-width:0.940352" />
    <path
       class="cls-11"
       d="m 34.27,19.92 c -1,-0.76 -3.4,-0.44 -4.72,1.3 a 14,14 0 0 1 -1,1.19 c 0.24,0.17 0.46,0.33 0.66,0.49 2.2,1.76 4.15,1.92 5.26,0.81 a 2.93,2.93 0 0 0 0.84,-1.91 2.41,2.41 0 0 0 -1.04,-1.88 z"
       id="path6714"
       style="fill:url(#linear-gradient-7);stroke-width:0.940352" />
    <path
       class="cls-12"
       d="m 29.52,21.59 c -1.2,1.08 -0.11,-0.07 -1.61,2.26 -1.5,2.33 -2.32,5.09 -3.42,6.7 a 30.68,30.68 0 0 1 -4.59,5 10.73,10.73 0 0 0 -1.6,1.56 11.77,11.77 0 0 1 0.93,-2.09 c 0.53,-0.89 2.1,-2 3.57,-4.58 1.47,-2.58 2.19,-4.55 3.71,-6.06"
       id="path6716"
       style="fill:url(#linear-gradient-8);stroke-width:0.940352" />
    <path
       class="cls-13"
       d="m 35.29,21.48 a 0.76,0.76 0 0 1 -0.81,0.34 C 33.55,21.65 33,20 32.54,19.33 l 1.69,0.56 a 1.86,1.86 0 0 1 0.5,0.22 c 0.27,0.18 0.78,1.01 0.56,1.37 z"
       id="path6718"
       style="fill:url(#linear-gradient-9);stroke-width:0.940352" />
    <path
       class="cls-14"
       d="m 18.24,37.43 a 27,27 0 0 0 6.2,-5.34 c 2.2,-2.77 2,-4 4.16,-6.26 2.16,-2.26 3.69,-4 4.59,-3.69 0.9,0.31 1.66,0.49 2.07,-0.05 0,0 0,1.25 -2.56,4.73 a 68.87,68.87 0 0 1 -9.78,10 c -1.36,0.89 -1.94,2 -3.59,1.54 -1.65,-0.46 -1.09,-0.93 -1.09,-0.93 z"
       id="path6720"
       style="fill:url(#linear-gradient-10);stroke-width:0.940352" />
    <path
       class="cls-15"
       d="m 20.49,38.37 c 0,0 5.53,-5.71 8.72,-9.56 3.19,-3.85 4.23,-5.34 4.23,-5.34 A 4,4 0 0 1 35,23 a 18.26,18.26 0 0 1 -1.68,3 32,32 0 0 1 -5,5.7 c -3.96,3.8 -4.8,5.3 -6.74,6.3"
       id="path6722"
       style="fill:url(#linear-gradient-11);stroke-width:0.940352" />
    <path
       class="cls-16"
       d="m 28.55,31.43 a 30.66,30.66 0 0 0 6.09,-7.62 c 1.17,-1.94 0.59,-3.13 -0.37,-3.89 -0.96,-0.76 -3.4,-0.44 -4.72,1.3 -1.32,1.74 -2.65,2.45 -4.1,4.49 -1.45,2.04 -1.49,4.23 -6,9.09 -1.49,1.61 -1.27,2.81 -0.77,3.36 0.5,0.55 1.77,0.71 3,-0.23 1.23,-0.94 4.32,-4.11 6.87,-6.5 z"
       id="path6724" />
    <path
       class="cls-16"
       d="m 18.42,35.67 c -1,0.78 -1.67,1.26 -1.54,2.37 0.13,1.11 1.74,2 2.48,2.86 0.74,0.86 1.29,2.59 2.7,3.07 A 4.8,4.8 0 0 0 25.92,43.61 1.27,1.27 0 0 0 25.8,41.51 22.58,22.58 0 0 1 22.58,38.19 5.79,5.79 0 0 1 22,36 c -0.18,-1.11 -1.5,-1.76 -2.11,-1.4 a 11.77,11.77 0 0 0 -1.47,1.07 z"
       id="path6726" />
    <path
       class="cls-17"
       d="m 17.41,4.18 c -1.94,1.59 -3.6,4.2 0.71,9.42 4.31,5.22 8.88,7.54 11.07,9.3 2.19,1.76 4.15,1.92 5.26,0.81 1.11,-1.11 1.24,-2.95 -0.24,-5.36 -3.22,-5.26 -9,-12.23 -11.16,-14 A 4.84,4.84 0 0 0 17.41,4.18 Z"
       id="path6728" />
    <path
       class="cls-18"
       d="m 34.21,18.35 c -3.22,-5.26 -9,-12.23 -11.16,-14 A 4.84,4.84 0 0 0 17.41,4.14 c -1.94,1.59 -3.6,4.2 0.71,9.42 3.92,4.74 8,7.09 10.41,8.81 a 24.59,24.59 0 0 0 -3.08,3.3 c -1.45,2 -1.49,4.23 -6,9.09 l -0.21,0.25 c -0.22,0.15 -0.44,0.33 -0.81,0.62 -1,0.78 -1.67,1.26 -1.54,2.37 0.13,1.11 1.74,2 2.48,2.86 0.74,0.86 1.29,2.59 2.7,3.07 a 4.8,4.8 0 0 0 3.86,-0.36 1.27,1.27 0 0 0 -0.12,-2.1 22.58,22.58 0 0 1 -3.22,-3.32 2.81,2.81 0 0 1 -0.3,-0.74 c 1.47,-1.29 4.09,-3.94 6.27,-6 a 30.66,30.66 0 0 0 6.09,-7.62 3.86,3.86 0 0 0 0.65,-2 6.06,6.06 0 0 0 -1.09,-3.44 z"
       id="path6730" />
    <circle
       class="cls-19"
       cx="19.92"
       cy="8.2200003"
       r="2.8199999"
       id="circle6732"
       style="stroke-width:0.940352" />
    <circle
       class="cls-20"
       cx="19.92"
       cy="8.2200003"
       r="2.8199999"
       id="circle6734"
       style="stroke:url(#linearGradient8047)" />
    <circle
       class="cls-21"
       cx="19.92"
       cy="8.2200003"
       r="1.36"
       id="circle6736"
       style="stroke-width:0.940352" />
    <circle
       class="cls-19"
       cx="19.92"
       cy="37.060001"
       r="2.3099999"
       id="circle6738"
       style="stroke-width:0.940352" />
    <circle
       class="cls-22"
       cx="19.92"
       cy="37.060001"
       r="2.3099999"
       id="circle6740"
       style="stroke:url(#linear-gradient-13)" />
    <circle
       class="cls-21"
       cx="19.92"
       cy="37.060001"
       r="1.11"
       id="circle6742"
       style="stroke-width:0.940352" />
    <line
       class="cls-23"
       x1="19.92"
       y1="8.2200003"
       x2="19.92"
       y2="37.060001"
       id="line6744"
       style="stroke-width:0.940352" />
  </g>
</svg>
