<?xml version="1.0" encoding="UTF-8" standalone="no"?>
<svg
   viewBox="0 0 48 48"
   version="1.1"
   id="svg5067"
   sodipodi:docname="muscleconstraintpropertiesvellum.svg"
   inkscape:version="1.2-dev (7be2d9a5, 2021-09-13)"
   xmlns:inkscape="http://www.inkscape.org/namespaces/inkscape"
   xmlns:sodipodi="http://sodipodi.sourceforge.net/DTD/sodipodi-0.dtd"
   xmlns:xlink="http://www.w3.org/1999/xlink"
   xmlns="http://www.w3.org/2000/svg"
   xmlns:svg="http://www.w3.org/2000/svg">
  <sodipodi:namedview
     id="namedview5069"
     pagecolor="#ffffff"
     bordercolor="#666666"
     borderopacity="1.0"
     inkscape:pageshadow="2"
     inkscape:pageopacity="0.0"
     inkscape:pagecheckerboard="0"
     showgrid="false"
     inkscape:zoom="16.145833"
     inkscape:cx="12.015484"
     inkscape:cy="24"
     inkscape:window-width="2880"
     inkscape:window-height="1557"
     inkscape:window-x="-8"
     inkscape:window-y="-8"
     inkscape:window-maximized="1"
     inkscape:current-layer="svg5067" />
  <defs
     id="defs5013">
    <linearGradient
       inkscape:collect="always"
       id="linearGradient10950">
      <stop
         style="stop-color:#000000;stop-opacity:0.42857143;"
         offset="0"
         id="stop10946" />
      <stop
         style="stop-color:#000000;stop-opacity:0;"
         offset="1"
         id="stop10948" />
    </linearGradient>
    <linearGradient
       inkscape:collect="always"
       id="linearGradient10067">
      <stop
         style="stop-color:#000000;stop-opacity:0.54395604;"
         offset="0"
         id="stop10063" />
      <stop
         style="stop-color:#000000;stop-opacity:0;"
         offset="1"
         id="stop10065" />
    </linearGradient>
    <style
       id="style4926">.cls-1{fill:url(#linear-gradient);}.cls-2{fill:url(#radial-gradient);}.cls-3{fill:#7be028;}.cls-4{fill:#64cc13;}.cls-11,.cls-13,.cls-15,.cls-16,.cls-17,.cls-18,.cls-19,.cls-20,.cls-21,.cls-22,.cls-5{fill:none;}.cls-11,.cls-16,.cls-17,.cls-18,.cls-19,.cls-20,.cls-21,.cls-22,.cls-5{stroke-miterlimit:10;}.cls-5{stroke-width:0.5px;stroke:url(#linear-gradient-2);}.cls-6{mask:url(#mask);}.cls-7{fill:#e9e9e6;}.cls-8{fill:url(#linear-gradient-3);}.cls-9{fill:#abafa6;}.cls-10{fill:url(#linear-gradient-4);}.cls-11{stroke:#888a85;}.cls-11,.cls-13,.cls-15{stroke-width:0.7px;}.cls-12{fill:url(#linear-gradient-5);}.cls-13{stroke:#757772;}.cls-13,.cls-15{stroke-linecap:round;stroke-linejoin:round;}.cls-14{fill:url(#radial-gradient-2);}.cls-15{stroke:#900004;}.cls-16,.cls-17,.cls-18,.cls-19,.cls-20,.cls-21,.cls-22{stroke-width:0.35px;}.cls-16{stroke:url(#linear-gradient-6);}.cls-17{stroke:url(#linear-gradient-7);}.cls-18{stroke:url(#linear-gradient-8);}.cls-19{stroke:url(#linear-gradient-9);}.cls-20{stroke:url(#linear-gradient-10);}.cls-21{stroke:url(#linear-gradient-11);}.cls-22{stroke:url(#linear-gradient-12);}</style>
    <linearGradient
       id="linear-gradient"
       x1="34.45"
       y1="19.93"
       x2="43.56"
       y2="15.53"
       gradientUnits="userSpaceOnUse">
      <stop
         offset="0"
         stop-color="#fff"
         id="stop4928" />
      <stop
         offset="0.04"
         stop-color="#f1f1f1"
         id="stop4930" />
      <stop
         offset="0.25"
         stop-color="#a9a9a9"
         id="stop4932" />
      <stop
         offset="0.45"
         stop-color="#6d6d6d"
         id="stop4934" />
      <stop
         offset="0.63"
         stop-color="#3e3e3e"
         id="stop4936" />
      <stop
         offset="0.78"
         stop-color="#1c1c1c"
         id="stop4938" />
      <stop
         offset="0.91"
         stop-color="#070707"
         id="stop4940" />
      <stop
         offset="1"
         id="stop4942" />
    </linearGradient>
    <radialGradient
       id="radial-gradient"
       cx="-157.32"
       cy="119.69"
       r="17.62"
       gradientTransform="translate(225.91 -38.02) scale(1.27 0.63)"
       gradientUnits="userSpaceOnUse">
      <stop
         offset="0.18"
         stop-color="#212121"
         stop-opacity="0.4"
         id="stop4945" />
      <stop
         offset="0.37"
         stop-color="#212121"
         stop-opacity="0.27"
         id="stop4947" />
      <stop
         offset="0.94"
         stop-color="#212121"
         stop-opacity="0"
         id="stop4949" />
    </radialGradient>
    <linearGradient
       id="linear-gradient-2"
       x1="-536.33"
       y1="252.66"
       x2="-526.2"
       y2="252.66"
       gradientTransform="matrix(0,1,1,0,-230.9,547.59)"
       gradientUnits="userSpaceOnUse">
      <stop
         offset="0"
         stop-color="#64cc13"
         id="stop4952" />
      <stop
         offset="1"
         stop-color="#408b09"
         id="stop4954" />
    </linearGradient>
    <mask
       id="mask"
       x="1.42"
       y="4.8"
       width="46.1"
       height="39.87"
       maskUnits="userSpaceOnUse">
      <rect
         class="cls-1"
         x="1.42"
         y="4.8"
         width="46.1"
         height="39.87"
         id="rect4957" />
    </mask>
    <linearGradient
       id="linear-gradient-3"
       x1="-1.52"
       y1="8.8"
       x2="39.77"
       y2="45.12"
       gradientUnits="userSpaceOnUse">
      <stop
         offset="0"
         stop-color="#eeeeec"
         id="stop4960" />
      <stop
         offset="1"
         stop-color="#babdb6"
         id="stop4962" />
    </linearGradient>
    <linearGradient
       id="linear-gradient-4"
       x1="29.74"
       y1="35.32"
       x2="13.72"
       y2="22.39"
       gradientUnits="userSpaceOnUse">
      <stop
         offset="0"
         stop-color="#fff"
         stop-opacity="0"
         id="stop4965" />
      <stop
         offset="1"
         stop-color="#fff8f8"
         id="stop4967" />
    </linearGradient>
    <linearGradient
       id="linear-gradient-5"
       x1="39.45"
       y1="-6.76"
       x2="39.45"
       y2="-11.43"
       gradientTransform="rotate(-30,92.674719,18.232116)"
       gradientUnits="userSpaceOnUse">
      <stop
         offset="0.36"
         stop-color="#abafa6"
         id="stop4970" />
      <stop
         offset="0.85"
         stop-color="#e9e9e6"
         id="stop4972" />
    </linearGradient>
    <radialGradient
       id="radial-gradient-2"
       cx="43.58"
       cy="-10.81"
       r="11.69"
       gradientTransform="matrix(0.8660254,-0.5,0.335,0.58023702,1.5,45.66)"
       gradientUnits="userSpaceOnUse">
      <stop
         offset="0"
         stop-color="#f587a5"
         id="stop4975" />
      <stop
         offset="0.4"
         stop-color="#f47b9c"
         id="stop4977" />
      <stop
         offset="0.48"
         stop-color="#f17495"
         id="stop4979" />
      <stop
         offset="0.6"
         stop-color="#e86082"
         id="stop4981" />
      <stop
         offset="0.75"
         stop-color="#da3f63"
         id="stop4983" />
      <stop
         offset="0.88"
         stop-color="#cb1b41"
         id="stop4985" />
    </radialGradient>
    <linearGradient
       id="linear-gradient-6"
       x1="30.48"
       y1="-13.3"
       x2="53.36"
       y2="-13.3"
       gradientTransform="translate(3.3 48.78) rotate(-30)"
       gradientUnits="userSpaceOnUse">
      <stop
         offset="0"
         stop-color="#900004"
         id="stop4988" />
      <stop
         offset="0.06"
         stop-color="#900004"
         stop-opacity="0.96"
         id="stop4990" />
      <stop
         offset="0.15"
         stop-color="#900004"
         stop-opacity="0.84"
         id="stop4992" />
      <stop
         offset="0.25"
         stop-color="#900004"
         stop-opacity="0.65"
         id="stop4994" />
      <stop
         offset="0.35"
         stop-color="#900004"
         stop-opacity="0.39"
         id="stop4996" />
      <stop
         offset="0.38"
         stop-color="#900004"
         stop-opacity="0.3"
         id="stop4998" />
      <stop
         offset="0.62"
         stop-color="#900004"
         stop-opacity="0.3"
         id="stop5000" />
      <stop
         offset="0.75"
         stop-color="#900004"
         stop-opacity="0.55"
         id="stop5002" />
      <stop
         offset="1"
         stop-color="#900004"
         id="stop5004" />
    </linearGradient>
    <linearGradient
       id="linear-gradient-7"
       x1="30.41"
       y1="-12.18"
       x2="53.41"
       y2="-12.18"
       xlink:href="#linear-gradient-6" />
    <linearGradient
       id="linear-gradient-8"
       x1="30.39"
       y1="-11.07"
       x2="53.4"
       y2="-11.07"
       xlink:href="#linear-gradient-6" />
    <linearGradient
       id="linear-gradient-9"
       x1="30.47"
       y1="-9.95"
       x2="53.29"
       y2="-9.95"
       xlink:href="#linear-gradient-6" />
    <linearGradient
       id="linear-gradient-10"
       x1="30.39"
       y1="-8.83"
       x2="53.4"
       y2="-8.83"
       xlink:href="#linear-gradient-6" />
    <linearGradient
       id="linear-gradient-11"
       x1="30.41"
       y1="-7.72"
       x2="53.41"
       y2="-7.72"
       xlink:href="#linear-gradient-6" />
    <linearGradient
       id="linear-gradient-12"
       x1="30.48"
       y1="-6.6"
       x2="53.36"
       y2="-6.6"
       xlink:href="#linear-gradient-6" />
    <radialGradient
       inkscape:collect="always"
       xlink:href="#linearGradient10067"
       id="radialGradient10069"
       cx="24.059999"
       cy="37.060001"
       fx="24.059999"
       fy="37.060001"
       r="21.51"
       gradientTransform="matrix(1,0,0,0.49930263,0,18.555845)"
       gradientUnits="userSpaceOnUse" />
    <radialGradient
       inkscape:collect="always"
       xlink:href="#linearGradient10950"
       id="radialGradient10587"
       gradientUnits="userSpaceOnUse"
       gradientTransform="matrix(1,0,0,0.49930263,0,18.555845)"
       cx="24.059999"
       cy="37.060001"
       fx="24.059999"
       fy="37.060001"
       r="21.51" />
    <linearGradient
       inkscape:collect="always"
       xlink:href="#linear-gradient-6"
       id="linearGradient10589"
       gradientUnits="userSpaceOnUse"
       gradientTransform="rotate(-30,92.674719,18.232116)"
       x1="30.48"
       y1="-13.3"
       x2="53.36"
       y2="-13.3" />
  </defs>
  <g
     id="shadow"
     style="fill:url(#radialGradient10069);fill-opacity:1;stroke-width:1.1444"
     transform="matrix(1,0,0,0.763561,0,11.301785)">
    <ellipse
       class="cls-2"
       cx="24.059999"
       cy="37.060001"
       rx="21.51"
       ry="10.74"
       id="ellipse5015"
       style="fill:url(#radialGradient10587);fill-opacity:1;stroke-width:1.1444" />
  </g>
  <g
     id="ART"
     transform="matrix(1.1631344,0,0,1.1639513,-4.3145387,-6.3346481)"
     style="stroke-width:0.859444">
    <polygon
       class="cls-3"
       points="17.97,17.25 21.76,21.04 21.76,18.34 19.32,15.9 "
       id="polygon5018"
       style="stroke-width:0.859444" />
    <polygon
       class="cls-3"
       points="17.97,17.25 19.32,15.9 20.88,17.46 20.88,11.52 22.64,11.52 22.64,17.46 24.2,15.9 25.55,17.25 21.76,21.04 "
       id="polygon5020"
       style="stroke-width:0.859444" />
    <rect
       class="cls-4"
       x="18.790001"
       y="14.49"
       width="6.8200002"
       height="0.88"
       transform="rotate(90,22.2,14.93)"
       id="rect5022"
       style="stroke-width:0.859444" />
    <polygon
       class="cls-4"
       points="25.55,17.25 21.76,21.04 21.76,18.34 24.2,15.9 "
       id="polygon5024"
       style="stroke-width:0.859444" />
    <polygon
       class="cls-5"
       points="17.97,17.25 19.32,15.9 20.88,17.46 20.88,11.52 22.64,11.52 22.64,17.46 24.2,15.9 25.55,17.25 21.76,21.04 "
       id="polygon5026"
       style="stroke:url(#linear-gradient-2)" />
    <g
       class="cls-6"
       mask="url(#mask)"
       id="g5064"
       style="stroke-width:0.859444">
      <path
         class="cls-7"
         d="m 22.37,29.06 c 0.81,1.41 1.75,1.89 3.52,2.58 1.77,0.69 2.74,1.78 2.72,3.12 a 2.51,2.51 0 0 1 -2.47,2.36 c -0.91,0 -1.68,-0.45 -2.51,0 -0.83,0.45 -0.81,1.37 -1.27,2.15 a 2.51,2.51 0 0 1 -3.28,1 c -1.17,-0.65 -1.64,-2 -1.35,-3.91 0.29,-1.91 0.35,-2.93 -0.47,-4.34 l -7,-12.08 C 9.45,18.54 8.51,18.06 6.74,17.37 4.97,16.68 4,15.58 4.05,14.24 a 2.51,2.51 0 0 1 2.47,-2.36 c 0.91,0 1.68,0.45 2.51,0 0.83,-0.45 0.81,-1.38 1.27,-2.16 a 2.52,2.52 0 0 1 3.29,-0.95 c 1.16,0.65 1.63,2 1.34,3.91 -0.29,1.91 -0.34,2.93 0.47,4.34 z"
         id="path5028"
         style="stroke-width:0.859444" />
      <path
         class="cls-8"
         d="m 22.37,29.06 c 0.81,1.41 1.75,1.89 3.52,2.58 1.77,0.69 2.74,1.78 2.72,3.12 a 2.51,2.51 0 0 1 -2.47,2.36 c -0.91,0 -1.68,-0.45 -2.51,0 -0.83,0.45 -0.81,1.37 -1.27,2.15 a 2.51,2.51 0 0 1 -3.28,1 c -1.17,-0.65 -1.64,-2 -1.35,-3.91 0.29,-1.91 0.35,-2.93 -0.47,-4.34 l -7,-12.08 C 9.45,18.54 8.51,18.06 6.74,17.37 4.97,16.68 4,15.58 4.05,14.24 a 2.51,2.51 0 0 1 2.47,-2.36 c 0.91,0 1.68,0.45 2.51,0 0.83,-0.45 0.81,-1.38 1.27,-2.16 a 2.52,2.52 0 0 1 3.29,-0.95 c 1.16,0.65 1.63,2 1.34,3.91 -0.29,1.91 -0.34,2.93 0.47,4.34 z"
         id="path5030"
         style="fill:url(#linear-gradient-3);stroke-width:0.859444" />
      <path
         class="cls-9"
         d="m 28.61,34.76 a 2.52,2.52 0 0 1 -2.47,2.36 c -0.91,0 -1.68,-0.45 -2.51,0 -0.83,0.45 -0.81,1.37 -1.27,2.16 a 2.53,2.53 0 0 1 -1.42,1.1 l -0.19,-0.22 c 0.86,-0.42 1.08,-1.64 1.18,-2.45 0.1,-0.81 0.1,-1.43 1,-2 0.9,-0.57 2,0.24 3.15,0.09 1.15,-0.15 2.59,-1.71 1.38,-3 a 1.59,1.59 0 0 1 -0.31,-0.56 2.87,2.87 0 0 1 1.46,2.52 z"
         id="path5032"
         style="stroke-width:0.859444" />
      <path
         class="cls-9"
         d="M 27.13,32.27 A 3,3 0 0 1 26.28,32.09 C 24.03,31.33 21.5,31.16 20.34,29.15 l -5.55,-9.62 c -1.06,-1.83 -1.18,-1.92 -1.41,-3 -0.37,-1.68 1.29,-4.27 1.29,-4.27 l 0.32,-0.21 c 0,0.19 0,0.4 -0.06,0.6 -0.29,1.88 -0.35,2.93 0.47,4.34 l 7,12.08 c 0.81,1.4 1.75,1.88 3.52,2.57 a 6.25,6.25 0 0 1 1.21,0.63 z"
         id="path5034"
         style="stroke-width:0.859444" />
      <path
         class="cls-10"
         d="m 14.93,12.65 c 0,0.13 0,0.24 0,0.35 -0.17,0 -0.26,-0.22 -0.21,-0.74 0.26,-2.53 -2.25,-2.45 -2.6,-1.58 -0.35,0.87 -0.44,2.13 -2,3 -1.56,0.87 -2.73,-0.16 -3.51,0.54 -0.78,0.7 0.69,1.57 2.06,2 a 5,5 0 0 1 3.29,2.41 l 7.59,13.14 c 0.9,1.56 0.24,3.8 0.1,5.22 -0.14,1.42 -0.22,3.22 1.32,3.18 a 2.11,2.11 0 0 0 0.78,-0.18 2.46,2.46 0 0 1 -2.64,0.26 c -1.17,-0.66 -1.64,-2 -1.35,-3.92 0.29,-1.92 0.35,-2.93 -0.46,-4.34 l -7,-12.08 C 9.48,18.5 8.54,18.03 6.77,17.34 5,16.65 4,15.58 4.05,14.24 a 2.51,2.51 0 0 1 2.47,-2.36 c 0.91,0 1.68,0.45 2.51,0 0.83,-0.45 0.81,-1.38 1.28,-2.16 a 2.51,2.51 0 0 1 3.28,-0.95 c 1.16,0.62 1.62,2 1.34,3.88 z"
         id="path5036"
         style="fill:url(#linear-gradient-4);stroke-width:0.859444" />
      <path
         class="cls-11"
         d="m 22.37,29.06 c 0.81,1.41 1.75,1.89 3.52,2.58 1.77,0.69 2.74,1.78 2.72,3.12 a 2.51,2.51 0 0 1 -2.47,2.36 c -0.91,0 -1.68,-0.45 -2.51,0 -0.83,0.45 -0.81,1.37 -1.27,2.15 a 2.51,2.51 0 0 1 -3.28,1 c -1.17,-0.65 -1.64,-2 -1.35,-3.91 0.29,-1.91 0.35,-2.93 -0.47,-4.34 l -7,-12.08 C 9.45,18.54 8.51,18.06 6.74,17.37 4.97,16.68 4,15.58 4.05,14.24 a 2.51,2.51 0 0 1 2.47,-2.36 c 0.91,0 1.68,0.45 2.51,0 0.83,-0.45 0.81,-1.38 1.27,-2.16 a 2.52,2.52 0 0 1 3.29,-0.95 c 1.16,0.65 1.63,2 1.34,3.91 -0.29,1.91 -0.34,2.93 0.47,4.34 z"
         id="path5038" />
      <path
         class="cls-12"
         d="m 45.81,15.71 a 12.62,12.62 0 0 1 -6.49,9.13 c -4.45,2.57 -11.83,0.15 -15.13,2.06 a 3.52,3.52 0 0 0 -1.75,2.3 7.48,7.48 0 0 1 -2,-1.82 7.58,7.58 0 0 1 -0.59,-2.63 3.54,3.54 0 0 0 2.88,-0.35 c 3.29,-1.91 4.89,-9.52 9.34,-12.09 a 12.63,12.63 0 0 1 11.15,-1.05 z"
         id="path5040"
         style="fill:url(#linear-gradient-5);stroke-width:0.859444" />
      <path
         class="cls-9"
         d="m 21,28 a 6.8,6.8 0 0 1 4.21,-2.85 l 0.73,1.12 A 4.66,4.66 0 0 0 22.26,29"
         id="path5042"
         style="stroke-width:0.859444" />
      <path
         class="cls-13"
         d="m 45.81,15.71 a 12.62,12.62 0 0 1 -6.49,9.13 c -4.45,2.57 -11.83,0.15 -15.13,2.06 a 3.52,3.52 0 0 0 -1.75,2.3 7.48,7.48 0 0 1 -2,-1.82 7.58,7.58 0 0 1 -0.59,-2.63 3.54,3.54 0 0 0 2.88,-0.35 c 3.29,-1.91 4.89,-9.52 9.34,-12.09 a 12.63,12.63 0 0 1 11.15,-1.05 z"
         id="path5044" />
      <path
         class="cls-14"
         d="m 26,26.28 c 3.71,-0.65 9.56,0.73 13.31,-1.44 a 12.62,12.62 0 0 0 6.49,-9.13 l -2.57,-4.45 a 12.63,12.63 0 0 0 -11.15,1.05 c -3.78,2.19 -5.5,8 -8,10.87 a 4.11,4.11 0 0 0 0.49,1.8 4,4 0 0 0 1.43,1.3 z"
         id="path5046"
         style="fill:url(#radial-gradient-2);stroke-width:0.859444" />
      <path
         class="cls-15"
         d="m 26,26.28 c 3.71,-0.65 9.56,0.73 13.31,-1.44 a 12.62,12.62 0 0 0 6.49,-9.13 l -2.57,-4.45 a 12.63,12.63 0 0 0 -11.15,1.05 c -3.78,2.19 -5.5,8 -8,10.87 a 4.11,4.11 0 0 0 0.49,1.8 4,4 0 0 0 1.43,1.3 z"
         id="path5048" />
      <path
         class="cls-16"
         d="M 43.55,12 C 41.16,11.32 37.24,11.25 32.75,13.84 28.94,16.05 26.8,21.21 24.2,23.9"
         id="path5050"
         style="stroke:url(#linearGradient10589)" />
      <path
         class="cls-17"
         d="m 43.91,12.49 c -2.1,-0.16 -5.7,0.37 -10.23,3 -3.84,2.21 -6.57,6.41 -9.36,8.81"
         id="path5052"
         style="stroke:url(#linear-gradient-7)" />
      <path
         class="cls-18"
         d="m 44.23,13 a 34.08,34.08 0 0 0 -9.62,4.09 c -3.85,2.22 -7.16,5.45 -10.13,7.56"
         id="path5054"
         style="stroke:url(#linear-gradient-8)" />
      <path
         class="cls-19"
         d="m 44.48,13.51 -8.94,5.17 -10.83,6.25"
         id="path5056"
         style="stroke:url(#linear-gradient-9)" />
      <path
         class="cls-20"
         d="m 44.82,14 a 34,34 0 0 1 -8.35,6.29 c -3.85,2.22 -8.3,3.48 -11.62,5"
         id="path5058"
         style="stroke:url(#linear-gradient-10)" />
      <path
         class="cls-21"
         d="m 45.08,14.52 c -0.91,1.9 -3.17,4.76 -7.69,7.37 -3.84,2.21 -8.84,2.48 -12.32,3.7"
         id="path5060"
         style="stroke:url(#linear-gradient-11)" />
      <path
         class="cls-22"
         d="M 45.31,15.07 C 44.7,17.48 42.8,20.9 38.31,23.5 34.5,25.7 29,25 25.33,25.88"
         id="path5062"
         style="stroke:url(#linear-gradient-12)" />
    </g>
  </g>
</svg>
