<?xml version="1.0" encoding="UTF-8" standalone="no"?>
<!-- Created with Inkscape (http://www.inkscape.org/) -->

<svg
   width="48px"
   height="48px"
   id="svg22450"
   sodipodi:version="0.32"
   inkscape:version="1.3-dev (fdc7329b, 2022-05-31)"
   sodipodi:docname="packedfoldersplit.svg"
   version="1.1"
   xmlns:inkscape="http://www.inkscape.org/namespaces/inkscape"
   xmlns:sodipodi="http://sodipodi.sourceforge.net/DTD/sodipodi-0.dtd"
   xmlns:xlink="http://www.w3.org/1999/xlink"
   xmlns="http://www.w3.org/2000/svg"
   xmlns:svg="http://www.w3.org/2000/svg"
   xmlns:a="http://ns.adobe.com/AdobeSVGViewerExtensions/3.0/"
   xmlns:i="http://ns.adobe.com/AdobeIllustrator/10.0/">
  <defs
     id="defs22452">
    <linearGradient
       inkscape:collect="always"
       id="linearGradient5">
      <stop
         style="stop-color:#fcaf3e;stop-opacity:1"
         offset="0"
         id="stop4" />
      <stop
         style="stop-color:#ef2929;stop-opacity:1"
         offset="1"
         id="stop5" />
    </linearGradient>
    <linearGradient
       inkscape:collect="always"
       id="linearGradient2">
      <stop
         style="stop-color:#ad7fa8;stop-opacity:1;"
         offset="0"
         id="stop1" />
      <stop
         style="stop-color:#ffdffc;stop-opacity:1;"
         offset="1"
         id="stop2" />
    </linearGradient>
    <linearGradient
       y2="479.5569"
       x2="248.4156"
       y1="455.6318"
       x1="219.1743"
       gradientUnits="userSpaceOnUse"
       id="XMLID_285_"
       gradientTransform="translate(-216.0158,-443.2193)">
      <stop
         id="stop20834"
         style="stop-color:#FFFFFF"
         offset="0" />
      <stop
         id="stop20836"
         style="stop-color:#FEF2DF"
         offset="0.0741" />
      <stop
         id="stop20838"
         style="stop-color:#FCD18F"
         offset="0.2353" />
      <stop
         id="stop20840"
         style="stop-color:#FAAF3E"
         offset="0.3876" />
      <stop
         id="stop20842"
         style="stop-color:#CE5C0B"
         offset="1" />
      <a:midPointStop
         style="stop-color:#FFFFFF"
         offset="0" />
      <a:midPointStop
         style="stop-color:#FFFFFF"
         offset="0.5294" />
      <a:midPointStop
         style="stop-color:#FAAF3E"
         offset="0.3876" />
      <a:midPointStop
         style="stop-color:#FAAF3E"
         offset="0.5" />
      <a:midPointStop
         style="stop-color:#CE5C0B"
         offset="1" />
    </linearGradient>
    <linearGradient
       y2="481.38889"
       x2="252.5858"
       y1="459.7168"
       x1="222.84911"
       gradientUnits="userSpaceOnUse"
       id="XMLID_286_"
       gradientTransform="translate(-216.0158,-443.2193)">
      <stop
         id="stop20849"
         style="stop-color:#FFFFFF"
         offset="0" />
      <stop
         id="stop20851"
         style="stop-color:#FEF2DF"
         offset="0.0741" />
      <stop
         id="stop20853"
         style="stop-color:#FCD18F"
         offset="0.2353" />
      <stop
         id="stop20855"
         style="stop-color:#FAAF3E"
         offset="0.3876" />
      <stop
         id="stop20857"
         style="stop-color:#CE5C0B"
         offset="1" />
      <a:midPointStop
         style="stop-color:#FFFFFF"
         offset="0" />
      <a:midPointStop
         style="stop-color:#FFFFFF"
         offset="0.5294" />
      <a:midPointStop
         style="stop-color:#FAAF3E"
         offset="0.3876" />
      <a:midPointStop
         style="stop-color:#FAAF3E"
         offset="0.5" />
      <a:midPointStop
         style="stop-color:#CE5C0B"
         offset="1" />
    </linearGradient>
    <linearGradient
       y2="481.9611"
       x2="240.6321"
       y1="460.6748"
       x1="235.0557"
       gradientUnits="userSpaceOnUse"
       id="XMLID_287_"
       gradientTransform="matrix(0.95403859,0,0,0.95398307,-200.6896,-417.374)">
      <stop
         id="stop20862"
         style="stop-color:#FFFFFF"
         offset="0.3989" />
      <stop
         id="stop20864"
         style="stop-color:#FCFDFD"
         offset="0.5608" />
      <stop
         id="stop20866"
         style="stop-color:#F3F7F8"
         offset="0.6784" />
      <stop
         id="stop20868"
         style="stop-color:#E3ECEF"
         offset="0.7819" />
      <stop
         id="stop20870"
         style="stop-color:#CDDDE2"
         offset="0.8772" />
      <stop
         id="stop20872"
         style="stop-color:#B0CAD2"
         offset="0.9663" />
      <stop
         id="stop20874"
         style="stop-color:#A3C1CB"
         offset="1" />
      <a:midPointStop
         style="stop-color:#FFFFFF"
         offset="0.3989" />
      <a:midPointStop
         style="stop-color:#FFFFFF"
         offset="0.7684" />
      <a:midPointStop
         style="stop-color:#A3C1CB"
         offset="1" />
    </linearGradient>
    <linearGradient
       gradientTransform="matrix(-0.5,-0.866,-0.866,0.5,382.8573,-1864.536)"
       y2="1282.3604"
       x2="-1949.2118"
       y1="1282.3604"
       x1="-1936.6489"
       gradientUnits="userSpaceOnUse"
       id="XMLID_288_">
      <stop
         id="stop20883"
         style="stop-color:#FAAF3E"
         offset="0" />
      <stop
         id="stop20885"
         style="stop-color:#E96712"
         offset="1" />
      <a:midPointStop
         style="stop-color:#FAAF3E"
         offset="0" />
      <a:midPointStop
         style="stop-color:#FAAF3E"
         offset="0.5" />
      <a:midPointStop
         style="stop-color:#E96712"
         offset="1" />
    </linearGradient>
    <linearGradient
       y2="454.137"
       x2="225.8029"
       y1="453.4746"
       x1="225.6294"
       gradientUnits="userSpaceOnUse"
       id="XMLID_289_">
      <stop
         id="stop20898"
         style="stop-color:#FFFFFF"
         offset="0.3989" />
      <stop
         id="stop20900"
         style="stop-color:#FCFDFD"
         offset="0.5608" />
      <stop
         id="stop20902"
         style="stop-color:#F3F7F8"
         offset="0.6784" />
      <stop
         id="stop20904"
         style="stop-color:#E3ECEF"
         offset="0.7819" />
      <stop
         id="stop20906"
         style="stop-color:#CDDDE2"
         offset="0.8772" />
      <stop
         id="stop20908"
         style="stop-color:#B0CAD2"
         offset="0.9663" />
      <stop
         id="stop20910"
         style="stop-color:#A3C1CB"
         offset="1" />
      <a:midPointStop
         style="stop-color:#FFFFFF"
         offset="0.3989" />
      <a:midPointStop
         style="stop-color:#FFFFFF"
         offset="0.7684" />
      <a:midPointStop
         style="stop-color:#A3C1CB"
         offset="1" />
    </linearGradient>
    <linearGradient
       id="linearGradient22507"
       gradientUnits="userSpaceOnUse"
       x1="-1936.6489"
       y1="1282.3604"
       x2="-1949.2118"
       y2="1282.3604"
       gradientTransform="matrix(-0.5,-0.866,-0.866,0.5,382.8573,-1864.536)">
      <stop
         offset="0"
         style="stop-color:#FAAF3E"
         id="stop22509" />
      <stop
         offset="1"
         style="stop-color:#E96712"
         id="stop22511" />
      <a:midPointStop
         offset="0"
         style="stop-color:#FAAF3E" />
      <a:midPointStop
         offset="0.5"
         style="stop-color:#FAAF3E" />
      <a:midPointStop
         offset="1"
         style="stop-color:#E96712" />
    </linearGradient>
    <linearGradient
       inkscape:collect="always"
       xlink:href="#linearGradient2"
       id="linearGradient3"
       x1="1.8198615"
       y1="11.142789"
       x2="23.44282"
       y2="28.571362"
       gradientUnits="userSpaceOnUse"
       gradientTransform="matrix(0.95403859,0,0,0.95398307,5.3978036,5.4497103)" />
    <linearGradient
       y2="481.38889"
       x2="252.5858"
       y1="459.7168"
       x1="222.84911"
       gradientUnits="userSpaceOnUse"
       id="linearGradient22491">
      <stop
         id="stop22493"
         style="stop-color:#FFFFFF"
         offset="0" />
      <stop
         id="stop22495"
         style="stop-color:#FEF2DF"
         offset="0.0741" />
      <stop
         id="stop22497"
         style="stop-color:#FCD18F"
         offset="0.2353" />
      <stop
         id="stop22499"
         style="stop-color:#FAAF3E"
         offset="0.3876" />
      <stop
         id="stop22501"
         style="stop-color:#CE5C0B"
         offset="1" />
      <a:midPointStop
         style="stop-color:#FFFFFF"
         offset="0" />
      <a:midPointStop
         style="stop-color:#FFFFFF"
         offset="0.5294" />
      <a:midPointStop
         style="stop-color:#FAAF3E"
         offset="0.3876" />
      <a:midPointStop
         style="stop-color:#FAAF3E"
         offset="0.5" />
      <a:midPointStop
         style="stop-color:#CE5C0B"
         offset="1" />
    </linearGradient>
    <radialGradient
       inkscape:collect="always"
       xlink:href="#linearGradient5"
       id="radialGradient5"
       cx="32.895123"
       cy="20.716227"
       fx="32.895123"
       fy="20.716227"
       r="10.747733"
       gradientTransform="matrix(0.67121262,-0.74126501,1.6481881,1.492428,-23.328737,14.069167)"
       gradientUnits="userSpaceOnUse" />
    <linearGradient
       inkscape:collect="always"
       xlink:href="#linear-gradient"
       id="linearGradient46726"
       gradientUnits="userSpaceOnUse"
       gradientTransform="matrix(0.96540367,0.0289906,0,0.9663533,24.606312,-10.259929)"
       x1="29.459999"
       y1="47.66"
       x2="25.870001"
       y2="48.029999" />
    <linearGradient
       id="linear-gradient"
       x1="29.459999"
       y1="47.66"
       x2="25.870001"
       y2="48.029999"
       gradientTransform="matrix(1,0.03,0,1,0,-8.11)"
       gradientUnits="userSpaceOnUse">
      <stop
         offset="0"
         stop-color="#00255d"
         stop-opacity="0"
         id="stop45979" />
      <stop
         offset="1"
         stop-color="#00255d"
         id="stop45981" />
    </linearGradient>
    <linearGradient
       id="linear-gradient-2"
       x1="23.23"
       y1="42.880001"
       x2="18.799999"
       y2="42.23"
       xlink:href="#linear-gradient"
       gradientTransform="matrix(0.96540367,0,0,0.9663533,24.606312,-2.4228037)" />
    <linearGradient
       inkscape:collect="always"
       xlink:href="#linear-gradient-3"
       id="linearGradient46728"
       gradientUnits="userSpaceOnUse"
       x1="13.8"
       y1="24.549999"
       x2="12.46"
       y2="27.9"
       gradientTransform="matrix(0.96540367,0,0,0.9663533,24.606312,-2.4228037)" />
    <linearGradient
       id="linear-gradient-3"
       x1="13.8"
       y1="24.549999"
       x2="12.46"
       y2="27.9"
       gradientUnits="userSpaceOnUse">
      <stop
         offset="0"
         stop-color="#b2cbe5"
         id="stop45985" />
      <stop
         offset="1"
         stop-color="#3465a4"
         id="stop45987" />
    </linearGradient>
    <linearGradient
       id="linear-gradient-4"
       x1="39.57"
       y1="38.630001"
       x2="42.779999"
       y2="38.630001"
       gradientTransform="matrix(0.9632363,0.06471715,-0.06465355,0.9641838,20.397152,-21.836842)"
       xlink:href="#linear-gradient-3" />
    <linearGradient
       id="linear-gradient-5"
       x1="42.27"
       y1="36.509998"
       x2="40.970001"
       y2="38.099998"
       gradientTransform="matrix(0.9632363,0.06471715,-0.06465355,0.9641838,20.397152,-21.836842)"
       xlink:href="#linear-gradient-3" />
    <linearGradient
       id="linear-gradient-6"
       x1="22.9"
       y1="17.110001"
       x2="24.08"
       y2="42.490002"
       xlink:href="#linear-gradient"
       gradientTransform="matrix(0.96540367,0,0,0.9663533,24.606312,-2.4228037)" />
    <linearGradient
       id="linear-gradient-7"
       x1="16.34"
       y1="38.900002"
       x2="24.360001"
       y2="33.07"
       xlink:href="#linear-gradient"
       gradientTransform="matrix(0.96540367,0,0,0.9663533,24.606312,-2.4228037)" />
    <linearGradient
       inkscape:collect="always"
       xlink:href="#New_Gradient_Swatch_2"
       id="linearGradient46730"
       gradientUnits="userSpaceOnUse"
       x1="17.98"
       y1="30.01"
       x2="29.98"
       y2="30.01"
       gradientTransform="matrix(0.96540367,0,0,0.9663533,24.606312,-2.4228037)" />
    <linearGradient
       id="New_Gradient_Swatch_2"
       x1="17.98"
       y1="30.01"
       x2="29.98"
       y2="30.01"
       gradientUnits="userSpaceOnUse">
      <stop
         offset="0"
         stop-color="#729fcf"
         id="stop45994" />
      <stop
         offset="1"
         stop-color="#3465a4"
         id="stop45996" />
    </linearGradient>
    <linearGradient
       id="linear-gradient-8"
       x1="23.43"
       y1="13.24"
       x2="24.82"
       y2="22.709999"
       xlink:href="#linear-gradient"
       gradientTransform="matrix(0.96540367,0,0,0.9663533,24.606312,-2.4228037)" />
    <linearGradient
       id="linear-gradient-9"
       x1="21.16"
       y1="20.15"
       x2="20.07"
       y2="14.47"
       xlink:href="#linear-gradient"
       gradientTransform="matrix(0.96540367,0,0,0.9663533,24.606312,-2.4228037)" />
    <linearGradient
       id="New_Gradient_Swatch_2-2"
       x1="13.88"
       y1="7.8000002"
       x2="19.639999"
       y2="14.88"
       xlink:href="#New_Gradient_Swatch_2"
       gradientTransform="matrix(0.96540367,0,0,0.9663533,24.606312,-2.4228037)" />
    <linearGradient
       id="New_Gradient_Swatch_2-3"
       x1="19.370001"
       y1="15.38"
       x2="20.16"
       y2="15.38"
       xlink:href="#New_Gradient_Swatch_2"
       gradientTransform="matrix(0.96540367,0,0,0.9663533,24.606312,-2.4228037)" />
    <linearGradient
       id="New_Gradient_Swatch_2-4"
       x1="12.47"
       y1="16.42"
       x2="34.75"
       y2="16.42"
       xlink:href="#New_Gradient_Swatch_2"
       gradientTransform="matrix(0.96540367,0,0,0.9663533,24.606312,-2.4228037)" />
    <linearGradient
       id="linear-gradient-10"
       x1="22.25"
       y1="8.7600002"
       x2="24"
       y2="9.0299997"
       xlink:href="#linear-gradient-3"
       gradientTransform="matrix(0.96540367,0,0,0.9663533,24.606312,-2.4228037)" />
    <linearGradient
       id="linear-gradient-11"
       x1="26.790001"
       y1="13.32"
       x2="25.120001"
       y2="10.41"
       xlink:href="#linear-gradient-3"
       gradientTransform="matrix(0.96540367,0,0,0.9663533,24.606312,-2.4228037)" />
    <linearGradient
       id="linear-gradient-12"
       x1="20.940001"
       y1="6.0900002"
       x2="26.42"
       y2="6.5799999"
       xlink:href="#linear-gradient-3"
       gradientTransform="matrix(0.96540367,0,0,0.9663533,24.606312,-2.4228037)" />
    <linearGradient
       id="linear-gradient-13"
       x1="21.07"
       y1="6.8299999"
       x2="25.85"
       y2="7.25"
       gradientTransform="matrix(0.95260237,0.15699447,-0.15684834,0.95348991,24.676566,1.6162203)"
       xlink:href="#linear-gradient-3" />
    <radialGradient
       inkscape:collect="always"
       xlink:href="#linearGradient5"
       id="radialGradient6"
       gradientUnits="userSpaceOnUse"
       gradientTransform="matrix(0.67121262,-0.74126501,1.6481881,1.492428,-23.328737,14.069167)"
       cx="32.895123"
       cy="20.716227"
       fx="32.895123"
       fy="20.716227"
       r="10.747733" />
  </defs>
  <sodipodi:namedview
     id="base"
     pagecolor="#ffffff"
     bordercolor="#666666"
     borderopacity="1.0"
     inkscape:pageopacity="0.0"
     inkscape:pageshadow="2"
     inkscape:zoom="7"
     inkscape:cx="21.071429"
     inkscape:cy="22.642857"
     inkscape:current-layer="layer1"
     showgrid="true"
     inkscape:grid-bbox="true"
     inkscape:document-units="px"
     inkscape:window-width="2300"
     inkscape:window-height="1232"
     inkscape:window-x="-6"
     inkscape:window-y="-6"
     inkscape:showpageshadow="2"
     inkscape:pagecheckerboard="0"
     inkscape:deskcolor="#d1d1d1"
     inkscape:window-maximized="1" />
  <g
     id="layer1"
     inkscape:label="Layer 1"
     inkscape:groupmode="layer">
    <path
       style="fill:url(#linearGradient3);fill-opacity:1;stroke:#5c3566;stroke-width:1.5;stroke-linecap:round;stroke-linejoin:round;stroke-miterlimit:4;stroke-dasharray:none"
       id="path20844"
       d="m 22.353168,14.882422 14.619687,-3.057515 c 0.450306,-0.08777 0.84814,0.21083 0.889164,0.668742 l 2.265842,26.215454 c 0.04007,0.457912 -0.29289,0.90056 -0.742242,0.98928 L 9.8724341,47.3188 C 9.4211738,47.406566 9.0252478,47.10797 8.9851782,46.650058 L 6.6258407,18.742237 c -0.00954,-0.115432 0.00477,-0.230864 0.039116,-0.339618 l 1.666705,-4.338714 11.4303373,-2.191299 z"
       i:knockout="Off" />
    <path
       style="fill:#ffe0fc;fill-opacity:1;stroke-width:1"
       id="path20859"
       d="m 36.900349,12.111087 c 0,0 -14.149346,2.958302 -14.599653,3.050838 -0.273809,-0.317676 -2.570179,-2.988829 -2.570179,-2.988829 l -11.1727468,2.141692 -1.6438085,4.27766 -0.00191,0.08872 -0.00572,0.05438 2.3412107,27.776171 c -9.54e-4,-9.54e-4 0.222291,0.42166 0.222291,0.42166 0.00382,0.0038 0.4712951,0.100169 0.4712951,0.100169 l 29.2870765,-7.56127 c 0.371121,-0.07441 0.652563,-0.43597 0.618217,-0.81661 l -2.248669,-26.02275 c 0,-0.0019 -0.223245,-0.422614 -0.223245,-0.422614 -0.0057,-0.0038 -0.473203,-0.100169 -0.473203,-0.100169 l -0.08205,-0.01622 z M 22.23296,15.997614 c 0,0 14.115955,-2.950669 14.58725,-3.048929 0.04102,0.479853 2.22768,25.777576 2.22768,25.777576 0,0 -28.503811,7.325636 -29.0209,7.457286 C 9.983104,45.668396 7.712492,18.806141 7.7086759,18.765119 c 0.043886,-0.115432 1.2974925,-3.376146 1.4396442,-3.745337 0.345362,-0.06582 9.8409089,-1.886979 10.2759499,-1.969021 0.268085,0.312906 2.575904,2.995507 2.575904,2.995507 z"
       i:knockout="Off" />
    <line
       style="fill:url(#XMLID_289_);stroke:#75507b;stroke-width:2"
       id="line20912"
       y2="14.614344"
       x2="19.516811"
       y1="16.482248"
       x1="9.787528"
       i:knockout="Off" />
    <g
       id="g5"
       transform="matrix(-0.96018776,0.15723961,-0.15740252,-0.95922514,36.503279,25.329848)"
       style="stroke-width:1.02826">
      <path
         style="fill:url(#radialGradient5);fill-opacity:1;fill-rule:evenodd;stroke:#a40000;stroke-width:1.02826px;stroke-linecap:butt;stroke-linejoin:miter;stroke-opacity:1"
         d="M 13.428571,6.8571429 18,1.8571429 27.142857,11 33.714285,4.8571429 V 21.857143 H 16.714286 L 23.071428,15.5 Z"
         id="path3"
         sodipodi:nodetypes="cccccccc" />
      <path
         id="path4"
         style="fill:none;fill-rule:evenodd;stroke:#fce94f;stroke-width:1.02826px;stroke-linecap:butt;stroke-linejoin:miter;stroke-opacity:1"
         sodipodi:type="inkscape:offset"
         inkscape:radius="-0.80812204"
         inkscape:original="M 18 1.8574219 L 13.427734 6.8574219 L 23.072266 15.5 L 16.714844 21.857422 L 33.714844 21.857422 L 33.714844 4.8574219 L 27.142578 11 L 18 1.8574219 z "
         d="m 18.025391,3.0273438 -3.451172,3.7734374 9.037109,8.0976568 a 0.80820285,0.80820285 0 0 1 0.0332,1.173828 l -4.976562,4.976562 H 32.90625 V 6.71875 l -5.210938,4.871094 a 0.80820285,0.80820285 0 0 1 -1.125,-0.01758 z" />
    </g>
    <g
       id="g6"
       transform="matrix(0.90230861,-0.3637368,-0.36411361,-0.90140403,14.681022,32.775893)"
       style="stroke-width:1.02826"
       inkscape:transform-center-x="4.275303"
       inkscape:transform-center-y="2.55901">
      <path
         style="fill:url(#radialGradient6);fill-opacity:1;fill-rule:evenodd;stroke:#a40000;stroke-width:1.02826px;stroke-linecap:butt;stroke-linejoin:miter;stroke-opacity:1"
         d="M 13.428571,6.8571429 18,1.8571429 27.142857,11 33.714285,4.8571429 V 21.857143 H 16.714286 L 23.071428,15.5 Z"
         id="path5"
         sodipodi:nodetypes="cccccccc" />
      <path
         id="path6"
         style="fill:none;fill-rule:evenodd;stroke:#fce94f;stroke-width:1.02826px;stroke-linecap:butt;stroke-linejoin:miter;stroke-opacity:1"
         sodipodi:type="inkscape:offset"
         inkscape:radius="-0.80812204"
         inkscape:original="M 18 1.8574219 L 13.427734 6.8574219 L 23.072266 15.5 L 16.714844 21.857422 L 33.714844 21.857422 L 33.714844 4.8574219 L 27.142578 11 L 18 1.8574219 z "
         d="m 18.025391,3.0273438 -3.451172,3.7734374 9.037109,8.0976568 a 0.80820285,0.80820285 0 0 1 0.0332,1.173828 l -4.976562,4.976562 H 32.90625 V 6.71875 l -5.210938,4.871094 a 0.80820285,0.80820285 0 0 1 -1.125,-0.01758 z" />
    </g>
    <path
       style="fill:url(#XMLID_287_);stroke:#525b66;stroke-width:1.5;stroke-miterlimit:4;stroke-dasharray:none"
       id="path20876"
       d="m 40.3616,38.649002 c -0.06392,0.457912 -0.501824,0.929179 -0.975981,1.051289 L 9.8724341,47.320708 C 9.3982769,47.442818 9.0653174,47.173795 9.129238,46.713975 l 2.940347,-20.912263 c 0.06297,-0.456958 0.50087,-0.928226 0.975981,-1.051289 l 29.512231,-7.620417 c 0.473203,-0.121156 0.807117,0.150729 0.743196,0.607687 z"
       i:knockout="Off" />
    <g
       id="g1"
       transform="matrix(0.9311909,0,0,0.9316212,-7.4511018,10.024404)"
       style="stroke-width:1.07365">
      <path
         class="cls-2"
         d="m 50.015737,35.815796 a 2.2107744,2.2129491 0 0 0 -0.04827,0.512168 3.5237234,3.5271895 0 0 0 0,0.570148 c 0,0.173944 0.08689,0.338224 0.260659,0.357551 a 20.147975,20.167793 0 0 1 2.828633,0.579812 3.5140694,3.517526 0 0 0 1.641186,0.08697 c 0.260659,-0.07731 0.473048,-0.135289 0.579243,-0.32856 a 0.79163101,0.79240971 0 0 0 0,-0.318896 c 0,-0.454186 -0.868864,-0.666784 -1.293641,-0.840728 a 2.7031303,2.7057892 0 0 1 -1.100561,-0.782746 1.6218782,1.6234735 0 0 0 -1.467413,-0.521831 1.8728831,1.8747254 0 0 0 -1.399835,0.686111 z"
         id="path46036"
         style="fill:#204a87;stroke-width:1.07365" />
      <path
         class="cls-3"
         d="m 50.015737,35.815796 a 2.2107744,2.2129491 0 0 0 -0.04827,0.512168 3.5237234,3.5271895 0 0 0 0,0.570148 c 0,0.173944 0.08689,0.338224 0.260659,0.357551 a 20.147975,20.167793 0 0 1 2.828633,0.579812 3.5140694,3.517526 0 0 0 1.641186,0.08697 c 0.260659,-0.07731 0.473048,-0.135289 0.579243,-0.32856 a 0.79163101,0.79240971 0 0 0 0,-0.318896 c 0,-0.454186 -0.868864,-0.666784 -1.293641,-0.840728 a 2.7031303,2.7057892 0 0 1 -1.100561,-0.782746 1.6218782,1.6234735 0 0 0 -1.467413,-0.521831 1.8728831,1.8747254 0 0 0 -1.399835,0.686111 z"
         id="path46038"
         style="fill:url(#linearGradient46726);stroke-width:1.07365" />
      <path
         class="cls-2"
         d="m 42.553166,37.535905 a 2.2300825,2.2322761 0 0 0 -0.09654,0.686111 3.0603296,3.06334 0 0 0 0.04827,0.62813 0.3958155,0.39620485 0 0 0 0.241351,0.299569 c 0.202735,0.106299 0.733707,0.231925 1.139176,0.415532 a 6.7578257,6.7644731 0 0 1 0.90748,0.560485 4.8270184,4.8317665 0 0 0 1.930807,0.599139 c 0.50201,0.06764 1.14883,0.07731 1.428798,-0.396205 v -0.405868 c 0,-0.560485 -0.666129,-0.811737 -1.129523,-1.072652 a 3.958155,3.9620485 0 0 1 -1.255025,-1.169288 1.8632291,1.8650619 0 0 0 -1.60257,-0.811737 1.7859968,1.7877536 0 0 0 -1.612224,0.666784 z"
         id="path46040"
         style="fill:#204a87;stroke-width:1.07365" />
      <path
         class="cls-4"
         d="m 42.553166,37.535905 a 2.2300825,2.2322761 0 0 0 -0.09654,0.686111 3.0603296,3.06334 0 0 0 0.04827,0.62813 0.3958155,0.39620485 0 0 0 0.241351,0.299569 c 0.202735,0.106299 0.733707,0.231925 1.139176,0.415532 a 6.7578257,6.7644731 0 0 1 0.90748,0.560485 4.8270184,4.8317665 0 0 0 1.930807,0.599139 c 0.50201,0.06764 1.14883,0.07731 1.428798,-0.396205 v -0.405868 c 0,-0.560485 -0.666129,-0.811737 -1.129523,-1.072652 a 3.958155,3.9620485 0 0 1 -1.255025,-1.169288 1.8632291,1.8650619 0 0 0 -1.60257,-0.811737 1.7859968,1.7877536 0 0 0 -1.612224,0.666784 z"
         id="path46042"
         style="fill:url(#linear-gradient-2);stroke-width:1.07365" />
      <path
         class="cls-5"
         d="m 38.35366,19.803322 a 1.303295,1.304577 0 0 1 0.965404,1.314241 3.5719936,3.5755072 0 0 1 -0.337891,1.633137 0.29927514,0.29956952 0 0 1 -0.337892,0.125626 c -0.106194,0 -0.125502,-0.173944 -0.106194,-0.396205 0.01931,-0.222262 0,-0.647457 -0.154465,-0.715102 -0.154464,-0.06764 -0.231697,0.202934 -0.299275,0.444523 a 5.2421419,5.2472984 0 0 0 -0.06758,0.966353 0.89782541,0.89870857 0 0 0 0.154465,0.541158 0.34754532,0.34788719 0 0 1 0,0.415532 0.44408569,0.44452252 0 0 1 -0.530972,0 1.6218782,1.6234735 0 0 1 -0.588897,0 0.83990119,0.84072737 0 0 1 -0.521318,-0.531494 0.96540367,0.9663533 0 0 1 -0.463393,-0.405869 2.5486657,2.5511727 0 0 1 0,-1.662127 2.625898,2.628481 0 0 1 1.206754,-1.604147 1.5349918,1.5365017 0 0 1 1.081252,-0.125626 z"
         id="path46044"
         style="fill:#babdb6;stroke-width:1.07365" />
      <path
         class="cls-6"
         d="m 38.35366,19.803322 a 1.303295,1.304577 0 0 1 0.965404,1.314241 3.5719936,3.5755072 0 0 1 -0.337891,1.633137 0.29927514,0.29956952 0 0 1 -0.337892,0.125626 c -0.106194,0 -0.125502,-0.173944 -0.106194,-0.396205 0.01931,-0.222262 0,-0.647457 -0.154465,-0.715102 -0.154464,-0.06764 -0.231697,0.202934 -0.299275,0.444523 a 5.2421419,5.2472984 0 0 0 -0.06758,0.966353 0.89782541,0.89870857 0 0 0 0.154465,0.541158 0.34754532,0.34788719 0 0 1 0,0.415532 0.44408569,0.44452252 0 0 1 -0.530972,0 1.6218782,1.6234735 0 0 1 -0.588897,0 0.83990119,0.84072737 0 0 1 -0.521318,-0.531494 0.96540367,0.9663533 0 0 1 -0.463393,-0.405869 2.5486657,2.5511727 0 0 1 0,-1.662127 2.625898,2.628481 0 0 1 1.206754,-1.604147 1.5349918,1.5365017 0 0 1 1.081252,-0.125626 z"
         id="path46046"
         style="fill:url(#linearGradient46728);stroke-width:1.07365" />
      <path
         class="cls-7"
         d="m 38.35366,19.803322 a 1.303295,1.304577 0 0 1 0.965404,1.314241 3.5719936,3.5755072 0 0 1 -0.337891,1.633137 0.29927514,0.29956952 0 0 1 -0.337892,0.125626 c -0.106194,0 -0.125502,-0.173944 -0.106194,-0.396205 0.01931,-0.222262 0,-0.647457 -0.154465,-0.715102 -0.154464,-0.06764 -0.231697,0.202934 -0.299275,0.444523 a 5.2421419,5.2472984 0 0 0 -0.06758,0.966353 0.89782541,0.89870857 0 0 0 0.154465,0.541158 0.34754532,0.34788719 0 0 1 0,0.415532 0.44408569,0.44452252 0 0 1 -0.530972,0 1.6218782,1.6234735 0 0 1 -0.588897,0 0.83990119,0.84072737 0 0 1 -0.521318,-0.531494 0.96540367,0.9663533 0 0 1 -0.463393,-0.405869 2.5486657,2.5511727 0 0 1 0,-1.662127 2.625898,2.628481 0 0 1 1.206754,-1.604147 1.5349918,1.5365017 0 0 1 1.081252,-0.125626 z"
         id="path46048"
         style="fill:none;stroke:#d0dfef;stroke-width:0.375776px;stroke-miterlimit:10" />
      <path
         class="cls-8"
         d="m 56.09778,16.904262 a 1.303295,1.304577 0 0 0 0.569588,0.966353 1.0715981,1.0726522 0 0 1 0.395815,0.676448 c 0,0.222261 0.06758,0.454186 -0.106194,0.570148 -0.173773,0.115963 -0.173773,0.376878 0,0.405869 a 0.63716642,0.63779318 0 0 0 0.260659,0 c -0.279967,0.318896 -0.06758,0.483176 0.08689,0.483176 a 0.96540367,0.9663533 0 0 0 0.376508,-0.144953 0.32823725,0.32856012 0 0 0 0.424777,0 c 0.231697,-0.16428 0.202735,-0.241588 0.202735,-0.241588 a 0.37650743,0.37687779 0 0 0 0.366854,0 1.6218782,1.6234735 0 0 0 0.434431,-1.140297 1.9983856,2.0003513 0 0 0 -0.289621,-0.908372 c -0.212393,-0.202934 -0.511668,-1.101643 -1.110218,-1.362558 a 1.3322571,1.3335676 0 0 0 -1.187447,0 0.80128505,0.80207324 0 0 0 -0.424777,0.695774 z"
         id="path46050"
         style="fill:url(#linear-gradient-4);stroke-width:1.07365" />
      <path
         class="cls-9"
         d="m 56.09778,16.904262 a 1.303295,1.304577 0 0 0 0.569588,0.966353 1.0715981,1.0726522 0 0 1 0.395815,0.676448 c 0,0.222261 0.06758,0.454186 -0.106194,0.570148 -0.173773,0.115963 -0.173773,0.376878 0,0.405869 a 0.63716642,0.63779318 0 0 0 0.260659,0 c -0.279967,0.318896 -0.06758,0.483176 0.08689,0.483176 a 0.96540367,0.9663533 0 0 0 0.376508,-0.144953 0.32823725,0.32856012 0 0 0 0.424777,0 c 0.231697,-0.16428 0.202735,-0.241588 0.202735,-0.241588 a 0.37650743,0.37687779 0 0 0 0.366854,0 1.6218782,1.6234735 0 0 0 0.434431,-1.140297 1.9983856,2.0003513 0 0 0 -0.289621,-0.908372 c -0.212393,-0.202934 -0.511668,-1.101643 -1.110218,-1.362558 a 1.3322571,1.3335676 0 0 0 -1.187447,0 0.80128505,0.80207324 0 0 0 -0.424777,0.695774 z"
         id="path46052"
         style="fill:none;stroke:#d0dfef;stroke-width:0.375776px;stroke-linecap:round;stroke-linejoin:round" />
      <path
         class="cls-10"
         d="m 56.464633,16.218151 a 1.7087645,1.7104453 0 0 1 1.641186,0.222262 1.6991105,1.7007818 0 0 1 0.791631,1.275586 c 0,0.347887 0,0.599139 -0.212388,0.724765 a 0.32823725,0.32856012 0 0 1 -0.50201,-0.183607 2.5872818,2.5898268 0 0 0 -0.144811,-0.531494 0.34754532,0.34788719 0 0 0 -0.395815,-0.212598 1.6218782,1.6234735 0 0 1 -0.550281,0 c -0.164118,0 -0.675782,0 -0.839901,-0.46385 a 0.64682046,0.64745671 0 0 1 0.212389,-0.831064 z"
         id="path46054"
         style="fill:url(#linear-gradient-5);stroke-width:1.07365" />
      <path
         class="cls-9"
         d="m 56.29086,17.068542 a 0.64682046,0.64745671 0 0 1 0.212389,-0.850391 1.7087645,1.7104453 0 0 1 1.641186,0.222262 1.6991105,1.7007818 0 0 1 0.791632,1.275586 c 0,0.347887 0,0.599139 -0.212389,0.724765 a 0.32823725,0.32856012 0 0 1 -0.50201,-0.183607 2.7707085,2.773434 0 0 0 -0.144811,-0.531494 0.34754532,0.34788719 0 0 0 -0.395815,-0.212598 1.6315322,1.6331371 0 0 1 -0.55028,0"
         id="path46056"
         style="fill:none;stroke:#d0dfef;stroke-width:0.375776px;stroke-linecap:round;stroke-linejoin:round" />
      <path
         class="cls-11"
         d="m 42.553166,37.535905 a 2.2300825,2.2322761 0 0 0 -0.09654,0.686111 3.0603296,3.06334 0 0 0 0.04827,0.62813 0.3958155,0.39620485 0 0 0 0.241351,0.299569 c 0.202735,0.106299 0.733707,0.231925 1.139176,0.415532 a 6.7578257,6.7644731 0 0 1 0.90748,0.560485 4.8270184,4.8317665 0 0 0 1.930807,0.599139 c 0.50201,0.06764 1.14883,0.07731 1.428798,-0.396205 v -0.405868 c 0,-0.560485 -0.666129,-0.811737 -1.129523,-1.072652 a 3.958155,3.9620485 0 0 1 -1.255025,-1.169288 1.8632291,1.8650619 0 0 0 -1.60257,-0.811737 1.7859968,1.7877536 0 0 0 -1.612224,0.666784 z"
         id="path46058"
         style="fill:none;stroke:#729fcf;stroke-width:0.375776px;stroke-miterlimit:10" />
      <path
         class="cls-11"
         d="m 50.015737,35.815796 a 2.2107744,2.2129491 0 0 0 -0.04827,0.512168 3.5237234,3.5271895 0 0 0 0,0.570148 c 0,0.173944 0.08689,0.338224 0.260659,0.357551 a 20.147975,20.167793 0 0 1 2.828633,0.579812 3.5140694,3.517526 0 0 0 1.641186,0.08697 c 0.260659,-0.07731 0.473048,-0.135289 0.579243,-0.32856 a 0.79163101,0.79240971 0 0 0 0,-0.318896 c 0,-0.454186 -0.868864,-0.666784 -1.293641,-0.840728 a 2.7031303,2.7057892 0 0 1 -1.100561,-0.782746 1.6218782,1.6234735 0 0 0 -1.467413,-0.521831 1.8728831,1.8747254 0 0 0 -1.399835,0.686111 z"
         id="path46060"
         style="fill:none;stroke:#729fcf;stroke-width:0.375776px;stroke-miterlimit:10" />
      <path
         class="cls-2"
         d="m 53.076066,34.086024 c -0.193081,-1.140297 -0.405469,-5.79812 -0.579242,-7.57621 -0.173773,-1.77809 -0.820593,-6.184661 -1.10056,-7.41193 a 18.960528,18.979179 0 0 1 -0.521318,-3.633488 h -0.07723 v 0 c -0.144811,-0.676448 -1.621879,-0.831064 -3.446492,-0.49284 -1.641186,0.318896 -2.896211,1.014671 -3.031367,1.652464 a 0.77232294,0.77308264 0 0 0 -0.09654,0.367214 c 0,1.043662 -0.260659,1.352895 -0.395816,3.169639 -0.135156,1.816744 -0.289621,4.986383 -0.579242,7.006061 -0.289621,2.019679 -1.023328,9.663533 -1.10056,10.195028 -0.07723,0.531494 0.55028,0.966353 1.805305,1.043661 1.255024,0.07731 2.336276,-0.376878 2.423163,-0.840727 0.08689,-0.46385 0.299275,-5.63384 0.569588,-8.977422 a 68.427812,68.495122 0 0 1 0.965404,-7.122024 33.499507,33.53246 0 0 1 1.226062,6.213651 c 0.164119,2.657472 0.347546,7.585874 0.376508,8.127032 0.02896,0.541158 0.965403,0.734428 2.20112,0.715101 1.235717,-0.01933 1.660494,-0.376878 1.621878,-0.782746 -0.03862,-0.405868 -0.06758,-0.473513 -0.260659,-1.652464 z"
         id="path46062"
         style="fill:#204a87;stroke-width:1.07365" />
      <path
         class="cls-12"
         d="m 53.076066,34.086024 c -0.193081,-1.140297 -0.405469,-5.79812 -0.579242,-7.57621 -0.173773,-1.77809 -0.820593,-6.184661 -1.10056,-7.41193 a 18.960528,18.979179 0 0 1 -0.521318,-3.633488 h -0.07723 v 0 c -0.144811,-0.676448 -1.621879,-0.831064 -3.446492,-0.49284 -1.641186,0.318896 -2.896211,1.014671 -3.031367,1.652464 a 0.77232294,0.77308264 0 0 0 -0.09654,0.367214 c 0,1.043662 -0.260659,1.352895 -0.395816,3.169639 -0.135156,1.816744 -0.289621,4.986383 -0.579242,7.006061 -0.289621,2.019679 -1.023328,9.663533 -1.10056,10.195028 -0.07723,0.531494 0.55028,0.966353 1.805305,1.043661 1.255024,0.07731 2.336276,-0.376878 2.423163,-0.840727 0.08689,-0.46385 0.299275,-5.63384 0.569588,-8.977422 a 68.427812,68.495122 0 0 1 0.965404,-7.122024 33.499507,33.53246 0 0 1 1.226062,6.213651 c 0.164119,2.657472 0.347546,7.585874 0.376508,8.127032 0.02896,0.541158 0.965403,0.734428 2.20112,0.715101 1.235717,-0.01933 1.660494,-0.376878 1.621878,-0.782746 -0.03862,-0.405868 -0.06758,-0.473513 -0.260659,-1.652464 z"
         id="path46064"
         style="fill:url(#linear-gradient-6);stroke-width:1.07365" />
      <path
         class="cls-13"
         d="m 50.903908,36.463253 c -0.830247,-0.154617 -1.322603,-0.289906 -1.351565,-0.686111 0,-0.541158 -0.212389,-5.459896 -0.376508,-8.127031 a 37.187349,37.223929 0 0 0 -1.264678,-6.513221 0.82059312,0.8214003 0 0 1 0.492355,-0.734429 c 0.337892,-0.193271 1.042636,-0.463849 0.868864,0 a 3.0989458,3.1019941 0 0 0 -0.154465,1.459194 c 0.05792,0.589475 0.608204,3.710796 0.753015,4.880084 0.144811,1.169287 0.762669,8.455591 0.791631,8.938768 a 1.853575,1.8553983 0 0 0 0.241351,0.782746 z"
         id="path46066"
         style="fill:url(#linear-gradient-7);stroke-width:1.07365" />
      <path
         class="cls-14"
         d="m 47.949773,21.436459 a 1.7473806,1.7490995 0 0 1 0.318583,-0.79241"
         id="path46068"
         style="fill:none;stroke:#3465a4;stroke-width:0.375776px;stroke-linecap:round;stroke-linejoin:round" />
      <path
         class="cls-15"
         d="m 53.076066,34.086024 c -0.193081,-1.140297 -0.405469,-5.79812 -0.579242,-7.57621 -0.173773,-1.77809 -0.820593,-6.184661 -1.10056,-7.41193 a 18.960528,18.979179 0 0 1 -0.521318,-3.633488 h -0.07723 v 0 c -0.144811,-0.676448 -1.621879,-0.831064 -3.446492,-0.49284 -1.641186,0.318896 -2.896211,1.014671 -3.031367,1.652464 a 0.77232294,0.77308264 0 0 0 -0.09654,0.367214 c 0,1.043662 -0.260659,1.352895 -0.395816,3.169639 -0.135156,1.816744 -0.289621,4.986383 -0.579242,7.006061 -0.289621,2.019679 -1.023328,9.663533 -1.10056,10.195028 -0.07723,0.531494 0.55028,0.966353 1.805305,1.043661 1.255024,0.07731 2.336276,-0.376878 2.423163,-0.840727 0.08689,-0.46385 0.299275,-5.63384 0.569588,-8.977422 a 68.427812,68.495122 0 0 1 0.965404,-7.122024 33.499507,33.53246 0 0 1 1.226062,6.213651 c 0.164119,2.657472 0.347546,7.585874 0.376508,8.127032 0.02896,0.541158 0.965403,0.734428 2.20112,0.715101 1.235717,-0.01933 1.660494,-0.376878 1.621878,-0.782746 -0.03862,-0.405868 -0.06758,-0.473513 -0.260659,-1.652464 z"
         id="path46070"
         style="fill:none;stroke:url(#linearGradient46730);stroke-width:0.375776px;stroke-linecap:round;stroke-linejoin:round" />
      <path
         class="cls-2"
         d="m 51.444534,6.274376 c 0.810939,0.3188966 1.930807,1.7104453 3.446491,3.7107967 a 34.648338,34.68242 0 0 1 3.021714,5.5565313 c 0.222042,0.502504 -0.125503,0.966353 -0.791631,1.391549 a 1.5349918,1.5365017 0 0 1 -1.757035,0.115962 C 55.084106,16.720655 54.717252,15.116509 53.433266,12.951877 52.149279,10.787246 51.502458,10.159116 50.778405,9.7629114 50.054353,9.3667066 50.102623,8.0911202 50.189509,7.6079436 50.276396,7.1247669 50.93287,6.1100959 51.444534,6.274376 Z"
         id="path46072"
         style="fill:#204a87;stroke-width:1.07365" />
      <ellipse
         class="cls-16"
         cx="49.66819"
         cy="3.9164739"
         rx="0.46339375"
         ry="0.58947551"
         id="ellipse46074"
         style="fill:#729fcf;stroke:#d0dfef;stroke-width:0.375776px;stroke-miterlimit:10" />
      <ellipse
         class="cls-7"
         cx="49.66819"
         cy="3.9164739"
         rx="0.46339375"
         ry="0.58947551"
         id="ellipse46076"
         style="fill:none;stroke:#d0dfef;stroke-width:0.375776px;stroke-miterlimit:10" />
      <path
         class="cls-2"
         d="m 52.216857,7.7045789 a 3.4851072,3.4885354 0 0 1 -0.40547,2.0776596 9.5285342,9.5379071 0 0 0 -0.820593,3.3435825 c 0,0.840727 -0.115848,1.720109 -0.115848,2.039005 0,0.318897 0.270313,1.604147 -2.983097,2.299921 -2.973444,0.637793 -3.668534,-0.502504 -3.668534,-0.502504 A 10.098122,10.108056 0 0 0 44.088158,14.111501 C 43.750267,12.546009 42.61109,11.763263 42.157351,10.845227 A 2.374893,2.3772291 0 0 1 41.906346,8.6612687 5.792422,5.7981198 0 0 1 44.242623,7.2987105 23.546196,23.569357 0 0 1 47.776,6.3710113 c 1.10056,-0.096635 2.896211,-0.4058684 3.639572,-0.096635 a 1.853575,1.8553983 0 0 1 0.801285,1.4302026 z"
         id="path46078"
         style="fill:#204a87;stroke-width:1.07365" />
      <path
         class="cls-17"
         d="m 52.216857,7.7045789 a 3.4851072,3.4885354 0 0 1 -0.40547,2.0776596 9.5285342,9.5379071 0 0 0 -0.820593,3.3435825 c 0,0.840727 -0.115848,1.720109 -0.115848,2.039005 0,0.318897 0.270313,1.604147 -2.983097,2.299921 -2.973444,0.637793 -3.668534,-0.502504 -3.668534,-0.502504 A 10.098122,10.108056 0 0 0 44.088158,14.111501 C 43.750267,12.546009 42.61109,11.763263 42.157351,10.845227 A 2.374893,2.3772291 0 0 1 41.906346,8.6612687 5.792422,5.7981198 0 0 1 44.242623,7.2987105 23.546196,23.569357 0 0 1 47.776,6.3710113 c 1.10056,-0.096635 2.896211,-0.4058684 3.639572,-0.096635 a 1.853575,1.8553983 0 0 1 0.801285,1.4302026 z"
         id="path46080"
         style="fill:url(#linear-gradient-8);stroke-width:1.07365" />
      <path
         class="cls-18"
         d="m 43.248257,12.352738 0.888171,-0.966353 a 7.0184847,7.0253885 0 0 1 1.05229,2.096987 15.050643,15.065448 0 0 1 0.251005,4.04902 c 0,0 -0.907479,-0.07731 -1.206754,-0.676447 a 10.156047,10.166037 0 0 0 -0.07723,-2.328912 C 43.97231,13.686306 43.682689,12.60399 43.248257,12.352738 Z"
         id="path46082"
         style="fill:url(#linear-gradient-9);stroke-width:1.07365" />
      <path
         class="cls-2"
         d="M 44.184698,9.2314171 C 43.61511,8.2650638 42.591782,7.8108777 41.780843,8.7675675 a 30.390908,30.420802 0 0 0 -2.79967,4.8994115 42.786691,42.828778 0 0 0 -2.152851,5.798119 c -0.08689,0.241589 0.347546,0.705438 1.293641,1.053326 0.946096,0.347887 1.583262,0.280242 1.679803,0 0,0 1.390181,-3.701134 2.094926,-5.150664 a 25.728008,25.753315 0 0 1 2.10458,-3.478871 2.5872818,2.5898268 0 0 0 0.183426,-2.6574719 z"
         id="path46084"
         style="fill:#204a87;stroke-width:1.07365" />
      <path
         class="cls-19"
         d="m 57.903085,15.570695 c 0.19308,0.396204 0,0.753755 -0.395816,1.101642 -0.135156,-0.52183 -2.162504,-4.551524 -2.510049,-5.083018 A 39.958058,39.997363 0 0 0 51.261107,7.4243364 10.61944,10.629886 0 0 0 47.022985,7.9558307 17.29038,17.307388 0 0 0 43.006906,9.501996 44.19618,44.239654 0 0 0 40.110695,14.333762 c -0.289621,0.589476 -2.403855,6.001054 -2.403855,6.001054 -0.646821,-0.318896 -0.965404,-0.666783 -0.859209,-0.869718 a 42.303989,42.345602 0 0 1 2.15285,-5.798119 30.535718,30.565755 0 0 1 2.79967,-4.909075 l 0.09654,-0.096635 A 5.7055357,5.711148 0 0 1 44.232969,7.289047 23.546196,23.569357 0 0 1 47.776,6.3710113 c 1.10056,-0.096635 2.896211,-0.3962048 3.639572,-0.096635 v 0 c 0.801285,0.3092328 1.930807,1.7007815 3.436837,3.7011328 a 33.190578,33.223226 0 0 1 3.050676,5.5951859 z"
         id="path46086"
         style="fill:url(#New_Gradient_Swatch_2-2);stroke-width:1.07365" />
      <path
         class="cls-20"
         d="m 43.479954,12.719952 c 0,0 0.357199,-0.512167 0.415123,-0.570148"
         id="path46088"
         style="fill:none;stroke:url(#New_Gradient_Swatch_2-3);stroke-width:0.375776px;stroke-linecap:round;stroke-linejoin:round" />
      <path
         class="cls-21"
         d="M 57.912739,15.570695 A 34.648338,34.68242 0 0 0 54.891025,10.014163 C 53.413958,8.0138119 52.255473,6.6222632 51.444534,6.274376 v 0 c -0.772323,-0.3092331 -2.577628,0 -3.668534,0.096635 A 23.546196,23.569357 0 0 0 44.175044,7.3373643 5.7055357,5.711148 0 0 0 41.838768,8.709586 l -0.09654,0.096635 a 30.390908,30.420802 0 0 0 -2.799671,4.899411 42.786691,42.828778 0 0 0 -2.15285,5.79812 c -0.08689,0.241588 0.347546,0.705437 1.293641,1.053325 0.946096,0.347887 1.583262,0.280242 1.679803,0 0,0 1.390181,-3.701133 2.094926,-5.150663 0.463393,-0.966354 1.216408,-2.048669 1.583262,-2.667136 v 0 a 4.8945966,4.8994112 0 0 1 0.608204,1.391549 8.688633,8.6971797 0 0 1 0.154465,2.435211 0.5792422,0.57981198 0 0 0 0.183426,0.483176 c 0.337891,0.318897 1.226063,0.763419 3.465799,0.434859 2.239737,-0.32856 2.983098,-1.47852 2.983098,-1.990688 l 0.115847,-2.348237 a 8.939638,8.9484316 0 0 1 0.588896,-2.763771 10.049852,10.059738 0 0 1 1.930808,2.618818 c 1.24537,2.203285 1.612224,3.778441 1.930807,4.097338 a 1.5349918,1.5365017 0 0 0 1.757035,-0.115963 c 0.637166,-0.444522 0.984711,-0.908372 0.753015,-1.410875 z"
         id="path46090"
         style="fill:none;stroke:url(#New_Gradient_Swatch_2-4);stroke-width:0.375776px;stroke-linecap:round;stroke-linejoin:round" />
      <path
         class="cls-22"
         d="M 46.231354,4.2643611 A 9.3644156,9.373627 0 0 1 46.12516,6.6995715 c -0.173773,0.599139 0.521318,1.1016427 0.888171,1.2465957 a 2.896211,2.8990599 0 0 0 1.766689,0 A 0.88817138,0.88904504 0 0 0 49.339954,6.854188 3.0506756,3.0536764 0 0 1 49.204798,5.6559099 V 5.3080227"
         id="path46092"
         style="fill:url(#linear-gradient-10);stroke-width:1.07365" />
      <path
         class="cls-23"
         d="m 46.26997,4.9408084 v 0.3672143 l 1.641187,2.7830975 A 2.2783527,2.2805938 0 0 0 48.78002,7.9558307 1.061944,1.0629886 0 0 0 49.388224,7.1247669 1.834267,1.8360713 0 0 1 49.253068,6.1584136"
         id="path46094"
         style="fill:url(#linear-gradient-11);stroke-width:1.07365" />
      <path
         class="cls-24"
         d="M 46.231354,4.2643611 A 9.3644156,9.373627 0 0 1 46.12516,6.6995715 c -0.173773,0.599139 0.521318,1.1016427 0.888171,1.2465957 a 2.896211,2.8990599 0 0 0 1.766689,0 A 0.88817138,0.88904504 0 0 0 49.339954,6.854188 3.0506756,3.0536764 0 0 1 49.204798,5.6559099 V 5.3080227"
         id="path46096"
         style="fill:none;stroke:#729fcf;stroke-width:0.375776px;stroke-linecap:round;stroke-linejoin:round" />
      <path
         class="cls-25"
         d="m 48.133199,1.0657317 c 0.463394,0 1.534992,0 1.534992,0.9663533 v 2.773434 c 0,0.5218308 -0.115848,1.6911183 -1.351565,1.6911183 A 1.6798024,1.6814547 0 0 1 46.530629,5.0181167 V 2.6312241 a 1.5156838,1.5171747 0 0 1 1.60257,-1.5654924 z"
         id="path46098"
         style="fill:url(#linear-gradient-12);stroke-width:1.07365" />
      <path
         class="cls-9"
         d="M 46.530629,3.3076714 V 2.6312241 a 1.5156838,1.5171747 0 0 1 1.60257,-1.5654924 c 0.463394,0 1.534992,0 1.534992,0.9663533 v 2.773434 c 0,0.5218308 -0.115848,1.6911183 -1.351565,1.6911183 A 1.9887316,1.9906878 0 0 1 47.660152,6.3903384"
         id="path46100"
         style="fill:none;stroke:#d0dfef;stroke-width:0.375776px;stroke-linecap:round;stroke-linejoin:round" />
      <path
         class="cls-26"
         d="m 46.704402,3.7135398 a 0.83990119,0.84072737 0 0 0 0.251005,-0.6377932 c 0,-0.3575507 0,-0.7440921 0.231697,-0.9663533 a 0.73370679,0.73442851 0 0 1 0.868863,0 1.6798024,1.6814547 0 0 0 0.878517,0.2995695 0.96540367,0.9663533 0 0 0 0.772323,-0.3962049 V 1.7325155 c 0,-0.2609154 -0.337891,-0.96635331 -1.496375,-0.96635331 -1.158485,0 -2.046656,0.46384961 -2.268699,1.21760511 a 3.3982209,3.4015636 0 0 0 0.328237,2.2709303 5.2904121,5.2956161 0 0 1 0.434432,-0.5411578 z"
         id="path46102"
         style="fill:#204a87;stroke:#3465a4;stroke-width:0.375776px;stroke-miterlimit:10" />
      <path
         class="cls-27"
         d="m 49.552343,1.4426095 v 0 a 0.29927514,0.29956952 0 0 1 -0.231697,0.2995695 1.7763428,1.7780901 0 0 1 -1.081252,-0.144953 1.3419111,1.3432311 0 0 0 -1.747381,0.5218308 3.0796377,3.082667 0 0 0 0,1.7490995 C 46.366511,4.0710905 46.250662,4.3126788 46.250662,4.3126788 A 3.3596048,3.3629095 0 0 1 45.932079,2.0417485 c 0.212389,-0.7537555 1.10056,-1.21760511 2.259045,-1.21760511 a 1.5253378,1.5268382 0 0 1 1.361219,0.61846611 z"
         id="path46104"
         style="fill:#729fcf;stroke-width:1.07365" />
      <path
         class="cls-28"
         d="m 46.704402,3.7135398 a 0.83990119,0.84072737 0 0 0 0.251005,-0.6377932 c 0,-0.3575507 0,-0.7440921 0.231697,-0.9663533 a 0.73370679,0.73442851 0 0 1 0.868863,0 1.6798024,1.6814547 0 0 0 0.878517,0.2995695 0.96540367,0.9663533 0 0 0 0.772323,-0.3962049 V 1.7325155 c 0,-0.2609154 -0.337891,-0.96635331 -1.496375,-0.96635331 -1.158485,0 -2.046656,0.46384961 -2.268699,1.21760511 a 3.3982209,3.4015636 0 0 0 0.328237,2.2709303 5.2904121,5.2956161 0 0 1 0.434432,-0.5411578 z"
         id="path46106"
         style="fill:none;stroke:#3465a4;stroke-width:0.375776px;stroke-miterlimit:10" />
      <ellipse
         class="cls-29"
         cx="44.950569"
         cy="11.762667"
         rx="0.48271438"
         ry="0.64743996"
         transform="matrix(0.98668868,-0.16262054,0.16230951,0.9867399,0,0)"
         id="ellipse46108"
         style="fill:url(#linear-gradient-13);stroke-width:1.07365" />
      <path
         class="cls-9"
         d="M 46.598208,3.8681563 A 0.46339376,0.46384958 0 0 0 46.154122,3.6555586 0.56958817,0.57014845 0 0 0 45.787269,4.37066 c 0.05792,0.3575507 0.318583,0.6088026 0.579242,0.5701484 a 0.35719936,0.35755072 0 0 0 0.173772,-0.077308"
         id="path46110"
         style="fill:none;stroke:#d0dfef;stroke-width:0.375776px;stroke-linecap:round;stroke-linejoin:round" />
    </g>
  </g>
</svg>
