<?xml version="1.0" encoding="UTF-8" standalone="no"?>
<svg
   viewBox="0 0 48 48"
   version="1.1"
   id="svg44"
   sodipodi:docname="pointcloudreduce.svg"
   inkscape:version="1.3 (0e150ed6c4, 2023-07-21)"
   xmlns:inkscape="http://www.inkscape.org/namespaces/inkscape"
   xmlns:sodipodi="http://sodipodi.sourceforge.net/DTD/sodipodi-0.dtd"
   xmlns:xlink="http://www.w3.org/1999/xlink"
   xmlns="http://www.w3.org/2000/svg"
   xmlns:svg="http://www.w3.org/2000/svg">
  <sodipodi:namedview
     id="namedview44"
     pagecolor="#ffffff"
     bordercolor="#666666"
     borderopacity="1.0"
     inkscape:showpageshadow="2"
     inkscape:pageopacity="0.0"
     inkscape:pagecheckerboard="0"
     inkscape:deskcolor="#d1d1d1"
     inkscape:zoom="23.041667"
     inkscape:cx="23.9783"
     inkscape:cy="24"
     inkscape:window-width="2560"
     inkscape:window-height="1378"
     inkscape:window-x="-6"
     inkscape:window-y="-6"
     inkscape:window-maximized="1"
     inkscape:current-layer="svg44" />
  <defs
     id="defs4">
    <radialGradient
       id="radial-gradient"
       cx="-186.75"
       cy="117.36"
       fx="-186.75"
       fy="117.36"
       r="8.76"
       gradientTransform="matrix(2.4788565,0.07530287,-0.15359582,1.0758323,503.68,-75.2)"
       gradientUnits="userSpaceOnUse">
      <stop
         offset=".22"
         stop-color="#1a1718"
         stop-opacity=".5"
         id="stop1" />
      <stop
         offset=".91"
         stop-color="#1a1718"
         stop-opacity="0"
         id="stop2" />
    </radialGradient>
    <linearGradient
       id="linear-gradient"
       x1="33.29"
       y1="10.47"
       x2="40.77"
       y2="10.47"
       gradientTransform="matrix(1, 0, 0, 1, 0, 0)"
       gradientUnits="userSpaceOnUse">
      <stop
         offset="0"
         stop-color="#e70e20"
         id="stop3" />
      <stop
         offset="1"
         stop-color="#900004"
         id="stop4" />
    </linearGradient>
    <linearGradient
       id="linear-gradient-2"
       x1="8.72"
       y1="18.85"
       x2="16.2"
       y2="18.85"
       xlink:href="#linear-gradient" />
    <linearGradient
       id="linear-gradient-3"
       x1="24.02"
       y1="33.99"
       x2="31.5"
       y2="33.99"
       xlink:href="#linear-gradient" />
    <linearGradient
       inkscape:collect="always"
       xlink:href="#linear-gradient"
       id="linearGradient44"
       gradientUnits="userSpaceOnUse"
       x1="33.29"
       y1="10.47"
       x2="40.77"
       y2="10.47" />
  </defs>
  <g
     id="shadow"
     style="opacity:0.45;isolation:isolate;mix-blend-mode:multiply"
     transform="translate(0.04339964,1.2151899)">
    <ellipse
       cx="23.280001"
       cy="36.93"
       rx="20.9"
       ry="9.6599998"
       transform="rotate(-8.11,23.324095,36.954097)"
       style="opacity:0.9;fill:url(#radial-gradient)"
       id="ellipse4" />
  </g>
  <g
     id="ART"
     style="isolation:isolate;stroke-width:0.860582"
     transform="matrix(1.1620038,0,0,1.1620038,-3.8665924,-6.3218169)">
    <g
       id="g35"
       style="stroke-width:0.860582">
      <path
         d="m 23.1,12.37 c -0.36,0 -0.65,-0.29 -0.65,-0.65 v 0 c 0,-0.36 0.3,-0.65 0.65,-0.65 h 0.01 c 0.35,0 0.64,0.29 0.64,0.65 v 0 c 0,0.36 -0.29,0.65 -0.64,0.65 z m 2.39,-0.67 c -0.01,-0.36 0.27,-0.66 0.63,-0.67 v 0 c 0.36,-0.01 0.66,0.27 0.67,0.63 v 0 c 0.01,0.36 -0.28,0.66 -0.63,0.67 h -0.02 c -0.35,0 -0.64,-0.28 -0.65,-0.63 z m -5.44,0.61 c -0.36,0 -0.64,-0.32 -0.63,-0.67 v 0 c 0,-0.36 0.31,-0.64 0.67,-0.63 v 0 c 0.36,0 0.64,0.32 0.63,0.67 v 0 c -0.01,0.36 -0.3,0.63 -0.65,0.63 z m 8.47,-0.73 c -0.02,-0.35 0.25,-0.67 0.61,-0.69 v 0 c 0.35,-0.02 0.66,0.25 0.69,0.61 v 0 c 0.02,0.36 -0.25,0.67 -0.61,0.69 h -0.04 c -0.34,0 -0.63,-0.26 -0.65,-0.61 z m -11.53,0.55 c -0.36,-0.03 -0.63,-0.34 -0.6,-0.7 v 0 c 0.03,-0.36 0.35,-0.62 0.71,-0.59 v 0 c 0.35,0.02 0.62,0.34 0.59,0.7 v 0 c -0.03,0.34 -0.31,0.59 -0.65,0.59 z M 31.55,11.36 C 31.51,11 31.76,10.68 32.12,10.64 v 0 c 0.36,-0.04 0.68,0.22 0.72,0.57 v 0 c 0.04,0.36 -0.22,0.68 -0.58,0.72 h -0.07 c -0.33,0 -0.61,-0.24 -0.64,-0.57 z m -17.63,0.4 C 13.57,11.7 13.33,11.37 13.39,11.02 v 0 c 0.06,-0.36 0.39,-0.6 0.75,-0.54 v 0 c 0.35,0.06 0.59,0.4 0.53,0.75 v 0 c -0.06,0.32 -0.33,0.54 -0.64,0.54 v 0 c 0,0 -0.07,0 -0.11,0 z M 10.66,10.1 c -0.03,-0.36 0.25,-0.67 0.6,-0.69 v 0 c 0.36,-0.02 0.67,0.25 0.7,0.61 v 0 c 0.02,0.36 -0.25,0.67 -0.61,0.69 h -0.04 c -0.34,0 -0.63,-0.27 -0.65,-0.61 z m 2.67,-1.07 c -0.06,-0.35 0.16,-0.7 0.52,-0.76 v 0 c 0.35,-0.08 0.69,0.15 0.76,0.51 v 0 c 0.07,0.35 -0.16,0.69 -0.51,0.76 v 0 c 0,0 -0.09,0.01 -0.13,0.01 v 0 c -0.3,0 -0.57,-0.21 -0.64,-0.52 z m 3,-0.5 C 16.29,8.18 16.55,7.85 16.9,7.82 v 0 c 0.36,-0.04 0.68,0.21 0.72,0.57 v 0 c 0.04,0.36 -0.22,0.68 -0.58,0.72 h -0.07 c -0.33,0 -0.61,-0.24 -0.64,-0.58 z M 32.07,8.91 C 31.71,8.88 31.45,8.56 31.48,8.2 v 0 c 0.02,-0.35 0.34,-0.62 0.7,-0.59 v 0 c 0.35,0.03 0.62,0.34 0.59,0.7 v 0 c -0.03,0.34 -0.31,0.6 -0.65,0.6 z M 19.35,8.25 C 19.32,7.89 19.6,7.58 19.96,7.56 v 0 c 0.35,-0.03 0.66,0.24 0.69,0.6 v 0 C 20.67,8.52 20.4,8.83 20.04,8.85 H 20 c -0.34,0 -0.63,-0.26 -0.65,-0.6 z m 9.72,0.48 c -0.36,0 -0.64,-0.31 -0.62,-0.67 v 0 c 0,-0.36 0.31,-0.64 0.67,-0.63 v 0 c 0.36,0.02 0.64,0.32 0.62,0.68 v 0 C 29.73,8.46 29.44,8.73 29.1,8.73 Z M 22.38,8.08 C 22.37,7.72 22.65,7.43 23.01,7.42 v 0 c 0.36,-0.02 0.66,0.27 0.67,0.62 v 0 c 0,0.36 -0.27,0.66 -0.63,0.67 h -0.02 c -0.35,0 -0.64,-0.27 -0.65,-0.63 z m 3.03,-0.06 c 0,-0.36 0.29,-0.65 0.65,-0.65 v 0 c 0.36,0 0.65,0.3 0.65,0.65 v 0 c 0,0.36 -0.29,0.65 -0.65,0.65 v 0 c -0.36,0 -0.65,-0.29 -0.65,-0.65 z"
         style="fill:#204a87;stroke-width:0.860582"
         id="path4" />
      <g
         id="g25"
         style="stroke-width:0.860582">
        <path
           d="m 11.3,10.69 c -0.08,0 -0.16,0 -0.24,-0.05 -0.08,-0.03 -0.16,-0.08 -0.21,-0.14 -0.06,-0.06 -0.11,-0.13 -0.14,-0.21 -0.04,-0.08 -0.05,-0.16 -0.05,-0.25 0,-0.17 0.06,-0.34 0.19,-0.46 0.06,-0.06 0.13,-0.1 0.21,-0.14 0.16,-0.06 0.34,-0.06 0.49,0 0.08,0.04 0.16,0.08 0.22,0.14 0.05,0.06 0.1,0.14 0.14,0.21 0.03,0.08 0.05,0.17 0.05,0.25 0,0.17 -0.07,0.34 -0.19,0.46 -0.13,0.12 -0.3,0.19 -0.47,0.19 z"
           style="fill:#204a87;stroke-width:0.860582"
           id="path5" />
        <g
           id="g24"
           style="stroke-width:0.860582">
          <path
             d="m 12.69,27.4 c -0.35,-0.03 -0.67,0.23 -0.71,0.59 -0.03,0.35 0.23,0.67 0.59,0.71 h 0.06 c 0.33,0 0.61,-0.25 0.65,-0.59 0.03,-0.36 -0.23,-0.67 -0.59,-0.71 z"
             style="fill:#204a87;stroke-width:0.860582"
             id="path6" />
          <path
             d="m 12.45,30.43 c -0.35,0.09 -0.55,0.45 -0.45,0.8 0.08,0.29 0.34,0.47 0.62,0.47 0.06,0 0.12,-0.01 0.18,-0.02 0.35,-0.1 0.55,-0.46 0.45,-0.8 -0.1,-0.35 -0.46,-0.55 -0.8,-0.45 z"
             style="fill:#204a87;stroke-width:0.860582"
             id="path7" />
          <path
             d="m 12.89,24.39 c -0.36,-0.02 -0.66,0.26 -0.67,0.62 -0.02,0.36 0.26,0.66 0.62,0.68 h 0.02 c 0.35,0 0.64,-0.28 0.65,-0.63 0.02,-0.36 -0.26,-0.66 -0.62,-0.67 z"
             style="fill:#204a87;stroke-width:0.860582"
             id="path8" />
          <path
             d="m 12.32,16.66 c 0.36,-0.07 0.59,-0.4 0.53,-0.76 -0.06,-0.35 -0.39,-0.59 -0.75,-0.53 -0.35,0.06 -0.59,0.4 -0.53,0.75 0.06,0.32 0.33,0.54 0.65,0.54 z"
             style="fill:#204a87;stroke-width:0.860582"
             id="path9" />
          <path
             d="m 12.85,21.37 c -0.36,0 -0.64,0.31 -0.63,0.67 0.02,0.35 0.3,0.63 0.65,0.63 h 0.03 c 0.35,-0.02 0.63,-0.32 0.62,-0.68 0,-0.35 -0.31,-0.63 -0.67,-0.62 z"
             style="fill:#204a87;stroke-width:0.860582"
             id="path10" />
          <path
             d="M 13.51,25.07 Z"
             style="fill:#204a87;stroke-width:0.860582"
             id="path11" />
          <path
             d="m 37.23,16.41 c 0,0 0.05,0 0.07,0 0.33,0 0.61,-0.25 0.65,-0.59 0.04,-0.35 -0.22,-0.67 -0.58,-0.71 -0.36,-0.04 -0.68,0.22 -0.71,0.58 -0.04,0.35 0.22,0.67 0.57,0.71 z"
             style="fill:#204a87;stroke-width:0.860582"
             id="path12" />
          <path
             d="m 36.99,19.42 c 0,0 0.03,0.01 0.04,0.01 0.34,0 0.63,-0.27 0.65,-0.61 0.03,-0.36 -0.25,-0.67 -0.6,-0.69 -0.36,-0.03 -0.67,0.24 -0.7,0.6 -0.02,0.36 0.25,0.67 0.61,0.69 z"
             style="fill:#204a87;stroke-width:0.860582"
             id="path13" />
          <path
             d="m 11.79,13.68 c 0.36,-0.06 0.59,-0.4 0.53,-0.75 -0.06,-0.36 -0.4,-0.59 -0.75,-0.53 -0.35,0.06 -0.59,0.4 -0.53,0.75 0.06,0.32 0.33,0.54 0.64,0.54 0.04,0 0.08,0 0.11,0 z"
             style="fill:#204a87;stroke-width:0.860582"
             id="path14" />
          <path
             d="m 36.98,22.45 c 0.36,-0.02 0.64,-0.32 0.63,-0.68 -0.02,-0.36 -0.32,-0.64 -0.68,-0.62 -0.36,0.01 -0.64,0.31 -0.62,0.67 0.01,0.35 0.3,0.63 0.65,0.63 z"
             style="fill:#204a87;stroke-width:0.860582"
             id="path15" />
          <path
             d="m 32,32.98 c -0.35,0.11 -0.53,0.48 -0.41,0.82 0.09,0.27 0.34,0.45 0.61,0.45 0.07,0 0.14,0 0.21,-0.04 0.34,-0.11 0.52,-0.48 0.41,-0.82 C 32.7,33.05 32.34,32.87 32,32.98 Z"
             style="fill:#204a87;stroke-width:0.860582"
             id="path16" />
          <path
             d="m 37.26,25.45 c 0,0 0.07,0 0.1,-0.01 0.36,-0.05 0.6,-0.39 0.54,-0.74 -0.05,-0.36 -0.39,-0.6 -0.74,-0.54 -0.35,0.05 -0.6,0.39 -0.54,0.74 0.05,0.32 0.33,0.55 0.64,0.55 z"
             style="fill:#204a87;stroke-width:0.860582"
             id="path17" />
          <path
             d="m 34.68,31.85 c -0.31,0.17 -0.44,0.56 -0.27,0.88 0.12,0.22 0.35,0.35 0.58,0.35 0.1,0 0.2,-0.03 0.3,-0.08 0.32,-0.16 0.44,-0.56 0.27,-0.87 C 35.39,31.81 35,31.69 34.68,31.85 Z"
             style="fill:#204a87;stroke-width:0.860582"
             id="path18" />
          <path
             d="m 37.69,27.13 c -0.36,0.06 -0.6,0.39 -0.54,0.75 0.05,0.31 0.33,0.54 0.64,0.54 0.03,0 0.07,0 0.1,0 0.36,-0.05 0.6,-0.38 0.54,-0.74 -0.05,-0.35 -0.38,-0.6 -0.74,-0.54 z"
             style="fill:#204a87;stroke-width:0.860582"
             id="path19" />
          <path
             d="m 36.9,30.22 c -0.23,0.28 -0.19,0.69 0.09,0.92 0.12,0.1 0.26,0.15 0.41,0.15 0.19,0 0.37,-0.08 0.5,-0.23 0.23,-0.28 0.19,-0.69 -0.08,-0.92 -0.28,-0.23 -0.69,-0.19 -0.92,0.08 z"
             style="fill:#204a87;stroke-width:0.860582"
             id="path20" />
          <path
             d="m 20.32,34.27 v 0 c -0.36,-0.04 -0.67,0.23 -0.7,0.59 -0.03,0.35 0.23,0.67 0.59,0.7 h 0.05 c 0.34,0 0.62,-0.26 0.65,-0.59 0.03,-0.36 -0.23,-0.68 -0.59,-0.7 z"
             style="fill:#204a87;stroke-width:0.860582"
             id="path21" />
          <path
             d="m 17.44,33.82 c -0.35,-0.09 -0.7,0.12 -0.79,0.47 -0.08,0.35 0.13,0.7 0.48,0.79 0.05,0 0.1,0.02 0.15,0.02 0.3,0 0.56,-0.2 0.63,-0.5 0.09,-0.35 -0.12,-0.7 -0.47,-0.78 z"
             style="fill:#204a87;stroke-width:0.860582"
             id="path22" />
          <path
             d="m 14.84,32.79 c -0.31,-0.19 -0.71,-0.1 -0.9,0.2 -0.19,0.31 -0.1,0.71 0.2,0.9 0.11,0.06 0.23,0.1 0.35,0.1 0.21,0 0.43,-0.11 0.55,-0.31 0.19,-0.3 0.1,-0.7 -0.2,-0.89 z"
             style="fill:#204a87;stroke-width:0.860582"
             id="path23" />
          <path
             d="m 23.27,34.37 c -0.35,0 -0.64,0.29 -0.64,0.65 0,0.36 0.29,0.65 0.65,0.65 v 0 c 0.36,0 0.65,-0.3 0.64,-0.66 0,-0.36 -0.3,-0.65 -0.66,-0.64 z"
             style="fill:#204a87;stroke-width:0.860582"
             id="path24" />
        </g>
      </g>
      <g
         id="g26"
         style="stroke-width:0.860582">
        <path
           d="m 36.15,23.73 c -0.13,0 -0.26,-0.05 -0.35,-0.14 -0.09,-0.1 -0.15,-0.23 -0.15,-0.36 0,-0.13 0.06,-0.26 0.15,-0.35 0.14,-0.14 0.36,-0.18 0.54,-0.11 0.06,0.03 0.12,0.06 0.17,0.11 0.09,0.09 0.14,0.22 0.14,0.35 0,0.13 -0.05,0.26 -0.14,0.36 -0.05,0.04 -0.11,0.08 -0.17,0.1 -0.06,0.03 -0.12,0.04 -0.19,0.04 z"
           style="fill:#204a87;stroke-width:0.860582"
           id="path25" />
        <path
           d="m 15.16,24.33 c -0.07,-0.26 0.09,-0.54 0.36,-0.61 v 0 c 0.27,-0.07 0.54,0.09 0.61,0.35 v 0 c 0.07,0.27 -0.09,0.55 -0.35,0.62 v 0 c -0.05,0.01 -0.09,0.01 -0.13,0.01 v 0 c -0.22,0 -0.43,-0.14 -0.49,-0.37 z m 2.88,-0.71 c -0.06,-0.27 0.11,-0.54 0.38,-0.59 v 0 c 0.27,-0.06 0.54,0.11 0.59,0.38 v 0 c 0.06,0.27 -0.11,0.54 -0.38,0.6 v 0 c 0,0 -0.07,0 -0.1,0 v 0 c -0.24,0 -0.44,-0.17 -0.49,-0.4 z m 2.9,-0.56 c -0.04,-0.27 0.15,-0.52 0.42,-0.56 v 0 c 0.27,-0.05 0.53,0.14 0.57,0.42 v 0 c 0.04,0.27 -0.15,0.52 -0.42,0.57 h -0.08 c -0.24,0 -0.45,-0.18 -0.49,-0.43 z m 12.24,0.21 C 32.9,23.24 32.7,22.99 32.74,22.72 v 0 c 0.03,-0.28 0.27,-0.48 0.55,-0.45 v 0 c 0.27,0.03 0.47,0.28 0.44,0.56 v 0 c -0.03,0.25 -0.24,0.44 -0.5,0.44 z M 23.87,22.7 c 0,-0.27 0.2,-0.51 0.47,-0.53 v 0 c 0.28,0 0.52,0.2 0.53,0.47 v 0 c 0.02,0.28 -0.19,0.52 -0.47,0.53 h -0.03 c -0.26,0 -0.48,-0.2 -0.5,-0.47 z m 5.92,-0.15 c 0,-0.28 0.24,-0.5 0.51,-0.48 v 0 c 0.28,0 0.49,0.23 0.48,0.51 v 0 c -0.01,0.28 -0.24,0.49 -0.51,0.48 v 0 c -0.28,0 -0.49,-0.24 -0.48,-0.51 z m -2.96,0.02 c 0,-0.28 0.21,-0.51 0.49,-0.52 v 0 c 0.27,0 0.5,0.22 0.51,0.49 v 0 c 0,0.28 -0.21,0.51 -0.49,0.51 h -0.01 c -0.27,0 -0.5,-0.21 -0.5,-0.48 z"
           style="fill:#204a87;stroke-width:0.860582"
           id="path26" />
      </g>
      <g
         id="g29"
         style="stroke-width:0.860582">
        <path
           d="m 34.98,26.83 c -0.13,0 -0.26,-0.05 -0.35,-0.14 -0.1,-0.1 -0.15,-0.23 -0.15,-0.36 0,-0.13 0.05,-0.26 0.15,-0.35 0.04,-0.05 0.1,-0.08 0.16,-0.11 0.12,-0.05 0.26,-0.05 0.38,0 0.06,0.03 0.12,0.06 0.17,0.11 0.04,0.05 0.08,0.1 0.1,0.16 0.03,0.06 0.04,0.13 0.04,0.19 0,0.07 0,0.13 -0.04,0.19 -0.02,0.07 -0.06,0.12 -0.1,0.17 -0.1,0.09 -0.23,0.14 -0.36,0.14 z"
           style="fill:#204a87;stroke-width:0.860582"
           id="path27" />
        <path
           d="m 16.65,26.49 c -0.07,-0.27 0.09,-0.54 0.36,-0.61 v 0 c 0.26,-0.08 0.54,0.08 0.61,0.35 v 0 c 0.07,0.26 -0.08,0.54 -0.35,0.61 v 0 c 0,0 -0.09,0.02 -0.13,0.02 v 0 c -0.22,0 -0.42,-0.15 -0.49,-0.37 z m 2.94,-0.6 c -0.03,-0.28 0.17,-0.52 0.45,-0.55 v 0 c 0.27,-0.03 0.52,0.17 0.55,0.44 v 0 c 0.03,0.28 -0.17,0.52 -0.45,0.55 v 0 c 0,0 -0.03,0 -0.05,0 v 0 c -0.25,0 -0.47,-0.19 -0.5,-0.45 z m 12.39,0.25 c -0.27,-0.04 -0.46,-0.3 -0.41,-0.57 v 0 c 0.04,-0.27 0.3,-0.46 0.57,-0.42 v 0 c 0.27,0.05 0.46,0.3 0.42,0.58 v 0 c -0.04,0.24 -0.26,0.42 -0.5,0.42 v 0 c 0,0 -0.05,0 -0.08,0 z M 23.12,26.1 c -0.28,0.02 -0.52,-0.19 -0.54,-0.47 v 0 c -0.02,-0.27 0.19,-0.51 0.47,-0.53 v 0 c 0.27,-0.02 0.51,0.19 0.53,0.47 v 0 c 0.02,0.27 -0.19,0.51 -0.46,0.53 z m 2.46,-0.69 c -0.02,-0.28 0.2,-0.51 0.47,-0.53 v 0 c 0.28,0 0.51,0.21 0.53,0.48 v 0 c 0.01,0.28 -0.2,0.51 -0.48,0.52 v 0 c 0,0 0,0.01 -0.02,0.01 v 0 c -0.27,0 -0.49,-0.21 -0.5,-0.48 z m 3.48,0.45 c -0.28,0 -0.49,-0.24 -0.48,-0.52 v 0 c 0.01,-0.27 0.24,-0.49 0.52,-0.48 v 0 c 0.27,0.01 0.49,0.24 0.48,0.52 v 0 c 0,0.27 -0.24,0.48 -0.5,0.48 z"
           style="fill:#204a87;stroke-width:0.860582"
           id="path28" />
        <path
           d="m 14.42,28.1 c -0.07,0 -0.14,-0.02 -0.2,-0.04 -0.06,-0.03 -0.11,-0.06 -0.16,-0.11 -0.09,-0.09 -0.15,-0.22 -0.15,-0.35 0,-0.07 0.02,-0.13 0.04,-0.19 0.03,-0.07 0.06,-0.12 0.11,-0.17 0.05,-0.04 0.1,-0.08 0.16,-0.1 0.13,-0.06 0.26,-0.06 0.39,0 0.06,0.02 0.11,0.06 0.16,0.1 0.09,0.1 0.15,0.23 0.15,0.36 0,0.13 -0.06,0.25 -0.15,0.35 -0.05,0.05 -0.1,0.08 -0.16,0.11 -0.06,0.02 -0.13,0.04 -0.19,0.04 z"
           style="fill:#204a87;stroke-width:0.860582"
           id="path29" />
      </g>
      <g
         id="g32"
         style="stroke-width:0.860582">
        <path
           d="m 10.5,26.54 c -0.18,0 -0.34,-0.07 -0.46,-0.19 C 9.98,26.29 9.93,26.22 9.9,26.14 9.86,26.06 9.85,25.97 9.85,25.89 c 0,-0.09 0.01,-0.17 0.05,-0.25 0.03,-0.08 0.08,-0.15 0.14,-0.21 0.18,-0.18 0.46,-0.24 0.71,-0.14 0.07,0.03 0.15,0.08 0.21,0.14 0.12,0.12 0.19,0.29 0.19,0.46 0,0.08 -0.02,0.17 -0.05,0.25 -0.04,0.08 -0.08,0.15 -0.14,0.21 -0.06,0.06 -0.14,0.11 -0.21,0.14 -0.08,0.03 -0.17,0.05 -0.25,0.05 z"
           style="fill:#204a87;stroke-width:0.860582"
           id="path30" />
        <path
           d="m 17.61,40.63 c -0.36,0 -0.64,-0.32 -0.62,-0.67 v 0 c 0,-0.36 0.31,-0.64 0.67,-0.63 v 0 c 0.36,0.02 0.64,0.32 0.62,0.67 v 0 c -0.01,0.35 -0.3,0.63 -0.65,0.63 z m 2.32,-0.64 c -0.02,-0.35 0.26,-0.66 0.62,-0.68 v 0 c 0.36,0 0.66,0.27 0.68,0.62 v 0 c 0.01,0.36 -0.26,0.67 -0.62,0.68 h -0.03 c -0.35,0 -0.64,-0.27 -0.65,-0.62 z m -5.32,0.38 c -0.35,-0.05 -0.6,-0.38 -0.55,-0.74 v 0 c 0.05,-0.35 0.38,-0.6 0.73,-0.55 v 0 c 0.36,0.05 0.6,0.38 0.55,0.73 v 0 c -0.04,0.33 -0.32,0.56 -0.64,0.56 z m 8.26,-0.58 c -0.05,-0.36 0.21,-0.68 0.56,-0.72 v 0 c 0.36,-0.04 0.68,0.21 0.73,0.56 v 0 c 0.04,0.36 -0.21,0.68 -0.57,0.73 h -0.08 c -0.32,0 -0.6,-0.24 -0.64,-0.57 z m 2.91,-0.41 c -0.06,-0.35 0.17,-0.69 0.53,-0.75 v 0 c 0.35,-0.07 0.69,0.17 0.75,0.52 v 0 c 0.07,0.35 -0.17,0.69 -0.52,0.76 v 0 c 0,0 -0.08,0 -0.12,0 v 0 c -0.31,0 -0.58,-0.22 -0.64,-0.54 z m -14.13,0.38 c -0.35,-0.09 -0.56,-0.45 -0.46,-0.8 v 0 c 0.09,-0.34 0.45,-0.55 0.8,-0.45 v 0 c 0.34,0.09 0.55,0.45 0.45,0.8 v 0 c -0.08,0.29 -0.34,0.48 -0.62,0.48 v 0 c -0.06,0 -0.12,0 -0.17,-0.03 z m 17.02,-0.95 c -0.08,-0.35 0.13,-0.7 0.48,-0.79 v 0 c 0.35,-0.08 0.7,0.13 0.79,0.48 v 0 c 0.08,0.35 -0.13,0.7 -0.48,0.79 v 0 c 0,0 -0.1,0.02 -0.16,0.02 v 0 c -0.29,0 -0.56,-0.2 -0.63,-0.5 z M 8.78,38.74 C 8.45,38.59 8.3,38.2 8.46,37.88 v 0 C 8.6,37.55 8.99,37.41 9.32,37.55 v 0 c 0.32,0.15 0.47,0.54 0.32,0.87 v 0 C 9.53,38.66 9.29,38.8 9.05,38.8 v 0 c -0.1,0 -0.19,-0.02 -0.27,-0.06 z m 22.74,-0.68 c -0.11,-0.35 0.08,-0.71 0.42,-0.82 v 0 c 0.34,-0.11 0.71,0.08 0.82,0.42 v 0 c 0.11,0.34 -0.08,0.71 -0.42,0.82 v 0 c -0.07,0.02 -0.13,0.03 -0.2,0.03 v 0 c -0.27,0 -0.53,-0.18 -0.62,-0.45 z M 34.3,37.1 c -0.13,-0.34 0.02,-0.72 0.35,-0.85 v 0 c 0.34,-0.14 0.72,0.02 0.85,0.35 v 0 c 0.14,0.33 0,0.71 -0.35,0.85 v 0 c -0.08,0.03 -0.16,0.05 -0.24,0.05 v 0 c -0.26,0 -0.5,-0.15 -0.61,-0.4 z M 6.12,37.14 C 5.84,36.92 5.8,36.51 6.02,36.23 v 0 C 6.24,35.95 6.65,35.9 6.93,36.12 v 0 c 0.28,0.22 0.33,0.63 0.11,0.91 v 0 C 6.91,37.2 6.72,37.28 6.53,37.28 v 0 c -0.14,0 -0.29,-0.05 -0.41,-0.14 z m 30.87,-1.25 c -0.17,-0.31 -0.05,-0.71 0.26,-0.88 v 0 c 0.32,-0.17 0.71,-0.05 0.89,0.27 v 0 c 0.17,0.31 0.05,0.71 -0.27,0.88 v 0 c -0.09,0.05 -0.2,0.08 -0.31,0.08 v 0 c -0.23,0 -0.45,-0.13 -0.57,-0.35 z M 4.04,34.73 C 3.87,34.41 3.99,34.02 4.31,33.85 v 0 c 0.32,-0.17 0.71,-0.05 0.88,0.27 v 0 C 5.36,34.44 5.24,34.83 4.92,35 v 0 c -0.1,0.05 -0.2,0.07 -0.31,0.07 v 0 c -0.23,0 -0.45,-0.12 -0.57,-0.34 z M 39.53,34.4 c -0.21,-0.29 -0.15,-0.69 0.14,-0.91 v 0 c 0.29,-0.21 0.7,-0.14 0.91,0.15 v 0 c 0.21,0.28 0.15,0.69 -0.14,0.9 v 0 c -0.12,0.09 -0.25,0.13 -0.38,0.13 v 0 c -0.2,0 -0.4,-0.09 -0.53,-0.27 z m 2.29,-1.85 C 41.55,32.31 41.53,31.9 41.78,31.63 v 0 c 0.24,-0.26 0.65,-0.28 0.91,-0.04 v 0 c 0.27,0.24 0.29,0.65 0.05,0.92 v 0 c -0.13,0.14 -0.31,0.21 -0.48,0.21 v 0 c -0.16,0 -0.32,-0.06 -0.44,-0.17 z M 4.03,32.21 C 3.68,32.14 3.45,31.79 3.52,31.44 v 0 c 0.07,-0.35 0.42,-0.58 0.77,-0.5 v 0 c 0.35,0.07 0.58,0.42 0.51,0.77 v 0 c -0.07,0.3 -0.34,0.52 -0.64,0.52 v 0 c 0,0 -0.09,0 -0.13,-0.02 z m 39.58,-1.99 c -0.33,-0.13 -0.5,-0.51 -0.37,-0.84 v 0 c 0.13,-0.34 0.5,-0.5 0.84,-0.38 v 0 c 0.34,0.13 0.5,0.51 0.37,0.84 v 0 c -0.1,0.26 -0.34,0.42 -0.6,0.42 v 0 c -0.08,0 -0.16,-0.01 -0.24,-0.04 z M 5.13,29.51 C 4.86,29.27 4.84,28.86 5.08,28.59 v 0 C 5.32,28.32 5.73,28.3 6,28.54 v 0 c 0.26,0.24 0.29,0.65 0.05,0.92 v 0 C 5.92,29.6 5.74,29.67 5.56,29.67 v 0 c -0.15,0 -0.31,-0.05 -0.43,-0.16 z M 7.3,27.53 C 7.11,27.22 7.21,26.82 7.52,26.63 v 0 c 0.31,-0.18 0.71,-0.08 0.89,0.22 v 0 c 0.19,0.31 0.09,0.71 -0.22,0.9 v 0 c -0.1,0.06 -0.22,0.09 -0.33,0.09 v 0 c -0.23,0 -0.44,-0.11 -0.56,-0.31 z m 35.95,-0.46 c -0.17,-0.31 -0.06,-0.71 0.26,-0.88 v 0 c 0.32,-0.17 0.71,-0.05 0.88,0.26 v 0 c 0.17,0.32 0.06,0.71 -0.26,0.88 v 0 c -0.1,0.06 -0.2,0.08 -0.31,0.08 v 0 c -0.23,0 -0.45,-0.12 -0.57,-0.34 z m -1.92,-1.63 c -0.32,-0.17 -0.45,-0.56 -0.28,-0.88 v 0 c 0.16,-0.32 0.55,-0.44 0.87,-0.28 v 0 c 0.32,0.17 0.45,0.56 0.29,0.88 v 0 c -0.12,0.22 -0.35,0.35 -0.58,0.35 v 0 c -0.1,0 -0.21,-0.02 -0.3,-0.07 z"
           style="fill:#204a87;stroke-width:0.860582"
           id="path31" />
        <path
           d="m 38.82,24.47 c -0.17,0 -0.34,-0.07 -0.46,-0.2 -0.06,-0.06 -0.11,-0.13 -0.14,-0.21 -0.04,-0.08 -0.05,-0.16 -0.05,-0.25 0,-0.08 0,-0.17 0.05,-0.24 0.03,-0.08 0.08,-0.16 0.14,-0.22 0.17,-0.17 0.46,-0.24 0.71,-0.14 0.08,0.04 0.15,0.08 0.21,0.14 0.06,0.06 0.1,0.14 0.14,0.22 0.03,0.07 0.05,0.16 0.05,0.24 0,0.09 -0.02,0.17 -0.05,0.25 -0.04,0.08 -0.08,0.15 -0.14,0.21 -0.06,0.06 -0.14,0.11 -0.21,0.14 -0.08,0.04 -0.17,0.06 -0.25,0.06 z"
           style="fill:#204a87;stroke-width:0.860582"
           id="path32" />
      </g>
      <g
         id="g34"
         style="stroke-width:0.860582">
        <path
           d="m 20.23,29.23 c -0.27,0 -0.49,-0.24 -0.48,-0.51 v 0 c 0.01,-0.28 0.24,-0.5 0.52,-0.49 v 0 c 0.27,0.01 0.49,0.24 0.48,0.52 v 0 c 0,0.27 -0.23,0.48 -0.5,0.48 z m 2.52,-0.49 c 0,-0.28 0.21,-0.51 0.48,-0.52 v 0 c 0.28,-0.01 0.51,0.2 0.52,0.48 v 0 c 0.01,0.28 -0.2,0.51 -0.48,0.52 v 0 c -0.27,0 -0.5,-0.21 -0.51,-0.48 z m 3,-0.19 c -0.03,-0.28 0.17,-0.53 0.44,-0.56 v 0 c 0.28,-0.03 0.52,0.17 0.56,0.44 v 0 c 0.03,0.28 -0.17,0.53 -0.44,0.56 h -0.06 c -0.25,0 -0.47,-0.19 -0.5,-0.44 z m -8.57,0.4 C 16.9,28.9 16.72,28.64 16.77,28.37 v 0 c 0.04,-0.27 0.3,-0.45 0.57,-0.41 v 0 c 0.27,0.05 0.46,0.31 0.41,0.58 v 0 c -0.04,0.24 -0.25,0.42 -0.49,0.42 v 0 c 0,0 -0.06,0 -0.08,0 z m 11.55,-0.82 c -0.05,-0.27 0.13,-0.53 0.4,-0.58 v 0 c 0.27,-0.06 0.53,0.12 0.58,0.39 v 0 c 0.05,0.27 -0.12,0.54 -0.4,0.59 v 0 c 0,0 -0.06,0 -0.09,0 v 0 c -0.23,0 -0.44,-0.17 -0.49,-0.41 z M 14.16,28 c -0.24,-0.14 -0.33,-0.44 -0.19,-0.68 v 0 c 0.13,-0.25 0.44,-0.33 0.68,-0.2 v 0 c 0.24,0.14 0.33,0.44 0.19,0.68 v 0 c -0.09,0.17 -0.26,0.26 -0.43,0.26 v 0 c -0.09,0 -0.17,-0.02 -0.25,-0.06 z m 17.5,-0.52 c -0.07,-0.26 0.08,-0.54 0.35,-0.62 v 0 c 0.26,-0.07 0.54,0.08 0.61,0.34 v 0 c 0.08,0.27 -0.07,0.55 -0.34,0.62 v 0 c 0,0 -0.09,0.02 -0.14,0.02 v 0 c -0.21,0 -0.41,-0.14 -0.48,-0.36 z"
           style="fill:#729fcf;stroke-width:0.860582"
           id="path33" />
        <path
           d="m 34.98,26.83 c -0.06,0 -0.13,-0.01 -0.19,-0.04 -0.06,-0.02 -0.12,-0.06 -0.16,-0.1 -0.05,-0.05 -0.08,-0.1 -0.11,-0.17 -0.02,-0.06 -0.04,-0.12 -0.04,-0.19 0,-0.06 0.01,-0.13 0.04,-0.19 0.03,-0.06 0.06,-0.11 0.11,-0.16 0.04,-0.05 0.1,-0.08 0.16,-0.11 0.12,-0.05 0.26,-0.05 0.38,0 0.06,0.03 0.12,0.06 0.16,0.11 0.05,0.05 0.09,0.1 0.11,0.16 0.03,0.06 0.04,0.13 0.04,0.19 0,0.07 0,0.13 -0.04,0.19 -0.02,0.07 -0.06,0.12 -0.11,0.17 -0.04,0.04 -0.1,0.08 -0.16,0.1 -0.06,0.03 -0.12,0.04 -0.19,0.04 z"
           style="fill:#729fcf;stroke-width:0.860582"
           id="path34" />
      </g>
    </g>
    <g
       id="g40"
       style="stroke-width:0.860582">
      <g
         id="g39"
         style="stroke-width:0.860582">
        <g
           id="g36"
           style="stroke-width:0.860582">
          <polygon
             points="37.03,11.68 37.03,9.26 34.85,7.09 33.64,8.29 "
             style="fill:#e70e20;stroke-width:0.860582"
             id="polygon35" />
          <polygon
             points="37.03,11.68 37.03,9.26 39.21,7.09 40.42,8.29 "
             style="fill:#e70e20;stroke-width:0.860582"
             id="polygon36" />
        </g>
        <g
           id="g38"
           style="stroke-width:0.860582">
          <polygon
             points="37.03,9.26 37.03,11.68 39.21,13.85 40.42,12.65 "
             style="fill:#e70e20;stroke-width:0.860582"
             id="polygon37" />
          <polygon
             points="37.03,9.26 37.03,11.68 34.85,13.85 33.64,12.65 "
             style="fill:#e70e20;stroke-width:0.860582"
             id="polygon38" />
        </g>
      </g>
      <polygon
         points="34.85,7.09 37.03,9.26 39.21,7.09 40.42,8.29 38.24,10.47 40.42,12.65 39.21,13.86 37.03,11.68 34.85,13.86 33.64,12.65 35.82,10.47 33.64,8.29 "
         style="fill:none;stroke:url(#linearGradient44);stroke-width:0.430291px;stroke-miterlimit:10"
         id="polygon39" />
    </g>
    <g
       id="g41"
       style="stroke-width:0.860582">
      <polygon
         points="10.29,15.47 12.46,17.65 14.64,15.47 15.85,16.67 13.67,18.85 15.85,21.03 14.64,22.24 12.46,20.06 10.29,22.24 9.08,21.03 11.26,18.85 9.08,16.67 "
         style="fill:#e70e20;stroke-width:0.860582"
         id="polygon40" />
      <polygon
         points="10.28,15.47 12.46,17.64 14.64,15.47 15.85,16.67 13.67,18.85 15.85,21.03 14.64,22.24 12.46,20.06 10.28,22.24 9.08,21.03 11.26,18.85 9.08,16.67 "
         style="fill:none;stroke:url(#linear-gradient-2);stroke-width:0.430291px;stroke-miterlimit:10"
         id="polygon41" />
    </g>
    <g
       id="g43"
       style="stroke-width:0.860582">
      <polygon
         points="25.58,30.61 27.75,32.79 29.93,30.61 31.14,31.81 28.96,33.99 31.14,36.17 29.93,37.38 27.75,35.2 25.58,37.38 24.37,36.17 26.55,33.99 24.37,31.81 "
         style="fill:#e70e20;stroke-width:0.860582"
         id="polygon42" />
      <polygon
         points="25.58,30.6 27.76,32.78 29.93,30.6 31.14,31.81 28.96,33.99 31.14,36.17 29.93,37.37 27.76,35.19 25.58,37.37 24.37,36.17 26.55,33.99 24.37,31.81 "
         style="fill:none;stroke:url(#linear-gradient-3);stroke-width:0.430291px;stroke-miterlimit:10"
         id="polygon43" />
    </g>
  </g>
</svg>
