<?xml version="1.0" encoding="UTF-8" standalone="no"?>
<svg
   viewBox="0 0 48 48"
   version="1.1"
   id="svg24"
   sodipodi:docname="7-Hinge_SOP.svg"
   inkscape:version="1.3 (0e150ed, 2023-07-21)"
   xmlns:inkscape="http://www.inkscape.org/namespaces/inkscape"
   xmlns:sodipodi="http://sodipodi.sourceforge.net/DTD/sodipodi-0.dtd"
   xmlns:xlink="http://www.w3.org/1999/xlink"
   xmlns="http://www.w3.org/2000/svg"
   xmlns:svg="http://www.w3.org/2000/svg">
  <sodipodi:namedview
     id="namedview24"
     pagecolor="#ffffff"
     bordercolor="#000000"
     borderopacity="0.25"
     inkscape:showpageshadow="2"
     inkscape:pageopacity="0.0"
     inkscape:pagecheckerboard="0"
     inkscape:deskcolor="#d1d1d1"
     inkscape:zoom="17.416667"
     inkscape:cx="24"
     inkscape:cy="23.971292"
     inkscape:window-width="1392"
     inkscape:window-height="1245"
     inkscape:window-x="0"
     inkscape:window-y="25"
     inkscape:window-maximized="0"
     inkscape:current-layer="svg24" />
  <defs
     id="defs12">
    <radialGradient
       id="radial-gradient"
       cx="-263.63"
       cy="-38.82"
       fx="-263.63"
       fy="-38.82"
       r="3.57"
       gradientTransform="matrix(4.67,0,0,1.23,1255.91,90.93)"
       gradientUnits="userSpaceOnUse">
      <stop
         offset=".03"
         stop-color="#1a1718"
         stop-opacity=".5"
         id="stop1" />
      <stop
         offset=".68"
         stop-color="#1a1718"
         stop-opacity=".1"
         id="stop2" />
      <stop
         offset=".93"
         stop-color="#1a1718"
         stop-opacity="0"
         id="stop3" />
    </radialGradient>
    <linearGradient
       id="linear-gradient"
       x1="24.87"
       y1="7.01"
       x2="30.46"
       y2="17.76"
       gradientTransform="matrix(1, 0, 0, 1, 0, 0)"
       gradientUnits="userSpaceOnUse">
      <stop
         offset="0"
         stop-color="#fce94f"
         stop-opacity=".2"
         id="stop4" />
      <stop
         offset="1"
         stop-color="#edd400"
         id="stop5" />
    </linearGradient>
    <linearGradient
       id="linear-gradient-2"
       x1="31.54"
       y1="3.54"
       x2="37.13"
       y2="14.29"
       xlink:href="#linear-gradient" />
    <linearGradient
       id="linear-gradient-3"
       x1="28.02"
       y1="5.38"
       x2="33.61"
       y2="16.13"
       xlink:href="#linear-gradient" />
    <linearGradient
       id="linear-gradient-4"
       x1="27.15"
       y1="21.87"
       x2="26.88"
       y2="19.14"
       gradientTransform="matrix(1, 0, 0, 1, 0, 0)"
       gradientUnits="userSpaceOnUse">
      <stop
         offset="0"
         stop-color="#555753"
         id="stop6" />
      <stop
         offset="1"
         stop-color="#babdb6"
         id="stop7" />
    </linearGradient>
    <linearGradient
       id="linear-gradient-5"
       x1="20.63"
       y1="32.78"
       x2="22.88"
       y2="30.96"
       xlink:href="#linear-gradient-4" />
    <linearGradient
       id="linear-gradient-6"
       x1="24.94"
       y1="36.41"
       x2="25.34"
       y2="16.55"
       gradientTransform="matrix(1, 0, 0, 1, 0, 0)"
       gradientUnits="userSpaceOnUse">
      <stop
         offset="0"
         stop-color="snow"
         id="stop8" />
      <stop
         offset="1"
         stop-color="#babdb6"
         stop-opacity=".19"
         id="stop9" />
      <stop
         offset="1"
         stop-color="#fffdfd"
         id="stop10" />
    </linearGradient>
    <linearGradient
       id="linear-gradient-7"
       x1="36.03"
       y1="19.2"
       x2="15.06"
       y2="26.51"
       xlink:href="#linear-gradient-6" />
    <linearGradient
       id="linear-gradient-8"
       x1="24.95"
       y1="20.73"
       x2="20.88"
       y2="45.57"
       xlink:href="#linear-gradient-6" />
    <linearGradient
       id="linear-gradient-9"
       x1="31.22"
       y1="41.39"
       x2="28.7"
       y2="44.77"
       gradientTransform="translate(30.9 -10.05) rotate(36.37)"
       gradientUnits="userSpaceOnUse">
      <stop
         offset="0"
         stop-color="#2e3436"
         id="stop11" />
      <stop
         offset="1"
         stop-color="#555753"
         id="stop12" />
    </linearGradient>
    <linearGradient
       id="linear-gradient-10"
       x1="39.64"
       y1="15.3"
       x2="39.64"
       y2="20.74"
       gradientTransform="rotate(5.12,39.650476,17.164497)"
       xlink:href="#linear-gradient-9" />
    <linearGradient
       inkscape:collect="always"
       xlink:href="#linear-gradient"
       id="linearGradient24"
       gradientUnits="userSpaceOnUse"
       x1="24.87"
       y1="7.01"
       x2="30.46"
       y2="17.76" />
    <linearGradient
       inkscape:collect="always"
       xlink:href="#linear-gradient-4"
       id="linearGradient25"
       gradientUnits="userSpaceOnUse"
       x1="27.15"
       y1="21.87"
       x2="26.88"
       y2="19.14" />
    <linearGradient
       inkscape:collect="always"
       xlink:href="#linear-gradient-6"
       id="linearGradient26"
       gradientUnits="userSpaceOnUse"
       x1="24.94"
       y1="36.41"
       x2="25.34"
       y2="16.55" />
    <linearGradient
       inkscape:collect="always"
       xlink:href="#linear-gradient-9"
       id="linearGradient27"
       gradientUnits="userSpaceOnUse"
       gradientTransform="rotate(36.37,30.74712,42.007938)"
       x1="31.22"
       y1="41.39"
       x2="28.7"
       y2="44.77" />
  </defs>
  <g
     id="shadow"
     style="opacity:0.45;isolation:isolate;mix-blend-mode:multiply"
     transform="matrix(1.491013,0,0,1,-14.120173,0.68899522)">
    <ellipse
       cx="25.6"
       cy="43.02"
       rx="16.02"
       ry="4.25"
       style="fill:url(#radial-gradient)"
       id="ellipse12" />
  </g>
  <g
     id="ART"
     style="isolation:isolate"
     transform="matrix(1.1081067,0,0,1.1081067,-1.830947,-3.6912197)">
    <path
       d="m 26.92,11.15 c 0.38,0.14 1.8,0.86 2.38,2.17 0.39,0.87 0.52,2.15 0.52,2.15 l -1.57,0.25 c 0,0 0.71,-3.08 -1.33,-4.57 z"
       style="fill:url(#linearGradient24)"
       id="path12" />
    <path
       d="m 38.52,11.5 c 0,0 -0.41,-1.94 -3.04,-4.5 -2.33,-2.28 -5.54,-3.3 -7.02,-3.66 0,0 6.16,1.26 7.4,8.89 1.04,6.39 0.32,4.19 0.32,4.19 l 2.79,-1.97 c 0,0 0.29,-0.97 -0.45,-2.96 z"
       style="fill:url(#linear-gradient-2)"
       id="path13" />
    <path
       d="M 33.41,12.46 C 31.89,8.92 28.89,7.74 27.42,7.31 c 0,0 4.32,1.66 4.01,7.96 l 2.08,0.3 L 33.9,15 c 0,0 0.29,-0.73 -0.48,-2.53 z"
       style="fill:url(#linear-gradient-3)"
       id="path14" />
    <circle
       cx="15.03"
       cy="20.969999"
       r="9.8999996"
       style="fill:none;stroke:#f57f7f;stroke-width:0.7px;stroke-miterlimit:10;stroke-dasharray:0, 0, 2.5, 1.5"
       id="circle14" />
    <path
       d="m 39.98,20.97 c 0,0 -16.3,1.89 -20.44,1.89 0,0 4.07,4.16 7.28,8.38 1.95,2.57 4.98,6.1 6.97,8.5 l -6.11,4.52 C 23.81,39.34 12.87,25.43 11.91,23.19 10.74,20.47 12.06,18.15 15.09,17.41 17.87,16.74 39.17,13.4 39.17,13.4 l 0.8,7.57 z"
       style="fill:#afafaf"
       id="path15" />
    <path
       d="m 37.88,18.09 c 0,0 -20,2.91 -21.25,2.88 -1.25,-0.03 -1.69,0.11 -1.02,0.45 0.67,0.34 1.6,0.51 4.83,0.19 3.23,-0.32 18.27,-2.06 18.27,-2.06 z"
       style="mix-blend-mode:multiply;fill:url(#linearGradient25)"
       id="path16" />
    <path
       d="m 28.95,42.64 c 0,0 -15.4,-19.34 -15.73,-19.92 -0.33,-0.58 -0.29,-1.23 0,-1.7 0,0 0.22,1.12 0.83,1.7 0.61,0.58 1.34,0.89 1.95,1.68 0.61,0.79 14.64,18.03 14.64,18.03 l -1.69,0.22 z"
       style="mix-blend-mode:multiply;fill:url(#linear-gradient-5)"
       id="path17" />
    <path
       d="m 16.63,22.5 c 0.75,0.91 2.24,1.58 2.74,2.11 0.5,0.53 12.8,15.97 12.8,15.97 L 33.48,39.63 19.85,23.18 16.63,22.51 v 0 z"
       style="fill:url(#linearGradient26)"
       id="path18" />
    <path
       d="m 21.15,22.81 c 0,0 -3.51,-0.54 -2.24,-0.68 1.27,-0.14 19.39,-2.08 19.39,-2.08 l 1.48,0.93 -18.62,1.84 z"
       style="fill:url(#linear-gradient-7)"
       id="path19" />
    <path
       d="m 13.11,23.27 c 0.6,1.15 13.29,17.07 15.81,20.23 L 27.7,44.27 C 23.82,39.35 12.89,25.44 11.92,23.2 c -1.16,-2.73 0.15,-5.04 3.19,-5.78 2.78,-0.67 24.07,-4.01 24.07,-4.01 l 0.16,1.47 -1.03,1.34 c 0,0 -22.44,3.16 -23.32,3.29 -0.57,0.09 -1.57,0.47 -1.94,1.22 -0.34,0.7 -0.55,1.38 0.06,2.54 z"
       style="fill:url(#linear-gradient-8)"
       id="path20" />
    <path
       d="m 39.98,20.97 c 0,0 -16.3,1.89 -20.44,1.89 0,0 4.07,4.16 7.28,8.38 1.95,2.57 4.98,6.1 6.97,8.5 l -6.11,4.52 C 23.81,39.34 12.87,25.43 11.91,23.19 10.74,20.47 12.06,18.15 15.09,17.41 17.87,16.74 39.17,13.4 39.17,13.4 l 0.8,7.57 z"
       style="fill:none;stroke:#2e3436;stroke-width:0.7px;stroke-linecap:round;stroke-linejoin:round"
       id="path21" />
    <ellipse
       cx="30.75"
       cy="42.02"
       rx="3.8"
       ry="1.01"
       transform="rotate(-36.37,30.753923,42.008161)"
       style="fill:url(#linearGradient27)"
       id="ellipse21" />
    <ellipse
       cx="30.75"
       cy="42.02"
       rx="3.8"
       ry="1.01"
       transform="rotate(-36.37,30.753923,42.008161)"
       style="fill:none;stroke:#2e3436;stroke-width:0.7px;stroke-linecap:round;stroke-linejoin:round"
       id="ellipse22" />
    <path
       d="m 20.44,22.47 c -2.59,0.04 -4.81,-0.28 -5.68,-1.03 -0.08,-0.07 -0.31,-0.31 -0.56,-0.35 -0.37,-0.06 -0.53,0.32 -0.05,0.89 0.86,1 3.1,1.58 5.87,1.27 l 0.42,-0.77 z"
       style="fill:#2e3436"
       id="path22" />
    <ellipse
       cx="39.639999"
       cy="17.18"
       rx="2.4300001"
       ry="3.8099999"
       transform="rotate(-5.12,39.681114,17.237725)"
       style="fill:url(#linear-gradient-10)"
       id="ellipse23" />
    <ellipse
       cx="39.639999"
       cy="17.18"
       rx="2.4300001"
       ry="3.8099999"
       transform="rotate(-5.12,39.681114,17.237725)"
       style="fill:none;stroke:#2e3436;stroke-width:0.7px;stroke-linecap:round;stroke-linejoin:round"
       id="ellipse24" />
    <path
       d="m 9.85,21.62 c 0,0 -0.22,-4.22 4.22,-5.18 0,0 -0.64,-0.21 -1.91,-0.05 -1.27,0.16 -2.99,2.02 -2.3,5.23 z"
       style="fill:#808280"
       id="path24" />
  </g>
</svg>
