<?xml version="1.0" encoding="UTF-8" standalone="no"?>
<svg
   viewBox="0 0 48 48"
   version="1.1"
   id="svg59"
   sodipodi:docname="5-Pyro Source Instance.svg"
   inkscape:version="1.3-dev (e30a5ffc, 2022-05-30)"
   xmlns:inkscape="http://www.inkscape.org/namespaces/inkscape"
   xmlns:sodipodi="http://sodipodi.sourceforge.net/DTD/sodipodi-0.dtd"
   xmlns:xlink="http://www.w3.org/1999/xlink"
   xmlns="http://www.w3.org/2000/svg"
   xmlns:svg="http://www.w3.org/2000/svg">
  <sodipodi:namedview
     id="namedview59"
     pagecolor="#ffffff"
     bordercolor="#000000"
     borderopacity="0.25"
     inkscape:showpageshadow="2"
     inkscape:pageopacity="0.0"
     inkscape:pagecheckerboard="0"
     inkscape:deskcolor="#d1d1d1"
     showgrid="false"
     inkscape:zoom="19.666667"
     inkscape:cx="19.652542"
     inkscape:cy="23.974576"
     inkscape:window-width="2560"
     inkscape:window-height="1378"
     inkscape:window-x="-6"
     inkscape:window-y="-6"
     inkscape:window-maximized="1"
     inkscape:current-layer="svg59" />
  <defs
     id="defs22">
    <style
       id="style1">.cls-1{fill:url(#radial-gradient);}.cls-10,.cls-11,.cls-12,.cls-13,.cls-2,.cls-22,.cls-7,.cls-8,.cls-9{fill:none;}.cls-2{stroke:#8f5902;stroke-width:1.4px;}.cls-10,.cls-13,.cls-2,.cls-22,.cls-8{stroke-miterlimit:10;}.cls-3{fill:url(#linear-gradient);}.cls-4{fill:url(#linear-gradient-2);}.cls-5{fill:url(#linear-gradient-3);}.cls-6{opacity:0.7;fill:url(#linear-gradient-4);}.cls-7{stroke:#d3d7cf;}.cls-11,.cls-12,.cls-7,.cls-9{stroke-linecap:round;stroke-linejoin:round;}.cls-7,.cls-8{stroke-width:3px;}.cls-8,.cls-9{stroke:#888a85;}.cls-10,.cls-9{stroke-width:1.6px;}.cls-10{stroke:#555753;}.cls-11{stroke:#ef2929;stroke-width:2px;}.cls-12{stroke:#a40000;}.cls-12,.cls-22{stroke-width:0.7px;}.cls-13{stroke:#ce5c00;}.cls-14{fill:url(#linear-gradient-5);}.cls-15{fill:url(#linear-gradient-6);}.cls-16{fill:url(#linear-gradient-7);}.cls-17{fill:url(#linear-gradient-8);}.cls-18{fill:url(#linear-gradient-9);}.cls-19{fill:#2e3436;}.cls-20{fill:#555753;}.cls-21{opacity:0.9;fill:url(#linear-gradient-10);}.cls-22{stroke:#2e3436;}.cls-23{fill:url(#linear-gradient-11);}.cls-24{fill:url(#linear-gradient-12);}</style>
    <radialGradient
       id="radial-gradient"
       cx="-242.06"
       cy="113.8"
       r="16.75"
       gradientTransform="translate(375.46 -48.27) scale(1.45 0.74)"
       gradientUnits="userSpaceOnUse">
      <stop
         offset="0.41"
         stop-color="#212121"
         stop-opacity="0.4"
         id="stop1" />
      <stop
         offset="0.89"
         stop-color="#212121"
         stop-opacity="0"
         id="stop2" />
    </radialGradient>
    <linearGradient
       id="linear-gradient"
       x1="5.9"
       y1="38.27"
       x2="24"
       y2="38.27"
       gradientUnits="userSpaceOnUse">
      <stop
         offset="0"
         stop-color="#8f5902"
         id="stop3" />
      <stop
         offset="1"
         stop-color="#e9b96e"
         id="stop4" />
    </linearGradient>
    <linearGradient
       id="linear-gradient-2"
       x1="26.1"
       y1="46.09"
       x2="42.9"
       y2="27.19"
       xlink:href="#linear-gradient" />
    <linearGradient
       id="linear-gradient-3"
       x1="28.65"
       y1="21.35"
       x2="20.03"
       y2="41.79"
       gradientUnits="userSpaceOnUse">
      <stop
         offset="0"
         stop-color="#4e9a06"
         id="stop5" />
      <stop
         offset="1"
         stop-color="#8ae234"
         id="stop6" />
    </linearGradient>
    <linearGradient
       id="linear-gradient-4"
       x1="33.89"
       y1="17.45"
       x2="18.87"
       y2="40.12"
       gradientUnits="userSpaceOnUse">
      <stop
         offset="0"
         stop-color="#8ae234"
         stop-opacity="0"
         id="stop7" />
      <stop
         offset="1"
         stop-color="#8ae234"
         id="stop8" />
    </linearGradient>
    <linearGradient
       id="linear-gradient-5"
       x1="39.66"
       y1="18.96"
       x2="39.66"
       y2="30.42"
       gradientUnits="userSpaceOnUse">
      <stop
         offset="0"
         stop-color="#f57900"
         id="stop9" />
      <stop
         offset="0.16"
         stop-color="#f6870a"
         id="stop10" />
      <stop
         offset="0.45"
         stop-color="#f8aa23"
         id="stop11" />
      <stop
         offset="0.85"
         stop-color="#fce44b"
         id="stop12" />
      <stop
         offset="0.89"
         stop-color="#fce94f"
         id="stop13" />
    </linearGradient>
    <linearGradient
       id="linear-gradient-6"
       x1="39.56"
       y1="25.86"
       x2="39.56"
       y2="28.54"
       gradientUnits="userSpaceOnUse">
      <stop
         offset="0"
         stop-color="#fce94f"
         id="stop14" />
      <stop
         offset="0.12"
         stop-color="#fcea5d"
         id="stop15" />
      <stop
         offset="0.35"
         stop-color="#fded80"
         id="stop16" />
      <stop
         offset="0.65"
         stop-color="#fdf3ba"
         id="stop17" />
      <stop
         offset="0.89"
         stop-color="#fef7eb"
         id="stop18" />
    </linearGradient>
    <linearGradient
       id="linear-gradient-7"
       x1="8.75"
       y1="18.96"
       x2="8.75"
       y2="30.42"
       xlink:href="#linear-gradient-5" />
    <linearGradient
       id="linear-gradient-8"
       x1="8.64"
       y1="25.86"
       x2="8.64"
       y2="28.54"
       xlink:href="#linear-gradient-6" />
    <linearGradient
       id="linear-gradient-9"
       x1="33.07"
       y1="9.19"
       x2="17.12"
       y2="27.62"
       gradientUnits="userSpaceOnUse">
      <stop
         offset="0"
         stop-color="#edd400"
         id="stop19" />
      <stop
         offset="1"
         stop-color="#fce94f"
         id="stop20" />
    </linearGradient>
    <linearGradient
       id="linear-gradient-10"
       x1="23.33"
       y1="22.8"
       x2="36.39"
       y2="1.13"
       gradientUnits="userSpaceOnUse">
      <stop
         offset="0"
         stop-color="#fff"
         stop-opacity="0"
         id="stop21" />
      <stop
         offset="1"
         stop-color="snow"
         id="stop22" />
    </linearGradient>
    <linearGradient
       id="linear-gradient-11"
       x1="24.2"
       y1="27.12"
       x2="24.2"
       y2="38.58"
       xlink:href="#linear-gradient-5"
       gradientTransform="translate(4.8813559,-3.3559322)" />
    <linearGradient
       id="linear-gradient-12"
       x1="24.1"
       y1="34.02"
       x2="24.1"
       y2="36.71"
       xlink:href="#linear-gradient-6"
       gradientTransform="translate(4.8813559,-3.3559322)" />
    <linearGradient
       inkscape:collect="always"
       xlink:href="#linear-gradient"
       id="linearGradient59"
       gradientUnits="userSpaceOnUse"
       x1="5.9"
       y1="38.27"
       x2="24"
       y2="38.27" />
    <linearGradient
       inkscape:collect="always"
       xlink:href="#linear-gradient-5"
       id="linearGradient60"
       gradientUnits="userSpaceOnUse"
       x1="39.66"
       y1="18.96"
       x2="39.66"
       y2="30.42" />
    <linearGradient
       inkscape:collect="always"
       xlink:href="#linear-gradient-6"
       id="linearGradient61"
       gradientUnits="userSpaceOnUse"
       x1="39.56"
       y1="25.86"
       x2="39.56"
       y2="28.54" />
    <linearGradient
       inkscape:collect="always"
       xlink:href="#linearGradient53"
       id="linearGradient54"
       x1="22.5"
       y1="24.220764"
       x2="25.5"
       y2="24.220764"
       gradientUnits="userSpaceOnUse" />
    <linearGradient
       inkscape:collect="always"
       id="linearGradient53">
      <stop
         style="stop-color:#b1baaa;stop-opacity:1;"
         offset="0"
         id="stop52" />
      <stop
         style="stop-color:#ffffff;stop-opacity:1;"
         offset="0.48231512"
         id="stop54" />
      <stop
         style="stop-color:#5c6555;stop-opacity:1;"
         offset="1"
         id="stop53" />
    </linearGradient>
    <linearGradient
       id="linear-gradient-11-2"
       x1="33.07"
       y1="9.1899996"
       x2="17.120001"
       y2="27.620001"
       gradientUnits="userSpaceOnUse"
       gradientTransform="translate(0,-3.2542373)">
      <stop
         offset="0"
         stop-color="#edd400"
         id="stop11-7" />
      <stop
         offset="1"
         stop-color="#fce94f"
         id="stop12-8" />
    </linearGradient>
    <linearGradient
       id="linear-gradient-12-2"
       x1="23.33"
       y1="22.799999"
       x2="36.389999"
       y2="1.13"
       gradientUnits="userSpaceOnUse"
       gradientTransform="translate(0,-3.2542373)">
      <stop
         offset="0"
         stop-color="#fff"
         stop-opacity="0"
         id="stop13-4" />
      <stop
         offset="1"
         stop-color="snow"
         id="stop14-2" />
    </linearGradient>
    <radialGradient
       inkscape:collect="always"
       xlink:href="#linearGradient57"
       id="radialGradient57"
       cx="24"
       cy="35.98"
       fx="24"
       fy="35.98"
       r="23.370001"
       gradientTransform="matrix(1,0,0,0.5117672,-2.8624438e-8,17.535768)"
       gradientUnits="userSpaceOnUse" />
    <linearGradient
       inkscape:collect="always"
       id="linearGradient57">
      <stop
         style="stop-color:#000000;stop-opacity:1;"
         offset="0"
         id="stop56" />
      <stop
         style="stop-color:#000000;stop-opacity:0;"
         offset="1"
         id="stop57" />
    </linearGradient>
  </defs>
  <path
     id="ellipse14"
     style="fill:url(#radialGradient57);fill-opacity:1"
     class="cls-1"
     d="M 47.370001,35.949152 A 23.370001,11.96 0 0 1 24,47.909152 23.370001,11.96 0 0 1 0.62999887,35.949152 23.370001,11.96 0 0 1 24,23.989152 a 23.370001,11.96 0 0 1 23.370001,11.96 z" />
  <path
     id="polygon22"
     class="cls-2"
     style="fill:none;stroke:#8f5902;stroke-width:1.4px;stroke-miterlimit:10"
     d="m 5.9,32.38 v 2.27 L 24,44.17 42.1,34.65 V 32.38 L 24,22.86 Z" />
  <path
     id="polygon23"
     style="fill:url(#linearGradient59)"
     class="cls-3"
     d="M 5.9,32.38 24,41.89 v 2.28 L 5.9,34.65 Z" />
  <path
     id="polygon24"
     style="fill:url(#linear-gradient-2)"
     class="cls-4"
     d="M 42.1,32.38 24,41.89 v 2.28 l 18.1,-9.52 z" />
  <path
     id="polygon25"
     style="fill:url(#linear-gradient-3)"
     class="cls-5"
     d="M 24,41.89 5.9,32.38 24,22.86 42.1,32.38 Z" />
  <path
     id="polygon26"
     style="opacity:0.7;fill:url(#linear-gradient-4)"
     class="cls-6"
     d="M 5.9,32.38 24,22.86 42.1,32.38 Z" />
  <g
     id="g54"
     transform="translate(0.10169492,-0.08462605)">
    <path
       style="color:#000000;fill:url(#linearGradient54);stroke:#2e3436;stroke-linecap:round;stroke-linejoin:round"
       d="m 24,18.496094 a 1.5,1.5 0 0 0 -1.5,1.5 v 8.449218 a 1.5,1.5 0 0 0 1.5,1.5 1.5,1.5 0 0 0 1.5,-1.5 v -8.449218 a 1.5,1.5 0 0 0 -1.5,-1.5 z"
       id="line23" />
    <path
       class="cls-20"
       d="m 13.91,19.215763 10,-17.2600003 a 0.15,0.15 0 0 1 0.25,0 l 10,17.2600003 a 0.15,0.15 0 0 1 -0.13,0.22 H 14 a 0.15,0.15 0 0 1 -0.09,-0.22 z"
       id="path32-1"
       style="fill:url(#linear-gradient-11-2)" />
    <path
       class="cls-21"
       d="m 19.48,15.745763 a 0.63,0.63 0 0 0 -0.24,-0.09 c 0,0 -0.13,0 -0.17,-0.05 -0.04,-0.05 0,-0.2 -0.05,-0.29 a 0.28,0.28 0 0 0 0,-0.09 c 0,0 0,0 0,-0.06 a 0.36,0.36 0 0 0 -0.38,-0.1 c -0.76,0.25 -0.87,1.28 -0.71,1.93 0.27,1.1 1.93,1.14 2.65,0.48 a 0.32,0.32 0 0 0 0.11,-0.25 c 0,-0.2 -0.31,-0.27 -0.48,-0.3 -0.17,-0.03 -0.07,0 -0.08,0 -0.01,0 0,-0.08 0,-0.11 a 0.43,0.43 0 0 0 0.11,-0.36 c 0,-0.16 -0.11,-0.17 -0.26,-0.17 -0.15,0 -0.41,0.1 -0.48,-0.08 -0.07,-0.18 0.11,-0.36 -0.02,-0.46 z"
       id="path33-4"
       style="fill:#2e3436" />
    <path
       class="cls-21"
       d="m 21.32,16.555763 c 0.25,-0.1 0.43,-0.31 0.31,-0.58 a 0.27,0.27 0 0 0 -0.17,-0.12 c -0.15,-0.05 -0.42,-0.1 -0.56,0 a 0.54,0.54 0 0 0 -0.09,0.22 2.41,2.41 0 0 0 -0.07,0.37 0.28,0.28 0 0 0 0,0.09 0.14,0.14 0 0 0 0.09,0 1,1 0 0 0 0.49,0.02 z"
       id="path34-3"
       style="fill:#2e3436" />
    <path
       class="cls-21"
       d="m 18.33,13.605763 c 0.07,-0.47 0.89,0.43 0.34,0.48 a 0.29,0.29 0 0 1 -0.32,-0.19 c 0,0 0,-0.06 0,-0.09 a 0.66,0.66 0 0 1 -0.02,-0.2 z"
       id="path35-0"
       style="fill:#2e3436" />
    <path
       class="cls-21"
       d="m 19.62,12.085763 a 0.42,0.42 0 0 1 0,-0.22 1,1 0 0 1 0.35,-0.54 0.39,0.39 0 0 1 0.32,-0.1 0.31,0.31 0 0 1 0.22,0.21 0.85,0.85 0 0 1 0,0.32 1.78,1.78 0 0 1 -0.07,0.39 0.56,0.56 0 0 1 -0.21,0.31 0.29,0.29 0 0 1 -0.37,0 0.84,0.84 0 0 1 -0.24,-0.37 z"
       id="path36-8"
       style="fill:#2e3436" />
    <path
       class="cls-21"
       d="m 26.16,13.605763 a 0.21,0.21 0 0 0 -0.08,0.16 0.18,0.18 0 0 0 0.1,0.12 0.9,0.9 0 0 0 0.49,0.05 1,1 0 0 0 0.39,-0.05 0.32,0.32 0 0 0 0.22,-0.31 0.31,0.31 0 0 0 -0.18,-0.21 0.93,0.93 0 0 0 -0.94,0.24 z"
       id="path37"
       style="fill:#2e3436" />
    <path
       id="ellipse37"
       class="cls-21"
       style="fill:#2e3436"
       d="m 23.606466,11.000703 a 0.25999999,0.40000001 33.84 0 1 -0.0068,0.477026 0.25999999,0.40000001 33.84 0 1 -0.438705,0.18745 0.25999999,0.40000001 33.84 0 1 0.0068,-0.477026 0.25999999,0.40000001 33.84 0 1 0.438706,-0.18745 z" />
    <path
       class="cls-21"
       d="m 22.88,7.2057627 a 0.3,0.3 0 0 1 0.16,0 0.24,0.24 0 0 1 0.09,0.08 0.53,0.53 0 0 1 0,0.41 l -0.17,0.51 a 0.64,0.64 0 0 1 -0.16,0.29 0.37,0.37 0 0 1 -0.46,0 0.49,0.49 0 0 1 -0.17,-0.44 0.71,0.71 0 0 1 0.23,-0.42 2.52,2.52 0 0 0 0.21,-0.25 0.73,0.73 0 0 1 0.27,-0.18 z"
       id="path38"
       style="fill:#2e3436" />
    <path
       class="cls-21"
       d="m 25.69,8.6457627 a 0.85,0.85 0 0 0 0.26,-1 0.16,0.16 0 0 0 -0.06,-0.08 c -0.08,-0.06 -0.21,0 -0.26,0.09 a 0.64,0.64 0 0 1 -0.21,0.19 c -0.08,0 -0.19,0 -0.27,0.1 a 0.24,0.24 0 0 0 -0.07,0.18 0.35,0.35 0 0 0 0,0.25 0.56,0.56 0 0 0 0.25,0.23 0.29,0.29 0 0 0 0.18,0.07 0.24,0.24 0 0 0 0.18,-0.03 z"
       id="path39"
       style="fill:#2e3436" />
    <path
       class="cls-21"
       d="m 27.05,17.855763 h 0.28 c 0.18,0 0.36,0 0.48,0.18 a 0.21,0.21 0 0 1 -0.07,0.28 0.28,0.28 0 0 1 -0.2,0 1.61,1.61 0 0 1 -0.38,-0.08 0.86,0.86 0 0 0 -0.21,-0.07 1.28,1.28 0 0 0 -0.39,0 0.47,0.47 0 0 1 -0.37,-0.07 0.15,0.15 0 0 1 -0.07,-0.16 0.22,0.22 0 0 1 0.05,-0.08 0.49,0.49 0 0 1 0.46,-0.13 3,3 0 0 0 0.42,0.13 z"
       id="path40"
       style="fill:#2e3436" />
    <path
       id="polygon40"
       class="cls-21"
       style="fill:#2e3436"
       d="m 18.53,11.535763 -0.41,0.45 1.12,1.3 z" />
    <path
       id="polygon41"
       class="cls-21"
       style="fill:#2e3436"
       d="m 21.32,6.5157627 -1.24,1.68 0.39,4.8100003 z" />
    <path
       id="polygon42"
       class="cls-21"
       style="fill:#2e3436"
       d="m 26.29,5.4657627 -0.9,-1.21 -4.35,9.8700003 z" />
    <path
       id="polygon43"
       class="cls-21"
       style="fill:#2e3436"
       d="m 27.49,7.9457627 -0.54,-0.69 -3.61,4.9400003 z" />
    <path
       id="polygon44"
       class="cls-21"
       style="fill:#2e3436"
       d="M 28.75,10.015763 27.99,8.8757627 21.65,15.205763 Z" />
    <path
       id="polygon45"
       class="cls-21"
       style="fill:#2e3436"
       d="m 30.22,12.055763 -0.35,-1.1 -5.98,3.65 z" />
    <path
       id="polygon46"
       class="cls-21"
       style="fill:#2e3436"
       d="m 31.45,14.525763 -0.53,-0.88 -7.87,1.92 z" />
    <path
       id="polygon47"
       class="cls-21"
       style="fill:#2e3436"
       d="m 32.51,16.565763 -0.28,-0.55 -6.2,0.17 z" />
    <path
       id="polygon48"
       class="cls-21"
       style="fill:#2e3436"
       d="m 33.73,18.525763 -0.56,-0.82 -9,-0.81 z" />
    <path
       class="cls-21"
       d="m 26.49,19.525763 c 0,0 -3.9,-1.78 -3.9,-1.78 l 2.41,1.67 z"
       id="path48"
       style="fill:#2e3436" />
    <path
       class="cls-22"
       d="M 35.1,18.005763 25.55,1.4757627 a 1.78,1.78 0 0 0 -3.1,0 L 12.9,18.005763 a 1.79,1.79 0 0 0 1.55,2.74 h 19.1 a 1.79,1.79 0 0 0 1.55,-2.74 z m -1.63,1 H 14.53 a 0.13,0.13 0 0 1 -0.12,-0.2 L 23.88,2.3857627 a 0.14,0.14 0 0 1 0.24,0 l 9.47,16.4100003 a 0.13,0.13 0 0 1 -0.12,0.2 z"
       id="path49"
       style="fill:#555753" />
    <path
       class="cls-23"
       d="m 35.32,19.175763 c -4.9,-4.91 -14.74,-8.26 -17.78,-9.2 l 4.91,-8.5000003 a 1.78,1.78 0 0 1 3.1,0 L 35.1,18.005763 a 1.77,1.77 0 0 1 0.22,1.17 z"
       id="path50"
       style="opacity:0.9;fill:url(#linear-gradient-12-2)" />
    <path
       class="cls-24"
       d="M 22.45,1.4757627 12.9,18.005763 a 1.79,1.79 0 0 0 1.55,2.74 h 19.1 a 1.79,1.79 0 0 0 1.55,-2.69 L 25.55,1.4757627 a 1.78,1.78 0 0 0 -3.1,0 z"
       id="path51"
       style="fill:none;stroke:#2e3436;stroke-width:0.7px;stroke-miterlimit:10" />
  </g>
  <path
     id="line30"
     class="cls-11"
     style="fill:none;stroke:#ef2929;stroke-width:2px;stroke-linecap:round;stroke-linejoin:round"
     d="m 39.459999,31.940001 v -3.65" />
  <path
     id="line31"
     class="cls-12"
     style="fill:none;stroke:#a40000;stroke-width:0.7px;stroke-linecap:round;stroke-linejoin:round"
     d="m 39.459999,31.940001 v -3.65" />
  <path
     class="cls-13"
     d="m 38.44,28.1 -2.87,-4.75 2.48,1.33 -0.73,-10.59 2.93,8.91 2,-4.17 -1.25,6.43 2.78,-1.79 -3.28,4.77 A 1.62,1.62 0 0 1 38.44,28.1 Z"
     id="path31" />
  <path
     class="cls-14"
     d="m 38.44,28.1 -2.87,-4.75 2.48,1.33 -0.73,-10.59 2.93,8.91 2,-4.17 -1.25,6.43 2.78,-1.79 -3.28,4.77 A 1.62,1.62 0 0 1 38.44,28.1 Z"
     id="path32"
     style="fill:url(#linearGradient60)" />
  <path
     class="cls-15"
     d="M 38.44,28.1 38,26.17 l 1,1.18 0.43,-3.45 0.57,3.45 1.13,-1.13 -0.62,2 a 1.23,1.23 0 0 1 -0.9,0.38 1.93,1.93 0 0 1 -1.17,-0.5 z"
     id="path33"
     style="fill:url(#linearGradient61)" />
  <path
     id="line33"
     class="cls-11"
     style="fill:none;stroke:#ef2929;stroke-width:2px;stroke-linecap:round;stroke-linejoin:round"
     d="m 8.54,31.940001 v -3.65" />
  <path
     id="line34"
     class="cls-12"
     style="fill:none;stroke:#a40000;stroke-width:0.7px;stroke-linecap:round;stroke-linejoin:round"
     d="m 8.54,31.940001 v -3.65" />
  <path
     class="cls-13"
     d="M 7.53,28.1 4.66,23.35 7.14,24.68 6.41,14.09 9.34,23 l 2,-4.17 -1.28,6.46 2.78,-1.79 -3.29,4.74 A 1.61,1.61 0 0 1 7.53,28.1 Z"
     id="path34" />
  <path
     class="cls-16"
     d="M 7.53,28.1 4.66,23.35 7.14,24.68 6.41,14.09 9.34,23 l 2,-4.17 -1.28,6.46 2.78,-1.79 -3.29,4.74 A 1.61,1.61 0 0 1 7.53,28.1 Z"
     id="path35"
     style="fill:url(#linear-gradient-7)" />
  <path
     class="cls-17"
     d="m 7.53,28.1 -0.42,-1.93 1,1.18 0.44,-3.45 0.45,3.45 1.13,-1.13 -0.62,2 A 1.23,1.23 0 0 1 8.61,28.6 1.92,1.92 0 0 1 7.53,28.1 Z"
     id="path36"
     style="fill:url(#linear-gradient-8)" />
  <path
     id="line56"
     class="cls-11"
     style="fill:none;stroke:#ef2929;stroke-width:2px;stroke-linecap:round;stroke-linejoin:round"
     d="M 28.881356,36.744066 V 33.104067" />
  <path
     id="line57"
     class="cls-12"
     style="fill:none;stroke:#a40000;stroke-width:0.7px;stroke-linecap:round;stroke-linejoin:round"
     d="M 28.881356,36.744066 V 33.104067" />
  <path
     class="cls-13"
     d="m 27.881356,32.904068 -2.87,-4.74 2.49,1.32 -0.74,-10.59 2.93,8.88 2,-4.17 -1.28,6.46 2.78,-1.78 -3.31,4.76 a 1.61,1.61 0 0 1 -2,-0.14 z"
     id="path57" />
  <path
     class="cls-23"
     d="m 27.881356,32.904068 -2.87,-4.74 2.49,1.32 -0.74,-10.59 2.93,8.88 2,-4.17 -1.28,6.46 2.78,-1.78 -3.31,4.76 a 1.61,1.61 0 0 1 -2,-0.14 z"
     id="path58"
     style="fill:url(#linear-gradient-11)" />
  <path
     class="cls-24"
     d="m 27.881356,32.904068 -0.41,-1.93 1,1.18 0.41,-3.44 0.47,3.44 1.13,-1.13 -0.62,2 a 1.22,1.22 0 0 1 -0.9,0.39 2,2 0 0 1 -1.08,-0.51 z"
     id="path59"
     style="fill:url(#linear-gradient-12)" />
</svg>
