<?xml version="1.0" encoding="UTF-8" standalone="no"?>
<svg
   viewBox="0 0 48 48"
   version="1.1"
   id="svg144688"
   sodipodi:docname="rbddeformingtoanimated.svg"
   inkscape:version="1.1 (c68e22c387, 2021-05-23)"
   xmlns:inkscape="http://www.inkscape.org/namespaces/inkscape"
   xmlns:sodipodi="http://sodipodi.sourceforge.net/DTD/sodipodi-0.dtd"
   xmlns:xlink="http://www.w3.org/1999/xlink"
   xmlns="http://www.w3.org/2000/svg"
   xmlns:svg="http://www.w3.org/2000/svg"
   xmlns:rdf="http://www.w3.org/1999/02/22-rdf-syntax-ns#"
   xmlns:cc="http://creativecommons.org/ns#"
   xmlns:dc="http://purl.org/dc/elements/1.1/">
  <sodipodi:namedview
     id="namedview144690"
     pagecolor="#ffffff"
     bordercolor="#666666"
     borderopacity="1.0"
     inkscape:pageshadow="2"
     inkscape:pageopacity="0.0"
     inkscape:pagecheckerboard="0"
     showgrid="false"
     inkscape:snap-global="false"
     inkscape:zoom="15.6875"
     inkscape:cx="13.960159"
     inkscape:cy="24"
     inkscape:window-width="2880"
     inkscape:window-height="1557"
     inkscape:window-x="-8"
     inkscape:window-y="-8"
     inkscape:window-maximized="1"
     inkscape:current-layer="svg144688" />
  <defs
     id="defs144154">
    <style
       id="style144059">.cls-1{isolation:isolate;}.cls-2{fill:url(#radial-gradient);}.cls-3{fill:url(#radial-gradient-2);}.cls-4{fill:url(#radial-gradient-3);}.cls-10,.cls-14,.cls-21,.cls-24,.cls-26,.cls-27,.cls-29,.cls-30,.cls-31,.cls-32,.cls-36,.cls-37,.cls-40,.cls-41,.cls-43,.cls-45,.cls-46,.cls-5{mix-blend-mode:multiply;}.cls-6{fill:url(#linear-gradient);}.cls-7{fill:url(#linear-gradient-2);}.cls-8{fill:url(#linear-gradient-3);}.cls-9{fill:url(#linear-gradient-4);}.cls-10{fill:url(#linear-gradient-5);}.cls-11{fill:url(#linear-gradient-6);}.cls-12{fill:url(#linear-gradient-7);}.cls-13{fill:url(#linear-gradient-8);}.cls-14{fill:url(#linear-gradient-9);}.cls-15{fill:url(#linear-gradient-10);}.cls-16{fill:url(#linear-gradient-11);}.cls-17{fill:#555753;}.cls-18{fill:url(#linear-gradient-12);}.cls-19{fill:none;stroke:#555753;stroke-linecap:round;stroke-linejoin:round;stroke-width:0.35px;}.cls-20{fill:url(#linear-gradient-13);}.cls-21{fill:url(#linear-gradient-14);}.cls-22{fill:url(#linear-gradient-15);}.cls-23{fill:url(#linear-gradient-16);}.cls-24{fill:url(#linear-gradient-17);}.cls-25{fill:url(#linear-gradient-18);}.cls-26{fill:url(#linear-gradient-19);}.cls-27{fill:url(#linear-gradient-20);}.cls-28{fill:url(#linear-gradient-21);}.cls-29{fill:url(#linear-gradient-22);}.cls-30{fill:url(#linear-gradient-23);}.cls-31{fill:url(#linear-gradient-24);}.cls-32{fill:url(#linear-gradient-25);}.cls-33{fill:url(#linear-gradient-26);}.cls-34{fill:url(#linear-gradient-27);}.cls-35{fill:url(#linear-gradient-28);}.cls-36{fill:url(#linear-gradient-29);}.cls-37{fill:url(#linear-gradient-30);}.cls-38{fill:url(#linear-gradient-31);}.cls-39{fill:url(#linear-gradient-32);}.cls-40{fill:url(#linear-gradient-33);}.cls-41{fill:url(#linear-gradient-34);}.cls-42{fill:#babdb6;fill-rule:evenodd;}.cls-43{opacity:0.8;}.cls-44{opacity:0.83;}.cls-45{fill:url(#linear-gradient-35);}.cls-46{fill:url(#linear-gradient-36);}</style>
    <radialGradient
       id="radial-gradient"
       cx="27"
       cy="-71.27"
       r="12.19"
       gradientTransform="translate(-3.69 55.99) scale(0.96 0.42)"
       gradientUnits="userSpaceOnUse">
      <stop
         offset="0.03"
         stop-color="#2c2c2c"
         stop-opacity="0.5"
         id="stop144061" />
      <stop
         offset="0.68"
         stop-color="#2c2c2c"
         stop-opacity="0.1"
         id="stop144063" />
      <stop
         offset="0.93"
         stop-color="#2c2c2c"
         stop-opacity="0"
         id="stop144065" />
    </radialGradient>
    <radialGradient
       id="radial-gradient-2"
       cx="36.14"
       cy="-67.48"
       r="15.7"
       gradientTransform="matrix(1.0716086,0,0,0.64364534,-6.8115101,82.012112)"
       xlink:href="#radial-gradient" />
    <radialGradient
       id="radial-gradient-3"
       cx="17.39"
       cy="-75.35"
       r="10.58"
       gradientTransform="matrix(1.5694519,0,0,0.68663519,-11.232032,67.96301)"
       xlink:href="#radial-gradient" />
    <linearGradient
       id="linear-gradient"
       x1="13.52"
       y1="32.37"
       x2="12.4"
       y2="14.91"
       gradientUnits="userSpaceOnUse">
      <stop
         offset="0"
         stop-color="#5c6262"
         id="stop144070" />
      <stop
         offset="0.85"
         stop-color="#e3e6e1"
         id="stop144072" />
    </linearGradient>
    <linearGradient
       id="linear-gradient-2"
       x1="27.81"
       y1="41.52"
       x2="32.3"
       y2="29.11"
       gradientUnits="userSpaceOnUse">
      <stop
         offset="0"
         stop-color="#5c6262"
         id="stop144075" />
      <stop
         offset="1"
         stop-color="#e3e6e1"
         id="stop144077" />
    </linearGradient>
    <linearGradient
       id="linear-gradient-3"
       x1="42.08"
       y1="32.58"
       x2="26.16"
       y2="30.08"
       xlink:href="#linear-gradient-2" />
    <linearGradient
       id="linear-gradient-4"
       x1="29.89"
       y1="32.74"
       x2="18.51"
       y2="30.19"
       gradientUnits="userSpaceOnUse">
      <stop
         offset="0.05"
         stop-color="#fff"
         stop-opacity="0"
         id="stop144081" />
      <stop
         offset="1"
         stop-color="#fff"
         id="stop144083" />
    </linearGradient>
    <linearGradient
       id="linear-gradient-5"
       x1="36.46"
       y1="30.25"
       x2="29.34"
       y2="30.61"
       gradientUnits="userSpaceOnUse">
      <stop
         offset="0"
         stop-color="#5c6262"
         id="stop144086" />
      <stop
         offset="1"
         stop-color="#e3e6e1"
         stop-opacity="0"
         id="stop144088" />
    </linearGradient>
    <linearGradient
       id="linear-gradient-6"
       x1="38.79"
       y1="32.67"
       x2="17.75"
       y2="35.78"
       xlink:href="#linear-gradient" />
    <linearGradient
       id="linear-gradient-7"
       x1="40.73"
       y1="30.57"
       x2="40.83"
       y2="30.57"
       xlink:href="#linear-gradient" />
    <linearGradient
       id="linear-gradient-8"
       x1="19.07"
       y1="29.99"
       x2="22.45"
       y2="20.95"
       xlink:href="#linear-gradient" />
    <linearGradient
       id="linear-gradient-9"
       x1="20.79"
       y1="16.55"
       x2="22.43"
       y2="33.18"
       gradientUnits="userSpaceOnUse">
      <stop
         offset="0.03"
         stop-color="#888a85"
         id="stop144094" />
      <stop
         offset="1"
         stop-color="#eeeeec"
         stop-opacity="0"
         id="stop144096" />
    </linearGradient>
    <linearGradient
       id="linear-gradient-10"
       x1="20.68"
       y1="24.26"
       x2="10.37"
       y2="21.95"
       gradientUnits="userSpaceOnUse">
      <stop
         offset="0.05"
         stop-color="#fff"
         stop-opacity="0"
         id="stop144099" />
      <stop
         offset="0.69"
         stop-color="snow"
         id="stop144101" />
    </linearGradient>
    <linearGradient
       id="linear-gradient-11"
       x1="19.75"
       y1="23.42"
       x2="34.8"
       y2="28.11"
       gradientUnits="userSpaceOnUse">
      <stop
         offset="0"
         stop-color="#babdb6"
         id="stop144104" />
      <stop
         offset="0.24"
         stop-color="#5c6262"
         id="stop144106" />
      <stop
         offset="1"
         stop-color="#e3e6e1"
         id="stop144108" />
    </linearGradient>
    <linearGradient
       id="linear-gradient-12"
       x1="30.34"
       y1="31.8"
       x2="28.53"
       y2="29.46"
       gradientUnits="userSpaceOnUse">
      <stop
         offset="0.05"
         stop-color="#fff"
         stop-opacity="0"
         id="stop144111" />
      <stop
         offset="0.69"
         stop-color="#fff"
         id="stop144113" />
    </linearGradient>
    <linearGradient
       id="linear-gradient-13"
       x1="30.83"
       y1="29.42"
       x2="30.08"
       y2="28.57"
       gradientTransform="rotate(-14.76,31.789649,29.120344)"
       xlink:href="#linear-gradient-10" />
    <linearGradient
       id="linear-gradient-14"
       x1="12.63"
       y1="14.47"
       x2="13.17"
       y2="23.94"
       xlink:href="#linear-gradient-9" />
    <linearGradient
       id="linear-gradient-15"
       x1="7.94"
       y1="20.39"
       x2="38.16"
       y2="7.28"
       xlink:href="#linear-gradient-11" />
    <linearGradient
       id="linear-gradient-16"
       x1="8.16"
       y1="15.18"
       x2="17.7"
       y2="15.18"
       xlink:href="#linear-gradient-2" />
    <linearGradient
       id="linear-gradient-17"
       x1="13.3"
       y1="13.68"
       x2="12.76"
       y2="16.84"
       gradientTransform="matrix(1,-0.02,0.02,1,-0.25,0.28)"
       xlink:href="#linear-gradient-2" />
    <linearGradient
       id="linear-gradient-18"
       x1="12.86"
       y1="15.6"
       x2="14.03"
       y2="10.28"
       xlink:href="#linear-gradient-2" />
    <linearGradient
       id="linear-gradient-19"
       x1="9.81"
       y1="19.1"
       x2="9.56"
       y2="17.36"
       xlink:href="#linear-gradient-9" />
    <linearGradient
       id="linear-gradient-20"
       x1="14.44"
       y1="19.02"
       x2="13.97"
       y2="17.03"
       gradientTransform="matrix(0.98,-0.06,0,1,0.47,1.35)"
       xlink:href="#linear-gradient-2" />
    <linearGradient
       id="linear-gradient-21"
       x1="24.22"
       y1="27.4"
       x2="19.6"
       y2="18.59"
       xlink:href="#linear-gradient-2" />
    <linearGradient
       id="linear-gradient-22"
       x1="24.27"
       y1="21.24"
       x2="20.13"
       y2="26.12"
       gradientUnits="userSpaceOnUse">
      <stop
         offset="0"
         stop-color="#5c6262"
         id="stop144125" />
      <stop
         offset="0.03"
         stop-color="#888a85"
         id="stop144127" />
      <stop
         offset="1"
         stop-color="#eeeeec"
         stop-opacity="0"
         id="stop144129" />
    </linearGradient>
    <linearGradient
       id="linear-gradient-23"
       x1="21.89"
       y1="26.78"
       x2="21.11"
       y2="22.77"
       xlink:href="#linear-gradient-2" />
    <linearGradient
       id="linear-gradient-24"
       x1="24.67"
       y1="22.85"
       x2="23.7"
       y2="21.03"
       xlink:href="#linear-gradient-2" />
    <linearGradient
       id="linear-gradient-25"
       x1="24.77"
       y1="23.2"
       x2="24.3"
       y2="22.71"
       xlink:href="#linear-gradient-2" />
    <linearGradient
       id="linear-gradient-26"
       x1="19.13"
       y1="23.32"
       x2="18.65"
       y2="22.11"
       xlink:href="#linear-gradient-12" />
    <linearGradient
       id="linear-gradient-27"
       x1="23.73"
       y1="20.61"
       x2="23.17"
       y2="19.13"
       xlink:href="#linear-gradient-12" />
    <linearGradient
       id="linear-gradient-28"
       x1="13.72"
       y1="11.33"
       x2="12.22"
       y2="9.7"
       xlink:href="#linear-gradient-12" />
    <linearGradient
       id="linear-gradient-29"
       x1="15.64"
       y1="12.76"
       x2="12.99"
       y2="12.11"
       xlink:href="#linear-gradient-9" />
    <linearGradient
       id="linear-gradient-30"
       x1="14.66"
       y1="13.3"
       x2="15.93"
       y2="12.75"
       xlink:href="#linear-gradient-9" />
    <linearGradient
       id="linear-gradient-31"
       x1="11.92"
       y1="17.57"
       x2="9.81"
       y2="14.41"
       xlink:href="#linear-gradient-12" />
    <linearGradient
       id="linear-gradient-32"
       x1="15.91"
       y1="16.9"
       x2="14.34"
       y2="14.55"
       xlink:href="#linear-gradient-12" />
    <linearGradient
       id="linear-gradient-33"
       x1="24.07"
       y1="21.88"
       x2="23.79"
       y2="22.49"
       gradientUnits="userSpaceOnUse">
      <stop
         offset="0.23"
         stop-color="#5c6262"
         id="stop144142" />
      <stop
         offset="1"
         stop-color="#e3e6e1"
         id="stop144144" />
    </linearGradient>
    <linearGradient
       id="linear-gradient-34"
       x1="33.62"
       y1="30.16"
       x2="30.87"
       y2="30.65"
       xlink:href="#linear-gradient-2" />
    <linearGradient
       id="linear-gradient-35"
       x1="13.71"
       y1="12.02"
       x2="13.74"
       y2="14.02"
       gradientTransform="matrix(1, -0.09, 0, 1, 0, 1.31)"
       gradientUnits="userSpaceOnUse">
      <stop
         offset="0"
         stop-color="#555753"
         id="stop144148" />
      <stop
         offset="1"
         stop-color="#eeeeec"
         stop-opacity="0"
         id="stop144150" />
    </linearGradient>
    <linearGradient
       id="linear-gradient-36"
       x1="15.1"
       y1="11.97"
       x2="15.13"
       y2="13.84"
       xlink:href="#linear-gradient-35" />
    <radialGradient
       inkscape:collect="always"
       xlink:href="#radial-gradient"
       id="radialGradient144708"
       gradientUnits="userSpaceOnUse"
       gradientTransform="matrix(1.5567619,0,0,0.68108334,-19.466586,74.39661)"
       cx="27"
       cy="-71.27"
       r="12.19" />
    <linearGradient
       inkscape:collect="always"
       xlink:href="#linear-gradient"
       id="linearGradient144710"
       gradientUnits="userSpaceOnUse"
       x1="13.52"
       y1="32.37"
       x2="12.4"
       y2="14.91" />
    <linearGradient
       inkscape:collect="always"
       xlink:href="#linear-gradient-2"
       id="linearGradient144712"
       gradientUnits="userSpaceOnUse"
       x1="27.81"
       y1="41.52"
       x2="32.3"
       y2="29.11" />
    <linearGradient
       inkscape:collect="always"
       xlink:href="#linear-gradient-9"
       id="linearGradient144714"
       gradientUnits="userSpaceOnUse"
       x1="20.79"
       y1="16.55"
       x2="22.43"
       y2="33.18" />
    <linearGradient
       inkscape:collect="always"
       xlink:href="#linear-gradient-10"
       id="linearGradient144716"
       gradientUnits="userSpaceOnUse"
       x1="20.68"
       y1="24.26"
       x2="10.37"
       y2="21.95" />
    <linearGradient
       inkscape:collect="always"
       xlink:href="#linear-gradient-11"
       id="linearGradient144718"
       gradientUnits="userSpaceOnUse"
       x1="19.75"
       y1="23.42"
       x2="34.8"
       y2="28.11" />
    <linearGradient
       inkscape:collect="always"
       xlink:href="#linear-gradient-12"
       id="linearGradient144720"
       gradientUnits="userSpaceOnUse"
       x1="30.34"
       y1="31.8"
       x2="28.53"
       y2="29.46" />
    <linearGradient
       inkscape:collect="always"
       xlink:href="#linear-gradient-35"
       id="linearGradient144722"
       gradientUnits="userSpaceOnUse"
       gradientTransform="matrix(1,-0.09,0,1,0,1.31)"
       x1="13.71"
       y1="12.02"
       x2="13.74"
       y2="14.02" />
  </defs>
  <title
     id="title144156">12-RBD Deforming_to_Animated</title>
  <ellipse
     class="cls-3"
     cx="32.034302"
     cy="38.146278"
     rx="16.219244"
     ry="9.8505716"
     id="ellipse144160"
     style="isolation:isolate;fill:url(#radial-gradient-2);stroke-width:1.24976" />
  <ellipse
     class="cls-2"
     cx="22.695715"
     cy="26.088341"
     rx="18.291952"
     ry="7.978405"
     id="ellipse144158"
     style="isolation:isolate;fill:url(#radialGradient144708);stroke-width:1.62163" />
  <ellipse
     class="cls-4"
     cx="16.151632"
     cy="16.481718"
     rx="16.00514"
     ry="6.9807911"
     id="ellipse144162"
     style="isolation:isolate;fill:url(#radial-gradient-3);stroke-width:1.63485" />
  <g
     id="g145516"
     transform="matrix(1.467742,0,0,1.4688059,-12.289362,-10.00412)"
     style="stroke-width:0.952976">
    <path
       class="cls-7"
       d="m 40.83,30.88 a 2.67,2.67 0 0 0 -0.1,-0.62 c -0.8,-2.49 -5.65,-4 -10.85,-3.28 a 16.65,16.65 0 0 0 -3.95,1 11.62,11.62 0 0 0 -1.06,0.48 6.47,6.47 0 0 0 -0.69,0.38 c -0.18,0.11 -0.35,0.22 -0.51,0.34 a 5.37,5.37 0 0 0 -0.45,0.35 c -0.14,0.12 -0.27,0.25 -0.39,0.37 -0.12,0.12 -0.23,0.25 -0.33,0.38 a 4.56,4.56 0 0 0 -0.27,0.39 1.28,1.28 0 0 0 -0.11,0.2 2.13,2.13 0 0 0 -0.26,0.77 4.53,4.53 0 0 0 0.07,1.76 c 0.79,2.49 5.65,4 10.84,3.28 A 17,17 0 0 0 36,36 a 11.89,11.89 0 0 0 2.54,-1.16 5.88,5.88 0 0 0 1.67,-1.47 3.25,3.25 0 0 0 0.6,-1.4 7.2,7.2 0 0 0 0.02,-1.09 z"
       id="path144167"
       style="isolation:isolate;fill:url(#linearGradient144712);stroke-width:0.952976" />
    <path
       class="cls-8"
       d="m 40.8,31.91 a 3.2,3.2 0 0 1 -0.59,1.41 6.4,6.4 0 0 1 -1.68,1.47 q -0.42,0.26 -0.87,0.48 a 17,17 0 0 1 -5.22,0.24 c 3.81,-0.5 5.81,-1.69 6.89,-2.72 a 2.6,2.6 0 0 0 0,-3.61 c -1,-1.17 -4.28,-2.08 -4.9,-2.24 3.21,0.37 5.71,1.59 6.27,3.32 a 2.67,2.67 0 0 1 0.1,0.62 5.88,5.88 0 0 1 0,1.03 z"
       id="path144169"
       style="isolation:isolate;fill:url(#linear-gradient-3);stroke-width:0.952976" />
    <path
       class="cls-9"
       d="m 39.69,32.73 a 18.71,18.71 0 0 1 -2.47,2.74 v 0 c -0.4,0.18 -0.81,0.33 -1.22,0.47 a 17.65,17.65 0 0 1 -3.22,0.72 C 27.59,37.34 22.73,35.87 21.94,33.38 a 4.39,4.39 0 0 1 -0.08,-1.77 2.39,2.39 0 0 1 0.27,-0.76 1.28,1.28 0 0 1 0.11,-0.2 4.56,4.56 0 0 1 0.27,-0.39 c 0.1,-0.13 0.21,-0.25 0.33,-0.38 0.12,-0.13 0.25,-0.25 0.39,-0.37 a 5.37,5.37 0 0 1 0.45,-0.35 c 0.16,-0.12 0.33,-0.23 0.51,-0.34 a 6.47,6.47 0 0 1 0.69,-0.38 11.62,11.62 0 0 1 1.05,-0.44 10,10 0 0 1 1,-0.35 l -0.05,0.06 c -0.55,0.19 -0.71,0.62 -1.55,1.12 a 7.64,7.64 0 0 0 -2.62,2.1 2.21,2.21 0 0 0 0.52,3.07 c 1.36,1.16 5.25,2.22 9.91,1.59 C 37.51,35 39.46,33 39.69,32.73 Z"
       id="path144171"
       style="isolation:isolate;fill:url(#linear-gradient-4);stroke-width:0.952976" />
    <path
       class="cls-10"
       d="m 32.18,31.72 a 6.84,6.84 0 0 1 -2.56,0.27 c 1,-0.45 0.24,-1.71 0.38,-2.23 a 0.9,0.9 0 0 1 1,-0.7 1.64,1.64 0 0 1 0.44,0.22 c 0.4,0.26 0.63,1 1.4,1.25 0.77,0.25 0.32,0.87 -0.66,1.19 z"
       id="path144173"
       style="isolation:isolate;fill:url(#linear-gradient-5);stroke-width:0.952976" />
    <path
       class="cls-11"
       d="m 40.84,31 v 0.72 c -0.06,2.24 -3.4,4.37 -8.06,5 -5.19,0.68 -10.05,-0.79 -10.84,-3.28 a 2.05,2.05 0 0 1 -0.1,-0.54 0.45,0.45 0 0 1 0,-0.12 v -0.67 a 2.17,2.17 0 0 0 0.11,0.66 c 0.79,2.49 5.65,4 10.84,3.28 4.68,-0.67 8.05,-2.83 8.05,-5.05 z"
       id="path144175"
       style="isolation:isolate;fill:url(#linear-gradient-6);stroke-width:0.952976" />
    <path
       class="cls-12"
       d="m 40.83,30.88 a 2.67,2.67 0 0 0 -0.1,-0.62 1.87,1.87 0 0 1 0.1,0.62 z"
       id="path144177"
       style="isolation:isolate;fill:url(#linear-gradient-7);stroke-width:0.952976" />
    <path
       class="cls-17"
       d="m 31.06,29 c -1.09,-0.1 -1.84,1 -2.5,1.41 a 1.64,1.64 0 0 1 -1.12,0.28 3.19,3.19 0 0 0 1.72,-1.14 2.49,2.49 0 0 1 1.79,-1 c 0.88,0 1.42,0.71 2.14,1.17 a 2.44,2.44 0 0 0 1.79,0.16 c 0,0 -0.09,0.44 -1.32,0.35 -1.23,-0.09 -1.27,-1.11 -2.5,-1.23 z"
       id="path144187"
       style="isolation:isolate;stroke-width:0.952976" />
    <path
       class="cls-18"
       d="m 29.78,29.55 a 10.9,10.9 0 0 1 -1.35,1.17 c -0.65,0.27 0.47,1.22 1.81,1.14 1.34,-0.08 1.22,-0.9 0.66,-1.19 -0.56,-0.29 -1.09,-0.61 -1.12,-1.12 z"
       id="path144189"
       style="isolation:isolate;fill:url(#linearGradient144720);stroke-width:0.952976" />
    <path
       class="cls-20"
       d="m 30.45,29.25 c -0.29,0.11 -0.35,0.34 -0.11,0.37 a 0.84,0.84 0 0 0 0.64,-0.24 C 31.1,29.25 30.8,29.12 30.45,29.25 Z"
       id="path144193"
       style="isolation:isolate;fill:url(#linear-gradient-13);stroke-width:0.952976" />
    <path
       class="cls-19"
       d="m 40.86,30.88 a 3,3 0 0 0 -0.54,-1.41 6,6 0 0 0 -2.94,-1.89 16.55,16.55 0 0 0 -7.5,-0.6 16.65,16.65 0 0 0 -3.95,1 9.73,9.73 0 0 0 -2.71,1.55 c -0.14,0.12 -0.27,0.25 -0.39,0.37 -0.12,0.12 -0.23,0.25 -0.33,0.38 a 3.49,3.49 0 0 0 -0.57,3.12 c 0.79,2.49 5.65,4 10.84,3.28 A 17,17 0 0 0 36,36 a 11.89,11.89 0 0 0 2.54,-1.16 5.88,5.88 0 0 0 1.67,-1.47 3.51,3.51 0 0 0 0.65,-2.49 z"
       id="path144233"
       style="isolation:isolate" />
    <path
       class="cls-41"
       d="m 31.46,29.28 a 8,8 0 0 1 0.8,0.69 4.92,4.92 0 0 0 1.08,0.63 c 0.14,0.07 0.13,0.56 -0.92,1 0,0 0.46,-0.38 0.18,-0.75 a 9.6,9.6 0 0 0 -1.14,-1.57 z"
       id="path144249"
       style="isolation:isolate;fill:url(#linear-gradient-34);stroke-width:0.952976" />
    <g
       class="cls-5"
       id="g144487"
       style="isolation:isolate;stroke-width:0.952976">
      <path
         class="cls-42"
         d="m 37.16,31.15 v 0 0 c 0,0 0,0 0,0 0,0 0,0 0,0 0,0 0,0 0,0 v 0 l 0.08,-0.06 c 0,0 -0.08,0.08 -0.08,0.06 z"
         id="path144251"
         style="stroke-width:0.952976" />
      <path
         class="cls-42"
         d="m 34.26,30.12 h 0.05 A 0.11,0.11 0 0 0 34.37,30 c -0.06,0.05 -0.1,0.08 -0.11,0.12 z"
         id="path144253"
         style="stroke-width:0.952976" />
      <path
         class="cls-42"
         d="m 39.05,29.75 v 0 c 0,-0.07 0.09,-0.13 0.06,-0.2 -0.03,-0.07 0,0 0,0 a 0.64,0.64 0 0 1 0,-0.07 c 0,0 0.06,0 0,-0.06 -0.06,-0.06 -0.12,0.05 -0.19,0.06 a 1.28,1.28 0 0 0 -0.07,0.21 c 0,0.05 0,0.08 0,0.12 a 0.10440307,0.10440307 0 0 0 0.2,-0.06 z"
         id="path144255"
         style="stroke-width:0.952976" />
      <path
         class="cls-42"
         d="m 38.8,30.89 a 0.14,0.14 0 0 0 -0.1,0.06 c 0,0 0,0 0,0 0,0 -0.1,0.06 -0.11,0.11 h 0.07 a 2.27,2.27 0 0 0 0.28,-0.21 c -0.11,0.04 -0.11,0.03 -0.14,0.04 z"
         id="path144257"
         style="stroke-width:0.952976" />
      <path
         class="cls-42"
         d="m 32.45,28.12 c -0.09,0 -0.07,0.09 -0.05,0.13 0.02,0.04 0.18,-0.08 0.27,-0.14 h -0.09 a 0.4,0.4 0 0 0 -0.13,0.01 z"
         id="path144259"
         style="stroke-width:0.952976" />
      <path
         class="cls-42"
         d="m 34.83,29.65 a 0.65,0.65 0 0 0 -0.23,0.24 l 0.11,-0.06 a 0.6,0.6 0 0 1 0.11,-0.06 c 0.07,0 0.08,-0.07 0.08,-0.1 z"
         id="path144261"
         style="stroke-width:0.952976" />
      <path
         class="cls-42"
         d="m 29.23,28.12 h 0.09 c 0.09,0 0.1,-0.07 0,-0.11 -0.1,-0.04 -0.09,0.06 -0.09,0.11 z"
         id="path144263"
         style="stroke-width:0.952976" />
      <path
         class="cls-42"
         d="m 39,28.8 c 0,0 0,0 0,0 a 0.6,0.6 0 0 0 -0.2,0 l 0.09,0.07 z"
         id="path144265"
         style="stroke-width:0.952976" />
      <path
         class="cls-42"
         d="m 31.07,28.39 c 0,0 -0.05,0 -0.05,0 0,0 0,0.05 -0.08,0.07 -0.08,0.02 0,0 0,0.06 a 0.12,0.12 0 0 0 0.09,0 l 0.07,-0.11 c 0,0 -0.03,-0.01 -0.03,-0.02 z"
         id="path144267"
         style="stroke-width:0.952976" />
      <path
         class="cls-42"
         d="m 37.89,30.86 a 0.08,0.08 0 0 0 0.08,0 c 0,0 0,0 0,-0.05 a 0.13,0.13 0 0 0 0,-0.05 h -0.1 c 0,0 0,0.09 0.02,0.1 z"
         id="path144269"
         style="stroke-width:0.952976" />
      <path
         class="cls-42"
         d="m 30.84,28.07 c -0.05,0.07 -0.05,0.07 0,0.12 0.05,0.05 0.09,-0.1 0,-0.12 z"
         id="path144271"
         style="stroke-width:0.952976" />
      <path
         class="cls-42"
         d="m 34.51,29.28 c 0,0 0,0 0.07,0 l 0.09,-0.06 c 0,0 -0.06,0 -0.1,0 -0.04,0 -0.06,0.03 -0.06,0.06 z"
         id="path144273"
         style="stroke-width:0.952976" />
      <path
         class="cls-42"
         d="M 35.11,27.93 A 0.13,0.13 0 0 0 35,28 a 0.14,0.14 0 0 0 0.12,0 c 0,0 0,0 -0.01,-0.07 z"
         id="path144275"
         style="stroke-width:0.952976" />
      <path
         class="cls-42"
         d="m 34.13,29 c 0,0 0,0.05 0,0.06 a 0.11,0.11 0 0 0 0.1,0 c 0,0 0,0 0,-0.05 0,-0.05 -0.07,-0.08 -0.1,-0.01 z"
         id="path144277"
         style="stroke-width:0.952976" />
      <path
         class="cls-42"
         d="m 36.55,28.79 0.1,-0.07 a 0.1,0.1 0 0 0 -0.12,0 z"
         id="path144279"
         style="stroke-width:0.952976" />
      <path
         class="cls-42"
         d="m 34.72,30.11 c 0,0 0,-0.05 0,-0.06 a 0.11,0.11 0 0 0 -0.07,0.06 c 0,0 0,0 0,0 0,0 0.07,0.02 0.07,0 z"
         id="path144281"
         style="stroke-width:0.952976" />
      <path
         class="cls-42"
         d="m 32.33,28.49 h -0.1 c 0,0 0,0 0.05,0 0.05,0 0.05,0.05 0.05,0 z"
         id="path144283"
         style="stroke-width:0.952976" />
      <path
         class="cls-42"
         d="m 31.24,27.2 v 0 c 0,0 0,0 0,0 h 0.06 z"
         id="path144285"
         style="stroke-width:0.952976" />
      <path
         class="cls-42"
         d="m 34.19,29.38 v 0 0 c 0,0 0.03,0.01 0,0 z"
         id="path144287"
         style="stroke-width:0.952976" />
      <path
         class="cls-42"
         d="m 34,28.63 v 0 c 0,0 0,0 0,0 z"
         id="path144289"
         style="stroke-width:0.952976" />
      <path
         class="cls-42"
         d="m 36.49,30.46 h -0.06 v 0 0 0 z"
         id="path144291"
         style="stroke-width:0.952976" />
      <path
         class="cls-42"
         d="M 36.08,28.42 Z"
         id="path144293"
         style="stroke-width:0.952976" />
      <path
         class="cls-42"
         d="M 37.14,29 Z"
         id="path144295"
         style="stroke-width:0.952976" />
      <path
         class="cls-42"
         d="m 27.63,31.11 h -0.14 v 0 a 0.09,0.09 0 0 0 -0.07,0 c -0.06,0 -0.07,0.08 0,0.11 0.07,0.03 0,0 0.07,0 h 0.07 c 0,0 0.06,0 0.07,0 a 0.27,0.27 0 0 1 0.08,-0.07 c 0,0 -0.05,-0.03 -0.08,-0.04 z"
         id="path144297"
         style="stroke-width:0.952976" />
      <path
         class="cls-42"
         d="m 29.84,30.54 a 0.13,0.13 0 0 1 0,-0.07 c 0,0 0,0 0,-0.06 v 0 l -0.16,0.05 c 0,0 -0.08,0 -0.09,0.07 a 0.13,0.13 0 0 1 -0.06,0.07 v 0 c 0,0.05 0,0.06 0.15,0 v 0 l 0.11,-0.05 a 0.15,0.15 0 0 0 0.05,-0.01 z"
         id="path144299"
         style="stroke-width:0.952976" />
      <path
         class="cls-42"
         d="m 24.3,30.68 c 0,0 0,0 0,-0.07 0,-0.07 0,0 0,0 a 1.36,1.36 0 0 1 -0.2,0 c 0,0 0,0 -0.05,0 v 0 c 0,0.05 0,0.05 0,0.09 a 0.23,0.23 0 0 0 0,0.14 c 0,0 0,0 0.08,0 a 0.3,0.3 0 0 0 0.11,-0.07 c 0,0 0.07,-0.07 0.06,-0.09 z"
         id="path144301"
         style="stroke-width:0.952976" />
      <path
         class="cls-42"
         d="m 36.09,31.13 h -0.07 a 0.26,0.26 0 0 0 -0.13,0.25 v 0 a 0.27,0.27 0 0 0 0.17,-0.06 l 0.27,-0.21 c 0.06,0 0.06,-0.09 0,-0.12 a 0.27,0.27 0 0 0 -0.16,0 0.43,0.43 0 0 1 -0.08,0.14 z"
         id="path144303"
         style="stroke-width:0.952976" />
      <path
         class="cls-42"
         d="m 25.75,35.31 a 0.59,0.59 0 0 0 -0.23,0 c 0,0 -0.05,0 -0.05,0 a 0.34,0.34 0 0 0 0,0.1 v 0 l 0.19,-0.1 0.06,-0.05 c 0,0 0.06,0.06 0.03,0.05 z"
         id="path144305"
         style="stroke-width:0.952976" />
      <path
         class="cls-42"
         d="m 23.56,31.67 v 0.06 0 0 h 0.21 v -0.11 c 0,0 0.07,-0.05 0.08,-0.08 a 0.07,0.07 0 0 0 -0.09,0 0.34,0.34 0 0 1 -0.22,0.12 z"
         id="path144307"
         style="stroke-width:0.952976" />
      <path
         class="cls-42"
         d="m 37.83,32.59 a 0.37,0.37 0 0 1 0.05,0.11 c 0,0 0.07,0 0.07,0 0,0 0,-0.05 0,-0.08 0,-0.03 0,-0.08 0.05,-0.12 v 0 0 c -0.12,-0.06 -0.21,0.01 -0.17,0.09 z"
         id="path144309"
         style="stroke-width:0.952976" />
      <path
         class="cls-42"
         d="m 24.79,34.06 h -0.1 c 0,0 -0.1,0.08 -0.08,0.14 a 0.42,0.42 0 0 0 0.13,0 1.1,1.1 0 0 0 0.18,-0.14 0.56,0.56 0 0 0 -0.13,0 z"
         id="path144311"
         style="stroke-width:0.952976" />
      <path
         class="cls-42"
         d="m 26.33,36.23 c 0,0 0.06,0 0.07,0 0.01,0 0.07,0 0.08,-0.07 0.01,-0.07 0,0 0,-0.08 H 26.4 c -0.05,0 -0.08,0 -0.08,0.06 a 0.19,0.19 0 0 0 0,0.07 c 0,0 -0.02,0.02 0.01,0.02 z"
         id="path144313"
         style="stroke-width:0.952976" />
      <path
         class="cls-42"
         d="m 27.82,28.29 0.06,-0.09 h 0.13 c 0,0 0.06,-0.05 0,-0.06 -0.06,-0.01 -0.05,0 -0.08,0 l -0.21,0.1 c 0,0 0,0 0,0 v 0.06 z"
         id="path144315"
         style="stroke-width:0.952976" />
      <path
         class="cls-42"
         d="m 26.72,36 v 0.05 c 0,0 0,0 0.05,0.09 a 0.21,0.21 0 0 0 0.14,-0.07 c 0,0 0,-0.06 0,-0.09 z"
         id="path144317"
         style="stroke-width:0.952976" />
      <path
         class="cls-42"
         d="m 23.05,32.91 c 0,0 0,0 0,0 v 0 c -0.12,0 -0.2,0.08 -0.19,0.15 h 0.05 z"
         id="path144319"
         style="stroke-width:0.952976" />
      <path
         class="cls-42"
         d="m 31.83,35 v 0 a 0.12,0.12 0 0 0 0.08,0 c 0,0 0,0 0,0 h -0.06 -0.14 c -0.06,0 -0.11,0 -0.12,0.07 v 0 A 0.33,0.33 0 0 1 31.83,35 Z"
         id="path144321"
         style="stroke-width:0.952976" />
      <path
         class="cls-42"
         d="m 37.31,34.2 a 0.19,0.19 0 0 0 -0.13,0 0.08,0.08 0 0 0 -0.06,0.05 c 0,0 0,0 0.07,0 a 0.21,0.21 0 0 0 0.15,0 c 0,0 0.02,-0.04 -0.03,-0.05 z"
         id="path144323"
         style="stroke-width:0.952976" />
      <path
         class="cls-42"
         d="m 24.37,34.08 c 0,0 0,0 0,-0.08 h -0.16 v 0 c 0,0 0,0 0.06,0 a 0.26,0.26 0 0 0 0.1,0.08 z"
         id="path144325"
         style="stroke-width:0.952976" />
      <path
         class="cls-42"
         d="m 23.06,33.52 c -0.07,0 -0.12,0 -0.14,0 a 0.22,0.22 0 0 1 -0.13,0.09 c 0,0 0,0 0,0 0,0 0.1,0 0.12,0 a 0.59,0.59 0 0 0 0.15,-0.09 z"
         id="path144327"
         style="stroke-width:0.952976" />
      <path
         class="cls-42"
         d="m 33.41,31.53 c 0,0 0.05,-0.08 0.12,-0.11 0.07,-0.03 0,0 0,0 0,0 0,0 0,0 l -0.14,0.09 c -0.07,0.05 -0.07,0.06 0,0.1 z"
         id="path144329"
         style="stroke-width:0.952976" />
      <path
         class="cls-42"
         d="m 32.29,31.94 c -0.06,0 -0.09,0.08 0,0.11 a 0.25,0.25 0 0 0 0.12,0 c 0,0 0.09,-0.06 0.08,-0.1 a 0.2,0.2 0 0 0 -0.2,-0.01 z"
         id="path144331"
         style="stroke-width:0.952976" />
      <path
         class="cls-42"
         d="m 40,31.09 a 0.22,0.22 0 0 0 0.17,0 c 0,0 0,0 0,-0.07 H 40.09 C 40,31 40,31 40,31.07 c 0,0.07 0,0.01 0,0.02 z"
         id="path144333"
         style="stroke-width:0.952976" />
      <path
         class="cls-42"
         d="m 39.93,31.48 c 0,-0.05 0,-0.11 0,-0.16 a 0.22,0.22 0 0 0 -0.07,0.06 c 0,0 -0.06,0.08 0,0.11 0.06,0.03 0,0 0.05,0 0.05,0 0.02,0 0.02,-0.01 z"
         id="path144335"
         style="stroke-width:0.952976" />
      <path
         class="cls-42"
         d="m 39.45,31.38 a 0.1,0.1 0 0 0 -0.13,0.05 c 0,0 0,0.05 0,0.07 v 0 h 0.1 v -0.08 z"
         id="path144337"
         style="stroke-width:0.952976" />
      <path
         class="cls-42"
         d="m 28,31.11 h -0.09 c 0,0 0,0.05 0,0.07 a 0.22,0.22 0 0 0 0.13,-0.05 c 0,0 0.03,-0.01 -0.04,-0.02 z"
         id="path144339"
         style="stroke-width:0.952976" />
      <path
         class="cls-42"
         d="m 28.24,33.89 h -0.08 a 0.46,0.46 0 0 0 -0.07,0.07 c 0,0 0,0 0,0 v 0 h 0.05 l 0.09,-0.11 z"
         id="path144341"
         style="stroke-width:0.952976" />
      <path
         class="cls-42"
         d="m 28.3,31.51 v 0 a 0.21,0.21 0 0 0 -0.08,0.06 0.37,0.37 0 0 0 0.25,0 0.31,0.31 0 0 0 -0.17,-0.06 z"
         id="path144343"
         style="stroke-width:0.952976" />
      <path
         class="cls-42"
         d="m 27.93,32.09 c 0.08,0 0.09,-0.06 0.1,-0.09 0.01,-0.03 0,0 -0.06,0 h -0.06 c -0.05,0 -0.06,0 0,0.07 z"
         id="path144345"
         style="stroke-width:0.952976" />
      <path
         class="cls-42"
         d="m 27,31.5 -0.1,0.08 v 0 c 0,0 0.11,0 0.16,0 0.05,0 -0.06,-0.06 -0.06,-0.08 z"
         id="path144347"
         style="stroke-width:0.952976" />
      <path
         class="cls-42"
         d="m 25.85,34.2 v 0 c 0,0 -0.08,0 -0.11,0 -0.03,0 0,0.05 0,0.06 v 0 c 0.11,0 0.15,-0.03 0.11,-0.06 z"
         id="path144349"
         style="stroke-width:0.952976" />
      <path
         class="cls-42"
         d="m 32.92,31.12 a 0.17,0.17 0 0 0 -0.1,0 c 0,0 0,0.06 0,0.07 a 0.17,0.17 0 0 0 0.12,0 c 0,0 0.06,-0.06 -0.02,-0.07 z"
         id="path144351"
         style="stroke-width:0.952976" />
      <path
         class="cls-42"
         d="m 29.92,35.19 c 0,0 0,0 0,0 a 0.11,0.11 0 0 0 0.1,0 v 0 0 0 a 0.12,0.12 0 0 0 -0.1,0 z"
         id="path144353"
         style="stroke-width:0.952976" />
      <path
         class="cls-42"
         d="m 39.79,31.78 c 0,0 0,0 0,0 h -0.14 c 0,0.06 0,0.07 0.06,0.06 a 0.1,0.1 0 0 0 0.08,-0.06 z"
         id="path144355"
         style="stroke-width:0.952976" />
      <path
         class="cls-42"
         d="m 29.6,30.88 c 0,0 0,0 0,0 h 0.07 0.1 c -0.03,-0.04 -0.03,-0.04 -0.17,0 z"
         id="path144357"
         style="stroke-width:0.952976" />
      <path
         class="cls-42"
         d="m 30.64,35.88 c -0.06,0 -0.1,0 -0.1,0 0.08,0 0.08,0 0.14,-0.06 z"
         id="path144359"
         style="stroke-width:0.952976" />
      <path
         class="cls-42"
         d="m 29,29.8 h 0.09 c 0,0 0.07,0 0.07,-0.07 v 0 c 0,0 -0.16,0.01 -0.16,0.07 z"
         id="path144361"
         style="stroke-width:0.952976" />
      <path
         class="cls-42"
         d="M 27.33,29.17 H 27.25 27.2 c 0,0 0,0.07 0,0.11 0,0.04 0.07,0 0.08,-0.06 0.01,-0.06 0.06,-0.03 0.05,-0.05 z"
         id="path144363"
         style="stroke-width:0.952976" />
      <path
         class="cls-42"
         d="m 30.27,32 c 0,0 0.06,0 0.06,0 0,0 0,-0.05 0,-0.06 A 0.12,0.12 0 0 0 30.24,32 c 0,0 -0.01,0 0.03,0 z"
         id="path144365"
         style="stroke-width:0.952976" />
      <path
         class="cls-42"
         d="m 27.55,31.43 a 0.25,0.25 0 0 0 -0.15,0 v 0 h 0.07 c 0,0 0.08,0.03 0.08,0 z"
         id="path144367"
         style="stroke-width:0.952976" />
      <path
         class="cls-42"
         d="m 25.77,34.12 a 0.11,0.11 0 0 0 -0.11,0 0.14,0.14 0 0 0 0.12,0 c 0,0 0,0 -0.01,0 z"
         id="path144369"
         style="stroke-width:0.952976" />
      <path
         class="cls-42"
         d="m 25.74,30.1 h 0.15 c 0,0 0.07,-0.08 0,-0.09 l -0.15,0.11 z"
         id="path144371"
         style="stroke-width:0.952976" />
      <path
         class="cls-42"
         d="m 22.86,32.42 h -0.07 c 0,0 0,0 0,0 h 0.09 z"
         id="path144373"
         style="stroke-width:0.952976" />
      <path
         class="cls-42"
         d="m 34.07,34.59 c 0,0 0,-0.07 -0.09,-0.08 v 0.08 c 0,0 0.02,0.02 0.09,0 z"
         id="path144375"
         style="stroke-width:0.952976" />
      <path
         class="cls-42"
         d="m 22.88,33.44 h -0.09 c 0,0.06 0,0.06 0,0.09 z"
         id="path144377"
         style="stroke-width:0.952976" />
      <path
         class="cls-42"
         d="m 28.14,32.52 c 0,0 0,0 0,-0.06 0,-0.06 0,0 -0.08,0 -0.08,0 0,0.05 0.08,0.06 z"
         id="path144379"
         style="stroke-width:0.952976" />
      <path
         class="cls-42"
         d="m 27,28.75 a 0.11,0.11 0 0 0 -0.12,0 c 0,0 0,0 0,0.06 a 0.11,0.11 0 0 0 0.12,0 c 0,0 0,-0.05 0,-0.06 z"
         id="path144381"
         style="stroke-width:0.952976" />
      <path
         class="cls-42"
         d="m 28.65,32.24 h -0.07 c 0,0 0,0.06 0,0.07 h 0.05 c 0,0 0.04,-0.06 0.02,-0.07 z"
         id="path144383"
         style="stroke-width:0.952976" />
      <path
         class="cls-42"
         d="m 26.53,31.41 a 0.09,0.09 0 0 0 0.07,0 c 0,0 0,0 -0.08,0 -0.08,0 -0.03,0 0.01,0 z"
         id="path144385"
         style="stroke-width:0.952976" />
      <path
         class="cls-42"
         d="m 32.54,30.89 v -0.08 c 0,0 -0.08,0 -0.1,0 -0.02,0 0.03,0.06 0.1,0.08 z"
         id="path144387"
         style="stroke-width:0.952976" />
      <path
         class="cls-42"
         d="m 40.11,31.86 c 0,0 0,0 0,0 0,0 -0.08,0 -0.13,0 a 0.1,0.1 0 0 0 0.13,0 z"
         id="path144389"
         style="stroke-width:0.952976" />
      <path
         class="cls-42"
         d="m 26.67,33.47 c 0,0 0,0 0,0 h -0.1 v 0 z"
         id="path144391"
         style="stroke-width:0.952976" />
      <path
         class="cls-42"
         d="m 27.07,33.53 -0.11,0.08 c 0.09,-0.01 0.12,-0.03 0.11,-0.08 z"
         id="path144393"
         style="stroke-width:0.952976" />
      <path
         class="cls-42"
         d="m 34,32.47 v 0 c 0,0 0,0 0,0 v 0 c 0,0 0,0.01 0,0 z"
         id="path144395"
         style="stroke-width:0.952976" />
      <path
         class="cls-42"
         d="m 24.66,33.73 c 0,0 0.06,0 0.07,0 0.01,0 0,0 0,0 a 0.06,0.06 0 0 0 -0.07,0 c 0,0 0,0 0,0 z"
         id="path144397"
         style="stroke-width:0.952976" />
      <path
         class="cls-42"
         d="m 30.32,35.48 c 0,0 0,0 0.05,0 0.05,0 0,0 0,0 h -0.06 c 0,0 -0.02,0 0.01,0 z"
         id="path144399"
         style="stroke-width:0.952976" />
      <path
         class="cls-42"
         d="m 37.68,32.26 a 0.12,0.12 0 0 0 -0.12,0 c 0,0 0.05,0.06 0.12,0 z"
         id="path144401"
         style="stroke-width:0.952976" />
      <path
         class="cls-42"
         d="m 26.37,35.25 c 0.07,0 0.07,0 0,-0.07 -0.07,-0.07 -0.03,0.05 0,0.07 z"
         id="path144403"
         style="stroke-width:0.952976" />
      <path
         class="cls-42"
         d="m 27.05,31.64 c 0,0 0,0 0.08,0 0.08,0 0,0 -0.06,0 z"
         id="path144405"
         style="stroke-width:0.952976" />
      <path
         class="cls-42"
         d="m 24.43,31.21 h 0.08 c 0,0 0,0 0,0 v 0 z"
         id="path144407"
         style="stroke-width:0.952976" />
      <path
         class="cls-42"
         d="m 32.71,31.47 c 0,0.05 0,0.05 0,0 0,-0.05 0,0 0,0 0,0 0.06,-0.01 0,0 z"
         id="path144409"
         style="stroke-width:0.952976" />
      <path
         class="cls-42"
         d="m 39.13,31.63 v 0 h -0.06 v 0 c 0,0 0,0 0,0 z"
         id="path144411"
         style="stroke-width:0.952976" />
      <path
         class="cls-42"
         d="m 33.51,35.67 v 0 0 0 c 0,0 0.02,0.01 0,0 z"
         id="path144413"
         style="stroke-width:0.952976" />
      <path
         class="cls-42"
         d="m 38.6,31.84 h 0.05 -0.07 v 0 z"
         id="path144415"
         style="stroke-width:0.952976" />
      <path
         class="cls-42"
         d="m 24.67,35 a 0.07,0.07 0 0 0 0.06,0 c 0,0 0,0 0,0 h -0.1 z"
         id="path144417"
         style="stroke-width:0.952976" />
      <path
         class="cls-42"
         d="m 32.55,34.49 v 0 a 0.03,0 -180 0 0 0.06,0 c 0,0 0,0 0,0 0,0 0,0 -0.06,0 z"
         id="path144419"
         style="stroke-width:0.952976" />
      <path
         class="cls-42"
         d="m 29,36.19 c 0,0 0,0 0,0 0,0 -0.07,0 -0.07,0 z"
         id="path144421"
         style="stroke-width:0.952976" />
      <path
         class="cls-42"
         d="m 23.61,33.83 c 0,0 0.06,0 0.06,0 z"
         id="path144423"
         style="stroke-width:0.952976" />
      <path
         class="cls-42"
         d="m 30.59,31.61 h 0.05 v 0 h -0.09 c 0,0 0.01,0.01 0.04,0 z"
         id="path144425"
         style="stroke-width:0.952976" />
      <path
         class="cls-42"
         d="m 31.13,34.31 v 0 c -0.05,0 -0.05,0 0,0.06 h 0.05 c 0,0 -0.04,-0.05 -0.05,-0.06 z"
         id="path144427"
         style="stroke-width:0.952976" />
      <path
         class="cls-42"
         d="m 33.08,36.58 c 0,0 0,0 0,0 0,0 -0.06,0 -0.05,0 0.01,0 0.02,0.01 0.05,0 z"
         id="path144429"
         style="stroke-width:0.952976" />
      <path
         class="cls-42"
         d="m 34.37,32.71 c 0,0 0,0 0,0 v 0 0 c 0,0 0,0 0,0 z"
         id="path144431"
         style="stroke-width:0.952976" />
      <path
         class="cls-42"
         d="m 30.76,32.62 h -0.05 c 0,0 0,0 0,0 h 0.08 z"
         id="path144433"
         style="stroke-width:0.952976" />
      <path
         class="cls-42"
         d="m 32.81,34.23 h -0.06 c 0,0 0,0 0,0.05 0,0.05 0.07,-0.03 0.06,-0.05 z"
         id="path144435"
         style="stroke-width:0.952976" />
      <path
         class="cls-42"
         d="m 31,33.33 c 0,0 0,0 0.05,0 0.05,0 0,0 0,-0.05 0,-0.05 -0.05,0.03 -0.05,0.05 z"
         id="path144437"
         style="stroke-width:0.952976" />
      <path
         class="cls-42"
         d="m 23.2,32.15 c 0,0 0,0 0,0 v 0 c 0,0 0,0 0,0 z"
         id="path144439"
         style="stroke-width:0.952976" />
      <path
         class="cls-42"
         d="m 32.61,31.68 c 0,0 0,0 0,0 h -0.06 v 0 z"
         id="path144441"
         style="stroke-width:0.952976" />
      <path
         class="cls-42"
         d="m 29.7,35 a 0.28,0.28 0 0 0 -0.13,0 c 0.05,0 0.08,0.05 0.13,0 z"
         id="path144443"
         style="stroke-width:0.952976" />
      <path
         class="cls-42"
         d="m 35.59,32.44 h 0.07 a 0.06,0.06 0 0 0 -0.07,0 c 0,0 -0.01,0 0,0 z"
         id="path144445"
         style="stroke-width:0.952976" />
      <path
         class="cls-42"
         d="m 34.43,34.64 h -0.1 c 0.05,0.05 0.05,0.05 0.1,0 z"
         id="path144447"
         style="stroke-width:0.952976" />
      <path
         class="cls-42"
         d="m 31.2,35 c 0,0 0,0 0,0 h -0.06 v 0 z"
         id="path144449"
         style="stroke-width:0.952976" />
      <path
         class="cls-42"
         d="m 26.17,32.69 c 0,0 0,0 0,0 h 0.07 -0.05 z"
         id="path144451"
         style="stroke-width:0.952976" />
      <path
         class="cls-42"
         d="m 29.62,33 v 0 0 h 0.06 z"
         id="path144453"
         style="stroke-width:0.952976" />
      <path
         class="cls-42"
         d="m 29.23,31.94 v 0 a 0.025,0 -180 0 0 0.05,0 c 0,0 0,0 0,0 h -0.07 z"
         id="path144455"
         style="stroke-width:0.952976" />
      <path
         class="cls-42"
         d="m 37.06,33.42 c 0,0 -0.06,0 -0.06,0 v 0 z"
         id="path144457"
         style="stroke-width:0.952976" />
      <path
         class="cls-42"
         d="m 25.36,31.77 c 0,0 0,0 0,0 0,0 0,0 0,0 h 0.06 z"
         id="path144459"
         style="stroke-width:0.952976" />
      <path
         class="cls-42"
         d="m 31.76,36.09 v 0 H 31.7 v 0 h 0.05 z"
         id="path144461"
         style="stroke-width:0.952976" />
      <path
         class="cls-42"
         d="M 35.42,32.47 Z"
         id="path144463"
         style="stroke-width:0.952976" />
      <path
         class="cls-42"
         d="m 24.84,30.73 v 0 0 h 0.05 -0.05 c 0,0 0.01,0 0,0 z"
         id="path144465"
         style="stroke-width:0.952976" />
      <path
         class="cls-42"
         d="m 28.8,29 v 0 h -0.05 v 0 z"
         id="path144467"
         style="stroke-width:0.952976" />
      <path
         class="cls-42"
         d="m 31.62,34.67 v 0 0 0 c 0,0 0,-0.01 0,0 z"
         id="path144469"
         style="stroke-width:0.952976" />
      <path
         class="cls-42"
         d="m 29.4,31.87 h 0.05 v 0 z"
         id="path144471"
         style="stroke-width:0.952976" />
      <path
         class="cls-42"
         d="m 38.21,33 c 0,0 0,0 0.06,0 z"
         id="path144473"
         style="stroke-width:0.952976" />
      <path
         class="cls-42"
         d="m 36.11,32.94 v 0 c 0,0 0,0 0,0 v 0 c 0,0 -0.01,0 0,0 z"
         id="path144475"
         style="stroke-width:0.952976" />
      <path
         class="cls-42"
         d="M 27.79,30.83 Z"
         id="path144477"
         style="stroke-width:0.952976" />
      <path
         class="cls-42"
         d="M 33.07,31 Z"
         id="path144479"
         style="stroke-width:0.952976" />
      <path
         class="cls-42"
         d="m 26.9,29.83 c 0,0 0,0 0,0 z"
         id="path144481"
         style="stroke-width:0.952976" />
      <path
         class="cls-42"
         d="M 25.19,32 Z"
         id="path144483"
         style="stroke-width:0.952976" />
      <path
         class="cls-42"
         d="M 25.27,29.9 Z"
         id="path144485"
         style="stroke-width:0.952976" />
    </g>
  </g>
  <g
     id="g145314"
     transform="matrix(1.6348457,0,0,1.6348457,-8.8329178,-15.23099)">
    <path
       class="cls-6"
       d="m 18.9,18.26 a 0.92,0.92 0 0 1 -0.26,0.55 9.42,9.42 0 0 1 -3.19,1.36 c -0.66,0.2 -1.54,1.07 -2.16,1.24 C 11.34,21.97 11.06,21.17 9.77,20.64 8.92,20.29 8,20.14 7.14,19.82 A 1.83,1.83 0 0 1 6.64,19.56 C 6.1,19.15 6.37,18.26 6.72,17.81 a 3.62,3.62 0 0 1 1.58,-1.12 21.48,21.48 0 0 1 4.26,-1.09 10.85,10.85 0 0 1 3.69,0.23 5.4,5.4 0 0 1 1.93,0.71 2.44,2.44 0 0 1 0.58,0.66 1.76,1.76 0 0 1 0.14,1.06 z"
       id="path144165"
       style="isolation:isolate;fill:url(#linearGradient144710)" />
    <path
       class="cls-21"
       d="m 8.45,17.53 a 1.8,1.8 0 0 0 -0.73,0.54 c -0.33,0.42 0.07,0.81 0.74,1.08 1.14,0.47 2.35,0.26 3.52,0.5 a 3.21,3.21 0 0 0 1.3,0.13 2.62,2.62 0 0 0 0.64,-0.24 5.71,5.71 0 0 1 1,-0.43 10.22,10.22 0 0 0 2.31,-0.75 c 1.24,-0.63 0.94,-1.06 0.23,-1.28 a 56.78,56.78 0 0 0 -6.52,0.26 z"
       id="path144195"
       style="isolation:isolate;fill:url(#linear-gradient-14)" />
    <path
       class="cls-22"
       d="m 18.89,18.26 a 0.93,0.93 0 0 1 -0.25,0.55 9.42,9.42 0 0 1 -3.19,1.36 c -0.66,0.2 -1.54,1.07 -2.16,1.24 -1.95,0.56 -2.23,-0.24 -3.52,-0.77 a 31.18,31.18 0 0 1 -3,-1 0.77,0.77 0 0 1 -0.33,-0.31 1.54,1.54 0 0 1 0.18,-1.33 4.64,4.64 0 0 1 0.9,-0.82 2.47,2.47 0 0 0 -0.66,1 0.59,0.59 0 0 0 0.32,0.84 6.64,6.64 0 0 0 1.07,0.43 4.33,4.33 0 0 0 1,0.15 2.72,2.72 0 0 1 1.23,0.44 4.3,4.3 0 0 0 1.59,0.75 2.47,2.47 0 0 0 1.45,-0.29 c 0.45,-0.22 0.86,-0.51 1.3,-0.76 a 7.65,7.65 0 0 1 2,-0.79 3.39,3.39 0 0 0 1.48,-0.77 1.09,1.09 0 0 0 0.23,-0.29 0.94,0.94 0 0 0 0,-0.66 2.6,2.6 0 0 0 -0.28,-0.61 1.28,1.28 0 0 1 0.46,0.76 2,2 0 0 1 0.18,0.88 z"
       id="path144197"
       style="isolation:isolate;fill:url(#linear-gradient-15)" />
    <path
       class="cls-19"
       d="m 18.9,18.26 a 0.92,0.92 0 0 1 -0.26,0.55 9.42,9.42 0 0 1 -3.19,1.36 c -0.66,0.2 -1.54,1.07 -2.16,1.24 C 11.34,21.97 11.06,21.17 9.77,20.64 8.92,20.29 8,20.14 7.14,19.82 A 1.83,1.83 0 0 1 6.64,19.56 C 6.1,19.15 6.37,18.26 6.72,17.81 a 3.62,3.62 0 0 1 1.58,-1.12 21.48,21.48 0 0 1 4.26,-1.09 10.85,10.85 0 0 1 3.69,0.23 5.4,5.4 0 0 1 1.93,0.71 2.44,2.44 0 0 1 0.58,0.66 1.76,1.76 0 0 1 0.14,1.06 z"
       id="path144199"
       style="isolation:isolate" />
    <path
       class="cls-23"
       d="m 8.29,17.57 a 2.19,2.19 0 0 0 -0.13,0.77 c 0,0.66 1.49,0.88 2,0.93 a 21.74,21.74 0 0 0 4.11,-0.19 c 1.61,-0.26 3.35,-1.06 3.4,-1.57 a 1.39,1.39 0 0 0 -1.08,-1.6 c -0.41,-0.11 -1,-0.05 -1.45,-0.12 -0.45,-0.07 -0.65,-0.82 -0.65,-0.82 0,0 0,0 0,0 0,0 0.06,-0.18 0.11,-0.31 a 7.36,7.36 0 0 0 0.49,-1.14 c 0,-0.44 0,-2.52 -1.51,-2.42 -1.51,0.1 -1.53,1.33 -1.51,1.55 A 12.77,12.77 0 0 1 12,14.45 2.58,2.58 0 0 1 11.77,15.15 2.52,2.52 0 0 1 10.61,16 c -0.8,0.3 -1.96,0.64 -2.32,1.57 z"
       id="path144201"
       style="isolation:isolate;fill:url(#linear-gradient-16)" />
    <path
       class="cls-24"
       d="m 14.5,14.86 v 0.43 a 0.54,0.54 0 0 1 -0.45,0.38 0.34,0.34 0 0 1 -0.2,0 1.64,1.64 0 0 1 -1,-0.93 0.69,0.69 0 0 0 -0.24,-0.34 c -0.28,-0.15 -0.36,0.38 -0.46,0.56 a 1.8,1.8 0 0 1 -0.64,0.76 4.65,4.65 0 0 0 0.4,-0.78 c 0,-0.13 0.07,-0.27 0.1,-0.42 0.03,-0.15 0.05,-0.24 0.06,-0.36 0.01,-0.12 0,-0.27 0,-0.4 v -0.22 a 2.9,2.9 0 0 0 0,-0.58 v 0 l 0.05,-0.16 0.18,0.11 0.17,0.57 v 0.07 l 0.22,0.28 v 0.07 l 0.15,0.18 a 2,2 0 0 0 0.89,0.68 2.23,2.23 0 0 0 0.77,0.1 z"
       id="path144203"
       style="isolation:isolate;fill:url(#linear-gradient-17)" />
    <path
       class="cls-17"
       d="m 16.92,18.15 a 3.16,3.16 0 0 0 0.49,-0.47 c 0.06,-0.09 0.11,-0.16 0.1,-0.22 a 1.82,1.82 0 0 0 0,-0.33 A 1.17,1.17 0 0 0 16.8,16.18 3.79,3.79 0 0 0 15.47,16 2.87,2.87 0 0 1 15.08,16 0.86,0.86 0 0 1 14.67,15.78 1.41,1.41 0 0 1 14.32,15.03 V 14.9 c 0,0 0,0 0,0 v 0 a 5.1,5.1 0 0 1 0.43,-1 1.89,1.89 0 0 0 0.15,-0.4 c 0,-0.17 0,-0.34 0,-0.51 -0.05,-0.64 -0.22,-1.38 -0.74,-1.61 a 1.52,1.52 0 0 0 -1.63,0.41 1.21,1.21 0 0 0 -0.21,0.84 c 0,0.38 0,0.71 0,1.07 a 2.38,2.38 0 0 1 -0.8,2 12.1,12.1 0 0 1 -1.92,0.89 1.89,1.89 0 0 0 -1.23,1.41 1.66,1.66 0 0 0 0,0.43 0.56,0.56 0 0 0 0.25,0.29 5.55,5.55 0 0 0 0.91,0.47 v 0 A 2.23,2.23 0 0 1 8.44,19 0.85,0.85 0 0 1 8,18.52 a 1.39,1.39 0 0 1 0,-0.61 1.93,1.93 0 0 1 0.5,-1 3.06,3.06 0 0 1 0.9,-0.63 12.85,12.85 0 0 0 1.86,-0.87 1.25,1.25 0 0 0 0.5,-0.74 3.76,3.76 0 0 0 0.12,-1 c 0,-0.34 0,-0.7 0,-1 a 1.57,1.57 0 0 1 1.29,-1.75 1.79,1.79 0 0 1 1.16,0.07 1.49,1.49 0 0 1 0.76,0.9 3.51,3.51 0 0 1 0.23,1.11 c 0,0.18 0,0.35 0,0.54 a 1.58,1.58 0 0 1 -0.2,0.57 4.47,4.47 0 0 0 -0.41,0.93 v 0 0 0 -0.13 a 1,1 0 0 0 0.24,0.53 c 0.12,0.14 0.28,0.15 0.53,0.16 a 3.73,3.73 0 0 1 1.48,0.22 1.52,1.52 0 0 1 0.91,1.25 2.51,2.51 0 0 1 0,0.39 0.65,0.65 0 0 1 -0.21,0.41 1.45,1.45 0 0 1 -0.69,0.34 c 0,0 -0.05,0 -0.05,0 a 0.09,0.09 0 0 1 0,-0.06 z"
       id="path144205"
       style="isolation:isolate" />
    <path
       class="cls-25"
       d="m 15.58,12 a 0.55,0.55 0 0 0 0,0.41 2,2 0 0 1 -0.07,0.9 5.23,5.23 0 0 1 -0.64,1.36 0.73,0.73 0 0 1 -0.69,0.33 1.41,1.41 0 0 1 -0.78,-0.33 10.51,10.51 0 0 1 -0.92,-0.82 2,2 0 0 1 -0.22,-0.68 0.7,0.7 0 0 1 -0.21,0 0.74,0.74 0 0 1 -0.5,-0.76 c 0,-0.38 0.08,-0.63 0.36,-0.65 v 0 a 1.88,1.88 0 0 1 0,-0.82 1.91,1.91 0 0 1 1.9,-1.34 2.9,2.9 0 0 1 1.41,0.53 1.1,1.1 0 0 1 0.29,0.42 2.09,2.09 0 0 1 0.14,0.79 3.33,3.33 0 0 1 -0.07,0.66 z"
       id="path144207"
       style="isolation:isolate;fill:url(#linear-gradient-18)" />
    <path
       class="cls-19"
       d="m 14.56,14.85 a 1,1 0 0 0 0.41,-0.29 3.45,3.45 0 0 0 0.47,-1 7.91,7.91 0 0 0 0.18,-2.21 1.84,1.84 0 0 0 -1.11,-1.65 2,2 0 0 0 -1.78,0.12 1.67,1.67 0 0 0 -0.82,1.94"
       id="path144209"
       style="isolation:isolate" />
    <path
       class="cls-17"
       d="m 12.89,14.22 a 2.54,2.54 0 0 0 0.79,0.43 2.21,2.21 0 0 0 0.42,0.08 1.58,1.58 0 0 0 0.38,0 v 0 a 0.17,0.17 0 0 1 0.2,0.15 0.17,0.17 0 0 1 -0.1,0.19 1.1,1.1 0 0 1 -1,-0.16 2.28,2.28 0 0 1 -0.72,-0.62 c 0,0 0,0 0,0 z"
       id="path144211"
       style="isolation:isolate" />
    <path
       class="cls-19"
       d="m 12.1,13.15 a 0.74,0.74 0 0 1 -0.59,-0.77 c 0,-0.38 0.09,-0.63 0.4,-0.65 a 0.24,0.24 0 0 1 0.13,0"
       id="path144213"
       style="isolation:isolate" />
    <path
       class="cls-26"
       d="m 9.05,18 c 0,-0.23 0.18,-0.66 -0.06,-0.58 -0.24,0.08 -0.4,0.71 -0.35,1 0.05,0.29 0.41,0.39 0.88,0.48 a 3.49,3.49 0 0 0 1.24,0.08 C 11.02,18.91 10.64,18.63 10.08,18.6 9.52,18.57 9.12,18.39 9.05,18 Z"
       id="path144215"
       style="isolation:isolate;fill:url(#linear-gradient-19)" />
    <path
       class="cls-27"
       d="M 11.41,19.29 A 17.48,17.48 0 0 0 14.94,18.76 4.26,4.26 0 0 0 17,17.52 c 0.16,-0.24 0.19,-0.71 0,-0.83 -0.19,-0.12 -0.43,0.18 -0.6,0.49 a 1.93,1.93 0 0 1 -0.94,0.72 1.62,1.62 0 0 1 -0.69,0.08 3.39,3.39 0 0 0 -0.55,0 1.61,1.61 0 0 0 -0.73,0.38 5.47,5.47 0 0 1 -1,0.62 2.66,2.66 0 0 1 -1.08,0.31 z"
       id="path144217"
       style="isolation:isolate;fill:url(#linear-gradient-20)" />
    <path
       class="cls-35"
       d="M 14.48,10.17 A 1.64,1.64 0 0 0 13.33,10 c -0.65,0.14 -1,0.49 -1,0.91 a 3.91,3.91 0 0 0 0,0.79 c 0,0.14 0.13,0.36 0.38,0.06 a 1.16,1.16 0 0 0 0.38,-0.77 1.07,1.07 0 0 1 1.39,-0.82 z"
       id="path144235"
       style="isolation:isolate;fill:url(#linear-gradient-28)" />
    <path
       class="cls-36"
       d="m 14.88,10.49 a 1.38,1.38 0 0 1 0.32,0.94 8.59,8.59 0 0 1 -0.2,2 c -0.14,0.55 -0.47,1.08 -0.7,1.08 a 2.17,2.17 0 0 1 -1.47,-0.73 c 0,0 0.85,0.47 1.22,0.36 0.37,-0.11 0.42,-0.46 0.42,-0.78 0,-0.32 0.25,-0.24 0.4,-0.38 0.15,-0.14 0.07,-0.24 0,-0.5 -0.07,-0.26 -0.26,-0.65 -0.11,-0.68 0.15,-0.03 0.35,-0.52 0.12,-1.31 z"
       id="path144237"
       style="isolation:isolate;fill:url(#linear-gradient-29)" />
    <path
       class="cls-37"
       d="m 15,13 a 3.62,3.62 0 0 1 -0.35,0.21 c -0.17,0.08 0,0.24 0.13,0.17 C 14.91,13.31 15,13 15,13 Z"
       id="path144239"
       style="isolation:isolate;fill:url(#linear-gradient-30)" />
    <path
       class="cls-38"
       d="m 9.17,17.16 a 4.92,4.92 0 0 1 1.37,-0.71 4.07,4.07 0 0 0 1.38,-0.74 3.72,3.72 0 0 0 0.5,-0.9 c 0.1,-0.26 0.23,0.23 0.18,0.65 -0.05,0.42 0.43,0.73 0.79,0.87 0.36,0.14 0.15,0.23 -0.79,0.25 a 6.79,6.79 0 0 0 -3.43,0.58 z"
       id="path144241"
       style="isolation:isolate;fill:url(#linear-gradient-31)" />
    <path
       class="cls-39"
       d="m 14.55,16 c 0.12,0.2 0.58,0.3 1,0.26 a 2,2 0 0 1 1.17,0.14 2.07,2.07 0 0 0 -1,0.1 1.38,1.38 0 0 1 -1.19,0 C 14.28,16.09 14.55,16 14.55,16 Z"
       id="path144243"
       style="isolation:isolate;fill:url(#linear-gradient-32)" />
    <g
       class="cls-43"
       id="g144569"
       style="isolation:isolate">
      <path
         class="cls-42"
         d="m 9.72,20 v 0 0 0 0 0 H 9.7 a 0.07,0.07 0 0 0 0.02,0 z"
         id="path144489" />
      <path
         class="cls-42"
         d="m 6.66,18.87 v 0 c 0.06,0 0.08,-0.08 0.07,-0.13 -0.01,-0.05 -0.06,0.08 -0.07,0.13 z"
         id="path144491" />
      <path
         class="cls-42"
         d="m 13.37,19.78 c 0,0 0.06,0 0.07,0 0.01,0 0,0 0,0 0,0 0.1,-0.14 0.07,-0.21 -0.03,-0.07 0,0 0,0 a 0.64,0.64 0 0 1 0,-0.07 c 0,0 0.06,0 0,-0.07 -0.06,-0.07 -0.13,0.05 -0.21,0.06 a 1.44,1.44 0 0 0 -0.07,0.23 0.2,0.2 0 0 0 0.14,0.06 z"
         id="path144493" />
      <path
         class="cls-42"
         d="m 12.8,11.23 c 0.09,0 0.11,0 0.19,0 a 0.22,0.22 0 0 0 0.12,-0.17 c -0.11,0 -0.17,0.07 -0.26,0.08 z"
         id="path144495" />
      <path
         class="cls-42"
         d="m 13.18,21 a 0.12,0.12 0 0 0 -0.1,0.06 h -0.05 a 0.15,0.15 0 0 0 -0.11,0.11 H 13 a 2.27,2.27 0 0 0 0.28,-0.21 C 13.21,21 13.21,21 13.18,21 Z"
         id="path144497" />
      <path
         class="cls-42"
         d="m 12.68,14.13 c 0,0 0,0 -0.07,0 -0.07,0 -0.07,0 -0.11,0 a 0.13,0.13 0 0 0 -0.06,0.11 h 0.05 a 0.26,0.26 0 0 0 0.17,0 c 0.05,-0.05 0.03,-0.08 0.02,-0.11 z"
         id="path144499" />
      <path
         class="cls-42"
         d="m 7.26,18.36 a 0.79,0.79 0 0 0 -0.25,0.27 l 0.13,-0.07 0.11,-0.07 c 0.08,0 0.08,-0.06 0.09,-0.1 z"
         id="path144501" />
      <path
         class="cls-42"
         d="m 12.73,13.39 a 0.19,0.19 0 0 0 0.1,0 c 0,0 0,0 0,0 a 0.06,0.06 0 0 0 -0.07,0 h -0.13 c -0.06,0 -0.06,0.06 0,0.09 z"
         id="path144503" />
      <path
         class="cls-42"
         d="m 14.27,12.68 v 0 -0.07 h 0.12 c 0,0 0,0 0,0 h -0.06 l -0.14,0.15 z"
         id="path144505" />
      <path
         class="cls-42"
         d="m 14.58,12 0.07,-0.06 c 0,0 0,0 0,0 a 0.28,0.28 0 0 0 -0.22,0.11 C 14.51,12 14.53,12 14.58,12 Z"
         id="path144507" />
      <path
         class="cls-42"
         d="m 11.25,16.45 -0.07,0.05 c 0,0 0,0.05 0,0.07 a 0.09,0.09 0 0 0 0.11,0 c 0,0 0.06,-0.09 -0.04,-0.12 z"
         id="path144509" />
      <path
         class="cls-42"
         d="m 17.21,17.76 c 0,-0.05 -0.05,-0.06 -0.11,-0.07 v 0 c 0,0 0,0.06 0,0.08 a 0.11,0.11 0 0 0 0.11,0 z"
         id="path144511" />
      <path
         class="cls-42"
         d="m 13,11.64 c 0.13,0 0.13,0 0.19,-0.1 a 0.09,0.09 0 0 0 -0.1,0 C 13,11.56 13,11.6 13,11.64 Z"
         id="path144513" />
      <path
         class="cls-42"
         d="m 14.59,19.05 0.07,-0.06 c 0,0 0,0 0,0 h -0.11 c 0,0 -0.05,0.01 0.04,0.06 z"
         id="path144515" />
      <path
         class="cls-42"
         d="m 11.52,17.47 c 0,0 0.06,0 0.09,0 0.03,0 0,0 0,0 0,0 -0.11,-0.05 -0.2,0 z"
         id="path144517" />
      <path
         class="cls-42"
         d="m 17.65,18.38 c -0.1,0 -0.15,0.07 -0.15,0.13 h 0.09 c 0,0 0.08,-0.09 0.06,-0.13 z"
         id="path144519" />
      <path
         class="cls-42"
         d="m 10.48,19.65 a 0.14,0.14 0 0 0 0.09,0 c 0,0 0,0 0,0 a 0.13,0.13 0 0 0 0,-0.05 h -0.1 c 0,0 -0.01,0.03 0.01,0.05 z"
         id="path144521" />
      <path
         class="cls-42"
         d="m 6.92,18 c 0,0 0.08,0 0.08,0 l 0.09,-0.06 c 0,0 -0.06,0 -0.1,0 A 0.09,0.09 0 0 0 6.92,18 Z"
         id="path144523" />
      <path
         class="cls-42"
         d="m 13.84,13.85 h 0.15 l -0.05,-0.07 h -0.06 a 0.09,0.09 0 0 0 -0.07,0 c 0,0 0.01,0.07 0.03,0.07 z"
         id="path144525" />
      <path
         class="cls-42"
         d="m 9.92,16.76 0.11,-0.07 a 0.11,0.11 0 0 0 -0.14,0 c 0,0 -0.02,0.05 0.03,0.07 z"
         id="path144527" />
      <path
         class="cls-42"
         d="m 7.15,18.85 c 0,0 0,0 0,-0.06 a 0.18,0.18 0 0 0 -0.08,0.06 c 0,0 0,0 0,0 0,0 0.08,0.02 0.08,0 z"
         id="path144529" />
      <path
         class="cls-42"
         d="m 13.69,14.2 c 0,0 0,0 -0.07,0 -0.07,0 0,0 0,0 a 0.11,0.11 0 0 0 0.1,0 c 0,0 0.01,0.02 -0.03,0 z"
         id="path144531" />
      <path
         class="cls-42"
         d="m 14.26,10.68 c 0,0 0,0 -0.08,0 -0.08,0 0,0 0,0.05 h 0.1 c 0,0 -0.01,-0.04 -0.02,-0.05 z"
         id="path144533" />
      <path
         class="cls-42"
         d="M 10.89,15.86 H 11 c 0,0 0,0 0,0 0,0 -0.08,0 -0.08,0 0,0 -0.04,0 -0.03,0 z"
         id="path144535" />
      <path
         class="cls-42"
         d="m 15.49,15.58 h -0.1 c 0,0 0,0 0,0.05 h 0.08 c 0,0 0.01,-0.03 0.02,-0.05 z"
         id="path144537" />
      <path
         class="cls-42"
         d="m 14.52,12.42 c 0,-0.06 0,-0.06 -0.06,-0.05 -0.06,0.01 0,0 0,0.06 z"
         id="path144539" />
      <path
         class="cls-42"
         d="m 14.61,14.94 c 0,0 -0.07,0 -0.07,0 0,0 0,0 0,0 h 0.06 z"
         id="path144541" />
      <path
         class="cls-42"
         d="m 13.34,9.76 h -0.07 c 0,0 0,0 0,0.05 0,0.05 0.08,-0.04 0.07,-0.05 z"
         id="path144543" />
      <path
         class="cls-42"
         d="m 13.78,14 h 0.09 c 0,0 0,0 0,0 h -0.06 c 0,0 -0.05,0 -0.03,0 z"
         id="path144545" />
      <path
         class="cls-42"
         d="m 17.13,16.85 c 0,0 0,0 0,0 v 0 c 0,0 0,0 0,0 z"
         id="path144547" />
      <path
         class="cls-42"
         d="M 9,19.23 H 8.94 v 0 0 z"
         id="path144549" />
      <path
         class="cls-42"
         d="m 9.42,16.37 v 0 H 9.37 v 0 z"
         id="path144551" />
      <path
         class="cls-42"
         d="m 13,12.82 v 0 h -0.08 c 0,0.01 0.08,0.02 0.08,0 z"
         id="path144553" />
      <path
         class="cls-42"
         d="M 17.36,16.68 Z"
         id="path144555" />
      <path
         class="cls-42"
         d="M 14.32,13.5 Z"
         id="path144557" />
      <path
         class="cls-42"
         d="M 13.47,10.59 Z"
         id="path144559" />
      <path
         class="cls-42"
         d="M 14.4,18.54 Z"
         id="path144561" />
      <path
         class="cls-42"
         d="M 10.53,17 Z"
         id="path144563" />
      <path
         class="cls-42"
         d="M 13.23,16.2 Z"
         id="path144565" />
      <path
         class="cls-42"
         d="m 8.9,19.75 c 0,0 0,0 -0.06,0 a 0.32,0.32 0 0 0 -0.15,0.27 v 0 A 0.48,0.48 0 0 0 8.89,20 l 0.29,-0.22 c 0.07,-0.05 0.07,-0.09 0,-0.13 a 0.25,0.25 0 0 0 -0.16,0 0.59,0.59 0 0 1 -0.12,0.1 z"
         id="path144567" />
    </g>
    <g
       class="cls-44"
       id="g144683"
       style="isolation:isolate">
      <path
         class="cls-45"
         d="m 13.31,12 c 0.43,0 0.83,0.07 1,0.07 0.17,0 0,0.64 -0.58,0.67 A 0.69,0.69 0 0 1 13.12,12.2 C 13.07,12.1 13.13,12 13.31,12 Z"
         id="path144679"
         style="fill:url(#linearGradient144722)" />
      <path
         class="cls-46"
         d="m 14.88,12.07 c 0,-0.08 0.19,-0.1 0.25,-0.12 0.06,-0.02 0.17,-0.09 0.19,0 0.02,0.09 0,0.55 -0.08,0.58 A 0.28,0.28 0 0 1 15,12.44 0.72,0.72 0 0 1 14.88,12.07 Z"
         id="path144681"
         style="fill:url(#linear-gradient-36)" />
    </g>
  </g>
  <g
     id="g145384"
     transform="matrix(1.621627,0,0,1.621627,-10.295531,-14.804661)">
    <path
       class="cls-13"
       d="m 28.69,23 a 1.9,1.9 0 0 0 -0.07,-0.46 c -0.6,-1.82 -4.32,-2.88 -8.31,-2.35 -3.64,0.47 -6.24,2.09 -6.22,3.76 v 0 0.67 0 a 1.47,1.47 0 0 0 0.07,0.46 c 0.6,1.82 4.32,2.88 8.31,2.36 3.63,-0.48 6.23,-2.09 6.22,-3.76 v 0 z"
       id="path144179"
       style="isolation:isolate;fill:url(#linear-gradient-8)" />
    <path
       class="cls-14"
       d="m 21.21,21.09 -3,1.19 c -1.28,0.51 -1.91,1 -1.88,1.81 0.03,0.81 1.48,1.35 2.37,1.47 a 13.59,13.59 0 0 0 5.41,-0.74 c 1.87,-0.73 2.46,-1.67 2.49,-2.27 0.03,-0.6 -1,-1.14 -1.91,-1.19"
       id="path144181"
       style="isolation:isolate;fill:url(#linearGradient144714)" />
    <path
       class="cls-15"
       d="m 19.08,26.47 a 8.71,8.71 0 0 1 -1.66,-0.33 3.89,3.89 0 0 1 -2.27,-1.37 1.94,1.94 0 0 1 0.46,-2.21 5.15,5.15 0 0 1 1.55,-0.91 c 0.49,-0.21 1.06,-0.28 1.52,-0.52 0.76,-0.4 1.17,-0.87 0.75,-0.84 -3.17,0.61 -5.36,2.1 -5.35,3.64 0,0 0,0.67 0,0.68 a 1.51,1.51 0 0 0 0.07,0.46 c 0.4,1.2 2.17,2.08 4.49,2.38 0.34,0 0.69,0 1,0 C 22.92,27.18 24,26 24,26 a 15.16,15.16 0 0 1 -4.92,0.47 z"
       id="path144183"
       style="isolation:isolate;fill:url(#linearGradient144716)" />
    <path
       class="cls-16"
       d="m 28.53,22.56 c -0.24,-0.79 -0.83,-1 -1.51,-1.44 a 2,2 0 0 1 1,2.62 3,3 0 0 1 -1.17,1.32 12.23,12.23 0 0 1 -7.22,1.86 11.11,11.11 0 0 1 -2.91,-0.56 3.7,3.7 0 0 1 -2.56,-2 2,2 0 0 1 -0.08,-0.47 c 0,0 0,0.67 0,0.68 a 1.47,1.47 0 0 0 0.07,0.46 c 0.6,1.82 4.32,2.88 8.31,2.36 a 13.37,13.37 0 0 0 3.29,-0.84 5.05,5.05 0 0 0 2.74,-2.14 3.21,3.21 0 0 0 0.04,-1.85 z"
       id="path144185"
       style="isolation:isolate;fill:url(#linearGradient144718)" />
    <path
       class="cls-19"
       d="m 28.73,23 a 2.66,2.66 0 0 0 -1.35,-1.82 9.14,9.14 0 0 0 -4.19,-1.09 14.59,14.59 0 0 0 -2.88,0.11 9.45,9.45 0 0 0 -5.46,2.18 2.62,2.62 0 0 0 -0.7,1.1 2.5,2.5 0 0 0 0.53,2.45 5.09,5.09 0 0 0 2.12,1.17 13.4,13.4 0 0 0 5.67,0.37 11.46,11.46 0 0 0 4.41,-1.47 3.33,3.33 0 0 0 1.85,-3 z"
       id="path144191"
       style="isolation:isolate" />
    <path
       class="cls-28"
       d="m 26.05,21.27 a 3.05,3.05 0 0 1 -0.6,0.82 c 0,0 0,0 0,0 v 0 a 2.35,2.35 0 0 0 0.12,0.29 0.34,0.34 0 0 0 0.2,0.15 c 0.2,0.06 0.2,0.38 0.11,0.57 -0.09,0.19 -0.78,1.58 -4.68,2 -3.9,0.42 -4.54,-1.06 -4.54,-1.06 -0.07,-0.52 0.51,-1.1 1.35,-1.44 a 12.13,12.13 0 0 0 2.27,-1.21 v 0.08 a 6,6 0 0 0 1.8,-1.65 2.46,2.46 0 0 1 2.5,-1.18 c 1.18,0.23 1.36,0.84 1.45,1.2 a 1.18,1.18 0 0 1 0.02,1.43 z"
       id="path144219"
       style="isolation:isolate;fill:url(#linear-gradient-21)" />
    <path
       class="cls-29"
       d="m 25.54,22.91 a 1.42,1.42 0 0 1 -1.19,0.86 3.8,3.8 0 0 1 -2.42,-0.36 1.43,1.43 0 0 1 -0.69,-1.54 1.38,1.38 0 0 1 0.37,-0.77 2.08,2.08 0 0 0 -0.15,1.11 1.27,1.27 0 0 0 1.25,0.89 4.6,4.6 0 0 0 2.23,-0.57 2.22,2.22 0 0 0 0.4,-0.31 v 0 a 1.94,1.94 0 0 1 0.2,0.69 z"
       id="path144221"
       style="isolation:isolate;fill:url(#linear-gradient-22)" />
    <path
       class="cls-30"
       d="m 25.46,23.75 a 7.47,7.47 0 0 1 -3.85,0.92 8.48,8.48 0 0 1 -2.24,-0.32 2.15,2.15 0 0 1 -1,-0.51 0.89,0.89 0 0 0 -0.14,-0.13 c -0.26,-0.17 -0.62,0.08 -0.86,0.17 a 0.44,0.44 0 0 1 0,0.2 c 0,0.07 -0.09,0.13 -0.15,0.11 a 1,1 0 0 0 0.44,0.23 0.11,0.11 0 0 0 0.07,0.15 0.41,0.41 0 0 0 0.19,0 0.77,0.77 0 0 1 0.3,0 0.35,0.35 0 0 0 0,0.14 4.61,4.61 0 0 1 1.13,0.22 9.93,9.93 0 0 0 1.44,0.08 8.15,8.15 0 0 0 4.67,-1.26 z"
       id="path144223"
       style="isolation:isolate;fill:url(#linear-gradient-23)" />
    <path
       class="cls-31"
       d="m 25.58,19.73 a 1.71,1.71 0 0 1 -0.32,2 4.18,4.18 0 0 1 -2.45,1.09 0.93,0.93 0 0 1 -1,-1.24 0.4,0.4 0 0 0 0.08,0.26 0.63,0.63 0 0 1 0.28,-0.28 0.1,0.1 0 0 0 0.08,0.16 0.12,0.12 0 0 0 0.12,-0.15 0.13,0.13 0 0 1 0,0.15 c 0.33,0 0.63,-0.14 1,-0.16 a 0.68,0.68 0 0 1 0.5,0.15 l 0.08,0.05 c 0,0 0.07,0 0.11,0 0.55,-0.22 1,-0.31 1.32,-0.85 a 1.72,1.72 0 0 0 0.2,-1.18 z"
       id="path144225"
       style="isolation:isolate;fill:url(#linear-gradient-24)" />
    <path
       class="cls-32"
       d="m 23.7,23.34 a 3.24,3.24 0 0 0 1.57,-0.59 c 0.13,-0.08 0,-0.4 -0.21,-0.45 -0.21,-0.05 -0.43,0.7 -1.36,1.04 z"
       id="path144227"
       style="isolation:isolate;fill:url(#linear-gradient-25)" />
    <path
       class="cls-33"
       d="m 17,23.89 c 0,0 0.12,-0.57 1,-0.86 a 11.7,11.7 0 0 0 2.48,-1.21 c 0.29,-0.19 0.64,0.21 0.05,0.61 -0.59,0.4 -2.86,0.62 -3.53,1.46 z"
       id="path144229"
       style="isolation:isolate;fill:url(#linear-gradient-26)" />
    <path
       class="cls-34"
       d="m 25.22,19.59 c -0.08,0.18 -0.28,0.39 -0.79,0.19 a 1.59,1.59 0 0 0 -1.62,0.26 8.35,8.35 0 0 1 -0.95,0.72 6.21,6.21 0 0 0 0.75,-0.88 1.91,1.91 0 0 1 1.67,-0.88 c 0.72,0.09 1.02,0.4 0.94,0.59 z"
       id="path144231"
       style="isolation:isolate;fill:url(#linear-gradient-27)" />
    <path
       class="cls-40"
       d="m 23.46,22.12 c -0.05,0.14 0.05,0.32 0.42,0.33 0.37,0.01 0.5,0 0.51,-0.11 0.01,-0.11 -0.63,-0.23 -0.79,-0.34 -0.16,-0.11 -0.14,0.12 -0.14,0.12 z"
       id="path144245"
       style="isolation:isolate;fill:url(#linear-gradient-33)" />
    <path
       class="cls-17"
       d="m 25.9,22.62 c 0,0 -0.46,-0.14 -0.58,-0.36 l 0.08,-0.12 a 1.55,1.55 0 0 0 0.5,0.48 z"
       id="path144247"
       style="isolation:isolate" />
    <g
       class="cls-5"
       id="g144675"
       style="isolation:isolate">
      <path
         class="cls-42"
         d="m 21.47,21.66 v 0 h -0.09 c 0,0 0,0 0,0.05 l 0.06,-0.05 v 0 a 0.28,0.28 0 0 0 0.13,0 c 0,0 -0.07,0.02 -0.1,0 z"
         id="path144571" />
      <path
         class="cls-42"
         d="m 22.64,21.21 -0.15,0.11 a 0.07,0.07 0 0 0 0,0.09 c 0,0 0,0 0.07,0 0.07,0 0.07,0 0.08,0 l 0.1,-0.14 c 0,0 -0.03,-0.06 -0.1,-0.06 z"
         id="path144573" />
      <path
         class="cls-42"
         d="m 26,24.44 v 0 c 0,-0.07 0,-0.07 0,-0.12 l 0.08,-0.06 c 0,0 0,0 0,0 0,0 -0.05,0 -0.07,0 a 0.28,0.28 0 0 1 -0.16,0.1 0.08,0.08 0 0 0 -0.06,0.05 c 0.06,0.03 0.09,0.05 0.21,0.03 z"
         id="path144575" />
      <path
         class="cls-42"
         d="m 22.05,22.87 0.08,0.07 h 0.06 c 0.1,0 0.14,-0.09 0.08,-0.14 h -0.05 a 0.15,0.15 0 0 0 -0.16,0.07 z"
         id="path144577" />
      <path
         class="cls-42"
         d="m 25.34,22 c -0.12,0 -0.12,0 -0.15,0 v 0 c 0,0 0.05,0.06 0.11,0.07 h 0.08 C 25.38,22 25.38,22 25.34,22 Z"
         id="path144579" />
      <path
         class="cls-42"
         d="m 19.8,24.11 a 0.14,0.14 0 0 0 0.14,0 c 0,0 0,0 0,0 0,0 -0.05,0 -0.08,0 l -0.09,0.06 z"
         id="path144581" />
      <path
         class="cls-42"
         d="M 20.87,23.07 20.74,23 v 0 c 0,0 0,0 0,0 a 0.27,0.27 0 0 0 0.13,0.07 z"
         id="path144583" />
      <path
         class="cls-42"
         d="m 24.69,22.84 a 0.1,0.1 0 0 0 0.09,0 c 0,0 0,0 0,-0.06 h -0.05 c 0,0 -0.06,0.05 -0.04,0.06 z"
         id="path144585" />
      <path
         class="cls-42"
         d="m 25.15,21.27 c 0,0 0,0 0,0 a 0.09,0.09 0 0 0 0.07,0 c -0.08,0 -0.09,0 -0.11,0 z"
         id="path144587" />
      <path
         class="cls-42"
         d="m 25.67,19.15 h -0.06 c 0,0 0,0 0,0 h 0.07 c 0,0 0.04,0.01 -0.01,0 z"
         id="path144589" />
      <path
         class="cls-42"
         d="m 28.49,23.84 c 0,0 0,0 0,0 0,0 -0.08,0 -0.11,0 -0.03,0 0,0 0,0 a 0.15,0.15 0 0 0 0.11,0 z"
         id="path144591" />
      <path
         class="cls-42"
         d="m 26.13,20.13 v 0 c -0.05,0 -0.07,0 -0.07,0.07 0,0.07 0.08,-0.04 0.07,-0.07 z"
         id="path144593" />
      <path
         class="cls-42"
         d="m 26.17,23.58 c 0,0 0,0 -0.09,0 v 0.06 c 0.09,-0.03 0.1,-0.03 0.09,-0.06 z"
         id="path144595" />
      <path
         class="cls-42"
         d="m 27,23.94 -0.05,-0.05 a 0.06,0.06 0 0 0 -0.07,0 c 0,0 0,0 0,0 z"
         id="path144597" />
      <path
         class="cls-42"
         d="m 26.54,25.16 c 0,0 0,0 0.06,0 v 0 c -0.05,-0.04 -0.05,-0.02 -0.06,0 z"
         id="path144599" />
      <path
         class="cls-42"
         d="m 22.58,23.67 0.07,-0.05 c 0,0 0,0 0,0 a 0.07,0.07 0 0 0 -0.06,0 z"
         id="path144601" />
      <path
         class="cls-42"
         d="m 22.4,23 c 0,0 0.05,0 0,0 -0.05,0 0,0 -0.07,0 -0.07,0 0.02,0 0.07,0 z"
         id="path144603" />
      <path
         class="cls-42"
         d="m 21.66,21.8 h -0.08 c -0.01,0.02 -0.01,0.02 0.08,0 z"
         id="path144605" />
      <path
         class="cls-42"
         d="m 23.87,25.41 c 0,0 0,0 0,0 H 23.8 v 0 c 0,0 0.05,0.02 0.07,0 z"
         id="path144607" />
      <path
         class="cls-42"
         d="m 27.37,22.87 h -0.05 c 0,0 0,0 0,0 v 0 c 0,0 0.06,0 0.05,0 z"
         id="path144609" />
      <path
         class="cls-42"
         d="m 23.3,24.52 c 0,0 -0.05,0 0,0 a 0.07,0.07 0 0 0 0.07,0 z"
         id="path144611" />
      <path
         class="cls-42"
         d="M 26.8,22.31 Z"
         id="path144613" />
      <path
         class="cls-42"
         d="m 27.61,22.74 h 0.06 v 0 z"
         id="path144615" />
      <path
         class="cls-42"
         d="m 25.63,24.86 v 0 h -0.06 c 0,0 0.05,0.02 0.06,0 z"
         id="path144617" />
      <path
         class="cls-42"
         d="m 24,25.53 h -0.05 v 0 z"
         id="path144619" />
      <path
         class="cls-42"
         d="M 25.51,19.07 Z"
         id="path144621" />
      <path
         class="cls-42"
         d="M 25.81,24.53 Z"
         id="path144623" />
      <path
         class="cls-42"
         d="m 20.21,26.4 c 0,0 0,0.08 0,0.11 h 0.05 l 0.18,-0.13 c 0,0 0,0 0,-0.05 h -0.07 a 0.32,0.32 0 0 0 -0.16,0.07 z"
         id="path144625" />
      <path
         class="cls-42"
         d="m 21.42,25.28 c 0,0 0,0 0,0 v 0 c 0,0 0,0 0,0 h -0.06 z"
         id="path144627" />
      <path
         class="cls-42"
         d="m 23.14,26.78 c 0,0 0,0 0,0 h 0.06 c 0,0 0,0 0,0 0,0 -0.04,0 -0.06,0 z"
         id="path144629" />
      <path
         class="cls-42"
         d="m 20.5,25 v 0 c 0,0 0,0 0,0 z"
         id="path144631" />
      <path
         class="cls-42"
         d="M 22.84,25.69 Z"
         id="path144633" />
      <path
         class="cls-42"
         d="m 17.36,21.57 h 0.1 c 0,0 0.05,0 0.08,-0.06 0.03,-0.06 0,-0.1 0,-0.15 0,-0.05 0,0 0,0 0,0 -0.06,0 -0.07,0 -0.01,0 0,0 0,0 a 0.19,0.19 0 0 1 -0.05,0.1 c 0,0 -0.1,0.07 -0.06,0.11 z"
         id="path144635" />
      <path
         class="cls-42"
         d="m 23.88,20.1 a 0.15,0.15 0 0 0 -0.12,0 c 0,0 0,0.05 0,0.07 v 0 a 0.18,0.18 0 0 0 0.15,0 c 0,0 0,-0.09 -0.06,-0.09 z"
         id="path144637" />
      <path
         class="cls-42"
         d="m 19.93,20.55 c 0,-0.07 0,-0.08 0,-0.1 h -0.09 c 0,0 0,0 0,0.06 0,0.06 0,0.07 0.12,0.06 z"
         id="path144639" />
      <path
         class="cls-42"
         d="m 26.9,21.44 a 0.52,0.52 0 0 0 -0.1,0.11 c 0,0 0,0 0.05,0 a 0.12,0.12 0 0 1 0.09,-0.06 v 0 c 0.05,0 0.08,-0.05 0.06,-0.08 v 0 a 0.13,0.13 0 0 0 -0.1,0.03 z"
         id="path144641" />
      <path
         class="cls-42"
         d="m 22.5,19.84 a 0.16,0.16 0 0 0 -0.09,0 c 0,0 0,0 0,0 a 0.11,0.11 0 0 0 0.1,0 c 0,0 0.02,0.01 -0.01,0 z"
         id="path144643" />
      <path
         class="cls-42"
         d="m 19.46,21.9 v 0 c 0,0 0,0 0,0 v 0 c 0,0 0,0 0,0 a 0.1,0.1 0 0 0 -0.05,0 v 0 c 0,0 0.05,0 0.05,0 z"
         id="path144645" />
      <path
         class="cls-42"
         d="m 22.1,21.06 c 0,0 0,0 0,0 0,0 0,0 0.06,0 h 0.05 v 0 z"
         id="path144647" />
      <path
         class="cls-42"
         d="m 17.2,21.36 c 0,0 0.05,0 0,0 -0.05,0 0,0 -0.07,0 -0.07,0 0.02,0 0.07,0 z"
         id="path144649" />
      <path
         class="cls-42"
         d="M 20.71,21.32 Z"
         id="path144651" />
      <path
         class="cls-42"
         d="M 17.86,21.63 Z"
         id="path144653" />
      <path
         class="cls-42"
         d="M 17.78,22 Z"
         id="path144655" />
      <path
         class="cls-42"
         d="M 22.66,20.16 Z"
         id="path144657" />
      <path
         class="cls-42"
         d="m 17.28,23.22 a 0.22,0.22 0 0 0 0.07,-0.06 c 0,0 0,0 0,0 h -0.12 a 0.1,0.1 0 0 0 0,0.05 v 0.09 a 0.16,0.16 0 0 0 0.05,-0.08 z"
         id="path144659" />
      <path
         class="cls-42"
         d="m 16,24.87 h -0.06 a 0.12,0.12 0 0 0 -0.1,0 c 0,0 0,0.07 0,0.11 l 0.12,-0.06 c 0,0 0.04,-0.03 0.04,-0.05 z"
         id="path144661" />
      <path
         class="cls-42"
         d="m 15.18,23.31 a 0.13,0.13 0 0 0 0.1,0 c 0,0 0,-0.07 0,-0.09 z"
         id="path144663" />
      <path
         class="cls-42"
         d="m 16.28,24 v 0 h -0.05 v 0 z"
         id="path144665" />
      <path
         class="cls-42"
         d="M 15,22.4 Z"
         id="path144667" />
      <path
         class="cls-42"
         d="M 17.38,23.31 Z"
         id="path144669" />
      <path
         class="cls-42"
         d="m 17.47,24.23 v 0 c 0,0 0,-0.01 0,0 z"
         id="path144671" />
      <path
         class="cls-42"
         d="M 30,27.28 Z"
         id="path144673" />
    </g>
    <path
       class="cls-17"
       d="m 21.46,21.87 a 1.06,1.06 0 0 0 0.4,0.84 1.28,1.28 0 0 0 0.89,0.27 3.85,3.85 0 0 0 1,-0.13 8.26,8.26 0 0 0 0.92,-0.4 v 0 a 3.62,3.62 0 0 0 0.75,-0.5 1.49,1.49 0 0 0 0.52,-0.68 1.89,1.89 0 0 0 -0.26,-1.67 2,2 0 0 0 -3.06,-0.06 c -0.42,0.44 -0.77,1 -1.27,1.45 a 7.75,7.75 0 0 1 -1.65,1.07 c -0.58,0.29 -1.17,0.57 -1.76,0.81 -0.59,0.24 -1.15,0.68 -1.12,1.23 v 0 a 0.59,0.59 0 0 0 0.15,0.28 1.86,1.86 0 0 0 0.3,0.24 A 4.48,4.48 0 0 0 18,25 v 0 A 3,3 0 0 1 17.18,24.76 1.5,1.5 0 0 1 16.82,24.5 0.66,0.66 0 0 1 16.58,24.06 v 0 A 1.21,1.21 0 0 1 17,23.11 3.14,3.14 0 0 1 17.83,22.54 c 0.6,-0.26 1.16,-0.53 1.73,-0.83 a 7,7 0 0 0 1.55,-1.05 c 0.46,-0.42 0.79,-0.95 1.25,-1.45 a 2.47,2.47 0 0 1 1.84,-0.8 2.09,2.09 0 0 1 1.8,0.91 2.22,2.22 0 0 1 0.28,2 1.83,1.83 0 0 1 -0.64,0.83 3.48,3.48 0 0 1 -0.86,0.53 v 0 a 5.56,5.56 0 0 1 -1,0.39 4.16,4.16 0 0 1 -1.05,0.1 1.5,1.5 0 0 1 -1,-0.39 1.14,1.14 0 0 1 -0.37,-1 0.03535534,0 135 0 0 0.05,-0.05 0.07,0.07 0 0 1 0,0.05 z"
       id="path144677"
       style="isolation:isolate" />
  </g>
  <metadata
     id="metadata145518">
    <rdf:RDF>
      <cc:Work
         rdf:about="">
        <dc:title>12-RBD Deforming_to_Animated</dc:title>
      </cc:Work>
    </rdf:RDF>
  </metadata>
</svg>
