<?xml version="1.0" encoding="UTF-8" standalone="no"?>
<svg
   viewBox="0 0 48 48"
   version="1.1"
   id="svg38"
   sodipodi:docname="3-RBD_Find_Instances.svg"
   inkscape:version="1.3 (0e150ed, 2023-07-21)"
   xmlns:inkscape="http://www.inkscape.org/namespaces/inkscape"
   xmlns:sodipodi="http://sodipodi.sourceforge.net/DTD/sodipodi-0.dtd"
   xmlns:xlink="http://www.w3.org/1999/xlink"
   xmlns="http://www.w3.org/2000/svg"
   xmlns:svg="http://www.w3.org/2000/svg">
  <sodipodi:namedview
     id="namedview38"
     pagecolor="#ffffff"
     bordercolor="#000000"
     borderopacity="0.25"
     inkscape:showpageshadow="2"
     inkscape:pageopacity="0.0"
     inkscape:pagecheckerboard="0"
     inkscape:deskcolor="#d1d1d1"
     inkscape:zoom="17.583333"
     inkscape:cx="24"
     inkscape:cy="23.971564"
     inkscape:window-width="1392"
     inkscape:window-height="1245"
     inkscape:window-x="710"
     inkscape:window-y="146"
     inkscape:window-maximized="0"
     inkscape:current-layer="svg38" />
  <defs
     id="defs20">
    <radialGradient
       id="radial-gradient"
       cx="-243.46"
       cy="115.4"
       fx="-243.46"
       fy="115.4"
       r="8.76"
       gradientTransform="matrix(2.7,0,0,0.62,682.22,-29.51)"
       gradientUnits="userSpaceOnUse">
      <stop
         offset=".04"
         stop-color="#1a1718"
         stop-opacity=".5"
         id="stop1" />
      <stop
         offset=".68"
         stop-color="#1a1718"
         stop-opacity=".15"
         id="stop2" />
      <stop
         offset=".93"
         stop-color="#1a1718"
         stop-opacity="0"
         id="stop3" />
    </radialGradient>
    <linearGradient
       id="linear-gradient"
       x1="25.56"
       y1="29.03"
       x2="29.99"
       y2="29.03"
       gradientUnits="userSpaceOnUse">
      <stop
         offset="0"
         stop-color="#eeeeec"
         id="stop4" />
      <stop
         offset=".51"
         stop-color="#babdb6"
         id="stop5" />
      <stop
         offset=".99"
         stop-color="#888a85"
         id="stop6" />
    </linearGradient>
    <linearGradient
       id="linear-gradient-2"
       x1="23.91"
       y1="16.12"
       x2="16.89"
       y2="23.15"
       gradientTransform="matrix(1, 0, 0, 1, 0, 0)"
       gradientUnits="userSpaceOnUse">
      <stop
         offset="0"
         stop-color="#fff"
         stop-opacity="0"
         id="stop7" />
      <stop
         offset="1"
         stop-color="#fff8f8"
         id="stop8" />
    </linearGradient>
    <linearGradient
       id="linear-gradient-3"
       x1="-167.44"
       y1="20.29"
       x2="-174.47"
       y2="27.32"
       gradientTransform="rotate(180,-77.41,19.345)"
       xlink:href="#linear-gradient-2" />
    <linearGradient
       id="linear-gradient-4"
       x1="34.82"
       y1="33.5"
       x2="33.52"
       y2="34.8"
       gradientTransform="rotate(45,33.932926,34.395478)"
       gradientUnits="userSpaceOnUse">
      <stop
         offset="0"
         stop-color="#3465a4"
         id="stop9" />
      <stop
         offset="1"
         stop-color="#204a87"
         id="stop10" />
    </linearGradient>
    <linearGradient
       id="linear-gradient-5"
       x1="34.13"
       y1="34.19"
       x2="35.22"
       y2="33.1"
       gradientTransform="rotate(45,34.910891,33.410565)"
       xlink:href="#linear-gradient-2" />
    <linearGradient
       id="linear-gradient-6"
       x1="19.33"
       y1="21.92"
       x2="17.2"
       y2="12.55"
       gradientTransform="matrix(1, 0, 0, 1, 0, 0)"
       gradientUnits="userSpaceOnUse">
      <stop
         offset=".06"
         stop-color="#fcaf3e"
         id="stop11" />
      <stop
         offset="1"
         stop-color="#ce5c00"
         id="stop12" />
    </linearGradient>
    <linearGradient
       id="linear-gradient-7"
       x1="21.72"
       y1="19.64"
       x2="17.55"
       y2="15.47"
       gradientUnits="userSpaceOnUse">
      <stop
         offset="0"
         stop-color="#f57900"
         id="stop13" />
      <stop
         offset=".62"
         stop-color="#ce5c00"
         id="stop14" />
    </linearGradient>
    <linearGradient
       id="linear-gradient-8"
       x1="16.11"
       y1="18.63"
       x2="14.77"
       y2="12.72"
       xlink:href="#linear-gradient-6" />
    <linearGradient
       id="linear-gradient-9"
       x1="16.94"
       y1="12.86"
       x2="22.33"
       y2="20.05"
       xlink:href="#linear-gradient-6" />
    <linearGradient
       id="linear-gradient-10"
       x1="16.74"
       y1="9.86"
       x2="18.81"
       y2="16.32"
       gradientUnits="userSpaceOnUse">
      <stop
         offset="0"
         stop-color="snow"
         id="stop15" />
      <stop
         offset="1"
         stop-color="#fffdfd"
         stop-opacity=".19"
         id="stop16" />
    </linearGradient>
    <radialGradient
       id="radial-gradient-2"
       cx="51.06"
       cy="84.05"
       fx="51.06"
       fy="84.05"
       r="5.66"
       gradientTransform="matrix(-0.93618229,0.35151488,0.35151488,0.93618229,52.55,-81.11)"
       gradientUnits="userSpaceOnUse">
      <stop
         offset="0"
         stop-color="#fff"
         id="stop17" />
      <stop
         offset=".87"
         stop-color="#729fcf"
         id="stop18" />
    </radialGradient>
    <linearGradient
       id="linear-gradient-11"
       x1="39.39"
       y1="15.46"
       x2="32.58"
       y2="22.27"
       gradientTransform="matrix(-1,0,0,1,74.1,0)"
       gradientUnits="userSpaceOnUse">
      <stop
         offset="0"
         stop-color="#729fcf"
         id="stop19" />
      <stop
         offset=".61"
         stop-color="#fff"
         id="stop20" />
    </linearGradient>
    <linearGradient
       inkscape:collect="always"
       xlink:href="#linear-gradient-2"
       id="linearGradient38"
       gradientUnits="userSpaceOnUse"
       x1="23.91"
       y1="16.12"
       x2="16.89"
       y2="23.15" />
    <linearGradient
       inkscape:collect="always"
       xlink:href="#linear-gradient-6"
       id="linearGradient39"
       gradientUnits="userSpaceOnUse"
       x1="19.33"
       y1="21.92"
       x2="17.2"
       y2="12.55" />
  </defs>
  <g
     id="shadow"
     style="opacity:0.45;isolation:isolate;mix-blend-mode:multiply">
    <ellipse
       cx="24"
       cy="42.529999"
       rx="22.77"
       ry="5.2800002"
       style="opacity:0.9;fill:url(#radial-gradient)"
       id="ellipse20" />
  </g>
  <g
     id="ART"
     style="isolation:isolate"
     transform="matrix(1.3536286,0,0,1.3536286,-8.6975353,-9.2812073)">
    <g
       id="g21">
      <polygon
         points="27.93,30.21 29.99,28.15 29.69,27.84 25.56,27.84 "
         style="fill:url(#linear-gradient)"
         id="polygon20" />
      <polygon
         points="27.93,30.21 29.99,28.15 29.69,27.84 25.56,27.84 "
         style="fill:none;stroke:#3465a4;stroke-width:0.7px;stroke-miterlimit:10"
         id="polygon21" />
    </g>
    <g
       id="g28">
      <path
         d="m 26.48,24.87 1.98,1.57 h -6.84 l 2.21,-6.47 0.92,2.6 c 5.17,-5.52 0.88,-14.88 -6.85,-14.9 -0.21,0 -0.22,-0.34 -0.01,-0.35 1.98,-0.18 4.04,0.25 5.82,1.26 5.79,3.06 7.05,11.41 2.76,16.29 z"
         style="fill:#3465a4"
         id="path21" />
      <path
         d="m 26.48,24.87 1.98,1.57 h -6.84 l 2.21,-6.47 0.92,2.6 c 5.17,-5.52 0.88,-14.88 -6.85,-14.9 -0.21,0 -0.22,-0.34 -0.01,-0.35 1.98,-0.18 4.04,0.25 5.82,1.26 5.79,3.06 7.05,11.41 2.76,16.29 z"
         style="opacity:0.79;fill:url(#linearGradient38)"
         id="path22" />
      <path
         d="m 26.48,24.87 1.98,1.57 h -6.84 l 2.21,-6.47 0.92,2.6 c 5.17,-5.52 0.88,-14.88 -6.85,-14.9 -0.21,0 -0.22,-0.34 -0.01,-0.35 1.98,-0.18 4.04,0.25 5.82,1.26 5.79,3.06 7.05,11.41 2.76,16.29 z"
         style="fill:none;stroke:#204a87;stroke-width:0.7px;stroke-miterlimit:10"
         id="path23" />
      <path
         d="M 10.05,9.65 8.07,8.08 h 6.84 l -2.21,6.47 -0.92,-2.6 c -5.17,5.52 -0.88,14.88 6.85,14.9 0.21,0 0.22,0.34 0.01,0.35 C 16.66,27.38 14.6,26.95 12.82,25.94 7.03,22.88 5.77,14.53 10.06,9.65 Z"
         style="fill:#3465a4"
         id="path24" />
      <path
         d="M 10.05,9.65 8.07,8.08 h 6.84 l -2.21,6.47 -0.92,-2.6 c -5.17,5.52 -0.88,14.88 6.85,14.9 0.21,0 0.22,0.34 0.01,0.35 C 16.66,27.38 14.6,26.95 12.82,25.94 7.03,22.88 5.77,14.53 10.06,9.65 Z"
         style="opacity:0.79;fill:url(#linear-gradient-3)"
         id="path25" />
      <path
         d="M 10.05,9.65 8.07,8.08 h 6.84 l -2.21,6.47 -0.92,-2.6 c -5.17,5.52 -0.88,14.88 6.85,14.9 0.21,0 0.22,0.34 0.01,0.35 C 16.66,27.38 14.6,26.95 12.82,25.94 7.03,22.88 5.77,14.53 10.06,9.65 Z"
         style="fill:none;stroke:#204a87;stroke-width:0.7px;stroke-miterlimit:10"
         id="path26" />
      <path
         d="m 32.53,27.07 h 3.05 c 0.22,0 0.39,0.18 0.39,0.39 v 14 h -3.84 v -14 c 0,-0.22 0.18,-0.39 0.39,-0.39 z"
         transform="rotate(-45,34.044412,34.268343)"
         style="fill:#3465a4"
         id="path27" />
      <rect
         x="33.23"
         y="27.190001"
         width="1.39"
         height="14.4"
         transform="rotate(-45,33.924057,34.388196)"
         style="fill:url(#linear-gradient-4)"
         id="rect27" />
      <rect
         x="34.209999"
         y="26.209999"
         width="1.39"
         height="14.4"
         transform="rotate(-45,34.908971,33.410231)"
         style="opacity:0.79;fill:url(#linear-gradient-5)"
         id="rect28" />
      <path
         d="m 32.53,27.07 h 3.05 c 0.22,0 0.39,0.18 0.39,0.39 v 14 h -3.84 v -14 c 0,-0.22 0.18,-0.39 0.39,-0.39 z"
         transform="rotate(-45,34.044412,34.268343)"
         style="fill:none;stroke:#204a87;stroke-width:0.7px;stroke-miterlimit:10"
         id="path28" />
    </g>
    <g
       id="g33">
      <g
         id="g32">
        <polygon
           points="18.27,12.31 22.68,14.63 22.68,19.84 18.27,22.17 13.85,19.84 13.85,14.63 "
           style="fill:url(#linearGradient39)"
           id="polygon28" />
        <polygon
           points="18.27,16.95 22.69,14.63 22.69,19.84 18.27,22.17 "
           style="fill:url(#linear-gradient-7)"
           id="polygon29" />
        <polygon
           points="18.27,16.95 13.85,14.63 13.85,19.84 18.27,22.17 "
           style="fill:url(#linear-gradient-8)"
           id="polygon30" />
        <polygon
           points="18.27,16.95 13.85,14.63 18.27,12.3 22.69,14.63 "
           style="fill:url(#linear-gradient-9)"
           id="polygon31" />
        <polygon
           points="18.27,16.95 13.85,14.63 18.27,12.3 22.69,14.63 "
           style="fill:url(#linear-gradient-10)"
           id="polygon32" />
      </g>
      <polygon
         points="17.31,21.66 18.27,22.17 22.69,19.84 22.69,14.63 18.27,12.3 13.85,14.63 13.85,19.84 "
         style="fill:none;stroke:#8f5902;stroke-width:0.7px;stroke-miterlimit:10"
         id="polygon33" />
    </g>
    <g
       id="g37">
      <g
         id="g36">
        <circle
           cx="36.43"
           cy="17.24"
           r="2.71"
           style="fill:none"
           id="circle33" />
        <g
           id="g35">
          <circle
             cx="36.43"
             cy="17.24"
             r="4.0300002"
             style="fill:none;stroke:#3465a4;stroke-width:1.4px;stroke-linecap:round;stroke-linejoin:round"
             id="circle34" />
          <circle
             cx="36.43"
             cy="17.24"
             r="4.0300002"
             style="fill:url(#radial-gradient-2)"
             id="circle35" />
        </g>
      </g>
      <path
         d="m 38.93,18.37 c 0,0 0.04,-0.08 0.05,-0.13 0.3,-0.71 0.37,-1.45 0.26,-2.17 -0.17,-1.09 -0.79,-2.09 -1.74,-2.72 0.2,0.05 0.4,0.13 0.59,0.22 1.68,0.76 2.59,2.54 2.31,4.28 -0.02,0.16 -0.06,0.31 -0.1,0.47 -0.02,0.06 -0.03,0.12 -0.05,0.18 -0.04,0.13 -0.1,0.26 -0.16,0.39 -0.05,0.12 -0.11,0.23 -0.17,0.34 -0.04,0.07 -0.08,0.14 -0.12,0.2 -0.02,0.03 -0.05,0.06 -0.07,0.1 -1.08,1.56 -3.17,2.18 -4.97,1.36 -0.2,-0.09 -0.39,-0.2 -0.57,-0.31 1.88,0.52 3.9,-0.39 4.73,-2.22 z"
         style="fill:url(#linear-gradient-11)"
         id="path36" />
    </g>
  </g>
</svg>
