<?xml version="1.0" encoding="UTF-8" standalone="no"?>
<svg
   viewBox="0 0 48 48"
   version="1.1"
   id="svg50"
   sodipodi:docname="remeshbubbles.svg"
   inkscape:version="1.3 (0e150ed6c4, 2023-07-21)"
   xmlns:inkscape="http://www.inkscape.org/namespaces/inkscape"
   xmlns:sodipodi="http://sodipodi.sourceforge.net/DTD/sodipodi-0.dtd"
   xmlns:xlink="http://www.w3.org/1999/xlink"
   xmlns="http://www.w3.org/2000/svg"
   xmlns:svg="http://www.w3.org/2000/svg">
  <sodipodi:namedview
     id="namedview50"
     pagecolor="#ffffff"
     bordercolor="#666666"
     borderopacity="1.0"
     inkscape:showpageshadow="2"
     inkscape:pageopacity="0.0"
     inkscape:pagecheckerboard="0"
     inkscape:deskcolor="#d1d1d1"
     inkscape:zoom="16.292919"
     inkscape:cx="24.028844"
     inkscape:cy="23.998156"
     inkscape:window-width="2560"
     inkscape:window-height="1378"
     inkscape:window-x="-6"
     inkscape:window-y="-6"
     inkscape:window-maximized="1"
     inkscape:current-layer="svg50" />
  <defs
     id="defs13">
    <radialGradient
       id="radial-gradient"
       cx="-400.62"
       cy="-38.63"
       fx="-400.62"
       fy="-38.63"
       r="3.7"
       gradientTransform="matrix(5.95,0,0,1.94,2407.41,114.84)"
       gradientUnits="userSpaceOnUse">
      <stop
         offset=".27"
         stop-color="#1a1718"
         stop-opacity=".7"
         id="stop1" />
      <stop
         offset=".9"
         stop-color="#1a1718"
         stop-opacity="0"
         id="stop2" />
    </radialGradient>
    <radialGradient
       id="radial-gradient-2"
       cx="16.15"
       cy="30.22"
       fx="16.15"
       fy="30.22"
       r="2.29"
       gradientTransform="matrix(1, 0, 0, 1, 0, 0)"
       gradientUnits="userSpaceOnUse">
      <stop
         offset="0"
         stop-color="#b3dfff"
         id="stop3" />
      <stop
         offset="1"
         stop-color="#729fcf"
         id="stop4" />
    </radialGradient>
    <linearGradient
       id="linear-gradient"
       x1="18.5"
       y1="32.68"
       x2="15.51"
       y2="29.69"
       gradientTransform="matrix(1, 0, 0, 1, 0, 0)"
       gradientUnits="userSpaceOnUse">
      <stop
         offset="0"
         stop-color="#def1ff"
         id="stop5" />
      <stop
         offset=".32"
         stop-color="#b3dfff"
         id="stop6" />
      <stop
         offset="1"
         stop-color="#729fcf"
         id="stop7" />
    </linearGradient>
    <radialGradient
       id="radial-gradient-3"
       cx="15.52"
       cy="29.3"
       fx="15.52"
       fy="29.3"
       r="2.52"
       gradientTransform="matrix(1, 0, 0, 1, 0, 0)"
       gradientUnits="userSpaceOnUse">
      <stop
         offset="0"
         stop-color="#def1ff"
         id="stop8" />
      <stop
         offset=".07"
         stop-color="#d4edff"
         id="stop9" />
      <stop
         offset=".32"
         stop-color="#b3dfff"
         id="stop10" />
      <stop
         offset="1"
         stop-color="#8bb8e2"
         id="stop11" />
    </radialGradient>
    <linearGradient
       id="linear-gradient-2"
       x1="15.46"
       y1="29.21"
       x2="18.13"
       y2="32.11"
       gradientTransform="rotate(47.16,15.644822,29.40712)"
       xlink:href="#linear-gradient" />
    <linearGradient
       id="linear-gradient-3"
       x1="14.48"
       y1="30.4"
       x2="15.86"
       y2="31.74"
       gradientTransform="rotate(83.66,14.750081,30.666295)"
       xlink:href="#linear-gradient" />
    <radialGradient
       id="radial-gradient-4"
       cx="20.75"
       cy="24.75"
       fx="20.75"
       fy="24.75"
       r="2.58"
       gradientTransform="translate(-8.11 6.36) rotate(-5.8)"
       gradientUnits="userSpaceOnUse">
      <stop
         offset="0"
         stop-color="#b3dfff"
         id="stop12" />
      <stop
         offset="1"
         stop-color="#437fbf"
         id="stop13" />
    </radialGradient>
    <radialGradient
       id="radial-gradient-5"
       cx="20.08"
       cy="33.31"
       fx="20.08"
       fy="33.31"
       r="3.68"
       xlink:href="#radial-gradient-2" />
    <linearGradient
       id="linear-gradient-4"
       x1="23.86"
       y1="37.26"
       x2="19.06"
       y2="32.45"
       xlink:href="#linear-gradient" />
    <radialGradient
       id="radial-gradient-6"
       cx="18.88"
       cy="31.56"
       fx="18.88"
       fy="31.56"
       r="4.71"
       xlink:href="#radial-gradient-3" />
    <linearGradient
       id="linear-gradient-5"
       x1="18.6"
       y1="31.34"
       x2="22.89"
       y2="36"
       gradientTransform="rotate(47.16,18.891426,31.658634)"
       xlink:href="#linear-gradient" />
    <linearGradient
       id="linear-gradient-6"
       x1="17.53"
       y1="33.32"
       x2="19.75"
       y2="35.48"
       gradientTransform="rotate(83.66,17.962052,33.737802)"
       xlink:href="#linear-gradient" />
    <radialGradient
       id="radial-gradient-7"
       cx="23.76"
       cy="27.34"
       fx="23.76"
       fy="27.34"
       r="4.16"
       xlink:href="#radial-gradient-4" />
    <radialGradient
       id="radial-gradient-8"
       cx="31.04"
       cy="5.92"
       fx="31.04"
       fy="5.92"
       r="3.31"
       xlink:href="#radial-gradient-2" />
    <linearGradient
       id="linear-gradient-7"
       x1="34.43"
       y1="9.47"
       x2="30.12"
       y2="5.15"
       xlink:href="#linear-gradient" />
    <radialGradient
       id="radial-gradient-9"
       cx="30.13"
       cy="4.59"
       fx="30.13"
       fy="4.59"
       r="3.64"
       xlink:href="#radial-gradient-3" />
    <linearGradient
       id="linear-gradient-8"
       x1="30.05"
       y1="4.45"
       x2="33.9"
       y2="8.65"
       gradientTransform="rotate(47.16,30.314228,4.7432776)"
       xlink:href="#linear-gradient" />
    <linearGradient
       id="linear-gradient-9"
       x1="28.63"
       y1="6.18"
       x2="30.62"
       y2="8.12"
       gradientTransform="rotate(83.66,29.013504,6.5605282)"
       xlink:href="#linear-gradient" />
    <radialGradient
       id="radial-gradient-10"
       cx="37.58"
       cy="1.44"
       fx="37.58"
       fy="1.44"
       r="3.74"
       xlink:href="#radial-gradient-4" />
    <radialGradient
       id="radial-gradient-11"
       cx="12.49"
       cy="22.91"
       fx="12.49"
       fy="22.91"
       r="3.43"
       xlink:href="#radial-gradient-2" />
    <linearGradient
       id="linear-gradient-10"
       x1="16.01"
       y1="26.59"
       x2="11.53"
       y2="22.11"
       xlink:href="#linear-gradient" />
    <radialGradient
       id="radial-gradient-12"
       cx="11.54"
       cy="21.52"
       fx="11.54"
       fy="21.52"
       r="3.78"
       xlink:href="#radial-gradient-3" />
    <linearGradient
       id="linear-gradient-11"
       x1="11.46"
       y1="21.39"
       x2="15.46"
       y2="25.74"
       gradientTransform="rotate(47.16,11.731604,21.691406)"
       xlink:href="#linear-gradient" />
    <linearGradient
       id="linear-gradient-12"
       x1="9.99"
       y1="23.18"
       x2="12.05"
       y2="25.19"
       gradientTransform="rotate(83.66,10.38617,23.564876)"
       xlink:href="#linear-gradient" />
    <radialGradient
       id="radial-gradient-13"
       cx="17.36"
       cy="16.38"
       fx="17.36"
       fy="16.38"
       r="3.88"
       xlink:href="#radial-gradient-4" />
    <radialGradient
       id="radial-gradient-14"
       cx="21.01"
       cy="15.93"
       fx="21.01"
       fy="15.93"
       r="7.98"
       xlink:href="#radial-gradient-2" />
    <linearGradient
       id="linear-gradient-13"
       x1="29.19"
       y1="24.49"
       x2="18.79"
       y2="14.08"
       xlink:href="#linear-gradient" />
    <radialGradient
       id="radial-gradient-15"
       cx="18.4"
       cy="12.14"
       fx="18.4"
       fy="12.14"
       r="10.22"
       xlink:href="#radial-gradient-3" />
    <linearGradient
       id="linear-gradient-14"
       x1="17.8"
       y1="11.66"
       x2="27.09"
       y2="21.77"
       gradientTransform="rotate(47.16,18.442862,12.352347)"
       xlink:href="#linear-gradient" />
    <linearGradient
       id="linear-gradient-15"
       x1="15.29"
       y1="15.93"
       x2="20.09"
       y2="20.61"
       gradientTransform="rotate(83.66,16.216839,16.83693)"
       xlink:href="#linear-gradient" />
    <radialGradient
       id="radial-gradient-16"
       cx="24.61"
       cy="7.43"
       fx="24.61"
       fy="7.43"
       r="9.02"
       xlink:href="#radial-gradient-4" />
    <radialGradient
       id="radial-gradient-17"
       cx="31.58"
       cy="34.23"
       fx="31.58"
       fy="34.23"
       r="4.28"
       xlink:href="#radial-gradient-2" />
    <linearGradient
       id="linear-gradient-16"
       x1="35.97"
       y1="38.82"
       x2="30.39"
       y2="33.24"
       xlink:href="#linear-gradient" />
    <radialGradient
       id="radial-gradient-18"
       cx="30.18"
       cy="32.2"
       fx="30.18"
       fy="32.2"
       r="5.48"
       xlink:href="#radial-gradient-3" />
    <linearGradient
       id="linear-gradient-17"
       x1="29.86"
       y1="31.94"
       x2="34.85"
       y2="37.36"
       gradientTransform="rotate(47.16,30.213882,32.321823)"
       xlink:href="#linear-gradient" />
    <linearGradient
       id="linear-gradient-18"
       x1="28.52"
       y1="34.55"
       x2="31.09"
       y2="37.06"
       gradientTransform="rotate(83.66,29.018391,35.040361)"
       xlink:href="#linear-gradient" />
    <radialGradient
       id="radial-gradient-19"
       cx="34.86"
       cy="29.04"
       fx="34.86"
       fy="29.04"
       r="4.83"
       xlink:href="#radial-gradient-4" />
    <radialGradient
       id="radial-gradient-20"
       cx="28.45"
       cy="38.98"
       fx="28.45"
       fy="38.98"
       xlink:href="#radial-gradient-2" />
    <linearGradient
       id="linear-gradient-19"
       x1="30.79"
       y1="41.43"
       x2="27.81"
       y2="38.45"
       xlink:href="#linear-gradient" />
    <radialGradient
       id="radial-gradient-21"
       cx="27.82"
       cy="38.06"
       fx="27.82"
       fy="38.06"
       r="2.52"
       xlink:href="#radial-gradient-3" />
    <linearGradient
       id="linear-gradient-20"
       x1="27.76"
       y1="37.96"
       x2="30.43"
       y2="40.86"
       gradientTransform="rotate(47.16,27.950109,38.164961)"
       xlink:href="#linear-gradient" />
    <linearGradient
       id="linear-gradient-21"
       x1="26.78"
       y1="39.16"
       x2="28.16"
       y2="40.5"
       gradientTransform="rotate(83.66,27.050401,39.417801)"
       xlink:href="#linear-gradient" />
    <radialGradient
       id="radial-gradient-22"
       cx="32.1"
       cy="34.71"
       fx="32.1"
       fy="34.71"
       r="2.58"
       xlink:href="#radial-gradient-4" />
    <radialGradient
       id="radial-gradient-23"
       cx="8.39"
       cy="17.76"
       fx="8.39"
       fy="17.76"
       r="2.06"
       xlink:href="#radial-gradient-2" />
    <linearGradient
       id="linear-gradient-22"
       x1="10.51"
       y1="19.97"
       x2="7.82"
       y2="17.28"
       xlink:href="#linear-gradient" />
    <radialGradient
       id="radial-gradient-24"
       cx="7.83"
       cy="16.93"
       fx="7.83"
       fy="16.93"
       r="2.27"
       xlink:href="#radial-gradient-3" />
    <linearGradient
       id="linear-gradient-23"
       x1="7.78"
       y1="16.85"
       x2="10.18"
       y2="19.46"
       gradientTransform="rotate(47.16,7.9388515,17.032535)"
       xlink:href="#linear-gradient" />
    <linearGradient
       id="linear-gradient-24"
       x1="6.89"
       y1="17.92"
       x2="8.13"
       y2="19.13"
       gradientTransform="rotate(83.66,7.1338065,18.155001)"
       xlink:href="#linear-gradient" />
    <radialGradient
       id="radial-gradient-25"
       cx="14.39"
       cy="11.71"
       fx="14.39"
       fy="11.71"
       r="2.33"
       xlink:href="#radial-gradient-4" />
    <radialGradient
       id="radial-gradient-26"
       cx="15.37"
       cy="35.41"
       fx="15.37"
       fy="35.41"
       r="2.29"
       xlink:href="#radial-gradient-2" />
    <linearGradient
       id="linear-gradient-25"
       x1="17.72"
       y1="37.87"
       x2="14.73"
       y2="34.88"
       xlink:href="#linear-gradient" />
    <radialGradient
       id="radial-gradient-27"
       cx="14.74"
       cy="34.49"
       fx="14.74"
       fy="34.49"
       r="2.52"
       xlink:href="#radial-gradient-3" />
    <linearGradient
       id="linear-gradient-26"
       x1="14.68"
       y1="34.4"
       x2="17.35"
       y2="37.3"
       gradientTransform="rotate(47.16,14.870257,34.600258)"
       xlink:href="#linear-gradient" />
    <linearGradient
       id="linear-gradient-27"
       x1="13.7"
       y1="35.59"
       x2="15.08"
       y2="36.93"
       gradientTransform="rotate(83.66,13.969062,35.852788)"
       xlink:href="#linear-gradient" />
    <radialGradient
       id="radial-gradient-28"
       cx="19.45"
       cy="29.84"
       fx="19.45"
       fy="29.84"
       r="2.58"
       xlink:href="#radial-gradient-4" />
    <radialGradient
       id="radial-gradient-29"
       cx="37.31"
       cy="10.63"
       fx="37.31"
       fy="10.63"
       r="1.86"
       xlink:href="#radial-gradient-2" />
    <linearGradient
       id="linear-gradient-28"
       x1="39.22"
       y1="12.63"
       x2="36.79"
       y2="10.2"
       xlink:href="#linear-gradient" />
    <radialGradient
       id="radial-gradient-30"
       cx="36.79"
       cy="9.88"
       fx="36.79"
       fy="9.88"
       r="2.05"
       xlink:href="#radial-gradient-3" />
    <linearGradient
       id="linear-gradient-29"
       x1="36.75"
       y1="9.81"
       x2="38.92"
       y2="12.17"
       gradientTransform="rotate(47.16,36.892694,9.9728124)"
       xlink:href="#linear-gradient" />
    <linearGradient
       id="linear-gradient-30"
       x1="35.95"
       y1="10.78"
       x2="37.07"
       y2="11.87"
       gradientTransform="rotate(83.66,36.169363,10.99198)"
       xlink:href="#linear-gradient" />
    <radialGradient
       id="radial-gradient-31"
       cx="43.96"
       cy="7.67"
       fx="43.96"
       fy="7.67"
       r="2.1"
       xlink:href="#radial-gradient-4" />
    <radialGradient
       id="radial-gradient-32"
       cx="36.77"
       cy="19.35"
       fx="36.77"
       fy="19.35"
       r="4.18"
       xlink:href="#radial-gradient-2" />
    <linearGradient
       id="linear-gradient-31"
       x1="41.05"
       y1="23.83"
       x2="35.6"
       y2="18.38"
       xlink:href="#linear-gradient" />
    <radialGradient
       id="radial-gradient-33"
       cx="35.4"
       cy="17.37"
       fx="35.4"
       fy="17.37"
       r="5.35"
       xlink:href="#radial-gradient-3" />
    <linearGradient
       id="linear-gradient-32"
       x1="35.09"
       y1="17.12"
       x2="39.96"
       y2="22.41"
       gradientTransform="rotate(47.16,35.426199,17.486357)"
       xlink:href="#linear-gradient" />
    <linearGradient
       id="linear-gradient-33"
       x1="33.87"
       y1="19.36"
       x2="36.38"
       y2="21.81"
       gradientTransform="rotate(83.66,34.357405,19.837948)"
       xlink:href="#linear-gradient" />
    <radialGradient
       id="radial-gradient-34"
       cx="41.56"
       cy="14.83"
       fx="41.56"
       fy="14.83"
       r="4.72"
       xlink:href="#radial-gradient-4" />
    <radialGradient
       id="radial-gradient-35"
       cx="29.66"
       cy="25.24"
       fx="29.66"
       fy="25.24"
       r="5.56"
       xlink:href="#radial-gradient-2" />
    <linearGradient
       id="linear-gradient-34"
       x1="35.36"
       y1="31.2"
       x2="28.11"
       y2="23.95"
       xlink:href="#linear-gradient" />
    <radialGradient
       id="radial-gradient-36"
       cx="28.12"
       cy="23"
       fx="28.12"
       fy="23"
       r="6.12"
       xlink:href="#radial-gradient-3" />
    <linearGradient
       id="linear-gradient-35"
       x1="27.99"
       y1="22.77"
       x2="34.47"
       y2="29.82"
       gradientTransform="rotate(47.16,28.441753,23.262446)"
       xlink:href="#linear-gradient" />
    <linearGradient
       id="linear-gradient-36"
       x1="25.6"
       y1="25.67"
       x2="28.95"
       y2="28.94"
       gradientTransform="rotate(83.66,26.252716,26.307216)"
       xlink:href="#linear-gradient" />
    <radialGradient
       id="radial-gradient-37"
       cx="33.3"
       cy="19.09"
       fx="33.3"
       fy="19.09"
       r="6.28"
       xlink:href="#radial-gradient-4" />
    <radialGradient
       inkscape:collect="always"
       xlink:href="#radial-gradient-2"
       id="radialGradient50"
       gradientUnits="userSpaceOnUse"
       cx="16.15"
       cy="30.22"
       fx="16.15"
       fy="30.22"
       r="2.29" />
    <linearGradient
       inkscape:collect="always"
       xlink:href="#linear-gradient"
       id="linearGradient50"
       gradientUnits="userSpaceOnUse"
       x1="18.5"
       y1="32.68"
       x2="15.51"
       y2="29.69" />
    <radialGradient
       inkscape:collect="always"
       xlink:href="#radial-gradient-3"
       id="radialGradient51"
       gradientUnits="userSpaceOnUse"
       cx="15.52"
       cy="29.3"
       fx="15.52"
       fy="29.3"
       r="2.52" />
    <radialGradient
       inkscape:collect="always"
       xlink:href="#radial-gradient-4"
       id="radialGradient52"
       gradientUnits="userSpaceOnUse"
       gradientTransform="rotate(-5.8,58.719125,83.22688)"
       cx="20.75"
       cy="24.75"
       fx="20.75"
       fy="24.75"
       r="2.58" />
  </defs>
  <g
     id="shadow"
     style="opacity:0.45;isolation:isolate;mix-blend-mode:multiply;stroke-width:0.938645"
     transform="matrix(1.1350048,0,0,1,-2.5079096,1.0433981)">
    <ellipse
       cx="23.35"
       cy="40.009998"
       rx="21.139999"
       ry="6.9099998"
       style="fill:url(#radial-gradient);stroke-width:0.938645"
       id="ellipse13" />
  </g>
  <g
     id="description"
     style="isolation:isolate;stroke-width:0.876491"
     transform="matrix(1.1410396,0,0,1.140786,-3.3047936,-2.8745965)">
    <g
       id="g49"
       style="stroke-width:0.876491">
      <g
         id="g15"
         style="stroke-width:0.876491">
        <circle
           cx="16.43"
           cy="30.610001"
           r="2.4200001"
           style="fill:url(#radialGradient50);stroke-width:0.876491"
           id="circle13" />
        <path
           d="m 18.84,30.61 c 0,1.33 -1.08,2.42 -2.42,2.42 -0.67,0 -1.27,-0.27 -1.71,-0.71 0.58,0.58 1.81,0.28 2.75,-0.67 0.94,-0.94 1.24,-2.18 0.67,-2.75 0.44,0.44 0.71,1.04 0.71,1.71 z"
           style="opacity:0.67;fill:url(#linearGradient50);stroke-width:0.876491"
           id="path13" />
        <path
           d="m 17.11,31.01 c -0.51,0.57 -1.37,0.73 -1.82,0.33 -0.45,-0.4 -0.4,-1.19 0.11,-1.76 0.51,-0.57 1.29,-0.71 1.74,-0.31 0.45,0.4 0.48,1.17 -0.03,1.75 z"
           style="fill:url(#radialGradient51);stroke-width:0.876491"
           id="path14" />
        <ellipse
           cx="15.65"
           cy="29.41"
           rx="0.68000001"
           ry="0.43000001"
           transform="rotate(-47.16,15.650426,29.415218)"
           style="fill:url(#linear-gradient-2);stroke-width:0.876491"
           id="ellipse14" />
        <ellipse
           cx="14.75"
           cy="30.66"
           rx="0.31"
           ry="0.23"
           transform="rotate(-83.66,14.748968,30.667828)"
           style="fill:url(#linear-gradient-3);stroke-width:0.876491"
           id="ellipse15" />
        <path
           d="m 18.17,29.93 c -0.02,0.63 -0.17,1.17 -0.64,1.6 -0.66,0.6 -1.16,0.62 -1.9,0.65 -0.04,0 -0.07,0 -0.1,0.02 -0.04,0.03 -0.05,0.1 -0.02,0.15 0.03,0.05 0.08,0.08 0.13,0.11 0.87,0.51 2.12,-0.09 2.53,-0.92 0.35,-0.7 0.29,-1.26 0.2,-1.68 -0.06,-0.28 -0.15,-0.24 -0.2,0.07 z"
           style="fill:url(#radialGradient52);stroke-width:0.876491"
           id="path15" />
        <circle
           cx="16.43"
           cy="30.610001"
           r="2.4200001"
           style="fill:none;stroke:#204a87;stroke-width:0.613544px;stroke-miterlimit:10"
           id="circle15" />
      </g>
      <g
         id="g18"
         style="stroke-width:0.876491">
        <circle
           cx="20.530001"
           cy="33.919998"
           r="3.8900001"
           style="fill:url(#radial-gradient-5);stroke-width:0.876491"
           id="circle16" />
        <path
           d="m 24.42,33.93 c 0,2.15 -1.74,3.89 -3.89,3.89 -1.07,0 -2.05,-0.44 -2.75,-1.14 0.93,0.93 2.91,0.45 4.43,-1.07 1.52,-1.52 2,-3.5 1.07,-4.42 0.7,0.71 1.14,1.68 1.14,2.75 z"
           style="opacity:0.67;fill:url(#linear-gradient-4);stroke-width:0.876491"
           id="path16" />
        <path
           d="m 21.86,34.76 c -0.96,1.07 -2.57,1.36 -3.41,0.61 -0.84,-0.75 -0.74,-2.23 0.21,-3.3 0.96,-1.07 2.41,-1.33 3.26,-0.58 0.85,0.75 0.9,2.2 -0.06,3.27 z"
           style="fill:url(#radial-gradient-6);stroke-width:0.876491"
           id="path17" />
        <ellipse
           cx="18.9"
           cy="31.66"
           rx="1.09"
           ry="0.69"
           transform="rotate(-47.16,18.896615,31.664)"
           style="fill:url(#linear-gradient-5);stroke-width:0.876491"
           id="ellipse17" />
        <ellipse
           cx="17.959999"
           cy="33.740002"
           rx="0.49000001"
           ry="0.37"
           transform="rotate(-83.66,17.961062,33.733967)"
           style="fill:url(#linear-gradient-6);stroke-width:0.876491"
           id="ellipse18" />
        <path
           d="m 23.34,32.83 c -0.03,1.02 -0.27,1.89 -1.03,2.57 -1.06,0.96 -1.86,1 -3.07,1.05 -0.06,0 -0.12,0 -0.16,0.04 -0.07,0.05 -0.07,0.17 -0.03,0.24 0.04,0.07 0.13,0.13 0.2,0.17 1.4,0.83 3.41,-0.15 4.08,-1.48 0.57,-1.12 0.47,-2.03 0.32,-2.7 -0.1,-0.45 -0.24,-0.38 -0.32,0.11 z"
           style="fill:url(#radial-gradient-7);stroke-width:0.876491"
           id="path18" />
        <circle
           cx="20.530001"
           cy="33.919998"
           r="3.8900001"
           style="fill:none;stroke:#204a87;stroke-width:0.613544px;stroke-miterlimit:10"
           id="circle18" />
      </g>
      <g
         id="g21"
         style="stroke-width:0.876491">
        <circle
           cx="31.440001"
           cy="6.48"
           r="3.5"
           style="fill:url(#radial-gradient-8);stroke-width:0.876491"
           id="circle19" />
        <path
           d="m 34.93,6.48 c 0,1.93 -1.56,3.49 -3.49,3.49 -0.97,0 -1.84,-0.39 -2.47,-1.03 0.83,0.83 2.61,0.4 3.98,-0.97 1.36,-1.37 1.8,-3.15 0.97,-3.97 0.63,0.63 1.02,1.51 1.02,2.47 z"
           style="opacity:0.67;fill:url(#linear-gradient-7);stroke-width:0.876491"
           id="path19" />
        <path
           d="m 32.42,7.06 c -0.74,0.83 -1.98,1.05 -2.63,0.47 -0.65,-0.58 -0.58,-1.72 0.16,-2.55 0.74,-0.83 1.86,-1.03 2.51,-0.45 0.65,0.58 0.69,1.7 -0.05,2.52 z"
           style="fill:url(#radial-gradient-9);stroke-width:0.876491"
           id="path20" />
        <ellipse
           cx="30.309999"
           cy="4.7399998"
           rx="0.98000002"
           ry="0.62"
           transform="rotate(-47.16,30.316684,4.7497127)"
           style="fill:url(#linear-gradient-8);stroke-width:0.876491"
           id="ellipse20" />
        <ellipse
           cx="29.01"
           cy="6.5599999"
           rx="0.44"
           ry="0.34"
           transform="rotate(-83.66,29.012724,6.5590152)"
           style="fill:url(#linear-gradient-9);stroke-width:0.876491"
           id="ellipse21" />
        <path
           d="m 33.97,5.49 c -0.02,0.92 -0.25,1.7 -0.93,2.31 -0.96,0.86 -1.67,0.9 -2.75,0.94 -0.05,0 -0.11,0 -0.15,0.03 -0.06,0.05 -0.07,0.15 -0.03,0.22 0.04,0.07 0.11,0.11 0.18,0.16 1.26,0.74 3.06,-0.14 3.66,-1.33 0.51,-1.01 0.42,-1.83 0.29,-2.43 -0.09,-0.41 -0.22,-0.34 -0.28,0.09 z"
           style="fill:url(#radial-gradient-10);stroke-width:0.876491"
           id="path21" />
        <circle
           cx="31.440001"
           cy="6.48"
           r="3.5"
           style="fill:none;stroke:#204a87;stroke-width:0.613544px;stroke-miterlimit:10"
           id="circle21" />
      </g>
      <g
         id="g24"
         style="stroke-width:0.876491">
        <circle
           cx="12.9"
           cy="23.48"
           r="3.6300001"
           style="fill:url(#radial-gradient-11);stroke-width:0.876491"
           id="circle22" />
        <path
           d="m 16.53,23.49 c 0,2 -1.62,3.63 -3.63,3.63 -1,0 -1.91,-0.41 -2.57,-1.07 0.86,0.86 2.71,0.42 4.13,-1 1.41,-1.42 1.87,-3.27 1,-4.12 0.65,0.66 1.06,1.56 1.06,2.57 z"
           style="opacity:0.67;fill:url(#linear-gradient-10);stroke-width:0.876491"
           id="path22" />
        <path
           d="m 13.93,24.09 c -0.77,0.86 -2.06,1.09 -2.73,0.49 -0.67,-0.6 -0.6,-1.79 0.17,-2.64 0.77,-0.85 1.94,-1.07 2.61,-0.47 0.67,0.6 0.72,1.76 -0.05,2.62 z"
           style="fill:url(#radial-gradient-12);stroke-width:0.876491"
           id="path23" />
        <ellipse
           cx="11.73"
           cy="21.690001"
           rx="1.02"
           ry="0.64999998"
           transform="rotate(-47.16,11.726763,21.688367)"
           style="fill:url(#linear-gradient-11);stroke-width:0.876491"
           id="ellipse23" />
        <ellipse
           cx="10.39"
           cy="23.57"
           rx="0.46000001"
           ry="0.34999999"
           transform="rotate(-83.66,10.384552,23.571969)"
           style="fill:url(#linear-gradient-12);stroke-width:0.876491"
           id="ellipse24" />
        <path
           d="m 15.52,22.46 c -0.02,0.95 -0.26,1.76 -0.96,2.4 -0.99,0.89 -1.74,0.94 -2.86,0.97 -0.05,0 -0.11,0 -0.15,0.04 -0.07,0.05 -0.07,0.16 -0.03,0.23 0.04,0.07 0.12,0.12 0.19,0.16 1.31,0.77 3.18,-0.14 3.8,-1.38 0.53,-1.04 0.43,-1.9 0.3,-2.52 -0.09,-0.42 -0.23,-0.35 -0.29,0.1 z"
           style="fill:url(#radial-gradient-13);stroke-width:0.876491"
           id="path24" />
        <circle
           cx="12.9"
           cy="23.48"
           r="3.6300001"
           style="fill:none;stroke:#204a87;stroke-width:0.613544px;stroke-miterlimit:10"
           id="circle24" />
      </g>
      <g
         id="g27"
         style="stroke-width:0.876491">
        <circle
           cx="21.969999"
           cy="17.26"
           r="8.4300003"
           style="fill:url(#radial-gradient-14);stroke-width:0.876491"
           id="circle25" />
        <path
           d="m 30.4,17.27 c 0,4.66 -3.77,8.43 -8.43,8.43 -2.33,0 -4.44,-0.95 -5.96,-2.48 2.01,2.01 6.3,0.97 9.6,-2.33 3.28,-3.3 4.34,-7.59 2.33,-9.59 1.52,1.53 2.47,3.64 2.47,5.96 z"
           style="opacity:0.67;fill:url(#linear-gradient-13);stroke-width:0.876491"
           id="path25" />
        <path
           d="m 24.85,19.08 c -2.08,2.32 -5.57,2.96 -7.39,1.33 -1.82,-1.63 -1.61,-4.83 0.46,-7.15 2.08,-2.32 5.23,-2.89 7.06,-1.26 1.82,1.63 1.95,4.76 -0.13,7.09 z"
           style="fill:url(#radial-gradient-15);stroke-width:0.876491"
           id="path26" />
        <ellipse
           cx="18.440001"
           cy="12.36"
           rx="2.3699999"
           ry="1.5"
           transform="rotate(-47.16,18.444119,12.359921)"
           style="fill:url(#linear-gradient-14);stroke-width:0.876491"
           id="ellipse26" />
        <ellipse
           cx="16.219999"
           cy="16.84"
           rx="1.0700001"
           ry="0.81"
           transform="rotate(-83.66,16.218412,16.840437)"
           style="fill:url(#linear-gradient-15);stroke-width:0.876491"
           id="ellipse27" />
        <path
           d="m 28.07,14.9 c -0.06,2.21 -0.6,4.09 -2.24,5.57 -2.3,2.08 -4.04,2.18 -6.64,2.27 -0.12,0 -0.26,0 -0.36,0.08 -0.16,0.12 -0.16,0.36 -0.06,0.53 0.1,0.17 0.27,0.28 0.44,0.38 3.04,1.8 7.39,-0.33 8.84,-3.2 1.22,-2.43 1.01,-4.41 0.7,-5.86 -0.21,-0.99 -0.52,-0.82 -0.68,0.23 z"
           style="fill:url(#radial-gradient-16);stroke-width:0.876491"
           id="path27" />
        <circle
           cx="21.969999"
           cy="17.26"
           r="8.4300003"
           style="fill:none;stroke:#204a87;stroke-width:0.613544px;stroke-miterlimit:10"
           id="circle27" />
      </g>
      <g
         id="g30"
         style="stroke-width:0.876491">
        <circle
           cx="32.099998"
           cy="34.950001"
           r="4.52"
           style="fill:url(#radial-gradient-17);stroke-width:0.876491"
           id="circle28" />
        <path
           d="m 36.62,34.95 c 0,2.49 -2.02,4.52 -4.52,4.52 -1.25,0 -2.38,-0.51 -3.2,-1.33 1.08,1.08 3.38,0.52 5.14,-1.25 1.76,-1.77 2.32,-4.07 1.25,-5.14 0.81,0.82 1.32,1.95 1.32,3.2 z"
           style="opacity:0.67;fill:url(#linear-gradient-16);stroke-width:0.876491"
           id="path28" />
        <path
           d="m 33.64,35.92 c -1.11,1.25 -2.98,1.58 -3.96,0.71 -0.98,-0.87 -0.87,-2.59 0.25,-3.83 1.11,-1.25 2.81,-1.55 3.78,-0.68 0.97,0.87 1.04,2.55 -0.07,3.8 z"
           style="fill:url(#radial-gradient-18);stroke-width:0.876491"
           id="path29" />
        <ellipse
           cx="30.209999"
           cy="32.32"
           rx="1.27"
           ry="0.81"
           transform="rotate(-47.16,30.203743,32.31699)"
           style="fill:url(#linear-gradient-17);stroke-width:0.876491"
           id="ellipse29" />
        <ellipse
           cx="29.02"
           cy="35.040001"
           rx="0.56999999"
           ry="0.44"
           transform="rotate(-83.66,29.018424,35.038262)"
           style="fill:url(#linear-gradient-18);stroke-width:0.876491"
           id="ellipse30" />
        <path
           d="m 35.37,33.68 c -0.03,1.19 -0.32,2.19 -1.2,2.99 -1.23,1.11 -2.16,1.17 -3.56,1.21 -0.07,0 -0.14,0 -0.19,0.04 -0.08,0.06 -0.09,0.19 -0.03,0.28 0.06,0.09 0.15,0.15 0.24,0.2 1.63,0.96 3.96,-0.18 4.74,-1.72 0.66,-1.3 0.54,-2.36 0.38,-3.14 -0.11,-0.53 -0.28,-0.44 -0.37,0.12 z"
           style="fill:url(#radial-gradient-19);stroke-width:0.876491"
           id="path30" />
        <circle
           cx="32.099998"
           cy="34.950001"
           r="4.52"
           style="fill:none;stroke:#204a87;stroke-width:0.613544px;stroke-miterlimit:10"
           id="circle30" />
      </g>
      <g
         id="g33"
         style="stroke-width:0.876491">
        <circle
           cx="28.719999"
           cy="39.360001"
           r="2.4200001"
           style="fill:url(#radial-gradient-20);stroke-width:0.876491"
           id="circle31" />
        <path
           d="m 31.14,39.36 c 0,1.33 -1.08,2.42 -2.42,2.42 -0.67,0 -1.27,-0.27 -1.71,-0.71 0.58,0.58 1.81,0.28 2.75,-0.67 0.94,-0.94 1.24,-2.18 0.67,-2.75 0.44,0.44 0.71,1.04 0.71,1.71 z"
           style="opacity:0.67;fill:url(#linear-gradient-19);stroke-width:0.876491"
           id="path31" />
        <path
           d="m 29.41,39.77 c -0.51,0.57 -1.37,0.73 -1.82,0.33 -0.45,-0.4 -0.4,-1.19 0.11,-1.76 0.51,-0.57 1.29,-0.71 1.74,-0.31 0.45,0.4 0.48,1.17 -0.03,1.75 z"
           style="fill:url(#radial-gradient-21);stroke-width:0.876491"
           id="path32" />
        <ellipse
           cx="27.950001"
           cy="38.16"
           rx="0.68000001"
           ry="0.43000001"
           transform="rotate(-47.16,27.950763,38.166169)"
           style="fill:url(#linear-gradient-20);stroke-width:0.876491"
           id="ellipse32" />
        <ellipse
           cx="27.049999"
           cy="39.419998"
           rx="0.31"
           ry="0.23"
           transform="rotate(-83.66,27.047167,39.421495)"
           style="fill:url(#linear-gradient-21);stroke-width:0.876491"
           id="ellipse33" />
        <path
           d="m 30.47,38.68 c -0.02,0.63 -0.17,1.17 -0.64,1.6 -0.66,0.6 -1.16,0.62 -1.9,0.65 -0.04,0 -0.07,0 -0.1,0.02 -0.04,0.03 -0.05,0.1 -0.02,0.15 0.03,0.05 0.08,0.08 0.13,0.11 0.87,0.51 2.12,-0.09 2.53,-0.92 0.35,-0.7 0.29,-1.26 0.2,-1.68 -0.06,-0.28 -0.15,-0.24 -0.2,0.07 z"
           style="fill:url(#radial-gradient-22);stroke-width:0.876491"
           id="path33" />
        <circle
           cx="28.719999"
           cy="39.360001"
           r="2.4200001"
           style="fill:none;stroke:#204a87;stroke-width:0.613544px;stroke-miterlimit:10"
           id="circle33" />
      </g>
      <g
         id="g36"
         style="stroke-width:0.876491">
        <circle
           cx="8.6400003"
           cy="18.110001"
           r="2.1800001"
           style="fill:url(#radial-gradient-23);stroke-width:0.876491"
           id="circle34" />
        <path
           d="m 10.82,18.11 c 0,1.2 -0.97,2.18 -2.18,2.18 -0.6,0 -1.15,-0.24 -1.54,-0.64 0.52,0.52 1.63,0.25 2.48,-0.6 0.85,-0.85 1.12,-1.96 0.6,-2.48 0.39,0.4 0.64,0.94 0.64,1.54 z"
           style="opacity:0.67;fill:url(#linear-gradient-22);stroke-width:0.876491"
           id="path34" />
        <path
           d="M 9.26,18.47 C 8.8,18.99 8.02,19.13 7.62,18.77 7.22,18.41 7.26,17.7 7.72,17.18 8.18,16.66 8.88,16.54 9.29,16.9 9.7,17.26 9.72,17.96 9.26,18.47 Z"
           style="fill:url(#radial-gradient-24);stroke-width:0.876491"
           id="path35" />
        <ellipse
           cx="7.9400001"
           cy="17.030001"
           rx="0.61000001"
           ry="0.38999999"
           transform="rotate(-47.16,7.9402874,17.021713)"
           style="fill:url(#linear-gradient-23);stroke-width:0.876491"
           id="ellipse35" />
        <ellipse
           cx="7.1300001"
           cy="18.16"
           rx="0.28"
           ry="0.20999999"
           transform="rotate(-83.66,7.1325758,18.155978)"
           style="fill:url(#linear-gradient-24);stroke-width:0.876491"
           id="ellipse36" />
        <path
           d="m 10.22,17.49 c -0.01,0.57 -0.15,1.06 -0.58,1.44 -0.59,0.54 -1.04,0.56 -1.72,0.59 -0.03,0 -0.07,0 -0.09,0.02 -0.04,0.03 -0.04,0.09 -0.02,0.14 0.02,0.05 0.07,0.07 0.11,0.1 0.78,0.46 1.91,-0.09 2.28,-0.83 0.32,-0.63 0.26,-1.14 0.18,-1.51 -0.05,-0.25 -0.14,-0.21 -0.18,0.06 z"
           style="fill:url(#radial-gradient-25);stroke-width:0.876491"
           id="path36" />
        <circle
           cx="8.6400003"
           cy="18.110001"
           r="2.1800001"
           style="fill:none;stroke:#204a87;stroke-width:0.613544px;stroke-miterlimit:10"
           id="circle36" />
      </g>
      <g
         id="g39"
         style="stroke-width:0.876491">
        <circle
           cx="15.65"
           cy="35.799999"
           r="2.4200001"
           style="fill:url(#radial-gradient-26);stroke-width:0.876491"
           id="circle37" />
        <path
           d="m 18.06,35.8 c 0,1.33 -1.08,2.42 -2.42,2.42 -0.67,0 -1.27,-0.27 -1.71,-0.71 0.58,0.58 1.81,0.28 2.75,-0.67 0.94,-0.94 1.24,-2.18 0.67,-2.75 0.44,0.44 0.71,1.04 0.71,1.71 z"
           style="opacity:0.67;fill:url(#linear-gradient-25);stroke-width:0.876491"
           id="path37" />
        <path
           d="m 16.33,36.2 c -0.51,0.57 -1.37,0.73 -1.82,0.33 -0.45,-0.4 -0.4,-1.19 0.11,-1.76 0.51,-0.57 1.29,-0.71 1.74,-0.31 0.45,0.4 0.48,1.17 -0.03,1.75 z"
           style="fill:url(#radial-gradient-27);stroke-width:0.876491"
           id="path38" />
        <ellipse
           cx="14.87"
           cy="34.599998"
           rx="0.68000001"
           ry="0.43000001"
           transform="rotate(-47.16,14.87407,34.599674)"
           style="fill:url(#linear-gradient-26);stroke-width:0.876491"
           id="ellipse38" />
        <ellipse
           cx="13.97"
           cy="35.849998"
           rx="0.31"
           ry="0.23"
           transform="rotate(-83.66,13.96911,35.855817)"
           style="fill:url(#linear-gradient-27);stroke-width:0.876491"
           id="ellipse39" />
        <path
           d="m 17.39,35.12 c -0.02,0.63 -0.17,1.17 -0.64,1.6 -0.66,0.6 -1.16,0.62 -1.9,0.65 -0.04,0 -0.07,0 -0.1,0.02 -0.04,0.03 -0.05,0.1 -0.02,0.15 0.03,0.05 0.08,0.08 0.13,0.11 0.87,0.51 2.12,-0.09 2.53,-0.92 0.35,-0.7 0.29,-1.26 0.2,-1.68 -0.06,-0.28 -0.15,-0.24 -0.2,0.07 z"
           style="fill:url(#radial-gradient-28);stroke-width:0.876491"
           id="path39" />
        <circle
           cx="15.65"
           cy="35.799999"
           r="2.4200001"
           style="fill:none;stroke:#204a87;stroke-width:0.613544px;stroke-miterlimit:10"
           id="circle39" />
      </g>
      <g
         id="g42"
         style="stroke-width:0.876491">
        <circle
           cx="37.529999"
           cy="10.94"
           r="1.97"
           style="fill:url(#radial-gradient-29);stroke-width:0.876491"
           id="circle40" />
        <path
           d="m 39.5,10.95 c 0,1.09 -0.88,1.97 -1.97,1.97 -0.54,0 -1.04,-0.22 -1.39,-0.58 0.47,0.47 1.47,0.23 2.24,-0.54 0.77,-0.77 1.01,-1.77 0.54,-2.24 0.35,0.36 0.58,0.85 0.58,1.39 z"
           style="opacity:0.67;fill:url(#linear-gradient-28);stroke-width:0.876491"
           id="path40" />
        <path
           d="m 38.08,11.27 c -0.42,0.47 -1.12,0.59 -1.48,0.27 -0.36,-0.32 -0.32,-0.97 0.09,-1.43 0.41,-0.46 1.05,-0.58 1.41,-0.25 0.36,0.33 0.39,0.95 -0.03,1.42 z"
           style="fill:url(#radial-gradient-30);stroke-width:0.876491"
           id="path41" />
        <ellipse
           cx="36.900002"
           cy="9.9700003"
           rx="0.55000001"
           ry="0.34999999"
           transform="rotate(-47.16,36.902724,9.9700494)"
           style="fill:url(#linear-gradient-29);stroke-width:0.876491"
           id="ellipse41" />
        <ellipse
           cx="36.169998"
           cy="10.99"
           rx="0.25"
           ry="0.19"
           transform="rotate(-83.66,36.165592,10.989099)"
           style="fill:url(#linear-gradient-30);stroke-width:0.876491"
           id="ellipse42" />
        <path
           d="m 38.95,10.39 c -0.01,0.52 -0.14,0.96 -0.52,1.3 -0.54,0.48 -0.94,0.51 -1.55,0.53 -0.03,0 -0.06,0 -0.08,0.02 -0.04,0.03 -0.04,0.08 -0.01,0.12 0.03,0.04 0.06,0.06 0.1,0.09 0.71,0.42 1.72,-0.08 2.06,-0.75 0.29,-0.57 0.24,-1.03 0.16,-1.37 -0.05,-0.23 -0.12,-0.19 -0.16,0.05 z"
           style="fill:url(#radial-gradient-31);stroke-width:0.876491"
           id="path42" />
        <circle
           cx="37.529999"
           cy="10.94"
           r="1.97"
           style="fill:none;stroke:#204a87;stroke-width:0.613544px;stroke-miterlimit:10"
           id="circle42" />
      </g>
      <g
         id="g45"
         style="stroke-width:0.876491">
        <circle
           cx="37.27"
           cy="20.049999"
           r="4.4099998"
           style="fill:url(#radial-gradient-32);stroke-width:0.876491"
           id="circle43" />
        <path
           d="m 41.68,20.05 c 0,2.44 -1.98,4.41 -4.41,4.41 -1.22,0 -2.33,-0.5 -3.12,-1.3 1.05,1.05 3.3,0.51 5.02,-1.22 1.72,-1.73 2.27,-3.97 1.22,-5.02 0.8,0.8 1.29,1.9 1.29,3.12 z"
           style="opacity:0.67;fill:url(#linear-gradient-31);stroke-width:0.876491"
           id="path43" />
        <path
           d="m 38.78,21 c -1.09,1.22 -2.92,1.55 -3.87,0.7 -0.95,-0.85 -0.85,-2.53 0.24,-3.74 1.09,-1.22 2.74,-1.51 3.69,-0.66 0.95,0.85 1.02,2.49 -0.07,3.71 z"
           style="fill:url(#radial-gradient-33);stroke-width:0.876491"
           id="path44" />
        <ellipse
           cx="35.419998"
           cy="17.48"
           rx="1.24"
           ry="0.79000002"
           transform="rotate(-47.16,35.424842,17.480406)"
           style="fill:url(#linear-gradient-32);stroke-width:0.876491"
           id="ellipse44" />
        <ellipse
           cx="34.360001"
           cy="19.84"
           rx="0.56"
           ry="0.43000001"
           transform="rotate(-83.66,34.362066,19.838858)"
           style="fill:url(#linear-gradient-33);stroke-width:0.876491"
           id="ellipse45" />
        <path
           d="m 40.46,18.81 c -0.03,1.16 -0.31,2.14 -1.17,2.92 -1.21,1.09 -2.11,1.14 -3.48,1.19 -0.06,0 -0.13,0 -0.19,0.04 -0.08,0.06 -0.08,0.19 -0.03,0.28 0.05,0.09 0.14,0.15 0.23,0.2 1.59,0.94 3.87,-0.17 4.63,-1.68 0.64,-1.27 0.53,-2.31 0.37,-3.07 -0.11,-0.52 -0.27,-0.43 -0.36,0.12 z"
           style="fill:url(#radial-gradient-34);stroke-width:0.876491"
           id="path45" />
        <circle
           cx="37.27"
           cy="20.049999"
           r="4.4099998"
           style="fill:none;stroke:#204a87;stroke-width:0.613544px;stroke-miterlimit:10"
           id="circle45" />
      </g>
      <g
         id="g48"
         style="stroke-width:0.876491">
        <circle
           cx="30.33"
           cy="26.17"
           r="5.8699999"
           style="fill:url(#radial-gradient-35);stroke-width:0.876491"
           id="circle46" />
        <path
           d="m 36.2,26.17 c 0,3.24 -2.63,5.87 -5.87,5.87 -1.62,0 -3.1,-0.66 -4.16,-1.73 1.4,1.4 4.39,0.67 6.69,-1.62 2.29,-2.3 3.02,-5.29 1.62,-6.68 1.06,1.07 1.72,2.53 1.72,4.16 z"
           style="opacity:0.67;fill:url(#linear-gradient-34);stroke-width:0.876491"
           id="path46" />
        <path
           d="m 31.98,27.16 c -1.24,1.39 -3.33,1.77 -4.43,0.8 -1.09,-0.97 -0.97,-2.89 0.28,-4.28 1.24,-1.39 3.13,-1.73 4.23,-0.76 1.09,0.97 1.17,2.85 -0.08,4.24 z"
           style="fill:url(#radial-gradient-36);stroke-width:0.876491"
           id="path47" />
        <ellipse
           cx="28.43"
           cy="23.26"
           rx="1.65"
           ry="1.05"
           transform="rotate(-47.16,28.432456,23.252079)"
           style="fill:url(#linear-gradient-35);stroke-width:0.876491"
           id="ellipse47" />
        <ellipse
           cx="26.25"
           cy="26.309999"
           rx="0.74000001"
           ry="0.56999999"
           transform="rotate(-83.66,26.25163,26.303579)"
           style="fill:url(#linear-gradient-36);stroke-width:0.876491"
           id="ellipse48" />
        <path
           d="m 34.57,24.52 c -0.04,1.54 -0.41,2.85 -1.56,3.88 -1.61,1.45 -2.81,1.52 -4.63,1.58 -0.09,0 -0.18,0 -0.25,0.06 -0.11,0.08 -0.11,0.25 -0.04,0.37 0.07,0.12 0.19,0.19 0.31,0.26 2.12,1.25 5.15,-0.23 6.16,-2.23 0.85,-1.69 0.7,-3.07 0.49,-4.08 -0.14,-0.69 -0.37,-0.57 -0.48,0.16 z"
           style="fill:url(#radial-gradient-37);stroke-width:0.876491"
           id="path48" />
        <circle
           cx="30.33"
           cy="26.17"
           r="5.8699999"
           style="fill:none;stroke:#204a87;stroke-width:0.613544px;stroke-miterlimit:10"
           id="circle48" />
      </g>
    </g>
  </g>
</svg>
