<?xml version="1.0" encoding="UTF-8" standalone="no"?>
<svg
   viewBox="0 0 48 48"
   version="1.1"
   id="svg28"
   sodipodi:docname="shallowwatersolver.svg"
   inkscape:version="1.3-dev (fdc7329b, 2022-05-31)"
   xmlns:inkscape="http://www.inkscape.org/namespaces/inkscape"
   xmlns:sodipodi="http://sodipodi.sourceforge.net/DTD/sodipodi-0.dtd"
   xmlns:xlink="http://www.w3.org/1999/xlink"
   xmlns="http://www.w3.org/2000/svg"
   xmlns:svg="http://www.w3.org/2000/svg">
  <sodipodi:namedview
     id="namedview28"
     pagecolor="#ffffff"
     bordercolor="#666666"
     borderopacity="1.0"
     inkscape:showpageshadow="2"
     inkscape:pageopacity="0.0"
     inkscape:pagecheckerboard="0"
     inkscape:deskcolor="#d1d1d1"
     showgrid="false"
     inkscape:zoom="19.666667"
     inkscape:cx="22.245763"
     inkscape:cy="24"
     inkscape:window-width="2880"
     inkscape:window-height="1557"
     inkscape:window-x="-8"
     inkscape:window-y="-8"
     inkscape:window-maximized="1"
     inkscape:current-layer="svg28" />
  <defs
     id="defs15">
    <linearGradient
       inkscape:collect="always"
       id="linearGradient31">
      <stop
         style="stop-color:#729fcf;stop-opacity:1;"
         offset="0"
         id="stop30" />
      <stop
         style="stop-color:#729fcf;stop-opacity:0;"
         offset="1"
         id="stop31" />
    </linearGradient>
    <radialGradient
       id="radial-gradient"
       cx="-10175.27"
       cy="-2399.93"
       fx="-10175.27"
       fy="-2399.93"
       r="17.35"
       gradientTransform="matrix(1.3257036,0.34183035,-0.33892797,0.79523389,12678.307,5418.48)"
       gradientUnits="userSpaceOnUse">
      <stop
         offset=".45"
         stop-color="#2c2c2c"
         stop-opacity=".5"
         id="stop1" />
      <stop
         offset=".77"
         stop-color="#2c2c2c"
         stop-opacity=".1"
         id="stop2" />
      <stop
         offset=".99"
         stop-color="#2c2c2c"
         stop-opacity="0"
         id="stop3" />
    </radialGradient>
    <linearGradient
       id="linear-gradient"
       x1="21.02"
       y1="13.63"
       x2="24.26"
       y2="20.67"
       gradientTransform="translate(10.88 -.55) rotate(6.23) scale(1 .97) skewX(-13.35)"
       gradientUnits="userSpaceOnUse">
      <stop
         offset="0"
         stop-color="#b1cae4"
         id="stop4" />
      <stop
         offset="1"
         stop-color="#3465a3"
         id="stop5" />
    </linearGradient>
    <linearGradient
       id="linear-gradient-2"
       x1="20.94"
       y1="13.38"
       x2="22.8"
       y2="17.79"
       gradientTransform="translate(10.88 -.55) rotate(6.23) scale(1 .97) skewX(-13.35)"
       gradientUnits="userSpaceOnUse">
      <stop
         offset="0"
         stop-color="#e4edf5"
         id="stop6" />
      <stop
         offset=".35"
         stop-color="#b1cae4"
         id="stop7" />
      <stop
         offset="1"
         stop-color="#3465a3"
         id="stop8" />
    </linearGradient>
    <linearGradient
       id="linear-gradient-3"
       x1="20.51"
       y1="12.47"
       x2="23.59"
       y2="19.56"
       xlink:href="#linear-gradient"
       gradientTransform="matrix(1.2438179,0,0,1.2452651,-4.3897031,-7.4611304)" />
    <linearGradient
       id="linear-gradient-4"
       x1="16.39"
       y1="17.5"
       x2="28.7"
       y2="39.48"
       xlink:href="#linear-gradient"
       gradientTransform="matrix(1.2438179,0,0,1.2452651,-4.3897031,-7.4611304)" />
    <linearGradient
       id="linear-gradient-5"
       x1="33.03"
       y1="14.48"
       x2="37.74"
       y2="23.81"
       xlink:href="#linear-gradient"
       gradientTransform="matrix(1.2438179,0,0,1.2452651,-4.3897031,-7.4611304)" />
    <linearGradient
       id="linear-gradient-6"
       x1="20.68"
       y1="19.85"
       x2="22.91"
       y2="35.93"
       xlink:href="#linear-gradient"
       gradientTransform="matrix(1.2438179,0,0,1.2452651,-4.3897031,-7.4611304)" />
    <linearGradient
       id="linear-gradient-7"
       x1="17.83"
       y1="19.5"
       x2="36.16"
       y2="42.77"
       gradientTransform="matrix(1.2367983,0.13211083,-0.39913662,1.2096982,8.5833175,-10.001471)"
       xlink:href="#linear-gradient" />
    <linearGradient
       id="linear-gradient-8"
       x1="28.86"
       y1="17.03"
       x2="26.81"
       y2="11.95"
       gradientTransform="matrix(1.3015045,-0.1085015,-0.16218733,1.1756255,-4.1409395,-1.3219734)"
       gradientUnits="userSpaceOnUse">
      <stop
         offset="0"
         stop-color="#3465a3"
         id="stop9" />
      <stop
         offset=".85"
         stop-color="#9ddae7"
         id="stop10" />
    </linearGradient>
    <linearGradient
       id="linear-gradient-9"
       x1="25.83"
       y1="38.27"
       x2="17.38"
       y2="17.29"
       gradientTransform="matrix(1.2364722,0.13513602,-0.42435881,1.1687042,9.1430355,-8.1460262)"
       gradientUnits="userSpaceOnUse">
      <stop
         offset="0"
         stop-color="#204a86"
         id="stop11" />
      <stop
         offset=".85"
         stop-color="#9ddae7"
         id="stop12" />
    </linearGradient>
    <linearGradient
       id="linear-gradient-10"
       x1="4.94"
       y1="28.43"
       x2="8.09"
       y2="30.82"
       gradientTransform="translate(10.88 -.55) rotate(6.23) scale(1 .97) skewX(-13.35)"
       gradientUnits="userSpaceOnUse">
      <stop
         offset="0"
         stop-color="#fff"
         id="stop13" />
      <stop
         offset=".35"
         stop-color="#b1cae4"
         id="stop14" />
      <stop
         offset="1"
         stop-color="#3465a3"
         id="stop15" />
    </linearGradient>
    <linearGradient
       id="linear-gradient-11"
       x1="35.3"
       y1="26.86"
       x2="39"
       y2="29.69"
       gradientTransform="matrix(1.2389322,0.11026401,-0.39764884,1.17728,8.2599249,-7.3241512)"
       xlink:href="#linear-gradient-10" />
    <linearGradient
       id="linear-gradient-12"
       x1="21.3"
       y1="14.51"
       x2="29.55"
       y2="37.35"
       xlink:href="#linear-gradient-2"
       gradientTransform="matrix(1.2438179,0,0,1.2452651,-4.3897031,-7.4611304)" />
    <linearGradient
       id="linear-gradient-13"
       x1="22.97"
       y1="36.96"
       x2="26.52"
       y2="32.14"
       xlink:href="#linear-gradient-10"
       gradientTransform="matrix(1.2438179,0,0,1.2452651,-4.3897031,-7.4611304)" />
    <linearGradient
       id="linear-gradient-14"
       x1="33.24"
       y1="14.82"
       x2="33.21"
       y2="19.64"
       xlink:href="#linear-gradient-10"
       gradientTransform="matrix(1.2438179,0,0,1.2452651,-4.3897031,-7.4611304)" />
    <linearGradient
       inkscape:collect="always"
       xlink:href="#linear-gradient"
       id="linearGradient28"
       gradientUnits="userSpaceOnUse"
       gradientTransform="matrix(1.2364722,0.13513602,-0.42435881,1.1687042,9.1430355,-8.1460262)"
       x1="21.02"
       y1="13.63"
       x2="24.26"
       y2="20.67" />
    <linearGradient
       inkscape:collect="always"
       xlink:href="#linear-gradient-2"
       id="linearGradient29"
       gradientUnits="userSpaceOnUse"
       gradientTransform="matrix(1.2364722,0.13513602,-0.42435881,1.1687042,9.1430355,-8.1460262)"
       x1="20.94"
       y1="13.38"
       x2="22.8"
       y2="17.79" />
    <linearGradient
       inkscape:collect="always"
       xlink:href="#linear-gradient-10"
       id="linearGradient30"
       gradientUnits="userSpaceOnUse"
       gradientTransform="matrix(1.2364722,0.13513602,-0.42435881,1.1687042,9.1430355,-8.1460262)"
       x1="4.94"
       y1="28.43"
       x2="8.09"
       y2="30.82" />
    <radialGradient
       inkscape:collect="always"
       xlink:href="#linearGradient31"
       id="radialGradient31"
       cx="25.4715"
       cy="26.784342"
       fx="25.4715"
       fy="26.784342"
       r="22.788331"
       gradientTransform="matrix(0.99888435,0,0,0.72287623,0.0027663,6.8310716)"
       gradientUnits="userSpaceOnUse" />
    <linearGradient
       inkscape:collect="always"
       xlink:href="#linear-gradient-8"
       id="linearGradient34"
       gradientUnits="userSpaceOnUse"
       gradientTransform="matrix(1.0350029,-0.08437435,-0.12897717,0.91420522,-20.932877,9.1389674)"
       x1="28.86"
       y1="17.03"
       x2="26.81"
       y2="11.95" />
    <linearGradient
       inkscape:collect="always"
       xlink:href="#linear-gradient"
       id="linearGradient35"
       gradientTransform="matrix(0.9891285,0,0,0.96835927,-21.130703,4.3649561)"
       x1="20.51"
       y1="12.47"
       x2="23.59"
       y2="19.56" />
    <linearGradient
       inkscape:collect="always"
       xlink:href="#linear-gradient-2"
       id="linearGradient36"
       gradientUnits="userSpaceOnUse"
       gradientTransform="matrix(0.98328693,0.10508623,-0.33746531,0.90882299,-10.368984,3.8323585)"
       x1="20.94"
       y1="13.38"
       x2="22.8"
       y2="17.79" />
    <linearGradient
       inkscape:collect="always"
       xlink:href="#linear-gradient"
       id="linearGradient37"
       gradientUnits="userSpaceOnUse"
       gradientTransform="matrix(0.98328693,0.10508623,-0.33746531,0.90882299,-10.368984,3.8323585)"
       x1="21.02"
       y1="13.63"
       x2="24.26"
       y2="20.67" />
  </defs>
  <path
     id="ellipse15"
     style="fill:url(#radialGradient31);fill-opacity:1;stroke-width:1"
     d="M 27.444246,10.930025 A 23.026933,16.102014 12.194305 0 1 47.898631,30.926415 23.026933,16.102014 12.194305 0 1 23.040673,42.879375 23.026933,16.102014 12.194305 0 1 2.5862875,22.882985 23.026933,16.102014 12.194305 0 1 27.444246,10.930025 Z" />
  <path
     d="m 29.715783,10.744645 c 0,0 -5.087214,0.298864 -5.559865,1.718466 -0.385584,1.183002 1.529895,1.606393 2.437883,1.755824 1.990108,0.32377 4.104598,0.18679 6.231527,-0.124527 2.213996,-0.311316 2.325939,-1.544128 2.151805,-2.092044 -0.174134,-0.547918 -1.728907,-1.456961 -5.273788,-1.245265 z"
     style="fill:url(#linearGradient28);stroke-width:1"
     id="path15" />
  <path
     d="m 29.554087,12.761975 c 0.733853,-0.02491 1.542335,-0.112073 2.288625,-0.361127 0.398022,-0.124526 1.218942,-0.398484 1.318447,-0.834327 0.04975,-0.199243 -0.04975,-0.386033 -0.211449,-0.498106 -0.161696,-0.112074 -0.373145,-0.161885 -0.584594,-0.199243 -1.218943,-0.224148 -2.549827,-0.09963 -3.868274,0.08717 -0.771167,0.112074 -1.579649,0.261505 -2.288625,0.65999 -0.174135,0.09963 -0.348269,0.224148 -0.41046,0.386033 -0.09951,0.273958 0.186573,0.460747 0.460213,0.560369 1.01993,0.348674 2.164242,0.249053 3.308555,0.199242 z"
     style="fill:url(#linearGradient29);stroke-width:1"
     id="path16" />
  <path
     d="m 34.977133,12.774427 c -0.174134,0.535465 -0.721414,1.108287 -2.151805,1.319981 -2.126929,0.298864 -4.241419,0.435843 -6.231527,0.124527 -0.907988,-0.149431 -2.811029,-0.56037 -2.425446,-1.755824 0.07463,-0.249052 0.310955,-0.4732 0.62191,-0.647537 l -0.02488,0.174337 c -0.186572,0.2366 -0.149258,0.535464 0.03731,0.709801 0.161696,0.18679 0.435336,0.261506 0.708976,0.336221 2.189119,0.572822 4.651878,0.647538 7.1022,0.199243 0.435336,-0.07472 0.870672,-0.174337 1.268694,-0.37358 0.41046,-0.211694 0.771167,-0.547916 0.870673,-0.933949 0.08707,0.286412 0.174134,0.56037 0.211449,0.859234 z"
     style="fill:url(#linear-gradient-3);stroke-width:1"
     id="path17" />
  <path
     d="m 32.862643,15.875138 c -2.201558,0.2366 -4.490183,0.199242 -6.579797,-0.06226 -2.0523,-0.261505 -4.141913,-0.510558 -6.318595,-0.149431 -2.773713,0.460749 -5.000147,1.967519 -6.69174,4.13428 -0.534842,0.684896 -0.870672,1.45696 -1.430391,2.116951 -0.833358,0.996212 -2.1020519,1.643749 -3.358308,2.092046 -1.256256,0.448295 -2.5373885,0.709801 -3.7936445,1.145643 -1.2562562,0.435843 -2.5125122,1.095834 -3.3458702,2.092045 -2.05229947,2.453173 0.2736399,4.121828 2.4876358,4.557671 2.574703,0.523011 5.4727987,0.2366 8.2340739,0.04981 4.427992,-0.298864 6.803685,0.747159 7.139515,3.798059 0.335831,3.0509 3.408062,4.18409 6.791246,3.760701 3.383185,-0.423391 7.326088,-3.337311 9.229129,-5.267472 1.903041,-1.930161 3.358308,-2.316193 6.82856,-2.951278 3.470252,-0.635086 5.87082,-2.752037 5.584742,-4.271259 -0.460212,-2.490531 -3.358308,-2.20412 -3.544881,-4.009754 -0.186573,-1.805634 1.505019,-2.639962 2.413007,-4.184091 0.907987,-1.544128 0.982616,-3.611268 -2.52495,-4.445596 -2.102053,-0.498107 -5.149406,0.174337 -6.467853,0.597727 -2.114491,0.697348 -3.320994,0.834327 -4.651879,0.98376 z"
     style="fill:url(#linear-gradient-4);stroke-width:1"
     id="path18" />
  <path
     d="m 46.084426,18.826416 c -0.907986,1.544129 -2.375691,2.204119 -2.189119,4.009754 -0.01244,0.37358 -0.07462,0.61018 -0.06219,0.647538 -1.903041,-1.668655 -0.149257,-3.387121 0.907988,-4.520313 0.845796,-0.921496 1.803536,-1.755824 1.753783,-2.49053 0.460213,0.261505 0,1.64375 -0.398022,2.341099 z"
     style="fill:url(#linear-gradient-5);stroke-width:1"
     id="path19" />
  <path
     d="m 42.054457,31.216804 c -3.470252,0.622633 -4.937958,1.03357 -6.816122,2.938825 -1.903041,1.917709 -5.845944,4.856535 -9.229129,5.267472 -3.395622,0.410937 -6.455415,-0.709801 -6.791246,-3.7607 -0.323392,-3.063353 -2.711523,-4.109375 -7.127076,-3.798059 -2.773714,0.186789 -5.6593715,0.460748 -8.2465127,-0.04981 -2.1020523,-0.42339 -4.3036099,-1.967519 -2.7488375,-4.208996 -0.074629,0.796971 0.074629,2.44072 2.2761867,2.776942 4.0175318,0.610179 11.5923835,-0.622633 14.5775465,0 1.256255,0.261505 1.915479,1.27017 2.276186,2.316193 0.174135,0.523011 0.286078,1.083381 0.373145,1.64375 0.149258,0.983759 0.161696,2.079593 0.945302,2.776941 0.858235,0.772064 2.226434,1.108286 3.544881,1.095834 2.151805,0 5.025025,-1.432056 7.201706,-3.00109 2.164242,-1.569033 3.706577,-4.221449 6.753931,-4.719555 3.047353,-0.498105 4.826013,-0.65999 6.530043,-1.867897 1.679155,-1.195455 1.71647,-2.179214 1.44283,-2.664868 -0.03731,-0.06226 0,-0.149431 0.07463,-0.261505 0.261202,0.311316 0.472651,0.709801 0.572157,1.245264 0.286078,1.506772 -2.11449,3.648627 -5.584743,4.27126 z"
     style="fill:url(#linear-gradient-6);stroke-width:1"
     id="path20" />
  <path
     d="m 32.128791,16.746824 c -1.903042,0.174337 -3.893151,0.124525 -5.709126,-0.09962 -3.034914,-0.373579 -6.156898,-0.572822 -9.204252,1.27017 -0.858234,0.523012 -1.629401,1.270171 -1.965232,2.129404 -0.33583,0.859233 -0.111943,1.681108 -0.572156,2.515436 -0.261201,0.485653 -0.82092,0.809421 -1.343323,1.08338 -0.932863,0.485653 -1.890603,0.896591 -2.885658,1.207907 -0.8955486,0.286411 -1.965232,0.498106 -2.7861518,0.996213 -0.4975272,0.298863 -0.9204253,0.809422 -0.907987,1.295075 0,0.697349 0.8333579,1.008665 1.5920869,1.108286 0.6592234,0.08717 1.3433233,0.112074 2.0398609,0.06226 1.592087,-0.112075 3.209051,-0.572822 4.813576,-0.871686 1.604525,-0.298864 3.283678,-0.448296 4.627002,0.07472 0.982616,0.386032 1.691592,1.108287 2.102052,1.979971 0.621909,1.307529 0.310955,2.926374 0.696539,4.321071 0.435336,1.569034 1.865726,2.627509 3.843396,2.428267 1.728907,-0.174337 3.992656,-1.282623 5.124531,-2.652414 0.684099,-0.834328 1.144312,-1.768278 1.753783,-2.62751 0.60947,-0.859233 1.43039,-1.718466 2.475198,-2.092046 1.131873,-0.410937 2.276186,-0.186789 3.40806,-0.161884 1.306009,0.02491 2.686647,-0.249053 3.992656,-0.772064 0.957739,-0.386033 1.990108,-0.597728 2.0523,-1.681108 0.03731,-0.697349 -0.671663,-1.070928 -1.281133,-1.382245 -0.833358,-0.42339 -1.592087,-0.946401 -2.263749,-1.544129 -0.572156,-0.510558 -1.09456,-1.245265 -0.721414,-2.029782 0.286078,-0.597726 0.995054,-0.971306 1.629401,-1.307527 1.16919,-0.61018 2.151806,-1.569035 1.753783,-2.702226 -0.373145,-1.021117 -1.616962,-1.481866 -2.699084,-1.718466 -1.85329,-0.410937 -4.452868,0.09963 -5.584742,0.435843 -1.791098,0.535464 -2.835905,0.635085 -3.980217,0.747159 z"
     style="fill:url(#linear-gradient-7);stroke-width:1"
     id="path21" />
  <path
     d="m 29.715783,10.744645 c 0,0 -5.087214,0.298864 -5.559865,1.718466 -0.385584,1.183002 1.529895,1.606393 2.437883,1.755824 1.990108,0.32377 4.104598,0.18679 6.231527,-0.124527 2.213996,-0.311316 2.325939,-1.544128 2.151805,-2.092044 -0.174134,-0.547918 -1.728907,-1.456961 -5.273788,-1.245265 z"
     style="fill:none;stroke:url(#linear-gradient-8);stroke-width:0.5px;stroke-linecap:round;stroke-linejoin:round"
     id="path22" />
  <path
     d="m 32.862643,15.875138 c -2.201558,0.2366 -4.490183,0.199242 -6.579797,-0.06226 -2.0523,-0.261505 -4.141913,-0.510558 -6.318595,-0.149431 -2.773713,0.460749 -5.000147,1.967519 -6.69174,4.13428 -0.534842,0.684896 -0.870672,1.45696 -1.430391,2.116951 -0.833358,0.996212 -2.1020519,1.643749 -3.358308,2.092046 -1.256256,0.448295 -2.5373885,0.709801 -3.7936445,1.145643 -1.2562562,0.435843 -2.5125122,1.095834 -3.3458702,2.092045 -2.05229947,2.453173 0.2736399,4.121828 2.4876358,4.557671 2.574703,0.523011 5.4727987,0.2366 8.2340739,0.04981 4.427992,-0.298864 6.803685,0.747159 7.139515,3.798059 0.335831,3.0509 3.408062,4.18409 6.791246,3.760701 3.383185,-0.423391 7.326088,-3.337311 9.229129,-5.267472 1.903041,-1.930161 3.358308,-2.316193 6.82856,-2.951278 3.470252,-0.635086 5.87082,-2.752037 5.584742,-4.271259 -0.460212,-2.490531 -3.358308,-2.20412 -3.544881,-4.009754 -0.186573,-1.805634 1.505019,-2.639962 2.413007,-4.184091 0.907987,-1.544128 0.982616,-3.611268 -2.52495,-4.445596 -2.102053,-0.498107 -5.149406,0.174337 -6.467853,0.597727 -2.114491,0.697348 -3.320994,0.834327 -4.651879,0.98376 z"
     style="fill:none;stroke:url(#linear-gradient-9);stroke-width:0.7px;stroke-linecap:round;stroke-linejoin:round"
     id="path23" />
  <path
     d="m 1.8418246,28.078736 c 0,0 -0.062191,0.02491 -0.087068,0.01245 0.3731454,-0.909043 1.2065034,-1.382244 2.0896141,-1.867897 0.7214144,-0.410937 1.5920869,-0.647538 2.363254,-0.647538 0.1990108,0 0.4477744,0.01245 0.2114491,0.211695 -0.3233927,0.273958 -0.8955489,0.448295 -1.2811325,0.572822 -1.5174578,0.523012 -2.1766813,0.933949 -2.425445,1.070928 -0.2736399,0.161885 -0.5348416,0.336222 -0.7587288,0.560369 -0.037315,0.02491 -0.074629,0.06226 -0.1119436,0.08717 z"
     style="fill:url(#linearGradient30);stroke-width:1"
     id="path24" />
  <path
     d="m 38.036925,30.320213 c 1.91548,-0.859232 5.696686,-1.40715 6.816122,-2.415814 1.119436,-1.008665 1.654278,-0.784518 1.318447,-0.199242 -0.335831,0.585274 -1.679154,1.407149 -3.806083,1.892803 -2.126928,0.485653 -2.885657,0.460747 -4.316047,0.722253 z"
     style="fill:url(#linear-gradient-11);stroke-width:1"
     id="path25" />
  <path
     d="m 27.452035,17.979636 c -2.251311,-0.42339 -4.067284,-1.095833 -6.579797,-0.684896 -1.716468,0.273958 -4.204104,1.058475 -4.664316,2.889015 -0.161697,0.635085 0.08707,1.232813 0.547279,1.631298 0.460212,0.398484 1.082122,0.61018 1.728906,0.734706 1.380639,0.273958 2.848344,0.336221 4.303611,0.398485 1.318447,0.04981 2.66177,-0.03736 3.868274,0.286411 1.15675,0.311316 2.201557,0.796969 3.333431,1.145643 1.131875,0.348675 2.388131,0.56037 3.681701,0.298864 1.293571,-0.261505 2.649333,-1.070927 3.233926,-2.191666 0.161697,-0.311317 0.261202,-0.635085 0.447776,-0.933949 0.833357,-1.319981 2.58714,-1.656203 3.880711,-2.341098 0.671661,-0.361128 1.442829,-0.996213 1.529896,-1.681109 0.04975,-0.435842 -0.161697,-0.821874 -0.497527,-1.070928 -0.335831,-0.249053 -0.783605,-0.373579 -1.23138,-0.435843 -1.057245,-0.161883 -2.201557,-0.04981 -3.333432,0.18679 -1.753783,0.37358 -3.420499,1.070929 -5.136967,1.569034 -1.716469,0.498106 -3.507567,0.510559 -5.099654,0.211696 z"
     style="fill:url(#linear-gradient-12);stroke-width:1"
     id="path26" />
  <path
     d="m 21.320013,34.666189 c 0.186572,1.855444 0.932863,2.465624 2.425444,2.938825 1.492582,0.4732 3.743892,-0.286411 4.950395,-0.846781 0,0 -2.624455,0.585276 -4.490182,0.06226 -1.865727,-0.523011 -2.898096,-2.154309 -2.898096,-2.154309 z"
     style="fill:url(#linear-gradient-13);stroke-width:1"
     id="path27" />
  <path
     d="m 45.288384,15.800422 c -1.691593,-1.332434 -3.706577,-1.058475 -4.826014,-0.834328 0,0 2.375692,0.01245 3.61951,0.772065 1.243817,0.759611 1.492581,1.730918 1.492581,1.730918 0,0 0.373146,-1.133191 -0.286077,-1.668655 z"
     style="fill:url(#linear-gradient-14);stroke-width:1"
     id="path28" />
  <path
     d="m 5.9912007,18.522368 c 0,0 -4.0455346,0.232407 -4.4214036,1.336336 -0.3066302,0.919941 1.2166272,1.249184 1.9386918,1.365387 1.5826051,0.251774 3.2641232,0.145254 4.9555332,-0.09684 C 10.224671,20.885165 10.313692,19.92649 10.175214,19.500412 10.036737,19.074333 8.8003257,18.367431 5.9813095,18.532053 Z"
     style="fill:url(#linearGradient37);stroke-width:0.999999"
     id="path31" />
  <path
     d="m 5.8626142,20.091111 c 0.5835862,-0.01937 1.22652,-0.08715 1.8199965,-0.280825 0.3165214,-0.09684 0.9693463,-0.309874 1.0484763,-0.6488 C 8.77065,19.006548 8.691524,18.861294 8.5629351,18.774142 8.4343487,18.686992 8.2661969,18.648255 8.0980451,18.619204 7.128698,18.4449 6.0703314,18.541734 5.0218552,18.686994 c -0.6132596,0.08715 -1.2561934,0.203355 -1.8199965,0.51323 -0.1384784,0.07747 -0.276956,0.174305 -0.3264125,0.300192 -0.079134,0.213039 0.1483695,0.358292 0.3659779,0.435761 0.8110848,0.271141 1.7210826,0.193672 2.6310813,0.154937 z"
     style="fill:url(#linearGradient36);stroke-width:0.999999"
     id="path32" />
  <path
     d="m 10.175214,20.100794 c -0.138477,0.416395 -0.5736938,0.86184 -1.7111919,1.02646 -1.69141,0.232407 -3.3729281,0.338926 -4.9555332,0.09684 -0.7220646,-0.116206 -2.2354308,-0.435765 -1.9288014,-1.36539 0.059348,-0.193671 0.2472825,-0.367976 0.494565,-0.503546 l -0.019785,0.13557 c -0.1483688,0.183988 -0.1186953,0.416395 0.02967,0.551965 0.1285865,0.145254 0.3461948,0.203356 0.5638031,0.261456 1.7408658,0.445446 3.6993398,0.503547 5.6479236,0.154938 0.3461947,-0.0581 0.6923895,-0.13557 1.0089108,-0.290508 0.3264125,-0.16462 0.6132594,-0.426077 0.6923901,-0.726269 0.069241,0.222723 0.1384779,0.435762 0.1681519,0.668168 z"
     style="fill:url(#linearGradient35);stroke-width:0.999999"
     id="path33" />
  <path
     d="m 5.9912007,18.522368 c 0,0 -4.0455346,0.232407 -4.4214036,1.336336 -0.3066302,0.919941 1.2166272,1.249184 1.9386918,1.365387 1.5826051,0.251774 3.2641232,0.145254 4.9555332,-0.09684 C 10.224671,20.885165 10.313692,19.92649 10.175214,19.500412 10.036737,19.074333 8.8003257,18.367431 5.9813095,18.532053 Z"
     style="fill:none;stroke:url(#linearGradient34);stroke-width:0.5px;stroke-linecap:round;stroke-linejoin:round"
     id="path34" />
</svg>
