<?xml version="1.0" encoding="UTF-8" standalone="no"?>
<svg
   viewBox="0 0 48 48"
   version="1.1"
   id="svg66"
   sodipodi:docname="skyfield.svg"
   inkscape:version="1.3 (0e150ed6c4, 2023-07-21)"
   xmlns:inkscape="http://www.inkscape.org/namespaces/inkscape"
   xmlns:sodipodi="http://sodipodi.sourceforge.net/DTD/sodipodi-0.dtd"
   xmlns:xlink="http://www.w3.org/1999/xlink"
   xmlns="http://www.w3.org/2000/svg"
   xmlns:svg="http://www.w3.org/2000/svg">
  <sodipodi:namedview
     id="namedview66"
     pagecolor="#ffffff"
     bordercolor="#666666"
     borderopacity="1.0"
     inkscape:showpageshadow="2"
     inkscape:pageopacity="0.0"
     inkscape:pagecheckerboard="0"
     inkscape:deskcolor="#d1d1d1"
     inkscape:zoom="23.020833"
     inkscape:cx="24"
     inkscape:cy="24"
     inkscape:window-width="2560"
     inkscape:window-height="1377"
     inkscape:window-x="-8"
     inkscape:window-y="-8"
     inkscape:window-maximized="1"
     inkscape:current-layer="svg66" />
  <defs
     id="defs16">
    <linearGradient
       id="linearGradient72"
       inkscape:collect="always">
      <stop
         style="stop-color:#000000;stop-opacity:0.4591195;"
         offset="0"
         id="stop72" />
      <stop
         style="stop-color:#000000;stop-opacity:0;"
         offset="1"
         id="stop73" />
    </linearGradient>
    <linearGradient
       id="linear-gradient"
       x1="24"
       y1="19.21"
       x2="24"
       y2="38.27"
       gradientUnits="userSpaceOnUse">
      <stop
         offset="0"
         stop-color="#fff"
         stop-opacity="0"
         id="stop1" />
      <stop
         offset="1"
         stop-color="#fff8f8"
         id="stop2" />
    </linearGradient>
    <linearGradient
       id="linear-gradient-2"
       x1="28.87"
       y1="14.7"
       x2="30.98"
       y2="22.5"
       gradientTransform="matrix(1, 0, 0, 1, 0, 0)"
       gradientUnits="userSpaceOnUse">
      <stop
         offset="0"
         stop-color="#b2cbe5"
         id="stop3" />
      <stop
         offset="1"
         stop-color="#3465a4"
         id="stop4" />
    </linearGradient>
    <linearGradient
       id="linear-gradient-3"
       x1="29.54"
       y1="14.31"
       x2="29.54"
       y2="18.22"
       gradientTransform="matrix(1, 0, 0, 1, 0, 0)"
       gradientUnits="userSpaceOnUse">
      <stop
         offset="0"
         stop-color="snow"
         id="stop5" />
      <stop
         offset="1"
         stop-color="#fffdfd"
         stop-opacity=".4"
         id="stop6" />
    </linearGradient>
    <linearGradient
       id="linear-gradient-4"
       x1="29.54"
       y1="13.31"
       x2="29.54"
       y2="18.62"
       gradientTransform="matrix(1, 0, 0, 1, 0, 0)"
       gradientUnits="userSpaceOnUse">
      <stop
         offset="0"
         stop-color="snow"
         id="stop7" />
      <stop
         offset="1"
         stop-color="#fffdfd"
         stop-opacity=".19"
         id="stop8" />
    </linearGradient>
    <linearGradient
       id="linear-gradient-5"
       x1="20.21"
       y1="19.7"
       x2="22.32"
       y2="27.5"
       xlink:href="#linear-gradient-2" />
    <linearGradient
       id="linear-gradient-6"
       x1="20.88"
       y1="19.32"
       x2="20.88"
       y2="23.22"
       xlink:href="#linear-gradient-3" />
    <linearGradient
       id="linear-gradient-7"
       x1="20.88"
       y1="18.31"
       x2="20.88"
       y2="23.63"
       xlink:href="#linear-gradient-4" />
    <linearGradient
       id="linear-gradient-8"
       x1="11.55"
       y1="14.7"
       x2="13.66"
       y2="22.5"
       xlink:href="#linear-gradient-2" />
    <linearGradient
       id="linear-gradient-9"
       x1="12.22"
       y1="14.32"
       x2="12.22"
       y2="18.23"
       xlink:href="#linear-gradient-3" />
    <linearGradient
       id="linear-gradient-10"
       x1="12.22"
       y1="13.31"
       x2="12.22"
       y2="18.63"
       xlink:href="#linear-gradient-4" />
    <linearGradient
       id="linear-gradient-11"
       x1="11.55"
       y1="24.7"
       x2="13.66"
       y2="32.5"
       xlink:href="#linear-gradient-2" />
    <linearGradient
       id="linear-gradient-12"
       x1="12.22"
       y1="24.32"
       x2="12.22"
       y2="28.23"
       xlink:href="#linear-gradient-3" />
    <linearGradient
       id="linear-gradient-13"
       x1="12.22"
       y1="23.31"
       x2="12.22"
       y2="28.63"
       xlink:href="#linear-gradient-4" />
    <linearGradient
       id="linear-gradient-14"
       x1="37.54"
       y1="19.7"
       x2="39.64"
       y2="27.5"
       xlink:href="#linear-gradient-2" />
    <linearGradient
       id="linear-gradient-15"
       x1="38.2"
       y1="19.32"
       x2="38.2"
       y2="23.22"
       xlink:href="#linear-gradient-3" />
    <linearGradient
       id="linear-gradient-16"
       x1="38.2"
       y1="18.31"
       x2="38.2"
       y2="23.63"
       xlink:href="#linear-gradient-4" />
    <linearGradient
       id="linear-gradient-17"
       x1="28.88"
       y1="24.7"
       x2="30.98"
       y2="32.5"
       xlink:href="#linear-gradient-2" />
    <linearGradient
       id="linear-gradient-18"
       x1="29.54"
       y1="24.32"
       x2="29.54"
       y2="28.23"
       xlink:href="#linear-gradient-3" />
    <linearGradient
       id="linear-gradient-19"
       x1="29.54"
       y1="23.31"
       x2="29.54"
       y2="28.63"
       xlink:href="#linear-gradient-4" />
    <linearGradient
       id="linear-gradient-20"
       x1="20.21"
       y1="29.7"
       x2="22.32"
       y2="37.5"
       xlink:href="#linear-gradient-2" />
    <linearGradient
       id="linear-gradient-21"
       x1="20.88"
       y1="29.32"
       x2="20.88"
       y2="33.23"
       xlink:href="#linear-gradient-3" />
    <linearGradient
       id="linear-gradient-22"
       x1="20.88"
       y1="28.31"
       x2="20.88"
       y2="33.63"
       xlink:href="#linear-gradient-4" />
    <linearGradient
       id="linear-gradient-23"
       x1="37.54"
       y1="29.7"
       x2="39.64"
       y2="37.5"
       xlink:href="#linear-gradient-2" />
    <linearGradient
       id="linear-gradient-24"
       x1="38.21"
       y1="29.32"
       x2="38.21"
       y2="33.23"
       xlink:href="#linear-gradient-3" />
    <linearGradient
       id="linear-gradient-25"
       x1="38.2"
       y1="28.31"
       x2="38.2"
       y2="33.63"
       xlink:href="#linear-gradient-4" />
    <linearGradient
       id="linear-gradient-26"
       x1="1.24"
       y1="22.4"
       x2="10.84"
       y2="26.15"
       gradientTransform="matrix(1, 0, 0, 1, 0, 0)"
       gradientUnits="userSpaceOnUse">
      <stop
         offset="0"
         stop-color="#b9bcb5"
         id="stop9" />
      <stop
         offset="1"
         stop-color="#232729"
         id="stop10" />
    </linearGradient>
    <linearGradient
       id="linear-gradient-27"
       x1="37.15"
       y1="21.85"
       x2="46.76"
       y2="25.6"
       xlink:href="#linear-gradient-26" />
    <linearGradient
       id="linear-gradient-28"
       x1="7.52"
       y1="6.3"
       x2="39.92"
       y2="18.95"
       xlink:href="#linear-gradient-26" />
    <linearGradient
       id="linear-gradient-29"
       x1="8.08"
       y1="29.05"
       x2="40.47"
       y2="41.7"
       xlink:href="#linear-gradient-26" />
    <linearGradient
       id="linear-gradient-30"
       x1="-1.82"
       y1="19.84"
       x2="43.45"
       y2="46.15"
       gradientTransform="matrix(1, 0, 0, 1, 0, 0)"
       gradientUnits="userSpaceOnUse">
      <stop
         offset="0"
         stop-color="#e9b96e"
         id="stop11" />
      <stop
         offset="1"
         stop-color="#c17d11"
         id="stop12" />
    </linearGradient>
    <linearGradient
       id="linear-gradient-31"
       x1="41.99"
       y1="36.26"
       x2="41.99"
       y2="17.3"
       gradientTransform="matrix(1, 0, 0, 1, 0, 0)"
       gradientUnits="userSpaceOnUse">
      <stop
         offset="0"
         stop-color="#c17d11"
         id="stop13" />
      <stop
         offset="1"
         stop-color="#8f5902"
         id="stop14" />
    </linearGradient>
    <linearGradient
       id="linear-gradient-32"
       x1="16.28"
       y1="5.46"
       x2="37.41"
       y2="23.42"
       gradientUnits="userSpaceOnUse">
      <stop
         offset="0"
         stop-color="#efcc96"
         id="stop15" />
      <stop
         offset="1"
         stop-color="#c17d11"
         id="stop16" />
    </linearGradient>
    <linearGradient
       id="linear-gradient-33"
       x1="24.33"
       y1="40.81"
       x2="23.74"
       y2="32.58"
       xlink:href="#linear-gradient-31" />
    <linearGradient
       id="linear-gradient-34"
       x1="11.19"
       y1="41.37"
       x2="44.01"
       y2="23.59"
       xlink:href="#linear-gradient-30" />
    <linearGradient
       id="linear-gradient-35"
       x1="40.22"
       y1="34.73"
       x2="41.15"
       y2="13.08"
       xlink:href="#linear-gradient-30" />
    <linearGradient
       id="linear-gradient-36"
       x1="8.83"
       y1="7.75"
       x2="38.89"
       y2="19.48"
       xlink:href="#linear-gradient-31" />
    <linearGradient
       id="linear-gradient-37"
       x1="11.31"
       y1="30.13"
       x2="3.96"
       y2="19.99"
       xlink:href="#linear-gradient-31" />
    <linearGradient
       inkscape:collect="always"
       xlink:href="#linear-gradient-2"
       id="linearGradient66"
       gradientUnits="userSpaceOnUse"
       x1="28.87"
       y1="14.7"
       x2="30.98"
       y2="22.5" />
    <linearGradient
       inkscape:collect="always"
       xlink:href="#linear-gradient-3"
       id="linearGradient67"
       gradientUnits="userSpaceOnUse"
       x1="29.54"
       y1="14.31"
       x2="29.54"
       y2="18.22" />
    <linearGradient
       inkscape:collect="always"
       xlink:href="#linear-gradient-4"
       id="linearGradient68"
       gradientUnits="userSpaceOnUse"
       x1="29.54"
       y1="13.31"
       x2="29.54"
       y2="18.62" />
    <linearGradient
       inkscape:collect="always"
       xlink:href="#linear-gradient-26"
       id="linearGradient69"
       gradientUnits="userSpaceOnUse"
       x1="1.24"
       y1="22.4"
       x2="10.84"
       y2="26.15" />
    <linearGradient
       inkscape:collect="always"
       xlink:href="#linear-gradient-30"
       id="linearGradient70"
       gradientUnits="userSpaceOnUse"
       x1="-1.82"
       y1="19.84"
       x2="43.45"
       y2="46.15" />
    <linearGradient
       inkscape:collect="always"
       xlink:href="#linear-gradient-31"
       id="linearGradient71"
       gradientUnits="userSpaceOnUse"
       x1="41.99"
       y1="36.26"
       x2="41.99"
       y2="17.3" />
    <radialGradient
       inkscape:collect="always"
       xlink:href="#linearGradient72"
       id="radialGradient73"
       cx="24.130318"
       cy="43.373756"
       fx="24.130318"
       fy="43.373756"
       r="23.739367"
       gradientTransform="matrix(1,0,0,0.23055811,0,32.483088)"
       gradientUnits="userSpaceOnUse" />
  </defs>
  <ellipse
     style="color:#000000;overflow:visible;opacity:1;fill:url(#radialGradient73);stroke:none;stroke-width:1;stroke-linecap:round"
     id="path71"
     cx="24.130318"
     cy="42.483257"
     rx="23.739367"
     ry="5.4733033" />
  <g
     id="ART"
     style="isolation:isolate;stroke-width:0.802762"
     transform="matrix(1.2435166,0,0,1.2478829,-5.8009613,-4.136793)">
    <rect
       x="6.3400002"
       y="12.43"
       width="35.330002"
       height="23.15"
       style="fill:#39b4ea;stroke-width:0.802762"
       id="rect28" />
    <rect
       x="6.3400002"
       y="12.43"
       width="35.330002"
       height="23.15"
       style="fill:url(#linear-gradient);stroke-width:0.802762"
       id="rect29" />
    <g
       id="g53"
       style="stroke-width:0.802762">
      <g
         id="g31"
         style="stroke-width:0.802762">
        <path
           d="m 33.15,15.97 h -1.36 c -0.07,-1.14 -1.01,-2.04 -2.16,-2.04 -1.15,0 -2.09,0.9 -2.16,2.04 h -1.31 c -0.72,0 -1.3,0.58 -1.3,1.3 0,0.72 0.58,1.3 1.3,1.3 h 3.29 c 0.42,0 0.81,-0.18 1.08,-0.47 h 2.62 c 0.59,0 1.07,-0.48 1.07,-1.07 0,-0.59 -0.48,-1.07 -1.07,-1.07 z"
           style="fill:url(#linearGradient66);stroke-width:0.802762"
           id="path29" />
        <path
           d="m 33.15,15.97 h -1.36 c -0.07,-1.14 -1.01,-2.04 -2.16,-2.04 -1.15,0 -2.09,0.9 -2.16,2.04 h -1.31 c -0.72,0 -1.3,0.58 -1.3,1.3 0,0.72 0.58,1.3 1.3,1.3 h 3.29 c 0.42,0 0.81,-0.18 1.08,-0.47 h 2.62 c 0.59,0 1.07,-0.48 1.07,-1.07 0,-0.59 -0.48,-1.07 -1.07,-1.07 z"
           style="fill:url(#linearGradient67);stroke-width:0.802762"
           id="path30" />
        <path
           d="m 34.22,17.04 c 0,0.59 -0.48,1.07 -1.07,1.07 h -0.07 c 0.28,-0.14 0.48,-0.43 0.48,-0.77 0,-0.47 -0.38,-0.84 -0.84,-0.84 h -1.59 v -0.57 c 0,-0.71 -0.57,-1.27 -1.27,-1.27 -0.7,0 -1.28,0.57 -1.28,1.27 v 0.57 h -1.47 c -0.58,0 -1.04,0.47 -1.04,1.04 0,0.57 0.46,1.04 1.04,1.04 h -0.94 c -0.71,0 -1.3,-0.58 -1.3,-1.3 0,-0.72 0.59,-1.3 1.3,-1.3 h 1.32 c 0.07,-1.13 1.01,-2.03 2.15,-2.03 1.14,0 2.09,0.91 2.16,2.03 h 1.36 c 0.6,0 1.07,0.49 1.07,1.07 z"
           style="fill:url(#linearGradient68);stroke-width:0.802762"
           id="path31" />
      </g>
      <g
         id="g34"
         style="stroke-width:0.802762">
        <path
           d="m 24.49,20.97 h -1.36 c -0.07,-1.14 -1.01,-2.04 -2.16,-2.04 -1.15,0 -2.09,0.9 -2.16,2.04 H 17.5 c -0.72,0 -1.3,0.58 -1.3,1.3 0,0.72 0.58,1.3 1.3,1.3 h 3.29 c 0.42,0 0.81,-0.18 1.08,-0.47 h 2.62 c 0.59,0 1.07,-0.48 1.07,-1.07 0,-0.59 -0.48,-1.07 -1.07,-1.07 z"
           style="fill:url(#linear-gradient-5);stroke-width:0.802762"
           id="path32" />
        <path
           d="m 24.49,20.97 h -1.36 c -0.07,-1.14 -1.01,-2.04 -2.16,-2.04 -1.15,0 -2.09,0.9 -2.16,2.04 H 17.5 c -0.72,0 -1.3,0.58 -1.3,1.3 0,0.72 0.58,1.3 1.3,1.3 h 3.29 c 0.42,0 0.81,-0.18 1.08,-0.47 h 2.62 c 0.59,0 1.07,-0.48 1.07,-1.07 0,-0.59 -0.48,-1.07 -1.07,-1.07 z"
           style="fill:url(#linear-gradient-6);stroke-width:0.802762"
           id="path33" />
        <path
           d="m 25.56,22.04 c 0,0.59 -0.48,1.07 -1.07,1.07 h -0.07 c 0.28,-0.14 0.48,-0.43 0.48,-0.77 0,-0.47 -0.38,-0.84 -0.84,-0.84 h -1.59 v -0.57 c 0,-0.71 -0.57,-1.27 -1.27,-1.27 -0.7,0 -1.28,0.57 -1.28,1.27 v 0.57 h -1.47 c -0.58,0 -1.04,0.47 -1.04,1.04 0,0.57 0.46,1.04 1.04,1.04 h -0.94 c -0.71,0 -1.3,-0.58 -1.3,-1.3 0,-0.72 0.59,-1.3 1.3,-1.3 h 1.32 c 0.07,-1.13 1.01,-2.03 2.15,-2.03 1.14,0 2.09,0.91 2.16,2.03 h 1.36 c 0.6,0 1.07,0.49 1.07,1.07 z"
           style="fill:url(#linear-gradient-7);stroke-width:0.802762"
           id="path34" />
      </g>
      <g
         id="g37"
         style="stroke-width:0.802762">
        <path
           d="m 15.83,15.97 h -1.36 c -0.07,-1.14 -1.01,-2.04 -2.16,-2.04 -1.15,0 -2.09,0.9 -2.16,2.04 H 8.84 c -0.72,0 -1.3,0.58 -1.3,1.3 0,0.72 0.58,1.3 1.3,1.3 h 3.29 c 0.42,0 0.81,-0.18 1.08,-0.47 h 2.62 c 0.59,0 1.07,-0.48 1.07,-1.07 0,-0.59 -0.48,-1.07 -1.07,-1.07 z"
           style="fill:url(#linear-gradient-8);stroke-width:0.802762"
           id="path35" />
        <path
           d="m 15.83,15.97 h -1.36 c -0.07,-1.14 -1.01,-2.04 -2.16,-2.04 -1.15,0 -2.09,0.9 -2.16,2.04 H 8.84 c -0.72,0 -1.3,0.58 -1.3,1.3 0,0.72 0.58,1.3 1.3,1.3 h 3.29 c 0.42,0 0.81,-0.18 1.08,-0.47 h 2.62 c 0.59,0 1.07,-0.48 1.07,-1.07 0,-0.59 -0.48,-1.07 -1.07,-1.07 z"
           style="fill:url(#linear-gradient-9);stroke-width:0.802762"
           id="path36" />
        <path
           d="m 16.9,17.04 c 0,0.59 -0.48,1.07 -1.07,1.07 h -0.07 c 0.28,-0.14 0.48,-0.43 0.48,-0.77 0,-0.47 -0.38,-0.84 -0.84,-0.84 h -1.59 v -0.57 c 0,-0.71 -0.57,-1.27 -1.27,-1.27 -0.7,0 -1.28,0.57 -1.28,1.27 V 16.5 H 9.79 c -0.58,0 -1.04,0.47 -1.04,1.04 0,0.57 0.46,1.04 1.04,1.04 H 8.85 c -0.71,0 -1.3,-0.58 -1.3,-1.3 0,-0.72 0.59,-1.3 1.3,-1.3 h 1.32 c 0.07,-1.13 1.01,-2.03 2.15,-2.03 1.14,0 2.09,0.91 2.16,2.03 h 1.36 c 0.6,0 1.07,0.49 1.07,1.07 z"
           style="fill:url(#linear-gradient-10);stroke-width:0.802762"
           id="path37" />
      </g>
      <g
         id="g40"
         style="stroke-width:0.802762">
        <path
           d="m 15.83,25.97 h -1.36 c -0.07,-1.14 -1.01,-2.04 -2.16,-2.04 -1.15,0 -2.09,0.9 -2.16,2.04 H 8.84 c -0.72,0 -1.3,0.58 -1.3,1.3 0,0.72 0.58,1.3 1.3,1.3 h 3.29 c 0.42,0 0.81,-0.18 1.08,-0.47 h 2.62 c 0.59,0 1.07,-0.48 1.07,-1.07 0,-0.59 -0.48,-1.07 -1.07,-1.07 z"
           style="fill:url(#linear-gradient-11);stroke-width:0.802762"
           id="path38" />
        <path
           d="m 15.83,25.97 h -1.36 c -0.07,-1.14 -1.01,-2.04 -2.16,-2.04 -1.15,0 -2.09,0.9 -2.16,2.04 H 8.84 c -0.72,0 -1.3,0.58 -1.3,1.3 0,0.72 0.58,1.3 1.3,1.3 h 3.29 c 0.42,0 0.81,-0.18 1.08,-0.47 h 2.62 c 0.59,0 1.07,-0.48 1.07,-1.07 0,-0.59 -0.48,-1.07 -1.07,-1.07 z"
           style="fill:url(#linear-gradient-12);stroke-width:0.802762"
           id="path39" />
        <path
           d="m 16.9,27.04 c 0,0.59 -0.48,1.07 -1.07,1.07 h -0.07 c 0.28,-0.14 0.48,-0.43 0.48,-0.77 0,-0.47 -0.38,-0.84 -0.84,-0.84 h -1.59 v -0.57 c 0,-0.71 -0.57,-1.27 -1.27,-1.27 -0.7,0 -1.28,0.57 -1.28,1.27 V 26.5 H 9.79 c -0.58,0 -1.04,0.47 -1.04,1.04 0,0.57 0.46,1.04 1.04,1.04 H 8.85 c -0.71,0 -1.3,-0.58 -1.3,-1.3 0,-0.72 0.59,-1.3 1.3,-1.3 h 1.32 c 0.07,-1.13 1.01,-2.03 2.15,-2.03 1.14,0 2.09,0.91 2.16,2.03 h 1.36 c 0.6,0 1.07,0.49 1.07,1.07 z"
           style="fill:url(#linear-gradient-13);stroke-width:0.802762"
           id="path40" />
      </g>
      <g
         id="g43"
         style="stroke-width:0.802762">
        <path
           d="m 41.82,20.97 h -1.36 c -0.07,-1.14 -1.01,-2.04 -2.16,-2.04 -1.15,0 -2.09,0.9 -2.16,2.04 h -1.31 c -0.72,0 -1.3,0.58 -1.3,1.3 0,0.72 0.58,1.3 1.3,1.3 h 3.29 c 0.42,0 0.81,-0.18 1.08,-0.47 h 2.62 c 0.59,0 1.07,-0.48 1.07,-1.07 0,-0.59 -0.48,-1.07 -1.07,-1.07 z"
           style="fill:url(#linear-gradient-14);stroke-width:0.802762"
           id="path41" />
        <path
           d="m 41.82,20.97 h -1.36 c -0.07,-1.14 -1.01,-2.04 -2.16,-2.04 -1.15,0 -2.09,0.9 -2.16,2.04 h -1.31 c -0.72,0 -1.3,0.58 -1.3,1.3 0,0.72 0.58,1.3 1.3,1.3 h 3.29 c 0.42,0 0.81,-0.18 1.08,-0.47 h 2.62 c 0.59,0 1.07,-0.48 1.07,-1.07 0,-0.59 -0.48,-1.07 -1.07,-1.07 z"
           style="fill:url(#linear-gradient-15);stroke-width:0.802762"
           id="path42" />
        <path
           d="m 42.89,22.04 c 0,0.59 -0.48,1.07 -1.07,1.07 h -0.07 c 0.28,-0.14 0.48,-0.43 0.48,-0.77 0,-0.47 -0.38,-0.84 -0.84,-0.84 H 39.8 v -0.57 c 0,-0.71 -0.57,-1.27 -1.27,-1.27 -0.7,0 -1.28,0.57 -1.28,1.27 v 0.57 h -1.47 c -0.58,0 -1.04,0.47 -1.04,1.04 0,0.57 0.46,1.04 1.04,1.04 h -0.94 c -0.71,0 -1.3,-0.58 -1.3,-1.3 0,-0.72 0.59,-1.3 1.3,-1.3 h 1.32 c 0.07,-1.13 1.01,-2.03 2.15,-2.03 1.14,0 2.09,0.91 2.16,2.03 h 1.36 c 0.6,0 1.07,0.49 1.07,1.07 z"
           style="fill:url(#linear-gradient-16);stroke-width:0.802762"
           id="path43" />
      </g>
      <g
         id="g46"
         style="stroke-width:0.802762">
        <path
           d="m 33.15,25.97 h -1.36 c -0.07,-1.14 -1.01,-2.04 -2.16,-2.04 -1.15,0 -2.09,0.9 -2.16,2.04 h -1.31 c -0.72,0 -1.3,0.58 -1.3,1.3 0,0.72 0.58,1.3 1.3,1.3 h 3.29 c 0.42,0 0.81,-0.18 1.08,-0.47 h 2.62 c 0.59,0 1.07,-0.48 1.07,-1.07 0,-0.59 -0.48,-1.07 -1.07,-1.07 z"
           style="fill:url(#linear-gradient-17);stroke-width:0.802762"
           id="path44" />
        <path
           d="m 33.15,25.97 h -1.36 c -0.07,-1.14 -1.01,-2.04 -2.16,-2.04 -1.15,0 -2.09,0.9 -2.16,2.04 h -1.31 c -0.72,0 -1.3,0.58 -1.3,1.3 0,0.72 0.58,1.3 1.3,1.3 h 3.29 c 0.42,0 0.81,-0.18 1.08,-0.47 h 2.62 c 0.59,0 1.07,-0.48 1.07,-1.07 0,-0.59 -0.48,-1.07 -1.07,-1.07 z"
           style="fill:url(#linear-gradient-18);stroke-width:0.802762"
           id="path45" />
        <path
           d="m 34.23,27.04 c 0,0.59 -0.48,1.07 -1.07,1.07 h -0.07 c 0.28,-0.14 0.48,-0.43 0.48,-0.77 0,-0.47 -0.38,-0.84 -0.84,-0.84 h -1.59 v -0.57 c 0,-0.71 -0.57,-1.27 -1.27,-1.27 -0.7,0 -1.28,0.57 -1.28,1.27 v 0.57 h -1.47 c -0.58,0 -1.04,0.47 -1.04,1.04 0,0.57 0.46,1.04 1.04,1.04 h -0.94 c -0.71,0 -1.3,-0.58 -1.3,-1.3 0,-0.72 0.59,-1.3 1.3,-1.3 h 1.32 c 0.07,-1.13 1.01,-2.03 2.15,-2.03 1.14,0 2.09,0.91 2.16,2.03 h 1.36 c 0.6,0 1.07,0.49 1.07,1.07 z"
           style="fill:url(#linear-gradient-19);stroke-width:0.802762"
           id="path46" />
      </g>
      <g
         id="g49"
         style="stroke-width:0.802762">
        <path
           d="m 24.49,30.97 h -1.36 c -0.07,-1.14 -1.01,-2.04 -2.16,-2.04 -1.15,0 -2.09,0.9 -2.16,2.04 H 17.5 c -0.72,0 -1.3,0.58 -1.3,1.3 0,0.72 0.58,1.3 1.3,1.3 h 3.29 c 0.42,0 0.81,-0.18 1.08,-0.47 h 2.62 c 0.59,0 1.07,-0.48 1.07,-1.07 0,-0.59 -0.48,-1.07 -1.07,-1.07 z"
           style="fill:url(#linear-gradient-20);stroke-width:0.802762"
           id="path47" />
        <path
           d="m 24.49,30.97 h -1.36 c -0.07,-1.14 -1.01,-2.04 -2.16,-2.04 -1.15,0 -2.09,0.9 -2.16,2.04 H 17.5 c -0.72,0 -1.3,0.58 -1.3,1.3 0,0.72 0.58,1.3 1.3,1.3 h 3.29 c 0.42,0 0.81,-0.18 1.08,-0.47 h 2.62 c 0.59,0 1.07,-0.48 1.07,-1.07 0,-0.59 -0.48,-1.07 -1.07,-1.07 z"
           style="fill:url(#linear-gradient-21);stroke-width:0.802762"
           id="path48" />
        <path
           d="m 25.56,32.04 c 0,0.59 -0.48,1.07 -1.07,1.07 h -0.07 c 0.28,-0.14 0.48,-0.43 0.48,-0.77 0,-0.47 -0.38,-0.84 -0.84,-0.84 h -1.59 v -0.57 c 0,-0.71 -0.57,-1.27 -1.27,-1.27 -0.7,0 -1.28,0.57 -1.28,1.27 v 0.57 h -1.47 c -0.58,0 -1.04,0.47 -1.04,1.04 0,0.57 0.46,1.04 1.04,1.04 h -0.94 c -0.71,0 -1.3,-0.58 -1.3,-1.3 0,-0.72 0.59,-1.3 1.3,-1.3 h 1.32 c 0.07,-1.13 1.01,-2.03 2.15,-2.03 1.14,0 2.09,0.91 2.16,2.03 h 1.36 c 0.6,0 1.07,0.49 1.07,1.07 z"
           style="fill:url(#linear-gradient-22);stroke-width:0.802762"
           id="path49" />
      </g>
      <g
         id="g52"
         style="stroke-width:0.802762">
        <path
           d="m 41.82,30.97 h -1.36 c -0.07,-1.14 -1.01,-2.04 -2.16,-2.04 -1.15,0 -2.09,0.9 -2.16,2.04 h -1.31 c -0.72,0 -1.3,0.58 -1.3,1.3 0,0.72 0.58,1.3 1.3,1.3 h 3.29 c 0.42,0 0.81,-0.18 1.08,-0.47 h 2.62 c 0.59,0 1.07,-0.48 1.07,-1.07 0,-0.59 -0.48,-1.07 -1.07,-1.07 z"
           style="fill:url(#linear-gradient-23);stroke-width:0.802762"
           id="path50" />
        <path
           d="m 41.82,30.97 h -1.36 c -0.07,-1.14 -1.01,-2.04 -2.16,-2.04 -1.15,0 -2.09,0.9 -2.16,2.04 h -1.31 c -0.72,0 -1.3,0.58 -1.3,1.3 0,0.72 0.58,1.3 1.3,1.3 h 3.29 c 0.42,0 0.81,-0.18 1.08,-0.47 h 2.62 c 0.59,0 1.07,-0.48 1.07,-1.07 0,-0.59 -0.48,-1.07 -1.07,-1.07 z"
           style="fill:url(#linear-gradient-24);stroke-width:0.802762"
           id="path51" />
        <path
           d="m 42.89,32.04 c 0,0.59 -0.48,1.07 -1.07,1.07 h -0.07 c 0.28,-0.14 0.48,-0.43 0.48,-0.77 0,-0.47 -0.38,-0.84 -0.84,-0.84 H 39.8 v -0.57 c 0,-0.71 -0.57,-1.27 -1.27,-1.27 -0.7,0 -1.28,0.57 -1.28,1.27 v 0.57 h -1.47 c -0.58,0 -1.04,0.47 -1.04,1.04 0,0.57 0.46,1.04 1.04,1.04 h -0.94 c -0.71,0 -1.3,-0.58 -1.3,-1.3 0,-0.72 0.59,-1.3 1.3,-1.3 h 1.32 c 0.07,-1.13 1.01,-2.03 2.15,-2.03 1.14,0 2.09,0.91 2.16,2.03 h 1.36 c 0.6,0 1.07,0.49 1.07,1.07 z"
           style="fill:url(#linear-gradient-25);stroke-width:0.802762"
           id="path52" />
      </g>
    </g>
    <g
       id="g65"
       style="stroke-width:0.802762">
      <rect
         x="5.3299999"
         y="11.92"
         width="37.34"
         height="24.16"
         style="fill:none;stroke:#723f00;stroke-width:1.12387px;stroke-miterlimit:10"
         id="rect53" />
      <g
         id="g56"
         style="stroke-width:0.802762">
        <polygon
           points="5.33,36.08 5.33,11.92 8.01,14.6 8.01,33.4 "
           style="fill:url(#linearGradient69);stroke-width:0.802762"
           id="polygon53" />
        <polygon
           points="39.98,14.61 42.67,11.92 42.67,36.08 42.66,36.08 39.98,33.4 "
           style="fill:url(#linear-gradient-27);stroke-width:0.802762"
           id="polygon54" />
        <polygon
           points="42.67,11.92 39.98,14.61 39.98,14.6 8.01,14.6 5.33,11.92 "
           style="fill:url(#linear-gradient-28);stroke-width:0.802762"
           id="polygon55" />
        <polygon
           points="8.01,33.4 39.98,33.4 42.66,36.08 5.33,36.08 "
           style="fill:url(#linear-gradient-29);stroke-width:0.802762"
           id="polygon56" />
      </g>
      <path
         d="M 5.33,11.92 V 36.08 H 42.67 V 11.92 Z M 39.98,33.4 H 8.01 V 14.6 h 31.97 z"
         style="fill:#8f5902;stroke-width:0.802762"
         id="path56" />
      <g
         id="g64"
         style="stroke-width:0.802762">
        <g
           id="g60"
           style="stroke-width:0.802762">
          <polygon
             points="6.68,13.27 6.68,34.74 5.33,36.08 5.33,11.92 "
             style="fill:url(#linearGradient70);stroke-width:0.802762"
             id="polygon57" />
          <polygon
             points="42.67,36.08 42.66,36.08 41.32,34.74 41.32,13.27 42.67,11.92 "
             style="fill:url(#linearGradient71);stroke-width:0.802762"
             id="polygon58" />
          <polygon
             points="5.33,11.92 42.67,11.92 41.32,13.27 41.32,13.26 6.68,13.26 6.68,13.27 "
             style="fill:url(#linear-gradient-32);stroke-width:0.802762"
             id="polygon59" />
          <polygon
             points="42.66,36.08 5.33,36.08 6.68,34.74 41.32,34.74 "
             style="fill:url(#linear-gradient-33);stroke-width:0.802762"
             id="polygon60" />
        </g>
        <rect
           x="8.0100002"
           y="14.6"
           width="31.969999"
           height="18.799999"
           style="fill:none;stroke:#723f00;stroke-width:0.802762;stroke-miterlimit:10"
           id="rect60" />
        <polygon
           points="39.98,33.4 41.32,34.74 6.68,34.74 6.68,34.73 8.01,33.4 "
           style="fill:url(#linear-gradient-34);stroke-width:0.802762"
           id="polygon61" />
        <polygon
           points="39.98,33.4 39.98,14.61 41.32,13.27 41.32,34.74 "
           style="fill:url(#linear-gradient-35);stroke-width:0.802762"
           id="polygon62" />
        <polygon
           points="41.32,13.26 41.32,13.27 39.98,14.61 39.98,14.6 8.01,14.6 6.68,13.27 6.68,13.26 "
           style="fill:url(#linear-gradient-36);stroke-width:0.802762"
           id="polygon63" />
        <polygon
           points="6.68,34.73 6.68,13.27 8.01,14.6 8.01,33.4 "
           style="fill:url(#linear-gradient-37);stroke-width:0.802762"
           id="polygon64" />
      </g>
    </g>
  </g>
</svg>
