<?xml version="1.0" encoding="UTF-8" standalone="no"?>
<svg
   viewBox="0 0 48 48"
   version="1.1"
   id="svg33"
   sodipodi:docname="skyfieldpattern.svg"
   inkscape:version="1.3 (0e150ed6c4, 2023-07-21)"
   xmlns:inkscape="http://www.inkscape.org/namespaces/inkscape"
   xmlns:sodipodi="http://sodipodi.sourceforge.net/DTD/sodipodi-0.dtd"
   xmlns:xlink="http://www.w3.org/1999/xlink"
   xmlns="http://www.w3.org/2000/svg"
   xmlns:svg="http://www.w3.org/2000/svg">
  <sodipodi:namedview
     id="namedview33"
     pagecolor="#ffffff"
     bordercolor="#666666"
     borderopacity="1.0"
     inkscape:showpageshadow="2"
     inkscape:pageopacity="0.0"
     inkscape:pagecheckerboard="0"
     inkscape:deskcolor="#d1d1d1"
     inkscape:zoom="23.020833"
     inkscape:cx="24"
     inkscape:cy="24"
     inkscape:window-width="2560"
     inkscape:window-height="1377"
     inkscape:window-x="-8"
     inkscape:window-y="-8"
     inkscape:window-maximized="1"
     inkscape:current-layer="svg33" />
  <defs
     id="defs10">
    <linearGradient
       id="linear-gradient"
       x1="20.01"
       y1="-7.62"
       x2="20.01"
       y2="10.25"
       gradientTransform="matrix(1, 0, 0, 1, 0, 0)"
       gradientUnits="userSpaceOnUse">
      <stop
         offset="0"
         stop-color="#b2cbe5"
         id="stop1" />
      <stop
         offset="1"
         stop-color="#3465a4"
         id="stop2" />
    </linearGradient>
    <linearGradient
       id="linear-gradient-2"
       x1="20.01"
       y1="-5.53"
       x2="20.01"
       y2="9.46"
       gradientTransform="matrix(1, 0, 0, 1, 0, 0)"
       gradientUnits="userSpaceOnUse">
      <stop
         offset=".25"
         stop-color="snow"
         id="stop3" />
      <stop
         offset="1"
         stop-color="#fffdfd"
         stop-opacity=".4"
         id="stop4" />
    </linearGradient>
    <linearGradient
       id="linear-gradient-3"
       x1="20.18"
       y1="-1.99"
       x2="20.18"
       y2="7.14"
       gradientTransform="matrix(1, 0, 0, 1, 0, 0)"
       gradientUnits="userSpaceOnUse">
      <stop
         offset="0"
         stop-color="#d4e2f0"
         id="stop5" />
      <stop
         offset="1"
         stop-color="#3465a4"
         id="stop6" />
    </linearGradient>
    <linearGradient
       id="linear-gradient-4"
       x1="20.01"
       y1="15.7"
       x2="20.01"
       y2="35.33"
       xlink:href="#linear-gradient" />
    <linearGradient
       id="linear-gradient-5"
       x1="20.01"
       y1="16.44"
       x2="20.01"
       y2="32.65"
       xlink:href="#linear-gradient-2" />
    <linearGradient
       id="linear-gradient-6"
       x1="20.18"
       y1="21.56"
       x2="20.18"
       y2="30.33"
       gradientTransform="matrix(1, 0, 0, 1, 0, 0)"
       gradientUnits="userSpaceOnUse">
      <stop
         offset="0"
         stop-color="#d4e2f0"
         id="stop7" />
      <stop
         offset="1"
         stop-color="#3465a4"
         id="stop8" />
    </linearGradient>
    <linearGradient
       id="linear-gradient-7"
       x1="20.01"
       y1="38.57"
       x2="20.01"
       y2="51.32"
       xlink:href="#linear-gradient" />
    <linearGradient
       id="linear-gradient-8"
       x1="20.01"
       y1="39.06"
       x2="20.01"
       y2="49.58"
       xlink:href="#linear-gradient-2" />
    <linearGradient
       id="linear-gradient-9"
       x1="20.18"
       y1="43.24"
       x2="20.18"
       y2="49.31"
       xlink:href="#linear-gradient-6" />
    <linearGradient
       id="linear-gradient-10"
       x1="37.37"
       y1="4.25"
       x2="37.37"
       y2="23.88"
       xlink:href="#linear-gradient" />
    <linearGradient
       id="linear-gradient-11"
       x1="37.37"
       y1="4.99"
       x2="37.37"
       y2="21.2"
       xlink:href="#linear-gradient-2" />
    <linearGradient
       id="linear-gradient-12"
       x1="38.68"
       y1="10.11"
       x2="38.68"
       y2="18.87"
       xlink:href="#linear-gradient-6" />
    <linearGradient
       id="linear-gradient-13"
       x1="37.37"
       y1="27.19"
       x2="37.37"
       y2="46.82"
       xlink:href="#linear-gradient" />
    <linearGradient
       id="linear-gradient-14"
       x1="37.37"
       y1="27.93"
       x2="37.37"
       y2="44.14"
       xlink:href="#linear-gradient-2" />
    <linearGradient
       id="linear-gradient-15"
       x1="38.68"
       y1="33.05"
       x2="38.68"
       y2="41.82"
       xlink:href="#linear-gradient-6" />
    <linearGradient
       id="linear-gradient-16"
       x1="6.65"
       y1="4.25"
       x2="6.65"
       y2="23.88"
       xlink:href="#linear-gradient" />
    <linearGradient
       id="linear-gradient-17"
       x1="6.65"
       y1="4.99"
       x2="6.65"
       y2="21.2"
       xlink:href="#linear-gradient-2" />
    <linearGradient
       id="linear-gradient-18"
       x1="5.51"
       y1="10.11"
       x2="5.51"
       y2="18.87"
       xlink:href="#linear-gradient-6" />
    <linearGradient
       id="linear-gradient-19"
       x1="6.65"
       y1="27.19"
       x2="6.65"
       y2="46.82"
       xlink:href="#linear-gradient" />
    <linearGradient
       id="linear-gradient-20"
       x1="6.65"
       y1="27.93"
       x2="6.65"
       y2="44.14"
       xlink:href="#linear-gradient-2" />
    <linearGradient
       id="linear-gradient-21"
       x1="5.51"
       y1="33.05"
       x2="5.51"
       y2="41.82"
       xlink:href="#linear-gradient-6" />
    <linearGradient
       id="linear-gradient-22"
       x1="39.52"
       y1="36.54"
       x2="39.52"
       y2="45.86"
       gradientTransform="matrix(1, 0, 0, 1, 0, 0)"
       gradientUnits="userSpaceOnUse">
      <stop
         offset="0"
         stop-color="#fff"
         id="stop9" />
      <stop
         offset="1"
         stop-color="#cbcfc7"
         id="stop10" />
    </linearGradient>
  </defs>
  <g
     style="isolation:isolate;"
     id="g33">
    <g
       id="ART">
      <rect
         width="48"
         height="48"
         style="fill:#39b4ea;"
         id="rect10" />
      <g
         id="g19">
        <g
           id="g12">
          <g
             id="g11">
            <path
               d="M32.28,0H7.75c-.54,.49-.88,1.19-.88,1.98,0,1.49,1.2,2.69,2.69,2.69h2.42c.5,1.11,1.62,1.88,2.92,1.88,.9,0,1.71-.37,2.29-.97,.54,1.01,1.6,1.69,2.82,1.69s2.28-.69,2.82-1.69c.58,.6,1.39,.97,2.29,.97,1.3,0,2.41-.77,2.92-1.88h2.42c1.49,0,2.69-1.2,2.69-2.69,0-.78-.34-1.48-.88-1.98Z"
               style="fill:url(#linear-gradient);"
               id="path10" />
            <path
               d="M32.28,0H7.75c-.54,.49-.88,1.19-.88,1.98,0,1.49,1.2,2.69,2.69,2.69h2.42c.5,1.11,1.62,1.88,2.92,1.88,.9,0,1.71-.37,2.29-.97,.54,1.01,1.6,1.69,2.82,1.69s2.28-.69,2.82-1.69c.58,.6,1.39,.97,2.29,.97,1.3,0,2.41-.77,2.92-1.88h2.42c1.49,0,2.69-1.2,2.69-2.69,0-.78-.34-1.48-.88-1.98Z"
               style="fill:url(#linear-gradient-2);"
               id="path11" />
          </g>
          <path
             d="M29.53,.66h-1.37c0-.06,0-.13,0-.2,0-.16-.02-.31-.05-.46H13.98c-.03,.18-.05,.36-.05,.54,0,.04,0,.08,0,.12h-3.1c-.74,0-1.35,.6-1.35,1.34s.61,1.34,1.35,1.34h2.34c.3,1.07,1.28,1.86,2.45,1.86,.94,0,1.76-.51,2.2-1.26,.32,.9,1.18,1.55,2.19,1.55s1.87-.65,2.19-1.55c.44,.75,1.26,1.26,2.2,1.26,1.16,0,2.15-.79,2.45-1.86h2.68c.74,0,1.35-.6,1.35-1.34s-.61-1.34-1.35-1.34Z"
             style="fill:url(#linear-gradient-3); opacity:.54;"
             id="path12" />
        </g>
        <g
           id="g15">
          <g
             id="g14">
            <path
               d="M30.46,22.23h-.93c-.22-2.03-1.94-3.61-4.03-3.61h-1.09c-.43-1.78-2.03-3.11-3.94-3.11h-.92c-1.91,0-3.51,1.33-3.94,3.11h-1.09c-2.09,0-3.8,1.58-4.03,3.61h-.93c-1.49,0-2.69,1.2-2.69,2.69s1.2,2.69,2.69,2.69h2.42c.5,1.11,1.62,1.88,2.92,1.88,.9,0,1.71-.37,2.29-.97,.54,1.01,1.6,1.69,2.82,1.69s2.28-.69,2.82-1.69c.58,.6,1.39,.97,2.29,.97,1.3,0,2.41-.77,2.92-1.88h2.42c1.49,0,2.69-1.2,2.69-2.69s-1.2-2.69-2.69-2.69Z"
               style="fill:url(#linear-gradient-4);"
               id="path13" />
            <path
               d="M30.46,22.23h-.93c-.22-2.03-1.94-3.61-4.03-3.61h-1.09c-.43-1.78-2.03-3.11-3.94-3.11h-.92c-1.91,0-3.51,1.33-3.94,3.11h-1.09c-2.09,0-3.8,1.58-4.03,3.61h-.93c-1.49,0-2.69,1.2-2.69,2.69s1.2,2.69,2.69,2.69h2.42c.5,1.11,1.62,1.88,2.92,1.88,.9,0,1.71-.37,2.29-.97,.54,1.01,1.6,1.69,2.82,1.69s2.28-.69,2.82-1.69c.58,.6,1.39,.97,2.29,.97,1.3,0,2.41-.77,2.92-1.88h2.42c1.49,0,2.69-1.2,2.69-2.69s-1.2-2.69-2.69-2.69Z"
               style="fill:url(#linear-gradient-5);"
               id="path14" />
          </g>
          <path
             d="M30.88,24.94c0,.74-.61,1.34-1.35,1.34h-2.68c-.3,1.07-1.28,1.86-2.45,1.86-.94,0-1.76-.51-2.2-1.26-.32,.9-1.18,1.55-2.19,1.55s-1.87-.65-2.19-1.55c-.44,.75-1.26,1.26-2.2,1.26-1.17,0-2.15-.79-2.45-1.86h-2.34c-.74,0-1.35-.6-1.35-1.34s.61-1.34,1.35-1.34h3.1s0-.07,0-.12c0-1.82,1.47-3.29,3.29-3.29h1.09c1.4,0,2.64,.71,3.37,1.79-.23-1.62-1.61-2.87-3.29-2.91,.53-.95,1.55-1.6,2.72-1.6h.16c1.61,0,2.93,1.21,3.1,2.78,.19-.04,.39-.06,.59-.06,1.77,0,3.21,1.43,3.21,3.21,0,.06,0,.13,0,.2h1.37c.74,0,1.35,.6,1.35,1.34Z"
             style="fill:url(#linear-gradient-6); opacity:.54;"
             id="path15" />
        </g>
        <g
           id="g18">
          <path
             d="M33.14,48s.01-.09,.01-.14c0-1.49-1.2-2.69-2.69-2.69h-.93c-.22-2.03-1.94-3.61-4.03-3.61h-1.09c-.43-1.78-2.03-3.11-3.94-3.11h-.92c-1.91,0-3.51,1.33-3.94,3.11h-1.09c-2.09,0-3.8,1.58-4.03,3.61h-.93c-1.49,0-2.69,1.2-2.69,2.69,0,.05,.01,.09,.01,.14h26.25Z"
             style="fill:url(#linear-gradient-7);"
             id="path16" />
          <path
             d="M33.14,48s.01-.09,.01-.14c0-1.49-1.2-2.69-2.69-2.69h-.93c-.22-2.03-1.94-3.61-4.03-3.61h-1.09c-.43-1.78-2.03-3.11-3.94-3.11h-.92c-1.91,0-3.51,1.33-3.94,3.11h-1.09c-2.09,0-3.8,1.58-4.03,3.61h-.93c-1.49,0-2.69,1.2-2.69,2.69,0,.05,.01,.09,.01,.14h26.25Z"
             style="fill:url(#linear-gradient-8);"
             id="path17" />
          <path
             d="M30.86,48s.02-.08,.02-.12c0-.74-.61-1.34-1.35-1.34h-1.37c0-.06,0-.13,0-.2,0-1.77-1.44-3.21-3.21-3.21-.2,0-.4,.02-.59,.06-.17-1.56-1.49-2.78-3.1-2.78h-.16c-1.17,0-2.19,.65-2.72,1.6,1.68,.04,3.06,1.29,3.29,2.91-.73-1.08-1.97-1.79-3.37-1.79h-1.09c-1.82,0-3.29,1.47-3.29,3.29,0,.04,0,.08,0,.12h-3.1c-.74,0-1.35,.6-1.35,1.34,0,.04,.02,.08,.02,.12H30.86Z"
             style="fill:url(#linear-gradient-9); opacity:.54;"
             id="path18" />
        </g>
      </g>
      <g
         id="g25">
        <g
           id="g21">
          <g
             id="g20">
            <path
               d="M48,8.15c-.71-.61-1.62-.98-2.63-.98h-1.09c-.43-1.78-2.03-3.11-3.94-3.11h-.92c-1.91,0-3.51,1.33-3.94,3.11h-1.09c-2.09,0-3.8,1.58-4.03,3.61h-.93c-1.49,0-2.69,1.2-2.69,2.69s1.2,2.69,2.69,2.69h2.42c.5,1.11,1.62,1.88,2.92,1.88,.9,0,1.71-.37,2.29-.97,.54,1.01,1.6,1.69,2.82,1.69s2.28-.69,2.82-1.69c.58,.6,1.39,.97,2.29,.97,1.3,0,2.41-.77,2.92-1.88h.08V8.15Z"
               style="fill:url(#linear-gradient-10);"
               id="path19" />
            <path
               d="M48,8.15c-.71-.61-1.62-.98-2.63-.98h-1.09c-.43-1.78-2.03-3.11-3.94-3.11h-.92c-1.91,0-3.51,1.33-3.94,3.11h-1.09c-2.09,0-3.8,1.58-4.03,3.61h-.93c-1.49,0-2.69,1.2-2.69,2.69s1.2,2.69,2.69,2.69h2.42c.5,1.11,1.62,1.88,2.92,1.88,.9,0,1.71-.37,2.29-.97,.54,1.01,1.6,1.69,2.82,1.69s2.28-.69,2.82-1.69c.58,.6,1.39,.97,2.29,.97,1.3,0,2.41-.77,2.92-1.88h.08V8.15Z"
               style="fill:url(#linear-gradient-11);"
               id="path20" />
          </g>
          <path
             d="M48,11.5c-.22-1.56-1.54-2.76-3.16-2.76-.2,0-.4,.02-.59,.06-.17-1.56-1.49-2.78-3.1-2.78h-.16c-1.17,0-2.19,.65-2.72,1.6,1.68,.04,3.06,1.29,3.29,2.91-.73-1.08-1.97-1.79-3.37-1.79h-1.09c-1.82,0-3.29,1.47-3.29,3.29,0,.04,0,.08,0,.12h-3.1c-.74,0-1.35,.6-1.35,1.34s.61,1.34,1.35,1.34h2.34c.3,1.07,1.28,1.86,2.45,1.86,.94,0,1.76-.51,2.2-1.26,.32,.9,1.18,1.55,2.19,1.55s1.87-.65,2.19-1.55c.44,.75,1.26,1.26,2.2,1.26,1.16,0,2.15-.79,2.45-1.86h1.28v-3.33Z"
             style="fill:url(#linear-gradient-12); opacity:.54;"
             id="path21" />
        </g>
        <g
           id="g24">
          <g
             id="g23">
            <path
               d="M48,31.09c-.71-.61-1.62-.98-2.63-.98h-1.09c-.43-1.78-2.03-3.11-3.94-3.11h-.92c-1.91,0-3.51,1.33-3.94,3.11h-1.09c-2.09,0-3.8,1.58-4.03,3.61h-.93c-1.49,0-2.69,1.2-2.69,2.69s1.2,2.69,2.69,2.69h2.42c.5,1.11,1.62,1.88,2.92,1.88,.9,0,1.71-.37,2.29-.97,.54,1.01,1.6,1.69,2.82,1.69s2.28-.69,2.82-1.69c.58,.6,1.39,.97,2.29,.97,1.3,0,2.41-.77,2.92-1.88h.08v-8.01Z"
               style="fill:url(#linear-gradient-13);"
               id="path22" />
            <path
               d="M48,31.09c-.71-.61-1.62-.98-2.63-.98h-1.09c-.43-1.78-2.03-3.11-3.94-3.11h-.92c-1.91,0-3.51,1.33-3.94,3.11h-1.09c-2.09,0-3.8,1.58-4.03,3.61h-.93c-1.49,0-2.69,1.2-2.69,2.69s1.2,2.69,2.69,2.69h2.42c.5,1.11,1.62,1.88,2.92,1.88,.9,0,1.71-.37,2.29-.97,.54,1.01,1.6,1.69,2.82,1.69s2.28-.69,2.82-1.69c.58,.6,1.39,.97,2.29,.97,1.3,0,2.41-.77,2.92-1.88h.08v-8.01Z"
               style="fill:url(#linear-gradient-14);"
               id="path23" />
          </g>
          <path
             d="M48,34.44c-.22-1.56-1.54-2.76-3.16-2.76-.2,0-.4,.02-.59,.06-.17-1.56-1.49-2.78-3.1-2.78h-.16c-1.17,0-2.19,.65-2.72,1.6,1.68,.04,3.06,1.29,3.29,2.91-.73-1.08-1.97-1.79-3.37-1.79h-1.09c-1.82,0-3.29,1.47-3.29,3.29,0,.04,0,.08,0,.12h-3.1c-.74,0-1.35,.6-1.35,1.34s.61,1.34,1.35,1.34h2.34c.3,1.07,1.28,1.86,2.45,1.86,.94,0,1.76-.51,2.2-1.26,.32,.9,1.18,1.55,2.19,1.55s1.87-.65,2.19-1.55c.44,.75,1.26,1.26,2.2,1.26,1.16,0,2.15-.79,2.45-1.86h1.28v-3.33Z"
             style="fill:url(#linear-gradient-15); opacity:.54;"
             id="path24" />
        </g>
      </g>
      <g
         id="g27">
        <g
           id="g26">
          <path
             d="M10.61,10.77h-.93c-.22-2.03-1.94-3.61-4.03-3.61h-1.09c-.43-1.78-2.03-3.11-3.94-3.11H0v14.69c.05,0,.1,.01,.16,.01,1.22,0,2.28-.69,2.82-1.69,.58,.6,1.39,.97,2.29,.97,1.3,0,2.41-.77,2.92-1.88h2.42c1.49,0,2.69-1.2,2.69-2.69s-1.2-2.69-2.69-2.69Z"
             style="fill:url(#linear-gradient-16);"
             id="path25" />
          <path
             d="M10.61,10.77h-.93c-.22-2.03-1.94-3.61-4.03-3.61h-1.09c-.43-1.78-2.03-3.11-3.94-3.11H0v14.69c.05,0,.1,.01,.16,.01,1.22,0,2.28-.69,2.82-1.69,.58,.6,1.39,.97,2.29,.97,1.3,0,2.41-.77,2.92-1.88h2.42c1.49,0,2.69-1.2,2.69-2.69s-1.2-2.69-2.69-2.69Z"
             style="fill:url(#linear-gradient-17);"
             id="path26" />
        </g>
        <path
           d="M9.68,12.14h-1.37c0-.06,0-.13,0-.2,0-1.77-1.44-3.21-3.21-3.21-.2,0-.4,.02-.59,.06-.17-1.56-1.49-2.78-3.1-2.78h-.16c-.45,0-.88,.1-1.26,.27v1.71c.97,.49,1.67,1.42,1.83,2.53C1.38,9.87,.75,9.35,0,9.04v7.92c.05,0,.1,.01,.16,.01,1.01,0,1.87-.65,2.19-1.55,.44,.75,1.26,1.26,2.2,1.26,1.16,0,2.15-.79,2.45-1.86h2.68c.74,0,1.35-.6,1.35-1.34s-.61-1.34-1.35-1.34Z"
           style="fill:url(#linear-gradient-18); opacity:.54;"
           id="path27" />
      </g>
      <g
         id="g30">
        <g
           id="g29">
          <path
             d="M10.61,33.72h-.93c-.22-2.03-1.94-3.61-4.03-3.61h-1.09c-.43-1.78-2.03-3.11-3.94-3.11H0v14.69c.05,0,.1,.01,.16,.01,1.22,0,2.28-.69,2.82-1.69,.58,.6,1.39,.97,2.29,.97,1.3,0,2.41-.77,2.92-1.88h2.42c1.49,0,2.69-1.2,2.69-2.69s-1.2-2.69-2.69-2.69Z"
             style="fill:url(#linear-gradient-19);"
             id="path28" />
          <path
             d="M10.61,33.72h-.93c-.22-2.03-1.94-3.61-4.03-3.61h-1.09c-.43-1.78-2.03-3.11-3.94-3.11H0v14.69c.05,0,.1,.01,.16,.01,1.22,0,2.28-.69,2.82-1.69,.58,.6,1.39,.97,2.29,.97,1.3,0,2.41-.77,2.92-1.88h2.42c1.49,0,2.69-1.2,2.69-2.69s-1.2-2.69-2.69-2.69Z"
             style="fill:url(#linear-gradient-20);"
             id="path29" />
        </g>
        <path
           d="M9.68,35.09h-1.37c0-.06,0-.13,0-.2,0-1.77-1.44-3.21-3.21-3.21-.2,0-.4,.02-.59,.06-.17-1.56-1.49-2.78-3.1-2.78h-.16c-.45,0-.88,.1-1.26,.27v1.71c.97,.49,1.67,1.42,1.83,2.53-.45-.66-1.08-1.18-1.83-1.48v7.92c.05,0,.1,.01,.16,.01,1.01,0,1.87-.65,2.19-1.55,.44,.75,1.26,1.26,2.2,1.26,1.16,0,2.15-.79,2.45-1.86h2.68c.74,0,1.35-.6,1.35-1.34s-.61-1.34-1.35-1.34Z"
           style="fill:url(#linear-gradient-21); opacity:.54;"
           id="path30" />
      </g>
      <path
         d="M47.3,.7V47.3H.7V.7H47.3m.7-.7H0V48H48V0h0Z"
         style="fill:#555753;"
         id="path31" />
      <g
         id="g32">
        <polygon
           points="31.39 47.65 47.65 31.39 47.65 47.65 31.39 47.65"
           style="fill:url(#linear-gradient-22);"
           id="polygon31" />
        <path
           d="M47.3,32.24v15.06h-15.06l15.06-15.06m.7-1.69l-17.45,17.45h17.45V30.55h0Z"
           style="fill:#555753;"
           id="path32" />
      </g>
    </g>
  </g>
</svg>
