<?xml version="1.0" encoding="UTF-8"?><svg xmlns="http://www.w3.org/2000/svg" xmlns:xlink="http://www.w3.org/1999/xlink" viewBox="0 0 48 48"><defs><radialGradient id="radial-gradient" cx="-281.18" cy="-45.16" fx="-281.18" fy="-45.16" r="8.81" gradientTransform="translate(780.82 82.02) rotate(-.01) scale(2.69 .96) skewX(.03)" gradientUnits="userSpaceOnUse"><stop offset=".28" stop-color="#2c2c2c" stop-opacity=".5"/><stop offset=".99" stop-color="#2c2c2c" stop-opacity="0"/></radialGradient><radialGradient id="radial-gradient-2" cx="38.94" cy="17.08" fx="38.94" fy="17.08" r="20.45" gradientTransform="translate(46.96 -21.14) rotate(83.01) scale(1 .73)" gradientUnits="userSpaceOnUse"><stop offset="0" stop-color="#3465a4" stop-opacity=".2"/><stop offset=".94" stop-color="#3465a4" stop-opacity=".8"/></radialGradient><linearGradient id="linear-gradient" x1="33.42" y1="25.24" x2="20.19" y2="32.38" gradientTransform="matrix(1, 0, 0, 1, 0, 0)" gradientUnits="userSpaceOnUse"><stop offset="0" stop-color="#3465a4" stop-opacity="0"/><stop offset="1" stop-color="#204a87" stop-opacity=".8"/></linearGradient><linearGradient id="linear-gradient-2" x1="32.04" y1="24.95" x2="35.6" y2="18.24" gradientTransform="translate(.22 2.75) rotate(-3.94) skewX(-3.94)" gradientUnits="userSpaceOnUse"><stop offset="0" stop-color="#3465a4" stop-opacity=".2"/><stop offset="1" stop-color="#204a87" stop-opacity=".8"/></linearGradient><linearGradient id="linear-gradient-3" x1="32.68" y1="24.45" x2="34.11" y2="19.81" xlink:href="#linear-gradient-2"/><radialGradient id="radial-gradient-3" cx="42.49" cy="26.33" fx="42.49" fy="26.33" r="6.31" gradientTransform="matrix(1, 0, 0, 1, 0, 0)" gradientUnits="userSpaceOnUse"><stop offset="0" stop-color="#8ae234" stop-opacity=".2"/><stop offset="1" stop-color="#4e9a06" stop-opacity=".8"/></radialGradient><linearGradient id="linear-gradient-4" x1="39.13" y1="21.42" x2="43.1" y2="21.42" gradientTransform="translate(1.69 -.77) rotate(4.08)" gradientUnits="userSpaceOnUse"><stop offset="0" stop-color="#fff" stop-opacity="0"/><stop offset="1" stop-color="#fff8f8"/></linearGradient><linearGradient id="linear-gradient-5" x1="39.56" y1="25.02" x2="41.18" y2="28.86" gradientTransform="matrix(1, 0, 0, 1, 0, 0)" xlink:href="#linear-gradient-2"/><linearGradient id="linear-gradient-6" x1="38.96" y1="34.53" x2="38.43" y2="32.88" gradientTransform="translate(-42.62 14.15) rotate(-9.49) scale(2.04 .97) skewX(-2.53)" xlink:href="#linear-gradient-2"/><linearGradient id="linear-gradient-7" x1="39.07" y1="32.72" x2="37.87" y2="35.16" gradientTransform="translate(-42.62 14.15) rotate(-9.49) scale(2.04 .97) skewX(-2.53)" xlink:href="#linear-gradient-2"/><linearGradient id="linear-gradient-8" x1="32.25" y1="16.15" x2="36.9" y2="8.38" gradientTransform="matrix(1, 0, 0, 1, 0, 0)" xlink:href="#linear-gradient-4"/><linearGradient id="linear-gradient-9" x1="31.51" y1="18.16" x2="30.09" y2="34" xlink:href="#linear-gradient"/><linearGradient id="linear-gradient-10" x1="31.99" y1="23.34" x2="33.3" y2="21.33" gradientTransform="translate(.22 2.75) rotate(-3.94) skewX(-3.94)" gradientUnits="userSpaceOnUse"><stop offset="0" stop-color="#3465a4" stop-opacity=".2"/><stop offset="1" stop-color="#204a87"/></linearGradient><radialGradient id="radial-gradient-4" cx="20.11" cy="18.43" fx="20.11" fy="18.43" r="20.45" gradientTransform="translate(31.35 -2.56) rotate(83.01) scale(1 .73)" xlink:href="#radial-gradient-2"/><linearGradient id="linear-gradient-11" x1="12.39" y1="24.63" x2="16.24" y2="17.36" gradientTransform="matrix(1, 0, 0, 1, 0, 0)" xlink:href="#linear-gradient-2"/><linearGradient id="linear-gradient-12" x1="14.36" y1="23.43" x2="15.57" y2="19.47" gradientTransform="matrix(1, 0, 0, 1, 0, 0)" xlink:href="#linear-gradient-2"/><radialGradient id="radial-gradient-5" cx="23.61" cy="26.34" fx="23.61" fy="26.34" r="6.32" xlink:href="#radial-gradient-3"/><linearGradient id="linear-gradient-13" x1="20.3" y1="22.77" x2="24.28" y2="22.77" xlink:href="#linear-gradient-4"/><linearGradient id="linear-gradient-14" x1="20.71" y1="25.07" x2="22.26" y2="28.76" gradientTransform="matrix(1, 0, 0, 1, 0, 0)" xlink:href="#linear-gradient-2"/><linearGradient id="linear-gradient-15" x1="20.18" y1="34.57" x2="19.6" y2="32.77" gradientTransform="matrix(1, 0, 0, 1, 0, 0)" xlink:href="#linear-gradient-2"/><linearGradient id="linear-gradient-16" x1="20.2" y1="32.8" x2="19.03" y2="35.18" gradientTransform="matrix(1, 0, 0, 1, 0, 0)" xlink:href="#linear-gradient-2"/><linearGradient id="linear-gradient-17" x1="13.52" y1="16.24" x2="18.2" y2="8.43" gradientTransform="matrix(1, 0, 0, 1, 0, 0)" xlink:href="#linear-gradient-4"/><linearGradient id="linear-gradient-18" x1="21.34" y1="20.16" x2="26.01" y2="12.36" gradientTransform="matrix(1, 0, 0, 1, 0, 0)" xlink:href="#linear-gradient-4"/><linearGradient id="linear-gradient-19" x1="21.3" y1="20.14" x2="25.98" y2="12.34" gradientTransform="matrix(1, 0, 0, 1, 0, 0)" xlink:href="#linear-gradient-4"/><linearGradient id="linear-gradient-20" x1="13.61" y1="27.08" x2="5.92" y2="32.11" xlink:href="#linear-gradient"/><linearGradient id="linear-gradient-21" x1="11.26" y1="31.71" x2="8.01" y2="34.12" xlink:href="#linear-gradient"/><linearGradient id="linear-gradient-22" x1="13.74" y1="23.31" x2="15.06" y2="21.3" gradientTransform="matrix(1, 0, 0, 1, 0, 0)" xlink:href="#linear-gradient-10"/></defs><g style="isolation:isolate;"><g id="shadow" style="mix-blend-mode:multiply; opacity:.45;"><ellipse cx="24.18" cy="38.98" rx="22.78" ry="8.13" transform="translate(-.19 .12) rotate(-.28)" style="fill:url(#radial-gradient);"/></g><g id="ART"><g><g><path d="M40.55,16.86c0-.5-.13-1.22-.28-1.7-.13-.43-.65-.81-.82-1.23-1.22-3.01-3.85-6.27-9.22-7.16-.23-.04-.46,.01-.66,.12-.84,.43-4.14,2.94-5.15,7.75-1.22,5.8-1.14,12.63,.14,16.39s4.26,7.63,7.14,9.28c1.05,.6,3.41,1.26,4.79,.28s1.44-2.72,1.23-3.38,.34-1.33,.86-1.44c.59-.12,.89-.77,.66-1.3-.2-.47-.57-.81-.57-.81,1.04-.54,1.15-1.51,.97-1.76-.25-.54-.03-1.67,.08-2.07,.1-.36,.37-.67,.73-.76s1.77-.37,2.54-1.1,1.01-1.45-.95-3.01c-1.96-1.56-2.41-3.83-2.36-4.57,.04-.61,.37-1.16,.6-1.71s.24-1.22,.24-1.82Z" style="fill:url(#radial-gradient-2);"/><path d="M25.35,12.55c-.52,1.26,.67,8.95,.6,12.5s-.03,6.68,2.79,9.35,4.8,4.73,6.12,5.13,2.12-.04,2.52-.59c0,0-.14,2.77-3.67,2s-7.78-5.67-9.02-9.43-1.61-13.86,.66-18.96Z" style="fill:url(#linear-gradient);"/><path d="M39.69,20.21c.05-.06,.09-.14,.11-.24,.06-.37,.18-.73,.34-1.07-.45,.49-1.09,.55-1.67,.38-.77-.21-1.44-.5-2.26-.53-.98-.03-1.97,.03-2.95,.26-1.29,.3-2.56,.89-3.54,1.83-.28,.26-.54,.56-.64,.92-.3,1.05,1.06,1.55,1.78,1.84,1.08,.43,2.27,.63,3.46,.48,1.7-.22,2.63-1.29,3.52-2.27,.38-.42,.68-.85,1.16-1.18,.23-.16,.52-.24,.68-.42Z" style="fill:url(#linear-gradient-2); opacity:.6;"/><path d="M30.22,22.16c.09-.09,.63-.47,.36-.57-.06-.02-.13-.02-.19-.04-.19-.06-.23-.33-.13-.51s.3-.29,.48-.39c1.06-.54,2.21-.88,3.36-1.02,.71-.08,1.44-.12,2.14-.02,.25,.03,1.92,.32,1.43,.76-.1,.09-.24,.12-.38,.15-.93,.26-1.18,1.18-1.27,1.92-.02,.15-.03,.31-.12,.45-.09,.13-.24,.23-.39,.31-.76,.42-1.65,.65-2.53,.68,.61-.21,1.25-.44,1.66-.89,.04-.05,.08-.11,.05-.16-.04-.07-.16-.04-.25-.01-.89,.33-1.76,.14-2.58-.17-.33-.12-.63-.21-1-.15-.22,.04-.45,.09-.66,.02-.03,0-.06-.02-.09-.05-.04-.04-.05-.12-.02-.17s.07-.11,.11-.15Z" style="fill:url(#linear-gradient-3);"/><path d="M43.01,27.97c-.76,.73-2.18,1.02-2.54,1.1-.36,.09-.66,.4-.73,.76-.03,.15-.07,.41-.07,.41-.14-.04-1.41-.47-2.2-1.81-.82-1.42-1.08-4.16-.1-6.03,.97-1.88,2.36-2.17,2.36-2.17-.01,.05-.02,.11-.02,.17-.05,.71,.34,2.73,2.01,4.27,.11,.1,.23,.21,.35,.3,1.95,1.56,1.71,2.28,.95,3Z" style="fill:url(#radial-gradient-3);"/><path d="M42.59,26.27c-.61-.14-1.32-.61-1.78-1.17-.46-.56-1.68-2.71-1.47-3.62s.37-.7,.37-.7h.01c.08,.97,.66,2.83,2.34,4.19,.36,.28,.64,.54,.86,.77h0c.05,.11,.22,.65-.34,.53Z" style="fill:url(#linear-gradient-4);"/><path d="M43.01,27.97c-.76,.73-2.18,1.02-2.54,1.1-.36,.09-.67,.39-.73,.76-.07,.4-.67,1.6-.41,2.14,0,0-.23-1.01-.38-1.77-.15-.76-1.03-1.13-1.22-1.76-.18-.64,.23-1.27,.9-1.39,0,0-.35,.34-.15,.89,.19,.54,1.22,.38,2.15,.22,.94-.17,2.93-.52,2.85-1.58,.21,.56-.06,.97-.49,1.38Z" style="fill:url(#linear-gradient-5);"/><path d="M38.18,32.33c-1.37,.38-3.28,1.43-4.07,2.51,1.43-.88,4.16-1.23,4.16-1.23,1.08-.45,1.34-.81,1.56-1.19,.03-.06,.05-.12,.08-.17,0-.04,0-.09,.03-.13,0,0-.39-.15-1.77,.22Z" style="fill:url(#linear-gradient-6);"/><path d="M38.54,35.56c-.21-.04-1.11-.24-2.01-.53-1.02-.33-2.42-.2-2.42-.2,1.43-.88,4.16-1.23,4.16-1.23,0,0,.53,.36,.94,.79,.32,.31-.04,.81-.69,1.16Z" style="fill:url(#linear-gradient-7);"/><path d="M40.35,18.35c.11-.33,.22-.67,.24-1.02,.02-.36-.04-.73-.11-1.09-.15-.78-.73-1.58-1.02-2.31-1.22-3.01-3.85-6.27-9.22-7.16-.23-.04-.46,.01-.66,.12-.66,.34-2.83,1.99-4.22,5.01,2.77-2.33,7.31-1.4,10.25,1.04,2.95,2.44,3.93,6.34,4.01,6.35,.42,.06,.62-.6,.72-.89l.02-.05Z" style="fill:url(#linear-gradient-8);"/><path d="M36.97,40.14c.11-.14,.21-.29,.28-.44h0c-1.15,.85-2.93,.69-4.33,.1-1.4-.59-2.58-1.45-4.11-3.75-1.53-2.31-4.21-5.9-3.7-9.97,.82-6.57-.6-10.16-.6-10.16-.13,.16-.27,.36-.41,.58-.73,4.59-.7,9.52,.05,12.95v.03c.05,.18,.09,.34,.13,.51,.09,.36,.19,.71,.3,1.02,1.28,3.76,4.26,7.63,7.14,9.28,1.05,.6,3.41,1.26,4.79,.28,.18-.12,.32-.26,.44-.41,0-.01,.01-.02,.02-.03Z" style="fill:url(#linear-gradient-9);"/><path d="M31.37,21.85c.42-.15,.86-.28,1.26-.47,.48-.22,.98-.42,1.49-.55,.97-.24,1.72-.03,1.9,.06s-.46,.15-.68,.3-.06,.38-.22,.95c-.09,.33-1.32,.46-2.05,.37-.3-.04-.6-.12-.88-.22-.11-.04-.17-.11-.27-.16-.13-.07-.26-.03-.4-.01-.17,.02-.34,.01-.5-.03-.02-.03,0-.08,.03-.11s.07-.05,.11-.06c.07-.03,.14-.05,.21-.08Z" style="fill:url(#linear-gradient-10);"/><path d="M39.7,20.39c.04-.57,.23-.9,.45-1.38,.7-1.54-.07-3.52-.7-5.09-1.22-3.01-3.85-6.27-9.22-7.16-.23-.04-.46,.01-.66,.12-.84,.43-4.14,2.94-5.15,7.75-1.22,5.8-1.14,12.63,.14,16.39s4.26,7.63,7.14,9.28c1.05,.6,3.41,1.26,4.79,.28s1.19-1.96,1.23-3.38c.02-.71,.34-1.33,.86-1.44,.59-.12,.89-.77,.66-1.3-.2-.47-.57-.81-.57-.81,1.04-.54,1.15-1.51,.97-1.76-.25-.54-.08-1.84,.08-2.22,.14-.34,.37-.53,.73-.61" style="fill:none; stroke:#204a87; stroke-miterlimit:10; stroke-width:.7px;"/><path d="M43.01,27.97c-.76,.73-2.13,1.02-2.5,1.1-.36,.09-.71,.33-.8,.69-.08,.32-.12,.55-.12,.55-.14-.04-1.35-.54-2.13-1.88-.82-1.42-1.08-4.16-.1-6.03,.97-1.88,2.36-2.17,2.36-2.17-.01,.05-.02,.11-.02,.17-.05,.71,.34,2.73,2.01,4.27,.11,.1,.23,.21,.35,.3,1.95,1.56,1.71,2.28,.95,3Z" style="fill:none; stroke:#8ae234; stroke-linecap:round; stroke-linejoin:round; stroke-width:.7px;"/></g><g><polygon points="34.68 26.91 28.53 23.29 28.96 25.17 20.14 25.17 20.14 28.71 28.95 28.71 28.53 30.53 34.68 26.91" style="fill:#ef2929;"/><polygon points="34.68 26.91 28.53 23.29 28.96 25.17 20.14 25.17 20.14 28.71 28.95 28.71 28.53 30.53 34.68 26.91" style="fill:none; stroke:#a40000; stroke-miterlimit:10; stroke-width:.4px;"/></g><g><path d="M12.98,40.38c1.26,.72,3.76,1.1,5.09,.16s1-2.72,.79-3.41,.62-1.41,1.15-1.53c.59-.13,.89-.81,.66-1.37-.2-.5-.57-.86-.57-.86,1.04-.57,1.15-1.6,.97-1.87-.25-.57-.23-1.31-.2-1.68s.37-.67,.73-.76,1.77-.37,2.54-1.1,1.01-1.45-.95-3.01c-1.96-1.56-2.41-3.83-2.36-4.57,.08-1.06,1.11-.99,1.23-2.62,.09-1.3,.18-.74-1.04-3.76s-4.28-6.36-9.66-7.25c-.23-.04-.46,.01-.66,.12-.84,.43-4.14,2.94-5.15,7.75-1.22,5.8-1.14,12.63,.14,16.39,1.28,3.76,3.85,7.39,7.29,9.36Z" style="fill:#fff;"/><path d="M12.98,40.38c1.26,.72,3.76,1.1,5.09,.16s1-2.72,.79-3.41,.62-1.41,1.15-1.53c.59-.13,.89-.81,.66-1.37-.2-.5-.57-.86-.57-.86,1.04-.57,1.15-1.6,.97-1.87-.25-.57-.23-1.31-.2-1.68s.37-.67,.73-.76,1.77-.37,2.54-1.1,1.01-1.45-.95-3.01c-1.96-1.56-2.41-3.83-2.36-4.57,.08-1.06,1.11-.99,1.23-2.62,.09-1.3,.18-.74-1.04-3.76s-4.28-6.36-9.66-7.25c-.23-.04-.46,.01-.66,.12-.84,.43-4.14,2.94-5.15,7.75-1.22,5.8-1.14,12.63,.14,16.39,1.28,3.76,3.85,7.39,7.29,9.36Z" style="fill:url(#radial-gradient-4);"/><path d="M20.85,20.22c.14-.72,.77-.87,1.06-1.74-.47,1.06-1.95,.82-2.33,.69-1.25-.43-3.15-1.29-6.03-1.4-2.88-.12-4.5,.87-4.67,1.66s.54,1.92,1.75,2.77c1.21,.85,2.94,1.58,4.79,1.48,1.71-.11,2.65-1.11,3.54-2.03,.9-1.21,1.9-1.44,1.9-1.44Z" style="fill:url(#linear-gradient-11); opacity:.6;"/><path d="M13.34,22.1c-.18-.08-.36-.17-.53-.25-.22-.11-.45-.23-.57-.45-.04-.08-.07-.19-.02-.27,.03-.05,.08-.08,.13-.11,.4-.23,.8-.39,1.25-.53,.16-.05,.48-.14,.45-.3s-.33-.27-.47-.31c-.33-.11-.68-.18-1.03-.24-.16-.02-.9,0-.86-.26,.01-.09,.09-.16,.17-.2,.28-.17,.6-.2,.92-.23,.4-.05,.8-.12,1.2-.15,.82-.07,1.73-.12,2.54,.04s1.57,.56,2.33,.87c.25,.1,.62,.27,.32,.52-.1,.08-.25,.1-.38,.13-.52,.11-.88,.48-1.07,.96-.09,.23-.1,.48-.18,.7-.1,.25-.36,.43-.59,.54-.56,.28-1.21,.25-1.81,.12s-1.23-.31-1.8-.56Z" style="fill:url(#linear-gradient-12);"/><path d="M24.13,27.97c-.76,.73-2.18,1.02-2.54,1.1-.36,.09-.7,.39-.73,.76,0,.12-.02,.26-.02,.43-.14-.04-1.47-.49-2.25-1.83-.82-1.42-1.08-4.16-.1-6.03,.97-1.88,2.36-2.17,2.36-2.17-.01,.05-.02,.11-.02,.17-.05,.71,.34,2.73,2.01,4.27,.11,.1,.23,.21,.35,.3,1.95,1.56,1.71,2.28,.95,3Z" style="fill:url(#radial-gradient-5);"/><path d="M23.72,26.27c-.61-.14-1.32-.61-1.78-1.17-.46-.56-1.68-2.71-1.47-3.62s.37-.7,.37-.7h.01c.08,.97,.66,2.83,2.34,4.19,.36,.28,.64,.54,.86,.77h0c.05,.11,.22,.65-.34,.53Z" style="fill:url(#linear-gradient-13);"/><path d="M24.13,27.97c-.76,.73-2.18,1.02-2.54,1.1-.36,.09-.7,.39-.73,.76s-.05,1.1,.2,1.68c0,0-.84-.54-.99-1.31-.15-.76-1.03-1.13-1.22-1.76-.18-.64,.23-1.27,.9-1.39,0,0-.35,.34-.15,.89,.19,.54,1.22,.38,2.15,.22,.94-.17,2.93-.52,2.85-1.58,.21,.56-.06,.97-.49,1.38Z" style="fill:url(#linear-gradient-14);"/><path d="M20.25,31.89c-.69,.18-1.67,.98-2.1,2,.74-.7,1.94-.52,1.94-.52,.55-.3,.85-.73,.97-1.11,.02-.06,.03-.12,.04-.17,0-.04,0-.1,.02-.14,0,0-.19-.23-.88-.06Z" style="fill:url(#linear-gradient-15);"/><path d="M20.3,35.42c-.1-.08-.54-.45-.97-.91-.49-.53-1.18-.62-1.18-.62,.74-.7,1.94-.52,1.94-.52,0,0,.4,.38,.59,.91,.14,.39-.05,.87-.38,1.13Z" style="fill:url(#linear-gradient-16);"/><g><path d="M21.9,18.49c.07-.2,.13-.42,.15-.72,.09-1.3,.18-.74-1.04-3.76-1.22-3.01-4.28-6.36-9.66-7.25-.23-.04-.46,.01-.66,.12-.66,.34-2.83,1.99-4.22,5.01,2.77-2.33,7.31-1.4,10.25,1.04,2.95,2.44,3.93,6.34,4.01,6.35,.47-.07,.94-.29,1.17-.8Z" style="fill:url(#linear-gradient-17);"/><path d="M22.3,18.52c-.11,.3-.25,.52-.4,.7,.15-.18,.3-.4,.4-.7Z" style="fill:url(#linear-gradient-18);"/><path d="M21.69,19.44h0c.05-.06,.1-.12,.16-.18-.05,.06-.11,.12-.16,.18Z" style="fill:url(#linear-gradient-19);"/></g><path d="M18.52,40.12c.11-.14,.2-.28,.27-.42h0c-1.11,.82-2.56,.56-3.92-.65-1.85-1.65-1.09-4.32-3.59-8.08-2.49-3.76-4.91-3.98-5.38-8.06-.67-5.91-.29-7-.29-7-.13,.16-.27,.36-.41,.58-.73,4.59-.7,9.52,.05,12.95v.03c.05,.18,.09,.34,.13,.51,.09,.36,.19,.71,.3,1.02,1.28,3.76,3.85,7.39,7.29,9.36,1.26,.72,3.76,1.1,5.09,.16,.17-.12,.31-.25,.43-.4,0,0,.01-.02,.02-.03Z" style="fill:url(#linear-gradient-20);"/><path d="M5,22.82c-.04,1.53,1.23,7,2.57,9.65s4.01,5.83,6.16,7.06,3.45,1.23,4.35,.58c0,0-.65,1.05-2.84,.83s-5.69-2.15-8.46-7.34-1.79-10.78-1.79-10.78Z" style="fill:url(#linear-gradient-21);"/><path d="M12.62,21.37c.7-.25,1.97-.76,3.07-.93s1.95,.09,2.15,.18-.52,.12-.77,.25-.07,.37-.25,.92c-.1,.31-1.5,.36-2.32,.22s-1.87-.65-1.87-.65Z" style="fill:url(#linear-gradient-22);"/><path d="M20.83,20.39c.04-.57,.44-.87,.76-1.29,1.21-1.62,.06-3.52-.57-5.09-1.22-3.01-4.28-6.36-9.66-7.25-.23-.04-.46,.01-.66,.12-.84,.43-4.14,2.94-5.15,7.75-1.22,5.8-1.14,12.63,.14,16.39,1.28,3.76,3.85,7.39,7.29,9.36,1.26,.72,3.76,1.1,5.09,.16s1-2.72,.79-3.41,.62-1.41,1.15-1.53c.59-.13,.89-.81,.66-1.37-.2-.5-.57-.86-.57-.86,1.04-.57,1.15-1.6,.97-1.87-.25-.57-.23-1.31-.2-1.68s.37-.67,.73-.76" style="fill:none; stroke:#204a87; stroke-miterlimit:10; stroke-width:.7px;"/><path d="M24.13,27.97c-.76,.73-2.18,1.02-2.54,1.1-.36,.09-.7,.39-.73,.76,0,.12-.02,.26-.02,.43-.14-.04-1.47-.49-2.25-1.83-.82-1.42-1.08-4.16-.1-6.03,.97-1.88,2.36-2.17,2.36-2.17-.01,.05-.02,.11-.02,.17-.05,.71,.34,2.73,2.01,4.27,.11,.1,.23,.21,.35,.3,1.95,1.56,1.71,2.28,.95,3Z" style="fill:none; stroke:#8ae234; stroke-linecap:round; stroke-linejoin:round; stroke-width:.7px;"/></g><line x1="45.5" y1="26.91" x2="47.16" y2="26.91" style="fill:none; stroke:#8ae234; stroke-linecap:round; stroke-linejoin:round; stroke-width:.7px;"/><line x1="44.61" y1="24.25" x2="45.69" y2="23.34" style="fill:none; stroke:#8ae234; stroke-linecap:round; stroke-linejoin:round; stroke-width:.7px;"/><line x1="44.61" y1="29.57" x2="45.69" y2="30.48" style="fill:none; stroke:#8ae234; stroke-linecap:round; stroke-linejoin:round; stroke-width:.7px;"/><line x1="42.59" y1="22.93" x2="42.81" y2="22.09" style="fill:none; stroke:#8ae234; stroke-linecap:round; stroke-linejoin:round; stroke-width:.7px;"/><line x1="42.59" y1="30.89" x2="42.81" y2="31.73" style="fill:none; stroke:#8ae234; stroke-linecap:round; stroke-linejoin:round; stroke-width:.7px;"/></g></g></g></svg>