<?xml version="1.0" encoding="UTF-8" standalone="no"?>
<!-- Created with Inkscape (http://www.inkscape.org/) -->

<svg
   width="48.0px"
   height="48.0px"
   viewBox="0 0 48.0 48.0"
   version="1.1"
   id="SVGRoot"
   sodipodi:docname="testgeometry_capybara.svg"
   xml:space="preserve"
   inkscape:version="1.3-dev (fdc7329b, 2022-05-31)"
   xmlns:inkscape="http://www.inkscape.org/namespaces/inkscape"
   xmlns:sodipodi="http://sodipodi.sourceforge.net/DTD/sodipodi-0.dtd"
   xmlns:xlink="http://www.w3.org/1999/xlink"
   xmlns="http://www.w3.org/2000/svg"
   xmlns:svg="http://www.w3.org/2000/svg"><sodipodi:namedview
     id="namedview1"
     pagecolor="#ffffff"
     bordercolor="#666666"
     borderopacity="1.0"
     inkscape:showpageshadow="2"
     inkscape:pageopacity="0.0"
     inkscape:pagecheckerboard="0"
     inkscape:deskcolor="#d1d1d1"
     inkscape:document-units="px"
     showgrid="true"
     inkscape:zoom="13.455443"
     inkscape:cx="12.374174"
     inkscape:cy="20.920901"
     inkscape:window-width="2300"
     inkscape:window-height="1232"
     inkscape:window-x="-6"
     inkscape:window-y="-6"
     inkscape:window-maximized="1"
     inkscape:current-layer="layer1"><inkscape:grid
       type="xygrid"
       id="grid1" /></sodipodi:namedview><defs
     id="defs1"><linearGradient
       inkscape:collect="always"
       id="linearGradient4"><stop
         style="stop-color:#a69b98;stop-opacity:1"
         offset="0"
         id="stop3" /><stop
         style="stop-color:#68645f;stop-opacity:1;"
         offset="1"
         id="stop4" /></linearGradient><radialGradient
       inkscape:collect="always"
       xlink:href="#linearGradient4"
       id="radialGradient4"
       cx="21.087902"
       cy="22.869751"
       fx="21.087902"
       fy="22.869751"
       r="17.764383"
       gradientTransform="matrix(1.0258909,0,0,1.3508183,-0.64394765,-8.457125)"
       gradientUnits="userSpaceOnUse" /></defs><g
     inkscape:label="Layer 1"
     inkscape:groupmode="layer"
     id="layer1"><path
       style="fill:url(#radialGradient4);fill-opacity:1;fill-rule:evenodd;stroke:#000000;stroke-width:0.5;stroke-linecap:butt;stroke-linejoin:miter;stroke-dasharray:none;stroke-opacity:1"
       d="m 22.646183,1.8044308 0.485211,-1.13203106 0.485211,0.80859366 2.749529,0.2695312 0.754772,-0.75468739 0.808685,0.21562489 -0.48521,1.9406246 0.70086,1.6171871 -0.21565,0.4851561 0.431299,0.215625 0.431299,1.0781248 -0.161737,0.5390624 0.539124,0.2156249 0.646948,1.1859372 0.808685,0.4851561 0.377386,0.8624998 1.401721,1.0781249 0.808685,2.210155 1.132159,1.940626 0.646949,0.431249 0.970422,2.210156 0.916509,1.024218 1.024335,1.940625 0.323473,0.107813 0.862598,1.778906 0.754773,0.862499 1.186071,1.455468 0.431299,0.323438 0.161737,0.754687 1.186071,1.132031 -0.107825,0.592969 0.107825,0.970312 h -0.539123 l -0.700861,-0.916407 -0.431299,-0.323437 0.323475,1.347656 h -0.91651 l -0.21565,-0.485155 -0.05391,-0.539064 -0.431299,-0.377343 v -0.377344 l -0.91651,-0.539062 -0.539124,0.539062 -0.646947,-0.43125 0.215649,-0.70078 0.539123,-0.592969 -0.91651,-1.024219 -0.754773,-0.215625 -0.161736,-0.539062 -1.132159,-1.024219 -1.024335,-0.646875 c 0,0 0.431299,0 -0.431299,-0.646874 -0.862597,-0.646875 -1.563458,-1.132031 -1.563458,-1.132031 l -0.323473,1.778905 0.05391,2.210156 1.509546,4.528124 -0.808685,4.528124 -1.833019,1.886719 -1.186072,2.533593 0.646948,0.646875 -0.215649,0.808594 0.215649,0.646874 0.161737,0.592968 -0.646948,1.832813 -0.485211,2.533593 -0.161736,1.185937 -0.323475,1.024219 v 0.43125 l -0.70086,0.539062 -0.539123,-0.05391 -0.05391,-0.485155 -0.808685,0.646875 -0.754772,-0.05391 0.05391,-0.377343 -0.70086,0.0539 V 46.92394 l 1.886932,-3.342186 0.593035,-1.994531 -1.563457,-0.700781 -0.269561,-0.754687 -1.239985,-1.185937 -0.485211,-3.234375 0.323475,-2.803124 -0.646949,-0.215625 -0.593035,2.048437 -0.593036,1.401562 0.539123,0.43125 0.161738,0.916406 0.70086,0.323437 0.269562,0.700782 -1.293897,4.797654 -0.269561,1.671094 -0.700861,1.293749 -0.70086,0.539063 -0.485211,-0.107813 -0.05391,-0.485155 -0.539123,0.43125 -0.916509,0.0539 0.161736,-0.485155 -0.539123,-0.107813 -0.05391,-0.431251 0.916509,-0.754687 0.05391,-0.646874 0.970422,-0.646875 0.269562,-1.185937 0.539123,-1.940625 -2.048669,-0.485156 -0.754773,-0.970312 -0.916509,-0.754687 -0.754773,-1.509375 -0.107825,-1.132031 -0.754773,-2.264062 0.161737,-3.88125 0.377386,-1.293749 -0.269561,-0.8625 0.485211,-0.646874 -0.21565,-2.371875 0.916511,-3.180468 -0.377386,-1.56328 0.161736,-1.886719 -1.563457,1.347655 -0.323475,-0.107812 -0.431298,0.539062 -2.102582,1.185938 -0.431299,0.323438 -1.886931,0.808592 -0.05391,0.539064 -0.646948,0.377343 -0.215648,0.269531 -0.5391245,0.0539 -0.3234738,0.485157 H 8.8985363 L 8.8446239,23.151301 8.0898512,23.905988 7.6046401,24.498957 6.9037798,24.283332 v -0.646875 l 1.0782467,-1.239844 0.3773864,-0.107812 0.053913,-0.808594 1.5634573,-0.970312 0.05391,-0.539062 0.593036,-0.269532 v -0.323437 l 0.485211,-0.161718 1.61737,-2.102344 1.186071,-0.43125 1.455634,-2.371875 1.61737,-1.293749 0.754773,-1.347656 1.455633,-1.401562 -0.646948,-0.3773434 0.05391,-2.9648433 -0.323475,-1.2937497 0.91651,-0.9703123 1.293896,-0.916406 0.431299,-1.4554683 z"
       id="path1" /><ellipse
       style="color:#000000;overflow:visible;fill:#000000;stroke:none;stroke-width:0.5;stroke-dasharray:none;stop-color:#000000"
       id="path2"
       cx="25.638321"
       cy="4.1493516"
       rx="0.7351253"
       ry="0.61898285" /><ellipse
       style="color:#000000;overflow:visible;fill:#000000;stroke:none;stroke-width:0.5;stroke-dasharray:none;stop-color:#000000"
       id="ellipse2"
       cx="20.947947"
       cy="6.0091166"
       rx="0.38412544"
       ry="0.32343742" /><ellipse
       style="color:#000000;overflow:visible;fill:#000000;stroke:none;stroke-width:0.5;stroke-dasharray:none;stop-color:#000000"
       id="ellipse3"
       cx="18.899277"
       cy="5.9821639"
       rx="0.38412544"
       ry="0.32343742" /></g></svg>
