<?xml version="1.0" encoding="UTF-8" standalone="no"?>
<svg
   viewBox="0 0 48 48"
   version="1.1"
   id="svg92"
   sodipodi:docname="11-Paint_Mask.svg"
   inkscape:version="1.3 (0e150ed, 2023-07-21)"
   xmlns:inkscape="http://www.inkscape.org/namespaces/inkscape"
   xmlns:sodipodi="http://sodipodi.sourceforge.net/DTD/sodipodi-0.dtd"
   xmlns:xlink="http://www.w3.org/1999/xlink"
   xmlns="http://www.w3.org/2000/svg"
   xmlns:svg="http://www.w3.org/2000/svg">
  <sodipodi:namedview
     id="namedview92"
     pagecolor="#ffffff"
     bordercolor="#000000"
     borderopacity="0.25"
     inkscape:showpageshadow="2"
     inkscape:pageopacity="0.0"
     inkscape:pagecheckerboard="0"
     inkscape:deskcolor="#d1d1d1"
     inkscape:zoom="17.416667"
     inkscape:cx="24"
     inkscape:cy="23.971292"
     inkscape:window-width="1392"
     inkscape:window-height="1245"
     inkscape:window-x="498"
     inkscape:window-y="55"
     inkscape:window-maximized="0"
     inkscape:current-layer="svg92" />
  <defs
     id="defs56">
    <radialGradient
       id="radial-gradient"
       cx="-555.49"
       cy="-39.27"
       fx="-555.49"
       fy="-39.27"
       r="3.57"
       gradientTransform="matrix(5.19,0,0,1.67,2906.07,106.02)"
       gradientUnits="userSpaceOnUse">
      <stop
         offset=".03"
         stop-color="#1a1718"
         stop-opacity=".5"
         id="stop1" />
      <stop
         offset=".68"
         stop-color="#1a1718"
         stop-opacity=".1"
         id="stop2" />
      <stop
         offset=".93"
         stop-color="#1a1718"
         stop-opacity="0"
         id="stop3" />
    </radialGradient>
    <radialGradient
       id="radial-gradient-2"
       cx="29.35"
       cy="14.84"
       fx="29.35"
       fy="14.84"
       r="17.54"
       gradientTransform="matrix(-0.99296551,0.11840397,-0.16458152,-1.3802221,60.94,31.8)"
       gradientUnits="userSpaceOnUse">
      <stop
         offset=".21"
         stop-color="#fff"
         id="stop4" />
      <stop
         offset=".31"
         stop-color="#fefbea"
         id="stop5" />
      <stop
         offset="1"
         stop-color="#edd400"
         id="stop6" />
    </radialGradient>
    <linearGradient
       id="linear-gradient"
       x1="8.76"
       y1="31.79"
       x2="36.73"
       y2="14.75"
       gradientUnits="userSpaceOnUse">
      <stop
         offset="0"
         stop-color="#bc9800"
         id="stop7" />
      <stop
         offset="1"
         stop-color="#edd400"
         id="stop8" />
    </linearGradient>
    <linearGradient
       id="linear-gradient-2"
       x1="35.61"
       y1="26.82"
       x2="34.27"
       y2="25.32"
       gradientTransform="matrix(1, 0, 0, 1, 0, 0)"
       gradientUnits="userSpaceOnUse">
      <stop
         offset="0"
         stop-color="#204a87"
         id="stop9" />
      <stop
         offset="1"
         stop-color="#729fcf"
         id="stop10" />
    </linearGradient>
    <linearGradient
       id="linear-gradient-3"
       x1="10.02"
       y1="30.31"
       x2="49.62"
       y2="6.94"
       gradientUnits="userSpaceOnUse">
      <stop
         offset="0"
         stop-color="#9c0000"
         id="stop11" />
      <stop
         offset=".07"
         stop-color="#c40000"
         id="stop12" />
      <stop
         offset=".15"
         stop-color="#e72929"
         id="stop13" />
      <stop
         offset=".2"
         stop-color="#e73030"
         id="stop14" />
      <stop
         offset=".27"
         stop-color="#ea4444"
         id="stop15" />
      <stop
         offset=".33"
         stop-color="#ed5f5f"
         id="stop16" />
      <stop
         offset=".61"
         stop-color="#ed5f5f"
         id="stop17" />
      <stop
         offset=".65"
         stop-color="#ec5757"
         id="stop18" />
      <stop
         offset=".72"
         stop-color="#e94343"
         id="stop19" />
      <stop
         offset=".78"
         stop-color="#e72929"
         id="stop20" />
      <stop
         offset=".81"
         stop-color="#df2525"
         id="stop21" />
      <stop
         offset=".85"
         stop-color="#cb1a1a"
         id="stop22" />
      <stop
         offset=".9"
         stop-color="#aa0808"
         id="stop23" />
      <stop
         offset=".92"
         stop-color="#9c0000"
         id="stop24" />
    </linearGradient>
    <linearGradient
       id="linear-gradient-4"
       x1="6.74"
       y1="28.46"
       x2="34.71"
       y2="11.42"
       gradientUnits="userSpaceOnUse">
      <stop
         offset=".17"
         stop-color="#9c0000"
         id="stop25" />
      <stop
         offset=".61"
         stop-color="#ed5f5f"
         id="stop26" />
      <stop
         offset=".65"
         stop-color="#ec5757"
         id="stop27" />
      <stop
         offset=".72"
         stop-color="#e94343"
         id="stop28" />
      <stop
         offset=".78"
         stop-color="#e72929"
         id="stop29" />
      <stop
         offset=".81"
         stop-color="#df2525"
         id="stop30" />
      <stop
         offset=".85"
         stop-color="#cb1a1a"
         id="stop31" />
      <stop
         offset=".9"
         stop-color="#aa0808"
         id="stop32" />
      <stop
         offset=".92"
         stop-color="#9c0000"
         id="stop33" />
    </linearGradient>
    <linearGradient
       id="linear-gradient-5"
       x1="38.71"
       y1="8.39"
       x2="29.46"
       y2="30.73"
       gradientTransform="matrix(1, 0, 0, 1, 0, 0)"
       gradientUnits="userSpaceOnUse">
      <stop
         offset="0"
         stop-color="#f9f9f8"
         id="stop34" />
      <stop
         offset="1"
         stop-color="#ef2929"
         id="stop35" />
    </linearGradient>
    <linearGradient
       id="linear-gradient-6"
       x1="14.24"
       y1="30.05"
       x2="27.88"
       y2="18.47"
       gradientUnits="userSpaceOnUse">
      <stop
         offset="0"
         stop-color="#3465a4"
         id="stop36" />
      <stop
         offset="1"
         stop-color="#729fcf"
         id="stop37" />
    </linearGradient>
    <linearGradient
       id="linear-gradient-7"
       x1="6.87"
       y1="28.67"
       x2="34.83"
       y2="11.63"
       gradientUnits="userSpaceOnUse">
      <stop
         offset="0"
         stop-color="#204a87"
         id="stop38" />
      <stop
         offset="1"
         stop-color="#3465a4"
         id="stop39" />
    </linearGradient>
    <linearGradient
       id="linear-gradient-8"
       x1="36.5"
       y1="20.8"
       x2="32.91"
       y2="23.01"
       xlink:href="#linear-gradient-5" />
    <linearGradient
       id="linear-gradient-9"
       x1="39.08"
       y1="8.55"
       x2="29.84"
       y2="30.89"
       gradientUnits="userSpaceOnUse">
      <stop
         offset="0"
         stop-color="#fff"
         id="stop40" />
      <stop
         offset="1"
         stop-color="#729fcf"
         id="stop41" />
    </linearGradient>
    <linearGradient
       id="linear-gradient-10"
       x1="35.42"
       y1="19.85"
       x2="36.26"
       y2="22.37"
       xlink:href="#linear-gradient-2" />
    <linearGradient
       id="linear-gradient-11"
       x1="35.61"
       y1="26.82"
       x2="34.27"
       y2="25.32"
       gradientUnits="userSpaceOnUse">
      <stop
         offset="0"
         stop-color="#9db9d9"
         id="stop42" />
      <stop
         offset="1"
         stop-color="#28508d"
         id="stop43" />
    </linearGradient>
    <linearGradient
       id="linear-gradient-12"
       x1="35.42"
       y1="19.85"
       x2="36.26"
       y2="22.37"
       gradientUnits="userSpaceOnUse">
      <stop
         offset="0"
         stop-color="#babdb6"
         id="stop44" />
      <stop
         offset="1"
         stop-color="#eeeeec"
         id="stop45" />
    </linearGradient>
    <linearGradient
       id="linear-gradient-13"
       x1="30.83"
       y1="20.8"
       x2="31.57"
       y2="23.98"
       gradientTransform="matrix(1, 0, 0, 1, 0, 0)"
       gradientUnits="userSpaceOnUse">
      <stop
         offset="0"
         stop-color="#2e3436"
         id="stop46" />
      <stop
         offset="1"
         stop-color="#555753"
         id="stop47" />
    </linearGradient>
    <linearGradient
       id="linear-gradient-14"
       x1="18.88"
       y1="22.85"
       x2="18.97"
       y2="26.98"
       xlink:href="#linear-gradient-13" />
    <linearGradient
       id="linear-gradient-15"
       x1="40.21"
       y1="16.3"
       x2="41.75"
       y2="17.22"
       gradientTransform="translate(-0.16,-0.27)"
       gradientUnits="userSpaceOnUse">
      <stop
         offset="0"
         stop-color="#3465a4"
         id="stop48" />
      <stop
         offset="1"
         stop-color="#204a87"
         id="stop49" />
    </linearGradient>
    <linearGradient
       id="linear-gradient-16"
       x1="184.65"
       y1="61.36"
       x2="182.08"
       y2="61.36"
       gradientTransform="matrix(-0.8660254,-0.5,-0.5,0.8660254,227.24,61.36)"
       gradientUnits="userSpaceOnUse">
      <stop
         offset="0"
         stop-color="#eeeeec"
         id="stop50" />
      <stop
         offset=".51"
         stop-color="#babdb6"
         id="stop51" />
      <stop
         offset=".99"
         stop-color="#888a85"
         id="stop52" />
    </linearGradient>
    <linearGradient
       id="linear-gradient-17"
       x1="59.32"
       y1="61.42"
       x2="56.6"
       y2="61.42"
       gradientTransform="translate(18.14 -59.37) rotate(30)"
       gradientUnits="userSpaceOnUse">
      <stop
         offset="0"
         stop-color="#fff"
         stop-opacity="0"
         id="stop53" />
      <stop
         offset="1"
         stop-color="#fff8f8"
         id="stop54" />
    </linearGradient>
    <linearGradient
       id="linear-gradient-18"
       x1="37.66"
       y1="23.1"
       x2="38.38"
       y2="23.51"
       gradientUnits="userSpaceOnUse">
      <stop
         offset="0"
         stop-color="#888a85"
         id="stop55" />
      <stop
         offset="1"
         stop-color="#555753"
         id="stop56" />
    </linearGradient>
    <linearGradient
       id="linear-gradient-19"
       x1="41.02"
       y1="17.16"
       x2="40.13"
       y2="16.66"
       gradientTransform="translate(-0.16,-0.27)"
       xlink:href="#linear-gradient-17" />
    <linearGradient
       inkscape:collect="always"
       xlink:href="#linear-gradient-2"
       id="linearGradient92"
       gradientUnits="userSpaceOnUse"
       x1="35.61"
       y1="26.82"
       x2="34.27"
       y2="25.32" />
    <linearGradient
       inkscape:collect="always"
       xlink:href="#linear-gradient-5"
       id="linearGradient93"
       gradientUnits="userSpaceOnUse"
       x1="38.71"
       y1="8.39"
       x2="29.46"
       y2="30.73" />
    <linearGradient
       inkscape:collect="always"
       xlink:href="#linear-gradient-13"
       id="linearGradient94"
       gradientUnits="userSpaceOnUse"
       x1="30.83"
       y1="20.8"
       x2="31.57"
       y2="23.98" />
    <linearGradient
       inkscape:collect="always"
       xlink:href="#linear-gradient-17"
       id="linearGradient95"
       gradientUnits="userSpaceOnUse"
       gradientTransform="rotate(30,119.85593,4.1647008)"
       x1="59.32"
       y1="61.42"
       x2="56.6"
       y2="61.42" />
  </defs>
  <g
     id="shadow"
     style="opacity:0.45;isolation:isolate;mix-blend-mode:multiply"
     transform="matrix(1.1563554,0,0,1.1563554,-3.7238207,-5.3973874)">
    <ellipse
       cx="24"
       cy="40.290001"
       rx="17.809999"
       ry="5.77"
       style="fill:url(#radial-gradient)"
       id="ellipse56" />
  </g>
  <g
     id="ART"
     style="isolation:isolate"
     transform="matrix(1.1862861,0,0,1.1862861,-8.1936671,-6.5750671)">
    <path
       d="m 35.9,20.9 c -0.21,2.28 -0.68,4.55 -1.36,6.71 -2.17,6.79 -7.57,13.07 -11.4,13.33 -3.09,0.21 -5.57,-1.26 -7.73,-3.23 C 12.98,35.49 11.18,32.2 10.23,29.11 8.22,22.6 9.64,15.33 14.53,10.42 16.14,8.8 18.1,7.5 20.31,6.76 25.57,5 31.63,7 34.28,11.77 c 1.35,2.44 1.95,5.55 1.62,9.12 z"
       style="fill:url(#radial-gradient-2)"
       id="path56" />
    <path
       d="m 28.1,28.58 c 0.33,-0.43 2.05,0.33 2.56,1.85 0.51,1.52 0,4.76 0,4.76 0,0 2.13,-3.14 2.63,-4.76 0.5,-1.62 1.25,-2.83 1.25,-2.83 l -5.65,-0.31 -1.01,0.61 0.23,0.68 z"
       style="fill:#8ae234"
       id="path57" />
    <path
       d="m 35.97,19.79 c -0.01,0.36 -0.04,0.73 -0.07,1.11 -0.2,2.28 -0.67,4.54 -1.36,6.7 -0.64,2.02 -1.57,3.99 -2.66,5.77 0.73,-1.95 2.21,-6.58 1.98,-11.55 l 2.12,-2.03 z"
       style="fill:#b8fc68"
       id="path58" />
    <path
       d="M 33.86,21.82 C 33.75,19.44 33.25,16.98 32.09,14.7 28.62,7.89 24.56,6.29 20.12,6.83 20.18,6.8 20.25,6.78 20.31,6.76 25.57,5 31.63,7 34.28,11.77 c 1.21,2.18 1.82,4.91 1.69,8.02 l -2.12,2.03 z"
       style="fill:#ffffff"
       id="path59" />
    <path
       d="m 24.25,40.7 c -0.38,0.13 -0.75,0.21 -1.11,0.23 -3.09,0.21 -5.57,-1.26 -7.73,-3.23 -2.43,-2.22 -4.23,-5.51 -5.18,-8.6 -2.01,-6.51 -0.59,-13.78 4.3,-18.68 0.63,-0.64 1.32,-1.22 2.05,-1.74 -1.35,1.83 -4.05,6.85 -2.85,16.8 1.56,12.99 8.56,15.51 10.52,15.22 z"
       style="fill:url(#linear-gradient)"
       id="path60" />
    <path
       d="m 35.4,24.32 c -0.22,1.17 -0.52,2.32 -0.86,3.45 0,0.01 -0.03,0.03 -0.07,0.04 0.03,-0.07 0.05,-0.14 0.07,-0.21 0.34,-1.07 0.63,-2.17 0.86,-3.28 z"
       style="fill:url(#linearGradient92)"
       id="path61" />
    <path
       d="m 35.98,19.6 v 0.06 c -0.02,0.37 -0.05,0.74 -0.08,1.13 -0.05,0.59 -0.12,1.18 -0.2,1.77 -0.04,0.3 -0.09,0.59 -0.14,0.89 -0.05,0.29 -0.1,0.58 -0.16,0.87 -0.23,1.11 -0.52,2.21 -0.86,3.28 -0.02,0.07 -0.04,0.14 -0.07,0.21 -0.21,0.09 -0.82,0.17 -0.9,0.2 -0.45,0.09 -0.9,0.17 -1.35,0.21 -1.1,0.11 -2.26,0.05 -3.25,-0.27 -0.43,-0.14 -0.71,0.24 -0.87,0.63 -0.18,0.43 -0.44,0.88 -0.66,0.18 -0.11,-0.33 -0.17,-0.66 -0.22,-0.99 -0.08,-0.51 -0.82,-1.14 -1.38,-0.74 -0.44,0.32 -0.43,0.69 -0.34,1.16 0.06,0.29 0.37,1.02 0.05,1.22 -0.26,0.15 -0.63,-0.11 -0.9,-0.15 -0.44,-0.05 -0.89,-0.05 -1.29,0.18 -0.36,0.21 -0.69,0.47 -1.05,0.68 -0.88,0.5 -1.83,0.86 -2.82,1.08 -1.21,0.26 -2.84,0.35 -4.47,0.28 v 0 C 13.54,31.42 12.06,31.24 10.89,30.95 10.88,30.92 10.87,30.88 10.85,30.85 10.74,30.57 10.64,30.3 10.54,30.02 10.43,29.71 10.32,29.41 10.23,29.1 9.64,27.2 9.35,25.23 9.35,23.27 c 0,-0.39 0.01,-0.78 0.04,-1.17 0.02,-0.34 0.05,-0.67 0.09,-1.01 0,-0.09 0.01,-0.18 0.03,-0.26 0.04,-0.35 0.1,-0.7 0.16,-1.05 0.07,-0.38 0.15,-0.76 0.25,-1.14 0.52,1.03 2.29,1.87 2.29,1.87 -0.71,-1.41 -0.78,-2.96 -0.78,-2.96 0.76,0.03 1.48,0.09 2.15,0.17 3.62,0.4 5.96,1.32 5.96,1.32 -0.6,-1.07 -0.85,-2.48 -0.85,-2.48 4.56,0.71 7.04,4.01 7.04,4.01 0.1,-0.21 0.98,-3.64 4.74,-6.12 0,0 0.31,1.09 0.03,2.25 0,0 2.53,-2.34 3.85,-4.79 1.14,2.11 1.72,4.72 1.63,7.69 z"
       style="fill:url(#linear-gradient-3)"
       id="path62" />
    <path
       d="M 15.02,31.47 C 13.54,31.42 12.06,31.24 10.89,30.95 10.88,30.92 10.87,30.88 10.85,30.85 10.74,30.57 10.64,30.3 10.54,30.02 10.43,29.71 10.32,29.41 10.23,29.1 9.64,27.2 9.35,25.23 9.35,23.27 c 0,-0.39 0.01,-0.78 0.04,-1.17 0.02,-0.34 0.05,-0.67 0.09,-1.01 0,-0.09 0.01,-0.18 0.03,-0.26 0.04,-0.35 0.1,-0.7 0.16,-1.05 0.07,-0.38 0.15,-0.76 0.25,-1.14 0.52,1.03 2.29,1.87 2.29,1.87 -0.71,-1.41 -0.78,-2.96 -0.78,-2.96 0.76,0.03 1.48,0.09 2.15,0.17 -0.22,2.16 -0.22,4.73 0.15,7.76 0.28,2.31 0.73,4.29 1.29,5.99 z"
       style="fill:url(#linear-gradient-4)"
       id="path63" />
    <path
       d="m 35.98,19.6 v 0.06 c 0,0 0,0.05 -0.01,0.08 0,0.38 -0.03,0.77 -0.07,1.16 -0.05,0.55 -0.11,1.11 -0.2,1.66 -0.04,0.3 -0.09,0.59 -0.14,0.89 -0.05,0.29 -0.1,0.58 -0.16,0.87 -0.23,1.11 -0.52,2.21 -0.86,3.28 -0.02,0.07 -0.04,0.14 -0.07,0.21 -0.21,0.09 -0.82,0.17 -0.9,0.2 -0.07,0 -0.13,0.03 -0.2,0.04 0.73,-3.82 0.95,-8.77 -1.17,-13.13 0.73,-0.85 1.56,-1.91 2.15,-3.01 0.13,0.25 0.26,0.5 0.37,0.76 0.18,0.37 0.33,0.77 0.47,1.17 0.13,0.4 0.25,0.82 0.36,1.25 0.33,1.38 0.48,2.89 0.43,4.51 z"
       style="fill:url(#linearGradient93)"
       id="path64" />
    <path
       d="m 35.98,19.6 v 0.06 c -0.02,0.37 -0.05,0.74 -0.08,1.13 -0.05,0.59 -0.12,1.18 -0.2,1.77 -0.04,0.3 -0.09,0.59 -0.14,0.89 -0.01,0.03 -0.01,0.06 -0.02,0.09 -0.97,0.99 -2.62,2.16 -3.94,2.42 -2.01,0.38 -3.65,0.03 -4.63,-0.31 -0.65,-0.23 -1.36,-0.07 -1.85,0.41 -0.37,0.37 -0.84,0.92 -1.59,1.49 -2.65,2.03 -6.1,2.18 -9.25,1.19 C 12.76,28.26 10.81,26.89 9.51,25.79 9.4,24.95 9.35,24.11 9.35,23.27 c 0,-0.24 0.01,-0.47 0.02,-0.71 0.97,1.29 2.71,1.8 2.71,1.8 -0.81,-0.88 -0.99,-2.24 -0.99,-2.24 0.8,0.52 1.67,0.65 2.4,0.63 0.95,-0.02 1.64,-0.29 1.64,-0.29 -0.53,-0.66 -0.89,-1.62 -0.93,-1.74 1.27,0.64 3.31,-0.19 6.07,-0.03 1.95,0.1 3.95,1.67 4.96,2.58 0.32,0.29 0.83,0.17 0.99,-0.23 0.51,-1.28 1.67,-3.6 3.64,-4.44 2.75,-1.18 3.54,-2.14 3.54,-2.14 0,0 0.37,1.16 0.05,1.98 0,0 1.22,-0.28 2.4,-1.6 0.12,0.88 0.16,1.8 0.13,2.76 z"
       style="fill:url(#linear-gradient-6)"
       id="path65" />
    <path
       d="M 14.28,28.74 C 12.76,28.26 10.81,26.89 9.51,25.79 9.4,24.95 9.35,24.11 9.35,23.27 c 0,-0.24 0.01,-0.47 0.02,-0.71 0.97,1.29 2.71,1.8 2.71,1.8 -0.81,-0.88 -0.99,-2.24 -0.99,-2.24 0.8,0.52 1.67,0.65 2.4,0.63 0.04,0.86 0.12,1.77 0.24,2.73 0.14,1.17 0.33,2.26 0.55,3.26 z"
       style="fill:url(#linear-gradient-7)"
       id="path66" />
    <path
       d="m 35.97,19.86 c 0,0.34 -0.03,0.69 -0.07,1.04 -0.05,0.55 -0.11,1.11 -0.2,1.66 0.08,-0.59 0.15,-1.18 0.2,-1.77 0.02,-0.32 0.05,-0.63 0.07,-0.93 z"
       style="fill:url(#linear-gradient-8)"
       id="path67" />
    <path
       d="m 35.99,18.99 c 0,0.2 0,0.4 -0.01,0.61 v 0.06 c 0,0.07 -0.01,0.13 -0.01,0.2 -0.02,0.3 -0.05,0.61 -0.07,0.93 -0.05,0.59 -0.12,1.18 -0.2,1.77 -0.04,0.3 -0.09,0.59 -0.14,0.89 -0.01,0.03 -0.01,0.06 -0.02,0.09 -0.46,0.48 -1.08,0.99 -1.75,1.42 0.22,-2.58 0.08,-5.41 -0.81,-8.11 0.3,-0.25 0.42,-0.39 0.42,-0.39 0,0 0.37,1.16 0.05,1.98 0,0 1.22,-0.28 2.4,-1.6 0.05,0.34 0.08,0.7 0.1,1.06 0.03,0.35 0.04,0.72 0.04,1.09 z"
       style="fill:url(#linear-gradient-9)"
       id="path68" />
    <path
       d="m 35.98,19.66 c -0.01,0.4 -0.04,0.82 -0.08,1.24 -0.05,0.55 -0.11,1.11 -0.2,1.66 0.08,-0.59 0.15,-1.18 0.2,-1.77 0.03,-0.39 0.06,-0.76 0.08,-1.13 z"
       style="fill:url(#linear-gradient-10)"
       id="path69" />
    <path
       d="m 35.4,24.32 c -0.22,1.17 -0.52,2.32 -0.86,3.45 0,0.01 -0.03,0.03 -0.07,0.04 0.03,-0.07 0.05,-0.14 0.07,-0.21 0.34,-1.07 0.63,-2.17 0.86,-3.28 z"
       style="fill:url(#linear-gradient-11)"
       id="path70" />
    <path
       d="m 35.98,19.66 c -0.01,0.4 -0.04,0.82 -0.08,1.24 -0.05,0.55 -0.11,1.11 -0.2,1.66 0.08,-0.59 0.15,-1.18 0.2,-1.77 0.03,-0.39 0.06,-0.76 0.08,-1.13 z"
       style="fill:url(#linear-gradient-12)"
       id="path71" />
    <path
       d="m 27.87,24.1 c 0,0 0.41,-3.06 3.2,-4.08 2.79,-1.02 3.54,0.99 3.54,0.99 0,0 -0.2,1.45 -2.49,2.63 -2.29,1.18 -4.25,0.47 -4.25,0.47 z"
       style="fill:url(#linearGradient94)"
       id="path72" />
    <path
       d="m 23.79,25.07 c 0,0 -1.34,-2.69 -4.38,-2.47 -3.04,0.22 -4.75,2.31 -5.32,3.25 0,0 1.62,1.41 5.06,1.2 3.44,-0.21 4.65,-1.99 4.65,-1.99 z"
       style="fill:url(#linear-gradient-14)"
       id="path73" />
    <path
       d="m 27.87,24.1 c 0,0 0.41,-3.06 3.2,-4.08 2.79,-1.02 3.54,0.99 3.54,0.99 0,0 -0.2,1.45 -2.49,2.63 -2.29,1.18 -4.25,0.47 -4.25,0.47 z"
       style="fill:none;stroke:#204a87;stroke-width:0.7px;stroke-miterlimit:10"
       id="path74" />
    <path
       d="m 23.79,25.07 c 0,0 -1.34,-2.69 -4.38,-2.47 -3.04,0.22 -4.75,2.31 -5.32,3.25 0,0 1.62,1.41 5.06,1.2 3.44,-0.21 4.65,-1.99 4.65,-1.99 z"
       style="fill:none;stroke:#204a87;stroke-width:0.7px;stroke-miterlimit:10"
       id="path75" />
    <path
       d="m 24.59,32.12 c 0.45,0.08 1.16,0.13 1.93,-0.05 1.32,-0.31 1.73,-1.09 1.73,-1.09 0,0 -0.96,0.5 -2.12,0.43 -0.62,-0.03 -1.26,0.26 -1.66,0.42 -0.24,0.1 -0.2,0.24 0.11,0.29 z"
       style="fill:#bc9800"
       id="path76" />
    <path
       d="m 25.32,35.55 c 0.6,0.09 0.5,-0.15 1.35,-0.13 0.35,0 0.76,-0.3 0.84,-0.55 0.08,-0.25 -0.42,-0.6 -0.76,-0.63 -0.34,-0.03 -0.38,0.29 -0.93,0.27 -0.55,-0.02 -0.62,-0.35 -1.47,0.06 -0.85,0.41 -1.12,0.79 -1.51,0.83 -0.39,0.04 -0.07,0.49 0.5,0.42 0.57,-0.07 0.78,-0.47 1.99,-0.29 z"
       style="fill:#bc9800"
       id="path77" />
    <path
       d="m 25.6,36.62 c -0.61,0.08 -1.21,-0.01 -1.45,-0.05 -0.24,-0.04 0,0.53 0.7,0.69 0.7,0.16 1.15,-0.43 1.27,-0.58 0.12,-0.15 0.22,-0.35 0.22,-0.35 0,0 -0.15,0.22 -0.74,0.29 z"
       style="fill:#bc9800"
       id="path78" />
    <path
       d="m 35.9,20.9 c -0.21,2.28 -0.68,4.55 -1.36,6.71 -2.17,6.79 -7.57,13.07 -11.4,13.33 -3.09,0.21 -5.57,-1.26 -7.73,-3.23 C 12.98,35.49 11.18,32.2 10.23,29.11 8.22,22.6 9.64,15.33 14.53,10.42 16.14,8.8 18.1,7.5 20.31,6.76 25.57,5 31.63,7 34.28,11.77 c 1.35,2.44 1.95,5.55 1.62,9.12 z"
       style="fill:none;stroke:#937703;stroke-miterlimit:10"
       id="path79" />
    <g
       id="g91">
      <path
         d="m 37.87,25.94 3.68,-6.37 c 2.01,-3.48 3.58,-6.82 4.15,-8.15 0.44,-1.03 0.92,-2.34 1.31,-3.46 0.16,-0.47 -0.57,-0.89 -0.89,-0.52 -0.78,0.9 -1.67,1.97 -2.34,2.87 -0.87,1.16 -2.98,4.19 -4.99,7.67 l -3.68,6.37 h 0.01 c -0.19,0.34 0.27,0.97 1.02,1.4 0.76,0.44 1.53,0.52 1.72,0.19 z"
         style="fill:#3465a4"
         id="path80" />
      <g
         id="g90">
        <path
           d="m 35.36,24.29 c 0,0 -0.94,0.77 -1.62,1.64 -0.94,1.2 -1.24,1.55 -1.96,3.43 0,0 0.82,-0.18 2.29,-0.59 1.47,-0.41 2.68,-0.8 3.21,-1.94 0.53,-1.13 0.94,-2.66 0.94,-2.66 z"
           style="fill:#c17d11"
           id="path81" />
        <path
           d="m 32.06,29.12 c 0.16,-0.52 0.28,-1.07 0.57,-1.54 0.12,-0.19 0.25,-0.37 0.37,-0.56 0.06,-0.09 0.53,-0.57 0.51,-0.62 0.2,0.42 0.55,0.76 0.94,1.01 0.39,0.25 0.83,0.43 1.26,0.6 0.04,0.07 -0.06,0.14 -0.14,0.16 -0.3,0.08 -0.61,0.09 -0.92,0.13 -0.29,0.04 -0.51,0.12 -0.77,0.23 -0.28,0.12 -0.55,0.24 -0.82,0.38 -0.32,0.16 -0.63,0.17 -1,0.21 z"
           style="fill:#73d216"
           id="path82" />
        <path
           d="m 35.36,24.29 c 0,0 -0.94,0.77 -1.62,1.64 -0.94,1.2 -1.24,1.55 -1.96,3.43 0,0 0.82,-0.18 2.29,-0.59 1.47,-0.41 2.68,-0.8 3.21,-1.94 0.53,-1.13 0.94,-2.66 0.94,-2.66 z"
           style="fill:none;stroke:#7b4800;stroke-width:0.7px;stroke-miterlimit:10"
           id="path83" />
        <g
           id="g89">
          <path
             d="m 41.77,17.63 -4.87,8.43 c -0.31,-0.03 -0.38,-0.1 -0.77,-0.32 L 46.37,8 c 0,0 0.09,-0.16 0.23,-0.1 0.15,0.07 -0.02,0.52 -0.16,0.85 -0.9,2.09 -3.45,6.76 -4.68,8.88 z"
             style="fill:url(#linear-gradient-15)"
             id="path84" />
          <path
             d="m 40.85,20.74 c -0.19,0.33 -0.96,0.25 -1.72,-0.19 -0.76,-0.44 -1.22,-1.06 -1.02,-1.4 l -3,5.19 c -0.19,0.33 0.27,0.96 1.02,1.4 0.76,0.44 1.53,0.52 1.72,0.19 z"
             style="fill:url(#linear-gradient-16)"
             id="path85" />
          <path
             d="m 38.71,20.25 -2.95,5.12 C 35.33,25 35.11,24.58 35.25,24.33 v 0 l 2.83,-4.91 c 0.05,0.25 0.28,0.56 0.64,0.83 z"
             style="opacity:0.79;fill:url(#linearGradient95)"
             id="path86" />
          <path
             d="m 39.9,20.88 -3,5.18 H 36.88 C 36.65,26 36.39,25.89 36.14,25.74 l 3,-5.18 c 0.26,0.16 0.52,0.27 0.76,0.32 z"
             style="fill:url(#linear-gradient-18)"
             id="path87" />
          <path
             d="m 45.86,8.37 c 0,0 -3.59,5.73 -5.22,8.55 l -4.88,8.45 C 35.33,24.99 35.1,24.58 35.25,24.33 v 0 l 3.68,-6.37 c 2.01,-3.48 4.11,-6.51 4.99,-7.67 0.14,-0.18 0.27,-0.36 0.43,-0.55 l 0.02,-0.03 c 0.06,-0.07 0.12,-0.15 0.19,-0.23 -0.06,0.07 -0.12,0.14 -0.17,0.21 0.9,-0.88 1.49,-1.33 1.49,-1.33 z"
             style="opacity:0.79;fill:url(#linear-gradient-19)"
             id="path88" />
          <path
             d="M 37.25,26.09 C 36.93,26.08 36.53,25.97 36.14,25.75"
             style="fill:none;stroke:#231f20;stroke-width:0.2px;stroke-miterlimit:10"
             id="path89" />
        </g>
        <path
           d="m 41.54,19.57 c 2.01,-3.48 3.58,-6.82 4.15,-8.15 0.44,-1.03 0.92,-2.34 1.31,-3.46 0.16,-0.47 -0.57,-0.89 -0.89,-0.52 -0.78,0.9 -1.67,1.97 -2.34,2.87 -0.87,1.16 -2.98,4.19 -4.99,7.67 -0.65,1.12 -3.67,6.38 -3.67,6.38 -0.19,0.33 0.27,0.96 1.02,1.4 0.76,0.44 1.53,0.52 1.72,0.19 0,0 3.04,-5.24 3.69,-6.36 z"
           style="fill:none;stroke:#204a87;stroke-width:0.7px;stroke-miterlimit:10"
           id="path90" />
      </g>
    </g>
  </g>
</svg>
