<?xml version="1.0" encoding="UTF-8" standalone="no"?>
<svg
   viewBox="0 0 48 48"
   version="1.1"
   id="svg22487"
   sodipodi:docname="topotransfer.svg"
   inkscape:version="1.1 (c68e22c387, 2021-05-23)"
   xmlns:inkscape="http://www.inkscape.org/namespaces/inkscape"
   xmlns:sodipodi="http://sodipodi.sourceforge.net/DTD/sodipodi-0.dtd"
   xmlns:xlink="http://www.w3.org/1999/xlink"
   xmlns="http://www.w3.org/2000/svg"
   xmlns:svg="http://www.w3.org/2000/svg">
  <sodipodi:namedview
     id="namedview22489"
     pagecolor="#ffffff"
     bordercolor="#666666"
     borderopacity="1.0"
     inkscape:pageshadow="2"
     inkscape:pageopacity="0.0"
     inkscape:pagecheckerboard="0"
     showgrid="false"
     inkscape:zoom="15.6875"
     inkscape:cx="24"
     inkscape:cy="24"
     inkscape:window-width="2560"
     inkscape:window-height="1377"
     inkscape:window-x="-8"
     inkscape:window-y="-8"
     inkscape:window-maximized="1"
     inkscape:current-layer="svg22487" />
  <defs
     id="defs22357">
    <style
       id="style22281">.cls-1{fill:url(#radial-gradient);}.cls-12,.cls-15,.cls-2,.cls-26,.cls-6{fill:none;stroke:#285092;}.cls-15,.cls-2{stroke-linecap:round;stroke-linejoin:round;}.cls-2{stroke-width:1.4px;}.cls-3{fill:url(#linear-gradient);}.cls-4{fill:url(#linear-gradient-2);}.cls-5{fill:url(#linear-gradient-3);}.cls-12,.cls-26,.cls-6{stroke-miterlimit:10;}.cls-15,.cls-6{stroke-width:0.35px;}.cls-7{fill:url(#linear-gradient-4);}.cls-8{fill:url(#linear-gradient-5);}.cls-9{fill:url(#linear-gradient-6);}.cls-10{fill:url(#linear-gradient-7);}.cls-11{fill:url(#linear-gradient-8);}.cls-12{stroke-width:0.1px;}.cls-13{fill:#193774;}.cls-14{fill:url(#linear-gradient-9);}.cls-16{fill:url(#linear-gradient-10);}.cls-17{fill:url(#linear-gradient-11);}.cls-18{fill:#fff;}.cls-19{fill:url(#linear-gradient-12);}.cls-20{fill:url(#linear-gradient-13);}.cls-21{fill:url(#linear-gradient-14);}.cls-22{fill:url(#linear-gradient-15);}.cls-23{fill:url(#linear-gradient-16);}.cls-24{fill:url(#linear-gradient-17);}.cls-25{fill:url(#linear-gradient-18);}.cls-26{stroke-width:0.7px;}.cls-27{fill:url(#linear-gradient-19);}.cls-28{fill:url(#linear-gradient-20);}.cls-29{fill:url(#linear-gradient-21);}.cls-30{fill:url(#linear-gradient-22);}.cls-31{fill:url(#linear-gradient-23);}.cls-32{fill:url(#linear-gradient-24);}.cls-33{fill:url(#linear-gradient-25);}.cls-34{fill:url(#linear-gradient-26);}.cls-35{fill:url(#linear-gradient-27);}.cls-36{fill:#285092;}.cls-37{fill:url(#linear-gradient-28);}.cls-38{fill:url(#linear-gradient-29);}.cls-39{fill:url(#linear-gradient-30);}.cls-40{fill:url(#linear-gradient-31);}.cls-41{fill:url(#linear-gradient-32);}.cls-42{fill:url(#linear-gradient-33);}.cls-43{fill:url(#linear-gradient-34);}.cls-44{fill:url(#linear-gradient-35);}.cls-45{fill:url(#linear-gradient-36);}.cls-46{fill:url(#linear-gradient-37);}</style>
    <radialGradient
       id="radial-gradient"
       cx="116.94"
       cy="-101.79"
       r="13.63"
       gradientTransform="translate(-190.25 106.81) scale(1.83 0.66)"
       gradientUnits="userSpaceOnUse">
      <stop
         offset="0.2"
         stop-color="#212121"
         stop-opacity="0.5"
         id="stop22283" />
      <stop
         offset="0.53"
         stop-color="#212121"
         stop-opacity="0.21"
         id="stop22285" />
      <stop
         offset="0.95"
         stop-color="#212121"
         stop-opacity="0"
         id="stop22287" />
    </radialGradient>
    <linearGradient
       id="linear-gradient"
       x1="45.41"
       y1="18.84"
       x2="18.28"
       y2="29.07"
       gradientUnits="userSpaceOnUse">
      <stop
         offset="0.16"
         stop-color="#b3cae4"
         id="stop22290" />
      <stop
         offset="1"
         stop-color="#285092"
         id="stop22292" />
    </linearGradient>
    <linearGradient
       id="linear-gradient-2"
       x1="38.29"
       y1="39.98"
       x2="38.88"
       y2="33.66"
       gradientUnits="userSpaceOnUse">
      <stop
         offset="0"
         stop-color="#a2bede"
         stop-opacity="0"
         id="stop22295" />
      <stop
         offset="1"
         stop-color="#285092"
         id="stop22297" />
    </linearGradient>
    <linearGradient
       id="linear-gradient-3"
       x1="38.51"
       y1="34.26"
       x2="38.53"
       y2="30.53"
       xlink:href="#linear-gradient-2" />
    <linearGradient
       id="linear-gradient-4"
       x1="54.85"
       y1="18.97"
       x2="21.63"
       y2="35.5"
       gradientUnits="userSpaceOnUse">
      <stop
         offset="0"
         stop-color="#a2bede"
         stop-opacity="0"
         id="stop22301" />
      <stop
         offset="0.82"
         stop-color="#3d639f"
         stop-opacity="0.82"
         id="stop22303" />
      <stop
         offset="1"
         stop-color="#285092"
         id="stop22305" />
    </linearGradient>
    <linearGradient
       id="linear-gradient-5"
       x1="23.68"
       y1="47.15"
       x2="31.09"
       y2="33.82"
       gradientUnits="userSpaceOnUse">
      <stop
         offset="0"
         stop-color="#00255d"
         stop-opacity="0"
         id="stop22308" />
      <stop
         offset="1"
         stop-color="#00255d"
         id="stop22310" />
    </linearGradient>
    <linearGradient
       id="linear-gradient-6"
       x1="31.25"
       y1="47.84"
       x2="30.74"
       y2="30.79"
       xlink:href="#linear-gradient-5" />
    <linearGradient
       id="linear-gradient-7"
       x1="40.55"
       y1="30.6"
       x2="40.55"
       y2="27.16"
       xlink:href="#linear-gradient-2" />
    <linearGradient
       id="linear-gradient-8"
       x1="33.71"
       y1="29.85"
       x2="38.04"
       y2="18.18"
       xlink:href="#linear-gradient-2" />
    <linearGradient
       id="linear-gradient-9"
       x1="46.82"
       y1="6.79"
       x2="26.77"
       y2="15.64"
       xlink:href="#linear-gradient-5" />
    <linearGradient
       id="linear-gradient-10"
       x1="35.49"
       y1="19.55"
       x2="20.77"
       y2="26.44"
       xlink:href="#linear-gradient" />
    <linearGradient
       id="linear-gradient-11"
       x1="29.38"
       y1="29.04"
       x2="22.23"
       y2="19.59"
       xlink:href="#linear-gradient-5" />
    <linearGradient
       id="linear-gradient-12"
       x1="35.98"
       y1="22.67"
       x2="35.98"
       y2="18.45"
       xlink:href="#linear-gradient" />
    <linearGradient
       id="linear-gradient-13"
       x1="36.73"
       y1="25.24"
       x2="37.15"
       y2="17"
       gradientUnits="userSpaceOnUse">
      <stop
         offset="0.16"
         stop-color="#b3cae4"
         id="stop22320" />
      <stop
         offset="1"
         stop-color="#a9b9d3"
         id="stop22322" />
    </linearGradient>
    <linearGradient
       id="linear-gradient-14"
       x1="35.6"
       y1="25.18"
       x2="36.01"
       y2="16.95"
       xlink:href="#linear-gradient" />
    <linearGradient
       id="linear-gradient-15"
       x1="37.51"
       y1="24.84"
       x2="38.73"
       y2="17.66"
       xlink:href="#linear-gradient" />
    <linearGradient
       id="linear-gradient-16"
       x1="30.83"
       y1="3.76"
       x2="30.83"
       y2="7.04"
       gradientUnits="userSpaceOnUse">
      <stop
         offset="0"
         stop-color="#a2bede"
         id="stop22327" />
      <stop
         offset="1"
         stop-color="#285092"
         id="stop22329" />
    </linearGradient>
    <linearGradient
       id="linear-gradient-17"
       x1="30.83"
       y1="1.68"
       x2="30.83"
       y2="11.43"
       xlink:href="#linear-gradient-5" />
    <linearGradient
       id="linear-gradient-18"
       x1="30.74"
       y1="3.83"
       x2="30.74"
       y2="8.23"
       xlink:href="#linear-gradient-16" />
    <linearGradient
       id="linear-gradient-19"
       x1="31.29"
       y1="42.52"
       x2="20.86"
       y2="34.69"
       xlink:href="#linear-gradient" />
    <linearGradient
       id="linear-gradient-20"
       x1="28.34"
       y1="44.96"
       x2="26.17"
       y2="42.17"
       xlink:href="#linear-gradient-5" />
    <linearGradient
       id="linear-gradient-21"
       x1="4.43"
       y1="18.49"
       x2="30.7"
       y2="30.84"
       xlink:href="#linear-gradient" />
    <linearGradient
       id="linear-gradient-22"
       x1="12.19"
       y1="36.51"
       x2="10.04"
       y2="33.89"
       xlink:href="#linear-gradient-2" />
    <linearGradient
       id="linear-gradient-23"
       x1="18.85"
       y1="29.41"
       x2="6.67"
       y2="20.79"
       xlink:href="#linear-gradient-2" />
    <linearGradient
       id="linear-gradient-24"
       x1="6.02"
       y1="22.29"
       x2="26.14"
       y2="25.9"
       xlink:href="#linear-gradient-16" />
    <linearGradient
       id="linear-gradient-25"
       x1="9.14"
       y1="29.82"
       x2="18.55"
       y2="35.43"
       xlink:href="#linear-gradient-16" />
    <linearGradient
       id="linear-gradient-26"
       x1="9.6"
       y1="30.43"
       x2="10.55"
       y2="33.84"
       xlink:href="#linear-gradient-16" />
    <linearGradient
       id="linear-gradient-27"
       x1="8.64"
       y1="36.5"
       x2="10.36"
       y2="30.21"
       xlink:href="#linear-gradient-16" />
    <linearGradient
       id="linear-gradient-28"
       x1="16.96"
       y1="2.61"
       x2="16.96"
       y2="11.91"
       xlink:href="#linear-gradient-16" />
    <linearGradient
       id="linear-gradient-29"
       x1="16.96"
       y1="2.61"
       x2="16.96"
       y2="11.91"
       xlink:href="#linear-gradient-5" />
    <linearGradient
       id="linear-gradient-30"
       x1="16.17"
       y1="6.86"
       x2="16.17"
       y2="10.92"
       xlink:href="#linear-gradient-5" />
    <linearGradient
       id="linear-gradient-31"
       x1="18.21"
       y1="4.64"
       x2="18.21"
       y2="8.46"
       xlink:href="#linear-gradient-16" />
    <linearGradient
       id="linear-gradient-32"
       x1="19.53"
       y1="22.42"
       x2="27.46"
       y2="27.3"
       xlink:href="#linear-gradient" />
    <linearGradient
       id="linear-gradient-33"
       x1="23.08"
       y1="33.03"
       x2="23.45"
       y2="18.77"
       xlink:href="#linear-gradient-5" />
    <linearGradient
       id="linear-gradient-34"
       x1="11.85"
       y1="4.5"
       x2="11.85"
       y2="8.65"
       xlink:href="#linear-gradient-16" />
    <linearGradient
       id="linear-gradient-35"
       x1="12.22"
       y1="21.88"
       x2="12.31"
       y2="20.65"
       gradientUnits="userSpaceOnUse">
      <stop
         offset="0.01"
         stop-color="#fff"
         id="stop22350" />
      <stop
         offset="1"
         stop-color="#285092"
         id="stop22352" />
    </linearGradient>
    <linearGradient
       id="linear-gradient-36"
       x1="10.89"
       y1="21.57"
       x2="11.26"
       y2="21.57"
       xlink:href="#linear-gradient-13" />
    <linearGradient
       id="linear-gradient-37"
       x1="10.71"
       y1="22.74"
       x2="12.49"
       y2="21.66"
       xlink:href="#linear-gradient" />
    <linearGradient
       inkscape:collect="always"
       xlink:href="#linear-gradient"
       id="linearGradient22548"
       gradientUnits="userSpaceOnUse"
       x1="45.41"
       y1="18.84"
       x2="18.28"
       y2="29.07" />
    <linearGradient
       inkscape:collect="always"
       xlink:href="#linear-gradient-2"
       id="linearGradient22550"
       gradientUnits="userSpaceOnUse"
       x1="38.29"
       y1="39.98"
       x2="38.88"
       y2="33.66" />
    <linearGradient
       inkscape:collect="always"
       xlink:href="#linear-gradient-5"
       id="linearGradient22552"
       gradientUnits="userSpaceOnUse"
       x1="23.68"
       y1="47.15"
       x2="31.09"
       y2="33.82" />
    <linearGradient
       inkscape:collect="always"
       xlink:href="#linear-gradient-13"
       id="linearGradient22554"
       gradientUnits="userSpaceOnUse"
       x1="36.73"
       y1="25.24"
       x2="37.15"
       y2="17" />
    <linearGradient
       inkscape:collect="always"
       xlink:href="#linear-gradient-16"
       id="linearGradient22556"
       gradientUnits="userSpaceOnUse"
       x1="30.83"
       y1="3.76"
       x2="30.83"
       y2="7.04" />
  </defs>
  <g
     id="shadow">
    <ellipse
       class="cls-1"
       cx="24"
       cy="39.27"
       rx="24"
       ry="8.72"
       id="ellipse22359" />
  </g>
  <g
     id="ART"
     transform="matrix(1.1210496,0,0,1.1212779,-2.254213,-3.0327991)"
     style="stroke-width:0.89193">
    <path
       class="cls-2"
       d="M 37.5,8.86 V 4.77 H 24.1 C 22.75,4.59 20.45,4.33 17.67,3.88 14.89,3.43 12.67,3.19 11.1,4.01 10,4.61 9.71,6 9.86,7.29 a 8.79,8.79 0 0 0 1.58,3.2 c 0,0 -2.84,3.76 -3.37,6 C 7.4,19.4 8.18,19 8,20.85 7.82,22.7 5,25.59 4.15,26.32 3.3,27.05 4.42,28.54 7.33,28.37 a 5.89,5.89 0 0 1 0.34,1 1.51,1.51 0 0 1 -0.41,1.28 c -0.29,0.37 0.46,1.28 1.09,1.38 0,0 -0.46,1.08 -0.32,1.48 a 2.4,2.4 0 0 0 1.37,1.08 c 0.27,0.12 0.48,0.91 0.29,2.29 -0.19,1.38 -0.5,2.76 0.93,3.64 v 0 c 0.89,0.45 1.87,0.19 3.16,0 A 28.38,28.38 0 0 0 16.64,40 C 20,39.73 24.1,39.71 24.1,39.71 H 37.85 L 43.24,26.5 Z"
       id="path22362" />
    <polygon
       class="cls-3"
       points="37.5,8.86 43.24,26.5 37.85,39.68 24.16,39.68 24.16,8.86 "
       id="polygon22364"
       style="fill:url(#linearGradient22548);stroke-width:0.89193" />
    <path
       class="cls-4"
       d="m 39.93,34.59 h -2.27 l 0.41,1.09 h 1.42 z"
       id="path22366"
       style="fill:url(#linearGradient22550);stroke-width:0.89193" />
    <polyline
       class="cls-5"
       points="40.39 33.46 37.42 33.46 35.51 32.07 37.42 30.68 41.53 30.68"
       id="polyline22368"
       style="fill:url(#linear-gradient-3);stroke-width:0.89193" />
    <polyline
       class="cls-6"
       points="40.39 33.46 37.42 33.46 35.51 32.07 37.42 30.68 41.53 30.68"
       id="polyline22370" />
    <line
       class="cls-6"
       x1="35.509998"
       y1="32.07"
       x2="40.959999"
       y2="32.07"
       id="line22372" />
    <path
       class="cls-7"
       d="m 38.2,38.82 h -2.89 l -2.62,-2.35 v -7 l 1,-2.89 -2.8,-1.06 c -0.09,0 -1.06,-1.92 -1.06,-1.92 l 0.8,-1.6 h -6.5 v 17.68 h 13.72 z"
       id="path22374"
       style="fill:url(#linear-gradient-4);stroke-width:0.89193" />
    <polygon
       class="cls-8"
       points="24.16,28.25 24.16,39.68 24.16,39.68 28.83,39.68 37.85,39.68 29.97,39.68 27.2,34.27 27.2,27.6 26.03,28.25 "
       id="polygon22376"
       style="fill:url(#linearGradient22552);stroke-width:0.89193" />
    <polygon
       class="cls-9"
       points="24.16,28.25 24.16,39.68 24.16,39.68 24.16,29.16 25.75,30.56 25.75,34.81 28.83,39.68 37.85,39.68 29.97,39.68 27.2,34.27 27.2,27.6 26.03,28.25 "
       id="polygon22378"
       style="fill:url(#linear-gradient-6);stroke-width:0.89193" />
    <polygon
       class="cls-10"
       points="42.69,27.83 38.41,27.83 41.92,29.73 "
       id="polygon22380"
       style="fill:url(#linear-gradient-7);stroke-width:0.89193" />
    <polygon
       class="cls-11"
       points="41.46,21.04 39.02,24.44 37.52,21.63 34.27,20 33.51,18.31 38.3,18.31 38.87,18.31 40.59,18.31 "
       id="polygon22382"
       style="fill:url(#linear-gradient-8);stroke-width:0.89193" />
    <polygon
       class="cls-12"
       points="37.5,8.72 43.24,26.5 37.85,39.68 24.16,39.68 24.16,8.72 "
       id="polygon22384" />
    <polygon
       class="cls-13"
       points="33.61,18.62 39.97,18.62 39.32,16.76 33.11,16.76 32.14,19.13 "
       id="polygon22386"
       style="stroke-width:0.89193" />
    <polygon
       class="cls-14"
       points="24.16,8.72 31.89,8.61 32.56,12.73 29.8,15.34 30.66,21.99 24.16,21.99 "
       id="polygon22388"
       style="fill:url(#linear-gradient-9);stroke-width:0.89193" />
    <polygon
       class="cls-15"
       points="24.16,8.72 31.89,8.61 32.56,12.73 29.8,15.34 30.66,21.99 24.16,21.99 "
       id="polygon22390" />
    <polyline
       class="cls-6"
       points="39.69 25.84 38.41 25.84 38.41 27.83 42.69 27.83"
       id="polyline22392" />
    <polygon
       class="cls-16"
       points="27.2,27.55 27.2,24.18 27.89,22.3 26.86,20.57 24.16,20.57 24.16,28.25 26.03,28.25 "
       id="polygon22394"
       style="fill:url(#linear-gradient-10);stroke-width:0.89193" />
    <polyline
       class="cls-15"
       points="27.89 22.3 26.86 20.57 24.16 20.57 24.16 28.25 26.03 28.25 27.2 27.55"
       id="polyline22396" />
    <polygon
       class="cls-17"
       points="27.2,27.14 27.2,24.18 27.54,23.28 26.15,22.07 24.16,22.07 24.16,25.46 25.75,27.14 "
       id="polygon22398"
       style="fill:url(#linear-gradient-11);stroke-width:0.89193" />
    <polygon
       class="cls-18"
       points="34.7,19.93 38.41,19.93 38.41,22.15 33.94,22.15 32.88,20.95 "
       id="polygon22400"
       style="stroke-width:0.89193" />
    <polygon
       class="cls-19"
       points="38.41,21.11 33.55,21.11 33.55,20.85 34.83,20.19 38.41,20.19 "
       id="polygon22402"
       style="fill:url(#linear-gradient-12);stroke-width:0.89193" />
    <rect
       class="cls-13"
       x="35.509998"
       y="20.370001"
       width="1.76"
       height="1.78"
       id="rect22404"
       style="stroke-width:0.89193" />
    <rect
       class="cls-20"
       x="36.610001"
       y="20.76"
       width="0.66000003"
       height="0.67000002"
       id="rect22406"
       style="fill:url(#linearGradient22554);stroke-width:0.89193" />
    <rect
       class="cls-21"
       x="35.509998"
       y="21.65"
       width="0.5"
       height="0.50999999"
       id="rect22408"
       style="fill:url(#linear-gradient-14);stroke-width:0.89193" />
    <polygon
       class="cls-13"
       points="39.52,20.37 38.41,19.93 34.7,19.93 32.88,20.95 33.94,22.15 34.39,22.15 33.67,20.93 34.83,20.37 37.95,20.37 38.41,20.71 "
       id="polygon22410"
       style="stroke-width:0.89193" />
    <polygon
       class="cls-22"
       points="38.41,22.15 37.52,22.15 38.41,21.63 "
       id="polygon22412"
       style="fill:url(#linear-gradient-15);stroke-width:0.89193" />
    <rect
       class="cls-23"
       x="24.16"
       y="4.77"
       width="13.34"
       height="3.95"
       id="rect22414"
       style="fill:url(#linearGradient22556);stroke-width:0.89193" />
    <rect
       class="cls-24"
       x="24.16"
       y="4.77"
       width="13.34"
       height="3.95"
       id="rect22416"
       style="fill:url(#linear-gradient-17);stroke-width:0.89193" />
    <rect
       class="cls-25"
       x="23.98"
       y="4.77"
       width="13.51"
       height="1.77"
       id="rect22418"
       style="fill:url(#linear-gradient-18);stroke-width:0.89193" />
    <rect
       class="cls-15"
       x="24.16"
       y="4.77"
       width="13.34"
       height="3.95"
       id="rect22420" />
    <line
       class="cls-26"
       x1="24.139999"
       y1="4.8800001"
       x2="24.139999"
       y2="39.68"
       id="line22422" />
    <path
       class="cls-27"
       d="m 15.07,40.14 c 3.47,-0.42 9,-0.45 9,-0.45 V 27.33 h -4.66"
       id="path22424"
       style="fill:url(#linear-gradient-19);stroke-width:0.89193" />
    <path
       class="cls-28"
       d="m 15.07,40.14 c 3.47,-0.42 9,-0.45 9,-0.45 V 27.33 h -4.66"
       id="path22426"
       style="fill:url(#linear-gradient-20);stroke-width:0.89193" />
    <path
       class="cls-15"
       d="m 15.07,40.14 c 3.47,-0.42 9,-0.45 9,-0.45 V 27.33 h -4.66"
       id="path22428" />
    <path
       class="cls-29"
       d="m 9.65,36.86 c -0.17,1.29 -0.5,2.76 0.93,3.64 v 0 c 0.89,0.45 1.87,0.19 3.16,0 1.29,-0.19 5.68,-1 6.75,-2.15 a 7.91,7.91 0 0 0 1.85,-5.07 v -6.14 l 1.73,-0.79 V 8.61 H 17.5 a 10.61,10.61 0 0 0 -4.9,1.18 c 0,0 -3.87,3.88 -4.53,6.75 C 7.41,19.41 8.18,19 8,20.85 7.82,22.7 5,25.59 4.15,26.32 3.3,27.05 4.42,28.54 7.33,28.37 a 5.89,5.89 0 0 1 0.34,1 1.51,1.51 0 0 1 -0.41,1.28 c -0.29,0.37 0.46,1.28 1.09,1.38 0,0 -0.46,1.08 -0.32,1.48 a 2.4,2.4 0 0 0 1.37,1.08 c 0.23,0.1 0.44,0.89 0.25,2.27 z"
       id="path22430"
       style="fill:url(#linear-gradient-21);stroke-width:0.89193" />
    <path
       class="cls-30"
       d="m 11.38,34.06 c -0.21,0.47 -1.25,1 -1.66,1.83 0,-0.78 -0.16,-1.23 -0.36,-1.31 A 2.42,2.42 0 0 1 8,33.49 0.21,0.21 0 0 1 8,33.35 l 0.53,-0.22 2.4,-0.56 -0.44,0.93 c 0.57,-0.29 1.11,0.07 0.89,0.56 z"
       id="path22432"
       style="fill:url(#linear-gradient-22);stroke-width:0.89193" />
    <path
       class="cls-31"
       d="m 15.61,18.5 -5.3,0.25 c 0,0 -1.74,0.28 -2.45,0.38 A 7.63,7.63 0 0 1 8,20.7 4.15,4.15 0 0 1 8.31,21.52 c 0.14,0.5 -1.15,3 -1.65,3.61 -0.5,0.61 0.42,1.41 1.27,1.26 a 0.66,0.66 0 0 1 0.49,1.21 c -0.66,0.3 -3.38,0.76 -4.23,0 0,0 0.51,0.86 3.13,0.8 a 3.68,3.68 0 0 1 0.35,1.44 c 0,0 1.29,-1.49 1.45,-1.66 A 1.54,1.54 0 0 0 9.31,26 5.09,5.09 0 0 1 10.55,23.09 c 0.71,-0.71 0.83,-0.93 1.67,-1.11 0.84,-0.18 1.32,-1 0.77,-1.42 -0.55,-0.42 1.46,-2.07 2.37,-1.71"
       id="path22434"
       style="fill:url(#linear-gradient-23);stroke-width:0.89193" />
    <path
       class="cls-32"
       d="m 12.51,28.25 c 0,0 2.17,-0.26 3.14,-0.36 0.97,-0.1 1.64,1.43 1.49,4.38 a 20.71,20.71 0 0 1 -1.49,7 c -0.51,0.9 4.32,-1.19 4.32,-1.19 l 1.8,-1.75 a 8.62,8.62 0 0 0 0.53,-2 l 0.07,-1.18 v -6 l 0.37,-0.17 0.5,-8.47 -0.57,-7.92 c -0.19,0 -3.68,-1.4 -3.68,-1.4 a 21.11,21.11 0 0 0 -3.08,0 c 0,0.15 -2.05,3.29 -2.18,5 0,0 1.28,1.27 0.62,3.86 l 1.5,0.23 -0.29,0.94 a 3.58,3.58 0 0 1 0.92,2.38 7.45,7.45 0 0 1 -3.97,6.65 z"
       id="path22436"
       style="fill:url(#linear-gradient-24);stroke-width:0.89193" />
    <path
       class="cls-33"
       d="m 10.61,40.51 c 0.89,0.45 1.87,0.19 3.16,0 1.29,-0.19 5.68,-1 6.75,-2.15 a 7.91,7.91 0 0 0 1.85,-5.07 v -5.4 h -0.62 c 0,0 0,4.85 -1.81,7.06 -1.05,1.27 -2.9,2.61 -2.8,0.91 a 34.1,34.1 0 0 0 0,-3.59 29.3,29.3 0 0 1 -1.05,5.32 3.9,3.9 0 0 1 -2.23,2.16 c -2.73,0.92 -4.27,-0.38 -4.32,-1 v 0 a 2.11,2.11 0 0 0 1.07,1.76 z"
       id="path22438"
       style="fill:url(#linear-gradient-25);stroke-width:0.89193" />
    <path
       class="cls-34"
       d="m 12.51,32 c -0.55,0.32 -1.08,1 -1.65,1.33 a 6.25,6.25 0 0 1 -2,0.93 A 1.79,1.79 0 0 1 8,33.49 c -0.15,-0.4 0.31,-1.47 0.31,-1.47 l 1.56,-0.56 z"
       id="path22440"
       style="fill:url(#linear-gradient-26);stroke-width:0.89193" />
    <path
       class="cls-15"
       d="m 12.51,32 c -0.55,0.32 -1.08,1 -1.65,1.33 a 6.25,6.25 0 0 1 -2,0.93 A 1.79,1.79 0 0 1 8,33.49 c -0.15,-0.4 0.31,-1.47 0.31,-1.47 l 1.56,-0.56 z"
       id="path22442" />
    <path
       class="cls-35"
       d="m 13,31.41 a 1.4,1.4 0 0 1 -1,0.86 C 11.22,32.44 8.83,31.86 8.26,32.02 A 1.66,1.66 0 0 1 7.12,30.92 1.4,1.4 0 0 0 7.71,30.83 5.24,5.24 0 0 1 10.7,31 c 1.21,0.39 1.48,0.79 2.3,0.41 z"
       id="path22444"
       style="fill:url(#linear-gradient-27);stroke-width:0.89193" />
    <path
       class="cls-6"
       d="m 13,31.41 a 1.4,1.4 0 0 1 -1,0.86 C 11.22,32.44 8.83,31.86 8.26,32.02 A 1.66,1.66 0 0 1 7.12,30.92 1.4,1.4 0 0 0 7.71,30.83 5.24,5.24 0 0 1 10.7,31 c 1.21,0.39 1.48,0.79 2.3,0.41 z"
       id="path22446" />
    <path
       class="cls-12"
       d="m 9.65,36.86 c -0.17,1.29 -0.5,2.76 0.93,3.64 v 0 c 0.89,0.45 1.87,0.19 3.16,0 1.29,-0.19 5.68,-1 6.75,-2.15 a 7.91,7.91 0 0 0 1.85,-5.07 v -6.14 l 1.73,-0.79 V 8.61 H 17.5 a 10.61,10.61 0 0 0 -4.9,1.18 c 0,0 -3.87,3.88 -4.53,6.75 C 7.41,19.41 8.18,19 8,20.85 7.82,22.7 5,25.59 4.15,26.32 3.3,27.05 4.42,28.54 7.33,28.37 a 5.89,5.89 0 0 1 0.34,1 1.51,1.51 0 0 1 -0.41,1.28 c -0.29,0.37 0.46,1.28 1.09,1.38 0,0 -0.46,1.08 -0.32,1.48 a 2.4,2.4 0 0 0 1.37,1.08 c 0.23,0.1 0.44,0.89 0.25,2.27 z"
       id="path22448" />
    <path
       class="cls-36"
       d="M 11.5,10.82 A 4.08,4.08 0 0 1 9,8.37 c -0.85,-2 -0.7,-4.15 0.19,-4.8 0,0 -1.08,3.16 1.24,4.78"
       id="path22450"
       style="stroke-width:0.89193" />
    <path
       class="cls-37"
       d="M 11.44,10.49 A 8.79,8.79 0 0 1 9.86,7.29 C 9.71,6 10,4.61 11.1,4 c 1.62,-0.82 3.8,-0.58 6.57,-0.13 2.77,0.45 5.08,0.71 6.43,0.89 v 15.81 c 0,0 -2.1,0.79 -2.37,1.52 h -2.56 l -0.56,-5.25 a 3.61,3.61 0 0 0 -1.24,-1.95 c -0.95,-0.65 -1.12,-0.65 -1.12,-0.65 0,0 0.55,-1.43 0.78,-2.07 A 4.41,4.41 0 0 0 17.22,10 C 17.07,9.62 15.74,9.5 14.5,9.67 a 15.3,15.3 0 0 0 -3.06,0.82 z"
       id="path22452"
       style="fill:url(#linear-gradient-28);stroke-width:0.89193" />
    <path
       class="cls-38"
       d="M 11.44,10.49 A 8.79,8.79 0 0 1 9.86,7.29 C 9.71,6 10,4.61 11.1,4 c 1.62,-0.82 3.8,-0.58 6.57,-0.13 2.77,0.45 5.08,0.71 6.43,0.89 v 15.81 c 0,0 -2.1,0.79 -2.37,1.52 h -2.56 l -0.56,-5.25 a 3.61,3.61 0 0 0 -1.24,-1.95 c -0.95,-0.65 -1.12,-0.65 -1.12,-0.65 0,0 0.55,-1.43 0.78,-2.07 A 4.41,4.41 0 0 0 17.22,10 C 17.07,9.62 15.74,9.5 14.5,9.67 a 15.3,15.3 0 0 0 -3.06,0.82 z"
       id="path22454"
       style="fill:url(#linear-gradient-29);stroke-width:0.89193" />
    <path
       class="cls-39"
       d="m 22.36,9.27 c 0,0 -3.64,0.06 -5.13,2.05 a 3.21,3.21 0 0 0 0,-1.3 C 17.09,9.63 15.75,9.51 14.52,9.68 A 14.45,14.45 0 0 0 11.45,10.5 10.31,10.31 0 0 1 10,7.79 9.48,9.48 0 0 0 13.65,8.72 C 16.12,9 19.92,8.67 22.36,9.27 Z"
       id="path22456"
       style="fill:url(#linear-gradient-30);stroke-width:0.89193" />
    <path
       class="cls-40"
       d="m 23.32,7.86 a 9.2,9.2 0 0 1 -0.18,-1.67 24.63,24.63 0 0 0 -2.93,1.67 3.6,3.6 0 0 1 0.44,-1.69 16.12,16.12 0 0 0 -4.34,1.49 6.22,6.22 0 0 1 1.21,-2.25 13.9,13.9 0 0 0 -4.17,1.91 3.63,3.63 0 0 1 1.07,-2.13 4.55,4.55 0 0 0 -2,0.95 c 0.36,-1.55 2.15,-1.85 2.34,-1.89 a 5,5 0 0 1 1.89,0.11 3.35,3.35 0 0 0 -1.3,1 A 6.59,6.59 0 0 1 19.76,4.89 3.64,3.64 0 0 0 18.46,6 7.56,7.56 0 0 1 22,5.29 a 3.29,3.29 0 0 0 -0.59,1 5.68,5.68 0 0 1 2.59,-1 5.63,5.63 0 0 0 -0.68,2.57 z"
       id="path22458"
       style="fill:url(#linear-gradient-31);stroke-width:0.89193" />
    <path
       class="cls-15"
       d="M 11.44,10.49 A 8.79,8.79 0 0 1 9.86,7.29 C 9.71,6 10,4.61 11.1,4 c 1.62,-0.82 3.8,-0.58 6.57,-0.13 2.77,0.45 5.08,0.71 6.43,0.89 v 15.81 c 0,0 -2.1,0.79 -2.37,1.52 h -2.56 l -0.56,-5.25 a 3.61,3.61 0 0 0 -1.24,-1.95 c -0.95,-0.65 -1.12,-0.65 -1.12,-0.65 0,0 0.55,-1.43 0.78,-2.07 A 4.41,4.41 0 0 0 17.22,10 C 17.07,9.62 15.74,9.5 14.5,9.67 a 15.3,15.3 0 0 0 -3.06,0.82 z"
       id="path22460" />
    <path
       class="cls-13"
       d="m 9.25,19.4 a 5.18,5.18 0 0 0 1.75,-0.08 13,13 0 0 1 3.19,-0.4 2.9,2.9 0 0 1 1.35,0.43 c 0,0 0.43,0 0.58,-0.18 0.15,-0.18 0,-0.76 0,-0.76 A 8.67,8.67 0 0 0 13.34,17.59 23,23 0 0 0 9,17.9 a 2.24,2.24 0 0 1 -0.64,0 c 0,0 0.19,1.34 0.89,1.5 z"
       id="path22462"
       style="stroke-width:0.89193" />
    <path
       class="cls-41"
       d="m 21.88,22.06 c 0.33,0 0.74,-0.58 1.21,-1 a 2,2 0 0 1 1,-0.49 v 8.07 a 5.16,5.16 0 0 1 -1.24,0.43 c -0.34,0 -1,-0.8 -1,-0.8 A 3.66,3.66 0 0 1 21.75,26.03 5.34,5.34 0 0 0 22,23.16 c -0.31,-0.55 -0.39,-1 -0.12,-1.1 z"
       id="path22464"
       style="fill:url(#linear-gradient-32);stroke-width:0.89193" />
    <path
       class="cls-42"
       d="m 22.37,27.6 c 0,-0.46 0.87,-1.49 0.87,-2.26 0,-0.77 -0.65,-1 -0.71,-1.6 A 1.77,1.77 0 0 1 24.1,22 v 4.53 c 0,0 -1,0.36 -1.22,0.74 -0.22,0.38 -0.51,0.73 -0.51,0.33 z"
       id="path22466"
       style="fill:url(#linear-gradient-33);stroke-width:0.89193" />
    <path
       class="cls-15"
       d="m 21.88,22.06 c 0.33,0 0.74,-0.58 1.21,-1 a 2,2 0 0 1 1,-0.49 v 8.07 a 5.16,5.16 0 0 1 -1.24,0.43 c -0.34,0 -1,-0.8 -1,-0.8"
       id="path22468" />
    <path
       class="cls-43"
       d="M 13.08,4 A 2.68,2.68 0 0 0 10.75,5.35 C 10.19,6.7 11.5,8 11.5,8 A 4.93,4.93 0 0 1 11.67,5.69 4,4 0 0 1 13.08,4 Z"
       id="path22470"
       style="fill:url(#linear-gradient-34);stroke-width:0.89193" />
    <path
       class="cls-13"
       d="m 11.34,22.68 c 0,0 -0.31,0.18 -0.25,0.79 0,0 0,-0.27 0.4,-0.52 0.4,-0.25 1.38,-0.91 2.3,-1.47 0.46,-0.28 -0.89,-0.42 -0.89,-0.42 l -1.24,1.16"
       id="path22472"
       style="stroke-width:0.89193" />
    <path
       class="cls-13"
       d="m 11,21 a 1,1 0 0 1 -0.78,-0.79 3,3 0 0 0 1,0.14 4.86,4.86 0 0 1 2.37,0.52 0.87,0.87 0 0 0 0.86,0.06 3.16,3.16 0 0 1 -1.09,0.77 2.13,2.13 0 0 1 -1.14,-0.05"
       id="path22474"
       style="stroke-width:0.89193" />
    <path
       class="cls-18"
       d="m 11.17,20.93 a 3.57,3.57 0 0 1 2.21,0.49 5.87,5.87 0 0 0 -0.78,0.48 c -0.36,0.27 -1.11,0.91 -1.11,0.91 a 7.65,7.65 0 0 1 -0.31,-1.7"
       id="path22476"
       style="stroke-width:0.89193" />
    <path
       class="cls-44"
       d="m 11.17,20.93 a 3.57,3.57 0 0 1 2.21,0.49 5.87,5.87 0 0 0 -0.78,0.48 c -0.36,0.27 -1.11,0.91 -1.11,0.91 a 7.65,7.65 0 0 1 -0.31,-1.7"
       id="path22478"
       style="fill:url(#linear-gradient-35);stroke-width:0.89193" />
    <path
       class="cls-13"
       d="m 11.06,20.59 a 2.3,2.3 0 0 0 -0.18,0.93 c 0,0.71 0.27,1.29 0.61,1.29 0.34,0 0.62,-0.58 0.62,-1.29 a 2.15,2.15 0 0 0 -0.18,-0.9 c -0.3,-0.03 -0.64,-0.03 -0.87,-0.03 z"
       id="path22480"
       style="stroke-width:0.89193" />
    <ellipse
       class="cls-45"
       cx="11.07"
       cy="21.57"
       rx="0.19"
       ry="0.30000001"
       id="ellipse22482"
       style="fill:url(#linear-gradient-36);stroke-width:0.89193" />
    <ellipse
       class="cls-46"
       cx="11.78"
       cy="22.09"
       rx="0.12"
       ry="0.2"
       id="ellipse22484"
       style="fill:url(#linear-gradient-37);stroke-width:0.89193" />
  </g>
</svg>
