<?xml version="1.0" encoding="UTF-8" standalone="no"?>
<svg
   viewBox="0 0 48 48"
   version="1.1"
   id="svg31735"
   sodipodi:docname="volumenoisefog.svg"
   inkscape:version="1.1 (c68e22c387, 2021-05-23)"
   xmlns:inkscape="http://www.inkscape.org/namespaces/inkscape"
   xmlns:sodipodi="http://sodipodi.sourceforge.net/DTD/sodipodi-0.dtd"
   xmlns:xlink="http://www.w3.org/1999/xlink"
   xmlns="http://www.w3.org/2000/svg"
   xmlns:svg="http://www.w3.org/2000/svg"
   xmlns:rdf="http://www.w3.org/1999/02/22-rdf-syntax-ns#"
   xmlns:cc="http://creativecommons.org/ns#"
   xmlns:dc="http://purl.org/dc/elements/1.1/">
  <sodipodi:namedview
     id="namedview31737"
     pagecolor="#ffffff"
     bordercolor="#666666"
     borderopacity="1.0"
     inkscape:pageshadow="2"
     inkscape:pageopacity="0.0"
     inkscape:pagecheckerboard="0"
     showgrid="false"
     inkscape:zoom="15.6875"
     inkscape:cx="24"
     inkscape:cy="24"
     inkscape:window-width="2560"
     inkscape:window-height="1377"
     inkscape:window-x="-8"
     inkscape:window-y="-8"
     inkscape:window-maximized="1"
     inkscape:current-layer="svg31735"
     inkscape:snap-global="false" />
  <defs
     id="defs31629">
    <style
       id="style31520">.cls-1{isolation:isolate;}.cls-2{fill:url(#radial-gradient);}.cls-3{fill:url(#linear-gradient);}.cls-4{fill:url(#linear-gradient-2);}.cls-5{fill:url(#New_Gradient_Swatch_9);}.cls-6{fill:url(#linear-gradient-3);}.cls-7{fill:url(#linear-gradient-4);}.cls-19,.cls-23,.cls-26,.cls-27,.cls-29,.cls-36,.cls-37,.cls-38,.cls-8{mix-blend-mode:multiply;}.cls-9{fill:url(#New_Gradient_Swatch_9-2);}.cls-10{fill:url(#New_Gradient_Swatch_10);}.cls-11{fill:url(#linear-gradient-5);}.cls-12,.cls-16,.cls-30,.cls-34{fill:none;stroke-linecap:round;stroke-linejoin:round;stroke-width:0.7px;}.cls-12{stroke:url(#linear-gradient-6);}.cls-13{fill:url(#linear-gradient-7);}.cls-14{fill:url(#linear-gradient-8);}.cls-15{fill:url(#New_Gradient_Swatch_9-3);}.cls-16{stroke:#d0dfef;}.cls-17{fill:url(#New_Gradient_Swatch_10-2);}.cls-18{fill:url(#linear-gradient-9);}.cls-19{fill:url(#linear-gradient-10);}.cls-20{fill:url(#linear-gradient-11);}.cls-21{fill:url(#linear-gradient-12);}.cls-22{fill:url(#New_Gradient_Swatch_9-4);}.cls-23{fill:url(#New_Gradient_Swatch_9-5);}.cls-24{fill:url(#linear-gradient-13);}.cls-25{fill:url(#New_Gradient_Swatch_10-3);}.cls-26{fill:url(#New_Gradient_Swatch_9-6);}.cls-27{fill:url(#New_Gradient_Swatch_9-7);}.cls-28{fill:url(#linear-gradient-14);}.cls-29{fill:url(#linear-gradient-15);}.cls-30{stroke:url(#linear-gradient-16);}.cls-31{fill:url(#radial-gradient-2);}.cls-32{fill:url(#linear-gradient-17);}.cls-33{opacity:0.35;fill:url(#radial-gradient-3);}.cls-34{stroke:url(#linear-gradient-18);}.cls-35{fill:url(#linear-gradient-19);}.cls-36{fill:url(#linear-gradient-20);}.cls-37{fill:url(#linear-gradient-21);}.cls-38{fill:url(#linear-gradient-22);}.cls-39{fill:url(#linear-gradient-23);}.cls-40{fill:url(#linear-gradient-24);}.cls-41{fill:url(#linear-gradient-25);}.cls-42{fill:url(#linear-gradient-26);}.cls-43{fill:url(#New_Gradient_Swatch_9-8);}.cls-44{fill:url(#linear-gradient-27);}.cls-45{fill:url(#linear-gradient-28);}.cls-46{fill:url(#linear-gradient-29);}</style>
    <radialGradient
       id="radial-gradient"
       cx="41.84"
       cy="-3.7"
       r="20.49"
       gradientTransform="matrix(1.18,0,0,0.42,-25.17,37.08)"
       gradientUnits="userSpaceOnUse">
      <stop
         offset="0.03"
         stop-color="#2c2c2c"
         stop-opacity="0.5"
         id="stop31522" />
      <stop
         offset="0.68"
         stop-color="#2c2c2c"
         stop-opacity="0.1"
         id="stop31524" />
      <stop
         offset="0.93"
         stop-color="#2c2c2c"
         stop-opacity="0"
         id="stop31526" />
    </radialGradient>
    <linearGradient
       id="linear-gradient"
       x1="24.2"
       y1="25.45"
       x2="25.41"
       y2="16.79"
       gradientUnits="userSpaceOnUse">
      <stop
         offset="0"
         stop-color="#729fcf"
         id="stop31529" />
      <stop
         offset="1"
         stop-color="#e3ecf5"
         id="stop31531" />
    </linearGradient>
    <linearGradient
       id="linear-gradient-2"
       x1="18.09"
       y1="25.56"
       x2="13.91"
       y2="18.41"
       gradientUnits="userSpaceOnUse">
      <stop
         offset="0"
         stop-color="#b2cbe5"
         id="stop31534" />
      <stop
         offset="1"
         stop-color="#3465a4"
         id="stop31536" />
    </linearGradient>
    <linearGradient
       id="New_Gradient_Swatch_9"
       x1="14.93"
       y1="20.12"
       x2="17.93"
       y2="25.3"
       gradientUnits="userSpaceOnUse">
      <stop
         offset="0"
         stop-color="#204a87"
         id="stop31539" />
      <stop
         offset="1"
         stop-color="#729fcf"
         stop-opacity="0"
         id="stop31541" />
    </linearGradient>
    <linearGradient
       id="linear-gradient-3"
       x1="18.37"
       y1="7.59"
       x2="21.45"
       y2="20.46"
       xlink:href="#linear-gradient" />
    <linearGradient
       id="linear-gradient-4"
       x1="24.2"
       y1="25.45"
       x2="25.41"
       y2="16.79"
       xlink:href="#linear-gradient-2" />
    <linearGradient
       id="New_Gradient_Swatch_9-2"
       x1="21.16"
       y1="20.35"
       x2="25.44"
       y2="24.54"
       xlink:href="#New_Gradient_Swatch_9" />
    <linearGradient
       id="New_Gradient_Swatch_10"
       x1="20.7"
       y1="22.95"
       x2="20.7"
       y2="14.47"
       gradientUnits="userSpaceOnUse">
      <stop
         offset="0"
         stop-color="#204a87"
         id="stop31547" />
      <stop
         offset="0.85"
         stop-color="#9edbe8"
         id="stop31549" />
    </linearGradient>
    <linearGradient
       id="linear-gradient-5"
       x1="20.18"
       y1="12.34"
       x2="20.72"
       y2="17.51"
       gradientUnits="userSpaceOnUse">
      <stop
         offset="0"
         stop-color="snow"
         id="stop31552" />
      <stop
         offset="1"
         stop-color="#fffdfd"
         stop-opacity="0.19"
         id="stop31554" />
    </linearGradient>
    <linearGradient
       id="linear-gradient-6"
       x1="12.82"
       y1="21.76"
       x2="28.58"
       y2="21.76"
       gradientUnits="userSpaceOnUse">
      <stop
         offset="0"
         stop-color="#204a87"
         id="stop31557" />
      <stop
         offset="1"
         stop-color="#9edbe8"
         id="stop31559" />
    </linearGradient>
    <linearGradient
       id="linear-gradient-7"
       x1="31.61"
       y1="16.52"
       x2="27.96"
       y2="29.1"
       xlink:href="#linear-gradient-2" />
    <linearGradient
       id="linear-gradient-8"
       x1="24.93"
       y1="12.85"
       x2="29.44"
       y2="29.81"
       xlink:href="#linear-gradient-5" />
    <linearGradient
       id="New_Gradient_Swatch_9-3"
       x1="33.37"
       y1="32.12"
       x2="34.6"
       y2="20.95"
       xlink:href="#New_Gradient_Swatch_9" />
    <linearGradient
       id="New_Gradient_Swatch_10-2"
       x1="25.09"
       y1="22.27"
       x2="40.5"
       y2="22.27"
       gradientTransform="matrix(-1,0,0,1,65.59,0)"
       xlink:href="#New_Gradient_Swatch_10" />
    <linearGradient
       id="linear-gradient-9"
       x1="25.41"
       y1="15.87"
       x2="26.92"
       y2="17.89"
       gradientUnits="userSpaceOnUse">
      <stop
         offset="0"
         stop-color="snow"
         id="stop31566" />
      <stop
         offset="0.99"
         stop-color="#fffdfd"
         stop-opacity="0"
         id="stop31568" />
    </linearGradient>
    <linearGradient
       id="linear-gradient-10"
       x1="32.79"
       y1="22.05"
       x2="39.19"
       y2="22.05"
       gradientUnits="userSpaceOnUse">
      <stop
         offset="0"
         stop-color="#5c6162"
         id="stop31571" />
      <stop
         offset="1"
         stop-color="#3465a4"
         stop-opacity="0"
         id="stop31573" />
    </linearGradient>
    <linearGradient
       id="linear-gradient-11"
       x1="7.56"
       y1="25.1"
       x2="9.6"
       y2="29.09"
       xlink:href="#linear-gradient-2" />
    <linearGradient
       id="linear-gradient-12"
       x1="7.58"
       y1="23.55"
       x2="10.36"
       y2="30.86"
       xlink:href="#linear-gradient-5" />
    <linearGradient
       id="New_Gradient_Swatch_9-4"
       x1="36.9"
       y1="24.51"
       x2="38.01"
       y2="20.2"
       xlink:href="#New_Gradient_Swatch_9" />
    <linearGradient
       id="New_Gradient_Swatch_9-5"
       x1="27.41"
       y1="28.59"
       x2="22.23"
       y2="22.42"
       xlink:href="#New_Gradient_Swatch_9" />
    <linearGradient
       id="linear-gradient-13"
       x1="25.09"
       y1="22.5"
       x2="40.46"
       y2="22.5"
       xlink:href="#linear-gradient-5" />
    <linearGradient
       id="New_Gradient_Swatch_10-3"
       x1="40.7"
       y1="22.5"
       x2="25.58"
       y2="22.5"
       xlink:href="#New_Gradient_Swatch_10" />
    <linearGradient
       id="New_Gradient_Swatch_9-6"
       x1="39.95"
       y1="22.29"
       x2="31.5"
       y2="22.49"
       xlink:href="#New_Gradient_Swatch_9" />
    <linearGradient
       id="New_Gradient_Swatch_9-7"
       x1="23.01"
       y1="22.96"
       x2="34.88"
       y2="22.27"
       xlink:href="#New_Gradient_Swatch_9" />
    <linearGradient
       id="linear-gradient-14"
       x1="23.14"
       y1="19.81"
       x2="31.72"
       y2="23.9"
       xlink:href="#linear-gradient-9" />
    <linearGradient
       id="linear-gradient-15"
       x1="46.69"
       y1="19.38"
       x2="29.09"
       y2="23.34"
       xlink:href="#linear-gradient-10" />
    <linearGradient
       id="linear-gradient-16"
       x1="24.74"
       y1="22.27"
       x2="40.85"
       y2="22.27"
       xlink:href="#linear-gradient-6" />
    <radialGradient
       id="radial-gradient-2"
       cx="14.83"
       cy="29.89"
       r="9.19"
       gradientUnits="userSpaceOnUse">
      <stop
         offset="0.11"
         stop-color="#9edbe8"
         id="stop31587" />
      <stop
         offset="0.81"
         stop-color="#26518c"
         id="stop31589" />
      <stop
         offset="1"
         stop-color="#729fcf"
         id="stop31591" />
    </radialGradient>
    <linearGradient
       id="linear-gradient-17"
       x1="19.3"
       y1="34.56"
       x2="13.84"
       y2="25.49"
       gradientUnits="userSpaceOnUse">
      <stop
         offset="0.05"
         stop-color="#fff"
         stop-opacity="0"
         id="stop31594" />
      <stop
         offset="0.69"
         stop-color="snow"
         id="stop31596" />
    </linearGradient>
    <radialGradient
       id="radial-gradient-3"
       cx="13.14"
       cy="28.07"
       r="9.27"
       gradientUnits="userSpaceOnUse">
      <stop
         offset="0.28"
         stop-color="snow"
         id="stop31599" />
      <stop
         offset="1"
         stop-color="#fff"
         stop-opacity="0"
         id="stop31601" />
    </radialGradient>
    <linearGradient
       id="linear-gradient-18"
       x1="8.49"
       y1="32.43"
       x2="21.88"
       y2="32.43"
       xlink:href="#linear-gradient-6" />
    <linearGradient
       id="linear-gradient-19"
       x1="12.16"
       y1="29.52"
       x2="11.49"
       y2="27.73"
       xlink:href="#linear-gradient-17" />
    <linearGradient
       id="linear-gradient-20"
       x1="12.79"
       y1="29.51"
       x2="17.8"
       y2="41.88"
       gradientUnits="userSpaceOnUse">
      <stop
         offset="0"
         stop-color="#b2cbe5"
         stop-opacity="0"
         id="stop31606" />
      <stop
         offset="1"
         stop-color="#3465a4"
         id="stop31608" />
    </linearGradient>
    <linearGradient
       id="linear-gradient-21"
       x1="15.74"
       y1="32.55"
       x2="9.53"
       y2="37.38"
       xlink:href="#linear-gradient-20" />
    <linearGradient
       id="linear-gradient-22"
       x1="14.28"
       y1="34.5"
       x2="11.8"
       y2="39.51"
       xlink:href="#linear-gradient-20" />
    <linearGradient
       id="linear-gradient-23"
       x1="8.09"
       y1="31.15"
       x2="8.09"
       y2="40.08"
       gradientUnits="userSpaceOnUse">
      <stop
         offset="0"
         stop-color="#b2cbe5"
         id="stop31613" />
      <stop
         offset="0.69"
         stop-color="#3465a4"
         id="stop31615" />
    </linearGradient>
    <linearGradient
       id="linear-gradient-24"
       x1="8.22"
       y1="28.46"
       x2="8.05"
       y2="33.27"
       xlink:href="#linear-gradient-5" />
    <linearGradient
       id="linear-gradient-25"
       x1="29.08"
       y1="29.11"
       x2="29.08"
       y2="37.87"
       xlink:href="#linear-gradient-2" />
    <linearGradient
       id="linear-gradient-26"
       x1="28.88"
       y1="29.08"
       x2="29.11"
       y2="35.16"
       xlink:href="#linear-gradient-5" />
    <linearGradient
       id="New_Gradient_Swatch_9-8"
       x1="29.27"
       y1="39.38"
       x2="28.35"
       y2="29.4"
       xlink:href="#New_Gradient_Swatch_9" />
    <linearGradient
       id="linear-gradient-27"
       x1="34.6"
       y1="24.25"
       x2="34.6"
       y2="30.62"
       xlink:href="#linear-gradient-2" />
    <linearGradient
       id="linear-gradient-28"
       x1="34.08"
       y1="13.7"
       x2="32.96"
       y2="14.16"
       gradientUnits="userSpaceOnUse">
      <stop
         offset="0"
         stop-color="#d0dfef"
         id="stop31623" />
      <stop
         offset="1"
         stop-color="#d0dfef"
         stop-opacity="0"
         id="stop31625" />
    </linearGradient>
    <linearGradient
       id="linear-gradient-29"
       x1="39.65"
       y1="29.69"
       x2="38.44"
       y2="30.94"
       xlink:href="#linear-gradient-28" />
    <linearGradient
       inkscape:collect="always"
       xlink:href="#linear-gradient"
       id="linearGradient31796"
       gradientUnits="userSpaceOnUse"
       x1="24.2"
       y1="25.45"
       x2="25.41"
       y2="16.79" />
    <linearGradient
       inkscape:collect="always"
       xlink:href="#linear-gradient-2"
       id="linearGradient31798"
       gradientUnits="userSpaceOnUse"
       x1="18.09"
       y1="25.56"
       x2="13.91"
       y2="18.41" />
    <linearGradient
       inkscape:collect="always"
       xlink:href="#New_Gradient_Swatch_9"
       id="linearGradient31800"
       gradientUnits="userSpaceOnUse"
       x1="14.93"
       y1="20.12"
       x2="17.93"
       y2="25.3" />
    <linearGradient
       inkscape:collect="always"
       xlink:href="#New_Gradient_Swatch_10"
       id="linearGradient31802"
       gradientUnits="userSpaceOnUse"
       x1="20.7"
       y1="22.95"
       x2="20.7"
       y2="14.47" />
    <linearGradient
       inkscape:collect="always"
       xlink:href="#linear-gradient-5"
       id="linearGradient31804"
       gradientUnits="userSpaceOnUse"
       x1="20.18"
       y1="12.34"
       x2="20.72"
       y2="17.51" />
    <linearGradient
       inkscape:collect="always"
       xlink:href="#linear-gradient-6"
       id="linearGradient31806"
       gradientUnits="userSpaceOnUse"
       x1="12.82"
       y1="21.76"
       x2="28.58"
       y2="21.76" />
    <linearGradient
       inkscape:collect="always"
       xlink:href="#linear-gradient-9"
       id="linearGradient31808"
       gradientUnits="userSpaceOnUse"
       x1="25.41"
       y1="15.87"
       x2="26.92"
       y2="17.89" />
    <linearGradient
       inkscape:collect="always"
       xlink:href="#linear-gradient-10"
       id="linearGradient31810"
       gradientUnits="userSpaceOnUse"
       x1="32.79"
       y1="22.05"
       x2="39.19"
       y2="22.05" />
    <linearGradient
       inkscape:collect="always"
       xlink:href="#linear-gradient-17"
       id="linearGradient31812"
       gradientUnits="userSpaceOnUse"
       x1="19.3"
       y1="34.56"
       x2="13.84"
       y2="25.49" />
    <linearGradient
       inkscape:collect="always"
       xlink:href="#linear-gradient-20"
       id="linearGradient31814"
       gradientUnits="userSpaceOnUse"
       x1="12.79"
       y1="29.51"
       x2="17.8"
       y2="41.88" />
    <linearGradient
       inkscape:collect="always"
       xlink:href="#linear-gradient-28"
       id="linearGradient31816"
       gradientUnits="userSpaceOnUse"
       x1="34.08"
       y1="13.7"
       x2="32.96"
       y2="14.16" />
    <linearGradient
       inkscape:collect="always"
       xlink:href="#linearGradient4749"
       id="linearGradient4757"
       x1="11.482226"
       y1="18.736197"
       x2="0.2403495"
       y2="17.52191"
       gradientUnits="userSpaceOnUse"
       gradientTransform="translate(22.214495,21.534278)" />
    <linearGradient
       id="linearGradient4749">
      <stop
         style="stop-color:#115971;stop-opacity:1;"
         offset="0"
         id="stop4751" />
      <stop
         style="stop-color:#2e3436;stop-opacity:1;"
         offset="1"
         id="stop4753" />
    </linearGradient>
    <linearGradient
       inkscape:collect="always"
       xlink:href="#linearGradient4749"
       id="linearGradient4765"
       x1="14.285714"
       y1="15.557643"
       x2="23.209667"
       y2="21.2005"
       gradientUnits="userSpaceOnUse"
       gradientTransform="translate(22.214495,21.534278)" />
    <linearGradient
       inkscape:collect="always"
       xlink:href="#linearGradient4749"
       id="linearGradient4763"
       x1="23.391298"
       y1="4.9562163"
       x2="12.734793"
       y2="6.2419305"
       gradientUnits="userSpaceOnUse"
       gradientTransform="translate(22.214495,21.534278)" />
    <linearGradient
       inkscape:collect="always"
       xlink:href="#linearGradient4749"
       id="linearGradient4755"
       x1="3.0490763"
       y1="1.1314448"
       x2="9.3409996"
       y2="11.345731"
       gradientUnits="userSpaceOnUse"
       gradientTransform="translate(22.214495,21.534278)" />
  </defs>
  <title
     id="title31631">6-Volume_Adjust_Fog</title>
  <g
     id="shadow"
     style="isolation:isolate"
     transform="translate(0,4.3984064)">
    <ellipse
       class="cls-2"
       cx="24"
       cy="35.540001"
       rx="23.139999"
       ry="8.2600002"
       id="ellipse31633"
       style="fill:url(#radial-gradient)" />
  </g>
  <g
     id="ART"
     style="isolation:isolate;stroke-width:0.878702"
     transform="matrix(1.1375381,0,0,1.1385468,-2.2601877,-10.666176)">
    <polygon
       class="cls-3"
       points="20.7,29.83 20.7,20.95 28.23,17.32 28.23,26.2 "
       id="polygon31636"
       style="fill:url(#linearGradient31796);stroke-width:0.878702" />
    <polygon
       class="cls-4"
       points="20.7,29.83 20.7,20.95 13.17,17.32 13.17,26.2 "
       id="polygon31638"
       style="fill:url(#linearGradient31798);stroke-width:0.878702" />
    <polygon
       class="cls-5"
       points="20.7,29.83 20.7,20.95 13.17,17.32 13.17,26.2 "
       id="polygon31640"
       style="fill:url(#linearGradient31800);stroke-width:0.878702" />
    <polygon
       class="cls-6"
       points="28.23,17.32 20.7,13.69 13.17,17.32 20.7,20.95 "
       id="polygon31642"
       style="fill:url(#linear-gradient-3);stroke-width:0.878702" />
    <polygon
       class="cls-7"
       points="20.7,29.83 20.7,20.95 28.23,17.32 28.23,26.2 "
       id="polygon31644"
       style="fill:url(#linear-gradient-4);stroke-width:0.878702" />
    <g
       class="cls-8"
       id="g31648"
       style="stroke-width:0.878702">
      <polygon
         class="cls-9"
         points="20.7,20.95 28.23,17.32 28.23,26.2 20.7,29.83 "
         id="polygon31646"
         style="fill:url(#New_Gradient_Swatch_9-2);stroke-width:0.878702" />
    </g>
    <polygon
       class="cls-10"
       points="28.23,17.32 20.7,13.69 13.17,17.32 20.7,20.95 "
       id="polygon31650"
       style="fill:url(#linearGradient31802);stroke-width:0.878702" />
    <polygon
       class="cls-11"
       points="28.23,17.32 20.7,13.69 13.17,17.32 20.7,20.95 "
       id="polygon31652"
       style="fill:url(#linearGradient31804);stroke-width:0.878702" />
    <polygon
       class="cls-12"
       points="20.7,29.83 13.17,26.2 13.17,17.32 20.7,13.7 28.23,17.32 28.23,26.2 "
       id="polygon31654"
       style="stroke:url(#linearGradient31806)" />
    <path
       class="cls-13"
       d="m 39.43,30.15 a 5.83,5.83 0 0 1 -3,-0.56 4.08,4.08 0 0 1 -1.33,1.47 L 27.7,31.61 23.15,33.69 15.5,31 14.86,25.74 c 0.08,-2 2.17,-1.44 2.17,-1.44 0,0 0.16,-2.17 1.71,-2.23 a 2.87,2.87 0 0 1 2.39,1.49 1.56,1.56 0 0 1 1.47,0.34 C 22.42,23.19 22.45,21.53 23.49,21 a 3.33,3.33 0 0 1 2.07,-0.31 2.93,2.93 0 0 1 1.2,-3.37 4,4 0 0 1 3.18,-0.28 c 1.13,-3.21 3.21,-4.11 5.24,-3.5 2.03,0.61 2.5,4 2.5,4 0,0 2.8,0.65 3.4,2.41 a 5.24,5.24 0 0 1 -0.58,3.77 1.45,1.45 0 0 1 0.23,0.08 3.34,3.34 0 0 1 1.73,2.28 3.19,3.19 0 0 1 -3.03,4.07 z"
       id="path31656"
       style="fill:url(#linear-gradient-7);stroke-width:0.878702" />
    <path
       class="cls-14"
       d="m 39.43,30.15 a 5.83,5.83 0 0 1 -3,-0.56 4.08,4.08 0 0 1 -1.33,1.47 L 27.7,31.61 23.15,33.69 15.5,31 14.86,25.74 c 0.08,-2 2.17,-1.44 2.17,-1.44 0,0 0.16,-2.17 1.71,-2.23 a 2.87,2.87 0 0 1 2.39,1.49 1.56,1.56 0 0 1 1.47,0.34 C 22.42,23.19 22.45,21.53 23.49,21 a 3.33,3.33 0 0 1 2.07,-0.31 2.93,2.93 0 0 1 1.2,-3.37 4,4 0 0 1 3.18,-0.28 c 1.13,-3.21 3.21,-4.11 5.24,-3.5 2.03,0.61 2.5,4 2.5,4 0,0 2.8,0.65 3.4,2.41 a 5.24,5.24 0 0 1 -0.58,3.77 1.45,1.45 0 0 1 0.23,0.08 3.34,3.34 0 0 1 1.73,2.28 3.19,3.19 0 0 1 -3.03,4.07 z"
       id="path31658"
       style="fill:url(#linear-gradient-8);stroke-width:0.878702" />
    <path
       class="cls-15"
       d="m 26.61,29.46 a 4.41,4.41 0 0 1 3.61,-2.22 c 2.38,0 3,1.21 3,1.21 0,0 0.27,-2.26 1.91,-2.84 a 2.51,2.51 0 0 1 2.44,0.09 c 0,0 -0.22,-1.11 0.49,-1.45 0.71,-0.34 1.26,0.71 1.26,0.71 a 1.93,1.93 0 0 1 1.39,0.89 c 0.53,0.84 0.25,2.78 -1.26,3 A 4.07,4.07 0 0 1 36,27.67 c 0,0 -0.52,2.66 -2.62,2.78 a 43.73,43.73 0 0 0 -5.59,0.93"
       id="path31660"
       style="fill:url(#New_Gradient_Swatch_9-3);stroke-width:0.878702" />
    <path
       class="cls-16"
       d="m 36.39,29.59 a 5.83,5.83 0 0 0 3,0.56 3.19,3.19 0 0 0 3,-4 3.16,3.16 0 0 0 -1.84,-2.31 L 40.43,23.79 A 5.24,5.24 0 0 0 41.08,20 c -0.6,-1.76 -3.4,-2.41 -3.4,-2.41 0,0 -0.45,-3.37 -2.5,-4 -2.05,-0.63 -4.11,0.29 -5.24,3.5 a 4,4 0 0 0 -3.18,0.28 2.93,2.93 0 0 0 -1.2,3.37 3.33,3.33 0 0 0 -2.07,0.31 c -1,0.53 -1.07,2.19 -0.89,2.9 a 1.56,1.56 0 0 0 -1.47,-0.34 2.87,2.87 0 0 0 -2.39,-1.49 c -1.55,0.06 -1.71,2.23 -1.71,2.23 0,0 -2.09,-0.58 -2.17,1.44 L 15.5,31 23.11,33.65 27.66,31.57 35,31.06 a 4.15,4.15 0 0 0 1.39,-1.47 z"
       id="path31662" />
    <path
       class="cls-17"
       d="m 32.8,34 c 4,0 7.22,-1.44 7.65,-3.3 a 1.92,1.92 0 0 0 0,-0.41 1.71,1.71 0 0 0 -0.14,-0.67 c 0,-0.1 -7.57,-19 -7.57,-19 l -7.57,19 a 1.76,1.76 0 0 0 -0.08,1.08 c 0.43,1.86 3.69,3.3 7.65,3.3 z"
       id="path31664"
       style="fill:url(#New_Gradient_Swatch_10-2);stroke-width:0.878702" />
    <path
       class="cls-18"
       d="m 26.39,32.33 a 44.14,44.14 0 0 0 6.37,3.27 v -25 0 z"
       id="path31666"
       style="fill:url(#linearGradient31808);stroke-width:0.878702" />
    <path
       class="cls-19"
       d="m 39.19,32.33 a 8.38,8.38 0 0 1 -2.79,1.22 l -3.61,-23 v 0 z"
       id="path31668"
       style="fill:url(#linearGradient31810);stroke-width:0.878702" />
    <path
       class="cls-20"
       d="m 14.73,25.15 a 2.58,2.58 0 0 0 -2.27,-0.66 2.73,2.73 0 0 0 -2.09,1.51 2.29,2.29 0 0 0 -1.88,0.43 2.18,2.18 0 0 0 -0.78,1.82 2.61,2.61 0 0 0 -1.86,0.84 1.92,1.92 0 0 0 -0.45,2 1.77,1.77 0 0 0 -1.1,0.72 2.47,2.47 0 0 0 0.15,2 h 11.07 v -7.9 c 0,0 -0.52,-0.52 -0.79,-0.76 z"
       id="path31670"
       style="fill:url(#linear-gradient-11);stroke-width:0.878702" />
    <path
       class="cls-21"
       d="m 14.73,25.15 a 2.58,2.58 0 0 0 -2.27,-0.66 2.73,2.73 0 0 0 -2.09,1.51 2.29,2.29 0 0 0 -1.88,0.43 2.18,2.18 0 0 0 -0.78,1.82 2.61,2.61 0 0 0 -1.86,0.84 1.92,1.92 0 0 0 -0.45,2 1.77,1.77 0 0 0 -1.1,0.72 2.47,2.47 0 0 0 0.15,2 h 11.07 v -7.9 c 0,0 -0.52,-0.52 -0.79,-0.76 z"
       id="path31672"
       style="fill:url(#linear-gradient-12);stroke-width:0.878702" />
    <path
       class="cls-16"
       d="m 14.73,25.15 a 2.58,2.58 0 0 0 -2.27,-0.66 2.73,2.73 0 0 0 -2.09,1.51 2.29,2.29 0 0 0 -1.88,0.43 2.18,2.18 0 0 0 -0.78,1.82 2.61,2.61 0 0 0 -1.86,0.84 1.92,1.92 0 0 0 -0.45,2 1.77,1.77 0 0 0 -1.1,0.72 2.47,2.47 0 0 0 0.15,2 h 11.07 v -7.9 c 0,0 -0.52,-0.52 -0.79,-0.76 z"
       id="path31674" />
    <path
       class="cls-22"
       d="m 36,20.15 c 0,0 2,-0.52 2.95,0.45 a 2,2 0 0 1 -1,3.4"
       id="path31676"
       style="fill:url(#New_Gradient_Swatch_9-4);stroke-width:0.878702" />
    <path
       class="cls-23"
       d="m 16.74,27.21 a 2.3,2.3 0 0 1 1.63,-1.39 1.92,1.92 0 0 1 1.85,0.5 1.86,1.86 0 0 1 1.52,-1.15 2.24,2.24 0 0 1 1.94,0.53 2.24,2.24 0 0 1 2.71,-1.88 c 0,0 0,-3.92 4.54,-3.67 L 28,30.27 l -5.92,2.5 -3,-1.39"
       id="path31678"
       style="fill:url(#New_Gradient_Swatch_9-5);stroke-width:0.878702" />
    <path
       class="cls-24"
       d="m 40.46,30 a 3.48,3.48 0 0 1 -1,0.18 5.83,5.83 0 0 1 -3,-0.56 4.15,4.15 0 0 1 -1.46,1.44 l -7.38,0.55 -2.12,-0.1 a 2.27,2.27 0 0 1 -0.4,-0.83 1.76,1.76 0 0 1 0.08,-1.08 c 0,-0.07 3.58,-9 5.8,-14.59 a 3.24,3.24 0 0 1 0.29,-0.34 1.67,1.67 0 0 1 0.23,-0.23 3.57,3.57 0 0 1 2,-1 h 0.32 c 2.1,5.29 6.42,16.12 6.44,16.2 a 1.2,1.2 0 0 1 0.2,0.36 z"
       id="path31680"
       style="fill:url(#linear-gradient-13);stroke-width:0.878702" />
    <path
       class="cls-25"
       d="m 40.46,30 a 3.48,3.48 0 0 1 -1,0.18 5.83,5.83 0 0 1 -3,-0.56 4.15,4.15 0 0 1 -1.46,1.44 l -7.38,0.55 -2.12,-0.1 a 2.27,2.27 0 0 1 -0.4,-0.83 1.76,1.76 0 0 1 0.08,-1.08 c 0,-0.07 3.58,-9 5.8,-14.59 a 3.24,3.24 0 0 1 0.29,-0.34 1.67,1.67 0 0 1 0.23,-0.23 3.57,3.57 0 0 1 2,-1 h 0.32 c 2.1,5.29 6.42,16.12 6.44,16.2 a 1.2,1.2 0 0 1 0.2,0.36 z"
       id="path31682"
       style="fill:url(#New_Gradient_Swatch_10-3);stroke-width:0.878702" />
    <path
       class="cls-26"
       d="m 40.46,30 a 3.48,3.48 0 0 1 -1,0.18 5.83,5.83 0 0 1 -3,-0.56 4.15,4.15 0 0 1 -1.46,1.44 l -7.38,0.55 -2.12,-0.1 a 2.27,2.27 0 0 1 -0.4,-0.83 1.76,1.76 0 0 1 0.08,-1.08 c 0,-0.07 3.58,-9 5.8,-14.59 a 3.24,3.24 0 0 1 0.29,-0.34 1.67,1.67 0 0 1 0.23,-0.23 3.57,3.57 0 0 1 2,-1 h 0.32 c 2.1,5.29 6.42,16.12 6.44,16.2 a 1.2,1.2 0 0 1 0.2,0.36 z"
       id="path31684"
       style="fill:url(#New_Gradient_Swatch_9-6);stroke-width:0.878702" />
    <path
       class="cls-27"
       d="m 40.46,30 a 3.48,3.48 0 0 1 -1,0.18 5.83,5.83 0 0 1 -3,-0.56 4.15,4.15 0 0 1 -1.46,1.44 l -7.38,0.55 -2.12,-0.1 a 2.27,2.27 0 0 1 -0.4,-0.83 1.76,1.76 0 0 1 0.08,-1.08 c 0,-0.07 3.58,-9 5.8,-14.59 a 3.24,3.24 0 0 1 0.29,-0.34 1.67,1.67 0 0 1 0.23,-0.23 3.57,3.57 0 0 1 2,-1 h 0.32 c 2.1,5.29 6.42,16.12 6.44,16.2 a 1.2,1.2 0 0 1 0.2,0.36 z"
       id="path31686"
       style="fill:url(#New_Gradient_Swatch_9-7);stroke-width:0.878702" />
    <path
       class="cls-28"
       d="m 32.79,13.62 v 17.61 l -5.11,0.38 -1.22,0.56 5.25,-17.88 a 3.87,3.87 0 0 1 1.08,-0.67 z"
       id="path31688"
       style="fill:url(#linear-gradient-14);stroke-width:0.878702" />
    <path
       class="cls-29"
       d="M 38.54,30.13 A 5.07,5.07 0 0 1 36.39,29.59 4,4 0 0 1 35.9,30.3 v 0 l -2.65,-16.81 0.39,-0.05 z"
       id="path31690"
       style="fill:url(#linear-gradient-15);stroke-width:0.878702" />
    <path
       class="cls-30"
       d="m 32.8,34 c 4,0 7.22,-1.44 7.65,-3.3 a 1.92,1.92 0 0 0 0,-0.41 1.71,1.71 0 0 0 -0.14,-0.67 c 0,-0.1 -7.57,-19 -7.57,-19 l -7.57,19 a 1.76,1.76 0 0 0 -0.08,1.08 c 0.43,1.86 3.69,3.3 7.65,3.3 z"
       id="path31692"
       style="stroke:url(#linear-gradient-16)" />
    <circle
       class="cls-31"
       cx="15.19"
       cy="32.43"
       r="6.3499999"
       id="circle31694"
       style="fill:url(#radial-gradient-2);stroke-width:0.878702" />
    <path
       class="cls-32"
       d="m 20.38,32.43 a 5.19,5.19 0 0 0 -5.19,-5.19 5.34,5.34 0 0 0 -2.39,0.59 c -0.29,0.13 -0.5,0.54 -0.33,0.73 0.17,0.19 0.51,0 0.51,0 a 5.34,5.34 0 0 1 2.07,-0.44 5,5 0 0 1 5,5 9.46,9.46 0 0 1 -0.05,1.03 4.38,4.38 0 0 0 0.38,-1.72 z"
       id="path31696"
       style="fill:url(#linearGradient31812);stroke-width:0.878702" />
    <circle
       class="cls-33"
       cx="15.18"
       cy="32.369999"
       r="6.3499999"
       id="circle31698"
       style="fill:url(#radial-gradient-3);stroke-width:0.878702" />
    <circle
       class="cls-34"
       cx="15.19"
       cy="32.43"
       r="6.3499999"
       id="circle31700"
       style="stroke:url(#linear-gradient-18)" />
    <path
       class="cls-35"
       d="m 11.66,28.64 c 0.1,-0.13 0.26,-0.26 0.38,-0.23 0.12,0.03 0.08,0.31 -0.06,0.47 a 0.26,0.26 0 0 1 -0.35,0.08 c -0.07,-0.06 -0.04,-0.22 0.03,-0.32 z"
       id="path31702"
       style="fill:url(#linear-gradient-19);stroke-width:0.878702" />
    <path
       class="cls-36"
       d="M 19.51,35.3 A 5.19,5.19 0 0 1 10,32.43 a 5.35,5.35 0 0 1 0.27,-1.66 6.38,6.38 0 0 0 -0.07,0.87 5.38,5.38 0 0 0 9.31,3.66 z"
       id="path31704"
       style="fill:url(#linearGradient31814);stroke-width:0.878702" />
    <path
       class="cls-37"
       d="M 19.51,35.3 A 5.19,5.19 0 0 1 10,32.43 a 5.35,5.35 0 0 1 0.27,-1.66 6.38,6.38 0 0 0 -0.07,0.87 5.38,5.38 0 0 0 9.31,3.66 z"
       id="path31706"
       style="fill:url(#linear-gradient-21);stroke-width:0.878702" />
    <path
       class="cls-38"
       d="M 19.25,35.65 A 5.18,5.18 0 0 1 10,32.43 a 4.36,4.36 0 0 1 0,-0.51 5.37,5.37 0 0 0 9.22,3.73 z"
       id="path31708"
       style="fill:url(#linear-gradient-22);stroke-width:0.878702" />
    <path
       class="cls-39"
       d="M 11.45,31.61 A 4.24,4.24 0 0 0 9.84,30 c -0.89,-0.34 -2.1,0.52 -2.1,0.52 A 3.37,3.37 0 0 0 5.32,29.64 c -1.37,0.14 -2.85,1 -2.77,2.54 a 2.47,2.47 0 0 0 2.76,2.15 4.13,4.13 0 0 0 2,-0.74 c 0,0 0.86,1.41 2,1.25 a 3.24,3.24 0 0 0 1.95,-1.26 2.09,2.09 0 0 0 1.54,0 1.22,1.22 0 0 0 0.83,-1.44 C 13.55,31.55 12.51,31 11.45,31.61 Z"
       id="path31710"
       style="fill:url(#linear-gradient-23);stroke-width:0.878702" />
    <path
       class="cls-40"
       d="M 11.45,31.61 A 4.24,4.24 0 0 0 9.84,30 c -0.89,-0.34 -2.1,0.52 -2.1,0.52 A 3.37,3.37 0 0 0 5.32,29.64 c -1.37,0.14 -2.85,1 -2.77,2.54 a 2.47,2.47 0 0 0 2.76,2.15 4.13,4.13 0 0 0 2,-0.74 c 0,0 0.86,1.41 2,1.25 a 3.24,3.24 0 0 0 1.95,-1.26 2.09,2.09 0 0 0 1.54,0 1.22,1.22 0 0 0 0.83,-1.44 C 13.55,31.55 12.51,31 11.45,31.61 Z"
       id="path31712"
       style="fill:url(#linear-gradient-24);stroke-width:0.878702" />
    <path
       class="cls-16"
       d="M 11.45,31.61 A 4.24,4.24 0 0 0 9.84,30 c -0.89,-0.34 -2.1,0.52 -2.1,0.52 A 3.37,3.37 0 0 0 5.32,29.64 c -1.37,0.14 -2.85,1 -2.77,2.54 a 2.47,2.47 0 0 0 2.76,2.15 4.13,4.13 0 0 0 2,-0.74 c 0,0 0.86,1.41 2,1.25 a 3.24,3.24 0 0 0 1.95,-1.26 2.09,2.09 0 0 0 1.54,0 1.22,1.22 0 0 0 0.83,-1.44 C 13.55,31.55 12.51,31 11.45,31.61 Z"
       id="path31714" />
    <path
       class="cls-41"
       d="m 38.9,32.44 c 0,0 -0.24,-1.81 -1.69,-2 a 3,3 0 0 0 -2.31,0.68 4.34,4.34 0 0 0 -2.52,-1.88 5.67,5.67 0 0 0 -3.3,0.49 5.53,5.53 0 0 0 -3.37,-1.87 3.59,3.59 0 0 0 -3.57,3.43 3.13,3.13 0 0 0 -2.3,0.24 2.42,2.42 0 0 0 -1.14,1.94 3.74,3.74 0 0 0 -3,0.12 c -1.36,0.8 -1.43,1.84 -1.11,2.44 0.32,0.6 1.8,1.3 3.65,1.08 a 4.46,4.46 0 0 0 2.76,-1.17 6.24,6.24 0 0 0 4.65,1.85 c 3.16,0 4.2,-1.29 4.2,-1.29 a 8.64,8.64 0 0 0 4.39,0.5 5,5 0 0 0 3.5,-2 6.08,6.08 0 0 0 3.26,0.77 2.48,2.48 0 0 0 2.76,-2.44 c 0,-0.95 -0.75,-1.55 -1.9,-1.69 a 4.82,4.82 0 0 0 -2.96,0.8 z"
       id="path31716"
       style="fill:url(#linear-gradient-25);stroke-width:0.878702" />
    <path
       class="cls-42"
       d="m 38.9,32.44 c 0,0 -0.24,-1.81 -1.69,-2 a 3,3 0 0 0 -2.31,0.68 4.34,4.34 0 0 0 -2.52,-1.88 5.67,5.67 0 0 0 -3.3,0.49 5.53,5.53 0 0 0 -3.37,-1.87 3.59,3.59 0 0 0 -3.57,3.43 3.13,3.13 0 0 0 -2.3,0.24 2.42,2.42 0 0 0 -1.14,1.94 3.74,3.74 0 0 0 -3,0.12 c -1.36,0.8 -1.43,1.84 -1.11,2.44 0.32,0.6 1.8,1.3 3.65,1.08 a 4.46,4.46 0 0 0 2.76,-1.17 6.24,6.24 0 0 0 4.65,1.85 c 3.16,0 4.2,-1.29 4.2,-1.29 a 8.64,8.64 0 0 0 4.39,0.5 5,5 0 0 0 3.5,-2 6.08,6.08 0 0 0 3.26,0.77 2.48,2.48 0 0 0 2.76,-2.44 c 0,-0.95 -0.75,-1.55 -1.9,-1.69 a 4.82,4.82 0 0 0 -2.96,0.8 z"
       id="path31718"
       style="fill:url(#linear-gradient-26);stroke-width:0.878702" />
    <path
       class="cls-16"
       d="m 38.9,32.44 c 0,0 -0.24,-1.81 -1.69,-2 a 3,3 0 0 0 -2.31,0.68 4.34,4.34 0 0 0 -2.52,-1.88 5.67,5.67 0 0 0 -3.3,0.49 5.53,5.53 0 0 0 -3.37,-1.87 3.59,3.59 0 0 0 -3.57,3.43 3.13,3.13 0 0 0 -2.3,0.24 2.42,2.42 0 0 0 -1.14,1.94 3.74,3.74 0 0 0 -3,0.12 c -1.36,0.8 -1.43,1.84 -1.11,2.44 0.32,0.6 1.8,1.3 3.65,1.08 a 4.46,4.46 0 0 0 2.76,-1.17 6.24,6.24 0 0 0 4.65,1.85 c 3.16,0 4.2,-1.29 4.2,-1.29 a 8.64,8.64 0 0 0 4.39,0.5 5,5 0 0 0 3.5,-2 6.08,6.08 0 0 0 3.26,0.77 2.48,2.48 0 0 0 2.76,-2.44 c 0,-0.95 -0.75,-1.55 -1.9,-1.69 a 4.82,4.82 0 0 0 -2.96,0.8 z"
       id="path31720" />
    <path
       class="cls-43"
       d="M 18.43,36 C 17.34,36.31 16.19,35.8 16.17,35.34 16.15,34.88 17,34.1 18,34.46 c 0.72,0.25 0.83,0.42 0.83,0.42 a 1.52,1.52 0 0 1 1.43,-0.81 3.28,3.28 0 0 1 1.95,-1.19 1.76,1.76 0 0 1 1.63,0.46 c 0,0 0.69,-2.35 2.4,-2.46 a 3.28,3.28 0 0 1 2.76,1.37 5.64,5.64 0 0 1 3.2,-0.8 3,3 0 0 1 2.23,1.35 c 0,0 1.52,-1 2.55,-0.58 1.03,0.42 1.17,1.06 1.17,1.06 0,0 0.77,-0.05 1.09,0.32 a 3.93,3.93 0 0 1 1.66,-0.32 c 0.85,0.06 1,1.21 -0.72,1.29 -1.29,0.06 -1.69,-0.6 -1.69,-0.6 a 2.82,2.82 0 0 1 -1.74,0.29 4.19,4.19 0 0 1 -3.09,1.57 3.32,3.32 0 0 1 -3.29,-1.12 1.56,1.56 0 0 1 -2.12,0.69 4.28,4.28 0 0 1 -3.37,1.17 3.22,3.22 0 0 1 -3,-1.74 3.43,3.43 0 0 1 -2.06,0.43 c 0,0 -0.08,0.8 -1.39,0.74 z"
       id="path31722"
       style="fill:url(#New_Gradient_Swatch_9-8);stroke-width:0.878702" />
    <path
       class="cls-44"
       d="m 36.22,22.85 a 2.52,2.52 0 0 0 -2.37,0.57 2.07,2.07 0 0 0 -0.63,1.19 5,5 0 0 0 -2.37,0.24 c -1.16,0.47 -1.55,1.36 -1.19,2.18 0.36,0.82 2.16,0.85 2.68,0.71 a 2.33,2.33 0 0 0 0.93,-0.53 3.53,3.53 0 0 0 2.36,0.68 c 1.6,0 1.92,-0.81 1.92,-0.81 a 1.92,1.92 0 0 0 1.3,0.26 c 0.72,-0.14 1,-0.65 0.7,-1.15 A 1.27,1.27 0 0 0 38.27,25.51 3.65,3.65 0 0 0 37.75,24 2.87,2.87 0 0 0 36.22,22.85 Z"
       id="path31724"
       style="fill:url(#linear-gradient-27);stroke-width:0.878702" />
    <path
       class="cls-16"
       d="m 36.22,22.85 a 2.52,2.52 0 0 0 -2.37,0.57 2.07,2.07 0 0 0 -0.63,1.19 5,5 0 0 0 -2.37,0.24 c -1.16,0.47 -1.55,1.36 -1.19,2.18 0.36,0.82 2.16,0.85 2.68,0.71 a 2.33,2.33 0 0 0 0.93,-0.53 3.53,3.53 0 0 0 2.36,0.68 c 1.6,0 1.92,-0.81 1.92,-0.81 a 1.92,1.92 0 0 0 1.3,0.26 c 0.72,-0.14 1,-0.65 0.7,-1.15 A 1.27,1.27 0 0 0 38.27,25.51 3.65,3.65 0 0 0 37.75,24 2.87,2.87 0 0 0 36.22,22.85 Z"
       id="path31726" />
    <path
       class="cls-45"
       d="m 34.39,13.11 a 3.25,3.25 0 0 0 -2.34,0.86 4.86,4.86 0 0 1 3.28,0"
       id="path31728"
       style="fill:url(#linearGradient31816);stroke-width:0.878702" />
    <path
       class="cls-46"
       d="m 41.17,29.16 a 5.38,5.38 0 0 1 -3.77,0.8 6.63,6.63 0 0 0 3.17,0.28 3.3,3.3 0 0 0 1.89,-1.56"
       id="path31730"
       style="fill:url(#linear-gradient-29);stroke-width:0.878702" />
  </g>
  <path
     sodipodi:nodetypes="cccccccc"
     id="use4672"
     d="m 21.625293,38.727546 7.641423,-5.693273 -0.403155,3.87029 5.662712,0.615233 -0.537541,5.160388 -5.662712,-0.615233 -0.403156,3.870293 z"
     style="fill:url(#linearGradient4757);fill-opacity:1;fill-rule:evenodd;stroke:#eeeeec;stroke-width:1px;stroke-linecap:butt;stroke-linejoin:miter;stroke-opacity:1" />
  <path
     sodipodi:nodetypes="cccccccc"
     id="use4680"
     d="m 46.424163,43.116784 -9.030646,1.917494 1.978779,-3.351128 -4.657801,-2.980018 2.638371,-4.46817 4.657801,2.980018 1.978779,-3.35113 z"
     style="fill:url(#linearGradient4765);fill-opacity:1;fill-rule:evenodd;stroke:#eeeeec;stroke-width:1px;stroke-linecap:butt;stroke-linejoin:miter;stroke-opacity:1" />
  <path
     sodipodi:nodetypes="cccccccc"
     id="use4678"
     d="m 34.034365,27.977182 5.916283,-6.899418 0.458757,3.633352 5.428207,-0.685614 0.611676,4.844468 -5.428209,0.685614 0.458756,3.633354 z"
     style="fill:url(#linearGradient4763);fill-opacity:1;fill-rule:evenodd;stroke:#eeeeec;stroke-width:0.999999px;stroke-linecap:butt;stroke-linejoin:miter;stroke-opacity:1" />
  <path
     style="fill:url(#linearGradient4755);fill-opacity:1;fill-rule:evenodd;stroke:#eeeeec;stroke-width:1px;stroke-linecap:butt;stroke-linejoin:miter;stroke-opacity:1"
     d="m 32.113581,33.409379 -9.707152,-2.759838 3.451862,-2.146083 -3.212663,-5.148519 4.602483,-2.861444 3.212662,5.148518 3.451864,-2.146084 z"
     id="path6468"
     sodipodi:nodetypes="cccccccc"
     inkscape:tile-w="12"
     inkscape:tile-h="11.999993"
     inkscape:tile-cx="5.9999998"
     inkscape:tile-cy="6.0000044" />
  <metadata
     id="metadata150841">
    <rdf:RDF>
      <cc:Work
         rdf:about="">
        <dc:title>6-Volume_Adjust_Fog</dc:title>
      </cc:Work>
    </rdf:RDF>
  </metadata>
</svg>
