<?xml version="1.0" encoding="UTF-8" standalone="no"?>
<svg
   viewBox="0 0 48 48"
   version="1.1"
   id="svg36614"
   sodipodi:docname="volumenormalize.svg"
   inkscape:version="1.1 (c68e22c387, 2021-05-23)"
   xmlns:inkscape="http://www.inkscape.org/namespaces/inkscape"
   xmlns:sodipodi="http://sodipodi.sourceforge.net/DTD/sodipodi-0.dtd"
   xmlns:xlink="http://www.w3.org/1999/xlink"
   xmlns="http://www.w3.org/2000/svg"
   xmlns:svg="http://www.w3.org/2000/svg"
   xmlns:rdf="http://www.w3.org/1999/02/22-rdf-syntax-ns#"
   xmlns:cc="http://creativecommons.org/ns#"
   xmlns:dc="http://purl.org/dc/elements/1.1/">
  <sodipodi:namedview
     id="namedview36616"
     pagecolor="#ffffff"
     bordercolor="#666666"
     borderopacity="1.0"
     inkscape:pageshadow="2"
     inkscape:pageopacity="0.0"
     inkscape:pagecheckerboard="0"
     showgrid="false"
     inkscape:zoom="16.458395"
     inkscape:cx="20.65815"
     inkscape:cy="23.665734"
     inkscape:window-width="2560"
     inkscape:window-height="1377"
     inkscape:window-x="-8"
     inkscape:window-y="-8"
     inkscape:window-maximized="1"
     inkscape:current-layer="svg36614"
     inkscape:snap-global="false" />
  <defs
     id="defs36556">
    <style
       id="style36503">.cls-1{fill:url(#radial-gradient);}.cls-2{fill:url(#linear-gradient);}.cls-11,.cls-3{fill:none;stroke-linecap:round;stroke-linejoin:round;stroke-width:0.7px;}.cls-3{stroke:#5c3566;}.cls-4{fill:url(#linear-gradient-2);}.cls-5{fill:url(#linear-gradient-3);}.cls-6{fill:url(#linear-gradient-4);}.cls-7{fill:url(#New_Gradient_Swatch_9);}.cls-8{fill:url(#New_Gradient_Swatch_9-2);}.cls-9{fill:url(#New_Gradient_Swatch_9-3);}.cls-10{fill:url(#linear-gradient-5);}.cls-11{stroke:#3465a4;}.cls-12{fill:#5c3566;}.cls-13{fill:#3465a4;}.cls-14{fill:url(#linear-gradient-7);}.cls-15{fill:url(#linear-gradient-8);}.cls-16{fill:url(#linear-gradient-10);}.cls-17{fill:url(#linear-gradient-11);}.cls-18{fill:url(#linear-gradient-12);}.cls-19{fill:url(#linear-gradient-13);}.cls-20{fill:url(#linear-gradient-14);}.cls-21{fill:url(#linear-gradient-15);}</style>
    <radialGradient
       id="radial-gradient"
       cx="-0.16"
       cy="32.69"
       r="20.49"
       gradientTransform="matrix(1.12,0,0,0.41,24.18,20.45)"
       gradientUnits="userSpaceOnUse">
      <stop
         offset="0.03"
         stop-color="#2c2c2c"
         stop-opacity="0.5"
         id="stop36505" />
      <stop
         offset="0.68"
         stop-color="#2c2c2c"
         stop-opacity="0.1"
         id="stop36507" />
      <stop
         offset="0.93"
         stop-color="#2c2c2c"
         stop-opacity="0"
         id="stop36509" />
    </radialGradient>
    <linearGradient
       id="linear-gradient"
       x1="30.01"
       y1="28.7"
       x2="30.01"
       y2="14.82"
       gradientUnits="userSpaceOnUse">
      <stop
         offset="0"
         stop-color="#ad7fa8"
         id="stop36512" />
      <stop
         offset="1"
         stop-color="#ece2eb"
         id="stop36514" />
    </linearGradient>
    <linearGradient
       id="linear-gradient-2"
       x1="35.65"
       y1="31.69"
       x2="34.24"
       y2="19.1"
       gradientUnits="userSpaceOnUse">
      <stop
         offset="0"
         stop-color="#5c3566"
         id="stop36517" />
      <stop
         offset="1"
         stop-color="#c7a8c4"
         id="stop36519" />
      <stop
         offset="1"
         stop-color="#729fcf"
         stop-opacity="0"
         id="stop36521" />
    </linearGradient>
    <linearGradient
       id="linear-gradient-3"
       x1="13.42"
       y1="14.08"
       x2="13.42"
       y2="33.13"
       gradientUnits="userSpaceOnUse">
      <stop
         offset="0"
         stop-color="#b2cbe5"
         id="stop36524" />
      <stop
         offset="1"
         stop-color="#3465a4"
         id="stop36526" />
    </linearGradient>
    <linearGradient
       id="linear-gradient-4"
       x1="13.44"
       y1="5.81"
       x2="13.44"
       y2="28.95"
       gradientUnits="userSpaceOnUse">
      <stop
         offset="0"
         stop-color="snow"
         id="stop36529" />
      <stop
         offset="1"
         stop-color="#fffdfd"
         stop-opacity="0.19"
         id="stop36531" />
    </linearGradient>
    <linearGradient
       id="New_Gradient_Swatch_9"
       x1="16.77"
       y1="29.63"
       x2="16.77"
       y2="25.92"
       gradientUnits="userSpaceOnUse">
      <stop
         offset="0"
         stop-color="#204a87"
         id="stop36534" />
      <stop
         offset="1"
         stop-color="#729fcf"
         stop-opacity="0"
         id="stop36536" />
    </linearGradient>
    <linearGradient
       id="New_Gradient_Swatch_9-2"
       x1="12.75"
       y1="29.47"
       x2="12.75"
       y2="14.19"
       xlink:href="#New_Gradient_Swatch_9" />
    <linearGradient
       id="New_Gradient_Swatch_9-3"
       x1="24.59"
       y1="32.24"
       x2="24.35"
       y2="10.2"
       xlink:href="#New_Gradient_Swatch_9" />
    <linearGradient
       id="linear-gradient-5"
       x1="29.98"
       y1="13.64"
       x2="29.26"
       y2="18.31"
       xlink:href="#linear-gradient-4" />
    <linearGradient
       id="linear-gradient-7"
       x1="36.28"
       y1="20.5"
       x2="36.28"
       y2="20.48"
       gradientUnits="userSpaceOnUse">
      <stop
         offset="0"
         stop-color="#5c3566"
         id="stop36542" />
      <stop
         offset="1"
         stop-color="#ad7fa8"
         stop-opacity="0.5"
         id="stop36544" />
      <stop
         offset="1"
         stop-color="#729fcf"
         stop-opacity="0"
         id="stop36546" />
    </linearGradient>
    <linearGradient
       id="linear-gradient-8"
       x1="31.69"
       y1="17.59"
       x2="32.41"
       y2="22.68"
       xlink:href="#linear-gradient-4" />
    <linearGradient
       id="linear-gradient-10"
       x1="36.27"
       y1="20.45"
       x2="36.27"
       y2="20.41"
       xlink:href="#linear-gradient-7" />
    <linearGradient
       id="linear-gradient-11"
       x1="36.31"
       y1="20.66"
       x2="36.31"
       y2="20.66"
       xlink:href="#linear-gradient-7" />
    <linearGradient
       id="linear-gradient-12"
       x1="36.31"
       y1="20.65"
       x2="36.31"
       y2="20.62"
       xlink:href="#linear-gradient-7" />
    <linearGradient
       id="linear-gradient-13"
       x1="36.3"
       y1="20.62"
       x2="36.3"
       y2="20.61"
       xlink:href="#linear-gradient-7" />
    <linearGradient
       id="linear-gradient-14"
       x1="36.3"
       y1="20.59"
       x2="36.3"
       y2="20.55"
       xlink:href="#linear-gradient-7" />
    <linearGradient
       id="linear-gradient-15"
       x1="28.66"
       y1="22.73"
       x2="28.51"
       y2="26.82"
       xlink:href="#linear-gradient-3" />
    <linearGradient
       inkscape:collect="always"
       xlink:href="#linear-gradient-3"
       id="linearGradient36675"
       gradientUnits="userSpaceOnUse"
       x1="13.42"
       y1="14.08"
       x2="13.42"
       y2="33.13" />
    <linearGradient
       inkscape:collect="always"
       xlink:href="#linear-gradient-4"
       id="linearGradient36677"
       gradientUnits="userSpaceOnUse"
       x1="13.44"
       y1="5.81"
       x2="13.44"
       y2="28.95" />
    <linearGradient
       inkscape:collect="always"
       xlink:href="#New_Gradient_Swatch_9"
       id="linearGradient36679"
       gradientUnits="userSpaceOnUse"
       x1="16.77"
       y1="29.63"
       x2="16.77"
       y2="25.92" />
    <linearGradient
       inkscape:collect="always"
       xlink:href="#linear-gradient-4"
       id="linearGradient36681"
       x1="29.98"
       y1="13.64"
       x2="29.26"
       y2="18.31" />
    <linearGradient
       inkscape:collect="always"
       xlink:href="#linear-gradient-7"
       id="linearGradient36683"
       gradientUnits="userSpaceOnUse"
       x1="36.28"
       y1="20.5"
       x2="36.28"
       y2="20.48" />
    <linearGradient
       inkscape:collect="always"
       xlink:href="#linear-gradient-4"
       id="linearGradient36685"
       x1="31.69"
       y1="17.59"
       x2="32.41"
       y2="22.68" />
  </defs>
  <title
     id="title36558">5-Volume_Combine</title>
  <g
     id="shadow"
     transform="translate(0,5.7215263)">
    <ellipse
       class="cls-1"
       cx="24"
       cy="33.830002"
       rx="22.110001"
       ry="8.0900002"
       id="ellipse36560"
       style="fill:url(#radial-gradient)" />
  </g>
  <g
     id="ART"
     transform="matrix(1.0234821,0,0,1.1181582,-0.86055086,-9.2436537)"
     style="stroke-width:0.934777">
    <path
       class="cls-2"
       d="m 25.51,28.94 c 0,0 0.68,1.6 3.31,1.89 A 7,7 0 0 0 33.4,29.65 7.83,7.83 0 0 0 38,30.9 c 2.7,-0.14 4.51,-2.74 4.51,-2.74 a 4.31,4.31 0 0 0 3.3,0.11 2.64,2.64 0 0 0 1.3,-3.52 2.38,2.38 0 0 0 -1.83,-1.42 4.8,4.8 0 0 0 0.11,-4.07 c -1,-1.9 -3.66,-2.32 -5.15,-1.93 a 3.94,3.94 0 0 0 0.89,-3.27 c -0.36,-2 -2.68,-2.47 -3.66,-2.2 A 3.24,3.24 0 0 0 35,9 a 4.64,4.64 0 0 0 -5.55,2.57 5.46,5.46 0 0 0 -0.6,3 5.87,5.87 0 0 0 -4.81,-0.2 3.86,3.86 0 0 0 -2.04,3.7 2.36,2.36 0 0 0 -2.24,0.68 2.51,2.51 0 0 0 -0.39,2.41 2.42,2.42 0 0 0 -2.31,-0.1 3.33,3.33 0 0 0 -1.74,2.34 1.48,1.48 0 0 0 -1.53,-0.32 1.87,1.87 0 0 0 -1,2.35 2.62,2.62 0 0 0 4,0.88 2.92,2.92 0 0 0 2.31,1.35 2.22,2.22 0 0 0 1.9,-0.74 3.67,3.67 0 0 0 2.59,2 7.68,7.68 0 0 0 1.92,0.02 z"
       id="path36563"
       style="fill:url(#linear-gradient);stroke-width:0.934777" />
    <path
       class="cls-3"
       d="m 25.51,28.94 c 0,0 0.68,1.6 3.31,1.89 A 7,7 0 0 0 33.4,29.65 7.83,7.83 0 0 0 38,30.9 c 2.7,-0.14 4.51,-2.74 4.51,-2.74 a 4.31,4.31 0 0 0 3.3,0.11 2.64,2.64 0 0 0 1.3,-3.52 2.38,2.38 0 0 0 -1.83,-1.42 4.8,4.8 0 0 0 0.11,-4.07 c -1,-1.9 -3.66,-2.32 -5.15,-1.93 a 3.94,3.94 0 0 0 0.89,-3.27 c -0.36,-2 -2.68,-2.47 -3.66,-2.2 A 3.24,3.24 0 0 0 35,9 a 4.64,4.64 0 0 0 -5.55,2.57 5.46,5.46 0 0 0 -0.6,3 5.87,5.87 0 0 0 -4.81,-0.2 1.59,1.59 0 0 0 -0.29,0.15"
       id="path36565" />
    <path
       class="cls-4"
       d="m 44.14,24 a 1.85,1.85 0 0 0 -1.47,-0.27 c 0,0 0.64,-3 -1.31,-3.8 a 4.17,4.17 0 0 0 -3.24,-0.05 c 0,-1.5 -0.9,-3.41 -2.48,-3.65 a 4.38,4.38 0 0 0 -3,0.64 3,3 0 0 1 0.16,0.4 2.91,2.91 0 0 1 2.2,0.73 5.24,5.24 0 0 1 1.28,2.7 H 37 a 4.34,4.34 0 0 1 0.61,0.11 v 0 h 0.1 v 0 h 0.1 v 0 h 0.1 a 2.9,2.9 0 0 1 1.71,1.44 3.5,3.5 0 0 0 -2.78,-0.19 3.37,3.37 0 0 0 -1.51,1.32 2.2,2.2 0 0 0 -1.92,-0.58 2.46,2.46 0 0 0 -1.39,0.62 2.52,2.52 0 0 0 -1.88,-1.94 2.65,2.65 0 0 0 -1.91,0.55 c 0,0 -0.23,-0.21 -1.39,-0.03 a 3,3 0 0 0 -1.66,1.28 c 0,0.22 0,0.37 0,0.37 a 5,5 0 0 1 4,-1.21 3.28,3.28 0 0 1 2.77,2.16 c 1.14,-0.95 2.92,-0.28 3,0.72 a 1.46,1.46 0 0 1 -1.42,1.7 2.68,2.68 0 0 1 -1.35,-0.35 3.86,3.86 0 0 1 -2.56,1.56 3.42,3.42 0 0 1 -2.62,-0.8 4.71,4.71 0 0 1 -1.47,1.51 v 0 a 2.88,2.88 0 0 0 1,1.09 4.84,4.84 0 0 0 1.2,-1.09 4.81,4.81 0 0 0 2.62,0.35 c 2.43,-0.23 3,-1.36 3,-1.36 a 2,2 0 0 0 1.91,-0.11 4.32,4.32 0 0 0 2.51,0.56 6,6 0 0 0 4.2,-2.07 2,2 0 0 0 2.29,0 A 1.47,1.47 0 0 0 44.14,24 Z"
       id="path36567"
       style="fill:url(#linear-gradient-2);stroke-width:0.934777" />
    <path
       class="cls-5"
       d="m 23.59,28.94 a 3.67,3.67 0 0 1 -2.59,-2 2.22,2.22 0 0 1 -1.95,0.74 2.92,2.92 0 0 1 -2.31,-1.35 2.62,2.62 0 0 1 -4,-0.88 1.87,1.87 0 0 1 1,-2.35 1.48,1.48 0 0 1 1.53,0.32 3.33,3.33 0 0 1 1.73,-2.36 2.42,2.42 0 0 1 2.31,0.1 2.51,2.51 0 0 1 0.39,-2.41 2.36,2.36 0 0 1 2.3,-0.68 4,4 0 0 1 1.76,-3.53 2.6,2.6 0 0 0 -0.91,-1.16 2.19,2.19 0 0 0 -1.81,0 4.09,4.09 0 0 0 -1.92,-2.38 4.41,4.41 0 0 0 -5.22,0.82 6.64,6.64 0 0 0 -1.28,3.09 9.22,9.22 0 0 0 -4,1 c -1.81,1 -2.23,3.78 -2,5.08 0,0 -2.71,-0.49 -4.11,0.75 a 2.82,2.82 0 0 0 -0.79,3.66 3.46,3.46 0 0 0 3.61,1.2 c 0,0 0.22,1.4 2.21,2.24 1.99,0.84 4.51,-0.43 4.51,-0.43 a 6.22,6.22 0 0 0 4.08,2.49 3.77,3.77 0 0 0 3.73,-1.49 9.07,9.07 0 0 0 2.67,0.42 6.94,6.94 0 0 0 3,-0.89 7.68,7.68 0 0 1 -1.94,0 z"
       id="path36569"
       style="fill:url(#linearGradient36675);stroke-width:0.934777" />
    <path
       class="cls-6"
       d="m 23.59,28.94 a 3.67,3.67 0 0 1 -2.59,-2 2.22,2.22 0 0 1 -1.95,0.74 2.92,2.92 0 0 1 -2.31,-1.35 2.62,2.62 0 0 1 -4,-0.88 1.87,1.87 0 0 1 1,-2.35 1.48,1.48 0 0 1 1.53,0.32 3.33,3.33 0 0 1 1.73,-2.36 2.42,2.42 0 0 1 2.31,0.1 2.51,2.51 0 0 1 0.39,-2.41 2.36,2.36 0 0 1 2.3,-0.68 4,4 0 0 1 1.76,-3.53 2.6,2.6 0 0 0 -0.91,-1.16 2.19,2.19 0 0 0 -1.81,0 4.09,4.09 0 0 0 -1.92,-2.38 4.61,4.61 0 0 0 -5.15,0.64 9.36,9.36 0 0 0 -1.35,3.27 9.22,9.22 0 0 0 -4,1 c -1.81,1 -2.23,3.78 -2,5.08 0,0 -2.71,-0.49 -4.11,0.75 A 2.94,2.94 0 0 0 1.72,25.4 c 0.45,0.97 2.28,1.6 3.61,1.2 0,0 0.22,1.35 2.21,2.24 1.99,0.89 4.51,-0.43 4.51,-0.43 a 6.22,6.22 0 0 0 4.08,2.49 3.77,3.77 0 0 0 3.73,-1.49 9.07,9.07 0 0 0 2.67,0.42 6.94,6.94 0 0 0 3,-0.89 7.68,7.68 0 0 1 -1.94,0 z"
       id="path36571"
       style="fill:url(#linearGradient36677);stroke-width:0.934777" />
    <path
       class="cls-7"
       d="m 19.05,27.66 a 2.92,2.92 0 0 1 -2.31,-1.35 2.87,2.87 0 0 1 -2.78,0.32 2.7,2.7 0 0 0 2.04,2.31 3.32,3.32 0 0 0 3.56,-1.31 4.63,4.63 0 0 1 -0.51,0.03 z"
       id="path36573"
       style="fill:url(#linearGradient36679);stroke-width:0.934777" />
    <path
       class="cls-8"
       d="m 12.76,25.43 a 1.87,1.87 0 0 1 1,-2.35 1.48,1.48 0 0 1 1.53,0.32 3.33,3.33 0 0 1 1.71,-2.34 2.42,2.42 0 0 1 2.31,0.1 2.51,2.51 0 0 1 0.39,-2.41 2.36,2.36 0 0 1 2.3,-0.68 4.36,4.36 0 0 1 0.09,-1 2.66,2.66 0 0 0 -2.72,-1.23 3.77,3.77 0 0 0 -3.66,2.85 A 5.05,5.05 0 0 0 11.98,18.62 4.56,4.56 0 0 0 9.1,23.34 1.38,1.38 0 0 0 7.43,22.95 2.08,2.08 0 0 0 5.37,22.38 c -1.38,0.29 -2.13,1.39 -1.81,2.1 a 2.13,2.13 0 0 0 3.16,0.64 3.68,3.68 0 0 0 3,2.06 4.88,4.88 0 0 0 3.83,-0.83 1.91,1.91 0 0 1 -0.79,-0.92 z"
       id="path36575"
       style="fill:url(#New_Gradient_Swatch_9-2);stroke-width:0.934777" />
    <path
       class="cls-9"
       d="m 27,27.43 a 3.42,3.42 0 0 0 2.65,0.84 3.86,3.86 0 0 0 2.56,-1.56 2.68,2.68 0 0 0 1.35,0.35 1.46,1.46 0 0 0 1.44,-1.7 c -0.1,-1 -1.88,-1.67 -3,-0.72 a 3.28,3.28 0 0 0 -2.77,-2.16 5,5 0 0 0 -4,1.21 2.84,2.84 0 0 1 0.5,-2 1.56,1.56 0 0 1 1.39,-0.5 2.92,2.92 0 0 1 1.67,-2.06 2.42,2.42 0 0 1 2.87,0.93 3.18,3.18 0 0 1 2.34,-0.35 1.88,1.88 0 0 1 1.21,1.6 1.45,1.45 0 0 1 1.1,-0.64 A 5.24,5.24 0 0 0 35,18 2.91,2.91 0 0 0 32.8,17.29 c 0,0 -0.5,-1.64 -1.88,-1.78 a 2.62,2.62 0 0 0 -2.24,1.14 c 0,0 -1.18,-2.84 -4.8,-1.65 0,0 -0.08,-0.22 -0.16,-0.41 a 4,4 0 0 0 -1.72,3.48 2.36,2.36 0 0 0 -2.24,0.68 2.51,2.51 0 0 0 -0.39,2.41 2.42,2.42 0 0 0 -2.31,-0.1 3.33,3.33 0 0 0 -1.74,2.34 1.48,1.48 0 0 0 -1.53,-0.32 1.87,1.87 0 0 0 -1,2.35 2.62,2.62 0 0 0 4,0.88 2.92,2.92 0 0 0 2.31,1.35 2.22,2.22 0 0 0 1.9,-0.74 3.67,3.67 0 0 0 2.59,2 7.68,7.68 0 0 0 1.92,0 4.71,4.71 0 0 0 1.49,-1.49 z"
       id="path36577"
       style="fill:url(#New_Gradient_Swatch_9-3);stroke-width:0.934777" />
    <path
       class="cls-10"
       d="m 36.31,20.67 h -0.08 a 2.7,2.7 0 0 0 -1.54,-1.75 2.64,2.64 0 0 0 -2,0.09 2.63,2.63 0 0 0 -2.17,-1.6 C 29.17,17.26 28,18.76 28,18.76 c 0,0 -0.34,-1.92 -3.06,-2.44 a 3.6,3.6 0 0 0 -2.91,0.74 3.67,3.67 0 0 1 1.67,-2.53 c 0.08,0.2 0.16,0.42 0.16,0.42 3.62,-1.14 4.83,1.67 4.83,1.67 A 2.64,2.64 0 0 1 31,15.48 c 1.38,0.15 1.88,1.78 1.88,1.78 A 2.91,2.91 0 0 1 35,18 a 5.24,5.24 0 0 1 1.31,2.67 z"
       id="path36579"
       style="fill:url(#linearGradient36681);stroke-width:0.934777" />
    <path
       class="cls-10"
       d="m 36.31,20.67 h -0.08 a 2.7,2.7 0 0 0 -1.54,-1.75 2.64,2.64 0 0 0 -2,0.09 2.63,2.63 0 0 0 -2.17,-1.6 C 29.17,17.26 28,18.76 28,18.76 c 0,0 -0.34,-1.92 -3.06,-2.44 a 3.6,3.6 0 0 0 -2.91,0.74 3.67,3.67 0 0 1 1.67,-2.53 c 0.08,0.2 0.16,0.42 0.16,0.42 3.62,-1.14 4.83,1.67 4.83,1.67 A 2.64,2.64 0 0 1 31,15.48 c 1.38,0.15 1.88,1.78 1.88,1.78 A 2.91,2.91 0 0 1 35,18 a 5.24,5.24 0 0 1 1.31,2.67 z"
       id="path36581"
       style="fill:url(#linear-gradient-5);stroke-width:0.934777" />
    <path
       class="cls-11"
       d="m 23.88,15 a 3.08,3.08 0 0 0 -1.07,-1.57 2.19,2.19 0 0 0 -1.81,0 4.09,4.09 0 0 0 -1.88,-2.43 4.41,4.41 0 0 0 -5.22,0.82 6.64,6.64 0 0 0 -1.28,3.09 9.22,9.22 0 0 0 -4,1 c -1.81,1 -2.23,3.78 -2,5.08 0,0 -2.71,-0.49 -4.11,0.75 a 2.82,2.82 0 0 0 -0.79,3.66 3.46,3.46 0 0 0 3.61,1.2 c 0,0 0.22,1.4 2.21,2.24 1.99,0.84 4.51,-0.43 4.51,-0.43 a 6.22,6.22 0 0 0 4.08,2.49 3.77,3.77 0 0 0 3.73,-1.49 9.07,9.07 0 0 0 2.67,0.42 6.94,6.94 0 0 0 3,-0.89"
       id="path36583" />
    <path
       class="cls-3"
       d="m 25.51,28.94 c 0,0 0.68,1.6 3.31,1.89"
       id="path36585" />
    <path
       class="cls-3"
       d="m 16.74,26.31 a 2.92,2.92 0 0 0 2.31,1.35 2.22,2.22 0 0 0 1.95,-0.74 3.26,3.26 0 0 0 2.48,2 4.8,4.8 0 0 0 2,0"
       id="path36587" />
    <path
       class="cls-12"
       d="m 12.78,25.42 a 2.19,2.19 0 0 0 1.78,1.18 2.69,2.69 0 0 0 2,-0.61 0.38,0.38 0 0 1 0.54,0.07 0.4,0.4 0 0 1 -0.07,0.55 h -0.05 a 3.36,3.36 0 0 1 -2.47,0.36 2.41,2.41 0 0 1 -1.74,-1.57 c 0,0 0,0 0,0 z"
       id="path36589"
       style="stroke-width:0.934777" />
    <path
       class="cls-13"
       d="M 36.38,20.66 A 5.71,5.71 0 0 0 35.45,18.05 3.1,3.1 0 0 0 34.3,17.14 3.05,3.05 0 0 0 33.05,16.86 2.69,2.69 0 0 0 31,15.13 2.75,2.75 0 0 0 28.77,16.02 c -0.56,-0.82 -2.06,-2.33 -5,-1.41 a 0.37,0.37 0 0 0 -0.23,0.44 0.36,0.36 0 0 0 0.44,0.23 c 3.27,-1 4.36,1.37 4.41,1.48 a 0.35,0.35 0 0 0 0.29,0.2 0.33,0.33 0 0 0 0.32,-0.15 2.29,2.29 0 0 1 1.91,-1 c 1,0.1 1.45,1.16 1.56,1.45 v 0 a 0.39,0.39 0 0 0 0.45,0.32 v 0 a 2.4,2.4 0 0 1 1.15,0.09 2.28,2.28 0 0 1 1,0.63 5.31,5.31 0 0 1 1.14,2.33 0.08,0.08 0 0 0 0.07,0.05 0.07,0.07 0 0 0 0.1,-0.02 z"
       id="path36591"
       style="stroke-width:0.934777" />
    <path
       class="cls-14"
       d="M 36.28,20.5 Z"
       id="path36593"
       style="fill:url(#linearGradient36683);stroke-width:0.934777" />
    <path
       class="cls-15"
       d="m 25.31,23.15 v 0 0 0 -0.05 0 0 0 l 0.09,-0.11 v 0 c 0.13,-0.16 0.31,-0.38 0.55,-0.65 A 2,2 0 0 1 28,21.63 2.27,2.27 0 0 1 29.51,20.12 c 1.2,-0.32 2.16,1.34 2.16,1.34 A 2.14,2.14 0 0 1 33.4,20.6 c 1.24,-0.05 1.93,1.77 1.93,1.77 a 2.39,2.39 0 0 1 2.26,-1.06 2.87,2.87 0 0 1 2.06,1 A 2.9,2.9 0 0 0 38,20.89 h -0.1 v 0 h -0.1 v 0 h -0.1 v 0 a 4.34,4.34 0 0 0 -0.61,-0.11 h -0.73 a 1.45,1.45 0 0 0 -1.1,0.64 1.88,1.88 0 0 0 -1.26,-1.71 3.18,3.18 0 0 0 -2.38,0.39 2.42,2.42 0 0 0 -2.87,-0.93 2.92,2.92 0 0 0 -1.67,2.06 1.56,1.56 0 0 0 -1.39,0.5 2.48,2.48 0 0 0 -0.51,1.59 v 0 z"
       id="path36595"
       style="fill:url(#linearGradient36685);stroke-width:0.934777" />
    <path
       class="cls-15"
       d="m 25.31,23.15 v 0 0 0 -0.05 0 0 0 l 0.09,-0.11 v 0 c 0.13,-0.16 0.31,-0.38 0.55,-0.65 A 2,2 0 0 1 28,21.63 2.27,2.27 0 0 1 29.51,20.12 c 1.2,-0.32 2.16,1.34 2.16,1.34 A 2.14,2.14 0 0 1 33.4,20.6 c 1.24,-0.05 1.93,1.77 1.93,1.77 a 2.39,2.39 0 0 1 2.26,-1.06 2.87,2.87 0 0 1 2.06,1 A 2.9,2.9 0 0 0 38,20.89 h -0.1 v 0 h -0.1 v 0 h -0.1 v 0 a 4.34,4.34 0 0 0 -0.61,-0.11 h -0.73 a 1.45,1.45 0 0 0 -1.1,0.64 1.88,1.88 0 0 0 -1.26,-1.71 3.18,3.18 0 0 0 -2.38,0.39 2.42,2.42 0 0 0 -2.87,-0.93 2.92,2.92 0 0 0 -1.67,2.06 1.56,1.56 0 0 0 -1.39,0.5 2.48,2.48 0 0 0 -0.51,1.59 v 0 z"
       id="path36597"
       style="fill:url(#linear-gradient-8);stroke-width:0.934777" />
    <path
       class="cls-16"
       d="M 36.26,20.41 Z"
       id="path36599"
       style="fill:url(#linear-gradient-10);stroke-width:0.934777" />
    <path
       class="cls-17"
       d="M 36.31,20.66 Z"
       id="path36601"
       style="fill:url(#linear-gradient-11);stroke-width:0.934777" />
    <path
       class="cls-18"
       d="M 36.31,20.64 Z"
       id="path36603"
       style="fill:url(#linear-gradient-12);stroke-width:0.934777" />
    <path
       class="cls-19"
       d="M 36.31,20.62 Z"
       id="path36605"
       style="fill:url(#linear-gradient-13);stroke-width:0.934777" />
    <path
       class="cls-20"
       d="M 36.3,20.59 Z"
       id="path36607"
       style="fill:url(#linear-gradient-14);stroke-width:0.934777" />
    <path
       class="cls-21"
       d="m 27.25,24.28 a 2.62,2.62 0 0 1 1.82,-0.7 2.58,2.58 0 0 1 2.46,2 2.52,2.52 0 0 1 2,-0.67 c 1.12,0.18 1.36,0.87 1.25,1.41 a 1.62,1.62 0 0 0 0.18,-1 c -0.1,-1 -1.88,-1.67 -3,-0.72 a 3.28,3.28 0 0 0 -2.77,-2.16 5,5 0 0 0 -4,1.21 2.67,2.67 0 0 0 -0.53,0.63 1.46,1.46 0 0 0 -1.15,-0.39 1.79,1.79 0 0 0 -1.34,0.86 2.21,2.21 0 0 1 1.34,-0.31 2.23,2.23 0 0 1 1.22,0.74 2.48,2.48 0 0 1 1,-1 2.29,2.29 0 0 1 1.52,0.1 z"
       id="path36609"
       style="fill:url(#linear-gradient-15);stroke-width:0.934777" />
    <path
       class="cls-12"
       d="M 25.15,28.63 A 3,3 0 0 0 27,27.43 4.43,4.43 0 0 1 25.56,29.24"
       id="path36611"
       style="stroke-width:0.934777" />
  </g>
  <circle
     style="color:#000000;overflow:visible;fill:#000000;stroke:#ffffff;stroke-width:2;stroke-linejoin:round;stroke-miterlimit:4;stroke-dasharray:none;stop-color:#000000"
     id="path142646"
     cx="23.744379"
     cy="31.482502"
     r="11.83886" />
  <path
     d="m 21.341218,35.535721 q 0,0.215929 -0.02314,0.370163 -0.02314,0.146525 -0.06941,0.239065 -0.03856,0.08483 -0.09254,0.123388 -0.05399,0.03856 -0.123388,0.03856 h -5.506181 q -0.06169,0 -0.115676,-0.03856 -0.05399,-0.03855 -0.100252,-0.123388 -0.03855,-0.09254 -0.06169,-0.239065 -0.02314,-0.154234 -0.02314,-0.370163 0,-0.22364 0.01543,-0.370163 0.02314,-0.154235 0.06169,-0.246776 0.04626,-0.09254 0.100253,-0.131099 0.05399,-0.04627 0.123388,-0.04627 H 17.38509 V 28.24813 l -1.604042,0.886849 q -0.17737,0.08483 -0.293046,0.107964 -0.107964,0.01543 -0.177369,-0.04626 -0.06169,-0.06941 -0.08483,-0.231352 -0.02314,-0.161946 -0.02314,-0.454993 0,-0.185081 0.0077,-0.300757 0.0077,-0.123388 0.03855,-0.208217 0.03085,-0.08483 0.08483,-0.138811 0.05399,-0.05399 0.146524,-0.115677 l 2.143863,-1.388113 q 0.03855,-0.03085 0.09254,-0.04627 0.06169,-0.02314 0.154234,-0.03085 0.09254,-0.01543 0.239063,-0.01543 0.154235,-0.0077 0.393299,-0.0077 0.293047,0 0.470416,0.01543 0.185082,0.0077 0.277623,0.03856 0.09254,0.02314 0.123388,0.06941 0.03085,0.04627 0.03085,0.115676 v 8.243848 h 1.627178 q 0.06941,0 0.123387,0.04627 0.06169,0.03856 0.100253,0.131099 0.04626,0.09254 0.06169,0.246775 0.02314,0.146524 0.02314,0.370164 z"
     id="path147111"
     style="font-weight:bold;font-size:16px;line-height:125%;font-family:Calibri;-inkscape-font-specification:'Calibri, Bold';letter-spacing:0px;word-spacing:0px;fill:#eeeeec;stroke:#eeeeec;stroke-width:0.5;stroke-miterlimit:4;stroke-dasharray:none" />
  <path
     d="m 24.843804,35.556259 q 0,0.717192 -0.254488,0.963967 -0.246775,0.246776 -0.894561,0.246776 -0.647786,0 -0.894561,-0.239064 -0.246776,-0.246776 -0.246776,-0.925408 0,-0.724904 0.246776,-0.97168 0.254487,-0.246775 0.909984,-0.246775 0.640075,0 0.886851,0.246775 0.246775,0.239064 0.246775,0.925409 z"
     id="path147113"
     style="font-weight:bold;font-size:16px;line-height:125%;font-family:Calibri;-inkscape-font-specification:'Calibri, Bold';letter-spacing:0px;word-spacing:0px;fill:#eeeeec;stroke:#eeeeec;stroke-width:0.5;stroke-miterlimit:4;stroke-dasharray:none" />
  <path
     d="m 32.728018,31.398794 q 0,1.195319 -0.192793,2.159287 -0.192794,0.963967 -0.632362,1.6426 -0.431858,0.678632 -1.133626,1.041084 -0.694057,0.362453 -1.704294,0.362453 -1.025661,0 -1.696582,-0.347029 -0.670922,-0.35474 -1.06422,-1.010238 -0.393298,-0.663209 -0.555245,-1.611754 -0.154234,-0.956255 -0.154234,-2.159286 0,-1.187607 0.192793,-2.151574 0.200504,-0.971679 0.632362,-1.650311 0.43957,-0.678634 1.133626,-1.041086 0.701768,-0.362451 1.704293,-0.362451 1.025662,0 1.696582,0.35474 0.678633,0.347028 1.071933,1.010237 0.393298,0.655498 0.547532,1.611754 0.154235,0.948543 0.154235,2.151574 z m -2.04361,0.100253 q 0,-0.70948 -0.03856,-1.249301 -0.03855,-0.547534 -0.123387,-0.948545 -0.07712,-0.40101 -0.200506,-0.678632 -0.115675,-0.277624 -0.285333,-0.439569 -0.169659,-0.169658 -0.385588,-0.239064 -0.215928,-0.06941 -0.478127,-0.06941 -0.454993,0 -0.75575,0.22364 -0.293047,0.215929 -0.470417,0.655499 -0.169658,0.439569 -0.239063,1.095066 -0.06941,0.655498 -0.06941,1.526924 0,1.06422 0.08484,1.765988 0.08483,0.694056 0.262199,1.11049 0.185081,0.408723 0.470415,0.578381 0.285334,0.161946 0.686345,0.161946 0.300757,0 0.532109,-0.09254 0.231352,-0.100252 0.401011,-0.293046 0.17737,-0.192793 0.293046,-0.485839 0.115676,-0.293046 0.185082,-0.678633 0.07712,-0.385587 0.100252,-0.871427 0.03085,-0.485839 0.03085,-1.071931 z"
     id="path147115"
     style="font-weight:bold;font-size:16px;line-height:125%;font-family:Calibri;-inkscape-font-specification:'Calibri, Bold';letter-spacing:0px;word-spacing:0px;fill:#eeeeec;stroke:#eeeeec;stroke-width:0.5;stroke-miterlimit:4;stroke-dasharray:none" />
  <metadata
     id="metadata147175">
    <rdf:RDF>
      <cc:Work
         rdf:about="">
        <dc:title>5-Volume_Combine</dc:title>
      </cc:Work>
    </rdf:RDF>
  </metadata>
</svg>
