<?xml version="1.0" encoding="UTF-8"?>
<svg xmlns="http://www.w3.org/2000/svg" viewBox="0 0 528.9 324.25">
  <defs>
    <style>
      .cls-1, .cls-2, .cls-3, .cls-4 {
        fill: none;
      }

      .cls-1, .cls-3 {
        stroke-miterlimit: 10;
      }

      .cls-1, .cls-4 {
        stroke: #000;
        stroke-width: 3.1px;
      }

      .cls-2 {
        opacity: 0;
        stroke-linecap: round;
      }

      .cls-2, .cls-3 {
        stroke: #231f20;
      }

      .cls-2, .cls-4 {
        stroke-linejoin: round;
      }

      .cls-3, .cls-5, .cls-6, .cls-7, .cls-4, .cls-8, .cls-9, .cls-10, .cls-11, .cls-12, .cls-13, .cls-14 {
        fill-rule: evenodd;
      }

      .cls-5 {
        fill: #bdc9fa;
      }

      .cls-6 {
        fill: #ff8f61;
      }

      .cls-7 {
        fill: #fff;
      }

      .cls-8 {
        fill: #c00;
      }

      .cls-9 {
        fill: #2e4ab5;
      }

      .cls-10 {
        fill: #b5b5b5;
      }

      .cls-11 {
        fill: #6380fa;
      }

      .cls-13 {
        fill: #122675;
      }

      .cls-14 {
        fill: #ff4a00;
      }
    </style>
  </defs>
  <g id="KEEP_ON_FOR_EXPORT">
    <line class="cls-2" x1="373" y1="37.57" x2="373.71" y2="36.86"/>
    <line class="cls-2" x1="448" y1="112.57" x2="448.71" y2="111.86"/>
  </g>
  <g id="ICON">
    <g>
      <polygon class="cls-11" points="379.6 57.84 390.06 61.14 390.06 50.13 379.6 46.82 379.6 57.84"/>
      <polygon class="cls-5" points="379.6 46.82 390.06 50.13 397.23 44.62 386.76 41.32 379.6 46.82"/>
      <polygon class="cls-9" points="390.06 50.13 390.06 61.14 397.23 55.63 397.23 44.62 390.06 50.13"/>
      <polygon class="cls-3" points="379.6 46.82 379.6 57.84 390.06 61.14 397.23 55.63 397.23 44.62 386.76 41.32 379.6 46.82"/>
    </g>
    <g>
      <polygon class="cls-11" points="379.6 96.95 390.06 100.25 390.06 89.24 379.6 85.93 379.6 96.95"/>
      <polygon class="cls-5" points="379.6 85.93 390.06 89.24 397.23 83.73 386.76 80.43 379.6 85.93"/>
      <polygon class="cls-9" points="390.06 89.24 390.06 100.25 397.23 94.75 397.23 83.73 390.06 89.24"/>
      <polygon class="cls-3" points="379.6 85.93 379.6 96.95 390.06 100.25 397.23 94.75 397.23 83.73 386.76 80.43 379.6 85.93"/>
    </g>
    <g>
      <polygon class="cls-11" points="416.2 57.84 426.66 61.14 426.66 50.13 416.2 46.82 416.2 57.84"/>
      <polygon class="cls-5" points="416.2 46.82 426.66 50.13 433.82 44.62 423.35 41.32 416.2 46.82"/>
      <polygon class="cls-9" points="426.66 50.13 426.66 61.14 433.82 55.63 433.82 44.62 426.66 50.13"/>
      <polygon class="cls-3" points="416.2 46.82 416.2 57.84 426.66 61.14 433.82 55.63 433.82 44.62 423.35 41.32 416.2 46.82"/>
    </g>
    <g>
      <g>
        <polygon class="cls-14" points="407.89 76.54 422.3 94.66 422.3 88.15 407.89 70.03 407.89 76.54"/>
        <polygon class="cls-7" points="407.89 83.05 422.3 101.18 422.3 94.66 407.89 76.54 407.89 83.05"/>
        <polygon class="cls-11" points="422.3 101.18 407.89 83.05 407.89 89.57 422.3 107.69 422.3 101.18"/>
        <path class="cls-13" d="M443.74,90.78c-5.06,5.87-14.34,8.99-21.44,10.4v6.52c7.11-1.41,16.38-4.54,21.44-10.4v-6.52Z"/>
        <path class="cls-10" d="M422.3,101.18c7.11-1.41,16.38-4.53,21.44-10.4v-6.51c-5.06,5.86-14.34,8.99-21.44,10.4v6.51Z"/>
        <path class="cls-8" d="M422.3,94.66c7.11-1.41,16.38-4.54,21.44-10.4v-6.51c-5.06,5.86-14.34,8.98-21.44,10.4v6.51Z"/>
        <path class="cls-6" d="M422.3,88.15c7.11-1.42,16.38-4.54,21.44-10.4-11.95-2.58-23.91-5.16-35.86-7.73,4.8,6.04,9.61,12.08,14.41,18.12Z"/>
      </g>
      <path class="cls-4" d="M407.89,70.03v19.54l14.41,18.12c8.03-1.66,15.6-4.25,21.44-10.4v-19.54l-35.86-7.73Z"/>
    </g>
    <path class="cls-12" d="M406.52,62.88l-4.82,4.3s7.42,3.47,4.82-4.3Z"/>
    <line class="cls-1" x1="404.81" y1="65.8" x2="397.23" y2="58.22"/>
    <path class="cls-12" d="M403.75,88.79l-.04,6.45s7.55-3.18.04-6.45Z"/>
    <line class="cls-1" x1="404.62" y1="91.99" x2="398.35" y2="91.99"/>
    <path class="cls-12" d="M429.71,68.64l-6.45-.04s3.18,7.55,6.45.04Z"/>
    <line class="cls-1" x1="426.51" y1="69.51" x2="426.51" y2="62.42"/>
  </g>
</svg>