<?xml version="1.0" encoding="UTF-8" standalone="no"?>
<svg
   viewBox="0 0 48 48"
   version="1.1"
   id="svg15656"
   sodipodi:docname="gasaxisforce.svg"
   inkscape:version="1.1 (c68e22c387, 2021-05-23)"
   xmlns:inkscape="http://www.inkscape.org/namespaces/inkscape"
   xmlns:sodipodi="http://sodipodi.sourceforge.net/DTD/sodipodi-0.dtd"
   xmlns:xlink="http://www.w3.org/1999/xlink"
   xmlns="http://www.w3.org/2000/svg"
   xmlns:svg="http://www.w3.org/2000/svg">
  <sodipodi:namedview
     id="namedview15658"
     pagecolor="#ffffff"
     bordercolor="#666666"
     borderopacity="1.0"
     inkscape:pageshadow="2"
     inkscape:pageopacity="0.0"
     inkscape:pagecheckerboard="0"
     showgrid="false"
     inkscape:zoom="15.6875"
     inkscape:cx="24"
     inkscape:cy="24"
     inkscape:window-width="2880"
     inkscape:window-height="1557"
     inkscape:window-x="-8"
     inkscape:window-y="-8"
     inkscape:window-maximized="1"
     inkscape:current-layer="ART" />
  <defs
     id="defs15634">
    <style
       id="style15608">.cls-1{fill:url(#radial-gradient);}.cls-2{fill:url(#linear-gradient);}.cls-3,.cls-6{fill:none;stroke-miterlimit:10;}.cls-3{stroke:#408b09;stroke-width:0.7px;}.cls-4{fill:url(#linear-gradient-2);}.cls-5{fill:url(#linear-gradient-3);}.cls-6{stroke:#e70e20;stroke-width:0.75px;}.cls-7{fill:url(#linear-gradient-4);}.cls-8{fill:url(#linear-gradient-5);}</style>
    <radialGradient
       id="radial-gradient"
       cx="33.05"
       cy="12.75"
       r="21.39"
       gradientTransform="matrix(0.94,0,0,0.42,-6.91,25.01)"
       gradientUnits="userSpaceOnUse">
      <stop
         offset="0.03"
         stop-color="#212121"
         stop-opacity="0.5"
         id="stop15610" />
      <stop
         offset="0.68"
         stop-color="#212121"
         stop-opacity="0.1"
         id="stop15612" />
      <stop
         offset="0.93"
         stop-color="#212121"
         stop-opacity="0"
         id="stop15614" />
    </radialGradient>
    <linearGradient
       id="linear-gradient"
       x1="35.66"
       y1="42.86"
       x2="20.71"
       y2="9.85"
       gradientUnits="userSpaceOnUse">
      <stop
         offset="0"
         stop-color="#4e9a06"
         id="stop15617" />
      <stop
         offset="1"
         stop-color="#8ae234"
         id="stop15619" />
    </linearGradient>
    <linearGradient
       id="linear-gradient-2"
       x1="4.83"
       y1="22.75"
       x2="42.02"
       y2="22.75"
       gradientUnits="userSpaceOnUse">
      <stop
         offset="0"
         stop-color="#e70e20"
         id="stop15622" />
      <stop
         offset="1"
         stop-color="#f8babb"
         id="stop15624" />
    </linearGradient>
    <linearGradient
       id="linear-gradient-3"
       x1="5.84"
       y1="57.09"
       x2="57.55"
       y2="-33.97"
       gradientUnits="userSpaceOnUse">
      <stop
         offset="0"
         stop-color="#fff"
         stop-opacity="0"
         id="stop15627" />
      <stop
         offset="1"
         stop-color="#fff8f8"
         id="stop15629" />
    </linearGradient>
    <linearGradient
       id="linear-gradient-4"
       x1="33.72"
       y1="43.74"
       x2="18.77"
       y2="10.73"
       xlink:href="#linear-gradient" />
    <linearGradient
       id="linear-gradient-5"
       x1="14.98"
       y1="5.47"
       x2="16.03"
       y2="5.47"
       xlink:href="#linear-gradient-3" />
    <linearGradient
       inkscape:collect="always"
       xlink:href="#linear-gradient"
       id="linearGradient15717"
       gradientUnits="userSpaceOnUse"
       x1="35.66"
       y1="42.86"
       x2="20.71"
       y2="9.85" />
    <linearGradient
       inkscape:collect="always"
       xlink:href="#linear-gradient-3"
       id="linearGradient15719"
       gradientUnits="userSpaceOnUse"
       x1="5.84"
       y1="57.09"
       x2="57.55"
       y2="-33.97" />
  </defs>
  <g
     id="shadow"
     transform="matrix(1.2370135,0,0,0.77102021,-5.5927057,17.975135)"
     style="stroke-width:1.02395">
    <ellipse
       class="cls-1"
       cx="24"
       cy="30.34"
       rx="19.23"
       ry="8.6300001"
       id="ellipse15636"
       style="fill:url(#radial-gradient);stroke-width:1.02395" />
  </g>
  <g
     id="ART"
     transform="matrix(1.1436031,0,0,1.1434588,-3.8814254,-4.7459522)"
     style="stroke-width:0.874484">
    <path
       class="cls-2"
       d="m 23,20.37 13.19,22.92 a 1,1 0 0 0 1.73,-1 L 24.55,19.12"
       id="path15639"
       style="fill:url(#linearGradient15717);stroke-width:0.874484" />
    <path
       class="cls-3"
       d="m 23,20.37 13.19,22.92 a 1,1 0 0 0 1.73,-1 L 24.55,19.12"
       id="path15641" />
    <path
       class="cls-4"
       d="m 41.86,13.1 c 0,0 -6.47,4.38 -10.07,4.31 a 31.65,31.65 0 0 0 3.48,0.73 56.1,56.1 0 0 1 -8.85,6.23 C 17.06,29.78 10,32.12 9.18,28.69 8.38,25.52 13.24,19.57 21.05,15.06 a 71.53,71.53 0 0 1 11.63,-5.57 57.12,57.12 0 0 0 -12,5 C 9.86,20.31 4,27.62 4.94,32.81 c 1.12,5.85 13.87,3 24.53,-3.15 a 43.38,43.38 0 0 0 9.7,-7.37 25.16,25.16 0 0 0 1.09,3.63 c 0,0 2.39,-8.69 1.6,-12.82 z"
       id="path15643"
       style="fill:url(#linear-gradient-2);stroke-width:0.874484" />
    <path
       class="cls-5"
       d="m 40.26,25.92 a 25.16,25.16 0 0 1 -1.09,-3.63 43.38,43.38 0 0 1 -9.7,7.37 c -10.66,6.16 -23.41,9 -24.53,3.15 -0.67,-3.53 1.85,-8 7,-12.39 C 6.71,25 4.55,31.6 9.7,32.8 c 5.37,1.26 18.05,-4.46 25,-10.52 6.95,-6.06 7.14,-9.18 7.14,-9.18 0.81,4.13 -1.58,12.82 -1.58,12.82 z"
       id="path15645"
       style="fill:url(#linearGradient15719);stroke-width:0.874484" />
    <path
       class="cls-6"
       d="m 41.86,13.1 c 0,0 -6.47,4.38 -10.07,4.31 a 31.65,31.65 0 0 0 3.48,0.73 56.1,56.1 0 0 1 -8.85,6.23 C 17.06,29.78 10,32.12 9.18,28.69 8.38,25.52 13.24,19.57 21.05,15.06 a 71.53,71.53 0 0 1 11.63,-5.57 57.12,57.12 0 0 0 -12,5 C 9.86,20.31 4,27.62 4.94,32.81 c 1.12,5.85 13.87,3 24.53,-3.15 a 43.38,43.38 0 0 0 9.7,-7.37 25.16,25.16 0 0 0 1.09,3.63 c 0,0 2.39,-8.69 1.6,-12.82 z"
       id="path15647" />
    <path
       class="cls-7"
       d="M 24.55,19.12 16.42,5.05 a 1,1 0 1 0 -1.73,1 L 23,20.37"
       id="path15649"
       style="fill:url(#linear-gradient-4);stroke-width:0.874484" />
    <path
       class="cls-3"
       d="M 24.55,19.12 16.42,5.05 a 1,1 0 1 0 -1.73,1 L 23,20.37"
       id="path15651" />
    <circle
       class="cls-8"
       cx="15.5"
       cy="5.4699998"
       r="0.52999997"
       id="circle15653"
       style="fill:#ffffff;stroke-width:0.874484" />
  </g>
</svg>
