<?xml version="1.0" encoding="UTF-8" standalone="no"?>
<svg
   viewBox="0 0 48 48"
   version="1.1"
   id="svg25"
   sodipodi:docname="3-Gas_Collision_Mask.svg"
   inkscape:version="1.3-dev (e30a5ffc, 2022-05-30)"
   xmlns:inkscape="http://www.inkscape.org/namespaces/inkscape"
   xmlns:sodipodi="http://sodipodi.sourceforge.net/DTD/sodipodi-0.dtd"
   xmlns:xlink="http://www.w3.org/1999/xlink"
   xmlns="http://www.w3.org/2000/svg"
   xmlns:svg="http://www.w3.org/2000/svg">
  <sodipodi:namedview
     id="namedview25"
     pagecolor="#505050"
     bordercolor="#ffffff"
     borderopacity="1"
     inkscape:showpageshadow="0"
     inkscape:pageopacity="0"
     inkscape:pagecheckerboard="1"
     inkscape:deskcolor="#505050"
     showgrid="false"
     inkscape:zoom="21.395833"
     inkscape:cx="19.513145"
     inkscape:cy="23.953262"
     inkscape:window-width="2560"
     inkscape:window-height="1378"
     inkscape:window-x="-6"
     inkscape:window-y="-6"
     inkscape:window-maximized="1"
     inkscape:current-layer="svg25" />
  <defs
     id="defs13">
    <linearGradient
       inkscape:collect="always"
       id="linearGradient28">
      <stop
         style="stop-color:#000000;stop-opacity:0.47798741;"
         offset="0"
         id="stop27" />
      <stop
         style="stop-color:#000000;stop-opacity:0;"
         offset="1"
         id="stop28" />
    </linearGradient>
    <style
       id="style1">.cls-1{fill:url(#radial-gradient);}.cls-2{fill:url(#linear-gradient);}.cls-3{fill:url(#linear-gradient-2);}.cls-4{fill:url(#linear-gradient-3);}.cls-5{fill:url(#linear-gradient-4);}.cls-11,.cls-6,.cls-8{fill:none;stroke-linecap:round;stroke-linejoin:round;}.cls-6{stroke-width:0.7px;stroke:url(#linear-gradient-5);}.cls-7{fill:url(#linear-gradient-6);}.cls-11,.cls-8{stroke:#866c2c;}.cls-8{stroke-width:1.05px;}.cls-9{fill:#fff1c3;}.cls-10{fill:url(#linear-gradient-7);}.cls-11{stroke-width:0.35px;}.cls-12{fill:url(#linear-gradient-8);}.cls-13{fill:url(#linear-gradient-9);}.cls-14{fill:url(#linear-gradient-10);}</style>
    <radialGradient
       id="radial-gradient"
       cx="7.03"
       cy="50.89"
       r="18.85"
       gradientTransform="matrix(1.26,0.07,-0.17,0.52,22.85,4.05)"
       gradientUnits="userSpaceOnUse">
      <stop
         offset="0.35"
         stop-color="#2c2c2c"
         stop-opacity="0.5"
         id="stop1" />
      <stop
         offset="0.73"
         stop-color="#2c2c2c"
         stop-opacity="0.1"
         id="stop2" />
      <stop
         offset="0.95"
         stop-color="#2c2c2c"
         stop-opacity="0"
         id="stop3" />
    </radialGradient>
    <linearGradient
       id="linear-gradient"
       x1="-222.54"
       y1="334.23"
       x2="-214.02"
       y2="321.57"
       gradientTransform="matrix(1.35,0,0,-1.35,314.51,463.21)"
       gradientUnits="userSpaceOnUse">
      <stop
         offset="0"
         stop-color="#a2bede"
         id="stop4" />
      <stop
         offset="1"
         stop-color="#285092"
         id="stop5" />
    </linearGradient>
    <linearGradient
       id="linear-gradient-2"
       x1="-225.54"
       y1="339.97"
       x2="-215.12"
       y2="322.83"
       gradientTransform="matrix(1.35, 0, 0, -1.35, 314.51, 463.21)"
       gradientUnits="userSpaceOnUse">
      <stop
         offset="0"
         stop-color="#fff8f8"
         id="stop6" />
      <stop
         offset="1"
         stop-color="#fffbfb"
         stop-opacity="0.19"
         id="stop7" />
    </linearGradient>
    <linearGradient
       id="linear-gradient-3"
       x1="-223"
       y1="337.73"
       x2="-216.41"
       y2="324.55"
       xlink:href="#linear-gradient-2" />
    <linearGradient
       id="linear-gradient-4"
       x1="-214.18"
       y1="320.24"
       x2="-220.62"
       y2="334.62"
       gradientTransform="matrix(1.35, 0, 0, -1.35, 314.51, 463.21)"
       gradientUnits="userSpaceOnUse">
      <stop
         offset="0.17"
         stop-color="#193774"
         id="stop8" />
      <stop
         offset="1"
         stop-color="#608bc3"
         stop-opacity="0"
         id="stop9" />
    </linearGradient>
    <linearGradient
       id="linear-gradient-5"
       x1="-51.3"
       y1="256.93"
       x2="-47.03"
       y2="245.41"
       gradientTransform="matrix(1.08,0,0,-1.08,74.99,295.01)"
       gradientUnits="userSpaceOnUse">
      <stop
         offset="0"
         stop-color="#4980c5"
         id="stop10" />
      <stop
         offset="1"
         stop-color="#1f477a"
         id="stop11" />
    </linearGradient>
    <linearGradient
       id="linear-gradient-6"
       x1="-215.31"
       y1="323.09"
       x2="-220.54"
       y2="333.73"
       xlink:href="#linear-gradient-4" />
    <linearGradient
       id="linear-gradient-7"
       x1="17.86"
       y1="28.97"
       x2="53.66"
       y2="-11.88"
       gradientUnits="userSpaceOnUse">
      <stop
         offset="0"
         stop-color="#fff"
         stop-opacity="0"
         id="stop12" />
      <stop
         offset="1"
         stop-color="#fff8f8"
         id="stop13" />
    </linearGradient>
    <linearGradient
       id="linear-gradient-8"
       x1="35.08"
       y1="47.93"
       x2="78.42"
       y2="4.77"
       gradientTransform="matrix(0.58,0.23,-1.47,1.15,41.09,-19.24)"
       xlink:href="#linear-gradient-7" />
    <linearGradient
       id="linear-gradient-9"
       x1="18.75"
       y1="28.2"
       x2="51.2"
       y2="-8.82"
       xlink:href="#linear-gradient-7" />
    <linearGradient
       id="linear-gradient-10"
       x1="25.88"
       y1="36.86"
       x2="58.33"
       y2="-0.17"
       xlink:href="#linear-gradient-7" />
    <linearGradient
       inkscape:collect="always"
       xlink:href="#linear-gradient-2"
       id="linearGradient25"
       gradientUnits="userSpaceOnUse"
       gradientTransform="matrix(1.35,0,0,-1.35,314.51,463.21)"
       x1="-225.54"
       y1="339.97"
       x2="-215.12"
       y2="322.83" />
    <linearGradient
       inkscape:collect="always"
       xlink:href="#linear-gradient-4"
       id="linearGradient26"
       gradientUnits="userSpaceOnUse"
       gradientTransform="matrix(1.35,0,0,-1.35,314.51,463.21)"
       x1="-214.18"
       y1="320.24"
       x2="-220.62"
       y2="334.62" />
    <linearGradient
       inkscape:collect="always"
       xlink:href="#linear-gradient-7"
       id="linearGradient27"
       gradientUnits="userSpaceOnUse"
       x1="17.86"
       y1="28.97"
       x2="53.66"
       y2="-11.88" />
    <radialGradient
       inkscape:collect="always"
       xlink:href="#linearGradient28"
       id="radialGradient28"
       cx="22.977604"
       cy="30.863724"
       fx="22.977604"
       fy="30.863724"
       r="22.010934"
       gradientTransform="matrix(1,0,0,0.52434033,0,14.680629)"
       gradientUnits="userSpaceOnUse" />
    <radialGradient
       inkscape:collect="always"
       xlink:href="#linearGradient28"
       id="radialGradient29"
       gradientUnits="userSpaceOnUse"
       gradientTransform="matrix(1,0,0,0.52434033,0,14.680629)"
       cx="22.977604"
       cy="30.863724"
       fx="22.977604"
       fy="30.863724"
       r="22.010934" />
  </defs>
  <g
     id="shadow"
     transform="matrix(1.0462866,0,0,1.0462866,-1.029494,-2.9030313)"
     style="fill:url(#radialGradient28);fill-opacity:1">
    <ellipse
       class="cls-1"
       cx="22.98"
       cy="30.860001"
       rx="22.969999"
       ry="9.4899998"
       transform="rotate(-18.3,22.990361,30.869298)"
       id="ellipse13"
       style="fill:url(#radialGradient29);fill-opacity:1" />
  </g>
  <g
     id="ART"
     transform="matrix(1.1847324,0,0,1.1847324,-3.2291482,-4.979296)">
    <g
       id="g45840">
      <path
         id="path44063"
         class="cls-2"
         d="M 37.68,17.15 A 5.74,5.74 0 0 1 35,18 6.07,6.07 0 0 1 32.36,22.08 8.07,8.07 0 0 1 28,23.26 c 0,0 -0.64,3.87 -3.75,4.7 a 8.87,8.87 0 0 1 -4.95,0.16 5.71,5.71 0 0 1 -3.62,2.66 7,7 0 0 1 -4.62,-0.1 4.48,4.48 0 0 1 -3,2.06 3.84,3.84 0 0 1 -5,-2.39 c -0.54,-2.3 0.9,-5.23 3.37,-5.24 a 3.79,3.79 0 0 1 0.4,-2.11 3.78,3.78 0 0 1 1.39,-1.19 5.75,5.75 0 0 1 0.46,-5 L 8.9,16.5 a 5,5 0 0 1 3.63,-2.27 8.21,8.21 0 0 1 4.89,-6.73 7.25,7.25 0 0 1 9.14,2.88 c 0,0 1.22,-1.38 4.21,-0.86 a 5.06,5.06 0 0 1 3.77,2.76 2.72,2.72 0 0 1 1.91,-0.83 2.68,2.68 0 0 1 2.95,2.13 3.44,3.44 0 0 1 -1.72,3.57 z"
         style="fill:url(#linear-gradient)" />
      <path
         id="path44065"
         class="cls-3"
         d="M 37.68,17.15 A 5.74,5.74 0 0 1 35,18 6.07,6.07 0 0 1 32.36,22.08 8.07,8.07 0 0 1 28,23.26 c 0,0 -0.64,3.87 -3.75,4.7 a 8.87,8.87 0 0 1 -4.95,0.16 5.71,5.71 0 0 1 -3.62,2.66 7,7 0 0 1 -4.62,-0.1 4.48,4.48 0 0 1 -3,2.06 3.84,3.84 0 0 1 -5,-2.39 c -0.54,-2.3 0.9,-5.23 3.37,-5.24 a 3.79,3.79 0 0 1 0.4,-2.11 3.78,3.78 0 0 1 1.39,-1.19 5.75,5.75 0 0 1 0.46,-5 L 8.9,16.5 a 5,5 0 0 1 3.63,-2.27 8.21,8.21 0 0 1 4.89,-6.73 7.25,7.25 0 0 1 9.14,2.88 c 0,0 1.22,-1.38 4.21,-0.86 a 5.06,5.06 0 0 1 3.77,2.76 2.72,2.72 0 0 1 1.91,-0.83 2.68,2.68 0 0 1 2.95,2.13 3.44,3.44 0 0 1 -1.72,3.57 z"
         style="fill:url(#linearGradient25)" />
      <path
         id="path44067"
         class="cls-4"
         d="m 39.33,14.91 v 0 c -0.26,0.6 -0.46,0.94 -0.38,0.32 A 2.47,2.47 0 0 0 36.9,12.46 h -0.2 a 3.31,3.31 0 0 0 -2.33,0.93 6.11,6.11 0 0 0 -4.09,-2.1 6,6 0 0 0 -4,1.57 c 0,0 -3.21,-5.38 -7.55,-3 -4.34,2.38 -3,5.9 -3,5.9 -0.66,-0.25 -3.79,0 -4.85,2 a 6,6 0 0 0 -0.19,4.34 c 0,0 -0.35,-0.2 -1.55,0.82 A 3,3 0 0 0 8.25,25.68 4.09,4.09 0 0 0 5.51,27.43 5.16,5.16 0 0 0 4.89,32.48 3.29,3.29 0 0 1 3.17,30.39 c -0.54,-2.3 0.9,-5.24 3.37,-5.25 a 4,4 0 0 1 0.34,-2.1 3.78,3.78 0 0 1 1.39,-1.19 5.75,5.75 0 0 1 0.46,-5 l 0.22,-0.31 a 5,5 0 0 1 3.63,-2.26 8.2,8.2 0 0 1 4.84,-6.68 7.23,7.23 0 0 1 9.14,2.78 c 0,0 1.22,-1.38 4.21,-0.86 a 5.06,5.06 0 0 1 3.77,2.76 2.72,2.72 0 0 1 1.91,-0.83 2.68,2.68 0 0 1 2.95,2.13 2.85,2.85 0 0 1 -0.07,1.33 z"
         style="fill:url(#linear-gradient-3)" />
      <path
         id="path44069"
         class="cls-5"
         d="m 36.23,15.9 a 2.28,2.28 0 0 1 -2.44,1 5.45,5.45 0 0 1 -2.44,3.42 4.47,4.47 0 0 1 -3.9,0.52 5.9,5.9 0 0 1 -3.07,4.54 5.19,5.19 0 0 1 -5.3,-0.09 4.76,4.76 0 0 1 -3.08,3.55 4.47,4.47 0 0 1 -4.59,-0.38 c 0,0 -0.3,1.31 -2.41,1.82 -2.11,0.51 -3,-2.58 -0.89,-4 a 5.57,5.57 0 0 1 2.53,-0.88 5.93,5.93 0 0 1 0.3,-3 3.52,3.52 0 0 1 2.75,-2.4 3.46,3.46 0 0 1 0.93,-2.39 3.5,3.5 0 0 1 3.9,-0.94 4.81,4.81 0 0 0 -1.9,-1.35 4,4 0 0 1 2.46,-2.56 5.72,5.72 0 0 1 6.64,2.38 4.72,4.72 0 0 1 4.71,-1.68 3.91,3.91 0 0 1 2.57,1.62 c 0,0 1.12,-1.61 2.31,-1.45 a 1.4,1.4 0 0 1 1.22,1.54 1.46,1.46 0 0 1 -0.3,0.73 z"
         style="fill:url(#linearGradient26)" />
      <path
         id="path44071"
         class="cls-6"
         d="m 38,17.25 a 5.76,5.76 0 0 1 -2.69,0.83 6,6 0 0 1 -2.64,4.08 7.88,7.88 0 0 1 -4.31,1.19 c 0,0 -0.65,3.89 -3.75,4.71 a 8.91,8.91 0 0 1 -5,0.17 5.73,5.73 0 0 1 -3.61,2.66 7.13,7.13 0 0 1 -4.63,-0.11 4.46,4.46 0 0 1 -3,2.11 C 6,33.61 3.78,32.33 3.37,30.51 2.82,28.21 4.26,25.27 6.74,25.26 a 3.79,3.79 0 0 1 0.34,-2.1 3.71,3.71 0 0 1 1.41,-1.16 5.75,5.75 0 0 1 0.45,-5 2.26,2.26 0 0 1 0.23,-0.31 5,5 0 0 1 3.62,-2.26 8.19,8.19 0 0 1 4.9,-6.74 7.22,7.22 0 0 1 9.09,2.81 c 0,0 1.22,-1.37 4.22,-0.88 a 5,5 0 0 1 3.77,2.75 2.71,2.71 0 0 1 1.91,-0.82 2.65,2.65 0 0 1 3,2.12 3.51,3.51 0 0 1 -1.68,3.58 z"
         style="stroke:url(#linear-gradient-5)" />
      <path
         id="path44073"
         class="cls-7"
         d="m 36.23,15.89 a 2.26,2.26 0 0 1 -2.44,1 5.4,5.4 0 0 1 -2.44,3.41 4.49,4.49 0 0 1 -3.91,0.53 5.87,5.87 0 0 1 -3.07,4.54 5.17,5.17 0 0 1 -5.29,-0.09 4.76,4.76 0 0 1 -3.08,3.56 c -2.63,0.95 -3.9,0.08 -4.58,-0.38 0,0 -0.32,1.32 -2.39,1.82 A 1.57,1.57 0 0 1 7.08,29.11 v 0 a 3.56,3.56 0 0 0 2.84,-0.17 2.9,2.9 0 0 0 1.64,-2 5.75,5.75 0 0 0 4.58,0.23 4.81,4.81 0 0 0 2.43,-3.67 c 0,0 3.87,1.77 6,0.42 2.13,-1.35 2.65,-4.46 2.61,-5.64 a 3.23,3.23 0 0 0 3.54,0.79 3.65,3.65 0 0 0 2.61,-3.24 2.33,2.33 0 0 0 1.68,0.15 1.85,1.85 0 0 0 1.28,-1.55 1.72,1.72 0 0 1 -0.06,1.46 z"
         style="fill:url(#linear-gradient-6)" />
    </g>
    <path
       class="cls-8"
       d="M 42.62,25.55 41,26.23 V 13.31 l 0.91,-0.37 a 0.28,0.28 0 0 1 -0.24,-0.14 0.13,0.13 0 0 1 0,-0.06 0.71,0.71 0 0 1 0.1,-0.35 c 0,-0.07 0.08,-0.13 0.11,-0.2 a 0.27,0.27 0 0 0 0,-0.23 0.51,0.51 0 0 0 -0.07,-0.15 c -0.1,-0.23 0.2,-0.44 0.06,-0.68 a 0.33,0.33 0 0 1 -0.06,-0.1 0.24,0.24 0 0 1 0.09,-0.24 1.19,1.19 0 0 0 0.2,-0.19 C 42.25,10.37 41.98,10.22 42,10 42.02,9.78 42.07,9.68 42.06,9.6 42.05,9.52 41.98,9.5 41.94,9.41 41.9,9.32 41.94,9.32 42.01,9.28 l 0.38,-0.47 -21,8.59 v -1.83 c -0.72,0.69 -0.45,0.48 -0.58,0.56 a 0.7,0.7 0 0 1 -0.22,0.07 0.41,0.41 0 0 0 -0.23,0.2 c -0.05,0.1 -0.1,0.25 -0.16,0.29 h -0.07 c -0.12,0 -0.3,0.53 -0.42,0.6 a 5.47,5.47 0 0 1 -1.82,0.89 v 0.66 l -1.09,0.44 c 0.24,-0.1 0.21,0.46 0.19,0.53 -0.07,0.29 -0.17,0.58 -0.22,0.88 a 0.49,0.49 0 0 0 0,0.24 c 0.08,0.2 0.39,0.22 0.45,0.42 0.06,0.2 -0.29,0.46 -0.22,0.7 a 0.84,0.84 0 0 0 0.06,0.14 c 0.17,0.36 -0.4,0.89 -0.6,1.14 l 1.43,-0.58 v 12.89 l -1,0.41 c 0.07,0 0.12,0.05 0.1,0.12 a 0.87,0.87 0 0 0 0,0.77 1.28,1.28 0 0 1 0.16,0.36 c 0,0.23 -0.19,0.43 -0.22,0.66 -0.03,0.23 0.22,0.55 0.16,0.84 a 0.7,0.7 0 0 1 -0.15,0.34 0.3,0.3 0 0 0 -0.07,0.15 1.05,1.05 0 0 0 0.06,0.24 0.28,0.28 0 0 1 -0.05,0.28 l -0.13,0.15 c 0,0 -0.09,0.12 -0.13,0.14 l 20.85,-8.51 v 0.83 a 2.73,2.73 0 0 0 0.73,-0.27 c 0.17,-0.15 0.31,-0.13 0.47,-0.21 a 0.86,0.86 0 0 0 0.31,-0.29 c 0,-0.07 0.1,0 0.17,0 h 0.08 c 0.1,0 0.41,0.17 0.54,0.08 0.13,-0.09 0.7,0.05 0.94,-0.09 0.24,-0.14 0.17,0 0.27,-0.09 v 0 -1.4 l 0.71,-0.29 a 0.47,0.47 0 0 1 0.06,-0.15 c 0,-0.08 0,-0.11 0,-0.13 A 0.34,0.34 0 0 0 41.6,29.52 c 0,0 0,0 0,0 0,0 0.09,-0.1 0.17,-0.16 a 1,1 0 0 0 0.18,-0.15 c 0,-0.05 0,-0.06 0,-0.06 h -0.2 c 0,0 0,0 -0.05,0 -0.05,0 0.1,-0.15 0.2,-0.24 l 0.06,-0.07 c 0,0 0,0 0,0 0,0 0,-0.73 0.12,-0.84 a 1.72,1.72 0 0 0 0.22,-0.37 c 0,-0.13 -0.2,-0.39 -0.21,-0.42 A 0.1142366,0.1142366 0 0 1 42,27 c 0,-0.28 0.45,-0.77 0.45,-0.83 a 4.52,4.52 0 0 1 0.17,-0.62 z m -21.2,8.66 v -12.9 l 16,-6.56 v 12.91 z"
       id="path13" />
    <path
       class="cls-9"
       d="m 18.9,37.52 c 0.14,-0.19 0.31,-0.34 0.43,-0.34 0.12,0 0.1,0 0.17,0 0.07,0 0.2,-0.34 0.31,-0.43 0.11,-0.09 0.17,0 0.29,-0.06 0.12,-0.06 0.18,-0.39 0.31,-0.53 a 3.27,3.27 0 0 1 0.44,0 c 0.06,0 -0.1,0 0.57,-0.55 V 15.57 c -0.72,0.69 -0.45,0.48 -0.58,0.56 a 0.7,0.7 0 0 1 -0.22,0.07 0.41,0.41 0 0 0 -0.23,0.2 c -0.05,0.1 -0.1,0.25 -0.16,0.29 h -0.07 c -0.12,0 -0.3,0.53 -0.42,0.6 a 5.66,5.66 0 0 1 -1.82,0.9 v 20 a 2.3,2.3 0 0 0 0.98,-0.67 z"
       id="path14" />
    <path
       class="cls-10"
       d="m 18.9,37.52 c 0.14,-0.19 0.31,-0.34 0.43,-0.34 0.12,0 0.1,0 0.17,0 0.07,0 0.2,-0.34 0.31,-0.43 0.11,-0.09 0.17,0 0.29,-0.06 0.12,-0.06 0.18,-0.39 0.31,-0.53 a 3.27,3.27 0 0 1 0.44,0 c 0.06,0 -0.1,0 0.57,-0.55 V 15.57 c -0.72,0.69 -0.45,0.48 -0.58,0.56 a 0.7,0.7 0 0 1 -0.22,0.07 0.41,0.41 0 0 0 -0.23,0.2 c -0.05,0.1 -0.1,0.25 -0.16,0.29 h -0.07 c -0.12,0 -0.3,0.53 -0.42,0.6 a 5.66,5.66 0 0 1 -1.82,0.9 v 20 a 2.3,2.3 0 0 0 0.98,-0.67 z"
       id="path15"
       style="fill:url(#linearGradient27)" />
    <path
       class="cls-11"
       d="m 18.9,37.52 c 0.14,-0.19 0.31,-0.34 0.43,-0.34 0.12,0 0.1,0 0.17,0 0.07,0 0.2,-0.34 0.31,-0.43 0.11,-0.09 0.17,0 0.29,-0.06 0.12,-0.06 0.18,-0.39 0.31,-0.53 a 3.27,3.27 0 0 1 0.44,0 c 0.06,0 -0.1,0 0.57,-0.55 V 15.57 c -0.72,0.69 -0.45,0.48 -0.58,0.56 a 0.7,0.7 0 0 1 -0.22,0.07 0.41,0.41 0 0 0 -0.23,0.2 c -0.05,0.1 -0.1,0.25 -0.16,0.29 h -0.07 c -0.12,0 -0.3,0.53 -0.42,0.6 a 5.66,5.66 0 0 1 -1.82,0.9 v 20 a 2.3,2.3 0 0 0 0.98,-0.67 z"
       id="path16" />
    <path
       class="cls-9"
       d="M 38.19,32.15 C 38.36,32 38.5,32.02 38.66,31.94 a 0.86,0.86 0 0 0 0.31,-0.29 c 0,-0.07 0.1,0 0.17,0 h 0.08 c 0.1,0 0.41,0.17 0.54,0.08 0.13,-0.09 0.7,0.05 0.94,-0.09 0.24,-0.14 0.17,0 0.27,-0.09 v 0 -20.28 l -3.51,2.23 v 18.92 a 2.73,2.73 0 0 0 0.73,-0.27 z"
       id="path17" />
    <path
       class="cls-12"
       d="M 38.19,32.15 C 38.36,32 38.5,32.02 38.66,31.94 a 0.86,0.86 0 0 0 0.31,-0.29 c 0,-0.07 0.1,0 0.17,0 h 0.08 c 0.1,0 0.41,0.17 0.54,0.08 0.13,-0.09 0.7,0.05 0.94,-0.09 0.24,-0.14 0.17,0 0.27,-0.09 v 0 -20.28 l -3.51,2.23 v 18.92 a 2.73,2.73 0 0 0 0.73,-0.27 z"
       id="path18"
       style="fill:url(#linear-gradient-8)" />
    <path
       class="cls-11"
       d="M 38.19,32.15 C 38.36,32 38.5,32.02 38.66,31.94 a 0.86,0.86 0 0 0 0.31,-0.29 c 0,-0.07 0.1,0 0.17,0 h 0.08 c 0.1,0 0.41,0.17 0.54,0.08 0.13,-0.09 0.7,0.05 0.94,-0.09 0.24,-0.14 0.17,0 0.27,-0.09 v 0 -20.28 l -3.51,2.23 v 18.92 a 2.73,2.73 0 0 0 0.73,-0.27 z"
       id="path19" />
    <path
       class="cls-9"
       d="m 41.63,12.74 a 0.71,0.71 0 0 1 0.1,-0.35 c 0,-0.07 0.08,-0.13 0.11,-0.2 a 0.27,0.27 0 0 0 0,-0.23 0.51,0.51 0 0 0 -0.07,-0.15 c -0.1,-0.23 0.2,-0.44 0.06,-0.68 a 0.33,0.33 0 0 1 -0.06,-0.1 0.24,0.24 0 0 1 0.09,-0.24 1.19,1.19 0 0 0 0.2,-0.19 C 42.21,10.37 41.94,10.22 41.96,10 41.98,9.78 42.03,9.68 42.02,9.6 42.01,9.52 41.94,9.5 41.9,9.41 41.86,9.32 41.9,9.32 41.97,9.28 L 42.35,8.81 16.82,19.28 c 0.24,-0.1 0.21,0.46 0.19,0.53 -0.07,0.29 -0.17,0.58 -0.22,0.88 a 0.49,0.49 0 0 0 0,0.24 c 0.08,0.2 0.39,0.22 0.45,0.42 0.06,0.2 -0.29,0.46 -0.22,0.7 a 0.84,0.84 0 0 0 0.06,0.14 c 0.17,0.36 -0.4,0.89 -0.6,1.14 L 41.88,12.94 A 0.28,0.28 0 0 1 41.64,12.8 0.13,0.13 0 0 1 41.63,12.74 Z"
       id="path20" />
    <path
       class="cls-13"
       d="m 41.63,12.74 a 0.71,0.71 0 0 1 0.1,-0.35 c 0,-0.07 0.08,-0.13 0.11,-0.2 a 0.27,0.27 0 0 0 0,-0.23 0.51,0.51 0 0 0 -0.07,-0.15 c -0.1,-0.23 0.2,-0.44 0.06,-0.68 a 0.33,0.33 0 0 1 -0.06,-0.1 0.24,0.24 0 0 1 0.09,-0.24 1.19,1.19 0 0 0 0.2,-0.19 C 42.21,10.37 41.94,10.22 41.96,10 41.98,9.78 42.03,9.68 42.02,9.6 42.01,9.52 41.94,9.5 41.9,9.41 41.86,9.32 41.9,9.32 41.97,9.28 L 42.35,8.81 16.82,19.28 c 0.24,-0.1 0.21,0.46 0.19,0.53 -0.07,0.29 -0.17,0.58 -0.22,0.88 a 0.49,0.49 0 0 0 0,0.24 c 0.08,0.2 0.39,0.22 0.45,0.42 0.06,0.2 -0.29,0.46 -0.22,0.7 a 0.84,0.84 0 0 0 0.06,0.14 c 0.17,0.36 -0.4,0.89 -0.6,1.14 L 41.88,12.94 A 0.28,0.28 0 0 1 41.64,12.8 0.13,0.13 0 0 1 41.63,12.74 Z"
       id="path21"
       style="fill:url(#linear-gradient-9)" />
    <path
       class="cls-9"
       d="M 16.61,40.1 41.69,29.86 a 0.47,0.47 0 0 1 0.06,-0.15 c 0,-0.08 0,-0.11 0,-0.13 A 0.34,0.34 0 0 0 41.6,29.52 c 0,0 0,0 0,0 0,0 0.09,-0.1 0.17,-0.16 a 1,1 0 0 0 0.18,-0.15 c 0,-0.05 0,-0.06 0,-0.06 h -0.2 c 0,0 0,0 -0.05,0 -0.05,0 0.1,-0.15 0.2,-0.24 l 0.06,-0.07 c 0,0 0,0 0,0 0,0 0,-0.73 0.12,-0.84 a 1.72,1.72 0 0 0 0.22,-0.37 c 0,-0.13 -0.2,-0.39 -0.21,-0.42 A 0.1142366,0.1142366 0 0 1 42,27 c 0,-0.28 0.45,-0.77 0.45,-0.83 a 4.52,4.52 0 0 1 0.16,-0.6 l -25.7,10.48 c 0.07,0 0.12,0.05 0.1,0.12 a 0.87,0.87 0 0 0 0,0.77 1.28,1.28 0 0 1 0.16,0.36 c 0,0.23 -0.19,0.43 -0.22,0.66 -0.03,0.23 0.22,0.55 0.16,0.84 a 0.7,0.7 0 0 1 -0.15,0.34 0.3,0.3 0 0 0 -0.07,0.15 1.05,1.05 0 0 0 0.06,0.24 0.28,0.28 0 0 1 -0.05,0.28 l -0.13,0.15 c 0,0 -0.12,0.12 -0.16,0.14 z"
       id="path22" />
    <path
       class="cls-14"
       d="M 16.61,40.1 41.69,29.86 a 0.47,0.47 0 0 1 0.06,-0.15 c 0,-0.08 0,-0.11 0,-0.13 A 0.34,0.34 0 0 0 41.6,29.52 c 0,0 0,0 0,0 0,0 0.09,-0.1 0.17,-0.16 a 1,1 0 0 0 0.18,-0.15 c 0,-0.05 0,-0.06 0,-0.06 h -0.2 c 0,0 0,0 -0.05,0 -0.05,0 0.1,-0.15 0.2,-0.24 l 0.06,-0.07 c 0,0 0,0 0,0 0,0 0,-0.73 0.12,-0.84 a 1.72,1.72 0 0 0 0.22,-0.37 c 0,-0.13 -0.2,-0.39 -0.21,-0.42 A 0.1142366,0.1142366 0 0 1 42,27 c 0,-0.28 0.45,-0.77 0.45,-0.83 a 4.52,4.52 0 0 1 0.16,-0.6 l -25.7,10.48 c 0.07,0 0.12,0.05 0.1,0.12 a 0.87,0.87 0 0 0 0,0.77 1.28,1.28 0 0 1 0.16,0.36 c 0,0.23 -0.19,0.43 -0.22,0.66 -0.03,0.23 0.22,0.55 0.16,0.84 a 0.7,0.7 0 0 1 -0.15,0.34 0.3,0.3 0 0 0 -0.07,0.15 1.05,1.05 0 0 0 0.06,0.24 0.28,0.28 0 0 1 -0.05,0.28 l -0.13,0.15 c 0,0 -0.12,0.12 -0.16,0.14 z"
       id="path23"
       style="fill:url(#linear-gradient-10)" />
    <path
       class="cls-11"
       d="M 16.61,40.1 41.69,29.86 a 0.47,0.47 0 0 1 0.06,-0.15 c 0,-0.08 0,-0.11 0,-0.13 A 0.34,0.34 0 0 0 41.6,29.52 c 0,0 0,0 0,0 0,0 0.09,-0.1 0.17,-0.16 a 1,1 0 0 0 0.18,-0.15 c 0,-0.05 0,-0.06 0,-0.06 h -0.2 c 0,0 0,0 -0.05,0 -0.05,0 0.1,-0.15 0.2,-0.24 l 0.06,-0.07 c 0,0 0,0 0,0 0,0 0,-0.73 0.12,-0.84 a 1.72,1.72 0 0 0 0.22,-0.37 c 0,-0.13 -0.2,-0.39 -0.21,-0.42 A 0.1142366,0.1142366 0 0 1 42,27 c 0,-0.28 0.45,-0.77 0.45,-0.83 a 4.52,4.52 0 0 1 0.16,-0.6 l -25.7,10.48 c 0.07,0 0.12,0.05 0.1,0.12 a 0.87,0.87 0 0 0 0,0.77 1.28,1.28 0 0 1 0.16,0.36 c 0,0.23 -0.19,0.43 -0.22,0.66 -0.03,0.23 0.22,0.55 0.16,0.84 a 0.7,0.7 0 0 1 -0.15,0.34 0.3,0.3 0 0 0 -0.07,0.15 1.05,1.05 0 0 0 0.06,0.24 0.28,0.28 0 0 1 -0.05,0.28 l -0.13,0.15 c 0,0 -0.12,0.12 -0.16,0.14 z"
       id="path24" />
    <path
       class="cls-11"
       d="m 41.63,12.74 a 0.71,0.71 0 0 1 0.1,-0.35 c 0,-0.07 0.08,-0.13 0.11,-0.2 a 0.27,0.27 0 0 0 0,-0.23 0.51,0.51 0 0 0 -0.07,-0.15 c -0.1,-0.23 0.2,-0.44 0.06,-0.68 a 0.33,0.33 0 0 1 -0.06,-0.1 0.24,0.24 0 0 1 0.09,-0.24 1.19,1.19 0 0 0 0.2,-0.19 C 42.21,10.37 41.94,10.22 41.96,10 41.98,9.78 42.03,9.68 42.02,9.6 42.01,9.52 41.94,9.5 41.9,9.41 41.86,9.32 41.9,9.32 41.97,9.28 L 42.35,8.81 16.82,19.28 c 0.24,-0.1 0.21,0.46 0.19,0.53 -0.07,0.29 -0.17,0.58 -0.22,0.88 a 0.49,0.49 0 0 0 0,0.24 c 0.08,0.2 0.39,0.22 0.45,0.42 0.06,0.2 -0.29,0.46 -0.22,0.7 a 0.84,0.84 0 0 0 0.06,0.14 c 0.17,0.36 -0.4,0.89 -0.6,1.14 L 41.88,12.94 A 0.28,0.28 0 0 1 41.64,12.8 0.13,0.13 0 0 1 41.63,12.74 Z"
       id="path25" />
  </g>
</svg>
