<?xml version="1.0" encoding="UTF-8" standalone="no"?>
<!-- Created with Inkscape (http://www.inkscape.org/) -->

<svg
   width="48px"
   height="48px"
   id="svg4016"
   sodipodi:version="0.32"
   inkscape:version="1.1 (c68e22c387, 2021-05-23)"
   sodipodi:docname="gasvelocityscale.svg"
   inkscape:output_extension="org.inkscape.output.svg.inkscape"
   version="1.1"
   xmlns:inkscape="http://www.inkscape.org/namespaces/inkscape"
   xmlns:sodipodi="http://sodipodi.sourceforge.net/DTD/sodipodi-0.dtd"
   xmlns:xlink="http://www.w3.org/1999/xlink"
   xmlns="http://www.w3.org/2000/svg"
   xmlns:svg="http://www.w3.org/2000/svg"
   xmlns:rdf="http://www.w3.org/1999/02/22-rdf-syntax-ns#"
   xmlns:cc="http://creativecommons.org/ns#"
   xmlns:dc="http://purl.org/dc/elements/1.1/"
   xmlns:a="http://ns.adobe.com/AdobeSVGViewerExtensions/3.0/"
  >
  <defs
     id="defs4018">
    <linearGradient
       inkscape:collect="always"
       id="linearGradient4250">
      <stop
         style="stop-color:#2e3436;stop-opacity:1;"
         offset="0"
         id="stop4252" />
      <stop
         style="stop-color:#2e3436;stop-opacity:0;"
         offset="1"
         id="stop4254" />
    </linearGradient>
    <linearGradient
       id="linearGradient4222">
      <stop
         style="stop-color:#2e3436;stop-opacity:1"
         offset="0"
         id="stop4224" />
      <stop
         style="stop-color:#334777;stop-opacity:1;"
         offset="1"
         id="stop4226" />
    </linearGradient>
    <linearGradient
       id="linearGradient4157">
      <stop
         id="stop4159"
         offset="0"
         style="stop-color:#ffffff;stop-opacity:1;" />
      <stop
         id="stop4161"
         offset="1"
         style="stop-color:#ffffff;stop-opacity:0;" />
    </linearGradient>
    <linearGradient
       inkscape:collect="always"
       id="linearGradient4145">
      <stop
         style="stop-color:#2e3436;stop-opacity:1;"
         offset="0"
         id="stop4147" />
      <stop
         style="stop-color:#2e3436;stop-opacity:0;"
         offset="1"
         id="stop4149" />
    </linearGradient>
    <linearGradient
       id="linearGradient4125">
      <stop
         style="stop-color:#486d7f;stop-opacity:1;"
         offset="0"
         id="stop4127" />
      <stop
         id="stop4133"
         offset="0.25"
         style="stop-color:#c5d8e2;stop-opacity:1;" />
      <stop
         style="stop-color:#ffffff;stop-opacity:1;"
         offset="0.5"
         id="stop4135" />
      <stop
         id="stop4137"
         offset="0.75"
         style="stop-color:#8ea7bd;stop-opacity:1;" />
      <stop
         style="stop-color:#476670;stop-opacity:1;"
         offset="1"
         id="stop4129" />
    </linearGradient>
    <linearGradient
       id="linearGradient4113">
      <stop
         style="stop-color:#254902;stop-opacity:1;"
         offset="0"
         id="stop4115" />
      <stop
         id="stop4121"
         offset="0.34482759"
         style="stop-color:#87da39;stop-opacity:1;" />
      <stop
         style="stop-color:#3e7b04;stop-opacity:1;"
         offset="1"
         id="stop4117" />
    </linearGradient>
    <linearGradient
       id="linearGradient4087">
      <stop
         style="stop-color:#5c6f77;stop-opacity:1;"
         offset="0"
         id="stop4089" />
      <stop
         id="stop4097"
         offset="0.23563218"
         style="stop-color:#aebbc1;stop-opacity:1;" />
      <stop
         style="stop-color:#c2ccd1;stop-opacity:1;"
         offset="0.40276125"
         id="stop4099" />
      <stop
         id="stop4095"
         offset="0.5"
         style="stop-color:#ffffff;stop-opacity:1;" />
      <stop
         style="stop-color:#aeb9b9;stop-opacity:1;"
         offset="0.63218391"
         id="stop4101" />
      <stop
         style="stop-color:#425555;stop-opacity:1;"
         offset="1"
         id="stop4091" />
    </linearGradient>
    <linearGradient
       inkscape:collect="always"
       xlink:href="#linearGradient4087"
       id="linearGradient4093"
       x1="36.642857"
       y1="31.641575"
       x2="48.5"
       y2="31.641575"
       gradientUnits="userSpaceOnUse"
       gradientTransform="matrix(1.054066,0,0,1.0403908,-37.37832,2.2316089)" />
    <linearGradient
       inkscape:collect="always"
       xlink:href="#linearGradient4125"
       id="linearGradient4131"
       x1="22.732143"
       y1="9.3694906"
       x2="25.732143"
       y2="9.3694906"
       gradientUnits="userSpaceOnUse"
       gradientTransform="matrix(1.176962,0,0,1.1158927,-20.885521,-1.5439196)" />
    <radialGradient
       inkscape:collect="always"
       xlink:href="#linearGradient4113"
       id="radialGradient4139"
       cx="24.242075"
       cy="12.556728"
       fx="24.242075"
       fy="12.556728"
       r="6.4136782"
       gradientTransform="matrix(2.511689,-0.00387874,0.00267672,1.5619182,-53.283996,-6.1400307)"
       gradientUnits="userSpaceOnUse" />
    <linearGradient
       inkscape:collect="always"
       xlink:href="#linearGradient4145"
       id="linearGradient4151"
       x1="24.142857"
       y1="6.9285712"
       x2="23.964285"
       y2="8.6428576"
       gradientUnits="userSpaceOnUse"
       gradientTransform="matrix(1.176962,0,0,1.1158926,-20.812454,-1.5439195)" />
    <linearGradient
       inkscape:collect="always"
       xlink:href="#linearGradient4157"
       id="linearGradient4155"
       gradientUnits="userSpaceOnUse"
       x1="24.142857"
       y1="6.9285712"
       x2="24.054976"
       y2="8.6428576"
       gradientTransform="matrix(0.8031742,0,0,-0.7614999,-11.893476,15.884862)" />
    <linearGradient
       inkscape:collect="always"
       xlink:href="#linearGradient4125"
       id="linearGradient4167"
       gradientUnits="userSpaceOnUse"
       x1="22.732143"
       y1="9.3694906"
       x2="25.732143"
       y2="9.3694906"
       gradientTransform="matrix(0.6538677,0,0,0.5849681,-8.2021479,-1.8475651)" />
    <linearGradient
       inkscape:collect="always"
       xlink:href="#linearGradient4125"
       id="linearGradient4177"
       gradientUnits="userSpaceOnUse"
       gradientTransform="matrix(-0.04285082,1.2261284,-1.2721113,-0.04072654,18.146312,-20.278957)"
       x1="22.732143"
       y1="9.3694906"
       x2="25.732143"
       y2="9.3694906" />
    <linearGradient
       inkscape:collect="always"
       xlink:href="#linearGradient4125"
       id="linearGradient4185"
       gradientUnits="userSpaceOnUse"
       gradientTransform="matrix(0.02010111,1.1800196,0.5967413,-0.03919501,0.900926,-17.798608)"
       x1="22.732143"
       y1="9.3694906"
       x2="25.732143"
       y2="9.3694906" />
    <linearGradient
       inkscape:collect="always"
       xlink:href="#linearGradient4125"
       id="linearGradient4191"
       gradientUnits="userSpaceOnUse"
       x1="22.732143"
       y1="9.3694906"
       x2="25.732143"
       y2="9.3694906"
       gradientTransform="matrix(1.176962,0,0,1.1158927,-20.812454,-1.616984)" />
    <linearGradient
       inkscape:collect="always"
       xlink:href="#linearGradient4222"
       id="linearGradient4228"
       x1="28.40254"
       y1="11.101309"
       x2="28.40254"
       y2="6.7484198"
       gradientUnits="userSpaceOnUse"
       gradientTransform="matrix(1.022934,0,0,1.0229014,-17.054175,-0.01121371)" />
    <linearGradient
       inkscape:collect="always"
       xlink:href="#linearGradient4222"
       id="linearGradient4237"
       x1="21.001781"
       y1="11.751698"
       x2="21.001781"
       y2="8.2147779"
       gradientUnits="userSpaceOnUse"
       gradientTransform="matrix(1.2411769,0,0,1.2489367,-22.21557,-1.9755206)" />
    <radialGradient
       inkscape:collect="always"
       xlink:href="#linearGradient4250"
       id="radialGradient4256"
       cx="26.785749"
       cy="46.116005"
       fx="26.785749"
       fy="46.116005"
       r="11.928606"
       gradientTransform="matrix(1.868261,-0.07185621,0.016685,0.4338099,-41.669323,26.669145)"
       gradientUnits="userSpaceOnUse" />
    <linearGradient
       inkscape:collect="always"
       xlink:href="#linearGradient4125"
       id="linearGradient4272"
       gradientUnits="userSpaceOnUse"
       gradientTransform="matrix(0.02010111,1.1800196,0.5967413,-0.03919501,0.900926,-17.798608)"
       x1="22.732143"
       y1="9.3694906"
       x2="25.732143"
       y2="9.3694906" />
    <linearGradient
       inkscape:collect="always"
       xlink:href="#linearGradient4222"
       id="linearGradient4274"
       gradientUnits="userSpaceOnUse"
       x1="21.001781"
       y1="11.751698"
       x2="21.001781"
       y2="8.2147779"
       gradientTransform="matrix(1.2411769,0,0,1.2489367,-22.21557,-1.9755206)" />
    <linearGradient
       inkscape:collect="always"
       xlink:href="#linearGradient4125"
       id="linearGradient4276"
       gradientUnits="userSpaceOnUse"
       gradientTransform="matrix(0.02010111,1.1800196,0.5967413,-0.03919501,0.900926,-17.798608)"
       x1="22.732143"
       y1="9.3694906"
       x2="25.732143"
       y2="9.3694906" />
    <linearGradient
       inkscape:collect="always"
       xlink:href="#linearGradient4222"
       id="linearGradient4278"
       gradientUnits="userSpaceOnUse"
       x1="21.001781"
       y1="11.751698"
       x2="21.001781"
       y2="8.2147779"
       gradientTransform="matrix(1.2411769,0,0,1.2489367,-22.21557,-1.9755206)" />
    <linearGradient
       inkscape:collect="always"
       xlink:href="#linearGradient4125"
       id="linearGradient31321"
       gradientUnits="userSpaceOnUse"
       gradientTransform="matrix(-0.04285082,1.2261284,-1.2721113,-0.04072654,18.146312,-20.278957)"
       x1="22.732143"
       y1="9.3694906"
       x2="25.732143"
       y2="9.3694906" />
    <linearGradient
       inkscape:collect="always"
       xlink:href="#linearGradient4222"
       id="linearGradient31323"
       gradientUnits="userSpaceOnUse"
       x1="28.40254"
       y1="11.101309"
       x2="28.40254"
       y2="6.7484198"
       gradientTransform="matrix(1.022934,0,0,1.0229014,-17.054175,-0.01121371)" />
    <linearGradient
       inkscape:collect="always"
       xlink:href="#linearGradient17877"
       id="linearGradient17883"
       x1="43.304749"
       y1="45.451256"
       x2="9.7672787"
       y2="16.466084"
       gradientUnits="userSpaceOnUse"
       gradientTransform="matrix(0.75938413,0,0,0.75568285,11.880338,2.1352955)" />
    <linearGradient
       id="linearGradient17877">
      <stop
         style="stop-color:#000000;stop-opacity:1;"
         offset="0"
         id="stop17879" />
      <stop
         style="stop-color:#696969;stop-opacity:1;"
         offset="1"
         id="stop17881" />
    </linearGradient>
    <radialGradient
       inkscape:collect="always"
       xlink:href="#XMLID_60_"
       id="radialGradient16851"
       gradientUnits="userSpaceOnUse"
       cx="23.908701"
       cy="267.66599"
       fx="23.908701"
       fy="267.66599"
       r="19.8088"
       gradientTransform="matrix(-0.85157412,4.2176655e-5,-3.4362345e-5,-0.68705173,50.511834,196.64565)" />
    <radialGradient
       gradientUnits="userSpaceOnUse"
       fy="267.66599"
       fx="23.908701"
       r="19.8088"
       cy="267.66599"
       cx="23.908701"
       id="XMLID_60_">
      <stop
         id="stop15744"
         style="stop-color:#f5f4f4;stop-opacity:0.69072163;"
         offset="0" />
      <stop
         id="stop15750"
         style="stop-color:#ffffff;stop-opacity:0;"
         offset="1" />
      <a:midPointStop
         style="stop-color:#F5F4F4"
         offset="0" />
      <a:midPointStop
         style="stop-color:#F5F4F4"
         offset="0.6741" />
      <a:midPointStop
         style="stop-color:#2B2E33"
         offset="1" />
    </radialGradient>
  </defs>
  <sodipodi:namedview
     id="base"
     pagecolor="#ffffff"
     bordercolor="#666666"
     borderopacity="1.0"
     inkscape:pageopacity="0.0"
     inkscape:pageshadow="2"
     inkscape:zoom="14"
     inkscape:cx="24.892857"
     inkscape:cy="28.964286"
     inkscape:current-layer="layer1"
     showgrid="true"
     inkscape:grid-bbox="false"
     inkscape:document-units="px"
     inkscape:window-width="2560"
     inkscape:window-height="1377"
     inkscape:window-x="-8"
     inkscape:window-y="-8"
     inkscape:pagecheckerboard="0"
     inkscape:window-maximized="1" />
  <metadata
     id="metadata4021">
    <rdf:RDF>
      <cc:Work
         rdf:about="">
        <dc:format>image/svg+xml</dc:format>
        <dc:type
           rdf:resource="http://purl.org/dc/dcmitype/StillImage" />
      </cc:Work>
    </rdf:RDF>
  </metadata>
  <g
     id="layer1"
     inkscape:label="Layer 1"
     inkscape:groupmode="layer">
    <path
       style="color:#000000;display:inline;overflow:visible;visibility:visible;fill:url(#radialGradient4256);fill-opacity:1;fill-rule:evenodd;stroke:none;stroke-width:0.5;stroke-linecap:butt;stroke-linejoin:miter;stroke-miterlimit:4;stroke-dashoffset:0;stroke-opacity:1;marker:none;marker-start:none;marker-mid:none;marker-end:none;enable-background:accumulate"
       d="m 6.428571,39.571427 21.928573,0.785714 c 2.644205,2.880953 2.497793,4.119048 0,7 L 6.428571,48.214284 Z"
       id="rect4239"
       sodipodi:nodetypes="ccccc" />
    <path
       style="fill:url(#linearGradient4093);fill-opacity:1;fill-rule:evenodd;stroke:#222e3f;stroke-width:1;stroke-linecap:butt;stroke-linejoin:miter;stroke-miterlimit:4;stroke-dasharray:none;stroke-opacity:1"
       d="m 0.718636,22.593542 c 3.355364,1.630523 9.872817,1.838315 13.77815,0 l -0.602323,23.260165 c -2.394114,2.248155 -9.527268,2.30145 -12.874664,0 z"
       id="path4085"
       sodipodi:nodetypes="ccccc" />
    <path
       style="fill:url(#radialGradient4139);fill-opacity:1;fill-rule:evenodd;stroke:#264d00;stroke-width:1;stroke-linecap:butt;stroke-linejoin:miter;stroke-miterlimit:4;stroke-dasharray:none;stroke-opacity:1"
       d="m 0.690959,22.624325 c -0.077069,-2.078473 0.05458,-5.705192 3.651715,-7.335284 0.670092,-0.303662 0.667389,-1.827832 0.667389,-1.827832 0.00501,-0.177465 0.200726,-0.303738 0.419771,-0.392794 1.03152,-0.419381 2.754173,-0.533001 4.397561,0.04763 0.146272,0.05168 0.222335,0.200249 0.257757,0.332417 0,0 -0.02928,1.382555 0.861949,1.919404 1.674795,1.008842 3.907721,2.194988 3.627971,7.225679 -3.899186,1.716694 -9.92957,1.622286 -13.884113,0.03078 z"
       id="path4103"
       sodipodi:nodetypes="cscsscscc" />
    <ellipse
       style="color:#000000;display:inline;overflow:visible;visibility:visible;opacity:1;fill:#eeeeec;fill-opacity:1;fill-rule:evenodd;stroke:none;stroke-width:0.1;stroke-linecap:butt;stroke-linejoin:miter;stroke-miterlimit:4;stroke-dasharray:none;stroke-dashoffset:0;stroke-opacity:1;marker:none;marker-start:none;marker-mid:none;marker-end:none;enable-background:accumulate"
       id="path4105"
       cx="7.7909822"
       cy="21.062664"
       rx="0.34482053"
       ry="0.30214903" />
    <path
       style="fill:#eeeeec;fill-rule:evenodd;stroke:none;stroke-width:1px;stroke-linecap:butt;stroke-linejoin:miter;stroke-opacity:1"
       d="m 6.615827,18.752821 0.166067,0.825371 c 0.728852,-0.282774 1.457703,-0.177238 2.186556,0.02628 L 9.07916,18.73743 C 8.323289,18.559102 7.518913,18.445583 6.615827,18.752821 Z"
       id="path4107"
       sodipodi:nodetypes="ccccc" />
    <path
       style="color:#000000;display:inline;overflow:visible;visibility:visible;opacity:1;fill:#eeeeec;fill-opacity:1;fill-rule:evenodd;stroke:none;stroke-width:1px;stroke-linecap:butt;stroke-linejoin:miter;stroke-miterlimit:4;stroke-dasharray:none;stroke-dashoffset:0;stroke-opacity:1;marker:none;marker-start:none;marker-mid:none;marker-end:none;enable-background:accumulate"
       d="M 6.145303,17.739024 5.649068,16.400926 c 1.406305,-0.384493 2.950166,-0.460237 4.209009,-0.07431 L 9.457154,17.61403 C 8.21134,17.361275 7.022287,17.361565 6.145303,17.739024 Z"
       id="path4109"
       sodipodi:nodetypes="ccccc" />
    <path
       style="color:#000000;display:inline;overflow:visible;visibility:visible;opacity:1;fill:#eeeeec;fill-opacity:1;fill-rule:evenodd;stroke:none;stroke-width:1px;stroke-linecap:butt;stroke-linejoin:miter;stroke-miterlimit:4;stroke-dasharray:none;stroke-dashoffset:0;stroke-opacity:1;marker:none;marker-start:none;marker-mid:none;marker-end:none;enable-background:accumulate"
       d="M 2.962344,23.230255 C 2.996719,18.130892 4.161479,18.88573 5.010508,16.635523 4.572689,18.792791 3.744196,18.883877 3.765003,23.466721 Z"
       id="path4111"
       sodipodi:nodetypes="cccc" />
    <path
       id="path4211"
       style="fill:none;fill-opacity:1;fill-rule:evenodd;stroke:#eeeeec;stroke-width:1;stroke-linecap:butt;stroke-linejoin:miter;stroke-miterlimit:4;stroke-dasharray:none;stroke-opacity:0.376471"
       d="M 13.701688,22.918296 C 13.946881,18.105069 11.884476,17.134354 10.265043,16.143869 9.467508,15.656077 9.257032,14.282182 9.257032,14.282182 9.251239,13.903189 8.86366,13.885392 8.728069,13.86312 7.669307,13.689212 6.917622,13.697462 6.414215,13.893312 c -0.195753,0.07616 -0.540307,0.206021 -0.569948,0.704114 0,0 -0.129034,1.200066 -0.73647,1.445774 -3.481086,1.408105 -3.621726,4.95381 -3.528701,6.889822 L 1.868533,45.13509 c 2.933897,2.201964 9.185903,2.150972 11.284277,0 z"
       sodipodi:nodetypes="cscsscscccc" />
    <path
       style="color:#000000;display:inline;overflow:visible;visibility:visible;opacity:1;fill:url(#linearGradient4185);fill-opacity:1;fill-rule:evenodd;stroke:url(#linearGradient4237);stroke-width:0.5;stroke-linecap:butt;stroke-linejoin:miter;stroke-miterlimit:4;stroke-dasharray:none;stroke-dashoffset:0;stroke-opacity:1;marker:none;marker-start:none;marker-mid:none;marker-end:none;enable-background:accumulate"
       d="M 4.584654,8.8148512 5.898142,8.84433 c 0.454206,0.699474 0.568459,2.480757 0.145187,3.101141 l -1.346157,0.07866 z"
       id="path4179"
       sodipodi:nodetypes="ccccc" />
    <path
       style="fill:url(#linearGradient4131);fill-opacity:1;fill-rule:evenodd;stroke:#000000;stroke-width:0.5;stroke-linecap:butt;stroke-linejoin:miter;stroke-miterlimit:4;stroke-dasharray:none;stroke-opacity:1"
       d="M 5.217815,4.5137839 C 5.707426,3.9786674 9.380633,3.9891328 10.00973,4.5536371 L 9.925663,6.068063 C 9.42376,6.5381244 8.931884,7.5134819 8.916838,8.020875 L 8.7487,10.013541 9.379217,10.730901 9.253112,13.082247 C 8.121261,13.653568 6.672314,13.604798 5.806295,13.042392 L 5.722227,10.571488 6.226638,9.8939803 6.14257,8.0607284 C 6.139685,7.3037798 5.583476,6.3697569 5.175779,5.9086496 Z"
       id="path4123"
       sodipodi:nodetypes="ccccccccccccc" />
    <path
       style="color:#000000;display:inline;overflow:visible;visibility:visible;opacity:1;fill:url(#linearGradient4276);fill-opacity:1;fill-rule:evenodd;stroke:url(#linearGradient4278);stroke-width:0.5;stroke-linecap:butt;stroke-linejoin:miter;stroke-miterlimit:4;stroke-dasharray:none;stroke-dashoffset:0;stroke-opacity:1;marker:none;marker-start:none;marker-mid:none;marker-end:none;enable-background:accumulate"
       d="m 1.644308,9.13171 1.44055,0.023892 c 0.265544,0.5825365 0.33172,2.0665451 0.083772,2.5836311 l -1.459712,0.06622 C 1.241082,10.974762 1.167337,10.092042 1.644308,9.13171 Z"
       id="path4187"
       sodipodi:nodetypes="ccccc" />
    <path
       style="color:#000000;display:inline;overflow:visible;visibility:visible;opacity:1;fill:url(#linearGradient4272);fill-opacity:1;fill-rule:evenodd;stroke:url(#linearGradient4274);stroke-width:0.5;stroke-linecap:butt;stroke-linejoin:miter;stroke-miterlimit:4;stroke-dasharray:none;stroke-dashoffset:0;stroke-opacity:1;marker:none;marker-start:none;marker-mid:none;marker-end:none;enable-background:accumulate"
       d="m 3.046975,8.5964509 1.440551,0.033894 c 0.265542,0.826372 0.331721,2.9315588 0.083772,3.6650898 l -1.459711,0.09394 C 2.961118,11.125065 2.932054,9.8607573 3.046975,8.5964509 Z"
       id="path4181"
       sodipodi:nodetypes="ccccc" />
    <path
       style="color:#000000;display:inline;overflow:visible;visibility:visible;opacity:1;fill:url(#linearGradient4191);fill-opacity:1;fill-rule:evenodd;stroke:#000000;stroke-width:0.5;stroke-linecap:butt;stroke-linejoin:miter;stroke-miterlimit:4;stroke-dasharray:none;stroke-dashoffset:0;stroke-opacity:1;marker:none;marker-start:none;marker-mid:none;marker-end:none;enable-background:accumulate"
       d="M 5.66919,2.8067336 5.75326,4.2414528 C 6.593945,4.7111637 8.695665,4.767789 9.410248,4.2813061 L 9.452284,2.8067336 Z"
       id="path4141"
       sodipodi:nodetypes="ccccc" />
    <path
       style="fill:url(#linearGradient4151);fill-opacity:1;fill-rule:evenodd;stroke:none;stroke-width:0.5;stroke-linecap:butt;stroke-linejoin:miter;stroke-miterlimit:4;stroke-dasharray:none;stroke-opacity:1"
       d="m 5.332916,6.0282092 c 1.016211,0.6683423 3.335521,0.6589542 4.749883,0.039853 L 9.284147,6.9448353 8.989908,8.1005812 6.173606,8.060728 5.963432,6.9448353 Z"
       id="path4143"
       sodipodi:nodetypes="ccccccc" />
    <path
       style="fill:url(#linearGradient4155);fill-opacity:1;fill-rule:evenodd;stroke:none;stroke-width:0.5;stroke-linecap:butt;stroke-linejoin:miter;stroke-miterlimit:4;stroke-dasharray:none;stroke-opacity:1"
       d="m 6.057729,10.717541 c 0.657058,0.491598 2.166941,0.558664 3.132122,-0.0272 L 8.64484,10.092023 8.444047,9.3033276 6.522165,9.330524 6.63368,9.9193723 Z"
       id="path4153"
       sodipodi:nodetypes="ccccccc" />
    <path
       style="fill:#000000;fill-opacity:1;fill-rule:evenodd;stroke:#000000;stroke-width:0.25;stroke-linecap:butt;stroke-linejoin:miter;stroke-miterlimit:4;stroke-dasharray:none;stroke-opacity:1"
       d="m 3.315267,2.7668802 c 0.997038,0.4804373 1.834834,-0.1069926 2.350488,0.3910068 0.564125,0.5448137 3.108431,0.6432806 3.829136,0.060517 0.476035,-0.3849242 1.354807,0.00993 2.521486,-0.3718169 0,0 0.105087,-1.1955995 -0.546445,-1.6339857 C 10.818399,0.77421456 9.24211,1.451721 9.24211,1.451721 8.583846,1.0227936 6.874391,0.93853259 6.0475,1.3720143 c 0,0 -1.376623,-0.54798301 -2.143753,-0.1594131 -0.767128,0.3885696 -0.58848,1.554279 -0.58848,1.554279 z"
       id="path4163"
       sodipodi:nodetypes="csscsccsc" />
    <path
       style="color:#000000;display:inline;overflow:visible;visibility:visible;opacity:1;fill:url(#linearGradient4167);fill-opacity:1;fill-rule:evenodd;stroke:#000000;stroke-width:0.25;stroke-linecap:butt;stroke-linejoin:miter;stroke-miterlimit:4;stroke-dasharray:none;stroke-dashoffset:0;stroke-opacity:1;marker:none;marker-start:none;marker-mid:none;marker-end:none;enable-background:accumulate"
       d="M 6.509877,0.47141533 6.556583,1.2235173 C 7.02363,1.4697467 8.191252,1.4994307 8.588244,1.2444087 L 8.611595,0.47141533 c -0.490402,-0.47558019 -1.653351,-0.44828279 -2.101718,0 z"
       id="path4165"
       sodipodi:nodetypes="ccccc" />
    <path
       style="fill:#babdb6;fill-rule:evenodd;stroke:none;stroke-width:1px;stroke-linecap:butt;stroke-linejoin:miter;stroke-opacity:1"
       d="m 3.441372,2.0893739 c 0,0 0.556954,-0.7671763 1.218996,-0.7173597 0.66204,0.049817 1.387134,0.4383864 1.387134,0.4383864 0,0 0.74611,-0.2590466 1.513236,-0.3188265 0.767126,-0.05978 1.471203,0.3586797 1.471203,0.3586797 0,0 0.998318,-0.4782396 1.723409,-0.4383863 0.725095,0.039853 1.05086,0.7173595 1.05086,0.7173595 0,0 -0.577972,-0.3586797 -1.387134,-0.159413 -0.809161,0.1992664 -1.345101,0.7572126 -1.345101,0.7572126 0,0 -0.597871,-0.5180931 -1.387132,-0.518093 -0.914249,0 -1.765445,0.518093 -1.765445,0.518093 0,0 -0.830176,-0.7273226 -1.429168,-0.7572126 C 3.868033,1.9386659 3.441372,2.0893739 3.441372,2.0893739 Z"
       id="path4169"
       sodipodi:nodetypes="cscscscscscsc" />
    <path
       style="color:#000000;display:inline;overflow:visible;visibility:visible;opacity:1;fill:url(#linearGradient4177);fill-opacity:1;fill-rule:evenodd;stroke:url(#linearGradient4228);stroke-width:0.5;stroke-linecap:butt;stroke-linejoin:miter;stroke-miterlimit:4;stroke-dasharray:none;stroke-dashoffset:0;stroke-opacity:1;marker:none;marker-start:none;marker-mid:none;marker-end:none;enable-background:accumulate"
       d="M 10.457421,7.3744138 9.091263,7.4050443 C 8.618842,8.1318508 8.500005,9.9827343 8.940254,10.62736 l 1.400133,0.08173 z"
       id="path4171"
       sodipodi:nodetypes="ccccc" />
    <path
       style="color:#000000;display:inline;overflow:visible;visibility:visible;opacity:1;fill:url(#linearGradient31321);fill-opacity:1;fill-rule:evenodd;stroke:url(#linearGradient31323);stroke-width:0.5;stroke-linecap:butt;stroke-linejoin:miter;stroke-miterlimit:4;stroke-dasharray:none;stroke-dashoffset:0;stroke-opacity:1;marker:none;marker-start:none;marker-mid:none;marker-end:none;enable-background:accumulate"
       d="m 13.571442,7.1474796 -3.070918,0.035219 C 9.934449,8.0413603 9.793377,10.228806 10.321948,10.990999 l 3.111758,0.09761 c 0.758887,-1.3137059 0.72314,-2.6274162 0.137736,-3.9411254 z"
       id="path4175"
       sodipodi:nodetypes="ccccc" />
    <path
       style="fill:#000000;fill-opacity:1;stroke:url(#linearGradient17883);stroke-width:2;stroke-miterlimit:4;stroke-dasharray:none;stroke-opacity:1"
       id="path15708"
       d="m 30.143709,36.819174 h 14.435885 c 0.293793,0 0.545007,-0.161013 0.673595,-0.404222 1.149625,-2.269399 1.796821,-4.83625 1.796821,-7.553088 0,-9.291151 -7.571345,-16.823896 -16.907152,-16.823896 -9.33751,0 -16.907153,7.532745 -16.907153,16.823896 0,2.716838 0.647196,5.283689 1.79597,7.553088 0.127736,0.242362 0.380653,0.404222 0.673595,0.404222 z" />
    <path
       style="opacity:0.6;stroke-width:1"
       id="path15710"
       d="m 30.142858,36.111575 h 13.61156 c 0.277614,0 0.514351,-0.151688 0.635274,-0.379647 1.084055,-2.140593 1.694633,-4.559987 1.694633,-7.122591 0,-8.760669 -7.138745,-15.862924 -15.942319,-15.862924 -8.803573,0 -15.941467,7.102255 -15.941467,15.862924 0,2.562604 0.608875,4.981998 1.692929,7.122591 0.121775,0.228805 0.359364,0.379647 0.635274,0.379647 z" />
    <line
       x1="44.686893"
       y1="32.718468"
       x2="42.398712"
       y2="32.110001"
       id="line15725"
       style="fill:none;stroke:#cfeb87;stroke-width:1" />
    <line
       x1="44.68008"
       y1="24.966228"
       x2="42.466839"
       y2="25.555195"
       id="line15727"
       style="fill:none;stroke:#cfeb87;stroke-width:1" />
    <line
       x1="40.778164"
       y1="18.258038"
       x2="39.207016"
       y2="19.822363"
       id="line15729"
       style="fill:none;stroke:#cfeb87;stroke-width:1" />
    <line
       x1="34.0354"
       y1="14.384451"
       x2="33.469955"
       y2="16.483511"
       id="line15731"
       style="fill:none;stroke:#cfeb87;stroke-width:1" />
    <line
       x1="26.250313"
       y1="14.385304"
       x2="26.815758"
       y2="16.483511"
       id="line15733"
       style="fill:none;stroke:#cfeb87;stroke-width:1" />
    <line
       x1="19.509251"
       y1="18.258863"
       x2="21.081257"
       y2="19.824068"
       id="line15735"
       style="fill:none;stroke:#cfeb87;stroke-width:1" />
    <line
       x1="15.60734"
       y1="24.966228"
       x2="17.818876"
       y2="25.555195"
       id="line15737"
       style="fill:none;stroke:#cfeb87;stroke-width:1" />
    <line
       x1="15.600525"
       y1="32.718468"
       x2="17.887854"
       y2="32.110001"
       id="line15739"
       style="fill:none;stroke:#cfeb87;stroke-width:1" />
    <path
       style="fill:url(#radialGradient16851);stroke-width:1"
       id="path15758"
       d="m 41.413441,19.551224 c 0,3.758321 -5.046429,6.804811 -11.269732,6.804811 -6.225006,0 -11.270583,-3.047337 -11.270583,-6.804811 0,-3.757474 5.968682,-6.804811 11.270583,-6.804811 5.385355,0 11.269732,3.047337 11.269732,6.804811 z"
    />
    <polygon
       points="34.407,189.516 24.157,205.152 23.218,204.495 "
       id="polygon15687"
       style="fill:#ffffff;stroke:#f7cc80;stroke-width:1.32008"
       transform="matrix(0.87544156,0,0,0.87117462,9.59671,-142.69903)" />
  </g>
</svg>
