<?xml version="1.0" encoding="UTF-8" standalone="no"?>
<svg
   viewBox="0 0 48 48"
   version="1.1"
   id="svg15252"
   sodipodi:docname="netfetchdata.svg"
   inkscape:version="1.1 (c68e22c387, 2021-05-23)"
   xmlns:inkscape="http://www.inkscape.org/namespaces/inkscape"
   xmlns:sodipodi="http://sodipodi.sourceforge.net/DTD/sodipodi-0.dtd"
   xmlns:xlink="http://www.w3.org/1999/xlink"
   xmlns="http://www.w3.org/2000/svg"
   xmlns:svg="http://www.w3.org/2000/svg">
  <sodipodi:namedview
     id="namedview15254"
     pagecolor="#ffffff"
     bordercolor="#666666"
     borderopacity="1.0"
     inkscape:pageshadow="2"
     inkscape:pageopacity="0.0"
     inkscape:pagecheckerboard="0"
     showgrid="false"
     inkscape:zoom="15.6875"
     inkscape:cx="24"
     inkscape:cy="21.450199"
     inkscape:window-width="2880"
     inkscape:window-height="1557"
     inkscape:window-x="-8"
     inkscape:window-y="-8"
     inkscape:window-maximized="1"
     inkscape:current-layer="svg15252"
     inkscape:snap-global="false" />
  <defs
     id="defs15148">
    <style
       id="style15060">.cls-1{fill:url(#radial-gradient);}.cls-2{fill:#193774;}.cls-3{fill:url(#linear-gradient);}.cls-4,.cls-7,.cls-9{fill:none;stroke-miterlimit:10;}.cls-4{stroke:#285092;}.cls-4,.cls-7{stroke-width:0.75px;}.cls-5{fill:#900004;}.cls-6{fill:url(#linear-gradient-2);}.cls-7{stroke:#e70e20;}.cls-8{fill:url(#linear-gradient-3);}.cls-9{stroke:#2e3436;stroke-width:1.4px;}.cls-10{fill:url(#linear-gradient-4);}.cls-11{fill:url(#linear-gradient-5);}.cls-12{fill:url(#linear-gradient-6);}.cls-13{fill:url(#linear-gradient-7);}.cls-14{fill:url(#linear-gradient-8);}.cls-15{fill:url(#linear-gradient-9);}.cls-16{fill:url(#linear-gradient-10);}.cls-17{fill:url(#linear-gradient-11);}.cls-18{fill:url(#linear-gradient-12);}.cls-19{opacity:0.7;}.cls-20{fill:url(#linear-gradient-13);}.cls-21{fill:url(#linear-gradient-14);}.cls-22{fill:url(#linear-gradient-15);}.cls-23{fill:url(#linear-gradient-16);}.cls-24{fill:url(#linear-gradient-17);}.cls-25{fill:url(#linear-gradient-18);}.cls-26{fill:url(#linear-gradient-19);}.cls-27{fill:url(#linear-gradient-20);}.cls-28{fill:url(#linear-gradient-21);}.cls-29{fill:url(#linear-gradient-22);}.cls-30{fill:url(#linear-gradient-23);}.cls-31{fill:url(#linear-gradient-24);}.cls-32{fill:url(#linear-gradient-25);}.cls-33{fill:url(#linear-gradient-26);}.cls-34{fill:url(#linear-gradient-27);}.cls-35{fill:url(#linear-gradient-28);}.cls-36{fill:url(#linear-gradient-29);}.cls-37{fill:url(#linear-gradient-30);}.cls-38{fill:url(#linear-gradient-31);}.cls-39{fill:url(#linear-gradient-32);}.cls-40{fill:url(#linear-gradient-33);}.cls-41{fill:url(#linear-gradient-34);}.cls-42{fill:url(#linear-gradient-35);}.cls-43{fill:url(#linear-gradient-36);}.cls-44{fill:url(#linear-gradient-37);}.cls-45{fill:url(#linear-gradient-38);}.cls-46{fill:url(#linear-gradient-39);}</style>
    <radialGradient
       id="radial-gradient"
       cx="42.67"
       cy="13.65"
       r="21.39"
       gradientTransform="matrix(1.11,0,0,0.55,-23.42,24.4)"
       gradientUnits="userSpaceOnUse">
      <stop
         offset="0.03"
         stop-color="#212121"
         stop-opacity="0.5"
         id="stop15062" />
      <stop
         offset="0.68"
         stop-color="#212121"
         stop-opacity="0.1"
         id="stop15064" />
      <stop
         offset="0.93"
         stop-color="#212121"
         stop-opacity="0"
         id="stop15066" />
    </radialGradient>
    <linearGradient
       id="linear-gradient"
       x1="30.79"
       y1="12.83"
       x2="49.25"
       y2="12.75"
       gradientUnits="userSpaceOnUse">
      <stop
         offset="0"
         stop-color="#00255d"
         stop-opacity="0"
         id="stop15069" />
      <stop
         offset="1"
         stop-color="#00255d"
         id="stop15071" />
    </linearGradient>
    <linearGradient
       id="linear-gradient-2"
       x1="1.56"
       y1="20.56"
       x2="13.85"
       y2="20.56"
       gradientUnits="userSpaceOnUse">
      <stop
         offset="0"
         stop-color="#3c0002"
         stop-opacity="0"
         id="stop15074" />
      <stop
         offset="1"
         stop-color="#3c0002"
         id="stop15076" />
    </linearGradient>
    <linearGradient
       id="linear-gradient-3"
       x1="44.26"
       y1="24.99"
       x2="47.73"
       y2="24.64"
       gradientUnits="userSpaceOnUse">
      <stop
         offset="0"
         stop-color="#285092"
         id="stop15079" />
      <stop
         offset="1"
         stop-color="#608bc3"
         id="stop15081" />
    </linearGradient>
    <linearGradient
       id="linear-gradient-4"
       x1="20.22"
       y1="8.36"
       x2="20.22"
       y2="8.35"
       gradientUnits="userSpaceOnUse">
      <stop
         offset="0"
         stop-color="#4e9a06"
         id="stop15084" />
      <stop
         offset="1"
         stop-color="#8ae234"
         id="stop15086" />
    </linearGradient>
    <linearGradient
       id="linear-gradient-5"
       x1="12.63"
       y1="11.83"
       x2="15.44"
       y2="27.51"
       gradientUnits="userSpaceOnUse">
      <stop
         offset="0"
         stop-color="#888a85"
         id="stop15089" />
      <stop
         offset="1"
         stop-color="#d3d7cf"
         id="stop15091" />
    </linearGradient>
    <linearGradient
       id="linear-gradient-6"
       x1="35.65"
       y1="31.13"
       x2="16.3"
       y2="24.85"
       xlink:href="#linear-gradient-5" />
    <linearGradient
       id="linear-gradient-7"
       x1="31.23"
       y1="32.63"
       x2="14.41"
       y2="22.29"
       gradientUnits="userSpaceOnUse">
      <stop
         offset="0"
         stop-color="#fff"
         stop-opacity="0"
         id="stop15095" />
      <stop
         offset="1"
         stop-color="#fff8f8"
         id="stop15097" />
    </linearGradient>
    <linearGradient
       id="linear-gradient-8"
       x1="2.41"
       y1="8.55"
       x2="18.05"
       y2="20.65"
       xlink:href="#linear-gradient-5" />
    <linearGradient
       id="linear-gradient-9"
       x1="13.85"
       y1="23.71"
       x2="14.3"
       y2="9.83"
       gradientUnits="userSpaceOnUse"
       gradientTransform="translate(0,-26.007968)">
      <stop
         offset="0"
         stop-color="#2e3436"
         id="stop15101" />
      <stop
         offset="1"
         stop-color="#555753"
         id="stop15103" />
    </linearGradient>
    <linearGradient
       id="linear-gradient-10"
       x1="30.64"
       y1="19.28"
       x2="18.51"
       y2="35.21"
       gradientUnits="userSpaceOnUse">
      <stop
         offset="0"
         stop-color="#555753"
         id="stop15106" />
      <stop
         offset="1"
         stop-color="#babdb6"
         id="stop15108" />
    </linearGradient>
    <linearGradient
       id="linear-gradient-11"
       x1="104.68"
       y1="35.04"
       x2="104.59"
       y2="27.77"
       gradientTransform="matrix(-1,0,0,1,116.9,0)"
       xlink:href="#linear-gradient-10" />
    <linearGradient
       id="linear-gradient-12"
       x1="16.06"
       y1="4.67"
       x2="12.35"
       y2="16.28"
       xlink:href="#linear-gradient-5" />
    <linearGradient
       id="linear-gradient-13"
       x1="110.78"
       y1="-41.74"
       x2="110.72"
       y2="-46.79"
       gradientTransform="matrix(0.9,-0.43,0.82,0.31,-40.49,89.19)"
       xlink:href="#linear-gradient-7" />
    <linearGradient
       id="linear-gradient-14"
       x1="111.56"
       y1="-51.99"
       x2="111.53"
       y2="-54.37"
       gradientTransform="matrix(0.9,-0.43,0.82,0.31,-40.49,89.19)"
       xlink:href="#linear-gradient-10" />
    <linearGradient
       id="linear-gradient-15"
       x1="111.41"
       y1="-50.45"
       x2="111.38"
       y2="-52.83"
       gradientTransform="matrix(0.9,-0.43,0.82,0.31,-40.49,89.19)"
       xlink:href="#linear-gradient-10" />
    <linearGradient
       id="linear-gradient-16"
       x1="111.25"
       y1="-48.92"
       x2="111.23"
       y2="-51.3"
       gradientTransform="matrix(0.9,-0.43,0.82,0.31,-40.49,89.19)"
       xlink:href="#linear-gradient-10" />
    <linearGradient
       id="linear-gradient-17"
       x1="111.1"
       y1="-47.38"
       x2="111.07"
       y2="-49.76"
       gradientTransform="matrix(0.9,-0.43,0.82,0.31,-40.49,89.19)"
       xlink:href="#linear-gradient-10" />
    <linearGradient
       id="linear-gradient-18"
       x1="13.87"
       y1="20.66"
       x2="14.64"
       y2="7.38"
       gradientUnits="userSpaceOnUse">
      <stop
         offset="0.01"
         stop-color="#888a85"
         stop-opacity="0"
         id="stop15118" />
      <stop
         offset="1"
         stop-color="#888a85"
         id="stop15120" />
    </linearGradient>
    <linearGradient
       id="linear-gradient-19"
       x1="88.14"
       y1="25.42"
       x2="87.95"
       y2="9.89"
       gradientTransform="matrix(-1,0,0,1,120.93,19.54)"
       xlink:href="#linear-gradient-4" />
    <linearGradient
       id="linear-gradient-20"
       x1="14.29"
       y1="37.99"
       x2="31.07"
       y2="33.02"
       xlink:href="#linear-gradient-5" />
    <linearGradient
       id="linear-gradient-21"
       x1="33.4"
       y1="37.34"
       x2="32.13"
       y2="23.65"
       xlink:href="#linear-gradient-7" />
    <linearGradient
       id="linear-gradient-22"
       x1="132.97"
       y1="-60.92"
       x2="132.91"
       y2="-65.97"
       gradientTransform="matrix(0.9,-0.43,0.82,0.31,-36.45,108.73)"
       xlink:href="#linear-gradient-7" />
    <linearGradient
       id="linear-gradient-23"
       x1="132.6"
       y1="-59.53"
       x2="132.57"
       y2="-61.91"
       gradientTransform="matrix(0.9,-0.43,0.82,0.31,-36.45,108.73)"
       xlink:href="#linear-gradient-10" />
    <linearGradient
       id="linear-gradient-24"
       x1="132.45"
       y1="-57.99"
       x2="132.42"
       y2="-60.37"
       gradientTransform="matrix(0.9,-0.43,0.82,0.31,-36.45,108.73)"
       xlink:href="#linear-gradient-10" />
    <linearGradient
       id="linear-gradient-25"
       x1="132.3"
       y1="-56.46"
       x2="132.27"
       y2="-58.84"
       gradientTransform="matrix(0.9,-0.43,0.82,0.31,-36.45,108.73)"
       xlink:href="#linear-gradient-10" />
    <linearGradient
       id="linear-gradient-26"
       x1="132.16"
       y1="-54.94"
       x2="132.13"
       y2="-57.32"
       gradientTransform="matrix(0.9,-0.43,0.82,0.31,-36.45,108.73)"
       xlink:href="#linear-gradient-10" />
    <linearGradient
       id="linear-gradient-27"
       x1="79.36"
       y1="49.47"
       x2="79.05"
       y2="24.01"
       gradientTransform="matrix(-1,0,0,1,116.9,0)"
       xlink:href="#linear-gradient-4" />
    <linearGradient
       id="linear-gradient-28"
       x1="79.21"
       y1="43.19"
       x2="79.08"
       y2="33.15"
       gradientTransform="matrix(-1,0,0,1,116.9,0)"
       xlink:href="#linear-gradient-10" />
    <linearGradient
       id="linear-gradient-29"
       x1="79.21"
       y1="43.19"
       x2="79.08"
       y2="33.15"
       gradientTransform="matrix(-1,0,0,1,116.9,0)"
       xlink:href="#linear-gradient-18" />
    <linearGradient
       id="linear-gradient-30"
       x1="23.5"
       y1="27.17"
       x2="27.94"
       y2="40.93"
       xlink:href="#linear-gradient-10" />
    <linearGradient
       id="linear-gradient-31"
       x1="38.59"
       y1="25.97"
       x2="34.31"
       y2="42.91"
       xlink:href="#linear-gradient-5" />
    <linearGradient
       id="linear-gradient-32"
       x1="37.2"
       y1="15.89"
       x2="38.46"
       y2="27.46"
       xlink:href="#linear-gradient-5" />
    <linearGradient
       id="linear-gradient-33"
       x1="78.93"
       y1="49.67"
       x2="78.62"
       y2="24.21"
       gradientTransform="matrix(-1,0,0,1,116.9,0)"
       xlink:href="#linear-gradient-5" />
    <linearGradient
       id="linear-gradient-34"
       x1="1.56"
       y1="32.95"
       x2="25.21"
       y2="32.95"
       gradientUnits="userSpaceOnUse">
      <stop
         offset="0"
         stop-color="#e70e20"
         id="stop15138" />
      <stop
         offset="1"
         stop-color="#f8babb"
         id="stop15140" />
    </linearGradient>
    <linearGradient
       id="linear-gradient-35"
       x1="23.53"
       y1="3.74"
       x2="15.17"
       y2="18.56"
       gradientTransform="rotate(62.65,21.3661,13.00538)"
       xlink:href="#linear-gradient-4" />
    <linearGradient
       id="linear-gradient-36"
       x1="22.23"
       y1="3"
       x2="13.86"
       y2="17.82"
       gradientTransform="rotate(62.65,21.365597,12.997217)"
       xlink:href="#linear-gradient-4" />
    <linearGradient
       id="linear-gradient-37"
       x1="20.93"
       y1="2.27"
       x2="12.56"
       y2="17.08"
       gradientTransform="rotate(62.65,21.365092,13.005486)"
       xlink:href="#linear-gradient-4" />
    <linearGradient
       id="linear-gradient-38"
       x1="38.21"
       y1="40.82"
       x2="38.17"
       y2="37.27"
       gradientTransform="matrix(0.89,0.67,-0.89,0.46,-8.5293187,4.4058666)"
       xlink:href="#linear-gradient-7" />
    <linearGradient
       id="linear-gradient-39"
       x1="40.82"
       y1="31.35"
       x2="33.08"
       y2="24.91"
       xlink:href="#linear-gradient-7" />
    <linearGradient
       inkscape:collect="always"
       xlink:href="#linear-gradient-4"
       id="linearGradient15313"
       gradientUnits="userSpaceOnUse"
       x1="20.22"
       y1="8.36"
       x2="20.22"
       y2="8.35" />
    <linearGradient
       inkscape:collect="always"
       xlink:href="#linear-gradient-5"
       id="linearGradient15315"
       gradientUnits="userSpaceOnUse"
       x1="12.63"
       y1="11.83"
       x2="15.44"
       y2="27.51" />
    <linearGradient
       inkscape:collect="always"
       xlink:href="#linear-gradient-7"
       id="linearGradient15317"
       gradientUnits="userSpaceOnUse"
       x1="31.23"
       y1="32.63"
       x2="14.41"
       y2="22.29" />
    <linearGradient
       inkscape:collect="always"
       xlink:href="#linear-gradient-10"
       id="linearGradient15319"
       gradientUnits="userSpaceOnUse"
       x1="30.64"
       y1="19.28"
       x2="18.51"
       y2="35.21" />
    <linearGradient
       inkscape:collect="always"
       xlink:href="#linear-gradient-18"
       id="linearGradient15321"
       gradientUnits="userSpaceOnUse"
       x1="13.87"
       y1="20.66"
       x2="14.64"
       y2="7.38" />
  </defs>
  <g
     id="shadow"
     transform="matrix(1.0474252,0,0,1,-1.3294393,4.7808765)"
     style="stroke-width:0.977099">
    <ellipse
       class="cls-1"
       cx="24"
       cy="31.84"
       rx="22.85"
       ry="11.26"
       id="ellipse15150"
       style="fill:url(#radial-gradient);stroke-width:0.977099" />
  </g>
  <g
     id="g15427"
     transform="translate(0,8.7330677)">
    <path
       class="cls-2"
       d="M 47.28,15.92 C 47.05,11.48 40.91,8.71 31.92,9.02 a 27,27 0 0 0 0.64,-2.68 c 0,0 -3.2,3.08 -7.35,6.48 0,0 4.66,1.55 7.2,4.12 a 9.84,9.84 0 0 0 -0.2,-2.3 c 7.11,-0.18 12.37,1.61 14.25,4.61 a 6.42,6.42 0 0 0 0.83,-3.05 c 0,-0.2 -0.01,-0.28 -0.01,-0.28 z"
       id="path15153" />
    <path
       class="cls-3"
       d="M 47.28,15.92 C 47.05,11.48 40.91,8.71 31.92,9.02 a 27,27 0 0 0 0.64,-2.68 c 0,0 -3.2,3.08 -7.35,6.48 0,0 4.66,1.55 7.2,4.12 a 9.84,9.84 0 0 0 -0.2,-2.3 c 7.11,-0.18 12.37,1.61 14.25,4.61 a 6.42,6.42 0 0 0 0.83,-3.05 c 0,-0.2 -0.01,-0.28 -0.01,-0.28 z"
       id="path15155"
       style="fill:url(#linear-gradient)" />
    <path
       class="cls-4"
       d="M 47.28,15.92 C 47.05,11.48 40.91,8.71 31.92,9.02 a 27,27 0 0 0 0.64,-2.68 c 0,0 -3.2,3.08 -7.35,6.48 0,0 4.66,1.55 7.2,4.12 a 9.84,9.84 0 0 0 -0.2,-2.3 c 7.11,-0.18 12.37,1.61 14.25,4.61 a 6.42,6.42 0 0 0 0.83,-3.05 c 0,-0.2 -0.01,-0.28 -0.01,-0.28 z"
       id="path15157" />
    <path
       class="cls-8"
       d="M 46,25.58 C 43.8,29 39,32.26 33.11,34.59 l 0.81,-5.91 c 6,-2.48 10.69,-5.91 12.54,-9.43 a 6.42,6.42 0 0 0 0.83,-3.05 v 0.15 c 0,0.55 0,3.38 0,4.48 A 7.62,7.62 0 0 1 46,25.58 Z"
       id="path15165"
       style="fill:url(#linear-gradient-3)" />
    <path
       class="cls-4"
       d="M 46,25.58 C 43.8,29 39,32.26 33.11,34.59 l 0.81,-5.91 c 6,-2.48 10.69,-5.91 12.54,-9.43 a 6.42,6.42 0 0 0 0.83,-3.05 v 0.15 c 0,0.55 0,3.38 0,4.48 A 7.62,7.62 0 0 1 46,25.58 Z"
       id="path15167" />
  </g>
  <g
     id="g15413"
     transform="translate(0,8.5418327)">
    <polygon
       class="cls-9"
       points="21.5,33.95 31.18,38.61 44.4,32.25 44.4,32.02 44.83,31.82 44.83,20.19 44.4,19.99 31.18,26.36 31.18,28.65 21.5,33.31 "
       id="polygon15169" />
    <polygon
       class="cls-26"
       points="34.71,26.95 21.5,33.31 31.18,37.98 44.4,31.61 "
       id="polygon15205"
       style="fill:url(#linear-gradient-19)" />
    <polygon
       class="cls-27"
       points="34.71,26.95 21.5,33.31 31.18,37.98 44.4,31.61 "
       id="polygon15207"
       style="fill:url(#linear-gradient-20)" />
    <polygon
       class="cls-28"
       points="34.71,26.95 21.5,33.31 31.18,37.98 44.4,31.61 "
       id="polygon15209"
       style="fill:url(#linear-gradient-21)" />
    <g
       class="cls-19"
       id="g15213">
      <path
         class="cls-29"
         d="M 32.8,31 30,32.4 a 1,1 0 0 1 -0.81,0 l -1.82,-0.88 a 0.2,0.2 0 0 1 0,-0.36 l 2.82,-1.36 a 1,1 0 0 1 0.81,0 l 1.82,0.87 A 0.2,0.2 0 0 1 32.8,31 Z"
         id="path15211"
         style="fill:url(#linear-gradient-22)" />
    </g>
    <polygon
       class="cls-30"
       points="27.27,35.47 26.16,34.93 38.06,29.2 39.18,29.73 "
       id="polygon15215"
       style="fill:url(#linear-gradient-23)" />
    <polygon
       class="cls-31"
       points="28.39,36.01 27.27,35.47 39.18,29.73 40.3,30.27 "
       id="polygon15217"
       style="fill:url(#linear-gradient-24)" />
    <polygon
       class="cls-32"
       points="29.51,36.55 28.39,36.01 40.3,30.27 41.42,30.81 "
       id="polygon15219"
       style="fill:url(#linear-gradient-25)" />
    <polygon
       class="cls-33"
       points="30.63,37.07 29.51,36.53 41.42,30.8 42.54,31.33 "
       id="polygon15221"
       style="fill:url(#linear-gradient-26)" />
    <polygon
       class="cls-34"
       points="44.4,19.99 31.18,26.36 31.18,37.98 44.4,31.61 "
       id="polygon15223"
       style="fill:url(#linear-gradient-27)" />
    <polygon
       class="cls-35"
       points="31.18,37.98 31.18,38.61 44.4,32.25 44.4,31.61 "
       id="polygon15225"
       style="fill:url(#linear-gradient-28)" />
    <polygon
       class="cls-36"
       points="31.18,37.98 31.18,38.61 44.4,32.25 44.4,31.61 "
       id="polygon15227"
       style="fill:url(#linear-gradient-29)" />
    <polygon
       class="cls-37"
       points="21.5,33.31 21.5,33.95 31.18,38.61 31.18,37.98 "
       id="polygon15229"
       style="fill:url(#linear-gradient-30)" />
    <polygon
       class="cls-38"
       points="44.47,20.37 31.61,26.56 31.18,26.36 31.18,37.98 31.61,38.18 44.47,31.64 "
       id="polygon15231"
       style="fill:url(#linear-gradient-31)" />
    <polygon
       class="cls-39"
       points="44.4,19.99 31.18,26.36 31.61,26.56 44.83,20.19 "
       id="polygon15233"
       style="fill:url(#linear-gradient-32)" />
    <polygon
       class="cls-40"
       points="44.83,20.19 31.61,26.56 31.61,38.18 44.83,31.82 "
       id="polygon15235"
       style="fill:url(#linear-gradient-33)" />
    <ellipse
       class="cls-45"
       cx="-8.3993187"
       cy="47.325867"
       rx="1.46"
       ry="0.91000003"
       transform="rotate(-62.65)"
       id="ellipse15247"
       style="fill:url(#linear-gradient-38)" />
    <path
       class="cls-46"
       d="m 44.83,20.19 c 0,0 -4.56,7.67 -6.2,9.7 -1.64,2.03 -7,8.29 -7,8.29 V 26.56 Z"
       id="path15249"
       style="fill:url(#linear-gradient-39)" />
  </g>
  <g
     id="g15420"
     transform="translate(0,-3.314741)">
    <path
       class="cls-5"
       d="m 13.6,13.58498 c 0,1.57 0.16,4 0.25,5.48 -5.51,2.43 -9.85,5.67 -11.55,8.99 a 5.09,5.09 0 0 1 -0.43,-4.41 c 1.21,-3.67 5.71,-7.34 11.73,-10.06 z"
       id="path15159" />
    <path
       class="cls-6"
       d="m 13.6,13.33 c 0,1.57 0.16,4 0.25,5.48 C 8.34,21.24 4,24.48 2.3,27.8 A 5.09,5.09 0 0 1 1.87,23.39 C 3.08,19.72 7.58,16.05 13.6,13.33 Z"
       id="path15161"
       style="fill:url(#linear-gradient-2)" />
    <path
       class="cls-7"
       d="m 13.6,13.33 c 0,1.57 0.16,4 0.25,5.48 C 8.34,21.24 4,24.48 2.3,27.8 A 5.09,5.09 0 0 1 1.87,23.39 C 3.08,19.72 7.58,16.05 13.6,13.33 Z"
       id="path15163" />
    <path
       class="cls-41"
       d="m 18.46,30.09 c 0,0 0.19,1 0.52,2.19 C 10.64,33 4.38,31.15 2.3,27.8 A 4.89,4.89 0 0 1 1.56,25.32 v 5.46 c 0,4.6 7.35,7.86 17.22,7.14 a 10.21,10.21 0 0 0 -0.32,2.66 40.76,40.76 0 0 1 6.75,-7 17.47,17.47 0 0 1 -6.75,-3.49 z"
       id="path15237"
       style="fill:url(#linear-gradient-34)" />
    <path
       class="cls-7"
       d="m 18.46,30.09 c 0,0 0.19,1 0.52,2.19 C 10.64,33 4.38,31.15 2.3,27.8 A 4.89,4.89 0 0 1 1.56,25.32 v 5.46 c 0,4.6 7.35,7.86 17.22,7.14 a 10.21,10.21 0 0 0 -0.32,2.66 40.76,40.76 0 0 1 6.75,-7 17.47,17.47 0 0 1 -6.75,-3.49 z"
       id="path15239" />
  </g>
  <g
     id="g15392"
     transform="translate(0,18.613546)">
    <polygon
       class="cls-9"
       points="7.01,26.34 7.44,26.54 7.44,26.54 7.44,27.18 17.13,31.84 30.34,25.48 30.34,24.84 20.66,20.18 20.66,8.56 20.23,8.36 7.01,14.72 "
       id="polygon15171"
       transform="translate(0,-26.007968)" />
    <polygon
       class="cls-10"
       points="20.22,8.35 20.23,8.36 20.23,8.35 "
       id="polygon15173"
       style="fill:url(#linearGradient15313)"
       transform="translate(0,-26.007968)" />
    <polygon
       class="cls-11"
       points="20.3,8.73 7.44,14.92 7.01,14.72 7.01,26.34 7.44,26.54 20.3,20 "
       id="polygon15175"
       style="fill:url(#linearGradient15315)"
       transform="translate(0,-26.007968)" />
    <polygon
       class="cls-12"
       points="20.66,20.18 7.44,26.54 17.13,31.21 30.34,24.84 "
       id="polygon15177"
       style="fill:url(#linear-gradient-6)"
       transform="translate(0,-26.007968)" />
    <polygon
       class="cls-13"
       points="17.13,31.21 20.66,20.18 30.34,24.84 "
       id="polygon15179"
       style="fill:url(#linearGradient15317)"
       transform="translate(0,-26.007968)" />
    <polygon
       class="cls-14"
       points="20.66,8.56 7.44,14.92 7.44,26.54 20.66,20.18 "
       id="polygon15181"
       style="fill:url(#linear-gradient-8)"
       transform="translate(0,-26.007968)" />
    <path
       class="cls-15"
       d="M 20,-16.337968 V -6.2679681 L 8.14,-0.57796813 V -10.647968 l 11.86,-5.69"
       id="path15183"
       style="fill:url(#linear-gradient-9)" />
    <polygon
       class="cls-16"
       points="17.13,31.21 17.13,31.84 30.34,25.48 30.34,24.84 "
       id="polygon15185"
       style="fill:url(#linearGradient15319)"
       transform="translate(0,-26.007968)" />
    <polygon
       class="cls-17"
       points="7.44,26.54 7.44,27.18 17.13,31.84 17.13,31.21 "
       id="polygon15187"
       style="fill:url(#linear-gradient-11)"
       transform="translate(0,-26.007968)" />
    <polygon
       class="cls-18"
       points="20.23,8.36 7.01,14.72 7.44,14.92 20.66,8.56 "
       id="polygon15189"
       style="fill:url(#linear-gradient-12)"
       transform="translate(0,-26.007968)" />
    <g
       class="cls-19"
       id="g15193"
       transform="translate(0,-26.007968)">
      <path
         class="cls-20"
         d="m 24.48,27 -2.84,1.37 a 0.91,0.91 0 0 1 -0.79,0 L 19,27.5 a 0.19,0.19 0 0 1 0,-0.36 l 2.83,-1.37 a 0.91,0.91 0 0 1 0.79,0 l 1.83,0.88 A 0.2,0.2 0 0 1 24.48,27 Z"
         id="path15191"
         style="fill:url(#linear-gradient-13)" />
    </g>
    <polygon
       class="cls-21"
       points="10.46,27.38 9.34,26.84 21.24,21.1 22.36,21.64 "
       id="polygon15195"
       style="fill:url(#linear-gradient-14)"
       transform="translate(0,-26.007968)" />
    <polygon
       class="cls-22"
       points="11.57,27.91 10.46,27.38 22.36,21.64 23.48,22.18 "
       id="polygon15197"
       style="fill:url(#linear-gradient-15)"
       transform="translate(0,-26.007968)" />
    <polygon
       class="cls-23"
       points="12.69,28.45 11.57,27.91 23.48,22.18 24.6,22.71 "
       id="polygon15199"
       style="fill:url(#linear-gradient-16)"
       transform="translate(0,-26.007968)" />
    <polygon
       class="cls-24"
       points="13.81,28.99 12.69,28.45 24.6,22.71 25.72,23.25 "
       id="polygon15201"
       style="fill:url(#linear-gradient-17)"
       transform="translate(0,-26.007968)" />
    <polygon
       class="cls-25"
       points="20.66,8.56 20.66,20.18 7.44,14.92 "
       id="polygon15203"
       style="fill:url(#linearGradient15321)"
       transform="translate(0,-26.007968)" />
    <ellipse
       class="cls-42"
       cx="16.031578"
       cy="10.142659"
       rx="0.94"
       ry="0.58999997"
       transform="rotate(-62.65)"
       id="ellipse15241"
       style="fill:url(#linear-gradient-35)" />
    <ellipse
       class="cls-43"
       cx="13.934055"
       cy="8.5586939"
       rx="0.94"
       ry="0.58999997"
       transform="rotate(-62.65)"
       id="ellipse15243"
       style="fill:url(#linear-gradient-36)" />
    <ellipse
       class="cls-44"
       cx="11.841126"
       cy="6.9936132"
       rx="0.94"
       ry="0.58999997"
       transform="rotate(-62.65)"
       id="ellipse15245"
       style="fill:url(#linear-gradient-37)" />
  </g>
</svg>
