<?xml version="1.0" encoding="UTF-8" standalone="no"?>
<svg
   xmlns:dc="http://purl.org/dc/elements/1.1/"
   xmlns:cc="http://creativecommons.org/ns#"
   xmlns:rdf="http://www.w3.org/1999/02/22-rdf-syntax-ns#"
   xmlns:svg="http://www.w3.org/2000/svg"
   xmlns="http://www.w3.org/2000/svg"
   xmlns:xlink="http://www.w3.org/1999/xlink"
   xmlns:sodipodi="http://sodipodi.sourceforge.net/DTD/sodipodi-0.dtd"
   xmlns:inkscape="http://www.inkscape.org/namespaces/inkscape"
   viewBox="0 0 48 48"
   version="1.1"
   id="svg17153"
   sodipodi:docname="2-Float Particles by Volume.svg"
   inkscape:version="1.0.1 (3bc2e813f5, 2020-09-07)">
  <metadata
     id="metadata17157">
    <rdf:RDF>
      <cc:Work
         rdf:about="">
        <dc:format>image/svg+xml</dc:format>
        <dc:type
           rdf:resource="http://purl.org/dc/dcmitype/StillImage" />
      </cc:Work>
    </rdf:RDF>
  </metadata>
  <sodipodi:namedview
     pagecolor="#ffffff"
     bordercolor="#666666"
     borderopacity="1"
     objecttolerance="10"
     gridtolerance="10"
     guidetolerance="10"
     inkscape:pageopacity="0"
     inkscape:pageshadow="2"
     inkscape:window-width="2560"
     inkscape:window-height="1377"
     id="namedview17155"
     showgrid="false"
     inkscape:zoom="15.3125"
     inkscape:cx="24"
     inkscape:cy="24"
     inkscape:window-x="-8"
     inkscape:window-y="-8"
     inkscape:window-maximized="1"
     inkscape:current-layer="svg17153" />
  <defs
     id="defs17078">
    <linearGradient
       inkscape:collect="always"
       id="linearGradient17766">
      <stop
         style="stop-color:#000000;stop-opacity:1;"
         offset="0"
         id="stop17762" />
      <stop
         style="stop-color:#000000;stop-opacity:0;"
         offset="1"
         id="stop17764" />
    </linearGradient>
    <style
       id="style17020">.cls-1,.cls-24,.cls-25,.cls-27,.cls-7{fill:none;}.cls-2{isolation:isolate;}.cls-3{fill:#d0d0d0;}.cls-4{fill:url(#radial-gradient);}.cls-5{fill:url(#linear-gradient);}.cls-6{fill:url(#linear-gradient-2);}.cls-7{stroke:#babdb6;}.cls-25,.cls-27,.cls-7{stroke-linecap:round;stroke-linejoin:round;}.cls-24,.cls-25,.cls-27,.cls-7{stroke-width:0.7px;}.cls-8{fill:#204a87;}.cls-9{fill:url(#linear-gradient-3);}.cls-10{fill:url(#linear-gradient-4);}.cls-11{fill:url(#linear-gradient-5);}.cls-12{fill:url(#linear-gradient-6);}.cls-13{fill:url(#linear-gradient-7);}.cls-14{clip-path:url(#clip-path);}.cls-15{fill:#fff;}.cls-16{fill:#ef2929;}.cls-17{fill:#edd400;}.cls-18{fill:url(#New_Gradient_Swatch_2);}.cls-19{opacity:0.62;}.cls-20{fill:url(#linear-gradient-8);}.cls-21{mix-blend-mode:multiply;}.cls-22{fill:url(#linear-gradient-9);}.cls-23{fill:url(#linear-gradient-10);}.cls-24{stroke:#204a87;stroke-miterlimit:10;}.cls-25{stroke:#555753;}.cls-26{fill:url(#linear-gradient-11);}.cls-27{stroke:#eeeeec;}</style>
    <radialGradient
       id="radial-gradient"
       cx="131.95"
       cy="89.68"
       r="20.08"
       gradientTransform="matrix(1.19,0,0,0.69,-132.47,-27.68)"
       gradientUnits="userSpaceOnUse">
      <stop
         offset="0.31"
         stop-color="#2c2c2c"
         stop-opacity="0.5"
         id="stop17022" />
      <stop
         offset="0.76"
         stop-color="#2c2c2c"
         stop-opacity="0.1"
         id="stop17024" />
      <stop
         offset="0.97"
         stop-color="#2c2c2c"
         stop-opacity="0"
         id="stop17026" />
    </radialGradient>
    <linearGradient
       id="linear-gradient"
       x1="29.22"
       y1="16.09"
       x2="21.83"
       y2="5.47"
       gradientUnits="userSpaceOnUse">
      <stop
         offset="0"
         stop-color="#fff"
         stop-opacity="0"
         id="stop17029" />
      <stop
         offset="1"
         stop-color="snow"
         id="stop17031" />
    </linearGradient>
    <linearGradient
       id="linear-gradient-2"
       x1="-4.47"
       y1="8.24"
       x2="15.66"
       y2="19.6"
       gradientUnits="userSpaceOnUse">
      <stop
         offset="0"
         stop-color="#2e3436"
         id="stop17034" />
      <stop
         offset="1"
         stop-color="#d3d7cf"
         id="stop17036" />
    </linearGradient>
    <linearGradient
       id="linear-gradient-3"
       x1="9.62"
       y1="38.17"
       x2="22.33"
       y2="25.46"
       gradientUnits="userSpaceOnUse">
      <stop
         offset="0"
         stop-color="#00255d"
         stop-opacity="0"
         id="stop17039" />
      <stop
         offset="1"
         stop-color="#00255d"
         id="stop17041" />
    </linearGradient>
    <linearGradient
       id="linear-gradient-4"
       x1="43.31"
       y1="42.54"
       x2="27.34"
       y2="24.76"
       gradientUnits="userSpaceOnUse">
      <stop
         offset="0"
         stop-color="#b2cbe5"
         id="stop17044" />
      <stop
         offset="1"
         stop-color="#3465a4"
         id="stop17046" />
    </linearGradient>
    <linearGradient
       id="linear-gradient-5"
       x1="31.94"
       y1="28.04"
       x2="49.56"
       y2="10.42"
       gradientUnits="userSpaceOnUse">
      <stop
         offset="0"
         stop-color="#fff"
         stop-opacity="0"
         id="stop17049" />
      <stop
         offset="1"
         stop-color="snow"
         id="stop17051" />
    </linearGradient>
    <linearGradient
       id="linear-gradient-6"
       x1="27.32"
       y1="26.86"
       x2="20.77"
       y2="13.12"
       xlink:href="#linear-gradient-4" />
    <linearGradient
       id="linear-gradient-7"
       x1="24.06"
       y1="8.89"
       x2="21.28"
       y2="30.52"
       xlink:href="#linear-gradient-3" />
    <clipPath
       id="clip-path">
      <path
         class="cls-1"
         d="M15.57,20.09c1.79.45,4.25,3.69,8.43,3.69a11.49,11.49,0,0,0,7.85-3.41c1-.9,1.24-6.28-2.4-8.7s-12.6.08-13.88,2.15S15.57,20.09,15.57,20.09Z"
         id="path17056" />
    </clipPath>
    <linearGradient
       id="New_Gradient_Swatch_2"
       x1="25"
       y1="15.28"
       x2="22.3"
       y2="17.98"
       gradientTransform="rotate(45,27.994312,22.755624)"
       gradientUnits="userSpaceOnUse">
      <stop
         offset="0"
         stop-color="#729fcf"
         id="stop17059" />
      <stop
         offset="1"
         stop-color="#3465a4"
         id="stop17061" />
    </linearGradient>
    <linearGradient
       id="linear-gradient-8"
       x1="23.01"
       y1="17.75"
       x2="23.01"
       y2="16.95"
       gradientTransform="rotate(45,28.25816,22.504913)"
       xlink:href="#linear-gradient-5" />
    <linearGradient
       id="linear-gradient-9"
       x1="22.36"
       y1="17.92"
       x2="13.44"
       y2="26.84"
       gradientTransform="translate(5.24,-2.17)"
       gradientUnits="userSpaceOnUse">
      <stop
         offset="0"
         stop-color="#b2cbe5"
         stop-opacity="0.1"
         id="stop17065" />
      <stop
         offset="1"
         stop-color="#5a84b8"
         id="stop17067" />
    </linearGradient>
    <linearGradient
       id="linear-gradient-10"
       x1="20.79"
       y1="19.48"
       x2="9.77"
       y2="30.51"
       gradientTransform="translate(5.24,-2.17)"
       gradientUnits="userSpaceOnUse">
      <stop
         offset="0"
         stop-color="#00255d"
         stop-opacity="0"
         id="stop17070" />
      <stop
         offset="0.41"
         stop-color="#002553"
         stop-opacity="0.41"
         id="stop17072" />
      <stop
         offset="1"
         stop-color="#002545"
         id="stop17074" />
    </linearGradient>
    <linearGradient
       id="linear-gradient-11"
       x1="31.94"
       y1="28.04"
       x2="49.56"
       y2="10.42"
       gradientTransform="matrix(-1,0,0,1,48,0)"
       xlink:href="#linear-gradient-5" />
    <linearGradient
       inkscape:collect="always"
       xlink:href="#linear-gradient-3"
       id="linearGradient17720"
       gradientUnits="userSpaceOnUse"
       x1="9.62"
       y1="38.17"
       x2="22.33"
       y2="25.46" />
    <linearGradient
       inkscape:collect="always"
       xlink:href="#linear-gradient-4"
       id="linearGradient17722"
       gradientUnits="userSpaceOnUse"
       x1="43.31"
       y1="42.54"
       x2="27.34"
       y2="24.76" />
    <linearGradient
       inkscape:collect="always"
       xlink:href="#linear-gradient-5"
       id="linearGradient17724"
       gradientUnits="userSpaceOnUse"
       x1="31.94"
       y1="28.04"
       x2="49.56"
       y2="10.42" />
    <radialGradient
       inkscape:collect="always"
       xlink:href="#linearGradient17766"
       id="radialGradient17768"
       cx="24"
       cy="33.759998"
       fx="24"
       fy="33.759998"
       r="22.879999"
       gradientTransform="matrix(1,0,0,0.57998256,0,14.179788)"
       gradientUnits="userSpaceOnUse" />
  </defs>
  <title
     id="title17080">2-Float Particles by Volume</title>
  <g
     id="shadow"
     style="isolation:isolate;fill:url(#radialGradient17768);stroke-width:1.03968;fill-opacity:1"
     transform="matrix(1.0432101,0,0,0.88680929,-1.0370424,6.2376448)">
    <ellipse
       class="cls-4"
       cx="24"
       cy="33.759998"
       rx="22.879999"
       ry="13.27"
       id="ellipse17085"
       style="fill:url(#radialGradient17768);stroke-width:1.03968;fill-opacity:1" />
  </g>
  <g
     id="ART"
     style="isolation:isolate;stroke-width:0.766689"
     transform="matrix(1.304653,0,0,1.3039662,-6.9694361,-7.7849857)">
    <polygon
       class="cls-3"
       points="24,25.01 39.7,33.26 39.7,14.74 24,6.49 "
       id="polygon17088"
       style="stroke-width:0.766689" />
    <polygon
       class="cls-5"
       points="24,25.01 39.7,33.26 39.7,14.74 24,6.49 "
       id="polygon17090"
       style="fill:url(#linear-gradient);stroke-width:0.766689" />
    <polygon
       class="cls-3"
       points="24,25.01 8.3,33.26 8.3,14.74 24,6.49 "
       id="polygon17092"
       style="stroke-width:0.766689" />
    <polygon
       class="cls-6"
       points="24,25.01 8.3,33.26 8.3,14.74 24,6.49 "
       id="polygon17094"
       style="fill:url(#linear-gradient-2);stroke-width:0.766689" />
    <line
       class="cls-7"
       x1="24"
       y1="6.4899998"
       x2="24"
       y2="25.01"
       id="line17096" />
    <polygon
       class="cls-8"
       points="24,41.51 24,25.01 11.5,19.5 8.3,21.75 8.3,33.26 "
       id="polygon17098"
       style="stroke-width:0.766689" />
    <polygon
       class="cls-9"
       points="24,41.51 24,25.01 11.5,19.5 8.3,21.75 8.3,33.26 "
       id="polygon17100"
       style="fill:url(#linearGradient17720);stroke-width:0.766689" />
    <polygon
       class="cls-10"
       points="24,41.51 24,25.01 35.66,19.17 39.7,18.05 39.7,33.26 "
       id="polygon17102"
       style="fill:url(#linearGradient17722);stroke-width:0.766689" />
    <polygon
       class="cls-11"
       points="39.7,33.26 24,41.51 24,22.99 39.7,14.74 "
       id="polygon17104"
       style="fill:url(#linearGradient17724);stroke-width:0.766689" />
    <path
       class="cls-12"
       d="m 34.94,18.22 c 3,0.38 3,-0.21 4.76,-0.17 a 25.3,25.3 0 0 0 -3.31,2.13 c -1.75,1.39 -3.3,3.77 -5.84,4.62 -2.54,0.85 -4.62,0.42 -6.53,0.21 -1.8,0.11 -3.39,0.49 -6.44,0.53 -3.05,0.04 -3.76,-3.1 -5.6,-3.91 A 4.71,4.71 0 0 0 8.3,21.75 c 0,0 1.82,-4 4.66,-5.4 2.84,-1.4 5,0.14 7,-0.24 2,-0.38 4,-3.38 4,-3.38 a 5,5 0 0 1 4.12,0.16 c 3.64,1.85 3.92,4.95 6.86,5.33 z"
       id="path17106"
       style="fill:url(#linear-gradient-6);stroke-width:0.766689" />
    <path
       class="cls-13"
       d="m 18,18.54 c -3,0.06 -4.68,0.8 -5.1,1.56 -0.42,0.76 1.89,1.61 4.38,2.89 2.49,1.28 6.64,2.24 10.06,1 3.42,-1.24 4.42,-3.59 5,-4.13 0.58,-0.54 -0.07,-1.76 -3.8,-1.3"
       id="path17108"
       style="fill:url(#linear-gradient-7);stroke-width:0.766689" />
    <g
       class="cls-14"
       clip-path="url(#clip-path)"
       id="g17130"
       style="stroke-width:0.766689">
      <circle
         class="cls-15"
         cx="24"
         cy="19.35"
         r="6.75"
         id="circle17110"
         style="stroke-width:0.766689" />
      <path
         class="cls-16"
         d="m 19.23,24.12 a 21.71,21.71 0 0 0 5.32,-4.22 21.71,21.71 0 0 0 4.22,-5.32 v 0 c -1.23,-1.23 -5.31,-1.1 -8,1.59 -2.69,2.69 -2.82,6.74 -1.59,8 z"
         id="path17112"
         style="stroke-width:0.766689" />
      <path
         class="cls-17"
         d="m 27.58,22.93 c 2.67,-2.63 2.47,-7 1.26,-8.28 a 6.74,6.74 0 0 1 -9.34,9.71 c 1.5,1.04 5.57,1.12 8.08,-1.43 z"
         id="path17114"
         style="stroke-width:0.766689" />
      <ellipse
         class="cls-18"
         cx="28"
         cy="15.35"
         rx="1.09"
         ry="2.5899999"
         transform="rotate(-45,27.995624,15.343833)"
         id="ellipse17116"
         style="fill:url(#New_Gradient_Swatch_2);stroke-width:0.766689" />
      <g
         class="cls-19"
         id="g17120"
         style="stroke-width:0.766689">
        <ellipse
           class="cls-20"
           cx="28.25"
           cy="15.09"
           rx="0.22"
           ry="0.50999999"
           transform="rotate(-45,28.253405,15.097056)"
           id="ellipse17118"
           style="fill:url(#linear-gradient-8);stroke-width:0.766689" />
      </g>
      <g
         class="cls-21"
         id="g17124"
         style="stroke-width:0.766689">
        <circle
           class="cls-22"
           cx="24"
           cy="19.35"
           r="6.75"
           id="circle17122"
           style="fill:url(#linear-gradient-9);stroke-width:0.766689" />
      </g>
      <path
         class="cls-23"
         d="m 26.14,23.1 a 5.88,5.88 0 0 1 -5.51,-8 5.39,5.39 0 1 0 7.58,7.57 5.73,5.73 0 0 1 -2.07,0.43 z"
         id="path17126"
         style="fill:url(#linear-gradient-10);stroke-width:0.766689" />
      <circle
         class="cls-24"
         cx="24"
         cy="19.35"
         r="6.75"
         id="circle17128" />
    </g>
    <line
       class="cls-25"
       x1="8.3000002"
       y1="33.259998"
       x2="24"
       y2="41.509998"
       id="line17132" />
    <line
       class="cls-25"
       x1="39.700001"
       y1="14.74"
       x2="39.700001"
       y2="33.259998"
       id="line17134" />
    <line
       class="cls-25"
       x1="39.700001"
       y1="33.259998"
       x2="24"
       y2="41.509998"
       id="line17136" />
    <polygon
       class="cls-26"
       points="8.3,33.26 24,41.51 24,22.99 8.3,14.74 "
       id="polygon17138"
       style="fill:url(#linear-gradient-11);stroke-width:0.766689" />
    <polyline
       class="cls-25"
       points="8.3 14.74 8.3 33.26 24 41.51"
       id="polyline17140" />
    <polyline
       class="cls-27"
       points="8.3 14.74 24 6.49 39.7 14.74"
       id="polyline17142" />
    <line
       class="cls-27"
       x1="24"
       y1="22.99"
       x2="39.700001"
       y2="14.74"
       id="line17144" />
    <line
       class="cls-27"
       x1="8.3000002"
       y1="14.74"
       x2="24"
       y2="22.99"
       id="line17146" />
    <line
       class="cls-27"
       x1="24"
       y1="22.99"
       x2="24"
       y2="41.509998"
       id="line17148" />
  </g>
</svg>
