<?xml version="1.0" encoding="UTF-8" standalone="no"?>
<svg
   viewBox="0 0 48 48"
   version="1.1"
   id="svg11219"
   sodipodi:docname="8-ParticleSpinbyVolume.svg"
   inkscape:version="1.1 (c68e22c387, 2021-05-23)"
   xmlns:inkscape="http://www.inkscape.org/namespaces/inkscape"
   xmlns:sodipodi="http://sodipodi.sourceforge.net/DTD/sodipodi-0.dtd"
   xmlns:xlink="http://www.w3.org/1999/xlink"
   xmlns="http://www.w3.org/2000/svg"
   xmlns:svg="http://www.w3.org/2000/svg">
  <sodipodi:namedview
     id="namedview11221"
     pagecolor="#ffffff"
     bordercolor="#666666"
     borderopacity="1.0"
     inkscape:pageshadow="2"
     inkscape:pageopacity="0.0"
     inkscape:pagecheckerboard="0"
     showgrid="false"
     inkscape:zoom="15.6875"
     inkscape:cx="24"
     inkscape:cy="23.36255"
     inkscape:window-width="2880"
     inkscape:window-height="1557"
     inkscape:window-x="-8"
     inkscape:window-y="-8"
     inkscape:window-maximized="1"
     inkscape:current-layer="svg11219" />
  <defs
     id="defs11131">
    <linearGradient
       inkscape:collect="always"
       id="linearGradient11302">
      <stop
         style="stop-color:#000000;stop-opacity:0.44859809"
         offset="0"
         id="stop11298" />
      <stop
         style="stop-color:#000000;stop-opacity:0;"
         offset="1"
         id="stop11300" />
    </linearGradient>
    <style
       id="style10981">.cls-1,.cls-11,.cls-4{fill:none;}.cls-2{fill:url(#radial-gradient);}.cls-3{fill:url(#linear-gradient);}.cls-11,.cls-16,.cls-33,.cls-4,.cls-8{stroke-miterlimit:10;}.cls-33,.cls-4{stroke-width:1.4px;}.cls-4{stroke:url(#linear-gradient-2);}.cls-5{fill:url(#linear-gradient-3);}.cls-6{fill:url(#linear-gradient-4);}.cls-7{clip-path:url(#clip-path);}.cls-8{stroke:#4e9a06;stroke-width:0.5px;fill:url(#radial-gradient-2);}.cls-9{fill:url(#linear-gradient-5);}.cls-10{fill:url(#linear-gradient-6);}.cls-11{stroke:#c4a000;}.cls-11,.cls-16{stroke-width:0.7px;}.cls-12{fill:url(#linear-gradient-7);}.cls-13{fill:url(#linear-gradient-8);}.cls-14{fill:url(#linear-gradient-9);}.cls-15{clip-path:url(#clip-path-2);}.cls-16{stroke:#204a87;fill:url(#radial-gradient-3);}.cls-17{fill:url(#linear-gradient-10);}.cls-18{fill:url(#linear-gradient-11);}.cls-19{fill:url(#linear-gradient-12);}.cls-20{fill:url(#linear-gradient-13);}.cls-21{fill:url(#linear-gradient-14);}.cls-22{fill:url(#linear-gradient-15);}.cls-23{fill:url(#linear-gradient-16);}.cls-24{fill:url(#linear-gradient-17);}.cls-25{fill:url(#linear-gradient-18);}.cls-26{fill:url(#linear-gradient-19);}.cls-27{fill:url(#linear-gradient-20);}.cls-28{fill:url(#linear-gradient-21);}.cls-29{fill:url(#linear-gradient-22);}.cls-30{fill:url(#linear-gradient-23);}.cls-31{fill:url(#linear-gradient-24);}.cls-32{clip-path:url(#clip-path-3);}.cls-33{fill:#f57900;stroke:#ce5c00;}.cls-34{fill:url(#linear-gradient-25);}.cls-35{fill:url(#linear-gradient-26);}.cls-36{fill:url(#linear-gradient-27);}.cls-37{fill:url(#linear-gradient-28);}.cls-38{fill:url(#linear-gradient-29);}.cls-39{fill:url(#linear-gradient-30);}.cls-40{fill:url(#linear-gradient-31);}.cls-41{fill:url(#linear-gradient-32);}.cls-42{fill:#d3f4b3;}.cls-43{fill:#c1d5ea;}</style>
    <radialGradient
       id="radial-gradient"
       cx="-5.2"
       cy="1.39"
       r="9.63"
       gradientTransform="translate(30.81 43.86) scale(1.79 0.36)"
       gradientUnits="userSpaceOnUse">
      <stop
         offset="0.16"
         stop-color="#2c2c2c"
         stop-opacity="0.5"
         id="stop10983" />
      <stop
         offset="0.67"
         stop-color="#2c2c2c"
         stop-opacity="0.1"
         id="stop10985" />
      <stop
         offset="0.95"
         stop-color="#2c2c2c"
         stop-opacity="0"
         id="stop10987" />
    </radialGradient>
    <linearGradient
       id="linear-gradient"
       x1="25.62"
       y1="1.22"
       x2="25.88"
       y2="6.35"
       gradientUnits="userSpaceOnUse">
      <stop
         offset="0"
         stop-color="#fffce6"
         stop-opacity="0"
         id="stop10990" />
      <stop
         offset="1"
         stop-color="#fce94f"
         id="stop10992" />
    </linearGradient>
    <linearGradient
       id="linear-gradient-2"
       x1="5.02"
       y1="24.64"
       x2="43.23"
       y2="24.64"
       gradientUnits="userSpaceOnUse">
      <stop
         offset="0"
         stop-color="#888a85"
         id="stop10995" />
      <stop
         offset="0.39"
         stop-color="#babdb6"
         id="stop10997" />
      <stop
         offset="0.65"
         stop-color="#babdb6"
         id="stop10999" />
      <stop
         offset="1"
         stop-color="#888a85"
         id="stop11001" />
    </linearGradient>
    <linearGradient
       id="linear-gradient-3"
       x1="5.72"
       y1="24.64"
       x2="42.53"
       y2="24.64"
       gradientUnits="userSpaceOnUse">
      <stop
         offset="0"
         stop-color="#babdb6"
         id="stop11004" />
      <stop
         offset="0.39"
         stop-color="#eeeeec"
         id="stop11006" />
      <stop
         offset="0.65"
         stop-color="#eeeeec"
         id="stop11008" />
      <stop
         offset="1"
         stop-color="#babdb6"
         id="stop11010" />
    </linearGradient>
    <linearGradient
       id="linear-gradient-4"
       x1="21.94"
       y1="11.71"
       x2="16.33"
       y2="11.57"
       gradientUnits="userSpaceOnUse">
      <stop
         offset="0"
         stop-color="#888a85"
         id="stop11013" />
      <stop
         offset="1"
         stop-color="#d3d7cf"
         id="stop11015" />
    </linearGradient>
    <clipPath
       id="clip-path">
      <path
         class="cls-1"
         d="M14.93,8.37c2.71,0,16,2.53,18.8,4.35,0,0,10-1.33,10.42-2s0-9.18,0-9.18H14.66Z"
         id="path11018" />
    </clipPath>
    <radialGradient
       id="radial-gradient-2"
       cx="41.95"
       cy="7.61"
       r="2.07"
       gradientUnits="userSpaceOnUse">
      <stop
         offset="0"
         stop-color="#d3f4b3"
         id="stop11021" />
      <stop
         offset="0.21"
         stop-color="#8ae234"
         id="stop11023" />
      <stop
         offset="0.55"
         stop-color="#73d216"
         id="stop11025" />
      <stop
         offset="0.76"
         stop-color="#4e9a06"
         id="stop11027" />
      <stop
         offset="1"
         stop-color="#73d216"
         id="stop11029" />
    </radialGradient>
    <linearGradient
       id="linear-gradient-5"
       x1="31.47"
       y1="11.06"
       x2="31.56"
       y2="3.74"
       gradientUnits="userSpaceOnUse">
      <stop
         offset="0"
         stop-color="#fffce6"
         id="stop11032" />
      <stop
         offset="1"
         stop-color="#fce94f"
         id="stop11034" />
    </linearGradient>
    <linearGradient
       id="linear-gradient-6"
       x1="33.34"
       y1="13.74"
       x2="33.25"
       y2="4.33"
       gradientUnits="userSpaceOnUse">
      <stop
         offset="0"
         stop-color="#fce94f"
         id="stop11037" />
      <stop
         offset="1"
         stop-color="#c4a000"
         id="stop11039" />
    </linearGradient>
    <linearGradient
       id="linear-gradient-7"
       x1="12.41"
       y1="7.47"
       x2="41.78"
       y2="18.45"
       gradientUnits="userSpaceOnUse">
      <stop
         offset="0"
         stop-color="#5c3566"
         id="stop11042" />
      <stop
         offset="0.42"
         stop-color="#e39bc1"
         id="stop11044" />
      <stop
         offset="0.64"
         stop-color="#ad7fa8"
         id="stop11046" />
      <stop
         offset="0.99"
         stop-color="#755076"
         id="stop11048" />
    </linearGradient>
    <linearGradient
       id="linear-gradient-8"
       x1="8.97"
       y1="4.21"
       x2="6.46"
       y2="10.69"
       gradientUnits="userSpaceOnUse">
      <stop
         offset="0"
         stop-color="#ad7fa8"
         id="stop11051" />
      <stop
         offset="1"
         stop-color="#e39bc1"
         stop-opacity="0.2"
         id="stop11053" />
    </linearGradient>
    <linearGradient
       id="linear-gradient-9"
       x1="42.11"
       y1="22.31"
       x2="42.85"
       y2="16.06"
       gradientTransform="rotate(-2.38,43.698823,17.764277)"
       xlink:href="#linear-gradient-8" />
    <clipPath
       id="clip-path-2">
      <path
         class="cls-1"
         d="M20.3,12.69A68.46,68.46,0,0,1,28.92,14a2.13,2.13,0,0,0,1.69-2c.16-1.72-.61-5.33-2.93-5.94s-7,.15-7,.15l-.36,6.55"
         id="path11057" />
    </clipPath>
    <radialGradient
       id="radial-gradient-3"
       cx="26.32"
       cy="9.95"
       r="5.4"
       gradientTransform="rotate(3.92,25.762389,9.0651865)"
       gradientUnits="userSpaceOnUse">
      <stop
         offset="0.11"
         stop-color="#c1d5ea"
         id="stop11060" />
      <stop
         offset="0.28"
         stop-color="#729fcf"
         id="stop11062" />
      <stop
         offset="0.55"
         stop-color="#3465a4"
         id="stop11064" />
      <stop
         offset="0.76"
         stop-color="#204a87"
         id="stop11066" />
      <stop
         offset="1"
         stop-color="#3465a4"
         id="stop11068" />
    </radialGradient>
    <linearGradient
       id="linear-gradient-10"
       x1="15.86"
       y1="16.07"
       x2="31.75"
       y2="11.3"
       gradientUnits="userSpaceOnUse">
      <stop
         offset="0"
         stop-color="#204a87"
         id="stop11071" />
      <stop
         offset="0.39"
         stop-color="#729fcf"
         id="stop11073" />
      <stop
         offset="0.65"
         stop-color="#729fcf"
         id="stop11075" />
      <stop
         offset="1"
         stop-color="#204a87"
         id="stop11077" />
    </linearGradient>
    <linearGradient
       id="linear-gradient-11"
       x1="21.33"
       y1="25.59"
       x2="28.14"
       y2="36.45"
       gradientTransform="rotate(3.23,20.534666,29.592687)"
       xlink:href="#linear-gradient-7" />
    <linearGradient
       id="linear-gradient-12"
       x1="18.75"
       y1="32.44"
       x2="28.29"
       y2="33.02"
       gradientUnits="userSpaceOnUse">
      <stop
         offset="0"
         stop-color="#888a85"
         id="stop11081" />
      <stop
         offset="0.39"
         stop-color="#d3d7cf"
         id="stop11083" />
      <stop
         offset="0.65"
         stop-color="#d3d7cf"
         id="stop11085" />
      <stop
         offset="1"
         stop-color="#888a85"
         id="stop11087" />
    </linearGradient>
    <linearGradient
       id="linear-gradient-13"
       x1="39.11"
       y1="27.45"
       x2="40.37"
       y2="22.73"
       gradientTransform="matrix(0.99,0.14,-0.14,0.99,3.71,-5.3)"
       xlink:href="#linear-gradient-8" />
    <linearGradient
       id="linear-gradient-14"
       x1="4.18"
       y1="13.87"
       x2="4.69"
       y2="19.6"
       gradientTransform="matrix(1,0.09,-0.09,1,1.5,-0.22)"
       xlink:href="#linear-gradient-8" />
    <linearGradient
       id="linear-gradient-15"
       x1="19.57"
       y1="32.46"
       x2="23.29"
       y2="38.39"
       xlink:href="#linear-gradient-7" />
    <linearGradient
       id="linear-gradient-16"
       x1="19.84"
       y1="16.64"
       x2="7.02"
       y2="19.37"
       gradientUnits="userSpaceOnUse">
      <stop
         offset="0"
         stop-color="#fdcf6f"
         id="stop11093" />
      <stop
         offset="0.3"
         stop-color="#fcaf3e"
         id="stop11095" />
      <stop
         offset="1"
         stop-color="#f57900"
         id="stop11097" />
    </linearGradient>
    <linearGradient
       id="linear-gradient-17"
       x1="14.97"
       y1="22.09"
       x2="48.15"
       y2="18.03"
       xlink:href="#linear-gradient-12" />
    <linearGradient
       id="linear-gradient-18"
       x1="15.1"
       y1="23.13"
       x2="48.28"
       y2="19.06"
       xlink:href="#linear-gradient-12" />
    <linearGradient
       id="linear-gradient-19"
       x1="18.26"
       y1="38.16"
       x2="24.17"
       y2="36.19"
       xlink:href="#linear-gradient-12" />
    <linearGradient
       id="linear-gradient-20"
       x1="18.35"
       y1="34.49"
       x2="20.16"
       y2="37.37"
       xlink:href="#linear-gradient-7" />
    <linearGradient
       id="linear-gradient-21"
       x1="18.09"
       y1="40.39"
       x2="23.81"
       y2="37.49"
       xlink:href="#linear-gradient-7" />
    <linearGradient
       id="linear-gradient-22"
       x1="19.14"
       y1="40.78"
       x2="23.42"
       y2="40.1"
       xlink:href="#linear-gradient-12" />
    <linearGradient
       id="linear-gradient-23"
       x1="15.33"
       y1="10.61"
       x2="30.27"
       y2="34.46"
       gradientTransform="rotate(-6.44,3.435996,14.993236)"
       xlink:href="#linear-gradient-7" />
    <linearGradient
       id="linear-gradient-24"
       x1="37.88"
       y1="22.01"
       x2="8.79"
       y2="19.79"
       xlink:href="#linear-gradient-16" />
    <clipPath
       id="clip-path-3">
      <path
         class="cls-1"
         d="M13.93,27c-.16-.8,4.7-2.77,5.93-3l.85-8.65s-4.11-2.83-6.94-2.77-8.48,1.76-8.48,1.76l-5,5.28L3.79,29.7l8.11,1.66Z"
         id="path11108" />
    </clipPath>
    <linearGradient
       id="linear-gradient-25"
       x1="10.73"
       y1="18.04"
       x2="13.23"
       y2="22.8"
       gradientUnits="userSpaceOnUse">
      <stop
         offset="0"
         stop-color="#fed8a1"
         id="stop11111" />
      <stop
         offset="1"
         stop-color="#f57900"
         id="stop11113" />
    </linearGradient>
    <linearGradient
       id="linear-gradient-26"
       x1="15.06"
       y1="17.64"
       x2="14.55"
       y2="22.07"
       gradientUnits="userSpaceOnUse">
      <stop
         offset="0"
         stop-color="#ce5c00"
         id="stop11116" />
      <stop
         offset="1"
         stop-color="#f57900"
         id="stop11118" />
    </linearGradient>
    <linearGradient
       id="linear-gradient-27"
       x1="14.69"
       y1="22.54"
       x2="15.39"
       y2="27.13"
       gradientUnits="userSpaceOnUse">
      <stop
         offset="0"
         stop-color="#fcaf3e"
         id="stop11121" />
      <stop
         offset="1"
         stop-color="#f57900"
         id="stop11123" />
    </linearGradient>
    <linearGradient
       id="linear-gradient-28"
       x1="11.41"
       y1="25.86"
       x2="11.32"
       y2="29.56"
       xlink:href="#linear-gradient-26" />
    <linearGradient
       id="linear-gradient-29"
       x1="7.9"
       y1="20.54"
       x2="13.82"
       y2="25.08"
       xlink:href="#linear-gradient-27" />
    <linearGradient
       id="linear-gradient-30"
       x1="20.47"
       y1="21.09"
       x2="27.91"
       y2="32.98"
       xlink:href="#linear-gradient-7" />
    <linearGradient
       id="linear-gradient-31"
       x1="17.85"
       y1="27.1"
       x2="31.03"
       y2="27.02"
       xlink:href="#linear-gradient-12" />
    <linearGradient
       id="linear-gradient-32"
       x1="18.79"
       y1="43.38"
       x2="22.66"
       y2="41.42"
       gradientTransform="rotate(13.45,22.421316,44.304393)"
       xlink:href="#linear-gradient-7" />
    <radialGradient
       inkscape:collect="always"
       xlink:href="#linearGradient11302"
       id="radialGradient11304"
       cx="21.530001"
       cy="44.360001"
       fx="21.530001"
       fy="44.360001"
       r="16.530001"
       gradientTransform="matrix(1,0,0,0.20387173,0,35.31625)"
       gradientUnits="userSpaceOnUse" />
    <linearGradient
       inkscape:collect="always"
       xlink:href="#linear-gradient-7"
       id="linearGradient11480"
       gradientUnits="userSpaceOnUse"
       x1="12.41"
       y1="7.47"
       x2="41.78"
       y2="18.45" />
    <linearGradient
       inkscape:collect="always"
       xlink:href="#linear-gradient-8"
       id="linearGradient11482"
       gradientUnits="userSpaceOnUse"
       x1="8.97"
       y1="4.21"
       x2="6.46"
       y2="10.69" />
    <linearGradient
       inkscape:collect="always"
       xlink:href="#linear-gradient-12"
       id="linearGradient11484"
       gradientUnits="userSpaceOnUse"
       x1="18.75"
       y1="32.44"
       x2="28.29"
       y2="33.02" />
    <linearGradient
       inkscape:collect="always"
       xlink:href="#linear-gradient-16"
       id="linearGradient11486"
       gradientUnits="userSpaceOnUse"
       x1="19.84"
       y1="16.64"
       x2="7.02"
       y2="19.37" />
    <linearGradient
       inkscape:collect="always"
       xlink:href="#linear-gradient-26"
       id="linearGradient11488"
       gradientUnits="userSpaceOnUse"
       x1="15.06"
       y1="17.64"
       x2="14.55"
       y2="22.07" />
    <linearGradient
       inkscape:collect="always"
       xlink:href="#linear-gradient-27"
       id="linearGradient11490"
       gradientUnits="userSpaceOnUse"
       x1="14.69"
       y1="22.54"
       x2="15.39"
       y2="27.13" />
  </defs>
  <g
     id="shadow"
     style="fill:url(#radialGradient11304);fill-opacity:1">
    <ellipse
       class="cls-2"
       cx="21.53"
       cy="44.36"
       rx="16.53"
       ry="3.37"
       id="ellipse11133"
       style="fill:url(#radialGradient11304);fill-opacity:1" />
  </g>
  <g
     id="ART"
     transform="matrix(1.0765875,0,0,1.0765875,-2.0634948,-2.068746)"
     style="stroke-width:0.928861">
    <path
       class="cls-3"
       d="M 32,7.18 C 27.64,5.56 24.06,4.18 17.94,3.86 A 33,33 0 0 1 33.69,6"
       id="path11136"
       style="fill:url(#linear-gradient);stroke-width:0.928861" />
    <path
       class="cls-4"
       d="M 27,7.77 C 17.91,5 10.62,4.78 8.85,7.12 a 2.28,2.28 0 0 0 0.06,2.76 6.79,6.79 0 0 0 2,1.82 c -0.94,0.31 -1.75,0.85 -1.84,1.77 a 1.27,1.27 0 0 0 0.16,0.78 C 6.05,15 5.84,16 5.76,16.4 a 1.64,1.64 0 0 0 1,1.79 6.24,6.24 0 0 0 1.83,0.72 A 4.85,4.85 0 0 0 7.43,19.66 1.34,1.34 0 0 0 7,21.09 c 0.4,1.25 2.8,1.73 4.73,1.91 a 0.93,0.93 0 0 0 1,-0.78 1,1 0 0 0 -0.57,-1 c 1.47,-0.41 4.65,-0.86 10.46,-0.55 5.44,0.28 8.75,1.26 10.27,2 l -0.93,0.15 a 26,26 0 0 0 -8.44,-0.51 c -5.9,0.39 -10.16,1.72 -11.11,3.47 a 1.45,1.45 0 0 0 0,1.44 c 0.4,0.72 1.58,1.15 3.52,1.29 0,0 0,0.05 0,0.07 a 1.38,1.38 0 0 0 0.28,1.13 3.72,3.72 0 0 0 1.67,1.05 1.3,1.3 0 0 0 -0.31,0.88 1.53,1.53 0 0 0 0.37,1 1.8,1.8 0 0 0 -0.76,0.83 1.46,1.46 0 0 0 -0.08,0.92 1.83,1.83 0 0 0 -1,0.91 1.34,1.34 0 0 0 0.28,1.46 1.57,1.57 0 0 0 0.85,0.49 1.66,1.66 0 0 0 0,0.44 1.49,1.49 0 0 0 1.12,1.25 1.3,1.3 0 0 0 -0.05,0.9 1.52,1.52 0 0 0 0.94,0.93 1.37,1.37 0 0 0 0.23,0.8 1.5,1.5 0 0 0 0.53,0.43 1.24,1.24 0 0 0 0.17,0.5 1.42,1.42 0 0 0 0.29,0.35 0.92,0.92 0 0 0 0.19,0.56 1,1 0 0 0 0.76,0.38 1,1 0 0 0 0.37,-0.08 2.2,2.2 0 0 0 1,-1 1.41,1.41 0 0 0 0,-1.34 0.76,0.76 0 0 0 0,-0.15 1.52,1.52 0 0 0 0.49,-0.72 1.21,1.21 0 0 0 -0.11,-0.89 1.25,1.25 0 0 0 0.31,-0.72 1,1 0 0 0 0,-0.3 c 0.63,-0.32 1,-0.71 0.94,-1.28 a 1.23,1.23 0 0 0 -0.08,-0.38 1.59,1.59 0 0 0 0.36,-0.28 1.31,1.31 0 0 0 0.4,-1 1,1 0 0 0 0,-0.23 c 1.1,0 2.31,-0.19 2.67,-0.8 a 1.73,1.73 0 0 0 0.06,-1.48 0.43,0.43 0 0 1 0,-0.07 h 0.46 A 6.81,6.81 0 0 0 31.44,32.54 1.45,1.45 0 0 0 32,31 2.78,2.78 0 0 0 30.88,29.45 v 0 a 0.94,0.94 0 0 0 0.75,-1.52 c 0,0 -0.09,-0.11 -0.19,-0.21 1.53,-0.5 2.81,-1.28 3,-2.33 a 1.46,1.46 0 0 0 0,-0.22 c 2.54,-0.33 3.91,-1 4.17,-2.17 0.09,-0.38 0.15,-1.37 -1.24,-2.18 -0.13,-0.08 -0.34,-0.2 -0.63,-0.35 a 1.35,1.35 0 0 0 0.71,-0.87 9.61,9.61 0 0 0 3.31,-0.32 2.11,2.11 0 0 0 1.7,-2.05 C 42.49,14.37 36.1,10.51 27,7.77 Z"
       id="path11138"
       style="stroke:url(#linear-gradient-2)" />
    <path
       class="cls-5"
       d="M 27,7.77 C 17.91,5 10.62,4.78 8.85,7.12 a 2.28,2.28 0 0 0 0.06,2.76 6.79,6.79 0 0 0 2,1.82 c -0.94,0.31 -1.75,0.85 -1.84,1.77 a 1.27,1.27 0 0 0 0.16,0.78 C 6.05,15 5.84,16 5.76,16.4 a 1.64,1.64 0 0 0 1,1.79 6.24,6.24 0 0 0 1.83,0.72 A 4.85,4.85 0 0 0 7.43,19.66 1.34,1.34 0 0 0 7,21.09 c 0.4,1.25 2.8,1.73 4.73,1.91 a 0.93,0.93 0 0 0 1,-0.78 1,1 0 0 0 -0.57,-1 q 0.5,-0.14 1.26,-0.27 l 1.16,3.13 a 4.43,4.43 0 0 0 -2.17,1.67 1.45,1.45 0 0 0 0,1.44 c 0.4,0.72 1.58,1.15 3.52,1.29 0,0 0,0.05 0,0.07 a 1.38,1.38 0 0 0 0.28,1.13 3.72,3.72 0 0 0 1.67,1.05 1.3,1.3 0 0 0 -0.31,0.88 1.53,1.53 0 0 0 0.37,1 1.8,1.8 0 0 0 -0.76,0.83 1.46,1.46 0 0 0 -0.08,0.92 1.83,1.83 0 0 0 -1,0.91 1.34,1.34 0 0 0 0.28,1.46 1.57,1.57 0 0 0 0.85,0.49 1.66,1.66 0 0 0 0,0.44 1.49,1.49 0 0 0 1.12,1.25 1.3,1.3 0 0 0 -0.05,0.9 1.52,1.52 0 0 0 0.94,0.93 1.37,1.37 0 0 0 0.23,0.8 1.5,1.5 0 0 0 0.53,0.46 1.24,1.24 0 0 0 0.17,0.5 1.42,1.42 0 0 0 0.29,0.35 0.92,0.92 0 0 0 0.19,0.56 1,1 0 0 0 0.76,0.38 1,1 0 0 0 0.37,-0.08 2.2,2.2 0 0 0 1,-1 1.41,1.41 0 0 0 0,-1.34 0.76,0.76 0 0 0 0,-0.15 1.52,1.52 0 0 0 0.49,-0.72 1.21,1.21 0 0 0 -0.11,-0.89 1.25,1.25 0 0 0 0.31,-0.72 1,1 0 0 0 0,-0.3 c 0.63,-0.32 1,-0.71 0.94,-1.28 a 1.23,1.23 0 0 0 -0.08,-0.38 1.59,1.59 0 0 0 0.36,-0.28 1.31,1.31 0 0 0 0.4,-1 1,1 0 0 0 0,-0.23 c 1.1,0 2.31,-0.19 2.67,-0.8 a 1.73,1.73 0 0 0 0.06,-1.48 0.43,0.43 0 0 1 0,-0.07 h 0.46 A 6.81,6.81 0 0 0 31.44,32.54 1.45,1.45 0 0 0 32,31 2.78,2.78 0 0 0 30.88,29.45 v 0 a 0.94,0.94 0 0 0 0.75,-1.52 c 0,0 -0.09,-0.11 -0.19,-0.21 1.53,-0.5 2.81,-1.28 3,-2.33 a 1.46,1.46 0 0 0 0,-0.22 c 2.54,-0.33 3.91,-1 4.17,-2.17 0.09,-0.38 0.15,-1.37 -1.24,-2.18 -0.13,-0.08 -0.34,-0.2 -0.63,-0.35 a 1.35,1.35 0 0 0 0.71,-0.87 9.61,9.61 0 0 0 3.31,-0.32 2.11,2.11 0 0 0 1.7,-2.05 C 42.49,14.37 36.1,10.51 27,7.77 Z"
       id="path11140"
       style="fill:url(#linear-gradient-3);stroke-width:0.928861" />
    <path
       class="cls-6"
       d="m 14.84,11.16 c 1.38,-0.41 7.2,-0.07 8.2,0.17 1,0.24 1.44,1 0.1,1 -1.34,0 -2.82,-0.96 -8.3,-1.17 z"
       id="path11142"
       style="fill:url(#linear-gradient-4);stroke-width:0.928861" />
    <g
       class="cls-7"
       clip-path="url(#clip-path)"
       id="g11152"
       style="stroke-width:0.928861">
      <circle
         class="cls-8"
         cx="41.610001"
         cy="8.0799999"
         r="1.3200001"
         id="circle11144"
         style="fill:url(#radial-gradient-2)" />
      <polygon
         class="cls-9"
         points="25.11,10.86 34.76,2.4 37.94,2.59 28.29,11.05 "
         id="polygon11146"
         style="fill:url(#linear-gradient-5);stroke-width:0.928861" />
      <polygon
         class="cls-10"
         points="28.64,14.63 38.29,6.17 37.94,2.59 28.29,11.05 "
         id="polygon11148"
         style="fill:url(#linear-gradient-6);stroke-width:0.928861" />
      <polygon
         class="cls-11"
         points="38.29,6.17 37.94,2.59 34.76,2.4 25.11,10.86 28.29,11.05 28.64,14.63 "
         id="polygon11150" />
    </g>
    <path
       class="cls-12"
       d="m 26.72,8.67 c -11.65,-3.49 -19.06,-2.5 -17,0.7 0.68,1.06 2.47,2.15 4.85,3.21 a 0.39,0.39 0 0 1 0.29,-0.26 l 0.7,-0.11 A 7.37,7.37 0 0 1 13.42,11 c -1.83,-1.81 3.66,-1.93 12.78,0.55 9.12,2.48 13.78,5.31 11.31,6 a 6.39,6.39 0 0 1 -2.24,0.05 v 0 c 0.2,0.12 0.41,0.23 0.61,0.37 a 2.89,2.89 0 0 1 0.54,0.51 10.69,10.69 0 0 0 4.08,-0.2 C 44.13,17.13 38.33,12.16 26.72,8.67 Z"
       id="path11154"
       style="fill:url(#linearGradient11480);stroke-width:0.928861" />
    <path
       class="cls-13"
       d="m 7.48,9.92 c 0,0 -1.77,-1.75 -0.89,-3.48 0.88,-1.73 4.52,-2.14 5.6,-2.05 A 10.19,10.19 0 0 0 8.11,4.19 C 5.67,4.48 4.35,6 5,7.44 a 8.86,8.86 0 0 0 2.48,2.48 z"
       id="path11156"
       style="fill:url(#linearGradient11482);stroke-width:0.928861" />
    <path
       class="cls-14"
       d="m 43.88,14.51 a 5.77,5.77 0 0 1 0.95,3.54 c -0.1,2.15 -3.08,3.07 -5.4,3 0,0 4.18,1.31 5.75,-1.4 1.44,-2.52 -1.3,-5.14 -1.3,-5.14 z"
       id="path11158"
       style="fill:url(#linear-gradient-9);stroke-width:0.928861" />
    <g
       class="cls-15"
       clip-path="url(#clip-path-2)"
       id="g11162"
       style="stroke-width:0.928861">
      <circle
         class="cls-16"
         cx="25.23"
         cy="11.19"
         r="3.6700001"
         id="circle11160"
         style="fill:url(#radial-gradient-3)" />
    </g>
    <path
       class="cls-17"
       d="m 33.23,15.74 c 0,0 -2.56,-2.14 -11.48,-3.18 -8.92,-1.04 -11.68,0 -11.78,1 -0.1,1 4.32,1.72 4.32,1.72 l 3.11,-0.59 c 0,0 -3.57,-0.29 -3.57,-0.94 0,-0.65 4.51,-0.68 9.9,-0.16 a 32.29,32.29 0 0 1 9.5,2.15 z"
       id="path11164"
       style="fill:url(#linear-gradient-10);stroke-width:0.928861" />
    <path
       class="cls-18"
       d="m 21.09,30.43 c -1.91,-0.14 -4.44,-0.92 -4.28,-1.72 0.13,-0.61 2.22,-1.4 8.05,-0.52 5.11,0.77 7,2.9 6,3.52 C 29.86,32.33 26,32 26,32 c 0,0 2.5,-0.09 2.7,-0.79 0.2,-0.7 -1.64,-1.43 -4.89,-1.93 -3.25,-0.5 -4.56,-0.39 -4.65,0.06 -0.09,0.45 1.94,1.1 1.94,1.1"
       id="path11166"
       style="fill:url(#linear-gradient-11);stroke-width:0.928861" />
    <path
       class="cls-19"
       d="m 20.09,32.69 c 0,0 -1.6,-0.34 -1.62,-1.14 -0.02,-0.8 2.58,-1 5.54,0 2.96,1 3.09,2.19 2.87,2.57 -0.22,0.38 -3.15,0.43 -4.23,0.17 0,0 1.78,0.13 1.8,-0.63 0.02,-0.76 -1.36,-1.31 -3,-1.66 -1.64,-0.35 -2.45,0.14 -1.36,0.69 z"
       id="path11168"
       style="fill:url(#linearGradient11484);stroke-width:0.928861" />
    <path
       class="cls-20"
       d="M 36.92,26.2 A 4.73,4.73 0 0 0 40.27,25 2,2 0 0 0 40.5,22.3 c 0,0 2.54,1.26 1.14,3 -1.11,1.42 -4.72,0.9 -4.72,0.9 z"
       id="path11170"
       style="fill:url(#linear-gradient-13);stroke-width:0.928861" />
    <path
       class="cls-21"
       d="m 6,13.87 a 4.58,4.58 0 0 0 -3,2.34 c -0.79,1.86 1,2.65 2.32,2.84 0,0 -1.79,-1.05 -1.57,-2.48 A 4.16,4.16 0 0 1 6,13.87 Z"
       id="path11172"
       style="fill:url(#linear-gradient-14);stroke-width:0.928861" />
    <path
       class="cls-22"
       d="m 22.36,36.1 c 0,0 1.07,0.43 1.64,-0.13 0.57,-0.56 -1,-2.06 -2.5,-2.56 -1.5,-0.5 -3.15,-0.44 -3.5,0.35 -0.2,0.46 0.37,1.05 1.11,1.27 0,0 -0.64,-0.54 -0.3,-0.91 0.34,-0.37 2.21,0.06 3.28,0.69 1.07,0.63 1.45,1.35 0.27,1.29 z"
       id="path11174"
       style="fill:url(#linear-gradient-15);stroke-width:0.928861" />
    <path
       class="cls-23"
       d="m 12.84,18.65 c 0,0 -1.77,-0.38 -1.68,-1 0.09,-0.62 3.72,-1.2 11.27,-0.47 0,0 -8.51,0.16 -9.18,0.62 -0.67,0.46 0.2,0.92 0.2,0.92"
       id="path11176"
       style="fill:url(#linearGradient11486);stroke-width:0.928861" />
    <path
       class="cls-24"
       d="m 29.82,21.48 c 0,0 -2.65,-0.86 -9.67,-1 -1.86,0 -3.88,0.16 -4,0.5 -0.12,0.34 1.06,0.4 3,0.39 a 66.83,66.83 0 0 1 10.67,0.11 z"
       id="path11178"
       style="fill:url(#linear-gradient-17);stroke-width:0.928861" />
    <path
       class="cls-25"
       d="m 27.13,22.3 c 0,0 -3.85,-0.3 -6.25,-0.3 -2.4,0 -2.75,0.08 -2.71,0.4 0.04,0.32 0.9,0.46 2.2,0.34 1.3,-0.12 4.95,-0.39 6.76,-0.44 z"
       id="path11180"
       style="fill:url(#linear-gradient-18);stroke-width:0.928861" />
    <path
       class="cls-26"
       d="m 18.09,37.49 c -0.06,-0.52 1.05,-1 2.68,-1.09 1.63,-0.09 2.65,0.5 2.67,1 0.02,0.5 -2.25,1 -2.25,1 0,0 1.09,-0.51 1,-0.83 -0.09,-0.32 -0.8,-0.51 -1.73,-0.42 -0.93,0.09 -1.53,0.3 -1.51,0.54 0.02,0.24 1,0.45 1,0.45 0,0 -1.77,0.11 -1.86,-0.65 z"
       id="path11182"
       style="fill:url(#linear-gradient-19);stroke-width:0.928861" />
    <path
       class="cls-27"
       d="m 18.9,34.92 c -1.48,0 -2.38,0.58 -1.87,1.12 a 0.87,0.87 0 0 0 0.59,0.24 c 0,0 -0.51,-0.39 0.45,-0.68 a 6.72,6.72 0 0 1 3.33,0 4.9,4.9 0 0 0 -2.5,-0.68 z"
       id="path11184"
       style="fill:url(#linear-gradient-20);stroke-width:0.928861" />
    <path
       class="cls-28"
       d="m 19.88,39.91 c -0.55,0 -1.15,-0.45 -0.48,-1 a 3,3 0 0 1 2.88,-0.46 c 0.67,0.45 -0.31,0.87 -0.31,0.87 0,0 0.32,-0.37 -0.16,-0.41 -0.48,-0.04 -1.7,0.21 -1.87,0.53 -0.17,0.32 0.8,0.29 0.8,0.29 a 1.25,1.25 0 0 1 -0.86,0.18 z"
       id="path11186"
       style="fill:url(#linear-gradient-21);stroke-width:0.928861" />
    <path
       class="cls-29"
       d="m 20.85,41.13 c -0.5,0.16 -1,-0.25 -0.57,-0.81 0.43,-0.56 1.69,-0.73 2,-0.33 0.31,0.4 -0.57,0.77 -0.57,0.77 0,0 0.26,-0.43 -0.34,-0.3 -0.6,0.13 -0.88,0.6 -0.52,0.67 z"
       id="path11188"
       style="fill:url(#linear-gradient-22);stroke-width:0.928861" />
    <path
       class="cls-30"
       d="m 24.36,14.77 c -11.65,-1.26 -19.93,0.9 -17.15,2.61 1.3,0.8 3,0.82 5.68,1.28 0,-0.1 -0.57,-0.32 -0.33,-0.37 a 9.15,9.15 0 0 1 -2.4,-0.63 c -2.21,-1.14 4.11,-2.31 13,-1.5 7.71,0.71 13.06,3 11.32,3.42 a 19.93,19.93 0 0 1 -2.37,0.24 v 0 l 0.49,0.08 a 2.78,2.78 0 0 1 0.46,0.13 17.41,17.41 0 0 0 3,-0.32 c 2.39,-0.59 -3.06,-4 -11.7,-4.94 z"
       id="path11190"
       style="fill:url(#linear-gradient-23);stroke-width:0.928861" />
    <path
       class="cls-31"
       d="M 11.82,22.07 C 9.42,21.84 7.2,21.12 8.03,20.35 c 0.83,-0.77 5,-2.59 14.17,-2.3 8.47,0.26 13.48,2.78 14.76,3.53 1.72,1 1.06,2.61 -5.09,2.79 l -0.81,-0.55 a 13.3,13.3 0 0 0 3.57,-0.75 c 0.74,-0.49 -2.69,-2.89 -11.94,-3.37 -9.25,-0.48 -12.26,0.87 -12.26,1.46 0,0.59 1.39,0.91 1.39,0.91 z"
       id="path11192"
       style="fill:url(#linear-gradient-24);stroke-width:0.928861" />
    <g
       class="cls-32"
       clip-path="url(#clip-path-3)"
       id="g11206"
       style="stroke-width:0.928861">
      <polygon
         class="cls-33"
         points="10.71,17.07 8.61,17.02 8.35,20.97 5.46,22.96 8.55,24.46 9.26,28.34 11.36,28.39 13.39,25.56 14.74,25.72 16.85,25.78 15.1,22.41 16.45,18.79 14.35,18.73 12.71,19.2 "
         id="polygon11194" />
      <polygon
         class="cls-34"
         points="10.71,17.07 13.2,19.72 11.1,19.66 8.61,17.02 "
         id="polygon11196"
         style="fill:url(#linear-gradient-25);stroke-width:0.928861" />
      <polygon
         class="cls-35"
         points="16.45,18.79 15.1,22.41 12.99,22.35 14.35,18.73 "
         id="polygon11198"
         style="fill:url(#linearGradient11488);stroke-width:0.928861" />
      <polygon
         class="cls-36"
         points="16.85,25.78 14.75,25.72 12.99,22.35 15.1,22.41 "
         id="polygon11200"
         style="fill:url(#linearGradient11490);stroke-width:0.928861" />
      <polygon
         class="cls-37"
         points="9.26,28.34 11.42,25.32 13.52,25.37 11.36,28.39 "
         id="polygon11202"
         style="fill:url(#linear-gradient-28);stroke-width:0.928861" />
      <polygon
         class="cls-38"
         points="11.42,25.32 9.26,28.34 8.55,24.46 5.46,22.96 8.35,20.97 8.61,17.02 11.1,19.66 14.35,18.73 12.99,22.35 14.75,25.72 "
         id="polygon11204"
         style="fill:url(#linear-gradient-29);stroke-width:0.928861" />
    </g>
    <path
       class="cls-39"
       d="m 20,27.43 c 0,0 -6.1,0.45 -6.74,-0.73 -0.52,-0.94 2.55,-3 10.39,-3.51 6.78,-0.46 10.2,0.72 10,2 -0.2,0.94 -2.69,2.07 -6,2.3 L 27,27.29 c 0,0 3.4,-0.85 3.73,-1.88 0.33,-1.03 -4.35,-1.07 -9,-0.59 -4.65,0.48 -6.26,1.4 -6,1.88 0.26,0.48 2.9,0.72 4.21,0.73"
       id="path11208"
       style="fill:url(#linear-gradient-30);stroke-width:0.928861" />
    <path
       class="cls-40"
       d="m 27.8,25.82 a 20.45,20.45 0 0 0 -5.44,-0.05 18.27,18.27 0 0 0 -3.91,0.78 25.37,25.37 0 0 1 5.21,-0.23 c 0.87,0.2 -1.13,0.34 -1.94,0.81 -0.81,0.47 6.22,-0.29 9.17,1.33 0,0 -1.21,-1.62 -6,-1.45 -1,0.09 -0.81,-0.15 1,-0.46 1.81,-0.31 3.18,-0.55 1.91,-0.73 z"
       id="path11210"
       style="fill:url(#linear-gradient-31);stroke-width:0.928861" />
    <path
       class="cls-41"
       d="m 20.94,41.63 c 0,0 0,0 0,0.06 a 0.34,0.34 0 0 0 0.24,0.45 c 0.26,0 0.54,0.29 0.21,0.67 a 1.27,1.27 0 0 0 0.54,-0.55 0.46,0.46 0 0 0 0,-0.47 C 21.85,41.67 21.63,41.6 21.67,41.4 a 0.37,0.37 0 0 1 0.18,-0.23 1.5,1.5 0 0 0 -0.47,0.08 0.86,0.86 0 0 0 -0.44,0.38 z"
       id="path11212"
       style="fill:url(#linear-gradient-32);stroke-width:0.928861" />
    <circle
       class="cls-42"
       cx="41.889999"
       cy="7.6199999"
       r="0.31999999"
       id="circle11214"
       style="stroke-width:0.928861" />
    <circle
       class="cls-43"
       cx="26.299999"
       cy="9.8699999"
       r="0.76999998"
       id="circle11216"
       style="stroke-width:0.928861" />
  </g>
</svg>
