<?xml version="1.0" encoding="UTF-8" standalone="no"?>
<svg
   viewBox="0 0 48 48"
   version="1.1"
   id="svg36"
   sodipodi:docname="7-Visualize Geometry-dop.svg"
   inkscape:version="1.3-dev (fdc7329b, 2022-05-31)"
   xmlns:inkscape="http://www.inkscape.org/namespaces/inkscape"
   xmlns:sodipodi="http://sodipodi.sourceforge.net/DTD/sodipodi-0.dtd"
   xmlns:xlink="http://www.w3.org/1999/xlink"
   xmlns="http://www.w3.org/2000/svg"
   xmlns:svg="http://www.w3.org/2000/svg">
  <sodipodi:namedview
     id="namedview36"
     pagecolor="#ffffff"
     bordercolor="#000000"
     borderopacity="0.25"
     inkscape:showpageshadow="2"
     inkscape:pageopacity="0.0"
     inkscape:pagecheckerboard="0"
     inkscape:deskcolor="#d1d1d1"
     showgrid="false"
     inkscape:zoom="19.666667"
     inkscape:cx="21.788135"
     inkscape:cy="23.644067"
     inkscape:window-width="2560"
     inkscape:window-height="1377"
     inkscape:window-x="-8"
     inkscape:window-y="-8"
     inkscape:window-maximized="1"
     inkscape:current-layer="svg36" />
  <defs
     id="defs20">
    <linearGradient
       inkscape:collect="always"
       id="linearGradient22">
      <stop
         style="stop-color:#5f8ecc;stop-opacity:1;"
         offset="0"
         id="stop21" />
      <stop
         style="stop-color:#1e3d62;stop-opacity:1;"
         offset="1"
         id="stop22" />
    </linearGradient>
    <linearGradient
       inkscape:collect="always"
       id="linearGradient65">
      <stop
         style="stop-color:#000000;stop-opacity:1;"
         offset="0"
         id="stop64" />
      <stop
         style="stop-color:#000000;stop-opacity:0;"
         offset="1"
         id="stop65" />
    </linearGradient>
    <linearGradient
       inkscape:collect="always"
       id="linearGradient57">
      <stop
         style="stop-color:#ffffff;stop-opacity:1;"
         offset="0"
         id="stop56" />
      <stop
         style="stop-color:#ffffff;stop-opacity:0;"
         offset="1"
         id="stop57" />
    </linearGradient>
    <linearGradient
       inkscape:collect="always"
       id="linearGradient55">
      <stop
         style="stop-color:#9ebdde;stop-opacity:1;"
         offset="0"
         id="stop54" />
      <stop
         style="stop-color:#9ebdde;stop-opacity:0;"
         offset="1"
         id="stop55" />
    </linearGradient>
    <linearGradient
       inkscape:collect="always"
       id="linearGradient52">
      <stop
         style="stop-color:#245499;stop-opacity:1;"
         offset="0"
         id="stop51" />
      <stop
         style="stop-color:#8fb2da;stop-opacity:1;"
         offset="1"
         id="stop52" />
    </linearGradient>
    <linearGradient
       inkscape:collect="always"
       id="linearGradient50">
      <stop
         style="stop-color:#204a87;stop-opacity:1;"
         offset="0"
         id="stop49" />
      <stop
         style="stop-color:#204a87;stop-opacity:0;"
         offset="1"
         id="stop50" />
    </linearGradient>
    <linearGradient
       inkscape:collect="always"
       id="linearGradient48">
      <stop
         style="stop-color:#ffffff;stop-opacity:1;"
         offset="0"
         id="stop47" />
      <stop
         style="stop-color:#ffffff;stop-opacity:0;"
         offset="1"
         id="stop48" />
    </linearGradient>
    <linearGradient
       inkscape:collect="always"
       id="linearGradient46">
      <stop
         style="stop-color:#ffffff;stop-opacity:1;"
         offset="0"
         id="stop45" />
      <stop
         style="stop-color:#ffffff;stop-opacity:0;"
         offset="1"
         id="stop46" />
    </linearGradient>
    <style
       id="style1">.cls-1,.cls-12,.cls-19,.cls-21{fill:none;}.cls-2{isolation:isolate;}.cls-3{fill:url(#radial-gradient);}.cls-4{fill:url(#linear-gradient);}.cls-5{fill:url(#linear-gradient-2);}.cls-6{fill:url(#linear-gradient-3);}.cls-7{fill:url(#linear-gradient-4);}.cls-8{fill:url(#linear-gradient-5);}.cls-9{fill:url(#linear-gradient-6);}.cls-10{fill:url(#linear-gradient-7);}.cls-11{fill:url(#linear-gradient-9);}.cls-12{stroke:#900004;}.cls-12,.cls-19,.cls-20{stroke-miterlimit:10;}.cls-12,.cls-19,.cls-21{stroke-width:0.7px;}.cls-13{clip-path:url(#clip-path);}.cls-14{fill:url(#radial-gradient-2);}.cls-15,.cls-17,.cls-18{opacity:0.9;}.cls-15{fill:url(#linear-gradient-10);}.cls-16{mix-blend-mode:multiply;fill:url(#radial-gradient-3);}.cls-17{fill:url(#linear-gradient-11);}.cls-18{fill:url(#linear-gradient-12);}.cls-19{stroke:#204a87;}.cls-20{fill:#fff;stroke:#729fcf;stroke-width:0.5px;}.cls-21{stroke:#edd400;stroke-linecap:round;stroke-linejoin:round;}</style>
    <radialGradient
       id="radial-gradient"
       cx="-36.01"
       cy="-13.79"
       r="20.89"
       gradientTransform="matrix(1.02,0,0,-0.44,60.9,32.39)"
       gradientUnits="userSpaceOnUse">
      <stop
         offset="0.4"
         stop-opacity="0.67"
         id="stop1" />
      <stop
         offset="1"
         stop-opacity="0"
         id="stop2" />
    </radialGradient>
    <linearGradient
       id="linear-gradient"
       x1="23.82"
       y1="39.89"
       x2="24.45"
       y2="21.8"
       gradientUnits="userSpaceOnUse">
      <stop
         offset="0"
         stop-color="#e70e20"
         id="stop3" />
      <stop
         offset="1"
         stop-color="#f8babb"
         id="stop4" />
    </linearGradient>
    <linearGradient
       id="linear-gradient-2"
       x1="23.86"
       y1="20.86"
       x2="25.4"
       y2="51.08"
       gradientUnits="userSpaceOnUse"
       gradientTransform="matrix(1.1403046,0,0,1.1402902,-3.3832685,-6.225681)">
      <stop
         offset="0"
         stop-color="#e70e20"
         stop-opacity="0.4"
         id="stop5" />
      <stop
         offset="1"
         stop-color="#f8babb"
         id="stop6" />
    </linearGradient>
    <linearGradient
       id="linear-gradient-3"
       x1="35.89"
       y1="20.28"
       x2="40.29"
       y2="29.2"
       xlink:href="#linear-gradient"
       gradientTransform="matrix(1.1403046,0,0,1.1402902,-3.3832685,-6.225681)" />
    <linearGradient
       id="linear-gradient-4"
       x1="15.17"
       y1="20"
       x2="6.67"
       y2="30.51"
       xlink:href="#linear-gradient"
       gradientTransform="matrix(1.1403046,0,0,1.1402902,-3.3832685,-6.225681)" />
    <linearGradient
       id="linear-gradient-5"
       x1="36.07"
       y1="28.45"
       x2="35.61"
       y2="33.23"
       gradientUnits="userSpaceOnUse">
      <stop
         offset="0"
         stop-color="#72000b"
         stop-opacity="0"
         id="stop7" />
      <stop
         offset="1"
         stop-color="#72000b"
         id="stop8" />
    </linearGradient>
    <linearGradient
       id="linear-gradient-6"
       x1="3.67"
       y1="30"
       x2="2.02"
       y2="47.16"
       xlink:href="#linear-gradient-5"
       gradientTransform="matrix(1.1403046,0,0,1.1402902,-3.3832685,-6.225681)" />
    <linearGradient
       id="linear-gradient-7"
       x1="24.11"
       y1="31.96"
       x2="22.46"
       y2="49.13"
       xlink:href="#linear-gradient-5"
       gradientTransform="matrix(1.1403046,0,0,1.1402902,-3.3832685,-6.225681)" />
    <linearGradient
       id="linear-gradient-9"
       x1="11.38"
       y1="27.14"
       x2="16.63"
       y2="31.9"
       xlink:href="#linear-gradient-5"
       gradientTransform="matrix(1.1403046,0,0,1.1402902,-3.3832685,-6.225681)" />
    <radialGradient
       id="radial-gradient-2"
       cx="25.35"
       cy="15.72"
       r="17.54"
       gradientUnits="userSpaceOnUse">
      <stop
         offset="0"
         stop-color="#f3f9f9"
         id="stop9" />
      <stop
         offset="0.09"
         stop-color="#eaf2f6"
         id="stop10" />
      <stop
         offset="0.38"
         stop-color="#a2bede"
         id="stop11" />
      <stop
         offset="0.87"
         stop-color="#285092"
         id="stop12" />
      <stop
         offset="1"
         stop-color="#3465a4"
         id="stop13" />
    </radialGradient>
    <linearGradient
       id="linear-gradient-10"
       x1="22.23"
       y1="27.35"
       x2="26.75"
       y2="9.82"
       gradientUnits="userSpaceOnUse">
      <stop
         offset="0"
         stop-color="#729fcf"
         stop-opacity="0"
         id="stop14" />
      <stop
         offset="1"
         stop-color="snow"
         id="stop15" />
    </linearGradient>
    <radialGradient
       id="radial-gradient-3"
       cx="25.29"
       cy="16.94"
       r="18.64"
       gradientUnits="userSpaceOnUse">
      <stop
         offset="0"
         stop-color="#00255d"
         stop-opacity="0"
         id="stop16" />
      <stop
         offset="0.62"
         stop-color="#00255d"
         stop-opacity="0.03"
         id="stop17" />
      <stop
         offset="1"
         stop-color="#00255d"
         id="stop18" />
    </radialGradient>
    <linearGradient
       id="linear-gradient-11"
       x1="20.95"
       y1="19.1"
       x2="16.13"
       y2="13.91"
       gradientUnits="userSpaceOnUse">
      <stop
         offset="0"
         stop-color="#729fcf"
         stop-opacity="0"
         id="stop19" />
      <stop
         offset="1"
         stop-color="snow"
         id="stop20" />
    </linearGradient>
    <linearGradient
       id="linear-gradient-12"
       x1="29.45"
       y1="26.58"
       x2="34.09"
       y2="17.96"
       xlink:href="#linear-gradient-11"
       gradientTransform="matrix(1.1403046,0,0,1.1402902,-3.3832687,-6.2256809)" />
    <linearGradient
       inkscape:collect="always"
       xlink:href="#linear-gradient"
       id="linearGradient36"
       gradientUnits="userSpaceOnUse"
       x1="23.82"
       y1="39.89"
       x2="24.45"
       y2="21.8"
       gradientTransform="matrix(1.1403046,0,0,1.1402902,-3.3832685,-6.225681)" />
    <linearGradient
       inkscape:collect="always"
       xlink:href="#linear-gradient-5"
       id="linearGradient37"
       gradientUnits="userSpaceOnUse"
       x1="36.07"
       y1="28.45"
       x2="35.61"
       y2="33.23"
       gradientTransform="matrix(1.1403046,0,0,1.1402902,-3.3832685,-6.225681)" />
    <linearGradient
       inkscape:collect="always"
       xlink:href="#linear-gradient-5"
       id="linearGradient38"
       x1="24.11"
       y1="31.96"
       x2="22.46"
       y2="49.13"
       gradientTransform="matrix(1.1403046,0,0,1.1402902,-3.3832685,-6.225681)" />
    <linearGradient
       inkscape:collect="always"
       xlink:href="#linear-gradient-11"
       id="linearGradient39"
       gradientUnits="userSpaceOnUse"
       x1="20.95"
       y1="19.1"
       x2="16.13"
       y2="13.91"
       gradientTransform="matrix(1.1403046,0,0,1.1402902,-3.3832687,-6.2256809)" />
    <radialGradient
       inkscape:collect="always"
       xlink:href="#linearGradient46"
       id="radialGradient46"
       cx="19.535619"
       cy="9.8476659"
       fx="19.535619"
       fy="9.8476659"
       r="6.1262733"
       gradientTransform="matrix(1.1403046,0,0,1.1540289,-3.3832685,-6.3609747)"
       gradientUnits="userSpaceOnUse" />
    <radialGradient
       inkscape:collect="always"
       xlink:href="#linearGradient48"
       id="radialGradient48"
       cx="36.264345"
       cy="24.235125"
       fx="36.264345"
       fy="24.235125"
       r="3.0643454"
       gradientTransform="matrix(1.1403046,0,0,1.5003491,-3.3832685,-14.951748)"
       gradientUnits="userSpaceOnUse" />
    <radialGradient
       inkscape:collect="always"
       xlink:href="#linearGradient50"
       id="radialGradient50"
       cx="23.979704"
       cy="31.871315"
       fx="23.979704"
       fy="31.871315"
       r="13.65003"
       gradientTransform="matrix(1.6208798,-0.00901068,0.00331829,0.59689295,-15.00381,9.4798941)"
       gradientUnits="userSpaceOnUse" />
    <radialGradient
       inkscape:collect="always"
       xlink:href="#linearGradient52"
       id="radialGradient52"
       cx="24"
       cy="21.84"
       fx="24"
       fy="21.84"
       r="13.78"
       gradientUnits="userSpaceOnUse"
       gradientTransform="matrix(1.1403046,0,0,1.1402902,-3.3832687,-6.2256809)" />
    <radialGradient
       inkscape:collect="always"
       xlink:href="#linearGradient55"
       id="radialGradient55"
       cx="24.854548"
       cy="2.75652"
       fx="24.854548"
       fy="2.75652"
       r="13.285"
       gradientTransform="matrix(-1.0808601,0.3633628,-0.32404315,-0.96387557,52.716007,-2.5209221)"
       gradientUnits="userSpaceOnUse" />
    <radialGradient
       inkscape:collect="always"
       xlink:href="#linearGradient57"
       id="radialGradient57"
       cx="18.318859"
       cy="21.23118"
       fx="18.318859"
       fy="21.23118"
       r="1.4561605"
       gradientUnits="userSpaceOnUse"
       gradientTransform="matrix(1.1403046,0,0,1.1402902,3.125206,-5.1578845)" />
    <radialGradient
       inkscape:collect="always"
       xlink:href="#linearGradient57"
       id="radialGradient58"
       gradientUnits="userSpaceOnUse"
       cx="18.318859"
       cy="21.23118"
       fx="18.318859"
       fy="21.23118"
       r="1.4561605"
       gradientTransform="matrix(1.1403046,0,0,1.1402902,10.003643,-0.06397383)" />
    <radialGradient
       inkscape:collect="always"
       xlink:href="#linearGradient57"
       id="radialGradient59"
       gradientUnits="userSpaceOnUse"
       gradientTransform="matrix(1.1403046,0,0,1.1402902,1.5336323,-8.6656747)"
       cx="18.318859"
       cy="21.23118"
       fx="18.318859"
       fy="21.23118"
       r="1.4561605" />
    <radialGradient
       inkscape:collect="always"
       xlink:href="#linearGradient57"
       id="radialGradient60"
       gradientUnits="userSpaceOnUse"
       gradientTransform="matrix(1.1403046,0,0,1.1402902,10.638449,-4.8317265)"
       cx="18.318859"
       cy="21.23118"
       fx="18.318859"
       fy="21.23118"
       r="1.4561605" />
    <radialGradient
       inkscape:collect="always"
       xlink:href="#linearGradient57"
       id="radialGradient61"
       gradientUnits="userSpaceOnUse"
       gradientTransform="matrix(1.1403046,0,0,1.1402902,4.816566,-6.4716728)"
       cx="18.318859"
       cy="21.23118"
       fx="18.318859"
       fy="21.23118"
       r="1.4561605" />
    <radialGradient
       inkscape:collect="always"
       xlink:href="#linearGradient57"
       id="radialGradient62"
       gradientUnits="userSpaceOnUse"
       gradientTransform="matrix(1.1403046,0,0,1.1402902,5.7185479,1.5640644)"
       cx="18.318859"
       cy="21.23118"
       fx="18.318859"
       fy="21.23118"
       r="1.4561605" />
    <radialGradient
       inkscape:collect="always"
       xlink:href="#linearGradient57"
       id="radialGradient63"
       gradientUnits="userSpaceOnUse"
       gradientTransform="matrix(1.1403046,0,0,1.1402902,7.2536078,-4.6631494)"
       cx="18.318859"
       cy="21.23118"
       fx="18.318859"
       fy="21.23118"
       r="1.4561605" />
    <radialGradient
       inkscape:collect="always"
       xlink:href="#linearGradient57"
       id="radialGradient64"
       gradientUnits="userSpaceOnUse"
       gradientTransform="matrix(1.1403046,0,0,1.1402902,6.1695387,-11.104521)"
       cx="18.318859"
       cy="21.23118"
       fx="18.318859"
       fy="21.23118"
       r="1.4561605" />
    <radialGradient
       inkscape:collect="always"
       xlink:href="#linearGradient65"
       id="radialGradient65"
       cx="24.105"
       cy="38.395"
       fx="24.105"
       fy="38.395"
       r="21.345"
       gradientTransform="matrix(1.0847115,0,0,0.4621877,-1.9956814,20.17173)"
       gradientUnits="userSpaceOnUse" />
    <linearGradient
       inkscape:collect="always"
       xlink:href="#linearGradient22"
       id="linearGradient23"
       x1="13.131809"
       y1="13.120926"
       x2="34.118168"
       y2="30.887211"
       gradientUnits="userSpaceOnUse"
       gradientTransform="matrix(1.1403046,0,0,1.1402902,-3.3832687,-6.2256809)" />
    <radialGradient
       inkscape:collect="always"
       xlink:href="#linearGradient57"
       id="radialGradient8"
       gradientUnits="userSpaceOnUse"
       gradientTransform="matrix(1.1403046,0,0,1.1402902,-31.686139,1.6737878)"
       cx="18.318859"
       cy="21.23118"
       fx="18.318859"
       fy="21.23118"
       r="1.4561605" />
    <radialGradient
       inkscape:collect="always"
       xlink:href="#linearGradient57"
       id="radialGradient9"
       gradientUnits="userSpaceOnUse"
       gradientTransform="matrix(1.1403046,0,0,1.1402902,-26.714401,6.2116188)"
       cx="18.318859"
       cy="21.23118"
       fx="18.318859"
       fy="21.23118"
       r="1.4561605" />
    <radialGradient
       inkscape:collect="always"
       xlink:href="#linearGradient57"
       id="radialGradient10"
       gradientUnits="userSpaceOnUse"
       gradientTransform="matrix(1.1403046,0,0,1.1402902,-27.944376,10.557477)"
       cx="18.318859"
       cy="21.23118"
       fx="18.318859"
       fy="21.23118"
       r="1.4561605" />
    <radialGradient
       inkscape:collect="always"
       xlink:href="#linearGradient57"
       id="radialGradient11"
       gradientUnits="userSpaceOnUse"
       gradientTransform="matrix(1.1403046,0,0,1.1402902,-28.846358,2.5217395)"
       cx="18.318859"
       cy="21.23118"
       fx="18.318859"
       fy="21.23118"
       r="1.4561605" />
    <radialGradient
       inkscape:collect="always"
       xlink:href="#linearGradient57"
       id="radialGradient12"
       gradientUnits="userSpaceOnUse"
       gradientTransform="matrix(1.1403046,0,0,1.1402902,-23.024475,4.1616858)"
       cx="18.318859"
       cy="21.23118"
       fx="18.318859"
       fy="21.23118"
       r="1.4561605" />
    <radialGradient
       inkscape:collect="always"
       xlink:href="#linearGradient57"
       id="radialGradient13"
       gradientUnits="userSpaceOnUse"
       gradientTransform="matrix(1.1403046,0,0,1.1402902,-38.580425,-3.5428823)"
       cx="18.318859"
       cy="21.23118"
       fx="18.318859"
       fy="21.23118"
       r="1.4561605" />
    <radialGradient
       inkscape:collect="always"
       xlink:href="#linearGradient57"
       id="radialGradient14"
       gradientUnits="userSpaceOnUse"
       gradientTransform="matrix(1.1403046,0,0,1.1402902,-26.355163,-1.345309)"
       cx="18.318859"
       cy="21.23118"
       fx="18.318859"
       fy="21.23118"
       r="1.4561605" />
    <radialGradient
       inkscape:collect="always"
       xlink:href="#linearGradient57"
       id="radialGradient15"
       gradientUnits="userSpaceOnUse"
       gradientTransform="matrix(1.1403046,0,0,1.1402902,-30.423622,6.1119057)"
       cx="18.318859"
       cy="21.23118"
       fx="18.318859"
       fy="21.23118"
       r="1.4561605" />
  </defs>
  <path
     id="ellipse4139"
     class="cls-3"
     d="m 47.304457,37.912004 c 0,5.423527 -10.369842,9.87082 -23.158591,9.87082 v 0 c -12.777901,0 -23.14774365,-4.425599 -23.14774365,-9.87082 0,-5.445222 10.36984265,-9.859973 23.14774365,-9.859973 v 0 c 12.788749,0 23.158591,4.414751 23.158591,9.859973 z"
     style="isolation:isolate;fill:url(#radialGradient65);fill-opacity:1;stroke-width:1"
     clip-path="none" />
  <path
     class="cls-4"
     d="m 0.53937917,30.594291 c 0.42191273,0.615757 0.86663143,1.231514 1.32275323,1.824465 2.497267,3.341049 8.3584326,6.910158 12.4065136,8.540773 1.98413,0.809606 10.604832,3.899793 10.604832,3.899793 a 15.120438,15.120248 0 0 0 5.017341,-0.581548 35.919593,35.919142 0 0 0 6.841828,-2.953352 27.07083,27.07049 0 0 0 4.709457,-3.956806 c 1.277141,-1.242917 4.652442,-3.204217 6.146242,-7.297858 -2.406043,-3.420871 -6.203257,-5.701452 -10.182919,-7.434693 -2.440253,-1.060469 -4.97173,-1.892882 -7.503205,-2.736696 l -5.450656,-1.835868 a 2.3946396,2.3946095 0 0 0 -0.752601,-0.15964 2.2806091,2.2805805 0 0 0 -0.832422,0.205252 c -4.823489,1.801659 -9.749604,3.192812 -14.0713588,5.997927 -3.4437198,2.234969 -5.9523899,3.238423 -8.25580503,6.488251 z"
     id="path20"
     style="isolation:isolate;fill:url(#linearGradient36);stroke-width:1"
     clip-path="none" />
  <path
     class="cls-5"
     d="m 21.463969,31.039004 a 1.5394112,1.5393918 0 0 0 0.399106,0.06842 c 1.19732,0 2.577088,-0.364893 3.808617,-0.410504 2.622701,-0.125433 5.040147,0 7.491802,-1.014859 a 11.471464,11.471319 0 0 1 5.701522,-0.878024 1.6876507,1.6876295 0 0 1 1.140304,0.433311 1.4367838,1.4367657 0 0 1 0.136836,1.391153 3.8200202,3.8199723 0 0 1 -1.835889,2.143747 c -0.809617,0.444712 -1.858697,0.376294 -2.622701,0.94644 -0.764005,0.570146 -0.878035,1.402557 -1.516605,1.915687 a 5.27961,5.2795438 0 0 1 -2.394639,0.695578 8.6321055,8.6319971 0 0 0 -4.41298,2.930546 c -0.387703,0.43331 -0.866631,0.923635 -1.45959,0.878023 A 1.778875,1.7788528 0 0 1 25.124346,39.819241 7.3663674,7.3662749 0 0 0 22.387615,38.564922 16.112503,16.112301 0 0 0 19.82193,38.678951 5.769941,5.7698686 0 0 1 16.822929,37.880747 24.288487,24.288182 0 0 0 14.736172,36.5124 c -1.140306,-0.54734 -2.349029,-0.387699 -3.420915,-1.140291 a 1.5508141,1.5507947 0 0 1 -0.798212,-1.265722 c 0,-0.250863 0.136835,-0.478922 0.14824,-0.729785 0,-1.071874 -1.881504,-1.413961 -1.8016826,-2.485833 a 1.1403046,1.1402902 0 0 1 0.8780345,-0.912233 7.4803979,7.480304 0 0 1 1.3455601,-0.136834 c 0.695586,-0.06842 1.368366,-0.307879 2.063951,-0.376296 a 9.3162882,9.3161712 0 0 1 1.778876,0.102622 c 1.505201,0.182447 2.999,0.273671 4.492799,0.456116 0.684183,0.07982 1.288544,0.786801 2.041146,1.01486 z"
     id="path21"
     style="isolation:isolate;fill:url(#linear-gradient-2);stroke-width:1"
     clip-path="none" />
  <path
     class="cls-6"
     d="m 47.018192,29.260152 -2.873567,-0.535937 a 1.1403046,1.1402902 0 0 1 -0.558748,-0.205253 1.3911715,1.3911541 0 0 1 -0.330688,-0.67277 3.512138,3.5120939 0 0 0 -2.063952,-1.927091 10.867103,10.866966 0 0 0 -2.850761,-0.535937 7.9821319,7.9820316 0 0 0 0.615763,-2.086731 23.581498,23.581203 0 0 1 8.061953,5.963719 z"
     id="path22"
     style="isolation:isolate;fill:url(#linear-gradient-3);stroke-width:1"
     clip-path="none" />
  <path
     class="cls-7"
     d="M 8.019777,24.710394 8.5899293,24.3455 c 0.3534944,-0.23946 0.8210196,-0.490324 1.1403047,-0.285071 0,0.23946 -0.1938518,0.43331 -0.3763008,0.581547 -0.8210191,0.649966 -1.4595897,1.539392 -2.2806089,2.143746 -0.8210193,0.604354 -1.9271147,0.855218 -2.8279553,1.436766 -1.2087229,0.775396 -1.9271148,1.92709 -3.42091367,2.04112 0.26226997,0 1.39117147,-1.60781 1.66484467,-1.870077 a 16.454595,16.454388 0 0 1 1.9157116,-1.550795 c 1.1631106,-0.7868 2.4744609,-1.402558 3.6147654,-2.132342 z"
     id="path23"
     style="isolation:isolate;fill:url(#linear-gradient-4);stroke-width:1"
     clip-path="none" />
  <path
     class="cls-8"
     d="m 33.163494,31.278465 c 0,0 2.793745,-2.098134 4.424381,-2.280581 1.630635,-0.182445 2.36043,-2.041119 4.093693,-1.413958 0.980663,0.410503 0.52454,-0.627161 -1.756069,-1.140292 a 8.3242233,8.3241187 0 0 0 -4.287544,0.285073 l -2.736732,2.39461 z"
     id="path24"
     style="isolation:isolate;fill:url(#linearGradient37);stroke-width:1"
     clip-path="none" />
  <path
     class="cls-9"
     d="M 0.57358825,30.548679 Z"
     id="path25"
     style="isolation:isolate;fill:url(#linear-gradient-6);stroke-width:1"
     clip-path="none" />
  <path
     class="cls-10"
     d="m 47.645361,30.069758 v 0 c -1.493799,4.082238 -4.869101,6.043538 -6.146242,7.286455 a 26.580499,26.580165 0 0 1 -4.709458,3.956806 36.022221,36.021769 0 0 1 -6.910245,2.953352 14.607301,14.607117 0 0 1 -4.994535,0.570145 c 0,0 -8.632105,-3.078783 -10.616235,-3.88839 C 10.220565,39.385929 4.3593994,35.759805 1.8507294,32.418756 1.4060106,31.825805 0.97269493,31.210048 0.53937917,30.594291 v 0 0 a 26.626111,26.625776 0 0 1 5.26820703,2.622668 c 2.8279553,1.835867 4.1050966,4.56116 9.7039928,5.701451 5.598895,1.140291 8.267207,1.961299 9.92065,3.420871 a 36.136251,36.135797 0 0 0 11.403044,-4.686594 c 5.074356,-3.42087 6.727798,-8.153075 10.810088,-7.54872 z"
     id="path26"
     style="isolation:isolate;fill:url(#linearGradient38);stroke-width:1"
     clip-path="none" />
  <path
     class="cls-10"
     d="m 47.645361,30.069758 v 0 c -1.493799,4.082238 -4.869101,6.043538 -6.146242,7.286455 a 26.580499,26.580165 0 0 1 -4.709458,3.956806 36.022221,36.021769 0 0 1 -6.910245,2.953352 14.607301,14.607117 0 0 1 -4.994535,0.570145 c 0,0 -8.632105,-3.078783 -10.616235,-3.88839 C 10.220565,39.385929 4.3593994,35.759805 1.8507294,32.418756 1.4060106,31.825805 0.97269493,31.210048 0.53937917,30.594291 v 0 0 a 26.626111,26.625776 0 0 1 5.26820703,2.622668 c 2.8279553,1.835867 4.1050966,4.56116 9.7039928,5.701451 5.598895,1.140291 8.267207,1.961299 9.92065,3.420871 a 36.136251,36.135797 0 0 0 11.403044,-4.686594 c 5.074356,-3.42087 6.727798,-8.153075 10.810088,-7.54872 z"
     id="path27"
     style="isolation:isolate;fill:url(#linear-gradient-7);stroke-width:1"
     clip-path="none" />
  <path
     class="cls-11"
     d="M 9.7416369,24.767408 A 2.7253279,2.7252937 0 0 0 8.259241,26.66029 C 8.1566136,27.162018 8.1566136,27.80058 7.76891,28.062847 7.3812065,28.325113 6.4461568,28.233891 6.0926623,28.724215 a 7.6172343,7.6171387 0 0 1 2.4858639,0.23946 18.176454,18.176227 0 0 1 1.9043088,0.912234 c 2.143774,0.992051 4.686652,0.86662 6.613767,2.28058 a 1.1403046,1.1402902 0 0 0 0.63857,0.307878 0.83242232,0.83241188 0 0 0 0.399107,-0.171044 l 1.493799,-0.980648 a 3.2270619,3.2270214 0 0 0 1.391171,-1.425364 2.9647919,2.9647546 0 0 0 -0.923646,-2.827919 z"
     id="path28"
     style="isolation:isolate;fill:url(#linear-gradient-9);stroke-width:1"
     clip-path="none" />
  <path
     class="cls-12"
     d="m 0.53937917,30.594291 c 0.42191273,0.615757 0.86663143,1.231514 1.32275323,1.824465 2.497267,3.341049 8.3584326,6.910158 12.4065136,8.540773 1.98413,0.809606 10.604832,3.899793 10.604832,3.899793 a 15.120438,15.120248 0 0 0 5.017341,-0.581548 35.919593,35.919142 0 0 0 6.841828,-2.953352 27.07083,27.07049 0 0 0 4.709457,-3.956806 c 1.277141,-1.242917 4.652442,-3.204217 6.146242,-7.297858 -2.406043,-3.420871 -6.203257,-5.701452 -10.182919,-7.434693 -2.440253,-1.060469 -4.97173,-1.892882 -7.503205,-2.736696 l -5.450656,-1.835868 a 2.3946396,2.3946095 0 0 0 -0.752601,-0.15964 2.2806091,2.2805805 0 0 0 -0.832422,0.205252 c -4.823489,1.801659 -9.749604,3.192812 -14.0713588,5.997927 -3.4437198,2.234969 -5.9523899,3.238423 -8.25580503,6.488251 z"
     id="path29"
     style="isolation:isolate"
     clip-path="none" />
  <path
     id="circle29"
     clip-path="none"
     style="isolation:isolate;fill:url(#radialGradient52);fill-opacity:1;stroke-width:1"
     class="cls-14"
     d="M 39.697438,18.678258 A 15.713397,15.713199 0 0 1 23.984041,34.391457 15.713397,15.713199 0 0 1 8.270644,18.678258 15.713397,15.713199 0 0 1 23.984041,2.9650589 15.713397,15.713199 0 0 1 39.697438,18.678258 Z" />
  <g
     id="g45"
     style="stroke-width:0.876965"
     transform="matrix(1.1403046,0,0,1.1402902,-3.3832688,-6.2256807)">
    <path
       class="cls-1"
       d="m 9.1,30.5 c 0,0 6.66,0.68 9.41,3.85 a 14.2,14.2 0 0 1 7,1.65 5.61,5.61 0 0 1 3.18,-2.38 c 2.52,-1 3.42,-0.73 3.42,-0.73 0,0 2.5,-2.81 5.56,-2.81 0,0 3.36,-9 0.55,-17 C 35.41,5.08 27.43,0.94 18.87,3.2 10.31,5.46 2.93,14.44 5,20.43 A 98.74,98.74 0 0 0 9.1,30.5 Z"
       id="path44"
       style="stroke-width:0.876965" />
  </g>
  <path
     class="cls-15"
     d="m 23.984041,2.9650585 a 15.701994,15.701796 0 0 0 -14.5844955,9.8635105 16.808089,16.807878 0 0 1 3.4209135,-1.892882 14.219597,14.219419 0 0 1 9.122437,-0.62716 c 5.302415,1.505183 9.327691,6.442641 14.823959,7.081203 A 9.7039919,9.7038698 0 0 0 39.697438,17.275701 15.701994,15.701796 0 0 0 23.984041,2.9650585 Z"
     id="path30"
     style="isolation:isolate;fill:url(#radialGradient55);fill-opacity:1;stroke-width:1"
     clip-path="none" />
  <g
     id="g44"
     style="stroke-width:0.876965"
     transform="matrix(1.1403046,0,0,1.1402902,-3.3832688,-6.2256807)">
    <path
       class="cls-1"
       d="m 9.1,30.5 c 0,0 6.66,0.68 9.41,3.85 a 14.2,14.2 0 0 1 7,1.65 5.61,5.61 0 0 1 3.18,-2.38 c 2.52,-1 3.42,-0.73 3.42,-0.73 0,0 2.5,-2.81 5.56,-2.81 0,0 3.36,-9 0.55,-17 C 35.41,5.08 27.43,0.94 18.87,3.2 10.31,5.46 2.93,14.44 5,20.43 A 98.74,98.74 0 0 0 9.1,30.5 Z"
       id="path43"
       style="stroke-width:0.876965" />
  </g>
  <path
     class="cls-16"
     d="M 39.412362,21.643013 A 15.701994,15.701796 0 0 1 8.2820469,18.678258 v -0.54734 c 1.1403046,5.450588 7.2751431,9.954734 14.9493931,10.627506 7.286546,0.627159 13.752073,-2.39461 16.180922,-7.115411 z"
     id="path31"
     style="isolation:isolate;fill:url(#radialGradient50);fill-opacity:1;stroke-width:1"
     clip-path="none" />
  <g
     id="g43"
     style="stroke-width:0.876965"
     transform="matrix(1.1403046,0,0,1.1402902,-3.3832688,-6.2256807)">
    <path
       class="cls-1"
       d="m 9.1,30.5 c 0,0 6.66,0.68 9.41,3.85 a 14.2,14.2 0 0 1 7,1.65 5.61,5.61 0 0 1 3.18,-2.38 c 2.52,-1 3.42,-0.73 3.42,-0.73 0,0 2.5,-2.81 5.56,-2.81 0,0 3.36,-9 0.55,-17 C 35.41,5.08 27.43,0.94 18.87,3.2 10.31,5.46 2.93,14.44 5,20.43 A 98.74,98.74 0 0 0 9.1,30.5 Z"
       id="path42"
       style="stroke-width:0.876965" />
  </g>
  <path
     class="cls-17"
     d="m 10.916151,15.257387 a 8.2215959,8.2214926 0 0 1 5.268207,-1.037664 C 16.366807,7.1271178 20.255245,5.2570417 20.255245,5.2570417 10.916151,8.9515822 10.916151,15.257387 10.916151,15.257387 Z"
     id="path32"
     style="isolation:isolate;fill:url(#linearGradient39);stroke-width:1"
     clip-path="none" />
  <g
     id="g42"
     style="stroke-width:0.876965"
     transform="matrix(1.1403046,0,0,1.1402902,-3.3832688,-6.2256807)">
    <path
       class="cls-1"
       d="m 9.1,30.5 c 0,0 6.66,0.68 9.41,3.85 a 14.2,14.2 0 0 1 7,1.65 5.61,5.61 0 0 1 3.18,-2.38 c 2.52,-1 3.42,-0.73 3.42,-0.73 0,0 2.5,-2.81 5.56,-2.81 0,0 3.36,-9 0.55,-17 C 35.41,5.08 27.43,0.94 18.87,3.2 10.31,5.46 2.93,14.44 5,20.43 A 98.74,98.74 0 0 0 9.1,30.5 Z"
       id="path41"
       style="stroke-width:0.876965" />
  </g>
  <path
     class="cls-18"
     d="M 33.631017,22.920137 A 5.4734619,5.4733932 0 0 0 37.667696,21.380746 13.421385,13.421216 0 0 0 34.816934,10.525183 3.728796,3.7287491 0 0 0 31.840739,9.9208292 c 0,0 3.728796,4.6409808 1.790278,12.9993078 z"
     id="path33"
     style="isolation:isolate;fill:url(#linear-gradient-12);stroke-width:1"
     clip-path="none" />
  <g
     id="g41"
     style="stroke-width:0.876965"
     transform="matrix(1.1403046,0,0,1.1402902,-3.3832688,-6.2256807)">
    <path
       class="cls-1"
       d="m 9.1,30.5 c 0,0 6.66,0.68 9.41,3.85 a 14.2,14.2 0 0 1 7,1.65 5.61,5.61 0 0 1 3.18,-2.38 c 2.52,-1 3.42,-0.73 3.42,-0.73 0,0 2.5,-2.81 5.56,-2.81 0,0 3.36,-9 0.55,-17 C 35.41,5.08 27.43,0.94 18.87,3.2 10.31,5.46 2.93,14.44 5,20.43 A 98.74,98.74 0 0 0 9.1,30.5 Z"
       id="path40"
       style="stroke-width:0.876965" />
  </g>
  <path
     id="circle33"
     clip-path="none"
     style="isolation:isolate;fill:none;stroke:url(#linearGradient23);stroke-width:0.700001px;stroke-miterlimit:10"
     class="cls-19"
     d="M 39.697438,18.678258 A 15.713397,15.713199 0 0 1 23.984041,34.391457 15.713397,15.713199 0 0 1 8.270644,18.678258 15.713397,15.713199 0 0 1 23.984041,2.9650589 15.713397,15.713199 0 0 1 39.697438,18.678258 Z" />
  <g
     id="g40"
     style="stroke-width:0.876965"
     transform="matrix(1.1403046,0,0,1.1402902,-3.3832688,-6.2256807)">
    <path
       class="cls-1"
       d="m 9.1,30.5 c 0,0 6.66,0.68 9.41,3.85 a 14.2,14.2 0 0 1 7,1.65 5.61,5.61 0 0 1 3.18,-2.38 c 2.52,-1 3.42,-0.73 3.42,-0.73 0,0 2.5,-2.81 5.56,-2.81 0,0 3.36,-9 0.55,-17 C 35.41,5.08 27.43,0.94 18.87,3.2 10.31,5.46 2.93,14.44 5,20.43 A 98.74,98.74 0 0 0 9.1,30.5 Z"
       id="path39"
       style="stroke-width:0.876965" />
  </g>
  <path
     class="cls-20"
     d="m 19.020681,11.608459 c 0.196276,-0.912233 0.694514,-3.5919146 1.343734,-3.8541813 0.64922,-0.2622668 2.521389,1.1402897 3.397081,1.6192119 0.33216,0.19385 0.392553,0.1710444 0.181178,-0.079821 a 36.612993,27.652037 0 0 1 -2.310016,-3.044574 c -0.105683,-0.3876988 2.672371,-0.8666207 3.774536,-1.1402903 0.256667,-0.068417 0.24157,-0.1482377 0,-0.2166551 C 24.274833,4.6298821 21.572267,4.162363 21.677953,3.7518585 a 39.542031,29.864202 0 0 1 2.385505,-3.11299231 c 0.166081,-0.21665508 0.105685,-0.21665508 -0.181176,0 C 23.036785,1.1633998 21.043831,2.5431509 20.409708,2.2808841 19.775586,2.0186175 19.26225,-0.68387048 19.050877,-1.5846997 c 0,-0.2736697 -0.120787,-0.2508639 -0.181179,0 -0.211374,0.91223217 -0.709613,3.5805114 -1.343734,3.8313752 -0.634122,0.2508638 -2.717666,-1.0262612 -3.517867,-1.63061506 -0.271767,-0.19384933 -0.347257,-0.19384933 -0.211374,0 0.513337,0.75259146 2.325115,2.75950236 2.415703,3.13579806 0.09058,0.3762959 -2.838451,0.9008294 -3.850026,1.1402907 -0.226472,0 -0.226472,0.114029 0,0.1596406 1.026674,0.2394609 3.955712,0.7525916 3.850026,1.1402902 -0.105683,0.3876987 -1.811777,2.2805801 -2.370408,3.090186 -0.16608,0.2280585 -0.105685,0.2508652 0.166079,0 0.815299,-0.5473384 2.838451,-1.8928812 3.472574,-1.6420174 0.634119,0.2508639 1.117261,2.8621284 1.328635,3.7971664 0.07549,0.43331 0.150981,0.456116 0.211375,0.171044 z"
     id="path34"
     style="isolation:isolate;fill:url(#radialGradient46);fill-opacity:1;stroke:none;stroke-opacity:1"
     clip-path="none" />
  <path
     class="cls-20"
     d="m 37.975578,25.611223 c 0.09123,-0.581548 0.501734,-2.98756 0.570152,-3.204215 a 10.536414,10.536282 0 0 1 2.54288,-0.923636 c 0.125433,0 0.11403,-0.09123 0,-0.136834 a 15.610769,15.610573 0 0 1 -2.440252,-0.615757 c -0.125433,-0.205252 -0.513137,-2.930546 -0.615765,-3.512094 0,-0.171044 0,-0.159641 -0.09123,0 -0.09123,0.581548 -0.456122,3.42087 -0.752602,3.546302 -0.296478,0.125432 -1.858695,0.43331 -2.349026,0.581549 q -0.159643,0 0,0.102623 a 12.657381,12.657221 0 0 1 2.474461,0.889425 c 0.11403,0.216656 0.52454,2.622668 0.627167,3.21562 q -0.01141,0.307877 0.03421,0.05701 z"
     id="path35"
     style="isolation:isolate;fill:url(#radialGradient48);fill-opacity:1;stroke:none"
     clip-path="none" />
  <path
     class="cls-21"
     d="m 0.68264845,30.770333 c 2.02641455,0.637725 3.37395915,1.267309 5.17054995,2.401014 2.8279552,1.824464 4.1050962,4.561161 9.6925886,5.701451 5.587492,1.140291 8.290015,1.9613 9.932053,3.420871 4.017443,-0.911426 7.850407,-2.50012 11.334628,-4.697996 5.074355,-3.420871 6.527512,-7.996278 10.621205,-7.380521"
     id="path36"
     style="isolation:isolate"
     clip-path="none"
     sodipodi:nodetypes="ccsccc" />
  <ellipse
     style="fill:url(#radialGradient57);fill-opacity:1;stroke:none;stroke-width:1.878;stroke-linejoin:round;stroke-opacity:1"
     id="path55"
     cx="24.014284"
     cy="19.051823"
     rx="1.6604666"
     ry="1.6604457"
     clip-path="none" />
  <ellipse
     style="opacity:0.224719;fill:url(#radialGradient58);fill-opacity:1;stroke:none;stroke-width:1.878;stroke-linejoin:round;stroke-opacity:1"
     id="circle57"
     cx="30.892721"
     cy="24.145733"
     rx="1.6604666"
     ry="1.6604457"
     clip-path="none" />
  <ellipse
     style="opacity:0.681648;fill:url(#radialGradient59);fill-opacity:1;stroke:none;stroke-width:1.878;stroke-linejoin:round;stroke-opacity:1"
     id="circle58"
     cx="22.422709"
     cy="15.54403"
     rx="1.6604666"
     ry="1.6604457"
     clip-path="none" />
  <ellipse
     style="opacity:0.419476;fill:url(#radialGradient60);fill-opacity:1;stroke:none;stroke-width:1.878;stroke-linejoin:round;stroke-opacity:1"
     id="circle59"
     cx="31.527527"
     cy="19.377979"
     rx="1.6604666"
     ry="1.6604457"
     clip-path="none" />
  <ellipse
     style="opacity:0.449438;fill:url(#radialGradient61);fill-opacity:1;stroke:none;stroke-width:1.878;stroke-linejoin:round;stroke-opacity:1"
     id="circle60"
     cx="25.705645"
     cy="17.738035"
     rx="1.6604666"
     ry="1.6604457"
     clip-path="none" />
  <ellipse
     style="opacity:0.546816;fill:url(#radialGradient62);fill-opacity:1;stroke:none;stroke-width:1.878;stroke-linejoin:round;stroke-opacity:1"
     id="circle61"
     cx="26.607624"
     cy="25.773771"
     rx="1.6604666"
     ry="1.6604457"
     clip-path="none" />
  <ellipse
     style="fill:url(#radialGradient63);fill-opacity:1;stroke:none;stroke-width:1.878;stroke-linejoin:round;stroke-opacity:1"
     id="circle62"
     cx="28.142683"
     cy="19.546558"
     rx="1.6604666"
     ry="1.6604457"
     clip-path="none" />
  <ellipse
     style="opacity:0.670412;fill:url(#radialGradient64);fill-opacity:1;stroke:none;stroke-width:1.878;stroke-linejoin:round;stroke-opacity:1"
     id="circle63"
     cx="27.058615"
     cy="13.105186"
     rx="1.6604666"
     ry="1.6604457"
     clip-path="none" />
  <ellipse
     style="fill:url(#radialGradient15);fill-opacity:1;stroke:none;stroke-width:1.878;stroke-linejoin:round;stroke-opacity:1"
     id="ellipse1"
     cx="-9.5345421"
     cy="30.321613"
     rx="1.6604666"
     ry="1.6604457"
     clip-path="none"
     transform="matrix(-0.87850506,0.47773304,0.47773304,0.87850506,0,0)" />
  <ellipse
     style="opacity:0.224719;fill:url(#radialGradient14);fill-opacity:1;stroke:none;stroke-width:1.878;stroke-linejoin:round;stroke-opacity:1"
     id="ellipse2"
     cx="-5.466085"
     cy="22.864399"
     rx="1.6604666"
     ry="1.6604457"
     clip-path="none"
     transform="matrix(-0.87850506,0.47773304,0.47773304,0.87850506,0,0)" />
  <ellipse
     style="opacity:0.681648;fill:url(#radialGradient13);fill-opacity:1;stroke:none;stroke-width:1.878;stroke-linejoin:round;stroke-opacity:1"
     id="ellipse3"
     cx="-17.691349"
     cy="20.666824"
     rx="1.6604666"
     ry="1.6604457"
     clip-path="none"
     transform="matrix(-0.87850506,0.47773304,0.47773304,0.87850506,0,0)" />
  <ellipse
     style="opacity:0.419476;fill:url(#radialGradient12);fill-opacity:1;stroke:none;stroke-width:1.878;stroke-linejoin:round;stroke-opacity:1"
     id="ellipse4"
     cx="-2.135397"
     cy="28.371391"
     rx="1.6604666"
     ry="1.6604457"
     clip-path="none"
     transform="matrix(-0.87850506,0.47773304,0.47773304,0.87850506,0,0)" />
  <ellipse
     style="opacity:0.449438;fill:url(#radialGradient11);fill-opacity:1;stroke:none;stroke-width:1.878;stroke-linejoin:round;stroke-opacity:1"
     id="ellipse5"
     cx="-7.9572792"
     cy="26.731447"
     rx="1.6604666"
     ry="1.6604457"
     clip-path="none"
     transform="matrix(-0.87850506,0.47773304,0.47773304,0.87850506,0,0)" />
  <ellipse
     style="opacity:0.546816;fill:url(#radialGradient10);fill-opacity:1;stroke:none;stroke-width:1.878;stroke-linejoin:round;stroke-opacity:1"
     id="ellipse6"
     cx="-7.0552998"
     cy="34.767185"
     rx="1.6604666"
     ry="1.6604457"
     clip-path="none"
     transform="matrix(-0.87850506,0.47773304,0.47773304,0.87850506,0,0)" />
  <ellipse
     style="fill:url(#radialGradient9);fill-opacity:1;stroke:none;stroke-width:1.878;stroke-linejoin:round;stroke-opacity:1"
     id="ellipse7"
     cx="-5.825325"
     cy="30.421326"
     rx="1.6604666"
     ry="1.6604457"
     clip-path="none"
     transform="matrix(-0.87850506,0.47773304,0.47773304,0.87850506,0,0)" />
  <ellipse
     style="opacity:0.670412;fill:url(#radialGradient8);fill-opacity:1;stroke:none;stroke-width:1.878;stroke-linejoin:round;stroke-opacity:1"
     id="ellipse8"
     cx="-10.797062"
     cy="25.883495"
     rx="1.6604666"
     ry="1.6604457"
     clip-path="none"
     transform="matrix(-0.87850506,0.47773304,0.47773304,0.87850506,0,0)" />
</svg>
