<?xml version="1.0" encoding="UTF-8"?><svg xmlns="http://www.w3.org/2000/svg" xmlns:xlink="http://www.w3.org/1999/xlink" viewBox="0 0 48 48"><defs><radialGradient id="radial-gradient" cx="17.84" cy="18.84" fx="17.84" fy="18.84" r="22.67" gradientTransform="translate(26.33 33.21) rotate(87.11) scale(.46 .24) skewX(4.08)" gradientUnits="userSpaceOnUse"><stop offset=".44" stop-color="#1a1718" stop-opacity=".5"/><stop offset=".93" stop-color="#1a1718" stop-opacity="0"/></radialGradient><linearGradient id="linear-gradient" x1="4.3" y1="20.56" x2="41.64" y2="20.56" gradientTransform="matrix(1, 0, 0, 1, 0, 0)" gradientUnits="userSpaceOnUse"><stop offset="0" stop-color="#3465a4"/><stop offset=".14" stop-color="#729fcf"/><stop offset=".32" stop-color="#dce7f3"/><stop offset=".73" stop-color="#dce7f3"/><stop offset=".88" stop-color="#729fcf"/><stop offset="1" stop-color="#3465a4"/></linearGradient><linearGradient id="linear-gradient-2" y1="20.01" x2="41.64" y2="20.01" xlink:href="#linear-gradient"/><linearGradient id="linear-gradient-3" y1="19.36" x2="41.64" y2="19.36" xlink:href="#linear-gradient"/><linearGradient id="linear-gradient-4" y1="18.36" x2="41.64" y2="18.36" xlink:href="#linear-gradient"/><linearGradient id="linear-gradient-5" y1="27.44" y2="27.44" xlink:href="#linear-gradient"/><linearGradient id="linear-gradient-6" y1="27.96" x2="41.64" y2="27.96" xlink:href="#linear-gradient"/><linearGradient id="linear-gradient-7" y1="28.62" x2="41.64" y2="28.62" xlink:href="#linear-gradient"/><linearGradient id="linear-gradient-8" y1="29.62" x2="41.64" y2="29.62" xlink:href="#linear-gradient"/><linearGradient id="linear-gradient-9" x1="24.24" y1="9.67" x2="28.87" y2="9.67" gradientTransform="matrix(1, 0, 0, 1, 0, 0)" gradientUnits="userSpaceOnUse"><stop offset="0" stop-color="snow"/><stop offset="1" stop-color="#babdb6" stop-opacity=".19"/><stop offset="1" stop-color="#fffdfd"/></linearGradient><linearGradient id="linear-gradient-10" x1="24.24" y1="9.67" x2="28.87" y2="9.67" gradientTransform="matrix(1, 0, 0, 1, 0, 0)" gradientUnits="userSpaceOnUse"><stop offset="0" stop-color="snow"/><stop offset="0" stop-color="#fffdfd"/><stop offset="1" stop-color="#babdb6" stop-opacity=".19"/><stop offset="1" stop-color="#fffdfd"/></linearGradient><linearGradient id="linear-gradient-11" x1="26.89" y1="32.01" x2="26.4" y2="38.68" gradientTransform="translate(21.47 -9.84) rotate(47.96) scale(.81 .89) skewX(29.9)" gradientUnits="userSpaceOnUse"><stop offset=".11" stop-color="#c4a000"/><stop offset=".46" stop-color="#fce94f"/><stop offset="1" stop-color="#fce94f"/></linearGradient><linearGradient id="linear-gradient-12" x1="18.97" y1="25.73" x2="26.22" y2="39.43" gradientTransform="matrix(1, 0, 0, 1, 0, 0)" gradientUnits="userSpaceOnUse"><stop offset="0" stop-color="#555753"/><stop offset=".67" stop-color="#2e3436"/><stop offset="1" stop-color="#babdb6"/></linearGradient><linearGradient id="linear-gradient-13" x1="21.77" y1="36.95" x2="25.8" y2="43.26" gradientTransform="matrix(1, 0, 0, 1, 0, 0)" gradientUnits="userSpaceOnUse"><stop offset="0" stop-color="#babdb6"/><stop offset=".67" stop-color="#2e3436"/><stop offset="1" stop-color="#babdb6"/></linearGradient><linearGradient id="linear-gradient-14" x1="22.71" y1="27.61" x2="22.5" y2="30.52" gradientTransform="matrix(1, 0, 0, 1, 0, 0)" xlink:href="#linear-gradient-11"/><linearGradient id="linear-gradient-15" x1="14.45" y1="8.95" x2="31.11" y2="28.1" xlink:href="#linear-gradient-12"/><linearGradient id="linear-gradient-16" x1="27.57" y1="27.36" x2="22.53" y2="19.03" gradientTransform="matrix(1, 0, 0, 1, 0, 0)" gradientUnits="userSpaceOnUse"><stop offset="0" stop-color="snow"/><stop offset="1" stop-color="#fffdfd" stop-opacity="0"/></linearGradient><linearGradient id="linear-gradient-17" x1="16.39" y1="5.56" x2="21.02" y2="5.56" xlink:href="#linear-gradient-9"/><linearGradient id="linear-gradient-18" x1="16.39" y1="5.56" x2="21.02" y2="5.56" xlink:href="#linear-gradient-9"/><linearGradient id="linear-gradient-19" x1="22.23" y1="14.63" x2="32.71" y2="28.27" xlink:href="#linear-gradient-12"/><linearGradient id="linear-gradient-20" x1="29.97" y1="21.59" x2="22.28" y2="9.31" gradientTransform="matrix(1, 0, 0, 1, 0, 0)" gradientUnits="userSpaceOnUse"><stop offset="0" stop-color="#b9bcb5" stop-opacity="0"/><stop offset="1" stop-color="#2e3436"/></linearGradient><linearGradient id="linear-gradient-21" x1="32.63" y1="39.66" x2="9.65" y2="6.74" gradientTransform="matrix(1, 0, 0, 1, 0, 0)" gradientUnits="userSpaceOnUse"><stop offset=".12" stop-color="snow"/><stop offset="1" stop-color="#babdb6" stop-opacity=".19"/><stop offset="1" stop-color="#fffdfd"/></linearGradient><linearGradient id="linear-gradient-22" x1="31.76" y1="34.99" x2="7.57" y2="10.6" xlink:href="#linear-gradient-21"/><linearGradient id="linear-gradient-23" x1="26.27" y1="32.31" x2="20.95" y2="25.64" gradientTransform="matrix(1, 0, 0, 1, 0, 0)" gradientUnits="userSpaceOnUse"><stop offset=".12" stop-color="snow"/><stop offset="1" stop-color="#fffdfd" stop-opacity=".1"/></linearGradient><linearGradient id="linear-gradient-24" x1="22.12" y1="17.47" x2="14.43" y2="5.2" xlink:href="#linear-gradient-20"/><linearGradient id="linear-gradient-25" x1="12.13" y1="8.52" x2="25.03" y2="23.28" xlink:href="#linear-gradient-21"/><linearGradient id="linear-gradient-26" x1="21.96" y1="14.45" x2="34.27" y2="29.62" xlink:href="#linear-gradient-21"/></defs><g style="isolation:isolate;"><g id="shadow" style="mix-blend-mode:multiply; opacity:.45;"><ellipse cx="22.31" cy="42.23" rx="5.17" ry="10.04" transform="translate(-23.73 54.96) rotate(-77.61)" style="fill:url(#radial-gradient);"/></g><g id="ART"><g><path d="M16.35,15.52l-.74-1.93c-1.58,.8-2.52,2.93-2.52,5.72s.94,5.87,2.52,8.22l.74-1.2c-1.22-1.82-1.95-4.2-1.95-6.37s.73-3.81,1.95-4.43Z" style="fill:url(#linear-gradient);"/><path d="M15.02,12.1l-.5-1.28c-2.07,1.08-3.31,3.91-3.31,7.57s1.24,7.73,3.31,10.82l.5-.8c-1.84-2.75-2.93-6.33-2.93-9.6s1.1-5.76,2.94-6.72Z" style="fill:url(#linear-gradient-2);"/><path d="M13.51,8.22l-.31-.8c-2.68,1.42-4.28,5.09-4.28,9.84s1.6,10,4.29,14.04l.31-.5c-2.54-3.82-4.05-8.79-4.05-13.28s1.51-7.96,4.04-9.3Z" style="fill:url(#linear-gradient-3);"/><path d="M11.47,3l-.31-.8c-3.63,1.92-5.79,6.9-5.79,13.32s2.17,13.54,5.8,19.01l.31-.5c-3.49-5.25-5.57-12.08-5.57-18.25S7.99,4.84,11.47,3Z" style="fill:url(#linear-gradient-4);"/><path d="M32.15,28.66c0-2.78-.94-5.85-2.52-8.19l-.74,1.2c1.22,1.82,1.95,4.19,1.95,6.35s-.73,3.84-1.95,4.45l.74,1.93c1.58-.8,2.52-2.94,2.52-5.74Z" style="fill:url(#linear-gradient-5);"/><path d="M30.71,18.77l-.5,.79c1.84,2.76,2.94,6.35,2.94,9.6s-1.1,5.77-2.93,6.71l.5,1.29c2.07-1.06,3.31-3.89,3.31-7.57s-1.24-7.71-3.31-10.82Z" style="fill:url(#linear-gradient-6);"/><path d="M32.04,16.68l-.31,.49c2.53,3.83,4.04,8.79,4.04,13.27s-1.52,7.97-4.05,9.3l.31,.8c2.68-1.41,4.29-5.08,4.29-9.83s-1.6-9.99-4.28-14.04Z" style="fill:url(#linear-gradient-7);"/><path d="M34.08,13.46l-.31,.49c3.48,5.26,5.56,12.08,5.56,18.24s-2.08,10.95-5.57,12.78l.31,.8c3.63-1.9,5.8-6.88,5.8-13.31s-2.16-13.53-5.79-19.01Z" style="fill:url(#linear-gradient-8);"/></g><g><path d="M28.87,9.82l-2.61-1.37-2.02,1.06v15.22c0,.53-.08,1-.23,1.37-.12-.04-.24-.09-.37-.16-1.44-.76-2.62-3.01-2.62-5.03h0V5.71h0l-2.61-1.37-2.02,1.06v15.2c0,3.4,1.66,7.13,3.92,9.13v7.15c-.65,.25-1.08,1.06-1.08,2.23,0,1.85,1.07,3.91,2.39,4.6,.56,.29,1.08,.3,1.48,.06h0l2.02-1.06h0c.55-.32,.91-1.08,.91-2.15,0-1.18-.44-2.45-1.1-3.39h0v-6.44l1.8-.94h.02s.06-.04,.09-.06c1.23-.69,2.02-2.36,2.02-4.71V9.82h0Z" style="fill:none; stroke:#555753; stroke-linecap:round; stroke-linejoin:round; stroke-width:1.4px;"/><g style="opacity:.65;"><polygon points="26.85 10.89 24.24 9.52 26.26 8.45 28.87 9.82 26.85 10.89" style="fill:#babdb6;"/></g><polygon points="26.85 10.89 24.24 9.52 26.26 8.45 28.87 9.82 26.85 10.89" style="fill:#babdb6;"/><polygon points="26.85 10.89 24.24 9.52 26.26 8.45 28.87 9.82 26.85 10.89" style="fill:url(#linear-gradient-9); opacity:.65;"/><polygon points="26.85 10.89 24.24 9.52 26.26 8.45 28.87 9.82 26.85 10.89" style="fill:url(#linear-gradient-10); opacity:.65;"/><polygon points="26.85 10.89 24.24 9.52 26.26 8.45 28.87 9.82 26.85 10.89" style="fill:url(#linear-gradient-10); opacity:.65;"/><ellipse cx="23.64" cy="39.32" rx="2.15" ry="3.73" transform="translate(-12.15 10.62) rotate(-20.27)" style="fill:url(#linear-gradient-11);"/><g><g><polygon points="22.92 41.21 24.94 40.15 24.94 28.98 22.92 30.04 22.92 41.21" style="fill:#555753;"/><polygon points="22.92 41.21 24.94 40.15 24.94 28.98 22.92 30.04 22.92 41.21" style="fill:url(#linear-gradient-12);"/><path d="M26.04,40.58c0-1.18-.44-2.45-1.1-3.39l-2.03,1.06,.45,4.26s.07,.04,.1,.06l-.36,1.22,2.02-1.06h0c.55-.32,.91-1.08,.91-2.15Z" style="fill:#555753;"/><path d="M26.04,40.58c0-1.18-.44-2.45-1.1-3.39l-2.03,1.06,.45,4.26s.07,.04,.1,.06l-.36,1.22,2.02-1.06h0c.55-.32,.91-1.08,.91-2.15Z" style="fill:url(#linear-gradient-13);"/></g><polygon points="22.92 30.04 20.31 28.67 22.33 27.61 24.94 28.98 22.92 30.04" style="fill:url(#linear-gradient-14); opacity:.65;"/></g><path d="M23.64,25.95c-1.44-.76-2.62-3.01-2.62-5.03h0V5.71l-2.02,1.06v13.08l-.59-.31c0,4.04,2.34,8.53,5.23,10.05l1.46-3.5c-.42,.18-.92,.14-1.46-.14Z" style="fill:url(#linear-gradient-15);"/><path d="M23.64,25.95c-1.44-.76-2.62-3.01-2.62-5.03h0V5.71l-2.02,1.06v13.08l-.59-.31c0,4.04,2.34,8.53,5.23,10.05l1.46-3.5c-.42,.18-.92,.14-1.46-.14Z" style="fill:url(#linear-gradient-16);"/><polygon points="19 6.78 16.39 5.41 18.42 4.34 21.02 5.71 19 6.78" style="fill:#babdb6;"/><polygon points="19 6.78 16.39 5.41 18.42 4.34 21.02 5.71 19 6.78" style="fill:url(#linear-gradient-17);"/><polygon points="19 6.78 16.39 5.41 18.42 4.34 21.02 5.71 19 6.78" style="fill:url(#linear-gradient-18);"/><path d="M26.85,10.89v13.09l-.59-.31c0,1.26-.46,2.13-1.15,2.43l-1.46,3.5c.59,.31,1.15,.47,1.67,.5l-.78,.6-.1,.27,.28-.09,2.02-1.06h.02s.06-.04,.09-.06c1.23-.69,2.02-2.36,2.02-4.71V9.82l-2.02,1.06Z" style="fill:url(#linear-gradient-19);"/><path d="M26.53,26.1c.44-5.14,2.34-16.27,2.34-16.27l-2.02,1.06-.32,15.21Z" style="fill:url(#linear-gradient-20); mix-blend-mode:multiply;"/><path d="M19.01,21.98c0,2.02,1.17,4.27,2.61,5.03s2.61-.26,2.61-2.28" style="fill:none;"/><path d="M24.24,9.51v15.22c0,2.02-1.17,3.04-2.62,2.28-1.45-.75-2.62-3.01-2.62-5.03V6.77l-2.61-1.36v15.2c0,3.4,1.67,7.13,3.92,9.13v7.15c-.65,.25-1.08,1.06-1.08,2.23,0,1.85,1.07,3.91,2.39,4.6,1.32,.69,2.39-.24,2.39-2.09,0-1.18-.44-2.45-1.1-3.39v-7.13c2.26,.39,3.93-1.6,3.93-5.01V10.89l-2.61-1.37Z" style="fill:#babdb6;"/><path d="M24.24,9.51v15.22c0,2.02-1.17,3.04-2.62,2.28-1.45-.75-2.62-3.01-2.62-5.03V6.77l-2.61-1.36v15.2c0,3.4,1.67,7.13,3.92,9.13v7.15c-.65,.25-1.08,1.06-1.08,2.23,0,1.85,1.07,3.91,2.39,4.6,1.32,.69,2.39-.24,2.39-2.09,0-1.18-.44-2.45-1.1-3.39v-7.13c2.26,.39,3.93-1.6,3.93-5.01V10.89l-2.61-1.37Z" style="fill:url(#linear-gradient-21); opacity:.65;"/><path d="M24.24,9.51v15.22c0,2.02-1.17,3.04-2.62,2.28-1.45-.75-2.62-3.01-2.62-5.03V6.77l-2.61-1.36v15.2c0,3.4,1.67,7.13,3.92,9.13v7.15c-.65,.25-1.08,1.06-1.08,2.23,0,1.85,1.07,3.91,2.39,4.6,1.32,.69,2.39-.24,2.39-2.09,0-1.18-.44-2.45-1.1-3.39v-7.13c2.26,.39,3.93-1.6,3.93-5.01V10.89l-2.61-1.37Z" style="fill:url(#linear-gradient-22); opacity:.65;"/><path d="M26.85,23.98v2.12c0,3.41-1.67,5.4-3.93,5.01v6.05c0-1.08-.75-3.06-1.67-4.28-.93-1.22-.17-3.01,1.67-2.84,1.84,.17,3.93-3.94,3.93-6.06Z" style="fill:url(#linear-gradient-23);"/><ellipse cx="21.62" cy="40.38" rx="1.08" ry="1.86" transform="translate(-12.65 9.99) rotate(-20.27)" style="fill:#fff;"/></g><path d="M18.68,21.98c.44-5.14,2.34-16.27,2.34-16.27l-2.02,1.06-.32,15.21Z" style="fill:url(#linear-gradient-24); mix-blend-mode:multiply;"/><path d="M19,6.77s-2.11,11.48-2.26,16.63c-.23-.93-.35-1.87-.35-2.79V5.41l2.61,1.36Z" style="fill:url(#linear-gradient-25);"/><path d="M26.85,10.87v.02c-.05,.61-1.24,14.01-2.98,15.52,.24-.42,.37-.99,.37-1.68V9.51l2.61,1.36Z" style="fill:url(#linear-gradient-26);"/></g></g></svg>