<?xml version="1.0" encoding="UTF-8" standalone="no"?>
<svg
   width="48px"
   height="48px"
   viewBox="0 0 48 48"
   version="1.1"
   id="svg3015"
   inkscape:version="1.1 (c4e8f9e, 2021-05-24)"
   sodipodi:docname="assetreference.svg"
   xmlns:inkscape="http://www.inkscape.org/namespaces/inkscape"
   xmlns:sodipodi="http://sodipodi.sourceforge.net/DTD/sodipodi-0.dtd"
   xmlns:xlink="http://www.w3.org/1999/xlink"
   xmlns="http://www.w3.org/2000/svg"
   xmlns:svg="http://www.w3.org/2000/svg"
   xmlns:rdf="http://www.w3.org/1999/02/22-rdf-syntax-ns#"
   xmlns:cc="http://creativecommons.org/ns#"
   xmlns:dc="http://purl.org/dc/elements/1.1/">
  <metadata
     id="metadata3043">
    <rdf:RDF>
      <cc:Work
         rdf:about="">
        <dc:format>image/svg+xml</dc:format>
        <dc:type
           rdf:resource="http://purl.org/dc/dcmitype/StillImage" />
        <dc:title>Artboard 2</dc:title>
      </cc:Work>
    </rdf:RDF>
  </metadata>
  <sodipodi:namedview
     pagecolor="#ffffff"
     bordercolor="#666666"
     borderopacity="1"
     objecttolerance="10"
     gridtolerance="10"
     guidetolerance="10"
     inkscape:pageopacity="0"
     inkscape:pageshadow="2"
     inkscape:window-width="2560"
     inkscape:window-height="1375"
     id="namedview3041"
     showgrid="false"
     inkscape:zoom="13.927083"
     inkscape:cx="12.457742"
     inkscape:cy="20.930442"
     inkscape:window-x="0"
     inkscape:window-y="40"
     inkscape:window-maximized="1"
     inkscape:current-layer="svg3015"
     inkscape:pagecheckerboard="0" />
  <!-- Generator: Sketch 49.3 (51167) - http://www.bohemiancoding.com/sketch -->
  <title
     id="title3017">Artboard 2</title>
  <ellipse
     style="fill:url(#radialGradient74459-3);fill-opacity:1;stroke:none;stroke-width:0.404855;stroke-linecap:round;stroke-linejoin:round;stroke-dasharray:0.404855, 1.21457;paint-order:markers stroke fill"
     id="path74353-2"
     cx="7.7591801"
     cy="41.890484"
     rx="6.0462451"
     ry="2.7764087" />
  <desc
     id="desc3019">Created with Sketch.</desc>
  <ellipse
     style="fill:url(#radialGradient74459);fill-opacity:1;stroke:none;stroke-width:1.14559;stroke-linecap:round;stroke-linejoin:round;stroke-dasharray:1.14559, 3.43678;paint-order:markers stroke fill"
     id="path74353"
     cx="22.643154"
     cy="37.09317"
     rx="19.036304"
     ry="7.0606856" />
  <defs
     id="defs3021">
    <linearGradient
       inkscape:collect="always"
       id="linearGradient75970">
      <stop
         style="stop-color:#220c00;stop-opacity:0.99901831"
         offset="0"
         id="stop75966" />
      <stop
         style="stop-color:#010101;stop-opacity:0;"
         offset="1"
         id="stop75968" />
    </linearGradient>
    <linearGradient
       inkscape:collect="always"
       id="linearGradient74457">
      <stop
         style="stop-color:#220c00;stop-opacity:1"
         offset="0"
         id="stop74453" />
      <stop
         style="stop-color:#010101;stop-opacity:0;"
         offset="1"
         id="stop74455" />
    </linearGradient>
    <linearGradient
       x1="21.27237"
       y1="1.7387434"
       x2="21.27237"
       y2="37.866413"
       id="linearGradient-1"
       gradientTransform="scale(0.82163047,1.2170922)"
       gradientUnits="userSpaceOnUse">
      <stop
         stop-color="#000000"
         offset="0%"
         id="stop3024" />
      <stop
         stop-color="#000000"
         stop-opacity="0"
         offset="100%"
         id="stop3026" />
    </linearGradient>
    <linearGradient
       x1="26.732791"
       y1="17.274208"
       x2="32.892663"
       y2="39.862854"
       id="linearGradient-2"
       gradientTransform="scale(0.98435107,1.0158977)"
       gradientUnits="userSpaceOnUse">
      <stop
         stop-color="#FEF8A2"
         offset="0%"
         id="stop3029" />
      <stop
         stop-color="#FCFAE1"
         offset="100%"
         id="stop3031" />
    </linearGradient>
    <linearGradient
       inkscape:collect="always"
       xlink:href="#linearGradient-2"
       id="linearGradient3051"
       gradientUnits="userSpaceOnUse"
       gradientTransform="scale(0.98435107,1.0158977)"
       x1="26.732791"
       y1="17.274208"
       x2="32.892663"
       y2="39.862854" />
    <linearGradient
       inkscape:collect="always"
       xlink:href="#linearGradient-1"
       id="linearGradient3055"
       gradientUnits="userSpaceOnUse"
       gradientTransform="matrix(0.82163047,0,0,1.2170922,0.43081526,0.71802543)"
       x1="21.27237"
       y1="1.7387434"
       x2="21.27237"
       y2="37.866413" />
    <linearGradient
       id="linear-gradient-18"
       x1="30.379999"
       y1="21.959999"
       x2="30.719999"
       y2="24.43"
       gradientTransform="matrix(1.0076256,-0.31432257,0.29389081,1.0776774,-10.468881,-2.0436979)"
       xlink:href="#linear-gradient-14" />
    <linearGradient
       id="linear-gradient-14"
       x1="14.23"
       y1="25.309999"
       x2="15.69"
       y2="15.66"
       gradientUnits="userSpaceOnUse">
      <stop
         offset="0"
         stop-color="#e1ab5b"
         id="stop29490" />
      <stop
         offset="1"
         stop-color="#b16a10"
         id="stop29492" />
    </linearGradient>
    <linearGradient
       id="linear-gradient-19"
       x1="38.900002"
       y1="25.629999"
       x2="35.740002"
       y2="23.57"
       xlink:href="#linear-gradient-14"
       gradientTransform="matrix(1.04961,0,0,1.1225806,-7.6034455,-10.204859)" />
    <linearGradient
       inkscape:collect="always"
       xlink:href="#linear-gradient-20"
       id="linearGradient29907"
       gradientUnits="userSpaceOnUse"
       x1="35.240002"
       y1="25.4"
       x2="35.209999"
       y2="21.98"
       gradientTransform="matrix(1.04961,0,0,1.1225806,-7.6034455,-10.204859)" />
    <linearGradient
       id="linear-gradient-20"
       x1="35.240002"
       y1="25.4"
       x2="35.209999"
       y2="21.98"
       gradientUnits="userSpaceOnUse">
      <stop
         offset="0"
         stop-color="#7b4706"
         id="stop29500" />
      <stop
         offset="1"
         stop-color="#b16a10"
         stop-opacity="0"
         id="stop29502" />
    </linearGradient>
    <linearGradient
       inkscape:collect="always"
       xlink:href="#linear-gradient-21"
       id="linearGradient29909"
       gradientUnits="userSpaceOnUse"
       x1="35.68"
       y1="21.09"
       x2="35.220001"
       y2="25.940001"
       gradientTransform="matrix(1.04961,0,0,1.1225806,-7.6034455,-10.204859)" />
    <linearGradient
       id="linear-gradient-21"
       x1="35.68"
       y1="21.09"
       x2="35.220001"
       y2="25.940001"
       gradientUnits="userSpaceOnUse">
      <stop
         offset="0"
         stop-color="#e8bc7b"
         id="stop29505" />
      <stop
         offset="1"
         stop-color="#b16a10"
         id="stop29507" />
    </linearGradient>
    <linearGradient
       id="linear-gradient-22"
       x1="32.84"
       y1="23.940001"
       x2="34.630001"
       y2="27.049999"
       xlink:href="#linear-gradient-14"
       gradientTransform="matrix(1.04961,0,0,1.1225806,-7.6034455,-10.204859)" />
    <linearGradient
       id="linear-gradient-23"
       x1="34.439999"
       y1="28.01"
       x2="34.139999"
       y2="25"
       xlink:href="#linear-gradient-20"
       gradientTransform="matrix(1.04961,0,0,1.1225806,-7.6034455,-10.204859)" />
    <linearGradient
       id="linear-gradient-24"
       x1="35.650002"
       y1="27.110001"
       x2="33.669998"
       y2="24.549999"
       xlink:href="#linear-gradient-20"
       gradientTransform="matrix(1.04961,0,0,1.1225806,-7.6034455,-10.204859)" />
    <linearGradient
       id="linear-gradient-25"
       x1="28.98"
       y1="21.82"
       x2="29.440001"
       y2="25.15"
       gradientTransform="matrix(1.0076256,-0.31432257,0.29389081,1.0776774,-10.468881,-2.0436979)"
       xlink:href="#linear-gradient-14" />
    <linearGradient
       id="linear-gradient-26"
       x1="28.209999"
       y1="26.99"
       x2="29.719999"
       y2="25.209999"
       gradientTransform="matrix(1.0076256,-0.31432257,0.29389081,1.0776774,-10.468881,-2.0436979)"
       xlink:href="#linear-gradient-20" />
    <linearGradient
       inkscape:collect="always"
       xlink:href="#linear-gradient-27"
       id="linearGradient29911"
       gradientUnits="userSpaceOnUse"
       gradientTransform="matrix(1.0076256,-0.31432257,0.29389081,1.0776774,-10.468881,-2.0436979)"
       x1="29.41"
       y1="23.98"
       x2="29"
       y2="26.93" />
    <linearGradient
       id="linear-gradient-27"
       x1="29.41"
       y1="23.98"
       x2="29"
       y2="26.93"
       gradientTransform="rotate(-16.260205,24.08,13.19)"
       gradientUnits="userSpaceOnUse">
      <stop
         offset="0"
         stop-color="#e7bb79"
         id="stop29515" />
      <stop
         offset="1"
         stop-color="#e1ab5b"
         stop-opacity="0"
         id="stop29517" />
    </linearGradient>
    <linearGradient
       id="linear-gradient-28"
       x1="36.59"
       y1="23.690001"
       x2="35.130001"
       y2="25.370001"
       gradientTransform="matrix(1.0076256,-0.31432257,0.29389081,1.0776774,-10.468881,-2.0436979)"
       xlink:href="#linear-gradient-14" />
    <linearGradient
       inkscape:collect="always"
       xlink:href="#linear-gradient-29"
       id="linearGradient29913"
       gradientUnits="userSpaceOnUse"
       gradientTransform="matrix(0.9866334,-0.33677418,0.2833947,1.0664516,-16.220744,-9.6884719)"
       x1="36.490002"
       y1="32.009998"
       x2="35.830002"
       y2="35.900002" />
    <linearGradient
       id="linear-gradient-29"
       x1="36.490002"
       y1="32.009998"
       x2="35.830002"
       y2="35.900002"
       gradientTransform="matrix(0.94,-0.3,0.27,0.95,-8.21,0.46)"
       gradientUnits="userSpaceOnUse">
      <stop
         offset="0"
         stop-color="#7b4706"
         id="stop29521" />
      <stop
         offset="1"
         stop-color="#7e4b0b"
         stop-opacity="0"
         id="stop29523" />
    </linearGradient>
    <linearGradient
       id="linear-gradient-30"
       x1="35.919998"
       y1="23.9"
       x2="34.75"
       y2="27.610001"
       xlink:href="#linear-gradient-27"
       gradientTransform="matrix(1.04961,0,0,1.1225806,-7.6034455,-10.204859)" />
    <linearGradient
       id="linear-gradient-31"
       x1="33.970001"
       y1="17.42"
       x2="32.5"
       y2="22.639999"
       gradientTransform="matrix(1.0076256,-0.31432257,0.29389081,1.0776774,-10.468881,-2.0436979)"
       xlink:href="#linear-gradient-14" />
    <linearGradient
       id="linear-gradient-32"
       x1="29.98"
       y1="22.559999"
       x2="30.700001"
       y2="22.35"
       gradientTransform="matrix(1.0076256,-0.31432257,0.29389081,1.0776774,-10.468881,-2.0436979)"
       xlink:href="#linear-gradient-29" />
    <linearGradient
       id="linear-gradient-33"
       x1="-584"
       y1="-150.69"
       x2="-583.28003"
       y2="-150.91"
       gradientTransform="matrix(-1.0076256,-0.30309676,-0.2833947,1.0776774,-601.49378,2.1323018)"
       xlink:href="#linear-gradient-29" />
    <linearGradient
       id="linear-gradient-34"
       x1="33.48"
       y1="19.59"
       x2="32.59"
       y2="22.209999"
       xlink:href="#linear-gradient-27"
       gradientTransform="matrix(1.04961,0,0,1.1225806,-7.6034455,-10.204859)" />
    <linearGradient
       id="linear-gradient-35"
       x1="31.42"
       y1="17.959999"
       x2="31.16"
       y2="19.360001"
       gradientTransform="matrix(1.0076256,-0.31432257,0.29389081,1.0776774,-10.468881,-2.0436979)"
       xlink:href="#linear-gradient-14" />
    <linearGradient
       id="linear-gradient-36"
       x1="31.370001"
       y1="18.290001"
       x2="31.030001"
       y2="19.92"
       xlink:href="#linear-gradient-27"
       gradientTransform="matrix(1.04961,0,0,1.1225806,-7.6034455,-10.204859)" />
    <linearGradient
       id="linear-gradient-37"
       x1="35.52"
       y1="18.870001"
       x2="35.389999"
       y2="21.110001"
       gradientTransform="matrix(1.0076256,-0.31432257,0.29389081,1.0776774,-10.468881,-2.0436979)"
       xlink:href="#linear-gradient-14" />
    <linearGradient
       id="linear-gradient-38"
       x1="35.529999"
       y1="19.540001"
       x2="35.220001"
       y2="21.51"
       xlink:href="#linear-gradient-27"
       gradientTransform="matrix(1.04961,0,0,1.1225806,-7.6034455,-10.204859)" />
    <linearGradient
       id="linear-gradient-39"
       x1="32.779999"
       y1="22.18"
       x2="31.530001"
       y2="24.66"
       gradientTransform="matrix(1.0076256,-0.31432257,0.29389081,1.0776774,-10.468881,-2.0436979)"
       xlink:href="#linear-gradient-21" />
    <linearGradient
       id="linear-gradient-40"
       x1="32.720001"
       y1="22.25"
       x2="32.360001"
       y2="23.02"
       gradientTransform="matrix(1.0076256,-0.31432257,0.29389081,1.0776774,-10.468881,-2.0436979)"
       gradientUnits="userSpaceOnUse">
      <stop
         offset="0"
         stop-color="#f1d5ac"
         id="stop29536" />
      <stop
         offset="1"
         stop-color="#eecda0"
         stop-opacity="0"
         id="stop29538" />
    </linearGradient>
    <linearGradient
       id="linear-gradient-41"
       x1="39.290001"
       y1="21.84"
       x2="38.200001"
       y2="26.09"
       xlink:href="#linear-gradient-14"
       gradientTransform="matrix(1.04961,0,0,1.1225806,-7.6034455,-10.204859)" />
    <linearGradient
       id="linear-gradient-42"
       x1="36.580002"
       y1="26.99"
       x2="40.07"
       y2="23.440001"
       xlink:href="#linear-gradient-20"
       gradientTransform="matrix(1.04961,0,0,1.1225806,-7.6034455,-10.204859)" />
    <linearGradient
       id="linear-gradient-43"
       x1="33.32"
       y1="26.309999"
       x2="35.119999"
       y2="28.559999"
       xlink:href="#linear-gradient-14"
       gradientTransform="matrix(1.04961,0,0,1.1225806,-7.6034455,-10.204859)" />
    <linearGradient
       id="linear-gradient-44"
       x1="40.290001"
       y1="24.09"
       x2="39.259998"
       y2="26.58"
       xlink:href="#linear-gradient-14"
       gradientTransform="matrix(1.04961,0,0,1.1225806,-7.6034455,-10.204859)" />
    <linearGradient
       id="linear-gradient-45"
       x1="40.27"
       y1="24.379999"
       x2="39.43"
       y2="26.98"
       xlink:href="#linear-gradient-14"
       gradientTransform="matrix(1.04961,0,0,1.1225806,-7.6034455,-10.204859)" />
    <linearGradient
       id="linear-gradient-46"
       x1="39.720001"
       y1="26.889999"
       x2="39.349998"
       y2="24.93"
       xlink:href="#linear-gradient-20"
       gradientTransform="matrix(1.04961,0,0,1.1225806,-7.6034455,-10.204859)" />
    <radialGradient
       inkscape:collect="always"
       xlink:href="#linearGradient74457"
       id="radialGradient74459"
       cx="-18.850082"
       cy="34.92915"
       fx="-18.850082"
       fy="34.92915"
       r="19.301201"
       gradientTransform="matrix(0.89896661,0,0,0.33433283,39.58875,25.415208)"
       gradientUnits="userSpaceOnUse" />
    <radialGradient
       inkscape:collect="always"
       xlink:href="#linearGradient75970"
       id="radialGradient74459-3"
       cx="-18.850084"
       cy="34.929146"
       fx="-18.850084"
       fy="34.929146"
       r="19.301201"
       gradientTransform="matrix(0.22144803,-0.00396436,0.00183362,0.10242548,11.869447,38.238119)"
       gradientUnits="userSpaceOnUse" />
  </defs>
  <g
     id="g4553"
     transform="matrix(-3.0107316,0,0,3.0107316,107.53504,-19.829076)">
    <path
       class="cls-30"
       d="m 27.810396,18.589333 a 3.3692481,3.6034837 0 0 1 -1.29102,-2.357419 4.4923308,4.804645 0 0 1 0.43034,-2.312516 11.020905,11.787096 0 0 1 1.952274,-0.752129"
       id="path29667"
       style="isolation:isolate;fill:url(#linear-gradient-18);stroke-width:1" />
    <path
       class="cls-31"
       d="m 28.90199,13.167269 a 11.020905,11.787096 0 0 0 -1.952274,0.752129 4.4923308,4.804645 0 0 0 -0.43034,2.312516 3.3692481,3.6034837 0 0 0 1.29102,2.357419 3.2432949,3.4687741 0 0 0 2.256661,0.673549 2.6555133,2.8401289 0 0 0 1.994259,-1.95329 3.4217286,3.6596128 0 0 0 0,-2.065549 4.4503464,4.7597417 0 0 0 -1.10209,-2.043096 10.748006,11.495225 0 0 0 -2.09922,0"
       id="path29669"
       style="isolation:isolate;fill:url(#linear-gradient-19);stroke-width:1" />
    <path
       class="cls-32"
       d="m 28.90199,13.167269 a 11.020905,11.787096 0 0 0 -1.952274,0.752129 4.4923308,4.804645 0 0 0 -0.43034,2.312516 3.3692481,3.6034837 0 0 0 1.29102,2.357419 3.2432949,3.4687741 0 0 0 2.256661,0.673549 2.6555133,2.8401289 0 0 0 1.994259,-1.95329 3.4217286,3.6596128 0 0 0 0,-2.065549 4.4503464,4.7597417 0 0 0 -1.10209,-2.043096 10.748006,11.495225 0 0 0 -2.09922,0"
       id="path29671"
       style="isolation:isolate;fill:url(#linearGradient29907);stroke-width:1" />
    <path
       class="cls-33"
       d="m 27.946845,17.713721 v 0 a 2.3826147,2.548258 0 0 0 2.214677,0.77458 1.9417785,2.0767741 0 0 0 1.364493,-1.751226 3.14883,3.3677418 0 0 0 -0.293891,-1.12258 1.889298,2.0206451 0 0 0 -3.621154,1.021548 4.0514946,4.3331611 0 0 0 0.335875,1.077678 z"
       id="path29673"
       style="isolation:isolate;fill:url(#linearGradient29909);stroke-width:1" />
    <path
       class="cls-22"
       d="m 28.90199,13.167269 a 11.020905,11.787096 0 0 0 -1.952274,0.752129 4.4923308,4.804645 0 0 0 -0.43034,2.312516 3.3692481,3.6034837 0 0 0 1.29102,2.357419 2.8129548,3.008516 0 0 0 2.256661,0.673549 2.7394821,2.9299354 0 0 0 1.889298,-1.706323 3.5896662,3.8392257 0 0 0 0.125954,-2.312516 4.3663776,4.6699353 0 0 0 -1.102091,-2.043096 10.748006,11.495225 0 0 0 -2.09922,0"
       id="path29675"
       style="isolation:isolate;fill:none;stroke:#7b4706;stroke-width:0.379919px;stroke-linecap:round;stroke-linejoin:round" />
    <path
       class="cls-34"
       d="m 28.755045,18.005591 a 1.6583838,1.7736773 0 0 0 -1.836818,0.112259 1.679376,1.796129 0 0 0 0.713735,2.51458 3.4007364,3.6371611 0 0 0 2.519064,0 3.6316506,3.8841289 0 0 0 -0.356867,-0.83071 0.3988518,0.42658063 0 0 0 0.125953,-0.583741 2.7499782,2.9411612 0 0 0 -1.165067,-1.212388 z"
       id="path29677"
       style="isolation:isolate;fill:url(#linear-gradient-22);stroke-width:1" />
    <path
       class="cls-35"
       d="m 28.755045,18.005591 a 1.6583838,1.7736773 0 0 0 -1.836818,0.112259 1.679376,1.796129 0 0 0 0.713735,2.51458 3.4007364,3.6371611 0 0 0 2.519064,0 3.6316506,3.8841289 0 0 0 -0.356867,-0.83071 0.3988518,0.42658063 0 0 0 0.125953,-0.583741 2.7499782,2.9411612 0 0 0 -1.165067,-1.212388 z"
       id="path29679"
       style="isolation:isolate;fill:url(#linear-gradient-23);stroke-width:1" />
    <path
       class="cls-36"
       d="m 30.182514,20.666108 a 3.5266896,3.7718708 0 0 1 -0.72423,0.21329 L 29.27985,19.981333 A 1.8368175,1.964516 0 0 0 28.776037,18.67914 c 0.07347,0 0.398852,0.291871 0.640262,0.202064 0.24141,-0.08981 0.115457,-0.157161 0.08397,-0.303096 a 2.519064,2.6941934 0 0 1 0.461828,0.673548 0.3883557,0.41535482 0 0 1 -0.136449,0.583742 3.6316506,3.8841289 0 0 1 0.356867,0.83071 z"
       id="path29681"
       style="isolation:isolate;fill:url(#linear-gradient-24);stroke-width:1" />
    <path
       class="cls-22"
       d="m 28.755045,18.005591 a 1.6583838,1.7736773 0 0 0 -1.836818,0.112259 1.679376,1.796129 0 0 0 0.713735,2.51458 3.4007364,3.6371611 0 0 0 2.519064,0 3.6316506,3.8841289 0 0 0 -0.356867,-0.83071 0.3988518,0.42658063 0 0 0 0.125953,-0.583741 2.7499782,2.9411612 0 0 0 -1.165067,-1.212388 z"
       id="path29683"
       style="isolation:isolate;fill:none;stroke:#7b4706;stroke-width:0.379919px;stroke-linecap:round;stroke-linejoin:round" />
    <path
       class="cls-37"
       d="m 27.296087,14.682753 a 1.2280437,1.3134193 0 0 1 -0.325379,0.886839 c -0.06298,0 -0.157442,0.303096 -0.146946,0.493935 0,0.617419 0.440837,1.021548 0.608774,1.347097 a 0.7977036,0.85316126 0 0 1 -0.220418,1.12258 0.839688,0.89806448 0 0 1 -0.629766,0.112258 0.8816724,0.9429677 0 0 1 -0.545797,-0.471483 3.5056974,3.7494192 0 0 1 -0.325379,-3.367742 2.09922,2.2451612 0 0 1 1.29102,-1.122581 h 0.136449 a 1.7318565,1.852258 0 0 1 0.157442,0.999097 z"
       id="path29685"
       style="isolation:isolate;fill:url(#linear-gradient-25);stroke-width:1" />
    <path
       class="cls-38"
       d="m 27.296087,14.682753 a 1.2280437,1.3134193 0 0 1 -0.325379,0.886839 c -0.06298,0 -0.157442,0.303096 -0.146946,0.493935 0,0.617419 0.440837,1.021548 0.608774,1.347097 a 0.7977036,0.85316126 0 0 1 -0.220418,1.12258 0.839688,0.89806448 0 0 1 -0.629766,0.112258 0.8816724,0.9429677 0 0 1 -0.545797,-0.471483 3.5056974,3.7494192 0 0 1 -0.325379,-3.367742 2.09922,2.2451612 0 0 1 1.29102,-1.122581 h 0.136449 a 1.7318565,1.852258 0 0 1 0.157442,0.999097 z"
       id="path29687"
       style="isolation:isolate;fill:url(#linear-gradient-26);stroke-width:1" />
    <path
       class="cls-39"
       d="m 27.033684,13.706108 v 0.202064 a 0.1679376,0.1796129 0 0 0 -0.167937,0.190839 0.2519064,0.26941934 0 0 0 -0.209922,0.291871 0.209922,0.22451612 0 0 0 -0.18893,0.246968 1.04961,1.1225806 0 0 0 -0.167938,0.134709 0.209922,0.22451612 0 0 0 -0.05248,0.202065 0.2728986,0.29187096 0 0 0 -0.115457,0.381677 0.4513323,0.48270966 0 0 0 -0.167938,0.336774 c 0,0 0,0.05613 0,0.08981 0,0.03368 0,0.235742 0,0.303097 a 0.2833947,0.30309676 0 0 0 0,0.42658 0.2204181,0.23574193 0 0 0 -0.09446,0.291871 0.9761373,1.044 0 0 0 0.05248,0.112258 c 0,0.13471 -0.09446,0.291871 0,0.392904 0.09446,0.101032 0.08397,0 0.104961,0.101032 0.02099,0.101032 0,0.157161 0,0.224516 0,0.06735 0.09446,0.101032 0.136449,0.157161 0.04199,0.05613 0,0.224516 0.07347,0.291871 0.07347,0.06736 0.08397,0 0.09446,0.101032 0.0105,0.101033 0,0 0,0.06736 a 0.1889298,0.20206451 0 0 0 0.18893,0.224516 0.3253791,0.34799999 0 0 0 0.104961,0.168387 0.8816724,0.9429677 0 0 1 -0.545798,-0.471483 3.5056974,3.7494192 0 0 1 -0.325379,-3.367742 2.09922,2.2451612 0 0 1 1.280524,-1.100129 z"
       id="path29689"
       style="isolation:isolate;fill:url(#linearGradient29911);stroke-width:1" />
    <path
       class="cls-22"
       d="m 26.970708,15.614495 c -0.06298,0 -0.157442,0.303097 -0.146946,0.493935 0,0.61742 0.440837,1.021549 0.608774,1.347097 a 0.7977036,0.85316126 0 0 1 -0.220418,1.122581 0.839688,0.89806448 0 0 1 -0.629766,0.112258 0.8816724,0.9429677 0 0 1 -0.545797,-0.471484 3.5056974,3.7494192 0 0 1 -0.325379,-3.367742 2.09922,2.2451612 0 0 1 1.29102,-1.122581 h 0.136449"
       id="path29691"
       style="isolation:isolate;fill:none;stroke:#7b4706;stroke-width:0.379919px;stroke-linecap:round;stroke-linejoin:round" />
    <path
       class="cls-40"
       d="m 30.32946,12.561076 a 2.3616225,2.5258064 0 0 1 1.878802,0 4.2614166,4.5576772 0 0 1 2.225173,2.245161 c 0.293891,0.639871 0.220418,1.12258 -0.24141,1.380774 a 1.04961,1.1225806 0 0 1 -1.207052,-0.437807 4.4293542,4.7372901 0 0 0 -0.902664,-1.313419 1.3015164,1.3919999 0 0 0 -0.850185,-0.392903 c 0,0 -0.419844,0 -0.734727,-0.516387 A 1.154571,1.2348387 0 0 1 30.32946,12.561076 Z"
       id="path29693"
       style="isolation:isolate;fill:url(#linear-gradient-28);stroke-width:1" />
    <path
       class="cls-41"
       d="m 26.508879,14.02043 a 0.2519064,0.26941934 0 0 1 0.18893,0.303097 0.2938908,0.31432257 0 0 1 0.251907,0.336774 0.3358752,0.35922579 0 0 1 0.346371,0.280645 c 0,0 0.05248,0 0.08397,0 0.03149,0 0.262402,0.07858 0.367363,0.190839 a 0.0734727,0.07858064 0 0 0 0.06298,0 v 0 a 0.2833947,0.30309676 0 0 1 0.335875,0.101032 v 0 c 0,0 0.05248,0 0.08397,0 a 0.2519064,0.26941934 0 0 1 0.283395,0 h 0.05248 0.08397 a 0.3883557,0.41535482 0 0 1 0.304387,0 c 0,0 0.07347,0 0.104961,0 0.03149,0 0,0 0.08397,0 a 0.314883,0.33677418 0 0 1 0.346371,0 0.3883557,0.41535482 0 0 1 0.451332,-0.157161 0.314883,0.33677418 0 0 1 0.272899,-0.258193 0.3778596,0.40412902 0 0 0 0.18893,0 c 0.09446,-0.06735 0.08397,-0.26942 0.209922,-0.303097 a 0.1154571,0.12348387 0 0 0 0.08397,0 c 0,0 0,-0.123484 0.06298,-0.179613 0.06298,-0.05613 0.104961,-0.05613 0.125953,-0.112258 0.02099,-0.05613 0,-0.06736 0,-0.08981 0,-0.02245 0.07347,-0.112258 0.115457,-0.157161 a 0.7872075,0.84193545 0 0 1 0.09446,-0.168387 c 0,-0.05613 0.115457,-0.06736 0.157442,-0.123484 a 0.7452231,0.79703223 0 0 1 0.08397,-0.168387 c 0,0 0.09447,0 0.104961,-0.101032 0.0105,-0.101032 0,0 0,-0.07858 a 0.1889298,0.20206451 0 0 1 0.06298,-0.145935 c 0,0 0,-0.06736 0,-0.123484 a 0.314883,0.33677418 0 0 1 0.07347,-0.168387 c 0,0 -0.08397,0 -0.104961,0.08981 l -0.157442,0.190839 a 1.4169735,1.5154838 0 0 1 -0.346371,0.21329 1.4064774,1.504258 0 0 1 -0.409348,0.179613 8.0295165,8.5877416 0 0 1 -2.435095,0.314323 14.537098,15.547741 0 0 0 -1.647888,-0.145936"
       id="path29695"
       style="isolation:isolate;fill:url(#linearGradient29913);stroke-width:1" />
    <path
       class="cls-42"
       d="m 34.066071,16.018624 a 0.7137348,0.76335481 0 0 1 -0.440836,0.05613 v 0 c 0,0 0,0 0.05248,0 a 0.2519064,0.26941934 0 0 0 0.146945,-0.05613 c 0,0 0,-0.05613 0,-0.06735 h 0.07347 c 0.115457,0 0.09446,-0.157161 0.104961,-0.168387 v 0 a 0.1679376,0.1796129 0 0 0 0.136449,-0.13471 0.1784337,0.1908387 0 0 0 -0.05248,-0.190838 v 0 c 0,0 0,0 0,0 a 0.2519064,0.26941934 0 0 0 -0.06298,-0.359226 v 0 a 0.1364493,0.14593548 0 0 1 0,-0.06735 0.2624025,0.28064515 0 0 0 -0.167938,-0.246968 0.2519064,0.26941934 0 0 0 -0.188929,-0.291871 0.2833947,0.30309676 0 0 0 -0.209922,-0.325548 c 0,0 0,0 -0.06298,0 a 0.0734727,0.07858064 0 0 1 0,-0.06735 0.2414103,0.25819354 0 0 0 -0.199426,-0.246968 c 0,0 0,0 -0.07347,0 -0.07347,0 0,0 0,-0.06736 a 0.2728986,0.29187096 0 0 0 -0.356867,-0.202064 0.3358752,0.35922579 0 0 0 -0.398852,-0.291871 0.2728986,0.29187096 0 0 0 -0.335875,-0.168387 0.1259532,0.13470967 0 0 0 -0.178434,-0.07858 v 0 l -0.06298,-0.07858 h -0.07347 c -0.104961,0 -0.230914,0 -0.293891,0.06735 l -0.48282,-0.303096 a 2.9179158,3.1207741 0 0 1 1.280524,0.134709 3.9990141,4.2770321 0 0 1 2.09922,2.076774 c 0.262402,0.381678 0.178434,0.853162 -0.251907,1.077678 z"
       id="path29697"
       style="isolation:isolate;fill:url(#linear-gradient-30);stroke-width:1" />
    <path
       class="cls-22"
       d="m 30.32946,12.561076 a 2.3616225,2.5258064 0 0 1 1.878802,0 4.2614166,4.5576772 0 0 1 2.225173,2.245161 c 0.293891,0.639871 0.220418,1.12258 -0.24141,1.380774 a 1.04961,1.1225806 0 0 1 -1.207052,-0.437807 4.4293542,4.7372901 0 0 0 -0.902664,-1.313419 1.3015164,1.3919999 0 0 0 -0.850185,-0.392903"
       id="path29699"
       style="isolation:isolate;fill:none;stroke:#7b4706;stroke-width:0.379919px;stroke-linecap:round;stroke-linejoin:round" />
    <path
       class="cls-43"
       d="M 31.956355,7.6553983 A 1.4064774,1.504258 0 0 0 30.476405,7.385979 1.154571,1.2348387 0 0 0 29.825647,8.2166886 3.0333729,3.2442579 0 0 0 28.839014,8.0595274 3.14883,3.3677418 0 0 0 27.85238,8.2615919 v 0 a 1.04961,1.1225806 0 0 0 -0.682246,-0.8082581 1.4169735,1.5154838 0 0 0 -1.458958,0.3255484 1.4379657,1.5379354 0 0 0 -0.419844,1.4930322 0.9656412,1.0327742 0 0 0 0.871176,0.8082576 2.8759314,3.0758708 0 0 0 -0.18893,1.122581 2.9284119,3.1319999 0 1 0 5.615414,-1.201161 0.9551451,1.0215483 0 0 0 0.839688,-0.8307098 1.4379657,1.5379354 0 0 0 -0.472325,-1.5154839 z"
       id="path29701"
       style="isolation:isolate;fill:none;stroke:#7b4706;stroke-width:0.759838px;stroke-linecap:round;stroke-linejoin:round" />
    <ellipse
       class="cls-44"
       cx="28.901989"
       cy="11.191526"
       id="circle29703"
       style="isolation:isolate;fill:url(#linear-gradient-31);stroke-width:1"
       rx="2.928412"
       ry="3.1319997" />
    <path
       class="cls-45"
       d="m 27.663451,13.919398 a 0.1469454,0.15716128 0 0 1 0,0.101032 v 0 a 2.9179158,3.1207741 0 0 1 -1.679377,-2.750322 v 0 a 0.2519064,0.26941934 0 0 1 0,-0.08981 v 0 c 0,0 0.07347,0 0.07347,0.08981 0,0.08981 0,0.101032 0,0.13471 0,0.03368 0.06298,0.07858 0.07347,0.123483 a 0.1364493,0.14593548 0 0 1 0,0.06735 0.2728986,0.29187096 0 0 0 0.06298,0.258194 0.104961,0.11225806 0 0 1 0.05248,0 c 0.07347,0.06736 0,0.202064 0.125953,0.258193 0.125953,0.05613 0.18893,0 0.283395,0 a 0.314883,0.33677418 0 0 1 0.115457,0.157162 4.4188581,4.7260643 0 0 0 0.629766,1.212387 0.8081997,0.86438706 0 0 1 0.262403,0.437806 z"
       id="path29705"
       style="isolation:isolate;fill:url(#linear-gradient-32);stroke-width:1" />
    <path
       class="cls-46"
       d="m 30.182514,13.896946 a 0.1469454,0.15716128 0 0 0 0,0.101033 v 0 a 2.9179158,3.1207741 0 0 0 1.647888,-2.772774 v 0 a 0.1364493,0.14593548 0 0 0 0,-0.08981 v 0 c 0,0 -0.07347,0 -0.07347,0.08981 a 0.3358752,0.35922579 0 0 1 0,0.145935 c 0,0 -0.06298,0.06735 -0.07347,0.123484 -0.0105,0.05613 0,0 0,0.05613 a 0.3358752,0.35922579 0 0 1 -0.06298,0.269419 h -0.06298 c -0.06298,0.06736 0,0.213291 -0.125954,0.26942 -0.125953,0.05613 -0.178433,0 -0.272898,0 a 0.2519064,0.26941934 0 0 0 -0.115457,0.168387 4.3558815,4.6587095 0 0 1 -0.608774,1.212387 0.6612543,0.70722578 0 0 0 -0.251907,0.42658 z"
       id="path29707"
       style="isolation:isolate;fill:url(#linear-gradient-33);stroke-width:1" />
    <path
       class="cls-47"
       d="m 31.819906,11.056818 c 0,-0.08981 -0.06298,-0.123484 -0.05248,-0.190839 a 0.2204181,0.23574193 0 0 0 -0.09446,-0.190839 c -0.07347,-0.05613 -0.05248,-0.224516 -0.08397,-0.291871 -0.03149,-0.06736 -0.125953,-0.123484 -0.125953,-0.168387 a 0.2938908,0.31432257 0 0 0 0,-0.179613 0.3778596,0.40412902 0 0 0 -0.157442,-0.1122578 c 0,0 -0.05248,0 -0.07347,0 -0.02099,0 0,-0.1010323 -0.06298,-0.1571613 -0.06298,-0.056129 0,0 -0.08397,-0.078581 -0.08397,-0.078581 0,-0.1010322 -0.05248,-0.1571613 a 0.2414103,0.25819354 0 0 0 -0.115457,-0.1234838 0.3463713,0.3704516 0 0 1 -0.13645,0 v -0.07858 A 0.2833947,0.30309676 0 0 0 30.51839,9.1708822 h -0.08397 c 0,0 0,0 -0.07347,-0.067355 -0.07347,-0.067355 -0.178434,-0.1796129 -0.283395,-0.1347097 -0.104961,0.044903 0,0 -0.06298,0 -0.06298,0 -0.07347,0 -0.104961,-0.078581 a 0.1994259,0.21329031 0 0 0 -0.199426,-0.056129 0.1259532,0.13470967 0 0 1 -0.08397,0 0.1364493,0.14593548 0 0 1 -0.09446,-0.056129 0.2204181,0.23574193 0 0 0 -0.24141,0 c 0,0 -0.08397,0.067355 -0.125953,0.056129 -0.04199,-0.011226 -0.05248,0 -0.08397,0 a 0.3463713,0.3704516 0 0 0 -0.419844,0.067355 l -0.157442,-0.022452 a 0.1259532,0.13470967 0 0 1 -0.104961,0 0.3253791,0.34799999 0 0 0 -0.314883,0 c 0,0 0,0.056129 -0.05248,0.067355 a 0.1469454,0.15716128 0 0 1 -0.09446,0 0.3358752,0.35922579 0 0 0 -0.37786,0.1234839 0.1259532,0.13470967 0 0 1 -0.05248,0.078581 c 0,0 -0.06298,0 -0.09446,0 A 0.3883557,0.41535482 0 0 0 27.12816,9.3280433 c 0,0 0,0.067355 0,0.078581 0,0.011226 -0.06298,0 -0.08397,0 a 0.2309142,0.24696773 0 0 0 -0.157442,0.1459355 0.6927426,0.7409032 0 0 1 0,0.168387 c 0,0.067355 -0.125953,0.1010323 -0.167938,0.1683871 a 1.1755632,1.2572903 0 0 1 0,0.1459351 c 0,0.07858 -0.157441,0.101032 -0.188929,0.190839 -0.03149,0.08981 0,0.101032 0,0.13471 0,0.03368 -0.13645,0.08981 -0.13645,0.202064 a 0.5562933,0.59496772 0 0 1 0,0.145936 0.1994259,0.21329031 0 0 1 -0.08397,0.112258 0.5877816,0.62864514 0 0 0 -0.32538,0.303096 2.917916,3.1207743 0 0 1 5.835832,0 z"
       id="path29709"
       style="isolation:isolate;fill:url(#linear-gradient-34);stroke-width:1" />
    <path
       class="cls-48"
       d="m 27.474521,8.8790112 a 0.5562933,0.59496772 0 0 0 0.377859,-0.2469677 0.5038128,0.53883869 0 0 0 0,-0.3367742 1.04961,1.1225806 0 0 0 -0.682246,-0.808258 1.4169735,1.5154838 0 0 0 -1.458958,0.3255483 1.4379657,1.5379354 0 0 0 -0.419844,1.4930322 0.9656412,1.0327742 0 0 0 0.881672,0.8082582 0.419844,0.44903224 0 0 0 0.482821,-0.3929033 0.5772855,0.61741933 0 0 1 0.178434,-0.6174194 0.7137348,0.76335481 0 0 1 0.640262,-0.2245161 z"
       id="path29711"
       style="isolation:isolate;fill:url(#linear-gradient-35);stroke-width:1" />
    <path
       class="cls-49"
       d="M 27.841884,8.5983661 A 0.2414103,0.25819354 0 0 1 27.789404,8.6769471 0.2204181,0.23574193 0 0 0 27.694944,8.4748826 0.2204181,0.23574193 0 0 0 27.46403,8.2054632 0.2519064,0.26941934 0 0 0 27.128154,7.9360439 0.314883,0.33677418 0 0 0 26.823767,7.756431 0.5562933,0.59496772 0 0 0 26.477396,7.9248181 0.4408362,0.47148385 0 0 0 26.03656,8.1156568 a 0.104961,0.11225806 0 0 1 0,0.056129 h -0.08397 a 0.3043869,0.32554837 0 0 0 -0.18893,0.3255484 0.209922,0.22451612 0 0 0 -0.178433,0.2020645 0.6507582,0.69599997 0 0 0 0,0.3030968 0.2728986,0.29187096 0 0 0 0,0.4153548 0.314883,0.33677418 0 0 0 0.167937,0.3592258 0.2204181,0.23574193 0 0 0 0.07347,0.2020645 0.9656412,1.0327742 0 0 1 -0.545797,-0.7184516 1.4484618,1.5491612 0 0 1 1.878802,-1.8185806 1.1335788,1.212387 0 0 1 0.682246,0.8082581 c 0,0 0.07347,0.2357419 0,0.348 z"
       id="path29713"
       style="isolation:isolate;fill:url(#linear-gradient-36);stroke-width:1" />
    <path
       class="cls-50"
       d="m 30.234995,8.7892048 a 0.5562933,0.59496772 0 0 1 -0.388356,-0.2245162 0.5667894,0.60619352 0 0 1 0,-0.3367741 1.1335788,1.212387 0 0 1 0.650758,-0.8419355 1.4064774,1.504258 0 0 1 1.479951,0.2694193 1.4379657,1.5379354 0 0 1 0.472324,1.4705806 A 0.9341529,0.99909673 0 0 1 31.599488,9.9566886 0.4093479,0.43780643 0 0 1 31.095675,9.5974628 0.5562933,0.59496772 0 0 0 30.896249,8.9800435 0.7137348,0.76335481 0 0 0 30.234995,8.7892048 Z"
       id="path29715"
       style="isolation:isolate;fill:url(#linear-gradient-37);stroke-width:1" />
    <path
       class="cls-51"
       d="m 29.846639,8.5646886 c 0,0 0,0 0,0.067355 a 0.2204181,0.23574193 0 0 1 0.09446,-0.2020645 0.2309142,0.24696773 0 0 1 0.220418,-0.291871 0.2309142,0.24696773 0 0 1 0.09446,-0.2357419 0.2414103,0.25819354 0 0 1 0.241411,0 0.2938908,0.31432257 0 0 1 0.29389,-0.2357419 0.5667894,0.60619352 0 0 1 0.440837,0.089806 0.4618284,0.49393546 0 0 1 0.451332,0.1683871 0.2204181,0.23574193 0 0 0 0,0.067355 h 0.08397 a 0.3253791,0.34799999 0 0 1 0.199426,0.3143226 0.2309142,0.24696773 0 0 1 0.188929,0.2020645 0.4828206,0.51638708 0 0 1 0,0.291871 0.2728986,0.29187096 0 0 1 0,0.4153548 0.2938908,0.31432257 0 0 1 -0.146945,0.3704516 0.209922,0.22451612 0 0 1 -0.07347,0.2020645 0.944649,1.0103225 0 0 0 0.524805,-0.7296774 1.4589579,1.560387 0 0 0 -1.952274,-1.7399999 1.1335788,1.212387 0 0 0 -0.650759,0.8419354 0.4828206,0.51638708 0 0 0 -0.0105,0.404129 z"
       id="path29717"
       style="isolation:isolate;fill:url(#linear-gradient-38);stroke-width:1" />
    <path
       class="cls-52"
       d="m 28.954471,14.312301 a 2.4770796,2.6492902 0 0 0 1.815825,-0.819484 1.2280437,1.3134193 0 0 0 0.178434,-1.796128 c -0.262403,-0.246968 -0.577286,-0.179613 -0.965641,0 a 3.2852793,3.5136773 0 0 1 -0.724231,0.269419 H 28.566115 A 3.9990141,4.2770321 0 0 1 27.831388,11.71914 c -0.388356,-0.168387 -0.713735,-0.224516 -0.965641,0 a 1.2385398,1.3246451 0 0 0 0.24141,1.784903 2.4455913,2.6156128 0 0 0 1.847314,0.740903 z"
       id="path29719"
       style="isolation:isolate;fill:url(#linear-gradient-39);stroke-width:1" />
    <path
       class="cls-22"
       d="M 29.626221,12.819269 A 0.9551451,1.0215483 0 0 1 28.933479,13.156043 0.944649,1.0103225 0 0 1 28.23024,12.852947"
       id="path29721"
       style="isolation:isolate;fill:none;stroke:#7b4706;stroke-width:0.379919px;stroke-linecap:round;stroke-linejoin:round" />
    <path
       class="cls-53"
       d="m 27.474521,10.001592 c 0.136449,0 0.304387,-0.1347099 0.262402,-0.2581937 -0.04198,-0.1234839 -0.283395,-0.089807 -0.398852,0 -0.115457,0.089806 -0.251906,0.1683871 -0.230914,0.2581937 0.02099,0.08981 0.18893,0.07858 0.367364,0 z"
       id="path29723"
       style="isolation:isolate;fill:#eecda0;stroke-width:1" />
    <path
       class="cls-53"
       d="m 30.276979,10.001592 c -0.136449,0 -0.304386,-0.1122583 -0.283394,-0.2357421 0.02099,-0.1234839 0.283394,-0.1122581 0.409348,-0.056129 0.125953,0.056129 0.262402,0.1571613 0.24141,0.2469678 -0.02099,0.089806 -0.18893,0.044903 -0.367364,0.044903 z"
       id="path29725"
       style="isolation:isolate;fill:#eecda0;stroke-width:1" />
    <path
       class="cls-54"
       d="m 31.232124,12.650882 a 0.1154571,0.12348387 0 0 0 0,-0.08981 0.1679376,0.1796129 0 0 0 0,-0.190839 c 0,0 0,0 0,0 0,0 0,-0.06735 0,-0.101032 a 0.1154571,0.12348387 0 0 0 0,-0.101033 v 0 a 0.1574415,0.16838709 0 0 0 -0.05248,-0.134709 0.1469454,0.15716128 0 0 0 -0.115457,0 0.1784337,0.1908387 0 0 0 -0.157442,-0.08981 0.1364493,0.14593548 0 0 0 -0.09446,0 0.1574415,0.16838709 0 0 0 -0.06298,0.05613 4.0724868,4.3556127 0 0 0 -0.703239,0.258194 0.2519064,0.26941934 0 0 0 -0.283395,0.145935 0.3463713,0.3704516 0 0 0 -0.419844,0.168387 0.4513323,0.48270966 0 0 0 -0.398851,0 0.2833947,0.30309676 0 0 0 -0.335876,-0.07858 0.2624025,0.28064515 0 0 0 -0.24141,-0.13471 0.2309142,0.24696773 0 0 1 -0.08397,0 v 0 a 0.2414103,0.25819354 0 0 0 -0.304387,-0.101032 0.2204181,0.23574193 0 0 0 -0.304386,-0.112258 0.2414103,0.25819354 0 0 0 -0.314883,-0.112258 v 0 a 0.209922,0.22451612 0 0 0 -0.178434,0 0.1889298,0.20206451 0 0 0 -0.09446,0.157161 0.1574415,0.16838709 0 0 0 -0.104961,0.07858 0.1364493,0.14593548 0 0 0 0,0.134709 0.104961,0.11225806 0 0 0 0,0.168387 0.1679376,0.1796129 0 0 0 0,0.07858 0.8501841,0.90929029 0 0 1 0.220418,-0.819484 c 0.251906,-0.269419 0.577286,-0.21329 0.965641,0 a 3.3377598,3.5698063 0 0 0 0.734727,0.246968 h 0.692743 a 3.2852793,3.5136773 0 0 0 0.724231,-0.269419 c 0.377859,-0.179613 0.703238,-0.246968 0.965641,0 a 0.9131607,0.97664512 0 0 1 -0.05248,0.841935 z"
       id="path29727"
       style="isolation:isolate;fill:url(#linear-gradient-40);stroke-width:1" />
    <path
       d="m 28.922982,12.359011 a 0.7872075,0.84193545 0 0 0 0.493317,-0.168387 c 0.125953,-0.08981 0.293891,-0.224516 0.272899,-0.392903 -0.02099,-0.168387 -0.472325,-0.08981 -0.776712,-0.07858 -0.304387,0.01123 -0.734727,-0.202064 -0.776711,0.112258 -0.04198,0.314323 0.157441,0.303097 0.283395,0.381678 a 0.9026646,0.96541932 0 0 0 0.503812,0.145935 z"
       id="path29729"
       style="isolation:isolate;stroke-width:1" />
    <path
       class="cls-55"
       d="m 28.912486,11.842624 a 2.4770796,2.6492902 0 0 1 -0.493316,-0.07858 c -0.07347,0 -0.157442,0 -0.167938,0 -0.0105,0 0.07347,0.157162 0.451332,0.213291 a 1.6688799,1.7849032 0 0 0 0.829192,-0.13471 c 0.06298,0 0.08397,-0.07858 0.06298,-0.112258 -0.02099,-0.03368 -0.07347,-0.05613 -0.178434,0 a 2.3616225,2.5258064 0 0 1 -0.503813,0.112258 z"
       id="path29731"
       style="isolation:isolate;fill:#193774;stroke-width:1" />
    <path
       class="cls-56"
       d="M 27.474521,8.8790112 A 1.04961,1.1225806 0 0 0 27.117653,8.486108 0.6717504,0.71845158 0 0 0 26.382926,8.6881725 0.6507582,0.69599997 0 0 0 26.267469,9.4515273 c 0.08397,0.1796129 0.388356,0.2694193 0.388356,0.2694193 a 0.8501841,0.90929029 0 0 1 0.251906,-0.5388386 1.04961,1.1225806 0 0 1 0.56679,-0.3030968 z"
       id="path29733"
       style="isolation:isolate;fill:#7b4706;stroke-width:1" />
    <path
       class="cls-56"
       d="M 30.234995,8.7892048 A 1.04961,1.1225806 0 0 1 30.57087,8.3738499 0.6927426,0.7409032 0 0 1 31.316093,8.542237 0.6717504,0.71845158 0 0 1 31.463039,9.3168176 C 31.37907,9.4852047 31.074683,9.5974628 31.074683,9.5974628 A 0.8501841,0.90929029 0 0 0 30.801784,9.0698499 0.9236568,0.98787093 0 0 0 30.234995,8.7892048 Z"
       id="path29735"
       style="isolation:isolate;fill:#7b4706;stroke-width:1" />
    <ellipse
       cx="27.64246"
       cy="11.045592"
       id="circle29737"
       style="isolation:isolate;stroke-width:1"
       rx="0.3568674"
       ry="0.38167742" />
    <ellipse
       class="cls-57"
       cx="27.558489"
       cy="10.922108"
       id="circle29739"
       style="isolation:isolate;fill:#608bc3;stroke-width:1"
       rx="0.13644929"
       ry="0.14593548" />
    <ellipse
       cx="30.151028"
       cy="10.989462"
       id="circle29741"
       style="isolation:isolate;stroke-width:1"
       rx="0.3568674"
       ry="0.38167742" />
    <ellipse
       class="cls-57"
       cx="30.067057"
       cy="10.865979"
       id="circle29743"
       style="isolation:isolate;fill:#608bc3;stroke-width:1"
       rx="0.13644929"
       ry="0.14593548" />
    <path
       class="cls-58"
       d="m 30.885753,18.836301 a 15.618197,16.703999 0 0 1 1.165067,-2.099226 c 0.209922,-0.471483 0.99713,-0.482709 1.437966,-0.291871 0.650758,0.26942 0.86068,1.605291 0.734727,2.424775 -0.125953,0.819483 -1.395981,1.481806 -1.395981,1.481806 0,0 -0.713735,-0.572516 -0.776712,-1.044 a 1.9522746,2.0879999 0 0 1 0,-0.291871 c 0,0 -1.10209,0.325548 -1.165067,-0.179613 z"
       id="path29745"
       style="isolation:isolate;fill:url(#linear-gradient-41);stroke-width:1" />
    <path
       class="cls-59"
       d="m 32.533641,20.104817 a 1.4064774,1.504258 0 0 1 -0.472325,-0.763355 c 0,-0.157161 0,-0.303096 0,-0.303096 0,0 -1.04961,0.359225 -1.154571,-0.145936 a 18.179245,19.443096 0 0 1 1.133579,-2.155355 c 0,0.145936 -0.251906,0.987871 0,0.931742 a 1.1230827,1.2011612 0 0 0 0.503813,-0.460258 c 0,0.168387 -0.37786,1.560387 0.577285,1.796129 0.556294,0.123484 0.02099,0.61742 -0.587781,1.100129 z"
       id="path29747"
       style="isolation:isolate;fill:url(#linear-gradient-42);stroke-width:1" />
    <path
       class="cls-22"
       d="m 30.885753,18.836301 a 15.618197,16.703999 0 0 1 1.165067,-2.099226 c 0.209922,-0.471483 0.99713,-0.482709 1.437966,-0.291871 0.650758,0.26942 0.86068,1.605291 0.734727,2.424775 -0.125953,0.819483 -1.395981,1.481806 -1.395981,1.481806 0,0 -0.713735,-0.572516 -0.776712,-1.044 a 1.9522746,2.0879999 0 0 1 0,-0.291871 c 0,0 -1.10209,0.325548 -1.165067,-0.179613 z"
       id="path29749"
       style="isolation:isolate;fill:none;stroke:#7b4706;stroke-width:0.379919px;stroke-linecap:round;stroke-linejoin:round" />
    <path
       class="cls-60"
       d="m 28.303713,19.756817 a 1.2385398,1.3246451 0 0 0 -1.270029,1.189936 c 0,0.718451 0.556294,1.392 1.626896,1.25729 1.070602,-0.13471 1.448462,-0.538839 1.500942,-1.055226 a 1.04961,1.1225806 0 0 0 -0.629766,-1.234839 2.9074197,3.1095483 0 0 0 -1.228043,-0.157161 z"
       id="path29751"
       style="isolation:isolate;fill:url(#linear-gradient-43);stroke-width:1" />
    <path
       class="cls-22"
       d="m 28.303713,19.756817 a 1.2385398,1.3246451 0 0 0 -1.270029,1.189936 c 0,0.718451 0.556294,1.392 1.626896,1.25729 1.070602,-0.13471 1.448462,-0.538839 1.500942,-1.055226 a 1.04961,1.1225806 0 0 0 -0.629766,-1.234839 2.9074197,3.1095483 0 0 0 -1.228043,-0.157161 z"
       id="path29753"
       style="isolation:isolate;fill:none;stroke:#7b4706;stroke-width:0.379919px;stroke-linecap:round;stroke-linejoin:round" />
    <path
       class="cls-56"
       d="m 28.744549,20.295656 a 0.8501841,0.90929029 0 0 0 -0.86068,0.808258 c 0,0.493935 0.377859,0.954193 1.04961,0.853161 0.67175,-0.101032 0.986633,-0.359226 1.04961,-0.718451 a 0.7242309,0.77458061 0 0 0 -0.440837,-0.83071 1.8683058,1.9981935 0 0 0 -0.797703,-0.112258 z"
       id="path29755"
       style="isolation:isolate;fill:#7b4706;stroke-width:1" />
    <path
       class="cls-61"
       d="m 33.068942,20.553849 a 0.9026646,0.96541932 0 0 1 -0.661254,-1.347096 2.09922,2.2451612 0 0 1 1.752848,-1.493032 c 0.682247,-0.05613 0.934153,0.280645 1.04961,0.516387 a 0.9236568,0.98787093 0 0 1 0,0.763354 c -0.104961,0.303097 -1.731856,0.572517 -1.731856,0.572517"
       id="path29757"
       style="isolation:isolate;fill:url(#linear-gradient-44);stroke-width:1" />
    <path
       class="cls-62"
       d="m 34.485915,19.992559 c 0.461829,-0.336774 0.881673,-0.954193 0.724231,-1.403226 -0.157441,-0.449032 -0.755719,-0.56129 -1.553422,0.101033 -0.797704,0.662322 -1.04961,1.12258 -0.923657,1.448129 0.125953,0.325548 0.335875,0.527612 0.776711,0.415354 a 3.2327988,3.4575482 0 0 0 0.976137,-0.56129 z"
       id="path29759"
       style="isolation:isolate;fill:url(#linear-gradient-45);stroke-width:1" />
    <path
       class="cls-63"
       d="m 34.485915,19.992559 c 0.461829,-0.336774 0.881673,-0.954193 0.724231,-1.403226 -0.157441,-0.449032 -0.755719,-0.56129 -1.553422,0.101033 -0.797704,0.662322 -1.04961,1.12258 -0.923657,1.448129 0.125953,0.325548 0.335875,0.527612 0.776711,0.415354 a 3.2327988,3.4575482 0 0 0 0.976137,-0.56129 z"
       id="path29761"
       style="isolation:isolate;fill:url(#linear-gradient-46);stroke-width:1" />
    <path
       class="cls-22"
       d="m 35.178658,18.230108 c -0.08397,-0.235742 -0.335875,-0.572517 -1.04961,-0.516387 a 2.09922,2.2451612 0 0 0 -1.752849,1.493032 0.9026646,0.96541932 0 0 0 0.661255,1.347096 v 0 a 0.734727,0.78580642 0 0 0 0.43034,0 3.2327988,3.4575482 0 0 0 0.976137,-0.56129 1.7948331,1.9196128 0 0 0 0.724231,-0.987871 v 0 a 0.9236568,0.98787093 0 0 0 0.0105,-0.77458 z"
       id="path29763"
       style="isolation:isolate;fill:none;stroke:#7b4706;stroke-width:0.379919px;stroke-linecap:round;stroke-linejoin:round" />
    <path
       class="cls-56"
       d="m 34.380954,20.104817 c 0.335876,-0.258193 0.650759,-0.718451 0.524805,-1.044 -0.125953,-0.325548 -0.545797,-0.415355 -1.144074,0.06735 -0.598278,0.48271 -0.734727,0.819484 -0.682247,1.122581 0.05248,0.303096 0.251906,0.392903 0.577286,0.303096 a 2.5505523,2.7278709 0 0 0 0.72423,-0.449032 z"
       id="path29765"
       style="isolation:isolate;fill:#7b4706;stroke-width:1" />
  </g>
  <g
     id="g4561"
     transform="matrix(0.47203597,0,0,0.47203597,24.793698,25.33801)">
    <path
       style="fill:url(#linearGradient3055);fill-rule:evenodd;stroke:none"
       d="M 32.750639,39.475393 3.0670458,46.804939 V 8.4099106 L 31.336088,2.8342363 Z"
       id="Rectangle"
       inkscape:connector-curvature="0" />
    <path
       inkscape:connector-curvature="0"
       style="fill:url(#linearGradient3051);fill-rule:evenodd;stroke:none"
       id="Path-2"
       d="M 3.2647067,7.7502188 36.168457,1.0244422 c -0.208907,5.7323608 0.297135,12.0131648 1.518125,18.8424108 1.22099,6.829247 4.310345,12.969938 9.268066,18.422074 L 11.7525,46.260307 C 7.8032421,41.045391 5.3105663,35.035579 4.2744724,28.230872 3.2383784,21.426164 2.9017899,14.59928 3.2647067,7.7502188 Z" />
    <path
       style="fill:none;stroke:#0e19a5;stroke-width:3;stroke-linecap:round"
       d="M 35.875231,33.071792 C 29.808367,32.624039 22.479056,27.481754 18.951305,22.01111"
       id="Path-3"
       inkscape:connector-curvature="0"
       sodipodi:nodetypes="cc" />
    <path
       style="fill:none;stroke:#0e19a5;stroke-width:3;stroke-linecap:round"
       d="M 16.491963,30.437601 C 14.99015,21.38952 13.655558,17.620324 14.287376,17.106274 c 0.631818,-0.51405 4.309473,0.738158 12.478549,2.123935"
       id="Path-4"
       inkscape:connector-curvature="0"
       sodipodi:nodetypes="czc" />
    <path
       style="fill:none;stroke:#dfd98c;stroke-width:1;stroke-linecap:square;stroke-dasharray:1, 2"
       inkscape:connector-curvature="0"
       id="Line"
       d="M 3.5,14.5 35.997134,7.6523611"
       sodipodi:nodetypes="cc" />
    <path
       style="fill:none;stroke:#988d00;stroke-width:1"
       inkscape:connector-curvature="0"
       id="Path-2-Copy"
       d="M 3.6237194,7.7502188 36.52747,1.1680473 c -0.208907,5.7323608 -0.06188,11.8695597 1.159112,18.6988057 1.22099,6.829247 4.310345,12.969938 9.268066,18.422074 L 11.7525,46.260307 C 7.8032421,41.045391 5.3105663,35.035579 4.2744724,28.230872 3.2383784,21.426164 3.2608026,14.59928 3.6237194,7.7502188 Z"
       sodipodi:nodetypes="ccsccsc" />
  </g>
</svg>
