<?xml version="1.0" encoding="UTF-8" standalone="no"?>
<svg
   viewBox="0 0 48 48"
   version="1.1"
   id="svg112"
   sodipodi:docname="assignprototypes.svg"
   inkscape:version="1.3-dev (fdc7329b, 2022-05-31)"
   xmlns:inkscape="http://www.inkscape.org/namespaces/inkscape"
   xmlns:sodipodi="http://sodipodi.sourceforge.net/DTD/sodipodi-0.dtd"
   xmlns:xlink="http://www.w3.org/1999/xlink"
   xmlns="http://www.w3.org/2000/svg"
   xmlns:svg="http://www.w3.org/2000/svg">
  <sodipodi:namedview
     id="namedview112"
     pagecolor="#ffffff"
     bordercolor="#666666"
     borderopacity="1.0"
     inkscape:showpageshadow="2"
     inkscape:pageopacity="0.0"
     inkscape:pagecheckerboard="0"
     inkscape:deskcolor="#d1d1d1"
     showgrid="false"
     inkscape:zoom="13.604167"
     inkscape:cx="22.493108"
     inkscape:cy="23.963246"
     inkscape:window-width="2880"
     inkscape:window-height="1557"
     inkscape:window-x="-8"
     inkscape:window-y="-8"
     inkscape:window-maximized="1"
     inkscape:current-layer="svg112" />
  <defs
     id="defs25">
    <linearGradient
       inkscape:collect="always"
       id="linearGradient116">
      <stop
         style="stop-color:#000000;stop-opacity:0.33333337;"
         offset="0"
         id="stop115" />
      <stop
         style="stop-color:#000000;stop-opacity:0;"
         offset="1"
         id="stop116" />
    </linearGradient>
    <radialGradient
       id="radial-gradient"
       cx="-451.23"
       cy="115.19"
       fx="-451.23"
       fy="115.19"
       r="12.26"
       gradientTransform="matrix(2.0433372,0,0,0.53,943.68245,-19.424793)"
       gradientUnits="userSpaceOnUse">
      <stop
         offset=".07"
         stop-color="#212121"
         stop-opacity=".4"
         id="stop1" />
      <stop
         offset=".89"
         stop-color="#212121"
         stop-opacity="0"
         id="stop2" />
    </radialGradient>
    <linearGradient
       id="linear-gradient"
       x1="38.1"
       y1="20.84"
       x2="37.98"
       y2="21.84"
       gradientTransform="matrix(1, 0, 0, 1, 0, 0)"
       gradientUnits="userSpaceOnUse">
      <stop
         offset="0"
         stop-color="#babdb6"
         id="stop3" />
      <stop
         offset="1"
         stop-color="#888a85"
         id="stop4" />
    </linearGradient>
    <linearGradient
       id="linear-gradient-2"
       x1="38.87"
       y1="18.86"
       x2="38.84"
       y2="13.85"
       gradientTransform="matrix(1, 0, 0, 1, 0, 0)"
       gradientUnits="userSpaceOnUse">
      <stop
         offset="0"
         stop-color="#fff"
         stop-opacity="0"
         id="stop5" />
      <stop
         offset=".56"
         stop-color="#fff8f8"
         stop-opacity=".95"
         id="stop6" />
      <stop
         offset=".9"
         stop-color="#fce94f"
         id="stop7" />
      <stop
         offset="1"
         stop-color="#fcaf3e"
         id="stop8" />
    </linearGradient>
    <linearGradient
       id="linear-gradient-3"
       x1="39.87"
       y1="12.69"
       x2="39.87"
       y2="12.16"
       gradientTransform="matrix(1, 0, 0, 1, 0, 0)"
       gradientUnits="userSpaceOnUse">
      <stop
         offset="0"
         stop-color="#fcc627"
         id="stop9" />
      <stop
         offset="1"
         stop-color="#f57900"
         id="stop10" />
      <stop
         offset="1"
         stop-color="#fff8f8"
         id="stop11" />
    </linearGradient>
    <linearGradient
       id="linear-gradient-4"
       x1="36.9"
       y1="16.21"
       x2="34.92"
       y2="13.23"
       gradientTransform="matrix(1, 0, 0, 1, 0, 0)"
       gradientUnits="userSpaceOnUse">
      <stop
         offset="0"
         stop-color="#fff"
         stop-opacity="0"
         id="stop12" />
      <stop
         offset="1"
         stop-color="#fff8f8"
         id="stop13" />
    </linearGradient>
    <linearGradient
       id="linear-gradient-5"
       x1="38.05"
       y1="12.6"
       x2="38.39"
       y2="13.41"
       xlink:href="#linear-gradient-3"
       gradientTransform="matrix(1.380709,0,0,1.3812329,-8.9787297,-12.298394)" />
    <linearGradient
       id="linear-gradient-6"
       x1="10.18"
       y1="20.84"
       x2="10.06"
       y2="21.84"
       xlink:href="#linear-gradient"
       gradientTransform="matrix(1.380709,0,0,1.3812329,-8.9787297,-12.298394)" />
    <linearGradient
       id="linear-gradient-7"
       x1="10.95"
       y1="18.86"
       x2="10.92"
       y2="13.85"
       xlink:href="#linear-gradient-2"
       gradientTransform="matrix(1.380709,0,0,1.3812329,-8.9787297,-12.298394)" />
    <linearGradient
       id="linear-gradient-8"
       x1="11.95"
       y1="12.69"
       x2="11.95"
       y2="12.16"
       xlink:href="#linear-gradient-3"
       gradientTransform="matrix(1.380709,0,0,1.3812329,-8.9787297,-12.298394)" />
    <linearGradient
       id="linear-gradient-9"
       x1="8.98"
       y1="16.21"
       x2="7"
       y2="13.23"
       xlink:href="#linear-gradient-4"
       gradientTransform="matrix(1.380709,0,0,1.3812329,-8.9787297,-12.298394)" />
    <linearGradient
       id="linear-gradient-10"
       x1="10.12"
       y1="12.6"
       x2="10.47"
       y2="13.41"
       xlink:href="#linear-gradient-3"
       gradientTransform="matrix(1.380709,0,0,1.3812329,-8.9787297,-12.298394)" />
    <linearGradient
       id="linear-gradient-11"
       x1="24.34"
       y1="29.76"
       x2="24.21"
       y2="30.76"
       xlink:href="#linear-gradient"
       gradientTransform="matrix(1.380709,0,0,1.3812329,-8.9787297,-12.298394)" />
    <linearGradient
       id="linear-gradient-12"
       x1="25.1"
       y1="27.78"
       x2="25.08"
       y2="22.77"
       xlink:href="#linear-gradient-2"
       gradientTransform="matrix(1.380709,0,0,1.3812329,-8.9787297,-12.298394)" />
    <linearGradient
       id="linear-gradient-13"
       x1="26.11"
       y1="21.62"
       x2="26.11"
       y2="21.08"
       xlink:href="#linear-gradient-3"
       gradientTransform="matrix(1.380709,0,0,1.3812329,-8.9787297,-12.298394)" />
    <linearGradient
       id="linear-gradient-14"
       x1="23.14"
       y1="25.13"
       x2="21.16"
       y2="22.15"
       xlink:href="#linear-gradient-4"
       gradientTransform="matrix(1.380709,0,0,1.3812329,-8.9787297,-12.298394)" />
    <linearGradient
       id="linear-gradient-15"
       x1="24.28"
       y1="21.52"
       x2="24.63"
       y2="22.33"
       xlink:href="#linear-gradient-3"
       gradientTransform="matrix(1.380709,0,0,1.3812329,-8.9787297,-12.298394)" />
    <linearGradient
       id="linear-gradient-16"
       y1="38.68"
       x2="37.98"
       y2="39.68"
       xlink:href="#linear-gradient"
       gradientTransform="matrix(1.380709,0,0,1.3812329,-8.9787297,-12.298394)" />
    <linearGradient
       id="linear-gradient-17"
       y1="36.7"
       x2="38.84"
       y2="31.69"
       xlink:href="#linear-gradient-2"
       gradientTransform="matrix(1.380709,0,0,1.3812329,-8.9787297,-12.298394)" />
    <linearGradient
       id="linear-gradient-18"
       x1="39.87"
       y1="30.54"
       x2="39.87"
       y2="30"
       xlink:href="#linear-gradient-3"
       gradientTransform="matrix(1.380709,0,0,1.3812329,-8.9787297,-12.298394)" />
    <linearGradient
       id="linear-gradient-19"
       y1="34.05"
       x2="34.92"
       y2="31.07"
       xlink:href="#linear-gradient-4"
       gradientTransform="matrix(1.380709,0,0,1.3812329,-8.9787297,-12.298394)" />
    <linearGradient
       id="linear-gradient-20"
       x1="38.05"
       y1="30.45"
       x2="38.39"
       y2="31.25"
       xlink:href="#linear-gradient-3"
       gradientTransform="matrix(1.380709,0,0,1.3812329,-8.9787297,-12.298394)" />
    <linearGradient
       id="linear-gradient-21"
       x1="10.18"
       y1="38.68"
       x2="10.06"
       y2="39.68"
       xlink:href="#linear-gradient"
       gradientTransform="matrix(1.380709,0,0,1.3812329,-8.9787297,-12.298394)" />
    <linearGradient
       id="linear-gradient-22"
       x1="10.95"
       y1="36.7"
       x2="10.92"
       y2="31.69"
       xlink:href="#linear-gradient-2"
       gradientTransform="matrix(1.380709,0,0,1.3812329,-8.9787297,-12.298394)" />
    <linearGradient
       id="linear-gradient-23"
       x1="11.95"
       y1="30.54"
       x2="11.95"
       y2="30"
       xlink:href="#linear-gradient-3"
       gradientTransform="matrix(1.380709,0,0,1.3812329,-8.9787297,-12.298394)" />
    <linearGradient
       id="linear-gradient-24"
       x1="8.98"
       y1="34.05"
       x2="7"
       y2="31.07"
       xlink:href="#linear-gradient-4"
       gradientTransform="matrix(1.380709,0,0,1.3812329,-8.9787297,-12.298394)" />
    <linearGradient
       id="linear-gradient-25"
       x1="10.12"
       y1="30.45"
       x2="10.47"
       y2="31.25"
       xlink:href="#linear-gradient-3"
       gradientTransform="matrix(1.380709,0,0,1.3812329,-8.9787297,-12.298394)" />
    <linearGradient
       id="linear-gradient-26"
       x1="29.52"
       y1="35.1"
       x2="33.26"
       y2="31.06"
       gradientTransform="rotate(30,3.7146845,-83.074029)"
       gradientUnits="userSpaceOnUse">
      <stop
         offset="0"
         stop-color="#fce94f"
         id="stop14" />
      <stop
         offset="1"
         stop-color="#c17d11"
         id="stop15" />
    </linearGradient>
    <linearGradient
       id="linear-gradient-27"
       x1="24.14"
       y1="14.85"
       x2="27.16"
       y2="16.66"
       gradientTransform="translate(-46.469341,-1.8871516)"
       gradientUnits="userSpaceOnUse">
      <stop
         offset="0"
         stop-color="#3465a4"
         id="stop16" />
      <stop
         offset="1"
         stop-color="#204a87"
         id="stop17" />
    </linearGradient>
    <linearGradient
       id="linear-gradient-28"
       x1="19.55"
       y1="24.02"
       x2="15.57"
       y2="24.02"
       gradientTransform="matrix(-0.8660254,-0.5,-0.5,0.8660254,1.790659,11.742848)"
       gradientUnits="userSpaceOnUse">
      <stop
         offset="0"
         stop-color="#fce94f"
         id="stop18" />
      <stop
         offset=".51"
         stop-color="#edd400"
         id="stop19" />
      <stop
         offset=".99"
         stop-color="#c4a000"
         id="stop20" />
    </linearGradient>
    <linearGradient
       id="linear-gradient-29"
       x1="33.81"
       y1="24.11"
       x2="29.58"
       y2="24.11"
       gradientTransform="rotate(30,3.7146845,-83.074029)"
       xlink:href="#linear-gradient-4" />
    <linearGradient
       id="linear-gradient-30"
       x1="28.26"
       y1="24.4"
       x2="32.43"
       y2="24.4"
       gradientTransform="rotate(30,3.7146845,-83.074029)"
       gradientUnits="userSpaceOnUse">
      <stop
         offset="0"
         stop-color="#a2bede"
         id="stop21" />
      <stop
         offset="1"
         stop-color="#285092"
         id="stop22" />
    </linearGradient>
    <linearGradient
       id="linear-gradient-31"
       x1="28.26"
       y1="24.39"
       x2="32.43"
       y2="24.39"
       gradientTransform="rotate(30,3.7146845,-83.074029)"
       gradientUnits="userSpaceOnUse">
      <stop
         offset="0"
         stop-color="#fce94f"
         id="stop23" />
      <stop
         offset=".51"
         stop-color="#edd400"
         id="stop24" />
      <stop
         offset=".99"
         stop-color="#a58600"
         id="stop25" />
    </linearGradient>
    <linearGradient
       id="linear-gradient-32"
       x1="25.85"
       y1="16.47"
       x2="24.46"
       y2="15.68"
       gradientTransform="translate(-46.469341,-1.8871516)"
       xlink:href="#linear-gradient-4" />
    <radialGradient
       inkscape:collect="always"
       xlink:href="#linearGradient116"
       id="radialGradient116"
       cx="24.11026"
       cy="41.685206"
       fx="24.11026"
       fy="41.685206"
       r="24.015084"
       gradientTransform="matrix(0.37405343,0,0,0.09781584,-0.01393206,17.458138)"
       gradientUnits="userSpaceOnUse" />
    <radialGradient
       inkscape:collect="always"
       xlink:href="#linearGradient116"
       id="radialGradient138"
       gradientUnits="userSpaceOnUse"
       gradientTransform="matrix(0.35262739,0,0,0.09221288,30.787495,16.467514)"
       cx="24.11026"
       cy="41.685206"
       fx="24.11026"
       fy="41.685206"
       r="24.015084" />
    <linearGradient
       inkscape:collect="always"
       xlink:href="#linear-gradient"
       id="linearGradient153"
       gradientTransform="matrix(1.380709,0,0,1.3812329,-8.9787297,-12.298394)"
       x1="10.18"
       y1="20.84"
       x2="10.06"
       y2="21.84" />
    <linearGradient
       inkscape:collect="always"
       xlink:href="#linear-gradient-2"
       id="linearGradient154"
       gradientTransform="matrix(1.380709,0,0,1.3812329,-8.9787297,-12.298394)"
       x1="10.95"
       y1="18.86"
       x2="10.92"
       y2="13.85" />
    <linearGradient
       inkscape:collect="always"
       xlink:href="#linear-gradient-3"
       id="linearGradient155"
       gradientTransform="matrix(1.380709,0,0,1.3812329,-8.9787297,-12.298394)"
       x1="11.95"
       y1="12.69"
       x2="11.95"
       y2="12.16" />
    <linearGradient
       inkscape:collect="always"
       xlink:href="#linear-gradient-4"
       id="linearGradient156"
       gradientTransform="matrix(1.380709,0,0,1.3812329,-8.9787297,-12.298394)"
       x1="8.98"
       y1="16.21"
       x2="7"
       y2="13.23" />
    <linearGradient
       inkscape:collect="always"
       xlink:href="#linear-gradient-3"
       id="linearGradient157"
       gradientTransform="matrix(1.380709,0,0,1.3812329,-8.9787297,-12.298394)"
       x1="10.12"
       y1="12.6"
       x2="10.47"
       y2="13.41" />
    <radialGradient
       inkscape:collect="always"
       xlink:href="#linearGradient116"
       id="radialGradient157"
       gradientUnits="userSpaceOnUse"
       gradientTransform="matrix(0.36640128,0,0,0.09581478,16.084805,23.361631)"
       cx="24.11026"
       cy="41.685206"
       fx="24.11026"
       fy="41.685206"
       r="24.015084" />
    <linearGradient
       inkscape:collect="always"
       xlink:href="#linear-gradient"
       id="linearGradient172"
       gradientTransform="matrix(1.380709,0,0,1.3812329,-8.9787297,-12.298394)"
       x1="10.18"
       y1="20.84"
       x2="10.06"
       y2="21.84" />
    <linearGradient
       inkscape:collect="always"
       xlink:href="#linear-gradient-2"
       id="linearGradient173"
       gradientTransform="matrix(1.380709,0,0,1.3812329,-8.9787297,-12.298394)"
       x1="10.95"
       y1="18.86"
       x2="10.92"
       y2="13.85" />
    <linearGradient
       inkscape:collect="always"
       xlink:href="#linear-gradient-3"
       id="linearGradient174"
       gradientTransform="matrix(1.380709,0,0,1.3812329,-8.9787297,-12.298394)"
       x1="11.95"
       y1="12.69"
       x2="11.95"
       y2="12.16" />
    <linearGradient
       inkscape:collect="always"
       xlink:href="#linear-gradient-4"
       id="linearGradient175"
       gradientTransform="matrix(1.380709,0,0,1.3812329,-8.9787297,-12.298394)"
       x1="8.98"
       y1="16.21"
       x2="7"
       y2="13.23" />
    <linearGradient
       inkscape:collect="always"
       xlink:href="#linear-gradient-3"
       id="linearGradient176"
       gradientTransform="matrix(1.380709,0,0,1.3812329,-8.9787297,-12.298394)"
       x1="10.12"
       y1="12.6"
       x2="10.47"
       y2="13.41" />
    <radialGradient
       inkscape:collect="always"
       xlink:href="#linearGradient116"
       id="radialGradient176"
       gradientUnits="userSpaceOnUse"
       gradientTransform="matrix(0.41537509,0,0,0.10862155,0.1291489,40.759132)"
       cx="24.11026"
       cy="41.685206"
       fx="24.11026"
       fy="41.685206"
       r="24.015084" />
    <radialGradient
       inkscape:collect="always"
       xlink:href="#linearGradient116"
       id="radialGradient196"
       gradientUnits="userSpaceOnUse"
       gradientTransform="matrix(0.41537509,0,0,0.10862155,27.988261,40.759132)"
       cx="24.11026"
       cy="41.685206"
       fx="24.11026"
       fy="41.685206"
       r="24.015084" />
  </defs>
  <circle
     style="color:#000000;overflow:visible;fill:#8ae234;stroke:#4e9a06;stroke-width:0.5;stroke-linecap:round;stroke-linejoin:round;stop-color:#000000"
     id="path1"
     cx="39.068913"
     cy="11.062787"
     r="1.8744256" />
  <path
     id="ellipse25"
     style="fill:url(#radialGradient116);fill-opacity:1;stroke-width:1"
     d="M 17.987519,21.535612 A 8.9829247,2.3490556 0 0 1 9.0045932,23.884668 8.9829247,2.3490556 0 0 1 0.02166882,21.535612 8.9829247,2.3490556 0 0 1 9.0045932,19.186556 8.9829247,2.3490556 0 0 1 17.987519,21.535612 Z"
     clip-path="none" />
  <g
     id="g116"
     transform="matrix(1.4075868,0,0,1.4018421,2.1809677,-5.0713097)"
     style="stroke-width:0.71189">
    <path
       d="m 2.7158762,16.859433 c 0.3313702,0.71824 0.1932993,1.616041 -0.3175631,2.209972 0.7317758,-0.06906 1.4359374,-0.414371 1.9467998,-0.939238 z"
       style="fill:#231f20;stroke-width:0.71189"
       id="path40"
       clip-path="none" />
    <path
       d="m 3.4338449,17.978231 c 0.2761418,0.400558 0.1656851,0.787303 0.2071064,1.146423 0.041422,0.35912 1.3530948,0.400558 1.9882209,0.372933 C 6.2642984,19.46996 7.1617593,19.318027 6.1676488,19.22134 5.1735383,19.124654 5.0216603,19.04178 4.9250106,18.834596 4.828361,18.62741 4.8421681,18.44785 4.8421681,18.44785"
       style="fill:#231f20;stroke-width:0.71189"
       id="path41"
       clip-path="none" />
    <path
       d="m 5.9605424,17.080429 c 0.2485276,0.400558 0.1380709,0.787303 0.1794922,1.146424 0.041421,0.35912 1.1736026,0.400557 1.7396934,0.372932 0.5660907,-0.02763 1.3392877,-0.17956 0.469441,-0.276246 C 7.4793224,18.226855 7.3412514,18.143978 7.2584089,17.936794 7.1755664,17.729609 7.189374,17.550049 7.189374,17.550049"
       style="fill:#231f20;stroke-width:0.71189"
       id="path42"
       clip-path="none" />
    <path
       d="M 4.1932348,6.6797458 C 4.0689711,6.8316814 3.9447073,6.983617 3.8342505,7.1355526 3.6133371,7.4532362 3.4200378,7.7847321 3.2543528,8.1300403 2.7987187,9.0692787 2.536384,10.091391 2.4259273,11.127316 c -0.1794921,1.712729 0.027614,3.43927 0.2761418,5.138186 0.069036,0.497244 0.1656851,0.994487 0.4418269,1.408858 0.2623347,0.372932 0.6627403,0.635367 1.1183743,0.704429 0.151878,0.02763 0.3175631,0.02763 0.455634,-0.05524 C 4.828361,18.254487 4.9112035,18.143984 4.9940461,18.047298 5.6429793,17.3843 6.9546529,17.812483 7.5621649,17.108054 7.9625705,16.652247 7.8383067,15.947819 7.7416571,15.353888 7.3964798,13.061041 7.9487634,10.726758 7.7830784,8.4062865 7.72785,7.6466088 7.5621649,6.8040567 6.9408458,6.3620623 6.8441962,6.2930005 6.7337395,6.2239389 6.7061253,6.099628 6.6785111,6.0029417 6.7199324,5.9200677 6.7751608,5.8371937 7.2584089,4.9117677 8.3215548,4.33165 9.3570866,4.4145238 9.2052086,4.165902 8.9014526,4.0692157 8.6253108,4.0554033 8.349169,4.041591 8.0592201,4.1106526 7.7692713,4.1106526 6.96846,4.1106526 6.1124204,3.5995965 5.3944517,3.958717 5.0354674,4.1382773 4.8007468,4.5112101 4.7040972,4.9117677 4.6488689,5.132765 4.6212547,5.3675746 4.6212547,5.6023842 c 0,0.096686 -0.069036,0.3314959 -0.1656851,0.5663054 -0.096649,0.2348096 -0.1932993,0.4558068 -0.2485277,0.5110562 z"
       style="fill:#231f20;stroke-width:0.71189"
       id="path43"
       clip-path="none" />
    <path
       d="m 7.5621649,17.108054 c -0.607512,0.704429 -1.9053784,0.262435 -2.5681188,0.939238 -0.082842,0.08287 -0.1656851,0.207186 -0.2761418,0.276247 -0.2209135,0.138123 -0.7870041,0.06906 -0.9803034,-0.124312 -0.2485277,-0.248621 -0.3313702,-0.676803 -0.4004056,-1.008299 -0.2347206,-1.243109 -0.1794922,-2.458594 0.1932992,-3.67408 0.041422,-0.12431 0.082842,-0.234809 0.09665,-0.35912 0.013807,-0.124311 0,-0.248622 0,-0.372932 -0.013808,-0.64918 0,-1.312172 0.2209134,-1.919914 C 3.9999356,10.409075 4.1518136,9.9256426 4.3865342,9.5112732 4.6488689,9.0554662 4.9112035,8.6134717 5.1873454,8.1714773 5.3116092,7.9781047 5.4496801,7.7985444 5.601558,7.6327965 5.9743495,7.2184266 6.4023693,6.4863732 7.0513026,6.5139979 c 0.2623346,0 0.4556339,0.5663055 0.5246694,0.7873027 0.1242637,0.3591206 0.1794922,0.7320534 0.2071064,1.1049859 0.1518779,2.3066595 -0.4004056,4.6547545 -0.041421,6.9476015 0.082842,0.607743 0.2071063,1.298359 -0.1932993,1.767978 z"
       style="fill:#d3d7cf;stroke-width:0.71189"
       id="path44"
       clip-path="none" />
    <path
       d="m 6.816582,16.900869 c -0.4832482,0.08287 -0.9803034,0.17956 -1.4635515,0.207185 -0.5246695,0.02763 -1.0907602,0 -1.5325871,-0.303872 -0.2347204,-0.165747 -0.3865985,-0.386745 -0.4832481,-0.662991 -0.096649,0.331496 0.027614,0.635367 0.027614,0.966863 0,0.248622 0,0.441995 0.1104567,0.690617 0.1794922,0.428182 0.5384765,0.870176 1.0493388,0.635367 0.4694411,-0.220998 0.8284255,-0.773491 1.3254807,-0.911614 0.2485276,-0.06906 0.3865985,0.01381 0.5798978,-0.193373 0.1380709,-0.138123 0.2761418,-0.234809 0.3727914,-0.414369 z"
       style="fill:url(#linear-gradient-6);stroke-width:0.71189"
       id="path45"
       clip-path="none" />
    <path
       d="m 6.8027749,6.4034992 c 0.303756,-0.096687 0.4004056,0.1519356 0.5660907,0.3453083 0.069036,0.096686 0.151878,0.1795603 0.1932993,0.2900588 0.1932993,0.372933 0.2071064,0.9530507 0.2347205,1.3674202 0.151878,2.3066595 -0.4004056,4.6547545 -0.041421,6.9476015 0.082842,0.607743 0.2071063,1.298359 -0.1932993,1.767978 -0.2761418,0.331496 -0.6903545,0.41437 -1.1459884,0.469619 0.3313701,-0.248621 0.621319,-0.455807 0.8008111,-0.842552 0.069036,-0.17956 0.1242638,-0.372933 0.055228,-0.552493 -0.013808,-0.05524 -0.041422,-0.124311 -0.09665,-0.124311 -0.027614,-0.01381 -0.055228,0 -0.082843,0.01381 C 6.8856175,16.196441 6.664704,16.30694 6.4437906,16.362189 6.1538417,16.417437 5.8224715,16.334564 5.5877509,16.155004 5.3392234,15.975443 5.1459241,15.740633 4.9940461,15.492012 4.7869398,15.160515 4.6350618,14.829019 4.5798334,14.456087 4.4969908,13.903594 4.6350618,13.351101 4.4969908,12.81242 4.2622703,11.956056 4.0137427,11.141128 4.3174987,10.243326 4.4969908,9.7184584 4.7869398,9.2350263 4.9940461,8.7239701 5.3392234,7.8952308 5.8086644,7.1908019 6.4990189,6.5968719 6.5818615,6.5278101 6.6785111,6.4449361 6.816582,6.3896869 Z"
       style="fill:#eeeeec;stroke-width:0.71189"
       id="path46"
       clip-path="none" />
    <path
       d="m 6.3747552,6.8454938 c 0.3727914,-0.4558069 0.6765474,-0.3314959 1.0493388,0.027625 0.055228,0.041437 0.096649,0.096686 0.1380709,0.1519356 0.027614,0.055249 0.041421,0.1104987 0.055228,0.1657479 l 0.082842,0.3314959 c 0.069036,0.290059 0.069036,0.5801179 0.082843,0.8839893 0.1518779,2.3066595 -0.4004056,4.6547555 -0.041421,6.9476015 0.069035,0.524869 0.1794921,1.104987 -0.041422,1.560794 -0.041421,0.04144 -0.1104567,0.06906 -0.165685,0.110497 0.013808,-0.207185 0.013808,-0.414369 -0.027614,-0.607742 -0.055228,-0.193371 -0.1794922,-0.386745 -0.3589843,-0.455806 -0.1656851,-0.06906 -0.4004056,-0.08287 -0.455634,-0.262435 -0.027614,-0.04144 -0.027614,-0.08287 -0.013808,-0.151935 0,-0.165748 0,-0.331496 0.013808,-0.469619 0,-0.276247 0.013807,-0.580118 -0.1242638,-0.842552 C 6.3195267,13.76547 5.739629,13.627347 5.4082588,13.240602 5.0354674,12.798607 4.6212547,12.328989 4.4693767,11.748871 4.2622703,10.906318 4.6350618,10.049955 4.9940461,9.2626514 5.3806447,8.4339116 5.7948573,7.5913594 6.3609481,6.8731184 Z"
       style="fill:url(#linear-gradient-7);stroke-width:0.71189"
       id="path47"
       clip-path="none" />
    <path
       d="M 4.1932348,6.6797458 C 4.0689711,6.8316814 3.9447073,6.983617 3.8342505,7.1355526 3.6133371,7.4532362 3.4200378,7.7847321 3.2543528,8.1300403 2.7987187,9.0692787 2.536384,10.091391 2.4259273,11.127316 c -0.1794921,1.712729 0.027614,3.43927 0.2761418,5.138186 0.069036,0.497244 0.1656851,0.994487 0.4418269,1.408858 0.2623347,0.372932 0.6627403,0.635367 1.1183743,0.704429 0.151878,0.02763 0.3175631,0.02763 0.455634,-0.05524 C 4.828361,18.254487 4.9112035,18.143984 4.9940461,18.047298 5.6429793,17.3843 6.9546529,17.812483 7.5621649,17.108054 7.9625705,16.652247 7.8383067,15.947819 7.7416571,15.353888 7.3964798,13.061041 7.9487634,10.726758 7.7830784,8.4062865 7.72785,7.6466088 7.5621649,6.8040567 6.9408458,6.3620623 6.8441962,6.2930005 6.7337395,6.2239389 6.7061253,6.099628 6.6785111,6.0029417 6.7199324,5.9200677 6.7751608,5.8371937 7.2584089,4.9117677 8.3215548,4.33165 9.3570866,4.4145238 9.2052086,4.165902 8.9014526,4.0692157 8.6253108,4.0554033 8.349169,4.041591 8.0592201,4.1106526 7.7692713,4.1106526 6.96846,4.1106526 6.1124204,3.5995965 5.3944517,3.958717 5.0354674,4.1382773 4.8007468,4.5112101 4.7040972,4.9117677 4.6488689,5.132765 4.6212547,5.3675746 4.6212547,5.6023842 c 0,0.096686 -0.069036,0.3314959 -0.1656851,0.5663054 -0.096649,0.2348096 -0.1932993,0.4558068 -0.2485277,0.5110562 z"
       style="fill:none;stroke:#555753;stroke-width:0.213568px;stroke-miterlimit:10"
       id="path48"
       clip-path="none" />
    <path
       d="M 8.48724,4.4421485 C 8.0730273,4.3730869 7.2860231,4.4559609 6.8994245,4.6355212 6.512826,4.8150815 6.4714048,5.0360787 6.6785111,5.0360787 c 0.2071064,0 0.8284254,-0.1933727 1.0769531,-0.3314959 C 8.0039917,4.5664595 8.48724,4.4421485 8.48724,4.4421485 Z"
       style="fill:url(#linear-gradient-8);stroke-width:0.71189"
       id="path49"
       clip-path="none" />
    <path
       d="m 6.4714048,6.3896869 c 0,0 0,0.082874 -0.055228,0.124311 C 6.2366842,6.6797458 6.0709992,6.8454938 5.905314,7.025054 5.7672432,7.1631773 5.6567865,7.3703622 5.4634872,7.4394238 4.6902902,7.6742334 4.0137427,9.0278421 3.3924236,10.50576 3.1024747,11.237814 2.7158762,11.997492 2.370699,12.75717 2.0117146,13.530661 1.7217657,14.276526 1.5975019,14.88427 1.4870452,15.42295 1.4042026,16.141191 1.307553,16.224065 1.0314112,16.417437 0.41009216,15.381513 0.43770634,14.387025 0.46532053,12.674296 1.3765885,10.464324 2.0255217,9.5803349 2.4811557,8.9725919 3.1991243,8.0886033 3.6409513,7.4946732 3.8066363,7.2736759 3.9309002,7.0941157 3.9999356,6.9698047 c 0,-0.013813 0.013807,-0.027625 0.027614,-0.041437 C 4.0827782,6.8454938 4.1518136,6.7626198 4.220849,6.6935581 4.2760775,6.6383088 4.3727271,6.4173116 4.4555696,6.1686896 4.5384121,5.9476924 4.6212547,5.7128828 4.6212547,5.6023842 4.6350618,5.4642609 4.6350618,5.3261375 4.662676,5.1742019 L 5.4911013,5.6990705 6.1262275,6.099628 c 0.09665,0.069062 0.3451773,0.165748 0.3589844,0.2900589 z"
       style="fill:#231f20;stroke-width:0.71189"
       id="path50"
       clip-path="none" />
    <path
       d="M 4.6902902,5.9062554 C 4.9112035,6.3206252 5.7672432,6.4863732 6.2781055,6.4311239 6.7889679,6.3758745 5.5877509,7.2736759 4.9388177,7.5637349 4.2898846,7.8537937 3.59953,8.0747909 3.0886677,9.6908333 2.5778054,11.306876 1.4456239,13.088667 1.1970963,14.096966 0.94856868,15.105266 0.32724962,13.958843 1.0728325,11.665996 1.8184153,9.3731497 2.7572975,8.2267264 3.4890732,7.4946732 4.220849,6.7626198 4.662676,5.9062554 4.662676,5.9062554 Z"
       style="fill:url(#linear-gradient-9);stroke-width:0.71189"
       id="path51"
       clip-path="none" />
    <path
       d="M 5.8086644,6.2791883 C 5.7120148,6.2377513 5.3116092,5.9476924 5.3254163,5.3951992 5.3392234,4.842706 5.1735383,4.8012691 5.0078532,4.92558 4.8421681,5.049891 4.7040972,5.6300089 5.1735383,6.016754 5.4772943,6.265376 5.8086644,6.2791883 5.8086644,6.2791883 Z"
       style="fill:url(#linear-gradient-10);stroke-width:0.71189"
       id="path52"
       clip-path="none" />
    <path
       d="m 2.5916125,12.232302 c -0.082843,0.165748 -0.1518781,0.331496 -0.2347206,0.511056 -0.3589844,0.77349 -0.6489333,1.519356 -0.773197,2.127099 -0.1104568,0.53868 -0.1932994,1.256922 -0.289949,1.339796 C 1.0176041,16.403626 0.39628508,15.367701 0.42389926,14.373213 0.45151343,12.660484 1.307553,10.533386 1.8460295,9.5803349 2.370699,8.6825335 2.978211,8.1300403 3.4338449,7.5499225 3.6271442,7.2874882 3.9723215,6.9145554 4.2070419,6.6797458 4.2622703,6.6244964 4.35892,6.4034992 4.4417625,6.1548773 4.524605,5.9338801 4.6074475,5.6990705 4.6074475,5.5885718 4.6212547,5.4504486 4.6212547,5.3123252 4.6488689,5.1603896"
       style="fill:none;stroke:#555753;stroke-width:0.213568px;stroke-miterlimit:10"
       id="path53"
       clip-path="none" />
    <path
       d="M 2.7020691,12.522361 2.3016635,12.328989 2.536384,11.80412 C 2.7572975,11.3345 3.0748606,10.726758 3.3095811,10.284764 3.8066363,9.3731497 4.1518136,9.0692787 4.4003412,8.6272843 V 8.8759061 C 4.1518136,9.304088 3.8894788,9.8427693 3.59953,10.56101 3.4062307,11.030629 3.1853173,11.514061 2.9505968,11.997492 l -0.2347206,0.524869 z"
       style="fill:#555753;stroke-width:0.71189"
       id="path54"
       clip-path="none" />
  </g>
  <path
     id="path119"
     style="fill:url(#radialGradient138);fill-opacity:1;stroke-width:0.999997"
     d="m 47.75781,20.311427 a 8.4683764,2.2145 0 0 1 -8.468378,2.214501 8.4683764,2.2145 0 0 1 -8.468376,-2.214501 8.4683764,2.2145 0 0 1 8.468376,-2.2145 8.4683764,2.2145 0 0 1 8.468378,2.2145 z"
     clip-path="none" />
  <path
     id="path138"
     style="fill:url(#radialGradient157);fill-opacity:1;stroke-width:0.999998"
     d="m 33.717994,27.35569 a 8.7991575,2.3010001 0 0 1 -8.799159,2.301 8.7991575,2.3010001 0 0 1 -8.799157,-2.301 8.7991575,2.3010001 0 0 1 8.799157,-2.301001 8.7991575,2.3010001 0 0 1 8.799159,2.301001 z"
     clip-path="none" />
  <g
     id="g153"
     transform="matrix(1.3787912,0,0,1.3731641,18.234803,1.2930766)"
     style="stroke-width:0.726758">
    <path
       d="m 2.7158762,16.859433 c 0.3313702,0.71824 0.1932993,1.616041 -0.3175631,2.209972 0.7317758,-0.06906 1.4359374,-0.414371 1.9467998,-0.939238 z"
       style="fill:#231f20;stroke-width:0.726758"
       id="path139"
       clip-path="none" />
    <path
       d="m 3.4338449,17.978231 c 0.2761418,0.400558 0.1656851,0.787303 0.2071064,1.146423 0.041422,0.35912 1.3530948,0.400558 1.9882209,0.372933 C 6.2642984,19.46996 7.1617593,19.318027 6.1676488,19.22134 5.1735383,19.124654 5.0216603,19.04178 4.9250106,18.834596 4.828361,18.62741 4.8421681,18.44785 4.8421681,18.44785"
       style="fill:#231f20;stroke-width:0.726758"
       id="path140"
       clip-path="none" />
    <path
       d="m 5.9605424,17.080429 c 0.2485276,0.400558 0.1380709,0.787303 0.1794922,1.146424 0.041421,0.35912 1.1736026,0.400557 1.7396934,0.372932 0.5660907,-0.02763 1.3392877,-0.17956 0.469441,-0.276246 C 7.4793224,18.226855 7.3412514,18.143978 7.2584089,17.936794 7.1755664,17.729609 7.189374,17.550049 7.189374,17.550049"
       style="fill:#231f20;stroke-width:0.726758"
       id="path141"
       clip-path="none" />
    <path
       d="M 4.1932348,6.6797458 C 4.0689711,6.8316814 3.9447073,6.983617 3.8342505,7.1355526 3.6133371,7.4532362 3.4200378,7.7847321 3.2543528,8.1300403 2.7987187,9.0692787 2.536384,10.091391 2.4259273,11.127316 c -0.1794921,1.712729 0.027614,3.43927 0.2761418,5.138186 0.069036,0.497244 0.1656851,0.994487 0.4418269,1.408858 0.2623347,0.372932 0.6627403,0.635367 1.1183743,0.704429 0.151878,0.02763 0.3175631,0.02763 0.455634,-0.05524 C 4.828361,18.254487 4.9112035,18.143984 4.9940461,18.047298 5.6429793,17.3843 6.9546529,17.812483 7.5621649,17.108054 7.9625705,16.652247 7.8383067,15.947819 7.7416571,15.353888 7.3964798,13.061041 7.9487634,10.726758 7.7830784,8.4062865 7.72785,7.6466088 7.5621649,6.8040567 6.9408458,6.3620623 6.8441962,6.2930005 6.7337395,6.2239389 6.7061253,6.099628 6.6785111,6.0029417 6.7199324,5.9200677 6.7751608,5.8371937 7.2584089,4.9117677 8.3215548,4.33165 9.3570866,4.4145238 9.2052086,4.165902 8.9014526,4.0692157 8.6253108,4.0554033 8.349169,4.041591 8.0592201,4.1106526 7.7692713,4.1106526 6.96846,4.1106526 6.1124204,3.5995965 5.3944517,3.958717 5.0354674,4.1382773 4.8007468,4.5112101 4.7040972,4.9117677 4.6488689,5.132765 4.6212547,5.3675746 4.6212547,5.6023842 c 0,0.096686 -0.069036,0.3314959 -0.1656851,0.5663054 -0.096649,0.2348096 -0.1932993,0.4558068 -0.2485277,0.5110562 z"
       style="fill:#231f20;stroke-width:0.726758"
       id="path142"
       clip-path="none" />
    <path
       d="m 7.5621649,17.108054 c -0.607512,0.704429 -1.9053784,0.262435 -2.5681188,0.939238 -0.082842,0.08287 -0.1656851,0.207186 -0.2761418,0.276247 -0.2209135,0.138123 -0.7870041,0.06906 -0.9803034,-0.124312 -0.2485277,-0.248621 -0.3313702,-0.676803 -0.4004056,-1.008299 -0.2347206,-1.243109 -0.1794922,-2.458594 0.1932992,-3.67408 0.041422,-0.12431 0.082842,-0.234809 0.09665,-0.35912 0.013807,-0.124311 0,-0.248622 0,-0.372932 -0.013808,-0.64918 0,-1.312172 0.2209134,-1.919914 C 3.9999356,10.409075 4.1518136,9.9256426 4.3865342,9.5112732 4.6488689,9.0554662 4.9112035,8.6134717 5.1873454,8.1714773 5.3116092,7.9781047 5.4496801,7.7985444 5.601558,7.6327965 5.9743495,7.2184266 6.4023693,6.4863732 7.0513026,6.5139979 c 0.2623346,0 0.4556339,0.5663055 0.5246694,0.7873027 0.1242637,0.3591206 0.1794922,0.7320534 0.2071064,1.1049859 0.1518779,2.3066595 -0.4004056,4.6547545 -0.041421,6.9476015 0.082842,0.607743 0.2071063,1.298359 -0.1932993,1.767978 z"
       style="fill:#d3d7cf;stroke-width:0.726758"
       id="path143"
       clip-path="none" />
    <path
       d="m 6.816582,16.900869 c -0.4832482,0.08287 -0.9803034,0.17956 -1.4635515,0.207185 -0.5246695,0.02763 -1.0907602,0 -1.5325871,-0.303872 -0.2347204,-0.165747 -0.3865985,-0.386745 -0.4832481,-0.662991 -0.096649,0.331496 0.027614,0.635367 0.027614,0.966863 0,0.248622 0,0.441995 0.1104567,0.690617 0.1794922,0.428182 0.5384765,0.870176 1.0493388,0.635367 0.4694411,-0.220998 0.8284255,-0.773491 1.3254807,-0.911614 0.2485276,-0.06906 0.3865985,0.01381 0.5798978,-0.193373 0.1380709,-0.138123 0.2761418,-0.234809 0.3727914,-0.414369 z"
       style="fill:url(#linearGradient153);stroke-width:0.726758"
       id="path144"
       clip-path="none" />
    <path
       d="m 6.8027749,6.4034992 c 0.303756,-0.096687 0.4004056,0.1519356 0.5660907,0.3453083 0.069036,0.096686 0.151878,0.1795603 0.1932993,0.2900588 0.1932993,0.372933 0.2071064,0.9530507 0.2347205,1.3674202 0.151878,2.3066595 -0.4004056,4.6547545 -0.041421,6.9476015 0.082842,0.607743 0.2071063,1.298359 -0.1932993,1.767978 -0.2761418,0.331496 -0.6903545,0.41437 -1.1459884,0.469619 0.3313701,-0.248621 0.621319,-0.455807 0.8008111,-0.842552 0.069036,-0.17956 0.1242638,-0.372933 0.055228,-0.552493 -0.013808,-0.05524 -0.041422,-0.124311 -0.09665,-0.124311 -0.027614,-0.01381 -0.055228,0 -0.082843,0.01381 C 6.8856175,16.196441 6.664704,16.30694 6.4437906,16.362189 6.1538417,16.417437 5.8224715,16.334564 5.5877509,16.155004 5.3392234,15.975443 5.1459241,15.740633 4.9940461,15.492012 4.7869398,15.160515 4.6350618,14.829019 4.5798334,14.456087 4.4969908,13.903594 4.6350618,13.351101 4.4969908,12.81242 4.2622703,11.956056 4.0137427,11.141128 4.3174987,10.243326 4.4969908,9.7184584 4.7869398,9.2350263 4.9940461,8.7239701 5.3392234,7.8952308 5.8086644,7.1908019 6.4990189,6.5968719 6.5818615,6.5278101 6.6785111,6.4449361 6.816582,6.3896869 Z"
       style="fill:#eeeeec;stroke-width:0.726758"
       id="path145"
       clip-path="none" />
    <path
       d="m 6.3747552,6.8454938 c 0.3727914,-0.4558069 0.6765474,-0.3314959 1.0493388,0.027625 0.055228,0.041437 0.096649,0.096686 0.1380709,0.1519356 0.027614,0.055249 0.041421,0.1104987 0.055228,0.1657479 l 0.082842,0.3314959 c 0.069036,0.290059 0.069036,0.5801179 0.082843,0.8839893 0.1518779,2.3066595 -0.4004056,4.6547555 -0.041421,6.9476015 0.069035,0.524869 0.1794921,1.104987 -0.041422,1.560794 -0.041421,0.04144 -0.1104567,0.06906 -0.165685,0.110497 0.013808,-0.207185 0.013808,-0.414369 -0.027614,-0.607742 -0.055228,-0.193371 -0.1794922,-0.386745 -0.3589843,-0.455806 -0.1656851,-0.06906 -0.4004056,-0.08287 -0.455634,-0.262435 -0.027614,-0.04144 -0.027614,-0.08287 -0.013808,-0.151935 0,-0.165748 0,-0.331496 0.013808,-0.469619 0,-0.276247 0.013807,-0.580118 -0.1242638,-0.842552 C 6.3195267,13.76547 5.739629,13.627347 5.4082588,13.240602 5.0354674,12.798607 4.6212547,12.328989 4.4693767,11.748871 4.2622703,10.906318 4.6350618,10.049955 4.9940461,9.2626514 5.3806447,8.4339116 5.7948573,7.5913594 6.3609481,6.8731184 Z"
       style="fill:url(#linearGradient154);stroke-width:0.726758"
       id="path146"
       clip-path="none" />
    <path
       d="M 4.1932348,6.6797458 C 4.0689711,6.8316814 3.9447073,6.983617 3.8342505,7.1355526 3.6133371,7.4532362 3.4200378,7.7847321 3.2543528,8.1300403 2.7987187,9.0692787 2.536384,10.091391 2.4259273,11.127316 c -0.1794921,1.712729 0.027614,3.43927 0.2761418,5.138186 0.069036,0.497244 0.1656851,0.994487 0.4418269,1.408858 0.2623347,0.372932 0.6627403,0.635367 1.1183743,0.704429 0.151878,0.02763 0.3175631,0.02763 0.455634,-0.05524 C 4.828361,18.254487 4.9112035,18.143984 4.9940461,18.047298 5.6429793,17.3843 6.9546529,17.812483 7.5621649,17.108054 7.9625705,16.652247 7.8383067,15.947819 7.7416571,15.353888 7.3964798,13.061041 7.9487634,10.726758 7.7830784,8.4062865 7.72785,7.6466088 7.5621649,6.8040567 6.9408458,6.3620623 6.8441962,6.2930005 6.7337395,6.2239389 6.7061253,6.099628 6.6785111,6.0029417 6.7199324,5.9200677 6.7751608,5.8371937 7.2584089,4.9117677 8.3215548,4.33165 9.3570866,4.4145238 9.2052086,4.165902 8.9014526,4.0692157 8.6253108,4.0554033 8.349169,4.041591 8.0592201,4.1106526 7.7692713,4.1106526 6.96846,4.1106526 6.1124204,3.5995965 5.3944517,3.958717 5.0354674,4.1382773 4.8007468,4.5112101 4.7040972,4.9117677 4.6488689,5.132765 4.6212547,5.3675746 4.6212547,5.6023842 c 0,0.096686 -0.069036,0.3314959 -0.1656851,0.5663054 -0.096649,0.2348096 -0.1932993,0.4558068 -0.2485277,0.5110562 z"
       style="fill:none;stroke:#555753;stroke-width:0.218028px;stroke-miterlimit:10"
       id="path147"
       clip-path="none" />
    <path
       d="M 8.48724,4.4421485 C 8.0730273,4.3730869 7.2860231,4.4559609 6.8994245,4.6355212 6.512826,4.8150815 6.4714048,5.0360787 6.6785111,5.0360787 c 0.2071064,0 0.8284254,-0.1933727 1.0769531,-0.3314959 C 8.0039917,4.5664595 8.48724,4.4421485 8.48724,4.4421485 Z"
       style="fill:url(#linearGradient155);stroke-width:0.726758"
       id="path148"
       clip-path="none" />
    <path
       d="m 6.4714048,6.3896869 c 0,0 0,0.082874 -0.055228,0.124311 C 6.2366842,6.6797458 6.0709992,6.8454938 5.905314,7.025054 5.7672432,7.1631773 5.6567865,7.3703622 5.4634872,7.4394238 4.6902902,7.6742334 4.0137427,9.0278421 3.3924236,10.50576 3.1024747,11.237814 2.7158762,11.997492 2.370699,12.75717 2.0117146,13.530661 1.7217657,14.276526 1.5975019,14.88427 1.4870452,15.42295 1.4042026,16.141191 1.307553,16.224065 1.0314112,16.417437 0.41009216,15.381513 0.43770634,14.387025 0.46532053,12.674296 1.3765885,10.464324 2.0255217,9.5803349 2.4811557,8.9725919 3.1991243,8.0886033 3.6409513,7.4946732 3.8066363,7.2736759 3.9309002,7.0941157 3.9999356,6.9698047 c 0,-0.013813 0.013807,-0.027625 0.027614,-0.041437 C 4.0827782,6.8454938 4.1518136,6.7626198 4.220849,6.6935581 4.2760775,6.6383088 4.3727271,6.4173116 4.4555696,6.1686896 4.5384121,5.9476924 4.6212547,5.7128828 4.6212547,5.6023842 4.6350618,5.4642609 4.6350618,5.3261375 4.662676,5.1742019 L 5.4911013,5.6990705 6.1262275,6.099628 c 0.09665,0.069062 0.3451773,0.165748 0.3589844,0.2900589 z"
       style="fill:#231f20;stroke-width:0.726758"
       id="path149"
       clip-path="none" />
    <path
       d="M 4.6902902,5.9062554 C 4.9112035,6.3206252 5.7672432,6.4863732 6.2781055,6.4311239 6.7889679,6.3758745 5.5877509,7.2736759 4.9388177,7.5637349 4.2898846,7.8537937 3.59953,8.0747909 3.0886677,9.6908333 2.5778054,11.306876 1.4456239,13.088667 1.1970963,14.096966 0.94856868,15.105266 0.32724962,13.958843 1.0728325,11.665996 1.8184153,9.3731497 2.7572975,8.2267264 3.4890732,7.4946732 4.220849,6.7626198 4.662676,5.9062554 4.662676,5.9062554 Z"
       style="fill:url(#linearGradient156);stroke-width:0.726758"
       id="path150"
       clip-path="none" />
    <path
       d="M 5.8086644,6.2791883 C 5.7120148,6.2377513 5.3116092,5.9476924 5.3254163,5.3951992 5.3392234,4.842706 5.1735383,4.8012691 5.0078532,4.92558 4.8421681,5.049891 4.7040972,5.6300089 5.1735383,6.016754 5.4772943,6.265376 5.8086644,6.2791883 5.8086644,6.2791883 Z"
       style="fill:url(#linearGradient157);stroke-width:0.726758"
       id="path151"
       clip-path="none" />
    <path
       d="m 2.5916125,12.232302 c -0.082843,0.165748 -0.1518781,0.331496 -0.2347206,0.511056 -0.3589844,0.77349 -0.6489333,1.519356 -0.773197,2.127099 -0.1104568,0.53868 -0.1932994,1.256922 -0.289949,1.339796 C 1.0176041,16.403626 0.39628508,15.367701 0.42389926,14.373213 0.45151343,12.660484 1.307553,10.533386 1.8460295,9.5803349 2.370699,8.6825335 2.978211,8.1300403 3.4338449,7.5499225 3.6271442,7.2874882 3.9723215,6.9145554 4.2070419,6.6797458 4.2622703,6.6244964 4.35892,6.4034992 4.4417625,6.1548773 4.524605,5.9338801 4.6074475,5.6990705 4.6074475,5.5885718 4.6212547,5.4504486 4.6212547,5.3123252 4.6488689,5.1603896"
       style="fill:none;stroke:#555753;stroke-width:0.218028px;stroke-miterlimit:10"
       id="path152"
       clip-path="none" />
    <path
       d="M 2.7020691,12.522361 2.3016635,12.328989 2.536384,11.80412 C 2.7572975,11.3345 3.0748606,10.726758 3.3095811,10.284764 3.8066363,9.3731497 4.1518136,9.0692787 4.4003412,8.6272843 V 8.8759061 C 4.1518136,9.304088 3.8894788,9.8427693 3.59953,10.56101 3.4062307,11.030629 3.1853173,11.514061 2.9505968,11.997492 l -0.2347206,0.524869 z"
       style="fill:#555753;stroke-width:0.726758"
       id="path153"
       clip-path="none" />
  </g>
  <circle
     style="color:#000000;overflow:visible;fill:#8ae234;stroke:#4e9a06;stroke-width:0.5;stroke-linecap:round;stroke-linejoin:round;stop-color:#000000"
     id="circle3"
     cx="25.984686"
     cy="17.898926"
     r="1.8744256" />
  <path
     id="path157"
     style="fill:url(#radialGradient176);fill-opacity:1;stroke-width:0.999999"
     d="M 20.119219,45.287044 A 9.9752677,2.6085556 0 0 1 10.14395,47.8956 9.9752677,2.6085556 0 0 1 0.1686829,45.287044 9.9752677,2.6085556 0 0 1 10.14395,42.678488 a 9.9752677,2.6085556 0 0 1 9.975269,2.608556 z"
     clip-path="none" />
  <g
     id="g172"
     transform="matrix(1.5630828,0,0,1.5567035,2.5665189,15.740858)"
     style="stroke-width:0.641071">
    <path
       d="m 2.7158762,16.859433 c 0.3313702,0.71824 0.1932993,1.616041 -0.3175631,2.209972 0.7317758,-0.06906 1.4359374,-0.414371 1.9467998,-0.939238 z"
       style="fill:#231f20;stroke-width:0.641071"
       id="path158"
       clip-path="none" />
    <path
       d="m 3.4338449,17.978231 c 0.2761418,0.400558 0.1656851,0.787303 0.2071064,1.146423 0.041422,0.35912 1.3530948,0.400558 1.9882209,0.372933 C 6.2642984,19.46996 7.1617593,19.318027 6.1676488,19.22134 5.1735383,19.124654 5.0216603,19.04178 4.9250106,18.834596 4.828361,18.62741 4.8421681,18.44785 4.8421681,18.44785"
       style="fill:#231f20;stroke-width:0.641071"
       id="path159"
       clip-path="none" />
    <path
       d="m 5.9605424,17.080429 c 0.2485276,0.400558 0.1380709,0.787303 0.1794922,1.146424 0.041421,0.35912 1.1736026,0.400557 1.7396934,0.372932 0.5660907,-0.02763 1.3392877,-0.17956 0.469441,-0.276246 C 7.4793224,18.226855 7.3412514,18.143978 7.2584089,17.936794 7.1755664,17.729609 7.189374,17.550049 7.189374,17.550049"
       style="fill:#231f20;stroke-width:0.641071"
       id="path160"
       clip-path="none" />
    <path
       d="M 4.1932348,6.6797458 C 4.0689711,6.8316814 3.9447073,6.983617 3.8342505,7.1355526 3.6133371,7.4532362 3.4200378,7.7847321 3.2543528,8.1300403 2.7987187,9.0692787 2.536384,10.091391 2.4259273,11.127316 c -0.1794921,1.712729 0.027614,3.43927 0.2761418,5.138186 0.069036,0.497244 0.1656851,0.994487 0.4418269,1.408858 0.2623347,0.372932 0.6627403,0.635367 1.1183743,0.704429 0.151878,0.02763 0.3175631,0.02763 0.455634,-0.05524 C 4.828361,18.254487 4.9112035,18.143984 4.9940461,18.047298 5.6429793,17.3843 6.9546529,17.812483 7.5621649,17.108054 7.9625705,16.652247 7.8383067,15.947819 7.7416571,15.353888 7.3964798,13.061041 7.9487634,10.726758 7.7830784,8.4062865 7.72785,7.6466088 7.5621649,6.8040567 6.9408458,6.3620623 6.8441962,6.2930005 6.7337395,6.2239389 6.7061253,6.099628 6.6785111,6.0029417 6.7199324,5.9200677 6.7751608,5.8371937 7.2584089,4.9117677 8.3215548,4.33165 9.3570866,4.4145238 9.2052086,4.165902 8.9014526,4.0692157 8.6253108,4.0554033 8.349169,4.041591 8.0592201,4.1106526 7.7692713,4.1106526 6.96846,4.1106526 6.1124204,3.5995965 5.3944517,3.958717 5.0354674,4.1382773 4.8007468,4.5112101 4.7040972,4.9117677 4.6488689,5.132765 4.6212547,5.3675746 4.6212547,5.6023842 c 0,0.096686 -0.069036,0.3314959 -0.1656851,0.5663054 -0.096649,0.2348096 -0.1932993,0.4558068 -0.2485277,0.5110562 z"
       style="fill:#231f20;stroke-width:0.641071"
       id="path161"
       clip-path="none" />
    <path
       d="m 7.5621649,17.108054 c -0.607512,0.704429 -1.9053784,0.262435 -2.5681188,0.939238 -0.082842,0.08287 -0.1656851,0.207186 -0.2761418,0.276247 -0.2209135,0.138123 -0.7870041,0.06906 -0.9803034,-0.124312 -0.2485277,-0.248621 -0.3313702,-0.676803 -0.4004056,-1.008299 -0.2347206,-1.243109 -0.1794922,-2.458594 0.1932992,-3.67408 0.041422,-0.12431 0.082842,-0.234809 0.09665,-0.35912 0.013807,-0.124311 0,-0.248622 0,-0.372932 -0.013808,-0.64918 0,-1.312172 0.2209134,-1.919914 C 3.9999356,10.409075 4.1518136,9.9256426 4.3865342,9.5112732 4.6488689,9.0554662 4.9112035,8.6134717 5.1873454,8.1714773 5.3116092,7.9781047 5.4496801,7.7985444 5.601558,7.6327965 5.9743495,7.2184266 6.4023693,6.4863732 7.0513026,6.5139979 c 0.2623346,0 0.4556339,0.5663055 0.5246694,0.7873027 0.1242637,0.3591206 0.1794922,0.7320534 0.2071064,1.1049859 0.1518779,2.3066595 -0.4004056,4.6547545 -0.041421,6.9476015 0.082842,0.607743 0.2071063,1.298359 -0.1932993,1.767978 z"
       style="fill:#d3d7cf;stroke-width:0.641071"
       id="path162"
       clip-path="none" />
    <path
       d="m 6.816582,16.900869 c -0.4832482,0.08287 -0.9803034,0.17956 -1.4635515,0.207185 -0.5246695,0.02763 -1.0907602,0 -1.5325871,-0.303872 -0.2347204,-0.165747 -0.3865985,-0.386745 -0.4832481,-0.662991 -0.096649,0.331496 0.027614,0.635367 0.027614,0.966863 0,0.248622 0,0.441995 0.1104567,0.690617 0.1794922,0.428182 0.5384765,0.870176 1.0493388,0.635367 0.4694411,-0.220998 0.8284255,-0.773491 1.3254807,-0.911614 0.2485276,-0.06906 0.3865985,0.01381 0.5798978,-0.193373 0.1380709,-0.138123 0.2761418,-0.234809 0.3727914,-0.414369 z"
       style="fill:url(#linearGradient172);stroke-width:0.641071"
       id="path163"
       clip-path="none" />
    <path
       d="m 6.8027749,6.4034992 c 0.303756,-0.096687 0.4004056,0.1519356 0.5660907,0.3453083 0.069036,0.096686 0.151878,0.1795603 0.1932993,0.2900588 0.1932993,0.372933 0.2071064,0.9530507 0.2347205,1.3674202 0.151878,2.3066595 -0.4004056,4.6547545 -0.041421,6.9476015 0.082842,0.607743 0.2071063,1.298359 -0.1932993,1.767978 -0.2761418,0.331496 -0.6903545,0.41437 -1.1459884,0.469619 0.3313701,-0.248621 0.621319,-0.455807 0.8008111,-0.842552 0.069036,-0.17956 0.1242638,-0.372933 0.055228,-0.552493 -0.013808,-0.05524 -0.041422,-0.124311 -0.09665,-0.124311 -0.027614,-0.01381 -0.055228,0 -0.082843,0.01381 C 6.8856175,16.196441 6.664704,16.30694 6.4437906,16.362189 6.1538417,16.417437 5.8224715,16.334564 5.5877509,16.155004 5.3392234,15.975443 5.1459241,15.740633 4.9940461,15.492012 4.7869398,15.160515 4.6350618,14.829019 4.5798334,14.456087 4.4969908,13.903594 4.6350618,13.351101 4.4969908,12.81242 4.2622703,11.956056 4.0137427,11.141128 4.3174987,10.243326 4.4969908,9.7184584 4.7869398,9.2350263 4.9940461,8.7239701 5.3392234,7.8952308 5.8086644,7.1908019 6.4990189,6.5968719 6.5818615,6.5278101 6.6785111,6.4449361 6.816582,6.3896869 Z"
       style="fill:#eeeeec;stroke-width:0.641071"
       id="path164"
       clip-path="none" />
    <path
       d="m 6.3747552,6.8454938 c 0.3727914,-0.4558069 0.6765474,-0.3314959 1.0493388,0.027625 0.055228,0.041437 0.096649,0.096686 0.1380709,0.1519356 0.027614,0.055249 0.041421,0.1104987 0.055228,0.1657479 l 0.082842,0.3314959 c 0.069036,0.290059 0.069036,0.5801179 0.082843,0.8839893 0.1518779,2.3066595 -0.4004056,4.6547555 -0.041421,6.9476015 0.069035,0.524869 0.1794921,1.104987 -0.041422,1.560794 -0.041421,0.04144 -0.1104567,0.06906 -0.165685,0.110497 0.013808,-0.207185 0.013808,-0.414369 -0.027614,-0.607742 -0.055228,-0.193371 -0.1794922,-0.386745 -0.3589843,-0.455806 -0.1656851,-0.06906 -0.4004056,-0.08287 -0.455634,-0.262435 -0.027614,-0.04144 -0.027614,-0.08287 -0.013808,-0.151935 0,-0.165748 0,-0.331496 0.013808,-0.469619 0,-0.276247 0.013807,-0.580118 -0.1242638,-0.842552 C 6.3195267,13.76547 5.739629,13.627347 5.4082588,13.240602 5.0354674,12.798607 4.6212547,12.328989 4.4693767,11.748871 4.2622703,10.906318 4.6350618,10.049955 4.9940461,9.2626514 5.3806447,8.4339116 5.7948573,7.5913594 6.3609481,6.8731184 Z"
       style="fill:url(#linearGradient173);stroke-width:0.641071"
       id="path165"
       clip-path="none" />
    <path
       d="M 4.1932348,6.6797458 C 4.0689711,6.8316814 3.9447073,6.983617 3.8342505,7.1355526 3.6133371,7.4532362 3.4200378,7.7847321 3.2543528,8.1300403 2.7987187,9.0692787 2.536384,10.091391 2.4259273,11.127316 c -0.1794921,1.712729 0.027614,3.43927 0.2761418,5.138186 0.069036,0.497244 0.1656851,0.994487 0.4418269,1.408858 0.2623347,0.372932 0.6627403,0.635367 1.1183743,0.704429 0.151878,0.02763 0.3175631,0.02763 0.455634,-0.05524 C 4.828361,18.254487 4.9112035,18.143984 4.9940461,18.047298 5.6429793,17.3843 6.9546529,17.812483 7.5621649,17.108054 7.9625705,16.652247 7.8383067,15.947819 7.7416571,15.353888 7.3964798,13.061041 7.9487634,10.726758 7.7830784,8.4062865 7.72785,7.6466088 7.5621649,6.8040567 6.9408458,6.3620623 6.8441962,6.2930005 6.7337395,6.2239389 6.7061253,6.099628 6.6785111,6.0029417 6.7199324,5.9200677 6.7751608,5.8371937 7.2584089,4.9117677 8.3215548,4.33165 9.3570866,4.4145238 9.2052086,4.165902 8.9014526,4.0692157 8.6253108,4.0554033 8.349169,4.041591 8.0592201,4.1106526 7.7692713,4.1106526 6.96846,4.1106526 6.1124204,3.5995965 5.3944517,3.958717 5.0354674,4.1382773 4.8007468,4.5112101 4.7040972,4.9117677 4.6488689,5.132765 4.6212547,5.3675746 4.6212547,5.6023842 c 0,0.096686 -0.069036,0.3314959 -0.1656851,0.5663054 -0.096649,0.2348096 -0.1932993,0.4558068 -0.2485277,0.5110562 z"
       style="fill:none;stroke:#555753;stroke-width:0.192322px;stroke-miterlimit:10"
       id="path166"
       clip-path="none" />
    <path
       d="M 8.48724,4.4421485 C 8.0730273,4.3730869 7.2860231,4.4559609 6.8994245,4.6355212 6.512826,4.8150815 6.4714048,5.0360787 6.6785111,5.0360787 c 0.2071064,0 0.8284254,-0.1933727 1.0769531,-0.3314959 C 8.0039917,4.5664595 8.48724,4.4421485 8.48724,4.4421485 Z"
       style="fill:url(#linearGradient174);stroke-width:0.641071"
       id="path167"
       clip-path="none" />
    <path
       d="m 6.4714048,6.3896869 c 0,0 0,0.082874 -0.055228,0.124311 C 6.2366842,6.6797458 6.0709992,6.8454938 5.905314,7.025054 5.7672432,7.1631773 5.6567865,7.3703622 5.4634872,7.4394238 4.6902902,7.6742334 4.0137427,9.0278421 3.3924236,10.50576 3.1024747,11.237814 2.7158762,11.997492 2.370699,12.75717 2.0117146,13.530661 1.7217657,14.276526 1.5975019,14.88427 1.4870452,15.42295 1.4042026,16.141191 1.307553,16.224065 1.0314112,16.417437 0.41009216,15.381513 0.43770634,14.387025 0.46532053,12.674296 1.3765885,10.464324 2.0255217,9.5803349 2.4811557,8.9725919 3.1991243,8.0886033 3.6409513,7.4946732 3.8066363,7.2736759 3.9309002,7.0941157 3.9999356,6.9698047 c 0,-0.013813 0.013807,-0.027625 0.027614,-0.041437 C 4.0827782,6.8454938 4.1518136,6.7626198 4.220849,6.6935581 4.2760775,6.6383088 4.3727271,6.4173116 4.4555696,6.1686896 4.5384121,5.9476924 4.6212547,5.7128828 4.6212547,5.6023842 4.6350618,5.4642609 4.6350618,5.3261375 4.662676,5.1742019 L 5.4911013,5.6990705 6.1262275,6.099628 c 0.09665,0.069062 0.3451773,0.165748 0.3589844,0.2900589 z"
       style="fill:#231f20;stroke-width:0.641071"
       id="path168"
       clip-path="none" />
    <path
       d="M 4.6902902,5.9062554 C 4.9112035,6.3206252 5.7672432,6.4863732 6.2781055,6.4311239 6.7889679,6.3758745 5.5877509,7.2736759 4.9388177,7.5637349 4.2898846,7.8537937 3.59953,8.0747909 3.0886677,9.6908333 2.5778054,11.306876 1.4456239,13.088667 1.1970963,14.096966 0.94856868,15.105266 0.32724962,13.958843 1.0728325,11.665996 1.8184153,9.3731497 2.7572975,8.2267264 3.4890732,7.4946732 4.220849,6.7626198 4.662676,5.9062554 4.662676,5.9062554 Z"
       style="fill:url(#linearGradient175);stroke-width:0.641071"
       id="path169"
       clip-path="none" />
    <path
       d="M 5.8086644,6.2791883 C 5.7120148,6.2377513 5.3116092,5.9476924 5.3254163,5.3951992 5.3392234,4.842706 5.1735383,4.8012691 5.0078532,4.92558 4.8421681,5.049891 4.7040972,5.6300089 5.1735383,6.016754 5.4772943,6.265376 5.8086644,6.2791883 5.8086644,6.2791883 Z"
       style="fill:url(#linearGradient176);stroke-width:0.641071"
       id="path170"
       clip-path="none" />
    <path
       d="m 2.5916125,12.232302 c -0.082843,0.165748 -0.1518781,0.331496 -0.2347206,0.511056 -0.3589844,0.77349 -0.6489333,1.519356 -0.773197,2.127099 -0.1104568,0.53868 -0.1932994,1.256922 -0.289949,1.339796 C 1.0176041,16.403626 0.39628508,15.367701 0.42389926,14.373213 0.45151343,12.660484 1.307553,10.533386 1.8460295,9.5803349 2.370699,8.6825335 2.978211,8.1300403 3.4338449,7.5499225 3.6271442,7.2874882 3.9723215,6.9145554 4.2070419,6.6797458 4.2622703,6.6244964 4.35892,6.4034992 4.4417625,6.1548773 4.524605,5.9338801 4.6074475,5.6990705 4.6074475,5.5885718 4.6212547,5.4504486 4.6212547,5.3123252 4.6488689,5.1603896"
       style="fill:none;stroke:#555753;stroke-width:0.192322px;stroke-miterlimit:10"
       id="path171"
       clip-path="none" />
    <path
       d="M 2.7020691,12.522361 2.3016635,12.328989 2.536384,11.80412 C 2.7572975,11.3345 3.0748606,10.726758 3.3095811,10.284764 3.8066363,9.3731497 4.1518136,9.0692787 4.4003412,8.6272843 V 8.8759061 C 4.1518136,9.304088 3.8894788,9.8427693 3.59953,10.56101 3.4062307,11.030629 3.1853173,11.514061 2.9505968,11.997492 l -0.2347206,0.524869 z"
       style="fill:#555753;stroke-width:0.641071"
       id="path172"
       clip-path="none" />
  </g>
  <path
     id="path177"
     style="fill:url(#radialGradient196);fill-opacity:1;stroke-width:0.999999"
     d="m 47.978331,45.287044 a 9.9752677,2.6085556 0 0 1 -9.975269,2.608556 9.9752677,2.6085556 0 0 1 -9.975267,-2.608556 9.9752677,2.6085556 0 0 1 9.975267,-2.608556 9.9752677,2.6085556 0 0 1 9.975269,2.608556 z"
     clip-path="none" />
  <circle
     style="color:#000000;overflow:visible;fill:#8ae234;stroke:#4e9a06;stroke-width:0.5;stroke-linecap:round;stroke-linejoin:round;stop-color:#000000"
     id="circle2"
     cx="11.136293"
     cy="33.702908"
     r="1.8744256" />
  <g
     id="g115"
     transform="matrix(0.88805208,0.28408053,-0.28435206,0.88938055,51.177421,16.930502)"
     style="stroke-width:1.07175">
    <path
       d="m -25.185835,28.739862 5.7,-9.88 c 3.12,-5.4 5.55,-10.5699998 6.44,-12.6399998 0.68,-1.6 1.42,-3.63 2.03,-5.37000002 0.25,-0.73 -0.88,-1.39 -1.39,-0.8 -1.21,1.40000002 -2.59,3.05000002 -3.64,4.44000002 -1.35,1.8 -4.61,6.4999998 -7.73,11.8899998 l -5.7,9.88 h 0.02 c -0.3,0.53 0.41,1.5 1.59,2.17 1.17,0.68 2.37,0.81 2.67,0.29 h 0.02 z"
       style="fill:#3465a4;stroke-width:1.07175"
       id="path100"
       clip-path="none" />
    <path
       d="m -29.419341,25.942848 c -1.19,2.07 -0.82,1.5 -1.74,2.76 -0.92,1.26 -2.41,2.11 -3.49,2.37 0,0 0.59,1.84 2.69,2.33 2.1,0.49 3.76,-0.42 4.93,-2.02 1.17,-1.61 1.87,-2.98 1.87,-2.98 l -4.25,-2.46 z"
       style="fill:#c17d11;stroke-width:1.07175"
       id="path101"
       clip-path="none" />
    <path
       d="m -29.659341,32.932848 c -0.58,0.45 -1.48,0.46 -2.16,0.41 -0.21,-0.02 -0.4,-0.04 -0.6,-0.09 -1.74,-0.61 -2.23,-2.19 -2.23,-2.19 0.51,-0.11 1.11,-0.36 1.7,-0.74 0.61,-0.2 1.2,-0.45 1.81,-0.65 0.28,-0.1 0.65,-0.15 0.81,0.1 0.1,0.16 0.04,0.37 -0.02,0.53 -0.14,0.39 -0.32,0.75 -0.56,1.09 -0.06,0.07 -0.11,0.16 -0.07,0.25 0.01,0.04 0.06,0.07 0.1,0.09 0.26,0.17 0.57,0.16 0.88,0.22 0.72,0.11 0.86,0.58 0.34,0.98 z"
       style="fill:url(#linear-gradient-26);stroke-width:1.07175"
       id="path102"
       clip-path="none" />
    <path
       d="m -29.419341,25.942848 c -1.19,2.07 -0.82,1.5 -1.74,2.76 -0.92,1.26 -2.41,2.11 -3.49,2.37 0,0 0.59,1.84 2.69,2.33 2.1,0.49 3.76,-0.42 4.93,-2.02 1.17,-1.61 1.87,-2.98 1.87,-2.98 l -4.25,-2.46 z"
       style="fill:none;stroke:#7b4800;stroke-width:0.750222px;stroke-miterlimit:10"
       id="path103"
       clip-path="none" />
    <path
       d="m -18.709341,15.812848 -7.55,13.08 c -0.48,-0.05 -1.09,-0.24 -1.69,-0.59 l 15.89,-27.5099996 c 0,0 0.15,-0.25 0.36,-0.16 0.23,0.1 -0.04,0.81 -0.25,1.31 -1.4,3.24 -4.85,10.5699996 -6.75,13.8599996 z"
       style="fill:url(#linear-gradient-27);stroke-width:1.07175"
       id="path104"
       clip-path="none" />
    <path
       d="m -20.629341,20.532848 c -0.3,0.52 -1.49,0.39 -2.67,-0.29 -1.17,-0.68 -1.88,-1.65 -1.59,-2.17 l -4.65,8.05 c -0.3,0.52 0.41,1.49 1.59,2.17 1.17,0.68 2.37,0.81 2.67,0.29 z"
       style="fill:url(#linear-gradient-28);stroke-width:1.07175"
       id="path105"
       clip-path="none" />
    <path
       d="m -23.949341,19.792848 -4.58,7.93 c -0.67,-0.58 -1.01,-1.22 -0.79,-1.61 v 0 l 4.39,-7.61 c 0.07,0.39 0.44,0.87 0.99,1.29 z"
       style="opacity:0.79;fill:url(#linear-gradient-29);stroke-width:1.07175"
       id="path106"
       clip-path="none" />
    <path
       d="m -21.609341,20.842848 -4.65,8.05 c -0.15,0 -0.32,-0.04 -0.5,-0.09 -0.09,-0.03 -0.19,-0.06 -0.28,-0.09 -0.26,-0.09 -0.54,-0.22 -0.81,-0.37 -0.02,0 -0.06,-0.02 -0.09,-0.04 l 4.65,-8.06 c 0.6,0.34 1.2,0.55 1.68,0.6 z"
       style="fill:url(#linear-gradient-30);stroke-width:1.07175"
       id="path107"
       clip-path="none" />
    <path
       d="m -21.609341,20.842848 -4.65,8.05 c -0.15,0 -0.32,-0.04 -0.5,-0.09 -0.09,-0.03 -0.19,-0.06 -0.28,-0.09 -0.26,-0.09 -0.54,-0.22 -0.81,-0.37 l -0.09,-0.05 4.65,-8.05 c 0.6,0.34 1.2,0.55 1.68,0.6 z"
       style="fill:url(#linear-gradient-31);stroke-width:1.07175"
       id="path108"
       clip-path="none" />
    <path
       d="m -12.859341,1.3528484 c 0,0 -5.57,8.8799996 -8.1,13.2599996 l -7.57,13.11 c -0.67,-0.58 -1.02,-1.22 -0.79,-1.62 h -0.01 l 5.7,-9.88 c 3.11,-5.39 6.37,-10.0899996 7.74,-11.8899996 0.21,-0.28 0.43,-0.56 0.66,-0.85 l 0.02,-0.04 c 0.1,-0.11 0.19,-0.23 0.29,-0.36 -0.09,0.1 -0.18,0.22 -0.26,0.33 1.4,-1.36 2.31,-2.06 2.31,-2.06 z"
       style="opacity:0.79;fill:url(#linear-gradient-32);stroke-width:1.07175"
       id="path109"
       clip-path="none" />
    <path
       d="m -26.219341,28.832848 c -0.5,-0.02 -1.12,-0.19 -1.72,-0.53"
       style="fill:none;stroke:#231f20;stroke-width:0.214349px;stroke-miterlimit:10"
       id="path110"
       clip-path="none" />
    <path
       d="m -25.259341,28.592848 5.7,-9.88 c 3.12,-5.4 5.55,-10.5699996 6.44,-12.6399996 0.68,-1.6 1.42,-3.63 2.03,-5.37 0.25,-0.73 -0.88,-1.39 -1.39,-0.8 -1.21,1.4 -2.59,3.05 -3.64,4.44 -1.35,1.8 -4.61,6.4999996 -7.73,11.8899996 l -5.7,9.88 h 0.02 c -0.3,0.53 0.41,1.5 1.59,2.17 1.17,0.68 2.37,0.81 2.67,0.29 h 0.02 z"
       style="fill:none;stroke:#204a87;stroke-width:0.750222px;stroke-miterlimit:10"
       id="path111"
       clip-path="none" />
  </g>
  <circle
     style="color:#000000;overflow:visible;fill:#8ae234;stroke:#4e9a06;stroke-width:0.5;stroke-linecap:round;stroke-linejoin:round;stop-color:#000000"
     id="circle1"
     cx="38.554363"
     cy="34.437977"
     r="1.8744256" />
  <circle
     style="color:#000000;overflow:visible;fill:#8ae234;stroke:#4e9a06;stroke-width:0.5;stroke-linecap:round;stroke-linejoin:round;stop-color:#000000"
     id="circle4"
     cx="9.5926495"
     cy="12.459416"
     r="1.8744256" />
</svg>
