<?xml version="1.0" encoding="UTF-8" standalone="no"?>
<svg
   viewBox="0 0 48 48"
   version="1.1"
   id="svg68"
   sodipodi:docname="houdinihairprocedural.svg"
   inkscape:version="1.3-dev (fdc7329b, 2022-05-31)"
   xml:space="preserve"
   xmlns:inkscape="http://www.inkscape.org/namespaces/inkscape"
   xmlns:sodipodi="http://sodipodi.sourceforge.net/DTD/sodipodi-0.dtd"
   xmlns:xlink="http://www.w3.org/1999/xlink"
   xmlns="http://www.w3.org/2000/svg"
   xmlns:svg="http://www.w3.org/2000/svg"><sodipodi:namedview
     id="namedview68"
     pagecolor="#ffffff"
     bordercolor="#666666"
     borderopacity="1.0"
     inkscape:showpageshadow="2"
     inkscape:pageopacity="0.0"
     inkscape:pagecheckerboard="0"
     inkscape:deskcolor="#d1d1d1"
     showgrid="false"
     inkscape:zoom="13.906434"
     inkscape:cx="20.817703"
     inkscape:cy="24.08957"
     inkscape:window-width="2880"
     inkscape:window-height="1557"
     inkscape:window-x="-8"
     inkscape:window-y="-8"
     inkscape:window-maximized="1"
     inkscape:current-layer="svg68" /><defs
     id="defs36"><linearGradient
       inkscape:collect="always"
       id="linearGradient79"><stop
         style="stop-color:#000000;stop-opacity:0.52830189;"
         offset="0"
         id="stop78" /><stop
         style="stop-color:#000000;stop-opacity:0;"
         offset="1"
         id="stop79" /></linearGradient><linearGradient
       inkscape:collect="always"
       id="linearGradient77"><stop
         style="stop-color:#000000;stop-opacity:1;"
         offset="0"
         id="stop76" /><stop
         style="stop-color:#000000;stop-opacity:0;"
         offset="1"
         id="stop77" /></linearGradient><linearGradient
       inkscape:collect="always"
       id="linearGradient75"><stop
         style="stop-color:#000000;stop-opacity:0.3081761;"
         offset="0"
         id="stop74" /><stop
         style="stop-color:#000000;stop-opacity:0;"
         offset="1"
         id="stop75" /></linearGradient><radialGradient
       id="radial-gradient"
       cx="-361.59"
       cy="117.06"
       fx="-361.59"
       fy="117.06"
       r="13.7"
       gradientTransform="translate(654.75 10.81) scale(1.74 .27)"
       gradientUnits="userSpaceOnUse"><stop
         offset=".07"
         stop-color="#212121"
         stop-opacity=".4"
         id="stop1" /><stop
         offset=".89"
         stop-color="#212121"
         stop-opacity="0"
         id="stop2" /></radialGradient><linearGradient
       id="linear-gradient"
       x1="23.7"
       y1="32.1"
       x2="23.7"
       y2="29.09"
       gradientUnits="userSpaceOnUse"
       gradientTransform="matrix(1.3783974,0,0,1.3815682,-9.0770505,-10.170453)"><stop
         offset="0"
         stop-color="#edc961"
         id="stop3" /><stop
         offset=".35"
         stop-color="#fcaf3e"
         id="stop4" /><stop
         offset="1"
         stop-color="#ce5c00"
         id="stop5" /></linearGradient><linearGradient
       id="linear-gradient-2"
       x1="24"
       y1="25.55"
       x2="24"
       y2="15.89"
       gradientUnits="userSpaceOnUse"
       gradientTransform="matrix(1.3783974,0,0,1.3815682,-9.0770505,-10.170453)"><stop
         offset=".01"
         stop-color="#fef8c5"
         id="stop6" /><stop
         offset=".1"
         stop-color="#fde27d"
         id="stop7" /><stop
         offset=".24"
         stop-color="#fcaf30"
         id="stop8" /><stop
         offset=".58"
         stop-color="#f57900"
         id="stop9" /><stop
         offset=".81"
         stop-color="#c7334a"
         id="stop10" /><stop
         offset=".94"
         stop-color="#8e3459"
         id="stop11" /></linearGradient><linearGradient
       id="linear-gradient-3"
       x1="14.35"
       y1="22.68"
       x2="14.35"
       y2="20.98"
       gradientTransform="matrix(1, 0, 0, 1, 0, 0)"
       gradientUnits="userSpaceOnUse"><stop
         offset=".04"
         stop-color="#ff734b"
         id="stop12" /><stop
         offset="1"
         stop-color="#87196f"
         id="stop13" /></linearGradient><linearGradient
       id="linear-gradient-4"
       x1="35.01"
       y1="21.65"
       x2="35.01"
       y2="19.72"
       xlink:href="#linear-gradient-3"
       gradientTransform="matrix(1.3783974,0,0,1.3815682,-9.0770505,-10.170453)" /><linearGradient
       id="linear-gradient-5"
       x1="12.52"
       y1="21.32"
       x2="12.52"
       y2="17"
       xlink:href="#linear-gradient-3"
       gradientTransform="matrix(1.3783974,0,0,1.3815682,-9.0770505,-10.170453)" /><linearGradient
       id="linear-gradient-6"
       x1="3.61"
       y1="23"
       x2="12.22"
       y2="26.36"
       gradientTransform="matrix(1, 0, 0, 1, 0, 0)"
       gradientUnits="userSpaceOnUse"><stop
         offset="0"
         stop-color="#b9bcb5"
         id="stop14" /><stop
         offset="1"
         stop-color="#232729"
         id="stop15" /></linearGradient><linearGradient
       id="linear-gradient-7"
       x1="35.78"
       y1="22.5"
       x2="44.39"
       y2="25.86"
       xlink:href="#linear-gradient-6"
       gradientTransform="matrix(1.3783974,0,0,1.5906913,-9.0770505,-13.016618)" /><linearGradient
       id="linear-gradient-8"
       x1="9.24"
       y1="8.58"
       x2="38.26"
       y2="19.91"
       xlink:href="#linear-gradient-6"
       gradientTransform="matrix(1.3783974,0,0,1.5906913,-9.0770505,-13.016618)" /><linearGradient
       id="linear-gradient-9"
       x1="9.74"
       y1="28.95"
       x2="38.75"
       y2="40.28"
       xlink:href="#linear-gradient-6"
       gradientTransform="matrix(1.3783974,0,0,1.5906913,-9.0770505,-13.016618)" /><linearGradient
       id="linear-gradient-10"
       x1="23.95"
       y1="30.13"
       x2="23.95"
       y2="31.22"
       gradientUnits="userSpaceOnUse"
       gradientTransform="matrix(1.3783974,0,0,1.3815682,-9.0770505,-10.170453)"><stop
         offset="0"
         stop-color="#f5fdec"
         id="stop16" /><stop
         offset="1"
         stop-color="#c5f5d4"
         id="stop17" /></linearGradient><radialGradient
       id="radial-gradient-2"
       cx="24.28"
       cy="25.7"
       fx="24.28"
       fy="25.7"
       r="47.67"
       gradientTransform="matrix(1.3783974,0,0,0.13815682,-9.0770505,21.799033)"
       gradientUnits="userSpaceOnUse"><stop
         offset=".06"
         stop-color="#fef8c5"
         id="stop18" /><stop
         offset=".11"
         stop-color="#fdef7d"
         id="stop19" /><stop
         offset=".22"
         stop-color="#fc9a30"
         id="stop20" /><stop
         offset=".65"
         stop-color="#8d63a8"
         id="stop21" /><stop
         offset="1"
         stop-color="#3443a4"
         id="stop22" /></radialGradient><linearGradient
       id="linear-gradient-11"
       x1="34.3"
       y1="26.49"
       x2="34.96"
       y2="29.46"
       gradientTransform="matrix(1, 0, 0, 1, 0, 0)"
       gradientUnits="userSpaceOnUse"><stop
         offset="0"
         stop-color="#8d63a8"
         id="stop23" /><stop
         offset="1"
         stop-color="#3443a4"
         id="stop24" /></linearGradient><linearGradient
       id="linear-gradient-12"
       x1="15.04"
       y1="26.62"
       x2="14.75"
       y2="29.67"
       xlink:href="#linear-gradient-11"
       gradientTransform="matrix(1.3783974,0,0,1.3815682,-9.0770505,-10.170453)" /><linearGradient
       id="linear-gradient-13"
       x1="31.96"
       y1="21.31"
       x2="35.23"
       y2="26.47"
       gradientTransform="matrix(1, 0, 0, 1, 0, 0)"
       gradientUnits="userSpaceOnUse"><stop
         offset=".04"
         stop-color="#ff734b"
         id="stop25" /><stop
         offset="1"
         stop-color="#4c3158"
         id="stop26" /></linearGradient><linearGradient
       id="linear-gradient-14"
       x1="15.76"
       y1="28.94"
       x2="12.2"
       y2="25.17"
       xlink:href="#linear-gradient-13"
       gradientTransform="matrix(1.3783974,0,0,1.3815682,-9.0770505,-10.170453)" /><linearGradient
       id="linear-gradient-15"
       x1=".88"
       y1="20.71"
       x2="41.42"
       y2="44.27"
       gradientTransform="matrix(1, 0, 0, 1, 0, 0)"
       gradientUnits="userSpaceOnUse"><stop
         offset="0"
         stop-color="#e9b96e"
         id="stop27" /><stop
         offset="1"
         stop-color="#c17d11"
         id="stop28" /></linearGradient><linearGradient
       id="linear-gradient-16"
       x1="40.11"
       y1="35.41"
       x2="40.11"
       y2="18.43"
       gradientTransform="matrix(1, 0, 0, 1, 0, 0)"
       gradientUnits="userSpaceOnUse"><stop
         offset="0"
         stop-color="#c17d11"
         id="stop29" /><stop
         offset="1"
         stop-color="#8f5902"
         id="stop30" /></linearGradient><linearGradient
       id="linear-gradient-17"
       x1="17.09"
       y1="7.82"
       x2="36.01"
       y2="23.91"
       gradientUnits="userSpaceOnUse"
       gradientTransform="matrix(1.3783974,0,0,1.5906913,-9.0770505,-13.016618)"><stop
         offset="0"
         stop-color="#efcc96"
         id="stop31" /><stop
         offset="1"
         stop-color="#c17d11"
         id="stop32" /></linearGradient><linearGradient
       id="linear-gradient-18"
       x1="24.3"
       y1="39.49"
       x2="23.77"
       y2="32.12"
       xlink:href="#linear-gradient-16"
       gradientTransform="matrix(1.3783974,0,0,1.5906913,-9.0770505,-13.016618)" /><linearGradient
       id="linear-gradient-19"
       x1="12.53"
       y1="39.99"
       x2="41.92"
       y2="24.06"
       xlink:href="#linear-gradient-15"
       gradientTransform="matrix(1.3783974,0,0,1.5906913,-9.0770505,-13.016618)" /><linearGradient
       id="linear-gradient-20"
       x1="38.52"
       y1="34.04"
       x2="39.36"
       y2="14.65"
       xlink:href="#linear-gradient-15"
       gradientTransform="matrix(1.3783974,0,0,1.5906913,-9.0770505,-13.016618)" /><linearGradient
       id="linear-gradient-21"
       x1="10.42"
       y1="9.87"
       x2="37.34"
       y2="20.39"
       xlink:href="#linear-gradient-16"
       gradientTransform="matrix(1.3783974,0,0,1.5906913,-9.0770505,-13.016618)" /><linearGradient
       id="linear-gradient-22"
       x1="12.63"
       y1="29.92"
       x2="6.05"
       y2="20.84"
       xlink:href="#linear-gradient-16"
       gradientTransform="matrix(1.3783974,0,0,1.5906913,-9.0770505,-13.016618)" /><linearGradient
       id="linear-gradient-23"
       x1="32.01"
       y1="24.02"
       x2="32.01"
       y2="22.86"
       xlink:href="#linear-gradient-3"
       gradientTransform="matrix(1.3783974,0,0,1.3815682,-9.0770505,-10.170453)" /><linearGradient
       id="linear-gradient-24"
       x1="18.43"
       y1="24.39"
       x2="18.43"
       y2="23.7"
       xlink:href="#linear-gradient-3"
       gradientTransform="matrix(1.3783974,0,0,1.3815682,-9.0770505,-10.170453)" /><linearGradient
       id="linear-gradient-25"
       x1="14.72"
       y1="28.09"
       x2="32.69"
       y2="28.09"
       gradientTransform="matrix(1, 0, 0, 1, 0, 0)"
       gradientUnits="userSpaceOnUse"><stop
         offset="0"
         stop-color="#fff"
         stop-opacity=".3"
         id="stop33" /><stop
         offset=".33"
         stop-color="#fff8f8"
         id="stop34" /><stop
         offset=".64"
         stop-color="#fff8f8"
         id="stop35" /><stop
         offset="1"
         stop-color="#fff"
         stop-opacity=".3"
         id="stop36" /></linearGradient><linearGradient
       id="linear-gradient-26"
       x1="13.19"
       y1="28.48"
       x2="32.77"
       y2="28.48"
       gradientTransform="matrix(-1.3755398,0.08891516,-0.08871109,-1.378704,61.483108,66.478948)"
       xlink:href="#linear-gradient-25" /><linearGradient
       id="linear-gradient-27"
       x1="17.3"
       y1="26.21"
       x2="30.97"
       y2="26.21"
       xlink:href="#linear-gradient-25"
       gradientTransform="matrix(1.3783974,0,0,1.3815682,-9.0770505,-10.170453)" /><linearGradient
       id="linear-gradient-28"
       x1="17.3"
       y1="25.84"
       x2="30.97"
       y2="25.84"
       xlink:href="#linear-gradient-25"
       gradientTransform="matrix(1.3783974,0,0,1.3815682,-9.0770505,-10.170453)" /><linearGradient
       id="linear-gradient-29"
       x1="17.3"
       y1="26.19"
       x2="30.97"
       y2="26.19"
       xlink:href="#linear-gradient-25"
       gradientTransform="matrix(1.3783974,0,0,1.3815682,-9.0770505,-10.170453)" /><linearGradient
       id="linear-gradient-30"
       x1="17.3"
       y1="26.3"
       x2="30.97"
       y2="26.3"
       xlink:href="#linear-gradient-25"
       gradientTransform="matrix(1.3783974,0,0,1.3815682,-9.0770505,-10.170453)" /><linearGradient
       id="linear-gradient-31"
       x1="17.33"
       y1="26.76"
       x2="30.84"
       y2="26.76"
       xlink:href="#linear-gradient-25"
       gradientTransform="matrix(1.3783974,0,0,1.3815682,-9.0770505,-10.170453)" /><linearGradient
       id="linear-gradient-32"
       x1="17.36"
       y1="27.07"
       x2="32.41"
       y2="27.07"
       xlink:href="#linear-gradient-25"
       gradientTransform="matrix(1.3783974,0,0,1.3815682,-9.0770505,-10.170453)" /><linearGradient
       id="linear-gradient-33"
       x1="19.9"
       y1="27.34"
       x2="33.57"
       y2="27.34"
       gradientTransform="matrix(1.3775744,-0.04773407,0.04762452,1.3807433,-10.35896,-8.8994106)"
       xlink:href="#linear-gradient-25" /><linearGradient
       id="linear-gradient-34"
       x1="17.26"
       y1="29.22"
       x2="30.93"
       y2="29.22"
       xlink:href="#linear-gradient-25"
       gradientTransform="matrix(1.3783974,0,0,1.3815682,-9.0770505,-10.170453)" /><linearGradient
       inkscape:collect="always"
       xlink:href="#linear-gradient-6"
       id="linearGradient69"
       gradientUnits="userSpaceOnUse"
       x1="3.61"
       y1="23"
       x2="12.22"
       y2="26.36"
       gradientTransform="matrix(1.3783974,0,0,1.5906913,-9.0770505,-13.016618)" /><linearGradient
       inkscape:collect="always"
       xlink:href="#linear-gradient-15"
       id="linearGradient72"
       gradientUnits="userSpaceOnUse"
       x1=".88"
       y1="20.71"
       x2="41.42"
       y2="44.27"
       gradientTransform="matrix(1.3783974,0,0,1.5906913,-9.0770505,-13.016618)" /><linearGradient
       inkscape:collect="always"
       xlink:href="#linear-gradient-16"
       id="linearGradient73"
       gradientUnits="userSpaceOnUse"
       x1="40.11"
       y1="35.41"
       x2="40.11"
       y2="18.43"
       gradientTransform="matrix(1.3783974,0,0,1.5906913,-9.0770505,-13.016618)" /><radialGradient
       inkscape:collect="always"
       xlink:href="#linearGradient75"
       id="radialGradient75"
       cx="24.025424"
       cy="44.26101"
       fx="24.025424"
       fy="44.26101"
       r="23.951524"
       gradientTransform="matrix(1,0,0,0.15505228,0,37.398239)"
       gradientUnits="userSpaceOnUse" /><radialGradient
       inkscape:collect="always"
       xlink:href="#linearGradient77"
       id="radialGradient77"
       cx="24.004487"
       cy="1.2156607"
       fx="24.004487"
       fy="1.2156607"
       r="1.116502"
       gradientTransform="matrix(1,0,0,1.0022996,0,0.75991635)"
       gradientUnits="userSpaceOnUse" /><linearGradient
       inkscape:collect="always"
       xlink:href="#linearGradient79"
       id="linearGradient80"
       x1="23.18644"
       y1="2.0593221"
       x2="11.644068"
       y2="7.8050847"
       gradientUnits="userSpaceOnUse"
       gradientTransform="matrix(1.0369004,0,0,1.0503597,-0.36962912,-0.42507012)" /><linearGradient
       inkscape:collect="always"
       xlink:href="#linearGradient79"
       id="linearGradient81"
       gradientUnits="userSpaceOnUse"
       gradientTransform="matrix(-1.0369004,0,0,1.0503597,48.369629,-0.42507012)"
       x1="23.18644"
       y1="2.0593221"
       x2="11.644068"
       y2="7.8050847" /><inkscape:perspective
       sodipodi:type="inkscape:persp3d"
       inkscape:vp_x="0 : 396 : 1"
       inkscape:vp_y="0 : 1000 : 0"
       inkscape:vp_z="612 : 396 : 1"
       inkscape:persp3d-origin="306 : 264 : 1"
       id="perspective8871" /><radialGradient
       inkscape:collect="always"
       xlink:href="#SVGID_1_"
       id="radialGradient8908"
       gradientUnits="userSpaceOnUse"
       gradientTransform="matrix(1.0347,0,0,1,-10.2481,0)"
       cx="366.55179"
       cy="353.40479"
       r="30.908899" /><radialGradient
       inkscape:collect="always"
       xlink:href="#SVGID_2_"
       id="radialGradient8910"
       gradientUnits="userSpaceOnUse"
       gradientTransform="matrix(0.8006,-0.6335,0.4589,0.5416,-84.0283,392.3109)"
       cx="367.28909"
       cy="348.20209"
       r="23.927" /><radialGradient
       inkscape:collect="always"
       xlink:href="#SVGID_3_"
       id="radialGradient8912"
       gradientUnits="userSpaceOnUse"
       gradientTransform="matrix(1.0347,0,0,1,-10.2481,0)"
       cx="360.20209"
       cy="367.89841"
       r="23.198" /><radialGradient
       inkscape:collect="always"
       xlink:href="#SVGID_4_"
       id="radialGradient8914"
       gradientUnits="userSpaceOnUse"
       gradientTransform="matrix(0.227,0.9756,-0.5047,0.1097,464.976,-51.6958)"
       cx="370.75491"
       cy="348.22461"
       r="15.4936" /><radialGradient
       id="SVGID_1_"
       cx="366.55179"
       cy="353.40479"
       r="30.908899"
       gradientTransform="matrix(1.0347,0,0,1,-10.2481,0)"
       gradientUnits="userSpaceOnUse"><stop
         offset="0.3988"
         style="stop-color:#FDD6BF;stop-opacity:0"
         id="stop8811" /><stop
         offset="0.5399"
         style="stop-color:#FDCDA2"
         id="stop8813" /><stop
         offset="0.8589"
         style="stop-color:#FDCDA2;stop-opacity:0"
         id="stop8815" /></radialGradient><radialGradient
       id="SVGID_2_"
       cx="367.28909"
       cy="348.20209"
       r="23.927"
       gradientTransform="matrix(0.8006,-0.6335,0.4589,0.5416,-84.0283,392.3109)"
       gradientUnits="userSpaceOnUse"><stop
         offset="0"
         style="stop-color:#FABA9A"
         id="stop8820" /><stop
         offset="0.4724"
         style="stop-color:#FDCDA2;stop-opacity:0"
         id="stop8822" /><stop
         offset="0.8037"
         style="stop-color:#FFFFFF;stop-opacity:0"
         id="stop8824" /></radialGradient><radialGradient
       id="SVGID_3_"
       cx="360.20209"
       cy="367.89841"
       r="23.198"
       gradientTransform="matrix(1.0347,0,0,1,-10.2481,0)"
       gradientUnits="userSpaceOnUse"><stop
         offset="0"
         style="stop-color:#8A421E"
         id="stop8831" /><stop
         offset="0.6503"
         style="stop-color:#B84826;stop-opacity:0"
         id="stop8833" /><stop
         offset="1"
         style="stop-color:#FFFFFF;stop-opacity:0"
         id="stop8835" /></radialGradient><radialGradient
       id="SVGID_4_"
       cx="370.75491"
       cy="348.22461"
       r="15.4936"
       gradientTransform="matrix(0.227,0.9756,-0.5047,0.1097,464.976,-51.6958)"
       gradientUnits="userSpaceOnUse"><stop
         offset="0.0552"
         style="stop-color:#8A421E"
         id="stop8840" /><stop
         offset="0.4172"
         style="stop-color:#B84826;stop-opacity:0"
         id="stop8842" /><stop
         offset="1"
         style="stop-color:#FFFFFF;stop-opacity:0"
         id="stop8844" /></radialGradient><radialGradient
       inkscape:collect="always"
       xlink:href="#SVGID_4_"
       id="radialGradient8942"
       gradientUnits="userSpaceOnUse"
       gradientTransform="matrix(0.18387912,0.79236721,-0.40882729,0.08909665,105.7981,-305.40705)"
       cx="370.75491"
       cy="348.22461"
       r="15.4936" /><radialGradient
       inkscape:collect="always"
       xlink:href="#SVGID_3_"
       id="radialGradient8945"
       gradientUnits="userSpaceOnUse"
       gradientTransform="matrix(0.83814858,0,0,0.81218455,-279.15252,-263.42051)"
       cx="360.20209"
       cy="367.89841"
       r="23.198" /></defs><path
     style="fill:url(#linearGradient81);fill-opacity:1;fill-rule:evenodd;stroke:none;stroke-width:1px;stroke-linecap:butt;stroke-linejoin:miter;stroke-opacity:1"
     d="M 37.983051,8.4406779 23.694915,1.0169492 23.932664,1.5843562 35.275189,8.3872697 Z"
     id="path80"
     sodipodi:nodetypes="ccccc" /><path
     style="fill:url(#linearGradient80);fill-opacity:1;fill-rule:evenodd;stroke:none;stroke-width:1px;stroke-linecap:butt;stroke-linejoin:miter;stroke-opacity:1"
     d="M 10.016949,8.4406779 24.305085,1.0169492 24.067336,1.5843562 12.724811,8.3872697 Z"
     id="path77"
     sodipodi:nodetypes="ccccc" /><path
     id="path75"
     style="fill:url(#radialGradient77);fill-opacity:1;stroke-width:0.999999"
     d="M 25.120989,1.9783733 A 1.1165019,1.1190702 0 0 1 24.004487,3.0974421 1.1165019,1.1190702 0 0 1 22.887985,1.9783733 1.1165019,1.1190702 0 0 1 24.004487,0.85930308 1.1165019,1.1190702 0 0 1 25.120989,1.9783733 Z"
     clip-path="none" /><path
     id="ellipse36"
     d="M 47.976948,44.261009 A 23.951524,3.7137381 0 0 1 24.025423,47.974748 23.951524,3.7137381 0 0 1 0.0738992,44.261009 23.951524,3.7137381 0 0 1 24.025423,40.547271 23.951524,3.7137381 0 0 1 47.976948,44.261009 Z"
     clip-path="none"
     style="stroke-width:1;fill-opacity:1;fill:url(#radialGradient75)" /><path
     id="polyline36"
     style="fill:none;stroke:#755076;stroke-width:0.5px;stroke-miterlimit:10"
     d="M 43.109074,9.4754455 24.055334,1.21566 4.8998988,9.4754455"
     clip-path="none"
     sodipodi:nodetypes="ccc" /><path
     id="circle36"
     style="fill:#c4a000;stroke-width:0.999999"
     d="M 25.120989,1.2156614 A 1.1165019,1.1190702 0 0 1 24.004487,2.3347302 1.1165019,1.1190702 0 0 1 22.887985,1.2156614 1.1165019,1.1190702 0 0 1 24.004487,0.09659121 1.1165019,1.1190702 0 0 1 25.120989,1.2156614 Z"
     clip-path="none" /><path
     id="rect36"
     style="fill:none;stroke:#723f00;stroke-width:1.39999px;stroke-miterlimit:10"
     d="M 0.95768256,8.6326894 H 47.051289 V 43.055248 H 0.95768256 Z"
     clip-path="none" /><path
     id="polygon40"
     style="fill:url(#linearGradient69);stroke-width:0.999999"
     d="M 0.95768225,43.055249 V 8.6326894 L 4.265836,12.450349 V 39.23759 Z"
     clip-path="none" /><path
     id="polygon41"
     style="fill:url(#linear-gradient-7);stroke-width:0.999999"
     d="m 47.051291,43.055249 h -0.01378 L 43.729352,39.23759 V 12.466255 l 3.321939,-3.8335656 z"
     clip-path="none" /><path
     id="polygon42"
     style="fill:url(#linear-gradient-8);stroke-width:0.999999"
     d="M 43.729352,12.450349 H 4.265836 L 0.95768225,8.6326894 H 47.051291 l -3.321939,3.8335656 z"
     clip-path="none" /><path
     id="polygon43"
     style="fill:url(#linear-gradient-9);stroke-width:0.999999"
     d="m 4.265836,39.23759 h 39.463516 l 3.308154,3.817659 H 0.95768225 Z"
     clip-path="none" /><path
     d="M 0.95768225,8.6326894 V 43.055249 H 47.051291 V 8.6326894 Z M 43.729352,39.23759 H 4.265836 V 12.450349 h 39.463516 z"
     style="fill:#8f5902;stroke-width:0.999999"
     id="path49"
     clip-path="none" /><path
     id="polygon49"
     style="fill:url(#linearGradient72);stroke-width:0.999999"
     d="m 2.6255431,10.557425 v 30.588994 l -1.66786085,1.90883 V 8.6326894 Z"
     clip-path="none" /><path
     id="polygon50"
     style="fill:url(#linearGradient73);stroke-width:0.999999"
     d="M 45.38343,41.146419 V 10.557425 L 47.051291,8.6326894 V 43.055249 h -0.01378 z"
     clip-path="none" /><path
     id="polygon51"
     style="fill:url(#linear-gradient-17);stroke-width:0.999999"
     d="m 2.6255431,10.541519 v 0.01591 L 0.95768225,8.6326894 H 47.051291 L 45.38343,10.557425 v -0.01591 z"
     clip-path="none" /><path
     id="polygon52"
     style="fill:url(#linear-gradient-18);stroke-width:0.999999"
     d="M 47.037506,43.055249 H 0.95768225 L 2.6255431,41.146419 H 45.38343 Z"
     clip-path="none" /><path
     id="rect52"
     style="fill:none;stroke:#723f00;stroke-width:0.999999;stroke-miterlimit:10"
     d="M 4.2658364,12.450349 H 43.729351 V 39.23759 H 4.2658364 Z"
     clip-path="none" /><path
     id="polygon53"
     style="fill:url(#linear-gradient-19);stroke-width:0.999999"
     d="m 2.6255431,41.146419 v -0.01591 L 4.265836,39.23759 h 39.463516 l 1.654078,1.908829 z"
     clip-path="none" /><path
     id="polygon54"
     style="fill:url(#linear-gradient-20);stroke-width:0.999999"
     d="M 43.729352,39.23759 V 12.466255 l 1.654078,-1.90883 v 30.588994 z"
     clip-path="none" /><path
     id="polygon55"
     style="fill:url(#linear-gradient-21);stroke-width:0.999999"
     d="M 2.6255431,10.541519 H 45.38343 v 0.01591 l -1.654078,1.90883 v -0.01591 H 4.265836 L 2.6255431,10.557425 Z"
     clip-path="none" /><path
     id="polygon56"
     style="fill:url(#linear-gradient-22);stroke-width:0.999999"
     d="M 2.6255431,41.130513 V 10.557425 L 4.265836,12.450349 V 39.23759 Z"
     clip-path="none" /><path
     d="m 27.126632,38.587238 -0.113038,-1.752874 c 0.0405,-0.525483 0.127986,-1.107007 0.127986,-1.107007 0,0 1.565808,0.420711 2.765477,0.583148 0.691775,0.09178 1.324416,0.101523 1.60226,-0.102335 0.632641,-0.466194 1.280674,-1.542338 1.333326,-3.507013 0.05265,-1.963862 0.780878,-3.065996 0.741187,-4.203055 -0.03159,-0.860915 -0.415551,-2.102745 -0.695825,-2.858077 -0.392869,-1.060713 -0.449571,-2.139294 -0.647222,-3.259297 -0.278654,-1.545587 -0.874033,-3.185387 -2.00809,-4.326507 -0.362897,-0.363046 -0.799509,-0.671676 -1.292824,-0.899088 -0.459292,0.06579 -1.095174,0.527107 -1.82259,1.240206 -0.636692,0.626194 -1.341427,1.44244 -2.111774,2.493407 -0.259213,0.358173 -0.467393,0.562843 -0.676384,0.638377 -0.19522,0.06822 -0.39449,0.0333 -0.646412,-0.108834 0.06156,0.2932 0.02187,0.592895 -0.03969,0.784571 -0.267313,0.815433 -1.443492,0.929951 -1.696224,2.564067 -0.0802,0.514112 -0.248683,1.029038 -0.447142,1.506602 -0.39044,0.938073 -0.895095,1.744572 -1.076544,2.170157 0.147427,1.120814 0.463343,3.03757 0.427701,4.834934 -0.01701,0.803251 -0.103685,1.581323 -0.306195,2.255437 -0.187929,0.622946 -0.477114,1.159799 -0.901575,1.538277 l -0.374535,1.4675 z"
     id="path8808"
     style="fill:#ffddb4;stroke-width:0.0606062"
     inkscape:connector-curvature="0"
     sodipodi:nodetypes="cccccccccccccccccccccccc" /><path
     d="m 16.990159,35.567356 c -0.658563,0.856855 -0.503845,0.954317 0.577559,0.981119 0.388819,0.0097 0.166057,0.462133 0.42203,0.830866 0.159578,0.224975 0.674764,-0.133199 1.067633,-0.436144 0.428512,-0.331371 0.671524,1.414825 1.068444,1.144368 1.050622,-0.703352 1.760217,-2.309041 1.686503,-4.032496 -0.09072,-2.13036 -1.327656,-5.188235 -1.327656,-5.716155 0.272173,-0.644874 1.249082,-2.083253 1.484804,-3.603663 0.310245,-2.014218 2.02915,-1.721018 1.708375,-3.277164 0.515995,0.295635 0.80923,0.180304 1.322795,-0.529545 1.665443,-2.303355 3.075723,-3.623967 3.939225,-3.749856 1.036042,0.480001 1.735917,1.269445 2.289984,2.31229 0.760628,1.424571 1.01417,2.936859 1.2102,4.508436 0.18955,1.53178 1.054673,2.905996 1.126766,4.46864 0.04941,1.043656 -0.532197,2.014217 -0.670713,3.687318 -0.03564,0.400406 -0.07209,1.589445 -0.319156,2.363456 -0.05508,0.179493 -0.322396,0.926703 -0.589709,1.225586 -0.05832,0.06579 -0.267313,0.36792 -0.491695,0.476753 -0.04779,0.02193 -0.365327,0.258274 -1.504244,0.108832 -0.07938,-0.0097 -1.351957,-0.18599 -2.856202,-0.622133 -0.01863,0.435331 -0.136896,0.886093 -0.151478,1.144368 0.533817,0.149442 1.692175,0.07716 2.866733,0.10396 0.21304,0.0032 1.20939,0.426397 1.968397,0.494621 0.189549,0.01706 -0.02916,-0.415839 0.132036,-0.380915 0.322397,0.06741 1.105706,0.396346 1.104086,0.325686 0,-0.181117 -0.215471,-0.904774 -0.07371,-0.797565 0.254353,0.190051 0.959898,0.458071 0.936406,0.361422 -0.927496,-3.922039 1.934376,-8.51738 1.934376,-11.101751 0,-2.951478 -0.22195,-7.974028 -2.21465,-9.695047 -1.82502,-1.578886 -4.406618,-2.906808 -6.982546,-2.396756 -0.480354,0.09584 -0.935596,0.276143 -1.355197,0.492996 -1.371398,-0.150254 -2.186299,-0.307818 -2.888603,-0.416651 -0.464964,-0.07066 -0.881324,-0.121015 -1.378688,-0.133198 -1.249082,-0.02761 -2.501405,-0.201422 -3.280663,0.62457 -0.725796,0.768326 -1.654912,1.132185 -2.344257,1.334419 -1.250702,0.368732 -2.344256,1.957365 -2.734696,4.53199 -0.388819,2.574625 -0.07614,4.0861 0.547588,4.91859 0.183879,0.245279 0.337786,0.549848 0.486834,0.927514 0.780878,2.000411 1.026321,4.132395 2.188729,5.984176 0.866743,1.38315 1.818539,2.590868 1.094364,3.537063 z"
     id="path8828"
     style="fill:#cd4f2e;stroke-width:0.0606062"
     inkscape:connector-curvature="0" /><path
     d="m 16.986919,35.565732 c -0.658563,0.856855 -0.504655,0.954317 0.576748,0.981119 0.38963,0.0089 0.166059,0.462133 0.422841,0.830864 0.159578,0.224976 0.673954,-0.133198 1.067633,-0.436142 0.428511,-0.331371 0.670713,1.414825 1.067633,1.143556 1.051432,-0.70254 1.761027,-2.308229 1.687314,-4.031685 -0.09072,-2.130359 -1.328466,-5.188234 -1.328466,-5.716154 0.272984,-0.644875 1.249892,-2.083254 1.484803,-3.603663 0.310246,-2.014218 2.029152,-1.721831 1.709185,-3.277165 0.515996,0.295636 0.80923,0.180305 1.322796,-0.529544 1.665443,-2.303355 3.075723,-3.623968 3.939226,-3.749856 1.035231,0.480001 1.735915,1.269445 2.289173,2.311477 0.761438,1.424572 1.01498,2.937671 1.21101,4.509248 0.18955,1.531781 1.054672,2.905996 1.126766,4.467828 0.04941,1.043657 -0.533006,2.014217 -0.671523,3.687318 -0.03483,0.400406 -0.07209,1.588632 -0.318346,2.362644 -0.05508,0.180305 -0.323206,0.927515 -0.59052,1.226399 -0.05751,0.06416 -0.265693,0.36792 -0.490884,0.476752 -0.04698,0.02112 -0.364518,0.258275 -1.503434,0.108833 -0.07938,-0.0097 -1.351957,-0.187615 -2.857012,-0.622946 -0.01863,0.43452 -0.136087,0.886094 -0.150667,1.144369 0.533816,0.149442 1.691363,0.07797 2.866732,0.104771 0.212231,0.0032 1.209389,0.425586 1.968398,0.493809 0.188739,0.01706 -0.02916,-0.415839 0.131226,-0.381727 0.323206,0.06822 1.106515,0.397158 1.104895,0.326498 0,-0.180305 -0.215471,-0.904773 -0.07371,-0.797565 0.253543,0.190051 0.959898,0.458884 0.937217,0.361422 -0.928306,-3.922039 1.933566,-8.516567 1.933566,-11.100938 0,-2.951479 -0.222762,-7.974028 -2.21546,-9.695859 -1.826641,-1.578887 -4.405809,-2.906809 -6.982547,-2.395945 -0.480353,0.09584 -0.934786,0.276143 -1.354388,0.492996 -1.371397,-0.150254 -2.186298,-0.307818 -2.888602,-0.41665 -0.464963,-0.07066 -0.882134,-0.121016 -1.379499,-0.134011 -1.248272,-0.0268 -2.500594,-0.201422 -3.281473,0.625382 -0.725795,0.768327 -1.654102,1.132185 -2.342636,1.334419 -1.250702,0.368732 -2.345066,1.956553 -2.734696,4.53199 -0.389629,2.575438 -0.07776,4.086913 0.547588,4.919402 0.183879,0.245279 0.336976,0.549849 0.486024,0.927515 0.781688,2.00041 1.02713,4.131583 2.188728,5.984175 0.866743,1.383151 1.817731,2.590869 1.094365,3.537064 z"
     id="path8837"
     style="fill:url(#radialGradient8945);stroke-width:0.0606062"
     inkscape:connector-curvature="0" /><path
     d="m 32.569661,24.685708 c 0.261644,1.056652 1.462124,4.666812 1.875244,2.596554 0.277033,-1.401831 -0.207371,-4.397167 -0.456053,-5.001433 -0.151478,-0.381726 -0.320776,-0.851981 -0.370999,-1.136246 -0.155527,-0.860103 -0.478733,-1.94843 -0.899144,-2.533203 -0.513566,-0.718783 -1.659772,-1.300308 -2.639921,-1.483861 -0.300524,-0.05523 -0.824621,-0.02031 -1.114615,0.04711 0.761438,0.3866 1.368158,0.922642 1.844462,1.618684 1.117045,1.621933 1.568237,3.653207 1.700274,5.563464 0.0016,0.01056 -0.02997,-0.03899 -0.02997,-0.02924 0.004,0.03736 0.08749,0.330559 0.09072,0.358173 z"
     id="path8846"
     style="fill:url(#radialGradient8942);stroke-width:0.0606062"
     inkscape:connector-curvature="0" /><path
     d="m 15.164328,19.650976 c 0.177399,-0.151878 0.319156,-0.310254 0.460103,-0.445077 0.328876,-0.313503 0.520045,-0.684672 1.147017,-0.576651 -0.322396,0.20467 -0.131227,1.167921 -0.0081,1.297058 0.06966,-0.604264 0.79384,-1.057464 0.976099,-1.106195 0.182259,-0.04792 1.047382,-0.274518 0.728226,0.05848 -0.104495,0.112082 -0.02673,0.447514 0.124746,0.744774 0.01701,0.03411 0.03564,0.06822 0.05751,0.101523 0.02025,0.03411 0.04293,0.06985 0.06723,0.100711 0.04698,-0.480002 0.294854,-0.858479 0.456052,-1.073708 0.350747,-0.471067 1.40866,-0.878784 0.20332,-0.766702 -0.345077,0.0333 -1.097604,0.544975 -1.257992,0.182741 -0.09963,-0.224163 0.03159,-0.491372 0.569458,-0.793504 -0.107736,0.0016 -0.20899,0.0081 -0.308625,0.01949 -0.09154,0.0097 -0.182259,0.02355 -0.267313,0.04142 -1.19805,0.234721 -1.79262,1.040408 -1.768318,0.672489 0.03078,-0.421524 0.148237,-1.14843 1.465363,-1.755944 -0.811661,-0.134822 -2.372608,1.050155 -2.372608,0.787819 0,-0.601828 2.138506,-1.488734 2.753326,-1.478176 0.474684,0.0081 -1.130816,-0.125076 -2.358027,0.232285 -0.362088,0.104772 -0.689344,0.253402 -0.922635,0.458072 -0.622111,0.549849 -1.010931,1.264572 -1.290395,2.028025 -0.08181,0.220915 -0.04617,0.750459 0.0073,1.566704 0.04131,0.609139 0.419601,-0.733402 0.754957,-1.020916 0.531387,-0.451574 1.657343,-0.861728 1.213441,-0.517362 -0.468204,0.371981 -0.411501,0.503555 -0.430132,1.242643 z"
     id="path8848"
     style="opacity:0.63;fill:#eabaa2;stroke-width:0.0606062"
     inkscape:connector-curvature="0" /><path
     d="m 15.956547,18.073714 c -0.21223,0.14538 -0.283514,0.733402 -0.200889,0.824367 0.04455,-0.428022 0.720125,-0.654621 0.838391,-0.688732 0.119886,-0.03411 0.690154,-0.193301 0.480354,0.04061 -0.06885,0.0796 -0.01782,0.316752 0.08181,0.527108 0.01215,0.02437 0.02349,0.04873 0.03807,0.07229 0.01296,0.02436 0.02673,0.04873 0.04536,0.06985 0.02916,-0.340305 0.19279,-0.607514 0.298095,-0.759391 0.230861,-0.333809 0.917775,-0.675738 0.143377,-0.488936 -0.359658,0.0869 -0.941267,0.381727 -1.348717,0.44995 -0.19765,-0.122639 -0.07452,-0.401219 -0.126366,-0.531168 -0.0648,-0.159189 0.02025,-0.347615 0.375048,-0.560408 -0.07128,0 -0.138516,0.0049 -0.20251,0.01462 -0.06156,0.0065 -0.119885,0.01624 -0.175778,0.02924 -0.78817,0.165686 -1.19481,0.683047 -1.176989,0.422336 0.01863,-0.298071 0.05508,-0.28995 0.05508,-0.475128 0,-0.425584 1.40704,-1.054215 1.81125,-1.046906 0.313485,0.0049 -0.743617,-0.08772 -1.550417,0.164062 -0.238152,0.07472 -0.453622,0.179492 -0.60591,0.324873 -0.40907,0.389037 -0.664233,0.89584 -0.848922,1.435131 -0.05265,0.157563 -0.03078,0.531168 0.004,1.108631 0.02673,0.430458 0.277034,-0.518986 0.496555,-0.722032 0.350747,-0.319188 1.01255,-0.609138 0.721746,-0.365482 -0.142567,0.122639 -0.224382,0.217665 -0.224382,0.407716 0.421221,-0.204671 0.850543,-0.293198 1.071683,-0.252589 z"
     id="path8850"
     style="opacity:0.63;fill:#eabaa2;stroke-width:0.0606062"
     inkscape:connector-curvature="0" /><path
     d="m 24.781125,17.49625 c 0.586469,-0.727717 1.984599,-1.59513 2.903995,-1.785181 0.348317,-0.07147 0.692584,-0.06741 1.107324,0.0024 0.908865,0.155127 1.232071,0.04142 1.640331,0.211168 0.333737,0.138072 0.217092,-0.0869 -0.364517,-0.518174 -0.135277,-0.10071 -0.297285,-0.212792 -0.486024,-0.333807 -0.842442,-0.548225 -1.41352,-1.076145 -2.520036,-0.989241 -0.896714,0.06822 -2.125545,0.927515 -2.779248,1.469242 -0.438232,0.363046 -1.159167,1.107007 -1.454022,1.585384 -0.237342,0.383351 -0.363708,0.678174 -0.104495,0.445077 0.489265,-0.439392 1.646812,-1.356348 1.997559,-1.413201 0.353988,-0.05685 1.304165,-0.368732 0.641552,0.05117 -0.517616,0.329747 -0.582419,1.275129 -0.582419,1.275129 z"
     id="path8852"
     style="opacity:0.63;fill:#eabaa2;stroke-width:0.0606062"
     inkscape:connector-curvature="0" /><path
     d="m 25.050058,16.612594 c 0.3791,-0.470255 1.281484,-1.031475 1.875244,-1.153302 0.22519,-0.04629 0.447142,-0.04386 0.716075,0.0016 0.586469,0.100711 0.795459,0.02761 1.060342,0.136447 0.217092,0.08934 0.140138,-0.05604 -0.235721,-0.33462 -0.08748,-0.06416 -0.192789,-0.137259 -0.313485,-0.215229 -0.545968,-0.354113 -0.912915,-0.69523 -1.629802,-0.639189 -0.579178,0.04467 -1.372207,0.59858 -1.795048,0.948631 -0.283514,0.235534 -0.749287,0.715535 -0.939647,1.024977 -0.153098,0.246904 -0.234102,0.437768 -0.06804,0.287513 0.318346,-0.285076 1.064392,-0.876347 1.291204,-0.913707 0.22843,-0.03655 0.843252,-0.23797 0.41555,0.0333 -0.334546,0.212793 -0.376669,0.823555 -0.376669,0.823555 z"
     id="path8854"
     style="opacity:0.63;fill:#eabaa2;stroke-width:0.0606062"
     inkscape:connector-curvature="0" /><path
     stroke-miterlimit="10"
     d="m 21.187788,18.412395 c 0.907244,0.851169 1.074923,1.344977 1.547986,1.760816 0.525717,0.463757 0.812471,0.91858 1.096794,1.088327"
     id="path8856"
     style="fill:none;stroke:#e1d8ce;stroke-width:0.308274;stroke-linecap:round;stroke-linejoin:round;stroke-miterlimit:10"
     inkscape:connector-curvature="0" /><g
     id="g8858"
     transform="matrix(0.8100402,0,0,0.81218455,-270.85115,-263.42051)"
     style="stroke-width:1.29328"><path
       stroke-miterlimit="10"
       d="m 365.436,341.965 c -1.068,0.555 -1.623,1.131 -2.222,1.563"
       id="path8860"
       style="fill:none;stroke:#601400;stroke-width:0.380063;stroke-linecap:round;stroke-linejoin:round;stroke-miterlimit:10"
       inkscape:connector-curvature="0" /><path
       stroke-miterlimit="10"
       d="m 360.398,347.168 c 1.12,1.049 1.327,1.656 1.91,2.169 0.651,0.57 1.004,1.129 1.356,1.339 0.159,0.944 -0.155,1.465 -1.147,2.162 -1.068,0.751 -0.827,2.427 -1.597,3.868 -0.771,1.44 -1.136,2.615 -2.22,3.628 -0.97,0.906 -1.99,1.401 -2.627,1.401 0.509,-1.234 0.689,-1.655 0.689,-1.655 0,0 -1.068,0.875 -1.41,0.944 0.289,-0.559 0.434,-0.839 0.434,-0.839 0,0 -0.652,0.348 -1.012,0.141 0.904,-0.979 0.4,-3.054 0.812,-4.359"
       id="path8862"
       style="fill:none;stroke:#601400;stroke-width:0.380063;stroke-linecap:round;stroke-linejoin:round;stroke-miterlimit:10"
       inkscape:connector-curvature="0" /><path
       stroke-miterlimit="10"
       d="m 375.377,348.657 c -0.587,-1.958 -2.142,-2.99 -4.032,-3.483 -0.408,-0.107 -1.193,-0.015 -1.728,0.246 0,0 -1.179,0.419 -2.932,2.532 -1.752,2.112 -1.787,2.331 -1.908,2.431 -0.122,0.101 -0.365,0.419 -0.799,0.318 -0.434,-0.1 -0.434,-0.117 -0.607,-0.268"
       id="path8864"
       style="fill:none;stroke:#601400;stroke-width:0.380063;stroke-linecap:round;stroke-linejoin:round;stroke-miterlimit:10"
       inkscape:connector-curvature="0" /></g></svg>
