<?xml version="1.0" encoding="UTF-8" standalone="no"?>
<svg
   sodipodi:docname="karmarenderproperties.svg"
   inkscape:version="1.2.1 (9c6d41e, 2022-07-14)"
   width="48px"
   height="48px"
   viewBox="0 0 48 48"
   version="1.1"
   id="SVGRoot"
   xmlns:inkscape="http://www.inkscape.org/namespaces/inkscape"
   xmlns:sodipodi="http://sodipodi.sourceforge.net/DTD/sodipodi-0.dtd"
   xmlns:xlink="http://www.w3.org/1999/xlink"
   xmlns="http://www.w3.org/2000/svg"
   xmlns:svg="http://www.w3.org/2000/svg"
   xmlns:rdf="http://www.w3.org/1999/02/22-rdf-syntax-ns#"
   xmlns:cc="http://creativecommons.org/ns#"
   xmlns:dc="http://purl.org/dc/elements/1.1/">
  <defs
     id="defs7051">
    <linearGradient
       inkscape:collect="always"
       xlink:href="#linearGradient31615"
       id="linearGradient31621"
       x1="7.59835"
       y1="7.6808586"
       x2="12.40363"
       y2="12.335973"
       gradientUnits="userSpaceOnUse"
       gradientTransform="matrix(1.1245264,-0.29235211,0.29238268,1.1244088,47.126399,26.973958)" />
    <linearGradient
       id="linearGradient31615">
      <stop
         style="stop-color:#eeeeec;stop-opacity:1;"
         offset="0"
         id="stop31617" />
      <stop
         style="stop-color:#d2d2cc;stop-opacity:1;"
         offset="1"
         id="stop31619" />
    </linearGradient>
  </defs>
  <sodipodi:namedview
     inkscape:grid-bbox="true"
     inkscape:window-maximized="1"
     inkscape:window-y="40"
     inkscape:window-x="0"
     inkscape:window-height="1369"
     inkscape:window-width="2560"
     showgrid="false"
     inkscape:document-rotation="0"
     inkscape:current-layer="layer1"
     inkscape:document-units="px"
     inkscape:cy="28.035714"
     inkscape:cx="26.473214"
     inkscape:zoom="11.2"
     inkscape:pageshadow="2"
     inkscape:pageopacity="0.0"
     borderopacity="1.0"
     bordercolor="#666666"
     pagecolor="#ffffff"
     id="base"
     inkscape:snap-global="false"
     inkscape:showpageshadow="2"
     inkscape:pagecheckerboard="0"
     inkscape:deskcolor="#d1d1d1" />
  <metadata
     id="metadata7054">
    <rdf:RDF>
      <cc:Work
         rdf:about="">
        <dc:format>image/svg+xml</dc:format>
        <dc:type
           rdf:resource="http://purl.org/dc/dcmitype/StillImage" />
        <dc:title />
      </cc:Work>
    </rdf:RDF>
  </metadata>
  <g
     id="layer1"
     inkscape:groupmode="layer"
     inkscape:label="Layer 1">
    <g
       id="g39775"
       transform="scale(0.78149633)">
      <rect
         style="fill:#ffffff;fill-opacity:1;stroke-width:4;stroke-linecap:square;paint-order:stroke fill markers;stop-color:#000000"
         id="rect35974"
         width="48"
         height="48"
         x="0"
         y="0" />
      <path
         class="st0"
         d="m 0,0 v 33.300977 c 1.3450086,-2.149613 3.2904674,-3.782838 5.8363773,-4.839631 v 0 c 1.3930443,-0.564425 2.9782331,-0.852641 4.9717297,-0.912685 3.434575,-0.09607 6.136602,-1.537153 8.034025,-4.275206 1.345009,-1.94546 1.849387,-4.287216 1.405054,-6.592944 -0.420315,-2.221667 -1.669252,-4.11909 -3.506631,-5.34401 -3.158368,-2.113585 -7.337503,-1.4530901 -9.4871151,1.501127 -1.6812611,2.305728 -1.4410807,5.500125 0.5524147,7.289466 1.5371521,1.369028 3.7348014,1.513136 5.2239164,0.324244 1.104831,-0.876658 1.441082,-2.389792 0.768578,-3.458594 -0.336253,-0.528396 -0.924694,-0.828623 -1.453089,-0.756568 -0.288217,0.04803 -0.480361,0.168126 -0.552415,0.336253 -0.06004,0.168125 -0.01201,0.372279 0.168125,0.600449 0.168127,0.216163 0.228171,0.468352 0.168127,0.732549 -0.06004,0.288217 -0.252189,0.540406 -0.540405,0.708533 -0.61246,0.34826 -1.417064,0.240179 -2.0175138,-0.276207 -0.8286216,-0.708531 -1.1048285,-1.909432 -0.708531,-3.050289 0.6484858,-1.897423 2.7980988,-2.954216 4.8876648,-2.425818 1.369028,0.34826 2.509883,1.224917 3.230424,2.461845 0.780585,1.345009 0.984738,3.002253 0.552414,4.551413 -0.900676,3.29047 -4.155117,5.404055 -7.709783,4.995747 C 5.8483858,24.426318 2.7500619,21.063797 2.4858643,16.884662 2.245684,12.9337 4.4913678,9.1508622 8.0940706,7.4816102 13.510133,4.9717284 19.898925,7.1573676 22.624971,12.465348 c 2.065547,4.011008 1.969477,8.118089 -0.288217,12.21316 -1.609207,2.90618 -1.82537,5.860396 -0.648487,8.778585 1.633226,4.023017 5.956468,6.268702 10.087567,5.223917 3.782837,-0.96072 6.148611,-4.623468 5.380033,-8.334249 -0.636476,-3.086316 -3.542657,-5.115839 -6.472854,-4.527398 -2.221665,0.444335 -3.758818,2.497875 -3.410558,4.575433 0.192146,1.152866 1.008757,2.06555 2.041531,2.281712 0.672505,0.144108 1.2009,0 1.657244,-0.420316 0.276206,-0.264198 0.372278,-0.552414 0.312233,-0.900676 -0.04803,-0.276206 -0.228171,-0.396297 -0.504376,-0.360271 -0.480363,0.07205 -0.768579,-0.08406 -0.924695,-0.240178 -0.156117,-0.144109 -0.336252,-0.432325 -0.288217,-0.924695 0.06004,-0.672503 0.636479,-1.284963 1.381037,-1.501125 1.333,-0.384288 2.858144,0.456343 3.458593,1.909432 0.756568,1.837378 -0.03602,4.083063 -1.849387,5.235926 -2.425819,1.537155 -5.668251,0.888668 -7.541657,-1.489117 -2.305728,-2.930196 -1.837377,-7.24143 1.068803,-9.823367 1.717288,-1.525144 3.950963,-2.269702 6.268702,-2.113585 2.425818,0.168126 4.635476,1.296973 6.220664,3.170378 1.753315,2.065549 2.581936,4.695523 2.353766,7.409557 -0.240181,2.834126 -1.597198,5.428071 -3.818865,7.301477 -4.239178,3.554665 -10.543906,3.578684 -14.98724,0.04803 -1.549163,-1.236928 -2.641983,-2.822118 -3.494622,-4.215163 -2.545909,-4.131097 -7.769827,-5.66825 -12.1411057,-3.590691 -2.029522,0.972728 -3.5906925,2.762069 -4.2631977,4.911682 -0.6604951,2.101577 -0.4323239,4.287216 0.6244687,6.148611 0.9006754,1.585191 2.4378285,2.738054 4.2031528,3.158371 1.6572429,0.384287 3.3264959,0.10808 4.6955199,-0.804604 2.041532,-1.369028 2.822119,-3.974981 1.813361,-6.05254 -0.720541,-1.489116 -2.317739,-2.30573 -3.7828366,-1.94546 -0.9727301,0.240181 -1.549162,0.816614 -1.7413058,1.70528 -0.1200906,0.564423 0.036027,0.996746 0.4443332,1.296973 0.1080806,0.08406 0.288216,0.168125 0.4563422,0.12009 C 9.0668,40.674497 9.1868897,40.5424 9.2589436,40.350257 9.367025,40.074048 9.547161,39.869897 9.78734,39.773824 c 0.252189,-0.09607 0.540405,-0.08406 0.840631,0.06004 0.60045,0.288217 0.948712,0.97273 0.864648,1.753315 -0.108082,1.09282 -1.020766,2.05354 -2.2336754,2.317739 -1.7292968,0.384288 -3.6147108,-0.648487 -4.3832874,-2.401802 -1.0447835,-2.377784 -0.096072,-5.235927 2.2096575,-6.65299 1.5131348,-0.936703 3.3264953,-1.212909 5.0798103,-0.768576 1.849387,0.468351 3.398549,1.645234 4.383287,3.314486 2.017513,3.470603 1.188893,7.817862 -1.873404,10.531898 H 48 V 9.2e-7 Z"
         id="path34227"
         style="fill:#ff4713;fill-opacity:1;stroke-width:0.120089" />
    </g>
    <ellipse
       ry="12.273354"
       rx="12.197592"
       cy="35.05357"
       cx="35.267857"
       style="color:#000000;display:inline;overflow:visible;visibility:visible;fill:#000000;fill-opacity:1;fill-rule:nonzero;stroke:#ffffff;stroke-width:1;stroke-linecap:butt;stroke-linejoin:miter;stroke-miterlimit:4;stroke-dasharray:none;stroke-dashoffset:0;stroke-opacity:1;marker:none;enable-background:accumulate"
       id="path12848" />
    <g
       id="g12842"
       transform="matrix(1.1610577,0,0,1.1682692,-32.463967,-4.4425223)">
      <path
         id="path31611"
         style="color:#000000;display:inline;overflow:visible;visibility:visible;fill:none;stroke:#000000;stroke-width:0.85862124;stroke-miterlimit:4;stroke-dasharray:none;stroke-opacity:1;marker:none;enable-background:accumulate"
         d="m 60.644083,33.585798 c 0.302378,1.16285 -0.395271,2.35062 -1.55824,2.652969 -1.162971,0.30234 -2.350869,-0.395229 -2.653248,-1.558069 -0.302378,-1.16285 0.395269,-2.35062 1.558239,-2.65298 1.16297,-0.30235 2.35087,0.39523 2.653249,1.55808 z m -4.004929,-6.7562 c -0.67444,0.17534 -1.076228,0.8594 -0.90087,1.53377 l 0.514362,1.97807 c -0.04439,0.23464 -0.0699,0.44734 -0.185652,0.5356 -0.09237,0.0704 -0.253897,0.0725 -0.428374,0.0708 l -1.917415,-1.12597 c -0.606999,-0.35645 -1.393528,-0.15197 -1.750016,0.45496 -0.356487,0.60694 -0.151985,1.39339 0.455013,1.74984 l 1.869481,1.09782 c 0.10405,0.1674 0.173668,0.32087 0.156741,0.44658 -0.017,0.12623 -0.117672,0.25887 -0.263261,0.39334 l -2.054366,0.53409 c -0.674441,0.17534 -1.076228,0.8594 -0.90087,1.53378 0.175358,0.674359 0.85949,1.076109 1.533932,0.900769 l 1.978278,-0.5143 c 0.234662,0.0444 0.447381,0.0699 0.535659,0.18563 0.07044,0.0924 0.0725,0.25387 0.07076,0.42832 l -1.12609,1.91721 c -0.356488,0.60695 -0.151986,1.39339 0.455013,1.74984 0.607,0.35645 1.393527,0.15197 1.750016,-0.45496 l 1.097936,-1.86929 c 0.167418,-0.1041 0.320895,-0.17366 0.446635,-0.15673 0.126242,0.017 0.258888,0.11767 0.393376,0.26324 l 0.534145,2.05415 c 0.175358,0.67437 0.859492,1.07612 1.533932,0.90078 0.674441,-0.17535 1.07623,-0.8594 0.900871,-1.53378 l -0.514362,-1.97807 c 0.0444,-0.23463 0.0699,-0.44733 0.185652,-0.5356 0.09237,-0.0704 0.253899,-0.0725 0.428366,-0.0707 l 1.917417,1.12597 c 0.606999,0.35645 1.393527,0.15197 1.750015,-0.45497 0.356486,-0.60694 0.151986,-1.39338 -0.455013,-1.74983 l -1.86947,-1.097779 c -0.104038,-0.1674 -0.173668,-0.32086 -0.15674,-0.44659 0.017,-0.12623 0.117673,-0.25886 0.263262,-0.39333 l 2.054363,-0.5341 c 0.674441,-0.17533 1.07623,-0.8594 0.900873,-1.53376 -0.175363,-0.67438 -0.859494,-1.07612 -1.533934,-0.90078 l -1.978277,0.51431 c -0.234665,-0.0444 -0.447385,-0.0699 -0.535661,-0.18563 -0.07045,-0.0924 -0.0725,-0.25388 -0.07076,-0.42833 l 1.126086,-1.91722 c 0.356487,-0.60693 0.151985,-1.39337 -0.455013,-1.74983 -0.607,-0.35645 -1.393529,-0.15197 -1.750017,0.45497 l -1.097935,1.86929 c -0.167422,0.10398 -0.320893,0.17365 -0.446634,0.15672 -0.12624,-0.017 -0.258889,-0.11766 -0.393375,-0.26324 l -0.534146,-2.0542 c -0.175358,-0.67436 -0.859491,-1.07611 -1.533932,-0.90077 z"
         inkscape:connector-curvature="0" />
      <path
         inkscape:connector-curvature="0"
         d="m 60.478593,33.088038 c 0.302378,1.16285 -0.39527,2.35062 -1.55824,2.65297 -1.16297,0.302339 -2.350869,-0.39523 -2.653248,-1.55807 -0.302378,-1.16285 0.395269,-2.35064 1.55824,-2.65298 1.162969,-0.30235 2.350869,0.39523 2.653248,1.55808 z m -4.004929,-6.7562 c -0.67444,0.17534 -1.076229,0.8594 -0.900871,1.53378 l 0.514363,1.97807 c -0.04439,0.23463 -0.0699,0.44732 -0.185652,0.53559 -0.09238,0.0704 -0.253896,0.0725 -0.428373,0.0708 l -1.917416,-1.12601 c -0.606999,-0.35645 -1.393528,-0.15197 -1.750015,0.45496 -0.356487,0.60695 -0.151986,1.39339 0.455013,1.74984 l 1.86948,1.09782 c 0.104045,0.16741 0.173672,0.32086 0.156744,0.44658 -0.017,0.12623 -0.117674,0.25886 -0.263262,0.39334 l -2.054366,0.53409 c -0.674442,0.17534 -1.076229,0.8594 -0.900871,1.53378 0.175358,0.674359 0.85949,1.076109 1.533932,0.900769 l 1.978278,-0.514309 c 0.234661,0.0444 0.447381,0.0699 0.535659,0.185629 0.07044,0.0924 0.07251,0.25387 0.07076,0.42833 l -1.126089,1.91721 c -0.356488,0.60695 -0.151987,1.39339 0.455013,1.74984 0.606999,0.35645 1.393527,0.15197 1.750015,-0.45497 l 1.097936,-1.86928 c 0.167418,-0.1041 0.320895,-0.17365 0.446635,-0.15673 0.126241,0.017 0.258888,0.11767 0.393375,0.26324 l 0.534146,2.05415 c 0.175357,0.67437 0.859492,1.07612 1.533932,0.90078 0.674441,-0.17535 1.07623,-0.85941 0.900871,-1.53378 l -0.514362,-1.97807 c 0.04439,-0.23463 0.0699,-0.44733 0.185651,-0.53561 0.09238,-0.0704 0.253901,-0.0725 0.428366,-0.0708 l 1.917417,1.12598 c 0.606999,0.35645 1.393528,0.15197 1.750016,-0.45497 0.356486,-0.60694 0.151984,-1.39338 -0.455014,-1.749829 l -1.869474,-1.09778 c -0.104038,-0.1674 -0.173668,-0.32086 -0.156741,-0.44659 0.017,-0.12623 0.117673,-0.25886 0.263261,-0.39334 l 2.054366,-0.53409 c 0.674441,-0.17533 1.07623,-0.8594 0.900871,-1.53376 -0.175357,-0.67438 -0.859492,-1.07612 -1.533933,-0.90079 l -1.978277,0.51432 c -0.234664,-0.0444 -0.447385,-0.0699 -0.535661,-0.18563 -0.07044,-0.0924 -0.07251,-0.25388 -0.07076,-0.42833 l 1.12609,-1.91722 c 0.356487,-0.60693 0.151985,-1.39338 -0.455013,-1.74983 -0.607001,-0.35645 -1.393529,-0.15197 -1.750016,0.45497 l -1.097937,1.86928 c -0.167421,0.10409 -0.320892,0.17366 -0.446634,0.15672 -0.126241,-0.017 -0.258889,-0.11765 -0.393375,-0.26323 l -0.534145,-2.0542 c -0.175362,-0.67431 -0.859496,-1.07606 -1.533937,-0.90072 z"
         style="color:#000000;display:inline;overflow:visible;visibility:visible;fill:url(#linearGradient31621);fill-opacity:1;fill-rule:evenodd;stroke:#888a85;stroke-width:0.42931062;stroke-miterlimit:4;stroke-dasharray:none;marker:none;enable-background:accumulate"
         id="path3643" />
    </g>
  </g>
</svg>
