<?xml version="1.0" encoding="UTF-8" standalone="no"?>
<svg
   viewBox="0 0 48 48"
   version="1.1"
   id="svg58"
   sodipodi:docname="2-Match_Size.svg"
   inkscape:version="1.3-dev (e30a5ffc, 2022-05-30)"
   xmlns:inkscape="http://www.inkscape.org/namespaces/inkscape"
   xmlns:sodipodi="http://sodipodi.sourceforge.net/DTD/sodipodi-0.dtd"
   xmlns:xlink="http://www.w3.org/1999/xlink"
   xmlns="http://www.w3.org/2000/svg"
   xmlns:svg="http://www.w3.org/2000/svg">
  <sodipodi:namedview
     id="namedview58"
     pagecolor="#505050"
     bordercolor="#ffffff"
     borderopacity="1"
     inkscape:showpageshadow="0"
     inkscape:pageopacity="0"
     inkscape:pagecheckerboard="1"
     inkscape:deskcolor="#505050"
     showgrid="false"
     inkscape:zoom="21.395833"
     inkscape:cx="23.0185"
     inkscape:cy="24"
     inkscape:window-width="2560"
     inkscape:window-height="1378"
     inkscape:window-x="-6"
     inkscape:window-y="-6"
     inkscape:window-maximized="1"
     inkscape:current-layer="svg58" />
  <defs
     id="defs11">
    <linearGradient
       inkscape:collect="always"
       id="linearGradient64">
      <stop
         style="stop-color:#000000;stop-opacity:0.55345911;"
         offset="0"
         id="stop63" />
      <stop
         style="stop-color:#000000;stop-opacity:0;"
         offset="1"
         id="stop64" />
    </linearGradient>
    <linearGradient
       inkscape:collect="always"
       id="linearGradient62">
      <stop
         style="stop-color:#000000;stop-opacity:0.59748429;"
         offset="0"
         id="stop61" />
      <stop
         style="stop-color:#000000;stop-opacity:0;"
         offset="1"
         id="stop62" />
    </linearGradient>
    <style
       id="style1">.cls-1{isolation:isolate;}.cls-2{fill:url(#radial-gradient);}.cls-3{opacity:0.5;}.cls-4{fill:url(#radial-gradient-2);}.cls-5{fill:url(#linear-gradient);}.cls-6{fill:url(#linear-gradient-2);}.cls-10,.cls-11,.cls-16,.cls-17,.cls-18,.cls-24,.cls-26,.cls-27,.cls-32,.cls-33,.cls-34,.cls-7{mix-blend-mode:multiply;}.cls-7{fill:url(#linear-gradient-3);}.cls-8{fill:#ef2929;}.cls-21,.cls-25,.cls-9{fill:none;}.cls-25,.cls-9{stroke:#555753;stroke-miterlimit:10;}.cls-9{stroke-width:0.5px;}.cls-10,.cls-17,.cls-26,.cls-33{opacity:0.7;}.cls-10{fill:url(#linear-gradient-4);}.cls-11,.cls-18,.cls-27,.cls-34{opacity:0.4;}.cls-11{fill:url(#linear-gradient-5);}.cls-12{fill:url(#linear-gradient-6);}.cls-13{fill:url(#linear-gradient-7);}.cls-14{fill:url(#linear-gradient-8);}.cls-15{fill:url(#linear-gradient-9);}.cls-16{fill:url(#linear-gradient-10);}.cls-17{fill:url(#linear-gradient-11);}.cls-18{fill:url(#linear-gradient-12);}.cls-19{fill:url(#linear-gradient-13);}.cls-20{fill:url(#linear-gradient-14);}.cls-21{stroke:#204a87;stroke-linecap:round;stroke-linejoin:round;stroke-width:0.35px;}.cls-22{fill:url(#linear-gradient-15);}.cls-23{fill:url(#linear-gradient-16);}.cls-24{fill:url(#linear-gradient-17);}.cls-25{stroke-width:0.7px;}.cls-26{fill:url(#linear-gradient-18);}.cls-27{fill:url(#linear-gradient-19);}.cls-28{fill:url(#linear-gradient-20);}.cls-29{fill:url(#linear-gradient-21);}.cls-30{fill:url(#linear-gradient-22);}.cls-31{fill:url(#linear-gradient-23);}.cls-32{fill:url(#linear-gradient-24);}.cls-33{fill:url(#linear-gradient-25);}.cls-34{fill:url(#linear-gradient-26);}.cls-35{fill:url(#linear-gradient-27);}.cls-36{fill:url(#linear-gradient-28);}</style>
    <radialGradient
       id="radial-gradient"
       cx="18.44"
       cy="53.05"
       r="8.66"
       gradientTransform="translate(-6.2 21.99) scale(1.21 0.35)"
       gradientUnits="userSpaceOnUse">
      <stop
         offset="0.35"
         stop-color="#2c2c2c"
         stop-opacity="0.5"
         id="stop1" />
      <stop
         offset="0.73"
         stop-color="#2c2c2c"
         stop-opacity="0.1"
         id="stop2" />
      <stop
         offset="0.95"
         stop-color="#2c2c2c"
         stop-opacity="0"
         id="stop3" />
    </radialGradient>
    <radialGradient
       id="radial-gradient-2"
       cx="32.5"
       cy="53.05"
       r="12.92"
       gradientTransform="matrix(1.38064,0,0,0.39608524,-13.698447,22.25954)"
       xlink:href="#radial-gradient" />
    <linearGradient
       id="linear-gradient"
       x1="35.54"
       y1="40.1"
       x2="35.54"
       y2="2.21"
       gradientUnits="userSpaceOnUse">
      <stop
         offset="0"
         stop-color="#d3d7cf"
         id="stop4" />
      <stop
         offset="1"
         stop-color="#fff8f8"
         id="stop5" />
    </linearGradient>
    <linearGradient
       id="linear-gradient-2"
       x1="35.54"
       y1="9.11"
       x2="35.54"
       y2="4.1"
       gradientUnits="userSpaceOnUse">
      <stop
         offset="0"
         stop-color="#fff"
         stop-opacity="0"
         id="stop6" />
      <stop
         offset="1"
         stop-color="#fff8f8"
         id="stop7" />
    </linearGradient>
    <linearGradient
       id="linear-gradient-3"
       x1="35.03"
       y1="21.63"
       x2="49"
       y2="23.44"
       gradientUnits="userSpaceOnUse">
      <stop
         offset="0"
         stop-color="#fff"
         id="stop8" />
      <stop
         offset="1"
         stop-color="#555753"
         id="stop9" />
    </linearGradient>
    <linearGradient
       id="linear-gradient-4"
       x1="35.5"
       y1="23.04"
       x2="39.63"
       y2="23.04"
       gradientUnits="userSpaceOnUse">
      <stop
         offset="0"
         stop-color="#eeeeec"
         id="stop10" />
      <stop
         offset="1"
         stop-color="#555753"
         id="stop11" />
    </linearGradient>
    <linearGradient
       id="linear-gradient-5"
       x1="28.66"
       y1="25.78"
       x2="24.24"
       y2="25.78"
       gradientTransform="matrix(1.5277573,0,0,1.1316721,-12.430974,-2.6146128)"
       xlink:href="#linear-gradient-4" />
    <linearGradient
       id="linear-gradient-6"
       x1="34.96"
       y1="8.08"
       x2="34.96"
       y2="4.65"
       xlink:href="#linear-gradient-2"
       gradientTransform="matrix(1.1316721,0,0,1.1316721,-5.6975249,-2.6259295)" />
    <linearGradient
       id="linear-gradient-7"
       x1="34.37"
       y1="25.21"
       x2="32.56"
       y2="21.21"
       xlink:href="#linear-gradient-2"
       gradientTransform="matrix(1.1316721,0,0,1.1316721,-5.6975249,-2.6259295)" />
    <linearGradient
       id="linear-gradient-8"
       x1="31.9"
       y1="40.56"
       x2="31.9"
       y2="9.46"
       xlink:href="#linear-gradient"
       gradientTransform="matrix(1.1316721,0,0,1.1316721,-5.6975249,-2.6259295)" />
    <linearGradient
       id="linear-gradient-9"
       x1="31.9"
       y1="15.12"
       x2="31.9"
       y2="11.01"
       xlink:href="#linear-gradient-2"
       gradientTransform="matrix(1.1316721,0,0,1.1316721,-5.6975249,-2.6259295)" />
    <linearGradient
       id="linear-gradient-10"
       x1="31.48"
       y1="25.4"
       x2="42.95"
       y2="26.89"
       xlink:href="#linear-gradient-3"
       gradientTransform="matrix(1.1316721,0,0,1.1316721,-5.6975249,-2.6259295)" />
    <linearGradient
       id="linear-gradient-11"
       x1="31.86"
       y1="26.56"
       x2="35.25"
       y2="26.56"
       xlink:href="#linear-gradient-4"
       gradientTransform="matrix(1.1316721,0,0,1.1316721,-5.6975249,-2.6259295)" />
    <linearGradient
       id="linear-gradient-12"
       x1="26.34"
       y1="28.81"
       x2="22.72"
       y2="28.81"
       gradientTransform="matrix(1.5277573,0,0,1.1316721,-12.430974,-2.6146128)"
       xlink:href="#linear-gradient-4" />
    <linearGradient
       id="linear-gradient-13"
       x1="31.42"
       y1="14.28"
       x2="31.42"
       y2="11.46"
       xlink:href="#linear-gradient-2"
       gradientTransform="matrix(1.1316721,0,0,1.1316721,-5.6975249,-2.6259295)" />
    <linearGradient
       id="linear-gradient-14"
       x1="30.94"
       y1="28.34"
       x2="29.45"
       y2="25.05"
       xlink:href="#linear-gradient-2"
       gradientTransform="matrix(1.1316721,0,0,1.1316721,-5.6975249,-2.6259295)" />
    <linearGradient
       id="linear-gradient-15"
       x1="16.08"
       y1="40.82"
       x2="16.08"
       y2="15.29"
       xlink:href="#linear-gradient"
       gradientTransform="matrix(1.1316721,0,0,1.1316721,-5.6975249,-2.6259295)" />
    <linearGradient
       id="linear-gradient-16"
       x1="16.08"
       y1="19.94"
       x2="16.08"
       y2="16.57"
       xlink:href="#linear-gradient-2"
       gradientTransform="matrix(1.1316721,0,0,1.1316721,-5.6975249,-2.6259295)" />
    <linearGradient
       id="linear-gradient-17"
       x1="15.73"
       y1="28.37"
       x2="25.15"
       y2="29.59"
       xlink:href="#linear-gradient-3"
       gradientTransform="matrix(1.1316721,0,0,1.1316721,-5.6975249,-2.6259295)" />
    <linearGradient
       id="linear-gradient-18"
       x1="16.05"
       y1="29.33"
       x2="18.83"
       y2="29.33"
       xlink:href="#linear-gradient-4"
       gradientTransform="matrix(1.1316721,0,0,1.1316721,-5.6975249,-2.6259295)" />
    <linearGradient
       id="linear-gradient-19"
       x1="14.91"
       y1="31.17"
       x2="11.94"
       y2="31.17"
       gradientTransform="matrix(1.5277573,0,0,1.1316721,-12.430974,-2.6146128)"
       xlink:href="#linear-gradient-4" />
    <linearGradient
       id="linear-gradient-20"
       x1="15.69"
       y1="19.25"
       x2="15.69"
       y2="16.93"
       xlink:href="#linear-gradient-2"
       gradientTransform="matrix(1.1316721,0,0,1.1316721,-5.6975249,-2.6259295)" />
    <linearGradient
       id="linear-gradient-21"
       x1="15.29"
       y1="30.78"
       x2="14.07"
       y2="28.09"
       xlink:href="#linear-gradient-2"
       gradientTransform="matrix(1.1316721,0,0,1.1316721,-5.6975249,-2.6259295)" />
    <linearGradient
       id="linear-gradient-22"
       x1="28.35"
       y1="40.82"
       x2="28.35"
       y2="15.29"
       xlink:href="#linear-gradient"
       gradientTransform="matrix(1.1316721,0,0,1.1316721,-5.6975249,-2.6259295)" />
    <linearGradient
       id="linear-gradient-23"
       x1="28.35"
       y1="19.94"
       x2="28.35"
       y2="16.57"
       xlink:href="#linear-gradient-2"
       gradientTransform="matrix(1.1316721,0,0,1.1316721,-5.6975249,-2.6259295)" />
    <linearGradient
       id="linear-gradient-24"
       x1="28.01"
       y1="28.37"
       x2="37.42"
       y2="29.59"
       xlink:href="#linear-gradient-3"
       gradientTransform="matrix(1.1316721,0,0,1.1316721,-5.6975249,-2.6259295)" />
    <linearGradient
       id="linear-gradient-25"
       x1="28.32"
       y1="29.33"
       x2="31.11"
       y2="29.33"
       xlink:href="#linear-gradient-4"
       gradientTransform="matrix(1.1316721,0,0,1.1316721,-5.6975249,-2.6259295)" />
    <linearGradient
       id="linear-gradient-26"
       x1="24.03"
       y1="31.17"
       x2="21.06"
       y2="31.17"
       gradientTransform="matrix(1.5277573,0,0,1.1316721,-12.430974,-2.6146128)"
       xlink:href="#linear-gradient-4" />
    <linearGradient
       id="linear-gradient-27"
       x1="27.96"
       y1="19.25"
       x2="27.96"
       y2="16.93"
       xlink:href="#linear-gradient-2"
       gradientTransform="matrix(1.1316721,0,0,1.1316721,-5.6975249,-2.6259295)" />
    <linearGradient
       id="linear-gradient-28"
       x1="27.56"
       y1="30.78"
       x2="26.34"
       y2="28.09"
       xlink:href="#linear-gradient-2"
       gradientTransform="matrix(1.1316721,0,0,1.1316721,-5.6975249,-2.6259295)" />
    <linearGradient
       inkscape:collect="always"
       xlink:href="#linear-gradient"
       id="linearGradient58"
       gradientUnits="userSpaceOnUse"
       x1="35.54"
       y1="40.1"
       x2="35.54"
       y2="2.21"
       gradientTransform="matrix(1.1316721,0,0,1.1316721,-5.6975249,-2.6259295)" />
    <linearGradient
       inkscape:collect="always"
       xlink:href="#linear-gradient-2"
       id="linearGradient59"
       gradientUnits="userSpaceOnUse"
       x1="35.54"
       y1="9.11"
       x2="35.54"
       y2="4.1"
       gradientTransform="matrix(1.1316721,0,0,1.1316721,-5.6975249,-2.6259295)" />
    <linearGradient
       inkscape:collect="always"
       xlink:href="#linear-gradient-3"
       id="linearGradient60"
       gradientUnits="userSpaceOnUse"
       x1="35.03"
       y1="21.63"
       x2="49"
       y2="23.44"
       gradientTransform="matrix(1.1316721,0,0,1.1316721,-5.6975249,-2.6259295)" />
    <linearGradient
       inkscape:collect="always"
       xlink:href="#linear-gradient-4"
       id="linearGradient61"
       gradientUnits="userSpaceOnUse"
       x1="35.5"
       y1="23.04"
       x2="39.63"
       y2="23.04"
       gradientTransform="matrix(1.1316721,0,0,1.1316721,-5.6975249,-2.6259295)" />
    <radialGradient
       inkscape:collect="always"
       xlink:href="#linearGradient62"
       id="radialGradient62"
       cx="16.200001"
       cy="40.450001"
       fx="16.200001"
       fy="40.450001"
       r="10.11"
       gradientTransform="matrix(1,0,0,0.28783385,0,28.807121)"
       gradientUnits="userSpaceOnUse" />
    <radialGradient
       inkscape:collect="always"
       xlink:href="#linearGradient64"
       id="radialGradient64"
       cx="31.138401"
       cy="43.150208"
       fx="31.138401"
       fy="43.150208"
       r="17.133516"
       gradientTransform="matrix(1,0,0,0.28665786,0,30.780862)"
       gradientUnits="userSpaceOnUse" />
  </defs>
  <g
     id="shadow"
     transform="matrix(1.1316721,0,0,1.1316721,-5.6975249,-2.6259295)"
     style="isolation:isolate;fill:url(#radialGradient62);fill-opacity:1">
    <path
       id="ellipse11"
       class="cls-2"
       d="m 26.31,40.450001 a 10.11,2.9100001 0 0 1 -10.109999,2.91 10.11,2.9100001 0 0 1 -10.1099999,-2.91 10.11,2.9100001 0 0 1 10.1099999,-2.91 10.11,2.9100001 0 0 1 10.109999,2.91 z" />
  </g>
  <path
     id="ellipse12"
     style="opacity:0.5;isolation:isolate;fill:url(#radialGradient64);stroke-width:1.13167"
     class="cls-4"
     d="M 48.271917,43.150208 A 17.133516,4.9114571 0 0 1 31.138401,48.061665 17.133516,4.9114571 0 0 1 14.004885,43.150208 17.133516,4.9114571 0 0 1 31.138401,38.23875 17.133516,4.9114571 0 0 1 48.271917,43.150208 Z" />
  <path
     class="cls-5"
     d="m 34.522102,43.263374 a 10.343483,10.343483 0 0 0 3.700567,-0.712953 2.0256931,2.0256931 0 0 0 1.131672,-1.131672 28.291803,28.291803 0 0 0 2.478362,-12.040992 C 41.595052,22.270857 37.124947,17.133065 37.07968,13.534348 37.034414,9.9356308 38.347153,7.208301 38.301886,4.9223234 38.256619,2.6363458 37.04573,0.54275238 34.522102,0.54275238 c -2.523629,0 -3.734518,2.11622682 -3.768469,4.35693762 -0.03395,2.2407107 1.267473,5.115158 1.222206,8.612025 -0.04527,3.496866 -4.526688,8.759142 -4.753023,15.843409 a 28.054151,28.054151 0 0 0 2.467046,12.040991 1.9917429,1.9917429 0 0 0 1.131672,1.131672 10.343483,10.343483 0 0 0 3.700568,0.735587 z"
     id="path12"
     style="opacity:0.5;isolation:isolate;fill:url(#linearGradient58);stroke-width:1.13167" />
  <path
     class="cls-6"
     d="m 34.522102,43.263374 a 10.343483,10.343483 0 0 0 3.700567,-0.712953 2.0256931,2.0256931 0 0 0 1.131672,-1.131672 28.291803,28.291803 0 0 0 2.478362,-12.040992 C 41.595052,22.270857 37.124947,17.133065 37.07968,13.534348 37.034414,9.9356308 38.347153,7.208301 38.301886,4.9223234 38.256619,2.6363458 37.04573,0.54275238 34.522102,0.54275238 c -2.523629,0 -3.734518,2.11622682 -3.768469,4.35693762 -0.03395,2.2407107 1.267473,5.115158 1.222206,8.612025 -0.04527,3.496866 -4.526688,8.759142 -4.753023,15.843409 a 28.054151,28.054151 0 0 0 2.467046,12.040991 1.9917429,1.9917429 0 0 0 1.131672,1.131672 10.343483,10.343483 0 0 0 3.700568,0.735587 z"
     id="path13"
     style="opacity:0.5;isolation:isolate;fill:url(#linearGradient59);stroke-width:1.13167" />
  <path
     class="cls-7"
     d="m 34.522102,43.263374 a 10.343483,10.343483 0 0 0 3.700567,-0.712953 2.0256931,2.0256931 0 0 0 1.131672,-1.131672 28.291803,28.291803 0 0 0 2.478362,-12.040992 C 41.595052,22.270857 37.124947,17.133065 37.07968,13.534348 37.034414,9.9356308 38.347153,7.208301 38.301886,4.9223234 38.256619,2.6363458 37.04573,0.54275238 34.522102,0.54275238 c -2.523629,0 -3.734518,2.11622682 -3.768469,4.35693762 -0.03395,2.2407107 1.267473,5.115158 1.222206,8.612025 -0.04527,3.496866 -4.526688,8.759142 -4.753023,15.843409 a 28.054151,28.054151 0 0 0 2.467046,12.040991 1.9917429,1.9917429 0 0 0 1.131672,1.131672 10.343483,10.343483 0 0 0 3.700568,0.735587 z"
     id="path14"
     style="opacity:0.5;isolation:isolate;fill:url(#linearGradient60);stroke-width:1.13167" />
  <path
     class="cls-8"
     d="m 37.385232,10.195915 h -5.737578 a 20.992517,20.992517 0 0 1 0.282918,2.150177 h 5.160425 a 20.992517,20.992517 0 0 1 0.294235,-2.150177 z"
     id="path15"
     style="opacity:0.5;isolation:isolate;stroke-width:1.13167" />
  <path
     class="cls-8"
     d="m 37.883168,16.73698 a 12.584194,12.584194 0 0 1 -0.679004,-2.150177 h -5.352809 a 13.795083,13.795083 0 0 1 -0.69032,2.150177 z"
     id="path16"
     style="opacity:0.5;isolation:isolate;stroke-width:1.13167" />
  <path
     class="cls-9"
     d="m 34.522102,43.263374 a 10.343483,10.343483 0 0 0 3.700567,-0.712953 2.0256931,2.0256931 0 0 0 1.131672,-1.131672 28.291803,28.291803 0 0 0 2.478362,-12.040992 C 41.595052,22.270857 37.124947,17.133065 37.07968,13.534348 37.034414,9.9356308 38.347153,7.208301 38.301886,4.9223234 38.256619,2.6363458 37.04573,0.54275238 34.522102,0.54275238 c -2.523629,0 -3.734518,2.11622682 -3.768469,4.35693762 -0.03395,2.2407107 1.267473,5.115158 1.222206,8.612025 -0.04527,3.496866 -4.526688,8.759142 -4.753023,15.843409 a 28.054151,28.054151 0 0 0 2.467046,12.040991 1.9917429,1.9917429 0 0 0 1.131672,1.131672 10.343483,10.343483 0 0 0 3.700568,0.735587 z"
     id="path17"
     style="opacity:0.5;isolation:isolate" />
  <path
     class="cls-10"
     d="m 34.476835,42.957823 a 4.7190727,4.7190727 0 0 0 2.353878,-0.69032 1.7201416,1.7201416 0 0 0 0.72427,-1.131672 38.476851,38.476851 0 0 0 1.584341,-11.497789 C 38.992206,22.848009 36.140393,17.936553 36.117759,14.484953 36.095126,11.033353 36.932563,8.8831758 36.90993,6.6990486 A 4.017436,4.017436 0 0 0 36.174343,4.2320034 C 35.823524,3.801968 34.488151,3.5756336 34.476835,5.669227 v 37.277279"
     id="path18"
     style="isolation:isolate;fill:url(#linearGradient61);stroke-width:1.13167" />
  <path
     class="cls-11"
     d="m 31.794772,9.9243141 a 7.5595696,7.5595696 0 0 1 1.052455,3.3950159 c 0,2.387829 -0.248968,3.904269 -2.772597,10.649035 -3.270532,8.759142 0.803487,16.975081 1.210889,17.721985 A 5.6583605,5.6583605 0 0 0 32.83591,43.17284 9.3362948,9.3362948 0 0 1 31.081818,42.640955 1.946476,1.946476 0 0 1 30.00673,41.509282 C 29.305093,39.472273 27.154916,35.296403 27.358617,29.479608 27.584952,22.689575 32.032423,17.506517 32.07769,14.043601 A 15.741559,15.741559 0 0 0 31.794772,9.8790472"
     id="path19"
     style="isolation:isolate;fill:url(#linear-gradient-5);stroke-width:1.13167" />
  <path
     class="cls-12"
     d="m 35.789574,2.8626802 a 2.0370098,2.0370098 0 0 0 -2.79523,-0.090534 3.3950163,3.3950163 0 0 0 -1.029821,2.3651947 13.851667,13.851667 0 0 0 0.362135,3.9382189 c 0,0 -0.441352,-2.1049101 0.192384,-2.8178635 0.633736,-0.7129534 1.358006,-0.486619 1.629608,-1.8333088 a 2.0709599,2.0709599 0 0 1 1.640924,-1.5617073 z"
     id="path20"
     style="opacity:0.5;isolation:isolate;fill:url(#linear-gradient-6);stroke-width:1.13167" />
  <path
     class="cls-13"
     d="m 32.632209,19.475627 c -0.735587,0.124484 -2.048326,3.508183 -2.263344,5.907328 -0.215018,2.399145 1.923842,-1.256156 2.263344,-2.263344 a 9.9021309,9.9021309 0 0 0 0.396085,-1.301423 c 0.158434,-0.407402 0.882705,-2.534946 -0.396085,-2.342561 z"
     id="path21"
     style="opacity:0.5;isolation:isolate;fill:url(#linear-gradient-7);stroke-width:1.13167" />
  <path
     class="cls-14"
     d="m 30.402815,43.69341 a 8.4535906,8.4535906 0 0 0 3.032881,-0.58847 1.6296078,1.6296078 0 0 0 0.927971,-0.927971 23.176645,23.176645 0 0 0 2.025693,-9.879497 C 36.174343,26.458043 32.519042,22.270857 32.485092,19.271926 32.451142,16.272995 33.52623,14.077551 33.49228,12.198975 33.45833,10.320399 32.473775,8.6228912 30.402815,8.6228912 c -2.07096,0 -3.066831,1.7427748 -3.089465,3.5760838 -0.02263,1.833309 1.041139,4.20982 0.995872,7.072951 -0.04527,2.86313 -3.700568,7.197434 -3.892952,13.025546 a 23.040844,23.040844 0 0 0 2.014376,9.879497 1.663558,1.663558 0 0 0 0.927971,0.927971 8.5780745,8.5780745 0 0 0 3.044198,0.58847 z"
     id="path22"
     style="opacity:0.5;isolation:isolate;fill:url(#linear-gradient-8);stroke-width:1.13167" />
  <path
     class="cls-15"
     d="m 30.402815,43.69341 a 8.4535906,8.4535906 0 0 0 3.032881,-0.58847 1.6296078,1.6296078 0 0 0 0.927971,-0.927971 23.176645,23.176645 0 0 0 2.025693,-9.879497 C 36.174343,26.458043 32.519042,22.270857 32.485092,19.271926 32.451142,16.272995 33.52623,14.077551 33.49228,12.198975 33.45833,10.320399 32.473775,8.6228912 30.402815,8.6228912 c -2.07096,0 -3.066831,1.7427748 -3.089465,3.5760838 -0.02263,1.833309 1.041139,4.20982 0.995872,7.072951 -0.04527,2.86313 -3.700568,7.197434 -3.892952,13.025546 a 23.040844,23.040844 0 0 0 2.014376,9.879497 1.663558,1.663558 0 0 0 0.927971,0.927971 8.5780745,8.5780745 0 0 0 3.044198,0.58847 z"
     id="path23"
     style="opacity:0.5;isolation:isolate;fill:url(#linear-gradient-9);stroke-width:1.13167" />
  <path
     class="cls-16"
     d="m 30.402815,43.69341 a 8.4535906,8.4535906 0 0 0 3.032881,-0.58847 1.6296078,1.6296078 0 0 0 0.927971,-0.927971 23.176645,23.176645 0 0 0 2.025693,-9.879497 C 36.174343,26.458043 32.519042,22.270857 32.485092,19.271926 32.451142,16.272995 33.52623,14.077551 33.49228,12.198975 33.45833,10.320399 32.473775,8.6228912 30.402815,8.6228912 c -2.07096,0 -3.066831,1.7427748 -3.089465,3.5760838 -0.02263,1.833309 1.041139,4.20982 0.995872,7.072951 -0.04527,2.86313 -3.700568,7.197434 -3.892952,13.025546 a 23.040844,23.040844 0 0 0 2.014376,9.879497 1.663558,1.663558 0 0 0 0.927971,0.927971 8.5780745,8.5780745 0 0 0 3.044198,0.58847 z"
     id="path24"
     style="opacity:0.5;isolation:isolate;fill:url(#linear-gradient-10);stroke-width:1.13167" />
  <path
     class="cls-8"
     d="m 32.779327,16.544596 h -4.73039 a 16.850598,16.850598 0 0 1 0.203701,1.776725 h 4.232454 a 14.326969,14.326969 0 0 1 0.294235,-1.776725 z"
     id="path25"
     style="opacity:0.5;isolation:isolate;stroke-width:1.13167" />
  <path
     class="cls-8"
     d="M 33.164095,21.920038 A 9.5965794,9.5965794 0 0 1 32.598259,20.15463 h -4.345621 a 10.547184,10.547184 0 0 1 -0.565836,1.765408 z"
     id="path26"
     style="opacity:0.5;isolation:isolate;stroke-width:1.13167" />
  <path
     class="cls-9"
     d="m 30.402815,43.69341 a 8.4535906,8.4535906 0 0 0 3.032881,-0.58847 1.6296078,1.6296078 0 0 0 0.927971,-0.927971 23.176645,23.176645 0 0 0 2.025693,-9.879497 C 36.174343,26.458043 32.519042,22.270857 32.485092,19.271926 32.451142,16.272995 33.52623,14.077551 33.49228,12.198975 33.45833,10.320399 32.473775,8.6228912 30.402815,8.6228912 c -2.07096,0 -3.066831,1.7427748 -3.089465,3.5760838 -0.02263,1.833309 1.041139,4.20982 0.995872,7.072951 -0.04527,2.86313 -3.700568,7.197434 -3.892952,13.025546 a 23.040844,23.040844 0 0 0 2.014376,9.879497 1.663558,1.663558 0 0 0 0.927971,0.927971 8.5780745,8.5780745 0 0 0 3.044198,0.58847 z"
     id="path27"
     style="opacity:0.5;isolation:isolate" />
  <path
     class="cls-17"
     d="m 30.357548,43.444442 a 3.9382189,3.9382189 0 0 0 1.946476,-0.565836 1.4485403,1.4485403 0 0 0 0.58847,-0.882705 31.347317,31.347317 0 0 0 1.301423,-9.438145 c -0.124484,-5.579143 -2.455729,-9.607896 -2.478362,-12.448393 -0.02263,-2.840497 0.667686,-4.583272 0.645053,-6.382631 a 3.2705324,3.2705324 0 0 0 -0.58847,-2.07096 c -0.282918,-0.350818 -1.38064,-0.531885 -1.38064,1.131673 v 30.555146"
     id="path28"
     style="isolation:isolate;fill:url(#linear-gradient-11);stroke-width:1.13167" />
  <path
     class="cls-18"
     d="m 28.162104,16.329578 a 6.3373638,6.3373638 0 0 1 0.871388,2.76128 c 0,1.96911 -0.215018,3.213949 -2.263344,8.747825 -2.682063,7.186118 0.667686,13.942201 0.995871,14.541987 a 4.6964392,4.6964392 0 0 0 1.267473,1.222206 8.3856903,8.3856903 0 0 1 -1.437224,-0.418719 1.5164406,1.5164406 0 0 1 -0.871387,-0.894021 23.765114,23.765114 0 0 1 -2.206761,-9.83423 c 0.181068,-5.567827 3.836369,-9.822914 3.881635,-12.663411 a 12.719994,12.719994 0 0 0 -0.237651,-3.395016"
     id="path29"
     style="isolation:isolate;fill:url(#linear-gradient-12);stroke-width:1.13167" />
  <path
     class="cls-19"
     d="m 31.443953,10.5241 a 1.6861914,1.6861914 0 0 0 -2.263344,-0.0679 2.8065468,2.8065468 0 0 0 -0.927971,1.946476 11.882557,11.882557 0 0 0 0.294235,3.225265 c 0,0 -0.362135,-1.720141 0.169751,-2.263344 0.531886,-0.543202 1.131672,-0.407402 1.335373,-1.505124 A 1.7314583,1.7314583 0 0 1 31.443953,10.5241 Z"
     id="path30"
     style="opacity:0.5;isolation:isolate;fill:url(#linear-gradient-13);stroke-width:1.13167" />
  <path
     class="cls-20"
     d="m 28.852424,24.172066 c -0.599786,0.10185 -1.731458,2.874447 -1.844625,4.888823 -0.113167,2.014377 1.584341,-1.029821 1.867259,-1.867259 0.282918,-0.837437 0.226334,-0.746903 0.328185,-1.063771 0.10185,-0.316869 0.645053,-2.116227 -0.350819,-1.957793 z"
     id="path31"
     style="opacity:0.5;isolation:isolate;fill:url(#linear-gradient-14);stroke-width:1.13167" />
  <path
     id="line31"
     style="isolation:isolate;fill:none;stroke:#204a87;stroke-width:0.396085px;stroke-linecap:round;stroke-linejoin:round"
     class="cls-21"
     d="M 0.88880694,15.25449 H 5.5965619" />
  <path
     id="line32"
     style="isolation:isolate;fill:none;stroke:#204a87;stroke-width:0.396085px;stroke-linecap:round;stroke-linejoin:round"
     class="cls-21"
     d="M 1.6809772,18.819258 H 4.793076" />
  <path
     id="line33"
     style="isolation:isolate;fill:none;stroke:#204a87;stroke-width:0.396085px;stroke-linecap:round;stroke-linejoin:round"
     class="cls-21"
     d="M 1.6809772,22.384024 H 4.793076" />
  <path
     id="line34"
     style="isolation:isolate;fill:none;stroke:#204a87;stroke-width:0.396085px;stroke-linecap:round;stroke-linejoin:round"
     class="cls-21"
     d="M 1.6809772,25.948792 H 4.793076" />
  <path
     id="line35"
     style="isolation:isolate;fill:none;stroke:#204a87;stroke-width:0.396085px;stroke-linecap:round;stroke-linejoin:round"
     class="cls-21"
     d="M 0.88880694,29.513557 H 5.5965619" />
  <path
     id="line36"
     style="isolation:isolate;fill:none;stroke:#204a87;stroke-width:0.396085px;stroke-linecap:round;stroke-linejoin:round"
     class="cls-21"
     d="M 1.6809772,33.078323 H 4.793076" />
  <path
     id="line37"
     style="isolation:isolate;fill:none;stroke:#204a87;stroke-width:0.396085px;stroke-linecap:round;stroke-linejoin:round"
     class="cls-21"
     d="M 1.6809772,36.631775 H 4.793076" />
  <path
     id="line38"
     style="isolation:isolate;fill:none;stroke:#204a87;stroke-width:0.396085px;stroke-linecap:round;stroke-linejoin:round"
     class="cls-21"
     d="M 1.6809772,40.196545 H 4.793076" />
  <path
     id="line39"
     style="isolation:isolate;fill:none;stroke:#204a87;stroke-width:0.396085px;stroke-linecap:round;stroke-linejoin:round"
     class="cls-21"
     d="M 0.88880694,43.761311 H 5.5965619" />
  <path
     id="line40"
     style="isolation:isolate;fill:none;stroke:#204a87;stroke-width:0.396085px;stroke-linecap:round;stroke-linejoin:round"
     class="cls-21"
     d="M 3.2426848,15.25449 V 43.761311" />
  <path
     class="cls-22"
     d="m 12.499762,43.908427 a 6.7221323,6.7221323 0 0 0 2.489679,-0.486619 1.3127396,1.3127396 0 0 0 0.814804,-0.780853 18.80839,18.80839 0 0 0 1.663558,-8.102773 c -0.158434,-4.798289 -3.168682,-8.249889 -3.202632,-10.694301 -0.03395,-2.444412 0.860071,-4.266404 0.826121,-5.805478 a 2.6481127,2.6481127 0 0 0 -2.534946,-2.931031 2.6594294,2.6594294 0 0 0 -2.546262,2.931031 c 0,1.539074 0.860071,3.395016 0.82612,5.805478 -0.03395,2.410461 -3.0441975,5.896012 -3.2026316,10.694301 a 18.978141,18.978141 0 0 0 1.6069744,8.102773 1.3466898,1.3466898 0 0 0 0.7582203,0.75822 6.7900326,6.7900326 0 0 0 2.5009949,0.509252 z"
     id="path40"
     style="isolation:isolate;fill:url(#linear-gradient-15);stroke-width:1.13167" />
  <path
     class="cls-23"
     d="m 12.499762,43.908427 a 6.7221323,6.7221323 0 0 0 2.489679,-0.486619 1.3127396,1.3127396 0 0 0 0.814804,-0.780853 18.80839,18.80839 0 0 0 1.663558,-8.102773 c -0.158434,-4.798289 -3.168682,-8.249889 -3.202632,-10.694301 -0.03395,-2.444412 0.860071,-4.266404 0.826121,-5.805478 a 2.6481127,2.6481127 0 0 0 -2.534946,-2.931031 2.6594294,2.6594294 0 0 0 -2.546262,2.931031 c 0,1.539074 0.860071,3.395016 0.82612,5.805478 -0.03395,2.410461 -3.0441975,5.896012 -3.2026316,10.694301 a 18.978141,18.978141 0 0 0 1.6069744,8.102773 1.3466898,1.3466898 0 0 0 0.7582203,0.75822 6.7900326,6.7900326 0 0 0 2.5009949,0.509252 z"
     id="path41"
     style="isolation:isolate;fill:url(#linear-gradient-16);stroke-width:1.13167" />
  <path
     class="cls-24"
     d="m 12.499762,43.908427 a 6.7221323,6.7221323 0 0 0 2.489679,-0.486619 1.3127396,1.3127396 0 0 0 0.814804,-0.780853 18.80839,18.80839 0 0 0 1.663558,-8.102773 c -0.158434,-4.798289 -3.168682,-8.249889 -3.202632,-10.694301 -0.03395,-2.444412 0.860071,-4.266404 0.826121,-5.805478 a 2.6481127,2.6481127 0 0 0 -2.534946,-2.931031 2.6594294,2.6594294 0 0 0 -2.546262,2.931031 c 0,1.539074 0.860071,3.395016 0.82612,5.805478 -0.03395,2.410461 -3.0441975,5.896012 -3.2026316,10.694301 a 18.978141,18.978141 0 0 0 1.6069744,8.102773 1.3466898,1.3466898 0 0 0 0.7582203,0.75822 6.7900326,6.7900326 0 0 0 2.5009949,0.509252 z"
     id="path42"
     style="isolation:isolate;fill:url(#linear-gradient-17);stroke-width:1.13167" />
  <path
     class="cls-8"
     d="m 10.904105,23.402529 a 10.049248,10.049248 0 0 1 0.0679,1.029821 4.4022045,4.4022045 0 0 1 -0.113167,0.905338 h 3.236582 a 4.4022045,4.4022045 0 0 1 -0.113167,-0.905338 7.6161532,7.6161532 0 0 1 0.0679,-1.029821 z"
     id="path43"
     style="isolation:isolate;stroke-width:1.13167" />
  <path
     class="cls-25"
     d="m 12.499762,43.908427 a 6.7221323,6.7221323 0 0 0 2.489679,-0.486619 1.3127396,1.3127396 0 0 0 0.814804,-0.780853 18.80839,18.80839 0 0 0 1.663558,-8.102773 c -0.158434,-4.798289 -3.168682,-8.249889 -3.202632,-10.694301 -0.03395,-2.444412 0.860071,-4.266404 0.826121,-5.805478 a 2.6481127,2.6481127 0 0 0 -2.534946,-2.931031 2.6594294,2.6594294 0 0 0 -2.546262,2.931031 c 0,1.539074 0.860071,3.395016 0.82612,5.805478 -0.03395,2.410461 -3.0441975,5.896012 -3.2026316,10.694301 a 18.978141,18.978141 0 0 0 1.6069744,8.102773 1.3466898,1.3466898 0 0 0 0.7582203,0.75822 6.7900326,6.7900326 0 0 0 2.5009949,0.509252 z"
     id="path44"
     style="isolation:isolate" />
  <path
     class="cls-26"
     d="m 12.465812,43.704726 a 3.2139488,3.2139488 0 0 0 1.584341,-0.463985 1.1316721,1.1316721 0 0 0 0.486619,-0.72427 25.74554,25.74554 0 0 0 1.075089,-7.797221 c -0.101851,-4.526689 -2.025693,-7.921705 -2.03701,-10.185049 -0.01132,-2.263344 0.543203,-3.768468 0.531886,-5.239642 a 2.7725966,2.7725966 0 0 0 -0.486619,-1.708825 c -0.226335,-0.282918 -1.131672,-0.441352 -1.131672,0.973238 v 25.111804"
     id="path45"
     style="isolation:isolate;fill:url(#linear-gradient-18);stroke-width:1.13167" />
  <path
     class="cls-27"
     d="m 10.655137,21.456053 a 5.0246241,5.0246241 0 0 1 0.712953,2.263344 c 0,1.606974 -0.16975,2.636796 -1.8672586,7.174801 A 15.651025,15.651025 0 0 0 10.315635,42.833339 3.8476851,3.8476851 0 0 0 11.356774,43.840527 7.1974346,7.1974346 0 0 1 10.225102,43.489709 1.3014229,1.3014229 0 0 1 9.5008314,42.765438 19.476077,19.476077 0 0 1 7.7127895,34.651349 C 7.8712236,30.124661 10.870155,26.582527 10.892788,24.251283 a 10.185049,10.185049 0 0 0 -0.192384,-2.79523"
     id="path46"
     style="isolation:isolate;fill:url(#linear-gradient-19);stroke-width:1.13167" />
  <path
     class="cls-28"
     d="m 13.348517,16.691713 a 1.3693232,1.3693232 0 0 0 -1.878576,-0.07922 2.2633442,2.2633442 0 0 0 -0.701637,1.595658 9.449462,9.449462 0 0 0 0.248968,2.659429 c 0,0 -0.294235,-1.41459 0.135801,-1.901209 0.430035,-0.486619 0.905337,-0.328185 1.131672,-1.233522 a 1.38064,1.38064 0 0 1 1.063772,-1.041139 z"
     id="path47"
     style="isolation:isolate;fill:url(#linear-gradient-20);stroke-width:1.13167" />
  <path
     class="cls-29"
     d="m 11.277557,27.929217 c -0.497936,0.07922 -1.3806404,2.365195 -1.5051243,3.983486 -0.1244839,1.618291 1.2901063,-0.848754 1.5277573,-1.539074 a 6.3034136,6.3034136 0 0 0 0.271601,-0.882704 c 0.02263,-0.305552 0.475303,-1.742775 -0.294234,-1.561708 z"
     id="path48"
     style="isolation:isolate;fill:url(#linear-gradient-21);stroke-width:1.13167" />
  <path
     class="cls-30"
     d="m 26.385379,43.908427 a 6.7900326,6.7900326 0 0 0 2.500995,-0.486619 1.3466898,1.3466898 0 0 0 0.758221,-0.75822 18.978141,18.978141 0 0 0 1.663558,-8.102772 c -0.158434,-4.79829 -3.179999,-8.24989 -3.202632,-10.694302 -0.02263,-2.444411 0.848754,-4.266403 0.82612,-5.805478 a 2.5688957,2.5688957 0 1 0 -5.081207,0 c 0,1.539075 0.86007,3.395017 0.82612,5.805478 -0.03395,2.410462 -3.044198,5.896012 -3.213948,10.694302 a 18.80839,18.80839 0 0 0 1.674874,8.080139 1.2901062,1.2901062 0 0 0 0.758221,0.75822 6.7221323,6.7221323 0 0 0 2.489678,0.509252 z"
     id="path49"
     style="isolation:isolate;fill:url(#linear-gradient-22);stroke-width:1.13167" />
  <path
     class="cls-31"
     d="m 26.385379,43.908427 a 6.7900326,6.7900326 0 0 0 2.500995,-0.486619 1.3466898,1.3466898 0 0 0 0.758221,-0.75822 18.978141,18.978141 0 0 0 1.663558,-8.102772 c -0.158434,-4.79829 -3.179999,-8.24989 -3.202632,-10.694302 -0.02263,-2.444411 0.848754,-4.266403 0.82612,-5.805478 a 2.5688957,2.5688957 0 1 0 -5.081207,0 c 0,1.539075 0.86007,3.395017 0.82612,5.805478 -0.03395,2.410462 -3.044198,5.896012 -3.213948,10.694302 a 18.80839,18.80839 0 0 0 1.674874,8.080139 1.2901062,1.2901062 0 0 0 0.758221,0.75822 6.7221323,6.7221323 0 0 0 2.489678,0.509252 z"
     id="path50"
     style="isolation:isolate;fill:url(#linear-gradient-23);stroke-width:1.13167" />
  <path
     class="cls-32"
     d="m 26.385379,43.908427 a 6.7900326,6.7900326 0 0 0 2.500995,-0.486619 1.3466898,1.3466898 0 0 0 0.758221,-0.75822 18.978141,18.978141 0 0 0 1.663558,-8.102772 c -0.158434,-4.79829 -3.179999,-8.24989 -3.202632,-10.694302 -0.02263,-2.444411 0.848754,-4.266403 0.82612,-5.805478 a 2.5688957,2.5688957 0 1 0 -5.081207,0 c 0,1.539075 0.86007,3.395017 0.82612,5.805478 -0.03395,2.410462 -3.044198,5.896012 -3.213948,10.694302 a 18.80839,18.80839 0 0 0 1.674874,8.080139 1.2901062,1.2901062 0 0 0 0.758221,0.75822 6.7221323,6.7221323 0 0 0 2.489678,0.509252 z"
     id="path51"
     style="isolation:isolate;fill:url(#linear-gradient-24);stroke-width:1.13167" />
  <path
     class="cls-8"
     d="m 28.320538,21.625804 h -3.859001 a 14.428819,14.428819 0 0 1 0.192384,1.44854 h 3.474233 a 11.758073,11.758073 0 0 1 0.192384,-1.44854 z"
     id="path52"
     style="isolation:isolate;stroke-width:1.13167" />
  <path
     class="cls-8"
     d="m 28.648723,26.039325 a 8.7478253,8.7478253 0 0 1 -0.452669,-1.44854 H 24.58602 a 7.9217047,7.9217047 0 0 1 -0.463985,1.44854 z"
     id="path53"
     style="isolation:isolate;stroke-width:1.13167" />
  <path
     class="cls-25"
     d="m 26.385379,43.908427 a 6.7900326,6.7900326 0 0 0 2.500995,-0.486619 1.3466898,1.3466898 0 0 0 0.758221,-0.75822 18.978141,18.978141 0 0 0 1.663558,-8.102772 c -0.158434,-4.79829 -3.179999,-8.24989 -3.202632,-10.694302 -0.02263,-2.444411 0.848754,-4.266403 0.82612,-5.805478 a 2.5688957,2.5688957 0 1 0 -5.081207,0 c 0,1.539075 0.86007,3.395017 0.82612,5.805478 -0.03395,2.410462 -3.044198,5.896012 -3.213948,10.694302 a 18.80839,18.80839 0 0 0 1.674874,8.080139 1.2901062,1.2901062 0 0 0 0.758221,0.75822 6.7221323,6.7221323 0 0 0 2.489678,0.509252 z"
     id="path54"
     style="isolation:isolate" />
  <path
     class="cls-33"
     d="m 26.351429,43.704726 a 3.2592156,3.2592156 0 0 0 1.595658,-0.463985 1.1995724,1.1995724 0 0 0 0.486619,-0.72427 26.243476,26.243476 0 0 0 1.063771,-7.797221 c -0.09053,-4.526689 -2.014376,-7.921705 -2.037009,-10.185049 -0.02263,-2.263344 0.554519,-3.768468 0.531886,-5.239642 A 2.7046963,2.7046963 0 0 0 27.517051,17.585734 C 27.2794,17.302816 26.385379,17.144382 26.385379,18.558972 v 25.111804"
     id="path55"
     style="isolation:isolate;fill:url(#linear-gradient-25);stroke-width:1.13167" />
  <path
     class="cls-34"
     d="m 24.55207,21.456053 a 5.0246241,5.0246241 0 0 1 0.712954,2.263344 c 0,1.606974 -0.181068,2.636796 -1.867259,7.174801 a 15.651025,15.651025 0 0 0 0.814804,11.939141 3.8476851,3.8476851 0 0 0 1.041138,1.007188 7.7519539,7.7519539 0 0 1 -1.188256,-0.350818 1.2787895,1.2787895 0 0 1 -0.712953,-0.724271 19.476077,19.476077 0 0 1 -1.788042,-8.114089 c 0.147117,-4.526688 3.146048,-8.068822 3.179999,-10.400066 a 11.090387,11.090387 0 0 0 -0.192385,-2.79523"
     id="path56"
     style="isolation:isolate;fill:url(#linear-gradient-26);stroke-width:1.13167" />
  <path
     class="cls-35"
     d="m 27.24545,16.691713 a 1.3693232,1.3693232 0 0 0 -1.878576,-0.07922 2.2633442,2.2633442 0 0 0 -0.701636,1.595658 9.7323801,9.7323801 0 0 0 0.192384,2.670746 c 0,0 -0.294235,-1.41459 0.1358,-1.901209 0.430036,-0.486619 0.916655,-0.328185 1.131673,-1.233523 A 1.4032734,1.4032734 0 0 1 27.24545,16.69171 Z"
     id="path57"
     style="isolation:isolate;fill:url(#linear-gradient-27);stroke-width:1.13167" />
  <path
     class="cls-36"
     d="m 25.117906,27.929217 c -0.497935,0.07922 -1.38064,2.365195 -1.51644,3.983486 -0.135801,1.618291 1.301423,-0.848754 1.539074,-1.539074 a 7.3106018,7.3106018 0 0 0 0.260284,-0.882704 c 0.07922,-0.305552 0.58847,-1.742775 -0.282918,-1.561708 z"
     id="path58"
     style="isolation:isolate;fill:url(#linear-gradient-28);stroke-width:1.13167" />
</svg>
