<?xml version="1.0" encoding="UTF-8" standalone="no"?>
<svg
   viewBox="0 0 48 48"
   version="1.1"
   id="svg16831"
   sodipodi:docname="sopcrowdimport.svg"
   inkscape:version="1.1 (c68e22c387, 2021-05-23)"
   xmlns:inkscape="http://www.inkscape.org/namespaces/inkscape"
   xmlns:sodipodi="http://sodipodi.sourceforge.net/DTD/sodipodi-0.dtd"
   xmlns:xlink="http://www.w3.org/1999/xlink"
   xmlns="http://www.w3.org/2000/svg"
   xmlns:svg="http://www.w3.org/2000/svg">
  <sodipodi:namedview
     id="namedview16833"
     pagecolor="#ffffff"
     bordercolor="#666666"
     borderopacity="1.0"
     inkscape:pageshadow="2"
     inkscape:pageopacity="0.0"
     inkscape:pagecheckerboard="0"
     showgrid="false"
     inkscape:zoom="15.6875"
     inkscape:cx="24"
     inkscape:cy="24"
     inkscape:window-width="2880"
     inkscape:window-height="1557"
     inkscape:window-x="-8"
     inkscape:window-y="-8"
     inkscape:window-maximized="1"
     inkscape:current-layer="svg16831" />
  <defs
     id="defs16487">
    <style
       id="style16345">.cls-1{isolation:isolate;}.cls-2{fill:url(#radial-gradient);}.cls-26,.cls-29,.cls-3,.cls-45,.cls-48,.cls-5,.cls-50,.cls-6,.cls-65{fill:none;}.cls-26,.cls-3{stroke:#888a85;}.cls-3,.cls-45,.cls-50{stroke-miterlimit:10;}.cls-29,.cls-3,.cls-6{stroke-width:1.4px;}.cls-4{fill:#a54402;}.cls-29,.cls-5{stroke:#a54402;}.cls-29,.cls-48,.cls-5,.cls-6,.cls-65{stroke-linecap:round;}.cls-26,.cls-29,.cls-48,.cls-5,.cls-6,.cls-65,.cls-66{stroke-linejoin:round;}.cls-26,.cls-5,.cls-65,.cls-66{stroke-width:0.7px;}.cls-6{stroke:#2e3436;}.cls-7{fill:url(#linear-gradient);}.cls-8{fill:url(#linear-gradient-2);}.cls-9{fill:url(#linear-gradient-3);}.cls-10{fill:url(#linear-gradient-4);}.cls-11,.cls-17{opacity:0.64;}.cls-11{fill:url(#linear-gradient-5);}.cls-12{fill:#ce5c00;}.cls-13{fill:url(#linear-gradient-6);}.cls-14{fill:url(#linear-gradient-7);}.cls-15{fill:url(#linear-gradient-8);}.cls-16{fill:url(#linear-gradient-9);}.cls-17{fill:url(#linear-gradient-10);}.cls-18{fill:#fcaf3e;}.cls-19{fill:url(#linear-gradient-11);}.cls-20{fill:url(#linear-gradient-12);}.cls-21{fill:url(#linear-gradient-13);}.cls-22{fill:url(#linear-gradient-14);}.cls-23{fill:#231f20;}.cls-24{fill:url(#linear-gradient-15);}.cls-25{fill:url(#linear-gradient-16);}.cls-27{fill:url(#linear-gradient-17);}.cls-28{fill:url(#linear-gradient-18);}.cls-30{fill:#f57900;}.cls-31{fill:url(#linear-gradient-19);}.cls-32{fill:url(#linear-gradient-20);}.cls-33{fill:url(#linear-gradient-21);}.cls-34{fill:url(#linear-gradient-22);}.cls-35{fill:url(#linear-gradient-23);}.cls-36{fill:url(#linear-gradient-24);}.cls-37{fill:url(#linear-gradient-25);}.cls-38{fill:url(#linear-gradient-26);}.cls-39{fill:url(#linear-gradient-27);}.cls-40{fill:url(#linear-gradient-28);}.cls-41,.cls-42,.cls-43{mix-blend-mode:multiply;}.cls-41{fill:url(#linear-gradient-29);}.cls-42{fill:url(#linear-gradient-30);}.cls-43{fill:url(#linear-gradient-31);}.cls-44{fill:url(#linear-gradient-32);}.cls-45,.cls-65{stroke:#d0dfef;}.cls-45,.cls-48,.cls-50{stroke-width:0.35px;}.cls-46,.cls-66{fill:#193774;}.cls-47{fill:url(#linear-gradient-33);}.cls-48,.cls-50{stroke:#608bc3;}.cls-49{fill:url(#linear-gradient-34);}.cls-51{fill:url(#linear-gradient-35);}.cls-52{fill:url(#linear-gradient-36);}.cls-53{fill:url(#linear-gradient-37);}.cls-54{fill:url(#linear-gradient-38);}.cls-55{fill:url(#linear-gradient-39);}.cls-56{fill:url(#linear-gradient-40);}.cls-57{fill:url(#linear-gradient-41);}.cls-58{fill:url(#linear-gradient-42);}.cls-59{fill:url(#linear-gradient-43);}.cls-60{fill:url(#New_Gradient_Swatch_13);}.cls-61{fill:url(#New_Gradient_Swatch_13-2);}.cls-62{fill:url(#linear-gradient-44);}.cls-63{fill:url(#New_Gradient_Swatch_13-3);}.cls-64{fill:#608bc3;}.cls-66{stroke:#285092;}.cls-67{fill:url(#linear-gradient-45);}.cls-68{fill:url(#linear-gradient-46);}.cls-69{fill:url(#linear-gradient-47);}.cls-70{fill:url(#linear-gradient-48);}.cls-71{fill:url(#linear-gradient-49);}.cls-72{fill:url(#linear-gradient-50);}.cls-73{fill:url(#New_Gradient_Swatch_13-4);}.cls-74{fill:url(#linear-gradient-51);}.cls-75{fill:url(#New_Gradient_Swatch_13-5);}.cls-76{fill:url(#linear-gradient-52);}.cls-77{fill:url(#linear-gradient-53);}.cls-78{fill:url(#linear-gradient-54);}.cls-79{fill:url(#linear-gradient-55);}.cls-80{fill:url(#linear-gradient-56);}.cls-81{fill:url(#New_Gradient_Swatch_13-6);}.cls-82{fill:url(#linear-gradient-57);}.cls-83{fill:url(#New_Gradient_Swatch_13-7);}.cls-84{fill:url(#linear-gradient-58);}.cls-85{fill:url(#linear-gradient-59);}.cls-86{fill:url(#linear-gradient-60);}.cls-87{fill:url(#linear-gradient-61);}.cls-88{fill:url(#linear-gradient-62);}.cls-89{fill:url(#linear-gradient-63);}.cls-90{fill:url(#linear-gradient-64);}</style>
    <radialGradient
       id="radial-gradient"
       cx="9.66"
       cy="21.23"
       r="24.63"
       gradientTransform="matrix(-0.14,0.94,-0.48,-0.27,34.55,27.15)"
       gradientUnits="userSpaceOnUse">
      <stop
         offset="0.22"
         stop-color="#212121"
         stop-opacity="0.5"
         id="stop16347" />
      <stop
         offset="0.93"
         stop-color="#212121"
         stop-opacity="0"
         id="stop16349" />
    </radialGradient>
    <linearGradient
       id="linear-gradient"
       x1="7.28"
       y1="24.94"
       x2="9.64"
       y2="31.42"
       gradientUnits="userSpaceOnUse">
      <stop
         offset="0"
         stop-color="#4c514e"
         id="stop16352" />
      <stop
         offset="0.26"
         stop-color="#666962"
         id="stop16354" />
      <stop
         offset="1"
         id="stop16356" />
    </linearGradient>
    <linearGradient
       id="linear-gradient-2"
       x1="7.12"
       y1="25.75"
       x2="7.12"
       y2="31.81"
       gradientTransform="translate(9.95 -0.73) rotate(19.38)"
       gradientUnits="userSpaceOnUse">
      <stop
         offset="0"
         stop-color="#555753"
         id="stop16359" />
      <stop
         offset="1"
         id="stop16361" />
    </linearGradient>
    <linearGradient
       id="linear-gradient-3"
       x1="7.12"
       y1="26.48"
       x2="7.12"
       y2="31.07"
       gradientTransform="translate(9.95 -0.73) rotate(19.38)"
       gradientUnits="userSpaceOnUse">
      <stop
         offset="0"
         stop-color="#fff"
         id="stop16364" />
      <stop
         offset="1"
         stop-color="#d3d7cf"
         id="stop16366" />
    </linearGradient>
    <linearGradient
       id="linear-gradient-4"
       x1="7.12"
       y1="27.22"
       x2="7.12"
       y2="30.33"
       gradientTransform="translate(9.95 -0.73) rotate(19.38)"
       gradientUnits="userSpaceOnUse">
      <stop
         offset="0"
         stop-color="#babdb6"
         id="stop16369" />
      <stop
         offset="1"
         stop-color="#555753"
         id="stop16371" />
    </linearGradient>
    <linearGradient
       id="linear-gradient-5"
       x1="7.12"
       y1="28.2"
       x2="7.12"
       y2="29.35"
       xlink:href="#linear-gradient-3" />
    <linearGradient
       id="linear-gradient-6"
       x1="23.44"
       y1="32.88"
       x2="25.79"
       y2="39.35"
       xlink:href="#linear-gradient" />
    <linearGradient
       id="linear-gradient-7"
       x1="23.28"
       y1="33.68"
       x2="23.28"
       y2="39.74"
       gradientTransform="rotate(19.38,23.265035,36.710668)"
       xlink:href="#linear-gradient-2" />
    <linearGradient
       id="linear-gradient-8"
       x1="23.28"
       y1="34.42"
       x2="23.28"
       y2="39.01"
       gradientTransform="rotate(19.38,23.265035,36.710668)"
       xlink:href="#linear-gradient-3" />
    <linearGradient
       id="linear-gradient-9"
       x1="23.28"
       y1="35.16"
       x2="23.28"
       y2="38.27"
       gradientTransform="rotate(19.38,23.265035,36.710668)"
       xlink:href="#linear-gradient-4" />
    <linearGradient
       id="linear-gradient-10"
       x1="23.28"
       y1="36.14"
       x2="23.28"
       y2="37.29"
       gradientTransform="rotate(19.38,23.265035,36.710668)"
       xlink:href="#linear-gradient-3" />
    <linearGradient
       id="linear-gradient-11"
       x1="12.49"
       y1="18.05"
       x2="11.38"
       y2="13.24"
       gradientUnits="userSpaceOnUse">
      <stop
         offset="0"
         stop-color="#fff"
         stop-opacity="0"
         id="stop16380" />
      <stop
         offset="1"
         stop-color="#fff8f8"
         id="stop16382" />
    </linearGradient>
    <linearGradient
       id="linear-gradient-12"
       x1="17.5"
       y1="21.87"
       x2="19.06"
       y2="16.77"
       xlink:href="#linear-gradient-11" />
    <linearGradient
       id="linear-gradient-13"
       x1="8.5"
       y1="20.09"
       x2="10.87"
       y2="43.93"
       gradientUnits="userSpaceOnUse">
      <stop
         offset="0"
         stop-color="#f57900"
         id="stop16386" />
      <stop
         offset="1"
         stop-color="#fcaf3e"
         id="stop16388" />
    </linearGradient>
    <linearGradient
       id="linear-gradient-14"
       x1="9.17"
       y1="26.46"
       x2="7.7"
       y2="19.27"
       xlink:href="#linear-gradient-13" />
    <linearGradient
       id="linear-gradient-15"
       x1="11.55"
       y1="24.11"
       x2="12.49"
       y2="34.13"
       xlink:href="#linear-gradient-11" />
    <linearGradient
       id="linear-gradient-16"
       x1="9.51"
       y1="27.57"
       x2="3.41"
       y2="18.54"
       xlink:href="#linear-gradient-11" />
    <linearGradient
       id="linear-gradient-17"
       x1="2.48"
       y1="21.9"
       x2="2.48"
       y2="25.12"
       gradientUnits="userSpaceOnUse">
      <stop
         offset="0"
         stop-color="#d3d7cf"
         id="stop16394" />
      <stop
         offset="1"
         stop-color="#555753"
         id="stop16396" />
    </linearGradient>
    <linearGradient
       id="linear-gradient-18"
       x1="12.02"
       y1="22.52"
       x2="10.27"
       y2="17.38"
       xlink:href="#linear-gradient-11" />
    <linearGradient
       id="linear-gradient-19"
       x1="25.6"
       y1="9.2"
       x2="22.25"
       y2="21.63"
       gradientUnits="userSpaceOnUse">
      <stop
         offset="0"
         stop-color="#fce94f"
         stop-opacity="0"
         id="stop16400" />
      <stop
         offset="1"
         stop-color="#f57900"
         id="stop16402" />
    </linearGradient>
    <linearGradient
       id="linear-gradient-20"
       x1="19.03"
       y1="30.46"
       x2="23.29"
       y2="18.5"
       gradientUnits="userSpaceOnUse">
      <stop
         offset="0"
         stop-color="#fcaf3e"
         stop-opacity="0"
         id="stop16405" />
      <stop
         offset="1"
         stop-color="#a54402"
         stop-opacity="0.9"
         id="stop16407" />
    </linearGradient>
    <linearGradient
       id="linear-gradient-21"
       x1="21.75"
       y1="17.41"
       x2="29.09"
       y2="-3.13"
       xlink:href="#linear-gradient-11" />
    <linearGradient
       id="linear-gradient-22"
       x1="30.61"
       y1="32.17"
       x2="37.02"
       y2="21.71"
       xlink:href="#linear-gradient-20" />
    <linearGradient
       id="linear-gradient-23"
       x1="28.73"
       y1="32.88"
       x2="32.69"
       y2="23.8"
       xlink:href="#linear-gradient-13" />
    <linearGradient
       id="linear-gradient-24"
       x1="36.75"
       y1="31.41"
       x2="36.71"
       y2="15.21"
       xlink:href="#linear-gradient-11" />
    <linearGradient
       id="linear-gradient-25"
       x1="45.77"
       y1="27.13"
       x2="16.73"
       y2="48.68"
       gradientUnits="userSpaceOnUse">
      <stop
         offset="0"
         stop-color="#f57900"
         id="stop16414" />
      <stop
         offset="1"
         stop-color="#a54402"
         id="stop16416" />
      <stop
         offset="1"
         stop-color="#fcaf3e"
         id="stop16418" />
    </linearGradient>
    <linearGradient
       id="linear-gradient-26"
       x1="21.23"
       y1="18.87"
       x2="20.77"
       y2="10.97"
       xlink:href="#linear-gradient-11" />
    <linearGradient
       id="linear-gradient-27"
       x1="43.66"
       y1="24.15"
       x2="45.03"
       y2="30.33"
       xlink:href="#linear-gradient-19" />
    <linearGradient
       id="linear-gradient-28"
       x1="2.87"
       y1="25.04"
       x2="1.88"
       y2="21.78"
       xlink:href="#linear-gradient-11" />
    <linearGradient
       id="linear-gradient-29"
       x1="30.06"
       y1="29.83"
       x2="24.98"
       y2="19.94"
       gradientUnits="userSpaceOnUse">
      <stop
         offset="0"
         stop-color="#8f5902"
         stop-opacity="0"
         id="stop16424" />
      <stop
         offset="1"
         stop-color="#8f5902"
         id="stop16426" />
    </linearGradient>
    <linearGradient
       id="linear-gradient-30"
       x1="35.1"
       y1="32.29"
       x2="30.02"
       y2="22.39"
       xlink:href="#linear-gradient-29" />
    <linearGradient
       id="linear-gradient-31"
       x1="39.29"
       y1="32.26"
       x2="25.18"
       y2="20.64"
       xlink:href="#linear-gradient-29" />
    <linearGradient
       id="linear-gradient-32"
       x1="46.82"
       y1="24.91"
       x2="45.61"
       y2="25.96"
       gradientTransform="translate(6.89 -8.07) rotate(12.82)"
       gradientUnits="userSpaceOnUse">
      <stop
         offset="0"
         stop-color="#a2bede"
         id="stop16431" />
      <stop
         offset="1"
         stop-color="#285092"
         id="stop16433" />
    </linearGradient>
    <linearGradient
       id="linear-gradient-33"
       x1="45.7"
       y1="25.42"
       x2="42.66"
       y2="25.8"
       gradientTransform="translate(6.89 -8.07) rotate(12.82)"
       gradientUnits="userSpaceOnUse">
      <stop
         offset="0"
         stop-color="#00255d"
         stop-opacity="0"
         id="stop16436" />
      <stop
         offset="1"
         stop-color="#00255d"
         id="stop16438" />
    </linearGradient>
    <linearGradient
       id="linear-gradient-34"
       x1="42.38"
       y1="35.65"
       x2="41.67"
       y2="32.82"
       xlink:href="#linear-gradient-33" />
    <linearGradient
       id="linear-gradient-35"
       x1="40.05"
       y1="37.79"
       x2="40.93"
       y2="31.18"
       xlink:href="#linear-gradient-33" />
    <linearGradient
       id="linear-gradient-36"
       x1="24.5"
       y1="17.16"
       x2="24.28"
       y2="15.56"
       gradientTransform="matrix(-0.9,0.44,0.44,0.9,43.47,-10.28)"
       xlink:href="#linear-gradient-32" />
    <linearGradient
       id="linear-gradient-37"
       x1="29.25"
       y1="14.99"
       x2="28.28"
       y2="12.58"
       xlink:href="#linear-gradient-33" />
    <linearGradient
       id="linear-gradient-38"
       x1="27.04"
       y1="6.49"
       x2="25.11"
       y2="6.66"
       gradientTransform="rotate(10.46,-0.53570671,17.014149)"
       xlink:href="#linear-gradient-33" />
    <linearGradient
       id="linear-gradient-39"
       x1="30.28"
       y1="20.65"
       x2="27.55"
       y2="19.3"
       xlink:href="#linear-gradient-33" />
    <linearGradient
       id="linear-gradient-40"
       x1="27.05"
       y1="17.1"
       x2="24.14"
       y2="15.05"
       xlink:href="#linear-gradient-33" />
    <linearGradient
       id="linear-gradient-41"
       x1="24.14"
       y1="4.47"
       x2="26.56"
       y2="9.21"
       gradientTransform="rotate(-3.17,109.7007,-23.728256)"
       xlink:href="#linear-gradient-33" />
    <linearGradient
       id="linear-gradient-42"
       x1="25.46"
       y1="13.5"
       x2="24.8"
       y2="11.85"
       xlink:href="#linear-gradient-33" />
    <linearGradient
       id="linear-gradient-43"
       x1="23.13"
       y1="6.49"
       x2="22.09"
       y2="5.97"
       gradientTransform="rotate(-3.17,109.7007,-23.728256)"
       xlink:href="#linear-gradient-33" />
    <linearGradient
       id="New_Gradient_Swatch_13"
       x1="21.6"
       y1="3.03"
       x2="26.83"
       y2="3.03"
       gradientTransform="translate(1.48 6.03) rotate(-3.17)"
       gradientUnits="userSpaceOnUse">
      <stop
         offset="0"
         stop-color="#608bc3"
         id="stop16451" />
      <stop
         offset="1"
         stop-color="#285092"
         id="stop16453" />
    </linearGradient>
    <linearGradient
       id="New_Gradient_Swatch_13-2"
       x1="20.9"
       y1="1.6"
       x2="25.4"
       y2="3.73"
       xlink:href="#New_Gradient_Swatch_13" />
    <linearGradient
       id="linear-gradient-44"
       x1="24.48"
       y1="17.23"
       x2="24.23"
       y2="15.34"
       gradientTransform="rotate(-3.65,22.340561,18.619068)"
       xlink:href="#linear-gradient-32" />
    <linearGradient
       id="New_Gradient_Swatch_13-3"
       x1="19.46"
       y1="6.13"
       x2="23.92"
       y2="8.25"
       gradientTransform="rotate(-14.75,39.906055,1.5124259)"
       xlink:href="#New_Gradient_Swatch_13" />
    <linearGradient
       id="linear-gradient-45"
       x1="26.38"
       y1="6.79"
       x2="28.18"
       y2="6.79"
       gradientTransform="matrix(1,-0.08,0.08,1,-1.31,2)"
       xlink:href="#linear-gradient-32" />
    <linearGradient
       id="linear-gradient-46"
       x1="26.73"
       y1="8.57"
       x2="29.06"
       y2="1.49"
       gradientTransform="matrix(1,-0.08,0.08,1,-1.31,2)"
       xlink:href="#linear-gradient-33" />
    <linearGradient
       id="linear-gradient-47"
       x1="27.14"
       y1="5.39"
       x2="29.21"
       y2="5.5"
       gradientTransform="matrix(1,-0.08,0.08,1,-1.31,2)"
       xlink:href="#linear-gradient-32" />
    <linearGradient
       id="linear-gradient-48"
       x1="27.09"
       y1="2.29"
       x2="27.83"
       y2="5.25"
       gradientTransform="matrix(1,-0.08,0.08,1,-1.31,2)"
       xlink:href="#linear-gradient-32" />
    <linearGradient
       id="linear-gradient-49"
       x1="19.23"
       y1="23.53"
       x2="19.01"
       y2="21.88"
       gradientTransform="matrix(-0.92,0.4,0.4,0.92,45.45,-9.8)"
       xlink:href="#linear-gradient-32" />
    <linearGradient
       id="linear-gradient-50"
       x1="35.02"
       y1="12.49"
       x2="35.53"
       y2="16.38"
       gradientTransform="rotate(3.23,34.199795,29.562365)"
       xlink:href="#linear-gradient-33" />
    <linearGradient
       id="New_Gradient_Swatch_13-4"
       x1="33.64"
       y1="9.52"
       x2="40.21"
       y2="17.65"
       xlink:href="#New_Gradient_Swatch_13" />
    <linearGradient
       id="linear-gradient-51"
       x1="31.77"
       y1="24.42"
       x2="31.51"
       y2="22.5"
       gradientTransform="matrix(0.14,0.99,0.99,0.09,10.89,-15.56)"
       xlink:href="#linear-gradient-32" />
    <linearGradient
       id="New_Gradient_Swatch_13-5"
       x1="31.86"
       y1="10.96"
       x2="38.44"
       y2="19.09"
       xlink:href="#New_Gradient_Swatch_13" />
    <linearGradient
       id="linear-gradient-52"
       x1="35.63"
       y1="11.02"
       x2="37.49"
       y2="11.02"
       gradientTransform="matrix(0.95,0.31,-0.31,0.95,6.18,-10.42)"
       xlink:href="#linear-gradient-32" />
    <linearGradient
       id="linear-gradient-53"
       x1="35.99"
       y1="12.87"
       x2="38.4"
       y2="5.55"
       gradientTransform="matrix(0.95,0.31,-0.31,0.95,6.18,-10.42)"
       xlink:href="#linear-gradient-33" />
    <linearGradient
       id="linear-gradient-54"
       x1="36.42"
       y1="9.57"
       x2="38.56"
       y2="9.69"
       gradientTransform="matrix(0.95,0.31,-0.31,0.95,6.18,-10.42)"
       xlink:href="#linear-gradient-32" />
    <linearGradient
       id="linear-gradient-55"
       x1="36.37"
       y1="6.37"
       x2="37.13"
       y2="9.43"
       gradientTransform="matrix(0.95,0.31,-0.31,0.95,6.18,-10.42)"
       xlink:href="#linear-gradient-32" />
    <linearGradient
       id="linear-gradient-56"
       x1="40.36"
       y1="24.87"
       x2="40.84"
       y2="28.5"
       gradientTransform="rotate(6.85,39.339719,26.906793)"
       xlink:href="#linear-gradient-33" />
    <linearGradient
       id="New_Gradient_Swatch_13-6"
       x1="38.69"
       y1="22.96"
       x2="42.04"
       y2="26.27"
       xlink:href="#New_Gradient_Swatch_13" />
    <linearGradient
       id="linear-gradient-57"
       x1="41.29"
       y1="29.53"
       x2="41.03"
       y2="27.6"
       gradientTransform="matrix(-0.45,0.91,0.76,0.67,34.84,-24.45)"
       xlink:href="#linear-gradient-32" />
    <linearGradient
       id="New_Gradient_Swatch_13-7"
       x1="35.8"
       y1="25.58"
       x2="39.9"
       y2="29.63"
       xlink:href="#New_Gradient_Swatch_13" />
    <linearGradient
       id="linear-gradient-58"
       x1="28.91"
       y1="23.59"
       x2="14.05"
       y2="30.64"
       gradientUnits="userSpaceOnUse">
      <stop
         offset="0"
         stop-color="#f57900"
         stop-opacity="0"
         id="stop16476" />
      <stop
         offset="1"
         stop-color="#ce5c00"
         id="stop16478" />
    </linearGradient>
    <linearGradient
       id="linear-gradient-59"
       x1="24.82"
       y1="37.15"
       x2="24.78"
       y2="20.95"
       xlink:href="#linear-gradient-11" />
    <linearGradient
       id="linear-gradient-60"
       x1="31.73"
       y1="29.89"
       x2="33.11"
       y2="36.07"
       xlink:href="#linear-gradient-19" />
    <linearGradient
       id="linear-gradient-61"
       x1="44.94"
       y1="23.45"
       x2="46.8"
       y2="23.45"
       gradientTransform="rotate(24.32,42.826654,15.296376)"
       xlink:href="#linear-gradient-32" />
    <linearGradient
       id="linear-gradient-62"
       x1="45.3"
       y1="25.3"
       x2="47.71"
       y2="17.98"
       gradientTransform="rotate(24.32,42.826654,15.296376)"
       xlink:href="#linear-gradient-33" />
    <linearGradient
       id="linear-gradient-63"
       x1="45.73"
       y1="22.01"
       x2="47.87"
       y2="22.12"
       gradientTransform="rotate(24.32,42.826654,15.296376)"
       xlink:href="#linear-gradient-32" />
    <linearGradient
       id="linear-gradient-64"
       x1="45.68"
       y1="18.8"
       x2="46.44"
       y2="21.86"
       gradientTransform="rotate(24.32,42.826654,15.296376)"
       xlink:href="#linear-gradient-32" />
    <linearGradient
       inkscape:collect="always"
       xlink:href="#linear-gradient"
       id="linearGradient16892"
       gradientUnits="userSpaceOnUse"
       x1="7.28"
       y1="24.94"
       x2="9.64"
       y2="31.42" />
    <linearGradient
       inkscape:collect="always"
       xlink:href="#linear-gradient-2"
       id="linearGradient16894"
       gradientUnits="userSpaceOnUse"
       gradientTransform="rotate(19.38,7.1125843,28.770566)"
       x1="7.12"
       y1="25.75"
       x2="7.12"
       y2="31.81" />
    <linearGradient
       inkscape:collect="always"
       xlink:href="#linear-gradient-3"
       id="linearGradient16896"
       gradientUnits="userSpaceOnUse"
       gradientTransform="rotate(19.38,7.1125843,28.770566)"
       x1="7.12"
       y1="26.48"
       x2="7.12"
       y2="31.07" />
    <linearGradient
       inkscape:collect="always"
       xlink:href="#linear-gradient-4"
       id="linearGradient16898"
       gradientUnits="userSpaceOnUse"
       gradientTransform="rotate(19.38,7.1125843,28.770566)"
       x1="7.12"
       y1="27.22"
       x2="7.12"
       y2="30.33" />
    <linearGradient
       inkscape:collect="always"
       xlink:href="#linear-gradient-11"
       id="linearGradient16900"
       gradientUnits="userSpaceOnUse"
       x1="12.49"
       y1="18.05"
       x2="11.38"
       y2="13.24" />
    <linearGradient
       inkscape:collect="always"
       xlink:href="#linear-gradient-13"
       id="linearGradient16902"
       gradientUnits="userSpaceOnUse"
       x1="8.5"
       y1="20.09"
       x2="10.87"
       y2="43.93" />
    <linearGradient
       inkscape:collect="always"
       xlink:href="#linear-gradient-19"
       id="linearGradient16904"
       gradientUnits="userSpaceOnUse"
       x1="25.6"
       y1="9.2"
       x2="22.25"
       y2="21.63" />
    <linearGradient
       inkscape:collect="always"
       xlink:href="#linear-gradient-20"
       id="linearGradient16906"
       gradientUnits="userSpaceOnUse"
       x1="19.03"
       y1="30.46"
       x2="23.29"
       y2="18.5" />
    <linearGradient
       inkscape:collect="always"
       xlink:href="#linear-gradient-29"
       id="linearGradient16908"
       gradientUnits="userSpaceOnUse"
       x1="30.06"
       y1="29.83"
       x2="24.98"
       y2="19.94" />
    <linearGradient
       inkscape:collect="always"
       xlink:href="#linear-gradient-32"
       id="linearGradient16910"
       gradientUnits="userSpaceOnUse"
       gradientTransform="rotate(12.82,39.361246,26.629552)"
       x1="46.82"
       y1="24.91"
       x2="45.61"
       y2="25.96" />
    <linearGradient
       inkscape:collect="always"
       xlink:href="#linear-gradient-33"
       id="linearGradient16912"
       gradientUnits="userSpaceOnUse"
       gradientTransform="rotate(12.82,39.361246,26.629552)"
       x1="45.7"
       y1="25.42"
       x2="42.66"
       y2="25.8" />
    <linearGradient
       inkscape:collect="always"
       xlink:href="#New_Gradient_Swatch_13"
       id="linearGradient16914"
       gradientUnits="userSpaceOnUse"
       gradientTransform="rotate(-3.17,109.7007,-23.728256)"
       x1="21.6"
       y1="3.03"
       x2="26.83"
       y2="3.03" />
  </defs>
  <g
     class="cls-1"
     id="g16829"
     transform="matrix(1.0242012,0,0,1.0242206,-0.24562175,-0.78205454)"
     style="stroke-width:0.976361">
    <g
       id="shadow"
       style="stroke-width:0.976361">
      <ellipse
         class="cls-2"
         cx="23.09"
         cy="30.49"
         rx="11.8"
         ry="23.17"
         transform="rotate(-78.69,23.086912,30.491296)"
         id="ellipse16489"
         style="fill:url(#radial-gradient);stroke-width:0.976361" />
      <path
         class="cls-3"
         d="m 2,21.9 a 0.76,0.76 0 0 0 -0.42,0.68 c 0.06,0.45 0.25,1.45 0.3,1.71 0.05,0.26 0.5,0.38 0.77,0.51 l 0.63,0.3 A 0.12,0.12 0 0 0 3.42,25 L 3.22,23.63 A 0.89,0.89 0 0 0 2.71,22.94 L 2.24,22.71 C 2.07,22.6 1.9,22.34 2,21.9 Z"
         id="path16491" />
      <polygon
         class="cls-4"
         points="36.24,27.27 27.95,31.27 27.95,37.87 36.24,33.88 "
         id="polygon16493"
         style="stroke-width:0.976361" />
      <polygon
         class="cls-5"
         points="36.24,27.27 27.95,31.27 27.95,37.87 36.24,33.88 "
         id="polygon16495" />
      <polygon
         class="cls-4"
         points="4.16,26.17 12.45,22.18 12.45,16.84 4.16,20.83 3.8,25.01 "
         id="polygon16497"
         style="stroke-width:0.976361" />
      <polygon
         class="cls-5"
         points="4.16,26.17 12.45,22.18 12.45,16.84 4.16,20.83 3.8,25.01 "
         id="polygon16499" />
      <path
         class="cls-6"
         d="M 8.93,25 C 8.84,25 8.75,24.94 8.68,24.9 H 8.57 8.47 a 3,3 0 0 0 -1.58,0.18 2.67,2.67 0 0 0 -1.57,1.47 3,3 0 0 0 -0.24,1.24 4.51,4.51 0 0 0 2,3.85 1.74,1.74 0 0 0 0.4,0.14 h 0.05 a 2.94,2.94 0 0 0 1.86,-0.32 2.76,2.76 0 0 0 0.74,-0.54 c 0.09,-0.1 0.18,-0.2 0.27,-0.32 a 2.34,2.34 0 0 0 0.26,-0.43 1.77,1.77 0 0 0 0.15,-0.38 3.12,3.12 0 0 0 0.12,-0.91 4.56,4.56 0 0 0 -2,-3.88 z"
         id="path16501" />
      <path
         class="cls-7"
         d="m 10.7,30.18 a 1.66,1.66 0 0 0 0.15,-0.39 3,3 0 0 0 0.12,-0.9 4.56,4.56 0 0 0 -2,-3.85 c -0.09,0 -0.18,-0.06 -0.25,-0.1 H 8.61 8.51 A 3,3 0 0 0 6.93,25.12 2.67,2.67 0 0 0 5.36,26.59 L 6.46,26 H 7 a 3.34,3.34 0 0 0 -0.11,0.87 4.8,4.8 0 0 0 1.66,3.62 l -0.64,0.23 0.21,0.71 -0.6,0.3 a 2.94,2.94 0 0 0 1.91,-0.31 2.76,2.76 0 0 0 0.74,-0.54 l 0.27,-0.32 a 2.34,2.34 0 0 0 0.26,-0.38 z"
         id="path16503"
         style="fill:url(#linearGradient16892);stroke-width:0.976361" />
      <ellipse
         class="cls-8"
         cx="7.1199999"
         cy="28.780001"
         rx="1.86"
         ry="3.1400001"
         transform="rotate(-19.38,7.1085085,28.788008)"
         id="ellipse16505"
         style="fill:url(#linearGradient16894);stroke-width:0.976361" />
      <ellipse
         class="cls-9"
         cx="7.1199999"
         cy="28.780001"
         rx="1.41"
         ry="2.3800001"
         transform="rotate(-19.38,7.1085085,28.788008)"
         id="ellipse16507"
         style="fill:url(#linearGradient16896);stroke-width:0.976361" />
      <ellipse
         class="cls-10"
         cx="7.1199999"
         cy="28.780001"
         rx="0.95999998"
         ry="1.61"
         transform="rotate(-19.38,7.1085085,28.788008)"
         id="ellipse16509"
         style="fill:url(#linearGradient16898);stroke-width:0.976361" />
      <ellipse
         class="cls-11"
         cx="7.1199999"
         cy="28.780001"
         rx="0.34999999"
         ry="0.60000002"
         transform="rotate(-19.38,7.1085085,28.788008)"
         id="ellipse16511"
         style="fill:url(#linear-gradient-5);stroke-width:0.976361" />
      <polygon
         class="cls-4"
         points="22.79,15.42 14.5,19.41 14.5,31.15 22.79,27.17 "
         id="polygon16513"
         style="stroke-width:0.976361" />
      <polygon
         class="cls-5"
         points="22.79,15.42 14.5,19.41 14.5,31.15 22.79,27.17 "
         id="polygon16515" />
      <path
         class="cls-12"
         d="m 17.28,27 v 2.84 l 3.13,1.51 2.91,3.07 3.63,3 1,0.49 v -6.64 z"
         id="path16517"
         style="stroke-width:0.976361" />
      <path
         class="cls-5"
         d="m 17.28,27 v 2.84 l 3.13,1.51 2.91,3.07 3.63,3 1,0.49 v -6.64 z"
         id="path16519" />
      <path
         class="cls-6"
         d="m 25.08,33 a 1.63,1.63 0 0 0 -0.25,-0.1 h -0.1 -0.1 a 2.86,2.86 0 0 0 -1.58,0.18 2.61,2.61 0 0 0 -1.57,1.47 2.85,2.85 0 0 0 -0.25,1.24 4.54,4.54 0 0 0 2.05,3.85 2.12,2.12 0 0 0 0.4,0.14 h 0.05 a 2.9,2.9 0 0 0 1.85,-0.32 2.63,2.63 0 0 0 0.74,-0.53 2.69,2.69 0 0 0 0.27,-0.32 3.87,3.87 0 0 0 0.27,-0.43 3.12,3.12 0 0 0 0.15,-0.39 3.05,3.05 0 0 0 0.12,-0.9 A 4.52,4.52 0 0 0 25.08,33 Z"
         id="path16521" />
      <path
         class="cls-13"
         d="M 26.86,38.12 A 3.12,3.12 0 0 0 27.01,37.73 3.07,3.07 0 0 0 27.13,36.82 4.51,4.51 0 0 0 25.08,33 1.63,1.63 0 0 0 24.83,32.9 h -0.1 -0.1 a 3,3 0 0 0 -1.58,0.19 2.59,2.59 0 0 0 -1.57,1.47 l 1.14,-0.55 h 0.54 a 3.34,3.34 0 0 0 -0.12,0.88 4.77,4.77 0 0 0 1.67,3.61 l -0.64,0.23 0.21,0.71 -0.6,0.3 a 2.86,2.86 0 0 0 1.9,-0.31 2.63,2.63 0 0 0 0.74,-0.53 2.69,2.69 0 0 0 0.27,-0.32 3.87,3.87 0 0 0 0.27,-0.46 z"
         id="path16523"
         style="fill:url(#linear-gradient-6);stroke-width:0.976361" />
      <ellipse
         class="cls-14"
         cx="23.280001"
         cy="36.709999"
         rx="1.86"
         ry="3.1400001"
         transform="rotate(-19.38,23.266337,36.700226)"
         id="ellipse16525"
         style="fill:url(#linear-gradient-7);stroke-width:0.976361" />
      <ellipse
         class="cls-15"
         cx="23.280001"
         cy="36.709999"
         rx="1.41"
         ry="2.3800001"
         transform="rotate(-19.38,23.266337,36.700226)"
         id="ellipse16527"
         style="fill:url(#linear-gradient-8);stroke-width:0.976361" />
      <ellipse
         class="cls-16"
         cx="23.280001"
         cy="36.709999"
         rx="0.95999998"
         ry="1.61"
         transform="rotate(-19.38,23.266337,36.700226)"
         id="ellipse16529"
         style="fill:url(#linear-gradient-9);stroke-width:0.976361" />
      <ellipse
         class="cls-17"
         cx="23.280001"
         cy="36.709999"
         rx="0.34999999"
         ry="0.60000002"
         transform="rotate(-19.38,23.266337,36.700226)"
         id="ellipse16531"
         style="fill:url(#linear-gradient-10);stroke-width:0.976361" />
      <path
         class="cls-18"
         d="M 21.42,15.06 8.63,21.23 3.16,19.33 a 0.39,0.39 0 0 1 0.11,-0.12 56.55,56.55 0 0 1 6.65,-3.71 55.71,55.71 0 0 1 5.93,-2.33 1.66,1.66 0 0 1 1.16,0.06 z"
         id="path16533"
         style="stroke-width:0.976361" />
      <path
         class="cls-19"
         d="M 21.42,15.06 8.63,21.23 3.16,19.33 a 0.39,0.39 0 0 1 0.11,-0.12 56.55,56.55 0 0 1 6.65,-3.71 55.71,55.71 0 0 1 5.93,-2.33 1.66,1.66 0 0 1 1.16,0.06 z"
         id="path16535"
         style="fill:url(#linearGradient16900);stroke-width:0.976361" />
      <path
         class="cls-5"
         d="M 21.42,15.06 8.63,21.23 3.16,19.33 a 0.39,0.39 0 0 1 0.11,-0.12 56.55,56.55 0 0 1 6.65,-3.71 55.71,55.71 0 0 1 5.93,-2.33 1.66,1.66 0 0 1 1.16,0.06 z"
         id="path16537" />
      <path
         class="cls-18"
         d="m 27.3,13.25 v 0 L 23.48,11.4 v 0 a 0.5,0.5 0 0 0 -0.43,0 v 0 l -12.82,6.15 0.17,0.14 0.29,-0.12 3.82,1.84 8,-3.84 4.79,2.33 z"
         id="path16539"
         style="stroke-width:0.976361" />
      <path
         class="cls-20"
         d="m 27.3,13.25 v 0 L 23.48,11.4 v 0 a 0.5,0.5 0 0 0 -0.43,0 v 0 l -12.82,6.15 0.17,0.14 0.29,-0.12 3.82,1.84 8,-3.84 4.79,2.33 z"
         id="path16541"
         style="fill:url(#linear-gradient-12);stroke-width:0.976361" />
      <path
         class="cls-5"
         d="m 27.3,13.25 v 0 L 23.48,11.4 v 0 a 0.5,0.5 0 0 0 -0.43,0 v 0 l -12.82,6.15 0.17,0.14 0.29,-0.12 3.82,1.84 8,-3.84 4.79,2.33 z"
         id="path16543" />
      <path
         class="cls-21"
         d="m 10.69,17.57 a 0.49,0.49 0 0 0 -0.71,0.29 l -1.35,3.37 v 0 L 3.69,19.17 a 0.44,0.44 0 0 0 -0.53,0.16 l -0.53,0.79 a 0.87,0.87 0 0 0 -0.14,0.61 l 0.63,4.93 1,0.51 A 8.58,8.58 0 0 1 4.18,23.56 0.37,0.37 0 0 1 4.7,23.33 l 3,1.44 a 2,2 0 0 1 1,1 8.62,8.62 0 0 1 0.61,2.38 1,1 0 0 0 0.54,0.75 l 4.63,2.23 V 19.41 Z"
         id="path16545"
         style="fill:url(#linearGradient16902);stroke-width:0.976361" />
      <path
         class="cls-22"
         d="M 14.19,23.9 A 13.44,13.44 0 0 0 11.13,23.1 8.23,8.23 0 0 1 8.32,22.94 v 0 L 7.96,22.77 v 0 l -4.57,-2.2 c -0.5,-0.28 -0.79,0 -0.76,0.75 L 2.55,20.76 a 0.88,0.88 0 0 1 0.14,-0.61 l 0.53,-0.79 v 0 l 0.05,-0.05 0.09,-0.06 a 0.42,0.42 0 0 1 0.35,0 l 5,2.06 z"
         id="path16547"
         style="fill:url(#linear-gradient-14);stroke-width:0.976361" />
      <path
         class="cls-23"
         d="m 13.38,20.27 v 3.14 l -3.8,-1.84 1,-2.31 a 0.27,0.27 0 0 1 0.39,-0.16 z"
         id="path16549"
         style="stroke-width:0.976361" />
      <path
         class="cls-5"
         d="m 10.69,17.57 a 0.49,0.49 0 0 0 -0.71,0.29 l -1.35,3.37 v 0 L 3.69,19.17 a 0.44,0.44 0 0 0 -0.53,0.16 l -0.53,0.79 a 0.87,0.87 0 0 0 -0.14,0.61 l 0.63,4.93 1,0.51 A 8.58,8.58 0 0 1 4.18,23.56 0.37,0.37 0 0 1 4.7,23.33 l 3,1.44 a 2,2 0 0 1 1,1 8.62,8.62 0 0 1 0.61,2.38 1,1 0 0 0 0.54,0.75 l 4.63,2.23 V 19.41 Z"
         id="path16551" />
      <polygon
         class="cls-4"
         points="15.15,24.37 15.53,26.42 14.51,25.93 14.51,24.05 "
         id="polygon16553"
         style="stroke-width:0.976361" />
      <path
         class="cls-24"
         d="m 13.2,29.61 -2.68,-1.29 a 0.83,0.83 0 0 1 -0.33,-0.84 c 0,0.26 0.23,0.38 0.45,0.49 l 2.49,1.19 a 1.14,1.14 0 0 0 0.27,0.11 0.45,0.45 0 0 0 0.33,-0.06 c 0,0 0,0.3 -0.15,0.38 a 0.4,0.4 0 0 1 -0.38,0.02 z"
         id="path16555"
         style="fill:url(#linear-gradient-15);stroke-width:0.976361" />
      <path
         class="cls-25"
         d="m 4.1,22.58 c 0.15,-0.73 0.55,-0.89 0.79,-0.77 l 3.53,1.7 a 1.93,1.93 0 0 1 1.09,1.18 2.51,2.51 0 0 1 0.11,0.79 3.13,3.13 0 0 0 -1.4,-1.54 L 4.87,22.33 A 0.55,0.55 0 0 0 4.1,22.58"
         id="path16557"
         style="fill:url(#linear-gradient-16);stroke-width:0.976361" />
      <path
         class="cls-26"
         d="m 2,21.9 a 0.76,0.76 0 0 0 -0.42,0.68 c 0.06,0.45 0.25,1.45 0.3,1.71 0.05,0.26 0.5,0.38 0.77,0.51 l 0.63,0.3 A 0.12,0.12 0 0 0 3.42,25 L 3.22,23.63 A 0.89,0.89 0 0 0 2.71,22.94 L 2.24,22.71 C 2.07,22.6 1.9,22.34 2,21.9 Z"
         id="path16559" />
      <path
         class="cls-27"
         d="m 2,21.9 a 0.76,0.76 0 0 0 -0.42,0.68 c 0.06,0.45 0.25,1.45 0.3,1.71 0.05,0.26 0.5,0.38 0.77,0.51 l 0.63,0.3 A 0.12,0.12 0 0 0 3.42,25 L 3.22,23.63 A 0.89,0.89 0 0 0 2.71,22.94 L 2.24,22.71 C 2.07,22.6 1.9,22.34 2,21.9 Z"
         id="path16561"
         style="fill:url(#linear-gradient-17);stroke-width:0.976361" />
      <path
         class="cls-28"
         d="m 13.38,20.27 v 0.38 a 1,1 0 0 0 -0.87,0.34 c -0.48,0.41 -0.87,0.38 -1.54,0.16 -0.67,-0.22 -0.87,0.44 -1,0.64 l -0.44,-0.22 1,-2.31 a 0.27,0.27 0 0 1 0.39,-0.16 z"
         id="path16563"
         style="fill:url(#linear-gradient-18);stroke-width:0.976361" />
      <path
         class="cls-29"
         d="m 43.55,23.54 -4.71,-3.79 a 1.86,1.86 0 0 0 -0.43,-0.28 l -9.13,-4.4 v 0 -1.16 l -1.17,-2.22 -1.24,-0.6 a 1.61,1.61 0 0 0 -1.39,0 L 14,16.62 c -0.41,0.19 -0.63,0.43 -0.63,0.68 v 0.37 a 0.72,0.72 0 0 0 0.4,0.64 l 1.18,0.57 0.68,1.27 v 7.91 l 0.85,0.41 v 0 L 32.22,36.05 45,29.89 v -3 a 4.49,4.49 0 0 0 -1.45,-3.35 z"
         id="path16565" />
      <polygon
         class="cls-30"
         points="29.28,15.07 29.28,13.91 16.49,20.07 16.49,21.24 17.36,20.82 17.36,27.21 28.42,21.64 28.42,15.49 "
         id="polygon16567"
         style="stroke-width:0.976361" />
      <polygon
         class="cls-31"
         points="29.28,15.07 29.28,13.91 16.49,20.07 16.49,21.24 17.36,20.82 17.36,27.21 28.42,21.64 28.42,15.49 "
         id="polygon16569"
         style="fill:url(#linearGradient16904);stroke-width:0.976361" />
      <polygon
         class="cls-32"
         points="29.28,15.07 29.28,13.91 16.49,20.07 16.49,21.24 17.36,20.82 17.36,27.21 28.42,21.64 28.42,15.49 "
         id="polygon16571"
         style="fill:url(#linearGradient16906);stroke-width:0.976361" />
      <polygon
         class="cls-18"
         points="15.31,17.85 16.49,20.07 29.28,13.91 28.11,11.69 "
         id="polygon16573"
         style="stroke-width:0.976361" />
      <polygon
         class="cls-33"
         points="15.31,17.85 16.49,20.07 29.28,13.91 28.11,11.69 "
         id="polygon16575"
         style="fill:url(#linear-gradient-21);stroke-width:0.976361" />
      <path
         class="cls-12"
         d="m 28.42,22.47 15.32,7.64 v -3 a 3.5,3.5 0 0 0 -1.15,-2.57 l -4.71,-3.8 -0.33,-0.21 -9.13,-4.4 z"
         id="path16577"
         style="stroke-width:0.976361" />
      <polygon
         class="cls-30"
         points="37.87,20.65 37.87,27.02 37,26.6 37,20.23 "
         id="polygon16579"
         style="stroke-width:0.976361" />
      <polygon
         class="cls-30"
         points="34.72,19.13 34.72,25.51 33.85,25.09 33.85,18.71 "
         id="polygon16581"
         style="stroke-width:0.976361" />
      <polygon
         class="cls-30"
         points="31.57,17.61 31.57,23.99 30.7,23.57 30.7,17.19 "
         id="polygon16583"
         style="stroke-width:0.976361" />
      <polygon
         class="cls-30"
         points="41.02,23.02 41.02,28.54 40.15,28.12 40.15,22.6 "
         id="polygon16585"
         style="stroke-width:0.976361" />
      <path
         class="cls-30"
         d="M 44.16,30.31 43.31,29.9 v -3 A 2.49,2.49 0 0 0 42.49,25 l -4.71,-3.79 a 1.14,1.14 0 0 0 -0.23,-0.15 l -9.13,-4.4 V 15.5 l 9.13,4.4 a 2.32,2.32 0 0 1 0.43,0.27 L 42.69,24 a 4.52,4.52 0 0 1 1.47,3.31 z"
         id="path16587"
         style="stroke-width:0.976361" />
      <path
         class="cls-34"
         d="M 44.16,27.27 A 4.52,4.52 0 0 0 42.69,24 L 38,20.17 A 3.13,3.13 0 0 0 37.57,19.89 L 28.42,15.5 v 7 l 14.89,7.4 v 0 l 0.42,0.21 v 0 l 0.42,0.2 z"
         id="path16589"
         style="fill:url(#linear-gradient-22);stroke-width:0.976361" />
      <polygon
         class="cls-35"
         points="17.36,27.22 28.42,21.64 44.16,29.22 33.1,34.55 "
         id="polygon16591"
         style="fill:url(#linear-gradient-23);stroke-width:0.976361" />
      <path
         class="cls-18"
         d="m 45,29.89 v -3 a 4.49,4.49 0 0 0 -1.48,-3.31 l -4.71,-3.79 a 1.86,1.86 0 0 0 -0.43,-0.28 l -9.13,-4.4 -0.86,0.43 9.13,4.4 a 2.32,2.32 0 0 1 0.43,0.27 L 42.69,24 a 4.52,4.52 0 0 1 1.47,3.31 v 3 z"
         id="path16593"
         style="stroke-width:0.976361" />
      <path
         class="cls-36"
         d="m 45,29.89 v -3 a 4.49,4.49 0 0 0 -1.48,-3.31 l -4.71,-3.79 a 1.86,1.86 0 0 0 -0.43,-0.28 l -9.13,-4.4 -0.86,0.43 9.13,4.4 a 2.32,2.32 0 0 1 0.43,0.27 L 42.69,24 a 4.52,4.52 0 0 1 1.47,3.31 v 3 z"
         id="path16595"
         style="fill:url(#linear-gradient-24);stroke-width:0.976361" />
      <polygon
         class="cls-37"
         points="33.1,34.55 33.1,35.63 44.16,30.31 44.16,29.22 "
         id="polygon16597"
         style="fill:url(#linear-gradient-25);stroke-width:0.976361" />
      <path
         class="cls-30"
         d="m 15.31,17.85 1.18,2.22 v 8.4 L 15.64,28.06 V 20.15 L 15,18.88 13.82,18.31 a 0.72,0.72 0 0 1 -0.4,-0.64 V 17.3 c 0,-0.25 0.22,-0.49 0.63,-0.68 0.41,-0.19 1,0.23 1,0.21"
         id="path16599"
         style="stroke-width:0.976361" />
      <path
         class="cls-18"
         d="M 28.11,11.69 15.31,17.85 14,17.23 a 0.34,0.34 0 0 1 0,-0.61 l 11.47,-5.53 a 1.61,1.61 0 0 1 1.39,0 z"
         id="path16601"
         style="stroke-width:0.976361" />
      <path
         class="cls-38"
         d="M 28.11,11.69 15.31,17.85 14,17.23 a 0.34,0.34 0 0 1 0,-0.61 l 11.47,-5.53 a 1.61,1.61 0 0 1 1.39,0 z"
         id="path16603"
         style="fill:url(#linear-gradient-26);stroke-width:0.976361" />
      <path
         class="cls-39"
         d="m 44.09,26.5 a 5.12,5.12 0 0 1 0.07,0.77 v 3 l 0.87,-0.42 v -3 a 3.94,3.94 0 0 0 -0.08,-0.77 z"
         id="path16605"
         style="fill:url(#linear-gradient-27);stroke-width:0.976361" />
      <path
         class="cls-40"
         d="M 3.3,24.14 A 1.39,1.39 0 0 0 2.66,23.64 C 2.38,23.51 2.2,23.54 2.24,23.9 a 1.51,1.51 0 0 0 0.39,0.91 v 0 C 2.35,24.68 1.92,24.55 1.86,24.3 1.8,24.05 1.6,23 1.54,22.58 A 0.76,0.76 0 0 1 2,21.9 0.75,0.75 0 0 0 2.3,22.69 l 0.46,0.22 a 0.91,0.91 0 0 1 0.51,0.7 z"
         id="path16607"
         style="fill:url(#linear-gradient-28);stroke-width:0.976361" />
    </g>
    <g
       id="ART"
       style="stroke-width:0.976361">
      <ellipse
         class="cls-41"
         cx="27.709999"
         cy="25.25"
         rx="4.48"
         ry="1.5700001"
         id="ellipse16610"
         style="fill:url(#linearGradient16908);stroke-width:0.976361" />
      <ellipse
         class="cls-42"
         cx="32.75"
         cy="27.700001"
         rx="4.48"
         ry="1.5700001"
         id="ellipse16612"
         style="fill:url(#linear-gradient-30);stroke-width:0.976361" />
      <path
         class="cls-43"
         d="m 37.78,29.45 c -2.47,0 -4.47,0.7 -4.47,1.57 0,0.87 1.69,1.46 3.89,1.56 l 4.63,-2.23 a 7.49,7.49 0 0 0 -4.05,-0.9 z"
         id="path16614"
         style="fill:url(#linear-gradient-31);stroke-width:0.976361" />
      <path
         class="cls-44"
         d="m 45.42,27.06 a 3.08,3.08 0 0 0 0.92,-0.73 c 0.22,-0.27 0.65,-0.07 0.61,0.38 a 1,1 0 0 1 -0.69,0.95 3.23,3.23 0 0 1 -1,0.27"
         id="path16616"
         style="fill:url(#linearGradient16910);stroke-width:0.976361" />
      <path
         class="cls-45"
         d="m 45.42,27.06 a 3.08,3.08 0 0 0 0.92,-0.73 c 0.22,-0.27 0.65,-0.07 0.61,0.38 a 1,1 0 0 1 -0.69,0.95 3.23,3.23 0 0 1 -1,0.27"
         id="path16618" />
      <path
         class="cls-46"
         d="m 43.09,24 c 0.38,-0.09 0.83,0.35 0.75,1 -0.08,0.65 -0.24,1.89 -0.27,2.55 a 9.81,9.81 0 0 0 2.06,-0.77 2,2 0 0 0 -0.06,0.88 1,1 0 0 0 0.55,0.55 l -2,0.79 c -0.76,0.32 -1.62,0.4 -1.84,0.06 A 6.9,6.9 0 0 1 42.06,25.52 C 42.39,24 43.09,24 43.09,24 Z"
         id="path16620"
         style="stroke-width:0.976361" />
      <path
         class="cls-47"
         d="m 43.09,24 c 0.38,-0.09 0.83,0.35 0.75,1 -0.08,0.65 -0.24,1.89 -0.27,2.55 a 9.81,9.81 0 0 0 2.06,-0.77 2,2 0 0 0 -0.06,0.88 1,1 0 0 0 0.55,0.55 l -2,0.79 c -0.76,0.32 -1.62,0.4 -1.84,0.06 A 6.9,6.9 0 0 1 42.06,25.52 C 42.39,24 43.09,24 43.09,24 Z"
         id="path16622"
         style="fill:url(#linearGradient16912);stroke-width:0.976361" />
      <path
         class="cls-48"
         d="m 43.09,24 c 0.38,-0.09 0.83,0.35 0.75,1 -0.08,0.65 -0.24,1.89 -0.27,2.55 a 9.81,9.81 0 0 0 2.06,-0.77 2,2 0 0 0 -0.06,0.88 1,1 0 0 0 0.55,0.55 l -2,0.79 c -0.76,0.32 -1.62,0.4 -1.84,0.06 A 6.9,6.9 0 0 1 42.06,25.52 C 42.39,24 43.09,24 43.09,24 Z"
         id="path16624" />
      <path
         class="cls-46"
         d="m 42.29,38.46 c -0.23,0.34 -0.5,0.65 -0.51,0.88 a 1.12,1.12 0 0 0 0.38,0.88 3.2,3.2 0 0 0 1.09,0.86 1.72,1.72 0 0 0 1,0.08 c 0.37,-0.09 0.44,-0.26 0.33,-0.59 A 2,2 0 0 0 44,40 c -0.17,-0.14 -0.83,-0.74 -0.56,-1.21"
         id="path16626"
         style="stroke-width:0.976361" />
      <path
         class="cls-48"
         d="m 42.29,38.46 c -0.23,0.34 -0.5,0.65 -0.51,0.88 a 1.12,1.12 0 0 0 0.38,0.88 3.2,3.2 0 0 0 1.09,0.86 1.66,1.66 0 0 0 1.17,0 0.37,0.37 0 0 0 0.2,-0.52 c -0.07,-0.2 -0.47,-0.44 -0.63,-0.58 -0.16,-0.14 -1,-1 -0.69,-1.46"
         id="path16628" />
      <path
         class="cls-46"
         d="m 39.66,34.26 c -0.27,-0.12 -0.53,-0.28 -0.69,-0.24 a 1.11,1.11 0 0 0 -0.6,0.59 3.76,3.76 0 0 0 -0.49,1.21 2,2 0 0 0 0,0.88 c 0.11,0.31 0.24,0.33 0.47,0.14 a 1.64,1.64 0 0 0 0.36,-0.65 c 0.06,-0.2 0.44,-0.94 0.81,-0.82"
         id="path16630"
         style="stroke-width:0.976361" />
      <path
         class="cls-48"
         d="m 39.66,34.26 c -0.27,-0.12 -0.53,-0.28 -0.69,-0.24 a 1.11,1.11 0 0 0 -0.6,0.59 3.76,3.76 0 0 0 -0.49,1.21 1.86,1.86 0 0 0 0.12,1.06 c 0.12,0.2 0.25,0.07 0.39,0 a 1.64,1.64 0 0 0 0.36,-0.65 c 0.06,-0.2 0.61,-1.12 1,-1"
         id="path16632" />
      <path
         class="cls-46"
         d="M 40.46,27.92 A 3.4,3.4 0 0 0 40.93,29 c 0.35,0.51 1.06,0.54 2.11,1.66 a 4.57,4.57 0 0 1 1.42,2.13 2,2 0 0 1 -0.55,1.34 c -0.25,0.22 -3.09,1.11 -3.64,1.48 -0.55,0.37 -0.72,-0.06 -0.82,-0.53 -0.1,-0.47 -0.05,-1 0.29,-1.17 0.34,-0.17 1.63,-0.62 2.13,-0.87 a 2.27,2.27 0 0 0 0.62,-0.4 c 0,0 -1.57,-0.64 -2.28,-1.04 A 8.82,8.82 0 0 1 38.4,29.5"
         id="path16634"
         style="stroke-width:0.976361" />
      <path
         class="cls-49"
         d="M 40.46,27.92 A 3.4,3.4 0 0 0 40.93,29 c 0.35,0.51 1.06,0.54 2.11,1.66 a 4.57,4.57 0 0 1 1.42,2.13 2,2 0 0 1 -0.55,1.34 c -0.25,0.22 -3.09,1.11 -3.64,1.48 -0.55,0.37 -0.72,-0.06 -0.82,-0.53 -0.1,-0.47 -0.05,-1 0.29,-1.17 0.34,-0.17 1.63,-0.62 2.13,-0.87 a 2.27,2.27 0 0 0 0.62,-0.4 c 0,0 -1.57,-0.64 -2.28,-1.04 A 8.82,8.82 0 0 1 38.4,29.5"
         id="path16636"
         style="fill:url(#linear-gradient-34);stroke-width:0.976361" />
      <path
         class="cls-50"
         d="M 40.46,27.92 A 3.4,3.4 0 0 0 40.93,29 c 0.35,0.51 1.06,0.54 2.11,1.66 a 4.66,4.66 0 0 1 1.42,2.13 1.41,1.41 0 0 1 -0.55,1.34 c -0.25,0.22 -3.09,1.11 -3.64,1.48 -0.55,0.37 -0.72,-0.06 -0.82,-0.53 -0.1,-0.47 -0.05,-1 0.29,-1.17 0.34,-0.17 1.63,-0.62 2.13,-0.87 a 2.27,2.27 0 0 0 0.62,-0.4 c 0,0 -1.57,-0.64 -2.28,-1.04 A 8.82,8.82 0 0 1 38.4,29.5"
         id="path16638" />
      <path
         class="cls-46"
         d="m 40.41,30.06 a 1.58,1.58 0 0 1 0.19,0.68 22.84,22.84 0 0 1 1.77,2.06 4.42,4.42 0 0 1 0.71,2.1 34.72,34.72 0 0 0 0.6,3.58 c 0.15,0.46 -0.18,0.71 -0.56,0.83 -0.38,0.12 -1.14,-0.49 -1.33,-0.89 0,0 0,-1.18 -0.14,-1.89 -0.14,-0.71 -0.59,-2.37 -0.59,-2.37 a 10.41,10.41 0 0 0 -2,-1.65 2.77,2.77 0 0 1 -1.47,-1.7 5.68,5.68 0 0 1 -0.17,-1.88 l 2.1,-1"
         id="path16640"
         style="stroke-width:0.976361" />
      <path
         class="cls-51"
         d="m 40.41,30.06 a 1.58,1.58 0 0 1 0.19,0.68 22.84,22.84 0 0 1 1.77,2.06 4.42,4.42 0 0 1 0.71,2.1 34.72,34.72 0 0 0 0.6,3.58 c 0.15,0.46 -0.18,0.71 -0.56,0.83 -0.38,0.12 -1.14,-0.49 -1.33,-0.89 0,0 0,-1.18 -0.14,-1.89 -0.14,-0.71 -0.59,-2.37 -0.59,-2.37 a 10.41,10.41 0 0 0 -2,-1.65 2.77,2.77 0 0 1 -1.47,-1.7 5.68,5.68 0 0 1 -0.17,-1.88 l 2.1,-1"
         id="path16642"
         style="fill:url(#linear-gradient-35);stroke-width:0.976361" />
      <path
         class="cls-48"
         d="m 40.41,30.06 a 1.58,1.58 0 0 1 0.19,0.68 22.84,22.84 0 0 1 1.77,2.06 4.42,4.42 0 0 1 0.71,2.1 34.72,34.72 0 0 0 0.6,3.58 c 0.15,0.46 -0.18,0.71 -0.56,0.83 -0.38,0.12 -1.14,-0.49 -1.33,-0.89 0,0 0,-1.18 -0.14,-1.89 -0.14,-0.71 -0.59,-2.37 -0.59,-2.37 a 10.41,10.41 0 0 0 -2,-1.65 2.77,2.77 0 0 1 -1.47,-1.7 5.68,5.68 0 0 1 -0.17,-1.88 l 2.1,-1"
         id="path16644" />
      <path
         class="cls-52"
         d="m 29.07,14.34 a 1.74,1.74 0 0 1 0,1.17 0.57,0.57 0 0 1 -0.39,0.39 0.31,0.31 0 0 1 -0.3,-0.13 1.19,1.19 0 0 1 -0.09,-0.61 1.44,1.44 0 0 0 -0.14,-0.62"
         id="path16646"
         style="fill:url(#linear-gradient-36);stroke-width:0.976361" />
      <path
         class="cls-45"
         d="m 29.07,14.34 a 1.74,1.74 0 0 1 0,1.17 0.57,0.57 0 0 1 -0.39,0.39 0.31,0.31 0 0 1 -0.3,-0.13 1.19,1.19 0 0 1 -0.09,-0.61 1.44,1.44 0 0 0 -0.14,-0.62"
         id="path16648" />
      <path
         class="cls-46"
         d="m 28.12,6.84 a 1.57,1.57 0 0 1 0.71,1.4 c 0,0.79 0,1.57 0,2.91 a 15.92,15.92 0 0 0 0.57,3.13 c 0.07,0.27 -0.36,0.48 -0.7,0.55 a 0.77,0.77 0 0 1 -0.76,-0.27 11.75,11.75 0 0 1 -0.56,-3.31 13.45,13.45 0 0 1 0.08,-2.69"
         id="path16650"
         style="stroke-width:0.976361" />
      <path
         class="cls-53"
         d="m 29.14,14.59 c 0,0 -1,-1 -1.08,-5 a 18.05,18.05 0 0 0 0.08,5.18 c 0,0 0,0.19 0.57,0.1"
         id="path16652"
         style="fill:url(#linear-gradient-37);stroke-width:0.976361" />
      <path
         class="cls-48"
         d="m 28.12,6.84 a 1.57,1.57 0 0 1 0.71,1.4 c 0,0.79 0,1.57 0,2.91 a 15.92,15.92 0 0 0 0.57,3.13 c 0.07,0.27 -0.36,0.48 -0.7,0.55 a 0.77,0.77 0 0 1 -0.76,-0.27 11.75,11.75 0 0 1 -0.56,-3.31 13.45,13.45 0 0 1 0.08,-2.69"
         id="path16654" />
      <path
         class="cls-46"
         d="m 24.37,25 a 3.38,3.38 0 0 0 -0.12,0.78 c 0,0 0.13,0.16 0.81,0.33 a 8.31,8.31 0 0 0 1.57,0.37 c 0.36,0 0.68,-0.07 0.68,-0.29 0,-0.22 -0.61,-0.61 -0.86,-0.77 a 1.45,1.45 0 0 1 -0.73,-0.94 c -0.09,-0.48 -1,-0.1 -1,-0.1 z"
         id="path16656"
         style="stroke-width:0.976361" />
      <path
         class="cls-48"
         d="m 24.37,25 a 3.38,3.38 0 0 0 -0.12,0.78 c 0,0 0.13,0.16 0.81,0.33 a 8.31,8.31 0 0 0 1.57,0.37 c 0.36,0 0.68,-0.07 0.68,-0.29 0,-0.22 -0.61,-0.61 -0.86,-0.77 a 1.45,1.45 0 0 1 -0.73,-0.94 c -0.09,-0.48 -1,-0.1 -1,-0.1 z"
         id="path16658" />
      <path
         class="cls-54"
         d="m 27.94,14.19 a 0.21,0.21 0 0 0 -0.05,0.07 13.74,13.74 0 0 1 -0.83,-3.11 7.44,7.44 0 0 1 0,-2 c 0,-0.05 0,-0.13 0,-0.22 h 0.37 a 5.31,5.31 0 0 0 0.22,2.72 12.85,12.85 0 0 1 0.61,2.25 1.54,1.54 0 0 0 -0.32,0.29 z"
         id="path16660"
         style="fill:url(#linear-gradient-38);stroke-width:0.976361" />
      <path
         class="cls-46"
         d="m 27.62,23.66 a 3.46,3.46 0 0 0 0,0.74 c 0,0 0.14,0.13 0.8,0.19 a 9.32,9.32 0 0 0 1.52,0.09 c 0.34,-0.05 0.62,-0.17 0.59,-0.38 -0.03,-0.21 -0.66,-0.47 -0.92,-0.57 A 1.4,1.4 0 0 1 28.8,22.96 c -0.14,-0.43 -0.94,0.07 -0.94,0.07 z"
         id="path16662"
         style="stroke-width:0.976361" />
      <path
         class="cls-48"
         d="m 27.62,23.66 a 3.46,3.46 0 0 0 0,0.74 c 0,0 0.14,0.13 0.8,0.19 a 9.32,9.32 0 0 0 1.52,0.09 c 0.34,-0.05 0.62,-0.17 0.59,-0.38 -0.03,-0.21 -0.66,-0.47 -0.92,-0.57 A 1.4,1.4 0 0 1 28.8,22.96 c -0.14,-0.43 -0.94,0.07 -0.94,0.07 z"
         id="path16664" />
      <path
         class="cls-46"
         d="m 28.09,18.5 a 3.91,3.91 0 0 0 0.1,-1 c 0,-0.5 0,-1.42 -0.12,-2.54 0,-0.46 -0.06,-0.84 -0.08,-1 -0.06,-0.54 -0.1,-1.45 -0.1,-1.45 L 26.51,13 24.26,12.84 c 0,0 0,0.5 -0.08,0.9 a 7.86,7.86 0 0 0 -0.06,1.89 c 0.07,0.63 0.58,2.74 0.56,2.84 a 16.21,16.21 0 0 0 -0.56,3.14 c -0.11,1.7 -0.05,3.19 -0.05,3.19 0.31,0.28 0.51,0.26 1.12,-0.2 a 0.81,0.81 0 0 1 0.63,-0.18 c 0,-1 0.4,-4.93 0.4,-4.93 a 2.2,2.2 0 0 0 0.23,-0.78 c 0,-0.17 0,-0.78 0.08,-1.42 0,0.3 0.09,0.56 0.09,0.64 a 20.85,20.85 0 0 0 0.09,2.62 24.46,24.46 0 0 0 0.76,3.38 2.12,2.12 0 0 0 0.91,-0.61 1.13,1.13 0 0 1 0.43,-0.41 C 28.62,22.2 28.09,18.5 28.09,18.5 Z"
         id="path16666"
         style="stroke-width:0.976361" />
      <path
         class="cls-55"
         d="m 26.77,15 a 1.1,1.1 0 0 0 -0.22,0.37 2.91,2.91 0 0 0 0,0.66 c 0,0.53 0,1.07 0,1.6 0,0.28 0,1.33 0,1.33 0,0 0.14,1.48 0.24,2.29 a 27.79,27.79 0 0 0 0.68,2.7 l 0.67,-0.39 A 24.55,24.55 0 0 1 27.22,19.16 13,13 0 0 0 27.06,17 c -0.11,-0.83 0.25,-1.67 0.12,-2.51 -0.1,0.14 -0.27,0.31 -0.41,0.51 z"
         id="path16668"
         style="fill:url(#linear-gradient-39);stroke-width:0.976361" />
      <path
         class="cls-56"
         d="m 25.13,13.31 a 8.68,8.68 0 0 0 0.08,2.25 c 0.21,0.82 0.4,1.39 0,2 -0.4,0.61 -0.73,0.2 -0.73,0.2 L 23.76,15.37 23.9,13"
         id="path16670"
         style="fill:url(#linear-gradient-40);stroke-width:0.976361" />
      <path
         class="cls-48"
         d="m 24.26,12.84 c 0,0 0,0.5 -0.08,0.9 a 7.86,7.86 0 0 0 -0.06,1.89 c 0.07,0.63 0.58,2.74 0.56,2.84 a 16.21,16.21 0 0 0 -0.56,3.14 c -0.11,1.7 -0.05,3.19 -0.05,3.19 0.31,0.28 0.51,0.26 1.12,-0.2 a 0.81,0.81 0 0 1 0.63,-0.18 c 0,-1 0.4,-4.93 0.4,-4.93 a 2.2,2.2 0 0 0 0.23,-0.78 c 0,-0.17 0,-0.78 0.08,-1.42 0,0.3 0.09,0.56 0.09,0.64 a 20.85,20.85 0 0 0 0.09,2.62 24.46,24.46 0 0 0 0.76,3.38 2.12,2.12 0 0 0 0.91,-0.61 1.13,1.13 0 0 1 0.43,-0.41 C 28.62,22.2 28.09,18.5 28.09,18.5 a 3.91,3.91 0 0 0 0.1,-1 c 0,-0.5 0,-1.42 -0.12,-2.54 0,-0.46 -0.06,-0.84 -0.08,-1 -0.06,-0.54 -0.1,-1.45 -0.1,-1.45"
         id="path16672" />
      <path
         class="cls-46"
         d="m 26.28,6.83 a 6.71,6.71 0 0 0 -2.21,0.72 1.37,1.37 0 0 0 -0.81,1.5 c 0,0.54 0.65,1.27 0.82,2.1 a 9.44,9.44 0 0 1 0.18,1.68 c 0,0.21 1,0.67 2.31,0.41 1.31,-0.26 1.25,-0.58 1.32,-0.72 0.07,-0.14 0,-1.1 0.06,-1.69 A 15.2,15.2 0 0 1 28.11,9.1 c 0.11,-0.53 0.66,-1.9 0,-2.25 A 5.18,5.18 0 0 0 26.28,6.83 Z"
         id="path16674"
         style="stroke-width:0.976361" />
      <path
         class="cls-57"
         d="m 26.28,6.83 a 6.71,6.71 0 0 0 -2.21,0.72 1.37,1.37 0 0 0 -0.81,1.5 c 0,0.54 0.65,1.27 0.82,2.1 a 9.44,9.44 0 0 1 0.18,1.68 c 0,0.21 1,0.67 2.31,0.41 1.31,-0.26 1.25,-0.58 1.32,-0.72 0.07,-0.14 0,-1.1 0.06,-1.69 A 15.2,15.2 0 0 1 28.11,9.1 c 0.11,-0.53 0.66,-1.9 0,-2.25 A 5.18,5.18 0 0 0 26.28,6.83 Z"
         id="path16676"
         style="fill:url(#linear-gradient-41);stroke-width:0.976361" />
      <path
         class="cls-58"
         d="m 24.82,9.71 c 0,0 -0.24,2.53 0.67,3.52 A 2.66,2.66 0 0 1 24.38,13 a 4.77,4.77 0 0 1 0.1,-2.3"
         id="path16678"
         style="fill:url(#linear-gradient-42);stroke-width:0.976361" />
      <path
         class="cls-48"
         d="m 24.26,12.83 c 0,0.21 1,0.67 2.31,0.41 1.31,-0.26 1.25,-0.58 1.32,-0.72"
         id="path16680" />
      <path
         class="cls-59"
         d="m 24.94,12.09 c 0,0.36 0.11,0.79 0.11,1.18 -0.5,-0.1 -0.78,-0.32 -0.79,-0.44 A 9.28,9.28 0 0 0 24.08,11.16 6.36,6.36 0 0 0 23.52,9.79 l 0.74,-0.9 a 21,21 0 0 1 0.68,3.2 z"
         id="path16682"
         style="fill:url(#linear-gradient-43);stroke-width:0.976361" />
      <path
         class="cls-60"
         d="m 28.43,7.47 a 5,5 0 0 0 -1.87,0 7.33,7.33 0 0 0 -1.93,0.59 c -0.4,0.17 -0.66,0.31 -0.66,0.31 a 2,2 0 0 1 -0.71,0.32 1.36,1.36 0 0 1 0.81,-1.19 6.71,6.71 0 0 1 2.21,-0.72 5.42,5.42 0 0 1 1.84,0 0.72,0.72 0 0 1 0.31,0.69 z"
         id="path16684"
         style="fill:url(#linearGradient16914);stroke-width:0.976361" />
      <path
         class="cls-61"
         d="m 28.43,7.47 a 5,5 0 0 0 -1.87,0 7.22,7.22 0 0 0 -1.93,0.59 c -0.4,0.17 -0.66,0.31 -0.66,0.31 a 2,2 0 0 1 -0.71,0.32 1.36,1.36 0 0 1 0.82,-1.18 6.75,6.75 0 0 1 2.2,-0.73 5.42,5.42 0 0 1 1.84,0 0.72,0.72 0 0 1 0.31,0.69 z"
         id="path16686"
         style="fill:url(#New_Gradient_Swatch_13-2);stroke-width:0.976361" />
      <path
         class="cls-62"
         d="m 23.42,15.63 a 1.75,1.75 0 0 0 0.63,1.16 0.64,0.64 0 0 0 0.63,0.13 0.43,0.43 0 0 0 0.25,-0.32 1.19,1.19 0 0 0 -0.22,-0.67 1.7,1.7 0 0 1 -0.17,-0.73"
         id="path16688"
         style="fill:url(#linear-gradient-44);stroke-width:0.976361" />
      <path
         class="cls-45"
         d="m 23.42,15.63 a 1.75,1.75 0 0 0 0.63,1.16 0.64,0.64 0 0 0 0.63,0.13 0.43,0.43 0 0 0 0.25,-0.32 1.19,1.19 0 0 0 -0.22,-0.67 1.7,1.7 0 0 1 -0.17,-0.73"
         id="path16690" />
      <path
         class="cls-46"
         d="m 24.84,9.5 a 6.63,6.63 0 0 0 -0.53,2.5 10.78,10.78 0 0 0 0.34,3 c 0,0 0.13,0.43 -0.69,0.64 A 0.75,0.75 0 0 1 23.02,15.27 19.06,19.06 0 0 1 22.55,11.5 6.33,6.33 0 0 1 23.68,7.79 c 0.56,-0.51 0.94,0.3 1.05,0.52 a 1.67,1.67 0 0 1 0.11,1.19 z"
         id="path16692"
         style="stroke-width:0.976361" />
      <path
         class="cls-63"
         d="M 24.63,8.11 C 23.8,8.46 23.33,9.38 23.21,11.2 A 16.73,16.73 0 0 0 23.72,15.69 0.69,0.69 0 0 1 23,15.3 18.4,18.4 0 0 1 22.53,11.53 6.39,6.39 0 0 1 23.66,7.81 0.49,0.49 0 0 1 24.18,7.67 1.26,1.26 0 0 1 24.63,8.11 Z"
         id="path16694"
         style="fill:url(#New_Gradient_Swatch_13-3);stroke-width:0.976361" />
      <path
         class="cls-64"
         d="m 24.92,9.53 a 8.7,8.7 0 0 0 -0.39,3.76 c 0,0.32 0.07,0.63 0.13,0.94 l 0.09,0.47 0.06,0.23 a 0.47,0.47 0 0 1 0,0.35 c -0.22,0.44 -0.61,0.49 -0.95,0.58 a 0.93,0.93 0 0 1 -1,-0.5 0.18,0.18 0 0 1 0.09,-0.24 0.19,0.19 0 0 1 0.22,0.06 v 0 l -0.32,0.16 a 23.25,23.25 0 0 1 -0.43,-2.63 8.63,8.63 0 0 1 0.13,-2.71 7.4,7.4 0 0 1 0.37,-1.3 2.42,2.42 0 0 1 0.79,-1.15 6.08,6.08 0 0 1 2.56,-0.92 0.16,0.16 0 0 1 0.19,0.14 0.17,0.17 0 0 1 -0.14,0.2 v 0 a 6,6 0 0 0 -2.36,0.87 2.1,2.1 0 0 0 -0.66,1 8.81,8.81 0 0 0 -0.36,1.24 12.65,12.65 0 0 0 0.28,5.15 v 0 a 0.19,0.19 0 0 1 -0.15,0.22 0.18,0.18 0 0 1 -0.18,-0.07 v 0 l 0.31,-0.19 a 0.56,0.56 0 0 0 0.62,0.28 c 0.26,-0.05 0.6,-0.18 0.66,-0.35 a 0.16,0.16 0 0 0 0,-0.12 l -0.07,-0.25 c 0,-0.16 -0.07,-0.32 -0.09,-0.48 -0.06,-0.33 -0.1,-0.65 -0.13,-1 a 6.76,6.76 0 0 1 0.59,-3.86 0.08,0.08 0 0 1 0.11,0 0.1,0.1 0 0 1 0.03,0.12 z"
         id="path16696"
         style="stroke-width:0.976361" />
      <path
         class="cls-48"
         d="m 29.41,14.28 a 15.92,15.92 0 0 1 -0.57,-3.13 c -0.06,-1.34 0,-2.12 0,-2.91 A 1.66,1.66 0 0 0 28.13,6.84 2.15,2.15 0 0 0 27.42,6.73"
         id="path16698" />
      <path
         class="cls-65"
         d="m 26.94,3.86 a 0.8,0.8 0 0 0 -0.65,0.29 1.05,1.05 0 0 0 -0.15,0.3 0.83,0.83 0 0 0 0,0.15 c 0,0.08 0,0.15 0,0.23 a 0.39,0.39 0 0 1 -0.08,0.1 0.69,0.69 0 0 0 -0.11,0.28 c 0,0.18 -0.05,0.35 -0.07,0.53 -0.02,0.18 0,0.31 0,0.47 0,0.16 -0.08,0.35 -0.12,0.52 C 25.72,6.9 25.71,6.89 25.68,6.97 25.65,7.05 25.6,7.13 25.63,7.24 A 0.46,0.46 0 0 0 25.77,7.46 0.93,0.93 0 0 0 26.19,7.7 1.18,1.18 0 0 0 27,7.55 C 27.27,7.33 27.18,7 27.2,6.88 c 0.02,-0.12 0,-0.11 0,-0.26 0.38,-0.11 0.43,-0.55 0.45,-0.78 0.02,-0.23 0,-1 0,-1.49 0,-0.49 -0.47,-0.49 -0.71,-0.49 z"
         id="path16700" />
      <path
         class="cls-66"
         d="m 27,3.6 a 1.31,1.31 0 0 0 -1.34,0.66 2.1,2.1 0 0 0 0.1,1.1 0.3,0.3 0 0 1 0.2,-0.21 0.19,0.19 0 0 1 0.13,0 c 0,0 0.11,0.14 0.18,0 a 0.36,0.36 0 0 0 0.05,-0.22 c 0,-0.2 0,-0.4 0.13,-0.5 0.13,-0.1 0.29,0 0.42,0.05 a 1,1 0 0 0 0.52,0.08 0.59,0.59 0 0 0 0.39,-0.2 0.73,0.73 0 0 0 0,-0.24 C 27.73,4 27.57,3.64 27,3.6 Z"
         id="path16702" />
      <path
         class="cls-67"
         d="m 25.81,5.64 a 1.94,1.94 0 0 1 0,0.57 c 0,0.17 -0.08,0.35 -0.12,0.52 -0.04,0.17 -0.05,0.16 -0.08,0.24 -0.03,0.08 -0.08,0.16 -0.05,0.27 A 0.46,0.46 0 0 0 25.7,7.46 0.93,0.93 0 0 0 26.12,7.7 1.18,1.18 0 0 0 27,7.55 C 27.27,7.33 27.18,7 27.2,6.88 a 2.73,2.73 0 0 0 0.06,-0.5 V 6.16 Z"
         id="path16704"
         style="fill:url(#linear-gradient-45);stroke-width:0.976361" />
      <path
         class="cls-68"
         d="m 27.25,6.62 a 1.46,1.46 0 0 1 0,0.26 c 0,0.16 0.05,0.49 -0.2,0.66 A 0.84,0.84 0 0 1 26.78,7.67 1.4,1.4 0 0 1 26.65,7.49 L 26.52,7.29 C 26.44,7.16 26.36,7.03 26.29,6.89 A 3.79,3.79 0 0 1 26,6.31 2.81,2.81 0 0 1 25.9,6 1.16,1.16 0 0 1 25.83,5.69 V 5.64 l 0.3,0.1 a 0.85,0.85 0 0 1 0,0.16 0.88,0.88 0 0 0 0.92,0.76 0.46,0.46 0 0 0 0.2,-0.04 z"
         id="path16706"
         style="fill:url(#linear-gradient-46);stroke-width:0.976361" />
      <path
         class="cls-69"
         d="M 26.94,3.86 A 0.78,0.78 0 0 0 26.12,4.67 V 5.21 A 0.26,0.26 0 0 0 25.92,5.14 0.36,0.36 0 0 0 25.7,5.57 c 0,0.21 0.19,0.36 0.35,0.33 h 0.07 a 0.43,0.43 0 0 0 0,0.11 0.87,0.87 0 0 0 0.9,0.65 c 0.58,0 0.64,-0.54 0.67,-0.81 0.03,-0.27 0,-1 0,-1.49 0,-0.49 -0.51,-0.5 -0.75,-0.5 z"
         id="path16708"
         style="fill:url(#linear-gradient-47);stroke-width:0.976361" />
      <path
         class="cls-46"
         d="m 27,3.6 a 1.31,1.31 0 0 0 -1.34,0.66 2.16,2.16 0 0 0 0.09,1.09 0.29,0.29 0 0 1 0.21,-0.2 0.19,0.19 0 0 1 0.13,0 c 0,0 0.11,0.14 0.18,0 a 0.36,0.36 0 0 0 0.05,-0.22 c 0,-0.2 0,-0.4 0.13,-0.5 0.13,-0.1 0.29,0 0.42,0.05 a 1,1 0 0 0 0.52,0.08 0.59,0.59 0 0 0 0.39,-0.2 0.73,0.73 0 0 0 0,-0.24 C 27.73,4 27.57,3.64 27,3.6 Z"
         id="path16710"
         style="stroke-width:0.976361" />
      <path
         class="cls-70"
         d="m 27.73,4 a 0.49,0.49 0 0 1 -0.61,0.06 1,1 0 0 0 -1,0 c -0.35,0.18 -0.31,0.69 -0.25,1 A 0.32,0.32 0 0 0 25.71,5.24 2.28,2.28 0 0 1 25.62,4.15 c 0.11,-0.4 0.72,-0.7 1.34,-0.67 0.62,0.03 0.72,0.4 0.77,0.52 z"
         id="path16712"
         style="fill:url(#linear-gradient-48);stroke-width:0.976361" />
      <path
         class="cls-64"
         d="m 27.73,12.44 c 0,-0.17 0,-0.58 0.05,-0.87 0.05,-0.29 0,-0.64 0.06,-1 L 28,9.66 a 2.76,2.76 0 0 1 0.19,-0.94 0.07,0.07 0 0 1 0.08,0 0.08,0.08 0 0 1 0,0.07 c -0.12,0.62 -0.11,1.26 -0.17,1.88 0,0.32 0,0.63 0,0.94 v 0.48 a 1.88,1.88 0 0 1 0,0.55 0.18,0.18 0 0 1 -0.21,0.12 0.16,0.16 0 0 1 -0.12,-0.19 z"
         id="path16714"
         style="stroke-width:0.976361" />
      <path
         class="cls-48"
         d="m 26.53,17.29 c 0,-1 0,-1.94 0,-1.94 a 2,2 0 0 0 0.31,-0.38"
         id="path16716" />
      <path
         class="cls-71"
         d="M 37.27,17.83 A 1.86,1.86 0 0 1 37.21,19 0.6,0.6 0 0 1 36.78,19.38 0.32,0.32 0 0 1 36.48,19.23 1.3,1.3 0 0 1 36.42,18.6 1.78,1.78 0 0 0 36.3,18"
         id="path16718"
         style="fill:url(#linear-gradient-49);stroke-width:0.976361" />
      <path
         class="cls-45"
         d="M 37.27,17.83 A 1.86,1.86 0 0 1 37.21,19 0.6,0.6 0 0 1 36.78,19.38 0.32,0.32 0 0 1 36.48,19.23 1.3,1.3 0 0 1 36.42,18.6 1.78,1.78 0 0 0 36.3,18"
         id="path16720" />
      <path
         class="cls-46"
         d="m 37.22,14.92 a 18.54,18.54 0 0 0 0.19,2.55 l -1.3,0.1 -0.27,-2"
         id="path16722"
         style="stroke-width:0.976361" />
      <path
         class="cls-48"
         d="m 37.22,14.92 a 18.54,18.54 0 0 0 0.19,2.55 l -1.3,0.1 -0.27,-2"
         id="path16724" />
      <path
         class="cls-46"
         d="m 36.17,27.52 a 2.92,2.92 0 0 0 0.34,1.25 c 0.13,0.19 0.67,0.21 1.16,0.05 A 2.66,2.66 0 0 0 39.06,28 c 0.18,-0.35 0,-0.59 -0.3,-0.54 a 4.72,4.72 0 0 1 -0.83,0.21 0.83,0.83 0 0 1 -0.66,-0.44"
         id="path16726"
         style="stroke-width:0.976361" />
      <path
         class="cls-48"
         d="m 36.17,27.52 a 2.92,2.92 0 0 0 0.34,1.25 c 0.13,0.19 0.67,0.21 1.16,0.05 A 2.66,2.66 0 0 0 39.06,28 c 0.18,-0.35 0,-0.59 -0.3,-0.54 a 4.72,4.72 0 0 1 -0.83,0.21 0.83,0.83 0 0 1 -0.66,-0.44"
         id="path16728" />
      <path
         class="cls-46"
         d="m 29.77,25.58 a 2.88,2.88 0 0 0 -0.73,0.67 1.13,1.13 0 0 0 0,0.92 2.73,2.73 0 0 0 0.66,1.09 1.43,1.43 0 0 0 0.79,0.33 c 0.34,0 0.47,-0.12 0.48,-0.46 a 1.26,1.26 0 0 0 -0.27,-0.69 0.79,0.79 0 0 1 0.08,-1"
         id="path16730"
         style="stroke-width:0.976361" />
      <path
         class="cls-48"
         d="m 29.77,25.58 a 2.88,2.88 0 0 0 -0.73,0.67 1.13,1.13 0 0 0 0,0.92 2.73,2.73 0 0 0 0.66,1.09 1.46,1.46 0 0 0 1,0.32 c 0.26,0 0.26,-0.25 0.27,-0.45 a 1.26,1.26 0 0 0 -0.27,-0.69 0.79,0.79 0 0 1 0.08,-1"
         id="path16732" />
      <path
         class="cls-46"
         d="m 36.7,16.83 a 5.31,5.31 0 0 0 -0.47,1.58 c 0,0.47 0.23,1.46 0.35,2.59 a 4.75,4.75 0 0 1 0,1.51 3,3 0 0 0 0,0.65 21.44,21.44 0 0 1 0.5,2.46 5.78,5.78 0 0 0 0.36,1.64 c 0,0 0.07,0.42 -0.72,0.62 a 1.69,1.69 0 0 1 -1.16,-0.26 c 0,0 -0.43,-2.26 -0.58,-3.33 a 11.87,11.87 0 0 1 -0.11,-1.82 11.35,11.35 0 0 0 -0.74,-2.85 c -0.5,-0.95 0.41,-2.5 0.41,-2.5"
         id="path16734"
         style="stroke-width:0.976361" />
      <path
         class="cls-48"
         d="m 36.7,16.83 a 5.31,5.31 0 0 0 -0.47,1.58 c 0,0.47 0.23,1.46 0.35,2.59 a 4.75,4.75 0 0 1 0,1.51 3,3 0 0 0 0,0.65 21.44,21.44 0 0 1 0.5,2.46 5.78,5.78 0 0 0 0.36,1.64 c 0,0 0.07,0.42 -0.72,0.62 a 1.69,1.69 0 0 1 -1.16,-0.26 c 0,0 -0.43,-2.26 -0.58,-3.33 a 11.87,11.87 0 0 1 -0.11,-1.82 11.35,11.35 0 0 0 -0.74,-2.85 c -0.5,-0.95 0.41,-2.5 0.41,-2.5"
         id="path16736" />
      <path
         class="cls-46"
         d="m 33,15.67 a 13.26,13.26 0 0 0 -0.63,3 18.22,18.22 0 0 1 -0.16,3.17 8.52,8.52 0 0 1 -0.83,1 9,9 0 0 0 -1.83,2.77 1.44,1.44 0 0 0 0.48,0.92 c 0.46,0.42 0.79,0.5 1,0.37 0.21,-0.13 0.43,-1.37 1.3,-2.32 a 10.22,10.22 0 0 0 1.56,-1.92 c 0.2,-0.41 0.19,-1.12 0.47,-2 0.28,-0.88 0.37,-1.27 0.37,-1.27 a 3.06,3.06 0 0 0 0.45,-0.66 13.38,13.38 0 0 0 0.29,-1.85"
         id="path16738"
         style="stroke-width:0.976361" />
      <path
         class="cls-48"
         d="m 33,15.67 a 13.26,13.26 0 0 0 -0.63,3 18.22,18.22 0 0 1 -0.16,3.17 8.52,8.52 0 0 1 -0.83,1 9,9 0 0 0 -1.83,2.77 1.44,1.44 0 0 0 0.48,0.92 c 0.46,0.42 0.79,0.5 1,0.37 0.21,-0.13 0.43,-1.37 1.3,-2.32 a 10.22,10.22 0 0 0 1.56,-1.92 c 0.2,-0.41 0.19,-1.12 0.47,-2 0.28,-0.88 0.37,-1.27 0.37,-1.27 a 1.08,1.08 0 0 0 0.39,-0.42"
         id="path16740" />
      <path
         class="cls-46"
         d="m 36.23,11.22 a 7.23,7.23 0 0 1 -1.5,0.71 c -0.5,0.24 -0.94,0.9 -1.26,2.32 C 33.15,15.67 32.89,15.5 33,16 a 1.84,1.84 0 0 0 1.76,1.2 2.45,2.45 0 0 0 1.9,-0.75 6.6,6.6 0 0 1 1.13,-2 5.88,5.88 0 0 0 1.35,-2 c 0.2,-0.51 0.11,-0.93 -0.25,-1.08 -0.74,-0.31 -0.85,0 -1.35,-0.24"
         id="path16742"
         style="stroke-width:0.976361" />
      <path
         class="cls-72"
         d="m 36.23,11.22 a 7.23,7.23 0 0 1 -1.5,0.71 c -0.5,0.24 -0.94,0.9 -1.26,2.32 C 33.15,15.67 32.89,15.5 33,16 a 1.84,1.84 0 0 0 1.76,1.2 2.45,2.45 0 0 0 1.9,-0.75 6.6,6.6 0 0 1 1.13,-2 5.88,5.88 0 0 0 1.35,-2 c 0.2,-0.51 0.11,-0.93 -0.25,-1.08 -0.74,-0.31 -0.85,0 -1.35,-0.24"
         id="path16744"
         style="fill:url(#linear-gradient-50);stroke-width:0.976361" />
      <path
         class="cls-73"
         d="m 35.41,12.43 c 0.42,-0.25 0.68,-0.29 1.07,-0.51 0.39,-0.22 -0.21,-0.55 -0.21,-0.55 l -1.75,0.77"
         id="path16746"
         style="fill:url(#New_Gradient_Swatch_13-4);stroke-width:0.976361" />
      <path
         class="cls-48"
         d="m 36.62,11.06 a 11.49,11.49 0 0 1 -1.89,0.87 c -0.5,0.24 -0.94,0.9 -1.26,2.32 C 33.15,15.67 32.89,15.5 33,16 a 1.84,1.84 0 0 0 1.76,1.2 2.45,2.45 0 0 0 1.9,-0.75 6.6,6.6 0 0 1 1.13,-2 5.88,5.88 0 0 0 1.35,-2 c 0.2,-0.51 0.11,-0.93 -0.25,-1.08 -0.74,-0.31 -0.85,0 -1.35,-0.24"
         id="path16748" />
      <path
         class="cls-74"
         d="m 37.94,17 a 2.66,2.66 0 0 1 1.32,0.68 0.75,0.75 0 0 1 0.28,0.6 0.27,0.27 0 0 1 -0.26,0.21 1.54,1.54 0 0 1 -0.72,-0.26 2.22,2.22 0 0 0 -0.77,-0.21"
         id="path16750"
         style="fill:url(#linear-gradient-51);stroke-width:0.976361" />
      <path
         class="cls-45"
         d="m 37.94,17 a 2.66,2.66 0 0 1 1.32,0.68 0.75,0.75 0 0 1 0.28,0.6 0.27,0.27 0 0 1 -0.26,0.21 1.54,1.54 0 0 1 -0.72,-0.26 2.22,2.22 0 0 0 -0.77,-0.21"
         id="path16752" />
      <path
         class="cls-46"
         d="m 34.5,12.1 c 0.36,-0.18 0.78,0.19 0.91,0.33 a 1.93,1.93 0 0 1 0.47,1.12 c 0,0.39 -0.05,0.65 -0.08,1 a 3.75,3.75 0 0 0 0.11,1.4 c 0,0 0.83,0.37 1.23,0.51 a 4.61,4.61 0 0 0 0.63,0.2 1,1 0 0 1 0.24,0.09 0.43,0.43 0 0 1 0.23,0.26 1.13,1.13 0 0 1 -0.07,0.7 0.77,0.77 0 0 1 -0.84,0.61 c 0,0 -2.83,-0.72 -3.13,-1.62 a 9.12,9.12 0 0 1 0,-4.32 0.74,0.74 0 0 1 0.28,-0.28"
         id="path16754"
         style="stroke-width:0.976361" />
      <path
         class="cls-75"
         d="m 35.41,12.43 c -0.72,0.6 -0.6,3.57 -0.46,4.06 a 5.18,5.18 0 0 0 3.12,1.51 0.71,0.71 0 0 1 -0.73,0.39 c 0,0 -2.83,-0.77 -3.13,-1.67 a 8.87,8.87 0 0 1 0,-4.32 c 0.14,-0.22 0.35,-0.38 0.53,-0.35 a 1.05,1.05 0 0 1 0.67,0.38 z"
         id="path16756"
         style="fill:url(#New_Gradient_Swatch_13-5);stroke-width:0.976361" />
      <path
         class="cls-48"
         d="m 35.85,14.07 c 0,0.16 0,0.33 -0.05,0.53 a 3.75,3.75 0 0 0 0.11,1.4 c 0,0 0.83,0.37 1.23,0.51 a 4.61,4.61 0 0 0 0.63,0.2 1,1 0 0 1 0.24,0.09 0.43,0.43 0 0 1 0.23,0.26 1.13,1.13 0 0 1 -0.07,0.7 0.77,0.77 0 0 1 -0.84,0.61 c 0,0 -2.83,-0.77 -3.13,-1.67 a 9.12,9.12 0 0 1 0,-4.32 0.94,0.94 0 0 1 0.14,-0.18 2.72,2.72 0 0 1 0.37,-0.27 12.38,12.38 0 0 0 1.89,-0.87"
         id="path16758" />
      <path
         class="cls-65"
         d="m 39.21,8.8 a 0.84,0.84 0 0 0 -0.74,0 0.92,0.92 0 0 0 -0.25,0.23 0.69,0.69 0 0 0 -0.11,0.13 c 0,0.07 0,0.16 -0.09,0.22 a 0.39,0.39 0 0 1 -0.11,0.06 0.58,0.58 0 0 0 -0.21,0.23 3.24,3.24 0 0 0 -0.28,0.47 c -0.08,0.15 -0.13,0.3 -0.22,0.44 a 2.83,2.83 0 0 1 -0.32,0.45 l -0.16,0.2 c -0.07,0.08 -0.14,0.13 -0.16,0.24 a 0.52,0.52 0 0 0 0,0.27 1,1 0 0 0 0.3,0.39 1.25,1.25 0 0 0 0.92,0.2 c 0.34,-0.1 0.38,-0.45 0.45,-0.56 a 2.58,2.58 0 0 0 0.14,-0.23 c 0.41,0 0.62,-0.36 0.74,-0.57 0.12,-0.21 0.41,-0.93 0.61,-1.41 0.2,-0.48 -0.28,-0.67 -0.51,-0.76 z"
         id="path16760" />
      <path
         class="cls-66"
         d="m 39.32,8.55 a 1.36,1.36 0 0 0 -1.55,0.11 2.29,2.29 0 0 0 -0.33,1.09 0.3,0.3 0 0 1 0.28,-0.12 l 0.12,0.06 c 0,0 0,0.18 0.18,0.06 a 0.53,0.53 0 0 0 0.13,-0.2 c 0.06,-0.19 0.15,-0.38 0.32,-0.42 0.17,-0.04 0.29,0.1 0.38,0.21 a 0.89,0.89 0 0 0 0.46,0.28 0.59,0.59 0 0 0 0.46,0 0.9,0.9 0 0 0 0.11,-0.22 C 39.92,9.22 39.9,8.84 39.32,8.55 Z"
         id="path16762" />
      <path
         class="cls-76"
         d="m 37.43,10.06 a 2.41,2.41 0 0 1 -0.23,0.54 2.83,2.83 0 0 1 -0.32,0.45 l -0.16,0.2 c -0.07,0.08 -0.14,0.13 -0.16,0.24 a 0.52,0.52 0 0 0 0,0.27 1,1 0 0 0 0.3,0.39 1.25,1.25 0 0 0 0.92,0.2 c 0.34,-0.1 0.38,-0.45 0.45,-0.56 a 3,3 0 0 0 0.26,-0.45 l 0.09,-0.21 z"
         id="path16764"
         style="fill:url(#linear-gradient-52);stroke-width:0.976361" />
      <path
         class="cls-77"
         d="m 38.43,11.56 a 2.14,2.14 0 0 1 -0.15,0.23 c -0.06,0.16 -0.14,0.49 -0.45,0.56 a 1,1 0 0 1 -0.3,0 1.55,1.55 0 0 1 -0.06,-0.23 c 0,-0.08 0,-0.16 0,-0.24 a 3.55,3.55 0 0 1 -0.06,-0.47 4.86,4.86 0 0 1 0,-0.66 v -0.34 a 1.8,1.8 0 0 1 0.06,-0.32 v 0 l 0.25,0.21 c 0,0.06 0,0.11 -0.06,0.15 a 0.89,0.89 0 0 0 0.58,1.09 0.5,0.5 0 0 0 0.19,0.02 z"
         id="path16766"
         style="fill:url(#linear-gradient-53);stroke-width:0.976361" />
      <path
         class="cls-78"
         d="M 39.21,8.8 A 0.8,0.8 0 0 0 38.1,9.25 L 37.89,9.76 A 0.29,0.29 0 0 0 37.72,9.62 0.37,0.37 0 0 0 37.34,9.94 c 0,0.22 0,0.42 0.2,0.46 h 0.08 a 0.2,0.2 0 0 0 0,0.11 0.93,0.93 0 0 0 0.61,1 c 0.55,0.23 0.83,-0.27 1,-0.52 0.17,-0.25 0.41,-0.93 0.61,-1.41 0.2,-0.48 -0.4,-0.69 -0.63,-0.78 z"
         id="path16768"
         style="fill:url(#linear-gradient-54);stroke-width:0.976361" />
      <path
         class="cls-46"
         d="m 39.32,8.55 a 1.36,1.36 0 0 0 -1.55,0.11 2.29,2.29 0 0 0 -0.33,1.08 0.29,0.29 0 0 1 0.28,-0.11 l 0.12,0.06 c 0,0 0,0.18 0.18,0.06 a 0.53,0.53 0 0 0 0.13,-0.2 c 0.06,-0.19 0.15,-0.38 0.32,-0.42 0.17,-0.04 0.29,0.1 0.38,0.21 a 0.89,0.89 0 0 0 0.46,0.28 0.59,0.59 0 0 0 0.46,0 0.9,0.9 0 0 0 0.11,-0.22 C 39.92,9.22 39.9,8.84 39.32,8.55 Z"
         id="path16770"
         style="stroke-width:0.976361" />
      <path
         class="cls-79"
         d="m 39.89,9.27 a 0.51,0.51 0 0 1 -0.6,-0.18 1,1 0 0 0 -1,-0.37 c -0.41,0 -0.57,0.54 -0.65,0.91 A 0.31,0.31 0 0 0 37.42,9.74 2.29,2.29 0 0 1 37.75,8.66 1.36,1.36 0 0 1 39.3,8.55 c 0.51,0.24 0.6,0.55 0.59,0.72 z"
         id="path16772"
         style="fill:url(#linear-gradient-55);stroke-width:0.976361" />
      <path
         class="cls-46"
         d="m 40.82,23.77 a 7.3,7.3 0 0 1 -1.61,0.63 c -0.53,0.22 -0.77,0.27 -1.18,1.71 -0.41,1.44 -0.68,1.26 -0.64,1.79 a 1.89,1.89 0 0 0 1.74,1.36 c 0.91,0.07 1.29,0 1.59,-0.39 0.3,-0.39 -0.18,-0.48 1.72,-2.26 1,-1 1,-0.86 1.26,-1.37 0.26,-0.51 0.18,-0.95 -0.19,-1.13 -0.75,-0.36 -0.88,0 -1.38,-0.33"
         id="path16774"
         style="stroke-width:0.976361" />
      <path
         class="cls-80"
         d="m 40.82,23.77 a 7.3,7.3 0 0 1 -1.61,0.63 c -0.53,0.22 -0.77,0.27 -1.18,1.71 -0.41,1.44 -0.68,1.26 -0.64,1.79 a 1.89,1.89 0 0 0 1.74,1.36 c 0.91,0.07 1.29,-0.11 1.59,-0.46 0.3,-0.35 -0.09,-0.54 1.72,-2.19 1,-0.95 1,-0.86 1.26,-1.37 0.26,-0.51 0.18,-0.95 -0.19,-1.13 -0.75,-0.36 -0.88,0 -1.38,-0.33"
         id="path16776"
         style="fill:url(#linear-gradient-56);stroke-width:0.976361" />
      <path
         class="cls-48"
         d="m 43.09,24 c 0.38,-0.09 0.83,0.35 0.75,1 -0.08,0.65 -0.24,1.89 -0.27,2.55"
         id="path16778" />
      <path
         class="cls-81"
         d="m 39.77,24.93 a 8.56,8.56 0 0 0 1.39,-0.56 c 0.42,-0.21 -0.32,-0.45 -0.32,-0.45 L 39,24.61"
         id="path16780"
         style="fill:url(#New_Gradient_Swatch_13-6);stroke-width:0.976361" />
      <path
         class="cls-48"
         d="m 38.29,25.31 c -0.08,0.21 -0.17,0.47 -0.26,0.8 -0.42,1.45 -0.68,1.26 -0.64,1.79 a 1.89,1.89 0 0 0 1.74,1.36 c 0.91,0.07 1.6,-0.1 1.65,-0.56 0.06,-0.7 0.64,-1.11 1.66,-2.09 l 0.35,-0.34"
         id="path16782" />
      <path
         class="cls-82"
         d="m 38,30.89 a 3.27,3.27 0 0 1 0.67,1.46 0.94,0.94 0 0 1 -0.12,0.73 0.23,0.23 0 0 1 -0.32,0 1.78,1.78 0 0 1 -0.43,-0.69 2.38,2.38 0 0 0 -0.49,-0.69"
         id="path16784"
         style="fill:url(#linear-gradient-57);stroke-width:0.976361" />
      <path
         class="cls-45"
         d="m 38,30.89 a 3.27,3.27 0 0 1 0.67,1.46 0.94,0.94 0 0 1 -0.12,0.73 0.23,0.23 0 0 1 -0.32,0 1.78,1.78 0 0 1 -0.43,-0.69 2.38,2.38 0 0 0 -0.49,-0.69"
         id="path16786" />
      <path
         class="cls-46"
         d="m 39.35,24.46 c 0.39,0.09 0.48,0.62 0.49,0.81 a 2,2 0 0 1 -0.34,1.13 9.45,9.45 0 0 1 -0.7,0.74 13.49,13.49 0 0 0 -1,1.12 c 0,0 0.22,1.28 0.32,1.7 0.06,0.21 0.22,0.73 0.29,0.93 a 1.17,1.17 0 0 1 0.07,0.25 0.44,0.44 0 0 1 -0.09,0.33 1.15,1.15 0 0 1 -0.6,0.33 0.76,0.76 0 0 1 -0.95,-0.37 c 0,0 -1,-2.68 -0.65,-3.54 A 9.42,9.42 0 0 1 39,24.5 a 0.71,0.71 0 0 1 0.37,0"
         id="path16788"
         style="stroke-width:0.976361" />
      <path
         class="cls-83"
         d="m 39.77,24.93 c -1.09,0.17 -2.61,2.68 -2.8,3.14 a 7.56,7.56 0 0 0 0.59,3.76 0.69,0.69 0 0 1 -0.7,-0.39 c 0,0 -0.79,-2.66 -0.47,-3.52 0.32,-0.86 1.88,-3.15 2.59,-3.41 0.24,-0.08 0.49,-0.2 0.61,-0.07 a 0.55,0.55 0 0 1 0.18,0.49 z"
         id="path16790"
         style="fill:url(#New_Gradient_Swatch_13-7);stroke-width:0.976361" />
      <path
         class="cls-12"
         d="m 16.49,28.47 15.32,7.38 V 33.07 A 3.67,3.67 0 0 0 30.66,30.24 L 26,26.44 a 3,3 0 0 0 -0.33,-0.21 l -9.13,-4.4 z"
         id="path16792"
         style="stroke-width:0.976361" />
      <polygon
         class="cls-30"
         points="25.94,26.39 25.94,33.02 25.07,32.6 25.07,25.97 "
         id="polygon16794"
         style="stroke-width:0.976361" />
      <polygon
         class="cls-30"
         points="22.79,24.87 22.79,31.51 21.92,31.09 21.92,24.45 "
         id="polygon16796"
         style="stroke-width:0.976361" />
      <polygon
         class="cls-30"
         points="19.64,23.35 19.64,29.99 18.77,29.57 18.77,22.93 "
         id="polygon16798"
         style="stroke-width:0.976361" />
      <polygon
         class="cls-30"
         points="29.09,28.76 29.09,34.54 28.22,34.12 28.22,28.34 "
         id="polygon16800"
         style="stroke-width:0.976361" />
      <path
         class="cls-84"
         d="m 30.76,29.7 -4.71,-3.79 a 2,2 0 0 0 -0.43,-0.27 l -9.13,-4.4 V 20.07 L 15.31,17.85 14,17.23 a 0.34,0.34 0 0 1 0,-0.61 c -0.41,0.19 -0.63,0.43 -0.63,0.68 v 0.37 a 0.72,0.72 0 0 0 0.4,0.64 l 1.18,0.57 0.68,1.27 v 7.91 l 0.85,0.41 v 0 l 15.32,7.38 v 0 l 0.42,0.2 V 33 a 4.48,4.48 0 0 0 -1.46,-3.3 z"
         id="path16802"
         style="fill:url(#linear-gradient-58);stroke-width:0.976361" />
      <path
         class="cls-18"
         d="m 33.1,35.63 v -3 a 4.49,4.49 0 0 0 -1.48,-3.31 l -4.71,-3.79 a 2,2 0 0 0 -0.42,-0.28 l -9.13,-4.4 -0.87,0.43 9.13,4.4 a 2,2 0 0 1 0.43,0.27 l 4.71,3.79 A 4.48,4.48 0 0 1 32.23,33 v 3 z"
         id="path16804"
         style="stroke-width:0.976361" />
      <path
         class="cls-85"
         d="m 33.1,35.63 v -3 a 4.49,4.49 0 0 0 -1.48,-3.31 l -4.71,-3.79 a 2,2 0 0 0 -0.42,-0.28 l -9.13,-4.4 -0.87,0.43 9.13,4.4 a 2,2 0 0 1 0.43,0.27 l 4.71,3.79 A 4.48,4.48 0 0 1 32.23,33 v 3 z"
         id="path16806"
         style="fill:url(#linear-gradient-59);stroke-width:0.976361" />
      <path
         class="cls-30"
         d="m 32.23,36.05 -0.85,-0.41 v -3 A 2.49,2.49 0 0 0 30.57,30.81 L 25.86,27 25.62,26.85 16.49,22.45 v -1.21 l 9.13,4.4 a 2,2 0 0 1 0.43,0.27 l 4.71,3.79 a 4.48,4.48 0 0 1 1.47,3.3 z"
         id="path16808"
         style="stroke-width:0.976361" />
      <path
         class="cls-86"
         d="m 32.16,32.24 a 4.08,4.08 0 0 1 0.07,0.77 v 3 l 0.87,-0.42 v -3 a 5.12,5.12 0 0 0 -0.07,-0.77 z"
         id="path16810"
         style="fill:url(#linear-gradient-60);stroke-width:0.976361" />
      <path
         class="cls-48"
         d="m 39.42,26.62 a 5,5 0 0 0 -0.62,0.52 13.49,13.49 0 0 0 -1,1.12 c 0,0 0.22,1.28 0.32,1.7 0.06,0.21 0.22,0.73 0.29,0.93 a 1.17,1.17 0 0 1 0.07,0.25 0.44,0.44 0 0 1 -0.09,0.33 1.15,1.15 0 0 1 -0.6,0.33 0.76,0.76 0 0 1 -0.95,-0.37 c 0,0 -0.78,-2.65 -0.46,-3.52 0.32,-0.87 1.9,-3.13 2.62,-3.41 0.42,-0.17 2.28,-0.78 3.16,-1.1"
         id="path16812" />
      <path
         class="cls-65"
         d="M 44.11,21.7 A 0.87,0.87 0 0 0 43.37,21.64 1.09,1.09 0 0 0 43.1,21.83 L 43,22 c 0,0.07 0,0.16 -0.11,0.21 a 0.67,0.67 0 0 1 -0.12,0.06 0.66,0.66 0 0 0 -0.24,0.2 4.59,4.59 0 0 0 -0.33,0.44 c -0.1,0.13 -0.16,0.27 -0.26,0.4 a 3.7,3.7 0 0 1 -0.37,0.42 l -0.19,0.18 c -0.08,0.07 -0.15,0.11 -0.18,0.22 a 0.62,0.62 0 0 0 0,0.27 1.06,1.06 0 0 0 0.26,0.43 1.31,1.31 0 0 0 0.89,0.3 c 0.35,-0.06 0.43,-0.41 0.51,-0.51 l 0.17,-0.21 c 0.4,0.08 0.66,-0.29 0.79,-0.48 0.13,-0.19 0.52,-0.88 0.77,-1.34 0.25,-0.46 -0.26,-0.77 -0.48,-0.89 z"
         id="path16814" />
      <path
         class="cls-66"
         d="m 44.25,21.47 a 1.34,1.34 0 0 0 -1.55,-0.07 2.21,2.21 0 0 0 -0.45,1 0.33,0.33 0 0 1 0.29,-0.08 0.21,0.21 0 0 1 0.11,0.08 c 0,0 0,0.18 0.17,0.07 a 0.44,0.44 0 0 0 0.15,-0.18 c 0.09,-0.18 0.19,-0.36 0.37,-0.39 0.18,-0.03 0.27,0.14 0.36,0.26 a 1,1 0 0 0 0.42,0.33 0.6,0.6 0 0 0 0.46,0 0.72,0.72 0 0 0 0.13,-0.21 c 0.06,-0.08 0.08,-0.46 -0.46,-0.81 z"
         id="path16816" />
      <path
         class="cls-87"
         d="m 42.2,22.75 a 2.56,2.56 0 0 1 -0.28,0.51 3.7,3.7 0 0 1 -0.37,0.42 l -0.19,0.18 c -0.08,0.07 -0.15,0.11 -0.18,0.22 a 0.62,0.62 0 0 0 0,0.27 1.06,1.06 0 0 0 0.26,0.43 1.31,1.31 0 0 0 0.89,0.3 c 0.35,-0.06 0.43,-0.41 0.51,-0.51 a 3.64,3.64 0 0 0 0.31,-0.42 l 0.12,-0.2 z"
         id="path16818"
         style="fill:url(#linear-gradient-61);stroke-width:0.976361" />
      <path
         class="cls-88"
         d="m 43,24.36 -0.17,0.21 c -0.08,0.15 -0.19,0.47 -0.51,0.5 a 1,1 0 0 1 -0.3,0 0.85,0.85 0 0 1 0,-0.23 1.94,1.94 0 0 1 0,-0.24 4.1,4.1 0 0 1 0,-0.49 c 0,-0.21 0,-0.43 0.05,-0.65 0.05,-0.22 0,-0.22 0.07,-0.33 a 3,3 0 0 1 0.09,-0.32 V 22.76 L 42.45,23 c 0,0.06 -0.06,0.11 -0.07,0.15 a 0.88,0.88 0 0 0 0.45,1.14 0.59,0.59 0 0 0 0.17,0.07 z"
         id="path16820"
         style="fill:url(#linear-gradient-62);stroke-width:0.976361" />
      <path
         class="cls-89"
         d="M 44.11,21.7 A 0.81,0.81 0 0 0 43,22 l -0.27,0.49 a 0.26,0.26 0 0 0 -0.15,-0.16 0.36,0.36 0 0 0 -0.41,0.28 c -0.07,0.2 0,0.42 0.15,0.47 h 0.07 a 0.36,0.36 0 0 0 0,0.11 0.91,0.91 0 0 0 0.49,1 c 0.53,0.29 0.86,-0.18 1,-0.4 0.14,-0.22 0.52,-0.88 0.77,-1.34 0.25,-0.46 -0.32,-0.63 -0.54,-0.75 z"
         id="path16822"
         style="fill:url(#linear-gradient-63);stroke-width:0.976361" />
      <path
         class="cls-46"
         d="m 44.25,21.47 a 1.34,1.34 0 0 0 -1.55,-0.07 2.21,2.21 0 0 0 -0.45,1 0.3,0.3 0 0 1 0.29,-0.08 0.21,0.21 0 0 1 0.11,0.08 c 0,0 0,0.18 0.17,0.07 a 0.44,0.44 0 0 0 0.15,-0.18 c 0.09,-0.18 0.19,-0.36 0.37,-0.39 0.18,-0.03 0.27,0.14 0.36,0.26 a 1,1 0 0 0 0.42,0.33 0.6,0.6 0 0 0 0.46,0 0.72,0.72 0 0 0 0.13,-0.21 c 0.06,-0.08 0.08,-0.46 -0.46,-0.81 z"
         id="path16824"
         style="stroke-width:0.976361" />
      <path
         class="cls-90"
         d="M 44.74,22.25 A 0.54,0.54 0 0 1 44.15,22 1,1 0 0 0 43.23,21.52 c -0.41,0 -0.63,0.48 -0.75,0.83 a 0.31,0.31 0 0 0 -0.23,0.09 2.21,2.21 0 0 1 0.45,-1 1.36,1.36 0 0 1 1.55,0.06 c 0.46,0.27 0.52,0.58 0.49,0.75 z"
         id="path16826"
         style="fill:url(#linear-gradient-64);stroke-width:0.976361" />
    </g>
  </g>
</svg>
