<?xml version="1.0" encoding="UTF-8" standalone="no"?>
<svg
   viewBox="0 0 48 48"
   version="1.1"
   id="svg133"
   sodipodi:docname="20-Technical.svg"
   inkscape:version="1.3.2 (091e20e, 2023-11-25, custom)"
   xmlns:inkscape="http://www.inkscape.org/namespaces/inkscape"
   xmlns:sodipodi="http://sodipodi.sourceforge.net/DTD/sodipodi-0.dtd"
   xmlns:xlink="http://www.w3.org/1999/xlink"
   xmlns="http://www.w3.org/2000/svg"
   xmlns:svg="http://www.w3.org/2000/svg">
  <sodipodi:namedview
     id="namedview133"
     pagecolor="#ffffff"
     bordercolor="#666666"
     borderopacity="1.0"
     inkscape:showpageshadow="2"
     inkscape:pageopacity="0.0"
     inkscape:pagecheckerboard="0"
     inkscape:deskcolor="#d1d1d1"
     inkscape:zoom="23.0208"
     inkscape:cx="23.9783"
     inkscape:cy="24"
     inkscape:current-layer="svg133" />
  <defs
     id="defs22">
    <radialGradient
       id="radial-gradient"
       cx="125.99"
       cy="-205.98"
       fx="125.99"
       fy="-205.98"
       r="8.45"
       gradientTransform="matrix(-0.286016,2.18133,-0.997406,-0.623495,-145.88,-367.92)"
       gradientUnits="userSpaceOnUse">
      <stop
         offset=".5"
         stop-color="#2c2c2c"
         stop-opacity=".5"
         id="stop1" />
      <stop
         offset=".99"
         stop-color="#2c2c2c"
         stop-opacity="0"
         id="stop2" />
    </radialGradient>
    <linearGradient
       id="linear-gradient"
       x1="9.65"
       y1="18.7"
       x2="42.91"
       y2="18.7"
       gradientTransform="matrix(1, 0, 0, 1, 0, 0)"
       gradientUnits="userSpaceOnUse">
      <stop
         offset="0"
         stop-color="#000"
         id="stop3" />
      <stop
         offset="1"
         stop-color="#555753"
         id="stop4" />
    </linearGradient>
    <linearGradient
       id="linear-gradient-2"
       x1="10.82"
       y1="15.1"
       x2="9.9"
       y2="11.85"
       xlink:href="#linear-gradient" />
    <linearGradient
       id="linear-gradient-3"
       x1="19.02"
       y1="34.79"
       x2="28.96"
       y2="34.79"
       gradientTransform="matrix(1, 0, 0, 1, 0, 0)"
       gradientUnits="userSpaceOnUse">
      <stop
         offset=".27"
         stop-color="#c8cdc3"
         id="stop5" />
      <stop
         offset=".89"
         stop-color="#686a65"
         id="stop6" />
    </linearGradient>
    <linearGradient
       id="linear-gradient-4"
       x1="28.79"
       y1="26.56"
       x2="8.74"
       y2="13.06"
       gradientTransform="matrix(1, 0, 0, 1, 0, 0)"
       gradientUnits="userSpaceOnUse">
      <stop
         offset=".11"
         stop-color="#eeeeec"
         id="stop7" />
      <stop
         offset=".89"
         stop-color="#686a65"
         id="stop8" />
    </linearGradient>
    <linearGradient
       id="linear-gradient-5"
       x1="37.74"
       y1="28.59"
       x2="30.42"
       y2="26.59"
       gradientTransform="matrix(1, 0, 0, 1, 0, 0)"
       gradientUnits="userSpaceOnUse">
      <stop
         offset="0"
         stop-color="#ad7fa8"
         stop-opacity=".7"
         id="stop9" />
      <stop
         offset="1"
         stop-color="#fff8f8"
         stop-opacity="0"
         id="stop10" />
    </linearGradient>
    <linearGradient
       id="linear-gradient-6"
       x1="29.43"
       y1="27.06"
       x2="33.69"
       y2="13.74"
       xlink:href="#linear-gradient-4" />
    <linearGradient
       id="linear-gradient-7"
       x1="14.14"
       y1="12.33"
       x2="14.7"
       y2="14.59"
       gradientTransform="matrix(1, 0, 0, 1, 0, 0)"
       gradientUnits="userSpaceOnUse">
      <stop
         offset="0"
         stop-color="#5c5c5c"
         id="stop11" />
      <stop
         offset=".71"
         stop-color="#fffdfd"
         stop-opacity=".19"
         id="stop12" />
    </linearGradient>
    <linearGradient
       id="linear-gradient-8"
       x1="21.52"
       y1="22.12"
       x2="25.1"
       y2="38.23"
       xlink:href="#linear-gradient-4" />
    <linearGradient
       id="linear-gradient-9"
       x1="32.02"
       y1="30.71"
       x2="34.82"
       y2="37.13"
       gradientTransform="matrix(1, 0, 0, 1, 0, 0)"
       gradientUnits="userSpaceOnUse">
      <stop
         offset="0"
         stop-color="#204a87"
         stop-opacity=".7"
         id="stop13" />
      <stop
         offset="1"
         stop-color="#fff8f8"
         id="stop14" />
    </linearGradient>
    <linearGradient
       id="linear-gradient-10"
       x1="19.64"
       y1="15.14"
       x2="19.17"
       y2="20.33"
       gradientTransform="matrix(1, 0, 0, 1, 0, 0)"
       gradientUnits="userSpaceOnUse">
      <stop
         offset="0"
         stop-color="#fff"
         stop-opacity=".1"
         id="stop15" />
      <stop
         offset="1"
         stop-color="#fff8f8"
         id="stop16" />
    </linearGradient>
    <linearGradient
       id="linear-gradient-11"
       x1="28.75"
       y1="20.03"
       x2="31.26"
       y2="24.62"
       xlink:href="#linear-gradient-10" />
    <linearGradient
       id="linear-gradient-12"
       x1="11.71"
       y1="14.15"
       x2="13.82"
       y2="17.52"
       xlink:href="#linear-gradient-5" />
    <linearGradient
       id="linear-gradient-13"
       x1="11.96"
       y1="27.94"
       x2="5.51"
       y2="16.73"
       gradientUnits="userSpaceOnUse">
      <stop
         offset=".11"
         stop-color="#d3d7cf"
         id="stop17" />
      <stop
         offset=".89"
         stop-color="#686a65"
         id="stop18" />
    </linearGradient>
    <linearGradient
       id="linear-gradient-14"
       x1="9.59"
       y1="16.85"
       x2="5.84"
       y2="24.29"
       xlink:href="#linear-gradient-7" />
    <linearGradient
       id="linear-gradient-15"
       x1="23.06"
       y1="24.87"
       x2="27.17"
       y2="41.99"
       gradientTransform="matrix(1, 0, 0, 1, 0, 0)"
       gradientUnits="userSpaceOnUse">
      <stop
         offset="0"
         stop-color="#a3b2c7"
         stop-opacity=".1"
         id="stop19" />
      <stop
         offset=".89"
         stop-color="#204a87"
         id="stop20" />
    </linearGradient>
    <linearGradient
       id="linear-gradient-16"
       x1="15.55"
       y1="19.46"
       x2="18.77"
       y2="34.46"
       gradientUnits="userSpaceOnUse">
      <stop
         offset="0"
         stop-color="#d6c5d3"
         stop-opacity=".2"
         id="stop21" />
      <stop
         offset=".67"
         stop-color="#ad7fa8"
         id="stop22" />
    </linearGradient>
    <linearGradient
       id="linear-gradient-17"
       x1="10.93"
       y1="20.52"
       x2="7.04"
       y2="27.86"
       xlink:href="#linear-gradient-15" />
    <linearGradient
       id="linear-gradient-18"
       x1="25.95"
       y1="37.09"
       x2="24.62"
       y2="25.41"
       xlink:href="#linear-gradient-10" />
    <linearGradient
       id="linear-gradient-19"
       x1="21.65"
       y1="21.9"
       x2="10.45"
       y2="38.06"
       xlink:href="#linear-gradient-3" />
    <linearGradient
       id="linear-gradient-20"
       x1="25.07"
       y1="39.97"
       x2="24.11"
       y2="31.39"
       xlink:href="#linear-gradient-7" />
    <linearGradient
       id="linear-gradient-21"
       x1="18.73"
       y1="27.45"
       x2="16.37"
       y2="30.67"
       xlink:href="#linear-gradient-7" />
    <linearGradient
       id="linear-gradient-22"
       x1="15.13"
       y1="29.52"
       x2="12.2"
       y2="26.95"
       xlink:href="#linear-gradient-7" />
    <linearGradient
       id="linear-gradient-23"
       x1="1.11"
       y1="22.48"
       x2="22.09"
       y2="24.97"
       xlink:href="#linear-gradient-9" />
    <linearGradient
       id="linear-gradient-24"
       x1="32.29"
       y1="26.25"
       x2="36.4"
       y2="28.76"
       xlink:href="#linear-gradient-4" />
    <linearGradient
       id="linear-gradient-25"
       x1="35.02"
       y1="28.45"
       x2="36.74"
       y2="28.45"
       xlink:href="#linear-gradient-4" />
    <linearGradient
       id="linear-gradient-26"
       x1="34.05"
       y1="26.66"
       x2="36.62"
       y2="26.66"
       xlink:href="#linear-gradient-4" />
    <linearGradient
       id="linear-gradient-27"
       x1="35.58"
       y1="26.17"
       x2="34.71"
       y2="29.06"
       xlink:href="#linear-gradient-4" />
    <linearGradient
       id="linear-gradient-28"
       x1="36.12"
       y1="27.59"
       x2="35.84"
       y2="31.38"
       xlink:href="#linear-gradient" />
    <linearGradient
       id="linear-gradient-29"
       x1="36.39"
       y1="26.38"
       x2="35.19"
       y2="29.6"
       xlink:href="#linear-gradient-4" />
    <linearGradient
       id="linear-gradient-30"
       x1="30.8"
       y1="29.95"
       x2="23.08"
       y2="29.8"
       xlink:href="#linear-gradient-7" />
    <linearGradient
       id="linear-gradient-31"
       x1="25.32"
       y1="20.11"
       x2="2.85"
       y2="19.68"
       xlink:href="#linear-gradient-7" />
    <linearGradient
       id="linear-gradient-32"
       x1="43.1"
       y1="26.94"
       x2="32.17"
       y2="28.63"
       xlink:href="#linear-gradient" />
    <linearGradient
       id="linear-gradient-33"
       x1="17.53"
       y1="27.61"
       x2="7.24"
       y2="34.41"
       xlink:href="#linear-gradient-10" />
    <linearGradient
       inkscape:collect="always"
       xlink:href="#linear-gradient"
       id="linearGradient133"
       gradientUnits="userSpaceOnUse"
       x1="9.65"
       y1="18.7"
       x2="42.91"
       y2="18.7" />
    <linearGradient
       inkscape:collect="always"
       xlink:href="#linear-gradient-3"
       id="linearGradient134"
       gradientUnits="userSpaceOnUse"
       x1="19.02"
       y1="34.79"
       x2="28.96"
       y2="34.79" />
    <linearGradient
       inkscape:collect="always"
       xlink:href="#linear-gradient-4"
       id="linearGradient135"
       gradientUnits="userSpaceOnUse"
       x1="28.79"
       y1="26.56"
       x2="8.74"
       y2="13.06" />
    <linearGradient
       inkscape:collect="always"
       xlink:href="#linear-gradient-5"
       id="linearGradient136"
       gradientUnits="userSpaceOnUse"
       x1="37.74"
       y1="28.59"
       x2="30.42"
       y2="26.59" />
    <linearGradient
       inkscape:collect="always"
       xlink:href="#linear-gradient-7"
       id="linearGradient137"
       gradientUnits="userSpaceOnUse"
       x1="14.14"
       y1="12.33"
       x2="14.7"
       y2="14.59" />
    <linearGradient
       inkscape:collect="always"
       xlink:href="#linear-gradient-9"
       id="linearGradient138"
       gradientUnits="userSpaceOnUse"
       x1="32.02"
       y1="30.71"
       x2="34.82"
       y2="37.13" />
    <linearGradient
       inkscape:collect="always"
       xlink:href="#linear-gradient-10"
       id="linearGradient139"
       gradientUnits="userSpaceOnUse"
       x1="19.64"
       y1="15.14"
       x2="19.17"
       y2="20.33" />
    <linearGradient
       inkscape:collect="always"
       xlink:href="#linear-gradient-15"
       id="linearGradient140"
       gradientUnits="userSpaceOnUse"
       x1="23.06"
       y1="24.87"
       x2="27.17"
       y2="41.99" />
  </defs>
  <g
     style="isolation:isolate;stroke-width:0.80529"
     id="g133"
     transform="matrix(1.24179,0,0,1.24179,-5.26899,-8.68263)">
    <g
       id="shadow"
       style="opacity:0.45;mix-blend-mode:multiply;stroke-width:0.80529">
      <ellipse
         cx="22.89"
         cy="35.55"
         rx="8.44"
         ry="18.45"
         transform="rotate(-89.56,22.8942,35.5495)"
         style="fill:url(#radial-gradient);stroke-width:0.80529"
         id="ellipse22" />
    </g>
    <g
       id="ART"
       style="stroke-width:0.80529">
      <path
         d="m 11.15,10.78 c 1.6,-0.8 8.83,-1.44 14.48,-0.9 5.65,0.54 5.54,2.61 9.42,5.74 3.49,2.81 6.47,4.2 7.5,6.59 1.01,2.34 -0.5,5.5 -0.5,5.5 0,0 1.4,-3.64 -1.01,-5.22 C 37.67,20.28 33.89,17.88 32.33,16.3 30.77,14.72 30.8,13 27.32,12.18 23.84,11.36 13.18,11.41 10.51,13.51 l -0.79,0.55 c 0,0 -0.56,-2.28 1.43,-3.28 z"
         style="fill:url(#linearGradient133);stroke-width:0.80529"
         id="path22" />
      <path
         d="m 9.38,15.47 c 0,0 -0.39,-1.7 0.2,-3.07 0.59,-1.37 1.57,-1.63 1.57,-1.63 0,0 -1.37,0.63 -0.93,2.07 0.44,1.44 1.14,1.5 1.14,1.5 l -1.99,1.12 z"
         style="fill:url(#linear-gradient-2);stroke-width:0.80529"
         id="path23" />
      <path
         d="m 19.06,31.35 c 0.14,0.85 1.39,3.29 4.75,4.49 2.89,1.04 5.14,0.11 5.14,0.11 0,0 -1.22,3.53 -6.13,1.8 -4.48,-1.57 -3.76,-6.4 -3.76,-6.4 z"
         style="fill:url(#linearGradient134);stroke-width:0.80529"
         id="path24" />
      <path
         d="m 19.06,31.35 c 0.14,0.85 1.39,3.29 4.75,4.49 2.89,1.04 5.14,0.11 5.14,0.11 0,0 -1.22,3.53 -6.13,1.8 -4.48,-1.57 -3.76,-6.4 -3.76,-6.4 z"
         style="fill:none;stroke:#babdb6;stroke-width:0.402645px;stroke-miterlimit:10"
         id="path25" />
      <path
         d="m 11.13,14.38 c 0.78,-0.78 1.15,-3.02 2.57,-3.16 1.42,-0.14 2.81,1.28 3.67,2.38 0.86,1.1 3.59,2.72 6.72,4.1 3.13,1.38 6,1.16 8.11,1.46 2.11,0.3 4.31,0.94 4.83,4.01 0.52,3.07 -0.04,8.45 -1.09,10 -1.53,2.26 -3.27,2.75 -5.32,3.01 -2.05,0.26 1.86,-6.89 1.86,-6.89 L 30.6,26.12 15.3,17.44 11.13,14.39 Z"
         style="fill:#ffffff;stroke:#231f20;stroke-width:0.563703px;stroke-miterlimit:10"
         id="path26" />
      <path
         d="m 35.94,33.17 c -1.4,2.07 -2.98,2.65 -4.79,2.93 -1.11,0.46 -2.2,0.75 -2.81,0.9 1.72,-1.42 2.69,-4.89 1.9,-7.02 C 29.43,27.76 27.6,25.82 25.13,24.43 22.67,23.04 16.63,19.41 14.88,18.34 13.13,17.27 10.35,16.5 9.04,16.6 L 8.86,18.89 C 7.67,18.24 6.94,17.84 6.94,17.84 c 0,0 2.65,-2.21 4.29,-3.57 0.72,-0.85 1.13,-2.91 2.48,-3.05 2.03,-0.2 3.05,1.98 4.39,3.09 1.75,1.45 3.93,2.47 6,3.39 3.12,1.39 6,1.17 8.11,1.47 2.1,0.3 4.3,0.93 4.83,4 0.52,3.08 -0.05,8.45 -1.1,10 z"
         style="fill:url(#linearGradient135);stroke-width:0.80529"
         id="path27" />
      <path
         d="m 35.94,33.17 c -1.4,2.07 -2.98,2.65 -4.79,2.93 -1.11,0.46 -2.2,0.75 -2.81,0.9 1.72,-1.42 2.69,-4.89 1.9,-7.02 C 29.43,27.76 27.6,25.82 25.13,24.43 22.67,23.04 16.63,19.41 14.88,18.34 13.13,17.27 10.35,16.5 9.04,16.6 L 8.86,18.89 C 7.67,18.24 6.94,17.84 6.94,17.84 c 0,0 2.65,-2.21 4.29,-3.57 0.72,-0.85 1.13,-2.91 2.48,-3.05 2.03,-0.2 3.05,1.98 4.39,3.09 1.75,1.45 3.93,2.47 6,3.39 3.12,1.39 6,1.17 8.11,1.47 2.1,0.3 4.3,0.93 4.83,4 0.52,3.08 -0.05,8.45 -1.1,10 z"
         style="fill:url(#linearGradient136);stroke-width:0.80529"
         id="path28" />
      <path
         d="m 36.31,26.72 c 0,0 0.49,-3.46 -0.86,-5.32 -0.84,-1.16 -1.81,-1.33 -3.72,-1.45 -1.91,-0.12 -4.01,-0.34 -5.64,-0.83 -1.63,-0.49 -0.93,0.82 0.98,1.2 1.91,0.38 9.24,6.4 9.24,6.4 z"
         style="fill:url(#linear-gradient-6);stroke-width:0.80529"
         id="path29" />
      <path
         d="m 12.6,13.13 c 0,0 0.58,-1.52 1.44,-1.42 0.86,0.1 1.59,0.99 1.99,1.46 0.4,0.47 -0.45,-0.22 -1.14,-0.42 -0.69,-0.2 -1.18,0.36 -1.18,0.36 z"
         style="mix-blend-mode:multiply;fill:url(#linearGradient137);stroke-width:0.80529"
         id="path30" />
      <path
         d="m 34.03,21.42 c -2.45,-1.32 -5.48,-0.32 -9.85,-2.21 -4.05,-1.76 -6.57,-2.99 -9.03,-5.56 -1.36,-1.41 -2.16,-0.81 -2.72,-0.37 -0.56,0.44 -5.72,3.89 -5.72,3.89 0,0 0.96,1.06 2.14,1.72 L 9.03,16.6 c 1.31,-0.1 4.09,0.67 5.84,1.74 1.75,1.07 7.79,4.7 10.25,6.09 2.46,1.39 4.3,3.33 5.11,5.55 0.78,2.13 -0.18,5.6 -1.9,7.03 1.02,-0.25 3.39,-0.92 4.98,-2.08 2.08,-1.52 2.53,-4.51 2.6,-7.23 C 36,24.03 35.3,22.11 34.03,21.43 Z"
         style="fill:url(#linear-gradient-8);stroke-width:0.80529"
         id="path31" />
      <path
         d="m 31.26,35.22 c 0.92,-0.48 2.04,-0.92 2.98,-2.23 0.94,-1.31 0.94,-2.39 0,-2.23 -0.94,0.16 -3.09,4.51 -2.98,4.47 z"
         style="fill:url(#linearGradient138);stroke-width:0.80529"
         id="path32" />
      <path
         d="m 14.15,16.64 c 1.8,1.24 4.55,2.97 7.05,3.43 2.5,0.46 4.33,0.32 2.81,-0.6 -1.52,-0.92 -8.02,-2.14 -9.86,-2.83 z"
         style="fill:url(#linearGradient139);stroke-width:0.80529"
         id="path33" />
      <path
         d="m 29.66,20.95 c 2.79,0.08 3.95,0.44 4.11,1.08 0.16,0.64 -1.46,2.6 -3.15,3.11 -1.69,0.51 -2.74,-1.25 -3.81,-1.72 -1.07,-0.47 1.06,-0.8 2.85,-0.56 1.79,0.24 0,-1.91 0,-1.91 z"
         style="fill:url(#linear-gradient-11);stroke-width:0.80529"
         id="path34" />
      <path
         d="m 9.45,15.62 c 0,0 1.16,-0.47 2.85,0.32 0.99,0.46 0.63,-1.77 2.47,-1.23 0.45,0.15 0.46,0.13 0.39,-0.07 -0.11,-0.29 -0.4,-0.7 -1.14,-1.04 -1.25,-0.56 -4.57,2.02 -4.57,2.02 z"
         style="fill:url(#linear-gradient-12);stroke-width:0.80529"
         id="path35" />
      <path
         d="m 14.12,29.51 c 0,0 -2.05,-0.86 -3.11,-2.95 -1.06,-2.09 -0.91,-8.28 -0.6,-9.46 0,0 -1.43,-0.2 -2.74,0.6 -1.31,0.8 -2.44,3.25 -2.14,5.93 0.3,2.68 2.8,6.42 4.87,7.13 2.07,0.71 3.71,-1.25 3.71,-1.25 z"
         style="fill:url(#linear-gradient-13);stroke-width:0.80529"
         id="path36" />
      <path
         d="m 14.12,29.51 c 0,0 -2.05,-0.86 -3.11,-2.95 -1.06,-2.09 -0.91,-8.28 -0.6,-9.46 0,0 -1.43,-0.2 -2.74,0.6 -1.31,0.8 -2.44,3.25 -2.14,5.93 0.3,2.68 2.8,6.42 4.87,7.13 2.07,0.71 3.71,-1.25 3.71,-1.25 z"
         style="fill:none;stroke:#babdb6;stroke-width:0.402645px;stroke-miterlimit:10"
         id="path37" />
      <path
         d="m 6.68,19.54 c 0.35,0.52 1.02,1.31 3.02,0.23 0,0 -0.15,-1.72 0.14,-2.77 0,0 -2.14,0.1 -3.16,2.54 z"
         style="mix-blend-mode:multiply;fill:url(#linear-gradient-14);stroke-width:0.80529"
         id="path38" />
      <g
         id="g62"
         style="stroke-width:0.80529">
        <g
           id="g43"
           style="stroke-width:0.80529">
          <ellipse
             cx="7.49"
             cy="25.22"
             rx="0.13"
             ry="0.28"
             transform="rotate(-9.01,7.46211,25.2356)"
             style="fill:#555753;stroke-width:0.80529"
             id="ellipse38" />
          <ellipse
             cx="7.92"
             cy="24.96"
             rx="0.13"
             ry="0.28"
             transform="rotate(-9.01,7.93133,24.9533)"
             style="fill:#555753;stroke-width:0.80529"
             id="ellipse39" />
          <ellipse
             cx="8.35"
             cy="24.71"
             rx="0.13"
             ry="0.28"
             transform="rotate(-9.01,8.3321,24.7295)"
             style="fill:#555753;stroke-width:0.80529"
             id="ellipse40" />
          <ellipse
             cx="8.79"
             cy="24.45"
             rx="0.13"
             ry="0.28"
             transform="rotate(-9.01,8.80132,24.4472)"
             style="fill:#555753;stroke-width:0.80529"
             id="ellipse41" />
          <ellipse
             cx="9.22"
             cy="24.2"
             rx="0.13"
             ry="0.28"
             transform="rotate(-9.01,9.20208,24.2234)"
             style="fill:#555753;stroke-width:0.80529"
             id="ellipse42" />
          <ellipse
             cx="9.65"
             cy="23.94"
             rx="0.13"
             ry="0.28"
             transform="rotate(-9.01,9.6713,23.9411)"
             style="fill:#555753;stroke-width:0.80529"
             id="ellipse43" />
        </g>
        <g
           id="g49"
           style="stroke-width:0.80529">
          <ellipse
             cx="6.99"
             cy="23.58"
             rx="0.28"
             ry="0.14"
             transform="rotate(-81.54,6.99386,23.5815)"
             style="fill:#555753;stroke-width:0.80529"
             id="ellipse44" />
          <ellipse
             cx="7.42"
             cy="23.33"
             rx="0.28"
             ry="0.14"
             transform="rotate(-81.54,7.42563,23.327)"
             style="fill:#555753;stroke-width:0.80529"
             id="ellipse45" />
          <ellipse
             cx="7.86"
             cy="23.07"
             rx="0.28"
             ry="0.14"
             transform="rotate(-81.54,7.85741,23.0725)"
             style="fill:#555753;stroke-width:0.80529"
             id="ellipse46" />
          <ellipse
             cx="8.29"
             cy="22.82"
             rx="0.28"
             ry="0.14"
             transform="rotate(-81.54,8.28918,22.818)"
             style="fill:#555753;stroke-width:0.80529"
             id="ellipse47" />
          <ellipse
             cx="8.72"
             cy="22.56"
             rx="0.28"
             ry="0.14"
             transform="rotate(-81.54,8.72095,22.5635)"
             style="fill:#555753;stroke-width:0.80529"
             id="ellipse48" />
          <ellipse
             cx="9.15"
             cy="22.3"
             rx="0.28"
             ry="0.14"
             transform="rotate(-81.54,9.15272,22.3089)"
             style="fill:#555753;stroke-width:0.80529"
             id="ellipse49" />
        </g>
        <g
           id="g55"
           style="stroke-width:0.80529">
          <ellipse
             cx="6.5"
             cy="21.95"
             rx="0.28"
             ry="0.14"
             transform="rotate(-81.54,6.49291,21.9465)"
             style="fill:#555753;stroke-width:0.80529"
             id="ellipse50" />
          <ellipse
             cx="6.93"
             cy="21.69"
             rx="0.28"
             ry="0.14"
             transform="rotate(-81.54,6.92468,21.692)"
             style="fill:#555753;stroke-width:0.80529"
             id="ellipse51" />
          <ellipse
             cx="7.36"
             cy="21.43"
             rx="0.28"
             ry="0.14"
             transform="rotate(-81.54,7.36145,21.4316)"
             style="fill:#555753;stroke-width:0.80529"
             id="ellipse52" />
          <ellipse
             cx="7.79"
             cy="21.18"
             rx="0.28"
             ry="0.14"
             transform="rotate(-81.54,7.79323,21.1771)"
             style="fill:#555753;stroke-width:0.80529"
             id="ellipse53" />
          <ellipse
             cx="8.23"
             cy="20.92"
             rx="0.28"
             ry="0.14"
             transform="rotate(-81.54,8.225,20.9226)"
             style="fill:#555753;stroke-width:0.80529"
             id="ellipse54" />
          <ellipse
             cx="8.66"
             cy="20.67"
             rx="0.28"
             ry="0.14"
             transform="rotate(-81.54,8.65677,20.6681)"
             style="fill:#555753;stroke-width:0.80529"
             id="ellipse55" />
        </g>
        <g
           id="g61"
           style="stroke-width:0.80529">
          <ellipse
             cx="6.88"
             cy="19.93"
             rx="0.28"
             ry="0.14"
             transform="rotate(-81.54,6.88089,19.9254)"
             style="fill:#555753;stroke-width:0.80529"
             id="ellipse56" />
          <ellipse
             cx="7.31"
             cy="19.67"
             rx="0.28"
             ry="0.14"
             transform="rotate(-81.54,7.31266,19.6709)"
             style="fill:#555753;stroke-width:0.80529"
             id="ellipse57" />
          <ellipse
             cx="7.75"
             cy="19.42"
             rx="0.28"
             ry="0.14"
             transform="rotate(-81.54,7.74443,19.4164)"
             style="fill:#555753;stroke-width:0.80529"
             id="ellipse58" />
          <ellipse
             cx="8.18"
             cy="19.16"
             rx="0.28"
             ry="0.14"
             transform="rotate(-81.54,8.1762,19.1618)"
             style="fill:#555753;stroke-width:0.80529"
             id="ellipse59" />
          <ellipse
             cx="8.61"
             cy="18.91"
             rx="0.28"
             ry="0.14"
             transform="rotate(-81.54,8.60798,18.9073)"
             style="fill:#555753;stroke-width:0.80529"
             id="ellipse60" />
          <ellipse
             cx="9.04"
             cy="18.65"
             rx="0.28"
             ry="0.14"
             transform="rotate(-81.54,9.03975,18.6528)"
             style="fill:#555753;stroke-width:0.80529"
             id="ellipse61" />
        </g>
      </g>
      <path
         d="m 20.26,21.63 c 0,0 0.4,9.77 2.57,16.96 l 5.51,-0.58 c 0,0 -1.77,-9.21 -1.63,-12.95 l -6.45,-3.42 z"
         style="mix-blend-mode:multiply;fill:url(#linearGradient140);stroke-width:0.80529"
         id="path62" />
      <path
         d="M 20.79,37.13 C 20.05,35.89 19.17,33.05 18.68,30.9 18.09,28.33 17.74,27.2 16.3,27.29 15.64,27.34 15.13,27.81 14.76,28.31 13.04,23.57 12.42,16.76 12.42,16.76 l 6.36,3.94 c -0.93,3.19 1.11,12.6 2.01,16.43 z"
         style="mix-blend-mode:multiply;fill:url(#linear-gradient-16);stroke-width:0.80529"
         id="path63" />
      <path
         d="m 6.94,17.84 c 0,0 0.07,7.29 4.47,12.28 0,0 -3.4,0.87 -4.89,-2.82 -1.49,-3.69 -1.47,-7.29 0.42,-9.46 z"
         style="mix-blend-mode:multiply;fill:url(#linear-gradient-17);stroke-width:0.80529"
         id="path64" />
      <path
         d="M 27.6,37.45 C 26.23,32.21 25.43,24.39 25.43,24.39 l -2.61,-0.86 c 0,0 0.81,9.73 2.85,14.41 l 1.92,-0.49 z"
         style="fill:url(#linear-gradient-18);stroke-width:0.80529"
         id="path65" />
      <path
         d="M 31.03,30.99 C 30.72,26.66 26.56,24.37 26.24,24.2 L 13.15,16.81 C 12.08,16.2 10.2,15.7 9.04,15.95 c -2,0.43 -4.21,2.4 -4.33,5.71 0,0.03 0,0.06 0,0.09 -0.08,2.75 0.82,5.61 2.6,7.73 1.5,1.78 4.67,3.07 6.68,1.34 0.52,-0.45 0.96,-1.04 1.38,-1.62 0.59,-0.81 1.23,-1.96 1.92,-0.53 0.4,0.82 0.48,1.74 0.7,2.61 0.71,2.8 1.08,5.79 4.14,7.02 1.11,0.45 2.18,0.67 3.18,0.67 1.22,0 2.32,-0.33 3.25,-0.99 1.82,-1.3 2.7,-3.78 2.47,-6.98 z m -3.38,5.75 c -1.26,0.9 -3.03,0.96 -5.01,0.17 -2.31,-0.93 -2.54,-3.36 -3.19,-5.94 -0.5,-1.99 -0.94,-3.71 -2.11,-4.38 -0.28,-0.16 -0.55,-0.23 -0.81,-0.23 -0.98,0 -1.75,1.05 -2.39,1.93 -0.37,0.51 -0.76,1.04 -1.15,1.38 -0.95,0.82 -2.44,0.4 -3.59,-0.25 -1,-0.57 -3.34,-3.57 -3.19,-7.65 0.09,-2.43 1.68,-4.03 3.2,-4.35 0.67,-0.14 2.15,0.19 3.04,0.69 l 3.24,1.83 c 0.15,0.11 0.42,0.33 0.6,0.57 0.4,0.54 0.22,1.82 1.48,2.37 0.5,0.22 1.02,0.07 1.42,-0.19 0.32,-0.21 0.82,-0.24 1.26,-0.06 l 5.1,2.88 h 0.02 c 0,0 3.71,1.98 3.96,5.53 0.19,2.68 -0.48,4.7 -1.88,5.7 z"
         style="fill:url(#linear-gradient-19);stroke-width:0.80529"
         id="path66" />
      <path
         d="m 18.79,33.85 c 0.7,0.3 1.16,1.2 1.52,1.83 0.96,1.7 2.73,2.48 4.98,2.44 2.25,-0.04 3.02,-0.97 3.8,-1.89 0.78,-0.92 1.08,-0.77 1.14,-0.36 0.06,0.41 -0.74,2.78 -4.14,3 -2.23,0.14 -5.24,-0.14 -6.42,-2.38 -0.43,-0.83 -0.85,-1.7 -0.88,-2.64 z"
         style="mix-blend-mode:multiply;fill:url(#linear-gradient-20);stroke-width:0.80529"
         id="path67" />
      <path
         d="m 16.15,26.89 c 0.8,-0.12 1.57,0.52 2.15,1.84 0.58,1.32 0.77,2.33 0.77,2.33 0,0 -1.35,-2.47 -2.13,-3.11 -0.78,-0.64 -0.79,-1.06 -0.79,-1.06 z"
         style="mix-blend-mode:multiply;fill:url(#linear-gradient-21);stroke-width:0.80529"
         id="path68" />
      <path
         d="m 13.73,30.66 c -0.81,0.47 -1.38,0.17 -1.11,-0.13 0.27,-0.3 0.8,-0.18 1.8,-1.54 1,-1.36 1.92,-1.97 2.67,-1.25 0.75,0.72 0.58,1.58 0.58,1.58 0,0 -0.38,-1.53 -1.36,-1.12 -0.98,0.41 -2.15,2.22 -2.15,2.22 l -0.42,0.25 z"
         style="mix-blend-mode:multiply;fill:url(#linear-gradient-22);stroke-width:0.80529"
         id="path69" />
      <path
         d="m 7.8,16.3 c 1.07,-0.37 2.39,-0.11 3.16,0.34 0.77,0.45 -3.52,-0.88 -4.93,3.01 -1.41,3.89 0.65,8.14 2.36,9.5 1.71,1.36 2.5,1.59 3.33,1.68 0.83,0.09 -3.89,0.91 -5.69,-3.24 C 4.23,23.44 4.36,20.47 5.15,19.05 5.94,17.63 7.8,16.3 7.8,16.3 Z"
         style="fill:url(#linear-gradient-23);stroke-width:0.80529"
         id="path70" />
      <g
         id="g94"
         style="stroke-width:0.80529">
        <g
           id="g75"
           style="stroke-width:0.80529">
          <ellipse
             cx="31.45"
             cy="33.51"
             rx="0.31"
             ry="0.15"
             transform="rotate(-72.51,31.4498,33.5174)"
             style="fill:#555753;stroke-width:0.80529"
             id="ellipse70" />
          <ellipse
             cx="31.93"
             cy="33.23"
             rx="0.31"
             ry="0.15"
             transform="rotate(-72.51,31.9371,33.2247)"
             style="fill:#555753;stroke-width:0.80529"
             id="ellipse71" />
          <ellipse
             cx="32.42"
             cy="32.94"
             rx="0.31"
             ry="0.15"
             transform="rotate(-72.51,32.4193,32.9388)"
             style="fill:#555753;stroke-width:0.80529"
             id="ellipse72" />
          <ellipse
             cx="32.9"
             cy="32.65"
             rx="0.31"
             ry="0.15"
             transform="rotate(-72.51,32.9084,32.6579)"
             style="fill:#555753;stroke-width:0.80529"
             id="ellipse73" />
          <ellipse
             cx="33.39"
             cy="32.37"
             rx="0.31"
             ry="0.15"
             transform="rotate(-72.51,33.3957,32.3652)"
             style="fill:#555753;stroke-width:0.80529"
             id="ellipse74" />
          <ellipse
             cx="33.88"
             cy="32.08"
             rx="0.31"
             ry="0.15"
             transform="rotate(-72.51,33.878,32.0793)"
             style="fill:#555753;stroke-width:0.80529"
             id="ellipse75" />
        </g>
        <g
           id="g81"
           style="stroke-width:0.80529">
          <ellipse
             cx="31.63"
             cy="31.19"
             rx="0.31"
             ry="0.15"
             transform="rotate(-72.51,31.6312,31.1971)"
             style="fill:#555753;stroke-width:0.80529"
             id="ellipse76" />
          <ellipse
             cx="32.11"
             cy="30.91"
             rx="0.31"
             ry="0.15"
             transform="rotate(-72.51,32.1185,30.9043)"
             style="fill:#555753;stroke-width:0.80529"
             id="ellipse77" />
          <ellipse
             cx="32.6"
             cy="30.62"
             rx="0.31"
             ry="0.15"
             transform="rotate(-72.51,32.6007,30.6185)"
             style="fill:#555753;stroke-width:0.80529"
             id="ellipse78" />
          <ellipse
             cx="33.08"
             cy="30.33"
             rx="0.31"
             ry="0.15"
             transform="rotate(-72.51,33.083,30.3326)"
             style="fill:#555753;stroke-width:0.80529"
             id="ellipse79" />
          <ellipse
             cx="33.57"
             cy="30.05"
             rx="0.31"
             ry="0.15"
             transform="rotate(-72.51,33.5703,30.0399)"
             style="fill:#555753;stroke-width:0.80529"
             id="ellipse80" />
          <ellipse
             cx="34.05"
             cy="29.76"
             rx="0.31"
             ry="0.15"
             transform="rotate(-72.51,34.0594,29.759)"
             style="fill:#555753;stroke-width:0.80529"
             id="ellipse81" />
        </g>
        <g
           id="g87"
           style="stroke-width:0.80529">
          <ellipse
             cx="31.47"
             cy="29.05"
             rx="0.15"
             ry="0.32"
             transform="rotate(-4.18,31.4515,29.1351)"
             style="fill:#555753;stroke-width:0.80529"
             id="ellipse82" />
          <ellipse
             cx="31.95"
             cy="28.76"
             rx="0.15"
             ry="0.32"
             transform="rotate(-4.19,31.9306,28.815)"
             style="fill:#555753;stroke-width:0.80529"
             id="ellipse83" />
          <ellipse
             cx="32.44"
             cy="28.48"
             rx="0.15"
             ry="0.32"
             transform="rotate(-4.19,32.3557,28.4199)"
             style="fill:#555753;stroke-width:0.80529"
             id="ellipse84" />
          <ellipse
             cx="32.92"
             cy="28.19"
             rx="0.15"
             ry="0.32"
             transform="rotate(-4.19,32.9124,28.1666)"
             style="fill:#555753;stroke-width:0.80529"
             id="ellipse85" />
          <ellipse
             cx="33.41"
             cy="27.9"
             rx="0.15"
             ry="0.32"
             transform="rotate(-4.19,33.3325,27.9082)"
             style="fill:#555753;stroke-width:0.80529"
             id="ellipse86" />
          <ellipse
             cx="33.89"
             cy="27.62"
             rx="0.15"
             ry="0.32"
             transform="rotate(-4.19,33.8892,27.6548)"
             style="fill:#555753;stroke-width:0.80529"
             id="ellipse87" />
        </g>
        <g
           id="g93"
           style="stroke-width:0.80529">
          <ellipse
             cx="30.89"
             cy="26.95"
             rx="0.15"
             ry="0.32"
             transform="rotate(-22.69,30.8889,26.9365)"
             style="fill:#555753;stroke-width:0.80529"
             id="ellipse88" />
          <ellipse
             cx="31.37"
             cy="26.66"
             rx="0.15"
             ry="0.32"
             transform="rotate(-22.68,31.3787,26.6516)"
             style="fill:#555753;stroke-width:0.80529"
             id="ellipse89" />
          <ellipse
             cx="31.86"
             cy="26.37"
             rx="0.15"
             ry="0.32"
             transform="rotate(-22.68,31.8476,26.3825)"
             style="fill:#555753;stroke-width:0.80529"
             id="ellipse90" />
          <ellipse
             cx="32.34"
             cy="26.09"
             rx="0.15"
             ry="0.32"
             transform="rotate(-22.68,32.3464,26.0936)"
             style="fill:#555753;stroke-width:0.80529"
             id="ellipse91" />
          <ellipse
             cx="32.83"
             cy="25.8"
             rx="0.15"
             ry="0.32"
             transform="rotate(-22.68,32.8203,25.7996)"
             style="fill:#555753;stroke-width:0.80529"
             id="ellipse92" />
          <ellipse
             cx="33.31"
             cy="25.51"
             rx="0.15"
             ry="0.32"
             transform="rotate(-22.68,33.3192,25.5106)"
             style="fill:#555753;stroke-width:0.80529"
             id="ellipse93" />
        </g>
      </g>
      <g
         id="g124"
         style="stroke-width:0.80529">
        <g
           id="g98"
           style="stroke-width:0.80529">
          <ellipse
             cx="26.86"
             cy="23.6"
             rx="0.15"
             ry="0.32"
             transform="rotate(-63.37,26.869,23.599)"
             style="fill:#babdb6;stroke-width:0.80529"
             id="ellipse94" />
          <ellipse
             cx="27.54"
             cy="23.2"
             rx="0.15"
             ry="0.32"
             transform="rotate(-63.37,27.5418,23.1976)"
             style="fill:#babdb6;stroke-width:0.80529"
             id="ellipse95" />
          <ellipse
             cx="28.23"
             cy="22.79"
             rx="0.15"
             ry="0.32"
             transform="rotate(-63.37,28.2277,22.7932)"
             style="fill:#babdb6;stroke-width:0.80529"
             id="ellipse96" />
          <ellipse
             cx="28.91"
             cy="22.39"
             rx="0.15"
             ry="0.32"
             transform="rotate(-63.37,28.9087,22.3969)"
             style="fill:#babdb6;stroke-width:0.80529"
             id="ellipse97" />
          <ellipse
             cx="29.59"
             cy="21.99"
             rx="0.15"
             ry="0.32"
             transform="rotate(-63.37,29.5865,21.9874)"
             style="fill:#babdb6;stroke-width:0.80529"
             id="ellipse98" />
        </g>
        <g
           id="g102"
           style="stroke-width:0.80529">
          <ellipse
             cx="25.45"
             cy="22.87"
             rx="0.15"
             ry="0.32"
             transform="rotate(-63.37,25.4512,22.8693)"
             style="fill:#babdb6;stroke-width:0.80529"
             id="ellipse99" />
          <ellipse
             cx="26.13"
             cy="22.47"
             rx="0.15"
             ry="0.32"
             transform="rotate(-63.37,26.1371,22.4648)"
             style="fill:#babdb6;stroke-width:0.80529"
             id="ellipse100" />
          <ellipse
             cx="26.81"
             cy="22.07"
             rx="0.15"
             ry="0.32"
             transform="rotate(-63.37,26.81,22.0635)"
             style="fill:#babdb6;stroke-width:0.80529"
             id="ellipse101" />
          <ellipse
             cx="27.49"
             cy="21.66"
             rx="0.15"
             ry="0.32"
             transform="rotate(-63.37,27.4959,21.6591)"
             style="fill:#babdb6;stroke-width:0.80529"
             id="ellipse102" />
        </g>
        <g
           id="g105"
           style="stroke-width:0.80529">
          <ellipse
             cx="24.04"
             cy="22.14"
             rx="0.15"
             ry="0.32"
             transform="rotate(-63.37,24.0416,22.1446)"
             style="fill:#babdb6;stroke-width:0.80529"
             id="ellipse103" />
          <ellipse
             cx="24.72"
             cy="21.74"
             rx="0.15"
             ry="0.32"
             transform="rotate(-63.37,24.7194,21.7352)"
             style="fill:#babdb6;stroke-width:0.80529"
             id="ellipse104" />
          <ellipse
             cx="25.4"
             cy="21.34"
             rx="0.15"
             ry="0.32"
             transform="rotate(-63.37,25.4003,21.3388)"
             style="fill:#babdb6;stroke-width:0.80529"
             id="ellipse105" />
        </g>
        <g
           id="g108"
           style="stroke-width:0.80529">
          <ellipse
             cx="22.62"
             cy="21.41"
             rx="0.15"
             ry="0.32"
             transform="rotate(-63.37,22.6238,21.4149)"
             style="fill:#babdb6;stroke-width:0.80529"
             id="ellipse106" />
          <ellipse
             cx="23.3"
             cy="21.01"
             rx="0.15"
             ry="0.32"
             transform="rotate(-63.37,23.3097,21.0105)"
             style="fill:#babdb6;stroke-width:0.80529"
             id="ellipse107" />
          <ellipse
             cx="23.98"
             cy="20.61"
             rx="0.15"
             ry="0.32"
             transform="rotate(-63.37,23.9825,20.6091)"
             style="fill:#babdb6;stroke-width:0.80529"
             id="ellipse108" />
        </g>
        <g
           id="g111"
           style="stroke-width:0.80529">
          <ellipse
             cx="15.89"
             cy="17.71"
             rx="0.13"
             ry="0.29"
             transform="rotate(-63.37,15.8948,17.7089)"
             style="fill:#babdb6;stroke-width:0.80529"
             id="ellipse109" />
          <ellipse
             cx="16.5"
             cy="17.36"
             rx="0.13"
             ry="0.29"
             transform="rotate(-63.37,16.5034,17.3574)"
             style="fill:#babdb6;stroke-width:0.80529"
             id="ellipse110" />
          <ellipse
             cx="17.1"
             cy="17"
             rx="0.13"
             ry="0.29"
             transform="rotate(-63.37,17.1038,17.0008)"
             style="fill:#babdb6;stroke-width:0.80529"
             id="ellipse111" />
        </g>
        <g
           id="g114"
           style="stroke-width:0.80529">
          <ellipse
             cx="14.75"
             cy="17.02"
             rx="0.13"
             ry="0.29"
             transform="rotate(-63.37,14.7508,17.0251)"
             style="fill:#babdb6;stroke-width:0.80529"
             id="ellipse112" />
          <ellipse
             cx="15.35"
             cy="16.67"
             rx="0.13"
             ry="0.29"
             transform="rotate(-63.37,15.3512,16.6686)"
             style="fill:#babdb6;stroke-width:0.80529"
             id="ellipse113" />
          <ellipse
             cx="15.96"
             cy="16.31"
             rx="0.13"
             ry="0.29"
             transform="rotate(-63.37,15.9597,16.3171)"
             style="fill:#babdb6;stroke-width:0.80529"
             id="ellipse114" />
        </g>
        <g
           id="g118"
           style="stroke-width:0.80529">
          <ellipse
             cx="13.61"
             cy="16.34"
             rx="0.13"
             ry="0.29"
             transform="rotate(-63.37,13.6067,16.3413)"
             style="fill:#babdb6;stroke-width:0.80529"
             id="ellipse115" />
          <ellipse
             cx="14.21"
             cy="15.98"
             rx="0.13"
             ry="0.29"
             transform="rotate(-63.37,14.2121,15.9767)"
             style="fill:#babdb6;stroke-width:0.80529"
             id="ellipse116" />
          <ellipse
             cx="14.81"
             cy="15.62"
             rx="0.13"
             ry="0.29"
             transform="rotate(-63.37,14.8125,15.6202)"
             style="fill:#babdb6;stroke-width:0.80529"
             id="ellipse117" />
          <ellipse
             cx="15.42"
             cy="15.27"
             rx="0.13"
             ry="0.29"
             transform="rotate(-63.37,15.4211,15.2686)"
             style="fill:#babdb6;stroke-width:0.80529"
             id="ellipse118" />
        </g>
        <g
           id="g123"
           style="stroke-width:0.80529">
          <ellipse
             cx="12.26"
             cy="15.78"
             rx="0.13"
             ry="0.29"
             transform="rotate(-63.37,12.2636,15.7807)"
             style="fill:#babdb6;stroke-width:0.80529"
             id="ellipse119" />
          <ellipse
             cx="12.86"
             cy="15.42"
             rx="0.13"
             ry="0.29"
             transform="rotate(-63.37,12.864,15.4242)"
             style="fill:#babdb6;stroke-width:0.80529"
             id="ellipse120" />
          <ellipse
             cx="13.47"
             cy="15.07"
             rx="0.13"
             ry="0.29"
             transform="rotate(-63.37,13.4644,15.0677)"
             style="fill:#babdb6;stroke-width:0.80529"
             id="ellipse121" />
          <ellipse
             cx="14.07"
             cy="14.71"
             rx="0.13"
             ry="0.29"
             transform="rotate(-63.37,14.0729,14.7161)"
             style="fill:#babdb6;stroke-width:0.80529"
             id="ellipse122" />
          <ellipse
             cx="14.67"
             cy="14.35"
             rx="0.13"
             ry="0.29"
             transform="rotate(-63.37,14.6783,14.3515)"
             style="fill:#babdb6;stroke-width:0.80529"
             id="ellipse123" />
        </g>
      </g>
      <polygon
         points="35.42,26.05 36.62,26.44 36.74,29.53 35.15,30.46 34.05,29.76 34.05,26.86 "
         style="fill:url(#linear-gradient-24);stroke-width:0.80529"
         id="polygon124" />
      <polygon
         points="36.74,29.53 36.62,26.44 35.02,27.28 35.15,30.46 "
         style="fill:url(#linear-gradient-25);stroke-width:0.80529"
         id="polygon125" />
      <polygon
         points="36.62,26.44 35.02,27.28 34.05,26.86 35.42,26.05 "
         style="fill:url(#linear-gradient-26);stroke-width:0.80529"
         id="polygon126" />
      <polygon
         points="34.47,29.64 34.48,27.43 35.04,27.63 35.13,30.07 "
         style="fill:url(#linear-gradient-27);stroke-width:0.80529"
         id="polygon127" />
      <ellipse
         cx="17.92"
         cy="21.89"
         rx="0.44"
         ry="0.58"
         transform="rotate(-28.63,17.9132,21.8933)"
         style="fill:#feffff;stroke-width:0.80529"
         id="ellipse127" />
      <path
         d="m 37.04,23.17 c -0.53,-3.07 -2.73,-3.7 -4.83,-4 -2.11,-0.3 -4.99,-0.08 -8.11,-1.47 -2.07,-0.92 -4.25,-1.93 -6,-3.39 -1.34,-1.11 -2.36,-3.29 -4.39,-3.09 -1.35,0.14 -1.63,1.95 -2.34,2.8 -0.59,0.49 -2.65,1.68 -3.21,2.03 -1.61,1.01 -3.33,2.72 -3.44,5.61 0,0.03 0,0.06 0,0.09 -0.08,2.75 0.82,5.61 2.6,7.73 1.5,1.78 4.67,3.07 6.68,1.34 0.52,-0.45 0.96,-1.04 1.38,-1.62 0.59,-0.81 1.23,-1.96 1.92,-0.53 0.4,0.82 0.48,1.74 0.7,2.61 0.71,2.8 1.08,5.79 4.14,7.02 1.11,0.45 2.18,0.67 3.18,0.67 1.22,0 2.54,-0.35 3.46,-1.01 0.35,-0.25 0.77,-0.56 1.11,-0.91 0.34,-0.35 0.77,-0.64 1.25,-0.8 0.56,-0.18 1.23,-0.4 1.51,-0.49 1.2,-0.39 2.29,-1.11 3.29,-2.59 1.05,-1.55 1.62,-6.92 1.1,-10 z"
         style="fill:none;stroke:#555753;stroke-width:0.563703px;stroke-miterlimit:10"
         id="path127" />
      <path
         d="m 37.5,27.24 c 0,0 -1.33,-0.16 -1.97,0.09 -0.64,0.25 -0.78,0.51 -0.81,0.85 v 2 c 0,0 1.61,-1.1 2.56,-0.97 l 0.21,-1.96 z"
         style="fill:url(#linear-gradient-28);stroke-width:0.80529"
         id="path128" />
      <polygon
         points="35.02,27.28 35.99,26.77 36.11,29.88 35.15,30.46 "
         style="fill:url(#linear-gradient-29);stroke-width:0.80529"
         id="polygon128" />
      <path
         d="m 26.8,25.72 c 1.26,0.73 2.81,1.9 3.2,4.7 0.39,2.8 -0.79,3.66 -0.79,3.66 0,0 2,-4.26 -2.41,-8.35 z"
         style="mix-blend-mode:multiply;fill:url(#linear-gradient-30);stroke-width:0.80529"
         id="path129" />
      <path
         d="m 23.25,22.7 c 0,0 -9.31,-5.32 -9.72,-5.44 -0.41,-0.12 2.73,2 4.76,3.23 2.03,1.23 4.96,2.21 4.96,2.21 z"
         style="fill:url(#linear-gradient-31);stroke-width:0.80529"
         id="path130" />
      <path
         d="m 34.72,28.17 c 0.04,0.25 0.95,0.39 1.51,-0.19 0.56,-0.58 0.8,-0.8 1.71,-0.83 0.91,-0.03 1.91,-0.05 3.28,-0.54 1.37,-0.49 1.66,-1.92 1.66,-1.92 0,0 -0.21,2.16 -0.85,3.27 -0.34,0.59 -1.46,1.18 -2.91,1.21 -1.45,0.03 -1.93,-0.04 -2.5,0.61 -0.57,0.65 -1.8,0.81 -1.9,0.39 z"
         style="fill:url(#linear-gradient-32);stroke-width:0.80529"
         id="path131" />
      <path
         d="m 27.65,36.74 c -1.26,0.9 -3.03,0.96 -5.01,0.17 -2.31,-0.93 -2.54,-3.36 -3.19,-5.94 -0.5,-1.99 -0.94,-3.71 -2.11,-4.38 -0.28,-0.16 -0.55,-0.23 -0.81,-0.23 -0.98,0 -1.75,1.05 -2.39,1.93 -0.37,0.51 -0.76,1.04 -1.15,1.38 -0.95,0.82 -2.44,0.4 -3.59,-0.25 -1,-0.57 -3.34,-3.57 -3.19,-7.65 0.09,-2.43 1.68,-4.03 3.2,-4.35 0.67,-0.14 2.15,0.19 3.04,0.69 l 3.24,1.83 c 0.15,0.11 0.42,0.33 0.6,0.57 0.4,0.54 0.22,1.82 1.48,2.37 0.5,0.22 1.02,0.07 1.42,-0.19 0.32,-0.21 0.82,-0.24 1.26,-0.06 l 5.1,2.88 h 0.02 c 0,0 3.71,1.98 3.96,5.53 0.19,2.68 -0.48,4.7 -1.88,5.7 z"
         style="fill:url(#linear-gradient-33);stroke-width:0.80529"
         id="path132" />
      <path
         d="m 27.65,36.74 c -1.26,0.9 -3.03,0.96 -5.01,0.17 -2.31,-0.93 -2.54,-3.36 -3.19,-5.94 -0.5,-1.99 -0.94,-3.71 -2.11,-4.38 -0.28,-0.16 -0.55,-0.23 -0.81,-0.23 -0.98,0 -1.75,1.05 -2.39,1.93 -0.37,0.51 -0.76,1.04 -1.15,1.38 -0.95,0.82 -2.44,0.4 -3.59,-0.25 -1,-0.57 -3.34,-3.57 -3.19,-7.65 0.09,-2.43 1.68,-4.03 3.2,-4.35 0.67,-0.14 2.15,0.19 3.04,0.69 l 3.24,1.83 c 0.15,0.11 0.42,0.33 0.6,0.57 0.4,0.54 0.22,1.82 1.48,2.37 0.5,0.22 1.02,0.07 1.42,-0.19 0.32,-0.21 0.82,-0.24 1.26,-0.06 l 5.1,2.88 h 0.02 c 0,0 3.71,1.98 3.96,5.53 0.19,2.68 -0.48,4.7 -1.88,5.7 z"
         style="fill:none;stroke:#555753;stroke-width:0.241587px;stroke-miterlimit:10"
         id="path133" />
    </g>
  </g>
</svg>
