<?xml version="1.0" encoding="UTF-8" standalone="no"?>
<!-- Created with Inkscape (http://www.inkscape.org/) -->

<svg
   width="48"
   height="48"
   viewBox="0 0 48 48"
   version="1.1"
   id="svg1"
   xml:space="preserve"
   inkscape:version="1.3 (0e150ed6c4, 2023-07-21)"
   sodipodi:docname="hydra.svg"
   xmlns:inkscape="http://www.inkscape.org/namespaces/inkscape"
   xmlns:sodipodi="http://sodipodi.sourceforge.net/DTD/sodipodi-0.dtd"
   xmlns:xlink="http://www.w3.org/1999/xlink"
   xmlns="http://www.w3.org/2000/svg"
   xmlns:svg="http://www.w3.org/2000/svg"><sodipodi:namedview
     id="namedview1"
     pagecolor="#ffffff"
     bordercolor="#666666"
     borderopacity="1.0"
     inkscape:showpageshadow="2"
     inkscape:pageopacity="0.0"
     inkscape:pagecheckerboard="0"
     inkscape:deskcolor="#d1d1d1"
     inkscape:document-units="px"
     inkscape:zoom="14.142136"
     inkscape:cx="19.26866"
     inkscape:cy="24.678027"
     inkscape:window-width="2560"
     inkscape:window-height="1378"
     inkscape:window-x="-6"
     inkscape:window-y="-6"
     inkscape:window-maximized="1"
     inkscape:current-layer="layer1" /><defs
     id="defs1" /><g
     inkscape:label="Layer 1"
     inkscape:groupmode="layer"
     id="layer1"><image
       width="357.06668"
       height="164.8"
       preserveAspectRatio="none"
       xlink:href="file:///G:/My%20Drive/Hydra-blender.jpg"
       id="image1"
       x="-319.5719"
       y="63.943649"
       style="stroke-width:4.07767" /><g
       id="g11"
       transform="matrix(1.1040411,0,0,1.1044193,-2.879152,-2.5802782)"
       style="stroke-width:0.905608"><path
         style="fill:#cf80ad;fill-opacity:1;fill-rule:evenodd;stroke:none;stroke-width:0.0905608;stroke-linecap:butt;stroke-linejoin:round;stroke-dasharray:none;stroke-opacity:1"
         d="M 3.4,24.1 13.75,6.25 34.5,6.4 24.2,9 l -4.7,6.2 0.75,1.2 -4.65,8 4.5,7.55 -0.9,2.15 -7.8,-1.25 z"
         id="path11"
         sodipodi:nodetypes="ccccccccccc" /><path
         style="fill:#e19fc2;fill-opacity:1;fill-rule:evenodd;stroke:none;stroke-width:0.0905608;stroke-linecap:butt;stroke-linejoin:miter;stroke-dasharray:none;stroke-opacity:1"
         d="m 24.35,9.4 -11.4,9.4 -1.65,14 7.65,1.55 1.65,-2.45 -4.65,-7.55 4.80597,-7.649164 -0.567899,-0.931049 z"
         id="path10"
         sodipodi:nodetypes="ccccccccc" /><path
         style="fill:#eaaece;fill-opacity:1;fill-rule:evenodd;stroke:none;stroke-width:0.0905608;stroke-linecap:butt;stroke-linejoin:miter;stroke-dasharray:none;stroke-opacity:1"
         d="M 20.3,32 12.9,18.65 3.25,24.1 11.55228,32.863684 19.1,33.7 Z"
         id="path9"
         sodipodi:nodetypes="cccccc" /><path
         style="fill:#d98ab1;fill-opacity:1;fill-rule:evenodd;stroke:none;stroke-width:0.0905608;stroke-linecap:butt;stroke-linejoin:miter;stroke-dasharray:none;stroke-opacity:1"
         d="M 11.45,33 14.3,6.25 3.35,24.3 Z"
         id="path7" /><path
         style="fill:#d59bbc;fill-opacity:1;fill-rule:evenodd;stroke:none;stroke-width:0.0905608;stroke-linecap:butt;stroke-linejoin:miter;stroke-dasharray:none;stroke-opacity:1"
         d="m 3.35,24.05 15.9,9.85 -8.2,-1.25 z"
         id="path8" /></g><g
       id="g26"
       transform="matrix(1.1040411,0,0,1.1044193,-2.879152,-2.5802782)"
       style="stroke-width:0.905608"><path
         style="fill:#9b2253;fill-opacity:1;fill-rule:evenodd;stroke:none;stroke-width:0.0905608;stroke-linecap:butt;stroke-linejoin:round;stroke-dasharray:none;stroke-opacity:1"
         d="M 34.973947,6.4815156 45.241983,24.37879 34.721564,42.2647 37.62876,32.047156 l -3.013138,-7.172935 -1.414273,0.04829 -4.59624,-8.031007 -8.010777,0.220558 -0.986081,-1.820291 4.598937,-6.16103 z"
         id="path16"
         sodipodi:nodetypes="ccccccccccc" /><path
         style="fill:#b04079;fill-opacity:1;fill-rule:evenodd;stroke:none;stroke-width:0.0905608;stroke-linecap:butt;stroke-linejoin:miter;stroke-dasharray:none;stroke-opacity:1"
         d="m 37.207411,31.976694 -2.428,-14.5748 -11.292041,-8.4387386 -3.899619,6.1991636 0.940907,2.054026 7.944468,0.0032 4.214457,7.990332 1.090284,-0.02534 z"
         id="path17"
         sodipodi:nodetypes="ccccccccc" /><path
         style="fill:#a5306e;fill-opacity:1;fill-rule:evenodd;stroke:none;stroke-width:0.0905608;stroke-linecap:butt;stroke-linejoin:miter;stroke-dasharray:none;stroke-opacity:1"
         d="M 20.415547,17.154079 34.934287,17.433727 35.04906,6.3516769 23.305916,9.149637 19.615654,15.122672 Z"
         id="path18"
         sodipodi:nodetypes="cccccc" /><path
         style="fill:#7f1850;fill-opacity:1;fill-rule:evenodd;stroke:none;stroke-width:0.0905608;stroke-linecap:butt;stroke-linejoin:miter;stroke-dasharray:none;stroke-opacity:1"
         d="M 23.239139,8.992844 44.96657,24.854866 34.825866,6.3380859 Z"
         id="path19" /><path
         style="fill:#92194d;fill-opacity:1;fill-rule:evenodd;stroke:none;stroke-width:0.0905608;stroke-linecap:butt;stroke-linejoin:miter;stroke-dasharray:none;stroke-opacity:1"
         d="M 35.042264,6.4632736 19.226001,15.258427 23.742396,8.8218702 Z"
         id="path20"
         sodipodi:nodetypes="cccc" /></g><path
       style="fill:#df1769;fill-opacity:1;fill-rule:evenodd;stroke:none;stroke-width:0.1;stroke-linecap:butt;stroke-linejoin:round;stroke-dasharray:none;stroke-opacity:1"
       d="m 34.454059,44.992684 -22.78032,0.02224 -10.98103042,-20.725432 9.01804652,9.259895 8.5656739,1.555078 0.924592,-2.397292 8.71651,-0.634988 4.76584,-7.069829 2.629626,-0.06035 3.05562,7.556051 z"
       id="path21"
       sodipodi:nodetypes="ccccccccccc" /><path
       style="fill:#ed2779;fill-opacity:1;fill-rule:evenodd;stroke:none;stroke-width:0.1;stroke-linecap:butt;stroke-linejoin:miter;stroke-dasharray:none;stroke-opacity:1"
       d="m 8.8004706,33.145139 15.2967644,5.669458 14.279127,-6.193306 -2.984919,-7.888896 -3.143568,-0.160789 -4.296217,7.470218 -8.667231,0.653416 -0.923865,2.412186 z"
       id="path22"
       sodipodi:nodetypes="ccccccccc" /><path
       style="fill:#ef408a;fill-opacity:1;fill-rule:evenodd;stroke:none;stroke-width:0.1;stroke-linecap:butt;stroke-linejoin:miter;stroke-dasharray:none;stroke-opacity:1"
       d="m 32.620153,24.471254 -8.638364,14.474325 10.55548,6.190339 3.759936,-12.790864 -3.388628,-7.6713 z"
       id="path23"
       sodipodi:nodetypes="cccccc" /><path
       style="fill:#f02376;fill-opacity:1;fill-rule:evenodd;stroke:none;stroke-width:0.1;stroke-linecap:butt;stroke-linejoin:miter;stroke-dasharray:none;stroke-opacity:1"
       d="m 38.484065,32.367074 -27.115426,12.122661 23.304069,0.43971 z"
       id="path24" /><path
       style="fill:#e01667;fill-opacity:1;fill-rule:evenodd;stroke:none;stroke-width:0.1;stroke-linecap:butt;stroke-linejoin:miter;stroke-dasharray:none;stroke-opacity:1"
       d="M 34.434068,45.068175 35.01628,24.419538 38.37186,32.94325 Z"
       id="path25" /><path
       style="fill:none;fill-rule:evenodd;stroke:#000000;stroke-width:1.5;stroke-linecap:butt;stroke-linejoin:round;stroke-dasharray:none;stroke-opacity:1"
       d="M 0.8745878,24.036227 12.301414,4.3223423 35.1322,4.2537225 23.838644,7.3594953 18.64965,14.206895 l 0.828032,1.325303 -5.133792,8.835355 4.968186,8.338365 -0.993638,2.374501 -8.6115212,-1.380524 z"
       id="path1"
       sodipodi:nodetypes="ccccccccccc" /><path
       style="fill:none;fill-rule:evenodd;stroke:#000000;stroke-width:1.5;stroke-linecap:butt;stroke-linejoin:round;stroke-dasharray:none;stroke-opacity:1"
       d="m 19.66223,16.091107 8.64778,-0.117141 4.857782,8.669692 H 35.26547 L 38.467189,32.595476 34.840022,44.454585 46.968307,24.533216 35.210268,4.3223423 24.00425,7.4147163 18.512458,14.170623 Z"
       id="path5"
       sodipodi:nodetypes="ccccccccccc" /><path
       style="fill:none;fill-rule:evenodd;stroke:#000000;stroke-width:1.5;stroke-linecap:butt;stroke-linejoin:round;stroke-dasharray:none;stroke-opacity:1"
       d="m 19.42248,32.429813 8.832328,-0.05522 4.416166,-7.675713 2.7049,0.05522 3.091315,7.730934 L 34.879056,44.578425 11.915,44.523203 0.92978993,24.146668 9.5413107,33.534231 18.208034,35.025197 Z"
       id="path2"
       sodipodi:nodetypes="ccccccccccc" /><path
       sodipodi:type="star"
       style="color:#000000;overflow:visible;fill:#f48e1f;fill-opacity:1;stroke:#000000;stroke-width:1.35841;stroke-linecap:round;stroke-linejoin:round;stroke-dasharray:none"
       id="path26"
       inkscape:flatsided="true"
       sodipodi:sides="6"
       sodipodi:cx="-178.39999"
       sodipodi:cy="131.5"
       sodipodi:r1="8.4219952"
       sodipodi:r2="7.2936616"
       sodipodi:arg1="1.0487047"
       sodipodi:arg2="1.5723035"
       inkscape:rounded="1.04083e-17"
       inkscape:randomized="0"
       d="m -174.19999,138.8 -8.42199,-0.0127 -4.2,-7.3 4.22199,-7.28731 8.42198,0.0127 4.2,7.3 z"
       transform="matrix(1.1040411,0,0,1.1044193,220.66777,-120.84486)" /></g></svg>
