<?xml version="1.0" encoding="UTF-8" standalone="no"?>
<svg
   viewBox="0 0 48 48"
   version="1.1"
   id="svg61"
   sodipodi:docname="logic.svg"
   inkscape:version="1.3.2 (091e20e, 2023-11-25, custom)"
   xmlns:inkscape="http://www.inkscape.org/namespaces/inkscape"
   xmlns:sodipodi="http://sodipodi.sourceforge.net/DTD/sodipodi-0.dtd"
   xmlns:xlink="http://www.w3.org/1999/xlink"
   xmlns="http://www.w3.org/2000/svg"
   xmlns:svg="http://www.w3.org/2000/svg">
  <sodipodi:namedview
     id="namedview61"
     pagecolor="#ffffff"
     bordercolor="#666666"
     borderopacity="1.0"
     inkscape:showpageshadow="2"
     inkscape:pageopacity="0.0"
     inkscape:pagecheckerboard="0"
     inkscape:deskcolor="#d1d1d1"
     inkscape:zoom="16.2929"
     inkscape:cx="23.9368"
     inkscape:cy="23.6913"
     inkscape:current-layer="svg61" />
  <defs
     id="defs21">
    <linearGradient
       id="linearGradient72"
       inkscape:collect="always">
      <stop
         style="stop-color:#000000;stop-opacity:0.670732;"
         offset="0"
         id="stop72" />
      <stop
         style="stop-color:#000000;stop-opacity:0;"
         offset="1"
         id="stop73" />
    </linearGradient>
    <linearGradient
       id="linearGradient67"
       inkscape:collect="always">
      <stop
         style="stop-color:#8ae234;stop-opacity:1;"
         offset="0"
         id="stop67" />
      <stop
         style="stop-color:#8ae234;stop-opacity:1;"
         offset="0.5"
         id="stop69" />
      <stop
         style="stop-color:#8ae234;stop-opacity:0;"
         offset="1"
         id="stop68" />
    </linearGradient>
    <radialGradient
       id="radial-gradient"
       cx="13.8"
       cy="14.38"
       fx="13.8"
       fy="14.38"
       r="25.15"
       gradientTransform="matrix(0.050749,0.678104,-0.364019,0.093744,28.71,27.39)"
       gradientUnits="userSpaceOnUse">
      <stop
         offset=".39"
         stop-color="#1a1718"
         stop-opacity=".5"
         id="stop1" />
      <stop
         offset=".84"
         stop-color="#1a1718"
         stop-opacity="0"
         id="stop2" />
    </radialGradient>
    <linearGradient
       id="linear-gradient"
       x1="24.34"
       y1="3.91"
       x2="23.52"
       y2="15.23"
       gradientTransform="matrix(1, 0, 0, 1, 0, 0)"
       gradientUnits="userSpaceOnUse">
      <stop
         offset=".2"
         stop-color="#fff"
         stop-opacity="0"
         id="stop3" />
      <stop
         offset="1"
         stop-color="#fff7f7"
         id="stop4" />
    </linearGradient>
    <linearGradient
       id="linear-gradient-2"
       x1="27.02"
       y1="24.53"
       x2="75.33"
       y2="60.2"
       gradientTransform="matrix(1, 0, 0, 1, 0, 0)"
       gradientUnits="userSpaceOnUse">
      <stop
         offset="0"
         stop-color="#888a85"
         id="stop5" />
      <stop
         offset="1"
         stop-color="#d3d7cf"
         id="stop6" />
    </linearGradient>
    <linearGradient
       id="linear-gradient-3"
       x1="39.03"
       y1="33.89"
       x2="19.9"
       y2="18.39"
       gradientTransform="matrix(1, 0, 0, 1, 0, 0)"
       gradientUnits="userSpaceOnUse">
      <stop
         offset="0"
         stop-color="#b9bcb5"
         stop-opacity="0"
         id="stop7" />
      <stop
         offset="1"
         stop-color="#2e3436"
         id="stop8" />
    </linearGradient>
    <linearGradient
       id="linear-gradient-4"
       x1="23.65"
       y1="10.4"
       x2="24.57"
       y2="5.75"
       xlink:href="#linear-gradient"
       gradientTransform="matrix(1.12211,0,0,1.12077,-3.71796,-3.4202)" />
    <linearGradient
       id="linear-gradient-5"
       x1="23.65"
       y1="10.4"
       x2="24.57"
       y2="5.75"
       xlink:href="#linear-gradient"
       gradientTransform="matrix(1.12211,0,0,1.12077,-3.71796,-3.4202)" />
    <linearGradient
       id="linear-gradient-6"
       x1="18.26"
       y1="-1.49"
       x2="28.22"
       y2="63.48"
       xlink:href="#linear-gradient-2" />
    <linearGradient
       id="linear-gradient-7"
       x1="22.44"
       y1="-12.86"
       x2="22.31"
       y2="40.11"
       xlink:href="#linear-gradient"
       gradientTransform="matrix(1.12211,0,0,1.12077,-3.71796,-3.4202)" />
    <linearGradient
       id="linear-gradient-8"
       x1="16.11"
       y1="17.93"
       x2="23.44"
       y2="25.26"
       gradientTransform="matrix(0.593874,0.759789,-0.45092,1.02576,11.1117,-13.785)"
       gradientUnits="userSpaceOnUse">
      <stop
         offset="0"
         stop-color="#8ae234"
         id="stop9" />
      <stop
         offset="1"
         stop-color="#4e9a06"
         id="stop10" />
    </linearGradient>
    <linearGradient
       id="linear-gradient-9"
       x1="20.18"
       y1="20.56"
       x2="24.71"
       y2="24.43"
       gradientTransform="matrix(0.850868,0.454732,0.002873,1.12012,4.58565,-17.0936)"
       gradientUnits="userSpaceOnUse">
      <stop
         offset=".19"
         stop-color="#aeff7e"
         stop-opacity="0"
         id="stop11" />
      <stop
         offset="1"
         stop-color="#fff7f7"
         id="stop12" />
    </linearGradient>
    <linearGradient
       id="linear-gradient-10"
       x1="19.72"
       y1="21.61"
       x2="14.76"
       y2="16.79"
       gradientTransform="translate(7.4 -12.2) rotate(28.15) scale(.86 .88) skewX(28.85)"
       gradientUnits="userSpaceOnUse">
      <stop
         offset=".34"
         stop-color="#fff"
         stop-opacity="0"
         id="stop13" />
      <stop
         offset=".95"
         stop-color="#fff7f7"
         id="stop14" />
    </linearGradient>
    <linearGradient
       id="linear-gradient-11"
       x1="18.35"
       y1="37.12"
       x2="24.11"
       y2="41.89"
       gradientTransform="matrix(0.850868,0.454732,0.002873,1.12012,4.58565,-17.0936)"
       gradientUnits="userSpaceOnUse">
      <stop
         offset=".18"
         stop-color="#f57878"
         stop-opacity="0"
         id="stop15" />
      <stop
         offset="1"
         stop-color="#fff7f7"
         id="stop16" />
    </linearGradient>
    <linearGradient
       id="linear-gradient-12"
       x1="18.47"
       y1="37.62"
       x2="14.36"
       y2="33.65"
       gradientTransform="matrix(0.850868,0.454732,0.002873,1.12012,4.58565,-17.0936)"
       gradientUnits="userSpaceOnUse">
      <stop
         offset=".18"
         stop-color="#fff7f7"
         stop-opacity="0"
         id="stop17" />
      <stop
         offset="1"
         stop-color="#fff7f7"
         id="stop18" />
    </linearGradient>
    <linearGradient
       id="linear-gradient-13"
       x1="22.59"
       y1="29.95"
       x2="20.58"
       y2="19.07"
       gradientTransform="matrix(1, 0, 0, 1, 0, 0)"
       gradientUnits="userSpaceOnUse">
      <stop
         offset=".11"
         stop-color="#c4a000"
         id="stop19" />
      <stop
         offset=".46"
         stop-color="#fce94f"
         id="stop20" />
      <stop
         offset="1"
         stop-color="#fce94f"
         id="stop21" />
    </linearGradient>
    <linearGradient
       id="linear-gradient-14"
       x1="21.26"
       y1="30.34"
       x2="21.61"
       y2="24.33"
       gradientTransform="matrix(1.3766,0.608391,-0.608877,1.3755,-5.97645,-16.8866)"
       xlink:href="#linear-gradient" />
    <linearGradient
       id="linear-gradient-15"
       x1="21.26"
       y1="30.34"
       x2="21.61"
       y2="24.33"
       gradientTransform="matrix(1.3766,0.608391,-0.608877,1.3755,-5.97645,-16.8866)"
       xlink:href="#linear-gradient" />
    <linearGradient
       id="linear-gradient-16"
       x1="21.1"
       y1="25.63"
       x2="22.17"
       y2="22.93"
       xlink:href="#linear-gradient-13" />
    <linearGradient
       id="linear-gradient-17"
       x1="21.27"
       y1="25.72"
       x2="22.71"
       y2="22.22"
       xlink:href="#linear-gradient-13" />
    <linearGradient
       id="linear-gradient-18"
       x1="21.73"
       y1="24.58"
       x2="21.04"
       y2="26.32"
       xlink:href="#linear-gradient-3" />
    <linearGradient
       id="linear-gradient-19"
       x1="21.59"
       y1="22.49"
       x2="20.19"
       y2="25.98"
       xlink:href="#linear-gradient-13" />
    <linearGradient
       id="linear-gradient-20"
       x1="18.56"
       y1="23"
       x2="20.7"
       y2="20.3"
       xlink:href="#linear-gradient-13" />
    <linearGradient
       id="linear-gradient-21"
       x1="19.53"
       y1="21.82"
       x2="18.2"
       y2="23.44"
       xlink:href="#linear-gradient-3" />
    <linearGradient
       id="linear-gradient-22"
       x1="18.03"
       y1="22.34"
       x2="15.95"
       y2="18.38"
       gradientTransform="rotate(64.3,17.1432,20.6543)"
       xlink:href="#linear-gradient-13" />
    <linearGradient
       id="linear-gradient-23"
       x1="17.5"
       y1="21.49"
       x2="16.66"
       y2="19.5"
       xlink:href="#linear-gradient-10" />
    <linearGradient
       id="linear-gradient-24"
       x1="17.5"
       y1="21.49"
       x2="16.66"
       y2="19.5"
       xlink:href="#linear-gradient-10" />
    <linearGradient
       inkscape:collect="always"
       xlink:href="#linear-gradient"
       id="linearGradient61"
       gradientUnits="userSpaceOnUse"
       x1="24.34"
       y1="3.91"
       x2="23.52"
       y2="15.23" />
    <linearGradient
       inkscape:collect="always"
       xlink:href="#linear-gradient-2"
       id="linearGradient62"
       gradientUnits="userSpaceOnUse"
       x1="27.02"
       y1="24.53"
       x2="75.33"
       y2="60.2" />
    <linearGradient
       inkscape:collect="always"
       xlink:href="#linear-gradient-3"
       id="linearGradient63"
       gradientUnits="userSpaceOnUse"
       x1="39.03"
       y1="33.89"
       x2="19.9"
       y2="18.39"
       gradientTransform="matrix(1.12211,0,0,1.12077,-3.71796,-3.4202)" />
    <linearGradient
       inkscape:collect="always"
       xlink:href="#linear-gradient-10"
       id="linearGradient64"
       gradientUnits="userSpaceOnUse"
       gradientTransform="matrix(0.850868,0.454732,0.002873,1.12012,4.58565,-17.0936)"
       x1="19.72"
       y1="21.61"
       x2="14.76"
       y2="16.79" />
    <linearGradient
       inkscape:collect="always"
       xlink:href="#linear-gradient-13"
       id="linearGradient65"
       gradientUnits="userSpaceOnUse"
       x1="22.59"
       y1="29.95"
       x2="20.58"
       y2="19.07" />
    <radialGradient
       inkscape:collect="always"
       xlink:href="#linearGradient67"
       id="radialGradient68"
       cx="22.0466"
       cy="10.59"
       fx="22.0466"
       fy="10.59"
       r="10.0944"
       gradientTransform="matrix(1.12203,0,0,1.10864,-3.83462,-2.35303)"
       gradientUnits="userSpaceOnUse" />
    <radialGradient
       inkscape:collect="always"
       xlink:href="#linearGradient72"
       id="radialGradient73"
       cx="-30.9169"
       cy="32.9087"
       fx="-30.9169"
       fy="32.9087"
       r="8.97"
       gradientTransform="matrix(1,0,0,1.85284,0,-28.0659)"
       gradientUnits="userSpaceOnUse" />
  </defs>
  <path
     id="ellipse21"
     style="isolation:isolate;mix-blend-mode:multiply;fill:url(#radialGradient73)"
     transform="rotate(-75.56)"
     d="m -21.9469,32.9087 a 8.97,16.62 0 0 1 -8.97,16.62 8.97,16.62 0 0 1 -8.97,-16.62 8.97,16.62 0 0 1 8.97,-16.62 8.97,16.62 0 0 1 8.97,16.62 z" />
  <polygon
     points="33.71,11.97 30.32,13.75 14.29,5.33 17.68,3.55 "
     style="isolation:isolate;fill:#d3d7cf;stroke-width:0.891712"
     id="polygon21"
     transform="matrix(1.12211,0,0,1.12077,-3.71796,-3.4202)" />
  <polygon
     points="33.71,11.97 30.32,13.75 14.29,5.33 17.68,3.55 "
     style="opacity:0.65;isolation:isolate;fill:url(#linearGradient61);stroke-width:0.891712"
     id="polygon22"
     transform="matrix(1.12211,0,0,1.12077,-3.71796,-3.4202)" />
  <polygon
     points="30.32,13.75 30.32,44.45 33.71,42.67 33.71,11.97 "
     style="isolation:isolate;fill:url(#linearGradient62);stroke-width:0.891712"
     id="polygon23"
     transform="matrix(1.12211,0,0,1.12077,-3.71796,-3.4202)" />
  <path
     d="m 30.3044,46.398 c 0,0 3.0634,-29.734 3.804,-36.40258 l -3.804,1.99498 z"
     style="isolation:isolate;mix-blend-mode:multiply;fill:url(#linearGradient63);stroke-width:1"
     id="path23" />
  <path
     d="M 12.317,2.5535 16.1209,0.558534 34.1084,9.99542 c 0,0 -14.2172,-6.41081 -21.7914,-7.44192 z"
     style="opacity:0.65;isolation:isolate;fill:url(#linear-gradient-4);stroke-width:1"
     id="path24" />
  <path
     d="M 12.317,2.5535 16.1209,0.558534 34.1084,9.99542 c 0,0 -14.2172,-6.41081 -21.7914,-7.44192 z"
     style="opacity:0.65;isolation:isolate;fill:url(#linear-gradient-5);stroke-width:1"
     id="path25" />
  <polygon
     points="14.29,5.33 14.29,36.03 30.32,44.45 30.32,13.75 "
     style="isolation:isolate;fill:url(#linear-gradient-6);stroke-width:0.891712"
     id="polygon25"
     transform="matrix(1.12211,0,0,1.12077,-3.71796,-3.4202)" />
  <path
     d="m 12.317,36.9611 c 0,0 4.7914,-23.4353 17.9874,-24.9707 V 46.398 Z"
     style="opacity:0.65;isolation:isolate;fill:url(#linear-gradient-7);stroke-width:1"
     id="path26" />
  <polygon
     points="14.29,36.03 14.29,5.33 17.68,3.55 33.71,11.97 33.71,42.67 30.32,44.45 "
     style="isolation:isolate;fill:none;stroke:#555753;stroke-width:0.624199px;stroke-miterlimit:10"
     id="polygon32"
     transform="matrix(1.12211,0,0,1.12077,-3.71796,-3.4202)" />
  <ellipse
     style="color:#000000;overflow:visible;fill:url(#radialGradient68);fill-opacity:1;stroke-width:1.01556;stroke-linejoin:round"
     id="path67"
     cx="20.9022"
     cy="9.38743"
     rx="11.3262"
     ry="11.191"
     transform="matrix(0.969576,0.244789,0,1,0,0)" />
  <ellipse
     cx="12.873"
     cy="21.5824"
     rx="4.3305"
     ry="7.30888"
     transform="matrix(0.914715,-0.404099,0.404906,0.914358,0,0)"
     style="isolation:isolate;fill:url(#linear-gradient-8);stroke-width:1"
     id="ellipse32" />
  <path
     d="m 20.3625,19.2642 c 0,0 2.8053,-0.2578 3.5796,-2.2303 0.7742,-1.9726 0.2693,-4.1021 0.2693,-4.1021 0,0 1.3353,2.9813 0.7967,5.3461 -0.5387,2.3648 -1.5149,2.4657 -1.5149,2.4657 z"
     style="isolation:isolate;fill:url(#linear-gradient-9);stroke-width:1"
     id="path33" />
  <path
     d="m 18.0959,17.5718 c 0,0 -1.2792,-3.239 -0.3591,-5.5142 0.9201,-2.27513 5.4647,-1.9725 7.0132,2.7459 0,0 -0.4601,-3.0036 -2.536,-5.08828 -2.0759,-2.08463 -5.3973,-2.051 -5.9247,-0.0336 -0.5274,2.01738 -0.4489,4.40458 1.066,7.83418 l 0.7406,0.045 z"
     style="opacity:0.65;isolation:isolate;fill:url(#linearGradient64);stroke-width:1"
     id="path34" />
  <path
     d="m 18.6569,8.19098 c 0.4937,0 1.0324,0.1457 1.5934,0.4371 2.5584,1.34492 4.6455,5.14432 4.6455,8.49542 0,1.6139 -0.5049,2.8692 -1.3802,3.4296 l -5.6329,-2.9477 c -1.1222,-1.7484 -1.7618,-3.7994 -1.7618,-5.6486 0,-2.28641 0.9987,-3.75462 2.536,-3.75462 m 0,-0.56038 c -1.8178,0 -3.097,1.63632 -3.097,4.315 0,2.0622 0.7518,4.2925 1.93,6.0857 l 6.037,3.1606 c 1.1782,-0.5604 1.93,-1.995 1.93,-4.0572 0,-3.5304 -2.2106,-7.55396 -4.9485,-8.98855 C 19.8576,7.80992 19.2292,7.65301 18.6569,7.65301 v 0 z"
     style="isolation:isolate;fill:#4e9a06;stroke-width:1"
     id="path35" />
  <path
     d="m 23.5269,30.2029 -6.037,-3.1606 c -1.1782,0.5604 -1.93,1.995 -1.93,4.0572 0,3.5304 2.2105,7.554 4.9485,8.9886 2.7379,1.4346 4.9485,-0.2802 4.9485,-3.8106 0,-2.0622 -0.7518,-4.2926 -1.93,-6.0858 z"
     style="isolation:isolate;fill:#a40000;stroke-width:1"
     id="path36" />
  <path
     d="m 18.4325,37.4767 c 0.6957,0.8406 3.7591,0.807 4.8699,-1.3673 1.1109,-2.1743 0.3816,-4.9763 0.3816,-4.9763 0,0 1.829,3.4408 1.4587,6.1082 -0.3703,2.6675 -2.6033,3.127 -3.3327,2.9701 -0.7293,-0.1569 -2.6481,-1.1208 -3.3775,-2.7235 z"
     style="isolation:isolate;fill:url(#linear-gradient-11);stroke-width:1"
     id="path37" />
  <path
     d="m 18.1632,37.3422 c -1.0436,-1.3337 -1.2904,-5.4245 0,-6.6574 1.2904,-1.2328 4.8475,-0.2241 4.8475,-0.2241 l -5.4759,-2.8692 c 0,0 -1.7393,0.5716 -1.5485,4.1132 0.1908,3.5417 2.1769,5.6375 2.1769,5.6375 z"
     style="isolation:isolate;fill:url(#linear-gradient-12);stroke-width:1"
     id="path38" />
  <path
     d="m 17.5011,27.6812 5.633,2.9476 c 1.1221,1.7484 1.7617,3.7994 1.7617,5.6487 0,2.2863 -0.9986,3.7546 -2.5359,3.7546 -0.4938,0 -1.0324,-0.1457 -1.5934,-0.4371 -2.5584,-1.345 -4.6456,-5.1444 -4.6456,-8.4955 0,-1.6139 0.505,-2.8692 1.3802,-3.4295 m 0,-0.6389 c -1.1782,0.5604 -1.93,1.995 -1.93,4.0572 0,3.5304 2.2106,7.554 4.9485,8.9886 0.6508,0.3474 1.2792,0.5043 1.8515,0.5043 1.8178,0 3.097,-1.6363 3.097,-4.3149 0,-2.0623 -0.7518,-4.2926 -1.93,-6.0858 l -6.037,-3.1606 v 0 z"
     style="isolation:isolate;fill:#a40000;stroke-width:1"
     id="path39" />
  <ellipse
     cx="10.7209"
     cy="10.3685"
     rx="0.471194"
     ry="0.784696"
     transform="matrix(0.914715,-0.404099,0.404906,0.914358,0,0)"
     style="isolation:isolate;fill:#eeeeec;stroke-width:1"
     id="ellipse43" />
  <ellipse
     cx="20.9945"
     cy="23.346"
     rx="0.471194"
     ry="0.784696"
     transform="matrix(0.914715,-0.404099,0.404906,0.914358,0,0)"
     style="isolation:isolate;fill:#eeeeec;stroke-width:1"
     id="ellipse44" />
  <ellipse
     cx="-1.63289"
     cy="38.2894"
     rx="0.471194"
     ry="0.784696"
     transform="matrix(0.914715,-0.404099,0.404906,0.914358,0,0)"
     style="isolation:isolate;fill:#eeeeec;stroke-width:1"
     id="ellipse45" />
  <ellipse
     cx="8.63049"
     cy="51.2625"
     rx="0.471194"
     ry="0.784696"
     transform="matrix(0.914715,-0.404099,0.404906,0.914358,0,0)"
     style="isolation:isolate;fill:#eeeeec;stroke-width:1"
     id="ellipse46" />
  <g
     id="g50"
     style="isolation:isolate;stroke-width:0.891712"
     transform="matrix(1.12211,0,0,1.12077,-3.71796,-3.4202)">
    <polygon
       points="19.81,35.31 18.95,33.73 20.37,32.63 18.95,30.03 19.81,29.36 21.25,31.96 22.67,30.86 23.54,32.43 22.11,33.53 23.54,36.13 22.67,36.8 21.25,34.21 "
       style="fill:#d3d7cf;stroke-width:0.891712"
       id="polygon47" />
    <g
       id="g49"
       style="stroke-width:0.891712">
      <polygon
         points="18.97,13.68 18.11,14.35 20.31,18.36 21.18,17.69 "
         style="fill:#ffffff;stroke-width:0.891712"
         id="polygon48" />
      <polygon
         points="23.24,13.86 24.11,15.43 20.31,18.36 19.45,16.79 "
         style="fill:#ffffff;stroke-width:0.891712"
         id="polygon49" />
    </g>
  </g>
  <polygon
     points="24.28,21.95 18.9,19.14 17.11,22.22 18.9,27.18 24.28,30 26.08,26.92 "
     style="isolation:isolate;fill:url(#linearGradient65);stroke-width:0.664612"
     id="polygon39"
     transform="matrix(1.50554,0,0,1.50374,-12.3002,-13.0139)" />
  <path
     d="m 16.1544,15.7676 8.0998,4.2406 2.6948,7.4585 -2.6948,4.6315 -8.0998,-4.2406 -2.695,-7.4585 2.695,-4.6315 m -0.2861,-0.9925 -0.3613,0.6165 -2.6949,4.6316 -0.1806,0.3008 0.1207,0.3307 2.6948,7.4587 0.106,0.2706 0.2559,0.1354 8.0998,4.2404 0.6324,0.3309 0.3613,-0.6165 2.6949,-4.6316 0.1806,-0.3007 -0.1207,-0.3308 -2.6948,-7.4585 -0.106,-0.2708 -0.2559,-0.1352 -8.0998,-4.2406 z"
     style="isolation:isolate;fill:#8f5902;stroke-width:0.999997"
     id="path40" />
  <ellipse
     cx="8.79003"
     cy="30.0546"
     rx="3.44702"
     ry="5.79057"
     transform="matrix(0.914716,-0.404098,0.404906,0.914358,0,0)"
     style="opacity:0.65;isolation:isolate;fill:url(#linear-gradient-14);stroke-width:1"
     id="ellipse40" />
  <ellipse
     cx="8.79003"
     cy="30.0546"
     rx="3.44702"
     ry="5.79057"
     transform="matrix(0.914716,-0.404098,0.404906,0.914358,0,0)"
     style="opacity:0.65;isolation:isolate;fill:url(#linear-gradient-15);stroke-width:1"
     id="ellipse41" />
  <ellipse
     cx="5.30334"
     cy="25.6663"
     rx="0.632204"
     ry="1.05283"
     transform="matrix(0.914716,-0.404098,0.404906,0.914358,0,0)"
     style="isolation:isolate;fill:#a08100;stroke-width:1"
     id="ellipse42" />
  <ellipse
     cx="12.272"
     cy="34.4507"
     rx="0.632204"
     ry="1.05283"
     transform="matrix(0.914716,-0.404098,0.404906,0.914358,0,0)"
     style="isolation:isolate;fill:#eeeeec;stroke-width:1"
     id="ellipse47" />
  <g
     id="g55"
     style="isolation:isolate;stroke-width:0.664612"
     transform="matrix(1.50554,0,0,1.50374,-12.3002,-13.0139)">
    <polygon
       points="20.03,21.83 22.77,23.27 22.77,27.07 20.03,25.62 "
       style="fill:#59360f;stroke-width:0.664612"
       id="polygon51" />
    <path
       d="m 22.16,24.86 c 0,0.76 0.15,1.52 0.39,2.1 l -2,-1.05 c -0.25,-0.59 -0.39,-1.34 -0.39,-2.1 0,-0.76 0.15,-1.36 0.39,-1.69 l 2,1.05 c -0.24,0.33 -0.39,0.93 -0.39,1.69 z"
       style="fill:#6b6b6b;stroke-width:0.664612"
       id="path51" />
    <path
       d="m 22.16,24.86 c 0,0.76 0.15,1.52 0.39,2.1 l -2,-1.05 c -0.25,-0.59 -0.39,-1.34 -0.39,-2.1 0,-0.76 0.15,-1.36 0.39,-1.69 l 2,1.05 c -0.24,0.33 -0.39,0.93 -0.39,1.69 z"
       style="fill:url(#linear-gradient-16);stroke-width:0.664612"
       id="path52" />
    <path
       d="m 22.55,26.96 -2,-1.05 c -0.22,-0.54 -0.36,-1.2 -0.39,-1.89 0.12,0.19 0.26,0.38 0.42,0.53 0.46,0.49 1.03,0.75 1.58,0.57 0.03,0.67 0.18,1.32 0.39,1.84 z"
       style="fill:url(#linear-gradient-17);stroke-width:0.664612"
       id="path53" />
    <path
       d="m 22.55,26.96 -2,-1.05 c -0.22,-0.54 -0.36,-1.2 -0.39,-1.89 0.12,0.19 0.26,0.38 0.42,0.53 0.46,0.49 1.03,0.75 1.58,0.57 0.03,0.67 0.18,1.32 0.39,1.84 z"
       style="mix-blend-mode:multiply;fill:url(#linear-gradient-18);stroke-width:0.664612"
       id="path54" />
    <path
       d="m 22.55,23.17 c -0.13,0.17 -0.23,0.43 -0.3,0.74 -0.23,0 -0.57,-0.06 -0.89,-0.21 -0.57,-0.28 -1.04,-1.08 -1.04,-1.08 v 0 c 0.06,-0.21 0.14,-0.37 0.23,-0.5 l 2,1.04 z"
       style="fill:url(#linear-gradient-19);stroke-width:0.664612"
       id="path55" />
  </g>
  <g
     id="g59"
     style="isolation:isolate;stroke-width:0.664612"
     transform="matrix(1.50554,0,0,1.50374,-12.3002,-13.0139)">
    <g
       id="g57"
       style="stroke-width:0.664612">
      <path
         d="m 21.43,23.63 c -0.1,0.49 -0.58,0.78 -1.08,0.67 -0.15,-0.03 -0.28,-0.1 -0.39,-0.19 l -0.03,-0.02 -3.72,-2.51 0.4,-0.04 1.57,-1.72 2.98,3 v 0 c 0.23,0.2 0.34,0.51 0.27,0.81 z"
         style="fill:url(#linear-gradient-20);stroke-width:0.664612"
         id="path56" />
      <path
         d="m 21.24,24.02 c -0.2,0.24 -0.55,0.36 -0.9,0.28 -0.15,-0.03 -0.28,-0.1 -0.39,-0.19 l -0.03,-0.02 -3.72,-2.51 0.4,-0.04 0.53,-0.57 0.33,-0.12 0.42,0.42 z"
         style="mix-blend-mode:multiply;fill:url(#linear-gradient-21);stroke-width:0.664612"
         id="path57" />
      <ellipse
         cx="17.15"
         cy="20.66"
         rx="1.31"
         ry="1.38"
         transform="rotate(-64.3,17.1485,20.6552)"
         style="fill:url(#linear-gradient-22);stroke-width:0.664612"
         id="ellipse57" />
    </g>
    <path
       d="m 18.5,20.52 c -1.04,-0.49 -2.14,0.08 -2.48,0.86 -0.2,-0.29 -0.29,-0.65 -0.22,-1.02 0.14,-0.71 0.86,-1.15 1.6,-0.99 0.59,0.13 1.01,0.61 1.09,1.16 z"
       style="opacity:0.65;fill:url(#linear-gradient-23);stroke-width:0.664612"
       id="path58" />
    <path
       d="m 18.5,20.52 c -1.04,-0.49 -2.14,0.08 -2.48,0.86 -0.2,-0.29 -0.29,-0.65 -0.22,-1.02 0.14,-0.71 0.86,-1.15 1.6,-0.99 0.59,0.13 1.01,0.61 1.09,1.16 z"
       style="opacity:0.65;fill:url(#linear-gradient-24);stroke-width:0.664612"
       id="path59" />
  </g>
  <path
     d="m 13.4294,16.0534 c 0.1505,0 0.3161,0.015 0.4818,0.06 0.4968,0.1047 0.9184,0.391 1.2195,0.7519 l 4.4262,4.4361 c 0.3463,0.3007 0.5119,0.7669 0.4066,1.218 -0.1208,0.6165 -0.6776,1.0375 -1.3099,1.0375 -0.1047,0 -0.2259,0 -0.3312,-0.029 -0.2259,-0.046 -0.4215,-0.1504 -0.5872,-0.2856 l -0.046,-0.031 -4.9683,-3.3383 c -0.8882,-0.391 -1.4302,-1.3232 -1.2495,-2.2705 0.1806,-0.9174 1.0087,-1.5339 1.9421,-1.5339 m 0,-0.7519 c -1.3249,0 -2.4239,0.8873 -2.6799,2.1354 -0.2559,1.248 0.4216,2.5262 1.611,3.0826 l 4.9081,3.3083 c 0.2258,0.1955 0.5419,0.3457 0.8882,0.421 0.1505,0.029 0.3161,0.06 0.4818,0.06 1.0087,0 1.8518,-0.6766 2.0474,-1.639 0.1507,-0.7069 -0.09,-1.4437 -0.6624,-1.9399 l -4.366,-4.3759 c -0.4066,-0.4962 -0.9787,-0.8421 -1.611,-0.9775 -0.2108,-0.046 -0.4214,-0.075 -0.6474,-0.075 v 0 z"
     style="isolation:isolate;fill:#8f5902;stroke-width:0.999997"
     id="path60" />
</svg>
