<?xml version="1.0" encoding="UTF-8"?><svg xmlns="http://www.w3.org/2000/svg" xmlns:xlink="http://www.w3.org/1999/xlink" viewBox="0 0 48 48"><defs><radialGradient id="radial-gradient" cx="-447.22" cy="-52.4" fx="-447.22" fy="-52.4" r="8.81" gradientTransform="translate(48.1 1117.2) rotate(85.7) scale(2.38 1.08) skewX(7.62)" gradientUnits="userSpaceOnUse"><stop offset=".28" stop-color="#2c2c2c" stop-opacity=".5"/><stop offset=".99" stop-color="#2c2c2c" stop-opacity="0"/></radialGradient><linearGradient id="linear-gradient" x1="25.53" y1="19.23" x2="28.96" y2="35.49" gradientTransform="matrix(1, 0, 0, 1, 0, 0)" gradientUnits="userSpaceOnUse"><stop offset="0" stop-color="#f57900"/><stop offset="1" stop-color="#ce5c00"/></linearGradient><linearGradient id="linear-gradient-2" x1="32.98" y1="16.61" x2="37.78" y2="20.7" gradientTransform="matrix(1, 0, 0, 1, 0, 0)" gradientUnits="userSpaceOnUse"><stop offset="0" stop-color="#fcaf3e"/><stop offset=".62" stop-color="#f57900"/><stop offset="1" stop-color="#ce5c00"/></linearGradient><linearGradient id="linear-gradient-3" x1="32.06" y1="25.84" x2="34.29" y2="41.6" gradientTransform="matrix(1, 0, 0, 1, 0, 0)" gradientUnits="userSpaceOnUse"><stop offset="0" stop-color="#f57900"/><stop offset=".52" stop-color="#ce5c00"/><stop offset="1" stop-color="#b74d04"/></linearGradient><linearGradient id="linear-gradient-4" x1="34.11" y1="41.52" x2="33.12" y2="39.5" xlink:href="#linear-gradient-2"/><linearGradient id="linear-gradient-5" x1="29.38" y1="17.65" x2="35.34" y2="26.84" xlink:href="#linear-gradient"/><linearGradient id="linear-gradient-6" y1="14.06" y2="29.82" xlink:href="#linear-gradient-3"/><linearGradient id="linear-gradient-7" x1="22.97" y1="18.38" x2="24.77" y2="9.9" gradientTransform="matrix(1, 0, 0, 1, 0, 0)" gradientUnits="userSpaceOnUse"><stop offset="0" stop-color="#fff" stop-opacity="0"/><stop offset="1" stop-color="snow"/></linearGradient><linearGradient id="linear-gradient-8" x1="19.96" y1="10.53" x2="14.6" y2="24.5" gradientTransform="matrix(1, 0, 0, 1, 0, 0)" gradientUnits="userSpaceOnUse"><stop offset="0" stop-color="#fcaf3e"/><stop offset=".62" stop-color="#f57900"/><stop offset="1" stop-color="#ce5c00"/></linearGradient><linearGradient id="linear-gradient-9" x1="29.74" y1="15.34" x2="25.22" y2="27.1" xlink:href="#linear-gradient-2"/><linearGradient id="linear-gradient-10" x1="27.89" y1="22.72" x2="22.23" y2="3.31" xlink:href="#linear-gradient-7"/><linearGradient id="linear-gradient-11" x1="25.91" y1="15.46" x2="29.93" y2="30.19" gradientTransform="matrix(1, 0, 0, 1, 0, 0)" gradientUnits="userSpaceOnUse"><stop offset="0" stop-color="#f57900"/><stop offset="1" stop-color="#b74d04"/></linearGradient><linearGradient id="linear-gradient-12" x1="18.18" y1="17.04" x2="13.05" y2="-.55" xlink:href="#linear-gradient-7"/><linearGradient id="linear-gradient-13" x1="16.26" y1="9.66" x2="20.29" y2="24.44" gradientTransform="matrix(1, 0, 0, 1, 0, 0)" gradientUnits="userSpaceOnUse"><stop offset=".21" stop-color="#fcaf3e"/><stop offset=".35" stop-color="#f57900"/><stop offset="1" stop-color="#b74d04"/></linearGradient><linearGradient id="linear-gradient-14" x1="19.71" y1="23.47" x2="15.88" y2="33.44" xlink:href="#linear-gradient-8"/><linearGradient id="linear-gradient-15" x1="18.52" y1="30.67" x2="12.68" y2="10.66" xlink:href="#linear-gradient-7"/><linearGradient id="linear-gradient-16" x1="16.43" y1="22.39" x2="20.6" y2="37.7" gradientTransform="matrix(1, 0, 0, 1, 0, 0)" gradientUnits="userSpaceOnUse"><stop offset="0" stop-color="#f57900"/><stop offset=".22" stop-color="#de6901"/><stop offset=".49" stop-color="#c85902"/><stop offset=".76" stop-color="#bb5003"/><stop offset="1" stop-color="#b74d04"/></linearGradient><linearGradient id="linear-gradient-17" x1="29.47" y1="28.31" x2="26.6" y2="35.78" xlink:href="#linear-gradient-8"/><linearGradient id="linear-gradient-18" x1="28.11" y1="36" x2="22.47" y2="16.64" xlink:href="#linear-gradient-7"/><linearGradient id="linear-gradient-19" x1="24.71" y1="26.48" x2="28.93" y2="38.52" xlink:href="#linear-gradient-11"/><linearGradient id="linear-gradient-20" x1="17.82" y1="18.1" x2="34.77" y2="41.29" xlink:href="#linear-gradient-7"/></defs><g style="isolation:isolate;"><g id="shadow" style="mix-blend-mode:multiply; opacity:.45;"><ellipse cx="23.59" cy="35.64" rx="9.08" ry="20.36" transform="translate(-18.59 42.49) rotate(-65.72)" style="fill:url(#radial-gradient);"/></g><g id="ART"><g><path d="M33.3,14.58l-8.14-4.69-7.72-4.45c-.49-.28-1.05-.24-1.47,.02h-.01l-2.46,1.43s-.49,.29-.37,.66,2.16,10.02,2.16,10.02l9.86,5.68v13.38l7.01,4.04h-.03s-.67,1.87-.62,1.91,.33-.08,.33-.08l2.47-1.44h0c.41-.24,.7-.69,.7-1.23V17.57c0-1.23-.66-2.37-1.73-2.99Z" style="fill:url(#linear-gradient);"/><path d="M34.2,15.95c-.93-.45-2.18,.32-2.05,1.17s.79,1.71,1.65,1.79,1.49-.7,1.37-1.84c-.13-1.14-.97-1.11-.97-1.11Z" style="fill:url(#linear-gradient-2); opacity:.55;"/><path d="M35.03,39.73v-11c-.24,.52-.6,.99-1.15,1.08-1.3,.23-1.61-.53-1.61-.53l-.75,10.84,1.02,1.05,2.48-1.45h0Z" style="fill:url(#linear-gradient-3);"/><path d="M32.54,39.21s.79,.8,2.49-.84v1.49s-.1,.93-.98,1.39-1.99,1.1-1.99,1.1l.49-3.15Z" style="fill:url(#linear-gradient-4);"/><path d="M35.03,28.96v-11c-.24,.52-.6,.99-1.15,1.08-1.3,.23-1.61-.53-1.61-.53l-.75,10.84,1.02,1.05,2.48-1.45h0Z" style="fill:url(#linear-gradient-5);"/><path d="M35.03,27.95v-11c-.24,.52-.6,.99-1.15,1.08-1.3,.23-1.61-.53-1.61-.53l-.75,10.84,1.02,1.05,2.48-1.45h0Z" style="fill:url(#linear-gradient-6);"/><line x1="32.54" y1="30.41" x2="35.03" y2="28.96" style="fill:none; stroke:#b74d04; stroke-miterlimit:10; stroke-width:.5px;"/><path d="M33.56,14.79c-.09-.06-.17-.15-.26-.2l-8.14-4.69-7.39-4.22-2.21,1.29-.26,2.12,.95,.82,15.43,7.36s-.22-1.04,.38-1.82c.34-.45,1-.6,1.51-.65Z" style="fill:url(#linear-gradient-7); opacity:.7;"/><line x1="22.68" y1="11.35" x2="25.16" y2="9.9" style="fill:none; stroke:#ce5c00; stroke-miterlimit:10; stroke-width:.5px;"/><g><path d="M35.03,39.86v-10.9h0v-11.38c0-1.23-.66-2.37-1.73-2.99l-8.14-4.69-7.72-4.45c-.49-.28-1.05-.24-1.47,.02h-.01l-2.46,1.43s-.49,.29-.37,.66,2.16,10.02,2.16,10.02l9.86,5.68v13.38l5.69,4.23s.62,1.68,.67,1.72,.33-.08,.33-.08l2.47-1.44h0c.1-.06,.2-.14,.29-.22,.02-.02,.04-.05,.06-.07,.06-.07,.12-.13,.16-.21,.13-.21,.2-.46,.2-.73Z" style="fill:none; stroke:#b74d04; stroke-miterlimit:10; stroke-width:.7px;"/><path d="M25.16,36.65l-8.14-4.69c-1.07-.62-1.73-1.76-1.73-2.99v-11.38l9.86,5.68v13.38Z" style="fill:#fff; stroke:#231f20; stroke-miterlimit:10;"/></g><path d="M22.68,24.72l-9.86-5.68V8.14c0-1.1,1.19-1.79,2.14-1.24l7.72,4.45v13.38Z" style="fill:url(#linear-gradient-8);"/><path d="M32.54,30.41l-9.86-5.68V11.35l8.14,4.69c1.07,.62,1.73,1.76,1.73,2.99v11.38Z" style="fill:url(#linear-gradient-9);"/><path d="M30.36,17.82c-1.68-1.01-5.08-3.04-5.62-3.34-.42-.23-.86-.04-.86,.72v7.64c0,.93,.88,1.32,.88,1.32l-2.09,.57V11.47s7.78,4.07,8.45,4.78,.98,.93,1.19,1.85,.16,2.5,.16,2.5c0,0-1.47,.99-1.47-.11v-1.59c0-.53-.26-.84-.65-1.08Z" style="fill:url(#linear-gradient-10); opacity:.7;"/><path d="M32.07,17.07c-.03,.59-1.06,1.86-1.06,3.14v6.4c0,.51-.63,.77-1.08,.53-1.67-.93-4.97-2.84-5.43-3.12-.55-.34-1.47,.04-1.83,.72l9.86,5.68v-11.38c0-.55-.47-1.96-.47-1.96Z" style="fill:url(#linear-gradient-11);"/><path d="M20.5,12.14c-1.83-1.11-5.08-3.04-5.62-3.34-.42-.23-.86-.04-.86,.72v7.83c0,.68,.96,1.15,.88,1.12l-2.09,.58V8.06c0-1.03,1.1-1.7,2.01-1.21,2.35,1.26,5.99,3.24,6.45,3.71,.68,.7,1.14,.43,1.36,1.36s0,2.99,0,2.99c0,0-1.47,.99-1.47-.11v-1.59c0-.53-.26-.84-.65-1.08Z" style="fill:url(#linear-gradient-12); opacity:.7;"/><path d="M22.68,11.21c-.03,.59-1.53,2.03-1.53,3.03v6.59c0,.79-.63,.86-1.08,.61-1.7-.95-5-2.86-5.48-3.16-.54-.34-1.42,.08-1.78,.76l9.86,5.68V11.21Z" style="fill:url(#linear-gradient-13);"/><path d="M22.68,38.1l-8.14-4.69c-1.07-.62-1.73-1.76-1.73-2.99v-11.38l9.86,5.68v13.38Z" style="fill:url(#linear-gradient-14);"/><path d="M20.5,25.52c-1.83-1.11-5.08-3.04-5.62-3.34-.42-.23-.86-.04-.86,.72v7.45c0,1.19,.77,1.49,.77,1.49l-1.17,.8s-.28-.44-.44-.67-.36-1.44-.36-1.44v-11.36s7.78,4.07,8.45,4.78c.68,.7,1.14,.23,1.36,1.16s0,3.19,0,3.19c0,0-1.47,.99-1.47-.11v-1.59c0-.53-.26-.84-.65-1.08Z" style="fill:url(#linear-gradient-15); opacity:.7;"/><path d="M22.66,24.11c-.06,1.43-1.51,1.88-1.51,3.15v7.23c0,.51-.63,.64-1.07,.39l-5.44-3.14c-.36-.21-1.07-.3-1.29,.12-.25,.48,.98,1.43,.98,1.43l8.36,4.82v-11.38c0-.55-.02-2.61-.02-2.61Z" style="fill:url(#linear-gradient-16);"/><path d="M30.4,42.55l-7.72-4.45v-13.38l9.86,5.68v10.91c0,1.1-1.19,1.79-2.14,1.24Z" style="fill:url(#linear-gradient-17);"/><path d="M30.36,31.2c-1.83-1.11-5.08-3.04-5.62-3.34-.42-.23-.86-.04-.86,.72v7.67c0,.93,.78,1.28,.78,1.28l-1.98,.58v-13.26s8.98,4.74,9.66,5.44-.23,.26-.01,1.18,.16,2.5,.16,2.5c0,0-1.47,.99-1.47-.11v-1.59c0-.53-.26-.84-.65-1.08Z" style="fill:url(#linear-gradient-18); opacity:.7;"/><path d="M32.2,30.44c-.03,.59-1.19,1.11-1.19,2.38v7.11c0,.51-.66,.86-1.1,.61-1.69-.96-5.03-2.89-5.48-3.15-.55-.33-1.39,.03-1.75,.71l7.54,4.34c1.03,.59,2.32-.15,2.32-1.34v-8.7c0-.55-.34-1.96-.34-1.96Z" style="fill:url(#linear-gradient-19);"/><path d="M32.54,41.31V19.02c0-.77-.28-1.49-.73-2.08-.95,1.95-4.08,8.66-8.85,11.36-5,2.83-10.13,1.29-10.13,1.29h-.02v.84c0,1.23,.66,2.37,1.73,2.99l8.14,4.69,7.72,4.45c.95,.55,2.14-.14,2.14-1.24Z" style="fill:url(#linear-gradient-20); opacity:.8;"/><path d="M22.68,24.72l-9.86-5.68V8.14c0-1.1,1.19-1.79,2.14-1.24l7.72,4.45v13.38Z" style="fill:none; stroke:#ce5c00; stroke-miterlimit:10; stroke-width:.5px;"/><path d="M32.54,30.41l-9.86-5.68V11.35l8.14,4.69c1.07,.62,1.73,1.76,1.73,2.99v11.38Z" style="fill:none; stroke:#ce5c00; stroke-miterlimit:10; stroke-width:.5px;"/><path d="M22.68,38.1l-8.14-4.69c-1.07-.62-1.73-1.76-1.73-2.99v-11.38l9.86,5.68v13.38Z" style="fill:none; stroke:#ce5c00; stroke-miterlimit:10; stroke-width:.5px;"/><path d="M30.4,42.55l-7.72-4.45v-13.38l9.86,5.68v10.91c0,1.1-1.19,1.79-2.14,1.24Z" style="fill:none; stroke:#ce5c00; stroke-miterlimit:10; stroke-width:.5px;"/><g><path d="M20.04,15.86l-1.75-1.01v-2.1c0-.36-.25-.8-.55-.97s-.55-.02-.55,.34v2.1l-1.75-1.01c-.3-.17-.55-.02-.55,.34s.25,.8,.55,.97l1.75,1.01v2.1c0,.36,.25,.8,.55,.97s.55,.02,.55-.34v-2.1l1.75,1.01c.3,.17,.55,.02,.55-.34s-.25-.8-.55-.97Z" style="fill:#fff; opacity:.9;"/><path d="M19.98,27.18c-.21-.38-.56-.58-.78-.45l-1.46,.91-1.46-2.59c-.21-.38-.56-.58-.78-.45s-.21,.55,0,.93l1.46,2.58-1.46,.91c-.21,.13-.21,.55,0,.93,.11,.19,.25,.34,.39,.42s.28,.1,.39,.03l1.46-.91,1.46,2.59c.11,.19,.25,.34,.39,.42s.28,.1,.39,.03c.21-.13,.21-.55,0-.93l-1.46-2.58,1.46-.91c.21-.13,.21-.55,0-.93Z" style="fill:#fff; opacity:.9;"/><path d="M29.51,35.81l-3.79-2.18c-.3-.17-.55-.02-.55,.34s.25,.8,.55,.97l3.79,2.18c.3,.17,.55,.02,.55-.34s-.25-.8-.55-.97Z" style="fill:#fff; opacity:.9;"/><path d="M29.51,33.56l-3.79-2.18c-.3-.17-.55-.02-.55,.34s.25,.8,.55,.97l3.79,2.18c.3,.17,.55,.02,.55-.34s-.25-.8-.55-.97Z" style="fill:#fff; opacity:.9;"/><path d="M25.72,20.44l3.79,2.18c.3,.17,.55,.02,.55-.34s-.25-.8-.55-.97l-3.79-2.18c-.3-.17-.55-.02-.55,.34s.25,.8,.55,.97Z" style="fill:#fff; opacity:.9;"/></g><path d="M30.82,16.03l-8.14-4.69-7.72-4.45c-.95-.55-2.14,.14-2.14,1.24V30.43c0,1.23,.66,2.37,1.73,2.99l8.14,4.69,7.72,4.45c.95,.55,2.14-.14,2.14-1.24V19.02c0-1.23-.66-2.37-1.73-2.99Z" style="fill:none; stroke:#ce5c00; stroke-miterlimit:10; stroke-width:.7px;"/></g></g></g></svg>