<?xml version="1.0" encoding="UTF-8" standalone="no"?>
<!-- Generator: Adobe Illustrator 23.0.3, SVG Export Plug-In . SVG Version: 6.00 Build 0)  -->

<svg
   version="1.1"
   id="Layer_1"
   x="0px"
   y="0px"
   viewBox="0 0 48 48"
   xml:space="preserve"
   width="48"
   height="48"
   sodipodi:docname="onnx.svg"
   inkscape:version="1.3-dev (fdc7329b, 2022-05-31)"
   xmlns:inkscape="http://www.inkscape.org/namespaces/inkscape"
   xmlns:sodipodi="http://sodipodi.sourceforge.net/DTD/sodipodi-0.dtd"
   xmlns="http://www.w3.org/2000/svg"
   xmlns:svg="http://www.w3.org/2000/svg"><sodipodi:namedview
   id="namedview1"
   pagecolor="#ffffff"
   bordercolor="#666666"
   borderopacity="1.0"
   inkscape:showpageshadow="2"
   inkscape:pageopacity="0.0"
   inkscape:pagecheckerboard="0"
   inkscape:deskcolor="#d1d1d1"
   showgrid="false"
   inkscape:zoom="8.3492993"
   inkscape:cx="39.164963"
   inkscape:cy="23.355253"
   inkscape:window-width="2880"
   inkscape:window-height="1557"
   inkscape:window-x="-8"
   inkscape:window-y="-8"
   inkscape:window-maximized="1"
   inkscape:current-layer="Layer_1" /><defs
   id="defs67">
	
	
	
	
	
	
	
	
	

		
		
		
		
		
	</defs>
<style
   type="text/css"
   id="style2">
	.st0{fill:#FFFFFF;}
	.st1{fill:#545554;}
	.st2{fill:#3E3E3D;}
	.st3{fill:#4D4C4D;}
	.st4{fill:#5D5D5D;}
	.st5{fill:#717272;}
</style>
<g
   id="g1"
   transform="scale(0.91241587,0.93567251)"
   style="stroke-width:1.08229"><path
     class="st0"
     d="m 50.6,24.1 c -0.1,0 -0.2,0 -0.3,0 L 41.4,7.9 c 0.2,-0.3 0.2,-0.6 0.2,-1 0,-1.2 -1,-2.1 -2.1,-2.1 -0.6,0 -1.2,0.3 -1.5,0.7 L 20.4,1.9 C 20.3,0.8 19.4,0 18.3,0 c -1.2,0 -2.1,1 -2.1,2.1 0,0.4 0.1,0.7 0.2,1 L 2.7,22.8 c -0.2,0 -0.4,-0.1 -0.6,-0.1 -1.2,0 -2.1,1 -2.1,2.1 0,1.2 1,2.1 2.1,2.1 h 0.1 l 7.4,18.3 c -0.1,0.3 -0.2,0.6 -0.2,0.9 0,1.2 1,2.1 2.1,2.1 0.6,0 1.2,-0.3 1.5,-0.7 l 22.2,2.2 c 0.2,0.9 1.1,1.6 2.1,1.6 1.2,0 2.1,-1 2.1,-2.1 0,-0.5 -0.2,-1 -0.5,-1.4 L 50.1,28.3 c 0.1,0 0.2,0 0.4,0 1.2,0 2.1,-1 2.1,-2.1 0.1,-1.1 -0.8,-2.1 -2,-2.1 z M 37.8,8.2 c 0.3,0.3 0.6,0.6 1,0.7 l -3.4,25.4 c -0.2,0 -0.4,0.1 -0.6,0.2 l -18.5,-16 c 0,-0.2 0.1,-0.4 0.1,-0.6 0,-0.1 0,-0.3 0,-0.4 z M 48.5,26.9 37.1,34.7 C 37,34.6 36.9,34.6 36.8,34.5 L 40.3,8.9 v 0 l 8.7,16 c -0.3,0.4 -0.5,0.9 -0.5,1.4 -0.1,0.2 0,0.4 0,0.6 z M 14,15.8 c -1,0.2 -1.8,1 -1.8,2.1 V 18 L 4.6,22.5 16.4,5.6 Z m 0.8,4.2 c 0.3,-0.1 0.6,-0.2 0.8,-0.3 l 18.3,15.9 c -0.1,0.2 -0.1,0.5 -0.1,0.8 v 0.1 L 13.3,44.9 C 13,44.5 12.5,44.1 12,44 Z m 19.5,17.8 c 0.3,0.3 0.7,0.5 1.1,0.6 l 1,8.9 c -0.4,0.2 -0.8,0.6 -1,1 L 13.9,46.2 Z m 2.6,0.5 c 0.7,-0.3 1.2,-1.1 1.2,-1.9 0,-0.2 0,-0.4 -0.1,-0.5 L 48.4,28.8 37.9,47 Z M 37.4,6.8 15.7,16.3 C 15.6,16.2 15.5,16.2 15.5,16.1 L 18.3,4.3 h 0.1 c 0.8,0 1.4,-0.4 1.8,-1 z m -33.1,18 c 0,-0.1 0,-0.3 0,-0.4 l 8.6,-5.1 c 0.2,0.2 0.4,0.3 0.6,0.4 l -2.8,24 -7,-17.3 C 4,26 4.3,25.5 4.3,24.8 Z"
     id="path4"
     style="fill:#343433;fill-opacity:1;stroke-width:1.08229" /><path
     class="st1"
     d="m 40.3,8.9 8.7,16 c -0.3,0.4 -0.5,0.9 -0.5,1.4 0,0.2 0,0.4 0.1,0.6 L 37.2,34.7 C 37.1,34.6 37,34.6 36.9,34.5 L 40.3,8.9 v 0"
     id="path16"
     style="fill:#dfe0e0;fill-opacity:1;stroke-width:1.08229" /><path
     class="st2"
     d="m 36.9,38.3 c 0.7,-0.3 1.2,-1.1 1.2,-1.9 0,-0.2 0,-0.4 -0.1,-0.5 L 48.4,28.8 37.9,47 Z"
     id="path18"
     style="fill:#b3b3b3;fill-opacity:1;stroke-width:1.08229" /><path
     class="st3"
     d="m 34.3,37.8 c 0.3,0.3 0.7,0.5 1.1,0.6 l 1,8.9 c -0.4,0.2 -0.8,0.6 -1,1 L 13.9,46.2 Z"
     id="path20"
     style="fill:#d2d2d2;fill-opacity:1;stroke-width:1.08229" /><path
     class="st4"
     d="m 14.8,20 c 0.3,-0.1 0.6,-0.2 0.8,-0.3 l 18.3,15.9 c -0.1,0.2 -0.1,0.5 -0.1,0.8 v 0.1 L 13.3,44.9 C 13,44.5 12.5,44.1 12,44 Z"
     id="path22"
     style="fill:#f5f6f7;fill-opacity:1;stroke-width:1.08229" /><path
     class="st3"
     d="m 4.3,24.8 c 0,-0.1 0,-0.3 0,-0.4 l 8.6,-5.1 c 0.2,0.2 0.4,0.3 0.6,0.4 l -2.8,24 -7,-17.3 C 4,26 4.3,25.5 4.3,24.8 Z"
     id="path24"
     style="fill:#d9d9d9;fill-opacity:1;stroke-width:1.08229" /><path
     class="st2"
     d="m 14,15.8 c -1,0.2 -1.8,1 -1.8,2.1 V 18 L 4.6,22.5 16.4,5.6 Z"
     id="path26"
     style="fill:#b3b3b3;fill-opacity:1;stroke-width:1.08229" /><path
     class="st1"
     d="M 37.4,6.8 15.7,16.3 C 15.6,16.2 15.5,16.2 15.5,16.1 L 18.3,4.3 h 0.1 c 0.8,0 1.4,-0.4 1.8,-1 z"
     id="path28"
     style="fill:#d2d2d2;fill-opacity:1;stroke-width:1.08229" /><path
     class="st5"
     d="m 37.8,8.2 c 0.3,0.3 0.6,0.6 1,0.7 l -3.4,25.4 c -0.2,0 -0.4,0.1 -0.6,0.2 l -18.5,-16 c 0,-0.2 0.1,-0.4 0.1,-0.6 0,-0.1 0,-0.3 0,-0.4 z"
     id="path30"
     style="fill:#ffffff;fill-opacity:1;stroke-width:1.08229" /></g>
<g
   id="g34"
   transform="translate(-0.2,-0.1)">
</g>
<g
   id="g36"
   transform="translate(-0.2,-0.1)">
</g>
<g
   id="g38"
   transform="translate(-0.2,-0.1)">
</g>
<g
   id="g40"
   transform="translate(-0.2,-0.1)">
</g>
<g
   id="g42"
   transform="translate(-0.2,-0.1)">
</g>
<g
   id="g44"
   transform="translate(-0.2,-0.1)">
</g>
<g
   id="g46"
   transform="translate(-0.2,-0.1)">
</g>
<g
   id="g48"
   transform="translate(-0.2,-0.1)">
</g>
<g
   id="g50"
   transform="translate(-0.2,-0.1)">
</g>
<g
   id="g52"
   transform="translate(-0.2,-0.1)">
</g>
<g
   id="g54"
   transform="translate(-0.2,-0.1)">
</g>
<g
   id="g56"
   transform="translate(-0.2,-0.1)">
</g>
<g
   id="g58"
   transform="translate(-0.2,-0.1)">
</g>
<g
   id="g60"
   transform="translate(-0.2,-0.1)">
</g>
<g
   id="g62"
   transform="translate(-0.2,-0.1)">
</g>
</svg>
