<?xml version="1.0" encoding="UTF-8" standalone="no"?>
<!-- Created with Inkscape (http://www.inkscape.org/) -->

<svg
   width="48.0px"
   height="48.0px"
   viewBox="0 0 48.0 48.0"
   version="1.1"
   id="SVGRoot"
   sodipodi:docname="opencolorio.svg"
   inkscape:version="1.1 (c68e22c387, 2021-05-23)"
   xmlns:inkscape="http://www.inkscape.org/namespaces/inkscape"
   xmlns:sodipodi="http://sodipodi.sourceforge.net/DTD/sodipodi-0.dtd"
   xmlns:xlink="http://www.w3.org/1999/xlink"
   xmlns="http://www.w3.org/2000/svg"
   xmlns:svg="http://www.w3.org/2000/svg">
  <sodipodi:namedview
     id="namedview1011"
     pagecolor="#ffffff"
     bordercolor="#666666"
     borderopacity="1.0"
     inkscape:pageshadow="2"
     inkscape:pageopacity="0.0"
     inkscape:pagecheckerboard="0"
     inkscape:document-units="px"
     showgrid="true"
     inkscape:zoom="21.540089"
     inkscape:cx="30.524479"
     inkscape:cy="21.703717"
     inkscape:window-width="2880"
     inkscape:window-height="1557"
     inkscape:window-x="-8"
     inkscape:window-y="-8"
     inkscape:window-maximized="1"
     inkscape:current-layer="layer1"
     inkscape:lockguides="true"
     inkscape:snap-global="false">
    <inkscape:grid
       type="xygrid"
       id="grid1074" />
  </sodipodi:namedview>
  <defs
     id="defs1006">
    <linearGradient
       inkscape:collect="always"
       id="linearGradient14674">
      <stop
         style="stop-color:#b1425f;stop-opacity:1"
         offset="0"
         id="stop14670" />
      <stop
         style="stop-color:#5e071e;stop-opacity:1"
         offset="1"
         id="stop14672" />
    </linearGradient>
    <linearGradient
       inkscape:collect="always"
       xlink:href="#linearGradient14674"
       id="linearGradient14676"
       x1="8.9463997"
       y1="5.5925345"
       x2="40.048306"
       y2="41.66481"
       gradientUnits="userSpaceOnUse" />
  </defs>
  <g
     inkscape:label="Layer 1"
     inkscape:groupmode="layer"
     id="layer1">
    <path
       id="path6054"
       style="fill:#f14270;fill-opacity:1;fill-rule:evenodd;stroke:url(#linearGradient14676);stroke-width:0.999999;stroke-linecap:butt;stroke-linejoin:miter;stroke-miterlimit:4;stroke-dasharray:none;stroke-opacity:1"
       d="m 32.399047,29.963203 10.804923,6.970969 c 0.923339,-1.537943 1.684219,-3.122304 2.246188,-4.763496 L 33.386597,28.162368 c -0.205792,0.624959 -0.523681,1.227493 -0.98755,1.800835 z m 1.805871,-6.83389 12.600137,-1.646905 c 0.169526,1.785804 0.172452,3.543398 -0.02857,5.26645 L 34.164053,25.160623 c 0.228842,-0.677103 0.276232,-1.354206 0.04087,-2.03131 z m -1.767141,-4.757062 10.804921,-6.970967 c 0.923338,1.537942 1.68422,3.122302 2.246188,4.763494 l -12.063562,4.008307 c -0.205789,-0.624958 -0.523681,-1.227491 -0.987547,-1.800834 z m -2.653654,5.806643 a 5.4008761,5.400915 0 0 1 -5.400876,5.400915 5.4008761,5.400915 0 0 1 -5.400876,-5.400915 5.4008761,5.400915 0 0 1 5.400876,-5.400916 5.4008761,5.400915 0 0 1 5.400876,5.400916 z M 33.82727,13.10343 40.511362,7.196517 c 0,0 -5.58032,-6.54153185 -16.787952,-6.60641701 C 12.515777,0.52521472 1.0144035,10.002805 0.95086611,24.295479 0.88732619,38.588153 12.77567,47.455139 24.500629,47.456801 c 11.72496,0.0017 15.85529,-6.295527 15.85529,-6.295527 l -6.373204,-5.906915 c 0,0 -3.932964,3.647129 -9.870693,3.575239 C 18.174294,38.757709 9.5517333,33.899507 9.655729,24.450923 9.7597378,15.00234 17.15041,9.473634 23.956578,9.5281943 30.762744,9.5827447 33.82727,13.10343 33.82727,13.10343 Z" />
    <path
       id="path14190"
       style="fill:none;fill-opacity:1;fill-rule:evenodd;stroke:#ffffff;stroke-width:0.999999;stroke-linecap:butt;stroke-linejoin:miter;stroke-miterlimit:4;stroke-dasharray:none;stroke-opacity:0.67741936"
       sodipodi:type="inkscape:offset"
       inkscape:radius="-0.96138895"
       inkscape:original="M 23.722656 0.58984375 C 12.515023 0.52495848 1.0147093 10.002248 0.95117188 24.294922 C 0.88763196 38.587596 12.775041 47.455369 24.5 47.457031 C 36.22496 47.458731 40.355469 41.162109 40.355469 41.162109 L 33.982422 35.253906 C 33.982422 35.253906 30.049057 38.901968 24.111328 38.830078 C 18.1736 38.758189 9.5522543 33.899756 9.65625 24.451172 C 9.7602588 15.002589 17.150863 9.4727835 23.957031 9.5273438 C 30.763197 9.5818942 33.828125 13.103516 33.828125 13.103516 L 40.511719 7.1972656 C 40.511719 7.1972656 34.930288 0.65472891 23.722656 0.58984375 z M 43.242188 11.400391 L 32.4375 18.373047 C 32.901366 18.94639 33.219992 19.54887 33.425781 20.173828 L 45.488281 16.164062 C 44.926313 14.52287 44.165526 12.938333 43.242188 11.400391 z M 24.382812 18.777344 A 5.4008761 5.400915 0 0 0 18.982422 24.179688 A 5.4008761 5.400915 0 0 0 24.382812 29.580078 A 5.4008761 5.400915 0 0 0 29.783203 24.179688 A 5.4008761 5.400915 0 0 0 24.382812 18.777344 z M 46.804688 21.482422 L 34.205078 23.128906 C 34.44044 23.80601 34.392905 24.483053 34.164062 25.160156 L 46.777344 26.748047 C 46.978366 25.024995 46.974213 23.268226 46.804688 21.482422 z M 33.386719 28.162109 C 33.180927 28.787068 32.862306 29.389549 32.398438 29.962891 L 43.203125 36.933594 C 44.126464 35.395651 44.88725 33.811114 45.449219 32.169922 L 33.386719 28.162109 z "
       d="M 23.716797,1.5507812 C 13.054917,1.4890556 1.9733627,10.519958 1.9121094,24.298828 1.8509471,38.056683 13.259691,46.4945 24.5,46.496094 c 5.690366,8.25e-4 9.457765,-1.516473 11.8125,-3 1.528538,-0.963008 2.270918,-1.721888 2.720703,-2.248047 L 33.878906,36.46875 c -0.925476,0.772333 -4.272843,3.388934 -9.779297,3.322266 -3.225387,-0.03905 -7.03169,-1.340585 -10.097656,-3.896485 C 10.935987,33.338632 8.6400769,29.459864 8.6953125,24.441406 8.8047934,14.495716 16.632414,8.5076273 23.964844,8.5664062 c 3.567723,0.028595 6.2035,0.9711476 7.943359,1.9257818 1.219013,0.668853 1.477955,1.02561 1.853516,1.386718 L 39.105469,7.15625 C 37.612963,5.6949958 32.697585,1.6027744 23.716797,1.5507812 Z m 19.128906,11.2499998 -9.146484,5.902344 c 0.05888,0.103249 0.117434,0.205832 0.169922,0.310547 l 10.292968,-3.421875 c -0.372048,-0.945641 -0.812085,-1.87552 -1.316406,-2.791016 z m -18.462891,6.9375 c -1.162382,1.05e-4 -2.316887,0.478699 -3.138671,1.300781 -0.821785,0.822083 -1.301089,1.978229 -1.300782,3.140626 1.13e-4,1.162128 0.479038,2.316927 1.300782,3.138671 0.821744,0.821744 1.976557,1.300677 3.138671,1.300782 1.162115,-1.05e-4 2.316928,-0.479038 3.138672,-1.300782 0.821745,-0.821744 1.300669,-1.976543 1.300782,-3.138671 3.07e-4,-1.162397 -0.478997,-2.318543 -1.300782,-3.140626 C 26.6997,20.21698 25.545195,19.738386 24.382812,19.738281 Z m 21.458985,2.839844 -10.556641,1.378906 c 0.0028,0.127622 0.0092,0.25089 0,0.376953 l 10.542969,1.326172 c 0.07193,-1.012289 0.07383,-2.039573 0.01367,-3.082031 z m -12.011719,6.744141 c -0.05223,0.104208 -0.111354,0.205837 -0.169922,0.308593 l 9.146485,5.902344 c 0.504321,-0.915496 0.944357,-1.845374 1.316406,-2.791015 z" />
  </g>
</svg>
