<?xml version="1.0" encoding="UTF-8" standalone="no"?>
<!-- Created with Inkscape (http://www.inkscape.org/) -->

<svg
   width="48"
   height="48"
   viewBox="0 0 48 48"
   version="1.1"
   id="svg1"
   xml:space="preserve"
   inkscape:version="1.3 (0e150ed, 2023-07-21)"
   sodipodi:docname="osd.svg"
   xmlns:inkscape="http://www.inkscape.org/namespaces/inkscape"
   xmlns:sodipodi="http://sodipodi.sourceforge.net/DTD/sodipodi-0.dtd"
   xmlns="http://www.w3.org/2000/svg"
   xmlns:svg="http://www.w3.org/2000/svg"><sodipodi:namedview
     id="namedview1"
     pagecolor="#ffffff"
     bordercolor="#000000"
     borderopacity="0.25"
     inkscape:showpageshadow="2"
     inkscape:pageopacity="0.0"
     inkscape:pagecheckerboard="0"
     inkscape:deskcolor="#d1d1d1"
     inkscape:document-units="px"
     inkscape:zoom="12.315443"
     inkscape:cx="7.7138922"
     inkscape:cy="23.425872"
     inkscape:window-width="2064"
     inkscape:window-height="1393"
     inkscape:window-x="411"
     inkscape:window-y="53"
     inkscape:window-maximized="0"
     inkscape:current-layer="layer1" /><defs
     id="defs1" /><g
     inkscape:label="Layer 1"
     inkscape:groupmode="layer"
     id="layer1"><g
       id="g11"
       transform="matrix(1.232872,0,0,1.232872,-6.9066306,-5.0589988)"><path
         id="path9"
         style="fill:#1cabbb;fill-opacity:1;stroke:none;stroke-width:0.1;stroke-dasharray:none"
         d="m 24.660156,14.125 -14.125,4.9375 -2.1230466,5.626953 1.0332031,7.923828 4.2773435,2.123047 16.248047,-5.28125 4.996094,-3.933594 0.574219,-4.535156 -4.306641,-5.052734 z m -0.61914,4.222656 c 1.508224,0.0064 3.504422,0.936389 4.955078,2.236328 2.210524,1.980859 2.665707,4.436938 1.291015,6 -1.37469,1.563063 -3.072565,1.922249 -4.134765,1.75 -0.746411,0.861242 -8.467267,3.043529 -11.251953,2.785157 -2.354066,-1.866028 -2.32692,-7.004479 -1.982422,-8.841797 0,0 8.36282,-1.64027 9.302734,-3.09961 0.375,-0.582236 1.03029,-0.833431 1.820313,-0.830078 z" /><path
         id="path1"
         style="fill:#f5a721;fill-opacity:1;stroke:none;stroke-width:0.1;stroke-dasharray:none"
         d="M 16.091797,4.8125 C 15.219331,4.81895 14.472551,4.906257 13.884766,5.0742188 10.74991,5.9700163 8.0796941,16.199538 7.4707031,20.421875 c -0.608991,4.222337 -1.0157538,11.97685 1.2578125,16.767578 2.2735664,4.790729 10.3929624,5.601564 13.4785154,5.601563 3.085553,-10e-7 10.109983,-3.652792 14.169922,-8.078125 4.059939,-4.425335 7.390209,-12.747983 7.349609,-13.884766 C 43.685963,19.691342 38.812342,13.276864 31.748047,9.4199219 26.008307,6.2861565 19.872482,4.7845575 16.091797,4.8125 Z m 9.521484,10.148438 c 1.899415,0.04935 4.221499,1.054938 6.535157,2.857421 3.365318,2.621794 4.145755,5.970429 0.648437,8.970703 -3.497319,3.000274 -8.23184,2.411212 -9.404297,-1.49414 -1.172458,-3.905353 -2.14066,-8.552482 -0.06641,-9.792969 0.648205,-0.387652 1.423739,-0.563449 2.287109,-0.541015 z M 11.164062,19.8125 c 1.606978,0.118837 2.693865,4.606767 3.167969,6.740234 0.474105,2.133469 1.733336,7.860531 -0.771484,7.632813 C 11.055726,33.957829 9.286277,30.196433 9.2050781,27.638672 9.1238792,25.08091 9.5570856,19.693663 11.164062,19.8125 Z" /><path
         id="path10"
         style="fill:#c16828;fill-opacity:1;stroke:none;stroke-width:0.1;stroke-dasharray:none"
         d="M 13.658203,5.1601562 C 10.621882,6.4656494 8.0649796,16.301559 7.4707031,20.421875 6.8617127,24.644208 6.4549516,32.39873 8.7285156,37.189453 10.962003,41.895728 18.811476,42.756068 22.013672,42.785156 l 0.113281,-0.07422 C 17.987984,36.482392 11.622823,9.3365036 13.658203,5.1601562 Z M 11.164062,19.8125 c 1.606978,0.118837 2.693865,4.606767 3.167969,6.740234 0.474105,2.133469 1.733336,7.860531 -0.771484,7.632813 C 11.055726,33.957829 9.286277,30.196433 9.2050781,27.638672 9.1238792,25.08091 9.5570856,19.693663 11.164062,19.8125 Z" /><path
         style="fill:none;stroke:#000000;stroke-width:1;stroke-linecap:butt;stroke-dasharray:none"
         d="m 14.088003,4.7501336 c 4.668935,1.9893722 7.267298,7.2266994 8.891276,10.8400484"
         id="path5"
         sodipodi:nodetypes="cc" /><path
         style="fill:none;stroke:#000000;stroke-width:1;stroke-linecap:butt;stroke-dasharray:none"
         d="m 31.058566,23.019879 c 4.790733,-3.004358 8.038688,-3.288555 12.626423,-2.19237"
         id="path6"
         sodipodi:nodetypes="cc" /><path
         style="fill:none;stroke:#000000;stroke-width:1;stroke-linecap:butt;stroke-dasharray:none"
         d="m 26.308433,28.419603 c 1.217982,6.901903 -0.487194,11.246042 -3.044958,14.2504"
         id="path7"
         sodipodi:nodetypes="cc" /></g></g></svg>
