<?xml version="1.0" encoding="UTF-8" standalone="no"?>
<!-- Created with Inkscape (http://www.inkscape.org/) -->

<svg
   width="48px"
   height="48px"
   id="svg2836"
   sodipodi:version="0.32"
   inkscape:version="1.3.2 (091e20e, 2023-11-25, custom)"
   sodipodi:docname="sdf.svg"
   version="1.1"
   xml:space="preserve"
   xmlns:inkscape="http://www.inkscape.org/namespaces/inkscape"
   xmlns:sodipodi="http://sodipodi.sourceforge.net/DTD/sodipodi-0.dtd"
   xmlns="http://www.w3.org/2000/svg"
   xmlns:svg="http://www.w3.org/2000/svg"
   xmlns:rdf="http://www.w3.org/1999/02/22-rdf-syntax-ns#"
   xmlns:cc="http://creativecommons.org/ns#"
   xmlns:dc="http://purl.org/dc/elements/1.1/"><defs
     id="defs2838"><linearGradient
       id="linearGradient2856"><stop
         style="stop-color:#fef8c1;stop-opacity:1;"
         offset="0"
         id="stop2858" /><stop
         style="stop-color:#fce94f;stop-opacity:1;"
         offset="1"
         id="stop2860" /></linearGradient></defs><sodipodi:namedview
     id="base"
     pagecolor="#ffffff"
     bordercolor="#666666"
     borderopacity="1.0"
     inkscape:pageopacity="0.0"
     inkscape:pageshadow="2"
     inkscape:zoom="15.75"
     inkscape:cx="24.127"
     inkscape:cy="31.2381"
     inkscape:current-layer="layer1"
     showgrid="true"
     inkscape:grid-bbox="false"
     inkscape:document-units="px"
     inkscape:window-width="1338"
     inkscape:window-height="1090"
     inkscape:window-x="291"
     inkscape:window-y="1"
     inkscape:showpageshadow="2"
     inkscape:pagecheckerboard="0"
     inkscape:deskcolor="#d1d1d1" /><metadata
     id="metadata2841"><rdf:RDF><cc:Work
         rdf:about=""><dc:format>image/svg+xml</dc:format><dc:type
           rdf:resource="http://purl.org/dc/dcmitype/StillImage" /></cc:Work></rdf:RDF></metadata><g
     id="layer1"
     inkscape:label="Layer 1"
     inkscape:groupmode="layer"><path
       style="color:#000000;overflow:visible;fill:#ffffff;stroke:#729fcf;stroke-width:4.99999;stroke-linecap:round;stroke-linejoin:round;stroke-dasharray:none;fill-opacity:0.5"
       d="M 11.2708,14.5328 C 13.0103,12.7 11.8362,6.77277 13.2765,4.36959 c 1.4403,-2.40317 4.674,-2.19231 4.285,0.7292 -0.1822,1.36934 -1.3205,3.26553 -1.1985,4.22657 0.145,1.14124 -0.7745,3.72254 -0.4881,3.88574 0.5389,0.3072 2.6052,-2.9058 4.0571,-4.28402 1.4519,-1.37813 3.4928,-2.81319 4.2394,-3.69157 0.7466,-0.87838 2.2586,-1.45452 2.9631,-0.54689 0.7046,0.90763 0.7414,3.94365 -0.3191,5.78808 -1.0603,1.8442 -3.4245,3.3776 -4.8321,4.284 -1.4075,0.9065 -4.0513,2.6044 -4.1939,3.0991 -0.074,0.2556 0.2992,0.6335 0.4846,1.0262 0.1733,0.3671 0.1543,0.7553 0.2449,0.8423 0.1872,0.18 1.5602,-0.1038 2.3383,0.05 0.7778,0.1549 1.2876,0.6989 2.2201,0.8604 0.9326,0.1615 2.3818,-0.034 3.2822,-0.2278 0.9004,-0.1935 2.1793,-0.5532 4.1028,-0.547 1.9233,0.01 4.5975,0.8184 6.7011,3.0536 2.1035,2.2351 3.0039,6.6564 2.6896,8.7048 0.9447,-0.3276 2.7287,1.3385 2.7806,2.5522 -0.035,1.9924 -1.3963,4.3739 -2.9197,4.6524 -0.058,0.4385 -0.8092,1.091 -1.3555,1.2542 -0.6713,0.2007 -1.5464,0.1146 -1.9244,-0.1642 -0.4766,0.509 -0.795,0.6502 -1.223,1.1371 -0.4279,0.4867 -0.3845,1.1336 -0.7252,1.3851 -0.3407,0.2515 -1.2286,0.9191 -1.7153,1.1828 -0.4866,0.2636 -2.3111,0.29 -3.9476,0.5103 -1.6365,0.2203 -4.3053,1.3645 -5.343,1.1518 -1.0377,-0.2128 -1.6383,-1.9731 -2.2126,-2.2701 -0.5744,-0.2968 -3.9729,1.0806 -5.0434,-0.2867 -1.0706,-1.3671 0.1089,-2.3735 0.1524,-2.9467 0.044,-0.5733 -0.1538,-0.449 0,-0.7292 0.1538,-0.2801 1.293,-0.7669 1.293,-0.7669 -0.6635,-0.1657 -1.068,-0.8594 -1.2018,-1.6486 -2.7391,0.1005 -5.7274,-2.9566 -6.2452,-5.5146 -0.50417,0.173 -2.08032,-0.3194 -3.23469,-1.1483 -0.60293,-0.433 -0.87089,-1.6147 -1.4607,-2.0871 -0.16937,-0.3195 0.27694,-1.315 0.39575,-2.4225 0.11881,-1.1076 -0.054,-2.3717 0.10569,-2.9097 0.0591,-0.1992 0.47729,-0.8689 0.41028,-1.3217 -0.0841,-0.568 -0.48054,-1.5002 -0.36963,-2.4209 0.075,-0.6226 0.76131,-1.3232 1.16346,-1.5543 1.37527,-0.7904 2.83674,-1.4586 4.03834,-2.7246 z"
       id="path3"
       sodipodi:nodetypes="szssszzzzzssszzzzzczcsczzzzzzzzzcccsczsssss" /><path
       style="color:#000000;overflow:visible;fill:none;stroke:#edd400;stroke-width:2.99999;stroke-linecap:round;stroke-linejoin:round;stroke-dasharray:none"
       d="M 11.2708,14.5328 C 13.0103,12.7 11.8362,6.77277 13.2765,4.36959 c 1.4403,-2.40317 4.674,-2.19231 4.285,0.7292 -0.1822,1.36934 -1.3205,3.26553 -1.1985,4.22657 0.145,1.14124 -0.7745,3.72254 -0.4881,3.88574 0.5389,0.3072 2.6052,-2.9058 4.0571,-4.28402 1.4519,-1.37813 3.4928,-2.81319 4.2394,-3.69157 0.7466,-0.87838 2.2586,-1.45452 2.9631,-0.54689 0.7046,0.90763 0.7414,3.94365 -0.3191,5.78808 -1.0603,1.8442 -3.4245,3.3776 -4.8321,4.284 -1.4075,0.9065 -4.0513,2.6044 -4.1939,3.0991 -0.074,0.2556 0.2992,0.6335 0.4846,1.0262 0.1733,0.3671 0.1543,0.7553 0.2449,0.8423 0.1872,0.18 1.5602,-0.1038 2.3383,0.05 0.7778,0.1549 1.2876,0.6989 2.2201,0.8604 0.9326,0.1615 2.3818,-0.034 3.2822,-0.2278 0.9004,-0.1935 2.1793,-0.5532 4.1028,-0.547 1.9233,0.01 4.5975,0.8184 6.7011,3.0536 2.1035,2.2351 3.0039,6.6564 2.6896,8.7048 0.9447,-0.3276 2.7287,1.3385 2.7806,2.5522 -0.035,1.9924 -1.3963,4.3739 -2.9197,4.6524 -0.058,0.4385 -0.8092,1.091 -1.3555,1.2542 -0.6713,0.2007 -1.5464,0.1146 -1.9244,-0.1642 -0.4766,0.509 -0.795,0.6502 -1.223,1.1371 -0.4279,0.4867 -0.3845,1.1336 -0.7252,1.3851 -0.3407,0.2515 -1.2286,0.9191 -1.7153,1.1828 -0.4866,0.2636 -2.3111,0.29 -3.9476,0.5103 -1.6365,0.2203 -4.3053,1.3645 -5.343,1.1518 -1.0377,-0.2128 -1.6383,-1.9731 -2.2126,-2.2701 -0.5744,-0.2968 -3.9729,1.0806 -5.0434,-0.2867 -1.0706,-1.3671 0.1089,-2.3735 0.1524,-2.9467 0.044,-0.5733 -0.1538,-0.449 0,-0.7292 0.1538,-0.2801 1.293,-0.7669 1.293,-0.7669 -0.6635,-0.1657 -1.068,-0.8594 -1.2018,-1.6486 -2.7391,0.1005 -5.7274,-2.9566 -6.2452,-5.5146 -0.50417,0.173 -2.08032,-0.3194 -3.23469,-1.1483 -0.60293,-0.433 -0.87089,-1.6147 -1.4607,-2.0871 -0.16937,-0.3195 0.27694,-1.315 0.39575,-2.4225 0.11881,-1.1076 -0.054,-2.3717 0.10569,-2.9097 0.0591,-0.1992 0.47729,-0.8689 0.41028,-1.3217 -0.0841,-0.568 -0.48054,-1.5002 -0.36963,-2.4209 0.075,-0.6226 0.76131,-1.3232 1.16346,-1.5543 1.37527,-0.7904 2.83674,-1.4586 4.03834,-2.7246 z"
       id="path2"
       sodipodi:nodetypes="szssszzzzzssszzzzzczcsczzzzzzzzzcccsczsssss" /><path
       style="color:#000000;overflow:visible;fill:none;stroke:#ef2929;stroke-width:0.999999;stroke-linecap:round;stroke-linejoin:round;stroke-dasharray:none"
       d="M 11.2708,14.5328 C 13.0103,12.7 11.8362,6.77277 13.2765,4.36959 c 1.4403,-2.40317 4.674,-2.19231 4.285,0.7292 -0.1822,1.36934 -1.3205,3.26553 -1.1985,4.22657 0.145,1.14124 -0.7745,3.72254 -0.4881,3.88574 0.5389,0.3072 2.6052,-2.9058 4.0571,-4.28402 1.4519,-1.37813 3.4928,-2.81319 4.2394,-3.69157 0.7466,-0.87838 2.2586,-1.45452 2.9631,-0.54689 0.7046,0.90763 0.7414,3.94365 -0.3191,5.78808 -1.0603,1.8442 -3.4245,3.3776 -4.8321,4.284 -1.4075,0.9065 -4.0513,2.6044 -4.1939,3.0991 -0.074,0.2556 0.2992,0.6335 0.4846,1.0262 0.1733,0.3671 0.1543,0.7553 0.2449,0.8423 0.1872,0.18 1.5602,-0.1038 2.3383,0.05 0.7778,0.1549 1.2876,0.6989 2.2201,0.8604 0.9326,0.1615 2.3818,-0.034 3.2822,-0.2278 0.9004,-0.1935 2.1793,-0.5532 4.1028,-0.547 1.9233,0.01 4.5975,0.8184 6.7011,3.0536 2.1035,2.2351 3.0039,6.6564 2.6896,8.7048 0.9447,-0.3276 2.7287,1.3385 2.7806,2.5522 -0.035,1.9924 -1.3963,4.3739 -2.9197,4.6524 -0.058,0.4385 -0.8092,1.091 -1.3555,1.2542 -0.6713,0.2007 -1.5464,0.1146 -1.9244,-0.1642 -0.4766,0.509 -0.795,0.6502 -1.223,1.1371 -0.4279,0.4867 -0.3845,1.1336 -0.7252,1.3851 -0.3407,0.2515 -1.2286,0.9191 -1.7153,1.1828 -0.4866,0.2636 -2.3111,0.29 -3.9476,0.5103 -1.6365,0.2203 -4.3053,1.3645 -5.343,1.1518 -1.0377,-0.2128 -1.6383,-1.9731 -2.2126,-2.2701 -0.5744,-0.2968 -3.9729,1.0806 -5.0434,-0.2867 -1.0706,-1.3671 0.1089,-2.3735 0.1524,-2.9467 0.044,-0.5733 -0.1538,-0.449 0,-0.7292 0.1538,-0.2801 1.293,-0.7669 1.293,-0.7669 -0.6635,-0.1657 -1.068,-0.8594 -1.2018,-1.6486 -2.7391,0.1005 -5.7274,-2.9566 -6.2452,-5.5146 -0.50417,0.173 -2.08032,-0.3194 -3.23469,-1.1483 -0.60293,-0.433 -0.87089,-1.6147 -1.4607,-2.0871 -0.16937,-0.3195 0.27694,-1.315 0.39575,-2.4225 0.11881,-1.1076 -0.054,-2.3717 0.10569,-2.9097 0.0591,-0.1992 0.47729,-0.8689 0.41028,-1.3217 -0.0841,-0.568 -0.48054,-1.5002 -0.36963,-2.4209 0.075,-0.6226 0.76131,-1.3232 1.16346,-1.5543 1.37527,-0.7904 2.83674,-1.4586 4.03834,-2.7246 z"
       id="path1"
       sodipodi:nodetypes="szssszzzzzssszzzzzczcsczzzzzzzzzcccsczsssss" /></g></svg>
