<?xml version="1.0" encoding="UTF-8" standalone="no"?>
<svg
   xmlns:dc="http://purl.org/dc/elements/1.1/"
   xmlns:cc="http://creativecommons.org/ns#"
   xmlns:rdf="http://www.w3.org/1999/02/22-rdf-syntax-ns#"
   xmlns:svg="http://www.w3.org/2000/svg"
   xmlns="http://www.w3.org/2000/svg"
   xmlns:sodipodi="http://sodipodi.sourceforge.net/DTD/sodipodi-0.dtd"
   xmlns:inkscape="http://www.inkscape.org/namespaces/inkscape"
   width="16.0px"
   height="16.0px"
   viewBox="0 0 16.0 16.0"
   version="1.1"
   id="SVGRoot"
   sodipodi:docname="purpose_render_off.svg"
   inkscape:version="1.0.1 (3bc2e813f5, 2020-09-07)">
  <defs
     id="defs2590" />
  <sodipodi:namedview
     id="base"
     pagecolor="#ffffff"
     bordercolor="#666666"
     borderopacity="1.0"
     inkscape:pageopacity="0.0"
     inkscape:pageshadow="2"
     inkscape:zoom="44.8"
     inkscape:cx="4.9151449"
     inkscape:cy="8.5536277"
     inkscape:document-units="px"
     inkscape:current-layer="layer1"
     inkscape:document-rotation="0"
     showgrid="true"
     inkscape:window-width="2560"
     inkscape:window-height="1377"
     inkscape:window-x="-8"
     inkscape:window-y="-8"
     inkscape:window-maximized="1"
     inkscape:snap-global="false">
    <inkscape:grid
       type="xygrid"
       id="grid3160" />
  </sodipodi:namedview>
  <metadata
     id="metadata2593">
    <rdf:RDF>
      <cc:Work
         rdf:about="">
        <dc:format>image/svg+xml</dc:format>
        <dc:type
           rdf:resource="http://purl.org/dc/dcmitype/StillImage" />
        <dc:title />
      </cc:Work>
    </rdf:RDF>
  </metadata>
  <g
     inkscape:label="Layer 1"
     inkscape:groupmode="layer"
     id="layer1">
    <path
       id="path8300"
       style="color:#000000;overflow:visible;fill:#eeeeec;fill-opacity:1;stroke:#555753;stroke-width:0.5;stroke-linecap:round;stroke-linejoin:miter;stroke-miterlimit:4;stroke-dasharray:none;stroke-opacity:1;stop-color:#000000"
       d="M 7.453962,0.24612202 C 6.7014366,0.24725817 6.1782545,0.68817883 6.1781133,1.1724141 5.6269748,0.9856025 5.2434104,1.1299359 5.1275202,1.9743596 4.9482853,1.9139798 4.5417342,1.9392201 4.3652547,1.3976797 3.8676873,1.9633994 4.0119702,2.1500467 4.1183743,2.5510395 L 3.0677814,2.5312161 C 3.05583,1.7663963 2.4324714,1.152638 1.6675913,1.1525907 0.89434672,1.1527329 0.26754351,1.7795633 0.26740138,2.5528417 0.26761867,2.9830595 0.35409608,3.4436671 0.7701723,3.626908 1.2658725,3.3645965 2.1311997,4.0611047 1.6261443,4.7135892 1.3240423,5.1647291 0.94775735,5.016133 0.59537382,5.0650035 0.58202251,6.0338122 1.1428198,6.4094642 1.5919054,6.5877989 l 0.00541,1.690393 c -0.08983,0.5763492 -0.93097266,1.1691758 -0.036041,1.8940331 -0.033348,0.640428 0.2228347,1.131183 -0.1820067,1.115516 -0.19575,-0.0076 -0.46225574,-0.275587 -0.62350797,-0.414489 -0.54715969,0.2406 -0.4881591,0.951994 -0.48835456,1.338978 1.4224e-4,0.773278 0.62694541,1.400109 1.40018993,1.400251 0.5584963,-3.17e-4 1.0634115,-0.332457 1.2848591,-0.845197 H 4.567084 c 0.1265209,0.484715 0.5640752,0.823075 1.0650093,0.823571 0.065827,4.71e-4 0.1315647,-0.005 0.1964231,-0.01622 v 0.490178 h 0.6433305 c -0.016676,0.04732 -0.025134,0.09567 -0.025229,0.14417 -4.447e-4,0.363999 0.4604382,0.659305 1.0073439,0.659578 0.5469057,-2.73e-4 1.0077885,-0.295579 1.0073439,-0.659578 -9.51e-5,-0.04851 -0.00855,-0.09685 -0.025229,-0.14417 h 0.6433305 v -0.490178 c 0.064858,0.01124 0.1305958,0.01669 0.196423,0.01622 0.5009341,-4.96e-4 0.9384878,-0.338856 1.0650098,-0.823571 h 1.614633 c 0.221448,0.51274 0.726363,0.84488 1.284859,0.845197 0.773245,-1.42e-4 1.400048,-0.626973 1.40019,-1.400251 -1.95e-4,-0.386984 0.0588,-1.098378 -0.488354,-1.338978 -0.161253,0.138902 -0.427758,0.406923 -0.623508,0.414489 -0.404841,0.01567 -0.231556,-0.352543 -0.264901,-0.992971 0.997066,-0.4876833 0.17358,-1.536014 0.04685,-2.0165781 l 0.0054,-1.690393 C 13.765104,6.4094642 14.325901,6.0338122 14.31255,5.0650035 13.960167,5.016133 13.583882,5.1647291 13.28178,4.7135892 12.776724,4.0611047 13.642052,3.3645966 14.137752,3.626908 14.553831,3.4436671 14.640305,2.9830594 14.640523,2.5528417 14.640381,1.7795634 14.013577,1.1527329 13.240333,1.1525907 12.475452,1.152638 11.852091,1.7663962 11.840143,2.5312161 L 10.78955,2.5510391 C 10.895954,2.1500463 11.040237,1.963399 10.54267,1.3976793 10.36619,1.9392196 9.9596383,1.9139795 9.7804038,1.9743592 9.6645138,1.1299355 9.2809488,0.9856025 8.7298108,1.1724141 8.7296696,0.68817883 8.2064874,0.24725817 7.453962,0.24612202 Z M 4.4283264,3.4989572 h 6.0134286 v 1.7102163 h 1.64707 v 4.7576093 h -1.64707 V 11.655374 H 4.4283264 V 9.9667828 H 2.7596314 V 5.2091735 h 1.668695 z" />
    <g
       id="g4027"
       transform="translate(-10.602678,9.5758929)">
      <path
         id="path4023"
         style="fill:#ef2929;fill-rule:evenodd;stroke:#555753;stroke-width:2;stroke-linecap:butt;stroke-linejoin:bevel;stroke-miterlimit:4;stroke-dasharray:none;stroke-opacity:1"
         d="m 21.275882,0.03554424 -1.666628,0.019303 2.245025,2.69886226 -2.245025,2.63569 1.807271,-0.02106 1.306229,-1.570534 1.306228,1.570534 1.80903,0.02106 -2.245026,-2.63569 2.245026,-2.69886226 -1.668386,-0.019303 -1.446872,1.69863426 z" />
      <path
         id="path4017"
         style="fill:#d3d7cf;fill-opacity:1;fill-rule:evenodd;stroke:none;stroke-width:0.999996px;stroke-linecap:butt;stroke-linejoin:miter;stroke-opacity:1"
         d="m 21.275882,0.03554424 -1.666628,0.019303 2.245025,2.69886226 -2.245025,2.63569 1.807271,-0.02106 1.306229,-1.570534 1.306228,1.570534 1.80903,0.02106 -2.245026,-2.63569 2.245026,-2.69886226 -1.668386,-0.019303 -1.446872,1.69863426 z" />
    </g>
    <g
       id="g4031"
       transform="matrix(1.0568733,0,0,1.1057975,-3.0639468,-1.7884418)"
       style="stroke-width:0.92502">
      <path
         style="fill:#73d216;fill-rule:evenodd;stroke:#254903;stroke-width:1.85004;stroke-linecap:butt;stroke-linejoin:bevel;stroke-miterlimit:4;stroke-dasharray:none;stroke-opacity:1"
         d="m 25.491071,9.0670861 -2.256757,4.9633199 -1.585666,0.02691 -1.760255,-3.059725 1.49638,0.04464 0.967424,1.728763 1.642494,-3.7308159 z"
         id="path4013"
         sodipodi:nodetypes="cccccccc" />
      <path
         style="fill:#8ae234;fill-rule:evenodd;stroke:none;stroke-width:0.925019px;stroke-linecap:butt;stroke-linejoin:miter;stroke-opacity:1"
         d="m 25.491071,9.0670861 -2.256757,4.9633199 -1.585666,0.02691 -1.760255,-3.059725 1.49638,0.04464 0.967424,1.728763 1.642494,-3.7308159 z"
         id="path4015"
         sodipodi:nodetypes="cccccccc" />
    </g>
  </g>
</svg>
