<?xml version="1.0" encoding="UTF-8" standalone="no"?>
<svg
   xmlns:dc="http://purl.org/dc/elements/1.1/"
   xmlns:cc="http://creativecommons.org/ns#"
   xmlns:rdf="http://www.w3.org/1999/02/22-rdf-syntax-ns#"
   xmlns:svg="http://www.w3.org/2000/svg"
   xmlns="http://www.w3.org/2000/svg"
   xmlns:xlink="http://www.w3.org/1999/xlink"
   xmlns:sodipodi="http://sodipodi.sourceforge.net/DTD/sodipodi-0.dtd"
   xmlns:inkscape="http://www.inkscape.org/namespaces/inkscape"
   width="16.0px"
   height="16.0px"
   viewBox="0 0 16.0 16.0"
   version="1.1"
   id="SVGRoot"
   sodipodi:docname="purpose_guide_off.svg"
   inkscape:version="1.0.1 (3bc2e813f5, 2020-09-07)">
  <defs
     id="defs10704">
    <linearGradient
       inkscape:collect="always"
       id="linearGradient11743">
      <stop
         style="stop-color:#eeeeec;stop-opacity:1;"
         offset="0"
         id="stop11739" />
      <stop
         style="stop-color:#babdb6;stop-opacity:1"
         offset="1"
         id="stop11741" />
    </linearGradient>
    <linearGradient
       inkscape:collect="always"
       id="linearGradient11735">
      <stop
         style="stop-color:#eeeeec;stop-opacity:1;"
         offset="0"
         id="stop11731" />
      <stop
         style="stop-color:#babdb6;stop-opacity:1"
         offset="1"
         id="stop11733" />
    </linearGradient>
    <linearGradient
       inkscape:collect="always"
       id="linearGradient11656">
      <stop
         style="stop-color:#eeeeec;stop-opacity:1;"
         offset="0"
         id="stop11652" />
      <stop
         style="stop-color:#eeeeec;stop-opacity:0;"
         offset="1"
         id="stop11654" />
    </linearGradient>
    <linearGradient
       inkscape:collect="always"
       id="linearGradient11525">
      <stop
         style="stop-color:#eeeeec;stop-opacity:1;"
         offset="0"
         id="stop11521" />
      <stop
         style="stop-color:#d3d7cf;stop-opacity:1"
         offset="1"
         id="stop11523" />
    </linearGradient>
    <linearGradient
       inkscape:collect="always"
       id="linearGradient11447">
      <stop
         style="stop-color:#eeeeec;stop-opacity:1"
         offset="0"
         id="stop11443" />
      <stop
         style="stop-color:#d3d7cf;stop-opacity:1"
         offset="1"
         id="stop11445" />
    </linearGradient>
    <linearGradient
       inkscape:collect="always"
       id="linearGradient11435">
      <stop
         style="stop-color:#eeeeec;stop-opacity:1"
         offset="0"
         id="stop11431" />
      <stop
         style="stop-color:#d3d7cf;stop-opacity:1"
         offset="1"
         id="stop11433" />
    </linearGradient>
    <linearGradient
       inkscape:collect="always"
       id="linearGradient11418">
      <stop
         style="stop-color:#888a85;stop-opacity:1;"
         offset="0"
         id="stop11414" />
      <stop
         style="stop-color:#888a85;stop-opacity:0;"
         offset="1"
         id="stop11416" />
    </linearGradient>
    <linearGradient
       inkscape:collect="always"
       xlink:href="#linearGradient11418"
       id="linearGradient11420"
       x1="7.4300599"
       y1="8.3235483"
       x2="7.4300599"
       y2="10.878611"
       gradientUnits="userSpaceOnUse"
       gradientTransform="translate(-20.346451,-4.4831163)" />
    <linearGradient
       inkscape:collect="always"
       xlink:href="#linearGradient11447"
       id="linearGradient11437"
       x1="6.5052214"
       y1="6.9284525"
       x2="0.79943681"
       y2="3.997184"
       gradientUnits="userSpaceOnUse"
       gradientTransform="translate(-20.346451,-4.4831163)" />
    <linearGradient
       inkscape:collect="always"
       xlink:href="#linearGradient11435"
       id="linearGradient11441"
       gradientUnits="userSpaceOnUse"
       x1="6.7089992"
       y1="7.0225039"
       x2="0.79943681"
       y2="3.997184"
       gradientTransform="matrix(-1,0,0,1,-5.292623,-4.4831163)" />
    <linearGradient
       inkscape:collect="always"
       xlink:href="#linearGradient11525"
       id="linearGradient11527-0"
       x1="5.985394"
       y1="7.0494637"
       x2="1.1749107"
       y2="4.6331382"
       gradientUnits="userSpaceOnUse"
       gradientTransform="translate(-0.42578125,-3.4140625)" />
    <linearGradient
       inkscape:collect="always"
       xlink:href="#linearGradient11656"
       id="linearGradient11658-4"
       x1="7.576468"
       y1="7.6022935"
       x2="7.5325122"
       y2="2.9958971"
       gradientUnits="userSpaceOnUse"
       gradientTransform="translate(-0.45190816,-3.6147714)" />
    <linearGradient
       inkscape:collect="always"
       xlink:href="#linearGradient11735"
       id="linearGradient11737"
       x1="8.5556164"
       y1="7.3395896"
       x2="7.9258881"
       y2="5.3852611"
       gradientUnits="userSpaceOnUse"
       gradientTransform="matrix(0.93960922,0,0,0.93960922,0.00920016,0.00629269)" />
    <linearGradient
       inkscape:collect="always"
       xlink:href="#linearGradient11743"
       id="linearGradient11745"
       x1="7.1224418"
       y1="7.8607435"
       x2="4.7338181"
       y2="8.4904718"
       gradientUnits="userSpaceOnUse"
       gradientTransform="matrix(0.93960922,0,0,0.93960922,0.00920016,0.00629269)" />
  </defs>
  <sodipodi:namedview
     id="base"
     pagecolor="#ffffff"
     bordercolor="#666666"
     borderopacity="1.0"
     inkscape:pageopacity="0.0"
     inkscape:pageshadow="2"
     inkscape:zoom="32.563414"
     inkscape:cx="10.858419"
     inkscape:cy="6.8179785"
     inkscape:document-units="px"
     inkscape:current-layer="layer1"
     inkscape:document-rotation="0"
     showgrid="true"
     inkscape:window-width="2560"
     inkscape:window-height="1377"
     inkscape:window-x="-8"
     inkscape:window-y="-8"
     inkscape:window-maximized="1"
     inkscape:snap-global="false">
    <inkscape:grid
       type="xygrid"
       id="grid11274" />
  </sodipodi:namedview>
  <metadata
     id="metadata10707">
    <rdf:RDF>
      <cc:Work
         rdf:about="">
        <dc:format>image/svg+xml</dc:format>
        <dc:type
           rdf:resource="http://purl.org/dc/dcmitype/StillImage" />
        <dc:title></dc:title>
      </cc:Work>
    </rdf:RDF>
  </metadata>
  <g
     inkscape:label="Layer 1"
     inkscape:groupmode="layer"
     id="layer1">
    <path
       style="color:#000000;font-style:normal;font-variant:normal;font-weight:normal;font-stretch:normal;font-size:medium;line-height:normal;font-family:sans-serif;font-variant-ligatures:normal;font-variant-position:normal;font-variant-caps:normal;font-variant-numeric:normal;font-variant-alternates:normal;font-variant-east-asian:normal;font-feature-settings:normal;font-variation-settings:normal;text-indent:0;text-align:start;text-decoration:none;text-decoration-line:none;text-decoration-style:solid;text-decoration-color:#000000;letter-spacing:normal;word-spacing:normal;text-transform:none;writing-mode:lr-tb;direction:ltr;text-orientation:mixed;dominant-baseline:auto;baseline-shift:baseline;text-anchor:start;white-space:normal;shape-padding:0;shape-margin:0;inline-size:0;clip-rule:nonzero;display:inline;overflow:visible;visibility:visible;opacity:1;isolation:auto;mix-blend-mode:normal;color-interpolation:sRGB;color-interpolation-filters:linearRGB;solid-color:#000000;solid-opacity:1;vector-effect:none;fill:#888a85;fill-opacity:1;fill-rule:nonzero;stroke:none;stroke-width:1.99999;stroke-linecap:butt;stroke-linejoin:miter;stroke-miterlimit:4;stroke-dasharray:none;stroke-dashoffset:0;stroke-opacity:1;color-rendering:auto;image-rendering:auto;shape-rendering:auto;text-rendering:auto;enable-background:accumulate;stop-color:#000000;stop-opacity:1"
       d="M 5.5668698,0.20254224 C 4.9163738,0.37684117 4.4888817,1.072507 4.2007382,1.6175757 3.9125946,2.1626444 3.7571372,2.7940339 3.6777135,3.4986293 3.5188662,4.90782 3.6803178,6.6309857 4.167705,8.4499294 4.6550921,10.268874 5.3772653,11.841839 6.2194298,12.98281 c 0.4210823,0.570486 0.8708229,1.039233 1.3928973,1.367205 0.5220744,0.327971 1.2476393,0.708703 1.8981348,0.534404 L 8.8942948,12.651038 c -0.025704,0.0069 -0.1371731,0.196561 -0.2836329,0.107881 C 8.3752608,12.616385 8.0561609,12.306724 7.7316134,11.867024 7.0825185,10.987625 6.4184898,9.5900183 5.9826924,7.9636083 5.5468948,6.3371986 5.4216549,4.7939658 5.5440857,3.7078391 5.6053011,3.1647758 5.7329611,2.7399097 5.8615708,2.4966241 5.9901807,2.2533386 6.1429059,2.4428108 6.1686101,2.4359235 Z"
       id="path11701"
       sodipodi:nodetypes="csssssccssssscc" />
    <path
       style="color:#000000;font-style:normal;font-variant:normal;font-weight:normal;font-stretch:normal;font-size:medium;line-height:normal;font-family:sans-serif;font-variant-ligatures:normal;font-variant-position:normal;font-variant-caps:normal;font-variant-numeric:normal;font-variant-alternates:normal;font-variant-east-asian:normal;font-feature-settings:normal;font-variation-settings:normal;text-indent:0;text-align:start;text-decoration:none;text-decoration-line:none;text-decoration-style:solid;text-decoration-color:#000000;letter-spacing:normal;word-spacing:normal;text-transform:none;writing-mode:lr-tb;direction:ltr;text-orientation:mixed;dominant-baseline:auto;baseline-shift:baseline;text-anchor:start;white-space:normal;shape-padding:0;shape-margin:0;inline-size:0;clip-rule:nonzero;display:inline;overflow:visible;visibility:visible;opacity:1;isolation:auto;mix-blend-mode:normal;color-interpolation:sRGB;color-interpolation-filters:linearRGB;solid-color:#000000;solid-opacity:1;vector-effect:none;fill:#888a85;fill-opacity:1;fill-rule:nonzero;stroke:none;stroke-width:1.99999;stroke-linecap:butt;stroke-linejoin:miter;stroke-miterlimit:4;stroke-dasharray:none;stroke-dashoffset:0;stroke-opacity:1;color-rendering:auto;image-rendering:auto;shape-rendering:auto;text-rendering:auto;enable-background:accumulate;stop-color:#000000;stop-opacity:1"
       d="M 11.594655,3.9078732 C 10.21409,3.8099206 8.5113268,4.0034963 6.7039159,4.4877882 4.896505,4.97208 3.3250043,5.6542941 2.1783762,6.4294026 1.6050621,6.8169568 1.1337453,7.2244962 0.78914921,7.7030135 0.44455308,8.1815308 0.03009909,8.8699728 0.20494168,9.5224904 L 2.4094682,8.9207501 C 2.2673441,8.642017 2.9368754,8.22853 3.2317662,7.9874655 4.1339884,7.377573 5.5522767,6.7416634 7.190237,6.3027756 c 1.6379603,-0.438888 3.184154,-0.5982633 4.270451,-0.5211895 0.440971,0.05021 1.250835,0.1328371 1.084543,0.382789 L 14.886818,5.6203447 C 14.711977,4.9678265 13.971188,4.5573924 13.4335,4.3152818 12.895812,4.0731713 12.284938,3.9568494 11.594655,3.9078732 Z"
       id="path11705"
       sodipodi:nodetypes="sssscccscccss" />
    <path
       style="color:#000000;font-style:normal;font-variant:normal;font-weight:normal;font-stretch:normal;font-size:medium;line-height:normal;font-family:sans-serif;font-variant-ligatures:normal;font-variant-position:normal;font-variant-caps:normal;font-variant-numeric:normal;font-variant-alternates:normal;font-variant-east-asian:normal;font-feature-settings:normal;font-variation-settings:normal;text-indent:0;text-align:start;text-decoration:none;text-decoration-line:none;text-decoration-style:solid;text-decoration-color:#000000;letter-spacing:normal;word-spacing:normal;text-transform:none;writing-mode:lr-tb;direction:ltr;text-orientation:mixed;dominant-baseline:auto;baseline-shift:baseline;text-anchor:start;white-space:normal;shape-padding:0;shape-margin:0;inline-size:0;clip-rule:nonzero;display:inline;overflow:visible;visibility:visible;opacity:1;isolation:auto;mix-blend-mode:normal;color-interpolation:sRGB;color-interpolation-filters:linearRGB;solid-color:#000000;solid-opacity:1;vector-effect:none;fill:url(#linearGradient11737);fill-opacity:1;fill-rule:nonzero;stroke:none;stroke-width:0.999998;stroke-linecap:butt;stroke-linejoin:miter;stroke-miterlimit:4;stroke-dasharray:none;stroke-dashoffset:0;stroke-opacity:1;color-rendering:auto;image-rendering:auto;shape-rendering:auto;text-rendering:auto;enable-background:accumulate;stop-color:#000000;stop-opacity:1"
       d="M 11.559787,4.3758426 C 10.252789,4.2831097 8.5900858,4.4681353 6.8250373,4.9410762 5.0599888,5.414017 3.5281681,6.0846549 2.4426413,6.8184595 1.8998778,7.1853619 1.4664595,7.565983 1.1708654,7.9764545 0.87527135,8.386926 0.50208714,8.9118996 0.62937497,9.3869415 L 1.9850349,9.056299 C 1.952857,8.9362105 1.7781555,8.7418412 1.9324628,8.5251715 2.1286068,8.2497573 2.4858392,7.9221717 2.9675011,7.5965734 3.9308246,6.945377 5.3887926,6.2997263 7.0691156,5.8494875 8.7494384,5.3992487 10.333857,5.2313231 11.49372,5.3136166 c 0.579932,0.041147 1.053392,0.1474619 1.3617,0.2862872 0.308308,0.1388253 0.211914,0.3449031 0.244092,0.4649912 L 14.455171,5.7360878 C 14.313457,5.2754728 13.629899,4.8639954 13.240806,4.7428774 12.757836,4.5925366 12.213286,4.422209 11.559787,4.3758426 Z"
       id="path11709"
       sodipodi:nodetypes="ssssccsssssccss" />
    <path
       style="color:#000000;font-style:normal;font-variant:normal;font-weight:normal;font-stretch:normal;font-size:medium;line-height:normal;font-family:sans-serif;font-variant-ligatures:normal;font-variant-position:normal;font-variant-caps:normal;font-variant-numeric:normal;font-variant-alternates:normal;font-variant-east-asian:normal;font-feature-settings:normal;font-variation-settings:normal;text-indent:0;text-align:start;text-decoration:none;text-decoration-line:none;text-decoration-style:solid;text-decoration-color:#000000;letter-spacing:normal;word-spacing:normal;text-transform:none;writing-mode:lr-tb;direction:ltr;text-orientation:mixed;dominant-baseline:auto;baseline-shift:baseline;text-anchor:start;white-space:normal;shape-padding:0;shape-margin:0;inline-size:0;clip-rule:nonzero;display:inline;overflow:visible;visibility:visible;opacity:1;isolation:auto;mix-blend-mode:normal;color-interpolation:sRGB;color-interpolation-filters:linearRGB;solid-color:#000000;solid-opacity:1;vector-effect:none;fill:#555753;fill-opacity:1;fill-rule:nonzero;stroke:none;stroke-width:2.5;stroke-linecap:butt;stroke-linejoin:miter;stroke-miterlimit:4;stroke-dasharray:none;stroke-dashoffset:0;stroke-opacity:1;color-rendering:auto;image-rendering:auto;shape-rendering:auto;text-rendering:auto;enable-background:accumulate;stop-color:#000000;stop-opacity:1"
       d="M 6.6194978,0.16044733 C 6.2770265,0.08618056 5.9138897,0.07935096 5.5495913,0.17696389 L 6.157034,2.4470744 c -0.052396,0.01404 -0.040902,-0.030095 0.1559898,0.093593 0.1968916,0.1236892 0.5041722,0.4079832 0.8166525,0.831334 0.6249605,0.8467016 1.2791986,2.2239959 1.7085472,3.8263384 0.4293487,1.6023421 0.5509796,3.1219382 0.4331012,4.1676802 -0.058939,0.522872 -0.1831253,0.92307 -0.2917928,1.128632 -0.1086675,0.205563 -0.140486,0.1737 -0.088088,0.159661 l 0.6092774,2.268276 c 0.7285967,-0.195226 1.2481417,-0.74771 1.5562277,-1.330502 0.308086,-0.582791 0.467017,-1.238848 0.548717,-1.963635 C 11.769065,10.178877 11.60217,8.4339091 11.108334,6.5908979 10.614498,4.7478869 9.884369,3.1509381 9.0180706,1.9772698 8.5849213,1.3904357 8.1209839,0.90200963 7.5627774,0.55133944 7.2836741,0.37600436 6.9619692,0.2347141 6.6194978,0.16044733 Z"
       id="path11713" />
    <path
       style="color:#000000;font-style:normal;font-variant:normal;font-weight:normal;font-stretch:normal;font-size:medium;line-height:normal;font-family:sans-serif;font-variant-ligatures:normal;font-variant-position:normal;font-variant-caps:normal;font-variant-numeric:normal;font-variant-alternates:normal;font-variant-east-asian:normal;font-feature-settings:normal;font-variation-settings:normal;text-indent:0;text-align:start;text-decoration:none;text-decoration-line:none;text-decoration-style:solid;text-decoration-color:#000000;letter-spacing:normal;word-spacing:normal;text-transform:none;writing-mode:lr-tb;direction:ltr;text-orientation:mixed;dominant-baseline:auto;baseline-shift:baseline;text-anchor:start;white-space:normal;shape-padding:0;shape-margin:0;inline-size:0;clip-rule:nonzero;display:inline;overflow:visible;visibility:visible;opacity:1;isolation:auto;mix-blend-mode:normal;color-interpolation:sRGB;color-interpolation-filters:linearRGB;solid-color:#000000;solid-opacity:1;vector-effect:none;fill:url(#linearGradient11745);fill-opacity:1;fill-rule:nonzero;stroke:none;stroke-width:0.999998;stroke-linecap:butt;stroke-linejoin:miter;stroke-miterlimit:4;stroke-dasharray:none;stroke-dashoffset:0;stroke-opacity:1;color-rendering:auto;image-rendering:auto;shape-rendering:auto;text-rendering:auto;enable-background:accumulate;stop-color:#000000;stop-opacity:1"
       d="M 5.6879914,0.65583029 C 5.1936929,0.78827648 4.8637478,1.3681735 4.6154876,1.8377966 4.3672273,2.3074197 4.2187194,2.8858017 4.1438477,3.5500142 c -0.1497431,1.3284249 0.00449,3.0079834 0.4789805,4.7787938 0.4744896,1.77081 1.1807504,3.299477 1.9746476,4.375055 0.3969485,0.53779 0.8146231,0.965343 1.264435,1.247919 0.4498119,0.282576 1.0187041,0.638814 1.5130027,0.506369 L 9.0172515,13.13318 C 8.8930594,13.311766 8.6663646,13.3471 8.3610782,13.155317 8.0557918,12.963533 7.7022486,12.618367 7.3535675,12.145971 6.6562054,11.201178 5.978099,9.759272 5.5294043,8.0847297 5.0807094,6.4101867 4.9464166,4.8233467 5.0779514,3.6564543 5.1437189,3.0730081 5.2783283,2.5951344 5.4468215,2.2764032 5.6153146,1.9576722 5.8511595,1.9159565 6.0474886,1.9970629 Z"
       id="path11717"
       sodipodi:nodetypes="csssssccssssscc" />
    <path
       style="color:#000000;font-style:normal;font-variant:normal;font-weight:normal;font-stretch:normal;font-size:medium;line-height:normal;font-family:sans-serif;font-variant-ligatures:normal;font-variant-position:normal;font-variant-caps:normal;font-variant-numeric:normal;font-variant-alternates:normal;font-variant-east-asian:normal;font-feature-settings:normal;font-variation-settings:normal;text-indent:0;text-align:start;text-decoration:none;text-decoration-line:none;text-decoration-style:solid;text-decoration-color:#000000;letter-spacing:normal;word-spacing:normal;text-transform:none;writing-mode:lr-tb;direction:ltr;text-orientation:mixed;dominant-baseline:auto;baseline-shift:baseline;text-anchor:start;white-space:normal;shape-padding:0;shape-margin:0;inline-size:0;clip-rule:nonzero;display:inline;overflow:visible;visibility:visible;opacity:1;isolation:auto;mix-blend-mode:normal;color-interpolation:sRGB;color-interpolation-filters:linearRGB;solid-color:#000000;solid-opacity:1;vector-effect:none;fill:#555753;fill-opacity:1;fill-rule:nonzero;stroke:none;stroke-width:2.5;stroke-linecap:butt;stroke-linejoin:miter;stroke-miterlimit:4;stroke-dasharray:none;stroke-dashoffset:0;stroke-opacity:1;color-rendering:auto;image-rendering:auto;shape-rendering:auto;text-rendering:auto;enable-background:accumulate;stop-color:#000000;stop-opacity:1"
       d="M 14.897969,5.5742113 C 14.250493,5.7774992 12.7519,6.1174625 12.543441,6.1633023 12.419355,6.3356116 12.122249,6.624774 11.686414,6.9193941 10.814743,7.5086342 9.4144582,8.1378385 7.7976797,8.571051 6.1809009,9.0042626 4.6538182,9.1593636 3.6043066,9.0848998 3.0795507,9.0476678 2.6766332,8.9463558 2.4830151,8.8591733 2.2893969,8.7719908 2.3814642,8.7717712 2.4206191,8.9178989 L 0.15234375,9.5253412 C 0.35096418,10.2666 0.94363007,10.741497 1.5195486,11.000822 2.095467,11.260146 2.7304663,11.378136 3.4391408,11.428417 4.8564899,11.52898 6.5765296,11.329293 8.4051224,10.839326 10.233716,10.349359 11.825054,9.6604401 13.002234,8.8646789 13.590824,8.4667983 14.081089,8.048554 14.450187,7.5360127 14.819284,7.0234714 15.09659,6.3154691 14.897969,5.5742113 Z"
       id="path11721"
       sodipodi:nodetypes="ccssssccsssssc" />
    <path
       style="color:#000000;overflow:visible;fill:url(#linearGradient11441);fill-opacity:1;stroke:#555753;stroke-width:0.5;stroke-miterlimit:4;stroke-dasharray:none;stop-color:#000000"
       d="m -12.405207,1.9745679 4.134068,-2.17057482 c 0.0742,-0.3787659 0.308459,-0.7070182 0.642579,-0.90039058 0.639751,-0.3683484 1.457045,-0.1489465 1.826171,0.49023428 0.369159,0.6391374 0.150635,1.4564195 -0.488281,1.82617192 -0.413937,0.2389525 -0.923954,0.2389525 -1.33789,0 l -3.837495,1.9654968"
       id="path11439"
       sodipodi:nodetypes="ccccccc" />
    <path
       style="color:#000000;overflow:visible;fill:url(#linearGradient11437);fill-opacity:1;stroke:#555753;stroke-width:0.5;stroke-miterlimit:4;stroke-dasharray:none;stop-color:#000000"
       d="m -13.233867,1.9745679 -4.134068,-2.17057482 c -0.0742,-0.3787659 -0.308459,-0.7070182 -0.642579,-0.90039058 -0.639751,-0.3683484 -1.457045,-0.1489465 -1.826171,0.49023428 -0.369159,0.6391374 -0.150635,1.4564195 0.488281,1.82617192 0.413937,0.2389525 0.923954,0.2389525 1.33789,0 l 3.837495,1.9654968"
       id="rect11344"
       sodipodi:nodetypes="ccccccc" />
    <path
       id="path11424"
       style="color:#000000;overflow:visible;fill:#eeeeec;stroke:#555753;stroke-width:0.5;stroke-miterlimit:4;stroke-dasharray:none;stop-color:#000000"
       d="m -7.719498,4.8743057 c 0.425703,-0.2963527 0.984406,-0.3199492 1.433594,-0.060547 0.640088,0.3698068 0.85877,1.188553 0.488281,1.828125 -0.369795,0.638472 -1.186932,0.856958 -1.826172,0.488281 -0.294464,-0.170124 -0.513058,-0.445985 -0.611328,-0.771484 l -3.871094,-2.0351564 v 3.5253904 c 0.344361,0.251393 0.548214,0.651845 0.548828,1.078125 2.9e-4,0.738868 -0.598812,1.3379703 -1.33789,1.3378913 -0.739079,7.9e-5 -1.338181,-0.5990233 -1.337891,-1.3378913 4.53e-4,-0.451653 0.228907,-0.872566 0.607422,-1.11914 V 4.1926649 l -3.728516,1.9609378 c -0.05609,0.409395 -0.298335,0.769877 -0.65625,0.976562 -0.639239,0.368676 -1.456376,0.150191 -1.826171,-0.488281 -0.37049,-0.639572 -0.151807,-1.4583183 0.488281,-1.828125 0.390789,-0.2252908 0.868837,-0.2385087 1.271484,-0.035156 l 3.417969,-1.796875 1.021499,-0.5520665 0.0117,-0.6588711 v -3.5429687 c -0.379096,-0.2469526 -0.607629,-0.6687472 -0.607422,-1.1210937 -2.9e-4,-0.7388677 0.598813,-1.3379698 1.337891,-1.3378907 0.739078,-7.9e-5 1.33818,0.599023 1.33789,1.3378907 9e-6,0.4269689 -0.203911,0.8282786 -0.548828,1.0800781 v 3.453125 l 0.02061,0.9151323 0.764544,0.4266646 z"
       sodipodi:nodetypes="ccccccccccccccccccccccccccccc" />
    <path
       style="fill:url(#linearGradient11420);fill-opacity:1;fill-rule:evenodd;stroke:none;stroke-width:1px;stroke-linecap:butt;stroke-linejoin:miter;stroke-opacity:1"
       d="m -13.433674,3.8090814 0.531468,-0.2064592 0.563063,0.3124003 -0.01294,2.5588482 -1.034565,0.01567 z"
       id="path11396"
       sodipodi:nodetypes="cccccc" />
    <path
       style="color:#000000;font-style:normal;font-variant:normal;font-weight:normal;font-stretch:normal;font-size:medium;line-height:normal;font-family:sans-serif;font-variant-ligatures:normal;font-variant-position:normal;font-variant-caps:normal;font-variant-numeric:normal;font-variant-alternates:normal;font-variant-east-asian:normal;font-feature-settings:normal;font-variation-settings:normal;text-indent:0;text-align:start;text-decoration:none;text-decoration-line:none;text-decoration-style:solid;text-decoration-color:#000000;letter-spacing:normal;word-spacing:normal;text-transform:none;writing-mode:lr-tb;direction:ltr;text-orientation:mixed;dominant-baseline:auto;baseline-shift:baseline;text-anchor:start;white-space:normal;shape-padding:0;shape-margin:0;inline-size:0;clip-rule:nonzero;display:inline;overflow:visible;visibility:visible;opacity:1;isolation:auto;mix-blend-mode:normal;color-interpolation:sRGB;color-interpolation-filters:linearRGB;solid-color:#000000;solid-opacity:1;vector-effect:none;fill:#eeeeec;fill-opacity:1;fill-rule:nonzero;stroke:none;stroke-width:1.5;stroke-linecap:butt;stroke-linejoin:miter;stroke-miterlimit:4;stroke-dasharray:none;stroke-dashoffset:0;stroke-opacity:1;color-rendering:auto;image-rendering:auto;shape-rendering:auto;text-rendering:auto;enable-background:accumulate;stop-color:#000000;stop-opacity:1"
       d="m 14.442846,5.697168 -1.359865,0.3633646 c 0.0084,0.031349 0.01527,0.135855 -0.157824,0.3762107 C 12.752069,6.677099 12.41523,6.9931789 11.948844,7.3084511 11.016071,7.9389954 9.5779427,8.5797755 7.9188013,9.0243389 6.2596596,9.4689017 4.6943526,9.6325525 3.5712734,9.5528689 3.0097338,9.5130276 2.5604,9.4083796 2.2903218,9.2867689 2.0202435,9.165158 1.9757312,9.0703698 1.9673311,9.0390203 L 0.60563179,9.4042199 c 0.15106535,0.5637806 0.60715171,0.9422751 1.10661011,1.1671711 0.4994584,0.224897 1.0880412,0.339551 1.7599321,0.387222 1.3437817,0.09534 3.0255969,-0.09396 4.8118269,-0.572575 C 10.070231,9.907422 11.621891,9.2300788 12.737969,8.4756219 13.296007,8.0983934 13.748375,7.7052314 14.068471,7.2607365 14.388565,6.8162417 14.593912,6.2609488 14.442846,5.697168 Z"
       id="path11725" />
    <path
       style="color:#000000;font-style:normal;font-variant:normal;font-weight:normal;font-stretch:normal;font-size:medium;line-height:normal;font-family:sans-serif;font-variant-ligatures:normal;font-variant-position:normal;font-variant-caps:normal;font-variant-numeric:normal;font-variant-alternates:normal;font-variant-east-asian:normal;font-feature-settings:normal;font-variation-settings:normal;text-indent:0;text-align:start;text-decoration:none;text-decoration-line:none;text-decoration-style:solid;text-decoration-color:#000000;letter-spacing:normal;word-spacing:normal;text-transform:none;writing-mode:lr-tb;direction:ltr;text-orientation:mixed;dominant-baseline:auto;baseline-shift:baseline;text-anchor:start;white-space:normal;shape-padding:0;shape-margin:0;inline-size:0;clip-rule:nonzero;display:inline;overflow:visible;visibility:visible;opacity:1;isolation:auto;mix-blend-mode:normal;color-interpolation:sRGB;color-interpolation-filters:linearRGB;solid-color:#000000;solid-opacity:1;vector-effect:none;fill:#eeeeec;fill-opacity:1;fill-rule:nonzero;stroke:none;stroke-width:1.5;stroke-linecap:butt;stroke-linejoin:miter;stroke-miterlimit:4;stroke-dasharray:none;stroke-dashoffset:0;stroke-opacity:1;color-rendering:auto;image-rendering:auto;shape-rendering:auto;text-rendering:auto;enable-background:accumulate;stop-color:#000000;stop-opacity:1"
       d="M 5.6707127,0.63025194 6.0359124,1.9919512 c 0.103802,-0.027813 0.2575403,-0.016765 0.5266951,0.1523195 0.2691547,0.1690853 0.6085006,0.4927376 0.9451147,0.948785 0.6732282,0.912095 1.3433785,2.3336873 1.7856246,3.9841634 0.4422464,1.6504758 0.571095,3.2155129 0.4441125,4.3420219 -0.063489,0.563255 -0.1946269,1.012791 -0.343178,1.293799 -0.1485512,0.281007 -0.2760794,0.366748 -0.379881,0.394561 l 0.3633644,1.3617 c 0.5723986,-0.153373 0.9943973,-0.590088 1.2626003,-1.097435 0.268202,-0.507345 0.420184,-1.110395 0.497332,-1.7948 0.154295,-1.368808 -0.0036,-3.0701694 -0.484486,-4.8650465 C 10.172273,4.917142 9.4598912,3.3644913 8.6418599,2.2562163 8.2328443,1.7020788 7.7973021,1.2548462 7.3113586,0.94957221 6.8254149,0.64429832 6.243111,0.47687915 5.6707127,0.63025194 Z"
       id="path11729" />
    <g
       id="g4031"
       transform="matrix(1.0568733,0,0,1.1057975,0.29394436,0.21177439)"
       style="stroke-width:0.92502">
      <path
         style="fill:#73d216;fill-rule:evenodd;stroke:#254903;stroke-width:1.85004;stroke-linecap:butt;stroke-linejoin:bevel;stroke-miterlimit:4;stroke-dasharray:none;stroke-opacity:1"
         d="m 25.491071,9.0670861 -2.256757,4.9633199 -1.585666,0.02691 -1.760255,-3.059725 1.49638,0.04464 0.967424,1.728763 1.642494,-3.7308159 z"
         id="path4013"
         sodipodi:nodetypes="cccccccc" />
      <path
         style="fill:#8ae234;fill-rule:evenodd;stroke:none;stroke-width:0.925019px;stroke-linecap:butt;stroke-linejoin:miter;stroke-opacity:1"
         d="m 25.491071,9.0670861 -2.256757,4.9633199 -1.585666,0.02691 -1.760255,-3.059725 1.49638,0.04464 0.967424,1.728763 1.642494,-3.7308159 z"
         id="path4015"
         sodipodi:nodetypes="cccccccc" />
    </g>
    <g
       id="g4027"
       transform="translate(-10.533819,9.6637348)">
      <path
         id="path4023"
         style="fill:#ef2929;fill-rule:evenodd;stroke:#555753;stroke-width:2;stroke-linecap:butt;stroke-linejoin:bevel;stroke-miterlimit:4;stroke-dasharray:none;stroke-opacity:1"
         d="m 21.275882,0.03554424 -1.666628,0.019303 2.245025,2.69886226 -2.245025,2.63569 1.807271,-0.02106 1.306229,-1.570534 1.306228,1.570534 1.80903,0.02106 -2.245026,-2.63569 2.245026,-2.69886226 -1.668386,-0.019303 -1.446872,1.69863426 z" />
      <path
         id="path4017"
         style="fill:#d3d7cf;fill-opacity:1;fill-rule:evenodd;stroke:none;stroke-width:0.999996px;stroke-linecap:butt;stroke-linejoin:miter;stroke-opacity:1"
         d="m 21.275882,0.03554424 -1.666628,0.019303 2.245025,2.69886226 -2.245025,2.63569 1.807271,-0.02106 1.306229,-1.570534 1.306228,1.570534 1.80903,0.02106 -2.245026,-2.63569 2.245026,-2.69886226 -1.668386,-0.019303 -1.446872,1.69863426 z" />
    </g>
  </g>
</svg>
