<?xml version="1.0" encoding="UTF-8" standalone="no"?>
<svg
   xmlns:dc="http://purl.org/dc/elements/1.1/"
   xmlns:cc="http://creativecommons.org/ns#"
   xmlns:rdf="http://www.w3.org/1999/02/22-rdf-syntax-ns#"
   xmlns:svg="http://www.w3.org/2000/svg"
   xmlns="http://www.w3.org/2000/svg"
   xmlns:sodipodi="http://sodipodi.sourceforge.net/DTD/sodipodi-0.dtd"
   xmlns:inkscape="http://www.inkscape.org/namespaces/inkscape"
   width="16.0px"
   height="16.0px"
   viewBox="0 0 16.0 16.0"
   version="1.1"
   id="SVGRoot"
   sodipodi:docname="purpose_render.svg"
   inkscape:version="1.0.1 (3bc2e813f5, 2020-09-07)">
  <defs
     id="defs2590" />
  <sodipodi:namedview
     id="base"
     pagecolor="#ffffff"
     bordercolor="#666666"
     borderopacity="1.0"
     inkscape:pageopacity="0.0"
     inkscape:pageshadow="2"
     inkscape:zoom="44.8"
     inkscape:cx="4.9151449"
     inkscape:cy="8.5536277"
     inkscape:document-units="px"
     inkscape:current-layer="layer1"
     inkscape:document-rotation="0"
     showgrid="true"
     inkscape:window-width="2560"
     inkscape:window-height="1377"
     inkscape:window-x="-8"
     inkscape:window-y="-8"
     inkscape:window-maximized="1"
     inkscape:snap-global="false">
    <inkscape:grid
       type="xygrid"
       id="grid3160" />
  </sodipodi:namedview>
  <metadata
     id="metadata2593">
    <rdf:RDF>
      <cc:Work
         rdf:about="">
        <dc:format>image/svg+xml</dc:format>
        <dc:type
           rdf:resource="http://purl.org/dc/dcmitype/StillImage" />
        <dc:title></dc:title>
      </cc:Work>
    </rdf:RDF>
  </metadata>
  <g
     inkscape:label="Layer 1"
     inkscape:groupmode="layer"
     id="layer1">
    <path
       id="path8300"
       style="color:#000000;overflow:visible;fill:#eeeeec;fill-opacity:1;stroke:#555753;stroke-width:0.5;stroke-linecap:round;stroke-linejoin:miter;stroke-miterlimit:4;stroke-dasharray:none;stroke-opacity:1;stop-color:#000000"
       d="M 8.0274675,0.2461008 C 7.2312631,0.24730285 6.6777137,0.71380159 6.6775643,1.2261276 6.0944359,1.028479 5.6886082,1.1811852 5.5659914,2.0745945 5.3763531,2.010712 4.9462044,2.0374165 4.7594814,1.464461 4.2330336,2.0629985 4.3856911,2.2604733 4.4982713,2.6847279 L 3.3866985,2.6637546 C 3.3740534,1.8545671 2.714513,1.2052043 1.9052368,1.2051543 1.0871105,1.2053047 0.42392558,1.8684979 0.4237752,2.6866347 0.4240051,3.1418097 0.51550195,3.6291374 0.9557286,3.8230082 1.4802009,3.5454799 2.3957545,4.2823929 1.861384,4.9727284 1.541747,5.4500392 1.1436213,5.292823 0.77078424,5.3445285 0.75665798,6.3695384 1.3500058,6.7669822 1.8251578,6.9556622 l 0.00572,1.7884537 c -0.095044,0.6097835 -0.98500937,1.2370004 -0.038133,2.0039071 -0.035284,0.67758 0.2357687,1.196804 -0.192571,1.180228 -0.207112,-0.008 -0.4890866,-0.291574 -0.65969842,-0.438534 -0.57891865,0.254557 -0.51649347,1.00722 -0.51670027,1.416653 1.5049e-4,0.818136 0.66333539,1.48133 1.48146159,1.48148 0.5909133,-3.35e-4 1.1251354,-0.351743 1.3594365,-0.894227 h 1.7083483 c 0.1338646,0.512834 0.596816,0.870822 1.1268259,0.871347 0.069648,4.98e-4 0.1392012,-0.0053 0.2078242,-0.01716 v 0.518613 h 0.6806715 c -0.017644,0.05007 -0.026593,0.10122 -0.026693,0.152534 -4.705e-4,0.385115 0.4871636,0.697551 1.0658135,0.69784 0.5786499,-2.89e-4 1.0662839,-0.312725 1.0658135,-0.69784 -1.007e-4,-0.05132 -0.00905,-0.102469 -0.026693,-0.152534 H 9.7472556 V 14.34781 c 0.068623,0.01189 0.138176,0.01766 0.2078241,0.01716 0.5300103,-5.25e-4 0.9929613,-0.358513 1.1268263,-0.871347 h 1.708352 c 0.234302,0.542484 0.768524,0.893892 1.359437,0.894227 0.818126,-1.5e-4 1.481311,-0.663344 1.481461,-1.48148 -2.06e-4,-0.409433 0.06221,-1.162096 -0.5167,-1.416653 -0.170612,0.14696 -0.452586,0.430529 -0.659698,0.438534 -0.428339,0.01658 -0.244996,-0.372995 -0.280277,-1.050574 1.054939,-0.515974 0.183655,-1.6251192 0.04957,-2.1335611 l 0.0057,-1.7884537 c 0.475162,-0.18868 1.06851,-0.5861238 1.054384,-1.6111337 C 14.911314,5.292823 14.513188,5.4500392 14.193551,4.9727284 13.65918,4.2823929 14.574735,3.54548 15.099207,3.8230082 15.539436,3.6291374 15.63093,3.1418096 15.63116,2.6866347 15.63101,1.868498 14.967824,1.2053047 14.149699,1.2051543 c -0.809278,5e-5 -1.468821,0.6494127 -1.481462,1.4586003 l -1.111573,0.020973 C 11.669244,2.2604729 11.821902,2.062998 11.295454,1.4644606 11.108731,2.037416 10.678582,2.0107117 10.488944,2.0745941 10.366327,1.1811848 9.9604987,1.028479 9.3773708,1.2261276 9.3772214,0.71380159 8.823672,0.24730285 8.0274675,0.2461008 Z M 4.826214,3.6876349 h 6.362468 v 1.809427 h 1.742671 V 10.530663 H 11.188682 V 12.31721 H 4.826214 V 10.530663 H 3.0606625 V 5.4970619 H 4.826214 Z" />
    <g
       id="g4027"
       transform="translate(-2.0535709,0.13392861)">
      <path
         id="path4023"
         style="fill:#ef2929;fill-rule:evenodd;stroke:#555753;stroke-width:2;stroke-linecap:butt;stroke-linejoin:bevel;stroke-miterlimit:4;stroke-dasharray:none;stroke-opacity:1"
         d="m 21.275882,0.03554424 -1.666628,0.019303 2.245025,2.69886226 -2.245025,2.63569 1.807271,-0.02106 1.306229,-1.570534 1.306228,1.570534 1.80903,0.02106 -2.245026,-2.63569 2.245026,-2.69886226 -1.668386,-0.019303 -1.446872,1.69863426 z" />
      <path
         id="path4017"
         style="fill:#d3d7cf;fill-opacity:1;fill-rule:evenodd;stroke:none;stroke-width:0.999996px;stroke-linecap:butt;stroke-linejoin:miter;stroke-opacity:1"
         d="m 21.275882,0.03554424 -1.666628,0.019303 2.245025,2.69886226 -2.245025,2.63569 1.807271,-0.02106 1.306229,-1.570534 1.306228,1.570534 1.80903,0.02106 -2.245026,-2.63569 2.245026,-2.69886226 -1.668386,-0.019303 -1.446872,1.69863426 z" />
    </g>
    <g
       id="g4031"
       transform="matrix(1.0568733,0,0,1.1057975,-3.0639468,-1.7884418)"
       style="stroke-width:0.92502">
      <path
         style="fill:#73d216;fill-rule:evenodd;stroke:#254903;stroke-width:1.85004;stroke-linecap:butt;stroke-linejoin:bevel;stroke-miterlimit:4;stroke-dasharray:none;stroke-opacity:1"
         d="m 25.491071,9.0670861 -2.256757,4.9633199 -1.585666,0.02691 -1.760255,-3.059725 1.49638,0.04464 0.967424,1.728763 1.642494,-3.7308159 z"
         id="path4013"
         sodipodi:nodetypes="cccccccc" />
      <path
         style="fill:#8ae234;fill-rule:evenodd;stroke:none;stroke-width:0.925019px;stroke-linecap:butt;stroke-linejoin:miter;stroke-opacity:1"
         d="m 25.491071,9.0670861 -2.256757,4.9633199 -1.585666,0.02691 -1.760255,-3.059725 1.49638,0.04464 0.967424,1.728763 1.642494,-3.7308159 z"
         id="path4015"
         sodipodi:nodetypes="cccccccc" />
    </g>
  </g>
</svg>
