<?xml version="1.0" encoding="UTF-8" standalone="no"?>
<!-- Created with Inkscape (http://www.inkscape.org/) -->

<svg
   width="20.209236mm"
   height="20.252008mm"
   viewBox="0 0 20.209237 20.252009"
   version="1.1"
   id="svg182"
   inkscape:version="1.1.1 (3bf5ae0d25, 2021-09-20)"
   sodipodi:docname="DB.svg"
   xmlns:inkscape="http://www.inkscape.org/namespaces/inkscape"
   xmlns:sodipodi="http://sodipodi.sourceforge.net/DTD/sodipodi-0.dtd"
   xmlns="http://www.w3.org/2000/svg"
   xmlns:svg="http://www.w3.org/2000/svg">
  <sodipodi:namedview
     id="namedview184"
     pagecolor="#ffffff"
     bordercolor="#666666"
     borderopacity="1.0"
     inkscape:pageshadow="2"
     inkscape:pageopacity="0.0"
     inkscape:pagecheckerboard="0"
     inkscape:document-units="mm"
     showgrid="false"
     inkscape:zoom="1.4823793"
     inkscape:cx="91.744397"
     inkscape:cy="38.788992"
     inkscape:window-width="1920"
     inkscape:window-height="1017"
     inkscape:window-x="-8"
     inkscape:window-y="-8"
     inkscape:window-maximized="1"
     inkscape:current-layer="layer1" />
  <defs
     id="defs179" />
  <g
     inkscape:label="Layer 1"
     inkscape:groupmode="layer"
     id="layer1"
     transform="translate(-55.223264,-135.17273)">
    <path
       style="fill:#000000;stroke-width:0.0846667"
       d="m 64.182723,155.3948 c -1.430664,-0.2183 -2.386226,-0.51903 -3.55443,-1.11862 -2.670674,-1.37076 -4.55639,-3.8674 -5.264963,-6.97067 -0.103311,-0.45246 -0.141357,-1.01231 -0.140033,-2.06058 0.0017,-1.3321 0.02121,-1.51331 0.262148,-2.43223 0.480551,-1.8328 1.362423,-3.37572 2.677507,-4.68454 1.994005,-1.98452 4.347109,-2.95543 7.162771,-2.95543 2.813921,0 5.187928,0.97875 7.161854,2.95268 1.321056,1.32105 2.1996,2.85891 2.67775,4.68729 0.23677,0.90538 0.260274,1.11602 0.266672,2.38989 0.0053,1.05988 -0.03055,1.57067 -0.148646,2.11667 -0.854663,3.95135 -3.843693,6.98993 -7.756296,7.88488 -0.702222,0.16062 -2.769013,0.27845 -3.344334,0.19066 z m 2.785031,-3.88576 c 0.918291,-0.23918 1.730322,-0.63317 2.211607,-1.07304 0.619246,-0.56595 0.934225,-1.2243 1.13867,-2.37997 0.192645,-1.08897 0.408538,-1.57673 1.094344,-2.47244 1.217609,-1.59027 1.44805,-3.68395 0.584939,-5.31451 -0.330576,-0.62451 -1.330427,-1.66372 -2.056835,-2.13781 -1.665448,-1.08694 -3.905109,-1.53297 -5.966642,-1.18826 -0.949994,0.15885 -1.920247,0.45498 -2.585114,0.78901 -1.525519,0.76641 -2.924304,2.21727 -3.435664,3.56356 -0.248729,0.65485 -0.305612,1.74358 -0.130074,2.4896 0.266995,1.13471 0.762466,1.80547 1.640856,2.22137 1.084501,0.51349 1.633517,1.11842 1.794088,1.97682 0.316091,1.68979 0.661317,2.16573 2.067731,2.85061 1.574028,0.7665 2.577182,0.95243 3.642094,0.67506 z m -4.199614,-4.82103 c -1.572316,-0.40533 -2.652335,-2.61722 -2.132558,-4.3675 0.291297,-0.98091 0.922513,-1.52144 1.774705,-1.51976 0.877618,0.002 1.830438,0.74086 2.329288,1.80688 1.034305,2.21026 -0.102077,4.56229 -1.971435,4.08038 z m 0.102249,-0.98393 c 0,-0.37731 -0.564301,-0.92221 -0.710336,-0.68592 -0.08872,0.14355 0.454574,0.94643 0.640428,0.94643 0.03845,0 0.06991,-0.11723 0.06991,-0.26051 z m 0.714496,-1.78454 c 0.713596,-0.32513 0.616824,-1.556 -0.169488,-2.15575 -0.214044,-0.16326 -0.433305,-0.24206 -0.745526,-0.26796 -0.385006,-0.0319 -0.477071,-0.007 -0.710681,0.18915 -0.349304,0.29392 -0.427089,0.68971 -0.234603,1.19373 0.32341,0.84683 1.204336,1.33971 1.860298,1.04083 z m 4.110957,2.22365 c -1.257307,-0.4044 -1.96452,-1.7859 -1.76455,-3.44694 0.169439,-1.40743 1.065551,-2.41642 2.146098,-2.41642 1.04666,0 1.828455,0.81692 2.126289,2.22183 0.238185,1.12353 -0.01096,2.18518 -0.690064,2.94051 -0.540844,0.60155 -1.262172,0.87973 -1.817773,0.70102 z m 0.37846,-1.1002 c 0.105933,-0.33376 -0.291392,-0.80286 -0.546488,-0.6452 -0.126809,0.0784 -0.104208,0.22262 0.08298,0.52964 0.187399,0.30735 0.386851,0.35708 0.463508,0.11556 z m 0.474306,-1.93239 c 0.301215,-0.25346 0.583397,-0.79777 0.583397,-1.12534 0,-0.11642 -0.07053,-0.36696 -0.156734,-0.55676 -0.281968,-0.62082 -1.025848,-0.7959 -1.611085,-0.37917 -0.298035,0.21221 -0.59913,0.80449 -0.59913,1.17853 0,0.93141 1.086591,1.46919 1.783552,0.88274 z"
       id="path216" />
  </g>
</svg>
