<?xml version="1.0" encoding="utf-8"?>
<!-- Generator: Adobe Illustrator 27.2.0, SVG Export Plug-In . SVG Version: 6.00 Build 0)  -->
<svg version="1.1"
	 id="svg22450" xmlns:cc="http://web.resource.org/cc/" xmlns:sodipodi="http://sodipodi.sourceforge.net/DTD/sodipodi-0.dtd" xmlns:svg="http://www.w3.org/2000/svg" xmlns:inkscape="http://www.inkscape.org/namespaces/inkscape" xmlns:dc="http://purl.org/dc/elements/1.1/" xmlns:rdf="http://www.w3.org/1999/02/22-rdf-syntax-ns#" inkscape:version="0.44" sodipodi:docname="file.svg" sodipodi:version="0.32"
	 xmlns="http://www.w3.org/2000/svg" xmlns:xlink="http://www.w3.org/1999/xlink" x="0px" y="0px" viewBox="0 0 48 48"
	 enable-background="new 0 0 48 48" xml:space="preserve">
<g id="shadow">
	
		<radialGradient id="ellipse4613_00000050660823997170575590000013018025864392592045_" cx="-148.7157" cy="36.346" r="8.698" gradientTransform="matrix(1.9285 0 0 -0.2874 303.3759 55.1628)" gradientUnits="userSpaceOnUse">
		<stop  offset="0.41" style="stop-color:#212121;stop-opacity:0.5"/>
		<stop  offset="0.65" style="stop-color:#212121;stop-opacity:0.21"/>
		<stop  offset="0.95" style="stop-color:#212121;stop-opacity:0"/>
	</radialGradient>
	
		<ellipse id="ellipse4613" fill="url(#ellipse4613_00000050660823997170575590000013018025864392592045_)" cx="16.5" cy="44.7" rx="16.1" ry="2.4"/>
</g>
<g id="shadow_00000000200789494919828610000016185268501231407232_">
	
		<radialGradient id="ellipse4613_00000121992047761942514630000011316774672493470095_" cx="-140.8931" cy="95.9264" r="8.4672" gradientTransform="matrix(1.9285 0 0 -0.2874 303.3759 55.1628)" gradientUnits="userSpaceOnUse">
		<stop  offset="0.41" style="stop-color:#212121;stop-opacity:0.5"/>
		<stop  offset="0.65" style="stop-color:#212121;stop-opacity:0.21"/>
		<stop  offset="0.95" style="stop-color:#212121;stop-opacity:0"/>
	</radialGradient>
	
		<ellipse id="ellipse4613_00000111896284588520229130000010648763887652863637_" fill="url(#ellipse4613_00000121992047761942514630000011316774672493470095_)" cx="31.6" cy="27.6" rx="15.7" ry="2.3"/>
</g>
<sodipodi:namedview  bordercolor="#666666" borderopacity="1.0" id="base" inkscape:current-layer="layer1" inkscape:cx="24" inkscape:cy="24" inkscape:document-units="px" inkscape:grid-bbox="true" inkscape:pageopacity="0.0" inkscape:pageshadow="2" inkscape:window-height="539" inkscape:window-width="853" inkscape:window-x="284" inkscape:window-y="244" inkscape:zoom="7" pagecolor="#ffffff" showgrid="true">
	</sodipodi:namedview>
<g id="layer2" inkscape:groupmode="layer" inkscape:label="dalsi cipek">
</g>
<g id="layer1" inkscape:groupmode="layer" inkscape:label="cipek">
	
		<linearGradient id="rect5876_00000153697032871802476260000016139208644763906737_" gradientUnits="userSpaceOnUse" x1="-3.4985" y1="55.1102" x2="-3.4805" y2="75.5452" gradientTransform="matrix(1.1415 0 0 -1.1415 35.8406 90.0477)">
		<stop  offset="0" style="stop-color:#CF72AD"/>
		<stop  offset="1" style="stop-color:#376DA5"/>
	</linearGradient>
	
		<rect id="rect5876" x="18.5" y="2.3" fill-rule="evenodd" clip-rule="evenodd" fill="url(#rect5876_00000153697032871802476260000016139208644763906737_)" width="26.7" height="25.4"/>
	<path id="path5933" fill-rule="evenodd" clip-rule="evenodd" fill="#BABDB6" d="M31.6,9.2c-0.1,0.5-0.6,0.9-1.1,0.9
		c-0.2,0-0.4-0.1-0.6-0.2c-0.4,0.5-0.9,0.8-1.6,0.8c-0.7,0-1.2-0.3-1.6-0.8c-0.2,0-0.3,0-0.5,0c-0.1,0-0.2,0-0.3,0
		c-0.4,0.8-1.3,1.4-2.3,1.4c-0.9,0-1.7-0.5-2.2-1.1c-0.2,0.1-0.3,0.1-0.5,0.1c-0.5,0-1-0.4-1.1-0.9c0,0.1,0,0.1,0,0.2
		c0,0.6,0.5,1.1,1.1,1.1c0.2,0,0.4,0,0.5-0.1c0.5,0.7,1.3,1.1,2.2,1.1c1,0,1.9-0.6,2.3-1.4c0.1,0,0.2,0,0.3,0c0.2,0,0.3,0,0.5,0
		c0.4,0.5,0.9,0.8,1.6,0.8c0.7,0,1.3-0.3,1.6-0.8c0.2,0.1,0.4,0.2,0.6,0.2c0.6,0,1.1-0.5,1.1-1.1C31.6,9.3,31.6,9.3,31.6,9.2z"/>
	<path id="path5944" fill="#17FFBA" d="M26.2,4.9c-1,0-1.9,0.6-2.3,1.4c-0.1,0-0.2,0-0.3,0c-1.2,0-2.2,0.8-2.5,1.9
		c-0.1,0-0.1,0-0.2,0c-0.6,0-1.1,0.5-1.1,1.1c0,0.6,0.5,1.1,1.1,1.1c0.2,0,0.4,0,0.5-0.1c0.5,0.7,1.3,1.1,2.2,1.1
		c1,0,1.9-0.6,2.3-1.4c0.1,0,0.2,0,0.3,0c0.2,0,0.3,0,0.5,0c0.4,0.5,0.9,0.8,1.6,0.8c0.7,0,1.3-0.3,1.6-0.8c0.2,0.1,0.4,0.2,0.6,0.2
		c0.6,0,1.1-0.5,1.1-1.1c0-0.6-0.5-1.1-1.1-1.1c-0.1,0-0.3,0-0.4,0.1c-0.3-0.5-0.8-0.9-1.4-1.1C28.5,5.8,27.4,4.9,26.2,4.9z"/>
	<g id="g6156" transform="translate(-0.777778,-4.722222)">
		<path id="path5971" fill="#E7B400" d="M34.9,17.6c0,0.1,0,0.1,0,0.2c0,0.6,0.5,1.1,1.1,1.1c0.2,0,0.4,0,0.5-0.1
			c0.5,0.7,1.3,1.1,2.2,1.1c1,0,1.9-0.6,2.3-1.4c0.1,0,0.2,0,0.3,0c0.2,0,0.3,0,0.5,0c0.4,0.5,0.9,0.8,1.6,0.8
			c0.7,0,1.3-0.3,1.6-0.8c0.1,0.1,0.3,0.1,0.4,0.1v-0.4c-0.1,0-0.3-0.1-0.4-0.1c-0.4,0.5-0.9,0.8-1.6,0.8c-0.7,0-1.2-0.3-1.6-0.8
			c-0.2,0-0.3,0-0.5,0c-0.1,0-0.2,0-0.3,0c-0.4,0.8-1.3,1.4-2.3,1.4c-0.9,0-1.7-0.5-2.2-1.1c-0.2,0.1-0.3,0.1-0.5,0.1
			C35.5,18.5,35,18.1,34.9,17.6z"/>
		<path id="path5973" fill="#E7B400" d="M41.3,13c-1,0-1.9,0.6-2.3,1.4c-0.1,0-0.2,0-0.3,0c-1.2,0-2.2,0.8-2.5,1.9
			c-0.1,0-0.1,0-0.2,0c-0.6,0-1.1,0.5-1.1,1.1c0,0.6,0.5,1.1,1.1,1.1c0.2,0,0.4,0,0.5-0.1c0.5,0.7,1.3,1.1,2.2,1.1
			c1,0,1.9-0.6,2.3-1.4c0.1,0,0.2,0,0.3,0c0.2,0,0.3,0,0.5,0c0.4,0.5,0.9,0.8,1.6,0.8c0.7,0,1.3-0.3,1.6-0.8
			c0.1,0.1,0.3,0.1,0.5,0.2v-2.2c-0.1,0-0.2,0-0.3,0.1c-0.3-0.5-0.8-0.9-1.4-1.1C43.6,13.9,42.6,13,41.3,13z"/>
	</g>
	<path id="path6027" sodipodi:nodetypes="ccccccccccccc" fill="#FFE800" stroke="#000000" stroke-miterlimit="10" d="M27.1,9
		l-4.2,4.1l-2.2,4.2L18.5,19v7.7l22,0.1l0.1-3.4l-1.4-2L36,18.9l-2-2.9l-1.2-3.7l-2.1,0.9L27.1,9z"/>
	<path id="path6029" fill-rule="evenodd" clip-rule="evenodd" fill="#E700C6" d="M27,9.6l-4,3.7L21,17.5l-2.5,1.9v5.1l0.6-0.1v-2.9
		l1.4-1.7l0,3l3.1-3.7l-0.5-3.1l1.4-2.8L27,9.6z"/>
	<path id="path6031" fill-rule="evenodd" clip-rule="evenodd" fill="#E700C6" d="M26.2,12.6l-1.9,3.6l0.4,2.6l1.7,1.3L26.2,12.6z"/>
	<path id="path6033" fill-rule="evenodd" clip-rule="evenodd" fill="#E700C6" d="M18.8,26.3l3.8-2l2-3.5l-0.9,4.4l-1.7,1.3
		L18.8,26.3z"/>
	<path id="path6049" fill-rule="evenodd" clip-rule="evenodd" fill="#12FF00" stroke="#0033E7" d="M41.1,16.6l-1.8,2l-2.2,1.8
		l-3,0.9l-1.9,2.3l-3.2,1.5l-2.5,2.5l18.5,0v-6.3L45,21.1L43.7,18L41.1,16.6z"/>
	<path id="path6051" sodipodi:nodetypes="ccccccccccccc" fill-rule="evenodd" clip-rule="evenodd" fill="#7F00B9" d="M41.2,17
		l-1.7,1.8l-1.4,2.8l-3.4,2.6v2.2l2.2-0.3v-1.9l0.9-1.1l0,1.9l2-2.4l-0.3-2l0.9-1.8L41.2,17z"/>
	<path id="path6053" fill-rule="evenodd" clip-rule="evenodd" fill="#7F00B9" d="M41.5,18.4l-1.2,2.4l0.2,1.7l1.1,0.9L41.5,18.4z"/>
	<path id="path6055" fill-rule="evenodd" clip-rule="evenodd" fill="#7F00B9" d="M36.6,27.3l2.4-1.3l1.3-2.3l-0.6,2.8l-1.1,0.8
		L36.6,27.3z"/>
	<path id="path6057" fill-rule="evenodd" clip-rule="evenodd" fill-opacity="0.216" d="M41.8,17.3l1,1.5l-0.3,1.5l0.7,1.7l1.1,1.5
		l-1.1,1.9l-1.5,0.8l0.9,0.7l0.2,0.5h2.5v-5.8l-0.4-0.4l-1.2-3.1L41.8,17.3z"/>
	<rect id="rect5886" x="19.5" y="3.2" fill="none" stroke="#FFFFFF" stroke-miterlimit="10" width="24.7" height="23.5"/>
	
		<rect id="rect6146" x="18.5" y="2.2" fill="none" stroke="#8A47FF" stroke-width="1.5" stroke-linecap="round" width="26.7" height="25.2"/>
	<path id="path6170" fill-rule="evenodd" clip-rule="evenodd" fill="#E700C6" d="M30.7,13.5l1.9-0.8l-0.9,2.8L30.7,13.5z"/>
</g>
<g id="layer1_00000015314950478411712710000005775193037526643368_" inkscape:groupmode="layer" inkscape:label="cipek">
	
		<linearGradient id="rect5876_00000052099267301859496520000012087476536192091297_" gradientUnits="userSpaceOnUse" x1="-16.6396" y1="40.1999" x2="-16.621" y2="61.1921" gradientTransform="matrix(1.1415 0 0 -1.1415 35.8406 90.0477)">
		<stop  offset="0" style="stop-color:#729FCF"/>
		<stop  offset="1" style="stop-color:#376DA5"/>
	</linearGradient>
	
		<rect id="rect5876_00000050629864253912652960000014310212432268472992_" x="3.2" y="18.6" fill-rule="evenodd" clip-rule="evenodd" fill="url(#rect5876_00000052099267301859496520000012087476536192091297_)" width="27.4" height="26"/>
	
		<path id="path5933_00000106857733017559866940000015824625718117994937_" fill-rule="evenodd" clip-rule="evenodd" fill="#BABDB6" d="
		M16.6,25.8c-0.1,0.5-0.6,0.9-1.1,0.9c-0.2,0-0.4-0.1-0.6-0.2c-0.4,0.5-1,0.9-1.7,0.9c-0.7,0-1.3-0.3-1.6-0.8c-0.2,0-0.3,0-0.5,0
		c-0.1,0-0.2,0-0.4,0C10.2,27.4,9.3,28,8.3,28c-0.9,0-1.7-0.5-2.2-1.2C5.9,26.9,5.8,27,5.6,27c-0.6,0-1-0.4-1.2-0.9
		c0,0.1,0,0.1,0,0.2c0,0.6,0.5,1.2,1.2,1.2c0.2,0,0.4,0,0.5-0.1c0.5,0.7,1.3,1.2,2.2,1.2c1,0,1.9-0.6,2.4-1.4c0.1,0,0.2,0,0.4,0
		c0.2,0,0.3,0,0.5,0c0.4,0.5,1,0.8,1.6,0.8c0.7,0,1.3-0.3,1.7-0.9c0.2,0.1,0.4,0.2,0.6,0.2c0.6,0,1.2-0.5,1.2-1.2
		C16.6,25.9,16.6,25.8,16.6,25.8z"/>
	
		<radialGradient id="path5944_00000056414447691661015610000011597962779694481837_" cx="-62.5316" cy="-43.9383" r="6.1014" gradientTransform="matrix(1.346 -2.037844e-02 -1.240667e-02 -0.8195 94.1155 -13.5115)" gradientUnits="userSpaceOnUse">
		<stop  offset="0" style="stop-color:#FFFFFF"/>
		<stop  offset="0.5" style="stop-color:#FFFFFF"/>
		<stop  offset="1" style="stop-color:#B6F9FF"/>
	</radialGradient>
	
		<path id="path5944_00000090296990387616666190000012065427049615838117_" fill-rule="evenodd" clip-rule="evenodd" fill="url(#path5944_00000056414447691661015610000011597962779694481837_)" d="
		M11,21.3c-1,0-1.9,0.6-2.4,1.4c-0.1,0-0.2,0-0.4,0c-1.2,0-2.3,0.8-2.6,2c-0.1,0-0.1,0-0.2,0c-0.6,0-1.2,0.5-1.2,1.2
		c0,0.6,0.5,1.2,1.2,1.2c0.2,0,0.4,0,0.5-0.1c0.5,0.7,1.3,1.2,2.2,1.2c1,0,1.9-0.6,2.4-1.4c0.1,0,0.2,0,0.4,0c0.2,0,0.3,0,0.5,0
		c0.4,0.5,1,0.8,1.6,0.8c0.7,0,1.3-0.3,1.7-0.9c0.2,0.1,0.4,0.2,0.6,0.2c0.6,0,1.2-0.5,1.2-1.2c0-0.6-0.5-1.2-1.2-1.2
		c-0.1,0-0.3,0-0.4,0.1c-0.3-0.6-0.8-1-1.4-1.1C13.4,22.2,12.3,21.3,11,21.3z"/>
	<g id="g6156_00000060018220570588684450000001562816844729232310_" transform="translate(-0.777778,-4.722222)">
		
			<path id="path5971_00000145050385885832130280000011115938850991151507_" fill-rule="evenodd" clip-rule="evenodd" fill="#BABDB6" d="
			M20,34.3c0,0.1,0,0.1,0,0.2c0,0.6,0.5,1.2,1.2,1.2c0.2,0,0.4,0,0.5-0.1c0.5,0.7,1.3,1.2,2.2,1.2c1,0,1.9-0.6,2.4-1.4
			c0.1,0,0.2,0,0.4,0c0.2,0,0.3,0,0.5,0c0.4,0.5,1,0.8,1.6,0.8c0.7,0,1.3-0.3,1.7-0.9c0.1,0.1,0.3,0.1,0.4,0.1v-0.4
			c-0.2,0-0.3-0.1-0.4-0.1c-0.4,0.5-1,0.9-1.7,0.9c-0.7,0-1.3-0.3-1.6-0.8c-0.2,0-0.3,0-0.5,0c-0.1,0-0.2,0-0.4,0
			c-0.4,0.8-1.3,1.4-2.4,1.4c-0.9,0-1.7-0.5-2.2-1.2c-0.2,0.1-0.3,0.1-0.5,0.1C20.6,35.2,20.1,34.8,20,34.3z"/>
		
			<radialGradient id="path5973_00000075884719806763655950000001034551192225332644_" cx="-78.5208" cy="-72.5296" r="6.1014" gradientTransform="matrix(1.4541 3.531329e-03 1.775414e-03 -0.731 140.0903 -20.6038)" gradientUnits="userSpaceOnUse">
			<stop  offset="0" style="stop-color:#FFFFFF"/>
			<stop  offset="0.5" style="stop-color:#FFFFFF"/>
			<stop  offset="1" style="stop-color:#B6F9FF"/>
		</radialGradient>
		
			<path id="path5973_00000113344106517133005790000010871681214513199757_" fill-rule="evenodd" clip-rule="evenodd" fill="url(#path5973_00000075884719806763655950000001034551192225332644_)" d="
			M26.6,29.6c-1,0-1.9,0.6-2.4,1.4c-0.1,0-0.2,0-0.4,0c-1.2,0-2.3,0.8-2.6,2c-0.1,0-0.1,0-0.2,0c-0.6,0-1.2,0.5-1.2,1.2
			c0,0.6,0.5,1.2,1.2,1.2c0.2,0,0.4,0,0.5-0.1c0.5,0.7,1.3,1.2,2.2,1.2c1,0,1.9-0.6,2.4-1.4c0.1,0,0.2,0,0.4,0c0.2,0,0.3,0,0.5,0
			c0.4,0.5,1,0.8,1.6,0.8c0.7,0,1.3-0.3,1.7-0.9c0.1,0.1,0.3,0.1,0.5,0.2v-2.3c-0.1,0-0.2,0-0.3,0.1c-0.3-0.6-0.8-1-1.4-1.1
			C28.9,30.4,27.9,29.6,26.6,29.6z"/>
	</g>
	
		<linearGradient id="path6027_00000176751019689604046660000006537116747782804149_" gradientUnits="userSpaceOnUse" x1="5.88" y1="18.141" x2="20.1447" y2="4.4514" gradientTransform="matrix(1 0 0 -1 0 50)">
		<stop  offset="0" style="stop-color:#D3D3D3"/>
		<stop  offset="1" style="stop-color:#A8BEBB"/>
	</linearGradient>
	
		<path id="path6027_00000165945658027922153940000015886443353439958931_" sodipodi:nodetypes="ccccccccccccc" fill-rule="evenodd" clip-rule="evenodd" fill="url(#path6027_00000176751019689604046660000006537116747782804149_)" stroke="#323232" stroke-width="1" d="
		M12,25.5l-4.4,4.2L5.4,34l-2.3,1.7v8l22.6,0.1l0.1-3.5l-1.4-2l-3.3-2.5l-2-3l-1.3-3.9l-2.1,0.9L12,25.5z"/>
	
		<path id="path6029_00000170242044247788277270000007996453186548536973_" fill-rule="evenodd" clip-rule="evenodd" fill="#EEEEEC" d="
		M11.9,26.1l-4.1,3.8l-2.1,4.3l-2.6,1.9v5.2l0.7-0.1v-3l1.4-1.7l0,3.1l3.2-3.8l-0.5-3.2l1.4-2.8L11.9,26.1z"/>
	
		<path id="path6031_00000062182376712888398650000013794687405751763884_" fill-rule="evenodd" clip-rule="evenodd" fill="#EEEEEC" d="
		M11.1,29.2l-1.9,3.7l0.4,2.7l1.7,1.4L11.1,29.2z"/>
	
		<path id="path6033_00000145026590461013004330000012038663894365265792_" fill-rule="evenodd" clip-rule="evenodd" fill="#EEEEEC" d="
		M3.4,43.3l3.9-2.1l2-3.6l-0.9,4.5l-1.8,1.3L3.4,43.3z"/>
	
		<path id="path6035_00000026155753532022264910000007792967983075012795_" sodipodi:nodetypes="ccccccccccccccccc" fill-rule="evenodd" clip-rule="evenodd" fill-opacity="0.1111" d="
		M12.1,26l1.2,3l1.5,3.5l-1.2,2.4l1.8,2.3l-1.8,3.1l-2.3,1.3l1.3,1.2l0.4,0.7l12.4,0l0.1-2.9l-1.9-2.9l-2.6-1.7l-2-3l-1.1-3.6
		l-2.2,0.8L12.1,26z"/>
	
		<path id="path6037_00000170246919002965884310000008405592961157500837_" sodipodi:nodetypes="ccccccccccc" fill-rule="evenodd" clip-rule="evenodd" fill-opacity="0.1543" d="
		M15.2,43.3l1.3-2l2-0.3l-1.6-3.1l2.8,1.2l-1.9-4.2l1-2.1L21,36l1.3,1l3.2,6.6L15.2,43.3z"/>
	
		<path id="path6049_00000044162946249615923840000014145919437904524459_" fill-rule="evenodd" clip-rule="evenodd" fill="#D3D3D3" stroke="#2E3436" d="
		M26.4,33.4l-1.9,2.1l-2.2,1.8l-3.1,0.9l-2,2.3L14,42.1l-2.6,2.5l19,0v-6.5L30.4,38L29,34.8L26.4,33.4z"/>
	
		<path id="path6051_00000101090463163854689310000014108236663301732018_" sodipodi:nodetypes="ccccccccccccc" fill-rule="evenodd" clip-rule="evenodd" fill="#EEEEEC" d="
		M26.4,33.8l-1.8,1.8l-1.4,2.8l-3.5,2.7v2.3L22,43v-1.9l0.9-1.1l0,2l2.1-2.5l-0.3-2.1l0.9-1.9L26.4,33.8z"/>
	
		<path id="path6053_00000157993809489082696130000013980634154263180444_" fill-rule="evenodd" clip-rule="evenodd" fill="#EEEEEC" d="
		M26.8,35.2l-1.2,2.4l0.2,1.8l1.1,0.9L26.8,35.2z"/>
	
		<path id="path6055_00000043424330212456426030000000737870937416436866_" fill-rule="evenodd" clip-rule="evenodd" fill="#EEEEEC" d="
		M21.8,44.4l2.5-1.3l1.3-2.4L25,43.6l-1.2,0.9L21.8,44.4z"/>
	
		<path id="path6057_00000061454674106332103970000012435332991825389744_" fill-rule="evenodd" clip-rule="evenodd" fill-opacity="0.216" d="
		M27.1,34.1l1,1.5l-0.4,1.6l0.7,1.7l1.1,1.5l-1.1,2l-1.5,0.8l0.9,0.8l0.2,0.5h2.6v-6L30.1,38l-1.3-3.2L27.1,34.1z"/>
	
		<linearGradient id="rect5886_00000062185057776932040560000010841738522586830226_" gradientUnits="userSpaceOnUse" x1="-20.3383" y1="66.2741" x2="-19.8985" y2="40.8997" gradientTransform="matrix(1.1585 0 0 -1.1595 40.1915 95.5686)">
		<stop  offset="0" style="stop-color:#EEEEEC"/>
		<stop  offset="1" style="stop-color:#EEEEEC;stop-opacity:0"/>
	</linearGradient>
	
		<rect id="rect5886_00000121280893015201640990000012693754153854318013_" x="4.2" y="19.6" fill="none" stroke="url(#rect5886_00000062185057776932040560000010841738522586830226_)" stroke-width="1.5" stroke-linecap="round" width="25.4" height="24.1"/>
	
		<rect id="rect6146_00000070811191799930172080000003637217545593795730_" x="3.1" y="18.6" fill="none" stroke="#204A87" stroke-width="1.5" stroke-linecap="round" width="27.4" height="25.9"/>
	
		<path id="path6170_00000178190213968133845410000018028277348112174229_" fill-rule="evenodd" clip-rule="evenodd" fill="#EEEEEC" fill-opacity="0.75" d="
		M15.7,30.1l1.9-0.8l-1,2.9L15.7,30.1z"/>
	
		<path id="path6172_00000067214886048148599310000002238456318984494508_" sodipodi:nodetypes="ccccccsssc" fill-rule="evenodd" clip-rule="evenodd" fill="#FFFFFF" fill-opacity="0.5432" d="
		M6.9,31.8l1-1.9L12,26l3.7,4.2l1.9-0.9l0.9,2.5c0,0-0.1,1.2-1.8,1.2c-1.7,0-2.5-1.2-4-1.2s-1.9,1.4-3.7,1.2
		C7.3,32.9,6.9,31.9,6.9,31.8z"/>
</g>
<g id="layer1_00000019674471670430504870000002551842730279824032_" inkscape:groupmode="layer" inkscape:label="Layer 1">
	
		<path id="path962" fill-rule="evenodd" clip-rule="evenodd" fill="#D95C84" stroke="#F9C3D1" stroke-width="0.5" stroke-linecap="round" stroke-linejoin="round" d="
		M27.9,47.6V34L24,36.3v9L27.9,47.6z"/>
	
		<path id="path1095" fill-rule="evenodd" clip-rule="evenodd" fill="#C4436C" stroke="#F9C3D1" stroke-width="0.5" stroke-linecap="round" stroke-linejoin="round" d="
		M28,34l7.9,4.5l-3.9,2.2l-4-2.3V34z"/>
	
		<path id="path1292" sodipodi:nodetypes="ccccc" fill-rule="evenodd" clip-rule="evenodd" fill="#2B8BA1" stroke="#B7E4F2" stroke-width="0.5" stroke-linecap="round" stroke-linejoin="round" d="
		M35.8,43.1l3.9-2.2l4,2.3l0,4.5L35.8,43.1z"/>
	
		<linearGradient id="path1337_00000013189216356329412550000008045567482544736928_" gradientUnits="userSpaceOnUse" x1="37.5386" y1="33.1082" x2="32.5942" y2="22.7754" gradientTransform="matrix(1.0347 0 0 -1.0349 8.5603 70.3437)">
		<stop  offset="0" style="stop-color:#4CBCD0"/>
		<stop  offset="5.076862e-02" style="stop-color:#A1DAEB"/>
		<stop  offset="0.2027" style="stop-color:#3EB5CD"/>
		<stop  offset="1" style="stop-color:#186977"/>
	</linearGradient>
	
		<path id="path1337" sodipodi:nodetypes="ccccc" fill-rule="evenodd" clip-rule="evenodd" fill="url(#path1337_00000013189216356329412550000008045567482544736928_)" stroke="#B7E4F2" stroke-width="0.5" stroke-linecap="round" stroke-linejoin="round" d="
		M43.8,34l3.8,2.2v9.1l-3.8,2.3L43.8,34z"/>
	<path id="path1894" fill="none" stroke="#F9C3D1" stroke-width="0.5" stroke-linecap="round" stroke-linejoin="round" d="
		M27.9,38.5l4-2.2l0,4.5"/>
	
		<path id="path1939" sodipodi:nodetypes="ccccc" fill="none" stroke="#F9C3D1" stroke-width="0.5" stroke-linecap="round" stroke-linejoin="round" d="
		M24.1,36.3l3.9,2.1L24,40.8l3.9,2.3L24,45.3"/>
	
		<linearGradient id="path1247_00000096034963049285965660000007499862005880576936_" gradientUnits="userSpaceOnUse" x1="22.2646" y1="21.5352" x2="30.4615" y2="35.5683" gradientTransform="matrix(1.0347 0 0 -1.0349 8.5603 70.3437)">
		<stop  offset="0" style="stop-color:#1D6977"/>
		<stop  offset="0.3549" style="stop-color:#2B8AA0"/>
		<stop  offset="0.4223" style="stop-color:#547596"/>
		<stop  offset="0.5874" style="stop-color:#547596"/>
		<stop  offset="0.6468" style="stop-color:#2A8AA0"/>
		<stop  offset="1" style="stop-color:#29889C"/>
	</linearGradient>
	
		<path id="path1247" fill-rule="evenodd" clip-rule="evenodd" fill="url(#path1247_00000096034963049285965660000007499862005880576936_)" stroke="#B7E4F2" stroke-width="0.5" stroke-linecap="round" stroke-linejoin="round" d="
		M27.9,43.1L43.7,34v4.5l-15.8,9.2V43.1z"/>
	<path id="path24792" sodipodi:nodetypes="ccccc" fill-rule="evenodd" clip-rule="evenodd" fill="#457696" d="M36.1,43.1l3.6-2.1
		l0.1,0.1l0,4.2L36.1,43.1z"/>
	<path id="path25154" fill-rule="evenodd" clip-rule="evenodd" fill="#3E8098" d="M39.9,41.1l0,4.2l0.1,0.1l3.6-2.1L39.9,41.1z"/>
</g>
</svg>
