<?xml version="1.0" encoding="utf-8"?>
<!-- Generator: Adobe Illustrator 27.2.0, SVG Export Plug-In . SVG Version: 6.00 Build 0)  -->
<svg version="1.1"
	 id="svg13414" xmlns:ns="http://ns.adobe.com/AdobeIllustrator/10.0/" xmlns:cc="http://creativecommons.org/ns#" xmlns:sodipodi="http://sodipodi.sourceforge.net/DTD/sodipodi-0.dtd" xmlns:svg="http://www.w3.org/2000/svg" xmlns:inkscape="http://www.inkscape.org/namespaces/inkscape" xmlns:dc="http://purl.org/dc/elements/1.1/" xmlns:rdf="http://www.w3.org/1999/02/22-rdf-syntax-ns#" inkscape:output_extension="org.inkscape.output.svg.inkscape" inkscape:version="0.46" sodipodi:docname="nrandom.svg" sodipodi:version="0.32"
	 xmlns="http://www.w3.org/2000/svg" xmlns:xlink="http://www.w3.org/1999/xlink" x="0px" y="0px" viewBox="0 0 48 48"
	 enable-background="new 0 0 48 48" xml:space="preserve">
<sodipodi:namedview  bordercolor="#666666" borderopacity="1.0" id="base" inkscape:current-layer="layer1" inkscape:cx="16.777778" inkscape:cy="20.603175" inkscape:document-units="px" inkscape:grid-bbox="true" inkscape:pageopacity="0.0" inkscape:pageshadow="2" inkscape:window-height="650" inkscape:window-width="640" inkscape:window-x="176" inkscape:window-y="192" inkscape:zoom="15.75" pagecolor="#ffffff" showgrid="true">
	</sodipodi:namedview>
<linearGradient id="polygon5715_00000127749831546231503200000016649443491057309573_" gradientUnits="userSpaceOnUse" x1="20.9226" y1="50.6163" x2="34.3808" y2="29.8549" gradientTransform="matrix(1.0245 0 0 -1.0245 6.757 61.06)">
	<stop  offset="0" style="stop-color:#588000"/>
	<stop  offset="1" style="stop-color:#9FBA17"/>
</linearGradient>
<polygon id="polygon5715" ns:knockout="Off" fill="url(#polygon5715_00000127749831546231503200000016649443491057309573_)" points="
	47.6,12.8 43.9,29.9 41.2,32.1 25,30.7 23.2,28 26.6,10.1 29.5,7.9 45.9,10 ">
</polygon>
<polygon id="polygon5717" ns:knockout="Off" fill="#F0FFB6" points="26.1,7.1 26.6,10.1 29.5,7.9 ">
</polygon>
<linearGradient id="polygon5724_00000039119411422310673510000005703285967192338621_" gradientUnits="userSpaceOnUse" x1="12.3536" y1="54.406" x2="15.1887" y2="36.8673" gradientTransform="matrix(1.0245 0 0 -1.0245 6.757 61.06)">
	<stop  offset="0" style="stop-color:#50BF00"/>
	<stop  offset="1" style="stop-color:#DAFF7B"/>
</linearGradient>
<polygon id="polygon5724" ns:knockout="Off" fill="url(#polygon5724_00000039119411422310673510000005703285967192338621_)" points="
	23.2,28 21.8,29.7 16.1,24.9 15.8,22 18.8,5.7 20,3.8 26.1,7.1 26.6,10.1 ">
</polygon>
<polygon id="polygon5731" ns:knockout="Off" fill="#5E9439" points="20,3.8 20.5,3.5 37.3,5.8 39.5,6.4 46.9,9.7 45.9,10 29.5,7.9 
	26.1,7.1 ">
</polygon>
<polygon id="polygon5750" ns:knockout="Off" fill="none" points="25,30.7 21.8,29.7 23.2,28 ">
</polygon>
<linearGradient id="circle5761_00000054226607792705602460000017434213944515335044_" gradientUnits="userSpaceOnUse" x1="12.5325" y1="44.7457" x2="14.9017" y2="42.5146" gradientTransform="matrix(1.0245 0 0 -1.0245 6.757 61.06)">
	<stop  offset="0" style="stop-color:#B1B1B1"/>
	<stop  offset="1" style="stop-color:#FFFFFF"/>
</linearGradient>
<circle id="circle5761" ns:knockout="Off" sodipodi:cx="20.349001" sodipodi:cy="13.001" sodipodi:rx="1.854" sodipodi:ry="1.854" fill="url(#circle5761_00000054226607792705602460000017434213944515335044_)" cx="20.9" cy="16.4" r="1.9">
</circle>
<linearGradient id="circle5768_00000135688076298293533420000011615068187239403922_" gradientUnits="userSpaceOnUse" x1="11.914" y1="51.1172" x2="14.0972" y2="48.8861" gradientTransform="matrix(1.0245 0 0 -1.0245 6.757 61.06)">
	<stop  offset="0" style="stop-color:#B1B1B1"/>
	<stop  offset="1" style="stop-color:#FFFFFF"/>
</linearGradient>
<circle id="circle5768" ns:knockout="Off" sodipodi:cx="19.506001" sodipodi:cy="6.5" sodipodi:rx="1.854" sodipodi:ry="1.854" fill="url(#circle5768_00000135688076298293533420000011615068187239403922_)" cx="20" cy="9.8" r="1.9">
</circle>
<linearGradient id="ellipse5775_00000062887286592937506140000007616051946379348394_" gradientUnits="userSpaceOnUse" x1="71.6192" y1="111.7979" x2="75.9432" y2="111.7979" gradientTransform="matrix(1.004 0.2037 0.2037 -1.004 -63.6971 103.9149)">
	<stop  offset="0" style="stop-color:#B1B1B1"/>
	<stop  offset="1" style="stop-color:#FFFFFF"/>
</linearGradient>
<path id="ellipse5775" ns:knockout="Off" sodipodi:cx="32.338001" sodipodi:cy="3.5090001" sodipodi:rx="2.1619999" sodipodi:ry="0.65399998" fill="url(#ellipse5775_00000062887286592937506140000007616051946379348394_)" d="
	M33.3,6c1.2,0.2,2.1,0.7,2,1.1c-0.1,0.4-1.1,0.5-2.3,0.2c-1.2-0.2-2.1-0.7-2-1.1S32.1,5.8,33.3,6z"/>
<linearGradient id="circle5789_00000034084227578697001280000010281001311626494396_" gradientUnits="userSpaceOnUse" x1="30.6665" y1="34.7569" x2="33.5608" y2="32.5258" gradientTransform="matrix(1.0245 0 0 -1.0245 6.757 61.06)">
	<stop  offset="0" style="stop-color:#B1B1B1"/>
	<stop  offset="1" style="stop-color:#FFFFFF"/>
</linearGradient>
<circle id="circle5789" ns:knockout="Off" sodipodi:cx="38.644001" sodipodi:cy="22.900999" sodipodi:rx="1.85" sodipodi:ry="1.85" fill="url(#circle5789_00000034084227578697001280000010281001311626494396_)" cx="39.6" cy="26.6" r="1.9">
</circle>
<linearGradient id="circle5803_00000065042703585169321390000011125742313817511560_" gradientUnits="userSpaceOnUse" x1="22.5913" y1="47.2826" x2="25.1778" y2="44.8656" gradientTransform="matrix(1.0245 0 0 -1.0245 6.757 61.06)">
	<stop  offset="0" style="stop-color:#B1B1B1"/>
	<stop  offset="1" style="stop-color:#FFFFFF"/>
</linearGradient>
<circle id="circle5803" ns:knockout="Off" sodipodi:cx="30.473" sodipodi:cy="10.516" sodipodi:rx="1.851" sodipodi:ry="1.851" fill="url(#circle5803_00000065042703585169321390000011125742313817511560_)" cx="31.2" cy="13.9" r="1.9">
</circle>
<polyline id="polyline5805" ns:knockout="Off" fill="none" stroke="#F4FFB6" stroke-width="1" stroke-miterlimit="4.0979" points="
	20,3.8 26.1,7.1 29.5,7.9 45.9,10 46.9,9.7 ">
</polyline>
<polygon id="polygon5826" ns:knockout="Off" fill="#F0FFB6" points="26.9,7.1 22.9,28.2 23.6,28.3 27.6,7.2 ">
</polygon>
<polygon id="polygon5828" ns:knockout="Off" fill="none" stroke="#000000" stroke-width="0.75" stroke-miterlimit="4.0979" points="
	20.5,3.5 37.3,5.8 39.5,6.4 46.9,9.7 47.6,12.8 43.9,29.9 41.2,32.1 25,30.7 21.8,29.7 16.1,24.9 15.8,22 18.8,5.7 20,3.8 ">
</polygon>
<linearGradient id="polygon5835_00000067193872319958650690000010393249067266506126_" gradientUnits="userSpaceOnUse" x1="14.2198" y1="24.7477" x2="24.6852" y2="12.6825" gradientTransform="matrix(1.0245 0 0 -1.0245 6.757 61.06)">
	<stop  offset="0" style="stop-color:#2E3436"/>
	<stop  offset="1" style="stop-color:#2E3436;stop-opacity:0"/>
</linearGradient>
<polygon id="polygon5835" ns:knockout="Off" opacity="0.5" fill="url(#polygon5835_00000067193872319958650690000010393249067266506126_)" enable-background="new    " points="
	6.9,40.8 4.2,40.8 3.7,42.1 15.3,47.2 18.4,47.1 34.8,43.8 35.1,41.7 34.1,39.7 44,38.8 45.8,37.2 39.2,34 31.2,33.8 14.7,43.4 ">
</polygon>
<linearGradient id="polygon5846_00000018947333448693959480000002777209872716638387_" gradientUnits="userSpaceOnUse" x1="3.488" y1="36.485" x2="23.018" y2="20.8055" gradientTransform="matrix(1.0245 0 0 -1.0245 6.8848 61.1877)">
	<stop  offset="0" style="stop-color:#004AAB"/>
	<stop  offset="1" style="stop-color:#1FA5FF"/>
</linearGradient>
<polygon id="polygon5846" ns:knockout="Off" fill="url(#polygon5846_00000018947333448693959480000002777209872716638387_)" points="
	30.2,21.3 31.8,38.7 29.9,41.6 14,45.1 11.4,43.2 9.4,25.1 11.4,22 27.8,19.2 ">
</polygon>
<polygon id="polygon5848" ns:knockout="Off" fill="#B6D4FF" points="8,22.3 9.4,25.1 11.4,22 ">
</polygon>
<linearGradient id="polygon5855_00000048490737082491723870000010623447568419445380_" gradientUnits="userSpaceOnUse" x1="-5.1741" y1="38.5054" x2="3.9815" y2="16.4425" gradientTransform="matrix(1.0245 0 0 -1.0245 6.8848 61.1877)">
	<stop  offset="0" style="stop-color:#008FEF"/>
	<stop  offset="1" style="stop-color:#7BDEFF"/>
</linearGradient>
<polygon id="polygon5855" ns:knockout="Off" fill="url(#polygon5855_00000048490737082491723870000010623447568419445380_)" points="
	11.4,43.2 10.7,45.2 3.8,42.3 2.6,39.6 0.5,23.2 1.1,21 8,22.3 9.4,25.1 ">
</polygon>
<polygon id="polygon5862" ns:knockout="Off" fill="#5E9AF3" points="1.1,21 1.6,20.6 18.3,17.7 20.5,17.6 28.6,18.6 27.8,19.2 
	11.4,22 8,22.3 ">
</polygon>
<polygon id="polygon5881" ns:knockout="Off" fill="#9CD2FF" points="13.9,45 10.5,45.1 11.3,43 ">
</polygon>
<linearGradient id="circle5892_00000163040331415245579420000016304436129232132517_" gradientUnits="userSpaceOnUse" x1="-2.4536" y1="28.5874" x2="0.5107" y2="26.7364" gradientTransform="matrix(1.0245 0 0 -1.0245 6.8848 61.1877)">
	<stop  offset="0" style="stop-color:#B1B1B1"/>
	<stop  offset="1" style="stop-color:#FFFFFF"/>
</linearGradient>
<circle id="circle5892" ns:knockout="Off" sodipodi:cx="5.4990001" sodipodi:cy="28.849001" sodipodi:rx="1.854" sodipodi:ry="1.854" fill="url(#circle5892_00000163040331415245579420000016304436129232132517_)" cx="5.8" cy="32.8" r="1.9">
</circle>
<linearGradient id="circle5899_00000047780574464678986280000001339035976950099857_" gradientUnits="userSpaceOnUse" x1="-5.1525" y1="34.6446" x2="-2.4361" y2="32.6615" gradientTransform="matrix(1.0245 0 0 -1.0245 6.8848 61.1877)">
	<stop  offset="0" style="stop-color:#B1B1B1"/>
	<stop  offset="1" style="stop-color:#FFFFFF"/>
</linearGradient>
<circle id="circle5899" ns:knockout="Off" sodipodi:cx="2.747" sodipodi:cy="22.899" sodipodi:rx="1.854" sodipodi:ry="1.854" fill="url(#circle5899_00000047780574464678986280000001339035976950099857_)" cx="3" cy="26.7" r="1.9">
</circle>
<linearGradient id="ellipse5906_00000150815606466030136990000004256263436569002131_" gradientUnits="userSpaceOnUse" x1="-32.1018" y1="7.5346" x2="-27.7778" y2="7.5346" gradientTransform="matrix(1.0157 -0.1342 -0.1342 -1.0157 46.0094 23.4626)">
	<stop  offset="0" style="stop-color:#B1B1B1"/>
	<stop  offset="1" style="stop-color:#FFFFFF"/>
</linearGradient>
<path id="ellipse5906" ns:knockout="Off" sodipodi:cx="14.092" sodipodi:cy="16.201" sodipodi:rx="2.1619999" sodipodi:ry="0.65399998" fill="url(#ellipse5906_00000150815606466030136990000004256263436569002131_)" d="
	M14.5,19.2c1.2-0.2,2.2,0,2.3,0.4c0,0.4-0.9,0.8-2.1,1c-1.2,0.2-2.2,0-2.3-0.4C12.3,19.7,13.3,19.3,14.5,19.2z"/>
<linearGradient id="circle5913_00000011018338159764481530000016215666248613785500_" gradientUnits="userSpaceOnUse" x1="0.4693" y1="22.6232" x2="3.1238" y2="20.4541" gradientTransform="matrix(1.0245 0 0 -1.0245 6.8848 61.1877)">
	<stop  offset="0" style="stop-color:#B1B1B1"/>
	<stop  offset="1" style="stop-color:#FFFFFF"/>
</linearGradient>
<circle id="circle5913" ns:knockout="Off" sodipodi:cx="8.3540001" sodipodi:cy="35.023998" sodipodi:rx="1.854" sodipodi:ry="1.854" fill="url(#circle5913_00000011018338159764481530000016215666248613785500_)" cx="8.7" cy="39.1" r="1.9">
</circle>
<linearGradient id="circle5920_00000036937344459245671220000011059063048629007546_" gradientUnits="userSpaceOnUse" x1="12.2593" y1="29.647" x2="15.0936" y2="27.3175" gradientTransform="matrix(1.0245 0 0 -1.0245 6.8848 61.1877)">
	<stop  offset="0" style="stop-color:#B1B1B1"/>
	<stop  offset="1" style="stop-color:#FFFFFF"/>
</linearGradient>
<circle id="circle5920" ns:knockout="Off" sodipodi:cx="20.315001" sodipodi:cy="28.146999" sodipodi:rx="1.851" sodipodi:ry="1.851" fill="url(#circle5920_00000036937344459245671220000011059063048629007546_)" cx="21" cy="32.1" r="1.9">
</circle>
<linearGradient id="circle5927_00000082366741583652510970000007187989666217362615_" gradientUnits="userSpaceOnUse" x1="17.6144" y1="24.821" x2="20.7586" y2="22.8998" gradientTransform="matrix(1.0245 0 0 -1.0245 6.8848 61.1877)">
	<stop  offset="0" style="stop-color:#B1B1B1"/>
	<stop  offset="1" style="stop-color:#FFFFFF"/>
</linearGradient>
<circle id="circle5927" ns:knockout="Off" sodipodi:cx="25.919001" sodipodi:cy="32.812" sodipodi:rx="1.851" sodipodi:ry="1.851" fill="url(#circle5927_00000082366741583652510970000007187989666217362615_)" cx="26.7" cy="36.8" r="1.9">
</circle>
<linearGradient id="circle5934_00000010275093576140584760000001572395119547324564_" gradientUnits="userSpaceOnUse" x1="16.8706" y1="36.1214" x2="19.4338" y2="34.2002" gradientTransform="matrix(1.0245 0 0 -1.0245 6.8848 61.1877)">
	<stop  offset="0" style="stop-color:#B1B1B1"/>
	<stop  offset="1" style="stop-color:#FFFFFF"/>
</linearGradient>
<circle id="circle5934" ns:knockout="Off" sodipodi:cx="24.834" sodipodi:cy="21.496" sodipodi:rx="1.85" sodipodi:ry="1.85" fill="url(#circle5934_00000010275093576140584760000001572395119547324564_)" cx="25.6" cy="25.3" r="1.9">
</circle>
<linearGradient id="circle5941_00000075124896284460077860000017397917973534550934_" gradientUnits="userSpaceOnUse" x1="7.5873" y1="22.5664" x2="10.5854" y2="20.6451" gradientTransform="matrix(1.0245 0 0 -1.0245 6.8848 61.1877)">
	<stop  offset="0" style="stop-color:#B1B1B1"/>
	<stop  offset="1" style="stop-color:#FFFFFF"/>
</linearGradient>
<circle id="circle5941" ns:knockout="Off" sodipodi:cx="15.673" sodipodi:cy="34.978001" sodipodi:rx="1.851" sodipodi:ry="1.851" fill="url(#circle5941_00000075124896284460077860000017397917973534550934_)" cx="16.2" cy="39.1" r="1.9">
</circle>
<linearGradient id="circle5948_00000067212094284974623450000007266957104850913425_" gradientUnits="userSpaceOnUse" x1="6.1616" y1="34.4062" x2="9.2716" y2="32.0437" gradientTransform="matrix(1.0245 0 0 -1.0245 6.8848 61.1877)">
	<stop  offset="0" style="stop-color:#B1B1B1"/>
	<stop  offset="1" style="stop-color:#FFFFFF"/>
</linearGradient>
<circle id="circle5948" ns:knockout="Off" sodipodi:cx="14.413" sodipodi:cy="23.444" sodipodi:rx="1.85" sodipodi:ry="1.85" fill="url(#circle5948_00000067212094284974623450000007266957104850913425_)" cx="14.9" cy="27.2" r="1.9">
</circle>
<polyline id="polyline5950" ns:knockout="Off" fill="none" stroke="#B6D9FF" stroke-width="1" stroke-miterlimit="4.0979" points="
	1.1,21 8,22.3 11.4,22 27.8,19.2 28.6,18.6 ">
</polyline>
<polygon id="polygon5971" ns:knockout="Off" fill="#B6D4FF" points="8.8,22.7 11.3,44.1 12,44 9.5,22.6 ">
</polygon>
<polygon id="polygon5973" ns:knockout="Off" fill="none" stroke="#000000" stroke-width="0.75" stroke-miterlimit="4.0979" points="
	1.6,20.6 18.3,17.7 20.5,17.6 28.6,18.6 30.2,21.3 31.8,38.7 29.9,41.6 14,45.1 10.7,45.2 3.8,42.3 2.6,39.6 0.5,23.2 1.1,21 ">
</polygon>
<g id="layer1" inkscape:groupmode="layer" inkscape:label="Layer 1">
	
		<path id="path962" fill-rule="evenodd" clip-rule="evenodd" fill="#D95C84" stroke="#F9C3D1" stroke-width="0.5" stroke-linecap="round" stroke-linejoin="round" d="
		M27.9,47.6V34L24,36.3v9L27.9,47.6z"/>
	
		<path id="path1095" fill-rule="evenodd" clip-rule="evenodd" fill="#C4436C" stroke="#F9C3D1" stroke-width="0.5" stroke-linecap="round" stroke-linejoin="round" d="
		M28,34l7.9,4.5l-3.9,2.2l-4-2.3V34z"/>
	
		<path id="path1292" sodipodi:nodetypes="ccccc" fill-rule="evenodd" clip-rule="evenodd" fill="#2B8BA1" stroke="#B7E4F2" stroke-width="0.5" stroke-linecap="round" stroke-linejoin="round" d="
		M35.8,43.1l3.9-2.2l4,2.3l0,4.5L35.8,43.1z"/>
	
		<linearGradient id="path1337_00000111880363288045305380000011009690507206000512_" gradientUnits="userSpaceOnUse" x1="37.5386" y1="33.1082" x2="32.5942" y2="22.7754" gradientTransform="matrix(1.0347 0 0 -1.0349 8.5603 70.3437)">
		<stop  offset="0" style="stop-color:#4CBCD0"/>
		<stop  offset="5.076862e-02" style="stop-color:#A1DAEB"/>
		<stop  offset="0.2027" style="stop-color:#3EB5CD"/>
		<stop  offset="1" style="stop-color:#186977"/>
	</linearGradient>
	
		<path id="path1337" sodipodi:nodetypes="ccccc" fill-rule="evenodd" clip-rule="evenodd" fill="url(#path1337_00000111880363288045305380000011009690507206000512_)" stroke="#B7E4F2" stroke-width="0.5" stroke-linecap="round" stroke-linejoin="round" d="
		M43.8,34l3.8,2.2v9.1l-3.8,2.3L43.8,34z"/>
	<path id="path1894" fill="none" stroke="#F9C3D1" stroke-width="0.5" stroke-linecap="round" stroke-linejoin="round" d="
		M27.9,38.5l4-2.2l0,4.5"/>
	
		<path id="path1939" sodipodi:nodetypes="ccccc" fill="none" stroke="#F9C3D1" stroke-width="0.5" stroke-linecap="round" stroke-linejoin="round" d="
		M24.1,36.3l3.9,2.1L24,40.8l3.9,2.3L24,45.3"/>
	
		<linearGradient id="path1247_00000010310015715456166640000006950283254220359073_" gradientUnits="userSpaceOnUse" x1="22.2646" y1="21.5352" x2="30.4615" y2="35.5683" gradientTransform="matrix(1.0347 0 0 -1.0349 8.5603 70.3437)">
		<stop  offset="0" style="stop-color:#1D6977"/>
		<stop  offset="0.3549" style="stop-color:#2B8AA0"/>
		<stop  offset="0.4223" style="stop-color:#547596"/>
		<stop  offset="0.5874" style="stop-color:#547596"/>
		<stop  offset="0.6468" style="stop-color:#2A8AA0"/>
		<stop  offset="1" style="stop-color:#29889C"/>
	</linearGradient>
	
		<path id="path1247" fill-rule="evenodd" clip-rule="evenodd" fill="url(#path1247_00000010310015715456166640000006950283254220359073_)" stroke="#B7E4F2" stroke-width="0.5" stroke-linecap="round" stroke-linejoin="round" d="
		M27.9,43.1L43.7,34v4.5l-15.8,9.2V43.1z"/>
	<path id="path24792" sodipodi:nodetypes="ccccc" fill-rule="evenodd" clip-rule="evenodd" fill="#457696" d="M36.1,43.1l3.6-2.1
		l0.1,0.1l0,4.2L36.1,43.1z"/>
	<path id="path25154" fill-rule="evenodd" clip-rule="evenodd" fill="#3E8098" d="M39.9,41.1l0,4.2l0.1,0.1l3.6-2.1L39.9,41.1z"/>
</g>
</svg>
