<?xml version="1.0" encoding="UTF-8" standalone="no"?>
<svg
   viewBox="0 0 48 48"
   version="1.1"
   id="svg4221"
   sodipodi:docname="pyro_mtlx.svg"
   inkscape:version="1.2-rc (6364d40, 2022-05-08)"
   xmlns:inkscape="http://www.inkscape.org/namespaces/inkscape"
   xmlns:sodipodi="http://sodipodi.sourceforge.net/DTD/sodipodi-0.dtd"
   xmlns:xlink="http://www.w3.org/1999/xlink"
   xmlns="http://www.w3.org/2000/svg"
   xmlns:svg="http://www.w3.org/2000/svg"
   xmlns:rdf="http://www.w3.org/1999/02/22-rdf-syntax-ns#"
   xmlns:cc="http://creativecommons.org/ns#"
   xmlns:dc="http://purl.org/dc/elements/1.1/">
  <metadata
     id="metadata4225">
    <rdf:RDF>
      <cc:Work
         rdf:about="">
        <dc:format>image/svg+xml</dc:format>
        <dc:type
           rdf:resource="http://purl.org/dc/dcmitype/StillImage" />
        <dc:title>7-Campfire</dc:title>
      </cc:Work>
    </rdf:RDF>
  </metadata>
  <sodipodi:namedview
     pagecolor="#ffffff"
     bordercolor="#666666"
     borderopacity="1"
     objecttolerance="10"
     gridtolerance="10"
     guidetolerance="10"
     inkscape:pageopacity="0"
     inkscape:pageshadow="2"
     inkscape:window-width="2560"
     inkscape:window-height="1383"
     id="namedview4223"
     showgrid="false"
     inkscape:zoom="7.65625"
     inkscape:cx="5.355102"
     inkscape:cy="39.902041"
     inkscape:window-x="0"
     inkscape:window-y="26"
     inkscape:window-maximized="1"
     inkscape:current-layer="svg4221"
     inkscape:document-rotation="0"
     inkscape:snap-global="false"
     inkscape:showpageshadow="2"
     inkscape:pagecheckerboard="0"
     inkscape:deskcolor="#d1d1d1" />
  <defs
     id="defs4135">
    <linearGradient
       inkscape:collect="always"
       id="linearGradient62423">
      <stop
         style="stop-color:#fce94f;stop-opacity:1;"
         offset="0"
         id="stop62419" />
      <stop
         style="stop-color:#fce94f;stop-opacity:0;"
         offset="1"
         id="stop62421" />
    </linearGradient>
    <style
       id="style4075">.cls-1,.cls-17,.cls-7{fill:none;}.cls-2{fill:url(#linear-gradient);}.cls-3{fill:url(#radial-gradient);}.cls-4{fill:url(#linear-gradient-2);}.cls-5{clip-path:url(#clip-path);}.cls-6{fill:#4f2f04;}.cls-17,.cls-7{stroke:#8f5902;stroke-width:0.35px;}.cls-7{stroke-linecap:round;stroke-linejoin:round;}.cls-8{fill:url(#linear-gradient-3);}.cls-9{clip-path:url(#clip-path-2);}.cls-10{fill:url(#linear-gradient-4);}.cls-11{clip-path:url(#clip-path-3);}.cls-12{fill:#8f5902;}.cls-13{clip-path:url(#clip-path-4);}.cls-14{fill:url(#linear-gradient-6);}.cls-15{fill:url(#linear-gradient-7);}.cls-16{clip-path:url(#clip-path-5);}.cls-17{stroke-miterlimit:10;}.cls-18{fill:url(#linear-gradient-8);}.cls-19{clip-path:url(#clip-path-6);}.cls-20{fill:url(#linear-gradient-9);}.cls-21{fill:url(#radial-gradient-2);}.cls-22{clip-path:url(#clip-path-7);}.cls-23{fill:url(#linear-gradient-10);}.cls-24{fill:url(#linear-gradient-11);}.cls-25{fill:#fcaf3e;}.cls-26{fill:url(#linear-gradient-12);}</style>
    <linearGradient
       id="linear-gradient"
       x1="13.31"
       y1="35.14"
       x2="23.54"
       y2="24.99"
       gradientUnits="userSpaceOnUse">
      <stop
         offset="0"
         stop-color="#8f5902"
         id="stop4077" />
      <stop
         offset="1"
         stop-color="#edd400"
         id="stop4079" />
    </linearGradient>
    <radialGradient
       id="radial-gradient"
       cx="20.07"
       cy="-34.15"
       r="19.87"
       gradientTransform="matrix(1.2,0,0,0.49,0,51.59)"
       gradientUnits="userSpaceOnUse">
      <stop
         offset="0.03"
         stop-color="#2c2c2c"
         stop-opacity="0.5"
         id="stop4082" />
      <stop
         offset="0.68"
         stop-color="#2c2c2c"
         stop-opacity="0.1"
         id="stop4084" />
      <stop
         offset="0.93"
         stop-color="#2c2c2c"
         stop-opacity="0"
         id="stop4086" />
    </radialGradient>
    <linearGradient
       id="linear-gradient-2"
       x1="35.71"
       y1="24.09"
       x2="29.68"
       y2="30.06"
       xlink:href="#linear-gradient"
       gradientTransform="matrix(1.1402976,0,0,1.1402976,-3.5342408,-3.9845661)" />
    <clipPath
       id="clip-path">
      <path
         class="cls-1"
         d="M30.69,25.14s4.25-1.37,5.17-1.74a1.83,1.83,0,0,1,2.08.42,1.52,1.52,0,0,1-.09,2.06c-.79.67-6.29,2.05-6.29,2.05"
         id="path4090" />
    </clipPath>
    <linearGradient
       id="linear-gradient-3"
       x1="38.13"
       y1="31.97"
       x2="27.03"
       y2="24.93"
       xlink:href="#linear-gradient"
       gradientTransform="matrix(1.1402976,0,0,1.1402976,-3.5342408,-3.9845661)" />
    <clipPath
       id="clip-path-2">
      <path
         class="cls-1"
         d="M31.68,27.56,42.4,30.27a3,3,0,0,1,.25,2.41c-.39,1.39-1.28,2.15-1.8,2.07S28,30,28,30"
         id="path4094" />
    </clipPath>
    <linearGradient
       id="linear-gradient-4"
       x1="12.44"
       y1="29.49"
       x2="23.35"
       y2="24.25"
       xlink:href="#linear-gradient"
       gradientTransform="matrix(1.1402976,0,0,1.1402976,-3.5342408,-3.9845661)" />
    <clipPath
       id="clip-path-3">
      <path
         class="cls-1"
         d="M8.06,31.42a1.06,1.06,0,0,1-.63-.13,2,2,0,0,1-.9-1.7c-.1-1.13.32-2,1.36-2.09l12.3-.61L20.71,29l-1,1.24Z"
         id="path4098" />
    </clipPath>
    <clipPath
       id="clip-path-4">
      <path
         class="cls-2"
         d="M21.77,28.78,8,33.64c-.12,0-1.15.14-.44,2.52s2,3.06,2.74,2.7l15.6-9.33Z"
         id="path4101" />
    </clipPath>
    <linearGradient
       id="linear-gradient-6"
       x1="8.05"
       y1="36.25"
       x2="9.74"
       y2="36.25"
       gradientTransform="translate(14.44 -0.66) rotate(22.33)"
       gradientUnits="userSpaceOnUse">
      <stop
         offset="0"
         stop-color="#8f5902"
         id="stop4104" />
      <stop
         offset="1"
         stop-color="#c17d11"
         id="stop4106" />
    </linearGradient>
    <linearGradient
       id="linear-gradient-7"
       x1="31.2"
       y1="34.15"
       x2="29.88"
       y2="23.62"
       gradientTransform="matrix(1.1364469,0.09363263,-0.09363263,1.1364469,-0.20457178,-6.6984745)"
       xlink:href="#linear-gradient" />
    <clipPath
       id="clip-path-5">
      <path
         class="cls-1"
         d="M24.83,29.43s4.9,7.41,6.56,10.4a3.25,3.25,0,0,0,4.2,1.56c2.31-.88,2.16-2.64,1.74-3.5s-8-8.2-8-8.2"
         id="path4110" />
    </clipPath>
    <linearGradient
       id="linear-gradient-8"
       x1="21.78"
       y1="38.57"
       x2="21.29"
       y2="20.99"
       xlink:href="#linear-gradient"
       gradientTransform="matrix(1.1402976,0,0,1.1402976,-3.5342408,-3.9845661)" />
    <clipPath
       id="clip-path-6">
      <path
         class="cls-1"
         d="M23.1,29.71s-5.68,9.19-6,10c-.73,1.67,0,3.51,2.3,4.3s3.67-.71,4.23-2.16c.26-.69,3-11.33,3-11.33Z"
         id="path4114" />
    </clipPath>
    <linearGradient
       id="linear-gradient-9"
       x1="14.36"
       y1="24.47"
       x2="20.15"
       y2="27.44"
       xlink:href="#linear-gradient"
       gradientTransform="matrix(1.1402976,0,0,1.1402976,-3.5342408,-3.9845661)" />
    <radialGradient
       id="radial-gradient-2"
       cx="25.18"
       cy="32.33"
       r="14.27"
       gradientUnits="userSpaceOnUse"
       gradientTransform="matrix(1.3941449,0,0,1.3941449,-10.709436,-4.8831855)">
      <stop
         offset="0"
         stop-color="#fce94f"
         id="stop4118" />
      <stop
         offset="0.36"
         stop-color="#fcaf3e"
         id="stop4120" />
      <stop
         offset="1"
         stop-color="#f57900"
         id="stop4122" />
    </radialGradient>
    <clipPath
       id="clip-path-7">
      <path
         class="cls-1"
         d="M31.06,28.9A10.85,10.85,0,0,1,27.31,31c-2.26.66-4.87.76-6.64,2.53a8.11,8.11,0,0,1,1.9-2.77c-3.05,1.55-6.38-1.24-7.27-4.16A8.13,8.13,0,0,1,17,19.16a4.3,4.3,0,0,0,.54,2.9,2.39,2.39,0,0,0,2.58,1.08,6.4,6.4,0,0,1-1.55-5.82,11.54,11.54,0,0,1,3.07-5.4,7.21,7.21,0,0,0-.42,3.35c.05.46.35,1.06.8.92a.83.83,0,0,0,.39-.35,7.64,7.64,0,0,0,.85-6.33,19.59,19.59,0,0,1-1-2.34,6.91,6.91,0,0,1,.45-3.55,4.7,4.7,0,0,0,2,3.45A11.39,11.39,0,0,1,27.69,10a6.25,6.25,0,0,1,.63,1.93A14.26,14.26,0,0,1,28,18.48a3.78,3.78,0,0,0,1.84-2.81C30.71,17.48,32,19.9,31,21.89c-.15.31-.33.72-.08,1a.67.67,0,0,0,.75,0,2.49,2.49,0,0,0,1.25-2A6.11,6.11,0,0,1,33,26.64,8.09,8.09,0,0,1,31.06,28.9Z"
         id="path4125" />
    </clipPath>
    <linearGradient
       id="linear-gradient-10"
       x1="23.87"
       y1="30.07"
       x2="23.48"
       y2="20"
       gradientUnits="userSpaceOnUse">
      <stop
         offset="0"
         stop-color="#fdf4a4"
         id="stop4128" />
      <stop
         offset="1"
         stop-color="#fce94f"
         id="stop4130" />
    </linearGradient>
    <linearGradient
       id="linear-gradient-11"
       x1="20.57"
       y1="39.12"
       x2="21.1"
       y2="43.24"
       gradientTransform="matrix(0.19385058,1.1288946,-1.1288946,0.19385058,7.1645032,-0.15532009)"
       xlink:href="#linear-gradient-6" />
    <linearGradient
       id="linear-gradient-12"
       x1="32.72"
       y1="35.43"
       x2="36.04"
       y2="35.43"
       gradientTransform="matrix(-0.54969133,0.9990586,-0.9990586,-0.54969133,61.192873,39.313982)"
       xlink:href="#linear-gradient-6" />
    <radialGradient
       inkscape:collect="always"
       xlink:href="#linearGradient62423"
       id="radialGradient62425"
       cx="24.32653"
       cy="24.065306"
       fx="24.32653"
       fy="24.065306"
       r="23.627551"
       gradientUnits="userSpaceOnUse"
       gradientTransform="matrix(0.87146556,0,0,0.87146556,0.08984299,0.00669502)" />
    <linearGradient
       inkscape:collect="always"
       xlink:href="#linearGradient79381"
       id="linearGradient79383"
       x1="48.223331"
       y1="5.7785387"
       x2="38.325775"
       y2="26.462418"
       gradientUnits="userSpaceOnUse"
       gradientTransform="matrix(0.70087284,0,0,0.70105675,14.443041,28.261875)" />
    <linearGradient
       inkscape:collect="always"
       id="linearGradient79381">
      <stop
         style="stop-color:#4cbcd0;stop-opacity:1"
         offset="0"
         id="stop79377" />
      <stop
         style="stop-color:#a1daeb;stop-opacity:1"
         offset="0.05076862"
         id="stop79611" />
      <stop
         style="stop-color:#3eb5cd;stop-opacity:1"
         offset="0.20273705"
         id="stop79677" />
      <stop
         style="stop-color:#186977;stop-opacity:1"
         offset="1"
         id="stop79379" />
    </linearGradient>
    <linearGradient
       inkscape:collect="always"
       xlink:href="#linearGradient50950"
       id="linearGradient50952"
       x1="16.736212"
       y1="28.58629"
       x2="33.144535"
       y2="0.49534529"
       gradientUnits="userSpaceOnUse"
       gradientTransform="matrix(0.70087284,0,0,0.70105675,14.443041,28.261875)" />
    <linearGradient
       inkscape:collect="always"
       id="linearGradient50950">
      <stop
         style="stop-color:#1d6977;stop-opacity:1"
         offset="0"
         id="stop50946" />
      <stop
         style="stop-color:#2b8aa0;stop-opacity:1"
         offset="0.35490742"
         id="stop55190" />
      <stop
         style="stop-color:#547596;stop-opacity:1"
         offset="0.42234021"
         id="stop55192" />
      <stop
         style="stop-color:#547596;stop-opacity:1"
         offset="0.58735025"
         id="stop63894" />
      <stop
         style="stop-color:#2a8aa0;stop-opacity:1"
         offset="0.64681154"
         id="stop63896" />
      <stop
         style="stop-color:#29889c;stop-opacity:1"
         offset="1"
         id="stop50948" />
    </linearGradient>
  </defs>
  <title
     id="title4137">7-Campfire</title>
  <circle
     style="color:#000000;overflow:visible;opacity:1;fill:url(#radialGradient62425);fill-opacity:1;stroke:#ffffff;stroke-width:0.26144;stop-color:#000000"
     id="path62409"
     cx="21.289577"
     cy="20.978781"
     r="20.459877" />
  <path
     class="cls-21"
     d="m 32.592705,35.407603 a 15.126472,15.126472 0 0 1 -5.228043,2.927702 c -3.150768,0.920137 -6.789486,1.059551 -9.257122,3.527188 a 11.306515,11.306515 0 0 1 2.648874,-3.861782 c -4.252142,2.160925 -8.894643,-1.728739 -10.135433,-5.799642 a 11.334398,11.334398 0 0 1 2.370047,-10.372439 5.994823,5.994823 0 0 0 0.752838,4.043021 3.3320062,3.3320062 0 0 0 3.596894,1.505675 8.9225272,8.9225272 0 0 1 -2.160924,-8.113923 16.088432,16.088432 0 0 1 4.280025,-7.528382 10.051784,10.051784 0 0 0 -0.585541,4.670386 c 0.0697,0.641306 0.487949,1.477794 1.115314,1.282613 a 1.1571403,1.1571403 0 0 0 0.543717,-0.48795 10.651267,10.651267 0 0 0 1.185024,-8.8249376 27.311298,27.311298 0 0 1 -1.394145,-3.2622991 9.6335411,9.6335411 0 0 1 0.627366,-4.9492143 6.5524809,6.5524809 0 0 0 2.788289,4.8097998 15.87931,15.87931 0 0 1 4.15455,4.0848448 8.7134055,8.7134055 0 0 1 0.878312,2.6906994 19.880506,19.880506 0 0 1 -0.446126,9.131649 5.2698677,5.2698677 0 0 0 2.565226,-3.917547 c 1.212907,2.523402 3.011354,5.897232 1.617209,8.67158 -0.209122,0.432185 -0.460067,1.003786 -0.111538,1.394146 a 0.93407705,0.93407705 0 0 0 1.045609,0 3.4714208,3.4714208 0 0 0 1.74268,-2.788289 8.5182252,8.5182252 0 0 1 0.111539,8.016333 11.278632,11.278632 0 0 1 -2.704641,3.150768 z"
     id="path4206"
     style="fill:url(#radial-gradient-2);stroke-width:0.871466" />
  <g
     class="cls-22"
     clip-path="url(#clip-path-7)"
     id="g4210"
     transform="matrix(1.3941449,0,0,1.3941449,-10.709436,-4.8831855)"
     style="stroke-width:0.625089">
    <path
       class="cls-23"
       d="m 16.3,33.57 c 2.08,0.19 5.07,-1.84 6.32,-3.52 C 20.46,30.1 19.5,28.62 19,27 a 5.83,5.83 0 0 0 3.22,0.95 5.93,5.93 0 0 1 -0.35,-5.29 13.45,13.45 0 0 1 3.54,-5.3 c -1.5,2.57 0,6.17 1,7.82 0,-1.67 1.49,-2.93 2.82,-3.95 a 7.27,7.27 0 0 0 0,4.16 c 0.4,2.14 -0.83,4.08 -3.33,5.46 1.38,-0.64 4.9,-1.68 5.47,-3.09 a 7.42,7.42 0 0 1 -1.69,5.84 l -7,5 -4.79,-0.75"
       id="path4208"
       style="fill:url(#linear-gradient-10);stroke-width:0.625089" />
  </g>
  <path
     class="cls-25"
     d="m 21.746257,4.9594773 a 14.666405,14.666405 0 0 0 1.157142,1.0874331 c 0.306711,0.2648875 0.627363,0.5158336 0.961958,0.7807213 a 10.609442,10.609442 0 0 1 2.788291,2.7882897 7.7096211,7.7096211 0 0 1 0.738897,2.2863966 18.639717,18.639717 0 0 1 -0.362479,8.546109 1.3941449,1.3941449 0 0 0 1.394146,1.770564 1.3941449,1.3941449 0 0 0 0.711013,-0.18124 6.7894857,6.7894857 0 0 0 1.868154,-1.64509 5.9529986,5.9529986 0 0 1 0.292772,4.572795 2.4676365,2.4676365 0 0 0 0.181238,2.955588 1.9796857,1.9796857 0 0 0 1.394145,0.543717 2.7046411,2.7046411 0 0 0 1.310495,-0.37642 4.3915565,4.3915565 0 0 0 0.724956,-0.487951 6.9707244,6.9707244 0 0 1 -0.808604,3.931489 9.9960185,9.9960185 0 0 1 -2.356104,2.788291 13.397732,13.397732 0 0 1 -4.809801,2.620992 c -0.752837,0.223062 -1.547501,0.390359 -2.383986,0.58554 -0.836488,0.195181 -1.61721,0.348537 -2.439755,0.585541 a 1.3941449,1.3941449 0 0 0 -1.394145,-1.561442 1.2965548,1.2965548 0 0 0 -0.627364,0.153356 4.1824346,4.1824346 0 0 1 -1.909978,0.460067 c -2.788291,0 -5.451107,-2.78829 -6.245771,-5.423223 a 9.4523024,9.4523024 0 0 1 0.209123,-5.813584 6.1202959,6.1202959 0 0 0 0.376419,0.655248 4.9492142,4.9492142 0 0 0 4.015138,2.244573 4.1824346,4.1824346 0 0 0 1.171081,-0.167297 1.3941449,1.3941449 0 0 0 0.557657,-2.342164 7.5562653,7.5562653 0 0 1 -1.770564,-6.83131 11.599285,11.599285 0 0 1 0.975901,-2.788291 2.5373438,2.5373438 0 0 0 2.286399,2.314282 1.7426811,1.7426811 0 0 0 0.599481,-0.09759 2.4815778,2.4815778 0 0 0 1.282613,-1.031667 12.143002,12.143002 0 0 0 1.394146,-10.0936093 C 22.833691,7.2876993 22.624569,6.841573 22.415447,6.3954466 A 9.3686539,9.3686539 0 0 1 21.774141,4.8479459 M 20.99342,0.05208735 Z m 0,0 a 9.6335411,9.6335411 0 0 0 -0.627366,4.94921445 27.311298,27.311298 0 0 0 1.394145,3.2622989 10.651267,10.651267 0 0 1 -1.185023,8.8249373 1.1571403,1.1571403 0 0 1 -0.543717,0.48795 h -0.181238 c -0.515834,0 -0.878312,-0.724955 -0.934076,-1.310497 a 10.051784,10.051784 0 0 1 0.58554,-4.670384 16.088432,16.088432 0 0 0 -4.280024,7.528383 8.9225272,8.9225272 0 0 0 2.160922,8.113922 2.3421635,2.3421635 0 0 1 -0.752837,0.111527 3.5271865,3.5271865 0 0 1 -2.78829,-1.617208 5.994823,5.994823 0 0 1 -0.752838,-4.043021 11.334398,11.334398 0 0 0 -2.467637,10.511854 c 0.989844,3.262298 4.182435,6.413066 7.584148,6.413066 a 5.715994,5.715994 0 0 0 2.551285,-0.613424 11.306515,11.306515 0 0 0 -2.648874,3.861782 c 2.467636,-2.467637 6.106354,-2.607051 9.257122,-3.527186 a 15.126472,15.126472 0 0 0 5.228043,-2.927705 11.278632,11.278632 0 0 0 2.704641,-3.150768 8.5182252,8.5182252 0 0 0 -0.08365,-8.141806 3.4714208,3.4714208 0 0 1 -1.742679,2.78829 1.2686718,1.2686718 0 0 1 -0.627369,0.195179 0.5715994,0.5715994 0 0 1 -0.418243,-0.153356 c -0.348536,-0.334596 -0.09759,-0.906193 0.111526,-1.394145 1.394146,-2.788288 -0.404301,-6.148178 -1.56144,-8.671581 A 5.2698677,5.2698677 0 0 1 28.326623,20.880612 19.880506,19.880506 0 0 0 28.716984,11.693197 8.7134055,8.7134055 0 0 0 27.894435,9.0582636 15.87931,15.87931 0 0 0 23.795651,5.0291846 6.5524809,6.5524809 0 0 1 21.00736,0.21938483 Z M 19.459861,11.62349 Z m -6.468833,10.20514 z"
     id="path4214"
     style="stroke-width:0.871466" />
  <path
     class="cls-25"
     d="m 14.775534,11.75792 a 5.3755612,5.3755612 0 0 0 -3.18632,2.167566 c -1.148811,1.777402 0,3.121291 0.108366,3.771561 a 3.5548065,3.5548065 0 0 1 -0.151728,2.514376 3.5981581,3.5981581 0 0 0 1.365565,-3.121294 6.2209118,6.2209118 0 0 1 1.864107,-5.332209 z"
     id="path4218"
     style="stroke-width:0.871466" />
  <g
     id="g7442"
     transform="matrix(0.84114243,0,0,0.84114243,7.5512768,7.0016417)">
    <path
       style="fill:#d95c84;fill-opacity:1;fill-rule:evenodd;stroke:#f9c3d1;stroke-width:0.3387;stroke-linecap:round;stroke-linejoin:round;stroke-miterlimit:4;stroke-dasharray:none;stroke-opacity:1"
       d="M 20.676613,47.425123 V 28.996619 l -5.29218,3.056242 v 12.231564 z"
       id="path962" />
    <path
       style="font-variation-settings:normal;fill:#c4436c;fill-opacity:1;fill-rule:evenodd;stroke:#f9c3d1;stroke-width:0.3387;stroke-linecap:round;stroke-linejoin:round;stroke-miterlimit:4;stroke-dasharray:none;stroke-dashoffset:0;stroke-opacity:1;stop-color:#000000"
       d="m 20.722787,28.927338 10.666335,6.165929 -5.286993,3.048323 -5.379342,-3.117604 z"
       id="path1095" />
    <path
       style="font-variation-settings:normal;fill:#2b8ba1;fill-opacity:1;fill-rule:evenodd;stroke:#b7e4f2;stroke-width:0.3387;stroke-linecap:round;stroke-linejoin:round;stroke-miterlimit:4;stroke-dasharray:none;stroke-dashoffset:0;stroke-opacity:1;stop-color:#000000"
       d="m 31.423753,41.236101 5.263906,-3.036777 5.460148,3.117603 -0.01154,6.096649 z"
       id="path1292"
       sodipodi:nodetypes="ccccc" />
    <path
       style="font-variation-settings:normal;fill:url(#linearGradient79383);fill-opacity:1;fill-rule:evenodd;stroke:#b7e4f2;stroke-width:0.3387;stroke-linecap:round;stroke-linejoin:round;stroke-miterlimit:4;stroke-dasharray:none;stroke-dashoffset:0;stroke-opacity:1;stop-color:#000000"
       d="m 42.147806,28.904245 5.217731,3.048324 v 12.401136 l -5.206187,3.059871 z"
       id="path1337"
       sodipodi:nodetypes="ccccc" />
    <path
       style="font-variation-settings:normal;fill:none;fill-opacity:1;fill-rule:evenodd;stroke:#f9c3d1;stroke-width:0.3387;stroke-linecap:round;stroke-linejoin:round;stroke-miterlimit:4;stroke-dasharray:none;stroke-dashoffset:0;stroke-opacity:1;stop-color:#000000"
       d="m 20.676613,35.023986 5.402429,-3.02523 -0.02309,6.142834"
       id="path1894" />
    <path
       style="font-variation-settings:normal;fill:none;fill-opacity:1;fill-rule:evenodd;stroke:#f9c3d1;stroke-width:0.3387;stroke-linecap:round;stroke-linejoin:round;stroke-miterlimit:4;stroke-dasharray:none;stroke-dashoffset:0;stroke-opacity:1;stop-color:#000000"
       d="m 15.441397,32.11026 5.258303,2.913726 -5.31008,3.140698 5.286993,3.117604 -5.286993,3.002137"
       id="path1939"
       sodipodi:nodetypes="ccccc" />
    <path
       style="font-variation-settings:normal;fill:url(#linearGradient50952);fill-opacity:1;fill-rule:evenodd;stroke:#b7e4f2;stroke-width:0.3387;stroke-linecap:round;stroke-linejoin:round;stroke-miterlimit:4;stroke-dasharray:none;stroke-dashoffset:0;stroke-opacity:1;stop-color:#000000"
       d="M 20.6997,41.305381 42.101632,28.950432 v 6.073554 L 20.6997,47.471309 Z"
       id="path1247" />
    <path
       style="fill:#457696;fill-opacity:1;fill-rule:evenodd;stroke:none;stroke-width:0.3387;stroke-linecap:butt;stroke-linejoin:miter;stroke-miterlimit:4;stroke-dasharray:none;stroke-opacity:1"
       d="m 31.770063,41.228798 4.929139,-2.81739 0.163141,0.103883 -0.02462,5.646364 z"
       id="path24792"
       sodipodi:nodetypes="ccccc" />
    <path
       style="font-variation-settings:normal;fill:#3e8098;fill-opacity:1;fill-rule:evenodd;stroke:none;stroke-width:0.3387;stroke-linecap:butt;stroke-linejoin:miter;stroke-miterlimit:4;stroke-dasharray:none;stroke-dashoffset:0;stroke-opacity:1;stop-color:#000000"
       d="m 36.872357,38.526874 -0.04617,5.646328 0.150067,0.08083 4.906052,-2.875123 z"
       id="path25154" />
  </g>
</svg>
