<?xml version="1.0" encoding="UTF-8" standalone="no"?>
<svg
   id="ART"
   viewBox="0 0 48 48"
   version="1.1"
   sodipodi:docname="servicedelete.svg"
   inkscape:version="1.3-dev (fdc7329b, 2022-05-31)"
   xmlns:inkscape="http://www.inkscape.org/namespaces/inkscape"
   xmlns:sodipodi="http://sodipodi.sourceforge.net/DTD/sodipodi-0.dtd"
   xmlns:xlink="http://www.w3.org/1999/xlink"
   xmlns="http://www.w3.org/2000/svg"
   xmlns:svg="http://www.w3.org/2000/svg">
  <sodipodi:namedview
     id="namedview79"
     pagecolor="#ffffff"
     bordercolor="#666666"
     borderopacity="1.0"
     inkscape:showpageshadow="2"
     inkscape:pageopacity="0.0"
     inkscape:pagecheckerboard="0"
     inkscape:deskcolor="#d1d1d1"
     showgrid="false"
     inkscape:zoom="27.812867"
     inkscape:cx="22.453637"
     inkscape:cy="23.909797"
     inkscape:window-width="2880"
     inkscape:window-height="1557"
     inkscape:window-x="-8"
     inkscape:window-y="-8"
     inkscape:window-maximized="1"
     inkscape:current-layer="ART" />
  <defs
     id="defs32">
    <linearGradient
       inkscape:collect="always"
       id="linearGradient117">
      <stop
         style="stop-color:#efa2a2;stop-opacity:1;"
         offset="0"
         id="stop116" />
      <stop
         style="stop-color:#efa2a2;stop-opacity:0;"
         offset="1"
         id="stop117" />
    </linearGradient>
    <linearGradient
       id="linearGradient114"
       x1="31.85"
       y1="24.56"
       x2="25.15"
       y2="28.64"
       gradientTransform="matrix(1, 0, 0, 1, 0, 0)"
       gradientUnits="userSpaceOnUse">
      <stop
         offset=".24"
         stop-color="#a30000"
         id="stop112" />
      <stop
         offset="1"
         stop-color="#ee2929"
         id="stop113" />
    </linearGradient>
    <linearGradient
       id="linearGradient112"
       x1="29.99"
       y1="22.61"
       x2="28.39"
       y2="25.05"
       gradientTransform="matrix(1, 0, 0, 1, 0, 0)"
       gradientUnits="userSpaceOnUse">
      <stop
         offset=".25"
         stop-color="#f89799"
         id="stop110" />
      <stop
         offset="1"
         stop-color="#ee2929"
         id="stop111" />
    </linearGradient>
    <linearGradient
       id="linearGradient110"
       x1="31.85"
       y1="24.56"
       x2="25.15"
       y2="28.64"
       gradientTransform="matrix(1, 0, 0, 1, 0, 0)"
       gradientUnits="userSpaceOnUse">
      <stop
         offset=".24"
         stop-color="#a30000"
         id="stop108" />
      <stop
         offset="1"
         stop-color="#ee2929"
         id="stop109" />
    </linearGradient>
    <linearGradient
       id="linearGradient108"
       x1="29.99"
       y1="22.61"
       x2="28.39"
       y2="25.05"
       gradientTransform="matrix(1, 0, 0, 1, 0, 0)"
       gradientUnits="userSpaceOnUse">
      <stop
         offset=".25"
         stop-color="#f89799"
         id="stop106" />
      <stop
         offset="1"
         stop-color="#ee2929"
         id="stop107" />
    </linearGradient>
    <linearGradient
       id="linearGradient106"
       x1="16.07"
       y1="23.77"
       x2="15.13"
       y2="21.13"
       gradientTransform="matrix(1, 0, 0, 1, 0, 0)"
       gradientUnits="userSpaceOnUse">
      <stop
         offset="0"
         stop-color="#edd400"
         id="stop104" />
      <stop
         offset="1"
         stop-color="#c4a000"
         id="stop105" />
    </linearGradient>
    <linearGradient
       id="linear-gradient"
       x1="3.69"
       y1="35.75"
       x2="21.79"
       y2="35.75"
       gradientTransform="matrix(1, 0, 0, 1, 0, 0)"
       gradientUnits="userSpaceOnUse">
      <stop
         offset="0"
         stop-color="#babdb6"
         id="stop1" />
      <stop
         offset="1"
         stop-color="#232729"
         id="stop2" />
    </linearGradient>
    <linearGradient
       id="linear-gradient-2"
       x1="24.39"
       y1="44"
       x2="44"
       y2="21.94"
       xlink:href="#linear-gradient" />
    <linearGradient
       id="linear-gradient-3"
       x1="24.77"
       y1="37.65"
       x2="21.74"
       y2="17.9"
       xlink:href="#linear-gradient" />
    <linearGradient
       id="linear-gradient-4"
       x1="4.11"
       y1="31.73"
       x2="12.24"
       y2="22.43"
       gradientUnits="userSpaceOnUse">
      <stop
         offset="0"
         stop-color="#edd400"
         id="stop3" />
      <stop
         offset="1"
         stop-color="#fdef82"
         id="stop4" />
    </linearGradient>
    <linearGradient
       id="linear-gradient-5"
       x1="9.87"
       y1="23.13"
       x2="7.82"
       y2="29.59"
       gradientTransform="matrix(1, 0, 0, 1, 0, 0)"
       gradientUnits="userSpaceOnUse">
      <stop
         offset=".01"
         stop-color="#3465a4"
         id="stop5" />
      <stop
         offset=".35"
         stop-color="#729fcf"
         id="stop6" />
      <stop
         offset="1"
         stop-color="#c3d6eb"
         id="stop7" />
    </linearGradient>
    <linearGradient
       id="linear-gradient-6"
       x1="28.37"
       y1="22.42"
       x2="26.49"
       y2="16.06"
       xlink:href="#linear-gradient" />
    <linearGradient
       id="linear-gradient-7"
       x1="25.55"
       y1="22.11"
       x2="23.08"
       y2="14.28"
       gradientTransform="matrix(1, 0, 0, 1, 0, 0)"
       gradientUnits="userSpaceOnUse">
      <stop
         offset="0"
         stop-color="#eeeeec"
         id="stop8" />
      <stop
         offset="1"
         stop-color="#888a85"
         id="stop9" />
    </linearGradient>
    <linearGradient
       id="linear-gradient-8"
       x1="24.76"
       y1="19.63"
       x2="23.88"
       y2="17.46"
       xlink:href="#linear-gradient-7" />
    <linearGradient
       id="linear-gradient-9"
       x1="24.26"
       y1="20.18"
       x2="25.99"
       y2="23.65"
       gradientTransform="matrix(1, 0, 0, 1, 0, 0)"
       gradientUnits="userSpaceOnUse">
      <stop
         offset="0"
         stop-color="#729fcf"
         id="stop10" />
      <stop
         offset="1"
         stop-color="#c3d6eb"
         id="stop11" />
    </linearGradient>
    <linearGradient
       id="linear-gradient-10"
       x1="16.07"
       y1="23.77"
       x2="15.13"
       y2="21.13"
       gradientTransform="matrix(1, 0, 0, 1, 0, 0)"
       gradientUnits="userSpaceOnUse">
      <stop
         offset="0"
         stop-color="#edd400"
         id="stop12" />
      <stop
         offset="1"
         stop-color="#c4a000"
         id="stop13" />
      <stop
         offset="1"
         stop-color="#fdef82"
         id="stop14" />
    </linearGradient>
    <linearGradient
       id="linear-gradient-11"
       x1="17.93"
       y1="22.25"
       x2="22.04"
       y2="27.62"
       xlink:href="#linear-gradient-5" />
    <linearGradient
       id="linear-gradient-12"
       x1="13.18"
       y1="24.01"
       x2="16.12"
       y2="30.49"
       xlink:href="#linear-gradient-5" />
    <linearGradient
       id="linear-gradient-13"
       x1="17.77"
       y1="17.14"
       x2="18.45"
       y2="20.5"
       xlink:href="#linear-gradient-10" />
    <linearGradient
       id="linear-gradient-14"
       x1="9.08"
       y1="22.54"
       x2="8.98"
       y2="19.76"
       xlink:href="#linear-gradient" />
    <linearGradient
       id="linear-gradient-15"
       x1="17.26"
       y1="22.42"
       x2="16.47"
       y2="18.8"
       xlink:href="#linear-gradient" />
    <linearGradient
       id="linear-gradient-16"
       x1="32.62"
       y1="2.59"
       x2="21.34"
       y2="23.57"
       xlink:href="#linear-gradient-5"
       gradientTransform="matrix(1.0049622,0,-0.13051279,1,1.5722793,-0.07190916)" />
    <linearGradient
       id="linear-gradient-17"
       x1="13.98"
       y1="12.66"
       x2="8.91"
       y2="34.43"
       xlink:href="#linear-gradient-5"
       gradientTransform="matrix(1.0049622,0,-0.13051279,1,1.5722793,-0.07190916)" />
    <linearGradient
       id="linear-gradient-18"
       x1="17.09"
       y1="9.34"
       x2="19.19"
       y2="16.07"
       xlink:href="#linear-gradient-9"
       gradientTransform="matrix(1.0049622,0,-0.13051279,1,1.5722793,-0.07190916)" />
    <linearGradient
       id="linear-gradient-19"
       x1="29.38"
       y1="22.76"
       x2="28.22"
       y2="25.52"
       gradientUnits="userSpaceOnUse"
       gradientTransform="matrix(1.3019694,0,0,1.3019694,-8.523933,-10.002913)">
      <stop
         offset="0"
         stop-color="#4e9806"
         id="stop15" />
      <stop
         offset="1"
         stop-color="#88e034"
         id="stop16" />
    </linearGradient>
    <linearGradient
       id="linear-gradient-20"
       x1="23.85"
       y1="27.13"
       x2="32.4"
       y2="35.72"
       gradientTransform="matrix(1, 0, 0, 1, 0, 0)"
       gradientUnits="userSpaceOnUse">
      <stop
         offset="0"
         stop-color="#eeeeec"
         id="stop17" />
      <stop
         offset="1"
         stop-color="#555753"
         id="stop18" />
    </linearGradient>
    <linearGradient
       id="linear-gradient-21"
       x1="28.31"
       y1="32.12"
       x2="32.12"
       y2="16.39"
       xlink:href="#linear-gradient-20"
       gradientTransform="matrix(1.3019694,0,0,1.3019694,-8.523933,-10.002913)" />
    <linearGradient
       id="linear-gradient-22"
       x1="23.64"
       y1="32.99"
       x2="30.3"
       y2="29.78"
       xlink:href="#linear-gradient-20"
       gradientTransform="matrix(1.3019694,0,0,1.3019694,-8.523933,-10.002913)" />
    <linearGradient
       id="linear-gradient-23"
       x1="28.89"
       y1="33.06"
       x2="32.7"
       y2="28.77"
       xlink:href="#linear-gradient-20"
       gradientTransform="matrix(1.3019694,0,0,1.3019694,-8.523933,-10.002913)" />
    <linearGradient
       id="linear-gradient-24"
       x1="28.89"
       y1="31.35"
       x2="28.65"
       y2="27.43"
       xlink:href="#linear-gradient-20"
       gradientTransform="matrix(1.3019694,0,0,1.3019694,-8.523933,-10.002913)" />
    <linearGradient
       id="linear-gradient-25"
       x1="31.85"
       y1="24.56"
       x2="25.15"
       y2="28.64"
       gradientTransform="matrix(1, 0, 0, 1, 0, 0)"
       gradientUnits="userSpaceOnUse">
      <stop
         offset=".24"
         stop-color="#a30000"
         id="stop19" />
      <stop
         offset="1"
         stop-color="#ee2929"
         id="stop20" />
      <stop
         offset="1"
         stop-color="#555753"
         id="stop21" />
    </linearGradient>
    <linearGradient
       id="linear-gradient-26"
       x1="29.99"
       y1="22.61"
       x2="28.39"
       y2="25.05"
       gradientTransform="matrix(1, 0, 0, 1, 0, 0)"
       gradientUnits="userSpaceOnUse">
      <stop
         offset=".25"
         stop-color="#f89799"
         id="stop22" />
      <stop
         offset="1"
         stop-color="#ee2929"
         id="stop23" />
    </linearGradient>
    <linearGradient
       id="linear-gradient-27"
       x1="30.14"
       y1="26.13"
       x2="26.18"
       y2="28.55"
       xlink:href="#linearGradient114"
       gradientTransform="matrix(1.3019694,0,0,1.3019694,-8.523933,-10.002913)" />
    <linearGradient
       id="linear-gradient-28"
       x1="28.13"
       y1="28.57"
       x2="26.95"
       y2="26.02"
       gradientTransform="matrix(1, 0, 0, 1, 0, 0)"
       gradientUnits="userSpaceOnUse">
      <stop
         offset=".01"
         stop-color="#ededeb"
         id="stop25" />
      <stop
         offset="1"
         stop-color="#878984"
         id="stop26" />
    </linearGradient>
    <linearGradient
       id="linear-gradient-29"
       x1="34.11"
       y1="22.15"
       x2="27.82"
       y2="29.44"
       xlink:href="#linear-gradient-26"
       gradientTransform="matrix(1.3019694,0,0,1.3019694,-8.523933,-10.002913)" />
    <linearGradient
       id="linear-gradient-30"
       x1="29.33"
       y1="24.98"
       x2="30.1"
       y2="27.76"
       xlink:href="#linear-gradient-9"
       gradientTransform="matrix(1.3019694,0,0,1.3019694,-8.523933,-10.002913)" />
    <linearGradient
       id="linear-gradient-31"
       x1="27.31"
       y1="27.94"
       x2="26.68"
       y2="26.82"
       gradientTransform="matrix(1, 0, 0, 1, 0, 0)"
       gradientUnits="userSpaceOnUse">
      <stop
         offset=".01"
         stop-color="#2e3436"
         id="stop27" />
      <stop
         offset="1"
         stop-color="#878984"
         id="stop28" />
    </linearGradient>
    <linearGradient
       id="linear-gradient-32"
       x1="26.54"
       y1="26.28"
       x2="26.94"
       y2="27.19"
       xlink:href="#linear-gradient-28"
       gradientTransform="matrix(1.707454,0,0,1.7064906,-19.716388,-21.391678)" />
    <linearGradient
       id="linear-gradient-33"
       x1="30.09"
       y1="24.48"
       x2="28.55"
       y2="27.13"
       xlink:href="#linear-gradient-28"
       gradientTransform="matrix(1.3019694,0,0,1.3019694,-8.523933,-10.002913)" />
    <linearGradient
       id="linear-gradient-34"
       x1="25.45"
       y1="26.51"
       x2="27.39"
       y2="25.17"
       xlink:href="#linear-gradient-31"
       gradientTransform="matrix(1.3019694,0,0,1.3019694,-8.523933,-10.002913)" />
    <linearGradient
       id="linear-gradient-35"
       x1="28.35"
       y1="23.2"
       x2="28.67"
       y2="21.94"
       xlink:href="#linearGradient110"
       gradientTransform="matrix(1.3019694,0,0,1.3019694,-8.523933,-10.002913)" />
    <linearGradient
       id="linear-gradient-36"
       x1="13.6"
       y1="-.45"
       x2="5.16"
       y2="19.55"
       gradientTransform="matrix(0.11568483,-0.05973496,0.00361132,0.14466479,28.190669,17.931395)"
       xlink:href="#linearGradient108" />
    <linearGradient
       id="linear-gradient-37"
       x1="40.5"
       y1="28.28"
       x2="40.5"
       y2="16.79"
       xlink:href="#linear-gradient-7" />
    <linearGradient
       id="linear-gradient-38"
       x1="40.17"
       y1="10.77"
       x2="35.97"
       y2="20.38"
       gradientTransform="matrix(1, 0, 0, 1, 0, 0)"
       gradientUnits="userSpaceOnUse">
      <stop
         offset="0"
         stop-color="#f37900"
         id="stop29" />
      <stop
         offset="1"
         stop-color="#cc5c00"
         id="stop30" />
    </linearGradient>
    <linearGradient
       id="linear-gradient-39"
       x1="41.24"
       y1="9.32"
       x2="37.3"
       y2="16.8"
       xlink:href="#linear-gradient-38" />
    <linearGradient
       id="linear-gradient-40"
       x1="39.38"
       y1="12.89"
       x2="43.25"
       y2="2.98"
       gradientUnits="userSpaceOnUse">
      <stop
         offset="0"
         stop-color="#fff"
         stop-opacity="0"
         id="stop31" />
      <stop
         offset="1"
         stop-color="#fff8f8"
         id="stop32" />
    </linearGradient>
    <linearGradient
       inkscape:collect="always"
       xlink:href="#linear-gradient"
       id="linearGradient79"
       gradientUnits="userSpaceOnUse"
       x1="3.69"
       y1="35.75"
       x2="21.79"
       y2="35.75" />
    <linearGradient
       inkscape:collect="always"
       xlink:href="#linear-gradient-5"
       id="linearGradient80"
       gradientUnits="userSpaceOnUse"
       x1="9.87"
       y1="23.13"
       x2="7.82"
       y2="29.59" />
    <linearGradient
       inkscape:collect="always"
       xlink:href="#linear-gradient-7"
       id="linearGradient81"
       gradientUnits="userSpaceOnUse"
       x1="25.55"
       y1="22.11"
       x2="23.08"
       y2="14.28" />
    <linearGradient
       inkscape:collect="always"
       xlink:href="#linear-gradient-9"
       id="linearGradient82"
       gradientUnits="userSpaceOnUse"
       x1="24.26"
       y1="20.18"
       x2="25.99"
       y2="23.65" />
    <linearGradient
       inkscape:collect="always"
       xlink:href="#linearGradient106"
       id="linearGradient83"
       gradientUnits="userSpaceOnUse"
       x1="16.07"
       y1="23.77"
       x2="15.13"
       y2="21.13" />
    <linearGradient
       inkscape:collect="always"
       xlink:href="#linear-gradient-20"
       id="linearGradient84"
       gradientUnits="userSpaceOnUse"
       x1="23.85"
       y1="27.13"
       x2="32.4"
       y2="35.72"
       gradientTransform="matrix(1.3019694,0,0,1.3019694,-8.523933,-10.002913)" />
    <linearGradient
       inkscape:collect="always"
       xlink:href="#linear-gradient-25"
       id="linearGradient85"
       gradientUnits="userSpaceOnUse"
       x1="31.85"
       y1="24.56"
       x2="25.15"
       y2="28.64"
       gradientTransform="matrix(1.3019694,0,0,1.3019694,-8.523933,-10.002913)" />
    <linearGradient
       inkscape:collect="always"
       xlink:href="#linearGradient112"
       id="linearGradient86"
       gradientUnits="userSpaceOnUse"
       x1="29.99"
       y1="22.61"
       x2="28.39"
       y2="25.05"
       gradientTransform="matrix(1.3019694,0,0,1.3019694,-8.523933,-10.002913)" />
    <linearGradient
       inkscape:collect="always"
       xlink:href="#linear-gradient-28"
       id="linearGradient87"
       gradientUnits="userSpaceOnUse"
       x1="28.13"
       y1="28.57"
       x2="26.95"
       y2="26.02"
       gradientTransform="matrix(1.3019694,0,0,1.3019694,-8.523933,-10.002913)" />
    <linearGradient
       inkscape:collect="always"
       xlink:href="#linear-gradient-31"
       id="linearGradient88"
       gradientUnits="userSpaceOnUse"
       x1="27.31"
       y1="27.94"
       x2="26.68"
       y2="26.82"
       gradientTransform="matrix(1.707454,0,0,1.7064906,-19.716388,-21.391678)" />
    <clipPath
       clipPathUnits="userSpaceOnUse"
       id="clipPath91">
      <g
         id="g93">
        <g
           id="g92">
          <polygon
             points="22.36,19.89 22.36,25.44 27.34,22.82 27.34,17.27 "
             style="fill:none"
             id="polygon91" />
        </g>
      </g>
    </clipPath>
    <clipPath
       clipPathUnits="userSpaceOnUse"
       id="clipPath93">
      <g
         id="g95">
        <g
           id="g94">
          <polygon
             points="22.36,19.89 22.36,25.44 27.34,22.82 27.34,17.27 "
             style="fill:none"
             id="polygon93" />
        </g>
      </g>
    </clipPath>
    <clipPath
       clipPathUnits="userSpaceOnUse"
       id="clipPath95">
      <g
         id="g97">
        <g
           id="g96">
          <polygon
             points="22.36,19.89 22.36,25.44 27.34,22.82 27.34,17.27 "
             style="fill:none"
             id="polygon95" />
        </g>
      </g>
    </clipPath>
    <clipPath
       clipPathUnits="userSpaceOnUse"
       id="clipPath97">
      <g
         id="g99">
        <g
           id="g98">
          <polygon
             points="22.36,19.89 22.36,25.44 27.34,22.82 27.34,17.27 "
             style="fill:none"
             id="polygon97" />
        </g>
      </g>
    </clipPath>
    <clipPath
       clipPathUnits="userSpaceOnUse"
       id="clipPath99">
      <g
         id="g101">
        <g
           id="g100">
          <polygon
             points="22.36,19.89 22.36,25.44 27.34,22.82 27.34,17.27 "
             style="fill:none"
             id="polygon99" />
        </g>
      </g>
    </clipPath>
    <clipPath
       clipPathUnits="userSpaceOnUse"
       id="clipPath101">
      <g
         id="g103">
        <g
           id="g102">
          <polygon
             points="22.36,19.89 22.36,25.44 27.34,22.82 27.34,17.27 "
             style="fill:none"
             id="polygon101" />
        </g>
      </g>
    </clipPath>
    <linearGradient
       id="linear-gradient-38-5"
       x1="47.610001"
       y1="-2.4000001"
       x2="38.200001"
       y2="13.99"
       xlink:href="#linear-gradient-26-6" />
    <linearGradient
       id="linear-gradient-26-6"
       x1="29.99"
       y1="22.610001"
       x2="28.389999"
       y2="25.049999"
       gradientUnits="userSpaceOnUse">
      <stop
         offset=".25"
         stop-color="#f89799"
         id="stop22-6" />
      <stop
         offset="1"
         stop-color="#ee2929"
         id="stop23-3" />
      <stop
         offset="1"
         stop-color="#555753"
         id="stop24" />
    </linearGradient>
    <linearGradient
       id="linear-gradient-39-5"
       x1="33.759998"
       y1="16.129999"
       x2="39.07"
       y2="11.77"
       xlink:href="#linear-gradient-25-8" />
    <linearGradient
       id="linear-gradient-25-8"
       x1="31.85"
       y1="24.559999"
       x2="25.15"
       y2="28.639999"
       gradientUnits="userSpaceOnUse">
      <stop
         offset=".24"
         stop-color="#a30000"
         id="stop19-9" />
      <stop
         offset="1"
         stop-color="#ee2929"
         id="stop20-4" />
    </linearGradient>
    <linearGradient
       id="linear-gradient-40-4"
       x1="39.189999"
       y1="11.54"
       x2="46.849998"
       y2="2.0599999"
       gradientUnits="userSpaceOnUse">
      <stop
         offset="0"
         stop-color="#fff"
         stop-opacity="0"
         id="stop29-7" />
      <stop
         offset="1"
         stop-color="#fff8f8"
         id="stop30-5" />
    </linearGradient>
    <linearGradient
       id="linear-gradient-39-4"
       x1="37.389999"
       y1="13.45"
       x2="45.02"
       y2="5.0500002"
       gradientUnits="userSpaceOnUse"
       gradientTransform="matrix(1.1891298,0,0,1.1891298,-7.4951266,-2.8904815)">
      <stop
         offset="0"
         stop-color="#755076"
         id="stop29-2" />
      <stop
         offset="1"
         stop-color="#ad7fa8"
         id="stop30-2" />
    </linearGradient>
    <linearGradient
       id="linear-gradient-40-0"
       x1="36.080002"
       y1="15.69"
       x2="38.509998"
       y2="12.81"
       gradientUnits="userSpaceOnUse"
       gradientTransform="matrix(1.1891298,0,0,1.1891298,-7.4951266,-2.8904815)">
      <stop
         offset="0"
         stop-color="#5c3566"
         id="stop31-7" />
      <stop
         offset="1"
         stop-color="#755076"
         id="stop32-9" />
    </linearGradient>
    <linearGradient
       id="linear-gradient-41"
       x1="38.529999"
       y1="11.72"
       x2="49.380001"
       y2="2.4200001"
       gradientUnits="userSpaceOnUse"
       gradientTransform="matrix(1.1891298,0,0,1.1891298,-7.4951266,-2.8904815)">
      <stop
         offset="0"
         stop-color="#fff"
         stop-opacity="0"
         id="stop33" />
      <stop
         offset="1"
         stop-color="#fff8f8"
         id="stop34" />
    </linearGradient>
    <radialGradient
       inkscape:collect="always"
       xlink:href="#linearGradient117"
       id="radialGradient117"
       cx="41.118304"
       cy="8.3986639"
       fx="41.118304"
       fy="8.3986639"
       r="6.5539105"
       gradientTransform="matrix(1,0,0,0.97185277,0,0.23639911)"
       gradientUnits="userSpaceOnUse" />
  </defs>
  <path
     d="m 6.57,21.27 v 7.07 l -2.88,1.51 v 2.27 l 18.1,9.51 21.4,-11.25 V 28.11 L 28.64,20.46 v -6.15"
     style="fill:none;stroke:#555753;stroke-width:1.4px;stroke-miterlimit:10"
     id="path32" />
  <path
     id="polygon32"
     style="fill:url(#linearGradient79)"
     d="m 3.69,29.85 18.1,9.52 v 2.27 L 3.69,32.13 Z" />
  <path
     id="polygon33"
     style="fill:url(#linear-gradient-2)"
     d="m 43.19,28.12 -21.4,11.25 v 2.27 l 21.4,-11.25 z" />
  <path
     id="polygon34"
     style="fill:url(#linear-gradient-3)"
     d="m 25.09,18.61 18.1,9.51 -21.4,11.25 -18.1,-9.52 z" />
  <path
     id="polygon35"
     style="fill:url(#linear-gradient-4)"
     d="M 11.41,31.86 6.57,29.32 v -8.88 l 4.84,2.54 z" />
  <path
     id="polygon36"
     style="fill:url(#linearGradient80)"
     d="M 10.7,28.9 7.28,27.1 v -4.19 l 3.42,1.8 z" />
  <path
     id="polygon37"
     style="fill:url(#linear-gradient-6)"
     d="m 26.76,17.22 1.47,-0.8 -0.52,6.59 -0.95,-0.5 z" />
  <path
     id="polygon38"
     style="fill:url(#linearGradient81)"
     d="m 28.66,22.51 v -8.88 l -7.51,3.95 v 8.88 l 1.21,-0.64 v -5.93 l 5.35,-2.81 v 5.93 z" />
  <path
     id="polygon39"
     style="fill:url(#linear-gradient-8)"
     d="m 28.64,22.41 v -8.88 l -7.51,3.95 v 8.88 l 1.21,-0.64 v -5.93 l 5.35,-2.81 v 5.93 z" />
  <path
     id="polygon40"
     style="fill:url(#linearGradient82)"
     d="m 22.36,19.89 v 5.55 l 4.98,-2.62 v -5.55 z" />
  <path
     id="line40"
     clip-path="url(#clipPath101)"
     style="fill:none;stroke:#eeeeec;stroke-width:0.2px;stroke-miterlimit:10"
     d="m 26.07,16.68 v 8.850001" />
  <path
     id="line41"
     clip-path="url(#clipPath99)"
     style="fill:none;stroke:#eeeeec;stroke-width:0.2px;stroke-miterlimit:10"
     d="m 21.48,24.68 6.739999,-3.540001" />
  <path
     id="line42"
     clip-path="url(#clipPath97)"
     style="fill:none;stroke:#eeeeec;stroke-width:0.2px;stroke-miterlimit:10"
     d="M 21.48,23.129999 28.219999,19.59" />
  <path
     id="line43"
     clip-path="url(#clipPath95)"
     style="fill:none;stroke:#eeeeec;stroke-width:0.2px;stroke-miterlimit:10"
     d="m 21.48,21.57 6.739999,-3.539999" />
  <path
     id="line44"
     clip-path="url(#clipPath93)"
     style="fill:none;stroke:#eeeeec;stroke-width:0.2px;stroke-miterlimit:10"
     d="m 24.790001,16.68 v 8.850001" />
  <path
     id="line45"
     clip-path="url(#clipPath91)"
     style="fill:none;stroke:#eeeeec;stroke-width:0.2px;stroke-miterlimit:10"
     d="m 23.51,16.68 v 8.850001" />
  <path
     id="polygon47"
     style="fill:url(#linearGradient83)"
     d="m 21.45,17.71 v 8.88 l -10.04,5.27 v -8.88 z" />
  <path
     id="polygon48"
     style="fill:url(#linear-gradient-11)"
     d="m 16.65,26.67 3.98,-2.09 v -4.89 l -3.98,2.09 z" />
  <path
     id="polygon49"
     style="fill:url(#linear-gradient-12)"
     d="m 15.67,22.9 -2.59,1.36 v 6.14 l 2.59,-1.36 z" />
  <path
     id="polygon50"
     style="fill:url(#linear-gradient-13)"
     d="m 11.41,22.98 -4.84,-2.54 17.54,-9.22 4.84,2.54 z" />
  <path
     id="polygon51"
     style="fill:url(#linear-gradient-14)"
     d="m 6.57,19.01 4.84,0.43 V 23 L 6.57,20.46 Z" />
  <path
     id="polygon52"
     style="fill:url(#linear-gradient-15)"
     d="m 11.41,23.01 v -3.57 l 10.04,-5.27 v 3.57 z" />
  <path
     id="polygon53"
     style="fill:none;stroke:#204a87;stroke-width:1;stroke-miterlimit:10"
     d="M 32.629548,12.218091 32.925812,9.9480908 17.5003,12.638091 l -13.4308511,6.58 -0.2962641,2.27 15.4255112,-2.69 z" />
  <path
     id="polygon54"
     style="fill:url(#linear-gradient-16);stroke-width:1"
     d="m 19.198696,18.798091 13.430852,-6.58 0.296264,-2.2700002 -13.430851,6.5800002 z" />
  <path
     id="polygon55"
     style="fill:url(#linear-gradient-17);stroke-width:1"
     d="m 19.198696,18.798091 -15.4255112,2.69 0.2962641,-2.27 15.4255121,-2.69 z" />
  <path
     id="polygon56"
     style="fill:url(#linear-gradient-18);stroke-width:1"
     d="M 19.494961,16.528091 32.925812,9.9480908 17.5003,12.638091 l -13.4308511,6.58 z" />
  <path
     id="polygon58"
     style="fill:url(#linear-gradient-19);stroke-width:1"
     d="m 29.155061,20.007482 2.721116,1.432166 -3.215864,1.69256 -2.721116,-1.432166 z" />
  <path
     d="m 37.852217,27.467766 c 0,-0.130197 -0.520788,-0.260394 -0.520788,-0.260394 l -1.015536,0.807221 c -1.328009,-0.559846 -3.072648,-0.624945 -4.101203,-0.09114 l -11.249016,5.897921 -0.403611,-0.950438 -1.028555,0.247375 v 2.057111 c 0,0.468709 0.40361,0.963458 1.158752,1.367068 1.354049,0.716083 3.359081,0.820241 4.478775,0.234355 l 11.939059,-6.262473 c 0.468709,-0.247374 0.716084,-0.559847 0.729103,-0.924399 v -2.135229 z"
     style="fill:url(#linearGradient84);stroke-width:1"
     id="path58" />
  <path
     d="m 36.693464,26.087679 v 0 c 1.354048,0.716083 1.549344,1.770678 0.42965,2.356564 l -11.939059,6.262473 c -1.119694,0.585886 -3.124727,0.481729 -4.478775,-0.234354 v 0 c -1.354048,-0.716083 -1.549344,-1.770679 -0.42965,-2.356565 l 11.93906,-6.262473 c 1.119693,-0.585886 3.124726,-0.481728 4.478774,0.234355 z"
     style="fill:url(#linear-gradient-21);stroke-width:1"
     id="path59" />
  <path
     id="polygon59"
     style="fill:url(#linear-gradient-22);stroke-width:1"
     d="m 24.272676,29.303543 4.322539,2.265427 v 1.002516 L 24.272676,30.30606 Z" />
  <path
     id="polygon60"
     style="fill:url(#linear-gradient-23);stroke-width:1"
     d="m 33.698935,28.886913 -5.10372,2.682057 v 1.002516 l 5.10372,-2.682057 z" />
  <path
     id="polygon61"
     style="fill:url(#linear-gradient-24);stroke-width:1"
     d="m 29.376396,26.621486 4.322539,2.265427 -5.10372,2.682057 -4.322539,-2.265427 z" />
  <path
     d="m 31.32935,20.48921 -2.669037,-1.406127 v 0 c -0.260394,-0.143216 -0.650985,-0.169256 -1.236871,0.0651 -1.523304,0.624945 -1.484245,1.796718 -1.484245,2.53884 v 7.382167 l 2.721116,1.432166 3.228884,-1.69256 v -7.382167 c 0,-0.195295 -0.09114,-0.742122 -0.546827,-0.950437 z"
     style="fill:none;stroke:url(#linearGradient85);stroke-width:0.7px;stroke-miterlimit:10"
     id="path61" />
  <path
     d="m 23.362675,27.823511 c 0.307341,-0.03413 0.597609,-0.03413 0.853728,0.01706 0.379378,0.08243 0.882247,0.340034 1.327737,0.686284"
     style="fill:none;stroke:#2e3436;stroke-width:0.5;stroke-miterlimit:10;stroke-dasharray:none"
     id="path62"
     sodipodi:nodetypes="ccc" />
  <path
     d="m 31.35539,20.50223 -2.682057,-1.406127 v 0 c -0.260394,-0.143217 -0.650985,-0.169256 -1.236871,0.0651 -1.523304,0.624945 -1.484245,1.796717 -1.484245,2.53884 v 7.382166 l 3.228884,-1.69256 V 22.65048 l 2.187308,-2.14825 z"
     style="fill:url(#linearGradient86);stroke-width:1"
     id="path63" />
  <path
     id="polygon63"
     style="fill:url(#linear-gradient-27);stroke-width:1"
     d="m 25.939197,21.700042 2.721116,1.432166 v 7.382167 l -2.721116,-1.432167 z" />
  <path
     id="polygon64"
     style="fill:url(#linearGradient87);stroke-width:1"
     d="m 26.837556,23.613937 0.924398,0.481729 v 3.215864 l -0.924398,-0.494748 z" />
  <path
     id="polygon65"
     style="fill:#2e3436;stroke-width:0.5;stroke-dasharray:none"
     d="m 26.982477,23.130663 0.426863,0.238908 v 1.535842 l -0.426863,-0.238909 z"
     sodipodi:nodetypes="ccccc" />
  <path
     d="m 28.660313,23.132208 v 7.382167 l 3.228884,-1.69256 v -7.382167 c 0,-0.312473 -0.221335,-1.471225 -1.731619,-0.84628 -1.510285,0.624945 -1.484245,1.796718 -1.484245,2.53884 z"
     style="fill:url(#linear-gradient-29);stroke-width:1"
     id="path65" />
  <path
     id="polygon66"
     style="fill:url(#linear-gradient-30);stroke-width:1"
     d="m 29.389416,26.491289 v -2.629978 l 1.770678,-0.924398 v 2.616958 z" />
  <path
     id="polygon67"
     style="fill:#b9bcb5;stroke-width:1"
     d="m 31.160094,26.973018 -1.770678,0.924398 v -0.716083 l 1.770678,-0.924398 z" />
  <path
     d="m 26.1629,26.21941 c 0.05122,0.460753 0.119525,1.262804 0.08537,1.757686 -0.03415,0.494882 -0.08537,1.160414 -1.348889,1.450517 -1.263516,0.290104 -2.78315,0.08533 -2.800224,-0.699662 0,-0.529011 0.614684,-0.83618 1.263516,-0.921504"
     style="fill:none;stroke:#2e3436;stroke-width:0.5;stroke-miterlimit:10;stroke-dasharray:none"
     id="path67"
     sodipodi:nodetypes="csscc" />
  <path
     d="m 26.931254,26.270605 -0.307341,-0.460752 c -0.08537,-0.13652 -0.0683,-0.273039 0.03415,-0.358363 l 0.18782,-0.153584 0.10245,0.136518 -0.187821,0.153585 c 0,0 -0.05122,0.06826 0,0.136519 l 0.307343,0.460753 z"
     style="fill:#555753;stroke-width:0.5;stroke-dasharray:none"
     id="path68"
     sodipodi:nodetypes="ccccccccc" />
  <path
     d="m 27.050776,25.263775 c 0,0 -0.256119,0.03413 -0.290268,0.119457 -0.03415,0.08533 0.05123,0.153584 0.10245,0.238909 0.05122,0.08533 0.324416,0.273039 0.324416,0.273039 z"
     style="fill:#2e3436;stroke-width:0.5;stroke-dasharray:none"
     id="path69"
     sodipodi:nodetypes="csscc" />
  <path
     d="m 26.982477,25.229646 0.170746,0.784986 c 0.03415,0.187714 0,0.255973 -0.10245,0.273038 l -0.648833,0.13652 0.05122,0.204778 0.648832,-0.13652 c 0.15367,-0.03413 0.290267,-0.136518 0.239044,-0.341298 l -0.239044,-1.143348"
     style="fill:#555753;stroke-width:0.5;stroke-dasharray:none"
     id="path70"
     sodipodi:nodetypes="cccccccc" />
  <path
     d="m 26.948329,24.3764 c 0.05123,-0.119457 0.187819,-0.392493 0.290266,-0.597271"
     style="fill:none;stroke:#888a85;stroke-width:0.5;stroke-linecap:round;stroke-linejoin:round;stroke-dasharray:none"
     id="path71"
     sodipodi:nodetypes="cc" />
  <path
     d="m 26.897105,24.495855 0.05122,-0.102392"
     style="fill:none;stroke:#555753;stroke-width:0.5;stroke-linecap:round;stroke-linejoin:round;stroke-dasharray:none"
     id="path72"
     sodipodi:nodetypes="cc" />
  <path
     d="m 25.889707,25.31497 c 0,-0.631401 0.273193,-1.058024 0.461012,-1.092154 0.18782,-0.03413 0.273194,0.03413 0.324417,0.153584 0.03415,0.08533 0.256118,0.221844 0.426863,0.290104 0.136596,0.0512 0.10245,0.170649 0.10245,0.170649 l -0.05123,0.392493 -0.170745,0.119457 -0.341491,-0.102392 c 0,0 -0.256118,-0.06826 -0.37564,0.136519 l 0.187821,1.211609 c 0,0 -0.01707,0.119457 -0.187821,0.153584 -0.170745,0.03413 -0.307342,-0.03413 -0.307342,-0.03413 v -1.262802 l -0.08537,-0.119458 z"
     style="fill:url(#linearGradient88);stroke-width:0.5;stroke-dasharray:none"
     id="path73"
     sodipodi:nodetypes="csccccccccscccc" />
  <path
     d="m 27.221521,24.820088 v 0.136519 c -0.102449,-0.187714 -0.375639,-0.204778 -0.478087,-0.341298 -0.08538,-0.119457 -0.204895,-0.238909 -0.358565,-0.0512 -0.153671,0.187715 -0.204895,0.699661 -0.204895,0.699661 v 0.358363 c 0,0.13652 0.03415,0.819116 0.05122,1.126285 -0.136597,0 -0.256118,-0.0512 -0.256118,-0.0512 v -1.262804 l -0.0683,-0.119457 c 0,-0.614337 0.256119,-1.058025 0.461013,-1.092154 0.18782,-0.0512 0.273192,0.03413 0.324416,0.153584 0.03415,0.08533 0.256119,0.221844 0.409789,0.290104 0.136596,0.05119 0.119525,0.153583 0.119525,0.153583 z"
     style="fill:url(#linear-gradient-32);stroke-width:0.5;stroke-dasharray:none"
     id="path74"
     sodipodi:nodetypes="cccscsccccccccc" />
  <path
     id="polygon74"
     style="fill:url(#linear-gradient-33);stroke-width:1"
     d="m 28.660313,23.613937 3.215864,-1.69256 v -0.481729 l -3.215864,1.69256 z" />
  <path
     id="polygon75"
     style="fill:url(#linear-gradient-34);stroke-width:1"
     d="m 28.660313,23.613937 -2.721116,-1.432166 v -0.481729 l 2.721116,1.432166 z" />
  <path
     d="m 29.884164,17.611858 -0.42965,-0.234355 c 0,0 0,0 0,0 -0.169256,-0.09114 -0.41663,-0.09114 -0.664004,0.03906 -0.533807,0.273413 -0.976477,1.015536 -0.976477,1.653501 0,0.338512 0.130197,0.585886 0.325492,0.703063 v 0 l 0.390591,0.208315 v -0.182275 c 0.07812,-0.01302 0.156236,-0.02604 0.247374,-0.0651 0.533808,-0.273413 0.976477,-1.015536 0.976477,-1.653501 0,-0.09114 -0.02604,-0.156236 -0.03906,-0.221335 l 0.156237,-0.234354 z"
     style="fill:url(#linear-gradient-35);stroke-width:1"
     id="path75" />
  <path
     id="ellipse75"
     style="fill:url(#linear-gradient-36);stroke-width:1"
     d="m 29.866741,17.59071 a 0.83326039,1.3670679 28.26 0 1 0.08667,1.598651 0.83326039,1.3670679 28.26 0 1 -1.381213,0.809598 0.83326039,1.3670679 28.26 0 1 -0.08667,-1.598651 0.83326039,1.3670679 28.26 0 1 1.381213,-0.809598 z" />
  <path
     d="m 39.9,15.96 v 11.91 c 0,0.17 0.27,0.31 0.61,0.31 0.34,0 0.61,-0.14 0.61,-0.31 V 15.96 h -1.21 z"
     style="fill:none;stroke:#555753;stroke-width:1.4px;stroke-miterlimit:10"
     id="path76" />
  <path
     d="m 39.9,15.96 v 11.91 c 0,0.17 0.27,0.31 0.61,0.31 0.34,0 0.61,-0.14 0.61,-0.31 V 15.96 h -1.21 z"
     style="fill:url(#linear-gradient-37)"
     id="path77" />
  <circle
     cx="40.664631"
     cy="9.0246"
     r="7.0039744"
     style="fill:#cc0000;stroke-width:1"
     id="circle82" />
  <path
     d="m 46.776757,12.437402 c 0,0 -1.224803,0.08324 -2.723107,0.91563 -0.939412,0.73726 -2.116651,1.177238 -3.400911,1.177238 -3.032281,0 -5.49378,-2.461499 -5.49378,-5.4937796 0,-0.1426956 0,-0.2853912 0.01189,-0.4280867 l -0.04757,-0.023783 C 34.897351,7.9068171 34.088743,7.4192739 34.088743,7.4192739 L 33.88659,7.2527957 c -0.154586,0.5707823 -0.225934,1.1653472 -0.225934,1.7836947 0,3.8646716 3.139302,7.0039746 7.003974,7.0039746 2.627977,0 4.922998,-1.450738 6.112127,-3.591172 v 0 z"
     style="fill:#a40000;stroke-width:1"
     id="path82" />
  <path
     d="M 47.597257,8.0138388 C 47.98967,10.689381 46.812431,13.24601 44.743346,14.70864 l -0.225935,0.05946 c 0,0 -1.153456,-4.590041 -3.686303,-6.4450835 C 38.393392,6.5512091 34.837894,5.6712531 34.564394,5.5999053 35.587046,3.7805367 37.406415,2.43682 39.641979,2.1038637 c 3.828998,-0.558891 7.384496,2.0809771 7.955278,5.9099751 z"
     style="opacity:0.7;fill:url(#radialGradient117);stroke-width:1;fill-opacity:1"
     id="path83" />
  <circle
     cx="40.664631"
     cy="9.0246"
     r="7.0039744"
     style="fill:none;stroke:#7b0000;stroke-width:0.7px;stroke-miterlimit:10;stroke-opacity:1"
     id="circle83" />
  <rect
     style="color:#000000;overflow:visible;fill:#ffffff;fill-opacity:1;stroke:none;stroke-width:0.5;stroke-linejoin:round;stroke-dasharray:none;stroke-opacity:1;stop-color:#000000"
     id="rect116"
     width="2.251828"
     height="8.0178719"
     x="7.7548676"
     y="-44.85334"
     transform="rotate(90)" />
</svg>
