<?xml version="1.0" encoding="UTF-8" standalone="no"?>
<svg
   viewBox="0 0 48 48"
   version="1.1"
   id="svg31"
   sodipodi:docname="usdanalyze.svg"
   inkscape:version="1.3 (0e150ed, 2023-07-21)"
   xmlns:inkscape="http://www.inkscape.org/namespaces/inkscape"
   xmlns:sodipodi="http://sodipodi.sourceforge.net/DTD/sodipodi-0.dtd"
   xmlns:xlink="http://www.w3.org/1999/xlink"
   xmlns="http://www.w3.org/2000/svg"
   xmlns:svg="http://www.w3.org/2000/svg">
  <sodipodi:namedview
     id="namedview31"
     pagecolor="#ffffff"
     bordercolor="#000000"
     borderopacity="0.25"
     inkscape:showpageshadow="2"
     inkscape:pageopacity="0.0"
     inkscape:pagecheckerboard="0"
     inkscape:deskcolor="#d1d1d1"
     inkscape:zoom="17.416667"
     inkscape:cx="21.129187"
     inkscape:cy="23.971292"
     inkscape:window-width="1392"
     inkscape:window-height="1245"
     inkscape:window-x="630"
     inkscape:window-y="96"
     inkscape:window-maximized="0"
     inkscape:current-layer="svg31" />
  <defs
     id="defs13">
    <radialGradient
       id="radial-gradient"
       cx="-477.99"
       cy="-39.77"
       fx="-477.99"
       fy="-39.77"
       r="4.44"
       gradientTransform="matrix(5.19,0,0,1.75,2503.99,107.51)"
       gradientUnits="userSpaceOnUse">
      <stop
         offset=".03"
         stop-color="#1a1718"
         stop-opacity=".8"
         id="stop1" />
      <stop
         offset=".93"
         stop-color="#1a1718"
         stop-opacity="0"
         id="stop2" />
    </radialGradient>
    <linearGradient
       id="linear-gradient"
       x1="36.43"
       y1="34.08"
       x2="8.79"
       y2=".55"
       gradientTransform="matrix(1, 0, 0, 1, 0, 0)"
       gradientUnits="userSpaceOnUse">
      <stop
         offset="0"
         stop-color="#f9f9f8"
         id="stop3" />
      <stop
         offset="1"
         stop-color="#729fcf"
         id="stop4" />
    </linearGradient>
    <linearGradient
       id="linear-gradient-2"
       x1="39.16"
       y1="12.99"
       x2="31.31"
       y2="5.13"
       gradientTransform="matrix(1, 0, 0, 1, 0, 0)"
       gradientUnits="userSpaceOnUse">
      <stop
         offset="0"
         stop-color="#f9f9f8"
         id="stop5" />
      <stop
         offset="1"
         stop-color="#babdb6"
         id="stop6" />
    </linearGradient>
    <linearGradient
       id="linear-gradient-3"
       x1="33.76"
       y1="36.75"
       x2="6.12"
       y2="3.21"
       xlink:href="#linear-gradient" />
    <linearGradient
       id="linear-gradient-4"
       x1="36.5"
       y1="15.65"
       x2="28.64"
       y2="7.8"
       xlink:href="#linear-gradient-2" />
    <linearGradient
       id="linear-gradient-5"
       x1="31.1"
       y1="39.42"
       x2="3.46"
       y2="5.88"
       xlink:href="#linear-gradient-2" />
    <linearGradient
       id="linear-gradient-6"
       x1="22.27"
       y1="28.99"
       x2="7.67"
       y2="11.27"
       xlink:href="#linear-gradient-2" />
    <linearGradient
       id="linear-gradient-7"
       x1="33.83"
       y1="18.32"
       x2="25.98"
       y2="10.46"
       xlink:href="#linear-gradient" />
    <linearGradient
       id="linear-gradient-8"
       x1="20.24"
       y1="29.14"
       x2="20.24"
       y2="14.94"
       gradientTransform="matrix(1, 0, 0, 1, 0, 0)"
       gradientUnits="userSpaceOnUse">
      <stop
         offset="0"
         stop-color="#002b50"
         id="stop7" />
      <stop
         offset="1"
         stop-color="#3465a4"
         id="stop8" />
    </linearGradient>
    <linearGradient
       id="linear-gradient-9"
       x1="25.84"
       y1="16.52"
       x2="25.84"
       y2="14.86"
       gradientTransform="matrix(1, 0, 0, 1, 0, 0)"
       gradientUnits="userSpaceOnUse">
      <stop
         offset="0"
         stop-color="#204a87"
         id="stop9" />
      <stop
         offset="1"
         stop-color="#84abd5"
         id="stop10" />
    </linearGradient>
    <linearGradient
       id="linear-gradient-10"
       x1="24.64"
       y1="17.07"
       x2="24.64"
       y2="14.36"
       gradientTransform="rotate(180,24.645,15.63)"
       xlink:href="#linear-gradient-9" />
    <linearGradient
       id="linear-gradient-11"
       x1="19.54"
       y1="37.11"
       x2="29.34"
       y2="37.11"
       xlink:href="#linear-gradient-8" />
    <linearGradient
       id="linear-gradient-12"
       x1="29.9"
       y1="33.98"
       x2="26.98"
       y2="31.06"
       xlink:href="#linear-gradient-8" />
    <linearGradient
       id="linear-gradient-13"
       x1="28.95"
       y1="33.06"
       x2="25.73"
       y2="29.83"
       xlink:href="#linear-gradient-9" />
    <linearGradient
       id="linear-gradient-14"
       x1="28.41"
       y1="32.53"
       x2="31.29"
       y2="35.41"
       gradientUnits="userSpaceOnUse">
      <stop
         offset="0"
         stop-color="#d1e0ef"
         id="stop11" />
      <stop
         offset=".19"
         stop-color="#b2cbe5"
         id="stop12" />
      <stop
         offset="1"
         stop-color="#3465a4"
         id="stop13" />
    </linearGradient>
    <linearGradient
       id="linear-gradient-15"
       x1="21.08"
       y1="29.64"
       x2="18.83"
       y2="27.39"
       xlink:href="#linear-gradient-9" />
    <linearGradient
       id="linear-gradient-16"
       x1="14.64"
       y1="16.52"
       x2="14.64"
       y2="14.86"
       xlink:href="#linear-gradient-9" />
    <linearGradient
       id="linear-gradient-17"
       x1="15.83"
       y1="17.07"
       x2="15.83"
       y2="14.36"
       xlink:href="#linear-gradient-9" />
    <linearGradient
       inkscape:collect="always"
       xlink:href="#linear-gradient"
       id="linearGradient31"
       gradientUnits="userSpaceOnUse"
       x1="36.43"
       y1="34.08"
       x2="8.79"
       y2=".55" />
    <linearGradient
       inkscape:collect="always"
       xlink:href="#linear-gradient-2"
       id="linearGradient32"
       gradientUnits="userSpaceOnUse"
       x1="39.16"
       y1="12.99"
       x2="31.31"
       y2="5.13" />
    <linearGradient
       inkscape:collect="always"
       xlink:href="#linear-gradient-8"
       id="linearGradient33"
       gradientUnits="userSpaceOnUse"
       x1="20.24"
       y1="29.14"
       x2="20.24"
       y2="14.94" />
    <linearGradient
       inkscape:collect="always"
       xlink:href="#linear-gradient-9"
       id="linearGradient34"
       gradientUnits="userSpaceOnUse"
       x1="25.84"
       y1="16.52"
       x2="25.84"
       y2="14.86" />
  </defs>
  <g
     id="shadow"
     style="opacity:0.45;isolation:isolate;mix-blend-mode:multiply"
     transform="matrix(1.0790965,0,0,1,-1.8696075,2.6985646)">
    <ellipse
       cx="24"
       cy="37.77"
       rx="22.139999"
       ry="7.52"
       style="fill:url(#radial-gradient)"
       id="ellipse13" />
  </g>
  <g
     id="ART"
     style="isolation:isolate"
     transform="matrix(1.0938495,0,0,1.0938495,-2.8363833,-4.658926)">
    <g
       id="g30">
      <g
         id="g29">
        <g
           id="g22">
          <g
             id="g15">
            <polygon
               points="38.84,34.46 14.49,34.46 14.49,4.72 33.54,4.72 38.84,10.02 "
               style="fill:url(#linearGradient31)"
               id="polygon13" />
            <polygon
               points="33.54,10.02 38.84,10.02 33.54,4.72 "
               style="fill:url(#linearGradient32)"
               id="polygon14" />
            <polygon
               points="38.84,34.46 14.49,34.46 14.49,4.72 33.54,4.72 38.84,10.02 "
               style="fill:none;stroke:#888a85;stroke-width:0.7px;stroke-miterlimit:10"
               id="polygon15" />
            <polyline
               points="33.54 4.72 33.54 10.02 38.84 10.02"
               style="fill:none;stroke:#888a85;stroke-width:0.7px;stroke-miterlimit:10"
               id="polyline15" />
          </g>
          <g
             id="g18">
            <polygon
               points="36.18,37.13 11.82,37.13 11.82,7.38 30.88,7.38 36.18,12.68 "
               style="fill:url(#linear-gradient-3)"
               id="polygon16" />
            <polygon
               points="30.88,12.68 36.18,12.68 30.88,7.38 "
               style="fill:url(#linear-gradient-4)"
               id="polygon17" />
            <polygon
               points="36.18,37.13 11.82,37.13 11.82,7.38 30.88,7.38 36.18,12.68 "
               style="fill:none;stroke:#888a85;stroke-width:0.7px;stroke-miterlimit:10"
               id="polygon18" />
            <polyline
               points="30.88 7.38 30.88 12.68 36.18 12.68"
               style="fill:none;stroke:#888a85;stroke-width:0.7px;stroke-miterlimit:10"
               id="polyline18" />
          </g>
          <g
             id="g21">
            <polygon
               points="33.51,39.79 9.16,39.79 9.16,10.05 28.21,10.05 33.51,15.35 "
               style="fill:url(#linear-gradient-5)"
               id="polygon19" />
            <path
               d="M 30.86,12.7 C 14.32,21.79 9.16,39.8 9.16,39.8 V 10.05 h 19.05 z"
               style="fill:url(#linear-gradient-6)"
               id="path19" />
            <polygon
               points="28.21,15.35 33.51,15.35 28.21,10.05 "
               style="fill:url(#linear-gradient-7)"
               id="polygon20" />
            <polygon
               points="33.51,39.79 9.16,39.79 9.16,10.05 28.21,10.05 33.51,15.35 "
               style="fill:none;stroke:#888a85;stroke-width:0.7px;stroke-miterlimit:10"
               id="polygon21" />
            <polyline
               points="28.21 10.05 28.21 15.35 33.51 15.35"
               style="fill:none;stroke:#888a85;stroke-width:0.7px;stroke-miterlimit:10"
               id="polyline21" />
          </g>
        </g>
        <g
           id="g28">
          <path
             d="m 25.84,15.63 c 0,0 2.53,0.29 2.53,4.29 0,4 -4.71,7.84 -8.13,8.5 -3.42,-0.66 -8.13,-4.5 -8.13,-8.5 0,-4 2.53,-4.29 2.53,-4.29"
             style="fill:none;stroke:url(#linearGradient33);stroke-width:1.4px;stroke-miterlimit:10"
             id="path22" />
          <path
             d="m 25.34,14.64 c 0.55,0 0.99,0.44 0.99,0.99 0,0.55 -0.44,0.99 -0.99,0.99 v -1.99 z"
             style="fill:url(#linearGradient34)"
             id="path23" />
          <rect
             x="23.940001"
             y="13.79"
             width="1.4"
             height="3.6900001"
             rx="0.69999999"
             ry="0.69999999"
             transform="rotate(180,24.645,15.63)"
             style="fill:#729fcf"
             id="rect23" />
          <rect
             x="23.940001"
             y="13.79"
             width="1.4"
             height="3.6900001"
             rx="0.69999999"
             ry="0.69999999"
             transform="rotate(180,24.645,15.63)"
             style="fill:url(#linear-gradient-10)"
             id="rect24" />
          <path
             d="m 28.64,32.75 v 7.71 c 0,2.32 -1.88,4.2 -4.2,4.2 v 0 c -2.32,0 -4.2,-1.88 -4.2,-4.2 V 28.87"
             style="fill:none;stroke:url(#linear-gradient-11);stroke-width:1.4px;stroke-miterlimit:10"
             id="path24" />
          <circle
             cx="28.639999"
             cy="32.75"
             r="3.3099999"
             style="fill:#204a87"
             id="circle24" />
          <path
             d="m 31.95,32.76 c 0,1.82 -1.49,3.3 -3.31,3.3 -0.77,0 -1.47,-0.26 -2.03,-0.71 2.25,-1.51 3.67,-3.57 4.4,-4.9 0.58,0.6 0.94,1.41 0.94,2.31 z"
             style="fill:#133c6d"
             id="path25" />
          <path
             d="m 31.95,32.76 c 0,1.82 -1.49,3.3 -3.31,3.3 -0.77,0 -1.47,-0.26 -2.03,-0.71 2.25,-1.51 3.67,-3.57 4.4,-4.9 0.58,0.6 0.94,1.41 0.94,2.31 z"
             style="fill:url(#linear-gradient-12)"
             id="path26" />
          <circle
             cx="28.639999"
             cy="32.75"
             r="2.5"
             style="fill:#204a87"
             id="circle26" />
          <path
             d="m 30.17,30.78 c -0.71,0.36 -2.29,1.35 -3.55,3.45 -0.3,-0.42 -0.48,-0.92 -0.48,-1.47 0,-1.39 1.12,-2.5 2.5,-2.5 0.58,0 1.11,0.2 1.53,0.52 z"
             style="fill:url(#linear-gradient-13)"
             id="path27" />
          <circle
             cx="28.639999"
             cy="32.75"
             r="1.4"
             style="fill:#729fcf"
             id="circle27" />
          <circle
             cx="28.639999"
             cy="32.75"
             r="1.4"
             style="fill:url(#linear-gradient-14)"
             id="circle28" />
          <path
             d="m 21.38,27.7 v 0 c 0.25,0.26 0.39,0.61 0.39,0.97 v 0.37 c 0,0.36 -0.26,0.72 -0.56,1.02 -0.54,0.53 -1.41,0.53 -1.95,0 -0.31,-0.3 -0.56,-0.67 -0.56,-1.02 v -0.37 c 0,-0.36 0.14,-0.71 0.39,-0.97 v 0 c 0.26,-0.27 0.63,-0.43 1.01,-0.43 h 0.28 c 0.38,0 0.74,0.15 1.01,0.43 z"
             style="fill:url(#linear-gradient-15)"
             id="path28" />
        </g>
      </g>
      <path
         d="m 15.13,14.64 c -0.55,0 -0.99,0.44 -0.99,0.99 0,0.55 0.44,0.99 0.99,0.99 v -1.99 z"
         style="fill:url(#linear-gradient-16)"
         id="path29" />
      <rect
         x="15.13"
         y="13.79"
         width="1.4"
         height="3.6900001"
         rx="0.69999999"
         ry="0.69999999"
         style="fill:#729fcf"
         id="rect29" />
      <rect
         x="15.13"
         y="13.79"
         width="1.4"
         height="3.6900001"
         rx="0.69999999"
         ry="0.69999999"
         style="fill:url(#linear-gradient-17)"
         id="rect30" />
    </g>
  </g>
</svg>
