<?xml version="1.0" encoding="UTF-8" standalone="no"?>
<svg
   viewBox="0 0 48 48"
   version="1.1"
   id="svg4917"
   sodipodi:docname="canofworms.svg"
   inkscape:version="1.1 (c68e22c387, 2021-05-23)"
   xmlns:inkscape="http://www.inkscape.org/namespaces/inkscape"
   xmlns:sodipodi="http://sodipodi.sourceforge.net/DTD/sodipodi-0.dtd"
   xmlns:xlink="http://www.w3.org/1999/xlink"
   xmlns="http://www.w3.org/2000/svg"
   xmlns:svg="http://www.w3.org/2000/svg">
  <sodipodi:namedview
     id="namedview4919"
     pagecolor="#ffffff"
     bordercolor="#666666"
     borderopacity="1.0"
     inkscape:pageshadow="2"
     inkscape:pageopacity="0.0"
     inkscape:pagecheckerboard="0"
     showgrid="false"
     inkscape:zoom="15.6875"
     inkscape:cx="24"
     inkscape:cy="24"
     inkscape:window-width="2880"
     inkscape:window-height="1557"
     inkscape:window-x="-8"
     inkscape:window-y="-8"
     inkscape:window-maximized="1"
     inkscape:current-layer="svg4917" />
  <defs
     id="defs4611">
    <style
       id="style4506">.cls-1,.cls-18,.cls-22,.cls-23,.cls-25,.cls-53,.cls-7{fill:none;}.cls-2{isolation:isolate;}.cls-3{fill:url(#radial-gradient);}.cls-4{fill:#606060;}.cls-5{fill:url(#linear-gradient);}.cls-6{fill:url(#linear-gradient-2);}.cls-18,.cls-22,.cls-23,.cls-53,.cls-7{stroke-linecap:round;stroke-linejoin:round;stroke-width:0.7px;}.cls-7{stroke:url(#linear-gradient-3);}.cls-8{fill:url(#linear-gradient-4);}.cls-9{opacity:0.67;}.cls-10,.cls-48{fill:#fff;}.cls-11,.cls-15,.cls-17,.cls-21,.cls-29{mix-blend-mode:multiply;}.cls-11{fill:url(#linear-gradient-5);}.cls-12{fill:url(#linear-gradient-6);}.cls-13{fill:url(#linear-gradient-7);}.cls-14{fill:#edd400;}.cls-15{opacity:0.68;fill:url(#linear-gradient-8);}.cls-16{fill:url(#linear-gradient-9);}.cls-17{fill:url(#linear-gradient-10);}.cls-18{stroke:url(#linear-gradient-11);}.cls-19{fill:url(#linear-gradient-12);}.cls-20{fill:url(#linear-gradient-13);}.cls-21{fill:url(#linear-gradient-14);}.cls-22{stroke:url(#linear-gradient-15);}.cls-23{stroke:url(#linear-gradient-16);}.cls-24{clip-path:url(#clip-path);}.cls-25{stroke:#683f09;}.cls-25,.cls-48{stroke-miterlimit:10;stroke-width:1.4px;}.cls-26{fill:url(#linear-gradient-17);}.cls-27{fill:url(#linear-gradient-18);}.cls-28{fill:url(#linear-gradient-19);}.cls-29{opacity:0.5;}.cls-30{fill:#7b4706;}.cls-31{fill:url(#linear-gradient-20);}.cls-32{fill:url(#linear-gradient-21);}.cls-33{fill:url(#linear-gradient-22);}.cls-34{fill:url(#linear-gradient-23);}.cls-35{fill:url(#linear-gradient-24);}.cls-36{fill:url(#linear-gradient-25);}.cls-37{fill:url(#linear-gradient-26);}.cls-38{fill:url(#linear-gradient-27);}.cls-39{fill:url(#linear-gradient-28);}.cls-40{fill:url(#linear-gradient-29);}.cls-41{fill:url(#linear-gradient-30);}.cls-42{fill:url(#linear-gradient-31);}.cls-43{fill:url(#linear-gradient-32);}.cls-44{fill:url(#linear-gradient-33);}.cls-45{fill:url(#linear-gradient-34);}.cls-46{fill:url(#linear-gradient-35);}.cls-47{fill:url(#linear-gradient-36);}.cls-48{stroke:#fff;}.cls-49{fill:url(#linear-gradient-37);}.cls-50{fill:url(#linear-gradient-38);}.cls-51{fill:url(#linear-gradient-39);}.cls-52{fill:url(#linear-gradient-40);}.cls-53{stroke:url(#linear-gradient-41);}</style>
    <radialGradient
       id="radial-gradient"
       cx="30.37"
       cy="-40.28"
       r="7.83"
       gradientTransform="matrix(2.68,0,0,0.79,-56.25,73.75)"
       gradientUnits="userSpaceOnUse">
      <stop
         offset="0.41"
         stop-color="#212121"
         stop-opacity="0.5"
         id="stop4508" />
      <stop
         offset="0.65"
         stop-color="#212121"
         stop-opacity="0.21"
         id="stop4510" />
      <stop
         offset="0.95"
         stop-color="#212121"
         stop-opacity="0"
         id="stop4512" />
    </radialGradient>
    <linearGradient
       id="linear-gradient"
       x1="7.47"
       y1="17.83"
       x2="24.32"
       y2="17.83"
       gradientUnits="userSpaceOnUse">
      <stop
         offset="0"
         stop-color="#232729"
         id="stop4515" />
      <stop
         offset="1"
         stop-color="#edeeeb"
         id="stop4517" />
    </linearGradient>
    <linearGradient
       id="linear-gradient-2"
       x1="27.13"
       y1="13.42"
       x2="22.58"
       y2="24.39"
       xlink:href="#linear-gradient" />
    <linearGradient
       id="linear-gradient-3"
       x1="14.62"
       y1="17.83"
       x2="35.49"
       y2="17.83"
       gradientUnits="userSpaceOnUse">
      <stop
         offset="0"
         stop-color="#434542"
         id="stop4521" />
      <stop
         offset="1"
         stop-color="#232729"
         id="stop4523" />
    </linearGradient>
    <linearGradient
       id="linear-gradient-4"
       x1="45.41"
       y1="31.36"
       x2="13.73"
       y2="31.36"
       gradientUnits="userSpaceOnUse">
      <stop
         offset="0"
         stop-color="#232729"
         id="stop4526" />
      <stop
         offset="1"
         stop-color="#d7dad3"
         id="stop4528" />
    </linearGradient>
    <linearGradient
       id="linear-gradient-5"
       x1="35.64"
       y1="31.89"
       x2="32.31"
       y2="31.89"
       gradientUnits="userSpaceOnUse">
      <stop
         offset="0"
         stop-color="#232729"
         id="stop4531" />
      <stop
         offset="1"
         stop-color="#c8cdc3"
         id="stop4533" />
    </linearGradient>
    <linearGradient
       id="linear-gradient-6"
       x1="27.94"
       y1="33.16"
       x2="16.03"
       y2="33.16"
       gradientUnits="userSpaceOnUse">
      <stop
         offset="0"
         stop-color="#fff"
         stop-opacity="0"
         id="stop4536" />
      <stop
         offset="1"
         stop-color="#fff8f8"
         id="stop4538" />
    </linearGradient>
    <linearGradient
       id="linear-gradient-7"
       x1="20.04"
       y1="30.63"
       x2="15.08"
       y2="30.63"
       xlink:href="#linear-gradient-6" />
    <linearGradient
       id="linear-gradient-8"
       x1="15.31"
       y1="31.28"
       x2="34.63"
       y2="31.28"
       gradientUnits="userSpaceOnUse">
      <stop
         offset="0"
         stop-color="#fff"
         stop-opacity="0"
         id="stop4542" />
      <stop
         offset="1"
         stop-color="#888a85"
         id="stop4544" />
    </linearGradient>
    <linearGradient
       id="linear-gradient-9"
       x1="23.51"
       y1="31.28"
       x2="9.73"
       y2="31.28"
       xlink:href="#linear-gradient-6" />
    <linearGradient
       id="linear-gradient-10"
       x1="37.51"
       y1="31.28"
       x2="28.46"
       y2="31.28"
       gradientUnits="userSpaceOnUse">
      <stop
         offset="0"
         stop-color="#c4a000"
         id="stop4548" />
      <stop
         offset="1"
         stop-color="#fce94f"
         stop-opacity="0"
         id="stop4550" />
    </linearGradient>
    <linearGradient
       id="linear-gradient-11"
       x1="6.17"
       y1="7.8"
       x2="8.99"
       y2="7.8"
       xlink:href="#linear-gradient-3" />
    <linearGradient
       id="linear-gradient-12"
       x1="15.65"
       y1="21.26"
       x2="12.79"
       y2="4.28"
       gradientUnits="userSpaceOnUse">
      <stop
         offset="0"
         stop-color="#4a4f4f"
         id="stop4554" />
      <stop
         offset="1"
         stop-color="#dbdfd9"
         id="stop4556" />
    </linearGradient>
    <linearGradient
       id="linear-gradient-13"
       x1="13.8"
       y1="10.43"
       x2="12.23"
       y2="0.51"
       xlink:href="#linear-gradient-6" />
    <linearGradient
       id="linear-gradient-14"
       x1="15.39"
       y1="24.64"
       x2="13.73"
       y2="9.55"
       gradientUnits="userSpaceOnUse">
      <stop
         offset="0"
         stop-color="#232729"
         id="stop4560" />
      <stop
         offset="1"
         stop-color="#d3d7cf"
         stop-opacity="0.4"
         id="stop4562" />
    </linearGradient>
    <linearGradient
       id="linear-gradient-15"
       x1="5.86"
       y1="9.65"
       x2="20.88"
       y2="9.65"
       xlink:href="#linear-gradient-3" />
    <linearGradient
       id="linear-gradient-16"
       x1="14.62"
       y1="31.36"
       x2="35.49"
       y2="31.36"
       xlink:href="#linear-gradient-3" />
    <clipPath
       id="clip-path">
      <path
         class="cls-1"
         d="M16.81,20.31a16.87,16.87,0,0,0,8.25,1.82c4.61,0,8.5-1.32,9.7-3.12l7,2.9A9.56,9.56,0,0,1,42.93,21v-9.1l-7-7-14.1-.18-8.15,3-6,12.05L6,25.37l5.74,1.51,4.31-1.27.74-5.19Z"
         id="path4567" />
    </clipPath>
    <linearGradient
       id="linear-gradient-17"
       x1="34.38"
       y1="6.48"
       x2="30.08"
       y2="20.03"
       gradientUnits="userSpaceOnUse">
      <stop
         offset="0"
         stop-color="#e9b96e"
         id="stop4570" />
      <stop
         offset="1"
         stop-color="#8f5902"
         id="stop4572" />
    </linearGradient>
    <linearGradient
       id="linear-gradient-18"
       x1="33.38"
       y1="9.65"
       x2="29.08"
       y2="23.2"
       gradientUnits="userSpaceOnUse">
      <stop
         offset="0"
         stop-color="#c17d11"
         stop-opacity="0"
         id="stop4575" />
      <stop
         offset="1"
         stop-color="#683f09"
         id="stop4577" />
    </linearGradient>
    <linearGradient
       id="linear-gradient-19"
       x1="30.07"
       y1="13.32"
       x2="33.61"
       y2="17.55"
       xlink:href="#linear-gradient-18" />
    <linearGradient
       id="linear-gradient-20"
       x1="32.88"
       y1="14.84"
       x2="28.03"
       y2="8.92"
       gradientUnits="userSpaceOnUse">
      <stop
         offset="0.05"
         stop-color="#fff"
         stop-opacity="0"
         id="stop4581" />
      <stop
         offset="0.69"
         stop-color="#fff8f8"
         id="stop4583" />
    </linearGradient>
    <linearGradient
       id="linear-gradient-21"
       x1="35.87"
       y1="10.88"
       x2="35.42"
       y2="20.05"
       xlink:href="#linear-gradient-17" />
    <linearGradient
       id="linear-gradient-22"
       x1="37.27"
       y1="15.24"
       x2="32.57"
       y2="21.67"
       xlink:href="#linear-gradient-18" />
    <linearGradient
       id="linear-gradient-23"
       x1="36.83"
       y1="10.21"
       x2="36.63"
       y2="18.73"
       xlink:href="#linear-gradient-18" />
    <linearGradient
       id="linear-gradient-24"
       x1="35.11"
       y1="19.59"
       x2="36.71"
       y2="8.87"
       xlink:href="#linear-gradient-20" />
    <linearGradient
       id="linear-gradient-25"
       x1="20.38"
       y1="7.24"
       x2="20.96"
       y2="18.86"
       xlink:href="#linear-gradient-17" />
    <linearGradient
       id="linear-gradient-26"
       x1="20.38"
       y1="7.24"
       x2="20.96"
       y2="18.86"
       xlink:href="#linear-gradient-18" />
    <linearGradient
       id="linear-gradient-27"
       x1="21.62"
       y1="5.53"
       x2="19.56"
       y2="18.58"
       xlink:href="#linear-gradient-18" />
    <linearGradient
       id="linear-gradient-28"
       x1="20.66"
       y1="14.2"
       x2="23.04"
       y2="7.4"
       xlink:href="#linear-gradient-20" />
    <linearGradient
       id="linear-gradient-29"
       x1="29.59"
       y1="1.21"
       x2="25.55"
       y2="20.73"
       xlink:href="#linear-gradient-17" />
    <linearGradient
       id="linear-gradient-30"
       x1="25.59"
       y1="7.99"
       x2="28.01"
       y2="24.7"
       xlink:href="#linear-gradient-18" />
    <linearGradient
       id="linear-gradient-31"
       x1="31.11"
       y1="8.62"
       x2="24.72"
       y2="10.87"
       xlink:href="#linear-gradient-18" />
    <linearGradient
       id="linear-gradient-32"
       x1="26.68"
       y1="11.22"
       x2="30.55"
       y2="4.9"
       xlink:href="#linear-gradient-20" />
    <linearGradient
       id="linear-gradient-33"
       x1="26.11"
       y1="16.14"
       x2="21.2"
       y2="14.07"
       xlink:href="#linear-gradient-20" />
    <linearGradient
       id="linear-gradient-34"
       x1="10.15"
       y1="15.96"
       x2="16.86"
       y2="23.58"
       xlink:href="#linear-gradient-17" />
    <linearGradient
       id="linear-gradient-35"
       x1="11.02"
       y1="19.2"
       x2="15.12"
       y2="23.45"
       xlink:href="#linear-gradient-18" />
    <linearGradient
       id="linear-gradient-36"
       x1="20.06"
       y1="28.01"
       x2="6.05"
       y2="8.62"
       gradientUnits="userSpaceOnUse">
      <stop
         offset="0.05"
         stop-color="#fff"
         stop-opacity="0"
         id="stop4601" />
      <stop
         offset="0.79"
         stop-color="#fff8f8"
         id="stop4603" />
    </linearGradient>
    <linearGradient
       id="linear-gradient-37"
       x1="32.24"
       y1="19.42"
       x2="23.05"
       y2="34.67"
       xlink:href="#linear-gradient-17" />
    <linearGradient
       id="linear-gradient-38"
       x1="28.01"
       y1="30.85"
       x2="28.51"
       y2="34.74"
       xlink:href="#linear-gradient-18" />
    <linearGradient
       id="linear-gradient-39"
       x1="21.38"
       y1="29.87"
       x2="19.95"
       y2="33.84"
       xlink:href="#linear-gradient-18" />
    <linearGradient
       id="linear-gradient-40"
       x1="24.58"
       y1="35.25"
       x2="24.22"
       y2="24.92"
       xlink:href="#linear-gradient-36" />
    <linearGradient
       id="linear-gradient-41"
       x1="16.61"
       y1="19.98"
       x2="35.49"
       y2="19.98"
       xlink:href="#linear-gradient-3" />
    <linearGradient
       inkscape:collect="always"
       xlink:href="#linear-gradient"
       id="linearGradient4978"
       gradientUnits="userSpaceOnUse"
       x1="7.47"
       y1="17.83"
       x2="24.32"
       y2="17.83" />
    <linearGradient
       inkscape:collect="always"
       xlink:href="#linear-gradient-3"
       id="linearGradient4980"
       gradientUnits="userSpaceOnUse"
       x1="14.62"
       y1="17.83"
       x2="35.49"
       y2="17.83" />
    <linearGradient
       inkscape:collect="always"
       xlink:href="#linear-gradient-6"
       id="linearGradient4982"
       gradientUnits="userSpaceOnUse"
       x1="27.94"
       y1="33.16"
       x2="16.03"
       y2="33.16" />
    <linearGradient
       inkscape:collect="always"
       xlink:href="#linear-gradient-17"
       id="linearGradient4984"
       gradientUnits="userSpaceOnUse"
       x1="34.38"
       y1="6.48"
       x2="30.08"
       y2="20.03" />
    <linearGradient
       inkscape:collect="always"
       xlink:href="#linear-gradient-18"
       id="linearGradient4986"
       gradientUnits="userSpaceOnUse"
       x1="33.38"
       y1="9.65"
       x2="29.08"
       y2="23.2" />
    <linearGradient
       inkscape:collect="always"
       xlink:href="#linear-gradient-20"
       id="linearGradient4988"
       gradientUnits="userSpaceOnUse"
       x1="32.88"
       y1="14.84"
       x2="28.03"
       y2="8.92" />
    <linearGradient
       inkscape:collect="always"
       xlink:href="#linear-gradient-36"
       id="linearGradient4990"
       gradientUnits="userSpaceOnUse"
       x1="20.06"
       y1="28.01"
       x2="6.05"
       y2="8.62" />
  </defs>
  <g
     class="cls-2"
     id="g4915"
     transform="matrix(1.0531752,0,0,1.0531752,-1.7909707,-2.5497512)"
     style="stroke-width:0.94951">
    <g
       id="shadow"
       style="stroke-width:0.94951">
      <ellipse
         class="cls-3"
         cx="25.059999"
         cy="41.990002"
         rx="20.15"
         ry="5.96"
         id="ellipse4613"
         style="fill:url(#radial-gradient);stroke-width:0.94951" />
    </g>
    <g
       id="ART"
       style="stroke-width:0.94951">
      <path
         class="cls-4"
         d="M 8.62,6.9 A 5.59,5.59 0 0 0 8.35,5.18 L 7,5.92 a 6.65,6.65 0 0 0 -0.44,3 c 0.15,1.6 0.89,1.71 1.4,1.33 C 8.47,9.87 8.73,8.32 8.62,6.9 Z m -1.09,3.44 c -0.47,0 -0.85,-0.67 -0.85,-1.49 0,-0.82 0.38,-1.5 0.85,-1.5 0.47,0 0.84,0.67 0.84,1.5 0,0.83 -0.37,1.49 -0.84,1.49 z"
         id="path4616"
         style="stroke-width:0.94951" />
      <ellipse
         class="cls-5"
         cx="25.059999"
         cy="17.83"
         rx="10.09"
         ry="4.3000002"
         id="ellipse4618"
         style="fill:url(#linearGradient4978);stroke-width:0.94951" />
      <ellipse
         class="cls-6"
         cx="24.889999"
         cy="18.83"
         rx="9.9099998"
         ry="4.3000002"
         id="ellipse4620"
         style="fill:url(#linear-gradient-2);stroke-width:0.94951" />
      <ellipse
         class="cls-7"
         cx="25.059999"
         cy="17.83"
         rx="10.09"
         ry="4.3000002"
         id="ellipse4622"
         style="stroke:url(#linearGradient4980)" />
      <path
         class="cls-8"
         d="m 35.14,17.83 c 0,2.38 -4.51,4.3 -10.08,4.3 C 19.49,22.13 15,20.21 15,17.83 v 22.75 c 0,2.38 4.51,4.3 10.09,4.3 5.58,0 10.05,-1.88 10.05,-4.3 z"
         id="path4624"
         style="fill:url(#linear-gradient-4);stroke-width:0.94951" />
      <g
         class="cls-9"
         id="g4628"
         style="stroke-width:0.94951">
        <path
           class="cls-10"
           d="m 35.14,17.83 c 0,2.38 -4.51,4.3 -10.08,4.3 C 19.49,22.13 15,20.21 15,17.83 v 1.33 c 0,2.38 4.51,4.3 10.09,4.3 5.58,0 10.08,-1.92 10.08,-4.3 z"
           id="path4626"
           style="stroke-width:0.94951" />
      </g>
      <g
         class="cls-9"
         id="g4632"
         style="stroke-width:0.94951">
        <path
           class="cls-10"
           d="m 35.14,39.25 c 0,2.38 -4.51,4.3 -10.08,4.3 C 19.49,43.55 15,41.63 15,39.25 v 1.33 c 0,2.38 4.51,4.3 10.09,4.3 5.58,0 10.05,-1.88 10.05,-4.3 z"
           id="path4630"
           style="stroke-width:0.94951" />
      </g>
      <path
         class="cls-11"
         d="M 33.69,20.06 V 42.8 a 8.07,8.07 0 0 1 -1.74,0.92 V 21 a 8.07,8.07 0 0 0 1.74,-0.94 z"
         id="path4634"
         style="fill:url(#linear-gradient-5);stroke-width:0.94951" />
      <path
         class="cls-12"
         d="m 26.16,22.11 v 22.74 c -0.36,0 -0.73,0 -1.1,0 a 21.12,21.12 0 0 1 -5.54,-0.7 V 21.44 a 21.12,21.12 0 0 0 5.54,0.7 c 0.37,0 0.74,-0.01 1.1,-0.03 z"
         id="path4636"
         style="fill:url(#linearGradient4982);stroke-width:0.94951" />
      <path
         class="cls-13"
         d="m 17.47,20.67 v 22.75 c -1.56,-0.76 -2.5,-1.75 -2.5,-2.84 V 17.83 c 0.03,1.09 0.94,2.08 2.5,2.84 z"
         id="path4638"
         style="fill:url(#linear-gradient-7);stroke-width:0.94951" />
      <path
         class="cls-14"
         d="m 35.14,22.52 c 0,2.37 -4.51,4.3 -10.08,4.3 C 19.49,26.82 15,24.89 15,22.52 v 13.21 c 0,2.38 4.51,4.3 10.09,4.3 5.58,0 10.08,-1.92 10.08,-4.3 z"
         id="path4640"
         style="stroke-width:0.94951" />
      <path
         class="cls-15"
         d="m 35.14,22.52 c 0,2.37 -4.51,4.3 -10.08,4.3 C 19.49,26.82 15,24.89 15,22.52 v 13.21 c 0,2.38 4.51,4.3 10.09,4.3 5.58,0 10.08,-1.92 10.08,-4.3 z"
         id="path4642"
         style="fill:url(#linear-gradient-8);stroke-width:0.94951" />
      <path
         class="cls-16"
         d="m 35.14,22.52 c 0,2.37 -4.51,4.3 -10.08,4.3 C 19.49,26.82 15,24.89 15,22.52 v 13.21 c 0,2.38 4.51,4.3 10.09,4.3 5.58,0 10.08,-1.92 10.08,-4.3 z"
         id="path4644"
         style="fill:url(#linear-gradient-9);stroke-width:0.94951" />
      <path
         class="cls-17"
         d="m 35.14,22.52 c 0,2.37 -4.51,4.3 -10.08,4.3 C 19.49,26.82 15,24.89 15,22.52 v 13.21 c 0,2.38 4.51,4.3 10.09,4.3 5.58,0 10.08,-1.92 10.08,-4.3 z"
         id="path4646"
         style="fill:url(#linear-gradient-10);stroke-width:0.94951" />
      <path
         class="cls-18"
         d="M 8.62,6.9 A 5.59,5.59 0 0 0 8.35,5.18 L 7,5.92 a 6.65,6.65 0 0 0 -0.44,3 c 0.15,1.6 0.89,1.71 1.4,1.33 C 8.47,9.87 8.73,8.32 8.62,6.9 Z m -1.09,3.44 c -0.47,0 -0.85,-0.67 -0.85,-1.49 0,-0.82 0.38,-1.5 0.85,-1.5 0.47,0 0.84,0.67 0.84,1.5 0,0.83 -0.37,1.49 -0.84,1.49 z"
         id="path4648"
         style="stroke:url(#linear-gradient-11)" />
      <path
         class="cls-19"
         d="m 18,16.16 c 2.29,-1.31 4,-6.32 0.83,-10 C 15.66,2.48 9.45,2.12 7.2,3.48 c -2.25,1.36 -0.1,4 3,7.75 3.1,3.75 5.41,6.34 7.8,4.93 z"
         id="path4650"
         style="fill:url(#linear-gradient-12);stroke-width:0.94951" />
      <path
         class="cls-20"
         d="m 18,16.16 c 2.29,-1.31 4,-6.32 0.83,-10 C 15.66,2.48 9.45,2.12 7.2,3.48 c -2.25,1.36 -0.1,4 3,7.75 3.1,3.75 5.41,6.34 7.8,4.93 z"
         id="path4652"
         style="fill:url(#linear-gradient-13);stroke-width:0.94951" />
      <path
         class="cls-21"
         d="m 18,16.15 c -2.34,1.42 -4.61,-1.26 -7.78,-4.92 A 31.48,31.48 0 0 1 6.7,6.58 c 1.93,2.75 6.58,5.08 9.57,5 2.66,-0.07 3.16,-2.82 3.09,-4.64 2.38,3.55 0.74,7.99 -1.36,9.21 z"
         id="path4654"
         style="fill:url(#linear-gradient-14);stroke-width:0.94951" />
      <path
         class="cls-22"
         d="m 18,16.16 c 2.29,-1.31 4,-6.32 0.83,-10 C 15.66,2.48 9.45,2.12 7.2,3.48 c -2.25,1.36 -0.1,4 3,7.75 3.1,3.75 5.41,6.34 7.8,4.93 z"
         id="path4656"
         style="stroke:url(#linear-gradient-15)" />
      <path
         class="cls-23"
         d="m 35.14,17.83 c 0,2.38 -4.51,4.3 -10.08,4.3 C 19.49,22.13 15,20.21 15,17.83 v 22.75 c 0,2.38 4.51,4.3 10.09,4.3 5.58,0 10.05,-1.88 10.05,-4.3 z"
         id="path4658"
         style="stroke:url(#linear-gradient-16)" />
      <g
         class="cls-24"
         clip-path="url(#clip-path)"
         id="g4862"
         style="stroke-width:0.94951">
        <path
           class="cls-25"
           d="m 28.6,25.12 a 1.56,1.56 0 0 1 -1.55,-1.54 c 0,-0.31 0,-0.69 -0.08,-1.11 -0.2,-2 -0.54,-5.27 2,-7.17 l 0.7,-0.51 c 2.32,-1.69 3.93,-3 3.55,-4.48 a 1.55,1.55 0 0 1 3,-0.76 c 0.92,3.62 -2.35,6 -4.73,7.74 l -0.67,0.49 c -1.06,0.79 -1,2.45 -0.79,4.38 a 13.1,13.1 0 0 1 0.1,1.4 1.54,1.54 0 0 1 -1.53,1.56 z"
           id="path4660" />
        <path
           class="cls-26"
           d="m 28.6,25.12 a 1.56,1.56 0 0 1 -1.55,-1.54 c 0,-0.31 0,-0.69 -0.08,-1.11 -0.2,-2 -0.54,-5.27 2,-7.17 l 0.7,-0.51 c 2.32,-1.69 3.93,-3 3.55,-4.48 a 1.55,1.55 0 0 1 3,-0.76 c 0.92,3.62 -2.35,6 -4.73,7.74 l -0.67,0.49 c -1.06,0.79 -1,2.45 -0.79,4.38 a 13.1,13.1 0 0 1 0.1,1.4 1.54,1.54 0 0 1 -1.53,1.56 z"
           id="path4662"
           style="fill:url(#linearGradient4984);stroke-width:0.94951" />
        <path
           class="cls-27"
           d="m 28.6,25.12 a 1.56,1.56 0 0 1 -1.55,-1.54 c 0,-0.31 0,-0.69 -0.08,-1.11 -0.2,-2 -0.54,-5.27 2,-7.17 l 0.7,-0.51 c 2.32,-1.69 3.93,-3 3.55,-4.48 a 1.55,1.55 0 0 1 3,-0.76 c 0.92,3.62 -2.35,6 -4.73,7.74 l -0.67,0.49 c -1.06,0.79 -1,2.45 -0.79,4.38 a 13.1,13.1 0 0 1 0.1,1.4 1.54,1.54 0 0 1 -1.53,1.56 z"
           id="path4664"
           style="fill:url(#linearGradient4986);stroke-width:0.94951" />
        <path
           class="cls-28"
           d="m 31.49,17.28 -0.66,0.5 c -1.06,0.79 -1,2.45 -0.79,4.38 v 0 H 28.8 c 0,0 -0.48,-4 0.93,-5.17 1.41,-1.17 3.7,-2.28 5.06,-3.65 a 4.41,4.41 0 0 0 1.59,-2.87 c 0.19,3.13 -2.71,5.24 -4.89,6.81 z"
           id="path4666"
           style="fill:url(#linear-gradient-19);stroke-width:0.94951" />
        <g
           class="cls-29"
           id="g4696"
           style="stroke-width:0.94951">
          <path
             class="cls-30"
             d="m 33.62,10.81 0.34,-0.1 a 7.54,7.54 0 0 1 1,-0.17 1.7,1.7 0 0 1 0.93,0.14 2.21,2.21 0 0 1 0.32,0.21 A 0.79,0.79 0 0 0 36,10.5 1.22,1.22 0 0 0 34.87,10.1 1.64,1.64 0 0 0 33.62,10.81 Z"
             id="path4668"
             style="stroke-width:0.94951" />
          <path
             class="cls-1"
             d="M 33.62,10.81 A 2.57,2.57 0 0 1 35,10.32 1.21,1.21 0 0 1 36.24,10.89"
             id="path4670"
             style="stroke-width:0.94951" />
          <path
             class="cls-30"
             d="m 33,12.26 a 3.33,3.33 0 0 1 1.35,0.12 2,2 0 0 1 1,0.89 0.84,0.84 0 0 0 0,-0.42 1.26,1.26 0 0 0 -0.85,-0.89 1.63,1.63 0 0 0 -1.17,0.08 1,1 0 0 0 -0.33,0.22 z"
             id="path4672"
             style="stroke-width:0.94951" />
          <path
             class="cls-1"
             d="m 33,12.26 a 2,2 0 0 1 1.45,-0.08 1.4,1.4 0 0 1 0.9,1.09"
             id="path4674"
             style="stroke-width:0.94951" />
          <path
             class="cls-30"
             d="m 31.88,13.47 a 3.41,3.41 0 0 1 1.13,0.65 2.64,2.64 0 0 1 0.44,0.87 l 0.13,0.37 a 1.2,1.2 0 0 0 0.1,-0.4 1.39,1.39 0 0 0 -0.35,-1.14 1.5,1.5 0 0 0 -1.08,-0.42 1,1 0 0 0 -0.37,0.07 z"
             id="path4676"
             style="stroke-width:0.94951" />
          <path
             class="cls-1"
             d="m 31.88,13.47 a 1.87,1.87 0 0 1 1.31,0.52 2.06,2.06 0 0 1 0.39,1.37"
             id="path4678"
             style="stroke-width:0.94951" />
          <path
             class="cls-30"
             d="m 30.41,14.64 0.27,0.19 a 1.73,1.73 0 0 1 0.6,0.58 l 0.34,0.89 a 3.3,3.3 0 0 0 0.16,0.33 1.47,1.47 0 0 0 0.07,-0.37 2,2 0 0 0 -0.18,-1 1.13,1.13 0 0 0 -0.92,-0.58 1,1 0 0 0 -0.34,-0.04 z"
             id="path4680"
             style="stroke-width:0.94951" />
          <path
             class="cls-1"
             d="m 30.41,14.64 a 1.55,1.55 0 0 1 1.08,0.7 4.74,4.74 0 0 1 0.29,1.29"
             id="path4682"
             style="stroke-width:0.94951" />
          <path
             class="cls-30"
             d="m 28.67,15.88 0.25,0.24 a 6.57,6.57 0 0 1 0.66,0.69 l 0.61,0.78 0.25,0.28 a 1.22,1.22 0 0 0 0,-0.38 2.23,2.23 0 0 0 -0.5,-1 2,2 0 0 0 -0.89,-0.58 1.05,1.05 0 0 0 -0.38,-0.03 z"
             id="path4684"
             style="stroke-width:0.94951" />
          <path
             class="cls-1"
             d="m 28.67,15.88 a 3.32,3.32 0 0 1 1.77,2"
             id="path4686"
             style="stroke-width:0.94951" />
          <path
             class="cls-30"
             d="m 27.48,17.75 a 1,1 0 0 0 0.17,0.31 2.08,2.08 0 0 0 0.84,0.62 1.48,1.48 0 0 0 1.44,-0.1 L 29.57,18.51 A 6.27,6.27 0 0 1 28.65,18.26 C 28.27,18.12 27.98,17.99 27.78,17.9 Z"
             id="path4688"
             style="stroke-width:0.94951" />
          <path
             class="cls-1"
             d="m 27.48,17.75 a 2.69,2.69 0 0 0 2.45,0.83"
             id="path4690"
             style="stroke-width:0.94951" />
          <path
             class="cls-30"
             d="m 27.16,20.17 a 0.75,0.75 0 0 0 0.19,0.29 1.53,1.53 0 0 0 0.95,0.42 c 0.93,0.08 1.38,-0.4 1.33,-0.41 a 8.47,8.47 0 0 1 -1.29,0 3,3 0 0 1 -1.18,-0.3 z"
             id="path4692"
             style="stroke-width:0.94951" />
          <path
             class="cls-1"
             d="m 27.16,20.17 a 1.82,1.82 0 0 0 1.19,0.49 2.52,2.52 0 0 0 1.28,-0.19"
             id="path4694"
             style="stroke-width:0.94951" />
        </g>
        <path
           class="cls-31"
           d="m 36.06,9.15 c -0.58,-0.5 -1.52,-0.18 -1.52,0.9 0,1.25 -0.25,3.34 -2.25,4.07 a 13.42,13.42 0 0 0 -5,3.47 A 5,5 0 0 1 29,15.3 l 0.7,-0.51 c 2.32,-1.69 3.93,-3 3.55,-4.48 a 1.54,1.54 0 0 1 2.83,-1.16 z"
           id="path4698"
           style="fill:url(#linearGradient4988);stroke-width:0.94951" />
        <path
           class="cls-25"
           d="M 32.27,24.19 A 1.54,1.54 0 0 1 31,23.45 a 7.27,7.27 0 0 1 -1,-5.73 6.31,6.31 0 0 1 3.32,-3.95 5.36,5.36 0 0 1 5.19,-0.08 5.09,5.09 0 0 1 2.69,3.61 1.55,1.55 0 0 1 -3.08,0.29 2.37,2.37 0 0 0 -1.12,-1.23 2.33,2.33 0 0 0 -2.2,0.15 3.25,3.25 0 0 0 -1.76,2 4.26,4.26 0 0 0 0.57,3.28 1.55,1.55 0 0 1 -0.5,2.13 1.58,1.58 0 0 1 -0.84,0.27 z"
           id="path4700" />
        <path
           class="cls-32"
           d="M 32.27,24.19 A 1.54,1.54 0 0 1 31,23.45 a 7.27,7.27 0 0 1 -1,-5.73 6.31,6.31 0 0 1 3.32,-3.95 5.36,5.36 0 0 1 5.19,-0.08 5.09,5.09 0 0 1 2.69,3.61 1.55,1.55 0 0 1 -3.08,0.29 2.37,2.37 0 0 0 -1.12,-1.23 2.33,2.33 0 0 0 -2.2,0.15 3.25,3.25 0 0 0 -1.76,2 4.26,4.26 0 0 0 0.57,3.28 1.55,1.55 0 0 1 -0.5,2.13 1.58,1.58 0 0 1 -0.84,0.27 z"
           id="path4702"
           style="fill:url(#linear-gradient-21);stroke-width:0.94951" />
        <path
           class="cls-33"
           d="M 32.27,24.19 A 1.54,1.54 0 0 1 31,23.45 a 7.27,7.27 0 0 1 -1,-5.73 6.31,6.31 0 0 1 3.32,-3.95 5.36,5.36 0 0 1 5.19,-0.08 5.09,5.09 0 0 1 2.69,3.61 1.55,1.55 0 0 1 -3.08,0.29 2.37,2.37 0 0 0 -1.12,-1.23 2.33,2.33 0 0 0 -2.2,0.15 3.25,3.25 0 0 0 -1.76,2 4.26,4.26 0 0 0 0.57,3.28 1.55,1.55 0 0 1 -0.5,2.13 1.58,1.58 0 0 1 -0.84,0.27 z"
           id="path4704"
           style="fill:url(#linear-gradient-22);stroke-width:0.94951" />
        <path
           class="cls-34"
           d="M 40.89,17.37 A 1.6,1.6 0 0 1 39.32,19 v 0 a 1.58,1.58 0 0 1 -1.2,-1.37 2.09,2.09 0 0 0 -0.82,-1 2.1,2.1 0 0 0 -1.54,-0.64 3.81,3.81 0 0 0 -2.69,0.92 c -0.72,0.59 -0.8,0.24 -0.31,-0.38 a 4.51,4.51 0 0 1 2.91,-1.65 3,3 0 0 1 3.57,2.12 1,1 0 0 0 1.24,0.86 0.8,0.8 0 0 0 0.41,-0.49 z"
           id="path4706"
           style="fill:url(#linear-gradient-23);stroke-width:0.94951" />
        <g
           class="cls-29"
           id="g4728"
           style="stroke-width:0.94951">
          <path
             class="cls-30"
             d="m 38.08,17 a 2,2 0 0 1 0.12,-0.33 1.82,1.82 0 0 1 0.57,-0.73 2.58,2.58 0 0 1 0.9,-0.35 l 0.38,-0.08 A 1,1 0 0 0 39.67,15.36 1.41,1.41 0 0 0 38.5,15.58 1.34,1.34 0 0 0 38,16.62 0.71,0.71 0 0 0 38.08,17 Z"
             id="path4708"
             style="stroke-width:0.94951" />
          <path
             class="cls-1"
             d="m 38.08,17 a 1.43,1.43 0 0 1 0.58,-1.26 1.92,1.92 0 0 1 1.39,-0.23"
             id="path4710"
             style="stroke-width:0.94951" />
          <path
             class="cls-30"
             d="m 34.8,16.37 a 1.73,1.73 0 0 1 -0.36,-0.17 2.15,2.15 0 0 1 -0.78,-0.75 2.85,2.85 0 0 1 -0.25,-1.1 v -0.44 a 1.25,1.25 0 0 0 -0.21,0.41 1.64,1.64 0 0 0 0.1,1.35 1.53,1.53 0 0 0 1.09,0.73 0.77,0.77 0 0 0 0.41,-0.03 z"
             id="path4712"
             style="stroke-width:0.94951" />
          <path
             class="cls-1"
             d="M 34.8,16.37 A 1.67,1.67 0 0 1 33.45,15.53 2.21,2.21 0 0 1 33.39,13.91"
             id="path4714"
             style="stroke-width:0.94951" />
          <path
             class="cls-30"
             d="M 33.37,17.6 A 2.11,2.11 0 0 1 32,17.22 2.84,2.84 0 0 1 31.32,16.32 l -0.2,-0.39 a 1.27,1.27 0 0 0 0,0.46 1.63,1.63 0 0 0 0.64,1.19 1.51,1.51 0 0 0 1.3,0.22 0.92,0.92 0 0 0 0.31,-0.2 z"
             id="path4716"
             style="stroke-width:0.94951" />
          <path
             class="cls-1"
             d="M 33.37,17.6 A 1.66,1.66 0 0 1 31.79,17.38 2.22,2.22 0 0 1 31.07,15.93"
             id="path4718"
             style="stroke-width:0.94951" />
          <path
             class="cls-30"
             d="m 32.78,19.26 a 1.82,1.82 0 0 1 -0.36,0.19 2.15,2.15 0 0 1 -1.07,0.15 2.77,2.77 0 0 1 -1,-0.47 L 30,18.88 a 1.56,1.56 0 0 0 0.2,0.41 1.66,1.66 0 0 0 1.13,0.75 1.57,1.57 0 0 0 1.25,-0.42 0.82,0.82 0 0 0 0.2,-0.36 z"
             id="path4720"
             style="stroke-width:0.94951" />
          <path
             class="cls-1"
             d="M 32.78,19.26 A 1.62,1.62 0 0 1 31.29,19.81 2.22,2.22 0 0 1 30,18.88"
             id="path4722"
             style="stroke-width:0.94951" />
          <path
             class="cls-30"
             d="m 36,15.79 a 4.5,4.5 0 0 1 0.48,-1.18 6.1,6.1 0 0 1 0.55,-0.78 l 0.23,-0.29 A 1.51,1.51 0 0 0 36.09,14.4 1.47,1.47 0 0 0 36,15.79 Z"
             id="path4724"
             style="stroke-width:0.94951" />
          <path
             class="cls-1"
             d="m 36,15.79 a 2.39,2.39 0 0 1 1.26,-2.25"
             id="path4726"
             style="stroke-width:0.94951" />
        </g>
        <path
           class="cls-35"
           d="m 40.77,17.27 c -0.38,0.48 -1.05,0 -1.25,-0.77 -0.2,-0.77 -1.08,-2.32 -4.14,-2.07 a 6.89,6.89 0 0 0 -5.54,4.23 6,6 0 0 1 0.19,-0.94 6.34,6.34 0 0 1 3.31,-4 5.43,5.43 0 0 1 5.2,-0.07 5.64,5.64 0 0 1 2.21,2.23 1.45,1.45 0 0 1 0.02,1.39 z"
           id="path4730"
           style="fill:url(#linear-gradient-24);stroke-width:0.94951" />
        <path
           class="cls-25"
           d="m 22.26,25.89 a 1.53,1.53 0 0 1 -1.54,-1.44 15.28,15.28 0 0 1 0.37,-3.87 8.41,8.41 0 0 0 0.12,-4.24 6.37,6.37 0 0 0 -3.06,-4 1.55,1.55 0 0 1 0.66,-3 c 1.78,0.39 4.25,2.64 5.35,6.05 a 11.39,11.39 0 0 1 0,5.75 13.13,13.13 0 0 0 -0.33,3.09 1.54,1.54 0 0 1 -1.44,1.65 z"
           id="path4732" />
        <path
           class="cls-36"
           d="m 22.26,25.89 a 1.53,1.53 0 0 1 -1.54,-1.44 15.28,15.28 0 0 1 0.37,-3.87 8.41,8.41 0 0 0 0.12,-4.24 6.37,6.37 0 0 0 -3.06,-4 1.55,1.55 0 0 1 0.66,-3 c 1.78,0.39 4.25,2.64 5.35,6.05 a 11.39,11.39 0 0 1 0,5.75 13.13,13.13 0 0 0 -0.33,3.09 1.54,1.54 0 0 1 -1.44,1.65 z"
           id="path4734"
           style="fill:url(#linear-gradient-25);stroke-width:0.94951" />
        <path
           class="cls-37"
           d="m 22.26,25.89 a 1.53,1.53 0 0 1 -1.54,-1.44 15.28,15.28 0 0 1 0.37,-3.87 8.41,8.41 0 0 0 0.12,-4.24 6.37,6.37 0 0 0 -3.06,-4 1.55,1.55 0 0 1 0.66,-3 c 1.78,0.39 4.25,2.64 5.35,6.05 a 11.39,11.39 0 0 1 0,5.75 13.13,13.13 0 0 0 -0.33,3.09 1.54,1.54 0 0 1 -1.44,1.65 z"
           id="path4736"
           style="fill:url(#linear-gradient-26);stroke-width:0.94951" />
        <path
           class="cls-38"
           d="m 22.77,22.7 -1.9,1.92 h -0.12 a 0.52,0.52 0 0 1 0,-0.18 15.28,15.28 0 0 1 0.37,-3.87 8.49,8.49 0 0 0 0.12,-4.23 c -0.8,-2.51 -2.51,-3.87 -3.07,-4 A 1.55,1.55 0 0 1 17,10.53 a 0.69,0.69 0 0 1 0.05,-0.17 1.06,1.06 0 0 0 0.81,1.11 6.26,6.26 0 0 1 4.06,3.15 c 1.2,2.44 0.87,5.64 0.85,8.08 z"
           id="path4738"
           style="fill:url(#linear-gradient-27);stroke-width:0.94951" />
        <g
           class="cls-29"
           id="g4768"
           style="stroke-width:0.94951">
          <path
             class="cls-30"
             d="m 18.16,12 c 0,0 0,-0.13 0,-0.39 a 1.33,1.33 0 0 1 0.26,-0.93 3.18,3.18 0 0 1 1.26,-0.79 0.77,0.77 0 0 0 -0.44,-0.07 1.74,1.74 0 0 0 -1.15,0.57 1.09,1.09 0 0 0 -0.26,0.75 1.82,1.82 0 0 0 0.12,0.51 1.42,1.42 0 0 0 0.21,0.35 z"
             id="path4740"
             style="stroke-width:0.94951" />
          <path
             class="cls-1"
             d="m 18.16,12 a 1.47,1.47 0 0 1 0.13,-1.49 2,2 0 0 1 1.4,-0.62"
             id="path4742"
             style="stroke-width:0.94951" />
          <path
             class="cls-30"
             d="m 19.3,12.81 a 2.4,2.4 0 0 1 0.2,-0.33 2.67,2.67 0 0 1 0.76,-0.74 2.63,2.63 0 0 1 1.41,-0.32 0.91,0.91 0 0 0 -0.38,-0.22 1.45,1.45 0 0 0 -1.28,0.17 1.69,1.69 0 0 0 -0.7,1 1,1 0 0 0 -0.01,0.44 z"
             id="path4744"
             style="stroke-width:0.94951" />
          <path
             class="cls-1"
             d="m 19.3,12.81 a 1.89,1.89 0 0 1 0.86,-1.27 1.71,1.71 0 0 1 1.51,-0.12"
             id="path4746"
             style="stroke-width:0.94951" />
          <path
             class="cls-30"
             d="m 20.34,14.07 a 1.08,1.08 0 0 1 0.26,-0.25 5.6,5.6 0 0 1 0.89,-0.5 3.41,3.41 0 0 1 1,-0.26 3.49,3.49 0 0 1 0.39,0 0.85,0.85 0 0 0 -0.37,-0.21 1.61,1.61 0 0 0 -1.19,0.1 2,2 0 0 0 -0.86,0.77 0.6,0.6 0 0 0 -0.12,0.35 z"
             id="path4748"
             style="stroke-width:0.94951" />
          <path
             class="cls-1"
             d="m 20.34,14.07 a 2.18,2.18 0 0 1 2.52,-1"
             id="path4750"
             style="stroke-width:0.94951" />
          <path
             class="cls-30"
             d="m 21.15,15.49 a 1.23,1.23 0 0 0 0.33,0 2.24,2.24 0 0 0 1,-0.14 1.47,1.47 0 0 0 1,-1 l -0.31,0.18 a 7.77,7.77 0 0 1 -0.83,0.42 l -0.87,0.35 z"
             id="path4752"
             style="stroke-width:0.94951" />
          <path
             class="cls-1"
             d="m 21.15,15.49 a 5.67,5.67 0 0 0 1.28,-0.3 2.6,2.6 0 0 0 1,-0.8"
             id="path4754"
             style="stroke-width:0.94951" />
          <path
             class="cls-30"
             d="m 21.62,17.11 a 0.85,0.85 0 0 0 0.27,0.25 1.63,1.63 0 0 0 1.08,0.22 A 1.39,1.39 0 0 0 24,17 a 0.5,0.5 0 0 0 0.1,-0.39 1.67,1.67 0 0 1 -1.16,0.52 3,3 0 0 1 -0.94,0 2.48,2.48 0 0 1 -0.38,-0.02 z"
             id="path4756"
             style="stroke-width:0.94951" />
          <path
             class="cls-1"
             d="m 21.62,17.11 a 2,2 0 0 0 1.34,0.24 1.29,1.29 0 0 0 1.1,-0.73"
             id="path4758"
             style="stroke-width:0.94951" />
          <path
             class="cls-30"
             d="m 21.67,19 a 0.83,0.83 0 0 0 0.24,0.29 1.75,1.75 0 0 0 1.05,0.39 1.81,1.81 0 0 0 1.12,-0.29 0.74,0.74 0 0 0 0.27,-0.3 2.09,2.09 0 0 1 -0.37,0.09 5.41,5.41 0 0 1 -1,0.05 A 3.31,3.31 0 0 1 21.67,19 Z"
             id="path4760"
             style="stroke-width:0.94951" />
          <path
             class="cls-1"
             d="M 21.67,19 A 2.15,2.15 0 0 0 23,19.46 2.08,2.08 0 0 0 24.35,19"
             id="path4762"
             style="stroke-width:0.94951" />
          <path
             class="cls-30"
             d="m 21.47,20.82 a 0.87,0.87 0 0 0 0.22,0.31 2,2 0 0 0 2.16,0.23 0.8,0.8 0 0 0 0.29,-0.28 l -0.37,0.06 a 5.74,5.74 0 0 1 -1,0 3.51,3.51 0 0 1 -1.3,-0.32 z"
             id="path4764"
             style="stroke-width:0.94951" />
          <path
             class="cls-1"
             d="m 21.47,20.82 a 2.14,2.14 0 0 0 1.3,0.54 2.17,2.17 0 0 0 1.37,-0.28"
             id="path4766"
             style="stroke-width:0.94951" />
        </g>
        <path
           class="cls-39"
           d="m 24.47,16.89 -0.37,0.2 A 7.22,7.22 0 0 0 21.2,12 c -1.39,-0.88 -3.05,-1 -3.53,-1.41 a 0.72,0.72 0 0 1 -0.14,-1 1.53,1.53 0 0 1 1.28,-0.29 c 1.77,0.38 4.26,2.64 5.35,6.05 a 8.07,8.07 0 0 1 0.31,1.54 z"
           id="path4770"
           style="fill:url(#linear-gradient-28);stroke-width:0.94951" />
        <path
           class="cls-25"
           d="m 26.7,25.39 a 1.55,1.55 0 0 1 -1.39,-0.87 c -0.18,-0.36 -0.4,-0.75 -0.62,-1.16 -1.18,-2.08 -3,-5.24 -0.92,-8.27 a 19.23,19.23 0 0 1 2,-2.49 c 0.92,-1 1.21,-1.37 1.27,-2.22 A 0.69,0.69 0 0 0 27,9.89 0.91,0.91 0 0 0 26.55,9.71 1.54,1.54 0 0 1 25,8.14 a 1.56,1.56 0 0 1 1.57,-1.52 4,4 0 0 1 2.68,1.18 3.63,3.63 0 0 1 0.88,2.79 6.17,6.17 0 0 1 -2.07,4.09 17.29,17.29 0 0 0 -1.72,2.13 c -0.9,1.35 -0.17,2.87 1,5 0.26,0.46 0.5,0.9 0.71,1.31 a 1.55,1.55 0 0 1 -0.71,2.07 1.51,1.51 0 0 1 -0.64,0.2 z"
           id="path4772" />
        <path
           class="cls-40"
           d="m 26.7,25.39 a 1.55,1.55 0 0 1 -1.39,-0.87 c -0.18,-0.36 -0.4,-0.75 -0.62,-1.16 -1.18,-2.08 -3,-5.24 -0.92,-8.27 a 19.23,19.23 0 0 1 2,-2.49 c 0.92,-1 1.21,-1.37 1.27,-2.22 A 0.69,0.69 0 0 0 27,9.89 0.91,0.91 0 0 0 26.55,9.71 1.54,1.54 0 0 1 25,8.14 a 1.56,1.56 0 0 1 1.57,-1.52 4,4 0 0 1 2.68,1.18 3.63,3.63 0 0 1 0.88,2.79 6.17,6.17 0 0 1 -2.07,4.09 17.29,17.29 0 0 0 -1.72,2.13 c -0.9,1.35 -0.17,2.87 1,5 0.26,0.46 0.5,0.9 0.71,1.31 a 1.55,1.55 0 0 1 -0.71,2.07 1.51,1.51 0 0 1 -0.64,0.2 z"
           id="path4774"
           style="fill:url(#linear-gradient-29);stroke-width:0.94951" />
        <path
           class="cls-41"
           d="m 26.7,25.39 a 1.55,1.55 0 0 1 -1.39,-0.87 c -0.18,-0.36 -0.4,-0.75 -0.62,-1.16 -1.18,-2.08 -3,-5.24 -0.92,-8.27 a 19.23,19.23 0 0 1 2,-2.49 c 0.92,-1 1.21,-1.37 1.27,-2.22 A 0.69,0.69 0 0 0 27,9.89 0.91,0.91 0 0 0 26.55,9.71 1.54,1.54 0 0 1 25,8.14 a 1.56,1.56 0 0 1 1.57,-1.52 4,4 0 0 1 2.68,1.18 3.63,3.63 0 0 1 0.88,2.79 6.17,6.17 0 0 1 -2.07,4.09 17.29,17.29 0 0 0 -1.72,2.13 c -0.9,1.35 -0.17,2.87 1,5 0.26,0.46 0.5,0.9 0.71,1.31 a 1.55,1.55 0 0 1 -0.71,2.07 1.51,1.51 0 0 1 -0.64,0.2 z"
           id="path4776"
           style="fill:url(#linear-gradient-30);stroke-width:0.94951" />
        <g
           class="cls-29"
           id="g4806"
           style="stroke-width:0.94951">
          <path
             class="cls-30"
             d="m 26.73,9.39 a 1.12,1.12 0 0 0 0.34,-0.08 1.35,1.35 0 0 0 0.79,-0.71 1.38,1.38 0 0 0 0,-1.09 1,1 0 0 0 -0.2,-0.31 6.49,6.49 0 0 1 -0.17,1.23 2.5,2.5 0 0 1 -0.5,0.71 z"
             id="path4778"
             style="stroke-width:0.94951" />
          <path
             class="cls-1"
             d="m 26.73,9.39 a 1.89,1.89 0 0 0 0.93,-0.9 2,2 0 0 0 0,-1.29"
             id="path4780"
             style="stroke-width:0.94951" />
          <path
             class="cls-30"
             d="m 27.31,10.83 a 0.84,0.84 0 0 0 0.34,0.15 2.1,2.1 0 0 0 1.1,0 1.41,1.41 0 0 0 0.91,-0.73 0.73,0.73 0 0 0 0.08,-0.4 2.18,2.18 0 0 1 -0.27,0.26 2.69,2.69 0 0 1 -0.84,0.44 7.5,7.5 0 0 1 -1.32,0.28 z"
             id="path4782"
             style="stroke-width:0.94951" />
          <path
             class="cls-1"
             d="m 27.31,10.83 a 2.77,2.77 0 0 0 1.4,-0.08 1.55,1.55 0 0 0 1,-0.9"
             id="path4784"
             style="stroke-width:0.94951" />
          <path
             class="cls-30"
             d="m 26.72,12.29 a 0.55,0.55 0 0 0 0,0.38 1.4,1.4 0 0 0 0.75,0.84 1.35,1.35 0 0 0 1.16,-0.08 0.94,0.94 0 0 0 0.31,-0.25 h -0.38 a 2.26,2.26 0 0 1 -0.92,-0.1 1.69,1.69 0 0 1 -0.92,-0.79 z"
             id="path4786"
             style="stroke-width:0.94951" />
          <path
             class="cls-1"
             d="m 26.72,12.29 a 1.35,1.35 0 0 0 0.86,1 1.72,1.72 0 0 0 1.35,-0.14"
             id="path4788"
             style="stroke-width:0.94951" />
          <path
             class="cls-30"
             d="m 25.28,13.68 a 0.62,0.62 0 0 0 -0.11,0.35 1.33,1.33 0 0 0 0.45,1 1.3,1.3 0 0 0 1.13,0.27 1,1 0 0 0 0.37,-0.14 l -0.37,-0.09 a 2.27,2.27 0 0 1 -0.84,-0.38 1.75,1.75 0 0 1 -0.63,-1.01 z"
             id="path4790"
             style="stroke-width:0.94951" />
          <path
             class="cls-1"
             d="m 25.28,13.68 a 1.36,1.36 0 0 0 0.51,1.24 1.76,1.76 0 0 0 1.33,0.28"
             id="path4792"
             style="stroke-width:0.94951" />
          <path
             class="cls-30"
             d="m 23.81,15.66 a 0.64,0.64 0 0 0 0,0.41 1.44,1.44 0 0 0 0.79,0.93 1.47,1.47 0 0 0 1.26,0 1.2,1.2 0 0 0 0.35,-0.25 H 25.8 a 2.49,2.49 0 0 1 -1,-0.14 1.8,1.8 0 0 1 -0.99,-0.95 z"
             id="path4794"
             style="stroke-width:0.94951" />
          <path
             class="cls-1"
             d="m 23.81,15.66 a 1.49,1.49 0 0 0 0.9,1.16 1.93,1.93 0 0 0 1.49,-0.1"
             id="path4796"
             style="stroke-width:0.94951" />
          <path
             class="cls-30"
             d="m 23.31,18.75 a 0.54,0.54 0 0 0 0.18,0.33 1.37,1.37 0 0 0 1.07,0.36 1.31,1.31 0 0 0 1,-0.65 1.19,1.19 0 0 0 0.15,-0.37 l -0.32,0.21 A 2.35,2.35 0 0 1 24.55,19 1.71,1.71 0 0 1 23.31,18.75 Z"
             id="path4798"
             style="stroke-width:0.94951" />
          <path
             class="cls-1"
             d="m 23.31,18.75 a 1.33,1.33 0 0 0 1.25,0.46 1.72,1.72 0 0 0 1.11,-0.79"
             id="path4800"
             style="stroke-width:0.94951" />
          <path
             class="cls-30"
             d="m 24,21.2 c 0,0 0,0.13 0.25,0.28 a 1.34,1.34 0 0 0 1.12,0.12 1.29,1.29 0 0 0 0.8,-0.83 1.16,1.16 0 0 0 0.07,-0.39 l -0.27,0.27 A 2.46,2.46 0 0 1 25.22,21.19 1.74,1.74 0 0 1 24,21.2 Z"
             id="path4802"
             style="stroke-width:0.94951" />
          <path
             class="cls-1"
             d="m 24,21.2 a 1.36,1.36 0 0 0 1.32,0.19 1.79,1.79 0 0 0 0.92,-1"
             id="path4804"
             style="stroke-width:0.94951" />
        </g>
        <path
           class="cls-42"
           d="m 27.87,12.4 a 3,3 0 0 0 0,-1.71 c -0.23,-0.54 -0.51,-0.83 -1,-0.88 A 1.31,1.31 0 0 0 26.51,9.71 1.55,1.55 0 0 1 25,8.13 c 0.06,0.4 0.72,0.72 1.29,0.66 a 1.61,1.61 0 0 0 1.14,-0.56 c 0.24,-0.27 1.36,0.47 1.28,1.92 a 3.74,3.74 0 0 1 -0.84,2.25 z"
           id="path4808"
           style="fill:url(#linear-gradient-31);stroke-width:0.94951" />
        <path
           class="cls-43"
           d="m 29.18,12.34 c 0.29,-1.43 0.55,-2.71 -0.91,-4.07 -0.93,-0.87 -1.37,0 -2.23,0 a 0.86,0.86 0 0 1 -0.91,-0.68 1.5,1.5 0 0 1 1.44,-1 3.87,3.87 0 0 1 2.68,1.19 3.59,3.59 0 0 1 0.88,2.78 5.86,5.86 0 0 1 -1.84,3.83 6.37,6.37 0 0 0 0.89,-2.05 z"
           id="path4810"
           style="fill:url(#linear-gradient-32);stroke-width:0.94951" />
        <g
           class="cls-9"
           id="g4814"
           style="stroke-width:0.94951">
          <path
             class="cls-44"
             d="m 26.78,13.41 c -0.49,1.29 -2.15,2.28 -2.85,3.94 a 7,7 0 0 0 -0.29,4 c -0.82,-1.86 -1.31,-4.1 0.13,-6.27 a 19.23,19.23 0 0 1 2,-2.49 c 0.91,-1 1.21,-1.36 1.26,-2.22 0,0 0,-0.07 0,-0.1 a 6.34,6.34 0 0 1 -0.25,3.14 z"
             id="path4812"
             style="fill:url(#linear-gradient-33);stroke-width:0.94951" />
        </g>
        <path
           class="cls-25"
           d="M 21.56,25 A 1.55,1.55 0 0 1 20.05,23.74 C 19.84,22.7 19,19.18 16.3,19 c -0.62,-0.05 -1.07,0.94 -1.69,2.33 a 14.78,14.78 0 0 1 -1,2 3.5,3.5 0 0 1 -2.91,1.49 v 0 a 3,3 0 0 1 -2.56,-1.28 1.543219,1.543219 0 0 1 2.5,-1.81 c 0.2,0.17 0.36,0 0.43,-0.12 a 12.7,12.7 0 0 0 0.77,-1.53 c 0.76,-1.72 1.94,-4.32 4.7,-4.15 3.3,0.2 5.77,2.92 6.59,7.26 a 1.55,1.55 0 0 1 -1.27,1.81 1.53,1.53 0 0 1 -0.3,0 z"
           id="path4816" />
        <path
           class="cls-45"
           d="M 21.56,25 A 1.55,1.55 0 0 1 20.05,23.74 C 19.84,22.7 19,19.18 16.3,19 c -0.62,-0.05 -1.07,0.94 -1.69,2.33 a 14.78,14.78 0 0 1 -1,2 3.5,3.5 0 0 1 -2.91,1.49 v 0 a 3,3 0 0 1 -2.56,-1.28 1.543219,1.543219 0 0 1 2.5,-1.81 c 0.2,0.17 0.36,0 0.43,-0.12 a 12.7,12.7 0 0 0 0.77,-1.53 c 0.76,-1.72 1.94,-4.32 4.7,-4.15 3.3,0.2 5.77,2.92 6.59,7.26 a 1.55,1.55 0 0 1 -1.27,1.81 1.53,1.53 0 0 1 -0.3,0 z"
           id="path4818"
           style="fill:url(#linear-gradient-34);stroke-width:0.94951" />
        <g
           class="cls-29"
           id="g4856"
           style="stroke-width:0.94951">
          <path
             class="cls-30"
             d="m 22.23,20.94 a 3.06,3.06 0 0 1 -1.07,0.86 2.44,2.44 0 0 1 -1,0.18 1.13,1.13 0 0 1 -0.38,-0.09 0.59,0.59 0 0 0 0.3,0.31 1.48,1.48 0 0 0 1.25,0 1.58,1.58 0 0 0 0.81,-0.88 1.06,1.06 0 0 0 0.09,-0.38 z"
             id="path4820"
             style="stroke-width:0.94951" />
          <path
             class="cls-1"
             d="m 22.23,20.94 a 1.87,1.87 0 0 1 -1,1.07 1.36,1.36 0 0 1 -1.43,-0.12"
             id="path4822"
             style="stroke-width:0.94951" />
          <path
             class="cls-30"
             d="m 9,23.93 a 0.91,0.91 0 0 0 0.35,0.1 1.36,1.36 0 0 0 1.11,-0.31 1.3,1.3 0 0 0 0.39,-1.1 0.94,0.94 0 0 0 -0.11,-0.39 3.09,3.09 0 0 1 -0.59,1.17 1.91,1.91 0 0 1 -0.81,0.42 z"
             id="path4824"
             style="stroke-width:0.94951" />
          <path
             class="cls-1"
             d="m 9,23.93 a 1.74,1.74 0 0 0 1.32,-0.39 1.65,1.65 0 0 0 0.42,-1.31"
             id="path4826"
             style="stroke-width:0.94951" />
          <path
             class="cls-30"
             d="M 12.1,24.06 A 1.2,1.2 0 0 0 12.16,22.88 1.61,1.61 0 0 0 11.59,22.17 1.13,1.13 0 0 0 11.3,22 a 2,2 0 0 0 0.11,0.3 c 0.07,0.18 0.19,0.43 0.34,0.74 a 5.2,5.2 0 0 1 0.35,1.02 z"
             id="path4828"
             style="stroke-width:0.94951" />
          <path
             class="cls-1"
             d="m 12.1,24.06 a 2.41,2.41 0 0 0 -0.8,-2"
             id="path4830"
             style="stroke-width:0.94951" />
          <path
             class="cls-30"
             d="M 13.83,22.32 A 1,1 0 0 0 13.74,21.98 2.15,2.15 0 0 0 13.11,21.11 1.22,1.22 0 0 0 12,21 1,1 0 0 0 11.66,21.19 h 0.37 a 2.06,2.06 0 0 1 0.85,0.26 c 0.32,0.25 0.56,0.48 0.73,0.63 z"
             id="path4832"
             style="stroke-width:0.94951" />
          <path
             class="cls-1"
             d="M 13.83,22.32 A 3.43,3.43 0 0 0 13,21.27 1.59,1.59 0 0 0 11.67,21.16"
             id="path4834"
             style="stroke-width:0.94951" />
          <path
             class="cls-30"
             d="m 14.82,20.17 a 1,1 0 0 0 -0.1,-0.36 1.63,1.63 0 0 0 -0.81,-0.82 1.36,1.36 0 0 0 -1.19,0.11 1.2,1.2 0 0 0 -0.32,0.24 h 0.39 a 2.38,2.38 0 0 1 1,0.08 4.11,4.11 0 0 1 1.03,0.75 z"
             id="path4836"
             style="stroke-width:0.94951" />
          <path
             class="cls-1"
             d="m 14.82,20.17 a 2.09,2.09 0 0 0 -1,-1 2,2 0 0 0 -1.4,0.16"
             id="path4838"
             style="stroke-width:0.94951" />
          <path
             class="cls-30"
             d="m 14.12,17.11 a 2.58,2.58 0 0 1 1.16,0.57 1.92,1.92 0 0 1 0.43,0.82 l 0.09,0.38 a 1,1 0 0 0 0.14,-0.39 1.21,1.21 0 0 0 -0.36,-1.13 1.43,1.43 0 0 0 -1.1,-0.36 1,1 0 0 0 -0.36,0.11 z"
             id="path4840"
             style="stroke-width:0.94951" />
          <path
             class="cls-1"
             d="m 14.12,17.11 a 1.66,1.66 0 0 1 1.33,0.43 1.51,1.51 0 0 1 0.35,1.34"
             id="path4842"
             style="stroke-width:0.94951" />
          <path
             class="cls-30"
             d="m 17.21,16.33 a 2.54,2.54 0 0 1 0.11,0.32 2.36,2.36 0 0 1 0.07,0.9 3.89,3.89 0 0 1 -0.24,0.91 l -0.14,0.35 a 1,1 0 0 0 0.33,-0.21 1.5,1.5 0 0 0 0.49,-1 1.41,1.41 0 0 0 -0.33,-1.05 0.7,0.7 0 0 0 -0.29,-0.22 z"
             id="path4844"
             style="stroke-width:0.94951" />
          <path
             class="cls-1"
             d="m 17.21,16.33 a 1.8,1.8 0 0 1 -0.2,2.48"
             id="path4846"
             style="stroke-width:0.94951" />
          <path
             class="cls-30"
             d="M 19.4,17.28 A 1.67,1.67 0 0 1 19,18.42 4.3,4.3 0 0 1 18.32,19.1 l -0.29,0.24 a 1,1 0 0 0 0.39,0 1.59,1.59 0 0 0 0.93,-0.62 1.26,1.26 0 0 0 0.23,-1.1 0.59,0.59 0 0 0 -0.18,-0.34 z"
             id="path4848"
             style="stroke-width:0.94951" />
          <path
             class="cls-1"
             d="m 19.4,17.28 a 1.27,1.27 0 0 1 -0.23,1.29 2.26,2.26 0 0 1 -1.13,0.77"
             id="path4850"
             style="stroke-width:0.94951" />
          <path
             class="cls-30"
             d="m 18.93,20.44 a 0.77,0.77 0 0 0 0.39,0.14 2,2 0 0 0 1.23,-0.22 1.2,1.2 0 0 0 0.72,-1.12 0.73,0.73 0 0 0 -0.15,-0.43 1.37,1.37 0 0 1 -0.77,1.19 3.3,3.3 0 0 1 -1.42,0.44 z"
             id="path4852"
             style="stroke-width:0.94951" />
          <path
             class="cls-1"
             d="m 18.93,20.44 a 2.28,2.28 0 0 0 1.55,-0.29 1.17,1.17 0 0 0 0.64,-1.34"
             id="path4854"
             style="stroke-width:0.94951" />
        </g>
        <path
           class="cls-46"
           d="M 19.35,21.53 A 3.8,3.8 0 0 0 16.3,19 c -0.62,-0.05 -1.07,0.95 -1.69,2.33 a 14.2,14.2 0 0 1 -1,2 3.52,3.52 0 0 1 -2.92,1.49 v 0 a 3.08,3.08 0 0 1 -2.39,-1.05 2.91,2.91 0 0 0 3,0.52 c 2,-0.73 2.7,-2.42 3.18,-3.89 0.48,-1.47 1.46,-2.38 2.89,-1.81 1.43,0.57 1.92,2.68 1.98,2.94 z"
           id="path4858"
           style="fill:url(#linear-gradient-35);stroke-width:0.94951" />
        <path
           class="cls-47"
           d="m 23.09,23.19 c -0.84,-4.35 -3.3,-7.06 -6.61,-7.25 -2.75,-0.18 -3.92,2.42 -4.69,4.14 A 12.92,12.92 0 0 1 11,21.62 c -0.07,0.07 -0.23,0.27 -0.43,0.11 A 1.55,1.55 0 0 0 8.5,21.4 c -0.55,0.48 -0.39,1.56 0.62,2.1 a 2.91,2.91 0 0 0 3.12,-0.19 3.52,3.52 0 0 0 1.09,-1.64 21.3,21.3 0 0 1 0.77,-2.62 3.57,3.57 0 0 1 0.9,-1.05 3.3,3.3 0 0 1 3.16,-0.61 7.44,7.44 0 0 1 4.34,5.12 c 0.11,0.89 0.38,1.06 0.61,1 a 1.43,1.43 0 0 0 -0.02,-0.32 z"
           id="path4860"
           style="fill:url(#linearGradient4990);stroke-width:0.94951" />
      </g>
      <path
         class="cls-48"
         d="M 27.42,35.4 A 9.85,9.85 0 0 1 23.1,34.05 c -0.5,-0.25 -1,-0.51 -1.56,-0.73 A 2.08,2.08 0 0 0 19,34 a 1.55,1.55 0 0 1 -2.28,-2.09 5.17,5.17 0 0 1 6,-1.45 c 0.62,0.26 1.21,0.55 1.77,0.82 2.41,1.21 3.51,1.72 5.43,-0.59 a 1.55,1.55 0 0 1 2.4,1.95 c -1.7,2.09 -3.32,2.76 -4.9,2.76 z"
         id="path4864" />
      <path
         class="cls-49"
         d="M 27.42,35.4 A 9.85,9.85 0 0 1 23.1,34.05 c -0.5,-0.25 -1,-0.51 -1.56,-0.73 A 2.08,2.08 0 0 0 19,34 a 1.55,1.55 0 0 1 -2.28,-2.09 5.17,5.17 0 0 1 6,-1.45 c 0.62,0.26 1.21,0.55 1.77,0.82 2.41,1.21 3.51,1.72 5.43,-0.59 a 1.55,1.55 0 0 1 2.4,1.95 c -1.7,2.09 -3.32,2.76 -4.9,2.76 z"
         id="path4866"
         style="fill:url(#linear-gradient-37);stroke-width:0.94951" />
      <path
         class="cls-50"
         d="m 31.65,33.09 a 5.73,5.73 0 0 1 -3.7,2 6.71,6.71 0 0 1 -3.39,-0.8 6.18,6.18 0 0 0 4,0.3 4.7,4.7 0 0 0 2.59,-1.77 c 0.24,-0.35 1,-0.83 1,-0.52 a 1.25,1.25 0 0 1 -0.5,0.79 z"
         id="path4868"
         style="fill:url(#linear-gradient-38);stroke-width:0.94951" />
      <path
         class="cls-51"
         d="m 18.81,33.55 c -0.8,0.61 -1.14,0.65 -1.18,0.43 -0.04,-0.22 0.19,-0.93 1.74,-1.58 a 2.52,2.52 0 0 1 3.1,0.87 3.26,3.26 0 0 0 -3.66,0.28 z"
         id="path4870"
         style="fill:url(#linear-gradient-39);stroke-width:0.94951" />
      <path
         class="cls-52"
         d="m 32.61,32.09 c 0,-0.51 -0.44,-0.79 -1,-0.77 -0.56,0.02 -1.06,0.89 -2,1.89 -0.94,1 -2.81,1 -4.66,0 -1.85,-1 -3.51,-2.08 -5.54,-1.52 -2.03,0.56 -2.82,1.89 -2.6,2.44 h -0.06 a 1.54,1.54 0 0 1 -0.09,-2.18 5.17,5.17 0 0 1 6,-1.45 c 0.63,0.26 1.2,0.55 1.77,0.83 2.42,1.2 3.52,1.75 5.44,-0.6 a 1.54,1.54 0 0 1 2.17,-0.22 1.52,1.52 0 0 1 0.57,1.58 z"
         id="path4872"
         style="fill:url(#linear-gradient-40);stroke-width:0.94951" />
      <g
         class="cls-29"
         id="g4910"
         style="stroke-width:0.94951">
        <path
           class="cls-30"
           d="m 17.22,31.76 a 0.8,0.8 0 0 0 -0.25,0.33 1.23,1.23 0 0 0 0.23,1.23 1.64,1.64 0 0 0 1.11,0.61 1.25,1.25 0 0 0 0.44,0 3.88,3.88 0 0 1 -1.21,-0.93 1.46,1.46 0 0 1 -0.37,-0.91 1.2,1.2 0 0 1 0.05,-0.33 z"
           id="path4874"
           style="stroke-width:0.94951" />
        <path
           class="cls-1"
           d="m 17.22,31.76 a 1.21,1.21 0 0 0 0.17,1.45 2.16,2.16 0 0 0 1.36,0.69"
           id="path4876"
           style="stroke-width:0.94951" />
        <path
           class="cls-30"
           d="m 19,30.59 a 0.85,0.85 0 0 0 -0.32,0.25 1.24,1.24 0 0 0 -0.08,1.25 1.6,1.6 0 0 0 0.93,0.86 1.2,1.2 0 0 0 0.43,0.09 4.42,4.42 0 0 1 -1,-1.13 1.51,1.51 0 0 1 -0.14,-1 1.25,1.25 0 0 1 0.18,-0.32 z"
           id="path4878"
           style="stroke-width:0.94951" />
        <path
           class="cls-1"
           d="M 19,30.59 A 1.19,1.19 0 0 0 18.8,32 2.17,2.17 0 0 0 19.94,33"
           id="path4880"
           style="stroke-width:0.94951" />
        <path
           class="cls-30"
           d="m 21.17,30.26 a 0.72,0.72 0 0 0 -0.4,0.09 1.25,1.25 0 0 0 -0.58,1.11 1.62,1.62 0 0 0 0.49,1.17 1.11,1.11 0 0 0 0.36,0.25 3.85,3.85 0 0 1 -0.41,-1.42 1.46,1.46 0 0 1 0.27,-0.94 1.11,1.11 0 0 1 0.27,-0.26 z"
           id="path4882"
           style="stroke-width:0.94951" />
        <path
           class="cls-1"
           d="M 21.17,30.26 A 1.18,1.18 0 0 0 20.41,31.49 2.09,2.09 0 0 0 21,32.88"
           id="path4884"
           style="stroke-width:0.94951" />
        <path
           class="cls-30"
           d="m 23.07,30.94 a 0.79,0.79 0 0 0 -0.41,0 1.22,1.22 0 0 0 -0.81,1 1.59,1.59 0 0 0 0.23,1.24 1.29,1.29 0 0 0 0.29,0.33 3.93,3.93 0 0 1 -0.09,-1.51 1.39,1.39 0 0 1 0.47,-0.86 1.18,1.18 0 0 1 0.32,-0.2 z"
           id="path4886"
           style="stroke-width:0.94951" />
        <path
           class="cls-1"
           d="m 23.07,30.94 a 1.2,1.2 0 0 0 -1,1 2.1,2.1 0 0 0 0.31,1.5"
           id="path4888"
           style="stroke-width:0.94951" />
        <path
           class="cls-30"
           d="m 25,31.86 a 0.74,0.74 0 0 0 -0.41,-0.07 1.24,1.24 0 0 0 -1,0.78 1.61,1.61 0 0 0 0,1.27 1.23,1.23 0 0 0 0.22,0.38 4.13,4.13 0 0 1 0.2,-1.47 1.43,1.43 0 0 1 0.63,-0.76 1.21,1.21 0 0 1 0.36,-0.13 z"
           id="path4890"
           style="stroke-width:0.94951" />
        <path
           class="cls-1"
           d="m 25,31.86 a 1.2,1.2 0 0 0 -1.2,0.83 2.18,2.18 0 0 0 0,1.53"
           id="path4892"
           style="stroke-width:0.94951" />
        <path
           class="cls-30"
           d="m 26.64,32.46 a 0.66,0.66 0 0 0 -0.41,-0.05 1.22,1.22 0 0 0 -0.93,0.84 1.57,1.57 0 0 0 0.06,1.26 1.36,1.36 0 0 0 0.25,0.37 4.1,4.1 0 0 1 0.11,-1.48 1.39,1.39 0 0 1 0.58,-0.79 0.94,0.94 0 0 1 0.34,-0.15 z"
           id="path4894"
           style="stroke-width:0.94951" />
        <path
           class="cls-1"
           d="m 26.64,32.46 a 1.18,1.18 0 0 0 -1.14,0.89 2.13,2.13 0 0 0 0.11,1.53"
           id="path4896"
           style="stroke-width:0.94951" />
        <path
           class="cls-30"
           d="m 27.81,32.56 a 0.72,0.72 0 0 0 -0.38,0.17 1.25,1.25 0 0 0 -0.36,1.2 1.64,1.64 0 0 0 0.72,1 1,1 0 0 0 0.4,0.18 3.91,3.91 0 0 1 -0.68,-1.32 1.45,1.45 0 0 1 0.08,-1 1.2,1.2 0 0 1 0.22,-0.23 z"
           id="path4898"
           style="stroke-width:0.94951" />
        <path
           class="cls-1"
           d="m 27.81,32.56 a 1.18,1.18 0 0 0 -0.51,1.36 2.14,2.14 0 0 0 0.89,1.24"
           id="path4900"
           style="stroke-width:0.94951" />
        <path
           class="cls-30"
           d="m 29,32 a 0.61,0.61 0 0 0 -0.26,0.31 1.22,1.22 0 0 0 0.2,1.24 1.63,1.63 0 0 0 1.1,0.63 1,1 0 0 0 0.43,0 A 4.37,4.37 0 0 1 29.29,33.29 1.4,1.4 0 0 1 28.94,32.37 0.93,0.93 0 0 1 29,32 Z"
           id="path4902"
           style="stroke-width:0.94951" />
        <path
           class="cls-1"
           d="m 29,32 a 1.18,1.18 0 0 0 0.13,1.44 2.21,2.21 0 0 0 1.34,0.73"
           id="path4904"
           style="stroke-width:0.94951" />
        <path
           class="cls-30"
           d="m 30.05,30.92 a 0.85,0.85 0 0 0 -0.15,0.41 1.33,1.33 0 0 0 0.5,1.24 1.47,1.47 0 0 0 1.77,-0.09 h -0.45 a 1.7,1.7 0 0 1 -1,-0.27 1.54,1.54 0 0 1 -0.56,-0.9 1.9,1.9 0 0 1 -0.11,-0.39 z"
           id="path4906"
           style="stroke-width:0.94951" />
        <path
           class="cls-1"
           d="m 30.05,30.92 a 1.42,1.42 0 0 0 0.51,1.5 1.7,1.7 0 0 0 1.61,0.06"
           id="path4908"
           style="stroke-width:0.94951" />
      </g>
      <path
         class="cls-53"
         d="m 35.14,17.83 c 0,2.38 -4.51,4.3 -10.08,4.3 A 17.16,17.16 0 0 1 17,20.4"
         id="path4912"
         style="stroke:url(#linear-gradient-41)" />
    </g>
  </g>
</svg>
