<?xml version="1.0" encoding="UTF-8" standalone="no"?>
<svg
   xmlns:dc="http://purl.org/dc/elements/1.1/"
   xmlns:cc="http://creativecommons.org/ns#"
   xmlns:rdf="http://www.w3.org/1999/02/22-rdf-syntax-ns#"
   xmlns:svg="http://www.w3.org/2000/svg"
   xmlns="http://www.w3.org/2000/svg"
   xmlns:xlink="http://www.w3.org/1999/xlink"
   xmlns:sodipodi="http://sodipodi.sourceforge.net/DTD/sodipodi-0.dtd"
   xmlns:inkscape="http://www.inkscape.org/namespaces/inkscape"
   viewBox="0 0 48 48"
   version="1.1"
   id="svg22241"
   sodipodi:docname="7-Albedo.svg"
   inkscape:version="1.0.1 (3bc2e813f5, 2020-09-07)">
  <metadata
     id="metadata22245">
    <rdf:RDF>
      <cc:Work
         rdf:about="">
        <dc:format>image/svg+xml</dc:format>
        <dc:type
           rdf:resource="http://purl.org/dc/dcmitype/StillImage" />
      </cc:Work>
    </rdf:RDF>
  </metadata>
  <sodipodi:namedview
     pagecolor="#ffffff"
     bordercolor="#666666"
     borderopacity="1"
     objecttolerance="10"
     gridtolerance="10"
     guidetolerance="10"
     inkscape:pageopacity="0"
     inkscape:pageshadow="2"
     inkscape:window-width="2560"
     inkscape:window-height="1377"
     id="namedview22243"
     showgrid="false"
     inkscape:zoom="15.3125"
     inkscape:cx="24"
     inkscape:cy="24"
     inkscape:window-x="-8"
     inkscape:window-y="-8"
     inkscape:window-maximized="1"
     inkscape:current-layer="svg22241" />
  <defs
     id="defs22126">
    <style
       id="style22059">.cls-1,.cls-11,.cls-12,.cls-17,.cls-20,.cls-24,.cls-29,.cls-38,.cls-42,.cls-48{fill:none;}.cls-10,.cls-2,.cls-44,.cls-45,.cls-46,.cls-9{opacity:0.62;}.cls-2{fill:url(#linear-gradient);}.cls-3{fill:#d0d0d0;}.cls-4{fill:url(#radial-gradient);}.cls-5{fill:url(#linear-gradient-2);}.cls-6{fill:#fce94f;}.cls-7{fill:url(#linear-gradient-3);}.cls-8{fill:#edd400;}.cls-9{fill:url(#linear-gradient-4);}.cls-10{fill:url(#linear-gradient-5);}.cls-11{stroke:#fce94f;}.cls-11,.cls-12,.cls-17,.cls-20,.cls-29{stroke-miterlimit:10;}.cls-11,.cls-24,.cls-48{stroke-width:0.35px;}.cls-12,.cls-48{stroke:#c4a000;}.cls-12{stroke-width:0.7px;}.cls-13{fill:url(#linear-gradient-6);}.cls-14{fill:#c4a000;}.cls-15{clip-path:url(#clip-path);}.cls-16{fill:url(#New_Gradient_Swatch_2);}.cls-17,.cls-42{stroke:#204a87;stroke-width:0.38px;}.cls-18{fill:url(#New_Gradient_Swatch_2-2);}.cls-19{fill:url(#linear-gradient-7);}.cls-20{stroke:#888a85;stroke-width:0.1px;}.cls-21{fill:#204a87;}.cls-22{fill:url(#linear-gradient-8);}.cls-23,.cls-32{opacity:0.74;}.cls-23{fill:url(#linear-gradient-9);}.cls-24,.cls-38{stroke:#729fcf;}.cls-24,.cls-38,.cls-42,.cls-48{stroke-linecap:round;stroke-linejoin:round;}.cls-25{fill:url(#linear-gradient-10);}.cls-26{fill:url(#linear-gradient-11);}.cls-27{fill:url(#linear-gradient-12);}.cls-28{fill:url(#linear-gradient-13);}.cls-29{stroke:#3465a4;}.cls-29,.cls-38{stroke-width:0.35px;}.cls-30{fill:url(#linear-gradient-14);}.cls-31{fill:url(#linear-gradient-15);}.cls-32{fill:url(#linear-gradient-16);}.cls-33{fill:url(#linear-gradient-17);}.cls-34{fill:url(#linear-gradient-18);}.cls-35{fill:url(#linear-gradient-19);}.cls-36{fill:url(#linear-gradient-20);}.cls-37{fill:#d0dfef;}.cls-39{fill:url(#linear-gradient-21);}.cls-40{fill:url(#New_Gradient_Swatch_2-3);}.cls-41{fill:url(#linear-gradient-22);}.cls-43{clip-path:url(#clip-path-2);}.cls-44{fill:url(#linear-gradient-24);}.cls-45{fill:url(#linear-gradient-25);}.cls-46{fill:url(#linear-gradient-26);}.cls-47{fill:#fff;}</style>
    <linearGradient
       id="linear-gradient"
       x1="35.46"
       y1="36.69"
       x2="19.66"
       y2="18.31"
       gradientUnits="userSpaceOnUse">
      <stop
         offset="0"
         stop-color="#fff"
         stop-opacity="0"
         id="stop22061" />
      <stop
         offset="1"
         stop-color="snow"
         id="stop22063" />
    </linearGradient>
    <radialGradient
       id="radial-gradient"
       cx="55.18"
       cy="99.9"
       r="17.72"
       gradientTransform="matrix(0,1.19,-0.54,0,77.79,-28.07)"
       gradientUnits="userSpaceOnUse">
      <stop
         offset="0.03"
         stop-color="#2c2c2c"
         stop-opacity="0.5"
         id="stop22066" />
      <stop
         offset="0.68"
         stop-color="#2c2c2c"
         stop-opacity="0.1"
         id="stop22068" />
      <stop
         offset="0.93"
         stop-color="#2c2c2c"
         stop-opacity="0"
         id="stop22070" />
    </radialGradient>
    <linearGradient
       id="linear-gradient-2"
       x1="39.46"
       y1="38.9"
       x2="27.78"
       y2="27.8"
       gradientUnits="userSpaceOnUse">
      <stop
         offset="0"
         stop-color="#fce94f"
         id="stop22073" />
      <stop
         offset="1"
         stop-color="#c4a000"
         id="stop22075" />
    </linearGradient>
    <linearGradient
       id="linear-gradient-3"
       x1="22.85"
       y1="27.88"
       x2="11.24"
       y2="-9.61"
       xlink:href="#linear-gradient-2" />
    <linearGradient
       id="linear-gradient-4"
       x1="18.5"
       y1="18.85"
       x2="29.78"
       y2="37.04"
       xlink:href="#linear-gradient" />
    <linearGradient
       id="linear-gradient-5"
       x1="27.28"
       y1="17.07"
       x2="21.83"
       y2="6.08"
       xlink:href="#linear-gradient" />
    <linearGradient
       id="linear-gradient-6"
       x1="20.79"
       y1="22.4"
       x2="10.82"
       y2="4.31"
       gradientUnits="userSpaceOnUse">
      <stop
         offset="0"
         stop-color="#8ae234"
         id="stop22081" />
      <stop
         offset="1"
         stop-color="#4e9a06"
         id="stop22083" />
    </linearGradient>
    <clipPath
       id="clip-path">
      <polygon
         class="cls-1"
         points="12.96 7.43 12.96 34.34 30.24 41.24 30.24 13.4 12.96 7.43"
         id="polygon22086" />
    </clipPath>
    <linearGradient
       id="New_Gradient_Swatch_2"
       x1="16.02"
       y1="29.71"
       x2="22.63"
       y2="29.71"
       gradientUnits="userSpaceOnUse">
      <stop
         offset="0"
         stop-color="#729fcf"
         id="stop22089" />
      <stop
         offset="1"
         stop-color="#3465a4"
         id="stop22091" />
    </linearGradient>
    <linearGradient
       id="New_Gradient_Swatch_2-2"
       x1="20.44"
       y1="11.61"
       x2="24.65"
       y2="28.38"
       xlink:href="#New_Gradient_Swatch_2" />
    <linearGradient
       id="linear-gradient-7"
       x1="19.82"
       y1="33.2"
       x2="21.84"
       y2="28.57"
       gradientUnits="userSpaceOnUse">
      <stop
         offset="0"
         stop-color="#b2cbe5"
         id="stop22095" />
      <stop
         offset="1"
         stop-color="#3465a4"
         id="stop22097" />
    </linearGradient>
    <linearGradient
       id="linear-gradient-8"
       x1="15.24"
       y1="28.19"
       x2="12.29"
       y2="39.41"
       gradientUnits="userSpaceOnUse">
      <stop
         offset="0"
         stop-color="#00255d"
         stop-opacity="0"
         id="stop22100" />
      <stop
         offset="1"
         stop-color="#00255d"
         id="stop22102" />
    </linearGradient>
    <linearGradient
       id="linear-gradient-9"
       x1="14.75"
       y1="26.95"
       x2="14.93"
       y2="30.29"
       xlink:href="#linear-gradient-7" />
    <linearGradient
       id="linear-gradient-10"
       x1="16.02"
       y1="29.69"
       x2="18.31"
       y2="29.69"
       xlink:href="#linear-gradient-7" />
    <linearGradient
       id="linear-gradient-11"
       x1="17.95"
       y1="30.06"
       x2="20.71"
       y2="30.21"
       xlink:href="#linear-gradient-7" />
    <linearGradient
       id="linear-gradient-12"
       x1="18.71"
       y1="26.8"
       x2="24.56"
       y2="26.8"
       gradientTransform="matrix(1,-0.03,0.02,1.01,-0.49,0.29)"
       xlink:href="#linear-gradient-7" />
    <linearGradient
       id="linear-gradient-13"
       x1="25.38"
       y1="31.36"
       x2="22.15"
       y2="26.24"
       xlink:href="#linear-gradient-7" />
    <linearGradient
       id="linear-gradient-14"
       x1="19.76"
       y1="33.17"
       x2="19.49"
       y2="29.89"
       xlink:href="#linear-gradient-7" />
    <linearGradient
       id="linear-gradient-15"
       x1="27.82"
       y1="31.5"
       x2="24.87"
       y2="42.71"
       xlink:href="#linear-gradient-8" />
    <linearGradient
       id="linear-gradient-16"
       x1="32.38"
       y1="29.24"
       x2="29.05"
       y2="35.72"
       xlink:href="#linear-gradient-7" />
    <linearGradient
       id="linear-gradient-17"
       x1="21.2"
       y1="30.7"
       x2="30.01"
       y2="30.46"
       xlink:href="#linear-gradient-7" />
    <linearGradient
       id="linear-gradient-18"
       x1="17.19"
       y1="20.63"
       x2="26.47"
       y2="20.63"
       gradientTransform="matrix(0.99,0.14,-0.06,1,1.37,-2.58)"
       xlink:href="#linear-gradient-7" />
    <linearGradient
       id="linear-gradient-19"
       x1="15.19"
       y1="24.12"
       x2="17.97"
       y2="18.66"
       gradientTransform="matrix(0.99,0.14,-0.06,1,1.37,-2.58)"
       xlink:href="#linear-gradient-7" />
    <linearGradient
       id="linear-gradient-20"
       x1="17.66"
       y1="26.03"
       x2="22.04"
       y2="17.42"
       gradientTransform="matrix(0.99,0.14,-0.06,1,1.37,-2.58)"
       xlink:href="#linear-gradient-7" />
    <linearGradient
       id="linear-gradient-21"
       x1="17.86"
       y1="24.24"
       x2="17.61"
       y2="23.1"
       gradientTransform="matrix(0.99,0.14,-0.06,1,1.37,-2.58)"
       xlink:href="#linear-gradient-7" />
    <linearGradient
       id="New_Gradient_Swatch_2-3"
       x1="20.4"
       y1="11.62"
       x2="24.61"
       y2="28.39"
       xlink:href="#New_Gradient_Swatch_2" />
    <linearGradient
       id="linear-gradient-22"
       x1="25.64"
       y1="14.4"
       x2="21.68"
       y2="41.51"
       xlink:href="#linear-gradient-8" />
    <clipPath
       id="clip-path-2">
      <polygon
         class="cls-2"
         points="30.24 13.4 30.24 41.24 21.61 37.79 21.61 10.38 30.24 13.4"
         id="polygon22120" />
    </clipPath>
    <linearGradient
       id="linear-gradient-24"
       x1="28.58"
       y1="29.5"
       x2="25.22"
       y2="25.8"
       xlink:href="#linear-gradient" />
    <linearGradient
       id="linear-gradient-25"
       x1="26.9"
       y1="21.62"
       x2="24.86"
       y2="10.09"
       xlink:href="#linear-gradient" />
    <linearGradient
       id="linear-gradient-26"
       x1="30.28"
       y1="42"
       x2="23.68"
       y2="26.03"
       xlink:href="#linear-gradient" />
    <linearGradient
       inkscape:collect="always"
       xlink:href="#linear-gradient-2"
       id="linearGradient22808"
       gradientUnits="userSpaceOnUse"
       x1="39.46"
       y1="38.9"
       x2="27.78"
       y2="27.8" />
    <linearGradient
       inkscape:collect="always"
       xlink:href="#New_Gradient_Swatch_2"
       id="linearGradient22810"
       gradientUnits="userSpaceOnUse"
       x1="16.02"
       y1="29.71"
       x2="22.63"
       y2="29.71" />
    <linearGradient
       inkscape:collect="always"
       xlink:href="#linear-gradient-7"
       id="linearGradient22812"
       gradientUnits="userSpaceOnUse"
       x1="19.82"
       y1="33.2"
       x2="21.84"
       y2="28.57" />
    <linearGradient
       inkscape:collect="always"
       xlink:href="#linear-gradient-8"
       id="linearGradient22814"
       gradientUnits="userSpaceOnUse"
       x1="15.24"
       y1="28.19"
       x2="12.29"
       y2="39.41" />
    <linearGradient
       inkscape:collect="always"
       xlink:href="#linear-gradient"
       id="linearGradient22816"
       gradientUnits="userSpaceOnUse"
       x1="35.46"
       y1="36.69"
       x2="19.66"
       y2="18.31" />
  </defs>
  <title
     id="title22128">7-Albedo</title>
  <g
     id="shadow"
     transform="translate(1.3714286,0.84897959)">
    <ellipse
       class="cls-4"
       cx="24.030001"
       cy="37.369999"
       rx="9.1999998"
       ry="20.190001"
       transform="rotate(-80.47,24.03065,37.36775)"
       id="ellipse22133"
       style="fill:url(#radial-gradient)" />
  </g>
  <polygon
     class="cls-5"
     points="14.29,4.23 11.6,5.53 11.6,35.28 31.61,43.24 34.3,41.95 34.3,11.14 "
     id="polygon22136"
     style="fill:url(#linearGradient22808);stroke-width:0.853367"
     transform="matrix(1.1718293,0,0,1.1718293,-0.75756987,-4.0342953)" />
  <polygon
     class="cls-6"
     points="11.6,5.53 31.59,12.44 31.59,43.24 11.6,35.26 "
     id="polygon22138"
     transform="matrix(1.1718293,0,0,1.1718293,-0.75756987,-4.0342953)"
     style="stroke-width:0.853367" />
  <polygon
     class="cls-7"
     points="11.6,5.53 31.59,12.44 31.59,43.24 11.6,35.26 "
     id="polygon22140"
     style="fill:url(#linear-gradient-3);stroke-width:0.853367"
     transform="matrix(1.1718293,0,0,1.1718293,-0.75756987,-4.0342953)" />
  <polygon
     class="cls-8"
     points="31.61,43.24 11.6,35.28 31.61,12.43 "
     id="polygon22142"
     transform="matrix(1.1718293,0,0,1.1718293,-0.75756987,-4.0342953)"
     style="stroke-width:0.853367" />
  <polygon
     class="cls-9"
     points="31.61,43.24 11.6,35.28 31.61,12.43 "
     id="polygon22144"
     style="fill:url(#linear-gradient-4);stroke-width:0.853367"
     transform="matrix(1.1718293,0,0,1.1718293,-0.75756987,-4.0342953)" />
  <polygon
     class="cls-8"
     points="14.29,4.23 11.6,5.53 31.61,12.44 34.3,11.14 "
     id="polygon22146"
     transform="matrix(1.1718293,0,0,1.1718293,-0.75756987,-4.0342953)"
     style="stroke-width:0.853367" />
  <polygon
     class="cls-10"
     points="14.29,4.23 11.6,5.53 31.61,12.44 34.3,11.14 "
     id="polygon22148"
     style="fill:url(#linear-gradient-5);stroke-width:0.853367"
     transform="matrix(1.1718293,0,0,1.1718293,-0.75756987,-4.0342953)" />
  <line
     class="cls-11"
     x1="34.596523"
     y1="11.363542"
     x2="39.436176"
     y2="9.0198832"
     id="line22150" />
  <polygon
     class="cls-12"
     points="14.29,4.23 11.6,5.53 11.6,35.28 31.61,43.24 34.3,41.95 34.3,11.14 "
     id="polygon22152"
     transform="matrix(1.1718293,0,0,1.1718293,-0.75756987,-4.0342953)" />
  <polygon
     class="cls-13"
     points="30.24,41.24 30.24,13.4 12.96,7.43 12.96,34.34 "
     id="polygon22154"
     style="fill:url(#linear-gradient-6);stroke-width:0.853367"
     transform="matrix(1.1718293,0,0,1.1718293,-0.75756987,-4.0342953)" />
  <path
     class="cls-14"
     d="M 14.839478,5.2465921 34.268409,11.961174 V 43.682593 L 14.839478,35.925083 V 5.2465921 M 14.476211,4.6723957 V 36.206322 l 20.249211,8.085622 V 11.668217 Z"
     id="path22156"
     style="stroke-width:1" />
  <g
     class="cls-15"
     clip-path="url(#clip-path)"
     id="g22220"
     transform="matrix(1.1718293,0,0,1.1718293,-0.75756987,-4.0342953)"
     style="stroke-width:0.853367">
    <path
       class="cls-16"
       d="m 18.52,26 a 2.75,2.75 0 0 1 -0.94,2.1 5.31,5.31 0 0 0 -1.39,1.75 3.4,3.4 0 0 0 -0.12,1.69 1.13,1.13 0 0 0 0.15,0.47 1.08,1.08 0 0 0 0.44,0.36 9.37,9.37 0 0 0 4.92,1 0.94,0.94 0 0 0 0.57,-0.15 1.1,1.1 0 0 0 0.27,-0.54 14.2,14.2 0 0 0 -0.25,-5.77 2.26,2.26 0 0 0 -0.16,-0.58 c 0,0 -0.05,0.06 0,0.08"
       id="path22158"
       style="fill:url(#linearGradient22810);stroke-width:0.853367" />
    <path
       class="cls-17"
       d="m 18.52,26 a 2.75,2.75 0 0 1 -0.94,2.1 5.31,5.31 0 0 0 -1.39,1.75 3.4,3.4 0 0 0 -0.12,1.69 1.13,1.13 0 0 0 0.15,0.47 1.08,1.08 0 0 0 0.44,0.36 9.37,9.37 0 0 0 4.92,1 0.94,0.94 0 0 0 0.57,-0.15 1.1,1.1 0 0 0 0.27,-0.54 14.2,14.2 0 0 0 -0.25,-5.77 2.26,2.26 0 0 0 -0.16,-0.58 c 0,0 -0.05,0.06 0,0.08"
       id="path22160" />
    <path
       class="cls-18"
       d="m 23.32,24.71 c 0,-0.62 0.05,-1.24 0.08,-1.86 a 2,2 0 0 0 -0.22,-1.46 2.52,2.52 0 0 0 -0.41,-0.45 4.76,4.76 0 0 0 -2.69,-1 11.72,11.72 0 0 1 -2.79,-0.47 1.53,1.53 0 0 1 -0.88,-0.7 1.5,1.5 0 0 1 -0.12,-0.72 4.27,4.27 0 0 1 1.07,-2.69 4.36,4.36 0 0 1 2.4,-1.36 4.69,4.69 0 0 1 3.92,1 10.57,10.57 0 0 1 0.82,0.82 c 0.85,0.93 1.71,1.72 1.86,3 a 12.36,12.36 0 0 0 0.2,1.82 14.62,14.62 0 0 0 1.44,2.64 7.57,7.57 0 0 1 0.78,3.34 8,8 0 0 0 0.3,2.71 c 0.57,1.48 2.14,2.45 2.65,4 a 3.35,3.35 0 0 1 -0.08,2.34 5.48,5.48 0 0 1 -1.24,1.78 2.64,2.64 0 0 1 -0.86,0.66 A 2.78,2.78 0 0 1 27.68,37.98 7.94,7.94 0 0 1 25.8,37 3.73,3.73 0 0 1 24.45,35.59 4.49,4.49 0 0 1 24.11,34.2 59.93,59.93 0 0 1 23.32,24.71 Z"
       id="path22162"
       style="fill:url(#New_Gradient_Swatch_2-2);stroke-width:0.853367" />
    <path
       class="cls-17"
       d="m 23.32,24.71 c 0,-0.62 0.05,-1.24 0.08,-1.86 a 2,2 0 0 0 -0.22,-1.46 2.52,2.52 0 0 0 -0.41,-0.45 4.76,4.76 0 0 0 -2.69,-1 11.72,11.72 0 0 1 -2.79,-0.47 1.53,1.53 0 0 1 -0.88,-0.7 1.5,1.5 0 0 1 -0.12,-0.72 3.76,3.76 0 0 1 0.88,-2.56 c 2.59,-2.85 7.15,-0.78 8.73,2.06 0.51,0.92 0.39,2 0.65,3 a 12.62,12.62 0 0 0 1.45,2.73 7.57,7.57 0 0 1 0.78,3.34 8,8 0 0 0 0.3,2.71 c 0.59,1.51 2.13,2.41 2.65,4 a 3.35,3.35 0 0 1 -0.08,2.34 5.48,5.48 0 0 1 -1.24,1.78 2.64,2.64 0 0 1 -0.86,0.66 A 2.78,2.78 0 0 1 27.68,37.98 7.94,7.94 0 0 1 25.8,37 3.73,3.73 0 0 1 24.45,35.59 4.49,4.49 0 0 1 24.11,34.2 59.93,59.93 0 0 1 23.32,24.71 Z"
       id="path22164" />
    <path
       class="cls-19"
       d="m 15.7,30.77 a 9.28,9.28 0 0 1 2.64,-1.48 l 4.19,0.56 2.56,3.15 -3.34,5.34 -5.9,-2.77 z"
       id="path22166"
       style="fill:url(#linearGradient22812);stroke-width:0.853367" />
    <path
       class="cls-20"
       d="m 25.41,29.31 a 8.29,8.29 0 0 0 -1.84,-0.88 c -0.87,-0.26 0.06,2.15 0.06,2.15 0,0 1.47,-0.27 1.78,-1.27 z"
       id="path22168" />
    <path
       class="cls-21"
       d="M 18,29.26 A 39,39 0 0 0 16,37.2 L 10.88,33 c 0,0 1.07,-3.69 2.79,-4.3 1.72,-0.61 3.09,0.28 4.51,-0.22"
       id="path22170"
       style="stroke-width:0.853367" />
    <path
       class="cls-22"
       d="M 18,29.26 A 39,39 0 0 0 16,37.2 L 10.88,33 c 0,0 1.07,-3.69 2.79,-4.3 1.72,-0.61 3.09,0.28 4.51,-0.22"
       id="path22172"
       style="fill:url(#linearGradient22814);stroke-width:0.853367" />
    <path
       class="cls-23"
       d="m 18.18,28.44 -0.21,0.82 c 0,0 -0.21,0.55 -0.48,1.43 a 26.69,26.69 0 0 1 -3.39,-0.29 3.1,3.1 0 0 0 -2.48,0.67 4.6,4.6 0 0 1 2.05,-2.42 c 1.72,-0.6 3.09,0.29 4.51,-0.21 z"
       id="path22174"
       style="fill:url(#linear-gradient-9);stroke-width:0.853367" />
    <path
       class="cls-24"
       d="M 18,29.26 A 39,39 0 0 0 16,37.2 L 10.88,33 c 0,0 1.07,-3.69 2.79,-4.3 1.72,-0.61 3.09,0.28 4.51,-0.22"
       id="path22176" />
    <path
       class="cls-25"
       d="m 17,28.73 c -0.49,0 -1,1.91 -1,1.91 A 7.85,7.85 0 0 1 18.2,30 c 0.4,0.12 -0.37,-1.29 -1.2,-1.27 z"
       id="path22178"
       style="fill:url(#linear-gradient-10);stroke-width:0.853367" />
    <path
       class="cls-26"
       d="m 18.35,32.5 a 18.25,18.25 0 0 0 -0.78,-3.05 3.43,3.43 0 0 0 -0.54,-0.72 13.09,13.09 0 0 1 2.52,-1 c 0.29,0.1 0.32,3 0.32,3 z"
       id="path22180"
       style="fill:url(#linear-gradient-11);stroke-width:0.853367" />
    <path
       class="cls-27"
       d="M 19.31,30.81 A 15,15 0 0 0 19.2,25.32 l 3.85,-3.53 1.34,0.41 a 29.66,29.66 0 0 0 0.28,7.88 33.58,33.58 0 0 0 -4.2,0.43 2.89,2.89 0 0 0 -1.61,1.25 c 0,0 0.26,0.02 0.45,-0.95 z"
       id="path22182"
       style="fill:url(#linear-gradient-12);stroke-width:0.853367" />
    <path
       class="cls-28"
       d="m 19.54,27.11 a 9.42,9.42 0 0 1 3.73,2.65 c 0.6,1.08 0.52,-5.93 0.52,-5.93 L 22.29,23.32 20,25.83 Z"
       id="path22184"
       style="fill:url(#linear-gradient-13);stroke-width:0.853367" />
    <path
       class="cls-29"
       d="M 19.31,30.81 A 15,15 0 0 0 19.2,25.32 l 3.85,-3.53 1.34,0.41 a 29.66,29.66 0 0 0 0.28,7.88 33.58,33.58 0 0 0 -4.2,0.43 2.89,2.89 0 0 0 -1.61,1.25 c 0,0 0.26,0.02 0.45,-0.95 z"
       id="path22186" />
    <path
       class="cls-30"
       d="m 19.8,30 a 1.46,1.46 0 0 0 -0.9,0.82 14.68,14.68 0 0 0 -0.62,1.9 6.47,6.47 0 0 1 1.65,-1.5 c 0.6,-0.22 1.09,-0.35 1.09,-0.35 A 2.7,2.7 0 0 0 19.8,30 Z"
       id="path22188"
       style="fill:url(#linear-gradient-14);stroke-width:0.853367" />
    <path
       class="cls-21"
       d="m 18.29,38.22 a 47.46,47.46 0 0 1 3.17,-5.45 20.34,20.34 0 0 1 3.92,-3.35 c 0,0 0.16,1.43 2.48,2.49 2.32,1.06 4.34,1.94 5.1,3.95 0.76,2.01 0.07,5.33 0.07,5.33 0,0 -0.09,0.48 -2.06,0.87 C 29,42.45 18.29,38.22 18.29,38.22 Z"
       id="path22190"
       style="stroke-width:0.853367" />
    <path
       class="cls-31"
       d="m 18.29,38.22 a 47.46,47.46 0 0 1 3.17,-5.45 20.34,20.34 0 0 1 3.92,-3.35 c 0,0 0.16,1.43 2.48,2.49 2.32,1.06 4.34,1.94 5.1,3.95 0.76,2.01 0.07,5.33 0.07,5.33 0,0 -0.09,0.48 -2.06,0.87 C 29,42.45 18.29,38.22 18.29,38.22 Z"
       id="path22192"
       style="fill:url(#linear-gradient-15);stroke-width:0.853367" />
    <path
       class="cls-32"
       d="m 33,41.19 c 0,0 -0.09,0.48 -2.06,0.87 a 2.64,2.64 0 0 1 -0.74,0 c 0.19,-1.66 0.38,-4.75 -0.57,-6.35 a 8.86,8.86 0 0 0 -2.28,-2.34 19.76,19.76 0 0 0 -3,-1.84 l 1.61,-0.9 a 4.94,4.94 0 0 0 0.65,0.59 6.35,6.35 0 0 0 1.19,0.69 c 2.32,1.08 4.34,2 5.11,4 0.77,2 0.09,5.28 0.09,5.28 z"
       id="path22194"
       style="fill:url(#linear-gradient-16);stroke-width:0.853367" />
    <path
       class="cls-24"
       d="m 18.29,38.22 a 47.46,47.46 0 0 1 3.17,-5.45 20.34,20.34 0 0 1 3.92,-3.35 c 0,0 0.16,1.43 2.48,2.49 2.32,1.06 4.34,1.94 5.1,3.95 0.76,2.01 0.07,5.33 0.07,5.33 0,0 -0.09,0.48 -2.06,0.87 C 29,42.45 18.29,38.22 18.29,38.22 Z"
       id="path22196" />
    <path
       class="cls-33"
       d="m 19.8,30 a 32.86,32.86 0 0 0 4.88,-2 l 0.55,1.85 a 1.83,1.83 0 0 1 -0.46,1 28.94,28.94 0 0 1 -3.29,2.5 16.13,16.13 0 0 0 -1.3,-2.82 A 2.18,2.18 0 0 0 19.8,30 Z"
       id="path22198"
       style="fill:url(#linear-gradient-17);stroke-width:0.853367" />
    <path
       class="cls-34"
       d="m 24,23.8 c -0.2,0.33 -0.57,0.46 -0.84,0.72 a 8.55,8.55 0 0 0 -0.77,1 3.68,3.68 0 0 1 -1.72,1.21 3.08,3.08 0 0 1 -2.22,0.05 c -0.46,-0.15 -0.64,-0.46 -0.86,-1 -0.15,-0.35 -0.31,-0.7 -0.47,-1 a 7.54,7.54 0 0 1 -0.72,-1.86 5,5 0 0 1 0,-1.09 6,6 0 0 0 0.14,-1.28 5.72,5.72 0 0 0 -0.17,-0.59 5.79,5.79 0 0 1 0.63,-3.18 3.1,3.1 0 0 1 1.7,-1.68 4.63,4.63 0 0 1 6,2.29 4.36,4.36 0 0 1 0.39,2.51 7.33,7.33 0 0 1 -1.09,3.9 z"
       id="path22200"
       style="fill:url(#linear-gradient-18);stroke-width:0.853367" />
    <path
       class="cls-35"
       d="m 17.35,21.79 c 0,0 -0.17,0.11 -0.53,-0.07 a 0.84,0.84 0 0 1 -0.36,-0.58 1.94,1.94 0 0 0 0,-0.64 c 0,-0.18 -0.13,-0.4 -0.17,-0.59 a 1,1 0 0 1 0,-0.25 v 0 a 1.15,1.15 0 0 0 0.3,0.22 c 0.19,0.1 0.81,0.42 0.92,0.9 a 1.15,1.15 0 0 1 -0.16,1.01 z"
       id="path22202"
       style="fill:url(#linear-gradient-19);stroke-width:0.853367" />
    <path
       class="cls-29"
       d="m 23.65,23.64 a 8.06,8.06 0 0 1 -1.21,1.9 4.77,4.77 0 0 1 -1.78,1.19 3.08,3.08 0 0 1 -2.22,0.05 c -0.46,-0.15 -0.64,-0.46 -0.86,-1 -0.15,-0.35 -0.31,-0.7 -0.47,-1 a 7.54,7.54 0 0 1 -0.72,-1.86 5,5 0 0 1 0,-1.09 6,6 0 0 0 0.14,-1.28 5.72,5.72 0 0 0 -0.17,-0.59 5.79,5.79 0 0 1 0.64,-3.18 3.1,3.1 0 0 1 1.7,-1.68 4.63,4.63 0 0 1 6,2.29 3.36,3.36 0 0 1 0.37,1.61 8.13,8.13 0 0 1 -0.41,1.82 23,23 0 0 1 -1,2.71 z"
       id="path22204" />
    <path
       class="cls-36"
       d="m 20.7,20.68 c -0.82,0 -1.1,0 -1.47,0 -0.37,0 -0.82,0.42 -0.48,1.13 a 1.76,1.76 0 0 0 2,0.55 C 21.86,22.09 21.8,21.21 21.53,21 A 0.92,0.92 0 0 0 20.7,20.68 Z"
       id="path22206"
       style="fill:url(#linear-gradient-20);stroke-width:0.853367" />
    <path
       class="cls-37"
       d="m 20,24.3 c -0.66,1 -1.62,1 -2,0.75 A 2.51,2.51 0 0 1 17.4,24.18 4.47,4.47 0 0 0 20,24.3 Z"
       id="path22208"
       style="stroke-width:0.853367" />
    <path
       class="cls-38"
       d="m 20,24.3 c -0.66,1 -1.62,1 -2,0.75 A 2.51,2.51 0 0 1 17.4,24.18 4.47,4.47 0 0 0 20,24.3 Z"
       id="path22210" />
    <path
       class="cls-39"
       d="m 18,23.39 a 0.77,0.77 0 0 0 -0.17,-0.07 1.26,1.26 0 0 1 -0.55,-0.17 0.6,0.6 0 0 1 -0.3,-0.4 c 0,0 -0.11,0.1 0,0.35 a 1.2,1.2 0 0 0 0.57,0.53 c 0.14,0.08 0.48,-0.11 0.6,-0.13 C 18.27,23.48 18,23.39 18,23.39 Z"
       id="path22212"
       style="fill:url(#linear-gradient-21);stroke-width:0.853367" />
    <path
       class="cls-40"
       d="m 29.06,31 -0.1,-0.21 a 6.38,6.38 0 0 1 -0.71,-2.37 15.77,15.77 0 0 0 -0.33,-2.47 16.81,16.81 0 0 0 -1.75,-4.66 5.27,5.27 0 0 1 -0.48,-2.07 5.46,5.46 0 0 0 -2.37,-3.89 5.28,5.28 0 0 0 -3.52,-1 4.4,4.4 0 0 0 -1.77,0.74 2.49,2.49 0 0 0 -1.14,1.34 3,3 0 0 0 0.25,1.59 3.74,3.74 0 0 0 1.27,1.67 8.06,8.06 0 0 0 3.74,1.33 3.49,3.49 0 0 1 1.06,2 c 0.29,1.79 -0.48,3.7 -0.44,5.52 a 4.46,4.46 0 0 0 1.44,3.13 c 1.27,1.16 2.72,0.91 4.27,0.75 a 4.31,4.31 0 0 1 2.2,0.58 A 6.52,6.52 0 0 1 29.06,31 Z"
       id="path22214"
       style="fill:url(#New_Gradient_Swatch_2-3);stroke-width:0.853367" />
    <path
       class="cls-41"
       d="m 30.29,32.83 a 3.9,3.9 0 0 0 -1.81,-0.39 c -1.55,0.16 -3,0.4 -4.27,-0.75 a 4.46,4.46 0 0 1 -1.44,-3.13 c 0,-1.82 0.73,-3.73 0.44,-5.52 A 3.43,3.43 0 0 0 22.15,21 8.09,8.09 0 0 1 18.41,19.71 3.42,3.42 0 0 1 17.69,19.01 c -0.05,-1.24 0.7,-3.46 2.85,-3.17 2.36,0.32 3.79,1.37 4.34,2.84 0.55,1.47 0.19,2.45 1.66,4.65 1.47,2.2 0.38,3.82 0.95,5.64 0.4,1.22 1.97,2.64 2.8,3.86 z"
       id="path22216"
       style="fill:url(#linear-gradient-22);stroke-width:0.853367" />
    <path
       class="cls-42"
       d="m 16.83,15.94 a 5,5 0 0 0 0.31,2.06 3.74,3.74 0 0 0 1.27,1.67 8.06,8.06 0 0 0 3.74,1.33 3.49,3.49 0 0 1 1.06,2 c 0.29,1.79 -0.48,3.7 -0.44,5.52 a 4.46,4.46 0 0 0 1.44,3.13 c 1.27,1.16 2.72,0.91 4.27,0.75 a 4.17,4.17 0 0 1 2.33,0.53 10.22,10.22 0 0 1 1,0.69"
       id="path22218" />
  </g>
  <polygon
     class="cls-2"
     points="21.61,37.79 21.61,10.38 30.24,13.4 30.24,41.24 "
     id="polygon22222"
     style="fill:url(#linearGradient22816);stroke-width:0.853367"
     transform="matrix(1.1718293,0,0,1.1718293,-0.75756987,-4.0342953)" />
  <g
     class="cls-43"
     clip-path="url(#clip-path-2)"
     id="g22230"
     transform="matrix(1.1718293,0,0,1.1718293,-0.75756987,-4.0342953)"
     style="stroke-width:0.853367">
    <path
       class="cls-44"
       d="m 19.92,31.07 c 0.84,-2.7 3.67,-5.53 6.7,-7.08 3.03,-1.55 3.38,-9.2 3.38,-9.2 0,0 2,1.22 1.81,5.79 -0.12,2.86 0,6.14 -2.25,8.25 a 17.08,17.08 0 0 1 -3.82,2.43 c -2.11,1.1 -5.33,3 -4.93,5.92 z"
       id="path22224"
       style="fill:url(#linear-gradient-24);stroke-width:0.853367" />
    <path
       class="cls-45"
       d="m 19.36,14.83 c 1.12,-3.6 5.2,-8.18 8.89,-9.28 a 2.15,2.15 0 0 1 1.94,0.29 2.43,2.43 0 0 1 0.57,0.81 5.55,5.55 0 0 1 0,4.2 12.78,12.78 0 0 1 -2.27,3.64 9.82,9.82 0 0 1 -2.11,2.06 C 25.56,17.1 24.61,17.42 23.74,17.9 21.85,19 21.06,21 20.48,23 A 23.26,23.26 0 0 0 19.84,18.37 C 19.7,17.5 19.11,15.65 19.36,14.83 Z"
       id="path22226"
       style="fill:url(#linear-gradient-25);stroke-width:0.853367" />
    <path
       class="cls-46"
       d="m 21.09,39.53 c -0.56,-1.34 0.19,-2.85 1,-4.05 A 5.54,5.54 0 0 1 26.27,33 c 3.71,-0.32 6,-5.84 6,-5.84 v 5.18 c 0,2.62 0.12,5.75 -1,8.16 a 1.88,1.88 0 0 1 -0.6,0.81 2.15,2.15 0 0 1 -1.2,0.25 14,14 0 0 1 -3,-0.37 c -0.79,-0.19 -1.72,-0.41 -2.32,0.14 -0.11,0.1 -0.22,0.24 -0.37,0.26 a 0.56,0.56 0 0 1 -0.31,-0.06 4.79,4.79 0 0 1 -1.92,-1.27 3.06,3.06 0 0 1 -0.46,-0.73 z"
       id="path22228"
       style="fill:url(#linear-gradient-26);stroke-width:0.853367" />
  </g>
  <path
     class="cls-14"
     d="M 14.839478,5.2465921 34.268409,11.961174 V 43.682593 L 14.839478,35.925083 V 5.2465921 M 14.476211,4.6723957 V 36.206322 l 20.249211,8.085622 V 11.668217 Z"
     id="path22232"
     style="stroke-width:1" />
  <path
     class="cls-47"
     d="m 38.662769,20.492091 a 10.007422,10.007422 0 0 1 0.902308,-3.327995 4.2654587,4.2654587 0 0 1 2.343659,-1.476505 4.2185855,4.2185855 0 0 1 -2.343659,-1.464787 10.007422,10.007422 0 0 1 -0.902308,-3.327995 10.183197,10.183197 0 0 1 -0.89059,3.327995 4.2303038,4.2303038 0 0 1 -2.343659,1.464787 4.2771769,4.2771769 0 0 1 2.343659,1.476505 10.183197,10.183197 0 0 1 0.89059,3.327995 z"
     id="path22234"
     style="stroke-width:1" />
  <path
     class="cls-48"
     d="m 38.662769,20.492091 a 10.007422,10.007422 0 0 1 0.902308,-3.327995 4.2654587,4.2654587 0 0 1 2.343659,-1.476505 4.2185855,4.2185855 0 0 1 -2.343659,-1.464787 10.007422,10.007422 0 0 1 -0.902308,-3.327995 10.183197,10.183197 0 0 1 -0.89059,3.327995 4.2303038,4.2303038 0 0 1 -2.343659,1.464787 4.2771769,4.2771769 0 0 1 2.343659,1.476505 10.183197,10.183197 0 0 1 0.89059,3.327995 z"
     id="path22236"
     style="fill:#ffffff" />
  <path
     class="cls-48"
     d="M 43.11572,13.250186 A 13.487755,13.487755 0 0 1 44.28755,8.844108 5.5779075,5.5779075 0 0 1 47.416334,6.8871531 5.5779075,5.5779075 0 0 1 44.28755,4.9301981 13.487755,13.487755 0 0 1 43.11572,0.52412056 13.18308,13.18308 0 0 1 41.943891,4.9301981 a 5.5779075,5.5779075 0 0 1 -3.128784,1.956955 5.5779075,5.5779075 0 0 1 3.105347,1.9686732 13.18308,13.18308 0 0 1 1.195266,4.3943597 z"
     id="path22238"
     style="fill:#ffffff" />
</svg>
