<?xml version="1.0" encoding="UTF-8" standalone="no"?>
<svg
   viewBox="0 0 48 48"
   version="1.1"
   id="svg42"
   sodipodi:docname="conductor.svg"
   inkscape:version="1.3-dev (fdc7329b, 2022-05-31)"
   xmlns:inkscape="http://www.inkscape.org/namespaces/inkscape"
   xmlns:sodipodi="http://sodipodi.sourceforge.net/DTD/sodipodi-0.dtd"
   xmlns:xlink="http://www.w3.org/1999/xlink"
   xmlns="http://www.w3.org/2000/svg"
   xmlns:svg="http://www.w3.org/2000/svg">
  <sodipodi:namedview
     id="namedview42"
     pagecolor="#ffffff"
     bordercolor="#666666"
     borderopacity="1.0"
     inkscape:showpageshadow="2"
     inkscape:pageopacity="0.0"
     inkscape:pagecheckerboard="0"
     inkscape:deskcolor="#d1d1d1"
     showgrid="false"
     inkscape:zoom="19.666667"
     inkscape:cx="22.245763"
     inkscape:cy="24"
     inkscape:window-width="2880"
     inkscape:window-height="1557"
     inkscape:window-x="-8"
     inkscape:window-y="-8"
     inkscape:window-maximized="1"
     inkscape:current-layer="svg42" />
  <defs
     id="defs11">
    <linearGradient
       inkscape:collect="always"
       id="linearGradient43">
      <stop
         style="stop-color:#000000;stop-opacity:1;"
         offset="0"
         id="stop42" />
      <stop
         style="stop-color:#000000;stop-opacity:0;"
         offset="1"
         id="stop43" />
    </linearGradient>
    <radialGradient
       id="radial-gradient"
       cx="-486.15"
       cy="84.51"
       fx="-486.15"
       fy="84.51"
       r="11.64"
       gradientTransform="translate(182.45 1011.47) rotate(85.66) scale(2.07 .99) skewX(7.06)"
       gradientUnits="userSpaceOnUse">
      <stop
         offset=".36"
         stop-color="#212121"
         stop-opacity=".4"
         id="stop1" />
      <stop
         offset=".97"
         stop-color="#212121"
         stop-opacity="0"
         id="stop2" />
    </radialGradient>
    <linearGradient
       id="linear-gradient"
       x1="11.21"
       y1="38.12"
       x2="25.8"
       y2="18.89"
       gradientTransform="matrix(1, 0, 0, 1, 0, 0)"
       gradientUnits="userSpaceOnUse">
      <stop
         offset=".04"
         stop-color="#b58900"
         id="stop3" />
      <stop
         offset=".39"
         stop-color="#ddb303"
         id="stop4" />
      <stop
         offset="1"
         stop-color="#e5cc00"
         id="stop5" />
    </linearGradient>
    <linearGradient
       id="linear-gradient-2"
       x1="10.45"
       y1="27.41"
       x2="8.63"
       y2="30.82"
       gradientTransform="matrix(1, 0, 0, 1, 0, 0)"
       gradientUnits="userSpaceOnUse">
      <stop
         offset="0"
         stop-color="#fcf7cf"
         id="stop6" />
      <stop
         offset="1"
         stop-color="#e5cc00"
         id="stop7" />
    </linearGradient>
    <linearGradient
       id="linear-gradient-3"
       x1="13.67"
       y1="31.15"
       x2="16.08"
       y2="18.51"
       gradientTransform="matrix(1, 0, 0, 1, 0, 0)"
       gradientUnits="userSpaceOnUse">
      <stop
         offset="0"
         stop-color="#fcf7cf"
         id="stop8" />
      <stop
         offset="1"
         stop-color="#f4e14f"
         id="stop9" />
    </linearGradient>
    <linearGradient
       id="linear-gradient-4"
       x1="15.4"
       y1="25.25"
       x2="16.75"
       y2="18.14"
       xlink:href="#linear-gradient-2" />
    <linearGradient
       id="linear-gradient-5"
       x1="15.64"
       y1="23.64"
       x2="18"
       y2="14.62"
       xlink:href="#linear-gradient-2" />
    <linearGradient
       id="linear-gradient-6"
       x1="11.45"
       y1="27.82"
       x2="24.75"
       y2="27.82"
       gradientTransform="matrix(1, 0, 0, 1, 0, 0)"
       gradientUnits="userSpaceOnUse">
      <stop
         offset="0"
         stop-color="#fcf7cf"
         id="stop10" />
      <stop
         offset=".87"
         stop-color="#bc9800"
         id="stop11" />
    </linearGradient>
    <linearGradient
       id="linear-gradient-7"
       x1="19.65"
       y1="42.55"
       x2="34.24"
       y2="23.33"
       xlink:href="#linear-gradient" />
    <linearGradient
       id="linear-gradient-8"
       x1="18.89"
       y1="31.85"
       x2="17.07"
       y2="35.26"
       xlink:href="#linear-gradient-2" />
    <linearGradient
       id="linear-gradient-9"
       x1="22.11"
       y1="35.59"
       x2="24.52"
       y2="22.95"
       xlink:href="#linear-gradient-3" />
    <linearGradient
       id="linear-gradient-10"
       x1="23.84"
       y1="29.69"
       x2="25.19"
       y2="22.58"
       xlink:href="#linear-gradient-2" />
    <linearGradient
       id="linear-gradient-11"
       x1="24.08"
       y1="28.08"
       x2="26.44"
       y2="19.06"
       xlink:href="#linear-gradient-2" />
    <linearGradient
       id="linear-gradient-12"
       x1="19.89"
       y1="32.26"
       x2="33.19"
       y2="32.26"
       xlink:href="#linear-gradient-6" />
    <linearGradient
       id="linear-gradient-13"
       x1="28.1"
       y1="46.99"
       x2="42.68"
       y2="27.76"
       xlink:href="#linear-gradient" />
    <linearGradient
       id="linear-gradient-14"
       x1="27.33"
       y1="36.29"
       x2="25.51"
       y2="39.7"
       xlink:href="#linear-gradient-2" />
    <linearGradient
       id="linear-gradient-15"
       x1="30.55"
       y1="40.03"
       x2="32.96"
       y2="27.38"
       xlink:href="#linear-gradient-3" />
    <linearGradient
       id="linear-gradient-16"
       x1="32.28"
       y1="34.13"
       x2="33.64"
       y2="27.01"
       xlink:href="#linear-gradient-2" />
    <linearGradient
       id="linear-gradient-17"
       x1="32.53"
       y1="32.52"
       x2="34.88"
       y2="23.5"
       xlink:href="#linear-gradient-2" />
    <linearGradient
       id="linear-gradient-18"
       x1="28.33"
       y1="36.69"
       x2="41.63"
       y2="36.69"
       xlink:href="#linear-gradient-6" />
    <linearGradient
       id="linear-gradient-19"
       x1="15.43"
       y1="33.77"
       x2="30.02"
       y2="14.54"
       xlink:href="#linear-gradient" />
    <linearGradient
       id="linear-gradient-20"
       x1="14.67"
       y1="23.06"
       x2="12.85"
       y2="26.47"
       xlink:href="#linear-gradient-2" />
    <linearGradient
       id="linear-gradient-21"
       x1="17.89"
       y1="26.8"
       x2="20.3"
       y2="14.16"
       xlink:href="#linear-gradient-3" />
    <linearGradient
       id="linear-gradient-22"
       x1="19.62"
       y1="20.9"
       x2="20.97"
       y2="13.79"
       xlink:href="#linear-gradient-2" />
    <linearGradient
       id="linear-gradient-23"
       x1="19.86"
       y1="19.29"
       x2="22.22"
       y2="10.27"
       xlink:href="#linear-gradient-2" />
    <linearGradient
       id="linear-gradient-24"
       x1="15.67"
       y1="23.47"
       x2="28.97"
       y2="23.47"
       xlink:href="#linear-gradient-6" />
    <linearGradient
       id="linear-gradient-25"
       x1="23.87"
       y1="38.2"
       x2="38.46"
       y2="18.97"
       xlink:href="#linear-gradient" />
    <linearGradient
       id="linear-gradient-26"
       x1="23.11"
       y1="27.5"
       x2="21.29"
       y2="30.91"
       xlink:href="#linear-gradient-2" />
    <linearGradient
       id="linear-gradient-27"
       x1="26.33"
       y1="31.24"
       x2="28.74"
       y2="18.6"
       xlink:href="#linear-gradient-3" />
    <linearGradient
       id="linear-gradient-28"
       x1="28.06"
       y1="25.34"
       x2="29.42"
       y2="18.23"
       xlink:href="#linear-gradient-2" />
    <linearGradient
       id="linear-gradient-29"
       x1="28.3"
       y1="23.73"
       x2="30.66"
       y2="14.71"
       xlink:href="#linear-gradient-2" />
    <linearGradient
       id="linear-gradient-30"
       x1="24.11"
       y1="27.91"
       x2="37.41"
       y2="27.91"
       xlink:href="#linear-gradient-6" />
    <linearGradient
       id="linear-gradient-31"
       x1="19.65"
       y1="29.41"
       x2="34.24"
       y2="10.18"
       xlink:href="#linear-gradient" />
    <linearGradient
       id="linear-gradient-32"
       x1="18.89"
       y1="18.71"
       x2="17.07"
       y2="22.12"
       xlink:href="#linear-gradient-2" />
    <linearGradient
       id="linear-gradient-33"
       x1="22.11"
       y1="22.45"
       x2="24.52"
       y2="9.8"
       xlink:href="#linear-gradient-3" />
    <linearGradient
       id="linear-gradient-34"
       x1="23.84"
       y1="16.55"
       x2="25.19"
       y2="9.43"
       xlink:href="#linear-gradient-2" />
    <linearGradient
       id="linear-gradient-35"
       x1="24.08"
       y1="14.94"
       x2="26.44"
       y2="5.92"
       xlink:href="#linear-gradient-2" />
    <linearGradient
       id="linear-gradient-36"
       x1="19.89"
       y1="19.11"
       x2="33.19"
       y2="19.11"
       xlink:href="#linear-gradient-6" />
    <radialGradient
       inkscape:collect="always"
       xlink:href="#linearGradient43"
       id="radialGradient43"
       cx="24.101696"
       cy="32.694916"
       fx="24.101696"
       fy="32.694916"
       r="23.898306"
       gradientTransform="matrix(1,0,0,0.54468081,0.30508475,14.937469)"
       gradientUnits="userSpaceOnUse" />
    <linearGradient
       inkscape:collect="always"
       xlink:href="#linear-gradient"
       id="linearGradient44"
       gradientUnits="userSpaceOnUse"
       x1="11.21"
       y1="38.12"
       x2="25.8"
       y2="18.89" />
    <linearGradient
       inkscape:collect="always"
       xlink:href="#linear-gradient-2"
       id="linearGradient45"
       gradientUnits="userSpaceOnUse"
       x1="10.45"
       y1="27.41"
       x2="8.63"
       y2="30.82" />
    <linearGradient
       inkscape:collect="always"
       xlink:href="#linear-gradient-3"
       id="linearGradient46"
       gradientUnits="userSpaceOnUse"
       x1="13.67"
       y1="31.15"
       x2="16.08"
       y2="18.51" />
    <linearGradient
       inkscape:collect="always"
       xlink:href="#linear-gradient-6"
       id="linearGradient47"
       gradientUnits="userSpaceOnUse"
       x1="11.45"
       y1="27.82"
       x2="24.75"
       y2="27.82" />
  </defs>
  <ellipse
     style="color:#000000;overflow:visible;fill:url(#radialGradient43);fill-opacity:1;stroke-width:1px;stroke-linecap:round;stop-color:#000000"
     id="path42"
     cx="24.40678"
     cy="32.745762"
     rx="23.898306"
     ry="13.016949" />
  <g
     id="ART"
     transform="matrix(1.0884688,0,0,1.0883652,-1.854979,-1.5721481)"
     style="stroke-width:0.918766">
    <g
       id="g42"
       style="stroke-width:0.918766">
      <g
         id="g17"
         style="stroke-width:0.918766">
        <g
           style="opacity:0.6;stroke-width:0.918766"
           id="g13">
          <path
             d="m 23.96,7.99 c 0,0 -3.02,1.07 -3.82,5.11 -0.79,-4.04 -3.82,-5.11 -3.82,-5.11 0,0 3.02,-1.07 3.82,-5.11 0.79,4.04 3.82,5.11 3.82,5.11 z"
             style="fill:#ffffff;stroke-width:0.918766"
             id="path11" />
          <path
             d="m 13.74,12.4 c 0,0 -1.62,0.57 -2.04,2.74 -0.43,-2.16 -2.04,-2.74 -2.04,-2.74 0,0 1.62,-0.57 2.04,-2.74 0.43,2.16 2.04,2.74 2.04,2.74 z"
             style="fill:#ffffff;stroke-width:0.918766"
             id="path12" />
          <path
             d="m 43.49,17.45 c 0,0 -1.96,0.69 -2.48,3.32 -0.52,-2.62 -2.48,-3.32 -2.48,-3.32 0,0 1.96,-0.69 2.48,-3.32 0.52,2.62 2.48,3.32 2.48,3.32 z"
             style="fill:#ffffff;stroke-width:0.918766"
             id="path13" />
        </g>
        <g
           id="g16"
           style="stroke-width:0.918766">
          <path
             d="m 23.96,7.99 c 0,0 -3.02,1.07 -3.82,5.11 -0.79,-4.04 -3.82,-5.11 -3.82,-5.11 0,0 3.02,-1.07 3.82,-5.11 0.79,4.04 3.82,5.11 3.82,5.11 z"
             style="fill:none;stroke:#f4e14f;stroke-width:0.459383px;stroke-miterlimit:10"
             id="path14" />
          <path
             d="m 13.74,12.4 c 0,0 -1.62,0.57 -2.04,2.74 -0.43,-2.16 -2.04,-2.74 -2.04,-2.74 0,0 1.62,-0.57 2.04,-2.74 0.43,2.16 2.04,2.74 2.04,2.74 z"
             style="fill:none;stroke:#f4e14f;stroke-width:0.459383px;stroke-miterlimit:10"
             id="path15" />
          <path
             d="m 43.49,17.45 c 0,0 -1.96,0.69 -2.48,3.32 -0.52,-2.62 -2.48,-3.32 -2.48,-3.32 0,0 1.96,-0.69 2.48,-3.32 0.52,2.62 2.48,3.32 2.48,3.32 z"
             style="fill:none;stroke:#f4e14f;stroke-width:0.459383px;stroke-miterlimit:10"
             id="path16" />
        </g>
      </g>
      <g
         id="g21"
         style="stroke-width:0.918766">
        <polygon
           points="11.7,27.96 12.57,34.41 26.99,26.83 24.5,21.23 "
           style="fill:url(#linearGradient44);stroke-width:0.918766"
           id="polygon17" />
        <polygon
           points="12.57,34.41 11.7,27.96 5.92,24.92 4.13,29.97 "
           style="fill:url(#linearGradient45);stroke-width:0.918766"
           id="polygon18" />
        <g
           id="g20"
           style="stroke-width:0.918766">
          <polygon
             points="11.7,27.96 24.5,21.23 18.72,18.2 5.92,24.92 "
             style="fill:url(#linearGradient46);stroke-width:0.918766"
             id="polygon19" />
          <path
             d="m 24.5,21.24 -6.76,3.55 c -0.93,-0.32 -1.81,-0.82 -2.76,-1.08 -1.28,-0.37 -2.63,-0.3 -3.97,-0.13 -0.31,0.05 -0.62,0.09 -0.93,0.14 -0.94,0.15 -1.88,0.32 -2.82,0.5 L 18.72,18.2 Z"
             style="fill:url(#linear-gradient-4);stroke-width:0.918766"
             id="path19" />
          <path
             d="m 24.5,21.24 -6.76,3.55 c -0.93,-0.32 -1.81,-0.82 -2.76,-1.08 -1.28,-0.37 -2.63,-0.3 -3.97,-0.13 -0.31,0.05 -0.62,0.09 -0.93,0.14 -0.94,0.15 -1.88,0.32 -2.82,0.5 L 18.72,18.2 Z"
             style="fill:url(#linear-gradient-5);stroke-width:0.918766"
             id="path20" />
          <line
             x1="5.9200001"
             y1="24.92"
             x2="11.7"
             y2="27.959999"
             style="fill:none;stroke:#ffffff;stroke-width:0.459383px;stroke-linecap:round;stroke-linejoin:round"
             id="line20" />
          <polyline
             points="24.5 21.23 11.7 27.96 12.57 34.41"
             style="fill:none;stroke:url(#linearGradient47);stroke-width:0.459383px;stroke-linecap:round;stroke-linejoin:round"
             id="polyline20" />
        </g>
        <polygon
           points="18.72,18.2 5.92,24.92 4.13,29.97 12.57,34.41 26.99,26.83 24.5,21.23 "
           style="fill:none;stroke:#bc9800;stroke-width:0.918766;stroke-linecap:round;stroke-linejoin:round"
           id="polygon20" />
      </g>
      <g
         id="g25"
         style="stroke-width:0.918766">
        <polygon
           points="20.14,32.4 21.01,38.84 35.43,31.26 32.94,25.67 "
           style="fill:url(#linear-gradient-7);stroke-width:0.918766"
           id="polygon21" />
        <polygon
           points="21.01,38.84 20.14,32.4 14.36,29.36 12.57,34.41 "
           style="fill:url(#linear-gradient-8);stroke-width:0.918766"
           id="polygon22" />
        <g
           id="g24"
           style="stroke-width:0.918766">
          <polygon
             points="20.14,32.4 32.94,25.67 27.16,22.64 14.36,29.36 "
             style="fill:url(#linear-gradient-9);stroke-width:0.918766"
             id="polygon23" />
          <path
             d="m 32.94,25.68 -6.76,3.55 c -0.93,-0.32 -1.81,-0.82 -2.76,-1.08 -1.28,-0.37 -2.63,-0.3 -3.97,-0.13 -0.31,0.05 -0.62,0.09 -0.93,0.14 -0.94,0.15 -1.88,0.32 -2.82,0.5 l 11.46,-6.02 z"
             style="fill:url(#linear-gradient-10);stroke-width:0.918766"
             id="path23" />
          <path
             d="m 32.94,25.68 -6.76,3.55 c -0.93,-0.32 -1.81,-0.82 -2.76,-1.08 -1.28,-0.37 -2.63,-0.3 -3.97,-0.13 -0.31,0.05 -0.62,0.09 -0.93,0.14 -0.94,0.15 -1.88,0.32 -2.82,0.5 l 11.46,-6.02 z"
             style="fill:url(#linear-gradient-11);stroke-width:0.918766"
             id="path24" />
          <line
             x1="14.36"
             y1="29.360001"
             x2="20.139999"
             y2="32.400002"
             style="fill:none;stroke:#ffffff;stroke-width:0.459383px;stroke-linecap:round;stroke-linejoin:round"
             id="line24" />
          <polyline
             points="32.94 25.67 20.14 32.4 21.01 38.84"
             style="fill:none;stroke:url(#linear-gradient-12);stroke-width:0.459383px;stroke-linecap:round;stroke-linejoin:round"
             id="polyline24" />
        </g>
        <polygon
           points="27.16,22.64 14.36,29.36 12.57,34.41 21.01,38.84 35.43,31.26 32.94,25.67 "
           style="fill:none;stroke:#bc9800;stroke-width:0.918766;stroke-linecap:round;stroke-linejoin:round"
           id="polygon24" />
      </g>
      <g
         id="g29"
         style="stroke-width:0.918766">
        <polygon
           points="28.58,36.84 29.45,43.28 43.87,35.7 41.38,30.11 "
           style="fill:url(#linear-gradient-13);stroke-width:0.918766"
           id="polygon25" />
        <polygon
           points="29.45,43.28 28.58,36.84 22.81,33.8 21.01,38.84 "
           style="fill:url(#linear-gradient-14);stroke-width:0.918766"
           id="polygon26" />
        <g
           id="g28"
           style="stroke-width:0.918766">
          <polygon
             points="28.58,36.84 41.38,30.11 35.6,27.07 22.81,33.8 "
             style="fill:url(#linear-gradient-15);stroke-width:0.918766"
             id="polygon27" />
          <path
             d="m 41.38,30.11 -6.76,3.55 c -0.93,-0.32 -1.81,-0.82 -2.76,-1.08 -1.28,-0.37 -2.63,-0.3 -3.97,-0.13 -0.31,0.05 -0.62,0.09 -0.93,0.14 -0.94,0.15 -1.88,0.32 -2.82,0.5 L 35.6,27.07 Z"
             style="fill:url(#linear-gradient-16);stroke-width:0.918766"
             id="path27" />
          <path
             d="m 41.38,30.11 -6.76,3.55 c -0.93,-0.32 -1.81,-0.82 -2.76,-1.08 -1.28,-0.37 -2.63,-0.3 -3.97,-0.13 -0.31,0.05 -0.62,0.09 -0.93,0.14 -0.94,0.15 -1.88,0.32 -2.82,0.5 L 35.6,27.07 Z"
             style="fill:url(#linear-gradient-17);stroke-width:0.918766"
             id="path28" />
          <line
             x1="22.809999"
             y1="33.799999"
             x2="28.58"
             y2="36.84"
             style="fill:none;stroke:#ffffff;stroke-width:0.459383px;stroke-linecap:round;stroke-linejoin:round"
             id="line28" />
          <polyline
             points="41.38 30.11 28.58 36.84 29.45 43.28"
             style="fill:none;stroke:url(#linear-gradient-18);stroke-width:0.459383px;stroke-linecap:round;stroke-linejoin:round"
             id="polyline28" />
        </g>
        <polygon
           points="35.6,27.07 22.81,33.8 21.01,38.84 29.45,43.28 43.87,35.7 41.38,30.11 "
           style="fill:none;stroke:#bc9800;stroke-width:0.918766;stroke-linecap:round;stroke-linejoin:round"
           id="polygon28" />
      </g>
      <g
         id="g33"
         style="stroke-width:0.918766">
        <polygon
           points="15.92,23.61 16.79,30.05 31.21,22.48 28.72,16.88 "
           style="fill:url(#linear-gradient-19);stroke-width:0.918766"
           id="polygon29" />
        <polygon
           points="16.79,30.05 15.92,23.61 10.14,20.57 8.35,25.62 "
           style="fill:url(#linear-gradient-20);stroke-width:0.918766"
           id="polygon30" />
        <g
           id="g32"
           style="stroke-width:0.918766">
          <polygon
             points="15.92,23.61 28.72,16.88 22.94,13.85 10.14,20.57 "
             style="fill:url(#linear-gradient-21);stroke-width:0.918766"
             id="polygon31" />
          <path
             d="m 28.72,16.89 -6.76,3.55 c -0.93,-0.32 -1.81,-0.82 -2.76,-1.08 -1.28,-0.37 -2.63,-0.3 -3.97,-0.13 -0.31,0.05 -0.62,0.09 -0.93,0.14 -0.94,0.15 -1.88,0.32 -2.82,0.5 l 11.46,-6.02 z"
             style="fill:url(#linear-gradient-22);stroke-width:0.918766"
             id="path31" />
          <path
             d="m 28.72,16.89 -6.76,3.55 c -0.93,-0.32 -1.81,-0.82 -2.76,-1.08 -1.28,-0.37 -2.63,-0.3 -3.97,-0.13 -0.31,0.05 -0.62,0.09 -0.93,0.14 -0.94,0.15 -1.88,0.32 -2.82,0.5 l 11.46,-6.02 z"
             style="fill:url(#linear-gradient-23);stroke-width:0.918766"
             id="path32" />
          <line
             x1="10.14"
             y1="20.57"
             x2="15.92"
             y2="23.610001"
             style="fill:none;stroke:#ffffff;stroke-width:0.459383px;stroke-linecap:round;stroke-linejoin:round"
             id="line32" />
          <polyline
             points="28.72 16.88 15.92 23.61 16.79 30.05"
             style="fill:none;stroke:url(#linear-gradient-24);stroke-width:0.459383px;stroke-linecap:round;stroke-linejoin:round"
             id="polyline32" />
        </g>
        <polygon
           points="22.94,13.85 10.14,20.57 8.35,25.62 16.79,30.05 31.21,22.48 28.72,16.88 "
           style="fill:none;stroke:#bc9800;stroke-width:0.918766;stroke-linecap:round;stroke-linejoin:round"
           id="polygon32" />
      </g>
      <g
         id="g37"
         style="stroke-width:0.918766">
        <polygon
           points="24.36,28.05 25.23,34.49 39.65,26.91 37.16,21.32 "
           style="fill:url(#linear-gradient-25);stroke-width:0.918766"
           id="polygon33" />
        <polygon
           points="25.23,34.49 24.36,28.05 18.58,25.01 16.79,30.05 "
           style="fill:url(#linear-gradient-26);stroke-width:0.918766"
           id="polygon34" />
        <g
           id="g36"
           style="stroke-width:0.918766">
          <polygon
             points="24.36,28.05 37.16,21.32 31.38,18.28 18.58,25.01 "
             style="fill:url(#linear-gradient-27);stroke-width:0.918766"
             id="polygon35" />
          <path
             d="m 37.16,21.33 -6.76,3.55 c -0.93,-0.32 -1.81,-0.82 -2.76,-1.08 -1.28,-0.37 -2.63,-0.3 -3.97,-0.13 -0.31,0.05 -0.62,0.09 -0.93,0.14 -0.94,0.15 -1.88,0.32 -2.82,0.5 l 11.46,-6.02 z"
             style="fill:url(#linear-gradient-28);stroke-width:0.918766"
             id="path35" />
          <path
             d="m 37.16,21.33 -6.76,3.55 c -0.93,-0.32 -1.81,-0.82 -2.76,-1.08 -1.28,-0.37 -2.63,-0.3 -3.97,-0.13 -0.31,0.05 -0.62,0.09 -0.93,0.14 -0.94,0.15 -1.88,0.32 -2.82,0.5 l 11.46,-6.02 z"
             style="fill:url(#linear-gradient-29);stroke-width:0.918766"
             id="path36" />
          <line
             x1="18.58"
             y1="25.01"
             x2="24.360001"
             y2="28.049999"
             style="fill:none;stroke:#ffffff;stroke-width:0.459383px;stroke-linecap:round;stroke-linejoin:round"
             id="line36" />
          <polyline
             points="37.16 21.32 24.36 28.05 25.23 34.49"
             style="fill:none;stroke:url(#linear-gradient-30);stroke-width:0.459383px;stroke-linecap:round;stroke-linejoin:round"
             id="polyline36" />
        </g>
        <polygon
           points="31.38,18.28 18.58,25.01 16.79,30.05 25.23,34.49 39.65,26.91 37.16,21.32 "
           style="fill:none;stroke:#bc9800;stroke-width:0.918766;stroke-linecap:round;stroke-linejoin:round"
           id="polygon36" />
      </g>
      <g
         id="g41"
         style="stroke-width:0.918766">
        <polygon
           points="20.14,19.26 21.01,25.7 35.43,18.12 32.94,12.53 "
           style="fill:url(#linear-gradient-31);stroke-width:0.918766"
           id="polygon37" />
        <polygon
           points="21.01,25.7 20.14,19.26 14.36,16.22 12.57,21.26 "
           style="fill:url(#linear-gradient-32);stroke-width:0.918766"
           id="polygon38" />
        <g
           id="g40"
           style="stroke-width:0.918766">
          <polygon
             points="20.14,19.26 32.94,12.53 27.16,9.49 14.36,16.22 "
             style="fill:url(#linear-gradient-33);stroke-width:0.918766"
             id="polygon39" />
          <path
             d="m 32.94,12.53 -6.76,3.55 C 25.25,15.76 24.37,15.26 23.42,15 c -1.28,-0.37 -2.63,-0.3 -3.97,-0.13 -0.31,0.05 -0.62,0.09 -0.93,0.14 -0.94,0.15 -1.88,0.32 -2.82,0.5 L 27.16,9.49 Z"
             style="fill:url(#linear-gradient-34);stroke-width:0.918766"
             id="path39" />
          <path
             d="m 32.94,12.53 -6.76,3.55 C 25.25,15.76 24.37,15.26 23.42,15 c -1.28,-0.37 -2.63,-0.3 -3.97,-0.13 -0.31,0.05 -0.62,0.09 -0.93,0.14 -0.94,0.15 -1.88,0.32 -2.82,0.5 L 27.16,9.49 Z"
             style="fill:url(#linear-gradient-35);stroke-width:0.918766"
             id="path40" />
          <line
             x1="14.36"
             y1="16.219999"
             x2="20.139999"
             y2="19.26"
             style="fill:none;stroke:#ffffff;stroke-width:0.459383px;stroke-linecap:round;stroke-linejoin:round"
             id="line40" />
          <polyline
             points="32.94 12.53 20.14 19.26 21.01 25.7"
             style="fill:none;stroke:url(#linear-gradient-36);stroke-width:0.459383px;stroke-linecap:round;stroke-linejoin:round"
             id="polyline40" />
        </g>
        <polygon
           points="27.16,9.49 14.36,16.22 12.57,21.26 21.01,25.7 35.43,18.12 32.94,12.53 "
           style="fill:none;stroke:#bc9800;stroke-width:0.918766;stroke-linecap:round;stroke-linejoin:round"
           id="polygon40" />
      </g>
    </g>
  </g>
</svg>
