<?xml version="1.0" encoding="UTF-8" standalone="no"?>
<svg
   xmlns:dc="http://purl.org/dc/elements/1.1/"
   xmlns:cc="http://creativecommons.org/ns#"
   xmlns:rdf="http://www.w3.org/1999/02/22-rdf-syntax-ns#"
   xmlns:svg="http://www.w3.org/2000/svg"
   xmlns="http://www.w3.org/2000/svg"
   xmlns:xlink="http://www.w3.org/1999/xlink"
   xmlns:sodipodi="http://sodipodi.sourceforge.net/DTD/sodipodi-0.dtd"
   xmlns:inkscape="http://www.inkscape.org/namespaces/inkscape"
   viewBox="0 0 48 48"
   version="1.1"
   id="svg18241"
   sodipodi:docname="3-Dirt Mask.svg"
   inkscape:version="1.0.1 (3bc2e813f5, 2020-09-07)">
  <metadata
     id="metadata18245">
    <rdf:RDF>
      <cc:Work
         rdf:about="">
        <dc:format>image/svg+xml</dc:format>
        <dc:type
           rdf:resource="http://purl.org/dc/dcmitype/StillImage" />
      </cc:Work>
    </rdf:RDF>
  </metadata>
  <sodipodi:namedview
     pagecolor="#ffffff"
     bordercolor="#666666"
     borderopacity="1"
     objecttolerance="10"
     gridtolerance="10"
     guidetolerance="10"
     inkscape:pageopacity="0"
     inkscape:pageshadow="2"
     inkscape:window-width="2560"
     inkscape:window-height="1377"
     id="namedview18243"
     showgrid="false"
     inkscape:zoom="15.3125"
     inkscape:cx="24"
     inkscape:cy="24"
     inkscape:window-x="-8"
     inkscape:window-y="-8"
     inkscape:window-maximized="1"
     inkscape:current-layer="svg18241" />
  <defs
     id="defs18160">
    <style
       id="style18105">.cls-1,.cls-10,.cls-17,.cls-18,.cls-19,.cls-20,.cls-24,.cls-31,.cls-6,.cls-8,.cls-9{fill:none;}.cls-2{isolation:isolate;}.cls-3{fill:#d0d0d0;}.cls-4{fill:url(#radial-gradient);}.cls-5{fill:url(#linear-gradient);}.cls-24,.cls-6,.cls-8,.cls-9{stroke:#555753;}.cls-10,.cls-17,.cls-18,.cls-19,.cls-20,.cls-31,.cls-6{stroke-linecap:round;stroke-linejoin:round;}.cls-17,.cls-21,.cls-31,.cls-6,.cls-8{stroke-width:0.7px;}.cls-7{fill:url(#linear-gradient-2);}.cls-21,.cls-24,.cls-8,.cls-9{stroke-miterlimit:10;}.cls-9{stroke-width:1.4px;}.cls-10,.cls-18,.cls-19,.cls-20{stroke-width:0.5px;}.cls-10,.cls-18{opacity:0.7;}.cls-10{stroke:url(#linear-gradient-3);}.cls-11,.cls-21{fill:#c4a000;}.cls-12{fill:#fce94f;}.cls-13{fill:url(#linear-gradient-4);}.cls-14{fill:url(#linear-gradient-5);}.cls-15{fill:url(#linear-gradient-6);}.cls-16{fill:#997d05;}.cls-17{stroke:#997d05;}.cls-18{stroke:url(#linear-gradient-7);}.cls-19{stroke:url(#linear-gradient-8);}.cls-20{stroke:url(#linear-gradient-9);}.cls-21{stroke:#c4a000;}.cls-22{fill:url(#linear-gradient-10);}.cls-23{fill:url(#linear-gradient-11);}.cls-24{stroke-width:0.35px;}.cls-25{clip-path:url(#clip-path);}.cls-26{fill:#8f5902;}.cls-27{fill:url(#linear-gradient-12);}.cls-28,.cls-29,.cls-30{opacity:0.33;mix-blend-mode:multiply;}.cls-28{fill:url(#linear-gradient-13);}.cls-29{fill:url(#linear-gradient-14);}.cls-30{fill:url(#linear-gradient-15);}.cls-31{stroke:#8f5902;}</style>
    <radialGradient
       id="radial-gradient"
       cx="116.59"
       cy="89.68"
       r="15.53"
       gradientTransform="matrix(1.47,0,0,0.57,-147.97,-17.7)"
       gradientUnits="userSpaceOnUse">
      <stop
         offset="0.31"
         stop-color="#2c2c2c"
         stop-opacity="0.5"
         id="stop18107" />
      <stop
         offset="0.76"
         stop-color="#2c2c2c"
         stop-opacity="0.1"
         id="stop18109" />
      <stop
         offset="0.97"
         stop-color="#2c2c2c"
         stop-opacity="0"
         id="stop18111" />
    </radialGradient>
    <linearGradient
       id="linear-gradient"
       x1="32.84"
       y1="29.57"
       x2="35.21"
       y2="35.72"
       gradientUnits="userSpaceOnUse">
      <stop
         offset="0"
         stop-color="#888a85"
         id="stop18114" />
      <stop
         offset="1"
         stop-color="#1d2426"
         id="stop18116" />
    </linearGradient>
    <linearGradient
       id="linear-gradient-2"
       x1="30.26"
       y1="30.02"
       x2="33.69"
       y2="36.56"
       gradientTransform="rotate(13.37,31.241347,31.885986)"
       xlink:href="#linear-gradient" />
    <linearGradient
       id="linear-gradient-3"
       x1="11.94"
       y1="32.98"
       x2="18.16"
       y2="32.98"
       gradientUnits="userSpaceOnUse">
      <stop
         offset="0"
         stop-color="#d3d7cf"
         id="stop18120" />
      <stop
         offset="0.97"
         stop-color="#888a85"
         id="stop18122" />
    </linearGradient>
    <linearGradient
       id="linear-gradient-4"
       x1="20.71"
       y1="29.99"
       x2="9.85"
       y2="28.91"
       gradientUnits="userSpaceOnUse">
      <stop
         offset="0"
         stop-color="#fff"
         stop-opacity="0"
         id="stop18125" />
      <stop
         offset="1"
         stop-color="snow"
         id="stop18127" />
    </linearGradient>
    <linearGradient
       id="linear-gradient-5"
       x1="39.61"
       y1="32.46"
       x2="18.66"
       y2="24.76"
       gradientUnits="userSpaceOnUse">
      <stop
         offset="0"
         stop-color="#edd400"
         id="stop18130" />
      <stop
         offset="1"
         stop-color="#aa8900"
         id="stop18132" />
    </linearGradient>
    <linearGradient
       id="linear-gradient-6"
       x1="20.9"
       y1="35.07"
       x2="25.09"
       y2="24.93"
       xlink:href="#linear-gradient-5" />
    <linearGradient
       id="linear-gradient-7"
       x1="20.25"
       y1="9"
       x2="22.92"
       y2="9"
       xlink:href="#linear-gradient-3" />
    <linearGradient
       id="linear-gradient-8"
       x1="10.84"
       y1="7.5"
       x2="17.29"
       y2="7.5"
       xlink:href="#linear-gradient-3" />
    <linearGradient
       id="linear-gradient-9"
       x1="9.45"
       y1="13.35"
       x2="12.09"
       y2="13.35"
       gradientUnits="userSpaceOnUse">
      <stop
         offset="0"
         stop-color="#d3d7cf"
         id="stop18138" />
      <stop
         offset="1"
         stop-color="#888a85"
         id="stop18140" />
    </linearGradient>
    <linearGradient
       id="linear-gradient-10"
       x1="20.15"
       y1="33.51"
       x2="24.36"
       y2="39.75"
       xlink:href="#linear-gradient" />
    <linearGradient
       id="linear-gradient-11"
       x1="21.22"
       y1="38.98"
       x2="16.71"
       y2="32.01"
       gradientTransform="rotate(13.37,19.950026,37.015009)"
       xlink:href="#linear-gradient" />
    <clipPath
       id="clip-path">
      <path
         class="cls-1"
         d="M14.25,19.29a.2.2,0,0,0,0,.36l12,5.37a3.17,3.17,0,0,0,2.56,0l10.68-4.79a.19.19,0,0,0,0-.35s-3.24-7.64-4.28-9.25-8-2.65-8-2.65L16.71,13Z"
         id="path18145" />
    </clipPath>
    <linearGradient
       id="linear-gradient-12"
       x1="28.23"
       y1="20.6"
       x2="19.21"
       y2="13.13"
       gradientUnits="userSpaceOnUse">
      <stop
         offset="0"
         stop-color="#c17d11"
         id="stop18148" />
      <stop
         offset="1"
         stop-color="#e9b96e"
         id="stop18150" />
    </linearGradient>
    <linearGradient
       id="linear-gradient-13"
       x1="14.55"
       y1="19.76"
       x2="40.06"
       y2="19.76"
       gradientUnits="userSpaceOnUse">
      <stop
         offset="0"
         id="stop18153" />
      <stop
         offset="1"
         stop-color="#b7b7b7"
         id="stop18155" />
    </linearGradient>
    <linearGradient
       id="linear-gradient-14"
       x1="28.29"
       y1="26.65"
       x2="27.14"
       y2="20.72"
       xlink:href="#linear-gradient-13" />
    <linearGradient
       id="linear-gradient-15"
       x1="32.98"
       y1="24.45"
       x2="29.83"
       y2="20.65"
       xlink:href="#linear-gradient-13" />
    <linearGradient
       inkscape:collect="always"
       xlink:href="#linear-gradient"
       id="linearGradient18808"
       gradientUnits="userSpaceOnUse"
       x1="32.84"
       y1="29.57"
       x2="35.21"
       y2="35.72" />
    <linearGradient
       inkscape:collect="always"
       xlink:href="#linear-gradient-3"
       id="linearGradient18810"
       gradientUnits="userSpaceOnUse"
       x1="11.94"
       y1="32.98"
       x2="18.16"
       y2="32.98" />
    <linearGradient
       inkscape:collect="always"
       xlink:href="#linear-gradient-5"
       id="linearGradient18812"
       gradientUnits="userSpaceOnUse"
       x1="39.61"
       y1="32.46"
       x2="18.66"
       y2="24.76" />
    <linearGradient
       inkscape:collect="always"
       xlink:href="#linear-gradient-13"
       id="linearGradient18814"
       gradientUnits="userSpaceOnUse"
       x1="14.55"
       y1="19.76"
       x2="40.06"
       y2="19.76" />
  </defs>
  <title
     id="title18162">3-Dirt Mask</title>
  <g
     id="shadow"
     style="isolation:isolate;stroke-width:0.950543"
     transform="matrix(1.1067675,0,0,1,-2.0399714,5.355102)">
    <ellipse
       class="cls-4"
       cx="24"
       cy="33.759998"
       rx="22.02"
       ry="8.6000004"
       id="ellipse18167"
       style="fill:url(#radial-gradient);stroke-width:0.950543" />
  </g>
  <g
     id="ART"
     style="isolation:isolate;stroke-width:0.768799"
     transform="matrix(1.3011095,0,0,1.3003514,-8.6159246,-6.9598403)">
    <path
       class="cls-5"
       d="m 36.29,31.68 c 0,-2.25 -1.31,-4.4 -2.92,-4.82 A 1.94,1.94 0 0 0 32,27 l -2.1,0.94 0.61,1.75 a 4,4 0 0 0 0,0.5 5.76,5.76 0 0 0 1.61,4 l 0.56,1.61 2,-0.91 h 0.09 v 0 a 3.44,3.44 0 0 0 1.52,-3.21 z"
       id="path18170"
       style="fill:url(#linearGradient18808);stroke-width:0.768799" />
    <path
       class="cls-6"
       d="m 36.29,31.68 c 0,-2.25 -1.31,-4.4 -2.92,-4.82 A 1.94,1.94 0 0 0 32,27 l -2.1,0.94 0.61,1.75 a 4,4 0 0 0 0,0.5 5.76,5.76 0 0 0 1.61,4 l 0.56,1.61 2,-0.91 h 0.09 v 0 a 3.44,3.44 0 0 0 1.52,-3.21 z"
       id="path18172" />
    <ellipse
       class="cls-7"
       cx="31.24"
       cy="31.9"
       rx="2.8299999"
       ry="4.21"
       transform="rotate(-13.37,31.246415,31.901556)"
       id="ellipse18174"
       style="fill:url(#linear-gradient-2);stroke-width:0.768799" />
    <ellipse
       class="cls-8"
       cx="31.24"
       cy="31.9"
       rx="2.8299999"
       ry="4.21"
       transform="rotate(-13.37,31.246415,31.901556)"
       id="ellipse18176" />
    <path
       class="cls-9"
       d="M 14.48,21.88 10,34.21 a 0.56,0.56 0 0 0 0.79,0.69 l 7.15,-3.21"
       id="path18178" />
    <line
       class="cls-10"
       x1="12.19"
       y1="34.259998"
       x2="17.91"
       y2="31.690001"
       id="line18180"
       style="stroke:url(#linearGradient18810)" />
    <path
       class="cls-11"
       d="m 40.12,20.5 -1.86,9.66 a 4.27,4.27 0 0 1 -2.45,3.08 l -8.85,4 a 3.7,3.7 0 0 1 -3,0 L 17.79,34.48 A 4.25,4.25 0 0 1 15.35,31.39 L 13.18,20.22 Z"
       id="path18182"
       style="stroke-width:0.768799" />
    <path
       class="cls-12"
       d="m 26.79,28.09 -1.44,7.45 a 2.07,2.07 0 0 1 -1.18,1.76 l -0.23,-0.09 -6.17,-2.76 a 4.25,4.25 0 0 1 -2.44,-3.09 l -1.75,-9 12.15,5.44 a 5,5 0 0 0 1.06,0.29 z"
       id="path18184"
       style="stroke-width:0.768799" />
    <path
       class="cls-13"
       d="m 26.79,28.09 -1.44,7.45 a 2.07,2.07 0 0 1 -1.18,1.76 l -0.23,-0.09 -6.17,-2.76 a 4.25,4.25 0 0 1 -2.44,-3.09 l -1.75,-9 12.15,5.44 a 5,5 0 0 0 1.06,0.29 z"
       id="path18186"
       style="fill:url(#linear-gradient-4);stroke-width:0.768799" />
    <path
       class="cls-14"
       d="m 39.55,23.46 -1.29,6.7 a 4.27,4.27 0 0 1 -2.45,3.08 l -8.2,3.68 c -1.13,0.13 -0.74,-1.38 -0.74,-1.38 L 28.3,28.18 A 5.09,5.09 0 0 0 30,27.75 Z"
       id="path18188"
       style="fill:url(#linearGradient18812);stroke-width:0.768799" />
    <path
       class="cls-15"
       d="m 40.12,20.5 -0.57,3 -9.55,4.25 a 5.2,5.2 0 0 1 -4.23,0 l -12.19,-5.44 -0.4,-2.09 z"
       id="path18190"
       style="fill:url(#linear-gradient-6);stroke-width:0.768799" />
    <polygon
       class="cls-16"
       points="14.61,21.43 15.93,21.91 14.23,26.57 13.71,23.89 "
       id="polygon18192"
       style="stroke-width:0.768799" />
    <path
       class="cls-17"
       d="m 40.12,20.5 -1.86,9.66 a 4.27,4.27 0 0 1 -2.45,3.08 l -8.85,4 a 3.7,3.7 0 0 1 -3,0 L 17.79,34.48 A 4.25,4.25 0 0 1 15.35,31.39 L 13.18,20.22"
       id="path18194" />
    <line
       class="cls-9"
       x1="14.82"
       y1="20.93"
       x2="9.9700003"
       y2="34.209999"
       id="line18196" />
    <path
       class="cls-9"
       d="M 13.56,19.36 9.8,11.63 A 2.33,2.33 0 0 1 11.09,8.84 L 17,6.17 a 2.36,2.36 0 0 1 3,0.91 l 5.35,6.47"
       id="path18198" />
    <line
       class="cls-18"
       x1="20.5"
       y1="7.6900001"
       x2="22.67"
       y2="10.31"
       id="line18200"
       style="stroke:url(#linear-gradient-7)" />
    <line
       class="cls-19"
       x1="11.09"
       y1="8.8400002"
       x2="17.040001"
       y2="6.1700001"
       id="line18202"
       style="stroke:url(#linear-gradient-8)" />
    <path
       class="cls-20"
       d="m 11.84,15.83 -2,-4.2 A 2.2,2.2 0 0 1 9.75,10.87"
       id="path18204"
       style="stroke:url(#linear-gradient-9)" />
    <path
       class="cls-12"
       d="M 25.82,12.71 12,18.9 a 0.59,0.59 0 0 0 0,1.1 l 13.94,6.24 a 4.21,4.21 0 0 0 3.44,0 l 12.34,-5.52 a 0.59,0.59 0 0 0 0,-1.07 L 26.3,12.71 a 0.66,0.66 0 0 0 -0.48,0 z"
       id="path18206"
       style="stroke-width:0.768799" />
    <path
       class="cls-17"
       d="M 25.82,12.71 12,18.9 a 0.59,0.59 0 0 0 0,1.1 l 13.94,6.24 a 4.21,4.21 0 0 0 3.44,0 l 12.34,-5.52 a 0.59,0.59 0 0 0 0,-1.07 L 26.3,12.71 a 0.66,0.66 0 0 0 -0.48,0 z"
       id="path18208" />
    <path
       class="cls-21"
       d="m 26.13,14 -11.88,5.29 a 0.2,0.2 0 0 0 0,0.36 l 12,5.37 a 3.17,3.17 0 0 0 2.56,0 l 10.68,-4.79 a 0.19,0.19 0 0 0 0,-0.35 L 26.29,14 a 0.22,0.22 0 0 0 -0.16,0 z"
       id="path18210" />
    <path
       class="cls-22"
       d="m 25,36.78 c 0,-2.25 -1.31,-4.41 -2.92,-4.82 a 1.94,1.94 0 0 0 -1.41,0.15 l -2.1,0.94 0.61,1.74 a 4.18,4.18 0 0 0 0,0.5 5.78,5.78 0 0 0 1.6,4.05 l 0.52,1.66 2,-0.91 h 0.09 v 0 A 3.4,3.4 0 0 0 25,36.78 Z"
       id="path18212"
       style="fill:url(#linear-gradient-10);stroke-width:0.768799" />
    <path
       class="cls-6"
       d="m 25,36.78 c 0,-2.25 -1.31,-4.41 -2.92,-4.82 a 1.94,1.94 0 0 0 -1.41,0.15 l -2.1,0.94 0.61,1.74 a 4.18,4.18 0 0 0 0,0.5 5.78,5.78 0 0 0 1.6,4.05 l 0.52,1.66 2,-0.91 h 0.09 v 0 A 3.4,3.4 0 0 0 25,36.78 Z"
       id="path18214" />
    <ellipse
       class="cls-23"
       cx="19.93"
       cy="36.990002"
       rx="2.8299999"
       ry="4.21"
       transform="rotate(-13.37,19.921896,37.017799)"
       id="ellipse18216"
       style="fill:url(#linear-gradient-11);stroke-width:0.768799" />
    <ellipse
       class="cls-8"
       cx="19.93"
       cy="36.990002"
       rx="2.8299999"
       ry="4.21"
       transform="rotate(-13.37,19.921896,37.017799)"
       id="ellipse18218" />
    <ellipse
       class="cls-3"
       cx="19.93"
       cy="36.990002"
       rx="1.47"
       ry="2.1900001"
       transform="rotate(-13.37,19.921896,37.017799)"
       id="ellipse18220"
       style="stroke-width:0.768799" />
    <ellipse
       class="cls-24"
       cx="19.93"
       cy="36.990002"
       rx="1.47"
       ry="2.1900001"
       transform="rotate(-13.37,19.921896,37.017799)"
       id="ellipse18222" />
    <g
       class="cls-25"
       clip-path="url(#clip-path)"
       id="g18236"
       style="stroke-width:0.768799">
      <path
         class="cls-26"
         d="m 13.77,22 a 4.36,4.36 0 0 1 0.91,-2 19.28,19.28 0 0 1 3,-1.56 7.42,7.42 0 0 1 0.82,-0.37 13.46,13.46 0 0 1 1.28,-2.27 l 0.6,-0.65 a 5.56,5.56 0 0 1 1.53,-1.15 6.24,6.24 0 0 0 1.7,-1.23 7.91,7.91 0 0 1 2.26,-1.89 15.86,15.86 0 0 1 1.92,-0.68 0.57,0.57 0 0 1 0.59,0.15 9.9,9.9 0 0 0 2.06,1.65 3,3 0 0 1 1.11,0.78 4.42,4.42 0 0 1 0.49,1.4 16.34,16.34 0 0 1 2.96,1.82 11.46,11.46 0 0 1 1.57,2.37 c 0,0 2.22,1.56 2.67,2 a 8.08,8.08 0 0 1 0.82,2.55 c 0,0 -6.41,4.82 -11.27,6.22 C 23.93,30.54 15.46,25.15 13.77,22 Z"
         id="path18224"
         style="stroke-width:0.768799" />
      <path
         class="cls-27"
         d="m 38.64,20.42 a 3.78,3.78 0 0 1 -1.54,-0.54 3.12,3.12 0 0 0 -0.53,-0.3 c -0.62,-0.24 -1.33,0.11 -2,0 A 0.48,0.48 0 0 1 34.29,19.41 0.63,0.63 0 0 1 34.2,19.17 c -0.24,-1.22 -0.41,-2.64 -1.62,-3.33 -0.59,-0.34 -0.88,0.12 -1.18,0.42 -0.3,0.3 -1.93,1 -1.59,0.46 0.34,-0.54 0.75,-2.56 0.25,-2.77 -0.5,-0.21 -2,-1.68 -2.52,-1.51 A 7.32,7.32 0 0 0 25.64,14 c -0.5,0.55 -1.76,0.93 -2.31,1.56 -0.55,0.63 -0.25,1.17 0.3,1.72 0.55,0.55 1.72,1.55 1,1.46 -1,-0.11 -2,-0.21 -3.06,-0.27 a 2.51,2.51 0 0 0 -1.19,0 c -0.47,0.22 -0.8,0.68 -1.3,0.84 a 4,4 0 0 1 -0.92,0.08 6.81,6.81 0 0 0 -1.71,0.43 3.15,3.15 0 0 1 -1.74,0.16 c 0.95,-0.58 1.93,-1 2.93,-1.53 a 7.42,7.42 0 0 1 0.82,-0.37 13.46,13.46 0 0 1 1.28,-2.27 l 0.6,-0.65 a 5.56,5.56 0 0 1 1.57,-1.16 6.24,6.24 0 0 0 1.7,-1.23 7.91,7.91 0 0 1 2.26,-1.89 15.86,15.86 0 0 1 1.92,-0.68 0.57,0.57 0 0 1 0.59,0.15 9.9,9.9 0 0 0 2.06,1.65 3,3 0 0 1 1.11,0.78 4.42,4.42 0 0 1 0.49,1.4 16.34,16.34 0 0 1 2.96,1.82 11.46,11.46 0 0 1 1.57,2.37 l 1.09,0.78 c 0.27,0.2 0.55,0.37 0.82,0.57 a 3.33,3.33 0 0 1 0.61,0.73 3.4,3.4 0 0 1 -0.45,-0.03 z"
         id="path18226"
         style="fill:url(#linear-gradient-12);stroke-width:0.768799" />
      <path
         class="cls-28"
         d="m 40.06,22.93 c 0,0 -6.41,4.82 -11.27,6.22 a 7,7 0 0 1 -2.72,0.17 c -0.3,-0.91 -0.52,-1.88 -0.9,-2.76 a 3.65,3.65 0 0 0 -1.74,-1.5 24.8,24.8 0 0 0 -2.69,-1.32 c -1,-0.43 -2.15,-0.72 -3.22,-1.13 A 10.29,10.29 0 0 1 16,21.92 a 2.73,2.73 0 0 1 -1.13,-0.85 3.83,3.83 0 0 1 -0.33,-0.81 1.83,1.83 0 0 0 0.84,0 c 1.16,-0.17 2.55,-0.62 3.59,0.13 0.17,0.12 0.32,0.26 0.5,0.37 0.8,0.47 1.95,0 2.7,0.56 a 3,3 0 0 1 0.48,0.53 3,3 0 0 0 0.95,0.86 1.32,1.32 0 0 0 1.25,0 2.13,2.13 0 0 0 0.53,-0.51 9.09,9.09 0 0 0 1.26,-2.09 c 0.2,-0.44 0.58,-1.26 0.25,-1.72 -0.46,-0.63 -1.39,-2 -1.18,-2.22 a 3.29,3.29 0 0 0 1.43,-2 c 0.25,-1.24 0.08,-3.63 0.91,-4.09 a 0.56,0.56 0 0 1 0.32,0.17 9.9,9.9 0 0 0 2.07,1.75 3,3 0 0 1 1.11,0.78 4.42,4.42 0 0 1 0.49,1.4 16.34,16.34 0 0 1 2.96,1.82 11.46,11.46 0 0 1 1.57,2.37 c 0,0 2.22,1.56 2.67,2 a 8.08,8.08 0 0 1 0.82,2.56 z"
         id="path18228"
         style="fill:url(#linearGradient18814);stroke-width:0.768799" />
      <path
         class="cls-29"
         d="m 40.06,22.93 c 0,0 -6.41,4.82 -11.27,6.22 a 7,7 0 0 1 -2.72,0.17 c -0.3,-0.91 -0.52,-1.88 -0.9,-2.76 a 3.65,3.65 0 0 0 -1.74,-1.5 24.8,24.8 0 0 0 -2.69,-1.32 c -1,-0.43 -2.15,-0.72 -3.22,-1.13 A 10.29,10.29 0 0 1 16,21.92 a 2.73,2.73 0 0 1 -1.13,-0.85 3.83,3.83 0 0 1 -0.33,-0.81 1.83,1.83 0 0 0 0.84,0 c 1.16,-0.17 2.55,-0.62 3.59,0.13 0.17,0.12 0.32,0.26 0.5,0.37 0.8,0.47 1.95,0 2.7,0.56 a 3,3 0 0 1 0.48,0.53 3,3 0 0 0 0.95,0.86 1.32,1.32 0 0 0 1.25,0 2.13,2.13 0 0 0 0.53,-0.51 9.09,9.09 0 0 0 1.26,-2.09 c 0.2,-0.44 0.58,-1.26 0.25,-1.72 -0.46,-0.63 -1.39,-2 -1.18,-2.22 a 3.29,3.29 0 0 0 1.43,-2 c 0.25,-1.24 0.08,-3.63 0.91,-4.09 a 0.56,0.56 0 0 1 0.32,0.17 9.9,9.9 0 0 0 2.07,1.75 3,3 0 0 1 1.11,0.78 4.42,4.42 0 0 1 0.49,1.4 16.34,16.34 0 0 1 2.96,1.82 11.46,11.46 0 0 1 1.57,2.37 c 0,0 2.22,1.56 2.67,2 a 8.08,8.08 0 0 1 0.82,2.56 z"
         id="path18230"
         style="fill:url(#linear-gradient-14);stroke-width:0.768799" />
      <path
         class="cls-30"
         d="m 24.88,24.6 c 0.77,0 1.53,0 2.3,0 a 0.87,0.87 0 0 0 0.95,-0.56 l 1.47,-2.49 a 3,3 0 0 0 -1.65,0.32 22.16,22.16 0 0 0 0.52,-2.39 c 0.31,0.07 0.47,0.4 0.66,0.66 a 2,2 0 0 0 1.31,0.82 1.78,1.78 0 0 1 0.51,0.1 c 0.5,0.22 0.58,1 1.07,1.2 a 0.2,0.2 0 0 0 0.17,0 0.25,0.25 0 0 0 0.14,-0.11 l 1.23,-1.57 a 2.92,2.92 0 0 0 1.68,0.07 9.65,9.65 0 0 1 1,-0.3 3.5,3.5 0 0 1 2.2,0.81 22,22 0 0 1 -4.36,2.39 c -0.88,0.36 -1.78,0.66 -2.62,1.09 -0.5,0.26 -1,0.56 -1.47,0.81 a 8,8 0 0 1 -1.71,0.62 2.78,2.78 0 0 1 -1.43,0.06 1.3,1.3 0 0 1 -1,-0.95"
         id="path18232"
         style="fill:url(#linear-gradient-15);stroke-width:0.768799" />
      <path
         class="cls-31"
         d="m 13.77,22 a 4.36,4.36 0 0 1 0.91,-2 19.28,19.28 0 0 1 3,-1.56 7.42,7.42 0 0 1 0.82,-0.37 13.46,13.46 0 0 1 1.28,-2.27 l 0.6,-0.65 a 5.56,5.56 0 0 1 1.53,-1.15 6.24,6.24 0 0 0 1.7,-1.23 7.91,7.91 0 0 1 2.26,-1.89 15.86,15.86 0 0 1 1.92,-0.68 0.57,0.57 0 0 1 0.59,0.15 9.9,9.9 0 0 0 2.06,1.65 3,3 0 0 1 1.11,0.78 4.42,4.42 0 0 1 0.49,1.4 16.34,16.34 0 0 1 2.96,1.82 11.46,11.46 0 0 1 1.57,2.37 c 0,0 2.22,1.56 2.67,2 a 8.08,8.08 0 0 1 0.82,2.55 c 0,0 -6.41,4.82 -11.27,6.22 C 23.93,30.54 15.46,25.15 13.77,22 Z"
         id="path18234" />
    </g>
  </g>
</svg>
