<?xml version="1.0" encoding="UTF-8" standalone="no"?>
<svg
   viewBox="0 0 48 48"
   version="1.1"
   id="svg58"
   sodipodi:docname="fractus.svg"
   inkscape:version="1.3 (0e150ed6c4, 2023-07-21)"
   xmlns:inkscape="http://www.inkscape.org/namespaces/inkscape"
   xmlns:sodipodi="http://sodipodi.sourceforge.net/DTD/sodipodi-0.dtd"
   xmlns:xlink="http://www.w3.org/1999/xlink"
   xmlns="http://www.w3.org/2000/svg"
   xmlns:svg="http://www.w3.org/2000/svg">
  <sodipodi:namedview
     id="namedview58"
     pagecolor="#ffffff"
     bordercolor="#666666"
     borderopacity="1.0"
     inkscape:showpageshadow="2"
     inkscape:pageopacity="0.0"
     inkscape:pagecheckerboard="0"
     inkscape:deskcolor="#d1d1d1"
     inkscape:zoom="23.020833"
     inkscape:cx="24"
     inkscape:cy="24"
     inkscape:window-width="2560"
     inkscape:window-height="1377"
     inkscape:window-x="-8"
     inkscape:window-y="-8"
     inkscape:window-maximized="1"
     inkscape:current-layer="svg58" />
  <defs
     id="defs17">
    <radialGradient
       id="radial-gradient"
       cx="-275.49"
       cy="-41.45"
       fx="-275.49"
       fy="-41.45"
       r="11.9"
       gradientTransform="translate(528.75 70.29) scale(1.83 .78)"
       gradientUnits="userSpaceOnUse">
      <stop
         offset=".13"
         stop-color="#2c2c2c"
         stop-opacity=".5"
         id="stop1" />
      <stop
         offset=".73"
         stop-color="#2c2c2c"
         stop-opacity=".1"
         id="stop2" />
      <stop
         offset=".99"
         stop-color="#2c2c2c"
         stop-opacity="0"
         id="stop3" />
    </radialGradient>
    <linearGradient
       id="linear-gradient"
       x1="42.93"
       y1="19.29"
       x2="42.93"
       y2="44.29"
       gradientTransform="matrix(1, 0, 0, 1, 0, 0)"
       gradientUnits="userSpaceOnUse">
      <stop
         offset="0"
         stop-color="#b2cbe5"
         id="stop4" />
      <stop
         offset="1"
         stop-color="#3465a4"
         id="stop5" />
    </linearGradient>
    <linearGradient
       id="linear-gradient-2"
       x1="22.71"
       y1="12.71"
       x2="22.71"
       y2="44.8"
       xlink:href="#linear-gradient" />
    <linearGradient
       id="linear-gradient-3"
       x1="22.71"
       y1=".05"
       x2="22.71"
       y2="20.15"
       gradientTransform="matrix(1, 0, 0, 1, 0, 0)"
       gradientUnits="userSpaceOnUse">
      <stop
         offset="0"
         stop-color="snow"
         id="stop6" />
      <stop
         offset="1"
         stop-color="#fffdfd"
         stop-opacity=".19"
         id="stop7" />
    </linearGradient>
    <linearGradient
       id="linear-gradient-4"
       x1="30.56"
       y1="19.37"
       x2="30.56"
       y2="20.2"
       gradientTransform="matrix(1, 0, 0, 1, 0, 0)"
       gradientUnits="userSpaceOnUse">
      <stop
         offset="0"
         stop-color="snow"
         stop-opacity=".3"
         id="stop8" />
      <stop
         offset=".71"
         stop-color="#fffdfd"
         stop-opacity=".4"
         id="stop9" />
    </linearGradient>
    <linearGradient
       id="linear-gradient-5"
       x1="15.68"
       y1="7.11"
       x2="15.68"
       y2="38.12"
       gradientTransform="matrix(1, 0, 0, 1, 0, 0)"
       gradientUnits="userSpaceOnUse">
      <stop
         offset="0"
         stop-color="snow"
         id="stop10" />
      <stop
         offset=".71"
         stop-color="#fffdfd"
         stop-opacity=".4"
         id="stop11" />
    </linearGradient>
    <linearGradient
       id="linear-gradient-6"
       x1="11.14"
       y1="29.09"
       x2="11.14"
       y2="39.47"
       gradientTransform="matrix(1, 0, 0, 1, 0, 0)"
       gradientUnits="userSpaceOnUse">
      <stop
         offset="0"
         stop-color="#b2cbe5"
         stop-opacity=".5"
         id="stop12" />
      <stop
         offset="1"
         stop-color="#3465a4"
         id="stop13" />
    </linearGradient>
    <linearGradient
       id="linear-gradient-7"
       x1="15.34"
       y1="29.09"
       x2="15.34"
       y2="39.47"
       xlink:href="#linear-gradient" />
    <linearGradient
       id="linear-gradient-8"
       x1="21.3"
       y1="29.09"
       x2="21.3"
       y2="39.47"
       xlink:href="#linear-gradient" />
    <linearGradient
       id="linear-gradient-9"
       x1="30.73"
       y1="32.02"
       x2="30.73"
       y2="39.96"
       xlink:href="#linear-gradient" />
    <linearGradient
       id="linear-gradient-10"
       x1="37.88"
       y1="25.7"
       x2="37.88"
       y2="33.31"
       xlink:href="#linear-gradient" />
    <linearGradient
       id="linear-gradient-11"
       x1="40.36"
       y1="24.78"
       x2="40.36"
       y2="48.4"
       xlink:href="#linear-gradient" />
    <linearGradient
       id="linear-gradient-12"
       x1="41.2"
       y1="29.21"
       x2="41.2"
       y2="41.37"
       xlink:href="#linear-gradient" />
    <linearGradient
       id="linear-gradient-13"
       x1="38.97"
       y1="28.4"
       x2="40.66"
       y2="28.4"
       xlink:href="#linear-gradient-5" />
    <linearGradient
       id="linear-gradient-14"
       x1="27.07"
       y1="15.91"
       x2="27.07"
       y2="20.3"
       gradientTransform="matrix(1, 0, 0, 1, 0, 0)"
       gradientUnits="userSpaceOnUse">
      <stop
         offset="0"
         stop-color="snow"
         stop-opacity=".4"
         id="stop14" />
      <stop
         offset=".71"
         stop-color="#fffdfd"
         stop-opacity=".4"
         id="stop15" />
    </linearGradient>
    <linearGradient
       id="linear-gradient-15"
       x1="34.21"
       y1="28.75"
       x2="34.21"
       y2="34.08"
       xlink:href="#linear-gradient-5" />
    <linearGradient
       id="linear-gradient-16"
       x1="35.53"
       y1="24.42"
       x2="37.15"
       y2="24.42"
       xlink:href="#linear-gradient-5" />
    <linearGradient
       id="linear-gradient-17"
       x1="37.07"
       y1="25.09"
       x2="37.54"
       y2="25.09"
       xlink:href="#linear-gradient-5" />
    <linearGradient
       id="linear-gradient-18"
       x1="29.58"
       y1="17.76"
       x2="31.87"
       y2="17.76"
       xlink:href="#linear-gradient-5" />
    <linearGradient
       id="linear-gradient-19"
       x1="30.59"
       y1="16.3"
       x2="34.56"
       y2="16.3"
       xlink:href="#linear-gradient-5" />
    <linearGradient
       id="linear-gradient-20"
       x1="32.85"
       y1="13.2"
       x2="35.57"
       y2="14.82"
       xlink:href="#linear-gradient-5" />
    <linearGradient
       id="linear-gradient-21"
       x1="34.38"
       y1="15.88"
       x2="38.82"
       y2="15.88"
       xlink:href="#linear-gradient-5" />
    <linearGradient
       id="linear-gradient-22"
       x1="34.88"
       y1="13"
       x2="37.57"
       y2="13"
       xlink:href="#linear-gradient-5" />
    <linearGradient
       id="linear-gradient-23"
       x1="38.37"
       y1="15.55"
       x2="39.65"
       y2="15.55"
       xlink:href="#linear-gradient-5" />
    <linearGradient
       id="linear-gradient-24"
       x1="32.89"
       y1="19.55"
       x2="35.67"
       y2="19.55"
       xlink:href="#linear-gradient-5" />
    <linearGradient
       id="linear-gradient-25"
       x1="37.68"
       y1="20.42"
       x2="41.44"
       y2="20.42"
       xlink:href="#linear-gradient-5" />
    <linearGradient
       id="linear-gradient-26"
       x1="19.85"
       y1="29.09"
       x2="19.85"
       y2="39.47"
       xlink:href="#linear-gradient" />
    <linearGradient
       id="linear-gradient-27"
       x1="24.71"
       y1="16.12"
       x2="24.71"
       y2="42.53"
       gradientTransform="matrix(1, 0, 0, 1, 0, 0)"
       gradientUnits="userSpaceOnUse">
      <stop
         offset="0"
         stop-color="#fff"
         id="stop16" />
      <stop
         offset=".71"
         stop-color="#fffdfd"
         stop-opacity=".4"
         id="stop17" />
    </linearGradient>
    <linearGradient
       id="linear-gradient-28"
       x1="23.21"
       y1="20.07"
       x2="23.21"
       y2="36.34"
       xlink:href="#linear-gradient-5" />
    <linearGradient
       id="linear-gradient-29"
       x1="28.1"
       y1="20.73"
       x2="28.1"
       y2="34.49"
       xlink:href="#linear-gradient-5" />
    <linearGradient
       id="linear-gradient-30"
       x1="9.13"
       y1="22.28"
       x2="12.61"
       y2="25.77"
       xlink:href="#linear-gradient-5" />
    <linearGradient
       id="linear-gradient-31"
       x1="6.21"
       y1="23.4"
       x2="8.34"
       y2="23.4"
       xlink:href="#linear-gradient-5" />
    <linearGradient
       id="linear-gradient-32"
       x1="11.51"
       y1="19.52"
       x2="13.13"
       y2="19.52"
       xlink:href="#linear-gradient-5" />
    <linearGradient
       id="linear-gradient-33"
       x1="13.06"
       y1="12.14"
       x2="25.64"
       y2="33.34"
       xlink:href="#linear-gradient-5" />
    <linearGradient
       id="linear-gradient-34"
       x1="12.29"
       y1="26.55"
       x2="14.08"
       y2="26.55"
       xlink:href="#linear-gradient-5" />
    <linearGradient
       id="linear-gradient-35"
       x1="29.7"
       y1="25.85"
       x2="30.94"
       y2="30.5"
       xlink:href="#linear-gradient-5" />
    <linearGradient
       id="linear-gradient-36"
       x1="7.19"
       y1="25.48"
       x2="10"
       y2="27.01"
       xlink:href="#linear-gradient-5" />
    <linearGradient
       id="linear-gradient-37"
       x1="26.17"
       y1="23.38"
       x2="27.98"
       y2="28.16"
       xlink:href="#linear-gradient-5" />
  </defs>
  <g
     style="isolation:isolate;"
     id="g58">
    <g
       id="back_layer">
      <rect
         width="48"
         height="48"
         style="fill:#39b4ea;"
         id="rect17" />
      <rect
         width="48"
         height="48"
         style="fill:none;"
         id="rect18" />
      <rect
         width="48"
         height="48"
         style="fill:none;"
         id="rect19" />
      <path
         d="M47.3,.7V47.3H.7V.7H47.3m.7-.7H0V48H48V0h0Z"
         style="fill:#555753;"
         id="path19" />
      <rect
         width="48"
         height="48"
         style="fill:none;"
         id="rect20" />
    </g>
    <g
       id="shadow"
       style="mix-blend-mode:multiply; opacity:.45;">
      <ellipse
         cx="24"
         cy="38.12"
         rx="20.95"
         ry="8.91"
         style="fill:url(#radial-gradient); opacity:.54;"
         id="ellipse20" />
    </g>
    <g
       id="ART">
      <g
         id="g57">
        <path
           d="M42.42,25.46c.49-.05,1.08-.16,1.35-.5,.21-.27,.27-.67,.29-1,0,0,.23,.86-.17,1.37,0,0,.63-.31,.66-1.49,.02-.81-.69-1.6-1.52-1.28,.08,.11,.22,.17,.34,.24s.24,.18,.24,.32c0,.18-.21,.3-.39,.27-.04,0-.09-.02-.13-.02-.11,0-.18,.11-.2,.22s0,.21,.01,.32c.04,.54-.27,.92-.74,1.15-.23,.11-.48,.15-.73,.21-.03,0-.07,.02-.08,.05-.02,.05,.03,.1,.08,.12,.2,.1,.44,.08,.66,.06,.11-.01,.23-.02,.36-.03Z"
           style="fill:url(#linear-gradient); opacity:.5;"
           id="path20" />
        <path
           d="M42.45,22.91c-.35,.03-.76,.04-1-.23,.44,.04,.9-.1,1.24-.38-.14,0-.28-.01-.41-.05-.46-.18-.48-.78-.7-1.15-.13-.24-.28-.48-.48-.67-.14-.13-.38-.18-.39-.41-.01-.25,.32-.58,.38-.85,.02-.09,.11-.47,.04-.55,.45,.49,.19,1.15,.19,1.15,1.24,.41,.77,1.54,.77,1.54,0,0,.46-.45,.44-.91-.03-.46-.38-.67-.38-.67,0,0,.26-.69-.17-1.46-.18-.32-.47-.56-.8-.72-.28-.13-.65-.1-.87-.35-.27-.33-.06-.79,0-1.17,.06-.41,.09-.87-.11-1.24-.34-.69-1.17-1.03-1.17-1.03,.18,.08,.16-.95,.12-1.07-.14-.31-.42-.51-.74-.6-.18-.05-.4-.04-.56,.06-.03,.02-.08,.06-.06,.11,.01,.06,.1,.08,.15,.09,.29,.04,.53,.33,.5,.62-.02,.27-.19,.29-.33,.13-.09-.1-.08-.26-.15-.35-.14-.2-.44-.31-.68-.35,.06,.01,.06-.6,.05-.65-.03-.26-.13-.5-.3-.69-.48-.51-1.07-.39-1.67-.24-.27,.06-.6,.11-.78-.1-.16-.18-.12-.46-.14-.7-.04-.43-.34-.84-.76-.91-.42-.09-.89,.27-.86,.7,.01,.12,.05,.24,.02,.34-.06,.21-.34,.26-.55,.34-.21,.08-.4,.24-.48,.45-.09,.2-.06,.46,.08,.63,.04-.39,.43-.72,.82-.65,.33,.06,.59,.47,.46,.79-.15,.36-.64,.59-.85,.98-.1-.23-.04-.5,.12-.68-.1-.12-.3-.09-.42,.01-.12,.11-.17,.26-.23,.41-.09,.23-.21,.4-.43,.51-.17,.1-.42,.09-.5,.29-.04,.11-.02,.23-.02,.34-.01,.12-.08,.25-.19,.26-.1,0-.18-.1-.24-.18-.09-.11-.18-.21-.32-.25-.13-.04-.3,.02-.33,.15-.03,.13,.06,.25,.15,.35,.06,.08,.14,.16,.21,.24,.02,.02,.04,.05,.05,.09,.05,.16-.26,.38-.32,.51-.1,.18-.11,.38-.08,.59,.02,.17,.04,.39,.12,.55,.06,.13,.27,.23,.21,.4-.05,.16-.27,.15-.42,.2-.27,.1-.35,.44-.59,.6-.1,.04-.2-.08-.2-.18-.01-.11,.05-.2,.1-.31,.3-.71-.39-.33-.64-.72-.09-.12,.03-.26,.06-.39,.05-.16-.01-.34-.14-.45-.14-.1-.33-.1-.47,0-.09,.06-.14,.15-.2,.24-.24,.28-.57,.46-.93,.49-.35,.04-.72-.08-1-.31,1.01,0,1.75-1.36,1.6-2.26-.12-.71-.68-1.32-1.37-1.5-.37-.1-.76-.08-1.12-.22s-.66-.53-.52-.88c.18-.45,.92-.47,1.06-.93-.88-.14-1.81,.14-2.48,.74-.23,.21-.44,.46-.7,.64-.44,.3-1.89-.23-1.76,.75,.01,.03,.02,.06,.04,.09,.03,.02,.06,.01,.1,.01,.43-.08,.92-.17,1.27,.11-.24,.57-.91,.17-1.28,.54-.41,.4-.41,1.06-.41,1.06,0,0-.86-.6-1.63-.24-.71,.34-.74,.94-.74,1.03,.04-.05,.33-.48,.72-.57,.4-.09,.83,.2,.83,.2,0,0-.34-.05-.69,.17-.34,.23-.4,.77-.4,.77,0-.38-1.45,0-1.58,.08-.35,.21-.59,.67-.41,1.03,.06,.12,.15,.22,.15,.35,0,.13-.11,.23-.23,.29-.25,.13-.48,.26-.74,.38-.17,.07-.31,.19-.42,.34-.08,.12-.14,.25-.14,.4s.07,.29,.2,.36c.18,.1,.43,.01,.6,.13,.18,.12,.17,.42,.02,.58-.1,.11-1.53,.46-1.42,.65-.21-.35-.43-.33-.76-.39-.25-.03-.62-.01-.62-.38,0-.21,.19-.38,.4-.44s.43-.06,.62-.14c.39-.15,.62-.69,.36-1.01-.19-.24-.59-.35-.56-.65,.02-.18,.2-.29,.31-.44,.23-.32,0-.8-.36-.97-.36-.16-.78-.06-1.15,.1-.92,.41-1.71,1.26-2.72,1.29,.32,.21,.75,.1,1.09-.06,.35-.16,.71-.36,1.08-.32,.2,.02,.43,.18,.4,.39-.01,.08-.05,.14-.11,.19-.38,.38-.89,.32-1.17,.8-.18,.33-.57,.97-.47,1.36,.05,.26-.67-.05-.8-.51-.14-.45,.05-.65-.34-.97-.4-.32-.74,.05-.94,.31-.2,.26-.12,.77,.26,.65,.2,.12-.09,.29-.09,.55s.23,.43,.14,.6c-.09,.17-.79-.14-.83-.4-.03-.26-.43-.26-.55,.36-.11,.63,.26,.98,.55,1.09,.29,.12-.17,.43-.43,.23-.26-.19-.6,.24-.63,.51,0,.04-.01,.08-.04,.1-.41-.3,.03-.74,.01-1.08-.02-.19-.19-.34-.39-.36-.18-.02-.38,.06-.51,.19-.14,.13-.24,.3-.33,.46-.03,.08-.08,.14-.13,.19-.06,.04-.16,.06-.21,.01-.06-.03-.08-.12-.12-.18-.1-.17-.33-.21-.51-.14-.65,.24-.57,1.28-.08,1.65,.24,.17,.03,.62-.43,.45-.46-.17-.46-.83-1.03-.69-.57,.15-.6,1.12,.03,1.52,.62,.4,1.46,.02,1.68,.19,.24,.17,.06,.58,.29,1.01s.63,.54,.83,.6c.2,.05-.05,.62-.48,.77-.43,.14-.74,.74-.43,1.15,.31,.4,.17,.34-.12,.54-.28,.2-.45,1.03,.06,1.27,.51,.23,.19,.57,.54,.88,.34,.32,.94,.12,1.12-.54,.17-.67,.54,.47,1.61,.94,.51,.23,1.17,.23,1.46,.19,.28-.02-.06-.01-.41-.31-.42-.38-.6-1.39-.5-1.78,.11-.4,.16,.09,.5-.01,.34-.1,.26-.32,.43-.2,.16,.12,.21,.48,.97,.71,.76,.21,1.54-.43,1.71-.62,.15-.19,.55,.84,.1,1.1-.46,.27,.26,.29,.84-.15,.5-.39,.71-.7,1.16-.07,.07,.1,.08,.23,.05,.34-.09,.33-.38,.46-.35,.84,.02,.28,.23,.53,.49,.62-.03-.16-.05-.32-.06-.48-.02-.31,.12-.68,.39-.86,.18-.13,.61-.04,.34,.19-.18,.17,.21,.54,.92,.27,.79-.3,1.08-1.08,.97-1.43-.01-.03-.01-.06,0-.09,.6,.15,.33,.98,.04,1.28-.01,.02-.03,.04-.03,.06-.01,.06,.06,.09,.13,.09,1.02,.02,.94-1.6,.54-2.17-.16-.2,.86,.67,.79,1.2-.03,.34-.17,.57-.34,.85-.01,.03-.02,.05-.03,.09,0,.03,.03,.08,.06,.1,.15,.12,.38,.04,.56-.03,.13-.05,.27-.12,.4-.17,.11-.04,.23-.1,.34-.1,.48,.01,.79,.4,1.21-.01,.38-.35,.51-.76,.47-1.27-.03-.44-.4-1-.19-1.65,.19-.67,.6-.26,.69,.09s-.2,.83-.12,1.75c.09,.91,1.08,1.14,1.37,1.17,.29,.03,.69-.14,.77-.29,.09-.14-.05,.58-.83,.75-.77,.17-1.12-.29-1.12-.29,0,0-.12,.72,1.14,.8,0,.02-.14,.16-.15,.17-.13,.09-.49,.02-.51,.23-.03,.23,.29,.51,.46,.61,.29,.18,.64,.2,.97,.08,.14-.05,.28-.12,.39-.23,.16-.16,.25-.4,.28-.63,.01-.11,.02-.23,.05-.33,.03-.1,.11-.2,.21-.24,.05-.02,.12-.02,.17-.02,.48-.04,.76-.64,.91-1.04,.26-.64-.13-1.18-.21-1.28,.12,.04,.88,.42,.68,1.48,0,0,.14,.45,.8,.19,0,0,.14,.8,.83,.94,.69,.15,1.34-.48,1.34-.48,0,0,.41,.38,.95,.43,0,0-.63,.26-.89,.89-.26,.62-.03,1.26-.03,1.26,0,0,.09-.94,.72-1.2,.63-.26,1.32,.03,1.32,.03,0,0-.26,.17-.26,.62,0,0-.43-.05-.69,.26-.26,.32-.32,1.13,.28,1.44,.6,.31,1.32-.23,1.32-.23,0,0,.65,.36,1.37,.4,.72,.03,1.51-.8,1.51-.8,0,0,.43,.43,1.58,.32,1.15-.12,1.32-1.01,1.29-1.47-.02-.45-.6-.77-1-.74-.29,.02-.5,.24-.72,.4-.15,.12-.28,.31-.32,.01-.02-.23,.19-.41,.35-.53,.72-.48,1.41-.19,1.41-.19,0,0,.06-.35-.26-.69-.33-.33-.94-.12-.94-.12-.12-.24-.48-.53-.47-.78,.01-.15,.06-.3-.01-.43-.04-.08-.12-.12-.18-.17-.34-.29,.18-.46,.36-.64,.25-.29,.39-.68,.47-1.03,0,0,.48-.12,1.2-.84,.71-.72,.14-2.09-.38-2.46,0,0,1.17,.28,1.08,1.74,.4,.65,1.58,.35,1.42-.47-.03-.15-.12-.28-.16-.43-.03-.14,0-.32,.14-.39,.05-.02,.11-.02,.17-.02,.18,.01,.39,.03,.56-.05,.12-.08,.2-.19,.32-.27,.21-.14,.49-.09,.76-.09h.14c.14-.02,.3-.09,.34-.21,.13-.32-.75-.53-.72-.57,.03-.05,.1-.05,.16-.05,.31,.01,.63-.08,.9-.25Zm-6.68-.67c-.38,.1-.64,.31-.86,.63-.1,.14-.44,.6-.3,.78,.27,.34,.15,1.15,.15,1.15-.14-.34-.5-.61-.61-.93-.04-.11-.03-.22-.04-.34,0-.08-.02-.17-.09-.2-.1-.03-.16,.11-.17,.21-.02,.13-.03,.27,0,.4,.1,.37,.3,.64,.34,1.04,.12,1.06-.34,1.79-.34,1.79,0,0,.34,0,1.03,.61,.69,.61,.46,2.13,.46,2.13-.04-1.94-1.98-2.4-1.98-2.4,0,0,.38-.65-.39-1.45-.76-.8-1.6-.46-1.6-.46,0,0,.15-.57-.27-1-.39-.39-1.14-.15-1.26-.12,.06-.05,.73-.69,.38-1.48-.39-.84-1.1-.84-1.1-.84,.38,.19,.57,.64,.57,.64-.39-.27-.91,.04-.91,.04,0,0,.11-1.3-.61-1.72-.73-.42-1.03-.16-1.03-.16,.08-.64-.46-1.21-.46-1.21,.46,.28,.89,.06,1.32,.41,.18,.14,.44,.21,.67,.16,.1-.02,.18-.06,.26-.13,.11-.09,.19-.2,.23-.34,.03-.14,.02-.29,.09-.42,.16-.3,.43-.19,.63-.05,.28,.17,.47,.3,.83,.33,.84,.08,1.33-.34,1.33-.34,.08,.91,.76,1.1,.76,1.1-.84-.11-1.3,.92-.79,1.57,.49,.65,1.21,.39,1.21,.39-.42-.73,.04-1.46,.04-1.46,0,0-.08,1.22,.72,1.34,.84,.12,2.35-.59,2.18-1.63-.05-.28-.26-.53-.25-.81,0-.05,.01-.1,.04-.14,.1-.14,.36-.05,.46-.19,.14-.19-.1-.41,.2-.51,.19-.07,.43,.13,.6,.2,.25,.1,.54,.06,.8-.02,.29-.1,.57-.27,.73-.52s.2-.61,.02-.86c.54-.06,.67,.63,.6,1.03-.08,.44-.44,.84-.85,1-.11,.04-.24,.1-.25,.21,0,.13,.17,.21,.17,.34,0,.11-.14,.16-.25,.17-.22,.01-.31,.1-.5,.18-.26,.12-.49,.29-.68,.5-.19,.21-.33,.52-.2,.77,.15,.31,.52,.31,.74,.52,.16,.15,.22,.4,.14,.61s-.28,.36-.5,.38c-.17,.01-.35-.06-.44-.2s-.08-.35,.04-.46c-.23-.28-.65-.34-1-.25Z"
           style="fill:url(#linear-gradient-2); opacity:.4;"
           id="path21" />
        <path
           d="M42.45,22.91c-.35,.03-.76,.04-1-.23,.44,.04,.9-.1,1.24-.38-.14,0-.28-.01-.41-.05-.46-.18-.48-.78-.7-1.15-.13-.24-.28-.48-.48-.67-.14-.13-.38-.18-.39-.41-.01-.25,.32-.58,.38-.85,.02-.09,.11-.47,.04-.55,.45,.49,.19,1.15,.19,1.15,1.24,.41,.77,1.54,.77,1.54,0,0,.46-.45,.44-.91-.03-.46-.38-.67-.38-.67,0,0,.26-.69-.17-1.46-.18-.32-.47-.56-.8-.72-.28-.13-.65-.1-.87-.35-.27-.33-.06-.79,0-1.17,.06-.41,.09-.87-.11-1.24-.34-.69-1.17-1.03-1.17-1.03,.18,.08,.16-.95,.12-1.07-.14-.31-.42-.51-.74-.6-.18-.05-.4-.04-.56,.06-.03,.02-.08,.06-.06,.11,.01,.06,.1,.08,.15,.09,.29,.04,.53,.33,.5,.62-.02,.27-.19,.29-.33,.13-.09-.1-.08-.26-.15-.35-.14-.2-.44-.31-.68-.35,.06,.01,.06-.6,.05-.65-.03-.26-.13-.5-.3-.69-.48-.51-1.07-.39-1.67-.24-.27,.06-.6,.11-.78-.1-.16-.18-.12-.46-.14-.7-.04-.43-.34-.84-.76-.91-.42-.09-.89,.27-.86,.7,.01,.12,.05,.24,.02,.34-.06,.21-.34,.26-.55,.34-.21,.08-.4,.24-.48,.45-.09,.2-.06,.46,.08,.63,.04-.39,.43-.72,.82-.65,.33,.06,.59,.47,.46,.79-.15,.36-.64,.59-.85,.98-.1-.23-.04-.5,.12-.68-.1-.12-.3-.09-.42,.01-.12,.11-.17,.26-.23,.41-.09,.23-.21,.4-.43,.51-.17,.1-.42,.09-.5,.29-.04,.11-.02,.23-.02,.34-.01,.12-.08,.25-.19,.26-.1,0-.18-.1-.24-.18-.09-.11-.18-.21-.32-.25-.13-.04-.3,.02-.33,.15-.03,.13,.06,.25,.15,.35,.06,.08,.14,.16,.21,.24,.02,.02,.04,.05,.05,.09,.05,.16-.26,.38-.32,.51-.1,.18-.11,.38-.08,.59,.02,.17,.04,.39,.12,.55,.06,.13,.27,.23,.21,.4-.05,.16-.27,.15-.42,.2-.27,.1-.35,.44-.59,.6-.1,.04-.2-.08-.2-.18-.01-.11,.05-.2,.1-.31,.3-.71-.39-.33-.64-.72-.09-.12,.03-.26,.06-.39,.05-.16-.01-.34-.14-.45-.14-.1-.33-.1-.47,0-.09,.06-.14,.15-.2,.24-.24,.28-.57,.46-.93,.49-.35,.04-.72-.08-1-.31,1.01,0,1.75-1.36,1.6-2.26-.12-.71-.68-1.32-1.37-1.5-.37-.1-.76-.08-1.12-.22s-.66-.53-.52-.88c.18-.45,.92-.47,1.06-.93-.88-.14-1.81,.14-2.48,.74-.23,.21-.44,.46-.7,.64-.44,.3-1.89-.23-1.76,.75,.01,.03,.02,.06,.04,.09,.03,.02,.06,.01,.1,.01,.43-.08,.92-.17,1.27,.11-.24,.57-.91,.17-1.28,.54-.41,.4-.41,1.06-.41,1.06,0,0-.86-.6-1.63-.24-.71,.34-.74,.94-.74,1.03,.04-.05,.33-.48,.72-.57,.4-.09,.83,.2,.83,.2,0,0-.34-.05-.69,.17-.34,.23-.4,.77-.4,.77,0-.38-1.45,0-1.58,.08-.35,.21-.59,.67-.41,1.03,.06,.12,.15,.22,.15,.35,0,.13-.11,.23-.23,.29-.25,.13-.48,.26-.74,.38-.17,.07-.31,.19-.42,.34-.08,.12-.14,.25-.14,.4s.07,.29,.2,.36c.18,.1,.43,.01,.6,.13,.18,.12,.17,.42,.02,.58-.1,.11-1.53,.46-1.42,.65-.21-.35-.43-.33-.76-.39-.25-.03-.62-.01-.62-.38,0-.21,.19-.38,.4-.44s.43-.06,.62-.14c.39-.15,.62-.69,.36-1.01-.19-.24-.59-.35-.56-.65,.02-.18,.2-.29,.31-.44,.23-.32,0-.8-.36-.97-.36-.16-.78-.06-1.15,.1-.92,.41-1.71,1.26-2.72,1.29,.32,.21,.75,.1,1.09-.06,.35-.16,.71-.36,1.08-.32,.2,.02,.43,.18,.4,.39-.01,.08-.05,.14-.11,.19-.38,.38-.89,.32-1.17,.8-.18,.33-.57,.97-.47,1.36,.05,.26-.67-.05-.8-.51-.14-.45,.05-.65-.34-.97-.4-.32-.74,.05-.94,.31-.2,.26-.12,.77,.26,.65,.2,.12-.09,.29-.09,.55s.23,.43,.14,.6c-.09,.17-.79-.14-.83-.4-.03-.26-.43-.26-.55,.36-.11,.63,.26,.98,.55,1.09,.29,.12-.17,.43-.43,.23-.26-.19-.6,.24-.63,.51,0,.04-.01,.08-.04,.1-.41-.3,.03-.74,.01-1.08-.02-.19-.19-.34-.39-.36-.18-.02-.38,.06-.51,.19-.14,.13-.24,.3-.33,.46-.03,.08-.08,.14-.13,.19-.06,.04-.16,.06-.21,.01-.06-.03-.08-.12-.12-.18-.1-.17-.33-.21-.51-.14-.65,.24-.57,1.28-.08,1.65,.24,.17,.03,.62-.43,.45-.46-.17-.46-.83-1.03-.69-.57,.15-.6,1.12,.03,1.52,.62,.4,1.46,.02,1.68,.19,.24,.17,.06,.58,.29,1.01s.63,.54,.83,.6c.2,.05-.05,.62-.48,.77-.43,.14-.74,.74-.43,1.15,.31,.4,.17,.34-.12,.54-.28,.2-.45,1.03,.06,1.27,.51,.23,.19,.57,.54,.88,.34,.32,.94,.12,1.12-.54,.17-.67,.54,.47,1.61,.94,.51,.23,1.17,.23,1.46,.19,.28-.02-.06-.01-.41-.31-.42-.38-.6-1.39-.5-1.78,.11-.4,.16,.09,.5-.01,.34-.1,.26-.32,.43-.2,.16,.12,.21,.48,.97,.71,.76,.21,1.54-.43,1.71-.62,.15-.19,.55,.84,.1,1.1-.46,.27,.26,.29,.84-.15,.5-.39,.71-.7,1.16-.07,.07,.1,.08,.23,.05,.34-.09,.33-.38,.46-.35,.84,.02,.28,.23,.53,.49,.62-.03-.16-.05-.32-.06-.48-.02-.31,.12-.68,.39-.86,.18-.13,.61-.04,.34,.19-.18,.17,.21,.54,.92,.27,.79-.3,1.08-1.08,.97-1.43-.01-.03-.01-.06,0-.09,.6,.15,.33,.98,.04,1.28-.01,.02-.03,.04-.03,.06-.01,.06,.06,.09,.13,.09,1.02,.02,.94-1.6,.54-2.17-.16-.2,.86,.67,.79,1.2-.03,.34-.17,.57-.34,.85-.01,.03-.02,.05-.03,.09,0,.03,.03,.08,.06,.1,.15,.12,.38,.04,.56-.03,.13-.05,.27-.12,.4-.17,.11-.04,.23-.1,.34-.1,.48,.01,.79,.4,1.21-.01,.38-.35,.51-.76,.47-1.27-.03-.44-.4-1-.19-1.65,.19-.67,.6-.26,.69,.09s-.2,.83-.12,1.75c.09,.91,1.08,1.14,1.37,1.17,.29,.03,.69-.14,.77-.29,.09-.14-.05,.58-.83,.75-.77,.17-1.12-.29-1.12-.29,0,0-.12,.72,1.14,.8,0,.02-.14,.16-.15,.17-.13,.09-.49,.02-.51,.23-.03,.23,.29,.51,.46,.61,.29,.18,.64,.2,.97,.08,.14-.05,.28-.12,.39-.23,.16-.16,.25-.4,.28-.63,.01-.11,.02-.23,.05-.33,.03-.1,.11-.2,.21-.24,.05-.02,.12-.02,.17-.02,.48-.04,.76-.64,.91-1.04,.26-.64-.13-1.18-.21-1.28,.12,.04,.88,.42,.68,1.48,0,0,.14,.45,.8,.19,0,0,.14,.8,.83,.94,.69,.15,1.34-.48,1.34-.48,0,0,.41,.38,.95,.43,0,0-.63,.26-.89,.89-.26,.62-.03,1.26-.03,1.26,0,0,.09-.94,.72-1.2,.63-.26,1.32,.03,1.32,.03,0,0-.26,.17-.26,.62,0,0-.43-.05-.69,.26-.26,.32-.32,1.13,.28,1.44,.6,.31,1.32-.23,1.32-.23,0,0,.65,.36,1.37,.4,.72,.03,1.51-.8,1.51-.8,0,0,.43,.43,1.58,.32,1.15-.12,1.32-1.01,1.29-1.47-.02-.45-.6-.77-1-.74-.29,.02-.5,.24-.72,.4-.15,.12-.28,.31-.32,.01-.02-.23,.19-.41,.35-.53,.72-.48,1.41-.19,1.41-.19,0,0,.06-.35-.26-.69-.33-.33-.94-.12-.94-.12-.12-.24-.48-.53-.47-.78,.01-.15,.06-.3-.01-.43-.04-.08-.12-.12-.18-.17-.34-.29,.18-.46,.36-.64,.25-.29,.39-.68,.47-1.03,0,0,.48-.12,1.2-.84,.71-.72,.14-2.09-.38-2.46,0,0,1.17,.28,1.08,1.74,.4,.65,1.58,.35,1.42-.47-.03-.15-.12-.28-.16-.43-.03-.14,0-.32,.14-.39,.05-.02,.11-.02,.17-.02,.18,.01,.39,.03,.56-.05,.12-.08,.2-.19,.32-.27,.21-.14,.49-.09,.76-.09h.14c.14-.02,.3-.09,.34-.21,.13-.32-.75-.53-.72-.57,.03-.05,.1-.05,.16-.05,.31,.01,.63-.08,.9-.25Zm-6.68-.67c-.38,.1-.64,.31-.86,.63-.1,.14-.44,.6-.3,.78,.27,.34,.15,1.15,.15,1.15-.14-.34-.5-.61-.61-.93-.04-.11-.03-.22-.04-.34,0-.08-.02-.17-.09-.2-.1-.03-.16,.11-.17,.21-.02,.13-.03,.27,0,.4,.1,.37,.3,.64,.34,1.04,.12,1.06-.34,1.79-.34,1.79,0,0,.34,0,1.03,.61,.69,.61,.46,2.13,.46,2.13-.04-1.94-1.98-2.4-1.98-2.4,0,0,.38-.65-.39-1.45-.76-.8-1.6-.46-1.6-.46,0,0,.15-.57-.27-1-.39-.39-1.14-.15-1.26-.12,.06-.05,.73-.69,.38-1.48-.39-.84-1.1-.84-1.1-.84,.38,.19,.57,.64,.57,.64-.39-.27-.91,.04-.91,.04,0,0,.11-1.3-.61-1.72-.73-.42-1.03-.16-1.03-.16,.08-.64-.46-1.21-.46-1.21,.46,.28,.89,.06,1.32,.41,.18,.14,.44,.21,.67,.16,.1-.02,.18-.06,.26-.13,.11-.09,.19-.2,.23-.34,.03-.14,.02-.29,.09-.42,.16-.3,.43-.19,.63-.05,.28,.17,.47,.3,.83,.33,.84,.08,1.33-.34,1.33-.34,.08,.91,.76,1.1,.76,1.1-.84-.11-1.3,.92-.79,1.57,.49,.65,1.21,.39,1.21,.39-.42-.73,.04-1.46,.04-1.46,0,0-.08,1.22,.72,1.34,.84,.12,2.35-.59,2.18-1.63-.05-.28-.26-.53-.25-.81,0-.05,.01-.1,.04-.14,.1-.14,.36-.05,.46-.19,.14-.19-.1-.41,.2-.51,.19-.07,.43,.13,.6,.2,.25,.1,.54,.06,.8-.02,.29-.1,.57-.27,.73-.52s.2-.61,.02-.86c.54-.06,.67,.63,.6,1.03-.08,.44-.44,.84-.85,1-.11,.04-.24,.1-.25,.21,0,.13,.17,.21,.17,.34,0,.11-.14,.16-.25,.17-.22,.01-.31,.1-.5,.18-.26,.12-.49,.29-.68,.5-.19,.21-.33,.52-.2,.77,.15,.31,.52,.31,.74,.52,.16,.15,.22,.4,.14,.61s-.28,.36-.5,.38c-.17,.01-.35-.06-.44-.2s-.08-.35,.04-.46c-.23-.28-.65-.34-1-.25Z"
           style="fill:url(#linear-gradient-3);"
           id="path22" />
        <path
           d="M29.91,19.46c.62,.1,.76,.73,1.49,.62-1.16,.68-2.13-.71-1.49-.62Z"
           style="fill:url(#linear-gradient-4); opacity:.5;"
           id="path23" />
        <path
           d="M25.35,22.06s.08-.03,.12-.05c.89-.44,.63-2.02,.1-2.65-.4-.48-.9-.56-1.49-.6-.34-.03-.7-.07-.98-.28-.02-.01-.03-.03-.04-.04,0-.03,.02-.07,.05-.08s.07,0,.1,0c.34,.07,.71,.06,1.04-.06,.52-.2,.71-.6,.87-1.09,.09-.28,.1-.59-.02-.85-.21-.45-.75-.64-1.24-.7-.13-.02-.29-.05-.32-.17-.03-.13,.11-.24,.24-.29s.29-.09,.34-.21c.11-.27-.36-.46-.34-.75,0-.17,.18-.28,.34-.32,.02,0,.05-.01,.07,0,.02,.02,.02,.05,.01,.07-.01,.1-.03,.2-.01,.3,.1,.41,.96,.24,1.15-.02,.57-.78-.32-1.47-.32-1.47,0,0-.25-.9-.83-1.03s-.88,.09-.88,.09c0,0-.29-.18-.54-.12s-.49,.4-.34,.65c.09,.15,.21,.27,.36,.35-.32,.01-.77-.11-1.05,.11-.3,.23-.22,.68,.06,.9,.28,.21-.25,.06-.33-.1s-.1-.53-.1-.53c0,0-.21-.03-.41,.16s-.16,.91-.04,1.2-.31,.19-.44,0-.35-.42-.64-.5-.07,.23,.09,.4,.23,.49,.23,.49c0,0,.09,.25-.16,.32s-.31-.18-.54-.26c-.54-.18-.8,.7-.63,1.05,.13,.27,.38,.45,.65,.57-.25,.3-.8,.25-1-.08-.04-.06-.06-.13-.12-.18-.11-.09-.29-.05-.38,.07s-.11,.26-.11,.4c0,.46,.22,.92,.57,1.23-.25,.03-.59,.02-.67-.23-.09-.3-.05-.5-.35-.71-.2-.14-.47-.2-.71-.13-.25,.07-.49,.3-.45,.56,0,.03,.01,.07,.04,.09,.04,.03,.1,0,.14,.02,.07,.03,.08,.12,.05,.19s-.08,.13-.1,.2c-.02,.09,.03,.18,.08,.26,.13,.19,.31,.36,.51,.48,.23,.14,.53,.26,.57,.53,0,.03,0,.06,0,.08-.02,.03-.05,.04-.08,.05-.27,.06-.59-.14-.83,.02-.13,.08-.18,.25-.16,.4s.1,.29,.2,.4c.27,.33,.64,.56,1.01,.77-.61,.13-1.29-.17-1.61-.71-.17-.29-.58-.93-1.02-.6-.28,.22-.18,.77-.52,.9-.17,.06-.37-.05-.47-.21s-.12-.35-.13-.54c-.03-.15-.29-.12-.36,.02s-.05,.31-.08,.46-.16,.32-.31,.27c-.16-.06-.19-.84-.33-1.05-.16-.25-.68-.46-.55-.83,.05-.16,.19-.27,.32-.36,.18-.12,.38-.23,.59-.3,.11-.04,.23-.08,.32-.15s.15-.21,.11-.32c-.06-.16-.3-.18-.45-.09s-.25,.24-.38,.36-.34,.18-.48,.08c-.06-.04-.09-.11-.15-.15-.12-.08-.28-.04-.41,.02-.72,.38-.9,1.49-.06,1.84-.73,.44-1.66,.09-2.07-.6-.08-.13-.2-.29-.34-.23-.26,.53-.04,1.25,.48,1.54,.07,.04,.14,.07,.19,.14s.05,.17-.02,.21c-.05,.03-.12,.02-.16,.07-.04,.04-.02,.11,.01,.16,.14,.26,.4,.46,.69,.53-.24,.62-1.3-.05-1.28-.51,0-.16,.06-.31,.03-.47-.06-.31-.43-.46-.75-.48-.13,0-.28,.02-.34,.13-.09,.15,.06,.33,.2,.43s.32,.2,.33,.38c.01,.21-.24,.34-.33,.53-.13,.26,.07,.58,.31,.75-.25-.09-.53-.22-.59-.48-.03-.16,.03-.33-.03-.48-.25-.02-.49,.14-.59,.37s-.02,.51,.17,.67c.08,.07,.2,.17,.13,.26-.03,.05-.1,.05-.16,.05-.15,0-.31-.02-.4-.13-.09-.11-.09-.29-.21-.36-.17,.13-.27,.44-.5,.44-.15,0-.28-.12-.34-.26s-.06-.3-.05-.45c-.05,.2-.12,.4-.21,.59-.16-.36-.19-.78-.08-1.17-.09,.05-.14,.14-.18,.24-.11,.25-.22,.51-.23,.78s.08,.57,.3,.72c.06,.04,.12,.07,.17,.12s.08,.13,.04,.19c-.02,.03-.05,.05-.09,.07-.2,.1-.53,.16-.52,.46,0,.14,.1,.27,.22,.34,.08,.04,.17,.07,.21,.15,.03,.06,.02,.12,.02,.18,0,.21,.16,.38,.35,.47s.4,.09,.61,.07c.18-.02,.37-.07,.52-.18,.15-.12,.25-.3,.38-.45,.09-.1,.2-.18,.32-.25,.16-.08,.48-.12,.48,.14,0,.13-.19,.16-.24,.27-.09,.22,.23,.66-.09,.63-.13-.01-.52,.01-.59,.37s-.26,.21-.53,.27-.36,.19-.4,.26-.16-.06,.13-.31,.59-.2,.59-.2c0,0-.36-.23-.77,.04s-.23,.93-.23,.93c0,0-.29,.09-.46,.29s.04,.69,.04,.69c0,0,.39-.33,.92-.07,0,0-.73,.01-1.07,.47s.06,1,.49,.84c.34-.13,.36-.57,.64-.78,.18-.13,.47-.14,.61,.03,.08,.1,.09,.23,.12,.35,.07,.3,.22,.58,.44,.8,.03,.03,.07,.06,.11,.07,.15,.03,.22-.19,.2-.35-.03-.43-.05-.88,.1-1.28,.02-.06,.05-.12,.1-.14,.11-.05,.21,.06,.3,.14,.17,.15,.41,.2,.62,.12s.37-.27,.41-.49c.04-.26-.05-.6,.18-.73,.39-.21,.48,.4,.76-.2,.13-.27-.05-.75-.08-1.02-.25,0-.52-.05-.73-.2,.49,.11,.94-.25,1.31-.58,.11,.37,.46,.63,.84,.74s.77,.07,1.16,.04c.01,.18-.15,.34-.32,.39s-.36,.04-.54,.04c-.25,0-.51,.04-.71,.19-.5,.36-.41,1.24-.64,1.74-.16,.35-.61,.52-.97,.37-.04,.07,0,.17,.08,.21,.77,.51,1.91,.38,2.55-.29-.07,.3,.2,.6,.5,.62s.59-.18,.72-.45c.12-.25,.12-.56,0-.82,.18,.38,1.04,.21,.76,.78-.04,.08-.09,.17-.1,.26-.01,.12,.04,.24,.14,.31,.11,.08,.25,.08,.38,.1s.28,.07,.33,.19c.05,.12,0,.27,.07,.38,.12,.19,.71,.46,.93,.42,.34-.06,.62-.65,.7-.93,.17-.59-.11-.99-.11-.99,0,0,.42,.13,.55,.34s.17,.57,.32,.46-.02-.82-.25-1.11-.69-.38-.69-.38c0,0,.52-.11,1.24,.4s.97,1.03,.92,1.43c0,0,.36-.59-.11-1.22,0,0,.5,.34,.48,.88,0,0,.17,.19,.69-.04s.21-1.24,.21-1.24c0,0,.32,.25,.4,.46s.31,.21,.17-.29c-.1-.39-.36-.66-.61-.97,.13-.15,.43-.1,.51-.28,.03-.06,.01-.14,.03-.21,.03-.13,.17-.22,.3-.23s.27,.03,.39,.08c.2,.08,.4,.17,.58,.27-.06-.35-.24-.68-.52-.9-.13-.11-.28-.19-.4-.32s-.19-.3-.14-.46c.02-.04,.04-.08,.08-.11,.03-.02,.06-.03,.1-.04,.41-.1,.81-.24,.66-.79-.09-.33-.48-.31-.56-.6-.04-.15,0-.3,.03-.45,.02-.08,.08-.18,.16-.15,.05,.02,.06,.08,.08,.12,.21,.8,.95,.78,1.55,1.14,.17,.1,.32,.23,.5,.31s.4,.11,.56,0c.04-.02,.07-.06,.09-.1,.03-.1-.08-.19-.08-.3,0-.16,.23-.17,.39-.16,.22,.02,.44-.01,.65-.08,.05-.02,.11-.04,.13-.09,.04-.1-.07-.18-.16-.24-.25-.18-.35-.6-.11-.8,.04-.04,.1-.06,.15-.09Z"
           style="fill:url(#linear-gradient-5); opacity:.7;"
           id="path24" />
        <path
           d="M6.72,21.37c.02-.46-.14-.81-.41-.79s-.24,.3-.11,.49c0,0-.24-.11-.28-.26s.19-.31,.19-.31c0,0-.05-.05-.31,.04s-.31,.47-.31,.47c0,0-.14-.18-.45-.14s-.27,.46-.01,.57c0,0-.16,.35-.05,.62s.61,.26,.61,.26c0,0-.34-.15-.41-.37,0,0,.19,.19,.66,.24,0,0-.26-.15-.33-.26,0,0,.51,.07,.72,.46,0,0,.07-.38-.26-.7,0,0,.27,.01,.39,.3,0,0,.16-.23,.05-.43,0,0,.28,.19,.3-.2Z"
           style="fill:none;"
           id="path25" />
        <path
           d="M10.32,30.04c-.03,.29,.18,.54,.56,.64s.77,.44,.97,.56,.1-.28-.26-.51-.82-.26-.87-.67-.38-.28-.41-.03Z"
           style="fill:url(#linear-gradient-6); opacity:.5;"
           id="path26" />
        <path
           d="M15.61,31.56c-.4-.1-.61-.74-.5-1.03s.29,.08,.27,.31-.04,.48,.23,.73Z"
           style="fill:url(#linear-gradient-7); opacity:.5;"
           id="path27" />
        <path
           d="M22.05,30.91c-.52,.1-1.1-.45-1.32-.58s-.26,.39,.06,.61,.77,.26,1.26-.03Z"
           style="fill:url(#linear-gradient-8); opacity:.5;"
           id="path28" />
        <path
           d="M29.51,33.7c.19,1.02,.81,1.76,1.27,1.86s1.14,0,1.16-.24-.87-.3-1.29-.45c-.75-.26-1.14-1.17-1.14-1.17Z"
           style="fill:url(#linear-gradient-9); opacity:.5;"
           id="path29" />
        <path
           d="M38.35,26.53c.04,.42-.46,1.09-.88,1.22s.25,.34,.69,0,.19-1.22,.19-1.22Z"
           style="fill:url(#linear-gradient-10); opacity:.5;"
           id="path30" />
        <path
           d="M40.33,27.23c-.02,.16-.54,.36-1.01,.38s-.65,.85-.52,1.15-.13,.63,.07,1.06,1.01,.58,1.24,.31,.45-1.3-.11-1.64c0,0,.61-.04,.88-.38s.4-1.03,.16-1.3c0,0,.29,.16,.36,.34s.04,.83-.2,1.24c0,0,.43-.13,.67-.65s.02-.99-.16-1.12,.06-.51-.7-.65c-.47-.09-.83,.4-.83,.4,0,0-.25-.16-.45,.04s-.25,.67,.02,.79,.58,.04,.58,.04Z"
           style="fill:url(#linear-gradient-11); opacity:.5;"
           id="path31" />
        <path
           d="M40.19,30.86c.42,.05,1.05-.49,.95-1.37,0,0,.24-.24,.46-.2s.32,.59,.32,.59c0,0,.15-.07,.44,.07,.49,.25,.42,.85,.05,1.12s-.49,.51-.15,.46,.51-.46,.51-.46c0,0-.15,.88-1.05,1.15s-1.32-.02-1.32-.02c0,0,.68,.02,1.07-.37s.07-.61-.1-.46-.68,.51-1.76,.46c0,0,.68-.17,1.25-.59s.46-.56,.22-.44-.59,.12-.9,.05Z"
           style="fill:url(#linear-gradient-12); opacity:.5;"
           id="path32" />
        <path
           d="M40.17,27.61c-.21,.06-.81,.24-1,.36s-.24,.49-.15,.55,.43,.03,.43,.03c-.15,.12-.35,.23-.43,.41-.07,.17,0,.42,.18,.49,.33,.13,.57-.19,.57-.44s-.07-.52-.34-.64,.26-.27,.56-.34c.61-.13,.74-.69,.6-.72s-.08,.19-.43,.29Z"
           style="fill:url(#linear-gradient-13); opacity:.3;"
           id="path33" />
        <path
           d="M26.62,16.46c-.13,.02-.26,.07-.38,.13,.19,.02,.39,.04,.55,.15s.23,.36,.1,.5c-.08,.09-.22,.12-.34,.09-.35-.07-1.01-.21-1.15,.3-.06,.21,.29,.46,.61,.53s1.03-.17,1.03-.17c0,0-.55,.48-1.24,.5,0,0,.34,.29,.93,.23s.74-.44,.74-.44c0,0-.02,.52-.53,.69,0,0,.4,.27,.78,.08s.46-.9,.29-1.14,.44,.02,.4,.57,.52-.18,.29-.52c-.21-.31-.2-.49-.21-.83-.01-.3-.19-.62-.55-.43-.09,.05-.15,.12-.23,.18s-.18,.1-.27,.08c-.14-.04-.19-.2-.27-.32-.1-.13-.28-.19-.45-.19-.03,0-.06,0-.1,0Z"
           style="fill:url(#linear-gradient-14);"
           id="path34" />
        <path
           d="M34.98,30.43c0-.2-.23-.34-.39-.42-.14-.07-.18-.04-.24-.2-.04-.12,0-.24-.1-.34,0,0-.01-.01-.02-.02-.01,0-.03,0-.05,0-.07,.02-.11,.11-.11,.19s0,.16-.02,.23c-.07,.18-.43,.25-.36,.49,.04,.14,.31,.25,.44,.3,0,0,.27,.1,.11,.27s-.63-.36-1.11-.38-.84,.21-.78,.44,.57,.08,1.07,.32-.27,.17-.36,.55,.42,.46,.65,.4,.71-.02,.69,.23-.55,.74-1.18,.63,.17,.48,1.07,.1,.92-1.11,.86-1.55,.32-.95,.8-.93-.35-.32-.8,.04c-.29,.23-.73,.31-.55,.06s.4-.29,.4-.4Z"
           style="fill:url(#linear-gradient-15); opacity:.5;"
           id="path35" />
        <path
           d="M36.42,23.23c-.45-.19-.84,.32-.88,.74s-.04,.61,.11,.82,.74-.27,.8-.59,.42,.1,.06,.78-.92,.65-.92,.65c0,0,.65,.15,1.14-.38s.42-.84,.34-1.11-.27-.74-.67-.92Z"
           style="fill:url(#linear-gradient-16); opacity:.3;"
           id="path36" />
        <path
           d="M37.47,24.6c-.15-.1-.08,.67-.4,.99,0,0,.69-.15,.4-.99Z"
           style="fill:url(#linear-gradient-17); opacity:.3;"
           id="path37" />
        <path
           d="M29.7,17.42c.17-.25,1.03-.69,1.6-.46s.67,1.07,.48,1.41-.65,.25-.69,.06,.21-.74-.32-.95-.93,.02-1.07,.25-.19-.02,0-.31Z"
           style="fill:url(#linear-gradient-18); opacity:.4;"
           id="path38" />
        <path
           d="M31.32,16.69c-.33-.4-.94-1.47-.65-1.69s.98,.05,1.11,.52c0,0,.12-.36-.23-.59,0,0,.41-.08,.68,.27s.21,.62,.44,.62,.51,0,.75,.13c.37,.19,.42,.89,.29,1.14s.31,.06,.3-.22-.09-.37-.09-.37c.13,.16,.58,.02,.64,.35,.06,.28-.4,.68-.61,.77-.31,.13-.74-.07-.95-.3,0,0-.1,.14-.68,.02s-.81-.73-.84-.94-.11-.42-.22-.38,0,.59,.07,.67Z"
           style="fill:url(#linear-gradient-19); opacity:.4;"
           id="path39" />
        <path
           d="M33.15,13.01c-.29,.39-.27,.54-.27,.54,0,0-.04,.2-.03,.37,0,0-.23-.4-.06-.62,0,0-.17-.26-.3-.21s-.17,.29-.17,.29c0,0-.23,.1-.3,.3s.09,.42,.46,.33c0,0-.11,.31,.06,.57,.07,.14-.14,.43,.03,.77s.52,.31,.73,.16,.26-.01,.5-.04,.4-.47,.14-.7c-.19-.1-.36-.43-.19-.66,0,0,.2,.26,.44,.31,.2,.03-.1-.3-.19-.66s-.1-.82,.19-1.02,.21-.49,0-.47-.06-.44,.4-.47c0,0-.54-.26-.87,.43,0,0-.67,.04-.57,.77Z"
           style="fill:url(#linear-gradient-20); opacity:.5;"
           id="path40" />
        <path
           d="M35.58,14.04c-.45-.08-.77-.21-.9-.5s-.09,.2,.1,.44-.17,.16-.27,.01-.19,.01-.1,.42,.33,.6,.42,.63-.19,.34-.21,.6,.19,.4,.47,.42,.36-.53,.31-.76,.39-.19,.54,.31-.37,.74-.24,1.3,.67,.64,.67,.64c0,0-.37,.16-.74-.19s-.07,.47,.56,.59c.73,.13,1.01-.45,1.01-1.09,0-.11,0-.22,.01-.32s.07-.21,.16-.27,.23-.05,.29,.04c.04,.05,.04,.11,.05,.17,.01,.43-.29,.83-.39,1.24-.03,.12-.04,.25,.02,.36,.05,.1,.15,.16,.26,.19,.29,.08,.54,.04,.77-.16,.06-.05,.11-.11,.14-.18,.22-.49-.58-.58-.46-.94,.13-.41,.56-.02,.66,.18,0,0,.27-.29-.01-.9s-.86-.53-.86-.53c0,0,0-.52-.53-.72s-.31-.39-.24-.69-.2-.43-.57-.34-.56,.11-.9,.06Z"
           style="fill:url(#linear-gradient-21); opacity:.5;"
           id="path41" />
        <path
           d="M34.88,12.55c.13-.33,1.02-.52,1.33-.36s.53,.9,.84,1.17,.94,.54,.07,.49-1.22-.42-1.3-.54,.31,.17,.64,.13-.43-.27-.54-.62-.56-.46-1.04-.27Z"
           style="fill:url(#linear-gradient-22); opacity:.3;"
           id="path42" />
        <path
           d="M38.72,14.6c.5,.06,.92,.73,.93,1.23s-.16,.59-.26,.66-.07-.84-.27-1.26-.49-.6-.7-.62,.3-.01,.3-.01Z"
           style="fill:url(#linear-gradient-23); opacity:.3;"
           id="path43" />
        <path
           d="M34.61,17.85c-.97,.12-.87,1.1-.39,1.52,0,0-.09-.42,.18-.63s.87,.45,.3,.92-.66,.21-.9-.06-.66-.66-.87,.03,.24,.81,.6,.81,.69,0,.57,.24,.06,.63,.63,.57,.84-.54,.92-.87-.15-.66-.39-.87-.18-.72,.18-.78,.09-1.01-.84-.9Z"
           style="fill:url(#linear-gradient-24); opacity:.4;"
           id="path44" />
        <path
           d="M40.69,18.2c0-.09-.04-.19-.1-.29-.16-.25-.43-.41-.71-.53-.14-.07-.29-.13-.44-.14-.04,0-.07,0-.1,.02-.06,.05-.02,.14,.03,.19,.11,.13,.26,.22,.39,.33s.24,.26,.25,.43c0,.07-.02,.14-.04,.22-.08,.29-.2,.6-.48,.76-.17,.1-.39,.08-.52,.26-.1,.15-.08,.36,.01,.51,.05,.08,.12,.14,.2,.17,.06,.02,.26,0,.28,.03,0,0,.51,.45-.24,.78,0,0-.45-.72-1.13-.33s-.39,1.28-.09,1.4,.36,.15,.72,.06,.66,.03,.36,.24-.57,.24-.45,.72,.51,.63,1.16,.57,.9-.72,.87-1.07-.36-.87-.78-.92-.27-.54,.09-.54,.87,.3,.9,.78c0,0,.12-.51-.09-.75s.6,.03,.42,1.1c.15-.21,.24-.49,.24-.74,0-.54-.45-.78-.83-1.07-.23-.17-.35-.46-.36-.75-.02-.51,.49-.96,.45-1.43Z"
           style="fill:url(#linear-gradient-25); opacity:.4;"
           id="path45" />
        <path
           d="M18.44,32.89c.2,.49,.5,.89,1.18,.96,.26,.03,.56-.03,.7-.25,.04-.07,.06-.14,.1-.21,.14-.22,.46-.22,.72-.23,.28-.02,.56-.1,.76-.29s.28-.53,.12-.75c-.16-.23-.48-.28-.76-.28-.24,0-.47,.01-.7,.08-.36,.11-.83,.46-1.22,.25-.26-.14-.43-.6-.5-.87-.12,.27-.07,.59-.01,.87-.26-.13-.39-.41-.54-.66s-.39-.49-.68-.46c.49,.46,.59,1.22,.85,1.84Z"
           style="fill:url(#linear-gradient-26); opacity:.5;"
           id="path46" />
        <path
           d="M25.51,28.08c-.28,.59-1.12,.62-1.42,.61s-.28,.76,.52,.59,.83-.59,.9-1.2Z"
           style="fill:url(#linear-gradient-27); opacity:.3;"
           id="path47" />
        <path
           d="M23.94,24.76c-.5-.11-.88,.11-.93,.32s-.04,.4-.04,.4c0,0-.32,.23-.44,.52s.02,.59,.02,.59c0,0,.06-.55,.38-.73s.61-.29,.5-.44-.21-.5,.52-.67Z"
           style="fill:url(#linear-gradient-28); opacity:.3;"
           id="path48" />
        <path
           d="M27.3,27.22l.39-.02c-.02,.2-.22,.34-.41,.4s-.41,.08-.58,.19c-.21,.13-.32,.42-.22,.65,.15,.35,.43,.13,.65,.26,.35,.2,.08,.25,0,.52-.03,.12,.08,.24,.2,.26s.25,0,.37-.03c.32-.04,.65,.03,.91,.21-.17-.08-.37,0-.54,.09-.59,.3-.24,1.03,.33,1.05,.27,0,.53-.08,.69-.31,.01-.02,.16-.32,.13-.33,.94,.2,1.16-.24,1.16-.24-.81,.02-.92-.43-.92-.43,0,0,.35,.14,.88,.08s.71-.2,.71-.2c.02,.98,.63,.88,.63,.88-.35-.43-.08-.79-.08-.79,0,0,.31,.43,.65,.45s.59-.37,.41-.73c-.15-.29-.52-.34-.74-.54,.79-.3,1.12,.5,1.2,1.13,0,.03,0,.07,.03,.09,.03,.04,.09,.06,.14,.06,.38,0,.63-.68,.62-.99,0-.17-.1-.33-.23-.45s-.29-.18-.46-.23c-.05-.02-.11-.03-.15-.07-.13-.12-.02-.32-.07-.46-.05-.14-.15-.23-.27-.3-.19-.13-.53-.26-.76-.17,.45-.16,.81-.12,.81-.12,0,0,.1-.94-.49-1.26s-1.47,.06-1.47,.06c0,0-.08-.35-.57-.37s-.69,.43-.69,.43c0,0-.12-.63-.73-.77s.14-.41-.08-.83c0,0,.41,.12,.77-.2,.27-.24,.37-.65,.2-.98-.21-.41-.61-.12-.96-.05-.16,.03-.35,.01-.46-.11-.11-.12-.12-.3-.11-.46,.03-.44-.03-.92-.5-1.11,0,0,.45-.08,.65,.26,0,0-.08-.81-.65-.96s-.92,.18-.96,.41,.08,.49,.26,.53c0,0-.24,.33-.18,.63s.41,.55,.59,.59c0,0-.28,.26-.16,.59-.46-.09-.99-.06-1.3,.33-.03,.04-.06,.08-.1,.09-.04,.01-.08,0-.11,0-.61-.08-1.09,.63-1.47,1l-.29,.28c-.37,.36-.75,.74-.87,1.24l1.45-.48-.93,.65-.29,.2c-.23,.16-.46,.32-.64,.52-.23,.25-.39,.57-.45,.91-.02,.09-.02,.18,.02,.26,.04,.07,.13,.11,.21,.13,.39,.12,.84,.02,1.15-.24,.11-.1,.21-.21,.35-.27,.12-.05,.26-.04,.39-.05,.51-.02,1.02-.2,1.41-.52,.11-.09,.21-.18,.34-.24,.14-.06,.3-.07,.46-.08l.68-.03Z"
           style="fill:url(#linear-gradient-29); opacity:.4;"
           id="path49" />
        <path
           d="M11,22.69c.1,.02,.3,0,.37,.07,.12,.12-.11,.17-.21,.17-.15,0-.3,0-.45,0-.05,0-.13,.02-.12,.07,0,.02,.02,.04,.04,.06,.21,.2,.49,.27,.72,.42-.44,.2-1.03,.15-1.49-.01l.42,.47s.04,.05,.04,.08c0,.09-.12,.1-.21,.08-.65-.14-1.15-.2-1.64-.7-.07-.07-.14-.16-.17-.25s-.01-.22,.07-.28c.13-.1,.35-.04,.44-.17,.06-.09,.02-.2-.02-.3l-.29-.68,.41,.33c-.14-.23-.2-.61-.04-.84l.09-.12s.06-.06,.08-.03c0,0,0,.02,0,.03l.03,.3c0,.05,0,.1,.02,.15,.06,.27,.34,.48,.55,.63,.24,.16,.51,.31,.79,.4,.18,.06,.37,.1,.56,.13Z"
           style="fill:url(#linear-gradient-30); opacity:.6;"
           id="path50" />
        <path
           d="M6.44,23.28c0,.05-.01,.1-.06,.12-.06-.06-.17,.02-.16,.11,.08,.72,1.76,.36,2.12,.17-.42-.15-.83-.31-1.2-.57-.16-.11-.33-.25-.53-.24-.07,0-.14,.02-.17,.08-.06,.09,0,.23,0,.33Z"
           style="fill:url(#linear-gradient-31); opacity:.6;"
           id="path51" />
        <path
           d="M12.62,19.86c.02,.09,0,.17,.01,.26,.01,.3,.22,.59,.5,.71-.25-.04-.52-.09-.71-.27-.23-.22-.26-.58-.43-.85-.12-.2-.32-.35-.42-.56-.15-.33-.01-.86,.37-.93,.04,.25-.1,.54,0,.8,.13,.35,.61,.46,.68,.84Z"
           style="fill:url(#linear-gradient-32); opacity:.6;"
           id="path52" />
        <path
           d="M20.17,23.04c-.07-.08-.13-.18-.14-.29-.04-.36,.42-.77,.76-.81,.04,0,.09,0,.12-.02,.15-.06,.14-.26,.16-.42,.06-.31,.34-.52,.61-.69,.04-.02,.08-.05,.12-.04,.08,.01,.1,.11,.1,.19,0,.25-.13,.48-.18,.73s0,.56,.24,.65c.18,.07,.38-.01,.57,0,.28,.02,.34,.24,.54,.37,.1,.06,.35,.11,.42,.17-.24-.26-.34-.65-.24-1l.44,.2c.42-.61,.04-1.4-.58-1.68-.15-.07-.32-.11-.43-.24s-.11-.36,.05-.41c.09-.03,.18,0,.27,.03,.2,.05,.42,.03,.6-.07-.18-.15-.4-.24-.61-.35-.27-.15-.98-.82-.55-1.17,.06-.05,.15-.05,.22-.05,.34,0,.68-.15,.91-.41-.18,0-.36-.03-.52-.1,.33-.08,.64-.23,.91-.44-.72-.24-1.27-.91-1.37-1.66-.05-.38,0-.77-.03-1.16s-.17-.79-.5-1c.21,.17,.14,.51-.02,.73s-.38,.4-.45,.66c-.05,.19,0,.4,.09,.58-.26-.17-.42-.49-.38-.8-.19,.41,.14,.86,.45,1.18s.64,.78,.45,1.18c-.09,0-.17,.03-.25,.05,0,.4,.04,.79,.11,1.18-.24,.02-.35,.33-.34,.57s.07,.52-.07,.72c-.52-.2-.88-.78-.82-1.33,.07-.71,.72-1.36,.48-2.03-.16-.45-.74-.69-1.17-.48s-.6,.82-.34,1.22c.13,.2,.33,.5,.13,.62-.36-.26-.79-.41-1.23-.43l.63,.63h-.41c.08,0,.33,.34,.38,.41,.12,.15,.2,.3,.18,.51-.39-.16-.8-.27-1.22-.33-.12-.02-.27-.02-.34,.08-.06,.08-.03,.2,.01,.29,.07,.15,.16,.28,.27,.4,.09,.08,.18,.16,.25,.25s.11,.22,.07,.34c-.07,.17-.28,.21-.46,.2s-.38-.05-.53,.05l.29,.39s.03,.05,.04,.07c0,.07-.1,.11-.17,.09s-.13-.07-.21-.07c-.03,.15,.1,.28,.22,.38l.57,.46c.2,.16,.4,.32,.53,.54s.18,.5,.05,.73c-.35-.57-.97-.95-1.63-1.01-.16-.01-.33-.01-.49-.04-.39-.07-.72-.31-1.04-.54-.11-.08-.22-.16-.35-.17s-.28,.09-.27,.22c0,.08,.06,.14,.12,.2l.84,.91c-.22,.08-.47,.05-.68-.04-.29-.13-.62-.3-.9-.46-.3-.17-.65-.43-.71-.79-.17,.32-.34,.82-.26,1.19,.06,.28,.34,.46,.41,.75,.05,.24,.14,.17-.14,.28-.36,.14-.99-.08-1.2-.4-.4-.59,.32-.59,.35-1.05,.01-.15-.08-.29-.19-.38s-.25-.16-.39-.23c-.23-.12-.45-.29-.63-.47,.29,.45,.68,.79,.36,1.26-.3,.44-.62,.72-.24,1.28,.21,.31,.53,.5,.85,.69,.11,.06-.48,.25-.48,.25-.15,.11-.31,.13-.28,.4,.07,.6,1.3,.88,1.49,.2,.03-.1,.04-.2,.07-.29,.1-.26,.43-.39,.7-.32s.48,.3,.59,.56c.05,.11,.08,.24,.06,.36-.04,.25-.28,.41-.51,.51s-.49,.16-.67,.33c-.55,.49,.14,1.1,.65,1.13,.23,.01,.47,0,.68,.12,.13,.07,.23,.2,.23,.34,0,.24-.26,.47-.16,.7,.08,.19,.35,.2,.54,.13,.13-.05,.25-.11,.36-.2,.05-.04,.1-.08,.16-.11s.14-.01,.18,.04c.09,.12-.09,.34,.04,.42,.02,.02,.05,.02,.08,.02,.24,.02,.42-.24,.47-.48,.08-.37-.03-.78-.28-1.06-.07-.08-.16-.16-.23-.24-.02-.02-.03-.04-.04-.06,0-.06,.09-.08,.15-.07,.32,.04,.65,0,.95,.05,.4,.08,.82,.28,1.18,.47-.4-.24-.77-.52-1.1-.84,.83,.18,1.61,.59,2.23,1.17-.05-.27-.17-.52-.23-.78s-.05-.57,.13-.78c.26-.31,.74-.26,1.13-.18-.62-.12-1.43-.9-.5-1.24,.15-.06,.32-.11,.4-.25,.12-.21-.05-.47-.23-.63-.1-.08-.21-.17-.3-.27Z"
           style="fill:url(#linear-gradient-33);"
           id="path53" />
        <path
           d="M13.83,27.03c.08,.02,.16,.03,.25,.04-.56,.12-1.04-.07-1.5-.38-.11-.07-.21-.16-.26-.27s-.04-.27,.06-.35c.34-.28,.54,.31,.67,.49,.21,.29,.45,.4,.78,.47Z"
           style="fill:url(#linear-gradient-34); opacity:.4;"
           id="path54" />
        <path
           d="M29.17,28.28c.02-.29,.03-.57,.07-.86,.04-.25,.12-.51,.12-.76s-.13-.53-.38-.62c.42,.07,.81,.27,1.11,.57-.08-.21-.2-.4-.34-.57,.6-.1,1.25,.03,1.71,.42s.71,1.05,.55,1.63c-.3,.43-.94-.08-1.32,.15-.42,.25-.32,.87-.94,.98-.97,.17-1.84-1.29-1.11-2.01-.06,.23-.03,.47,.07,.67,.04,.07,.46,.45,.46,.42Z"
           style="fill:url(#linear-gradient-35); opacity:.7;"
           id="path55" />
        <path
           d="M9,25.78c-.01,.12-.02,.24-.03,.33-.01,.12-.03,.25-.08,.37-.07,.16-.43,.56-.63,.4,.05-.09,.07-.21,.04-.31-.23,.09-.38,.31-.57,.46-.22,.17-.51,.25-.79,.23-.1,0-.21-.03-.27-.11-.05-.07-.06-.16-.06-.24,.04-.38,.39-.65,.74-.8s.74-.25,1.02-.5c.16-.14,.22-.33,.4-.47,.21-.16,.46-.26,.71-.36-.37,.15-.45,.62-.48,1.01Z"
           style="fill:url(#linear-gradient-36); opacity:.7;"
           id="path56" />
        <path
           d="M28.15,25.01s.01,.09,.02,.13c.04,.16,.11,.32,.11,.48,.01,.29-.18,.54-.36,.77-.19,.24-.37,.35-.64,.48-.62,.27-1.33,.32-1.98,.14-.11-.03-.23-.08-.25-.19-.03-.11,.06-.23,.17-.27s.23-.05,.34-.09c.24-.07,.42-.29,.47-.53-.44,.19-.99,.06-1.3-.3,.14-.15,.38-.07,.58-.07,.36,0,.65-.29,.86-.58,.25-.34,.46-.71,.61-1.09,.04-.1,.09-.21,.18-.27s.25-.03,.27,.08c.02,.11-.11,.22-.06,.32,.06,.11,.22,.04,.32-.04l.57-.48c.15-.13,.39-.26,.53-.11-.03,.4-.26,.58-.39,.9-.07,.19-.07,.49-.04,.73Z"
           style="fill:url(#linear-gradient-37); opacity:.7;"
           id="path57" />
      </g>
    </g>
  </g>
</svg>
