<?xml version="1.0" encoding="UTF-8" standalone="no"?>
<svg
   viewBox="0 0 48 48"
   version="1.1"
   id="svg8"
   sodipodi:docname="8-Smoke_Colour.svg"
   inkscape:version="1.3-dev (e30a5ffc, 2022-05-30)"
   xmlns:inkscape="http://www.inkscape.org/namespaces/inkscape"
   xmlns:sodipodi="http://sodipodi.sourceforge.net/DTD/sodipodi-0.dtd"
   xmlns:xlink="http://www.w3.org/1999/xlink"
   xmlns="http://www.w3.org/2000/svg"
   xmlns:svg="http://www.w3.org/2000/svg">
  <sodipodi:namedview
     id="namedview8"
     pagecolor="#ffffff"
     bordercolor="#000000"
     borderopacity="0.25"
     inkscape:showpageshadow="2"
     inkscape:pageopacity="0.0"
     inkscape:pagecheckerboard="0"
     inkscape:deskcolor="#d1d1d1"
     showgrid="false"
     inkscape:zoom="13.906433"
     inkscape:cx="22.471614"
     inkscape:cy="24.341252"
     inkscape:window-width="2560"
     inkscape:window-height="1378"
     inkscape:window-x="-6"
     inkscape:window-y="-6"
     inkscape:window-maximized="1"
     inkscape:current-layer="svg8" />
  <defs
     id="defs8">
    <linearGradient
       inkscape:collect="always"
       id="linearGradient10">
      <stop
         style="stop-color:#7c009b;stop-opacity:0.66037732;"
         offset="0"
         id="stop9" />
      <stop
         style="stop-color:#5c3566;stop-opacity:0;"
         offset="1"
         id="stop10" />
    </linearGradient>
    <style
       id="style1">.cls-1{isolation:isolate;}.cls-19,.cls-2,.cls-21,.cls-22{fill-rule:evenodd;}.cls-2{fill:url(#radial-gradient);}.cls-3{fill:#b6b8b4;}.cls-4{fill:url(#linear-gradient);}.cls-5{fill:url(#linear-gradient-2);}.cls-6{fill:url(#linear-gradient-3);}.cls-7{fill:url(#linear-gradient-4);}.cls-8{fill:url(#linear-gradient-5);}.cls-9{fill:url(#linear-gradient-6);}.cls-10{fill:url(#linear-gradient-7);}.cls-11{fill:url(#linear-gradient-8);}.cls-12{fill:url(#linear-gradient-9);}.cls-13{fill:url(#linear-gradient-10);}.cls-14{fill:url(#linear-gradient-11);}.cls-15{fill:url(#linear-gradient-12);}.cls-16{fill:url(#linear-gradient-13);}.cls-17{stroke:#fff;stroke-opacity:0.5;opacity:0.8;fill:url(#linear-gradient-14);}.cls-17,.cls-20{stroke-miterlimit:2;}.cls-18{fill:#ad7fa8;mix-blend-mode:color;}.cls-19{fill:url(#linear-gradient-15);}.cls-20{fill:none;stroke-width:1.5px;stroke:url(#linear-gradient-16);}.cls-21{fill:url(#linear-gradient-17);}.cls-22{fill:url(#linear-gradient-18);}</style>
    <radialGradient
       id="radial-gradient"
       cx="-159.25"
       cy="-1275.68"
       r="18.56"
       gradientTransform="matrix(1.15,0,0,-0.21,206.17,-220.05)"
       gradientUnits="userSpaceOnUse">
      <stop
         offset="0"
         stop-color="#232729"
         stop-opacity="0.62"
         id="stop1" />
      <stop
         offset="1"
         stop-color="#232729"
         stop-opacity="0"
         id="stop2" />
    </radialGradient>
    <linearGradient
       id="linear-gradient"
       x1="-248.67"
       y1="805.85"
       x2="-246.51"
       y2="802.42"
       gradientTransform="matrix(1.61, 0, 0, -1.42, 422.3, 1150.4)"
       gradientUnits="userSpaceOnUse">
      <stop
         offset="0"
         stop-color="#fff"
         id="stop3" />
      <stop
         offset="1"
         stop-color="#fff"
         stop-opacity="0"
         id="stop4" />
    </linearGradient>
    <linearGradient
       id="linear-gradient-2"
       x1="-249.7"
       y1="807.37"
       x2="-246.35"
       y2="802.22"
       gradientTransform="matrix(1.61,0,0,-1.42,432.96,1154.44)"
       xlink:href="#linear-gradient" />
    <linearGradient
       id="linear-gradient-3"
       x1="-249.83"
       y1="806.32"
       x2="-246.38"
       y2="802.83"
       gradientTransform="matrix(1.61,0,0,-1.42,411.63,1154.44)"
       xlink:href="#linear-gradient" />
    <linearGradient
       id="linear-gradient-4"
       x1="-208.52"
       y1="788"
       x2="-204.48"
       y2="782.81"
       gradientTransform="matrix(1.52,0,0,-1.35,335.63,1070.63)"
       xlink:href="#linear-gradient" />
    <linearGradient
       id="linear-gradient-5"
       x1="-102.81"
       y1="756.5"
       x2="-99.71"
       y2="753.72"
       gradientTransform="matrix(1.38,0,0,-1.22,148.79,938.68)"
       xlink:href="#linear-gradient" />
    <linearGradient
       id="linear-gradient-6"
       x1="-360.82"
       y1="844.49"
       x2="-356.73"
       y2="840.08"
       gradientTransform="matrix(1.84,0,0,-1.63,686.67,1383.65)"
       xlink:href="#linear-gradient" />
    <linearGradient
       id="linear-gradient-7"
       x1="-249.65"
       y1="1390.46"
       x2="-245.77"
       y2="1395.42"
       gradientTransform="matrix(1.61,0,0,1.42,422.28,-1942.75)"
       xlink:href="#linear-gradient" />
    <linearGradient
       id="linear-gradient-8"
       x1="-249.38"
       y1="1391.07"
       x2="-247.06"
       y2="1393.85"
       gradientTransform="matrix(1.61,0,0,1.42,432.94,-1946.79)"
       xlink:href="#linear-gradient" />
    <linearGradient
       id="linear-gradient-9"
       x1="-249.17"
       y1="1390.78"
       x2="-246.81"
       y2="1394.2"
       gradientTransform="matrix(1.61,0,0,1.42,411.62,-1946.79)"
       xlink:href="#linear-gradient" />
    <linearGradient
       id="linear-gradient-10"
       x1="-209.04"
       y1="1402.99"
       x2="-202.2"
       y2="1410.72"
       gradientTransform="matrix(1.52,0,0,1.35,335.61,-1862.98)"
       xlink:href="#linear-gradient" />
    <linearGradient
       id="linear-gradient-11"
       x1="-103.13"
       y1="1440.56"
       x2="-100.03"
       y2="1443.12"
       gradientTransform="matrix(1.38,0,0,1.22,148.77,-1731.03)"
       xlink:href="#linear-gradient" />
    <linearGradient
       id="linear-gradient-12"
       x1="-359.28"
       y1="1354.59"
       x2="-355.62"
       y2="1358.1"
       gradientTransform="matrix(1.84,0,0,1.63,682.56,-2178.71)"
       xlink:href="#linear-gradient" />
    <linearGradient
       id="linear-gradient-13"
       x1="-359.16"
       y1="1354.49"
       x2="-357.2"
       y2="1356.59"
       gradientTransform="matrix(1.84,0,0,1.63,692.19,-2181.67)"
       xlink:href="#linear-gradient" />
    <linearGradient
       id="linear-gradient-14"
       x1="-171.87"
       y1="771.98"
       x2="-157.86"
       y2="762.9"
       gradientTransform="matrix(1.45,0,0,-1.29,255.68,1005.34)"
       xlink:href="#linear-gradient" />
    <linearGradient
       id="linear-gradient-15"
       x1="39.81"
       y1="15.43"
       x2="41.26"
       y2="13.19"
       gradientUnits="userSpaceOnUse">
      <stop
         offset="0"
         stop-color="#ad7fa8"
         id="stop5" />
      <stop
         offset="1"
         stop-color="#755076"
         id="stop6" />
    </linearGradient>
    <linearGradient
       id="linear-gradient-16"
       x1="7.5"
       y1="6.28"
       x2="40.5"
       y2="39.29"
       gradientUnits="userSpaceOnUse">
      <stop
         offset="0"
         stop-color="#ad7fa8"
         id="stop7" />
      <stop
         offset="0.87"
         stop-color="#755076"
         id="stop8" />
    </linearGradient>
    <linearGradient
       id="linear-gradient-17"
       x1="27.35"
       y1="36.06"
       x2="30.75"
       y2="39.53"
       xlink:href="#linear-gradient-15" />
    <linearGradient
       id="linear-gradient-18"
       x1="35.69"
       y1="30.44"
       x2="40.71"
       y2="32.2"
       xlink:href="#linear-gradient-15" />
    <linearGradient
       inkscape:collect="always"
       xlink:href="#linear-gradient"
       id="linearGradient8"
       gradientUnits="userSpaceOnUse"
       gradientTransform="matrix(1.61,0,0,-1.42,422.3,1150.4)"
       x1="-248.67"
       y1="805.85"
       x2="-246.51"
       y2="802.42" />
    <linearGradient
       inkscape:collect="always"
       xlink:href="#linear-gradient-15"
       id="linearGradient9"
       gradientUnits="userSpaceOnUse"
       x1="39.81"
       y1="15.43"
       x2="41.26"
       y2="13.19" />
    <radialGradient
       inkscape:collect="always"
       xlink:href="#linearGradient10"
       id="radialGradient10"
       cx="23.325"
       cy="44.16"
       fx="23.325"
       fy="44.16"
       r="21.325"
       gradientTransform="matrix(1,0,0,0.18007034,0,36.208094)"
       gradientUnits="userSpaceOnUse" />
  </defs>
  <g
     id="shadow"
     style="isolation:isolate;fill:url(#radialGradient10);fill-opacity:1">
    <path
       id="path9025"
       class="cls-2"
       d="M 44.65,44.15 C 44.65,46.28 35.11,48 23.34,48 11.57,48 2,46.28 2,44.16 v 0 c 0,-2.12 9.54,-3.84 21.31,-3.84 11.77,0 21.33,1.68 21.34,3.83 z"
       style="fill:url(#radialGradient10);fill-opacity:1" />
  </g>
  <g
     id="ART"
     style="isolation:isolate">
    <g
       id="layer1">
      <path
         id="path7796"
         class="cls-3"
         d="m 43.5,22.88 a 10.44,10.44 0 0 1 1.58,3.94 5.88,5.88 0 0 1 -3.53,5.18 5.9,5.9 0 0 1 0.52,2.16 c 0,3.68 -3.38,6.66 -7.53,6.66 A 8.15,8.15 0 0 1 31.1,40 7.35,7.35 0 0 1 24,44.79 7.35,7.35 0 0 1 16.88,40 8.1,8.1 0 0 1 13.45,40.83 c -4.16,0 -7.54,-3 -7.54,-6.66 A 5.9,5.9 0 0 1 6.43,32 5.88,5.88 0 0 1 2.9,26.82 a 13.86,13.86 0 0 1 1,-5 5.29,5.29 0 0 1 -1,-3.07 5.89,5.89 0 0 1 3.53,-5.16 5.9,5.9 0 0 1 -0.52,-2.16 c 0,-3.67 3.38,-6.65 7.53,-6.65 A 8,8 0 0 1 16.88,5.61 7.36,7.36 0 0 1 24,0.77 7.36,7.36 0 0 1 31.12,5.6 8,8 0 0 1 34.55,4.77 c 4.16,0 7.54,3 7.54,6.65 a 5.9,5.9 0 0 1 -0.52,2.16 5.89,5.89 0 0 1 3.53,5.16 12,12 0 0 1 -1.6,4.14 z" />
      <g
         id="g7800">
        <path
           id="path7802"
           class="cls-3"
           d="M 29.36,7.3 C 29.36,9.9 27,12 24,12 21,12 18.7,9.9 18.7,7.3 c 0,-2.6 2.38,-4.71 5.3,-4.71 2.92,0 5.36,2.11 5.36,4.71 z" />
        <path
           id="path7804"
           class="cls-4"
           d="M 29.36,7.3 C 29.36,9.9 27,12 24,12 21,12 18.7,9.9 18.7,7.3 c 0,-2.6 2.38,-4.71 5.3,-4.71 2.92,0 5.36,2.11 5.36,4.71 z"
           style="fill:url(#linearGradient8)" />
      </g>
      <rect
         id="rect7806"
         class="cls-3"
         x="9.5600004"
         y="10.66"
         width="30.459999"
         height="12.11" />
      <path
         id="path7808"
         class="cls-3"
         d="m 14.13,18.74 a 4.33,4.33 0 0 1 -4.57,4 4.33,4.33 0 0 1 -4.57,-4 4.33,4.33 0 0 1 4.57,-4 4.33,4.33 0 0 1 4.57,4 z" />
      <g
         id="g7810">
        <path
           id="path7812"
           class="cls-3"
           d="m 40,11.34 c 0,2.6 -2.39,4.71 -5.33,4.71 -2.94,0 -5.33,-2.11 -5.33,-4.71 0,-2.6 2.39,-4.71 5.33,-4.71 2.94,0 5.33,2.1 5.33,4.71 z" />
        <path
           id="path7814"
           class="cls-5"
           d="m 40,11.34 c 0,2.6 -2.39,4.71 -5.33,4.71 -2.94,0 -5.33,-2.11 -5.33,-4.71 0,-2.6 2.39,-4.71 5.33,-4.71 2.94,0 5.33,2.11 5.33,4.71 z"
           style="fill:url(#linear-gradient-2)" />
      </g>
      <g
         id="g7816">
        <path
           id="path7818"
           class="cls-3"
           d="m 18.7,11.34 c 0,2.6 -2.39,4.71 -5.34,4.71 -2.95,0 -5.36,-2.11 -5.36,-4.71 0,-2.6 2.39,-4.71 5.33,-4.71 2.94,0 5.34,2.11 5.34,4.71 z" />
        <path
           id="path7820"
           class="cls-6"
           d="m 18.7,11.34 c 0,2.6 -2.39,4.71 -5.34,4.71 -2.95,0 -5.36,-2.11 -5.36,-4.71 0,-2.6 2.39,-4.71 5.33,-4.71 2.94,0 5.34,2.11 5.34,4.71 z"
           style="fill:url(#linear-gradient-3)" />
      </g>
      <g
         id="g7822">
        <path
           id="path7824"
           class="cls-3"
           d="m 22.46,6.67 c -5.46,0 -9.86,3.93 -9.86,8.75 0,3.19 2.06,5.83 5,7.36 h 9.86 a 8.58,8.58 0 0 0 4.95,-7.41 c -0.05,-4.81 -4.5,-8.7 -9.95,-8.7 z" />
        <path
           id="path7826"
           class="cls-7"
           d="m 22.5,6.63 c -5.46,0 -9.9,3.92 -9.9,8.74 a 8.55,8.55 0 0 0 5,7.41 h 9.9 a 8.53,8.53 0 0 0 4.95,-7.41 C 32.4,10.55 28,6.63 22.5,6.63 Z"
           style="fill:url(#linear-gradient-4)" />
      </g>
      <path
         id="path7828"
         class="cls-8"
         d="m 14.13,18.74 a 4.33,4.33 0 0 1 -4.57,4 4.33,4.33 0 0 1 -4.57,-4 4.33,4.33 0 0 1 4.57,-4 4.33,4.33 0 0 1 4.57,4 z"
         style="fill:url(#linear-gradient-5)" />
      <g
         id="g7832">
        <path
           id="path7834"
           class="cls-3"
           d="m 35.45,17.39 c 0,3 -2.73,5.39 -6.09,5.39 -3.36,0 -6.09,-2.41 -6.09,-5.39 0,-2.98 2.73,-5.39 6.09,-5.39 3.36,0 6.09,2.41 6.09,5.38 z" />
        <path
           id="path7836"
           class="cls-9"
           d="m 35.45,17.39 c 0,3 -2.73,5.39 -6.09,5.39 -3.36,0 -6.09,-2.41 -6.09,-5.39 0,-2.98 2.73,-5.39 6.09,-5.39 3.36,0 6.09,2.41 6.09,5.38 z"
           style="fill:url(#linear-gradient-6)" />
      </g>
      <g
         id="g8014">
        <path
           id="path8016"
           class="cls-3"
           d="m 29.34,38.35 c 0,-2.6 -2.39,-4.71 -5.33,-4.71 -2.94,0 -5.33,2.11 -5.33,4.71 0,2.6 2.38,4.71 5.33,4.71 2.95,0 5.33,-2.11 5.33,-4.71 z" />
        <path
           id="path8018"
           class="cls-10"
           d="m 29.34,38.35 c 0,-2.6 -2.39,-4.71 -5.33,-4.71 -2.94,0 -5.33,2.11 -5.33,4.71 0,2.6 2.38,4.71 5.33,4.71 2.95,0 5.33,-2.11 5.33,-4.71 z"
           style="fill:url(#linear-gradient-7)" />
      </g>
      <rect
         id="rect8020"
         class="cls-3"
         x="9.54"
         y="22.870001"
         width="30.459999"
         height="12.11" />
      <path
         id="path8022"
         class="cls-3"
         d="m 14.11,26.91 a 4.33,4.33 0 0 0 -4.57,-4 4.33,4.33 0 0 0 -4.57,4 4.33,4.33 0 0 0 4.57,4 4.33,4.33 0 0 0 4.57,-4 z" />
      <g
         id="g8024">
        <path
           id="path8026"
           class="cls-3"
           d="m 40,34.31 c 0,-2.6 -2.38,-4.71 -5.33,-4.71 -2.95,0 -5.33,2.11 -5.33,4.71 0,2.6 2.39,4.69 5.33,4.69 2.94,0 5.33,-2.09 5.33,-4.69 z" />
        <path
           id="path8028"
           class="cls-11"
           d="m 38.67,31.76 c 0.4,0.08 0.45,0.19 0.62,0.51 0.17,0.32 0.4,0.44 0.5,0.73 A 3.67,3.67 0 0 1 40,34.31 c 0,2.6 -2.38,4.71 -5.33,4.71 -2.95,0 -5.33,-2.11 -5.33,-4.71 0,-2.6 2.39,-4.71 5.33,-4.71 a 6,6 0 0 1 0.95,0.13 c 0,0.11 0.05,0.22 0.13,0.3 l 0.63,0.58 a 4.93,4.93 0 0 0 2.29,1.15 z"
           style="fill:url(#linear-gradient-8)" />
      </g>
      <g
         id="g8030">
        <path
           id="path8032"
           class="cls-3"
           d="m 18.68,34.31 c 0,-2.6 -2.39,-4.71 -5.33,-4.71 -2.94,0 -5.35,2.11 -5.35,4.71 0,2.6 2.4,4.69 5.35,4.69 2.95,0 5.33,-2.11 5.33,-4.71 z" />
        <path
           id="path8034"
           class="cls-12"
           d="m 18.68,34.31 c 0,-2.6 -2.39,-4.71 -5.33,-4.71 -2.94,0 -5.35,2.11 -5.35,4.71 0,2.6 2.4,4.69 5.35,4.69 2.95,0 5.33,-2.11 5.33,-4.71 z"
           style="fill:url(#linear-gradient-9)" />
      </g>
      <g
         id="g8036">
        <path
           id="path8038"
           class="cls-3"
           d="m 22.44,39 c -5.45,0 -9.86,-3.93 -9.86,-8.75 0,-3.19 2.06,-5.83 5,-7.36 h 9.85 a 8.58,8.58 0 0 1 5,7.41 C 32.34,35.09 27.89,39 22.44,39 Z" />
        <path
           id="path8040"
           class="cls-13"
           d="m 22.49,39 c -5.47,0 -9.91,-3.92 -9.91,-8.74 0,-3.2 2.05,-5.88 5,-7.41 h 9.9 a 8.55,8.55 0 0 1 4.95,7.41 C 32.39,35.1 28,39 22.49,39 Z"
           style="fill:url(#linear-gradient-10)" />
      </g>
      <path
         id="path8042"
         class="cls-14"
         d="m 14.11,26.91 a 4.33,4.33 0 0 0 -4.57,-4 4.33,4.33 0 0 0 -4.57,4 4.33,4.33 0 0 0 4.57,4 4.33,4.33 0 0 0 4.57,-4 z"
         style="fill:url(#linear-gradient-11)" />
      <g
         id="g8046">
        <path
           id="path8048"
           class="cls-3"
           d="m 31.34,25.55 c 0,-3 -2.73,-5.39 -6.09,-5.39 -3.36,0 -6.09,2.41 -6.09,5.39 0,2.98 2.72,5.38 6.09,5.38 3.37,0 6.09,-2.41 6.09,-5.38 z" />
        <path
           id="path8050"
           class="cls-15"
           d="m 31.34,25.55 c 0,-3 -2.73,-5.39 -6.09,-5.39 -3.36,0 -6.09,2.41 -6.09,5.39 0,2.98 2.72,5.38 6.09,5.38 3.37,0 6.09,-2.41 6.09,-5.38 z"
           style="fill:url(#linear-gradient-12)" />
      </g>
      <g
         id="g9017">
        <path
           id="path9019"
           class="cls-3"
           d="m 41,22.58 c 0,-3 -2.73,-5.38 -6.09,-5.38 -3.36,0 -6.1,2.41 -6.1,5.38 0,2.97 2.7,5.42 6.07,5.42 3.37,0 6.12,-2.44 6.12,-5.42 z" />
        <path
           id="path9021"
           class="cls-16"
           d="m 41,22.58 c 0,-3 -2.73,-5.38 -6.09,-5.38 -3.36,0 -6.1,2.41 -6.1,5.38 0,2.97 2.7,5.42 6.07,5.42 3.37,0 6.12,-2.44 6.12,-5.42 z"
           style="fill:url(#linear-gradient-13)" />
      </g>
      <path
         id="path7798"
         class="cls-17"
         d="m 5.51,22.05 c -1,1 -1.18,3.52 -1.18,5 0,1.91 1.61,3.58 3.53,4.51 a 6.62,6.62 0 0 0 -0.64,2.17 c 0,3.35 2.76,5.93 6.7,5.93 a 9.87,9.87 0 0 0 3.62,-1.16 c 1,3.23 3.1,5.21 6.28,5.21 a 6.79,6.79 0 0 0 6.55,-5.18 11.82,11.82 0 0 0 3.95,1.16 c 3.86,0 6.33,-2.61 6.33,-6 A 7.4,7.4 0 0 0 40,31.39 c 1.92,-0.94 3.54,-2.32 3.54,-4.37 0,-1.34 -0.85,-2.48 -1.76,-4.06 0.88,-1.61 1.77,-3 1.77,-4.39 0,-2.05 -1.61,-3.43 -3.53,-4.37 a 7.4,7.4 0 0 0 0.67,-2.31 C 40.67,8.54 37.6,6 33.74,6 A 8.72,8.72 0 0 0 30.38,7.07 6.42,6.42 0 0 0 23.94,2.15 c -3.18,0 -5.41,1.72 -6.38,5 A 8.85,8.85 0 0 0 14.14,6 c -3.94,0 -6.9,2.5 -6.9,5.85 a 7.61,7.61 0 0 0 0.64,2.34 c -1.92,0.94 -3.54,2.43 -3.54,4.34 a 4.55,4.55 0 0 0 1.17,3.52 z"
         style="fill:url(#linear-gradient-14)" />
    </g>
    <path
       id="path7796-2"
       data-name="path7796"
       class="cls-18"
       d="m 43.5,22.88 a 10.44,10.44 0 0 1 1.58,3.94 5.88,5.88 0 0 1 -3.53,5.18 5.9,5.9 0 0 1 0.52,2.16 c 0,3.68 -3.38,6.66 -7.53,6.66 A 8.15,8.15 0 0 1 31.1,40 7.35,7.35 0 0 1 24,44.79 7.35,7.35 0 0 1 16.88,40 8.1,8.1 0 0 1 13.45,40.83 c -4.16,0 -7.54,-3 -7.54,-6.66 A 5.9,5.9 0 0 1 6.43,32 5.88,5.88 0 0 1 2.9,26.82 a 13.86,13.86 0 0 1 1,-5 5.29,5.29 0 0 1 -1,-3.07 5.89,5.89 0 0 1 3.53,-5.16 5.9,5.9 0 0 1 -0.52,-2.16 c 0,-3.67 3.38,-6.65 7.53,-6.65 A 8,8 0 0 1 16.88,5.61 7.36,7.36 0 0 1 24,0.77 7.36,7.36 0 0 1 31.12,5.6 8,8 0 0 1 34.55,4.77 c 4.16,0 7.54,3 7.54,6.65 a 5.9,5.9 0 0 1 -0.52,2.16 5.89,5.89 0 0 1 3.53,5.16 12,12 0 0 1 -1.6,4.14 z" />
    <path
       id="path7830"
       class="cls-19"
       d="m 42.56,12 c 0,3.53 -4.87,4.88 -4.87,4.88 A 9.25,9.25 0 0 0 41.29,12 Z"
       style="fill:url(#linearGradient9)" />
    <path
       id="path7796-3"
       data-name="path7796"
       class="cls-20"
       d="m 43.5,22.88 a 10.44,10.44 0 0 1 1.58,3.94 5.88,5.88 0 0 1 -3.53,5.18 5.9,5.9 0 0 1 0.52,2.16 c 0,3.68 -3.38,6.66 -7.53,6.66 A 8.15,8.15 0 0 1 31.1,40 7.35,7.35 0 0 1 24,44.79 7.35,7.35 0 0 1 16.88,40 8.1,8.1 0 0 1 13.45,40.83 c -4.16,0 -7.54,-3 -7.54,-6.66 A 5.9,5.9 0 0 1 6.43,32 5.88,5.88 0 0 1 2.9,26.82 a 13.86,13.86 0 0 1 1,-5 5.29,5.29 0 0 1 -1,-3.07 5.89,5.89 0 0 1 3.53,-5.16 5.9,5.9 0 0 1 -0.52,-2.16 c 0,-3.67 3.38,-6.65 7.53,-6.65 A 8,8 0 0 1 16.88,5.61 7.36,7.36 0 0 1 24,0.77 7.36,7.36 0 0 1 31.12,5.6 8,8 0 0 1 34.55,4.77 c 4.16,0 7.54,3 7.54,6.65 a 5.9,5.9 0 0 1 -0.52,2.16 5.89,5.89 0 0 1 3.53,5.16 12,12 0 0 1 -1.6,4.14 z"
       style="stroke:url(#linear-gradient-16)" />
    <path
       id="path8044"
       class="cls-21"
       d="m 31.81,41 c -3.62,-1.28 -4.45,-6.15 -4.45,-6.15 0,0 1.88,3.74 4.57,4.81 z"
       style="fill:url(#linear-gradient-17)" />
    <path
       id="path9069"
       class="cls-22"
       d="m 41.46,32.89 c -3.76,1 -6.53,-3.86 -6.53,-3.86 0,0 3.23,3.14 6.14,2.38 z"
       style="fill:url(#linear-gradient-18)" />
  </g>
</svg>
