<?xml version="1.0" encoding="UTF-8" standalone="no"?>
<svg
   viewBox="0 0 48 48"
   version="1.1"
   id="svg31"
   sodipodi:docname="13-Karma_Light_Filter-Intensity.svg"
   inkscape:version="1.3 (0e150ed, 2023-07-21)"
   xmlns:inkscape="http://www.inkscape.org/namespaces/inkscape"
   xmlns:sodipodi="http://sodipodi.sourceforge.net/DTD/sodipodi-0.dtd"
   xmlns:xlink="http://www.w3.org/1999/xlink"
   xmlns="http://www.w3.org/2000/svg"
   xmlns:svg="http://www.w3.org/2000/svg">
  <sodipodi:namedview
     id="namedview31"
     pagecolor="#ffffff"
     bordercolor="#000000"
     borderopacity="0.25"
     inkscape:showpageshadow="2"
     inkscape:pageopacity="0.0"
     inkscape:pagecheckerboard="0"
     inkscape:deskcolor="#d1d1d1"
     inkscape:zoom="17.416667"
     inkscape:cx="24"
     inkscape:cy="23.971292"
     inkscape:window-width="1392"
     inkscape:window-height="1245"
     inkscape:window-x="550"
     inkscape:window-y="68"
     inkscape:window-maximized="0"
     inkscape:current-layer="svg31" />
  <defs
     id="defs13">
    <radialGradient
       id="radial-gradient"
       cx="-691.94"
       cy="-41.64"
       fx="-691.94"
       fy="-41.64"
       r="5.2"
       gradientTransform="matrix(4.5,0,0,2.08,3139.13,115.53)"
       gradientUnits="userSpaceOnUse">
      <stop
         offset=".03"
         stop-color="#1a1718"
         stop-opacity=".5"
         id="stop1" />
      <stop
         offset=".79"
         stop-color="#1a1718"
         stop-opacity=".1"
         id="stop2" />
      <stop
         offset=".93"
         stop-color="#1a1718"
         stop-opacity="0"
         id="stop3" />
    </radialGradient>
    <linearGradient
       id="linear-gradient"
       x1="26.38"
       y1="32.88"
       x2="26.38"
       y2="15.67"
       gradientUnits="userSpaceOnUse">
      <stop
         offset="0"
         stop-color="#fce94f"
         id="stop4" />
      <stop
         offset="1"
         stop-color="#c4a000"
         id="stop5" />
    </linearGradient>
    <linearGradient
       id="linear-gradient-2"
       x1="9.84"
       y1="24.51"
       x2="37.32"
       y2="24.51"
       gradientTransform="matrix(1, 0, 0, 1, 0, 0)"
       gradientUnits="userSpaceOnUse">
      <stop
         offset="0"
         stop-color="#888a85"
         id="stop6" />
      <stop
         offset="1"
         stop-color="#2e3436"
         id="stop7" />
    </linearGradient>
    <linearGradient
       id="linear-gradient-3"
       x1="2.47"
       y1="21.1"
       x2="38.1"
       y2="28.32"
       gradientTransform="matrix(1, 0, 0, 1, 0, 0)"
       gradientUnits="userSpaceOnUse">
      <stop
         offset="0"
         stop-color="#babdb6"
         id="stop8" />
      <stop
         offset="1"
         stop-color="#555753"
         id="stop9" />
    </linearGradient>
    <linearGradient
       id="linear-gradient-4"
       x1="9.24"
       y1="21.01"
       x2="21.69"
       y2="26.6"
       gradientUnits="userSpaceOnUse">
      <stop
         offset="0"
         stop-color="#f9f9f8"
         id="stop10" />
      <stop
         offset="1"
         stop-color="#888a85"
         id="stop11" />
    </linearGradient>
    <linearGradient
       id="linear-gradient-5"
       x1="8.06"
       y1="24.26"
       x2="32.33"
       y2="24.26"
       xlink:href="#linear-gradient-2" />
    <linearGradient
       id="linear-gradient-6"
       x1="44.62"
       y1="14.64"
       x2="27.85"
       y2="28.52"
       xlink:href="#linear-gradient-2" />
    <linearGradient
       id="linear-gradient-7"
       x1="21.22"
       y1="10.1"
       x2="33.27"
       y2="27.63"
       gradientTransform="rotate(89.94,23.995171,14.139965)"
       xlink:href="#linear-gradient-3" />
    <linearGradient
       id="linear-gradient-8"
       x1="20.54"
       y1="7.95"
       x2="23.48"
       y2="13.64"
       gradientUnits="userSpaceOnUse">
      <stop
         offset="0"
         stop-color="#f9f9f8"
         id="stop12" />
      <stop
         offset="1"
         stop-color="#babdb6"
         id="stop13" />
    </linearGradient>
    <linearGradient
       inkscape:collect="always"
       xlink:href="#linear-gradient-2"
       id="linearGradient31"
       gradientUnits="userSpaceOnUse"
       x1="9.84"
       y1="24.51"
       x2="37.32"
       y2="24.51" />
    <linearGradient
       inkscape:collect="always"
       xlink:href="#linear-gradient-3"
       id="linearGradient32"
       gradientUnits="userSpaceOnUse"
       x1="2.47"
       y1="21.1"
       x2="38.1"
       y2="28.32" />
  </defs>
  <g
     id="shadow"
     style="opacity:0.45;isolation:isolate;mix-blend-mode:multiply"
     transform="matrix(1.0624922,0,0,1.0624922,-1.5297699,0.03546753)">
    <ellipse
       cx="24.02"
       cy="29.07"
       rx="22.51"
       ry="10.42"
       style="fill:url(#radial-gradient)"
       id="ellipse13" />
  </g>
  <g
     id="ART"
     transform="matrix(1.206052,0,0,1.206052,-7.5847487,-9.4233143)"
     style="isolation:isolate">
    <path
       d="M 39.29,41.19 34.76,37.32 C 37.77,35.54 39.85,33 39.85,29.86 39.85,27.88 38.17,21.69 22.1,21.69 6.03,21.69 8.98,32.2 9.13,32.64 8.95,32.45 6.96,30.22 8.17,26.37 c 1.49,-4.73 7.5,-7.42 16.5,-7.42 9,0 18.93,3.51 20.16,10.83 1,5.87 -3.35,9.82 -5.54,11.41 z"
       style="fill:url(#linear-gradient)"
       id="path13" />
    <g
       id="g22">
      <ellipse
         cx="30.6"
         cy="42.490002"
         rx="2.52"
         ry="1.3200001"
         style="fill:#fce94f"
         id="ellipse14" />
      <ellipse
         cx="30.6"
         cy="42.490002"
         rx="2.52"
         ry="1.3200001"
         style="fill:none;stroke:#edd400;stroke-width:0.7px;stroke-miterlimit:10"
         id="ellipse15" />
      <path
         d="m 30.6,40.29 c -0.34,0 -0.62,-0.15 -0.62,-0.33 v -0.95 c 0,-0.18 0.28,-0.33 0.62,-0.33 0.34,0 0.62,0.15 0.62,0.33 v 0.95 c 0,0.18 -0.28,0.33 -0.62,0.33 z"
         style="fill:#edd400"
         id="path15" />
      <path
         d="m 27.2,41.03 c -0.16,0 -0.32,-0.03 -0.44,-0.1 l -1.28,-0.67 c -0.24,-0.13 -0.24,-0.33 0,-0.46 0.24,-0.13 0.63,-0.13 0.88,0 l 1.28,0.67 c 0.24,0.13 0.24,0.33 0,0.46 -0.12,0.06 -0.28,0.1 -0.44,0.1 z"
         style="fill:#edd400"
         id="path16" />
      <path
         d="m 25.8,42.81 h -1.81 c -0.34,0 -0.62,-0.15 -0.62,-0.33 0,-0.18 0.28,-0.33 0.62,-0.33 h 1.81 c 0.34,0 0.62,0.15 0.62,0.33 0,0.18 -0.28,0.33 -0.62,0.33 z"
         style="fill:#edd400"
         id="path17" />
      <path
         d="m 25.92,45.27 c -0.16,0 -0.32,-0.03 -0.44,-0.1 -0.24,-0.13 -0.24,-0.33 0,-0.46 l 1.28,-0.67 c 0.24,-0.13 0.63,-0.13 0.88,0 0.25,0.13 0.24,0.33 0,0.46 l -1.28,0.67 c -0.12,0.06 -0.28,0.1 -0.44,0.1 z"
         style="fill:#edd400"
         id="path18" />
      <path
         d="m 30.6,46.29 c -0.34,0 -0.62,-0.15 -0.62,-0.33 v -0.95 c 0,-0.18 0.28,-0.33 0.62,-0.33 0.34,0 0.62,0.15 0.62,0.33 v 0.95 c 0,0.18 -0.28,0.33 -0.62,0.33 z"
         style="fill:#edd400"
         id="path19" />
      <path
         d="m 35.27,45.27 c -0.16,0 -0.32,-0.03 -0.44,-0.1 L 33.55,44.5 c -0.24,-0.13 -0.24,-0.33 0,-0.46 0.24,-0.13 0.63,-0.13 0.88,0 l 1.28,0.67 c 0.24,0.13 0.24,0.33 0,0.46 -0.12,0.06 -0.28,0.1 -0.44,0.1 z"
         style="fill:#edd400"
         id="path20" />
      <path
         d="M 37.21,42.81 H 35.4 c -0.34,0 -0.62,-0.15 -0.62,-0.33 0,-0.18 0.28,-0.33 0.62,-0.33 h 1.81 c 0.34,0 0.62,0.15 0.62,0.33 0,0.18 -0.28,0.33 -0.62,0.33 z"
         style="fill:#edd400"
         id="path21" />
      <path
         d="m 33.99,41.03 c -0.16,0 -0.32,-0.03 -0.44,-0.1 -0.24,-0.13 -0.24,-0.33 0,-0.46 l 1.28,-0.67 c 0.24,-0.13 0.63,-0.13 0.88,0 0.25,0.13 0.24,0.33 0,0.46 l -1.28,0.67 c -0.12,0.06 -0.28,0.1 -0.44,0.1 z"
         style="fill:#edd400"
         id="path22" />
    </g>
    <g
       id="g30">
      <path
         d="m 37.2,28.33 c 0,3.83 -5.91,6.94 -13.2,6.93 -7.3,0 -13.21,-3.11 -13.22,-6.94 0,-0.19 0.01,-0.38 0.05,-0.56 h -0.01 l 2.21,-14 h 21.92 l 2.21,14 h -0.01 c 0.03,0.19 0.05,0.38 0.05,0.57 z"
         style="fill:url(#linearGradient31)"
         id="path23" />
      <path
         d="m 24.73,35.25 c -0.24,0.01 -0.48,0.01 -0.72,0.01 -7.3,0 -13.21,-3.11 -13.22,-6.94 0,-0.19 0.01,-0.38 0.05,-0.56 h -0.01 l 2.21,-14 h 4.06 l 0.73,3.8 c -1.94,4.16 -4.23,15.6 6.9,17.69 z"
         style="fill:url(#linearGradient32)"
         id="path24" />
      <path
         d="m 12.22,28.9 c -0.19,1.18 0.05,2.47 1.47,3.75 -1.81,-1.19 -2.89,-2.69 -2.9,-4.33 0,-0.19 0.01,-0.38 0.05,-0.56 h -0.01 l 2.21,-14 h 1.54 l 0.42,1.05 -1.03,1.68 c 0,0 -1.56,11.23 -1.75,12.41 z"
         style="fill:url(#linear-gradient-4)"
         id="path25" />
      <path
         d="m 37.21,28.33 c 0,2.92 -3.43,5.42 -8.29,6.43 1.23,-1.41 1.7,-3.1 1.88,-4.98 0.3,-3.11 0.36,-7.95 -2.95,-11.48 l 5.98,-4.54 h 1.13 l 2.21,14 h -0.01 c 0.03,0.19 0.05,0.38 0.05,0.57 z"
         style="fill:url(#linear-gradient-5)"
         id="path26" />
      <path
         d="m 37.21,28.33 c 0,1.59 -1.01,3.05 -2.72,4.22 0.39,-0.83 0.73,-1.88 0.6,-2.93 C 34.82,27.36 33.3,15.59 33.3,15.59 l 0.81,-1.83 h 0.85 l 2.21,14 h -0.01 c 0.03,0.19 0.05,0.38 0.05,0.57 z"
         style="fill:url(#linear-gradient-6)"
         id="path27" />
      <ellipse
         cx="24"
         cy="14.14"
         rx="5.77"
         ry="10.98"
         transform="rotate(-89.94,23.999975,14.14485)"
         style="fill:url(#linear-gradient-7)"
         id="ellipse27" />
      <path
         d="M 33.26,11.04 C 30.83,10 27.3,9.35 23.28,10.16 c -5.27,1.06 -8.33,4.97 -6.77,8.19 -2.15,-1.05 -3.49,-2.55 -3.49,-4.21 -0.01,-3.19 4.91,-5.77 10.97,-5.77 3.9,0 7.32,1.07 9.27,2.67 z"
         style="fill:url(#linear-gradient-8)"
         id="path28" />
      <path
         d="m 31.34,18.44 c -0.39,0.19 -0.81,0.35 -1.24,0.51 l -2.77,-2.87 1.26,-0.49 z"
         style="fill:#ef2929"
         id="path29" />
      <path
         d="m 37.21,28.33 c 0,3.83 -5.91,6.94 -13.2,6.93 -7.3,0 -13.21,-3.11 -13.22,-6.94 0,-0.19 0.01,-0.38 0.05,-0.56 h -0.01 l 2.2,-13.93 v -0.07 c 0.37,-3.02 5.14,-5.39 10.96,-5.39 5.82,0 10.59,2.38 10.96,5.39 h 0.01 v 0.09 l 2.21,13.91 h -0.01 c 0.03,0.19 0.05,0.38 0.05,0.57 z"
         style="fill:none;stroke:#2e3436;stroke-width:0.7px;stroke-linecap:round;stroke-linejoin:round"
         id="path30" />
    </g>
  </g>
</svg>
