<?xml version="1.0" encoding="UTF-8"?><svg xmlns="http://www.w3.org/2000/svg" xmlns:xlink="http://www.w3.org/1999/xlink" viewBox="0 0 48 48"><defs><radialGradient id="radial-gradient" cx="-8.88" cy="-72.54" fx="-8.88" fy="-72.54" r="8.81" gradientTransform="translate(-44.97 58.4) rotate(90) scale(2.4 .96)" gradientUnits="userSpaceOnUse"><stop offset=".47" stop-color="#2c2c2c" stop-opacity=".5"/><stop offset=".99" stop-color="#2c2c2c" stop-opacity="0"/></radialGradient><linearGradient id="linear-gradient" x1="14.63" y1="13.29" x2="43.16" y2="29.77" gradientTransform="matrix(1, 0, 0, 1, 0, 0)" gradientUnits="userSpaceOnUse"><stop offset="0" stop-color="#729fcf"/><stop offset="1" stop-color="#3465a4"/></linearGradient><linearGradient id="linear-gradient-2" x1="14.38" y1="16.25" x2="54.8" y2="39.59" gradientTransform="matrix(1, 0, 0, 1, 0, 0)" gradientUnits="userSpaceOnUse"><stop offset="0" stop-color="#3465a4" stop-opacity=".7"/><stop offset="1" stop-color="#204a87"/></linearGradient><linearGradient id="linear-gradient-3" x1="11.37" y1="15.18" x2="39.9" y2="31.65" xlink:href="#linear-gradient"/><linearGradient id="linear-gradient-4" x1="11.12" y1="18.13" x2="51.54" y2="41.47" gradientTransform="matrix(1, 0, 0, 1, 0, 0)" gradientUnits="userSpaceOnUse"><stop offset="0" stop-color="#3465a4" stop-opacity=".7"/><stop offset="1" stop-color="#204a87"/></linearGradient><linearGradient id="linear-gradient-5" x1="8.1" y1="17.06" x2="36.64" y2="33.53" gradientTransform="matrix(1, 0, 0, 1, 0, 0)" gradientUnits="userSpaceOnUse"><stop offset="0" stop-color="#f9f9f8"/><stop offset="1" stop-color="#729fcf"/></linearGradient><linearGradient id="linear-gradient-6" x1="12.81" y1="23.9" x2="17.81" y2="23.9" gradientTransform="translate(13 -4.39) rotate(27.97)" gradientUnits="userSpaceOnUse"><stop offset=".13" stop-color="#8ae234"/><stop offset=".87" stop-color="#4e9a06"/></linearGradient><linearGradient id="linear-gradient-7" x1="18.25" y1="27.05" x2="23.24" y2="27.05" gradientTransform="translate(15.11 -6.57) rotate(27.97)" xlink:href="#linear-gradient-6"/><linearGradient id="linear-gradient-8" x1="23.68" y1="35.5" x2="28.68" y2="35.5" gradientTransform="translate(19.71 -8.13) rotate(27.97)" xlink:href="#linear-gradient-6"/><linearGradient id="linear-gradient-9" x1="23.68" y1="24.9" x2="28.68" y2="24.9" gradientTransform="translate(14.74 -9.37) rotate(27.97)" xlink:href="#linear-gradient-6"/><linearGradient id="linear-gradient-10" x1="18.25" y1="16.45" x2="23.24" y2="16.45" gradientTransform="translate(10.14 -7.81) rotate(27.97)" xlink:href="#linear-gradient-6"/><linearGradient id="linear-gradient-11" x1="19.58" y1="16.45" x2="21.91" y2="16.45" gradientTransform="translate(10.14 -7.81) rotate(27.97)" gradientUnits="userSpaceOnUse"><stop offset=".13" stop-color="#d4f4b4"/><stop offset=".87" stop-color="#b1ec77"/></linearGradient><linearGradient id="linear-gradient-12" x1="25.02" y1="24.9" x2="27.35" y2="24.9" gradientTransform="translate(14.74 -9.37) rotate(27.97)" xlink:href="#linear-gradient-11"/><linearGradient id="linear-gradient-13" x1="14.14" y1="23.9" x2="16.47" y2="23.9" gradientTransform="translate(13 -4.39) rotate(27.97)" xlink:href="#linear-gradient-11"/><linearGradient id="linear-gradient-14" y1="27.05" y2="27.05" gradientTransform="translate(15.11 -6.57) rotate(27.97)" xlink:href="#linear-gradient-11"/><linearGradient id="linear-gradient-15" x1="25.02" y1="35.5" x2="27.35" y2="35.5" gradientTransform="translate(19.71 -8.13) rotate(27.97)" xlink:href="#linear-gradient-11"/><linearGradient id="linear-gradient-16" x1="23.43" y1="26.3" x2="6.36" y2="37.85" gradientTransform="matrix(1, 0, 0, 1, 0, 0)" gradientUnits="userSpaceOnUse"><stop offset="0" stop-color="#fff" stop-opacity="0"/><stop offset="1" stop-color="#fff8f8"/></linearGradient><linearGradient id="linear-gradient-17" x1="12.59" y1="9.29" x2="17.88" y2="12.35" gradientTransform="matrix(1, 0, 0, 1, 0, 0)" gradientUnits="userSpaceOnUse"><stop offset="0" stop-color="#729fcf"/><stop offset="1" stop-color="#3465a4"/></linearGradient></defs><g style="isolation:isolate;"><g id="shadow" style="mix-blend-mode:multiply; opacity:.45;"><ellipse cx="24.39" cy="37.08" rx="8.13" ry="20.33" transform="translate(-18.88 46.94) rotate(-69.51)" style="fill:url(#radial-gradient);"/></g><g id="ART"><g><g><polygon points="37.04 40.36 17.48 29.06 17.48 8.35 22.77 3.88 37.04 12.12 37.04 40.36" style="fill:url(#linear-gradient);"/><path d="M21.83,9.53s4.16,15.1,15.21,30.82l-19.56-11.3V8.35l4.35,1.18Z" style="fill:url(#linear-gradient-2);"/><polygon points="37.04 40.36 17.48 29.06 17.48 8.35 22.77 3.88 37.04 12.12 37.04 40.36" style="fill:none; stroke:#204a87; stroke-linecap:square; stroke-linejoin:round; stroke-width:.7px;"/><polygon points="22.77 11.41 17.48 8.35 22.77 3.88 22.77 11.41" style="fill:#204a87;"/><polygon points="22.77 11.41 17.48 8.35 22.77 3.88 22.77 11.41" style="fill:none; stroke:#3465a4; stroke-linecap:round; stroke-linejoin:round; stroke-width:.7px;"/></g><g><polygon points="33.78 42.24 14.22 30.94 14.22 10.23 19.51 5.76 33.78 14 33.78 42.24" style="fill:url(#linear-gradient-3);"/><path d="M18.57,11.42s4.16,15.1,15.21,30.82L14.22,30.94V10.23l4.35,1.18Z" style="fill:url(#linear-gradient-4);"/><polygon points="33.78 42.24 14.22 30.94 14.22 10.23 19.51 5.76 33.78 14 33.78 42.24" style="fill:none; stroke:#204a87; stroke-linecap:square; stroke-linejoin:round; stroke-width:.7px;"/><polygon points="19.51 13.29 14.62 10.47 19.51 5.76 19.51 13.29" style="fill:#204a87;"/><polygon points="19.51 13.29 14.22 10.23 19.51 5.76 19.51 13.29" style="fill:none; stroke:#3465a4; stroke-linecap:round; stroke-linejoin:round; stroke-width:.7px;"/></g><polygon points="30.52 44.12 10.96 32.83 10.96 12.12 16.25 7.64 30.52 15.88 30.52 44.12" style="fill:url(#linear-gradient-5);"/><g><ellipse cx="15.31" cy="13.3" rx=".85" ry="1.48" transform="translate(-4.45 8.73) rotate(-27.97)" style="fill:#231f20;"/><ellipse cx="15.31" cy="23.9" rx="2.08" ry="3.61" transform="translate(-9.42 9.97) rotate(-27.97)" style="fill:url(#linear-gradient-6);"/><ellipse cx="20.74" cy="27.05" rx="2.08" ry="3.61" transform="translate(-10.26 12.89) rotate(-27.97)" style="fill:url(#linear-gradient-7);"/><ellipse cx="26.18" cy="35.5" rx="2.08" ry="3.61" transform="translate(-13.59 16.43) rotate(-27.97)" style="fill:url(#linear-gradient-8);"/><ellipse cx="26.18" cy="24.9" rx="2.08" ry="3.61" transform="translate(-8.62 15.19) rotate(-27.97)" style="fill:url(#linear-gradient-9);"/><ellipse cx="20.74" cy="16.45" rx="2.08" ry="3.61" transform="translate(-5.29 11.65) rotate(-27.97)" style="fill:url(#linear-gradient-10);"/><ellipse cx="20.74" cy="16.45" rx=".97" ry="1.68" transform="translate(-5.29 11.65) rotate(-27.97)" style="fill:url(#linear-gradient-11);"/><ellipse cx="26.18" cy="19.6" rx=".62" ry="1.07" transform="translate(-6.13 14.57) rotate(-27.97)" style="fill:#3465a4;"/><ellipse cx="15.31" cy="18.6" rx=".62" ry="1.07" transform="translate(-6.93 9.35) rotate(-27.97)" style="fill:#3465a4;"/><ellipse cx="20.74" cy="21.75" rx=".62" ry="1.07" transform="translate(-7.78 12.27) rotate(-27.97)" style="fill:#3465a4;"/><ellipse cx="26.18" cy="24.9" rx=".97" ry="1.68" transform="translate(-8.62 15.19) rotate(-27.97)" style="fill:url(#linear-gradient-12);"/><ellipse cx="15.31" cy="23.9" rx=".97" ry="1.68" transform="translate(-9.42 9.97) rotate(-27.97)" style="fill:url(#linear-gradient-13);"/><ellipse cx="20.74" cy="27.05" rx=".97" ry="1.68" transform="translate(-10.26 12.89) rotate(-27.97)" style="fill:url(#linear-gradient-14);"/><ellipse cx="26.18" cy="30.2" rx=".62" ry="1.07" transform="translate(-11.1 15.81) rotate(-27.97)" style="fill:#3465a4;"/><ellipse cx="15.31" cy="29.19" rx=".62" ry="1.07" transform="translate(-11.9 10.59) rotate(-27.97)" style="fill:#3465a4;"/><ellipse cx="20.74" cy="32.35" rx=".62" ry="1.07" transform="translate(-12.75 13.51) rotate(-27.97)" style="fill:#3465a4;"/><ellipse cx="26.18" cy="35.5" rx=".97" ry="1.68" transform="translate(-13.59 16.43) rotate(-27.97)" style="fill:url(#linear-gradient-15);"/></g><path d="M15.31,13.3s4.16,15.1,15.21,30.82l-19.56-11.3V12.12l4.35,1.18Z" style="fill:url(#linear-gradient-16);"/><polygon points="16.25 15.17 10.96 12.12 16.25 7.64 16.25 15.17" style="fill:url(#linear-gradient-17);"/><polygon points="16.25 15.17 10.96 12.12 16.25 7.64 16.25 15.17" style="fill:none; stroke:#204a87; stroke-linecap:round; stroke-linejoin:round; stroke-width:.7px;"/><polygon points="30.52 44.12 10.96 32.83 10.96 12.12 16.25 7.64 30.52 15.88 30.52 44.12" style="fill:none; stroke:#204a87; stroke-linecap:square; stroke-linejoin:round; stroke-width:.7px;"/></g></g></g></svg>