<?xml version="1.0" encoding="UTF-8" standalone="no"?>
<svg
   viewBox="0 0 48 48"
   version="1.1"
   id="svg25"
   sodipodi:docname="lma_lfilter_attenuation.svg"
   inkscape:version="1.3 (0e150ed, 2023-07-21)"
   xmlns:inkscape="http://www.inkscape.org/namespaces/inkscape"
   xmlns:sodipodi="http://sodipodi.sourceforge.net/DTD/sodipodi-0.dtd"
   xmlns:xlink="http://www.w3.org/1999/xlink"
   xmlns="http://www.w3.org/2000/svg"
   xmlns:svg="http://www.w3.org/2000/svg">
  <sodipodi:namedview
     id="namedview25"
     pagecolor="#ffffff"
     bordercolor="#000000"
     borderopacity="0.25"
     inkscape:showpageshadow="2"
     inkscape:pageopacity="0.0"
     inkscape:pagecheckerboard="0"
     inkscape:deskcolor="#d1d1d1"
     inkscape:zoom="17.416667"
     inkscape:cx="24"
     inkscape:cy="23.971292"
     inkscape:window-width="1392"
     inkscape:window-height="1245"
     inkscape:window-x="114"
     inkscape:window-y="25"
     inkscape:window-maximized="0"
     inkscape:current-layer="svg25" />
  <defs
     id="defs14">
    <linearGradient
       id="linearGradient28"
       inkscape:collect="always">
      <stop
         style="stop-color:#000000;stop-opacity:1;"
         offset="0"
         id="stop28" />
      <stop
         style="stop-color:#000000;stop-opacity:0;"
         offset="1"
         id="stop29" />
    </linearGradient>
    <radialGradient
       id="radial-gradient"
       cx="-400.49"
       cy="-39.47"
       fx="-400.49"
       fy="-39.47"
       r="4.6"
       gradientTransform="matrix(5.19,0,0,2.58,2101.91,134.4)"
       gradientUnits="userSpaceOnUse">
      <stop
         offset=".53"
         stop-color="#1a1718"
         stop-opacity=".7"
         id="stop1" />
      <stop
         offset=".97"
         stop-color="#1a1718"
         stop-opacity="0"
         id="stop2" />
    </radialGradient>
    <linearGradient
       id="linear-gradient"
       x1="15.14"
       y1="5.08"
       x2="14.16"
       y2="5.6"
       gradientTransform="rotate(-9.89,14.540173,6.9055453)"
       gradientUnits="userSpaceOnUse">
      <stop
         offset=".08"
         stop-color="#d3d7cf"
         stop-opacity=".8"
         id="stop3" />
      <stop
         offset="1"
         stop-color="#888a85"
         id="stop4" />
    </linearGradient>
    <linearGradient
       id="linear-gradient-2"
       x1="23.69"
       y1="12.21"
       x2="23.69"
       y2="32.37"
       gradientTransform="matrix(1, 0, 0, 1, 0, 0)"
       gradientUnits="userSpaceOnUse">
      <stop
         offset="0"
         stop-color="#8a5902"
         id="stop5" />
      <stop
         offset="1"
         stop-color="#e4b46e"
         id="stop6" />
    </linearGradient>
    <linearGradient
       id="linear-gradient-3"
       x1="0"
       y1="34.65"
       x2="24.25"
       y2="34.65"
       xlink:href="#linear-gradient-2" />
    <linearGradient
       id="linear-gradient-4"
       x1="23.39"
       y1="45.72"
       x2="41.25"
       y2="27.36"
       xlink:href="#linear-gradient-2" />
    <linearGradient
       id="linear-gradient-5"
       x1="11.52"
       y1="24.34"
       x2="16.8"
       y2="51.73"
       xlink:href="#linear-gradient-2" />
    <linearGradient
       id="linear-gradient-6"
       x1="25.18"
       y1="35.36"
       x2="58.38"
       y2="27.52"
       xlink:href="#linear-gradient-2" />
    <linearGradient
       id="linear-gradient-7"
       x1="21.59"
       y1="10.35"
       x2="24.09"
       y2="30.43"
       gradientTransform="matrix(1, 0, 0, 1, 0, 0)"
       gradientUnits="userSpaceOnUse">
      <stop
         offset="0"
         stop-color="#fff"
         id="stop7" />
      <stop
         offset=".75"
         stop-color="#fff"
         stop-opacity=".1"
         id="stop8" />
    </linearGradient>
    <linearGradient
       id="linear-gradient-8"
       x1="23.12"
       y1="8.8"
       x2="23.12"
       y2="23.72"
       gradientUnits="userSpaceOnUse">
      <stop
         offset="0"
         stop-color="#fffefa"
         stop-opacity=".7"
         id="stop9" />
      <stop
         offset=".99"
         stop-color="#fce94f"
         stop-opacity=".8"
         id="stop10" />
    </linearGradient>
    <linearGradient
       id="linear-gradient-9"
       x1="17.49"
       y1="16.85"
       x2="12.46"
       y2="16.89"
       gradientUnits="userSpaceOnUse">
      <stop
         offset="0"
         stop-color="#fffefa"
         stop-opacity="0"
         id="stop11" />
      <stop
         offset=".98"
         stop-color="#fce94f"
         stop-opacity=".7"
         id="stop12" />
    </linearGradient>
    <linearGradient
       id="linear-gradient-10"
       x1="24.81"
       y1="30"
       x2="22.79"
       y2="24.73"
       gradientUnits="userSpaceOnUse">
      <stop
         offset="0"
         stop-color="#fffefa"
         stop-opacity=".5"
         id="stop13" />
      <stop
         offset="1"
         stop-color="#fce94f"
         id="stop14" />
    </linearGradient>
    <linearGradient
       inkscape:collect="always"
       xlink:href="#linear-gradient-2"
       id="linearGradient25"
       gradientUnits="userSpaceOnUse"
       x1="23.69"
       y1="12.21"
       x2="23.69"
       y2="32.37" />
    <linearGradient
       inkscape:collect="always"
       xlink:href="#linear-gradient-7"
       id="linearGradient26"
       gradientUnits="userSpaceOnUse"
       x1="21.59"
       y1="10.35"
       x2="24.09"
       y2="30.43" />
    <linearGradient
       inkscape:collect="always"
       xlink:href="#linear-gradient-7"
       id="linearGradient27"
       gradientUnits="userSpaceOnUse"
       x1="21.59"
       y1="10.35"
       x2="24.09"
       y2="30.43" />
    <radialGradient
       inkscape:collect="always"
       xlink:href="#linearGradient28"
       id="radialGradient29"
       cx="24"
       cy="32.75"
       fx="24"
       fy="32.75"
       r="22.92"
       gradientTransform="matrix(1,0,0,0.4982548,0,16.432155)"
       gradientUnits="userSpaceOnUse" />
    <radialGradient
       inkscape:collect="always"
       xlink:href="#linearGradient28"
       id="radialGradient30"
       gradientUnits="userSpaceOnUse"
       gradientTransform="matrix(1,0,0,0.4982548,0,16.432155)"
       cx="24"
       cy="32.75"
       fx="24"
       fy="32.75"
       r="22.92" />
  </defs>
  <g
     id="shadow"
     style="opacity:1;isolation:isolate;mix-blend-mode:multiply;fill:url(#radialGradient29)"
     transform="translate(0,3.9043062)">
    <ellipse
       cx="24"
       cy="32.75"
       rx="22.92"
       ry="11.42"
       style="fill:url(#radialGradient30)"
       id="ellipse14" />
  </g>
  <g
     id="ART"
     style="isolation:isolate"
     transform="matrix(1.1241141,0,0,1.1241141,-2.5383495,-3.1436802)">
    <path
       d="m 13.8,3.67 v 0 c 0.93,0 1.68,0.75 1.68,1.68 v 2.33 c 0,0.23 -0.19,0.41 -0.41,0.41 H 12.54 C 12.31,8.09 12.13,7.9 12.13,7.68 V 5.35 c 0,-0.93 0.75,-1.68 1.68,-1.68 z"
       transform="rotate(-33.47,13.809272,5.8747507)"
       style="fill:#555753"
       id="path14" />
    <path
       d="m 12.44,6.18 c 0,0 -0.38,-0.48 -0.27,-0.99 0.11,-0.51 0.25,-0.63 0.25,-0.63 0,0 0.09,0.8 1.21,1.93 z"
       style="fill:#2e3436"
       id="path15" />
    <path
       d="m 12.77,4.39 c 0,0 1.07,-0.58 1.71,0.18 0.64,0.76 1.2,1.97 1.2,1.97 l -1,-0.04 c 0,0 -0.71,-1.45 -1.08,-1.81 -0.3,-0.3 -0.83,-0.31 -0.83,-0.31 z"
       style="fill:url(#linear-gradient)"
       id="path16" />
    <path
       d="m 10.22,6.17 c 0,0 2.56,1.24 2.35,1.78 -0.21,0.54 -1.38,3.13 -1.38,3.13 0,0 2.68,-2.58 3.51,-2.81 C 15.53,8.04 15.74,8 15.74,8 l 2.37,0.18 c 0,0 -1.92,-0.9 -1.82,-1.46 0.1,-0.56 1.63,-3.95 1.63,-3.95 0,0 -3.09,2.85 -3.51,3.21 -0.42,0.36 -4.18,0.2 -4.18,0.2 z"
       style="fill:#fce94f"
       id="path17" />
    <ellipse
       cx="14.75"
       cy="7.3099999"
       rx="1.46"
       ry="0.75999999"
       transform="rotate(-27.98,14.758546,7.3217692)"
       style="fill:#ffffff"
       id="ellipse17" />
    <polygon
       points="23.69,42.05 44.62,31.04 44.62,27.26 23.69,16.25 2.76,27.26 2.76,31.04 "
       style="fill:url(#linearGradient25)"
       id="polygon17" />
    <g
       id="g22">
      <polygon
         points="23.69,42.05 2.76,31.04 2.76,27.26 23.69,38.26 "
         style="fill:url(#linear-gradient-3)"
         id="polygon18" />
      <polygon
         points="23.69,42.05 44.62,31.04 44.62,27.26 23.69,38.26 "
         style="fill:url(#linear-gradient-4)"
         id="polygon19" />
      <g
         id="g21">
        <polygon
           points="23.71,39.21 2.78,28.21 2.76,27.26 23.69,38.26 "
           style="fill:url(#linear-gradient-5)"
           id="polygon20" />
        <polygon
           points="23.71,39.21 44.64,28.21 44.62,27.26 23.69,38.26 "
           style="fill:url(#linear-gradient-6)"
           id="polygon21" />
      </g>
      <path
         d="m 44.62,27.26 -20.93,-11 -20.93,11 c 0,0 20.93,-4.4 41.86,0 z"
         style="fill:url(#linearGradient26)"
         id="path21" />
      <path
         d="m 44.62,27.26 -20.93,-11 -20.93,11 c 0,0 20.93,-4.4 41.86,0 z"
         style="fill:url(#linearGradient27)"
         id="path22" />
    </g>
    <polygon
       points="23.69,42.05 44.62,31.04 44.62,27.26 23.69,16.25 2.76,27.26 2.76,31.04 "
       style="fill:none;stroke:#8f5902;stroke-width:0.7px;stroke-miterlimit:10"
       id="polygon22" />
    <path
       d="m 34.17,25.02 c -1.88,-1.6 -5.87,-2.7 -10.49,-2.7 -6.24,0 -11.35,2.01 -11.6,4.54 H 12.07 L 13.93,7.67 15.56,6.89 Z"
       style="fill:url(#linear-gradient-8)"
       id="path23" />
    <path
       d="m 34.17,25.02 c -1.88,-1.6 -5.87,-2.7 -10.49,-2.7 -6.24,0 -11.35,2.01 -11.6,4.54 H 12.07 L 13.93,7.67 15.56,6.89 Z"
       style="fill:url(#linear-gradient-9)"
       id="path24" />
    <ellipse
       cx="23.690001"
       cy="27.07"
       rx="11.63"
       ry="4.75"
       style="fill:url(#linear-gradient-10)"
       id="ellipse24" />
    <ellipse
       cx="14.75"
       cy="7.3099999"
       rx="0.91000003"
       ry="0.41999999"
       transform="rotate(-27.96,14.750088,7.3193243)"
       style="fill:#ffffff"
       id="ellipse25" />
  </g>
</svg>
