<?xml version="1.0" encoding="UTF-8" standalone="no"?>
<svg
   viewBox="0 0 48 48"
   version="1.1"
   id="svg9735"
   sodipodi:docname="7-HairShader.svg"
   inkscape:version="1.1 (c68e22c387, 2021-05-23)"
   xmlns:inkscape="http://www.inkscape.org/namespaces/inkscape"
   xmlns:sodipodi="http://sodipodi.sourceforge.net/DTD/sodipodi-0.dtd"
   xmlns:xlink="http://www.w3.org/1999/xlink"
   xmlns="http://www.w3.org/2000/svg"
   xmlns:svg="http://www.w3.org/2000/svg">
  <sodipodi:namedview
     id="namedview9737"
     pagecolor="#ffffff"
     bordercolor="#666666"
     borderopacity="1.0"
     inkscape:pageshadow="2"
     inkscape:pageopacity="0.0"
     inkscape:pagecheckerboard="0"
     showgrid="false"
     inkscape:snap-global="false"
     inkscape:zoom="15.6875"
     inkscape:cx="24"
     inkscape:cy="23.87251"
     inkscape:window-width="2880"
     inkscape:window-height="1557"
     inkscape:window-x="-8"
     inkscape:window-y="-8"
     inkscape:window-maximized="1"
     inkscape:current-layer="svg9735" />
  <defs
     id="defs9651">
    <linearGradient
       inkscape:collect="always"
       id="linearGradient10171">
      <stop
         style="stop-color:#b1cae4;stop-opacity:1"
         offset="0"
         id="stop10167" />
      <stop
         style="stop-color:#204a87;stop-opacity:1"
         offset="1"
         id="stop10169" />
    </linearGradient>
    <linearGradient
       inkscape:collect="always"
       id="linearGradient9818">
      <stop
         style="stop-color:#000000;stop-opacity:0.54205608"
         offset="0"
         id="stop9814" />
      <stop
         style="stop-color:#000000;stop-opacity:0;"
         offset="1"
         id="stop9816" />
    </linearGradient>
    <style
       id="style9550">.cls-1{fill:url(#radial-gradient);}.cls-2{fill:none;stroke:#285092;stroke-miterlimit:10;}.cls-2,.cls-5{stroke-width:1.4px;}.cls-3{fill:url(#linear-gradient);}.cls-4{fill:url(#linear-gradient-2);}.cls-5,.cls-6{fill:#204a87;}.cls-5{stroke:#204a87;stroke-linecap:round;stroke-linejoin:round;}.cls-7{fill:url(#linear-gradient-3);}.cls-8{fill:url(#linear-gradient-4);}.cls-9{fill:url(#linear-gradient-5);}.cls-10{fill:url(#linear-gradient-6);}.cls-11{fill:url(#linear-gradient-7);}.cls-12{fill:url(#linear-gradient-8);}.cls-13{fill:url(#linear-gradient-9);}.cls-14{fill:url(#linear-gradient-10);}.cls-15{fill:url(#linear-gradient-11);}.cls-16{fill:url(#linear-gradient-12);}.cls-17{fill:url(#linear-gradient-13);}.cls-18{fill:url(#linear-gradient-14);}.cls-19{fill:url(#linear-gradient-15);}.cls-20{fill:url(#linear-gradient-16);}.cls-21{fill:url(#linear-gradient-17);}.cls-22{fill:url(#linear-gradient-18);}.cls-23{fill:url(#linear-gradient-19);}.cls-24{fill:url(#linear-gradient-20);}.cls-25{fill:url(#linear-gradient-21);}.cls-26{fill:url(#linear-gradient-22);}.cls-27{fill:url(#linear-gradient-23);}.cls-28{fill:url(#linear-gradient-24);}.cls-29{fill:url(#linear-gradient-25);}.cls-30{fill:url(#linear-gradient-26);}.cls-31{fill:url(#linear-gradient-27);}.cls-32{fill:url(#linear-gradient-28);}.cls-33{fill:url(#linear-gradient-29);}.cls-34{fill:url(#linear-gradient-30);}.cls-35{fill:url(#linear-gradient-31);}.cls-36{fill:url(#linear-gradient-32);}.cls-37{fill:url(#linear-gradient-33);}.cls-38{fill:url(#linear-gradient-34);}.cls-39{fill:url(#linear-gradient-35);}.cls-40{fill:url(#linear-gradient-36);}</style>
    <radialGradient
       id="radial-gradient"
       cx="24.31"
       cy="0.18"
       r="14.58"
       gradientTransform="translate(-11.11 39.51) scale(1.42 0.57)"
       gradientUnits="userSpaceOnUse">
      <stop
         offset="0.24"
         stop-color="#2c2c2c"
         stop-opacity="0.5"
         id="stop9552" />
      <stop
         offset="0.73"
         stop-color="#2c2c2c"
         stop-opacity="0.1"
         id="stop9554" />
      <stop
         offset="0.95"
         stop-color="#2c2c2c"
         stop-opacity="0"
         id="stop9556" />
    </radialGradient>
    <linearGradient
       id="linear-gradient"
       x1="7.2"
       y1="17.66"
       x2="10.04"
       y2="17.66"
       gradientUnits="userSpaceOnUse">
      <stop
         offset="0"
         stop-color="#a2bede"
         id="stop9559" />
      <stop
         offset="1"
         stop-color="#285092"
         id="stop9561" />
    </linearGradient>
    <linearGradient
       id="linear-gradient-2"
       x1="8.54"
       y1="19.75"
       x2="16.33"
       y2="19.75"
       xlink:href="#linear-gradient"
       gradientTransform="matrix(1.1444956,0,0,1.1450896,-4.4966115,-5.2353321)" />
    <linearGradient
       id="linear-gradient-3"
       x1="6.14"
       y1="9.5"
       x2="10.29"
       y2="10.26"
       gradientUnits="userSpaceOnUse">
      <stop
         offset="0"
         stop-color="#bfeb95"
         id="stop9565" />
      <stop
         offset="1"
         stop-color="#73d216"
         id="stop9567" />
    </linearGradient>
    <linearGradient
       id="linear-gradient-4"
       x1="8.87"
       y1="5.93"
       x2="10.92"
       y2="8.63"
       gradientUnits="userSpaceOnUse">
      <stop
         offset="0"
         stop-color="#b78cb5"
         id="stop9570" />
      <stop
         offset="1"
         stop-color="#755076"
         id="stop9572" />
    </linearGradient>
    <linearGradient
       id="linear-gradient-5"
       x1="9.33"
       y1="10.05"
       x2="8.6"
       y2="16.33"
       gradientUnits="userSpaceOnUse">
      <stop
         offset="0"
         stop-color="#f7ec8d"
         id="stop9575" />
      <stop
         offset="1"
         stop-color="#edd400"
         id="stop9577" />
    </linearGradient>
    <linearGradient
       id="linear-gradient-6"
       x1="10.53"
       y1="8.47"
       x2="10.37"
       y2="15.84"
       gradientUnits="userSpaceOnUse">
      <stop
         offset="0"
         stop-color="#f79191"
         id="stop9580" />
      <stop
         offset="1"
         stop-color="#ef2929"
         id="stop9582" />
    </linearGradient>
    <linearGradient
       id="linear-gradient-7"
       x1="9.28"
       y1="11.25"
       x2="14.11"
       y2="25.14"
       gradientUnits="userSpaceOnUse">
      <stop
         offset="0"
         stop-color="#fbc180"
         id="stop9585" />
      <stop
         offset="1"
         stop-color="#f57900"
         id="stop9587" />
    </linearGradient>
    <linearGradient
       id="linear-gradient-8"
       x1="8.5"
       y1="14.05"
       x2="16.59"
       y2="31.37"
       xlink:href="#linear-gradient-4"
       gradientTransform="matrix(1.1444956,0,0,1.1450896,-4.4966115,-5.2353321)" />
    <linearGradient
       id="linear-gradient-9"
       x1="14.09"
       y1="3.79"
       x2="33.49"
       y2="16.58"
       xlink:href="#linear-gradient-7"
       gradientTransform="matrix(1.1444956,0,0,1.1450896,-4.4966115,-5.2353321)" />
    <linearGradient
       id="linear-gradient-10"
       x1="53.46"
       y1="9.59"
       x2="34.94"
       y2="23.42"
       gradientUnits="userSpaceOnUse">
      <stop
         offset="0"
         stop-color="#f57900"
         stop-opacity="0.2"
         id="stop9592" />
      <stop
         offset="1"
         stop-color="#ce5c00"
         id="stop9594" />
    </linearGradient>
    <linearGradient
       id="linear-gradient-11"
       x1="26.96"
       y1="7.55"
       x2="34.49"
       y2="24.15"
       xlink:href="#linear-gradient-6"
       gradientTransform="matrix(1.1444956,0,0,1.1450896,-4.4966115,-5.2353321)" />
    <linearGradient
       id="linear-gradient-12"
       x1="35.88"
       y1="16.52"
       x2="26.56"
       y2="24.1"
       gradientUnits="userSpaceOnUse">
      <stop
         offset="0"
         stop-color="#ef2929"
         stop-opacity="0.2"
         id="stop9598" />
      <stop
         offset="1"
         stop-color="#a40000"
         id="stop9600" />
    </linearGradient>
    <linearGradient
       id="linear-gradient-13"
       x1="18.32"
       y1="6.76"
       x2="31.25"
       y2="38.26"
       xlink:href="#linear-gradient-5"
       gradientTransform="matrix(1.1444956,0,0,1.1450896,-4.4966115,-5.2353321)" />
    <linearGradient
       id="linear-gradient-14"
       x1="6.97"
       y1="13.38"
       x2="24.65"
       y2="32.27"
       gradientUnits="userSpaceOnUse"
       gradientTransform="matrix(1.1444956,0,0,1.1450896,-4.4966115,-5.2353321)">
      <stop
         offset="0"
         stop-color="#91b4ef"
         id="stop9604" />
      <stop
         offset="1"
         stop-color="#3465a4"
         id="stop9606" />
    </linearGradient>
    <linearGradient
       id="linear-gradient-15"
       x1="6.67"
       y1="15.58"
       x2="20.81"
       y2="35.76"
       xlink:href="#linear-gradient-3"
       gradientTransform="matrix(1.1444956,0,0,1.1450896,-4.4966115,-5.2353321)" />
    <linearGradient
       id="linear-gradient-16"
       x1="8.65"
       y1="12.28"
       x2="16.28"
       y2="28.84"
       xlink:href="#linear-gradient-10"
       gradientTransform="matrix(1.1444956,0,0,1.1450896,-4.4966115,-5.2353321)" />
    <linearGradient
       id="linear-gradient-17"
       x1="-0.81"
       y1="9.54"
       x2="20.55"
       y2="29.33"
       gradientUnits="userSpaceOnUse">
      <stop
         offset="0"
         stop-color="#b78cb5"
         stop-opacity="0.2"
         id="stop9611" />
      <stop
         offset="1"
         stop-color="#5c3566"
         id="stop9613" />
    </linearGradient>
    <linearGradient
       id="linear-gradient-18"
       x1="11.94"
       y1="8.94"
       x2="11.97"
       y2="9"
       xlink:href="#linear-gradient-17"
       gradientTransform="matrix(1.1444956,0,0,1.1450896,-4.4966115,-5.2353321)" />
    <linearGradient
       id="linear-gradient-19"
       x1="2.38"
       y1="10.48"
       x2="31.48"
       y2="49.23"
       gradientUnits="userSpaceOnUse">
      <stop
         offset="0"
         stop-color="#73d216"
         stop-opacity="0.3"
         id="stop9617" />
      <stop
         offset="0.83"
         stop-color="#4e9a06"
         id="stop9619" />
    </linearGradient>
    <linearGradient
       id="linear-gradient-20"
       x1="3.99"
       y1="11.69"
       x2="38.04"
       y2="44.53"
       gradientUnits="userSpaceOnUse">
      <stop
         offset="0"
         stop-color="#3465a4"
         stop-opacity="0.2"
         id="stop9622" />
      <stop
         offset="1"
         stop-color="#204a87"
         id="stop9624" />
    </linearGradient>
    <linearGradient
       id="linear-gradient-21"
       x1="11.94"
       y1="8.92"
       x2="11.94"
       y2="8.93"
       xlink:href="#linear-gradient-20"
       gradientTransform="matrix(1.1444956,0,0,1.1450896,-4.4966115,-5.2353321)" />
    <linearGradient
       id="linear-gradient-22"
       x1="-2.17"
       y1="9.91"
       x2="56.86"
       y2="41.44"
       gradientUnits="userSpaceOnUse">
      <stop
         offset="0"
         stop-color="#edd400"
         stop-opacity="0.3"
         id="stop9628" />
      <stop
         offset="1"
         stop-color="#c4a000"
         id="stop9630" />
    </linearGradient>
    <linearGradient
       id="linear-gradient-23"
       x1="29.35"
       y1="3.35"
       x2="32.91"
       y2="27.31"
       xlink:href="#linear-gradient-6"
       gradientTransform="matrix(1.1444956,0,0,1.1450896,-4.4966115,-5.2353321)" />
    <linearGradient
       id="linear-gradient-24"
       x1="8.01"
       y1="8.55"
       x2="15.26"
       y2="18.71"
       xlink:href="#linear-gradient-12"
       gradientTransform="matrix(1.1444956,0,0,1.1450896,-4.4966115,-5.2353321)" />
    <linearGradient
       id="linear-gradient-25"
       x1="7.57"
       y1="9.26"
       x2="12.65"
       y2="15.69"
       xlink:href="#linear-gradient-22"
       gradientTransform="matrix(1.1444956,0,0,1.1450896,-4.4966115,-5.2353321)" />
    <linearGradient
       id="linear-gradient-26"
       x1="6.91"
       y1="7.9"
       x2="8.93"
       y2="11.8"
       xlink:href="#linear-gradient-19"
       gradientTransform="matrix(1.1444956,0,0,1.1450896,-4.4966115,-5.2353321)" />
    <linearGradient
       id="linear-gradient-27"
       x1="19.09"
       y1="4.48"
       x2="24.56"
       y2="13.21"
       gradientUnits="userSpaceOnUse">
      <stop
         offset="0"
         stop-color="#fff"
         id="stop9637" />
      <stop
         offset="1"
         stop-color="#fff"
         stop-opacity="0.1"
         id="stop9639" />
    </linearGradient>
    <linearGradient
       id="linear-gradient-28"
       x1="17.53"
       y1="5.71"
       x2="25"
       y2="13.88"
       xlink:href="#linear-gradient-27"
       gradientTransform="matrix(1.1444956,0,0,1.1450896,-4.4966115,-5.2353321)" />
    <linearGradient
       id="linear-gradient-29"
       x1="16.4"
       y1="7.4"
       x2="22.54"
       y2="15.57"
       xlink:href="#linear-gradient-27"
       gradientTransform="matrix(1.1444956,0,0,1.1450896,-4.4966115,-5.2353321)" />
    <linearGradient
       id="linear-gradient-30"
       x1="12.51"
       y1="9.69"
       x2="21.73"
       y2="17.23"
       xlink:href="#linear-gradient-27"
       gradientTransform="matrix(1.1444956,0,0,1.1450896,-4.4966115,-5.2353321)" />
    <linearGradient
       id="linear-gradient-31"
       x1="12.73"
       y1="11.57"
       x2="16.37"
       y2="16.51"
       xlink:href="#linear-gradient-27"
       gradientTransform="matrix(1.1444956,0,0,1.1450896,-4.4966115,-5.2353321)" />
    <linearGradient
       id="linear-gradient-32"
       x1="11.3"
       y1="11.79"
       x2="13.5"
       y2="16.8"
       xlink:href="#linear-gradient-27"
       gradientTransform="matrix(1.1444956,0,0,1.1450896,-4.4966115,-5.2353321)" />
    <linearGradient
       id="linear-gradient-33"
       x1="8.83"
       y1="9.99"
       x2="10.83"
       y2="18.62"
       xlink:href="#linear-gradient-27"
       gradientTransform="matrix(1.1444956,0,0,1.1450896,-4.4966115,-5.2353321)" />
    <linearGradient
       id="linear-gradient-34"
       x1="7.55"
       y1="11.35"
       x2="7.2"
       y2="17.48"
       xlink:href="#linear-gradient-27"
       gradientTransform="matrix(1.1444956,0,0,1.1450896,-4.4966115,-5.2353321)" />
    <linearGradient
       id="linear-gradient-35"
       x1="5.19"
       y1="9.95"
       x2="7.89"
       y2="9.95"
       xlink:href="#linear-gradient-27"
       gradientTransform="matrix(1.1444956,0,0,1.1450896,-4.4966115,-5.2353321)" />
    <linearGradient
       id="linear-gradient-36"
       x1="8.42"
       y1="6.61"
       x2="10.44"
       y2="6.61"
       xlink:href="#linear-gradient-27"
       gradientTransform="matrix(1.1444956,0,0,1.1450896,-4.4966115,-5.2353321)" />
    <radialGradient
       inkscape:collect="always"
       xlink:href="#linearGradient9818"
       id="radialGradient9820"
       cx="23.34"
       cy="39.610001"
       fx="23.34"
       fy="39.610001"
       r="19.860001"
       gradientTransform="matrix(1,0,0,0.40684792,0,23.494754)"
       gradientUnits="userSpaceOnUse" />
    <linearGradient
       inkscape:collect="always"
       xlink:href="#linear-gradient"
       id="linearGradient9996"
       gradientUnits="userSpaceOnUse"
       x1="7.2"
       y1="17.66"
       x2="10.04"
       y2="17.66"
       gradientTransform="matrix(1.1444956,0,0,1.1450896,-4.4966115,-5.2353321)" />
    <linearGradient
       inkscape:collect="always"
       xlink:href="#linear-gradient-3"
       id="linearGradient9998"
       gradientUnits="userSpaceOnUse"
       x1="6.14"
       y1="9.5"
       x2="10.29"
       y2="10.26"
       gradientTransform="matrix(1.1444956,0,0,1.1450896,-4.4966115,-5.2353321)" />
    <linearGradient
       inkscape:collect="always"
       xlink:href="#linear-gradient-4"
       id="linearGradient10000"
       gradientUnits="userSpaceOnUse"
       x1="8.87"
       y1="5.93"
       x2="10.92"
       y2="8.63"
       gradientTransform="matrix(1.1444956,0,0,1.1450896,-4.4966115,-5.2353321)" />
    <linearGradient
       inkscape:collect="always"
       xlink:href="#linear-gradient-5"
       id="linearGradient10002"
       gradientUnits="userSpaceOnUse"
       x1="9.33"
       y1="10.05"
       x2="8.6"
       y2="16.33"
       gradientTransform="matrix(1.1444956,0,0,1.1450896,-4.4966115,-5.2353321)" />
    <linearGradient
       inkscape:collect="always"
       xlink:href="#linear-gradient-6"
       id="linearGradient10004"
       gradientUnits="userSpaceOnUse"
       x1="10.53"
       y1="8.47"
       x2="10.37"
       y2="15.84"
       gradientTransform="matrix(1.1444956,0,0,1.1450896,-4.4966115,-5.2353321)" />
    <linearGradient
       inkscape:collect="always"
       xlink:href="#linear-gradient-7"
       id="linearGradient10006"
       gradientUnits="userSpaceOnUse"
       x1="9.28"
       y1="11.25"
       x2="14.11"
       y2="25.14"
       gradientTransform="matrix(1.1444956,0,0,1.1450896,-4.4966115,-5.2353321)" />
    <linearGradient
       inkscape:collect="always"
       xlink:href="#linear-gradient-10"
       id="linearGradient10008"
       gradientUnits="userSpaceOnUse"
       x1="53.46"
       y1="9.59"
       x2="34.94"
       y2="23.42"
       gradientTransform="matrix(1.1444956,0,0,1.1450896,-4.4966115,-5.2353321)" />
    <linearGradient
       inkscape:collect="always"
       xlink:href="#linear-gradient-12"
       id="linearGradient10010"
       gradientUnits="userSpaceOnUse"
       x1="35.88"
       y1="16.52"
       x2="26.56"
       y2="24.1"
       gradientTransform="matrix(1.1444956,0,0,1.1450896,-4.4966115,-5.2353321)" />
    <linearGradient
       inkscape:collect="always"
       xlink:href="#linear-gradient-17"
       id="linearGradient10012"
       gradientUnits="userSpaceOnUse"
       x1="-0.81"
       y1="9.54"
       x2="20.55"
       y2="29.33"
       gradientTransform="matrix(1.1444956,0,0,1.1450896,-4.4966115,-5.2353321)" />
    <linearGradient
       inkscape:collect="always"
       xlink:href="#linear-gradient-19"
       id="linearGradient10014"
       gradientUnits="userSpaceOnUse"
       x1="2.38"
       y1="10.48"
       x2="31.48"
       y2="49.23"
       gradientTransform="matrix(1.1444956,0,0,1.1450896,-4.4966115,-5.2353321)" />
    <linearGradient
       inkscape:collect="always"
       xlink:href="#linear-gradient-20"
       id="linearGradient10016"
       gradientUnits="userSpaceOnUse"
       x1="3.99"
       y1="11.69"
       x2="38.04"
       y2="44.53"
       gradientTransform="matrix(1.1444956,0,0,1.1450896,-4.4966115,-5.2353321)" />
    <linearGradient
       inkscape:collect="always"
       xlink:href="#linear-gradient-22"
       id="linearGradient10018"
       gradientUnits="userSpaceOnUse"
       x1="-2.17"
       y1="9.91"
       x2="56.86"
       y2="41.44"
       gradientTransform="matrix(1.1444956,0,0,1.1450896,-4.4966115,-5.2353321)" />
    <linearGradient
       inkscape:collect="always"
       xlink:href="#linear-gradient-27"
       id="linearGradient10020"
       gradientUnits="userSpaceOnUse"
       x1="19.09"
       y1="4.48"
       x2="24.56"
       y2="13.21"
       gradientTransform="matrix(1.1444956,0,0,1.1450896,-4.4966115,-5.2353321)" />
    <linearGradient
       inkscape:collect="always"
       xlink:href="#linearGradient10171"
       id="linearGradient10173"
       x1="2.8657134"
       y1="1.286523"
       x2="37.303719"
       y2="38.577358"
       gradientUnits="userSpaceOnUse" />
  </defs>
  <g
     id="shadow"
     style="fill:url(#radialGradient9820);fill-opacity:1">
    <ellipse
       class="cls-1"
       cx="23.34"
       cy="39.61"
       rx="19.86"
       ry="8.08"
       id="ellipse9653"
       style="fill:url(#radialGradient9820);fill-opacity:1" />
  </g>
  <path
     class="cls-2"
     d="m 7.5320373,11.700543 a 1.4992892,1.5000674 0 0 0 -2.0715371,0.687054 c 0.06867,0.137411 0.1373395,0.274821 0.1945643,0.423683 H 5.5520599 a 5.4020192,5.4048229 0 0 1 -1.3619498,2.565001 c -0.4349083,0.38933 -0.5379129,0.64125 -0.3662386,1.03058 a 2.0600921,2.0611613 0 0 0 1.4763993,0.76721 5.722478,5.725448 0 0 0 0.2060092,1.248148 26.323399,26.337061 0 0 0 1.3848397,3.435269 c 0.2517891,0.687054 0.5608029,1.877947 4.0171793,1.053482 3.456377,-0.824464 3.261813,-2.702411 3.284703,-4.580358 0.02289,-1.877947 -5.2532352,-5.943015 -6.6609647,-6.630069 z"
     id="path9656" />
  <path
     class="cls-3"
     d="m 5.5520599,12.754026 a 5.4020192,5.4048229 0 0 1 -1.3619498,2.622255 c -0.4349083,0.38933 -0.5379129,0.64125 -0.3662386,1.03058 a 2.2889912,2.2901792 0 0 0 2.071537,0.778661 c 0.9499314,-0.12596 1.1444956,-3.58413 1.1444956,-3.58413"
     id="path9658"
     style="fill:url(#linearGradient9996);stroke-width:1" />
  <path
     class="cls-4"
     d="M 5.4605002,12.387597 A 2.4263307,2.42759 0 0 1 5.6550645,14.425856 7.1759874,7.1797118 0 0 0 5.50628,18.445121 26.323399,26.337061 0 0 0 6.8911197,21.88039 c 0.2517891,0.687053 0.5608029,1.877947 4.0171793,1.053482 3.456377,-0.824464 3.261813,-2.702411 3.284703,-4.580358 0.02289,-1.877947 -5.2532352,-5.965917 -6.6609647,-6.652971 a 1.4992892,1.5000674 0 0 0 -2.0715371,0.687054 z"
     id="path9660"
     style="fill:url(#linear-gradient-2);stroke-width:1" />
  <path
     class="cls-5"
     d="m 5.4261654,5.436903 a 4.0629594,4.0650681 0 0 0 -2.357661,3.3665634 4.4749778,4.4773003 0 0 0 2.8040142,4.7979256 4.165964,4.1681261 0 0 0 3.8226153,1.145089 c 0,0 0.6866971,1.351206 1.2131651,2.725314 a 8.4349326,8.4393104 0 0 1 0.206009,5.530782 6.2832808,6.2865419 0 0 1 -3.1702523,3.343662 c 0,0 3.5822713,-0.664152 5.1387853,-2.164219 a 6.500735,6.5041089 0 0 1 -1.854083,3.183349 c -1.5107341,1.397009 -5.7797027,2.141317 -6.8669736,1.397009 a 6.500735,6.5041089 0 0 0 9.0186256,1.626027 9.5794282,9.5844 0 0 1 -4.6466524,3.652836 c -3.2847023,1.305402 -6.2718359,0.606898 -7.015758,0 a 11.628075,11.63411 0 0 0 6.0429368,5.141452 8.5379372,8.5423684 0 0 0 8.2632586,-1.145089 6.1001615,6.1033276 0 0 1 -3.433487,2.439041 9.1559648,9.1607168 0 0 0 5.585138,1.637478 9.4535337,9.4584401 0 0 0 6.088717,-2.862724 11.444956,11.450896 0 0 0 5.550804,0.538192 7.5765609,7.5804932 0 0 0 6.48929,-6.149131 9.9800016,9.9851813 0 0 0 -1.888418,-6.813283 5.4821339,5.4849792 0 0 1 4.371973,1.225246 3.9828447,3.9849118 0 0 1 1.567959,4.236831 7.7139003,7.7179039 0 0 0 1.876973,-5.988819 c -0.469243,-3.549777 -2.140207,-4.958237 -4.875551,-6.332345 0,0 0.904151,-2.759666 4.509312,-2.095514 3.605161,0.664152 4.772547,3.343662 4.577983,4.694867 0,0 1.819748,-4.042166 -0.549358,-7.042301 -1.934198,-2.43904 -5.722478,-2.69096 -8.011469,-2.507746 -2.288992,0.183214 -7.072983,0.50384 -9.648098,-1.935201 C 25.660848,8.6431539 25.752407,6.2155639 23.394746,3.8223266 A 8.9270657,8.9316989 0 0 0 14.69658,1.1084643 C 10.908299,1.7268127 9.6951339,3.7879739 9.6951339,3.7879739 A 3.0672482,3.0688401 0 0 0 7.5091473,1.910027 2.2203215,2.2214738 0 0 0 4.5563487,3.3871926 1.8426379,1.8435943 0 0 1 6.032748,2.574179 1.9799774,1.981005 0 0 1 7.8868309,3.9253847 5.0128907,5.0154924 0 0 0 3.5148577,4.3834205 C 1.2258665,5.8147825 0.68795357,7.3606535 0.84818295,8.6546047 1.0084123,9.948556 1.2830913,10.074516 1.2830913,10.074516 A 3.124473,3.1260946 0 0 1 1.60355,7.7843367 6.6037396,6.607167 0 0 1 5.4261654,5.436903 Z"
     id="path9662"
     style="fill-opacity:1;fill:none;stroke:url(#linearGradient10173)" />
  <path
     class="cls-6"
     d="m 5.4261654,5.436903 a 4.0629594,4.0650681 0 0 0 -2.357661,3.3665634 4.4749778,4.4773003 0 0 0 2.8040142,4.7979256 4.165964,4.1681261 0 0 0 3.8226153,1.145089 c 0,0 0.6866971,1.351206 1.2131651,2.725314 a 8.4349326,8.4393104 0 0 1 0.206009,5.530782 6.2832808,6.2865419 0 0 1 -3.1702523,3.343662 c 0,0 3.5822713,-0.664152 5.1387853,-2.164219 a 6.500735,6.5041089 0 0 1 -1.854083,3.183349 c -1.5107341,1.397009 -5.7797027,2.141317 -6.8669736,1.397009 a 6.500735,6.5041089 0 0 0 9.0186256,1.626027 9.5794282,9.5844 0 0 1 -4.6466524,3.652836 c -3.2847023,1.305402 -6.2718359,0.606898 -7.015758,0 a 11.628075,11.63411 0 0 0 6.0429368,5.141452 8.5379372,8.5423684 0 0 0 8.2632586,-1.145089 6.1001615,6.1033276 0 0 1 -3.433487,2.439041 9.1559648,9.1607168 0 0 0 5.585138,1.637478 9.4535337,9.4584401 0 0 0 6.088717,-2.862724 11.444956,11.450896 0 0 0 5.550804,0.538192 7.5765609,7.5804932 0 0 0 6.48929,-6.149131 9.9800016,9.9851813 0 0 0 -1.888418,-6.813283 5.4821339,5.4849792 0 0 1 4.371973,1.225246 3.9828447,3.9849118 0 0 1 1.567959,4.236831 7.7139003,7.7179039 0 0 0 1.876973,-5.988819 c -0.469243,-3.549777 -2.140207,-4.958237 -4.875551,-6.332345 0,0 0.904151,-2.759666 4.509312,-2.095514 3.605161,0.664152 4.772547,3.343662 4.577983,4.694867 0,0 1.819748,-4.042166 -0.549358,-7.042301 -1.934198,-2.43904 -5.722478,-2.69096 -8.011469,-2.507746 -2.288992,0.183214 -7.072983,0.50384 -9.648098,-1.935201 C 25.660848,8.6431539 25.752407,6.2155639 23.394746,3.8223266 A 8.9270657,8.9316989 0 0 0 14.69658,1.1084643 C 10.908299,1.7268127 9.6951339,3.7879739 9.6951339,3.7879739 A 3.0672482,3.0688401 0 0 0 7.5091473,1.910027 2.2203215,2.2214738 0 0 0 4.5563487,3.3871926 1.8426379,1.8435943 0 0 1 6.032748,2.574179 1.9799774,1.981005 0 0 1 7.8868309,3.9253847 5.0128907,5.0154924 0 0 0 3.5148577,4.3834205 C 1.2258665,5.8147825 0.68795357,7.3606535 0.84818295,8.6546047 1.0084123,9.948556 1.2830913,10.074516 1.2830913,10.074516 A 3.124473,3.1260946 0 0 1 1.60355,7.7843367 6.6037396,6.607167 0 0 1 5.4261654,5.436903 Z"
     id="path9664"
     style="stroke-width:1" />
  <path
     class="cls-7"
     d="m 9.2373357,4.9674162 v 0 A 7.6108957,7.6148458 0 0 0 5.50628,5.4140012 v 0 A 6.6724093,6.6758724 0 0 0 1.7065547,7.7041804 3.1473629,3.1489964 0 0 0 1.3860959,9.9943596 c -0.06867,0 -0.2975689,-0.2862724 -0.42346339,-1.4084602 C 0.68795357,7.3606535 1.2258665,5.8147825 3.5148577,4.3719696 A 4.9900008,4.9925907 0 0 1 7.8868309,3.9253847 1.9685324,1.9695541 0 0 0 6.032748,2.574179 1.819748,1.8206925 0 0 0 4.5563487,3.3757417 2.2889912,2.2901792 0 0 1 7.5091473,1.910027 3.0901381,3.0917419 0 0 1 9.6951339,3.7879739 3.0329133,3.0344874 0 0 1 9.9125881,4.4750277 5.0472256,5.0498451 0 0 0 9.2373357,4.9674162 Z"
     id="path9666"
     style="fill:url(#linearGradient9998);stroke-width:1" />
  <path
     class="cls-8"
     d="M 9.9125881,4.4750277 9.5005697,4.7383983 v 0 A 4.0972942,4.0994208 0 0 0 7.8868309,3.9253847 1.9685324,1.9695541 0 0 0 6.032748,2.574179 1.8540829,1.8550452 0 0 0 4.5449037,3.3757417 2.2889912,2.2901792 0 0 1 7.5091473,1.910027 3.0901381,3.0917419 0 0 1 9.6951339,3.7765231 3.2045877,3.2062509 0 0 1 9.9125881,4.4750277 Z"
     id="path9668"
     style="fill:url(#linearGradient10000);stroke-width:1" />
  <path
     class="cls-9"
     d="M 9.157221,4.990318 A 5.2532348,5.2559613 0 0 0 5.517725,8.0019037 6.6952993,6.6987742 0 0 0 5.8725186,13.601392 4.5093127,4.511653 0 0 1 3.0570595,8.8034664 4.1774089,4.179577 0 0 1 5.4032754,5.436903 v 0 A 7.6108957,7.6148458 0 0 1 9.157221,4.990318 Z"
     id="path9670"
     style="fill:url(#linearGradient10002);stroke-width:1" />
  <path
     class="cls-10"
     d="M 9.157221,5.0017689 A 5.9513771,5.9544659 0 0 0 8.0928401,8.6889574 14.752548,14.760205 0 0 0 9.683689,14.780834 4.165964,4.1681261 0 0 1 5.8610737,13.635745 6.6952993,6.6987742 0 0 1 5.50628,8.0362564 5.2532348,5.2559613 0 0 1 9.1457761,5.0246707 Z"
     id="path9672"
     style="fill:url(#linearGradient10004);stroke-width:1" />
  <path
     class="cls-11"
     d="m 9.157221,5.0017689 a 13.104475,13.111276 0 0 0 2.288991,6.1834841 20.017228,20.027617 0 0 1 2.998579,8.278998 7.8169049,7.820962 0 0 1 -1.350505,4.706318 C 11.675111,25.59048 8.390409,26.288985 7.9898355,26.369141 A 6.2832808,6.2865419 0 0 0 11.125753,23.03693 8.4349326,8.4393104 0 0 0 10.919744,17.506147 C 10.393276,16.143491 9.7065789,14.780834 9.7065789,14.780834 A 14.752548,14.760205 0 0 1 8.0928401,8.6889574 5.9513771,5.9544659 0 0 1 9.157221,5.0017689 Z"
     id="path9674"
     style="fill:url(#linearGradient10006);stroke-width:1" />
  <path
     class="cls-12"
     d="m 9.168666,5.0017689 c 0.1602293,0.2061162 2.094427,2.5879025 5.047226,6.4926581 3.982844,5.255961 3.76539,9.401186 3.055803,12.286811 A 11.82264,11.828776 0 0 1 13.4033,30.388405 6.500735,6.5041089 0 0 1 4.3846744,28.762378 c 1.0643809,0.744308 5.3333495,0 6.8669736,-1.397009 a 6.51218,6.5155598 0 0 0 1.854083,-3.1948 7.8169049,7.820962 0 0 0 1.350505,-4.706318 20.017228,20.027617 0 0 0 -2.998579,-8.278998 13.104475,13.111276 0 0 1 -2.288991,-6.1834841 z"
     id="path9676"
     style="fill:url(#linear-gradient-8);stroke-width:1" />
  <path
     class="cls-13"
     d="m 45.861195,15.525142 c -1.922753,-2.42759 -5.722478,-2.69096 -8.011469,-2.507746 -2.288992,0.183214 -7.084428,0.50384 -9.648098,-1.935201 A 12.085874,12.092146 0 0 1 27.354701,10.177574 C 25.626513,8.0362564 25.443393,5.9521933 23.383301,3.8108757 A 8.9499556,8.9546007 0 0 0 14.685135,1.1084643 C 10.896854,1.7268127 9.683689,3.7879739 9.683689,3.7879739 a 3.0329133,3.0344874 0 0 1 0.2174541,0.6870538 10.575139,10.580628 0 0 1 9.2360799,-0.7099555 9.5908731,9.5958508 0 0 1 1.773968,0.9046207 v 0 a 18.048696,18.058063 0 0 1 6.168831,5.7254481 c 1.31617,1.774889 2.369106,3.515425 3.067248,4.671966 a 8.320483,8.3248014 0 0 0 0.629473,0.893169 c 1.670963,2.003907 4.200299,2.965782 6.60374,4.042167 0,0 0.904151,-2.759666 4.509312,-2.095514 3.605161,0.664152 4.761102,3.343661 4.577983,4.683416 v 0 a 0.19456425,0.19466523 0 0 1 0,-0.05725 c 0.274679,-0.64125 1.613738,-4.259734 -0.606583,-7.007949 z"
     id="path9678"
     style="fill:url(#linear-gradient-9);stroke-width:1" />
  <path
     class="cls-14"
     d="m 44.190231,16.303803 a 5.6194734,5.6223899 0 0 1 2.288992,6.172033 0.19456425,0.19466523 0 0 0 0,0.05725 v 0 c 0.206009,-1.339755 -0.949932,-4.019265 -4.577983,-4.683417 -3.628051,-0.664152 -4.497868,2.106965 -4.497868,2.106965 -2.40344,-1.076384 -4.932776,-2.038259 -6.603739,-4.042166 a 5.3562394,5.3590193 0 0 0 4.669542,0.721406 c 1.567959,-0.480937 6.077271,-2.290179 8.721056,-0.332076 z"
     id="path9680"
     style="fill:url(#linearGradient10008);stroke-width:1" />
  <path
     class="cls-15"
     d="m 30.799633,15.925924 c 1.670963,2.003907 4.200299,2.965782 6.603739,4.042166 2.735345,1.374108 4.394864,2.782568 4.875552,6.332345 a 7.7139003,7.7179039 0 0 1 -1.876973,5.988819 3.9942896,3.9963627 0 0 0 -1.556514,-4.236831 5.5164688,5.5193319 0 0 0 -4.429198,-1.225246 53.356385,53.384077 0 0 1 -5.24179,-9.538597 C 28.155848,14.574718 25.557843,7.6812786 20.876856,4.6925947 v 0 a 18.048696,18.058063 0 0 1 6.168831,5.7254483 c 1.31617,1.774889 2.369106,3.515425 3.067248,4.671965 a 8.320483,8.3248014 0 0 0 0.686698,0.835916 z"
     id="path9682"
     style="fill:url(#linear-gradient-11);stroke-width:1" />
  <path
     class="cls-16"
     d="m 30.799633,15.925924 c 1.670963,2.003907 4.200299,2.965782 6.603739,4.042166 2.735345,1.374108 4.394864,2.782568 4.875552,6.332345 a 7.7139003,7.7179039 0 0 1 -1.876973,5.988819 3.9942896,3.9963627 0 0 0 -1.556514,-4.236831 5.5164688,5.5193319 0 0 0 -4.429198,-1.225246 53.356385,53.384077 0 0 1 -5.24179,-9.538597 C 28.155848,14.574718 25.557843,7.6812786 20.876856,4.6925947 v 0 a 18.048696,18.058063 0 0 1 6.168831,5.7254483 c 1.31617,1.774889 2.369106,3.515425 3.067248,4.671965 a 8.320483,8.3248014 0 0 0 0.686698,0.835916 z"
     id="path9684"
     style="fill:url(#linearGradient10010);stroke-width:1" />
  <path
     class="cls-17"
     d="M 16.665112,5.1964342 C 12.670823,3.9253847 10.290272,4.4177732 9.2373357,4.9674162 A 5.0472256,5.0498451 0 0 1 9.9583679,4.4750277 10.575139,10.580628 0 0 1 19.194447,3.7650722 9.5908731,9.5958508 0 0 1 20.968416,4.6696929 c 4.680987,3.0115857 7.278992,9.9050251 8.297593,12.5959861 a 53.356385,53.384077 0 0 0 5.15023,9.561498 9.9113319,9.9164759 0 0 1 1.808303,6.744577 7.5880058,7.591944 0 0 1 -6.386286,6.149132 11.444956,11.450896 0 0 1 -5.539358,-0.526742 C 27.251696,35.186331 28.178738,26.288985 26.324655,18.971862 24.470572,11.654739 20.739516,6.5132872 16.665112,5.1964342 Z"
     id="path9686"
     style="fill:url(#linear-gradient-13);stroke-width:1" />
  <path
     class="cls-18"
     d="m 9.2373357,4.9674162 c 1.1444953,-0.549643 3.4334873,-1.1450896 7.4735563,0.229018 4.040069,1.3741075 7.748235,6.4468548 9.602318,13.7410748 1.854083,7.294221 0.927041,16.214469 -2.025757,20.222283 A 9.5107584,9.5156946 0 0 1 18.187291,42.011065 9.1559648,9.1607168 0 0 1 12.602153,40.373587 6.1459414,6.1491312 0 0 0 16.03564,37.934546 16.263282,16.271723 0 0 0 20.064264,32.735839 21.630967,21.642193 0 0 0 21.929792,19.269585 17.796907,17.806143 0 0 0 14.250226,7.0171266 13.733947,13.741075 0 0 0 9.168666,5.0017689 v 0 z"
     id="path9688"
     style="fill:url(#linear-gradient-14);stroke-width:1" />
  <path
     class="cls-19"
     d="m 9.168666,5.0017689 a 13.733947,13.741075 0 0 1 5.08156,2.0153577 17.796907,17.806143 0 0 1 7.679566,12.2524584 21.630967,21.642193 0 0 1 -1.854083,13.500607 16.263282,16.271723 0 0 1 -3.9714,5.198707 8.6066069,8.6110738 0 0 1 -8.2632579,1.145089 11.63952,11.645561 0 0 1 -6.0429368,-5.130001 c 0.7553671,0.64125 3.7425006,1.305402 7.027203,0 a 9.7282126,9.7332616 0 0 0 4.6352067,-3.652836 11.82264,11.828776 0 0 0 3.788281,-6.549913 C 17.958392,20.895613 18.175846,16.750388 14.193002,11.494427 11.263093,7.5896714 9.3288953,5.2078851 9.168666,5.0017689 Z"
     id="path9690"
     style="fill:url(#linear-gradient-15);stroke-width:1" />
  <path
     class="cls-20"
     d="m 14.433346,19.464251 a 7.8626848,7.8667656 0 0 1 -1.350505,4.706318 c -1.419175,1.419911 -4.703877,2.118416 -5.1044505,2.198572 l 0.263234,-0.114509 C 10.942634,25.109542 13.35752,24.05606 13.014171,19.315389 12.819607,16.52137 11.240203,14.425856 10.244492,12.089874 9.2487807,9.7538908 8.390409,7.085832 9.0999962,5.0246707 a 13.356264,13.363196 0 0 0 2.2889908,6.1605823 20.017228,20.027617 0 0 1 3.044359,8.278998 z"
     id="path9692"
     style="fill:url(#linear-gradient-16);stroke-width:1" />
  <path
     class="cls-21"
     d="M 17.248805,23.781238 A 11.82264,11.828776 0 0 1 13.38041,30.388405 6.5236249,6.5270107 0 0 1 4.3617844,28.762378 c 3.8455053,3.06884 8.3662626,0.870268 10.3004606,-2.839822 1.934197,-3.71009 2.369106,-8.542369 -1.144496,-13.592214 A 50.930054,50.956487 0 0 1 9.157221,5.0704743 v 0 h 0.080115 c 0.3547936,0.4465849 2.231766,2.7596659 5.001445,6.4239527 3.94851,5.255961 3.742501,9.389735 3.010024,12.286811 z"
     id="path9694"
     style="fill:url(#linearGradient10012);stroke-width:1" />
  <path
     class="cls-22"
     d="m 9.2373357,5.0704743 h -0.057225 v 0 0 z"
     id="path9696"
     style="fill:url(#linear-gradient-18);stroke-width:1" />
  <path
     class="cls-23"
     d="m 20.075709,32.770192 a 16.389177,16.397683 0 0 1 -3.9714,5.198707 8.6066069,8.6110738 0 0 1 -8.2632579,1.145089 11.570851,11.576856 0 0 1 -6.0429368,-5.141452 c 1.3962846,1.648929 4.5779824,3.435269 6.8669736,3.103193 C 10.954079,36.743653 15.371832,35.827581 18.816764,28.224186 22.261696,20.620791 18.57642,13.670097 16.024195,10.349337 A 22.05443,22.065877 0 0 0 9.2373357,5.0017689 v 0 a 13.814062,13.821231 0 0 1 5.0815603,2.0268086 17.796907,17.806143 0 0 1 7.679566,12.2410075 21.653857,21.665095 0 0 1 -1.922753,13.500607 z"
     id="path9698"
     style="fill:url(#linearGradient10014);stroke-width:1" />
  <path
     class="cls-24"
     d="m 24.241673,39.182693 a 9.4993135,9.5042437 0 0 1 -6.100162,2.862724 9.0872951,9.0920114 0 0 1 -5.585138,-1.648929 c 4.669542,1.740537 8.011469,0 10.586584,-5.725448 C 25.718072,28.945592 26.29032,18.376415 20.922636,10.795922 15.554951,3.2154291 9.168666,4.990318 9.168666,4.990318 v 0 0 c 1.144496,-0.5381921 3.433487,-1.1450896 7.473556,0.2290179 4.04007,1.3741076 7.748235,6.4583051 9.602318,13.7410751 1.854083,7.28277 0.949932,16.214469 -2.002867,20.222282 z"
     id="path9700"
     style="fill:url(#linearGradient10016);stroke-width:1" />
  <path
     class="cls-25"
     d="M 9.168666,4.9674162 Z"
     id="path9702"
     style="fill:url(#linear-gradient-21);stroke-width:1" />
  <path
     class="cls-26"
     d="m 36.270322,33.560304 a 7.5880058,7.591944 0 0 1 -6.500735,6.160582 11.444956,11.450896 0 0 1 -5.527914,-0.538193 c 7.359107,0 8.011469,-4.855179 7.7139,-8.015627 C 31.658005,28.006619 29.929816,23.849944 28.522087,20.208559 27.114357,16.567174 25.008485,7.9331983 19.698025,5.2193359 A 11.181722,11.187525 0 0 0 9.3975651,4.8758091 h -0.09156 l -0.06867,0.080156 A 7.0500929,7.0537519 0 0 1 9.9583679,4.4750277 10.575139,10.580628 0 0 1 19.194447,3.7650722 8.9385106,8.9431498 0 0 1 20.968416,4.6696929 c 4.680987,3.0001348 7.278992,9.9050251 8.297593,12.5959861 a 53.356385,53.384077 0 0 0 5.15023,9.561498 9.8655521,9.8706724 0 0 1 1.854083,6.733127 z"
     id="path9704"
     style="fill:url(#linearGradient10018);stroke-width:1" />
  <path
     class="cls-27"
     d="m 40.413396,32.266352 c 1.957087,-3.996362 0.06867,-6.870537 -5.058671,-9.321029 A 12.875576,12.882258 0 0 1 29.575023,18.170299 C 29.449128,17.872576 29.334678,17.586304 29.220229,17.28858 28.201628,14.574718 25.603623,7.6698277 20.922636,4.6925947 v 0 a 18.19748,18.206925 0 0 1 6.168831,5.7254483 c 1.31617,1.763438 2.369106,3.515425 3.067248,4.671965 a 7.1759874,7.1797118 0 0 0 0.629473,0.881719 c 1.670963,2.015358 4.200299,2.977233 6.603739,4.053617 2.735345,1.362657 4.394864,2.771117 4.875552,6.320895 a 7.7253453,7.7293548 0 0 1 -1.876973,6.00027 z"
     id="path9706"
     style="fill:url(#linear-gradient-23);stroke-width:1" />
  <path
     class="cls-28"
     d="M 9.6951339,14.780834 A 4.944221,4.9467871 0 0 1 7.7151566,14.666325 13.882732,13.889937 0 0 1 6.7308903,9.9027524 C 6.6278857,6.4674836 8.7223127,5.1964342 9.1228861,4.990318 v 0 a 6.0314918,6.0346222 0 0 0 -1.030046,3.6986394 14.786883,14.794558 0 0 0 1.6022938,6.0918766 z"
     id="path9708"
     style="fill:url(#linear-gradient-24);stroke-width:1" />
  <path
     class="cls-29"
     d="m 9.157221,4.990318 v 0 A 5.0128907,5.0154924 0 0 0 4.7509129,7.3606535 4.9556659,4.958238 0 0 0 5.0141469,13.086101 3.7653905,3.7673448 0 0 0 5.8725186,13.555588 6.6952993,6.6987742 0 0 1 5.517725,7.9561001 5.2532348,5.2559613 0 0 1 9.157221,4.990318 Z"
     id="path9710"
     style="fill:url(#linear-gradient-25);stroke-width:1" />
  <path
     class="cls-30"
     d="m 9.3060054,4.8643582 -0.06867,0.091607 v 0 a 7.8169049,7.820962 0 0 0 -3.7425006,0.446585 v 0 A 6.5465148,6.5499125 0 0 0 1.6951097,7.6927295 3.0901381,3.0917419 0 0 0 1.363206,9.9829087 3.6852758,3.6871885 0 0 1 2.7480456,5.7002736 6.6037396,6.607167 0 0 1 9.3060054,4.8643582 Z"
     id="path9712"
     style="fill:url(#linear-gradient-26);stroke-width:1" />
  <path
     class="cls-31"
     d="m 14.959814,1.6352055 a 7.5880058,7.591944 0 0 1 5.12734,0.1259599 9.9456668,9.9508286 0 0 1 4.669542,4.1223225 9.1559648,9.1607168 0 0 0 -2.58656,-2.1642193 3.6166061,3.6184831 0 0 1 1.144496,1.7519871 11.444956,11.450896 0 0 0 -6.683855,-2.6909606 3.6852758,3.6871885 0 0 1 2.082982,-0.435134 7.2103223,7.2140645 0 0 0 -3.753945,-0.7099556 z"
     id="path9714"
     style="fill:url(#linearGradient10020);stroke-width:1" />
  <path
     class="cls-32"
     d="m 15.085708,3.4215453 a 11.73108,11.737168 0 0 1 5.001446,1.1450896 10.094451,10.09969 0 0 1 3.696721,3.2635053 7.0844278,7.0881046 0 0 0 -2.975689,-1.6718308 7.8169049,7.820962 0 0 1 1.4764,2.759666 c 0,0 -2.391996,-3.091742 -5.26468,-3.8475011 a 3.7081657,3.7100903 0 0 1 1.625184,0 7.1073177,7.1110064 0 0 0 -3.559382,-1.648929 z"
     id="path9716"
     style="fill:url(#linear-gradient-28);stroke-width:1" />
  <path
     class="cls-33"
     d="M 14.959814,4.9674162 A 7.9427995,7.9469218 0 0 1 19.89259,7.6125732 8.0114692,8.0156272 0 0 0 18.198736,7.2804972 10.861263,10.8669 0 0 1 20.132934,9.9142033 11.444956,11.450896 0 0 0 18.347521,8.631703 12.921355,12.928062 0 0 1 19.205892,11.677641 11.914199,11.920383 0 0 0 14.959814,7.1774392 3.8340603,3.8360502 0 0 1 16.768117,7.3492026 21.505072,21.516234 0 0 0 14.399011,5.7117245 5.4134642,5.4162738 0 0 1 16.287429,6.089604 12.658121,12.664691 0 0 0 14.959814,4.9674162 Z"
     id="path9718"
     style="fill:url(#linear-gradient-29);stroke-width:1" />
  <path
     class="cls-34"
     d="m 13.666534,6.8568141 a 12.589452,12.595986 0 0 1 3.582271,3.1833489 6.8669736,6.8705376 0 0 0 -1.545069,-0.7672099 12.257548,12.26391 0 0 1 1.144495,3.1947999 13.974291,13.981544 0 0 0 -1.991422,-1.981005 6.3290607,6.3323455 0 0 1 0.228899,1.981005 c 0,0 -1.728188,-2.381786 -2.414885,-3.2406035 a 2.6666747,2.6680588 0 0 1 1.144495,0.3091742 C 14.193002,9.7996943 12.670823,7.417908 12.155799,6.7766578 a 10.048671,10.053887 0 0 1 2.037203,1.1450896 4.165964,4.1681261 0 0 0 -0.526468,-1.0649333 z"
     id="path9720"
     style="fill:url(#linear-gradient-30);stroke-width:1" />
  <path
     class="cls-35"
     d="m 13.414745,11.036391 a 4.4864228,4.4887512 0 0 0 -0.618028,-0.26337 6.4549552,6.4583053 0 0 1 0.766812,2.450491 5.722478,5.725448 0 0 0 -0.778257,-0.996228 c 0,0 0,0.755759 0,1.14509 A 18.31193,18.321434 0 0 0 10.74807,9.61648 1.7052984,1.7061835 0 0 1 11.755226,9.9142033 c 0,0 -0.309014,-0.9275226 -0.640918,-2.0497104 a 20.955714,20.966591 0 0 1 2.300437,3.1718981 z"
     id="path9722"
     style="fill:url(#linear-gradient-31);stroke-width:1" />
  <path
     class="cls-36"
     d="m 8.3446291,8.8034664 a 10.620919,10.626431 0 0 0 0.8927066,4.2826346 6.3977304,6.4010509 0 0 1 0,-1.305402 7.027203,7.0308501 0 0 0 1.2932803,1.751987 8.8011712,8.805739 0 0 1 -0.354794,-2.129866 c 0.06867,-0.618349 0.881262,0.572545 1.464954,1.145089 0,0 -1.041491,-1.935201 -1.487844,-2.931429 a 5.9170423,5.9201132 0 0 0 0,0.790112 A 5.5164688,5.5193319 0 0 1 9.0885513,8.402685 11.742525,11.748619 0 0 0 8.9168769,10.303534 C 8.893987,10.795922 8.367519,9.2500513 8.3446291,8.8034664 Z"
     id="path9724"
     style="fill:url(#linear-gradient-32);stroke-width:1" />
  <path
     class="cls-37"
     d="M 5.8038489,8.3225288 A 3.7539456,3.7558939 0 0 0 6.0213031,9.6508327 5.722478,5.725448 0 0 1 6.6736656,7.967551 c 0,0 -0.06867,1.5229692 0.3891285,2.0268086 A 2.9413537,2.9428803 0 0 1 7.589262,8.84927 13.299039,13.305941 0 0 0 8.5391934,12.479204 9.6824328,9.687458 0 0 1 7.3946978,11.334114 c -0.1258945,-0.240468 -0.5836928,1.14509 -0.3891285,1.877947 0,0 -1.1444956,-1.522969 -1.1444956,-2.290179 a 2.2203215,2.2214738 0 0 0 -0.057225,1.706184 3.9370649,3.9391082 0 0 1 -0.515023,-1.614577 5.1845651,5.1872559 0 0 1 0.5150232,-2.6909602 z"
     id="path9726"
     style="fill:url(#linear-gradient-33);stroke-width:1" />
  <path
     class="cls-38"
     d="M 4.8653625,11.253958 A 4.7382118,4.7406709 0 0 1 5.002702,8.8034664 1.4763993,1.4771656 0 0 0 4.3846744,9.5134219 2.1745416,2.1756702 0 0 1 4.6593533,7.853042 2.1287618,2.1298667 0 0 0 3.709422,8.8950736 2.5407802,2.5420989 0 0 1 4.0184358,6.9255195 c 0,0 -1.304725,1.1450896 -0.6638075,3.8704025 a 1.9685324,1.9695541 0 0 1 0.1602294,-0.9046205 4.2689686,4.2711842 0 0 0 0.6866974,2.0497105 3.8569502,3.858952 0 0 1 0.1144495,-1.580224 2.0257572,2.0268086 0 0 0 0.5493579,0.89317 z"
     id="path9728"
     style="fill:url(#linear-gradient-34);stroke-width:1" />
  <path
     class="cls-39"
     d="M 1.4662106,6.6621488 A 4.165964,4.1681261 0 0 1 3.3431834,4.5780858 3.6852758,3.6871885 0 0 0 2.6793759,5.4598048 3.4334868,3.4352688 0 0 1 4.5334588,4.7154965 5.4134642,5.4162738 0 0 0 2.6335961,6.1239567 2.6552298,2.6566079 0 0 1 3.6521972,5.7346263 c 0,0 -1.8998627,1.1450896 -2.2088765,2.0039068 A 5.19601,5.1987068 0 0 1 2.0613483,6.2842693 1.567959,1.5687728 0 0 0 1.4662106,6.6621488 Z"
     id="path9730"
     style="fill:url(#linear-gradient-35);stroke-width:1" />
  <path
     class="cls-40"
     d="M 7.4519226,1.9672815 A 2.3576609,2.3588846 0 0 0 5.1629314,2.5169245 1.9113077,1.9122996 0 0 1 7.3031381,2.7802951 1.5107342,1.5115183 0 0 0 6.4562114,2.1390449 2.2889912,2.2901792 0 0 1 7.4519226,1.9672815 Z"
     id="path9732"
     style="fill:url(#linear-gradient-36);stroke-width:1" />
</svg>
