<?xml version="1.0" encoding="UTF-8" standalone="no"?>
<svg
   sodipodi:docname="kma_mtlx.svg"
   inkscape:version="1.2.1 (9c6d41e, 2022-07-14)"
   width="48px"
   height="48px"
   viewBox="0 0 48 48"
   version="1.1"
   id="SVGRoot"
   xmlns:inkscape="http://www.inkscape.org/namespaces/inkscape"
   xmlns:sodipodi="http://sodipodi.sourceforge.net/DTD/sodipodi-0.dtd"
   xmlns:xlink="http://www.w3.org/1999/xlink"
   xmlns="http://www.w3.org/2000/svg"
   xmlns:svg="http://www.w3.org/2000/svg"
   xmlns:rdf="http://www.w3.org/1999/02/22-rdf-syntax-ns#"
   xmlns:cc="http://creativecommons.org/ns#"
   xmlns:dc="http://purl.org/dc/elements/1.1/">
  <defs
     id="defs7051">
    <linearGradient
       id="linearGradient31615">
      <stop
         style="stop-color:#eeeeec;stop-opacity:1;"
         offset="0"
         id="stop31617" />
      <stop
         style="stop-color:#d2d2cc;stop-opacity:1;"
         offset="1"
         id="stop31619" />
    </linearGradient>
    <linearGradient
       id="linearGradient22953">
      <stop
         style="stop-color:#000000;stop-opacity:0.65765768;"
         offset="0"
         id="stop22955" />
      <stop
         style="stop-color:#000000;stop-opacity:0;"
         offset="1"
         id="stop22957" />
    </linearGradient>
    <linearGradient
       id="linearGradient22937">
      <stop
         style="stop-color:#edd400;stop-opacity:1;"
         offset="0"
         id="stop22939" />
      <stop
         id="stop22949"
         offset="0.125"
         style="stop-color:#edd400;stop-opacity:1;" />
      <stop
         id="stop22947"
         offset="0.25"
         style="stop-color:#ffffff;stop-opacity:1;" />
      <stop
         id="stop22945"
         offset="0.39302918"
         style="stop-color:#edd400;stop-opacity:1;" />
      <stop
         style="stop-color:#c6b100;stop-opacity:1;"
         offset="1"
         id="stop22941" />
    </linearGradient>
    <linearGradient
       id="linearGradient22923">
      <stop
         style="stop-color:#f79898;stop-opacity:1;"
         offset="0"
         id="stop22925" />
      <stop
         id="stop22933"
         offset="0.25"
         style="stop-color:#da2121;stop-opacity:1;" />
      <stop
         id="stop22931"
         offset="0.5"
         style="stop-color:#c61a1a;stop-opacity:1;" />
      <stop
         style="stop-color:#780909;stop-opacity:1;"
         offset="1"
         id="stop22927" />
    </linearGradient>
    <linearGradient
       inkscape:collect="always"
       xlink:href="#linearGradient79381"
       id="linearGradient79383"
       x1="48.223331"
       y1="5.7785387"
       x2="38.325775"
       y2="26.462418"
       gradientUnits="userSpaceOnUse"
       gradientTransform="matrix(0.70087284,0,0,0.70105675,14.443041,28.261875)" />
    <linearGradient
       inkscape:collect="always"
       id="linearGradient79381">
      <stop
         style="stop-color:#4cbcd0;stop-opacity:1"
         offset="0"
         id="stop79377" />
      <stop
         style="stop-color:#a1daeb;stop-opacity:1"
         offset="0.05076862"
         id="stop79611" />
      <stop
         style="stop-color:#3eb5cd;stop-opacity:1"
         offset="0.20273705"
         id="stop79677" />
      <stop
         style="stop-color:#186977;stop-opacity:1"
         offset="1"
         id="stop79379" />
    </linearGradient>
    <linearGradient
       inkscape:collect="always"
       xlink:href="#linearGradient50950"
       id="linearGradient50952"
       x1="16.736212"
       y1="28.58629"
       x2="33.144535"
       y2="0.49534529"
       gradientUnits="userSpaceOnUse"
       gradientTransform="matrix(0.70087284,0,0,0.70105675,14.443041,28.261875)" />
    <linearGradient
       inkscape:collect="always"
       id="linearGradient50950">
      <stop
         style="stop-color:#1d6977;stop-opacity:1"
         offset="0"
         id="stop50946" />
      <stop
         style="stop-color:#2b8aa0;stop-opacity:1"
         offset="0.35490742"
         id="stop55190" />
      <stop
         style="stop-color:#547596;stop-opacity:1"
         offset="0.42234021"
         id="stop55192" />
      <stop
         style="stop-color:#547596;stop-opacity:1"
         offset="0.58735025"
         id="stop63894" />
      <stop
         style="stop-color:#2a8aa0;stop-opacity:1"
         offset="0.64681154"
         id="stop63896" />
      <stop
         style="stop-color:#29889c;stop-opacity:1"
         offset="1"
         id="stop50948" />
    </linearGradient>
  </defs>
  <sodipodi:namedview
     inkscape:grid-bbox="true"
     inkscape:window-maximized="1"
     inkscape:window-y="40"
     inkscape:window-x="0"
     inkscape:window-height="1369"
     inkscape:window-width="2560"
     showgrid="false"
     inkscape:document-rotation="0"
     inkscape:current-layer="g35985"
     inkscape:document-units="px"
     inkscape:cy="35.860415"
     inkscape:cx="2.9041885"
     inkscape:zoom="3.959798"
     inkscape:pageshadow="2"
     inkscape:pageopacity="0.0"
     borderopacity="1.0"
     bordercolor="#666666"
     pagecolor="#ffffff"
     id="base"
     inkscape:snap-global="false"
     inkscape:pagecheckerboard="0"
     inkscape:showpageshadow="2"
     inkscape:deskcolor="#d1d1d1" />
  <metadata
     id="metadata7054">
    <rdf:RDF>
      <cc:Work
         rdf:about="">
        <dc:format>image/svg+xml</dc:format>
        <dc:type
           rdf:resource="http://purl.org/dc/dcmitype/StillImage" />
      </cc:Work>
    </rdf:RDF>
  </metadata>
  <g
     id="layer1"
     inkscape:groupmode="layer"
     inkscape:label="Layer 1">
    <g
       id="g35985"
       transform="scale(0.75186048)">
      <g
         id="g39775">
        <rect
           style="fill:#ffffff;fill-opacity:1;stroke-width:4;stroke-linecap:square;paint-order:stroke fill markers;stop-color:#000000"
           id="rect35974"
           width="48"
           height="48"
           x="0"
           y="0" />
        <path
           class="st0"
           d="m 0,0 v 33.300977 c 1.3450086,-2.149613 3.2904674,-3.782838 5.8363773,-4.839631 v 0 c 1.3930443,-0.564425 2.9782331,-0.852641 4.9717297,-0.912685 3.434575,-0.09607 6.136602,-1.537153 8.034025,-4.275206 1.345009,-1.94546 1.849387,-4.287216 1.405054,-6.592944 -0.420315,-2.221667 -1.669252,-4.11909 -3.506631,-5.34401 -3.158368,-2.113585 -7.337503,-1.4530901 -9.4871151,1.501127 -1.6812611,2.305728 -1.4410807,5.500125 0.5524147,7.289466 1.5371521,1.369028 3.7348014,1.513136 5.2239164,0.324244 1.104831,-0.876658 1.441082,-2.389792 0.768578,-3.458594 -0.336253,-0.528396 -0.924694,-0.828623 -1.453089,-0.756568 -0.288217,0.04803 -0.480361,0.168126 -0.552415,0.336253 -0.06004,0.168125 -0.01201,0.372279 0.168125,0.600449 0.168127,0.216163 0.228171,0.468352 0.168127,0.732549 -0.06004,0.288217 -0.252189,0.540406 -0.540405,0.708533 -0.61246,0.34826 -1.417064,0.240179 -2.0175138,-0.276207 -0.8286216,-0.708531 -1.1048285,-1.909432 -0.708531,-3.050289 0.6484858,-1.897423 2.7980988,-2.954216 4.8876648,-2.425818 1.369028,0.34826 2.509883,1.224917 3.230424,2.461845 0.780585,1.345009 0.984738,3.002253 0.552414,4.551413 -0.900676,3.29047 -4.155117,5.404055 -7.709783,4.995747 C 5.8483858,24.426318 2.7500619,21.063797 2.4858643,16.884662 2.245684,12.9337 4.4913678,9.1508622 8.0940706,7.4816102 13.510133,4.9717284 19.898925,7.1573676 22.624971,12.465348 c 2.065547,4.011008 1.969477,8.118089 -0.288217,12.21316 -1.609207,2.90618 -1.82537,5.860396 -0.648487,8.778585 1.633226,4.023017 5.956468,6.268702 10.087567,5.223917 3.782837,-0.96072 6.148611,-4.623468 5.380033,-8.334249 -0.636476,-3.086316 -3.542657,-5.115839 -6.472854,-4.527398 -2.221665,0.444335 -3.758818,2.497875 -3.410558,4.575433 0.192146,1.152866 1.008757,2.06555 2.041531,2.281712 0.672505,0.144108 1.2009,0 1.657244,-0.420316 0.276206,-0.264198 0.372278,-0.552414 0.312233,-0.900676 -0.04803,-0.276206 -0.228171,-0.396297 -0.504376,-0.360271 -0.480363,0.07205 -0.768579,-0.08406 -0.924695,-0.240178 -0.156117,-0.144109 -0.336252,-0.432325 -0.288217,-0.924695 0.06004,-0.672503 0.636479,-1.284963 1.381037,-1.501125 1.333,-0.384288 2.858144,0.456343 3.458593,1.909432 0.756568,1.837378 -0.03602,4.083063 -1.849387,5.235926 -2.425819,1.537155 -5.668251,0.888668 -7.541657,-1.489117 -2.305728,-2.930196 -1.837377,-7.24143 1.068803,-9.823367 1.717288,-1.525144 3.950963,-2.269702 6.268702,-2.113585 2.425818,0.168126 4.635476,1.296973 6.220664,3.170378 1.753315,2.065549 2.581936,4.695523 2.353766,7.409557 -0.240181,2.834126 -1.597198,5.428071 -3.818865,7.301477 -4.239178,3.554665 -10.543906,3.578684 -14.98724,0.04803 -1.549163,-1.236928 -2.641983,-2.822118 -3.494622,-4.215163 -2.545909,-4.131097 -7.769827,-5.66825 -12.1411057,-3.590691 -2.029522,0.972728 -3.5906925,2.762069 -4.2631977,4.911682 -0.6604951,2.101577 -0.4323239,4.287216 0.6244687,6.148611 0.9006754,1.585191 2.4378285,2.738054 4.2031528,3.158371 1.6572429,0.384287 3.3264959,0.10808 4.6955199,-0.804604 2.041532,-1.369028 2.822119,-3.974981 1.813361,-6.05254 -0.720541,-1.489116 -2.317739,-2.30573 -3.7828366,-1.94546 -0.9727301,0.240181 -1.549162,0.816614 -1.7413058,1.70528 -0.1200906,0.564423 0.036027,0.996746 0.4443332,1.296973 0.1080806,0.08406 0.288216,0.168125 0.4563422,0.12009 C 9.0668,40.674497 9.1868897,40.5424 9.2589436,40.350257 9.367025,40.074048 9.547161,39.869897 9.78734,39.773824 c 0.252189,-0.09607 0.540405,-0.08406 0.840631,0.06004 0.60045,0.288217 0.948712,0.97273 0.864648,1.753315 -0.108082,1.09282 -1.020766,2.05354 -2.2336754,2.317739 -1.7292968,0.384288 -3.6147108,-0.648487 -4.3832874,-2.401802 -1.0447835,-2.377784 -0.096072,-5.235927 2.2096575,-6.65299 1.5131348,-0.936703 3.3264953,-1.212909 5.0798103,-0.768576 1.849387,0.468351 3.398549,1.645234 4.383287,3.314486 2.017513,3.470603 1.188893,7.817862 -1.873404,10.531898 H 48 V 9.2e-7 Z"
           id="path34227"
           style="fill:#ff4713;fill-opacity:1;stroke-width:0.120089" />
      </g>
    </g>
    <path
       style="fill:#d95c84;fill-opacity:1;fill-rule:evenodd;stroke:#f9c3d1;stroke-width:0.3387;stroke-linecap:round;stroke-linejoin:round;stroke-miterlimit:4;stroke-dasharray:none;stroke-opacity:1"
       d="M 20.676613,47.425123 V 28.996619 l -5.29218,3.056242 v 12.231564 z"
       id="path962" />
    <path
       style="font-variation-settings:normal;fill:#c4436c;fill-opacity:1;fill-rule:evenodd;stroke:#f9c3d1;stroke-width:0.3387;stroke-linecap:round;stroke-linejoin:round;stroke-miterlimit:4;stroke-dasharray:none;stroke-dashoffset:0;stroke-opacity:1;stop-color:#000000"
       d="m 20.722787,28.927338 10.666335,6.165929 -5.286993,3.048323 -5.379342,-3.117604 z"
       id="path1095" />
    <path
       style="font-variation-settings:normal;fill:#2b8ba1;fill-opacity:1;fill-rule:evenodd;stroke:#b7e4f2;stroke-width:0.3387;stroke-linecap:round;stroke-linejoin:round;stroke-miterlimit:4;stroke-dasharray:none;stroke-dashoffset:0;stroke-opacity:1;stop-color:#000000"
       d="m 31.423753,41.236101 5.263906,-3.036777 5.460148,3.117603 -0.01154,6.096649 z"
       id="path1292"
       sodipodi:nodetypes="ccccc" />
    <path
       style="font-variation-settings:normal;fill:url(#linearGradient79383);fill-opacity:1;fill-rule:evenodd;stroke:#b7e4f2;stroke-width:0.3387;stroke-linecap:round;stroke-linejoin:round;stroke-miterlimit:4;stroke-dasharray:none;stroke-dashoffset:0;stroke-opacity:1;stop-color:#000000"
       d="m 42.147806,28.904245 5.217731,3.048324 v 12.401136 l -5.206187,3.059871 z"
       id="path1337"
       sodipodi:nodetypes="ccccc" />
    <path
       style="font-variation-settings:normal;fill:none;fill-opacity:1;fill-rule:evenodd;stroke:#f9c3d1;stroke-width:0.3387;stroke-linecap:round;stroke-linejoin:round;stroke-miterlimit:4;stroke-dasharray:none;stroke-dashoffset:0;stroke-opacity:1;stop-color:#000000"
       d="m 20.676613,35.023986 5.402429,-3.02523 -0.02309,6.142834"
       id="path1894" />
    <path
       style="font-variation-settings:normal;fill:none;fill-opacity:1;fill-rule:evenodd;stroke:#f9c3d1;stroke-width:0.3387;stroke-linecap:round;stroke-linejoin:round;stroke-miterlimit:4;stroke-dasharray:none;stroke-dashoffset:0;stroke-opacity:1;stop-color:#000000"
       d="m 15.441397,32.11026 5.258303,2.913726 -5.31008,3.140698 5.286993,3.117604 -5.286993,3.002137"
       id="path1939"
       sodipodi:nodetypes="ccccc" />
    <path
       style="font-variation-settings:normal;fill:url(#linearGradient50952);fill-opacity:1;fill-rule:evenodd;stroke:#b7e4f2;stroke-width:0.3387;stroke-linecap:round;stroke-linejoin:round;stroke-miterlimit:4;stroke-dasharray:none;stroke-dashoffset:0;stroke-opacity:1;stop-color:#000000"
       d="M 20.6997,41.305381 42.101632,28.950432 v 6.073554 L 20.6997,47.471309 Z"
       id="path1247" />
    <path
       style="fill:#457696;fill-opacity:1;fill-rule:evenodd;stroke:none;stroke-width:0.3387;stroke-linecap:butt;stroke-linejoin:miter;stroke-miterlimit:4;stroke-dasharray:none;stroke-opacity:1"
       d="m 31.770063,41.228798 4.929139,-2.81739 0.163141,0.103883 -0.02462,5.646364 z"
       id="path24792"
       sodipodi:nodetypes="ccccc" />
    <path
       style="font-variation-settings:normal;fill:#3e8098;fill-opacity:1;fill-rule:evenodd;stroke:none;stroke-width:0.3387;stroke-linecap:butt;stroke-linejoin:miter;stroke-miterlimit:4;stroke-dasharray:none;stroke-dashoffset:0;stroke-opacity:1;stop-color:#000000"
       d="m 36.872357,38.526874 -0.04617,5.646328 0.150067,0.08083 4.906052,-2.875123 z"
       id="path25154" />
  </g>
</svg>
