<?xml version="1.0" encoding="UTF-8" standalone="no"?>
<svg
   viewBox="0 0 43.636364 43.636364"
   version="1.1"
   id="svg12"
   sodipodi:docname="9-Fire_Colour.svg"
   width="48"
   height="48"
   inkscape:version="1.3-dev (e30a5ffc, 2022-05-30)"
   xmlns:inkscape="http://www.inkscape.org/namespaces/inkscape"
   xmlns:sodipodi="http://sodipodi.sourceforge.net/DTD/sodipodi-0.dtd"
   xmlns:xlink="http://www.w3.org/1999/xlink"
   xmlns="http://www.w3.org/2000/svg"
   xmlns:svg="http://www.w3.org/2000/svg">
  <sodipodi:namedview
     id="namedview12"
     pagecolor="#ffffff"
     bordercolor="#000000"
     borderopacity="0.25"
     inkscape:showpageshadow="2"
     inkscape:pageopacity="0.0"
     inkscape:pagecheckerboard="false"
     inkscape:deskcolor="#d1d1d1"
     showgrid="false"
     inkscape:zoom="19.666667"
     inkscape:cx="22.90678"
     inkscape:cy="23.974576"
     inkscape:window-width="2560"
     inkscape:window-height="1378"
     inkscape:window-x="-6"
     inkscape:window-y="-6"
     inkscape:window-maximized="1"
     inkscape:current-layer="svg12" />
  <defs
     id="defs12">
    <linearGradient
       inkscape:collect="always"
       id="linearGradient15">
      <stop
         style="stop-color:#ffffff;stop-opacity:1;"
         offset="0"
         id="stop14" />
      <stop
         style="stop-color:#ffffff;stop-opacity:0;"
         offset="1"
         id="stop15" />
    </linearGradient>
    <style
       id="style1">.cls-1{fill:url(#radial-gradient);}.cls-2{fill:url(#radial-gradient-2);}.cls-3{fill:url(#radial-gradient-3);}.cls-4{fill:url(#radial-gradient-4);}.cls-5{fill:#3465a4;}.cls-6{fill:url(#radial-gradient-5);}</style>
    <radialGradient
       id="radial-gradient"
       cx="-40.110001"
       cy="-9.04"
       r="19.24"
       gradientTransform="matrix(1.02,0,0,-0.3,65.09,37.82)"
       gradientUnits="userSpaceOnUse">
      <stop
         offset="0"
         stop-opacity="0.67"
         id="stop1" />
      <stop
         offset="1"
         stop-opacity="0"
         id="stop2" />
    </radialGradient>
    <radialGradient
       id="radial-gradient-2"
       cx="23.540001"
       cy="39.209999"
       r="35.709999"
       gradientUnits="userSpaceOnUse"
       gradientTransform="matrix(0.38323602,-0.01438781,0.03210341,0.85511148,12.383456,3.900393)"
       fx="23.540001"
       fy="39.209999">
      <stop
         offset="0.34581625"
         stop-color="#9bc4dd"
         id="stop3" />
      <stop
         offset="0.505"
         stop-color="#9bc4dd"
         id="stop13"
         style="stop-color:#67c089;stop-opacity:1;" />
      <stop
         offset="1"
         stop-color="#3465a4"
         id="stop6" />
    </radialGradient>
    <radialGradient
       id="radial-gradient-3"
       cx="23.66"
       cy="40.18"
       r="18.76"
       gradientUnits="userSpaceOnUse"
       gradientTransform="matrix(0.95409145,0,0,0.95409145,0.20429314,-0.31930027)">
      <stop
         offset="0"
         stop-color="#e0eaf5"
         id="stop7" />
      <stop
         offset="0.15"
         stop-color="#dbe7f3"
         id="stop8" />
      <stop
         offset="0.4"
         stop-color="#a9c4e2"
         id="stop9" />
      <stop
         offset="1"
         stop-color="#729fcf"
         id="stop10" />
    </radialGradient>
    <radialGradient
       id="radial-gradient-4"
       cx="22.68"
       cy="39.630001"
       r="33.200001"
       gradientUnits="userSpaceOnUse">
      <stop
         offset="0.34"
         stop-color="#729fcf"
         id="stop11" />
      <stop
         offset="0.84"
         stop-color="#3465a4"
         id="stop12" />
    </radialGradient>
    <radialGradient
       id="radial-gradient-5"
       cx="24.9"
       cy="20"
       r="12.83"
       xlink:href="#radial-gradient-4"
       gradientTransform="matrix(0.95409145,0,0,0.95409145,0.20429314,-0.31930027)" />
    <radialGradient
       inkscape:collect="always"
       xlink:href="#radial-gradient-4"
       id="radialGradient12"
       gradientUnits="userSpaceOnUse"
       cx="22.68"
       cy="39.630001"
       r="33.200001"
       gradientTransform="matrix(0.95409145,0,0,0.95409145,0.20429314,-0.31930027)" />
    <radialGradient
       inkscape:collect="always"
       xlink:href="#linearGradient15"
       id="radialGradient15"
       cx="24.433445"
       cy="31.137094"
       fx="24.433445"
       fy="31.137094"
       r="8.8969035"
       gradientTransform="matrix(1,0,0,1.2600535,0,-8.0973108)"
       gradientUnits="userSpaceOnUse" />
  </defs>
  <g
     id="shadow"
     transform="matrix(0.95409143,0,0,0.95409143,0.20429313,-0.31930026)"
     style="stroke-width:1.04812">
    <g
       id="shadow-2"
       data-name="shadow"
       style="stroke-width:1.04812">
      <path
         id="ellipse4139"
         class="cls-1"
         d="m 43.76,40.53 c 0,3.18 -8.8,5.76 -19.66,5.76 v 0 c -10.85,0 -19.65,-2.58 -19.65,-5.76 0,-3.18 8.8,-5.76 19.65,-5.76 v 0 c 10.86,0 19.66,2.58 19.66,5.76 z"
         style="fill:url(#radial-gradient);stroke-width:1.04812" />
    </g>
  </g>
  <path
     id="path4206"
     class="cls-2"
     d="m 32.786516,35.936175 a 15.704345,15.704345 0 0 1 -5.361993,2.91952 c -3.234371,0.954091 -6.964868,1.059041 -9.540915,3.511056 a 11.153329,11.153329 0 0 1 2.70962,-3.816366 c -4.360199,2.156247 -9.121115,-1.717364 -10.390056,-5.724548 a 11.029297,11.029297 0 0 1 2.423391,-10.332811 5.8581215,5.8581215 0 0 0 0.772815,4.026266 3.463352,3.463352 0 0 0 3.692334,1.497924 8.7013141,8.7013141 0 0 1 -2.213492,-8.081155 15.818836,15.818836 0 0 1 4.407903,-7.565945 9.7698965,9.7698965 0 0 0 -0.601079,4.646425 c 0.06678,0.639242 0.496128,1.478842 1.14491,1.278483 a 1.1067461,1.1067461 0 0 0 0.553373,-0.486587 10.342351,10.342351 0 0 0 1.221238,-8.787182 25.76047,25.76047 0 0 1 -1.364351,-3.2439109 9.3882599,9.3882599 0 0 1 0.639241,-4.93265278 6.5164446,6.5164446 0 0 0 2.862274,4.77045718 16.219555,16.219555 0 0 1 4.226625,4.0835115 8.3864639,8.3864639 0 0 1 0.858683,2.680997 19.224942,19.224942 0 0 1 -0.457964,9.102033 5.247503,5.247503 0 0 0 2.633292,-3.902235 c 1.240319,2.509261 3.091256,5.867662 1.66012,8.586824 -0.219442,0.429341 -0.477046,1.001796 -0.114491,1.392973 a 0.95409145,0.95409145 0 0 0 1.068582,0 3.4824338,3.4824338 0 0 0 1.793691,-2.785947 8.2815138,8.2815138 0 0 1 0.114491,7.985746 11.191492,11.191492 0 0 1 -2.738242,3.177124 z"
     style="fill:url(#radial-gradient-2);stroke-width:1" />
  <path
     id="path4208"
     class="cls-3"
     d="m 24.705361,19.92652 a 18.652488,18.652488 0 0 0 -5.066225,7.356045 8.0429909,8.0429909 0 0 0 0.505668,7.346505 8.5200366,8.5200366 0 0 1 -4.608262,-1.316647 c 0.71557,2.242116 2.089461,4.302952 5.180717,4.236167 a 11.220116,11.220116 0 0 1 -1.373892,1.450218 6.2397581,6.2397581 0 0 0 1.297565,-0.467505 11.449098,11.449098 0 0 0 -2.719161,3.816366 c 2.537884,-2.452015 6.268381,-2.595128 9.540915,-3.511056 a 15.54215,15.54215 0 0 0 5.32383,-2.900438 l 0.543833,-0.505668 a 10.304188,10.304188 0 0 0 -0.10495,-1.078124 c -0.810978,1.965428 -5.848582,3.406107 -7.81401,4.293411 3.568302,-1.908182 5.333371,-4.608261 4.770457,-7.632731 a 9.7603556,9.7603556 0 0 1 0,-5.724549 C 28.273664,26.700569 26.14604,28.456098 26.14604,30.774541 24.705361,28.494262 22.558656,23.532986 24.705361,19.92652 Z"
     style="fill:url(#radialGradient15);stroke-width:1;fill-opacity:1" />
  <path
     id="path4218"
     class="cls-4"
     d="M 14.439338,15.241931 A 4.1884614,4.1884614 0 0 0 11.9587,16.854346 c -0.887305,1.335728 0,2.356606 0.08587,2.862274 a 2.5855878,2.5855878 0 0 1 -0.114491,1.908183 2.6619151,2.6619151 0 0 0 1.059041,-2.347064 4.579639,4.579639 0 0 1 1.45022,-4.035808 z"
     style="fill:url(#radialGradient12);stroke-width:1" />
  <path
     id="path4214"
     class="cls-5"
     d="m 21.66181,5.6246895 a 15.847459,15.847459 0 0 0 1.183073,1.0781233 c 0.31485,0.2671456 0.648783,0.5152094 0.954091,0.782355 a 10.676283,10.676283 0 0 1 2.862275,2.7764062 7.4228315,7.4228315 0 0 1 0.763274,2.270738 18.127738,18.127738 0 0 1 -0.372097,8.520036 1.3738917,1.3738917 0 0 0 0.954092,1.707824 1.345269,1.345269 0 0 0 0.438882,0 1.3929735,1.3929735 0 0 0 0.72511,-0.181277 6.6786402,6.6786402 0 0 0 1.908182,-1.631497 5.7245487,5.7245487 0 0 1 0.295769,4.551016 2.4233923,2.4233923 0 0 0 0.31485,2.995848 2.0512967,2.0512967 0 0 0 1.431137,0.534291 2.7668652,2.7668652 0 0 0 1.345269,-0.372096 4.1598387,4.1598387 0 0 0 0.744192,-0.486587 6.7931312,6.7931312 0 0 1 -0.877765,3.949939 10.056124,10.056124 0 0 1 -2.423392,2.776406 13.710294,13.710294 0 0 1 -4.932653,2.604669 c -0.772814,0.228982 -1.583792,0.391179 -2.442474,0.581996 -0.858683,0.190819 -1.660119,0.353014 -2.49972,0.591538 a 1.3929735,1.3929735 0 0 0 -1.249859,-1.545629 h -0.181278 a 1.2784825,1.2784825 0 0 0 -0.648782,0.152655 4.465148,4.465148 0 0 1 -1.955887,0.457963 c -2.862275,0 -5.590977,-2.776405 -6.401954,-5.409698 a 9.0924915,9.0924915 0 0 1 0.2099,-5.781794 6.5069037,6.5069037 0 0 0 0.391178,0.648782 5.0853075,5.0853075 0 0 0 4.112134,2.232574 4.6273435,4.6273435 0 0 0 1.202155,-0.171737 1.3929735,1.3929735 0 0 0 0.954092,-1.736445 1.4406781,1.4406781 0 0 0 -0.381637,-0.601079 7.3560451,7.3560451 0 0 1 -1.812774,-6.802671 11.115166,11.115166 0 0 1 1.001796,-2.776406 2.566506,2.566506 0 0 0 2.337524,2.308901 1.9654284,1.9654284 0 0 0 0.62016,-0.10495 2.5092605,2.5092605 0 0 0 1.316646,-1.020878 11.840275,11.840275 0 0 0 1.431137,-10.056124 c -0.200359,-0.4961276 -0.4198,-0.9540914 -0.6297,-1.3929735 A 8.7585596,8.7585596 0 0 1 21.690432,5.5388213 Z M 20.888995,0.73020033 a 9.3978008,9.3978008 0 0 0 -0.648781,4.93265277 28.861266,28.861266 0 0 0 1.431137,3.243911 10.361433,10.361433 0 0 1 -1.211696,8.7967229 1.221237,1.221237 0 0 1 -0.562914,0.486587 h -0.181278 c -0.534291,0 -0.906386,-0.72511 -0.954091,-1.307105 a 9.827142,9.827142 0 0 1 0.601077,-4.655967 16.019196,16.019196 0 0 0 -4.398362,7.489618 8.7203958,8.7203958 0 0 0 2.223034,8.081155 2.4138514,2.4138514 0 0 1 -0.772814,0.114491 3.6446294,3.6446294 0 0 1 -2.862275,-1.612415 5.8485806,5.8485806 0 0 1 -0.772813,-4.026266 11.038838,11.038838 0 0 0 -2.528343,10.495007 c 1.011337,3.243911 4.283871,6.382871 7.775846,6.382871 a 5.9058261,5.9058261 0 0 0 2.61421,-0.610619 11.153329,11.153329 0 0 0 -2.70962,3.816366 c 2.528343,-2.452015 6.25884,-2.595128 9.540915,-3.511056 a 15.704345,15.704345 0 0 0 5.314289,-2.909979 11.191492,11.191492 0 0 0 2.776407,-3.138961 8.2910547,8.2910547 0 0 0 -0.08587,-8.109777 3.453811,3.453811 0 0 1 -1.793691,2.776406 1.2594007,1.2594007 0 0 1 -0.639242,0.200359 0.58199579,0.58199579 0 0 1 -0.429342,-0.152655 c -0.362554,-0.333931 -0.10495,-0.906386 0.114491,-1.392974 1.431138,-2.776405 -0.419799,-6.125266 -1.602872,-8.586822 a 5.2284212,5.2284212 0 0 1 -2.719162,3.988102 19.167697,19.167697 0 0 0 0.419801,-9.1879 A 8.5868231,8.5868231 0 0 0 27.987437,9.69866 16.219555,16.219555 0 0 0 23.779893,5.6914759 6.5164446,6.5164446 0 0 1 20.917619,0.92101858 Z"
     style="fill:#b6e6cd;fill-opacity:1;stroke:#204a87;stroke-width:0.454546;stroke-dasharray:none" />
  <path
     class="cls-6"
     d="m 18.74229,8.6109957 a 2.2802785,2.2802785 0 0 1 0,1.4693003 7.4991588,7.4991588 0 0 1 -0.534292,1.049501 2.1944104,2.1944104 0 0 0 -0.133572,-1.049501 C 18.017185,9.8894784 17.940853,9.7082006 17.90269,9.5173826 a 2.4233923,2.4233923 0 0 1 0.73465,-2.1085421 1.3166462,1.3166462 0 0 0 -0.10495,0.5629139 c 0.04771,0.1812774 0.143113,0.4388821 0.2099,0.6392413 z"
     id="path12"
     style="fill:url(#radial-gradient-5);stroke-width:1" />
</svg>
