<?xml version="1.0" encoding="UTF-8" standalone="no"?>
<!-- Created with Inkscape (http://www.inkscape.org/) -->

<svg
   width="48"
   height="48"
   id="svg15621"
   sodipodi:version="0.32"
   inkscape:version="1.1.2 (b8e25be833, 2022-02-05)"
   version="1.0"
   sodipodi:docname="kma_lfilter_gel.svg"
   inkscape:output_extension="org.inkscape.output.svg.inkscape"
   xmlns:inkscape="http://www.inkscape.org/namespaces/inkscape"
   xmlns:sodipodi="http://sodipodi.sourceforge.net/DTD/sodipodi-0.dtd"
   xmlns:xlink="http://www.w3.org/1999/xlink"
   xmlns="http://www.w3.org/2000/svg"
   xmlns:svg="http://www.w3.org/2000/svg"
   xmlns:rdf="http://www.w3.org/1999/02/22-rdf-syntax-ns#"
   xmlns:cc="http://creativecommons.org/ns#"
   xmlns:dc="http://purl.org/dc/elements/1.1/">
  <metadata
     id="metadata3635">
    <rdf:RDF>
      <cc:Work
         rdf:about="">
        <dc:format>image/svg+xml</dc:format>
        <dc:type
           rdf:resource="http://purl.org/dc/dcmitype/StillImage" />
      </cc:Work>
    </rdf:RDF>
  </metadata>
  <defs
     id="defs15623">
    <linearGradient
       inkscape:collect="always"
       id="linearGradient36232">
      <stop
         style="stop-color:#2e3436;stop-opacity:1;"
         offset="0"
         id="stop36228" />
      <stop
         style="stop-color:#2e3436;stop-opacity:0;"
         offset="1"
         id="stop36230" />
    </linearGradient>
    <linearGradient
       inkscape:collect="always"
       id="linearGradient35282">
      <stop
         style="stop-color:#ededec;stop-opacity:1"
         offset="0"
         id="stop35278" />
      <stop
         style="stop-color:#ffffff;stop-opacity:1"
         offset="0.31485698"
         id="stop36602" />
      <stop
         style="stop-color:#888a85;stop-opacity:1"
         offset="1"
         id="stop35280" />
    </linearGradient>
    <linearGradient
       inkscape:collect="always"
       id="linearGradient35194">
      <stop
         style="stop-color:#f57900;stop-opacity:1;"
         offset="0"
         id="stop35190" />
      <stop
         style="stop-color:#f57900;stop-opacity:0;"
         offset="1"
         id="stop35192" />
    </linearGradient>
    <linearGradient
       inkscape:collect="always"
       id="linearGradient34668">
      <stop
         style="stop-color:#2e3436;stop-opacity:1;"
         offset="0"
         id="stop34664" />
      <stop
         style="stop-color:#ffffff;stop-opacity:1"
         offset="1"
         id="stop34666" />
    </linearGradient>
    <linearGradient
       inkscape:collect="always"
       id="linearGradient33152">
      <stop
         style="stop-color:#f57900;stop-opacity:1;"
         offset="0"
         id="stop33148" />
      <stop
         style="stop-color:#ffbe80;stop-opacity:1"
         offset="0.10784245"
         id="stop33540" />
      <stop
         style="stop-color:#f57900;stop-opacity:1;"
         offset="0.23299421"
         id="stop33542" />
      <stop
         style="stop-color:#ffc58b;stop-opacity:1"
         offset="0.35383043"
         id="stop33544" />
      <stop
         style="stop-color:#f57900;stop-opacity:1;"
         offset="0.48329777"
         id="stop33546" />
      <stop
         style="stop-color:#ffce9d;stop-opacity:1"
         offset="0.62139624"
         id="stop33548" />
      <stop
         style="stop-color:#f57900;stop-opacity:1;"
         offset="0.72065455"
         id="stop33550" />
      <stop
         style="stop-color:#ffd4a9;stop-opacity:1"
         offset="0.82842714"
         id="stop33552" />
      <stop
         style="stop-color:#f57900;stop-opacity:1;"
         offset="0.9148556"
         id="stop33618" />
      <stop
         style="stop-color:#f57900;stop-opacity:1"
         offset="1"
         id="stop33150" />
    </linearGradient>
    <linearGradient
       inkscape:collect="always"
       id="linearGradient32327">
      <stop
         style="stop-color:#ffffff;stop-opacity:1"
         offset="0"
         id="stop32321" />
      <stop
         style="stop-color:#e3ecf6;stop-opacity:1;"
         offset="0.5081777"
         id="stop32323" />
      <stop
         style="stop-color:#ccddef;stop-opacity:1"
         offset="1"
         id="stop32325" />
    </linearGradient>
    <linearGradient
       inkscape:collect="always"
       id="linearGradient11691">
      <stop
         style="stop-color:#ffffff;stop-opacity:1"
         offset="0"
         id="stop11687" />
      <stop
         style="stop-color:#ffffff;stop-opacity:1"
         offset="0.15633108"
         id="stop14901" />
      <stop
         style="stop-color:#dedede;stop-opacity:1"
         offset="0.26906684"
         id="stop14903" />
      <stop
         style="stop-color:#ffffff;stop-opacity:1"
         offset="0.43387613"
         id="stop14905" />
      <stop
         style="stop-color:#ffffff;stop-opacity:1"
         offset="0.53412211"
         id="stop14971" />
      <stop
         style="stop-color:#afb0ac;stop-opacity:1"
         offset="0.72436976"
         id="stop15037" />
      <stop
         style="stop-color:#eeeeec;stop-opacity:1"
         offset="0.87381524"
         id="stop15039" />
      <stop
         style="stop-color:#738185;stop-opacity:1"
         offset="1"
         id="stop11689" />
    </linearGradient>
    <linearGradient
       inkscape:collect="always"
       id="linearGradient10349">
      <stop
         style="stop-color:#2e3436;stop-opacity:1"
         offset="0"
         id="stop10345" />
      <stop
         style="stop-color:#babdb6;stop-opacity:1"
         offset="1"
         id="stop10347" />
    </linearGradient>
    <linearGradient
       inkscape:collect="always"
       id="linearGradient9893">
      <stop
         style="stop-color:#555753;stop-opacity:1"
         offset="0"
         id="stop9889" />
      <stop
         style="stop-color:#eeeeec;stop-opacity:1"
         offset="1"
         id="stop9891" />
    </linearGradient>
    <linearGradient
       inkscape:collect="always"
       xlink:href="#linearGradient9893"
       id="linearGradient9895"
       x1="-17.574289"
       y1="-59.195934"
       x2="-19.390276"
       y2="-42.589054"
       gradientUnits="userSpaceOnUse"
       gradientTransform="matrix(1.9808155,0,0,1.9817571,45.503153,63.699717)" />
    <linearGradient
       inkscape:collect="always"
       xlink:href="#linearGradient10349"
       id="linearGradient10351"
       x1="-18.881189"
       y1="-62.063236"
       x2="-17.343231"
       y2="-42.983826"
       gradientUnits="userSpaceOnUse"
       gradientTransform="matrix(-1.288881,1.4923306,-1.6226153,-1.1421761,-84.599207,-1.6846292)" />
    <radialGradient
       inkscape:collect="always"
       xlink:href="#linearGradient11691"
       id="radialGradient11693"
       cx="-1.1092591"
       cy="-26.746923"
       fx="-1.1092591"
       fy="-26.746923"
       r="13.471874"
       gradientTransform="matrix(-0.06529774,4.8181799,-1.4854938,0.5277701,-16.068582,69.737383)"
       gradientUnits="userSpaceOnUse" />
    <radialGradient
       inkscape:collect="always"
       xlink:href="#linearGradient32327"
       id="radialGradient28053"
       cx="-10.163136"
       cy="12.276232"
       fx="-10.163136"
       fy="12.276232"
       r="16.977236"
       gradientTransform="matrix(1.2199907,0.01158295,-0.00914233,0.96292975,31.229118,11.252895)"
       gradientUnits="userSpaceOnUse" />
    <radialGradient
       inkscape:collect="always"
       xlink:href="#linearGradient33152"
       id="radialGradient33154"
       cx="24.145508"
       cy="14.538224"
       fx="24.145508"
       fy="14.538224"
       r="15.67169"
       gradientTransform="matrix(0.99136886,0,0,0.66420522,0.34366987,4.9703974)"
       gradientUnits="userSpaceOnUse" />
    <linearGradient
       inkscape:collect="always"
       xlink:href="#linearGradient34668"
       id="linearGradient34670"
       x1="36.067841"
       y1="21.322369"
       x2="13.372928"
       y2="7.7958865"
       gradientUnits="userSpaceOnUse" />
    <radialGradient
       inkscape:collect="always"
       xlink:href="#linearGradient35194"
       id="radialGradient35196"
       cx="24.381485"
       cy="26.47809"
       fx="24.381485"
       fy="26.47809"
       r="14.236624"
       gradientTransform="matrix(1.2042755,0,0,0.67220898,-4.8452758,8.6792802)"
       gradientUnits="userSpaceOnUse" />
    <radialGradient
       inkscape:collect="always"
       xlink:href="#linearGradient35282"
       id="radialGradient35284"
       cx="24.145508"
       cy="14.625523"
       fx="24.145508"
       fy="14.625523"
       r="24.055664"
       gradientTransform="matrix(1,0,0,0.6015022,0,5.8282387)"
       gradientUnits="userSpaceOnUse" />
    <linearGradient
       inkscape:collect="always"
       xlink:href="#linearGradient36232"
       id="linearGradient36234"
       x1="12.915302"
       y1="6.7604971"
       x2="35.510975"
       y2="21.504362"
       gradientUnits="userSpaceOnUse" />
  </defs>
  <sodipodi:namedview
     id="base"
     pagecolor="#ffffff"
     bordercolor="#666666"
     borderopacity="1.0"
     inkscape:pageopacity="0.0"
     inkscape:pageshadow="2"
     inkscape:zoom="14.78581"
     inkscape:cx="24.51675"
     inkscape:cy="25.970846"
     inkscape:document-units="px"
     inkscape:current-layer="layer1"
     inkscape:window-width="2880"
     inkscape:window-height="1557"
     inkscape:window-x="-8"
     inkscape:window-y="-8"
     fill="#a40000"
     stroke="#f57900"
     inkscape:pagecheckerboard="0"
     showgrid="false"
     inkscape:window-maximized="1"
     inkscape:snap-global="false" />
  <g
     inkscape:label="Layer 1"
     inkscape:groupmode="layer"
     id="layer1">
    <path
       id="path91281-53-7-1-7-4-5-4-1"
       style="fill:url(#radialGradient11693);stroke:url(#linearGradient10351);stroke-width:0.500001"
       d="M 23.37579,13.404367 A 19.112775,17.136757 5.2568746 0 0 9.3771835,19.860684 19.112775,17.136757 5.2568746 0 0 12.961941,43.965143 19.112775,17.136757 5.2568746 0 0 39.729127,41.226898 19.112775,17.136757 5.2568746 0 0 36.146251,17.122438 19.112775,17.136757 5.2568746 0 0 23.37579,13.404367 Z m 0.374275,0.457001 a 16.300035,13.903261 3.5883329 0 1 10.893446,3.014703 16.300035,13.903261 3.5883329 0 1 3.05814,19.551375 16.300035,13.903261 3.5883329 0 1 -22.836366,2.221063 16.300035,13.903261 3.5883329 0 1 -3.058141,-19.549494 16.300035,13.903261 3.5883329 0 1 11.942921,-5.237647 z" />
    <path
       id="path18803"
       style="color:#000000;overflow:visible;fill:#000000;fill-opacity:0.35514;stroke:none;stroke-width:0.999996;stroke-linejoin:round;stroke-miterlimit:4;stroke-dasharray:none;stroke-dashoffset:9.99999;stop-color:#000000"
       d="M 25.172375,43.311719 A 21.465643,5.9933156 0 0 0 13.487785,44.285581 19.112777,17.136758 5.2568706 0 0 36.36631,44.189003 21.465643,5.9933156 0 0 0 25.172375,43.311721 Z" />
    <ellipse
       style="color:#000000;overflow:visible;fill:url(#radialGradient28053);fill-opacity:1;stroke:none;stroke-width:2;stroke-linejoin:round;stroke-miterlimit:4;stroke-dasharray:none;stroke-dashoffset:9.99999;stop-color:#000000;font-variation-settings:normal;opacity:1;vector-effect:none;stroke-linecap:butt;stroke-opacity:1;-inkscape-stroke:none;stop-opacity:1"
       id="path27188"
       cx="24.719841"
       cy="27.760361"
       rx="16.977236"
       ry="14.108781" />
    <ellipse
       style="fill:none;fill-opacity:1;stroke:url(#linearGradient9895);stroke-width:1.00573;stroke-miterlimit:4;stroke-dasharray:none;stroke-opacity:1"
       id="path91281-53-7-1-7-4-5-6"
       cx="9.5089302"
       cy="-37.261875"
       rx="15.098339"
       ry="16.004822"
       transform="matrix(-0.67355971,0.73913282,-0.83187166,-0.55496805,0,0)" />
    <ellipse
       style="color:#000000;font-variation-settings:normal;overflow:visible;opacity:1;fill:url(#radialGradient35196);fill-opacity:1;stroke:none;stroke-width:0.5;stroke-linecap:butt;stroke-linejoin:round;stroke-miterlimit:4;stroke-dasharray:none;stroke-dashoffset:9.99999;stroke-opacity:1;stop-color:#000000;stop-opacity:1"
       id="path35060"
       cx="24.51675"
       cy="26.47809"
       rx="17.144817"
       ry="9.5699863" />
    <path
       id="path33088"
       style="overflow:visible;opacity:1;fill:#555753;stroke:#2e3436;stroke-width:0.5;stroke-linejoin:round;stroke-dashoffset:9.99999;stop-color:#000000;stop-opacity:1"
       d="M 40.511719,1.3188645 C 38.597528,1.3206503 37.036828,2.437072 37,3.8293886 L 11.023438,3.8983369 C 10.986579,2.5049162 9.423523,1.3900818 7.5078125,1.3898404 5.5664746,1.3903465 3.9928831,2.534683 3.9921875,3.9470061 c -3.825e-4,1.4128778 1.5735246,2.5586872 3.515625,2.5591935 0.04498,-0.00174 0.089911,-0.00308 0.1347656,-0.00608 L 3.9902344,24.572646 c -0.044893,-0.0016 -0.089823,-0.0018 -0.1347656,-0.0021 -1.9421001,5.07e-4 -3.51600726,1.146316 -3.51562505,2.559194 6.9567e-4,1.412323 1.57428715,2.556659 3.51562505,2.557165 1.834062,-0.0032 3.3568332,-1.030137 3.4980468,-2.36046 l 33.5839844,0.069 c 0.141214,1.330322 1.663986,2.359302 3.498047,2.362489 1.941338,-5.06e-4 3.51493,-1.146871 3.515625,-2.559194 -3.31e-4,-1.393678 -1.533863,-2.530351 -3.449219,-2.557166 L 40.578125,6.4331957 C 42.492721,6.4063913 44.025948,5.269156 44.027344,3.8760301 44.026648,2.4637071 42.453056,1.3193704 40.511719,1.3188645 Z M 7.4394531,2.7931383 A 1.4202807,1.0182083 0 0 1 8.859375,3.8111377 1.4202807,1.0182083 0 0 1 7.4394531,4.829137 1.4202807,1.0182083 0 0 1 6.0195312,3.8111377 1.4202807,1.0182083 0 0 1 7.4394531,2.7931383 Z m 33.0039059,0 A 1.4202807,1.0182083 0 0 1 41.865234,3.8111377 1.4202807,1.0182083 0 0 1 40.443359,4.829137 1.4202807,1.0182083 0 0 1 39.023438,3.8111377 1.4202807,1.0182083 0 0 1 40.443359,2.7931383 Z M 3.7207031,26.03678 a 1.4202807,1.0182083 0 0 1 1.4199219,1.017999 1.4202807,1.0182083 0 0 1 -1.4199219,1.018 1.4202807,1.0182083 0 0 1 -1.421875,-1.018 1.4202807,1.0182083 0 0 1 1.421875,-1.017999 z m 40.6464849,0 a 1.4202807,1.0182083 0 0 1 1.419921,1.017999 1.4202807,1.0182083 0 0 1 -1.419921,1.018 1.4202807,1.0182083 0 0 1 -1.419922,-1.018 1.4202807,1.0182083 0 0 1 1.419922,-1.017999 z" />
    <path
       id="rect32461"
       style="overflow:visible;opacity:1;fill:url(#radialGradient35284);stroke:#2e3436;stroke-width:0.5;stroke-linejoin:round;stroke-dashoffset:9.99999;stop-color:#000000;stop-opacity:1;fill-opacity:1"
       d="M 40.511719,0.40598804 C 38.597528,0.40777388 37.036828,1.5241956 37,2.9165122 L 11.023438,2.9854604 C 10.986579,1.5920398 9.423523,0.47720541 7.5078125,0.47696401 5.5664746,0.47747007 3.9928831,1.6218066 3.9921875,3.0341297 c -3.825e-4,1.4128778 1.5735246,2.5586871 3.515625,2.5591935 0.04498,-0.00174 0.089911,-0.00308 0.1347656,-0.00608 L 3.9902344,23.65977 c -0.044893,-0.0016 -0.089823,-0.0018 -0.1347656,-0.0021 -1.9421001,5.07e-4 -3.51600726,1.146316 -3.51562505,2.559194 6.9567e-4,1.412323 1.57428715,2.556659 3.51562505,2.557165 1.834062,-0.0032 3.3568332,-1.030137 3.4980468,-2.36046 l 33.5839844,0.069 c 0.141214,1.330322 1.663986,2.359302 3.498047,2.362489 1.941338,-5.06e-4 3.51493,-1.146871 3.515625,-2.559194 -3.31e-4,-1.393678 -1.533863,-2.530351 -3.449219,-2.557166 L 40.578125,5.5203193 C 42.492721,5.4935149 44.025948,4.3562796 44.027344,2.9631537 44.026648,1.5508307 42.453056,0.406494 40.511719,0.40598804 Z M 7.4394531,1.8802619 A 1.4202807,1.0182083 0 0 1 8.859375,2.8982613 1.4202807,1.0182083 0 0 1 7.4394531,3.9162606 1.4202807,1.0182083 0 0 1 6.0195312,2.8982613 1.4202807,1.0182083 0 0 1 7.4394531,1.8802619 Z m 33.0039059,0 A 1.4202807,1.0182083 0 0 1 41.865234,2.8982613 1.4202807,1.0182083 0 0 1 40.443359,3.9162606 1.4202807,1.0182083 0 0 1 39.023438,2.8982613 1.4202807,1.0182083 0 0 1 40.443359,1.8802619 Z M 3.7207031,25.123904 a 1.4202807,1.0182083 0 0 1 1.4199219,1.017999 1.4202807,1.0182083 0 0 1 -1.4199219,1.018 1.4202807,1.0182083 0 0 1 -1.421875,-1.018 1.4202807,1.0182083 0 0 1 1.421875,-1.017999 z m 40.6464849,0 a 1.4202807,1.0182083 0 0 1 1.419921,1.017999 1.4202807,1.0182083 0 0 1 -1.419921,1.018 1.4202807,1.0182083 0 0 1 -1.419922,-1.018 1.4202807,1.0182083 0 0 1 1.419922,-1.017999 z" />
    <ellipse
       style="color:#000000;font-variation-settings:normal;overflow:visible;opacity:1;fill:url(#linearGradient36234);fill-opacity:1;stroke:none;stroke-width:0.5;stroke-linecap:butt;stroke-linejoin:round;stroke-miterlimit:4;stroke-dasharray:none;stroke-dashoffset:9.99999;stroke-opacity:1;stop-color:#000000;stop-opacity:1"
       id="ellipse34626"
       cx="24.145508"
       cy="14.335327"
       rx="16.032106"
       ry="10.657867" />
    <ellipse
       style="color:#000000;font-variation-settings:normal;overflow:visible;opacity:1;fill:url(#radialGradient33154);fill-opacity:1;stroke:url(#linearGradient34670);stroke-width:0.5;stroke-linecap:butt;stroke-linejoin:round;stroke-miterlimit:4;stroke-dasharray:none;stroke-dashoffset:9.99999;stroke-opacity:1;stop-color:#000000;stop-opacity:1"
       id="ellipse33108"
       cx="24.280773"
       cy="14.62676"
       rx="15.286427"
       ry="10.161429" />
  </g>
</svg>
