<?xml version="1.0" encoding="UTF-8" standalone="no"?>
<svg
   viewBox="0 0 48 48"
   version="1.1"
   id="svg98"
   sodipodi:docname="mtlx_color_correct.svg"
   inkscape:version="1.3-dev (fdc7329b, 2022-05-31)"
   xmlns:inkscape="http://www.inkscape.org/namespaces/inkscape"
   xmlns:sodipodi="http://sodipodi.sourceforge.net/DTD/sodipodi-0.dtd"
   xmlns:xlink="http://www.w3.org/1999/xlink"
   xmlns="http://www.w3.org/2000/svg"
   xmlns:svg="http://www.w3.org/2000/svg">
  <sodipodi:namedview
     id="namedview98"
     pagecolor="#ffffff"
     bordercolor="#666666"
     borderopacity="1.0"
     inkscape:showpageshadow="2"
     inkscape:pageopacity="0.0"
     inkscape:pagecheckerboard="0"
     inkscape:deskcolor="#d1d1d1"
     showgrid="false"
     inkscape:zoom="13.906433"
     inkscape:cx="21.96825"
     inkscape:cy="27.037846"
     inkscape:window-width="2880"
     inkscape:window-height="1557"
     inkscape:window-x="-8"
     inkscape:window-y="-8"
     inkscape:window-maximized="1"
     inkscape:current-layer="svg98" />
  <defs
     id="defs26">
    <linearGradient
       inkscape:collect="always"
       id="linearGradient108">
      <stop
         style="stop-color:#8f5902;stop-opacity:1;"
         offset="0"
         id="stop107" />
      <stop
         style="stop-color:#8f5902;stop-opacity:0;"
         offset="1"
         id="stop108" />
    </linearGradient>
    <linearGradient
       inkscape:collect="always"
       id="linearGradient106">
      <stop
         style="stop-color:#8f5902;stop-opacity:1;"
         offset="0"
         id="stop105" />
      <stop
         style="stop-color:#8f5902;stop-opacity:0;"
         offset="1"
         id="stop106" />
    </linearGradient>
    <linearGradient
       inkscape:collect="always"
       id="linearGradient104">
      <stop
         style="stop-color:#8f5902;stop-opacity:1;"
         offset="0"
         id="stop103" />
      <stop
         style="stop-color:#8f5902;stop-opacity:0;"
         offset="1"
         id="stop104" />
    </linearGradient>
    <linearGradient
       inkscape:collect="always"
       id="linearGradient102">
      <stop
         style="stop-color:#000000;stop-opacity:0.59748429;"
         offset="0"
         id="stop101" />
      <stop
         style="stop-color:#000000;stop-opacity:0;"
         offset="1"
         id="stop102" />
    </linearGradient>
    <radialGradient
       id="radial-gradient"
       cx="-414.43"
       cy="111.41"
       fx="-414.43"
       fy="111.41"
       r="7.09"
       gradientTransform="matrix(2.74,0,0,0.62,1158.78,-40.09)"
       gradientUnits="userSpaceOnUse">
      <stop
         offset=".12"
         stop-color="#212121"
         stop-opacity=".4"
         id="stop1" />
      <stop
         offset=".97"
         stop-color="#212121"
         stop-opacity="0"
         id="stop2" />
    </radialGradient>
    <linearGradient
       id="linear-gradient"
       x1="34.94"
       y1="24.26"
       x2="34.94"
       y2="28.58"
       gradientTransform="matrix(1, 0, 0, 1, 0, 0)"
       gradientUnits="userSpaceOnUse">
      <stop
         offset="0"
         stop-color="#f9cf98"
         id="stop3" />
      <stop
         offset=".5"
         stop-color="#e9b96e"
         id="stop4" />
      <stop
         offset="1"
         stop-color="#c17d11"
         id="stop5" />
    </linearGradient>
    <linearGradient
       id="linear-gradient-2"
       x1="23.48"
       y1="22.37"
       x2="24.29"
       y2="30.48"
       xlink:href="#linear-gradient"
       gradientTransform="matrix(1.4363428,0,0,1.4371705,-7.8918797,-4.791613)" />
    <linearGradient
       id="linear-gradient-3"
       x1="15.759033"
       y1="12.300035"
       x2="30.692759"
       y2="12.300035"
       gradientUnits="userSpaceOnUse"
       gradientTransform="matrix(1.4363428,0,0,1.4371705,-7.8918797,-4.791613)">
      <stop
         offset="0"
         stop-color="#ef2929"
         id="stop6" />
      <stop
         offset=".5"
         stop-color="#8ae234"
         id="stop7" />
      <stop
         offset="1"
         stop-color="#3465a4"
         id="stop8"
         style="stop-color:#ffed51;stop-opacity:1;" />
    </linearGradient>
    <linearGradient
       id="linear-gradient-4"
       x1="23.33"
       y1="12.12"
       x2="23.33"
       y2="19.71"
       gradientTransform="matrix(1, 0, 0, 1, 0, 0)"
       gradientUnits="userSpaceOnUse">
      <stop
         offset="0"
         stop-color="#fff"
         id="stop9" />
      <stop
         offset="1"
         stop-color="#53564f"
         id="stop10" />
    </linearGradient>
    <linearGradient
       id="linear-gradient-5"
       x1="23.47"
       y1="12.35"
       x2="23.47"
       y2="18.77"
       xlink:href="#linear-gradient-4"
       gradientTransform="matrix(1.4363428,0,0,1.4371705,-7.8918797,-4.791613)" />
    <linearGradient
       id="linear-gradient-6"
       x1="23.38"
       y1="13.96"
       x2="23.38"
       y2="18.26"
       xlink:href="#linear-gradient-4"
       gradientTransform="matrix(1.4363428,0,0,1.4371705,-7.8918797,-4.791613)" />
    <linearGradient
       id="linear-gradient-7"
       x1="56.98"
       y1="28.41"
       x2="56.98"
       y2="37.41"
       gradientTransform="translate(-24.31 2.23)"
       gradientUnits="userSpaceOnUse">
      <stop
         offset="0"
         stop-color="#fff"
         id="stop11" />
      <stop
         offset=".75"
         stop-color="#fff"
         stop-opacity=".1"
         id="stop12" />
    </linearGradient>
    <linearGradient
       id="linear-gradient-8"
       x1="32.68"
       y1="32.57"
       x2="32.68"
       y2="34.28"
       xlink:href="#linear-gradient-7" />
    <linearGradient
       id="linear-gradient-9"
       x1="28.81"
       y1="35.88"
       x2="32.15"
       y2="35.88"
       xlink:href="#linear-gradient-7" />
    <linearGradient
       id="linear-gradient-10"
       x1="68.71"
       y1="21.41"
       x2="68.71"
       y2="30.41"
       gradientTransform="translate(-47.76,16.23)"
       xlink:href="#linear-gradient-7" />
    <linearGradient
       id="linear-gradient-11"
       x1="20.95"
       y1="39.57"
       x2="20.95"
       y2="41.28"
       xlink:href="#linear-gradient-7" />
    <linearGradient
       id="linear-gradient-12"
       x1="17.09"
       y1="42.88"
       x2="20.42"
       y2="42.88"
       xlink:href="#linear-gradient-7" />
    <linearGradient
       id="linear-gradient-13"
       x1="22.41"
       y1="5.17"
       x2="23.55"
       y2="14.56"
       gradientTransform="matrix(1.4354235,-0.05140992,0.05138031,1.4362507,-8.43769,-3.4837878)"
       xlink:href="#linear-gradient-7" />
    <linearGradient
       id="linear-gradient-14"
       x1="14.89"
       y1="12.08"
       x2="31.5"
       y2="12.08"
       gradientTransform="matrix(1.4354235,-0.05140992,0.05138031,1.4362507,-8.43769,-3.4837878)"
       gradientUnits="userSpaceOnUse">
      <stop
         offset="0"
         stop-color="#a40000"
         id="stop13" />
      <stop
         offset=".5"
         stop-color="#4e9a06"
         id="stop14" />
      <stop
         offset="1"
         stop-color="#204a87"
         id="stop15" />
    </linearGradient>
    <linearGradient
       id="linear-gradient-15"
       x1="32.45"
       y1="18.99"
       x2="35.3"
       y2="21.58"
       gradientUnits="userSpaceOnUse"
       gradientTransform="matrix(1.4363429,0,0,1.4371706,-7.7480618,-2.9219749)">
      <stop
         offset="0"
         stop-color="#8ae234"
         id="stop16"
         style="stop-color:#ffe800;stop-opacity:1;" />
      <stop
         offset="1"
         stop-color="#3465a4"
         id="stop17" />
    </linearGradient>
    <linearGradient
       id="linear-gradient-16"
       x1="34.42"
       y1="18.8"
       x2="34.48"
       y2="22.1"
       xlink:href="#linear-gradient-4"
       gradientTransform="matrix(1.4363429,0,0,1.4371706,-7.7480618,-2.9219749)" />
    <linearGradient
       id="linear-gradient-17"
       x1="34.53"
       y1="19.49"
       x2="34.87"
       y2="22.75"
       xlink:href="#linear-gradient-4"
       gradientTransform="matrix(1.4363429,0,0,1.4371706,-7.7480618,-2.9219749)" />
    <linearGradient
       id="linear-gradient-18"
       x1="33.25"
       y1="17.31"
       x2="34.06"
       y2="23.96"
       gradientTransform="matrix(1.6209312,-0.08329538,-0.12605437,1.4599329,-9.3998561,-2.5051954)"
       xlink:href="#linear-gradient-7" />
    <linearGradient
       id="linear-gradient-19"
       x1="34.58"
       y1="19.05"
       x2="34.7"
       y2="21.59"
       xlink:href="#linear-gradient-4"
       gradientTransform="matrix(1.4363429,0,0,1.4371706,-7.7480618,-2.9219749)" />
    <linearGradient
       id="linear-gradient-20"
       x1="29.51"
       y1="20.98"
       x2="37.18"
       y2="20.98"
       gradientTransform="matrix(1.6209312,-0.08329538,-0.12605437,1.4599329,-9.3998561,-2.5051954)"
       gradientUnits="userSpaceOnUse">
      <stop
         offset="0"
         stop-color="#4e9a06"
         id="stop18" />
      <stop
         offset="1"
         stop-color="#204a87"
         id="stop19" />
    </linearGradient>
    <linearGradient
       id="linear-gradient-21"
       x1="7.44"
       y1="15.88"
       x2="13.6"
       y2="15.88"
       gradientTransform="translate(5.27 -1.32) rotate(15.29)"
       gradientUnits="userSpaceOnUse">
      <stop
         offset="0"
         stop-color="#f9cf98"
         id="stop20" />
      <stop
         offset=".5"
         stop-color="#fce94f"
         id="stop21" />
      <stop
         offset="1"
         stop-color="#fcaf3e"
         id="stop22" />
    </linearGradient>
    <linearGradient
       id="linear-gradient-22"
       x1="7.22"
       y1="17.71"
       x2="13"
       y2="17.71"
       xlink:href="#linear-gradient-21" />
    <linearGradient
       id="linear-gradient-23"
       x1="7.45"
       y1="17.95"
       x2="12.82"
       y2="17.95"
       xlink:href="#linear-gradient-21" />
    <linearGradient
       id="linear-gradient-24"
       x1="7.22"
       y1="19.49"
       x2="12.75"
       y2="19.49"
       xlink:href="#linear-gradient-21" />
    <linearGradient
       id="linear-gradient-25"
       x1="11.26"
       y1="23.01"
       x2="11.38"
       y2="29.48"
       xlink:href="#linear-gradient"
       gradientTransform="matrix(1.4363429,0,0,1.4371706,-7.8918801,-4.7916131)" />
    <linearGradient
       id="linear-gradient-26"
       x1="8.22"
       y1="20.54"
       x2="13.67"
       y2="17.94"
       gradientUnits="userSpaceOnUse">
      <stop
         offset="0"
         stop-color="#ef2929"
         id="stop23" />
      <stop
         offset="1"
         stop-color="#8ae234"
         id="stop24" />
    </linearGradient>
    <linearGradient
       id="linear-gradient-27"
       x1="10.73"
       y1="13.86"
       x2="11.37"
       y2="19.11"
       gradientTransform="matrix(1.038238,0.21368625,0.01757658,0.99394922,-1.27,-1.35)"
       xlink:href="#linear-gradient-7" />
    <linearGradient
       id="linear-gradient-28"
       x1="11.02"
       y1="17.14"
       x2="10.07"
       y2="21.78"
       xlink:href="#linear-gradient-4" />
    <linearGradient
       id="linear-gradient-29"
       x1="10.73"
       y1="17.6"
       x2="10.27"
       y2="21.38"
       xlink:href="#linear-gradient-4" />
    <linearGradient
       id="linear-gradient-30"
       x1="10.46"
       y1="18.64"
       x2="10.46"
       y2="21.35"
       xlink:href="#linear-gradient-4" />
    <linearGradient
       id="linear-gradient-31"
       x1="6.24"
       y1="17.61"
       x2="15.68"
       y2="17.61"
       gradientTransform="matrix(1.038238,0.21368625,0.01757658,0.99394922,-1.27,-1.35)"
       gradientUnits="userSpaceOnUse">
      <stop
         offset="0"
         stop-color="#a40000"
         id="stop25" />
      <stop
         offset="1"
         stop-color="#4e9a06"
         id="stop26" />
    </linearGradient>
    <linearGradient
       inkscape:collect="always"
       xlink:href="#linear-gradient"
       id="linearGradient98"
       gradientUnits="userSpaceOnUse"
       x1="34.94"
       y1="24.26"
       x2="34.94"
       y2="28.58"
       gradientTransform="matrix(1.4363428,0,0,1.4371705,-7.7480614,-2.9219748)" />
    <linearGradient
       inkscape:collect="always"
       xlink:href="#linear-gradient-4"
       id="linearGradient99"
       gradientUnits="userSpaceOnUse"
       x1="23.33"
       y1="12.12"
       x2="23.33"
       y2="19.71"
       gradientTransform="matrix(1.4363428,0,0,1.4371705,-7.8918797,-4.791613)" />
    <linearGradient
       inkscape:collect="always"
       xlink:href="#linear-gradient-21"
       id="linearGradient101"
       gradientUnits="userSpaceOnUse"
       gradientTransform="rotate(15.29,7.5520086,18.970784)"
       x1="7.44"
       y1="15.88"
       x2="13.6"
       y2="15.88" />
    <radialGradient
       inkscape:collect="always"
       xlink:href="#linearGradient102"
       id="radialGradient102"
       cx="24"
       cy="29.389999"
       fx="24"
       fy="29.389999"
       r="18.66"
       gradientTransform="matrix(1,0,0,0.22883173,0,22.664635)"
       gradientUnits="userSpaceOnUse" />
    <radialGradient
       inkscape:collect="always"
       xlink:href="#linearGradient102"
       id="radialGradient103"
       gradientUnits="userSpaceOnUse"
       gradientTransform="matrix(1,0,0,0.22883173,0,22.664635)"
       cx="24"
       cy="29.389999"
       fx="24"
       fy="29.389999"
       r="18.66" />
    <radialGradient
       inkscape:collect="always"
       xlink:href="#linearGradient104"
       id="radialGradient104"
       cx="7.4195353"
       cy="27.709857"
       fx="7.4195353"
       fy="27.709857"
       r="1.7092481"
       gradientTransform="matrix(1,0,0,0.5508212,0,12.44668)"
       gradientUnits="userSpaceOnUse" />
    <radialGradient
       inkscape:collect="always"
       xlink:href="#linearGradient106"
       id="radialGradient106"
       cx="26.451075"
       cy="18.771894"
       fx="26.451075"
       fy="18.771894"
       r="3.5046765"
       gradientTransform="matrix(2.1673001,-0.12807831,0.07864011,1.3307227,-32.352563,-1.5727604)"
       gradientUnits="userSpaceOnUse" />
    <radialGradient
       inkscape:collect="always"
       xlink:href="#linearGradient108"
       id="radialGradient108"
       cx="42.200481"
       cy="27.799129"
       fx="42.200481"
       fy="27.799129"
       r="2.161696"
       gradientTransform="matrix(2.0301248,0.04680231,-0.03276284,1.4211404,-42.560985,-13.038136)"
       gradientUnits="userSpaceOnUse" />
  </defs>
  <g
     id="shadow"
     style="isolation:isolate;fill:url(#radialGradient102);fill-opacity:1;stroke-width:0.784819"
     transform="matrix(1.274179,0,0,1.274179,-6.6436003,0.86909568)">
    <ellipse
       cx="24"
       cy="29.389999"
       rx="18.66"
       ry="4.27"
       style="fill:url(#radialGradient103);fill-opacity:1;stroke-width:0.784819"
       id="ellipse26" />
  </g>
  <path
     d="m 39.952884,27.761617 c 0.488355,2.155755 0.804351,3.592925 0.186722,6.697214 -0.244177,1.192851 -1.163435,2.069526 -0.80435,2.974942 0.359086,0.905418 3.231772,0.675471 4.768658,0.402409 1.536887,-0.273064 1.163437,-1.753348 0.761261,-2.112641 C 44.462999,35.364248 44.67845,33.481555 44.63536,31.311427 44.60663,29.917372 43.96028,27.21549 43.96028,27.21549"
     style="isolation:isolate;fill:#f9cf98;stroke-width:1"
     id="path26" />
  <path
     d="m 40.627964,31.397657 c 0,0 0.947986,0 0.904896,1.207223 -0.04308,1.207225 -0.04308,2.428819 -0.63199,3.147404 -0.588901,0.718585 -0.631992,1.120993 0.315993,1.164108 0.947986,0.04312 2.915778,0.08623 2.556692,-0.445523 -0.359087,-0.531752 -0.359087,-0.804816 -0.315995,-1.710232 0.04308,-0.905419 -0.04309,-3.736644 0.804351,-3.549813 l 0.315995,-0.229946 v -1.120993 l -4.265937,0.488637 0.315995,1.034764 z"
     style="isolation:isolate;fill:url(#linearGradient98);stroke-width:1"
     id="path27" />
  <path
     d="m 40.627964,31.08148 c 0,0 2.700324,-0.546124 3.949942,-0.08623 0,0 0,-2.112642 -0.588899,-2.744997 0,0 -3.375406,0 -3.734493,0.273062 l 0.359087,2.558165 z"
     style="isolation:isolate;fill:url(#radialGradient108);stroke-width:1;fill-opacity:1"
     id="path28" />
  <path
     d="m 39.952884,27.761617 c 0.488355,2.155755 0.804351,3.592925 0.186722,6.697214 -0.244177,1.192851 -1.163435,2.069526 -0.80435,2.974942 0.359086,0.905418 3.231772,0.675471 4.768658,0.402409 1.536887,-0.273064 1.163437,-1.753348 0.761261,-2.112641 C 44.462999,35.364248 44.67845,33.481555 44.63536,31.311427 44.60663,29.917372 43.96028,27.21549 43.96028,27.21549"
     style="isolation:isolate;fill:none;stroke:#8f5902;stroke-width:0.7px;stroke-miterlimit:10"
     id="path29" />
  <path
     d="m 22.572951,19.07979 c 0,0 1.019803,2.457561 0.675082,6.610984 -0.344723,4.153423 -1.091621,7.401428 -2.197605,9.039803 -1.120348,1.652746 -0.703808,3.348607 1.522523,4.081564 2.226331,0.732957 4.653751,0.373665 6.49227,-0.301805 1.838517,-0.675472 2.743414,-2.285101 1.867246,-3.765388 -0.87617,-1.480285 -0.761262,-2.658765 -0.588901,-7.200224 C 30.515928,23.003265 29.35249,19.16602 29.35249,19.16602 l -6.765177,-0.07186 z"
     style="isolation:isolate;fill:#f9cf98;stroke-width:1"
     id="path30" />
  <path
     d="m 24.928552,37.849237 c 1.393254,0.07185 3.777583,0 4.423938,-1.580887 0.201088,-0.517382 -0.114907,-0.948533 -0.359086,-1.394056 -0.272906,-0.531753 -0.272906,-0.948532 -0.287269,-1.537772 -0.05745,-1.365313 -0.157997,-2.759368 -0.143633,-4.12468 0,-0.732958 0.08619,-1.437171 0.143633,-2.170128 0.04308,-0.58924 0.129271,-1.221594 0.416539,-1.738976 0.05745,-0.10061 0.904895,-0.776073 0.890533,-0.675471 0,0 0.330359,-4.268396 -0.631992,-5.303159 l -6.434816,0.344922 c 0,0 0.617629,3.751014 0.459632,5.101955 0,0 0.991077,0.517381 1.034166,2.716252 0.02874,1.767721 -0.258541,3.650414 -0.976713,5.260044 -0.603264,1.365312 -2.714688,3.53544 -0.603264,4.71392 0.387813,0.215574 0.789988,0.273063 1.249618,0.301806 0.272906,0.01438 0.531446,0.07186 0.804352,0.08623 z"
     style="isolation:isolate;fill:url(#linear-gradient-2);stroke-width:1"
     id="path31" />
  <path
     d="m 23.406031,24.253604 c 0,0 3.490312,-1.293453 6.549721,0.143716 0,0 -0.373446,-4.440856 -0.330357,-4.440856 0.04308,0 -6.678996,0.244318 -6.678996,0.244318 l 0.459632,4.067193 z"
     style="isolation:isolate;fill:url(#radialGradient106);stroke-width:1;fill-opacity:1"
     id="path32" />
  <path
     d="m 22.572951,19.07979 c 0,0 1.019803,2.457561 0.675082,6.610984 -0.344723,4.153423 -1.091621,7.401428 -2.197605,9.039803 -1.120348,1.652746 -0.703808,3.348607 1.522523,4.081564 2.226331,0.732957 4.653751,0.373665 6.49227,-0.301805 1.838517,-0.675472 2.743414,-2.285101 1.867246,-3.765388 -0.87617,-1.480285 -0.761262,-2.658765 -0.588901,-7.200224 C 30.515928,23.003265 29.35249,19.16602 29.35249,19.16602 l -6.765177,-0.07186 z"
     style="isolation:isolate;fill:none;stroke:#8f5902;stroke-width:0.7px;stroke-miterlimit:10"
     id="path33" />
  <path
     d="m 25.00037,3.9607555 c -1.838518,0.244319 -3.590855,1.4084272 -6.147547,6.0361163 -2.556688,4.6276892 -3.921215,5.0157252 -4.452663,7.1858522 -0.775625,3.104288 1.594342,5.331903 4.998473,4.268396 3.404132,-1.063506 6.090095,-1.839577 8.934053,-1.178479 2.843958,0.661099 5.932095,0.589239 7.425892,-0.804815 1.493798,-1.394056 2.039607,-3.53544 -0.258541,-5.806169 C 33.201888,11.390927 31.679364,9.7812962 30.271748,7.6686556 29.122674,5.9296792 27.370336,3.644578 25.00037,3.9607555 Z"
     style="isolation:isolate;fill:url(#linear-gradient-3);stroke-width:1"
     id="path34" />
  <path
     d="m 21.30897,10.06873 c 0.703807,0.373665 1.149074,1.149737 0.861805,2.213243 -0.301632,1.192851 -1.263982,1.638375 -2.010879,1.609632 -1.42198,-0.04312 -2.743417,-2.155757 -1.393254,-3.420467 0.761262,-0.7185852 1.795428,-0.8048154 2.527964,-0.416779 z"
     style="isolation:isolate;fill:#f0f0f0;stroke-width:1"
     id="path35" />
  <path
     d="M 26.192535,8.7609051 C 25.546182,8.3010106 25.345094,7.1800174 25.632362,6.4183171 26.048901,5.311696 27.054341,4.9811467 27.801238,5.0673768 c 1.421981,0.1580888 2.542328,2.299473 1.077257,3.3773508 -0.703807,0.5173813 -1.967788,0.8191872 -2.68596,0.3161775 z"
     style="isolation:isolate;fill:#f0f0f0;stroke-width:1"
     id="path36" />
  <path
     d="m 27.801238,15.759925 c -0.04309,-0.905417 0.775627,-1.853949 1.651795,-2.127012 1.292708,-0.402408 2.413056,0.229948 2.987593,0.962905 1.163439,1.509029 0.157999,4.412114 -2.240694,3.62167 -1.077258,-0.344922 -2.34124,-1.408427 -2.398694,-2.457563 z"
     style="isolation:isolate;fill:#f0f0f0;stroke-width:1"
     id="path37" />
  <path
     d="m 20.662615,21.048714 c -0.402175,0.114971 -0.833078,0.25869 -1.263981,0.388036 -1.723612,0.531753 -3.174317,0.229946 -4.093577,-0.58924 v -0.07185 c -0.04308,-1.020391 0.933623,-2.127012 1.953425,-2.428819 1.46507,-0.445522 2.614145,0.316179 3.116866,1.135365 0.272903,0.459896 0.359085,1.006021 0.287267,1.566517 z"
     style="isolation:isolate;fill:#f0f0f0;stroke-width:1"
     id="path38" />
  <path
     d="m 20.662615,21.048714 c -0.402175,0.114971 -0.833078,0.25869 -1.263981,0.388036 -1.723612,0.531753 -3.174317,0.229946 -4.093577,-0.58924 v -0.07185 c -0.04308,-1.020391 0.933623,-2.127012 1.953425,-2.428819 1.46507,-0.445522 2.614145,0.316179 3.116866,1.135365 0.272903,0.459896 0.359085,1.006021 0.287267,1.566517 z"
     style="isolation:isolate;fill:#f0f0f0;stroke-width:1"
     id="path39" />
  <path
     d="m 18.350103,21.93976 c -1.623067,0.25869 -2.298148,0.07186 -2.858323,-0.546126 -1.00544,-1.09225 -1.235254,-2.486305 -1.163438,-3.707899 0.07182,-1.221595 0.7469,-2.342589 2.298149,-3.406095 0,0 -0.947986,1.149737 -0.617627,2.213242 0.330359,1.063507 1.134711,1.595258 3.317954,1.4228 2.183239,-0.172461 3.691399,-1.580889 7.354073,-1.76772 3.662675,-0.186832 5.213924,0.761701 6.894446,-0.445523 1.680521,-1.207223 -0.100552,-3.204891 -0.675082,-4.009706 -0.574536,-0.804816 2.671599,1.566516 3.432859,2.687509 0.761263,1.120993 0.761263,3.176147 0.229816,4.124679 -0.531447,0.948532 -2.614144,2.127013 -4.093577,2.170128 -1.479434,0.04312 -5.544283,-1.221596 -7.871159,-0.67547 -2.326874,0.546125 -5.400648,1.810835 -6.233727,1.940181 z"
     style="opacity:0.4;isolation:isolate;mix-blend-mode:multiply;fill:url(#linearGradient99);stroke-width:1"
     id="path40" />
  <path
     d="m 19.80081,21.45112 c -1.608704,0.804816 -2.858322,0.819187 -4.093577,0.04312 -1.235257,-0.776072 -1.795429,-3.7079 -0.01437,-5.964258 0,0 -1.034166,1.350942 0.272905,2.486304 1.307072,1.135367 4.495754,0.546127 6.736448,-0.27306 2.240694,-0.819187 6.377363,-1.034764 8.158427,-0.589241 1.781066,0.445523 3.691402,-0.661099 3.89249,-2.083898 0.229814,-1.566516 -0.646354,-1.868321 -1.192165,-2.687508 -0.54581,-0.819187 3.174319,1.681489 3.461586,3.262378 0.287269,1.580886 -0.804352,3.765386 -2.183242,4.584573 -1.378886,0.819188 -5.83155,0.273062 -8.086609,-0.04312 -2.255057,-0.316176 -5.874642,0.718586 -6.966263,1.26471 z"
     style="opacity:0.8;isolation:isolate;mix-blend-mode:multiply;fill:url(#linear-gradient-5);stroke-width:1"
     id="path41" />
  <path
     d="m 20.533343,20.60319 c -3.36104,1.149736 -4.467024,-0.316178 -4.797384,-0.891045 -0.5889,-1.020391 -0.301632,-1.106622 0.201088,-0.474267 0.502721,0.632356 1.651795,0.776073 4.668114,-0.08623 3.01632,-0.862302 5.07029,-1.235966 8.043519,-0.603612 2.973232,0.632356 4.495754,0.373665 5.774099,-0.747327 1.278345,-1.120994 0.890533,-2.256358 1.307073,-1.968924 0.416539,0.287434 0.459628,1.796463 -0.675082,3.19052 -1.134712,1.394053 -3.447222,1.293451 -5.659191,1.020389 -2.211968,-0.273061 -4.179758,0.04312 -5.960822,0.273062 -1.781066,0.229948 -2.901414,0.287434 -2.901414,0.287434 z"
     style="opacity:0.55;isolation:isolate;mix-blend-mode:multiply;fill:url(#linear-gradient-6);stroke-width:1"
     id="path42" />
  <path
     d="M 34.46587,12.899956 C 33.747699,12.440062 32.928982,12.166999 32.239539,11.649618 31.305915,10.945404 30.329202,10.15496 29.596667,9.2351714 28.964676,8.4447276 28.332686,7.596797 27.355973,7.208761 c -2.614145,-1.0491346 -5.012836,1.4515423 -6.147548,3.549811 -0.574537,1.063506 -0.991075,2.256358 -1.809792,3.176147 -0.45963,0.517381 -1.895972,1.76772 -2.413056,0.517381 -0.17236,-0.43115 -0.05745,-1.092249 0.229816,-1.465914 0.114905,-0.143717 0.287268,-0.215575 0.387813,-0.373664 0.143634,-0.201204 0.172359,-0.459894 0.258541,-0.689842 0.114904,-0.301806 0.301632,-0.531753 0.473994,-0.804815 0.531445,-0.819187 0.876169,-1.7389765 1.13471,-2.6587657 0.258541,-0.9197891 1.062892,-1.753348 1.680521,-2.4144465 0.96235,-1.0347627 2.125788,-1.7964632 3.519039,-2.0551538 0.100553,-0.014372 0.215452,-0.043115 0.330359,-0.057487 2.183241,-0.2874341 4.007396,1.710233 5.31447,3.751015 0.818714,1.2934534 2.039606,2.241986 2.843958,3.5498108 0.114905,0.186833 0.258541,0.33055 0.402175,0.488638 0.287269,0.33055 0.531448,0.948533 0.904897,1.149737 z"
     style="isolation:isolate;fill:url(#linear-gradient-13);stroke-width:1"
     id="path57" />
  <path
     d="m 25.00037,3.9607555 c -1.838518,0.244319 -3.590855,1.4084272 -6.147547,6.0361163 -2.556688,4.6276892 -3.921215,5.0157252 -4.452663,7.1858522 -0.775625,3.104288 1.594342,5.331903 4.998473,4.268396 3.404132,-1.063506 6.090095,-1.839577 8.934053,-1.178479 2.843958,0.661099 5.932095,0.589239 7.425892,-0.804815 1.493798,-1.394056 2.039607,-3.53544 -0.258541,-5.806169 C 33.201888,11.390927 31.679364,9.7812962 30.271748,7.6686556 29.122674,5.9296792 27.370336,3.644578 25.00037,3.9607555 Z"
     style="isolation:isolate;fill:none;stroke:url(#linear-gradient-14);stroke-width:0.7px;stroke-miterlimit:10"
     id="path58" />
  <path
     d="m 41.891949,21.107518 c -0.833079,0.143717 -1.637431,0.560496 -2.599781,2.716252 -0.675081,1.465914 -1.55125,2.083897 -1.723611,3.248006 -0.229815,1.537772 0.445266,2.644393 2.068333,2.098269 1.608705,-0.546125 2.858323,-0.934161 4.151031,-0.675471 1.292709,0.258691 2.47051,0.273063 3.188682,-0.388036 0.732535,-0.661098 0.947986,-2.184499 0.143634,-3.003686 -0.574537,-0.58924 -1.852882,-1.480286 -2.55669,-2.385703 -0.689445,-0.905418 -1.680522,-1.782092 -2.657235,-1.609631 z"
     style="isolation:isolate;fill:none;stroke-width:1"
     id="path59" />
  <path
     d="m 41.202504,21.208119 c -0.947986,0.158089 -1.852882,0.603612 -2.944503,2.77374 -0.775625,1.480285 -1.766701,2.112641 -1.967789,3.276749 -0.272906,1.537772 0.488356,2.644394 2.312512,2.069525 1.809792,-0.574868 3.217408,-0.991647 4.682477,-0.7617 1.450707,0.229947 2.772142,0.229947 3.590858,-0.445523 0.818715,-0.67547 1.09162,-2.213243 0.172361,-3.003686 -0.646354,-0.574869 -2.082697,-1.437171 -2.858323,-2.342589 -0.775625,-0.891045 -1.881609,-1.753348 -2.973229,-1.566516 z"
     style="isolation:isolate;fill:url(#linear-gradient-15);stroke-width:1"
     id="path60" />
  <path
     d="m 39.464529,26.065756 c 0.08618,1.09225 -1.292708,1.523401 -1.996516,0.761701 -0.315996,-0.344921 -0.301632,-0.991648 -0.04309,-1.379684 0.631991,-0.977276 1.96779,-0.517382 2.053971,0.617983 z"
     style="isolation:isolate;fill:#f0f0f0;stroke-width:1"
     id="path61" />
  <path
     d="m 47.522413,27.02866 c -0.129271,0.373665 -0.330359,0.603612 -0.746898,0.431152 -0.373449,-0.158089 -0.631991,-0.517382 -0.660718,-0.91979 -0.02873,-0.416779 0.344722,-0.833559 0.746898,-0.962904 0.775625,-0.244319 0.833079,0.876674 0.675081,1.408427 v 0.05749 z"
     style="isolation:isolate;fill:#f0f0f0;stroke-width:1"
     id="path62" />
  <path
     d="m 45.525896,24.024974 c -0.129271,0.100602 -0.272905,0.229947 -0.330359,0.258691 -0.186724,0.08623 -0.387812,0.100601 -0.5889,0.05749 -0.41654,-0.100602 -0.718172,-0.474266 -0.732535,-0.905417 -0.01436,-0.344921 0.215451,-0.50301 0.416539,-0.732957 0,0.531753 0.933623,1.149736 1.436343,1.207223 -0.02873,0 -0.100544,0.04312 -0.186724,0.114974 z"
     style="isolation:isolate;fill:#f0f0f0;stroke-width:1"
     id="path63" />
  <path
     d="m 42.969206,28.250255 c -0.732535,1.020392 -2.269422,0.388036 -2.326875,-0.804815 -0.02873,-0.531753 0.459629,-1.09225 0.976713,-1.26471 1.278345,-0.402408 2.111424,1.006019 1.350162,2.069525 z"
     style="isolation:isolate;fill:#f0f0f0;stroke-width:1"
     id="path64" />
  <path
     d="m 41.504136,22.487201 c 0.229815,0.934161 -0.890532,1.509029 -1.623067,0.962905 -0.330359,-0.244319 -0.41654,-0.804816 -0.258542,-1.192852 0.402176,-0.948533 1.623068,-0.747329 1.867246,0.229947 z"
     style="isolation:isolate;fill:#f0f0f0;stroke-width:1"
     id="path65" />
  <path
     d="m 41.202504,21.208119 c -0.947986,0.158089 -1.852882,0.603612 -2.944503,2.77374 -0.775625,1.480285 -1.766701,2.112641 -1.967789,3.276749 -0.272906,1.537772 0.488356,2.644394 2.312512,2.069525 1.809792,-0.574868 3.217408,-0.991647 4.682477,-0.7617 1.450707,0.229947 2.772142,0.229947 3.590858,-0.445523 0.818715,-0.67547 1.09162,-2.213243 0.172361,-3.003686 -0.646354,-0.574869 -2.082697,-1.437171 -2.858323,-2.342589 -0.775625,-0.891045 -1.881609,-1.753348 -2.973229,-1.566516 z"
     style="isolation:isolate;fill:none;stroke-width:1"
     id="path66" />
  <path
     d="m 37.669101,25.821437 c -0.229815,0.488638 -0.229815,1.149737 0.387812,1.235967 0.775625,0.114973 1.623068,-0.373665 2.384329,-0.531753 1.134711,-0.229948 2.255059,-0.388036 3.404133,-0.215576 0.603264,0.08623 1.666158,0.05749 1.852883,-0.704213 0.186724,-0.761701 -0.502721,-1.106622 -0.775626,-1.710234 0.229815,0.08623 0.402176,0.258691 0.617628,0.373665 0.359086,0.186832 0.517083,0.244319 0.775625,0.517381 0.387813,0.41678 0.861806,0.661099 1.034167,1.235967 0.143634,0.517381 -0.07182,1.250338 -0.373449,1.68149 -0.473993,0.661098 -1.278345,0.732957 -2.01088,0.804815 -1.149075,0.114974 -2.326876,-0.05749 -3.47595,0.05749 -1.206528,0.114974 -2.384329,0.488638 -3.590857,0.617983 -0.675082,0.07186 -1.522524,0.04312 -1.752339,-0.747328 -0.287268,-1.00602 0.861806,-1.997668 1.522524,-2.630023 z"
     style="opacity:0.4;isolation:isolate;mix-blend-mode:multiply;fill:url(#linear-gradient-16);stroke-width:1"
     id="path67" />
  <path
     d="m 39.019263,29.126929 c -0.732535,0.258691 -1.881609,0.646727 -2.312512,-0.25869 -0.244178,-0.517382 -0.201088,-1.365312 0,-1.882694 0.114907,-0.287434 0.272905,-0.560496 0.473993,-0.790444 -0.07182,0.359293 -0.186724,0.977276 0.114908,1.250339 0.287268,0.258691 0.933622,0.158089 1.263981,0.08623 0.789989,-0.158089 1.536887,-0.50301 2.326876,-0.646727 1.278345,-0.244319 2.542327,-0.02874 3.820672,0.02874 0.54581,0.02874 1.062894,0.02874 1.249618,-0.560497 0.114908,-0.402408 0.100544,-0.934161 -0.05745,-1.307825 -0.129271,-0.301806 -0.37345,-0.560497 -0.545811,-0.790444 0.272905,0.143717 0.603264,0.143717 0.890533,0.287434 0.215451,0.114974 0.430903,0.301806 0.617627,0.445523 0.373449,0.287434 0.660718,0.661099 0.732535,1.149737 0.08618,0.58924 -0.258542,1.207223 -0.675081,1.609631 -0.560174,0.546125 -1.091621,0.804815 -1.867246,0.790444 -1.996516,0 -4.136667,-0.100602 -6.03264,0.574868 z"
     style="opacity:0.8;isolation:isolate;mix-blend-mode:multiply;fill:url(#linear-gradient-17);stroke-width:1"
     id="path68" />
  <path
     d="m 41.891949,21.107518 c -0.833079,0.143717 -1.637431,0.560496 -2.599781,2.716252 -0.675081,1.465914 -1.55125,2.083897 -1.723611,3.248006 -0.229815,1.537772 0.445266,2.644393 2.068333,2.098269 1.608705,-0.546125 2.858323,-0.934161 4.151031,-0.675471 1.292709,0.258691 2.47051,0.273063 3.188682,-0.388036 0.732535,-0.661098 0.947986,-2.184499 0.143634,-3.003686 -0.574537,-0.58924 -1.852882,-1.480286 -2.55669,-2.385703 -0.689445,-0.905418 -1.680522,-1.782092 -2.657235,-1.609631 z"
     style="isolation:isolate;fill:none;stroke-width:1"
     id="path69" />
  <path
     d="m 47.206418,27.387953 c 0.07182,-0.229947 0.100544,-0.459895 0.08618,-0.704214 -0.143634,-1.336568 -1.321435,-1.983295 -2.456146,-2.61565 -0.933623,-0.531753 -2.082697,-1.810835 -3.289225,-1.509029 -0.91926,0.229947 -1.048531,1.609631 -1.450707,2.299473 -0.272905,0.474266 -0.646354,1.135365 -1.220891,1.307825 -1.623068,0.517381 -0.804352,-1.624003 -0.617628,-2.371331 0.330359,-1.250339 1.364526,-2.486306 2.700325,-2.744996 0.04309,0 0.07182,-0.01437 0.114907,-0.01437 1.105984,-0.186832 2.197605,0.661098 2.97323,1.566516 0.775625,0.891046 2.211968,1.76772 2.858323,2.342588 0.718171,0.632355 0.718171,1.710233 0.272905,2.471933 z"
     style="isolation:isolate;fill:url(#linear-gradient-18);stroke-width:1"
     id="path70" />
  <path
     d="m 47.306962,27.833476 c -0.761262,1.135365 -2.88705,0.905417 -4.021761,0.718585 -1.694884,-0.273062 -3.404132,0.388036 -5.084653,0.919789 -0.517084,0.158089 -1.192165,0.172461 -1.536887,-0.330549 -0.287269,-0.416779 -0.244179,-1.120993 -0.114908,-1.580887 0.05745,-0.215576 0.07182,-0.488638 0.272905,-0.617984 -0.12927,0.488638 -0.01436,0.919789 0.45963,1.164108 0.761262,0.402408 1.623068,-0.158088 2.355602,-0.445523 0.847443,-0.316177 1.795429,-0.474266 2.685962,-0.503009 0.402176,0 0.804352,0 1.206528,0.02874 0.646354,0.05749 1.565613,0.244319 2.168878,-0.02874 0.531446,-0.244319 0.919259,-0.761701 0.761261,-1.365312 -0.129271,-0.50301 -0.488356,-0.804816 -0.703808,-1.250339 0.344723,0 0.847443,0.258691 1.163438,0.41678 0.876169,0.431151 0.833079,1.810835 0.531447,2.586907 -0.04309,0.100602 -0.08618,0.201204 -0.143634,0.287434 z"
     style="opacity:0.55;isolation:isolate;mix-blend-mode:multiply;fill:url(#linear-gradient-19);stroke-width:1"
     id="path71" />
  <path
     d="m 41.202504,21.208119 c -0.947986,0.158089 -1.852882,0.603612 -2.944503,2.77374 -0.775625,1.480285 -1.766701,2.112641 -1.967789,3.276749 -0.272906,1.537772 0.488356,2.644394 2.312512,2.069525 1.809792,-0.574868 3.217408,-0.991647 4.682477,-0.7617 1.450707,0.229947 2.772142,0.229947 3.590858,-0.445523 0.818715,-0.67547 1.09162,-2.213243 0.172361,-3.003686 -0.646354,-0.574869 -2.082697,-1.437171 -2.858323,-2.342589 -0.775625,-0.891045 -1.881609,-1.753348 -2.973229,-1.566516 z"
     style="isolation:isolate;fill:none;stroke:url(#linear-gradient-20);stroke-width:0.700001px;stroke-miterlimit:10"
     id="path72" />
  <g
     style="opacity:0.7;isolation:isolate;stroke-width:0.696012"
     id="g77"
     transform="matrix(1.4363429,0,0,1.4371706,-7.8918801,-4.7916131)">
    <g
       id="g76"
       style="stroke-width:0.696012">
      <path
         d="m 10.08,15.29 c 0.45,-0.21 0.57,0.06 0.28,0.72 -0.29,0.66 -0.98,1.37 -1.42,1.41 -0.44,0.05 -0.61,-0.46 -0.12,-1.16 0.49,-0.7 1.26,-0.98 1.26,-0.98 z"
         style="fill:url(#linearGradient101);stroke-width:0.696012"
         id="path73" />
      <path
         d="M 9.31,19.16 C 8.97,18.96 9.16,18.35 9.88,17.85 10.59,17.35 11,17.45 11,17.8 c 0,0.36 -0.15,0.83 -0.79,1.21 -0.64,0.38 -0.89,0.15 -0.89,0.15 z"
         style="fill:url(#linear-gradient-22);stroke-width:0.696012"
         id="path74" />
      <path
         d="m 12.42,18.68 c -0.3,-0.53 -0.78,0.17 -0.62,0.65 0.16,0.48 0.51,0.72 0.75,0.41 0.23,-0.31 0.02,-0.8 -0.13,-1.06 z"
         style="fill:url(#linear-gradient-23);stroke-width:0.696012"
         id="path75" />
      <path
         d="M 6.95,20.06 C 6.6,19.53 7.12,18.6 7.65,18.74 8.18,18.88 8.1,20.05 7.5,20.15 6.9,20.25 6.95,20.06 6.95,20.06 Z"
         style="fill:url(#linear-gradient-24);stroke-width:0.696012"
         id="path76" />
    </g>
  </g>
  <path
     d="m 8.9133318,24.88596 c -0.08618,-0.02874 0.301632,3.636041 0.3159955,3.966591 0.2441783,1.135364 0.603264,2.184499 1.0628937,3.176147 0.402176,0.876674 0.876169,1.681489 1.378889,2.471933 0.45963,0.747329 1.551251,1.322197 0.473993,2.299473 -0.315995,0.287434 -0.991076,0.617983 -1.393252,0.747329 C 9.6171399,37.935469 8.1089798,37.921097 7.2328106,37.504318 6.342278,37.087538 6.2560975,36.09589 6.0980997,35.233588 5.63847,32.675424 5.4804723,29.642994 5.4517454,26.495591 c 0.1292709,-5.489992 3.4759499,-1.59526 3.4759499,-1.59526 z"
     style="isolation:isolate;fill:#f9cf98;stroke-width:1"
     id="path77" />
  <path
     d="m 7.1466301,34.687463 c 0,0 0,-0.129345 0,-0.186832 0.014363,-0.919789 0.100544,-1.76772 -0.028727,-2.730624 -0.1149074,-0.732957 -0.201088,-1.537773 -0.3447223,-2.27073 -0.04309,-0.244319 -0.1579977,-0.574868 -0.2729051,-0.804815 -0.028727,-0.05749 -0.5027201,-0.617983 -0.5027201,-0.50301 0,-0.388036 -0.057454,-0.804815 -0.057454,-1.192851 0,-0.215576 -0.2154514,-2.141385 -0.2298148,-2.141385 0.5745371,0 1.2208914,0.07186 1.8528823,0.201204 0.3159954,0.05749 0.6463543,0.129346 0.9479863,0.201204 -0.2154514,-0.04312 0.2872686,3.362979 0.3303589,3.607298 -0.904896,0.04312 -0.2298149,1.983296 0,2.630023 0.3303589,0.93416 0.6463543,1.882693 1.1921647,2.744995 0.315996,0.488638 1.364526,1.537773 0.689445,1.925809 -0.430903,0.244319 -1.0341674,0.129345 -1.5368874,0.100602 C 8.7122438,36.239608 8.2526141,36.311466 7.7642575,36.09589 7.1897204,35.8372 7.1609935,35.204845 7.1609935,34.701835 Z"
     style="isolation:isolate;fill:url(#linear-gradient-25);stroke-width:1"
     id="path78" />
  <path
     d="m 5.4230186,25.000933 c 0.1149074,0.704214 -0.1149074,2.069526 0.6319909,2.572536 0.2585417,0.17246 0.5601737,0.244319 0.8330788,0.301806 0.5458103,0.129345 1.3357989,0.330549 1.737975,-0.04312 0.5745371,-0.531754 0.1436342,-1.580888 0.3447222,-2.299473 0.2729052,-0.977276 -0.1867245,-2.127013 -0.1723611,-3.176147 0,-0.546125 0.086181,-1.652747 -0.4739932,-1.997668 -0.7899886,-0.488638 -1.8528823,1.063507 -2.1401509,1.652747 -0.3303588,0.67547 -0.7468983,1.394055 -0.8187154,2.198871 -0.028727,0.244319 0,0.517381 0.04309,0.790443 z"
     style="opacity:0.67;isolation:isolate;fill:#8f5902;stroke-width:1"
     id="path79" />
  <path
     d="m 5.5091992,26.783025 c 0,0 2.413056,0.201204 3.3610423,0.632355 L 8.683517,26.32313 c 0,0 -2.7721418,-0.531753 -3.2030447,-0.517381 z"
     style="isolation:isolate;fill:#8f5902;stroke-width:1"
     id="path80" />
  <path
     d="m 5.7821043,28.018992 c 0,0 2.4130561,0.201204 3.346679,0.632355 L 8.8989684,27.286035 c 0,0 -2.7577784,-0.531753 -3.1886812,-0.517382 z"
     style="isolation:isolate;fill:url(#radialGradient104);stroke-width:1;fill-opacity:1"
     id="path81" />
  <path
     d="m 8.9133318,24.88596 c -0.100544,2.701881 0.6176275,6.036116 1.6374312,8.148757 0.574537,1.451542 1.263981,1.911437 1.651794,2.572535 0.387813,0.661099 -0.07182,1.379684 -0.833079,1.638375 C 9.5309593,37.849239 7.2040838,37.662406 6.2704609,36.68513 5.0926597,35.449164 6.0980997,34.730578 5.839558,33.034717 5.4948357,30.634642 5.437382,29.326817 5.4230186,26.495591 5.5522894,21.005599 8.8989684,24.914703 8.8989684,24.900331 Z"
     style="isolation:isolate;fill:none;stroke:#8f5902;stroke-width:0.700001px;stroke-miterlimit:10"
     id="path82" />
  <g
     id="g96"
     style="isolation:isolate;stroke-width:0.696012"
     transform="matrix(1.4363429,0,0,1.4371706,-7.8918801,-4.7916131)">
    <path
       d="m 11.54,15.36 c -0.74,-0.04 -1.67,0.09 -3.18,1.53 -1.01,0.99 -1.9,1.29 -2.26,2.19 -0.47,1.18 0.11,2.25 1.56,2.14 1.46,-0.12 2.59,-0.18 3.72,0.3 1.13,0.49 2.18,0.75 2.86,0.35 0.68,-0.4 1.05,-1.61 0.52,-2.42 -0.39,-0.59 -1.28,-1.55 -1.57,-2.38 -0.3,-0.83 -0.76,-1.64 -1.64,-1.7 z"
       style="fill:none;stroke-width:0.696012"
       id="path83" />
    <path
       d="m 11.71,15.18 c -0.74,-0.05 -1.67,0.09 -3.18,1.53 -1.01,0.99 -1.9,1.3 -2.26,2.19 -0.47,1.18 0.11,2.26 1.56,2.14 1.46,-0.12 2.59,-0.18 3.72,0.3 1.13,0.49 2.18,0.75 2.86,0.35 0.67,-0.4 1.05,-1.61 0.52,-2.42 -0.39,-0.59 -1.28,-1.55 -1.58,-2.38 -0.3,-0.83 -0.76,-1.65 -1.64,-1.71 z"
       style="fill:url(#linear-gradient-26);stroke-width:0.696012"
       id="path84" />
    <path
       d="M 6.51,18.78 C 6.47,18.52 6.7,18.14 6.97,17.95 7.35,17.69 7.69,17.77 7.85,17.93 8.16,18.25 7.89,19.11 7.26,19.18 6.95,19.21 6.57,19.07 6.52,18.78 Z"
       style="fill:#f0f0f0;stroke-width:0.696012"
       id="path85" />
    <path
       d="m 11.05,19.05 c 0.4,-0.07 0.82,0.24 0.94,0.61 0.17,0.54 -0.13,1.02 -0.45,1.26 -0.62,0.46 -1.71,0.13 -1.46,-0.78 0.12,-0.44 0.53,-1 0.97,-1.09 z"
       style="fill:#f0f0f0;stroke-width:0.696012"
       id="path86" />
    <path
       d="m 9.4,16.33 c 0.14,-0.28 0.57,-0.45 0.89,-0.4 0.48,0.07 0.69,0.43 0.71,0.72 0.04,0.56 -0.72,1.15 -1.27,0.68 -0.26,-0.23 -0.48,-0.68 -0.33,-1 z"
       style="fill:#f0f0f0;stroke-width:0.696012"
       id="path87" />
    <path
       d="m 12.51,17.72 c 0.06,-0.26 0.36,-0.46 0.62,-0.47 0.38,-0.01 0.6,0.26 0.67,0.49 0.13,0.46 -0.36,1.08 -0.86,0.76 C 12.7,18.35 12.45,18 12.51,17.71 Z"
       style="fill:#f0f0f0;stroke-width:0.696012"
       id="path88" />
    <path
       d="m 11.71,15.18 c -0.74,-0.05 -1.67,0.09 -3.18,1.53 -1.01,0.99 -1.9,1.3 -2.26,2.19 -0.47,1.18 0.11,2.26 1.56,2.14 1.46,-0.12 2.59,-0.18 3.72,0.3 1.13,0.49 2.18,0.75 2.86,0.35 0.67,-0.4 1.05,-1.61 0.52,-2.42 -0.39,-0.59 -1.28,-1.55 -1.58,-2.38 -0.3,-0.83 -0.76,-1.65 -1.64,-1.71 z"
       style="fill:none;stroke-width:0.696012"
       id="path89" />
    <path
       d="m 11.54,15.36 c -0.74,-0.04 -1.67,0.09 -3.18,1.53 -1.01,0.99 -1.9,1.29 -2.26,2.19 -0.47,1.18 0.11,2.25 1.56,2.14 1.46,-0.12 2.59,-0.18 3.72,0.3 1.13,0.49 2.18,0.75 2.86,0.35 0.68,-0.4 1.05,-1.61 0.52,-2.42 -0.39,-0.59 -1.28,-1.55 -1.57,-2.38 -0.3,-0.83 -0.76,-1.64 -1.64,-1.7 z"
       style="fill:none;stroke-width:0.696012"
       id="path90" />
    <path
       d="m 14.24,18.93 c -0.26,-0.15 -0.49,-0.36 -0.72,-0.55 -0.25,-0.2 -0.55,-0.42 -0.73,-0.69 -0.31,-0.45 -0.45,-0.9 -0.95,-1.19 -0.54,-0.31 -1.1,0.03 -1.54,0.34 -0.6,0.42 -1.02,0.95 -1.52,1.47 -0.31,0.32 -0.94,0.98 -1.42,0.6 C 7.17,18.76 7.17,18.59 7.26,18.39 7.33,18.23 7.41,18.14 7.51,18 c 0.31,-0.41 0.51,-0.83 0.9,-1.19 0.34,-0.31 0.72,-0.58 1.1,-0.83 0.62,-0.41 1.3,-0.65 2.05,-0.61 0.89,0.06 1.34,0.87 1.64,1.7 0.13,0.36 0.33,0.67 0.54,0.99 0.19,0.28 0.28,0.62 0.51,0.88 z"
       style="fill:url(#linear-gradient-27);stroke-width:0.696012"
       id="path91" />
    <path
       d="m 13.67,18.29 c 0.23,0.04 0.29,0.15 0.43,0.31 0.07,0.07 0.14,0.14 0.2,0.22 0.16,0.18 0.3,0.39 0.39,0.61 0.27,0.64 0.37,1.55 -0.17,2.08 -0.02,0.02 -0.03,0.03 -0.05,0.05 -0.74,0.66 -2.18,0.19 -3.12,-0.21 C 10.67,21.06 9.95,20.97 9.23,20.96 8.51,20.95 7.76,21.17 7.07,21.02 6.12,20.81 5.41,19.47 6.35,18.78 6.57,18.62 6.81,18.4 7.07,18.33 6.91,18.55 6.7,18.75 6.79,19.06 c 0.07,0.25 0.38,0.38 0.62,0.43 0.24,0.05 0.48,0.1 0.73,0.1 0.17,0 0.34,0 0.51,0.02 0.33,0.03 0.67,0.01 1.01,0.03 0.47,0.02 0.93,0.06 1.4,0.1 0.44,0.04 0.88,0.09 1.32,0.02 0.48,-0.08 1.15,-0.25 1.29,-0.78 0.03,-0.12 0.03,-0.25 0,-0.38 -0.02,-0.08 -0.07,-0.16 -0.09,-0.24 -0.02,-0.09 -0.01,-0.09 0.1,-0.07 z"
       style="opacity:0.4;mix-blend-mode:multiply;fill:url(#linear-gradient-28);stroke-width:0.696012"
       id="path92" />
    <path
       d="m 14.53,21.44 c 0,0 -0.03,0.03 -0.05,0.05 -0.74,0.66 -2.18,0.19 -3.12,-0.21 C 10.68,20.99 9.96,20.9 9.24,20.89 8.52,20.88 7.77,21.1 7.08,20.95 6.57,20.84 6.13,20.44 5.97,19.94 5.88,19.64 5.98,19.44 6.17,19.2 6.26,19.09 6.36,19 6.47,18.92 6.52,18.88 6.6,18.78 6.66,18.78 c -0.05,0.16 -0.1,0.28 -0.06,0.46 0.09,0.37 0.52,0.57 0.85,0.66 0.37,0.1 0.76,0.1 1.13,0.11 0.56,0.02 1.15,0.03 1.72,0.07 0.29,0.02 0.59,0.06 0.88,0.11 0.27,0.05 0.54,0.11 0.82,0.11 0.31,0 0.61,0.04 0.92,-0.04 0.31,-0.08 0.58,-0.24 0.78,-0.47 0.12,-0.14 0.23,-0.43 0.22,-0.62 0,-0.12 -0.08,-0.27 -0.13,-0.38 0.15,0 0.24,-0.01 0.39,0.02 0.13,0.03 0.29,0.02 0.36,0.16 0.03,0.06 0.03,0.12 0.06,0.18 0.04,0.07 0.08,0.14 0.11,0.21 0.27,0.64 0.37,1.55 -0.17,2.08 z"
       style="opacity:0.8;mix-blend-mode:multiply;fill:url(#linear-gradient-29);stroke-width:0.696012"
       id="path93" />
    <path
       d="m 14.55,21.61 c 0,0 -0.03,0.03 -0.05,0.05 -0.74,0.66 -2.18,0.19 -3.12,-0.21 C 10.7,21.16 9.98,21.07 9.26,21.06 8.54,21.05 7.79,21.27 7.1,21.12 6.55,21 6.19,20.64 6.08,20.24 6.02,20.03 6,19.74 6.12,19.55 6.17,19.46 6.22,19.37 6.28,19.29 6.33,19.22 6.46,19.12 6.49,19.05 6.35,19.52 6.6,19.91 7,20.13 c 0.49,0.27 1.07,0.24 1.62,0.23 0.39,0 0.78,-0.04 1.17,-0.02 0.39,0.02 0.79,0.07 1.18,0.14 0.16,0.03 0.31,0.07 0.46,0.11 0.42,0.11 0.79,0.26 1.24,0.26 0.76,0 1.68,-0.38 1.54,-1.3 -0.03,-0.2 -0.17,-0.36 -0.22,-0.56 0.12,0 0.29,0.09 0.4,0.14 0.3,0.15 0.41,0.52 0.47,0.83 0.11,0.52 0.11,1.28 -0.29,1.67 z"
       style="opacity:0.55;mix-blend-mode:multiply;fill:url(#linear-gradient-30);stroke-width:0.696012"
       id="path94" />
    <path
       d="m 11.54,15.36 c -0.74,-0.04 -1.67,0.09 -3.18,1.53 -1.01,0.99 -1.9,1.29 -2.26,2.19 -0.47,1.18 0.11,2.25 1.56,2.14 1.46,-0.12 2.59,-0.18 3.72,0.3 1.13,0.49 2.18,0.75 2.86,0.35 0.68,-0.4 1.05,-1.61 0.52,-2.42 -0.52,-0.8 -1.2,-1.55 -1.61,-2.43 -0.34,-0.72 -0.69,-1.59 -1.6,-1.65 z"
       style="fill:none;stroke:url(#linear-gradient-31);stroke-width:0.487209px;stroke-miterlimit:10"
       id="path95" />
    <path
       d="m 11.54,15.36 c -0.74,-0.04 -1.67,0.09 -3.18,1.53 -1.01,0.99 -1.9,1.29 -2.26,2.19 -0.47,1.18 0.11,2.25 1.56,2.14 1.46,-0.12 2.59,-0.18 3.72,0.3 1.13,0.49 2.18,0.75 2.86,0.35 0.68,-0.4 1.05,-1.61 0.52,-2.42 -0.39,-0.59 -1.28,-1.55 -1.57,-2.38 -0.3,-0.83 -0.76,-1.64 -1.64,-1.7 z"
       style="fill:none;stroke-width:0.696012"
       id="path96" />
  </g>
</svg>
