<?xml version="1.0" encoding="UTF-8" standalone="no"?>
<svg
   width="50pt"
   height="50pt"
   viewBox="0 0 50 50"
   xml:space="preserve"
   version="1.1"
   id="svg11"
   sodipodi:docname="quattoeuler.svg"
   inkscape:version="1.3-dev (fdc7329b, 2022-05-31)"
   xmlns:inkscape="http://www.inkscape.org/namespaces/inkscape"
   xmlns:sodipodi="http://sodipodi.sourceforge.net/DTD/sodipodi-0.dtd"
   xmlns="http://www.w3.org/2000/svg"
   xmlns:svg="http://www.w3.org/2000/svg"><defs
   id="defs11"><inkscape:perspective
     sodipodi:type="inkscape:persp3d"
     inkscape:vp_x="0 : 387.5 : 1"
     inkscape:vp_y="0 : 1000 : 0"
     inkscape:vp_z="688 : 387.5 : 1"
     inkscape:persp3d-origin="344 : 258.33333 : 1"
     id="perspective67" /></defs><sodipodi:namedview
   id="namedview11"
   pagecolor="#ffffff"
   bordercolor="#666666"
   borderopacity="1.0"
   inkscape:showpageshadow="2"
   inkscape:pageopacity="0.0"
   inkscape:pagecheckerboard="0"
   inkscape:deskcolor="#d1d1d1"
   inkscape:document-units="pt"
   showgrid="false"
   inkscape:zoom="14.16"
   inkscape:cx="32.768362"
   inkscape:cy="31.567797"
   inkscape:window-width="2880"
   inkscape:window-height="1557"
   inkscape:window-x="-8"
   inkscape:window-y="-8"
   inkscape:window-maximized="1"
   inkscape:current-layer="svg11" />

<path
   d="m 39.73536,39.047681 c -0.268584,4.330538 -2.48236,10.421326 -8.55587,10.419425 -5.029086,-0.0015 -9.848188,-4.095839 -12.998414,-8.221456 8.854251,1.812857 16.198207,0.431878 21.554284,-2.198033 z"
   style="fill:#ffffff;fill-opacity:1;stroke:none;stroke-width:0.19367"
   id="white_lower_half" /><path
   d="m 39.748537,38.950979 c -0.329541,4.668453 -2.157959,8.33596 -5.3732,9.824954 -4.791039,2.218731 -11.262492,-1.046758 -16.217817,-7.555762"
   style="fill:#ffe8fa;fill-opacity:1;stroke:#eb2d2e;stroke-width:0.773051;stroke-miterlimit:10;stroke-dasharray:none;stroke-dashoffset:0;stroke-opacity:1"
   id="path12382" /><path
   d="m 4.6788416,29.69928 c 0,6.839541 9.4759864,12.384083 21.1652074,12.384083 11.689223,0 21.165208,-5.544542 21.165208,-12.384083 0,-6.83954 -9.475985,-12.384082 -21.165205,-12.384082 -11.689224,0 -21.1652104,5.544542 -21.1652104,12.384082 z"
   style="fill:#e2fff3;fill-opacity:1;stroke:#008dd1;stroke-width:0.773051;stroke-miterlimit:10;stroke-dasharray:none;stroke-dashoffset:0;stroke-opacity:1"
   id="path2323" /><g
   id="arrow_y"
   transform="matrix(-0.06547693,0,0,0.06559532,47.107474,-1.2503447)"
   style="stroke-width:11.7958;stroke-dasharray:none"><path
     d="M 325,466.75 H 642.08"
     style="fill:none;stroke:#008dd1;stroke-width:11.7958;stroke-linecap:butt;stroke-dasharray:none;stroke-opacity:1"
     id="arrowline_y" /><path
     d="m 612.07665,467.22142 -11.80437,12.1925 41.80045,-12.67765 -42.18857,-11.31921 z"
     style="fill:#008dd1;fill-rule:evenodd;stroke:#008dd1;stroke-width:11.7958;stroke-dasharray:none;marker-start:none"
     id="arrowhead_y" /></g><path
   d="m 18.17389,41.193514 c -1.451168,-1.90606 -2.771101,-4.089446 -3.881556,-6.495981 -2.252528,-4.88161 -3.247163,-9.831637 -3.065138,-14.035345 -0.0062,0.0034 -0.01228,0.0068 -0.01841,0.01021 0.217879,-4.936348 2.062169,-8.842162 5.405935,-10.390666 0.998041,-0.4621945 2.066758,-0.6863208 3.18177,-0.6928498 0.07433,-4.39e-4 0.150353,6.198e-4 0.225076,0.00204 4.224171,0.084139 9.046612,3.2410358 12.919418,8.3879988 0.01567,0.0033 0.0314,0.0069 0.04706,0.01031"
   style="fill:#ffe8fa;fill-opacity:1;stroke:#eb2d2e;stroke-width:0.773051;stroke-miterlimit:10;stroke-dasharray:none;stroke-dashoffset:0;stroke-opacity:1"
   id="path11396" /><g
   id="g3506"
   transform="matrix(-0.06547693,0,0,0.06559532,47.107474,-1.2503447)"
   style="stroke-width:11.7958;stroke-dasharray:none"><path
     d="M 214.453,293.719 491.484,723.813"
     style="fill:none;stroke:#00aa4f;stroke-width:11.7958;stroke-linecap:butt;stroke-dasharray:none;stroke-opacity:1"
     id="arrowline_N" /><path
     d="m 475.24243,698.57848 -16.58653,-3.58981 32.83244,28.81025 -12.65609,-41.80698 z"
     style="fill:#00aa4f;fill-rule:evenodd;stroke:#00aa4f;stroke-width:11.7958;stroke-dasharray:none;marker-start:none"
     id="path3512" /></g><g
   id="arrow_x"
   transform="matrix(-0.06547693,0,0,0.06559532,47.107474,-1.2503447)"
   style="stroke-width:11.7958;stroke-dasharray:none"><path
     d="M 325.5,466 205.609,642.219"
     style="fill:none;stroke:#008dd1;stroke-width:11.7958;stroke-linecap:butt;stroke-dasharray:none;stroke-opacity:1"
     id="arrowline_x" /><path
     d="m 222.55123,617.46705 -3.13092,-16.67925 -13.8045,41.44196 33.61466,-27.89362 z"
     style="fill:#008dd1;fill-rule:evenodd;stroke:#008dd1;stroke-width:11.7958;stroke-dasharray:none;marker-start:none"
     id="arrowhead_x" /></g><g
   id="arrow_z"
   transform="matrix(-0.06547693,0,0,0.06559532,47.107474,-1.2503447)"
   style="stroke-width:11.7958;stroke-dasharray:none"><path
     d="M 325.3,465.535 V 42"
     style="fill:none;stroke:#008dd1;stroke-width:11.7958;stroke-linecap:butt;stroke-dasharray:none;stroke-opacity:1"
     id="arrowline_z" /><path
     d="M 325.3,76.387 339.6,90 325.3,42.046 311.8,90 Z"
     style="fill:#008dd1;fill-rule:evenodd;stroke:#008dd1;stroke-width:11.7958;stroke-miterlimit:10;stroke-dasharray:none"
     id="arrowhead_z" /></g><g
   id="arrow_X"
   transform="matrix(-0.06547693,0,0,0.06559532,47.107474,-1.2503447)"
   style="stroke-width:2.95517"><path
     d="m 325,464.703 193.141,34.344"
     style="fill:none;stroke:#eb2d2e;stroke-width:8.8655;stroke-linecap:butt;stroke-opacity:1"
     id="arrowline_X" /><path
     d="m 488.59136,493.80952 -13.90861,9.72371 43.44901,-4.4926 -39.26412,-19.13972 z"
     style="fill:#eb2d2e;fill-rule:evenodd;stroke:#eb2d2e;stroke-width:7.0924pt;marker-start:none"
     id="arrowhead_X" /></g><g
   id="arrow_Y"
   transform="matrix(-0.06547693,0,0,0.06559532,47.107474,-1.2503447)"
   style="stroke-width:11.7958;stroke-dasharray:none"><path
     d="M 324.938,465.828 466.19,183.24"
     style="fill:none;stroke:#eb2d2e;stroke-width:11.7958;stroke-linecap:butt;stroke-dasharray:none;stroke-opacity:1"
     id="arrowline_Y" /><path
     d="m 453.44,208.69 5.367,16.102 8.05,-42.933 -29.516,32.2 16.099,-5.367 z"
     style="fill:#eb2d2e;fill-rule:evenodd;stroke:#eb2d2e;stroke-width:11.7958;stroke-dasharray:none;marker-start:none"
     id="arrowhead_Y" /></g><g
   id="arrow_Z"
   transform="matrix(-0.06547693,0,0,0.06559532,47.107474,-1.2503447)"
   style="stroke-width:11.7958;stroke-dasharray:none"><path
     d="M 48.156,262.797 325.4,465.1"
     style="fill:none;stroke:#eb2d2e;stroke-width:11.7958;stroke-linecap:butt;stroke-dasharray:none;stroke-opacity:1"
     id="arrowline_Z" /><path
     d="M 72.389732,280.4784 89.157189,277.8607 48.15828,262.79121 75.007436,297.24586 Z"
     style="fill:#eb2d2e;fill-rule:evenodd;stroke:#eb2d2e;stroke-width:11.7958;stroke-dasharray:none;marker-start:none"
     id="arrowhead_Z" /></g><path
   d="m 28.729802,33.627802 c -1.860396,0.453264 -3.661011,0.451953 -5.412847,0.06395"
   style="fill:none;stroke:#000000;stroke-width:0.773051;stroke-linecap:butt;stroke-dasharray:none;stroke-opacity:1"
   id="arrowline_alpha" /><path
   d="m 25.39978,32.722608 -3.429427,0.515623 2.945846,1.833042 c -0.366409,-0.79864 -0.168143,-1.746495 0.483581,-2.348665 z"
   style="fill:#000000;stroke:none;stroke-width:1.95394;stroke-dasharray:none"
   id="arrowhead_alpha" /><path
   d="M 29.729897,25.898903 C 28.746695,24.754462 27.347387,23.976632 25.80678,23.883814"
   style="fill:none;stroke:#000000;stroke-width:0.773051;stroke-linecap:butt;stroke-dasharray:none;stroke-opacity:1"
   id="arrowline_beta" /><path
   d="m 27.875375,25.410183 3.038667,1.846773 -1.120499,-3.378969 c -0.234003,0.869729 -1.010647,1.486156 -1.918168,1.532196 z"
   style="fill:#000000;stroke:none;stroke-width:2.00254;stroke-dasharray:none"
   id="arrowhead_beta" /><path
   d="M 21.085895,36.659881 C 19.913137,35.149023 18.718511,32.992512 17.990144,30.913665"
   style="fill:none;stroke:#000000;stroke-width:0.773051;stroke-linecap:butt;stroke-dasharray:none;stroke-opacity:1"
   id="arrowline_gamma" /><path
   d="m 19.503173,32.007307 -2.126265,-2.429388 0.0488,3.230551 c 0.439566,-0.688604 1.279605,-1.009623 2.077474,-0.801163 z"
   style="fill:#000000;stroke:none;stroke-width:1.81713;stroke-dasharray:none"
   id="arrowhead_gamma" /></svg>
