<?xml version="1.0" encoding="UTF-8" standalone="no"?>
<svg
   viewBox="0 0 48 48"
   version="1.1"
   id="svg103"
   sodipodi:docname="sheen.svg"
   inkscape:version="1.3-dev (fdc7329b, 2022-05-31)"
   xmlns:inkscape="http://www.inkscape.org/namespaces/inkscape"
   xmlns:sodipodi="http://sodipodi.sourceforge.net/DTD/sodipodi-0.dtd"
   xmlns:xlink="http://www.w3.org/1999/xlink"
   xmlns="http://www.w3.org/2000/svg"
   xmlns:svg="http://www.w3.org/2000/svg">
  <sodipodi:namedview
     id="namedview103"
     pagecolor="#ffffff"
     bordercolor="#666666"
     borderopacity="1.0"
     inkscape:showpageshadow="2"
     inkscape:pageopacity="0.0"
     inkscape:pagecheckerboard="0"
     inkscape:deskcolor="#d1d1d1"
     showgrid="false"
     inkscape:zoom="19.666667"
     inkscape:cx="23.084746"
     inkscape:cy="24"
     inkscape:window-width="2880"
     inkscape:window-height="1557"
     inkscape:window-x="-8"
     inkscape:window-y="-8"
     inkscape:window-maximized="1"
     inkscape:current-layer="svg103" />
  <defs
     id="defs48">
    <radialGradient
       id="radial-gradient"
       cx="-361.59"
       cy="117.06"
       fx="-361.59"
       fy="117.06"
       r="13.7"
       gradientTransform="matrix(1.74,0,0,0.27,654.75,10.81)"
       gradientUnits="userSpaceOnUse">
      <stop
         offset=".07"
         stop-color="#212121"
         stop-opacity=".4"
         id="stop1" />
      <stop
         offset=".89"
         stop-color="#212121"
         stop-opacity="0"
         id="stop2" />
    </radialGradient>
    <linearGradient
       id="linear-gradient"
       x1="14.14"
       y1="43.81"
       x2="15.49"
       y2="44.7"
       gradientTransform="translate(-5.1 -15.31) rotate(7.37)"
       gradientUnits="userSpaceOnUse">
      <stop
         offset="0"
         stop-color="#e4ca00"
         id="stop3" />
      <stop
         offset=".12"
         stop-color="#e5cc00"
         id="stop4" />
      <stop
         offset="1"
         stop-color="#a17d00"
         id="stop5" />
    </linearGradient>
    <linearGradient
       id="linear-gradient-2"
       x1="14.15"
       y1="43.58"
       x2="14.47"
       y2="44.4"
       gradientTransform="translate(-5.1 -15.31) rotate(7.37)"
       gradientUnits="userSpaceOnUse">
      <stop
         offset="0"
         stop-color="#fefad7"
         id="stop6" />
      <stop
         offset="1"
         stop-color="#fce94f"
         id="stop7" />
    </linearGradient>
    <linearGradient
       id="linear-gradient-3"
       x1="15.04"
       y1="43.65"
       x2="14.89"
       y2="44.64"
       xlink:href="#linear-gradient-2" />
    <linearGradient
       id="linear-gradient-4"
       x1="13.77"
       y1="49.15"
       x2="16.06"
       y2="49.15"
       gradientTransform="rotate(3.08,275.38167,-147.92025)"
       xlink:href="#linear-gradient" />
    <linearGradient
       id="linear-gradient-5"
       x1="11.22"
       y1="51.35"
       x2="16.59"
       y2="51.05"
       gradientTransform="translate(-7.55 -15.01) rotate(3.08)"
       gradientUnits="userSpaceOnUse">
      <stop
         offset="0"
         stop-color="#e4ca00"
         id="stop8" />
      <stop
         offset=".12"
         stop-color="#e5cc00"
         id="stop9" />
      <stop
         offset="1"
         stop-color="#bc9800"
         id="stop10" />
    </linearGradient>
    <linearGradient
       id="linear-gradient-6"
       x1="10.98"
       y1="49.38"
       x2="15.1"
       y2="49.15"
       gradientTransform="rotate(3.08,275.38167,-147.92025)"
       xlink:href="#linear-gradient" />
    <linearGradient
       id="linear-gradient-7"
       x1="12.22"
       y1="44.81"
       x2="14.08"
       y2="49.89"
       gradientTransform="rotate(3.08,275.38167,-147.92025)"
       xlink:href="#linear-gradient-2" />
    <linearGradient
       id="linear-gradient-8"
       x1="7.1"
       y1="2.41"
       x2="8.45"
       y2="3.3"
       gradientTransform="rotate(18.49,9.5268837,35.089371)"
       xlink:href="#linear-gradient" />
    <linearGradient
       id="linear-gradient-9"
       x1="7.1"
       y1="2.18"
       x2="7.43"
       y2="3"
       gradientTransform="rotate(18.49,9.5268837,35.089371)"
       xlink:href="#linear-gradient-2" />
    <linearGradient
       id="linear-gradient-10"
       x1="8"
       y1="2.25"
       x2="7.84"
       y2="3.24"
       gradientTransform="rotate(18.49,9.5268837,35.089371)"
       xlink:href="#linear-gradient-2" />
    <linearGradient
       id="linear-gradient-11"
       x1="9.84"
       y1="7.34"
       x2="12.13"
       y2="7.34"
       gradientTransform="rotate(14.2,10.119651,36.080437)"
       xlink:href="#linear-gradient" />
    <linearGradient
       id="linear-gradient-12"
       x1="7.3"
       y1="9.56"
       x2="12.68"
       y2="9.26"
       gradientTransform="rotate(14.2,10.119651,36.080437)"
       xlink:href="#linear-gradient-5" />
    <linearGradient
       id="linear-gradient-13"
       x1="7.06"
       y1="7.58"
       x2="11.19"
       y2="7.35"
       gradientTransform="rotate(14.2,10.119651,36.080437)"
       xlink:href="#linear-gradient" />
    <linearGradient
       id="linear-gradient-14"
       x1="8.29"
       y1="3"
       x2="10.15"
       y2="8.08"
       gradientTransform="rotate(14.2,10.119651,36.080437)"
       xlink:href="#linear-gradient-2" />
    <linearGradient
       id="linear-gradient-15"
       x1="-49.38"
       y1="58.38"
       x2="-48.03"
       y2="59.27"
       gradientTransform="matrix(-0.3852619,-0.92280728,-0.92280728,0.3852619,66.25,-23.11)"
       xlink:href="#linear-gradient" />
    <linearGradient
       id="linear-gradient-16"
       x1="-49.37"
       y1="58.15"
       x2="-49.05"
       y2="58.96"
       gradientTransform="matrix(-0.3852619,-0.92280728,-0.92280728,0.3852619,66.25,-23.11)"
       xlink:href="#linear-gradient-2" />
    <linearGradient
       id="linear-gradient-17"
       x1="-48.48"
       y1="58.22"
       x2="-48.64"
       y2="59.2"
       gradientTransform="matrix(-0.3852619,-0.92280728,-0.92280728,0.3852619,66.25,-23.11)"
       xlink:href="#linear-gradient-2" />
    <linearGradient
       id="linear-gradient-18"
       x1="-50.67"
       y1="58.93"
       x2="-48.38"
       y2="58.93"
       gradientTransform="matrix(-0.31515216,-0.94904116,-0.94904116,0.31515216,66.61,-20.67)"
       xlink:href="#linear-gradient" />
    <linearGradient
       id="linear-gradient-19"
       x1="-53.2"
       y1="61.14"
       x2="-47.83"
       y2="60.84"
       gradientTransform="matrix(-0.31515216,-0.94904116,-0.94904116,0.31515216,66.61,-20.67)"
       xlink:href="#linear-gradient-5" />
    <linearGradient
       id="linear-gradient-20"
       x1="-53.45"
       y1="59.16"
       x2="-49.32"
       y2="58.93"
       gradientTransform="matrix(-0.31515216,-0.94904116,-0.94904116,0.31515216,66.61,-20.67)"
       xlink:href="#linear-gradient" />
    <linearGradient
       id="linear-gradient-21"
       x1="-52.22"
       y1="54.58"
       x2="-50.36"
       y2="59.66"
       gradientTransform="matrix(-0.31515216,-0.94904116,-0.94904116,0.31515216,66.61,-20.67)"
       xlink:href="#linear-gradient-2" />
    <linearGradient
       id="linear-gradient-22"
       x1="-56.2"
       y1="28.8"
       x2="-54.85"
       y2="29.69"
       gradientTransform="matrix(-0.99180549,0.12775705,0.12775705,0.99180549,-13.36,-3.65)"
       xlink:href="#linear-gradient" />
    <linearGradient
       id="linear-gradient-23"
       x1="-56.19"
       y1="28.57"
       x2="-55.87"
       y2="29.39"
       gradientTransform="matrix(-0.99180549,0.12775705,0.12775705,0.99180549,-13.36,-3.65)"
       xlink:href="#linear-gradient-2" />
    <linearGradient
       id="linear-gradient-24"
       x1="-55.29"
       y1="28.64"
       x2="-55.45"
       y2="29.63"
       gradientTransform="matrix(-0.99180549,0.12775705,0.12775705,0.99180549,-13.36,-3.65)"
       xlink:href="#linear-gradient-2" />
    <linearGradient
       id="linear-gradient-25"
       x1="-55.25"
       y1="28.92"
       x2="-52.96"
       y2="28.92"
       gradientTransform="matrix(-0.99859275,0.05303312,0.05303312,0.99859275,-10.91,-3.34)"
       xlink:href="#linear-gradient" />
    <linearGradient
       id="linear-gradient-26"
       x1="-57.81"
       y1="31.11"
       x2="-52.43"
       y2="30.81"
       gradientTransform="matrix(-0.99859275,0.05303312,0.05303312,0.99859275,-10.91,-3.34)"
       xlink:href="#linear-gradient-5" />
    <linearGradient
       id="linear-gradient-27"
       x1="-58.05"
       y1="29.14"
       x2="-53.93"
       y2="28.91"
       gradientTransform="matrix(-0.99859275,0.05303312,0.05303312,0.99859275,-10.91,-3.34)"
       xlink:href="#linear-gradient" />
    <linearGradient
       id="linear-gradient-28"
       x1="-56.8"
       y1="24.57"
       x2="-54.94"
       y2="29.66"
       gradientTransform="matrix(-0.99859275,0.05303312,0.05303312,0.99859275,-10.91,-3.34)"
       xlink:href="#linear-gradient-2" />
    <linearGradient
       id="linear-gradient-29"
       x1="26.43"
       y1="12.21"
       x2="26.43"
       y2="43.85"
       gradientTransform="rotate(28.02,34.753319,22.662415)"
       gradientUnits="userSpaceOnUse">
      <stop
         offset="0"
         stop-color="#9c0000"
         id="stop11" />
      <stop
         offset=".07"
         stop-color="#c40000"
         id="stop12" />
      <stop
         offset=".15"
         stop-color="#e72929"
         id="stop13" />
      <stop
         offset=".2"
         stop-color="#e73030"
         id="stop14" />
      <stop
         offset=".27"
         stop-color="#ea4444"
         id="stop15" />
      <stop
         offset=".33"
         stop-color="#ed5f5f"
         id="stop16" />
      <stop
         offset=".61"
         stop-color="#ed5f5f"
         id="stop17" />
      <stop
         offset=".65"
         stop-color="#ec5757"
         id="stop18" />
      <stop
         offset=".72"
         stop-color="#e94343"
         id="stop19" />
      <stop
         offset=".78"
         stop-color="#e72929"
         id="stop20" />
      <stop
         offset=".81"
         stop-color="#df2525"
         id="stop21" />
      <stop
         offset=".85"
         stop-color="#cb1a1a"
         id="stop22" />
      <stop
         offset=".9"
         stop-color="#aa0808"
         id="stop23" />
      <stop
         offset=".92"
         stop-color="#9c0000"
         id="stop24" />
    </linearGradient>
    <linearGradient
       id="linear-gradient-30"
       x1="26.57"
       y1="37.45"
       x2="26.57"
       y2="40.28"
       gradientTransform="translate(14.72 -13.67) rotate(28.02)"
       gradientUnits="userSpaceOnUse">
      <stop
         offset="0"
         stop-color="#e72929"
         id="stop25" />
      <stop
         offset=".2"
         stop-color="#df2525"
         id="stop26" />
      <stop
         offset=".5"
         stop-color="#cb1a1a"
         id="stop27" />
      <stop
         offset=".86"
         stop-color="#aa0808"
         id="stop28" />
      <stop
         offset="1"
         stop-color="#9c0000"
         id="stop29" />
    </linearGradient>
    <linearGradient
       id="linear-gradient-31"
       x1="13.1"
       y1="28.37"
       x2="25.77"
       y2="28.37"
       gradientTransform="translate(14.72 -13.67) rotate(28.02)"
       gradientUnits="userSpaceOnUse">
      <stop
         offset="0"
         stop-color="#f8b1b1"
         id="stop30" />
      <stop
         offset=".13"
         stop-color="#f7a9a9"
         id="stop31" />
      <stop
         offset=".33"
         stop-color="#f49595"
         id="stop32" />
      <stop
         offset=".57"
         stop-color="#f07474"
         id="stop33" />
      <stop
         offset=".84"
         stop-color="#ea4747"
         id="stop34" />
      <stop
         offset="1"
         stop-color="#e72929"
         id="stop35" />
    </linearGradient>
    <linearGradient
       id="linear-gradient-32"
       x1="13.9"
       y1="28.43"
       x2="20.37"
       y2="28.43"
       gradientTransform="translate(14.72 -13.67) rotate(28.02)"
       gradientUnits="userSpaceOnUse">
      <stop
         offset="0"
         stop-color="#facbcb"
         id="stop36" />
      <stop
         offset=".12"
         stop-color="#f9c3c3"
         id="stop37" />
      <stop
         offset=".3"
         stop-color="#f6afaf"
         id="stop38" />
      <stop
         offset=".51"
         stop-color="#f28e8e"
         id="stop39" />
      <stop
         offset=".75"
         stop-color="#ed6060"
         id="stop40" />
      <stop
         offset="1"
         stop-color="#e72929"
         id="stop41" />
    </linearGradient>
    <linearGradient
       id="linear-gradient-33"
       x1="14.23"
       y1="28.56"
       x2="19.85"
       y2="28.56"
       gradientTransform="translate(14.72 -13.67) rotate(28.02)"
       gradientUnits="userSpaceOnUse">
      <stop
         offset="0"
         stop-color="#fde9e9"
         id="stop42" />
      <stop
         offset=".11"
         stop-color="#fce1e1"
         id="stop43" />
      <stop
         offset=".26"
         stop-color="#f9cdcd"
         id="stop44" />
      <stop
         offset=".45"
         stop-color="#f6acac"
         id="stop45" />
      <stop
         offset=".67"
         stop-color="#f07e7e"
         id="stop46" />
      <stop
         offset=".9"
         stop-color="#ea4444"
         id="stop47" />
      <stop
         offset="1"
         stop-color="#e72929"
         id="stop48" />
    </linearGradient>
    <linearGradient
       id="linear-gradient-34"
       x1="-52.12"
       y1="28.37"
       x2="-39.46"
       y2="28.37"
       gradientTransform="matrix(-0.88278366,-0.46977974,-0.46977974,0.88278366,3.8,-19.48)"
       xlink:href="#linear-gradient-31" />
    <linearGradient
       id="linear-gradient-35"
       x1="-51.32"
       y1="28.44"
       x2="-44.86"
       y2="28.44"
       gradientTransform="matrix(-0.88278366,-0.46977974,-0.46977974,0.88278366,3.8,-19.48)"
       xlink:href="#linear-gradient-32" />
    <linearGradient
       id="linear-gradient-36"
       x1="-50.99"
       y1="28.56"
       x2="-45.38"
       y2="28.56"
       gradientTransform="matrix(-0.88278366,-0.46977974,-0.46977974,0.88278366,3.8,-19.48)"
       xlink:href="#linear-gradient-33" />
    <linearGradient
       id="linear-gradient-37"
       x1="27.23"
       y1="20.24"
       x2="27.23"
       y2="16.52"
       xlink:href="#linear-gradient-30" />
    <linearGradient
       inkscape:collect="always"
       xlink:href="#linear-gradient"
       id="linearGradient103"
       gradientUnits="userSpaceOnUse"
       gradientTransform="rotate(7.37,116.30869,-47.248685)"
       x1="14.14"
       y1="43.81"
       x2="15.49"
       y2="44.7" />
    <linearGradient
       inkscape:collect="always"
       xlink:href="#linear-gradient-2"
       id="linearGradient104"
       gradientUnits="userSpaceOnUse"
       gradientTransform="rotate(7.37,116.30869,-47.248685)"
       x1="14.15"
       y1="43.58"
       x2="14.47"
       y2="44.4" />
    <linearGradient
       inkscape:collect="always"
       xlink:href="#linear-gradient-5"
       id="linearGradient105"
       gradientUnits="userSpaceOnUse"
       gradientTransform="rotate(3.08,275.38167,-147.92025)"
       x1="11.22"
       y1="51.35"
       x2="16.59"
       y2="51.05" />
    <linearGradient
       inkscape:collect="always"
       xlink:href="#linear-gradient-30"
       id="linearGradient106"
       gradientUnits="userSpaceOnUse"
       gradientTransform="rotate(28.02,34.753319,22.662415)"
       x1="26.57"
       y1="37.45"
       x2="26.57"
       y2="40.28" />
    <linearGradient
       inkscape:collect="always"
       xlink:href="#linear-gradient-31"
       id="linearGradient107"
       gradientUnits="userSpaceOnUse"
       gradientTransform="rotate(28.02,34.753319,22.662415)"
       x1="13.1"
       y1="28.37"
       x2="25.77"
       y2="28.37" />
    <linearGradient
       inkscape:collect="always"
       xlink:href="#linear-gradient-32"
       id="linearGradient108"
       gradientUnits="userSpaceOnUse"
       gradientTransform="rotate(28.02,34.753319,22.662415)"
       x1="13.9"
       y1="28.43"
       x2="20.37"
       y2="28.43" />
    <linearGradient
       inkscape:collect="always"
       xlink:href="#linear-gradient-33"
       id="linearGradient109"
       gradientUnits="userSpaceOnUse"
       gradientTransform="rotate(28.02,34.753319,22.662415)"
       x1="14.23"
       y1="28.56"
       x2="19.85"
       y2="28.56" />
  </defs>
  <g
     id="shadow"
     transform="matrix(1.0476141,0,0,1.1999619,-1.0664679,-6.989812)"
     style="stroke-width:0.891899">
    <ellipse
       cx="24"
       cy="42.330002"
       rx="22.959999"
       ry="3.5599999"
       style="fill:url(#radial-gradient);stroke-width:0.891899"
       id="ellipse48" />
  </g>
  <g
     id="g56"
     style="stroke-width:0.974317"
     transform="matrix(1.0263605,0,0,1.0263605,-1.2391674,-1.2555509)">
    <g
       id="g51"
       style="stroke-width:0.974317">
      <path
         d="M 4.32,31.33 3.47,31.16 C 3.51,30.7 3.15,30.43 3.18,29.95 c 0.03,-0.48 0.47,-0.62 0.88,-0.39 0.41,0.23 0.46,0.63 0.39,0.91 -0.07,0.28 -0.22,0.6 -0.16,0.84"
         style="fill:url(#linearGradient103);stroke-width:0.974317"
         id="path48" />
      <path
         d="M 3.83,31.07 C 3.85,30.84 3.89,30.46 4,30.27 4.11,30.08 4.07,29.91 3.85,29.85 c -0.22,-0.06 -0.24,0.2 -0.21,0.44 0.03,0.24 0.19,0.79 0.19,0.79 z"
         style="fill:#877100;stroke-width:0.974317"
         id="path49" />
      <path
         d="m 3.29,29.8 c 0.09,-0.14 0.23,0.03 0.26,0.18 0.03,0.15 0.06,0.55 -0.07,0.4 C 3.35,30.23 3.16,30 3.28,29.8 Z"
         style="fill:url(#linearGradient104);stroke-width:0.974317"
         id="path50" />
      <path
         d="m 4.23,29.89 c -0.14,-0.1 -0.2,-0.01 -0.28,0.27 -0.08,0.28 -0.1,0.55 0.03,0.61 0.13,0.06 0.28,-0.36 0.35,-0.59 0.07,-0.2 -0.1,-0.29 -0.1,-0.29 z"
         style="fill:url(#linear-gradient-3);stroke-width:0.974317"
         id="path51" />
    </g>
    <g
       id="g55"
       style="stroke-width:0.974317">
      <path
         d="m 3.54,31.01 c 0.13,-0.09 0.35,-0.15 0.52,-0.13 0.18,0.02 0.26,0.09 0.28,0.2 -0.08,0.07 0.16,2.62 0.42,3.64 0.06,1 1.02,3.09 1.6,3.7 0,0 -0.19,0.37 -0.95,0.42 -0.76,0.05 -1.87,-0.09 -2.55,-0.36 0,0 -0.23,-1.17 -0.36,-2.25 -0.18,-1.07 -0.27,-2.68 0.17,-3.69 0.42,-1.02 0.88,-1.52 0.87,-1.53 z"
         style="fill:url(#linear-gradient-4);stroke-width:0.974317"
         id="path52" />
      <path
         d="m 4.48,38.42 c 0.05,0.15 0.11,0.29 0.18,0.41 C 4.5,38.82 4.34,38.81 4.18,38.79 3.84,37.66 3.53,34.93 3.61,34.93 c -0.09,0 0.45,2.67 0.87,3.49 z"
         style="fill:url(#linearGradient105);stroke-width:0.974317"
         id="path53" />
      <path
         d="m 6.36,38.42 c 0,0 -0.19,0.37 -0.96,0.41 -0.15,0.01 -0.31,0.01 -0.47,0 -0.1,-0.26 -0.2,-0.58 -0.26,-0.91 -0.34,-0.81 -0.94,-4.01 -0.8,-4 0,0 0.19,1.08 0.49,1.99 0.22,0.9 0.88,2.52 1.05,2.65 C 5.53,38.68 5.44,38.35 5.39,37.99 5.25,37.67 4.29,35.24 4.28,34.57 4.09,34.01 4.02,31.64 4.26,30.93 c 0.05,0.04 0.08,0.08 0.09,0.14 -0.08,0.08 0.17,2.62 0.42,3.65 0.06,1 1.01,3.09 1.61,3.7 z"
         style="fill:url(#linear-gradient-6);stroke-width:0.974317"
         id="path54" />
      <path
         d="m 4.33,31.55 c -0.12,-0.08 -0.31,-0.19 -0.4,-0.12 -0.16,0.1 -0.4,0.98 -0.48,1.72 -0.09,0.74 -0.49,2.01 -0.36,3.41 0.08,0.8 0.37,1.62 0.65,2.16 -0.33,-0.06 -0.64,-0.15 -0.89,-0.25 0,0 -0.22,-1.16 -0.36,-2.25 C 2.3,35.15 2.22,33.54 2.66,32.53 3.08,31.51 3.54,31 3.53,31 c 0.13,-0.09 0.36,-0.15 0.52,-0.13 0.18,0.01 0.26,0.09 0.28,0.2 0,0.03 0,0.2 0,0.47 z"
         style="fill:url(#linear-gradient-7);stroke-width:0.974317"
         id="path55" />
    </g>
  </g>
  <g
     id="g64"
     style="stroke-width:0.974317"
     transform="matrix(1.0263605,0,0,1.0263605,-2.0018793,-1.3063984)">
    <g
       id="g59"
       style="stroke-width:0.974317">
      <path
         d="M 18.31,4.88 17.51,4.55 C 17.64,4.11 17.34,3.77 17.46,3.31 17.58,2.85 18.04,2.79 18.4,3.1 c 0.36,0.31 0.33,0.71 0.21,0.97 -0.12,0.26 -0.33,0.55 -0.32,0.8"
         style="fill:url(#linear-gradient-8);stroke-width:0.974317"
         id="path56" />
      <path
         d="M 17.88,4.53 C 17.94,4.3 18.06,3.94 18.2,3.77 18.34,3.6 18.34,3.44 18.13,3.33 17.92,3.22 17.85,3.48 17.84,3.72 c -0.01,0.24 0.04,0.81 0.04,0.81 z"
         style="fill:#877100;stroke-width:0.974317"
         id="path57" />
      <path
         d="m 17.6,3.18 c 0.11,-0.12 0.21,0.08 0.22,0.23 0.01,0.15 -0.04,0.56 -0.14,0.38 C 17.58,3.61 17.44,3.35 17.6,3.18 Z"
         style="fill:url(#linear-gradient-9);stroke-width:0.974317"
         id="path58" />
      <path
         d="M 18.5,3.45 C 18.38,3.32 18.31,3.4 18.17,3.66 18.03,3.92 17.97,4.18 18.09,4.26 18.21,4.34 18.43,3.96 18.55,3.75 18.65,3.57 18.5,3.44 18.5,3.44 Z"
         style="fill:url(#linear-gradient-10);stroke-width:0.974317"
         id="path59" />
    </g>
    <g
       id="g63"
       style="stroke-width:0.974317">
      <path
         d="m 17.61,4.41 c 0.15,-0.07 0.37,-0.08 0.53,-0.03 0.18,0.05 0.24,0.14 0.23,0.25 -0.09,0.06 -0.34,2.6 -0.29,3.66 -0.14,0.99 0.4,3.23 0.86,3.94 0,0 -0.25,0.33 -1.01,0.23 -0.76,-0.1 -1.81,-0.45 -2.43,-0.85 0,0 0,-1.2 0.08,-2.28 0.03,-1.09 0.25,-2.68 0.88,-3.59 0.6,-0.92 1.16,-1.33 1.15,-1.33 z"
         style="fill:url(#linear-gradient-11);stroke-width:0.974317"
         id="path60" />
      <path
         d="m 17.1,11.87 c 0.02,0.16 0.05,0.3 0.09,0.44 -0.15,-0.04 -0.31,-0.09 -0.47,-0.14 -0.11,-1.17 0.11,-3.92 0.19,-3.9 -0.09,-0.02 -0.08,2.71 0.18,3.6 z"
         style="fill:url(#linear-gradient-12);stroke-width:0.974317"
         id="path61" />
      <path
         d="m 18.94,12.23 c 0,0 -0.26,0.33 -1.02,0.22 -0.15,-0.02 -0.3,-0.05 -0.47,-0.09 -0.05,-0.27 -0.08,-0.61 -0.08,-0.95 -0.18,-0.86 -0.15,-4.11 -0.02,-4.08 0,0 -0.02,1.1 0.09,2.05 0.04,0.93 0.37,2.64 0.52,2.8 0.1,0.14 0.07,-0.21 0.08,-0.56 -0.07,-0.34 -0.55,-2.91 -0.43,-3.57 -0.07,-0.59 0.31,-2.93 0.69,-3.58 0.04,0.05 0.07,0.09 0.06,0.15 -0.09,0.06 -0.34,2.61 -0.29,3.66 -0.14,0.99 0.4,3.23 0.86,3.94 z"
         style="fill:url(#linear-gradient-13);stroke-width:0.974317"
         id="path62" />
      <path
         d="M 18.29,5.1 C 18.19,4.99 18.02,4.85 17.92,4.9 17.74,4.97 17.34,5.78 17.11,6.5 16.88,7.21 16.24,8.37 16.1,9.78 c -0.08,0.8 0.05,1.66 0.22,2.24 -0.31,-0.13 -0.6,-0.27 -0.83,-0.41 0,0 0,-1.19 0.08,-2.28 0.02,-1.08 0.26,-2.68 0.88,-3.59 0.6,-0.92 1.16,-1.33 1.15,-1.33 0.15,-0.07 0.38,-0.08 0.53,-0.03 0.18,0.05 0.23,0.14 0.24,0.25 0,0.03 -0.04,0.2 -0.09,0.47 z"
         style="fill:url(#linear-gradient-14);stroke-width:0.974317"
         id="path63" />
    </g>
  </g>
  <g
     id="g72"
     style="stroke-width:0.974317"
     transform="matrix(1.0263605,0,0,1.0263605,-1.2391674,-1.2555509)">
    <g
       id="g67"
       style="stroke-width:0.974317">
      <path
         d="m 29.81,44.33 0.38,0.78 c 0.43,-0.16 0.79,0.12 1.24,-0.04 0.45,-0.16 0.48,-0.61 0.14,-0.95 -0.34,-0.34 -0.73,-0.28 -0.98,-0.14 -0.25,0.14 -0.52,0.37 -0.77,0.38"
         style="fill:url(#linear-gradient-15);stroke-width:0.974317"
         id="path64" />
      <path
         d="m 30.19,44.74 c 0.22,-0.08 0.57,-0.22 0.73,-0.37 0.16,-0.15 0.32,-0.16 0.45,0.03 0.13,0.19 -0.13,0.29 -0.37,0.32 -0.24,0.03 -0.81,0.02 -0.81,0.02 z"
         style="fill:#877100;stroke-width:0.974317"
         id="path65" />
      <path
         d="m 31.55,44.92 c 0.11,-0.12 -0.09,-0.21 -0.24,-0.21 -0.15,0 -0.55,0.08 -0.37,0.17 0.18,0.09 0.45,0.21 0.61,0.03 z"
         style="fill:url(#linear-gradient-16);stroke-width:0.974317"
         id="path66" />
      <path
         d="m 31.22,44.04 c 0.14,0.11 0.06,0.19 -0.19,0.34 -0.25,0.15 -0.5,0.24 -0.6,0.13 -0.1,-0.11 0.28,-0.37 0.47,-0.5 0.17,-0.12 0.31,0.02 0.31,0.02 z"
         style="fill:url(#linear-gradient-17);stroke-width:0.974317"
         id="path67" />
    </g>
    <g
       id="g71"
       style="stroke-width:0.974317">
      <path
         d="m 30.32,45 c 0.06,-0.15 0.05,-0.38 0,-0.54 -0.06,-0.17 -0.16,-0.22 -0.27,-0.21 -0.05,0.09 -2.57,0.53 -3.63,0.56 -0.98,0.21 -3.25,-0.17 -3.99,-0.57 0,0 -0.31,0.28 -0.15,1.02 0.16,0.75 0.58,1.78 1.02,2.37 0,0 1.19,-0.09 2.27,-0.24 1.08,-0.11 2.65,-0.45 3.52,-1.14 C 29.96,45.58 30.33,45 30.33,45 Z"
         style="fill:url(#linear-gradient-18);stroke-width:0.974317"
         id="path68" />
      <path
         d="m 22.93,46.05 c -0.16,-0.01 -0.31,-0.03 -0.44,-0.06 0.05,0.15 0.11,0.31 0.17,0.46 1.18,0.03 3.9,-0.39 3.87,-0.47 0.02,0.09 -2.69,0.27 -3.6,0.08 z"
         style="fill:url(#linear-gradient-19);stroke-width:0.974317"
         id="path69" />
      <path
         d="m 22.43,44.23 c 0,0 -0.31,0.28 -0.15,1.03 0.03,0.14 0.07,0.3 0.13,0.46 0.28,0.03 0.61,0.04 0.95,0.01 0.87,0.11 4.11,-0.15 4.07,-0.28 0,0 -1.09,0.1 -2.05,0.06 -0.93,0.03 -2.66,-0.18 -2.83,-0.31 -0.15,-0.09 0.2,-0.08 0.55,-0.13 0.35,0.05 2.94,0.34 3.59,0.17 0.59,0.03 2.9,-0.52 3.52,-0.94 -0.05,-0.03 -0.1,-0.06 -0.16,-0.05 -0.06,0.1 -2.58,0.53 -3.63,0.55 -0.98,0.21 -3.25,-0.16 -4,-0.57 z"
         style="fill:url(#linear-gradient-20);stroke-width:0.974317"
         id="path70" />
      <path
         d="m 29.59,44.37 c 0.11,0.09 0.27,0.25 0.23,0.35 -0.05,0.18 -0.84,0.64 -1.54,0.92 -0.69,0.28 -1.81,1 -3.2,1.24 -0.79,0.13 -1.66,0.07 -2.25,-0.06 0.15,0.3 0.31,0.58 0.47,0.8 0,0 1.18,-0.09 2.26,-0.25 1.08,-0.1 2.65,-0.45 3.51,-1.14 0.87,-0.67 1.24,-1.25 1.24,-1.24 0.05,-0.15 0.05,-0.39 -0.01,-0.53 -0.06,-0.17 -0.16,-0.22 -0.26,-0.22 -0.03,0 -0.19,0.05 -0.46,0.12 z"
         style="fill:url(#linear-gradient-21);stroke-width:0.974317"
         id="path71" />
    </g>
  </g>
  <g
     id="g80"
     style="stroke-width:0.974317"
     transform="matrix(1.0263605,0,0,1.0263605,-1.2391674,-1.2555509)">
    <g
       id="g75"
       style="stroke-width:0.974317">
      <path
         d="m 45.04,19.12 0.85,-0.17 c -0.04,-0.46 0.32,-0.73 0.29,-1.21 -0.03,-0.48 -0.46,-0.62 -0.88,-0.39 -0.42,0.23 -0.46,0.63 -0.39,0.91 0.07,0.28 0.22,0.6 0.16,0.84"
         style="fill:url(#linear-gradient-22);stroke-width:0.974317"
         id="path72" />
      <path
         d="m 45.53,18.86 c -0.02,-0.23 -0.06,-0.61 -0.16,-0.8 -0.1,-0.19 -0.07,-0.36 0.15,-0.42 0.22,-0.06 0.24,0.2 0.21,0.44 -0.03,0.24 -0.19,0.79 -0.19,0.79 z"
         style="fill:#877100;stroke-width:0.974317"
         id="path73" />
      <path
         d="m 46.06,17.59 c -0.09,-0.14 -0.23,0.03 -0.26,0.18 -0.03,0.15 -0.07,0.55 0.07,0.4 0.14,-0.15 0.32,-0.38 0.2,-0.58 z"
         style="fill:url(#linear-gradient-23);stroke-width:0.974317"
         id="path74" />
      <path
         d="m 45.13,17.68 c 0.14,-0.1 0.2,-0.01 0.28,0.27 0.08,0.28 0.1,0.55 -0.03,0.61 -0.13,0.06 -0.28,-0.36 -0.35,-0.59 -0.07,-0.2 0.11,-0.29 0.11,-0.29 z"
         style="fill:url(#linear-gradient-24);stroke-width:0.974317"
         id="path75" />
    </g>
    <g
       id="g79"
       style="stroke-width:0.974317">
      <path
         d="m 45.82,18.8 c -0.13,-0.09 -0.35,-0.15 -0.52,-0.13 -0.18,0.02 -0.26,0.09 -0.28,0.2 0.08,0.07 -0.17,2.62 -0.42,3.64 -0.06,1 -1.02,3.09 -1.6,3.7 0,0 0.19,0.37 0.95,0.42 0.76,0.05 1.87,-0.09 2.55,-0.36 0,0 0.23,-1.17 0.36,-2.25 0.18,-1.07 0.27,-2.68 -0.17,-3.69 -0.41,-1.02 -0.88,-1.52 -0.87,-1.53 z"
         style="fill:url(#linear-gradient-25);stroke-width:0.974317"
         id="path76" />
      <path
         d="m 44.88,26.21 c -0.05,0.15 -0.11,0.29 -0.18,0.41 0.16,-0.01 0.32,-0.02 0.48,-0.04 0.34,-1.13 0.65,-3.86 0.57,-3.86 0.09,0 -0.45,2.67 -0.87,3.49 z"
         style="fill:url(#linear-gradient-26);stroke-width:0.974317"
         id="path77" />
      <path
         d="m 42.99,26.21 c 0,0 0.19,0.37 0.96,0.41 0.15,0.01 0.31,0.01 0.47,0 0.1,-0.26 0.2,-0.58 0.26,-0.91 0.34,-0.81 0.94,-4.01 0.8,-4 0,0 -0.19,1.08 -0.49,1.99 -0.22,0.9 -0.88,2.52 -1.05,2.65 -0.12,0.12 -0.03,-0.21 0.03,-0.57 0.14,-0.32 1.1,-2.75 1.12,-3.42 0.19,-0.56 0.26,-2.93 0.02,-3.64 -0.05,0.04 -0.08,0.08 -0.09,0.14 0.08,0.08 -0.17,2.62 -0.42,3.65 -0.06,1 -1.02,3.09 -1.61,3.7 z"
         style="fill:url(#linear-gradient-27);stroke-width:0.974317"
         id="path78" />
      <path
         d="m 45.02,19.34 c 0.12,-0.08 0.31,-0.19 0.4,-0.12 0.16,0.1 0.4,0.98 0.48,1.72 0.09,0.74 0.49,2.01 0.35,3.41 -0.08,0.8 -0.37,1.62 -0.65,2.16 0.33,-0.06 0.64,-0.15 0.89,-0.25 0,0 0.22,-1.16 0.36,-2.25 0.19,-1.07 0.27,-2.68 -0.17,-3.69 -0.42,-1.02 -0.88,-1.53 -0.87,-1.53 -0.13,-0.09 -0.36,-0.15 -0.52,-0.13 -0.18,0.01 -0.26,0.09 -0.28,0.2 0,0.03 0,0.2 0,0.47 z"
         style="fill:url(#linear-gradient-28);stroke-width:0.974317"
         id="path79" />
    </g>
  </g>
  <path
     d="m 4.4571334,28.950239 c 0,0 -0.8210884,0.02053 -1.7448129,0.533707"
     style="fill:none;stroke:#e5cc00;stroke-width:0.5px;stroke-linecap:round;stroke-linejoin:round"
     id="path80" />
  <path
     d="m 30.321418,42.713733 c 0,0 0.441335,0.687661 0.533707,1.744813"
     style="fill:none;stroke:#e5cc00;stroke-width:0.5px;stroke-linecap:round;stroke-linejoin:round"
     id="path81" />
  <path
     d="m 17.12948,3.67145 c 0,0 -0.441335,-0.6876615 -0.533707,-1.7448128"
     style="fill:none;stroke:#e5cc00;stroke-width:0.3px;stroke-linecap:round;stroke-linejoin:round"
     id="path82" />
  <path
     d="m 43.746213,17.475528 c 0,0 0.821089,-0.02053 1.744813,-0.533707"
     style="fill:none;stroke:#e5cc00;stroke-width:0.5px;stroke-linecap:round;stroke-linejoin:round"
     id="path83" />
  <g
     id="g96"
     style="stroke-width:0.974317"
     transform="matrix(1.0263605,0,0,1.0263605,-1.2391674,-1.2555509)">
    <path
       d="m 32.06,40.07 c -0.22,0.92 -0.5,2.01 -0.9,2.35 -0.42,0.34 -0.52,0.24 -1.99,-0.94 C 27.69,40.29 22.42,36.85 18.8,34.93 15.18,33.01 9.37,30.55 7.57,29.99 7.08,29.85 6.7,29.73 6.44,29.63 5.69,29.37 5.64,29.24 5.68,28.87 5.71,28.52 6.04,28.05 6.44,27.56 6.66,27.3 6.89,27.04 7.11,26.8 c 0.63,-0.68 1.22,-1.22 2.54,-3.21 1.33,-1.96 2.98,-4.85 3.56,-5.96 0.58,-1.11 2.11,-4.18 3.01,-6.39 0.9,-2.19 1.02,-2.99 1.24,-3.9 0.1,-0.46 0.25,-0.97 0.39,-1.39 0.14,-0.44 0.32,-0.78 0.52,-0.96 0.4,-0.34 0.49,-0.22 1.79,1.33 0.38,0.44 1.07,1.13 1.97,1.9 l 0.05,0.03 c 2.12,1.85 5.31,4.22 7.84,5.57 3.62,1.92 9.73,3.78 11.73,3.99 1.99,0.2 2.15,0.21 2.1,0.74 -0.06,0.53 -0.81,1.37 -1.44,2.06 -0.64,0.7 -1.23,1.24 -2.54,3.21 -1.32,1.99 -3.02,4.97 -3.61,6.07 -0.59,1.1 -2.06,4.08 -2.96,6.28 -0.91,2.21 -1.03,3 -1.24,3.9 z"
       style="fill:url(#linear-gradient-29);stroke-width:0.974317"
       id="path84" />
    <path
       d="m 7.62,30.16 c 2.11,-0.7 5.47,-1.27 12.27,2.51 6.81,3.78 9.47,8.74 9.47,8.74 0,0 -6.35,-4.4 -11.61,-7.19 C 12.49,31.43 7.58,30.31 7.58,30.31"
       style="opacity:0.8;fill:url(#linearGradient106);stroke-width:0.974317"
       id="path85" />
    <path
       d="m 14.74,23.14 c -1.88,3.53 -3.95,4.48 -5.96,5.5 -1.94,0.98 -2.22,0.87 -2.24,0.86 L 6.51,29.64 C 5.71,29.37 5.64,29.26 5.68,28.86 5.7,28.67 5.8,28.46 5.95,28.23 c 0.11,0.26 0.51,0.11 0.69,-0.47 0.22,-0.72 1.55,-0.31 3.12,-2.15 1.55,-1.82 3.04,-3.96 4.89,-7.74 1.86,-3.79 3.61,-8.06 3.67,-9.35 0.04,-1.29 -0.51,-1.53 -0.25,-2.74 0,0 0,-0.19 0.06,-0.47 0.07,-0.14 0.17,-0.25 0.25,-0.32 0.23,-0.2 0.35,-0.23 0.65,0.03 -0.16,0.07 -0.28,0.29 -0.21,0.61 0.11,0.51 0.72,0.9 1.12,2.63 0.42,1.74 0.38,4.19 -0.58,5.83 -0.97,1.64 -2.76,5.55 -4.63,9.06 z"
       style="fill:none;stroke-width:0.974317"
       id="path86" />
    <path
       d="m 14.98,26.73 c -1.54,1.54 -3.6,2.31 -5.43,2.74 -0.8,0.19 -1.62,0.33 -2.41,0.33 -0.86,0 -1.74,-0.05 -1.09,-1.33 0.19,-0.37 0.4,-0.75 0.7,-1 0.14,-0.11 0.3,-0.2 0.45,-0.28 0.64,-0.33 1.25,-0.58 1.79,-1.12 0.54,-0.54 1.09,-1.07 1.6,-1.67 1.92,-2.25 2.77,-4.03 4.87,-8.19 2.08,-4.18 3,-7.35 2.81,-8.69 -0.08,-0.52 -0.13,-1 -0.1,-1.41 0.14,-0.44 0.32,-0.78 0.52,-0.96 0.4,-0.34 0.49,-0.22 1.79,1.33 0.38,0.44 1.07,1.13 1.97,1.9 -1.71,-0.91 -0.11,1.87 -0.4,4.09 -0.31,2.6 -4.29,11.47 -7.08,14.25 z"
       style="opacity:0.3;fill:url(#linearGradient107);stroke-width:0.974317"
       id="path87" />
    <path
       d="m 18.31,6.2 c 0.02,-0.32 0.08,-0.61 0.24,-0.89 0.02,-0.04 0.09,-0.16 0.14,-0.17 0.08,-0.03 0.17,0.08 0.22,0.12 0.1,0.07 0.2,0.13 0.29,0.22 0.18,0.19 0.3,0.42 0.46,0.62 0.13,0.16 0.29,0.29 0.43,0.44 0.15,0.16 0.31,0.33 0.46,0.49 C 20.41,7 20.29,7.09 20.27,7.22 20.26,7.3 20.25,7.38 20.25,7.46 c 0,0.22 0.01,0.45 0.03,0.67 0.04,0.41 0.09,0.82 0.15,1.22 0.07,0.54 0.1,1.11 0.07,1.68 -0.04,1.06 -0.25,2.22 -0.82,3.21 -0.97,1.64 -2.76,5.55 -4.63,9.06 -1.88,3.53 -3.95,4.48 -5.96,5.5 -1.94,0.98 -2.22,0.87 -2.24,0.86 L 6.82,29.8 C 6.3,29.63 5.72,29.38 5.95,28.54 c 0.23,-0.84 1.28,-0.98 1.86,-1.2 0.85,-0.33 1.6,-0.79 2.26,-1.57 1.55,-1.82 3.04,-3.96 4.89,-7.74 1.86,-3.79 3.61,-8.06 3.67,-9.35 C 18.65,8.29 18.55,7.9 18.47,7.52 18.43,7.33 18.38,7.15 18.36,6.96 18.33,6.76 18.31,6.57 18.31,6.37"
       style="opacity:0.5;fill:url(#linearGradient108);stroke-width:0.974317"
       id="path88" />
    <path
       d="m 14.78,23.24 c -0.68,1.06 -1.4,2.01 -2.25,2.92 -0.85,0.91 -1.64,1.37 -2.62,1.94 -0.85,0.49 -1.73,0.87 -2.61,1.18 -0.4,0.14 -1.56,0.15 -0.71,-0.53 0.56,-0.44 1.12,-0.89 1.72,-1.22 0.35,-0.2 0.72,-0.35 1.05,-0.6 0.31,-0.23 0.58,-0.53 0.85,-0.83 2,-2.32 3.56,-5.06 5.08,-7.77 0.44,-0.78 1.95,-3.84 2.23,-4.61 0.22,-0.6 0.41,-1.21 0.6,-1.81 0.25,-0.78 0.37,-1.54 0.57,-2.31 C 18.89,8.83 19,8.37 18.78,7.64 18.6,7.07 18.41,6.41 18.7,5.79 c 0.17,0.04 0.29,0.2 0.39,0.36 0.7,1.12 0.72,2.54 1,3.89 0.22,1.1 0.2,2.35 -0.27,3.51 -0.26,0.65 -0.65,1.24 -0.99,1.86 -0.51,0.93 -0.92,1.9 -1.36,2.86 -0.79,1.71 -1.66,3.4 -2.68,4.98 z"
       style="opacity:0.4;fill:url(#linearGradient109);stroke-width:0.974317"
       id="path89" />
    <path
       d="m 30.84,31.7 c -1.88,3.53 -1.51,5.77 -1.23,8.01 0.27,2.16 0.51,2.33 0.54,2.34 l -0.1,0.1 c 0.67,0.52 0.8,0.51 1.11,0.25 0.14,-0.12 0.26,-0.32 0.37,-0.58 -0.28,0.05 -0.38,-0.36 0,-0.84 0.47,-0.59 -0.61,-1.46 0.04,-3.78 0.64,-2.31 1.59,-4.74 3.69,-8.38 2.11,-3.66 4.67,-7.5 5.71,-8.26 1.05,-0.76 1.55,-0.43 2.41,-1.33 0,0 0.16,-0.12 0.35,-0.31 0.07,-0.14 0.12,-0.28 0.13,-0.39 0.03,-0.3 0,-0.42 -0.38,-0.52 0.03,0.18 -0.08,0.39 -0.38,0.51 -0.49,0.2 -1.15,-0.09 -2.81,0.54 -1.67,0.62 -3.68,2.03 -4.51,3.74 -0.82,1.72 -3.06,5.39 -4.93,8.9 z"
       style="fill:none;stroke-width:0.974317"
       id="path90" />
    <path
       d="m 27.72,33.51 c -0.42,2.14 0.09,4.27 0.76,6.04 0.29,0.77 0.63,1.53 1.07,2.18 0.48,0.71 1.02,1.41 1.71,0.16 0.2,-0.36 0.4,-0.75 0.43,-1.14 0.02,-0.18 0,-0.36 -0.02,-0.53 -0.08,-0.72 -0.22,-1.36 -0.07,-2.11 0.15,-0.75 0.28,-1.5 0.49,-2.26 0.79,-2.85 1.79,-4.55 4.08,-8.61 2.3,-4.06 4.42,-6.6 5.64,-7.19 0.48,-0.22 0.9,-0.46 1.23,-0.7 0.29,-0.36 0.47,-0.71 0.5,-0.97 0.06,-0.53 -0.1,-0.53 -2.1,-0.74 -0.58,-0.07 -1.53,-0.26 -2.68,-0.57 1.71,0.91 -1.49,1.14 -3.18,2.62 -1.99,1.71 -7.12,9.97 -7.87,13.83 z"
       style="opacity:0.3;fill:url(#linear-gradient-34);stroke-width:0.974317"
       id="path91" />
    <path
       d="m 30.52,31.54 c -1.88,3.53 -1.51,5.77 -1.23,8.01 0.27,2.16 0.51,2.33 0.54,2.34 l -0.1,0.1 c 0.43,0.33 0.96,0.67 1.53,0.02 0.57,-0.65 0.09,-1.61 -0.04,-2.22 -0.2,-0.89 -0.24,-1.76 0.04,-2.75 0.64,-2.31 1.59,-4.74 3.69,-8.38 2.11,-3.66 4.67,-7.5 5.71,-8.26 0.71,-0.51 1.55,-0.54 2.22,-1.14 0.21,-0.19 0.63,-0.59 0.52,-0.9 -0.11,-0.31 -0.91,-0.23 -1.17,-0.26 -0.12,-0.01 -0.28,-0.07 -0.4,-0.04 -0.11,0.03 -0.14,0.19 -0.3,0.18 -0.18,-0.02 -0.35,-0.09 -0.5,-0.2 0.24,0.21 -1.73,1.15 -1.93,1.25 -0.49,0.24 -0.97,0.54 -1.43,0.88 -0.86,0.63 -1.7,1.45 -2.2,2.47 -0.82,1.72 -3.06,5.39 -4.93,8.9 z"
       style="opacity:0.5;fill:url(#linear-gradient-35);stroke-width:0.974317"
       id="path92" />
    <path
       d="m 30.73,31.73 c -0.5,1.16 -0.88,2.29 -1.16,3.5 -0.28,1.21 -0.22,2.12 -0.14,3.26 0.06,0.98 0.25,1.92 0.48,2.82 0.11,0.41 0.75,1.38 0.83,0.3 0.06,-0.71 0.11,-1.42 0.05,-2.11 -0.03,-0.4 -0.11,-0.79 -0.09,-1.21 0.02,-0.39 0.11,-0.78 0.22,-1.17 0.81,-2.96 2.21,-5.78 3.61,-8.56 0.4,-0.8 2.1,-3.77 2.58,-4.42 0.38,-0.52 0.77,-1.01 1.17,-1.51 0.51,-0.64 1.07,-1.17 1.6,-1.76 0.53,-0.59 0.84,-0.94 1.57,-1.17 0.57,-0.17 1.23,-0.38 1.58,-0.96 -0.13,-0.12 -0.33,-0.13 -0.51,-0.12 -1.32,0.04 -2.51,0.82 -3.79,1.35 -1.04,0.43 -2.06,1.15 -2.76,2.18 -0.39,0.58 -0.67,1.23 -0.99,1.86 -0.48,0.94 -1.06,1.82 -1.61,2.73 -0.97,1.61 -1.89,3.27 -2.64,5 z"
       style="opacity:0.4;fill:url(#linear-gradient-36);stroke-width:0.974317"
       id="path93" />
    <path
       d="m 30.84,31.7 c -1.88,3.53 -1.51,5.77 -1.23,8.01 0.27,2.16 0.51,2.33 0.54,2.34 l -0.1,0.1 c 0.67,0.52 0.8,0.51 1.11,0.25 0.14,-0.12 0.26,-0.32 0.37,-0.58 -0.28,0.05 -0.38,-0.36 0,-0.84 0.47,-0.59 -0.61,-1.46 0.04,-3.78 0.64,-2.31 1.59,-4.74 3.69,-8.38 2.11,-3.66 4.67,-7.5 5.71,-8.26 1.05,-0.76 1.55,-0.43 2.41,-1.33 0,0 0.16,-0.12 0.35,-0.31 0.07,-0.14 0.12,-0.28 0.13,-0.39 0.03,-0.3 0,-0.42 -0.38,-0.52 0.03,0.18 -0.08,0.39 -0.38,0.51 -0.49,0.2 -1.15,-0.09 -2.81,0.54 -1.67,0.62 -3.68,2.03 -4.51,3.74 -0.82,1.72 -3.06,5.39 -4.93,8.9 z"
       style="fill:none;stroke-width:0.974317"
       id="path94" />
    <path
       d="m 43.62,18.08 c -0.95,0.03 -2.47,0.38 -6.29,-0.12 -3.9,-0.52 -8.18,-2.12 -11.22,-4.31 -2.43,-1.73 -4.77,-5.51 -6.06,-7.48 0.04,0.04 0.09,0.11 0.13,0.15 1.28,1.54 6.25,5.58 9.86,7.5 3.61,1.92 9.73,3.78 11.73,3.99 1.06,0.11 1.61,0.16 1.86,0.27 z"
       style="opacity:0.8;fill:url(#linear-gradient-37);stroke-width:0.974317"
       id="path95" />
    <path
       d="m 32.06,40.07 c -0.22,0.92 -0.5,2.01 -0.9,2.35 -0.42,0.34 -0.52,0.24 -1.99,-0.94 C 27.69,40.29 22.42,36.85 18.8,34.93 15.18,33.01 9.37,30.55 7.57,29.99 7.08,29.85 6.7,29.73 6.44,29.63 5.69,29.37 5.64,29.24 5.68,28.87 5.71,28.52 6.04,28.05 6.44,27.56 6.66,27.3 6.89,27.04 7.11,26.8 c 0.63,-0.68 1.22,-1.22 2.54,-3.21 1.33,-1.96 2.98,-4.85 3.56,-5.96 0.58,-1.11 2.11,-4.18 3.01,-6.39 0.9,-2.19 1.02,-2.99 1.24,-3.9 0.1,-0.46 0.25,-0.97 0.39,-1.39 0.14,-0.44 0.32,-0.78 0.52,-0.96 0.4,-0.34 0.49,-0.22 1.79,1.33 0.38,0.44 1.07,1.13 1.97,1.9 l 0.05,0.03 c 2.12,1.85 5.31,4.22 7.84,5.57 3.62,1.92 9.73,3.78 11.73,3.99 1.99,0.2 2.15,0.21 2.1,0.74 -0.06,0.53 -0.81,1.37 -1.44,2.06 -0.64,0.7 -1.23,1.24 -2.54,3.21 -1.32,1.99 -3.02,4.97 -3.61,6.07 -0.59,1.1 -2.06,4.08 -2.96,6.28 -0.91,2.21 -1.03,3 -1.24,3.9 z"
       style="fill:none;stroke:#9c0000;stroke-width:0.682022px;stroke-linecap:round;stroke-linejoin:round"
       id="path96" />
  </g>
  <g
     id="g103"
     style="stroke-width:0.974317"
     transform="matrix(1.0263605,0,0,1.0263605,-1.2391674,-1.2555509)">
    <g
       style="opacity:0.6;stroke-width:0.974317"
       id="g99">
      <path
         d="m 10.22,6.67 c 0,0 -2.39,0.84 -3.02,4.04 C 6.57,7.51 4.18,6.67 4.18,6.67 c 0,0 2.39,-0.84 3.02,-4.04 0.63,3.2 3.02,4.04 3.02,4.04 z"
         style="fill:#ffffff;stroke-width:0.974317"
         id="path97" />
      <path
         d="m 12.98,12.76 c 0,0 -1.62,0.57 -2.04,2.74 -0.43,-2.16 -2.04,-2.74 -2.04,-2.74 0,0 1.62,-0.57 2.04,-2.74 0.43,2.16 2.04,2.74 2.04,2.74 z"
         style="fill:#ffffff;stroke-width:0.974317"
         id="path98" />
      <path
         d="m 28.83,6.44 c 0,0 -1.3,0.46 -1.64,2.19 -0.34,-1.74 -1.64,-2.19 -1.64,-2.19 0,0 1.3,-0.46 1.64,-2.19 0.34,1.74 1.64,2.19 1.64,2.19 z"
         style="fill:#ffffff;stroke-width:0.974317"
         id="path99" />
    </g>
    <g
       id="g102"
       style="stroke-width:0.974317">
      <path
         d="m 10.22,6.67 c 0,0 -2.39,0.84 -3.02,4.04 C 6.57,7.51 4.18,6.67 4.18,6.67 c 0,0 2.39,-0.84 3.02,-4.04 0.63,3.2 3.02,4.04 3.02,4.04 z"
         style="fill:none;stroke:#f4e14f;stroke-width:0.487158px;stroke-miterlimit:10"
         id="path100" />
      <path
         d="m 12.98,12.76 c 0,0 -1.62,0.57 -2.04,2.74 -0.43,-2.16 -2.04,-2.74 -2.04,-2.74 0,0 1.62,-0.57 2.04,-2.74 0.43,2.16 2.04,2.74 2.04,2.74 z"
         style="fill:none;stroke:#f4e14f;stroke-width:0.487158px;stroke-miterlimit:10"
         id="path101" />
      <path
         d="m 28.83,6.44 c 0,0 -1.3,0.46 -1.64,2.19 -0.34,-1.74 -1.64,-2.19 -1.64,-2.19 0,0 1.3,-0.46 1.64,-2.19 0.34,1.74 1.64,2.19 1.64,2.19 z"
         style="fill:none;stroke:#f4e14f;stroke-width:0.487158px;stroke-miterlimit:10"
         id="path102" />
    </g>
  </g>
</svg>
