<?xml version="1.0" encoding="UTF-8" standalone="no"?>
<svg
   xmlns:dc="http://purl.org/dc/elements/1.1/"
   xmlns:cc="http://creativecommons.org/ns#"
   xmlns:rdf="http://www.w3.org/1999/02/22-rdf-syntax-ns#"
   xmlns:svg="http://www.w3.org/2000/svg"
   xmlns="http://www.w3.org/2000/svg"
   xmlns:xlink="http://www.w3.org/1999/xlink"
   xmlns:sodipodi="http://sodipodi.sourceforge.net/DTD/sodipodi-0.dtd"
   xmlns:inkscape="http://www.inkscape.org/namespaces/inkscape"
   viewBox="0 0 48 48"
   version="1.1"
   id="svg14333"
   sodipodi:docname="12-Swizzle.svg"
   inkscape:version="1.0.1 (3bc2e813f5, 2020-09-07)">
  <metadata
     id="metadata14337">
    <rdf:RDF>
      <cc:Work
         rdf:about="">
        <dc:format>image/svg+xml</dc:format>
        <dc:type
           rdf:resource="http://purl.org/dc/dcmitype/StillImage" />
      </cc:Work>
    </rdf:RDF>
  </metadata>
  <sodipodi:namedview
     pagecolor="#ffffff"
     bordercolor="#666666"
     borderopacity="1"
     objecttolerance="10"
     gridtolerance="10"
     guidetolerance="10"
     inkscape:pageopacity="0"
     inkscape:pageshadow="2"
     inkscape:window-width="2560"
     inkscape:window-height="1377"
     id="namedview14335"
     showgrid="false"
     inkscape:zoom="15.3125"
     inkscape:cx="24"
     inkscape:cy="24"
     inkscape:window-x="-8"
     inkscape:window-y="-8"
     inkscape:window-maximized="1"
     inkscape:current-layer="svg14333" />
  <defs
     id="defs14254">
    <linearGradient
       inkscape:collect="always"
       id="linearGradient14954">
      <stop
         style="stop-color:#8f5902;stop-opacity:1;"
         offset="0"
         id="stop14950" />
      <stop
         style="stop-color:#8f5902;stop-opacity:0;"
         offset="1"
         id="stop14952" />
    </linearGradient>
    <style
       id="style14217">.cls-1{isolation:isolate;}.cls-2{fill:#d0d0d0;}.cls-3{fill:url(#radial-gradient);}.cls-4{fill:#888a85;}.cls-5{fill:#fff;}.cls-6{fill:url(#linear-gradient);}.cls-7{fill:url(#linear-gradient-2);}.cls-10,.cls-8{fill:#fcaf3e;}.cls-8{opacity:0.1;mix-blend-mode:color-burn;}.cls-9{fill:#f57900;}.cls-11,.cls-9{stroke:#f57900;}.cls-14,.cls-28,.cls-9{stroke-linecap:round;stroke-linejoin:round;}.cls-28,.cls-9{stroke-width:0.35px;}.cls-11,.cls-14,.cls-28,.cls-30{fill:none;}.cls-11,.cls-13,.cls-30{stroke-miterlimit:10;}.cls-11,.cls-14,.cls-30{stroke-width:0.7px;}.cls-12{fill:#4e9a06;}.cls-13,.cls-22{fill:#8ae234;}.cls-13,.cls-30{stroke:#4e9a06;}.cls-14{stroke:#babdb6;}.cls-15{fill:url(#linear-gradient-3);}.cls-16{fill:url(#linear-gradient-4);}.cls-17{fill:url(#linear-gradient-5);}.cls-18{fill:url(#linear-gradient-6);}.cls-19{fill:url(#linear-gradient-7);}.cls-20{fill:url(#linear-gradient-8);}.cls-21{fill:url(#linear-gradient-9);}.cls-23{fill:url(#linear-gradient-10);}.cls-24{fill:url(#linear-gradient-11);}.cls-25,.cls-26{mix-blend-mode:multiply;}.cls-25{fill:url(#linear-gradient-12);}.cls-26{opacity:0.21;fill:url(#linear-gradient-13);}.cls-27{fill:url(#linear-gradient-14);}.cls-28{stroke:#888a85;}.cls-29{fill:url(#linear-gradient-15);}.cls-31{fill:url(#linear-gradient-16);}</style>
    <radialGradient
       id="radial-gradient"
       cx="-21.68"
       cy="98.47"
       r="17.81"
       gradientTransform="matrix(1.19,0,0,0.35,49.64,2.16)"
       gradientUnits="userSpaceOnUse">
      <stop
         offset="0.12"
         stop-color="#2c2c2c"
         stop-opacity="0.5"
         id="stop14219" />
      <stop
         offset="0.62"
         stop-color="#2c2c2c"
         stop-opacity="0.1"
         id="stop14221" />
      <stop
         offset="0.93"
         stop-color="#2c2c2c"
         stop-opacity="0"
         id="stop14223" />
    </radialGradient>
    <linearGradient
       id="linear-gradient"
       x1="18.33"
       y1="10.41"
       x2="21.53"
       y2="18.87"
       gradientUnits="userSpaceOnUse">
      <stop
         offset="0"
         stop-color="#2e3436"
         id="stop14226" />
      <stop
         offset="1"
         stop-color="#d3d7cf"
         stop-opacity="0"
         id="stop14228" />
    </linearGradient>
    <linearGradient
       id="linear-gradient-2"
       x1="39.08"
       y1="16.5"
       x2="22.55"
       y2="16.5"
       xlink:href="#linear-gradient" />
    <linearGradient
       id="linear-gradient-3"
       x1="16.49"
       y1="23.66"
       x2="23.87"
       y2="23.66"
       gradientTransform="translate(3.48 -2.57) rotate(7.97)"
       gradientUnits="userSpaceOnUse">
      <stop
         offset="0"
         stop-color="#fff"
         stop-opacity="0"
         id="stop14232" />
      <stop
         offset="1"
         stop-color="snow"
         id="stop14234" />
    </linearGradient>
    <linearGradient
       id="linear-gradient-4"
       x1="17.57"
       y1="24.45"
       x2="22.86"
       y2="24.45"
       xlink:href="#linear-gradient-3" />
    <linearGradient
       id="linear-gradient-5"
       x1="22.6"
       y1="19.43"
       x2="30.75"
       y2="19.43"
       gradientTransform="rotate(18.81,26.66577,19.43319)"
       xlink:href="#linear-gradient-3" />
    <linearGradient
       id="linear-gradient-6"
       x1="27.02"
       y1="21.19"
       x2="26.15"
       y2="16.83"
       gradientTransform="rotate(18.81,26.66577,19.43319)"
       xlink:href="#linear-gradient-3" />
    <linearGradient
       id="linear-gradient-7"
       x1="24.35"
       y1="20.64"
       x2="29.61"
       y2="20.64"
       xlink:href="#linear-gradient-3" />
    <linearGradient
       id="linear-gradient-8"
       x1="23.03"
       y1="27.85"
       x2="31.33"
       y2="27.85"
       gradientTransform="rotate(-21.42,27.182206,27.840826)"
       xlink:href="#linear-gradient-3" />
    <linearGradient
       id="linear-gradient-9"
       x1="24.19"
       y1="28.69"
       x2="29.15"
       y2="28.69"
       xlink:href="#linear-gradient-3" />
    <linearGradient
       id="linear-gradient-10"
       x1="20.49"
       y1="10.02"
       x2="15.23"
       y2="7.4"
       xlink:href="#linear-gradient-3" />
    <linearGradient
       id="linear-gradient-11"
       x1="21.76"
       y1="27.47"
       x2="17.58"
       y2="27.77"
       xlink:href="#linear-gradient-3" />
    <linearGradient
       id="linear-gradient-12"
       x1="38.77"
       y1="35.1"
       x2="19.01"
       y2="23.02"
       xlink:href="#linear-gradient" />
    <linearGradient
       id="linear-gradient-13"
       x1="32.84"
       y1="27.73"
       x2="29.49"
       y2="27.56"
       xlink:href="#linear-gradient" />
    <linearGradient
       id="linear-gradient-14"
       x1="27.89"
       y1="26.86"
       x2="10.24"
       y2="27.29"
       xlink:href="#linear-gradient-3" />
    <linearGradient
       id="linear-gradient-15"
       x1="19.71"
       y1="12.72"
       x2="17.72"
       y2="9.35"
       gradientUnits="userSpaceOnUse">
      <stop
         offset="0"
         stop-color="#4e9a06"
         id="stop14248" />
      <stop
         offset="1"
         stop-color="#4e9a06"
         stop-opacity="0"
         id="stop14250" />
    </linearGradient>
    <linearGradient
       id="linear-gradient-16"
       x1="24"
       y1="16.13"
       x2="24"
       y2="17.19"
       xlink:href="#linear-gradient-3" />
    <linearGradient
       inkscape:collect="always"
       xlink:href="#linear-gradient"
       id="linearGradient14900"
       gradientUnits="userSpaceOnUse"
       x1="18.33"
       y1="10.41"
       x2="21.53"
       y2="18.87" />
    <linearGradient
       inkscape:collect="always"
       xlink:href="#linear-gradient-3"
       id="linearGradient14902"
       gradientUnits="userSpaceOnUse"
       gradientTransform="rotate(7.97,20.185752,23.692127)"
       x1="16.49"
       y1="23.66"
       x2="23.87"
       y2="23.66" />
    <radialGradient
       inkscape:collect="always"
       xlink:href="#linearGradient14954"
       id="radialGradient14956"
       cx="51.35857"
       cy="29.66408"
       fx="51.35857"
       fy="29.66408"
       r="20.299999"
       gradientTransform="matrix(1,0,0,0.29310345,0,20.969436)"
       gradientUnits="userSpaceOnUse" />
  </defs>
  <title
     id="title14256">12-Swizzle</title>
  <g
     id="shadow"
     style="isolation:isolate;stroke-width:1.10506;fill-opacity:1;fill:url(#radialGradient14956)"
     transform="matrix(1,0,0,0.81889898,-28.016327,18.988522)">
    <ellipse
       class="cls-3"
       cx="51.35857"
       cy="29.66408"
       rx="20.299999"
       ry="5.9499998"
       id="ellipse14261"
       style="fill:url(#radialGradient14956);stroke-width:1.10506;fill-opacity:1" />
  </g>
  <g
     id="ART"
     style="isolation:isolate;stroke-width:0.710317"
     transform="matrix(1.4078211,0,0,1.4078211,-9.9775203,-7.5379542)">
    <path
       class="cls-4"
       d="m 24,14.43 c 5.55,0 10,1 10,2.15 a 0.19,0.19 0 0 1 0,0.08 v 0 a 190.72,190.72 0 0 1 -2.31,19.15 c -0.1,0.92 -3.52,1.67 -7.72,1.67 -4.2,0 -7.62,-0.75 -7.72,-1.67 A 190.72,190.72 0 0 1 14,16.66 v 0 a 0.19,0.19 0 0 1 0,-0.08 c 0,-1.18 4.49,-2.15 10,-2.15 m 10,2.23 v 0 m 0,0 v 0 m -20,0 v 0 m 10,-2.93 c -1.1,0 -10.74,0.08 -10.74,2.85 a 0.81,0.81 0 0 0 0,0.16 c 0.65,9.91 2.3,19.1 2.32,19.2 0.23,2.13 7.05,2.24 8.41,2.24 1.36,0 8.18,-0.11 8.42,-2.29 0,0 1.66,-9.22 2.31,-19.12 0,0 0,-0.05 0,-0.08 v -0.11 c 0,-2.77 -9.64,-2.85 -10.74,-2.85 z m 10,3.63 z m 0,0 z"
       id="path14264"
       style="stroke-width:0.710317" />
    <path
       class="cls-5"
       d="m 24,18.74 c -5.43,0 -9.85,-0.92 -10,-2.08 a 190.72,190.72 0 0 0 2.31,19.15 c 0.1,0.92 3.52,1.67 7.72,1.67 4.2,0 7.62,-0.75 7.72,-1.67 A 190.72,190.72 0 0 0 34,16.66 c -0.15,1.16 -4.57,2.08 -10,2.08 z"
       id="path14266"
       style="stroke-width:0.710317" />
    <path
       class="cls-6"
       d="m 19.34,17.86 c -2.4,-0.29 -4,-0.79 -4,-1.36 0,-0.9 3.87,-1.62 8.65,-1.62 h 1.33 c -2.26,0.18 -6.59,0.84 -5.98,2.98 z"
       id="path14268"
       style="fill:url(#linearGradient14900);stroke-width:0.710317" />
    <ellipse
       class="cls-7"
       cx="24"
       cy="16.5"
       rx="8.6499996"
       ry="1.62"
       id="ellipse14270"
       style="fill:url(#linear-gradient-2);stroke-width:0.710317" />
    <ellipse
       class="cls-8"
       cx="24"
       cy="16.5"
       rx="8.6499996"
       ry="1.62"
       id="ellipse14272"
       style="stroke-width:0.710317" />
    <path
       class="cls-9"
       d="M 32.37,20.06 C 32,24.6 31.41,28.74 31,31.6 v 0 c -0.05,0.84 -3.16,1.52 -7,1.52 -3.84,0 -6.93,-0.68 -7,-1.52 v 0 c -0.43,-2.86 -1,-7 -1.39,-11.54 0.23,0.88 3.88,1.58 8.37,1.58 4.49,0 8.16,-0.7 8.39,-1.58 z"
       id="path14274" />
    <path
       class="cls-10"
       d="m 31,31.6 v 0 c -0.05,0.84 -3.16,1.52 -7,1.52 -3.84,0 -6.93,-0.68 -7,-1.52 v 0 c 0,-0.85 3.13,-1.54 7,-1.54 3.87,0 7,0.69 7,1.54 z"
       id="path14276"
       style="stroke-width:0.710317" />
    <ellipse
       class="cls-10"
       cx="24"
       cy="19.969999"
       rx="8.3800001"
       ry="1.67"
       id="ellipse14278"
       style="stroke-width:0.710317" />
    <ellipse
       class="cls-11"
       cx="24"
       cy="19.969999"
       rx="8.3800001"
       ry="1.67"
       id="ellipse14280" />
    <ellipse
       class="cls-11"
       cx="24"
       cy="19.969999"
       rx="8.3800001"
       ry="1.67"
       id="ellipse14282" />
    <rect
       class="cls-12"
       x="23.030001"
       y="27.200001"
       width="1.89"
       height="5.04"
       rx="0.94999999"
       transform="rotate(-17,23.981754,29.715217)"
       id="rect14284"
       style="stroke-width:0.710317" />
    <line
       class="cls-13"
       x1="17.790001"
       y1="9.4899998"
       x2="23.780001"
       y2="29.1"
       id="line14286"
       style="stroke-width:0.710317" />
    <ellipse
       class="cls-14"
       cx="24"
       cy="35.77"
       rx="7.7199998"
       ry="1.7"
       id="ellipse14288" />
    <path
       class="cls-11"
       d="M 32.37,20.06 C 32,24.6 31.41,28.74 31,31.6 v 0 c -0.05,0.84 -3.16,1.52 -7,1.52 -3.84,0 -6.93,-0.68 -7,-1.52 v 0 c -0.43,-2.86 -1,-7 -1.39,-11.54 0.23,0.88 3.88,1.58 8.37,1.58 4.49,0 8.16,-0.7 8.39,-1.58 z"
       id="path14290" />
    <rect
       class="cls-15"
       x="16.84"
       y="20.32"
       width="6.6799998"
       height="6.6799998"
       rx="0.60000002"
       transform="rotate(-7.97,20.202326,23.692966)"
       id="rect14292"
       style="fill:url(#linearGradient14902);stroke-width:0.710317" />
    <path
       class="cls-16"
       d="m 22.82,24.9 v 0.25 a 0.59,0.59 0 0 1 -0.5,0.67 l -3.65,0.51 a 0.61,0.61 0 0 1 -0.68,-0.51 l -0.45,-3.25 a 4.38,4.38 0 0 0 2.8,1.74 4.78,4.78 0 0 0 1.61,0 0.72,0.72 0 0 1 0.87,0.59 z"
       id="path14294"
       style="fill:url(#linear-gradient-4);stroke-width:0.710317" />
    <rect
       class="cls-17"
       x="23.34"
       y="16.1"
       width="6.6799998"
       height="6.6799998"
       rx="0.60000002"
       transform="rotate(-18.81,26.6795,19.430122)"
       id="rect14296"
       style="fill:url(#linear-gradient-5);stroke-width:0.710317" />
    <rect
       class="cls-18"
       x="23.34"
       y="16.1"
       width="6.6799998"
       height="6.6799998"
       rx="0.60000002"
       transform="rotate(-18.81,26.6795,19.430122)"
       id="rect14298"
       style="fill:url(#linear-gradient-6);stroke-width:0.710317" />
    <path
       class="cls-19"
       d="m 29.08,18.93 0.5,1.46 a 0.61,0.61 0 0 1 -0.38,0.76 l -3.48,1.18 A 0.59,0.59 0 0 1 25,22 l -0.61,-1.78 a 4.49,4.49 0 0 0 2.69,0 3.71,3.71 0 0 0 2,-1.29 z"
       id="path14300"
       style="fill:url(#linear-gradient-7);stroke-width:0.710317" />
    <rect
       class="cls-20"
       x="23.84"
       y="24.51"
       width="6.6799998"
       height="6.6799998"
       rx="0.60000002"
       transform="rotate(21.42,27.174168,27.855935)"
       id="rect14302"
       style="fill:url(#linear-gradient-8);stroke-width:0.710317" />
    <path
       class="cls-21"
       d="m 29.15,29.5 -0.37,0.95 A 0.6,0.6 0 0 1 28,30.79 l -3.42,-1.34 a 0.6,0.6 0 0 1 -0.34,-0.78 l 0.83,-2.12 a 3.48,3.48 0 0 0 1.69,2.38 4.4,4.4 0 0 0 2.39,0.57 z"
       id="path14304"
       style="fill:url(#linear-gradient-9);stroke-width:0.710317" />
    <circle
       class="cls-22"
       cx="17.639999"
       cy="8.9899998"
       r="3.3"
       id="circle14306"
       style="stroke-width:0.710317" />
    <path
       class="cls-23"
       d="m 19.49,6.74 a 3,3 0 0 0 -3,-0.34 2.8,2.8 0 0 0 -1.77,2.92 1.46,1.46 0 0 0 2.17,1 c 0.95,-0.48 0.58,-1.88 2,-2.35 1.42,-0.47 1.64,0.15 1.64,0.15 A 4.21,4.21 0 0 0 19.49,6.74 Z"
       id="path14308"
       style="fill:url(#linear-gradient-10);stroke-width:0.710317" />
    <path
       class="cls-24"
       d="M 22.75,37.46 A 22.67,22.67 0 0 1 18,36.85 l -2.2,-19 a 26.29,26.29 0 0 0 5.79,0.84 z"
       id="path14310"
       style="fill:url(#linear-gradient-11);stroke-width:0.710317" />
    <path
       class="cls-25"
       d="M 28,18.56 A 7.27,7.27 0 0 1 29.15,23 C 29,24.9 28.44,30.4 28,34.47 v 0.18 c -0.07,0.68 -1.67,1.2 -3.5,1.33 a 35.22,35.22 0 0 1 -6,-0.38 c -0.68,-0.12 -1.77,0.86 0.75,1.42 a 24.9,24.9 0 0 0 8.18,0.24 h 0.27 v 0 a 13.15,13.15 0 0 0 3,-0.65 L 33.1,17.5 A 17.35,17.35 0 0 1 28,18.56 Z"
       id="path14312"
       style="fill:url(#linear-gradient-12);stroke-width:0.710317" />
    <path
       class="cls-26"
       d="M 28,18.56 A 7.27,7.27 0 0 1 29.15,23 C 29,24.9 28.44,30.4 28,34.47 v 0.18 c -0.07,0.68 -1.67,1.2 -3.5,1.33 a 35.22,35.22 0 0 1 -6,-0.38 c -0.68,-0.12 -1.77,0.86 0.75,1.42 a 24.9,24.9 0 0 0 8.18,0.24 h 0.27 v 0 a 13.15,13.15 0 0 0 3,-0.65 L 33.1,17.5 A 17.35,17.35 0 0 1 28,18.56 Z"
       id="path14314"
       style="fill:url(#linear-gradient-13);stroke-width:0.710317" />
    <path
       class="cls-8"
       d="M 28,18.56 A 7.27,7.27 0 0 1 29.15,23 C 29,24.9 28.44,30.4 28,34.47 v 0.18 c -0.07,0.68 -1.67,1.2 -3.5,1.33 a 35.22,35.22 0 0 1 -6,-0.38 c -0.68,-0.12 -1.77,0.86 0.75,1.42 a 24.9,24.9 0 0 0 8.18,0.24 h 0.27 v 0 a 13.15,13.15 0 0 0 3,-0.65 L 33.1,17.5 A 17.35,17.35 0 0 1 28,18.56 Z"
       id="path14316"
       style="stroke-width:0.710317" />
    <path
       class="cls-27"
       d="m 24,18.74 c -5.43,0 -9.85,-0.92 -10,-2.08 a 190.72,190.72 0 0 0 2.31,19.15 c 0.1,0.92 3.52,1.67 7.72,1.67 4.2,0 7.62,-0.75 7.72,-1.67 A 190.72,190.72 0 0 0 34,16.66 c -0.15,1.16 -4.57,2.08 -10,2.08 z"
       id="path14318"
       style="fill:url(#linear-gradient-14);stroke-width:0.710317" />
    <path
       class="cls-28"
       d="m 24,18.74 c -5.43,0 -9.85,-0.92 -10,-2.08 a 190.72,190.72 0 0 0 2.31,19.15 c 0.1,0.92 3.52,1.67 7.72,1.67 4.2,0 7.62,-0.75 7.72,-1.67 A 190.72,190.72 0 0 0 34,16.66 c -0.15,1.16 -4.57,2.08 -10,2.08 z"
       id="path14320" />
    <path
       class="cls-29"
       d="M 15.7,11.19 A 2.58,2.58 0 0 0 18.94,10 c 0.69,-1.44 1,-1.61 1.49,-1.26 0.49,0.35 0,1.81 -0.76,2.45 a 3,3 0 0 1 -3.97,0 z"
       id="path14322"
       style="fill:url(#linear-gradient-15);stroke-width:0.710317" />
    <circle
       class="cls-30"
       cx="17.639999"
       cy="8.9899998"
       r="3.3"
       id="circle14324" />
    <path
       class="cls-31"
       d="m 24,14.43 c -5.55,0 -10,1 -10,2.15 0,1.15 4.49,2.16 10,2.16 5.51,0 10,-1 10,-2.16 0,-1.16 -4.45,-2.15 -10,-2.15 z m 0,3.69 c -4.78,0 -8.65,-0.73 -8.65,-1.62 0,-0.89 3.87,-1.62 8.65,-1.62 4.78,0 8.65,0.72 8.65,1.62 0,0.9 -3.87,1.62 -8.65,1.62 z"
       id="path14326"
       style="fill:url(#linear-gradient-16);stroke-width:0.710317" />
    <path
       class="cls-28"
       d="m 16.85,14.8 a 11.43,11.43 0 0 0 -1.54,0.47 3.72,3.72 0 0 0 -1,0.54 0.7,0.7 0 0 0 -0.07,1.19 3.07,3.07 0 0 0 0.56,0.38 5.37,5.37 0 0 0 0.83,0.34 9.88,9.88 0 0 0 1.06,0.31 c 0.42,0.1 0.85,0.19 1.28,0.26 0.43,0.07 1,0.16 1.45,0.21 0.45,0.05 1.07,0.12 1.61,0.16 0.54,0.04 1.15,0.06 1.73,0.08 H 24 c 0.51,0 1,0 1.52,0 0.52,0 1,0 1.45,-0.07 l 1.36,-0.13 c 0.42,0 0.84,-0.1 1.25,-0.16 l 1.14,-0.21 c 0.33,-0.06 0.66,-0.14 1,-0.23 0.34,-0.09 0.57,-0.17 0.84,-0.27 a 5.06,5.06 0 0 0 0.67,-0.3 2.23,2.23 0 0 0 0.47,-0.37 1,1 0 0 0 0.28,-0.33 0.61,0.61 0 0 0 0,-0.57 1.47,1.47 0 0 0 -0.32,-0.34 2.8,2.8 0 0 0 -0.52,-0.32 5.74,5.74 0 0 0 -0.72,-0.3 c -0.29,-0.1 -0.59,-0.19 -0.89,-0.27 -0.3,-0.08 -0.69,-0.16 -1.05,-0.23 -0.36,-0.07 -0.79,-0.14 -1.18,-0.2 -0.39,-0.06 -0.88,-0.12 -1.31,-0.16 -0.43,-0.04 -0.95,-0.08 -1.42,-0.11 l -1.5,-0.06 h -0.21"
       id="path14328" />
  </g>
</svg>
