<?xml version="1.0" encoding="UTF-8" standalone="no"?>
<svg
   viewBox="0 0 48 48"
   version="1.1"
   id="svg182"
   sodipodi:docname="undulatus.svg"
   inkscape:version="1.3 (0e150ed6c4, 2023-07-21)"
   xmlns:inkscape="http://www.inkscape.org/namespaces/inkscape"
   xmlns:sodipodi="http://sodipodi.sourceforge.net/DTD/sodipodi-0.dtd"
   xmlns:xlink="http://www.w3.org/1999/xlink"
   xmlns="http://www.w3.org/2000/svg"
   xmlns:svg="http://www.w3.org/2000/svg">
  <sodipodi:namedview
     id="namedview182"
     pagecolor="#ffffff"
     bordercolor="#666666"
     borderopacity="1.0"
     inkscape:showpageshadow="2"
     inkscape:pageopacity="0.0"
     inkscape:pagecheckerboard="0"
     inkscape:deskcolor="#d1d1d1"
     inkscape:zoom="16.278187"
     inkscape:cx="23.989157"
     inkscape:cy="23.989157"
     inkscape:window-width="2560"
     inkscape:window-height="1377"
     inkscape:window-x="-8"
     inkscape:window-y="-8"
     inkscape:window-maximized="1"
     inkscape:current-layer="svg182" />
  <defs
     id="defs2">
    <linearGradient
       id="linearGradient182"
       inkscape:collect="always">
      <stop
         style="stop-color:#f7fcfe;stop-opacity:1;"
         offset="0"
         id="stop182" />
      <stop
         style="stop-color:#98d9f2;stop-opacity:1;"
         offset="1"
         id="stop183" />
    </linearGradient>
    <linearGradient
       id="linear-gradient"
       x1="39.52"
       y1="36.54"
       x2="39.52"
       y2="45.86"
       gradientUnits="userSpaceOnUse">
      <stop
         offset="0"
         stop-color="#fff"
         id="stop1" />
      <stop
         offset="1"
         stop-color="#cbcfc7"
         id="stop2" />
    </linearGradient>
    <linearGradient
       inkscape:collect="always"
       xlink:href="#linearGradient182"
       id="linearGradient183"
       x1="25.455202"
       y1="17.068327"
       x2="23.032391"
       y2="19.7181"
       gradientUnits="userSpaceOnUse" />
    <linearGradient
       inkscape:collect="always"
       xlink:href="#linearGradient182"
       id="linearGradient184"
       gradientUnits="userSpaceOnUse"
       x1="25.455202"
       y1="17.068327"
       x2="23.032391"
       y2="19.7181"
       gradientTransform="translate(-7.1261006,7.4332601)" />
    <linearGradient
       inkscape:collect="always"
       xlink:href="#linearGradient182"
       id="linearGradient185"
       gradientUnits="userSpaceOnUse"
       gradientTransform="translate(-12.409244,15.357975)"
       x1="25.455202"
       y1="17.068327"
       x2="23.032391"
       y2="19.7181" />
    <linearGradient
       inkscape:collect="always"
       xlink:href="#linearGradient182"
       id="linearGradient186"
       gradientUnits="userSpaceOnUse"
       gradientTransform="translate(-18.982457,22.852667)"
       x1="25.455202"
       y1="17.068327"
       x2="23.032391"
       y2="19.7181" />
    <linearGradient
       inkscape:collect="always"
       xlink:href="#linearGradient182"
       id="linearGradient187"
       gradientUnits="userSpaceOnUse"
       x1="25.455202"
       y1="17.068327"
       x2="23.032391"
       y2="19.7181"
       gradientTransform="translate(8.6004662,-5.9588944)" />
    <linearGradient
       inkscape:collect="always"
       xlink:href="#linearGradient182"
       id="linearGradient188"
       gradientUnits="userSpaceOnUse"
       gradientTransform="translate(16.955205,-12.163516)"
       x1="25.455202"
       y1="17.068327"
       x2="23.032391"
       y2="19.7181" />
  </defs>
  <rect
     y="0"
     width="48"
     height="48"
     style="isolation:isolate;fill:#39b4ea"
     id="rect2"
     x="0" />
  <path
     id="path90"
     style="isolation:isolate;fill:url(#linearGradient183)"
     d="M 1.0703125 0 L 1.0097656 0.060546875 L 0.890625 0.16992188 L 0.89453125 0.17578125 L 0.890625 0.1796875 L 0.84179688 0.22851562 L 0.76953125 0.2890625 L 0.7734375 0.296875 L 0.76953125 0.30078125 L 0.65039062 0.41015625 L 0.6171875 0.4453125 L 0.52929688 0.52929688 L 0.5390625 0.52929688 L 0.41015625 0.65039062 L 0.4140625 0.65039062 L 0.1796875 0.86914062 C 0.18155786 0.87117441 0.18367454 0.87296826 0.18554688 0.875 L 0.060546875 0.99023438 C 0.062121476 0.9919301 0.06287724 0.99439949 0.064453125 0.99609375 L 0.009765625 1.0507812 L 0.009765625 1.0527344 L 0 1.0605469 L 0 1.0703125 L 0 1.0800781 L 0 1.0898438 L 0 1.0996094 L 0 1.1503906 L 0 1.390625 L 0 1.6308594 L 0 1.8496094 L 0 2.0800781 L 0 2.2890625 L 0 2.5097656 C 0.90999909 3.2797649 1.9908605 3.8503909 3.1308594 4.1503906 C 3.2908592 4.1903906 3.4396095 4.2295313 3.5996094 4.2695312 C 4.1196089 4.3995311 4.6102348 4.5092971 4.9902344 4.7792969 C 5.4502339 5.1092965 5.7292972 5.6507037 6.0292969 6.2207031 L 6.1503906 6.4394531 C 6.5303902 7.1594524 6.9602349 7.670938 7.4902344 8.2109375 C 8.1002338 8.8509369 8.8592975 8.9507813 9.5292969 9.0507812 C 9.9692964 9.1107812 10.38 9.1696096 10.75 9.3496094 C 11.739999 9.8596089 12.290469 10.550079 12.730469 11.830078 C 13.150468 13.060077 13.919064 13.630469 15.289062 13.730469 C 16.149062 13.790469 16.799297 14.010157 17.279297 14.410156 C 17.949296 14.950156 18.419063 15.750782 18.539062 16.550781 C 18.569062 16.730781 18.579844 16.93086 18.589844 17.130859 C 18.619844 17.560859 18.640078 18.050235 18.830078 18.490234 C 19.140078 19.230234 19.829844 19.360938 20.339844 19.460938 L 20.589844 19.509766 C 20.909843 19.579766 21.230547 19.639453 21.560547 19.689453 C 22.400546 19.829453 23.190079 19.960391 23.830078 20.400391 C 24.180078 20.65039 24.490313 20.990001 24.820312 21.5 C 25.200312 22.069999 25.500938 22.69961 25.710938 23.349609 L 25.759766 23.519531 C 25.859766 23.819531 25.95086 24.119922 26.130859 24.419922 C 26.560859 25.139921 27.179922 25.2 27.669922 25.25 C 27.799922 25.27 27.930547 25.280781 28.060547 25.300781 C 28.780546 25.440781 29.289922 25.680782 29.669922 26.050781 C 30.219921 26.600781 30.569141 27.479845 30.869141 28.339844 C 31.21914 29.339843 31.559767 29.759844 32.759766 29.839844 C 33.149765 29.859844 33.599453 30.039453 33.939453 30.189453 C 34.919452 30.619453 35.739688 31.419142 36.179688 32.369141 C 36.299687 32.61914 36.390469 32.87086 36.480469 33.130859 C 36.560469 33.350859 36.640469 33.569063 36.730469 33.789062 C 37.110468 34.679062 37.689063 35.560391 38.289062 36.150391 C 38.849062 36.71039 39.649376 37.04961 40.359375 37.349609 C 40.629375 37.469609 40.89086 37.579219 41.130859 37.699219 C 43.290857 38.789218 44.910156 41 44.910156 41 L 45.720703 40.410156 L 45.710938 40.410156 C 45.710938 40.410156 45.701665 40.399206 45.693359 40.384766 L 45.699219 40.380859 L 45.830078 40.289062 L 45.820312 40.279297 C 45.820313 40.279297 45.818326 40.274044 45.816406 40.271484 L 45.820312 40.269531 L 45.949219 40.179688 L 45.929688 40.169922 L 45.923828 40.164062 L 45.929688 40.160156 L 46.070312 40.060547 L 46.060547 40.050781 L 46.050781 40.029297 L 46.179688 39.939453 L 46.169922 39.939453 C 46.169922 39.939453 46.165012 39.932417 46.162109 39.925781 L 46.169922 39.919922 L 46.300781 39.830078 L 46.289062 39.820312 L 46.279297 39.810547 L 46.419922 39.710938 L 46.429688 39.710938 L 46.412109 39.691406 L 46.550781 39.589844 C 46.549453 39.588136 46.527879 39.559925 46.525391 39.556641 L 46.630859 39.480469 C 46.630413 39.479895 46.623624 39.469503 46.623047 39.46875 L 46.759766 39.369141 C 46.758835 39.367944 46.743689 39.347677 46.742188 39.345703 L 46.75 39.339844 L 46.880859 39.25 L 46.855469 39.234375 L 46.859375 39.230469 L 47 39.130859 L 47 39.119141 C 47 39.119141 46.992055 39.108503 46.984375 39.095703 L 47.109375 39.009766 L 47.099609 39.009766 C 47.099609 39.009766 47.0947 39.002729 47.091797 38.996094 L 47.099609 38.990234 L 47.230469 38.900391 L 47.240234 38.900391 L 47.220703 38.880859 L 47.21875 38.875 L 47.349609 38.779297 L 47.333984 38.748047 L 47.460938 38.660156 L 47.449219 38.660156 L 47.441406 38.646484 L 47.449219 38.640625 L 47.580078 38.550781 L 47.570312 38.550781 L 47.554688 38.533203 L 47.560547 38.529297 L 47.699219 38.429688 L 47.699219 38.419922 C 47.699219 38.419922 47.691274 38.409284 47.683594 38.396484 L 47.810547 38.310547 C 47.810547 38.310547 47.800781 38.299062 47.800781 38.289062 L 47.929688 38.199219 L 47.919922 38.199219 L 47.904297 38.183594 L 47.910156 38.179688 L 48 38.119141 L 48 38.080078 L 48 38.019531 L 48 37.759766 L 48.009766 37.759766 C 47.539766 37.159766 46.039295 35.369374 44.029297 34.359375 C 43.779297 34.229375 43.500937 34.110234 43.210938 33.990234 C 42.550938 33.710235 41.879453 33.420234 41.439453 32.990234 C 40.939454 32.500235 40.429375 31.720937 40.109375 30.960938 C 40.029375 30.760938 39.950859 30.549609 39.880859 30.349609 C 39.780859 30.05961 39.670781 29.779765 39.550781 29.509766 C 39.010782 28.339767 38.00078 27.360078 36.800781 26.830078 C 36.380782 26.640078 35.819531 26.430625 35.269531 26.390625 C 34.399532 26.340625 34.000312 25.420936 33.570312 24.210938 L 33.439453 23.880859 C 33.199453 23.22086 32.700702 22.619843 31.970703 22.089844 C 31.470704 21.739844 31.039609 21.540937 30.599609 21.460938 C 30.43961 21.430938 30.29039 21.429922 30.150391 21.419922 C 29.940391 21.419922 29.830703 21.409609 29.720703 21.349609 C 29.320704 21.12961 29.12039 20.620078 28.900391 20.080078 C 28.840391 19.920078 28.780937 19.75914 28.710938 19.619141 C 27.980938 17.979142 26.42992 16.750156 24.669922 16.410156 C 24.529922 16.380156 24.39 16.359844 24.25 16.339844 C 23.87 16.279844 23.500703 16.220781 23.220703 16.050781 C 22.730704 15.760782 22.509297 15.140468 22.279297 14.480469 C 22.139297 14.110469 22.010312 13.730859 21.820312 13.380859 C 21.500313 12.78086 21.019609 12.279843 20.599609 11.839844 C 20.10961 11.329844 19.500624 10.7 18.640625 10.5 C 18.420625 10.44 18.200703 10.430156 17.970703 10.410156 C 17.800703 10.400156 17.630937 10.389609 17.460938 10.349609 C 16.700938 10.16961 16.160312 9.3499994 15.820312 8.75 L 15.650391 8.4492188 C 15.230391 7.6892195 14.789765 6.9006245 14.009766 6.390625 C 13.489766 6.0506253 12.909609 5.8999999 12.349609 5.75 C 11.86961 5.6300001 11.419062 5.5092966 11.039062 5.2792969 C 10.389063 4.8792973 10.000078 4.2102337 9.5800781 3.4902344 C 9.1700785 2.7802351 8.7492962 2.0395307 8.0292969 1.5195312 C 7.4892974 1.1395316 6.8790619 0.98960923 6.2890625 0.84960938 C 6.1390626 0.8196094 5.9898436 0.78023434 5.8398438 0.74023438 C 5.2298444 0.57023455 4.6300776 0.31999968 4.0800781 0 L 3.7695312 0 L 2.390625 0 L 2.3808594 0 L 2.140625 0 L 1.9101562 0 L 1.6503906 0 L 1.4199219 0 L 1.1796875 0 L 1.0703125 0 z " />
  <rect
     y="0"
     width="48"
     height="48"
     style="isolation:isolate;fill:none"
     id="rect178"
     x="0" />
  <rect
     y="0"
     width="48"
     height="48"
     style="isolation:isolate;fill:none"
     id="rect179"
     x="0" />
  <rect
     y="0"
     width="48"
     height="48"
     style="isolation:isolate;fill:none"
     id="rect180"
     x="0" />
  <path
     d="M 47.3,0.7 V 47.3 H 0.7 V 0.7 H 47.3 M 48,0 H 0 v 48 h 48 z"
     style="isolation:isolate;fill:#555753"
     id="path180" />
  <g
     id="g181"
     style="isolation:isolate">
    <polygon
       points="47.65,31.39 47.65,47.65 31.39,47.65 "
       style="fill:url(#linear-gradient)"
       id="polygon180" />
    <path
       d="M 47.3,32.24 V 47.3 H 32.24 L 47.3,32.24 M 48,30.55 30.55,48 H 48 Z"
       style="fill:#555753"
       id="path181" />
  </g>
  <path
     id="path183"
     style="isolation:isolate;fill:url(#linearGradient184)"
     d="m -6.0557881,7.4332601 -0.060547,0.060547 -0.1191406,0.109375 0.00391,0.00586 -0.00391,0.00391 -0.048828,0.048828 -0.072266,0.060547 0.00391,0.00781 -0.00391,0.00391 -0.1191406,0.109375 -0.033203,0.035156 -0.087891,0.083984 h 0.00977 l -0.1289062,0.1210938 h 0.00391 l -0.234375,0.21875 c 0.00187,0.00203 0.00399,0.00383 0.00586,0.00586 l -0.125,0.1152343 c 0.00157,0.0017 0.00233,0.00417 0.00391,0.00586 l -0.054687,0.054687 v 0.00195 l -0.00977,0.00781 v 0.00977 0.00977 0.00977 0.00977 0.050781 0.2402344 0.2402344 0.21875 0.2304687 0.2089844 0.2207031 c 0.9099991,0.7699993 1.9908605,1.3406253 3.1308594,1.6406253 0.1599998,0.04 0.3087501,0.07914 0.46875,0.11914 0.5199995,0.13 1.0106254,0.239766 1.390625,0.509766 0.4599995,0.33 0.7390628,0.871407 1.0390625,1.441406 l 0.12109375,0.21875 c 0.3799996,0.719999 0.8098443,1.231485 1.3398438,1.771485 0.6099994,0.639999 1.36906305,0.739843 2.03906245,0.839843 0.4399995,0.06 0.8507031,0.118829 1.2207031,0.298828 0.989999,0.51 1.540469,1.20047 1.980469,2.480469 0.419999,1.229999 1.188595,1.800391 2.558593,1.900391 0.86,0.06 1.510235,0.279688 1.9902346,0.679687 0.669999,0.54 1.139766,1.340626 1.259765,2.140625 0.03,0.18 0.04078,0.380079 0.05078,0.580078 0.03,0.43 0.05023,0.919376 0.240234,1.359375 0.31,0.74 0.999766,0.870704 1.509766,0.970704 l 0.25,0.04883 c 0.319999,0.07 0.640703,0.129687 0.970703,0.179687 0.839999,0.14 1.629532,0.270938 2.269531,0.710938 0.35,0.249999 0.660235,0.58961 0.990234,1.099609 0.38,0.569999 0.680626,1.19961 0.890626,1.849609 l 0.04883,0.169922 c 0.1,0.3 0.191094,0.600391 0.371093,0.900391 0.43,0.719999 1.049063,0.780078 1.539063,0.830078 0.13,0.02 0.260625,0.03078 0.390625,0.05078 0.719999,0.14 1.229375,0.380001 1.609375,0.75 0.549999,0.55 0.899219,1.429064 1.199219,2.289063 0.349999,0.999999 0.690626,1.42 1.890625,1.5 0.389999,0.02 0.839687,0.199609 1.179687,0.349609 0.979999,0.43 1.800235,1.229689 2.240235,2.179688 0.119999,0.249999 0.210781,0.501719 0.300781,0.761718 0.08,0.22 0.16,0.438204 0.25,0.658203 0.379999,0.89 0.958594,1.771329 1.558593,2.361329 0.56,0.559999 1.360314,0.899219 2.070313,1.199218 0.27,0.12 0.531485,0.22961 0.771484,0.34961 2.159998,1.089999 3.779297,3.300781 3.779297,3.300781 l 0.810547,-0.589844 h -0.0098 c 0,0 -0.0093,-0.01095 -0.01758,-0.02539 l 0.0059,-0.0039 0.130859,-0.0918 -0.0098,-0.0098 c 10e-7,0 -0.002,-0.0053 -0.0039,-0.0078 l 0.0039,-0.002 0.128907,-0.08984 -0.01953,-0.0098 -0.0059,-0.0059 0.0059,-0.0039 0.140624,-0.09961 -0.0098,-0.0098 -0.0098,-0.02148 0.128907,-0.08984 h -0.0098 c 0,0 -0.0049,-0.007 -0.0078,-0.01367 l 0.0078,-0.0059 0.130859,-0.08984 -0.01172,-0.0098 -0.0098,-0.0098 0.140625,-0.09961 h 0.0098 l -0.01758,-0.01953 0.138672,-0.101562 c -0.0013,-0.0017 -0.0229,-0.02992 -0.02539,-0.0332 l 0.105468,-0.07617 c -4.46e-4,-5.74e-4 -0.0072,-0.01097 -0.0078,-0.01172 l 0.136719,-0.09961 c -9.31e-4,-0.0012 -0.01608,-0.02146 -0.01758,-0.02344 l 0.0078,-0.0059 0.130859,-0.08984 -0.02539,-0.01563 0.0039,-0.0039 0.140625,-0.09961 v -0.01172 c 0,0 -0.0079,-0.01064 -0.01563,-0.02344 l 0.125,-0.08594 h -0.0098 c 0,0 -0.0049,-0.007 -0.0078,-0.01367 l 0.0078,-0.0059 0.13086,-0.08984 h 0.0098 l -0.01953,-0.01953 -0.002,-0.0059 0.130859,-0.0957 -0.01563,-0.03125 0.126954,-0.08789 h -0.01172 l -0.0078,-0.01367 0.0078,-0.0059 0.130859,-0.08984 h -0.0098 l -0.01562,-0.01758 0.0059,-0.0039 0.138672,-0.09961 v -0.0098 c 0,0 -0.0079,-0.01064 -0.01563,-0.02344 l 0.126953,-0.08594 c 0,0 -0.0098,-0.01148 -0.0098,-0.02148 l 0.128907,-0.08984 h -0.0098 l -0.01563,-0.01563 0.0059,-0.0039 0.08984,-0.06055 v -0.03906 -0.06055 -0.259765 h 0.0098 c -0.47,-0.6 -1.970471,-2.390392 -3.980469,-3.400391 -0.25,-0.13 -0.52836,-0.249141 -0.818359,-0.369141 -0.66,-0.279999 -1.331485,-0.57 -1.771485,-1 -0.499999,-0.489999 -1.010078,-1.269297 -1.330078,-2.029296 -0.08,-0.2 -0.158516,-0.411329 -0.228516,-0.611329 -0.1,-0.289999 -0.210078,-0.569844 -0.330078,-0.839843 -0.539999,-1.169999 -1.550001,-2.149688 -2.75,-2.679688 -0.419999,-0.19 -0.98125,-0.399453 -1.53125,-0.439453 -0.869999,-0.05 -1.269219,-0.969689 -1.699219,-2.179687 l -0.130859,-0.330079 c -0.24,-0.659999 -0.738751,-1.261016 -1.46875,-1.791015 -0.499999,-0.35 -0.931094,-0.548907 -1.371094,-0.628906 -0.159999,-0.03 -0.309219,-0.03102 -0.449218,-0.04102 -0.21,0 -0.319688,-0.01031 -0.429688,-0.07031 -0.399999,-0.219999 -0.600313,-0.729531 -0.820312,-1.269531 -0.06,-0.16 -0.119454,-0.320938 -0.189453,-0.460937 -0.73,-1.639999 -2.281018,-2.868985 -4.041016,-3.208985 -0.14,-0.03 -0.279922,-0.05031 -0.419922,-0.07031 -0.38,-0.06 -0.749297,-0.119063 -1.029297,-0.289063 -0.489999,-0.289999 -0.711406,-0.910313 -0.941406,-1.570312 -0.14,-0.37 -0.268985,-0.74961 -0.458985,-1.09961 -0.319999,-0.599999 -0.800703,-1.101016 -1.220703,-1.541015 -0.489999,-0.51 -1.098985,-1.139844 -1.958984,-1.339844 -0.22,-0.06 -0.439922,-0.06984 -0.669922,-0.08984 -0.17,-0.01 -0.339766,-0.02055 -0.509765,-0.06055 C 9.5748374,17.60287 9.0342114,16.783259 8.6942114,16.18326 l -0.169921,-0.300781 c -0.42,-0.759999 -0.860626,-1.548594 -1.640625,-2.058594 -0.52,-0.34 -1.100157,-0.490625 -1.660157,-0.640625 -0.479999,-0.12 -0.930547,-0.240703 -1.310547,-0.470703 -0.649999,-0.4 -1.038984,-1.069063 -1.4589839,-1.789063 C 2.0439779,10.213495 1.6231956,9.4727908 0.90319635,8.9527913 0.36319685,8.5727917 -0.24703865,8.4228693 -0.83703805,8.2828694 -0.98703795,8.2528695 -1.136257,8.2134944 -1.2862568,8.1734944 -1.8962562,8.0034946 -2.496023,7.7532597 -3.0460225,7.4332601 h -0.3105469 -1.3789062 -0.00977 -0.2402344 -0.2304688 -0.2597656 -0.2304687 -0.2402344 z" />
  <path
     id="path184"
     style="isolation:isolate;fill:url(#linearGradient185)"
     d="m -11.338932,15.357975 -0.06055,0.06055 -0.11914,0.109375 0.0039,0.0059 -0.0039,0.0039 -0.04883,0.04883 -0.07227,0.06055 0.0039,0.0078 -0.0039,0.0039 -0.119141,0.109375 -0.0332,0.03516 -0.08789,0.08398 h 0.0098 l -0.128906,0.121094 h 0.0039 l -0.234375,0.21875 c 0.0019,0.002 0.004,0.0038 0.0059,0.0059 l -0.125,0.115234 c 0.0016,0.0017 0.0023,0.0042 0.0039,0.0059 l -0.05469,0.05469 v 0.002 l -0.0098,0.0078 v 0.0098 0.0098 0.0098 0.0098 0.05078 0.240235 0.240234 0.21875 0.230469 0.208984 0.220703 c 0.909999,0.77 1.99086,1.340626 3.1308594,1.640626 0.1599998,0.04 0.3087501,0.07914 0.46875,0.11914 0.5199995,0.13 1.0106254,0.239766 1.390625,0.509766 0.4599995,0.33 0.7390628,0.871407 1.0390625,1.441406 l 0.1210937,0.21875 c 0.3799996,0.719999 0.8098443,1.231485 1.3398438,1.771485 0.6099994,0.639999 1.3690631,0.739843 2.0390625,0.839843 0.4399995,0.06 0.8507031,0.118829 1.2207031,0.298828 0.98999899,0.51 1.54046899,1.20047 1.98046899,2.480469 0.419999,1.229999 1.18859501,1.800391 2.55859301,1.900391 0.86,0.06 1.510235,0.279688 1.9902346,0.679687 0.669999,0.54 1.139766,1.340626 1.259765,2.140625 0.03,0.18 0.04078,0.380079 0.05078,0.580078 0.03,0.43 0.05023,0.919376 0.240234,1.359375 0.31,0.74 0.999766,0.870704 1.509766,0.970704 l 0.25,0.04883 c 0.319999,0.07 0.640703,0.129687 0.970703,0.179687 0.839999,0.14 1.6295324,0.270938 2.2695314,0.710938 0.35,0.249999 0.660235,0.58961 0.990234,1.099609 0.38,0.569999 0.680626,1.19961 0.890626,1.849609 l 0.04883,0.169922 c 0.1,0.3 0.191094,0.600391 0.371093,0.900391 0.43,0.719999 1.049063,0.780078 1.539063,0.830078 0.13,0.02 0.260625,0.03078 0.390625,0.05078 0.719999,0.14 1.229375,0.380001 1.609375,0.75 0.549999,0.55 0.899219,1.429064 1.199219,2.289063 0.349999,0.999999 0.690626,1.42 1.890625,1.5 0.389999,0.02 0.839687,0.199609 1.179687,0.349609 0.979999,0.43 1.800235,1.229689 2.240235,2.179688 0.119999,0.249999 0.210781,0.501719 0.300781,0.761718 0.08,0.22 0.16,0.438204 0.25,0.658203 0.379999,0.89 0.958594,1.771329 1.558593,2.361329 0.56,0.559999 1.360314,0.899219 2.070313,1.199218 0.27,0.12 0.531485,0.22961 0.771484,0.34961 2.159998,1.089999 3.779297,3.300781 3.779297,3.300781 l 0.810547,-0.589844 h -0.0098 c 0,0 -0.0093,-0.01095 -0.01758,-0.02539 l 0.0059,-0.0039 0.130859,-0.0918 -0.0098,-0.0098 c 1e-6,0 -0.002,-0.0053 -0.0039,-0.0078 l 0.0039,-0.002 0.128907,-0.08984 -0.01953,-0.0098 -0.0059,-0.0059 0.0059,-0.0039 0.140624,-0.09961 -0.0098,-0.0098 -0.0098,-0.02148 0.128907,-0.08984 h -0.0098 c 0,0 -0.0049,-0.007 -0.0078,-0.01367 l 0.0078,-0.0059 0.130859,-0.08984 -0.01172,-0.0098 -0.0098,-0.0098 0.140625,-0.09961 h 0.0098 l -0.01758,-0.01953 0.138672,-0.101562 c -0.0013,-0.0017 -0.0229,-0.02992 -0.02539,-0.0332 l 0.105468,-0.07617 c -4.46e-4,-5.74e-4 -0.0072,-0.01097 -0.0078,-0.01172 l 0.136719,-0.09961 c -9.31e-4,-0.0012 -0.01608,-0.02146 -0.01758,-0.02344 l 0.0078,-0.0059 0.130859,-0.08984 -0.02539,-0.01563 0.0039,-0.0039 0.140625,-0.09961 v -0.01172 c 0,0 -0.0079,-0.01064 -0.01563,-0.02344 l 0.125,-0.08594 h -0.0098 c 0,0 -0.0049,-0.007 -0.0078,-0.01367 l 0.0078,-0.0059 0.13086,-0.08984 h 0.0098 l -0.01953,-0.01953 -0.002,-0.0059 0.130859,-0.0957 -0.01563,-0.03125 0.126954,-0.08789 h -0.01172 l -0.0078,-0.01367 0.0078,-0.0059 0.130859,-0.08984 h -0.0098 l -0.01562,-0.01758 0.0059,-0.0039 0.138672,-0.09961 v -0.0098 c 0,0 -0.0079,-0.01064 -0.01563,-0.02344 l 0.126953,-0.08594 c 0,0 -0.0098,-0.01148 -0.0098,-0.02148 l 0.128907,-0.08984 h -0.0098 l -0.01563,-0.01563 0.0059,-0.0039 0.08984,-0.06055 v -0.03906 -0.06055 -0.259765 h 0.0098 c -0.47,-0.6 -1.970471,-2.390392 -3.980469,-3.400391 -0.25,-0.13 -0.52836,-0.249141 -0.818359,-0.369141 -0.66,-0.279999 -1.331485,-0.57 -1.771485,-1 -0.499999,-0.489999 -1.010078,-1.269297 -1.330078,-2.029296 -0.08,-0.2 -0.158516,-0.411329 -0.228516,-0.611329 -0.1,-0.289999 -0.210078,-0.569844 -0.330078,-0.839843 -0.539999,-1.169999 -1.550001,-2.149688 -2.75,-2.679688 -0.419999,-0.19 -0.98125,-0.399453 -1.53125,-0.439453 -0.869999,-0.05 -1.269219,-0.969689 -1.699219,-2.179687 l -0.130859,-0.330079 c -0.24,-0.659999 -0.738751,-1.261016 -1.46875,-1.791015 -0.499999,-0.35 -0.931094,-0.548907 -1.371094,-0.628906 -0.159999,-0.03 -0.309219,-0.03102 -0.449218,-0.04102 -0.21,0 -0.319688,-0.01031 -0.429688,-0.07031 -0.399999,-0.219999 -0.600313,-0.729531 -0.820312,-1.269531 -0.06,-0.16 -0.119454,-0.320938 -0.189453,-0.460937 -0.73,-1.639999 -2.281018,-2.868985 -4.041016,-3.208985 -0.14,-0.03 -0.279922,-0.05031 -0.419922,-0.07031 -0.38,-0.06 -0.749297,-0.119063 -1.029297,-0.289063 -0.489999,-0.289999 -0.711406,-0.910313 -0.9414064,-1.570312 -0.14,-0.37 -0.268985,-0.74961 -0.458985,-1.09961 -0.319999,-0.599999 -0.800703,-1.101016 -1.220703,-1.541015 -0.489999,-0.51 -1.098985,-1.139844 -1.958984,-1.339844 -0.22,-0.06 -0.439922,-0.06984 -0.669922,-0.08984 -0.17,-0.01 -0.339766,-0.02055 -0.509765,-0.06055 C 4.2916939,25.527585 3.7510679,24.707974 3.4110679,24.107975 l -0.169921,-0.300781 c -0.42,-0.759999 -0.860626,-1.548594 -1.640625,-2.058594 -0.52,-0.34 -1.10015701,-0.490625 -1.66015701,-0.640625 -0.479999,-0.12 -0.930547,-0.240703 -1.31054699,-0.470703 -0.649999,-0.4 -1.038984,-1.069063 -1.4589839,-1.789063 -0.4099996,-0.709999 -0.8307819,-1.450703 -1.5507812,-1.970702 -0.5399995,-0.38 -1.150235,-0.529922 -1.7402344,-0.669922 -0.1499999,-0.03 -0.2992189,-0.06938 -0.4492187,-0.109375 -0.6099994,-0.17 -1.2097662,-0.420235 -1.7597657,-0.740235 h -0.3105469 -1.3789061 -0.0098 -0.240235 -0.230468 -0.259766 -0.230469 -0.240234 z" />
  <path
     id="path185"
     style="isolation:isolate;fill:url(#linearGradient186)"
     d="m -17.912145,22.852667 -0.06055,0.06055 -0.11914,0.109375 0.0039,0.0059 -0.0039,0.0039 -0.04883,0.04883 -0.07227,0.06055 0.0039,0.0078 -0.0039,0.0039 -0.119141,0.109375 -0.0332,0.03516 -0.08789,0.08398 h 0.0098 l -0.128906,0.121094 h 0.0039 l -0.234375,0.21875 c 0.0019,0.002 0.004,0.0038 0.0059,0.0059 l -0.125,0.115234 c 0.0016,0.0017 0.0023,0.0042 0.0039,0.0059 l -0.05469,0.05469 v 0.002 l -0.0098,0.0078 v 0.0098 0.0098 0.0098 0.0098 0.05078 0.240235 0.240234 0.21875 0.230469 0.208984 0.220703 c 0.909999,0.77 1.99086,1.340626 3.130859,1.640626 0.16,0.04 0.30875,0.07914 0.46875,0.11914 0.519999,0.13 1.010625,0.239766 1.390625,0.509766 0.459999,0.33 0.739063,0.871407 1.039062,1.441406 l 0.121094,0.21875 c 0.38,0.719999 0.809844,1.231485 1.339844,1.771485 0.609999,0.639999 1.369063,0.739843 2.0390625,0.839843 0.4399995,0.06 0.8507031,0.118829 1.2207031,0.298828 0.9899989,0.51 1.5404689,1.20047 1.9804689,2.480469 0.419999,1.229999 1.1885951,1.800391 2.5585931,1.900391 0.86,0.06 1.510235,0.279688 1.9902346,0.679687 0.669999,0.54 1.13976596,1.340626 1.25976496,2.140625 0.03,0.18 0.04078,0.380079 0.05078,0.580078 0.03,0.43 0.05023,0.919376 0.240234,1.359375 0.31,0.74 0.999766,0.870704 1.50976604,0.970704 l 0.25,0.04883 c 0.319999,0.07 0.640703,0.129687 0.970703,0.179687 0.839999,0.14 1.6295324,0.270938 2.2695314,0.710938 0.35,0.249999 0.660235,0.58961 0.990234,1.099609 0.38,0.569999 0.680626,1.19961 0.890626,1.849609 l 0.04883,0.169922 c 0.1,0.3 0.191094,0.600391 0.371093,0.900391 0.43,0.719999 1.049063,0.780078 1.539063,0.830078 0.13,0.02 0.260625,0.03078 0.390625,0.05078 0.719999,0.14 1.2293754,0.380001 1.6093754,0.75 0.549999,0.55 0.899219,1.429064 1.199219,2.289063 0.349999,0.999999 0.690626,1.42 1.890625,1.5 0.389999,0.02 0.839687,0.199609 1.179687,0.349609 0.979999,0.43 1.800235,1.229689 2.240235,2.179688 0.119999,0.249999 0.210781,0.501719 0.300781,0.761718 0.08,0.22 0.16,0.438204 0.25,0.658203 0.379999,0.89 0.958594,1.771329 1.558593,2.361329 0.56,0.559999 1.360314,0.899219 2.070313,1.199218 0.27,0.12 0.531485,0.22961 0.771484,0.34961 2.159998,1.089999 3.779297,3.300781 3.779297,3.300781 l 0.810547,-0.589844 h -0.0098 c 0,0 -0.0093,-0.01095 -0.01758,-0.02539 l 0.0059,-0.0039 0.130859,-0.0918 -0.0098,-0.0098 c 10e-7,0 -0.002,-0.0053 -0.0039,-0.0078 l 0.0039,-0.002 0.128907,-0.08984 -0.01953,-0.0098 -0.0059,-0.0059 0.0059,-0.0039 0.140624,-0.09961 -0.0098,-0.0098 -0.0098,-0.02148 0.128907,-0.08984 h -0.0098 c 0,0 -0.0049,-0.007 -0.0078,-0.01367 l 0.0078,-0.0059 0.130859,-0.08984 -0.01172,-0.0098 -0.0098,-0.0098 0.140625,-0.09961 h 0.0098 l -0.01758,-0.01953 0.138672,-0.101562 c -0.0013,-0.0017 -0.0229,-0.02992 -0.02539,-0.0332 l 0.105468,-0.07617 c -4.46e-4,-5.74e-4 -0.0072,-0.01097 -0.0078,-0.01172 l 0.136719,-0.09961 c -9.31e-4,-0.0012 -0.01608,-0.02146 -0.01758,-0.02344 l 0.0078,-0.0059 0.130859,-0.08984 -0.02539,-0.01563 0.0039,-0.0039 0.140625,-0.09961 v -0.01172 c 0,0 -0.0079,-0.01064 -0.01563,-0.02344 l 0.125,-0.08594 h -0.0098 c 0,0 -0.0049,-0.007 -0.0078,-0.01367 l 0.0078,-0.0059 0.13086,-0.08984 h 0.0098 l -0.01953,-0.01953 -0.002,-0.0059 0.130859,-0.0957 -0.01563,-0.03125 0.126954,-0.08789 h -0.01172 l -0.0078,-0.01367 0.0078,-0.0059 0.130859,-0.08984 h -0.0098 l -0.01562,-0.01758 0.0059,-0.0039 0.138672,-0.09961 v -0.0098 c 0,0 -0.0079,-0.01064 -0.01563,-0.02344 l 0.126953,-0.08594 c 0,0 -0.0098,-0.01148 -0.0098,-0.02148 l 0.128907,-0.08984 h -0.0098 l -0.01563,-0.01563 0.0059,-0.0039 0.08984,-0.06055 v -0.03906 -0.06055 -0.259765 h 0.0098 c -0.47,-0.6 -1.970471,-2.390392 -3.980469,-3.400391 -0.25,-0.13 -0.52836,-0.249141 -0.818359,-0.369141 -0.66,-0.279999 -1.331485,-0.57 -1.771485,-1 -0.499999,-0.489999 -1.010078,-1.269297 -1.330078,-2.029296 -0.08,-0.2 -0.158516,-0.411329 -0.228516,-0.611329 -0.1,-0.289999 -0.210078,-0.569844 -0.330078,-0.839843 -0.539999,-1.169999 -1.550001,-2.149688 -2.75,-2.679688 -0.419999,-0.19 -0.98125,-0.399453 -1.53125,-0.439453 -0.869999,-0.05 -1.269219,-0.969689 -1.699219,-2.179687 l -0.130859,-0.330079 c -0.24,-0.659999 -0.738751,-1.261016 -1.46875,-1.791015 -0.499999,-0.35 -0.931094,-0.548907 -1.371094,-0.628906 -0.159999,-0.03 -0.309219,-0.03102 -0.449218,-0.04102 -0.21,0 -0.319688,-0.01031 -0.429688,-0.07031 -0.399999,-0.219999 -0.600313,-0.729531 -0.8203124,-1.269531 -0.06,-0.16 -0.119454,-0.320938 -0.189453,-0.460937 -0.73,-1.639999 -2.281018,-2.868985 -4.041016,-3.208985 -0.14,-0.03 -0.279922,-0.05031 -0.419922,-0.07031 -0.38,-0.06 -0.749297,-0.119063 -1.029297,-0.289063 -0.489999,-0.289999 -0.711406,-0.910313 -0.9414064,-1.570312 -0.14,-0.37 -0.268985,-0.74961 -0.458985,-1.09961 -0.319999,-0.599999 -0.800703,-1.101016 -1.220703,-1.541015 -0.489999,-0.51 -1.09898504,-1.139844 -1.95898404,-1.339844 -0.22,-0.06 -0.439922,-0.06984 -0.66992196,-0.08984 -0.17,-0.01 -0.339766,-0.02055 -0.509765,-0.06055 -0.7598247,-0.179843 -1.3004507,-0.999454 -1.6404507,-1.599453 l -0.169921,-0.300781 c -0.42,-0.759999 -0.860626,-1.548594 -1.640625,-2.058594 -0.52,-0.34 -1.1001571,-0.490625 -1.6601571,-0.640625 -0.479999,-0.12 -0.930547,-0.240703 -1.3105469,-0.470703 -0.649999,-0.4 -1.038984,-1.069063 -1.4589839,-1.789063 -0.4099996,-0.709999 -0.8307816,-1.450703 -1.5507816,-1.970702 -0.539999,-0.38 -1.150235,-0.529922 -1.740234,-0.669922 -0.15,-0.03 -0.299219,-0.06938 -0.449219,-0.109375 -0.609999,-0.17 -1.209766,-0.420235 -1.759765,-0.740235 h -0.310547 -1.378906 -0.0098 -0.240235 -0.230468 -0.259766 -0.230469 -0.240234 z" />
  <path
     id="path186"
     style="isolation:isolate;fill:url(#linearGradient187)"
     d="m 9.6707787,-5.9588944 -0.060547,0.060547 -0.1191406,0.1093751 0.00391,0.00586 -0.00391,0.00391 -0.048828,0.048828 -0.072266,0.060547 0.00391,0.00781 -0.00391,0.00391 -0.1191406,0.109375 -0.033203,0.035156 -0.087891,0.083984 h 0.00977 l -0.1289063,0.1210937 h 0.00391 l -0.234375,0.21875 c 0.00187,0.00203 0.00399,0.00383 0.00586,0.00586 l -0.125,0.1152344 c 0.00157,0.0017 0.00233,0.00417 0.00391,0.00586 l -0.054687,0.054687 v 0.00195 l -0.00977,0.00781 v 0.00977 0.00977 0.00977 0.00977 0.050781 0.2402344 0.2402344 0.21875 0.2304687 0.2089844 0.2207031 c 0.9099991,0.7699993 1.9908608,1.3406253 3.1308598,1.640625 0.159999,0.04 0.30875,0.079141 0.46875,0.1191406 0.519999,0.1299999 1.010625,0.2397659 1.390625,0.5097657 0.459999,0.32999957 0.739062,0.87140677 1.039062,1.44140617 l 0.121094,0.21875 c 0.379999,0.71999933 0.809844,1.23148493 1.339844,1.77148443 0.609999,0.6399994 1.369063,0.7398438 2.039062,0.8398437 0.44,0.06 0.850703,0.1188284 1.220703,0.2988282 0.989999,0.5099995 1.540469,1.2004696 1.980469,2.4804686 0.419999,1.229999 1.188595,1.800391 2.558593,1.900391 0.86,0.06 1.510235,0.279688 1.990235,0.679687 0.669999,0.54 1.139766,1.340626 1.259765,2.1406254 0.03,0.18 0.04078,0.380079 0.05078,0.580078 0.03,0.43 0.05023,0.919376 0.240234,1.359375 0.31,0.74 0.999766,0.870704 1.509766,0.970704 l 0.25,0.04883 c 0.319999,0.07 0.640703,0.129687 0.970703,0.179687 0.839999,0.14 1.629532,0.270938 2.269531,0.710938 0.35,0.249999 0.660235,0.58961 0.990234,1.099609 0.38,0.569999 0.680626,1.19961 0.890626,1.849609 l 0.04883,0.169922 c 0.1,0.3 0.191094,0.600391 0.371093,0.900391 0.43,0.719999 1.049063,0.780078 1.539063,0.830078 0.13,0.02 0.260625,0.03078 0.390625,0.05078 0.719999,0.14 1.229375,0.380001 1.609375,0.75 0.549999,0.55 0.899219,1.429064 1.199219,2.289063 0.349999,0.999999 0.690626,1.42 1.890625,1.5 0.389999,0.02 0.839687,0.199609 1.179687,0.349609 0.979999,0.43 1.800235,1.229689 2.240235,2.179688 0.119999,0.249999 0.210781,0.501719 0.300781,0.761718 0.08,0.22 0.16,0.438204 0.25,0.658203 0.379999,0.89 0.958594,1.771329 1.558593,2.361329 0.56,0.559999 1.360314,0.899219 2.070313,1.199218 0.27,0.12 0.531485,0.22961 0.771484,0.34961 2.159998,1.089999 3.779297,3.300781 3.779297,3.300781 l 0.810547,-0.589844 h -0.0098 c 0,0 -0.0093,-0.01095 -0.01758,-0.02539 l 0.0059,-0.0039 0.130859,-0.0918 -0.0098,-0.0098 c 1e-6,0 -0.002,-0.0053 -0.0039,-0.0078 l 0.0039,-0.002 0.128907,-0.08984 -0.01953,-0.0098 -0.0059,-0.0059 0.0059,-0.0039 0.140624,-0.09961 -0.0098,-0.0098 -0.0098,-0.02148 0.128907,-0.08984 h -0.0098 c 0,0 -0.0049,-0.007 -0.0078,-0.01367 l 0.0078,-0.0059 0.130859,-0.08984 -0.01172,-0.0098 -0.0098,-0.0098 0.140625,-0.09961 h 0.0098 l -0.01758,-0.01953 0.138672,-0.101562 c -0.0013,-0.0017 -0.0229,-0.02992 -0.02539,-0.0332 l 0.105468,-0.07617 c -4.46e-4,-5.74e-4 -0.0072,-0.01097 -0.0078,-0.01172 l 0.136719,-0.09961 c -9.31e-4,-0.0012 -0.01608,-0.02146 -0.01758,-0.02344 l 0.0078,-0.0059 0.130859,-0.08984 -0.02539,-0.01563 0.0039,-0.0039 0.140625,-0.09961 v -0.01172 c 0,0 -0.0079,-0.01064 -0.01563,-0.02344 l 0.125,-0.08594 h -0.0098 c 0,0 -0.0049,-0.007 -0.0078,-0.01367 l 0.0078,-0.0059 0.13086,-0.08984 h 0.0098 l -0.01953,-0.01953 -0.002,-0.0059 0.130859,-0.0957 -0.01563,-0.03125 0.126954,-0.08789 h -0.01172 l -0.0078,-0.01367 0.0078,-0.0059 0.130859,-0.08984 h -0.0098 l -0.01562,-0.01758 0.0059,-0.0039 0.138672,-0.09961 v -0.0098 c 0,0 -0.0079,-0.01064 -0.01563,-0.02344 l 0.126953,-0.08594 c 0,0 -0.0098,-0.01149 -0.0098,-0.02148 l 0.128907,-0.08984 h -0.0098 l -0.01563,-0.01563 0.0059,-0.0039 0.08984,-0.06055 v -0.03906 -0.06055 -0.259765 h 0.0098 c -0.47,-0.6 -1.970471,-2.390392 -3.980469,-3.400391 -0.25,-0.13 -0.52836,-0.249141 -0.818359,-0.369141 -0.66,-0.279999 -1.331485,-0.57 -1.771485,-1 -0.499999,-0.489999 -1.010078,-1.269297 -1.330078,-2.029296 -0.08,-0.2 -0.158516,-0.411329 -0.228516,-0.611329 -0.1,-0.289999 -0.210078,-0.569844 -0.330078,-0.839843 -0.539999,-1.169999 -1.550001,-2.149688 -2.75,-2.679688 -0.419999,-0.19 -0.98125,-0.399453 -1.53125,-0.439453 -0.869999,-0.05 -1.269219,-0.969689 -1.699219,-2.179687 l -0.130859,-0.330079 c -0.24,-0.659999 -0.738751,-1.261016 -1.46875,-1.791015 -0.499999,-0.35 -0.931094,-0.548907 -1.371094,-0.628906 -0.159999,-0.03 -0.309219,-0.03102 -0.449218,-0.04102 -0.21,0 -0.319688,-0.01031 -0.429688,-0.07031 -0.399999,-0.219999 -0.600313,-0.729531 -0.820312,-1.269531 -0.06,-0.16 -0.119454,-0.320938 -0.189453,-0.460937 -0.73,-1.639999 -2.281018,-2.868985 -4.041016,-3.208985 -0.14,-0.03 -0.279922,-0.05031 -0.419922,-0.07031 -0.38,-0.06 -0.749297,-0.119063 -1.029297,-0.289063 -0.489999,-0.2899994 -0.711406,-0.9103134 -0.941406,-1.5703124 -0.14,-0.37 -0.268985,-0.74961 -0.458985,-1.09961 -0.319999,-0.599999 -0.800703,-1.101016 -1.220703,-1.541015 -0.489999,-0.51 -1.098985,-1.139844 -1.958984,-1.339844 -0.22,-0.06 -0.439922,-0.069844 -0.669922,-0.089844 -0.17,-0.01 -0.339766,-0.020547 -0.509765,-0.060547 -0.76,-0.179999 -1.300626,-0.9996096 -1.640626,-1.599609 L 24.250857,2.4903244 c -0.42,-0.7599993 -0.860626,-1.54859433 -1.640625,-2.05859383 -0.52,-0.3399997 -1.100157,-0.4906251 -1.660157,-0.640625 -0.479999,-0.1199999 -0.930547,-0.2407034 -1.310547,-0.4707031 C 18.989529,-1.0795971 18.600544,-1.7486607 18.180544,-2.46866 c -0.409999,-0.7099993 -0.830782,-1.4507037 -1.550781,-1.9707032 -0.539999,-0.3799996 -1.150235,-0.529922 -1.740234,-0.6699218 -0.15,-0.03 -0.299219,-0.069375 -0.449219,-0.109375 -0.609999,-0.1699999 -1.209766,-0.4202347 -1.759766,-0.7402344 h -0.310547 -1.378906 -0.0098 -0.240235 -0.230469 -0.259765 -0.230469 -0.2402343 z" />
  <path
     id="path187"
     style="isolation:isolate;fill:url(#linearGradient188)"
     d="m 18.025517,-12.163516 -0.06055,0.06055 -0.11914,0.109375 0.0039,0.0059 -0.0039,0.0039 -0.04883,0.04883 -0.07227,0.06055 0.0039,0.0078 -0.0039,0.0039 -0.119141,0.109375 -0.0332,0.03516 -0.08789,0.08398 h 0.0098 l -0.128906,0.121093 h 0.0039 l -0.234375,0.21875 c 0.0019,0.002 0.004,0.0038 0.0059,0.0059 l -0.125,0.115235 c 0.0016,0.0017 0.0023,0.0042 0.0039,0.0059 l -0.05469,0.05469 v 0.0019 l -0.0098,0.0078 v 0.0098 0.0098 0.0098 0.0098 0.05078 0.240234 0.240235 0.21875 0.230468 0.2089847 0.2207031 c 0.909999,0.7699993 1.990861,1.3406253 3.13086,1.640625 0.159999,0.04 0.30875,0.079141 0.46875,0.1191406 0.519999,0.1299999 1.010625,0.2397659 1.390625,0.5097657 0.459999,0.3299995 0.739062,0.8714067 1.039062,1.4414061 l 0.121094,0.21875 c 0.379999,0.7199994 0.809844,1.231485 1.339844,1.7714845 0.609999,0.6399994 1.369063,0.7398438 2.039062,0.8398437 0.44,0.06 0.850703,0.1188284 1.220703,0.2988282 0.989999,0.5099995 1.540469,1.2004696 1.980469,2.48046857 0.419999,1.229999 1.188595,1.80039103 2.558593,1.90039103 0.86,0.06 1.510235,0.279688 1.990235,0.679687 0.669999,0.54 1.139766,1.340626 1.259765,2.1406254 0.03,0.18 0.04078,0.380079 0.05078,0.580078 0.03,0.43 0.05023,0.919376 0.240234,1.359375 0.31,0.74 0.999766,0.870704 1.509766,0.970704 l 0.25,0.04883 c 0.319999,0.07 0.640703,0.129687 0.970703,0.179687 0.839999,0.14 1.629532,0.270938 2.269531,0.710938 0.35,0.249999 0.660235,0.58961 0.990234,1.099609 0.38,0.569999 0.680626,1.1996104 0.890626,1.8496094 l 0.04883,0.169922 c 0.1,0.3 0.191094,0.600391 0.371093,0.900391 0.43,0.719999 1.049063,0.780078 1.539063,0.830078 0.13,0.02 0.260625,0.03078 0.390625,0.05078 0.719999,0.14 1.229375,0.380001 1.609375,0.75 0.549999,0.55 0.899219,1.429064 1.199219,2.289063 0.349999,0.999999 0.690626,1.42 1.890625,1.5 0.389999,0.02 0.839687,0.199609 1.179687,0.349609 0.979999,0.43 1.800235,1.229689 2.240235,2.179688 0.119999,0.249999 0.210781,0.501719 0.300781,0.761718 0.08,0.22 0.16,0.438204 0.25,0.658203 0.379999,0.89 0.958594,1.771329 1.558593,2.361329 0.56,0.559999 1.360314,0.899219 2.070313,1.199218 0.27,0.12 0.531485,0.22961 0.771484,0.34961 2.159998,1.089999 3.779297,3.300781 3.779297,3.300781 l 0.810547,-0.589844 h -0.0098 c 0,0 -0.0093,-0.01095 -0.01758,-0.02539 l 0.0059,-0.0039 0.130859,-0.0918 -0.0098,-0.0098 c 10e-7,0 -0.002,-0.0053 -0.0039,-0.0078 l 0.0039,-0.002 0.128907,-0.08984 -0.01953,-0.0098 -0.0059,-0.0059 0.0059,-0.0039 0.140624,-0.09961 -0.0098,-0.0098 -0.0098,-0.02148 0.128907,-0.08984 h -0.0098 c 0,0 -0.0049,-0.007 -0.0078,-0.01367 l 0.0078,-0.0059 0.130859,-0.08984 -0.01172,-0.0098 -0.0098,-0.0098 0.140625,-0.09961 h 0.0098 l -0.01758,-0.01953 0.138672,-0.101562 c -0.0013,-0.0017 -0.0229,-0.02992 -0.02539,-0.0332 l 0.105468,-0.07617 c -4.46e-4,-5.74e-4 -0.0072,-0.01097 -0.0078,-0.01172 l 0.136719,-0.09961 c -9.31e-4,-0.0012 -0.01608,-0.02146 -0.01758,-0.02344 l 0.0078,-0.0059 0.130859,-0.08984 -0.02539,-0.01563 0.0039,-0.0039 0.140625,-0.09961 v -0.01172 c 0,0 -0.0079,-0.01064 -0.01563,-0.02344 l 0.125,-0.08594 h -0.0098 c 0,0 -0.0049,-0.007 -0.0078,-0.01367 l 0.0078,-0.0059 0.13086,-0.08984 h 0.0098 l -0.01953,-0.01953 -0.002,-0.0059 0.130859,-0.0957 -0.01563,-0.03125 0.126954,-0.08789 h -0.01172 l -0.0078,-0.01367 0.0078,-0.0059 0.130859,-0.08984 h -0.0098 l -0.01562,-0.01758 0.0059,-0.0039 0.138672,-0.09961 v -0.0098 c 0,0 -0.0079,-0.01064 -0.01563,-0.02344 l 0.126953,-0.08594 c 0,0 -0.0098,-0.01149 -0.0098,-0.02148 l 0.128907,-0.08984 h -0.0098 l -0.01563,-0.01563 0.0059,-0.0039 0.08984,-0.06055 v -0.03906 -0.06055 -0.259765 h 0.0098 c -0.47,-0.6 -1.970471,-2.390392 -3.980469,-3.400391 -0.25,-0.13 -0.52836,-0.249141 -0.818359,-0.369141 -0.66,-0.279999 -1.331485,-0.57 -1.771485,-1 -0.499999,-0.489999 -1.010078,-1.269297 -1.330078,-2.029296 -0.08,-0.2 -0.158516,-0.411329 -0.228516,-0.611329 -0.1,-0.289999 -0.210078,-0.569844 -0.330078,-0.839843 -0.539999,-1.169999 -1.550001,-2.149688 -2.75,-2.679688 -0.419999,-0.19 -0.98125,-0.399453 -1.53125,-0.439453 -0.869999,-0.05 -1.269219,-0.969689 -1.699219,-2.179687 l -0.130859,-0.330079 c -0.24,-0.659999 -0.738751,-1.261016 -1.46875,-1.7910154 -0.499999,-0.35 -0.931094,-0.548907 -1.371094,-0.628906 -0.159999,-0.03 -0.309219,-0.03102 -0.449218,-0.04102 -0.21,0 -0.319688,-0.01031 -0.429688,-0.07031 -0.399999,-0.219999 -0.600313,-0.729531 -0.820312,-1.269531 -0.06,-0.16 -0.119454,-0.320938 -0.189453,-0.460937 -0.73,-1.639999 -2.281018,-2.868985 -4.041016,-3.208985 -0.14,-0.03 -0.279922,-0.05031 -0.419922,-0.07031 -0.38,-0.06 -0.749297,-0.119063 -1.029297,-0.289063 -0.489999,-0.2899994 -0.711406,-0.9103134 -0.941406,-1.5703124 -0.14,-0.37 -0.268985,-0.74961 -0.458985,-1.09961 -0.319999,-0.59999903 -0.800703,-1.10101603 -1.220703,-1.54101503 -0.489999,-0.51 -1.098985,-1.13984397 -1.958984,-1.33984397 -0.22,-0.06 -0.439922,-0.069844 -0.669922,-0.089844 -0.17,-0.01 -0.339766,-0.020547 -0.509765,-0.060547 -0.76,-0.179999 -1.300626,-0.9996096 -1.640626,-1.599609 l -0.169734,-0.3003638 c -0.42,-0.7599993 -0.860626,-1.5485944 -1.640625,-2.0585939 -0.52,-0.3399997 -1.100157,-0.4906251 -1.660157,-0.640625 -0.479999,-0.1199999 -0.930547,-0.2407034 -1.310547,-0.4707031 -0.649999,-0.3999995 -1.038984,-1.0690631 -1.458984,-1.7890624 -0.409999,-0.7099993 -0.830782,-1.450704 -1.550781,-1.970703 -0.539999,-0.38 -1.150235,-0.529922 -1.740234,-0.669922 -0.15,-0.03 -0.299219,-0.06937 -0.449219,-0.109375 -0.609999,-0.17 -1.209766,-0.420235 -1.759766,-0.740234 h -0.310547 -1.378906 -0.0098 -0.240235 -0.230469 -0.259765 -0.230469 -0.240235 z" />
</svg>
