<?xml version="1.0" encoding="UTF-8"?>
<svg xmlns="http://www.w3.org/2000/svg" viewBox="0 0 13.88 13.68">
  <defs>
    <style>
      .cls-1 {
        opacity: .61;
      }

      .cls-2 {
        opacity: .57;
      }

      .cls-3 {
        fill: red;
      }

      .cls-4 {
        stroke-width: 0px;
      }

      .cls-4, .cls-5, .cls-6, .cls-7 {
        fill: none;
        stroke: #000;
        stroke-linecap: round;
        stroke-linejoin: round;
      }

      .cls-4, .cls-7 {
        stroke-dasharray: .1 .1;
      }

      .cls-5 {
        stroke-width: .25px;
      }

      .cls-6 {
        stroke-width: .05px;
      }

      .cls-7 {
        stroke-width: .03px;
      }

      .cls-8 {
        fill: #0013ff;
      }

      .cls-9 {
        fill: #00ff12;
      }
    </style>
  </defs>
  <g id="Make2D::Visible::Curves" class="cls-1">
    <g>
      <g>
        <path class="cls-9" d="M13.36,3.63c.18.34.27.73.27,1.11s-.09.76-.27,1.11c-.06.12-.14.25-.23.37-.2.27-.44.48-.73.65-.37.22-.8.33-1.22.33s-.85-.11-1.22-.33c-.29-.16-.54-.38-.74-.65-.09-.12-.16-.24-.23-.37-.17-.34-.26-.73-.26-1.11s.09-.76.26-1.11c.07-.12.14-.25.23-.37.2-.27.45-.48.74-.65.37-.22.8-.33,1.22-.33s.85.11,1.22.33c.29.16.54.38.73.65.09.12.16.24.23.37Z"/>
        <polygon class="cls-8" points="6.94 10.49 9.48 9.03 9.48 11.97 6.94 13.44 6.94 10.49"/>
        <polygon class="cls-8" points="9.48 9.03 6.94 10.49 4.39 9.03 6.94 7.55 9.48 9.03"/>
        <polygon class="cls-8" points="6.94 10.49 6.94 13.44 4.39 11.97 4.39 9.03 6.94 10.49"/>
        <path class="cls-3" d="M4.64,5.61c.21.53-.18.96-.59,1.2-.66.38-1.58.44-2.31.3-.37-.08-.77-.23-1.08-.47-.31-.25-.52-.62-.36-1.04C1.03,3.82,1.75,2.04,2.48.25c.73,1.79,1.44,3.57,2.17,5.36Z"/>
      </g>
      <g>
        <path class="cls-6" d="M12.4,6.86c-.37.22-.8.33-1.22.33s-.85-.11-1.22-.33c-.29-.16-.54-.38-.74-.65-.09-.12-.16-.24-.23-.37-.17-.34-.26-.73-.26-1.11s.09-.76.26-1.11c.07-.12.14-.25.23-.37.2-.27.45-.48.74-.65.37-.22.8-.33,1.22-.33s.85.11,1.22.33c.29.16.54.38.73.65.09.12.16.24.23.37.18.34.27.73.27,1.11s-.09.76-.27,1.11c-.06.12-.14.25-.23.37-.2.27-.44.48-.73.65Z"/>
        <line class="cls-6" x1="6.94" y1="10.49" x2="9.48" y2="9.03"/>
        <line class="cls-6" x1="4.39" y1="11.97" x2="6.94" y2="13.44"/>
        <line class="cls-6" x1="6.94" y1="7.55" x2="4.39" y2="9.03"/>
        <path class="cls-6" d="M.31,5.61c-.16.41.05.79.36,1.04.3.24.71.39,1.08.47.73.14,1.65.08,2.31-.3"/>
        <line class="cls-6" x1="9.48" y1="11.97" x2="9.48" y2="9.03"/>
        <path class="cls-6" d="M2.48.25c.73,1.79,1.44,3.57,2.17,5.36"/>
        <line class="cls-6" x1="6.94" y1="13.44" x2="9.48" y2="11.97"/>
        <path class="cls-6" d="M.31,5.61C1.03,3.82,1.75,2.04,2.48.25"/>
        <line class="cls-6" x1="4.39" y1="11.97" x2="4.39" y2="9.03"/>
        <line class="cls-6" x1="4.39" y1="9.03" x2="6.94" y2="10.49"/>
        <line class="cls-6" x1="6.94" y1="13.44" x2="6.94" y2="10.49"/>
        <path class="cls-6" d="M4.05,6.81c.41-.24.8-.67.59-1.2"/>
        <line class="cls-6" x1="9.48" y1="9.03" x2="6.94" y2="7.55"/>
      </g>
    </g>
  </g>
  <g id="Make2D::Hidden::Curves" class="cls-2">
    <line class="cls-4" x1="2.48" y1=".25" x2="4.05" y2="4.99"/>
    <line class="cls-4" x1="2.48" y1=".25" x2=".9" y2="4.99"/>
    <line class="cls-4" x1="6.94" y1="10.5" x2="6.94" y2="7.56"/>
    <line class="cls-4" x1="9.48" y1="11.97" x2="6.94" y2="10.5"/>
    <line class="cls-4" x1="6.94" y1="10.5" x2="4.39" y2="11.97"/>
    <path class="cls-4" d="M4.64,5.61s-.02-.05-.03-.07"/>
    <path class="cls-4" d="M4.61,5.54c-.19-.37-.61-.6-.96-.73-.4-.14-.79-.2-1.21-.19-.42,0-.81.07-1.21.22-.35.14-.76.39-.92.77"/>
  </g>
  <g id="Make2D::Visible::isocrv">
    <path class="cls-7" d="M1.39,2.93c.08-.19.29-.32.46-.39.2-.08.39-.11.6-.11.33,0,.9.1,1.09.46"/>
    <path class="cls-7" d="M3.56,2.93c.11.28-.11.5-.33.62-.23.12-.5.17-.75.17s-.53-.05-.75-.17c-.22-.12-.45-.34-.33-.62"/>
    <line class="cls-7" x1="2.48" y1=".25" x2="4.05" y2="6.81"/>
    <line class="cls-7" x1="2.48" y1=".25" x2=".9" y2="6.81"/>
    <path class="cls-7" d="M9.95,2.61c.4-.23.88-.08,1.23.12"/>
    <path class="cls-7" d="M12.4,6.86c.38-.22.5-.67.51-1.06.01-.42-.08-.8-.23-1.19-.28-.71-.82-1.48-1.5-1.88"/>
    <path class="cls-7" d="M9.95,6.86c-.38-.22-.5-.67-.51-1.06-.01-.42.08-.8.23-1.19.28-.71.82-1.48,1.5-1.88"/>
    <path class="cls-7" d="M12.4,2.61c-.4-.23-.88-.08-1.23.12"/>
    <path class="cls-7" d="M8.72,4.74c0,.55.53.93.95,1.12.46.21,1,.3,1.51.3s1.04-.09,1.51-.3c.42-.19.95-.57.95-1.12"/>
  </g>
  <g id="Make2D::Visible::SceneSilhouetteCurves">
    <line class="cls-5" x1="4.39" y1="11.97" x2="6.94" y2="13.43"/>
    <line class="cls-5" x1="6.94" y1="7.56" x2="4.39" y2="9.03"/>
    <path class="cls-5" d="M4.05,6.81c.42-.24.81-.67.59-1.2"/>
    <line class="cls-5" x1="9.48" y1="9.03" x2="6.94" y2="7.56"/>
    <line class="cls-5" x1="4.39" y1="11.97" x2="4.39" y2="9.03"/>
    <path class="cls-5" d="M.31,5.61C1.03,3.82,1.75,2.04,2.48.25"/>
    <line class="cls-5" x1="6.94" y1="13.43" x2="9.48" y2="11.97"/>
    <path class="cls-5" d="M2.48.25c.72,1.79,1.44,3.57,2.17,5.36"/>
    <line class="cls-5" x1="9.48" y1="11.97" x2="9.48" y2="9.03"/>
    <path class="cls-5" d="M.31,5.61c-.17.42.05.79.36,1.04.3.24.71.39,1.08.47.72.15,1.64.08,2.3-.3"/>
    <path class="cls-5" d="M12.4,6.86c-.37.22-.8.33-1.23.33s-.85-.11-1.23-.33c-.29-.17-.54-.39-.74-.65-.09-.11-.16-.24-.23-.37-.17-.34-.26-.72-.26-1.11s.09-.76.26-1.11c.06-.13.14-.25.23-.37.2-.27.45-.49.74-.65.37-.22.8-.33,1.23-.33s.85.11,1.23.33c.29.17.54.39.74.65.09.11.16.24.23.37.17.34.26.72.26,1.11s-.09.76-.26,1.11c-.06.13-.14.25-.23.37-.2.27-.45.49-.74.65Z"/>
  </g>
</svg>