<?xml version="1.0" encoding="UTF-8"?>
<svg id="ICON" xmlns="http://www.w3.org/2000/svg" viewBox="0 0 450.2 324.25">
  <defs>
    <style>
      .cls-1, .cls-2, .cls-3, .cls-4, .cls-5, .cls-6, .cls-7, .cls-8, .cls-9, .cls-10, .cls-11, .cls-12, .cls-13, .cls-14 {
        fill-rule: evenodd;
      }

      .cls-1, .cls-3 {
        stroke: #231f20;
      }

      .cls-1, .cls-3, .cls-5, .cls-15, .cls-13 {
        fill: none;
      }

      .cls-1, .cls-3, .cls-15, .cls-13 {
        stroke-miterlimit: 10;
      }

      .cls-1, .cls-15 {
        stroke-width: 2px;
      }

      .cls-2 {
        fill: #ff8f61;
      }

      .cls-3, .cls-5, .cls-13 {
        stroke-width: 3.1px;
      }

      .cls-4 {
        fill: #fff;
      }

      .cls-5 {
        stroke-linejoin: round;
      }

      .cls-5, .cls-15, .cls-13 {
        stroke: #000;
      }

      .cls-6 {
        fill: #c00;
      }

      .cls-7 {
        fill: #7e726e;
      }

      .cls-8 {
        fill: #b5b5b5;
      }

      .cls-9 {
        fill: #6380fa;
      }

      .cls-11 {
        fill: #122675;
      }

      .cls-12 {
        fill: #c4c4c4;
      }

      .cls-14 {
        fill: #ff4a00;
      }
    </style>
  </defs>
  <g>
    <g>
      <polygon class="cls-14" points="410.54 81.28 422.7 96.58 422.7 91.08 410.54 75.79 410.54 81.28"/>
      <polygon class="cls-4" points="410.54 86.78 422.7 102.08 422.7 96.58 410.54 81.28 410.54 86.78"/>
      <polygon class="cls-9" points="422.7 102.08 410.54 86.78 410.54 92.28 422.7 107.58 422.7 102.08"/>
      <path class="cls-11" d="M440.8,93.31c-4.28,4.94-12.1,7.59-18.1,8.77v5.5c6-1.19,13.82-3.83,18.1-8.78v-5.49Z"/>
      <path class="cls-8" d="M422.7,102.08c6-1.19,13.82-3.83,18.1-8.77v-5.5c-4.28,4.94-12.1,7.59-18.1,8.77v5.5Z"/>
      <path class="cls-6" d="M422.7,96.58c6-1.19,13.82-3.83,18.1-8.77v-5.5c-4.28,4.94-12.1,7.59-18.1,8.77v5.5Z"/>
      <path class="cls-2" d="M422.7,91.08c6-1.19,13.82-3.83,18.1-8.77-10.09-2.17-20.18-4.35-30.27-6.52l12.17,15.3Z"/>
    </g>
    <path class="cls-5" d="M410.54,75.79v16.49l12.17,15.3c6.78-1.4,13.17-3.58,18.1-8.78v-16.49l-30.27-6.52Z"/>
  </g>
  <path class="cls-13" d="M412.43,55.28c10.21,0,17.12,9.96,15.47,16.26"/>
  <path class="cls-10" d="M432.98,72.25l-9.68-1.8s2.73,12.19,9.68,1.8Z"/>
  <polygon class="cls-12" points="379.9 69.28 397.01 74.69 397.01 56.68 379.9 51.28 379.9 69.28"/>
  <polygon class="cls-7" points="397.01 56.68 397.01 74.69 408.71 65.68 408.71 47.67 397.01 56.68"/>
  <polygon class="cls-3" points="379.9 51.28 379.9 69.28 397.01 74.69 408.71 65.68 408.71 47.67 391.61 42.27 379.9 51.28"/>
  <g>
    <path class="cls-1" d="M390.37,66.81v-4.78c0-.79-.64-1.44-1.44-1.44h-.96c-.79,0-1.44.64-1.44,1.44v4.78"/>
    <line class="cls-15" x1="386.54" y1="64.42" x2="390.37" y2="64.42"/>
  </g>
  <path class="cls-1" d="M403.34,64.76c.79,0,1.44-.64,1.44-1.44s-.64-1.43-1.44-1.43h-2.39,2.39c.79,0,1.44-.64,1.44-1.44s-.64-1.44-1.44-1.44h-2.39v5.74h2.39Z"/>
  <path class="cls-1" d="M396.22,48.29c0-.79-.64-1.44-1.44-1.44h-.96c-.79,0-1.44.64-1.44,1.44v2.87c0,.79.64,1.44,1.44,1.44h.96c.79,0,1.44-.64,1.44-1.44"/>
</svg>