<?xml version="1.0" encoding="UTF-8"?><svg xmlns="http://www.w3.org/2000/svg" xmlns:xlink="http://www.w3.org/1999/xlink" viewBox="0 0 48 48"><defs><radialGradient id="radial-gradient" cx="-57.91" cy="-41.47" fx="-57.91" fy="-41.47" r="9.86" gradientTransform="translate(163.31 79.21) scale(2.4 1.02)" gradientUnits="userSpaceOnUse"><stop offset=".38" stop-color="#2c2c2c" stop-opacity=".5"/><stop offset=".85" stop-color="#2c2c2c" stop-opacity=".1"/><stop offset=".99" stop-color="#2c2c2c" stop-opacity="0"/></radialGradient><linearGradient id="linear-gradient" x1="28.98" y1="33.18" x2="32.74" y2="37.82" gradientTransform="matrix(1, 0, 0, 1, 0, 0)" gradientUnits="userSpaceOnUse"><stop offset=".07" stop-color="#231f20"/><stop offset="1" stop-color="#888a85"/></linearGradient><linearGradient id="linear-gradient-2" x1="21.27" y1="26.47" x2="31.05" y2="38.53" xlink:href="#linear-gradient"/><linearGradient id="linear-gradient-3" x1="35.83" y1="3.92" x2="35.83" y2="13.66" gradientTransform="translate(4.15 -12.9) rotate(30.47) scale(.98 .86) skewX(27.47)" gradientUnits="userSpaceOnUse"><stop offset="0" stop-color="#a40000"/><stop offset=".49" stop-color="#ef2929"/><stop offset="1" stop-color="#f9aaaa"/></linearGradient><linearGradient id="linear-gradient-4" x1="35.83" y1="9.44" x2="35.83" y2="22.57" gradientTransform="translate(4.15 -12.9) rotate(30.47) scale(.98 .86) skewX(27.47)" xlink:href="#linear-gradient"/><linearGradient id="linear-gradient-5" x1="35.62" y1="8.63" x2="35.62" y2="23.35" gradientTransform="translate(4.15 -12.9) rotate(30.47) scale(.98 .86) skewX(27.47)" xlink:href="#linear-gradient"/><linearGradient id="linear-gradient-6" x1="33.09" y1="6.2" x2="33.09" y2="17.07" gradientTransform="translate(4.15 -12.9) rotate(30.47) scale(.98 .86) skewX(27.47)" xlink:href="#linear-gradient"/><linearGradient id="linear-gradient-7" x1="29.67" y1="3.23" x2="29.67" y2="16" gradientTransform="translate(4.15 -12.9) rotate(30.47) scale(.98 .86) skewX(27.47)" xlink:href="#linear-gradient"/><linearGradient id="linear-gradient-8" x1="39.54" y1="4.75" x2="39.54" y2="14.96" gradientTransform="translate(4.15 -12.9) rotate(30.47) scale(.98 .86) skewX(27.47)" xlink:href="#linear-gradient"/><linearGradient id="linear-gradient-9" x1="43.41" y1="8.75" x2="43.41" y2="20.55" gradientTransform="translate(4.15 -12.9) rotate(30.47) scale(.98 .86) skewX(27.47)" xlink:href="#linear-gradient"/><linearGradient id="linear-gradient-10" x1="42.63" y1="13.1" x2="42.63" y2="20.83" gradientTransform="translate(4.15 -12.9) rotate(30.47) scale(.98 .86) skewX(27.47)" xlink:href="#linear-gradient"/><linearGradient id="linear-gradient-11" x1="33.22" y1="13.22" x2="33.22" y2="20.99" gradientTransform="translate(4.15 -12.9) rotate(30.47) scale(.98 .86) skewX(27.47)" xlink:href="#linear-gradient"/><linearGradient id="linear-gradient-12" x1="29.27" y1="16.1" x2="29.27" y2="20.02" gradientTransform="translate(4.15 -12.9) rotate(30.47) scale(.98 .86) skewX(27.47)" xlink:href="#linear-gradient"/><linearGradient id="linear-gradient-13" x1="34.39" y1="16" x2="27.43" y2="20.83" gradientTransform="matrix(1, 0, 0, 1, 0, 0)" gradientUnits="userSpaceOnUse"><stop offset="0" stop-color="#fff" stop-opacity="0"/><stop offset="1" stop-color="#fff8f8"/></linearGradient><linearGradient id="linear-gradient-14" x1="25.7" y1="21" x2="42.86" y2="11.09" gradientTransform="matrix(1, 0, 0, 1, 0, 0)" gradientUnits="userSpaceOnUse"><stop offset=".07" stop-color="#204a87"/><stop offset="1" stop-color="#729fcf"/></linearGradient><linearGradient id="linear-gradient-15" x1="31.67" y1="16.8" x2="18.59" y2="25.87" gradientTransform="matrix(1, 0, 0, 1, 0, 0)" gradientUnits="userSpaceOnUse"><stop offset="0" stop-color="#fff" stop-opacity=".3"/><stop offset="1" stop-color="#729fcf"/></linearGradient><linearGradient id="linear-gradient-16" x1="24.75" y1="21.61" x2="17.79" y2="26.43" xlink:href="#linear-gradient-13"/><linearGradient id="linear-gradient-17" x1="15.92" y1="26.69" x2="33.22" y2="16.7" xlink:href="#linear-gradient-14"/><linearGradient id="linear-gradient-18" x1="21.81" y1="22.48" x2="8.73" y2="31.55" gradientTransform="matrix(1, 0, 0, 1, 0, 0)" gradientUnits="userSpaceOnUse"><stop offset="0" stop-color="#fff" stop-opacity=".3"/><stop offset="1" stop-color="#729fcf"/></linearGradient><linearGradient id="linear-gradient-19" x1="14.89" y1="27.29" x2="7.93" y2="32.11" xlink:href="#linear-gradient-13"/><linearGradient id="linear-gradient-20" x1="26.62" y1="12.06" x2="21.69" y2="11.63" gradientTransform="translate(2.49 -7.98) rotate(30.05) scale(.98 .87) skewX(27.1)" xlink:href="#linear-gradient-13"/><linearGradient id="linear-gradient-21" x1="26.63" y1="11.87" x2="21.7" y2="11.43" gradientTransform="translate(2.49 -7.98) rotate(30.05) scale(.98 .87) skewX(27.1)" xlink:href="#linear-gradient-13"/><linearGradient id="linear-gradient-22" x1="23.86" y1="13.2" x2="23.86" y2="15.05" gradientTransform="translate(2.49 -7.98) rotate(30.05) scale(.98 .87) skewX(27.1)" gradientUnits="userSpaceOnUse"><stop offset="0" stop-color="#ad7fa8"/><stop offset=".51" stop-color="#755076"/></linearGradient><linearGradient id="linear-gradient-23" x1="23.77" y1="17.72" x2="23.91" y2="14.44" gradientTransform="translate(35.29 -12.27) rotate(88.65) scale(.98 .87) skewX(27.1)" gradientUnits="userSpaceOnUse"><stop offset="0" stop-color="#eeeeec"/><stop offset="1" stop-color="#babdb6"/></linearGradient><linearGradient id="linear-gradient-24" x1="27.06" y1="15.92" x2="21.7" y2="16.26" gradientTransform="translate(2.49 -7.98) rotate(30.05) scale(.98 .87) skewX(27.1)" gradientUnits="userSpaceOnUse"><stop offset="0" stop-color="#ad7fa8" stop-opacity="0"/><stop offset="1" stop-color="#fff8f8"/></linearGradient><linearGradient id="linear-gradient-25" x1="32.55" y1="19.43" x2="29.58" y2="19.17" gradientTransform="translate(2.49 -7.98) rotate(30.05) scale(.98 .87) skewX(27.1)" xlink:href="#linear-gradient-13"/><linearGradient id="linear-gradient-26" x1="32.56" y1="19.31" x2="29.59" y2="19.05" gradientTransform="translate(2.49 -7.98) rotate(30.05) scale(.98 .87) skewX(27.1)" xlink:href="#linear-gradient-13"/><linearGradient id="linear-gradient-27" x1="30.89" y1="20.12" x2="30.89" y2="21.23" xlink:href="#linear-gradient-22"/><linearGradient id="linear-gradient-28" x1="30.84" y1="22.84" x2="30.92" y2="20.86" gradientTransform="translate(46.25 -12.8) rotate(88.65) scale(.98 .87) skewX(27.1)" xlink:href="#linear-gradient-23"/><linearGradient id="linear-gradient-29" x1="32.82" y1="21.76" x2="29.59" y2="21.96" xlink:href="#linear-gradient-24"/><linearGradient id="linear-gradient-30" x1="11.18" y1="20.72" x2="16.19" y2="20.72" gradientTransform="translate(1.03 -3.18) rotate(30.18) scale(.97 .86) skewX(27.32)" gradientUnits="userSpaceOnUse"><stop offset="0" stop-color="#204a87"/><stop offset="1" stop-color="#0f274b"/></linearGradient><linearGradient id="linear-gradient-31" x1="17.18" y1="28.63" x2="16.44" y2="31.22" gradientTransform="translate(1.03 -3.18) rotate(30.18) scale(.97 .86) skewX(27.32)" gradientUnits="userSpaceOnUse"><stop offset="0" stop-color="#729fcf"/><stop offset="1" stop-color="#204a87"/></linearGradient><linearGradient id="linear-gradient-32" x1="11.2" y1="35.02" x2="13.35" y2="24.36" xlink:href="#linear-gradient-30"/><linearGradient id="linear-gradient-33" x1="12.64" y1="26.11" x2="12.39" y2="31.67" xlink:href="#linear-gradient-31"/><linearGradient id="linear-gradient-34" x1="14.05" y1="24.73" x2="11.42" y2="27.96" xlink:href="#linear-gradient-30"/><linearGradient id="linear-gradient-35" x1="14.12" y1="25.8" x2="15.55" y2="24.25" gradientTransform="translate(1.03 -3.18) rotate(30.18) scale(.97 .86) skewX(27.32)" xlink:href="#linear-gradient-13"/><linearGradient id="linear-gradient-36" x1="12.27" y1="26.22" x2="10.92" y2="24.27" gradientTransform="translate(1.03 -3.18) rotate(30.18) scale(.97 .86) skewX(27.32)" xlink:href="#linear-gradient-13"/><linearGradient id="linear-gradient-37" x1="9.21" y1="29.83" x2="10.83" y2="30.18" gradientTransform="translate(1.03 -3.18) rotate(30.18) scale(.97 .86) skewX(27.32)" gradientUnits="userSpaceOnUse"><stop offset="0" stop-color="#3465a4"/><stop offset="1" stop-color="#0f274b"/></linearGradient><linearGradient id="linear-gradient-38" x1="9.91" y1="30.88" x2="6.8" y2="25.27" gradientTransform="translate(1.03 -3.18) rotate(30.18) scale(.97 .86) skewX(27.32)" xlink:href="#linear-gradient-13"/><linearGradient id="linear-gradient-39" x1="16.09" y1="22.02" x2="13.92" y2="21" gradientTransform="translate(1.03 -3.18) rotate(30.18) scale(.97 .86) skewX(27.32)" gradientUnits="userSpaceOnUse"><stop offset="0" stop-color="#204a87"/><stop offset="1" stop-color="#231f20"/></linearGradient><linearGradient id="linear-gradient-40" x1="15.15" y1="20.71" x2="15.89" y2="20.71" gradientTransform="translate(1.03 -3.18) rotate(30.18) scale(.97 .86) skewX(27.32)" xlink:href="#linear-gradient-13"/><linearGradient id="linear-gradient-41" x1="16.85" y1="24.25" x2="15.91" y2="22.42" gradientTransform="translate(1.03 -3.18) rotate(30.18) scale(.97 .86) skewX(27.32)" xlink:href="#linear-gradient-13"/><linearGradient id="linear-gradient-42" x1="17.69" y1="22.93" x2="18.51" y2="23.9" gradientTransform="translate(1.03 -3.18) rotate(30.18) scale(.97 .86) skewX(27.32)" gradientUnits="userSpaceOnUse"><stop offset="0" stop-color="#ef2929"/><stop offset="1" stop-color="#a40000"/></linearGradient><linearGradient id="linear-gradient-43" x1="17.78" y1="26.14" x2="17.74" y2="25.09" gradientTransform="translate(1.03 -3.18) rotate(30.18) scale(.97 .86) skewX(27.32)" gradientUnits="userSpaceOnUse"><stop offset="0" stop-color="#888a85"/><stop offset="1" stop-color="#2e3436"/></linearGradient><linearGradient id="linear-gradient-44" x1="17.73" y1="25.96" x2="18.11" y2="24.77" gradientTransform="translate(1.03 -3.18) rotate(30.18) scale(.97 .86) skewX(27.32)" xlink:href="#linear-gradient-13"/><linearGradient id="linear-gradient-45" x1="18.21" y1="24.09" x2="17.29" y2="20.63" gradientTransform="translate(1.03 -3.18) rotate(30.18) scale(.97 .86) skewX(27.32)" xlink:href="#linear-gradient-13"/><linearGradient id="linear-gradient-46" x1="18.77" y1="20.97" x2="19.02" y2="23.01" xlink:href="#linear-gradient-43"/><linearGradient id="linear-gradient-47" x1="18.9" y1="20.77" x2="22.58" y2="20.77" xlink:href="#linear-gradient-43"/><linearGradient id="linear-gradient-48" x1="21.07" y1="22.82" x2="20.93" y2="17.17" xlink:href="#linear-gradient-43"/><linearGradient id="linear-gradient-49" x1="21.03" y1="19.33" x2="21" y2="23.2" gradientTransform="translate(1.03 -3.18) rotate(30.18) scale(.97 .86) skewX(27.32)" xlink:href="#linear-gradient-13"/><linearGradient id="linear-gradient-50" x1="21.24" y1="23.08" x2="20.91" y2="19.09" xlink:href="#linear-gradient-43"/><linearGradient id="linear-gradient-51" x1="12.15" y1="29.73" x2="13.75" y2="31.65" xlink:href="#linear-gradient-31"/><linearGradient id="linear-gradient-52" x1="12.97" y1="30.37" x2="14.31" y2="31.36" xlink:href="#linear-gradient-30"/><linearGradient id="linear-gradient-53" x1="15.53" y1="19.05" x2="10.62" y2="20.31" xlink:href="#linear-gradient-31"/><linearGradient id="linear-gradient-54" x1="10.75" y1="19.25" x2="16.27" y2="19.25" gradientTransform="translate(1.03 -3.18) rotate(30.18) scale(.97 .86) skewX(27.32)" xlink:href="#linear-gradient-13"/><linearGradient id="linear-gradient-55" x1="6.12" y1="32.36" x2="23.37" y2="22.4" xlink:href="#linear-gradient-14"/><linearGradient id="linear-gradient-56" x1="1.49" y1="45.85" x2="12.69" y2="37.89" xlink:href="#linear-gradient"/></defs><g style="isolation:isolate;"><g id="shadow" style="mix-blend-mode:multiply; opacity:.45;"><ellipse cx="24.24" cy="37.07" rx="22.75" ry="9.66" transform="translate(-5.86 4.58) rotate(-9.63)" style="fill:url(#radial-gradient);"/></g><g id="ART"><polygon points="44.91 27.2 15.56 44.14 15.56 42.26 44.91 25.31 44.91 27.2" style="fill:url(#linear-gradient);"/><polygon points="33.5 18.72 44.91 25.31 15.56 42.26 4.15 35.67 33.5 18.72" style="fill:url(#linear-gradient-2);"/><g><g><polygon points="43.21 12.52 25.34 2.01 25.34 19.57 43.21 30.08 43.21 12.52" style="fill:url(#linear-gradient-3);"/><polygon points="43.21 24.67 41.72 23.79 41.72 17.96 39.57 16.69 39.57 13.64 35.21 11.07 35.21 15.69 32.98 14.38 32.98 11.61 30.95 10.41 30.95 11.46 30.33 11.09 30.33 6.87 27.87 5.43 27.87 12.74 26.52 11.94 26.52 16.59 25.34 15.9 25.34 19.57 43.21 30.08 43.21 24.67" style="fill:url(#linear-gradient-4);"/><polygon points="30.01 7.65 28.19 6.58 28.19 5.96 30.01 7.03 30.01 7.65" style="fill:none; stroke:#231f20; stroke-miterlimit:10; stroke-width:.1px;"/><polygon points="33.74 14.12 33.15 13.77 33.15 11.97 33.74 12.32 33.74 14.12" style="fill:#fce94f;"/><polygon points="26.36 13.79 25.91 13.53 25.91 12.1 26.36 12.37 26.36 13.79" style="fill:#fce94f;"/><polygon points="35.21 25.38 32.98 24.06 32.98 14.38 35.21 15.69 35.21 25.38" style="fill:url(#linear-gradient-5);"/><polygon points="32.98 24.06 30.95 22.87 30.95 10.41 32.98 11.61 32.98 24.06" style="fill:url(#linear-gradient-6);"/><polygon points="30.33 22.5 27.87 21.05 27.87 5.43 30.33 6.87 30.33 22.5" style="fill:url(#linear-gradient-7);"/><polygon points="39.57 27.94 35.21 25.38 35.21 11.07 39.57 13.64 39.57 27.94" style="fill:url(#linear-gradient-8);"/><polygon points="41.72 29.2 39.57 27.94 39.57 16.69 41.72 17.96 41.72 29.2" style="fill:url(#linear-gradient-9);"/><polygon points="36.82 14.13 35.5 13.35 35.5 11.79 36.82 12.56 36.82 14.13" style="fill:#fce94f;"/><polygon points="36.77 26.29 43.21 30.08 43.21 24.67 36.77 20.88 36.77 26.29" style="fill:url(#linear-gradient-10);"/><polygon points="34.57 18.35 29.59 15.42 29.59 22.07 34.57 25 34.57 18.35" style="fill:url(#linear-gradient-11);"/><polygon points="32.17 23.59 25.34 19.57 25.34 15.9 32.17 19.91 32.17 23.59" style="fill:url(#linear-gradient-12);"/><g><polygon points="41.44 18.83 41.06 18.61 41.06 18.15 41.44 18.38 41.44 18.83" style="fill:#fce94f;"/><polygon points="41.44 19.58 41.06 19.36 41.06 18.9 41.44 19.13 41.44 19.58" style="fill:#fce94f;"/><polygon points="41.44 20.33 41.06 20.11 41.06 19.65 41.44 19.88 41.44 20.33" style="fill:#fce94f;"/></g></g><path d="M25.28,2.12s4.59,18.42,17.94,27.96l-17.94-10.4V2.12Z" style="fill:url(#linear-gradient-13); opacity:.56;"/><polygon points="43.21 12.52 25.34 2.01 25.34 19.57 43.21 30.08 43.21 12.52" style="fill:none; stroke:url(#linear-gradient-14); stroke-miterlimit:10; stroke-width:.7px;"/><g><polygon points="33.57 18.12 15.63 7.72 15.63 25.28 33.57 35.68 33.57 18.12" style="fill:url(#linear-gradient-15);"/><path d="M15.64,7.73s4.59,18.42,17.94,27.96L15.64,25.29V7.73Z" style="fill:url(#linear-gradient-16);"/><polygon points="33.57 18.12 15.56 7.71 15.56 25.27 33.57 35.68 33.57 18.12" style="fill:none; stroke:url(#linear-gradient-17); stroke-miterlimit:10; stroke-width:.7px;"/><polygon points="23.71 23.8 5.77 13.4 5.77 30.96 23.71 41.36 23.71 23.8" style="fill:url(#linear-gradient-18);"/><path d="M5.78,13.4s4.59,18.42,17.94,27.96L5.78,30.97V13.4Z" style="fill:url(#linear-gradient-19);"/><g><path d="M24.94,18.46v-1.11c0-1.31-1-2.97-2.23-3.68h0c-1.23-.71-2.23-.21-2.23,1.1v1.11l4.46,2.58Z" style="fill:#d681d5;"/><path d="M24.94,18.46v-1.11c0-1.31-1-2.97-2.23-3.68h0c-1.23-.71-2.23-.21-2.23,1.1v1.11l4.46,2.58Z" style="fill:#d681d5;"/><path d="M22.71,13.67c-1.23-.71-2.23-.21-2.23,1.1v1.11l.95,.55v-1.11c0-1.29,.6-1.99,1.35-1.6-.02-.01-.05-.03-.07-.05h0Z" style="fill:url(#linear-gradient-20);"/><path d="M23.01,13.87c.68,.55,1.2,1.85,1.2,3.05v1.11l.72,.42v-1.11c0-1.2-.84-2.68-1.92-3.47Z" style="fill:url(#linear-gradient-21);"/><path d="M24.94,18.46v-1.11c0-1.31-1-2.97-2.23-3.68h0c-1.23-.71-2.23-.21-2.23,1.1v1.11l4.46,2.58Z" style="fill:none; stroke:#5c3566; stroke-miterlimit:10; stroke-width:.35px;"/><path d="M28.61,22.43c-.01,.2-.09,.35-.25,.41-.58,.16-2.04-.31-3.89-1.22-.56-.28-1.15-.6-1.76-.96s-1.21-.72-1.76-1.08c-1.84-1.23-3.31-2.46-3.89-3.28-.64-.91,.01-1.47,.43-1.61,.8-.25,1.85,.07,2.82,.46,.79,.32,1.6,.73,2.4,1.2,1.38,.8,2.83,1.75,4.13,3.08,.62,.63,1.34,1.47,1.66,2.39,.08,.23,.12,.43,.11,.6Z" style="fill:url(#linear-gradient-22);"/><ellipse cx="22.71" cy="19.1" rx="1.35" ry="6.87" transform="translate(-5.42 28.53) rotate(-58.61)" style="fill:url(#linear-gradient-23);"/><path d="M21.56,19.22c0,.11-.33,.32-.74,.09s-.74-.84-.74-.95,.33,0,.74,.23,.74,.52,.74,.63Z" style="fill:#fff;"/><path d="M27.09,21.76c0,.13-.41,.4-.91,.1s-.91-1.02-.91-1.16,.41,0,.91,.28,.91,.63,.91,.77Z" style="fill:#fff;"/><path d="M28.62,22.43c0,1.07-2.65,.12-5.91-1.77s-5.91-4-5.91-5.07,1.47-1.82,5.91,.75,5.91,5.02,5.91,6.09Z" style="fill:none; stroke:#2e3436; stroke-miterlimit:10; stroke-width:.35px;"/><path d="M24.65,20.59c0-.28-.87-1.02-1.94-1.64s-1.94-.89-1.94-.61,.87,1.78,1.94,2.4,1.94,.13,1.94-.16Z" style="fill:#755076;"/><path d="M23.62,20c0-.28-.49-.8-1.1-1.15s-1.1-.4-1.1-.12,.49,1.56,1.1,1.91,1.1-.36,1.1-.65Z" style="fill:url(#linear-gradient-24);"/><path d="M20.78,17.39c0,.16-.48,.47-1.08,.12s-1.08-1.22-1.08-1.38,.48,0,1.08,.34,1.08,.75,1.08,.91Z" style="fill:#fff;"/></g><g><path d="M30.01,28.2v-.67c0-.79-.6-1.79-1.34-2.22h0c-.74-.43-1.34-.13-1.34,.66v.67l2.69,1.55Z" style="fill:#d681d5;"/><path d="M30.01,28.2v-.67c0-.79-.6-1.79-1.34-2.22h0c-.74-.43-1.34-.13-1.34,.66v.67l2.69,1.55Z" style="fill:#d681d5;"/><path d="M28.66,25.31c-.74-.43-1.34-.13-1.34,.66v.67l.57,.33v-.67c0-.78,.36-1.2,.81-.96-.01,0-.03-.02-.04-.03h0Z" style="fill:url(#linear-gradient-25);"/><path d="M28.85,25.44c.41,.33,.73,1.11,.73,1.84v.67l.43,.25v-.67c0-.72-.51-1.62-1.16-2.09Z" style="fill:url(#linear-gradient-26);"/><path d="M30.01,28.2v-.67c0-.79-.6-1.79-1.34-2.22h0c-.74-.43-1.34-.13-1.34,.66v.67l2.69,1.55Z" style="fill:none; stroke:#5c3566; stroke-miterlimit:10; stroke-width:.35px;"/><path d="M32.22,30.6c0,.12-.05,.21-.15,.25-.35,.09-1.23-.19-2.34-.73-.34-.17-.69-.36-1.06-.58s-.73-.43-1.06-.65c-1.11-.74-2-1.48-2.34-1.98-.39-.55,0-.89,.26-.97,.48-.15,1.12,.04,1.7,.28,.48,.19,.96,.44,1.45,.72,.83,.48,1.71,1.06,2.49,1.86,.37,.38,.81,.89,1,1.44,.05,.14,.07,.26,.06,.36Z" style="fill:url(#linear-gradient-27);"/><ellipse cx="28.66" cy="28.59" rx=".81" ry="4.14" transform="translate(-10.67 38.16) rotate(-58.61)" style="fill:url(#linear-gradient-28);"/><path d="M27.97,28.66c0,.07-.2,.2-.45,.05s-.45-.51-.45-.57,.2,0,.45,.14,.45,.31,.45,.38Z" style="fill:#fff;"/><path d="M31.3,30.19c0,.08-.25,.24-.55,.06s-.55-.62-.55-.7,.25,0,.55,.17,.55,.38,.55,.46Z" style="fill:#fff;"/><path d="M32.23,30.6c0,.64-1.6,.07-3.56-1.07s-3.56-2.41-3.56-3.05,.88-1.1,3.56,.45,3.56,3.02,3.56,3.67Z" style="fill:none; stroke:#2e3436; stroke-miterlimit:10; stroke-width:.35px;"/><path d="M29.83,29.49c0-.17-.52-.61-1.17-.99s-1.17-.54-1.17-.37,.52,1.07,1.17,1.45,1.17,.08,1.17-.1Z" style="fill:#755076;"/><path d="M29.21,29.13c0-.17-.3-.48-.66-.69s-.66-.24-.66-.07,.3,.94,.66,1.15,.66-.22,.66-.39Z" style="fill:url(#linear-gradient-29);"/><path d="M27.5,27.56c0,.1-.29,.28-.65,.08s-.65-.73-.65-.83,.29,0,.65,.2,.65,.46,.65,.55Z" style="fill:#fff;"/></g></g><path d="M10.53,24.19c.13,.24,.97,.77,2.31,1.21s1.77,.18,1.81,.04c.04-.17-.09-1.22-.89-1.75s-2.57-.99-2.88-.96-.44,1.04-.44,1.04c0,0-.02,.19,.09,.43Z" style="fill:url(#linear-gradient-30);"/><path d="M10.53,24.19c.13,.24,.97,.77,2.31,1.21s1.77,.18,1.81,.04c.04-.17-.09-1.22-.89-1.75s-2.57-.99-2.88-.96-.44,1.04-.44,1.04c0,0-.02,.19,.09,.43Z" style="fill:none; stroke:#204a87; stroke-linecap:round; stroke-linejoin:round; stroke-width:.35px;"/><path d="M15.17,30.19c.39,.48,.93,1.61,.89,2.74s-.39,2.57-.41,2.96,.18,.73,.87,1.3l-2.37-1.37,.08-4.5,.94-1.12Z" style="fill:#729fcf;"/><path d="M15.17,30.19c.39,.48,.93,1.61,.89,2.74s-.39,2.57-.41,2.96,.18,.73,.87,1.3l-2.37-1.37,.08-4.5,.94-1.12Z" style="fill:url(#linear-gradient-31);"/><path d="M15.17,30.19c.39,.48,.93,1.61,.89,2.74s-.39,2.57-.41,2.96,.18,.73,.87,1.3l-2.37-1.37,.08-4.5,.94-1.12Z" style="fill:none; stroke:#204a87; stroke-miterlimit:10; stroke-width:.35px;"/><path d="M14.18,25.96c.08,.05,.14,.05,.14,.04,0-.03-.19-.21-.19-.21l.05,.18Z" style="fill:#231f20;"/><g><path d="M11.11,26.9c.34-.45,.22-2.16,.22-2.16l-.26-1.13,2.85,3.53s.03,.19-.09,.23c-.22,.07-.41-.03-.51-.07-.07-.03-.15-.05-.19,.03s-.08,.23-.08,.52l-1.93-.93Z" style="fill:none; stroke:#ce5c00; stroke-linecap:round; stroke-linejoin:round; stroke-width:.4px;"/><path d="M13.58,27.32c.18,.1,.31,.06,.39-.13s.14-.46,.17-.73,.05-.7,.05-1.15-.12-1.51-.62-1.99-1.64-1.24-2.1-1.06-.76,.78-.49,1.6,.6,.74,.6,.74c0,0,.18,.93,.52,1.43,.22,.33,.89,.95,1.49,1.3Z" style="fill:none; stroke:#ce5c00; stroke-linecap:round; stroke-linejoin:round; stroke-width:.4px;"/></g><path d="M11.11,26.9c.34-.45,.22-2.16,.22-2.16l-.26-1.13,2.85,3.53s.03,.19-.09,.23c-.22,.07-.41-.03-.51-.07-.07-.03-.15-.05-.19,.03s-.08,.23-.08,.52l-1.93-.93Z" style="fill:#f57900;"/><path d="M13.91,27.18c0,.06,0,.16-.09,.18-.22,.06-.4-.03-.51-.08-.03-.01-.05-.02-.07-.02-.02,0-.03,0-.03,0-.19-.04-.34,.17-.34,.17l-1.47-.76s.54-.63,.48-.84-.14-.38-.32-.51c-.18-.13-.22-.34-.22-.34t0-.02c0-.14,0-.23,0-.23v-.04l.35,.17,.63,.88,1.61,1.45Z" style="fill:#ce5c00;"/><path d="M13.31,28.5c-.24-.2-.14-.64-.15-.88,0-.23-.59-.65-1.03-.9-.45-.24-1.09-.59-1.09-.22s-.12,.58-.27,.59c-.2,.02-1.05-.03-1.92-.1,0,0,.34,.77-.35,1.42-.3,.28-.39,1.06-.4,1.88,0,.61,.42,1.92,.56,2.35l5.81,3.37c.02-1.62,.46-2.67,.46-2.67l.13-1.94,.08-1.21c-.55-.86-1.63-1.51-1.86-1.7Z" style="fill:url(#linear-gradient-32);"/><path d="M14.49,36.01c.02-1.62,.46-2.67,.46-2.67l.13-1.94c-.73-.22-2.31,.8-2.31,.8-.77-.85-1.94-2.41-3.21-3.37,0,0-1.11,.82-1.38,1.2-.04,.06-.06,.15-.06,.27,0,.61,.42,1.92,.56,2.35l5.81,3.37Z" style="fill:url(#linear-gradient-33);"/><path d="M15.17,30.19l-.08,1.21c-.73-.22-2.31,.8-2.31,.8-.77-.85-1.94-2.41-3.21-3.37,0,0-1.11,.82-1.38,1.2-.04,.06-.06,.15-.06,.27,0-.82,.1-1.6,.4-1.88,.68-.65,.35-1.42,.35-1.42,.86,.07,1.71,.12,1.92,.1,.15-.01,.27-.21,.27-.59s.64-.02,1.09,.22c.44,.24,1.03,.67,1.03,.9,0,.23-.08,.68,.15,.88,.23,.18,1.31,.84,1.86,1.7Z" style="fill:url(#linear-gradient-34);"/><path d="M15.17,30.19l-.03,.44c-.36-.45-1.12-1.07-1.61-1.4-.48-.34-.74-.66-.73-1.06,0-.39,0-.91-.19-1.11,.21,.16,.55,.44,.55,.56,0,.23-.08,.68,.15,.88,.23,.18,1.31,.84,1.86,1.7Z" style="fill:url(#linear-gradient-35);"/><path d="M11.95,26.63c-.29-.16-.13,.02-.2,.11-.07,.08,.11,1.08-.24,1.05-1.86-.17-1.96,.25-1.96,.25l-.64-.78c-.02-.16-.07-.27-.07-.27,.86,.07,1.71,.12,1.92,.1,.15-.01,.27-.21,.27-.59,0-.32,.49-.1,.91,.13Z" style="fill:url(#linear-gradient-36);"/><path d="M8.73,32.68l-.51-.3s-.13-1-.1-2.08c0,.74,.62,2.38,.62,2.38Z" style="fill:none; stroke:#231f20; stroke-miterlimit:10; stroke-width:.1px;"/><path d="M8.86,26.99c-.4,.03-.69,.28-.92,.71-.54,1.01-.66,3.08-.66,3.08-.04,.27-.04,.8-.04,1.03l2.11,1.22c-.06-1.1,.07-1.6,.07-1.6,0,0,.25-.18,.36-.75,.11-.57,.22-1.27-.13-2.37-.34-1.09-.8-1.33-.8-1.33Z" style="fill:#729fcf;"/><path d="M8.11,32.32s.36,.05,.74-.77,.35-1.35,.38-1.6,.45,.19,.36,1.27l-.17,.22-.09,1.59-1.23-.71Z" style="fill:url(#linear-gradient-37);"/><path d="M9.6,31.22s.3-2.42-.61-2.95c0,0-.35-.06-.6,.55-.39,.94,.19,2.31,.19,2.31,0,0-.45-.43-.52-.57,0,0-.33,.37-.1,1.66l-.69-.4s-.03-.67,.03-1.04c0,0,.12-2.07,.65-3.08,.24-.43,.51-.68,.92-.71,0,0,.46,.23,.8,1.32,.18,.55,.34,2.34-.06,2.9Z" style="fill:url(#linear-gradient-38);"/><path d="M8.92,32.79l.6,.35s.05-1.32,.02-1.86c0,0,.36-.21,.29-1.81,0,0-.21,1.49-.64,1.61,0,0-.05,1.08-.29,1.71Z" style="fill:#204a87;"/><path d="M15.17,30.19l-.22,3.15s-.46,.98-.46,2.67l-7.24-4.2s-.02-.67,.04-1.03c0,0,.12-2.07,.65-3.08,.24-.43,.51-.68,.92-.71h0c.86,.07,1.7,.12,1.91,.1,.15-.01,.27-.21,.27-.59s.64-.02,1.09,.22c.44,.24,1.03,.67,1.03,.9,0,.23-.08,.68,.15,.88,.23,.18,1.31,.84,1.86,1.7Z" style="fill:none; stroke:#204a87; stroke-linecap:round; stroke-linejoin:round; stroke-width:.35px;"/><path d="M13.58,27.32c.18,.1,.31,.06,.39-.13s.14-.46,.17-.73,.05-.7,.05-1.15-.12-1.51-.62-1.99-1.64-1.24-2.1-1.06-.76,.78-.49,1.6,.6,.74,.6,.74c0,0,.18,.93,.52,1.43,.22,.33,.89,.95,1.49,1.3Z" style="fill:#fcaf3e;"/><path d="M13.98,25.72s.02,.13,.02,.16,.04,.08,.09,.1,.09,.07,.09,.07c0,0,0-.18,0-.23s-.17-.13-.17-.13l-.03,.03Z" style="fill:#ce5c00;"/><path d="M11.53,23.88c.15,.05,.54,.76,.54,.76,0,0-.04-.72,0-.86s.18-.27,.47-.22,.55-.7,1.48,.57c0,0,0-.44-.62-1.07s-1.63-1.21-2.12-1-.64,.57-.57,1c.12,.8,.64,1.57,.65,1.94,0,0-.09-1.27,.19-1.11Z" style="fill:#8f5902;"/><path d="M11.71,24.12c-.1-.05-.19-.35-.38-.41s-.24,.11-.2,.42,.22,.85,.42,.99,.2,.01,.22-.08,.06-.78-.05-.91Z" style="fill:#fcaf3e;"/><path d="M11.31,24.77s.23-.06,.98,.25c.52,.22,.86,.43,1.02,.54,.07,.05,.13-.07,.17-.11,.08-.08,.24-.2,.35-.15,.16,.08,.29,.35,.29,.35l-.29-.78-1.06-.23-1.69-.41,.23,.53Z" style="fill:#ce5c00;"/><path d="M10.8,23.69l.29,.7s.98,.07,2.02,.74l.4,.26s.19-.12,.25-.12,.15,.12,.17,.21,.05,.25,.05,.25c0,0,.31,.2,.34,.28,0,0,.16-.54,.03-1.15,0,0-.44-.63-.86-.89s-1.63-.68-1.63-.68l-1.05,.4Z" style="fill:url(#linear-gradient-39);"/><path d="M14.32,26s-.12-.12-.17-.16c.02-.68-.24-1.36-.38-1.64,.31,.28,.57,.65,.57,.65,.13,.6-.03,1.15-.03,1.15Z" style="fill:url(#linear-gradient-40);"/><path d="M13.55,25.67c.11,.05,.32,.15,.41,.24s.06,.14,.02,.15-.42-.32-.52-.38,.02-.04,.09,0Z" style="fill:#ce5c00;"/><path d="M13.65,26.13s.11,.08,.17,.13,.14,.19,.11,.23-.08,.03-.08,.03c0,0-.28-.27-.43-.35s-.29-.15-.32-.17,.31,0,.54,.13Z" style="fill:#ce5c00;"/><path d="M13.36,26.32c.07,.08,.37,.32,.44,.35s-.09,.11-.22,.03-.22-.38-.22-.38Z" style="fill:#ce5c00;"/><g><path d="M14.37,28.78c0-.5-.3-.75-.44-.81s.56-1.07,1.08-.3l-.15,.56-.49,.56Z" style="fill:#ef2929;"/><path d="M14.37,28.78c0-.5-.3-.75-.44-.81s.56-1.07,1.08-.3l-.15,.56-.49,.56Z" style="fill:none; stroke:#a40000; stroke-linecap:round; stroke-linejoin:round; stroke-width:.2px;"/><path d="M14.46,30.28c-.22-.15-.37-.59-.29-.93,.22-1.4,.68-1.54,1.17-1.97,.63-.54,1.59-.41,1.88,.39,.17,.48,.54,1.1,.06,2.09-.24,.5-.97,1.19-1.71,1.13-.32-.03-.78-.48-1.11-.7Z" style="fill:#ef2929;"/><path d="M16.32,30.25s-.61,.36-.99,.42h0c-.32-.07-.63-.3-.95-.51-.12-.08-.22-.26-.27-.45,.09,.09,.35,.34,.73,.45,.48,.14,.91-.39,.91-.39l.57,.48Z" style="fill:#a40000;"/><path d="M15.39,27.35l.07,1.3s-.7,.6-.99,.62-.2-.43-.11-.69c.24-.72,.61-.87,.99-1.2,.02-.01,.03-.03,.05-.03Z" style="fill:url(#linear-gradient-41);"/><path d="M14.46,30.28c-.22-.15-.37-.59-.29-.93,.22-1.4,.68-1.54,1.17-1.97,.63-.54,1.59-.41,1.88,.39,.17,.48,.54,1.1,.06,2.09-.24,.5-.97,1.19-1.71,1.13-.32-.03-.78-.48-1.11-.7Z" style="fill:none; stroke:#a40000; stroke-linecap:round; stroke-linejoin:round; stroke-width:.35px;"/><path d="M15.6,28.16s.32,1.15,.75,1.17,.31-.51,.31-.51l.48,.38s-.3,1-.89,1c0,0-.54-.5-.64-.86s0-1.19,0-1.19Z" style="fill:url(#linear-gradient-42);"/><path d="M15.45,29.52s-.35,.22-.59,.42c0,0-.22-.39-.21-.78,0,0,.33-.36,.6-.5l.2,.86Z" style="fill:#fcaf3e;"/><path d="M17.06,30.19c-.17,.19-.38,.16-.5,.1-.49-.21-.92-1.1-.96-1.98s.32-1.35,.8-1.25c.05,.01,.18,.05,.18,.05h0s-.26-.31-.59-.33c-.36-.03-.78,.28-.79,1.19-.02,1.1,.45,2.16,.97,2.53,.26,.19,.49,.22,.67,.13,.16-.08,.22-.3,.22-.43Z" style="fill:#a40000;"/><path d="M14.61,30.38s.3,1.26,.23,2.26-.18,.97-.19,1.3,.24,.55,.53,.72,.77,.08,.84-.07-.06-.73-.12-1.37-.13-2.49-.13-2.49c0,0-.6,.05-1.17-.36Z" style="fill:#ef2929;"/><polygon points="15.73 31.4 15.78 32.15 15.01 31.63 15.45 31.16 15.73 31.4" style="fill:#a40000;"/><path d="M14.69,34.16c.19-.29,.27-.33,.64-.2s.71,.57,.71,.57l-.09-.54-.94-.65-.36,.13,.04,.7Z" style="fill:#a40000;"/><path d="M14.61,30.38s.3,1.26,.23,2.26-.18,.97-.19,1.3,.24,.55,.53,.72,.77,.08,.84-.07-.06-.73-.12-1.37-.13-2.49-.13-2.49c0,0-.6,.05-1.17-.36Z" style="fill:none; stroke:#a40000; stroke-linecap:round; stroke-linejoin:round; stroke-width:.35px;"/><g><path d="M15.83,30.49s.16,.23,.45,.34c0,0-.06,.47,0,.89l-.55-.32s-.12-.46-.07-.91h.17Z" style="fill:url(#linear-gradient-43);"/><path d="M16.28,31.72l-.35-.2c-.11-.44-.1-1.03-.1-1.03,0,0,.15,.23,.45,.34,0,0-.06,.47,0,.89Z" style="fill:url(#linear-gradient-44);"/></g><path d="M15.98,28.84c-.13-.76-.06-1.09,.17-1.31,.09-.09-.01-.29-.25-.09s-.23,.96,.08,1.4Z" style="fill:url(#linear-gradient-45);"/><path d="M17.57,28.7c.09,.67-.12,1.1-.46,.96s-.67-.77-.74-1.41,.12-1.06,.45-.94,.68,.74,.76,1.4Z" style="fill:url(#linear-gradient-46);"/><path d="M17.59,28.54c.08,.5-.06,.84-.32,.75s-.52-.55-.6-1.04,.06-.81,.31-.74,.52,.53,.61,1.03Z" style="fill:#231f20;"/><g><path d="M18.32,25.48c-.47-.17-1.07,.33-1.28,1.2-.14,.61-.15,1.26,0,1.67,.19,.47,.61,.9,1.26,1.45,.31,.26,.86,.61,1.22,.38,.38-.2,.61-.88,.45-1.94-.04-.25-.17-1.39-1.01-2.33-.32-.36-.65-.44-.65-.44Z" style="fill:url(#linear-gradient-47);"/><path d="M19.83,28.1c.19,1.18-.17,1.98-.84,1.74s-1.27-1.33-1.42-2.43c-.14-1.06,.23-1.77,.83-1.62s1.24,1.17,1.43,2.3Z" style="fill:url(#linear-gradient-48);"/><path d="M19.83,28.1c.19,1.18-.17,1.98-.84,1.74s-1.27-1.33-1.42-2.43c-.14-1.06,.23-1.77,.83-1.62s1.24,1.17,1.43,2.3Z" style="fill:url(#linear-gradient-49);"/><path d="M19.82,29.12c.03-.73-.49-1.91-.89-2.09-.42-.19-.81,.06-.97,.27-.1,.14-.22,.12-.3,.07-.1-.98,.22-1.6,.76-1.44,.55,.15,1.13,1.07,1.34,2.12,.08,.4,.1,.76,.06,1.06Z" style="fill:url(#linear-gradient-50);"/></g></g><path d="M16.53,32.22c-.13,.15-.36-.06-.49-.22-.12-.17-.16-.39-.16-.39,0,0-.06-.07-.21-.18,0,0-.24,.02-.34,.1,0,0,.43,.21,.76,.72,.27,.44,.11,.76,.11,.76,0,0,.13,.22,.13,.41,0,.22-.11,.38-.11,.38,0,0,.12,.22,.14,.39,.03,.24-.03,.5-.21,.52-.12,.01-.18-.07-.18-.07,0,0,.14-.12,.06-.39,0,0-.21-.43-.91-.68-.32-.11-.45,.21-.45,.21,0,0-.02,.15-.02,.21,0,0-.18,.27-.63,.03-.26,.13-.57,.05-.57,.05l-1.12-.37s-.13-.82-.05-1.11c.08-.29,.52-.73,.52-.73,0,0,.08-.04,.17-.09,.27-.24,.78-.7,1.04-.97,.25-.27,1.33-.46,1.98,.14,.65,.6,.66,1.13,.54,1.28Z" style="fill:none; stroke:#ce5c00; stroke-linecap:round; stroke-linejoin:round; stroke-width:.7px;"/><path d="M12.97,31.77c-.09,.05-.17,.1-.17,.1,0,0-.44,.44-.52,.73s.05,1.11,.05,1.11l1.12,.37s.31,.08,.57-.05c.08-.04,.24,.07,.27,.05,.1-.08-.14-1.38-.14-1.38l-1.18-.92Z" style="fill:#fcaf3e;"/><path d="M12.97,31.77c.27-.24,.79-.69,1.04-.96s1.33-.47,1.98,.14,.66,1.13,.54,1.28-.36-.06-.48-.22-.17-.39-.17-.39c0,0-.06-.06-.21-.18,0,0-.24,.02-.34,.1,0,0,.44,.21,.76,.73,.27,.43,.11,.75,.11,.75,0,0,.14,.22,.14,.41,0,.22-.11,.37-.11,.37,0,0,.12,.22,.14,.39,.03,.24-.03,.5-.21,.52-.12,.01-.18-.07-.18-.07,0,0,.14-.12,.06-.38,0,0-.21-.44-.92-.68-.32-.11-.45,.21-.45,.21,0,0-.02,.15-.01,.21,0,0-.22,.33-.75-.04-.29-.2-.5-.43-.69-.84-.16-.34-.38-1.06-.24-1.34Z" style="fill:#fcaf3e;"/><path d="M16.36,32.26c-.11-.03-.23-.15-.31-.26-.13-.16-.17-.39-.17-.39,0,0-.06-.06-.21-.18,0,0-.24,.02-.34,.09-.3-.2-.68-.24-.78-.24,.09-.05,.51-.2,.78-.16,.33,.06,.71,.28,.86,.5,.14,.21,.09,.39,.08,.47,0,.07,.03,.12,.08,.17Z" style="fill:#ce5c00;"/><path d="M16.24,32.85h0c-.02,.1-.04,.16-.04,.16-.27-.42-.63-.73-.85-.85s-.55-.24-.73-.19c0,0,.25-.26,.75,0,.49,.26,.75,.61,.86,.84,0,.01,.02,.03,.02,.04Z" style="fill:#ce5c00;"/><path d="M16.28,33.68h0c-.03,.09-.05,.12-.05,.12-.28-.42-.64-.73-.86-.86s-.55-.24-.73-.19c0,0,.26-.26,.75,0,.49,.27,.83,.69,.89,.92Z" style="fill:#ce5c00;"/><path d="M14.07,34.23c-.12,.07-.74,.47-1.32,.79l-3.1-1.8c.65-.18,1.59-.49,2.09-.83,.58-.39,.9-.72,.9-.72,0,0-.18,.29,0,1.02,.17,.73,.84,1.78,1.42,1.53Z" style="fill:url(#linear-gradient-51);"/><path d="M13.5,34.05c-.19-.02-.46,.02-.71,.19-.16,.11-.41,.26-.68,.4l-1.01-.59c.67-.25,1.35-.7,1.52-1.2,.17,.48,.51,1,.88,1.2Z" style="fill:url(#linear-gradient-52);"/><path d="M14.07,34.23c-.12,.07-.74,.47-1.32,.79l-3.1-1.8c.65-.18,1.59-.49,2.09-.83,.58-.39,.9-.72,.9-.72,0,0-.18,.29,0,1.02,.17,.73,.84,1.78,1.42,1.53Z" style="fill:none; stroke:#204a87; stroke-linecap:round; stroke-linejoin:round; stroke-width:.35px;"/><path d="M14.65,25.44c-.02-.17-.48-1.07-1.94-1.58-1.25-.43-1.74-.18-2.07,.07-.13,.1-.12,.22-.11,.26-.2-.37-.34-.75-.41-1.13-.29-1.47,.51-2.37,1.76-2.03,1.26,.35,2.51,1.8,2.78,3.26,.08,.44,.08,.82-.02,1.14Z" style="fill:url(#linear-gradient-53);"/><path d="M14.65,25.44c-.02-.13-.25-.62-.92-1.06h0s.21-.96-.86-2.05c-1.07-1.08-2.45-1.51-2.78-.07,.09-.97,.81-1.48,1.81-1.21,1.26,.35,2.51,1.8,2.78,3.26,.08,.44,.08,.82-.02,1.14Z" style="fill:url(#linear-gradient-54);"/><g><path d="M18.36,27.85c.06,.31-.03,.53-.19,.48s-.33-.34-.39-.65,.03-.52,.19-.47,.33,.33,.39,.64Z" style="fill:#a40000;"/><path d="M20.55,26.84s-2.32,1.06-2.35,1.05c-.06,0-.13-.12-.15-.24-.02-.09,0-.17,.04-.19h.04l2.26-.92,.16,.3Z" style="fill:#a40000;"/><path d="M20.59,26.81c-.03-.28-.24-.55-.48-.6s-.4,.14-.38,.42,.23,.55,.47,.6,.42-.14,.39-.42Z" style="fill:#ef2929;"/></g><polygon points="23.72 23.8 5.78 13.4 5.78 30.97 23.72 41.37 23.72 23.8" style="fill:none; stroke:url(#linear-gradient-55); stroke-miterlimit:10; stroke-width:.7px;"/><path d="M14.65,25.44c-.02-.17-.48-1.07-1.94-1.58-1.25-.43-1.74-.18-2.07,.07-.13,.1-.12,.22-.11,.26-.2-.37-.34-.75-.41-1.13-.29-1.47,.51-2.37,1.76-2.03,1.26,.35,2.51,1.8,2.78,3.26,.08,.44,.08,.82-.02,1.14Z" style="fill:none; stroke:#204a87; stroke-linecap:round; stroke-linejoin:round; stroke-width:.35px;"/></g><polygon points="15.56 44.14 15.56 42.26 4.15 35.67 4.15 37.54 15.56 44.14" style="fill:url(#linear-gradient-56);"/></g></g></svg>