<?xml version="1.0" encoding="UTF-8" standalone="no"?>
<svg
   width="16px"
   height="16px"
   viewBox="0 0 16 16"
   version="1.1"
   id="svg1"
   inkscape:version="1.3-dev (fdc7329b, 2022-05-31)"
   xmlns:inkscape="http://www.inkscape.org/namespaces/inkscape"
   xmlns:sodipodi="http://sodipodi.sourceforge.net/DTD/sodipodi-0.dtd"
   xmlns="http://www.w3.org/2000/svg"
   xmlns:svg="http://www.w3.org/2000/svg">
  <sodipodi:namedview
     id="namedview1"
     bordercolor="#666666"
     borderopacity="1.0"
     inkscape:showpageshadow="2"
     inkscape:pageopacity="0.0"
     inkscape:pagecheckerboard="0"
     inkscape:deskcolor="#d1d1d1"
     showgrid="false"
     inkscape:zoom="14.75"
     inkscape:cx="7.6610169"
     inkscape:cy="8"
     inkscape:window-width="2880"
     inkscape:window-height="1557"
     inkscape:window-x="-8"
     inkscape:window-y="-8"
     inkscape:window-maximized="1"
     inkscape:current-layer="svg1" />
  <path
     d="M 7.1834725,7.1834725 C 6.4334725,7.9334725 5.8723151,8.872315 5.5,10 5.127685,8.8723149 4.5665275,7.9334725 3.8165275,7.1834725 3.0665275,6.4334725 2.1276851,5.872315 1,5.5 2.1276851,5.127685 3.0665275,4.5665275 3.8165275,3.8165275 4.5665275,3.0665275 5.127685,2.1276851 5.5,1 5.8723151,2.127685 6.4334725,3.0665275 7.1834725,3.8165275 7.9334725,4.5665275 8.872315,5.1276849 10,5.5 8.872315,5.8723151 7.9334725,6.4334725 7.1834725,7.1834725 Z"
     id="Star"
     stroke="#808080"
     fill="#fff0ff"
     style="fill-rule:evenodd;stroke-width:1;stroke-linejoin:bevel;" />
  <path
     d="M 13.558129,9.5581287 C 13.086724,10.029533 12.734015,10.619632 12.5,11.328427 12.265985,10.619633 11.913276,10.029533 11.441871,9.5581287 10.970467,9.0867242 10.380367,8.7340147 9.6715729,8.5 10.380368,8.2659851 10.970467,7.913276 11.441871,7.4418713 11.913276,6.9704665 12.265985,6.3803675 12.5,5.6715729 12.734015,6.3803673 13.086724,6.9704667 13.558129,7.4418713 14.029533,7.9132758 14.619633,8.2659853 15.328427,8.5 14.619632,8.7340149 14.029533,9.086724 13.558129,9.5581287 Z"
     id="Star-Copy"
     stroke="#808080"
     fill="#fff0ff"
     style="fill-rule:evenodd;stroke-width:1;stroke-linejoin:bevel;" />
  <path
     d="M 8.5581287,13.558129 C 8.0867242,14.029533 7.7340147,14.619633 7.5,15.328427 7.2659851,14.619632 6.913276,14.029533 6.4418713,13.558129 5.9704665,13.086724 5.3803675,12.734015 4.6715729,12.5 5.3803673,12.265985 5.9704667,11.913276 6.4418713,11.441871 6.9132758,10.970467 7.2659853,10.380367 7.5,9.6715729 7.7340149,10.380368 8.086724,10.970467 8.5581287,11.441871 9.0295335,11.913276 9.6196325,12.265985 10.328427,12.5 9.6196327,12.734015 9.0295333,13.086724 8.5581287,13.558129 Z"
     id="Star-Copy-2"
     stroke="#808080"
     fill="#fff0ff"
     style="fill-rule:evenodd;stroke-width:1;stroke-linejoin:bevel;" />
</svg>
