<?xml version="1.0" encoding="UTF-8"?><svg xmlns="http://www.w3.org/2000/svg" xmlns:xlink="http://www.w3.org/1999/xlink" viewBox="0 0 48 48"><defs><radialGradient id="radial-gradient" cx="-125.98" cy="-89.96" fx="-125.98" fy="-89.96" r="8.81" gradientTransform="translate(-61.63 339.6) rotate(90) scale(2.4 .96)" gradientUnits="userSpaceOnUse"><stop offset=".47" stop-color="#2c2c2c" stop-opacity=".5"/><stop offset=".99" stop-color="#2c2c2c" stop-opacity="0"/></radialGradient><linearGradient id="linear-gradient" x1="12.59" y1="24" x2="35.41" y2="24" gradientTransform="matrix(1, 0, 0, 1, 0, 0)" gradientUnits="userSpaceOnUse"><stop offset="0" stop-color="#fff" stop-opacity="0"/><stop offset="1" stop-color="#fff8f8"/></linearGradient><linearGradient id="linear-gradient-2" x1="27.54" y1="19.94" x2="21.55" y2="4.51" gradientTransform="matrix(1, 0, 0, 1, 0, 0)" gradientUnits="userSpaceOnUse"><stop offset="0" stop-color="#cfdeef"/><stop offset=".99" stop-color="#729fcf"/></linearGradient><linearGradient id="linear-gradient-3" x1="23.96" y1="-2.68" x2="24.02" y2="18" xlink:href="#linear-gradient"/><linearGradient id="linear-gradient-4" x1="19.64" y1="10.95" x2="24.69" y2="36.71" xlink:href="#linear-gradient-2"/><linearGradient id="linear-gradient-5" x1="43.32" y1="35.01" x2="27.52" y2="26.13" gradientTransform="matrix(1, 0, 0, 1, 0, 0)" gradientUnits="userSpaceOnUse"><stop offset="0" stop-color="#729fcf"/><stop offset="1" stop-color="#204a87"/></linearGradient><linearGradient id="linear-gradient-6" x1="31.94" y1="44.43" x2="16.06" y2="3.57" xlink:href="#linear-gradient-2"/><linearGradient id="linear-gradient-7" x1="7.67" y1="22.32" x2="5.89" y2="17.74" gradientTransform="translate(9.02 -14.1) rotate(29.81) scale(.84 .87) skewX(30.52)" xlink:href="#linear-gradient-2"/><linearGradient id="linear-gradient-8" x1="11.49" y1="22.33" x2="9.71" y2="17.76" gradientTransform="translate(9.02 -14.1) rotate(29.81) scale(.84 .87) skewX(30.52)" gradientUnits="userSpaceOnUse"><stop offset="0" stop-color="#729fcf"/><stop offset=".99" stop-color="#204a87"/></linearGradient><linearGradient id="linear-gradient-9" x1="15.31" y1="22.35" x2="13.53" y2="17.77" gradientTransform="translate(9.02 -14.1) rotate(29.81) scale(.84 .87) skewX(30.52)" xlink:href="#linear-gradient-2"/><linearGradient id="linear-gradient-10" x1="19.13" y1="22.37" x2="17.35" y2="17.79" xlink:href="#linear-gradient-8"/><linearGradient id="linear-gradient-11" x1="22.95" y1="22.39" x2="21.17" y2="17.81" gradientTransform="translate(9.02 -14.1) rotate(29.81) scale(.84 .87) skewX(30.52)" xlink:href="#linear-gradient-2"/><linearGradient id="linear-gradient-12" x1="26.77" y1="22.4" x2="24.99" y2="17.83" xlink:href="#linear-gradient-8"/><linearGradient id="linear-gradient-13" x1="30.59" y1="22.42" x2="28.81" y2="17.85" gradientTransform="translate(9.02 -14.1) rotate(29.81) scale(.84 .87) skewX(30.52)" xlink:href="#linear-gradient-2"/><linearGradient id="linear-gradient-14" x1="7.67" y1="26.08" x2="5.89" y2="21.5" xlink:href="#linear-gradient-8"/><linearGradient id="linear-gradient-15" x1="11.49" y1="26.1" x2="9.71" y2="21.52" gradientTransform="translate(9.02 -14.1) rotate(29.81) scale(.84 .87) skewX(30.52)" xlink:href="#linear-gradient-2"/><linearGradient id="linear-gradient-16" x1="15.31" y1="26.12" x2="13.53" y2="21.54" xlink:href="#linear-gradient-8"/><linearGradient id="linear-gradient-17" x1="19.13" y1="26.13" x2="17.35" y2="21.56" gradientTransform="translate(9.02 -14.1) rotate(29.81) scale(.84 .87) skewX(30.52)" xlink:href="#linear-gradient-2"/><linearGradient id="linear-gradient-18" x1="22.95" y1="26.15" x2="21.17" y2="21.58" xlink:href="#linear-gradient-8"/><linearGradient id="linear-gradient-19" x1="26.77" y1="26.17" x2="24.99" y2="21.59" gradientTransform="translate(9.02 -14.1) rotate(29.81) scale(.84 .87) skewX(30.52)" xlink:href="#linear-gradient-2"/><linearGradient id="linear-gradient-20" x1="30.59" y1="26.19" x2="28.81" y2="21.61" xlink:href="#linear-gradient-8"/><linearGradient id="linear-gradient-21" x1="7.67" y1="29.85" x2="5.89" y2="25.27" gradientTransform="translate(9.02 -14.1) rotate(29.81) scale(.84 .87) skewX(30.52)" xlink:href="#linear-gradient-2"/><linearGradient id="linear-gradient-22" y1="29.86" x2="9.71" y2="25.29" xlink:href="#linear-gradient-8"/><linearGradient id="linear-gradient-23" x1="15.31" y1="29.88" x2="13.53" y2="25.3" gradientTransform="translate(9.02 -14.1) rotate(29.81) scale(.84 .87) skewX(30.52)" xlink:href="#linear-gradient-2"/><linearGradient id="linear-gradient-24" x1="19.13" y1="29.9" x2="17.35" y2="25.32" gradientTransform="translate(9.02 -14.1) rotate(29.81) scale(.84 .87) skewX(30.52)" xlink:href="#linear-gradient-2"/><linearGradient id="linear-gradient-25" x1="22.95" y1="29.92" x2="21.17" y2="25.34" gradientTransform="translate(9.02 -14.1) rotate(29.81) scale(.84 .87) skewX(30.52)" xlink:href="#linear-gradient-2"/><linearGradient id="linear-gradient-26" x1="26.77" y1="29.93" x2="24.99" y2="25.36" xlink:href="#linear-gradient-8"/><linearGradient id="linear-gradient-27" x1="30.59" y1="29.95" x2="28.81" y2="25.38" gradientTransform="translate(9.02 -14.1) rotate(29.81) scale(.84 .87) skewX(30.52)" xlink:href="#linear-gradient-2"/><linearGradient id="linear-gradient-28" x1="7.67" y1="33.61" x2="5.89" y2="29.03" xlink:href="#linear-gradient-8"/><linearGradient id="linear-gradient-29" x1="11.49" y1="33.63" x2="9.71" y2="29.05" gradientTransform="translate(9.02 -14.1) rotate(29.81) scale(.84 .87) skewX(30.52)" xlink:href="#linear-gradient-2"/><linearGradient id="linear-gradient-30" x1="15.31" y1="33.65" x2="13.53" y2="29.07" gradientTransform="translate(9.02 -14.1) rotate(29.81) scale(.84 .87) skewX(30.52)" xlink:href="#linear-gradient-2"/><linearGradient id="linear-gradient-31" x1="19.13" y1="33.66" x2="17.35" y2="29.09" gradientTransform="translate(9.02 -14.1) rotate(29.81) scale(.84 .87) skewX(30.52)" xlink:href="#linear-gradient-2"/><linearGradient id="linear-gradient-32" x1="22.95" y1="33.68" x2="21.17" y2="29.11" gradientTransform="translate(9.02 -14.1) rotate(29.81) scale(.84 .87) skewX(30.52)" xlink:href="#linear-gradient-2"/><linearGradient id="linear-gradient-33" x1="26.77" y1="33.7" x2="24.99" y2="29.12" gradientTransform="translate(9.02 -14.1) rotate(29.81) scale(.84 .87) skewX(30.52)" xlink:href="#linear-gradient-2"/><linearGradient id="linear-gradient-34" x1="30.59" y1="33.72" x2="28.81" y2="29.14" xlink:href="#linear-gradient-8"/><linearGradient id="linear-gradient-35" x1="7.67" y1="37.38" x2="5.89" y2="32.8" gradientTransform="translate(9.02 -14.1) rotate(29.81) scale(.84 .87) skewX(30.52)" xlink:href="#linear-gradient-2"/><linearGradient id="linear-gradient-36" y1="37.39" y2="32.82" xlink:href="#linear-gradient-8"/><linearGradient id="linear-gradient-37" x1="15.31" y1="37.41" x2="13.53" y2="32.83" gradientTransform="translate(9.02 -14.1) rotate(29.81) scale(.84 .87) skewX(30.52)" xlink:href="#linear-gradient-2"/><linearGradient id="linear-gradient-38" x1="19.13" y1="37.43" x2="17.35" y2="32.85" gradientTransform="translate(9.02 -14.1) rotate(29.81) scale(.84 .87) skewX(30.52)" xlink:href="#linear-gradient-2"/><linearGradient id="linear-gradient-39" x1="22.95" y1="37.45" x2="21.17" y2="32.87" gradientTransform="translate(9.02 -14.1) rotate(29.81) scale(.84 .87) skewX(30.52)" xlink:href="#linear-gradient-2"/><linearGradient id="linear-gradient-40" x1="26.77" y1="37.46" x2="24.99" y2="32.89" xlink:href="#linear-gradient-8"/><linearGradient id="linear-gradient-41" x1="30.59" y1="37.48" x2="28.81" y2="32.91" gradientTransform="translate(9.02 -14.1) rotate(29.81) scale(.84 .87) skewX(30.52)" xlink:href="#linear-gradient-2"/><linearGradient id="linear-gradient-42" x1="7.67" y1="41.14" x2="5.89" y2="36.56" xlink:href="#linear-gradient-8"/><linearGradient id="linear-gradient-43" x1="11.49" y1="41.16" x2="9.71" y2="36.58" gradientTransform="translate(9.02 -14.1) rotate(29.81) scale(.84 .87) skewX(30.52)" xlink:href="#linear-gradient-2"/><linearGradient id="linear-gradient-44" x1="15.31" y1="41.18" x2="13.53" y2="36.6" xlink:href="#linear-gradient-8"/><linearGradient id="linear-gradient-45" x1="19.13" y1="41.19" x2="17.35" y2="36.62" gradientTransform="translate(9.02 -14.1) rotate(29.81) scale(.84 .87) skewX(30.52)" xlink:href="#linear-gradient-2"/><linearGradient id="linear-gradient-46" x1="22.95" y1="41.21" x2="21.17" y2="36.64" xlink:href="#linear-gradient-8"/><linearGradient id="linear-gradient-47" x1="26.77" y1="41.23" x2="24.99" y2="36.65" gradientTransform="translate(9.02 -14.1) rotate(29.81) scale(.84 .87) skewX(30.52)" xlink:href="#linear-gradient-2"/><linearGradient id="linear-gradient-48" x1="30.59" y1="41.25" x2="28.81" y2="36.67" xlink:href="#linear-gradient-8"/><linearGradient id="linear-gradient-49" x1="7.67" y1="44.91" x2="5.89" y2="40.33" gradientTransform="translate(9.02 -14.1) rotate(29.81) scale(.84 .87) skewX(30.52)" xlink:href="#linear-gradient-2"/><linearGradient id="linear-gradient-50" y1="44.92" x2="9.71" y2="40.35" xlink:href="#linear-gradient-8"/><linearGradient id="linear-gradient-51" x1="15.31" y1="44.94" x2="13.53" y2="40.37" gradientTransform="translate(9.02 -14.1) rotate(29.81) scale(.84 .87) skewX(30.52)" xlink:href="#linear-gradient-2"/><linearGradient id="linear-gradient-52" x1="19.13" y1="44.96" x2="17.35" y2="40.38" xlink:href="#linear-gradient-8"/><linearGradient id="linear-gradient-53" x1="22.95" y1="44.98" x2="21.17" y2="40.4" gradientTransform="translate(9.02 -14.1) rotate(29.81) scale(.84 .87) skewX(30.52)" xlink:href="#linear-gradient-2"/><linearGradient id="linear-gradient-54" x1="26.77" y1="44.99" x2="24.99" y2="40.42" xlink:href="#linear-gradient-8"/><linearGradient id="linear-gradient-55" x1="30.59" y1="45.01" x2="28.81" y2="40.44" gradientTransform="translate(9.02 -14.1) rotate(29.81) scale(.84 .87) skewX(30.52)" xlink:href="#linear-gradient-2"/><linearGradient id="linear-gradient-56" x1="18.24" y1="24.72" x2="18.24" y2="35.61" gradientTransform="translate(25.04 -16.23) rotate(52.41) scale(.84 .87) skewX(30.52)" xlink:href="#linear-gradient-8"/><linearGradient id="linear-gradient-57" x1="18.24" y1="30.12" x2="18.24" y2="44.77" gradientTransform="translate(9.02 -14.1) rotate(29.81) scale(.84 .87) skewX(30.52)" gradientUnits="userSpaceOnUse"><stop offset="0" stop-color="#babdb6" stop-opacity="0"/><stop offset="1" stop-color="#2e3436"/></linearGradient><linearGradient id="linear-gradient-58" x1="18.24" y1="30.74" x2="18.24" y2="22.71" gradientTransform="translate(9.02 -14.1) rotate(29.81) scale(.84 .87) skewX(30.52)" xlink:href="#linear-gradient"/><linearGradient id="linear-gradient-59" x1="18.24" y1="29.88" x2="18.24" y2="35.2" xlink:href="#linear-gradient-57"/><linearGradient id="linear-gradient-60" x1="18.24" y1="22.4" x2="18.24" y2="28.51" gradientTransform="translate(25.04 -16.23) rotate(52.41) scale(.84 .87) skewX(30.52)" xlink:href="#linear-gradient-8"/><linearGradient id="linear-gradient-61" x1="18.24" y1="30.99" x2="18.24" y2="23.81" gradientTransform="translate(9.02 -14.1) rotate(29.81) scale(.84 .87) skewX(30.52)" xlink:href="#linear-gradient"/><linearGradient id="linear-gradient-62" x1="20.5" y1="30.94" x2="20.5" y2="24.97" gradientTransform="translate(9.02 -14.1) rotate(29.81) scale(.84 .87) skewX(30.52)" xlink:href="#linear-gradient"/></defs><g style="isolation:isolate;"><g id="shadow" style="mix-blend-mode:multiply; opacity:.45;"><ellipse cx="24.39" cy="37.08" rx="8.13" ry="20.33" transform="translate(-18.88 46.94) rotate(-69.51)" style="fill:url(#radial-gradient);"/></g><g id="ART"><g><polygon points="15.85 4.23 12.59 6.12 12.59 32.47 32.15 43.77 35.41 41.88 35.41 15.53 15.85 4.23" style="fill:url(#linear-gradient);"/><polygon points="35.41 15.53 32.15 17.41 12.59 6.12 15.85 4.23 35.41 15.53" style="fill:url(#linear-gradient-2);"/><polygon points="35.41 15.53 32.15 17.41 12.59 6.12 15.85 4.23 35.41 15.53" style="fill:url(#linear-gradient-3);"/><polygon points="32.15 43.77 12.61 32.44 12.59 6.12 32.15 17.47 32.15 43.77" style="fill:url(#linear-gradient-4);"/><g><polygon points="35.41 41.88 35.41 15.53 32.15 17.41 32.15 43.77 35.41 41.88" style="fill:url(#linear-gradient-5);"/><polygon points="15.85 4.23 12.59 6.12 12.59 32.47 32.15 43.77 35.41 41.88 35.41 15.53 15.85 4.23" style="fill:none; stroke:url(#linear-gradient-6); stroke-miterlimit:10;"/></g><g><g><polygon points="15.38 11.46 12.59 9.84 12.59 6.08 15.38 7.7 15.38 11.46" style="fill:url(#linear-gradient-7);"/><polygon points="18.18 13.08 15.38 11.46 15.38 7.7 18.18 9.32 18.18 13.08" style="fill:url(#linear-gradient-8);"/><polygon points="20.97 14.7 18.18 13.08 18.18 9.32 20.97 10.94 20.97 14.7" style="fill:url(#linear-gradient-9);"/><polygon points="23.77 16.32 20.97 14.7 20.97 10.94 23.77 12.55 23.77 16.32" style="fill:url(#linear-gradient-10);"/><polygon points="26.56 17.94 23.77 16.32 23.77 12.55 26.56 14.17 26.56 17.94" style="fill:url(#linear-gradient-11);"/><polygon points="29.36 19.56 26.56 17.94 26.56 14.17 29.36 15.79 29.36 19.56" style="fill:url(#linear-gradient-12);"/><polygon points="32.15 21.18 29.36 19.56 29.36 15.79 32.15 17.41 32.15 21.18" style="fill:url(#linear-gradient-13);"/></g><g><polygon points="15.38 15.23 12.59 13.61 12.59 9.84 15.38 11.46 15.38 15.23" style="fill:url(#linear-gradient-14);"/><polygon points="18.18 16.85 15.38 15.23 15.38 11.46 18.18 13.08 18.18 16.85" style="fill:url(#linear-gradient-15);"/><polygon points="20.97 18.47 18.18 16.85 18.18 13.08 20.97 14.7 20.97 18.47" style="fill:url(#linear-gradient-16);"/><polygon points="23.77 20.08 20.97 18.47 20.97 14.7 23.77 16.32 23.77 20.08" style="fill:url(#linear-gradient-17);"/><polygon points="26.56 21.7 23.77 20.08 23.77 16.32 26.56 17.94 26.56 21.7" style="fill:url(#linear-gradient-18);"/><polygon points="29.36 23.32 26.56 21.7 26.56 17.94 29.36 19.56 29.36 23.32" style="fill:url(#linear-gradient-19);"/><polygon points="32.15 24.94 29.36 23.32 29.36 19.56 32.15 21.18 32.15 24.94" style="fill:url(#linear-gradient-20);"/></g><g><polygon points="15.38 18.99 12.59 17.38 12.59 13.61 15.38 15.23 15.38 18.99" style="fill:url(#linear-gradient-21);"/><polygon points="18.18 20.61 15.38 18.99 15.38 15.23 18.18 16.85 18.18 20.61" style="fill:url(#linear-gradient-22);"/><polygon points="20.97 22.23 18.18 20.61 18.18 16.85 20.97 18.47 20.97 22.23" style="fill:url(#linear-gradient-23);"/><polygon points="23.77 23.85 20.97 22.23 20.97 18.47 23.77 20.08 23.77 23.85" style="fill:url(#linear-gradient-24);"/><polygon points="26.56 25.47 23.77 23.85 23.77 20.08 26.56 21.7 26.56 25.47" style="fill:url(#linear-gradient-25);"/><polygon points="29.36 27.09 26.56 25.47 26.56 21.7 29.36 23.32 29.36 27.09" style="fill:url(#linear-gradient-26);"/><polygon points="32.15 28.71 29.36 27.09 29.36 23.32 32.15 24.94 32.15 28.71" style="fill:url(#linear-gradient-27);"/></g><g><polygon points="15.38 22.76 12.59 21.14 12.59 17.38 15.38 18.99 15.38 22.76" style="fill:url(#linear-gradient-28);"/><polygon points="18.18 24.38 15.38 22.76 15.38 18.99 18.18 20.61 18.18 24.38" style="fill:url(#linear-gradient-29);"/><polygon points="20.97 26 18.18 24.38 18.18 20.61 20.97 22.23 20.97 26" style="fill:url(#linear-gradient-30);"/><polygon points="23.77 27.62 20.97 26 20.97 22.23 23.77 23.85 23.77 27.62" style="fill:url(#linear-gradient-31);"/><polygon points="26.56 29.23 23.77 27.62 23.77 23.85 26.56 25.47 26.56 29.23" style="fill:url(#linear-gradient-32);"/><polygon points="29.36 30.85 26.56 29.23 26.56 25.47 29.36 27.09 29.36 30.85" style="fill:url(#linear-gradient-33);"/><polygon points="32.15 32.47 29.36 30.85 29.36 27.09 32.15 28.71 32.15 32.47" style="fill:url(#linear-gradient-34);"/></g><g><polygon points="15.38 26.52 12.59 24.91 12.59 21.14 15.38 22.76 15.38 26.52" style="fill:url(#linear-gradient-35);"/><polygon points="18.18 28.14 15.38 26.52 15.38 22.76 18.18 24.38 18.18 28.14" style="fill:url(#linear-gradient-36);"/><polygon points="20.97 29.76 18.18 28.14 18.18 24.38 20.97 26 20.97 29.76" style="fill:url(#linear-gradient-37);"/><polygon points="23.77 31.38 20.97 29.76 20.97 26 23.77 27.62 23.77 31.38" style="fill:url(#linear-gradient-38);"/><polygon points="26.56 33 23.77 31.38 23.77 27.62 26.56 29.23 26.56 33" style="fill:url(#linear-gradient-39);"/><polygon points="29.36 34.62 26.56 33 26.56 29.23 29.36 30.85 29.36 34.62" style="fill:url(#linear-gradient-40);"/><polygon points="32.15 36.24 29.36 34.62 29.36 30.85 32.15 32.47 32.15 36.24" style="fill:url(#linear-gradient-41);"/></g><g><polygon points="15.38 30.29 12.59 28.67 12.59 24.91 15.38 26.52 15.38 30.29" style="fill:url(#linear-gradient-42);"/><polygon points="18.18 31.91 15.38 30.29 15.38 26.52 18.18 28.14 18.18 31.91" style="fill:url(#linear-gradient-43);"/><polygon points="20.97 33.53 18.18 31.91 18.18 28.14 20.97 29.76 20.97 33.53" style="fill:url(#linear-gradient-44);"/><polygon points="23.77 35.15 20.97 33.53 20.97 29.76 23.77 31.38 23.77 35.15" style="fill:url(#linear-gradient-45);"/><polygon points="26.56 36.76 23.77 35.15 23.77 31.38 26.56 33 26.56 36.76" style="fill:url(#linear-gradient-46);"/><polygon points="29.36 38.38 26.56 36.76 26.56 33 29.36 34.62 29.36 38.38" style="fill:url(#linear-gradient-47);"/><polygon points="32.15 40 29.36 38.38 29.36 34.62 32.15 36.24 32.15 40" style="fill:url(#linear-gradient-48);"/></g><g><polygon points="15.38 34.05 12.59 32.44 12.59 28.67 15.38 30.29 15.38 34.05" style="fill:url(#linear-gradient-49);"/><polygon points="18.18 35.67 15.38 34.05 15.38 30.29 18.18 31.91 18.18 35.67" style="fill:url(#linear-gradient-50);"/><polygon points="20.97 37.29 18.18 35.67 18.18 31.91 20.97 33.53 20.97 37.29" style="fill:url(#linear-gradient-51);"/><polygon points="23.77 38.91 20.97 37.29 20.97 33.53 23.77 35.15 23.77 38.91" style="fill:url(#linear-gradient-52);"/><polygon points="26.56 40.53 23.77 38.91 23.77 35.15 26.56 36.76 26.56 40.53" style="fill:url(#linear-gradient-53);"/><polygon points="29.36 42.15 26.56 40.53 26.56 36.76 29.36 38.38 29.36 42.15" style="fill:url(#linear-gradient-54);"/><polygon points="32.15 43.77 29.36 42.15 29.36 38.38 32.15 40 32.15 43.77" style="fill:url(#linear-gradient-55);"/></g><path d="M22.37,17.39c-3.78-2.19-7.02-.96-8.39,2.67,1.37,5.22,4.61,10.2,8.39,12.39s7.02,.96,8.39-2.67c-1.37-5.22-4.61-10.2-8.39-12.39Z" style="fill:#eeeeec;"/><ellipse cx="22.37" cy="24.92" rx="3.63" ry="6.44" transform="translate(-7.86 10.51) rotate(-22.6)" style="fill:url(#linear-gradient-56);"/><path d="M30.75,29.79c-1.38,3.61-4.6,4.85-8.38,2.66s-7.01-7.17-8.38-12.37c.2,.38,3.52,6.39,8.38,9.2s8.18,.65,8.38,.51Z" style="fill:url(#linear-gradient-57); mix-blend-mode:multiply;"/><path d="M30.75,29.76c-1.38-5.2-4.6-10.18-8.38-12.37s-7.01-.95-8.38,2.66c.2-.15,3.52-2.31,8.38,.51s8.18,8.82,8.38,9.2Z" style="fill:url(#linear-gradient-58);"/><ellipse cx="22.37" cy="24.92" rx="1.77" ry="3.13" transform="translate(-7.86 10.51) rotate(-22.6)" style="mix-blend-mode:multiply; opacity:.87;"/><path d="M18.21,22.51c0,3.09,1.87,6.69,4.16,8.02s4.16-.11,4.16-3.2c0,0-1.74,.87-4.16-.53s-4.16-4.29-4.16-4.29Z" style="fill:url(#linear-gradient-59); mix-blend-mode:multiply; opacity:.45;"/><ellipse cx="22.37" cy="24.92" rx=".75" ry="1.32" transform="translate(-7.86 10.51) rotate(-22.6)" style="fill:url(#linear-gradient-60); opacity:.6;"/><path d="M26.53,27.33c0-3.09-1.87-6.69-4.16-8.02-2.3-1.33-4.16,.11-4.16,3.2,0,0,1.74-.87,4.16,.53s4.16,4.29,4.16,4.29Z" style="fill:url(#linear-gradient-61);"/><path d="M24.44,22.03c-.43-.83-1.25-1.35-1.35-1.07s.1,.61,.59,1.46,.75,1.47,1.11,1.75,.21-1.07-.36-2.15Z" style="fill:url(#linear-gradient-62);"/></g></g></g></g></svg>