<?xml version="1.0" encoding="UTF-8" standalone="no"?>
<svg
   viewBox="0 0 48 48"
   version="1.1"
   id="svg30407"
   sodipodi:docname="boundingrect.svg"
   inkscape:version="1.3.2 (091e20e, 2023-11-25, custom)"
   xmlns:inkscape="http://www.inkscape.org/namespaces/inkscape"
   xmlns:sodipodi="http://sodipodi.sourceforge.net/DTD/sodipodi-0.dtd"
   xmlns:xlink="http://www.w3.org/1999/xlink"
   xmlns="http://www.w3.org/2000/svg"
   xmlns:svg="http://www.w3.org/2000/svg"
   xmlns:rdf="http://www.w3.org/1999/02/22-rdf-syntax-ns#"
   xmlns:cc="http://creativecommons.org/ns#"
   xmlns:dc="http://purl.org/dc/elements/1.1/">
  <sodipodi:namedview
     id="namedview30409"
     pagecolor="#ffffff"
     bordercolor="#666666"
     borderopacity="1.0"
     inkscape:pageshadow="2"
     inkscape:pageopacity="0.0"
     inkscape:pagecheckerboard="0"
     showgrid="false"
     inkscape:snap-global="false"
     inkscape:zoom="15.6875"
     inkscape:cx="13.259"
     inkscape:cy="26.7729"
     inkscape:window-width="2880"
     inkscape:window-height="1557"
     inkscape:window-x="-8"
     inkscape:window-y="-8"
     inkscape:window-maximized="1"
     inkscape:current-layer="svg30407"
     inkscape:showpageshadow="2"
     inkscape:deskcolor="#d1d1d1" />
  <defs
     id="defs30253">
    <linearGradient
       id="linearGradient9"
       inkscape:collect="always">
      <stop
         style="stop-color:#8e928c;stop-opacity:1;"
         offset="0"
         id="stop9" />
      <stop
         style="stop-color:#555753;stop-opacity:1;"
         offset="1"
         id="stop10" />
    </linearGradient>
    <linearGradient
       id="linearGradient5"
       inkscape:collect="always">
      <stop
         style="stop-color:#a5a9a1;stop-opacity:1;"
         offset="0"
         id="stop6" />
      <stop
         style="stop-color:#555753;stop-opacity:1;"
         offset="1"
         id="stop7" />
    </linearGradient>
    <linearGradient
       id="linearGradient2"
       inkscape:collect="always">
      <stop
         style="stop-color:#eeeeec;stop-opacity:1;"
         offset="0"
         id="stop2" />
      <stop
         style="stop-color:#dbdbda;stop-opacity:1;"
         offset="0.491373"
         id="stop4" />
      <stop
         style="stop-color:#a3a3a3;stop-opacity:1;"
         offset="0.612019"
         id="stop5" />
      <stop
         style="stop-color:#a6a6a6;stop-opacity:1;"
         offset="1"
         id="stop3" />
    </linearGradient>
    <radialGradient
       id="radialGradient31254"
       cx="27.52"
       cy="37.55"
       r="20.49"
       gradientTransform="matrix(1.18,0,0,0.6,-8.34,13.02)"
       gradientUnits="userSpaceOnUse">
      <stop
         offset="0.35"
         stop-color="#2c2c2c"
         stop-opacity="0.5"
         id="stop31248"
         style="stop-color:#000000;stop-opacity:1" />
      <stop
         offset="0.78"
         stop-color="#2c2c2c"
         stop-opacity="0.1"
         id="stop31250" />
      <stop
         offset="0.93"
         stop-color="#2c2c2c"
         stop-opacity="0"
         id="stop31252" />
    </radialGradient>
    <style
       id="style30113">.cls-1{isolation:isolate;}.cls-2{fill:url(#radial-gradient);}.cls-3{opacity:0.4;fill:url(#linear-gradient);}.cls-3,.cls-65{mix-blend-mode:multiply;}.cls-4{fill:url(#linear-gradient-2);}.cls-5{fill:url(#linear-gradient-3);}.cls-6{fill:url(#linear-gradient-4);}.cls-7{fill:url(#linear-gradient-5);}.cls-8{fill:url(#linear-gradient-6);}.cls-9{fill:url(#linear-gradient-7);}.cls-10{fill:#e9b96e;}.cls-11{fill:url(#linear-gradient-8);}.cls-12{fill:url(#linear-gradient-9);}.cls-13{fill:url(#linear-gradient-10);}.cls-14{fill:url(#linear-gradient-11);}.cls-15{opacity:0.55;fill:url(#linear-gradient-12);}.cls-16{fill:url(#linear-gradient-13);}.cls-17,.cls-20,.cls-22,.cls-24,.cls-34,.cls-35,.cls-37,.cls-38,.cls-39,.cls-41,.cls-43,.cls-55,.cls-56,.cls-67{fill:none;}.cls-17{stroke:#3465a4;}.cls-17,.cls-22,.cls-34,.cls-35,.cls-37,.cls-38,.cls-39,.cls-41,.cls-43,.cls-55,.cls-56{stroke-linecap:round;stroke-linejoin:round;}.cls-17,.cls-34,.cls-35,.cls-37,.cls-39,.cls-41,.cls-43,.cls-55,.cls-56{stroke-width:0.7px;}.cls-18{fill:#c28c3f;}.cls-19{fill:url(#linear-gradient-14);}.cls-20{stroke:#b16a10;}.cls-20,.cls-24,.cls-67{stroke-miterlimit:10;}.cls-20,.cls-22,.cls-24,.cls-38,.cls-67{stroke-width:0.35px;}.cls-21{fill:url(#linear-gradient-15);}.cls-22,.cls-24{stroke:#408b09;}.cls-23{fill:url(#linear-gradient-16);}.cls-25{fill:url(#linear-gradient-17);}.cls-26{fill:url(#linear-gradient-18);}.cls-27{fill:url(#linear-gradient-19);}.cls-28{fill:url(#linear-gradient-20);}.cls-29{fill:#408b09;}.cls-30{fill:url(#linear-gradient-21);}.cls-31{fill:url(#linear-gradient-22);}.cls-32{fill:url(#linear-gradient-23);}.cls-33{fill:url(#linear-gradient-24);}.cls-34{stroke:url(#linear-gradient-25);}.cls-35{stroke:url(#linear-gradient-26);}.cls-36{fill:url(#linear-gradient-27);}.cls-37{stroke:url(#linear-gradient-28);}.cls-38{stroke:url(#linear-gradient-29);}.cls-39{stroke:url(#linear-gradient-30);}.cls-40{fill:url(#linear-gradient-31);}.cls-41{stroke:url(#linear-gradient-32);}.cls-42{fill:url(#linear-gradient-33);}.cls-43{stroke:url(#linear-gradient-34);}.cls-44{fill:url(#linear-gradient-35);}.cls-45{fill:url(#linear-gradient-36);}.cls-46{fill:url(#linear-gradient-37);}.cls-47{fill:url(#linear-gradient-38);}.cls-48{fill:url(#linear-gradient-39);}.cls-49{fill:url(#linear-gradient-40);}.cls-50{fill:url(#linear-gradient-41);}.cls-51{fill:url(#linear-gradient-42);}.cls-52{fill:url(#linear-gradient-43);}.cls-53{fill:url(#linear-gradient-44);}.cls-54{fill:url(#linear-gradient-45);}.cls-55{stroke:url(#linear-gradient-46);}.cls-56{stroke:url(#linear-gradient-47);}.cls-57{fill:url(#linear-gradient-48);}.cls-58{fill:url(#linear-gradient-49);}.cls-59{fill:url(#linear-gradient-50);}.cls-60{fill:url(#linear-gradient-51);}.cls-61{fill:#eeeeec;}.cls-62{fill:#3465a4;}.cls-63{fill:#fce94f;}.cls-64{fill:#ef2929;}.cls-65{fill:url(#linear-gradient-52);}.cls-66{fill:url(#linear-gradient-53);}.cls-67{stroke:#204a87;}</style>
    <radialGradient
       id="radial-gradient"
       cx="27.52"
       cy="37.55"
       r="20.49"
       gradientTransform="matrix(1.18,0,0,0.6,-8.34,13.02)"
       gradientUnits="userSpaceOnUse">
      <stop
         offset="0.35"
         stop-color="#2c2c2c"
         stop-opacity="0.5"
         id="stop30115" />
      <stop
         offset="0.78"
         stop-color="#2c2c2c"
         stop-opacity="0.1"
         id="stop30117" />
      <stop
         offset="0.93"
         stop-color="#2c2c2c"
         stop-opacity="0"
         id="stop30119" />
    </radialGradient>
    <linearGradient
       id="linear-gradient"
       x1="10.12"
       y1="33.5"
       x2="9.54"
       y2="42.59"
       gradientUnits="userSpaceOnUse">
      <stop
         offset="0"
         stop-color="#d3d7cf"
         id="stop30122" />
      <stop
         offset="1"
         stop-color="#888a85"
         id="stop30124" />
    </linearGradient>
    <linearGradient
       id="linear-gradient-2"
       x1="36"
       y1="6.07"
       x2="30.86"
       y2="22.65"
       gradientUnits="userSpaceOnUse"
       gradientTransform="matrix(1.19978,0,0,1.19892,-6.41382,-2.91367)">
      <stop
         offset="0"
         stop-color="#729fcf"
         id="stop30127" />
      <stop
         offset="1"
         stop-color="#e3ecf5"
         id="stop30129" />
    </linearGradient>
    <linearGradient
       id="linear-gradient-3"
       x1="44.16"
       y1="28.65"
       x2="44.16"
       y2="7.13"
       gradientUnits="userSpaceOnUse">
      <stop
         offset="0"
         stop-color="#729fcf"
         id="stop30132" />
      <stop
         offset="1"
         stop-color="#3465a4"
         id="stop30134" />
    </linearGradient>
    <linearGradient
       id="linear-gradient-4"
       x1="29.27"
       y1="1.79"
       x2="48.4"
       y2="31.87"
       gradientUnits="userSpaceOnUse">
      <stop
         offset="0"
         stop-color="#b2cbe5"
         id="stop30137" />
      <stop
         offset="1"
         stop-color="#3465a4"
         id="stop30139" />
    </linearGradient>
    <linearGradient
       id="linear-gradient-5"
       x1="24.27"
       y1="-2.07"
       x2="45.16"
       y2="21.74"
       gradientUnits="userSpaceOnUse"
       gradientTransform="matrix(1.19978,0,0,1.19892,-6.41382,-2.91367)">
      <stop
         offset="0.05"
         stop-color="#fff"
         stop-opacity="0"
         id="stop30142" />
      <stop
         offset="0.69"
         stop-color="snow"
         id="stop30144" />
    </linearGradient>
    <linearGradient
       id="linear-gradient-6"
       x1="35.16"
       y1="18.08"
       x2="32.23"
       y2="23.66"
       gradientUnits="userSpaceOnUse">
      <stop
         offset="0"
         stop-color="#fff"
         id="stop30147" />
      <stop
         offset="0.25"
         stop-color="#b2cbe5"
         id="stop30149" />
      <stop
         offset="1"
         stop-color="#3465a4"
         id="stop30151" />
    </linearGradient>
    <linearGradient
       id="linear-gradient-7"
       x1="33.36"
       y1="22.09"
       x2="30.46"
       y2="27.1"
       xlink:href="#linear-gradient-6"
       gradientTransform="matrix(1.19978,0,0,1.19892,-6.41382,-2.91367)" />
    <linearGradient
       id="linear-gradient-8"
       x1="32.07"
       y1="26.25"
       x2="35.09"
       y2="20.04"
       gradientUnits="userSpaceOnUse">
      <stop
         offset="0"
         stop-color="#fff"
         stop-opacity="0"
         id="stop30155" />
      <stop
         offset="1"
         stop-color="snow"
         id="stop30157" />
    </linearGradient>
    <linearGradient
       id="linear-gradient-9"
       x1="34.62"
       y1="13.21"
       x2="33.06"
       y2="15.7"
       xlink:href="#linear-gradient-4"
       gradientTransform="matrix(1.19978,0,0,1.19892,-6.41382,-2.91367)" />
    <linearGradient
       id="linear-gradient-10"
       x1="34.39"
       y1="13.3"
       x2="33.35"
       y2="15.2"
       gradientUnits="userSpaceOnUse">
      <stop
         offset="0"
         stop-color="snow"
         id="stop30161" />
      <stop
         offset="1"
         stop-color="#fffdfd"
         stop-opacity="0.19"
         id="stop30163" />
    </linearGradient>
    <linearGradient
       id="linear-gradient-11"
       x1="29.78"
       y1="11.6"
       x2="25.35"
       y2="25.01"
       xlink:href="#linear-gradient-4"
       gradientTransform="matrix(1.19978,0,0,1.19892,-6.41382,-2.91367)" />
    <linearGradient
       id="linear-gradient-12"
       x1="27.02"
       y1="18.33"
       x2="29.14"
       y2="14.02"
       gradientUnits="userSpaceOnUse"
       gradientTransform="matrix(1.19978,0,0,1.19892,-6.41382,-2.91367)">
      <stop
         offset="0.17"
         stop-color="#204a87"
         id="stop30167" />
      <stop
         offset="1"
         stop-color="#729fcf"
         stop-opacity="0"
         id="stop30169" />
    </linearGradient>
    <linearGradient
       id="linear-gradient-13"
       x1="29.79"
       y1="11.24"
       x2="28.04"
       y2="16.96"
       xlink:href="#linear-gradient-10"
       gradientTransform="matrix(1.19978,0,0,1.19892,-6.41382,-2.91367)" />
    <linearGradient
       id="linear-gradient-14"
       x1="-41.63"
       y1="44.38"
       x2="-46.8"
       y2="44.25"
       gradientTransform="matrix(-0.827845,-0.071935,0.359933,1.30682,-10.985,-33.0304)"
       gradientUnits="userSpaceOnUse">
      <stop
         offset="0"
         stop-color="#b16a10"
         stop-opacity="0"
         id="stop30173" />
      <stop
         offset="1"
         stop-color="#7b4706"
         id="stop30175" />
    </linearGradient>
    <linearGradient
       id="linear-gradient-15"
       x1="-47.36"
       y1="24.88"
       x2="-43.23"
       y2="24.88"
       gradientTransform="matrix(-0.73, -0.27, 0.17, 1.06, -0.97, -19.92)"
       gradientUnits="userSpaceOnUse">
      <stop
         offset="0"
         stop-color="#7be028"
         id="stop30178" />
      <stop
         offset="0.35"
         stop-color="#64cc13"
         id="stop30180" />
      <stop
         offset="1"
         stop-color="#408b09"
         id="stop30182" />
    </linearGradient>
    <linearGradient
       id="linear-gradient-16"
       x1="-44.86"
       y1="18.87"
       x2="-46.76"
       y2="21.25"
       gradientTransform="matrix(-0.887834,-0.383653,0.155971,1.25885,-6.86974,-25.4533)"
       xlink:href="#linear-gradient-15" />
    <linearGradient
       id="linear-gradient-17"
       x1="-48.29"
       y1="30.62"
       x2="-47.76"
       y2="34.28"
       gradientTransform="matrix(-0.827845,-0.083924,0.347934,1.41471,-10.805,-33.6539)"
       xlink:href="#linear-gradient-15" />
    <linearGradient
       id="linear-gradient-18"
       x1="-37.45"
       y1="54.98"
       x2="-42.03"
       y2="59.38"
       gradientTransform="matrix(-0.683873,0.299728,0.58789,1.27085,-16.7199,-40.4517)"
       xlink:href="#linear-gradient-15" />
    <linearGradient
       id="linear-gradient-19"
       x1="-45.63"
       y1="37.81"
       x2="-46.88"
       y2="41.67"
       gradientTransform="matrix(-0.827845,-0.071935,0.359933,1.30682,-10.937,-32.9106)"
       xlink:href="#linear-gradient-15" />
    <linearGradient
       id="linear-gradient-20"
       x1="-44.16"
       y1="36.09"
       x2="-42.73"
       y2="39.65"
       gradientTransform="matrix(-0.827845,-0.107902,0.347934,1.30682,-10.5531,-32.323)"
       xlink:href="#linear-gradient-15" />
    <linearGradient
       id="linear-gradient-21"
       x1="12.21"
       y1="16.57"
       x2="32.08"
       y2="45.52"
       gradientUnits="userSpaceOnUse">
      <stop
         offset="0"
         stop-color="#fff"
         id="stop30190" />
      <stop
         offset="1"
         stop-color="#e1ab5b"
         id="stop30192" />
    </linearGradient>
    <linearGradient
       id="linear-gradient-22"
       x1="42.3"
       y1="19.2"
       x2="26.41"
       y2="38.75"
       xlink:href="#linear-gradient-21"
       gradientTransform="matrix(1.07087,0,0,1.0709,-0.590856,-1.59777)" />
    <linearGradient
       id="linear-gradient-23"
       x1="41.26"
       y1="16.15"
       x2="0.65"
       y2="48.58"
       xlink:href="#linear-gradient-21"
       gradientTransform="matrix(1.07087,0,0,1.0709,-0.590856,-1.59777)" />
    <linearGradient
       id="linear-gradient-24"
       x1="23.3"
       y1="34.93"
       x2="23.64"
       y2="21.91"
       xlink:href="#linear-gradient-8"
       gradientTransform="matrix(1.07087,0,0,1.0709,-0.590856,-1.59777)" />
    <linearGradient
       id="linear-gradient-25"
       x1="3.25"
       y1="32.08"
       x2="43.5"
       y2="32.08"
       gradientUnits="userSpaceOnUse">
      <stop
         offset="0"
         stop-color="#b16a10"
         id="stop30198" />
      <stop
         offset="1"
         stop-color="#e1ab5b"
         id="stop30200" />
    </linearGradient>
    <linearGradient
       id="linear-gradient-26"
       x1="23.08"
       y1="43.78"
       x2="23.68"
       y2="20.45"
       xlink:href="#linear-gradient-25"
       gradientTransform="matrix(1.07087,0,0,1.0709,-0.590856,-1.59777)" />
    <linearGradient
       id="linear-gradient-27"
       x1="28.55"
       y1="32.07"
       x2="17.16"
       y2="23.15"
       gradientTransform="matrix(1.07087,6.93026e-7,-2.75369e-7,1.0709,-0.593222,-1.59766)"
       gradientUnits="userSpaceOnUse">
      <stop
         offset="0"
         stop-color="#e9b96e"
         id="stop30204" />
      <stop
         offset="1"
         stop-color="#8f5902"
         id="stop30206" />
    </linearGradient>
    <linearGradient
       id="linear-gradient-28"
       x1="7.33"
       y1="37.61"
       x2="8.86"
       y2="40.54"
       gradientUnits="userSpaceOnUse">
      <stop
         offset="0"
         stop-color="#888a85"
         id="stop30209" />
      <stop
         offset="1"
         stop-color="#231f20"
         id="stop30211" />
    </linearGradient>
    <linearGradient
       id="linear-gradient-29"
       x1="7.17"
       y1="37.89"
       x2="9.59"
       y2="42.5"
       xlink:href="#linear-gradient-28"
       gradientTransform="translate(-0.3187251,1.7211155)" />
    <linearGradient
       id="linear-gradient-30"
       x1="6.7"
       y1="31.96"
       x2="9.49"
       y2="37.27"
       xlink:href="#linear-gradient-28"
       gradientTransform="translate(-0.3187251,1.7211155)" />
    <linearGradient
       id="linear-gradient-31"
       x1="9.97"
       y1="33.28"
       x2="9.97"
       y2="31.57"
       gradientTransform="matrix(-0.62,-0.78,-0.78,0.62,39.731275,20.851115)"
       xlink:href="#linear-gradient-28" />
    <linearGradient
       id="linear-gradient-32"
       x1="7.75"
       y1="30.75"
       x2="8.45"
       y2="30.75"
       xlink:href="#linear-gradient-28"
       gradientTransform="translate(-0.3187251,1.7211155)" />
    <linearGradient
       id="linear-gradient-33"
       x1="11.24"
       y1="32.28"
       x2="11.24"
       y2="30.56"
       gradientTransform="matrix(-0.62,-0.78,-0.78,0.62,39.731275,20.851115)"
       xlink:href="#linear-gradient-28" />
    <linearGradient
       id="linear-gradient-34"
       x1="7.75"
       y1="29.13"
       x2="8.45"
       y2="29.13"
       xlink:href="#linear-gradient-28"
       gradientTransform="translate(-0.3187251,1.7211155)" />
    <linearGradient
       id="linear-gradient-35"
       x1="7.56"
       y1="30.57"
       x2="8.79"
       y2="25.59"
       xlink:href="#linear-gradient-28"
       gradientTransform="translate(-0.3187251,1.7211155)" />
    <linearGradient
       id="linear-gradient-36"
       x1="8.32"
       y1="28.91"
       x2="6.62"
       y2="34.52"
       gradientUnits="userSpaceOnUse">
      <stop
         offset="0"
         stop-color="#babdb6"
         id="stop30221" />
      <stop
         offset="1"
         stop-color="#231f20"
         id="stop30223" />
    </linearGradient>
    <linearGradient
       id="linear-gradient-37"
       x1="4.88"
       y1="30.16"
       x2="6.19"
       y2="27.66"
       xlink:href="#linear-gradient-28"
       gradientTransform="translate(-0.3187251,1.7211155)" />
    <linearGradient
       id="linear-gradient-38"
       x1="25.48"
       y1="25.97"
       x2="28.48"
       y2="30.69"
       gradientTransform="matrix(-1,0,0,1,33.031275,1.7211155)"
       xlink:href="#linear-gradient-4" />
    <linearGradient
       id="linear-gradient-39"
       x1="7.2"
       y1="28.38"
       x2="7.2"
       y2="23.49"
       xlink:href="#linear-gradient-4"
       gradientTransform="translate(-0.3187251,1.7211155)" />
    <linearGradient
       id="linear-gradient-40"
       x1="7.2"
       y1="25.64"
       x2="7.2"
       y2="30.11"
       xlink:href="#linear-gradient-36"
       gradientTransform="translate(-0.3187251,1.7211155)" />
    <linearGradient
       id="linear-gradient-41"
       x1="22.27"
       y1="26.19"
       x2="23.52"
       y2="28.57"
       gradientTransform="matrix(-1,0,0,1,33.031275,1.7211155)"
       xlink:href="#linear-gradient-28" />
    <linearGradient
       id="linear-gradient-42"
       x1="23.52"
       y1="25.39"
       x2="25.02"
       y2="27.75"
       gradientTransform="matrix(-1,0,0,1,33.031275,1.7211155)"
       xlink:href="#linear-gradient-4" />
    <linearGradient
       id="linear-gradient-43"
       x1="9.49"
       y1="26.82"
       x2="9.49"
       y2="23.16"
       xlink:href="#linear-gradient-4"
       gradientTransform="translate(-0.3187251,1.7211155)" />
    <linearGradient
       id="linear-gradient-44"
       x1="9.7"
       y1="25.45"
       x2="8.73"
       y2="27.56"
       xlink:href="#linear-gradient-36"
       gradientTransform="translate(-0.3187251,1.7211155)" />
    <linearGradient
       id="linear-gradient-45"
       x1="6.26"
       y1="29.83"
       x2="6.26"
       y2="29.77"
       xlink:href="#linear-gradient-3"
       gradientTransform="translate(-0.3187251,1.7211155)" />
    <linearGradient
       id="linear-gradient-46"
       x1="4.58"
       y1="34.41"
       x2="8.93"
       y2="42.71"
       xlink:href="#linear-gradient-28"
       gradientTransform="translate(-0.3187251,1.7211155)" />
    <linearGradient
       id="linear-gradient-47"
       x1="7.88"
       y1="32.68"
       x2="13.43"
       y2="43.28"
       xlink:href="#linear-gradient-28"
       gradientTransform="translate(-0.3187251,1.7211155)" />
    <linearGradient
       id="linear-gradient-48"
       x1="8.6"
       y1="24.29"
       x2="7.57"
       y2="26.24"
       xlink:href="#linear-gradient-36"
       gradientTransform="translate(-0.3187251,1.7211155)" />
    <linearGradient
       id="linear-gradient-49"
       x1="8.42"
       y1="27.73"
       x2="8.76"
       y2="24.02"
       gradientTransform="translate(-0.31730024,1.7220673)"
       xlink:href="#linear-gradient-28" />
    <linearGradient
       id="linear-gradient-50"
       x1="6.7"
       y1="25.2"
       x2="5.67"
       y2="27.16"
       xlink:href="#linear-gradient-36"
       gradientTransform="translate(-0.3187251,1.7211155)" />
    <linearGradient
       id="linear-gradient-51"
       x1="6.53"
       y1="28.64"
       x2="6.86"
       y2="24.94"
       gradientTransform="translate(-0.31252245,1.7218166)"
       xlink:href="#linear-gradient-28" />
    <linearGradient
       id="linear-gradient-52"
       x1="-23.88"
       y1="426.2"
       x2="-23.75"
       y2="436.76"
       gradientTransform="matrix(0.931657,-0.53545,0.535435,0.931683,-182.05,-384.423)"
       gradientUnits="userSpaceOnUse">
      <stop
         offset="0"
         stop-color="#00255d"
         stop-opacity="0"
         id="stop30241" />
      <stop
         offset="0.41"
         stop-color="#031a41"
         stop-opacity="0.18"
         id="stop30243" />
      <stop
         offset="1"
         stop-color="#031b35"
         id="stop30245" />
    </linearGradient>
    <linearGradient
       id="linear-gradient-53"
       x1="-23.85"
       y1="430.67"
       x2="-23.85"
       y2="419.92"
       gradientTransform="matrix(0.931657,-0.53545,0.535435,0.931683,-182.05,-384.423)"
       gradientUnits="userSpaceOnUse">
      <stop
         offset="0.05"
         stop-color="#fff"
         stop-opacity="0"
         id="stop30248" />
      <stop
         offset="0.69"
         stop-color="#fff8f8"
         id="stop30250" />
    </linearGradient>
    <linearGradient
       inkscape:collect="always"
       xlink:href="#linear-gradient-3"
       id="linearGradient30468"
       gradientUnits="userSpaceOnUse"
       x1="44.16"
       y1="28.65"
       x2="44.16"
       y2="7.13"
       gradientTransform="matrix(1.19978,0,0,1.19892,-6.41382,-2.91367)" />
    <linearGradient
       inkscape:collect="always"
       xlink:href="#linear-gradient-4"
       id="linearGradient30470"
       gradientUnits="userSpaceOnUse"
       x1="29.27"
       y1="1.79"
       x2="48.4"
       y2="31.87"
       gradientTransform="matrix(1.19978,0,0,1.19892,-6.41382,-2.91367)" />
    <linearGradient
       inkscape:collect="always"
       xlink:href="#linear-gradient-6"
       id="linearGradient30472"
       gradientUnits="userSpaceOnUse"
       x1="35.16"
       y1="18.08"
       x2="32.23"
       y2="23.66"
       gradientTransform="matrix(1.19978,0,0,1.19892,-6.41382,-2.91367)" />
    <linearGradient
       inkscape:collect="always"
       xlink:href="#linear-gradient-8"
       id="linearGradient30474"
       gradientUnits="userSpaceOnUse"
       x1="32.07"
       y1="26.25"
       x2="35.09"
       y2="20.04"
       gradientTransform="matrix(1.19978,0,0,1.19892,-6.41382,-2.91367)" />
    <linearGradient
       inkscape:collect="always"
       xlink:href="#linear-gradient-10"
       id="linearGradient30476"
       gradientUnits="userSpaceOnUse"
       x1="34.39"
       y1="13.3"
       x2="33.35"
       y2="15.2"
       gradientTransform="matrix(1.19978,0,0,1.19892,-6.41382,-2.91367)" />
    <linearGradient
       inkscape:collect="always"
       xlink:href="#linear-gradient-15"
       id="linearGradient30478"
       gradientUnits="userSpaceOnUse"
       gradientTransform="matrix(-0.875837,-0.323707,0.203962,1.27085,-7.5776,-26.796)"
       x1="-47.36"
       y1="24.88"
       x2="-43.23"
       y2="24.88" />
    <linearGradient
       inkscape:collect="always"
       xlink:href="#linearGradient2"
       id="linearGradient3"
       x1="11.2917"
       y1="2.70501"
       x2="44.1655"
       y2="43.1831"
       gradientUnits="userSpaceOnUse" />
    <linearGradient
       inkscape:collect="always"
       xlink:href="#linearGradient5"
       id="linearGradient7"
       x1="8.74186"
       y1="9.27075"
       x2="43.5281"
       y2="39.3584"
       gradientUnits="userSpaceOnUse" />
    <linearGradient
       inkscape:collect="always"
       xlink:href="#linearGradient9"
       id="linearGradient10"
       x1="8.10459"
       y1="4.219"
       x2="44.3473"
       y2="43.5691"
       gradientUnits="userSpaceOnUse" />
    <linearGradient
       inkscape:collect="always"
       xlink:href="#linearGradient9"
       id="linearGradient12"
       x1="37.7186"
       y1="45.5974"
       x2="8.55811"
       y2="6.65303"
       gradientUnits="userSpaceOnUse" />
  </defs>
  <title
     id="title30255">2-Background_Plate</title>
  <path
     style="color:#000000;overflow:visible;fill:url(#linearGradient12);stroke:url(#linearGradient10);stroke-width:0.999999;stroke-linecap:round;stroke-linejoin:round"
     d="M 38.2519,47.4062 8.15384,32.8256 V 3.78326 l 6.38216,-3.085816 0,28.471856 28.0492,14.8838 z"
     id="path2"
     sodipodi:nodetypes="ccccccc" />
  <g
     id="g1"
     transform="matrix(0.907658,0,0,0.908314,-6.95161,7.77661)"
     style="stroke-width:1.10133">
    <path
       id="polygon30262"
       style="isolation:isolate;fill:url(#linear-gradient-2);stroke-width:1.10133"
       class="cls-4"
       d="M 45.3565,13.9551 19.7653,1.63022 V 21.9638 l 25.5912,12.3249 z" />
    <path
       id="polygon30264"
       style="isolation:isolate;fill:url(#linearGradient30468);stroke-width:1.10133"
       class="cls-5"
       d="m 45.3565,13.9551 2.4235,-1.175 v 24.1221 l -2.4235,1.1631 z" />
    <path
       id="polygon30266"
       style="isolation:isolate;fill:url(#linearGradient30470);stroke-width:1.10133"
       class="cls-6"
       d="M 47.78,12.7801 22.1889,0.455281 19.7653,1.63022 45.3565,13.9551 Z" />
    <path
       id="polygon30268"
       style="isolation:isolate;fill:url(#linear-gradient-5);stroke-width:1.10133"
       class="cls-7"
       d="M 47.78,12.7801 22.1889,0.455281 19.7653,1.63022 45.3565,13.9551 Z" />
    <path
       id="polygon30270"
       style="isolation:isolate;fill:url(#linearGradient30472);stroke-width:1.10133"
       class="cls-8"
       d="M 45.3565,26.5197 19.7653,14.1709 v 9.0638 l 25.5912,12.3368 z" />
    <path
       class="cls-9"
       d="m 45.3565,28.2581 c -0.48,0.1078 -0.8759,0.4916 -1.6677,0.096 a 36.6771,36.6508 0 0 0 -3.2154,-2.2535 c -1.6196,-0.7793 -1.8476,-0.3117 -3.5993,-1.067 -1.7516,-0.7554 -2.1116,-1.6065 -3.4794,-2.1101 -1.3677,-0.5036 -0.8758,0.1799 -2.3995,-0.4556 -1.5237,-0.6355 -2.0636,-1.7504 -3.0593,-2.11 -0.996,-0.3598 -1.5598,-0.084 -2.3997,-0.4317 -0.8398,-0.3476 -1.5836,-1.6305 -2.2435,-1.8343 -0.66,-0.2039 -1.6077,-0.084 -2.0637,-0.4676 a 5.68694,5.68286 0 0 0 -1.4397,-1.199 v 5.5031 L 45.3565,34.253 Z"
       id="path30272"
       style="isolation:isolate;fill:url(#linear-gradient-7);stroke-width:1.10133" />
    <path
       class="cls-10"
       d="m 45.3565,29.457 c -0.4439,0 -0.7919,0.4076 -1.4037,0.1078 -0.8278,-0.3956 -2.2436,-1.8702 -3.4553,-2.4577 -1.2118,-0.5875 -2.2677,-0.1679 -3.5994,-0.8393 -1.3317,-0.6714 -2.3996,-2.0621 -3.2754,-2.4937 -0.8759,-0.4317 -2.3275,0.2518 -3.7073,-1.0911 -1.3797,-1.3428 -2.0876,-1.7384 -2.7355,-1.6904 a 2.92746,2.92536 0 0 1 -2.3996,-0.8512 c -0.6238,-0.7673 -1.4996,-1.4267 -2.1476,-1.199 -0.6479,0.2279 -1.4396,-0.3596 -1.7756,-0.8632 A 3.32338,3.32099 0 0 0 19.8613,17.204 v 8.2846 l 25.4952,12.3607 z"
       id="path30274"
       style="isolation:isolate;stroke-width:1.10133" />
    <path
       class="cls-11"
       d="m 45.3565,29.457 c -0.4439,0 -0.7919,0.4076 -1.4037,0.1078 -0.8278,-0.3956 -2.2436,-1.8702 -3.4553,-2.4577 -1.2118,-0.5875 -2.2677,-0.1679 -3.5994,-0.8393 -1.3317,-0.6714 -2.3996,-2.0621 -3.2754,-2.4937 -0.8759,-0.4317 -2.3275,0.2518 -3.7073,-1.0911 -1.3797,-1.3428 -2.0876,-1.7384 -2.7355,-1.6904 a 2.92746,2.92536 0 0 1 -2.3996,-0.8512 c -0.6238,-0.7673 -1.4996,-1.4267 -2.1476,-1.199 -0.6479,0.2279 -1.4396,-0.3596 -1.7756,-0.8632 A 3.32338,3.32099 0 0 0 19.8613,17.204 v 8.2846 l 25.4952,12.3607 z"
       id="path30276"
       style="isolation:isolate;fill:url(#linearGradient30474);stroke-width:1.10133" />
    <path
       class="cls-12"
       d="m 36.6702,17.1682 -5.627,-2.7215 a 1.54771,1.5466 0 0 1 -1.0438,-1.3068 c 0,-0.5515 0.564,-0.9711 1.5718,-0.144 0,0 0,-1.1269 0.8757,-1.0789 a 2.02762,2.02617 0 0 1 1.6078,1.1989 0.851842,0.85123 0 0 1 0.7557,0.096 1.77567,1.7744 0 0 1 0.72,1.2709 0.635881,0.635425 0 0 1 0.6598,0.2398 1.19978,1.19892 0 0 1 0.312,0.8393 c 0,0 0.3,-0.12 0.7079,0.2277 a 1.19978,1.19892 0 0 1 0.4439,1.199 c -0.1078,0.3956 -0.396,0.4795 -0.9838,0.1798 z"
       id="path30278"
       style="isolation:isolate;fill:url(#linear-gradient-9);stroke-width:1.10133" />
    <path
       class="cls-13"
       d="m 37.678,16.7845 v 0 c -0.1079,0.2757 -0.312,0.3358 -0.5399,0.1439 a 0.851842,0.85123 0 0 1 -0.276,-0.4436 0.575893,0.575479 0 0 1 -0.5519,-0.061 1.0798,1.07902 0 0 1 -0.3599,-0.4675 1.71568,1.71445 0 0 1 -0.9359,-0.2398 1.94364,1.94224 0 0 1 -0.7678,-0.8752 c 0,0 -0.168,0.096 -0.5639,-0.096 A 2.18359,2.18203 0 0 1 32.9629,13.9899 0.935826,0.935155 0 0 1 31.919,14.3856 1.30775,1.30682 0 0 1 31.2232,13.846 c -0.42,0.3118 -1.0198,-0.072 -1.1997,-0.5155 v 0 a 1.0558,1.05505 0 0 1 0,-0.1917 c 0,-0.5396 0.5638,-0.9711 1.5716,-0.1319 0,0 0,-1.127 0.8758,-1.079 a 2.00362,2.00219 0 0 1 1.6077,1.1989 0.80385,0.803273 0 0 1 0.7559,0.096 1.71568,1.71445 0 0 1 0.7199,1.2709 c 0,0 0.2999,-0.1199 0.6598,0.2398 a 1.19978,1.19892 0 0 1 0.312,0.8392 c 0,0 0.2999,-0.1199 0.7198,0.2398 a 1.19978,1.19892 0 0 1 0.432,0.9711 z"
       id="path30280"
       style="isolation:isolate;fill:url(#linearGradient30476);stroke-width:1.10133" />
    <path
       class="cls-14"
       d="M 34.0307,19.1823 22.0329,13.3677 a 1.99163,1.99019 0 0 1 -1.1998,-1.9064 c 0.1199,-0.9471 0.9718,-0.6474 1.4518,-0.1918 a 1.35574,1.35478 0 0 1 1.1997,-1.043 3.2154,3.21309 0 0 1 2.2556,0.7912 1.48773,1.48666 0 0 1 0.8159,-1.46265 2.19558,2.19401 0 0 1 2.3995,1.00705 3.91127,3.90846 0 0 1 0.6238,1.2949 2.23159,2.22998 0 0 1 1.5358,0.7314 3.52734,3.52481 0 0 1 0.8158,2.134 1.34374,1.34279 0 0 1 1.0078,0.4316 2.07562,2.07413 0 0 1 0.6119,1.5346 1.51172,1.51063 0 0 1 0.9238,0.4317 1.90764,1.90628 0 0 1 0.7319,1.6424 c -0.1559,0.5754 -0.6358,0.6714 -1.1757,0.4196 z"
       id="path30282"
       style="isolation:isolate;fill:url(#linear-gradient-11);stroke-width:1.10133" />
    <path
       class="cls-15"
       d="M 34.0307,19.1823 22.0329,13.3677 a 1.99163,1.99019 0 0 1 -1.1998,-1.9064 c 0.1199,-0.9471 0.9718,-0.6474 1.4518,-0.1918 a 1.35574,1.35478 0 0 1 1.1997,-1.043 3.2154,3.21309 0 0 1 2.2556,0.7912 1.48773,1.48666 0 0 1 0.8159,-1.46265 2.19558,2.19401 0 0 1 2.3995,1.00705 3.91127,3.90846 0 0 1 0.6238,1.2949 2.23159,2.22998 0 0 1 1.5358,0.7314 3.52734,3.52481 0 0 1 0.8158,2.134 1.34374,1.34279 0 0 1 1.0078,0.4316 2.07562,2.07413 0 0 1 0.6119,1.5346 1.51172,1.51063 0 0 1 0.9238,0.4317 1.90764,1.90628 0 0 1 0.7319,1.6424 c -0.1559,0.5754 -0.6358,0.6714 -1.1757,0.4196 z"
       id="path30284"
       style="isolation:isolate;fill:url(#linear-gradient-12);stroke-width:1.10133" />
    <path
       class="cls-16"
       d="m 35.1944,18.5468 v 0 c -0.096,0.2638 -0.4199,0.4677 -0.9718,0 a 2.03962,2.03815 0 0 1 -0.6719,-1.1149 0.959821,0.959132 0 0 1 -1.0678,-0.3837 2.39955,2.39784 0 0 1 -0.576,-1.3547 c 0,0 -0.4558,0.2997 -1.1996,-0.1798 a 6.56278,6.55806 0 0 1 -1.5958,-1.9902 c 0,0 -0.6118,0.7672 -1.2957,0.5275 a 9.83816,9.83111 0 0 1 -1.9557,-1.2949 1.00781,1.00709 0 0 1 -1.2837,0.5875 3.97126,3.96841 0 0 1 -1.5237,-1.1989 0.80385,0.803273 0 0 1 -1.1038,0.3477 1.42774,1.42671 0 0 1 -1.0679,-1.3428 v 0 c 0.24,-0.5754 0.9478,-0.2996 1.3798,0.1078 a 1.35574,1.35478 0 0 1 1.1998,-1.055 3.2034,3.20111 0 0 1 2.2556,0.8032 1.47572,1.47467 0 0 1 0.8158,-1.46266 2.17159,2.17003 0 0 1 2.3996,0.99506 3.91127,3.90846 0 0 1 0.6478,1.3189 2.1356,2.13407 0 0 1 1.5237,0.7313 3.52734,3.52481 0 0 1 0.8279,2.1341 1.40374,1.40273 0 0 1 1.0078,0.4316 2.07562,2.07413 0 0 1 0.6119,1.5466 1.43973,1.4387 0 0 1 0.9238,0.4316 2.03962,2.03815 0 0 1 0.7199,1.4146 z"
       id="path30286"
       style="isolation:isolate;fill:url(#linear-gradient-13);stroke-width:1.10133" />
    <path
       id="polygon30288"
       style="isolation:isolate;fill:none;stroke:#3465a4;stroke-width:0.77093px;stroke-linecap:round;stroke-linejoin:round"
       class="cls-17"
       d="M 47.78,36.9022 V 12.7801 L 22.1889,0.455281 19.7653,1.63022 V 25.7404 l 25.5912,12.3249 z" />
    <path
       class="cls-18"
       d="m 40.3055,19.9976 c 1.4156,2.218 3.9112,11.6054 5.075,15.7897 0.1799,0.6355 -0.5279,0.7433 -0.7558,0.6954 a 1.25977,1.25885 0 0 1 -0.8759,-0.8512 c -0.132,-0.5156 -0.9718,-5.0594 -2.2915,-9.5913 a 36.6051,36.579 0 0 0 -2.0756,-5.9227"
       id="path30290"
       style="isolation:isolate;stroke-width:1.10133" />
    <path
       class="cls-19"
       d="m 44.7927,36.0391 0.1078,0.4316 c 0.288,0 0.6119,-0.2278 0.4799,-0.6834 C 44.1802,31.603 41.7087,22.2156 40.305,19.9976 l -0.9238,0.097 c 0.3839,0.5755 2.1955,3.4289 5.411,15.9456 z"
       id="path30292"
       style="isolation:isolate;fill:url(#linear-gradient-14);stroke-width:1.10133" />
    <path
       class="cls-20"
       d="m 40.3055,19.9976 c 1.4156,2.218 3.9112,11.6054 5.075,15.7897 0.1799,0.6355 -0.5279,0.7433 -0.7558,0.6954 a 1.25977,1.25885 0 0 1 -0.8759,-0.8512 c -0.132,-0.5156 -0.9718,-5.0594 -2.2915,-9.5913 a 36.6051,36.579 0 0 0 -2.0756,-5.9227"
       id="path30294"
       style="isolation:isolate" />
    <path
       class="cls-21"
       d="m 38.8417,18.2831 a 2.01562,2.01417 0 0 0 -2.7955,-0.1078 c -0.5998,0.6595 -0.2639,2.3378 -0.2639,2.3378 a 1.28376,1.28284 0 0 1 0.336,-0.9831 2.14761,2.14606 0 0 1 2.5194,0"
       id="path30296"
       style="isolation:isolate;fill:url(#linearGradient30478);stroke-width:1.10133" />
    <path
       class="cls-22"
       d="m 38.8417,18.2831 a 2.01562,2.01417 0 0 0 -2.7955,-0.1078 c -0.5998,0.6595 -0.2639,2.3378 -0.2639,2.3378 a 1.28376,1.28284 0 0 1 0.336,-0.9831 2.14761,2.14606 0 0 1 2.5194,0"
       id="path30298"
       style="isolation:isolate" />
    <path
       class="cls-23"
       d="M 39.3576,18.6668 A 12.1058,12.0971 0 0 0 37.294,15.1899 c -1.2838,-1.4507 -2.2796,-1.031 -2.3995,-0.6834 a 4.36719,4.36406 0 0 0 0,1.8944 c 0,0 0.1919,-0.8633 0.6839,-0.8513 0.492,0.012 2.7115,2.9254 3.3593,3.4049"
       id="path30300"
       style="isolation:isolate;fill:url(#linear-gradient-16);stroke-width:1.10133" />
    <path
       class="cls-24"
       d="M 39.3576,18.6668 A 12.1058,12.0971 0 0 0 37.294,15.1899 c -1.2838,-1.4507 -2.2796,-1.031 -2.3995,-0.6834 a 4.36719,4.36406 0 0 0 0,1.8944 c 0,0 0.1919,-0.8633 0.6839,-0.8513 0.492,0.012 2.7115,2.9254 3.3593,3.4049"
       id="path30302"
       style="isolation:isolate" />
    <path
       class="cls-25"
       d="m 39.4896,19.1105 c 0.2879,-1.0551 0.336,-3.4649 0.6719,-4.2681 0.336,-0.8034 0.8039,-0.7554 1.1998,-0.2999 A 3.10742,3.10519 0 0 0 39.5256,12.984 c -1.2958,-0.3836 -1.5116,1.3307 -1.4397,2.7454 a 9.83816,9.83111 0 0 0 1.1278,3.3569"
       id="path30304"
       style="isolation:isolate;fill:url(#linear-gradient-17);stroke-width:1.10133" />
    <path
       class="cls-24"
       d="m 39.4896,19.1105 c 0.2879,-1.0551 0.336,-3.4649 0.6719,-4.2681 0.336,-0.8034 0.8039,-0.7554 1.1998,-0.2999 A 3.10742,3.10519 0 0 0 39.5256,12.984 c -1.2958,-0.3836 -1.5116,1.3307 -1.4397,2.7454 a 9.83816,9.83111 0 0 0 1.1278,3.3569"
       id="path30306"
       style="isolation:isolate" />
    <path
       class="cls-26"
       d="m 39.4776,18.7388 a 1.96763,1.96622 0 0 1 2.8315,-1.6547 c 1.4397,0.5036 2.9154,3.1174 2.9154,3.1174 a 6.74274,6.73791 0 0 0 -2.5314,-0.8873 c -1.0679,0 -3.2035,-0.2037 -3.2035,-0.2037"
       id="path30308"
       style="isolation:isolate;fill:url(#linear-gradient-18);stroke-width:1.10133" />
    <path
       class="cls-24"
       d="m 39.4776,18.7388 a 1.96763,1.96622 0 0 1 2.8315,-1.6547 c 1.4397,0.5036 2.9154,3.1174 2.9154,3.1174 a 6.74274,6.73791 0 0 0 -2.5314,-0.8873 c -1.0679,0 -3.2035,-0.2037 -3.2035,-0.2037"
       id="path30310"
       style="isolation:isolate" />
    <path
       class="cls-27"
       d="m 38.9616,19.2303 c 0.1441,0 0.348,-1.3068 1.3798,-0.5635 a 11.6978,11.6895 0 0 1 2.6155,4.4 11.5058,11.4976 0 0 1 0.5159,3.0452 32.49,32.4666 0 0 0 -1.1998,-3.0452 c -0.7677,-1.4627 -2.5194,-3.6806 -3.3114,-3.8365 z"
       id="path30312"
       style="isolation:isolate;fill:url(#linear-gradient-19);stroke-width:1.10133" />
    <path
       class="cls-24"
       d="m 38.9616,19.2303 c 0.1441,0 0.348,-1.3068 1.3798,-0.5635 a 11.6978,11.6895 0 0 1 2.6155,4.4 11.5058,11.4976 0 0 1 0.5159,3.0452 32.49,32.4666 0 0 0 -1.1998,-3.0452 c -0.7677,-1.4627 -2.5194,-3.6806 -3.3114,-3.8365 z"
       id="path30314"
       style="isolation:isolate" />
    <path
       class="cls-28"
       d="m 39.8735,19.8657 a 1.04381,1.04306 0 0 0 -1.0798,0.6954 c -0.3479,0.8153 -0.4799,2.2299 0.1679,4.7117 A 19.6524,19.6382 0 0 1 37.618,19.8657 c 0,-1.8823 0.7438,-1.7864 0.9958,-1.6904 0.252,0.096 0.7557,1.3428 1.2597,1.6904 z"
       id="path30316"
       style="isolation:isolate;fill:url(#linear-gradient-20);stroke-width:1.10133" />
    <path
       class="cls-22"
       d="m 39.8735,19.8657 a 1.04381,1.04306 0 0 0 -1.0798,0.6954 c -0.3479,0.8153 -0.4799,2.2299 0.1679,4.7117 A 19.6524,19.6382 0 0 1 37.618,19.8657 c 0,-1.8823 0.7438,-1.7864 0.9958,-1.6904 0.252,0.096 0.7557,1.3428 1.2597,1.6904 z"
       id="path30318"
       style="isolation:isolate" />
    <path
       class="cls-29"
       d="m 41.7572,19.1464 a 1.33176,1.3308 0 0 1 0.072,-0.8992 0.995815,0.995101 0 0 0 -0.288,0.8753"
       id="path30320"
       style="isolation:isolate;stroke-width:1.10133" />
    <path
       class="cls-29"
       d="m 38.3018,13.6913 a 0.959821,0.959132 0 0 1 0.8399,0.2997 c 0,0 -0.7799,-0.2278 -0.9837,0.3478"
       id="path30322"
       style="isolation:isolate;stroke-width:1.10133" />
    <path
       class="cls-29"
       d="m 37.8339,18.8226 a 4.7991,4.79566 0 0 0 0.4319,0.9352 1.83566,1.83434 0 0 1 -0.4799,-0.6473"
       id="path30324"
       style="isolation:isolate;stroke-width:1.10133" />
  </g>
  <metadata
     id="metadata23">
    <rdf:RDF>
      <cc:Work
         rdf:about="">
        <dc:title>2-Background_Plate</dc:title>
      </cc:Work>
    </rdf:RDF>
  </metadata>
  <path
     style="color:#000000;overflow:visible;fill:url(#linearGradient3);stroke:url(#linearGradient7);stroke-width:0.999999;stroke-linecap:round;stroke-linejoin:round"
     d="M 38.1925,47.2872 38.014,18.0068 8.09438,3.42618 14.4759,0.577011 43.984,14.3098 l 0.064,29.1625 z"
     id="path1"
     sodipodi:nodetypes="ccccccc" />
</svg>
