<?xml version="1.0" encoding="UTF-8" standalone="no"?>
<svg
   viewBox="0 0 48 48"
   version="1.1"
   id="svg60"
   sodipodi:docname="8-Channel Extract.svg"
   inkscape:version="1.3.2 (091e20e, 2023-11-25, custom)"
   xmlns:inkscape="http://www.inkscape.org/namespaces/inkscape"
   xmlns:sodipodi="http://sodipodi.sourceforge.net/DTD/sodipodi-0.dtd"
   xmlns:xlink="http://www.w3.org/1999/xlink"
   xmlns="http://www.w3.org/2000/svg"
   xmlns:svg="http://www.w3.org/2000/svg">
  <sodipodi:namedview
     id="namedview60"
     pagecolor="#ffffff"
     bordercolor="#666666"
     borderopacity="1.0"
     inkscape:showpageshadow="2"
     inkscape:pageopacity="0.0"
     inkscape:pagecheckerboard="0"
     inkscape:deskcolor="#d1d1d1"
     inkscape:zoom="23.0208"
     inkscape:cx="23.9783"
     inkscape:cy="24"
     inkscape:current-layer="svg60" />
  <defs
     id="defs17">
    <radialGradient
       id="radial-gradient"
       cx="-624.13"
       cy="-1.47"
       fx="-624.13"
       fy="-1.47"
       r="8.81"
       gradientTransform="matrix(0.320461,2.06529,-1.23318,0.530875,221.59,1324.76)"
       gradientUnits="userSpaceOnUse">
      <stop
         offset=".59"
         stop-color="#2c2c2c"
         stop-opacity=".5"
         id="stop1" />
      <stop
         offset=".99"
         stop-color="#2c2c2c"
         stop-opacity="0"
         id="stop2" />
    </radialGradient>
    <linearGradient
       id="linear-gradient"
       x1="13.57"
       y1="9.77"
       x2="17.09"
       y2="32.71"
       gradientTransform="matrix(1, 0, 0, 1, 0, 0)"
       gradientUnits="userSpaceOnUse">
      <stop
         offset=".11"
         stop-color="#c4a000"
         id="stop3" />
      <stop
         offset=".46"
         stop-color="#fce94f"
         id="stop4" />
      <stop
         offset="1"
         stop-color="#fce94f"
         id="stop5" />
    </linearGradient>
    <linearGradient
       id="linear-gradient-2"
       x1="14.61"
       y1="17.58"
       x2="5.29"
       y2="14.64"
       gradientTransform="matrix(1, 0, 0, 1, 0, 0)"
       gradientUnits="userSpaceOnUse">
      <stop
         offset="0"
         stop-color="#765133"
         id="stop6" />
      <stop
         offset=".71"
         stop-color="#fffdfd"
         stop-opacity=".19"
         id="stop7" />
    </linearGradient>
    <linearGradient
       id="linear-gradient-3"
       x1="24.02"
       y1="6.14"
       x2="30.76"
       y2="50.13"
       xlink:href="#linear-gradient" />
    <linearGradient
       id="linear-gradient-4"
       x1="26.75"
       y1="23.43"
       x2="26.75"
       y2="10.87"
       xlink:href="#linear-gradient-2" />
    <linearGradient
       id="linear-gradient-5"
       x1="20.09"
       y1="10.96"
       x2="17.41"
       y2="10.96"
       gradientTransform="matrix(1, 0, 0, 1, 0, 0)"
       gradientUnits="userSpaceOnUse">
      <stop
         offset="0"
         stop-color="#5c5c5c"
         id="stop8" />
      <stop
         offset=".71"
         stop-color="#fffdfd"
         stop-opacity=".19"
         id="stop9" />
    </linearGradient>
    <linearGradient
       id="linear-gradient-6"
       x1="20.09"
       y1="22.87"
       x2="17.41"
       y2="22.87"
       xlink:href="#linear-gradient-5" />
    <linearGradient
       id="linear-gradient-7"
       x1="18.89"
       y1="22.97"
       x2="14.08"
       y2="22.97"
       gradientTransform="matrix(1, 0, 0, 1, 0, 0)"
       gradientUnits="userSpaceOnUse">
      <stop
         offset="0"
         stop-color="#fff"
         stop-opacity=".1"
         id="stop10" />
      <stop
         offset="1"
         stop-color="#fff8f8"
         id="stop11" />
    </linearGradient>
    <linearGradient
       id="linear-gradient-8"
       x1="20.73"
       y1="12.43"
       x2="14.41"
       y2="9.82"
       gradientTransform="matrix(1, 0, 0, 1, 0, 0)"
       gradientUnits="userSpaceOnUse">
      <stop
         offset=".2"
         stop-color="#fff"
         stop-opacity=".1"
         id="stop12" />
      <stop
         offset="1"
         stop-color="#fff8f8"
         id="stop13" />
    </linearGradient>
    <linearGradient
       id="linear-gradient-9"
       x1="20.37"
       y1="8.49"
       x2="15.54"
       y2="9.35"
       xlink:href="#linear-gradient-5" />
    <linearGradient
       id="linear-gradient-10"
       x1="17.87"
       y1="9.35"
       x2="14.97"
       y2="8.43"
       xlink:href="#linear-gradient-7" />
    <linearGradient
       id="linear-gradient-11"
       x1="17.99"
       y1="6.64"
       x2="16.46"
       y2="5.38"
       gradientTransform="matrix(1, 0, 0, 1, 0, 0)"
       gradientUnits="userSpaceOnUse">
      <stop
         offset="0"
         stop-color="#fff"
         stop-opacity="0"
         id="stop14" />
      <stop
         offset="1"
         stop-color="#fff8f8"
         id="stop15" />
    </linearGradient>
    <linearGradient
       id="linear-gradient-12"
       x1="26.47"
       y1="26.54"
       x2="23.79"
       y2="26.54"
       xlink:href="#linear-gradient-5" />
    <linearGradient
       id="linear-gradient-13"
       x1="25.26"
       y1="26.64"
       x2="20.45"
       y2="26.64"
       xlink:href="#linear-gradient-7" />
    <linearGradient
       id="linear-gradient-14"
       x1="27.1"
       y1="16.1"
       x2="20.78"
       y2="13.48"
       xlink:href="#linear-gradient-8" />
    <linearGradient
       id="linear-gradient-15"
       x1="26.74"
       y1="12.16"
       x2="21.91"
       y2="13.02"
       xlink:href="#linear-gradient-5" />
    <linearGradient
       id="linear-gradient-16"
       x1="24.25"
       y1="13.02"
       x2="21.34"
       y2="12.1"
       xlink:href="#linear-gradient-7" />
    <linearGradient
       id="linear-gradient-17"
       x1="24.36"
       y1="10.31"
       x2="22.83"
       y2="9.05"
       xlink:href="#linear-gradient-11" />
    <linearGradient
       id="linear-gradient-18"
       x1="31.64"
       y1="19.8"
       x2="26.83"
       y2="19.8"
       xlink:href="#linear-gradient-7" />
    <linearGradient
       id="linear-gradient-19"
       x1="32.84"
       y1="19.7"
       x2="30.16"
       y2="19.7"
       xlink:href="#linear-gradient-5" />
    <linearGradient
       id="linear-gradient-20"
       x1="33.48"
       y1="9.26"
       x2="27.16"
       y2="6.65"
       xlink:href="#linear-gradient-8" />
    <linearGradient
       id="linear-gradient-21"
       x1="33.12"
       y1="5.32"
       x2="28.29"
       y2="6.18"
       xlink:href="#linear-gradient-5" />
    <linearGradient
       id="linear-gradient-22"
       x1="30.62"
       y1="6.19"
       x2="27.72"
       y2="5.27"
       xlink:href="#linear-gradient-7" />
    <linearGradient
       id="linear-gradient-23"
       x1="30.73"
       y1="3.48"
       x2="29.21"
       y2="2.21"
       xlink:href="#linear-gradient-11" />
    <linearGradient
       id="linear-gradient-24"
       x1="31.36"
       y1="32.47"
       x2="50.65"
       y2="39.68"
       xlink:href="#linear-gradient" />
    <linearGradient
       id="linear-gradient-25"
       x1="17.64"
       y1="13.67"
       x2="24.38"
       y2="57.66"
       xlink:href="#linear-gradient" />
    <linearGradient
       id="linear-gradient-26"
       x1="20.43"
       y1="16.12"
       x2="20.37"
       y2="42.09"
       gradientUnits="userSpaceOnUse">
      <stop
         offset=".2"
         stop-color="#fff"
         stop-opacity="0"
         id="stop16" />
      <stop
         offset="1"
         stop-color="#fff7f7"
         id="stop17" />
    </linearGradient>
    <linearGradient
       inkscape:collect="always"
       xlink:href="#linear-gradient"
       id="linearGradient60"
       gradientUnits="userSpaceOnUse"
       x1="13.57"
       y1="9.77"
       x2="17.09"
       y2="32.71" />
    <linearGradient
       inkscape:collect="always"
       xlink:href="#linear-gradient-2"
       id="linearGradient61"
       gradientUnits="userSpaceOnUse"
       x1="14.61"
       y1="17.58"
       x2="5.29"
       y2="14.64" />
    <linearGradient
       inkscape:collect="always"
       xlink:href="#linear-gradient-5"
       id="linearGradient62"
       gradientUnits="userSpaceOnUse"
       x1="20.09"
       y1="10.96"
       x2="17.41"
       y2="10.96" />
    <linearGradient
       inkscape:collect="always"
       xlink:href="#linear-gradient-7"
       id="linearGradient63"
       gradientUnits="userSpaceOnUse"
       x1="18.89"
       y1="22.97"
       x2="14.08"
       y2="22.97" />
    <linearGradient
       inkscape:collect="always"
       xlink:href="#linear-gradient-8"
       id="linearGradient64"
       gradientUnits="userSpaceOnUse"
       x1="20.73"
       y1="12.43"
       x2="14.41"
       y2="9.82" />
    <linearGradient
       inkscape:collect="always"
       xlink:href="#linear-gradient-11"
       id="linearGradient65"
       gradientUnits="userSpaceOnUse"
       x1="17.99"
       y1="6.64"
       x2="16.46"
       y2="5.38" />
  </defs>
  <g
     id="shadow"
     style="opacity:0.45;isolation:isolate;mix-blend-mode:multiply;stroke-width:0.94005"
     transform="matrix(1.13161,0,0,1,-3.62472,1.34661)">
    <ellipse
       cx="23.25"
       cy="34.4"
       rx="10.86"
       ry="18.06"
       transform="rotate(-67.07,23.2498,34.3997)"
       style="fill:url(#radial-gradient);stroke-width:0.94005"
       id="ellipse17" />
  </g>
  <g
     id="ART"
     transform="matrix(1.09206,0,0,1.0907,-2.53589,-1.61688)"
     style="isolation:isolate;stroke-width:0.916268">
    <polygon
       points="11.41,22.59 11.41,18.82 17.93,11.29 17.93,25.98 "
       style="fill:url(#linearGradient60);stroke-width:0.916268"
       id="polygon17" />
    <polygon
       points="11.41,22.59 11.41,18.82 17.93,11.29 17.93,25.98 "
       style="mix-blend-mode:multiply;fill:url(#linearGradient61);stroke-width:0.916268"
       id="polygon18" />
    <polygon
       points="17.79,11.3 17.79,26.35 35.72,36.7 35.72,21.65 "
       style="fill:url(#linear-gradient-3);stroke-width:0.916268"
       id="polygon19" />
    <polygon
       points="17.79,11.3 17.79,26.35 35.72,36.7 35.72,21.65 "
       style="mix-blend-mode:multiply;fill:url(#linear-gradient-4);stroke-width:0.916268"
       id="polygon20" />
    <polyline
       points="11.41 18.82 17.93 11.29 35.87 21.64"
       style="fill:none;stroke:#8f5902;stroke-width:0.641388px;stroke-linecap:round;stroke-linejoin:round"
       id="polyline20" />
    <g
       id="g32"
       style="stroke-width:0.916268">
      <path
         d="m 20.37,10.96 c 0,-0.53 -0.31,-1.01 -0.81,-1.38 L 17.96,5.92 H 17.95 C 17.91,5.66 17.59,5.46 17.19,5.46 c -0.4,0 -0.72,0.2 -0.76,0.46 h -0.01 l -1.6,3.65 C 14.32,9.94 14,10.42 14,10.95 c 0,0.01 0,0.02 0,0.03 v 1.14 0 20.77 c 0,0 0.01,0.08 0.01,0.12 0.1,1.08 1.45,1.94 3.12,1.96 0.02,0 0.03,0 0.05,0 0.59,0 1.14,-0.11 1.61,-0.29 0.94,-0.36 1.58,-1.02 1.58,-1.79 z"
         style="fill:none;stroke:#555753;stroke-width:1.28278px;stroke-linecap:round;stroke-linejoin:round"
         id="path20" />
      <g
         id="g31"
         style="stroke-width:0.916268">
        <g
           id="g27"
           style="stroke-width:0.916268">
          <path
             d="m 17.13,34.98 c 0,0 0.03,0 0.05,0 0.59,0 1.14,-0.11 1.61,-0.29 0.94,-0.36 1.58,-1.02 1.58,-1.79 V 10.96 H 14 V 32.9 c 0,0 0.01,0.08 0.01,0.12 0.1,1.08 1.45,1.94 3.12,1.96 z"
             style="fill:#e8001c;stroke-width:0.916268"
             id="path21" />
          <path
             d="m 20.37,10.96 v 20.78 c 0,1.15 -1.42,2.08 -3.19,2.08 C 15.41,33.82 14,32.89 14,31.74 V 10.96 Z"
             style="fill:#f28c2f;stroke-width:0.916268"
             id="path22" />
          <g
             style="opacity:0.7;stroke-width:0.916268"
             id="g23">
            <path
               d="m 15.95,31.78 v 0 c -0.7,-0.15 -1.24,-0.97 -1.24,-1.74 v -7.03 c 0,-0.78 0.54,-1.3 1.24,-1.15 v 0 c 0.7,0.16 1.24,0.9 1.24,1.68 v 7.03 c 0,0.78 -0.54,1.36 -1.24,1.21 z"
               style="fill:#8c3e09;stroke-width:0.916268"
               id="path23" />
          </g>
          <path
             d="m 20.37,10.96 v 1.17 c 0,1.15 -1.42,2.08 -3.19,2.08 -1.77,0 -3.18,-0.93 -3.18,-2.08 v -1.17 z"
             style="fill:#e8001c;stroke-width:0.916268"
             id="path24" />
          <polygon
             points="20.32,10.97 20.38,10.96 20.38,10.97 "
             style="mix-blend-mode:multiply;fill:url(#linearGradient62);stroke-width:0.916268"
             id="polygon24" />
          <path
             d="m 20.38,10.97 v 21.94 c 0,0 0,0.1 -0.02,0.15 0,0.07 -0.02,0.15 -0.04,0.23 -0.01,0.06 -0.04,0.13 -0.06,0.19 -0.23,0.51 -0.77,0.95 -1.47,1.22 -0.08,0.03 -0.16,0.06 -0.24,0.08 V 11.29 l 1.77,-0.32 z"
             style="mix-blend-mode:multiply;fill:url(#linear-gradient-6);stroke-width:0.916268"
             id="path25" />
          <path
             d="m 17.09,34.98 c 0,0 0.06,0 0.1,0 0.24,0 0.48,-0.02 0.7,-0.05 0.03,0 0.06,-0.01 0.09,-0.02 0.19,-0.03 0.37,-0.07 0.54,-0.12 0.01,0 0.03,0 0.04,-0.01 V 10.96 H 14.01 V 32.9 c 0,0.06 0.01,0.1 0.02,0.16 0.12,1.05 1.43,1.88 3.07,1.92 z"
             style="opacity:0.7;fill:url(#linearGradient63);stroke-width:0.916268"
             id="path26" />
          <ellipse
             cx="17.19"
             cy="10.96"
             rx="3.19"
             ry="2.08"
             style="fill:#e8001c;stroke-width:0.916268"
             id="ellipse26" />
          <ellipse
             cx="17.19"
             cy="10.96"
             rx="3.19"
             ry="2.08"
             style="opacity:0.79;fill:url(#linearGradient64);stroke-width:0.916268"
             id="ellipse27" />
        </g>
        <g
           id="g30"
           style="stroke-width:0.916268">
          <path
             d="m 17.96,5.93 1.86,4.23 c 0.06,0.13 0.1,0.28 0.07,0.43 -0.17,0.88 -1.31,1.55 -2.7,1.55 -1.3,0 -2.39,-0.6 -2.65,-1.4 -0.06,-0.19 -0.04,-0.41 0.04,-0.59 l 1.84,-4.22 h 1.55 z"
             style="fill:#e8001c;stroke-width:0.916268"
             id="path27" />
          <path
             d="m 19.88,10.59 c 0.03,-0.14 0,-0.29 -0.07,-0.43 L 17.95,5.93 h -0.41 l -0.16,0.21 c 0,0 1.35,3.11 1.27,5.72 0.65,-0.28 1.12,-0.73 1.22,-1.26 z"
             style="mix-blend-mode:multiply;fill:url(#linear-gradient-9);stroke-width:0.916268"
             id="path28" />
          <path
             d="m 18.15,12.02 c -0.3,0.08 -0.63,0.12 -0.97,0.12 -1.31,0 -2.39,-0.59 -2.65,-1.4 -0.07,-0.19 -0.05,-0.41 0.03,-0.59 l 1.85,-4.22 h 0.78 c 0,0 -1.24,4.07 0.96,6.09 z"
             style="opacity:0.79;fill:url(#linear-gradient-10);stroke-width:0.916268"
             id="path29" />
          <ellipse
             cx="17.19"
             cy="5.98"
             rx="0.78"
             ry="0.51"
             style="fill:#e8001c;stroke-width:0.916268"
             id="ellipse29" />
          <ellipse
             cx="17.19"
             cy="5.98"
             rx="0.78"
             ry="0.51"
             style="opacity:0.79;fill:url(#linearGradient65);stroke-width:0.916268"
             id="ellipse30" />
        </g>
      </g>
    </g>
    <g
       id="g44"
       style="stroke-width:0.916268">
      <path
         d="m 26.74,14.63 c 0,-0.53 -0.31,-1.01 -0.81,-1.38 L 24.33,9.59 H 24.32 C 24.28,9.33 23.96,9.13 23.56,9.13 c -0.4,0 -0.72,0.2 -0.76,0.46 h -0.01 l -1.6,3.65 c -0.5,0.37 -0.82,0.85 -0.82,1.38 0,0.01 0,0.02 0,0.03 v 1.14 0 20.77 c 0,0 0.01,0.08 0.01,0.12 0.1,1.08 1.45,1.94 3.12,1.96 0.02,0 0.03,0 0.05,0 0.59,0 1.14,-0.11 1.61,-0.29 0.94,-0.36 1.58,-1.02 1.58,-1.79 z"
         style="fill:none;stroke:#555753;stroke-width:1.28278px;stroke-linecap:round;stroke-linejoin:round"
         id="path32" />
      <g
         id="g43"
         style="stroke-width:0.916268">
        <g
           id="g39"
           style="stroke-width:0.916268">
          <path
             d="m 23.5,38.65 c 0,0 0.03,0 0.05,0 0.59,0 1.14,-0.11 1.61,-0.29 0.94,-0.36 1.58,-1.02 1.58,-1.79 V 14.63 h -6.37 v 21.94 c 0,0 0.01,0.08 0.01,0.12 0.1,1.08 1.45,1.94 3.12,1.96 z"
             style="fill:#4dc905;stroke-width:0.916268"
             id="path33" />
          <path
             d="M 26.74,14.63 V 35.4 c 0,1.15 -1.42,2.08 -3.19,2.08 -1.77,0 -3.18,-0.93 -3.18,-2.08 V 14.63 Z"
             style="fill:#f28c2f;stroke-width:0.916268"
             id="path34" />
          <g
             style="opacity:0.7;stroke-width:0.916268"
             id="g35">
            <path
               d="m 22.32,35.44 v 0 c -0.7,-0.15 -1.24,-0.97 -1.24,-1.74 v -7.03 c 0,-0.78 0.54,-1.3 1.24,-1.15 v 0 c 0.7,0.16 1.24,0.9 1.24,1.68 v 7.03 c 0,0.78 -0.54,1.36 -1.24,1.21 z"
               style="fill:#8c3e09;stroke-width:0.916268"
               id="path35" />
          </g>
          <path
             d="m 26.74,14.63 v 1.17 c 0,1.15 -1.42,2.08 -3.19,2.08 -1.77,0 -3.18,-0.93 -3.18,-2.08 v -1.17 z"
             style="fill:#4dc905;stroke-width:0.916268"
             id="path36" />
          <path
             d="m 26.75,14.63 v 21.94 c 0,0 0,0.1 -0.02,0.15 0,0.07 -0.02,0.15 -0.04,0.23 -0.01,0.06 -0.04,0.13 -0.06,0.19 -0.23,0.51 -0.77,0.95 -1.47,1.22 -0.08,0.03 -0.16,0.06 -0.24,0.08 V 14.95 l 1.77,-0.32 z"
             style="mix-blend-mode:multiply;fill:url(#linear-gradient-12);stroke-width:0.916268"
             id="path37" />
          <path
             d="m 23.46,38.64 c 0,0 0.06,0 0.1,0 0.24,0 0.48,-0.02 0.7,-0.05 0.03,0 0.06,-0.01 0.09,-0.02 0.19,-0.03 0.37,-0.07 0.54,-0.12 0.01,0 0.03,0 0.04,-0.01 V 14.63 h -4.55 v 21.94 c 0,0.06 0.01,0.1 0.02,0.16 0.12,1.05 1.43,1.88 3.07,1.92 z"
             style="opacity:0.7;fill:url(#linear-gradient-13);stroke-width:0.916268"
             id="path38" />
          <ellipse
             cx="23.56"
             cy="14.63"
             rx="3.19"
             ry="2.08"
             style="fill:#4dc905;stroke-width:0.916268"
             id="ellipse38" />
          <ellipse
             cx="23.56"
             cy="14.63"
             rx="3.19"
             ry="2.08"
             style="opacity:0.79;fill:url(#linear-gradient-14);stroke-width:0.916268"
             id="ellipse39" />
        </g>
        <g
           id="g42"
           style="stroke-width:0.916268">
          <path
             d="m 24.33,9.6 1.86,4.23 c 0.06,0.13 0.1,0.28 0.07,0.43 -0.17,0.88 -1.31,1.55 -2.7,1.55 -1.3,0 -2.39,-0.6 -2.65,-1.4 C 20.85,14.22 20.87,14 20.95,13.82 L 22.79,9.6 h 1.55 z"
             style="fill:#4dc905;stroke-width:0.916268"
             id="path39" />
          <path
             d="m 26.25,14.26 c 0.03,-0.14 0,-0.29 -0.07,-0.43 L 24.32,9.6 h -0.41 l -0.16,0.21 c 0,0 1.35,3.11 1.27,5.72 0.65,-0.28 1.12,-0.73 1.22,-1.26 z"
             style="mix-blend-mode:multiply;fill:url(#linear-gradient-15);stroke-width:0.916268"
             id="path40" />
          <path
             d="m 24.52,15.69 c -0.3,0.08 -0.63,0.12 -0.97,0.12 -1.31,0 -2.39,-0.59 -2.65,-1.4 C 20.83,14.22 20.85,14 20.93,13.82 L 22.78,9.6 h 0.78 c 0,0 -1.24,4.07 0.96,6.09 z"
             style="opacity:0.79;fill:url(#linear-gradient-16);stroke-width:0.916268"
             id="path41" />
          <ellipse
             cx="23.56"
             cy="9.65"
             rx="0.78"
             ry="0.51"
             style="fill:#4dc905;stroke-width:0.916268"
             id="ellipse41" />
          <ellipse
             cx="23.56"
             cy="9.65"
             rx="0.78"
             ry="0.51"
             style="opacity:0.79;fill:url(#linear-gradient-17);stroke-width:0.916268"
             id="ellipse42" />
        </g>
      </g>
    </g>
    <g
       id="g56"
       style="stroke-width:0.916268">
      <path
         d="m 33.12,7.79 c 0,-0.53 -0.31,-1.01 -0.81,-1.38 L 30.71,2.75 H 30.7 C 30.66,2.49 30.34,2.29 29.94,2.29 c -0.4,0 -0.72,0.2 -0.76,0.46 h -0.01 l -1.6,3.65 c -0.5,0.37 -0.82,0.85 -0.82,1.38 0,0.01 0,0.02 0,0.03 v 1.14 0 20.78 c 0,0 0.01,0.08 0.01,0.12 0.1,1.08 1.45,1.94 3.12,1.96 0.02,0 0.03,0 0.05,0 0.59,0 1.14,-0.11 1.61,-0.29 0.94,-0.36 1.58,-1.02 1.58,-1.79 z"
         style="fill:none;stroke:#555753;stroke-width:1.28278px;stroke-linecap:round;stroke-linejoin:round"
         id="path44" />
      <g
         id="g55"
         style="stroke-width:0.916268">
        <g
           id="g51"
           style="stroke-width:0.916268">
          <path
             d="m 29.88,31.81 c 0,0 0.03,0 0.05,0 0.6,0 1.14,-0.11 1.62,-0.29 0.91,-0.35 1.52,-0.98 1.56,-1.71 0,-0.02 0.01,-0.05 0.01,-0.07 V 7.79 h -6.37 v 21.94 c 0,0 0.01,0.08 0.01,0.12 0.1,1.08 1.44,1.94 3.12,1.96 z"
             style="fill:#1b4ece;stroke-width:0.916268"
             id="path45" />
          <path
             d="m 33.12,7.79 v 20.78 c 0,1.15 -1.42,2.08 -3.19,2.08 -1.77,0 -3.18,-0.93 -3.18,-2.08 V 7.79 Z"
             style="fill:#f28c2f;stroke-width:0.916268"
             id="path46" />
          <g
             style="opacity:0.7;stroke-width:0.916268"
             id="g47">
            <path
               d="m 28.7,28.61 v 0 C 28,28.46 27.46,27.64 27.46,26.87 v -7.03 c 0,-0.78 0.54,-1.3 1.24,-1.15 v 0 c 0.7,0.16 1.24,0.9 1.24,1.68 v 7.03 c 0,0.78 -0.54,1.36 -1.24,1.21 z"
               style="fill:#8c3e09;stroke-width:0.916268"
               id="path47" />
          </g>
          <path
             d="m 33.12,7.79 v 1.17 c 0,1.15 -1.42,2.08 -3.19,2.08 -1.77,0 -3.18,-0.93 -3.18,-2.08 V 7.79 Z"
             style="fill:#1b4ece;stroke-width:0.916268"
             id="path48" />
          <path
             d="m 29.84,31.81 c 0,0 0.06,0 0.1,0 0.24,0 0.48,-0.02 0.7,-0.05 0.03,0 0.06,-0.01 0.09,-0.02 0.19,-0.03 0.37,-0.07 0.54,-0.12 0.01,0 0.03,0 0.04,-0.01 V 7.79 h -4.55 v 21.94 c 0,0.06 0.01,0.1 0.02,0.16 0.12,1.05 1.43,1.89 3.07,1.92 z"
             style="opacity:0.7;fill:url(#linear-gradient-18);stroke-width:0.916268"
             id="path49" />
          <path
             d="m 33.13,7.8 v 21.94 c 0,0 0,0.1 -0.02,0.15 0,0.07 -0.02,0.15 -0.04,0.23 -0.01,0.06 -0.04,0.13 -0.06,0.19 -0.23,0.51 -0.77,0.95 -1.47,1.22 -0.08,0.03 -0.16,0.06 -0.24,0.08 V 8.12 L 33.07,7.8 Z"
             style="mix-blend-mode:multiply;fill:url(#linear-gradient-19);stroke-width:0.916268"
             id="path50" />
          <ellipse
             cx="29.93"
             cy="7.79"
             rx="3.19"
             ry="2.08"
             style="fill:#1b4ece;stroke-width:0.916268"
             id="ellipse50" />
          <ellipse
             cx="29.93"
             cy="7.79"
             rx="3.19"
             ry="2.08"
             style="opacity:0.79;fill:url(#linear-gradient-20);stroke-width:0.916268"
             id="ellipse51" />
        </g>
        <g
           id="g54"
           style="stroke-width:0.916268">
          <path
             d="m 30.71,2.76 1.86,4.23 c 0.06,0.13 0.1,0.28 0.07,0.43 -0.17,0.88 -1.31,1.55 -2.7,1.55 -1.3,0 -2.39,-0.6 -2.65,-1.4 -0.06,-0.19 -0.04,-0.41 0.04,-0.59 l 1.84,-4.22 h 1.55 z"
             style="fill:#1b4ece;stroke-width:0.916268"
             id="path51" />
          <path
             d="m 32.63,7.42 c 0.03,-0.14 0,-0.29 -0.07,-0.43 L 30.7,2.76 h -0.41 l -0.16,0.21 c 0,0 1.35,3.11 1.27,5.72 0.65,-0.28 1.12,-0.73 1.22,-1.26 z"
             style="mix-blend-mode:multiply;fill:url(#linear-gradient-21);stroke-width:0.916268"
             id="path52" />
          <path
             d="m 30.9,8.85 c -0.3,0.08 -0.63,0.12 -0.97,0.12 -1.31,0 -2.39,-0.59 -2.65,-1.4 -0.07,-0.19 -0.05,-0.41 0.03,-0.59 l 1.85,-4.22 h 0.78 c 0,0 -1.24,4.07 0.96,6.09 z"
             style="opacity:0.79;fill:url(#linear-gradient-22);stroke-width:0.916268"
             id="path53" />
          <ellipse
             cx="29.93"
             cy="2.81"
             rx="0.78"
             ry="0.51"
             style="fill:#1b4ece;stroke-width:0.916268"
             id="ellipse53" />
          <ellipse
             cx="29.93"
             cy="2.81"
             rx="0.78"
             ry="0.51"
             style="opacity:0.79;fill:url(#linear-gradient-23);stroke-width:0.916268"
             id="ellipse54" />
        </g>
      </g>
    </g>
    <g
       id="g58"
       style="stroke-width:0.916268">
      <polygon
         points="35.86,40.47 35.86,21.65 29.34,29.18 29.34,44.23 "
         style="fill:url(#linear-gradient-24);stroke-width:0.916268"
         id="polygon56" />
      <polygon
         points="29.34,44.23 29.34,29.18 11.41,18.82 11.41,33.88 "
         style="fill:url(#linear-gradient-25);stroke-width:0.916268"
         id="polygon57" />
      <path
         d="M 24.01,35.16 16.74,30.97 C 16.16,30.64 15.7,29.66 15.7,28.79 v 0 c 0,-0.87 0.47,-1.31 1.04,-0.98 L 24.01,32 c 0.58,0.33 1.04,1.31 1.04,2.18 v 0 c 0,0.87 -0.47,1.31 -1.04,0.98 z"
         style="fill:#8c3e09;stroke-width:0.916268"
         id="path57" />
      <path
         d="m 11.41,33.88 c 0,0 6.34,-4.7 17.94,-4.7 V 44.24 L 11.41,33.89 Z"
         style="opacity:0.65;fill:url(#linear-gradient-26);stroke-width:0.916268"
         id="path58" />
    </g>
    <polyline
       points="35.87 21.64 35.87 40.47 29.34 44.24 11.41 33.88 11.41 18.82"
       style="fill:none;stroke:#8f5902;stroke-width:0.641388px;stroke-miterlimit:10"
       id="polyline58" />
    <g
       id="g59"
       style="stroke-width:0.916268">
      <line
         x1="35.86"
         y1="21.65"
         x2="29.34"
         y2="29.18"
         style="fill:none;stroke:#8f5902;stroke-width:0.641388px;stroke-linecap:round;stroke-linejoin:round"
         id="line58" />
      <line
         x1="29.34"
         y1="29.18"
         x2="11.41"
         y2="18.82"
         style="fill:none;stroke:#8f5902;stroke-width:0.641388px;stroke-linecap:round;stroke-linejoin:round"
         id="line59" />
    </g>
  </g>
</svg>
