<?xml version="1.0" encoding="UTF-8" standalone="no"?>
<svg
   viewBox="0 0 48 48"
   version="1.1"
   id="svg11"
   sodipodi:docname="14-Chromatic Aberration.svg"
   inkscape:version="1.3.2 (091e20e, 2023-11-25, custom)"
   xmlns:inkscape="http://www.inkscape.org/namespaces/inkscape"
   xmlns:sodipodi="http://sodipodi.sourceforge.net/DTD/sodipodi-0.dtd"
   xmlns="http://www.w3.org/2000/svg"
   xmlns:svg="http://www.w3.org/2000/svg">
  <sodipodi:namedview
     id="namedview11"
     pagecolor="#ffffff"
     bordercolor="#666666"
     borderopacity="1.0"
     inkscape:showpageshadow="2"
     inkscape:pageopacity="0.0"
     inkscape:pagecheckerboard="0"
     inkscape:deskcolor="#d1d1d1"
     showgrid="false"
     inkscape:zoom="23.0208"
     inkscape:cx="23.9348"
     inkscape:cy="24.0869"
     inkscape:current-layer="svg11" />
  <defs
     id="defs8">
    <radialGradient
       id="radial-gradient"
       cx="-13.77"
       cy="-136.78"
       fx="-13.77"
       fy="-136.78"
       r="9.86"
       gradientTransform="matrix(-0.286016,2.18133,-0.997406,-0.623495,-117.07,-19.67)"
       gradientUnits="userSpaceOnUse">
      <stop
         offset=".5"
         stop-color="#2c2c2c"
         stop-opacity=".5"
         id="stop1" />
      <stop
         offset=".99"
         stop-color="#2c2c2c"
         stop-opacity="0"
         id="stop2" />
    </radialGradient>
    <linearGradient
       id="linear-gradient"
       x1="17.62"
       y1="17.16"
       x2="35.96"
       y2="35.5"
       gradientUnits="userSpaceOnUse"
       gradientTransform="matrix(1.11835,0,0,1.11835,-2.81885,-3.17164)">
      <stop
         offset="0"
         stop-color="#8ae234"
         id="stop3" />
      <stop
         offset="1"
         stop-color="#4e9a06"
         id="stop4" />
    </linearGradient>
    <linearGradient
       id="linear-gradient-2"
       x1="18.65"
       y1="18.8"
       x2="37"
       y2="37.15"
       gradientUnits="userSpaceOnUse"
       gradientTransform="matrix(1.11835,0,0,1.11835,-2.81885,-3.17164)">
      <stop
         offset="0"
         stop-color="#ef2929"
         id="stop5" />
      <stop
         offset="1"
         stop-color="#a40000"
         id="stop6" />
    </linearGradient>
    <linearGradient
       id="linear-gradient-3"
       x1="19.69"
       y1="20.45"
       x2="38.03"
       y2="38.79"
       gradientUnits="userSpaceOnUse"
       gradientTransform="matrix(1.11835,0,0,1.11835,-2.81885,-3.17164)">
      <stop
         offset="0"
         stop-color="#3465a4"
         id="stop7" />
      <stop
         offset="1"
         stop-color="#1b4ece"
         id="stop8" />
    </linearGradient>
  </defs>
  <path
     d="m 45.7175,37.8383 c 0.034,-1.5434 -0.1565,-2.74 -0.3466,-3.5228 -0.1343,-0.5592 -0.4027,-1.0737 -0.7717,-1.5322 -0.2572,-0.3243 -0.671,-0.8723 -1.2749,-1.8117 -0.973,-1.4874 -1.7894,-3.7689 -2.1808,-4.9431 -0.1454,-0.4585 -0.5256,-0.7829 -0.9953,-0.8612 -0.5704,-0.1006 -1.4203,-0.3131 -2.4269,-0.7381 -1.0288,-0.4249 -2.1807,-1.2078 -2.8965,-1.6887 -0.123,-0.078 -0.1342,-0.4697 -0.123,-0.5815 0.1342,-1.4203 0.022,-2.5163 0.123,-4.0484 0.3691,-2.2815 1.6328,-3.9366 1.6328,-3.9366 0,0 0.3579,-0.5816 1.0289,-0.2573 0.3579,0.179 1.2637,0.6375 1.8341,0.9954 0.3355,0.2125 0.7716,0.1789 1.0848,-0.078 0.2572,-0.2125 0.548,-0.4809 0.7157,-0.7157 0.3467,-0.4921 0.5592,-1.0513 0.5592,-1.0513 C 41.3448,12.4964 40.0028,11.3669 39.3541,10.8413 39.1416,10.6735 39.0186,10.3268 39.0074,10.1815 38.9851,9.83477 38.8173,9.30915 38.5937,9.14139 38.5042,9.07429 38.3812,8.99601 38.247,8.91772 37.7884,8.64932 36.726,8.11251 36.726,8.11251 c 0,0 0.1342,-0.23485 0.302,-0.74929 0.1565,-0.51444 -0.078,-1.27492 -0.3244,-1.49859 0,0 -0.2907,0.22367 -0.6262,0.77166 -0.5592,0.90586 -1.1072,0.87231 -1.4092,0.86113 -1.3867,-0.0559 -3.2208,0.63746 -4.876,3.44448 -0.6598,1.1184 -1.1407,2.2367 -1.8005,3.0084 -0.8723,0.9506 -2.0578,0.671 -2.3485,0.2796 -0.2461,-0.3243 -0.5033,0.6486 0.7045,1.4538 -1.3756,-0.3802 -2.8294,-1.04 -3.903,-1.8676 -2.0578,-1.5992 -3.6011,-2.2032 -5.7148,-2.1137 -0.8947,0.034 -1.6216,0.4362 -2.136,1.0065 -0.2573,-1.2637 -1.3868,-2.5163 -2.9078,-2.2702 -1.6439,0.2572 -2.98594,2.8965 -4.12666,4.8872 C 6.4299,17.3277 3.9919,18.3566 2.52686,18.2448 1.52035,18.1665 0.860521,17.6297 0.469099,17.16 0.290163,16.9587 -6.08e-4,17.07 0.010575,17.4619 c 0.011184,0.4697 0.134202,1.1072 0.559175,1.8006 0.8835,1.4426 2.87416,2.6616 5.81542,1.8676 2.94126,-0.794 4.68593,-3.0643 5.62533,-4.8984 0.3914,-0.7604 0.8387,-1.219 1.2413,-1.4874 0.1454,-0.1006 0.3579,0.123 0.3244,0.3243 -0.1231,1.0177 -0.067,2.2479 0.2572,3.5117 0.3579,1.3755 0.1118,3.0307 -0.045,3.7912 -0.045,0.2348 -0.2684,0.3802 -0.5032,0.3355 -0.7381,-0.1454 -2.3485,-0.3914 -3.62346,-0.2237 -0.45853,0.056 -0.86113,0.3243 -1.11835,0.7158 -0.8164,1.2413 -2.80706,4.1938 -3.63464,4.8983 -0.34669,0.302 -1.02888,0.3803 -1.49859,0.4026 -0.29077,0.011 -0.52562,0.2125 -0.55918,0.5033 -0.0895,0.6598 -0.16775,1.9012 0.26841,3.2544 0.0447,0.1454 0.17893,0.2348 0.32432,0.2348 0.43616,-0.011 1.33084,-0.067 1.85646,-0.2907 0.71575,-0.302 4.37275,-5.9161 4.65234,-6.4641 0.0895,-0.1566 0.24599,-0.2572 0.42499,-0.2684 0.6263,-0.011 4.3168,0.8947 4.6523,1.0513 0.5145,0.2236 1.1184,0.056 1.4315,-0.425 0.3691,-0.548 0.3691,-1.5657 0.7828,-2.5275 0.2125,-0.4809 0.4921,-0.6822 0.4474,-0.1901 -0.2572,2.8518 -0.794,6.5312 -0.8611,6.9561 -0.1007,0.6263 0.4249,1.3644 1.2749,1.5098 0.8499,0.1454 3.78,0.425 4.6747,0.5592 0.8947,0.1342 1.4203,0.6598 1.4203,0.6598 0,0 0.045,0.4921 -0.179,0.9282 -0.1006,0.1901 -0.2572,0.4026 -0.4026,0.5816 -0.1789,0.2236 -0.2236,0.5256 -0.045,0.7269 0.2908,0.302 0.7605,0.7605 1.2078,1.0512 0.3691,0.2349 0.8052,0.4027 1.1519,0.5145 0.3467,0.1118 0.6375,-0.045 0.671,-0.3802 0.1007,-0.85 0.2684,-2.4604 0.056,-3.1538 -0.2908,-0.9618 -1.1296,-2.1137 -1.9795,-2.438 -0.85,-0.3243 -3.8136,-1.0401 -4.4063,-1.5769 0,0 1.6775,-2.9972 2.4156,-5.5582 0.9953,0.8947 2.4939,2.0578 5.1892,2.3709 0.4026,0.045 0.8052,0.056 1.1966,0.034 0.3355,-0.022 0.6486,0.1342 0.794,0.4361 0.6375,1.3197 1.2414,3.0643 1.4091,4.7083 0,0 -1.2637,-0.2572 -1.8676,-1.1407 0,0 0.1342,-0.7158 -0.1901,-1.398 -0.067,-0.1342 -0.1901,-0.2236 -0.3355,-0.2572 -0.4809,-0.1118 -1.6664,-0.3019 -2.986,0.09 -0.2461,0.078 -0.4026,0.3243 -0.3579,0.5815 0.1007,0.5816 0.4473,1.644 1.7223,2.6058 1.9459,1.4538 4.4286,2.0913 5.8042,2.2702 1.3979,0.179 1.9124,0.1007 1.9459,-0.5256 0.034,-0.6039 -0.3578,-4.0596 -0.3914,-6.1286 1.9571,0.9395 4.3392,0.973 4.3392,0.973 1.6104,2.7176 3.8024,5.5135 3.8024,5.5135 -0.7157,0.8835 -1.1631,2.6281 -1.1631,2.6281 2.0466,1.219 4.1044,1.3868 4.1044,1.3868 z"
     style="isolation:isolate;mix-blend-mode:normal;fill:#ef2929;stroke-width:1"
     id="path8" />
  <path
     d="m 48.0325,41.5064 c 0.034,-1.5433 -0.1565,-2.7399 -0.3467,-3.5228 -0.1342,-0.5591 -0.4026,-1.0736 -0.7716,-1.5321 -0.2572,-0.3243 -0.671,-0.8723 -1.2749,-1.8117 -0.973,-1.4874 -1.7894,-3.7689 -2.1808,-4.9431 -0.1454,-0.4586 -0.5257,-0.7829 -0.9954,-0.8612 -0.5703,-0.1006 -1.4203,-0.3131 -2.4268,-0.7381 -1.0289,-0.4249 -2.1808,-1.2078 -2.8965,-1.6887 -0.123,-0.078 -0.1342,-0.4697 -0.123,-0.5815 0.1342,-1.4203 0.022,-2.5163 0.123,-4.0485 0.3691,-2.2814 1.6328,-3.9365 1.6328,-3.9365 0,0 0.3579,-0.5816 1.0289,-0.2573 0.3578,0.179 1.2637,0.6375 1.8341,0.9954 0.3355,0.2125 0.7716,0.1789 1.0848,-0.078 0.2572,-0.2125 0.548,-0.4809 0.7157,-0.7158 0.3467,-0.492 0.5592,-1.0512 0.5592,-1.0512 -0.3355,-0.5704 -1.6775,-1.6999 -2.3262,-2.2255 -0.2125,-0.1678 -0.3355,-0.5145 -0.3467,-0.6599 -0.022,-0.3466 -0.1901,-0.8723 -0.4138,-1.04 -0.089,-0.067 -0.2125,-0.1454 -0.3467,-0.2237 -0.4585,-0.2684 -1.5209,-0.8052 -1.5209,-0.8052 0,0 0.1342,-0.2349 0.3019,-0.7493 0.1566,-0.5144 -0.078,-1.27491 -0.3243,-1.49858 0,0 -0.2907,0.22367 -0.6263,0.77168 -0.5591,0.9058 -1.1071,0.8723 -1.4091,0.8611 -1.3867,-0.056 -3.2208,0.6375 -4.876,3.4445 -0.6598,1.1184 -1.1407,2.2367 -1.8005,3.0084 -0.8723,0.9506 -2.0578,0.671 -2.3486,0.2796 -0.246,-0.3243 -0.5032,0.6486 0.7046,1.4538 -1.3756,-0.3802 -2.8294,-1.04 -3.903,-1.8676 -2.0578,-1.5993 -3.6011,-2.2032 -5.7148,-2.1137 -0.8947,0.034 -1.6216,0.4362 -2.1361,1.0065 -0.2572,-1.2637 -1.3867,-2.5163 -2.9077,-2.2702 -1.6439,0.2572 -2.986,2.8965 -4.12668,4.8872 -1.12953,2.0018 -3.56753,3.0307 -5.03257,2.9189 -1.00652,-0.078 -1.66634,-0.6151 -2.05777,-1.0848 -0.17893,-0.2014 -0.4697,-0.089 -0.45852,0.3019 0.0112,0.4697 0.1342,1.1072 0.55917,1.8005 0.8835,1.4427 2.87416,2.6617 5.81543,1.8677 2.94124,-0.794 4.68584,-3.0643 5.62534,-4.8984 0.3914,-0.7605 0.8387,-1.219 1.2413,-1.4874 0.1454,-0.1006 0.3579,0.123 0.3243,0.3243 -0.123,1.0177 -0.067,2.2479 0.2573,3.5117 0.3578,1.3755 0.1118,3.0307 -0.045,3.7912 -0.045,0.2348 -0.2684,0.3802 -0.5032,0.3355 -0.7381,-0.1454 -2.3486,-0.3915 -3.6235,-0.2237 -0.4585,0.056 -0.8611,0.3243 -1.1183,0.7157 -0.8164,1.2414 -2.80709,4.1939 -3.63467,4.8984 -0.34669,0.302 -1.02888,0.3803 -1.49859,0.4026 -0.29077,0.011 -0.52562,0.2125 -0.55917,0.5033 -0.0895,0.6598 -0.16775,1.9012 0.2684,3.2544 0.0447,0.1454 0.17894,0.2348 0.32432,0.2348 0.43616,-0.011 1.33084,-0.067 1.85647,-0.2907 0.71574,-0.302 4.37274,-5.9161 4.65234,-6.4641 0.09,-0.1566 0.246,-0.2572 0.425,-0.2684 0.6262,-0.011 4.3168,0.8947 4.6523,1.0512 0.5144,0.2237 1.1184,0.056 1.4315,-0.4249 0.369,-0.548 0.369,-1.5657 0.7828,-2.5275 0.2125,-0.4809 0.4921,-0.6822 0.4474,-0.1901 -0.2572,2.8518 -0.7941,6.5311 -0.8612,6.9561 -0.1006,0.6263 0.425,1.3644 1.275,1.5098 0.8499,0.1454 3.78,0.425 4.6747,0.5592 0.8946,0.1342 1.4203,0.6598 1.4203,0.6598 0,0 0.045,0.4921 -0.179,0.9282 -0.1006,0.1901 -0.2572,0.4026 -0.4026,0.5816 -0.1789,0.2236 -0.2236,0.5256 -0.045,0.7269 0.2908,0.3019 0.7605,0.7605 1.2078,1.0512 0.3691,0.2349 0.8052,0.4026 1.1519,0.5145 0.3467,0.1118 0.6375,-0.045 0.671,-0.3803 0.1007,-0.8499 0.2684,-2.4603 0.056,-3.1537 -0.2907,-0.9618 -1.1295,-2.1137 -1.9794,-2.438 -0.85,-0.3243 -3.8136,-1.0401 -4.4063,-1.5769 0,0 1.6775,-2.9972 2.4156,-5.5582 0.9953,0.8947 2.4939,2.0578 5.1891,2.3709 0.4026,0.045 0.8053,0.056 1.1967,0.034 0.3355,-0.022 0.6486,0.1342 0.794,0.4361 0.6375,1.3197 1.2414,3.0643 1.4091,4.7083 0,0 -1.2637,-0.2572 -1.8676,-1.1407 0,0 0.1342,-0.7158 -0.1901,-1.398 -0.067,-0.1342 -0.1902,-0.2236 -0.3355,-0.2572 -0.4809,-0.1118 -1.6664,-0.302 -2.986,0.09 -0.2461,0.078 -0.4026,0.3243 -0.3579,0.5815 0.1006,0.5816 0.4473,1.644 1.7222,2.6058 1.946,1.4538 4.4287,2.0913 5.8043,2.2702 1.3979,0.179 1.9124,0.1007 1.9459,-0.5256 0.034,-0.6039 -0.3579,-4.0596 -0.3914,-6.1286 1.9571,0.9395 4.3392,0.973 4.3392,0.973 1.6104,2.7176 3.8024,5.5135 3.8024,5.5135 -0.7158,0.8835 -1.1631,2.6281 -1.1631,2.6281 2.0466,1.219 4.1043,1.3867 4.1043,1.3867 z"
     style="isolation:isolate;mix-blend-mode:normal;fill:#729fcf;stroke-width:1"
     id="path10" />
  <path
     d="m 46.8694,39.6723 c 0.034,-1.5433 -0.1565,-2.7399 -0.3466,-3.5228 -0.1342,-0.5591 -0.4027,-1.0736 -0.7717,-1.5321 -0.2572,-0.3243 -0.671,-0.8723 -1.2749,-1.8117 -0.973,-1.4874 -1.7894,-3.7689 -2.1808,-4.9431 -0.1454,-0.4586 -0.5256,-0.7829 -0.9953,-0.8612 -0.5704,-0.1006 -1.4203,-0.3131 -2.4269,-0.7381 -1.0288,-0.4249 -2.1807,-1.2078 -2.8965,-1.6887 -0.123,-0.078 -0.1342,-0.4697 -0.123,-0.5815 0.1342,-1.4203 0.022,-2.5163 0.123,-4.0484 0.3691,-2.2815 1.6328,-3.9366 1.6328,-3.9366 0,0 0.3579,-0.5816 1.0289,-0.2573 0.3579,0.179 1.2637,0.6375 1.8341,0.9954 0.3355,0.2125 0.7716,0.1789 1.0848,-0.078 0.2572,-0.2125 0.548,-0.4809 0.7157,-0.7158 0.3467,-0.492 0.5592,-1.0512 0.5592,-1.0512 -0.3355,-0.5704 -1.6775,-1.6999 -2.3262,-2.2255 -0.2125,-0.1678 -0.3355,-0.5145 -0.3467,-0.6598 -0.022,-0.3467 -0.1901,-0.8724 -0.4137,-1.0401 -0.09,-0.067 -0.2125,-0.1454 -0.3467,-0.2237 -0.4586,-0.2684 -1.521,-0.80519 -1.521,-0.80519 0,0 0.1342,-0.23486 0.302,-0.7493 0.1565,-0.51444 -0.078,-1.27492 -0.3244,-1.49859 0,0 -0.2907,0.22367 -0.6262,0.77166 -0.5592,0.90587 -1.1072,0.87232 -1.4092,0.86113 -1.3867,-0.0559 -3.2208,0.63746 -4.876,3.44449 -0.6598,1.1184 -1.1407,2.2367 -1.8005,3.0084 -0.8723,0.9506 -2.0578,0.671 -2.3485,0.2796 -0.2461,-0.3243 -0.5033,0.6486 0.7045,1.4538 -1.3756,-0.3802 -2.8294,-1.04 -3.903,-1.8676 -2.0578,-1.5993 -3.6011,-2.2032 -5.7148,-2.1137 -0.8947,0.034 -1.6216,0.4362 -2.136,1.0065 C 15.4885,13.2793 14.359,12.0267 12.8381,12.2728 11.1941,12.53 9.85206,15.1693 8.71134,17.16 7.58181,19.1618 5.1438,20.1907 3.67876,20.0789 2.67225,20.0006 2.01242,19.4638 1.621,18.9941 1.44206,18.7928 1.15129,18.9046 1.16248,19.296 c 0.0112,0.4697 0.1342,1.1072 0.55917,1.8006 0.8835,1.4426 2.87416,2.6616 5.81542,1.8676 2.94123,-0.794 4.68593,-3.0643 5.62533,-4.8984 0.3914,-0.7605 0.8387,-1.219 1.2413,-1.4874 0.1454,-0.1006 0.3579,0.123 0.3244,0.3243 -0.1231,1.0177 -0.067,2.2479 0.2572,3.5117 0.3579,1.3755 0.1118,3.0307 -0.045,3.7912 -0.045,0.2348 -0.2684,0.3802 -0.5032,0.3355 -0.7381,-0.1454 -2.3485,-0.3914 -3.6235,-0.2237 -0.4585,0.056 -0.86109,0.3243 -1.11831,0.7157 -0.8164,1.2414 -2.80706,4.1939 -3.63464,4.8984 -0.34669,0.302 -1.02888,0.3803 -1.49859,0.4026 -0.29077,0.011 -0.52562,0.2125 -0.55917,0.5033 -0.0895,0.6598 -0.16776,1.9012 0.2684,3.2544 0.0447,0.1454 0.17894,0.2348 0.32432,0.2348 0.43616,-0.011 1.33084,-0.067 1.85646,-0.2907 0.71575,-0.302 4.37273,-5.9161 4.65233,-6.4641 0.09,-0.1566 0.246,-0.2572 0.425,-0.2684 0.6263,-0.011 4.3168,0.8947 4.6523,1.0512 0.5145,0.2237 1.1184,0.056 1.4315,-0.4249 0.3691,-0.548 0.3691,-1.5657 0.7828,-2.5275 0.2125,-0.4809 0.4921,-0.6822 0.4474,-0.1901 -0.2572,2.8518 -0.794,6.5311 -0.8611,6.9561 -0.1007,0.6263 0.4249,1.3644 1.2749,1.5098 0.8499,0.1454 3.78,0.425 4.6747,0.5592 0.8947,0.1342 1.4203,0.6598 1.4203,0.6598 0,0 0.045,0.4921 -0.1789,0.9282 -0.1007,0.1901 -0.2573,0.4026 -0.4027,0.5816 -0.1789,0.2236 -0.2236,0.5256 -0.045,0.7269 0.2908,0.3019 0.7605,0.7605 1.2078,1.0512 0.3691,0.2349 0.8052,0.4026 1.1519,0.5145 0.3467,0.1118 0.6375,-0.045 0.671,-0.3803 0.1007,-0.8499 0.2684,-2.4603 0.056,-3.1537 -0.2908,-0.9618 -1.1296,-2.1137 -1.9795,-2.438 -0.85,-0.3243 -3.8136,-1.0401 -4.4063,-1.5769 0,0 1.6775,-2.9972 2.4156,-5.5582 0.9953,0.8947 2.4939,2.0578 5.1892,2.3709 0.4026,0.045 0.8052,0.056 1.1966,0.034 0.3355,-0.022 0.6486,0.1342 0.794,0.4361 0.6375,1.3197 1.2414,3.0643 1.4091,4.7083 0,0 -1.2637,-0.2572 -1.8676,-1.1407 0,0 0.1342,-0.7158 -0.1901,-1.398 -0.067,-0.1342 -0.1901,-0.2236 -0.3355,-0.2572 -0.4809,-0.1118 -1.6664,-0.3019 -2.986,0.089 -0.2461,0.078 -0.4026,0.3243 -0.3579,0.5815 0.1007,0.5816 0.4473,1.644 1.7223,2.6058 1.9459,1.4538 4.4286,2.0913 5.8042,2.2702 1.3979,0.179 1.9124,0.1007 1.9459,-0.5256 0.034,-0.6039 -0.3578,-4.0596 -0.3914,-6.1286 1.9571,0.9395 4.3392,0.973 4.3392,0.973 1.6104,2.7176 3.8024,5.5135 3.8024,5.5135 -0.7157,0.8835 -1.1631,2.6281 -1.1631,2.6281 2.0466,1.219 4.1044,1.3867 4.1044,1.3867 z"
     style="isolation:isolate;mix-blend-mode:normal;fill:#000000;stroke-width:1"
     id="path9" />
</svg>
