<?xml version="1.0" encoding="UTF-8" standalone="no"?>
<svg
   viewBox="0 0 48 48"
   version="1.1"
   id="svg35"
   sodipodi:docname="21-Grade.svg"
   inkscape:version="1.3.2 (091e20e, 2023-11-25, custom)"
   xmlns:inkscape="http://www.inkscape.org/namespaces/inkscape"
   xmlns:sodipodi="http://sodipodi.sourceforge.net/DTD/sodipodi-0.dtd"
   xmlns:xlink="http://www.w3.org/1999/xlink"
   xmlns="http://www.w3.org/2000/svg"
   xmlns:svg="http://www.w3.org/2000/svg">
  <sodipodi:namedview
     id="namedview35"
     pagecolor="#ffffff"
     bordercolor="#666666"
     borderopacity="1.0"
     inkscape:showpageshadow="2"
     inkscape:pageopacity="0.0"
     inkscape:pagecheckerboard="0"
     inkscape:deskcolor="#d1d1d1"
     inkscape:zoom="16.2782"
     inkscape:cx="24.0199"
     inkscape:cy="23.9892"
     inkscape:current-layer="svg35" />
  <defs
     id="defs22">
    <radialGradient
       id="radial-gradient"
       cx="-284.89"
       cy="-163.37"
       fx="-284.89"
       fy="-163.37"
       r="8.35"
       gradientTransform="matrix(-0.078175,2.23864,-0.96581,0.436152,-156.95,743.65)"
       gradientUnits="userSpaceOnUse">
      <stop
         offset=".4"
         stop-color="#2c2c2c"
         stop-opacity=".5"
         id="stop1" />
      <stop
         offset=".99"
         stop-color="#2c2c2c"
         stop-opacity="0"
         id="stop2" />
    </radialGradient>
    <linearGradient
       id="linear-gradient"
       x1="26.51"
       y1="27.33"
       x2="17.8"
       y2="10.41"
       gradientUnits="userSpaceOnUse"
       gradientTransform="matrix(1.32176,0,0,1.32058,-7.64051,-7.71491)">
      <stop
         offset="0"
         stop-color="#fff"
         stop-opacity=".1"
         id="stop3" />
      <stop
         offset="1"
         stop-color="#fff8f8"
         id="stop4" />
    </linearGradient>
    <linearGradient
       id="linear-gradient-2"
       x1="27.52"
       y1="20.42"
       x2="17.24"
       y2="30.2"
       gradientTransform="translate(10.42 -6.82) rotate(21.27)"
       gradientUnits="userSpaceOnUse">
      <stop
         offset="0"
         stop-color="#555753"
         id="stop5" />
      <stop
         offset="1"
         stop-color="#2e3436"
         id="stop6" />
    </linearGradient>
    <linearGradient
       id="linear-gradient-3"
       y1="20.42"
       x2="17.24"
       y2="30.2"
       gradientTransform="matrix(1.23158,0.479113,-0.479429,1.23077,-4.32538,-9.95597)"
       xlink:href="#linear-gradient-2" />
    <linearGradient
       id="linear-gradient-4"
       x1="23.54"
       y1="24.08"
       x2="27.64"
       y2="17.25"
       gradientUnits="userSpaceOnUse"
       gradientTransform="matrix(1.32176,0,0,1.32058,-7.64051,-7.71491)">
      <stop
         offset="0"
         stop-color="#fce94f"
         id="stop7" />
      <stop
         offset=".62"
         stop-color="#ef2929"
         id="stop8" />
    </linearGradient>
    <linearGradient
       id="linear-gradient-5"
       x1="15.74"
       y1="22.74"
       x2="17.2"
       y2="29.36"
       gradientUnits="userSpaceOnUse"
       gradientTransform="matrix(1.32176,0,0,1.32058,-7.64051,-7.71491)">
      <stop
         offset="0"
         stop-color="#fce94f"
         id="stop9" />
      <stop
         offset="1"
         stop-color="#23ff0f"
         id="stop10" />
    </linearGradient>
    <linearGradient
       id="linear-gradient-6"
       x1="32.04"
       y1="27.04"
       x2="25.94"
       y2="15.77"
       gradientUnits="userSpaceOnUse"
       gradientTransform="matrix(1.32176,0,0,1.32058,-7.64051,-7.71491)">
      <stop
         offset="0"
         stop-color="#0000fc"
         id="stop11" />
      <stop
         offset="1"
         stop-color="#fa00e7"
         id="stop12" />
    </linearGradient>
    <linearGradient
       id="linear-gradient-7"
       x1="32.23"
       y1="26.94"
       x2="26.13"
       y2="15.67"
       gradientUnits="userSpaceOnUse"
       gradientTransform="matrix(1.32176,0,0,1.32058,-7.64051,-7.71491)">
      <stop
         offset="0"
         stop-color="#0000fc"
         id="stop13" />
      <stop
         offset="1"
         stop-color="#fa00e7"
         id="stop14" />
    </linearGradient>
    <linearGradient
       id="linear-gradient-8"
       x1="22.79"
       y1="12.42"
       x2="19.22"
       y2="12.89"
       gradientUnits="userSpaceOnUse"
       gradientTransform="matrix(1.32176,0,0,1.32058,-7.64051,-7.71491)">
      <stop
         offset=".17"
         stop-color="#fa00e7"
         id="stop15" />
      <stop
         offset="1"
         stop-color="#ef2929"
         id="stop16" />
    </linearGradient>
    <linearGradient
       id="linear-gradient-9"
       x1="14.7"
       y1="17.85"
       x2="17.37"
       y2="15.4"
       gradientUnits="userSpaceOnUse"
       gradientTransform="matrix(1.32176,0,0,1.32058,-7.64051,-7.71491)">
      <stop
         offset="0"
         stop-color="#fce94f"
         id="stop17" />
      <stop
         offset="1"
         stop-color="#ef2929"
         id="stop18" />
    </linearGradient>
    <linearGradient
       id="linear-gradient-10"
       x1="25.83"
       y1="35.81"
       x2="30.77"
       y2="32.4"
       gradientUnits="userSpaceOnUse"
       gradientTransform="matrix(1.32176,0,0,1.32058,-7.64051,-7.71491)">
      <stop
         offset="0"
         stop-color="#22f8fa"
         id="stop19" />
      <stop
         offset="1"
         stop-color="#0000f6"
         id="stop20" />
    </linearGradient>
    <linearGradient
       id="linear-gradient-11"
       x1="23.91"
       y1="35.88"
       x2="18.47"
       y2="30.49"
       gradientUnits="userSpaceOnUse"
       gradientTransform="matrix(1.32176,0,0,1.32058,-7.64051,-7.71491)">
      <stop
         offset=".24"
         stop-color="#22f8fa"
         id="stop21" />
      <stop
         offset="1"
         stop-color="#23ff0f"
         id="stop22" />
    </linearGradient>
    <linearGradient
       inkscape:collect="always"
       xlink:href="#linear-gradient-2"
       id="linearGradient35"
       gradientUnits="userSpaceOnUse"
       gradientTransform="matrix(1.23158,0.479113,-0.479429,1.23077,-4.32538,-9.95597)"
       x1="27.52"
       y1="20.42"
       x2="17.24"
       y2="30.2" />
  </defs>
  <path
     d="M 39.9429,32.2194 C 39.9429,20.6908 33.2019,7.45855 24.888,2.66485 21.1342,0.499098 17.7108,0.433069 15.0805,2.05738 h -0.026 l -1.2292,0.6867 v 0 c -2.5775,2.2582 -3.99174,6.49726 -3.99174,12.09652 0,11.5287 6.74094,24.7609 15.05484,29.5546 3.0401,1.7563 5.8818,2.1261 8.2478,1.347 L 32.9908,45.9799 34.22,45.28 h -0.026 c 3.4894,-1.8092 5.7364,-6.4181 5.7364,-13.0606 z"
     style="isolation:isolate;fill:#3c4346;stroke-width:0.999997"
     id="path22" />
  <path
     d="M 39.9429,32.2194 C 39.9429,20.6908 33.2019,7.45855 24.888,2.66485 21.1342,0.499098 17.7108,0.433069 15.0805,2.05738 h -0.026 l -1.2292,0.6867 v 0 c -2.5775,2.2582 -3.99174,6.49726 -3.99174,12.09652 0,11.5287 6.74094,24.7609 15.05484,29.5546 3.0401,1.7563 5.8818,2.1261 8.2478,1.347 L 32.9908,45.9799 34.22,45.28 h -0.026 c 3.4894,-1.8092 5.7364,-6.4181 5.7364,-13.0606 z"
     style="isolation:isolate;fill:#888a85;stroke-width:0.999997"
     id="path23" />
  <path
     d="M 39.9429,32.2194 C 39.9429,20.6908 33.2019,7.45855 24.888,2.66485 21.1342,0.499098 17.7108,0.433069 15.0805,2.05738 h -0.026 l -1.2292,0.6867 v 0 c -2.5775,2.2582 -3.99174,6.49726 -3.99174,12.09652 0,11.5287 6.74094,24.7609 15.05484,29.5546 3.0401,1.7563 5.8818,2.1261 8.2478,1.347 L 32.9908,45.9799 34.22,45.28 h -0.026 c 3.4894,-1.8092 5.7364,-6.4181 5.7364,-13.0606 z"
     style="isolation:isolate;fill:url(#linear-gradient);stroke-width:0.999997"
     id="path24" />
  <ellipse
     cx="12.8026"
     cy="31.2112"
     rx="13.2424"
     ry="23.7071"
     transform="matrix(0.93199,-0.362483,0.363046,0.931771,0,0)"
     style="isolation:isolate;fill:url(#linearGradient35);stroke-width:0.999995"
     id="ellipse24" />
  <line
     x1="23.2622"
     y1="9.51866"
     x2="23.2622"
     y2="39.3638"
     style="isolation:isolate;fill:none;stroke:#888a85;stroke-width:0.7;stroke-miterlimit:10;stroke-dasharray:none"
     id="line24" />
  <line
     x1="34.0214"
     y1="30.6611"
     x2="12.5163"
     y2="18.2213"
     style="isolation:isolate;fill:none;stroke:#888a85;stroke-width:0.7;stroke-miterlimit:10;stroke-dasharray:none"
     id="line25" />
  <ellipse
     cx="12.8026"
     cy="31.2112"
     rx="1.3216"
     ry="2.37732"
     transform="matrix(0.93199,-0.362483,0.363046,0.931771,0,0)"
     style="isolation:isolate;fill:url(#linear-gradient-3);stroke-width:0.999995"
     id="ellipse25" />
  <ellipse
     cx="12.8026"
     cy="31.2112"
     rx="1.3216"
     ry="2.37732"
     transform="matrix(0.93199,-0.362483,0.363046,0.931771,0,0)"
     style="isolation:isolate;fill:none;stroke:#888a85;stroke-width:0.7;stroke-miterlimit:10;stroke-dasharray:none"
     id="ellipse26" />
  <path
     d="M 23.2622,6.8907 C 16.2701,2.84973 10.5998,7.43214 10.5998,17.1252 c 0,9.6931 5.6703,20.8255 12.6624,24.8665 6.9921,4.041 12.6625,-0.5414 12.6625,-10.2345 0,-9.693 -5.6704,-20.8255 -12.6625,-24.8665 z m 0,29.7923 c -4.8773,-2.8128 -8.8293,-10.5779 -8.8293,-17.326 0,-6.7482 3.952,-9.95719 8.8293,-7.1444 4.8773,2.8129 8.8294,10.5779 8.8294,17.3261 0,6.7481 -3.9521,9.9571 -8.8294,7.1443 z"
     style="isolation:isolate;fill:url(#linear-gradient-4);stroke-width:0.999997"
     id="path26" />
  <path
     d="m 14.4725,20.0701 c -1.2689,-0.3169 -2.5377,-0.6339 -3.7934,-1.2281 0.2643,3.9617 1.401,8.0687 3.1326,11.7795 1.0045,-0.6603 1.9826,-1.2941 2.8153,-1.994 -1.2425,-2.7072 -2.0355,-5.705 -2.1545,-8.5706 z"
     style="isolation:isolate;fill:url(#linear-gradient-5);stroke-width:0.999997"
     id="path27" />
  <path
     d="m 35.885,30.6744 c -0.185,-4.49 -1.5332,-9.2045 -3.6216,-13.3379 -1.1103,0.4226 -2.1148,0.9244 -2.855,1.8752 1.6126,3.1034 2.6303,6.7218 2.67,10.1025 1.4803,0.1056 2.5642,0.6602 3.8066,1.3602 z"
     style="isolation:isolate;fill:url(#linear-gradient-6);stroke-width:0.999997"
     id="path28" />
  <path
     d="m 32.2634,17.3365 c -1.1103,0.4226 -2.1016,0.9112 -2.855,1.8752 -1.52,-2.9449 -3.5819,-5.4276 -5.8554,-6.8274 0,-1.6375 0.053,-3.80325 0.053,-5.2823 3.3969,2.08651 6.4502,5.8238 8.6575,10.2345 z"
     style="isolation:isolate;fill:url(#linear-gradient-7);stroke-width:0.999997"
     id="path29" />
  <path
     d="m 23.6059,7.102 c 0,1.47905 -0.04,3.6448 -0.053,5.2823 -0.093,-0.079 -0.185,-0.132 -0.2775,-0.1849 -2.2074,-1.2677 -4.2032,-1.3073 -5.7497,-0.3565 -0.8988,-1.7828 -1.7844,-3.56559 -2.6832,-5.34837 2.247,-1.47905 5.1945,-1.47905 8.4329,0.39617 0.1057,0.066 0.2114,0.14527 0.3304,0.2113 z"
     style="isolation:isolate;fill:url(#linear-gradient-8);stroke-width:0.999997"
     id="path30" />
  <path
     d="m 10.613,17.1252 c 0,0.5678 0.026,1.1357 0.066,1.7035 1.2689,0.5943 2.5378,0.9112 3.7934,1.2282 0,-0.2377 -0.026,-0.4886 -0.026,-0.7263 0,-3.7109 1.2028,-6.3388 3.0797,-7.5009 C 16.627,10.0469 15.7414,8.26411 14.8426,6.48132 12.252,8.19808 10.5998,11.9089 10.5998,17.112 Z"
     style="isolation:isolate;fill:url(#linear-gradient-9);stroke-width:0.999997"
     id="path31" />
  <path
     d="m 35.9247,31.744 c 0,3.3675 -0.6873,6.1011 -1.8769,8.082 -2.2206,3.7372 -6.2123,4.8069 -10.7723,2.1657 -0.053,-0.026 -0.093,-0.066 -0.1454,-0.092 0.3304,-1.7036 0.4361,-3.2883 0.4626,-5.0578 2.8021,1.479 5.2606,0.9376 6.807,-1.1093 1.0575,-1.3998 1.6919,-3.5128 1.6919,-6.1935 v -0.2245 c 1.4671,0.1056 2.5642,0.647 3.7934,1.3602 0.013,0.3565 0.04,0.7131 0.04,1.0696 z"
     style="isolation:isolate;fill:url(#linear-gradient-10);stroke-width:0.999997"
     id="path32" />
  <path
     d="m 23.2622,36.683 c -2.6567,-1.5319 -5.0359,-4.5428 -6.6484,-8.0423 -0.8195,0.6867 -1.7976,1.3337 -2.8154,1.994 2.2867,4.8994 5.6175,9.0856 9.3184,11.2778 0.3305,-1.7036 0.4362,-3.3015 0.4627,-5.0578 -0.1058,-0.053 -0.2115,-0.1057 -0.3173,-0.1585 z"
     style="isolation:isolate;fill:url(#linear-gradient-11);stroke-width:0.999997"
     id="path33" />
  <path
     d="M 40.2204,32.3647 C 40.2204,20.6379 33.3605,7.16803 24.9012,2.28188 21.5307,0.340628 18.4114,0.0501 15.8736,1.14618 15.7018,1.21221 15.0277,1.55556 14.3536,1.93853 13.6795,2.3215 12.9789,2.7705 12.8468,2.86294 9.81994,4.98907 7.91661,9.43942 7.91661,15.6065 c 0,11.7268 6.85989,25.1967 15.31919,30.0828 3.7802,2.1922 7.2432,2.2714 9.9132,0.6603 l 1.216,-0.6999 c 3.5952,-2.0073 5.8422,-6.5236 5.8422,-13.285 z"
     style="isolation:isolate;fill:none;stroke:#2e3436;stroke-width:0.699998px;stroke-miterlimit:10"
     id="path34" />
</svg>
