<?xml version="1.0" encoding="UTF-8" standalone="no"?>
<svg
   viewBox="0 0 48 48"
   version="1.1"
   id="svg166"
   sodipodi:docname="13-Contact Sheet.svg"
   inkscape:version="1.3.2 (091e20e, 2023-11-25, custom)"
   xmlns:inkscape="http://www.inkscape.org/namespaces/inkscape"
   xmlns:sodipodi="http://sodipodi.sourceforge.net/DTD/sodipodi-0.dtd"
   xmlns:xlink="http://www.w3.org/1999/xlink"
   xmlns="http://www.w3.org/2000/svg"
   xmlns:svg="http://www.w3.org/2000/svg">
  <sodipodi:namedview
     id="namedview166"
     pagecolor="#ffffff"
     bordercolor="#666666"
     borderopacity="1.0"
     inkscape:showpageshadow="2"
     inkscape:pageopacity="0.0"
     inkscape:pagecheckerboard="0"
     inkscape:deskcolor="#d1d1d1"
     inkscape:zoom="16.2782"
     inkscape:cx="24.0199"
     inkscape:cy="23.9892"
     inkscape:current-layer="svg166" />
  <defs
     id="defs6">
    <radialGradient
       id="radial-gradient"
       cx="-282.01"
       cy="-85.95"
       fx="-282.01"
       fy="-85.95"
       r="8.35"
       gradientTransform="matrix(-0.078175,2.23864,-0.96581,0.436152,-82.13,703.47)"
       gradientUnits="userSpaceOnUse">
      <stop
         offset=".4"
         stop-color="#2c2c2c"
         stop-opacity=".5"
         id="stop1" />
      <stop
         offset=".99"
         stop-color="#2c2c2c"
         stop-opacity="0"
         id="stop2" />
    </radialGradient>
    <linearGradient
       id="linear-gradient"
       x1="11.16"
       y1="35.11"
       x2="11.16"
       y2="27.5"
       gradientTransform="translate(9.22 -17.36) rotate(30.13) scale(.88 .86) skewX(29.6)"
       gradientUnits="userSpaceOnUse">
      <stop
         offset="0"
         stop-color="#729fcf"
         id="stop3" />
      <stop
         offset="1"
         stop-color="#eeeeec"
         id="stop4" />
    </linearGradient>
    <linearGradient
       id="linear-gradient-2"
       x1="19.34"
       y1="35.11"
       x2="19.34"
       y2="27.5"
       xlink:href="#linear-gradient" />
    <linearGradient
       id="linear-gradient-3"
       x1="27.51"
       y1="35.11"
       x2="27.51"
       y2="27.5"
       xlink:href="#linear-gradient" />
    <linearGradient
       id="linear-gradient-4"
       y1="43.77"
       y2="36.16"
       xlink:href="#linear-gradient" />
    <linearGradient
       id="linear-gradient-5"
       x1="19.34"
       y1="43.77"
       x2="19.34"
       y2="36.16"
       xlink:href="#linear-gradient" />
    <linearGradient
       id="linear-gradient-6"
       x1="27.51"
       y1="43.77"
       x2="27.51"
       y2="36.16"
       xlink:href="#linear-gradient" />
    <linearGradient
       id="linear-gradient-7"
       x1="11.16"
       y1="26.45"
       x2="11.16"
       y2="18.84"
       xlink:href="#linear-gradient" />
    <linearGradient
       id="linear-gradient-8"
       x1="19.34"
       y1="26.45"
       x2="19.34"
       y2="18.84"
       xlink:href="#linear-gradient" />
    <linearGradient
       id="linear-gradient-9"
       x1="23.42"
       y1="23.63"
       x2="31.59"
       y2="23.63"
       xlink:href="#linear-gradient" />
    <linearGradient
       id="linear-gradient-10"
       x1="27.51"
       y1="26.45"
       x2="27.51"
       y2="18.84"
       xlink:href="#linear-gradient" />
    <linearGradient
       id="linear-gradient-11"
       x1="11.16"
       y1="21.91"
       x2="11.16"
       y2="26.8"
       gradientTransform="translate(9.22 -17.36) rotate(30.13) scale(.88 .86) skewX(29.6)"
       gradientUnits="userSpaceOnUse">
      <stop
         offset="0"
         stop-color="#00255d"
         stop-opacity="0"
         id="stop5" />
      <stop
         offset="1"
         stop-color="#00255d"
         id="stop6" />
    </linearGradient>
    <linearGradient
       id="linear-gradient-12"
       x1="19.34"
       y1="21.84"
       x2="19.34"
       y2="26.43"
       xlink:href="#linear-gradient-11" />
    <linearGradient
       id="linear-gradient-13"
       x1="27.85"
       x2="27.85"
       y2="26.8"
       xlink:href="#linear-gradient-11" />
    <linearGradient
       id="linear-gradient-14"
       x1="10.47"
       y1="30.53"
       x2="10.47"
       y2="35.2"
       xlink:href="#linear-gradient-11" />
    <linearGradient
       id="linear-gradient-15"
       x1="19.34"
       y1="30.53"
       x2="19.34"
       y2="35.2"
       xlink:href="#linear-gradient-11" />
    <linearGradient
       id="linear-gradient-16"
       x1="27.82"
       y1="30.53"
       x2="27.82"
       y2="35.2"
       xlink:href="#linear-gradient-11" />
    <linearGradient
       id="linear-gradient-17"
       x1="11.41"
       y1="39.55"
       x2="11.41"
       y2="43.56"
       xlink:href="#linear-gradient-11" />
    <linearGradient
       id="linear-gradient-18"
       x1="19.72"
       y1="39.55"
       x2="19.72"
       y2="43.56"
       xlink:href="#linear-gradient-11" />
    <linearGradient
       id="linear-gradient-19"
       x1="27.51"
       y1="39.55"
       x2="27.51"
       y2="43.56"
       xlink:href="#linear-gradient-11" />
    <linearGradient
       inkscape:collect="always"
       xlink:href="#linear-gradient"
       id="linearGradient166"
       gradientUnits="userSpaceOnUse"
       gradientTransform="matrix(0.761102,0.441728,6.77402e-4,0.994741,9.22,-17.36)"
       x1="11.16"
       y1="35.11"
       x2="11.16"
       y2="27.5" />
    <linearGradient
       inkscape:collect="always"
       xlink:href="#linear-gradient-11"
       id="linearGradient167"
       gradientUnits="userSpaceOnUse"
       gradientTransform="matrix(0.761102,0.441728,6.77402e-4,0.994741,9.22,-17.36)"
       x1="11.16"
       y1="21.91"
       x2="11.16"
       y2="26.8" />
  </defs>
  <g
     id="shadow"
     style="opacity:0.45;isolation:isolate;mix-blend-mode:multiply;stroke-width:0.802978"
     transform="matrix(1.40903,0,0,1.10071,-8.15619,-3.79993)">
    <ellipse
       cx="22.71"
       cy="35.69"
       rx="9.45"
       ry="18.06"
       transform="rotate(-67.07,22.7086,35.6914)"
       style="fill:url(#radial-gradient);stroke-width:0.802978"
       id="ellipse6" />
  </g>
  <g
     id="ART"
     style="isolation:isolate;stroke-width:0.834678"
     transform="matrix(1.19918,0,0,1.19695,-7.85792,-4.1894)">
    <g
       id="g165"
       style="stroke-width:0.834678">
      <g
         id="g8"
         style="stroke-width:0.834678">
        <polygon
           points="14.63,14.65 20.88,18.28 20.88,25.13 14.63,21.5 "
           style="fill:url(#linearGradient166);stroke-width:0.834678"
           id="polygon6" />
        <polygon
           points="20.88,18.28 27.12,21.9 27.12,28.76 20.88,25.13 "
           style="fill:url(#linear-gradient-2);stroke-width:0.834678"
           id="polygon7" />
        <polygon
           points="27.13,28.76 27.13,21.9 33.37,25.53 33.37,32.38 "
           style="fill:url(#linear-gradient-3);stroke-width:0.834678"
           id="polygon8" />
      </g>
      <g
         id="g11"
         style="stroke-width:0.834678">
        <polygon
           points="14.63,23.31 20.88,26.94 20.88,33.79 14.63,30.17 "
           style="fill:url(#linear-gradient-4);stroke-width:0.834678"
           id="polygon9" />
        <polygon
           points="20.88,26.94 27.12,30.56 27.12,37.42 20.88,33.79 "
           style="fill:url(#linear-gradient-5);stroke-width:0.834678"
           id="polygon10" />
        <polygon
           points="27.13,37.42 27.13,30.56 33.37,34.19 33.37,41.05 "
           style="fill:url(#linear-gradient-6);stroke-width:0.834678"
           id="polygon11" />
      </g>
      <g
         id="g15"
         style="stroke-width:0.834678">
        <g
           id="g14"
           style="stroke-width:0.834678">
          <polygon
             points="20.88,16.47 14.63,12.84 14.63,5.99 20.88,9.61 "
             style="fill:url(#linear-gradient-7);stroke-width:0.834678"
             id="polygon12" />
          <polygon
             points="27.12,20.09 20.88,16.47 20.88,9.61 27.12,13.24 "
             style="fill:url(#linear-gradient-8);stroke-width:0.834678"
             id="polygon13" />
          <polygon
             points="33.37,23.72 27.12,20.09 27.12,13.24 33.37,16.86 "
             style="fill:url(#linear-gradient-9);stroke-width:0.834678"
             id="polygon14" />
        </g>
        <polygon
           points="27.13,20.1 27.13,13.24 33.37,16.86 33.37,23.72 "
           style="fill:url(#linear-gradient-10);stroke-width:0.834678"
           id="polygon15" />
      </g>
      <g
         id="g34"
         style="stroke-width:0.834678">
        <path
           d="m 19.46,13.69 v 1.96 L 16.04,13.66 V 11.7 c 0,-0.59 0.37,-0.86 0.82,-0.6 0.13,0.07 0.29,0.06 0.4,0.04 L 17.32,10.9 V 10.75 C 17.19,10.55 17.09,10.31 17.04,10.07 16.94,9.98 16.86,9.82 16.86,9.68 V 9.56 c 0,-0.12 0.06,-0.19 0.13,-0.2 V 9.31 c 0,-0.56 0.34,-0.8 0.76,-0.56 0.38,0.22 0.59,0.29 0.73,0.26 0,0 0.17,0.56 -0.01,0.83 0.03,0.11 0.05,0.23 0.05,0.36 v 0.05 c 0.08,0.09 0.13,0.22 0.13,0.34 v 0.12 c 0,0.14 -0.08,0.21 -0.18,0.19 -0.05,0.18 -0.16,0.29 -0.29,0.34 v 0.16 l 0.08,0.32 c 0.09,0.13 0.26,0.34 0.39,0.41 0.45,0.26 0.82,0.96 0.82,1.55 z"
           style="fill:#204a87;stroke-width:0.834678"
           id="path15" />
        <path
           d="m 26.27,14.03 c 0,0 -0.03,-0.08 -0.05,-0.12 0.03,-0.13 0.05,-0.24 0.05,-0.32 0,-0.07 -0.04,-0.2 -0.08,-0.27 -0.04,-0.06 -0.11,-0.13 -0.18,-0.14 -0.06,0 -0.13,0.02 -0.16,0.14 -0.1,0.48 -0.64,1.44 -1.04,1.84 -0.08,-0.26 -0.18,-0.63 -0.22,-1.01 -0.06,-0.67 -0.4,-0.92 -0.48,-0.98 -0.09,-0.07 -0.11,0 -0.11,0 0,0 -0.02,-0.1 -0.11,-0.13 -0.09,-0.03 -0.42,-0.18 -0.48,0.42 -0.04,0.34 -0.14,0.6 -0.22,0.76 -0.4,-0.86 -0.94,-2.45 -1.04,-3.04 -0.03,-0.15 -0.09,-0.26 -0.16,-0.32 -0.07,-0.07 -0.14,-0.09 -0.18,-0.08 -0.04,0.01 -0.08,0.1 -0.08,0.17 0,0.08 0.02,0.22 0.05,0.38 -0.02,0.02 -0.03,0.04 -0.05,0.06 0,0 0.26,1.25 0.61,2.19 v 0.02 c 0.04,0.08 0.06,0.17 0.09,0.24 0.21,0.57 0.36,0.91 0.46,1.1 0.1,0.2 0.17,0.4 0.2,0.6 0.07,0.41 0.16,1.12 0.16,1.91 v 0.39 l 1.51,0.88 v -0.39 c 0,-0.79 0.09,-1.39 0.16,-1.72 0.03,-0.17 0.1,-0.29 0.2,-0.37 0.1,-0.08 0.25,-0.25 0.46,-0.57 0.03,-0.04 0.05,-0.09 0.08,-0.14 v 0 c 0.35,-0.53 0.61,-1.49 0.61,-1.49 z"
           style="fill:#204a87;stroke-width:0.834678"
           id="path16" />
        <path
           d="m 31.88,18.04 c -0.43,-0.07 -0.77,-0.12 -1.03,-0.16 -0.18,-0.31 -0.47,-0.55 -0.45,-0.9 0.03,-0.68 -0.14,-0.92 -0.25,-1.05 -0.12,-0.14 -0.18,-0.08 -0.18,-0.08 0,0 0,-0.22 -0.32,-0.49 -0.32,-0.27 -0.68,-0.19 -0.75,0.23 -0.08,0.41 0.09,0.91 -0.05,1.5 -0.08,0.34 0.02,0.69 0.11,0.93 -0.05,0.02 -0.1,0.03 -0.16,0.05 -0.28,0.09 -0.46,0.74 -0.67,1.37 -0.09,0.27 -0.3,0.63 -0.49,0.96 l 0.93,0.54 c 0.18,-0.31 0.38,-0.71 0.52,-1.12 0,0 0.32,0.25 0.55,1.07 0.07,0.25 0.13,0.51 0.18,0.78 l 1.76,1.02 c -0.06,-0.65 -0.16,-1.38 -0.27,-2.18 -0.02,-0.15 0.19,-0.11 0.1,-0.51 -0.05,-0.25 -0.23,-0.47 -0.38,-0.74 -0.07,-0.12 -0.05,-0.37 0.07,-0.33 0.23,0.06 0.64,0.15 1.13,0.16 0.39,0.01 0.82,-0.09 1.14,-0.19 v -1.01 c -0.39,0.12 -0.97,0.23 -1.49,0.16 z"
           style="fill:#204a87;stroke-width:0.834678"
           id="path17" />
        <path
           d="m 19.46,13.69 v 1.96 L 16.04,13.66 V 11.7 c 0,-0.59 0.37,-0.86 0.82,-0.6 0.13,0.07 0.29,0.06 0.4,0.04 L 17.32,10.9 V 10.75 C 17.19,10.55 17.09,10.31 17.04,10.07 16.94,9.98 16.86,9.82 16.86,9.68 V 9.56 c 0,-0.12 0.06,-0.19 0.13,-0.2 V 9.31 c 0,-0.56 0.34,-0.8 0.76,-0.56 0.38,0.22 0.59,0.29 0.73,0.26 0,0 0.17,0.56 -0.01,0.83 0.03,0.11 0.05,0.23 0.05,0.36 v 0.05 c 0.08,0.09 0.13,0.22 0.13,0.34 v 0.12 c 0,0.14 -0.08,0.21 -0.18,0.19 -0.05,0.18 -0.16,0.29 -0.29,0.34 v 0.16 l 0.08,0.32 c 0.09,0.13 0.26,0.34 0.39,0.41 0.45,0.26 0.82,0.96 0.82,1.55 z"
           style="fill:url(#linearGradient167);stroke-width:0.834678"
           id="path18" />
        <path
           d="m 26.27,14.03 c 0,0 -0.03,-0.08 -0.05,-0.12 0.03,-0.13 0.05,-0.24 0.05,-0.32 0,-0.07 -0.04,-0.2 -0.08,-0.27 -0.04,-0.06 -0.11,-0.13 -0.18,-0.14 -0.06,0 -0.13,0.02 -0.16,0.14 -0.1,0.48 -0.64,1.44 -1.04,1.84 -0.08,-0.26 -0.18,-0.63 -0.22,-1.01 -0.06,-0.67 -0.4,-0.92 -0.48,-0.98 -0.09,-0.07 -0.11,0 -0.11,0 0,0 -0.02,-0.1 -0.11,-0.13 -0.09,-0.03 -0.42,-0.18 -0.48,0.42 -0.04,0.34 -0.14,0.6 -0.22,0.76 -0.4,-0.86 -0.94,-2.45 -1.04,-3.04 -0.03,-0.15 -0.09,-0.26 -0.16,-0.32 -0.07,-0.07 -0.14,-0.09 -0.18,-0.08 -0.04,0.01 -0.08,0.1 -0.08,0.17 0,0.08 0.02,0.22 0.05,0.38 -0.02,0.02 -0.03,0.04 -0.05,0.06 0,0 0.26,1.25 0.61,2.19 v 0.02 c 0.04,0.08 0.06,0.17 0.09,0.24 0.21,0.57 0.36,0.91 0.46,1.1 0.1,0.2 0.17,0.4 0.2,0.6 0.07,0.41 0.16,1.12 0.16,1.91 v 0.39 l 1.51,0.88 v -0.39 c 0,-0.79 0.09,-1.39 0.16,-1.72 0.03,-0.17 0.1,-0.29 0.2,-0.37 0.1,-0.08 0.25,-0.25 0.46,-0.57 0.03,-0.04 0.05,-0.09 0.08,-0.14 v 0 c 0.35,-0.53 0.61,-1.49 0.61,-1.49 z"
           style="fill:url(#linear-gradient-12);stroke-width:0.834678"
           id="path19" />
        <path
           d="m 31.88,18.04 c -0.43,-0.07 -0.77,-0.12 -1.03,-0.16 -0.18,-0.31 -0.47,-0.55 -0.45,-0.9 0.03,-0.68 -0.14,-0.92 -0.25,-1.05 -0.12,-0.14 -0.18,-0.08 -0.18,-0.08 0,0 0,-0.22 -0.32,-0.49 -0.32,-0.27 -0.68,-0.19 -0.75,0.23 -0.08,0.41 0.09,0.91 -0.05,1.5 -0.08,0.34 0.02,0.69 0.11,0.93 -0.05,0.02 -0.1,0.03 -0.16,0.05 -0.28,0.09 -0.46,0.74 -0.67,1.37 -0.09,0.27 -0.3,0.63 -0.49,0.96 l 0.93,0.54 c 0.18,-0.31 0.38,-0.71 0.52,-1.12 0,0 0.32,0.25 0.55,1.07 0.07,0.25 0.13,0.51 0.18,0.78 l 1.76,1.02 c -0.06,-0.65 -0.16,-1.38 -0.27,-2.18 -0.02,-0.15 0.19,-0.11 0.1,-0.51 -0.05,-0.25 -0.23,-0.47 -0.38,-0.74 -0.07,-0.12 -0.05,-0.37 0.07,-0.33 0.23,0.06 0.64,0.15 1.13,0.16 0.39,0.01 0.82,-0.09 1.14,-0.19 v -1.01 c -0.39,0.12 -0.97,0.23 -1.49,0.16 z"
           style="fill:url(#linear-gradient-13);stroke-width:0.834678"
           id="path20" />
        <path
           d="m 19.8,23.87 c 0,0 0.02,-0.09 0.01,-0.16 0,-0.01 0,-0.03 0,-0.04 0,-0.03 0,-0.05 -0.01,-0.09 0,-0.03 -0.02,-0.06 -0.02,-0.09 0,-0.02 0,-0.04 -0.01,-0.07 0,0 0,-0.01 0,-0.02 -0.04,-0.15 -0.1,-0.31 -0.16,-0.47 0.02,-0.03 0.04,-0.07 0.02,-0.11 -0.05,-0.12 -0.33,-0.71 -0.39,-0.95 -0.04,-0.17 -0.1,-0.35 -0.2,-0.58 -0.14,-0.3 -0.33,-0.45 -0.49,-0.7 v 0 c -0.12,-0.21 -0.27,-0.44 -0.29,-0.54 v 0 l 0.13,-0.36 c 0,0 0.06,0.06 0.09,0.07 0.3,0.18 0.44,-0.06 0.45,-0.45 V 18.8 c 0,0 0,-0.07 -0.01,-0.11 v 0 C 19.21,18.56 19.01,18 19.01,18 c 0,0 -0.06,0 -0.2,-0.08 -0.14,-0.08 -0.38,-0.32 -0.54,-0.35 -0.15,-0.03 -0.16,0.11 -0.16,0.11 v 0 c 0,0 -0.12,-0.12 -0.18,-0.1 -0.06,0.02 -0.16,0.12 -0.15,0.37 0,0.16 0.02,0.3 0.03,0.38 -0.07,0 -0.12,0.06 -0.11,0.17 v 0.1 c 0.02,0.09 0.08,0.17 0.14,0.23 -0.03,0.21 -0.07,0.39 -0.13,0.53 -0.02,0.02 -0.17,-0.02 -0.35,-0.14 -0.21,-0.15 -0.33,-0.43 -0.57,-0.69 -0.25,-0.27 -0.74,-0.6 -1.14,-1.11 -0.4,-0.51 -1.01,-1.58 -1.01,-1.58 v 0.84 c 0,0 0.42,0.84 1.01,1.55 0.09,0.11 0.17,0.21 0.25,0.31 -0.02,0.07 -0.04,0.22 0.01,0.33 0.07,0.16 0.49,0.2 0.79,0.91 0.03,0.13 0.08,0.4 0.08,0.88 v 0 c 0,0.52 0.01,1.01 -0.06,1.07 -0.14,0.12 -0.42,0.74 -0.42,0.74 l 1.63,0.95 c 0,0 0.13,-0.25 0.28,-0.57 0.25,0.27 0.58,0.61 0.86,0.8 0.48,0.34 0.67,0.34 0.72,0.27 v 0 c 0,0 0,-0.01 0.01,-0.02 0,0 0,-0.02 0,-0.02 z m -1.33,-1.62 c 0.05,-0.12 0.1,-0.25 0.13,-0.37 0.07,0.22 0.16,0.5 0.28,0.78 -0.11,-0.07 -0.27,-0.17 -0.45,-0.3 0.02,-0.03 0.03,-0.07 0.05,-0.1 z"
           style="fill:#204a87;stroke-width:0.834678"
           id="path21" />
        <path
           d="M 26.52,24.14 C 26.53,24.02 26.49,23.85 26.29,23.56 26.02,23.17 25.24,22.42 24.62,21.95 24.59,21.51 24.33,21.04 24,20.84 23.97,20.82 23.94,20.82 23.91,20.81 h 0.02 c -0.34,-0.23 -0.51,-0.38 -0.6,-0.55 0,0 -0.14,0.32 0.09,0.74 -0.02,0.07 -0.03,0.15 -0.04,0.22 -0.62,-0.25 -1.39,-0.4 -1.67,-0.33 -0.2,0.06 -0.24,0.18 -0.23,0.31 h -0.01 c 0.09,0.5 0.71,1.38 1.08,1.89 0.3,0.31 0.58,1.71 0.58,2.23 v 0.06 c -0.01,0.27 -0.02,0.72 -0.01,1.04 l 1.77,1.03 c 0,-0.32 0,-0.77 -0.02,-1.06 -0.03,-0.48 0.26,-1.66 0.58,-1.62 0.38,-0.07 1,-0.23 1.08,-0.63 z M 23.61,22.7 c -0.18,-0.15 -0.37,-0.3 -0.5,-0.37 -0.16,-0.08 -0.26,-0.08 -0.36,-0.12 -0.14,-0.22 -0.28,-0.34 -0.39,-0.41 0.24,-0.03 0.53,-0.12 0.98,0.03 0.02,0.04 0.04,0.06 0.06,0.08 0.04,0.18 0.11,0.36 0.21,0.51 v 0.27 z m 1.64,0.96 c -0.11,-0.08 -0.2,-0.19 -0.36,-0.3 -0.13,-0.07 -0.32,-0.15 -0.5,-0.21 v -0.27 c 0.1,-0.04 0.17,-0.14 0.21,-0.27 0.03,0 0.05,0.01 0.07,0 0.45,0.37 0.73,0.78 0.97,1.1 -0.11,-0.06 -0.24,-0.1 -0.38,-0.04 z"
           style="fill:#204a87;stroke-width:0.834678"
           id="path22" />
        <path
           d="m 32.63,31.03 c 0,0 -0.57,-0.47 -1.13,-1.27 -0.02,0.05 -0.06,0.07 -0.12,-0.02 -0.09,-0.12 -0.18,-0.29 -0.24,-0.45 0.07,0.59 0.11,1.23 0.11,1.87 l -1.79,-1.04 c -0.04,-0.3 -0.09,-0.68 -0.16,-1.06 -0.01,0.13 -0.03,0.3 -0.05,0.42 -0.04,0.24 0,0.44 -0.08,0.42 -0.04,0 -0.12,-0.04 -0.2,-0.08 0,0 0,0 0,0 l -0.71,-0.41 c 0.16,-0.4 0.19,-0.86 0.25,-1.22 0.09,-0.54 0.28,-0.58 0.5,-0.69 0.29,-0.12 0.31,-0.43 0.31,-0.52 v -0.02 l -0.14,-0.58 c 0,0 -0.05,-0.02 -0.08,-0.04 -0.38,-0.22 -0.55,-0.71 -0.55,-1.2 v -0.22 c -0.1,-0.04 -0.18,0 -0.18,0 0,0 -0.08,-0.36 -0.05,-0.63 0.03,-0.28 0.22,-0.71 0.5,-0.63 0.14,0.05 0.22,0.13 0.27,0.2 0.05,-0.03 0.14,-0.02 0.29,0.08 0.29,0.2 0.6,0.71 0.7,1.11 0.1,0.4 0.04,1.02 -0.05,1.18 -0.04,0.07 -0.09,0.12 -0.13,0.17 0,0.03 0,0.06 0.01,0.08 L 30,26.82 c 0.06,0.01 0.28,-0.33 0.59,-0.15 0.14,0.08 0.31,0.28 0.48,0.68 0.23,0.44 0.43,0.81 0.53,0.88 0.07,0.06 0.09,0.27 0.08,0.48 0.09,0.2 0.18,0.37 0.24,0.51 0,-0.07 0,-0.14 0,-0.22 -0.02,-0.5 -0.11,-1.14 -0.16,-1.44 -0.01,-0.11 -0.06,-0.21 -0.06,-0.3 v -0.02 c 0,-0.21 0.01,-0.27 0,-0.44 -0.01,-0.16 -0.03,-0.27 0.03,-0.24 0.06,0.03 0.11,0.18 0.11,0.32 0,0.04 0,0.08 0,0.12 0.03,-0.03 0.05,-0.04 0.07,-0.06 0.01,-0.04 0.02,-0.09 0.02,-0.14 0,-0.12 -0.03,-0.28 -0.09,-0.41 -0.06,-0.13 -0.19,-0.37 -0.14,-0.39 0.04,-0.02 0.09,0.05 0.14,0.14 0,-0.1 0.04,-0.13 0.09,-0.02 0.05,0.09 0.23,0.57 0.29,0.75 0.05,0.18 -0.1,0.54 -0.14,0.62 -0.03,0.08 -0.03,0.13 -0.03,0.13 0,0 0.13,0.81 0.38,1.64 0.24,0.83 0.4,1.84 0.2,1.74 z"
           style="fill:#204a87;stroke-width:0.834678"
           id="path23" />
        <path
           d="m 32.63,31.03 c 0,0 -0.57,-0.47 -1.13,-1.27 -0.02,0.05 -0.06,0.07 -0.12,-0.02 -0.09,-0.12 -0.18,-0.29 -0.24,-0.45 0.07,0.59 0.11,1.23 0.11,1.87 l -1.79,-1.04 c -0.04,-0.3 -0.09,-0.68 -0.16,-1.06 -0.01,0.13 -0.03,0.3 -0.05,0.42 -0.04,0.24 0,0.44 -0.08,0.42 -0.04,0 -0.12,-0.04 -0.2,-0.08 0,0 0,0 0,0 l -0.71,-0.41 c 0.16,-0.4 0.19,-0.86 0.25,-1.22 0.09,-0.54 0.28,-0.58 0.5,-0.69 0.29,-0.12 0.31,-0.43 0.31,-0.52 v -0.02 l -0.14,-0.58 c 0,0 -0.05,-0.02 -0.08,-0.04 -0.38,-0.22 -0.55,-0.71 -0.55,-1.2 v -0.22 c -0.1,-0.04 -0.18,0 -0.18,0 0,0 -0.08,-0.36 -0.05,-0.63 0.03,-0.28 0.22,-0.71 0.5,-0.63 0.14,0.05 0.22,0.13 0.27,0.2 0.05,-0.03 0.14,-0.02 0.29,0.08 0.29,0.2 0.6,0.71 0.7,1.11 0.1,0.4 0.04,1.02 -0.05,1.18 -0.04,0.07 -0.09,0.12 -0.13,0.17 0,0.03 0,0.06 0.01,0.08 L 30,26.82 c 0.06,0.01 0.28,-0.33 0.59,-0.15 0.14,0.08 0.31,0.28 0.48,0.68 0.23,0.44 0.43,0.81 0.53,0.88 0.07,0.06 0.09,0.27 0.08,0.48 0.09,0.2 0.18,0.37 0.24,0.51 0,-0.07 0,-0.14 0,-0.22 -0.02,-0.5 -0.11,-1.14 -0.16,-1.44 -0.01,-0.11 -0.06,-0.21 -0.06,-0.3 v -0.02 c 0,-0.21 0.01,-0.27 0,-0.44 -0.01,-0.16 -0.03,-0.27 0.03,-0.24 0.06,0.03 0.11,0.18 0.11,0.32 0,0.04 0,0.08 0,0.12 0.03,-0.03 0.05,-0.04 0.07,-0.06 0.01,-0.04 0.02,-0.09 0.02,-0.14 0,-0.12 -0.03,-0.28 -0.09,-0.41 -0.06,-0.13 -0.19,-0.37 -0.14,-0.39 0.04,-0.02 0.09,0.05 0.14,0.14 0,-0.1 0.04,-0.13 0.09,-0.02 0.05,0.09 0.23,0.57 0.29,0.75 0.05,0.18 -0.1,0.54 -0.14,0.62 -0.03,0.08 -0.03,0.13 -0.03,0.13 0,0 0.13,0.81 0.38,1.64 0.24,0.83 0.4,1.84 0.2,1.74 z"
           style="fill:#204a87;stroke-width:0.834678"
           id="path24" />
        <path
           d="m 19.8,23.87 c 0,0 0.02,-0.09 0.01,-0.16 0,-0.01 0,-0.03 0,-0.04 0,-0.03 0,-0.05 -0.01,-0.09 0,-0.03 -0.02,-0.06 -0.02,-0.09 0,-0.02 0,-0.04 -0.01,-0.07 0,0 0,-0.01 0,-0.02 -0.04,-0.15 -0.1,-0.31 -0.16,-0.47 0.02,-0.03 0.04,-0.07 0.02,-0.11 -0.05,-0.12 -0.33,-0.71 -0.39,-0.95 -0.04,-0.17 -0.1,-0.35 -0.2,-0.58 -0.14,-0.3 -0.33,-0.45 -0.49,-0.7 v 0 c -0.12,-0.21 -0.27,-0.44 -0.29,-0.54 v 0 l 0.13,-0.36 c 0,0 0.06,0.06 0.09,0.07 0.3,0.18 0.44,-0.06 0.45,-0.45 V 18.8 c 0,0 0,-0.07 -0.01,-0.11 v 0 C 19.21,18.56 19.01,18 19.01,18 c 0,0 -0.06,0 -0.2,-0.08 -0.14,-0.08 -0.38,-0.32 -0.54,-0.35 -0.15,-0.03 -0.16,0.11 -0.16,0.11 v 0 c 0,0 -0.12,-0.12 -0.18,-0.1 -0.06,0.02 -0.16,0.12 -0.15,0.37 0,0.16 0.02,0.3 0.03,0.38 -0.07,0 -0.12,0.06 -0.11,0.17 v 0.1 c 0.02,0.09 0.08,0.17 0.14,0.23 -0.03,0.21 -0.07,0.39 -0.13,0.53 -0.02,0.02 -0.17,-0.02 -0.35,-0.14 -0.21,-0.15 -0.33,-0.43 -0.57,-0.69 -0.25,-0.27 -0.74,-0.6 -1.14,-1.11 -0.4,-0.51 -1.01,-1.58 -1.01,-1.58 v 0.84 c 0,0 0.42,0.84 1.01,1.55 0.09,0.11 0.17,0.21 0.25,0.31 -0.02,0.07 -0.04,0.22 0.01,0.33 0.07,0.16 0.49,0.2 0.79,0.91 0.03,0.13 0.08,0.4 0.08,0.88 v 0 c 0,0.52 0.01,1.01 -0.06,1.07 -0.14,0.12 -0.42,0.74 -0.42,0.74 l 1.63,0.95 c 0,0 0.13,-0.25 0.28,-0.57 0.25,0.27 0.58,0.61 0.86,0.8 0.48,0.34 0.67,0.34 0.72,0.27 v 0 c 0,0 0,-0.01 0.01,-0.02 0,0 0,-0.02 0,-0.02 z m -1.33,-1.62 c 0.05,-0.12 0.1,-0.25 0.13,-0.37 0.07,0.22 0.16,0.5 0.28,0.78 -0.11,-0.07 -0.27,-0.17 -0.45,-0.3 0.02,-0.03 0.03,-0.07 0.05,-0.1 z"
           style="fill:url(#linear-gradient-14);stroke-width:0.834678"
           id="path25" />
        <path
           d="M 26.52,24.14 C 26.53,24.02 26.49,23.85 26.29,23.56 26.02,23.17 25.24,22.42 24.62,21.95 24.59,21.51 24.33,21.04 24,20.84 23.97,20.82 23.94,20.82 23.91,20.81 h 0.02 c -0.34,-0.23 -0.51,-0.38 -0.6,-0.55 0,0 -0.14,0.32 0.09,0.74 -0.02,0.07 -0.03,0.15 -0.04,0.22 -0.62,-0.25 -1.39,-0.4 -1.67,-0.33 -0.2,0.06 -0.24,0.18 -0.23,0.31 h -0.01 c 0.09,0.5 0.71,1.38 1.08,1.89 0.3,0.31 0.58,1.71 0.58,2.23 v 0.06 c -0.01,0.27 -0.02,0.72 -0.01,1.04 l 1.77,1.03 c 0,-0.32 0,-0.77 -0.02,-1.06 -0.03,-0.48 0.26,-1.66 0.58,-1.62 0.38,-0.07 1,-0.23 1.08,-0.63 z M 23.61,22.7 c -0.18,-0.15 -0.37,-0.3 -0.5,-0.37 -0.16,-0.08 -0.26,-0.08 -0.36,-0.12 -0.14,-0.22 -0.28,-0.34 -0.39,-0.41 0.24,-0.03 0.53,-0.12 0.98,0.03 0.02,0.04 0.04,0.06 0.06,0.08 0.04,0.18 0.11,0.36 0.21,0.51 v 0.27 z m 1.64,0.96 c -0.11,-0.08 -0.2,-0.19 -0.36,-0.3 -0.13,-0.07 -0.32,-0.15 -0.5,-0.21 v -0.27 c 0.1,-0.04 0.17,-0.14 0.21,-0.27 0.03,0 0.05,0.01 0.07,0 0.45,0.37 0.73,0.78 0.97,1.1 -0.11,-0.06 -0.24,-0.1 -0.38,-0.04 z"
           style="fill:url(#linear-gradient-15);stroke-width:0.834678"
           id="path26" />
        <path
           d="m 32.63,31.03 c 0,0 -0.57,-0.47 -1.13,-1.27 -0.02,0.05 -0.06,0.07 -0.12,-0.02 -0.09,-0.12 -0.18,-0.29 -0.24,-0.45 0.07,0.59 0.11,1.23 0.11,1.87 l -1.79,-1.04 c -0.04,-0.3 -0.09,-0.68 -0.16,-1.06 -0.01,0.13 -0.03,0.3 -0.05,0.42 -0.04,0.24 0,0.44 -0.08,0.42 -0.04,0 -0.12,-0.04 -0.2,-0.08 0,0 0,0 0,0 l -0.71,-0.41 c 0.16,-0.4 0.19,-0.86 0.25,-1.22 0.09,-0.54 0.28,-0.58 0.5,-0.69 0.29,-0.12 0.31,-0.43 0.31,-0.52 v -0.02 l -0.14,-0.58 c 0,0 -0.05,-0.02 -0.08,-0.04 -0.38,-0.22 -0.55,-0.71 -0.55,-1.2 v -0.22 c -0.1,-0.04 -0.18,0 -0.18,0 0,0 -0.08,-0.36 -0.05,-0.63 0.03,-0.28 0.22,-0.71 0.5,-0.63 0.14,0.05 0.22,0.13 0.27,0.2 0.05,-0.03 0.14,-0.02 0.29,0.08 0.29,0.2 0.6,0.71 0.7,1.11 0.1,0.4 0.04,1.02 -0.05,1.18 -0.04,0.07 -0.09,0.12 -0.13,0.17 0,0.03 0,0.06 0.01,0.08 L 30,26.82 c 0.06,0.01 0.28,-0.33 0.59,-0.15 0.14,0.08 0.31,0.28 0.48,0.68 0.23,0.44 0.43,0.81 0.53,0.88 0.07,0.06 0.09,0.27 0.08,0.48 0.09,0.2 0.18,0.37 0.24,0.51 0,-0.07 0,-0.14 0,-0.22 -0.02,-0.5 -0.11,-1.14 -0.16,-1.44 -0.01,-0.11 -0.06,-0.21 -0.06,-0.3 v -0.02 c 0,-0.21 0.01,-0.27 0,-0.44 -0.01,-0.16 -0.03,-0.27 0.03,-0.24 0.06,0.03 0.11,0.18 0.11,0.32 0,0.04 0,0.08 0,0.12 0.03,-0.03 0.05,-0.04 0.07,-0.06 0.01,-0.04 0.02,-0.09 0.02,-0.14 0,-0.12 -0.03,-0.28 -0.09,-0.41 -0.06,-0.13 -0.19,-0.37 -0.14,-0.39 0.04,-0.02 0.09,0.05 0.14,0.14 0,-0.1 0.04,-0.13 0.09,-0.02 0.05,0.09 0.23,0.57 0.29,0.75 0.05,0.18 -0.1,0.54 -0.14,0.62 -0.03,0.08 -0.03,0.13 -0.03,0.13 0,0 0.13,0.81 0.38,1.64 0.24,0.83 0.4,1.84 0.2,1.74 z"
           style="fill:url(#linear-gradient-16);stroke-width:0.834678"
           id="path27" />
        <path
           d="m 20.07,33.32 -0.53,-0.31 c 0,-0.41 0,-0.67 -0.04,-0.93 -0.01,-0.08 -0.06,-0.26 -0.13,-0.46 -0.08,-0.04 -0.16,-0.08 -0.21,-0.14 -0.14,-0.2 -0.06,-0.14 -0.11,-0.38 -0.03,-0.12 -0.08,-0.39 -0.13,-0.62 -0.13,0.09 -0.33,0.29 -0.46,0.7 0,0 0,0.01 0,0.02 -0.03,0.1 -0.06,0.21 -0.08,0.31 -0.05,0.21 -0.09,0.47 -0.11,0.76 l -1.63,-0.95 c 0,-0.57 0.02,-1.28 0.07,-1.83 -0.11,0.11 -0.19,0.22 -0.21,0.3 -0.04,0.22 -0.07,0.3 -0.09,0.74 0,0.15 -0.03,0.38 -0.06,0.62 l -0.48,-0.28 c 0,-0.64 0.01,-1.41 0.05,-1.58 0.03,-0.12 0.08,-0.27 0.14,-0.41 -0.15,-0.25 -0.26,-0.51 -0.24,-0.56 0.03,-0.08 0.15,-0.05 0.33,-0.19 0.23,-0.19 0.39,-0.55 0.71,-0.58 0.02,0 0.21,0.03 0.21,0.03 0.02,-0.46 0,-0.71 0.35,-0.78 0.3,-0.06 0.48,-0.36 0.53,-0.47 0,0 0.01,-0.02 0.02,-0.03 0.15,-0.27 0.49,-0.34 0.82,-0.04 0.39,0.35 0.63,1 0.53,1.46 l -0.04,0.16 c -0.03,0.17 -0.04,0.46 0.04,0.97 0.06,0.38 0.06,0.62 0.05,0.78 0.06,0.11 0.12,0.24 0.15,0.4 0.03,0.15 0.05,0.27 0.07,0.4 0.08,0.47 0.28,1.06 0.28,1.06 -0.01,0.03 -0.04,0.04 -0.05,0.06 0.23,0.89 0.15,0.57 0.23,1.06 0.03,0.16 0.03,0.44 0.03,0.72 z"
           style="fill:#204a87;stroke-width:0.834678"
           id="path28" />
        <path
           d="m 20.07,33.32 -0.53,-0.31 c 0,-0.41 0,-0.67 -0.04,-0.93 -0.01,-0.08 -0.06,-0.26 -0.13,-0.46 -0.08,-0.04 -0.16,-0.08 -0.21,-0.14 -0.14,-0.2 -0.06,-0.14 -0.11,-0.38 -0.03,-0.12 -0.08,-0.39 -0.13,-0.62 -0.13,0.09 -0.33,0.29 -0.46,0.7 0,0 0,0.01 0,0.02 -0.03,0.1 -0.06,0.21 -0.08,0.31 -0.05,0.21 -0.09,0.47 -0.11,0.76 l -1.63,-0.95 c 0,-0.57 0.02,-1.28 0.07,-1.83 -0.11,0.11 -0.19,0.22 -0.21,0.3 -0.04,0.22 -0.07,0.3 -0.09,0.74 0,0.15 -0.03,0.38 -0.06,0.62 l -0.48,-0.28 c 0,-0.64 0.01,-1.41 0.05,-1.58 0.03,-0.12 0.08,-0.27 0.14,-0.41 -0.15,-0.25 -0.26,-0.51 -0.24,-0.56 0.03,-0.08 0.15,-0.05 0.33,-0.19 0.23,-0.19 0.39,-0.55 0.71,-0.58 0.02,0 0.21,0.03 0.21,0.03 0.02,-0.46 0,-0.71 0.35,-0.78 0.3,-0.06 0.48,-0.36 0.53,-0.47 0,0 0.01,-0.02 0.02,-0.03 0.15,-0.27 0.49,-0.34 0.82,-0.04 0.39,0.35 0.63,1 0.53,1.46 l -0.04,0.16 c -0.03,0.17 -0.04,0.46 0.04,0.97 0.06,0.38 0.06,0.62 0.05,0.78 0.06,0.11 0.12,0.24 0.15,0.4 0.03,0.15 0.05,0.27 0.07,0.4 0.08,0.47 0.28,1.06 0.28,1.06 -0.01,0.03 -0.04,0.04 -0.05,0.06 0.23,0.89 0.15,0.57 0.23,1.06 0.03,0.16 0.03,0.44 0.03,0.72 z"
           style="fill:#204a87;stroke-width:0.834678"
           id="path29" />
        <path
           d="M 26.17,34.78 C 26.06,34.06 25.63,33.1 25.01,32.29 24.4,31.48 24.33,31.9 23.99,31.58 23.94,31.5 23.88,31.39 23.82,31.23 c 0.06,0 0.11,-0.03 0.12,-0.12 v -0.1 c 0,-0.1 -0.05,-0.22 -0.12,-0.29 0,-0.07 0,-0.16 0,-0.27 -0.04,-0.4 -0.35,-0.93 -0.68,-1.07 -0.36,-0.15 -0.56,-0.27 -0.7,-0.43 0,0 -0.16,0.43 0.18,0.89 h 0.01 c 0,0 0,0.08 0,0.12 l 0.06,0.59 c 0.04,0.46 0.23,0.88 0.56,1.02 0.05,0.02 0.1,0.02 0.15,0.02 0.06,0.13 0.11,0.25 0.16,0.34 v 0.05 c -0.21,0.3 -0.29,0.52 -0.27,0.96 0.02,0.45 -0.1,1.08 -0.17,1.36 -0.07,0.28 -0.25,0.64 -0.25,0.64 l 0.6,0.35 c 0,0 0.39,-0.62 0.5,-1.47 0.38,1.06 0.36,1.98 0.36,1.98 l 1.47,0.85 c 0,-0.46 -0.04,-0.9 -0.08,-1.31 0.24,-0.12 0.5,-0.37 0.47,-0.56 z"
           style="fill:#204a87;stroke-width:0.834678"
           id="path30" />
        <path
           d="m 31.14,36.63 c -0.18,-0.1 -0.47,-0.52 -0.47,-0.52 v -0.14 c 0.16,0.07 0.57,0.16 0.68,-0.54 0.13,-0.88 -0.57,-1.98 -0.8,-2.22 -0.18,-0.19 -0.26,-0.12 -0.29,-0.09 -0.03,-0.07 -0.11,-0.23 -0.29,-0.25 -0.23,-0.03 -0.93,0.26 -0.8,1.28 0.1,0.82 0.51,1.2 0.68,1.32 v 0.14 c 0,0 -0.29,0.08 -0.47,-0.02 -0.45,-0.26 -0.82,0 -0.82,0.6 v 2.03 l 3.42,1.99 v -2.03 c 0,-0.59 -0.37,-1.29 -0.82,-1.55 z"
           style="fill:#204a87;stroke-width:0.834678"
           id="path31" />
        <path
           d="m 20.07,33.32 -0.53,-0.31 c 0,-0.41 0,-0.67 -0.04,-0.93 -0.01,-0.08 -0.06,-0.26 -0.13,-0.46 -0.08,-0.04 -0.16,-0.08 -0.21,-0.14 -0.14,-0.2 -0.06,-0.14 -0.11,-0.38 -0.03,-0.12 -0.08,-0.39 -0.13,-0.62 -0.13,0.09 -0.33,0.29 -0.46,0.7 0,0 0,0.01 0,0.02 -0.03,0.1 -0.06,0.21 -0.08,0.31 -0.05,0.21 -0.09,0.47 -0.11,0.76 l -1.63,-0.95 c 0,-0.57 0.02,-1.28 0.07,-1.83 -0.11,0.11 -0.19,0.22 -0.21,0.3 -0.04,0.22 -0.07,0.3 -0.09,0.74 0,0.15 -0.03,0.38 -0.06,0.62 l -0.48,-0.28 c 0,-0.64 0.01,-1.41 0.05,-1.58 0.03,-0.12 0.08,-0.27 0.14,-0.41 -0.15,-0.25 -0.26,-0.51 -0.24,-0.56 0.03,-0.08 0.15,-0.05 0.33,-0.19 0.23,-0.19 0.39,-0.55 0.71,-0.58 0.02,0 0.21,0.03 0.21,0.03 0.02,-0.46 0,-0.71 0.35,-0.78 0.3,-0.06 0.48,-0.36 0.53,-0.47 0,0 0.01,-0.02 0.02,-0.03 0.15,-0.27 0.49,-0.34 0.82,-0.04 0.39,0.35 0.63,1 0.53,1.46 l -0.04,0.16 c -0.03,0.17 -0.04,0.46 0.04,0.97 0.06,0.38 0.06,0.62 0.05,0.78 0.06,0.11 0.12,0.24 0.15,0.4 0.03,0.15 0.05,0.27 0.07,0.4 0.08,0.47 0.28,1.06 0.28,1.06 -0.01,0.03 -0.04,0.04 -0.05,0.06 0.23,0.89 0.15,0.57 0.23,1.06 0.03,0.16 0.03,0.44 0.03,0.72 z"
           style="fill:url(#linear-gradient-17);stroke-width:0.834678"
           id="path32" />
        <path
           d="M 26.17,34.78 C 26.06,34.06 25.63,33.1 25.01,32.29 24.4,31.48 24.33,31.9 23.99,31.58 23.94,31.5 23.88,31.39 23.82,31.23 c 0.06,0 0.11,-0.03 0.12,-0.12 v -0.1 c 0,-0.1 -0.05,-0.22 -0.12,-0.29 0,-0.07 0,-0.16 0,-0.27 -0.04,-0.4 -0.35,-0.93 -0.68,-1.07 -0.36,-0.15 -0.56,-0.27 -0.7,-0.43 0,0 -0.16,0.43 0.18,0.89 h 0.01 c 0,0 0,0.08 0,0.12 l 0.06,0.59 c 0.04,0.46 0.23,0.88 0.56,1.02 0.05,0.02 0.1,0.02 0.15,0.02 0.06,0.13 0.11,0.25 0.16,0.34 v 0.05 c -0.21,0.3 -0.29,0.52 -0.27,0.96 0.02,0.45 -0.1,1.08 -0.17,1.36 -0.07,0.28 -0.25,0.64 -0.25,0.64 l 0.6,0.35 c 0,0 0.39,-0.62 0.5,-1.47 0.38,1.06 0.36,1.98 0.36,1.98 l 1.47,0.85 c 0,-0.46 -0.04,-0.9 -0.08,-1.31 0.24,-0.12 0.5,-0.37 0.47,-0.56 z"
           style="fill:url(#linear-gradient-18);stroke-width:0.834678"
           id="path33" />
        <path
           d="m 31.14,36.63 c -0.18,-0.1 -0.47,-0.52 -0.47,-0.52 v -0.14 c 0.16,0.07 0.57,0.16 0.68,-0.54 0.13,-0.88 -0.57,-1.98 -0.8,-2.22 -0.18,-0.19 -0.26,-0.12 -0.29,-0.09 -0.03,-0.07 -0.11,-0.23 -0.29,-0.25 -0.23,-0.03 -0.93,0.26 -0.8,1.28 0.1,0.82 0.51,1.2 0.68,1.32 v 0.14 c 0,0 -0.29,0.08 -0.47,-0.02 -0.45,-0.26 -0.82,0 -0.82,0.6 v 2.03 l 3.42,1.99 v -2.03 c 0,-0.59 -0.37,-1.29 -0.82,-1.55 z"
           style="fill:url(#linear-gradient-19);stroke-width:0.834678"
           id="path34" />
      </g>
      <g
         id="g37"
         style="stroke-width:0.834678">
        <polygon
           points="14.63,5.99 33.37,16.86 33.37,15.06 14.63,4.18 "
           style="fill:#2e3436;stroke-width:0.834678"
           id="polygon34" />
        <polygon
           points="14.63,23.31 33.37,34.19 33.37,32.38 14.63,21.5 "
           style="fill:#2e3436;stroke-width:0.834678"
           id="polygon35" />
        <polygon
           points="14.63,31.97 33.37,42.85 33.37,41.04 14.63,30.17 "
           style="fill:#2e3436;stroke-width:0.834678"
           id="polygon36" />
        <polygon
           points="14.63,14.65 33.37,25.53 33.37,23.72 14.63,12.84 "
           style="fill:#2e3436;stroke-width:0.834678"
           id="polygon37" />
      </g>
      <polygon
         points="33.37,42.85 14.63,31.97 14.63,4.18 33.37,15.06 "
         style="fill:none;stroke:#2e3436;stroke-width:0.584274px;stroke-miterlimit:10"
         id="polygon38" />
      <g
         id="g48"
         style="stroke-width:0.834678">
        <g
           id="g41"
           style="stroke-width:0.834678">
          <polygon
             points="20.88,16.47 14.63,12.84 14.63,5.99 20.88,9.61 "
             style="fill:none;stroke:#2e3436;stroke-width:0.417338px;stroke-miterlimit:10"
             id="polygon39" />
          <polygon
             points="27.12,20.09 20.88,16.47 20.88,9.61 27.12,13.24 "
             style="fill:none;stroke:#2e3436;stroke-width:0.417338px;stroke-miterlimit:10"
             id="polygon40" />
          <polygon
             points="33.37,16.86 33.37,23.72 27.13,20.1 27.13,13.24 "
             style="fill:none;stroke:#2e3436;stroke-width:0.417338px;stroke-miterlimit:10"
             id="polygon41" />
        </g>
        <g
           id="g47"
           style="stroke-width:0.834678">
          <polygon
             points="20.88,25.13 14.63,21.5 14.63,14.65 20.88,18.28 "
             style="fill:none;stroke:#2e3436;stroke-width:0.417338px;stroke-miterlimit:10"
             id="polygon42" />
          <polygon
             points="27.12,28.76 20.88,25.13 20.88,18.28 27.12,21.9 "
             style="fill:none;stroke:#2e3436;stroke-width:0.417338px;stroke-miterlimit:10"
             id="polygon43" />
          <polygon
             points="33.37,32.38 27.12,28.76 27.12,21.9 33.37,25.53 "
             style="fill:none;stroke:#2e3436;stroke-width:0.417338px;stroke-miterlimit:10"
             id="polygon44" />
          <polygon
             points="20.88,33.79 14.63,30.17 14.63,23.31 20.88,26.94 "
             style="fill:none;stroke:#2e3436;stroke-width:0.417338px;stroke-miterlimit:10"
             id="polygon45" />
          <polygon
             points="27.12,37.42 20.88,33.79 20.88,26.94 27.12,30.56 "
             style="fill:none;stroke:#2e3436;stroke-width:0.417338px;stroke-miterlimit:10"
             id="polygon46" />
          <polygon
             points="33.37,41.04 27.12,37.42 27.12,30.56 33.37,34.19 "
             style="fill:none;stroke:#2e3436;stroke-width:0.417338px;stroke-miterlimit:10"
             id="polygon47" />
        </g>
      </g>
      <g
         id="g77"
         style="stroke-width:0.834678">
        <g
           id="g55"
           style="stroke-width:0.834678">
          <g
             id="g49"
             style="stroke-width:0.834678">
            <polygon
               points="31.71,14.92 32.21,15.2 32.21,15.37 31.71,15.08 "
               style="fill:#c4a000;stroke-width:0.834678"
               id="polygon48" />
            <polygon
               points="32.04,15.4 32.36,15.37 32.04,14.98 32.13,15.24 "
               style="fill:#c4a000;stroke-width:0.834678"
               id="polygon49" />
          </g>
          <g
             id="g52"
             style="stroke-width:0.834678">
            <polygon
               points="32.69,15.44 32.8,15.5 32.8,15.75 32.69,15.69 "
               style="fill:#c4a000;stroke-width:0.834678"
               id="polygon50" />
            <polygon
               points="32.85,15.54 32.97,15.6 32.97,15.85 32.85,15.78 "
               style="fill:#c4a000;stroke-width:0.834678"
               id="polygon51" />
            <polygon
               points="33.02,15.64 33.14,15.7 33.14,15.95 33.02,15.88 "
               style="fill:#c4a000;stroke-width:0.834678"
               id="polygon52" />
          </g>
          <g
             id="g54"
             style="stroke-width:0.834678">
            <polygon
               points="31.09,14.51 31.2,14.58 31.2,14.82 31.09,14.76 "
               style="fill:#c4a000;stroke-width:0.834678"
               id="polygon53" />
            <polygon
               points="31.26,14.61 31.37,14.68 31.37,14.92 31.26,14.86 "
               style="fill:#c4a000;stroke-width:0.834678"
               id="polygon54" />
          </g>
        </g>
        <g
           id="g62"
           style="stroke-width:0.834678">
          <g
             id="g56"
             style="stroke-width:0.834678">
            <polygon
               points="26.73,12.02 27.22,12.31 27.22,12.47 26.73,12.19 "
               style="fill:#c4a000;stroke-width:0.834678"
               id="polygon55" />
            <polygon
               points="27.05,12.51 27.37,12.48 27.05,12.08 27.14,12.35 "
               style="fill:#c4a000;stroke-width:0.834678"
               id="polygon56" />
          </g>
          <g
             id="g59"
             style="stroke-width:0.834678">
            <polygon
               points="27.7,12.55 27.81,12.61 27.81,12.86 27.7,12.79 "
               style="fill:#c4a000;stroke-width:0.834678"
               id="polygon57" />
            <polygon
               points="27.87,12.65 27.98,12.71 27.98,12.96 27.87,12.89 "
               style="fill:#c4a000;stroke-width:0.834678"
               id="polygon58" />
            <polygon
               points="28.04,12.74 28.15,12.81 28.15,13.05 28.04,12.99 "
               style="fill:#c4a000;stroke-width:0.834678"
               id="polygon59" />
          </g>
          <g
             id="g61"
             style="stroke-width:0.834678">
            <polygon
               points="26.1,11.62 26.21,11.68 26.21,11.93 26.1,11.87 "
               style="fill:#c4a000;stroke-width:0.834678"
               id="polygon60" />
            <polygon
               points="26.27,11.72 26.38,11.78 26.38,12.03 26.27,11.96 "
               style="fill:#c4a000;stroke-width:0.834678"
               id="polygon61" />
          </g>
        </g>
        <g
           id="g69"
           style="stroke-width:0.834678">
          <g
             id="g63"
             style="stroke-width:0.834678">
            <polygon
               points="20.48,8.4 20.97,8.68 20.97,8.85 20.48,8.56 "
               style="fill:#c4a000;stroke-width:0.834678"
               id="polygon62" />
            <polygon
               points="20.8,8.88 21.12,8.85 20.8,8.45 20.89,8.72 "
               style="fill:#c4a000;stroke-width:0.834678"
               id="polygon63" />
          </g>
          <g
             id="g66"
             style="stroke-width:0.834678">
            <polygon
               points="21.45,8.92 21.56,8.98 21.56,9.23 21.45,9.16 "
               style="fill:#c4a000;stroke-width:0.834678"
               id="polygon64" />
            <polygon
               points="21.62,9.02 21.73,9.08 21.73,9.33 21.62,9.26 "
               style="fill:#c4a000;stroke-width:0.834678"
               id="polygon65" />
            <polygon
               points="21.79,9.12 21.9,9.18 21.9,9.43 21.79,9.36 "
               style="fill:#c4a000;stroke-width:0.834678"
               id="polygon66" />
          </g>
          <g
             id="g68"
             style="stroke-width:0.834678">
            <polygon
               points="19.85,7.99 19.96,8.06 19.96,8.3 19.85,8.24 "
               style="fill:#c4a000;stroke-width:0.834678"
               id="polygon67" />
            <polygon
               points="20.02,8.09 20.13,8.15 20.13,8.4 20.02,8.34 "
               style="fill:#c4a000;stroke-width:0.834678"
               id="polygon68" />
          </g>
        </g>
        <g
           id="g76"
           style="stroke-width:0.834678">
          <g
             id="g70"
             style="stroke-width:0.834678">
            <polygon
               points="15.5,5.51 15.99,5.79 15.99,5.96 15.5,5.67 "
               style="fill:#c4a000;stroke-width:0.834678"
               id="polygon69" />
            <polygon
               points="15.82,5.99 16.15,5.96 15.82,5.56 15.91,5.83 "
               style="fill:#c4a000;stroke-width:0.834678"
               id="polygon70" />
          </g>
          <g
             id="g73"
             style="stroke-width:0.834678">
            <polygon
               points="16.47,6.03 16.58,6.09 16.58,6.34 16.47,6.27 "
               style="fill:#c4a000;stroke-width:0.834678"
               id="polygon71" />
            <polygon
               points="16.64,6.13 16.75,6.19 16.75,6.44 16.64,6.37 "
               style="fill:#c4a000;stroke-width:0.834678"
               id="polygon72" />
            <polygon
               points="16.81,6.23 16.92,6.29 16.92,6.54 16.81,6.47 "
               style="fill:#c4a000;stroke-width:0.834678"
               id="polygon73" />
          </g>
          <g
             id="g75"
             style="stroke-width:0.834678">
            <polygon
               points="14.87,5.1 14.98,5.17 14.98,5.41 14.87,5.35 "
               style="fill:#c4a000;stroke-width:0.834678"
               id="polygon74" />
            <polygon
               points="15.04,5.2 15.15,5.26 15.15,5.51 15.04,5.45 "
               style="fill:#c4a000;stroke-width:0.834678"
               id="polygon75" />
          </g>
        </g>
      </g>
      <g
         id="g106"
         style="stroke-width:0.834678">
        <g
           id="g84"
           style="stroke-width:0.834678">
          <g
             id="g78"
             style="stroke-width:0.834678">
            <polygon
               points="31.71,23.58 32.21,23.87 32.21,24.03 31.71,23.74 "
               style="fill:#c4a000;stroke-width:0.834678"
               id="polygon77" />
            <polygon
               points="32.04,24.06 32.36,24.04 32.04,23.64 32.13,23.9 "
               style="fill:#c4a000;stroke-width:0.834678"
               id="polygon78" />
          </g>
          <g
             id="g81"
             style="stroke-width:0.834678">
            <polygon
               points="32.69,24.1 32.8,24.17 32.8,24.41 32.69,24.35 "
               style="fill:#c4a000;stroke-width:0.834678"
               id="polygon79" />
            <polygon
               points="32.85,24.2 32.97,24.27 32.97,24.51 32.85,24.45 "
               style="fill:#c4a000;stroke-width:0.834678"
               id="polygon80" />
            <polygon
               points="33.02,24.3 33.14,24.36 33.14,24.61 33.02,24.55 "
               style="fill:#c4a000;stroke-width:0.834678"
               id="polygon81" />
          </g>
          <g
             id="g83"
             style="stroke-width:0.834678">
            <polygon
               points="31.09,23.18 31.2,23.24 31.2,23.49 31.09,23.42 "
               style="fill:#c4a000;stroke-width:0.834678"
               id="polygon82" />
            <polygon
               points="31.26,23.27 31.37,23.34 31.37,23.58 31.26,23.52 "
               style="fill:#c4a000;stroke-width:0.834678"
               id="polygon83" />
          </g>
        </g>
        <g
           id="g91"
           style="stroke-width:0.834678">
          <g
             id="g85"
             style="stroke-width:0.834678">
            <polygon
               points="26.73,20.69 27.22,20.97 27.22,21.14 26.73,20.85 "
               style="fill:#c4a000;stroke-width:0.834678"
               id="polygon84" />
            <polygon
               points="27.05,21.17 27.37,21.14 27.05,20.74 27.14,21.01 "
               style="fill:#c4a000;stroke-width:0.834678"
               id="polygon85" />
          </g>
          <g
             id="g88"
             style="stroke-width:0.834678">
            <polygon
               points="27.7,21.21 27.81,21.27 27.81,21.52 27.7,21.45 "
               style="fill:#c4a000;stroke-width:0.834678"
               id="polygon86" />
            <polygon
               points="27.87,21.31 27.98,21.37 27.98,21.62 27.87,21.55 "
               style="fill:#c4a000;stroke-width:0.834678"
               id="polygon87" />
            <polygon
               points="28.04,21.41 28.15,21.47 28.15,21.72 28.04,21.65 "
               style="fill:#c4a000;stroke-width:0.834678"
               id="polygon88" />
          </g>
          <g
             id="g90"
             style="stroke-width:0.834678">
            <polygon
               points="26.1,20.28 26.21,20.35 26.21,20.59 26.1,20.53 "
               style="fill:#c4a000;stroke-width:0.834678"
               id="polygon89" />
            <polygon
               points="26.27,20.38 26.38,20.45 26.38,20.69 26.27,20.63 "
               style="fill:#c4a000;stroke-width:0.834678"
               id="polygon90" />
          </g>
        </g>
        <g
           id="g98"
           style="stroke-width:0.834678">
          <g
             id="g92"
             style="stroke-width:0.834678">
            <polygon
               points="20.48,17.06 20.97,17.35 20.97,17.51 20.48,17.22 "
               style="fill:#c4a000;stroke-width:0.834678"
               id="polygon91" />
            <polygon
               points="20.8,17.54 21.12,17.52 20.8,17.12 20.89,17.38 "
               style="fill:#c4a000;stroke-width:0.834678"
               id="polygon92" />
          </g>
          <g
             id="g95"
             style="stroke-width:0.834678">
            <polygon
               points="21.45,17.58 21.56,17.65 21.56,17.89 21.45,17.83 "
               style="fill:#c4a000;stroke-width:0.834678"
               id="polygon93" />
            <polygon
               points="21.62,17.68 21.73,17.74 21.73,17.99 21.62,17.93 "
               style="fill:#c4a000;stroke-width:0.834678"
               id="polygon94" />
            <polygon
               points="21.79,17.78 21.9,17.84 21.9,18.09 21.79,18.02 "
               style="fill:#c4a000;stroke-width:0.834678"
               id="polygon95" />
          </g>
          <g
             id="g97"
             style="stroke-width:0.834678">
            <polygon
               points="19.85,16.65 19.96,16.72 19.96,16.96 19.85,16.9 "
               style="fill:#c4a000;stroke-width:0.834678"
               id="polygon96" />
            <polygon
               points="20.02,16.75 20.13,16.82 20.13,17.06 20.02,17 "
               style="fill:#c4a000;stroke-width:0.834678"
               id="polygon97" />
          </g>
        </g>
        <g
           id="g105"
           style="stroke-width:0.834678">
          <g
             id="g99"
             style="stroke-width:0.834678">
            <polygon
               points="15.5,14.17 15.99,14.45 15.99,14.62 15.5,14.33 "
               style="fill:#c4a000;stroke-width:0.834678"
               id="polygon98" />
            <polygon
               points="15.82,14.65 16.15,14.63 15.82,14.23 15.91,14.49 "
               style="fill:#c4a000;stroke-width:0.834678"
               id="polygon99" />
          </g>
          <g
             id="g102"
             style="stroke-width:0.834678">
            <polygon
               points="16.47,14.69 16.58,14.76 16.58,15 16.47,14.94 "
               style="fill:#c4a000;stroke-width:0.834678"
               id="polygon100" />
            <polygon
               points="16.64,14.79 16.75,14.85 16.75,15.1 16.64,15.04 "
               style="fill:#c4a000;stroke-width:0.834678"
               id="polygon101" />
            <polygon
               points="16.81,14.89 16.92,14.95 16.92,15.2 16.81,15.13 "
               style="fill:#c4a000;stroke-width:0.834678"
               id="polygon102" />
          </g>
          <g
             id="g104"
             style="stroke-width:0.834678">
            <polygon
               points="14.87,13.76 14.98,13.83 14.98,14.07 14.87,14.01 "
               style="fill:#c4a000;stroke-width:0.834678"
               id="polygon103" />
            <polygon
               points="15.04,13.86 15.15,13.93 15.15,14.17 15.04,14.11 "
               style="fill:#c4a000;stroke-width:0.834678"
               id="polygon104" />
          </g>
        </g>
      </g>
      <g
         id="g135"
         style="stroke-width:0.834678">
        <g
           id="g113"
           style="stroke-width:0.834678">
          <g
             id="g107"
             style="stroke-width:0.834678">
            <polygon
               points="31.71,32.24 32.21,32.53 32.21,32.69 31.71,32.41 "
               style="fill:#c4a000;stroke-width:0.834678"
               id="polygon106" />
            <polygon
               points="32.04,32.72 32.36,32.7 32.04,32.3 32.13,32.57 "
               style="fill:#c4a000;stroke-width:0.834678"
               id="polygon107" />
          </g>
          <g
             id="g110"
             style="stroke-width:0.834678">
            <polygon
               points="32.69,32.77 32.8,32.83 32.8,33.08 32.69,33.01 "
               style="fill:#c4a000;stroke-width:0.834678"
               id="polygon108" />
            <polygon
               points="32.85,32.86 32.97,32.93 32.97,33.17 32.85,33.11 "
               style="fill:#c4a000;stroke-width:0.834678"
               id="polygon109" />
            <polygon
               points="33.02,32.96 33.14,33.03 33.14,33.27 33.02,33.21 "
               style="fill:#c4a000;stroke-width:0.834678"
               id="polygon110" />
          </g>
          <g
             id="g112"
             style="stroke-width:0.834678">
            <polygon
               points="31.09,31.84 31.2,31.9 31.2,32.15 31.09,32.08 "
               style="fill:#c4a000;stroke-width:0.834678"
               id="polygon111" />
            <polygon
               points="31.26,31.94 31.37,32 31.37,32.25 31.26,32.18 "
               style="fill:#c4a000;stroke-width:0.834678"
               id="polygon112" />
          </g>
        </g>
        <g
           id="g120"
           style="stroke-width:0.834678">
          <g
             id="g114"
             style="stroke-width:0.834678">
            <polygon
               points="26.73,29.35 27.22,29.64 27.22,29.8 26.73,29.51 "
               style="fill:#c4a000;stroke-width:0.834678"
               id="polygon113" />
            <polygon
               points="27.05,29.83 27.37,29.81 27.05,29.41 27.14,29.67 "
               style="fill:#c4a000;stroke-width:0.834678"
               id="polygon114" />
          </g>
          <g
             id="g117"
             style="stroke-width:0.834678">
            <polygon
               points="27.7,29.87 27.81,29.94 27.81,30.18 27.7,30.12 "
               style="fill:#c4a000;stroke-width:0.834678"
               id="polygon115" />
            <polygon
               points="27.87,29.97 27.98,30.03 27.98,30.28 27.87,30.22 "
               style="fill:#c4a000;stroke-width:0.834678"
               id="polygon116" />
            <polygon
               points="28.04,30.07 28.15,30.13 28.15,30.38 28.04,30.31 "
               style="fill:#c4a000;stroke-width:0.834678"
               id="polygon117" />
          </g>
          <g
             id="g119"
             style="stroke-width:0.834678">
            <polygon
               points="26.1,28.94 26.21,29.01 26.21,29.25 26.1,29.19 "
               style="fill:#c4a000;stroke-width:0.834678"
               id="polygon118" />
            <polygon
               points="26.27,29.04 26.38,29.11 26.38,29.35 26.27,29.29 "
               style="fill:#c4a000;stroke-width:0.834678"
               id="polygon119" />
          </g>
        </g>
        <g
           id="g127"
           style="stroke-width:0.834678">
          <g
             id="g121"
             style="stroke-width:0.834678">
            <polygon
               points="20.48,25.72 20.97,26.01 20.97,26.17 20.48,25.89 "
               style="fill:#c4a000;stroke-width:0.834678"
               id="polygon120" />
            <polygon
               points="20.8,26.2 21.12,26.18 20.8,25.78 20.89,26.04 "
               style="fill:#c4a000;stroke-width:0.834678"
               id="polygon121" />
          </g>
          <g
             id="g124"
             style="stroke-width:0.834678">
            <polygon
               points="21.45,26.24 21.56,26.31 21.56,26.55 21.45,26.49 "
               style="fill:#c4a000;stroke-width:0.834678"
               id="polygon122" />
            <polygon
               points="21.62,26.34 21.73,26.41 21.73,26.65 21.62,26.59 "
               style="fill:#c4a000;stroke-width:0.834678"
               id="polygon123" />
            <polygon
               points="21.79,26.44 21.9,26.51 21.9,26.75 21.79,26.69 "
               style="fill:#c4a000;stroke-width:0.834678"
               id="polygon124" />
          </g>
          <g
             id="g126"
             style="stroke-width:0.834678">
            <polygon
               points="19.85,25.32 19.96,25.38 19.96,25.63 19.85,25.56 "
               style="fill:#c4a000;stroke-width:0.834678"
               id="polygon125" />
            <polygon
               points="20.02,25.42 20.13,25.48 20.13,25.73 20.02,25.66 "
               style="fill:#c4a000;stroke-width:0.834678"
               id="polygon126" />
          </g>
        </g>
        <g
           id="g134"
           style="stroke-width:0.834678">
          <g
             id="g128"
             style="stroke-width:0.834678">
            <polygon
               points="15.5,22.83 15.99,23.12 15.99,23.28 15.5,22.99 "
               style="fill:#c4a000;stroke-width:0.834678"
               id="polygon127" />
            <polygon
               points="15.82,23.31 16.15,23.29 15.82,22.89 15.91,23.15 "
               style="fill:#c4a000;stroke-width:0.834678"
               id="polygon128" />
          </g>
          <g
             id="g131"
             style="stroke-width:0.834678">
            <polygon
               points="16.47,23.35 16.58,23.42 16.58,23.66 16.47,23.6 "
               style="fill:#c4a000;stroke-width:0.834678"
               id="polygon129" />
            <polygon
               points="16.64,23.45 16.75,23.52 16.75,23.76 16.64,23.7 "
               style="fill:#c4a000;stroke-width:0.834678"
               id="polygon130" />
            <polygon
               points="16.81,23.55 16.92,23.62 16.92,23.86 16.81,23.8 "
               style="fill:#c4a000;stroke-width:0.834678"
               id="polygon131" />
          </g>
          <g
             id="g133"
             style="stroke-width:0.834678">
            <polygon
               points="14.87,22.43 14.98,22.49 14.98,22.74 14.87,22.67 "
               style="fill:#c4a000;stroke-width:0.834678"
               id="polygon132" />
            <polygon
               points="15.04,22.53 15.15,22.59 15.15,22.83 15.04,22.77 "
               style="fill:#c4a000;stroke-width:0.834678"
               id="polygon133" />
          </g>
        </g>
      </g>
      <g
         id="g164"
         style="stroke-width:0.834678">
        <g
           id="g142"
           style="stroke-width:0.834678">
          <g
             id="g136"
             style="stroke-width:0.834678">
            <polygon
               points="31.71,40.9 32.21,41.19 32.21,41.36 31.71,41.07 "
               style="fill:#c4a000;stroke-width:0.834678"
               id="polygon135" />
            <polygon
               points="32.04,41.39 32.36,41.36 32.04,40.96 32.13,41.23 "
               style="fill:#c4a000;stroke-width:0.834678"
               id="polygon136" />
          </g>
          <g
             id="g139"
             style="stroke-width:0.834678">
            <polygon
               points="32.69,41.43 32.8,41.49 32.8,41.74 32.69,41.67 "
               style="fill:#c4a000;stroke-width:0.834678"
               id="polygon137" />
            <polygon
               points="32.85,41.53 32.97,41.59 32.97,41.84 32.85,41.77 "
               style="fill:#c4a000;stroke-width:0.834678"
               id="polygon138" />
            <polygon
               points="33.02,41.63 33.14,41.69 33.14,41.93 33.02,41.87 "
               style="fill:#c4a000;stroke-width:0.834678"
               id="polygon139" />
          </g>
          <g
             id="g141"
             style="stroke-width:0.834678">
            <polygon
               points="31.09,40.5 31.2,40.57 31.2,40.81 31.09,40.75 "
               style="fill:#c4a000;stroke-width:0.834678"
               id="polygon140" />
            <polygon
               points="31.26,40.6 31.37,40.66 31.37,40.91 31.26,40.84 "
               style="fill:#c4a000;stroke-width:0.834678"
               id="polygon141" />
          </g>
        </g>
        <g
           id="g149"
           style="stroke-width:0.834678">
          <g
             id="g143"
             style="stroke-width:0.834678">
            <polygon
               points="26.73,38.01 27.22,38.3 27.22,38.46 26.73,38.18 "
               style="fill:#c4a000;stroke-width:0.834678"
               id="polygon142" />
            <polygon
               points="27.05,38.49 27.37,38.47 27.05,38.07 27.14,38.33 "
               style="fill:#c4a000;stroke-width:0.834678"
               id="polygon143" />
          </g>
          <g
             id="g146"
             style="stroke-width:0.834678">
            <polygon
               points="27.7,38.53 27.81,38.6 27.81,38.84 27.7,38.78 "
               style="fill:#c4a000;stroke-width:0.834678"
               id="polygon144" />
            <polygon
               points="27.87,38.63 27.98,38.7 27.98,38.94 27.87,38.88 "
               style="fill:#c4a000;stroke-width:0.834678"
               id="polygon145" />
            <polygon
               points="28.04,38.73 28.15,38.8 28.15,39.04 28.04,38.98 "
               style="fill:#c4a000;stroke-width:0.834678"
               id="polygon146" />
          </g>
          <g
             id="g148"
             style="stroke-width:0.834678">
            <polygon
               points="26.1,37.61 26.21,37.67 26.21,37.92 26.1,37.85 "
               style="fill:#c4a000;stroke-width:0.834678"
               id="polygon147" />
            <polygon
               points="26.27,37.71 26.38,37.77 26.38,38.02 26.27,37.95 "
               style="fill:#c4a000;stroke-width:0.834678"
               id="polygon148" />
          </g>
        </g>
        <g
           id="g156"
           style="stroke-width:0.834678">
          <g
             id="g150"
             style="stroke-width:0.834678">
            <polygon
               points="20.48,34.38 20.97,34.67 20.97,34.83 20.48,34.55 "
               style="fill:#c4a000;stroke-width:0.834678"
               id="polygon149" />
            <polygon
               points="20.8,34.87 21.12,34.84 20.8,34.44 20.89,34.71 "
               style="fill:#c4a000;stroke-width:0.834678"
               id="polygon150" />
          </g>
          <g
             id="g153"
             style="stroke-width:0.834678">
            <polygon
               points="21.45,34.91 21.56,34.97 21.56,35.22 21.45,35.15 "
               style="fill:#c4a000;stroke-width:0.834678"
               id="polygon151" />
            <polygon
               points="21.62,35.01 21.73,35.07 21.73,35.31 21.62,35.25 "
               style="fill:#c4a000;stroke-width:0.834678"
               id="polygon152" />
            <polygon
               points="21.79,35.1 21.9,35.17 21.9,35.41 21.79,35.35 "
               style="fill:#c4a000;stroke-width:0.834678"
               id="polygon153" />
          </g>
          <g
             id="g155"
             style="stroke-width:0.834678">
            <polygon
               points="19.85,33.98 19.96,34.04 19.96,34.29 19.85,34.22 "
               style="fill:#c4a000;stroke-width:0.834678"
               id="polygon154" />
            <polygon
               points="20.02,34.08 20.13,34.14 20.13,34.39 20.02,34.32 "
               style="fill:#c4a000;stroke-width:0.834678"
               id="polygon155" />
          </g>
        </g>
        <g
           id="g163"
           style="stroke-width:0.834678">
          <g
             id="g157"
             style="stroke-width:0.834678">
            <polygon
               points="15.5,31.49 15.99,31.78 15.99,31.94 15.5,31.66 "
               style="fill:#c4a000;stroke-width:0.834678"
               id="polygon156" />
            <polygon
               points="15.82,31.97 16.15,31.95 15.82,31.55 15.91,31.82 "
               style="fill:#c4a000;stroke-width:0.834678"
               id="polygon157" />
          </g>
          <g
             id="g160"
             style="stroke-width:0.834678">
            <polygon
               points="16.47,32.02 16.58,32.08 16.58,32.33 16.47,32.26 "
               style="fill:#c4a000;stroke-width:0.834678"
               id="polygon158" />
            <polygon
               points="16.64,32.11 16.75,32.18 16.75,32.42 16.64,32.36 "
               style="fill:#c4a000;stroke-width:0.834678"
               id="polygon159" />
            <polygon
               points="16.81,32.21 16.92,32.28 16.92,32.52 16.81,32.46 "
               style="fill:#c4a000;stroke-width:0.834678"
               id="polygon160" />
          </g>
          <g
             id="g162"
             style="stroke-width:0.834678">
            <polygon
               points="14.87,31.09 14.98,31.15 14.98,31.4 14.87,31.33 "
               style="fill:#c4a000;stroke-width:0.834678"
               id="polygon161" />
            <polygon
               points="15.04,31.19 15.15,31.25 15.15,31.5 15.04,31.43 "
               style="fill:#c4a000;stroke-width:0.834678"
               id="polygon162" />
          </g>
        </g>
      </g>
    </g>
  </g>
</svg>
