<?xml version="1.0" encoding="UTF-8" standalone="no"?>
<svg
   viewBox="0 0 48 48"
   version="1.1"
   id="svg29"
   sodipodi:docname="18-Flood Fill.svg"
   inkscape:version="1.3.2 (091e20e, 2023-11-25, custom)"
   xmlns:inkscape="http://www.inkscape.org/namespaces/inkscape"
   xmlns:sodipodi="http://sodipodi.sourceforge.net/DTD/sodipodi-0.dtd"
   xmlns:xlink="http://www.w3.org/1999/xlink"
   xmlns="http://www.w3.org/2000/svg"
   xmlns:svg="http://www.w3.org/2000/svg">
  <sodipodi:namedview
     id="namedview29"
     pagecolor="#ffffff"
     bordercolor="#666666"
     borderopacity="1.0"
     inkscape:showpageshadow="2"
     inkscape:pageopacity="0.0"
     inkscape:pagecheckerboard="0"
     inkscape:deskcolor="#d1d1d1"
     inkscape:zoom="16.2782"
     inkscape:cx="24.0199"
     inkscape:cy="23.9892"
     inkscape:current-layer="g23" />
  <defs
     id="defs15">
    <radialGradient
       id="radial-gradient"
       cx="239.43"
       cy="-199.72"
       fx="239.43"
       fy="-199.72"
       r="9.86"
       gradientTransform="matrix(-0.286016,2.18133,-0.997406,-0.623495,-107.18,-611.66)"
       gradientUnits="userSpaceOnUse">
      <stop
         offset=".5"
         stop-color="#2c2c2c"
         stop-opacity=".5"
         id="stop1" />
      <stop
         offset=".99"
         stop-color="#2c2c2c"
         stop-opacity="0"
         id="stop2" />
    </radialGradient>
    <linearGradient
       id="linear-gradient"
       x1="34.45"
       y1="10.98"
       x2="18.85"
       y2="35.35"
       gradientTransform="matrix(1, 0, 0, 1, 0, 0)"
       gradientUnits="userSpaceOnUse">
      <stop
         offset=".27"
         stop-color="#c8cdc3"
         id="stop3" />
      <stop
         offset=".89"
         stop-color="#686a65"
         id="stop4" />
    </linearGradient>
    <linearGradient
       id="linear-gradient-2"
       x1="32"
       y1="12.64"
       x2="21.09"
       y2="29.97"
       gradientUnits="userSpaceOnUse">
      <stop
         offset="0"
         stop-color="#729fcf"
         id="stop5" />
      <stop
         offset=".55"
         stop-color="#3465a4"
         id="stop6" />
      <stop
         offset="1"
         stop-color="#204a87"
         id="stop7" />
    </linearGradient>
    <linearGradient
       id="linear-gradient-3"
       x1="26.31"
       y1="23.64"
       x2="23.7"
       y2="30.42"
       gradientTransform="translate(33.77 -10.78) rotate(60)"
       gradientUnits="userSpaceOnUse">
      <stop
         offset="0"
         stop-color="#5c5c5c"
         id="stop8" />
      <stop
         offset=".71"
         stop-color="#fffdfd"
         stop-opacity=".19"
         id="stop9" />
    </linearGradient>
    <linearGradient
       id="linear-gradient-4"
       x1="27.25"
       y1="20.15"
       x2="25.22"
       y2="25.89"
       gradientTransform="rotate(60,26.2258,23.0445)"
       xlink:href="#linear-gradient" />
    <linearGradient
       id="linear-gradient-5"
       x1="27.84"
       y1="6.75"
       x2="12.24"
       y2="31.12"
       xlink:href="#linear-gradient" />
    <linearGradient
       id="linear-gradient-6"
       x1="29.64"
       y1="17.06"
       x2="31.52"
       y2="13.8"
       gradientTransform="matrix(1, 0, 0, 1, 0, 0)"
       gradientUnits="userSpaceOnUse">
      <stop
         offset="0"
         stop-color="#fff"
         stop-opacity=".1"
         id="stop10" />
      <stop
         offset="1"
         stop-color="#fff8f8"
         id="stop11" />
    </linearGradient>
    <linearGradient
       id="linear-gradient-7"
       x1="19.56"
       y1="34.86"
       x2="28.76"
       y2="19.26"
       xlink:href="#linear-gradient-3" />
    <linearGradient
       id="linear-gradient-8"
       x1="20.26"
       y1="7.98"
       x2="9.68"
       y2="31.98"
       gradientTransform="rotate(60,16.1779,17.2409)"
       xlink:href="#linear-gradient" />
    <linearGradient
       id="linear-gradient-9"
       x1="11.46"
       y1="24.34"
       x2="19.03"
       y2="12.95"
       gradientTransform="rotate(60,16.1779,17.2409)"
       xlink:href="#linear-gradient-6" />
    <linearGradient
       id="linear-gradient-10"
       x1="14.95"
       y1="25.65"
       x2="15.93"
       y2="30.64"
       xlink:href="#linear-gradient-3" />
    <linearGradient
       id="linear-gradient-11"
       x1="15.53"
       y1="25.33"
       x2="16.34"
       y2="15.18"
       gradientTransform="translate(23.02 -5.39) rotate(60)"
       gradientUnits="userSpaceOnUse">
      <stop
         offset="0"
         stop-color="#ef2929"
         id="stop12" />
      <stop
         offset="1"
         stop-color="#a40000"
         id="stop13" />
    </linearGradient>
    <linearGradient
       id="linear-gradient-12"
       x1="12.27"
       y1="25.07"
       x2="13.08"
       y2="14.92"
       xlink:href="#linear-gradient-11" />
    <linearGradient
       id="linear-gradient-13"
       x1="17.11"
       y1="23.25"
       x2="16.24"
       y2="11.33"
       gradientUnits="userSpaceOnUse">
      <stop
         offset="0"
         stop-color="#a40000"
         id="stop14" />
      <stop
         offset="1"
         stop-color="#000"
         id="stop15" />
    </linearGradient>
    <linearGradient
       id="linear-gradient-14"
       x1="10.73"
       y1="23.62"
       x2="10.17"
       y2="27.37"
       gradientTransform="translate(-0.04,0.04)"
       xlink:href="#linear-gradient-6" />
    <linearGradient
       id="linear-gradient-15"
       x1="9.17"
       y1="29.45"
       x2="13.25"
       y2="32.79"
       xlink:href="#linear-gradient-11" />
    <linearGradient
       id="linear-gradient-16"
       x1="26.46"
       y1="22.7"
       x2="22.4"
       y2="28.7"
       gradientTransform="rotate(60,26.2258,23.0445)"
       xlink:href="#linear-gradient" />
    <linearGradient
       inkscape:collect="always"
       xlink:href="#linear-gradient"
       id="linearGradient29"
       gradientUnits="userSpaceOnUse"
       x1="34.45"
       y1="10.98"
       x2="18.85"
       y2="35.35" />
    <linearGradient
       inkscape:collect="always"
       xlink:href="#linear-gradient-3"
       id="linearGradient30"
       gradientUnits="userSpaceOnUse"
       gradientTransform="rotate(60,26.2208,23.8557)"
       x1="26.31"
       y1="23.64"
       x2="23.7"
       y2="30.42" />
    <linearGradient
       inkscape:collect="always"
       xlink:href="#linear-gradient-6"
       id="linearGradient31"
       gradientUnits="userSpaceOnUse"
       x1="29.64"
       y1="17.06"
       x2="31.52"
       y2="13.8" />
    <linearGradient
       inkscape:collect="always"
       xlink:href="#linear-gradient-11"
       id="linearGradient32"
       gradientUnits="userSpaceOnUse"
       gradientTransform="rotate(60,16.1779,17.2409)"
       x1="15.53"
       y1="25.33"
       x2="16.34"
       y2="15.18" />
  </defs>
  <g
     id="shadow"
     style="opacity:0.45;isolation:isolate;mix-blend-mode:multiply;stroke-width:0.949831"
     transform="matrix(1.10843,0,0,1,-1.37666,2.64157)">
    <ellipse
       cx="22.89"
       cy="35.55"
       rx="9.85"
       ry="21.53"
       transform="rotate(-89.56,22.8942,35.5495)"
       style="fill:url(#radial-gradient);stroke-width:0.949831"
       id="ellipse15" />
  </g>
  <g
     id="ART"
     style="isolation:isolate;stroke-width:0.76561"
     transform="matrix(1.30636,0,0,1.30594,-6.51841,-6.67135)">
    <path
       d="m 26.34,7.26 c -0.63,0.33 -1.28,0.7 -1.95,1.11"
       style="fill:none;stroke:#555753;stroke-width:0.76561;stroke-linecap:round;stroke-linejoin:round"
       id="path15" />
    <g
       id="g23"
       style="stroke-width:0.76561">
      <path
         d="m 37.61,16 c 3.17,1.83 3.1,7.89 -0.16,13.52 -3.26,5.63 -8.46,8.73 -11.63,6.9 L 10.28,27.45 22.06,7.05 c 0,0 15.43,8.88 15.55,8.95 z"
         style="fill:url(#linearGradient29);stroke-width:0.76561"
         id="path16" />
      <path
         d="m 35.68,14.89 c 3.17,1.83 3.1,7.89 -0.16,13.52 -3.25,5.63 -8.46,8.73 -11.63,6.9 L 10.29,27.46 22.06,7.05 c 0,0 13.49,7.76 13.62,7.84 z"
         style="fill:url(#linear-gradient-2);stroke-width:0.76561"
         id="path17" />
      <path
         d="m 29.04,16.82 c 0.79,0.45 2.29,1.3 2.98,1.7 0.46,-3.2 -0.26,-5.88 -2.19,-6.99 -0.03,-0.02 -1.64,-0.93 -2.92,-1.66 1.89,1.14 2.59,3.8 2.13,6.96 z"
         style="fill:#fce94f;stroke-width:0.76561"
         id="path18" />
      <path
         d="m 35.12,17.76 c -0.6,-0.34 -1.21,-0.69 -1.77,-1 -0.13,-2.04 -0.88,-3.67 -2.25,-4.49 0.64,0.37 1.37,0.77 1.93,1.09 0,-0.01 0.01,0.01 0.01,0.01 1.23,0.86 1.92,2.44 2.08,4.38 z"
         style="fill:#afef65;stroke-width:0.76561"
         id="path19" />
      <ellipse
         cx="26.23"
         cy="23.85"
         rx="2.13"
         ry="1.98"
         transform="rotate(-60,26.2241,23.8585)"
         style="mix-blend-mode:multiply;fill:url(#linearGradient30);stroke-width:0.76561"
         id="ellipse19" />
      <ellipse
         cx="26.23"
         cy="23.04"
         rx="2.13"
         ry="1.98"
         transform="rotate(-60,26.224,23.0386)"
         style="fill:url(#linear-gradient-4);stroke-width:0.76561"
         id="ellipse20" />
      <path
         d="m 24.01,8.15 c 3.17,1.83 3.1,7.89 -0.16,13.52 -3.26,5.63 -8.46,8.73 -11.63,6.9 L 10.28,27.45 22.06,7.05 c 0,0 1.82,1.03 1.95,1.1 z"
         style="fill:url(#linear-gradient-5);stroke-width:0.76561"
         id="path20" />
      <path
         d="M 39.88,22.47 19.84,10.89 22.05,7.05 c 0,0 15.43,8.88 15.56,8.95 1.82,1.05 2.57,3.5 2.26,6.46 z"
         style="opacity:0.7;fill:url(#linearGradient31);stroke-width:0.76561"
         id="path21" />
      <path
         d="m 33.54,34.36 c -1.21,1.06 -2.48,1.82 -3.69,2.22 -0.05,-0.02 -0.11,-0.05 -0.16,-0.08 l -18.47,-10.67 0.72,-1.26 5.35,0.41 16.25,9.37 z"
         style="mix-blend-mode:multiply;fill:url(#linear-gradient-7);stroke-width:0.76561"
         id="path22" />
      <path
         d="M 26.29,23.08 C 33.33,15.49 36.47,7.86 33.3,6.03 31.85,5.19 29.32,5.72 26.33,7.26"
         style="fill:none;stroke:#555753;stroke-width:0.76561;stroke-linecap:round;stroke-linejoin:round"
         id="path23" />
    </g>
    <ellipse
       cx="16.18"
       cy="17.24"
       rx="11.78"
       ry="6.63"
       transform="rotate(-60,16.1782,17.2386)"
       style="fill:url(#linear-gradient-8);stroke-width:0.76561"
       id="ellipse23" />
    <ellipse
       cx="16.18"
       cy="17.24"
       rx="11.78"
       ry="6.63"
       transform="rotate(-60,16.1782,17.2386)"
       style="opacity:0.7;fill:url(#linear-gradient-9);stroke-width:0.76561"
       id="ellipse24" />
    <path
       d="m 16.98,24.07 c -0.5,0.57 -0.34,1.69 -1.18,2.87 -0.94,0.52 -1.86,0.86 -2.74,0.98 l -0.03,-0.1 0.61,-1.34 2.41,-2.3 0.94,-0.1 z"
       style="mix-blend-mode:multiply;fill:url(#linear-gradient-10);stroke-width:0.76561"
       id="path24" />
    <ellipse
       cx="16.18"
       cy="17.24"
       rx="11.78"
       ry="6.63"
       transform="rotate(-60,16.1782,17.2386)"
       style="fill:none;stroke:#555753;stroke-width:0.535927px;stroke-miterlimit:10"
       id="ellipse25" />
    <path
       d="M 37.46,29.53 C 34.21,35.16 29,38.26 25.82,36.42 L 10.28,27.45 C 7.11,25.62 7.18,19.57 10.43,13.93 13.68,8.29 18.89,5.2 22.06,7.04 c 0.09,0.05 0.17,0.11 0.26,0.17 0.01,0 0.02,0 0.02,0.01 2.11,1.21 15.16,8.73 15.27,8.79 3.17,1.83 3.1,7.89 -0.15,13.52 z"
       style="fill:none;stroke:#555753;stroke-width:0.535927px;stroke-miterlimit:10"
       id="path25" />
    <ellipse
       cx="16.18"
       cy="17.24"
       rx="9.94"
       ry="5"
       transform="rotate(-60,16.1782,17.2386)"
       style="fill:url(#linearGradient32);stroke-width:0.76561"
       id="ellipse26" />
    <path
       d="M 17.13,23.91 9.71,20.8 c -0.07,0.87 -0.41,1.48 -0.79,2.23 -0.31,0.62 -1.3,1.81 -1.44,2.51 -0.32,1.57 1.05,3.1 1.55,4.52 0.62,1.76 1.03,2.75 1.05,4.61 0.03,3.09 -0.99,3.13 -0.8,5.29 0.13,1.46 1.23,2.12 2.04,1.89 0.69,-0.2 1.15,-1.03 1.04,-2.54 -0.11,-1.51 -0.66,-2.32 -0.81,-4.39 -0.18,-2.54 0.04,-6.01 1.97,-6.9 0.55,-0.27 1.05,-0.64 1.45,-1.1 0.81,-0.93 1.26,-2.14 2.15,-3 z"
       style="fill:url(#linear-gradient-12);stroke-width:0.76561"
       id="path26" />
    <path
       d="m 21.38,18.04 c 0.97,-3.89 -9.82,-0.68 -11.1,0.34 v -0.1 c 0.35,-1.15 0.88,-2.35 1.56,-3.53 2.75,-4.76 6.91,-7.49 9.3,-6.11 2.11,1.22 2.15,5.23 0.23,9.41 z"
       style="fill:url(#linear-gradient-13);stroke-width:0.76561"
       id="path27" />
    <path
       d="M 9.65,26.35 C 8.77,25.71 8.32,24.81 8.07,25.57 c -0.25,0.76 0.42,1.68 1.59,2.29 1.17,0.61 2.24,-0.13 2.72,-0.55 0.48,-0.42 -0.26,-0.66 -1.03,-0.62 -0.77,0.04 -1.23,0 -1.7,-0.34 z"
       style="opacity:0.79;fill:url(#linear-gradient-14);stroke-width:0.76561"
       id="path28" />
    <path
       d="m 16.77,24.32 v 0 c -0.66,0.81 -1.09,1.81 -1.78,2.59 -0.4,0.45 -0.91,0.82 -1.45,1.1 -1.93,0.9 -2.15,4.36 -1.98,6.9 0.14,2.07 0.7,2.88 0.81,4.39 0.11,1.51 -0.35,2.35 -1.04,2.54 -0.8,0.23 -1.91,-0.43 -2.04,-1.88 0.39,0.63 1.28,1.18 2.05,0.56 0.76,-0.63 0.57,-2.07 0.16,-3.96 -0.39,-1.9 -0.57,-4.42 0,-6.77 0.57,-2.36 1.87,-2.36 2.75,-2.89 0.88,-0.53 1.36,-1.55 2.51,-2.58 z"
       style="fill:url(#linear-gradient-15);stroke-width:0.76561"
       id="path29" />
    <ellipse
       cx="26.23"
       cy="23.04"
       rx="0.83"
       ry="0.77"
       transform="rotate(-60,26.224,23.0386)"
       style="fill:url(#linear-gradient-16);stroke-width:0.76561"
       id="ellipse29" />
  </g>
</svg>
