<?xml version="1.0" encoding="UTF-8" standalone="no"?>
<svg
   viewBox="0 0 48 48"
   version="1.1"
   id="svg51"
   sodipodi:docname="12-Height to Normal.svg"
   inkscape:version="1.3.2 (091e20e, 2023-11-25, custom)"
   xmlns:inkscape="http://www.inkscape.org/namespaces/inkscape"
   xmlns:sodipodi="http://sodipodi.sourceforge.net/DTD/sodipodi-0.dtd"
   xmlns:xlink="http://www.w3.org/1999/xlink"
   xmlns="http://www.w3.org/2000/svg"
   xmlns:svg="http://www.w3.org/2000/svg">
  <sodipodi:namedview
     id="namedview51"
     pagecolor="#ffffff"
     bordercolor="#666666"
     borderopacity="1.0"
     inkscape:showpageshadow="2"
     inkscape:pageopacity="0.0"
     inkscape:pagecheckerboard="0"
     inkscape:deskcolor="#d1d1d1"
     inkscape:zoom="16.2782"
     inkscape:cx="24.0199"
     inkscape:cy="23.9892"
     inkscape:current-layer="svg51" />
  <defs
     id="defs13">
    <radialGradient
       id="radial-gradient"
       cx="-167.12"
       cy="49.28"
       fx="-167.12"
       fy="49.28"
       r="16.49"
       gradientTransform="translate(266.54 -2.45) scale(1.45 .74)"
       gradientUnits="userSpaceOnUse">
      <stop
         offset=".55"
         stop-color="#1a1718"
         stop-opacity=".5"
         id="stop1" />
      <stop
         offset=".93"
         stop-color="#1a1718"
         stop-opacity="0"
         id="stop2" />
    </radialGradient>
    <linearGradient
       id="linear-gradient"
       x1="16.72"
       y1="10.91"
       x2="23.89"
       y2="36.88"
       gradientTransform="translate(-.52 0) skewX(2.82)"
       gradientUnits="userSpaceOnUse">
      <stop
         offset=".11"
         stop-color="#f0ce99"
         id="stop3" />
      <stop
         offset="1"
         stop-color="#c17d11"
         id="stop4" />
    </linearGradient>
    <linearGradient
       id="linear-gradient-2"
       x1="26.33"
       y1="15.04"
       x2="27.3"
       y2="27.51"
       gradientTransform="translate(-.52 0) skewX(2.82)"
       gradientUnits="userSpaceOnUse">
      <stop
         offset=".11"
         stop-color="#f3d8ae"
         id="stop5" />
      <stop
         offset="1"
         stop-color="#c17d11"
         id="stop6" />
    </linearGradient>
    <linearGradient
       id="linear-gradient-3"
       x1="30.88"
       y1="18.11"
       x2="29.7"
       y2="30.41"
       xlink:href="#linear-gradient-2" />
    <linearGradient
       id="linear-gradient-4"
       x1="27.79"
       y1="18.02"
       x2="30.85"
       y2="41.48"
       xlink:href="#linear-gradient" />
    <linearGradient
       id="linear-gradient-5"
       x1="23.93"
       y1="34.72"
       x2="22.55"
       y2="39.26"
       xlink:href="#linear-gradient" />
    <linearGradient
       id="linear-gradient-6"
       x1="29.44"
       y1="40.79"
       x2="35.49"
       y2="33.69"
       gradientTransform="translate(-.52 0) skewX(2.82)"
       gradientUnits="userSpaceOnUse">
      <stop
         offset="0"
         stop-color="#8f5902"
         id="stop7" />
      <stop
         offset="1"
         stop-color="#4f2e02"
         id="stop8" />
    </linearGradient>
    <linearGradient
       id="linear-gradient-7"
       x1="33.73"
       y1="43.1"
       x2="30.85"
       y2="35.77"
       gradientUnits="userSpaceOnUse">
      <stop
         offset="0"
         stop-color="#8f5902"
         stop-opacity=".8"
         id="stop9" />
      <stop
         offset=".29"
         stop-color="#7c4c02"
         stop-opacity=".86"
         id="stop10" />
      <stop
         offset="1"
         stop-color="#4f2e02"
         id="stop11" />
    </linearGradient>
    <linearGradient
       id="linear-gradient-8"
       x1="25.55"
       y1="39.16"
       x2="33.33"
       y2="30.03"
       xlink:href="#linear-gradient-6" />
    <linearGradient
       id="linear-gradient-9"
       x1="33.65"
       y1="36.43"
       x2="35.37"
       y2="43.1"
       xlink:href="#linear-gradient" />
    <linearGradient
       id="linear-gradient-10"
       x1="32.25"
       y1="36.83"
       x2="40.16"
       y2="27.66"
       xlink:href="#linear-gradient-6" />
    <linearGradient
       id="linear-gradient-11"
       x1="34.43"
       y1="38.54"
       x2="35.35"
       y2="34.1"
       gradientTransform="translate(-.52 0) skewX(2.82)"
       gradientUnits="userSpaceOnUse">
      <stop
         offset="0"
         stop-color="#8f5902"
         stop-opacity=".8"
         id="stop12" />
      <stop
         offset="1"
         stop-color="#4f2e02"
         id="stop13" />
    </linearGradient>
    <linearGradient
       id="linear-gradient-12"
       x1="6.05"
       y1="44.85"
       x2="29.92"
       y2="13.82"
       xlink:href="#linear-gradient-6" />
    <linearGradient
       id="linear-gradient-13"
       x1="12.75"
       y1="41.45"
       x2="12.75"
       y2="27.85"
       xlink:href="#linear-gradient-6" />
    <linearGradient
       id="linear-gradient-14"
       x1="11.88"
       y1="42.73"
       x2="13.13"
       y2="26.5"
       xlink:href="#linear-gradient-6" />
    <linearGradient
       id="linear-gradient-15"
       x1="28.39"
       y1="17.84"
       x2="26.48"
       y2="13.15"
       xlink:href="#linear-gradient-11" />
    <linearGradient
       id="linear-gradient-16"
       x1="21.45"
       y1="27.59"
       x2="33.92"
       y2="16.02"
       xlink:href="#linear-gradient-6" />
    <linearGradient
       id="linear-gradient-17"
       x1="16.93"
       y1="27.51"
       x2="20.41"
       y2="15.08"
       xlink:href="#linear-gradient-6" />
    <linearGradient
       id="linear-gradient-18"
       x1="9.53"
       y1="44.13"
       x2="11.09"
       y2="37.62"
       xlink:href="#linear-gradient-6" />
    <linearGradient
       id="linear-gradient-19"
       x1="17.72"
       y1="42.32"
       x2="19.06"
       y2="33.72"
       xlink:href="#linear-gradient-11" />
    <linearGradient
       id="linear-gradient-20"
       x1="20.2"
       y1="28.35"
       x2="23.67"
       y2="15.97"
       xlink:href="#linear-gradient-6" />
    <linearGradient
       id="linear-gradient-21"
       x1="16.11"
       y1="43.88"
       x2="16.94"
       y2="38.37"
       xlink:href="#linear-gradient-6" />
    <linearGradient
       id="linear-gradient-22"
       x1="6.06"
       y1="39.88"
       x2="6.43"
       y2="33.35"
       xlink:href="#linear-gradient-6" />
    <linearGradient
       id="linear-gradient-23"
       x1="26.04"
       y1="36.95"
       x2="27.1"
       y2="44.17"
       xlink:href="#linear-gradient-6" />
    <linearGradient
       id="linear-gradient-24"
       x1="27.84"
       y1="36.7"
       x2="28.9"
       y2="43.96"
       xlink:href="#linear-gradient-6" />
    <linearGradient
       id="linear-gradient-25"
       x1="29.51"
       y1="36.47"
       x2="30.58"
       y2="43.76"
       xlink:href="#linear-gradient-6" />
    <linearGradient
       id="linear-gradient-26"
       x1="22.25"
       y1="27.47"
       x2="20.5"
       y2="34.87"
       xlink:href="#linear-gradient-6" />
    <linearGradient
       id="linear-gradient-27"
       x1="23.74"
       y1="21.42"
       x2="23"
       y2="25.18"
       xlink:href="#linear-gradient-2" />
    <linearGradient
       id="linear-gradient-28"
       x1="26.97"
       y1="26.45"
       x2="27.61"
       y2="34.76"
       xlink:href="#linear-gradient-2" />
    <linearGradient
       id="linear-gradient-29"
       x1="19.38"
       y1="27.14"
       x2="19.84"
       y2="33.15"
       xlink:href="#linear-gradient-2" />
    <linearGradient
       id="linear-gradient-30"
       x1="31.18"
       y1="26.15"
       x2="32.77"
       y2="29.66"
       xlink:href="#linear-gradient" />
    <linearGradient
       id="linear-gradient-31"
       x1="32.39"
       y1="25.63"
       x2="33.97"
       y2="29.13"
       xlink:href="#linear-gradient" />
    <linearGradient
       id="linear-gradient-32"
       x1="12.33"
       y1="28.45"
       x2="16.26"
       y2="35.6"
       xlink:href="#linear-gradient" />
    <radialGradient
       inkscape:collect="always"
       xlink:href="#radial-gradient"
       id="radialGradient51"
       gradientUnits="userSpaceOnUse"
       gradientTransform="matrix(1.45,0,0,0.74,266.54,-2.45)"
       cx="-167.12"
       cy="49.28"
       fx="-167.12"
       fy="49.28"
       r="16.49" />
    <radialGradient
       inkscape:collect="always"
       xlink:href="#radial-gradient"
       id="radialGradient52"
       gradientUnits="userSpaceOnUse"
       gradientTransform="matrix(1.45,0,0,0.74,266.54,-2.45)"
       cx="-167.12"
       cy="49.28"
       fx="-167.12"
       fy="49.28"
       r="16.49" />
    <linearGradient
       inkscape:collect="always"
       xlink:href="#linear-gradient"
       id="linearGradient52"
       gradientUnits="userSpaceOnUse"
       gradientTransform="matrix(1,0,0.049258,1,-0.52,0)"
       x1="16.72"
       y1="10.91"
       x2="23.89"
       y2="36.88" />
    <linearGradient
       inkscape:collect="always"
       xlink:href="#linear-gradient-2"
       id="linearGradient53"
       gradientUnits="userSpaceOnUse"
       gradientTransform="matrix(1,0,0.049258,1,-0.52,0)"
       x1="26.33"
       y1="15.04"
       x2="27.3"
       y2="27.51" />
    <linearGradient
       inkscape:collect="always"
       xlink:href="#linear-gradient-6"
       id="linearGradient54"
       gradientUnits="userSpaceOnUse"
       gradientTransform="matrix(1,0,0.049258,1,-0.52,0)"
       x1="29.44"
       y1="40.79"
       x2="35.49"
       y2="33.69" />
    <linearGradient
       inkscape:collect="always"
       xlink:href="#linear-gradient-11"
       id="linearGradient55"
       gradientUnits="userSpaceOnUse"
       gradientTransform="matrix(1,0,0.049258,1,-0.52,0)"
       x1="34.43"
       y1="38.54"
       x2="35.35"
       y2="34.1" />
  </defs>
  <g
     id="shadow"
     style="opacity:0.45;isolation:isolate;mix-blend-mode:multiply;stroke-width:0.96088"
     transform="matrix(1.04071,0,0,1.04071,-0.834035,-1.31214)">
    <g
       id="g14"
       style="stroke-width:0.96088">
      <ellipse
         cx="23.88"
         cy="34.03"
         rx="23.01"
         ry="11.78"
         style="fill:url(#radialGradient51);stroke-width:0.96088"
         id="ellipse13" />
      <ellipse
         cx="23.88"
         cy="34.03"
         rx="23.01"
         ry="11.78"
         style="fill:url(#radialGradient52);stroke-width:0.96088"
         id="ellipse14" />
    </g>
  </g>
  <g
     id="ART"
     style="isolation:isolate;stroke-width:0.96088"
     transform="matrix(1.04071,0,0,1.04071,-0.834035,-1.31214)">
    <g
       id="g50"
       style="stroke-width:0.96088">
      <g
         id="g19"
         style="stroke-width:0.96088">
        <line
           x1="1.13"
           y1="28.76"
           x2="8.15"
           y2="31.64"
           style="fill:none;stroke:#8ae234;stroke-width:0.672616px;stroke-miterlimit:10"
           id="line14" />
        <line
           x1="5.53"
           y1="23.61"
           x2="11.49"
           y2="27.66"
           style="fill:none;stroke:#8ae234;stroke-width:0.672616px;stroke-miterlimit:10"
           id="line15" />
        <line
           x1="10.01"
           y1="18.38"
           x2="14.76"
           y2="23.75"
           style="fill:none;stroke:#8ae234;stroke-width:0.672616px;stroke-miterlimit:10"
           id="line16" />
        <line
           x1="14.67"
           y1="13.28"
           x2="17.84"
           y2="19.71"
           style="fill:none;stroke:#8ae234;stroke-width:0.672616px;stroke-miterlimit:10"
           id="line17" />
        <line
           x1="19.38"
           y1="8.4"
           x2="20.87"
           y2="15.45"
           style="fill:none;stroke:#8ae234;stroke-width:0.672616px;stroke-miterlimit:10"
           id="line18" />
        <line
           x1="24"
           y1="3.56"
           x2="24"
           y2="11.14"
           style="fill:none;stroke:#8ae234;stroke-width:0.672616px;stroke-miterlimit:10"
           id="line19" />
      </g>
      <g
         id="g25"
         style="stroke-width:0.96088">
        <line
           x1="46.87"
           y1="28.76"
           x2="39.85"
           y2="31.64"
           style="fill:none;stroke:#8ae234;stroke-width:0.672616px;stroke-miterlimit:10"
           id="line20" />
        <line
           x1="42.47"
           y1="23.61"
           x2="36.51"
           y2="27.66"
           style="fill:none;stroke:#8ae234;stroke-width:0.672616px;stroke-miterlimit:10"
           id="line21" />
        <line
           x1="37.99"
           y1="18.38"
           x2="33.24"
           y2="23.75"
           style="fill:none;stroke:#8ae234;stroke-width:0.672616px;stroke-miterlimit:10"
           id="line22" />
        <line
           x1="33.33"
           y1="13.28"
           x2="30.16"
           y2="19.71"
           style="fill:none;stroke:#8ae234;stroke-width:0.672616px;stroke-miterlimit:10"
           id="line23" />
        <line
           x1="28.62"
           y1="8.4"
           x2="27.13"
           y2="15.45"
           style="fill:none;stroke:#8ae234;stroke-width:0.672616px;stroke-miterlimit:10"
           id="line24" />
        <line
           x1="24"
           y1="3.56"
           x2="24"
           y2="11.14"
           style="fill:none;stroke:#8ae234;stroke-width:0.672616px;stroke-miterlimit:10"
           id="line25" />
      </g>
      <g
         id="g49"
         style="stroke-width:0.96088">
        <path
           d="m 10.76,35.07 c 1.7,-1.73 2.58,-2.85 3.19,-3.36 0.61,-0.51 1.9,0.2 2.34,0.71 0.44,0.51 1.4,0.81 1.4,0.81 0,0 1.13,1.63 1.69,2.34 h 1.78 c 0.73,0 0.43,2.79 0.43,2.79"
           style="fill:none;stroke-width:0.96088"
           id="path25" />
        <path
           d="m 24,10.96 -3.13,4.37 -2.03,1.22 -1.29,3.46 -1.8,1.73 -1.87,4.37 -0.81,-1.42 c 0,0 -3.33,4.58 -4.39,6.41 -1.06,1.83 -4.2,3.97 -4.2,3.97 h 6.29 c 0,0 -2.18,2.44 -3.19,3.15 h 6.18 c 2.62,0 4.46,-0.92 4.46,-0.92 0,0 -1.06,1.73 -2.24,3.26 h 6.18 c 3.56,0 6.5,-2.03 6.5,-2.03 0,0 1.95,1.22 4.36,1.22 h 4.92 L 35.58,36.6 h 9.64 c 0,0 -2.22,-2.54 -2.55,-2.85 0,0 -1.48,-0.31 -2.37,-1.22 -0.89,-0.91 -2.89,-5.29 -2.89,-5.29 0,0 -2.4,-1.93 -3.21,-3.36 -0.81,-1.43 -2.82,-3.87 -3.13,-5.9 l -3.02,-3.87 -1.28,1.53 c 0,0 -2.28,-3.66 -2.75,-4.68 z"
           style="fill:url(#linearGradient52);stroke-width:0.96088"
           id="path26" />
        <polygon
           points="26.42,15.3 24,10.96 23.59,14.1 24.36,15.39 24.65,17.98 27.01,20.45 26.5,17.88 26.02,16.77 27.71,18.47 30.02,20.13 28.42,17.57 "
           style="fill:url(#linearGradient53);stroke-width:0.96088"
           id="polygon26" />
        <path
           d="m 28.16,17.16 c 0.67,1.18 1.97,1.82 1.97,1.82 0,0 1.15,2.71 1.53,3.2 0.38,0.49 2.82,2.61 2.82,2.61 l -1.34,-2.46 -1.5,-2.46 -0.59,-1.9 -3.02,-3.87 c 0,0 -0.55,1.72 0.12,3.05 z"
           style="fill:url(#linear-gradient-3);stroke-width:0.96088"
           id="path27" />
        <path
           d="M 38.7,32.47 C 38.54,32.41 35,28.95 35,28.95 l -1.82,-0.1 -6.16,-3.83 -2.3,-1.19 -0.9,2.28 0.33,1.19 -0.42,1.24 0.17,1.55 -1.31,3.31 -0.61,1.55 0.58,1.97 -2.09,0.88 -1.99,2.79 c 0,0 4.32,0.05 5.48,-0.1 1.16,-0.15 4.69,-2.07 4.69,-2.07 0,0 0.91,1.19 3.11,1.4 2.2,0.21 6.15,-0.07 6.15,-0.07 L 35.55,36.6 h 9.64 l -2.55,-2.85 c 0,0 -3.29,-1.02 -3.95,-1.28 z"
           style="fill:url(#linear-gradient-4);stroke-width:0.96088"
           id="path28" />
        <polygon
           points="23.28,35.58 22.91,35.86 23.54,37.2 25.14,37.84 25.68,39.12 26.19,37.98 25.8,36.78 24.2,35.12 "
           style="fill:url(#linear-gradient-5);stroke-width:0.96088"
           id="polygon28" />
        <path
           d="m 34.01,36.61 c -0.15,0.1 -0.52,1.29 -0.52,1.29 l 1.74,1.76 c 0,0 -2.44,0.16 -3.46,0.16 -1.02,0 -2.13,-1.09 -2.13,-1.09 L 30.21,37.44 34,36.61 Z"
           style="fill:url(#linearGradient54);stroke-width:0.96088"
           id="path29" />
        <path
           d="m 28.67,38.42 c 0,0 1.33,-1.19 1.64,-1.35 0.31,-0.16 1.73,-0.47 1.73,-0.47 l 1.32,-0.31 1.03,0.26 -1.83,0.67 -0.6,0.72 -0.86,-0.21 c 0,0 -0.25,0.31 -0.39,0.72 -0.14,0.41 0.64,0.98 0.64,0.98 0,0 -1.73,-0.57 -2.66,-1.03 z"
           style="fill:url(#linear-gradient-7);stroke-width:0.96088"
           id="path30" />
        <polygon
           points="26.19,37.98 26.27,39.54 27.73,38.94 29.12,38.83 30.22,37.44 32.51,36.51 29.53,36.6 26.98,34.85 28.04,37.01 27.61,37.84 26.44,37.19 25.8,36.78 "
           style="fill:url(#linear-gradient-8);stroke-width:0.96088"
           id="polygon30" />
        <polygon
           points="36.08,39.54 37.92,39.75 35.56,36.6 34.06,35.31 32.59,35.31 34.38,36.56 "
           style="fill:url(#linear-gradient-9);stroke-width:0.96088"
           id="polygon31" />
        <path
           d="m 45.2,36.6 h -9.64 c -1.11,-1.32 -2.27,-1.43 -2.27,-1.43 -1.17,-0.41 -2.44,-0.71 -2.44,-0.71 l -3.1,-4.63 0.76,-0.72 4.64,4.32 3.92,0.49 1.66,-0.51 -3.35,-3.58 -1.91,-1.48 0.12,-1.83 3.29,2.84 0.51,-2.13 c 0,0 0.01,0.02 0.02,0.05 0.23,0.49 2.04,4.38 2.87,5.25 0.88,0.91 2.37,1.22 2.37,1.22 0.33,0.3 2.55,2.85 2.55,2.85 z"
           style="fill:url(#linear-gradient-10);stroke-width:0.96088"
           id="path31" />
        <path
           d="M 39.61,36.37 C 39.5,36.34 38.04,35.66 38.04,35.66 l 0.41,-0.78 0.88,-0.48 h -2.34 l -3.93,-0.41 1.28,1.15 1.23,1.45 z"
           style="fill:url(#linearGradient55);stroke-width:0.96088"
           id="path32" />
        <path
           d="m 18.02,29.57 c -0.05,0.91 0.32,2.14 0.32,2.14 l 1.32,1.32 c 0,0 1.65,-0.71 2.24,-1.23 l 2.01,-1.72 c 0,0 -0.59,2.84 -0.66,3.45 -0.08,0.61 -0.75,1.73 -0.75,1.73 l 1.04,1.93 -1.59,1.73 c 0,0 -1.17,-0.3 -1.68,-0.2 -0.38,0.08 -1.08,1.22 -1.44,1.83 h -2.87 c 1.18,-1.52 2.24,-3.25 2.24,-3.25 0,0 -1.84,0.91 -4.45,0.91 H 7.57 c 1.01,-0.71 3.19,-3.15 3.19,-3.15 H 4.47 c 0,0 3.14,-2.14 4.2,-3.97 1.06,-1.83 4.4,-6.4 4.4,-6.4 l 0.8,1.42 1.87,-4.38 1.8,-1.72 c 0,0 2.2,-2.03 3.74,-2.75 0,0 -0.95,1.94 -1.31,3.06 l 0.75,0.32 1.04,0.97 1.18,1.79 -1.44,-1.24 -0.94,-0.78 v 1.66 l 0.6,0.92 0.13,0.69 -0.57,0.36 2.01,2.44 -4.09,-2.24 -0.94,2.13 0.12,0.57 2.08,1.89 -1.9,-0.97 0.02,0.75 z"
           style="fill:url(#linear-gradient-12);stroke-width:0.96088"
           id="path33" />
        <path
           d="m 10.29,34.89 c 0.49,-0.46 1.65,-2.24 1.65,-2.24 0,0 1.34,-1.89 1.6,-2.09 0.26,-0.2 1.27,-0.38 1.27,-0.38 l 1.22,-1.39 0.67,-0.35 c 0,0 -0.59,0.78 -0.64,0.87 -0.05,0.09 -0.94,1.45 -0.94,1.45 l 1,-0.35 1.25,-0.17 -1.11,0.52 -1.47,0.55 -0.98,0.17 -1.99,2.42 -1.05,1.15 -0.47,-0.18 z"
           style="fill:url(#linear-gradient-13);stroke-width:0.96088"
           id="path34" />
        <path
           d="m 8.24,31.75 c 0,0 2.19,-1.55 3,-2.38 0.81,-0.83 2.23,-1.86 2.23,-1.86 h 1.37 c 0.48,0 3.82,-2.3 3.82,-2.3 0,0 -0.15,-1.43 0.14,-1.89 0.29,-0.46 0.75,-0.88 0.75,-0.88 v -1.19 c 0,0 -1.68,1.35 -1.99,1.6 -0.31,0.25 -1.52,2.23 -1.52,2.23 l -0.72,0.36 0.46,-3.69 -1.85,4.38 c 0,0 -1.02,0.82 -1.42,1.13 -0.4,0.31 0.62,-2.55 0.62,-2.55 0,0 -1.85,2.29 -2.44,3.27 -0.59,0.98 -2.45,3.78 -2.45,3.78 z"
           style="fill:url(#linear-gradient-14);stroke-width:0.96088"
           id="path35" />
        <polygon
           points="28.42,17.57 26.75,15.64 28.03,14.11 "
           style="fill:url(#linear-gradient-15);stroke-width:0.96088"
           id="polygon35" />
        <polygon
           points="23.59,14.1 24.41,15.34 24.65,17.98 25,18.7 27.7,22.59 28.99,24.91 28.58,21.96 27.14,18.76 29.17,20.82 29.94,22.54 31.38,24.39 33.47,28.36 35.38,29.84 34.58,30.04 27.03,25.02 25.1,20.77 21.62,17.11 19.88,17.51 17.54,20.02 18.83,16.55 20.87,15.33 24,10.96 "
           style="fill:#6d4100;stroke-width:0.96088"
           id="polygon36" />
        <polygon
           points="20.87,15.33 24,10.96 23.59,14.1 24.41,15.34 24.65,17.98 25,18.7 27.7,22.59 28.99,24.91 28.58,21.96 27.14,18.76 29.17,20.82 29.94,22.54 31.38,24.39 33.47,28.36 35.38,29.84 34.58,30.04 31.91,28.26 30.48,28.09 27.03,25.02 25.1,20.77 21.62,17.11 19.88,17.51 17.54,20.02 18.83,16.55 "
           style="fill:url(#linear-gradient-16);stroke-width:0.96088"
           id="polygon37" />
        <polygon
           points="21.61,16.89 21.18,15.81 22.24,14.72 23.08,12.29 20.78,15.24 18.72,16.58 17.84,19.33 19.82,17.41 "
           style="fill:url(#linear-gradient-17);stroke-width:0.96088"
           id="polygon38" />
        <path
           d="m 7.57,38.22 3.19,-3.15 1.06,-1.15 2.48,-1.55 c 0,0 -0.27,0.98 -0.25,1.4 0.02,0.42 1.18,1.29 1.18,1.29 l 0.18,1.5 1.71,1.24 -0.95,0.16 -1.71,-1.19 -2.3,-0.26 c 0,0 -0.52,0.21 -0.7,0.93 -0.18,0.72 -0.11,1.03 -0.11,1.03 z"
           style="fill:url(#linear-gradient-18);stroke-width:0.96088"
           id="path38" />
        <path
           d="m 17.7,35.47 c 0.58,-0.05 1.07,0.32 1.68,0.11 0.61,-0.21 1.59,1.29 1.59,1.29 0,0 -0.07,-1.35 0.23,-1.76 0.3,-0.41 1.18,-0.93 1.18,-0.93 0,0 -0.3,-0.72 -0.33,-1.29 -0.03,-0.57 0.72,-1.55 0.72,-1.55 0,0 -1.73,1.55 -2.56,2.12 -0.83,0.57 -1.05,1.29 -1.05,1.29 z"
           style="fill:url(#linear-gradient-19);stroke-width:0.96088"
           id="path39" />
        <polygon
           points="24.23,18.19 24.36,15.39 22.67,17.88 23.9,19.02 "
           style="fill:url(#linear-gradient-20);stroke-width:0.96088"
           id="polygon39" />
        <path
           d="m 17.38,40.8 c 0.18,-0.62 0.66,-1.66 0.91,-2.07 0.25,-0.41 2.19,-0.93 2.19,-0.93 0,0 -1.44,-0.1 -2.08,-0.05 -0.64,0.05 -0.94,0.41 -0.94,0.41 l -1.5,2.4 z"
           style="fill:url(#linear-gradient-21);stroke-width:0.96088"
           id="path40" />
        <path
           d="m 4.47,35.07 c 0,0 3.89,0.14 3.83,-0.01 -0.06,-0.15 -0.58,-0.93 -0.39,-1.45 0.19,-0.52 2.71,-3.21 2.71,-3.21 0,0 -2.92,2.38 -3.23,2.54 -0.31,0.16 -2.92,2.14 -2.92,2.14 z"
           style="fill:url(#linear-gradient-22);stroke-width:0.96088"
           id="path41" />
        <polygon
           points="25.39,39.86 26.19,37.98 25.8,36.78 26.91,38.07 26.74,39.49 "
           style="fill:#6d4100;stroke-width:0.96088"
           id="polygon41" />
        <polygon
           points="27.31,31.03 27,31.54 26.83,32.78 25.48,33.24 27.19,33.42 "
           style="fill:url(#linear-gradient-23);stroke-width:0.96088"
           id="polygon42" />
        <polygon
           points="29.23,34.3 28.16,33.79 27.84,33.15 28.99,33.38 "
           style="fill:url(#linear-gradient-24);stroke-width:0.96088"
           id="polygon43" />
        <polygon
           points="31.2,34.94 30.42,34.48 29.66,34.43 30.45,35.03 "
           style="fill:url(#linear-gradient-25);stroke-width:0.96088"
           id="polygon44" />
        <polygon
           points="23.74,28.54 24.16,27.3 23.83,26.11 24.73,23.83 22.48,25.56 22.74,27.44 23.14,28.22 22.49,29.42 21.86,28.22 21.47,29.93 20.95,31.77 21.91,31.81 23.91,30.09 "
           style="fill:url(#linear-gradient-26);stroke-width:0.96088"
           id="polygon45" />
        <path
           d="m 21.62,17.11 -0.24,1.55 1.5,2.53 c 0,0 0.03,-0.37 0.02,-0.51 -0.01,-0.14 -0.55,-1.52 -0.55,-1.52 l 2.38,2.07 2.3,3.78 -1.93,-4.24 -3.48,-3.67 z"
           style="fill:url(#linear-gradient-27);stroke-width:0.96088"
           id="path45" />
        <path
           d="m 24,10.96 -3.13,4.37 -2.03,1.22 -1.29,3.46 -1.8,1.73 -1.87,4.37 -0.81,-1.42 c 0,0 -3.33,4.58 -4.39,6.41 -1.06,1.83 -4.2,3.97 -4.2,3.97 h 6.29 c 0,0 -2.18,2.44 -3.19,3.15 h 6.18 c 2.62,0 4.46,-0.92 4.46,-0.92 0,0 -1.06,1.73 -2.24,3.26 h 6.18 c 3.56,0 6.5,-2.03 6.5,-2.03 0,0 1.95,1.22 4.36,1.22 h 4.92 L 35.58,36.6 h 9.64 c 0,0 -2.22,-2.54 -2.55,-2.85 0,0 -1.48,-0.31 -2.37,-1.22 -0.89,-0.91 -2.89,-5.29 -2.89,-5.29 0,0 -2.4,-1.93 -3.21,-3.36 -0.81,-1.43 -2.82,-3.87 -3.13,-5.9 l -3.02,-3.87 -1.28,1.53 c 0,0 -2.28,-3.66 -2.75,-4.68 z"
           style="fill:none;stroke:#6d4100;stroke-width:0.672616px;stroke-linecap:round;stroke-linejoin:round"
           id="path46" />
        <polygon
           points="32.03,29.74 30.48,28.09 27.03,25.02 24.73,23.83 23.83,26.11 24.16,27.3 26.37,28.36 25,26.57 26.01,25.97 27.63,26.98 28.74,28.36 "
           style="fill:url(#linear-gradient-28);stroke-width:0.96088"
           id="polygon46" />
        <polygon
           points="17.82,27.9 19.9,29.79 19.61,28.59 18.99,27.58 20.01,27.21 22.74,27.44 18.65,25.2 17.7,27.33 "
           style="fill:url(#linear-gradient-29);stroke-width:0.96088"
           id="polygon47" />
        <polygon
           points="34.87,31.07 34.26,31.07 33.52,30.23 34.41,30.44 "
           style="fill:url(#linear-gradient-30);stroke-width:0.96088"
           id="polygon48" />
        <polygon
           points="35.48,31.03 36.41,31.37 36.99,32.39 35.98,32.3 36.13,31.71 "
           style="fill:url(#linear-gradient-31);stroke-width:0.96088"
           id="polygon49" />
        <path
           d="m 14.72,32.28 2.01,0.27 0.98,1.13 1.38,0.68 -1.86,-0.14 -0.69,1.04 -0.77,1.26 c 0,0 -0.67,-1.29 -0.54,-1.45 0.13,-0.16 -1.18,-1.29 -1.18,-1.29 l 0.25,-1.4 0.42,-0.09 z"
           style="fill:url(#linear-gradient-32);stroke-width:0.96088"
           id="path49" />
      </g>
    </g>
  </g>
</svg>
