<?xml version="1.0" encoding="UTF-8"?><svg xmlns="http://www.w3.org/2000/svg" xmlns:xlink="http://www.w3.org/1999/xlink" viewBox="0 0 48 48"><defs><radialGradient id="radial-gradient" cx="108.22" cy="-55.12" fx="108.22" fy="-55.12" r="8.81" gradientTransform="translate(-28.32 -222.8) rotate(90) scale(2.4 .96)" gradientUnits="userSpaceOnUse"><stop offset=".47" stop-color="#2c2c2c" stop-opacity=".5"/><stop offset=".99" stop-color="#2c2c2c" stop-opacity="0"/></radialGradient><linearGradient id="linear-gradient" x1="14.13" y1="16.74" x2="13.43" y2="15.7" gradientTransform="matrix(1, 0, 0, 1, 0, 0)" gradientUnits="userSpaceOnUse"><stop offset=".44" stop-color="#fff"/><stop offset="1" stop-color="#fce94f"/></linearGradient><linearGradient id="linear-gradient-2" x1="11.34" y1="21.7" x2="10.64" y2="20.65" xlink:href="#linear-gradient"/><linearGradient id="linear-gradient-3" x1="16.92" y1="11.79" x2="16.22" y2="10.74" xlink:href="#linear-gradient"/><linearGradient id="linear-gradient-4" x1="24.08" y1="10.8" x2="21.34" y2="6.71" gradientTransform="matrix(1, 0, 0, 1, 0, 0)" gradientUnits="userSpaceOnUse"><stop offset="0" stop-color="#fff"/><stop offset="1" stop-color="#fce94f"/></linearGradient><linearGradient id="linear-gradient-5" x1="19.71" y1="6.83" x2="19.01" y2="5.78" xlink:href="#linear-gradient"/><linearGradient id="linear-gradient-6" x1="33.4" y1="38.79" x2="31.27" y2="35.61" gradientTransform="matrix(1, 0, 0, 1, 0, 0)" gradientUnits="userSpaceOnUse"><stop offset="0" stop-color="#fce94f"/><stop offset=".99" stop-color="#b48000"/></linearGradient><linearGradient id="linear-gradient-7" x1="38.98" y1="28.88" x2="36.85" y2="25.7" gradientTransform="matrix(1, 0, 0, 1, 0, 0)" gradientUnits="userSpaceOnUse"><stop offset="0" stop-color="#cfdeef"/><stop offset=".99" stop-color="#4570ab"/></linearGradient><linearGradient id="linear-gradient-8" x1="36.19" y1="33.83" x2="34.05" y2="30.65" xlink:href="#linear-gradient-7"/><linearGradient id="linear-gradient-9" x1="30.6" y1="17.44" x2="28.47" y2="14.26" gradientTransform="matrix(1, 0, 0, 1, 0, 0)" gradientUnits="userSpaceOnUse"><stop offset="0" stop-color="#cfdeef"/><stop offset=".99" stop-color="#729fcf"/></linearGradient><linearGradient id="linear-gradient-10" x1="29.67" y1="14.04" x2="26.93" y2="9.96" gradientTransform="matrix(1, 0, 0, 1, 0, 0)" gradientUnits="userSpaceOnUse"><stop offset="0" stop-color="#fff"/><stop offset="1" stop-color="#b1cae4"/></linearGradient><linearGradient id="linear-gradient-11" x1="25.3" y1="10.07" x2="24.6" y2="9.03" gradientTransform="matrix(1, 0, 0, 1, 0, 0)" gradientUnits="userSpaceOnUse"><stop offset=".47" stop-color="#fff"/><stop offset="1" stop-color="#b1cae4"/></linearGradient><linearGradient id="linear-gradient-12" x1="36.19" y1="20.69" x2="34.06" y2="17.5" xlink:href="#linear-gradient-9"/><linearGradient id="linear-gradient-13" x1="35.26" y1="17.29" x2="32.52" y2="13.2" xlink:href="#linear-gradient-10"/><linearGradient id="linear-gradient-14" x1="30.89" y1="13.32" x2="30.19" y2="12.27" gradientTransform="matrix(1, 0, 0, 1, 0, 0)" gradientUnits="userSpaceOnUse"><stop offset=".45" stop-color="#fff"/><stop offset="1" stop-color="#b1cae4"/></linearGradient><linearGradient id="linear-gradient-15" x1="41.78" y1="23.93" x2="39.65" y2="20.75" xlink:href="#linear-gradient-9"/><linearGradient id="linear-gradient-16" x1="40.85" y1="20.53" x2="38.11" y2="16.44" xlink:href="#linear-gradient-10"/><linearGradient id="linear-gradient-17" x1="36.48" y1="16.56" x2="35.78" y2="15.51" gradientTransform="matrix(1, 0, 0, 1, 0, 0)" gradientUnits="userSpaceOnUse"><stop offset=".38" stop-color="#fff"/><stop offset="1" stop-color="#b1cae4"/></linearGradient><linearGradient id="linear-gradient-18" x1="33.41" y1="20.49" x2="39" y2="20.49" xlink:href="#linear-gradient-9"/><linearGradient id="linear-gradient-19" x1="30.63" y1="25.45" x2="36.21" y2="25.45" xlink:href="#linear-gradient-9"/><linearGradient id="linear-gradient-20" x1="27.83" y1="17.25" x2="33.42" y2="17.25" xlink:href="#linear-gradient-9"/><linearGradient id="linear-gradient-21" x1="16.65" y1="23.06" x2="30.63" y2="23.06" xlink:href="#linear-gradient-9"/><linearGradient id="linear-gradient-22" x1="16.65" y1="23.06" x2="30.63" y2="23.06" gradientTransform="matrix(1, 0, 0, 1, 0, 0)" gradientUnits="userSpaceOnUse"><stop offset="0" stop-color="#fce94f"/><stop offset=".99" stop-color="#c4a000"/></linearGradient><linearGradient id="linear-gradient-23" x1="22.24" y1="14.01" x2="27.83" y2="14.01" xlink:href="#linear-gradient-9"/><linearGradient id="linear-gradient-24" x1="27.83" y1="30.39" x2="33.42" y2="30.39" xlink:href="#linear-gradient-9"/><linearGradient id="linear-gradient-25" x1="25.04" y1="22.21" x2="30.63" y2="22.21" xlink:href="#linear-gradient-9"/><linearGradient id="linear-gradient-26" x1="13.86" y1="23.91" x2="25.05" y2="23.91" xlink:href="#linear-gradient-9"/><linearGradient id="linear-gradient-27" x1="13.86" y1="23.91" x2="25.05" y2="23.91" xlink:href="#linear-gradient-22"/><linearGradient id="linear-gradient-28" x1="11.06" y1="24.78" x2="19.46" y2="24.78" xlink:href="#linear-gradient-22"/><linearGradient id="linear-gradient-29" x1="8.27" y1="25.63" x2="13.86" y2="25.63" xlink:href="#linear-gradient-22"/><clipPath id="clippath"><polygon points="8.27 21.82 8.27 26.21 11.07 30.02 13.86 29.45 13.86 25.06 11.06 21.25 8.27 21.82" style="fill:none;"/></clipPath><clipPath id="clippath-1"><polygon points="19.46 28.3 16.66 24.49 16.65 24.49 16.65 20.11 13.85 16.29 11.06 16.86 11.06 21.25 13.86 25.06 13.87 25.06 13.88 29.44 16.67 33.26 19.46 32.69 19.46 28.3" style="fill:none;"/></clipPath><clipPath id="clippath-2"><polygon points="25.05 31.54 22.25 27.73 22.25 27.73 22.25 23.35 19.45 19.54 19.45 15.15 16.65 11.34 13.86 11.91 13.87 16.29 16.66 20.11 16.66 24.49 19.46 28.3 19.46 32.68 22.26 36.49 25.05 35.92 25.05 31.54" style="fill:none;"/></clipPath><clipPath id="clippath-3"><polygon points="30.63 34.78 27.84 30.97 27.84 26.59 25.04 22.78 25.04 18.39 22.24 14.58 22.24 10.2 19.45 6.38 16.65 6.95 16.65 11.34 19.45 15.15 19.45 19.54 22.25 23.35 22.25 27.73 25.04 31.54 25.05 35.93 27.84 39.74 30.63 39.17 30.63 34.78" style="fill:none;"/></clipPath></defs><g style="isolation:isolate;"><g id="shadow" style="mix-blend-mode:multiply; opacity:.45;"><ellipse cx="24.39" cy="37.08" rx="8.13" ry="20.33" transform="translate(-18.88 46.94) rotate(-69.51)" style="fill:url(#radial-gradient);"/></g><g id="ART"><g><g><polygon points="35.66 19.77 32.86 20.34 30.62 21.63 33.42 21.06 36.21 24.88 36.21 29.26 38.45 27.97 38.45 23.58 35.66 19.77" style="fill:none; stroke:#3465a4; stroke-linecap:round; stroke-linejoin:round; stroke-width:1.4px;"/><polygon points="32.86 24.72 30.07 25.29 27.83 26.59 30.62 26.02 33.41 29.83 33.41 34.21 35.66 32.92 35.66 28.54 32.86 24.72" style="fill:none; stroke:#3465a4; stroke-linecap:round; stroke-linejoin:round; stroke-width:1.4px;"/></g><polygon points="32.87 11.57 30.07 12.14 27.83 13.44 30.62 12.87 33.42 16.68 33.42 21.07 35.66 19.77 35.66 15.39 32.87 11.57" style="fill:none; stroke:#3465a4; stroke-linecap:round; stroke-linejoin:round; stroke-width:1.4px;"/><polygon points="38.46 14.82 35.66 15.39 33.42 16.68 36.21 16.11 39.01 19.92 39.01 24.31 41.25 23.01 41.25 18.63 38.46 14.82" style="fill:none; stroke:#3465a4; stroke-linecap:round; stroke-linejoin:round; stroke-width:1.4px;"/></g><g><polygon points="16.11 15 13.31 15.57 11.07 16.87 13.86 16.3 16.66 20.11 16.66 24.49 18.9 23.2 18.9 18.82 16.11 15" style="fill:none; stroke:#c4a000; stroke-linecap:round; stroke-linejoin:round; stroke-width:1.4px;"/><polygon points="13.32 19.96 10.52 20.53 8.28 21.82 11.07 21.25 13.87 25.07 13.87 29.45 16.11 28.16 16.11 23.77 13.32 19.96" style="fill:none; stroke:#c4a000; stroke-linecap:round; stroke-linejoin:round; stroke-width:1.4px;"/><polygon points="18.9 10.04 16.1 10.61 13.86 11.91 16.65 11.34 19.45 15.15 19.45 19.54 21.69 18.24 21.69 13.86 18.9 10.04" style="fill:none; stroke:#c4a000; stroke-linecap:round; stroke-linejoin:round; stroke-width:1.4px;"/><polygon points="21.69 5.09 18.89 5.66 16.65 6.95 19.45 6.38 22.24 10.19 22.24 14.58 24.48 13.28 24.48 8.9 21.69 5.09" style="fill:none; stroke:#c4a000; stroke-linecap:round; stroke-linejoin:round; stroke-width:1.4px;"/><polygon points="30.08 29.68 27.29 30.25 25.04 31.54 27.84 30.97 30.63 34.78 30.63 39.17 32.87 37.87 32.88 33.49 30.08 29.68" style="fill:none; stroke:#c4a000; stroke-linecap:round; stroke-linejoin:round; stroke-width:1.4px;"/></g><polygon points="30.64 34.8 27.84 30.98 27.84 26.6 25.04 22.78 25.04 18.4 22.24 14.58 22.24 10.19 19.45 6.38 16.65 6.95 16.65 11.34 16.65 11.34 13.86 11.91 13.86 16.29 13.86 16.3 11.07 16.87 11.07 21.25 11.07 21.25 8.28 21.82 8.28 26.21 11.08 30.02 13.87 29.45 13.87 29.45 13.87 29.45 16.67 33.27 19.46 32.7 22.26 36.51 25.05 35.94 27.85 39.75 30.64 39.18 30.64 34.8" style="fill:none; stroke:#c4a000; stroke-linecap:round; stroke-linejoin:round; stroke-width:1.4px;"/><polygon points="11.07 16.87 13.31 15.57 16.11 15 13.86 16.3 11.07 16.87" style="fill:url(#linear-gradient);"/><polygon points="8.28 21.82 10.52 20.53 13.32 19.96 11.07 21.25 8.28 21.82" style="fill:url(#linear-gradient-2);"/><polygon points="13.86 11.91 16.1 10.61 18.9 10.04 16.65 11.34 13.86 11.91" style="fill:url(#linear-gradient-3);"/><polygon points="19.45 6.38 21.69 5.09 24.48 8.9 22.24 10.19 19.45 6.38" style="fill:url(#linear-gradient-4);"/><polygon points="16.65 6.95 18.89 5.66 21.69 5.09 19.45 6.38 16.65 6.95" style="fill:url(#linear-gradient-5);"/><polygon points="30.63 34.78 30.63 39.17 32.87 37.87 32.88 33.49 30.63 34.78" style="fill:url(#linear-gradient-6);"/><polygon points="36.21 24.88 36.21 29.26 38.45 27.97 38.45 23.58 36.21 24.88" style="fill:url(#linear-gradient-7);"/><polygon points="33.41 29.83 33.41 34.21 35.66 32.92 35.66 28.54 33.41 29.83" style="fill:url(#linear-gradient-8);"/><g><polygon points="27.83 13.44 27.83 17.82 30.07 16.53 30.07 12.14 27.83 13.44" style="fill:url(#linear-gradient-9);"/><polygon points="27.28 8.33 24.48 8.9 22.24 10.2 25.04 9.62 27.83 13.44 27.83 17.82 30.07 16.53 30.07 12.14 27.28 8.33" style="fill:none; stroke:#3465a4; stroke-linecap:round; stroke-linejoin:round; stroke-width:1.4px;"/><polygon points="25.04 9.62 27.28 8.33 30.07 12.14 27.83 13.44 25.04 9.62" style="fill:url(#linear-gradient-10);"/><polygon points="22.24 10.2 24.48 8.9 27.28 8.33 25.04 9.62 22.24 10.2" style="fill:url(#linear-gradient-11);"/></g><g><polygon points="33.42 16.68 33.42 21.07 35.66 19.77 35.66 15.39 33.42 16.68" style="fill:url(#linear-gradient-12);"/><polygon points="30.62 12.87 32.87 11.57 35.66 15.39 33.42 16.68 30.62 12.87" style="fill:url(#linear-gradient-13);"/><polygon points="27.83 13.44 30.07 12.14 32.87 11.57 30.62 12.87 27.83 13.44" style="fill:url(#linear-gradient-14);"/></g><g><polygon points="39.01 19.92 39.01 24.31 41.25 23.01 41.25 18.63 39.01 19.92" style="fill:url(#linear-gradient-15);"/><polygon points="36.21 16.11 38.46 14.82 41.25 18.63 39.01 19.92 36.21 16.11" style="fill:url(#linear-gradient-16);"/><polygon points="33.42 16.68 35.66 15.39 38.46 14.82 36.21 16.11 33.42 16.68" style="fill:url(#linear-gradient-17);"/></g><polygon points="33.41 16.68 33.42 21.07 36.21 24.88 39 24.31 39 19.92 36.21 16.11 33.41 16.68" style="fill:url(#linear-gradient-18);"/><g><polygon points="30.63 21.64 30.63 26.02 33.42 29.83 36.21 29.26 36.21 24.88 33.42 21.06 30.63 21.64" style="fill:url(#linear-gradient-19);"/><polygon points="27.83 13.44 27.83 17.82 30.63 21.64 33.42 21.06 33.42 16.68 30.62 12.87 27.83 13.44" style="fill:url(#linear-gradient-20);"/></g><g><polygon points="30.63 34.78 27.84 30.97 27.84 26.59 25.04 22.78 25.04 18.39 22.24 14.58 22.24 10.2 19.45 6.38 16.65 6.95 16.65 11.34 19.45 15.15 19.45 19.54 22.25 23.35 22.25 27.73 25.04 31.54 25.05 35.93 27.84 39.74 30.63 39.17 30.63 34.78" style="fill:url(#linear-gradient-21);"/><polygon points="30.63 34.78 27.84 30.97 27.84 26.59 25.04 22.78 25.04 18.39 22.24 14.58 22.24 10.2 19.45 6.38 16.65 6.95 16.65 11.34 19.45 15.15 19.45 19.54 22.25 23.35 22.25 27.73 25.04 31.54 25.05 35.93 27.84 39.74 30.63 39.17 30.63 34.78" style="fill:url(#linear-gradient-22); opacity:.5;"/><polygon points="22.24 10.2 22.24 14.58 25.04 18.39 27.83 17.82 27.83 13.44 25.04 9.62 22.24 10.2" style="fill:url(#linear-gradient-23);"/><polygon points="30.74 35.52 33.6 34.88 33.66 34.22 33.42 34.2 30.44 34.87 30.74 35.52" style="fill:#3465a4;"/><polygon points="27.83 26.59 27.84 30.97 30.63 34.77 33.42 34.2 33.42 29.83 30.63 26.02 27.83 26.59" style="fill:url(#linear-gradient-24);"/><polygon points="25.04 18.39 25.04 22.78 27.83 26.59 30.63 26.02 30.63 21.64 27.83 17.82 25.04 18.39" style="fill:url(#linear-gradient-25);"/></g><polygon points="25.05 31.54 22.25 27.73 22.25 27.73 22.25 23.35 19.45 19.54 19.45 15.15 16.65 11.34 13.86 11.91 13.87 16.29 16.66 20.11 16.66 24.49 19.46 28.3 19.46 32.68 22.26 36.49 25.05 35.92 25.05 31.54" style="fill:url(#linear-gradient-26);"/><polygon points="25.05 31.54 22.25 27.73 22.25 27.73 22.25 23.35 19.45 19.54 19.45 15.15 16.65 11.34 13.86 11.91 13.87 16.29 16.66 20.11 16.66 24.49 19.46 28.3 19.46 32.68 22.26 36.49 25.05 35.92 25.05 31.54" style="fill:url(#linear-gradient-27); opacity:.75;"/><polygon points="19.46 28.3 16.66 24.49 16.65 24.49 16.65 20.11 13.85 16.29 11.06 16.86 11.06 21.25 13.86 25.06 13.87 25.06 13.88 29.44 16.67 33.26 19.46 32.69 19.46 28.3" style="fill:url(#linear-gradient-28);"/><polygon points="8.27 21.82 8.27 26.21 11.07 30.02 13.86 29.45 13.86 25.06 11.06 21.25 8.27 21.82" style="fill:url(#linear-gradient-29);"/><g style="clip-path:url(#clippath);"><g style="opacity:.7;"><path d="M-.15,17.52c2.37-1.42,3.58,.62,5.96-.8s1.16-3.45,3.53-4.86,3.59,.62,5.96-.8,1.17-3.45,3.54-4.87c2.38-1.42,3.59,.61,5.97-.8" style="fill:none; stroke:#ce5c00; stroke-linecap:round; stroke-linejoin:round; stroke-width:1.7px;"/><path d="M1.66,20.55c2.37-1.42,3.58,.62,5.96-.8s1.16-3.45,3.53-4.86c2.37-1.42,3.59,.62,5.96-.8s1.17-3.45,3.54-4.87,3.59,.61,5.97-.8" style="fill:none; stroke:#ce5c00; stroke-linecap:round; stroke-linejoin:round; stroke-width:1.7px;"/><path d="M3.48,23.59c2.37-1.42,3.58,.62,5.96-.8s1.16-3.45,3.53-4.86,3.59,.62,5.96-.8,1.17-3.45,3.54-4.87,3.59,.61,5.97-.8" style="fill:none; stroke:#ce5c00; stroke-linecap:round; stroke-linejoin:round; stroke-width:1.7px;"/><path d="M5.29,26.63c2.37-1.42,3.58,.62,5.96-.8,2.37-1.42,1.16-3.45,3.53-4.86s3.59,.62,5.96-.8,1.17-3.45,3.54-4.87c2.38-1.42,3.59,.61,5.97-.8" style="fill:none; stroke:#ce5c00; stroke-linecap:round; stroke-linejoin:round; stroke-width:1.7px;"/><path d="M7.1,29.66c2.37-1.42,3.58,.62,5.96-.8,2.37-1.42,1.16-3.45,3.53-4.86s3.59,.62,5.96-.8,1.17-3.45,3.54-4.87c2.38-1.42,3.59,.61,5.97-.8" style="fill:none; stroke:#ce5c00; stroke-linecap:round; stroke-linejoin:round; stroke-width:1.7px;"/><path d="M8.91,32.7c2.37-1.42,3.58,.62,5.96-.8s1.16-3.45,3.53-4.86,3.59,.62,5.96-.8,1.17-3.45,3.54-4.87,3.59,.61,5.97-.8" style="fill:none; stroke:#ce5c00; stroke-linecap:round; stroke-linejoin:round; stroke-width:1.7px;"/><path d="M10.72,35.73c2.37-1.42,3.58,.62,5.96-.8s1.16-3.45,3.53-4.86,3.59,.62,5.96-.8,1.17-3.45,3.54-4.87c2.38-1.42,3.59,.61,5.97-.8" style="fill:none; stroke:#ce5c00; stroke-linecap:round; stroke-linejoin:round; stroke-width:1.7px;"/><path d="M12.53,38.77c2.37-1.42,3.58,.62,5.96-.8s1.16-3.45,3.53-4.86,3.59,.62,5.96-.8c2.38-1.42,1.17-3.45,3.54-4.87s3.59,.61,5.97-.8" style="fill:none; stroke:#ce5c00; stroke-linecap:round; stroke-linejoin:round; stroke-width:1.7px;"/><path d="M14.34,41.81c2.37-1.42,3.58,.62,5.96-.8s1.16-3.45,3.53-4.86,3.59,.62,5.96-.8c2.38-1.42,1.17-3.45,3.54-4.87s3.59,.61,5.97-.8" style="fill:none; stroke:#ce5c00; stroke-linecap:round; stroke-linejoin:round; stroke-width:1.7px;"/><path d="M16.15,44.84c2.37-1.42,3.58,.62,5.96-.8,2.37-1.42,1.16-3.45,3.53-4.86s3.59,.62,5.96-.8,1.17-3.45,3.54-4.87,3.59,.61,5.97-.8" style="fill:none; stroke:#ce5c00; stroke-linecap:round; stroke-linejoin:round; stroke-width:1.7px;"/><path d="M17.96,47.88c2.37-1.42,3.58,.62,5.96-.8s1.16-3.45,3.53-4.86,3.59,.62,5.96-.8,1.17-3.45,3.54-4.87,3.59,.61,5.97-.8" style="fill:none; stroke:#ce5c00; stroke-linecap:round; stroke-linejoin:round; stroke-width:1.7px;"/></g></g><g style="opacity:.8;"><g style="clip-path:url(#clippath-1);"><g style="opacity:.7;"><path d="M-.15,17.52c2.37-1.42,3.58,.62,5.96-.8s1.16-3.45,3.53-4.86,3.59,.62,5.96-.8,1.17-3.45,3.54-4.87c2.38-1.42,3.59,.61,5.97-.8" style="fill:none; stroke:#ce5c00; stroke-linecap:round; stroke-linejoin:round; stroke-width:1.7px;"/><path d="M1.66,20.55c2.37-1.42,3.58,.62,5.96-.8s1.16-3.45,3.53-4.86c2.37-1.42,3.59,.62,5.96-.8s1.17-3.45,3.54-4.87,3.59,.61,5.97-.8" style="fill:none; stroke:#ce5c00; stroke-linecap:round; stroke-linejoin:round; stroke-width:1.7px;"/><path d="M3.48,23.59c2.37-1.42,3.58,.62,5.96-.8s1.16-3.45,3.53-4.86,3.59,.62,5.96-.8,1.17-3.45,3.54-4.87,3.59,.61,5.97-.8" style="fill:none; stroke:#ce5c00; stroke-linecap:round; stroke-linejoin:round; stroke-width:1.7px;"/><path d="M5.29,26.63c2.37-1.42,3.58,.62,5.96-.8,2.37-1.42,1.16-3.45,3.53-4.86s3.59,.62,5.96-.8,1.17-3.45,3.54-4.87c2.38-1.42,3.59,.61,5.97-.8" style="fill:none; stroke:#ce5c00; stroke-linecap:round; stroke-linejoin:round; stroke-width:1.7px;"/><path d="M7.1,29.66c2.37-1.42,3.58,.62,5.96-.8,2.37-1.42,1.16-3.45,3.53-4.86s3.59,.62,5.96-.8,1.17-3.45,3.54-4.87c2.38-1.42,3.59,.61,5.97-.8" style="fill:none; stroke:#ce5c00; stroke-linecap:round; stroke-linejoin:round; stroke-width:1.7px;"/><path d="M8.91,32.7c2.37-1.42,3.58,.62,5.96-.8s1.16-3.45,3.53-4.86,3.59,.62,5.96-.8,1.17-3.45,3.54-4.87,3.59,.61,5.97-.8" style="fill:none; stroke:#ce5c00; stroke-linecap:round; stroke-linejoin:round; stroke-width:1.7px;"/><path d="M10.72,35.73c2.37-1.42,3.58,.62,5.96-.8s1.16-3.45,3.53-4.86,3.59,.62,5.96-.8,1.17-3.45,3.54-4.87c2.38-1.42,3.59,.61,5.97-.8" style="fill:none; stroke:#ce5c00; stroke-linecap:round; stroke-linejoin:round; stroke-width:1.7px;"/><path d="M12.53,38.77c2.37-1.42,3.58,.62,5.96-.8s1.16-3.45,3.53-4.86,3.59,.62,5.96-.8c2.38-1.42,1.17-3.45,3.54-4.87s3.59,.61,5.97-.8" style="fill:none; stroke:#ce5c00; stroke-linecap:round; stroke-linejoin:round; stroke-width:1.7px;"/><path d="M14.34,41.81c2.37-1.42,3.58,.62,5.96-.8s1.16-3.45,3.53-4.86,3.59,.62,5.96-.8c2.38-1.42,1.17-3.45,3.54-4.87s3.59,.61,5.97-.8" style="fill:none; stroke:#ce5c00; stroke-linecap:round; stroke-linejoin:round; stroke-width:1.7px;"/><path d="M16.15,44.84c2.37-1.42,3.58,.62,5.96-.8,2.37-1.42,1.16-3.45,3.53-4.86s3.59,.62,5.96-.8,1.17-3.45,3.54-4.87,3.59,.61,5.97-.8" style="fill:none; stroke:#ce5c00; stroke-linecap:round; stroke-linejoin:round; stroke-width:1.7px;"/><path d="M17.96,47.88c2.37-1.42,3.58,.62,5.96-.8s1.16-3.45,3.53-4.86,3.59,.62,5.96-.8,1.17-3.45,3.54-4.87,3.59,.61,5.97-.8" style="fill:none; stroke:#ce5c00; stroke-linecap:round; stroke-linejoin:round; stroke-width:1.7px;"/></g></g></g><g style="opacity:.4;"><g style="clip-path:url(#clippath-2);"><g style="opacity:.7;"><path d="M-.15,17.52c2.37-1.42,3.58,.62,5.96-.8s1.16-3.45,3.53-4.86,3.59,.62,5.96-.8,1.17-3.45,3.54-4.87c2.38-1.42,3.59,.61,5.97-.8" style="fill:none; stroke:#ce5c00; stroke-linecap:round; stroke-linejoin:round; stroke-width:1.7px;"/><path d="M1.66,20.55c2.37-1.42,3.58,.62,5.96-.8s1.16-3.45,3.53-4.86c2.37-1.42,3.59,.62,5.96-.8s1.17-3.45,3.54-4.87,3.59,.61,5.97-.8" style="fill:none; stroke:#ce5c00; stroke-linecap:round; stroke-linejoin:round; stroke-width:1.7px;"/><path d="M3.48,23.59c2.37-1.42,3.58,.62,5.96-.8s1.16-3.45,3.53-4.86,3.59,.62,5.96-.8,1.17-3.45,3.54-4.87,3.59,.61,5.97-.8" style="fill:none; stroke:#ce5c00; stroke-linecap:round; stroke-linejoin:round; stroke-width:1.7px;"/><path d="M5.29,26.63c2.37-1.42,3.58,.62,5.96-.8,2.37-1.42,1.16-3.45,3.53-4.86s3.59,.62,5.96-.8,1.17-3.45,3.54-4.87c2.38-1.42,3.59,.61,5.97-.8" style="fill:none; stroke:#ce5c00; stroke-linecap:round; stroke-linejoin:round; stroke-width:1.7px;"/><path d="M7.1,29.66c2.37-1.42,3.58,.62,5.96-.8,2.37-1.42,1.16-3.45,3.53-4.86s3.59,.62,5.96-.8,1.17-3.45,3.54-4.87c2.38-1.42,3.59,.61,5.97-.8" style="fill:none; stroke:#ce5c00; stroke-linecap:round; stroke-linejoin:round; stroke-width:1.7px;"/><path d="M8.91,32.7c2.37-1.42,3.58,.62,5.96-.8s1.16-3.45,3.53-4.86,3.59,.62,5.96-.8,1.17-3.45,3.54-4.87,3.59,.61,5.97-.8" style="fill:none; stroke:#ce5c00; stroke-linecap:round; stroke-linejoin:round; stroke-width:1.7px;"/><path d="M10.72,35.73c2.37-1.42,3.58,.62,5.96-.8s1.16-3.45,3.53-4.86,3.59,.62,5.96-.8,1.17-3.45,3.54-4.87c2.38-1.42,3.59,.61,5.97-.8" style="fill:none; stroke:#ce5c00; stroke-linecap:round; stroke-linejoin:round; stroke-width:1.7px;"/><path d="M12.53,38.77c2.37-1.42,3.58,.62,5.96-.8s1.16-3.45,3.53-4.86,3.59,.62,5.96-.8c2.38-1.42,1.17-3.45,3.54-4.87s3.59,.61,5.97-.8" style="fill:none; stroke:#ce5c00; stroke-linecap:round; stroke-linejoin:round; stroke-width:1.7px;"/><path d="M14.34,41.81c2.37-1.42,3.58,.62,5.96-.8s1.16-3.45,3.53-4.86,3.59,.62,5.96-.8c2.38-1.42,1.17-3.45,3.54-4.87s3.59,.61,5.97-.8" style="fill:none; stroke:#ce5c00; stroke-linecap:round; stroke-linejoin:round; stroke-width:1.7px;"/><path d="M16.15,44.84c2.37-1.42,3.58,.62,5.96-.8,2.37-1.42,1.16-3.45,3.53-4.86s3.59,.62,5.96-.8,1.17-3.45,3.54-4.87,3.59,.61,5.97-.8" style="fill:none; stroke:#ce5c00; stroke-linecap:round; stroke-linejoin:round; stroke-width:1.7px;"/><path d="M17.96,47.88c2.37-1.42,3.58,.62,5.96-.8s1.16-3.45,3.53-4.86,3.59,.62,5.96-.8,1.17-3.45,3.54-4.87,3.59,.61,5.97-.8" style="fill:none; stroke:#ce5c00; stroke-linecap:round; stroke-linejoin:round; stroke-width:1.7px;"/></g></g></g><g style="opacity:.2;"><g style="clip-path:url(#clippath-3);"><g style="opacity:.7;"><path d="M-.15,17.52c2.37-1.42,3.58,.62,5.96-.8s1.16-3.45,3.53-4.86,3.59,.62,5.96-.8,1.17-3.45,3.54-4.87c2.38-1.42,3.59,.61,5.97-.8" style="fill:none; stroke:#ce5c00; stroke-linecap:round; stroke-linejoin:round; stroke-width:1.7px;"/><path d="M1.66,20.55c2.37-1.42,3.58,.62,5.96-.8s1.16-3.45,3.53-4.86c2.37-1.42,3.59,.62,5.96-.8s1.17-3.45,3.54-4.87,3.59,.61,5.97-.8" style="fill:none; stroke:#ce5c00; stroke-linecap:round; stroke-linejoin:round; stroke-width:1.7px;"/><path d="M3.48,23.59c2.37-1.42,3.58,.62,5.96-.8s1.16-3.45,3.53-4.86,3.59,.62,5.96-.8,1.17-3.45,3.54-4.87,3.59,.61,5.97-.8" style="fill:none; stroke:#ce5c00; stroke-linecap:round; stroke-linejoin:round; stroke-width:1.7px;"/><path d="M5.29,26.63c2.37-1.42,3.58,.62,5.96-.8,2.37-1.42,1.16-3.45,3.53-4.86s3.59,.62,5.96-.8,1.17-3.45,3.54-4.87c2.38-1.42,3.59,.61,5.97-.8" style="fill:none; stroke:#ce5c00; stroke-linecap:round; stroke-linejoin:round; stroke-width:1.7px;"/><path d="M7.1,29.66c2.37-1.42,3.58,.62,5.96-.8,2.37-1.42,1.16-3.45,3.53-4.86s3.59,.62,5.96-.8,1.17-3.45,3.54-4.87c2.38-1.42,3.59,.61,5.97-.8" style="fill:none; stroke:#ce5c00; stroke-linecap:round; stroke-linejoin:round; stroke-width:1.7px;"/><path d="M8.91,32.7c2.37-1.42,3.58,.62,5.96-.8s1.16-3.45,3.53-4.86,3.59,.62,5.96-.8,1.17-3.45,3.54-4.87,3.59,.61,5.97-.8" style="fill:none; stroke:#ce5c00; stroke-linecap:round; stroke-linejoin:round; stroke-width:1.7px;"/><path d="M10.72,35.73c2.37-1.42,3.58,.62,5.96-.8s1.16-3.45,3.53-4.86,3.59,.62,5.96-.8,1.17-3.45,3.54-4.87c2.38-1.42,3.59,.61,5.97-.8" style="fill:none; stroke:#ce5c00; stroke-linecap:round; stroke-linejoin:round; stroke-width:1.7px;"/><path d="M12.53,38.77c2.37-1.42,3.58,.62,5.96-.8s1.16-3.45,3.53-4.86,3.59,.62,5.96-.8c2.38-1.42,1.17-3.45,3.54-4.87s3.59,.61,5.97-.8" style="fill:none; stroke:#ce5c00; stroke-linecap:round; stroke-linejoin:round; stroke-width:1.7px;"/><path d="M14.34,41.81c2.37-1.42,3.58,.62,5.96-.8s1.16-3.45,3.53-4.86,3.59,.62,5.96-.8c2.38-1.42,1.17-3.45,3.54-4.87s3.59,.61,5.97-.8" style="fill:none; stroke:#ce5c00; stroke-linecap:round; stroke-linejoin:round; stroke-width:1.7px;"/><path d="M16.15,44.84c2.37-1.42,3.58,.62,5.96-.8,2.37-1.42,1.16-3.45,3.53-4.86s3.59,.62,5.96-.8,1.17-3.45,3.54-4.87,3.59,.61,5.97-.8" style="fill:none; stroke:#ce5c00; stroke-linecap:round; stroke-linejoin:round; stroke-width:1.7px;"/><path d="M17.96,47.88c2.37-1.42,3.58,.62,5.96-.8s1.16-3.45,3.53-4.86,3.59,.62,5.96-.8,1.17-3.45,3.54-4.87,3.59,.61,5.97-.8" style="fill:none; stroke:#ce5c00; stroke-linecap:round; stroke-linejoin:round; stroke-width:1.7px;"/></g></g></g><g><polygon points="22.24 10.2 22.24 14.58 25.04 18.39 27.83 17.82 27.83 13.44 25.04 9.62 22.24 10.2" style="fill:none; stroke:#3465a4; stroke-linecap:round; stroke-linejoin:round; stroke-width:.35px;"/><polygon points="27.83 13.44 27.83 17.82 30.63 21.64 33.42 21.06 33.42 16.68 30.62 12.87 27.83 13.44" style="fill:none; stroke:#3465a4; stroke-linecap:round; stroke-linejoin:round; stroke-width:.35px;"/><polygon points="30.62 21.64 30.62 26.02 33.42 29.83 36.21 29.26 36.21 24.88 33.42 21.07 30.62 21.64" style="fill:none; stroke:#3465a4; stroke-linecap:round; stroke-linejoin:round; stroke-width:.35px;"/><polygon points="33.42 16.68 33.42 21.07 36.21 24.88 39 24.31 39 19.92 36.21 16.11 33.42 16.68" style="fill:none; stroke:#3465a4; stroke-linecap:round; stroke-linejoin:round; stroke-width:.35px;"/><polygon points="27.83 26.59 27.84 30.97 30.63 34.77 33.42 34.2 33.42 29.83 30.63 26.02 27.83 26.59" style="fill:none; stroke:#3465a4; stroke-linecap:round; stroke-linejoin:round; stroke-width:.35px;"/><polygon points="25.04 18.39 25.04 22.78 27.83 26.59 30.63 26.02 30.63 21.64 27.83 17.82 25.04 18.39" style="fill:none; stroke:#3465a4; stroke-linecap:round; stroke-linejoin:round; stroke-width:.35px;"/></g><polygon points="30.64 34.8 27.84 30.98 27.84 26.6 25.04 22.78 25.04 18.4 22.24 14.58 22.24 10.19 19.45 6.38 16.65 6.95 16.65 11.34 16.65 11.34 13.86 11.91 13.86 16.29 13.86 16.3 11.07 16.87 11.07 21.25 11.07 21.25 8.28 21.82 8.28 26.21 11.08 30.02 13.87 29.45 13.87 29.45 13.87 29.45 16.67 33.27 19.46 32.7 22.26 36.51 25.05 35.94 27.85 39.75 30.64 39.18 30.64 34.8" style="fill:none; stroke:#c4a000; stroke-linecap:round; stroke-linejoin:round; stroke-width:.35px;"/></g></g></svg>