<?xml version="1.0" encoding="UTF-8" standalone="no"?>
<svg
   viewBox="0 0 48 48"
   version="1.1"
   id="svg91"
   sodipodi:docname="15-Kuwahara Filter.svg"
   inkscape:version="1.3.2 (091e20e, 2023-11-25, custom)"
   xmlns:inkscape="http://www.inkscape.org/namespaces/inkscape"
   xmlns:sodipodi="http://sodipodi.sourceforge.net/DTD/sodipodi-0.dtd"
   xmlns:xlink="http://www.w3.org/1999/xlink"
   xmlns="http://www.w3.org/2000/svg"
   xmlns:svg="http://www.w3.org/2000/svg">
  <sodipodi:namedview
     id="namedview91"
     pagecolor="#ffffff"
     bordercolor="#666666"
     borderopacity="1.0"
     inkscape:showpageshadow="2"
     inkscape:pageopacity="0.0"
     inkscape:pagecheckerboard="0"
     inkscape:deskcolor="#d1d1d1"
     inkscape:zoom="23.0208"
     inkscape:cx="23.9783"
     inkscape:cy="24"
     inkscape:current-layer="svg91" />
  <defs
     id="defs10">
    <radialGradient
       id="radial-gradient"
       cx="-258.64"
       cy="49.28"
       fx="-258.64"
       fy="49.28"
       r="15.57"
       gradientTransform="matrix(1.45,0,0,0.74,399.41,-2.45)"
       gradientUnits="userSpaceOnUse">
      <stop
         offset=".55"
         stop-color="#1a1718"
         stop-opacity=".5"
         id="stop1" />
      <stop
         offset=".93"
         stop-color="#1a1718"
         stop-opacity="0"
         id="stop2" />
    </radialGradient>
    <linearGradient
       id="linear-gradient"
       x1="1.23"
       y1="21.84"
       x2="11.31"
       y2="25.78"
       gradientTransform="matrix(1, 0, 0, 1, 0, 0)"
       gradientUnits="userSpaceOnUse">
      <stop
         offset="0"
         stop-color="#b9bcb5"
         id="stop3" />
      <stop
         offset="1"
         stop-color="#232729"
         id="stop4" />
    </linearGradient>
    <linearGradient
       id="linear-gradient-2"
       x1="36.68"
       y1="21.3"
       x2="46.77"
       y2="25.24"
       xlink:href="#linear-gradient" />
    <linearGradient
       id="linear-gradient-3"
       x1="7.74"
       y1="5.18"
       x2="39.72"
       y2="17.67"
       xlink:href="#linear-gradient" />
    <linearGradient
       id="linear-gradient-4"
       x1="8.28"
       y1="29.41"
       x2="40.25"
       y2="41.9"
       xlink:href="#linear-gradient" />
    <linearGradient
       id="linear-gradient-5"
       x1="-2.01"
       y1="19.13"
       x2="45.89"
       y2="46.97"
       gradientTransform="matrix(1, 0, 0, 1, 0, 0)"
       gradientUnits="userSpaceOnUse">
      <stop
         offset="0"
         stop-color="#e9b96e"
         id="stop5" />
      <stop
         offset="1"
         stop-color="#c17d11"
         id="stop6" />
    </linearGradient>
    <linearGradient
       id="linear-gradient-6"
       x1="41.76"
       y1="36.55"
       x2="41.76"
       y2="16.43"
       gradientTransform="matrix(1, 0, 0, 1, 0, 0)"
       gradientUnits="userSpaceOnUse">
      <stop
         offset="0"
         stop-color="#c17d11"
         id="stop7" />
      <stop
         offset="1"
         stop-color="#8f5902"
         id="stop8" />
    </linearGradient>
    <linearGradient
       id="linear-gradient-7"
       x1="16.38"
       y1="4.35"
       x2="37.23"
       y2="22.07"
       gradientUnits="userSpaceOnUse">
      <stop
         offset="0"
         stop-color="#efcc96"
         id="stop9" />
      <stop
         offset="1"
         stop-color="#c17d11"
         id="stop10" />
    </linearGradient>
    <linearGradient
       id="linear-gradient-8"
       x1="24.33"
       y1="41.02"
       x2="23.75"
       y2="32.9"
       xlink:href="#linear-gradient-6" />
    <linearGradient
       id="linear-gradient-9"
       x1="11.36"
       y1="41.57"
       x2="43.75"
       y2="24.02"
       xlink:href="#linear-gradient-5" />
    <linearGradient
       id="linear-gradient-10"
       x1="39.97"
       y1="35.02"
       x2="40.96"
       y2="11.85"
       xlink:href="#linear-gradient-5" />
    <linearGradient
       id="linear-gradient-11"
       x1="9.03"
       y1="6.61"
       x2="38.7"
       y2="18.19"
       xlink:href="#linear-gradient-6" />
    <linearGradient
       id="linear-gradient-12"
       x1="11.85"
       y1="30.11"
       x2="3.98"
       y2="19.26"
       xlink:href="#linear-gradient-6" />
    <linearGradient
       inkscape:collect="always"
       xlink:href="#linear-gradient"
       id="linearGradient93"
       gradientUnits="userSpaceOnUse"
       x1="1.23"
       y1="21.84"
       x2="11.31"
       y2="25.78" />
    <linearGradient
       inkscape:collect="always"
       xlink:href="#linear-gradient-5"
       id="linearGradient94"
       gradientUnits="userSpaceOnUse"
       x1="-2.01"
       y1="19.13"
       x2="45.89"
       y2="46.97" />
    <linearGradient
       inkscape:collect="always"
       xlink:href="#linear-gradient-6"
       id="linearGradient95"
       gradientUnits="userSpaceOnUse"
       x1="41.76"
       y1="36.55"
       x2="41.76"
       y2="16.43" />
  </defs>
  <g
     id="shadow"
     style="opacity:0.45;isolation:isolate;mix-blend-mode:multiply;stroke-width:0.951735"
     transform="matrix(1.104,0,0,1,-2.35314,-0.868778)">
    <ellipse
       cx="23.88"
       cy="34.03"
       rx="21.72"
       ry="11.12"
       style="fill:url(#radial-gradient);stroke-width:0.951735"
       id="ellipse10" />
  </g>
  <g
     id="ART"
     style="isolation:isolate;stroke-width:0.794285"
     transform="matrix(1.25695,0,0,1.26104,-6.12197,-6.75307)">
    <g
       id="g90"
       style="stroke-width:0.794285">
      <rect
         x="7.33"
         y="13.07"
         width="33.54"
         height="12.86"
         style="fill:#4e9a06;stroke-width:0.794285"
         id="rect10" />
      <path
         d="m 37.68,14.82 c 0.4,0.39 0.94,0.57 1.47,0.73 0.53,0.16 1.14,0.33 1.39,0.83 0.22,0.42 0.07,1 -0.33,1.26 -0.34,0.22 -0.78,0.22 -1.17,0.11 -0.39,-0.11 -0.74,-0.32 -1.11,-0.48 -0.65,-0.28 -1.34,-0.41 -1.99,-0.69 -0.65,-0.28 -1.26,-0.75 -1.46,-1.42 -0.13,-0.44 -0.06,-0.94 0.19,-1.33 0.13,-0.2 0.9,-0.33 1.12,-0.4 0.28,-0.08 0.66,-0.23 0.95,-0.12 0.53,0.19 0.52,1.13 0.93,1.52 z"
         style="fill:#73d216;stroke-width:0.794285"
         id="path10" />
      <path
         d="m 32.19,13.34 c 0.44,-0.87 1.6,-0.43 2.34,-0.49 0.34,-0.03 0.7,-0.04 1,0.11 0.63,0.32 0.29,1.12 0.61,1.65 0.26,0.43 0.68,0.73 1.09,1.01 0.48,0.33 0.98,0.64 1.53,0.84 0.42,0.16 0.88,0.25 1.24,0.51 0.79,0.57 0.87,1.69 0.88,2.66 0,0.32 0,0.67 -0.22,0.91 -0.31,0.33 -0.84,0.24 -1.27,0.11 -2.98,-0.94 -5.55,-3.1 -6.99,-5.87 -0.23,-0.45 -0.44,-0.99 -0.21,-1.44 z"
         style="fill:#8ae234;stroke-width:0.794285"
         id="path11" />
      <g
         id="g77"
         style="stroke-width:0.794285">
        <path
           d="m 35,15.29 c 0.36,-0.09 0.75,-0.06 1.07,0.12 0.57,0.32 0.81,0.99 1.01,1.62 l 0.18,0.55 c 0.32,1.02 1.28,1.08 2.18,1.27 0.57,0.12 1.8,0.27 1.82,1.07 l 0.09,3.09 c 0.03,1 0.06,2 -0.06,2.99 -0.21,1.73 -0.91,3.47 -2.26,4.58 -0.36,0.3 -0.78,0.58 -0.91,1.03 -1.12,-0.43 -1.88,-1.49 -2.35,-2.59 -0.47,-1.1 -0.71,-2.29 -1.16,-3.4 -0.26,-0.64 -0.58,-1.27 -0.65,-1.95 -0.04,-0.4 0.01,-0.81 -0.02,-1.21 -0.12,-1.39 -1.29,-2.67 -1.15,-4.08 0.05,-0.45 0.22,-0.87 0.41,-1.28 0.27,-0.56 0.61,-1.12 1.12,-1.48 0.21,-0.15 0.44,-0.26 0.69,-0.32 z"
           style="fill:#6c5b49;stroke-width:0.794285"
           id="path12" />
        <path
           d="m 40.1,23.87 c -0.64,-0.18 -1.65,-0.25 -1.82,-1.07 -0.05,-0.25 -0.01,-0.5 0,-0.76 0.05,-1.03 -0.41,-2.06 -1.2,-2.73 -0.54,-0.46 -1.27,-0.78 -1.52,-1.45 -0.31,-0.8 0.21,-1.8 -0.24,-2.54 -0.29,-0.47 -0.44,-0.73 -0.86,-1.03 -0.28,-0.2 -0.24,-0.51 -0.27,-0.8 0,-0.03 0,-0.06 -0.01,-0.09 -0.04,-0.28 -0.06,-0.52 -0.03,-0.75 H 8.55 c -0.11,1.05 -0.21,2.1 -0.32,3.16 -0.11,1.11 -0.22,2.22 -0.31,3.34 -0.34,4.6 -0.16,9.24 0.54,13.81 0.04,0.24 0.08,0.49 0.24,0.66 0.12,0.13 0.28,0.19 0.45,0.25 4.86,1.82 10.26,0.9 15.44,1.19 1.53,0.09 3.06,0.28 4.59,0.37 3.58,0.22 7.19,-0.09 10.68,-0.94 0.12,-0.03 0.25,-0.06 0.32,-0.16 0.08,-0.1 0.07,-0.24 0.06,-0.36 -0.19,-3.38 0.04,-6.72 -0.15,-10.1 z"
           style="fill:#a8907d;stroke-width:0.794285"
           id="path13" />
        <path
           d="m 8.67,22.54 c 0.19,0.72 -0.02,1.48 0.04,2.22 0.08,1.1 0.73,2.12 0.74,3.23 0,0.69 -0.25,1.39 -0.1,2.06 0.14,0.65 0.63,1.17 0.85,1.79 0.13,0.38 0.16,0.79 0.33,1.16 0.2,0.42 0.56,0.74 0.92,1.04 0.5,0.42 1.01,0.84 1.54,1.23 h 26.52 c 0.12,-0.1 0.23,-0.21 0.29,-0.37 0.12,-0.29 0.08,-0.62 0.03,-0.93 -0.26,-1.78 -0.51,-3.58 -0.41,-5.37 0.04,-0.75 0.09,-1.63 -0.48,-2.12 -0.38,-0.33 -0.95,-0.45 -1.41,-0.63 -0.4,-0.16 -0.82,-0.28 -1.24,-0.39 -0.07,-0.02 -0.15,-0.04 -0.21,-0.08 -0.07,-0.05 -0.12,-0.13 -0.16,-0.2 -0.21,-0.42 -0.2,-0.95 0.04,-1.36 0.51,-0.89 1.12,-1.48 0.64,-2.56 -0.13,-0.3 -0.33,-0.57 -0.54,-0.83 -0.41,-0.52 -0.98,-1.07 -1.63,-0.97 -0.44,0.07 -0.78,0.42 -1,0.81 -0.56,1.01 -0.42,2.24 -0.39,3.4 0.03,0.99 -0.03,1.99 -0.17,2.98 -0.08,0.59 -0.2,1.19 -0.46,1.73 -0.73,1.5 -2.01,2.15 -3.54,2.67 -1.81,0.62 -3.89,0.41 -5.64,-0.32 -1.83,-0.77 -3.02,-2.55 -3.81,-4.37 -0.09,-1.18 0.09,-2.38 0.56,-3.47 0.56,-1.29 1.49,-2.42 1.9,-3.77 0.44,-1.44 0.23,-3.06 -0.56,-4.34 -0.24,-0.39 -0.56,-0.75 -0.82,-1.12 -0.2,-0.28 -0.27,-0.52 -0.71,-0.48 -0.28,0.02 -0.53,0.18 -0.75,0.36 -1.05,0.88 -1.39,2.38 -2.38,3.33 -0.4,0.38 -0.9,0.66 -1.43,0.8 -0.56,0.15 -1.34,0.07 -1.61,-0.54 -0.13,-0.3 -0.05,-0.65 0.13,-0.93 0.18,-0.28 0.44,-0.48 0.69,-0.69 0.48,-0.41 0.92,-0.85 1.33,-1.33 0.17,-0.2 0.34,-0.44 0.3,-0.7 -0.03,-0.18 -0.16,-0.33 -0.31,-0.43 -0.52,-0.37 -1.24,-0.32 -1.84,-0.1 -0.42,0.15 -0.8,0.38 -1.21,0.57 -0.35,0.16 -0.65,0.12 -1.02,0.21 -0.68,0.15 -1.52,0.56 -1.9,1.16 -0.59,0.92 -0.36,2.14 -0.68,3.19 -0.31,1.03 -1.17,1.96 -1,3.03 0.08,0.51 0.4,0.96 0.53,1.46 z"
           style="opacity:0.62;fill:#72604f;stroke-width:0.794285"
           id="path14" />
        <path
           d="m 9.22,30.31 c 1.15,1.54 1.7,3.53 3.13,4.8 0.07,0.06 0.15,0.1 0.22,0.15 h 25.78 c 0.22,-0.42 0.28,-0.9 0.1,-1.33 -0.33,-0.76 -1.35,-1.22 -1.32,-2.04 0,-0.25 0.12,-0.49 0.09,-0.74 -0.08,-0.59 -0.83,-0.77 -1.39,-0.98 -0.1,-0.04 -0.21,-0.09 -0.27,-0.18 -0.06,-0.1 -0.07,-0.22 -0.06,-0.34 0.02,-0.39 0.07,-0.78 0,-1.16 -0.13,-0.83 -0.77,-1.47 -1.38,-2.05 -0.07,-0.07 -0.15,-0.14 -0.25,-0.15 -0.12,-0.02 -0.22,0.06 -0.33,0.11 -0.45,0.26 -0.99,0.31 -1.5,0.46 -0.92,0.26 -1.71,0.84 -2.58,1.23 -1.27,0.56 -2.68,0.69 -4.07,0.82 -1.49,0.14 -2.99,0.28 -4.49,0.13 -1.36,-0.13 -2.52,0.36 -3.76,-0.52 -0.85,-0.61 -1.41,-1.57 -1.65,-2.59 -0.08,-0.36 -0.13,-0.75 0.01,-1.09 0.14,-0.34 0.51,-0.62 0.87,-0.54 0.23,0.05 0.42,0.23 0.66,0.24 -0.88,-1.02 -1.53,-2.04 -2.96,-2.24 -0.91,-0.13 -1.84,0.06 -2.71,0.37 -0.43,0.15 -0.86,0.35 -1.19,0.67 -1.01,1.01 -0.62,2.74 -1.24,3.95 -0.27,0.53 -0.6,1.07 -0.5,1.69 0.08,0.51 0.45,0.91 0.76,1.33 z"
           style="opacity:0.82;fill:#72604f;stroke-width:0.794285"
           id="path15" />
        <path
           d="m 38.71,25.79 c 0.07,0.15 0.11,0.31 0.13,0.47 0.04,0.4 -0.05,0.8 -0.17,1.18 -0.29,0.93 -0.75,2.44 -1.62,2.97 -1.19,0.73 -2.88,0.55 -3.83,1.57 -0.41,0.45 -0.6,1.08 -0.51,1.68 0.02,0.13 0.05,0.25 0.13,0.35 0.07,0.09 0.16,0.16 0.26,0.21 0.92,0.52 2.3,0.51 3.32,0.57 1.25,0.07 2.53,0.13 3.71,-0.27 0.22,-0.08 0.45,-0.18 0.57,-0.38 0.07,-0.12 0.09,-0.27 0.11,-0.41 0.32,-2.44 0.54,-4.89 0.64,-7.34 0.03,-0.8 0.34,-1.79 -0.01,-2.56 -0.27,-0.6 -1.45,-0.95 -2.06,-0.96 -0.5,0 -0.96,0.26 -1.35,0.57 -0.24,0.2 -0.47,0.43 -0.57,0.73 -0.1,0.3 -0.05,0.66 0.2,0.86 0.17,0.13 0.39,0.16 0.57,0.25 0.21,0.11 0.37,0.29 0.48,0.51 z"
           style="fill:#5a4735;stroke-width:0.794285"
           id="path16" />
        <path
           d="m 37.16,34.41 c -0.26,0.02 -0.53,0 -0.78,-0.04 -0.07,-0.01 -0.14,-0.03 -0.19,-0.08 -0.07,-0.07 -0.07,-0.18 -0.07,-0.28 l 0.03,-0.98 c 0,-0.27 0.02,-0.55 0.17,-0.78 0.15,0 0.27,0.15 0.31,0.3 0.04,0.15 0.03,0.3 0.06,0.45 0.05,0.26 0.21,0.5 0.43,0.64 0,0.22 0.08,0.21 0.18,0.4 0.1,0.19 0.14,0.45 -0.01,0.61 -0.09,-0.05 -0.03,-0.2 -0.12,-0.25 z"
           style="fill:#3a2b1f;stroke-width:0.794285"
           id="path17" />
        <path
           d="m 39.38,28.39 c -0.44,0.21 -0.73,0.63 -0.91,1.08 -0.18,0.45 -0.26,0.97 -0.39,1.45 -0.06,0.22 -0.13,0.45 -0.29,0.62 -0.19,0.2 -0.47,0.28 -0.73,0.34 -0.86,0.2 -2.74,0.08 -2.52,1.53 0.06,0.4 0.37,0.73 0.73,0.9 0.36,0.17 0.77,0.23 1.18,0.26 0.95,0.08 1.94,0.06 2.8,-0.34 0.65,-0.3 1.24,-0.85 1.47,-1.55 0.14,-0.42 0.04,-0.48 -0.14,-0.82 -0.2,-0.38 -0.55,-1.02 -0.35,-1.44 0.13,-0.27 0.36,-0.49 0.5,-0.76 0.15,-0.29 0.18,-0.66 0.02,-0.95 -0.24,-0.44 -0.86,-0.57 -1.32,-0.37 -0.02,0 -0.03,0.01 -0.05,0.02 z"
           style="fill:#3a2b1f;stroke-width:0.794285"
           id="path18" />
        <path
           d="m 12.19,32.59 c 0.31,0.52 0.64,1.06 1.13,1.42 0.55,0.41 1.24,0.55 1.89,0.76 0.44,0.14 0.87,0.31 1.29,0.49 h 6.18 c -0.11,-0.13 -0.27,-0.25 -0.42,-0.33 -0.84,-0.46 -2.66,-0.99 -2.65,-2.03 0,-0.61 0.25,-0.84 -0.09,-1.5 -0.23,-0.44 -0.56,-0.84 -1.04,-1.01 -0.34,-0.12 -0.72,-0.11 -1.08,-0.16 -0.53,-0.06 -1.39,-0.1 -1.72,-0.58 -0.07,-0.11 -0.12,-0.23 -0.16,-0.36 -0.13,-0.41 -0.22,-0.82 -0.28,-1.25 -0.03,-0.23 -0.05,-0.47 -0.17,-0.66 -0.24,-0.36 -0.85,-0.39 -1.12,-0.05 -0.08,0.1 -0.13,0.22 -0.19,0.34 -0.1,0.16 -0.23,0.3 -0.35,0.43 -0.32,0.33 -0.59,0.63 -0.82,1.02 -0.11,0.2 -0.55,0.66 -0.55,0.88 -0.39,0.28 -0.51,0.81 -0.43,1.28 0.08,0.47 0.33,0.89 0.57,1.3 z"
           style="fill:#5a4735;stroke-width:0.794285"
           id="path19" />
        <path
           d="m 36.16,26.68 c -0.12,-0.07 -0.24,-0.13 -0.36,-0.17 -0.64,-0.24 -1.32,-0.5 -1.6,-1.21 -0.27,-0.71 0.08,-1.49 0.41,-2.17 0.33,-0.68 0.6,-1.52 0.21,-2.17 -0.18,-0.3 -0.5,-0.53 -0.62,-0.86 -0.24,-0.63 0.31,-1.26 0.54,-1.9 0.27,-0.76 0.06,-1.67 -0.53,-2.23 -0.23,-0.21 -0.5,-0.38 -0.71,-0.61 -0.4,-0.44 -0.54,-1.09 -0.54,-1.68 0,-0.44 0.31,-1.03 -0.48,-1.03 h -3.6 l -3.85,7.8 c -0.82,2.47 -0.2,5.18 -0.49,7.78 -0.1,0.85 -0.29,1.7 -0.33,2.56 -0.04,0.86 0.09,1.76 0.58,2.46 0.48,0.68 1.26,1.11 2.06,1.31 0.81,0.2 1.65,0.18 2.48,0.13 0.62,-0.04 1.26,-0.1 1.84,-0.34 0.58,-0.23 1.08,-0.62 1.57,-1 0.17,-0.13 0.34,-0.26 0.43,-0.45 0.17,-0.32 0.09,-0.7 0.13,-1.06 0.07,-0.6 0.52,-1.14 1.1,-1.31 0.15,-0.05 0.33,-0.07 0.44,-0.19 0.13,-0.13 0.14,-0.33 0.19,-0.51 0.23,-0.77 1.18,-0.99 1.94,-1.29 0.11,-0.04 0.22,-0.09 0.28,-0.19 0.08,-0.13 0.05,-0.3 0,-0.44 -0.19,-0.5 -0.63,-0.96 -1.11,-1.24 z"
           style="fill:#6c5b49;stroke-width:0.794285"
           id="path20" />
        <path
           d="m 18.72,33.69 c -0.11,-0.41 -0.3,-0.8 -0.57,-1.06 -0.2,-0.2 -0.44,-0.34 -0.67,-0.49 -1.16,-0.8 -1.98,-2.07 -2.22,-3.45 -0.28,-1.58 -0.09,-4 -1.81,-4.83 -0.65,-0.31 -1.42,-0.3 -2.06,-0.63 -0.13,-0.07 -0.26,-0.16 -0.34,-0.28 -0.07,-0.11 -0.11,-0.25 -0.13,-0.38 -0.15,-0.85 0.04,-1.75 0.51,-2.47 0.53,-0.81 1.69,-1.27 1.87,-2.26 0.04,-0.25 0,-0.52 -0.18,-0.7 -0.16,-0.16 -0.39,-0.21 -0.57,-0.34 -0.32,-0.23 -0.42,-0.71 -0.23,-1.05 0.24,-0.44 0.8,-0.55 1.26,-0.75 0.37,-0.17 0.7,-0.43 0.94,-0.75 0.29,-0.37 0.46,-0.93 0.16,-1.3 -0.34,-0.43 -0.87,-0.32 -1.34,-0.28 -0.71,0.05 -1.44,0 -2.15,0 H 7.43 c -0.27,0.52 -0.49,1.06 -0.61,1.64 -0.18,0.88 -0.13,1.79 -0.14,2.68 -0.02,1.59 -0.26,3.17 -0.35,4.76 -0.23,4.04 0.47,8.06 1.18,12.04 0.1,0.55 0.22,1.14 0.63,1.51 0.41,0.37 1.01,0.42 1.56,0.45 2.45,0.15 4.92,0.31 7.37,0.05 0.64,-0.07 1.59,-0.19 1.72,-0.94 0.06,-0.35 0.04,-0.77 -0.07,-1.17 z"
           style="fill:#5a4735;stroke-width:0.794285"
           id="path21" />
        <path
           d="m 13.63,16.09 c -0.12,0.29 -0.19,0.62 -0.08,0.92 0.2,0.56 0.93,0.77 1.49,0.57 0.56,-0.2 0.95,-0.69 1.27,-1.18 0.42,-0.67 0.76,-1.4 0.92,-2.17 0.13,-0.6 0.11,-1.34 -0.51,-1.66 -0.5,-0.26 -0.9,0 -1.17,0.43 -0.32,0.51 -0.45,1.08 -0.83,1.58 -0.38,0.5 -0.84,0.94 -1.09,1.52 z"
           style="fill:#a8907d;stroke-width:0.794285"
           id="path22" />
        <path
           d="m 33.18,17.76 c -0.19,-0.24 0.34,-0.59 0.17,-0.84 -0.06,-0.08 -0.17,-0.11 -0.25,-0.15 -0.19,-0.1 -0.28,-0.33 -0.28,-0.54 0,-0.21 0.07,-0.42 0.14,-0.62 -0.29,-0.09 -0.59,-0.18 -0.88,-0.27 -0.06,-0.14 0.15,-0.24 0.25,-0.36 0.14,-0.16 0.03,-0.43 -0.15,-0.55 -0.18,-0.11 -0.41,-0.11 -0.63,-0.1 0.2,-0.36 0.36,-0.74 0.48,-1.13 -0.42,0.13 -0.87,0.16 -1.3,0.09 0.06,0 0.09,-0.36 0.1,-0.72 h -7.25 c -0.79,0 -2.48,-0.31 -3.08,0.26 -0.09,0.09 -0.17,0.19 -0.23,0.3 -0.19,0.35 -0.27,0.76 -0.5,1.09 -0.33,0.48 -0.92,0.72 -1.34,1.12 -0.39,0.37 -0.64,0.87 -0.97,1.3 -0.5,0.67 -1.22,1.18 -2.01,1.44 -0.46,0.15 -0.94,0.22 -1.38,0.43 -0.44,0.21 -0.83,0.59 -0.87,1.07 -0.04,0.58 0.42,1.04 0.77,1.51 0.4,0.55 0.66,1.18 1.04,1.74 0.9,1.29 2.41,2.01 3.52,3.13 0.5,0.51 0.93,1.14 1.01,1.85 0.05,0.42 -0.04,0.85 -0.09,1.27 -0.1,0.8 -0.07,1.66 0.34,2.35 0.41,0.69 1.28,1.17 2.04,0.9 0.27,-0.1 0.51,-0.28 0.77,-0.4 0.51,-0.25 1.05,0.01 1.59,-0.22 0.36,-0.15 0.64,-0.44 0.85,-0.76 0.66,-0.98 0.78,-2.21 0.77,-3.39 -0.01,-1.18 -0.12,-2.37 0.15,-3.52 l 5.71,-3.76 c 0.71,-0.07 1.24,-0.67 1.64,-1.26 0.12,-0.18 0.24,-0.37 0.28,-0.58 0.04,-0.21 -0.03,-0.46 -0.21,-0.57 -0.07,-0.04 -0.14,-0.07 -0.19,-0.13 z"
           style="fill:#6c5b49;stroke-width:0.794285"
           id="path23" />
        <path
           d="m 31.19,18.9 c 0.56,0.63 1.28,1.13 2.06,1.45 0.19,0.08 0.39,0.15 0.56,0.27 0.17,0.12 0.29,0.32 0.27,0.53 -0.06,0.5 -0.88,0.68 -0.85,1.18 0.02,0.25 0.26,0.44 0.32,0.68 0.07,0.3 -0.15,0.6 -0.43,0.74 -0.28,0.14 -0.59,0.16 -0.9,0.22 -0.31,0.06 -0.62,0.17 -0.79,0.43 -0.24,0.37 -0.09,0.85 0.04,1.27 0.2,0.63 0.13,1.72 0.47,2.23 0.11,0.17 0.28,0.29 0.42,0.44 0.55,0.6 0.42,1.6 -0.06,2.26 -0.48,0.66 -1.24,1.04 -1.98,1.4 -0.74,0.36 -1.5,0.72 -2.03,1.34 -0.92,1.08 -2.62,0.03 -3.77,0.55 -0.08,0.04 -0.15,0.08 -0.24,0.08 -0.1,0 -0.19,-0.05 -0.28,-0.1 l -1.43,-0.8 C 22.47,33.01 22.37,32.96 22.28,32.88 22.16,32.77 22.08,32.63 22,32.49 L 21.38,31.4 c 0.17,-0.32 0.52,-0.51 0.86,-0.65 0.58,-0.23 1.2,-0.36 1.8,-0.55 0.28,-0.09 0.55,-0.19 0.81,-0.3 1.19,-0.5 1.66,-1.48 2.15,-2.62 0.2,-0.45 0.37,-0.91 0.53,-1.38 0.29,-0.83 0.54,-1.67 0.75,-2.52"
           style="fill:#624c33;stroke-width:0.794285"
           id="path24" />
        <path
           d="m 30.72,18.86 c 0.55,0.41 0.8,1.11 1.31,1.57 0.48,0.44 0.99,0.59 1.06,1.36 0.02,0.21 -0.02,0.45 -0.17,0.6 -0.14,0.14 -0.35,0.18 -0.53,0.26 -0.58,0.25 -0.87,0.91 -1,1.53 -0.08,0.4 -0.15,0.86 -0.5,1.07 -0.28,0.17 -0.66,0.1 -0.93,-0.08 -0.31,-0.21 -0.45,-0.55 -0.72,-0.78 -0.14,-0.12 -0.78,-0.37 -0.65,-0.66 l 2.14,-4.86 z"
           style="fill:#412f1e;stroke-width:0.794285"
           id="path25" />
        <path
           d="m 30.78,19.41 c -0.1,0.99 1.71,1.16 1.37,2.06 -0.12,0.3 -0.42,0.5 -0.73,0.57 -0.31,0.07 -0.64,0.05 -0.96,0.04 -1,-0.04 -0.54,-1.44 -0.24,-2.04"
           style="fill:#231610;stroke-width:0.794285"
           id="path26" />
        <path
           d="m 30.1,22.82 c -0.09,0.48 -0.02,0.98 0.2,1.41 0.19,0.39 0.5,0.73 0.59,1.15 0.13,0.58 -0.19,1.18 -0.6,1.6 -0.08,0.08 -0.17,0.16 -0.28,0.2 -0.18,0.06 -0.37,0 -0.55,-0.06 -0.49,-0.17 -1.01,-0.36 -1.31,-0.79 -0.31,-0.43 -0.31,-1 -0.31,-1.53 0,-0.36 0,-0.74 0.12,-1.08 0.12,-0.34 0.33,-0.68 0.66,-0.83 l 1.47,-0.08 z"
           style="fill:#412f1e;stroke-width:0.794285"
           id="path27" />
        <path
           d="m 29.4,23.32 c -0.17,0.87 1.19,1.88 0.99,3.21 -0.2,1.33 -1.54,-1.71 -1.54,-1.71 z"
           style="fill:#231610;stroke-width:0.794285"
           id="path28" />
        <path
           d="m 30.72,15.6 c 0.32,-0.11 0.65,-0.19 1,-0.17 0.45,0.02 0.92,0.26 1.09,0.67 0.06,0.16 0.08,0.33 0.09,0.5 0.03,0.52 -0.2,0.96 -0.22,1.46 -0.02,0.46 0.36,0.89 -0.35,1.07 -0.62,0.16 -1.39,-0.08 -1.98,-0.31 -1.04,-0.42 -2.17,-0.52 -3.21,-0.98 -0.39,-0.17 -1.02,-0.33 -1.25,-0.71 -0.36,-0.58 0.21,-0.87 0.71,-0.92 0.97,-0.1 1.95,-0.19 2.92,-0.29 0.41,-0.04 0.8,-0.2 1.18,-0.32 z"
           style="fill:#624c33;stroke-width:0.794285"
           id="path29" />
        <path
           d="m 17.6,18.51 c 0.11,-0.07 0.2,-0.14 0.29,-0.24 0.61,-0.62 0.68,-1.61 1.38,-2.18 0.48,-0.39 1.51,-0.72 2.13,-0.74 0.8,-0.02 0.9,0.55 1.68,0.32 0.24,-0.07 0.49,0.03 0.73,0.11 0.83,0.3 1.71,0.48 2.59,0.52 -0.16,0.66 0.94,1.1 1.09,1.71 0.18,0.73 0.31,1.64 0.24,2.38 -0.02,0.2 -0.05,0.4 -0.15,0.57 -0.09,0.16 -0.23,0.28 -0.37,0.4 -0.45,0.41 -0.86,0.87 -1.17,1.4 -0.31,0.53 -0.52,1.11 -0.73,1.7 -0.34,0.94 -0.73,1.88 -0.97,2.84 -0.2,0.82 -0.86,1.36 -1.49,1.9 -0.15,0.13 -0.31,0.26 -0.5,0.33 -0.28,0.1 -0.58,0.06 -0.87,0.01 -0.57,-0.09 -1.16,-0.18 -1.67,-0.43 -0.51,-0.25 -0.97,-0.71 -1.08,-1.28 -0.21,-1.13 0.97,-2.23 0.6,-3.31 -0.19,-0.57 -0.75,-0.92 -1.28,-1.19 -0.73,-0.37 -1.49,-0.69 -2.14,-1.19 -0.65,-0.5 -1.18,-1.21 -1.24,-2.03 -0.02,-0.3 0.04,-0.64 0.27,-0.83 0.12,-0.1 0.26,-0.15 0.41,-0.19 0.7,-0.2 1.59,-0.19 2.23,-0.59 z"
           style="fill:#624c33;stroke-width:0.794285"
           id="path30" />
        <path
           d="m 19.96,21.72 c -0.07,0 -0.15,0.03 -0.17,0.1 -0.08,0.21 0.28,0.27 0.37,0.37 0.16,0.16 0.25,0.42 0.29,0.64 0.09,0.62 -0.14,1.07 -0.35,1.63 -0.31,0.82 0.28,1.74 0.14,2.61 -0.09,0.55 -0.03,0.97 0.15,1.52 0.03,0.09 0.06,0.19 0.12,0.27 0.04,0.06 0.08,0.11 0.13,0.16 l 0.92,0.99 c 0.14,0.15 0.33,0.31 0.51,0.23 0.14,-0.06 -0.18,-1.55 -0.19,-1.73 -0.02,-0.53 0.16,-0.93 0.3,-1.42 0.22,-0.77 0.52,-1.45 0.47,-2.28 -0.05,-1.09 -0.6,-2.17 -1.51,-2.77 -0.15,-0.1 -0.32,-0.19 -0.5,-0.2 -0.07,0 -0.13,0.02 -0.2,0.01 -0.18,-0.02 -0.3,-0.12 -0.49,-0.1 z"
           style="fill:#412f1e;stroke-width:0.794285"
           id="path31" />
        <path
           d="m 21.69,23.03 c 0.06,0.42 -0.03,0.83 -0.11,1.25 -0.06,0.35 -0.26,0.59 -0.45,0.89 -0.07,0.1 -0.14,0.21 -0.17,0.33 -0.09,0.33 0.12,0.67 0.4,0.86 0.12,0.08 0.26,0.14 0.41,0.15 0.45,0.02 0.46,-0.59 0.55,-0.91 0.15,-0.52 0.27,-1.06 0.26,-1.61"
           style="fill:#231610;stroke-width:0.794285"
           id="path32" />
        <path
           d="m 18.79,18.08 c -0.37,0.38 -0.57,0.9 -0.81,1.37 -0.14,0.28 -0.31,0.57 -0.54,0.79 -0.2,0.19 -0.6,0.29 -0.72,0.52 -0.08,0.14 -0.13,0.31 -0.09,0.46 0.06,0.25 0.4,0.37 0.6,0.5 0.28,0.18 0.59,0.32 0.93,0.3 0.58,-0.04 1.03,-0.53 1.29,-1.05 z"
           style="fill:#4f3b24;stroke-width:0.794285"
           id="path33" />
        <path
           d="M 26.09,20.1 C 26,20.08 25.92,20.06 25.83,20.04 25.59,19.99 25.36,20 25.13,19.97 24.79,19.92 24.76,19.75 24.46,19.62 24.3,19.55 24.12,19.52 23.95,19.5 23.07,19.4 22.16,19.7 21.29,19.5 21.06,19.45 20.84,19.36 20.62,19.33 20.4,19.3 20.21,19.2 20,19.16 c -0.22,-0.04 -0.44,0.05 -0.6,0.2 -0.16,0.15 -0.26,0.35 -0.31,0.57 -0.05,0.19 -0.08,0.42 -0.26,0.5 -0.15,0.07 -0.33,-0.01 -0.43,-0.15 -0.1,-0.14 -0.12,-0.3 -0.14,-0.47 -0.07,-0.74 0.03,-1.56 0.53,-2.11 0.32,-0.35 0.75,-0.55 1.19,-0.71 0.8,-0.28 1.47,-0.24 2.29,-0.26 0.73,-0.02 1.44,0.04 2.13,-0.23 0.35,-0.14 0.71,-0.29 1.08,-0.31 0.37,-0.02 0.79,0.15 0.94,0.5 0.05,0.12 0.07,0.25 0.14,0.36 0.12,0.19 0.37,0.27 0.59,0.29 0.95,0.09 1.84,-0.44 2.78,-0.63 0.29,-0.06 0.6,-0.09 0.89,-0.01 0.76,0.2 1.2,1.11 1,1.88 -0.15,0.56 -0.6,1.04 -1.15,1.22 -0.45,0.15 -0.92,0.1 -1.38,0.16 -0.49,0.07 -0.96,0.24 -1.46,0.28 -0.59,0.05 -1.18,-0.04 -1.76,-0.16 z"
           style="fill:#412f1e;stroke-width:0.794285"
           id="path34" />
        <path
           d="m 18.92,18.63 c -0.23,0.59 -0.53,1.16 -0.9,1.67 -0.09,0.13 -0.19,0.25 -0.23,0.4 -0.04,0.15 -0.01,0.33 0.11,0.43 0.09,0.07 0.22,0.08 0.34,0.09 l 1.2,0.08 c -0.16,-0.4 -0.22,-0.84 -0.18,-1.28"
           style="fill:#231610;stroke-width:0.794285"
           id="path35" />
        <path
           d="m 26.74,25.25 c 0.27,-0.12 0.56,-0.19 0.82,-0.3 0.21,-0.1 0.38,-0.4 0.63,-0.37 0.08,0 0.15,0.05 0.21,0.1 0.32,0.2 0.55,0.44 0.72,0.78 0.06,0.13 0.12,0.27 0.17,0.4 0.06,0.17 0.12,0.34 0.21,0.5 0.09,0.16 0.23,0.29 0.41,0.33 0.12,0.03 0.24,0.01 0.35,0.04 0.37,0.09 0.27,1.02 0.25,1.31 -0.06,0.81 -0.23,1.69 -0.59,2.43 -0.24,0.49 -0.75,0.86 -1.15,1.22 -1.03,0.94 -2.39,1.51 -3.78,1.42 -0.84,-0.05 -1.67,-0.34 -2.38,-0.81 -0.71,-0.47 -1.29,-0.83 -1.36,-1.77 -0.03,-0.48 0.11,-0.99 -0.04,-1.45 -0.08,-0.25 -0.24,-0.48 -0.32,-0.73 -0.08,-0.24 -0.08,-0.5 -0.07,-0.76 0,-0.46 0.03,-0.69 0.3,-1.06 0.26,-0.37 0.25,-0.86 0.44,-1.27 0.12,-0.25 0.31,-0.47 0.41,-0.73 0.05,-0.12 0.07,-0.25 0.13,-0.36 0.13,-0.24 0.39,-0.37 0.63,-0.48 0.13,-0.06 0.27,-0.12 0.41,-0.12 0.96,0 1.28,1.8 2.34,1.98 0.42,0.07 0.85,-0.1 1.24,-0.27 z"
           style="fill:#916856;stroke-width:0.794285"
           id="path36" />
        <path
           d="m 30.37,28.02 c 0.42,0.04 -0.48,2.44 -0.62,2.68 -0.83,1.38 -2.61,2.61 -4.27,2.6 -1.29,0 -2.45,-0.77 -3.51,-1.51 -0.13,-0.09 -0.25,-0.18 -0.34,-0.3 -0.14,-0.19 -0.18,-0.44 -0.19,-0.67 -0.02,-0.43 0.01,-0.87 0.11,-1.29 -0.04,0.18 1,0.19 1.11,0.21 0.46,0.06 0.7,0.39 1.02,0.7 0.53,0.51 1.34,0.56 2.08,0.58 0.84,0.02 1.78,0 2.38,-0.59 0.17,-0.17 0.3,-0.37 0.47,-0.54 0.26,-0.26 0.6,-0.37 0.87,-0.64 0.32,-0.33 0.59,-0.69 0.79,-1.11 0.02,-0.05 0.06,-0.11 0.12,-0.1 z"
           style="opacity:0.61;fill:#b2897a;stroke-width:0.794285"
           id="path37" />
        <path
           d="m 18.81,18.79 c 0.34,-0.78 2.2,-1.53 4,-1.28 1.8,0.25 1.72,0.89 3.11,0.81 1.39,-0.08 2.95,-1.01 4.05,-0.23 1.1,0.78 1.05,2.46 0.45,3.87 -0.6,1.41 -1.51,1.61 -0.83,3.57 0.37,1.05 0.33,1.99 0.02,2.55 -0.31,0.56 -1.63,0.65 -2.46,0.54 -0.83,-0.11 -1.53,-0.33 -2.31,-0.22 -0.78,0.11 -2.92,-0.08 -3.27,-1.4 -0.35,-1.32 0.37,-1.71 0.33,-2.9 -0.04,-1.19 -1.21,-1.95 -2.2,-2.39 -0.99,-0.44 -1.21,-1.14 -1.21,-1.62 0,-0.48 0.11,-0.82 0.32,-1.3 z"
           style="fill:#a06265;stroke-width:0.794285"
           id="path38" />
        <path
           d="m 23.99,20.12 c -0.46,0.27 -0.94,0.37 -1.38,0.7 -0.23,0.17 -0.44,0.37 -0.58,0.61 -0.13,0.22 -0.19,0.47 -0.2,0.73 0,0.17 0.01,0.35 0.09,0.5 0.16,0.31 0.54,0.44 0.88,0.51 0.18,0.04 0.38,0.07 0.53,-0.04 0.08,-0.06 0.13,-0.14 0.18,-0.22 0.5,-0.69 1.35,-1.02 1.56,-1.93 0.12,-0.5 0,-1.05 0.04,-1.57 0,-0.07 0,-0.15 -0.02,-0.21 -0.07,-0.16 -0.32,-0.16 -0.45,-0.04 -0.32,0.3 -0.2,0.69 -0.65,0.96 z"
           style="fill:#ae8378;stroke-width:0.794285"
           id="path39" />
        <path
           d="m 27.78,24.31 c 0.05,0.11 0.09,0.23 0.12,0.36 0.1,0.45 0.22,0.89 0.27,1.34 0.03,0.28 0.04,0.72 0.41,0.81 0.33,0.15 0.74,-0.05 0.89,-0.38 0.06,-0.13 0.08,-0.28 0.09,-0.42 0.02,-0.25 0.02,-0.51 -0.06,-0.75 -0.05,-0.15 -0.12,-0.29 -0.21,-0.43 -0.22,-0.38 -0.48,-0.74 -0.72,-1.11 l -0.2,-0.31 c -0.31,-0.49 -0.68,-0.9 -1.04,-1.34 -0.16,-0.2 -0.33,-0.41 -0.57,-0.52 -0.02,0 -0.04,-0.02 -0.05,-0.01 -0.03,0 -0.04,0.03 -0.05,0.05 -0.04,0.1 0,0.21 0.06,0.31 0.26,0.52 0.41,1.09 0.65,1.61 0.14,0.29 0.3,0.53 0.42,0.81 z"
           style="fill:#854b48;stroke-width:0.794285"
           id="path40" />
        <path
           d="m 30,28.59 c 0.21,-0.27 0.35,-0.6 0.42,-0.99 0.07,-0.39 0.18,-1.16 -0.37,-1.25 -0.08,-0.01 -0.17,0 -0.23,0.04 -0.11,0.08 -0.05,0.3 -0.08,0.42 -0.04,0.17 -0.17,0.36 -0.29,0.48 -0.31,0.31 -0.58,0.67 -1.06,0.33 -0.51,-0.36 -0.31,-0.83 -0.19,-1.3 0.04,-0.15 0.02,-0.31 0,-0.47 -0.05,-0.43 -0.11,-0.87 -0.29,-1.26 0,0.28 0.01,0.57 -0.13,0.81 -0.2,0.34 -0.23,0.55 -0.63,0.7 -0.04,0.02 -0.09,0.03 -0.14,0.04 -0.13,0.02 -0.26,0 -0.39,-0.02 -0.29,-0.05 -0.66,-0.34 -0.92,-0.49 -0.29,-0.17 -0.4,-0.53 -0.54,-0.83 -0.02,-0.04 -0.05,-0.08 -0.09,-0.08 -0.02,0 -0.04,0.02 -0.06,0.03 -0.36,0.29 -0.48,0.79 -0.47,1.25 0,0.58 0.68,1.28 0,1.8 -0.16,0.12 -0.38,0.15 -0.59,0.16 -0.86,0.01 -1.72,-0.36 -2.29,-1.01 -0.06,-0.07 -0.12,-0.14 -0.21,-0.16 -0.1,-0.02 -0.2,0.05 -0.25,0.13 -0.05,0.08 -0.07,0.19 -0.09,0.28 -0.09,0.56 -0.11,1.06 0.31,1.47 0.22,0.21 0.32,0.15 0.59,0.19 0.27,0.04 0.55,0.21 0.82,0.31 0.31,0.11 0.65,0.15 0.98,0.16 0.65,0.03 1.3,-0.04 1.94,-0.2 0.26,-0.07 0.52,-0.15 0.8,-0.17 0.65,-0.06 1.26,0.22 1.89,0.31 0.63,0.09 1.14,-0.15 1.55,-0.68 z"
           style="fill:#b2897a;stroke-width:0.794285"
           id="path41" />
        <path
           d="m 29.58,17.91 c -0.11,0.17 -0.3,0.31 -0.49,0.39 -0.31,0.14 -0.66,0.22 -0.87,0.48 -0.1,0.14 -0.15,0.3 -0.25,0.44 -0.26,0.34 -0.75,0.38 -1.19,0.39 -0.13,0 -0.25,0 -0.37,-0.03 -0.13,-0.04 -0.24,-0.1 -0.36,-0.15 -0.53,-0.22 -1.2,0 -1.51,0.47 -0.05,0.06 -0.09,0.14 -0.16,0.16 -0.06,0.02 -0.14,0 -0.19,-0.04 -0.38,-0.17 -0.71,-0.43 -0.96,-0.75 -0.05,-0.07 -0.11,-0.15 -0.18,-0.19 -0.07,-0.03 -0.15,-0.03 -0.23,-0.04 -0.54,0 -1.09,0 -1.62,0 -0.43,0 -0.85,0 -1.26,0.11 -0.41,0.12 -0.8,0.37 -0.98,0.75 l 0.25,1.07 h -0.43 c -0.22,-0.3 -0.28,-0.62 -0.28,-0.88 0,-0.48 0.11,-0.82 0.32,-1.3 0.34,-0.78 2.2,-1.53 4.01,-1.27 1.8,0.25 1.72,0.89 3.1,0.81 1.23,-0.07 2.6,-0.81 3.66,-0.42 z"
           style="fill:#321414;stroke-width:0.794285"
           id="path42" />
        <path
           d="m 29.58,17.91 c -0.11,0.17 -0.3,0.31 -0.49,0.39 -0.31,0.14 -0.66,0.22 -0.87,0.48 -0.1,0.14 -0.15,0.3 -0.25,0.44 -0.26,0.34 -0.75,0.38 -1.19,0.39 -0.13,0 -0.25,0 -0.37,-0.03 -0.13,-0.04 -0.24,-0.1 -0.36,-0.15 -0.53,-0.22 -1.2,0 -1.51,0.47 -0.05,0.06 -0.09,0.14 -0.16,0.16 -0.06,0.02 -0.14,0 -0.19,-0.04 -0.38,-0.17 -0.71,-0.43 -0.96,-0.75 -0.05,-0.07 -0.11,-0.15 -0.18,-0.19 -0.07,-0.03 -0.15,-0.03 -0.23,-0.04 -0.54,0 -1.09,0 -1.62,0 -0.43,0 -0.85,0 -1.26,0.11 -0.41,0.12 -0.8,0.37 -0.98,0.75 l 0.25,1.07 h -0.43 c -0.22,-0.3 -0.28,-0.62 -0.28,-0.88 0,-0.48 0.11,-0.82 0.32,-1.3 0.34,-0.78 2.2,-1.53 4.01,-1.27 1.8,0.25 1.72,0.89 3.1,0.81 1.23,-0.07 2.6,-0.81 3.66,-0.42 z"
           style="fill:#421a1a;stroke-width:0.794285"
           id="path43" />
        <path
           d="m 29.57,18.72 c 0,0 -0.05,0.07 -0.09,0.1 -0.53,0.42 -1.11,0.78 -1.74,1 -0.4,0.14 -1.47,0.52 -1.71,-0.01 -0.07,-0.16 -0.06,-0.34 -0.03,-0.51 0.11,-0.48 0.47,-1.02 0.96,-1.14 0.61,-0.16 1.24,-0.35 1.88,-0.36 0.24,0.15 0.46,0.33 0.63,0.51 0.1,0.12 0.19,0.29 0.11,0.42 z"
           style="fill:#7e5d5a;stroke-width:0.794285"
           id="path44" />
        <path
           d="m 30.54,21.63 c -0.06,0.05 -0.13,0.11 -0.2,0.15 -0.32,0.22 -0.69,0.37 -1.07,0.4 -0.49,0.04 -0.96,-0.15 -1.37,-0.4 -0.17,-0.1 -0.96,-0.58 -0.49,-0.82 0.05,-0.03 0.13,-0.03 0.19,-0.02 0.24,0.02 0.48,0.05 0.72,0.05 0.32,0 0.64,-0.08 0.93,-0.22 0.3,-0.15 0.58,-0.37 0.73,-0.68 0.15,-0.3 0.16,-0.68 0,-0.97 -0.14,-0.22 -0.36,-0.38 -0.61,-0.45 -0.24,-0.07 -0.44,-0.16 -0.56,-0.4 -0.07,-0.15 -0.09,-0.33 -0.03,-0.48 0.44,-0.03 0.83,0.05 1.19,0.3 1.02,0.71 1.05,2.19 0.57,3.53 z"
           style="fill:#813a3c;stroke-width:0.794285"
           id="path45" />
        <path
           d="m 27.1,22.1 c 0.45,0.37 0.76,0.8 0.83,1.4 0,0.09 0.01,0.18 0.05,0.26 0.02,0.04 0.05,0.08 0.09,0.12 0.19,0.15 0.49,0.03 0.6,-0.18 0.11,-0.21 0.1,-0.46 0.05,-0.7 -0.16,-0.77 0.06,-1.31 -0.69,-1.82 -0.51,-0.34 -1.15,-0.52 -1.45,-1.09 -0.13,-0.25 -0.31,-0.66 -0.55,-0.78 -0.45,0.87 0.41,2.25 1.06,2.79 z"
           style="fill:#ae8378;stroke-width:0.794285"
           id="path46" />
        <path
           d="m 24.79,23.17 c -0.63,1.16 -1.51,2.19 -2.51,3.07 -0.15,0.13 -0.31,0.26 -0.51,0.33 -0.09,0.03 -0.19,0.04 -0.28,0.03 -0.12,-1.01 0.44,-1.43 0.41,-2.49 0,-0.21 -0.05,-0.4 -0.11,-0.58 0.11,0.04 0.23,0.03 0.33,-0.02 0.16,-0.07 0.28,-0.22 0.38,-0.37 0.1,-0.15 0.18,-0.31 0.29,-0.45 0.22,-0.24 0.53,-0.39 0.83,-0.53 0.23,-0.09 0.45,-0.19 0.7,-0.19 0.24,0 0.51,0.1 0.62,0.32 0.15,0.27 0,0.61 -0.14,0.89 z"
           style="fill:#854b48;stroke-width:0.794285"
           id="path47" />
        <path
           d="m 22.9,21.11 c 0.04,0.16 -0.14,0.29 -0.28,0.36 -0.58,0.32 -1.23,0.62 -1.22,1.4 -0.44,-0.52 -1.11,-0.9 -1.7,-1.16 -0.99,-0.44 -1.22,-1.13 -1.22,-1.62 0,-0.24 0.03,-0.45 0.08,-0.66 0.15,-0.14 0.32,-0.24 0.5,-0.33 0.13,-0.06 0.64,-0.29 0.65,-0.05 0,0.09 -0.11,0.22 -0.15,0.32 -0.05,0.14 -0.04,0.28 0,0.42 0.07,0.25 0.26,0.46 0.48,0.6 0.29,0.18 0.63,0.25 0.96,0.3 0.35,0.05 0.71,0.09 1.06,0.11 0.24,0 0.51,0.02 0.7,0.17 0.05,0.04 0.11,0.09 0.12,0.15 z"
           style="fill:#813a3c;stroke-width:0.794285"
           id="path48" />
        <path
           d="m 23.54,19.56 c -0.32,0.02 -3.29,-0.16 -2.44,-1.03 0.25,-0.26 0.6,-0.42 0.95,-0.51 0.35,-0.09 0.72,-0.11 1.08,-0.12 0.2,0 0.41,0 0.61,0.06 0.15,0.05 0.28,0.14 0.41,0.23 0.18,0.13 0.37,0.28 0.42,0.5 0.06,0.25 -0.09,0.51 -0.3,0.66 -0.21,0.15 -0.47,0.19 -0.73,0.21 z"
           style="fill:#7e5d5a;stroke-width:0.794285"
           id="path49" />
        <path
           d="m 22.65,19.05 c -0.05,-0.11 -0.08,-0.22 -0.14,-0.33 -0.03,-0.06 -0.07,-0.11 -0.12,-0.15 -0.71,0.09 -1.43,0.34 -1.43,0.53 0,0.15 0.22,0.4 0.49,0.56 0.21,0.12 0.49,0.22 0.78,0.28 0.28,-0.01 0.56,-0.05 0.82,-0.12 0.02,0 0.04,-0.01 0.06,-0.03 0.04,-0.05 0,-0.12 -0.06,-0.16 -0.17,-0.16 -0.31,-0.37 -0.4,-0.59 z"
           style="fill:#babdb6;stroke-width:0.794285"
           id="path50" />
        <path
           d="m 23.36,18.77 c 0,-0.06 0,-0.12 -0.02,-0.18 -0.36,-0.09 -0.93,-0.04 -1.43,0.08 -0.17,0.19 -0.2,0.53 -0.15,0.76 0.02,0.07 0.05,0.14 0.09,0.2 0.04,0.06 0.08,0.12 0.14,0.18 0.03,0.04 0.06,0.08 0.09,0.11 0.39,0.11 0.79,0.16 1.06,0.16 0.03,-0.04 0.06,-0.09 0.08,-0.13 0.16,-0.36 0.15,-0.78 0.14,-1.17 z"
           style="fill:#33180d;stroke-width:0.794285"
           id="path51" />
        <path
           d="m 24.09,19.67 c -0.16,-0.13 0.04,-0.82 -0.63,-1.06 -0.15,-0.06 -0.37,-0.07 -0.6,-0.07 0.14,0.05 0.26,0.13 0.39,0.22 0.12,0.08 0.24,0.16 0.3,0.28 0.24,0.45 -0.29,0.75 -0.64,1.03 0.14,0.01 0.27,0.01 0.36,0 0.37,-0.04 0.8,0.03 1.09,0.01 0.28,-0.01 -0.11,-0.29 -0.27,-0.42 z"
           style="fill:#421a1a;stroke-width:0.794285"
           id="path52" />
        <path
           d="m 22.43,19.87 c 0.07,0.07 0.16,0.13 0.25,0.16 0.28,0.11 0.62,0.05 0.84,-0.16 0.22,-0.21 0.29,-0.56 0.16,-0.83 -0.04,-0.09 -0.1,-0.16 -0.17,-0.23 -0.19,-0.19 -0.47,-0.31 -0.74,-0.27 -0.63,0.1 -0.75,0.92 -0.35,1.33 z"
           style="fill:#6d401f;stroke-width:0.794285"
           id="path53" />
        <path
           d="m 22.91,19.02 c -0.02,0.08 -0.04,0.16 -0.02,0.24 0.02,0.08 0.08,0.15 0.16,0.15 0.03,0 0.07,-0.01 0.1,-0.03 0.13,-0.07 0.19,-0.23 0.15,-0.37 -0.02,-0.05 -0.1,-0.1 -0.15,-0.1 -0.04,0 -0.09,0 -0.13,0.01 -0.04,0.01 -0.09,0.06 -0.1,0.1 z"
           style="fill:#231f20;stroke-width:0.794285"
           id="path54" />
        <g
           style="opacity:0.39;stroke-width:0.794285"
           id="g55">
          <path
             d="m 23,18.68 c -0.12,-0.06 -0.66,-0.23 -0.61,0.06 0.03,0.21 0.43,0.19 0.55,0.12 0.06,-0.04 0.1,-0.13 0.06,-0.19 z"
             style="fill:#d3d7cf;stroke-width:0.794285"
             id="path55" />
        </g>
        <path
           d="m 28.54,18.92 c -0.11,0 -0.55,0.05 -0.42,0.25 0.1,0.14 0.38,0 0.44,-0.09 0.03,-0.05 0.03,-0.13 -0.02,-0.16 z"
           style="fill:#ffffff;stroke-width:0.794285"
           id="path56" />
        <path
           d="m 27.49,26.24 c 0,0 -0.04,0.08 -0.05,0.13 -0.01,0.03 -0.08,0.34 -0.07,0.34 0.48,-0.21 0.86,-0.62 0.57,-1.15 0.03,0.06 -0.29,0.43 -0.33,0.49 -0.04,0.07 -0.08,0.13 -0.11,0.19 z"
           style="fill:#231f20;stroke-width:0.794285"
           id="path57" />
        <path
           d="m 25.78,25.61 c 0.11,0.16 0.27,0.25 0.44,0.33 0.16,0.07 0.24,0.15 0.33,0.31 0.17,0.3 0.21,0.65 0.23,0.99 0,0.06 0,0.13 -0.04,0.17 -0.04,0.05 -0.12,0.06 -0.18,0.04 -0.06,-0.02 -0.12,-0.06 -0.17,-0.11 L 25.61,26.68 C 25.48,26.57 25.34,26.45 25.23,26.32 24.99,26.01 24.9,25.6 24.91,25.2 c 0.01,-0.4 0.13,-0.78 0.25,-1.15 0.07,-0.2 0.14,-0.41 0.29,-0.57 0.04,-0.04 0.1,-0.08 0.15,-0.07 0.06,0.02 0.09,0.09 0.1,0.16 0.03,0.22 -0.01,0.45 -0.04,0.67 -0.03,0.26 -0.05,0.53 -0.03,0.8 0,0.2 0.03,0.4 0.15,0.57 z"
           style="fill:#854b48;stroke-width:0.794285"
           id="path58" />
        <path
           d="m 25.58,29.46 c -0.21,0.01 -0.41,0.03 -0.63,0.04 -0.31,0.02 -0.63,0.12 -0.94,0.16 -0.31,0.04 -0.65,0.06 -0.97,0.02 -0.4,-0.04 -0.79,-0.18 -1.12,-0.41 -0.07,0.09 0,0.22 0.09,0.29 0.37,0.38 0.9,0.56 1.43,0.62 0.53,0.06 1.06,0 1.58,-0.07 0.52,-0.07 1.06,-0.11 1.58,-0.03 0.35,0.05 0.69,0.16 1.05,0.21 0.36,0.05 0.73,0.04 1.04,-0.13 0.31,-0.17 0.52,-0.51 0.55,-0.86 0,0.09 -0.61,0.27 -0.7,0.3 -0.28,0.09 -0.56,0.17 -0.85,0.12 -0.24,-0.04 -0.49,-0.12 -0.73,-0.18 -0.47,-0.12 -0.92,-0.13 -1.39,-0.1 z"
           style="fill:#4d352c;stroke-width:0.794285"
           id="path59" />
        <path
           d="m 29.74,12.89 c -0.01,-0.07 -0.01,-0.15 -0.02,-0.23 h -8.8 c -0.18,0.4 -0.04,0.96 0.28,1.23 0.59,0.49 0.89,1.24 1.49,1.68 0.52,0.39 1.31,0.6 1.94,0.4 0.61,-0.2 1.33,-0.32 1.86,0.03 0.11,0.07 0.21,0.16 0.32,0.23 1.08,0.65 2.8,-1.03 3.16,-1.94 0.08,-0.21 0.11,-0.42 0.05,-0.61 -0.08,-0.27 -0.23,-0.52 -0.28,-0.79 z"
           style="fill:#624c33;stroke-width:0.794285"
           id="path60" />
        <path
           d="m 27.53,15.61 c 0.3,-0.23 0.59,-0.49 0.78,-0.81 0.19,-0.32 0.28,-0.73 0.13,-1.08 -0.19,-0.46 -0.18,-0.89 -0.33,-1.34 -0.12,-0.36 -0.4,-0.89 -0.85,-0.67 -0.19,0.09 -0.32,0.27 -0.47,0.43 -0.29,0.32 -0.71,0.6 -1.12,0.48 0.06,-0.23 0.09,-0.53 -0.12,-0.64 -0.15,-0.07 -0.32,0 -0.46,0.09 -0.6,0.35 -1.23,0.85 -1.92,0.72 -0.05,0 -0.1,-0.02 -0.13,-0.06 C 23.01,12.7 23.01,12.66 23,12.61 l -0.07,-0.47 c -0.87,0.09 -1.14,1.02 -0.77,1.68 0.39,0.7 1.03,1.28 1.75,1.63 0.17,0.09 0.36,0.16 0.55,0.18 0.19,0.02 0.39,-0.02 0.58,-0.02 0.39,0 0.76,0.18 1.14,0.28 0.5,0.14 0.94,0.05 1.34,-0.27 z"
           style="fill:#4f3b24;stroke-width:0.794285"
           id="path61" />
        <path
           d="m 26.49,12.9 c -0.14,0.2 -0.26,0.43 -0.41,0.6 -0.24,0.27 -0.38,0.49 -0.57,0.8 -0.21,0.33 -0.64,0.54 -0.23,0.87 0.32,0.25 0.9,0.11 1.25,0.03 0.1,-0.02 0.2,-0.05 0.31,-0.03 0.08,0.01 0.15,0.05 0.23,0.07 0.25,0.07 0.53,-0.05 0.7,-0.25 0.46,-0.53 0.27,-1.37 0.24,-2 0,-0.04 0,-0.07 -0.03,-0.1 -0.04,-0.03 -0.09,-0.02 -0.14,0 -0.19,0.09 -0.29,0.29 -0.44,0.43 -0.15,0.14 -0.4,0.24 -0.55,0.09 0.09,-0.23 0.14,-0.48 0.15,-0.73 0,-0.06 -0.01,-0.14 -0.07,-0.15 -0.03,0 -0.05,0 -0.08,0.02 -0.14,0.08 -0.25,0.2 -0.35,0.34 z"
           style="fill:#412f1e;stroke-width:0.794285"
           id="path62" />
        <path
           d="m 25.95,26.03 c -0.14,-0.05 -0.28,-0.12 -0.35,-0.25 -0.02,-0.04 -0.03,-0.09 -0.06,-0.12 -0.03,-0.03 -0.06,-0.07 -0.11,-0.07 -0.05,0 -0.09,0.05 -0.11,0.1 -0.07,0.17 0.01,0.38 0.14,0.51 0.13,0.13 0.29,0.23 0.45,0.34 0.14,0.1 0.26,0.21 0.38,0.33 0.24,0.25 0.25,-0.19 0.19,-0.34 -0.1,-0.29 -0.24,-0.4 -0.52,-0.5 z"
           style="fill:#231f20;stroke-width:0.794285"
           id="path63" />
        <g
           id="g68"
           style="stroke-width:0.794285">
          <path
             d="m 28.73,18.03 c 0.42,0.05 0.83,0.36 0.95,0.62 0.12,0.26 -0.4,1.19 -0.4,1.19 l -0.34,-1.06 c 0,0 0.1,-0.09 0.23,-0.26 0.13,-0.17 -0.44,-0.48 -0.44,-0.48 z"
             style="fill:#421a1a;stroke-width:0.794285"
             id="path64" />
          <path
             d="m 27.44,20.14 c -0.4,-0.04 -0.68,-0.05 -0.84,-0.09 -0.16,-0.04 -0.09,-0.16 0.18,-0.22 0.27,-0.06 0.86,-0.7 1.25,-0.88 0.39,-0.18 0.79,-0.18 1.25,-0.14 0.14,0.04 0.21,0.8 -0.03,1.16 -0.24,0.36 -1.12,0.24 -1.81,0.18 z"
             style="fill:#babdb6;stroke-width:0.794285"
             id="path65" />
          <path
             d="m 29.25,19.96 c 0.07,-0.1 0.11,-0.24 0.13,-0.38 0.02,-0.15 0.03,-0.36 0,-0.55 -0.02,-0.13 -0.06,-0.22 -0.1,-0.24 -0.46,-0.04 -0.86,-0.05 -1.25,0.14 -0.07,0.03 -0.15,0.09 -0.23,0.14 -0.04,0.08 -0.09,0.25 -0.1,0.54 0,0.27 0.07,0.45 0.12,0.55 0.6,0.06 1.24,0.09 1.43,-0.21 z"
             style="fill:#6d401f;stroke-width:0.794285"
             id="path66" />
          <g
             style="opacity:0.39;stroke-width:0.794285"
             id="g67">
            <path
               d="m 28.59,18.9 c -0.13,-0.02 -0.67,0 -0.53,0.26 0.1,0.18 0.45,0.03 0.53,-0.07 0.05,-0.05 0.05,-0.15 0,-0.19 z"
               style="fill:#d3d7cf;stroke-width:0.794285"
               id="path67" />
          </g>
        </g>
        <ellipse
           cx="28.73"
           cy="19.35"
           rx="0.23"
           ry="0.2"
           transform="rotate(-78.76,28.7311,19.3521)"
           style="fill:#231f20;stroke-width:0.794285"
           id="ellipse68" />
        <path
           d="m 27.31,20.12 c 0,0 -0.04,-0.4 0.09,-0.61 0.13,-0.21 0.71,-0.67 1.38,-0.63 0.5,0.03 0.58,0.07 0.58,0.07 0,0 0.06,0.53 0.03,0.7 0,0 0.23,-0.76 0.19,-0.84 -0.04,-0.08 -0.47,-0.34 -1.28,-0.21 -0.81,0.13 -0.85,0.61 -1.23,0.85 -0.38,0.24 -0.68,0.39 -0.53,0.53 0.15,0.14 0.5,0.1 0.79,0.13 z"
           style="fill:#421a1a;stroke-width:0.794285"
           id="path68" />
        <path
           d="m 30.74,19.22 c -1.06,-0.99 -1.9,-1.36 -3.17,-1.22 0.88,-0.22 1.72,-0.38 2.39,0.1 0.39,0.27 0.63,0.66 0.77,1.12 z"
           style="fill:#421a1a;stroke-width:0.794285"
           id="path69" />
        <path
           d="m 29.28,20.36 c -0.3,0.22 -0.46,0.28 -0.93,0.3 -0.47,0.02 -0.73,-0.11 -0.66,0.08 0.07,0.19 0.47,0.24 0.95,0.14 0.48,-0.1 0.64,-0.52 0.64,-0.52 z"
           style="fill:#813a3c;stroke-width:0.794285"
           id="path70" />
        <path
           d="M 18.37,33.76 C 18.31,33.38 18.16,33.01 17.95,32.81 17.76,32.62 17.5,32.52 17.24,32.41 16.28,32.02 15.33,31.58 14.32,31.33 13.6,31.15 12.41,31.11 11.95,30.45 11.51,29.81 11.91,28.94 12.39,28.32 12.87,27.7 13.45,27.04 13.35,26.27 13.27,25.64 12.74,25.16 12.19,24.85 11.64,24.54 11.02,24.33 10.54,23.92 9.95,23.42 9.6,22.67 9.5,21.9 9.4,21.13 9.52,20.35 9.73,19.6 c 0.13,-0.46 0.31,-0.91 0.54,-1.33 0.31,-0.55 0.74,-1.03 1.11,-1.55 0.59,-0.82 1.07,-1.79 1.02,-2.8 -0.05,-1.01 -0.78,-2.04 -1.78,-2.15 -0.73,-0.08 -1.42,0.31 -2.06,0.69 -0.7,0.42 -1.43,0.72 -1.68,1.55 -0.29,0.94 -0.19,1.99 -0.2,2.96 -0.02,1.59 -0.26,3.17 -0.35,4.75 -0.24,4.04 0.48,8.06 1.18,12.04 0.1,0.54 0.22,1.14 0.63,1.51 0.42,0.37 1.02,0.43 1.56,0.45 1.73,0.09 3.54,0 5.25,0.2 1.25,0.14 2.41,0.18 3.28,-1.04 0.19,-0.27 0.23,-0.71 0.16,-1.14 z"
           style="fill:#49382a;stroke-width:0.794285"
           id="path71" />
        <path
           d="m 8.3,35.27 h 5.98 c 0.69,0 1.38,0 2.07,0 0.55,0 1.21,0.23 1.74,0.16 1.42,-0.19 1.75,-2.4 0.61,-3.15 -0.29,-0.19 -0.64,-0.27 -0.98,-0.35 -0.61,-0.14 -1.32,-0.16 -1.9,-0.34 -1.22,-0.37 -1.43,-2.36 -1.86,-3.31 -0.47,-1.02 -1.21,-1.92 -2.37,-2.12 -0.71,-0.12 -1.46,0.03 -2.06,0.43 -0.66,0.44 -1.1,1.12 -1.52,1.79 -0.54,0.84 -0.91,1.37 -0.89,2.38 0.02,1.01 0.41,2 0.58,3.01 0.1,0.54 0.22,1.12 0.61,1.48 z"
           style="fill:#3a2b1f;stroke-width:0.794285"
           id="path72" />
        <path
           d="m 16.46,34.39 c -0.03,0.07 -0.06,0.13 -0.1,0.19 -0.25,0.38 -0.67,0.61 -1.1,0.78 -1.14,0.48 -2.47,0.75 -3.61,0.26 -0.59,-0.25 -1.23,-0.46 -1.81,-0.73 -0.25,-0.12 -0.46,-0.37 -0.45,-0.65 0.01,-0.21 0.15,-0.4 0.28,-0.56 0.65,-0.82 0.73,-1.34 0.82,-2.38 0.05,-0.53 0.31,-1.13 0.83,-1.2 0.33,-0.05 0.66,0.16 0.86,0.43 0.2,0.27 0.29,0.6 0.38,0.93 L 12.71,32 c 0.02,0.09 0.05,0.18 0.12,0.23 0.08,0.06 0.2,0.06 0.3,0.05 0.42,-0.05 0.83,-0.15 1.25,-0.16 0.65,-0.02 1.32,0.2 1.75,0.68 0.38,0.43 0.53,1.08 0.31,1.6 z"
           style="fill:#49382a;stroke-width:0.794285"
           id="path73" />
        <path
           d="m 30.39,27.42 c -0.12,0.15 -0.12,0.55 -0.22,0.75 -0.13,0.26 -0.3,0.5 -0.51,0.7 -0.29,0.27 -0.83,0.56 -1.22,0.28 -0.48,-0.34 0.11,-0.41 0.46,-0.58 0.58,-0.26 1.1,-0.65 1.5,-1.15 z"
           style="opacity:0.39;fill:#edc9c0;stroke-width:0.794285"
           id="path74" />
        <path
           d="m 29.45,29.87 c -0.78,0.23 -1.12,1.16 -1.68,1.96 -0.56,0.8 0.84,0.05 1.44,-0.7 0.6,-0.75 0.7,-1.4 0.23,-1.26 z"
           style="opacity:0.39;fill:#e2b7aa;stroke-width:0.794285"
           id="path75" />
        <path
           d="m 23.74,28.42 c 0.16,0.02 0.34,0.06 0.44,0.19 -0.34,0.31 -0.86,0.33 -1.3,0.19 -0.14,-0.05 -1.09,-0.41 -0.71,-0.7 0.15,-0.11 1.33,0.28 1.57,0.32 z"
           style="opacity:0.39;fill:#edc9c0;stroke-width:0.794285"
           id="path76" />
        <path
           d="m 26,32.57 c -0.77,0.95 -2.99,-0.2 -3.75,-0.62 -0.2,-0.11 -0.39,-0.23 -0.53,-0.41 -0.14,-0.18 -0.2,-0.43 -0.11,-0.63 0.14,-0.32 0.6,-0.38 0.91,-0.23 0.31,0.15 0.54,0.43 0.8,0.67 0.77,0.74 1.66,0.83 2.65,1.08 0.02,0 0.04,0 0.05,0.02 0.03,0.03 0,0.08 -0.02,0.11 z"
           style="opacity:0.39;fill:#e2b7aa;stroke-width:0.794285"
           id="path77" />
      </g>
      <rect
         x="8.22"
         y="13.37"
         width="31.55"
         height="20.34"
         style="fill:none;stroke-width:0.794285"
         id="rect77" />
      <rect
         x="5.57"
         y="10.72"
         width="36.85"
         height="25.63"
         style="fill:none;stroke:#723f00;stroke-width:1.112px;stroke-miterlimit:10"
         id="rect78" />
      <g
         id="g81"
         style="stroke-width:0.794285">
        <polygon
           points="5.57,10.72 8.22,13.37 8.22,33.71 5.57,36.35 "
           style="fill:url(#linearGradient93);stroke-width:0.794285"
           id="polygon78" />
        <polygon
           points="42.43,10.72 42.43,36.35 42.42,36.35 39.77,33.71 39.77,13.38 "
           style="fill:url(#linear-gradient-2);stroke-width:0.794285"
           id="polygon79" />
        <polygon
           points="39.77,13.38 39.77,13.37 8.22,13.37 5.57,10.72 42.43,10.72 "
           style="fill:url(#linear-gradient-3);stroke-width:0.794285"
           id="polygon80" />
        <polygon
           points="39.77,33.71 42.42,36.35 5.57,36.35 8.22,33.71 "
           style="fill:url(#linear-gradient-4);stroke-width:0.794285"
           id="polygon81" />
      </g>
      <path
         d="M 5.57,10.72 V 36.35 H 42.43 V 10.72 Z M 39.77,33.7 H 8.22 V 13.37 h 31.55 v 20.34 z"
         style="fill:#8f5902;stroke-width:0.794285"
         id="path81" />
      <g
         id="g89"
         style="stroke-width:0.794285">
        <g
           id="g85"
           style="stroke-width:0.794285">
          <polygon
             points="6.91,35.03 5.57,36.35 5.57,10.72 6.91,12.06 "
             style="fill:url(#linearGradient94);stroke-width:0.794285"
             id="polygon82" />
          <polygon
             points="42.42,36.35 41.09,35.03 41.09,12.06 42.43,10.72 42.43,36.35 "
             style="fill:url(#linearGradient95);stroke-width:0.794285"
             id="polygon83" />
          <polygon
             points="42.43,10.72 41.09,12.06 41.09,12.05 6.91,12.05 6.91,12.06 5.57,10.72 "
             style="fill:url(#linear-gradient-7);stroke-width:0.794285"
             id="polygon84" />
          <polygon
             points="5.57,36.35 6.91,35.03 41.09,35.03 42.42,36.35 "
             style="fill:url(#linear-gradient-8);stroke-width:0.794285"
             id="polygon85" />
        </g>
        <polygon
           points="41.09,35.03 6.91,35.03 6.91,35.02 8.22,33.71 39.77,33.71 "
           style="fill:url(#linear-gradient-9);stroke-width:0.794285"
           id="polygon86" />
        <polygon
           points="39.77,13.38 41.09,12.06 41.09,35.03 39.77,33.71 "
           style="fill:url(#linear-gradient-10);stroke-width:0.794285"
           id="polygon87" />
        <polygon
           points="41.09,12.06 39.77,13.38 39.77,13.37 8.22,13.37 6.91,12.06 6.91,12.05 41.09,12.05 "
           style="fill:url(#linear-gradient-11);stroke-width:0.794285"
           id="polygon88" />
        <polygon
           points="6.91,12.06 8.22,13.37 8.22,33.71 6.91,35.02 "
           style="fill:url(#linear-gradient-12);stroke-width:0.794285"
           id="polygon89" />
      </g>
      <rect
         x="8.22"
         y="13.37"
         width="31.55"
         height="20.34"
         style="fill:none;stroke:#723f00;stroke-width:0.238285px;stroke-miterlimit:10"
         id="rect89" />
    </g>
    <path
       d="m 21.11,18.94 c 0.34,-0.21 0.75,-0.48 1.66,-0.55 0.91,-0.07 1.07,0.44 1.15,0.66 0.08,0.22 -0.18,0.31 -0.18,0.31 0,0 -0.02,-0.59 -0.61,-0.7 -0.59,-0.11 -1.7,0.15 -2.02,0.27 z"
       style="fill:#421a1a;stroke-width:0.794285"
       id="path90" />
  </g>
</svg>
