<?xml version="1.0" encoding="UTF-8" standalone="no"?>
<!-- Created with Inkscape (http://www.inkscape.org/) -->

<svg
   width="48px"
   height="48px"
   id="svg7998"
   sodipodi:version="0.32"
   inkscape:version="1.3.2 (091e20e, 2023-11-25, custom)"
   sodipodi:docname="layerproperties.svg"
   version="1.1"
   xmlns:inkscape="http://www.inkscape.org/namespaces/inkscape"
   xmlns:sodipodi="http://sodipodi.sourceforge.net/DTD/sodipodi-0.dtd"
   xmlns:xlink="http://www.w3.org/1999/xlink"
   xmlns="http://www.w3.org/2000/svg"
   xmlns:svg="http://www.w3.org/2000/svg"
   xmlns:rdf="http://www.w3.org/1999/02/22-rdf-syntax-ns#"
   xmlns:cc="http://creativecommons.org/ns#"
   xmlns:dc="http://purl.org/dc/elements/1.1/"
   xmlns:a="http://ns.adobe.com/AdobeSVGViewerExtensions/3.0/"
   xmlns:i="http://ns.adobe.com/AdobeIllustrator/10.0/">
  <defs
     id="defs8000">
    <linearGradient
       id="linearGradient15921"
       gradientUnits="userSpaceOnUse"
       x1="237.0879"
       y1="373.3101"
       x2="280.7959"
       y2="373.3101">
      <stop
         offset="0.0056"
         style="stop-color:#FFFFFF"
         id="stop15923" />
      <stop
         offset="0.4213"
         style="stop-color:#C3CBD4"
         id="stop15925" />
      <stop
         offset="1"
         style="stop-color:#b4bac2;stop-opacity:1"
         id="stop15927" />
      <a:midPointStop
         offset="0.0056"
         style="stop-color:#FFFFFF" />
      <a:midPointStop
         offset="0.5"
         style="stop-color:#FFFFFF" />
      <a:midPointStop
         offset="0.4213"
         style="stop-color:#C3CBD4" />
      <a:midPointStop
         offset="0.5"
         style="stop-color:#C3CBD4" />
      <a:midPointStop
         offset="1"
         style="stop-color:#A1A8B2" />
    </linearGradient>
    <linearGradient
       id="linearGradient15913"
       gradientUnits="userSpaceOnUse"
       x1="237.0879"
       y1="373.3101"
       x2="280.7959"
       y2="373.3101">
      <stop
         offset="0.0056"
         style="stop-color:#FFFFFF"
         id="stop15915" />
      <stop
         offset="0.4213"
         style="stop-color:#C3CBD4"
         id="stop15917" />
      <stop
         offset="1"
         style="stop-color:#c8ccd2;stop-opacity:1"
         id="stop15919" />
      <a:midPointStop
         offset="0.0056"
         style="stop-color:#FFFFFF" />
      <a:midPointStop
         offset="0.5"
         style="stop-color:#FFFFFF" />
      <a:midPointStop
         offset="0.4213"
         style="stop-color:#C3CBD4" />
      <a:midPointStop
         offset="0.5"
         style="stop-color:#C3CBD4" />
      <a:midPointStop
         offset="1"
         style="stop-color:#A1A8B2" />
    </linearGradient>
    <linearGradient
       id="linearGradient15905"
       gradientUnits="userSpaceOnUse"
       x1="237.0879"
       y1="373.3101"
       x2="280.7959"
       y2="373.3101">
      <stop
         offset="0.0056"
         style="stop-color:#FFFFFF"
         id="stop15907" />
      <stop
         offset="0.42129999"
         style="stop-color:#d5dae0;stop-opacity:1;"
         id="stop15909" />
      <stop
         offset="1"
         style="stop-color:#d0d5da;stop-opacity:1;"
         id="stop15911" />
      <a:midPointStop
         offset="0.0056"
         style="stop-color:#FFFFFF" />
      <a:midPointStop
         offset="0.5"
         style="stop-color:#FFFFFF" />
      <a:midPointStop
         offset="0.4213"
         style="stop-color:#C3CBD4" />
      <a:midPointStop
         offset="0.5"
         style="stop-color:#C3CBD4" />
      <a:midPointStop
         offset="1"
         style="stop-color:#A1A8B2" />
    </linearGradient>
    <linearGradient
       y2="383.6909"
       x2="280.7959"
       y1="383.6909"
       x1="237.0879"
       gradientUnits="userSpaceOnUse"
       id="XMLID_101_">
      <stop
         id="stop4697"
         style="stop-color:#FFFFFF"
         offset="0.0056" />
      <stop
         id="stop4699"
         style="stop-color:#C3CBD4"
         offset="0.4213" />
      <stop
         id="stop4701"
         style="stop-color:#A1A8B2"
         offset="1" />
      <a:midPointStop
         style="stop-color:#FFFFFF"
         offset="0.0056" />
      <a:midPointStop
         style="stop-color:#FFFFFF"
         offset="0.5" />
      <a:midPointStop
         style="stop-color:#C3CBD4"
         offset="0.4213" />
      <a:midPointStop
         style="stop-color:#C3CBD4"
         offset="0.5" />
      <a:midPointStop
         style="stop-color:#A1A8B2"
         offset="1" />
    </linearGradient>
    <linearGradient
       y2="372.91461"
       x2="275.67581"
       y1="390.66461"
       x1="245.9258"
       gradientUnits="userSpaceOnUse"
       id="XMLID_102_">
      <stop
         id="stop4708"
         style="stop-color:#FFFFFF"
         offset="0" />
      <stop
         id="stop4710"
         style="stop-color:#DBE2E6"
         offset="0.5281" />
      <stop
         id="stop4712"
         style="stop-color:#B3BDCA"
         offset="1" />
      <a:midPointStop
         style="stop-color:#FFFFFF"
         offset="0" />
      <a:midPointStop
         style="stop-color:#FFFFFF"
         offset="0.5" />
      <a:midPointStop
         style="stop-color:#DBE2E6"
         offset="0.5281" />
      <a:midPointStop
         style="stop-color:#DBE2E6"
         offset="0.5" />
      <a:midPointStop
         style="stop-color:#B3BDCA"
         offset="1" />
    </linearGradient>
    <linearGradient
       y2="373.3101"
       x2="280.7959"
       y1="373.3101"
       x1="237.0879"
       gradientUnits="userSpaceOnUse"
       id="XMLID_103_">
      <stop
         id="stop4719"
         style="stop-color:#FFFFFF"
         offset="0.0056" />
      <stop
         id="stop4721"
         style="stop-color:#C3CBD4"
         offset="0.4213" />
      <stop
         id="stop4723"
         style="stop-color:#A1A8B2"
         offset="1" />
      <a:midPointStop
         style="stop-color:#FFFFFF"
         offset="0.0056" />
      <a:midPointStop
         style="stop-color:#FFFFFF"
         offset="0.5" />
      <a:midPointStop
         style="stop-color:#C3CBD4"
         offset="0.4213" />
      <a:midPointStop
         style="stop-color:#C3CBD4"
         offset="0.5" />
      <a:midPointStop
         style="stop-color:#A1A8B2"
         offset="1" />
    </linearGradient>
    <linearGradient
       y2="362.53271"
       x2="275.6748"
       y1="380.28271"
       x1="245.9248"
       gradientUnits="userSpaceOnUse"
       id="XMLID_104_">
      <stop
         id="stop4730"
         style="stop-color:#FFFFFF"
         offset="0" />
      <stop
         id="stop4732"
         style="stop-color:#DBE2E6"
         offset="0.5281" />
      <stop
         id="stop4734"
         style="stop-color:#B3BDCA"
         offset="1" />
      <a:midPointStop
         style="stop-color:#FFFFFF"
         offset="0" />
      <a:midPointStop
         style="stop-color:#FFFFFF"
         offset="0.5" />
      <a:midPointStop
         style="stop-color:#DBE2E6"
         offset="0.5281" />
      <a:midPointStop
         style="stop-color:#DBE2E6"
         offset="0.5" />
      <a:midPointStop
         style="stop-color:#B3BDCA"
         offset="1" />
    </linearGradient>
    <linearGradient
       inkscape:collect="always"
       xlink:href="#XMLID_103_"
       id="linearGradient15762"
       gradientUnits="userSpaceOnUse"
       x1="237.0879"
       y1="373.3101"
       x2="280.7959"
       y2="373.3101" />
    <linearGradient
       inkscape:collect="always"
       xlink:href="#XMLID_104_"
       id="linearGradient15764"
       gradientUnits="userSpaceOnUse"
       x1="245.9248"
       y1="380.28271"
       x2="275.6748"
       y2="362.53271" />
    <linearGradient
       inkscape:collect="always"
       xlink:href="#XMLID_103_"
       id="linearGradient15784"
       gradientUnits="userSpaceOnUse"
       x1="237.0879"
       y1="373.3101"
       x2="280.7959"
       y2="373.3101" />
    <linearGradient
       inkscape:collect="always"
       xlink:href="#XMLID_104_"
       id="linearGradient15786"
       gradientUnits="userSpaceOnUse"
       x1="245.9248"
       y1="380.28271"
       x2="275.6748"
       y2="362.53271" />
    <linearGradient
       inkscape:collect="always"
       xlink:href="#linearGradient15905"
       id="linearGradient15806"
       gradientUnits="userSpaceOnUse"
       x1="237.0879"
       y1="373.3101"
       x2="280.7959"
       y2="373.3101" />
    <linearGradient
       inkscape:collect="always"
       xlink:href="#XMLID_104_"
       id="linearGradient15808"
       gradientUnits="userSpaceOnUse"
       x1="245.9248"
       y1="380.28271"
       x2="275.6748"
       y2="362.53271" />
    <linearGradient
       inkscape:collect="always"
       xlink:href="#linearGradient15913"
       id="linearGradient15901"
       gradientUnits="userSpaceOnUse"
       x1="237.0879"
       y1="373.3101"
       x2="280.7959"
       y2="373.3101" />
    <linearGradient
       inkscape:collect="always"
       xlink:href="#XMLID_104_"
       id="linearGradient15903"
       gradientUnits="userSpaceOnUse"
       x1="245.9248"
       y1="380.28271"
       x2="275.6748"
       y2="362.53271" />
    <linearGradient
       inkscape:collect="always"
       xlink:href="#linearGradient31615"
       id="linearGradient31621"
       x1="7.59835"
       y1="7.68086"
       x2="12.4036"
       y2="12.336"
       gradientUnits="userSpaceOnUse"
       gradientTransform="matrix(1.12453,-0.292352,0.292383,1.12441,47.1264,26.974)" />
    <linearGradient
       id="linearGradient31615">
      <stop
         style="stop-color:#eeeeec;stop-opacity:1;"
         offset="0"
         id="stop31617" />
      <stop
         style="stop-color:#d2d2cc;stop-opacity:1;"
         offset="1"
         id="stop31619" />
    </linearGradient>
  </defs>
  <sodipodi:namedview
     id="base"
     pagecolor="#ffffff"
     bordercolor="#666666"
     borderopacity="1.0"
     inkscape:pageopacity="0.0"
     inkscape:pageshadow="2"
     inkscape:zoom="7"
     inkscape:cx="24"
     inkscape:cy="24"
     inkscape:current-layer="layer1"
     showgrid="true"
     inkscape:grid-bbox="true"
     inkscape:document-units="px"
     inkscape:window-width="853"
     inkscape:window-height="573"
     inkscape:window-x="298"
     inkscape:window-y="3"
     inkscape:showpageshadow="2"
     inkscape:pagecheckerboard="0"
     inkscape:deskcolor="#d1d1d1" />
  <metadata
     id="metadata8003">
    <rdf:RDF>
      <cc:Work
         rdf:about="">
        <dc:format>image/svg+xml</dc:format>
        <dc:type
           rdf:resource="http://purl.org/dc/dcmitype/StillImage" />
      </cc:Work>
    </rdf:RDF>
  </metadata>
  <g
     id="layer1"
     inkscape:label="Layer 1"
     inkscape:groupmode="layer">
    <g
       id="g15766"
       transform="translate(0.214516,0.902046)">
      <polygon
         i:knockout="Off"
         points="280.796,372.493 258.941,385.11 237.088,372.493 258.941,361.51 "
         id="polygon15768"
         style="fill:url(#linearGradient15901)"
         transform="matrix(1.0621,0,0,1.06242,-250.951,-372.577)" />
      <g
         i:knockout="Off"
         id="g15770"
         transform="matrix(1.0621,0,0,1.06242,-250.951,-372.577)">
        <linearGradient
           id="linearGradient15772"
           gradientUnits="userSpaceOnUse"
           x1="245.925"
           y1="380.283"
           x2="275.675"
           y2="362.533">
          <stop
             offset="0"
             style="stop-color:#FFFFFF"
             id="stop15774" />
          <stop
             offset="0.5281"
             style="stop-color:#DBE2E6"
             id="stop15776" />
          <stop
             offset="1"
             style="stop-color:#B3BDCA"
             id="stop15778" />
          <a:midPointStop
             offset="0"
             style="stop-color:#FFFFFF" />
          <a:midPointStop
             offset="0.5"
             style="stop-color:#FFFFFF" />
          <a:midPointStop
             offset="0.5281"
             style="stop-color:#DBE2E6" />
          <a:midPointStop
             offset="0.5"
             style="stop-color:#DBE2E6" />
          <a:midPointStop
             offset="1"
             style="stop-color:#B3BDCA" />
        </linearGradient>
        <path
           i:knockout="Off"
           d="m 237.93,372.517 21.012,12.131 21.012,-12.131 -21.012,-10.56 z m 21.011,-9.664 c 0.341,0.172 18.1,9.096 19.328,9.713 -1.147,0.662 -18.947,10.938 -19.328,11.158 -0.385,-0.223 -18.212,-10.515 -19.326,-11.158 1.228,-0.617 18.986,-9.541 19.326,-9.713 z"
           id="path15780"
           style="fill:url(#linearGradient15903)" />
      </g>
      <polygon
         i:knockout="Off"
         points="280.796,372.493 258.941,385.11 237.088,372.493 258.941,361.51 "
         id="polygon15782"
         style="fill:none;stroke:#31343a;stroke-width:0.753111;stroke-opacity:1"
         transform="matrix(1.0621,0,0,1.06242,-250.951,-372.577)" />
    </g>
    <g
       id="g15788"
       transform="translate(0.21452,-10.89165)">
      <polygon
         i:knockout="Off"
         points="258.941,361.51 280.796,372.493 258.941,385.11 237.088,372.493 258.941,361.51 "
         id="polygon15790"
         style="fill:url(#linearGradient15806)"
         transform="matrix(1.0621,0,0,1.06242,-250.9511,-372.5775)" />
      <g
         i:knockout="Off"
         id="g15792"
         transform="matrix(1.0621,0,0,1.06242,-250.9511,-372.5775)">
        <linearGradient
           id="linearGradient15794"
           gradientUnits="userSpaceOnUse"
           x1="245.9248"
           y1="380.28271"
           x2="275.6748"
           y2="362.53271">
          <stop
             offset="0"
             style="stop-color:#FFFFFF"
             id="stop15796" />
          <stop
             offset="0.5281"
             style="stop-color:#DBE2E6"
             id="stop15798" />
          <stop
             offset="1"
             style="stop-color:#B3BDCA"
             id="stop15800" />
          <a:midPointStop
             offset="0"
             style="stop-color:#FFFFFF" />
          <a:midPointStop
             offset="0.5"
             style="stop-color:#FFFFFF" />
          <a:midPointStop
             offset="0.5281"
             style="stop-color:#DBE2E6" />
          <a:midPointStop
             offset="0.5"
             style="stop-color:#DBE2E6" />
          <a:midPointStop
             offset="1"
             style="stop-color:#B3BDCA" />
        </linearGradient>
        <path
           i:knockout="Off"
           d="M 237.93,372.517 L 258.942,384.648 L 279.954,372.517 L 258.942,361.957 L 237.93,372.517 z M 258.941,362.853 C 259.282,363.025 277.041,371.949 278.269,372.566 C 277.122,373.228 259.322,383.504 258.941,383.724 C 258.556,383.501 240.729,373.209 239.615,372.566 C 240.843,371.949 258.601,363.025 258.941,362.853 z "
           id="path15802"
           style="fill:url(#linearGradient15808)" />
      </g>
      <polygon
         i:knockout="Off"
         points="258.941,361.51 280.796,372.493 258.941,385.11 237.088,372.493 258.941,361.51 "
         id="polygon15804"
         style="fill:none;stroke:#31343a;stroke-width:0.75311118;stroke-opacity:1"
         transform="matrix(1.0621,0,0,1.06242,-250.9511,-372.5775)" />
    </g>
    <circle
       style="color:#000000;display:inline;overflow:visible;visibility:visible;fill:#000000;fill-opacity:1;fill-rule:nonzero;stroke:#ffffff;stroke-width:0.999999;stroke-linecap:butt;stroke-linejoin:miter;stroke-miterlimit:4;stroke-dasharray:none;stroke-dashoffset:0;stroke-opacity:1;marker:none;enable-background:accumulate"
       id="path12848"
       cx="34.422"
       cy="34.2791"
       r="13.2077" />
    <g
       id="g12842"
       transform="matrix(1.25721,0,0,1.25721,-38.919,-8.2238)">
      <path
         id="path31611"
         style="color:#000000;display:inline;overflow:visible;visibility:visible;fill:none;stroke:#000000;stroke-width:0.795411;stroke-miterlimit:4;stroke-dasharray:none;stroke-opacity:1;marker:none;enable-background:accumulate"
         d="m 60.6441,33.5858 c 0.3024,1.1628 -0.3953,2.3506 -1.5583,2.653 -1.1629,0.3023 -2.3508,-0.3953 -2.6532,-1.5581 -0.3024,-1.1629 0.3953,-2.3506 1.5582,-2.653 1.163,-0.3023 2.3509,0.3952 2.6533,1.5581 z m -4.0049,-6.7562 c -0.6745,0.1753 -1.0763,0.8594 -0.9009,1.5338 l 0.5143,1.978 c -0.044,0.2347 -0.07,0.4474 -0.1856,0.5356 -0.092,0.07 -0.2539,0.073 -0.4284,0.071 l -1.9174,-1.1259 c -0.607,-0.3565 -1.3935,-0.152 -1.75,0.4549 -0.3565,0.607 -0.152,1.3934 0.455,1.7499 l 1.8695,1.0978 c 0.104,0.1674 0.1737,0.3209 0.1567,0.4466 -0.017,0.1262 -0.1176,0.2588 -0.2632,0.3933 l -2.0544,0.5341 c -0.6744,0.1753 -1.0762,0.8594 -0.9009,1.5338 0.1754,0.6743 0.8595,1.0761 1.534,0.9007 l 1.9782,-0.5143 c 0.2347,0.044 0.4474,0.07 0.5357,0.1857 0.07,0.092 0.073,0.2538 0.071,0.4283 l -1.1261,1.9172 c -0.3565,0.607 -0.152,1.3934 0.455,1.7498 0.607,0.3565 1.3935,0.152 1.75,-0.4549 l 1.0979,-1.8693 c 0.1674,-0.1041 0.3209,-0.1737 0.4467,-0.1567 0.1262,0.017 0.2589,0.1176 0.3933,0.2632 l 0.5342,2.0542 c 0.1753,0.6743 0.8595,1.0761 1.5339,0.9007 0.6745,-0.1753 1.0762,-0.8594 0.9009,-1.5337 L 60.824,37.9251 c 0.044,-0.2346 0.07,-0.4473 0.1857,-0.5356 0.092,-0.07 0.2539,-0.072 0.4283,-0.071 l 1.9175,1.126 c 0.607,0.3564 1.3935,0.1519 1.75,-0.455 0.3565,-0.607 0.152,-1.3934 -0.455,-1.7498 L 62.781,35.1422 c -0.104,-0.1674 -0.1737,-0.3209 -0.1567,-0.4466 0.017,-0.1262 0.1176,-0.2589 0.2632,-0.3933 l 2.0544,-0.5341 c 0.6744,-0.1754 1.0762,-0.8594 0.9009,-1.5338 -0.1754,-0.6744 -0.8595,-1.0761 -1.534,-0.9008 l -1.9783,0.5143 c -0.2346,-0.044 -0.4473,-0.07 -0.5356,-0.1856 -0.07,-0.092 -0.072,-0.2539 -0.071,-0.4283 L 62.85,29.3167 c 0.3565,-0.6069 0.152,-1.3933 -0.455,-1.7498 -0.607,-0.3564 -1.3935,-0.152 -1.75,0.455 l -1.098,1.8693 c -0.1674,0.104 -0.3209,0.1736 -0.4466,0.1567 -0.1262,-0.017 -0.2589,-0.1177 -0.3934,-0.2632 L 58.1729,27.7305 C 57.9975,27.0561 57.3134,26.6543 56.639,26.8297 Z"
         inkscape:connector-curvature="0" />
      <path
         inkscape:connector-curvature="0"
         d="m 60.4786,33.088 c 0.3024,1.1629 -0.3953,2.3507 -1.5582,2.653 -1.163,0.3023 -2.3509,-0.3952 -2.6533,-1.5581 -0.3024,-1.1628 0.3953,-2.3506 1.5582,-2.6529 1.163,-0.3024 2.3509,0.3952 2.6533,1.558 z m -4.0049,-6.7562 c -0.6745,0.1754 -1.0763,0.8594 -0.9009,1.5338 l 0.5144,1.9781 c -0.044,0.2346 -0.07,0.4473 -0.1857,0.5356 -0.092,0.07 -0.2539,0.072 -0.4284,0.071 l -1.9174,-1.126 c -0.607,-0.3565 -1.3935,-0.152 -1.75,0.4549 -0.3565,0.607 -0.152,1.3934 0.455,1.7499 l 1.8695,1.0978 c 0.104,0.1674 0.1737,0.3208 0.1567,0.4466 -0.017,0.1262 -0.1176,0.2588 -0.2632,0.3933 l -2.0544,0.5341 c -0.6744,0.1753 -1.0762,0.8594 -0.9009,1.5338 0.1754,0.6743 0.8595,1.0761 1.534,0.9007 l 1.9782,-0.5143 c 0.2347,0.044 0.4474,0.07 0.5357,0.1857 0.07,0.092 0.072,0.2538 0.071,0.4283 l -1.1261,1.9172 c -0.3565,0.607 -0.152,1.3934 0.455,1.7498 0.607,0.3565 1.3935,0.152 1.75,-0.4549 l 1.0979,-1.8693 c 0.1675,-0.1041 0.3209,-0.1737 0.4467,-0.1567 0.1262,0.017 0.2589,0.1176 0.3934,0.2632 l 0.5341,2.0542 c 0.1754,0.6743 0.8595,1.0761 1.5339,0.9007 0.6745,-0.1753 1.0763,-0.8594 0.9009,-1.5337 l -0.5144,-1.9781 c 0.044,-0.2346 0.07,-0.4473 0.1857,-0.5356 0.092,-0.07 0.2539,-0.072 0.4284,-0.071 l 1.9174,1.126 c 0.607,0.3564 1.3935,0.1519 1.75,-0.455 0.3565,-0.607 0.152,-1.3934 -0.455,-1.7498 l -1.8695,-1.0978 c -0.104,-0.1674 -0.1737,-0.3209 -0.1567,-0.4466 0.017,-0.1262 0.1176,-0.2589 0.2632,-0.3934 l 2.0544,-0.534 c 0.6744,-0.1754 1.0762,-0.8594 0.9009,-1.5338 -0.1754,-0.6744 -0.8595,-1.0761 -1.534,-0.9008 L 62.165,31.35 c -0.2346,-0.044 -0.4473,-0.07 -0.5356,-0.1856 -0.07,-0.092 -0.072,-0.2539 -0.071,-0.4283 l 1.1261,-1.9173 c 0.3565,-0.6069 0.152,-1.3933 -0.455,-1.7498 -0.607,-0.3564 -1.3935,-0.152 -1.75,0.455 l -1.0979,1.8693 C 59.2141,29.4974 59.0607,29.5669 58.9349,29.55 58.8087,29.533 58.676,29.4323 58.5415,29.2868 L 58.0074,27.2326 C 57.832,26.5582 57.1479,26.1565 56.4735,26.3318 Z"
         style="color:#000000;display:inline;overflow:visible;visibility:visible;fill:url(#linearGradient31621);fill-opacity:1;fill-rule:evenodd;stroke:#888a85;stroke-width:0.397706;stroke-miterlimit:4;stroke-dasharray:none;marker:none;enable-background:accumulate"
         id="path3643" />
    </g>
  </g>
</svg>
