<?xml version="1.0" encoding="UTF-8" standalone="no"?>
<!-- Created with Inkscape (http://www.inkscape.org/) -->

<svg
   width="48px"
   height="48px"
   id="svg36210"
   sodipodi:version="0.32"
   inkscape:version="1.3.2 (091e20e, 2023-11-25, custom)"
   sodipodi:docname="monotorgb.svg"
   inkscape:output_extension="org.inkscape.output.svg.inkscape"
   version="1.1"
   xmlns:inkscape="http://www.inkscape.org/namespaces/inkscape"
   xmlns:sodipodi="http://sodipodi.sourceforge.net/DTD/sodipodi-0.dtd"
   xmlns:xlink="http://www.w3.org/1999/xlink"
   xmlns="http://www.w3.org/2000/svg"
   xmlns:svg="http://www.w3.org/2000/svg"
   xmlns:rdf="http://www.w3.org/1999/02/22-rdf-syntax-ns#"
   xmlns:cc="http://creativecommons.org/ns#"
   xmlns:dc="http://purl.org/dc/elements/1.1/"
   xmlns:i="http://ns.adobe.com/AdobeIllustrator/10.0/">
  <defs
     id="defs36212">
    <linearGradient
       inkscape:collect="always"
       id="linearGradient36741">
      <stop
         style="stop-color:#ffffff;stop-opacity:1"
         offset="0"
         id="stop36743" />
      <stop
         style="stop-color:#e1e5de;stop-opacity:1"
         offset="1"
         id="stop36745" />
    </linearGradient>
    <linearGradient
       inkscape:collect="always"
       id="linearGradient36729">
      <stop
         style="stop-color:#d3d7cf;stop-opacity:1;"
         offset="0"
         id="stop36731" />
      <stop
         style="stop-color:#d3d7cf;stop-opacity:0;"
         offset="1"
         id="stop36733" />
    </linearGradient>
    <linearGradient
       inkscape:collect="always"
       id="linearGradient36721">
      <stop
         style="stop-color:#eeeeec;stop-opacity:1;"
         offset="0"
         id="stop36723" />
      <stop
         style="stop-color:#eeeeec;stop-opacity:0;"
         offset="1"
         id="stop36725" />
    </linearGradient>
    <linearGradient
       inkscape:collect="always"
       id="linearGradient36711">
      <stop
         style="stop-color:#d3d7cf;stop-opacity:1;"
         offset="0"
         id="stop36713" />
      <stop
         style="stop-color:#d3d7cf;stop-opacity:0;"
         offset="1"
         id="stop36715" />
    </linearGradient>
    <linearGradient
       inkscape:collect="always"
       id="linearGradient36695">
      <stop
         style="stop-color:#babdb6;stop-opacity:1;"
         offset="0"
         id="stop36697" />
      <stop
         style="stop-color:#babdb6;stop-opacity:0;"
         offset="1"
         id="stop36699" />
    </linearGradient>
    <linearGradient
       inkscape:collect="always"
       id="linearGradient36687">
      <stop
         style="stop-color:#729fcf;stop-opacity:1;"
         offset="0"
         id="stop36689" />
      <stop
         style="stop-color:#729fcf;stop-opacity:0;"
         offset="1"
         id="stop36691" />
    </linearGradient>
    <linearGradient
       inkscape:collect="always"
       id="linearGradient36679">
      <stop
         style="stop-color:#b4e234;stop-opacity:1;"
         offset="0"
         id="stop36681" />
      <stop
         style="stop-color:#b4e234;stop-opacity:0;"
         offset="1"
         id="stop36683" />
    </linearGradient>
    <linearGradient
       inkscape:collect="always"
       id="linearGradient36671">
      <stop
         style="stop-color:#fce94f;stop-opacity:1;"
         offset="0"
         id="stop36673" />
      <stop
         style="stop-color:#fce94f;stop-opacity:0;"
         offset="1"
         id="stop36675" />
    </linearGradient>
    <linearGradient
       inkscape:collect="always"
       id="linearGradient36663">
      <stop
         style="stop-color:#fcaf3e;stop-opacity:1"
         offset="0"
         id="stop36665" />
      <stop
         style="stop-color:#fcaf3e;stop-opacity:0"
         offset="1"
         id="stop36667" />
    </linearGradient>
    <linearGradient
       inkscape:collect="always"
       id="linearGradient36655">
      <stop
         style="stop-color:#ff1919;stop-opacity:1"
         offset="0"
         id="stop36657" />
      <stop
         style="stop-color:#ef2929;stop-opacity:0"
         offset="1"
         id="stop36659" />
    </linearGradient>
    <clipPath
       id="XMLID_58_">
      <polygon
         points="14.974,49.385 47.032,49.385 47.032,12.826 32.971,12.826 14.974,49.385 "
         id="use35548" />
    </clipPath>
    <defs
       id="defs35560">
      <rect
         id="XMLID_25_"
         x="15.374"
         y="13.076"
         width="31.408001"
         height="36.058998" />
    </defs>
    <clipPath
       id="clipPath36376">
      <use
         xlink:href="#XMLID_25_"
         id="use36378"
         x="0"
         y="0"
         width="61.668999"
         height="62.205002" />
    </clipPath>
    <defs
       id="defs35536">
      <rect
         id="XMLID_21_"
         x="14.974"
         y="12.826"
         width="32.058998"
         height="36.558998" />
    </defs>
    <clipPath
       id="clipPath36357">
      <use
         xlink:href="#XMLID_21_"
         id="use36359"
         x="0"
         y="0"
         width="61.668999"
         height="62.205002" />
    </clipPath>
    <defs
       id="defs35520">
      <path
         id="XMLID_19_"
         d="M 31.145,41.104 C 31.145,41.734 31.06,42.344 30.905,42.925 L 34.101,42.925 C 34.209,42.334 34.268,41.726 34.268,41.104 C 34.268,35.506 29.715,30.954 24.119,30.954 C 24.095,30.954 24.07,30.956 24.046,30.958 L 22.4,34.299 C 22.951,34.159 23.524,34.077 24.118,34.077 C 27.992,34.077 31.145,37.229 31.145,41.104" />
    </defs>
    <clipPath
       id="clipPath36346">
      <use
         xlink:href="#XMLID_19_"
         id="use36348"
         x="0"
         y="0"
         width="61.668999"
         height="62.205002" />
    </clipPath>
    <defs
       id="defs35506">
      <path
         id="XMLID_17_"
         d="M 25.545,27.91 L 24.045,30.958 C 24.069,30.956 24.094,30.954 24.118,30.954 C 29.715,30.954 34.267,35.507 34.267,41.104 C 34.267,41.726 34.208,42.334 34.1,42.925 L 37.262,42.925 C 37.344,42.329 37.39,41.721 37.39,41.104 C 37.391,34.269 32.194,28.624 25.545,27.91" />
    </defs>
    <clipPath
       id="clipPath36335">
      <use
         xlink:href="#XMLID_17_"
         id="use36337"
         x="0"
         y="0"
         width="61.668999"
         height="62.205002" />
    </clipPath>
    <defs
       id="defs35492">
      <path
         id="XMLID_15_"
         d="M 26.99,24.975 L 25.545,27.911 C 32.194,28.625 37.391,34.269 37.391,41.105 C 37.391,41.722 37.345,42.331 37.263,42.926 L 40.413,42.926 C 40.478,42.327 40.515,41.72 40.515,41.105 C 40.515,33.03 34.673,26.335 26.99,24.975" />
    </defs>
    <clipPath
       id="clipPath36324">
      <use
         xlink:href="#XMLID_15_"
         id="use36326"
         x="0"
         y="0"
         width="61.668999"
         height="62.205002" />
    </clipPath>
    <defs
       id="defs35478">
      <path
         id="XMLID_13_"
         d="M 28.416,22.078 L 26.99,24.974 C 34.673,26.334 40.514,33.03 40.514,41.104 C 40.514,41.719 40.478,42.327 40.412,42.925 L 43.55,42.925 C 43.607,42.325 43.636,41.717 43.636,41.104 C 43.637,31.819 37.115,24.043 28.416,22.078" />
    </defs>
    <clipPath
       id="clipPath36313">
      <use
         xlink:href="#XMLID_13_"
         id="use36315"
         x="0"
         y="0"
         width="61.668999"
         height="62.205002" />
    </clipPath>
    <defs
       id="defs35464">
      <path
         id="XMLID_11_"
         d="M 43.637,41.104 C 43.637,41.717 43.608,42.326 43.551,42.925 L 46.687,42.925 C 46.735,42.323 46.76,41.716 46.76,41.104 C 46.76,30.593 39.561,21.734 29.836,19.195 L 28.416,22.078 C 37.115,24.043 43.637,31.819 43.637,41.104" />
    </defs>
    <clipPath
       id="clipPath36302">
      <use
         xlink:href="#XMLID_11_"
         id="use36304"
         x="0"
         y="0"
         width="61.668999"
         height="62.205002" />
    </clipPath>
    <defs
       id="defs35450">
      <path
         id="XMLID_9_"
         d="M 13.968,41.104 C 13.968,41.726 14.027,42.334 14.135,42.925 L 17.332,42.925 C 17.176,42.344 17.091,41.734 17.091,41.104 C 17.091,37.823 19.355,35.068 22.401,34.298 L 24.046,30.957 C 18.48,30.999 13.968,35.531 13.968,41.104" />
    </defs>
    <clipPath
       id="clipPath36291">
      <use
         xlink:href="#XMLID_9_"
         id="use36293"
         x="0"
         y="0"
         width="61.668999"
         height="62.205002" />
    </clipPath>
    <defs
       id="defs35436">
      <path
         id="XMLID_7_"
         d="M 24.045,30.958 L 25.545,27.91 C 25.076,27.86 24.601,27.831 24.118,27.831 C 16.8,27.831 10.845,33.786 10.845,41.104 C 10.845,41.721 10.891,42.33 10.974,42.925 L 14.135,42.925 C 14.027,42.334 13.968,41.726 13.968,41.104 C 13.968,35.531 18.48,30.999 24.045,30.958" />
    </defs>
    <clipPath
       id="clipPath36280">
      <use
         xlink:href="#XMLID_7_"
         id="use36282"
         x="0"
         y="0"
         width="61.668999"
         height="62.205002" />
    </clipPath>
    <defs
       id="defs35422">
      <path
         id="XMLID_5_"
         d="M 24.118,27.831 C 24.6,27.831 25.076,27.86 25.545,27.91 L 26.99,24.974 C 26.055,24.809 25.099,24.707 24.118,24.707 C 15.062,24.707 7.722,32.048 7.722,41.103 C 7.722,41.718 7.757,42.326 7.824,42.924 L 10.974,42.924 C 10.891,42.328 10.845,41.72 10.845,41.103 C 10.845,33.786 16.8,27.831 24.118,27.831" />
    </defs>
    <clipPath
       id="clipPath36269">
      <use
         xlink:href="#XMLID_5_"
         id="use36271"
         x="0"
         y="0"
         width="61.668999"
         height="62.205002" />
    </clipPath>
    <defs
       id="defs35408">
      <path
         id="XMLID_3_"
         d="M 24.118,24.708 C 25.099,24.708 26.056,24.81 26.99,24.975 L 28.416,22.079 C 27.031,21.766 25.596,21.586 24.118,21.586 C 13.355,21.586 4.599,30.342 4.599,41.106 C 4.599,41.719 4.628,42.328 4.684,42.927 L 7.823,42.927 C 7.757,42.328 7.721,41.721 7.721,41.106 C 7.722,32.049 15.063,24.708 24.118,24.708" />
    </defs>
    <clipPath
       id="clipPath36258">
      <use
         xlink:href="#XMLID_3_"
         id="use36260"
         x="0"
         y="0"
         width="61.668999"
         height="62.205002" />
    </clipPath>
    <defs
       id="defs35394">
      <path
         id="XMLID_1_"
         d="M 24.118,21.585 C 25.596,21.585 27.031,21.765 28.416,22.078 L 29.836,19.195 C 28.008,18.716 26.093,18.462 24.118,18.462 C 11.633,18.462 1.475,28.619 1.475,41.105 C 1.475,41.717 1.501,42.325 1.549,42.926 L 4.684,42.926 C 4.628,42.326 4.599,41.718 4.599,41.105 C 4.6,30.341 13.355,21.585 24.118,21.585" />
    </defs>
    <clipPath
       id="clipPath36247">
      <use
         xlink:href="#XMLID_1_"
         id="use36249"
         x="0"
         y="0"
         width="61.668999"
         height="62.205002" />
    </clipPath>
    <linearGradient
       inkscape:collect="always"
       xlink:href="#linearGradient36655"
       id="linearGradient36661"
       x1="2.3043003"
       y1="29.531561"
       x2="1.4024686"
       y2="37.411133"
       gradientUnits="userSpaceOnUse"
       gradientTransform="matrix(-1,0,0,1,48.2524,0)" />
    <linearGradient
       inkscape:collect="always"
       xlink:href="#linearGradient36663"
       id="linearGradient36669"
       x1="5.5714288"
       y1="30.571428"
       x2="4.5714288"
       y2="37.412174"
       gradientUnits="userSpaceOnUse"
       gradientTransform="matrix(-1,0,0,1,48.2524,0)" />
    <linearGradient
       inkscape:collect="always"
       xlink:href="#linearGradient36671"
       id="linearGradient36677"
       x1="9"
       y1="32.57143"
       x2="8.2857141"
       y2="37.40905"
       gradientUnits="userSpaceOnUse"
       gradientTransform="matrix(-1,0,0,1,48.2524,0)" />
    <linearGradient
       inkscape:collect="always"
       xlink:href="#linearGradient36679"
       id="linearGradient36685"
       x1="11.714286"
       y1="33.142857"
       x2="11.285714"
       y2="37.410091"
       gradientUnits="userSpaceOnUse"
       gradientTransform="matrix(-1,0,0,1,48.2524,0)" />
    <linearGradient
       inkscape:collect="always"
       xlink:href="#linearGradient36687"
       id="linearGradient36693"
       x1="15.285714"
       y1="33.714287"
       x2="14.285714"
       y2="37.410091"
       gradientUnits="userSpaceOnUse"
       gradientTransform="matrix(-1,0,0,1,48.2524,0)" />
    <linearGradient
       inkscape:collect="always"
       xlink:href="#linearGradient36695"
       id="linearGradient36701"
       x1="45.57143"
       y1="33.57143"
       x2="45.57143"
       y2="37.410091"
       gradientUnits="userSpaceOnUse"
       gradientTransform="matrix(-1,0,0,1,48.2524,0)" />
    <linearGradient
       inkscape:collect="always"
       xlink:href="#linearGradient36695"
       id="linearGradient36709"
       x1="32.285713"
       y1="34.857143"
       x2="32.285713"
       y2="37.410091"
       gradientUnits="userSpaceOnUse"
       gradientTransform="matrix(-1,0,0,1,48.2524,0)" />
    <linearGradient
       inkscape:collect="always"
       xlink:href="#linearGradient36711"
       id="linearGradient36717"
       x1="35.57143"
       y1="33.714287"
       x2="36"
       y2="37.410091"
       gradientUnits="userSpaceOnUse"
       gradientTransform="matrix(-1,0,0,1,48.2524,0)" />
    <linearGradient
       inkscape:collect="always"
       xlink:href="#linearGradient36721"
       id="linearGradient36727"
       x1="39.57143"
       y1="33.714287"
       x2="39.57143"
       y2="37.411133"
       gradientUnits="userSpaceOnUse"
       gradientTransform="matrix(-1,0,0,1,48.2524,0)" />
    <linearGradient
       inkscape:collect="always"
       xlink:href="#linearGradient36729"
       id="linearGradient36735"
       x1="42.42857"
       y1="33.714287"
       x2="42.42857"
       y2="37.410091"
       gradientUnits="userSpaceOnUse"
       gradientTransform="matrix(-1,0,0,1,48.2524,0)" />
    <linearGradient
       inkscape:collect="always"
       xlink:href="#linearGradient36741"
       id="linearGradient36747"
       x1="37.803513"
       y1="13.818782"
       x2="37.100887"
       y2="48.647572"
       gradientUnits="userSpaceOnUse" />
  </defs>
  <sodipodi:namedview
     id="base"
     pagecolor="#ffffff"
     bordercolor="#666666"
     borderopacity="1.0"
     inkscape:pageopacity="0.0"
     inkscape:pageshadow="2"
     inkscape:zoom="14"
     inkscape:cx="24"
     inkscape:cy="24"
     inkscape:current-layer="layer1"
     showgrid="true"
     inkscape:grid-bbox="true"
     inkscape:document-units="px"
     inkscape:window-width="1045"
     inkscape:window-height="820"
     inkscape:window-x="401"
     inkscape:window-y="76"
     inkscape:showpageshadow="2"
     inkscape:pagecheckerboard="0"
     inkscape:deskcolor="#d1d1d1" />
  <metadata
     id="metadata36215">
    <rdf:RDF>
      <cc:Work
         rdf:about="">
        <dc:format>image/svg+xml</dc:format>
        <dc:type
           rdf:resource="http://purl.org/dc/dcmitype/StillImage" />
      </cc:Work>
    </rdf:RDF>
  </metadata>
  <g
     id="layer1"
     inkscape:label="Layer 1"
     inkscape:groupmode="layer">
    <polygon
       transform="matrix(-1.0411,0,0,1.04126,49.6266,-7.28608)"
       style="fill:url(#linearGradient36747);fill-opacity:1;stroke:#486880;stroke-width:0.960446;stroke-miterlimit:4;stroke-dasharray:none"
       id="polygon35556"
       points="14.974,49.385 47.032,49.385 47.032,12.826 32.971,12.826 "
       i:knockout="Off"
       clip-path="none" />
    <path
       d="m 24.5173,15.1896 c -1.5388,0 -3.0328,0.1874 -4.4747,0.5133 l -1.4784,-3.002 c 1.9032,-0.4987 3.8969,-0.7632 5.9531,-0.7632 12.9981,0 23.5737,10.5761 23.5737,23.5773 0,0.6372 -0.027,1.2703 -0.077,1.8961 h -3.2638 c 0.058,-0.6247 0.088,-1.2578 0.088,-1.8961 -0,-11.2081 -9.1159,-20.3254 -20.3213,-20.3254"
       id="use35398"
       style="fill:url(#linearGradient36661);fill-opacity:1" />
    <path
       d="m 24.5173,18.4414 c -1.0214,0 -2.0177,0.1062 -2.9901,0.278 l -1.4846,-3.0155 c 1.4419,-0.3259 2.9359,-0.5133 4.4747,-0.5133 11.2054,0 20.3213,9.1173 20.3213,20.3254 0,0.6383 -0.03,1.2725 -0.088,1.8962 H 41.482 c 0.069,-0.6237 0.1062,-1.2558 0.1062,-1.8962 -10e-4,-9.4307 -7.6438,-17.0746 -17.0709,-17.0746"
       id="use35412"
       style="fill:url(#linearGradient36669);fill-opacity:1" />
    <path
       d="m 24.5173,21.6933 c -0.5019,0 -0.9974,0.03 -1.4857,0.082 l -1.5044,-3.0571 c 0.9734,-0.1718 1.9687,-0.278 2.9901,-0.278 9.4282,0 17.0699,7.6439 17.0699,17.0725 0,0.6404 -0.037,1.2735 -0.1062,1.8962 h -3.2795 c 0.086,-0.6206 0.1343,-1.2537 0.1343,-1.8962 0,-7.6189 -6.1998,-13.8196 -13.8185,-13.8196"
       id="use35426"
       style="fill:url(#linearGradient36677);fill-opacity:1" />
    <path
       d="m 24.5933,24.9493 -1.5617,-3.1738 c 0.4883,-0.052 0.9828,-0.082 1.4857,-0.082 7.6187,0 13.8185,6.2007 13.8185,13.8207 0,0.6424 -0.048,1.2765 -0.1343,1.8961 h -3.2909 c 0.1124,-0.6154 0.1739,-1.2485 0.1739,-1.8961 0,-5.803 -4.6975,-10.522 -10.4912,-10.5647"
       id="use35440"
       style="fill:url(#linearGradient36685);fill-opacity:1" />
    <path
       d="m 35.0845,35.514 c 0,0.6476 -0.061,1.2807 -0.1739,1.8961 h -3.3284 c 0.1624,-0.605 0.2509,-1.2402 0.2509,-1.8961 0,-3.4164 -2.3571,-6.2851 -5.5283,-7.0869 l -1.7126,-3.4788 c 5.7948,0.044 10.4923,4.7627 10.4923,10.5657"
       id="use35454"
       style="fill:url(#linearGradient36693);fill-opacity:1" />
    <path
       d="m 4.19595,35.514 c 0,0.6382 0.0302,1.2724 0.0895,1.8961 h -3.2649 c -0.04998,-0.6268 -0.07601,-1.2589 -0.07601,-1.8961 0,-10.9447 7.494905,-20.1693 17.619615,-22.8131 l 1.4784,3.002 C 10.986,17.749 4.19595,25.8458 4.19595,35.514"
       id="use35468"
       style="fill:url(#linearGradient36701);fill-opacity:1" />
    <path
       d="m 20.0426,15.7029 1.4846,3.0155 C 13.5284,20.1345 7.44732,27.1068 7.44732,35.514 c 0,0.6403 0.0375,1.2734 0.10619,1.8961 H 4.28653 C 4.22718,36.7853 4.19699,36.1522 4.19699,35.514 4.19595,25.8458 10.986,17.749 20.0426,15.7029"
       id="use35482"
       style="fill:url(#linearGradient36735);fill-opacity:1" />
    <path
       d="m 21.5272,18.7194 1.5044,3.0572 C 16.1093,22.52 10.6987,28.3969 10.6987,35.515 c 0,0.6425 0.048,1.2766 0.1332,1.8961 H 7.55247 C 7.4848,36.7874 7.44628,36.1554 7.44628,35.515 c 0,-8.4082 6.08212,-15.3794 14.08092,-16.7956"
       id="use35496"
       style="fill:url(#linearGradient36727);fill-opacity:1" />
    <path
       d="m 23.0316,21.7755 1.5617,3.1738 c -0.025,-0 -0.051,-0 -0.076,-0 -5.8271,0 -10.5662,4.7409 -10.5662,10.5689 0,0.6476 0.061,1.2807 0.1739,1.8961 h -3.292 c -0.085,-0.6206 -0.1333,-1.2537 -0.1333,-1.8961 -10e-4,-7.1171 5.4096,-12.995 12.3319,-13.7385"
       id="use35510"
       style="fill:url(#linearGradient36717);fill-opacity:1" />
    <path
       d="m 17.2014,35.514 c 0,0.6559 0.088,1.2911 0.2499,1.8961 h -3.3274 c -0.1124,-0.6154 -0.1738,-1.2485 -0.1738,-1.8961 0,-5.829 4.7401,-10.5689 10.5661,-10.5689 0.025,0 0.051,0 0.076,0 l 1.7137,3.4789 c -0.5737,-0.1458 -1.1702,-0.2312 -1.7886,-0.2312 -4.0333,0 -7.3159,3.2821 -7.3159,7.317"
       id="use35524"
       style="fill:url(#linearGradient36709);fill-opacity:1" />
    <path
       style="fill:none;fill-opacity:1;stroke:#ffffff;stroke-width:1;stroke-miterlimit:4;stroke-opacity:1"
       clip-path="none"
       d="M 14.7299,7.18054 32.3238,43.0337 1.66242,43.1766 V 7.10911 Z"
       id="polygon36749"
       sodipodi:nodetypes="ccccc" />
  </g>
</svg>
