<?xml version="1.0" encoding="UTF-8" standalone="no"?>
<!-- Created with Inkscape (http://www.inkscape.org/) -->

<svg
   width="48px"
   height="48px"
   id="svg13414"
   sodipodi:version="0.32"
   inkscape:version="1.3.2 (091e20e, 2023-11-25, custom)"
   sodipodi:docname="randommono.svg"
   inkscape:output_extension="org.inkscape.output.svg.inkscape"
   version="1.1"
   xmlns:inkscape="http://www.inkscape.org/namespaces/inkscape"
   xmlns:sodipodi="http://sodipodi.sourceforge.net/DTD/sodipodi-0.dtd"
   xmlns:xlink="http://www.w3.org/1999/xlink"
   xmlns="http://www.w3.org/2000/svg"
   xmlns:svg="http://www.w3.org/2000/svg"
   xmlns:rdf="http://www.w3.org/1999/02/22-rdf-syntax-ns#"
   xmlns:cc="http://creativecommons.org/ns#"
   xmlns:dc="http://purl.org/dc/elements/1.1/"
   xmlns:i="http://ns.adobe.com/AdobeIllustrator/10.0/">
  <defs
     id="defs13416">
    <linearGradient
       inkscape:collect="always"
       id="linearGradient14087">
      <stop
         style="stop-color:#2e3436;stop-opacity:1;"
         offset="0"
         id="stop14089" />
      <stop
         style="stop-color:#2e3436;stop-opacity:0;"
         offset="1"
         id="stop14091" />
    </linearGradient>
    <linearGradient
       id="linearGradient14047">
      <stop
         id="stop14049"
         offset="0"
         style="stop-color:#bbc2b5;stop-opacity:1;" />
      <stop
         id="stop14051"
         offset="1"
         style="stop-color:#e9e9e9;stop-opacity:1;" />
    </linearGradient>
    <linearGradient
       inkscape:collect="always"
       id="linearGradient14001">
      <stop
         style="stop-color:#d3d7cf;stop-opacity:1;"
         offset="0"
         id="stop14003" />
      <stop
         style="stop-color:#ffffff;stop-opacity:1"
         offset="1"
         id="stop14005" />
    </linearGradient>
    <linearGradient
       inkscape:collect="always"
       xlink:href="#linearGradient14047"
       id="linearGradient14007"
       x1="27.541998"
       y1="5.9258609"
       x2="41.000198"
       y2="26.687267"
       gradientUnits="userSpaceOnUse" />
    <linearGradient
       inkscape:collect="always"
       xlink:href="#linearGradient14001"
       id="linearGradient14015"
       x1="19.3694"
       y1="2.0956426"
       x2="22.2045"
       y2="19.634384"
       gradientUnits="userSpaceOnUse" />
    <linearGradient
       inkscape:collect="always"
       xlink:href="#linearGradient14001"
       id="linearGradient14083"
       x1="1.0007499"
       y1="18.232513"
       x2="10.15635"
       y2="40.295383"
       gradientUnits="userSpaceOnUse" />
    <linearGradient
       inkscape:collect="always"
       xlink:href="#linearGradient14047"
       id="linearGradient14085"
       x1="10.09555"
       y1="20.042885"
       x2="29.6255"
       y2="35.722397"
       gradientUnits="userSpaceOnUse" />
    <linearGradient
       inkscape:collect="always"
       xlink:href="#linearGradient14087"
       id="linearGradient14093"
       x1="21.777647"
       y1="30.969784"
       x2="32.243027"
       y2="43.035"
       gradientUnits="userSpaceOnUse" />
  </defs>
  <sodipodi:namedview
     id="base"
     pagecolor="#ffffff"
     bordercolor="#666666"
     borderopacity="1.0"
     inkscape:pageopacity="0.0"
     inkscape:pageshadow="2"
     inkscape:zoom="15.6418"
     inkscape:cx="16.0467"
     inkscape:cy="18.4761"
     inkscape:current-layer="layer1"
     showgrid="true"
     inkscape:grid-bbox="true"
     inkscape:document-units="px"
     inkscape:window-width="1920"
     inkscape:window-height="1115"
     inkscape:window-x="-4"
     inkscape:window-y="-4"
     inkscape:showpageshadow="2"
     inkscape:pagecheckerboard="0"
     inkscape:deskcolor="#d1d1d1" />
  <metadata
     id="metadata13419">
    <rdf:RDF>
      <cc:Work
         rdf:about="">
        <dc:format>image/svg+xml</dc:format>
        <dc:type
           rdf:resource="http://purl.org/dc/dcmitype/StillImage" />
      </cc:Work>
    </rdf:RDF>
  </metadata>
  <g
     id="layer1"
     inkscape:label="Layer 1"
     inkscape:groupmode="layer">
    <polygon
       i:knockout="Off"
       points="46.454,9.439 42.804,26.158 40.185,28.268 24.425,26.914 22.584,24.326 25.923,6.874 28.751,4.655 44.82,6.744 46.454,9.439 "
       id="polygon5715"
       style="fill:url(#linearGradient14007);fill-opacity:1.0"
       transform="matrix(1.0244788,0,0,1.0244894,2.5363686e-2,3.1008964)" />
    <polygon
       i:knockout="Off"
       points="25.48,3.855 25.923,6.874 28.751,4.655 25.48,3.855 "
       id="polygon5717"
       style="fill:#eeeeec"
       transform="matrix(1.0244788,0,0,1.0244894,2.5363686e-2,3.1008964)" />
    <polygon
       i:knockout="Off"
       points="22.584,24.326 21.274,25.991 15.725,21.242 15.403,18.439 18.278,2.517 19.469,0.635 25.48,3.855 25.923,6.874 22.584,24.326 "
       id="polygon5724"
       style="fill:url(#linearGradient14015);fill-opacity:1"
       transform="matrix(1.0244788,0,0,1.0244894,2.5363686e-2,3.1008964)" />
    <polygon
       i:knockout="Off"
       points="19.469,0.635 20.001,0.386 36.398,2.616 38.521,3.215 45.73,6.487 44.82,6.744 28.751,4.655 25.48,3.855 19.469,0.635 "
       id="polygon5731"
       style="fill:#eeeeec;fill-opacity:1"
       transform="matrix(1.0244788,0,0,1.0244894,2.5363686e-2,3.1008964)" />
    <polygon
       i:knockout="Off"
       points="24.425,26.914 21.274,25.991 22.584,24.326 24.425,26.914 "
       id="polygon5750"
       style="fill:url(#XMLID_73_)"
       transform="matrix(1.0244788,0,0,1.0244894,2.5363686e-2,3.1008964)" />
    <ellipse
       style="fill:#888a85;fill-opacity:1;stroke-width:1.02448"
       id="circle5761"
       cy="12.0274"
       cx="23.6776"
       i:knockout="Off"
       rx="3.17799"
       ry="4.00913"
       transform="rotate(11.2629)" />
    <ellipse
       style="fill:#555753;fill-opacity:1;stroke-width:1.02449"
       id="ellipse5775"
       ry="1.37431"
       rx="4.54317"
       cy="-0.0303568"
       cx="33.8244"
       i:knockout="Off"
       transform="rotate(11.469)" />
    <ellipse
       style="fill:#ffffff;fill-opacity:1;stroke-width:1.02448"
       id="circle5803"
       cy="20.7151"
       cx="35.5917"
       i:knockout="Off"
       rx="4.51747"
       ry="4.51751" />
    <polyline
       i:knockout="Off"
       points="19.469,0.635 25.48,3.855 28.751,4.655 44.82,6.744         45.73,6.487 "
       id="polyline5805"
       style="fill:none;stroke:#eeeeec;stroke-width:0.97610110000000005"
       transform="matrix(1.0244788,0,0,1.0244894,2.5363686e-2,3.1008964)" />
    <polygon
       i:knockout="Off"
       points="26.024,4.456 21.979,25.6 22.676,25.733 26.721,4.588 26.024,4.456 "
       id="polygon5826"
       style="fill:#eeeeec"
       transform="translate(0.8888889,2.6031746)" />
    <polygon
       i:knockout="Off"
       points="20.001,0.386 36.398,2.616 38.521,3.215 45.73,6.487 46.454,9.439 42.804,26.158 40.185,28.268 24.425,26.914 21.274,25.991 15.725,21.242 15.403,18.439 18.278,2.517 19.469,0.635 20.001,0.386 "
       id="polygon5828"
       style="fill:none;stroke:#000000;stroke-width:0.73207581"
       transform="matrix(1.0244788,0,0,1.0244894,2.5363686e-2,3.1008964)" />
    <polygon
       transform="matrix(1.0244788,0,0,1.0244894,2.5363686e-2,3.1008964)"
       style="opacity:0.50000000000000000;fill:url(#linearGradient14093);fill-opacity:1"
       id="polygon5835"
       points="6.723,36.77 4.101,36.84 3.557,38.097 14.881,43.035 17.906,42.996 33.976,39.75 34.206,37.664 33.241,35.688 42.967,34.86 44.7,33.251 38.213,30.174 30.44,29.936 14.334,39.357 6.723,36.77 "
       i:knockout="Off" />
    <polygon
       i:knockout="Off"
       points="29.336,17.628 30.865,34.671 28.998,37.47 13.556,40.901 11.024,38.983 8.98,21.333 11.014,18.369 26.97,15.546 29.336,17.628 "
       id="polygon5846"
       style="fill:url(#linearGradient14085);fill-opacity:1"
       transform="matrix(1.0244788,0,0,1.0244894,0.1531236,3.2286576)" />
    <polygon
       i:knockout="Off"
       points="7.653,18.585 8.98,21.333 11.014,18.369 7.653,18.585 "
       id="polygon5848"
       style="fill:#eeeeec"
       transform="matrix(1.0244788,0,0,1.0244894,0.1531236,3.2286576)" />
    <polygon
       i:knockout="Off"
       points="11.024,38.983 10.273,40.964 3.557,38.097 2.41,35.519 0.381,19.467 0.953,17.316 7.653,18.585 8.98,21.333 11.024,38.983 "
       id="polygon5855"
       style="fill:url(#linearGradient14083);fill-opacity:1"
       transform="matrix(1.0244788,0,0,1.0244894,0.1531236,3.2286576)" />
    <polygon
       i:knockout="Off"
       points="0.953,17.316 1.386,16.918 17.698,14.131 19.903,14.067 27.761,15.028 26.97,15.546 11.014,18.369 7.653,18.585 0.953,17.316 "
       id="polygon5862"
       style="fill:#eeeeec"
       transform="matrix(1.0244788,0,0,1.0244894,0.1531236,3.2286576)" />
    <polygon
       i:knockout="Off"
       points="13.556,40.901 10.273,40.964 11.024,38.983 13.556,40.901 "
       id="polygon5881"
       style="fill:#d3d7cf"
       transform="matrix(1.0244788,0,0,1.0244894,2.5363686e-2,3.1008964)" />
    <ellipse
       style="fill:#babdb6;fill-opacity:1;stroke-width:1.02448"
       id="circle5892"
       cy="33.2903"
       cx="0.189469"
       i:knockout="Off"
       rx="2.68178"
       ry="5.14274"
       transform="rotate(-9.6841)" />
    <ellipse
       style="fill:#ffffff;fill-opacity:1;stroke-width:1.02449"
       id="ellipse5906"
       ry="1.3792"
       rx="4.55931"
       cy="21.5663"
       cx="11.8682"
       i:knockout="Off"
       transform="rotate(-7.52426)" />
    <ellipse
       style="fill:#888a85;fill-opacity:1;stroke-width:1.02448"
       id="circle5920"
       cy="32.065"
       cx="20.9655"
       i:knockout="Off"
       rx="5.41249"
       ry="5.41255" />
    <polyline
       i:knockout="Off"
       points="0.953,17.316 7.653,18.585 11.014,18.369 26.97,15.546         27.761,15.028 "
       id="polyline5950"
       style="fill:none;stroke:#eeeeec;stroke-width:0.97610110000000005"
       transform="matrix(1.0244788,0,0,1.0244894,0.1531236,3.2286576)" />
    <polygon
       i:knockout="Off"
       points="10.829,40.38 11.534,40.298 9.057,18.914 8.352,18.996 "
       id="polygon5971"
       style="fill:#eeeeec"
       transform="translate(0.444444,4.19399)" />
    <polygon
       i:knockout="Off"
       points="1.386,16.918 17.698,14.131 19.903,14.067 27.761,15.028 29.336,17.628 30.865,34.671 28.998,37.47 13.556,40.901 10.273,40.964 3.557,38.097 2.41,35.519 0.381,19.467 0.953,17.316 1.386,16.918 "
       id="polygon5973"
       style="fill:none;stroke:#000000;stroke-width:0.73207581"
       transform="matrix(1.0244788,0,0,1.0244894,0.1531236,3.2286576)" />
  </g>
</svg>
