<?xml version="1.0" encoding="UTF-8"?><svg xmlns="http://www.w3.org/2000/svg" xmlns:xlink="http://www.w3.org/1999/xlink" viewBox="0 0 48 48"><defs><radialGradient id="radial-gradient" cx="-277.45" cy="-129.56" fx="-277.45" fy="-129.56" r="9.48" gradientTransform="translate(-48 676.55) rotate(81.18) scale(2.09 1.3) skewX(9.12)" gradientUnits="userSpaceOnUse"><stop offset=".17" stop-color="#2c2c2c" stop-opacity=".5"/><stop offset=".99" stop-color="#2c2c2c" stop-opacity="0"/></radialGradient><linearGradient id="linear-gradient" x1="-73.27" y1="-34.46" x2="-73.27" y2="-12.94" gradientTransform="translate(140.18 -10.49) scale(1.28 -1.28)" gradientUnits="userSpaceOnUse"><stop offset="0" stop-color="#608bc3"/><stop offset="1" stop-color="#285092"/></linearGradient><linearGradient id="linear-gradient-2" x1="-88.16" y1="-7.61" x2="-69.03" y2="-37.69" gradientTransform="translate(140.18 -10.49) scale(1.28 -1.28)" gradientUnits="userSpaceOnUse"><stop offset="0" stop-color="#a2bede"/><stop offset="1" stop-color="#285092"/></linearGradient><linearGradient id="linear-gradient-3" x1="-93.16" y1="-3.74" x2="-72.27" y2="-27.55" gradientTransform="translate(140.18 -10.49) scale(1.28 -1.28)" gradientUnits="userSpaceOnUse"><stop offset=".05" stop-color="#fff" stop-opacity="0"/><stop offset=".69" stop-color="#fff8f8"/></linearGradient><linearGradient id="linear-gradient-4" x1="4.25" y1="20.72" x2="4.25" y2="41.4" gradientTransform="translate(11.71 -8.84) rotate(25.91) scale(.68 .9) skewX(32.86)" gradientUnits="userSpaceOnUse"><stop offset="0" stop-color="#608bc3"/><stop offset="1" stop-color="#dce6f1"/></linearGradient><linearGradient id="linear-gradient-5" x1="2.75" y1="52.13" x2="6.61" y2="30.24" gradientTransform="translate(11.71 -8.84) rotate(25.91) scale(.68 .9) skewX(32.86)" gradientUnits="userSpaceOnUse"><stop offset="0" stop-color="#5c5c5c"/><stop offset=".71" stop-color="#fffdfd" stop-opacity=".19"/></linearGradient><linearGradient id="linear-gradient-6" x1="16.14" y1="45.42" x2="16.14" y2="57.54" xlink:href="#linear-gradient-5"/><linearGradient id="linear-gradient-7" x1=".83" y1="46.31" x2="1.75" y2="37.62" xlink:href="#linear-gradient-5"/><linearGradient id="linear-gradient-8" x1="16.89" y1="44.05" x2="-14.02" y2="44.05" xlink:href="#linear-gradient-5"/><linearGradient id="linear-gradient-9" x1="9.22" y1="27.9" x2="7.38" y2="24.8" gradientTransform="translate(29.35 -6.93) rotate(59.03) scale(.68 .9) skewX(32.86)" gradientUnits="userSpaceOnUse"><stop offset="0" stop-color="#fff" stop-opacity=".1"/><stop offset="1" stop-color="#fff8f8"/></linearGradient><linearGradient id="linear-gradient-10" x1="21.91" y1="36.86" x2="22.76" y2="36.86" gradientTransform="translate(11.71 -8.84) rotate(25.91) scale(.68 .9) skewX(32.86)" xlink:href="#linear-gradient-9"/><linearGradient id="linear-gradient-11" x1="26.16" y1="36.88" x2="7.79" y2="36.88" gradientTransform="translate(11.71 -8.84) rotate(25.91) scale(.68 .9) skewX(32.86)" xlink:href="#linear-gradient-9"/><linearGradient id="linear-gradient-12" x1="22.67" y1="36.88" x2="9.64" y2="36.88" xlink:href="#linear-gradient-5"/><linearGradient id="linear-gradient-13" x1="-86.47" y1="-39.77" x2="-86.47" y2="-18.25" xlink:href="#linear-gradient"/><linearGradient id="linear-gradient-14" x1="-101.36" y1="-12.92" x2="-82.23" y2="-43" xlink:href="#linear-gradient-2"/><linearGradient id="linear-gradient-15" x1="-106.36" y1="-9.05" x2="-85.47" y2="-32.86" xlink:href="#linear-gradient-3"/></defs><g style="isolation:isolate;"><g id="shadow" style="mix-blend-mode:multiply; opacity:.45;"><ellipse cx="23.25" cy="34.4" rx="11.69" ry="19.45" transform="translate(-17.49 42.41) rotate(-67.07)" style="fill:url(#radial-gradient);"/><ellipse cx="23.25" cy="34.4" rx="11.69" ry="19.45" transform="translate(-17.49 42.41) rotate(-67.07)" style="fill:url(#radial-gradient);"/></g><g id="ART"><g><g><g><polygon points="44.86 19.3 40.95 17.41 40.95 13.12 44.86 15 44.86 19.3"/><polygon points="44.86 23.63 40.95 21.75 40.95 17.46 44.86 19.34 44.86 23.63"/><polygon points="44.86 27.87 40.95 25.99 40.95 21.7 44.86 23.58 44.86 27.87"/><polygon points="44.86 32.16 40.95 30.28 40.95 25.99 44.86 27.87 44.86 32.16"/><polygon points="44.86 36.4 40.95 34.51 40.95 30.22 44.86 32.1 44.86 36.4"/><polygon points="44.86 40.72 40.95 38.84 40.95 34.55 44.86 36.43 44.86 40.72"/><polygon points="40.95 17.41 37.04 15.53 37.04 11.24 40.95 13.12 40.95 17.41" style="fill:#799ecd;"/><polygon points="44.86 19.3 40.95 17.41 40.95 13.12 44.86 15 44.86 19.3" style="fill:#769bca;"/><polygon points="44.86 23.63 40.95 21.75 40.95 17.46 44.86 19.34 44.86 23.63" style="fill:#97b3d7;"/><polygon points="44.86 27.87 40.95 25.99 40.95 21.7 44.86 23.58 44.86 27.87" style="fill:#9eb8da;"/><polygon points="44.86 32.16 40.95 30.28 40.95 25.99 44.86 27.87 44.86 32.16" style="fill:#b20402;"/><polygon points="44.86 36.4 40.95 34.51 40.95 30.22 44.86 32.1 44.86 36.4" style="fill:#c60000;"/><polygon points="44.86 40.72 40.95 38.84 40.95 34.55 44.86 36.43 44.86 40.72" style="fill:#b40302;"/><polygon points="33.13 17.99 29.22 16.11 29.22 11.82 33.13 13.7 33.13 17.99" style="fill:#edd400;"/><polygon points="40.95 30.28 37.04 28.4 37.04 24.11 40.95 25.99 40.95 30.28" style="fill:#614261;"/><polygon points="40.95 25.99 37.04 24.11 37.04 19.82 40.95 21.7 40.95 25.99" style="fill:#4c334c;"/><polygon points="40.95 38.84 37.04 36.96 37.04 32.67 40.95 34.55 40.95 38.84" style="fill:#808b92;"/><polygon points="40.95 38.84 37.04 36.96 37.04 32.67 40.95 34.55 40.95 38.84" style="fill:#5f415f; opacity:.22;"/><polygon points="40.95 34.51 37.04 32.63 37.04 28.34 40.95 30.22 40.95 34.51" style="fill:#4d354e;"/><polygon points="40.95 21.75 37.04 19.87 37.04 15.58 40.95 17.46 40.95 21.75" style="fill:#747e84;"/><polygon points="37.04 28.4 33.13 26.52 33.13 22.23 37.04 24.11 37.04 28.4" style="fill:#c5b2c2;"/><polygon points="37.04 24.11 33.13 22.23 33.13 17.94 37.04 19.82 37.04 24.11" style="fill:#c5b2c2;"/><polygon points="37.04 36.96 33.13 35.08 33.13 30.79 37.04 32.67 37.04 36.96" style="fill:#dcdfe4;"/><polygon points="37.04 32.63 33.13 30.75 33.13 26.46 37.04 28.34 37.04 32.63" style="fill:#c5b2c2;"/><polygon points="25.31 31.33 21.4 29.45 21.4 25.12 25.31 27 25.31 31.33" style="fill:#710003;"/><polygon points="33.13 35.1 29.22 33.22 29.22 28.89 33.13 30.77 33.13 35.1" style="fill:#820302;"/><polygon points="29.22 33.2 25.31 31.31 25.31 27.02 29.22 28.9 29.22 33.2" style="fill:#7d0000;"/><polygon points="25.31 27.01 21.4 25.13 21.4 20.8 25.31 22.68 25.31 27.01" style="fill:#e08438;"/><polygon points="29.22 28.89 25.31 27.01 25.31 22.68 29.22 24.56 29.22 28.89" style="fill:#fcaf3e;"/><polygon points="33.13 30.77 29.22 28.89 29.22 24.56 33.13 26.44 33.13 30.77" style="fill:#ffc476;"/><g><polygon points="25.31 22.7 21.4 20.82 21.4 16.64 25.31 18.52 25.31 22.7" style="fill:#633c21;"/><polygon points="29.22 24.59 25.31 22.7 25.31 18.52 29.22 20.4 29.22 24.59" style="fill:#472215;"/><polygon points="33.13 26.47 29.22 24.59 29.22 20.4 33.13 22.28 33.13 26.47" style="fill:#633c21;"/></g><polygon points="25.31 18.48 21.4 16.6 21.4 12.27 25.31 14.15 25.31 18.48" style="fill:#e08438;"/><polygon points="29.22 20.36 25.31 18.48 25.31 14.15 29.22 16.03 29.22 20.36" style="fill:#fcaf3e;"/><polygon points="33.13 22.25 29.22 20.36 29.22 16.03 33.13 17.92 33.13 22.25" style="fill:#ffc476;"/><g><polygon points="21.4 29.43 17.49 27.55 17.49 23.26 21.4 25.14 21.4 29.43" style="fill:#550100;"/><polygon points="21.4 25.11 17.49 23.22 17.49 18.93 21.4 20.81 21.4 25.11" style="fill:#d3d7cf;"/><polygon points="21.4 20.88 17.49 18.99 17.49 14.7 21.4 16.58 21.4 20.88" style="fill:#b20402;"/><polygon points="21.4 16.58 17.49 14.7 17.49 10.41 21.4 12.29 21.4 16.58" style="fill:#c6d6e9;"/><polygon points="21.4 12.34 17.49 10.46 17.49 6.17 21.4 8.05 21.4 12.34" style="fill:#96b3d7;"/><polygon points="21.4 8.01 17.49 6.13 17.49 1.83 21.4 3.71 21.4 8.01" style="fill:#7c9fcd;"/><polygon points="25.31 14.23 21.4 12.34 21.4 8.05 25.31 9.93 25.31 14.23" style="fill:#96b3d7;"/><polygon points="25.31 9.89 21.4 8.01 21.4 3.71 25.31 5.6 25.31 9.89" style="fill:#7c9fcd;"/><polygon points="29.22 16.11 25.31 14.23 25.31 9.93 29.22 11.82 29.22 16.11" style="fill:#96b3d7;"/><polygon points="29.22 11.77 25.31 9.89 25.31 5.6 29.22 7.48 29.22 11.77" style="fill:#7c9fcd;"/><polygon points="33.13 13.65 29.22 11.77 29.22 7.48 33.13 9.36 33.13 13.65" style="fill:#ffeea6;"/><polygon points="37.04 19.87 33.13 17.99 33.13 13.7 37.04 15.58 37.04 19.87" style="fill:#dcdfe4;"/><polygon points="37.04 15.53 33.13 13.65 33.13 9.36 37.04 11.24 37.04 15.53" style="fill:#edd400;"/></g></g><g><line x1="40.95" y1="13.12" x2="40.95" y2="38.9" style="fill:#fff8ba; stroke:#000; stroke-linejoin:round; stroke-width:.5px;"/><line x1="37.04" y1="11.24" x2="37.04" y2="37.02" style="fill:#fff8ba; stroke:#000; stroke-linejoin:round; stroke-width:.5px;"/><line x1="33.13" y1="9.36" x2="33.13" y2="35.14" style="fill:#fff8ba; stroke:#000; stroke-linejoin:round; stroke-width:.5px;"/><line x1="29.22" y1="7.48" x2="29.22" y2="33.26" style="fill:#fff8ba; stroke:#000; stroke-linejoin:round; stroke-width:.5px;"/><line x1="25.31" y1="5.6" x2="25.31" y2="31.38" style="fill:#fff8ba; stroke:#000; stroke-linejoin:round; stroke-width:.5px;"/><line x1="21.4" y1="3.71" x2="21.4" y2="29.5" style="fill:#fff8ba; stroke:#000; stroke-linejoin:round; stroke-width:.5px;"/></g><g><line x1="17.49" y1="6.12" x2="44.86" y2="19.29" style="fill:none; stroke:#000; stroke-linejoin:round; stroke-width:.5px;"/><line x1="17.49" y1="10.41" x2="44.86" y2="23.58" style="fill:none; stroke:#000; stroke-linejoin:round; stroke-width:.5px;"/><line x1="17.49" y1="14.7" x2="44.86" y2="27.87" style="fill:none; stroke:#000; stroke-linejoin:round; stroke-width:.5px;"/><line x1="17.49" y1="18.99" x2="44.86" y2="32.16" style="fill:none; stroke:#000; stroke-linejoin:round; stroke-width:.5px;"/><line x1="17.49" y1="23.29" x2="44.86" y2="36.46" style="fill:none; stroke:#000; stroke-linejoin:round; stroke-width:.5px;"/></g></g><g><path id="path2" d="M44.86,15l2.59-1.26v25.79l-2.59,1.24V15Z" style="fill:url(#linear-gradient);"/><path id="path3" d="M47.45,13.75L20.08,.57l-2.59,1.26,27.37,13.18,2.59-1.26Z" style="fill:url(#linear-gradient-2);"/><path id="path4" d="M47.45,13.75L20.08,.57l-2.59,1.26,27.37,13.18,2.59-1.26Z" style="fill:url(#linear-gradient-3);"/><path id="path14" d="M47.45,39.54V13.75L20.08,.57l-2.59,1.26V27.61l27.37,13.18,2.59-1.24Z" style="fill:none; stroke:#285092; stroke-linecap:round; stroke-linejoin:round; stroke-width:.7px;"/></g><g><polygon points="27.92 21.81 .67 8.71 .67 34.21 27.92 47.32 27.92 21.81" style="fill:url(#linear-gradient-4);"/><polygon points="27.92 37.6 .67 24.49 .67 34.49 27.92 47.59 27.92 37.6" style="fill:#c00;"/><polygon points="27.92 37.6 .67 24.49 .67 34.49 27.92 47.59 27.92 37.6" style="fill:url(#linear-gradient-5); mix-blend-mode:multiply;"/><polygon points="25.74 46.54 17.32 42.49 17.32 39.41 25.74 43.46 25.74 46.54" style="fill:url(#linear-gradient-6); mix-blend-mode:multiply;"/><polygon points="23.93 38.79 .67 27.61 .67 29.57 23.93 40.76 23.93 38.79" style="fill:#555753;"/><g><g><path d="M17.88,35.69v.63c0,.95-.7,1.37-1.57,.96l-10.27-4.94c-.87-.42-1.57-1.52-1.57-2.47v-.63l13.41,6.45Z" style="fill:#fcaf3e;"/><path d="M17.88,35.69v.63c0,.07,0,.13-.01,.19-.61-.25-1.45-.54-2.21-.65-1.43-.22-2.72-1.11-3.62-1.81-.89-.71-3.69-1.4-4.67-2.36-.95-.93-2.22-1.33-2.83-1.28-.04-.18-.07-.36-.07-.53v-.63l13.41,6.45Z" style="fill:#d05d29;"/></g><path d="M15.75,25.35c-1.42-1.7-3.2-2.78-4.87-3.54-1.44-.66-3.05-1.14-4.28-.86-1.84,.42-2.43,1.83-2.55,2.88s.38,1.48,1.17,1.85l5.96,2.87,5.96,2.87c.78,.38,1.29,.49,1.17-.73s-.71-3.15-2.55-5.34Z" style="fill:#e08438;"/><polygon points="4.96 25.56 11.18 28.55 11.18 29.34 4.96 26.35 4.96 25.56" style="fill:#ef2929;"/><path d="M18.72,36.66c-.46-.56-1.37-1.06-2.38-1.43s-1.15,.1-2.49-.54-1.7-1.57-2.67-2.03-1.32,.12-2.66-.53-1.49-1.25-2.5-1.86c-1.01-.6-1.92-.98-2.38-.87-.46,.11-.09-1,.74-.74l13.61,6.54c.83,.54,1.2,2.01,.74,1.45Z" style="fill:#73d216;"/><path d="M18.24,34.73c0,.61-.43,.9-.95,.65l-12.23-5.88c-.52-.25-.95-.95-.95-1.57,0-.31,.11-.53,.28-.65,.17-.12,.41-.13,.67,0l12.23,5.88c.26,.13,.5,.36,.67,.65,.17,.28,.28,.61,.28,.92Z" style="fill:#4e9a06;"/><path d="M18.72,34.62c0,.61-.45,.89-1.01,.62l-13.06-6.28c-.56-.27-1.01-.98-1.01-1.6,0-.31,.11-.53,.3-.64,.18-.11,.43-.12,.72,.02l13.06,6.28c.28,.13,.53,.38,.72,.67,.18,.29,.3,.62,.3,.92Z" style="fill:#472215;"/><path d="M18.42,33.7c-.06-.03-.12-.06-.19-.09-3.34-1.5-7.06-1.89-7.06-1.89,0,0-5.16-3.89-7.27-4.97,0,0,.02-.01,.02-.02,.18-.11,.43-.12,.72,.02l13.06,6.28c.28,.13,.53,.38,.72,.67Z" style="fill:#220d0b;"/><path d="M11.18,31.39c-2.84-2.72-5.94-4.34-6.81-4.77-.13-.07-.24-.24-.24-.39h0c0-.15,.11-.22,.24-.16l6.8,3.27,6.8,3.27c.13,.06,.24,.24,.24,.39h0c0,.15-.11,.22-.24,.16-.87-.41-3.96-1.76-6.81-1.78Z" style="fill:#edd400;"/><path d="M18.17,29.89c-.44,.28-1.55,.26-4.33-1.15-5.07-2.58-7.92-6.35-7.36-7.76,.04-.01,.08-.02,.13-.03,1.23-.28,2.83,.2,4.28,.86,1.66,.76,3.44,1.84,4.87,3.54,1.47,1.75,2.15,3.37,2.42,4.54Z" style="fill:#fcaf3e;"/><path d="M18.22,33c0,.15-.11,.22-.24,.16-.59-.28-2.19-.98-4.04-1.41-1.5-1.21-3.92-2.57-5.98-3.57-.5-.24-1.44-.58-2.29-.86-.59-.34-1.05-.58-1.31-.7-.13-.07-.24-.24-.24-.39s.11-.22,.25-.16l13.61,6.54c.13,.06,.24,.24,.24,.39Z" style="fill:#f57900;"/><polygon points="17.39 31.54 7.39 26.73 7.39 27.51 17.39 32.32 17.39 31.54" style="fill:#a40000;"/></g><polygon points="23.93 41.09 .67 29.9 .67 31.87 23.93 43.06 23.93 41.09" style="fill:url(#linear-gradient-7); mix-blend-mode:multiply;"/><polygon points="23.93 40.1 .67 28.92 .67 30.89 23.93 42.07 23.93 40.1" style="fill:#d3d7cf;"/><polygon points="23.93 40.1 .67 28.92 .67 30.89 23.93 42.07 23.93 40.1" style="fill:url(#linear-gradient-8); mix-blend-mode:multiply;"/><path d="M25.13,44.36l-7.2-3.46c-.34-.16-.61-.74-.61-1.28V20.96l8.42,4.05v18.65c0,.55-.27,.86-.61,.7Z" style="fill:#babdb6;"/><ellipse cx="17.32" cy="21.77" rx="2.76" ry="4.39" transform="translate(-9.08 13) rotate(-33.12)" style="fill:#edd400;"/><ellipse cx="17.32" cy="21.77" rx="2.33" ry="3.7" transform="translate(-9.08 13) rotate(-33.12)" style="fill:#fff19f;"/><ellipse cx="17.32" cy="21.77" rx="2.33" ry="3.7" transform="translate(-9.08 13) rotate(-33.12)" style="fill:url(#linear-gradient-9); opacity:.7;"/><path d="M25.13,44.36l-7.2-3.46c-.34-.16-.61-.74-.61-1.28V20.96l8.42,4.05v18.65c0,.55-.27,.86-.61,.7Z" style="fill:#b1c0c9;"/><path d="M25.74,25.01v18.83c0,.45-.34,.65-.74,.45V24.66l.74,.36Z" style="fill:url(#linear-gradient-10); opacity:.7;"/><polygon points="25 41.97 18.06 38.63 18.06 24.29 25 27.63 25 41.97" style="fill:#755076;"/><path d="M19.62,41.71l-1.56-.75c-.41-.2-.74-.72-.74-1.17V20.96l8.42,4.05-6.12-2.33v19.03Z" style="fill:url(#linear-gradient-11); opacity:.7;"/><polygon points="25 24.66 20.65 22.57 20.65 42.21 25 44.3 25 24.66" style="fill:url(#linear-gradient-12); mix-blend-mode:multiply;"/><path d="M8.58,22.77s.18,.24,.17,.49c0,.21-.17,.14-.17,.14,0,0-.16-.07-.17-.3-.01-.26,.17-.33,.17-.33Z" style="fill:#ffe2bb; opacity:.7;"/><path d="M5.9,25.67s.11,.21,.05,.38c-.05,.14-.17,.04-.17,.04,0,0-.12-.1-.09-.25,.04-.18,.21-.17,.21-.17Z" style="fill:#fcaf3e;"/><path d="M11.17,22.82s.05,.27-.1,.38c-.13,.1-.25-.07-.25-.07,0,0-.12-.16,0-.29,.14-.14,.36-.03,.36-.03Z" style="fill:#ffe2bb; opacity:.7;"/><path d="M12.2,26.66s.21,.19,.27,.46c.05,.24-.1,.21-.1,.21,0,0-.15-.02-.22-.26-.08-.28,.05-.42,.05-.42Z" style="fill:#ffe2bb; opacity:.7;"/><path d="M14.58,24.9s.22,.14,.34,.42c.1,.24-.04,.26-.04,.26,0,0-.13,.03-.25-.21-.13-.27-.05-.47-.05-.47Z" style="fill:#ffe2bb; opacity:.7;"/><path d="M16.68,28.03s.22,.14,.34,.42c.1,.24-.04,.26-.04,.26,0,0-.13,.03-.25-.21-.13-.27-.05-.47-.05-.47Z" style="fill:#ffe2bb; opacity:.7;"/><path d="M9.74,24.81s.15,.26,.09,.48c-.05,.19-.2,.08-.2,.08,0,0-.15-.1-.13-.31,.03-.24,.23-.25,.23-.25Z" style="fill:#ffe2bb; opacity:.7;"/><path d="M15.23,28.52s.21,.19,.26,.47c.05,.23-.11,.21-.11,.21,0,0-.15-.02-.22-.26-.08-.28,.06-.41,.06-.41Z" style="fill:#ffe2bb; opacity:.7;"/><path d="M7.24,22s.08,.27-.04,.42c-.11,.13-.24-.02-.24-.02,0,0-.14-.15-.05-.3,.11-.18,.33-.1,.33-.1Z" style="fill:#ffe2bb; opacity:.7;"/></g><g><path id="path2-2" d="M27.92,21.81l2.59-1.26v25.79l-2.59,1.24V21.81Z" style="fill:url(#linear-gradient-13);"/><path id="path3-2" d="M30.51,20.56L3.14,7.38l-2.59,1.26,27.37,13.18,2.59-1.26Z" style="fill:url(#linear-gradient-14);"/><path id="path4-2" d="M30.51,20.56L3.14,7.38l-2.59,1.26,27.37,13.18,2.59-1.26Z" style="fill:url(#linear-gradient-15);"/><path id="path14-2" d="M30.51,46.35V20.56L3.14,7.38l-2.59,1.26v25.78l27.37,13.18,2.59-1.24Z" style="fill:none; stroke:#285092; stroke-linecap:round; stroke-linejoin:round; stroke-width:.7px;"/></g></g></g></g></svg>