<?xml version="1.0" encoding="UTF-8" standalone="no"?>
<!-- Created with Inkscape (http://www.inkscape.org/) -->

<svg
   width="48px"
   height="48px"
   id="svg2836"
   sodipodi:version="0.32"
   inkscape:version="1.3.2 (091e20e, 2023-11-25, custom)"
   sodipodi:docname="adfadjust.svg"
   version="1.1"
   xml:space="preserve"
   xmlns:inkscape="http://www.inkscape.org/namespaces/inkscape"
   xmlns:sodipodi="http://sodipodi.sourceforge.net/DTD/sodipodi-0.dtd"
   xmlns="http://www.w3.org/2000/svg"
   xmlns:svg="http://www.w3.org/2000/svg"
   xmlns:rdf="http://www.w3.org/1999/02/22-rdf-syntax-ns#"
   xmlns:cc="http://creativecommons.org/ns#"
   xmlns:dc="http://purl.org/dc/elements/1.1/"><defs
     id="defs2838"><linearGradient
       id="linearGradient2856"><stop
         style="stop-color:#fef8c1;stop-opacity:1;"
         offset="0"
         id="stop2858" /><stop
         style="stop-color:#fce94f;stop-opacity:1;"
         offset="1"
         id="stop2860" /></linearGradient></defs><sodipodi:namedview
     id="base"
     pagecolor="#ffffff"
     bordercolor="#666666"
     borderopacity="1.0"
     inkscape:pageopacity="0.0"
     inkscape:pageshadow="2"
     inkscape:zoom="15.75"
     inkscape:cx="24.127"
     inkscape:cy="31.2381"
     inkscape:current-layer="layer1"
     showgrid="true"
     inkscape:grid-bbox="false"
     inkscape:document-units="px"
     inkscape:window-width="1338"
     inkscape:window-height="1090"
     inkscape:window-x="291"
     inkscape:window-y="1"
     inkscape:showpageshadow="2"
     inkscape:pagecheckerboard="0"
     inkscape:deskcolor="#d1d1d1" /><metadata
     id="metadata2841"><rdf:RDF><cc:Work
         rdf:about=""><dc:format>image/svg+xml</dc:format><dc:type
           rdf:resource="http://purl.org/dc/dcmitype/StillImage" /></cc:Work></rdf:RDF></metadata><g
     id="layer1"
     inkscape:label="Layer 1"
     inkscape:groupmode="layer"><path
       id="path3"
       style="color:#000000;overflow:visible;fill:#ffffff;fill-opacity:0.5;stroke:#729fcf;stroke-width:3;stroke-linecap:round;stroke-linejoin:round;stroke-dasharray:none"
       sodipodi:type="inkscape:offset"
       inkscape:radius="1.14463"
       inkscape:original="M 16.1055 2.73828 C 15.1656 2.62077 13.9975 3.16756 13.2773 4.36914 C 11.8373 6.77183 13.0094 12.6971 11.2715 14.5312 C 10.0699 15.7973 8.60769 16.4655 7.23242 17.2559 C 6.83027 17.487 6.14336 18.1879 6.06836 18.8105 C 5.95745 19.7312 6.35535 20.6644 6.43945 21.2324 C 6.50646 21.6852 6.0884 22.3535 6.0293 22.5527 C 5.86961 23.0907 6.04069 24.3553 5.92188 25.4629 C 5.80307 26.5704 5.35797 27.5672 5.52734 27.8867 C 6.11715 28.3591 6.38535 29.5397 6.98828 29.9727 C 8.14265 30.8016 9.71849 31.2941 10.2227 31.1211 C 10.7405 33.6791 13.7277 36.7372 16.4668 36.6367 C 16.6006 37.4259 17.0064 38.1195 17.6699 38.2852 C 17.6699 38.2852 16.5308 38.7707 16.377 39.0508 C 16.2232 39.331 16.421 39.2079 16.377 39.7812 C 16.3335 40.3545 15.154 41.3595 16.2246 42.7266 C 17.2951 44.0939 20.6932 42.7169 21.2676 43.0137 C 21.8419 43.3107 22.4428 45.0704 23.4805 45.2832 C 24.5182 45.4959 27.1858 44.3531 28.8223 44.1328 C 30.4588 43.9125 32.2829 43.8847 32.7695 43.6211 C 33.2562 43.3574 34.1456 42.691 34.4863 42.4395 C 34.827 42.188 34.783 41.5414 35.2109 41.0547 C 35.6389 40.5678 35.957 40.425 36.4336 39.916 C 36.8116 40.1948 37.6881 40.2827 38.3594 40.082 C 38.9057 39.9188 39.6568 39.2647 39.7148 38.8262 C 41.2382 38.5477 42.5978 36.1662 42.6328 34.1738 C 42.5809 32.9601 40.7982 31.2954 39.8535 31.623 C 40.1678 29.5746 39.2676 25.1531 37.1641 22.918 C 35.0605 20.6828 32.3862 19.8733 30.4629 19.8633 C 28.5394 19.8571 27.2598 20.2167 26.3594 20.4102 C 25.459 20.604 24.0107 20.8002 23.0781 20.6387 C 22.1456 20.4772 21.6352 19.9322 20.8574 19.7773 C 20.0793 19.6235 18.7067 19.9085 18.5195 19.7285 C 18.4289 19.6415 18.4467 19.2538 18.2734 18.8867 C 18.088 18.494 17.7151 18.115 17.7891 17.8594 C 17.9317 17.3647 20.5749 15.6663 21.9824 14.7598 C 23.39 13.8534 25.7542 12.3208 26.8145 10.4766 C 27.875 8.63213 27.8394 5.59708 27.1348 4.68945 C 26.4303 3.78182 24.9185 4.35795 24.1719 5.23633 C 23.4253 6.11471 21.3835 7.5496 19.9316 8.92773 C 18.4797 10.306 16.4139 13.5181 15.875 13.2109 C 15.5886 13.0477 16.5083 10.4674 16.3633 9.32617 C 16.2413 8.36513 17.3783 6.46895 17.5605 5.09961 C 17.755 3.63885 17.0453 2.85579 16.1055 2.73828 z "
       d="M 16.248,1.60156 C 14.7586,1.41534 13.217,2.2429 12.2949,3.78125 11.2912,5.45593 11.3456,7.60807 11.2422,9.60352 11.1388,11.599 10.7987,13.3671 10.4414,13.7441 c -1.02084,1.0757 -2.34176,1.6934 -3.77929,2.5196 -0.3904,0.2243 -0.705,0.5132 -1.01953,0.8965 -0.31454,0.3832 -0.62991,0.841 -0.71094,1.5136 -0.16077,1.3346 0.34091,2.4964 0.375,2.7266 -0.0289,-0.1953 -0.008,-0.032 -0.082,0.1465 -0.0372,0.089 -0.0833,0.1871 -0.13086,0.2871 -0.0475,0.1 -0.0923,0.1573 -0.16211,0.3926 -0.18119,0.6104 -0.12328,1.0582 -0.11523,1.5859 0.008,0.5277 0.0151,1.0774 -0.0332,1.5273 -0.0471,0.4393 -0.16763,0.9105 -0.27734,1.3575 -0.0549,0.2234 -0.10904,0.4387 -0.14063,0.6875 -0.0316,0.2487 -0.10448,0.5563 0.15039,1.0371 a 1.14475,1.14475 0 0 0 0.29688,0.3574 c -0.002,-0 0.21064,0.2874 0.42969,0.7012 0.21904,0.4138 0.44163,0.9647 1.07812,1.4218 0.69039,0.4958 1.45396,0.8627 2.16016,1.1036 0.34292,0.1169 0.66892,0.2005 0.99023,0.25 0.4624,1.2676 1.2089,2.4811 2.2617,3.4589 1.087,1.0096 2.4488,1.6763 3.9063,1.8809 0.058,0.155 0.1001,0.308 0.1797,0.4551 -0.1371,0.086 -0.2651,0.1209 -0.4454,0.4492 -0.071,0.1298 -0.1647,0.3067 -0.1933,0.5859 -0.029,0.2793 0.053,0.5286 0.068,0.5743 0.03,0.091 8e-4,-0.1292 -0.012,0.033 a 1.14475,1.14475 0 0 0 0,0 c 0.017,-0.2206 0.021,-0.1065 -0.072,0.076 -0.093,0.1827 -0.2437,0.4579 -0.3653,0.8183 -0.243,0.7209 -0.2196,1.8904 0.5254,2.8418 0.5063,0.6467 1.2473,0.9155 1.8985,1.0079 0.6511,0.092 1.2778,0.041 1.8554,-0.033 0.5776,-0.075 1.1082,-0.18 1.4883,-0.2403 0.1004,-0.016 0.1457,-0.019 0.2188,-0.027 0.1193,0.1635 0.2816,0.4182 0.4765,0.6972 0.3898,0.5582 0.9038,1.346 1.9883,1.5684 1.1029,0.2261 1.9689,-0.1406 2.9922,-0.4336 1.0233,-0.293 2.092,-0.6169 2.7324,-0.7031 0.7688,-0.1035 1.6183,-0.1651 2.3594,-0.2344 0.3705,-0.035 0.7131,-0.072 1.0273,-0.123 0.3142,-0.051 0.5756,-0.079 0.9532,-0.2832 0.6833,-0.3703 1.5223,-1.0227 1.8515,-1.2657 0.5664,-0.4181 0.6502,-0.9108 0.7344,-1.1621 0.084,-0.2512 0.1348,-0.3487 0.1699,-0.3887 0.1806,-0.2054 0.4587,-0.4453 0.6856,-0.6367 0.1421,0.026 0.2821,0.1314 0.4277,0.1446 0.4864,0.044 0.9933,0.012 1.5039,-0.1407 v 0 c 0.5372,-0.1605 0.9317,-0.4388 1.3008,-0.7734 0.1784,-0.1618 0.263,-0.4846 0.416,-0.6915 0.9859,-0.3637 1.7607,-1.0819 2.3047,-1.9765 0.6388,-1.0505 1.0464,-2.2965 1.0683,-3.5449 a 1.14475,1.14475 0 0 0 0,-0.068 c -0.049,-1.1434 -0.6948,-1.9727 -1.4218,-2.6445 -0.3636,-0.3359 -0.7641,-0.6229 -1.2246,-0.8203 -0.072,-0.031 -0.1824,0.01 -0.2598,-0.02 0.014,-1.1157 0.014,-2.266 -0.3516,-3.6015 -0.4824,-1.7643 -1.2674,-3.5738 -2.5215,-4.9063 -2.3408,-2.4873 -5.2903,-3.4024 -7.5292,-3.414 a 1.14475,1.14475 0 0 0 -0,0 c -2.0678,-0.01 -3.5143,0.3931 -4.3477,0.5722 -0.8089,0.1741 -2.263,0.3216 -2.8457,0.2207 -0.2875,-0.05 -0.5128,-0.1558 -0.8398,-0.3242 -0.327,-0.1684 -0.7595,-0.4149 -1.3535,-0.5332 -0.6466,-0.1278 -1.2194,-0.063 -1.6856,-0.033 -0.01,5e-4 -0.01,-5e-4 -0.018,0 -0.03,-0.085 -0.024,-0.1291 -0.068,-0.2227 -0.07,-0.1484 -0.1113,-0.1926 -0.1758,-0.2968 0.2426,-0.1978 0.56,-0.4376 0.9356,-0.7012 0.8254,-0.5793 1.8288,-1.2241 2.5332,-1.6777 1.4109,-0.9086 3.9149,-2.4318 5.205,-4.6758 0.6683,-1.16225 0.9342,-2.52477 0.9747,-3.77737 0.04,-1.2526 -0.017,-2.34664 -0.7422,-3.28125 -0.6674,-0.85977 -1.8129,-1.0144 -2.6485,-0.80469 -0.8356,0.20971 -1.5515,0.67496 -2.0918,1.31055 -0.239,0.28121 -0.926,0.87638 -1.707,1.51367 -0.781,0.63729 -1.6709,1.3529 -2.4473,2.08985 a 1.14475,1.14475 0 0 0 -0,0 c -0.606,0.57528 -1.1838,1.3333 -1.7578,2.04884 0.033,-0.33014 0.1577,-0.61506 0.1132,-0.96486 0.01,0.0535 0.134,-0.65796 0.42,-1.4082 C 18.204,7.0232 18.5723,6.17477 18.6953,5.25 18.8201,4.31255 18.664,3.43792 18.2012,2.76562 17.7383,2.09333 16.9933,1.69475 16.248,1.60156 Z" /><path
       id="path4"
       style="color:#000000;overflow:visible;fill:none;stroke:#ef2929;stroke-width:0.999999;stroke-linecap:round;stroke-linejoin:round;stroke-dasharray:0.999999,1.999998;stroke-dashoffset:0"
       sodipodi:type="inkscape:offset"
       inkscape:radius="-1.50788"
       inkscape:original="M 16.1055 2.73828 C 15.1656 2.62077 13.9975 3.16756 13.2773 4.36914 C 11.8373 6.77183 13.0094 12.6971 11.2715 14.5312 C 10.0699 15.7973 8.60769 16.4655 7.23242 17.2559 C 6.83027 17.487 6.14336 18.1879 6.06836 18.8105 C 5.95745 19.7312 6.35535 20.6644 6.43945 21.2324 C 6.50646 21.6852 6.0884 22.3535 6.0293 22.5527 C 5.86961 23.0907 6.04069 24.3553 5.92188 25.4629 C 5.80307 26.5704 5.35797 27.5672 5.52734 27.8867 C 6.11715 28.3591 6.38535 29.5397 6.98828 29.9727 C 8.14265 30.8016 9.71849 31.2941 10.2227 31.1211 C 10.7405 33.6791 13.7277 36.7372 16.4668 36.6367 C 16.6006 37.4259 17.0064 38.1195 17.6699 38.2852 C 17.6699 38.2852 16.5308 38.7707 16.377 39.0508 C 16.2232 39.331 16.421 39.2079 16.377 39.7812 C 16.3335 40.3545 15.154 41.3595 16.2246 42.7266 C 17.2951 44.0939 20.6932 42.7169 21.2676 43.0137 C 21.8419 43.3107 22.4428 45.0704 23.4805 45.2832 C 24.5182 45.4959 27.1858 44.3531 28.8223 44.1328 C 30.4588 43.9125 32.2829 43.8847 32.7695 43.6211 C 33.2562 43.3574 34.1456 42.691 34.4863 42.4395 C 34.827 42.188 34.783 41.5414 35.2109 41.0547 C 35.6389 40.5678 35.957 40.425 36.4336 39.916 C 36.8116 40.1948 37.6881 40.2827 38.3594 40.082 C 38.9057 39.9188 39.6568 39.2647 39.7148 38.8262 C 41.2382 38.5477 42.5978 36.1662 42.6328 34.1738 C 42.5809 32.9601 40.7982 31.2954 39.8535 31.623 C 40.1678 29.5746 39.2676 25.1531 37.1641 22.918 C 35.0605 20.6828 32.3862 19.8733 30.4629 19.8633 C 28.5394 19.8571 27.2598 20.2167 26.3594 20.4102 C 25.459 20.604 24.0107 20.8002 23.0781 20.6387 C 22.1456 20.4772 21.6352 19.9322 20.8574 19.7773 C 20.0793 19.6235 18.7067 19.9085 18.5195 19.7285 C 18.4289 19.6415 18.4467 19.2538 18.2734 18.8867 C 18.088 18.494 17.7151 18.115 17.7891 17.8594 C 17.9317 17.3647 20.5749 15.6663 21.9824 14.7598 C 23.39 13.8534 25.7542 12.3208 26.8145 10.4766 C 27.875 8.63213 27.8394 5.59708 27.1348 4.68945 C 26.4303 3.78182 24.9185 4.35795 24.1719 5.23633 C 23.4253 6.11471 21.3835 7.5496 19.9316 8.92773 C 18.4797 10.306 16.4139 13.5181 15.875 13.2109 C 15.5886 13.0477 16.5083 10.4674 16.3633 9.32617 C 16.2413 8.36513 17.3783 6.46895 17.5605 5.09961 C 17.755 3.63885 17.0453 2.85579 16.1055 2.73828 z "
       d="m 15.918,4.23437 c -0.216,-0.027 -0.8934,0.15223 -1.3477,0.91016 -0.3463,0.5778 -0.5725,2.56637 -0.6777,4.59766 -0.1053,2.03131 0.016,4.19781 -1.5274,5.82621 -1.4397,1.517 -3.08757,2.2508 -4.38083,2.9941 0.0483,-0.028 -0.16919,0.1328 -0.29101,0.2813 -0.12182,0.1484 -0.14875,0.3111 -0.12891,0.1464 -0.0452,0.3755 0.21721,1.0086 0.36719,2.0215 0.11571,0.7819 -0.11591,1.214 -0.25781,1.5547 -0.0709,0.1704 -0.13856,0.3115 -0.1836,0.4063 -0.045,0.095 -0.0733,0.2042 -0.0156,0.01 0.0537,-0.1808 -0.0137,0.275 -0.006,0.7891 0.008,0.5141 0.0272,1.1609 -0.0469,1.8515 -0.0756,0.7047 -0.2431,1.305 -0.34179,1.7071 -0.0211,0.086 -0.0215,0.1029 -0.0352,0.166 0.15832,0.2546 0.43799,0.5475 0.54102,0.7422 0.21232,0.4011 0.42114,0.6102 0.28125,0.5097 0.42806,0.3074 1.00568,0.5901 1.46875,0.7481 0.23153,0.079 0.43764,0.1259 0.55078,0.1426 0.11313,0.017 0.15548,-0.05 -0.1543,0.057 a 1.50803,1.50803 0 0 1 1.96878,1.127 c 0.1702,0.8408 0.8843,2.0653 1.8359,2.9492 0.9517,0.8838 2.0856,1.3864 2.875,1.3574 a 1.50803,1.50803 0 0 1 1.541,1.2559 c 0.074,0.4373 0.238,0.4764 0.082,0.4375 a 1.50803,1.50803 0 0 1 0.2265,2.8496 c 0,0 -0.2009,0.094 -0.3847,0.1836 -9e-4,0.018 0.01,0.023 0,0.041 -0.048,0.6205 -0.2447,0.8645 -0.3536,1.0781 -0.109,0.214 -0.182,0.3656 -0.2148,0.4629 -0.066,0.1946 -0.1594,0.029 0.1,0.3594 -0.047,-0.06 -0.066,-0.018 0.1836,0.018 0.2501,0.035 0.6809,0.02 1.1426,-0.039 0.4616,-0.06 0.9506,-0.155 1.414,-0.2285 0.2318,-0.037 0.4539,-0.071 0.711,-0.082 0.2571,-0.011 0.5433,-0.076 1.0957,0.209 a 1.50803,1.50803 0 0 1 0,0 c 0.588,0.3041 0.7687,0.629 0.9668,0.9004 0.1981,0.2714 0.359,0.5263 0.5098,0.7422 0.3016,0.4319 0.572,0.5366 0.3457,0.4902 -0.2505,-0.051 0.7565,-0.1084 1.7285,-0.3867 0.972,-0.2783 2.0568,-0.6395 3.1094,-0.7812 0.8833,-0.1189 1.7694,-0.1811 2.4648,-0.2461 0.3478,-0.032 0.6495,-0.067 0.8496,-0.1 0.2002,-0.033 0.3308,-0.1148 0.1153,0 0.2276,-0.1233 1.1832,-0.8057 1.539,-1.0683 -0.3513,0.2593 -0.2893,0.3863 -0.2031,0.1289 0.086,-0.2575 0.2419,-0.7856 0.6914,-1.2969 0.5761,-0.6554 0.91,-0.8065 1.2539,-1.1738 a 1.50803,1.50803 0 0 1 1.9961,-0.1817 c -0.1981,-0.1461 -0.077,-0.041 0.094,-0.025 0.1709,0.015 0.4006,-0.01 0.5058,-0.041 -0.075,0.022 0.1553,-0.085 0.2793,-0.1972 0.124,-0.1125 0.083,-0.3336 0.014,0.1894 a 1.50803,1.50803 0 0 1 1.2227,-1.2851 c 0.092,-0.017 0.6024,-0.3308 1,-0.9844 0.3862,-0.6352 0.6365,-1.493 0.6621,-2.1504 -0.011,0.05 -0.2004,-0.4575 -0.5508,-0.7813 -0.1819,-0.168 -0.3803,-0.2913 -0.4707,-0.33 -0.09,-0.039 -0.012,0.045 0.2637,-0.051 a 1.50803,1.50803 0 0 1 -1.9844,-1.6524 c 0.1,-0.6501 0,-2.1781 -0.4024,-3.6562 -0.4042,-1.4782 -1.1093,-2.9528 -1.8945,-3.7871 -1.7898,-1.9018 -4.0999,-2.5714 -5.6074,-2.5801 h -0 c -1.7303,-0 -2.7916,0.3014 -3.7793,0.5137 -1.0209,0.2197 -2.462,0.4815 -3.8555,0.2402 -0.7017,-0.1215 -1.2413,-0.3926 -1.6015,-0.5781 -0.3594,-0.1851 -0.5357,-0.2672 -0.6543,-0.291 h -0 c -0.051,-0.01 -0.5402,-0.018 -1,0.012 -0.2304,0.015 -0.4581,0.033 -0.7168,0.031 -0.1293,-7e-4 -0.2637,-0 -0.457,-0.037 -0.1934,-0.033 -0.4872,-0.037 -0.9141,-0.4472 -0.4416,-0.4251 -0.4311,-0.6838 -0.4687,-0.8321 -0.038,-0.1485 -0.049,-0.23 -0.061,-0.2949 -0.024,-0.1298 -0.044,-0.176 -0.035,-0.1562 -0.01,-0.013 -0.1089,-0.1698 -0.2637,-0.4239 -0.1547,-0.2538 -0.5857,-0.6989 -0.3067,-1.666 v -0 c 0.1576,-0.5448 0.3505,-0.6742 0.5079,-0.8438 0.1576,-0.1699 0.3156,-0.3107 0.4902,-0.457 0.3492,-0.2927 0.7606,-0.5949 1.207,-0.9082 0.893,-0.6267 1.9182,-1.2856 2.6211,-1.7383 1.4033,-0.9036 3.5843,-2.4501 4.3418,-3.76759 0.3485,-0.60609 0.5919,-1.63561 0.6211,-2.54102 0.026,-0.79734 -0.194,-1.338 -0.1641,-1.38281 -0.2032,0.0743 -0.5064,0.24971 -0.6445,0.41211 -0.5502,0.64731 -1.2599,1.20422 -2.0508,1.84961 -0.7905,0.64507 -1.6394,1.33325 -2.2988,1.959 -0.5607,0.5323 -1.4533,1.667 -2.2422,2.6328 -0.3944,0.4829 -0.7621,0.9256 -1.1543,1.3008 -0.196,0.1875 -0.3851,0.3629 -0.7012,0.5371 -0.316,0.1742 -1.0056,0.4503 -1.7441,0.029 -0.4646,-0.2647 -0.6533,-0.6678 -0.7305,-0.9082 -0.077,-0.2405 -0.082,-0.3944 -0.086,-0.5254 -0.01,-0.262 0.02,-0.4373 0.049,-0.6231 0.057,-0.3714 0.1456,-0.7515 0.2324,-1.1503 0.1738,-0.7978 0.2778,-1.76467 0.2735,-1.79888 -0.1503,-1.18399 0.2729,-1.90226 0.5723,-2.6875 0.2993,-0.78523 0.5779,-1.55936 0.6269,-1.92773 0.061,-0.45759 -0.033,-0.60567 -0.051,-0.63086 -0.017,-0.0252 0.01,-0.0218 -0.098,-0.0352 z M 6.4707,26.709 c 0.25397,0.2034 0.26313,0.3655 0.41211,0.5664 -0.0231,-0.06 0.0187,-0.016 -0.0234,-0.096 z" /></g></svg>
