<?xml version="1.0" encoding="UTF-8" standalone="no"?>
<svg
   viewBox="0 0 48 48"
   version="1.1"
   id="svg4284"
   sodipodi:docname="slopedir.svg"
   inkscape:version="1.3.2 (091e20e, 2023-11-25, custom)"
   xmlns:inkscape="http://www.inkscape.org/namespaces/inkscape"
   xmlns:sodipodi="http://sodipodi.sourceforge.net/DTD/sodipodi-0.dtd"
   xmlns:xlink="http://www.w3.org/1999/xlink"
   xmlns="http://www.w3.org/2000/svg"
   xmlns:svg="http://www.w3.org/2000/svg"
   xmlns:rdf="http://www.w3.org/1999/02/22-rdf-syntax-ns#"
   xmlns:cc="http://creativecommons.org/ns#"
   xmlns:dc="http://purl.org/dc/elements/1.1/">
  <metadata
     id="metadata4288">
    <rdf:RDF>
      <cc:Work
         rdf:about="">
        <dc:format>image/svg+xml</dc:format>
        <dc:type
           rdf:resource="http://purl.org/dc/dcmitype/StillImage" />
        <dc:title>14-Snow</dc:title>
      </cc:Work>
    </rdf:RDF>
  </metadata>
  <sodipodi:namedview
     pagecolor="#ffffff"
     bordercolor="#666666"
     borderopacity="1"
     objecttolerance="10"
     gridtolerance="10"
     guidetolerance="10"
     inkscape:pageopacity="0"
     inkscape:pageshadow="2"
     inkscape:window-width="2560"
     inkscape:window-height="1377"
     id="namedview4286"
     showgrid="false"
     inkscape:snap-global="false"
     inkscape:zoom="15.3125"
     inkscape:cx="24.098"
     inkscape:cy="23.9673"
     inkscape:window-x="-8"
     inkscape:window-y="-8"
     inkscape:window-maximized="1"
     inkscape:current-layer="svg4284"
     inkscape:showpageshadow="2"
     inkscape:pagecheckerboard="0"
     inkscape:deskcolor="#d1d1d1" />
  <defs
     id="defs4062">
    <linearGradient
       id="linearGradient3"
       inkscape:collect="always">
      <stop
         style="stop-color:#b4e287;stop-opacity:1;"
         offset="0"
         id="stop3" />
      <stop
         style="stop-color:#8ae234;stop-opacity:1;"
         offset="1"
         id="stop4" />
    </linearGradient>
    <linearGradient
       id="linearGradient1"
       inkscape:collect="always">
      <stop
         style="stop-color:#efb329;stop-opacity:1;"
         offset="0"
         id="stop1" />
      <stop
         style="stop-color:#ef2929;stop-opacity:1;"
         offset="1"
         id="stop2" />
    </linearGradient>
    <style
       id="style3967">.cls-1,.cls-18,.cls-21,.cls-22,.cls-23,.cls-29,.cls-33,.cls-35,.cls-55,.cls-57,.cls-58,.cls-59,.cls-60,.cls-9{fill:none;}.cls-2{isolation:isolate;}.cls-3{fill:url(#radial-gradient);}.cls-4{fill:#fff;}.cls-5{fill:url(#linear-gradient);}.cls-6{fill:url(#linear-gradient-4);}.cls-7{clip-path:url(#clip-path);}.cls-8{fill:#d0dfef;}.cls-9{stroke:#d0dfef;stroke-width:0.26px;}.cls-18,.cls-21,.cls-22,.cls-23,.cls-55,.cls-57,.cls-58,.cls-59,.cls-60,.cls-9{stroke-miterlimit:10;}.cls-10{fill:url(#linear-gradient-5);}.cls-11{fill:url(#linear-gradient-6);}.cls-12{fill:url(#linear-gradient-7);}.cls-13{fill:url(#linear-gradient-8);}.cls-14{fill:#afc8e0;}.cls-15,.cls-16{fill:#c4d7eb;}.cls-15{opacity:0.56;}.cls-17{fill:url(#linear-gradient-9);}.cls-18{stroke:#97b4cc;stroke-width:0.7px;}.cls-19{fill:#fff4cf;}.cls-20{fill:url(#linear-gradient-10);}.cls-21,.cls-22,.cls-23,.cls-29,.cls-33,.cls-35,.cls-57,.cls-58,.cls-59,.cls-60{stroke-width:0.35px;}.cls-21{stroke:url(#linear-gradient-11);}.cls-22{stroke:url(#linear-gradient-12);}.cls-23{stroke:url(#linear-gradient-13);}.cls-24{fill:#ef2929;}.cls-25{fill:url(#linear-gradient-14);}.cls-26{fill:url(#linear-gradient-15);}.cls-27{clip-path:url(#clip-path-2);}.cls-28{mix-blend-mode:multiply;fill:url(#linear-gradient-16);}.cls-29{stroke:#997e3a;}.cls-29,.cls-33,.cls-35{stroke-linecap:round;stroke-linejoin:round;}.cls-30{fill:#204a87;}.cls-31{fill:url(#linear-gradient-17);}.cls-32{fill:url(#linear-gradient-18);}.cls-33{stroke:#729fcf;}.cls-34{fill:url(#linear-gradient-19);}.cls-35{stroke:#ef2929;}.cls-36{fill:url(#linear-gradient-20);}.cls-37{fill:url(#linear-gradient-21);}.cls-38{fill:url(#linear-gradient-22);}.cls-39{fill:url(#linear-gradient-23);}.cls-40{fill:url(#linear-gradient-24);}.cls-41{fill:url(#linear-gradient-25);}.cls-42{fill:url(#linear-gradient-26);}.cls-43{fill:url(#linear-gradient-27);}.cls-44{fill:url(#linear-gradient-28);}.cls-45{fill:url(#linear-gradient-29);}.cls-46{fill:url(#linear-gradient-30);}.cls-47{fill:url(#linear-gradient-31);}.cls-48{fill:url(#linear-gradient-32);}.cls-49{fill:url(#linear-gradient-33);}.cls-50{fill:url(#linear-gradient-34);}.cls-51{fill:url(#linear-gradient-35);}.cls-52{fill:url(#linear-gradient-36);}.cls-53{fill:url(#linear-gradient-37);}.cls-54{fill:url(#linear-gradient-38);}.cls-55{stroke:#204a87;stroke-width:0.38px;}.cls-56{fill:url(#linear-gradient-39);}.cls-57{stroke:url(#linear-gradient-40);}.cls-58{stroke:url(#linear-gradient-41);}.cls-59{stroke:url(#linear-gradient-42);}.cls-60{stroke:url(#linear-gradient-43);}.cls-61{fill:url(#linear-gradient-44);}</style>
    <radialGradient
       id="radial-gradient"
       cx="24.39"
       cy="98.62"
       r="19.95"
       gradientTransform="matrix(1.19,0,0,0.47,-5,-13.94)"
       gradientUnits="userSpaceOnUse">
      <stop
         offset="0.22"
         stop-color="#2c2c2c"
         stop-opacity="0.5"
         id="stop3969" />
      <stop
         offset="0.71"
         stop-color="#2c2c2c"
         stop-opacity="0.1"
         id="stop3971" />
      <stop
         offset="0.95"
         stop-color="#2c2c2c"
         stop-opacity="0"
         id="stop3973" />
    </radialGradient>
    <linearGradient
       id="linear-gradient"
       x1="19.23"
       y1="29.21"
       x2="43.31"
       y2="29.21"
       gradientUnits="userSpaceOnUse">
      <stop
         offset="0"
         stop-color="#fff"
         stop-opacity="0"
         id="stop3976" />
      <stop
         offset="1"
         stop-color="#d0dfef"
         id="stop3978" />
      <stop
         offset="1"
         stop-color="snow"
         id="stop3980" />
    </linearGradient>
    <linearGradient
       id="linear-gradient-4"
       x1="15.57"
       y1="31.05"
       x2="16.86"
       y2="24.35"
       xlink:href="#linear-gradient"
       gradientTransform="matrix(1.2614973,0,0,1.2623219,-6.9728041,-5.4607307)" />
    <clipPath
       id="clip-path">
      <path
         class="cls-1"
         d="M43.32,32.36c-.11.45-.52.62-1.55.82-.53.11-1.93.28-3.24.54s-2.43.58-2.65,1,0,.79-.07,1.27-.68.83-2.33.91-3.88-.31-6,0l-.35.06a6.61,6.61,0,0,0-2.72,1.24,2.75,2.75,0,0,1-2.2-.12,6.8,6.8,0,0,0-2.48-.25A10.2,10.2,0,0,0,18.3,38l-.31.07a2.69,2.69,0,0,0-.76.27,5.91,5.91,0,0,1-2.54,1.09c-.76,0-.92-.83-1.43-1.09a3.65,3.65,0,0,0-2.41-.58c-.34,0-.68,0-1,0s-.65.1-.8-.2a1.44,1.44,0,0,1-.08-.46c-.1-.5-.81-.73-1.25-.73a3.47,3.47,0,0,1-1-.15l-.13-.05-.11,0c-.21-.13-.29-.26-.16-.41a14,14,0,0,0,2.37-2.1c.28-.37.92-1.22.27-1.5C8.61,32,8.32,32,8,31.88a10.11,10.11,0,0,0-1.22-.37c-.31-.08-.81-.15-.69-.61A2.14,2.14,0,0,1,7.9,29.77a7.1,7.1,0,0,0,4.47-2.85c1.6-2.06,3-3.7,4-4.79l.46-.49c.14-.14.29-.29.45-.43a12,12,0,0,1,1.18-1,4.15,4.15,0,0,1,.43-.3c.12-.09.25-.17.38-.25s.33-.2.51-.29c0,0,0,0,0,0a4.07,4.07,0,0,1,.55-.28,2.26,2.26,0,0,1,.35-.17l.67-.28.41-.13a1.91,1.91,0,0,1,.34-.1,9.91,9.91,0,0,1,1.77-.35l.38,0c.15,0,.32,0,.48,0,.42,0,.84,0,1.25,0s.78.06,1.17.1c.59.08,1.16.19,1.69.31l.54.16.56.18.08,0,.52.21.31.14a7.47,7.47,0,0,1,1.15.65l.32.25.22.19a1.52,1.52,0,0,1,.26.25,1.22,1.22,0,0,1,.15.17,1.46,1.46,0,0,1,.16.19l.19.27c1.14,1.85,3,5.25,4,6s1.92.44,2.62,1.72,1.41,2.26,2.12,2.26S43.44,31.92,43.32,32.36Z"
         id="path3984" />
    </clipPath>
    <linearGradient
       id="linear-gradient-5"
       x1="15.6"
       y1="38.87"
       x2="15.79"
       y2="30.69"
       xlink:href="#linear-gradient"
       gradientTransform="matrix(1.2614973,0,0,1.2623219,-6.9728041,-5.4607307)" />
    <linearGradient
       id="linear-gradient-6"
       x1="28.12"
       y1="34.11"
       x2="31"
       y2="24.47"
       gradientTransform="matrix(1.2553471,-0.12449656,0.12441523,1.2561677,-10.139162,-1.5727792)"
       xlink:href="#linear-gradient" />
    <linearGradient
       id="linear-gradient-7"
       x1="33.61"
       y1="32.15"
       x2="31.59"
       y2="27.44"
       xlink:href="#linear-gradient"
       gradientTransform="matrix(1.2614973,0,0,1.2623219,-6.9728041,-5.4607307)" />
    <linearGradient
       id="linear-gradient-8"
       x1="17.32"
       y1="26.57"
       x2="13.36"
       y2="23.63"
       xlink:href="#linear-gradient"
       gradientTransform="matrix(1.2614973,0,0,1.2623219,-6.9728041,-5.4607307)" />
    <linearGradient
       id="linear-gradient-9"
       x1="21.797075"
       y1="25.896723"
       x2="30.081768"
       y2="19.446119"
       gradientUnits="userSpaceOnUse"
       gradientTransform="matrix(1.2614973,0,0,1.2623219,-6.9728041,-5.4607307)">
      <stop
         offset="0"
         stop-color="#afc8e0"
         stop-opacity="0.3"
         id="stop3991" />
      <stop
         offset="0.22"
         stop-color="#afc8e0"
         id="stop3993" />
      <stop
         offset="1"
         stop-color="#9ab6cc"
         id="stop3995" />
      <stop
         offset="1"
         id="stop3997" />
    </linearGradient>
    <linearGradient
       id="linear-gradient-10"
       x1="29.77"
       y1="11.26"
       x2="22.61"
       y2="27.72"
       gradientUnits="userSpaceOnUse">
      <stop
         offset="0"
         stop-color="#ccae87"
         stop-opacity="0"
         id="stop4000" />
      <stop
         offset="1"
         stop-color="#99723a"
         id="stop4002" />
    </linearGradient>
    <linearGradient
       id="linear-gradient-11"
       x1="18.8"
       y1="17.81"
       x2="30.8"
       y2="17.81"
       xlink:href="#linear-gradient-10"
       gradientTransform="matrix(1.2615,0,0,1.26232,34.7578,-3.50155)" />
    <linearGradient
       id="linear-gradient-12"
       x1="19.86"
       y1="19.02"
       x2="33.44"
       y2="19.02"
       xlink:href="#linear-gradient-10"
       gradientTransform="matrix(1.2615,0,0,1.26232,34.7578,-3.50155)" />
    <linearGradient
       id="linear-gradient-13"
       x1="19.26"
       y1="18.47"
       x2="32.04"
       y2="18.47"
       xlink:href="#linear-gradient-10"
       gradientTransform="matrix(1.2615,0,0,1.26232,34.7578,-3.50155)" />
    <linearGradient
       id="linear-gradient-14"
       x1="33.42"
       y1="13.79"
       x2="23.35"
       y2="8.17"
       gradientUnits="userSpaceOnUse">
      <stop
         offset="0"
         stop-color="#fff"
         stop-opacity="0"
         id="stop4008" />
      <stop
         offset="1"
         stop-color="snow"
         id="stop4010" />
    </linearGradient>
    <linearGradient
       id="linear-gradient-15"
       x1="31.27"
       y1="17.65"
       x2="21.19"
       y2="12.04"
       xlink:href="#linear-gradient-14" />
    <clipPath
       id="clip-path-2">
      <path
         class="cls-1"
         d="M34.9,13.43,23.4,24.88a2.67,2.67,0,0,1-2.91.59l-.24-.12a3.12,3.12,0,0,1-.45-.29l-.19-.18c-.08-.08-.15-.17-.22-.25a2,2,0,0,1-.18-.26l-.12-.22C19,24,19,23.91,19,23.79s-.05-.19-.08-.3,0-.21,0-.3,0-.21,0-.31a1.48,1.48,0,0,1,0-.31,2.18,2.18,0,0,1,.11-.44L29.56,11.57Z"
         id="path4014" />
    </clipPath>
    <linearGradient
       id="linear-gradient-16"
       x1="29.82"
       y1="15.73"
       x2="18.98"
       y2="24.74"
       gradientUnits="userSpaceOnUse">
      <stop
         offset="0"
         stop-color="#888a85"
         stop-opacity="0"
         id="stop4017" />
      <stop
         offset="1"
         stop-color="#555753"
         id="stop4019" />
    </linearGradient>
    <linearGradient
       id="linear-gradient-17"
       x1="18.54"
       y1="13.72"
       x2="19.49"
       y2="14.05"
       gradientUnits="userSpaceOnUse">
      <stop
         offset="0"
         stop-color="#00255d"
         stop-opacity="0"
         id="stop4022" />
      <stop
         offset="1"
         stop-color="#00255d"
         id="stop4024" />
    </linearGradient>
    <linearGradient
       id="linear-gradient-18"
       x1="18.7"
       y1="14.25"
       x2="20"
       y2="14.25"
       gradientUnits="userSpaceOnUse">
      <stop
         offset="0"
         stop-color="#00255d"
         stop-opacity="0"
         id="stop4027" />
      <stop
         offset="1"
         id="stop4029" />
    </linearGradient>
    <linearGradient
       id="linear-gradient-19"
       x1="17.71"
       y1="16.37"
       x2="20.05"
       y2="16.37"
       xlink:href="#linear-gradient-17"
       gradientTransform="matrix(1.2615,0,0,1.26232,34.7578,-3.50155)" />
    <linearGradient
       id="linear-gradient-20"
       x1="19.2"
       y1="13.98"
       x2="18.91"
       y2="16.38"
       gradientUnits="userSpaceOnUse">
      <stop
         offset="0"
         stop-color="#b2cbe5"
         id="stop4033" />
      <stop
         offset="1"
         stop-color="#3465a4"
         id="stop4035" />
    </linearGradient>
    <linearGradient
       id="linear-gradient-21"
       x1="18.95"
       y1="14.98"
       x2="18.81"
       y2="16.46"
       xlink:href="#linear-gradient-17"
       gradientTransform="matrix(1.2615,0,0,1.26232,34.7578,-3.50155)" />
    <linearGradient
       id="linear-gradient-22"
       x1="18.8"
       y1="19.26"
       x2="19.59"
       y2="19.93"
       xlink:href="#linear-gradient-17"
       gradientTransform="matrix(1.2615,0,0,1.26232,34.7578,-3.50155)" />
    <linearGradient
       id="linear-gradient-23"
       x1="19.62"
       y1="18.64"
       x2="20.36"
       y2="19.3"
       xlink:href="#linear-gradient-18"
       gradientTransform="matrix(1.2615,0,0,1.26232,34.7578,-3.50155)" />
    <linearGradient
       id="linear-gradient-24"
       x1="25.84"
       y1="18.81"
       x2="24.48"
       y2="21.25"
       xlink:href="#linear-gradient-20"
       gradientTransform="matrix(1.2615,0,0,1.26232,34.7578,-3.50155)" />
    <linearGradient
       id="linear-gradient-25"
       x1="25.74"
       y1="20.22"
       x2="22.03"
       y2="17.47"
       xlink:href="#linear-gradient-20"
       gradientTransform="matrix(1.2615,0,0,1.26232,34.7578,-3.50155)" />
    <linearGradient
       id="linear-gradient-26"
       x1="24.86"
       y1="21.08"
       x2="23.87"
       y2="20.24"
       xlink:href="#linear-gradient-18"
       gradientTransform="matrix(1.2615,0,0,1.26232,34.7578,-3.50155)" />
    <linearGradient
       id="linear-gradient-27"
       x1="20.63"
       y1="20.26"
       x2="22.98"
       y2="22.66"
       xlink:href="#linear-gradient-17"
       gradientTransform="matrix(1.2615,0,0,1.26232,34.7578,-3.50155)" />
    <linearGradient
       id="linear-gradient-28"
       x1="20.31"
       y1="21.18"
       x2="24.54"
       y2="23.31"
       xlink:href="#linear-gradient-18"
       gradientTransform="matrix(1.2615,0,0,1.26232,34.7578,-3.50155)" />
    <linearGradient
       id="linear-gradient-29"
       x1="22.92"
       y1="23.17"
       x2="22.09"
       y2="22.33"
       xlink:href="#linear-gradient-18"
       gradientTransform="matrix(1.2615,0,0,1.26232,34.7578,-3.50155)" />
    <linearGradient
       id="linear-gradient-30"
       x1="22.26"
       y1="12.59"
       x2="22.22"
       y2="15.44"
       xlink:href="#linear-gradient-17"
       gradientTransform="matrix(1.2615,0,0,1.26232,34.7578,-3.50155)" />
    <linearGradient
       id="linear-gradient-31"
       x1="21.39"
       y1="12"
       x2="20.16"
       y2="11.9"
       xlink:href="#linear-gradient-17"
       gradientTransform="matrix(1.2615,0,0,1.26232,34.7578,-3.50155)" />
    <linearGradient
       id="linear-gradient-32"
       x1="23.47"
       y1="14.42"
       x2="25.56"
       y2="14.42"
       xlink:href="#linear-gradient-17"
       gradientTransform="matrix(1.2615,0,0,1.26232,34.7578,-3.50155)" />
    <linearGradient
       id="linear-gradient-33"
       x1="23.83"
       y1="16.28"
       x2="23.29"
       y2="17.54"
       xlink:href="#linear-gradient-17"
       gradientTransform="matrix(1.2615,0,0,1.26232,34.7578,-3.50155)" />
    <linearGradient
       id="linear-gradient-34"
       x1="21.44"
       y1="14.25"
       x2="21.15"
       y2="16.65"
       xlink:href="#linear-gradient-20"
       gradientTransform="matrix(1.2615,0,0,1.26232,34.7578,-3.50155)" />
    <linearGradient
       id="linear-gradient-35"
       x1="21.29"
       y1="15.21"
       x2="21.1"
       y2="16.87"
       xlink:href="#linear-gradient-17"
       gradientTransform="matrix(1.2615,0,0,1.26232,34.7578,-3.50155)" />
    <linearGradient
       id="linear-gradient-36"
       x1="59.6"
       y1="-12.26"
       x2="63.66"
       y2="-11.79"
       gradientTransform="matrix(1.0557,-0.691017,0.690565,1.05639,2.82931,65.0173)"
       xlink:href="#linear-gradient-20" />
    <linearGradient
       id="linear-gradient-37"
       x1="20.74"
       y1="12.21"
       x2="18.9"
       y2="11"
       xlink:href="#linear-gradient-20"
       gradientTransform="matrix(1.2615,0,0,1.26232,34.7578,-3.50155)" />
    <linearGradient
       id="linear-gradient-38"
       x1="18.66"
       y1="8.99"
       x2="18.97"
       y2="11.66"
       gradientTransform="matrix(1.25468,0.131072,-0.130986,1.2555,36.3221,-6.05144)"
       xlink:href="#linear-gradient-17" />
    <linearGradient
       id="linear-gradient-39"
       x1="18.1"
       y1="19.66"
       x2="16.18"
       y2="25.62"
       xlink:href="#linear-gradient-10"
       gradientTransform="matrix(1.2615,0,0,1.26232,34.7578,-3.50155)" />
    <linearGradient
       id="linear-gradient-40"
       x1="17.07"
       y1="22.36"
       x2="21.18"
       y2="22.36"
       xlink:href="#linear-gradient-10"
       gradientTransform="matrix(1.2615,0,0,1.26232,34.7578,-3.50155)" />
    <linearGradient
       id="linear-gradient-41"
       x1="14.43"
       y1="21.38"
       x2="18.2"
       y2="21.38"
       xlink:href="#linear-gradient-10"
       gradientTransform="matrix(1.2615,0,0,1.26232,34.7578,-3.50155)" />
    <linearGradient
       id="linear-gradient-42"
       x1="13.32"
       y1="20.97"
       x2="16.96"
       y2="20.97"
       xlink:href="#linear-gradient-10"
       gradientTransform="matrix(1.2615,0,0,1.26232,34.7578,-3.50155)" />
    <linearGradient
       id="linear-gradient-43"
       x1="15.67"
       y1="21.84"
       x2="19.6"
       y2="21.84"
       xlink:href="#linear-gradient-10"
       gradientTransform="matrix(1.2615,0,0,1.26232,34.7578,-3.50155)" />
    <linearGradient
       id="linear-gradient-44"
       x1="21"
       y1="21.32"
       x2="12.72"
       y2="16.14"
       xlink:href="#linear-gradient-14" />
    <radialGradient
       inkscape:collect="always"
       xlink:href="#linearGradient1"
       id="radialGradient2"
       cx="20.1568"
       cy="14.791"
       fx="20.1568"
       fy="14.791"
       r="13.2221"
       gradientTransform="matrix(-1.27962,2.14259,-1.09125,-0.651266,63.2709,-22.9279)"
       gradientUnits="userSpaceOnUse" />
    <radialGradient
       inkscape:collect="always"
       xlink:href="#linearGradient3"
       id="radialGradient4"
       cx="24.3743"
       cy="5.0142"
       fx="24.3743"
       fy="5.0142"
       r="23.5029"
       gradientTransform="matrix(-0.9996,-0.028264,0.030565,-1.08097,48.5856,16.7547)"
       gradientUnits="userSpaceOnUse" />
  </defs>
  <title
     id="title4064">14-Snow</title>
  <g
     id="g5"
     transform="matrix(0.956487,0,0,0.956487,2.09611,1.93539)"
     style="stroke-width:1.04549">
    <g
       id="shadow"
       style="isolation:isolate;stroke-width:0.90685"
       transform="matrix(1.056,0,0,1.25863,-1.11154,-8.35898)">
      <ellipse
         class="cls-3"
         cx="23.93"
         cy="32.85"
         rx="22.74"
         ry="9.13"
         id="ellipse4066"
         style="fill:url(#radial-gradient);stroke-width:0.90685" />
    </g>
    <path
       class="cls-4"
       d="m 47.6753,29.1672 c -0.1388,0.6904 -0.656,0.9511 -1.9554,1.2579 -0.6686,0.1687 -2.4347,0.4295 -4.0872,0.8283 -1.6526,0.3989 -3.0655,0.8897 -3.343,1.5339 -0.2775,0.6444 0,1.2119 -0.088,1.9481 -0.088,0.7363 -0.8578,1.2732 -2.9393,1.3959 -2.0814,0.1228 -4.8946,-0.4755 -7.569,0 l -0.4415,0.092 a 8.3385,10.1394 0 0 0 -3.4312,1.9022 3.46912,4.21836 0 0 1 -2.7753,-0.1842 8.57818,10.4309 0 0 0 -3.1286,-0.3835 12.8673,15.6463 0 0 0 -1.8039,0.2609 l -0.3911,0.1069 a 3.39343,4.12633 0 0 0 -0.9587,0.4141 7.45545,9.06561 0 0 1 -3.2042,1.672 c -0.9587,0 -1.1606,-1.2732 -1.80394,-1.672 A 4.60447,5.5989 0 0 0 6.71444,37.4505 c -0.42891,0 -0.85782,0 -1.2615,0 -0.40367,0 -0.81997,0.1535 -1.00919,-0.3067 A 1.81656,2.20888 0 0 1 4.34283,36.4381 C 4.21668,35.6712 3.32101,35.3183 2.76596,35.3183 a 4.3774,5.3228 0 0 1 -1.2615,-0.23 l -0.164,-0.077 H 1.2017 C 0.936784,34.8122 0.835864,34.6127 0.999859,34.3827 A 17.661,21.4753 0 0 0 3.98961,31.1613 C 4.34283,30.5938 5.15018,29.2899 4.33021,28.8604 3.88869,28.615 3.52285,28.615 3.11917,28.4309 A 12.7537,15.5082 0 0 0 1.58015,27.8634 C 1.18908,27.7406 0.558335,27.6333 0.709714,26.9276 A 2.6996,3.28265 0 0 1 2.99302,25.1943 8.95663,10.891 0 0 0 8.63192,20.8226 C 10.6503,17.6627 12.4164,15.1469 13.6779,13.475 l 0.5803,-0.7517 c 0.1766,-0.2148 0.3658,-0.4449 0.5677,-0.6596 a 15.138,18.4074 0 0 1 1.4885,-1.5339 5.23521,6.36589 0 0 1 0.5425,-0.4602 c 0.1514,-0.13805 0.3154,-0.26079 0.4793,-0.38352 0.164,-0.12273 0.4163,-0.30671 0.6434,-0.44488 0,0 0,0 0,0 A 5.13429,6.24316 0 0 1 18.6734,8.81176 2.85098,3.46672 0 0 1 19.115,8.55098 l 0.8452,-0.42945 0.5172,-0.19952 a 2.40946,2.92983 0 0 1 0.4289,-0.15336 12.5014,15.2014 0 0 1 2.2328,-0.53687 h 0.4794 c 0.1892,0 0.4037,0 0.6055,0 0.5299,0 1.0597,0 1.5769,0 0.5172,0 0.984,0.0924 1.4759,0.15336 0.7443,0.12273 1.4634,0.29152 2.132,0.47562 l 0.6812,0.24535 0.7064,0.27608 h 0.1009 l 0.656,0.32215 0.3911,0.21484 a 9.42338,11.4586 0 0 1 1.4507,0.99706 l 0.4037,0.38336 0.2775,0.2915 a 1.91748,2.3316 0 0 1 0.328,0.3836 1.53903,1.87141 0 0 1 0.1892,0.2607 1.84179,2.23956 0 0 1 0.2019,0.2914 l 0.2397,0.4142 c 1.4381,2.8378 3.7844,8.0532 5.0459,9.2037 1.2615,1.1504 2.4221,0.675 3.3052,2.6384 0.883,1.9634 1.7787,3.4667 2.6743,3.4667 0.8957,0 1.7661,1.2425 1.6148,1.9174 z"
       id="path4069"
       style="isolation:isolate;fill:url(#radialGradient4);stroke-width:1.04549" />
    <g
       class="cls-7"
       clip-path="url(#clip-path)"
       id="g4081"
       style="isolation:isolate;fill:#4e9a06;fill-opacity:0.35;stroke-width:0.751575"
       transform="matrix(1.2615,0,0,1.53394,-6.9728,-20.4713)">
      <path
         class="cls-8"
         d="m 25.9979,24.371 c -0.029,0.667 0.7194,3.9243 0.7821,4.589 0,0.5 0,0.88 -0.54,0.59 -0.2104,-0.1266 -0.4051,-0.2776 -0.58,-0.45 -0.26,-0.26 -0.32,-0.61 -0.65,-0.84 -0.47,1.34 0.13,3 0.34,4.39 0.059,0.2326 0.042,0.4782 -0.05,0.7 L 24.54,33 c 0.1064,0.6382 0.4232,1.2226 0.9,1.66 0.12,0.11 0.27,0.2 0.4,0.13 0.13,-0.07 0.14,-0.34 0.29,-0.43 0.15,-0.09 0.5,0.27 0.7,0.48 0.57,0.63 2,0.11 2.34,-0.62 -0.2846,0.6428 -0.7547,1.186 -1.35,1.56 -0.9469,0.5323 -1.8236,1.1806 -2.61,1.93 -0.5464,0.4861 -1.2729,0.7186 -2,0.64 -0.7895,4e-4 -1.5769,-0.08 -2.35,-0.24 -1.2001,-0.3208 -2.4737,-0.222 -3.61,0.28 -0.7486,0.559 -1.6191,0.9325 -2.54,1.09 -0.76,0 -0.92,-0.83 -1.43,-1.09 -0.7111,-0.4685 -1.5636,-0.6737 -2.41,-0.58 h -1 c -0.32,0 -0.65,0.1 -0.8,-0.2 C 9.0185,37.462 8.9915,37.3067 8.99,37.15 8.83,36.29 7.33,36.43 6.72,36.36 c -0.13058,0 -0.25639,-0.05 -0.36,-0.13 -0.0889,-0.1296 -0.0889,-0.3004 0,-0.43 0.0767,-0.1323 0.1828,-0.2451 0.31,-0.33 0.52965,-0.4081 1.09148,-0.7726 1.68,-1.09 -0.22109,0.1993 -0.42514,0.4167 -0.61,0.65 -0.1,0.12 -0.2,0.29 -0.12,0.44 0.08,0.15 0.43,0.09 0.66,0 0.52354,-0.1349 1.0595,0.1707 1.21,0.69 0.08,0.25 0,0.54 0.27,0.7 0.3234,0.1152 0.6766,0.1152 1,0 0.34,-0.08 0.66,-0.22 1,-0.29 0.8362,-0.1898 1.7084,0.1035 2.26,0.76 0.31,0.4 0.56,1.19 1.24,1 0.2351,-0.092 0.442,-0.2433 0.6,-0.44 0.1501,-0.201 0.3248,-0.3825 0.52,-0.54 0.3178,-0.1667 0.6532,-0.2976 1,-0.39 0.8006,-0.3686 1.4327,-1.0257 1.77,-1.84 0.32,-0.64 0.56,-1.32 0.86,-2 0.4,-0.87 0.94,-1.65 1.39,-2.48 0.3,-0.55 0.57,-1.1 0.83,-1.67 0.2384,-0.5787 0.4356,-1.1735 0.59,-1.78 z"
         id="path4079"
         style="fill:#4e9a06;fill-opacity:0.35;stroke-width:0.751575"
         sodipodi:nodetypes="ccccccccsssccccccccccsccccccccscccccccccccccccc" />
    </g>
    <path
       class="cls-9"
       d="m 2.72811,35.395 c -1.16058,0 -2.195005,-0.5061 -1.816556,-1.0123 A 17.661,21.4753 0 0 0 3.88869,31.1767 C 4.24191,30.5938 5.04927,29.2899 4.24191,28.8451 3.9013,28.615 3.52285,28.615 3.11917,28.4309 A 10.8236,13.1613 0 0 0 1.58015,27.8634 C 1.18908,27.7406 0.558335,27.6333 0.709714,26.9276 A 2.6996,3.28265 0 0 1 2.99302,25.1943 8.90617,10.8297 0 0 0 8.6193,20.8226 c 2.031,-3.1753 3.7845,-5.6757 5.046,-7.3476 A 14.9614,18.1926 0 0 1 24.2619,7.1398 c 5.1343,-0.16879 9.3855,1.96336 10.811,4.7705 1.4255,2.8071 3.7845,8.0533 5.046,9.2037 1.2615,1.1505 2.4221,0.6749 3.3051,2.6384 0.8831,1.9635 1.7787,3.4668 2.687,3.4668 0.9083,0 1.6904,1.2424 1.539,1.9327 -0.1514,0.6902 -0.6433,0.9357 -1.9553,1.2579 -1.3119,0.3221 -6.8373,1.043 -7.4428,2.3775 -0.3028,0.6903 0,1.1965 0,1.9635 0,0.7669 -0.8705,1.2578 -2.9393,1.3805 -2.0689,0.1228 -5.2352,-0.5369 -8.0736,0.1382 a 8.69172,10.5689 0 0 0 -3.4313,1.902 3.46912,4.21836 0 0 1 -2.7753,-0.184 10.6344,12.9312 0 0 0 -6.2318,0.3834 7.56898,9.20369 0 0 1 -3.2042,1.6566 c -0.9713,0 -1.1605,-1.2731 -1.80391,-1.6566 a 4.51616,5.49153 0 0 0 -3.0402,-0.905 c -0.42891,0 -0.85782,0 -1.2615,0 -0.40368,0 -0.81997,0.1534 -1.02181,-0.3068 A 2.23285,2.71508 0 0 1 4.36806,36.4535 C 4.19145,35.7479 3.28317,35.395 2.72811,35.395 Z"
       id="path4083"
       style="isolation:isolate" />
    <path
       class="cls-9"
       d="m 47.6753,29.1672 c -0.1388,0.6904 -0.656,0.9511 -1.9554,1.2579 -1.2993,0.3068 -6.8373,1.0431 -7.4302,2.3776 -0.3154,0.6903 0,1.2118 -0.088,1.9481 -0.088,0.7364 -0.8578,1.2732 -2.9393,1.3959 -2.0814,0.1228 -5.2226,-0.5368 -8.0609,0.1381 a 8.3385,10.1394 0 0 0 -3.4313,1.9021 3.46912,4.21836 0 0 1 -2.7753,-0.1841 10.7101,13.0232 0 0 0 -6.2318,0.3681 7.45545,9.06561 0 0 1 -3.2042,1.6721 c -0.9587,0 -1.1606,-1.2733 -1.80394,-1.6721 A 4.60447,5.5989 0 0 0 6.71444,37.4812 c -0.42891,0 -0.85782,0 -1.2615,0 -0.40367,0 -0.81997,0.1534 -1.00919,-0.3068 A 1.81656,2.20888 0 0 1 4.34283,36.4689 C 4.21668,35.7018 3.32101,35.3491 2.76596,35.3491 c -1.16058,0 -2.19501,-0.5063 -1.816561,-1.0125 A 17.661,21.4753 0 0 0 3.93915,31.1154 C 4.29237,30.5478 5.09973,29.2439 4.27975,28.8144 3.88869,28.615 3.52285,28.615 3.11917,28.4309 A 12.7537,15.5082 0 0 0 1.58015,27.8634 C 1.18908,27.7406 0.558335,27.6333 0.709714,26.9276 A 2.6996,3.28265 0 0 1 2.99302,25.1943 8.95663,10.891 0 0 0 8.63192,20.8226 C 10.6503,17.6627 12.4164,15.1469 13.6779,13.475 A 16.0715,19.5425 0 0 1 19.9854,8.12153 13.8765,16.8734 0 0 1 24.2619,7.1398 c 5.1343,-0.18411 9.3855,1.96336 10.811,4.7705 1.4255,2.8071 3.7845,8.0533 5.046,9.2037 1.2615,1.1505 2.4221,0.6749 3.3051,2.6384 0.8831,1.9635 1.7787,3.4668 2.6744,3.4668 0.8957,0 1.7282,1.2731 1.5769,1.948 z"
       id="path4087"
       style="isolation:isolate" />
    <path
       class="cls-9"
       d="m 47.6753,29.1672 c -0.1388,0.6904 -0.656,0.9511 -1.9554,1.2579 -1.2993,0.3068 -6.8373,1.0431 -7.4302,2.3776 -0.3154,0.6903 0,1.2118 -0.088,1.9481 -0.088,0.7364 -0.8578,1.2732 -2.9393,1.3959 -2.0814,0.1228 -5.2226,-0.5368 -8.0609,0.1381 a 8.3385,10.1394 0 0 0 -3.4313,1.9021 3.46912,4.21836 0 0 1 -2.7753,-0.1841 8.57818,10.4309 0 0 0 -3.1285,-0.3835 7.8339,9.52578 0 0 0 -3.1033,0.7516 7.45545,9.06561 0 0 1 -3.2042,1.6721 c -0.9587,0 -1.1606,-1.2733 -1.80394,-1.6721 A 4.60447,5.5989 0 0 0 6.71444,37.4812 c -0.42891,0 -0.85782,0 -1.2615,0 -0.40367,0 -0.81997,0.1534 -1.00919,-0.3068 A 1.81656,2.20888 0 0 1 4.34283,36.4689 C 4.21668,35.7018 3.32101,35.3491 2.76596,35.3491 A 3.78449,4.60185 0 0 1 1.15124,34.9656 C 0.886324,34.7662 0.785404,34.5667 0.949399,34.3366 A 17.661,21.4753 0 0 0 3.93915,31.1154 C 4.29237,30.5478 5.09973,29.2439 4.27975,28.8144 3.88869,28.615 3.52285,28.615 3.11917,28.4309 A 12.7537,15.5082 0 0 0 1.58015,27.8634 C 1.18908,27.7406 0.558335,27.6333 0.709714,26.9276 A 2.6996,3.28265 0 0 1 2.99302,25.1943 8.95663,10.891 0 0 0 8.63192,20.8226 C 10.6503,17.6627 12.4164,15.1469 13.6779,13.475 a 16.0715,19.5425 0 0 1 6.3075,-5.35347 13.8765,16.8734 0 0 1 4.2765,-0.98173 17.3834,21.1378 0 0 1 7.3293,1.53391 l 0.391,0.21473 a 7.10223,8.63611 0 0 1 3.0907,3.06796 c 1.4381,2.8378 3.7845,8.0531 5.046,9.2037 1.2615,1.1504 2.4221,0.6749 3.3051,2.6384 0.8831,1.9635 1.7787,3.4666 2.6744,3.4666 0.8957,0 1.7282,1.2272 1.5769,1.9021 z"
       id="path4089"
       style="isolation:isolate" />
    <path
       class="cls-8"
       d="m 47.6753,29.1672 c -0.1388,0.6904 -0.656,0.9511 -1.9554,1.2579 -1.2993,0.3068 -6.8373,1.0431 -7.4302,2.3776 -0.3154,0.6903 0,1.2118 -0.088,1.9481 -0.088,0.7364 -0.8578,1.2732 -2.9393,1.3959 -2.0814,0.1228 -5.2226,-0.5368 -8.0609,0.1381 a 8.3385,10.1394 0 0 0 -3.4313,1.9021 3.46912,4.21836 0 0 1 -2.7753,-0.1841 1.72825,2.1015 0 0 0 -0.3911,-0.1688 5.04599,6.13579 0 0 1 1.2615,0 3.17897,3.86554 0 0 0 2.523,-1.0737 6.30749,7.66974 0 0 1 3.4061,-2.1321 24.3974,29.6666 0 0 1 5.2226,0.7362 5.95427,7.24023 0 0 0 3.0149,-0.1688 c 1.1985,-0.6135 0.7443,-1.6567 0.9714,-2.8531 a 2.82575,3.43604 0 0 1 2.523,-2.5771 c 0.883,-0.1069 1.7913,0.1228 2.687,0.092 a 10.584,12.8698 0 0 0 2.6744,-0.5369 c 0.2523,-0.093 1.1227,-0.3529 1.1101,-0.8591 -0.013,-0.5061 -0.7948,-0.7516 -1.0597,-0.9816 a 3.78449,4.60185 0 0 1 -1.0344,-1.4574 10.5335,12.8085 0 0 1 -0.6055,-2.0094 8.72956,10.6149 0 0 0 -0.5803,-1.3806 2.52299,3.06789 0 0 1 0.7316,1.0892 c 0.8957,1.9941 1.7788,3.4667 2.6744,3.4667 0.8957,0 1.703,1.3038 1.5517,1.9787 z"
       id="path4093"
       style="isolation:isolate;fill:#3e7b05;fill-opacity:1;stroke-width:1.04549" />
    <path
       class="cls-9"
       d="m 47.6753,29.1672 c -0.1388,0.6904 -0.656,0.9511 -1.9554,1.2579 -1.2993,0.3068 -6.8373,1.0431 -7.4302,2.3776 -0.3154,0.6903 0,1.2118 -0.088,1.9481 -0.088,0.7364 -0.8578,1.2732 -2.9393,1.3959 -2.0814,0.1228 -5.2226,-0.5368 -8.0609,0.1381 a 8.3385,10.1394 0 0 0 -3.4313,1.9021 3.46912,4.21836 0 0 1 -2.7753,-0.1841 1.72825,2.1015 0 0 0 -0.3911,-0.1688 v 0 a 11.8328,14.3884 0 0 0 -2.7122,-0.2147 12.8673,15.6463 0 0 0 -1.7787,0.1994 l -0.3911,0.1069 a 3.39343,4.12633 0 0 0 -0.9587,0.4142 7.45545,9.06561 0 0 1 -3.2042,1.6719 c -0.9587,0 -1.1606,-1.2732 -1.80395,-1.6719 A 4.60447,5.5989 0 0 0 6.71444,37.4505 c -0.42891,0 -0.85782,0 -1.2615,0 -0.40367,0 -0.81997,0.1535 -1.00919,-0.3067 A 1.81656,2.20888 0 0 1 4.34283,36.4381 C 4.21668,35.6712 3.32101,35.3183 2.76596,35.3183 a 4.3774,5.3228 0 0 1 -1.2615,-0.23 l -0.164,-0.077 H 1.2017 C 0.936784,34.8122 0.835864,34.6127 0.999859,34.3827 A 17.661,21.4753 0 0 0 3.98961,31.1613 C 4.34283,30.5938 5.15018,29.2899 4.33021,28.8604 3.88869,28.615 3.52285,28.615 3.11917,28.4309 A 12.7537,15.5082 0 0 0 1.58015,27.8634 C 1.18908,27.7406 0.558335,27.6333 0.709714,26.9276 A 2.6996,3.28265 0 0 1 2.99302,25.1943 8.95663,10.891 0 0 0 8.63192,20.8226 C 10.6503,17.6627 12.4164,15.1469 13.6779,13.475 l 0.5803,-0.7517 c 0.1766,-0.2148 0.3658,-0.4449 0.5677,-0.6596 a 15.138,18.4074 0 0 1 1.4885,-1.5339 5.23521,6.36589 0 0 1 0.5425,-0.4602 c 0.1514,-0.13805 0.3154,-0.26079 0.4793,-0.38352 0.164,-0.12273 0.4163,-0.30671 0.6434,-0.44488 0,0 0,0 0,0 A 5.13429,6.24316 0 0 1 18.6734,8.81176 2.85098,3.46672 0 0 1 19.115,8.55098 l 0.8452,-0.42945 0.5172,-0.19952 a 2.40946,2.92983 0 0 1 0.4289,-0.15336 12.5014,15.2014 0 0 1 2.2328,-0.53687 h 0.4794 c 0.1892,0 0.4037,0 0.6055,0 0.5299,0 1.0597,0 1.5769,0 0.5172,0 0.984,0.0924 1.4759,0.15336 0.7443,0.12273 1.4634,0.29152 2.132,0.47562 l 0.6812,0.24535 0.7064,0.27608 h 0.1009 l 0.656,0.32215 0.3911,0.21484 a 9.42338,11.4586 0 0 1 1.4507,0.99706 l 0.4037,0.38336 0.2775,0.2915 a 1.91748,2.3316 0 0 1 0.328,0.3836 1.53903,1.87141 0 0 1 0.1892,0.2607 1.84179,2.23956 0 0 1 0.2019,0.2914 l 0.2397,0.4142 c 1.4381,2.8378 3.7844,8.0532 5.0459,9.2037 0.9588,0.859 1.8292,0.8129 2.523,1.5339 a 2.52299,3.06789 0 0 1 0.7317,1.0891 c 0.8957,1.9943 1.7787,3.4668 2.6744,3.4668 0.8956,0 1.8165,1.2578 1.6652,1.9327 z"
       id="path4095"
       style="isolation:isolate" />
    <path
       class="cls-9"
       d="m 47.6753,29.1672 c -0.1388,0.6904 -0.656,0.9511 -1.9554,1.2579 -1.2993,0.3068 -6.8373,1.0431 -7.4302,2.3776 -0.3154,0.6903 0,1.2118 -0.088,1.9481 -0.088,0.7364 -0.8578,1.2732 -2.9393,1.3959 -2.0814,0.1228 -5.2226,-0.5368 -8.0609,0.1381 a 8.3385,10.1394 0 0 0 -3.4313,1.9021 3.46912,4.21836 0 0 1 -2.7753,-0.1841 1.72825,2.1015 0 0 0 -0.3911,-0.1688 v 0 a 11.8328,14.3884 0 0 0 -2.7122,-0.2147 12.8673,15.6463 0 0 0 -1.7787,0.1994 l -0.3911,0.1069 a 3.39343,4.12633 0 0 0 -0.9587,0.4142 7.45545,9.06561 0 0 1 -3.2042,1.6719 c -0.9587,0 -1.1606,-1.2732 -1.80395,-1.6719 A 4.60447,5.5989 0 0 0 6.71444,37.4505 c -0.42891,0 -0.85782,0 -1.2615,0 -0.40367,0 -0.81997,0.1535 -1.00919,-0.3067 A 1.81656,2.20888 0 0 1 4.34283,36.4381 C 4.21668,35.6712 3.32101,35.3183 2.76596,35.3183 a 4.3774,5.3228 0 0 1 -1.2615,-0.23 l -0.164,-0.077 H 1.2017 C 0.936784,34.8122 0.835864,34.6127 0.999859,34.3827 A 17.661,21.4753 0 0 0 3.98961,31.1613 C 4.34283,30.5938 5.15018,29.2899 4.33021,28.8604 3.88869,28.615 3.52285,28.615 3.11917,28.4309 A 12.7537,15.5082 0 0 0 1.58015,27.8634 C 1.18908,27.7406 0.558335,27.6333 0.709714,26.9276 A 2.6996,3.28265 0 0 1 2.99302,25.1943 8.95663,10.891 0 0 0 8.63192,20.8226 C 10.6503,17.6627 12.4164,15.1469 13.6779,13.475 l 0.5803,-0.7517 c 0.1766,-0.2148 0.3658,-0.4449 0.5677,-0.6596 a 15.138,18.4074 0 0 1 1.4885,-1.5339 5.23521,6.36589 0 0 1 0.5425,-0.4602 c 0.1514,-0.13805 0.3154,-0.26079 0.4793,-0.38352 0.164,-0.12273 0.4163,-0.30671 0.6434,-0.44488 0,0 0,0 0,0 A 5.13429,6.24316 0 0 1 18.6734,8.81176 2.85098,3.46672 0 0 1 19.115,8.55098 l 0.8452,-0.42945 0.5172,-0.19952 a 2.40946,2.92983 0 0 1 0.4289,-0.15336 12.5014,15.2014 0 0 1 2.2328,-0.53687 h 0.4794 c 0.1892,0 0.4037,0 0.6055,0 0.5299,0 1.0597,0 1.5769,0 0.5172,0 0.984,0.0924 1.4759,0.15336 0.7443,0.12273 1.4634,0.29152 2.132,0.47562 l 0.6812,0.24535 0.7064,0.27608 h 0.1009 l 0.656,0.32215 0.3911,0.21484 a 9.42338,11.4586 0 0 1 1.4507,0.99706 l 0.4037,0.38336 0.2775,0.2915 a 1.91748,2.3316 0 0 1 0.328,0.3836 1.53903,1.87141 0 0 1 0.1892,0.2607 1.84179,2.23956 0 0 1 0.2019,0.2914 l 0.2397,0.4142 c 1.4381,2.8378 3.7844,8.0532 5.0459,9.2037 0.9588,0.859 1.8292,0.8129 2.523,1.5339 a 2.52299,3.06789 0 0 1 0.7317,1.0891 c 0.8957,1.9943 1.7787,3.4668 2.6744,3.4668 0.8956,0 1.8165,1.2578 1.6652,1.9327 z"
       id="path4097"
       style="isolation:isolate" />
    <path
       class="cls-9"
       d="m 47.6753,29.1672 c -0.1388,0.6904 -0.656,0.9511 -1.9554,1.2579 -1.2993,0.3068 -6.8373,1.0431 -7.4302,2.3776 -0.3154,0.6903 0,1.2118 -0.088,1.9481 -0.088,0.7364 -0.8578,1.2732 -2.9393,1.3959 -2.0814,0.1228 -5.2226,-0.5368 -8.0609,0.1381 a 8.3385,10.1394 0 0 0 -3.4313,1.9021 3.46912,4.21836 0 0 1 -2.7753,-0.1841 1.72825,2.1015 0 0 0 -0.3911,-0.1688 v 0 a 11.8328,14.3884 0 0 0 -2.7122,-0.2147 12.8673,15.6463 0 0 0 -1.7787,0.1994 l -0.3911,0.1069 a 3.39343,4.12633 0 0 0 -0.9587,0.4142 7.45545,9.06561 0 0 1 -3.2042,1.6719 c -0.9587,0 -1.1606,-1.2732 -1.80395,-1.6719 A 4.60447,5.5989 0 0 0 6.71444,37.4505 c -0.42891,0 -0.85782,0 -1.2615,0 -0.40367,0 -0.81997,0.1535 -1.00919,-0.3067 A 1.81656,2.20888 0 0 1 4.34283,36.4381 C 4.21668,35.6712 3.32101,35.3183 2.76596,35.3183 a 4.3774,5.3228 0 0 1 -1.2615,-0.23 l -0.164,-0.077 H 1.2017 C 0.936784,34.8122 0.835864,34.6127 0.999859,34.3827 A 17.661,21.4753 0 0 0 3.98961,31.1613 C 4.34283,30.5938 5.15018,29.2899 4.33021,28.8604 3.88869,28.615 3.52285,28.615 3.11917,28.4309 A 12.7537,15.5082 0 0 0 1.58015,27.8634 C 1.18908,27.7406 0.558335,27.6333 0.709714,26.9276 A 2.6996,3.28265 0 0 1 2.99302,25.1943 8.95663,10.891 0 0 0 8.63192,20.8226 C 10.6503,17.6627 12.4164,15.1469 13.6779,13.475 l 0.5803,-0.7517 c 0.1766,-0.2148 0.3658,-0.4449 0.5677,-0.6596 a 15.138,18.4074 0 0 1 1.4885,-1.5339 5.23521,6.36589 0 0 1 0.5425,-0.4602 c 0.1514,-0.13805 0.3154,-0.26079 0.4793,-0.38352 0.164,-0.12273 0.4163,-0.30671 0.6434,-0.44488 0,0 0,0 0,0 A 5.13429,6.24316 0 0 1 18.6734,8.81176 2.85098,3.46672 0 0 1 19.115,8.55098 l 0.8452,-0.42945 0.5172,-0.19952 a 2.40946,2.92983 0 0 1 0.4289,-0.15336 12.5014,15.2014 0 0 1 2.2328,-0.53687 h 0.4794 c 0.1892,0 0.4037,0 0.6055,0 0.5299,0 1.0597,0 1.5769,0 0.5172,0 0.984,0.0924 1.4759,0.15336 0.7443,0.12273 1.4634,0.29152 2.132,0.47562 l 0.6812,0.24535 0.7064,0.27608 h 0.1009 l 0.656,0.32215 0.3911,0.21484 a 9.42338,11.4586 0 0 1 1.4507,0.99706 l 0.4037,0.38336 0.2775,0.2915 a 1.91748,2.3316 0 0 1 0.328,0.3836 1.53903,1.87141 0 0 1 0.1892,0.2607 1.84179,2.23956 0 0 1 0.2019,0.2914 l 0.2397,0.4142 c 1.4381,2.8378 3.7844,8.0532 5.0459,9.2037 0.9588,0.859 1.8292,0.8129 2.523,1.5339 a 2.52299,3.06789 0 0 1 0.7317,1.0891 c 0.8957,1.9943 1.7787,3.4668 2.6744,3.4668 0.8956,0 1.8165,1.2578 1.6652,1.9327 z"
       id="path4099"
       style="isolation:isolate" />
    <path
       class="cls-8"
       d="m 35.6784,26.9276 a 3.63311,4.41777 0 0 1 -0.7695,-2.761 c 0.076,-1.3039 1.0849,-2.4083 0.9587,-3.7122 a 0.491984,0.59824 0 0 0 -0.076,-0.2914 0.391064,0.475524 0 0 0 -0.492,0 1.75348,2.13219 0 0 0 -0.3406,0.4908 2.00578,2.43898 0 0 1 -1.0723,0.8129 2.2707,2.76111 0 0 0 0.8074,-1.6872 5.85335,7.11751 0 0 0 0,-1.9788 c 0,-0.2148 0.088,-0.8897 0.3658,-0.767 a 0.290144,0.352808 0 0 1 0.1388,0.1227 8.40157,10.2161 0 0 1 1.1479,2.1015 16.8536,20.4935 0 0 1 0.5046,2.4084 2.78791,3.39002 0 0 0 0.9966,1.8561 5.04599,6.13579 0 0 0 0.719,0.3681 10.319,12.5477 0 0 0 0.8831,0.6595 6.55979,7.97652 0 0 1 1.1984,0.5676 3.92326,4.77057 0 0 1 0.7443,0.9357 l 1.6778,2.5617 a 1.80394,2.19355 0 0 0 2.359,0.8436 l 0.8957,-0.2147 a 1.2615,1.53395 0 0 0 0.5802,-0.2608 0.454139,0.552221 0 0 0 0.1514,-0.6749 0.681209,0.828332 0 0 1 0.1136,1.3039 1.02181,1.24249 0 0 1 -0.4037,0.2455 18.1403,22.0582 0 0 1 -3.7845,1.043 21.2941,25.893 0 0 0 -2.6618,0.7056 c -0.6055,0.1841 -1.7535,0.4449 -2.0688,1.1965 -0.3154,0.7515 0,1.2118 -0.088,1.9481 -0.088,0.7364 -0.8578,1.2732 -2.9393,1.3959 -3.0781,0.184 -6.3075,-0.905 -9.3099,0.721 -0.2775,0.1534 -1.8039,1.3192 -1.7913,0.3681 a 2.73745,3.32866 0 0 1 1.4129,-2.485 c 0.7695,-0.4756 1.6399,-0.4756 2.4094,-0.9664 0.7696,-0.4908 1.7535,-1.3498 1.5895,-2.4543 A 1.12273,1.36522 0 0 0 29.005,30.4864 2.52299,3.06789 0 0 0 28.1598,30.1489 0.983968,1.19648 0 0 1 27.693,29.9495 c -0.1261,-0.138 -0.1766,-0.4141 0,-0.5368 a 0.416294,0.506202 0 0 1 0.3659,0 l 1.8922,0.3375 a 3.78449,4.60185 0 0 1 1.7913,0.6749 c 0.3911,0.4602 0.265,1.3499 0.8074,1.6566 a 1.42549,1.73336 0 0 0 0.656,0 l 1.4507,-0.1534 a 1.42549,1.73336 0 0 0 0.5551,-0.1533 1.86702,2.27024 0 0 0 0.3658,-0.4142 4.78107,5.81366 0 0 0 0.7821,-1.3499 3.43127,4.17234 0 0 0 -0.3532,-3.3287 3.48173,4.2337 0 0 1 -0.4794,-1.9942 2.67437,3.25196 0 0 0 0.1388,2.301 z"
       id="path4101"
       style="isolation:isolate;fill:#4e9a06;fill-opacity:0.589212;stroke-width:1.04549" />
    <path
       class="cls-9"
       d="m 47.6753,29.1672 c -0.1388,0.6904 -0.656,0.9511 -1.9554,1.2579 -0.6686,0.1687 -2.4347,0.4295 -4.0872,0.8283 -1.6526,0.3989 -3.0655,0.8897 -3.343,1.5339 -0.2775,0.6444 0,1.2119 -0.088,1.9481 -0.088,0.7363 -0.8578,1.2732 -2.9393,1.3959 -2.0814,0.1228 -4.8946,-0.4755 -7.569,0 l -0.4415,0.092 a 8.3385,10.1394 0 0 0 -3.4312,1.9022 3.46912,4.21836 0 0 1 -2.7753,-0.1842 8.57818,10.4309 0 0 0 -3.1286,-0.3835 12.8673,15.6463 0 0 0 -1.8039,0.2609 l -0.3911,0.1069 a 3.39343,4.12633 0 0 0 -0.9587,0.4141 7.45545,9.06561 0 0 1 -3.2042,1.672 c -0.9587,0 -1.1606,-1.2732 -1.80394,-1.672 A 4.60447,5.5989 0 0 0 6.71444,37.4505 c -0.42891,0 -0.85782,0 -1.2615,0 -0.40367,0 -0.81997,0.1535 -1.00919,-0.3067 A 1.81656,2.20888 0 0 1 4.34283,36.4381 C 4.21668,35.6712 3.32101,35.3183 2.76596,35.3183 a 4.3774,5.3228 0 0 1 -1.2615,-0.23 l -0.164,-0.077 H 1.2017 C 0.936784,34.8122 0.835864,34.6127 0.999859,34.3827 A 17.661,21.4753 0 0 0 3.98961,31.1613 C 4.34283,30.5938 5.15018,29.2899 4.33021,28.8604 3.88869,28.615 3.52285,28.615 3.11917,28.4309 A 12.7537,15.5082 0 0 0 1.58015,27.8634 C 1.18908,27.7406 0.558335,27.6333 0.709714,26.9276 A 2.6996,3.28265 0 0 1 2.99302,25.1943 8.95663,10.891 0 0 0 8.63192,20.8226 C 10.6503,17.6627 12.4164,15.1469 13.6779,13.475 l 0.5803,-0.7517 c 0.1766,-0.2148 0.3658,-0.4449 0.5677,-0.6596 a 15.138,18.4074 0 0 1 1.4885,-1.5339 5.23521,6.36589 0 0 1 0.5425,-0.4602 c 0.1514,-0.13805 0.3154,-0.26079 0.4793,-0.38352 0.164,-0.12273 0.4163,-0.30671 0.6434,-0.44488 0,0 0,0 0,0 A 5.13429,6.24316 0 0 1 18.6734,8.81176 2.85098,3.46672 0 0 1 19.115,8.55098 l 0.8452,-0.42945 0.5172,-0.19952 a 2.40946,2.92983 0 0 1 0.4289,-0.15336 12.5014,15.2014 0 0 1 2.2328,-0.53687 h 0.4794 c 0.1892,0 0.4037,0 0.6055,0 0.5299,0 1.0597,0 1.5769,0 0.5172,0 0.984,0.0924 1.4759,0.15336 0.7443,0.12273 1.4634,0.29152 2.132,0.47562 l 0.6812,0.24535 0.7064,0.27608 h 0.1009 l 0.656,0.32215 0.3911,0.21484 a 9.42338,11.4586 0 0 1 1.4507,0.99706 l 0.4037,0.38336 0.2775,0.2915 a 1.91748,2.3316 0 0 1 0.328,0.3836 1.53903,1.87141 0 0 1 0.1892,0.2607 1.84179,2.23956 0 0 1 0.2019,0.2914 l 0.2397,0.4142 c 1.4381,2.8378 3.7844,8.0532 5.0459,9.2037 1.2615,1.1504 2.4221,0.675 3.3052,2.6384 0.883,1.9634 1.7787,3.4667 2.6743,3.4667 0.8957,0 1.7661,1.2425 1.6148,1.9174 z"
       id="path4103"
       style="isolation:isolate" />
    <path
       class="cls-9"
       d="m 47.6753,29.1672 c -0.1388,0.6904 -0.656,0.9511 -1.9554,1.2579 -0.6686,0.1687 -2.4347,0.4295 -4.0872,0.8283 -1.6526,0.3989 -3.0655,0.8897 -3.343,1.5339 -0.2775,0.6444 0,1.2119 -0.088,1.9481 -0.088,0.7363 -0.8578,1.2732 -2.9393,1.3959 -2.0814,0.1228 -4.8946,-0.4755 -7.569,0 l -0.4415,0.092 a 8.3385,10.1394 0 0 0 -3.4312,1.9022 3.46912,4.21836 0 0 1 -2.7753,-0.1842 8.57818,10.4309 0 0 0 -3.1286,-0.3835 12.8673,15.6463 0 0 0 -1.8039,0.2609 l -0.3911,0.1069 a 3.39343,4.12633 0 0 0 -0.9587,0.4141 7.45545,9.06561 0 0 1 -3.2042,1.672 c -0.9587,0 -1.1606,-1.2732 -1.80394,-1.672 A 4.60447,5.5989 0 0 0 6.71444,37.4505 c -0.42891,0 -0.85782,0 -1.2615,0 -0.40367,0 -0.81997,0.1535 -1.00919,-0.3067 A 1.81656,2.20888 0 0 1 4.34283,36.4381 C 4.21668,35.6712 3.32101,35.3183 2.76596,35.3183 a 4.3774,5.3228 0 0 1 -1.2615,-0.23 l -0.164,-0.077 H 1.2017 C 0.936784,34.8122 0.835864,34.6127 0.999859,34.3827 A 17.661,21.4753 0 0 0 3.98961,31.1613 C 4.34283,30.5938 5.15018,29.2899 4.33021,28.8604 3.88869,28.615 3.52285,28.615 3.11917,28.4309 A 12.7537,15.5082 0 0 0 1.58015,27.8634 C 1.18908,27.7406 0.558335,27.6333 0.709714,26.9276 A 2.6996,3.28265 0 0 1 2.99302,25.1943 8.95663,10.891 0 0 0 8.63192,20.8226 C 10.6503,17.6627 12.4164,15.1469 13.6779,13.475 l 0.5803,-0.7517 c 0.1766,-0.2148 0.3658,-0.4449 0.5677,-0.6596 a 15.138,18.4074 0 0 1 1.4885,-1.5339 5.23521,6.36589 0 0 1 0.5425,-0.4602 c 0.1514,-0.13805 0.3154,-0.26079 0.4793,-0.38352 0.164,-0.12273 0.4163,-0.30671 0.6434,-0.44488 0,0 0,0 0,0 A 5.13429,6.24316 0 0 1 18.6734,8.81176 2.85098,3.46672 0 0 1 19.115,8.55098 l 0.8452,-0.42945 0.5172,-0.19952 a 2.40946,2.92983 0 0 1 0.4289,-0.15336 12.5014,15.2014 0 0 1 2.2328,-0.53687 h 0.4794 c 0.1892,0 0.4037,0 0.6055,0 0.5299,0 1.0597,0 1.5769,0 0.5172,0 0.984,0.0924 1.4759,0.15336 0.7443,0.12273 1.4634,0.29152 2.132,0.47562 l 0.6812,0.24535 0.7064,0.27608 h 0.1009 l 0.656,0.32215 0.3911,0.21484 a 9.42338,11.4586 0 0 1 1.4507,0.99706 l 0.4037,0.38336 0.2775,0.2915 a 1.91748,2.3316 0 0 1 0.328,0.3836 1.53903,1.87141 0 0 1 0.1892,0.2607 1.84179,2.23956 0 0 1 0.2019,0.2914 l 0.2397,0.4142 c 1.4381,2.8378 3.7844,8.0532 5.0459,9.2037 1.2615,1.1504 2.4221,0.675 3.3052,2.6384 0.883,1.9634 1.7787,3.4667 2.6743,3.4667 0.8957,0 1.7661,1.2425 1.6148,1.9174 z"
       id="path4105"
       style="isolation:isolate" />
    <path
       class="cls-14"
       d="m 39.7026,31.6829 a 1.87963,2.28558 0 0 0 -1.4381,1.1044 4.85676,5.9057 0 0 0 -0.2019,1.3959 1.57687,1.91743 0 0 1 -0.4667,1.2579 1.74087,2.11685 0 0 0 0.1135,-1.1198 0.479369,0.5829 0 0 1 0,-0.1534 c -0.076,-0.859 -0.2397,-1.7026 -0.328,-2.5617 a 4.81892,5.85968 0 0 1 0,-1.2731 c 0,-0.3529 0.1136,-0.7057 0.101,-1.0585 A 6.20657,7.54701 0 0 0 36.7002,25.7925 4.718,5.73696 0 0 1 36.1578,23.323 c 0,-0.4757 0.9335,1.6872 1.2615,2.3468 0.328,0.6597 0.8326,2.1016 1.0849,2.8225 0.2523,0.721 1.0849,0.6136 1.4381,0.5522 0.3532,-0.061 0.7443,-0.8437 1.0344,-1.1504 0.2902,-0.3068 0.492,0.6596 0.6938,1.0277 a 2.68699,3.26731 0 0 0 1.3877,0.8436 l 2.914,0.5369 c 0,0 -5.2099,1.1045 -6.2696,1.3806 z"
       id="path4115"
       style="isolation:isolate;fill:#4e9a06;stroke-width:1.04549" />
    <path
       class="cls-14"
       d="M 30.6198,35.6099 A 33.8712,41.1864 0 0 0 27.0876,35.257 8.21235,9.98602 0 0 1 24.8043,35.5485 6.97608,8.4827 0 0 1 23.3031,31.8823 C 23.0508,30.4403 22.357,27.127 22.357,26.5288 a 25.0155,30.4181 0 0 0 -0.9335,4.4485 c -0.2523,1.3805 -0.492,2.2855 -0.6938,1.81 a 13.7377,16.7047 0 0 1 -0.1514,-3.6048 c 0,-0.7823 -1.0849,1.1965 -1.5769,2.8225 -0.492,1.6261 -1.2615,3.7888 -1.3876,4.2645 -0.1262,0.4755 -1.1858,1.3345 -1.1858,1.3345 0,0 3.3556,0.1533 4.1251,0.23 0.7695,0.077 2.523,0.491 2.523,0.491 l 2.523,-1.6261 2.75,-0.9051"
       id="path4117"
       style="isolation:isolate;fill:#4e9a06;stroke-width:1.04549" />
    <path
       class="cls-14"
       d="m 28.5005,35.3183 a 3.60788,4.38709 0 0 0 2.3716,-1.089 c 0.2523,-0.3682 0.2902,-1.534 0.5425,-1.442 0.2523,0.093 0.5929,1.3193 0.8452,1.6259 0.2523,0.3069 2.6617,0.353 3.0654,0.6597 a 10.6092,12.9005 0 0 0 1.4381,0.7209 c 0,0 -4.6549,0.1842 -4.8063,0.2455 -0.1514,0.061 -3.406,-0.1841 -3.406,-0.1841"
       id="path4119"
       style="isolation:isolate;fill:#4e9a06;stroke-width:1.04549" />
    <path
       class="cls-14"
       d="M 4.05268,31.3454 C 5.15018,30.195 6.6766,28.0935 7.62272,26.8816 a 15.7309,19.1284 0 0 0 1.57687,-2.393 25.9112,31.5073 0 0 1 -2.67437,2.393 C 5.64217,27.4953 4.74651,26.4675 3.813,27.0044 2.87949,27.5412 1.18908,26.7743 1.29,26.4061 1.39092,26.038 0.54572,27.3112 0.936784,27.4339 1.32785,27.5566 3.5607,28.4002 4.00222,28.6304 a 1.17319,1.42657 0 0 1 0.59291,0.8436"
       id="path4123"
       style="isolation:isolate;fill:#9cff3b;fill-opacity:1;stroke-width:1.04549" />
    <path
       class="cls-18"
       d="m 47.6753,29.1672 c -0.1388,0.6904 -0.656,0.9511 -1.9554,1.2579 -0.6686,0.1687 -2.4347,0.4295 -4.0872,0.8283 -1.6526,0.3989 -3.0655,0.8897 -3.343,1.5339 -0.2775,0.6444 0,1.2119 -0.088,1.9481 -0.088,0.7363 -0.8578,1.2732 -2.9393,1.3959 -2.0814,0.1228 -4.8946,-0.4755 -7.569,0 l -0.4415,0.092 a 8.3385,10.1394 0 0 0 -3.4312,1.9022 3.46912,4.21836 0 0 1 -2.7753,-0.1842 8.57818,10.4309 0 0 0 -3.1286,-0.3835 12.8673,15.6463 0 0 0 -1.8039,0.2609 l -0.3911,0.1069 a 3.39343,4.12633 0 0 0 -0.9587,0.4141 7.45545,9.06561 0 0 1 -3.2042,1.672 c -0.9587,0 -1.1606,-1.2732 -1.80394,-1.672 A 4.60447,5.5989 0 0 0 6.71444,37.4505 c -0.42891,0 -0.85782,0 -1.2615,0 -0.40367,0 -0.81997,0.1535 -1.00919,-0.3067 A 1.81656,2.20888 0 0 1 4.34283,36.4381 C 4.21668,35.6712 3.32101,35.3183 2.76596,35.3183 a 4.3774,5.3228 0 0 1 -1.2615,-0.23 l -0.164,-0.077 H 1.2017 C 0.936784,34.8122 0.835864,34.6127 0.999859,34.3827 A 17.661,21.4753 0 0 0 3.98961,31.1613 C 4.34283,30.5938 5.15018,29.2899 4.33021,28.8604 3.88869,28.615 3.52285,28.615 3.11917,28.4309 A 12.7537,15.5082 0 0 0 1.58015,27.8634 C 1.18908,27.7406 0.558335,27.6333 0.709714,26.9276 A 2.6996,3.28265 0 0 1 2.99302,25.1943 8.95663,10.891 0 0 0 8.63192,20.8226 C 10.6503,17.6627 12.4164,15.1469 13.6779,13.475 l 0.5803,-0.7517 c 0.1766,-0.2148 0.3658,-0.4449 0.5677,-0.6596 a 15.138,18.4074 0 0 1 1.4885,-1.5339 5.23521,6.36589 0 0 1 0.5425,-0.4602 c 0.1514,-0.13805 0.3154,-0.26079 0.4793,-0.38352 0.164,-0.12273 0.4163,-0.30671 0.6434,-0.44488 0,0 0,0 0,0 A 5.13429,6.24316 0 0 1 18.6734,8.81176 2.85098,3.46672 0 0 1 19.115,8.55098 l 0.8452,-0.42945 0.5172,-0.19952 a 2.40946,2.92983 0 0 1 0.4289,-0.15336 12.5014,15.2014 0 0 1 2.2328,-0.53687 h 0.4794 c 0.1892,0 0.4037,0 0.6055,0 0.5299,0 1.0597,0 1.5769,0 0.5172,0 0.984,0.0924 1.4759,0.15336 0.7443,0.12273 1.4634,0.29152 2.132,0.47562 l 0.6812,0.24535 0.7064,0.27608 h 0.1009 l 0.656,0.32215 0.3911,0.21484 a 9.42338,11.4586 0 0 1 1.4507,0.99706 l 0.4037,0.38336 0.2775,0.2915 a 1.91748,2.3316 0 0 1 0.328,0.3836 1.53903,1.87141 0 0 1 0.1892,0.2607 1.84179,2.23956 0 0 1 0.2019,0.2914 l 0.2397,0.4142 c 1.4381,2.8378 3.7844,8.0532 5.0459,9.2037 1.2615,1.1504 2.4221,0.675 3.3052,2.6384 0.883,1.9634 1.7787,3.4667 2.6743,3.4667 0.8957,0 1.7661,1.2425 1.6148,1.9174 z"
       id="path4129"
       style="isolation:isolate;stroke:#428205;stroke-opacity:1" />
    <path
       class="cls-4"
       d="m 6.99197,24.1973 c -0.80736,0.6596 -3.04021,0.3681 -3.07805,1.0277 -0.0379,0.6595 1.66517,0.905 2.71222,0.4909 A 6.08042,7.39362 0 0 0 9.14913,23.645 32.7989,39.8827 0 0 0 11.1045,18.9665 c 0.6938,-1.3652 1.0596,-2.0248 1.0596,-2.0248 a 9.89014,12.0262 0 0 0 -1.6778,1.8407 32.9503,40.0667 0 0 1 -3.49433,5.4149 z"
       id="path4111"
       style="isolation:isolate;fill:#beff7d;fill-opacity:1;stroke-width:1.04549" />
  </g>
  <g
     id="g4"
     transform="translate(0,-2.28571)">
    <path
       style="color:#000000;overflow:visible;fill:url(#radialGradient2);stroke:#a40000;stroke-width:1;stroke-linecap:round;stroke-linejoin:round;stroke-opacity:1"
       d="M 7.50998,42.1611 C 14.5878,37.4274 19.076,30.6722 21.1658,21.5623 L 27.431,23.8619 21.5085,9.62368 9.90834,18.6754 14.705,20.0454 C 12.226,28.4711 7.32496,33.9092 0.461781,39.0296 Z"
       id="path1"
       sodipodi:nodetypes="cccccccc" />
    <path
       id="path2"
       style="color:#000000;overflow:visible;fill:none;fill-opacity:1;stroke:#edd400;stroke-width:0.943628;stroke-linecap:round;stroke-linejoin:round;stroke-opacity:1"
       sodipodi:type="inkscape:offset"
       inkscape:radius="-0.831806"
       inkscape:original="M 20.3184 11.4531 L 9.375 19.9961 L 13.9004 21.2891 C 11.5615 29.2412 6.93606 34.3725 0.460938 39.2051 L 7.11133 42.1602 C 13.789 37.6926 18.0244 31.3186 19.9961 22.7207 L 25.9062 24.8906 L 20.3184 11.4531 z "
       d="m 19.9707,12.7812 -8.7949,6.8653 2.9531,0.8437 a 0.831889,0.831889 0 0 1 0.5703,1.0332 c -2.2559,7.67 -6.70214,12.8089 -12.67576,17.4668 l 4.96289,2.2051 C 13.2815,36.8564 17.2886,30.8071 19.1855,22.5352 a 0.831889,0.831889 0 0 1 1.0977,-0.5957 l 4.125,1.5136 z"
       transform="matrix(1.05993,0,0,1.05955,-0.027678,-2.5105)" />
  </g>
</svg>
