<?xml version="1.0" encoding="UTF-8" standalone="no"?>
<svg
   viewBox="0 0 48 48"
   version="1.1"
   id="svg87"
   sodipodi:docname="stripes.svg"
   inkscape:version="1.3.2 (091e20e, 2023-11-25, custom)"
   xmlns:inkscape="http://www.inkscape.org/namespaces/inkscape"
   xmlns:sodipodi="http://sodipodi.sourceforge.net/DTD/sodipodi-0.dtd"
   xmlns:xlink="http://www.w3.org/1999/xlink"
   xmlns="http://www.w3.org/2000/svg"
   xmlns:svg="http://www.w3.org/2000/svg">
  <sodipodi:namedview
     id="namedview87"
     pagecolor="#ffffff"
     bordercolor="#666666"
     borderopacity="1.0"
     inkscape:showpageshadow="2"
     inkscape:pageopacity="0.0"
     inkscape:pagecheckerboard="0"
     inkscape:deskcolor="#d1d1d1"
     inkscape:zoom="16.2929"
     inkscape:cx="23.9982"
     inkscape:cy="23.9982"
     inkscape:current-layer="svg87" />
  <defs
     id="defs39">
    <radialGradient
       id="radial-gradient"
       cx="-337.2"
       cy="-45.02"
       fx="-337.2"
       fy="-45.02"
       r="8.81"
       gradientTransform="matrix(2.2572,0.11237,-0.275121,0.917455,774.87,115.96)"
       gradientUnits="userSpaceOnUse">
      <stop
         offset=".28"
         stop-color="#2c2c2c"
         stop-opacity=".5"
         id="stop1" />
      <stop
         offset=".75"
         stop-color="#2c2c2c"
         stop-opacity=".1"
         id="stop2" />
      <stop
         offset=".99"
         stop-color="#2c2c2c"
         stop-opacity="0"
         id="stop3" />
    </radialGradient>
    <linearGradient
       id="linear-gradient"
       x1="19.28"
       y1="17.45"
       x2="26.88"
       y2="16.88"
       gradientTransform="matrix(1, 0, 0, 1, 0, 0)"
       gradientUnits="userSpaceOnUse">
      <stop
         offset="0"
         stop-color="#d1d8da"
         id="stop4" />
      <stop
         offset=".6"
         stop-color="#a3b0b5"
         id="stop5" />
      <stop
         offset="1"
         stop-color="#60777e"
         id="stop6" />
    </linearGradient>
    <linearGradient
       id="linear-gradient-2"
       x1="17.08"
       y1="30.13"
       x2="21.49"
       y2="33.13"
       xlink:href="#linear-gradient" />
    <linearGradient
       id="linear-gradient-3"
       x1="24.39"
       y1="31.69"
       x2="24.86"
       y2="32.01"
       gradientTransform="matrix(1, 0, 0, 1, 0, 0)"
       gradientUnits="userSpaceOnUse">
      <stop
         offset="0"
         stop-color="#fce94f"
         id="stop7" />
      <stop
         offset="1"
         stop-color="#c4a000"
         id="stop8" />
    </linearGradient>
    <linearGradient
       id="linear-gradient-4"
       x1="17.4"
       y1="29.72"
       x2="24.98"
       y2="29.72"
       gradientUnits="userSpaceOnUse">
      <stop
         offset="0"
         stop-color="#fce94f"
         id="stop9" />
      <stop
         offset=".82"
         stop-color="#c4a000"
         id="stop10" />
    </linearGradient>
    <linearGradient
       id="linear-gradient-5"
       x1="15.82"
       y1="31.14"
       x2="15.94"
       y2="31.24"
       gradientTransform="matrix(1, 0, 0, 1, 0, 0)"
       gradientUnits="userSpaceOnUse">
      <stop
         offset="0"
         stop-color="#729fcf"
         id="stop11" />
      <stop
         offset="1"
         stop-color="#204a87"
         id="stop12" />
    </linearGradient>
    <linearGradient
       id="linear-gradient-6"
       x1="22.39"
       y1="34.55"
       x2="22.99"
       y2="35.06"
       xlink:href="#linear-gradient-5" />
    <linearGradient
       id="linear-gradient-7"
       x1="16.36"
       y1="30.54"
       x2="23.02"
       y2="35.08"
       gradientUnits="userSpaceOnUse">
      <stop
         offset="0"
         stop-color="#729fcf"
         id="stop13" />
      <stop
         offset=".66"
         stop-color="#204a87"
         id="stop14" />
    </linearGradient>
    <linearGradient
       id="linear-gradient-8"
       x1="19.12"
       y1="25.54"
       x2="24.99"
       y2="26.43"
       xlink:href="#linear-gradient-3" />
    <linearGradient
       id="linear-gradient-9"
       x1="12.09"
       y1="33.57"
       x2="17.26"
       y2="37.9"
       xlink:href="#linear-gradient-5" />
    <linearGradient
       id="linear-gradient-10"
       x1="19.03"
       y1="24.84"
       x2="19.38"
       y2="24.91"
       xlink:href="#linear-gradient-5" />
    <linearGradient
       id="linear-gradient-11"
       x1="25.78"
       y1="29.87"
       x2="27.19"
       y2="30.13"
       xlink:href="#linear-gradient-5" />
    <linearGradient
       id="linear-gradient-12"
       x1="18.92"
       y1="26.6"
       x2="28.83"
       y2="26.6"
       gradientUnits="userSpaceOnUse">
      <stop
         offset="0"
         stop-color="#729fcf"
         id="stop15" />
      <stop
         offset=".67"
         stop-color="#204a87"
         id="stop16" />
    </linearGradient>
    <linearGradient
       id="linear-gradient-13"
       x1="21.22"
       y1="11.72"
       x2="27.09"
       y2="12.61"
       gradientUnits="userSpaceOnUse">
      <stop
         offset="0"
         stop-color="#fce94f"
         id="stop17" />
      <stop
         offset=".5"
         stop-color="#c4a000"
         id="stop18" />
    </linearGradient>
    <linearGradient
       id="linear-gradient-14"
       x1="14.76"
       y1="34.33"
       x2="20.24"
       y2="38.12"
       xlink:href="#linear-gradient-3" />
    <linearGradient
       id="linear-gradient-15"
       x1="14.66"
       y1="34.28"
       x2="18.38"
       y2="36.81"
       xlink:href="#linear-gradient-3" />
    <linearGradient
       id="linear-gradient-16"
       x1="18.36"
       y1="15.28"
       x2="27.46"
       y2="16.93"
       gradientUnits="userSpaceOnUse">
      <stop
         offset="0"
         stop-color="#729fcf"
         id="stop19" />
      <stop
         offset=".67"
         stop-color="#204a87"
         id="stop20" />
    </linearGradient>
    <linearGradient
       id="linear-gradient-17"
       x1="20.05"
       y1="19.65"
       x2="25.91"
       y2="20.54"
       gradientUnits="userSpaceOnUse">
      <stop
         offset="0"
         stop-color="#fce94f"
         id="stop21" />
      <stop
         offset=".74"
         stop-color="#c4a000"
         id="stop22" />
    </linearGradient>
    <linearGradient
       id="linear-gradient-18"
       x1="16.21"
       y1="21.84"
       x2="31"
       y2="26.56"
       gradientTransform="matrix(1, 0, 0, 1, 0, 0)"
       gradientUnits="userSpaceOnUse">
      <stop
         offset="0"
         stop-color="#2e4167"
         stop-opacity="0"
         id="stop23" />
      <stop
         offset=".81"
         stop-color="#2e4167"
         id="stop24" />
    </linearGradient>
    <linearGradient
       id="linear-gradient-19"
       x1="29.5"
       y1="26.34"
       x2="8.13"
       y2="17.75"
       gradientTransform="matrix(1, 0, 0, 1, 0, 0)"
       gradientUnits="userSpaceOnUse">
      <stop
         offset="0"
         stop-color="#fff"
         stop-opacity="0"
         id="stop25" />
      <stop
         offset="1"
         stop-color="#fff8f8"
         id="stop26" />
    </linearGradient>
    <linearGradient
       id="linear-gradient-20"
       x1="18.73"
       y1="7.71"
       x2="28.17"
       y2="7.71"
       gradientTransform="matrix(1, 0, 0, 1, 0, 0)"
       gradientUnits="userSpaceOnUse">
      <stop
         offset="0"
         stop-color="#d1d8da"
         id="stop27" />
      <stop
         offset=".6"
         stop-color="#a3b0b5"
         id="stop28" />
      <stop
         offset="1"
         stop-color="#82949a"
         id="stop29" />
    </linearGradient>
    <linearGradient
       id="linear-gradient-21"
       x1="25.46"
       y1="11.44"
       x2="22.97"
       y2="6.84"
       xlink:href="#linear-gradient-18" />
    <linearGradient
       id="linear-gradient-22"
       x1="24.05"
       y1="10.72"
       x2="22.22"
       y2="1.66"
       xlink:href="#linear-gradient-18" />
    <linearGradient
       id="linear-gradient-23"
       x1="25.18"
       y1="20.86"
       x2="32.78"
       y2="20.3"
       xlink:href="#linear-gradient" />
    <linearGradient
       id="linear-gradient-24"
       x1="22.96"
       y1="33.57"
       x2="27.38"
       y2="36.58"
       xlink:href="#linear-gradient" />
    <linearGradient
       id="linear-gradient-25"
       x1="25.02"
       y1="28.96"
       x2="30.88"
       y2="29.85"
       xlink:href="#linear-gradient-3" />
    <linearGradient
       id="linear-gradient-26"
       x1="17.78"
       y1="36.99"
       x2="23.03"
       y2="41.4"
       xlink:href="#linear-gradient-5" />
    <linearGradient
       id="linear-gradient-27"
       x1="22.62"
       y1="27.8"
       x2="31.72"
       y2="29.44"
       gradientUnits="userSpaceOnUse">
      <stop
         offset="0"
         stop-color="#729fcf"
         id="stop30" />
      <stop
         offset="1"
         stop-color="#204a87"
         id="stop31" />
    </linearGradient>
    <linearGradient
       id="linear-gradient-28"
       x1="27.12"
       y1="15.14"
       x2="32.98"
       y2="16.03"
       gradientUnits="userSpaceOnUse">
      <stop
         offset="0"
         stop-color="#fce94f"
         id="stop32" />
      <stop
         offset=".73"
         stop-color="#c4a000"
         id="stop33" />
    </linearGradient>
    <linearGradient
       id="linear-gradient-29"
       x1="25.1"
       y1="31.38"
       x2="30.27"
       y2="34.94"
       gradientUnits="userSpaceOnUse">
      <stop
         offset="0"
         stop-color="#fce94f"
         id="stop34" />
      <stop
         offset=".58"
         stop-color="#c4a000"
         id="stop35" />
    </linearGradient>
    <linearGradient
       id="linear-gradient-30"
       x1="20.65"
       y1="37.82"
       x2="25.82"
       y2="41.39"
       gradientUnits="userSpaceOnUse">
      <stop
         offset="0"
         stop-color="#fce94f"
         id="stop36" />
      <stop
         offset=".76"
         stop-color="#c4a000"
         id="stop37" />
    </linearGradient>
    <linearGradient
       id="linear-gradient-31"
       x1="21.37"
       y1="32.9"
       x2="26.58"
       y2="37.27"
       xlink:href="#linear-gradient-5" />
    <linearGradient
       id="linear-gradient-32"
       x1="24.26"
       y1="18.7"
       x2="33.36"
       y2="20.34"
       xlink:href="#linear-gradient-5" />
    <linearGradient
       id="linear-gradient-33"
       x1="25.92"
       y1="23.04"
       x2="31.78"
       y2="23.93"
       gradientUnits="userSpaceOnUse">
      <stop
         offset="0"
         stop-color="#fce94f"
         id="stop38" />
      <stop
         offset=".92"
         stop-color="#c4a000"
         id="stop39" />
    </linearGradient>
    <linearGradient
       id="linear-gradient-34"
       x1="21.57"
       y1="24.86"
       x2="37.01"
       y2="29.79"
       xlink:href="#linear-gradient-18" />
    <linearGradient
       id="linear-gradient-35"
       x1="35.42"
       y1="29.7"
       x2="14.06"
       y2="21.11"
       xlink:href="#linear-gradient-19" />
    <linearGradient
       id="linear-gradient-36"
       x1="24.63"
       y1="11.13"
       x2="34.07"
       y2="11.13"
       xlink:href="#linear-gradient-20" />
    <linearGradient
       id="linear-gradient-37"
       x1="31.36"
       y1="14.86"
       x2="28.87"
       y2="10.26"
       xlink:href="#linear-gradient-18" />
    <linearGradient
       id="linear-gradient-38"
       x1="29.95"
       y1="14.13"
       x2="28.12"
       y2="5.08"
       xlink:href="#linear-gradient-18" />
    <linearGradient
       inkscape:collect="always"
       xlink:href="#linear-gradient"
       id="linearGradient87"
       gradientUnits="userSpaceOnUse"
       x1="19.28"
       y1="17.45"
       x2="26.88"
       y2="16.88" />
    <linearGradient
       inkscape:collect="always"
       xlink:href="#linear-gradient-3"
       id="linearGradient88"
       gradientUnits="userSpaceOnUse"
       x1="24.39"
       y1="31.69"
       x2="24.86"
       y2="32.01" />
    <linearGradient
       inkscape:collect="always"
       xlink:href="#linear-gradient-5"
       id="linearGradient89"
       gradientUnits="userSpaceOnUse"
       x1="15.82"
       y1="31.14"
       x2="15.94"
       y2="31.24" />
    <linearGradient
       inkscape:collect="always"
       xlink:href="#linear-gradient-18"
       id="linearGradient90"
       gradientUnits="userSpaceOnUse"
       x1="16.21"
       y1="21.84"
       x2="31"
       y2="26.56" />
    <linearGradient
       inkscape:collect="always"
       xlink:href="#linear-gradient-19"
       id="linearGradient91"
       gradientUnits="userSpaceOnUse"
       x1="29.5"
       y1="26.34"
       x2="8.13"
       y2="17.75" />
    <linearGradient
       inkscape:collect="always"
       xlink:href="#linear-gradient-20"
       id="linearGradient92"
       gradientUnits="userSpaceOnUse"
       x1="18.73"
       y1="7.71"
       x2="28.17"
       y2="7.71" />
  </defs>
  <g
     id="shadow"
     style="opacity:0.45;isolation:isolate;mix-blend-mode:multiply;stroke-width:0.877842"
     transform="matrix(1.29768,0,0,1,-9.80004,1.90267)">
    <ellipse
       cx="25.91"
       cy="36.8"
       rx="19.26"
       ry="7.84"
       transform="rotate(-17.05,25.9294,36.7987)"
       style="fill:url(#radial-gradient);stroke-width:0.877842"
       id="ellipse39" />
  </g>
  <g
     id="ART"
     style="isolation:isolate;stroke-width:0.809727"
     transform="matrix(1.23627,0,0,1.23371,-7.23899,-5.85206)">
    <g
       id="g86"
       style="stroke-width:0.809727">
      <g
         id="g64"
         style="stroke-width:0.809727">
        <path
           d="m 28.15,6.71 c -0.5,4.24 -1.78,10.51 -0.83,13.38 0.95,2.87 1.73,3.77 2.18,5.22 0.45,1.45 0.22,2.74 -1.33,3.81 -1.55,1.07 -3.92,1.94 -4.7,3.86 -0.78,1.92 -0.8,3.46 -2.18,4.7 -1.38,1.24 -2.99,3.19 -6.88,2.37 -1.48,-0.31 -2.6,-3.49 -1.48,-4.89 1.12,-1.4 3.17,-4.01 3.96,-5.45 0.79,-1.44 3.01,-4.64 3.01,-7.56 0,-2.92 -0.88,-11.88 -1.15,-13.01 l 9.41,-2.42 z"
           style="fill:#a3b0b5;stroke-width:0.809727"
           id="path39" />
        <path
           d="m 19.43,24.68 c 0.28,-0.84 0.46,-1.7 0.46,-2.53 0,-2.92 -0.88,-11.88 -1.15,-13.01 l 9.41,-2.42 c -0.5,4.24 -1.78,10.51 -0.83,13.38 0.95,2.87 1.73,3.77 2.18,5.22 0.15,0.5 0.23,0.98 0.19,1.44 L 19.44,24.69 Z"
           style="fill:url(#linearGradient87);stroke-width:0.809727"
           id="path40" />
        <path
           d="m 29.69,26.75 c -0.06,0.87 -0.51,1.67 -1.52,2.36 -1.54,1.06 -3.92,1.94 -4.7,3.86 -0.78,1.92 -0.8,3.46 -2.18,4.7 -1.38,1.24 -4.84,3.87 -7.61,2.1 -1.27,-0.81 -1.77,-3.36 -0.66,-4.75 1.11,-1.39 3.08,-3.87 3.86,-5.32 0.56,-1.03 1.85,-2.95 2.55,-5.03 l 10.25,2.07 z"
           style="fill:url(#linear-gradient-2);stroke-width:0.809727"
           id="path41" />
        <path
           d="m 25.13,31.68 c -0.38,0.22 -0.75,0.46 -1.06,0.76 -0.01,-0.04 -0.05,-0.15 -0.12,-0.3 0.29,-0.39 0.64,-0.72 1.03,-1.02 0.07,0.19 0.12,0.38 0.15,0.56 z"
           style="fill:url(#linearGradient88);stroke-width:0.809727"
           id="path42" />
        <path
           d="m 24.98,31.12 c -0.39,0.3 -0.74,0.63 -1.03,1.02 -0.32,-0.63 -1.27,-2.07 -3.41,-2.81 -1.09,-0.38 -2.24,-0.51 -3.14,-0.51 0,-0.01 0,-0.03 0.03,-0.05 0.07,-0.13 0.15,-0.26 0.22,-0.4 0.13,-0.21 0.26,-0.44 0.39,-0.67 0.07,-0.13 0.15,-0.26 0.22,-0.4 0.87,0.01 1.78,0.11 2.64,0.34 2.39,0.62 3.65,2.18 4.08,3.48 z"
           style="fill:url(#linear-gradient-4);stroke-width:0.809727"
           id="path43" />
        <path
           d="m 15.35,32.02 1.12,-1.61 c -0.32,0.49 -0.7,1.04 -1.12,1.61 z"
           style="fill:url(#linearGradient89);stroke-width:0.809727"
           id="path44" />
        <path
           d="m 23.23,34.15 c -0.28,0.65 -0.45,1.27 -0.64,1.83 L 22.53,35.8 c 0.21,-0.58 0.38,-1.2 0.6,-1.88 0.04,0.08 0.07,0.15 0.1,0.23 z"
           style="fill:url(#linear-gradient-6);stroke-width:0.809727"
           id="path45" />
        <path
           d="m 23.13,33.92 c -0.22,0.68 -0.39,1.3 -0.6,1.88 -0.38,-0.92 -1.48,-2.36 -3.47,-3.15 -1.34,-0.52 -2.72,-0.67 -3.71,-0.63 0.42,-0.57 0.8,-1.12 1.12,-1.61 0.98,0 2.02,0.16 2.99,0.46 2.08,0.63 3.14,1.85 3.67,3.05 z"
           style="fill:url(#linear-gradient-7);stroke-width:0.809727"
           id="path46" />
        <path
           d="m 29.63,25.85 c -0.04,-0.18 -0.08,-0.36 -0.14,-0.55 -0.16,-0.53 -0.37,-0.99 -0.62,-1.51 0.14,0.25 0.7,1.33 0.76,2.06 z"
           style="fill:#edd400;stroke-width:0.809727"
           id="path47" />
        <path
           d="m 28.16,29.11 c -0.43,0.3 -0.92,0.58 -1.43,0.87 0.4,-0.61 0.42,-1.16 0.15,-2.19 -0.23,-0.87 -1.45,-2.76 -1.45,-2.76 0,0 1.95,-0.24 2.56,-0.53 0.62,-0.3 0.85,-0.77 0.85,-0.77 l 0.03,0.06 c 0.25,0.52 0.46,0.98 0.62,1.51 0.06,0.19 0.1,0.37 0.14,0.55 0,0.03 0,0.05 0,0.07 0.21,1.2 -0.16,2.28 -1.48,3.19 z"
           style="fill:url(#linear-gradient-8);stroke-width:0.809727"
           id="path48" />
        <g
           id="g57"
           style="stroke-width:0.809727">
          <path
             d="m 17.77,35.19 c -1.31,-0.25 -4.31,-0.13 -4.44,-0.07 -0.24,0.32 -0.01,0.03 -0.15,0.28 -1.21,2.12 -0.13,4.32 1.32,4.74 2.57,0.74 5.42,-1.21 6.8,-2.46 0.08,-0.07 0.15,-0.15 0.22,-0.23 0.02,-0.33 -0.08,-0.69 -0.4,-1.06 -0.44,-0.51 -2.03,-0.94 -3.35,-1.19 z"
             style="fill:url(#linear-gradient-9);stroke-width:0.809727"
             id="path49" />
          <path
             d="m 18.92,25.96 0.76,-2.14 c -0.07,0.29 -0.15,0.57 -0.25,0.86 -0.14,0.44 -0.31,0.87 -0.51,1.28 z"
             style="fill:url(#linear-gradient-10);stroke-width:0.809727"
             id="path50" />
          <path
             d="m 27.67,29.86 c -0.5,0.28 -1.06,0.54 -1.62,0.83 0.01,-0.1 0.01,-0.2 0.01,-0.31 0.54,-0.33 1.09,-0.63 1.59,-0.94 0.02,0.14 0.02,0.27 0.02,0.42 z"
             style="fill:url(#linear-gradient-11);stroke-width:0.809727"
             id="path51" />
          <path
             d="m 27.65,29.34 c 0,0 0,0.06 0,0.09 v 0 c -0.5,0.32 -1.05,0.62 -1.59,0.95 0,-0.26 -0.04,-0.54 -0.13,-0.84 -0.27,-0.93 -1.36,-2.72 -3.73,-3.47 -1.26,-0.4 -2.52,-0.38 -3.28,-0.11 0.2,-0.41 0.37,-0.84 0.51,-1.28 0.1,-0.29 0.18,-0.57 0.25,-0.86 0.49,-0.03 0.97,0 1.44,0.05 1.59,0.19 3.03,0.26 4.56,-0.12 0.68,-0.17 1.74,-0.39 2.3,-0.93 0.32,0.75 0.61,1.34 0.85,1.88 -0.85,0.51 -2.01,0.89 -3.22,1.11 1.18,1.01 1.95,2.42 2.04,3.53 z"
             style="fill:url(#linear-gradient-12);stroke-width:0.809727"
             id="path52" />
          <path
             d="m 27.7,10.01 c -0.13,0.95 -0.27,1.92 -0.39,2.89 -0.84,0.5 -1.84,0.9 -2.93,1.16 -0.88,0.21 -1.79,0.31 -2.65,0.31 -0.86,0 -1.7,-0.1 -2.39,-0.31 -0.07,-0.74 -0.14,-1.45 -0.22,-2.09 0,0 1.95,0.79 4.8,0.14 2.13,-0.48 3.34,-1.48 3.78,-2.1 z"
             style="fill:url(#linear-gradient-13);stroke-width:0.809727"
             id="path53" />
          <path
             d="m 21.94,37.67 c -0.21,0.33 -0.47,0.62 -0.82,0.87 -0.18,0.13 -0.43,0.25 -0.72,0.33 -0.03,-0.11 -0.08,-0.22 -0.16,-0.34 -0.45,-0.83 -1.64,-1.98 -3.39,-2.68 -1.51,-0.61 -3.13,-0.64 -4.07,-0.47 0,-0.01 0,-0.01 0,-0.01 l 0.91,-1.19 c 0.12,-0.16 0.25,-0.33 0.39,-0.5 1.22,-0.03 2.52,0.14 3.59,0.58 1.8,0.72 3.2,1.8 4,3.01 0.1,0.13 0.19,0.26 0.26,0.4 z"
             style="fill:url(#linear-gradient-14);stroke-width:0.809727"
             id="path54" />
          <path
             d="m 21.68,37.27 c -0.12,0.14 -0.25,0.27 -0.39,0.4 -0.28,0.25 -0.63,0.55 -1.05,0.86 -0.45,-0.83 -1.64,-1.98 -3.39,-2.68 -1.51,-0.61 -3.13,-0.64 -4.07,-0.47 0,-0.01 0,-0.01 0,-0.01 0.06,-0.13 0.14,-0.24 0.23,-0.35 0.2,-0.25 0.43,-0.54 0.68,-0.84 0.12,-0.16 0.25,-0.33 0.39,-0.5 1.22,-0.03 2.52,0.14 3.59,0.58 1.8,0.72 3.2,1.8 4,3.01 z"
             style="fill:url(#linear-gradient-15);stroke-width:0.809727"
             id="path55" />
          <path
             d="m 27.14,14.42 c -0.08,0.87 -0.14,1.7 -0.15,2.48 -0.77,0.41 -1.65,0.74 -2.61,0.97 -0.88,0.2 -1.79,0.3 -2.65,0.3 -0.74,0 -1.44,-0.07 -2.05,-0.22 -0.05,-0.7 -0.11,-1.42 -0.17,-2.13 0.69,0.3 2.39,0.58 4.41,0.1 1.52,-0.36 2.58,-0.96 3.22,-1.5 z"
             style="fill:url(#linear-gradient-16);stroke-width:0.809727"
             id="path56" />
          <path
             d="m 27.51,20.6 c -0.82,0.47 -1.79,0.85 -2.85,1.1 -0.89,0.21 -1.8,0.31 -2.65,0.31 -0.75,0 -1.47,-0.08 -2.09,-0.23 0,-0.57 -0.04,-1.29 -0.09,-2.11 0.71,0.3 2.38,0.56 4.37,0.09 1.27,-0.3 2.22,-0.77 2.86,-1.23 0.05,0.6 0.14,1.13 0.29,1.58 0.06,0.17 0.11,0.33 0.16,0.49 z"
             style="fill:url(#linear-gradient-17);stroke-width:0.809727"
             id="path57" />
        </g>
        <path
           d="m 29.49,25.3 c -0.44,-1.45 -1.22,-2.35 -2.17,-5.22 -0.95,-2.87 0.33,-9.13 0.83,-13.37 l -1.18,0.3 -2.82,3.03 c 2.32,-0.66 3.08,-1.96 3.08,-1.96 0,0 0.5,-0.53 0.31,0.47 -0.19,1 -2.18,2.37 -3.38,2.57 -0.04,0 -0.07,0.02 -0.11,0.02 0.57,3.3 1.5,12.32 1.38,13.9 -0.13,1.75 -0.41,1.87 -1.41,3.64 -1.01,1.76 -2.22,3.79 -3.49,5.66 -1.28,1.87 -2.17,3.94 -3.88,4.34 -1.28,0.3 -2.65,0.41 -3.42,-0.87 -0.3,-0.5 -0.43,-1.09 -0.45,-1.67 0.02,0.47 -0.15,0.9 -0.08,1.39 0.07,0.47 0.26,0.9 0.46,1.32 0.34,0.73 0.94,1.43 1.8,1.48 2.13,0.14 4.95,-1.41 6.33,-2.65 1.38,-1.24 1.4,-2.78 2.18,-4.7 0.78,-1.92 3.15,-2.8 4.69,-3.86 1.55,-1.06 1.78,-2.36 1.33,-3.81 z"
           style="opacity:0.4;mix-blend-mode:multiply;fill:url(#linearGradient90);stroke-width:0.809727"
           id="path58" />
        <path
           d="m 27.23,8.08 c 0,0 -1.16,2.03 -5.09,2.3 0.08,-0.57 0.23,-1.01 0.5,-1.23 0.53,-0.45 0.66,-0.87 0.6,-1.16 l -4.49,1.15 c 0.28,1.13 1.16,10.09 1.16,13.01 0,2.92 -2.23,6.12 -3.01,7.56 -0.68,1.24 -1.54,2.4 -2.37,3.55 -0.41,0.57 -0.89,1.11 -1.2,1.75 -0.31,0.64 -0.41,1.85 0.14,2.38 0.57,0.56 1.53,0.49 2.06,-0.09 0.6,-0.65 -0.66,-0.97 -0.59,-1.93 0.08,-0.97 3.04,-4.88 5.77,-6.19 2.73,-1.31 1.54,-4.19 1.88,-6.09 0.51,-2.79 -0.41,-7.7 -0.52,-10.94 0.28,-0.42 1.05,-0.88 2.1,-1.05 1.19,-0.2 3.19,-1.57 3.38,-2.57 0.19,-1 -0.31,-0.47 -0.31,-0.47 z"
           style="opacity:0.5;fill:url(#linearGradient91);stroke-width:0.809727"
           id="path59" />
        <path
           d="m 28.17,6.52 c 0,-1.19 -2.28,-1.81 -4.89,-1.13 -2.61,0.68 -4.56,2.38 -4.56,3.57 0,1.19 2.52,1.74 5.13,1.07 2.61,-0.67 4.32,-2.31 4.32,-3.51 z"
           style="fill:url(#linearGradient92);stroke-width:0.809727"
           id="path60" />
        <path
           d="m 28.17,6.52 c 0,-1.19 -2.28,-1.81 -4.89,-1.13 -2.61,0.68 -4.56,2.38 -4.56,3.57 0,1.19 2.52,1.74 5.13,1.07 2.61,-0.67 4.32,-2.31 4.32,-3.51 z"
           style="opacity:0.6;mix-blend-mode:multiply;fill:url(#linear-gradient-21);stroke-width:0.809727"
           id="path61" />
        <path
           d="m 23.28,5.38 c -2.61,0.67 -4.56,2.38 -4.56,3.57 0,0.54 0.53,0.95 1.34,1.17 1.04,-1.83 4.85,-2.73 7.17,-1.9 0.59,-0.58 0.93,-1.18 0.93,-1.7 0,-1.19 -2.28,-1.81 -4.89,-1.13 z"
           style="opacity:0.6;mix-blend-mode:multiply;fill:url(#linear-gradient-22);stroke-width:0.809727"
           id="path62" />
        <path
           d="m 29.49,25.31 c -0.45,-1.45 -1.23,-2.35 -2.18,-5.22 -0.95,-2.87 0.33,-9.14 0.83,-13.38 h -0.02 c 0,-0.06 0.03,-0.13 0.03,-0.2 0,-1.19 -2.28,-1.81 -4.89,-1.13 -2.61,0.67 -4.56,2.38 -4.56,3.57 0,0.06 0.01,0.12 0.02,0.18 v 0 c 0.28,1.13 1.15,10.09 1.15,13.01 0,0.84 -0.18,1.7 -0.46,2.53 -0.7,2.08 -1.99,4 -2.55,5.03 -0.78,1.44 -1.82,2.91 -3.21,4.54 -2.03,2.39 -1.27,4.95 0.43,5.8 2.45,1.23 5.8,-1.13 7.18,-2.37 1.38,-1.24 1.39,-2.78 2.18,-4.7 0.79,-1.92 3.15,-2.8 4.7,-3.86 1.01,-0.7 1.46,-1.49 1.52,-2.36 0.03,-0.46 -0.04,-0.94 -0.19,-1.44 z"
           style="fill:none;stroke:#204a87;stroke-width:0.56681px;stroke-linecap:round;stroke-linejoin:round"
           id="path63" />
        <path
           d="m 28.17,6.52 c 0,-1.19 -2.28,-1.81 -4.89,-1.13 -2.61,0.68 -4.56,2.38 -4.56,3.57 0,1.19 2.52,1.74 5.13,1.07 2.61,-0.67 4.32,-2.31 4.32,-3.51 z"
           style="fill:none;stroke:#204a87;stroke-width:0.56681px;stroke-linecap:round;stroke-linejoin:round"
           id="path64" />
      </g>
      <g
         id="g85"
         style="stroke-width:0.809727">
        <path
           d="m 34.05,10.13 c -0.5,4.24 -1.78,10.51 -0.83,13.38 0.95,2.87 1.73,3.77 2.18,5.22 0.45,1.45 0.22,2.74 -1.33,3.81 -1.55,1.07 -3.92,1.94 -4.7,3.86 -0.78,1.92 -0.8,3.46 -2.18,4.7 -1.38,1.24 -6.3,1.82 -7.81,1.72 -1.51,-0.1 -2.27,-1.82 -1.16,-3.21 1.11,-1.39 3.78,-5.04 4.56,-6.48 0.78,-1.44 3.01,-4.64 3.01,-7.56 0,-2.92 -0.88,-11.88 -1.15,-13.01 l 9.41,-2.42 z"
           style="fill:#a3b0b5;stroke-width:0.809727"
           id="path65" />
        <path
           d="m 25.33,28.09 c 0.28,-0.84 0.46,-1.7 0.46,-2.53 0,-2.92 -0.88,-11.88 -1.15,-13.01 l 9.41,-2.42 c -0.5,4.24 -1.78,10.51 -0.83,13.38 0.95,2.87 1.73,3.77 2.18,5.22 0.15,0.5 0.23,0.98 0.19,1.44 L 25.34,28.1 Z"
           style="fill:url(#linear-gradient-23);stroke-width:0.809727"
           id="path66" />
        <path
           d="m 35.59,30.17 c -0.06,0.87 -0.51,1.67 -1.52,2.36 -1.54,1.06 -3.92,1.94 -4.7,3.86 -0.78,1.92 -0.8,3.46 -2.18,4.7 -1.38,1.24 -6.3,1.82 -7.81,1.72 -1.51,-0.1 -2.27,-1.82 -1.16,-3.21 1.11,-1.39 3.78,-5.04 4.56,-6.48 0.56,-1.03 1.85,-2.95 2.55,-5.03 l 10.25,2.07 z"
           style="fill:url(#linear-gradient-24);stroke-width:0.809727"
           id="path67" />
        <path
           d="m 35.53,29.27 c -0.04,-0.18 -0.08,-0.36 -0.14,-0.55 -0.16,-0.53 -0.37,-0.99 -0.62,-1.51 0.14,0.25 0.7,1.33 0.76,2.06 z"
           style="fill:#edd400;stroke-width:0.809727"
           id="path68" />
        <path
           d="m 34.06,32.53 c -0.43,0.3 -0.92,0.58 -1.43,0.87 0.4,-0.61 0.42,-1.16 0.15,-2.19 -0.23,-0.87 -1.45,-2.76 -1.45,-2.76 0,0 1.95,-0.24 2.56,-0.53 0.62,-0.3 0.85,-0.77 0.85,-0.77 l 0.03,0.06 c 0.25,0.52 0.46,0.98 0.62,1.51 0.06,0.19 0.1,0.37 0.14,0.55 0,0.03 0,0.05 0,0.07 0.21,1.2 -0.16,2.28 -1.48,3.19 z"
           style="fill:url(#linear-gradient-25);stroke-width:0.809727"
           id="path69" />
        <g
           id="g78"
           style="stroke-width:0.809727">
          <path
             d="m 23.67,38.61 c -1.31,-0.25 -3.53,-0.32 -4.59,0.09 0,0 -0.09,0.03 -0.22,0.08 -0.24,0.32 -0.46,0.6 -0.64,0.82 -1.12,1.39 -0.35,3.12 1.16,3.21 1.51,0.09 6.43,-0.48 7.81,-1.72 0.08,-0.07 0.15,-0.15 0.22,-0.23 0.02,-0.33 -0.08,-0.69 -0.4,-1.06 -0.44,-0.51 -2.03,-0.94 -3.35,-1.19 z"
             style="fill:url(#linear-gradient-26);stroke-width:0.809727"
             id="path70" />
          <path
             d="m 33.72,32.22 c 0.02,0.17 0.02,0.34 0.02,0.52 -0.5,0.32 -1.06,0.62 -1.62,0.96 0.03,-0.32 0.01,-0.72 -0.12,-1.14 -0.27,-0.91 -1.36,-2.61 -3.73,-3.17 -1.44,-0.34 -2.88,-0.12 -3.58,0.3 0.34,-0.74 0.66,-1.52 0.86,-2.32 0.55,-0.09 1.11,-0.11 1.64,-0.09 1.59,0.06 3.03,0 4.56,-0.49 0.68,-0.22 1.74,-0.53 2.3,-1.12 0.32,0.73 0.61,1.29 0.85,1.81 -0.85,0.58 -2.01,1.06 -3.22,1.38 1.18,0.91 1.95,2.26 2.04,3.36 z"
             style="fill:url(#linear-gradient-27);stroke-width:0.809727"
             id="path71" />
          <path
             d="m 33.6,13.43 c -0.13,0.95 -0.27,1.92 -0.39,2.89 -0.84,0.5 -1.84,0.9 -2.93,1.16 -0.88,0.21 -1.79,0.31 -2.65,0.31 -0.86,0 -1.7,-0.1 -2.39,-0.31 -0.07,-0.74 -0.14,-1.45 -0.22,-2.09 0,0 1.95,0.79 4.8,0.14 2.13,-0.48 3.34,-1.48 3.78,-2.1 z"
             style="fill:url(#linear-gradient-28);stroke-width:0.809727"
             id="path72" />
          <path
             d="m 31.2,34.3 c -0.38,0.27 -0.75,0.57 -1.06,0.91 -0.06,-0.22 -0.9,-2.07 -3.53,-2.61 -1.26,-0.26 -2.6,-0.18 -3.54,0.02 0.28,-0.47 0.62,-1.04 0.98,-1.68 0.95,-0.15 1.97,-0.19 2.92,-0.08 2.75,0.32 4,2.09 4.23,3.44 z"
             style="fill:url(#linear-gradient-29);stroke-width:0.809727"
             id="path73" />
          <path
             d="m 28.01,40.09 c -0.21,0.36 -0.47,0.69 -0.82,1 -0.18,0.16 -0.43,0.32 -0.72,0.45 -0.27,-0.78 -1.54,-1.98 -3.55,-2.45 -1.87,-0.45 -3.9,0 -4.62,0.42 0.39,-0.51 0.97,-1.26 1.58,-2.09 1.29,-0.27 2.72,-0.34 3.87,-0.06 2,0.48 3.51,1.49 4.26,2.73 z"
             style="fill:url(#linear-gradient-30);stroke-width:0.809727"
             id="path74" />
          <path
             d="m 29.3,36.58 c -0.28,0.7 -0.45,1.35 -0.64,1.95 -0.29,-0.84 -1.4,-2.23 -3.53,-2.69 -1.62,-0.34 -3.29,-0.12 -4.27,0.2 0.48,-0.67 0.93,-1.33 1.31,-1.9 v 0 c 1.09,-0.22 2.27,-0.29 3.36,-0.15 2.21,0.27 3.27,1.41 3.77,2.59 z"
             style="fill:url(#linear-gradient-31);stroke-width:0.809727"
             id="path75" />
          <path
             d="m 33.04,17.84 c -0.08,0.87 -0.14,1.7 -0.15,2.48 -0.77,0.41 -1.65,0.74 -2.61,0.97 -0.88,0.2 -1.79,0.3 -2.65,0.3 -0.74,0 -1.44,-0.07 -2.05,-0.22 -0.05,-0.7 -0.11,-1.42 -0.17,-2.13 0.69,0.3 2.39,0.58 4.41,0.1 1.52,-0.36 2.58,-0.96 3.22,-1.5 z"
             style="fill:url(#linear-gradient-32);stroke-width:0.809727"
             id="path76" />
          <path
             d="m 33.38,23.99 c -0.82,0.47 -1.79,0.85 -2.85,1.1 -0.89,0.21 -1.8,0.31 -2.65,0.31 -0.75,0 -1.47,-0.08 -2.09,-0.23 0,-0.57 -0.04,-1.29 -0.09,-2.11 0.71,0.3 2.38,0.56 4.37,0.09 1.27,-0.3 2.22,-0.77 2.86,-1.23 0.05,0.6 0.14,1.13 0.29,1.58 0.06,0.17 0.11,0.33 0.16,0.49 z"
             style="fill:url(#linear-gradient-33);stroke-width:0.809727"
             id="path77" />
          <path
             d="m 34.05,10.13 c -0.5,4.24 -1.78,10.51 -0.83,13.38 0.95,2.87 1.73,3.77 2.18,5.22 0.45,1.45 0.22,2.74 -1.33,3.81 -1.55,1.07 -3.92,1.94 -4.7,3.86 -0.78,1.92 -0.79,3.29 -2.18,4.7 -1.07,1.09 -6.3,1.82 -7.81,1.72 -1.51,-0.1 -2.27,-1.82 -1.16,-3.21 1.11,-1.39 3.78,-5.04 4.56,-6.48 0.78,-1.44 3.01,-4.64 3.01,-7.56 0,-2.92 -0.88,-11.88 -1.15,-13.01"
             style="fill:none;stroke-width:0.809727"
             id="path78" />
        </g>
        <path
           d="m 35.39,28.72 c -0.44,-1.45 -1.22,-2.35 -2.17,-5.22 -0.95,-2.87 0.33,-9.13 0.83,-13.37 l -1.18,0.3 -1.4,1.7 c 0.04,0.19 0.07,0.41 0.09,0.65 1.19,-0.64 1.62,-1.38 1.62,-1.38 0,0 0.5,-0.53 0.31,0.47 -0.12,0.64 -0.98,1.37 -1.9,1.9 -0.01,2.87 -0.69,7.62 0.67,10.45 1.66,3.47 2.18,4.06 1.79,5.76 -0.39,1.71 -2.27,1.82 -3.79,3.17 -1.53,1.34 -2.06,2.66 -2.47,4.88 -0.42,2.23 -3.51,2.46 -5.25,2.71 -1.73,0.25 -3.63,1.22 -4.1,0.84 -0.47,-0.38 -0.78,-0.7 -0.46,-1.63 -0.75,1.31 0.01,2.78 1.39,2.86 1.51,0.1 6.43,-0.48 7.81,-1.72 1.38,-1.24 1.4,-2.78 2.18,-4.7 0.78,-1.92 3.15,-2.8 4.69,-3.86 1.55,-1.06 1.78,-2.36 1.33,-3.81 z"
           style="opacity:0.4;mix-blend-mode:multiply;fill:url(#linear-gradient-34);stroke-width:0.809727"
           id="path79" />
        <path
           d="m 33.18,11.4 c 0,0 -1.18,2.06 -5.17,2.31 0.09,-0.54 0.25,-0.96 0.52,-1.15 0.57,-0.4 0.66,-0.87 0.6,-1.16 l -4.49,1.15 c 0.28,1.13 1.16,10.09 1.16,13.01 0,2.92 -2.23,6.12 -3.01,7.56 -0.79,1.44 -3.45,5.09 -4.57,6.48 -0.08,0.11 -0.16,0.22 -0.22,0.33 0.01,0.34 0.17,0.58 0.84,0.68 1.07,0.16 2.57,-0.28 3.17,-0.93 0.6,-0.65 -0.66,-0.97 -0.59,-1.93 0.08,-0.97 2.46,-3.84 5.19,-5.15 2.73,-1.31 1.54,-4.19 1.88,-6.09 0.5,-2.75 -0.42,-7.63 -0.55,-10.86 0.16,-0.46 0.79,-0.83 2.18,-1.22 1.16,-0.33 3.19,-1.57 3.38,-2.57 0.19,-1 -0.31,-0.47 -0.31,-0.47 z"
           style="opacity:0.5;fill:url(#linear-gradient-35);stroke-width:0.809727"
           id="path80" />
        <path
           d="m 34.07,9.94 c 0,-1.19 -2.28,-1.81 -4.89,-1.13 -2.61,0.68 -4.56,2.38 -4.56,3.57 0,1.19 2.52,1.74 5.13,1.07 2.61,-0.67 4.32,-2.31 4.32,-3.51 z"
           style="fill:url(#linear-gradient-36);stroke-width:0.809727"
           id="path81" />
        <path
           d="m 34.07,9.94 c 0,-1.19 -2.28,-1.81 -4.89,-1.13 -2.61,0.68 -4.56,2.38 -4.56,3.57 0,1.19 2.52,1.74 5.13,1.07 2.61,-0.67 4.32,-2.31 4.32,-3.51 z"
           style="opacity:0.6;mix-blend-mode:multiply;fill:url(#linear-gradient-37);stroke-width:0.809727"
           id="path82" />
        <path
           d="m 29.18,8.8 c -2.61,0.67 -4.56,2.38 -4.56,3.57 0,0.54 0.53,0.95 1.34,1.17 1.04,-1.83 4.85,-2.73 7.17,-1.9 0.59,-0.58 0.93,-1.18 0.93,-1.7 0,-1.19 -2.28,-1.81 -4.89,-1.13 z"
           style="opacity:0.6;mix-blend-mode:multiply;fill:url(#linear-gradient-38);stroke-width:0.809727"
           id="path83" />
        <path
           d="m 35.39,28.72 c -0.45,-1.45 -1.23,-2.35 -2.18,-5.22 -0.95,-2.87 0.33,-9.14 0.83,-13.38 h -0.02 c 0,-0.06 0.03,-0.13 0.03,-0.2 0,-1.19 -2.28,-1.81 -4.89,-1.13 -2.61,0.67 -4.56,2.38 -4.56,3.57 0,0.06 0.01,0.12 0.02,0.18 v 0 c 0.28,1.13 1.15,10.09 1.15,13.01 0,0.84 -0.18,1.7 -0.46,2.53 -0.7,2.08 -1.99,4 -2.55,5.03 -0.78,1.44 -3.45,5.09 -4.56,6.48 -1.11,1.39 -0.33,2.97 1.16,3.21 2.13,0.35 6.43,-0.48 7.81,-1.72 1.38,-1.24 1.39,-2.78 2.18,-4.7 0.79,-1.92 3.15,-2.8 4.7,-3.86 1.01,-0.7 1.46,-1.49 1.52,-2.36 0.03,-0.46 -0.04,-0.94 -0.19,-1.44 z"
           style="fill:none;stroke:#204a87;stroke-width:0.56681px;stroke-linecap:round;stroke-linejoin:round"
           id="path84" />
        <path
           d="m 34.07,9.94 c 0,-1.19 -2.28,-1.81 -4.89,-1.13 -2.61,0.68 -4.56,2.38 -4.56,3.57 0,1.19 2.52,1.74 5.13,1.07 2.61,-0.67 4.32,-2.31 4.32,-3.51 z"
           style="fill:none;stroke:#204a87;stroke-width:0.56681px;stroke-linecap:round;stroke-linejoin:round"
           id="path85" />
      </g>
    </g>
  </g>
</svg>
