<?xml version="1.0" encoding="UTF-8" standalone="no"?>
<svg
   viewBox="0 0 48 48"
   version="1.1"
   id="svg40"
   sodipodi:docname="tilepattern.svg"
   inkscape:version="1.3.2 (091e20e, 2023-11-25, custom)"
   xmlns:inkscape="http://www.inkscape.org/namespaces/inkscape"
   xmlns:sodipodi="http://sodipodi.sourceforge.net/DTD/sodipodi-0.dtd"
   xmlns:xlink="http://www.w3.org/1999/xlink"
   xmlns="http://www.w3.org/2000/svg"
   xmlns:svg="http://www.w3.org/2000/svg">
  <sodipodi:namedview
     id="namedview40"
     pagecolor="#ffffff"
     bordercolor="#666666"
     borderopacity="1.0"
     inkscape:showpageshadow="2"
     inkscape:pageopacity="0.0"
     inkscape:pagecheckerboard="0"
     inkscape:deskcolor="#d1d1d1"
     inkscape:zoom="16.2929"
     inkscape:cx="23.5071"
     inkscape:cy="26.576"
     inkscape:current-layer="svg40" />
  <defs
     id="defs6">
    <radialGradient
       id="radial-gradient"
       cx="-393.22"
       cy="-44.87"
       fx="-393.22"
       fy="-44.87"
       r="8.81"
       gradientTransform="matrix(0.178449,2.3733,-1.05309,0.398486,46.4,986.12)"
       gradientUnits="userSpaceOnUse">
      <stop
         offset=".28"
         stop-color="#2c2c2c"
         stop-opacity=".5"
         id="stop1" />
      <stop
         offset=".99"
         stop-color="#2c2c2c"
         stop-opacity="0"
         id="stop2" />
    </radialGradient>
    <linearGradient
       id="linear-gradient"
       x1="41.36"
       y1="33.92"
       x2="28.32"
       y2="26.59"
       gradientUnits="userSpaceOnUse">
      <stop
         offset="0"
         stop-color="#babdb6"
         id="stop3" />
      <stop
         offset="1"
         stop-color="#555753"
         id="stop4" />
    </linearGradient>
    <linearGradient
       id="linear-gradient-2"
       x1="11.61"
       y1="10.6"
       x2="36.39"
       y2="10.6"
       gradientTransform="matrix(1, 0, 0, 1, 0, 0)"
       gradientUnits="userSpaceOnUse">
      <stop
         offset="0"
         stop-color="#fff"
         stop-opacity="0"
         id="stop5" />
      <stop
         offset="1"
         stop-color="#fff8f8"
         id="stop6" />
    </linearGradient>
    <linearGradient
       id="linear-gradient-3"
       x1="8.52"
       y1="34.94"
       x2="33.5"
       y2="16.92"
       xlink:href="#linear-gradient-2" />
    <linearGradient
       inkscape:collect="always"
       xlink:href="#linear-gradient-2"
       id="linearGradient40"
       gradientUnits="userSpaceOnUse"
       x1="11.61"
       y1="10.6"
       x2="36.39"
       y2="10.6" />
  </defs>
  <g
     id="shadow"
     style="opacity:0.45;isolation:isolate;mix-blend-mode:multiply"
     transform="translate(1.16615,0.613764)">
    <ellipse
       cx="23.59"
       cy="35.64"
       rx="9.08"
       ry="20.36"
       transform="rotate(-65.72,23.5951,35.6349)"
       style="fill:url(#radial-gradient)"
       id="ellipse6" />
  </g>
  <g
     id="ART"
     style="isolation:isolate;stroke-width:0.888011"
     transform="matrix(1.1268,0,0,1.12542,-3.25172,-3.37847)">
    <g
       id="g39"
       style="stroke-width:0.888011">
      <g
         id="g36"
         style="stroke-width:0.888011">
        <polygon
           points="33.29,17.74 33.29,44.55 11.61,32.03 11.61,5.23 "
           style="fill:#fefff0;stroke-width:0.888011"
           id="polygon6" />
        <path
           d="M 13.11,10.52 14,11.03 13.37,9.89 14.55,9.11 15.18,10.26 V 9.15 l 0.92,0.54 -1.51,-2.73 -2.99,1.97 1.51,2.73 z m 0,-2.56 0.84,0.49 V 9.49 L 13.11,9 Z"
           style="fill:#0c3572;stroke-width:0.888011"
           id="path6" />
        <path
           d="m 29.72,17.54 v 1.1 l 0.63,-0.41 1.18,2.14 -0.63,0.42 0.89,0.51 v 1.14 l 1.5,-0.99 -2.99,-5.42 -1.51,0.99 0.92,0.53 z m 2.07,1.2 v 1.04 l -0.84,-0.49 v -1.04 z"
           style="fill:#0c3572;stroke-width:0.888011"
           id="path7" />
        <path
           d="m 31.79,39.26 -0.89,-0.51 0.63,1.14 -1.18,0.78 -0.63,-1.15 v 1.11 l -0.92,-0.54 1.51,2.73 2.99,-1.97 -1.51,-2.73 z m 0,2.56 -0.84,-0.49 v -1.04 l 0.84,0.49 z"
           style="fill:#0c3572;stroke-width:0.888011"
           id="path8" />
        <path
           d="m 15.18,32.24 v -1.1 L 14.55,31.55 13.37,29.41 14,28.99 13.11,28.48 v -1.14 l -1.5,0.99 2.99,5.42 1.51,-0.99 -0.92,-0.53 z m -2.07,-1.2 V 30 l 0.84,0.49 v 1.04 z"
           style="fill:#0c3572;stroke-width:0.888011"
           id="path9" />
        <g
           id="g11"
           style="stroke-width:0.888011">
          <path
             d="m 32.34,30.6 c 0,-2.55 -1.67,-5.59 -3.74,-6.78 v -2.98 l -2.41,-1.39 c 0,-2.56 -1.68,-5.59 -3.74,-6.79 -2.06,-1.2 -3.74,-0.09 -3.74,2.47 L 16.3,13.74 v 2.98 c -2.07,-1.19 -3.74,-0.09 -3.74,2.47 0,2.56 1.67,5.59 3.74,6.78 v 2.98 l 2.41,1.39 c 0,2.56 1.68,5.59 3.74,6.79 2.06,1.2 3.74,0.09 3.74,-2.47 l 2.41,1.39 v -2.98 c 2.07,1.19 3.74,0.09 3.74,-2.47 z"
             style="fill:#ffffff;stroke-width:0.888011"
             id="path10" />
          <path
             d="m 32.34,30.6 c 0,-2.55 -1.67,-5.59 -3.74,-6.78 v -2.98 l -2.41,-1.39 c 0,-2.56 -1.68,-5.59 -3.74,-6.79 -2.06,-1.2 -3.74,-0.09 -3.74,2.47 L 16.3,13.74 v 2.98 c -2.07,-1.19 -3.74,-0.09 -3.74,2.47 0,2.56 1.67,5.59 3.74,6.78 v 2.98 l 2.41,1.39 c 0,2.56 1.68,5.59 3.74,6.79 2.06,1.2 3.74,0.09 3.74,-2.47 l 2.41,1.39 v -2.98 c 2.07,1.19 3.74,0.09 3.74,-2.47 z"
             style="fill:none;stroke:#0c3572;stroke-width:0.621608px;stroke-miterlimit:10"
             id="path11" />
        </g>
        <polygon
           points="27.59,21.5 27.59,34.2 17.31,28.27 17.31,15.57 "
           style="fill:#3465a4;stroke-width:0.888011"
           id="polygon11" />
        <path
           d="m 25.18,23.89 -5.46,-3.15 v -5.03 c 0,-1.86 1.22,-2.67 2.73,-1.81 1.51,0.86 2.73,3.09 2.73,4.96 z"
           style="fill:#3465a4;stroke-width:0.888011"
           id="path12" />
        <path
           d="m 20.37,20.31 v 6.75 L 16.3,24.71 c -1.51,-0.87 -2.73,-3.09 -2.73,-4.95 0,-1.86 1.23,-2.67 2.73,-1.8 z"
           style="fill:#3465a4;stroke-width:0.888011"
           id="path13" />
        <path
           d="m 19.72,25.89 5.46,3.15 v 5.03 c 0,1.86 -1.22,2.67 -2.73,1.81 -1.51,-0.86 -2.73,-3.09 -2.73,-4.96 z"
           style="fill:#3465a4;stroke-width:0.888011"
           id="path14" />
        <path
           d="m 24.53,29.47 v -6.75 l 4.07,2.35 c 1.51,0.87 2.73,3.09 2.73,4.95 0,1.86 -1.23,2.67 -2.73,1.8 z"
           style="fill:#3465a4;stroke-width:0.888011"
           id="path15" />
        <path
           d="m 28.74,28.51 c 0,0 -0.91,-2.03 -2.08,-3.35 0.46,-1.22 0.24,-3.2 0.24,-3.2 0,0 -1.5,-1.14 -2.7,-1.27 -0.52,-1.75 -1.74,-3.57 -1.74,-3.57 0,0 -1.22,0.42 -1.74,1.56 -1.2,-1.26 -2.7,-1.85 -2.7,-1.85 0,0 -0.22,1.73 0.24,3.48 -1.17,-0.03 -2.08,0.95 -2.08,0.95 0,0 0.91,2.03 2.08,3.35 -0.46,1.22 -0.24,3.2 -0.24,3.2 0,0 1.5,1.14 2.7,1.27 0.52,1.75 1.74,3.57 1.74,3.57 0,0 1.22,-0.42 1.74,-1.56 1.2,1.26 2.7,1.85 2.7,1.85 0,0 0.22,-1.73 -0.24,-3.48 1.17,0.03 2.08,-0.95 2.08,-0.95 z"
           style="fill:#ffffff;stroke-width:0.888011"
           id="path16" />
        <g
           id="g24"
           style="stroke-width:0.888011">
          <path
             d="m 22.45,22.12 c -0.14,-0.58 -0.39,-1.4 -0.85,-2.25 -1.14,-2.08 -3.59,-3.04 -3.59,-3.04 0,0 -0.36,2.82 0.79,4.89 0.46,0.83 1,1.45 1.4,1.85"
             style="fill:none;stroke:#3465a4;stroke-width:0.444005px;stroke-miterlimit:10"
             id="path17" />
          <path
             d="m 20.87,22.03 c -0.39,-0.46 -0.95,-1.04 -1.61,-1.42 -1.62,-0.95 -3.09,0.66 -3.09,0.66 0,0 1.48,3.31 3.09,4.23 0.65,0.37 1.2,0.44 1.59,0.43"
             style="fill:none;stroke:#3465a4;stroke-width:0.444005px;stroke-miterlimit:10"
             id="path18" />
          <path
             d="m 20.22,23.6 c -0.41,-0.07 -0.95,-0.07 -1.42,0.23 -1.15,0.74 -0.79,3.98 -0.79,3.98 0,0 2.45,1.86 3.59,1.1 0.45,-0.31 0.71,-0.82 0.85,-1.24"
             style="fill:none;stroke:#3465a4;stroke-width:0.444005px;stroke-miterlimit:10"
             id="path19" />
          <path
             d="m 20.87,25.94 c -0.19,0.37 -0.4,0.95 -0.4,1.75 -0.01,1.99 1.98,4.97 1.98,4.97 0,0 1.99,-0.68 1.98,-2.68 0,-0.8 -0.2,-1.61 -0.39,-2.19"
             style="fill:none;stroke:#3465a4;stroke-width:0.444005px;stroke-miterlimit:10"
             id="path20" />
          <path
             d="m 22.46,27.65 c 0.14,0.58 0.39,1.4 0.85,2.25 1.14,2.08 3.59,3.04 3.59,3.04 0,0 0.36,-2.82 -0.79,-4.89 -0.46,-0.83 -1,-1.45 -1.4,-1.85"
             style="fill:none;stroke:#3465a4;stroke-width:0.444005px;stroke-miterlimit:10"
             id="path21" />
          <path
             d="m 24.03,27.75 c 0.39,0.46 0.95,1.04 1.61,1.42 1.62,0.95 3.09,-0.66 3.09,-0.66 0,0 -1.48,-3.31 -3.09,-4.23 -0.65,-0.37 -1.2,-0.44 -1.59,-0.43"
             style="fill:none;stroke:#3465a4;stroke-width:0.444005px;stroke-miterlimit:10"
             id="path22" />
          <path
             d="m 24.69,26.17 c 0.41,0.07 0.95,0.07 1.42,-0.23 1.15,-0.74 0.79,-3.98 0.79,-3.98 0,0 -2.45,-1.86 -3.59,-1.1 -0.45,0.31 -0.71,0.82 -0.85,1.24"
             style="fill:none;stroke:#3465a4;stroke-width:0.444005px;stroke-miterlimit:10"
             id="path23" />
          <path
             d="m 24.03,23.84 c 0.19,-0.37 0.4,-0.95 0.4,-1.75 0.01,-1.99 -1.98,-4.97 -1.98,-4.97 0,0 -1.99,0.68 -1.98,2.68 0,0.8 0.2,1.61 0.39,2.19"
             style="fill:none;stroke:#3465a4;stroke-width:0.444005px;stroke-miterlimit:10"
             id="path24" />
        </g>
        <g
           id="g32"
           style="stroke-width:0.888011">
          <path
             d="m 22.94,23.58 c 0,-0.34 -0.49,-1.46 -0.49,-1.46 0,0 -0.49,0.56 -0.49,0.89 0,0.33 0.22,0.73 0.49,0.89 0.27,0.16 0.49,0.01 0.49,-0.32 z"
             style="fill:none;stroke:#3465a4;stroke-width:0.444005px;stroke-miterlimit:10"
             id="path25" />
          <path
             d="m 21.89,23.01 c -0.19,-0.35 -1.02,-0.99 -1.02,-0.99 0,0 0.13,1.1 0.32,1.45 0.19,0.35 0.5,0.53 0.69,0.4 0.19,-0.13 0.19,-0.51 0,-0.86 z"
             style="fill:none;stroke:#3465a4;stroke-width:0.444005px;stroke-miterlimit:10"
             id="path26" />
          <path
             d="m 21.17,23.54 c -0.27,-0.16 -0.95,0.06 -0.95,0.06 0,0 0.68,1 0.95,1.16 0.27,0.16 0.49,0.01 0.49,-0.32 0,-0.33 -0.22,-0.73 -0.49,-0.89 z"
             style="fill:none;stroke:#3465a4;stroke-width:0.444005px;stroke-miterlimit:10"
             id="path27" />
          <path
             d="m 21.2,24.85 c -0.19,0.13 -0.32,1.07 -0.32,1.07 0,0 0.83,0.31 1.02,0.19 0.19,-0.12 0.19,-0.51 0,-0.86 -0.19,-0.35 -0.5,-0.53 -0.69,-0.4 z"
             style="fill:none;stroke:#3465a4;stroke-width:0.444005px;stroke-miterlimit:10"
             id="path28" />
          <path
             d="m 21.96,26.19 c 0,0.34 0.49,1.46 0.49,1.46 0,0 0.49,-0.56 0.49,-0.89 0,-0.34 -0.22,-0.73 -0.49,-0.89 -0.27,-0.16 -0.49,-0.01 -0.49,0.32 z"
             style="fill:none;stroke:#3465a4;stroke-width:0.444005px;stroke-miterlimit:10"
             id="path29" />
          <path
             d="m 23.01,26.76 c 0.19,0.35 1.02,0.99 1.02,0.99 0,0 -0.13,-1.1 -0.32,-1.45 -0.19,-0.35 -0.5,-0.53 -0.69,-0.4 -0.19,0.13 -0.19,0.51 0,0.86 z"
             style="fill:none;stroke:#3465a4;stroke-width:0.444005px;stroke-miterlimit:10"
             id="path30" />
          <path
             d="m 23.73,26.23 c 0.27,0.16 0.95,-0.06 0.95,-0.06 0,0 -0.68,-1 -0.95,-1.16 -0.27,-0.16 -0.49,-0.01 -0.49,0.32 0,0.33 0.22,0.73 0.49,0.89 z"
             style="fill:none;stroke:#3465a4;stroke-width:0.444005px;stroke-miterlimit:10"
             id="path31" />
          <path
             d="m 23.7,24.92 c 0.19,-0.13 0.32,-1.07 0.32,-1.07 0,0 -0.83,-0.31 -1.02,-0.19 -0.19,0.12 -0.19,0.51 0,0.86 0.19,0.35 0.5,0.53 0.69,0.4 z"
             style="fill:none;stroke:#3465a4;stroke-width:0.444005px;stroke-miterlimit:10"
             id="path32" />
        </g>
        <path
           d="m 29.57,27.8 c -0.21,0.39 -0.55,0.61 -0.97,0.64 0.41,0.5 0.75,1.12 0.97,1.76 0.21,-0.39 0.55,-0.61 0.97,-0.64 -0.41,-0.5 -0.75,-1.12 -0.97,-1.76 z"
           style="fill:#ffffff;stroke-width:0.888011"
           id="path33" />
        <path
           d="m 21.48,15.53 c 0.41,0.5 0.75,1.12 0.97,1.76 0.21,-0.39 0.55,-0.61 0.97,-0.64 -0.41,-0.5 -0.75,-1.12 -0.97,-1.76 -0.21,0.39 -0.55,0.61 -0.97,0.64 z"
           style="fill:#ffffff;stroke-width:0.888011"
           id="path34" />
        <path
           d="m 15.33,21.98 c 0.21,-0.39 0.55,-0.61 0.97,-0.64 -0.41,-0.5 -0.75,-1.12 -0.97,-1.76 -0.21,0.39 -0.55,0.61 -0.97,0.64 0.41,0.5 0.75,1.12 0.97,1.76 z"
           style="fill:#ffffff;stroke-width:0.888011"
           id="path35" />
        <path
           d="m 23.42,34.25 c -0.41,-0.5 -0.75,-1.12 -0.97,-1.76 -0.21,0.39 -0.55,0.61 -0.97,0.64 0.41,0.5 0.75,1.12 0.97,1.76 0.21,-0.39 0.55,-0.61 0.97,-0.64 z"
           style="fill:#ffffff;stroke-width:0.888011"
           id="path36" />
      </g>
      <polygon
         points="36.39,42.77 36.39,15.97 33.29,17.74 33.29,44.55 "
         style="fill:url(#linear-gradient);stroke-width:0.888011"
         id="polygon36" />
      <polygon
         points="14.71,3.45 11.61,5.23 33.29,17.74 36.39,15.97 "
         style="fill:#d3d7cf;stroke-width:0.888011"
         id="polygon37" />
      <polygon
         points="14.71,3.45 11.61,5.23 33.29,17.74 36.39,15.97 "
         style="fill:url(#linearGradient40);stroke-width:0.888011"
         id="polygon38" />
      <path
         d="M 33.29,44.55 11.61,32.04 V 5.23 c 3.47,12.83 10.09,25.89 21.68,39.32 z"
         style="fill:url(#linear-gradient-3);stroke-width:0.888011"
         id="path38" />
      <polygon
         points="11.61,5.23 11.61,32.03 33.29,44.55 36.39,42.77 36.39,15.97 14.71,3.45 "
         style="fill:none;stroke:#555753;stroke-width:0.621608px;stroke-linecap:round;stroke-linejoin:round"
         id="polygon39" />
    </g>
  </g>
</svg>
