<?xml version="1.0" encoding="UTF-8" standalone="no"?>
<svg
   sodipodi:docname="locked_stage.svg"
   inkscape:version="1.1 (c68e22c387, 2021-05-23)"
   version="1.1"
   id="svg6759"
   height="16"
   width="16"
   xmlns:inkscape="http://www.inkscape.org/namespaces/inkscape"
   xmlns:sodipodi="http://sodipodi.sourceforge.net/DTD/sodipodi-0.dtd"
   xmlns:xlink="http://www.w3.org/1999/xlink"
   xmlns="http://www.w3.org/2000/svg"
   xmlns:svg="http://www.w3.org/2000/svg"
   xmlns:rdf="http://www.w3.org/1999/02/22-rdf-syntax-ns#"
   xmlns:cc="http://creativecommons.org/ns#"
   xmlns:dc="http://purl.org/dc/elements/1.1/">
  <defs
     id="defs6761">
    <linearGradient
       inkscape:collect="always"
       id="linearGradient23716">
      <stop
         style="stop-color:#888a85;stop-opacity:1"
         offset="0"
         id="stop23712" />
      <stop
         style="stop-color:#2e3436;stop-opacity:1"
         offset="1"
         id="stop23714" />
    </linearGradient>
    <linearGradient
       inkscape:collect="always"
       id="linearGradient22196">
      <stop
         style="stop-color:#003a63;stop-opacity:1"
         offset="0"
         id="stop22192" />
      <stop
         style="stop-color:#001e33;stop-opacity:1"
         offset="1"
         id="stop22194" />
    </linearGradient>
    <linearGradient
       inkscape:collect="always"
       id="linearGradient19667">
      <stop
         style="stop-color:#eeeeec;stop-opacity:1"
         offset="0"
         id="stop19663" />
      <stop
         style="stop-color:#d3d7cf;stop-opacity:1"
         offset="1"
         id="stop19665" />
    </linearGradient>
    <linearGradient
       inkscape:collect="always"
       xlink:href="#linearGradient19667"
       id="linearGradient19669"
       x1="5.3327532"
       y1="2.9125228"
       x2="12.08184"
       y2="12.938287"
       gradientUnits="userSpaceOnUse" />
    <radialGradient
       inkscape:collect="always"
       xlink:href="#linearGradient22196"
       id="radialGradient22198"
       cx="5.3927164"
       cy="6.3150473"
       fx="5.3927164"
       fy="6.3150473"
       r="5.8410213"
       gradientTransform="matrix(1.4161891,-0.00306298,0.00219319,1.0140315,-2.4114712,-0.25177263)"
       gradientUnits="userSpaceOnUse" />
    <linearGradient
       inkscape:collect="always"
       xlink:href="#linearGradient23716"
       id="linearGradient23718"
       x1="3.9734626"
       y1="1.8510859"
       x2="12.342925"
       y2="14.023424"
       gradientUnits="userSpaceOnUse"
       gradientTransform="translate(0,-0.57142857)" />
  </defs>
  <sodipodi:namedview
     inkscape:document-rotation="0"
     inkscape:guide-bbox="true"
     showguides="true"
     inkscape:window-maximized="1"
     inkscape:window-y="-8"
     inkscape:window-x="-8"
     inkscape:window-height="1557"
     inkscape:window-width="2880"
     inkscape:document-units="px"
     inkscape:grid-bbox="true"
     showgrid="true"
     inkscape:current-layer="layer1"
     inkscape:cy="6.9910714"
     inkscape:cx="7.7232142"
     inkscape:zoom="56"
     inkscape:pageshadow="2"
     inkscape:pageopacity="0.0"
     borderopacity="1.0"
     bordercolor="#666666"
     pagecolor="#ffffff"
     id="base"
     inkscape:snap-global="false"
     inkscape:pagecheckerboard="0">
    <inkscape:grid
       type="xygrid"
       id="grid18539" />
  </sodipodi:namedview>
  <metadata
     id="metadata6764">
    <rdf:RDF>
      <cc:Work
         rdf:about="">
        <dc:format>image/svg+xml</dc:format>
        <dc:type
           rdf:resource="http://purl.org/dc/dcmitype/StillImage" />
        <dc:title />
      </cc:Work>
    </rdf:RDF>
  </metadata>
  <g
     inkscape:groupmode="layer"
     inkscape:label="Layer 1"
     id="layer1">
    <path
       id="rect18283"
       style="overflow:visible;fill:#babdb6;stroke:url(#linearGradient23718);stroke-width:1;stroke-miterlimit:2.33333;stop-color:#000000"
       d="m 2.3877889,1.9185464 c 3.6724064,-0.4783982 7.3748132,-0.5311816 11.1183821,0 0.716806,0.1017088 1.120756,0.5752556 1.308354,1.2374369 0.81614,2.8808097 0.89203,7.0538757 0,9.8673697 -0.208196,0.656652 -0.586653,1.17383 -1.308354,1.237437 -3.7061273,0.326641 -7.4122548,0.346672 -11.1183821,0 -0.7213085,-0.06747 -1.1580148,-0.566805 -1.308353,-1.237437 -0.5773825,-2.575604 -0.836463,-6.6231603 0,-9.8673697 0.1717226,-0.666023 0.5903043,-1.1438979 1.308353,-1.2374369 z"
       sodipodi:nodetypes="sssssssss" />
    <path
       id="path19525"
       style="overflow:visible;fill:none;stroke:url(#linearGradient19669);stroke-width:1;stroke-miterlimit:2.33333;stop-color:#000000"
       sodipodi:type="inkscape:offset"
       inkscape:radius="-1.0209041"
       inkscape:original="M 7.9199219 2.1113281 C 6.0673233 2.117926 4.2248751 2.2510353 2.3886719 2.4902344 C 1.6706232 2.5837734 1.2518007 3.0605395 1.0800781 3.7265625 C 0.24361513 6.9707719 0.50269562 9.697834 1.0800781 12.273438 C 1.2304163 12.944069 1.6673634 13.444249 2.3886719 13.511719 C 6.0947992 13.858391 9.7997321 13.83836 13.505859 13.511719 C 14.22756 13.448112 14.606257 12.930089 14.814453 12.273438 C 15.706483 9.4599438 15.630593 6.6073722 14.814453 3.7265625 C 14.626855 3.0643812 14.222665 2.5919432 13.505859 2.4902344 C 11.634075 2.2246436 9.7725205 2.1047302 7.9199219 2.1113281 z "
       d="m 7.9238281,3.1328125 c -1.8061088,0.00643 -3.6047774,0.1349747 -5.4023437,0.3691406 -0.3278347,0.042706 -0.3521896,0.088993 -0.453125,0.4804688 -0.7892063,3.0609251 -0.5501828,5.5792382 0.00781,8.0683591 0.081679,0.364357 0.1146567,0.417855 0.4082031,0.445313 3.6396795,0.340456 7.2811515,0.319784 10.931641,-0.002 0.134963,-0.0119 0.141497,-0.02382 0.201172,-0.08594 0.05967,-0.06212 0.151032,-0.211298 0.224609,-0.443359 C 14.668702,9.356755 14.60452,6.7306361 13.832031,4.0039062 13.714546,3.5892079 13.697575,3.5493866 13.363281,3.5019531 11.542395,3.2435843 9.7299385,3.1263802 7.9238281,3.1328125 Z"
       transform="translate(0,-0.57142857)" />
    <path
       id="path20037"
       style="overflow:visible;fill:url(#radialGradient22198);fill-opacity:1;stroke-width:1;stroke-miterlimit:2.33333;stop-color:#000000"
       d="M 7.9245121,3.0607798 C 6.1138218,3.0672285 2.9421657,3.1721696 2.5933796,3.4452054 2.2445934,3.7182411 2.0984365,5.2647397 2.051949,7.3482699 2.005461,9.4318001 2.3667446,11.114038 2.6298955,11.396317 c 0.2631508,0.282278 3.6729402,0.260175 5.3790319,0.272975 1.7060916,0.0128 5.0146536,0.114234 5.3175856,-0.242273 0.302932,-0.356506 0.612722,-2.6449381 0.604419,-4.0342621 -0.0083,-1.389324 -0.215889,-3.735294 -0.558725,-3.962447 C 13.02937,3.2031569 9.7352024,3.0543311 7.9245121,3.0607798 Z"
       sodipodi:nodetypes="zzzzzzzzz" />
    <rect
       style="color:#000000;overflow:visible;fill:#ffffff;fill-opacity:1;stroke:none;stroke-width:0.5;stroke-miterlimit:2.33333;stroke-dasharray:none;stroke-opacity:1;stop-color:#000000"
       id="rect26883"
       width="2.0535715"
       height="6.0995984"
       x="5.4642863"
       y="4.4361167"
       ry="0" />
    <rect
       style="color:#000000;overflow:visible;fill:#ffffff;fill-opacity:1;stroke:none;stroke-width:0.5;stroke-miterlimit:2.33333;stroke-dasharray:none;stroke-opacity:1;stop-color:#000000"
       id="rect26983"
       width="2.0535715"
       height="6.0995979"
       x="8.5357141"
       y="4.3928576"
       ry="0" />
  </g>
</svg>
