<?xml version="1.0" encoding="utf-8"?>
<!-- Generator: Adobe Illustrator 19.0.0, SVG Export Plug-In . SVG Version: 6.00 Build 0)  -->
<svg version="1.1" id="layer" xmlns="http://www.w3.org/2000/svg" xmlns:xlink="http://www.w3.org/1999/xlink" x="0px" y="0px"
	 viewBox="-153 -46 652 652" style="enable-background:new -153 -46 652 652;" xml:space="preserve">
<path d="M-105.4,419.4c0,14,2,24.6,6.6,30.6c4.6,6,11.1,9.3,21,9.3c9.8,0,17-3.3,21-9.3c3.9-6,6.6-16.6,6.6-30.6V24.5h68.1v367.7
	c0,14.6,0,26.6-0.7,35.9c-0.7,9.3-1.3,17.3-2,23.9c-0.7,6.6-2.6,12.6-4.6,17.3c-2,4.7-4.6,10-7.9,15.3
	c-8.5,12.6-19.7,21.9-34.1,29.3c-14.4,7.3-30.1,10.6-47.2,10.6c-17,0-32.8-3.3-47.2-10.6c-14.4-7.3-25.6-16.6-34.1-29.3
	c-3.3-5.3-5.9-10.6-7.9-15.3c-2-4.7-3.3-10.6-4.6-17.3c-1.3-6.6-2-14.6-2-23.9c0.7-9.3,0.7-21.3,0.7-35.9V24.5h68.1V419.4z
	 M121.9,517.2H56.4l66.2-492.7h87.1l63.5,492.7h-66.2l-12.4-111h-60.9L121.9,517.2z M163.9,113.6l-22.9,228.1h46.5L163.9,113.6z
	 M385.3,24.5c15.1,0,27.5,0.7,38,1.3c10.5,0.7,19.7,2.7,27.5,5.3c7.9,2.7,14.4,6,19.7,10.6c5.2,4.7,10.5,10,15.7,16
	c4.6,6.6,8.5,14,11.8,20.6c3.3,6.6,5.9,14,7.9,22.6c2,8.6,3.3,18.6,3.9,29.9c0.7,11.3,1.3,24.6,1.3,39.9c0,16-0.7,30.6-1.3,41.9
	c-0.7,12-2,21.9-3.9,30.6s-4.6,16-7.9,22.6c-3.3,6.6-7.2,12.6-12.4,18.6c-17.7,21.3-47.2,31.9-87.8,31.9h-9.2v200.1h-68.1v-492
	H385.3z M397.8,253.2c9.8,0,18.3-1.3,24.2-3.3c5.9-2,10.5-6,14.4-12c3.3-6,5.9-14,7.2-25.3c1.3-10.6,2-24.6,2-41.9
	c0-17.3-0.7-31.3-2-41.2c-1.3-10.6-3.3-18.6-7.2-24.6c-3.3-6-8.5-10-14.4-12c-5.9-2-13.8-3.3-24.2-3.3h-9.2v163.6H397.8z"/>
</svg>
