<?xml version="1.0" encoding="UTF-8"?>
<svg xmlns="http://www.w3.org/2000/svg" xmlns:xlink="http://www.w3.org/1999/xlink" viewBox="0 0 528.9 324.25">
  <defs>
    <style>
      .cls-1 {
        fill: none;
        opacity: 0;
        stroke: #231f20;
        stroke-linecap: round;
        stroke-linejoin: round;
      }

      .cls-2 {
        fill: #010101;
        filter: url(#drop-shadow-1);
      }
    </style>
    <filter id="drop-shadow-1" x="376.07" y="49.45" width="76.08" height="58.8" filterUnits="userSpaceOnUse">
      <feOffset dx="3" dy="3"/>
      <feGaussianBlur result="blur" stdDeviation="2"/>
      <feFlood flood-color="#565656" flood-opacity="1"/>
      <feComposite in2="blur" operator="in"/>
      <feComposite in="SourceGraphic"/>
    </filter>
  </defs>
  <g id="KEEP_ON_FOR_EXPORT">
    <line class="cls-1" x1="373" y1="37.57" x2="373.71" y2="36.86"/>
    <line class="cls-1" x1="448" y1="112.57" x2="448.71" y2="111.86"/>
  </g>
  <g id="ICON">
    <path class="cls-2" d="M385.72,89.34c0,1.3.19,2.29.61,2.84s1.03.86,1.95.86,1.58-.31,1.95-.86c.36-.56.61-1.54.61-2.84v-36.71h6.33v34.18c0,1.36,0,2.47-.07,3.34s-.12,1.61-.19,2.22-.24,1.17-.43,1.61c-.19.44-.43.93-.73,1.42-.79,1.17-1.83,2.04-3.17,2.72-1.34.68-2.8.99-4.39.99s-3.05-.31-4.39-.99-2.38-1.54-3.17-2.72c-.31-.49-.55-.99-.73-1.42-.19-.44-.31-.99-.43-1.61-.12-.61-.19-1.36-.19-2.22.07-.86.07-1.98.07-3.34v-34.18h6.33v36.71h.02ZM406.85,98.43h-6.09l6.15-45.8h8.1l5.9,45.8h-6.15l-1.15-10.32h-5.66l-1.1,10.32ZM410.75,60.91l-2.13,21.2h4.32l-2.19-21.2ZM431.33,52.63c1.4,0,2.56.07,3.53.12.98.07,1.83.25,2.56.49.73.25,1.34.56,1.83.99.48.44.98.93,1.46,1.49.43.61.79,1.3,1.1,1.91s.55,1.3.73,2.1.31,1.73.36,2.78c.07,1.05.12,2.29.12,3.71s-.07,2.84-.12,3.89c-.07,1.12-.19,2.04-.36,2.84s-.43,1.49-.73,2.1-.67,1.17-1.15,1.73c-1.65,1.98-4.39,2.97-8.16,2.97h-.86v18.6h-6.33v-45.73h6.02ZM432.49,73.89c.91,0,1.7-.12,2.25-.31.55-.19.98-.56,1.34-1.12.31-.56.55-1.3.67-2.35.12-.99.19-2.29.19-3.89s-.07-2.91-.19-3.83c-.12-.99-.31-1.73-.67-2.29-.31-.56-.79-.93-1.34-1.12s-1.28-.31-2.25-.31h-.86v15.21h.86Z"/>
  </g>
</svg>