<?xml version="1.0" encoding="utf-8"?>
<!-- Generator: Adobe Illustrator 28.2.0, SVG Export Plug-In . SVG Version: 6.00 Build 0)  -->
<svg version="1.1" xmlns="http://www.w3.org/2000/svg" xmlns:xlink="http://www.w3.org/1999/xlink" x="0px" y="0px"
	 viewBox="0 0 75 75" style="enable-background:new 0 0 75 75;" xml:space="preserve">
<style type="text/css">
	.st0{display:none;}
	.st1{display:inline;}
	
		.st2{fill-rule:evenodd;clip-rule:evenodd;fill:none;stroke:#FF0000;stroke-width:0;stroke-linecap:round;stroke-linejoin:round;stroke-miterlimit:10;}
	.st3{display:inline;fill-rule:evenodd;clip-rule:evenodd;fill:#C7F799;}
	.st4{display:inline;fill-rule:evenodd;clip-rule:evenodd;fill:url(#SVGID_1_);}
	.st5{display:inline;fill-rule:evenodd;clip-rule:evenodd;fill:#231F20;}
	.st6{display:inline;fill-rule:evenodd;clip-rule:evenodd;}
	.st7{display:inline;fill-rule:evenodd;clip-rule:evenodd;fill:none;stroke:#231F20;stroke-width:5;stroke-miterlimit:10;}
	.st8{display:inline;fill-rule:evenodd;clip-rule:evenodd;fill:none;stroke:#000000;stroke-width:3.11;stroke-miterlimit:10;}
	.st9{fill-rule:evenodd;clip-rule:evenodd;fill:none;stroke:#000000;stroke-width:3.11;stroke-miterlimit:10;}
	
		.st10{fill-rule:evenodd;clip-rule:evenodd;fill:none;stroke:#000000;stroke-width:3.11;stroke-linecap:round;stroke-miterlimit:10;}
	
		.st11{display:inline;fill-rule:evenodd;clip-rule:evenodd;fill:none;stroke:#000000;stroke-width:3.11;stroke-linejoin:round;stroke-miterlimit:10;}
	
		.st12{fill-rule:evenodd;clip-rule:evenodd;fill:none;stroke:#000000;stroke-width:3.11;stroke-linejoin:round;stroke-miterlimit:10;}
	
		.st13{fill-rule:evenodd;clip-rule:evenodd;fill:none;stroke:#000000;stroke-width:3.11;stroke-linecap:round;stroke-linejoin:round;stroke-miterlimit:10;}
	
		.st14{display:inline;opacity:0.01;fill:none;stroke:#000000;stroke-width:1.000000e-03;stroke-linecap:round;stroke-linejoin:round;stroke-miterlimit:10;}
	
		.st15{opacity:0.01;fill:none;stroke:#000000;stroke-width:1.000000e-03;stroke-linecap:round;stroke-linejoin:round;stroke-miterlimit:10;}
	.st16{fill-rule:evenodd;clip-rule:evenodd;fill:#FF4A00;}
	.st17{fill-rule:evenodd;clip-rule:evenodd;fill:#FFFFFF;}
	.st18{fill-rule:evenodd;clip-rule:evenodd;fill:#6380FA;}
	.st19{fill-rule:evenodd;clip-rule:evenodd;fill:#122675;}
	.st20{fill-rule:evenodd;clip-rule:evenodd;fill:#B5B5B5;}
	.st21{fill-rule:evenodd;clip-rule:evenodd;fill:#CC0000;}
	.st22{fill-rule:evenodd;clip-rule:evenodd;fill:#FF8F61;}
	
		.st23{fill-rule:evenodd;clip-rule:evenodd;fill:none;stroke:#000000;stroke-width:3.1;stroke-linejoin:round;stroke-miterlimit:10;}
	.st24{fill-rule:evenodd;clip-rule:evenodd;fill:none;stroke:#000000;stroke-width:3.1;stroke-miterlimit:10;}
	.st25{fill-rule:evenodd;clip-rule:evenodd;}
	.st26{fill-rule:evenodd;clip-rule:evenodd;fill:#C4C4C4;}
	.st27{fill-rule:evenodd;clip-rule:evenodd;fill:#7E726E;}
	.st28{fill-rule:evenodd;clip-rule:evenodd;fill:none;stroke:#231F20;stroke-width:3.1;stroke-miterlimit:10;}
	.st29{fill-rule:evenodd;clip-rule:evenodd;fill:none;stroke:#000000;stroke-width:2;stroke-miterlimit:10;}
</style>
<g id="GUIDE" class="st0">
	<g class="st1">
		<line class="st2" x1="0" y1="75" x2="0" y2="0"/>
		<line class="st2" x1="3.13" y1="75" x2="3.13" y2="0"/>
		<line class="st2" x1="6.25" y1="75" x2="6.25" y2="0"/>
		<line class="st2" x1="9.38" y1="75" x2="9.38" y2="0"/>
		<line class="st2" x1="12.5" y1="75" x2="12.5" y2="0"/>
		<line class="st2" x1="15.63" y1="75" x2="15.63" y2="0"/>
		<line class="st2" x1="18.75" y1="75" x2="18.75" y2="0"/>
		<line class="st2" x1="21.88" y1="75" x2="21.88" y2="0"/>
		<line class="st2" x1="25" y1="75" x2="25" y2="0"/>
		<line class="st2" x1="28.13" y1="75" x2="28.13" y2="0"/>
		<line class="st2" x1="31.25" y1="75" x2="31.25" y2="0"/>
		<line class="st2" x1="34.38" y1="75" x2="34.38" y2="0"/>
		<line class="st2" x1="37.5" y1="75" x2="37.5" y2="0"/>
		<line class="st2" x1="40.63" y1="75" x2="40.63" y2="0"/>
		<line class="st2" x1="43.75" y1="75" x2="43.75" y2="0"/>
		<line class="st2" x1="46.88" y1="75" x2="46.88" y2="0"/>
		<line class="st2" x1="50" y1="75" x2="50" y2="0"/>
		<line class="st2" x1="53.13" y1="75" x2="53.13" y2="0"/>
		<line class="st2" x1="56.25" y1="75" x2="56.25" y2="0"/>
		<line class="st2" x1="59.38" y1="75" x2="59.38" y2="0"/>
		<line class="st2" x1="62.5" y1="75" x2="62.5" y2="0"/>
		<line class="st2" x1="65.63" y1="75" x2="65.63" y2="0"/>
		<line class="st2" x1="68.75" y1="75" x2="68.75" y2="0"/>
		<line class="st2" x1="71.88" y1="75" x2="71.88" y2="0"/>
		<line class="st2" x1="75" y1="75" x2="75" y2="0"/>
		<line class="st2" x1="75" y1="75" x2="0" y2="75"/>
		<line class="st2" x1="75" y1="71.87" x2="0" y2="71.87"/>
		<line class="st2" x1="75" y1="68.75" x2="0" y2="68.75"/>
		<line class="st2" x1="75" y1="65.62" x2="0" y2="65.62"/>
		<line class="st2" x1="75" y1="62.5" x2="0" y2="62.5"/>
		<line class="st2" x1="75" y1="59.37" x2="0" y2="59.37"/>
		<line class="st2" x1="75" y1="56.25" x2="0" y2="56.25"/>
		<line class="st2" x1="75" y1="53.12" x2="0" y2="53.12"/>
		<line class="st2" x1="75" y1="50" x2="0" y2="50"/>
		<line class="st2" x1="75" y1="46.87" x2="0" y2="46.87"/>
		<line class="st2" x1="75" y1="43.75" x2="0" y2="43.75"/>
		<line class="st2" x1="75" y1="40.62" x2="0" y2="40.62"/>
		<line class="st2" x1="75" y1="37.5" x2="0" y2="37.5"/>
		<line class="st2" x1="75" y1="34.37" x2="0" y2="34.37"/>
		<line class="st2" x1="75" y1="31.25" x2="0" y2="31.25"/>
		<line class="st2" x1="75" y1="28.12" x2="0" y2="28.12"/>
		<line class="st2" x1="75" y1="25" x2="0" y2="25"/>
		<line class="st2" x1="75" y1="21.87" x2="0" y2="21.87"/>
		<line class="st2" x1="75" y1="18.75" x2="0" y2="18.75"/>
		<line class="st2" x1="75" y1="15.62" x2="0" y2="15.62"/>
		<line class="st2" x1="75" y1="12.5" x2="0" y2="12.5"/>
		<line class="st2" x1="75" y1="9.37" x2="0" y2="9.37"/>
		<line class="st2" x1="75" y1="6.25" x2="0" y2="6.25"/>
		<line class="st2" x1="75" y1="3.12" x2="0" y2="3.12"/>
		<line class="st2" x1="75" y1="0" x2="0" y2="0"/>
	</g>
	<rect x="-285.77" y="212.02" class="st3" width="75" height="75.01"/>
	<linearGradient id="SVGID_1_" gradientUnits="userSpaceOnUse" x1="-277.1311" y1="1.0821" x2="-278.0241" y2="1.0811">
		<stop  offset="0" style="stop-color:#FFFFFF"/>
		<stop  offset="1" style="stop-color:#231F20"/>
	</linearGradient>
	<polygon class="st4" points="-282.65,12.01 -273.27,12.01 -273.27,8.89 -276.4,8.89 -276.4,-9.86 -279.52,-9.86 -279.52,-6.74 
		-282.65,-6.74 -282.65,-3.61 -279.52,-3.61 -279.52,8.89 -282.65,8.89 	"/>
	<polygon class="st5" points="-229.52,-9.86 -229.52,5.76 -220.15,5.76 -220.15,12.01 -217.02,12.01 -217.02,5.76 -213.9,5.76 
		-213.9,2.64 -217.02,2.64 -217.02,-3.61 -220.15,-3.61 -220.15,2.64 -226.4,2.64 -226.4,-9.86 	"/>
	<polygon class="st5" points="-210.77,37.01 -198.27,37.01 -198.27,33.89 -207.65,33.89 -207.65,27.64 -201.4,27.64 -201.4,24.51 
		-207.65,24.51 -207.65,18.26 -198.27,18.26 -198.27,15.14 -210.77,15.14 	"/>
	<polygon class="st5" points="-192.02,37.01 -188.9,37.01 -188.9,27.64 -182.65,27.64 -182.65,24.51 -188.9,24.51 -188.9,18.26 
		-179.52,18.26 -179.52,15.14 -192.02,15.14 	"/>
	<polygon class="st6" points="-154.52,15.14 -154.52,37.01 -151.4,37.01 -151.4,27.64 -142.02,27.64 -142.02,37.01 -138.9,37.01 
		-138.9,15.14 -142.02,15.14 -142.02,24.51 -151.4,24.51 -151.4,15.14 	"/>
	<polygon class="st5" points="-132.65,15.14 -132.65,18.26 -129.52,18.26 -129.52,33.89 -132.65,33.89 -132.65,37.01 -123.27,37.01 
		-123.27,33.89 -126.4,33.89 -126.4,18.26 -123.27,18.26 -123.27,15.14 	"/>
	<polygon class="st5" points="-267.02,40.14 -267.02,62.01 -254.52,62.01 -254.52,58.89 -263.9,58.89 -263.9,40.14 	"/>
	<polygon class="st5" points="-120.15,40.14 -120.15,43.26 -113.9,43.26 -113.9,62.01 -110.77,62.01 -110.77,43.26 -104.52,43.26 
		-104.52,40.14 	"/>
	<g class="st1">
		<text transform="matrix(1 0 0 1.0393 -373.3527 128.2547)" style="font-family:'Arial-BoldMT'; font-size:11.5466px;">U</text>
		<text transform="matrix(1 0 0 1.0393 -365.882 128.2547)" style="font-family:'Arial-BoldMT'; font-size:11.5466px;">s</text>
		<text transform="matrix(1 0 0 1.0393 -361.3092 128.2547)" style="font-family:'Arial-BoldMT'; font-size:11.5466px;">e</text>
		<text transform="matrix(1 0 0 1.0393 -353.0768 128.2547)" style="font-family:'Arial-BoldMT'; font-size:11.5466px;">t</text>
		<text transform="matrix(1 0 0 1.0393 -349.2545 128.2547)" style="font-family:'Arial-BoldMT'; font-size:11.5466px;">h</text>
		<text transform="matrix(1 0 0 1.0393 -342.8463 128.2547)" style="font-family:'Arial-BoldMT'; font-size:11.5466px;">i</text>
		<text transform="matrix(1 0 0 1.0393 -340.1442 128.2547)" style="font-family:'Arial-BoldMT'; font-size:11.5466px;">s</text>
		<text transform="matrix(1 0 0 1.0393 -333.1246 128.2547)" style="font-family:'Arial-BoldMT'; font-size:11.5466px;">g</text>
		<text transform="matrix(1 0 0 1.0393 -326.6696 128.2547)" style="font-family:'Arial-BoldMT'; font-size:11.5466px;">r</text>
		<text transform="matrix(1 0 0 1.0393 -322.8942 128.2547)" style="font-family:'Arial-BoldMT'; font-size:11.5466px;">i</text>
		<text transform="matrix(1 0 0 1.0393 -320.192 128.2547)" style="font-family:'Arial-BoldMT'; font-size:11.5466px;">d</text>
		<text transform="matrix(1 0 0 1.0393 -311.2321 128.2547)" style="font-family:'Arial-BoldMT'; font-size:11.5466px;">t</text>
		<text transform="matrix(1 0 0 1.0393 -307.4098 128.2547)" style="font-family:'Arial-BoldMT'; font-size:11.5466px;">o</text>
		<text transform="matrix(1 0 0 1.0393 -298.6227 128.2547)" style="font-family:'Arial-BoldMT'; font-size:11.5466px;">a</text>
		<text transform="matrix(1 0 0 1.0393 -293.0573 128.2547)" style="font-family:'Arial-BoldMT'; font-size:11.5466px;">l</text>
		<text transform="matrix(1 0 0 1.0393 -290.3326 128.2547)" style="font-family:'Arial-BoldMT'; font-size:11.5466px;">i</text>
		<text transform="matrix(1 0 0 1.0393 -287.6305 128.2547)" style="font-family:'Arial-BoldMT'; font-size:11.5466px;">g</text>
		<text transform="matrix(1 0 0 1.0393 -281.1764 128.2547)" style="font-family:'Arial-BoldMT'; font-size:11.5466px;">n</text>
		<text transform="matrix(1 0 0 1.0393 -272.3199 128.2547)" style="font-family:'Arial-BoldMT'; font-size:11.5466px;">y</text>
		<text transform="matrix(1 0 0 1.0393 -266.8815 128.2547)" style="font-family:'Arial-BoldMT'; font-size:11.5466px;">o</text>
		<text transform="matrix(1 0 0 1.0393 -260.5426 128.2547)" style="font-family:'Arial-BoldMT'; font-size:11.5466px;">u</text>
		<text transform="matrix(1 0 0 1.0393 -254.1803 128.2547)" style="font-family:'Arial-BoldMT'; font-size:11.5466px;">r</text>
		<text transform="matrix(1 0 0 1.0393 -247.9566 128.2547)" style="font-family:'Arial-BoldMT'; font-size:11.5466px;">o</text>
		<text transform="matrix(1 0 0 1.0393 -241.6178 128.2547)" style="font-family:'Arial-BoldMT'; font-size:11.5466px;">b</text>
		<text transform="matrix(1 0 0 1.0393 -235.0475 128.2547)" style="font-family:'Arial-BoldMT'; font-size:11.5466px;">j</text>
		<text transform="matrix(1 0 0 1.0393 -232.2418 128.2547)" style="font-family:'Arial-BoldMT'; font-size:11.5466px;">e</text>
		<text transform="matrix(1 0 0 1.0393 -226.4566 128.2547)" style="font-family:'Arial-BoldMT'; font-size:11.5466px;">c</text>
		<text transform="matrix(1 0 0 1.0393 -221.2838 128.2547)" style="font-family:'Arial-BoldMT'; font-size:11.5466px;">t</text>
		<text transform="matrix(1 0 0 1.0393 -217.4615 128.2547)" style="font-family:'Arial-BoldMT'; font-size:11.5466px;">s</text>
		<text transform="matrix(1 0 0 1.0393 -210.442 128.2547)" style="font-family:'Arial-BoldMT'; font-size:11.5466px;">o</text>
		<text transform="matrix(1 0 0 1.0393 -204.1021 128.2547)" style="font-family:'Arial-BoldMT'; font-size:11.5466px;">n</text>
		<text transform="matrix(1 0 0 1.0393 -197.694 128.2547)" style="font-family:'Arial-BoldMT'; font-size:11.5466px;">t</text>
		<text transform="matrix(1 0 0 1.0393 -193.8717 128.2547)" style="font-family:'Arial-BoldMT'; font-size:11.5466px;">o</text>
		<text transform="matrix(1 0 0 1.0393 -185.0856 128.2547)" style="font-family:'Arial-BoldMT'; font-size:11.5466px;">a</text>
		<text transform="matrix(1 0 0 1.0393 -177.0719 128.2547)" style="font-family:'Arial-BoldMT'; font-size:11.5466px;">2</text>
		<text transform="matrix(1 0 0 1.0393 -171.1481 128.2547)" style="font-family:'Arial-BoldMT'; font-size:11.5466px;">4</text>
		<text transform="matrix(1 0 0 1.0393 -165.2252 128.2547)" style="font-family:'Arial-BoldMT'; font-size:11.5466px;">x</text>
		<text transform="matrix(1 0 0 1.0393 -159.8785 128.2547)" style="font-family:'Arial-BoldMT'; font-size:11.5466px;">2</text>
		<text transform="matrix(1 0 0 1.0393 -153.9557 128.2547)" style="font-family:'Arial-BoldMT'; font-size:11.5466px;">4</text>
		<text transform="matrix(1 0 0 1.0393 -145.5846 128.2547)" style="font-family:'Arial-BoldMT'; font-size:11.5466px;">p</text>
		<text transform="matrix(1 0 0 1.0393 -139.0143 128.2547)" style="font-family:'Arial-BoldMT'; font-size:11.5466px;">i</text>
		<text transform="matrix(1 0 0 1.0393 -136.3121 128.2547)" style="font-family:'Arial-BoldMT'; font-size:11.5466px;">x</text>
		<text transform="matrix(1 0 0 1.0393 -130.9664 128.2547)" style="font-family:'Arial-BoldMT'; font-size:11.5466px;">e</text>
		<text transform="matrix(1 0 0 1.0393 -125.1813 128.2547)" style="font-family:'Arial-BoldMT'; font-size:11.5466px;">l</text>
		<text transform="matrix(1 0 0 1.0393 -120.0084 128.2547)" style="font-family:'Arial-BoldMT'; font-size:11.5466px;">f</text>
		<text transform="matrix(1 0 0 1.0393 -116.6373 128.2547)" style="font-family:'Arial-BoldMT'; font-size:11.5466px;">o</text>
		<text transform="matrix(1 0 0 1.0393 -110.2975 128.2547)" style="font-family:'Arial-BoldMT'; font-size:11.5466px;">r</text>
		<text transform="matrix(1 0 0 1.0393 -106.5221 128.2547)" style="font-family:'Arial-BoldMT'; font-size:11.5466px;">m</text>
		<text transform="matrix(1 0 0 1.0393 -96.8922 128.2547)" style="font-family:'Arial-BoldMT'; font-size:11.5466px;">a</text>
		<text transform="matrix(1 0 0 1.0393 -91.3268 128.2547)" style="font-family:'Arial-BoldMT'; font-size:11.5466px;">t</text>
	</g>
	<g class="st1">
		<text transform="matrix(1 0 0 1.0393 -373.3527 233.1719)" style="font-family:'Arial-BoldMT'; font-size:11.5466px;">U</text>
		<text transform="matrix(1 0 0 1.0393 -365.882 233.1719)" style="font-family:'Arial-BoldMT'; font-size:11.5466px;">s</text>
		<text transform="matrix(1 0 0 1.0393 -361.3092 233.1719)" style="font-family:'Arial-BoldMT'; font-size:11.5466px;">e</text>
		<text transform="matrix(1 0 0 1.0393 -353.0768 233.1719)" style="font-family:'Arial-BoldMT'; font-size:11.5466px;">t</text>
		<text transform="matrix(1 0 0 1.0393 -349.2545 233.1719)" style="font-family:'Arial-BoldMT'; font-size:11.5466px;">h</text>
		<text transform="matrix(1 0 0 1.0393 -342.8463 233.1719)" style="font-family:'Arial-BoldMT'; font-size:11.5466px;">i</text>
		<text transform="matrix(1 0 0 1.0393 -340.1442 233.1719)" style="font-family:'Arial-BoldMT'; font-size:11.5466px;">s</text>
		<text transform="matrix(1 0 0 1.0393 -333.1246 233.1719)" style="font-family:'Arial-BoldMT'; font-size:11.5466px;">b</text>
		<text transform="matrix(1 0 0 1.0393 -326.5543 233.1719)" style="font-family:'Arial-BoldMT'; font-size:11.5466px;">a</text>
		<text transform="matrix(1 0 0 1.0393 -320.9889 233.1719)" style="font-family:'Arial-BoldMT'; font-size:11.5466px;">c</text>
		<text transform="matrix(1 0 0 1.0393 -315.816 233.1719)" style="font-family:'Arial-BoldMT'; font-size:11.5466px;">k</text>
		<text transform="matrix(1 0 0 1.0393 -310.4 233.1719)" style="font-family:'Arial-BoldMT'; font-size:11.5466px;">g</text>
		<text transform="matrix(1 0 0 1.0393 -303.946 233.1719)" style="font-family:'Arial-BoldMT'; font-size:11.5466px;">r</text>
		<text transform="matrix(1 0 0 1.0393 -300.1705 233.1719)" style="font-family:'Arial-BoldMT'; font-size:11.5466px;">o</text>
		<text transform="matrix(1 0 0 1.0393 -293.8307 233.1719)" style="font-family:'Arial-BoldMT'; font-size:11.5466px;">u</text>
		<text transform="matrix(1 0 0 1.0393 -287.4694 233.1719)" style="font-family:'Arial-BoldMT'; font-size:11.5466px;">n</text>
		<text transform="matrix(1 0 0 1.0393 -281.0602 233.1719)" style="font-family:'Arial-BoldMT'; font-size:11.5466px;">d</text>
		<text transform="matrix(1 0 0 1.0393 -272.1003 233.1719)" style="font-family:'Arial-BoldMT'; font-size:11.5466px;">w</text>
		<text transform="matrix(1 0 0 1.0393 -263.6022 233.1719)" style="font-family:'Arial-BoldMT'; font-size:11.5466px;">i</text>
		<text transform="matrix(1 0 0 1.0393 -260.9 233.1719)" style="font-family:'Arial-BoldMT'; font-size:11.5466px;">d</text>
		<text transform="matrix(1 0 0 1.0393 -254.3883 233.1719)" style="font-family:'Arial-BoldMT'; font-size:11.5466px;">g</text>
		<text transform="matrix(1 0 0 1.0393 -247.9332 233.1719)" style="font-family:'Arial-BoldMT'; font-size:11.5466px;">e</text>
		<text transform="matrix(1 0 0 1.0393 -242.1481 233.1719)" style="font-family:'Arial-BoldMT'; font-size:11.5466px;">t</text>
		<text transform="matrix(1 0 0 1.0393 -235.8785 233.1719)" style="font-family:'Arial-BoldMT'; font-size:11.5466px;">t</text>
		<text transform="matrix(1 0 0 1.0393 -232.0572 233.1719)" style="font-family:'Arial-BoldMT'; font-size:11.5466px;">o</text>
		<text transform="matrix(1 0 0 1.0393 -223.2701 233.1719)" style="font-family:'Arial-BoldMT'; font-size:11.5466px;">e</text>
		<text transform="matrix(1 0 0 1.0393 -217.485 233.1719)" style="font-family:'Arial-BoldMT'; font-size:11.5466px;">x</text>
		<text transform="matrix(1 0 0 1.0393 -212.1393 233.1719)" style="font-family:'Arial-BoldMT'; font-size:11.5466px;">p</text>
		<text transform="matrix(1 0 0 1.0393 -205.5689 233.1719)" style="font-family:'Arial-BoldMT'; font-size:11.5466px;">o</text>
		<text transform="matrix(1 0 0 1.0393 -199.2301 233.1719)" style="font-family:'Arial-BoldMT'; font-size:11.5466px;">r</text>
		<text transform="matrix(1 0 0 1.0393 -195.4537 233.1719)" style="font-family:'Arial-BoldMT'; font-size:11.5466px;">t</text>
		<text transform="matrix(1 0 0 1.0393 -189.1842 233.1719)" style="font-family:'Arial-BoldMT'; font-size:11.5466px;">y</text>
		<text transform="matrix(1 0 0 1.0393 -183.7457 233.1719)" style="font-family:'Arial-BoldMT'; font-size:11.5466px;">o</text>
		<text transform="matrix(1 0 0 1.0393 -177.4068 233.1719)" style="font-family:'Arial-BoldMT'; font-size:11.5466px;">u</text>
		<text transform="matrix(1 0 0 1.0393 -171.0445 233.1719)" style="font-family:'Arial-BoldMT'; font-size:11.5466px;">r</text>
		<text transform="matrix(1 0 0 1.0393 -167.2691 233.1719)" style="font-family:'Arial-BoldMT'; font-size:11.5466px;">i</text>
		<text transform="matrix(1 0 0 1.0393 -164.567 233.1719)" style="font-family:'Arial-BoldMT'; font-size:11.5466px;">c</text>
		<text transform="matrix(1 0 0 1.0393 -159.3941 233.1719)" style="font-family:'Arial-BoldMT'; font-size:11.5466px;">o</text>
		<text transform="matrix(1 0 0 1.0393 -153.0553 233.1719)" style="font-family:'Arial-BoldMT'; font-size:11.5466px;">n</text>
		<text transform="matrix(1 0 0 1.0393 -146.6461 233.1719)" style="font-family:'Arial-BoldMT'; font-size:11.5466px;">s</text>
		<text transform="matrix(1 0 0 1.0393 -139.6266 233.1719)" style="font-family:'Arial-BoldMT'; font-size:11.5466px;">w</text>
		<text transform="matrix(1 0 0 1.0393 -131.1275 233.1719)" style="font-family:'Arial-BoldMT'; font-size:11.5466px;">h</text>
		<text transform="matrix(1 0 0 1.0393 -124.7193 233.1719)" style="font-family:'Arial-BoldMT'; font-size:11.5466px;">i</text>
		<text transform="matrix(1 0 0 1.0393 -122.0172 233.1719)" style="font-family:'Arial-BoldMT'; font-size:11.5466px;">l</text>
		<text transform="matrix(1 0 0 1.0393 -119.2926 233.1719)" style="font-family:'Arial-BoldMT'; font-size:11.5466px;">e</text>
		<text transform="matrix(1 0 0 1.0393 -111.0602 233.1719)" style="font-family:'Arial-BoldMT'; font-size:11.5466px;">e</text>
		<text transform="matrix(1 0 0 1.0393 -105.275 233.1719)" style="font-family:'Arial-BoldMT'; font-size:11.5466px;">n</text>
		<text transform="matrix(1 0 0 1.0393 -98.8668 233.1719)" style="font-family:'Arial-BoldMT'; font-size:11.5466px;">s</text>
		<text transform="matrix(1 0 0 1.0393 -94.2945 233.1719)" style="font-family:'Arial-BoldMT'; font-size:11.5466px;">u</text>
		<text transform="matrix(1 0 0 1.0393 -87.9322 233.1719)" style="font-family:'Arial-BoldMT'; font-size:11.5466px;">r</text>
		<text transform="matrix(1 0 0 1.0393 -84.1568 233.1719)" style="font-family:'Arial-BoldMT'; font-size:11.5466px;">i</text>
		<text transform="matrix(1 0 0 1.0393 -81.4547 233.1719)" style="font-family:'Arial-BoldMT'; font-size:11.5466px;">n</text>
		<text transform="matrix(1 0 0 1.0393 -75.0465 233.1719)" style="font-family:'Arial-BoldMT'; font-size:11.5466px;">g</text>
		<text transform="matrix(1 0 0 1.0393 -66.1441 233.1719)" style="font-family:'Arial-BoldMT'; font-size:11.5466px;">2</text>
		<text transform="matrix(1 0 0 1.0393 -60.2203 233.1719)" style="font-family:'Arial-BoldMT'; font-size:11.5466px;">4</text>
		<text transform="matrix(1 0 0 1.0393 -54.2965 233.1719)" style="font-family:'Arial-BoldMT'; font-size:11.5466px;">x</text>
		<text transform="matrix(1 0 0 1.0393 -48.9508 233.1719)" style="font-family:'Arial-BoldMT'; font-size:11.5466px;">2</text>
		<text transform="matrix(1 0 0 1.0393 -43.027 233.1719)" style="font-family:'Arial-BoldMT'; font-size:11.5466px;">4</text>
		<text transform="matrix(1 0 0 1.0393 -34.6559 233.1719)" style="font-family:'Arial-BoldMT'; font-size:11.5466px;">f</text>
		<text transform="matrix(1 0 0 1.0393 -31.2848 233.1719)" style="font-family:'Arial-BoldMT'; font-size:11.5466px;">o</text>
		<text transform="matrix(1 0 0 1.0393 -24.9459 233.1719)" style="font-family:'Arial-BoldMT'; font-size:11.5466px;">r</text>
		<text transform="matrix(1 0 0 1.0393 -21.1695 233.1719)" style="font-family:'Arial-BoldMT'; font-size:11.5466px;">m</text>
		<text transform="matrix(1 0 0 1.0393 -11.5397 233.1719)" style="font-family:'Arial-BoldMT'; font-size:11.5466px;">a</text>
		<text transform="matrix(1 0 0 1.0393 -5.9742 233.1719)" style="font-family:'Arial-BoldMT'; font-size:11.5466px;">t</text>
		<text transform="matrix(1 0 0 1.0393 -2.1529 233.1719)" style="font-family:'Arial-BoldMT'; font-size:11.5466px;">t</text>
		<text transform="matrix(1 0 0 1.0393 1.6693 233.1719)" style="font-family:'Arial-BoldMT'; font-size:11.5466px;">i</text>
		<text transform="matrix(1 0 0 1.0393 4.3715 233.1719)" style="font-family:'Arial-BoldMT'; font-size:11.5466px;">n</text>
		<text transform="matrix(1 0 0 1.0393 10.7797 233.1719)" style="font-family:'Arial-BoldMT'; font-size:11.5466px;">g</text>
	</g>
	<g class="st1">
		<text transform="matrix(1 0 0 1.0393 -366.8836 -25.7946)" style="font-family:'Arial-BoldMT'; font-size:11.5466px;">U</text>
		<text transform="matrix(1 0 0 1.0393 -359.4129 -25.7946)" style="font-family:'Arial-BoldMT'; font-size:11.5466px;">s</text>
		<text transform="matrix(1 0 0 1.0393 -354.8407 -25.7946)" style="font-family:'Arial-BoldMT'; font-size:11.5466px;">e</text>
		<text transform="matrix(1 0 0 1.0393 -346.6078 -25.7946)" style="font-family:'Arial-BoldMT'; font-size:11.5466px;">t</text>
		<text transform="matrix(1 0 0 1.0393 -342.7865 -25.7946)" style="font-family:'Arial-BoldMT'; font-size:11.5466px;">h</text>
		<text transform="matrix(1 0 0 1.0393 -336.3773 -25.7946)" style="font-family:'Arial-BoldMT'; font-size:11.5466px;">e</text>
		<text transform="matrix(1 0 0 1.0393 -330.5931 -25.7946)" style="font-family:'Arial-BoldMT'; font-size:11.5466px;">s</text>
		<text transform="matrix(1 0 0 1.0393 -326.0199 -25.7946)" style="font-family:'Arial-BoldMT'; font-size:11.5466px;">e</text>
		<text transform="matrix(1 0 0 1.0393 -317.7874 -25.7946)" style="font-family:'Arial-BoldMT'; font-size:11.5466px;">c</text>
		<text transform="matrix(1 0 0 1.0393 -312.6146 -25.7946)" style="font-family:'Arial-BoldMT'; font-size:11.5466px;">h</text>
		<text transform="matrix(1 0 0 1.0393 -306.2064 -25.7946)" style="font-family:'Arial-BoldMT'; font-size:11.5466px;">a</text>
		<text transform="matrix(1 0 0 1.0393 -300.641 -25.7946)" style="font-family:'Arial-BoldMT'; font-size:11.5466px;">r</text>
		<text transform="matrix(1 0 0 1.0393 -296.8656 -25.7946)" style="font-family:'Arial-BoldMT'; font-size:11.5466px;">a</text>
		<text transform="matrix(1 0 0 1.0393 -291.3001 -25.7946)" style="font-family:'Arial-BoldMT'; font-size:11.5466px;">c</text>
		<text transform="matrix(1 0 0 1.0393 -286.1273 -25.7946)" style="font-family:'Arial-BoldMT'; font-size:11.5466px;">t</text>
		<text transform="matrix(1 0 0 1.0393 -282.305 -25.7946)" style="font-family:'Arial-BoldMT'; font-size:11.5466px;">e</text>
		<text transform="matrix(1 0 0 1.0393 -276.5199 -25.7946)" style="font-family:'Arial-BoldMT'; font-size:11.5466px;">r</text>
		<text transform="matrix(1 0 0 1.0393 -272.7445 -25.7946)" style="font-family:'Arial-BoldMT'; font-size:11.5466px;">s</text>
		<text transform="matrix(1 0 0 1.0393 -268.1722 -25.7946)" style="font-family:'Arial-BoldMT'; font-size:11.5466px;">i</text>
		<text transform="matrix(1 0 0 1.0393 -265.4701 -25.7946)" style="font-family:'Arial-BoldMT'; font-size:11.5466px;">n</text>
		<text transform="matrix(1 0 0 1.0393 -259.0619 -25.7946)" style="font-family:'Arial-BoldMT'; font-size:11.5466px;">s</text>
		<text transform="matrix(1 0 0 1.0393 -254.4896 -25.7946)" style="font-family:'Arial-BoldMT'; font-size:11.5466px;">i</text>
		<text transform="matrix(1 0 0 1.0393 -251.7874 -25.7946)" style="font-family:'Arial-BoldMT'; font-size:11.5466px;">d</text>
		<text transform="matrix(1 0 0 1.0393 -245.2747 -25.7946)" style="font-family:'Arial-BoldMT'; font-size:11.5466px;">e</text>
		<text transform="matrix(1 0 0 1.0393 -237.0423 -25.7946)" style="font-family:'Arial-BoldMT'; font-size:11.5466px;">y</text>
		<text transform="matrix(1 0 0 1.0393 -231.6038 -25.7946)" style="font-family:'Arial-BoldMT'; font-size:11.5466px;">o</text>
		<text transform="matrix(1 0 0 1.0393 -225.265 -25.7946)" style="font-family:'Arial-BoldMT'; font-size:11.5466px;">u</text>
		<text transform="matrix(1 0 0 1.0393 -218.9027 -25.7946)" style="font-family:'Arial-BoldMT'; font-size:11.5466px;">r</text>
		<text transform="matrix(1 0 0 1.0393 -212.679 -25.7946)" style="font-family:'Arial-BoldMT'; font-size:11.5466px;">i</text>
		<text transform="matrix(1 0 0 1.0393 -209.9769 -25.7946)" style="font-family:'Arial-BoldMT'; font-size:11.5466px;">c</text>
		<text transform="matrix(1 0 0 1.0393 -204.804 -25.7946)" style="font-family:'Arial-BoldMT'; font-size:11.5466px;">o</text>
		<text transform="matrix(1 0 0 1.0393 -198.4652 -25.7946)" style="font-family:'Arial-BoldMT'; font-size:11.5466px;">n</text>
		<text transform="matrix(1 0 0 1.0393 -192.057 -25.7946)" style="font-family:'Arial-BoldMT'; font-size:11.5466px;">s</text>
		<text transform="matrix(1 0 0 1.0393 -187.4847 -25.7946)" style="font-family:'Arial-BoldMT'; font-size:11.5466px;">(</text>
		<text transform="matrix(1 0 0 1.0393 -184.2054 -25.7946)" style="font-family:'Arial-BoldMT'; font-size:11.5466px;">b</text>
		<text transform="matrix(1 0 0 1.0393 -177.6351 -25.7946)" style="font-family:'Arial-BoldMT'; font-size:11.5466px;">u</text>
		<text transform="matrix(1 0 0 1.0393 -171.2728 -25.7946)" style="font-family:'Arial-BoldMT'; font-size:11.5466px;">t</text>
		<text transform="matrix(1 0 0 1.0393 -165.0033 -25.7946)" style="font-family:'Arial-BoldMT'; font-size:11.5466px;">i</text>
		<text transform="matrix(1 0 0 1.0393 -162.3011 -25.7946)" style="font-family:'Arial-BoldMT'; font-size:11.5466px;">c</text>
		<text transform="matrix(1 0 0 1.0393 -157.1283 -25.7946)" style="font-family:'Arial-BoldMT'; font-size:11.5466px;">o</text>
		<text transform="matrix(1 0 0 1.0393 -150.7894 -25.7946)" style="font-family:'Arial-BoldMT'; font-size:11.5466px;">n</text>
		<text transform="matrix(1 0 0 1.0393 -144.3812 -25.7946)" style="font-family:'Arial-BoldMT'; font-size:11.5466px;">s</text>
		<text transform="matrix(1 0 0 1.0393 -137.3607 -25.7946)" style="font-family:'Arial-BoldMT'; font-size:11.5466px;">w</text>
		<text transform="matrix(1 0 0 1.0393 -128.8616 -25.7946)" style="font-family:'Arial-BoldMT'; font-size:11.5466px;">i</text>
		<text transform="matrix(1 0 0 1.0393 -126.1605 -25.7946)" style="font-family:'Arial-BoldMT'; font-size:11.5466px;">t</text>
		<text transform="matrix(1 0 0 1.0393 -122.3382 -25.7946)" style="font-family:'Arial-BoldMT'; font-size:11.5466px;">h</text>
		<text transform="matrix(1 0 0 1.0393 -115.93 -25.7946)" style="font-family:'Arial-BoldMT'; font-size:11.5466px;">o</text>
		<text transform="matrix(1 0 0 1.0393 -109.5911 -25.7946)" style="font-family:'Arial-BoldMT'; font-size:11.5466px;">u</text>
		<text transform="matrix(1 0 0 1.0393 -103.2288 -25.7946)" style="font-family:'Arial-BoldMT'; font-size:11.5466px;">t</text>
		<text transform="matrix(1 0 0 1.0393 -99.4066 -25.7946)" style="font-family:'Arial-BoldMT'; font-size:11.5466px;">t</text>
		<text transform="matrix(1 0 0 1.0393 -95.5843 -25.7946)" style="font-family:'Arial-BoldMT'; font-size:11.5466px;">e</text>
		<text transform="matrix(1 0 0 1.0393 -89.8001 -25.7946)" style="font-family:'Arial-BoldMT'; font-size:11.5466px;">x</text>
		<text transform="matrix(1 0 0 1.0393 -84.4534 -25.7946)" style="font-family:'Arial-BoldMT'; font-size:11.5466px;">t</text>
		<text transform="matrix(1 0 0 1.0393 -78.1839 -25.7946)" style="font-family:'Arial-BoldMT'; font-size:11.5466px;">w</text>
		<text transform="matrix(1 0 0 1.0393 -69.6859 -25.7946)" style="font-family:'Arial-BoldMT'; font-size:11.5466px;">o</text>
		<text transform="matrix(1 0 0 1.0393 -63.347 -25.7946)" style="font-family:'Arial-BoldMT'; font-size:11.5466px;">r</text>
		<text transform="matrix(1 0 0 1.0393 -59.5706 -25.7946)" style="font-family:'Arial-BoldMT'; font-size:11.5466px;">k</text>
		<text transform="matrix(1 0 0 1.0393 -51.7074 -25.7946)" style="font-family:'Arial-BoldMT'; font-size:11.5466px;">b</text>
		<text transform="matrix(1 0 0 1.0393 -45.138 -25.7946)" style="font-family:'Arial-BoldMT'; font-size:11.5466px;">e</text>
		<text transform="matrix(1 0 0 1.0393 -39.3529 -25.7946)" style="font-family:'Arial-BoldMT'; font-size:11.5466px;">s</text>
		<text transform="matrix(1 0 0 1.0393 -34.7806 -25.7946)" style="font-family:'Arial-BoldMT'; font-size:11.5466px;">t</text>
		<text transform="matrix(1 0 0 1.0393 -30.9583 -25.7946)" style="font-family:'Arial-BoldMT'; font-size:11.5466px;">)</text>
		<text transform="matrix(1 0 0 1.0393 -27.679 -25.7946)" style="font-family:'Arial-BoldMT'; font-size:11.5466px;">.</text>
	</g>
	<line class="st7" x1="-335.68" y1="139.54" x2="-308.85" y2="139.54"/>
	<polygon class="st5" points="-330.68,139.54 -338.18,132.04 -343.18,132.04 -338.18,137.04 -339.43,137.04 -344.43,132.04 
		-349.43,132.04 -344.43,137.04 -345.68,137.04 -350.68,132.04 -355.68,132.04 -348.18,139.54 -355.68,147.04 -350.68,147.04 
		-345.68,142.04 -344.43,142.04 -349.43,147.04 -344.43,147.04 -339.43,142.04 -338.18,142.04 -343.18,147.04 -338.18,147.04 	"/>
	<path class="st5" d="M-310.1,139.54v6.25c0,0.93,1.64,1.61,2.5,1.25l15-6.25c0.55-0.23,1.25-0.66,1.25-1.25s-0.7-1.02-1.25-1.25
		l-15-6.25C-308.46,131.68-310.1,132.36-310.1,139.54z"/>
	<line class="st7" x1="-335.68" y1="245.35" x2="-308.85" y2="245.35"/>
	<polygon class="st5" points="-330.68,245.35 -338.18,237.85 -343.18,237.85 -338.18,242.85 -339.43,242.85 -344.43,237.85 
		-349.43,237.85 -344.43,242.85 -345.68,242.85 -350.68,237.85 -355.68,237.85 -348.18,245.35 -355.68,252.85 -350.68,252.85 
		-345.68,247.85 -344.43,247.85 -349.43,252.85 -344.43,252.85 -339.43,247.85 -338.18,247.85 -343.18,252.85 -338.18,252.85 	"/>
	<path class="st5" d="M-310.1,245.35v6.25c0,0.93,1.64,1.61,2.5,1.25l15-6.25c0.55-0.23,1.25-0.66,1.25-1.25
		c0-0.59-0.7-1.02-1.25-1.25l-15-6.25C-308.46,237.49-310.1,238.17-310.1,245.35z"/>
	<line class="st7" x1="-336.04" y1="47.95" x2="-309.21" y2="47.95"/>
	<polygon class="st5" points="-331.04,47.95 -338.54,40.45 -343.54,40.45 -338.54,45.45 -339.79,45.45 -344.79,40.45 -349.79,40.45 
		-344.79,45.45 -346.04,45.45 -351.04,40.45 -356.04,40.45 -348.54,47.95 -356.04,55.45 -351.04,55.45 -346.04,50.45 -344.79,50.45 
		-349.79,55.45 -344.79,55.45 -339.79,50.45 -338.54,50.45 -343.54,55.45 -338.54,55.45 	"/>
	<path class="st5" d="M-310.46,47.95v6.25c0,0.93,1.64,1.61,2.5,1.25l15-6.25c0.54-0.23,1.25-0.66,1.25-1.25s-0.71-1.02-1.25-1.25
		l-15-6.25C-308.82,40.09-310.46,40.77-310.46,47.95z"/>
	<path class="st8" d="M-115.46-3.61v9.37c0,2.59,2.1,4.69,4.69,4.69h3.12c2.59,0,4.69-2.1,4.69-4.69v-9.37
		c0-2.59-2.1-4.69-4.69-4.69h-3.12C-113.36-8.3-115.46-6.2-115.46-3.61z"/>
	<path class="st8" d="M-121.71,1.08h-7.81c-2.59,0-4.69-2.1-4.69-4.69s2.1-4.69,4.69-4.69h3.12c2.59,0,4.69,2.1,4.69,4.69v9.37
		c0,2.59-2.1,4.69-4.69,4.69h-6.25"/>
	<g class="st1">
		<path class="st9" d="M-145.15,1.08h-3.12c-2.59,0-4.69-2.1-4.69-4.69s2.1-4.69,4.69-4.69h3.12c2.59,0,4.69,2.1,4.69,4.69
			S-142.56,1.08-145.15,1.08z"/>
		<path class="st9" d="M-148.27,1.08h3.12c2.59,0,4.69,2.1,4.69,4.68c0,2.59-2.1,4.69-4.69,4.69h-3.12c-2.59,0-4.69-2.1-4.69-4.69
			C-152.96,3.18-150.86,1.08-148.27,1.08z"/>
	</g>
	<path class="st8" d="M-190.46,1.08h7.81c2.59,0,4.69,2.1,4.69,4.68c0,2.59-2.1,4.69-4.69,4.69h-3.12c-2.59,0-4.69-2.1-4.69-4.69
		v-9.37c0-2.59,2.1-4.69,4.69-4.69h6.25"/>
	<path class="st8" d="M-209.21,5.76c0,2.59,2.1,4.69,4.69,4.69h3.12c2.59,0,4.69-2.1,4.69-4.69c0-2.58-2.1-4.68-4.69-4.68h-7.81
		V-8.3h10.94"/>
	<path class="st8" d="M-251.4,10.45h-12.5V8.89l9.53-9.15c0.87-0.85,1.41-2.04,1.41-3.35c0-2.59-2.1-4.69-4.69-4.69h-3.12
		c-2.59,0-4.69,2.1-4.69,4.69"/>
	<path class="st8" d="M-246.71,5.76c0,2.59,2.1,4.69,4.69,4.69h3.12c2.59,0,4.69-2.1,4.69-4.69c0-2.58-2.1-4.68-4.69-4.68h-3.12
		h3.12c2.59,0,4.69-2.1,4.69-4.69s-2.1-4.69-4.69-4.69h-3.12c-2.59,0-4.69,2.1-4.69,4.69"/>
	<polyline class="st8" points="-173.27,-8.3 -159.21,-8.3 -159.21,-5.17 -168.59,4.2 -168.59,12.01 	"/>
	<path class="st8" d="M-159.21,21.39c0-2.59-2.1-4.69-4.69-4.69h-3.12c-2.59,0-4.69,2.1-4.69,4.69v9.37c0,2.59,2.1,4.69,4.69,4.69
		h3.12c2.59,0,4.69-2.1,4.69-4.69V29.2h-4.69"/>
	<g class="st1">
		<path class="st9" d="M-271.71,37.01V21.39c0-2.59-2.1-4.69-4.69-4.69h-3.12c-2.59,0-4.69,2.1-4.69,4.69v15.62"/>
		<line class="st9" x1="-284.21" y1="29.2" x2="-271.71" y2="29.2"/>
	</g>
	<path class="st8" d="M-257.65,35.45c2.59,0,4.69-2.1,4.69-4.69c0-2.58-2.1-4.68-4.69-4.68h-7.81h7.81c2.59,0,4.69-2.1,4.69-4.69
		s-2.1-4.69-4.69-4.69h-7.81v18.75H-257.65z"/>
	<path class="st8" d="M-234.21,21.39c0-2.59-2.1-4.69-4.69-4.69h-3.12c-2.59,0-4.69,2.1-4.69,4.69v9.37c0,2.59,2.1,4.69,4.69,4.69
		h3.12c2.59,0,4.69-2.1,4.69-4.69"/>
	<path class="st8" d="M-227.96,16.7v18.75h7.81c2.59,0,4.69-2.1,4.69-4.69v-9.37c0-2.59-2.1-4.69-4.69-4.69H-227.96z"/>
	<path class="st8" d="M-115.46,30.76c0,2.59,2.1,4.69,4.69,4.69l0,0c2.58,0,4.68-2.1,4.68-4.69V16.7h-4.68h9.37"/>
	<g class="st1">
		<line class="st9" x1="-284.21" y1="40.14" x2="-284.21" y2="62.01"/>
		<polyline class="st10" points="-271.71,41.7 -281.09,51.08 -271.71,60.45 		"/>
	</g>
	<polyline class="st11" points="-249.84,62.01 -249.84,41.7 -243.59,47.95 -243.59,52.64 -243.59,47.95 -237.34,41.7 -237.34,62.01 
			"/>
	<g class="st1">
		<polyline class="st12" points="-231.09,62.01 -231.09,41.7 -218.59,54.2 		"/>
		<line class="st9" x1="-218.59" y1="40.14" x2="-218.59" y2="62.01"/>
	</g>
	<path class="st8" d="M-212.34,46.39v9.37c0,2.59,2.1,4.69,4.69,4.69h3.13c2.58,0,4.68-2.1,4.68-4.69v-9.37
		c0-2.59-2.1-4.69-4.68-4.69h-3.13C-210.24,41.7-212.34,43.8-212.34,46.39z"/>
	<path class="st8" d="M-193.59,51.08h7.82c2.58,0,4.68-2.1,4.68-4.69s-2.1-4.69-4.68-4.69h-7.82v20.31"/>
	<g class="st1">
		<path class="st9" d="M-174.84,46.39v9.37c0,2.59,2.1,4.69,4.69,4.69h3.13c2.58,0,4.68-2.1,4.68-4.69v-9.37
			c0-2.59-2.1-4.69-4.68-4.69h-3.13C-172.74,41.7-174.84,43.8-174.84,46.39z"/>
		<line class="st13" x1="-165.46" y1="57.33" x2="-162.34" y2="60.45"/>
	</g>
	<path class="st8" d="M-156.09,51.08h7.82c2.58,0,4.68-2.1,4.68-4.69s-2.1-4.69-4.68-4.69h-7.82v20.31"/>
	<path class="st8" d="M-143.59,62.01v-6.25c0-2.58-2.1-4.68-4.68-4.68"/>
	<path class="st8" d="M-137.34,55.76c0,2.59,2.1,4.69,4.69,4.69h3.13c2.58,0,4.68-2.1,4.68-4.69c0-2.58-2.1-4.68-4.68-4.68h-3.13
		c-2.59,0-4.69-2.1-4.69-4.69s2.1-4.69,4.69-4.69h3.13c2.58,0,4.68,2.1,4.68,4.69"/>
	<path class="st8" d="M-284.21,65.14v15.62c0,2.59,2.1,4.69,4.69,4.69h3.12c2.59,0,4.69-2.1,4.69-4.69V65.14"/>
	<polyline class="st11" points="-265.46,65.14 -265.46,79.2 -259.21,85.45 -252.96,79.2 -252.96,65.14 	"/>
	<polyline class="st11" points="-246.71,65.14 -246.71,82.33 -243.59,85.45 -240.46,82.33 -240.46,79.2 -240.46,82.33 
		-237.34,85.45 -234.21,82.33 -234.21,65.14 	"/>
	<g class="st1">
		<polyline class="st12" points="-227.96,65.14 -227.96,69.83 -215.46,82.33 -215.46,87.01 		"/>
		<polyline class="st12" points="-227.96,87.01 -227.96,82.33 -215.46,69.83 -215.46,65.14 		"/>
	</g>
	<g class="st1">
		<polyline class="st12" points="-209.21,65.14 -209.21,72.95 -202.96,79.2 -196.71,72.95 -196.71,65.14 		"/>
		<line class="st12" x1="-202.96" y1="87.01" x2="-202.96" y2="79.2"/>
	</g>
	<polyline class="st11" points="-192.02,66.7 -177.96,66.7 -177.96,69.83 -190.46,82.33 -190.46,85.45 -176.4,85.45 	"/>
	<g class="st1">
		<line class="st2" x1="-285.78" y1="212.02" x2="-285.78" y2="137.02"/>
		<line class="st2" x1="-282.65" y1="212.02" x2="-282.65" y2="137.02"/>
		<line class="st2" x1="-279.53" y1="212.02" x2="-279.53" y2="137.02"/>
		<line class="st2" x1="-276.4" y1="212.02" x2="-276.4" y2="137.02"/>
		<line class="st2" x1="-273.28" y1="212.02" x2="-273.28" y2="137.02"/>
		<line class="st2" x1="-270.15" y1="212.02" x2="-270.15" y2="137.02"/>
		<line class="st2" x1="-267.03" y1="212.02" x2="-267.03" y2="137.02"/>
		<line class="st2" x1="-263.9" y1="212.02" x2="-263.9" y2="137.02"/>
		<line class="st2" x1="-260.78" y1="212.02" x2="-260.78" y2="137.02"/>
		<line class="st2" x1="-257.65" y1="212.02" x2="-257.65" y2="137.02"/>
		<line class="st2" x1="-254.53" y1="212.02" x2="-254.53" y2="137.02"/>
		<line class="st2" x1="-251.4" y1="212.02" x2="-251.4" y2="137.02"/>
		<line class="st2" x1="-248.28" y1="212.02" x2="-248.28" y2="137.02"/>
		<line class="st2" x1="-245.15" y1="212.02" x2="-245.15" y2="137.02"/>
		<line class="st2" x1="-242.03" y1="212.02" x2="-242.03" y2="137.02"/>
		<line class="st2" x1="-238.9" y1="212.02" x2="-238.9" y2="137.02"/>
		<line class="st2" x1="-235.78" y1="212.02" x2="-235.78" y2="137.02"/>
		<line class="st2" x1="-232.65" y1="212.02" x2="-232.65" y2="137.02"/>
		<line class="st2" x1="-229.53" y1="212.02" x2="-229.53" y2="137.02"/>
		<line class="st2" x1="-226.4" y1="212.02" x2="-226.4" y2="137.02"/>
		<line class="st2" x1="-223.28" y1="212.02" x2="-223.28" y2="137.02"/>
		<line class="st2" x1="-220.15" y1="212.02" x2="-220.15" y2="137.02"/>
		<line class="st2" x1="-217.03" y1="212.02" x2="-217.03" y2="137.02"/>
		<line class="st2" x1="-213.9" y1="212.02" x2="-213.9" y2="137.02"/>
		<line class="st2" x1="-210.78" y1="212.02" x2="-210.78" y2="137.02"/>
		<line class="st2" x1="-210.78" y1="212.02" x2="-285.78" y2="212.02"/>
		<line class="st2" x1="-210.78" y1="208.9" x2="-285.78" y2="208.9"/>
		<line class="st2" x1="-210.78" y1="205.78" x2="-285.78" y2="205.78"/>
		<line class="st2" x1="-210.78" y1="202.65" x2="-285.78" y2="202.65"/>
		<line class="st2" x1="-210.78" y1="199.53" x2="-285.78" y2="199.53"/>
		<line class="st2" x1="-210.78" y1="196.4" x2="-285.78" y2="196.4"/>
		<line class="st2" x1="-210.78" y1="193.27" x2="-285.78" y2="193.27"/>
		<line class="st2" x1="-210.78" y1="190.15" x2="-285.78" y2="190.15"/>
		<line class="st2" x1="-210.78" y1="187.03" x2="-285.78" y2="187.03"/>
		<line class="st2" x1="-210.78" y1="183.9" x2="-285.78" y2="183.9"/>
		<line class="st2" x1="-210.78" y1="180.78" x2="-285.78" y2="180.78"/>
		<line class="st2" x1="-210.78" y1="177.65" x2="-285.78" y2="177.65"/>
		<line class="st2" x1="-210.78" y1="174.52" x2="-285.78" y2="174.52"/>
		<line class="st2" x1="-210.78" y1="171.4" x2="-285.78" y2="171.4"/>
		<line class="st2" x1="-210.78" y1="168.28" x2="-285.78" y2="168.28"/>
		<line class="st2" x1="-210.78" y1="165.15" x2="-285.78" y2="165.15"/>
		<line class="st2" x1="-210.78" y1="162.03" x2="-285.78" y2="162.03"/>
		<line class="st2" x1="-210.78" y1="158.9" x2="-285.78" y2="158.9"/>
		<line class="st2" x1="-210.78" y1="155.77" x2="-285.78" y2="155.77"/>
		<line class="st2" x1="-210.78" y1="152.65" x2="-285.78" y2="152.65"/>
		<line class="st2" x1="-210.78" y1="149.53" x2="-285.78" y2="149.53"/>
		<line class="st2" x1="-210.78" y1="146.4" x2="-285.78" y2="146.4"/>
		<line class="st2" x1="-210.78" y1="143.28" x2="-285.78" y2="143.28"/>
		<line class="st2" x1="-210.78" y1="140.15" x2="-285.78" y2="140.15"/>
		<line class="st2" x1="-210.78" y1="137.02" x2="-285.78" y2="137.02"/>
	</g>
	<line class="st14" x1="76.14" y1="34.54" x2="76.85" y2="33.83"/>
	<line class="st14" x1="-0.35" y1="0.35" x2="0.35" y2="-0.35"/>
</g>
<g id="KEEP_ON_FOR_EXPORT">
	<line class="st15" x1="74.65" y1="75.35" x2="75.35" y2="74.65"/>
	<line class="st15" x1="-0.34" y1="0.36" x2="0.37" y2="-0.34"/>
</g>
<g id="ICON">
	<g>
		<g>
			<polygon class="st16" points="37.18,44.06 49.35,59.36 49.35,53.86 37.18,38.57 			"/>
			<polygon class="st17" points="37.18,49.56 49.35,64.86 49.35,59.36 37.18,44.06 			"/>
			<polygon class="st18" points="49.35,64.86 37.18,49.56 37.18,55.06 49.35,70.36 			"/>
			<path class="st19" d="M67.45,56.09c-4.28,4.94-12.1,7.59-18.1,8.77c0,1.83,0,3.67,0,5.5c6-1.19,13.82-3.83,18.1-8.78
				C67.45,59.75,67.45,57.92,67.45,56.09z"/>
			<path class="st20" d="M49.35,64.86c6-1.19,13.82-3.83,18.1-8.77c0-1.84,0-3.67,0-5.5c-4.28,4.94-12.1,7.59-18.1,8.77
				C49.35,61.2,49.35,63.03,49.35,64.86z"/>
			<path class="st21" d="M49.35,59.36c6-1.19,13.82-3.83,18.1-8.77c0-1.84,0-3.67,0-5.5c-4.28,4.94-12.1,7.59-18.1,8.77
				C49.35,55.7,49.35,57.53,49.35,59.36z"/>
			<path class="st22" d="M49.35,53.86c6-1.19,13.82-3.83,18.1-8.77c-10.09-2.17-20.18-4.35-30.27-6.52
				C41.24,43.67,45.29,48.76,49.35,53.86z"/>
		</g>
		<path class="st23" d="M37.18,38.57v16.49l12.17,15.3c6.78-1.4,13.17-3.58,18.1-8.78V45.09L37.18,38.57z"/>
	</g>
	<path class="st24" d="M39.08,18.06c10.21,0,17.12,9.96,15.47,16.26"/>
	<path class="st25" d="M59.62,35.03l-9.68-1.8C49.95,33.23,52.68,45.41,59.62,35.03z"/>
	<polygon class="st26" points="6.55,32.07 23.65,37.47 23.65,19.46 6.55,14.06 	"/>
	<polygon class="st27" points="23.65,19.46 23.65,37.47 35.36,28.46 35.36,10.45 	"/>
	<polygon class="st28" points="6.55,14.06 6.55,32.07 23.65,37.47 35.36,28.46 35.36,10.45 18.26,5.06 	"/>
	<g>
		<path class="st29" d="M17.01,29.59v-4.78c0-0.79-0.64-1.44-1.44-1.44h-0.96c-0.79,0-1.44,0.64-1.44,1.44v4.78"/>
		<line class="st29" x1="13.19" y1="27.2" x2="17.01" y2="27.2"/>
	</g>
	<path class="st29" d="M29.98,27.54c0.79,0,1.44-0.64,1.44-1.44c0-0.79-0.64-1.43-1.44-1.43h-2.39h2.39c0.79,0,1.44-0.64,1.44-1.44
		s-0.64-1.44-1.44-1.44h-2.39v5.74H29.98z"/>
	<path class="st29" d="M22.87,11.07c0-0.79-0.64-1.44-1.44-1.44h-0.96c-0.79,0-1.44,0.64-1.44,1.44v2.87c0,0.79,0.64,1.44,1.44,1.44
		h0.96c0.79,0,1.44-0.64,1.44-1.44"/>
</g>
</svg>
