<?xml version="1.0" encoding="utf-8"?>
<!-- Generator: Adobe Illustrator 28.2.0, SVG Export Plug-In . SVG Version: 6.00 Build 0)  -->
<svg version="1.1" xmlns="http://www.w3.org/2000/svg" xmlns:xlink="http://www.w3.org/1999/xlink" x="0px" y="0px"
	 viewBox="0 0 75 75" style="enable-background:new 0 0 75 75;" xml:space="preserve">
<style type="text/css">
	.st0{display:none;}
	.st1{display:inline;}
	
		.st2{fill-rule:evenodd;clip-rule:evenodd;fill:none;stroke:#FF0000;stroke-width:0;stroke-linecap:round;stroke-linejoin:round;stroke-miterlimit:10;}
	.st3{display:inline;fill-rule:evenodd;clip-rule:evenodd;fill:#C7F799;}
	.st4{display:inline;fill-rule:evenodd;clip-rule:evenodd;fill:url(#SVGID_1_);}
	.st5{display:inline;fill-rule:evenodd;clip-rule:evenodd;fill:#231F20;}
	.st6{display:inline;fill-rule:evenodd;clip-rule:evenodd;}
	.st7{display:inline;fill-rule:evenodd;clip-rule:evenodd;fill:none;stroke:#231F20;stroke-width:5;stroke-miterlimit:10;}
	.st8{display:inline;fill-rule:evenodd;clip-rule:evenodd;fill:none;stroke:#000000;stroke-width:3.11;stroke-miterlimit:10;}
	.st9{fill-rule:evenodd;clip-rule:evenodd;fill:none;stroke:#000000;stroke-width:3.11;stroke-miterlimit:10;}
	
		.st10{fill-rule:evenodd;clip-rule:evenodd;fill:none;stroke:#000000;stroke-width:3.11;stroke-linecap:round;stroke-miterlimit:10;}
	
		.st11{display:inline;fill-rule:evenodd;clip-rule:evenodd;fill:none;stroke:#000000;stroke-width:3.11;stroke-linejoin:round;stroke-miterlimit:10;}
	
		.st12{fill-rule:evenodd;clip-rule:evenodd;fill:none;stroke:#000000;stroke-width:3.11;stroke-linejoin:round;stroke-miterlimit:10;}
	
		.st13{fill-rule:evenodd;clip-rule:evenodd;fill:none;stroke:#000000;stroke-width:3.11;stroke-linecap:round;stroke-linejoin:round;stroke-miterlimit:10;}
	
		.st14{display:inline;opacity:0.01;fill:none;stroke:#000000;stroke-width:1.000000e-03;stroke-linecap:round;stroke-linejoin:round;stroke-miterlimit:10;}
	.st15{fill:none;stroke:#000000;stroke-width:0.25;stroke-miterlimit:10;}
	.st16{fill:none;stroke:#000000;stroke-width:0.25;stroke-miterlimit:10;stroke-dasharray:1.0089,1.0089;}
	.st17{fill:none;stroke:#000000;stroke-width:0.25;stroke-miterlimit:10;stroke-dasharray:0.99,0.99;}
	
		.st18{opacity:0.01;fill:none;stroke:#000000;stroke-width:1.000000e-03;stroke-linecap:round;stroke-linejoin:round;stroke-miterlimit:10;}
	
		.st19{display:inline;fill-rule:evenodd;clip-rule:evenodd;fill:url(#SVGID_00000047780547701118787590000003128598946597177264_);stroke:#400000;stroke-width:2;stroke-linecap:round;stroke-linejoin:round;stroke-miterlimit:10;}
	
		.st20{display:inline;fill-rule:evenodd;clip-rule:evenodd;fill:none;stroke:#000000;stroke-width:2;stroke-linecap:round;stroke-linejoin:round;stroke-miterlimit:10;}
	
		.st21{display:inline;fill-rule:evenodd;clip-rule:evenodd;fill:url(#SVGID_00000088127038914743007690000008139145686285827732_);stroke:#400000;stroke-width:2;stroke-linecap:round;stroke-linejoin:round;stroke-miterlimit:10;}
	.st22{display:inline;fill-rule:evenodd;clip-rule:evenodd;fill:#FFE800;stroke:#944A00;stroke-width:3.1;stroke-miterlimit:10;}
	
		.st23{display:inline;fill-rule:evenodd;clip-rule:evenodd;fill:none;stroke:#944A00;stroke-width:3.1;stroke-linejoin:round;stroke-miterlimit:10;}
	.st24{display:inline;fill-rule:evenodd;clip-rule:evenodd;fill:none;stroke:#231F20;stroke-width:3.1;stroke-miterlimit:10;}
	.st25{display:inline;fill-rule:evenodd;clip-rule:evenodd;fill:#6ABD45;stroke:#944A00;stroke-width:3.1;stroke-miterlimit:10;}
	
		.st26{fill-rule:evenodd;clip-rule:evenodd;fill:url(#SVGID_00000115505316817204659010000005951226916936053655_);stroke:#400000;stroke-width:2;stroke-linecap:round;stroke-linejoin:round;stroke-miterlimit:10;}
	
		.st27{fill-rule:evenodd;clip-rule:evenodd;fill:none;stroke:#000000;stroke-width:2;stroke-linecap:round;stroke-linejoin:round;stroke-miterlimit:10;}
	
		.st28{fill-rule:evenodd;clip-rule:evenodd;fill:url(#SVGID_00000001632816116329016490000009339818858380404890_);stroke:#400000;stroke-width:2;stroke-linecap:round;stroke-linejoin:round;stroke-miterlimit:10;}
	
		.st29{fill-rule:evenodd;clip-rule:evenodd;fill:url(#SVGID_00000181055258405232936510000004236771279209141904_);stroke:#400000;stroke-width:2;stroke-linecap:round;stroke-linejoin:round;stroke-miterlimit:10;}
	.st30{fill-rule:evenodd;clip-rule:evenodd;fill:none;stroke:#231F20;stroke-width:3.1;stroke-miterlimit:10;}
</style>
<g id="GUIDE" class="st0">
	<g class="st1">
		<line class="st2" x1="0" y1="75" x2="0" y2="0"/>
		<line class="st2" x1="3.13" y1="75" x2="3.13" y2="0"/>
		<line class="st2" x1="6.25" y1="75" x2="6.25" y2="0"/>
		<line class="st2" x1="9.38" y1="75" x2="9.38" y2="0"/>
		<line class="st2" x1="12.5" y1="75" x2="12.5" y2="0"/>
		<line class="st2" x1="15.63" y1="75" x2="15.63" y2="0"/>
		<line class="st2" x1="18.75" y1="75" x2="18.75" y2="0"/>
		<line class="st2" x1="21.88" y1="75" x2="21.88" y2="0"/>
		<line class="st2" x1="25" y1="75" x2="25" y2="0"/>
		<line class="st2" x1="28.13" y1="75" x2="28.13" y2="0"/>
		<line class="st2" x1="31.25" y1="75" x2="31.25" y2="0"/>
		<line class="st2" x1="34.38" y1="75" x2="34.38" y2="0"/>
		<line class="st2" x1="37.5" y1="75" x2="37.5" y2="0"/>
		<line class="st2" x1="40.63" y1="75" x2="40.63" y2="0"/>
		<line class="st2" x1="43.75" y1="75" x2="43.75" y2="0"/>
		<line class="st2" x1="46.88" y1="75" x2="46.88" y2="0"/>
		<line class="st2" x1="50" y1="75" x2="50" y2="0"/>
		<line class="st2" x1="53.13" y1="75" x2="53.13" y2="0"/>
		<line class="st2" x1="56.25" y1="75" x2="56.25" y2="0"/>
		<line class="st2" x1="59.38" y1="75" x2="59.38" y2="0"/>
		<line class="st2" x1="62.5" y1="75" x2="62.5" y2="0"/>
		<line class="st2" x1="65.63" y1="75" x2="65.63" y2="0"/>
		<line class="st2" x1="68.75" y1="75" x2="68.75" y2="0"/>
		<line class="st2" x1="71.88" y1="75" x2="71.88" y2="0"/>
		<line class="st2" x1="75" y1="75" x2="75" y2="0"/>
		<line class="st2" x1="75" y1="75" x2="0" y2="75"/>
		<line class="st2" x1="75" y1="71.87" x2="0" y2="71.87"/>
		<line class="st2" x1="75" y1="68.75" x2="0" y2="68.75"/>
		<line class="st2" x1="75" y1="65.62" x2="0" y2="65.62"/>
		<line class="st2" x1="75" y1="62.5" x2="0" y2="62.5"/>
		<line class="st2" x1="75" y1="59.37" x2="0" y2="59.37"/>
		<line class="st2" x1="75" y1="56.25" x2="0" y2="56.25"/>
		<line class="st2" x1="75" y1="53.12" x2="0" y2="53.12"/>
		<line class="st2" x1="75" y1="50" x2="0" y2="50"/>
		<line class="st2" x1="75" y1="46.87" x2="0" y2="46.87"/>
		<line class="st2" x1="75" y1="43.75" x2="0" y2="43.75"/>
		<line class="st2" x1="75" y1="40.62" x2="0" y2="40.62"/>
		<line class="st2" x1="75" y1="37.5" x2="0" y2="37.5"/>
		<line class="st2" x1="75" y1="34.37" x2="0" y2="34.37"/>
		<line class="st2" x1="75" y1="31.25" x2="0" y2="31.25"/>
		<line class="st2" x1="75" y1="28.12" x2="0" y2="28.12"/>
		<line class="st2" x1="75" y1="25" x2="0" y2="25"/>
		<line class="st2" x1="75" y1="21.87" x2="0" y2="21.87"/>
		<line class="st2" x1="75" y1="18.75" x2="0" y2="18.75"/>
		<line class="st2" x1="75" y1="15.62" x2="0" y2="15.62"/>
		<line class="st2" x1="75" y1="12.5" x2="0" y2="12.5"/>
		<line class="st2" x1="75" y1="9.37" x2="0" y2="9.37"/>
		<line class="st2" x1="75" y1="6.25" x2="0" y2="6.25"/>
		<line class="st2" x1="75" y1="3.12" x2="0" y2="3.12"/>
		<line class="st2" x1="75" y1="0" x2="0" y2="0"/>
	</g>
	<rect x="-285.77" y="212.02" class="st3" width="75" height="75.01"/>
	<linearGradient id="SVGID_1_" gradientUnits="userSpaceOnUse" x1="-277.1311" y1="1.0821" x2="-278.0241" y2="1.0811">
		<stop  offset="0" style="stop-color:#FFFFFF"/>
		<stop  offset="1" style="stop-color:#231F20"/>
	</linearGradient>
	<polygon class="st4" points="-282.65,12.01 -273.27,12.01 -273.27,8.89 -276.4,8.89 -276.4,-9.86 -279.52,-9.86 -279.52,-6.74 
		-282.65,-6.74 -282.65,-3.61 -279.52,-3.61 -279.52,8.89 -282.65,8.89 	"/>
	<polygon class="st5" points="-229.52,-9.86 -229.52,5.76 -220.15,5.76 -220.15,12.01 -217.02,12.01 -217.02,5.76 -213.9,5.76 
		-213.9,2.64 -217.02,2.64 -217.02,-3.61 -220.15,-3.61 -220.15,2.64 -226.4,2.64 -226.4,-9.86 	"/>
	<polygon class="st5" points="-210.77,37.01 -198.27,37.01 -198.27,33.89 -207.65,33.89 -207.65,27.64 -201.4,27.64 -201.4,24.51 
		-207.65,24.51 -207.65,18.26 -198.27,18.26 -198.27,15.14 -210.77,15.14 	"/>
	<polygon class="st5" points="-192.02,37.01 -188.9,37.01 -188.9,27.64 -182.65,27.64 -182.65,24.51 -188.9,24.51 -188.9,18.26 
		-179.52,18.26 -179.52,15.14 -192.02,15.14 	"/>
	<polygon class="st6" points="-154.52,15.14 -154.52,37.01 -151.4,37.01 -151.4,27.64 -142.02,27.64 -142.02,37.01 -138.9,37.01 
		-138.9,15.14 -142.02,15.14 -142.02,24.51 -151.4,24.51 -151.4,15.14 	"/>
	<polygon class="st5" points="-132.65,15.14 -132.65,18.26 -129.52,18.26 -129.52,33.89 -132.65,33.89 -132.65,37.01 -123.27,37.01 
		-123.27,33.89 -126.4,33.89 -126.4,18.26 -123.27,18.26 -123.27,15.14 	"/>
	<polygon class="st5" points="-267.02,40.14 -267.02,62.01 -254.52,62.01 -254.52,58.89 -263.9,58.89 -263.9,40.14 	"/>
	<polygon class="st5" points="-120.15,40.14 -120.15,43.26 -113.9,43.26 -113.9,62.01 -110.77,62.01 -110.77,43.26 -104.52,43.26 
		-104.52,40.14 	"/>
	<g class="st1">
		<text transform="matrix(1 0 0 1.0393 -373.3522 128.2556)" style="font-family:'Arial-BoldMT'; font-size:11.5466px;">U</text>
		<text transform="matrix(1 0 0 1.0393 -365.8814 128.2556)" style="font-family:'Arial-BoldMT'; font-size:11.5466px;">s</text>
		<text transform="matrix(1 0 0 1.0393 -361.3092 128.2556)" style="font-family:'Arial-BoldMT'; font-size:11.5466px;">e</text>
		<text transform="matrix(1 0 0 1.0393 -353.0768 128.2556)" style="font-family:'Arial-BoldMT'; font-size:11.5466px;">t</text>
		<text transform="matrix(1 0 0 1.0393 -349.2545 128.2556)" style="font-family:'Arial-BoldMT'; font-size:11.5466px;">h</text>
		<text transform="matrix(1 0 0 1.0393 -342.8463 128.2556)" style="font-family:'Arial-BoldMT'; font-size:11.5466px;">i</text>
		<text transform="matrix(1 0 0 1.0393 -340.1442 128.2556)" style="font-family:'Arial-BoldMT'; font-size:11.5466px;">s</text>
		<text transform="matrix(1 0 0 1.0393 -333.1237 128.2556)" style="font-family:'Arial-BoldMT'; font-size:11.5466px;">g</text>
		<text transform="matrix(1 0 0 1.0393 -326.6696 128.2556)" style="font-family:'Arial-BoldMT'; font-size:11.5466px;">r</text>
		<text transform="matrix(1 0 0 1.0393 -322.8942 128.2556)" style="font-family:'Arial-BoldMT'; font-size:11.5466px;">i</text>
		<text transform="matrix(1 0 0 1.0393 -320.192 128.2556)" style="font-family:'Arial-BoldMT'; font-size:11.5466px;">d</text>
		<text transform="matrix(1 0 0 1.0393 -311.2321 128.2556)" style="font-family:'Arial-BoldMT'; font-size:11.5466px;">t</text>
		<text transform="matrix(1 0 0 1.0393 -307.4098 128.2556)" style="font-family:'Arial-BoldMT'; font-size:11.5466px;">o</text>
		<text transform="matrix(1 0 0 1.0393 -298.6227 128.2556)" style="font-family:'Arial-BoldMT'; font-size:11.5466px;">a</text>
		<text transform="matrix(1 0 0 1.0393 -293.0573 128.2556)" style="font-family:'Arial-BoldMT'; font-size:11.5466px;">l</text>
		<text transform="matrix(1 0 0 1.0393 -290.3327 128.2556)" style="font-family:'Arial-BoldMT'; font-size:11.5466px;">i</text>
		<text transform="matrix(1 0 0 1.0393 -287.6305 128.2556)" style="font-family:'Arial-BoldMT'; font-size:11.5466px;">g</text>
		<text transform="matrix(1 0 0 1.0393 -281.1754 128.2556)" style="font-family:'Arial-BoldMT'; font-size:11.5466px;">n</text>
		<text transform="matrix(1 0 0 1.0393 -272.32 128.2556)" style="font-family:'Arial-BoldMT'; font-size:11.5466px;">y</text>
		<text transform="matrix(1 0 0 1.0393 -266.8814 128.2556)" style="font-family:'Arial-BoldMT'; font-size:11.5466px;">o</text>
		<text transform="matrix(1 0 0 1.0393 -260.5417 128.2556)" style="font-family:'Arial-BoldMT'; font-size:11.5466px;">u</text>
		<text transform="matrix(1 0 0 1.0393 -254.1803 128.2556)" style="font-family:'Arial-BoldMT'; font-size:11.5466px;">r</text>
		<text transform="matrix(1 0 0 1.0393 -247.9566 128.2556)" style="font-family:'Arial-BoldMT'; font-size:11.5466px;">o</text>
		<text transform="matrix(1 0 0 1.0393 -241.6168 128.2556)" style="font-family:'Arial-BoldMT'; font-size:11.5466px;">b</text>
		<text transform="matrix(1 0 0 1.0393 -235.0474 128.2556)" style="font-family:'Arial-BoldMT'; font-size:11.5466px;">j</text>
		<text transform="matrix(1 0 0 1.0393 -232.2418 128.2556)" style="font-family:'Arial-BoldMT'; font-size:11.5466px;">e</text>
		<text transform="matrix(1 0 0 1.0393 -226.4567 128.2556)" style="font-family:'Arial-BoldMT'; font-size:11.5466px;">c</text>
		<text transform="matrix(1 0 0 1.0393 -221.2838 128.2556)" style="font-family:'Arial-BoldMT'; font-size:11.5466px;">t</text>
		<text transform="matrix(1 0 0 1.0393 -217.4616 128.2556)" style="font-family:'Arial-BoldMT'; font-size:11.5466px;">s</text>
		<text transform="matrix(1 0 0 1.0393 -210.441 128.2556)" style="font-family:'Arial-BoldMT'; font-size:11.5466px;">o</text>
		<text transform="matrix(1 0 0 1.0393 -204.1022 128.2556)" style="font-family:'Arial-BoldMT'; font-size:11.5466px;">n</text>
		<text transform="matrix(1 0 0 1.0393 -197.694 128.2556)" style="font-family:'Arial-BoldMT'; font-size:11.5466px;">t</text>
		<text transform="matrix(1 0 0 1.0393 -193.8717 128.2556)" style="font-family:'Arial-BoldMT'; font-size:11.5466px;">o</text>
		<text transform="matrix(1 0 0 1.0393 -185.0846 128.2556)" style="font-family:'Arial-BoldMT'; font-size:11.5466px;">a</text>
		<text transform="matrix(1 0 0 1.0393 -177.0719 128.2556)" style="font-family:'Arial-BoldMT'; font-size:11.5466px;">2</text>
		<text transform="matrix(1 0 0 1.0393 -171.1481 128.2556)" style="font-family:'Arial-BoldMT'; font-size:11.5466px;">4</text>
		<text transform="matrix(1 0 0 1.0393 -165.2252 128.2556)" style="font-family:'Arial-BoldMT'; font-size:11.5466px;">x</text>
		<text transform="matrix(1 0 0 1.0393 -159.8785 128.2556)" style="font-family:'Arial-BoldMT'; font-size:11.5466px;">2</text>
		<text transform="matrix(1 0 0 1.0393 -153.9557 128.2556)" style="font-family:'Arial-BoldMT'; font-size:11.5466px;">4</text>
		<text transform="matrix(1 0 0 1.0393 -145.5846 128.2556)" style="font-family:'Arial-BoldMT'; font-size:11.5466px;">p</text>
		<text transform="matrix(1 0 0 1.0393 -139.0143 128.2556)" style="font-family:'Arial-BoldMT'; font-size:11.5466px;">i</text>
		<text transform="matrix(1 0 0 1.0393 -136.3121 128.2556)" style="font-family:'Arial-BoldMT'; font-size:11.5466px;">x</text>
		<text transform="matrix(1 0 0 1.0393 -130.9664 128.2556)" style="font-family:'Arial-BoldMT'; font-size:11.5466px;">e</text>
		<text transform="matrix(1 0 0 1.0393 -125.1813 128.2556)" style="font-family:'Arial-BoldMT'; font-size:11.5466px;">l</text>
		<text transform="matrix(1 0 0 1.0393 -120.0084 128.2556)" style="font-family:'Arial-BoldMT'; font-size:11.5466px;">f</text>
		<text transform="matrix(1 0 0 1.0393 -116.6363 128.2556)" style="font-family:'Arial-BoldMT'; font-size:11.5466px;">o</text>
		<text transform="matrix(1 0 0 1.0393 -110.2975 128.2556)" style="font-family:'Arial-BoldMT'; font-size:11.5466px;">r</text>
		<text transform="matrix(1 0 0 1.0393 -106.5221 128.2556)" style="font-family:'Arial-BoldMT'; font-size:11.5466px;">m</text>
		<text transform="matrix(1 0 0 1.0393 -96.8922 128.2556)" style="font-family:'Arial-BoldMT'; font-size:11.5466px;">a</text>
		<text transform="matrix(1 0 0 1.0393 -91.3268 128.2556)" style="font-family:'Arial-BoldMT'; font-size:11.5466px;">t</text>
	</g>
	<g class="st1">
		<text transform="matrix(1 0 0 1.0393 -373.3522 233.1709)" style="font-family:'Arial-BoldMT'; font-size:11.5466px;">U</text>
		<text transform="matrix(1 0 0 1.0393 -365.8814 233.1709)" style="font-family:'Arial-BoldMT'; font-size:11.5466px;">s</text>
		<text transform="matrix(1 0 0 1.0393 -361.3092 233.1709)" style="font-family:'Arial-BoldMT'; font-size:11.5466px;">e</text>
		<text transform="matrix(1 0 0 1.0393 -353.0768 233.1709)" style="font-family:'Arial-BoldMT'; font-size:11.5466px;">t</text>
		<text transform="matrix(1 0 0 1.0393 -349.2545 233.1709)" style="font-family:'Arial-BoldMT'; font-size:11.5466px;">h</text>
		<text transform="matrix(1 0 0 1.0393 -342.8463 233.1709)" style="font-family:'Arial-BoldMT'; font-size:11.5466px;">i</text>
		<text transform="matrix(1 0 0 1.0393 -340.1442 233.1709)" style="font-family:'Arial-BoldMT'; font-size:11.5466px;">s</text>
		<text transform="matrix(1 0 0 1.0393 -333.1237 233.1709)" style="font-family:'Arial-BoldMT'; font-size:11.5466px;">b</text>
		<text transform="matrix(1 0 0 1.0393 -326.5543 233.1709)" style="font-family:'Arial-BoldMT'; font-size:11.5466px;">a</text>
		<text transform="matrix(1 0 0 1.0393 -320.9889 233.1709)" style="font-family:'Arial-BoldMT'; font-size:11.5466px;">c</text>
		<text transform="matrix(1 0 0 1.0393 -315.816 233.1709)" style="font-family:'Arial-BoldMT'; font-size:11.5466px;">k</text>
		<text transform="matrix(1 0 0 1.0393 -310.4001 233.1709)" style="font-family:'Arial-BoldMT'; font-size:11.5466px;">g</text>
		<text transform="matrix(1 0 0 1.0393 -303.9459 233.1709)" style="font-family:'Arial-BoldMT'; font-size:11.5466px;">r</text>
		<text transform="matrix(1 0 0 1.0393 -300.1696 233.1709)" style="font-family:'Arial-BoldMT'; font-size:11.5466px;">o</text>
		<text transform="matrix(1 0 0 1.0393 -293.8307 233.1709)" style="font-family:'Arial-BoldMT'; font-size:11.5466px;">u</text>
		<text transform="matrix(1 0 0 1.0393 -287.4684 233.1709)" style="font-family:'Arial-BoldMT'; font-size:11.5466px;">n</text>
		<text transform="matrix(1 0 0 1.0393 -281.0602 233.1709)" style="font-family:'Arial-BoldMT'; font-size:11.5466px;">d</text>
		<text transform="matrix(1 0 0 1.0393 -272.1002 233.1709)" style="font-family:'Arial-BoldMT'; font-size:11.5466px;">w</text>
		<text transform="matrix(1 0 0 1.0393 -263.6021 233.1709)" style="font-family:'Arial-BoldMT'; font-size:11.5466px;">i</text>
		<text transform="matrix(1 0 0 1.0393 -260.9 233.1709)" style="font-family:'Arial-BoldMT'; font-size:11.5466px;">d</text>
		<text transform="matrix(1 0 0 1.0393 -254.3873 233.1709)" style="font-family:'Arial-BoldMT'; font-size:11.5466px;">g</text>
		<text transform="matrix(1 0 0 1.0393 -247.9332 233.1709)" style="font-family:'Arial-BoldMT'; font-size:11.5466px;">e</text>
		<text transform="matrix(1 0 0 1.0393 -242.1481 233.1709)" style="font-family:'Arial-BoldMT'; font-size:11.5466px;">t</text>
		<text transform="matrix(1 0 0 1.0393 -235.8785 233.1709)" style="font-family:'Arial-BoldMT'; font-size:11.5466px;">t</text>
		<text transform="matrix(1 0 0 1.0393 -232.0563 233.1709)" style="font-family:'Arial-BoldMT'; font-size:11.5466px;">o</text>
		<text transform="matrix(1 0 0 1.0393 -223.2691 233.1709)" style="font-family:'Arial-BoldMT'; font-size:11.5466px;">e</text>
		<text transform="matrix(1 0 0 1.0393 -217.4849 233.1709)" style="font-family:'Arial-BoldMT'; font-size:11.5466px;">x</text>
		<text transform="matrix(1 0 0 1.0393 -212.1383 233.1709)" style="font-family:'Arial-BoldMT'; font-size:11.5466px;">p</text>
		<text transform="matrix(1 0 0 1.0393 -205.569 233.1709)" style="font-family:'Arial-BoldMT'; font-size:11.5466px;">o</text>
		<text transform="matrix(1 0 0 1.0393 -199.2301 233.1709)" style="font-family:'Arial-BoldMT'; font-size:11.5466px;">r</text>
		<text transform="matrix(1 0 0 1.0393 -195.4538 233.1709)" style="font-family:'Arial-BoldMT'; font-size:11.5466px;">t</text>
		<text transform="matrix(1 0 0 1.0393 -189.1842 233.1709)" style="font-family:'Arial-BoldMT'; font-size:11.5466px;">y</text>
		<text transform="matrix(1 0 0 1.0393 -183.7457 233.1709)" style="font-family:'Arial-BoldMT'; font-size:11.5466px;">o</text>
		<text transform="matrix(1 0 0 1.0393 -177.4068 233.1709)" style="font-family:'Arial-BoldMT'; font-size:11.5466px;">u</text>
		<text transform="matrix(1 0 0 1.0393 -171.0445 233.1709)" style="font-family:'Arial-BoldMT'; font-size:11.5466px;">r</text>
		<text transform="matrix(1 0 0 1.0393 -167.2682 233.1709)" style="font-family:'Arial-BoldMT'; font-size:11.5466px;">i</text>
		<text transform="matrix(1 0 0 1.0393 -164.567 233.1709)" style="font-family:'Arial-BoldMT'; font-size:11.5466px;">c</text>
		<text transform="matrix(1 0 0 1.0393 -159.3941 233.1709)" style="font-family:'Arial-BoldMT'; font-size:11.5466px;">o</text>
		<text transform="matrix(1 0 0 1.0393 -153.0543 233.1709)" style="font-family:'Arial-BoldMT'; font-size:11.5466px;">n</text>
		<text transform="matrix(1 0 0 1.0393 -146.6461 233.1709)" style="font-family:'Arial-BoldMT'; font-size:11.5466px;">s</text>
		<text transform="matrix(1 0 0 1.0393 -139.6256 233.1709)" style="font-family:'Arial-BoldMT'; font-size:11.5466px;">w</text>
		<text transform="matrix(1 0 0 1.0393 -131.1275 233.1709)" style="font-family:'Arial-BoldMT'; font-size:11.5466px;">h</text>
		<text transform="matrix(1 0 0 1.0393 -124.7193 233.1709)" style="font-family:'Arial-BoldMT'; font-size:11.5466px;">i</text>
		<text transform="matrix(1 0 0 1.0393 -122.0172 233.1709)" style="font-family:'Arial-BoldMT'; font-size:11.5466px;">l</text>
		<text transform="matrix(1 0 0 1.0393 -119.2926 233.1709)" style="font-family:'Arial-BoldMT'; font-size:11.5466px;">e</text>
		<text transform="matrix(1 0 0 1.0393 -111.0602 233.1709)" style="font-family:'Arial-BoldMT'; font-size:11.5466px;">e</text>
		<text transform="matrix(1 0 0 1.0393 -105.275 233.1709)" style="font-family:'Arial-BoldMT'; font-size:11.5466px;">n</text>
		<text transform="matrix(1 0 0 1.0393 -98.8668 233.1709)" style="font-family:'Arial-BoldMT'; font-size:11.5466px;">s</text>
		<text transform="matrix(1 0 0 1.0393 -94.2945 233.1709)" style="font-family:'Arial-BoldMT'; font-size:11.5466px;">u</text>
		<text transform="matrix(1 0 0 1.0393 -87.9322 233.1709)" style="font-family:'Arial-BoldMT'; font-size:11.5466px;">r</text>
		<text transform="matrix(1 0 0 1.0393 -84.1559 233.1709)" style="font-family:'Arial-BoldMT'; font-size:11.5466px;">i</text>
		<text transform="matrix(1 0 0 1.0393 -81.4547 233.1709)" style="font-family:'Arial-BoldMT'; font-size:11.5466px;">n</text>
		<text transform="matrix(1 0 0 1.0393 -75.0455 233.1709)" style="font-family:'Arial-BoldMT'; font-size:11.5466px;">g</text>
		<text transform="matrix(1 0 0 1.0393 -66.1432 233.1709)" style="font-family:'Arial-BoldMT'; font-size:11.5466px;">2</text>
		<text transform="matrix(1 0 0 1.0393 -60.2203 233.1709)" style="font-family:'Arial-BoldMT'; font-size:11.5466px;">4</text>
		<text transform="matrix(1 0 0 1.0393 -54.2965 233.1709)" style="font-family:'Arial-BoldMT'; font-size:11.5466px;">x</text>
		<text transform="matrix(1 0 0 1.0393 -48.9508 233.1709)" style="font-family:'Arial-BoldMT'; font-size:11.5466px;">2</text>
		<text transform="matrix(1 0 0 1.0393 -43.027 233.1709)" style="font-family:'Arial-BoldMT'; font-size:11.5466px;">4</text>
		<text transform="matrix(1 0 0 1.0393 -34.6559 233.1709)" style="font-family:'Arial-BoldMT'; font-size:11.5466px;">f</text>
		<text transform="matrix(1 0 0 1.0393 -31.2848 233.1709)" style="font-family:'Arial-BoldMT'; font-size:11.5466px;">o</text>
		<text transform="matrix(1 0 0 1.0393 -24.9449 233.1709)" style="font-family:'Arial-BoldMT'; font-size:11.5466px;">r</text>
		<text transform="matrix(1 0 0 1.0393 -21.1695 233.1709)" style="font-family:'Arial-BoldMT'; font-size:11.5466px;">m</text>
		<text transform="matrix(1 0 0 1.0393 -11.5397 233.1709)" style="font-family:'Arial-BoldMT'; font-size:11.5466px;">a</text>
		<text transform="matrix(1 0 0 1.0393 -5.9742 233.1709)" style="font-family:'Arial-BoldMT'; font-size:11.5466px;">t</text>
		<text transform="matrix(1 0 0 1.0393 -2.152 233.1709)" style="font-family:'Arial-BoldMT'; font-size:11.5466px;">t</text>
		<text transform="matrix(1 0 0 1.0393 1.6693 233.1709)" style="font-family:'Arial-BoldMT'; font-size:11.5466px;">i</text>
		<text transform="matrix(1 0 0 1.0393 4.3715 233.1709)" style="font-family:'Arial-BoldMT'; font-size:11.5466px;">n</text>
		<text transform="matrix(1 0 0 1.0393 10.7797 233.1709)" style="font-family:'Arial-BoldMT'; font-size:11.5466px;">g</text>
	</g>
	<g class="st1">
		<text transform="matrix(1 0 0 1.0393 -366.8841 -25.7951)" style="font-family:'Arial-BoldMT'; font-size:11.5466px;">U</text>
		<text transform="matrix(1 0 0 1.0393 -359.4134 -25.7951)" style="font-family:'Arial-BoldMT'; font-size:11.5466px;">s</text>
		<text transform="matrix(1 0 0 1.0393 -354.8407 -25.7951)" style="font-family:'Arial-BoldMT'; font-size:11.5466px;">e</text>
		<text transform="matrix(1 0 0 1.0393 -346.6078 -25.7951)" style="font-family:'Arial-BoldMT'; font-size:11.5466px;">t</text>
		<text transform="matrix(1 0 0 1.0393 -342.7865 -25.7951)" style="font-family:'Arial-BoldMT'; font-size:11.5466px;">h</text>
		<text transform="matrix(1 0 0 1.0393 -336.3783 -25.7951)" style="font-family:'Arial-BoldMT'; font-size:11.5466px;">e</text>
		<text transform="matrix(1 0 0 1.0393 -330.5931 -25.7951)" style="font-family:'Arial-BoldMT'; font-size:11.5466px;">s</text>
		<text transform="matrix(1 0 0 1.0393 -326.0208 -25.7951)" style="font-family:'Arial-BoldMT'; font-size:11.5466px;">e</text>
		<text transform="matrix(1 0 0 1.0393 -317.7874 -25.7951)" style="font-family:'Arial-BoldMT'; font-size:11.5466px;">c</text>
		<text transform="matrix(1 0 0 1.0393 -312.6146 -25.7951)" style="font-family:'Arial-BoldMT'; font-size:11.5466px;">h</text>
		<text transform="matrix(1 0 0 1.0393 -306.2064 -25.7951)" style="font-family:'Arial-BoldMT'; font-size:11.5466px;">a</text>
		<text transform="matrix(1 0 0 1.0393 -300.641 -25.7951)" style="font-family:'Arial-BoldMT'; font-size:11.5466px;">r</text>
		<text transform="matrix(1 0 0 1.0393 -296.8656 -25.7951)" style="font-family:'Arial-BoldMT'; font-size:11.5466px;">a</text>
		<text transform="matrix(1 0 0 1.0393 -291.3001 -25.7951)" style="font-family:'Arial-BoldMT'; font-size:11.5466px;">c</text>
		<text transform="matrix(1 0 0 1.0393 -286.1273 -25.7951)" style="font-family:'Arial-BoldMT'; font-size:11.5466px;">t</text>
		<text transform="matrix(1 0 0 1.0393 -282.305 -25.7951)" style="font-family:'Arial-BoldMT'; font-size:11.5466px;">e</text>
		<text transform="matrix(1 0 0 1.0393 -276.5199 -25.7951)" style="font-family:'Arial-BoldMT'; font-size:11.5466px;">r</text>
		<text transform="matrix(1 0 0 1.0393 -272.7445 -25.7951)" style="font-family:'Arial-BoldMT'; font-size:11.5466px;">s</text>
		<text transform="matrix(1 0 0 1.0393 -268.1722 -25.7951)" style="font-family:'Arial-BoldMT'; font-size:11.5466px;">i</text>
		<text transform="matrix(1 0 0 1.0393 -265.4701 -25.7951)" style="font-family:'Arial-BoldMT'; font-size:11.5466px;">n</text>
		<text transform="matrix(1 0 0 1.0393 -259.0619 -25.7951)" style="font-family:'Arial-BoldMT'; font-size:11.5466px;">s</text>
		<text transform="matrix(1 0 0 1.0393 -254.4896 -25.7951)" style="font-family:'Arial-BoldMT'; font-size:11.5466px;">i</text>
		<text transform="matrix(1 0 0 1.0393 -251.7874 -25.7951)" style="font-family:'Arial-BoldMT'; font-size:11.5466px;">d</text>
		<text transform="matrix(1 0 0 1.0393 -245.2747 -25.7951)" style="font-family:'Arial-BoldMT'; font-size:11.5466px;">e</text>
		<text transform="matrix(1 0 0 1.0393 -237.0423 -25.7951)" style="font-family:'Arial-BoldMT'; font-size:11.5466px;">y</text>
		<text transform="matrix(1 0 0 1.0393 -231.6038 -25.7951)" style="font-family:'Arial-BoldMT'; font-size:11.5466px;">o</text>
		<text transform="matrix(1 0 0 1.0393 -225.265 -25.7951)" style="font-family:'Arial-BoldMT'; font-size:11.5466px;">u</text>
		<text transform="matrix(1 0 0 1.0393 -218.9027 -25.7951)" style="font-family:'Arial-BoldMT'; font-size:11.5466px;">r</text>
		<text transform="matrix(1 0 0 1.0393 -212.679 -25.7951)" style="font-family:'Arial-BoldMT'; font-size:11.5466px;">i</text>
		<text transform="matrix(1 0 0 1.0393 -209.9769 -25.7951)" style="font-family:'Arial-BoldMT'; font-size:11.5466px;">c</text>
		<text transform="matrix(1 0 0 1.0393 -204.804 -25.7951)" style="font-family:'Arial-BoldMT'; font-size:11.5466px;">o</text>
		<text transform="matrix(1 0 0 1.0393 -198.4652 -25.7951)" style="font-family:'Arial-BoldMT'; font-size:11.5466px;">n</text>
		<text transform="matrix(1 0 0 1.0393 -192.057 -25.7951)" style="font-family:'Arial-BoldMT'; font-size:11.5466px;">s</text>
		<text transform="matrix(1 0 0 1.0393 -187.4847 -25.7951)" style="font-family:'Arial-BoldMT'; font-size:11.5466px;">(</text>
		<text transform="matrix(1 0 0 1.0393 -184.2054 -25.7951)" style="font-family:'Arial-BoldMT'; font-size:11.5466px;">b</text>
		<text transform="matrix(1 0 0 1.0393 -177.6351 -25.7951)" style="font-family:'Arial-BoldMT'; font-size:11.5466px;">u</text>
		<text transform="matrix(1 0 0 1.0393 -171.2728 -25.7951)" style="font-family:'Arial-BoldMT'; font-size:11.5466px;">t</text>
		<text transform="matrix(1 0 0 1.0393 -165.0033 -25.7951)" style="font-family:'Arial-BoldMT'; font-size:11.5466px;">i</text>
		<text transform="matrix(1 0 0 1.0393 -162.3011 -25.7951)" style="font-family:'Arial-BoldMT'; font-size:11.5466px;">c</text>
		<text transform="matrix(1 0 0 1.0393 -157.1283 -25.7951)" style="font-family:'Arial-BoldMT'; font-size:11.5466px;">o</text>
		<text transform="matrix(1 0 0 1.0393 -150.7894 -25.7951)" style="font-family:'Arial-BoldMT'; font-size:11.5466px;">n</text>
		<text transform="matrix(1 0 0 1.0393 -144.3812 -25.7951)" style="font-family:'Arial-BoldMT'; font-size:11.5466px;">s</text>
		<text transform="matrix(1 0 0 1.0393 -137.3607 -25.7951)" style="font-family:'Arial-BoldMT'; font-size:11.5466px;">w</text>
		<text transform="matrix(1 0 0 1.0393 -128.8626 -25.7951)" style="font-family:'Arial-BoldMT'; font-size:11.5466px;">i</text>
		<text transform="matrix(1 0 0 1.0393 -126.1605 -25.7951)" style="font-family:'Arial-BoldMT'; font-size:11.5466px;">t</text>
		<text transform="matrix(1 0 0 1.0393 -122.3382 -25.7951)" style="font-family:'Arial-BoldMT'; font-size:11.5466px;">h</text>
		<text transform="matrix(1 0 0 1.0393 -115.93 -25.7951)" style="font-family:'Arial-BoldMT'; font-size:11.5466px;">o</text>
		<text transform="matrix(1 0 0 1.0393 -109.5911 -25.7951)" style="font-family:'Arial-BoldMT'; font-size:11.5466px;">u</text>
		<text transform="matrix(1 0 0 1.0393 -103.2288 -25.7951)" style="font-family:'Arial-BoldMT'; font-size:11.5466px;">t</text>
		<text transform="matrix(1 0 0 1.0393 -99.4066 -25.7951)" style="font-family:'Arial-BoldMT'; font-size:11.5466px;">t</text>
		<text transform="matrix(1 0 0 1.0393 -95.5853 -25.7951)" style="font-family:'Arial-BoldMT'; font-size:11.5466px;">e</text>
		<text transform="matrix(1 0 0 1.0393 -89.8001 -25.7951)" style="font-family:'Arial-BoldMT'; font-size:11.5466px;">x</text>
		<text transform="matrix(1 0 0 1.0393 -84.4544 -25.7951)" style="font-family:'Arial-BoldMT'; font-size:11.5466px;">t</text>
		<text transform="matrix(1 0 0 1.0393 -78.1839 -25.7951)" style="font-family:'Arial-BoldMT'; font-size:11.5466px;">w</text>
		<text transform="matrix(1 0 0 1.0393 -69.6859 -25.7951)" style="font-family:'Arial-BoldMT'; font-size:11.5466px;">o</text>
		<text transform="matrix(1 0 0 1.0393 -63.347 -25.7951)" style="font-family:'Arial-BoldMT'; font-size:11.5466px;">r</text>
		<text transform="matrix(1 0 0 1.0393 -59.5706 -25.7951)" style="font-family:'Arial-BoldMT'; font-size:11.5466px;">k</text>
		<text transform="matrix(1 0 0 1.0393 -51.7083 -25.7951)" style="font-family:'Arial-BoldMT'; font-size:11.5466px;">b</text>
		<text transform="matrix(1 0 0 1.0393 -45.138 -25.7951)" style="font-family:'Arial-BoldMT'; font-size:11.5466px;">e</text>
		<text transform="matrix(1 0 0 1.0393 -39.3529 -25.7951)" style="font-family:'Arial-BoldMT'; font-size:11.5466px;">s</text>
		<text transform="matrix(1 0 0 1.0393 -34.7806 -25.7951)" style="font-family:'Arial-BoldMT'; font-size:11.5466px;">t</text>
		<text transform="matrix(1 0 0 1.0393 -30.9583 -25.7951)" style="font-family:'Arial-BoldMT'; font-size:11.5466px;">)</text>
		<text transform="matrix(1 0 0 1.0393 -27.679 -25.7951)" style="font-family:'Arial-BoldMT'; font-size:11.5466px;">.</text>
	</g>
	<line class="st7" x1="-335.68" y1="139.54" x2="-308.85" y2="139.54"/>
	<polygon class="st5" points="-330.68,139.54 -338.18,132.04 -343.18,132.04 -338.18,137.04 -339.43,137.04 -344.43,132.04 
		-349.43,132.04 -344.43,137.04 -345.68,137.04 -350.68,132.04 -355.68,132.04 -348.18,139.54 -355.68,147.04 -350.68,147.04 
		-345.68,142.04 -344.43,142.04 -349.43,147.04 -344.43,147.04 -339.43,142.04 -338.18,142.04 -343.18,147.04 -338.18,147.04 	"/>
	<path class="st5" d="M-310.1,139.54v6.25c0,0.93,1.64,1.61,2.5,1.25l15-6.25c0.55-0.23,1.25-0.66,1.25-1.25s-0.7-1.02-1.25-1.25
		l-15-6.25C-308.46,131.68-310.1,132.36-310.1,139.54z"/>
	<line class="st7" x1="-335.68" y1="245.35" x2="-308.85" y2="245.35"/>
	<polygon class="st5" points="-330.68,245.35 -338.18,237.85 -343.18,237.85 -338.18,242.85 -339.43,242.85 -344.43,237.85 
		-349.43,237.85 -344.43,242.85 -345.68,242.85 -350.68,237.85 -355.68,237.85 -348.18,245.35 -355.68,252.85 -350.68,252.85 
		-345.68,247.85 -344.43,247.85 -349.43,252.85 -344.43,252.85 -339.43,247.85 -338.18,247.85 -343.18,252.85 -338.18,252.85 	"/>
	<path class="st5" d="M-310.1,245.35v6.25c0,0.93,1.64,1.61,2.5,1.25l15-6.25c0.55-0.23,1.25-0.66,1.25-1.25
		c0-0.59-0.7-1.02-1.25-1.25l-15-6.25C-308.46,237.49-310.1,238.17-310.1,245.35z"/>
	<line class="st7" x1="-336.04" y1="47.95" x2="-309.21" y2="47.95"/>
	<polygon class="st5" points="-331.04,47.95 -338.54,40.45 -343.54,40.45 -338.54,45.45 -339.79,45.45 -344.79,40.45 -349.79,40.45 
		-344.79,45.45 -346.04,45.45 -351.04,40.45 -356.04,40.45 -348.54,47.95 -356.04,55.45 -351.04,55.45 -346.04,50.45 -344.79,50.45 
		-349.79,55.45 -344.79,55.45 -339.79,50.45 -338.54,50.45 -343.54,55.45 -338.54,55.45 	"/>
	<path class="st5" d="M-310.46,47.95v6.25c0,0.93,1.64,1.61,2.5,1.25l15-6.25c0.54-0.23,1.25-0.66,1.25-1.25s-0.71-1.02-1.25-1.25
		l-15-6.25C-308.82,40.09-310.46,40.77-310.46,47.95z"/>
	<path class="st8" d="M-115.46-3.61v9.37c0,2.59,2.1,4.69,4.69,4.69h3.12c2.59,0,4.69-2.1,4.69-4.69v-9.37
		c0-2.59-2.1-4.69-4.69-4.69h-3.12C-113.36-8.3-115.46-6.2-115.46-3.61z"/>
	<path class="st8" d="M-121.71,1.08h-7.81c-2.59,0-4.69-2.1-4.69-4.69s2.1-4.69,4.69-4.69h3.12c2.59,0,4.69,2.1,4.69,4.69v9.37
		c0,2.59-2.1,4.69-4.69,4.69h-6.25"/>
	<g class="st1">
		<path class="st9" d="M-145.15,1.08h-3.12c-2.59,0-4.69-2.1-4.69-4.69s2.1-4.69,4.69-4.69h3.12c2.59,0,4.69,2.1,4.69,4.69
			S-142.56,1.08-145.15,1.08z"/>
		<path class="st9" d="M-148.27,1.08h3.12c2.59,0,4.69,2.1,4.69,4.68c0,2.59-2.1,4.69-4.69,4.69h-3.12c-2.59,0-4.69-2.1-4.69-4.69
			C-152.96,3.18-150.86,1.08-148.27,1.08z"/>
	</g>
	<path class="st8" d="M-190.46,1.08h7.81c2.59,0,4.69,2.1,4.69,4.68c0,2.59-2.1,4.69-4.69,4.69h-3.12c-2.59,0-4.69-2.1-4.69-4.69
		v-9.37c0-2.59,2.1-4.69,4.69-4.69h6.25"/>
	<path class="st8" d="M-209.21,5.76c0,2.59,2.1,4.69,4.69,4.69h3.12c2.59,0,4.69-2.1,4.69-4.69c0-2.58-2.1-4.68-4.69-4.68h-7.81
		V-8.3h10.94"/>
	<path class="st8" d="M-251.4,10.45h-12.5V8.89l9.53-9.15c0.87-0.85,1.41-2.04,1.41-3.35c0-2.59-2.1-4.69-4.69-4.69h-3.12
		c-2.59,0-4.69,2.1-4.69,4.69"/>
	<path class="st8" d="M-246.71,5.76c0,2.59,2.1,4.69,4.69,4.69h3.12c2.59,0,4.69-2.1,4.69-4.69c0-2.58-2.1-4.68-4.69-4.68h-3.12
		h3.12c2.59,0,4.69-2.1,4.69-4.69s-2.1-4.69-4.69-4.69h-3.12c-2.59,0-4.69,2.1-4.69,4.69"/>
	<polyline class="st8" points="-173.27,-8.3 -159.21,-8.3 -159.21,-5.17 -168.59,4.2 -168.59,12.01 	"/>
	<path class="st8" d="M-159.21,21.39c0-2.59-2.1-4.69-4.69-4.69h-3.12c-2.59,0-4.69,2.1-4.69,4.69v9.37c0,2.59,2.1,4.69,4.69,4.69
		h3.12c2.59,0,4.69-2.1,4.69-4.69V29.2h-4.69"/>
	<g class="st1">
		<path class="st9" d="M-271.71,37.01V21.39c0-2.59-2.1-4.69-4.69-4.69h-3.12c-2.59,0-4.69,2.1-4.69,4.69v15.62"/>
		<line class="st9" x1="-284.21" y1="29.2" x2="-271.71" y2="29.2"/>
	</g>
	<path class="st8" d="M-257.65,35.45c2.59,0,4.69-2.1,4.69-4.69c0-2.58-2.1-4.68-4.69-4.68h-7.81h7.81c2.59,0,4.69-2.1,4.69-4.69
		s-2.1-4.69-4.69-4.69h-7.81v18.75H-257.65z"/>
	<path class="st8" d="M-234.21,21.39c0-2.59-2.1-4.69-4.69-4.69h-3.12c-2.59,0-4.69,2.1-4.69,4.69v9.37c0,2.59,2.1,4.69,4.69,4.69
		h3.12c2.59,0,4.69-2.1,4.69-4.69"/>
	<path class="st8" d="M-227.96,16.7v18.75h7.81c2.59,0,4.69-2.1,4.69-4.69v-9.37c0-2.59-2.1-4.69-4.69-4.69H-227.96z"/>
	<path class="st8" d="M-115.46,30.76c0,2.59,2.1,4.69,4.69,4.69l0,0c2.58,0,4.68-2.1,4.68-4.69V16.7h-4.68h9.37"/>
	<g class="st1">
		<line class="st9" x1="-284.21" y1="40.14" x2="-284.21" y2="62.01"/>
		<polyline class="st10" points="-271.71,41.7 -281.09,51.08 -271.71,60.45 		"/>
	</g>
	<polyline class="st11" points="-249.84,62.01 -249.84,41.7 -243.59,47.95 -243.59,52.64 -243.59,47.95 -237.34,41.7 -237.34,62.01 
			"/>
	<g class="st1">
		<polyline class="st12" points="-231.09,62.01 -231.09,41.7 -218.59,54.2 		"/>
		<line class="st9" x1="-218.59" y1="40.14" x2="-218.59" y2="62.01"/>
	</g>
	<path class="st8" d="M-212.34,46.39v9.37c0,2.59,2.1,4.69,4.69,4.69h3.13c2.58,0,4.68-2.1,4.68-4.69v-9.37
		c0-2.59-2.1-4.69-4.68-4.69h-3.13C-210.24,41.7-212.34,43.8-212.34,46.39z"/>
	<path class="st8" d="M-193.59,51.08h7.82c2.58,0,4.68-2.1,4.68-4.69s-2.1-4.69-4.68-4.69h-7.82v20.31"/>
	<g class="st1">
		<path class="st9" d="M-174.84,46.39v9.37c0,2.59,2.1,4.69,4.69,4.69h3.13c2.58,0,4.68-2.1,4.68-4.69v-9.37
			c0-2.59-2.1-4.69-4.68-4.69h-3.13C-172.74,41.7-174.84,43.8-174.84,46.39z"/>
		<line class="st13" x1="-165.46" y1="57.33" x2="-162.34" y2="60.45"/>
	</g>
	<path class="st8" d="M-156.09,51.08h7.82c2.58,0,4.68-2.1,4.68-4.69s-2.1-4.69-4.68-4.69h-7.82v20.31"/>
	<path class="st8" d="M-143.59,62.01v-6.25c0-2.58-2.1-4.68-4.68-4.68"/>
	<path class="st8" d="M-137.34,55.76c0,2.59,2.1,4.69,4.69,4.69h3.13c2.58,0,4.68-2.1,4.68-4.69c0-2.58-2.1-4.68-4.68-4.68h-3.13
		c-2.59,0-4.69-2.1-4.69-4.69s2.1-4.69,4.69-4.69h3.13c2.58,0,4.68,2.1,4.68,4.69"/>
	<path class="st8" d="M-284.21,65.14v15.62c0,2.59,2.1,4.69,4.69,4.69h3.12c2.59,0,4.69-2.1,4.69-4.69V65.14"/>
	<polyline class="st11" points="-265.46,65.14 -265.46,79.2 -259.21,85.45 -252.96,79.2 -252.96,65.14 	"/>
	<polyline class="st11" points="-246.71,65.14 -246.71,82.33 -243.59,85.45 -240.46,82.33 -240.46,79.2 -240.46,82.33 
		-237.34,85.45 -234.21,82.33 -234.21,65.14 	"/>
	<g class="st1">
		<polyline class="st12" points="-227.96,65.14 -227.96,69.83 -215.46,82.33 -215.46,87.01 		"/>
		<polyline class="st12" points="-227.96,87.01 -227.96,82.33 -215.46,69.83 -215.46,65.14 		"/>
	</g>
	<g class="st1">
		<polyline class="st12" points="-209.21,65.14 -209.21,72.95 -202.96,79.2 -196.71,72.95 -196.71,65.14 		"/>
		<line class="st12" x1="-202.96" y1="87.01" x2="-202.96" y2="79.2"/>
	</g>
	<polyline class="st11" points="-192.02,66.7 -177.96,66.7 -177.96,69.83 -190.46,82.33 -190.46,85.45 -176.4,85.45 	"/>
	<g class="st1">
		<line class="st2" x1="-285.78" y1="212.02" x2="-285.78" y2="137.02"/>
		<line class="st2" x1="-282.65" y1="212.02" x2="-282.65" y2="137.02"/>
		<line class="st2" x1="-279.53" y1="212.02" x2="-279.53" y2="137.02"/>
		<line class="st2" x1="-276.4" y1="212.02" x2="-276.4" y2="137.02"/>
		<line class="st2" x1="-273.28" y1="212.02" x2="-273.28" y2="137.02"/>
		<line class="st2" x1="-270.15" y1="212.02" x2="-270.15" y2="137.02"/>
		<line class="st2" x1="-267.03" y1="212.02" x2="-267.03" y2="137.02"/>
		<line class="st2" x1="-263.9" y1="212.02" x2="-263.9" y2="137.02"/>
		<line class="st2" x1="-260.78" y1="212.02" x2="-260.78" y2="137.02"/>
		<line class="st2" x1="-257.65" y1="212.02" x2="-257.65" y2="137.02"/>
		<line class="st2" x1="-254.53" y1="212.02" x2="-254.53" y2="137.02"/>
		<line class="st2" x1="-251.4" y1="212.02" x2="-251.4" y2="137.02"/>
		<line class="st2" x1="-248.28" y1="212.02" x2="-248.28" y2="137.02"/>
		<line class="st2" x1="-245.15" y1="212.02" x2="-245.15" y2="137.02"/>
		<line class="st2" x1="-242.03" y1="212.02" x2="-242.03" y2="137.02"/>
		<line class="st2" x1="-238.9" y1="212.02" x2="-238.9" y2="137.02"/>
		<line class="st2" x1="-235.78" y1="212.02" x2="-235.78" y2="137.02"/>
		<line class="st2" x1="-232.65" y1="212.02" x2="-232.65" y2="137.02"/>
		<line class="st2" x1="-229.53" y1="212.02" x2="-229.53" y2="137.02"/>
		<line class="st2" x1="-226.4" y1="212.02" x2="-226.4" y2="137.02"/>
		<line class="st2" x1="-223.28" y1="212.02" x2="-223.28" y2="137.02"/>
		<line class="st2" x1="-220.15" y1="212.02" x2="-220.15" y2="137.02"/>
		<line class="st2" x1="-217.03" y1="212.02" x2="-217.03" y2="137.02"/>
		<line class="st2" x1="-213.9" y1="212.02" x2="-213.9" y2="137.02"/>
		<line class="st2" x1="-210.78" y1="212.02" x2="-210.78" y2="137.02"/>
		<line class="st2" x1="-210.78" y1="212.02" x2="-285.78" y2="212.02"/>
		<line class="st2" x1="-210.78" y1="208.9" x2="-285.78" y2="208.9"/>
		<line class="st2" x1="-210.78" y1="205.78" x2="-285.78" y2="205.78"/>
		<line class="st2" x1="-210.78" y1="202.65" x2="-285.78" y2="202.65"/>
		<line class="st2" x1="-210.78" y1="199.53" x2="-285.78" y2="199.53"/>
		<line class="st2" x1="-210.78" y1="196.4" x2="-285.78" y2="196.4"/>
		<line class="st2" x1="-210.78" y1="193.27" x2="-285.78" y2="193.27"/>
		<line class="st2" x1="-210.78" y1="190.15" x2="-285.78" y2="190.15"/>
		<line class="st2" x1="-210.78" y1="187.03" x2="-285.78" y2="187.03"/>
		<line class="st2" x1="-210.78" y1="183.9" x2="-285.78" y2="183.9"/>
		<line class="st2" x1="-210.78" y1="180.78" x2="-285.78" y2="180.78"/>
		<line class="st2" x1="-210.78" y1="177.65" x2="-285.78" y2="177.65"/>
		<line class="st2" x1="-210.78" y1="174.52" x2="-285.78" y2="174.52"/>
		<line class="st2" x1="-210.78" y1="171.4" x2="-285.78" y2="171.4"/>
		<line class="st2" x1="-210.78" y1="168.28" x2="-285.78" y2="168.28"/>
		<line class="st2" x1="-210.78" y1="165.15" x2="-285.78" y2="165.15"/>
		<line class="st2" x1="-210.78" y1="162.03" x2="-285.78" y2="162.03"/>
		<line class="st2" x1="-210.78" y1="158.9" x2="-285.78" y2="158.9"/>
		<line class="st2" x1="-210.78" y1="155.77" x2="-285.78" y2="155.77"/>
		<line class="st2" x1="-210.78" y1="152.65" x2="-285.78" y2="152.65"/>
		<line class="st2" x1="-210.78" y1="149.53" x2="-285.78" y2="149.53"/>
		<line class="st2" x1="-210.78" y1="146.4" x2="-285.78" y2="146.4"/>
		<line class="st2" x1="-210.78" y1="143.28" x2="-285.78" y2="143.28"/>
		<line class="st2" x1="-210.78" y1="140.15" x2="-285.78" y2="140.15"/>
		<line class="st2" x1="-210.78" y1="137.02" x2="-285.78" y2="137.02"/>
	</g>
	<line class="st14" x1="76.14" y1="34.54" x2="76.85" y2="33.83"/>
	<g class="st1">
		<g>
			<path d="M-49.97,87.01h1.12v8.52h-1.17v-6.38l0.06,0.38l-2.1,4.82h-0.83l-2.1-4.71l0.06-0.49v6.38h-1.17v-8.52h1.12l2.5,5.62
				L-49.97,87.01z"/>
			<path d="M-44.42,87.01h1.02l3.14,8.52h-1.29l-2.36-6.87l-2.36,6.87h-1.29L-44.42,87.01z M-46.11,92.53h4.48v1.14h-4.48V92.53z"/>
			<path d="M-38.97,87.01h1.2v8.52h-1.2V87.01z M-38.03,91.8l3.76-4.78h1.47l-5.41,6.57L-38.03,91.8z M-36.61,90.99l0.94-0.87
				l3.23,5.42h-1.46L-36.61,90.99z"/>
			<path d="M-31.27,87.01h1.2v8.52h-1.2V87.01z M-30.69,87.01h4.89v1.14h-4.89V87.01z M-30.69,90.74h4.25v1.14h-4.25V90.74z
				 M-30.69,94.4h4.89v1.14h-4.89V94.4z"/>
			<path d="M-19.48,95.5c-0.37-0.08-0.71-0.2-1.03-0.35s-0.62-0.35-0.89-0.59l0.74-0.91c0.32,0.28,0.68,0.49,1.07,0.63
				s0.81,0.21,1.27,0.21c0.62,0,1.1-0.11,1.44-0.34s0.51-0.55,0.51-0.97v-0.01c0-0.3-0.08-0.53-0.23-0.71s-0.35-0.3-0.6-0.39
				s-0.56-0.16-0.95-0.23c-0.01,0-0.02-0.01-0.04-0.01s-0.03,0-0.04-0.01l-0.09-0.02c-0.57-0.1-1.03-0.21-1.39-0.33
				s-0.66-0.35-0.92-0.67S-21,90.03-21,89.43v-0.01c0-0.53,0.12-0.98,0.35-1.35s0.58-0.66,1.03-0.85s1-0.29,1.63-0.29
				c0.3,0,0.6,0.03,0.9,0.1s0.59,0.17,0.87,0.3s0.57,0.3,0.85,0.5l-0.68,0.95c-0.32-0.24-0.65-0.42-0.97-0.54s-0.65-0.18-0.97-0.18
				c-0.58,0-1.03,0.12-1.36,0.35s-0.48,0.56-0.48,0.99v0.01c0,0.29,0.08,0.52,0.25,0.69s0.37,0.29,0.62,0.37s0.59,0.16,1.03,0.25
				c0.02,0,0.03,0.01,0.04,0.01s0.03,0,0.04,0.01c0.02,0,0.04,0.01,0.06,0.01s0.04,0.01,0.06,0.01c0.52,0.11,0.95,0.23,1.29,0.38
				s0.63,0.38,0.87,0.7s0.35,0.76,0.35,1.32v0.01c0,0.52-0.12,0.96-0.37,1.33s-0.6,0.65-1.07,0.84s-1.03,0.29-1.69,0.29
				C-18.72,95.62-19.11,95.58-19.48,95.5z"/>
			<path d="M-12.23,95.25c-0.45-0.25-0.79-0.61-1.02-1.08s-0.35-1.05-0.35-1.71v-5.44h1.2v5.48c0,0.62,0.16,1.1,0.47,1.44
				s0.75,0.51,1.32,0.51c0.57,0,1.02-0.17,1.33-0.51s0.47-0.82,0.47-1.44v-5.48h1.2v5.44c0,0.67-0.12,1.24-0.35,1.71
				S-8.54,95-8.99,95.25s-0.99,0.37-1.62,0.37C-11.24,95.62-11.78,95.5-12.23,95.25z"/>
			<path d="M-5.62,87.01h1.2v8.53h-1.2V87.01z M-5.1,90.79h2.91c0.23,0,0.43-0.05,0.6-0.16s0.31-0.26,0.41-0.47s0.14-0.43,0.14-0.69
				s-0.05-0.49-0.14-0.69s-0.23-0.36-0.4-0.47s-0.38-0.16-0.61-0.16H-5.1v-1.14h2.86c0.49,0,0.92,0.1,1.3,0.3s0.66,0.49,0.87,0.86
				s0.31,0.8,0.31,1.29s-0.1,0.92-0.31,1.29s-0.5,0.66-0.87,0.86s-0.8,0.3-1.29,0.3H-5.1V90.79z M-2.78,91.67l1.19-0.27l2.18,4.14
				h-1.42L-2.78,91.67z"/>
			<path d="M2.2,87.01h1.2v8.52H2.2V87.01z M2.78,87.01h4.89v1.14H2.78V87.01z M2.78,90.74h4.25v1.14H2.78V90.74z M2.78,94.4h4.89
				v1.14H2.78V94.4z"/>
			<path d="M11.42,87.01h6.01v1.14h-6.01V87.01z M13.83,87.71h1.2v7.82h-1.2V87.71z"/>
			<path d="M19.62,95.23c-0.45-0.26-0.8-0.63-1.05-1.1s-0.37-1.02-0.37-1.65v-2.41c0-0.62,0.12-1.17,0.37-1.65s0.6-0.84,1.05-1.1
				s0.98-0.39,1.57-0.39s1.12,0.13,1.57,0.39s0.8,0.63,1.05,1.1s0.37,1.02,0.37,1.65v2.41c0,0.62-0.12,1.17-0.37,1.65
				s-0.6,0.84-1.05,1.1s-0.98,0.39-1.57,0.39S20.07,95.49,19.62,95.23z M22.12,94.21c0.27-0.16,0.47-0.38,0.62-0.67
				s0.22-0.63,0.22-1.01v-2.5c0-0.38-0.07-0.72-0.22-1.01s-0.35-0.52-0.62-0.67s-0.58-0.24-0.93-0.24s-0.66,0.08-0.93,0.24
				s-0.47,0.38-0.62,0.67s-0.22,0.63-0.22,1.01v2.5c0,0.38,0.07,0.72,0.22,1.01s0.35,0.52,0.62,0.67s0.58,0.24,0.93,0.24
				S21.85,94.37,22.12,94.21z"/>
			<path d="M29.34,87.01h1.2v8.52h-1.2V87.01z M29.92,87.01h4.89v1.14h-4.89V87.01z M29.92,90.74h4.25v1.14h-4.25V90.74z
				 M29.92,94.4h4.89v1.14h-4.89V94.4z"/>
			<path d="M38.54,90.66l2.14-3.65h1.34l-2.82,4.61l-2.29,3.91h-1.34L38.54,90.66z M38.59,91.79l-0.18-0.29l-2.77-4.48h1.34
				l2.06,3.47l0.19,0.32l2.91,4.73h-1.34L38.59,91.79z"/>
			<path d="M43.32,87.01h1.2v8.52h-1.2V87.01z M43.94,91.09h2.72c0.26,0,0.48-0.06,0.68-0.18s0.35-0.29,0.45-0.52
				s0.16-0.48,0.16-0.77c0-0.29-0.05-0.55-0.16-0.77s-0.26-0.4-0.45-0.52s-0.42-0.18-0.68-0.18h-2.72v-1.14h2.68
				c0.51,0,0.96,0.11,1.34,0.33s0.69,0.52,0.9,0.92s0.32,0.85,0.32,1.37S49.07,90.6,48.86,91s-0.51,0.7-0.9,0.91
				s-0.83,0.32-1.34,0.32h-2.68V91.09z"/>
			<path d="M52.04,95.23c-0.45-0.26-0.8-0.63-1.05-1.1s-0.37-1.02-0.37-1.65v-2.41c0-0.62,0.12-1.17,0.37-1.65s0.6-0.84,1.05-1.1
				s0.98-0.39,1.57-0.39s1.12,0.13,1.57,0.39s0.8,0.63,1.05,1.1s0.37,1.02,0.37,1.65v2.41c0,0.62-0.12,1.17-0.37,1.65
				s-0.6,0.84-1.05,1.1s-0.98,0.39-1.57,0.39S52.49,95.49,52.04,95.23z M54.54,94.21c0.27-0.16,0.47-0.38,0.62-0.67
				s0.22-0.63,0.22-1.01v-2.5c0-0.38-0.07-0.72-0.22-1.01s-0.35-0.52-0.62-0.67s-0.58-0.24-0.93-0.24s-0.66,0.08-0.93,0.24
				s-0.47,0.38-0.62,0.67s-0.22,0.63-0.22,1.01v2.5c0,0.38,0.07,0.72,0.22,1.01s0.35,0.52,0.62,0.67s0.58,0.24,0.93,0.24
				S54.27,94.37,54.54,94.21z"/>
			<path d="M58.54,87.01h1.2v8.53h-1.2V87.01z M59.06,90.79h2.91c0.23,0,0.43-0.05,0.6-0.16s0.31-0.26,0.41-0.47
				s0.14-0.43,0.14-0.69s-0.05-0.49-0.14-0.69s-0.23-0.36-0.4-0.47s-0.38-0.16-0.61-0.16h-2.91v-1.14h2.86c0.49,0,0.92,0.1,1.3,0.3
				s0.66,0.49,0.87,0.86c0.21,0.37,0.31,0.8,0.31,1.29s-0.1,0.92-0.31,1.29c-0.21,0.37-0.5,0.66-0.87,0.86s-0.8,0.3-1.29,0.3h-2.86
				V90.79z M61.38,91.67l1.19-0.27l2.18,4.14h-1.42L61.38,91.67z"/>
			<path d="M65.19,87.01h6.01v1.14h-6.01V87.01z M67.6,87.71h1.2v7.82h-1.2V87.71z"/>
			<path d="M75.04,94.28h1.25v1.25h-1.25V94.28z"/>
			<path d="M77.96,89.45h1.2v8.55h-1.2V89.45z M79.7,95.35c-0.28-0.18-0.49-0.44-0.62-0.77l0.08-1.27c0,0.26,0.05,0.48,0.14,0.67
				s0.23,0.32,0.41,0.42s0.39,0.15,0.65,0.15c0.39,0,0.7-0.12,0.92-0.36s0.33-0.58,0.33-1.02v-1.32c0-0.45-0.11-0.79-0.33-1.04
				s-0.52-0.37-0.92-0.37c-0.25,0-0.47,0.05-0.65,0.14S79.39,90.81,79.3,91s-0.14,0.4-0.14,0.65l-0.12-1.17
				c0.18-0.36,0.42-0.63,0.72-0.82s0.63-0.29,0.99-0.29c0.43,0,0.8,0.1,1.1,0.29s0.54,0.48,0.7,0.85s0.24,0.82,0.24,1.34v1.32
				c0,0.52-0.08,0.96-0.25,1.32s-0.4,0.65-0.72,0.84s-0.7,0.29-1.14,0.29C80.31,95.62,79.98,95.53,79.7,95.35z"/>
			<path d="M84.49,89.45h1.2v6.08h-1.2V89.45z M88.18,91.85c0-0.43-0.11-0.76-0.33-1s-0.54-0.35-0.94-0.35
				c-0.39,0-0.69,0.1-0.91,0.31s-0.32,0.5-0.32,0.87l-0.12-1.17c0.19-0.37,0.43-0.65,0.74-0.85s0.64-0.3,1-0.3
				c0.66,0,1.17,0.22,1.53,0.65s0.54,1.04,0.54,1.83v3.69h-1.2V91.85z"/>
			<path d="M91.98,95.35c-0.31-0.19-0.55-0.48-0.72-0.85s-0.25-0.82-0.25-1.34v-1.34c0-0.52,0.08-0.97,0.24-1.34s0.39-0.65,0.7-0.85
				s0.67-0.29,1.1-0.29c0.36,0,0.69,0.09,0.99,0.28s0.54,0.45,0.72,0.79l-0.12,1.24c0-0.26-0.05-0.48-0.14-0.66
				s-0.23-0.32-0.41-0.42s-0.39-0.14-0.65-0.14c-0.39,0-0.7,0.12-0.92,0.37s-0.33,0.59-0.33,1.04v1.32c0,0.44,0.11,0.78,0.33,1.02
				s0.52,0.36,0.92,0.36c0.25,0,0.47-0.05,0.65-0.15s0.31-0.24,0.41-0.43s0.14-0.41,0.14-0.67l0.08,1.28
				c-0.12,0.3-0.32,0.55-0.59,0.76s-0.61,0.3-1.02,0.3C92.67,95.64,92.29,95.54,91.98,95.35z M92,97.75
				c-0.36-0.17-0.64-0.41-0.84-0.72l0.81-0.73c0.16,0.21,0.34,0.38,0.56,0.5s0.44,0.18,0.68,0.18c0.46,0,0.81-0.13,1.06-0.38
				s0.38-0.61,0.38-1.07v-6.08h1.2v5.9c0,0.56-0.1,1.04-0.31,1.44s-0.5,0.7-0.89,0.91s-0.86,0.31-1.41,0.31
				C92.77,98.01,92.36,97.92,92,97.75z"/>
			<path d="M103.32,87.01h1.02l3.14,8.52h-1.29l-2.36-6.87l-2.36,6.87h-1.29L103.32,87.01z M101.63,92.53h4.48v1.14h-4.48V92.53z"/>
			<path d="M107.6,87.01h6.01v1.14h-6.01V87.01z M110.01,87.71h1.2v7.82h-1.2V87.71z"/>
			<path d="M120.61,91.3l-0.01,0.21c-0.1,0.18-0.25,0.31-0.44,0.4s-0.43,0.13-0.7,0.13c-0.41,0-0.76-0.1-1.07-0.31
				s-0.55-0.5-0.72-0.88s-0.25-0.81-0.25-1.31v-0.01c0-0.55,0.09-1.02,0.28-1.41s0.46-0.69,0.81-0.89s0.79-0.3,1.29-0.3
				s0.93,0.1,1.28,0.31s0.63,0.51,0.81,0.9s0.28,0.87,0.28,1.42v0.01c0,0.3-0.04,0.63-0.12,0.98s-0.19,0.69-0.33,1.03
				c-0.02,0.05-0.05,0.1-0.07,0.16s-0.05,0.1-0.08,0.16l-1.82,3.65h-1.29L120.61,91.3z M120.67,90.57c0.21-0.25,0.31-0.61,0.31-1.07
				v-0.01c0-0.45-0.1-0.8-0.31-1.04s-0.5-0.37-0.87-0.37c-0.38,0-0.67,0.12-0.88,0.37s-0.31,0.6-0.31,1.05v0.01
				c0,0.46,0.1,0.82,0.31,1.07s0.5,0.38,0.88,0.38C120.17,90.95,120.46,90.82,120.67,90.57z"/>
			<path d="M124.67,95.32c-0.36-0.2-0.63-0.49-0.81-0.88s-0.28-0.85-0.28-1.39v-0.01c0-0.32,0.04-0.65,0.11-1s0.18-0.69,0.32-1.03
				c0.02-0.06,0.05-0.12,0.08-0.17s0.05-0.11,0.08-0.17l1.85-3.67h1.29l-2.17,4.25l0.01-0.21c0.1-0.18,0.24-0.33,0.43-0.43
				s0.41-0.15,0.66-0.15c0.44,0,0.82,0.1,1.14,0.3s0.56,0.49,0.72,0.87s0.25,0.84,0.25,1.37v0.01c0,0.55-0.09,1.02-0.28,1.41
				s-0.46,0.69-0.81,0.89s-0.79,0.3-1.29,0.3S125.02,95.52,124.67,95.32z M126.82,94.12c0.21-0.23,0.31-0.57,0.31-1v-0.01
				c0-0.48-0.11-0.84-0.32-1.1s-0.52-0.39-0.92-0.39c-0.36,0-0.63,0.13-0.83,0.39s-0.29,0.63-0.29,1.11v0.01c0,0.43,0.1,0.77,0.31,1
				s0.5,0.35,0.87,0.35C126.33,94.47,126.62,94.36,126.82,94.12z"/>
			<path d="M133.31,87.01h1.2v8.52h-1.2V87.01z M134.12,94.4h1.93c0.63,0,1.12-0.16,1.46-0.49s0.52-0.79,0.52-1.38v-2.51
				c0-0.59-0.17-1.05-0.52-1.38s-0.83-0.49-1.46-0.49h-1.93v-1.14h1.89c0.68,0,1.27,0.12,1.75,0.36s0.85,0.59,1.11,1.04
				s0.38,1.01,0.38,1.65v2.41c0,0.64-0.13,1.2-0.38,1.65s-0.62,0.8-1.11,1.04s-1.07,0.36-1.75,0.36h-1.89V94.4z"/>
			<path d="M141.18,87.01h1.2v8.52h-1.2V87.01z M141.8,91.09h2.72c0.26,0,0.48-0.06,0.68-0.18s0.35-0.29,0.45-0.52
				s0.16-0.48,0.16-0.77c0-0.29-0.05-0.55-0.16-0.77s-0.26-0.4-0.45-0.52s-0.42-0.18-0.68-0.18h-2.72v-1.14h2.68
				c0.51,0,0.96,0.11,1.34,0.33s0.69,0.52,0.9,0.92s0.32,0.85,0.32,1.37s-0.11,0.98-0.32,1.37s-0.51,0.7-0.9,0.91
				s-0.83,0.32-1.34,0.32h-2.68V91.09z"/>
			<path d="M149.85,95.53h-1.2v-8.52h1.2V95.53z"/>
		</g>
	</g>
	<g class="st1">
		<g>
			<line class="st15" x1="73" y1="-3.79" x2="73" y2="-3.29"/>
			<line class="st16" x1="73" y1="-2.28" x2="73" y2="77.93"/>
			<line class="st15" x1="73" y1="78.43" x2="73" y2="78.93"/>
		</g>
	</g>
	<g class="st1">
		<g>
			<line class="st15" x1="2" y1="-3.79" x2="2" y2="-3.29"/>
			<line class="st16" x1="2" y1="-2.28" x2="2" y2="77.93"/>
			<line class="st15" x1="2" y1="78.43" x2="2" y2="78.93"/>
		</g>
	</g>
	<g class="st1">
		<g>
			<line class="st15" x1="-3.77" y1="2" x2="-3.27" y2="2"/>
			<line class="st17" x1="-2.28" y1="2" x2="78.4" y2="2"/>
			<line class="st15" x1="78.89" y1="2" x2="79.39" y2="2"/>
		</g>
	</g>
	<g class="st1">
		<g>
			<line class="st15" x1="-4.58" y1="73" x2="-4.08" y2="73"/>
			<line class="st17" x1="-3.09" y1="73" x2="77.59" y2="73"/>
			<line class="st15" x1="78.08" y1="73" x2="78.58" y2="73"/>
		</g>
	</g>
</g>
<g id="KEEP_ON_FOR_EXPORT">
	<line class="st18" x1="-0.35" y1="0.35" x2="0.35" y2="-0.35"/>
	<line class="st18" x1="74.65" y1="75.35" x2="75.35" y2="74.65"/>
</g>
<g id="WIP" class="st0">
	
		<radialGradient id="SVGID_00000045614287719942245470000009267852913503400618_" cx="99.5941" cy="47.2432" r="19.7874" gradientUnits="userSpaceOnUse">
		<stop  offset="0" style="stop-color:#FDE596"/>
		<stop  offset="0.39" style="stop-color:#FDB814"/>
		<stop  offset="0.77" style="stop-color:#F26322"/>
		<stop  offset="1" style="stop-color:#F3BA19"/>
	</radialGradient>
	
		<path style="display:inline;fill-rule:evenodd;clip-rule:evenodd;fill:url(#SVGID_00000045614287719942245470000009267852913503400618_);stroke:#400000;stroke-width:2;stroke-linecap:round;stroke-linejoin:round;stroke-miterlimit:10;" d="
		M91.01,51.81c0.05-7.3,6.02-13.2,13.33-13.15c7.3,0.05,13.2,6.01,13.16,13.32c-0.05,7.31-6.02,13.2-13.33,13.16
		C96.86,65.09,90.97,59.12,91.01,51.81z"/>
	<path class="st20" d="M117.49,51.95c-0.05,3.41-6.01,6.15-13.32,6.13c-7.31-0.02-13.2-2.8-13.16-6.21"/>
	<path class="st20" d="M104.18,65.14c-3.39-0.05-6.12-6.02-6.1-13.32c0.02-7.31,2.79-13.2,6.18-13.16"/>
	
		<radialGradient id="SVGID_00000137815155412805813060000012816593523857853335_" cx="127.1018" cy="9.9352" r="28.6624" gradientUnits="userSpaceOnUse">
		<stop  offset="0" style="stop-color:#FDE596"/>
		<stop  offset="0.39" style="stop-color:#FDB814"/>
		<stop  offset="0.77" style="stop-color:#F26322"/>
		<stop  offset="1" style="stop-color:#F3BA19"/>
	</radialGradient>
	
		<path style="display:inline;fill-rule:evenodd;clip-rule:evenodd;fill:url(#SVGID_00000137815155412805813060000012816593523857853335_);stroke:#400000;stroke-width:2;stroke-linecap:round;stroke-linejoin:round;stroke-miterlimit:10;" d="
		M114.67,16.56c0.07-10.58,8.71-19.12,19.3-19.05c10.58,0.07,19.12,8.71,19.06,19.3c-0.07,10.59-8.71,19.12-19.3,19.06
		C123.14,35.79,114.61,27.14,114.67,16.56z"/>
	<path class="st20" d="M153.02,16.75c-0.07,4.93-8.71,8.91-19.3,8.88c-10.59-0.03-19.12-4.06-19.06-8.99"/>
	<path class="st20" d="M133.74,35.86c-4.91-0.07-8.87-8.71-8.84-19.3c0.03-10.59,4.04-19.12,8.95-19.06"/>
	<path class="st22" d="M144.43-68.9c3.66-3.66,9.6-3.65,13.26,0.01c3.66,3.65,3.66,9.6,0,13.26c-3.66,3.66-9.6,3.65-13.26-0.01
		C140.77-59.29,140.77-65.24,144.43-68.9z"/>
	<rect x="166.69" y="-65.39" class="st22" width="18.75" height="18.75"/>
	<polygon class="st23" points="167.54,-27.89 157.74,-44.87 147.94,-27.89 	"/>
	<polyline class="st24" points="194.81,-73.2 194.81,-84.14 183.87,-84.14 	"/>
	<polyline class="st24" points="129.19,-29.45 129.19,-18.51 140.12,-18.51 	"/>
	<path class="st25" d="M248.43-68.9c3.66-3.66,9.6-3.65,13.26,0.01c3.66,3.65,3.66,9.6,0,13.26s-9.6,3.65-13.26-0.01
		C244.77-59.29,244.77-65.24,248.43-68.9z"/>
	<path class="st25" d="M274.28-58.53c3.66-3.66,9.6-3.65,13.26,0.01c3.66,3.65,3.66,9.6,0,13.26s-9.6,3.65-13.26-0.01
		C270.62-48.92,270.62-54.87,274.28-58.53z"/>
	<polygon class="st23" points="271.54,-27.89 261.74,-44.87 251.94,-27.89 	"/>
	<polyline class="st24" points="298.81,-73.2 298.81,-84.14 287.87,-84.14 	"/>
	<polyline class="st24" points="233.19,-29.45 233.19,-18.51 244.12,-18.51 	"/>
</g>
<g id="ICON">
	<g>
		
			<radialGradient id="SVGID_00000001638208424203490000000013728883180655144110_" cx="27.0427" cy="19.287" r="17.8893" gradientUnits="userSpaceOnUse">
			<stop  offset="0" style="stop-color:#B7D98D"/>
			<stop  offset="0.39" style="stop-color:#B7D98D"/>
			<stop  offset="0.7756" style="stop-color:#75C043"/>
			<stop  offset="1" style="stop-color:#65BC46"/>
		</radialGradient>
		
			<path style="fill-rule:evenodd;clip-rule:evenodd;fill:url(#SVGID_00000001638208424203490000000013728883180655144110_);stroke:#400000;stroke-width:2;stroke-linecap:round;stroke-linejoin:round;stroke-miterlimit:10;" d="
			M19.28,23.42c0.04-6.6,5.44-11.94,12.05-11.89c6.6,0.04,11.94,5.43,11.89,12.04c-0.05,6.61-5.44,11.94-12.05,11.89
			C24.57,35.43,19.24,30.03,19.28,23.42z"/>
		<path class="st27" d="M43.22,23.54c-0.04,3.08-5.43,5.56-12.04,5.54c-6.61-0.02-11.94-2.53-11.89-5.61"/>
		<path class="st27" d="M31.18,35.47c-3.06-0.04-5.54-5.44-5.52-12.04c0.02-6.61,2.52-11.94,5.59-11.89"/>
	</g>
	<g>
		
			<radialGradient id="SVGID_00000176740091556935266320000006421695329618533298_" cx="49.4733" cy="34.7913" r="17.8893" gradientUnits="userSpaceOnUse">
			<stop  offset="0" style="stop-color:#B7D98D"/>
			<stop  offset="0.39" style="stop-color:#B7D98D"/>
			<stop  offset="0.7756" style="stop-color:#75C043"/>
			<stop  offset="1" style="stop-color:#65BC46"/>
		</radialGradient>
		
			<path style="fill-rule:evenodd;clip-rule:evenodd;fill:url(#SVGID_00000176740091556935266320000006421695329618533298_);stroke:#400000;stroke-width:2;stroke-linecap:round;stroke-linejoin:round;stroke-miterlimit:10;" d="
			M41.72,38.92c0.04-6.6,5.44-11.94,12.05-11.89c6.6,0.04,11.94,5.43,11.89,12.04c-0.05,6.61-5.44,11.94-12.05,11.89
			S41.67,45.53,41.72,38.92z"/>
		<path class="st27" d="M65.65,39.05c-0.04,3.08-5.43,5.56-12.04,5.54c-6.61-0.02-11.94-2.53-11.89-5.61"/>
		<path class="st27" d="M53.62,50.97c-3.06-0.04-5.54-5.44-5.52-12.04c0.02-6.61,2.52-11.94,5.59-11.89"/>
	</g>
	<g>
		
			<radialGradient id="SVGID_00000178894577366643410110000009686022004669407930_" cx="9.8145" cy="60.7587" r="11.4018" gradientUnits="userSpaceOnUse">
			<stop  offset="0" style="stop-color:#F59496"/>
			<stop  offset="0.39" style="stop-color:#C73837"/>
			<stop  offset="0.77" style="stop-color:#EC4644"/>
			<stop  offset="1" style="stop-color:#EE8C8E"/>
		</radialGradient>
		
			<path style="fill-rule:evenodd;clip-rule:evenodd;fill:url(#SVGID_00000178894577366643410110000009686022004669407930_);stroke:#400000;stroke-width:2;stroke-linecap:round;stroke-linejoin:round;stroke-miterlimit:10;" d="
			M4.87,63.39c0.03-4.21,3.47-7.61,7.68-7.58c4.21,0.03,7.61,3.46,7.58,7.68c-0.03,4.21-3.47,7.61-7.68,7.58S4.84,67.6,4.87,63.39z"
			/>
		<path class="st27" d="M20.13,63.47c-0.03,1.96-3.46,3.54-7.68,3.53s-7.61-1.61-7.58-3.58"/>
		<path class="st27" d="M12.45,71.07c-1.95-0.03-3.53-3.47-3.52-7.68c0.01-4.21,1.61-7.61,3.56-7.58"/>
	</g>
	<polyline class="st30" points="66.41,16.25 66.41,5.31 55.47,5.31 	"/>
	<polyline class="st30" points="19.53,42.95 19.53,53.89 30.47,53.89 	"/>
</g>
</svg>
