<?xml version="1.0" encoding="UTF-8"?>
<svg width="17px" height="16px" viewBox="0 0 17 16" version="1.1" xmlns="http://www.w3.org/2000/svg" xmlns:xlink="http://www.w3.org/1999/xlink">
    <title>float_32</title>
    <g id="Page-1" stroke="none" stroke-width="1" fill="none" fill-rule="evenodd">
        <g id="float_32" fill-rule="nonzero">
            <path d="M2.6264939,1.0633353 C6.3030159,-0.23016476 9.8990639,-0.27633076 13.405706,1.0633353 C14.240978,1.3824392 14.703135,1.8410872 15.019697,2.6773262 C16.389821,6.2966872 16.367814,9.8725449 15.019697,13.406959 C14.701038,14.242401 14.241016,14.701945 13.405706,15.02095 C9.9448059,16.342668 6.3421559,16.246873 2.6264939,15.02095 C1.7773649,14.740794 1.3187549,14.247028 1.0125018,13.406959 C-0.25937476,9.9181309 -0.17851266,6.3360102 1.0125018,2.6773262 C1.2892799,1.8270902 1.7830229,1.3600902 2.6264939,1.0633353 Z" id="rect11049" fill="#2E3436"></path>
            <path d="M2.068,11.908 C2.68,11.908 3.136,11.428 3.136,10.804 C3.136,10.168 2.68,9.688 2.068,9.688 C1.456,9.688 1,10.168 1,10.804 C1,11.428 1.456,11.908 2.068,11.908 Z M6.052,11.908 C7.588,11.908 8.884,11.104 8.884,9.688 C8.884,8.704 8.248,8.08 7.372,7.828 L7.372,7.78 C8.188,7.432 8.644,6.88 8.644,6.088 C8.644,4.756 7.588,4 6.016,4 C5.08,4 4.312,4.372 3.616,4.972 L4.504,6.052 C4.984,5.632 5.392,5.38 5.932,5.38 C6.532,5.38 6.868,5.692 6.868,6.22 C6.868,6.832 6.436,7.24 5.068,7.24 L5.068,8.488 C6.724,8.488 7.12,8.908 7.12,9.58 C7.12,10.156 6.628,10.48 5.884,10.48 C5.236,10.48 4.672,10.156 4.216,9.712 L3.4,10.828 C3.952,11.476 4.816,11.908 6.052,11.908 Z M14.748,11.764 L14.748,10.276 L13.212,10.276 C12.852,10.276 12.324,10.324 11.94,10.372 C13.176,9.076 14.376,7.708 14.376,6.424 C14.376,4.96 13.356,4 11.856,4 C10.764,4 10.056,4.408 9.3,5.212 L10.26,6.16 C10.644,5.752 11.064,5.38 11.616,5.38 C12.276,5.38 12.696,5.788 12.696,6.532 C12.696,7.612 11.328,8.92 9.384,10.756 L9.384,11.764 L14.748,11.764 Z" id=".32" fill="#C3DFFF"></path>
        </g>
    </g>
</svg>