<?xml version="1.0" encoding="UTF-8"?>
<svg width="17px" height="16px" viewBox="0 0 17 16" version="1.1" xmlns="http://www.w3.org/2000/svg" xmlns:xlink="http://www.w3.org/1999/xlink">
    <title>int_64</title>
    <g id="Page-1" stroke="none" stroke-width="1" fill="none" fill-rule="evenodd">
        <g id="int_64" fill-rule="nonzero">
            <path d="M2.6264939,1.0633353 C6.3030159,-0.23016476 9.8990639,-0.27633076 13.405706,1.0633353 C14.240978,1.3824392 14.703135,1.8410872 15.019697,2.6773262 C16.389821,6.2966872 16.367814,9.8725449 15.019697,13.406959 C14.701038,14.242401 14.241016,14.701945 13.405706,15.02095 C9.9448059,16.342668 6.3421559,16.246873 2.6264939,15.02095 C1.7773649,14.740794 1.3187549,14.247028 1.0125018,13.406959 C-0.25937476,9.9181309 -0.17851266,6.3360102 1.0125018,2.6773262 C1.2892799,1.8270902 1.7830229,1.3600902 2.6264939,1.0633353 Z" id="rect11049" fill="#2E3436"></path>
            <path d="M5.24,11.908 C6.62,11.908 7.772,10.936 7.772,9.352 C7.772,7.744 6.812,7 5.504,7 C5.036,7 4.376,7.3 3.98,7.804 C4.04,6.028 4.712,5.428 5.552,5.428 C5.996,5.428 6.476,5.68 6.74,5.968 L7.664,4.912 C7.184,4.42 6.452,4 5.444,4 C3.836,4 2.36,5.284 2.36,8.128 C2.36,10.804 3.764,11.908 5.24,11.908 Z M5.204,10.588 C4.676,10.588 4.172,10.204 4.016,9.004 C4.328,8.464 4.772,8.248 5.168,8.248 C5.744,8.248 6.164,8.548 6.164,9.352 C6.164,10.216 5.732,10.588 5.204,10.588 Z M13.376,11.764 L13.376,9.94 L14.252,9.94 L14.252,8.596 L13.376,8.596 L13.376,4.144 L11.216,4.144 L8.432,8.728 L8.432,9.94 L11.732,9.94 L11.732,11.764 L13.376,11.764 Z M11.732,8.596 L10.124,8.596 L11.132,6.94 C11.348,6.508 11.564,6.076 11.756,5.656 L11.804,5.656 C11.78,6.136 11.732,6.868 11.732,7.36 L11.732,8.596 Z" id=".64" fill="#B2EC7A"></path>
        </g>
    </g>
</svg>