<?xml version="1.0" encoding="UTF-8"?>
<svg width="16px" height="16px" viewBox="0 0 16 16" version="1.1" xmlns="http://www.w3.org/2000/svg" xmlns:xlink="http://www.w3.org/1999/xlink">
    <title>int_vector2_32</title>
    <g id="Page-1" stroke="none" stroke-width="1" fill="none" fill-rule="evenodd">
        <g id="int_vector2_32" fill-rule="nonzero">
            <path d="M2.5814444,1.0182858 C6.2579664,-0.27521427 9.8540146,-0.32138027 13.360657,1.0182858 C14.195929,1.3373897 14.658086,1.7960377 14.974648,2.6322767 C16.344772,6.2516377 16.322765,9.8274954 14.974648,13.36191 C14.655989,14.197352 14.195967,14.656896 13.360657,14.975901 C9.8997566,16.297619 6.2971064,16.201824 2.5814444,14.975901 C1.7323154,14.695745 1.2737054,14.201979 0.96745234,13.36191 C-0.30442426,9.8730814 -0.22356216,6.2909607 0.96745234,2.6322767 C1.2442304,1.7820407 1.7379734,1.3150407 2.5814444,1.0182858 Z" id="rect11049" fill="#2E3436"></path>
            <rect id="rect16325" fill="#B2EC7A" x="1.9952971" y="4" width="5.0497527" height="3"></rect>
            <rect id="rect16327" fill="#B2EC7A" x="8.9910889" y="4" width="5.0497527" height="3"></rect>
            <path d="M6.016,6.5 C6.94839097,6.5 7.71657805,6.74441965 8.25258505,7.17028822 C8.8140761,7.61640439 9.144,8.26161295 9.144,9.088 C9.144,9.59513743 8.99651427,10.0248856 8.72511077,10.3859035 C8.57937791,10.8794623 8.74682903,11.037158 8.88745669,11.2146167 C9.19760145,11.6059899 9.384,12.0943772 9.384,12.688 C9.384,13.5349889 9.01253115,14.2066862 8.41383021,14.6760068 C7.81517402,15.1452924 6.97401164,15.408 6.052,15.408 C4.43437869,15.408 3.38786834,14.7410005 2.77726435,13.8325612 L2.77726435,13.8325612 L4.1776935,11.9172684 C4.59098566,12.4466691 5.16355286,12.98 5.884,12.98 C6.13465334,12.98 6.35036364,12.9411602 6.49653707,12.8347232 C5.96059127,11.960233 5.47996397,11.976003 4.568,11.9957298 L4.568,11.9957298 L4.568,9.72663462 C5.2607746,9.76006477 5.74212312,9.73351099 6.05228874,9.61593021 C6.21112546,9.29264942 6.37747543,9.05167717 6.2887003,8.97200719 C5.37176591,8.88 5.01554841,9.27524967 4.44711952,9.77009194 L4.44711952,9.77009194 L2.93082722,7.92595266 C3.81573934,7.04784759 4.79250229,6.5 6.016,6.5 Z M11.855,6.499 L12.0776363,6.50620807 C12.878439,6.55153328 13.547114,6.84283598 14.0299431,7.3072715 C14.5596515,7.81680053 14.876,8.54157787 14.876,9.424 C14.876,10.5018828 14.1272945,11.6531273 13.1601574,12.7762946 L13.1601574,12.7762946 L15.248,12.776 L15.248,15.264 L8.884,15.264 L8.884,13.5408295 C10.7356775,11.7833692 12.196,10.5674276 12.196,9.532 C12.196,9.31952504 12.1553508,9.14326109 12.0464491,9.0270992 C11.0138696,8.88 10.670446,9.55353056 10.2498108,9.85263938 L10.2498108,9.85263938 L8.61040756,8.23372873 C9.60388234,7.06996841 10.4584745,6.5 11.856,6.5 L11.855,6.499 Z" id=".32-copy-2" stroke="#000000" fill="#B2EC7A"></path>
        </g>
    </g>
</svg>