<?xml version="1.0" encoding="UTF-8"?>
<svg width="17px" height="16px" viewBox="0 0 17 16" version="1.1" xmlns="http://www.w3.org/2000/svg" xmlns:xlink="http://www.w3.org/1999/xlink">
    <title>int_32</title>
    <g id="Page-1" stroke="none" stroke-width="1" fill="none" fill-rule="evenodd">
        <g id="int_32" fill-rule="nonzero">
            <path d="M2.6264939,1.0633353 C6.3030159,-0.23016476 9.8990639,-0.27633076 13.405706,1.0633353 C14.240978,1.3824392 14.703135,1.8410872 15.019697,2.6773262 C16.389821,6.2966872 16.367814,9.8725449 15.019697,13.406959 C14.701038,14.242401 14.241016,14.701945 13.405706,15.02095 C9.9448059,16.342668 6.3421559,16.246873 2.6264939,15.02095 C1.7773649,14.740794 1.3187549,14.247028 1.0125018,13.406959 C-0.25937476,9.9181309 -0.17851266,6.3360102 1.0125018,2.6773262 C1.2892799,1.8270902 1.7830229,1.3600902 2.6264939,1.0633353 Z" id="rect11049" fill="#2E3436"></path>
            <path d="M5.052,11.908 C6.588,11.908 7.884,11.104 7.884,9.688 C7.884,8.704 7.248,8.08 6.372,7.828 L6.372,7.78 C7.188,7.432 7.644,6.88 7.644,6.088 C7.644,4.756 6.588,4 5.016,4 C4.08,4 3.312,4.372 2.616,4.972 L3.504,6.052 C3.984,5.632 4.392,5.38 4.932,5.38 C5.532,5.38 5.868,5.692 5.868,6.22 C5.868,6.832 5.436,7.24 4.068,7.24 L4.068,8.488 C5.724,8.488 6.12,8.908 6.12,9.58 C6.12,10.156 5.628,10.48 4.884,10.48 C4.236,10.48 3.672,10.156 3.216,9.712 L2.4,10.828 C2.952,11.476 3.816,11.908 5.052,11.908 Z M13.748,11.764 L13.748,10.276 L12.212,10.276 C11.852,10.276 11.324,10.324 10.94,10.372 C12.176,9.076 13.376,7.708 13.376,6.424 C13.376,4.96 12.356,4 10.856,4 C9.764,4 9.056,4.408 8.3,5.212 L9.26,6.16 C9.644,5.752 10.064,5.38 10.616,5.38 C11.276,5.38 11.696,5.788 11.696,6.532 C11.696,7.612 10.328,8.92 8.384,10.756 L8.384,11.764 L13.748,11.764 Z" id=".32" fill="#B2EC7A"></path>
        </g>
    </g>
</svg>