<?xml version="1.0" encoding="UTF-8"?>
<svg width="17px" height="16px" viewBox="0 0 17 16" version="1.1" xmlns="http://www.w3.org/2000/svg" xmlns:xlink="http://www.w3.org/1999/xlink">
    <title>int_vector_16</title>
    <g id="Page-1" stroke="none" stroke-width="1" fill="none" fill-rule="evenodd">
        <g id="int_vector_16" fill-rule="nonzero">
            <path d="M2.5814444,1.0182858 C6.2579664,-0.27521427 9.8540146,-0.32138027 13.360657,1.0182858 C14.195929,1.3373897 14.658086,1.7960377 14.974648,2.6322767 C16.344772,6.2516377 16.322765,9.8274954 14.974648,13.36191 C14.655989,14.197352 14.195967,14.656896 13.360657,14.975901 C9.8997566,16.297619 6.2971064,16.201824 2.5814444,14.975901 C1.7323154,14.695745 1.2737054,14.201979 0.96745234,13.36191 C-0.30442426,9.8730814 -0.22356216,6.2909607 0.96745234,2.6322767 C1.2442304,1.7820407 1.7379734,1.3150407 2.5814444,1.0182858 Z" id="rect11049" fill="#2E3436"></path>
            <rect id="rect16304" fill="#B2EC7A" x="1" y="4" width="4" height="3"></rect>
            <rect id="rect16325" fill="#B2EC7A" x="6" y="4" width="4" height="3"></rect>
            <rect id="rect16327" fill="#B2EC7A" x="11" y="4" width="4" height="3"></rect>
            <path d="M12.78,6.5 C14.1060282,6.5 15.0184123,7.12947417 15.5629715,7.79171405 L15.6607771,7.91612232 L14.071,9.731 C14.3210511,9.83626358 14.54159,9.9730099 14.7348573,10.1426342 L14.8746284,10.2760039 C15.3226531,10.740622 15.608,11.4205753 15.608,12.352 C15.608,13.2689351 15.2770186,14.009396 14.7583464,14.5329845 C14.204476,15.0921049 13.4283985,15.408 12.576,15.408 C11.6297617,15.408 10.7096943,15.0244186 10.0620365,14.1743678 C9.54483972,13.495547 9.196,12.5020934 9.196,11.128 C9.196,9.66570237 9.56521865,8.58512305 10.1205978,7.84173611 C10.8019857,6.92968394 11.769306,6.5 12.78,6.5 Z M12.504,11.748 C12.2847755,11.748 12.0576176,11.8712933 11.8746668,12.1172017 C11.9341674,12.4603759 12.0269037,12.7110591 12.8532347,12.9505653 C12.9565525,12.8175436 13,12.6151037 13,12.352 C13,12.1356656 12.9705608,11.9688896 12.504,11.748 Z M12.888,8.928 C12.6047562,8.928 12.3500417,9.03372577 12.1695819,9.30648183 C12.2852467,9.56803505 12.5860983,9.5 12.84,9.5 C13.2190369,9.5 13.5719592,9.55464337 13.8905182,9.66229433 L13.932,9.678 L13.8987315,9.5969122 C13.8634615,9.52217542 13.8220565,9.45249327 13.7771291,9.39116853 L13.7074229,9.30586231 C13.5253289,9.10721433 13.1957201,8.928 12.888,8.928 Z M8.628,6.644 L8.628,12.836 L10.056,12.836 L10.056,15.264 L4.208,15.264 L4.208,12.836 L5.864,12.836 L5.864,9.432 L4.436,9.432 L4.436,7.41646071 C5.50326369,7.25949673 6.07178372,7.03283821 6.69071975,6.644 L6.69071975,6.644 L8.628,6.644 Z" id=".16-copy" stroke="#000000" fill="#B2EC7A"></path>
        </g>
    </g>
</svg>