<?xml version="1.0" encoding="UTF-8"?>
<svg width="17px" height="16px" viewBox="0 0 17 16" version="1.1" xmlns="http://www.w3.org/2000/svg" xmlns:xlink="http://www.w3.org/1999/xlink">
    <title>int_vector_64</title>
    <g id="Page-1" stroke="none" stroke-width="1" fill="none" fill-rule="evenodd">
        <g id="int_vector_64" fill-rule="nonzero">
            <path d="M2.5814444,1.0182858 C6.2579664,-0.27521427 9.8540146,-0.32138027 13.360657,1.0182858 C14.195929,1.3373897 14.658086,1.7960377 14.974648,2.6322767 C16.344772,6.2516377 16.322765,9.8274954 14.974648,13.36191 C14.655989,14.197352 14.195967,14.656896 13.360657,14.975901 C9.8997566,16.297619 6.2971064,16.201824 2.5814444,14.975901 C1.7323154,14.695745 1.2737054,14.201979 0.96745234,13.36191 C-0.30442426,9.8730814 -0.22356216,6.2909607 0.96745234,2.6322767 C1.2442304,1.7820407 1.7379734,1.3150407 2.5814444,1.0182858 Z" id="rect11049" fill="#2E3436"></path>
            <rect id="rect16304" fill="#B2EC7A" x="1" y="4" width="4" height="3"></rect>
            <rect id="rect16325" fill="#B2EC7A" x="6" y="4" width="4" height="3"></rect>
            <rect id="rect16327" fill="#B2EC7A" x="11" y="4" width="4" height="3"></rect>
            <path d="M6.444,6.5 C7.77002817,6.5 8.68241233,7.12947417 9.2269715,7.79171405 L9.32477708,7.91612232 L7.735,9.731 C7.98505114,9.83626358 8.20558996,9.9730099 8.39885731,10.1426342 L8.53862844,10.2760039 C8.98665306,10.740622 9.272,11.4205753 9.272,12.352 C9.272,13.2689351 8.94101858,14.009396 8.42234638,14.5329845 C7.86847595,15.0921049 7.09239855,15.408 6.24,15.408 C5.29376168,15.408 4.3736943,15.0244186 3.72603652,14.1743678 C3.20883972,13.495547 2.86,12.5020934 2.86,11.128 C2.86,9.66570237 3.22921865,8.58512305 3.78459784,7.84173611 C4.46598566,6.92968394 5.43330602,6.5 6.444,6.5 Z M6.168,11.748 C5.94877552,11.748 5.72161758,11.8712933 5.5386668,12.1172017 C5.5981674,12.4603759 5.69090366,12.7110591 6.51723475,12.9505653 C6.62055253,12.8175436 6.664,12.6151037 6.664,12.352 C6.664,12.1356656 6.63456082,11.9688896 6.168,11.748 Z M6.552,8.928 C6.26875618,8.928 6.01404167,9.03372577 5.83358185,9.30648183 C5.94924673,9.56803505 6.25009826,9.5 6.504,9.5 C6.88303694,9.5 7.23595917,9.55464337 7.55451822,9.66229433 L7.596,9.678 L7.56273146,9.5969122 C7.5274615,9.52217542 7.48605648,9.45249327 7.44112912,9.39116853 L7.37142293,9.30586231 C7.18932895,9.10721433 6.85972007,8.928 6.552,8.928 Z M14.876,6.644 L14.876,11.096 L15.752,11.096 L15.752,13.44 L14.876,13.44 L14.876,15.264 L12.232,15.264 L12.232,13.44 L8.932,13.44 L8.932,11.5880609 L11.9346757,6.644 L14.876,6.644 Z" id=".64-copy" stroke="#000000" fill="#B2EC7A"></path>
        </g>
    </g>
</svg>