<?xml version="1.0" encoding="UTF-8" standalone="no"?>
<!-- Created with Inkscape (http://www.inkscape.org/) -->

<svg
   width="16"
   height="16"
   viewBox="0 0 4.2333332 4.2333333"
   version="1.1"
   id="svg1"
   inkscape:version="1.3-dev (fdc7329b, 2022-05-31)"
   sodipodi:docname="lpe_tag_generated.svg"
   xml:space="preserve"
   xmlns:inkscape="http://www.inkscape.org/namespaces/inkscape"
   xmlns:sodipodi="http://sodipodi.sourceforge.net/DTD/sodipodi-0.dtd"
   xmlns:xlink="http://www.w3.org/1999/xlink"
   xmlns="http://www.w3.org/2000/svg"
   xmlns:svg="http://www.w3.org/2000/svg"><sodipodi:namedview
     id="namedview1"
     pagecolor="#ffffff"
     bordercolor="#666666"
     borderopacity="1.0"
     inkscape:showpageshadow="2"
     inkscape:pageopacity="0.0"
     inkscape:pagecheckerboard="0"
     inkscape:deskcolor="#d1d1d1"
     inkscape:document-units="mm"
     showgrid="true"
     inkscape:zoom="53.821773"
     inkscape:cx="5.8247802"
     inkscape:cy="8.6024665"
     inkscape:window-width="2880"
     inkscape:window-height="1557"
     inkscape:window-x="-8"
     inkscape:window-y="-8"
     inkscape:window-maximized="1"
     inkscape:current-layer="layer1"><inkscape:grid
       type="xygrid"
       id="grid1" /></sodipodi:namedview><defs
     id="defs1"><linearGradient
       inkscape:collect="always"
       id="linearGradient4"><stop
         style="stop-color:#a28600;stop-opacity:1;"
         offset="0"
         id="stop3" /><stop
         style="stop-color:#635200;stop-opacity:1;"
         offset="1"
         id="stop4" /></linearGradient><linearGradient
       inkscape:collect="always"
       id="linearGradient2"><stop
         style="stop-color:#fcfcfc;stop-opacity:1;"
         offset="0"
         id="stop1" /><stop
         style="stop-color:#fcf7d0;stop-opacity:1;"
         offset="1"
         id="stop2" /></linearGradient><linearGradient
       inkscape:collect="always"
       xlink:href="#linearGradient2"
       id="linearGradient3"
       x1="1.0819398"
       y1="1.0274955"
       x2="2.9306769"
       y2="3.7312496"
       gradientUnits="userSpaceOnUse"
       gradientTransform="translate(-0.26545948)" /><linearGradient
       inkscape:collect="always"
       xlink:href="#linearGradient4"
       id="linearGradient5"
       x1="1.1605945"
       y1="0.71287686"
       x2="3.1273136"
       y2="3.6722584"
       gradientUnits="userSpaceOnUse"
       gradientTransform="translate(-0.26545948)" /><linearGradient
       id="linearGradient31615"><stop
         style="stop-color:#eeeeec;stop-opacity:1;"
         offset="0"
         id="stop31617" /><stop
         style="stop-color:#d2d2cc;stop-opacity:1;"
         offset="1"
         id="stop31619" /></linearGradient><inkscape:perspective
       sodipodi:type="inkscape:persp3d"
       inkscape:vp_x="0 : 8 : 1"
       inkscape:vp_y="0 : 1000 : 0"
       inkscape:vp_z="16 : 8 : 1"
       inkscape:persp3d-origin="8 : 5.3333333 : 1"
       id="perspective2824" /><inkscape:perspective
       id="perspective2850"
       inkscape:persp3d-origin="0.5 : 0.33333333 : 1"
       inkscape:vp_z="1 : 0.5 : 1"
       inkscape:vp_y="0 : 1000 : 0"
       inkscape:vp_x="0 : 0.5 : 1"
       sodipodi:type="inkscape:persp3d" /></defs><g
     inkscape:label="Layer 1"
     inkscape:groupmode="layer"
     id="layer1"><path
       id="path1"
       style="fill:url(#linearGradient3);fill-opacity:1;fill-rule:evenodd;stroke:url(#linearGradient5);stroke-width:0.264583px;stroke-linecap:butt;stroke-linejoin:miter;stroke-opacity:1"
       d="m 1.5809395,0.37878825 c -0.1499464,0.001017 -0.29865,0.0436283 -0.3777547,0.12505696 L 0.39806591,1.3787272 V 3.8297404 H 2.7736316 V 1.3730428 L 1.9654122,0.50384521 C 1.8821989,0.41834786 1.730886,0.37777107 1.5809395,0.37878825 Z m 0.014469,0.54053548 A 0.3809835,0.3809835 0 0 1 1.9762642,1.300179 0.3809835,0.3809835 0 0 1 1.5954089,1.6810343 0.3809835,0.3809835 0 0 1 1.2140369,1.300179 0.3809835,0.3809835 0 0 1 1.5954085,0.91932373 Z" /><rect
       style="color:#000000;overflow:visible;fill:#729fcf;fill-opacity:1;stroke:none;stroke-width:0.79375;stroke-linecap:square;stroke-opacity:1;stop-color:#000000"
       id="rect1"
       width="1.5829251"
       height="0.526003"
       x="0.79637843"
       y="2.9053066" /><path
       id="path3643"
       style="color:#000000;display:inline;overflow:visible;visibility:visible;fill:#ffffff;fill-opacity:1;fill-rule:evenodd;stroke:#2e3436;stroke-width:0.132292;stroke-miterlimit:4;stroke-dasharray:none;marker:none;enable-background:accumulate"
       d="M 3.412337,3.0340895 C 3.4560993,3.2024028 3.3551309,3.3743242 3.1868174,3.4180866 3.018504,3.4618489 2.8465827,3.3608804 2.8028203,3.192567 2.759058,3.0242536 2.8600265,2.8523323 3.0283399,2.8085698 3.1966532,2.7648075 3.3685746,2.865776 3.412337,3.0340895 Z M 2.8327151,2.0561814 C 2.7351053,2.0815602 2.6769555,2.1805733 2.7023345,2.278183 l 0.074442,0.2863108 c -0.00644,0.033962 -0.010116,0.064749 -0.026869,0.077524 -0.013371,0.010196 -0.036748,0.010495 -0.061997,0.010241 L 2.4104087,2.4892838 c -0.087849,-0.051593 -0.2016813,-0.021997 -0.2532746,0.065853 -0.051593,0.087849 -0.021996,0.2016813 0.065853,0.2532747 l 0.2705648,0.1589013 c 0.015058,0.02423 0.025134,0.046442 0.022685,0.06464 -0.00246,0.01827 -0.017031,0.037468 -0.038102,0.056933 l -0.2973218,0.077305 c -0.09761,0.025379 -0.1557592,0.1243921 -0.1303801,0.2220019 0.025379,0.09761 0.1243916,0.1557597 0.2220017,0.1303806 l 0.2863106,-0.074442 c 0.033962,0.00644 0.064749,0.010115 0.077524,0.026869 0.010195,0.01337 0.010494,0.036745 0.010242,0.061997 l -0.1629769,0.277501 c -0.051594,0.087849 -0.021997,0.2016814 0.065853,0.2532748 0.087848,0.051593 0.2016812,0.021997 0.2532749,-0.065853 L 2.9615628,3.7273558 c 0.024229,-0.015058 0.046443,-0.025134 0.06464,-0.022685 0.018271,0.00246 0.037468,0.017031 0.056933,0.038102 l 0.077306,0.2973224 c 0.02538,0.097609 0.1243925,0.1557592 0.2220025,0.1303802 0.097609,-0.02538 0.1557586,-0.124392 0.1303796,-0.2220019 L 3.4383807,3.6621629 c 0.00644,-0.033961 0.010116,-0.064749 0.026869,-0.077524 0.013371,-0.010196 0.036748,-0.010492 0.061996,-0.010248 l 0.2775021,0.1629758 c 0.087849,0.051593 0.2016815,0.021997 0.2532749,-0.065854 0.051594,-0.087848 0.021997,-0.2016813 -0.065854,-0.2532749 L 3.7216061,3.2593437 c -0.015058,-0.024231 -0.025135,-0.046443 -0.022685,-0.06464 0.00246,-0.018271 0.017031,-0.037468 0.0381,-0.056933 l 0.297324,-0.077305 C 4.1319551,3.0350871 4.1901049,2.9360744 4.1647258,2.8384646 4.1393469,2.7408546 4.0403339,2.6827049 3.9427241,2.708084 L 3.6564135,2.7825263 C 3.6224509,2.7761017 3.5916641,2.772411 3.5788888,2.7556576 3.568694,2.7422878 3.5683943,2.7189124 3.5686469,2.6936607 L 3.7316231,2.416158 C 3.7832171,2.3283086 3.7536198,2.2144767 3.66577,2.1628831 3.5779206,2.1112891 3.4640884,2.1408863 3.4124952,2.2287362 l -0.158901,0.2705644 c -0.02423,0.015058 -0.046442,0.025135 -0.064641,0.022685 -0.018271,-0.00246 -0.037469,-0.01703 -0.056933,-0.038102 L 3.0547167,2.1865618 C 3.029338,2.088952 2.9303249,2.0308022 2.8327151,2.0561814 Z"
       inkscape:connector-curvature="0" /></g></svg>
