<?xml version="1.0" encoding="UTF-8" standalone="no"?>
<svg
   xmlns:dc="http://purl.org/dc/elements/1.1/"
   xmlns:cc="http://creativecommons.org/ns#"
   xmlns:rdf="http://www.w3.org/1999/02/22-rdf-syntax-ns#"
   xmlns:svg="http://www.w3.org/2000/svg"
   xmlns="http://www.w3.org/2000/svg"
   xmlns:sodipodi="http://sodipodi.sourceforge.net/DTD/sodipodi-0.dtd"
   xmlns:inkscape="http://www.inkscape.org/namespaces/inkscape"
   width="16px"
   height="16px"
   id="svg3114"
   sodipodi:version="0.32"
   inkscape:version="1.0.2-2 (e86c870879, 2021-01-15)"
   sodipodi:docname="unknown.svg"
   version="1.1">
  <defs
     id="defs3116" />
  <sodipodi:namedview
     id="base"
     pagecolor="#ffffff"
     bordercolor="#666666"
     borderopacity="1.0"
     inkscape:pageopacity="0.0"
     inkscape:pageshadow="2"
     inkscape:zoom="31.392433"
     inkscape:cx="4.8249329"
     inkscape:cy="5.0717629"
     inkscape:current-layer="layer1"
     showgrid="true"
     inkscape:grid-bbox="false"
     inkscape:document-units="px"
     inkscape:window-width="2560"
     inkscape:window-height="1377"
     inkscape:window-x="-8"
     inkscape:window-y="-8"
     inkscape:snap-global="false"
     inkscape:window-maximized="1"
     inkscape:document-rotation="0">
    <inkscape:grid
       type="xygrid"
       id="grid14712" />
  </sodipodi:namedview>
  <metadata
     id="metadata3119">
    <rdf:RDF>
      <cc:Work
         rdf:about="">
        <dc:format>image/svg+xml</dc:format>
        <dc:type
           rdf:resource="http://purl.org/dc/dcmitype/StillImage" />
        <dc:title></dc:title>
      </cc:Work>
    </rdf:RDF>
  </metadata>
  <g
     id="layer1"
     inkscape:label="Layer 1"
     inkscape:groupmode="layer">
    <path
       style="color:#000000;fill:#2e3436;stroke:none;stroke-width:3;marker:none;visibility:visible;display:inline;overflow:visible;enable-background:accumulate"
       d="m 2.6264939,1.0633353 c 3.676522,-1.29350006 7.27257,-1.33966606 10.7792121,0 0.835272,0.3191039 1.297429,0.7777519 1.613991,1.6139909 1.370124,3.619361 1.348117,7.1952187 0,10.7296328 -0.318659,0.835442 -0.778681,1.294986 -1.613991,1.613991 -3.4609001,1.321718 -7.0635501,1.225923 -10.7792121,0 -0.849129,-0.280156 -1.307739,-0.773922 -1.6139921,-1.613991 -1.27187656,-3.4888281 -1.19101446,-7.0709488 0,-10.7296328 0.2767781,-0.850236 0.7705211,-1.317236 1.6139921,-1.6139909 z"
       id="rect11049"
       inkscape:connector-curvature="0"
       sodipodi:nodetypes="sssssssss" />
    <g
       aria-label="?"
       id="text8659"
       style="font-style:normal;font-variant:normal;font-weight:bold;font-stretch:normal;font-size:18.6667px;line-height:125%;font-family:Calibri;-inkscape-font-specification:'Calibri, Bold';font-variant-ligatures:normal;font-variant-caps:normal;font-variant-numeric:normal;font-variant-east-asian:normal;letter-spacing:0px;word-spacing:0px;fill:#edd400;fill-opacity:1;stroke:none;stroke-width:1.12573px;stroke-linecap:butt;stroke-linejoin:miter;stroke-opacity:1"
       transform="matrix(0.88831144,0,0,0.88831144,0.80388519,0.97191909)">
      <path
         d="m 11.760937,5.3653418 q 0,0.7473972 -0.218751,1.3489607 -0.209636,0.6015636 -0.601563,1.0390644 -0.382814,0.4375008 -0.92969,0.7018242 -0.5377609,0.2643234 -1.1940121,0.3372402 l -0.072917,1.7773467 q -0.00911,0.164063 -0.2643234,0.246094 -0.2460942,0.08203 -0.7200534,0.08203 -0.3007818,0 -0.5104176,-0.0091 -0.2005212,-0.01823 -0.319011,-0.05469 -0.1184898,-0.03646 -0.1731774,-0.100261 -0.054688,-0.0638 -0.063802,-0.164063 L 6.6111877,8.4187327 Q 6.6020731,8.1270655 6.6385315,7.9447735 6.6749899,7.7624815 6.7661359,7.6531063 6.8663965,7.5437311 7.0122301,7.5072727 7.1580637,7.4616997 7.3585849,7.4616997 h 0.1276044 q 0.4830738,0 0.8294286,-0.1549482 Q 8.6710873,7.1518033 8.8989523,6.8965945 9.1268173,6.6413857 9.2270779,6.295031 9.3364531,5.9486762 9.3364531,5.5567484 q 0,-0.4375008 -0.1276044,-0.8020848 Q 9.0903589,4.3900796 8.8351501,4.1257562 8.5890559,3.8614328 8.2062427,3.7247138 7.8325441,3.5788802 7.3221265,3.5788802 q -0.4648446,0 -0.820314,0.091146 -0.3554694,0.091146 -0.6106782,0.2005212 -0.2552088,0.1093752 -0.4283862,0.2005212 -0.1640627,0.091146 -0.2552087,0.091146 -0.063802,0 -0.1184898,-0.036458 Q 5.034362,4.0801832 4.9979036,3.970808 4.9614452,3.8614328 4.9341014,3.6609116 4.9158722,3.4603904 4.9158722,3.150494 q 0,-0.319011 0.027344,-0.4648446 Q 4.9705602,2.5398158 5.061706,2.4486698 5.152852,2.3575238 5.4080607,2.2390341 5.6632695,2.1114297 6.0187389,2.0111691 6.3742083,1.9017939 6.8117091,1.8288771 q 0.4375008,-0.072917 0.91146,-0.072917 1.0755228,0 1.8411492,0.3007818 0.7656257,0.2916671 1.2486997,0.7929701 0.492189,0.501303 0.720054,1.1484396 0.227865,0.6471366 0.227865,1.3671902 z M 9.0630151,13.176554 q 0,0.373698 -0.063802,0.628907 -0.054688,0.255209 -0.2096358,0.410157 -0.1458336,0.154948 -0.4010424,0.218751 -0.2460942,0.07292 -0.6106782,0.07292 -0.3828132,0 -0.6289074,-0.07292 -0.2460942,-0.0638 -0.4010424,-0.218751 -0.1458336,-0.154948 -0.2096358,-0.410157 -0.054688,-0.255209 -0.054688,-0.628907 0,-0.382813 0.054688,-0.638022 0.063802,-0.264324 0.2096358,-0.419272 0.1549482,-0.164063 0.4010424,-0.227865 0.2460942,-0.07292 0.6289074,-0.07292 0.364584,0 0.6106782,0.07292 0.2552088,0.0638 0.4010424,0.227865 0.1549482,0.154948 0.2096358,0.419272 0.063802,0.255209 0.063802,0.638022 z"
         id="path8661"
         style="stroke-width:1.12573px" />
    </g>
  </g>
</svg>
