<?xml version="1.0" encoding="UTF-8"?>
<svg xmlns="http://www.w3.org/2000/svg" version="1.1" xmlns:xlink="http://www.w3.org/1999/xlink" viewBox="0 0 75 75">
  <defs>
    <style>
      .cls-1 {
        opacity: 0;
      }

      .cls-1, .cls-2, .cls-3, .cls-4, .cls-5, .cls-6, .cls-7, .cls-8, .cls-9, .cls-10, .cls-11, .cls-12, .cls-13, .cls-14, .cls-15 {
        fill: none;
      }

      .cls-1, .cls-2, .cls-16, .cls-8, .cls-17, .cls-13, .cls-14, .cls-15 {
        stroke-linejoin: round;
      }

      .cls-1, .cls-2, .cls-16, .cls-17, .cls-10, .cls-14, .cls-15 {
        stroke-linecap: round;
      }

      .cls-1, .cls-4, .cls-5, .cls-16, .cls-6, .cls-7, .cls-9, .cls-17, .cls-12 {
        stroke: #231f20;
      }

      .cls-2, .cls-3, .cls-8, .cls-10, .cls-11, .cls-13, .cls-15 {
        stroke: #000;
      }

      .cls-2, .cls-4, .cls-16, .cls-18, .cls-17, .cls-19, .cls-10, .cls-20, .cls-11, .cls-13 {
        fill-rule: evenodd;
      }

      .cls-2, .cls-16, .cls-17 {
        stroke-width: 3.1px;
      }

      .cls-3, .cls-4, .cls-5, .cls-6, .cls-7, .cls-9, .cls-10, .cls-11, .cls-12 {
        stroke-miterlimit: 10;
      }

      .cls-3, .cls-4, .cls-8, .cls-9, .cls-10, .cls-11, .cls-13, .cls-15 {
        stroke-width: 3.1px;
      }

      .cls-21, .cls-18, .cls-22 {
        fill: #231f20;
      }

      .cls-5 {
        stroke-width: 5px;
      }

      .cls-23 {
        fill: #c7f799;
      }

      .cls-16 {
        fill: url(#radial-gradient);
      }

      .cls-6, .cls-7, .cls-12 {
        stroke-width: .2px;
      }

      .cls-7 {
        stroke-dasharray: 1 1;
      }

      .cls-17 {
        fill: url(#Radial_Gradient_39);
      }

      .cls-19 {
        fill: url(#Linear_Gradient_3);
      }

      .cls-24 {
        display: none;
      }

      .cls-12 {
        stroke-dasharray: 1 1;
      }

      .cls-22 {
        font-family: Arial-BoldMT, Arial;
        font-size: 11.5px;
        font-weight: 700;
      }

      .cls-14 {
        stroke: red;
      }
    </style>
    <linearGradient id="Linear_Gradient_3" data-name="Linear Gradient 3" x1="-277.1" y1="1.1" x2="-278" y2="1.1" gradientUnits="userSpaceOnUse">
      <stop offset="0" stop-color="#fff"/>
      <stop offset="1" stop-color="#231f20"/>
    </linearGradient>
    <radialGradient id="Radial_Gradient_39" data-name="Radial Gradient 39" cx="18.8" cy="39.5" fx="18.8" fy="39.5" r="32.8" gradientUnits="userSpaceOnUse">
      <stop offset="0" stop-color="#c0c7e6"/>
      <stop offset=".2" stop-color="#c0c7e6"/>
      <stop offset=".6" stop-color="#687abb"/>
      <stop offset="1" stop-color="#293171"/>
    </radialGradient>
    <radialGradient id="radial-gradient" cx="40.7" cy="17.6" fx="40.7" fy="17.6" r="32.8" gradientUnits="userSpaceOnUse">
      <stop offset="0" stop-color="#fdb716"/>
      <stop offset=".2" stop-color="#fdcb58"/>
      <stop offset=".6" stop-color="#f16623"/>
      <stop offset="1" stop-color="#f3a41e"/>
    </radialGradient>
  </defs>
  <!-- Generator: Adobe Illustrator 28.7.1, SVG Export Plug-In . SVG Version: 1.2.0 Build 142)  -->
  <g>
    <g id="GUIDE" class="cls-24">
      <g>
        <line class="cls-14" y1="75" y2="0"/>
        <line class="cls-14" x1="3.1" y1="75" x2="3.1" y2="0"/>
        <line class="cls-14" x1="6.2" y1="75" x2="6.2" y2="0"/>
        <line class="cls-14" x1="9.4" y1="75" x2="9.4" y2="0"/>
        <line class="cls-14" x1="12.5" y1="75" x2="12.5" y2="0"/>
        <line class="cls-14" x1="15.6" y1="75" x2="15.6" y2="0"/>
        <line class="cls-14" x1="18.8" y1="75" x2="18.8" y2="0"/>
        <line class="cls-14" x1="21.9" y1="75" x2="21.9" y2="0"/>
        <line class="cls-14" x1="25" y1="75" x2="25" y2="0"/>
        <line class="cls-14" x1="28.1" y1="75" x2="28.1" y2="0"/>
        <line class="cls-14" x1="31.2" y1="75" x2="31.2" y2="0"/>
        <line class="cls-14" x1="34.4" y1="75" x2="34.4" y2="0"/>
        <line class="cls-14" x1="37.5" y1="75" x2="37.5" y2="0"/>
        <line class="cls-14" x1="40.6" y1="75" x2="40.6" y2="0"/>
        <line class="cls-14" x1="43.8" y1="75" x2="43.8" y2="0"/>
        <line class="cls-14" x1="46.9" y1="75" x2="46.9" y2="0"/>
        <line class="cls-14" x1="50" y1="75" x2="50" y2="0"/>
        <line class="cls-14" x1="53.1" y1="75" x2="53.1" y2="0"/>
        <line class="cls-14" x1="56.2" y1="75" x2="56.2" y2="0"/>
        <line class="cls-14" x1="59.4" y1="75" x2="59.4" y2="0"/>
        <line class="cls-14" x1="62.5" y1="75" x2="62.5" y2="0"/>
        <line class="cls-14" x1="65.6" y1="75" x2="65.6" y2="0"/>
        <line class="cls-14" x1="68.8" y1="75" x2="68.8" y2="0"/>
        <line class="cls-14" x1="71.9" y1="75" x2="71.9" y2="0"/>
        <line class="cls-14" x1="75" y1="75" x2="75" y2="0"/>
        <line class="cls-14" x1="75" y1="75" y2="75"/>
        <line class="cls-14" x1="75" y1="71.9" y2="71.9"/>
        <line class="cls-14" x1="75" y1="68.8" y2="68.8"/>
        <line class="cls-14" x1="75" y1="65.6" y2="65.6"/>
        <line class="cls-14" x1="75" y1="62.5" y2="62.5"/>
        <line class="cls-14" x1="75" y1="59.4" y2="59.4"/>
        <line class="cls-14" x1="75" y1="56.3" y2="56.3"/>
        <line class="cls-14" x1="75" y1="53.1" y2="53.1"/>
        <line class="cls-14" x1="75" y1="50" y2="50"/>
        <line class="cls-14" x1="75" y1="46.9" y2="46.9"/>
        <line class="cls-14" x1="75" y1="43.8" y2="43.8"/>
        <line class="cls-14" x1="75" y1="40.6" y2="40.6"/>
        <line class="cls-14" x1="75" y1="37.5" y2="37.5"/>
        <line class="cls-14" x1="75" y1="34.4" y2="34.4"/>
        <line class="cls-14" x1="75" y1="31.3" y2="31.3"/>
        <line class="cls-14" x1="75" y1="28.1" y2="28.1"/>
        <line class="cls-14" x1="75" y1="25" y2="25"/>
        <line class="cls-14" x1="75" y1="21.9" y2="21.9"/>
        <line class="cls-14" x1="75" y1="18.8" y2="18.8"/>
        <line class="cls-14" x1="75" y1="15.6" y2="15.6"/>
        <line class="cls-14" x1="75" y1="12.5" y2="12.5"/>
        <line class="cls-14" x1="75" y1="9.4" y2="9.4"/>
        <line class="cls-14" x1="75" y1="6.3" y2="6.3"/>
        <line class="cls-14" x1="75" y1="3.1" y2="3.1"/>
        <line class="cls-14" x1="75" y1="0" y2="0"/>
      </g>
      <rect class="cls-23" x="-285.8" y="212" width="75" height="75"/>
      <polygon class="cls-19" points="-282.7 12 -273.3 12 -273.3 8.9 -276.4 8.9 -276.4 -9.9 -279.5 -9.9 -279.5 -6.7 -282.7 -6.7 -282.7 -3.6 -279.5 -3.6 -279.5 8.9 -282.7 8.9 -282.7 12"/>
      <polygon class="cls-18" points="-229.5 -9.9 -229.5 5.8 -220.2 5.8 -220.2 12 -217 12 -217 5.8 -213.9 5.8 -213.9 2.6 -217 2.6 -217 -3.6 -220.2 -3.6 -220.2 2.6 -226.4 2.6 -226.4 -9.9 -229.5 -9.9"/>
      <polygon class="cls-18" points="-210.8 37 -198.3 37 -198.3 33.9 -207.7 33.9 -207.7 27.6 -201.4 27.6 -201.4 24.5 -207.7 24.5 -207.7 18.3 -198.3 18.3 -198.3 15.1 -210.8 15.1 -210.8 37"/>
      <polygon class="cls-18" points="-192 37 -188.9 37 -188.9 27.6 -182.7 27.6 -182.7 24.5 -188.9 24.5 -188.9 18.3 -179.5 18.3 -179.5 15.1 -192 15.1 -192 37"/>
      <polygon class="cls-20" points="-154.5 15.1 -154.5 37 -151.4 37 -151.4 27.6 -142 27.6 -142 37 -138.9 37 -138.9 15.1 -142 15.1 -142 24.5 -151.4 24.5 -151.4 15.1 -154.5 15.1"/>
      <polygon class="cls-18" points="-132.7 15.1 -132.7 18.3 -129.5 18.3 -129.5 33.9 -132.7 33.9 -132.7 37 -123.3 37 -123.3 33.9 -126.4 33.9 -126.4 18.3 -123.3 18.3 -123.3 15.1 -132.7 15.1"/>
      <polygon class="cls-18" points="-267 40.1 -267 62 -254.5 62 -254.5 58.9 -263.9 58.9 -263.9 40.1 -267 40.1"/>
      <polygon class="cls-18" points="-120.2 40.1 -120.2 43.3 -113.9 43.3 -113.9 62 -110.8 62 -110.8 43.3 -104.5 43.3 -104.5 40.1 -120.2 40.1"/>
      <g>
        <text class="cls-22" transform="translate(-373.4 128.3) scale(1 1)"><tspan x="0" y="0">U</tspan></text>
        <text class="cls-22" transform="translate(-365.9 128.3) scale(1 1)"><tspan x="0" y="0">s</tspan></text>
        <text class="cls-22" transform="translate(-361.3 128.3) scale(1 1)"><tspan x="0" y="0">e</tspan></text>
        <text class="cls-22" transform="translate(-353.1 128.3) scale(1 1)"><tspan x="0" y="0">t</tspan></text>
        <text class="cls-22" transform="translate(-349.3 128.3) scale(1 1)"><tspan x="0" y="0">h</tspan></text>
        <text class="cls-22" transform="translate(-342.8 128.3) scale(1 1)"><tspan x="0" y="0">i</tspan></text>
        <text class="cls-22" transform="translate(-340.1 128.3) scale(1 1)"><tspan x="0" y="0">s</tspan></text>
        <text class="cls-22" transform="translate(-333.1 128.3) scale(1 1)"><tspan x="0" y="0">g</tspan></text>
        <text class="cls-22" transform="translate(-326.7 128.3) scale(1 1)"><tspan x="0" y="0">r</tspan></text>
        <text class="cls-22" transform="translate(-322.9 128.3) scale(1 1)"><tspan x="0" y="0">i</tspan></text>
        <text class="cls-22" transform="translate(-320.2 128.3) scale(1 1)"><tspan x="0" y="0">d</tspan></text>
        <text class="cls-22" transform="translate(-311.2 128.3) scale(1 1)"><tspan x="0" y="0">t</tspan></text>
        <text class="cls-22" transform="translate(-307.4 128.3) scale(1 1)"><tspan x="0" y="0">o</tspan></text>
        <text class="cls-22" transform="translate(-298.6 128.3) scale(1 1)"><tspan x="0" y="0">a</tspan></text>
        <text class="cls-22" transform="translate(-293.1 128.3) scale(1 1)"><tspan x="0" y="0">l</tspan></text>
        <text class="cls-22" transform="translate(-290.3 128.3) scale(1 1)"><tspan x="0" y="0">i</tspan></text>
        <text class="cls-22" transform="translate(-287.6 128.3) scale(1 1)"><tspan x="0" y="0">g</tspan></text>
        <text class="cls-22" transform="translate(-281.2 128.3) scale(1 1)"><tspan x="0" y="0">n</tspan></text>
        <text class="cls-22" transform="translate(-272.3 128.3) scale(1 1)"><tspan x="0" y="0">y</tspan></text>
        <text class="cls-22" transform="translate(-266.9 128.3) scale(1 1)"><tspan x="0" y="0">o</tspan></text>
        <text class="cls-22" transform="translate(-260.5 128.3) scale(1 1)"><tspan x="0" y="0">u</tspan></text>
        <text class="cls-22" transform="translate(-254.2 128.3) scale(1 1)"><tspan x="0" y="0">r</tspan></text>
        <text class="cls-22" transform="translate(-248 128.3) scale(1 1)"><tspan x="0" y="0">o</tspan></text>
        <text class="cls-22" transform="translate(-241.6 128.3) scale(1 1)"><tspan x="0" y="0">b</tspan></text>
        <text class="cls-22" transform="translate(-235 128.3) scale(1 1)"><tspan x="0" y="0">j</tspan></text>
        <text class="cls-22" transform="translate(-232.2 128.3) scale(1 1)"><tspan x="0" y="0">e</tspan></text>
        <text class="cls-22" transform="translate(-226.5 128.3) scale(1 1)"><tspan x="0" y="0">c</tspan></text>
        <text class="cls-22" transform="translate(-221.3 128.3) scale(1 1)"><tspan x="0" y="0">t</tspan></text>
        <text class="cls-22" transform="translate(-217.5 128.3) scale(1 1)"><tspan x="0" y="0">s</tspan></text>
        <text class="cls-22" transform="translate(-210.4 128.3) scale(1 1)"><tspan x="0" y="0">o</tspan></text>
        <text class="cls-22" transform="translate(-204.1 128.3) scale(1 1)"><tspan x="0" y="0">n</tspan></text>
        <text class="cls-22" transform="translate(-197.7 128.3) scale(1 1)"><tspan x="0" y="0">t</tspan></text>
        <text class="cls-22" transform="translate(-193.9 128.3) scale(1 1)"><tspan x="0" y="0">o</tspan></text>
        <text class="cls-22" transform="translate(-185.1 128.3) scale(1 1)"><tspan x="0" y="0">a</tspan></text>
        <text class="cls-22" transform="translate(-177.1 128.3) scale(1 1)"><tspan x="0" y="0">2</tspan></text>
        <text class="cls-22" transform="translate(-171.1 128.3) scale(1 1)"><tspan x="0" y="0">4</tspan></text>
        <text class="cls-22" transform="translate(-165.2 128.3) scale(1 1)"><tspan x="0" y="0">x</tspan></text>
        <text class="cls-22" transform="translate(-159.9 128.3) scale(1 1)"><tspan x="0" y="0">2</tspan></text>
        <text class="cls-22" transform="translate(-154 128.3) scale(1 1)"><tspan x="0" y="0">4</tspan></text>
        <text class="cls-22" transform="translate(-145.6 128.3) scale(1 1)"><tspan x="0" y="0">p</tspan></text>
        <text class="cls-22" transform="translate(-139 128.3) scale(1 1)"><tspan x="0" y="0">i</tspan></text>
        <text class="cls-22" transform="translate(-136.3 128.3) scale(1 1)"><tspan x="0" y="0">x</tspan></text>
        <text class="cls-22" transform="translate(-131 128.3) scale(1 1)"><tspan x="0" y="0">e</tspan></text>
        <text class="cls-22" transform="translate(-125.2 128.3) scale(1 1)"><tspan x="0" y="0">l</tspan></text>
        <text class="cls-22" transform="translate(-120 128.3) scale(1 1)"><tspan x="0" y="0">f</tspan></text>
        <text class="cls-22" transform="translate(-116.6 128.3) scale(1 1)"><tspan x="0" y="0">o</tspan></text>
        <text class="cls-22" transform="translate(-110.3 128.3) scale(1 1)"><tspan x="0" y="0">r</tspan></text>
        <text class="cls-22" transform="translate(-106.5 128.3) scale(1 1)"><tspan x="0" y="0">m</tspan></text>
        <text class="cls-22" transform="translate(-96.9 128.3) scale(1 1)"><tspan x="0" y="0">a</tspan></text>
        <text class="cls-22" transform="translate(-91.3 128.3) scale(1 1)"><tspan x="0" y="0">t</tspan></text>
      </g>
      <g>
        <text class="cls-22" transform="translate(-373.4 233.2) scale(1 1)"><tspan x="0" y="0">U</tspan></text>
        <text class="cls-22" transform="translate(-365.9 233.2) scale(1 1)"><tspan x="0" y="0">s</tspan></text>
        <text class="cls-22" transform="translate(-361.3 233.2) scale(1 1)"><tspan x="0" y="0">e</tspan></text>
        <text class="cls-22" transform="translate(-353.1 233.2) scale(1 1)"><tspan x="0" y="0">t</tspan></text>
        <text class="cls-22" transform="translate(-349.3 233.2) scale(1 1)"><tspan x="0" y="0">h</tspan></text>
        <text class="cls-22" transform="translate(-342.8 233.2) scale(1 1)"><tspan x="0" y="0">i</tspan></text>
        <text class="cls-22" transform="translate(-340.1 233.2) scale(1 1)"><tspan x="0" y="0">s</tspan></text>
        <text class="cls-22" transform="translate(-333.1 233.2) scale(1 1)"><tspan x="0" y="0">b</tspan></text>
        <text class="cls-22" transform="translate(-326.6 233.2) scale(1 1)"><tspan x="0" y="0">a</tspan></text>
        <text class="cls-22" transform="translate(-321 233.2) scale(1 1)"><tspan x="0" y="0">c</tspan></text>
        <text class="cls-22" transform="translate(-315.8 233.2) scale(1 1)"><tspan x="0" y="0">k</tspan></text>
        <text class="cls-22" transform="translate(-310.4 233.2) scale(1 1)"><tspan x="0" y="0">g</tspan></text>
        <text class="cls-22" transform="translate(-303.9 233.2) scale(1 1)"><tspan x="0" y="0">r</tspan></text>
        <text class="cls-22" transform="translate(-300.2 233.2) scale(1 1)"><tspan x="0" y="0">o</tspan></text>
        <text class="cls-22" transform="translate(-293.8 233.2) scale(1 1)"><tspan x="0" y="0">u</tspan></text>
        <text class="cls-22" transform="translate(-287.5 233.2) scale(1 1)"><tspan x="0" y="0">n</tspan></text>
        <text class="cls-22" transform="translate(-281.1 233.2) scale(1 1)"><tspan x="0" y="0">d</tspan></text>
        <text class="cls-22" transform="translate(-272.1 233.2) scale(1 1)"><tspan x="0" y="0">w</tspan></text>
        <text class="cls-22" transform="translate(-263.6 233.2) scale(1 1)"><tspan x="0" y="0">i</tspan></text>
        <text class="cls-22" transform="translate(-260.9 233.2) scale(1 1)"><tspan x="0" y="0">d</tspan></text>
        <text class="cls-22" transform="translate(-254.4 233.2) scale(1 1)"><tspan x="0" y="0">g</tspan></text>
        <text class="cls-22" transform="translate(-247.9 233.2) scale(1 1)"><tspan x="0" y="0">e</tspan></text>
        <text class="cls-22" transform="translate(-242.1 233.2) scale(1 1)"><tspan x="0" y="0">t</tspan></text>
        <text class="cls-22" transform="translate(-235.9 233.2) scale(1 1)"><tspan x="0" y="0">t</tspan></text>
        <text class="cls-22" transform="translate(-232.1 233.2) scale(1 1)"><tspan x="0" y="0">o</tspan></text>
        <text class="cls-22" transform="translate(-223.3 233.2) scale(1 1)"><tspan x="0" y="0">e</tspan></text>
        <text class="cls-22" transform="translate(-217.5 233.2) scale(1 1)"><tspan x="0" y="0">x</tspan></text>
        <text class="cls-22" transform="translate(-212.1 233.2) scale(1 1)"><tspan x="0" y="0">p</tspan></text>
        <text class="cls-22" transform="translate(-205.6 233.2) scale(1 1)"><tspan x="0" y="0">o</tspan></text>
        <text class="cls-22" transform="translate(-199.2 233.2) scale(1 1)"><tspan x="0" y="0">r</tspan></text>
        <text class="cls-22" transform="translate(-195.5 233.2) scale(1 1)"><tspan x="0" y="0">t</tspan></text>
        <text class="cls-22" transform="translate(-189.2 233.2) scale(1 1)"><tspan x="0" y="0">y</tspan></text>
        <text class="cls-22" transform="translate(-183.7 233.2) scale(1 1)"><tspan x="0" y="0">o</tspan></text>
        <text class="cls-22" transform="translate(-177.4 233.2) scale(1 1)"><tspan x="0" y="0">u</tspan></text>
        <text class="cls-22" transform="translate(-171 233.2) scale(1 1)"><tspan x="0" y="0">r</tspan></text>
        <text class="cls-22" transform="translate(-167.3 233.2) scale(1 1)"><tspan x="0" y="0">i</tspan></text>
        <text class="cls-22" transform="translate(-164.6 233.2) scale(1 1)"><tspan x="0" y="0">c</tspan></text>
        <text class="cls-22" transform="translate(-159.4 233.2) scale(1 1)"><tspan x="0" y="0">o</tspan></text>
        <text class="cls-22" transform="translate(-153.1 233.2) scale(1 1)"><tspan x="0" y="0">n</tspan></text>
        <text class="cls-22" transform="translate(-146.6 233.2) scale(1 1)"><tspan x="0" y="0">s</tspan></text>
        <text class="cls-22" transform="translate(-139.6 233.2) scale(1 1)"><tspan x="0" y="0">w</tspan></text>
        <text class="cls-22" transform="translate(-131.1 233.2) scale(1 1)"><tspan x="0" y="0">h</tspan></text>
        <text class="cls-22" transform="translate(-124.7 233.2) scale(1 1)"><tspan x="0" y="0">i</tspan></text>
        <text class="cls-22" transform="translate(-122 233.2) scale(1 1)"><tspan x="0" y="0">l</tspan></text>
        <text class="cls-22" transform="translate(-119.3 233.2) scale(1 1)"><tspan x="0" y="0">e</tspan></text>
        <text class="cls-22" transform="translate(-111.1 233.2) scale(1 1)"><tspan x="0" y="0">e</tspan></text>
        <text class="cls-22" transform="translate(-105.3 233.2) scale(1 1)"><tspan x="0" y="0">n</tspan></text>
        <text class="cls-22" transform="translate(-98.9 233.2) scale(1 1)"><tspan x="0" y="0">s</tspan></text>
        <text class="cls-22" transform="translate(-94.3 233.2) scale(1 1)"><tspan x="0" y="0">u</tspan></text>
        <text class="cls-22" transform="translate(-87.9 233.2) scale(1 1)"><tspan x="0" y="0">r</tspan></text>
        <text class="cls-22" transform="translate(-84.2 233.2) scale(1 1)"><tspan x="0" y="0">i</tspan></text>
        <text class="cls-22" transform="translate(-81.5 233.2) scale(1 1)"><tspan x="0" y="0">n</tspan></text>
        <text class="cls-22" transform="translate(-75 233.2) scale(1 1)"><tspan x="0" y="0">g</tspan></text>
        <text class="cls-22" transform="translate(-66.1 233.2) scale(1 1)"><tspan x="0" y="0">2</tspan></text>
        <text class="cls-22" transform="translate(-60.2 233.2) scale(1 1)"><tspan x="0" y="0">4</tspan></text>
        <text class="cls-22" transform="translate(-54.3 233.2) scale(1 1)"><tspan x="0" y="0">x</tspan></text>
        <text class="cls-22" transform="translate(-49 233.2) scale(1 1)"><tspan x="0" y="0">2</tspan></text>
        <text class="cls-22" transform="translate(-43 233.2) scale(1 1)"><tspan x="0" y="0">4</tspan></text>
        <text class="cls-22" transform="translate(-34.7 233.2) scale(1 1)"><tspan x="0" y="0">f</tspan></text>
        <text class="cls-22" transform="translate(-31.3 233.2) scale(1 1)"><tspan x="0" y="0">o</tspan></text>
        <text class="cls-22" transform="translate(-24.9 233.2) scale(1 1)"><tspan x="0" y="0">r</tspan></text>
        <text class="cls-22" transform="translate(-21.2 233.2) scale(1 1)"><tspan x="0" y="0">m</tspan></text>
        <text class="cls-22" transform="translate(-11.5 233.2) scale(1 1)"><tspan x="0" y="0">a</tspan></text>
        <text class="cls-22" transform="translate(-6 233.2) scale(1 1)"><tspan x="0" y="0">t</tspan></text>
        <text class="cls-22" transform="translate(-2.2 233.2) scale(1 1)"><tspan x="0" y="0">t</tspan></text>
        <text class="cls-22" transform="translate(1.7 233.2) scale(1 1)"><tspan x="0" y="0">i</tspan></text>
        <text class="cls-22" transform="translate(4.4 233.2) scale(1 1)"><tspan x="0" y="0">n</tspan></text>
        <text class="cls-22" transform="translate(10.8 233.2) scale(1 1)"><tspan x="0" y="0">g</tspan></text>
      </g>
      <g>
        <text class="cls-22" transform="translate(-366.9 -25.8) scale(1 1)"><tspan x="0" y="0">U</tspan></text>
        <text class="cls-22" transform="translate(-359.4 -25.8) scale(1 1)"><tspan x="0" y="0">s</tspan></text>
        <text class="cls-22" transform="translate(-354.8 -25.8) scale(1 1)"><tspan x="0" y="0">e</tspan></text>
        <text class="cls-22" transform="translate(-346.6 -25.8) scale(1 1)"><tspan x="0" y="0">t</tspan></text>
        <text class="cls-22" transform="translate(-342.8 -25.8) scale(1 1)"><tspan x="0" y="0">h</tspan></text>
        <text class="cls-22" transform="translate(-336.4 -25.8) scale(1 1)"><tspan x="0" y="0">e</tspan></text>
        <text class="cls-22" transform="translate(-330.6 -25.8) scale(1 1)"><tspan x="0" y="0">s</tspan></text>
        <text class="cls-22" transform="translate(-326 -25.8) scale(1 1)"><tspan x="0" y="0">e</tspan></text>
        <text class="cls-22" transform="translate(-317.8 -25.8) scale(1 1)"><tspan x="0" y="0">c</tspan></text>
        <text class="cls-22" transform="translate(-312.6 -25.8) scale(1 1)"><tspan x="0" y="0">h</tspan></text>
        <text class="cls-22" transform="translate(-306.2 -25.8) scale(1 1)"><tspan x="0" y="0">a</tspan></text>
        <text class="cls-22" transform="translate(-300.6 -25.8) scale(1 1)"><tspan x="0" y="0">r</tspan></text>
        <text class="cls-22" transform="translate(-296.9 -25.8) scale(1 1)"><tspan x="0" y="0">a</tspan></text>
        <text class="cls-22" transform="translate(-291.3 -25.8) scale(1 1)"><tspan x="0" y="0">c</tspan></text>
        <text class="cls-22" transform="translate(-286.1 -25.8) scale(1 1)"><tspan x="0" y="0">t</tspan></text>
        <text class="cls-22" transform="translate(-282.3 -25.8) scale(1 1)"><tspan x="0" y="0">e</tspan></text>
        <text class="cls-22" transform="translate(-276.5 -25.8) scale(1 1)"><tspan x="0" y="0">r</tspan></text>
        <text class="cls-22" transform="translate(-272.7 -25.8) scale(1 1)"><tspan x="0" y="0">s</tspan></text>
        <text class="cls-22" transform="translate(-268.2 -25.8) scale(1 1)"><tspan x="0" y="0">i</tspan></text>
        <text class="cls-22" transform="translate(-265.5 -25.8) scale(1 1)"><tspan x="0" y="0">n</tspan></text>
        <text class="cls-22" transform="translate(-259.1 -25.8) scale(1 1)"><tspan x="0" y="0">s</tspan></text>
        <text class="cls-22" transform="translate(-254.5 -25.8) scale(1 1)"><tspan x="0" y="0">i</tspan></text>
        <text class="cls-22" transform="translate(-251.8 -25.8) scale(1 1)"><tspan x="0" y="0">d</tspan></text>
        <text class="cls-22" transform="translate(-245.3 -25.8) scale(1 1)"><tspan x="0" y="0">e</tspan></text>
        <text class="cls-22" transform="translate(-237 -25.8) scale(1 1)"><tspan x="0" y="0">y</tspan></text>
        <text class="cls-22" transform="translate(-231.6 -25.8) scale(1 1)"><tspan x="0" y="0">o</tspan></text>
        <text class="cls-22" transform="translate(-225.3 -25.8) scale(1 1)"><tspan x="0" y="0">u</tspan></text>
        <text class="cls-22" transform="translate(-218.9 -25.8) scale(1 1)"><tspan x="0" y="0">r</tspan></text>
        <text class="cls-22" transform="translate(-212.7 -25.8) scale(1 1)"><tspan x="0" y="0">i</tspan></text>
        <text class="cls-22" transform="translate(-210 -25.8) scale(1 1)"><tspan x="0" y="0">c</tspan></text>
        <text class="cls-22" transform="translate(-204.8 -25.8) scale(1 1)"><tspan x="0" y="0">o</tspan></text>
        <text class="cls-22" transform="translate(-198.5 -25.8) scale(1 1)"><tspan x="0" y="0">n</tspan></text>
        <text class="cls-22" transform="translate(-192.1 -25.8) scale(1 1)"><tspan x="0" y="0">s</tspan></text>
        <text class="cls-22" transform="translate(-187.5 -25.8) scale(1 1)"><tspan x="0" y="0">(</tspan></text>
        <text class="cls-22" transform="translate(-184.2 -25.8) scale(1 1)"><tspan x="0" y="0">b</tspan></text>
        <text class="cls-22" transform="translate(-177.6 -25.8) scale(1 1)"><tspan x="0" y="0">u</tspan></text>
        <text class="cls-22" transform="translate(-171.3 -25.8) scale(1 1)"><tspan x="0" y="0">t</tspan></text>
        <text class="cls-22" transform="translate(-165 -25.8) scale(1 1)"><tspan x="0" y="0">i</tspan></text>
        <text class="cls-22" transform="translate(-162.3 -25.8) scale(1 1)"><tspan x="0" y="0">c</tspan></text>
        <text class="cls-22" transform="translate(-157.1 -25.8) scale(1 1)"><tspan x="0" y="0">o</tspan></text>
        <text class="cls-22" transform="translate(-150.8 -25.8) scale(1 1)"><tspan x="0" y="0">n</tspan></text>
        <text class="cls-22" transform="translate(-144.4 -25.8) scale(1 1)"><tspan x="0" y="0">s</tspan></text>
        <text class="cls-22" transform="translate(-137.4 -25.8) scale(1 1)"><tspan x="0" y="0">w</tspan></text>
        <text class="cls-22" transform="translate(-128.9 -25.8) scale(1 1)"><tspan x="0" y="0">i</tspan></text>
        <text class="cls-22" transform="translate(-126.2 -25.8) scale(1 1)"><tspan x="0" y="0">t</tspan></text>
        <text class="cls-22" transform="translate(-122.3 -25.8) scale(1 1)"><tspan x="0" y="0">h</tspan></text>
        <text class="cls-22" transform="translate(-115.9 -25.8) scale(1 1)"><tspan x="0" y="0">o</tspan></text>
        <text class="cls-22" transform="translate(-109.6 -25.8) scale(1 1)"><tspan x="0" y="0">u</tspan></text>
        <text class="cls-22" transform="translate(-103.2 -25.8) scale(1 1)"><tspan x="0" y="0">t</tspan></text>
        <text class="cls-22" transform="translate(-99.4 -25.8) scale(1 1)"><tspan x="0" y="0">t</tspan></text>
        <text class="cls-22" transform="translate(-95.6 -25.8) scale(1 1)"><tspan x="0" y="0">e</tspan></text>
        <text class="cls-22" transform="translate(-89.8 -25.8) scale(1 1)"><tspan x="0" y="0">x</tspan></text>
        <text class="cls-22" transform="translate(-84.5 -25.8) scale(1 1)"><tspan x="0" y="0">t</tspan></text>
        <text class="cls-22" transform="translate(-78.2 -25.8) scale(1 1)"><tspan x="0" y="0">w</tspan></text>
        <text class="cls-22" transform="translate(-69.7 -25.8) scale(1 1)"><tspan x="0" y="0">o</tspan></text>
        <text class="cls-22" transform="translate(-63.3 -25.8) scale(1 1)"><tspan x="0" y="0">r</tspan></text>
        <text class="cls-22" transform="translate(-59.6 -25.8) scale(1 1)"><tspan x="0" y="0">k</tspan></text>
        <text class="cls-22" transform="translate(-51.7 -25.8) scale(1 1)"><tspan x="0" y="0">b</tspan></text>
        <text class="cls-22" transform="translate(-45.1 -25.8) scale(1 1)"><tspan x="0" y="0">e</tspan></text>
        <text class="cls-22" transform="translate(-39.4 -25.8) scale(1 1)"><tspan x="0" y="0">s</tspan></text>
        <text class="cls-22" transform="translate(-34.8 -25.8) scale(1 1)"><tspan x="0" y="0">t</tspan></text>
        <text class="cls-22" transform="translate(-31 -25.8) scale(1 1)"><tspan x="0" y="0">)</tspan></text>
        <text class="cls-22" transform="translate(-27.7 -25.8) scale(1 1)"><tspan x="0" y="0">.</tspan></text>
      </g>
      <line class="cls-5" x1="-335.7" y1="139.5" x2="-308.9" y2="139.5"/>
      <polygon class="cls-18" points="-330.7 139.5 -338.2 132 -343.2 132 -338.2 137 -339.4 137 -344.4 132 -349.4 132 -344.4 137 -345.7 137 -350.7 132 -355.7 132 -348.2 139.5 -355.7 147 -350.7 147 -345.7 142 -344.4 142 -349.4 147 -344.4 147 -339.4 142 -338.2 142 -343.2 147 -338.2 147 -330.7 139.5"/>
      <path class="cls-18" d="M-310.1,139.5v6.2c0,.9,1.6,1.6,2.5,1.2l15-6.2c.5-.2,1.2-.7,1.2-1.2s-.7-1-1.2-1.2l-15-6.2c-.9-.4-2.5.3-2.5,7.5Z"/>
      <line class="cls-5" x1="-335.7" y1="245.4" x2="-308.9" y2="245.4"/>
      <polygon class="cls-18" points="-330.7 245.4 -338.2 237.9 -343.2 237.9 -338.2 242.9 -339.4 242.9 -344.4 237.9 -349.4 237.9 -344.4 242.9 -345.7 242.9 -350.7 237.9 -355.7 237.9 -348.2 245.4 -355.7 252.9 -350.7 252.9 -345.7 247.9 -344.4 247.9 -349.4 252.9 -344.4 252.9 -339.4 247.9 -338.2 247.9 -343.2 252.9 -338.2 252.9 -330.7 245.4"/>
      <path class="cls-18" d="M-310.1,245.4v6.2c0,.9,1.6,1.6,2.5,1.2l15-6.2c.5-.2,1.2-.7,1.2-1.2s-.7-1-1.2-1.2l-15-6.2c-.9-.4-2.5.3-2.5,7.5Z"/>
      <line class="cls-5" x1="-336" y1="48" x2="-309.2" y2="48"/>
      <polygon class="cls-18" points="-331 48 -338.5 40.5 -343.5 40.5 -338.5 45.5 -339.8 45.5 -344.8 40.5 -349.8 40.5 -344.8 45.5 -346 45.5 -351 40.5 -356 40.5 -348.5 48 -356 55.5 -351 55.5 -346 50.5 -344.8 50.5 -349.8 55.5 -344.8 55.5 -339.8 50.5 -338.5 50.5 -343.5 55.5 -338.5 55.5 -331 48"/>
      <path class="cls-18" d="M-310.5,48v6.2c0,.9,1.6,1.6,2.5,1.2l15-6.2c.5-.2,1.2-.7,1.2-1.2s-.7-1-1.2-1.2l-15-6.2c-.9-.4-2.5.3-2.5,7.5Z"/>
      <rect class="cls-9" x="-115.5" y="-8.3" width="12.5" height="18.8" rx="-45.2" ry="-45.2"/>
      <path class="cls-4" d="M-121.7,1.1h-7.8c-2.6,0-4.7-2.1-4.7-4.7s2.1-4.7,4.7-4.7h3.1c2.6,0,4.7,2.1,4.7,4.7V5.8c0,2.6-2.1,4.7-4.7,4.7h-6.2"/>
      <g>
        <path class="cls-4" d="M-145.2,1.1h-3.1c-2.6,0-4.7-2.1-4.7-4.7s2.1-4.7,4.7-4.7h3.1c2.6,0,4.7,2.1,4.7,4.7s-2.1,4.7-4.7,4.7Z"/>
        <path class="cls-4" d="M-148.3,1.1h3.1c2.6,0,4.7,2.1,4.7,4.7s-2.1,4.7-4.7,4.7h-3.1c-2.6,0-4.7-2.1-4.7-4.7s2.1-4.7,4.7-4.7Z"/>
      </g>
      <path class="cls-4" d="M-190.5,1.1h7.8c2.6,0,4.7,2.1,4.7,4.7s-2.1,4.7-4.7,4.7h-3.1c-2.6,0-4.7-2.1-4.7-4.7V-3.6c0-2.6,2.1-4.7,4.7-4.7h6.2"/>
      <path class="cls-4" d="M-209.2,5.8c0,2.6,2.1,4.7,4.7,4.7h3.1c2.6,0,4.7-2.1,4.7-4.7s-2.1-4.7-4.7-4.7h-7.8v-9.4h10.9"/>
      <path class="cls-4" d="M-251.4,10.5h-12.5v-1.6L-254.4-.3c.9-.9,1.4-2,1.4-3.4,0-2.6-2.1-4.7-4.7-4.7h-3.1c-2.6,0-4.7,2.1-4.7,4.7"/>
      <path class="cls-4" d="M-246.7,5.8c0,2.6,2.1,4.7,4.7,4.7h3.1c2.6,0,4.7-2.1,4.7-4.7s-2.1-4.7-4.7-4.7h-3.1,3.1c2.6,0,4.7-2.1,4.7-4.7s-2.1-4.7-4.7-4.7h-3.1c-2.6,0-4.7,2.1-4.7,4.7"/>
      <polyline class="cls-11" points="-173.3 -8.3 -159.2 -8.3 -159.2 -5.2 -168.6 4.2 -168.6 12"/>
      <path class="cls-4" d="M-159.2,21.4c0-2.6-2.1-4.7-4.7-4.7h-3.1c-2.6,0-4.7,2.1-4.7,4.7v9.4c0,2.6,2.1,4.7,4.7,4.7h3.1c2.6,0,4.7-2.1,4.7-4.7v-1.6h-4.7"/>
      <g>
        <path class="cls-4" d="M-271.7,37v-15.6c0-2.6-2.1-4.7-4.7-4.7h-3.1c-2.6,0-4.7,2.1-4.7,4.7v15.6"/>
        <line class="cls-3" x1="-284.2" y1="29.2" x2="-271.7" y2="29.2"/>
      </g>
      <path class="cls-4" d="M-257.7,35.5c2.6,0,4.7-2.1,4.7-4.7s-2.1-4.7-4.7-4.7h-7.8,7.8c2.6,0,4.7-2.1,4.7-4.7s-2.1-4.7-4.7-4.7h-7.8v18.8h7.8Z"/>
      <path class="cls-4" d="M-234.2,21.4c0-2.6-2.1-4.7-4.7-4.7h-3.1c-2.6,0-4.7,2.1-4.7,4.7v9.4c0,2.6,2.1,4.7,4.7,4.7h3.1c2.6,0,4.7-2.1,4.7-4.7"/>
      <path class="cls-4" d="M-228,16.7v18.8h7.8c2.6,0,4.7-2.1,4.7-4.7v-9.4c0-2.6-2.1-4.7-4.7-4.7h-7.8Z"/>
      <path class="cls-4" d="M-115.5,30.8c0,2.6,2.1,4.7,4.7,4.7h0c2.6,0,4.7-2.1,4.7-4.7v-14.1h-4.7,9.4"/>
      <g>
        <line class="cls-3" x1="-284.2" y1="40.1" x2="-284.2" y2="62"/>
        <polyline class="cls-10" points="-271.7 41.7 -281.1 51.1 -271.7 60.5"/>
      </g>
      <polyline class="cls-13" points="-249.8 62 -249.8 41.7 -243.6 48 -243.6 52.6 -243.6 48 -237.3 41.7 -237.3 62"/>
      <g>
        <polyline class="cls-13" points="-231.1 62 -231.1 41.7 -218.6 54.2"/>
        <line class="cls-3" x1="-218.6" y1="40.1" x2="-218.6" y2="62"/>
      </g>
      <path class="cls-4" d="M-212.3,46.4v9.4c0,2.6,2.1,4.7,4.7,4.7h3.1c2.6,0,4.7-2.1,4.7-4.7v-9.4c0-2.6-2.1-4.7-4.7-4.7h-3.1c-2.6,0-4.7,2.1-4.7,4.7Z"/>
      <path class="cls-4" d="M-193.6,51.1h7.8c2.6,0,4.7-2.1,4.7-4.7s-2.1-4.7-4.7-4.7h-7.8v20.3"/>
      <g>
        <path class="cls-4" d="M-174.8,46.4v9.4c0,2.6,2.1,4.7,4.7,4.7h3.1c2.6,0,4.7-2.1,4.7-4.7v-9.4c0-2.6-2.1-4.7-4.7-4.7h-3.1c-2.6,0-4.7,2.1-4.7,4.7Z"/>
        <line class="cls-15" x1="-165.5" y1="57.3" x2="-162.3" y2="60.5"/>
      </g>
      <path class="cls-4" d="M-156.1,51.1h7.8c2.6,0,4.7-2.1,4.7-4.7s-2.1-4.7-4.7-4.7h-7.8v20.3"/>
      <path class="cls-4" d="M-143.6,62v-6.2c0-2.6-2.1-4.7-4.7-4.7"/>
      <path class="cls-4" d="M-137.3,55.8c0,2.6,2.1,4.7,4.7,4.7h3.1c2.6,0,4.7-2.1,4.7-4.7s-2.1-4.7-4.7-4.7h-3.1c-2.6,0-4.7-2.1-4.7-4.7s2.1-4.7,4.7-4.7h3.1c2.6,0,4.7,2.1,4.7,4.7"/>
      <path class="cls-4" d="M-284.2,65.1v15.6c0,2.6,2.1,4.7,4.7,4.7h3.1c2.6,0,4.7-2.1,4.7-4.7v-15.6"/>
      <polyline class="cls-13" points="-265.5 65.1 -265.5 79.2 -259.2 85.5 -253 79.2 -253 65.1"/>
      <polyline class="cls-13" points="-246.7 65.1 -246.7 82.3 -243.6 85.5 -240.5 82.3 -240.5 79.2 -240.5 82.3 -237.3 85.5 -234.2 82.3 -234.2 65.1"/>
      <g>
        <polyline class="cls-13" points="-228 65.1 -228 69.8 -215.5 82.3 -215.5 87"/>
        <polyline class="cls-13" points="-228 87 -228 82.3 -215.5 69.8 -215.5 65.1"/>
      </g>
      <g>
        <polyline class="cls-13" points="-209.2 65.1 -209.2 73 -203 79.2 -196.7 73 -196.7 65.1"/>
        <line class="cls-8" x1="-203" y1="87" x2="-203" y2="79.2"/>
      </g>
      <polyline class="cls-13" points="-192 66.7 -178 66.7 -178 69.8 -190.5 82.3 -190.5 85.5 -176.4 85.5"/>
      <g>
        <line class="cls-14" x1="-285.8" y1="212" x2="-285.8" y2="137"/>
        <line class="cls-14" x1="-282.7" y1="212" x2="-282.7" y2="137"/>
        <line class="cls-14" x1="-279.5" y1="212" x2="-279.5" y2="137"/>
        <line class="cls-14" x1="-276.4" y1="212" x2="-276.4" y2="137"/>
        <line class="cls-14" x1="-273.3" y1="212" x2="-273.3" y2="137"/>
        <line class="cls-14" x1="-270.2" y1="212" x2="-270.2" y2="137"/>
        <line class="cls-14" x1="-267" y1="212" x2="-267" y2="137"/>
        <line class="cls-14" x1="-263.9" y1="212" x2="-263.9" y2="137"/>
        <line class="cls-14" x1="-260.8" y1="212" x2="-260.8" y2="137"/>
        <line class="cls-14" x1="-257.7" y1="212" x2="-257.7" y2="137"/>
        <line class="cls-14" x1="-254.5" y1="212" x2="-254.5" y2="137"/>
        <line class="cls-14" x1="-251.4" y1="212" x2="-251.4" y2="137"/>
        <line class="cls-14" x1="-248.3" y1="212" x2="-248.3" y2="137"/>
        <line class="cls-14" x1="-245.2" y1="212" x2="-245.2" y2="137"/>
        <line class="cls-14" x1="-242" y1="212" x2="-242" y2="137"/>
        <line class="cls-14" x1="-238.9" y1="212" x2="-238.9" y2="137"/>
        <line class="cls-14" x1="-235.8" y1="212" x2="-235.8" y2="137"/>
        <line class="cls-14" x1="-232.7" y1="212" x2="-232.7" y2="137"/>
        <line class="cls-14" x1="-229.5" y1="212" x2="-229.5" y2="137"/>
        <line class="cls-14" x1="-226.4" y1="212" x2="-226.4" y2="137"/>
        <line class="cls-14" x1="-223.3" y1="212" x2="-223.3" y2="137"/>
        <line class="cls-14" x1="-220.2" y1="212" x2="-220.2" y2="137"/>
        <line class="cls-14" x1="-217" y1="212" x2="-217" y2="137"/>
        <line class="cls-14" x1="-213.9" y1="212" x2="-213.9" y2="137"/>
        <line class="cls-14" x1="-210.8" y1="212" x2="-210.8" y2="137"/>
        <line class="cls-14" x1="-210.8" y1="212" x2="-285.8" y2="212"/>
        <line class="cls-14" x1="-210.8" y1="208.9" x2="-285.8" y2="208.9"/>
        <line class="cls-14" x1="-210.8" y1="205.8" x2="-285.8" y2="205.8"/>
        <line class="cls-14" x1="-210.8" y1="202.7" x2="-285.8" y2="202.7"/>
        <line class="cls-14" x1="-210.8" y1="199.5" x2="-285.8" y2="199.5"/>
        <line class="cls-14" x1="-210.8" y1="196.4" x2="-285.8" y2="196.4"/>
        <line class="cls-14" x1="-210.8" y1="193.3" x2="-285.8" y2="193.3"/>
        <line class="cls-14" x1="-210.8" y1="190.2" x2="-285.8" y2="190.2"/>
        <line class="cls-14" x1="-210.8" y1="187" x2="-285.8" y2="187"/>
        <line class="cls-14" x1="-210.8" y1="183.9" x2="-285.8" y2="183.9"/>
        <line class="cls-14" x1="-210.8" y1="180.8" x2="-285.8" y2="180.8"/>
        <line class="cls-14" x1="-210.8" y1="177.7" x2="-285.8" y2="177.7"/>
        <line class="cls-14" x1="-210.8" y1="174.5" x2="-285.8" y2="174.5"/>
        <line class="cls-14" x1="-210.8" y1="171.4" x2="-285.8" y2="171.4"/>
        <line class="cls-14" x1="-210.8" y1="168.3" x2="-285.8" y2="168.3"/>
        <line class="cls-14" x1="-210.8" y1="165.2" x2="-285.8" y2="165.2"/>
        <line class="cls-14" x1="-210.8" y1="162" x2="-285.8" y2="162"/>
        <line class="cls-14" x1="-210.8" y1="158.9" x2="-285.8" y2="158.9"/>
        <line class="cls-14" x1="-210.8" y1="155.8" x2="-285.8" y2="155.8"/>
        <line class="cls-14" x1="-210.8" y1="152.7" x2="-285.8" y2="152.7"/>
        <line class="cls-14" x1="-210.8" y1="149.5" x2="-285.8" y2="149.5"/>
        <line class="cls-14" x1="-210.8" y1="146.4" x2="-285.8" y2="146.4"/>
        <line class="cls-14" x1="-210.8" y1="143.3" x2="-285.8" y2="143.3"/>
        <line class="cls-14" x1="-210.8" y1="140.2" x2="-285.8" y2="140.2"/>
        <line class="cls-14" x1="-210.8" y1="137" x2="-285.8" y2="137"/>
      </g>
      <line class="cls-1" x1="76.1" y1="34.5" x2="76.8" y2="33.8"/>
      <g>
        <path class="cls-21" d="M-49.3,87h1.1v8.5h-1.2v-6.4.4c0,0-2,4.8-2,4.8h-.8l-2.1-4.7v-.5c0,0,0,6.4,0,6.4h-1.2v-8.5h1.1l2.5,5.6,2.5-5.6Z"/>
        <path class="cls-21" d="M-43.8,87h1l3.1,8.5h-1.3l-2.4-6.9-2.4,6.9h-1.3l3.1-8.5ZM-45.5,92.5h4.5v1.1h-4.5v-1.1Z"/>
        <path class="cls-21" d="M-38.4,87h1.2v8.5h-1.2v-8.5ZM-37.4,91.8l3.8-4.8h1.5l-5.4,6.6.2-1.8ZM-36,91l.9-.9,3.2,5.4h-1.5l-2.7-4.5Z"/>
        <path class="cls-21" d="M-30.6,87h1.2v8.5h-1.2v-8.5ZM-30,87h4.9v1.1h-4.9v-1.1ZM-30,90.7h4.2v1.1h-4.2v-1.1ZM-30,94.4h4.9v1.1h-4.9v-1.1Z"/>
        <path class="cls-21" d="M-18.8,95.5c-.4,0-.7-.2-1-.4s-.6-.4-.9-.6l.7-.9c.3.3.7.5,1.1.6s.8.2,1.3.2,1.1-.1,1.4-.3.5-.6.5-1h0c0-.3,0-.5-.2-.7s-.4-.3-.6-.4-.6-.2-.9-.2c0,0,0,0,0,0s0,0,0,0h0c-.6-.1-1-.2-1.4-.3s-.7-.3-.9-.7-.4-.8-.4-1.4h0c0-.5.1-1,.4-1.4s.6-.7,1-.9,1-.3,1.6-.3.6,0,.9,0,.6.2.9.3.6.3.8.5l-.7.9c-.3-.2-.6-.4-1-.5s-.6-.2-1-.2c-.6,0-1,.1-1.4.3s-.5.6-.5,1h0c0,.3,0,.5.2.7s.4.3.6.4.6.2,1,.2c0,0,0,0,0,0s0,0,0,0c0,0,0,0,0,0s0,0,0,0c.5.1.9.2,1.3.4s.6.4.9.7.3.8.3,1.3h0c0,.5-.1,1-.4,1.3s-.6.7-1.1.8-1,.3-1.7.3-.8,0-1.2-.1Z"/>
        <path class="cls-21" d="M-11.8,95.2c-.4-.2-.8-.6-1-1.1s-.4-1-.4-1.7v-5.4h1.2v5.5c0,.6.2,1.1.5,1.4s.8.5,1.3.5,1-.2,1.3-.5.5-.8.5-1.4v-5.5h1.2v5.4c0,.7-.1,1.2-.4,1.7s-.6.8-1,1.1-1,.4-1.6.4-1.2-.1-1.6-.4Z"/>
        <path class="cls-21" d="M-5.3,87h1.2v8.5h-1.2v-8.5ZM-4.8,90.8H-1.8c.2,0,.4,0,.6-.2s.3-.3.4-.5.1-.4.1-.7,0-.5-.1-.7-.2-.4-.4-.5-.4-.2-.6-.2h-2.9v-1.1H-1.9c.5,0,.9.1,1.3.3s.7.5.9.9.3.8.3,1.3-.1.9-.3,1.3-.5.7-.9.9-.8.3-1.3.3h-2.9v-1.1ZM-2.4,91.7l1.2-.3,2.2,4.1H-.5l-2-3.9Z"/>
        <path class="cls-21" d="M2.6,87h1.2v8.5h-1.2v-8.5ZM3.1,87h4.9v1.1H3.1v-1.1ZM3.1,90.7h4.2v1.1H3.1v-1.1ZM3.1,94.4h4.9v1.1H3.1v-1.1Z"/>
        <path class="cls-21" d="M11.8,87h6v1.1h-6v-1.1ZM14.2,87.7h1.2v7.8h-1.2v-7.8Z"/>
        <path class="cls-21" d="M20,95.2c-.5-.3-.8-.6-1.1-1.1s-.4-1-.4-1.6v-2.4c0-.6.1-1.2.4-1.6s.6-.8,1.1-1.1,1-.4,1.6-.4,1.1.1,1.6.4.8.6,1.1,1.1.4,1,.4,1.6v2.4c0,.6-.1,1.2-.4,1.6s-.6.8-1.1,1.1-1,.4-1.6.4-1.1-.1-1.6-.4ZM22.5,94.2c.3-.2.5-.4.6-.7s.2-.6.2-1v-2.5c0-.4,0-.7-.2-1s-.4-.5-.6-.7-.6-.2-.9-.2-.7,0-.9.2-.5.4-.6.7-.2.6-.2,1v2.5c0,.4,0,.7.2,1s.4.5.6.7.6.2.9.2.7,0,.9-.2Z"/>
        <path class="cls-21" d="M29.7,87h1.2v8.5h-1.2v-8.5ZM30.3,87h4.9v1.1h-4.9v-1.1ZM30.3,90.7h4.2v1.1h-4.2v-1.1ZM30.3,94.4h4.9v1.1h-4.9v-1.1Z"/>
        <path class="cls-21" d="M38.9,90.7l2.1-3.7h1.3l-2.8,4.6-2.3,3.9h-1.3l3-4.9ZM38.9,91.8l-.2-.3-2.8-4.5h1.3l2.1,3.5.2.3,2.9,4.7h-1.3l-2.2-3.7Z"/>
        <path class="cls-21" d="M43.8,87h1.2v8.5h-1.2v-8.5ZM44.4,91.1h2.7c.3,0,.5,0,.7-.2s.3-.3.5-.5.2-.5.2-.8,0-.6-.2-.8-.3-.4-.5-.5-.4-.2-.7-.2h-2.7v-1.1h2.7c.5,0,1,.1,1.3.3s.7.5.9.9.3.9.3,1.4-.1,1-.3,1.4-.5.7-.9.9-.8.3-1.3.3h-2.7v-1.1Z"/>
        <path class="cls-21" d="M52.4,95.2c-.5-.3-.8-.6-1.1-1.1s-.4-1-.4-1.6v-2.4c0-.6.1-1.2.4-1.6s.6-.8,1.1-1.1,1-.4,1.6-.4,1.1.1,1.6.4.8.6,1.1,1.1.4,1,.4,1.6v2.4c0,.6-.1,1.2-.4,1.6s-.6.8-1.1,1.1-1,.4-1.6.4-1.1-.1-1.6-.4ZM54.9,94.2c.3-.2.5-.4.6-.7s.2-.6.2-1v-2.5c0-.4,0-.7-.2-1s-.4-.5-.6-.7-.6-.2-.9-.2-.7,0-.9.2-.5.4-.6.7-.2.6-.2,1v2.5c0,.4,0,.7.2,1s.4.5.6.7.6.2.9.2.7,0,.9-.2Z"/>
        <path class="cls-21" d="M58.8,87h1.2v8.5h-1.2v-8.5ZM59.3,90.8h2.9c.2,0,.4,0,.6-.2s.3-.3.4-.5.1-.4.1-.7,0-.5-.1-.7-.2-.4-.4-.5-.4-.2-.6-.2h-2.9v-1.1h2.9c.5,0,.9.1,1.3.3s.7.5.9.9.3.8.3,1.3-.1.9-.3,1.3-.5.7-.9.9-.8.3-1.3.3h-2.9v-1.1ZM61.6,91.7l1.2-.3,2.2,4.1h-1.4l-2-3.9Z"/>
        <path class="cls-21" d="M65.4,87h6v1.1h-6v-1.1ZM67.8,87.7h1.2v7.8h-1.2v-7.8Z"/>
        <path class="cls-21" d="M75.3,94.3h1.3v1.3h-1.3v-1.3Z"/>
        <path class="cls-21" d="M78.2,89.5h1.2v8.6h-1.2v-8.6ZM79.9,95.3c-.3-.2-.5-.4-.6-.8v-1.3c0,.3.1.5.2.7s.2.3.4.4.4.1.6.1c.4,0,.7-.1.9-.4s.3-.6.3-1v-1.3c0-.4-.1-.8-.3-1s-.5-.4-.9-.4-.5,0-.6.1-.3.2-.4.4-.1.4-.1.7v-1.2c0-.4.3-.6.6-.8s.6-.3,1-.3.8,0,1.1.3.5.5.7.8.2.8.2,1.3v1.3c0,.5,0,1-.2,1.3s-.4.6-.7.8-.7.3-1.1.3-.7,0-1-.3Z"/>
        <path class="cls-21" d="M84.7,89.5h1.2v6.1h-1.2v-6.1ZM88.4,91.8c0-.4-.1-.8-.3-1s-.5-.4-.9-.4-.7.1-.9.3-.3.5-.3.9v-1.2c0-.4.3-.7.6-.8s.6-.3,1-.3c.7,0,1.2.2,1.5.6s.5,1,.5,1.8v3.7h-1.2v-3.7Z"/>
        <path class="cls-21" d="M92.2,95.3c-.3-.2-.6-.5-.7-.8s-.2-.8-.2-1.3v-1.3c0-.5,0-1,.2-1.3s.4-.7.7-.8.7-.3,1.1-.3.7,0,1,.3.5.5.7.8v1.2c-.1-.3-.2-.5-.3-.7s-.2-.3-.4-.4-.4-.1-.6-.1c-.4,0-.7.1-.9.4s-.3.6-.3,1v1.3c0,.4.1.8.3,1s.5.4.9.4.5,0,.6-.1.3-.2.4-.4.1-.4.1-.7v1.3c0,.3-.2.6-.5.8s-.6.3-1,.3-.8,0-1.1-.3ZM92.2,97.8c-.4-.2-.6-.4-.8-.7l.8-.7c.2.2.3.4.6.5s.4.2.7.2c.5,0,.8-.1,1.1-.4s.4-.6.4-1.1v-6.1h1.2v5.9c0,.6-.1,1-.3,1.4s-.5.7-.9.9-.9.3-1.4.3-.9,0-1.2-.3Z"/>
        <path class="cls-21" d="M103.6,87h1l3.1,8.5h-1.3l-2.4-6.9-2.4,6.9h-1.3l3.1-8.5ZM101.9,92.5h4.5v1.1h-4.5v-1.1Z"/>
        <path class="cls-21" d="M107.6,87h6v1.1h-6v-1.1ZM110,87.7h1.2v7.8h-1.2v-7.8Z"/>
        <path class="cls-21" d="M120.6,91.3v.2c-.1.2-.3.3-.4.4s-.4.1-.7.1c-.4,0-.8-.1-1.1-.3s-.5-.5-.7-.9-.3-.8-.3-1.3h0c0-.6,0-1,.3-1.4s.5-.7.8-.9.8-.3,1.3-.3.9.1,1.3.3.6.5.8.9.3.9.3,1.4h0c0,.3,0,.6-.1,1s-.2.7-.3,1c0,0,0,.1,0,.2s0,.1,0,.2l-1.8,3.7h-1.3l2.1-4.2ZM120.7,90.6c.2-.3.3-.6.3-1.1h0c0-.5-.1-.8-.3-1s-.5-.4-.9-.4-.7.1-.9.4-.3.6-.3,1h0c0,.5.1.8.3,1.1s.5.4.9.4.7-.1.9-.4Z"/>
        <path class="cls-21" d="M124.2,95.3c-.4-.2-.6-.5-.8-.9s-.3-.8-.3-1.4h0c0-.3,0-.7.1-1s.2-.7.3-1c0,0,0-.1,0-.2s0-.1,0-.2l1.9-3.7h1.3l-2.2,4.2v-.2c.1-.2.2-.3.4-.4s.4-.2.7-.2c.4,0,.8,0,1.1.3s.6.5.7.9.2.8.2,1.4h0c0,.6,0,1-.3,1.4s-.5.7-.8.9-.8.3-1.3.3-.9-.1-1.3-.3ZM126.4,94.1c.2-.2.3-.6.3-1h0c0-.5-.1-.9-.3-1.1s-.5-.4-.9-.4-.6.1-.8.4-.3.6-.3,1.1h0c0,.4.1.8.3,1s.5.3.9.3.7-.1.9-.4Z"/>
        <path class="cls-21" d="M132.8,87h1.2v8.5h-1.2v-8.5ZM133.6,94.4h1.9c.6,0,1.1-.2,1.5-.5s.5-.8.5-1.4v-2.5c0-.6-.2-1.1-.5-1.4s-.8-.5-1.5-.5h-1.9v-1.1h1.9c.7,0,1.3.1,1.8.4s.9.6,1.1,1,.4,1,.4,1.7v2.4c0,.6-.1,1.2-.4,1.7s-.6.8-1.1,1-1.1.4-1.8.4h-1.9v-1.1Z"/>
        <path class="cls-21" d="M140.6,87h1.2v8.5h-1.2v-8.5ZM141.2,91.1h2.7c.3,0,.5,0,.7-.2s.3-.3.5-.5.2-.5.2-.8,0-.6-.2-.8-.3-.4-.5-.5-.4-.2-.7-.2h-2.7v-1.1h2.7c.5,0,1,.1,1.3.3s.7.5.9.9.3.9.3,1.4-.1,1-.3,1.4-.5.7-.9.9-.8.3-1.3.3h-2.7v-1.1Z"/>
        <path class="cls-21" d="M149.1,95.5h-1.2v-8.5h1.2v8.5Z"/>
      </g>
      <g>
        <line class="cls-6" x1="73" y1="-3.8" x2="73" y2="-3.3"/>
        <line class="cls-12" x1="73" y1="-2.3" x2="73" y2="77.9"/>
        <line class="cls-6" x1="73" y1="78.4" x2="73" y2="78.9"/>
      </g>
      <g>
        <line class="cls-6" x1="2" y1="-3.8" x2="2" y2="-3.3"/>
        <line class="cls-12" x1="2" y1="-2.3" x2="2" y2="77.9"/>
        <line class="cls-6" x1="2" y1="78.4" x2="2" y2="78.9"/>
      </g>
      <g>
        <line class="cls-6" x1="-3.8" y1="2" x2="-3.3" y2="2"/>
        <line class="cls-7" x1="-2.3" y1="2" x2="78.4" y2="2"/>
        <line class="cls-6" x1="78.9" y1="2" x2="79.4" y2="2"/>
      </g>
      <g>
        <line class="cls-6" x1="-4.6" y1="73" x2="-4.1" y2="73"/>
        <line class="cls-7" x1="-3.1" y1="73" x2="77.6" y2="73"/>
        <line class="cls-6" x1="78.1" y1="73" x2="78.6" y2="73"/>
      </g>
    </g>
    <g id="KEEP_ON_FOR_EXPORT">
      <line class="cls-1" x1="-.4" y1=".4" x2=".4" y2="-.4"/>
      <line class="cls-1" x1="74.6" y1="75.4" x2="75.4" y2="74.6"/>
    </g>
    <g id="ICON">
      <path class="cls-17" d="M4.7,47.1c0-12.1,9.9-21.8,22-21.7,12.1,0,21.8,9.9,21.7,22,0,12.1-9.9,21.8-22,21.7-12.1,0-21.8-9.9-21.7-22Z"/>
      <path class="cls-16" d="M70.3,25.5c0,12.1-9.9,21.8-22,21.7-9.7-5.3-17.3-12.4-21.7-22,0-12.1,9.9-21.8,22-21.7,12.1,0,21.8,9.9,21.7,22"/>
      <g>
        <path class="cls-2" d="M48.4,47.3c0,3.4-9.9,6.2-22,6.2-12.1,0-21.8-2.8-21.7-6.2"/>
        <path class="cls-2" d="M26.4,69.1c-5.1,0-9.3-9.9-9.3-22,0-12.1,4.2-21.8,9.4-21.7"/>
      </g>
      <path class="cls-2" d="M70.3,23.9c0,4.3-9.9,7.7-22,7.7-12.1,0-21.8-3.5-21.7-7.8"/>
      <path class="cls-2" d="M48.4,47.2c-5.2,0-9.3-9.9-9.3-22,0-12.1,4.3-21.8,9.4-21.7"/>
    </g>
  </g>
</svg>