<?xml version="1.0" encoding="UTF-8" standalone="no"?>
<svg
   viewBox="0 0 48 48"
   version="1.1"
   id="svg130986"
   sodipodi:docname="asset_library.svg"
   inkscape:version="1.1 (c68e22c387, 2021-05-23)"
   xmlns:inkscape="http://www.inkscape.org/namespaces/inkscape"
   xmlns:sodipodi="http://sodipodi.sourceforge.net/DTD/sodipodi-0.dtd"
   xmlns:xlink="http://www.w3.org/1999/xlink"
   xmlns="http://www.w3.org/2000/svg"
   xmlns:svg="http://www.w3.org/2000/svg"
   xmlns:rdf="http://www.w3.org/1999/02/22-rdf-syntax-ns#"
   xmlns:cc="http://creativecommons.org/ns#"
   xmlns:dc="http://purl.org/dc/elements/1.1/">
  <sodipodi:namedview
     id="namedview130988"
     pagecolor="#ffffff"
     bordercolor="#666666"
     borderopacity="1.0"
     inkscape:pageshadow="2"
     inkscape:pageopacity="0.0"
     inkscape:pagecheckerboard="0"
     showgrid="false"
     inkscape:zoom="15.6875"
     inkscape:cx="5.9601594"
     inkscape:cy="24"
     inkscape:window-width="2880"
     inkscape:window-height="1557"
     inkscape:window-x="-8"
     inkscape:window-y="-8"
     inkscape:window-maximized="1"
     inkscape:current-layer="svg130986" />
  <defs
     id="defs130822">
    <style
       id="style130712">.cls-1{isolation:isolate;}.cls-2{fill:url(#radial-gradient);}.cls-25,.cls-3{mix-blend-mode:multiply;}.cls-4{fill:#e9b96e;}.cls-5{fill:url(#linear-gradient);}.cls-6{fill:url(#linear-gradient-2);}.cls-7{fill:url(#radial-gradient-2);}.cls-8{fill:url(#linear-gradient-3);}.cls-12,.cls-15,.cls-18,.cls-27,.cls-29,.cls-50,.cls-60,.cls-9{fill:none;}.cls-9{stroke:#c4a000;}.cls-12,.cls-15,.cls-27,.cls-9{stroke-miterlimit:10;}.cls-12,.cls-15,.cls-9{stroke-width:0.4px;}.cls-10{fill:url(#radial-gradient-3);}.cls-11{fill:url(#linear-gradient-4);}.cls-12{stroke:#755076;}.cls-13{fill:url(#radial-gradient-4);}.cls-14{fill:url(#linear-gradient-5);}.cls-15{stroke:#4e9a06;}.cls-16{fill:url(#linear-gradient-6);}.cls-17{fill:url(#linear-gradient-7);}.cls-18,.cls-29,.cls-50,.cls-60{stroke:#8f5902;stroke-linecap:round;stroke-linejoin:round;}.cls-18{stroke-width:0.5px;}.cls-19{fill:url(#linear-gradient-8);}.cls-20{fill:url(#linear-gradient-9);}.cls-21{fill:#fff;}.cls-22{fill:#3465a4;}.cls-23{fill:#fce94f;}.cls-24{fill:#ef2929;}.cls-25{fill:url(#linear-gradient-10);}.cls-26{fill:url(#linear-gradient-11);}.cls-27{stroke:#204a87;}.cls-27,.cls-29{stroke-width:0.7px;}.cls-28{fill:url(#linear-gradient-12);}.cls-30{fill:url(#linear-gradient-13);}.cls-31{fill:url(#linear-gradient-14);}.cls-32{fill:url(#linear-gradient-15);}.cls-33{fill:url(#linear-gradient-16);}.cls-34{fill:url(#linear-gradient-17);}.cls-35{fill:url(#linear-gradient-18);}.cls-36{fill:url(#linear-gradient-19);}.cls-37{fill:url(#linear-gradient-20);}.cls-38{fill:url(#linear-gradient-21);}.cls-39{fill:url(#linear-gradient-22);}.cls-40{fill:url(#linear-gradient-23);}.cls-41{fill:url(#linear-gradient-24);}.cls-42{fill:url(#linear-gradient-25);}.cls-43{fill:url(#linear-gradient-27);}.cls-44{fill:url(#linear-gradient-28);}.cls-45{fill:url(#linear-gradient-29);}.cls-46{fill:url(#linear-gradient-31);}.cls-47{fill:url(#linear-gradient-32);}.cls-48{fill:url(#linear-gradient-33);}.cls-49{fill:url(#linear-gradient-34);}.cls-50{stroke-width:1.4px;}.cls-51{fill:url(#linear-gradient-35);}.cls-52{fill:url(#linear-gradient-36);}.cls-53{fill:url(#linear-gradient-37);}.cls-54{fill:url(#linear-gradient-38);}.cls-55{fill:url(#linear-gradient-39);}.cls-56{fill:url(#linear-gradient-40);}.cls-57{fill:url(#linear-gradient-41);}.cls-58{fill:url(#linear-gradient-42);}.cls-59{fill:url(#linear-gradient-43);}.cls-60{stroke-width:0.35px;}.cls-61{fill:#f3d7b0;}.cls-62{fill:url(#linear-gradient-44);}.cls-63{fill:#204a87;}.cls-64{fill:#8f5902;}.cls-65{fill:#729fcf;}</style>
    <radialGradient
       id="radial-gradient"
       cx="33.88"
       cy="20.63"
       r="21.39"
       gradientTransform="matrix(1.11,0,0,0.42,-13.65,28.82)"
       gradientUnits="userSpaceOnUse">
      <stop
         offset="0.03"
         stop-color="#2c2c2c"
         stop-opacity="0.5"
         id="stop130714" />
      <stop
         offset="0.68"
         stop-color="#2c2c2c"
         stop-opacity="0.1"
         id="stop130716" />
      <stop
         offset="0.93"
         stop-color="#2c2c2c"
         stop-opacity="0"
         id="stop130718" />
    </radialGradient>
    <linearGradient
       id="linear-gradient"
       x1="24"
       y1="23.08"
       x2="37.64"
       y2="23.08"
       gradientUnits="userSpaceOnUse">
      <stop
         offset="0"
         stop-color="#e9b96e"
         id="stop130721" />
      <stop
         offset="0.32"
         stop-color="#c17d11"
         id="stop130723" />
      <stop
         offset="1"
         stop-color="#8f5902"
         id="stop130725" />
    </linearGradient>
    <linearGradient
       id="linear-gradient-2"
       x1="17.22"
       y1="23.15"
       x2="13.88"
       y2="15.51"
       xlink:href="#linear-gradient" />
    <radialGradient
       id="radial-gradient-2"
       cx="25.27"
       cy="4.44"
       r="2.7"
       gradientTransform="matrix(0.95,0.32,-0.22,0.64,2.3,-6.52)"
       gradientUnits="userSpaceOnUse">
      <stop
         offset="0.34"
         stop-color="#9c8100"
         id="stop130729" />
      <stop
         offset="1"
         stop-color="#fce94f"
         id="stop130731" />
    </radialGradient>
    <linearGradient
       id="linear-gradient-3"
       x1="25.35"
       y1="4.39"
       x2="25.69"
       y2="1.6"
       gradientUnits="userSpaceOnUse">
      <stop
         offset="0.05"
         stop-color="#fff"
         stop-opacity="0"
         id="stop130734" />
      <stop
         offset="0.69"
         stop-color="snow"
         id="stop130736" />
    </linearGradient>
    <radialGradient
       id="radial-gradient-3"
       cx="24.5"
       cy="6.68"
       r="3.86"
       gradientTransform="matrix(0.94529106,0.32622817,-0.21204831,0.61443919,2.76,-5.43)"
       gradientUnits="userSpaceOnUse">
      <stop
         offset="0.26"
         stop-color="#5c3566"
         id="stop130739" />
      <stop
         offset="1"
         stop-color="#ad7fa8"
         id="stop130741" />
    </radialGradient>
    <linearGradient
       id="linear-gradient-4"
       x1="24.61"
       y1="5.51"
       x2="24.3"
       y2="2.89"
       xlink:href="#linear-gradient-3" />
    <radialGradient
       id="radial-gradient-4"
       cx="23.58"
       cy="9.33"
       r="4.27"
       gradientTransform="matrix(0.94,0.33,-0.22,0.63,3.4,-4.36)"
       gradientUnits="userSpaceOnUse">
      <stop
         offset="0.25"
         stop-color="#4a7400"
         id="stop130745" />
      <stop
         offset="1"
         stop-color="#8ae234"
         id="stop130747" />
    </radialGradient>
    <linearGradient
       id="linear-gradient-5"
       x1="23.95"
       y1="8.8"
       x2="22.9"
       y2="3.8"
       xlink:href="#linear-gradient-3" />
    <linearGradient
       id="linear-gradient-6"
       x1="32.81"
       y1="16.97"
       x2="34.25"
       y2="13.23"
       gradientUnits="userSpaceOnUse">
      <stop
         offset="0"
         stop-color="#e9b96e"
         id="stop130751" />
      <stop
         offset="1"
         stop-color="#c17d11"
         id="stop130753" />
    </linearGradient>
    <linearGradient
       id="linear-gradient-7"
       x1="37.09"
       y1="20.34"
       x2="31.7"
       y2="10.95"
       gradientUnits="userSpaceOnUse">
      <stop
         offset="0"
         stop-color="#fff"
         stop-opacity="0"
         id="stop130756" />
      <stop
         offset="1"
         stop-color="snow"
         id="stop130758" />
    </linearGradient>
    <linearGradient
       id="linear-gradient-8"
       x1="14.95"
       y1="17.95"
       x2="14.03"
       y2="13.47"
       xlink:href="#linear-gradient-6" />
    <linearGradient
       id="linear-gradient-9"
       x1="9.85"
       y1="18.15"
       x2="15.28"
       y2="13.67"
       xlink:href="#linear-gradient-7" />
    <linearGradient
       id="linear-gradient-10"
       x1="-41.64"
       y1="404.66"
       x2="-41.43"
       y2="420.8"
       gradientTransform="matrix(0.87,-0.5,0.5,0.87,-148.84,-358.56)"
       gradientUnits="userSpaceOnUse">
      <stop
         offset="0"
         stop-color="#00255d"
         stop-opacity="0"
         id="stop130763" />
      <stop
         offset="0.41"
         stop-color="#002553"
         stop-opacity="0.41"
         id="stop130765" />
      <stop
         offset="1"
         stop-color="#002545"
         id="stop130767" />
    </linearGradient>
    <linearGradient
       id="linear-gradient-11"
       x1="-41.59"
       y1="411.49"
       x2="-41.59"
       y2="395.05"
       gradientTransform="matrix(0.87,-0.5,0.5,0.87,-148.84,-358.56)"
       xlink:href="#linear-gradient-3" />
    <linearGradient
       id="linear-gradient-12"
       x1="26.21"
       y1="12.34"
       x2="27.19"
       y2="19.47"
       xlink:href="#linear-gradient-6" />
    <linearGradient
       id="linear-gradient-13"
       x1="28.43"
       y1="17.74"
       x2="27.5"
       y2="27.37"
       gradientUnits="userSpaceOnUse">
      <stop
         offset="0"
         stop-color="#eec88d"
         id="stop130772" />
      <stop
         offset="1"
         stop-color="#c17d11"
         id="stop130774" />
    </linearGradient>
    <linearGradient
       id="linear-gradient-14"
       x1="22.95"
       y1="24.79"
       x2="25.06"
       y2="21.88"
       gradientUnits="userSpaceOnUse">
      <stop
         offset="0"
         stop-color="#8f5902"
         id="stop130777" />
      <stop
         offset="1"
         stop-color="#915d09"
         stop-opacity="0"
         id="stop130779" />
    </linearGradient>
    <linearGradient
       id="linear-gradient-15"
       x1="21.36"
       y1="13.49"
       x2="22.34"
       y2="20.62"
       xlink:href="#linear-gradient-6" />
    <linearGradient
       id="linear-gradient-16"
       x1="19.71"
       y1="24.56"
       x2="22.94"
       y2="20.75"
       gradientUnits="userSpaceOnUse">
      <stop
         offset="0"
         stop-color="#8f5902"
         id="stop130783" />
      <stop
         offset="1"
         stop-color="#c17d11"
         stop-opacity="0"
         id="stop130785" />
    </linearGradient>
    <linearGradient
       id="linear-gradient-17"
       x1="22.27"
       y1="18.12"
       x2="21.41"
       y2="24.42"
       gradientUnits="userSpaceOnUse">
      <stop
         offset="0"
         stop-color="#edc78b"
         id="stop130788" />
      <stop
         offset="1"
         stop-color="#e9b96e"
         stop-opacity="0"
         id="stop130790" />
    </linearGradient>
    <linearGradient
       id="linear-gradient-18"
       x1="25.76"
       y1="41.59"
       x2="34.16"
       y2="22.72"
       xlink:href="#linear-gradient-6" />
    <linearGradient
       id="linear-gradient-19"
       x1="11.12"
       y1="33.1"
       x2="14.93"
       y2="26.41"
       gradientTransform="matrix(-1,0,0,1,48,0)"
       xlink:href="#linear-gradient" />
    <linearGradient
       id="linear-gradient-20"
       x1="9.9"
       y1="36.12"
       x2="24.88"
       y2="24"
       xlink:href="#linear-gradient" />
    <linearGradient
       id="linear-gradient-21"
       x1="22.74"
       y1="40.96"
       x2="29.45"
       y2="2.32"
       xlink:href="#linear-gradient-7" />
    <linearGradient
       id="linear-gradient-22"
       x1="7.63"
       y1="40.7"
       x2="14.39"
       y2="27.53"
       xlink:href="#linear-gradient" />
    <linearGradient
       id="linear-gradient-23"
       x1="19.28"
       y1="22.86"
       x2="-5.66"
       y2="31.14"
       xlink:href="#linear-gradient-13" />
    <linearGradient
       id="linear-gradient-24"
       x1="13.62"
       y1="29.85"
       x2="20.89"
       y2="6.01"
       xlink:href="#linear-gradient-7" />
    <linearGradient
       id="linear-gradient-25"
       x1="33.42"
       y1="24.47"
       x2="30.29"
       y2="20.64"
       gradientTransform="matrix(-1,0,0,1,48,0)"
       xlink:href="#linear-gradient-7" />
    <linearGradient
       id="linear-gradient-27"
       x1="19.28"
       y1="22.86"
       x2="-5.66"
       y2="31.14"
       gradientTransform="matrix(-1,0,0,1,48,0)"
       xlink:href="#linear-gradient-13" />
    <linearGradient
       id="linear-gradient-28"
       x1="36.43"
       y1="29.34"
       x2="21.67"
       y2="7.49"
       xlink:href="#linear-gradient-7" />
    <linearGradient
       id="linear-gradient-29"
       x1="33.42"
       y1="24.47"
       x2="30.29"
       y2="20.64"
       xlink:href="#linear-gradient-7" />
    <linearGradient
       id="linear-gradient-31"
       x1="35.62"
       y1="21.85"
       x2="37.64"
       y2="28.78"
       xlink:href="#linear-gradient-14" />
    <linearGradient
       id="linear-gradient-32"
       x1="37.62"
       y1="17.49"
       x2="34.5"
       y2="21.08"
       xlink:href="#linear-gradient-6" />
    <linearGradient
       id="linear-gradient-33"
       x1="28.96"
       y1="15.12"
       x2="27.54"
       y2="23.43"
       gradientTransform="matrix(0.99,-0.03,0,0.99,0.47,1.12)"
       xlink:href="#linear-gradient-14" />
    <linearGradient
       id="linear-gradient-34"
       x1="36.19"
       y1="17.95"
       x2="33.69"
       y2="25.87"
       xlink:href="#linear-gradient-17" />
    <linearGradient
       id="linear-gradient-35"
       x1="32.02"
       y1="4.1"
       x2="28.87"
       y2="15.26"
       xlink:href="#linear-gradient-6" />
    <linearGradient
       id="linear-gradient-36"
       x1="23.49"
       y1="15.08"
       x2="25.03"
       y2="14.62"
       xlink:href="#linear-gradient-14" />
    <linearGradient
       id="linear-gradient-37"
       x1="23.88"
       y1="15.19"
       x2="25.42"
       y2="14.73"
       gradientTransform="matrix(-0.85,-0.52,-0.52,0.85,61.85,17.45)"
       xlink:href="#linear-gradient-14" />
    <linearGradient
       id="linear-gradient-38"
       x1="30.98"
       y1="8.73"
       x2="29.06"
       y2="14.33"
       xlink:href="#linear-gradient-17" />
    <linearGradient
       id="linear-gradient-39"
       x1="26.57"
       y1="5.25"
       x2="26.01"
       y2="8.24"
       xlink:href="#linear-gradient-6" />
    <linearGradient
       id="linear-gradient-40"
       x1="26.47"
       y1="5.95"
       x2="25.75"
       y2="9.43"
       xlink:href="#linear-gradient-17" />
    <linearGradient
       id="linear-gradient-41"
       x1="35.33"
       y1="7.19"
       x2="35.06"
       y2="11.98"
       xlink:href="#linear-gradient-6" />
    <linearGradient
       id="linear-gradient-42"
       x1="35.36"
       y1="8.63"
       x2="34.7"
       y2="12.83"
       xlink:href="#linear-gradient-17" />
    <linearGradient
       id="linear-gradient-43"
       x1="29.47"
       y1="14.26"
       x2="26.81"
       y2="19.58"
       xlink:href="#linear-gradient-13" />
    <linearGradient
       id="linear-gradient-44"
       x1="29.36"
       y1="14.41"
       x2="28.58"
       y2="16.07"
       gradientUnits="userSpaceOnUse">
      <stop
         offset="0"
         stop-color="#f5ddbb"
         id="stop130817" />
      <stop
         offset="1"
         stop-color="#f3d7b0"
         stop-opacity="0"
         id="stop130819" />
    </linearGradient>
    <linearGradient
       inkscape:collect="always"
       xlink:href="#linear-gradient"
       id="linearGradient130992"
       gradientUnits="userSpaceOnUse"
       x1="24"
       y1="23.08"
       x2="37.64"
       y2="23.08" />
    <linearGradient
       inkscape:collect="always"
       xlink:href="#linear-gradient-3"
       id="linearGradient130994"
       gradientUnits="userSpaceOnUse"
       x1="25.35"
       y1="4.39"
       x2="25.69"
       y2="1.6" />
    <linearGradient
       inkscape:collect="always"
       xlink:href="#linear-gradient-6"
       id="linearGradient130996"
       gradientUnits="userSpaceOnUse"
       x1="32.81"
       y1="16.97"
       x2="34.25"
       y2="13.23" />
    <linearGradient
       inkscape:collect="always"
       xlink:href="#linear-gradient-7"
       id="linearGradient130998"
       gradientUnits="userSpaceOnUse"
       x1="37.09"
       y1="20.34"
       x2="31.7"
       y2="10.95" />
    <linearGradient
       inkscape:collect="always"
       xlink:href="#linear-gradient-13"
       id="linearGradient131000"
       gradientUnits="userSpaceOnUse"
       x1="28.43"
       y1="17.74"
       x2="27.5"
       y2="27.37" />
    <linearGradient
       inkscape:collect="always"
       xlink:href="#linear-gradient-14"
       id="linearGradient131002"
       gradientUnits="userSpaceOnUse"
       x1="22.95"
       y1="24.79"
       x2="25.06"
       y2="21.88" />
    <linearGradient
       inkscape:collect="always"
       xlink:href="#linear-gradient-17"
       id="linearGradient131004"
       gradientUnits="userSpaceOnUse"
       x1="22.27"
       y1="18.12"
       x2="21.41"
       y2="24.42" />
    <linearGradient
       inkscape:collect="always"
       xlink:href="#linear-gradient-7"
       id="linearGradient131006"
       gradientTransform="matrix(-1,0,0,1,48,0)"
       x1="33.42"
       y1="24.47"
       x2="30.29"
       y2="20.64" />
    <linearGradient
       inkscape:collect="always"
       xlink:href="#linear-gradient-7"
       id="linearGradient131008"
       x1="33.42"
       y1="24.47"
       x2="30.29"
       y2="20.64" />
  </defs>
  <title
     id="title130824">2-Asset_Library</title>
  <g
     id="shadow"
     transform="matrix(1.0460303,0,0,1,-1.0728553,1.9760956)"
     style="isolation:isolate;stroke-width:0.97775">
    <ellipse
       class="cls-2"
       cx="24"
       cy="37.439999"
       rx="22.85"
       ry="8.6300001"
       id="ellipse130826"
       style="fill:url(#radial-gradient);stroke-width:0.97775" />
  </g>
  <g
     id="ART"
     transform="matrix(1.1206426,0,0,1.1205761,-2.9666984,-2.1030685)"
     style="isolation:isolate;stroke-width:0.892371">
    <polygon
       class="cls-4"
       points="24,28.39 37.64,35.56 37.64,17.72 24,10.55 "
       id="polygon130829"
       style="stroke-width:0.892371" />
    <polygon
       class="cls-5"
       points="24,28.41 37.64,35.58 37.64,17.74 24,10.57 "
       id="polygon130831"
       style="fill:url(#linearGradient130992);stroke-width:0.892371" />
    <polygon
       class="cls-6"
       points="24,28.39 10.36,35.56 10.36,17.72 24,10.55 "
       id="polygon130833"
       style="fill:url(#linear-gradient-2);stroke-width:0.892371" />
    <path
       class="cls-7"
       d="M 28.22,5.35 C 28.6,4.27 27.59,2.93 25.97,2.35 24.35,1.77 22.74,2.21 22.36,3.3 c -0.38,1.09 0.08,2.41 2.2,3.14 2.12,0.73 3.29,0 3.66,-1.09 z"
       id="path130835"
       style="fill:url(#radial-gradient-2);stroke-width:0.892371" />
    <path
       class="cls-8"
       d="m 27.81,4.29 a 3.63,3.63 0 0 0 -2,-1.51 3.38,3.38 0 0 0 -2.69,0.06 c -0.22,0.12 -0.47,0.4 -0.37,0.6 0.1,0.2 0.31,0.06 0.44,0 a 3.58,3.58 0 0 1 2.44,-0.13 3.49,3.49 0 0 1 2.07,1.38 3.05,3.05 0 0 1 0.13,0.32 c 0,0.18 0.22,0.19 0.14,-0.23 A 1.41,1.41 0 0 0 27.81,4.29 Z"
       id="path130837"
       style="fill:url(#linearGradient130994);stroke-width:0.892371" />
    <path
       class="cls-9"
       d="M 28.22,5.35 C 28.6,4.27 27.59,2.93 25.97,2.35 24.35,1.77 22.74,2.21 22.36,3.3 c -0.38,1.09 0.08,2.41 2.2,3.14 2.12,0.73 3.29,0 3.66,-1.09 z"
       id="path130839" />
    <path
       class="cls-10"
       d="M 28.36,7.88 C 28.86,6.45 27.54,4.7 25.42,3.97 23.3,3.24 21.18,3.79 20.68,5.22 c -0.5,1.43 0.11,3.15 2.88,4.11 2.77,0.96 4.31,-0.03 4.8,-1.45 z"
       id="path130841"
       style="fill:url(#radial-gradient-3);stroke-width:0.892371" />
    <path
       class="cls-11"
       d="m 27.88,6.39 a 4.76,4.76 0 0 0 -2.59,-2 4.48,4.48 0 0 0 -3.53,0.07 C 21.48,4.62 21.15,5 21.28,5.25 c 0.13,0.25 0.4,0.08 0.57,0 a 4.7,4.7 0 0 1 3.2,-0.17 4.53,4.53 0 0 1 2.71,1.82 2.67,2.67 0 0 1 0.17,0.41 C 28,7.55 28.21,7.56 28.12,7.01 A 2.27,2.27 0 0 0 27.88,6.39 Z"
       id="path130843"
       style="fill:url(#linear-gradient-4);stroke-width:0.892371" />
    <path
       class="cls-12"
       d="M 28.36,7.88 C 28.86,6.45 27.54,4.7 25.42,3.97 23.3,3.24 21.18,3.79 20.68,5.22 c -0.5,1.43 0.11,3.15 2.88,4.11 2.77,0.96 4.31,-0.03 4.8,-1.45 z"
       id="path130845" />
    <path
       class="cls-13"
       d="M 28.26,10.78 C 28.85,9.06 27.26,6.95 24.69,6.06 22.12,5.17 19.57,5.85 19,7.57 c -0.57,1.72 0.12,3.8 3.48,5 3.36,1.2 5.18,-0.06 5.78,-1.79 z"
       id="path130847"
       style="fill:url(#radial-gradient-4);stroke-width:0.892371" />
    <path
       class="cls-14"
       d="M 27.77,8.92 A 5.77,5.77 0 0 0 24.64,6.54 5.37,5.37 0 0 0 20.37,6.63 c -0.34,0.19 -0.74,0.64 -0.58,0.94 0.16,0.3 0.49,0.1 0.69,0 a 5.67,5.67 0 0 1 3.86,-0.2 5.45,5.45 0 0 1 3.28,2.19 2.89,2.89 0 0 1 0.21,0.5 c 0.09,0.29 0.35,0.3 0.23,-0.36 A 2.48,2.48 0 0 0 27.77,8.92 Z"
       id="path130849"
       style="fill:url(#linear-gradient-5);stroke-width:0.892371" />
    <path
       class="cls-15"
       d="M 28.26,10.78 C 28.85,9.06 27.26,6.95 24.69,6.06 22.12,5.17 19.57,5.85 19,7.57 c -0.57,1.72 0.12,3.8 3.48,5 3.36,1.2 5.18,-0.06 5.78,-1.79 z"
       id="path130851" />
    <polygon
       class="cls-16"
       points="43.5,18.67 29.86,11.5 24,10.37 37.64,17.54 "
       id="polygon130853"
       style="fill:url(#linearGradient130996);stroke-width:0.892371" />
    <polygon
       class="cls-17"
       points="43.5,18.67 29.86,11.5 24,10.37 37.64,17.54 "
       id="polygon130855"
       style="fill:url(#linearGradient130998);stroke-width:0.892371" />
    <polygon
       class="cls-18"
       points="43.5,18.67 29.86,11.5 24,10.37 37.64,17.54 "
       id="polygon130857" />
    <polygon
       class="cls-19"
       points="4.5,18.67 18.14,11.5 24,10.37 10.36,17.54 "
       id="polygon130859"
       style="fill:url(#linear-gradient-8);stroke-width:0.892371" />
    <polygon
       class="cls-20"
       points="4.5,18.67 18.14,11.5 24,10.37 10.36,17.54 "
       id="polygon130861"
       style="fill:url(#linear-gradient-9);stroke-width:0.892371" />
    <polygon
       class="cls-18"
       points="4.5,18.67 18.14,11.5 24,10.37 10.36,17.54 "
       id="polygon130863" />
    <path
       class="cls-21"
       d="m 15.74,9.62 c 2.7,-1.56 6.74,0 8.82,3.6 2.08,3.6 1.44,7.88 -1.29,9.45 A 7.533316,7.533316 0 0 0 15.74,9.62 Z"
       id="path130865"
       style="stroke-width:0.892371" />
    <path
       class="cls-22"
       d="M 14.61,19 C 12.53,15.4 13.03,11.21 15.74,9.65 A 7.533316,7.533316 0 1 0 23.27,22.7 C 20.57,24.23 16.69,22.57 14.61,19 Z"
       id="path130867"
       style="stroke-width:0.892371" />
    <path
       class="cls-23"
       d="M 19.68,16 A 71.82,71.82 0 0 0 15.74,9.58 c -2.74,1.6 -3.21,5.79 -1.13,9.42 2.08,3.63 6,5.26 8.66,3.7 A 69.34,69.34 0 0 0 19.68,16 Z"
       id="path130869"
       style="stroke-width:0.892371" />
    <path
       class="cls-24"
       d="M 24.56,13.22 C 22.48,9.62 18.44,8.06 15.74,9.62 a 71.82,71.82 0 0 1 3.94,6.38 69.34,69.34 0 0 1 3.59,6.63 c 2.73,-1.53 3.37,-5.8 1.29,-9.41 z"
       id="path130871"
       style="stroke-width:0.892371" />
    <circle
       class="cls-25"
       cx="19.5"
       cy="16.139999"
       r="7.5300002"
       id="circle130873"
       style="fill:url(#linear-gradient-10);stroke-width:0.892371" />
    <path
       class="cls-26"
       d="M 17.7,13 A 7.52,7.52 0 0 1 26.78,14.19 7.06,7.06 0 0 0 26,12.38 7.53,7.53 0 1 0 14.16,21.48 7.53,7.53 0 0 1 17.7,13 Z"
       id="path130875"
       style="fill:url(#linear-gradient-11);stroke-width:0.892371" />
    <circle
       class="cls-27"
       cx="19.5"
       cy="16.139999"
       r="7.5300002"
       id="circle130877" />
    <path
       class="cls-28"
       d="m 28.37,17 a 21.9,21.9 0 0 1 4.05,1.23 9,9 0 0 1 1.08,4.37 14.47,14.47 0 0 1 -1.62,5.65 L 27.12,27.7 22.36,27.14 a 14.43,14.43 0 0 1 -0.27,-5.88 9,9 0 0 1 2.06,-4 21.87,21.87 0 0 1 4.22,-0.26"
       id="path130879"
       style="fill:url(#linear-gradient-12);stroke-width:0.892371" />
    <path
       class="cls-29"
       d="m 28.37,17 a 21.9,21.9 0 0 1 4.05,1.23 9,9 0 0 1 1.08,4.37 14.47,14.47 0 0 1 -1.62,5.65 L 27.12,27.7 22.36,27.14 a 14.43,14.43 0 0 1 -0.27,-5.88 9,9 0 0 1 2.06,-4 21.87,21.87 0 0 1 4.22,-0.26"
       id="path130881" />
    <path
       class="cls-30"
       d="m 30.85,26.84 a 7.8,7.8 0 0 0 0.87,-4.12 3.64,3.64 0 0 0 -3.64,-3.4 3.73,3.73 0 0 0 -4,3.22 6,6 0 0 0 0.54,3.86"
       id="path130883"
       style="fill:url(#linearGradient131000);stroke-width:0.892371" />
    <path
       class="cls-31"
       d="m 23.24,20.59 c 0,0.06 0.05,0.12 0.06,0.18 0.01,0.06 -0.09,0.36 0,0.5 0.09,0.14 0.1,0.09 0.13,0.14 0.03,0.05 0,0.24 0,0.36 a 0.36,0.36 0 0 0 0.29,0.34 0.14,0.14 0 0 1 0.09,0 0.11,0.11 0 0 1 0,0.08 0.42,0.42 0 0 0 0.47,0.32 0.37,0.37 0 0 0 0.17,0.38 0.38,0.38 0 0 0 0.42,0 0.47,0.47 0 0 0 0.66,0.11 0.68,0.68 0 0 0 0.89,0 0.27,0.27 0 0 0 0.18,0.19 0.88,0.88 0 0 0 0.28,0 l 0.64,-0.07 a 2.48,2.48 0 0 1 -0.66,0.92 8.51,8.51 0 0 1 -1.41,1.21 2.32,2.32 0 0 1 -0.86,0.36 1.3,1.3 0 0 1 -0.91,-0.13 1.37,1.37 0 0 1 -0.63,-0.95 4.85,4.85 0 0 1 0,-0.76 8.21,8.21 0 0 0 -0.15,-1.4 7.48,7.48 0 0 1 -0.21,-1.37 1.61,1.61 0 0 1 0.19,-0.87 2.69,2.69 0 0 1 0.61,-0.56 0.67,0.67 0 0 0 -0.19,0.3 0.24,0.24 0 0 0 0.08,0.29 0.91,0.91 0 0 0 -0.14,0.43 z"
       id="path130885"
       style="fill:url(#linearGradient131002);stroke-width:0.892371" />
    <path
       class="cls-32"
       d="m 24.43,18.82 c -0.4,1 -1,1.44 -1.12,1.44 -0.12,0 -0.45,0.48 -0.55,0.82 -0.3,1.14 0.33,2.12 0.49,2.8 a 1.62,1.62 0 0 1 -1,1.94 1.7,1.7 0 0 1 -1.28,-0.14 1.79,1.79 0 0 1 -0.83,-1.19 7.11,7.11 0 0 1 1.16,-6.36 4.13,4.13 0 0 1 3.09,-1.26 l 0.28,0.05 a 3.38,3.38 0 0 1 -0.24,1.9 z"
       id="path130887"
       style="fill:url(#linear-gradient-15);stroke-width:0.892371" />
    <path
       class="cls-33"
       d="m 24.43,18.82 c -0.4,1 -1,1.44 -1.12,1.44 -0.12,0 -0.45,0.48 -0.55,0.82 -0.3,1.14 0.33,2.12 0.49,2.8 a 1.62,1.62 0 0 1 -1,1.94 1.7,1.7 0 0 1 -1.28,-0.14 1.79,1.79 0 0 1 -0.83,-1.19 7.11,7.11 0 0 1 1.16,-6.36 4.13,4.13 0 0 1 3.09,-1.26 l 0.28,0.05 a 3.38,3.38 0 0 1 -0.24,1.9 z"
       id="path130889"
       style="fill:url(#linear-gradient-16);stroke-width:0.892371" />
    <path
       class="cls-34"
       d="m 24.36,16.87 -0.15,0.36 a 0.35,0.35 0 0 0 -0.44,0.26 0.5,0.5 0 0 0 -0.57,0.4 0.41,0.41 0 0 0 -0.49,0.36 1.57,1.57 0 0 0 -0.4,0.14 0.41,0.41 0 0 0 -0.21,0.34 0.56,0.56 0 0 0 -0.44,0.64 c -0.24,0.05 -0.39,0.3 -0.5,0.51 l -0.09,0.16 c -0.09,0.18 -0.19,0.41 -0.07,0.58 a 0.57,0.57 0 0 0 -0.19,0.79 0.47,0.47 0 0 0 -0.35,0.48 2,2 0 0 1 0,0.24 c 0,0.25 -0.32,0.47 -0.22,0.71 0,0.08 0.14,0.15 0.15,0.25 0.01,0.1 -0.12,0.27 -0.11,0.41 0.01,0.14 0.13,0.23 0.17,0.36 0.04,0.13 -0.1,0.4 0,0.58 0.1,0.18 0.14,0.13 0.14,0.22 0,0.09 0,0.08 -0.05,0.13 a 0.38,0.38 0 0 0 0.25,0.51 0.54,0.54 0 0 0 0.12,0.38 1.79,1.79 0 0 1 -0.83,-1.19 7.11,7.11 0 0 1 1.16,-6.36 4.13,4.13 0 0 1 3.12,-1.26 z"
       id="path130891"
       style="fill:url(#linearGradient131004);stroke-width:0.892371" />
    <path
       class="cls-29"
       d="m 23.31,20.26 c -0.11,0 -0.45,0.48 -0.55,0.82 -0.3,1.14 0.33,2.12 0.49,2.8 a 1.62,1.62 0 0 1 -1,1.94 1.7,1.7 0 0 1 -1.28,-0.14 1.79,1.79 0 0 1 -0.83,-1.19 7.11,7.11 0 0 1 1.16,-6.36 4.13,4.13 0 0 1 3.09,-1.26 l 0.28,0.05"
       id="path130893" />
    <polygon
       class="cls-35"
       points="37.64,35.56 24,42.73 24,24.89 37.64,17.72 "
       id="polygon130895"
       style="fill:url(#linear-gradient-18);stroke-width:0.892371" />
    <polygon
       class="cls-36"
       points="37.64,17.72 24,24.89 27.84,33.96 37.64,28.8 "
       id="polygon130897"
       style="fill:url(#linear-gradient-19);stroke-width:0.892371" />
    <polygon
       class="cls-37"
       points="10.36,35.56 24,42.73 24,24.89 10.36,17.72 "
       id="polygon130899"
       style="fill:url(#linear-gradient-20);stroke-width:0.892371" />
    <polygon
       class="cls-4"
       points="24.33,42.56 24,42.73 23.66,42.56 23.66,24.89 24.33,24.89 "
       id="polygon130901"
       style="stroke-width:0.892371" />
    <polygon
       class="cls-38"
       points="24.33,42.56 24,42.73 23.66,42.56 23.66,24.89 24.33,24.89 "
       id="polygon130903"
       style="fill:url(#linear-gradient-21);stroke-width:0.892371" />
    <polygon
       class="cls-39"
       points="10.36,17.72 24,24.89 20.16,33.96 10.36,28.8 "
       id="polygon130905"
       style="fill:url(#linear-gradient-22);stroke-width:0.892371" />
    <polygon
       class="cls-29"
       points="24,24.89 37.64,17.72 37.64,35.56 24,42.73 10.36,35.56 10.36,17.72 "
       id="polygon130907" />
    <polygon
       class="cls-40"
       points="5.39,23.88 19.03,31.04 24,24.89 10.36,17.72 "
       id="polygon130909"
       style="fill:url(#linear-gradient-23);stroke-width:0.892371" />
    <path
       class="cls-41"
       d="m 24,24.89 -2.23,2.76 A 10.4,10.4 0 0 1 17,27.41 C 13.41,26.48 13.08,24.54 11.2,22.59 A 4.44,4.44 0 0 0 7.34,21.54 l 3.07,-3.81 z"
       id="path130911"
       style="fill:url(#linear-gradient-24);stroke-width:0.892371" />
    <polygon
       class="cls-42"
       points="10.2,17.91 9.76,18.44 23.41,25.6 23.84,25.07 "
       id="polygon130913"
       style="fill:url(#linearGradient131006);stroke-width:0.892371" />
    <polygon
       class="cls-42"
       points="10.2,17.91 9.76,18.44 23.41,25.6 23.84,25.07 "
       id="polygon130915"
       style="fill:url(#linear-gradient-25);stroke-width:0.892371" />
    <polygon
       class="cls-29"
       points="5.39,23.88 19.03,31.04 24,24.89 10.36,17.72 "
       id="polygon130917" />
    <polygon
       class="cls-43"
       points="42.61,23.88 28.97,31.04 24,24.89 37.64,17.72 "
       id="polygon130919"
       style="fill:url(#linear-gradient-27);stroke-width:0.892371" />
    <path
       class="cls-44"
       d="m 40,20.59 c -1.85,4.62 -5.76,3.54 -9.07,4.67 a 4.8,4.8 0 0 0 -3.42,3.91 L 24,24.89 37.64,17.73 Z"
       id="path130921"
       style="fill:url(#linear-gradient-28);stroke-width:0.892371" />
    <polygon
       class="cls-45"
       points="37.8,17.91 38.24,18.44 24.59,25.6 24.16,25.07 "
       id="polygon130923"
       style="fill:url(#linearGradient131008);stroke-width:0.892371" />
    <polygon
       class="cls-45"
       points="37.8,17.91 38.24,18.44 24.59,25.6 24.16,25.07 "
       id="polygon130925"
       style="fill:url(#linear-gradient-29);stroke-width:0.892371" />
    <polygon
       class="cls-29"
       points="42.61,23.88 28.97,31.04 24,24.89 37.64,17.72 "
       id="polygon130927" />
    <path
       class="cls-46"
       d="m 32.86,20 a 4.41,4.41 0 0 1 1.14,2.11 11.41,11.41 0 0 0 0.87,3.17 2.33,2.33 0 0 0 2.11,1 c 1.12,-0.12 1.6,-1.51 1.39,-2.47 -0.21,-0.96 -3,-3.29 -3,-3.29 l -2.44,-0.8"
       id="path130929"
       style="fill:url(#linear-gradient-31);stroke-width:0.892371" />
    <path
       class="cls-47"
       d="m 31.48,16.66 a 4.87,4.87 0 0 1 3.71,1 8.75,8.75 0 0 1 3.16,5.34 c 0.25,1.33 -0.17,2.21 -1.19,2.39 A 2.11,2.11 0 0 1 35,23.88 8.42,8.42 0 0 0 33.94,21 2.66,2.66 0 0 0 32.52,19.93 c -0.12,0 -0.85,-0.21 -1.18,-1.36 a 2.4,2.4 0 0 1 0.14,-1.91 z"
       id="path130931"
       style="fill:url(#linear-gradient-32);stroke-width:0.892371" />
    <path
       class="cls-48"
       d="m 23.23,17.16 a 0.52,0.52 0 0 1 0.21,0.67 0.61,0.61 0 0 1 0.32,0.77 0.67,0.67 0 0 1 0.52,0.7 c 0,0 0,0.07 0,0.09 0,0.02 0.1,0 0.15,0 0.31,0 0.49,0.3 0.62,0.56 0,0.05 0.05,0.1 0.1,0.11 a 0.19,0.19 0 0 0 0.13,0 0.58,0.58 0 0 1 0.6,0.37 c 0,0 0,0.09 0.06,0.11 0.06,0.02 0.11,0 0.16,0 a 0.56,0.56 0 0 1 0.55,0.19 0.32,0.32 0 0 0 0.1,0.1 0.43,0.43 0 0 0 0.16,0 0.79,0.79 0 0 1 0.62,0.14 c 0.06,0 0.11,0.1 0.19,0.1 a 0.38,0.38 0 0 0 0.18,0 0.69,0.69 0 0 1 0.68,0.21 0.77,0.77 0 0 1 0.95,0 0.66,0.66 0 0 1 0.69,-0.31 c 0.12,0 0.25,0.09 0.37,0 0.12,-0.09 0.32,-0.44 0.58,-0.42 a 0.61,0.61 0 0 0 0.19,0 c 0.11,-0.06 0.12,-0.23 0.21,-0.31 0.09,-0.08 0.23,-0.05 0.31,-0.13 C 31.96,20.03 31.94,20 32,20 c 0.06,0 0.2,-0.15 0.3,-0.22 a 3.23,3.23 0 0 1 0.29,-0.25 c 0.11,-0.07 0.26,-0.07 0.36,-0.15 0.1,-0.08 0.15,-0.2 0.26,-0.25 0.11,-0.05 0.21,0 0.26,-0.13 a 0.69,0.69 0 0 0 0.05,-0.13 0.33,0.33 0 0 1 0.19,-0.23 c 0.11,-0.05 0.06,-0.12 0.09,-0.22 A 0.55,0.55 0 0 1 34,18.1 c 0,0 0,0 0,0 0,0 -0.18,0 -0.26,0.09 a 2.85,2.85 0 0 1 -0.41,0.26 3,3 0 0 1 -0.78,0.21 3.93,3.93 0 0 1 -0.9,0.09 16.64,16.64 0 0 1 -4.93,-0.81 29.76,29.76 0 0 0 -3.14,-1.19"
       id="path130933"
       style="fill:url(#linear-gradient-33);stroke-width:0.892371" />
    <path
       class="cls-49"
       d="m 37,25.1 a 1.42,1.42 0 0 1 -0.91,-0.14 c 0,0 0,0 0,0 a 0.45,0.45 0 0 1 0.11,0 0.36,0.36 0 0 0 0.32,0 0.32,0.32 0 0 1 0.14,-0.08 h 0.14 c 0.25,0 0.27,-0.23 0.31,-0.25 h 0.08 a 0.38,0.38 0 0 0 0.35,-0.17 0.42,0.42 0 0 0 0,-0.38 c 0,0 0,0 0,0 0,0 0,0 0,0 a 0.48,0.48 0 0 0 0.06,-0.69 0.47,0.47 0 0 1 -0.06,-0.09 0.27,0.27 0 0 1 0,-0.13 0.51,0.51 0 0 0 -0.2,-0.53 0.55,0.55 0 0 0 -0.22,-0.66 0.55,0.55 0 0 0 -0.23,-0.7 c 0,0 -0.1,-0.06 -0.12,-0.1 a 0.32,0.32 0 0 1 0,-0.14 0.51,0.51 0 0 0 -0.26,-0.57 0.28,0.28 0 0 1 -0.13,-0.09 0.57,0.57 0 0 1 0,-0.13 0.56,0.56 0 0 0 -0.6,-0.59 A 0.67,0.67 0 0 0 35.16,18.91 0.57,0.57 0 0 0 34.6,18.4 0.3,0.3 0 0 0 34.27,18.15 0.37,0.37 0 0 0 34.19,17.97 0.35,0.35 0 0 0 34.06,17.89 C 33.87,17.81 33.64,17.66 33.44,17.84 L 32.66,17 a 5.61,5.61 0 0 1 2.44,1 8.12,8.12 0 0 1 3,5 c 0.23,1.12 -0.18,1.94 -1.1,2.1 z"
       id="path130935"
       style="fill:url(#linear-gradient-34);stroke-width:0.892371" />
    <path
       class="cls-29"
       d="m 31.48,16.66 a 4.87,4.87 0 0 1 3.71,1 8.75,8.75 0 0 1 3.16,5.34 c 0.25,1.33 -0.17,2.21 -1.19,2.39 A 2.11,2.11 0 0 1 35,23.88 8.42,8.42 0 0 0 33.94,21 2.66,2.66 0 0 0 32.52,19.93"
       id="path130937" />
    <path
       class="cls-50"
       d="M 37.25,8.6 A 2.87,2.87 0 0 0 34.52,7.28 2.33,2.33 0 0 0 32.79,8.44 6,6 0 0 0 31,7.59 5.88,5.88 0 0 0 29,7.41 v 0 a 2.32,2.32 0 0 0 -1,-1.88 2.89,2.89 0 0 0 -3,-0.22 2.93,2.93 0 0 0 -1.62,2.5 1.93,1.93 0 0 0 1.29,2 6,6 0 1 0 10.68,2.86 2,2 0 0 0 2.08,-1 3,3 0 0 0 -0.18,-3.07 z"
       id="path130939" />
    <circle
       class="cls-51"
       cx="29.41"
       cy="13.35"
       r="5.96"
       id="circle130941"
       style="fill:url(#linear-gradient-35);stroke-width:0.892371" />
    <path
       class="cls-52"
       d="m 25.55,17.64 a 0.61,0.61 0 0 1 -0.05,0.18 v 0 a 6,6 0 0 1 -1.84,-6 v 0 a 0.22,0.22 0 0 1 0.09,-0.14 0.21,0.21 0 0 1 0.07,0 c 0.08,0 0.12,0.12 0.09,0.2 -0.03,0.08 -0.12,0.16 -0.11,0.25 0.01,0.09 0.08,0.17 0.08,0.26 a 0.25,0.25 0 0 1 0,0.12 0.57,0.57 0 0 0 0,0.51 l 0.09,0.11 c 0.11,0.17 0,0.41 0.11,0.56 0.11,0.15 0.37,0.09 0.52,0.22 a 0.45,0.45 0 0 1 0.14,0.36 9.28,9.28 0 0 0 0.6,2.56 1.48,1.48 0 0 1 0.21,0.81 z"
       id="path130943"
       style="fill:url(#linear-gradient-36);stroke-width:0.892371" />
    <path
       class="cls-53"
       d="m 30.46,19 a 0.41,0.41 0 0 0 -0.05,0.18 6,6 0 0 0 4.7,-4.14 v 0 a 0.25,0.25 0 0 0 0,-0.17 0.16,0.16 0 0 0 0,-0.08 c -0.07,-0.05 -0.17,0 -0.18,0.13 -0.01,0.13 0,0.19 0,0.26 0,0.07 -0.16,0.1 -0.21,0.18 a 0.42,0.42 0 0 0 0,0.12 0.56,0.56 0 0 1 -0.26,0.44 h -0.13 c -0.18,0.09 -0.21,0.36 -0.39,0.43 -0.18,0.07 -0.36,-0.12 -0.55,-0.1 a 0.47,0.47 0 0 0 -0.31,0.24 9.11,9.11 0 0 1 -1.85,1.87 1.52,1.52 0 0 0 -0.77,0.64 z"
       id="path130945"
       style="fill:url(#linear-gradient-37);stroke-width:0.892371" />
    <path
       class="cls-54"
       d="m 35.2,14.76 c 0,-0.18 -0.06,-0.26 0,-0.39 a 0.41,0.41 0 0 0 -0.09,-0.4 c -0.1,-0.13 0,-0.43 0,-0.57 0,-0.14 -0.19,-0.3 -0.17,-0.39 a 0.55,0.55 0 0 0 0,-0.36 0.62,0.62 0 0 0 -0.25,-0.28 0.41,0.41 0 0 1 -0.12,-0.11 c -0.06,-0.08 0,-0.2 0,-0.31 a 1.2,1.2 0 0 0 -0.13,-0.21 c -0.07,-0.1 0,-0.19 0,-0.31 a 0.44,0.44 0 0 0 -0.16,-0.29 c -0.08,-0.06 -0.17,-0.08 -0.23,-0.17 -0.06,-0.09 0,-0.1 0,-0.16 a 0.55,0.55 0 0 0 -0.41,-0.43 0.37,0.37 0 0 1 -0.18,-0.05 c -0.05,0 -0.07,-0.1 -0.1,-0.16 -0.03,-0.06 -0.25,-0.43 -0.47,-0.42 a 0.38,0.38 0 0 1 -0.15,0 c -0.08,0 -0.11,-0.13 -0.15,-0.2 A 0.43,0.43 0 0 0 32.22,9.33 0.37,0.37 0 0 1 32.04,9.33 0.52,0.52 0 0 1 31.9,9.17 0.46,0.46 0 0 0 31.33,9 c -0.1,0 -0.21,0.07 -0.28,0 A 0.32,0.32 0 0 1 30.91,8.88 0.72,0.72 0 0 0 30.05,8.75 0.41,0.41 0 0 1 29.88,8.8 0.22,0.22 0 0 1 29.7,8.69 a 0.66,0.66 0 0 0 -0.78,0 c -0.05,0 -0.09,0.08 -0.14,0.08 a 0.33,0.33 0 0 1 -0.18,-0.08 0.66,0.66 0 0 0 -0.79,0 0.49,0.49 0 0 1 -0.15,0.1 0.44,0.44 0 0 1 -0.2,0 0.7,0.7 0 0 0 -0.65,0.17 c 0,0 -0.08,0.09 -0.13,0.11 a 0.71,0.71 0 0 1 -0.2,0 0.47,0.47 0 0 0 -0.38,0.19 3.39,3.39 0 0 1 -0.2,0.28 c -0.12,0.1 -0.3,0.1 -0.4,0.2 -0.1,0.1 -0.11,0.17 -0.18,0.24 -0.07,0.07 -0.37,0.1 -0.49,0.24 -0.12,0.14 -0.07,0.18 -0.16,0.23 -0.09,0.05 -0.31,0.08 -0.38,0.28 -0.07,0.2 0,0.19 -0.06,0.28 -0.06,0.09 -0.13,0.11 -0.21,0.17 a 0.7,0.7 0 0 0 -0.26,0.28 6,6 0 0 1 11.44,3.3 z"
       id="path130947"
       style="fill:url(#linear-gradient-38);stroke-width:0.892371" />
    <path
       class="cls-55"
       d="M 27.86,8.25 A 1.08,1.08 0 0 0 28.72,8 1,1 0 0 0 28.92,7.39 2.32,2.32 0 0 0 28,5.53 2.89,2.89 0 0 0 25,5.31 a 2.93,2.93 0 0 0 -1.62,2.5 1.94,1.94 0 0 0 1.3,2 0.84,0.84 0 0 0 1.15,-0.42 1.19,1.19 0 0 1 0.69,-1 1.48,1.48 0 0 1 1.34,-0.14 z"
       id="path130949"
       style="fill:url(#linear-gradient-39);stroke-width:0.892371" />
    <path
       class="cls-56"
       d="M 28.72,8 28.58,8.1 A 0.43,0.43 0 0 0 28.5,7.69 0.48,0.48 0 0 0 28.18,7.05 0.51,0.51 0 0 0 28.11,6.56 0.54,0.54 0 0 0 27.66,6.37 0.61,0.61 0 0 0 27.18,5.81 a 1.3,1.3 0 0 0 -0.77,0.1 1,1 0 0 0 -1,0.11 0.22,0.22 0 0 1 -0.12,0.09 1,1 0 0 1 -0.17,0 A 0.62,0.62 0 0 0 24.58,6.59 0.5,0.5 0 0 0 24.11,6.86 1.2,1.2 0 0 0 24,7.42 0.54,0.54 0 0 0 23.85,8.2 0.61,0.61 0 0 0 24,9 0.51,0.51 0 0 0 24,9.42 1.93,1.93 0 0 1 23.3,7.8 3,3 0 0 1 28,5.53 2.32,2.32 0 0 1 28.91,7.41 1,1 0 0 1 28.72,8 Z"
       id="path130951"
       style="fill:url(#linear-gradient-40);stroke-width:0.892371" />
    <path
       class="cls-57"
       d="m 33.29,9.71 a 1.08,1.08 0 0 1 -0.63,-0.64 1,1 0 0 1 0.13,-0.62 2.29,2.29 0 0 1 1.73,-1.17 2.87,2.87 0 0 1 2.73,1.32 3,3 0 0 1 0.16,3 2,2 0 0 1 -2.11,1 0.86,0.86 0 0 1 -0.79,-0.95 1.18,1.18 0 0 0 -0.07,-1.25 1.44,1.44 0 0 0 -1.15,-0.69 z"
       id="path130953"
       style="fill:url(#linear-gradient-41);stroke-width:0.892371" />
    <path
       class="cls-58"
       d="m 32.66,9.08 0.07,0.15 A 0.43,0.43 0 0 1 33,8.92 0.49,0.49 0 0 1 33.6,8.52 0.52,0.52 0 0 1 33.9,8.13 0.54,0.54 0 0 1 34.39,8.2 0.6,0.6 0 0 1 35.08,7.94 1.33,1.33 0 0 1 35.7,8.42 0.94,0.94 0 0 1 36.47,9 a 0.42,0.42 0 0 0 0.07,0.13 0.45,0.45 0 0 0 0.13,0.11 0.63,0.63 0 0 1 0.23,0.69 0.48,0.48 0 0 1 0.27,0.47 1.1,1.1 0 0 1 -0.19,0.54 0.54,0.54 0 0 1 -0.25,0.75 0.63,0.63 0 0 1 -0.48,0.59 0.48,0.48 0 0 1 -0.26,0.33 1.92,1.92 0 0 0 1.42,-1 2.93,2.93 0 0 0 -0.16,-3 2.86,2.86 0 0 0 -2.73,-1.33 2.29,2.29 0 0 0 -1.73,1.17 1,1 0 0 0 -0.13,0.63 z"
       id="path130955"
       style="fill:url(#linear-gradient-42);stroke-width:0.892371" />
    <path
       class="cls-59"
       d="m 27.86,19.1 a 5.1,5.1 0 0 0 4,-0.48 c 1.35,-0.83 1.87,-2.33 1.31,-3.19 -0.39,-0.6 -1,-0.66 -1.9,-0.55 a 6.68,6.68 0 0 1 -1.56,0.1 L 28.35,14.61 A 6.74,6.74 0 0 1 27,13.75 c -0.68,-0.52 -1.27,-0.8 -1.92,-0.47 -0.91,0.46 -1.21,2 -0.46,3.41 a 5.06,5.06 0 0 0 3.22,2.41 z"
       id="path130957"
       style="fill:url(#linear-gradient-43);stroke-width:0.892371" />
    <path
       class="cls-60"
       d="M 30,16.74 A 1.92,1.92 0 0 1 27.23,16"
       id="path130959" />
    <path
       class="cls-61"
       d="m 27.23,10.42 c 0.29,0 0.66,-0.07 0.66,-0.3 0,-0.23 -0.5,-0.35 -0.77,-0.3 -0.27,0.05 -0.59,0.16 -0.59,0.34 0,0.18 0.33,0.25 0.7,0.26 z"
       id="path130961"
       style="stroke-width:0.892371" />
    <path
       class="cls-61"
       d="m 32.75,11.9 c -0.26,-0.14 -0.54,-0.39 -0.42,-0.59 0.12,-0.2 0.6,-0.05 0.82,0.12 0.22,0.17 0.42,0.43 0.33,0.6 -0.09,0.17 -0.41,0.04 -0.73,-0.13 z"
       id="path130963"
       style="stroke-width:0.892371" />
    <path
       class="cls-62"
       d="m 33.09,17.32 a 0.39,0.39 0 0 0 0,-0.19 c 0.09,-0.09 0.06,-0.24 0,-0.37 a 0.13,0.13 0 0 1 0,-0.06 c 0,-0.06 0.07,-0.1 0.08,-0.17 a 0.35,0.35 0 0 0 0,-0.2 c 0,0 0,0 0,0 v 0 a 0.32,0.32 0 0 0 0,-0.27 0.27,0.27 0 0 0 -0.22,-0.12 0.38,0.38 0 0 0 -0.26,-0.26 0.41,0.41 0 0 0 -0.19,0 0.52,0.52 0 0 0 -0.16,0.06 0.57,0.57 0 0 0 -0.82,0 0.56,0.56 0 0 0 -0.68,0.07 0.48,0.48 0 0 0 -0.63,0.1 0.72,0.72 0 0 0 -0.92,0.07 1,1 0 0 0 -0.79,-0.17 0.59,0.59 0 0 0 -0.63,-0.33 0.47,0.47 0 0 0 -0.4,-0.38 c -0.05,0 -0.11,0 -0.14,0 a 0.22,0.22 0 0 1 -0.05,-0.11 0.52,0.52 0 0 0 -0.54,-0.36 0.44,0.44 0 0 0 -0.55,-0.37 0.47,0.47 0 0 0 -0.54,-0.38 c 0,0 0,0 -0.05,0 v 0 a 0.46,0.46 0 0 0 -0.36,-0.07 0.42,0.42 0 0 0 -0.28,0.24 0.33,0.33 0 0 0 -0.24,0.07 0.29,0.29 0 0 0 -0.08,0.25 0.23,0.23 0 0 0 -0.18,0.29 0.29,0.29 0 0 0 -0.11,0.11 1.77,1.77 0 0 1 0.85,-1.38 c 0.64,-0.33 1.24,-0.06 1.92,0.47 a 6.06,6.06 0 0 0 1.31,0.86 L 29.7,15 a 6.65,6.65 0 0 0 1.56,-0.1 c 0.85,-0.11 1.51,-0.05 1.9,0.55 a 1.91,1.91 0 0 1 -0.07,1.87 z"
       id="path130965"
       style="fill:url(#linear-gradient-44);stroke-width:0.892371" />
    <path
       d="m 28.84,15.51 a 1.87,1.87 0 0 0 1.05,0 c 0.29,-0.1 0.7,-0.25 0.73,-0.57 0.07,-0.6 -0.87,-0.43 -1.47,-0.59 -0.6,-0.16 -1.32,-0.77 -1.57,-0.23 -0.13,0.3 0.14,0.64 0.35,0.86 a 2,2 0 0 0 0.89,0.56 z"
       id="path130967"
       style="stroke-width:0.892371" />
    <path
       class="cls-63"
       d="m 29.08,14.54 a 4.11,4.11 0 0 1 -0.92,-0.42 c -0.12,-0.07 -0.29,-0.1 -0.35,0 -0.06,0.1 0.07,0.32 0.79,0.64 a 3.43,3.43 0 0 0 1.68,0.22 c 0.14,0 0.2,-0.09 0.18,-0.17 -0.02,-0.08 -0.12,-0.13 -0.33,-0.12 a 4.17,4.17 0 0 1 -1.05,-0.15 z"
       id="path130969"
       style="stroke-width:0.892371" />
    <path
       class="cls-64"
       d="m 27.86,8.25 a 2.14,2.14 0 0 0 -0.48,-0.92 1.37,1.37 0 0 0 -1.55,0 1.35,1.35 0 0 0 -0.64,1.34 c 0.08,0.37 0.62,0.72 0.62,0.72 A 1.85,1.85 0 0 1 26.6,8.54 2,2 0 0 1 27.86,8.25 Z"
       id="path130971"
       style="stroke-width:0.892371" />
    <path
       class="cls-64"
       d="m 33.29,9.71 a 2.16,2.16 0 0 1 0.87,-0.56 1.37,1.37 0 0 1 1.37,0.73 1.33,1.33 0 0 1 -0.12,1.48 1.58,1.58 0 0 1 -0.9,0.31 1.79,1.79 0 0 0 -0.25,-1.13 2,2 0 0 0 -0.97,-0.83 z"
       id="path130973"
       style="stroke-width:0.892371" />
    <circle
       cx="27.030001"
       cy="12.37"
       r="0.74000001"
       id="circle130975"
       style="stroke-width:0.892371" />
    <circle
       class="cls-65"
       cx="26.92"
       cy="12.1"
       r="0.27000001"
       id="circle130977"
       style="stroke-width:0.892371" />
    <circle
       cx="31.959999"
       cy="13.69"
       r="0.74000001"
       id="circle130979"
       style="stroke-width:0.892371" />
    <circle
       class="cls-65"
       cx="31.85"
       cy="13.42"
       r="0.27000001"
       id="circle130981"
       style="stroke-width:0.892371" />
  </g>
  <metadata
     id="metadata130990">
    <rdf:RDF>
      <cc:Work
         rdf:about="">
        <dc:title>2-Asset_Library</dc:title>
      </cc:Work>
    </rdf:RDF>
  </metadata>
</svg>
