<?xml version="1.0" encoding="UTF-8"?><svg xmlns="http://www.w3.org/2000/svg" xmlns:xlink="http://www.w3.org/1999/xlink" viewBox="0 0 48 48"><defs><radialGradient id="radial-gradient" cx="166.77" cy="-46.42" fx="166.77" fy="-46.42" r="8.81" gradientTransform="translate(-19.99 -363.4) rotate(90) scale(2.4 .96)" gradientUnits="userSpaceOnUse"><stop offset=".47" stop-color="#2c2c2c" stop-opacity=".5"/><stop offset=".99" stop-color="#2c2c2c" stop-opacity="0"/></radialGradient><linearGradient id="linear-gradient" x1="26.34" y1="23.7" x2="31.47" y2="13.18" gradientTransform="matrix(1, 0, 0, 1, 0, 0)" gradientUnits="userSpaceOnUse"><stop offset="0" stop-color="#204a87"/><stop offset="1" stop-color="#0f274b"/></linearGradient><linearGradient id="linear-gradient-2" x1="15.33" y1="35.35" x2="21.97" y2="21.43" gradientTransform="matrix(1, 0, 0, 1, 0, 0)" gradientUnits="userSpaceOnUse"><stop offset=".11" stop-color="#fce94f"/><stop offset=".54" stop-color="#edd400"/><stop offset="1" stop-color="#c4a000"/></linearGradient><radialGradient id="radial-gradient-2" cx="14.38" cy="24.23" fx="14.38" fy="24.23" r="1.79" gradientTransform="matrix(1, 0, 0, 1, 0, 0)" gradientUnits="userSpaceOnUse"><stop offset=".11" stop-color="#edd400"/><stop offset="1" stop-color="#ad8c00"/></radialGradient><radialGradient id="radial-gradient-3" cx="20.26" cy="36.11" fx="20.26" fy="36.11" r="1.77" gradientTransform="translate(-3.11 62.3) rotate(-98.57) scale(1.06 .75) skewX(1.4)" gradientUnits="userSpaceOnUse"><stop offset=".31" stop-color="#edd400"/><stop offset="1" stop-color="#ad8c00"/></radialGradient><radialGradient id="radial-gradient-4" cx="17.1" cy="30.7" fx="17.1" fy="30.7" r="2.36" gradientTransform="translate(-5.07 46.33) rotate(-85.6) scale(1 .68)" xlink:href="#radial-gradient-2"/><radialGradient id="radial-gradient-5" cx="21.19" cy="27.11" fx="21.19" fy="27.11" r="2.09" gradientTransform="translate(1.15 46.98) rotate(-85.6) scale(1 .68)" xlink:href="#radial-gradient-2"/><radialGradient id="radial-gradient-6" cx="23.78" cy="33.32" fx="23.78" fy="33.32" r="1.93" gradientTransform="translate(-.64 55.44) rotate(-85.6) scale(1 .68)" xlink:href="#radial-gradient-2"/><linearGradient id="linear-gradient-3" x1="39.64" y1="43.46" x2="33.38" y2="34.12" gradientTransform="matrix(1, 0, 0, 1, 0, 0)" gradientUnits="userSpaceOnUse"><stop offset="0" stop-color="#babdb6"/><stop offset="1" stop-color="#555753"/><stop offset="1" stop-color="#fff8f8"/></linearGradient><linearGradient id="linear-gradient-4" x1="32.38" y1="44.92" x2="25.44" y2="27.04" gradientTransform="matrix(1, 0, 0, 1, 0, 0)" gradientUnits="userSpaceOnUse"><stop offset="0" stop-color="#eeeeec"/><stop offset="1" stop-color="#babdb6"/></linearGradient><linearGradient id="linear-gradient-5" x1="18.34" y1="35.29" x2="33.26" y2="34.66" gradientTransform="matrix(1, 0, 0, 1, 0, 0)" gradientUnits="userSpaceOnUse"><stop offset="0" stop-color="#fff" stop-opacity="0"/><stop offset="1" stop-color="#fff8f8"/></linearGradient><linearGradient id="linear-gradient-6" x1="30.97" y1="41.15" x2="33.17" y2="41.15" xlink:href="#linear-gradient-5"/><linearGradient id="linear-gradient-7" x1="23.39" y1="29.68" x2="27.11" y2="29.68" xlink:href="#linear-gradient-5"/><linearGradient id="linear-gradient-8" x1="32.77" y1="41.81" x2="34.82" y2="33.32" gradientTransform="matrix(1, 0, 0, 1, 0, 0)" gradientUnits="userSpaceOnUse"><stop offset="0" stop-color="#888a85"/><stop offset="1" stop-color="#2e3436"/></linearGradient><linearGradient id="linear-gradient-9" x1="26.55" y1="29.33" x2="33.12" y2="6.58" gradientTransform="matrix(1, 0, 0, 1, 0, 0)" gradientUnits="userSpaceOnUse"><stop offset="0" stop-color="#729fcf"/><stop offset="1" stop-color="#204a87"/></linearGradient><linearGradient id="linear-gradient-10" x1="32.85" y1="28.96" x2="33.35" y2="29.64" gradientTransform="matrix(1, 0, 0, 1, 0, 0)" gradientUnits="userSpaceOnUse"><stop offset="0" stop-color="#fff" stop-opacity="0"/><stop offset="1" stop-color="#c4d7eb"/></linearGradient><linearGradient id="linear-gradient-11" x1="30.96" y1="26.09" x2="32.31" y2="27.7" xlink:href="#linear-gradient-10"/><linearGradient id="linear-gradient-12" x1="29.04" y1="22.82" x2="30.65" y2="25" xlink:href="#linear-gradient-10"/><linearGradient id="linear-gradient-13" x1="26.63" y1="19.29" x2="29.04" y2="22.11" xlink:href="#linear-gradient-10"/><linearGradient id="linear-gradient-14" x1="24.82" y1="15.97" x2="26.51" y2="18.3" xlink:href="#linear-gradient-10"/><linearGradient id="linear-gradient-15" x1="23.14" y1="13.36" x2="24.75" y2="15.11" xlink:href="#linear-gradient-10"/><linearGradient id="linear-gradient-16" x1="28.46" y1="8.76" x2="30.31" y2="17.84" xlink:href="#linear-gradient-5"/><linearGradient id="linear-gradient-17" x1="38.46" y1="34.78" x2="31.85" y2="15.03" xlink:href="#linear-gradient-9"/><linearGradient id="linear-gradient-18" x1="15.26" y1="15.64" x2="11.19" y2="6.09" xlink:href="#linear-gradient-5"/><linearGradient id="linear-gradient-19" x1="20.42" y1="13.84" x2="15.12" y2="34.09" gradientTransform="matrix(1, 0, 0, 1, 0, 0)" gradientUnits="userSpaceOnUse"><stop offset="0" stop-color="#8f5902"/><stop offset="1" stop-color="#e9b96e" stop-opacity="0"/></linearGradient><linearGradient id="linear-gradient-20" x1="24.15" y1="11.08" x2="2.98" y2="25.36" xlink:href="#linear-gradient-19"/><linearGradient id="linear-gradient-21" x1="14.07" y1="23.98" x2="1.49" y2="-4.14" gradientTransform="matrix(1, 0, 0, 1, 0, 0)" gradientUnits="userSpaceOnUse"><stop offset="0" stop-color="#fff" stop-opacity="0"/><stop offset="1" stop-color="#e9b96e"/></linearGradient></defs><g style="isolation:isolate;"><g id="shadow" style="mix-blend-mode:multiply; opacity:.45;"><ellipse cx="24.39" cy="37.08" rx="8.13" ry="20.33" transform="translate(-18.88 46.94) rotate(-69.51)" style="fill:url(#radial-gradient);"/></g><g id="ART"><g><g><polygon points="16.87 30.59 36.43 41.88 36.43 15.53 16.87 4.23 16.87 30.59" style="fill:url(#linear-gradient); stroke:#2e3436; stroke-linecap:round; stroke-linejoin:round; stroke-width:.5px;"/><g><polygon points="23.39 24.94 26.65 23.06 16.87 17.41 13.61 19.29 23.39 24.94" style="fill:#fce94f;"/><polygon points="23.39 24.94 26.65 23.06 16.87 17.41 13.61 19.29 23.39 24.94" style="fill:none; stroke:#c4a000; stroke-linecap:round; stroke-linejoin:round; stroke-width:.7px;"/><path d="M23.39,24.94v13.18l-2.4-1.38c-.44-1.31-1.27-1.63-2.38-1.29l-5-2.98v-6.95c.93-.89,.9-1.84,0-2.84v-3.38l9.78,5.65Z" style="fill:url(#linear-gradient-2);"/><path d="M14.04,22.64c-.15-.07-.3-.08-.43-.06,.79,1.23,.8,2.21,0,2.94,.13,.13,.28,.24,.43,.31,.62,.27,1.13-.23,1.13-1.11s-.5-1.81-1.13-2.08Z" style="fill:url(#radial-gradient-2);"/><path d="M20.04,33.97c-.73-.35-1.32,.29-1.32,1.43,1.16-.51,2.04,.04,2.61,1.68,.02-.13,.03-.26,.03-.4,0-1.14-.59-2.35-1.32-2.7Z" style="fill:url(#radial-gradient-3);"/><path d="M20.99,36.74l2.4,1.38v-13.18l-9.78-5.65v3.38c.9,.94,.9,2.16,0,2.9v6.9l5.16,2.98s.52-.29,1.13-.07,1.05,.75,1.1,1.36Z" style="fill:none; stroke:#c4a000; stroke-linecap:round; stroke-linejoin:round; stroke-width:.7px;"/><ellipse cx="16.48" cy="30.23" rx="1.28" ry="2.1" transform="translate(-8.56 6.6) rotate(-18.06)" style="fill:url(#radial-gradient-4);"/><ellipse cx="20.64" cy="26.69" rx="1.13" ry="1.86" transform="translate(-7.26 7.71) rotate(-18.06)" style="fill:url(#radial-gradient-5);"/><ellipse cx="23.27" cy="32.94" rx="1.04" ry="1.72" transform="translate(-9.07 8.84) rotate(-18.06)" style="fill:url(#radial-gradient-6);"/></g><g><g><polygon points="36.43 41.88 36.43 28.71 33.17 30.59 33.17 43.77 36.43 41.88" style="fill:url(#linear-gradient-3);"/><polygon points="33.17 30.59 33.17 43.77 23.39 38.12 23.39 24.94 33.17 30.59" style="fill:url(#linear-gradient-4);"/><path d="M27.81,31.8c-.22,2.17,1.11,3.74,.17,4.93-.81,1.03-2.78,1.59-3.4,2.08l3.41,1.97c.36-.35,1.14-1.03,1.78-1.17,.87-.19,2.4-1.35,1.68-2.95-.71-1.61-.51-2.74,.12-3.17,.44-.3,1.19-.45,1.59-.52v-2.38l-2.95-1.7c-1.02,.94-2.26,1.37-2.41,2.91Z" style="fill:url(#linear-gradient-5);"/><path d="M33.17,43.77v-5.23c-.75,.57-.71,1.55-.73,2.41-.02,.58-.79,1.16-1.46,1.56l2.2,1.27Z" style="fill:url(#linear-gradient-6);"/><path d="M27.11,27.09l-3.72-2.15v9.47c1.07-.86,2.18-1.73,2.26-3,.09-1.44-1-1.9,1.46-4.32Z" style="fill:url(#linear-gradient-7);"/><path d="M36.43,33.81v-5.1l-1.57,.91c-.02,1.02-.29,2.58-1.69,3.35v5.57c.74-1.23,1.44-1.72,1.63-3.24,.09-.74,.86-1.2,1.63-1.48Z" style="fill:url(#linear-gradient-8);"/></g><polygon points="33.17 30.59 23.39 24.94 23.39 38.12 33.17 43.77 33.17 43.77 36.43 41.88 36.43 28.71 33.17 30.59" style="fill:none; stroke:#555753; stroke-linecap:round; stroke-linejoin:round; stroke-width:.7px;"/></g><g><g><path d="M22.58,12.21c1.18,.61,1.13,1.74,1.02,2,0,0-.38,1.03-.83,1.8-.11,.19-.17,.44-.02,.7s.71,1.14,.83,1.33c.18,.29,.21,.49,.1,.83s-.44,1.16-.73,1.75,.09,.67,.59,1.75c.36,.79,.09,1.29-.09,1.77s-.3,.77-.35,.97c-.07,.27,.16,.46,.37,.5,.81,.16,1.88,.25,1.97,.29,.32,.12,.48,.52,.58,.82,.12,.34,.23,1.07,.7,1.05,.46-.02,.79-.18,1.25-.18,.25,0,.51,0,.73,.13,.33,.18,.47,.57,.63,.91,.23,.49,.35,.77,.9,.74,.19-.01,.6-.01,.79-.03,.28-.02,.57,0,.81,.14,.56,.31,.81,1.15,.89,1.35l2.87-1.96-1.13-12.67-8.84-5.24-3.04,1.24Z" style="fill:#729fcf;"/><path d="M22.58,12.21c1.18,.61,1.13,1.74,1.02,2,0,0-.38,1.03-.83,1.8-.11,.19-.17,.44-.02,.7s.71,1.14,.83,1.33c.18,.29,.21,.49,.1,.83s-.44,1.16-.73,1.75,.09,.67,.59,1.75c.36,.79,.09,1.29-.09,1.77s-.3,.77-.35,.97c-.07,.27,.16,.46,.37,.5,.81,.16,1.88,.25,1.97,.29,.32,.12,.48,.52,.58,.82,.12,.34,.23,1.07,.7,1.05,.46-.02,.79-.18,1.25-.18,.25,0,.51,0,.73,.13,.33,.18,.47,.57,.63,.91,.23,.49,.35,.77,.9,.74,.19-.01,.6-.01,.79-.03,.28-.02,.57,0,.81,.14,.56,.31,.81,1.15,.89,1.35l2.87-1.96-1.13-12.67-8.84-5.24-3.04,1.24Z" style="fill:url(#linear-gradient-9);"/><path d="M34.3,28.89l-.99,.21c-.36,.52-1.23,.58-1.23,.58h0c.39,.38,.58,1,.65,1.17l.89-.77,.69-1.19Z" style="fill:url(#linear-gradient-10);"/><path d="M34.01,25.07l-.67-.12c-1.03,.33-1.22,.84-2.38,1.96s-2.14,.89-2.14,.89h0c.26,.21,.39,.54,.53,.84,.11,.23,.19,.41,.31,.54,.01-.02,.69-.83,1.67-1.11,.99-.29,1.31-.98,1.31-.98l1.05-.7,.33-1.32Z" style="fill:url(#linear-gradient-11);"/><path d="M33.82,20.91l-.45-.53s-2.13,1.03-3.87,3.55c-.94,1.36-3.2,2.05-3.87,2.09h0c.21,.18,.32,.47,.41,.71,.1,.28,.19,.81,.48,.99,.03-.02,2.09-1.68,3.26-2.21,1.18-.54,2.2-1.16,2.92-2.37l.48-.08,.65-2.15Z" style="fill:url(#linear-gradient-12);"/><path d="M32.17,17.99l.72-1.56-1.1-.07c-1.21,.29-2.63,1.97-3.91,3.46-1.28,1.49-4.18,3.07-4.18,3.07h0c.08,.52-.11,.9-.25,1.28-.18,.48-.3,.77-.35,.97-.04,.14,.02,.26,.1,.35,.01-.02,1.38-1.62,3.57-2.42,3.2-1.17,4.66-2.62,5.39-5.07Z" style="fill:url(#linear-gradient-13);"/><path d="M28.88,16.22l.21-1.95-.77,.06s-1.71,.66-2.4,1.82c-.69,1.16-2.18,2.25-2.18,2.25h0c.03,.14,.01,.29-.04,.48-.1,.34-.44,1.16-.73,1.75-.04,.09-.07,.17-.08,.24,.02-.03,.61-1.08,2.26-1.78,1.68-.71,3.32-1.82,3.74-2.87Z" style="fill:url(#linear-gradient-14);"/><path d="M26.12,12.99l-1.18-.69c-1.34,.11-1.32,1.28-1.32,1.28h0c.05,.29,.02,.53-.02,.63,0,0-.38,1.03-.83,1.8-.07,.13-.12,.28-.1,.45,.02-.05,.4-.92,1.17-1.25,.8-.35,1.21-.48,1.69-1.22l.59-1Z" style="fill:url(#linear-gradient-15);"/></g><path d="M22.58,12.21s2.04-.1,2.36,.09,.51,1.32,.59,1.69,.55,.33,.93,.34,1.31-.14,1.6-.11c.12,.01,.32,.05,.45,.37,.18,.44,.23,.93,.28,1.34,.03,.24,.06,.38,.48,.41s1.25-.2,1.63-.23,.77,.02,.9,.25c.24,.43,.25,1.46,.38,1.63l4.26-2.46-9.78-5.65-4.07,2.33Z" style="fill:#abd6f4;"/><g style="opacity:.71;"><path d="M22.58,12.21s2.04-.1,2.36,.09,.51,1.32,.59,1.69,.55,.33,.93,.34,1.31-.14,1.6-.11c.12,.01,.32,.05,.45,.37,.18,.44,.23,.93,.28,1.34,.03,.24,.06,.38,.48,.41s1.25-.2,1.63-.23,.77,.02,.9,.25c.24,.43,.25,1.46,.38,1.63l4.26-2.46-9.78-5.65-4.07,2.33Z" style="fill:url(#linear-gradient-16);"/></g><path d="M32.73,30.84c.62-.74,.61-1.28,.61-1.55,0-.52-.78-1.87-.71-2.35s.64-1.05,.71-1.92-.73-1.41-.64-2.08,.72-2.05,.67-2.66-.24-1.31-.84-1.97c-.14-.15-.35-.33-.35-.33l4.26-2.46v13.18l-3.7,2.14Z" style="fill:url(#linear-gradient-17);"/><path d="M26.65,9.88l-4.07,2.33c1.18,.61,1.13,1.74,1.02,2,0,0-.38,1.03-.83,1.8-.11,.19-.17,.44-.02,.7,.15,.26,.71,1.14,.83,1.33,.18,.29,.21,.49,.1,.83s-.44,1.16-.73,1.75,.09,.67,.59,1.75c.36,.79,.09,1.29-.09,1.77s-.3,.77-.35,.97c-.07,.27,.16,.46,.37,.5,.81,.16,1.88,.25,1.97,.29,.32,.12,.48,.52,.58,.82,.12,.34,.23,1.07,.7,1.05,.46-.02,.79-.18,1.25-.18,.25,0,.51,0,.73,.13,.33,.18,.47,.57,.63,.91,.23,.49,.35,.77,.9,.74,.19-.01,.6-.01,.79-.03,.28-.02,.57,0,.81,.14,.56,.31,.81,1.15,.89,1.35l3.7-2.14V15.53l-9.78-5.65Z" style="fill:none; stroke:#204a87; stroke-linecap:round; stroke-linejoin:round; stroke-width:.7px;"/></g></g><g><g><polygon points="20.13 26.82 20.13 13.65 16.87 15.53 16.87 28.71 20.13 26.82" style="fill:#54300f;"/><polygon points="16.87 15.53 20.13 13.65 10.35 8 7.09 9.88 16.87 15.53" style="fill:#f2bf91;"/></g><polygon points="7.08 23.06 7.08 9.88 16.87 15.53 16.87 28.71 7.08 23.06" style="fill:#d69f69;"/><path d="M7.08,9.88v13.18l2.03,1.17c.07-.13,.13-.27,.16-.45,.08-.49-.07-1-.06-1.5,.02-.66-.08-1.31,.14-1.95,.09-.25,.22-.49,.32-.74,.62-1.64-.13-3.42-.45-5.03-.2-1-.2-2.67-.2-3.57l-1.94-1.12Z" style="fill:#aa6d30;"/><path d="M7.08,23.06l1.28,.74c.05-.16,.1-.32,.13-.53,.08-.57-.09-.87,.09-1.92,.18-1.03,.37-2.02,.64-3.03,.15-.54,.25-1.15,0-1.75-.25-.61-.36-1.23-.49-1.85-.06-.27-.14-.57-.18-.83-.03-.23,0-.44-.01-.65-.01-.71-.09-1.69-.17-2.6l-1.29-.75v13.18Z" style="fill:#d69f69;"/><path d="M7.08,23.06l1.09,.63c.06-.15,.11-.32,.14-.51,.07-.59-.15-1.03,.01-2.12,.09-.62,.15-1.28,.15-1.96,0-.64,.19-1.1,.27-1.68,.09-.68-.2-1.58-.36-2.39-.15-.76-.03-1.35-.04-2.04-.01-.68-.06-1.58-.11-2.44l-1.15-.66v13.18Z" style="fill:#aa6d30;"/><path d="M7.08,23.06l.8,.46c.05-.18,.1-.37,.13-.59,.07-.58-.05-.95,.1-2.02,.15-1.07,.15-2.44-.07-4.08-.22-1.64-.01-2.12-.04-3.85-.01-.73-.04-1.72-.06-2.62l-.85-.49v13.18Z" style="fill:#d69f69;"/><path d="M7.08,23.06l.29,.17c.13-.22,.32-.43,.38-.76,.09-.52-.19-.98,.01-1.92,.21-.94,.3-2.16,0-3.76-.3-1.6,.06-1.93,.02-3.55-.02-.84-.12-2.08-.2-3.07l-.5-.29v13.18Z" style="fill:#aa6d30;"/><g><path d="M16.86,15.53l-4.89-2.82c-.12,1.08-.63,1.97-.88,2.94-.21,.8-.48,1.56-.48,2.52,0,.74,.15,1.57,.34,2.4,.18,.79,.09,1.51,.22,2.29,.21,1.33-.08,1.44,.02,2.14,.02,.16,.07,.33,.12,.51l5.55,3.2V15.53Z" style="fill:#aa6d30;"/><path d="M11.87,14.77c-.01,.54-.6,1.47-.69,1.98-.11,.64-.21,1.18-.07,1.87,.1,.5,.25,1.01,.32,1.52,.07,.5-.07,.95-.05,1.45,.02,.53-.08,.99,0,1.53,.2,1.29,.01,1.36,.1,2.04,.02,.18,.06,.34,.1,.5l5.27,3.04v-2.49c-.03-.19-.04-.36,0-.51v-5.15c-.09-.48-.2-.95-.23-1.44-.02-.43,.16-.73,.1-1.18-.05-.4,.01-.72,.04-1.08,.03-.44,.03-.9-.01-1.38l-4.6-2.66c-.08,.88-.28,1.21-.29,1.96Z" style="fill:#d69f69;"/></g><path d="M16.86,15.53l-4.85-2.8c-.08,.73-.16,1.46-.21,2.21-.04,.63-.09,1.23-.21,1.79-.17,.76-.24,1.22-.11,2.21,.09,.68,.46,1.46,.37,2.03-.09,.56-.25,1.54-.15,2.21,.2,1.32-.07,1.44,.01,2.14,.02,.15,.06,.31,.1,.47l5.05,2.92V15.53Z" style="fill:#aa6d30;"/><polygon points="16.5 17.91 16.49 28.49 16.87 28.71 16.87 15.53 16.53 15.33 16.5 17.91" style="fill:#aa6d30;"/><g><path d="M12.52,15.88c-.03,1.74,.22,2.51,.01,3.94-.21,1.43-.14,2.88,0,4.15s-.05,1.46,.01,2.14c0,.04,.01,.08,.02,.11l3.99,2.31c.02-.19,.05-.37,.06-.57,.03-.45-.04-.96-.06-1.44-.03-.66-.13-1.22-.03-1.8,.19-1.18,.07-2.98-.11-4.39-.06-.51-.06-.68-.09-1.17-.01-.29,0-.57,0-.85,.04-.96,.14-1.9,.04-2.95,0-.05-.01-.09-.02-.14l-3.72-2.15c-.05,.93-.11,1.99-.12,2.79Z" style="fill:#aa6d30;"/><path d="M12.29,20.17c.19,1.13,.3,2.52,.05,3.65-.26,1.16,.28,1.55,.34,2.21,0,.1,.03,.19,.04,.29l3.61,2.08c.03-.43,.06-.93,.04-1.87,0-.43-.14-.84-.06-1.2,.28-1.25,.14-2.91,.06-4.41-.04-.73-.19-1.35-.22-2.08-.02-.49,.12-.88,.06-1.39-.06-.54-.02-1.03-.02-1.53,0-.28-.04-.55-.08-.83l-3.38-1.95c-.12,1.23-1.01,3.69-.44,7.03Z" style="fill:#d69f69;"/></g><path d="M12.88,16.17c.01,.22,.03,.44,.05,.66,.02,.24,.04,.48,.02,.72-.02,.18-.06,.36-.09,.54-.11,.55-.24,1.13-.25,1.69-.01,.52,.13,1.06,.12,1.59-.01,.95,.05,1.9-.03,2.85-.05,.55,.03,1.09,.22,1.68,.07,.21,.15,.43,.22,.66l2.85,1.65c.01-.82,.03-1.69,0-1.98-.04-.56,.46-2.84,.14-4.61-.32-1.77-.19-4.12-.29-4.63-.06-.32-.11-1.31-.19-2.14l-2.59-1.49c-.06,.61-.09,1.23-.17,1.84-.04,.34-.04,.67-.02,1Z" style="fill:#aa6d30;"/><path d="M15.85,21.52c-.17-1-.18-2.01-.25-3.02-.06-.87-.24-1.66-.43-2.51-.36-1.6-.75-1.29-.99-.8-.47,.92-.55,1.87-.71,2.88-.03,.21-.07,.42-.12,.62-.36,1.28-.42,2.77-.26,4.09,.03,.27,.07,.54,.04,.8-.08,.69-.15,1.38-.05,2.11,.05,.32,.15,.66,.24,.97l2.11,1.22c.07-.81,.15-1.72,.13-2.03-.04-.54,.59-2.61,.29-4.32Z" style="fill:#d69f69;"/><path d="M14.72,17.2c-.31,.11-.4,.66-.51,.94-.52,1.33-1.15,2.65-.92,4.13,.15,.95,.39,1.91,.6,2.85,.09,.41,.21,.83,.36,1.25,.07,.21,.17,.42,.25,.62,.02,.05,.18,.45,.17,.46,.11-.27,.14-.61,.2-.93,.04-.19,.08-.38,.12-.57,.1-.41,.2-.82,.3-1.22,.18-.72,.39-1.45,.39-2.31,0-.46-.21-.87-.29-1.32-.1-.58-.14-1.17-.25-1.74-.07-.37-.18-.73-.24-1.1-.06-.35,0-.74-.19-1.06Z" style="fill:#aa6d30;"/><path d="M14.48,26.04c-.09-.6-.64-2.44-.6-3.1,.04-.63-.02-1.26,.04-1.89s.35-1.15,.5-1.75c.02-.06,.03-.12,.08-.17,.29-.27,.36,.55,.37,.64,0,.4-.03,.79-.01,1.2,.02,.66,.04,1.32,.04,1.97,0,.57-.22,1.05-.3,1.6-.03,.24-.01,.5-.02,.75-.01,.24-.12,.51-.09,.75Z" style="fill:#d69f69;"/><path d="M9.4,23.74c-.03,.2-.06,.4-.08,.61l1.81,1.05c-.15-1.74-.06-2.23-.25-3.14-.09-.42-.16-.84-.24-1.25-.05-.28-.1-.56-.15-.84-.03-.18-.12-.61-.33-.24-.31,.57-.35,1.28-.39,1.92-.05,.84-.25,1.18-.37,1.89Z" style="fill:#aa6d30;"/><path d="M10.53,21.82c-.02-.17-.06-.3-.13-.27-.24,.12-.3,.66-.31,.9-.03,.67-.29,1.24-.48,1.79-.02,.07-.03,.16-.04,.25l1.36,.79c.05-.71-.3-1.49-.28-1.82,.03-.53-.04-1.11-.12-1.64Z" style="fill:#d69f69;"/><path d="M9.32,11.17c.05,.25,.09,.5,.14,.74,.11,.58,.22,1.16,.32,1.73,.06,.36,0,.74,.08,1.09,.03,.15,.3,.74,.53,.53,.02-.02,.03-.05,.04-.08,.11-.52,.2-1.01,.36-1.53,.11-.35,.29-.79,.42-1.4l-1.89-1.09Z" style="fill:#aa6d30;"/><path d="M9.87,11.49c0,.43-.04,.81,.16,1.72,.09-.28,.45-.73,.71-1.21l-.88-.51Z" style="fill:#d69f69;"/><path d="M10.04,24c-.04,.05-.07,.13-.1,.2-.04,.14-.06,.3-.08,.45l.72,.42c-.02-.07-.03-.13-.04-.16-.04-.23-.1-.46-.18-.68-.03-.09-.08-.19-.14-.25-.08-.07-.15-.03-.19,.02Z" style="fill:#aa6d30;"/><g><path d="M20.13,21.81c-.02-.2-.04-.39-.07-.59-.22-1.28-.66-2.47-1.1-3.64-.09-.25-.2-.52-.38-.66-.14-.11-.31-.13-.47-.14-.31,0-.61,.03-.91,.13-.11,.03-.22,.08-.32,.14v5.1c.11,.5,.22,1,.28,1.51,.13,.99,.12,2,.09,3.01-.01,.53-.02,1.04,.06,1.53,.01,.08,.04,.15,.05,.23l2.77-1.6v-5.02Z" style="fill:#895931;"/><path d="M16.87,17.71c.04,.12,.07,.24,.11,.35,.06,.18,.13,.37,.14,.56,0,.14-.03,.28-.05,.42-.07,.43-.01,.86,.07,1.28,.26,1.39,.35,2.86,.39,4.29,.03,1.17,.05,2.45,.42,3.47l2.19-1.27V13.65l-3.26,1.88v2.19Z" style="fill:#54300f;"/><path d="M20.13,13.65l-3.05,1.76c0,.07-.02,.13-.03,.2-.06,.8,.32,1.42,.49,2.19,.12,.54-.02,1.25,.09,1.79,.09,.42,.15,.87,.1,1.31-.04,.42,0,.82,0,1.24,.01,.63,.02,1.26,.08,1.89,.12,1.24,.45,2.43,.77,3.61,0,.02,.01,.04,.02,.05l1.51-.87V13.65Z" style="fill:#895931;"/><path d="M20.13,13.65l-2.62,1.52c.04,.87,.21,1.71,.35,2.56,.26,1.66,.37,3.38,.31,5.08-.02,.69-.07,1.39-.03,2.08s.18,1.4,.48,1.93c.14,.23,.3,.43,.47,.61l1.05-.6V13.65Z" style="fill:#54300f;"/><path d="M20.13,14.07c-.1-.09-.2-.18-.3-.25l-1.71,.99c0,.1-.01,.21-.02,.31-.02,.86-.03,1.73,.06,2.59,.08,.78,.23,1.55,.25,2.34,.01,.57-.06,1.11-.06,1.69,0,.66,.09,1.32,.16,1.98,.09,.72,.09,1.37,.33,2.02,.08,.21,.17,.42,.31,.55,.27,.27,.66,.2,.96,.41h0V14.07Z" style="fill:#895931;"/><path d="M20.13,14.67c-.06-.11-.14-.2-.23-.25-.18-.12-.39-.14-.59-.14-.13,0-.26,.01-.36,.12-.07,.07-.12,.18-.16,.29-.13,.37-.16,.8-.19,1.23-.06,.88-.12,1.77-.05,2.64,.03,.39,.08,.78,.08,1.18-.01,.81-.16,1.67,.03,2.47,.12,.53,.44,.92,.57,1.44,.1,.37,.1,.79,.18,1.18,.11,.54,.39,.98,.73,1.22V14.67Z" style="fill:#54300f;"/><path d="M20.13,15.97c-.15-.32-.34-.67-.44-.67-.19,0-.37-.2-.47,.08-.1,.28-.29,1.59-.29,2.31s.16,1.18,0,2.41c-.16,1.22,.34,1.48,.43,1.92,.08,.33,.43,1.38,.77,1.96V15.97Z" style="fill:#895931;"/><path d="M20.13,16.48c-.12-.44-.34-1.13-.61-.98-.39,.22-.27,1.84-.22,2.71s.08,1.67-.02,2.19,.25,.89,.39,1.69c.08,.46,.29,.91,.46,1.22v-6.83Z" style="fill:#54300f;"/></g><polygon points="20.13 26.82 20.13 13.65 16.87 15.53 16.87 28.71 20.13 26.82" style="fill:none;"/><g><path d="M8.38,10.63l1.53,.88c-.38-.37-1.08-1.07-1.13-1.56-.05-.48-.02-.85,0-1.05l-.38,.22-.7,.4c.13,.25,.29,.68,.68,1.1Z" style="fill:#d1944a;"/><path d="M10.72,8.22l-.38-.22-.58,.33c-.08,.44-.14,1.04-.03,1.47,.2,.77,.11,1.15,.63,1.66,.35,.35,.2,.29,.38,.52l1.99,1.15c-.45-.57,0-.72-1.42-1.85-.61-.48-1.12-1.49-.97-2.13,.1-.45,.28-.78,.38-.94Z" style="fill:#d1944a;"/><path d="M11.21,12.26c-.08-.31-.44-.75-.59-.95s-.15-.49-.07-.39,.61,.72,1.07,1.03,.39,.78,.39,.78l-.81-.47" style="fill:#f2bf91;"/><path d="M15.15,13.76c-.79-.85-1.71-1.98-2-2.38-.36-.52-.32-1.41-.13-1.82l-1.25-.72c-.18,.35-.46,1.1,.04,1.73,.29,.37,.62,.71,.94,1.06,.13,.14,.3,.28,.37,.46,.09,.2,.13,.43,.11,.65,0,.11-.03,.23-.08,.32-.02,.03-.1,.28-.1,.28,0,0,1.48,.85,2.59,1.49-.19-.56-.33-.81-.5-1.07Z" style="fill:#d1944a;"/><path d="M16.12,15.09c.02-.31,.08-1-.02-1.38s-.4-.89-.4-.89l.99,1.04,.81,1.29-.64,.37-.75-.43Z" style="fill:#d1944a;"/><path d="M18.08,14.83c-.26-.11-.6-.18-.79-.4-.21-.24-.39-.49-.58-.74-.36-.5-.7-1.01-1.13-1.44-.28-.29-.6-.54-.87-.85-.12-.14-.28-.33-.33-.51-.01-.05,.05-.52,.06-.52l-.63-.37s-.09,.52-.08,.57c.04,.18,.18,.39,.28,.55,.21,.33,.48,.67,.78,.93,.34,.31,.68,.61,.97,.97,.21,.25,.39,.53,.52,.83,.06,.14,.08,.29,.17,.41,.1,.13,.23,.25,.36,.35,.23,.17,.52,.31,.69,.56l.58-.33Z" style="fill:#d1944a;"/><path d="M19.48,13.75c-.56-.22-1.68-.45-2.13-.7-.43-.24-.75-.92-.59-1.34l-.37-.21c-.06,.27-.12,.96,.48,1.44,.76,.62,1.76,.82,2.27,.87,.02,0,.62,.05,.63,.05h0c-.1-.04-.2-.08-.28-.11Z" style="fill:#d1944a;"/><path d="M18.9,12.94c-.08-.05-.16-.1-.25-.15-.09-.04-.19-.08-.28-.13-.07-.04-.14-.09-.21-.14-.17-.11-.37-.19-.55-.29-.03-.02-.32-.15-.32-.18,0,.18,.04,.6,.37,.81,.42,.27,1.14,.41,1.37,.47,.13,.03,.4,.1,.63,.16l.06-.03-.42-.24c-.14-.08-.27-.18-.4-.27Z" style="fill:#d1944a;"/></g><path d="M17.08,15.41s-.03-.3-.19-.48-.38-.68-.2-.67,.72,.88,.81,.9l-.43,.25Z" style="fill:#f2bf91;"/><polygon points="16.87 15.53 20.13 13.65 10.35 8 7.09 9.88 16.87 15.53" style="fill:url(#linear-gradient-18);"/><polygon points="20.13 13.65 16.87 15.53 16.87 28.71 20.13 26.82 20.13 13.65" style="fill:url(#linear-gradient-19); mix-blend-mode:multiply;"/><polygon points="7.08 9.88 16.87 15.53 16.87 28.71 7.08 23.06 7.08 9.88" style="fill:url(#linear-gradient-20); mix-blend-mode:multiply;"/><path d="M7.08,9.88l9.78,5.65c-4.65,.83-8.06,3.15-9.78,7.53V9.88Z" style="fill:url(#linear-gradient-21);"/><polygon points="20.13 26.82 16.87 28.71 7.08 23.06 7.08 9.88 10.35 8 20.13 13.65 20.13 26.82" style="fill:none; stroke:#8f5902; stroke-linecap:round; stroke-linejoin:round; stroke-width:.7px;"/></g></g></g></g></svg>