<?xml version="1.0" encoding="UTF-8" standalone="no"?>
<svg
   viewBox="0 0 48 48"
   version="1.1"
   id="svg4777"
   sodipodi:docname="attach.svg"
   inkscape:version="1.2-dev (7be2d9a5, 2021-09-13)"
   xmlns:inkscape="http://www.inkscape.org/namespaces/inkscape"
   xmlns:sodipodi="http://sodipodi.sourceforge.net/DTD/sodipodi-0.dtd"
   xmlns:xlink="http://www.w3.org/1999/xlink"
   xmlns="http://www.w3.org/2000/svg"
   xmlns:svg="http://www.w3.org/2000/svg">
  <sodipodi:namedview
     id="namedview4779"
     pagecolor="#ffffff"
     bordercolor="#666666"
     borderopacity="1.0"
     inkscape:pageshadow="2"
     inkscape:pageopacity="0.0"
     inkscape:pagecheckerboard="0"
     showgrid="false"
     inkscape:zoom="16.145833"
     inkscape:cx="12.015484"
     inkscape:cy="24"
     inkscape:window-width="2880"
     inkscape:window-height="1557"
     inkscape:window-x="-8"
     inkscape:window-y="-8"
     inkscape:window-maximized="1"
     inkscape:current-layer="svg4777" />
  <defs
     id="defs4707">
    <linearGradient
       inkscape:collect="always"
       id="linearGradient11434">
      <stop
         style="stop-color:#000000;stop-opacity:0.46703297;"
         offset="0"
         id="stop11430" />
      <stop
         style="stop-color:#000000;stop-opacity:0;"
         offset="1"
         id="stop11432" />
    </linearGradient>
    <style
       id="style4632">.cls-1,.cls-11,.cls-12,.cls-19,.cls-22,.cls-4{fill:none;}.cls-2{isolation:isolate;}.cls-3{fill:url(#radial-gradient);}.cls-11,.cls-12,.cls-19,.cls-22,.cls-4{stroke-miterlimit:10;}.cls-12,.cls-4{stroke-width:1.4px;}.cls-4{stroke:url(#linear-gradient);}.cls-5{fill:url(#linear-gradient-2);}.cls-6{fill:url(#linear-gradient-3);}.cls-7{fill:url(#linear-gradient-4);}.cls-8{fill:url(#linear-gradient-5);}.cls-9{fill:url(#linear-gradient-6);}.cls-10{fill:url(#linear-gradient-7);}.cls-11{stroke:#555753;}.cls-11,.cls-22{stroke-width:0.7px;}.cls-12{stroke:url(#linear-gradient-8);}.cls-13{fill:url(#linear-gradient-9);}.cls-14{fill:#eeeeec;}.cls-15{fill:url(#linear-gradient-10);}.cls-16{mix-blend-mode:multiply;}.cls-17{clip-path:url(#clip-path);}.cls-18{opacity:0.38;fill:url(#linear-gradient-11);}.cls-19{stroke:#888a85;stroke-width:0.35px;opacity:0.61;}.cls-20{fill:url(#linear-gradient-13);}.cls-21{fill:url(#linear-gradient-14);}.cls-22{stroke:url(#linear-gradient-15);}.cls-23{fill:url(#linear-gradient-16);}.cls-24{fill:url(#linear-gradient-17);}.cls-25,.cls-26{opacity:0.62;}.cls-25{fill:url(#linear-gradient-18);}.cls-26{fill:url(#linear-gradient-19);}.cls-27{opacity:0.4;fill:url(#linear-gradient-20);}.cls-28{fill:url(#linear-gradient-21);}.cls-29{fill:url(#linear-gradient-22);}.cls-30{fill:url(#linear-gradient-23);}.cls-31{fill:url(#linear-gradient-24);}</style>
    <radialGradient
       id="radial-gradient"
       cx="-140.33"
       cy="119.14"
       r="15.76"
       gradientTransform="matrix(1.27,0,0,0.63,199.97,-39.09)"
       gradientUnits="userSpaceOnUse">
      <stop
         offset="0.28"
         stop-color="#212121"
         stop-opacity="0.4"
         id="stop4634" />
      <stop
         offset="0.45"
         stop-color="#212121"
         stop-opacity="0.27"
         id="stop4636" />
      <stop
         offset="0.94"
         stop-color="#212121"
         stop-opacity="0"
         id="stop4638" />
    </radialGradient>
    <linearGradient
       id="linear-gradient"
       x1="3.34"
       y1="23.39"
       x2="34.6"
       y2="23.39"
       gradientUnits="userSpaceOnUse">
      <stop
         offset="0"
         stop-color="#888a85"
         id="stop4641" />
      <stop
         offset="1"
         stop-color="#555753"
         id="stop4643" />
    </linearGradient>
    <linearGradient
       id="linear-gradient-2"
       x1="19.81"
       y1="14.71"
       x2="25.73"
       y2="27.53"
       gradientUnits="userSpaceOnUse">
      <stop
         offset="0"
         stop-color="#d3d7cf"
         id="stop4646" />
      <stop
         offset="1"
         stop-color="#555753"
         id="stop4648" />
    </linearGradient>
    <linearGradient
       id="linear-gradient-3"
       x1="25.22"
       y1="23.19"
       x2="19.14"
       y2="10.1"
       gradientUnits="userSpaceOnUse">
      <stop
         offset="0"
         stop-color="#888a85"
         id="stop4651" />
      <stop
         offset="0.95"
         stop-color="#f9f9f8"
         id="stop4653" />
    </linearGradient>
    <linearGradient
       id="linear-gradient-4"
       x1="20.95"
       y1="19.31"
       x2="30.08"
       y2="31.94"
       gradientUnits="userSpaceOnUse">
      <stop
         offset="0"
         stop-color="#2e3436"
         stop-opacity="0"
         id="stop4656" />
      <stop
         offset="1"
         stop-color="#2e3436"
         id="stop4658" />
    </linearGradient>
    <linearGradient
       id="linear-gradient-5"
       x1="40.49"
       y1="39.49"
       x2="29.13"
       y2="24.33"
       gradientUnits="userSpaceOnUse">
      <stop
         offset="0"
         stop-color="#babdb6"
         id="stop4661" />
      <stop
         offset="1"
         stop-color="#555753"
         id="stop4663" />
    </linearGradient>
    <linearGradient
       id="linear-gradient-6"
       x1="34.52"
       y1="23.43"
       x2="32.81"
       y2="18.43"
       xlink:href="#linear-gradient-4" />
    <linearGradient
       id="linear-gradient-7"
       x1="26.39"
       y1="25.37"
       x2="29.34"
       y2="34.19"
       xlink:href="#linear-gradient-4" />
    <linearGradient
       id="linear-gradient-8"
       x1="3.34"
       y1="25.4"
       x2="24.79"
       y2="25.4"
       gradientTransform="rotate(21.8,14.073939,25.402076)"
       xlink:href="#linear-gradient" />
    <linearGradient
       id="linear-gradient-9"
       x1="133.23"
       y1="17.28"
       x2="116.23"
       y2="55.73"
       gradientTransform="matrix(-0.93, -0.37, -0.37, 0.93, 143.86, 49.97)"
       gradientUnits="userSpaceOnUse">
      <stop
         offset="0"
         stop-color="#d3d7cf"
         id="stop4669" />
      <stop
         offset="1"
         stop-color="#888a85"
         id="stop4671" />
    </linearGradient>
    <linearGradient
       id="linear-gradient-10"
       x1="17.08"
       y1="32.83"
       x2="12.49"
       y2="21.52"
       gradientTransform="translate(10.44 -3.41) rotate(21.8)"
       gradientUnits="userSpaceOnUse">
      <stop
         offset="0"
         stop-color="#eeeeec"
         id="stop4674" />
      <stop
         offset="1"
         stop-color="#555753"
         id="stop4676" />
    </linearGradient>
    <clipPath
       id="clip-path">
      <ellipse
         class="cls-1"
         cx="14.06"
         cy="25.4"
         rx="4.7"
         ry="6.6"
         transform="translate(-8.43 7.04) rotate(-21.8)"
         id="ellipse4679" />
    </clipPath>
    <linearGradient
       id="linear-gradient-11"
       x1="17.78"
       y1="30.31"
       x2="10.67"
       y2="19.88"
       gradientUnits="userSpaceOnUse">
      <stop
         offset="0"
         stop-color="#babdb6"
         stop-opacity="0"
         id="stop4682" />
      <stop
         offset="1"
         stop-color="#2e3436"
         id="stop4684" />
    </linearGradient>
    <linearGradient
       id="linear-gradient-13"
       x1="12.82"
       y1="22.58"
       x2="10.16"
       y2="11.07"
       xlink:href="#linear-gradient-9" />
    <linearGradient
       id="linear-gradient-14"
       x1="12.7"
       y1="22.15"
       x2="11"
       y2="14.81"
       xlink:href="#linear-gradient-9" />
    <linearGradient
       id="linear-gradient-15"
       x1="8.71"
       y1="25.4"
       x2="19.42"
       y2="25.4"
       gradientTransform="rotate(21.8,14.073939,25.402076)"
       xlink:href="#linear-gradient" />
    <linearGradient
       id="linear-gradient-16"
       x1="13.22"
       y1="24.57"
       x2="18.18"
       y2="36.11"
       xlink:href="#linear-gradient-9" />
    <linearGradient
       id="linear-gradient-17"
       x1="14.92"
       y1="28.59"
       x2="17.59"
       y2="34.26"
       xlink:href="#linear-gradient-9" />
    <linearGradient
       id="linear-gradient-18"
       x1="24.3"
       y1="13.63"
       x2="26.02"
       y2="16.46"
       gradientUnits="userSpaceOnUse">
      <stop
         offset="0"
         stop-color="#babdb6"
         stop-opacity="0"
         id="stop4692" />
      <stop
         offset="1"
         stop-color="#555753"
         id="stop4694" />
    </linearGradient>
    <linearGradient
       id="linear-gradient-19"
       x1="24.75"
       y1="15.44"
       x2="26.42"
       y2="18.16"
       xlink:href="#linear-gradient-18" />
    <linearGradient
       id="linear-gradient-20"
       x1="25.05"
       y1="17.73"
       x2="26.52"
       y2="20.14"
       xlink:href="#linear-gradient-18" />
    <linearGradient
       id="linear-gradient-21"
       x1="38.43"
       y1="18.11"
       x2="44.03"
       y2="34.35"
       xlink:href="#linear-gradient-10" />
    <linearGradient
       id="linear-gradient-22"
       x1="39.24"
       y1="17.03"
       x2="39.24"
       y2="29.38"
       xlink:href="#linear-gradient-10" />
    <linearGradient
       id="linear-gradient-23"
       x1="40.94"
       y1="24.53"
       x2="38.19"
       y2="17.78"
       gradientUnits="userSpaceOnUse">
      <stop
         offset="0.14"
         stop-color="#f9f9f8"
         stop-opacity="0"
         id="stop4701" />
      <stop
         offset="1"
         stop-color="#f9f9f8"
         id="stop4703" />
    </linearGradient>
    <linearGradient
       id="linear-gradient-24"
       x1="30.6"
       y1="19.13"
       x2="30.6"
       y2="19.14"
       xlink:href="#linear-gradient-5" />
    <linearGradient
       inkscape:collect="always"
       xlink:href="#linear-gradient"
       id="linearGradient11250"
       gradientUnits="userSpaceOnUse"
       x1="3.34"
       y1="23.39"
       x2="34.6"
       y2="23.39" />
    <linearGradient
       inkscape:collect="always"
       xlink:href="#linear-gradient-4"
       id="linearGradient11252"
       gradientUnits="userSpaceOnUse"
       x1="20.95"
       y1="19.31"
       x2="30.08"
       y2="31.94" />
    <linearGradient
       inkscape:collect="always"
       xlink:href="#linear-gradient-5"
       id="linearGradient11254"
       gradientUnits="userSpaceOnUse"
       x1="40.49"
       y1="39.49"
       x2="29.13"
       y2="24.33" />
    <linearGradient
       inkscape:collect="always"
       xlink:href="#linear-gradient-9"
       id="linearGradient11256"
       gradientUnits="userSpaceOnUse"
       gradientTransform="matrix(-0.93,-0.37,-0.37,0.93,143.86,49.97)"
       x1="133.23"
       y1="17.28"
       x2="116.23"
       y2="55.73" />
    <linearGradient
       inkscape:collect="always"
       xlink:href="#linear-gradient-10"
       id="linearGradient11258"
       gradientUnits="userSpaceOnUse"
       gradientTransform="rotate(21.8,14.073939,25.402076)"
       x1="17.08"
       y1="32.83"
       x2="12.49"
       y2="21.52" />
    <linearGradient
       inkscape:collect="always"
       xlink:href="#linear-gradient-11"
       id="linearGradient11260"
       gradientUnits="userSpaceOnUse"
       x1="17.78"
       y1="30.31"
       x2="10.67"
       y2="19.88" />
    <linearGradient
       inkscape:collect="always"
       xlink:href="#linear-gradient-11"
       id="linearGradient11262"
       gradientUnits="userSpaceOnUse"
       x1="17.78"
       y1="30.31"
       x2="10.67"
       y2="19.88" />
    <linearGradient
       inkscape:collect="always"
       xlink:href="#linear-gradient-18"
       id="linearGradient11264"
       gradientUnits="userSpaceOnUse"
       x1="24.3"
       y1="13.63"
       x2="26.02"
       y2="16.46" />
    <radialGradient
       inkscape:collect="always"
       xlink:href="#linearGradient11434"
       id="radialGradient11436"
       cx="19.91"
       cy="35.700001"
       fx="19.91"
       fy="35.700001"
       r="19.24"
       gradientTransform="matrix(1,0,0,0.49896052,0,17.88711)"
       gradientUnits="userSpaceOnUse" />
  </defs>
  <g
     id="shadow"
     transform="matrix(1,0.2768426,0,0.72580646,4.3354839,7.0948379)"
     style="isolation:isolate;fill:url(#radialGradient11436);stroke-width:1.17379;fill-opacity:1">
    <ellipse
       class="cls-3"
       cx="19.91"
       cy="35.700001"
       rx="19.24"
       ry="9.6000004"
       id="ellipse4709"
       style="fill:url(#radialGradient11436);stroke-width:1.17379;fill-opacity:1" />
  </g>
  <g
     id="ART"
     transform="matrix(1.1103294,0,0,1.1116164,-3.6517009,-3.4651662)"
     style="isolation:isolate;stroke-width:0.900112">
    <path
       class="cls-4"
       d="m 9.31,13.06 9.57,-3.9 a 7.3,7.3 0 0 1 5,-0.18 c 5.54,1.64 10,8.52 10,15.37 0,4.75 -2.16,8.24 -5.32,9.4 L 19,37.64 v 0 a 7.39,7.39 0 0 1 -5,0.17 C 8.53,36.17 4,29.29 4,22.44 4,17.71 6.17,14.23 9.31,13.06 Z"
       id="path4712"
       style="stroke:url(#linearGradient11250)" />
    <path
       class="cls-5"
       d="m 9.08,13.16 9.8,-4 a 7.3,7.3 0 0 1 5,-0.18 c 5.54,1.64 10,8.52 10,15.37 0,4.75 -2.16,8.24 -5.32,9.4 L 19,37.64 Z"
       id="path4714"
       style="fill:url(#linear-gradient-2);stroke-width:0.900112" />
    <path
       class="cls-6"
       d="m 23.59,9.93 a 6.46,6.46 0 0 0 -4.33,0.14 l -6.55,2.68 6,3 c 0,0 0,-2.07 4.35,-3.32 A 9.13,9.13 0 0 1 28,12.61 10.85,10.85 0 0 0 23.59,9.93 Z"
       id="path4716"
       style="fill:url(#linear-gradient-3);stroke-width:0.900112" />
    <path
       class="cls-7"
       d="m 32.91,24.35 a 17.05,17.05 0 0 0 -3.49,-10.12 8.18,8.18 0 0 1 0.68,3.58 7.3,7.3 0 0 1 -5,7.31 l -6.47,1.62 2,9.06 3.37,-1.24 4.25,-1.73 c 2.87,-1.06 4.66,-4.31 4.66,-8.48 z"
       id="path4718"
       style="fill:url(#linearGradient11252);stroke-width:0.900112" />
    <path
       class="cls-8"
       d="m 41,14.9 a 6.05,6.05 0 0 0 -3.82,4.35 81.65,81.65 0 0 1 -3.36,9.25 l -0.08,0.21 A 7.83,7.83 0 0 1 29.2,33.5 l -9.28,3.79 A 7.91,7.91 0 0 0 23.79,33 v 0 a 89.3,89.3 0 0 0 3.57,-9.78 6.06,6.06 0 0 1 3.83,-4.36 12.7,12.7 0 0 1 3.46,-0.6 3.68,3.68 0 0 0 3,-1.62 A 7.1,7.1 0 0 1 41,14.9 Z"
       id="path4720"
       style="fill:url(#linearGradient11254);stroke-width:0.900112" />
    <path
       class="cls-9"
       d="m 40.92,15.15 a 6,6 0 0 0 -3.78,4.23 v 0 a 6.9,6.9 0 0 1 -0.4,2.16 h -0.23 a 8.55,8.55 0 0 0 -4.54,0.36 12.91,12.91 0 0 0 -5.62,4.66 c 0.36,-1 0.67,-2 0.94,-3 a 6.08,6.08 0 0 1 3.83,-4.37 12.87,12.87 0 0 1 3.46,-0.59 3.27,3.27 0 0 0 2.15,-0.75 6.14,6.14 0 0 0 0.84,-0.88 7.27,7.27 0 0 1 3.35,-1.82 z"
       id="path4722"
       style="fill:url(#linear-gradient-6);stroke-width:0.900112" />
    <path
       class="cls-10"
       d="m 29.53,30.2 c -1.18,0.54 -2.85,1.19 -8,3.11 l -1,1.74 0.17,0.75 3.09,-1.18 4.39,-1.79 a 6.7,6.7 0 0 0 2.88,-2.46 26.2,26.2 0 0 0 3.3,-8.51 c -1.76,3.78 -3.78,7.84 -4.83,8.34 z"
       id="path4724"
       style="fill:url(#linear-gradient-7);stroke-width:0.900112" />
    <path
       class="cls-11"
       d="m 40.9,15.15 a 6.05,6.05 0 0 0 -3.82,4.35 82.35,82.35 0 0 1 -3.36,9.25 l -0.08,0.21 a 7.81,7.81 0 0 1 -4.54,4.78 l -9.28,3.8 a 7.86,7.86 0 0 0 3.88,-4.26 v 0 a 88.49,88.49 0 0 0 3.57,-9.77 6,6 0 0 1 3.83,-4.36 12.71,12.71 0 0 1 3.47,-0.6 3.65,3.65 0 0 0 3,-1.63 7.18,7.18 0 0 1 3.33,-1.77 z"
       id="path4726" />
    <ellipse
       class="cls-12"
       cx="14.06"
       cy="25.4"
       rx="9.4099998"
       ry="13.22"
       transform="rotate(-21.8,14.064101,25.408185)"
       id="ellipse4728"
       style="stroke:url(#linear-gradient-8)" />
    <ellipse
       class="cls-13"
       cx="14.06"
       cy="25.4"
       rx="9.4099998"
       ry="13.22"
       transform="rotate(-21.8,14.064101,25.408185)"
       id="ellipse4730"
       style="fill:url(#linearGradient11256);stroke-width:0.900112" />
    <ellipse
       class="cls-14"
       cx="14.06"
       cy="25.4"
       rx="4.6999998"
       ry="6.5999999"
       transform="rotate(-21.8,14.064101,25.408185)"
       id="ellipse4732"
       style="stroke-width:0.900112" />
    <ellipse
       class="cls-15"
       cx="14.06"
       cy="25.4"
       rx="4.6999998"
       ry="6.5999999"
       transform="rotate(-21.8,14.064101,25.408185)"
       id="ellipse4734"
       style="fill:url(#linearGradient11258);stroke-width:0.900112" />
    <g
       class="cls-16"
       id="g4746"
       style="stroke-width:0.900112">
      <g
         class="cls-17"
         clip-path="url(#clip-path)"
         id="g4744"
         style="stroke-width:0.900112">
        <path
           class="cls-18"
           d="m 10.88,29.24 c 0,0 -0.6,-3.3 1.23,-5.6 1.83,-2.3 5.5,-2.32 5.5,-2.32 0,0 2.05,-6.76 -3.55,-5.52 -5.6,1.24 -7.36,9.1 -7.36,9.1 0,0 1.88,4.85 1.85,5.1"
           id="path4736"
           style="fill:url(#linearGradient11260);stroke-width:0.900112" />
        <path
           class="cls-18"
           d="m 10.88,29.24 c 0,0 -0.6,-3.3 1.23,-5.6 1.83,-2.3 5.5,-2.32 5.5,-2.32 0,0 2.05,-6.76 -3.55,-5.52 -5.6,1.24 -7.36,9.1 -7.36,9.1 0,0 1.88,4.85 1.85,5.1"
           id="path4738"
           style="fill:url(#linearGradient11262);stroke-width:0.900112" />
        <path
           class="cls-19"
           d="m 10.35,29.58 c 0,0 -2.11,-8.41 7.65,-11.41"
           id="path4740" />
        <path
           class="cls-19"
           d="m 17.18,33.89 c 0,0 -2.06,-6.84 4.07,-10.25"
           id="path4742" />
      </g>
    </g>
    <path
       class="cls-20"
       d="m 19.16,18.45 c 0,0 -3.45,-5.57 -8.36,-4.55 -5.85,1.22 -5.44,8 -5.44,8 0,0 1,-5.48 5.28,-6.43 5.01,-1.18 8.52,2.98 8.52,2.98 z"
       id="path4748"
       style="fill:url(#linear-gradient-13);stroke-width:0.900112" />
    <path
       class="cls-21"
       d="m 17.45,19 a 5.75,5.75 0 0 0 -6.2,-2.37 5.52,5.52 0 0 0 -4.08,5.21 c 0,0 0.83,-3.3 3.94,-4.14 a 6.44,6.44 0 0 1 6.34,1.3 z"
       id="path4750"
       style="fill:url(#linear-gradient-14);stroke-width:0.900112" />
    <ellipse
       class="cls-22"
       cx="14.06"
       cy="25.4"
       rx="4.6999998"
       ry="6.5999999"
       transform="rotate(-21.8,14.064101,25.408185)"
       id="ellipse4752"
       style="stroke:url(#linear-gradient-15)" />
    <path
       class="cls-23"
       d="m 9.12,33 c 0,0 4.06,5.14 8.82,3.57 5.67,-1.87 4.5,-8.52 4.5,-8.52 0,0 -0.41,5.57 -4.51,7 C 13.08,36.74 9.12,33 9.12,33 Z"
       id="path4754"
       style="fill:url(#linear-gradient-16);stroke-width:0.900112" />
    <path
       class="cls-24"
       d="m 10.75,32.24 a 5.74,5.74 0 0 0 6.43,1.65 5.52,5.52 0 0 0 3.46,-5.64 c 0,0 -0.47,3.4 -3.44,4.59 a 6.44,6.44 0 0 1 -6.45,-0.6 z"
       id="path4756"
       style="fill:url(#linear-gradient-17);stroke-width:0.900112" />
    <path
       class="cls-25"
       d="m 28.43,12.68 c 0.22,0.42 0.06,0.52 -0.54,1 -0.6,0.48 -6.29,3 -6.39,3.21 -0.1,0.21 1.58,-0.29 2.6,-0.69 1.02,-0.4 4.15,-2.14 4.65,-2.43 0.5,-0.29 -0.32,-1.09 -0.32,-1.09 z"
       id="path4758"
       style="fill:url(#linearGradient11264);stroke-width:0.900112" />
    <path
       class="cls-26"
       d="m 29,15.05 a 1.7,1.7 0 0 0 -0.44,0.24 c -0.59,0.48 -6.29,3 -6.4,3.22 -0.11,0.22 1.59,-0.29 2.61,-0.69 a 20.07,20.07 0 0 0 2.18,-1.08 l 1.26,-0.68 c 0.41,-0.23 0.84,-0.42 0.83,-1 C 29,15.07 29,15.06 29,15.05 Z"
       id="path4760"
       style="fill:url(#linear-gradient-19);stroke-width:0.900112" />
    <path
       class="cls-27"
       d="m 28.07,17.86 c -0.26,-0.07 -0.6,0.18 -0.82,0.29 l -0.84,0.4 -2,0.95 -0.65,0.33 A 1,1 0 0 0 23.49,20 c -0.11,0.19 1.59,-0.29 2.61,-0.69 a 11.4,11.4 0 0 0 1.23,-0.57 1.16,1.16 0 0 0 0.47,-0.35 1.54,1.54 0 0 0 0.27,-0.53 z"
       id="path4762"
       style="fill:url(#linear-gradient-20);stroke-width:0.900112" />
    <path
       class="cls-28"
       d="m 31.1,19.15 c 0.87,-0.42 2.31,-0.52 4.36,-1.34 1.84,-0.73 2,-1.68 5.44,-2.66 v 0 a 4,4 0 0 1 2.69,0.09 c 2.84,1.1 3.08,4.47 2.27,6.33 a 6.8,6.8 0 0 1 -1.76,2.61 l -0.39,0.71 a 4,4 0 0 0 -0.48,1.32 4.39,4.39 0 0 1 -0.53,1.41 c 0,0 -0.29,-1.54 -1,-0.84 A 5.55,5.55 0 0 1 40,27.91 c 0,0 0.35,-0.8 -0.08,-0.73 a 11.35,11.35 0 0 1 -1.48,0 9.25,9.25 0 0 1 -1.9,1.39 14.67,14.67 0 0 0 -1.76,0.62 6.8,6.8 0 0 0 1.76,-2.6 c 0.81,-1.86 0.08,-6.28 -2.76,-7.37 a 4,4 0 0 0 -2.68,-0.1 z"
       id="path4764"
       style="fill:url(#linear-gradient-21);stroke-width:0.900112" />
    <path
       class="cls-29"
       d="m 43.49,25.33 a 2.87,2.87 0 0 0 -0.26,0.89 4.41,4.41 0 0 1 -0.53,1.4 c 0,0 -0.29,-1.54 -1,-0.84 A 5.14,5.14 0 0 1 40,27.9 c 0,-0.09 0.31,-0.78 -0.09,-0.72 a 11,11 0 0 1 -1.49,0 9.24,9.24 0 0 1 -1.9,1.4 12.88,12.88 0 0 0 -1.54,0.53 l 0.93,-1.05 c 0.42,-0.31 1.53,-0.52 2,-1.91 0.47,-1.39 0.56,-3.21 0.78,-2.56 0.22,0.65 0,3.05 0.45,2.86 a 4.17,4.17 0 0 0 1.68,-1.39 c 0.49,-0.66 -0.27,0.94 0.56,0.71 0.83,-0.23 1.15,-1.1 1.49,-1.44 0.34,-0.34 0.13,1.26 0.62,1 z"
       id="path4766"
       style="fill:url(#linear-gradient-22);stroke-width:0.900112" />
    <path
       class="cls-30"
       d="m 46.05,19.78 c -1.45,-1.58 -4.39,-0.12 -5.63,0.63 -1.4,0.87 -2.7,0.13 -4.37,1.74 a 3.88,3.88 0 0 0 -2.3,-2.94 4.11,4.11 0 0 0 -2.63,-0.12 c 0.87,-0.4 2.29,-0.52 4.3,-1.31 1.84,-0.74 2,-1.69 5.44,-2.67 a 4.2,4.2 0 0 1 1.22,-0.19 3.94,3.94 0 0 1 1.48,0.29 c 1.83,0.7 2.51,2.79 2.49,4.57 z"
       id="path4768"
       style="fill:url(#linear-gradient-23);stroke-width:0.900112" />
    <path
       class="cls-11"
       d="m 31.1,19.15 c 0.87,-0.42 2.31,-0.52 4.36,-1.34 1.84,-0.73 2,-1.68 5.44,-2.66 v 0 a 4,4 0 0 1 2.69,0.09 c 2.84,1.1 3.08,4.47 2.27,6.33 a 6.8,6.8 0 0 1 -1.76,2.61 l -0.39,0.71 a 4,4 0 0 0 -0.48,1.32 4.39,4.39 0 0 1 -0.53,1.41 c 0,0 -0.29,-1.54 -1,-0.84 A 5.55,5.55 0 0 1 40,27.91 c 0,0 0.35,-0.8 -0.08,-0.73 a 11.35,11.35 0 0 1 -1.48,0 9.25,9.25 0 0 1 -1.9,1.39 14.67,14.67 0 0 0 -1.76,0.62 6.8,6.8 0 0 0 1.76,-2.6 c 0.81,-1.86 0.08,-6.28 -2.76,-7.37 a 4,4 0 0 0 -2.68,-0.1 z"
       id="path4770" />
    <path
       class="cls-31"
       d="m 30.57,19.14 h 0.06 z"
       id="path4772"
       style="fill:url(#linear-gradient-24);stroke-width:0.900112" />
  </g>
</svg>
