<?xml version="1.0" encoding="UTF-8" standalone="no"?>
<svg
   viewBox="0 0 48 48"
   version="1.1"
   id="svg44076"
   sodipodi:docname="16-Clouds.svg"
   inkscape:version="1.1 (c68e22c387, 2021-05-23)"
   xmlns:inkscape="http://www.inkscape.org/namespaces/inkscape"
   xmlns:sodipodi="http://sodipodi.sourceforge.net/DTD/sodipodi-0.dtd"
   xmlns:xlink="http://www.w3.org/1999/xlink"
   xmlns="http://www.w3.org/2000/svg"
   xmlns:svg="http://www.w3.org/2000/svg">
  <sodipodi:namedview
     id="namedview44078"
     pagecolor="#ffffff"
     bordercolor="#666666"
     borderopacity="1.0"
     inkscape:pageshadow="2"
     inkscape:pageopacity="0.0"
     inkscape:pagecheckerboard="0"
     showgrid="false"
     inkscape:snap-global="false"
     inkscape:zoom="15.6875"
     inkscape:cx="24"
     inkscape:cy="24"
     inkscape:window-width="2880"
     inkscape:window-height="1557"
     inkscape:window-x="-8"
     inkscape:window-y="-8"
     inkscape:window-maximized="1"
     inkscape:current-layer="svg44076" />
  <defs
     id="defs44042">
    <linearGradient
       inkscape:collect="always"
       id="linearGradient44760">
      <stop
         style="stop-color:#5995d1;stop-opacity:1;"
         offset="0"
         id="stop44756" />
      <stop
         style="stop-color:#275b8d;stop-opacity:1"
         offset="1"
         id="stop44758" />
    </linearGradient>
    <style
       id="style44006">.cls-1{fill:url(#radial-gradient);}.cls-2{fill:url(#linear-gradient);}.cls-3{fill:url(#linear-gradient-2);}.cls-4{fill:url(#linear-gradient-3);}.cls-5{fill:none;stroke:#285092;stroke-linecap:round;stroke-linejoin:round;stroke-width:0.7px;}.cls-6{fill:url(#New_Gradient_Swatch_9);}.cls-7{fill:url(#New_Gradient_Swatch_9-2);}.cls-8{fill:url(#New_Gradient_Swatch_9-3);}.cls-9{fill:url(#linear-gradient-4);}.cls-10{fill:url(#linear-gradient-5);}.cls-11{fill:url(#linear-gradient-6);}.cls-12{fill:url(#linear-gradient-7);}.cls-13{fill:url(#linear-gradient-8);}</style>
    <radialGradient
       id="radial-gradient"
       cx="41.84"
       cy="-107.57"
       r="18.45"
       gradientTransform="matrix(1.21,0,0,0.72,-26.83,108.19)"
       gradientUnits="userSpaceOnUse">
      <stop
         offset="0.03"
         stop-color="#2c2c2c"
         stop-opacity="0.5"
         id="stop44008" />
      <stop
         offset="0.68"
         stop-color="#2c2c2c"
         stop-opacity="0.1"
         id="stop44010" />
      <stop
         offset="0.93"
         stop-color="#2c2c2c"
         stop-opacity="0"
         id="stop44012" />
    </radialGradient>
    <linearGradient
       id="linear-gradient"
       x1="14.72"
       y1="12.98"
       x2="20.16"
       y2="23.49"
       gradientTransform="translate(0.43 -0.53) rotate(1.66)"
       gradientUnits="userSpaceOnUse">
      <stop
         offset="0"
         stop-color="#b2cbe5"
         id="stop44015" />
      <stop
         offset="1"
         stop-color="#3465a4"
         id="stop44017" />
    </linearGradient>
    <linearGradient
       id="linear-gradient-2"
       x1="11.56"
       y1="8.65"
       x2="19.21"
       y2="21.08"
       gradientTransform="translate(0.43 -0.53) rotate(1.66)"
       gradientUnits="userSpaceOnUse">
      <stop
         offset="0"
         stop-color="snow"
         id="stop44020" />
      <stop
         offset="1"
         stop-color="#fffdfd"
         stop-opacity="0.19"
         id="stop44022" />
    </linearGradient>
    <linearGradient
       id="linear-gradient-3"
       x1="13.19"
       y1="10.95"
       x2="19.39"
       y2="21.57"
       xlink:href="#linear-gradient-2"
       gradientTransform="matrix(1.2434235,0,0,1.244916,-6.7411508,-6.8627273)" />
    <linearGradient
       id="New_Gradient_Swatch_9"
       x1="20.08"
       y1="22.03"
       x2="15.44"
       y2="14.65"
       gradientTransform="translate(0.43 -0.53) rotate(1.66)"
       gradientUnits="userSpaceOnUse">
      <stop
         offset="0"
         stop-color="#204a87"
         id="stop44026" />
      <stop
         offset="1"
         stop-color="#729fcf"
         stop-opacity="0"
         id="stop44028" />
    </linearGradient>
    <linearGradient
       id="New_Gradient_Swatch_9-2"
       x1="16.3"
       y1="22.78"
       x2="12.68"
       y2="15.62"
       xlink:href="#New_Gradient_Swatch_9"
       gradientTransform="matrix(1.2434235,0,0,1.244916,-6.7411508,-6.8627273)" />
    <linearGradient
       id="New_Gradient_Swatch_9-3"
       x1="24.8"
       y1="18.48"
       x2="21.19"
       y2="11.33"
       xlink:href="#New_Gradient_Swatch_9"
       gradientTransform="matrix(1.2434235,0,0,1.244916,-6.7411508,-6.8627273)" />
    <linearGradient
       id="linear-gradient-4"
       x1="21.46"
       y1="20.2"
       x2="31.26"
       y2="34.75"
       xlink:href="#linear-gradient"
       gradientTransform="matrix(1.2434235,0,0,1.244916,-6.7411508,-6.8627273)" />
    <linearGradient
       id="linear-gradient-5"
       x1="18.02"
       y1="13.63"
       x2="29.98"
       y2="33.29"
       xlink:href="#linear-gradient-2"
       gradientTransform="matrix(1.2434235,0,0,1.244916,-6.7411508,-6.8627273)" />
    <linearGradient
       id="linear-gradient-6"
       x1="20.94"
       y1="16.18"
       x2="28.67"
       y2="31.63"
       xlink:href="#linear-gradient-2"
       gradientTransform="matrix(1.2434235,0,0,1.244916,-6.7411508,-6.8627273)" />
    <linearGradient
       id="linear-gradient-7"
       x1="31.07"
       y1="36.21"
       x2="23.71"
       y2="19.77"
       gradientUnits="userSpaceOnUse">
      <stop
         offset="0.17"
         stop-color="#204a87"
         id="stop44036" />
      <stop
         offset="1"
         stop-color="#729fcf"
         stop-opacity="0"
         id="stop44038" />
    </linearGradient>
    <linearGradient
       id="linear-gradient-8"
       x1="29.78"
       y1="32.93"
       x2="23.95"
       y2="21.07"
       xlink:href="#linear-gradient-7"
       gradientTransform="matrix(1.2434235,0,0,1.244916,-6.7411508,-6.8627273)" />
    <linearGradient
       inkscape:collect="always"
       xlink:href="#linear-gradient"
       id="linearGradient44137"
       gradientUnits="userSpaceOnUse"
       gradientTransform="matrix(1.2429017,0.03606324,-0.03602,1.2443935,-6.2064787,-7.5225328)"
       x1="14.72"
       y1="12.98"
       x2="20.16"
       y2="23.49" />
    <linearGradient
       inkscape:collect="always"
       xlink:href="#linear-gradient-2"
       id="linearGradient44139"
       gradientUnits="userSpaceOnUse"
       gradientTransform="matrix(1.2429017,0.03606324,-0.03602,1.2443935,-6.2064787,-7.5225328)"
       x1="11.56"
       y1="8.65"
       x2="19.21"
       y2="21.08" />
    <linearGradient
       inkscape:collect="always"
       xlink:href="#New_Gradient_Swatch_9"
       id="linearGradient44141"
       gradientUnits="userSpaceOnUse"
       gradientTransform="matrix(1.2429017,0.03606324,-0.03602,1.2443935,-6.2064787,-7.5225328)"
       x1="20.08"
       y1="22.03"
       x2="15.44"
       y2="14.65" />
    <linearGradient
       inkscape:collect="always"
       xlink:href="#linear-gradient-7"
       id="linearGradient44143"
       gradientUnits="userSpaceOnUse"
       x1="31.07"
       y1="36.21"
       x2="23.71"
       y2="19.77"
       gradientTransform="matrix(1.2434235,0,0,1.244916,-6.7411508,-6.8627273)" />
    <linearGradient
       inkscape:collect="always"
       xlink:href="#linearGradient44760"
       id="linearGradient44762"
       x1="13.705092"
       y1="10.269626"
       x2="18.42635"
       y2="18.046518"
       gradientUnits="userSpaceOnUse" />
    <linearGradient
       inkscape:collect="always"
       xlink:href="#linearGradient44760"
       id="linearGradient45597"
       gradientUnits="userSpaceOnUse"
       x1="24.157923"
       y1="23.46343"
       x2="29.008022"
       y2="36.532574" />
  </defs>
  <title
     id="title44044">16-Clouds</title>
  <g
     id="shadow"
     transform="matrix(1.1139361,0,0,1,-2.6388484,4.5896414)"
     style="stroke-width:0.94748">
    <ellipse
       class="cls-1"
       cx="24"
       cy="30.5"
       rx="21.540001"
       ry="12.85"
       id="ellipse44046"
       style="fill:url(#radial-gradient);stroke-width:0.94748" />
  </g>
  <g
     id="g45832"
     transform="matrix(1.1125767,0,0,1.1140451,0.05242579,-5.7221088)"
     style="stroke-width:0.898222">
    <path
       class="cls-2"
       d="M 27.651943,13.4792 A 4.2152057,4.2202652 0 0 0 28.721287,8.9601551 C 27.776286,6.4080773 24.841806,6.0470516 22.902065,6.7193063 A 4.8617859,4.8676216 0 0 0 20.266008,8.6489261 6.3538941,6.3615208 0 0 0 14.260272,5.5864327 5.5456688,5.5523254 0 0 0 9.4233547,11.586928 4.2276399,4.2327144 0 0 0 5.9542031,12.570411 c -1.7780956,1.419205 -1.6288847,4.00863 -1.2434235,5.303343 a 6.6523157,6.6603006 0 0 0 -3.1707299,1.469 3.1955984,3.1994341 0 0 0 -0.8206595,2.763714 2.486847,2.489832 0 0 0 2.6609263,1.78023 3.3821119,3.3861715 0 0 0 0.7087514,-0.124492 7.460541,7.469496 0 0 0 1.9397406,-1.083077 7.7092257,7.7184792 0 0 0 4.3892855,0.0747 5.4834976,5.4900796 0 0 0 2.486847,-1.830026 9.6489664,9.6605482 0 0 0 4.973693,-0.435721 4.177903,4.1829178 0 0 0 2.660927,-3.037595 3.4691516,3.4733156 0 0 0 2.486847,-0.510415 4.0535606,4.0584262 0 0 0 1.243423,-2.016764 5.3218526,5.3282405 0 0 0 3.382112,-1.444103 z"
       id="path44049"
       style="fill:url(#linearGradient44137);stroke-width:0.898222" />
    <path
       class="cls-3"
       d="M 27.651943,13.4792 A 4.2152057,4.2202652 0 0 0 28.721287,8.9601551 C 27.776286,6.4080773 24.841806,6.0470516 22.902065,6.7193063 A 4.8617859,4.8676216 0 0 0 20.266008,8.6489261 6.3538941,6.3615208 0 0 0 14.260272,5.5864327 5.5456688,5.5523254 0 0 0 9.4233547,11.586928 4.2276399,4.2327144 0 0 0 5.9542031,12.570411 c -1.7780956,1.419205 -1.6288847,4.00863 -1.2434235,5.303343 a 6.6523157,6.6603006 0 0 0 -3.1707299,1.469 3.1955984,3.1994341 0 0 0 -0.8206595,2.763714 2.486847,2.489832 0 0 0 2.6609263,1.78023 3.3821119,3.3861715 0 0 0 0.7087514,-0.124492 7.460541,7.469496 0 0 0 1.9397406,-1.083077 7.7092257,7.7184792 0 0 0 4.3892855,0.0747 5.4834976,5.4900796 0 0 0 2.486847,-1.830026 9.6489664,9.6605482 0 0 0 4.973693,-0.435721 4.177903,4.1829178 0 0 0 2.660927,-3.037595 3.4691516,3.4733156 0 0 0 2.486847,-0.510415 4.0535606,4.0584262 0 0 0 1.243423,-2.016764 5.3218526,5.3282405 0 0 0 3.382112,-1.444103 z"
       id="path44051"
       style="fill:url(#linearGradient44139);stroke-width:0.898222" />
    <path
       class="cls-4"
       d="m 28.858064,11.41264 c -0.261119,0.58511 -0.460067,0.896339 -0.422764,0.161839 A 3.1458615,3.1496375 0 0 0 24.953714,8.0762647 5.5456688,5.5523254 0 0 0 20.875285,9.8440454 C 20.39035,9.4705706 19.159361,9.6448589 19.159361,9.6448589 A 4.0411264,4.045977 0 0 0 14.272706,7.9517731 C 11.014937,9.109545 10.629475,13.416954 10.629475,13.416954 a 4.1903372,4.1953669 0 0 0 -4.1405998,1.020831 c -1.0196072,1.244916 -0.584409,4.543944 -0.584409,4.543944 0,0 -2.3500704,0.161839 -3.1955984,1.543696 -0.845528,1.381856 -0.2486847,3.423519 0.7460541,3.211883 l -0.1243424,0.09959 a 2.3998074,2.4026879 0 0 1 -2.6111893,-1.730433 3.1582957,3.1620866 0 0 1 0.795791,-2.763714 6.7020527,6.7100972 0 0 1 3.17073,-1.469 C 4.2755814,16.566592 4.1139364,13.989616 5.9293347,12.570411 a 4.2898111,4.2949602 0 0 1 3.49402,-0.983483 5.558103,5.5647745 0 0 1 4.8369173,-6.0004953 6.3538941,6.3615208 0 0 1 6.005736,3.0624934 4.973694,4.979664 0 0 1 2.648492,-1.9296198 c 1.927306,-0.6722547 4.861786,-0.311229 5.806787,2.2408488 a 4.2400741,4.2451636 0 0 1 0.136777,2.4524849 z"
       id="path44053"
       style="fill:url(#linear-gradient-3);stroke-width:0.898222" />
    <path
       class="cls-5"
       d="M 27.651943,13.4792 A 4.2152057,4.2202652 0 0 0 28.721287,8.9601551 C 27.776286,6.4080773 24.841806,6.0470516 22.902065,6.7193063 A 4.8617859,4.8676216 0 0 0 20.266008,8.6489261 6.3538941,6.3615208 0 0 0 14.260272,5.5864327 5.5456688,5.5523254 0 0 0 9.4233547,11.586928 4.2276399,4.2327144 0 0 0 5.9542031,12.570411 c -1.7780956,1.419205 -1.6288847,4.00863 -1.2434235,5.303343 a 6.6523157,6.6603006 0 0 0 -3.1707299,1.469 3.1955984,3.1994341 0 0 0 -0.8206595,2.763714 2.486847,2.489832 0 0 0 2.6609263,1.78023 3.3821119,3.3861715 0 0 0 0.7087514,-0.124492 7.460541,7.469496 0 0 0 1.9397406,-1.083077 7.7092257,7.7184792 0 0 0 4.3892855,0.0747 5.4834976,5.4900796 0 0 0 2.486847,-1.830026 9.6489664,9.6605482 0 0 0 4.973693,-0.435721 4.177903,4.1829178 0 0 0 2.660927,-3.037595 3.4691516,3.4733156 0 0 0 2.486847,-0.510415 4.0535606,4.0584262 0 0 0 1.243423,-2.016764 5.3218526,5.3282405 0 0 0 3.382112,-1.444103 z"
       id="path44055"
       style="stroke:url(#linearGradient44762);stroke-opacity:1" />
    <path
       class="cls-6"
       d="m 19.482651,16.529244 a 2.6733605,2.6765694 0 0 0 2.188425,-0.58511 2.486847,2.489832 0 0 0 0.770923,-1.892272 3.7302705,3.734748 0 0 0 2.486847,-0.622459 2.1759911,2.178603 0 0 0 -0.64658,-3.7347475 4.1157318,4.120672 0 0 0 -4.351983,1.8175775 1.5542794,1.556145 0 0 0 -1.753227,0.0747 2.9966506,3.0002476 0 0 0 -3.780007,-1.020831 2.7106632,2.7139169 0 0 0 -1.454806,3.174536 3.8919156,3.8965871 0 0 0 -3.0090847,0.610008 3.2950723,3.2990274 0 0 0 -1.0693442,3.050045 3.4691516,3.4733156 0 0 0 -1.4672397,0.684703 2.2381623,2.2408488 0 0 0 -0.6590145,1.456552 1.6164506,1.6183908 0 0 0 -1.2434235,0.136941 1.3304631,1.3320601 0 0 0 -0.5098036,1.419204 1.1190811,1.1204244 0 0 0 1.5169767,0.348577 1.6288848,1.63084 0 0 0 0.795791,-0.809196 2.486847,2.489832 0 0 0 2.325202,0.497967 2.486847,2.489832 0 0 0 1.7532275,-1.170222 3.1334272,3.1371883 0 0 0 1.243423,-0.09959 1.8153983,1.8175774 0 0 0 0.945002,-0.858992 5.4337607,5.4402829 0 0 0 3.879481,0.423272 c 1.678622,-0.410823 2.039215,-2.900655 2.039215,-2.900655 z"
       id="path44057"
       style="fill:url(#linearGradient44141);stroke-width:0.898222" />
    <path
       class="cls-7"
       d="m 19.370743,17.114355 c -0.223817,0.746949 -0.758489,2.016764 -1.939741,2.265747 a 5.5208003,5.527427 0 0 1 -3.879481,-0.423271 1.8153983,1.8175774 0 0 1 -0.945002,0.858992 3.120993,3.1247392 0 0 1 -1.243424,0.09959 2.486847,2.489832 0 0 1 -1.7407925,1.170221 2.486847,2.489832 0 0 1 -2.3500705,-0.497966 1.5667136,1.5685942 0 0 1 -0.7833568,0.809195 1.1315154,1.1328736 0 0 1 -1.5169766,-0.348577 0.84552798,0.84654288 0 0 1 0,-0.348576 c 0.1865135,0.286331 0.8082252,0.323678 1.4796739,0 a 1.641319,1.6432891 0 0 0 0.9325677,-0.971035 2.9220452,2.9255526 0 0 0 2.3873731,0.473069 2.1759911,2.178603 0 0 0 1.6040167,-1.556145 1.7532271,1.7553316 0 0 0 1.3802,0 2.2505965,2.253298 0 0 0 1.243423,-1.244916 6.5279734,6.535809 0 0 0 4.625536,0.07469 5.346721,5.3531388 0 0 0 0.746054,-0.361025 z"
       id="path44059"
       style="fill:url(#New_Gradient_Swatch_9-2);stroke-width:0.898222" />
    <path
       class="cls-8"
       d="m 24.903977,13.441853 a 3.7302705,3.734748 0 0 1 -2.486847,0.622458 2.486847,2.489832 0 0 1 -0.758488,1.879823 2.3998074,2.4026879 0 0 1 -1.591582,0.622458 4.973694,4.979664 0 0 0 1.61645,-3.610257 4.5757985,4.5812909 0 0 0 2.561453,0 2.2878992,2.2906454 0 0 0 1.417503,-1.33206 2.1013857,2.103908 0 0 1 -0.758489,1.817578 z"
       id="path44061"
       style="fill:url(#New_Gradient_Swatch_9-3);stroke-width:0.898222" />
  </g>
  <g
     id="g45840"
     transform="matrix(1.0845068,0,0,1.0849624,-4.0284132,-3.1453079)"
     style="stroke-width:0.921885">
    <path
       class="cls-9"
       d="m 45.34586,24.011189 a 6.615013,6.6229531 0 0 1 -2.959348,0.871442 6.3290256,6.3366224 0 0 1 -2.922046,4.257612 9.3381105,9.3493192 0 0 1 -4.774746,1.244916 c 0,0 -0.708751,4.045977 -4.153034,4.904969 a 10.419889,10.432396 0 0 1 -5.471064,0.174289 6.3414598,6.3490716 0 0 1 -4.003823,2.776162 8.2190293,8.2288948 0 0 1 -5.110471,-0.112042 4.973694,4.979664 0 0 1 -3.282638,2.153705 C 10.045066,41.029191 7.5955222,39.697131 7.1230212,37.79241 6.5261779,35.389722 8.11776,32.327228 10.853292,32.314779 a 3.8048759,3.809443 0 0 1 0.373027,-2.191052 4.1654687,4.1704686 0 0 1 1.541845,-1.244916 5.6948796,5.7017153 0 0 1 0.509804,-5.216198 l 0.23625,-0.323678 a 5.6451427,5.6519186 0 0 1 4.016258,-2.365341 8.6044906,8.6148187 0 0 1 5.408892,-7.033775 8.2687663,8.2786914 0 0 1 10.109033,3.000248 c 0,0 1.355332,-1.406755 4.662838,-0.89634 a 5.5705373,5.5772237 0 0 1 4.165469,2.875756 3.120993,3.1247392 0 0 1 2.11382,-0.858992 2.9344795,2.9380018 0 0 1 3.25777,2.21595 3.5313227,3.5355614 0 0 1 -1.902438,3.734748 z"
       id="path44063"
       style="fill:url(#linear-gradient-4);stroke-width:0.921885" />
    <path
       class="cls-10"
       d="m 45.34586,24.011189 a 6.615013,6.6229531 0 0 1 -2.959348,0.871442 6.3290256,6.3366224 0 0 1 -2.922046,4.257612 9.3381105,9.3493192 0 0 1 -4.774746,1.244916 c 0,0 -0.708751,4.045977 -4.153034,4.904969 a 10.419889,10.432396 0 0 1 -5.471064,0.174289 6.3414598,6.3490716 0 0 1 -4.003823,2.776162 8.2190293,8.2288948 0 0 1 -5.110471,-0.112042 4.973694,4.979664 0 0 1 -3.282638,2.153705 C 10.045066,41.029191 7.5955222,39.697131 7.1230212,37.79241 6.5261779,35.389722 8.11776,32.327228 10.853292,32.314779 a 3.8048759,3.809443 0 0 1 0.373027,-2.191052 4.1654687,4.1704686 0 0 1 1.541845,-1.244916 5.6948796,5.7017153 0 0 1 0.509804,-5.216198 l 0.23625,-0.323678 a 5.6451427,5.6519186 0 0 1 4.016258,-2.365341 8.6044906,8.6148187 0 0 1 5.408892,-7.033775 8.2687663,8.2786914 0 0 1 10.109033,3.000248 c 0,0 1.355332,-1.406755 4.662838,-0.89634 a 5.5705373,5.5772237 0 0 1 4.165469,2.875756 3.120993,3.1247392 0 0 1 2.11382,-0.858992 2.9344795,2.9380018 0 0 1 3.25777,2.21595 3.5313227,3.5355614 0 0 1 -1.902438,3.734748 z"
       id="path44065"
       style="fill:url(#linear-gradient-5);stroke-width:0.921885" />
    <path
       class="cls-11"
       d="m 47.173692,21.670747 v 0 c -0.285987,0.622458 -0.509803,0.983484 -0.422764,0.336128 a 2.5987551,2.6018744 0 0 0 -2.486847,-2.913104 3.7302705,3.734748 0 0 0 -2.573886,0.971035 6.8885662,6.8968346 0 0 0 -4.526062,-2.191052 6.7766581,6.7847922 0 0 0 -4.46389,1.63084 c 0,0 -3.556192,-5.614572 -8.355806,-3.087392 -4.799615,2.527179 -3.332375,6.162334 -3.332375,6.162334 -0.721186,-0.261432 -4.190337,0 -5.359156,2.128806 a 5.9186959,5.9258002 0 0 0 -0.211382,4.531495 c 0,0 -0.385461,-0.211636 -1.715924,0.858992 a 2.9717822,2.9753492 0 0 0 -0.982305,2.875756 4.6006669,4.6061892 0 0 0 -3.0339529,1.830026 5.1353391,5.1415031 0 0 0 -0.6838829,5.265995 3.4815858,3.4857648 0 0 1 -1.902438,-2.178603 C 6.5261779,35.489315 8.11776,32.426822 10.853292,32.414372 a 3.9292183,3.9339346 0 0 1 0.373027,-2.191052 4.1654687,4.1704686 0 0 1 1.541845,-1.244916 5.6948796,5.7017153 0 0 1 0.509804,-5.216198 l 0.23625,-0.323678 a 5.6451427,5.6519186 0 0 1 4.016258,-2.36534 8.6044906,8.6148187 0 0 1 5.408892,-7.033776 8.2687663,8.2786914 0 0 1 10.109033,2.900655 c 0,0 1.355332,-1.406755 4.662838,-0.89634 a 5.5705373,5.5772237 0 0 1 4.165469,2.875756 3.120993,3.1247392 0 0 1 2.11382,-0.858992 2.9344795,2.9380018 0 0 1 3.25777,2.21595 2.8101371,2.8135102 0 0 1 -0.07461,1.394306 z"
       id="path44067"
       style="fill:url(#linear-gradient-6);stroke-width:0.921885" />
    <path
       class="cls-12"
       d="m 43.741843,22.704028 a 2.5863209,2.5894253 0 0 1 -2.698229,1.008382 5.6700112,5.676817 0 0 1 -2.698229,3.572909 5.2348129,5.2410964 0 0 1 -4.314679,0.547763 6.1425121,6.149885 0 0 1 -3.394546,4.73068 6.0430382,6.0502918 0 0 1 -5.856525,-0.08714 5.0980363,5.1041556 0 0 1 -3.394546,3.734748 5.2099445,5.216198 0 0 1 -5.085602,-0.398373 c 0,0 -0.335725,1.369408 -2.623624,1.904722 -2.287899,0.535314 -3.295072,-2.701468 -0.982304,-4.170469 a 6.3663283,6.3739699 0 0 1 2.797702,-0.921238 5.9062616,5.913351 0 0 1 0.32329,-3.137188 3.8297444,3.8343413 0 0 1 2.996651,-2.552078 3.543757,3.5480106 0 0 1 1.032042,-2.489832 4.0411264,4.045977 0 0 1 4.314679,-0.983484 5.396458,5.4029354 0 0 0 -2.101386,-1.406755 4.2898111,4.2949602 0 0 1 2.723098,-2.676569 6.5279734,6.535809 0 0 1 7.336199,2.489832 5.4088922,5.4153846 0 0 1 5.209944,-1.755332 4.3271138,4.3323077 0 0 1 2.797703,1.730434 c 0,0 1.243423,-1.680637 2.561452,-1.506349 a 1.479674,1.48145 0 0 1 1.05691,2.365341 z"
       id="path44069"
       style="fill:url(#linearGradient44143);stroke-width:0.921885" />
    <path
       class="cls-5"
       d="m 45.644281,24.110783 a 6.6771842,6.6851989 0 0 1 -2.971782,0.871441 6.2917229,6.299275 0 0 1 -2.922045,4.257613 9.1888997,9.1999292 0 0 1 -4.762312,1.244916 c 0,0 -0.721186,4.058426 -4.153035,4.917418 a 10.48206,10.494642 0 0 1 -5.483497,0.174288 6.3414598,6.3490716 0 0 1 -3.99139,2.776163 8.3682402,8.3782847 0 0 1 -5.122905,-0.112043 4.973694,4.979664 0 0 1 -3.282638,2.203502 C 10.331054,41.19103 7.8815096,39.85897 7.4214429,37.954249 6.8121654,35.551561 8.4037474,32.489067 11.151713,32.476618 a 3.8048759,3.809443 0 0 1 0.373027,-2.191052 4.0659948,4.0708753 0 0 1 1.541846,-1.244916 5.6700112,5.676817 0 0 1 0.497369,-5.216198 2.0392145,2.0416622 0 0 1 0.248685,-0.323678 5.5829715,5.5896728 0 0 1 4.003823,-2.36534 8.6293591,8.639717 0 0 1 5.421327,-7.033776 8.256332,8.2662422 0 0 1 10.059296,2.938002 c 0,0 1.367766,-1.406755 4.662838,-0.89634 a 5.5456688,5.5523254 0 0 1 4.165469,2.875756 3.120993,3.1247392 0 0 1 2.11382,-0.858992 2.9344795,2.9380018 0 0 1 3.270204,2.215951 3.5810597,3.5853581 0 0 1 -1.865136,3.734748 z"
       id="path44071"
       style="font-variation-settings:normal;opacity:1;vector-effect:none;fill:none;fill-opacity:1;stroke:url(#linearGradient45597);stroke-width:0.645319px;stroke-linecap:round;stroke-linejoin:round;stroke-miterlimit:4;stroke-dasharray:none;stroke-dashoffset:0;stroke-opacity:1;-inkscape-stroke:none;stop-color:#000000;stop-opacity:1" />
    <path
       class="cls-13"
       d="m 43.741843,22.691579 a 2.5614524,2.564527 0 0 1 -2.698229,1.020831 5.6327085,5.6394695 0 0 1 -2.698229,3.560459 5.2472472,5.2535455 0 0 1 -4.327113,0.560213 6.1052094,6.1125376 0 0 1 -3.394547,4.73068 6.0181697,6.0253934 0 0 1 -5.84409,-0.08714 5.0731679,5.0792573 0 0 1 -3.394546,3.734748 c -2.909611,0.995933 -4.31468,0.08714 -5.073168,-0.398373 0,0 -0.348159,1.381857 -2.636058,1.904722 a 1.7532271,1.7553316 0 0 1 -2.163557,-1.244916 4.177903,4.1829178 0 0 0 3.145862,-0.174289 3.0836903,3.0873917 0 0 0 1.815398,-2.079009 6.66475,6.6727498 0 0 0 5.060734,0.236534 4.973694,4.979664 0 0 0 2.685794,-3.834342 c 0,0 4.289811,1.854925 6.677185,0.44817 2.387373,-1.406755 2.922045,-4.655986 2.884742,-5.888452 a 3.7302705,3.734748 0 0 0 3.916784,0.821644 3.8794813,3.8841379 0 0 0 2.884743,-3.386171 2.7230975,2.726366 0 0 0 1.852701,0.161839 1.9646091,1.9669673 0 0 0 1.417502,-1.618391 1.6537533,1.6557383 0 0 1 -0.111908,1.531247 z"
       id="path44073"
       style="fill:url(#linear-gradient-8);stroke-width:0.921885" />
  </g>
</svg>
