<?xml version="1.0" encoding="UTF-8" standalone="no"?>
<svg
   viewBox="0 0 48 48"
   version="1.1"
   id="svg40"
   sodipodi:docname="5-Feather_Shape.svg"
   inkscape:version="1.3-dev (e30a5ffc, 2022-05-30)"
   xmlns:inkscape="http://www.inkscape.org/namespaces/inkscape"
   xmlns:sodipodi="http://sodipodi.sourceforge.net/DTD/sodipodi-0.dtd"
   xmlns:xlink="http://www.w3.org/1999/xlink"
   xmlns="http://www.w3.org/2000/svg"
   xmlns:svg="http://www.w3.org/2000/svg">
  <sodipodi:namedview
     id="namedview40"
     pagecolor="#505050"
     bordercolor="#ffffff"
     borderopacity="1"
     inkscape:showpageshadow="0"
     inkscape:pageopacity="0"
     inkscape:pagecheckerboard="1"
     inkscape:deskcolor="#505050"
     showgrid="false"
     inkscape:zoom="21.395833"
     inkscape:cx="23.0185"
     inkscape:cy="24"
     inkscape:window-width="2560"
     inkscape:window-height="1378"
     inkscape:window-x="-6"
     inkscape:window-y="-6"
     inkscape:window-maximized="1"
     inkscape:current-layer="svg40" />
  <defs
     id="defs5">
    <linearGradient
       inkscape:collect="always"
       id="linearGradient41">
      <stop
         style="stop-color:#000000;stop-opacity:1;"
         offset="0"
         id="stop40" />
      <stop
         style="stop-color:#000000;stop-opacity:0;"
         offset="1"
         id="stop41" />
    </linearGradient>
    <style
       id="style1">.cls-1{fill:url(#radial-gradient);}.cls-2{opacity:0.9;}.cls-3{fill:#c4a000;}.cls-4{fill:#fce94f;}.cls-5{fill:#edd400;}.cls-6{fill:url(#linear-gradient);}.cls-14,.cls-19,.cls-7{fill:none;stroke-linecap:round;stroke-linejoin:round;}.cls-7{stroke:#c4a000;stroke-width:0.84px;}.cls-8{fill:#e3f1ef;}.cls-9{fill:#204a87;}.cls-10{fill:#729fcf;}.cls-11{fill:#3465a4;}.cls-12{fill:#88408b;}.cls-13{fill:url(#linear-gradient-2);}.cls-14{stroke:#204a87;stroke-width:0.67px;}.cls-15{fill:#4e9a06;}.cls-16{fill:#8ae234;}.cls-17{fill:#73d216;}.cls-18{fill:url(#linear-gradient-3);}.cls-19{stroke:#4e9a06;stroke-width:0.63px;}</style>
    <radialGradient
       id="radial-gradient"
       cx="-244.38"
       cy="114.2"
       r="11.94"
       gradientTransform="matrix(1.38,0,0,0.44,352.96,-9.27)"
       gradientUnits="userSpaceOnUse">
      <stop
         offset="0"
         stop-color="#212121"
         stop-opacity="0.4"
         id="stop1" />
      <stop
         offset="0.45"
         stop-color="#212121"
         stop-opacity="0.13"
         id="stop2" />
      <stop
         offset="1"
         stop-color="#212121"
         stop-opacity="0"
         id="stop3" />
    </radialGradient>
    <linearGradient
       id="linear-gradient"
       x1="13.51"
       y1="24.2"
       x2="-2.46"
       y2="-3.02"
       gradientTransform="matrix(-0.22, -0.99, -0.97, 0.15, 47.75, 40.95)"
       gradientUnits="userSpaceOnUse">
      <stop
         offset="0"
         stop-color="#fff"
         stop-opacity="0"
         id="stop4" />
      <stop
         offset="1"
         stop-color="#fff8f8"
         id="stop5" />
    </linearGradient>
    <linearGradient
       id="linear-gradient-2"
       x1="27.19"
       y1="27.4"
       x2="15.5"
       y2="7.47"
       gradientTransform="matrix(1,0,0.07,1,-0.1,0)"
       xlink:href="#linear-gradient" />
    <linearGradient
       id="linear-gradient-3"
       x1="18.21"
       y1="16.7"
       x2="7.75"
       y2="-1.13"
       gradientTransform="matrix(0.83,-0.5,0.56,0.87,-6.55,15.7)"
       xlink:href="#linear-gradient" />
    <linearGradient
       inkscape:collect="always"
       xlink:href="#linear-gradient"
       id="linearGradient40"
       gradientUnits="userSpaceOnUse"
       gradientTransform="matrix(-0.22,-0.99,-0.97,0.15,47.75,40.95)"
       x1="13.51"
       y1="24.2"
       x2="-2.46"
       y2="-3.02" />
    <radialGradient
       inkscape:collect="always"
       xlink:href="#linearGradient41"
       id="radialGradient41"
       cx="15.97"
       cy="41.470001"
       fx="15.97"
       fy="41.470001"
       r="15.83"
       gradientTransform="matrix(1,0,0,0.32343651,0,28.057089)"
       gradientUnits="userSpaceOnUse" />
  </defs>
  <g
     id="shadow"
     transform="matrix(1.194865,0,0,1,0.72052798,1.2619279)"
     style="fill:url(#radialGradient41);fill-opacity:1">
    <path
       id="ellipse5"
       class="cls-1"
       d="m 31.8,41.470001 a 15.83,5.1199999 0 0 1 -15.83,5.12 15.83,5.1199999 0 0 1 -15.82999966,-5.12 15.83,5.1199999 0 0 1 15.82999966,-5.12 15.83,5.1199999 0 0 1 15.83,5.12 z" />
  </g>
  <g
     id="ART"
     transform="matrix(1.2683902,0,0,1.0972524,-9.5468627,-0.88444178)">
    <g
       class="cls-2"
       id="g16">
      <path
         class="cls-3"
         d="M 13.79,39.14 C 22,34 31.76,30.29 41.51,31.8 a 0.09,0.09 0 0 1 0,0.17 59.37,59.37 0 0 0 -7.09,0.8 38.42,38.42 0 0 0 -13.27,4.57 47.64,47.64 0 0 0 -5.88,3.85 1.26,1.26 0 1 1 -1.47,-2 z"
         id="path5" />
      <path
         class="cls-4"
         d="m 31.57,27.89 a 36.76,36.76 0 0 1 7.74,1.83 20.93,20.93 0 0 1 3.54,1.63 c 0.74,0.42 1.24,1.13 1,1.42 A 4.54,4.54 0 0 1 43,33.88 15,15 0 0 1 41,35.23 c -1.83,-0.84 -4.33,-1.89 -4.33,-1.89 a 33.1,33.1 0 0 0 3.73,2.21 c -0.65,0.35 -1.31,0.66 -1.91,0.92 a 28.27,28.27 0 0 1 -4,1.34 c -1.08,-0.49 -5.1,-2.49 -5.94,-2.84 1,0.43 4.68,2.84 5.08,3.08 -0.76,0.2 -1.48,0.43 -2.18,0.67 L 30,39.2 a 50.23,50.23 0 0 1 -9,-1.74 c 1.51,0.75 6.24,2.57 6.65,2.72 -0.3,0.12 -1.19,0.47 -1.41,0.57 -0.74,0.35 -5.17,-1.83 -6.28,-2 l -0.43,-0.08 a 14.63,14.63 0 0 0 -2.21,-0.26 1.81,1.81 0 0 0 0.23,-1.47 2.86,2.86 0 0 0 -0.33,-0.68 c -0.26,-0.43 -2.43,-3.41 -1.88,-3.89 0.13,-0.11 0.27,-0.25 0.46,-0.39 a 0.88,0.88 0 0 0 0.23,0.45 c 0.39,0.41 2.69,3 3,3.45 0,0 -2.45,-3.24 -2.57,-3.67 -0.12,-0.43 0.3,-0.86 0.4,-1 v 0 a 40,40 0 0 0 2.3,3.45 10.91,10.91 0 0 1 1.66,1.8 l 0.6,-0.3 h -0.64 a 15,15 0 0 1 -1.36,-2 c -0.3,-0.67 -2.08,-3.39 -2.08,-3.39 a 9.2,9.2 0 0 1 2.88,-1.17 45,45 0 0 0 2.7,3.84 7.59,7.59 0 0 1 1,1.43 1.4,1.4 0 0 0 -0.29,-1 C 23.04,33 20.96,30.12 21.54,29.28 c 0.73,-0.25 1.5,-0.48 2.27,-0.69 a 11.34,11.34 0 0 0 2.66,4.5 c 0,0 -2.38,-4 -1.52,-4.79 a 25,25 0 0 1 3.7,-0.61 c -0.05,0 1.3,2.82 1.54,3.26 a 10.29,10.29 0 0 0 0.62,0.95 22.21,22.21 0 0 0 -1.09,-3.81 5.58,5.58 0 0 1 1.85,-0.2 z"
         id="path6" />
      <path
         class="cls-5"
         d="m 27.06,33.79 a 3.56,3.56 0 0 1 -0.43,-1 1.21,1.21 0 0 1 -0.78,-0.78 c -0.2,-0.6 -2.05,-3.48 -2.07,-3.55 -0.77,0.21 -1.54,0.44 -2.27,0.69 -0.58,0.84 1.5,3.72 2.09,4.59 0.59,0.87 0.16,1.31 0.16,1.31 0,0 6,2.48 8.4,3.42 0.43,-0.14 0.87,-0.27 1.33,-0.39 -0.42,-0.26 -4.63,-3 -5.23,-3.14 0.18,0 4.9,2.37 6.09,2.9 l 1,-0.24 c -1.2,-0.49 -6.77,-3.53 -8.29,-3.81 z"
         id="path7" />
      <path
         class="cls-5"
         d="M 43.88,32.77 A 4.54,4.54 0 0 1 43,33.88 v 0 c -1,-0.51 -2.73,-1.43 -3.74,-1.84 a 14.44,14.44 0 0 1 -1.45,-2.58 27,27 0 0 1 5.09,1.89 c 0.69,0.43 1.19,1.13 0.98,1.42 z"
         id="path8" />
      <path
         class="cls-5"
         d="m 28.79,28.14 c 0.09,0.2 0.21,0.43 0.33,0.68 -0.13,-0.24 -0.26,-0.48 -0.36,-0.68 z"
         id="path9" />
      <path
         class="cls-5"
         d="M 29.75,30 29.12,28.79 A 8.51,8.51 0 0 1 29.75,30 Z"
         id="path10" />
      <path
         class="cls-5"
         d="m 36.63,33.37 a 32.83,32.83 0 0 0 3.68,2.18 c -0.59,0.32 -1.19,0.6 -1.75,0.85 -1.29,-0.4 -5.54,-2.57 -5.69,-2.6 a 11.76,11.76 0 0 0 -2.36,-0.88 c 0,0 -2.51,-4.16 -2.13,-5.19 0,0 1.39,2.34 1.37,2.3 0.2,0.36 0.35,0.65 0.41,0.76 v 0 c 0.19,0.34 0.42,0.67 0.53,0.83 l 0.08,0.11 v 0 a 24.09,24.09 0 0 0 -0.93,-3.38 c 0,-0.07 0,-0.14 0,-0.2 a 29.71,29.71 0 0 1 3.16,0.16 17.39,17.39 0 0 0 1.3,4 c 0,0 1.07,0.46 2.33,1.06 z"
         id="path11" />
      <path
         class="cls-6"
         d="m 31.57,27.89 a 36.76,36.76 0 0 1 7.74,1.83 20.93,20.93 0 0 1 3.54,1.63 c 0.74,0.42 1.24,1.13 1,1.42 A 4.54,4.54 0 0 1 43,33.88 15,15 0 0 1 41,35.23 c -1.83,-0.84 -4.33,-1.89 -4.33,-1.89 a 33.1,33.1 0 0 0 3.73,2.21 c -0.65,0.35 -1.31,0.66 -1.91,0.92 a 28.27,28.27 0 0 1 -4,1.34 c -1.08,-0.49 -5.1,-2.49 -5.94,-2.84 1,0.43 4.68,2.84 5.08,3.08 -0.76,0.2 -1.48,0.43 -2.18,0.67 L 30,39.2 a 50.23,50.23 0 0 1 -9,-1.74 c 1.51,0.75 6.24,2.57 6.65,2.72 -0.3,0.12 -1.19,0.47 -1.41,0.57 -0.74,0.35 -5.17,-1.83 -6.28,-2 l -0.43,-0.08 a 14.63,14.63 0 0 0 -2.21,-0.26 1.81,1.81 0 0 0 0.23,-1.47 2.86,2.86 0 0 0 -0.33,-0.68 c -0.26,-0.43 -2.43,-3.41 -1.88,-3.89 0.13,-0.11 0.27,-0.25 0.46,-0.39 a 0.88,0.88 0 0 0 0.23,0.45 c 0.39,0.41 2.69,3 3,3.45 0,0 -2.45,-3.24 -2.57,-3.67 -0.12,-0.43 0.3,-0.86 0.4,-1 v 0 a 40,40 0 0 0 2.3,3.45 10.91,10.91 0 0 1 1.66,1.8 l 0.6,-0.3 h -0.64 a 15,15 0 0 1 -1.36,-2 c -0.3,-0.67 -2.08,-3.39 -2.08,-3.39 a 9.2,9.2 0 0 1 2.88,-1.17 45,45 0 0 0 2.7,3.84 7.59,7.59 0 0 1 1,1.43 1.4,1.4 0 0 0 -0.29,-1 C 23.04,33 20.96,30.12 21.54,29.28 c 0.73,-0.25 1.5,-0.48 2.27,-0.69 a 11.34,11.34 0 0 0 2.66,4.5 c 0,0 -2.38,-4 -1.52,-4.79 a 25,25 0 0 1 3.7,-0.61 c -0.05,0 1.3,2.82 1.54,3.26 a 10.29,10.29 0 0 0 0.62,0.95 22.21,22.21 0 0 0 -1.09,-3.81 5.58,5.58 0 0 1 1.85,-0.2 z"
         id="path12"
         style="fill:url(#linearGradient40)" />
      <path
         class="cls-5"
         d="m 16.81,31.17 v 0 c -0.1,0.12 -0.48,0.6 -0.4,1 0.08,0.4 2.59,3.67 2.59,3.67 -0.3,-0.4 -2.6,-3 -3,-3.45 a 0.88,0.88 0 0 1 -0.23,-0.45 l -0.46,0.39 c -0.55,0.48 1.62,3.46 1.88,3.89 a 2.86,2.86 0 0 1 0.33,0.68 1.81,1.81 0 0 1 -0.23,1.47 14.63,14.63 0 0 1 2.21,0.26 l 0.43,0.08 c 1.11,0.22 5.54,2.39 6.28,2 0.22,-0.1 1.11,-0.45 1.41,-0.57 -0.41,-0.15 -5.76,-2.64 -6.65,-2.72 a 74.35,74.35 0 0 0 8.76,1.73 c -0.45,-0.09 0.37,-0.23 0.37,-0.23 -2.38,-0.8 -8.6,-2.48 -9.3,-2.54 a 11.43,11.43 0 0 0 -1.66,-1.81 38.53,38.53 0 0 1 -2.33,-3.4 z"
         id="path13" />
      <path
         class="cls-7"
         d="m 31.57,27.89 a 36.76,36.76 0 0 1 7.74,1.83 20.93,20.93 0 0 1 3.54,1.63 c 0.74,0.42 1.24,1.13 1,1.42 A 4.54,4.54 0 0 1 43,33.88 15,15 0 0 1 41,35.23 c -1.83,-0.84 -4.33,-1.89 -4.33,-1.89 a 33.1,33.1 0 0 0 3.73,2.21 c -0.65,0.35 -1.31,0.66 -1.91,0.92 a 28.27,28.27 0 0 1 -4,1.34 c -1.08,-0.49 -5.1,-2.49 -5.94,-2.84 1,0.43 4.68,2.84 5.08,3.08 -0.76,0.2 -1.48,0.43 -2.18,0.67 L 30,39.2 a 50.23,50.23 0 0 1 -9,-1.74 c 1.51,0.75 6.24,2.57 6.65,2.72 -0.3,0.12 -1.19,0.47 -1.41,0.57 -0.74,0.35 -5.17,-1.83 -6.28,-2 l -0.43,-0.08 a 14.63,14.63 0 0 0 -2.21,-0.26 1.81,1.81 0 0 0 0.23,-1.47 2.86,2.86 0 0 0 -0.33,-0.68 c -0.26,-0.43 -2.43,-3.41 -1.88,-3.89 0.13,-0.11 0.27,-0.25 0.46,-0.39 a 0.88,0.88 0 0 0 0.23,0.45 c 0.39,0.41 2.69,3 3,3.45 0,0 -2.45,-3.24 -2.57,-3.67 -0.12,-0.43 0.3,-0.86 0.4,-1 v 0 a 40,40 0 0 0 2.3,3.45 10.91,10.91 0 0 1 1.66,1.8 l 0.6,-0.3 h -0.64 a 15,15 0 0 1 -1.36,-2 c -0.3,-0.67 -2.08,-3.39 -2.08,-3.39 a 9.2,9.2 0 0 1 2.88,-1.17 45,45 0 0 0 2.7,3.84 7.59,7.59 0 0 1 1,1.43 1.4,1.4 0 0 0 -0.29,-1 C 23.04,33 20.96,30.12 21.54,29.28 c 0.73,-0.25 1.5,-0.48 2.27,-0.69 a 11.34,11.34 0 0 0 2.66,4.5 c 0,0 -2.38,-4 -1.52,-4.79 a 25,25 0 0 1 3.7,-0.61 c -0.05,0 1.3,2.82 1.54,3.26 a 10.29,10.29 0 0 0 0.62,0.95 22.21,22.21 0 0 0 -1.09,-3.81 5.58,5.58 0 0 1 1.85,-0.2 z"
         id="path14" />
      <path
         class="cls-3"
         d="m 17.35,36.85 a 42.83,42.83 0 0 1 24.17,-5 c 0,0 0,0.07 0,0.06 A 44.65,44.65 0 0 0 17.8,37.65 0.47,0.47 0 0 1 17.36,36.83 Z"
         id="path15" />
      <path
         class="cls-8"
         d="m 14.21,39.71 c 8,-5.39 17.61,-8.83 27.3,-7.86 0,0 0,0.08 0,0.08 a 43.34,43.34 0 0 0 -26.62,8.68 c -0.59,0.46 -1.3,-0.47 -0.67,-0.9 z"
         id="path16" />
    </g>
    <path
       class="cls-9"
       d="M 13.54,39.33 C 21.41,30.23 28.24,20 32,8.48 a 0.09,0.09 0 0 1 0.18,0 c -0.74,6.13 -3.45,11.81 -6.41,17.15 A 136.19,136.19 0 0 1 15.54,41 1.29,1.29 0 0 1 13.72,41.24 1.31,1.31 0 0 1 13.54,39.35 Z"
       id="path17" />
    <path
       class="cls-10"
       d="M 34.22,16.1 A 20.28,20.28 0 0 0 34.1,9.44 7,7 0 0 0 33.1,6.85 1,1 0 0 0 31.65,6.64 16.61,16.61 0 0 0 30,8.21 C 29.35,9 28.58,10 27.82,11 c 0.52,1.35 1.12,3.23 1.12,3.23 a 10.17,10.17 0 0 1 -1.69,-2.44 c -0.59,0.84 -1.16,1.69 -1.64,2.44 -1,1.54 -1.92,3.18 -2.76,4.8 0.3,0.8 1.64,3.66 1.85,4.28 a 27.35,27.35 0 0 0 -2.37,-3.28 c -0.46,0.88 -0.93,1.73 -1.42,2.56 l -1,1.63 a 30.39,30.39 0 0 0 -0.35,8 46,46 0 0 1 -1.5,-5.06 c -0.24,0.37 -0.9,1.45 -1.09,1.74 -0.63,0.94 0.81,4.1 0.77,5.08 0,0.12 0,0.25 0,0.39 a 11.56,11.56 0 0 1 -0.29,2.05 5.22,5.22 0 0 1 1.87,-1.09 2.8,2.8 0 0 1 0.74,-0.06 c 0.45,0 3.5,0.45 4.23,-0.37 l 0.61,-0.69 a 0.81,0.81 0 0 1 -0.5,0 c -0.38,-0.16 -3,-0.92 -3.39,-1 a 25.78,25.78 0 0 0 3.79,0.44 4.71,4.71 0 0 0 1.3,-1 v 0 a 24.85,24.85 0 0 1 -3.58,-0.3 4.36,4.36 0 0 0 -1.74,-0.61 l 0.53,-0.77 -0.13,0.61 a 9.4,9.4 0 0 0 2.13,0.18 33.84,33.84 0 0 1 3.57,0.11 21.3,21.3 0 0 0 2.23,-3.55 26.74,26.74 0 0 1 -4,-0.47 4.42,4.42 0 0 0 -1.46,-0.19 1.85,1.85 0 0 1 1.17,-0.3 c 0.9,0.08 3.86,0.49 5,-0.58 0.51,-0.87 1,-1.77 1.47,-2.66 a 8.21,8.21 0 0 1 -4.77,-0.05 c 0,0 4.18,0.09 5.43,-1.25 a 39.13,39.13 0 0 0 1.77,-4 c -0.08,0.08 -3.09,0.33 -3.56,0.34 a 4.93,4.93 0 0 1 -1,-0.07 30,30 0 0 1 4.49,-1.09 6.58,6.58 0 0 0 0.57,-1.9 z"
       id="path18" />
    <path
       class="cls-11"
       d="m 25.77,24 a 3.51,3.51 0 0 0 1.14,-0.17 c 0,0 0,0.48 0.74,0.33 a 35.54,35.54 0 0 1 3.77,0 c -0.47,0.89 -1,1.79 -1.47,2.66 -1.18,1.07 -4.14,0.66 -5,0.58 a 2.14,2.14 0 0 0 -1.56,0.59 c 0,0 -1.39,-4.5 -1.91,-6.39 0.29,-0.5 0.57,-1 0.85,-1.55 0.2,0.27 2.38,2.89 2.4,3.4 0,-0.17 -1.55,-3.52 -1.88,-4.4 0.2,-0.37 0.39,-0.74 0.57,-1.12 0.23,0.93 2.42,4.71 2.35,6.07 z"
       id="path19" />
    <path
       class="cls-11"
       d="M 31.64,6.64 A 16.61,16.61 0 0 0 30,8.21 v 0 a 18,18 0 0 1 1.23,2.67 10.68,10.68 0 0 0 2.77,-0.05 11,11 0 0 0 -0.91,-4 1,1 0 0 0 -1.45,-0.19 z"
       id="path20" />
    <path
       class="cls-12"
       d="m 33.15,19 c -0.22,0 -0.47,0 -0.74,0.06 0.26,0 0.51,0 0.73,0 z"
       id="path21" />
    <path
       class="cls-12"
       d="m 31.1,19.14 c 0.4,0 0.87,0 1.31,-0.07 a 8.55,8.55 0 0 0 -1.31,0.07 z"
       id="path22" />
    <path
       class="cls-11"
       d="m 28.91,14.21 a 9.92,9.92 0 0 1 -1.66,-2.4 c -0.54,0.77 -1.06,1.53 -1.51,2.23 a 31.86,31.86 0 0 0 1.61,4.17 4.54,4.54 0 0 1 0.43,1.84 c 0,0 4.38,0.13 5.76,-0.87 0,0 -2.49,0 -2.44,0 h -0.81 v 0 a 6,6 0 0 1 -0.87,-0.05 h -0.11 v 0 a 33.38,33.38 0 0 1 3.88,-1 l 0.25,-0.17 a 26,26 0 0 0 0.67,-3.05 21.62,21.62 0 0 1 -4.52,1 c 0,0 -0.3,-0.78 -0.68,-1.7 z"
       id="path23" />
    <path
       class="cls-13"
       d="M 34.22,16.1 A 20.28,20.28 0 0 0 34.1,9.44 7,7 0 0 0 33.1,6.85 1,1 0 0 0 31.65,6.64 16.61,16.61 0 0 0 30,8.21 C 29.35,9 28.58,10 27.82,11 c 0.52,1.35 1.12,3.23 1.12,3.23 a 10.17,10.17 0 0 1 -1.69,-2.44 c -0.59,0.84 -1.16,1.69 -1.64,2.44 -1,1.54 -1.92,3.18 -2.76,4.8 0.3,0.8 1.64,3.66 1.85,4.28 a 27.35,27.35 0 0 0 -2.37,-3.28 c -0.46,0.88 -0.93,1.73 -1.42,2.56 l -1,1.63 a 30.39,30.39 0 0 0 -0.35,8 46,46 0 0 1 -1.5,-5.06 c -0.24,0.37 -0.9,1.45 -1.09,1.74 -0.63,0.94 0.81,4.1 0.77,5.08 0,0.12 0,0.25 0,0.39 a 11.56,11.56 0 0 1 -0.29,2.05 5.22,5.22 0 0 1 1.87,-1.09 2.8,2.8 0 0 1 0.74,-0.06 c 0.45,0 3.5,0.45 4.23,-0.37 l 0.61,-0.69 a 0.81,0.81 0 0 1 -0.5,0 c -0.38,-0.16 -3,-0.92 -3.39,-1 a 25.78,25.78 0 0 0 3.79,0.44 4.71,4.71 0 0 0 1.3,-1 v 0 a 24.85,24.85 0 0 1 -3.58,-0.3 4.36,4.36 0 0 0 -1.74,-0.61 l 0.53,-0.77 -0.13,0.61 a 9.4,9.4 0 0 0 2.13,0.18 33.84,33.84 0 0 1 3.57,0.11 21.3,21.3 0 0 0 2.23,-3.55 26.74,26.74 0 0 1 -4,-0.47 4.42,4.42 0 0 0 -1.46,-0.19 1.85,1.85 0 0 1 1.17,-0.3 c 0.9,0.08 3.86,0.49 5,-0.58 0.51,-0.87 1,-1.77 1.47,-2.66 a 8.21,8.21 0 0 1 -4.77,-0.05 c 0,0 4.18,0.09 5.43,-1.25 a 39.13,39.13 0 0 0 1.77,-4 c -0.08,0.08 -3.09,0.33 -3.56,0.34 a 4.93,4.93 0 0 1 -1,-0.07 30,30 0 0 1 4.49,-1.09 6.58,6.58 0 0 0 0.57,-1.9 z"
       id="path24"
       style="fill:url(#linear-gradient-2)" />
    <path
       class="cls-11"
       d="m 26.15,32.7 v 0 a 4.71,4.71 0 0 1 -1.3,1 A 25.78,25.78 0 0 1 21,33.26 c 0.41,0.07 3,0.83 3.39,1 a 0.81,0.81 0 0 0 0.5,0 c -0.23,0.27 -0.43,0.5 -0.61,0.69 -0.73,0.82 -3.78,0.39 -4.23,0.37 a 2.8,2.8 0 0 0 -0.74,0.06 5.22,5.22 0 0 0 -1.87,1.09 11.56,11.56 0 0 0 0.29,-2.05 c 0,-0.14 0,-0.26 0,-0.39 0,-1 -1.41,-4.14 -0.78,-5.08 0.19,-0.28 0.86,-1.37 1.09,-1.74 0.07,0.32 1.65,4.22 1.5,5.06 a 44.79,44.79 0 0 1 0.29,-7.73 c 0,0.39 0.39,-0.51 0.39,-0.51 a 57.29,57.29 0 0 1 0.55,7.81 4.36,4.36 0 0 1 1.74,0.61 24.85,24.85 0 0 0 3.64,0.25 z"
       id="path25" />
    <path
       class="cls-14"
       d="M 34.22,16.1 A 20.28,20.28 0 0 0 34.1,9.44 7,7 0 0 0 33.1,6.85 1,1 0 0 0 31.65,6.64 16.61,16.61 0 0 0 30,8.21 C 29.35,9 28.58,10 27.82,11 c 0.52,1.35 1.12,3.23 1.12,3.23 a 10.17,10.17 0 0 1 -1.69,-2.44 c -0.59,0.84 -1.16,1.69 -1.64,2.44 -1,1.54 -1.92,3.18 -2.76,4.8 0.3,0.8 1.64,3.66 1.85,4.28 a 27.35,27.35 0 0 0 -2.37,-3.28 c -0.46,0.88 -0.93,1.73 -1.42,2.56 l -1,1.63 a 30.39,30.39 0 0 0 -0.35,8 46,46 0 0 1 -1.5,-5.06 c -0.24,0.37 -0.9,1.45 -1.09,1.74 -0.63,0.94 0.81,4.1 0.77,5.08 0,0.12 0,0.25 0,0.39 a 11.56,11.56 0 0 1 -0.29,2.05 5.22,5.22 0 0 1 1.87,-1.09 2.8,2.8 0 0 1 0.74,-0.06 c 0.45,0 3.5,0.45 4.23,-0.37 l 0.61,-0.69 a 0.81,0.81 0 0 1 -0.5,0 c -0.38,-0.16 -3,-0.92 -3.39,-1 a 25.78,25.78 0 0 0 3.79,0.44 4.71,4.71 0 0 0 1.3,-1 v 0 a 24.85,24.85 0 0 1 -3.58,-0.3 4.36,4.36 0 0 0 -1.74,-0.61 l 0.53,-0.77 -0.13,0.61 a 9.4,9.4 0 0 0 2.13,0.18 33.84,33.84 0 0 1 3.57,0.11 21.3,21.3 0 0 0 2.23,-3.55 26.74,26.74 0 0 1 -4,-0.47 4.42,4.42 0 0 0 -1.46,-0.19 1.85,1.85 0 0 1 1.17,-0.3 c 0.9,0.08 3.86,0.49 5,-0.58 0.51,-0.87 1,-1.77 1.47,-2.66 a 8.21,8.21 0 0 1 -4.77,-0.05 c 0,0 4.18,0.09 5.43,-1.25 a 39.13,39.13 0 0 0 1.77,-4 c -0.08,0.08 -3.09,0.33 -3.56,0.34 a 4.93,4.93 0 0 1 -1,-0.07 30,30 0 0 1 4.49,-1.09 6.58,6.58 0 0 0 0.57,-1.9 z"
       id="path26" />
    <path
       class="cls-9"
       d="m 18.52,35.19 c 5.78,-8 11.17,-17 13.5,-26.7 0,0 0.07,0 0.06,0 C 30.83,16 27.32,23 23.43,29.39 l -4.13,6.35 a 0.48,0.48 0 1 1 -0.78,-0.55 z"
       id="path27" />
    <path
       class="cls-8"
       d="m 14.1,39.79 c 5.75,-7 11.14,-14.45 14.83,-22.76 A 74.65,74.65 0 0 0 32.1,8.51 c -1.07,6 -3.75,11.64 -6.75,16.93 A 131.62,131.62 0 0 1 15,40.52 0.58,0.58 0 0 1 14.11,39.79 Z"
       id="path28" />
    <path
       class="cls-15"
       d="M 13.16,40 A 192.72,192.72 0 0 0 11.82,3.53 c 0,-0.09 0.14,-0.14 0.17,0 2.74,8.84 3,18.2 3.48,27.38 0.11,3.07 0.19,6.13 0.19,9.23 A 1.25,1.25 0 0 1 14.41,41.39 1.26,1.26 0 0 1 13.16,40 Z"
       id="path29" />
    <path
       class="cls-16"
       d="M 15.2,9.35 A 32.39,32.39 0 0 0 13.06,3.41 6.83,6.83 0 0 0 11.82,1.55 C 11.54,1.26 11.2,1.55 11.14,2.04 11.08,2.53 11,3.2 11,4.19 c 0,0.99 0,2.26 0,3.55 0.64,1 1.48,2.38 1.48,2.38 A 6.42,6.42 0 0 1 10.91,8.7 c 0,1 0,2.06 0.07,3 0.06,1.85 0.18,3.75 0.34,5.6 0.37,0.58 1.83,2.53 2.12,3 a 15.61,15.61 0 0 0 -2,-1.85 c 0.08,1 0.14,2 0.2,2.95 0,0.68 0.07,1.31 0.1,1.91 a 50.76,50.76 0 0 0 2.36,7.34 c -0.55,-0.73 -2.09,-3.6 -2.22,-3.86 0,0.44 0.07,1.72 0.08,2.06 0,1.14 1.63,3.32 1.92,4.22 0,0.11 0.07,0.23 0.11,0.36 0.35,1.12 0.52,2 0.52,2 a 6.73,6.73 0 0 1 0.45,-1.84 1.8,1.8 0 0 1 0.29,-0.4 c 0.2,-0.19 1.62,-1.2 1.68,-2.28 0,-0.26 0,-0.55 0,-0.9 -0.06,0.14 -0.13,0.25 -0.2,0.26 a 12.79,12.79 0 0 0 -1.74,0.68 9.4,9.4 0 0 0 1.74,-1.36 7.21,7.21 0 0 0 0.27,-1.54 v 0 a 10.12,10.12 0 0 1 -1.61,1.37 c -0.31,0.08 -0.54,-0.11 -0.93,0.26 v -0.94 l 0.14,0.61 a 3.53,3.53 0 0 0 1,-0.82 14.48,14.48 0 0 1 1.47,-1.53 40.84,40.84 0 0 0 -0.17,-4.22 9.5,9.5 0 0 1 -1.82,1.39 1.57,1.57 0 0 0 -0.68,0.51 1.59,1.59 0 0 1 0.4,-0.82 4.63,4.63 0 0 0 2,-2.84 c -0.06,-1 -0.14,-2 -0.22,-3.06 a 3.71,3.71 0 0 1 -2,2.14 c 0,0 1.8,-1.84 1.91,-3.62 -0.15,-1.63 -0.33,-3.17 -0.52,-4.45 a 22.69,22.69 0 0 1 -1.4,1.95 2,2 0 0 1 -0.44,0.39 22.78,22.78 0 0 1 1.49,-3 12.9,12.9 0 0 0 -0.42,-2.02 z"
       id="path30" />
    <path
       class="cls-17"
       d="m 14.1,20.35 a 2.12,2.12 0 0 0 0.43,-0.68 c 0,0 0.16,0.43 0.41,0 a 17.27,17.27 0 0 1 1.6,-1.72 c 0.08,1 0.16,2.05 0.22,3.06 a 4.63,4.63 0 0 1 -2,2.84 2.28,2.28 0 0 0 -0.47,1.26 c 0,0 -2,-3.43 -2.79,-4.9 0,-0.59 -0.09,-1.19 -0.13,-1.78 a 12.39,12.39 0 0 1 2.08,1.95 c 0,-0.17 -1.76,-2.46 -2.17,-3.09 L 11.2,16 c 0.39,0.7 2.51,3.1 2.9,4.35 z"
       id="path31" />
    <path
       class="cls-17"
       d="M 11.14,2 C 11.09,2.52 11,3.2 11,4.19 v 0 A 16.58,16.58 0 0 1 12.31,6 5,5 0 0 0 13.46,4.69 13.52,13.52 0 0 0 11.82,1.52 C 11.54,1.26 11.2,1.51 11.14,2 Z"
       id="path32" />
    <path
       class="cls-12"
       d="m 15.66,12.47 -0.29,0.39 c 0.1,-0.12 0.21,-0.24 0.3,-0.36 z"
       id="path33" />
    <path
       class="cls-12"
       d="m 14.83,13.53 c 0.17,-0.2 0.36,-0.44 0.54,-0.67 a 4.62,4.62 0 0 0 -0.54,0.67 z"
       id="path34" />
    <path
       class="cls-17"
       d="M 12.36,10.1 A 6.25,6.25 0 0 1 10.91,8.7 c 0,1 0,1.87 0.06,2.71 a 32.12,32.12 0 0 0 2,3 5.54,5.54 0 0 1 0.77,1.46 c 0,0 1.89,-1.91 2.16,-3.44 0,0 -1.06,1.12 -1.05,1.09 l -0.33,0.4 v 0 a 2.67,2.67 0 0 1 -0.39,0.36 v 0 0 a 28.11,28.11 0 0 1 1.32,-2.71 2,2 0 0 0 0,-0.26 c -0.22,-1 -0.41,-2.17 -0.67,-3.06 a 16.77,16.77 0 0 1 -1.6,3 c 0,0 -0.37,-0.5 -0.82,-1.15 z"
       id="path35" />
    <path
       class="cls-18"
       d="M 15.2,9.35 A 32.39,32.39 0 0 0 13.06,3.41 6.83,6.83 0 0 0 11.82,1.55 C 11.54,1.26 11.2,1.55 11.14,2.04 11.08,2.53 11,3.2 11,4.19 c 0,0.99 0,2.26 0,3.55 0.64,1 1.48,2.38 1.48,2.38 A 6.42,6.42 0 0 1 10.91,8.7 c 0,1 0,2.06 0.07,3 0.06,1.85 0.18,3.75 0.34,5.6 0.37,0.58 1.83,2.53 2.12,3 a 15.61,15.61 0 0 0 -2,-1.85 c 0.08,1 0.14,2 0.2,2.95 0,0.68 0.07,1.31 0.1,1.91 a 50.76,50.76 0 0 0 2.36,7.34 c -0.55,-0.73 -2.09,-3.6 -2.22,-3.86 0,0.44 0.07,1.72 0.08,2.06 0,1.14 1.63,3.32 1.92,4.22 0,0.11 0.07,0.23 0.11,0.36 0.35,1.12 0.52,2 0.52,2 a 6.73,6.73 0 0 1 0.45,-1.84 1.8,1.8 0 0 1 0.29,-0.4 c 0.2,-0.19 1.62,-1.2 1.68,-2.28 0,-0.26 0,-0.55 0,-0.9 -0.06,0.14 -0.13,0.25 -0.2,0.26 a 12.79,12.79 0 0 0 -1.74,0.68 9.4,9.4 0 0 0 1.74,-1.36 7.21,7.21 0 0 0 0.27,-1.54 v 0 a 10.12,10.12 0 0 1 -1.61,1.37 c -0.31,0.08 -0.54,-0.11 -0.93,0.26 v -0.94 l 0.14,0.61 a 3.53,3.53 0 0 0 1,-0.82 14.48,14.48 0 0 1 1.47,-1.53 40.84,40.84 0 0 0 -0.17,-4.22 9.5,9.5 0 0 1 -1.82,1.39 1.57,1.57 0 0 0 -0.68,0.51 1.59,1.59 0 0 1 0.4,-0.82 4.63,4.63 0 0 0 2,-2.84 c -0.06,-1 -0.14,-2 -0.22,-3.06 a 3.71,3.71 0 0 1 -2,2.14 c 0,0 1.8,-1.84 1.91,-3.62 -0.15,-1.63 -0.33,-3.17 -0.52,-4.45 a 22.69,22.69 0 0 1 -1.4,1.95 2,2 0 0 1 -0.44,0.39 22.78,22.78 0 0 1 1.49,-3 12.9,12.9 0 0 0 -0.42,-2.02 z"
       id="path36"
       style="fill:url(#linear-gradient-3)" />
    <path
       class="cls-17"
       d="m 17,28 v 0 a 7.21,7.21 0 0 1 -0.25,1.46 9.4,9.4 0 0 1 -1.75,1.41 12.79,12.79 0 0 1 1.74,-0.68 c 0.07,0 0.14,-0.12 0.2,-0.26 0,0.35 0,0.65 0,0.9 0,1.08 -1.48,2.09 -1.68,2.28 a 1.8,1.8 0 0 0 -0.29,0.4 6.73,6.73 0 0 0 -0.45,1.84 c 0,0 -0.17,-0.86 -0.52,-2 0,-0.13 -0.08,-0.24 -0.11,-0.36 -0.29,-0.9 -1.89,-3.08 -1.92,-4.22 0,-0.33 -0.07,-1.62 -0.08,-2.06 a 31.29,31.29 0 0 1 2.22,3.86 73.74,73.74 0 0 1 -2.3,-7.09 c 0.11,0.36 0,-0.63 0,-0.63 0.73,1.57 2.52,6.11 2.68,6.77 0.39,-0.37 0.62,-0.18 0.93,-0.26 A 10.12,10.12 0 0 0 17,28 Z"
       id="path37" />
    <path
       class="cls-19"
       d="M 15.2,9.35 A 32.39,32.39 0 0 0 13.06,3.41 6.83,6.83 0 0 0 11.82,1.55 C 11.54,1.26 11.2,1.55 11.14,2.04 11.08,2.53 11,3.2 11,4.19 c 0,0.99 0,2.26 0,3.55 0.64,1 1.48,2.38 1.48,2.38 A 6.42,6.42 0 0 1 10.91,8.7 c 0,1 0,2.06 0.07,3 0.06,1.85 0.18,3.75 0.34,5.6 0.37,0.58 1.83,2.53 2.12,3 a 15.61,15.61 0 0 0 -2,-1.85 c 0.08,1 0.14,2 0.2,2.95 0,0.68 0.07,1.31 0.1,1.91 a 50.76,50.76 0 0 0 2.36,7.34 c -0.55,-0.73 -2.09,-3.6 -2.22,-3.86 0,0.44 0.07,1.72 0.08,2.06 0,1.14 1.63,3.32 1.92,4.22 0,0.11 0.07,0.23 0.11,0.36 0.35,1.12 0.52,2 0.52,2 a 6.73,6.73 0 0 1 0.45,-1.84 1.8,1.8 0 0 1 0.29,-0.4 c 0.2,-0.19 1.62,-1.2 1.68,-2.28 0,-0.26 0,-0.55 0,-0.9 -0.06,0.14 -0.13,0.25 -0.2,0.26 a 12.79,12.79 0 0 0 -1.74,0.68 9.4,9.4 0 0 0 1.74,-1.36 7.21,7.21 0 0 0 0.27,-1.54 v 0 a 10.12,10.12 0 0 1 -1.61,1.37 c -0.31,0.08 -0.54,-0.11 -0.93,0.26 v -0.94 l 0.14,0.61 a 3.53,3.53 0 0 0 1,-0.82 14.48,14.48 0 0 1 1.47,-1.53 40.84,40.84 0 0 0 -0.17,-4.22 9.5,9.5 0 0 1 -1.82,1.39 1.57,1.57 0 0 0 -0.68,0.51 1.59,1.59 0 0 1 0.4,-0.82 4.63,4.63 0 0 0 2,-2.84 c -0.06,-1 -0.14,-2 -0.22,-3.06 a 3.71,3.71 0 0 1 -2,2.14 c 0,0 1.8,-1.84 1.91,-3.62 -0.15,-1.63 -0.33,-3.17 -0.52,-4.45 a 22.69,22.69 0 0 1 -1.4,1.95 2,2 0 0 1 -0.44,0.39 22.78,22.78 0 0 1 1.49,-3 12.9,12.9 0 0 0 -0.42,-2.02 z"
       id="path38" />
    <path
       class="cls-15"
       d="M 14.44,33.83 A 155.57,155.57 0 0 0 11.88,3.52 c 0,0 0,0 0,0 2.47,9.89 3,20.16 3.22,30.31 a 0.35,0.35 0 0 1 -0.7,0 z"
       id="path39" />
    <path
       class="cls-8"
       d="m 14,40.05 c 0.37,-12.2 0.11,-24.5 -2.11,-36.53 0,0 0,0 0,0 2.84,11.94 2.94,24.34 2.9,36.56 a 0.42,0.42 0 0 1 -0.84,0 z"
       id="path40" />
  </g>
</svg>
