<?xml version="1.0" encoding="UTF-8" standalone="no"?>
<svg
   viewBox="0 0 48 48"
   version="1.1"
   id="svg46168"
   sodipodi:docname="17-Fence.svg"
   inkscape:version="1.1 (c68e22c387, 2021-05-23)"
   xmlns:inkscape="http://www.inkscape.org/namespaces/inkscape"
   xmlns:sodipodi="http://sodipodi.sourceforge.net/DTD/sodipodi-0.dtd"
   xmlns:xlink="http://www.w3.org/1999/xlink"
   xmlns="http://www.w3.org/2000/svg"
   xmlns:svg="http://www.w3.org/2000/svg">
  <sodipodi:namedview
     id="namedview46170"
     pagecolor="#ffffff"
     bordercolor="#666666"
     borderopacity="1.0"
     inkscape:pageshadow="2"
     inkscape:pageopacity="0.0"
     inkscape:pagecheckerboard="0"
     showgrid="false"
     inkscape:zoom="15.6875"
     inkscape:cx="26.804781"
     inkscape:cy="24"
     inkscape:window-width="2880"
     inkscape:window-height="1557"
     inkscape:window-x="-8"
     inkscape:window-y="-8"
     inkscape:window-maximized="1"
     inkscape:current-layer="svg46168" />
  <defs
     id="defs46092">
    <style
       id="style46034">.cls-1{fill:url(#radial-gradient);}.cls-2{fill:none;stroke:#a16c00;stroke-linecap:round;stroke-linejoin:round;stroke-width:1.4px;}.cls-3{fill:url(#linear-gradient);}.cls-4{fill:url(#linear-gradient-2);}.cls-5{fill:url(#linear-gradient-3);}.cls-6{fill:url(#linear-gradient-4);}.cls-7{fill:url(#linear-gradient-5);}.cls-8{fill:url(#linear-gradient-6);}.cls-9{fill:url(#linear-gradient-7);}.cls-10{fill:url(#linear-gradient-8);}.cls-11{fill:url(#linear-gradient-9);}.cls-12{fill:url(#linear-gradient-10);}.cls-13{fill:#fff;}.cls-14{fill:url(#linear-gradient-11);}.cls-15{fill:url(#linear-gradient-12);}.cls-16{fill:url(#linear-gradient-13);}.cls-17{fill:url(#linear-gradient-14);}.cls-18{fill:url(#linear-gradient-15);}.cls-19{fill:url(#linear-gradient-16);}.cls-20{fill:url(#linear-gradient-17);}.cls-21{fill:url(#linear-gradient-18);}.cls-22{fill:url(#linear-gradient-19);}.cls-23{fill:url(#linear-gradient-20);}.cls-24{fill:url(#linear-gradient-21);}.cls-25{fill:url(#linear-gradient-22);}.cls-26{fill:url(#linear-gradient-23);}</style>
    <radialGradient
       id="radial-gradient"
       cx="127.63"
       cy="-13.12"
       r="16.06"
       gradientTransform="matrix(1.48,0,0.01,-0.46,-165.39,25.65)"
       gradientUnits="userSpaceOnUse">
      <stop
         offset="0.03"
         stop-color="#2c2c2c"
         stop-opacity="0.5"
         id="stop46036" />
      <stop
         offset="0.68"
         stop-color="#2c2c2c"
         stop-opacity="0.1"
         id="stop46038" />
      <stop
         offset="0.93"
         stop-color="#2c2c2c"
         stop-opacity="0"
         id="stop46040" />
    </radialGradient>
    <linearGradient
       id="linear-gradient"
       x1="23.81"
       y1="14.64"
       x2="25.72"
       y2="50.69"
       gradientUnits="userSpaceOnUse">
      <stop
         offset="0"
         stop-color="#eec88d"
         id="stop46043" />
      <stop
         offset="1"
         stop-color="#c17d11"
         id="stop46045" />
    </linearGradient>
    <linearGradient
       id="linear-gradient-2"
       x1="10.7"
       y1="41.62"
       x2="33.81"
       y2="1.02"
       gradientUnits="userSpaceOnUse">
      <stop
         offset="0"
         stop-color="#fff"
         stop-opacity="0"
         id="stop46048" />
      <stop
         offset="1"
         stop-color="snow"
         id="stop46050" />
    </linearGradient>
    <linearGradient
       id="linear-gradient-3"
       x1="7.44"
       y1="27.27"
       x2="9.03"
       y2="26.06"
       gradientUnits="userSpaceOnUse">
      <stop
         offset="0"
         stop-color="#c17d11"
         id="stop46053" />
      <stop
         offset="1"
         stop-color="#8f5902"
         id="stop46055" />
    </linearGradient>
    <linearGradient
       id="linear-gradient-4"
       x1="22.66"
       y1="11.48"
       x2="26.65"
       y2="28.99"
       gradientUnits="userSpaceOnUse">
      <stop
         offset="0.21"
         stop-color="#eec88d"
         id="stop46058" />
      <stop
         offset="1"
         stop-color="#c17d11"
         id="stop46060" />
    </linearGradient>
    <linearGradient
       id="linear-gradient-5"
       x1="23.81"
       y1="24.37"
       x2="25.72"
       y2="60.41"
       xlink:href="#linear-gradient" />
    <linearGradient
       id="linear-gradient-6"
       x1="10.7"
       y1="51.34"
       x2="33.81"
       y2="10.74"
       xlink:href="#linear-gradient-2" />
    <linearGradient
       id="linear-gradient-7"
       x1="22.66"
       y1="21.2"
       x2="26.65"
       y2="38.71"
       xlink:href="#linear-gradient-4" />
    <linearGradient
       id="linear-gradient-8"
       x1="4.26"
       y1="45.18"
       x2="19.12"
       y2="16.52"
       gradientUnits="userSpaceOnUse">
      <stop
         offset="0"
         stop-color="#e9b96e"
         id="stop46066" />
      <stop
         offset="0.32"
         stop-color="#c17d11"
         id="stop46068" />
      <stop
         offset="1"
         stop-color="#8f5902"
         id="stop46070" />
    </linearGradient>
    <linearGradient
       id="linear-gradient-9"
       x1="13.58"
       y1="18.48"
       x2="10.64"
       y2="24.11"
       xlink:href="#linear-gradient"
       gradientTransform="matrix(1.1136851,0,0,1.1136851,-2.8089574,-0.83203406)" />
    <linearGradient
       id="linear-gradient-10"
       x1="14.91"
       y1="19.29"
       x2="7.57"
       y2="61.64"
       gradientUnits="userSpaceOnUse">
      <stop
         offset="0"
         stop-color="#f5deba"
         id="stop46074" />
      <stop
         offset="1"
         stop-color="#c17d11"
         id="stop46076" />
    </linearGradient>
    <linearGradient
       id="linear-gradient-11"
       x1="10.36"
       y1="42.25"
       x2="25.21"
       y2="13.58"
       xlink:href="#linear-gradient-8"
       gradientTransform="matrix(1.1136851,0,0,1.1136851,-2.8089574,-0.83203406)" />
    <linearGradient
       id="linear-gradient-12"
       x1="19.67"
       y1="15.55"
       x2="16.74"
       y2="21.17"
       xlink:href="#linear-gradient"
       gradientTransform="matrix(1.1136851,0,0,1.1136851,-2.8089574,-0.83203406)" />
    <linearGradient
       id="linear-gradient-13"
       x1="21.01"
       y1="16.36"
       x2="13.67"
       y2="58.71"
       xlink:href="#linear-gradient-10"
       gradientTransform="matrix(1.1136851,0,0,1.1136851,-2.8089574,-0.83203406)" />
    <linearGradient
       id="linear-gradient-14"
       x1="16.46"
       y1="39.31"
       x2="31.31"
       y2="10.64"
       xlink:href="#linear-gradient-8"
       gradientTransform="matrix(1.1136851,0,0,1.1136851,-2.8089574,-0.83203406)" />
    <linearGradient
       id="linear-gradient-15"
       x1="25.76"
       y1="12.61"
       x2="22.83"
       y2="18.24"
       xlink:href="#linear-gradient"
       gradientTransform="matrix(1.1136851,0,0,1.1136851,-2.8089574,-0.83203406)" />
    <linearGradient
       id="linear-gradient-16"
       x1="27.1"
       y1="13.42"
       x2="19.77"
       y2="55.77"
       xlink:href="#linear-gradient-10"
       gradientTransform="matrix(1.1136851,0,0,1.1136851,-2.8089574,-0.83203406)" />
    <linearGradient
       id="linear-gradient-17"
       x1="22.55"
       y1="36.37"
       x2="37.4"
       y2="7.71"
       xlink:href="#linear-gradient-8"
       gradientTransform="matrix(1.1136851,0,0,1.1136851,-2.8089574,-0.83203406)" />
    <linearGradient
       id="linear-gradient-18"
       x1="31.86"
       y1="9.68"
       x2="28.92"
       y2="15.3"
       xlink:href="#linear-gradient"
       gradientTransform="matrix(1.1136851,0,0,1.1136851,-2.8089574,-0.83203406)" />
    <linearGradient
       id="linear-gradient-19"
       x1="33.2"
       y1="10.48"
       x2="25.86"
       y2="52.83"
       xlink:href="#linear-gradient-10"
       gradientTransform="matrix(1.1136851,0,0,1.1136851,-2.8089574,-0.83203406)" />
    <linearGradient
       id="linear-gradient-20"
       x1="28.65"
       y1="33.44"
       x2="43.5"
       y2="4.77"
       xlink:href="#linear-gradient-8"
       gradientTransform="matrix(1.1136851,0,0,1.1136851,-2.8089574,-0.83203406)" />
    <linearGradient
       id="linear-gradient-21"
       x1="37.95"
       y1="6.75"
       x2="35.01"
       y2="12.37"
       xlink:href="#linear-gradient"
       gradientTransform="matrix(1.1136851,0,0,1.1136851,-2.8089574,-0.83203406)" />
    <linearGradient
       id="linear-gradient-22"
       x1="39.29"
       y1="7.54"
       x2="31.96"
       y2="49.89"
       xlink:href="#linear-gradient-10"
       gradientTransform="matrix(1.1136851,0,0,1.1136851,-2.8089574,-0.83203406)" />
    <linearGradient
       id="linear-gradient-23"
       x1="7.44"
       y1="36.99"
       x2="9.03"
       y2="35.78"
       xlink:href="#linear-gradient-3" />
    <linearGradient
       inkscape:collect="always"
       xlink:href="#linear-gradient"
       id="linearGradient46229"
       gradientUnits="userSpaceOnUse"
       x1="23.81"
       y1="14.64"
       x2="25.72"
       y2="50.69" />
    <linearGradient
       inkscape:collect="always"
       xlink:href="#linear-gradient-2"
       id="linearGradient46231"
       gradientUnits="userSpaceOnUse"
       x1="10.7"
       y1="41.62"
       x2="33.81"
       y2="1.02" />
    <linearGradient
       inkscape:collect="always"
       xlink:href="#linear-gradient-3"
       id="linearGradient46233"
       gradientUnits="userSpaceOnUse"
       x1="7.44"
       y1="27.27"
       x2="9.03"
       y2="26.06" />
    <linearGradient
       inkscape:collect="always"
       xlink:href="#linear-gradient-4"
       id="linearGradient46235"
       gradientUnits="userSpaceOnUse"
       x1="22.66"
       y1="11.48"
       x2="26.65"
       y2="28.99" />
    <linearGradient
       inkscape:collect="always"
       xlink:href="#linear-gradient-8"
       id="linearGradient46237"
       gradientUnits="userSpaceOnUse"
       x1="4.26"
       y1="45.18"
       x2="19.12"
       y2="16.52"
       gradientTransform="matrix(1.1136851,0,0,1.1136851,-2.8089574,-0.83203406)" />
    <linearGradient
       inkscape:collect="always"
       xlink:href="#linear-gradient-10"
       id="linearGradient46239"
       gradientUnits="userSpaceOnUse"
       x1="14.91"
       y1="19.29"
       x2="7.57"
       y2="61.64"
       gradientTransform="matrix(1.1136851,0,0,1.1136851,-2.8089574,-0.83203406)" />
  </defs>
  <title
     id="title46094">17-Fence</title>
  <g
     id="shadow"
     transform="matrix(1.1387602,0,0,1.1387602,-2.8755662,-1.9294527)"
     style="stroke-width:0.878148">
    <ellipse
       class="cls-1"
       cx="23.74"
       cy="32.330002"
       rx="22.889999"
       ry="7.1900001"
       transform="rotate(-24.17,23.732693,32.313309)"
       id="ellipse46096"
       style="fill:url(#radial-gradient);stroke-width:0.878148" />
  </g>
  <g
     id="g46345"
     transform="matrix(1.2669976,0,0,1.2677465,-6.1702214,-9.2384007)"
     style="stroke-width:0.789034">
    <path
       class="cls-2"
       d="m 42.239605,13.08903 v -1.937812 0 L 41.226151,10.661196 39.945414,11.28486 V 10.093217 A 0.91322178,0.91322178 0 0 0 39.722677,9.4472794 L 38.887413,8.5674682 37.873959,8.0774467 v 0 l -0.8464,1.6928014 a 2.1494122,2.1494122 0 0 0 -0.211601,0.7573059 v 0 c 0,0 0,0 0,0.07796 v 2.160549 l -3.664024,1.770759 v -1.169369 a 0.93549548,0.93549548 0 0 0 -0.2116,-0.645937 l -0.8464,-0.879812 -1.002317,-0.490021 v 0 l -0.846401,1.692801 a 2.1494122,2.1494122 0 0 0 -0.2116,0.757306 v 0 c 0,0 0,0.05568 0,0.07796 v 2.160549 l -3.664024,1.793033 V 16.641685 A 0.92435863,0.92435863 0 0 0 26.146855,15.984611 L 25.311591,15.1048 24.298138,14.625915 v 0 l -0.846401,1.692801 a 2.7396653,2.7396653 0 0 0 -0.155916,0.423201 v 0 c 0,0.111368 0,0.222737 -0.05568,0.322968 v 0 c 0,0 0,0.05569 0,0.0891 v 2.160549 l -3.664024,1.793033 v -1.202779 a 0.95776919,0.95776919 0 0 0 -0.2116,-0.645938 L 18.518116,18.379039 17.5158,17.900154 16.669399,19.592956 a 1.8487173,1.8487173 0 0 0 -0.155916,0.412063 0.14477906,0.14477906 0 0 1 0,0.06682 1.3141484,1.3141484 0 0 0 0,0.278422 v 0 c 0,0 0,0.06682 0,0.08909 v 2.171686 l -3.730845,1.77076 v -1.20278 a 0.89094808,0.89094808 0 0 0 -0.222737,-0.645938 l -0.835264,-0.879811 -0.356379,-0.2116 -0.645937,-0.311832 v 0 l -0.467748,0.935496 -0.3786531,0.757305 a 2.8955813,2.8955813 0 0 0 -0.1447791,0.400927 c 0,0 0,0.100232 0,0.144779 0,0.04455 0,0.144779 0,0.2116 v 0 c 0,0 0,0.06682 0,0.100232 v 2.216233 l -4.1317717,1.948949 v 0 1.937812 l 1.0134534,0.478885 3.0514972,-1.470064 v 7.918301 l -4.0649506,1.960085 v 0 1.937813 l 1.0134534,0.490021 3.0514972,-1.481201 v 2.026907 l 1.0134533,0.478884 2.116002,-1.013453 v -2.962403 l 3.664024,-1.770759 v 1.993496 l 1.002316,0.490022 2.116002,-1.02459 v -3.029224 l 3.664024,-1.770759 v 2.026907 l 1.013454,0.490021 2.116001,-1.013453 v -3.00695 l 3.664024,-1.770759 v 2.038043 l 1.002317,0.478885 2.116001,-1.013453 v -3.00695 l 3.664024,-1.77076 v 2.038044 l 1.013454,0.490022 2.116002,-1.024591 v -3.006949 l 2.294191,-1.113686 v -1.893264 0 l -1.013454,-0.478885 -1.280737,0.612527 v -7.918301 z m -22.663492,10.925251 3.664024,-1.77076 v 7.918301 l -3.664024,1.77076 z m 6.793479,-3.274235 3.664024,-1.770759 v 7.918301 l -3.664024,1.770759 z m -9.911797,4.777709 v 7.918301 l -3.675161,1.77076 v -7.918301 z m 16.705276,-0.133642 v -7.918301 l 3.664024,-1.770759 v 7.973985 z"
       id="path46099" />
    <path
       id="polygon46101"
       style="fill:url(#linearGradient46229);stroke-width:0.70849"
       class="cls-3"
       transform="matrix(1.1136851,0,0,1.1136851,-2.8089574,-0.83203406)"
       d="M 39.54,10.32 7.55,25.75 8.46,26.19 40.45,10.76 Z" />
    <path
       id="polygon46103"
       style="fill:url(#linearGradient46231);stroke-width:0.70849"
       class="cls-4"
       transform="matrix(1.1136851,0,0,1.1136851,-2.8089574,-0.83203406)"
       d="M 39.54,10.32 7.55,25.75 8.46,26.19 40.45,10.76 Z" />
    <path
       id="polygon46105"
       style="fill:url(#linearGradient46233);stroke-width:0.70849"
       class="cls-5"
       transform="matrix(1.1136851,0,0,1.1136851,-2.8089574,-0.83203406)"
       d="M 8.46,26.19 7.55,25.75 v 1.74 l 0.91,0.43 z" />
    <path
       id="polygon46107"
       style="fill:url(#linearGradient46235);stroke-width:0.70849"
       class="cls-6"
       transform="matrix(1.1136851,0,0,1.1136851,-2.8089574,-0.83203406)"
       d="M 8.46,26.19 40.45,10.76 V 12.5 L 8.46,27.92 Z" />
    <path
       id="polygon46109"
       style="fill:url(#linear-gradient-5);stroke-width:0.70849"
       class="cls-7"
       transform="matrix(1.1136851,0,0,1.1136851,-2.8089574,-0.83203406)"
       d="M 39.54,20.05 7.55,35.47 8.46,35.91 40.45,20.48 Z" />
    <path
       id="polygon46111"
       style="fill:url(#linear-gradient-6);stroke-width:0.70849"
       class="cls-8"
       transform="matrix(1.1136851,0,0,1.1136851,-2.8089574,-0.83203406)"
       d="M 39.54,20.05 7.55,35.47 8.46,35.91 40.45,20.48 Z" />
    <path
       id="polygon46113"
       style="fill:url(#linear-gradient-7);stroke-width:0.70849"
       class="cls-9"
       transform="matrix(1.1136851,0,0,1.1136851,-2.8089574,-0.83203406)"
       d="M 8.46,35.91 40.45,20.48 v 1.74 L 8.46,37.65 Z" />
    <path
       class="cls-10"
       d="M 12.081012,22.288069 11.73577,21.653268 10.722317,21.163247 9.8870527,22.856048 a 1.8932647,1.8932647 0 0 0 -0.222737,0.857538 v 17.93033 l 1.0134533,0.478884 1.614844,-1.247327 v -17.93033 a 0.96890604,0.96890604 0 0 0 -0.211601,-0.657074 z"
       id="path46115"
       style="fill:url(#linearGradient46237);stroke-width:0.789034" />
    <path
       class="cls-11"
       d="m 11.902823,21.976237 -1.113685,2.22737 -1.1248223,-0.534569 a 2.1494122,2.1494122 0 0 1 0.2116002,-0.757306 l 0.8464011,-1.692801 1.002316,0.490021 z"
       id="path46117"
       style="fill:url(#linear-gradient-9);stroke-width:0.789034" />
    <path
       class="cls-12"
       d="m 12.571034,22.555353 -0.835264,-0.879811 -0.846401,1.692801 a 2.0269069,2.0269069 0 0 0 -0.2116,0.857538 V 42.1228 l 2.116002,-1.013453 v -17.93033 a 0.89094808,0.89094808 0 0 0 -0.222737,-0.623664 z"
       id="path46119"
       style="fill:url(#linearGradient46239);stroke-width:0.789034" />
    <path
       id="ellipse46121"
       style="fill:#ffffff;stroke-width:0.789034"
       class="cls-13"
       transform="rotate(-65.420001)"
       d="m -19.980831,22.221369 a 0.40092665,0.24501072 0 0 1 -0.400927,0.245011 0.40092665,0.24501072 0 0 1 -0.400926,-0.245011 0.40092665,0.24501072 0 0 1 0.400926,-0.245011 0.40092665,0.24501072 0 0 1 0.400927,0.245011 z" />
    <path
       id="ellipse46123"
       style="fill:#ffffff;stroke-width:0.789034"
       class="cls-13"
       transform="rotate(-65.420001)"
       d="m -29.818356,26.72019 a 0.40092665,0.24501072 0 0 1 -0.400926,0.245011 0.40092665,0.24501072 0 0 1 -0.400927,-0.245011 0.40092665,0.24501072 0 0 1 0.400927,-0.245011 0.40092665,0.24501072 0 0 1 0.400926,0.245011 z" />
    <path
       class="cls-14"
       d="m 18.863355,19.024971 -0.345243,-0.645937 -1.002316,-0.478885 -0.846401,1.681665 a 2.0714543,2.0714543 0 0 0 -0.2116,0.857537 v 17.93033 l 1.002316,0.490022 1.625981,-1.258464 v -17.93033 a 0.89094808,0.89094808 0 0 0 -0.222737,-0.645938 z"
       id="path46125"
       style="fill:url(#linear-gradient-11);stroke-width:0.789034" />
    <path
       class="cls-15"
       d="m 18.696302,18.713139 -1.058001,2.227371 -1.180506,-0.612527 a 2.1494122,2.1494122 0 0 1 0.2116,-0.757306 l 0.846401,-1.692801 1.002316,0.490021 z"
       id="path46127"
       style="fill:url(#linear-gradient-12);stroke-width:0.789034" />
    <path
       class="cls-16"
       d="m 19.364513,19.214298 -0.846401,-0.879811 -0.835264,1.692801 a 1.8932647,1.8932647 0 0 0 -0.222737,0.857537 v 17.930331 l 2.116002,-1.024591 V 19.904783 a 0.95776919,0.95776919 0 0 0 -0.2116,-0.690485 z"
       id="path46129"
       style="fill:url(#linear-gradient-13);stroke-width:0.789034" />
    <path
       id="ellipse46131"
       style="fill:#ffffff;stroke-width:0.789034"
       class="cls-13"
       transform="rotate(-65.420001)"
       d="m -14.181189,27.026279 a 0.40092665,0.24501072 0 0 1 -0.400926,0.245011 0.40092665,0.24501072 0 0 1 -0.400927,-0.245011 0.40092665,0.24501072 0 0 1 0.400927,-0.24501 0.40092665,0.24501072 0 0 1 0.400926,0.24501 z" />
    <path
       id="ellipse46133"
       style="fill:#ffffff;stroke-width:0.789034"
       class="cls-13"
       transform="rotate(-65.420001)"
       d="m -24.028841,31.540871 a 0.40092665,0.24501072 0 0 1 -0.400927,0.24501 0.40092665,0.24501072 0 0 1 -0.400926,-0.24501 0.40092665,0.24501072 0 0 1 0.400926,-0.245011 0.40092665,0.24501072 0 0 1 0.400927,0.245011 z" />
    <path
       class="cls-17"
       d="M 25.656834,15.750737 25.311591,15.1048 24.298138,14.625915 23.462874,16.318716 a 1.8932647,1.8932647 0 0 0 -0.222737,0.857538 v 17.919193 l 1.013454,0.490022 1.614843,-1.258464 V 16.396674 a 0.95776919,0.95776919 0 0 0 -0.2116,-0.645937 z"
       id="path46135"
       style="fill:url(#linear-gradient-14);stroke-width:0.789034" />
    <path
       class="cls-18"
       d="m 25.478644,15.438905 -1.058001,2.22737 -1.180506,-0.567979 a 2.1494122,2.1494122 0 0 1 0.2116,-0.757306 l 0.846401,-1.692801 1.002317,0.490021 z"
       id="path46137"
       style="fill:url(#linear-gradient-15);stroke-width:0.789034" />
    <path
       class="cls-19"
       d="m 26.146855,15.984611 -0.835264,-0.879811 -0.8464,1.692801 a 2.0714543,2.0714543 0 0 0 -0.2116,0.857538 v 17.93033 l 2.116001,-1.013454 v -17.93033 a 0.92435863,0.92435863 0 0 0 -0.222737,-0.657074 z"
       id="path46139"
       style="fill:url(#linear-gradient-16);stroke-width:0.789034" />
    <path
       id="ellipse46141"
       style="fill:#ffffff;stroke-width:0.789034"
       class="cls-13"
       transform="rotate(-65.420001)"
       d="m -8.380536,31.846962 a 0.40092665,0.24501072 0 0 1 -0.4009267,0.245011 0.40092665,0.24501072 0 0 1 -0.4009266,-0.245011 0.40092665,0.24501072 0 0 1 0.4009266,-0.245011 0.40092665,0.24501072 0 0 1 0.4009267,0.245011 z" />
    <path
       id="ellipse46143"
       style="fill:#ffffff;stroke-width:0.789034"
       class="cls-13"
       transform="rotate(-65.420001)"
       d="m -18.228188,36.350414 a 0.40092665,0.24501072 0 0 1 -0.400926,0.245011 0.40092665,0.24501072 0 0 1 -0.400927,-0.245011 0.40092665,0.24501072 0 0 1 0.400927,-0.24501 0.40092665,0.24501072 0 0 1 0.400926,0.24501 z" />
    <path
       class="cls-20"
       d="m 32.439176,12.532187 -0.345242,-0.6348 -1.002317,-0.490022 -0.846401,1.692802 a 2.0269069,2.0269069 0 0 0 -0.2116,0.857537 v 17.93033 l 1.002317,0.478885 1.62598,-1.258464 V 13.133577 a 0.92435863,0.92435863 0 0 0 -0.222737,-0.60139 z"
       id="path46145"
       style="fill:url(#linear-gradient-17);stroke-width:0.789034" />
    <path
       class="cls-21"
       d="m 32.260986,12.175808 -1.058,2.22737 -1.180507,-0.567979 a 2.1494122,2.1494122 0 0 1 0.211601,-0.757306 l 0.8464,-1.659391 1.002317,0.490021 z"
       id="path46147"
       style="fill:url(#linear-gradient-18);stroke-width:0.789034" />
    <path
       class="cls-22"
       d="m 32.940334,12.721514 -0.8464,-0.879812 -0.835264,1.692802 a 1.8932647,1.8932647 0 0 0 -0.222737,0.857537 v 17.919194 l 2.116001,-1.013454 v -17.93033 a 0.93549548,0.93549548 0 0 0 -0.2116,-0.645937 z"
       id="path46149"
       style="fill:url(#linear-gradient-19);stroke-width:0.789034" />
    <path
       id="ellipse46151"
       style="fill:#ffffff;stroke-width:0.789034"
       class="cls-13"
       transform="rotate(-65.420001)"
       d="m -2.5910196,36.656506 a 0.40092665,0.24501072 0 0 1 -0.4009266,0.24501 0.40092665,0.24501072 0 0 1 -0.4009267,-0.24501 0.40092665,0.24501072 0 0 1 0.4009267,-0.245011 0.40092665,0.24501072 0 0 1 0.4009266,0.245011 z" />
    <path
       id="ellipse46153"
       style="fill:#ffffff;stroke-width:0.789034"
       class="cls-13"
       transform="rotate(-65.420001)"
       d="m -12.438672,41.159962 a 0.40092665,0.24501072 0 0 1 -0.400927,0.24501 0.40092665,0.24501072 0 0 1 -0.400926,-0.24501 0.40092665,0.24501072 0 0 1 0.400926,-0.245011 0.40092665,0.24501072 0 0 1 0.400927,0.245011 z" />
    <path
       class="cls-23"
       d="M 39.232655,9.1911318 38.887413,8.5451945 37.873959,8.0774467 37.038695,9.7591112 a 1.9266752,1.9266752 0 0 0 -0.222737,0.8575378 v 17.93033 L 37.829412,29.037 39.444255,27.778536 V 9.8593429 a 0.93549548,0.93549548 0 0 0 -0.2116,-0.6682111 z"
       id="path46155"
       style="fill:url(#linear-gradient-20);stroke-width:0.789034" />
    <path
       class="cls-24"
       d="m 39.043329,8.9015737 -1.058001,2.2273703 -1.180506,-0.567979 a 2.1494122,2.1494122 0 0 1 0.2116,-0.7573064 l 0.8464,-1.7262119 1.002317,0.4900215 z"
       id="path46157"
       style="fill:url(#linear-gradient-21);stroke-width:0.789034" />
    <path
       class="cls-25"
       d="M 39.722677,9.4472794 38.887413,8.5674682 38.041012,10.304817 a 2.0269069,2.0269069 0 0 0 -0.2116,0.857537 v 17.930331 l 2.116002,-1.024591 V 10.093217 A 0.91322178,0.91322178 0 0 0 39.722677,9.4472794 Z"
       id="path46159"
       style="fill:url(#linear-gradient-22);stroke-width:0.789034" />
    <path
       id="ellipse46161"
       style="fill:#ffffff;stroke-width:0.789034"
       class="cls-13"
       transform="rotate(-65.420001)"
       d="M 3.2096313,41.466049 A 0.40092665,0.24501072 0 0 1 2.8087046,41.71106 0.40092665,0.24501072 0 0 1 2.407778,41.466049 0.40092665,0.24501072 0 0 1 2.8087046,41.221038 0.40092665,0.24501072 0 0 1 3.2096313,41.466049 Z" />
    <path
       id="ellipse46163"
       style="fill:#ffffff;stroke-width:0.789034"
       class="cls-13"
       transform="rotate(-65.420001)"
       d="m -6.6380209,45.969505 a 0.40092665,0.24501072 0 0 1 -0.4009267,0.245011 0.40092665,0.24501072 0 0 1 -0.4009266,-0.245011 0.40092665,0.24501072 0 0 1 0.4009266,-0.24501 0.40092665,0.24501072 0 0 1 0.4009267,0.24501 z" />
    <path
       id="polygon46165"
       style="fill:url(#linear-gradient-23);stroke-width:0.70849"
       class="cls-26"
       transform="matrix(1.1136851,0,0,1.1136851,-2.8089574,-0.83203406)"
       d="M 8.46,35.91 7.55,35.47 v 1.74 l 0.91,0.44 z" />
  </g>
</svg>
