<?xml version="1.0" encoding="UTF-8" standalone="no"?>
<svg
   viewBox="0 0 48 48"
   version="1.1"
   id="svg23010"
   sodipodi:docname="fireball.svg"
   inkscape:version="1.1 (c68e22c387, 2021-05-23)"
   xmlns:inkscape="http://www.inkscape.org/namespaces/inkscape"
   xmlns:sodipodi="http://sodipodi.sourceforge.net/DTD/sodipodi-0.dtd"
   xmlns:xlink="http://www.w3.org/1999/xlink"
   xmlns="http://www.w3.org/2000/svg"
   xmlns:svg="http://www.w3.org/2000/svg">
  <sodipodi:namedview
     id="namedview23012"
     pagecolor="#ffffff"
     bordercolor="#666666"
     borderopacity="1.0"
     inkscape:pageshadow="2"
     inkscape:pageopacity="0.0"
     inkscape:pagecheckerboard="0"
     showgrid="false"
     inkscape:zoom="15.6875"
     inkscape:cx="24"
     inkscape:cy="24"
     inkscape:window-width="2560"
     inkscape:window-height="1377"
     inkscape:window-x="-8"
     inkscape:window-y="-8"
     inkscape:window-maximized="1"
     inkscape:current-layer="svg23010" />
  <defs
     id="defs22938">
    <style
       id="style22851">.cls-1{fill:url(#radial-gradient);}.cls-2{fill:url(#radial-gradient-2);}.cls-3{fill:url(#linear-gradient);}.cls-4{fill:#ef6308;}.cls-5{fill:url(#radial-gradient-3);}.cls-6{fill:url(#linear-gradient-2);}.cls-32,.cls-7{fill:none;stroke:#f89f30;stroke-miterlimit:10;}.cls-7{stroke-width:0.7px;}.cls-8{fill:url(#radial-gradient-4);}.cls-9{fill:url(#linear-gradient-3);}.cls-10{fill:url(#linear-gradient-4);}.cls-11{fill:url(#linear-gradient-5);}.cls-12{fill:url(#linear-gradient-6);}.cls-13{fill:url(#linear-gradient-7);}.cls-14{fill:url(#linear-gradient-8);}.cls-15{fill:url(#linear-gradient-9);}.cls-16{fill:url(#radial-gradient-5);}.cls-17{fill:url(#linear-gradient-10);}.cls-18{fill:url(#linear-gradient-11);}.cls-19{fill:url(#radial-gradient-6);}.cls-20{fill:url(#linear-gradient-12);}.cls-21{fill:url(#radial-gradient-7);}.cls-22{fill:url(#linear-gradient-13);}.cls-23{fill:url(#linear-gradient-14);}.cls-24{fill:url(#linear-gradient-15);}.cls-25{fill:url(#linear-gradient-16);}.cls-26{fill:url(#linear-gradient-17);}.cls-27{fill:url(#linear-gradient-18);}.cls-28{fill:url(#linear-gradient-19);}.cls-29{fill:url(#linear-gradient-20);}.cls-30{fill:url(#radial-gradient-8);}.cls-31{fill:url(#linear-gradient-21);}.cls-32{stroke-width:0.8px;}</style>
    <radialGradient
       id="radial-gradient"
       cx="-11.79"
       cy="-65.63"
       r="9.06"
       gradientTransform="matrix(0,1.27,-0.49,0,-3.99,58.38)"
       gradientUnits="userSpaceOnUse">
      <stop
         offset="0"
         stop-color="#212121"
         stop-opacity="0.5"
         id="stop22853" />
      <stop
         offset="0.42"
         stop-color="#212121"
         stop-opacity="0.21"
         id="stop22855" />
      <stop
         offset="0.95"
         stop-color="#212121"
         stop-opacity="0"
         id="stop22857" />
    </radialGradient>
    <radialGradient
       id="radial-gradient-2"
       cx="30.24"
       cy="38.46"
       r="6.72"
       gradientUnits="userSpaceOnUse">
      <stop
         offset="0"
         stop-color="#fae63f"
         id="stop22860" />
      <stop
         offset="0.36"
         stop-color="#f89f30"
         id="stop22862" />
      <stop
         offset="1"
         stop-color="#ef6308"
         id="stop22864" />
    </radialGradient>
    <linearGradient
       id="linear-gradient"
       x1="25.75"
       y1="42.85"
       x2="27.21"
       y2="35.83"
       gradientUnits="userSpaceOnUse">
      <stop
         offset="0"
         stop-color="#fbf392"
         id="stop22867" />
      <stop
         offset="1"
         stop-color="#f57900"
         id="stop22869" />
    </linearGradient>
    <radialGradient
       id="radial-gradient-3"
       cx="26.27"
       cy="19.87"
       r="9.21"
       xlink:href="#radial-gradient-2" />
    <linearGradient
       id="linear-gradient-2"
       x1="21.34"
       y1="33.01"
       x2="25.23"
       y2="24.61"
       gradientUnits="userSpaceOnUse">
      <stop
         offset="0"
         stop-color="#2e3436"
         stop-opacity="0.75"
         id="stop22873" />
      <stop
         offset="1"
         stop-color="#ef6308"
         id="stop22875" />
    </linearGradient>
    <radialGradient
       id="radial-gradient-4"
       cx="22.3"
       cy="20.82"
       r="21.82"
       xlink:href="#radial-gradient-2" />
    <linearGradient
       id="linear-gradient-3"
       x1="20.33"
       y1="35.97"
       x2="20.98"
       y2="29.93"
       gradientUnits="userSpaceOnUse">
      <stop
         offset="0"
         stop-color="#2e3436"
         stop-opacity="0.51"
         id="stop22879" />
      <stop
         offset="1"
         stop-color="#ef6308"
         id="stop22881" />
    </linearGradient>
    <linearGradient
       id="linear-gradient-4"
       x1="40.92"
       y1="30.38"
       x2="33.27"
       y2="23.84"
       gradientUnits="userSpaceOnUse">
      <stop
         offset="0.53"
         stop-color="#2e3436"
         stop-opacity="0.65"
         id="stop22884" />
      <stop
         offset="1"
         stop-color="#ef6308"
         id="stop22886" />
    </linearGradient>
    <linearGradient
       id="linear-gradient-5"
       x1="26.64"
       y1="22.12"
       x2="38.18"
       y2="20.48"
       gradientUnits="userSpaceOnUse">
      <stop
         offset="0.01"
         stop-color="#fdf9c8"
         id="stop22889" />
      <stop
         offset="1"
         stop-color="#fae63f"
         id="stop22891" />
    </linearGradient>
    <linearGradient
       id="linear-gradient-6"
       x1="8.5"
       y1="19.01"
       x2="10.91"
       y2="27.47"
       xlink:href="#linear-gradient" />
    <linearGradient
       id="linear-gradient-7"
       x1="6.5"
       y1="19.43"
       x2="11.84"
       y2="18.91"
       gradientUnits="userSpaceOnUse">
      <stop
         offset="0"
         stop-color="#2e3436"
         stop-opacity="0.6"
         id="stop22895" />
      <stop
         offset="1"
         stop-color="#ef6308"
         id="stop22897" />
    </linearGradient>
    <linearGradient
       id="linear-gradient-8"
       x1="18.88"
       y1="17.99"
       x2="13.4"
       y2="29.44"
       xlink:href="#linear-gradient-5" />
    <linearGradient
       id="linear-gradient-9"
       x1="9.7"
       y1="29.81"
       x2="12.04"
       y2="26.69"
       gradientUnits="userSpaceOnUse">
      <stop
         offset="0"
         stop-color="#2e3436"
         stop-opacity="0.65"
         id="stop22901" />
      <stop
         offset="1"
         stop-color="#ef6308"
         id="stop22903" />
    </linearGradient>
    <radialGradient
       id="radial-gradient-5"
       cx="29.4"
       cy="7.94"
       r="15.21"
       gradientTransform="matrix(1.03, -0.03, 0.03, 1.07, -1.53, 0.64)"
       gradientUnits="userSpaceOnUse">
      <stop
         offset="0.36"
         stop-color="#f89f30"
         id="stop22906" />
      <stop
         offset="1"
         stop-color="#ef6308"
         id="stop22908" />
    </radialGradient>
    <linearGradient
       id="linear-gradient-10"
       x1="18.86"
       y1="8.54"
       x2="16.79"
       y2="13.6"
       gradientUnits="userSpaceOnUse">
      <stop
         offset="0"
         stop-color="#555753"
         stop-opacity="0.3"
         id="stop22911" />
      <stop
         offset="1"
         stop-color="#ef6308"
         id="stop22913" />
    </linearGradient>
    <linearGradient
       id="linear-gradient-11"
       x1="18.88"
       y1="5.03"
       x2="34.6"
       y2="5.03"
       gradientTransform="translate(-0.37 0.65) rotate(-1.55)"
       gradientUnits="userSpaceOnUse">
      <stop
         offset="0"
         stop-color="#fbf392"
         id="stop22916" />
      <stop
         offset="1"
         stop-color="#fae63f"
         id="stop22918" />
    </linearGradient>
    <radialGradient
       id="radial-gradient-6"
       cx="27.41"
       cy="13.94"
       r="13.72"
       xlink:href="#radial-gradient-5" />
    <linearGradient
       id="linear-gradient-12"
       x1="36.66"
       y1="21.25"
       x2="32.56"
       y2="8.09"
       xlink:href="#linear-gradient-9" />
    <radialGradient
       id="radial-gradient-7"
       cx="24.49"
       cy="8.56"
       r="22.9"
       gradientTransform="matrix(1.11,-0.03,-0.07,1.15,0.78,1.39)"
       xlink:href="#radial-gradient-2" />
    <linearGradient
       id="linear-gradient-13"
       x1="26.14"
       y1="13.27"
       x2="35.05"
       y2="13.27"
       xlink:href="#linear-gradient-11" />
    <linearGradient
       id="linear-gradient-14"
       x1="7.84"
       y1="10.75"
       x2="20.39"
       y2="10.75"
       xlink:href="#linear-gradient-11" />
    <linearGradient
       id="linear-gradient-15"
       x1="26.4"
       y1="6.78"
       x2="26.59"
       y2="14.04"
       gradientTransform="rotate(-1.55,23.840797,14.001223)"
       gradientUnits="userSpaceOnUse">
      <stop
         offset="0"
         stop-color="#fdfad0"
         id="stop22926" />
      <stop
         offset="1"
         stop-color="#fae63f"
         id="stop22928" />
    </linearGradient>
    <linearGradient
       id="linear-gradient-16"
       x1="21.86"
       y1="11.21"
       x2="20.59"
       y2="17.53"
       xlink:href="#linear-gradient-9" />
    <linearGradient
       id="linear-gradient-17"
       x1="29.37"
       y1="9.08"
       x2="29.81"
       y2="14.69"
       xlink:href="#linear-gradient-11" />
    <linearGradient
       id="linear-gradient-18"
       x1="23.02"
       y1="7.68"
       x2="22.37"
       y2="11.35"
       xlink:href="#linear-gradient-11" />
    <linearGradient
       id="linear-gradient-19"
       x1="11.33"
       y1="22.56"
       x2="17.1"
       y2="30.25"
       xlink:href="#linear-gradient" />
    <linearGradient
       id="linear-gradient-20"
       x1="22.41"
       y1="21.39"
       x2="21.64"
       y2="28.98"
       xlink:href="#linear-gradient-5" />
    <radialGradient
       id="radial-gradient-8"
       cx="26.93"
       cy="37.63"
       r="7.38"
       gradientTransform="matrix(1,0,-0.36,1.05,13.41,-2.14)"
       xlink:href="#radial-gradient-2" />
    <linearGradient
       id="linear-gradient-21"
       x1="23.51"
       y1="43.17"
       x2="26.79"
       y2="39.76"
       xlink:href="#linear-gradient-2" />
    <radialGradient
       inkscape:collect="always"
       xlink:href="#radial-gradient-2"
       id="radialGradient23181"
       gradientUnits="userSpaceOnUse"
       cx="30.24"
       cy="38.46"
       r="6.72" />
    <linearGradient
       inkscape:collect="always"
       xlink:href="#linear-gradient"
       id="linearGradient23183"
       gradientUnits="userSpaceOnUse"
       x1="25.75"
       y1="42.85"
       x2="27.21"
       y2="35.83" />
    <linearGradient
       inkscape:collect="always"
       xlink:href="#linear-gradient-2"
       id="linearGradient23185"
       gradientUnits="userSpaceOnUse"
       x1="21.34"
       y1="33.01"
       x2="25.23"
       y2="24.61" />
    <linearGradient
       inkscape:collect="always"
       xlink:href="#linear-gradient-5"
       id="linearGradient23187"
       gradientUnits="userSpaceOnUse"
       x1="26.64"
       y1="22.12"
       x2="38.18"
       y2="20.48" />
    <linearGradient
       inkscape:collect="always"
       xlink:href="#linear-gradient-9"
       id="linearGradient23189"
       gradientUnits="userSpaceOnUse"
       x1="9.7"
       y1="29.81"
       x2="12.04"
       y2="26.69" />
    <radialGradient
       inkscape:collect="always"
       xlink:href="#radial-gradient-5"
       id="radialGradient23191"
       gradientUnits="userSpaceOnUse"
       gradientTransform="matrix(1.03,-0.03,0.03,1.07,-1.53,0.64)"
       cx="29.4"
       cy="7.94"
       r="15.21" />
    <linearGradient
       inkscape:collect="always"
       xlink:href="#linear-gradient-11"
       id="linearGradient23193"
       gradientUnits="userSpaceOnUse"
       gradientTransform="rotate(-1.55,23.840797,14.001223)"
       x1="18.88"
       y1="5.03"
       x2="34.6"
       y2="5.03" />
  </defs>
  <g
     id="shadow"
     transform="matrix(1.6667721,0,0,0.8517665,-22.186181,7.3332176)"
     style="stroke-width:0.83927">
    <ellipse
       class="cls-1"
       cx="28.299999"
       cy="43.450001"
       rx="4.3000002"
       ry="11.09"
       transform="rotate(-89.71,28.301483,43.448793)"
       id="ellipse22940"
       style="fill:url(#radial-gradient);stroke-width:0.83927" />
  </g>
  <g
     id="ART"
     transform="matrix(1.0260837,0,0,1.0260238,-2.4663181,-0.21059617)"
     style="stroke-width:0.974608">
    <path
       class="cls-2"
       d="m 28.12,37.48 c 1,0.19 2.46,1.75 1.59,3.24 a 2.61,2.61 0 0 1 1.67,0.8 1.41,1.41 0 0 1 0.29,1.27 c 0,0 1.3,0.22 1.41,0.8 0.11,0.58 -0.29,0.67 -0.29,0.67 a 17.59,17.59 0 0 1 -4.17,-0.13 c -2,-0.35 -3.55,-5.64 -3.59,-6.08 -0.04,-0.44 3.09,-0.57 3.09,-0.57 z"
       id="path22943"
       style="fill:url(#radialGradient23181);stroke-width:0.974608" />
    <path
       class="cls-3"
       d="M 27,42.57 H 26.93 A 16.31,16.31 0 0 1 25,38.05 a 0.16,0.16 0 0 1 0,-0.1 l 1.45,0.32 c 0.77,0.29 0.53,1.36 0.53,1.36 A 1.76,1.76 0 0 1 27,42.57 Z"
       id="path22945"
       style="fill:url(#linearGradient23183);stroke-width:0.974608" />
    <path
       class="cls-4"
       d="m 32.79,44.26 a 18.5,18.5 0 0 1 -3.64,0 0.26,0.26 0 0 1 0.1,-0.21 1.7,1.7 0 0 0 0.1,-2.23 2.41,2.41 0 0 0 -1.5,-0.6 2.83,2.83 0 0 0 0.64,-1.75 1.42,1.42 0 0 0 -0.58,-1.12 l 0.56,-0.7 c 0.93,0.43 2,1.8 1.24,3.12 a 2.61,2.61 0 0 1 1.67,0.8 1.41,1.41 0 0 1 0.29,1.27 c 0,0 1.3,0.22 1.41,0.8 0.11,0.58 -0.29,0.62 -0.29,0.62 z"
       id="path22947"
       style="stroke-width:0.974608" />
    <path
       class="cls-5"
       d="m 37.5,29.07 a 2.1,2.1 0 0 1 -0.14,2.28 2.54,2.54 0 0 1 -2.23,1 2,2 0 0 1 -0.29,2.35 2.37,2.37 0 0 1 -2.44,0.59 1.85,1.85 0 0 1 -2.3,1 2.8,2.8 0 0 1 -2.54,2 7.2,7.2 0 0 1 -3.56,-0.57 3.76,3.76 0 0 1 -3.7,0.36 3.08,3.08 0 0 1 -1.74,-3 A 2.57,2.57 0 0 1 16,33.67 4.16,4.16 0 0 1 12.73,33.94 3.87,3.87 0 0 1 10.31,31.19 L 9.69,30.79 A 1.57,1.57 0 0 1 9,29.38 v -2.61 l 21.78,-3.83 7.71,4.16"
       id="path22949"
       style="fill:url(#radial-gradient-3);stroke-width:0.974608" />
    <path
       class="cls-6"
       d="m 37.5,29.07 a 2.1,2.1 0 0 1 -0.14,2.28 2.54,2.54 0 0 1 -2.23,1 2,2 0 0 1 -0.29,2.35 2.37,2.37 0 0 1 -2.44,0.59 1.85,1.85 0 0 1 -2.3,1 2.8,2.8 0 0 1 -2.54,2 7.2,7.2 0 0 1 -3.56,-0.57 3.76,3.76 0 0 1 -3.7,0.36 3.08,3.08 0 0 1 -1.74,-3 A 2.57,2.57 0 0 1 16,33.67 4.16,4.16 0 0 1 12.73,33.94 3.87,3.87 0 0 1 10.31,31.19 L 9.69,30.79 A 1.57,1.57 0 0 1 9,29.38 v -2.61 l 21.78,-3.83 7.71,4.16"
       id="path22951"
       style="fill:url(#linearGradient23185);stroke-width:0.974608" />
    <path
       class="cls-7"
       d="m 37.5,29.07 a 2.1,2.1 0 0 1 -0.14,2.28 2.54,2.54 0 0 1 -2.23,1 2,2 0 0 1 -0.29,2.35 2.37,2.37 0 0 1 -2.44,0.59 1.85,1.85 0 0 1 -2.3,1 2.8,2.8 0 0 1 -2.54,2 7.2,7.2 0 0 1 -3.56,-0.57 3.76,3.76 0 0 1 -3.7,0.36 3.08,3.08 0 0 1 -1.74,-3 A 2.57,2.57 0 0 1 16,33.67 4.16,4.16 0 0 1 12.73,33.94 3.87,3.87 0 0 1 10.31,31.19 L 9.69,30.79 A 1.57,1.57 0 0 1 9,29.38 v -2.61 l 21.78,-3.83 7.71,4.16"
       id="path22953" />
    <path
       class="cls-8"
       d="m 12,13.53 c 0,0 -3,1.58 -2.7,4.61 a 2.78,2.78 0 0 0 -1.64,1 2.54,2.54 0 0 0 -0.43,2.06 2.77,2.77 0 0 0 -2.54,1.82 c -0.49,1.76 1.94,2 1.94,2 a 2.42,2.42 0 0 0 -0.55,2.37 c 0.3,1.7 2.73,2.36 4.67,1 a 2.67,2.67 0 0 0 0.79,2.12 2.27,2.27 0 0 0 3.09,0.24 2.82,2.82 0 0 0 1.52,1.58 3.35,3.35 0 0 0 1.92,0 3.2,3.2 0 0 0 2.33,2.58 2.66,2.66 0 0 0 2.79,-0.67 4.33,4.33 0 0 1 1.81,3.43 9.83,9.83 0 0 0 1.46,-4.91 c 0,0 1,2.25 0.3,3.82 a 4.21,4.21 0 0 0 1.64,-3.1 1.82,1.82 0 0 0 1.88,0.49 3.13,3.13 0 0 0 2.12,-3.09 2.25,2.25 0 0 0 2.79,-1.64 3.79,3.79 0 0 0 2.86,0.3 c 1.75,-0.42 2,-3.15 1.51,-4.43 a 3.59,3.59 0 0 0 3,-1.33 c 1.22,-1.52 0.06,-3.72 0.06,-3.72 0,0 1.16,-2.71 0.31,-4.41 a 4.16,4.16 0 0 0 -2.06,-2.12 c 0,0 0.91,-1.4 -0.43,-2.12 C 39.1,10.69 12,13.53 12,13.53 Z"
       id="path22955"
       style="fill:url(#radial-gradient-4);stroke-width:0.974608" />
    <path
       class="cls-9"
       d="m 25.3,35.05 a 5.72,5.72 0 0 1 -0.34,2 4.48,4.48 0 0 0 -1.77,-2.78 2.66,2.66 0 0 1 -2.79,0.67 3.1,3.1 0 0 1 -2.27,-2.3 l 0.06,-0.25 h -0.11 v 0 h -0.07 v 0 A 1.86,1.86 0 0 1 17,28.94 2.18,2.18 0 0 1 16.7,26.11 2.24,2.24 0 0 0 18.03,28.74 3.37,3.37 0 0 0 21.11,28.29 3,3 0 0 1 18,30.12 c -0.41,0.48 0,1.29 0.63,1.46 a 2.53,2.53 0 0 0 1.82,-0.39 c -0.56,0.73 0.11,1.89 1,2.1 a 3.29,3.29 0 0 0 2.55,-0.77 3.14,3.14 0 0 1 1.3,2.53 z"
       id="path22957"
       style="fill:url(#linear-gradient-3);stroke-width:0.974608" />
    <path
       class="cls-10"
       d="m 42.59,20.06 c 0,0 1.16,2.2 -0.06,3.72 a 3.59,3.59 0 0 1 -3,1.33 c 0.49,1.28 0.24,4 -1.51,4.43 A 3.79,3.79 0 0 1 35.16,29.24 2.25,2.25 0 0 1 32.37,30.88 3.13,3.13 0 0 1 30.28,34 1.82,1.82 0 0 1 28.4,33.51 4.26,4.26 0 0 1 26.77,36.6 c 0.73,-1.57 -0.31,-3.81 -0.31,-3.81 a 9.15,9.15 0 0 1 -0.65,3.29 8.94,8.94 0 0 0 0.19,-2.76 12.58,12.58 0 0 0 -1.53,-4.84 19.54,19.54 0 0 1 3,3.33 5.67,5.67 0 0 0 -0.8,-2.89 3.65,3.65 0 0 0 2.64,1.08 c 1.31,-0.36 0.88,-1.82 0.88,-1.82 0,0 2.32,0.52 3.18,-0.17 a 1.89,1.89 0 0 0 0.8,-1.48 c 0,-0.23 -0.44,-1.54 -0.73,-1.54 a 2,2 0 0 1 1.55,0.26 c 0.61,0.5 0.51,1.55 1.12,2 0.61,0.45 1.76,0 2,-0.82 a 3,3 0 0 0 -0.55,-2.42 2.27,2.27 0 0 0 -1.07,1 3,3 0 0 1 2.89,-3.01 1.5,1.5 0 0 0 -0.77,0.68 0.31,0.31 0 0 0 0,0.21 0.25,0.25 0 0 0 0.11,0.14 1.41,1.41 0 0 0 1.87,-0.3 1.73,1.73 0 0 0 0,-2 2.25,2.25 0 0 0 -1.8,-0.92 c 0.3,-0.55 1.15,-0.24 1.74,-0.46 a 1.44,1.44 0 0 0 0.76,-0.79 2.91,2.91 0 0 0 -2.11,-4.07 l 0.32,-2.92 0.54,-0.27 a 1.18,1.18 0 0 1 0.4,0.08 c 1.34,0.72 0.43,2.12 0.43,2.12 a 4.16,4.16 0 0 1 2.06,2.12 c 0.82,1.73 -0.34,4.44 -0.34,4.44 z"
       id="path22959"
       style="fill:url(#linear-gradient-4);stroke-width:0.974608" />
    <path
       class="cls-11"
       d="m 26.62,20.79 a 1.46,1.46 0 0 1 0.14,2 3.27,3.27 0 0 1 -1.89,1.07 4.62,4.62 0 0 1 2,2.27 2.62,2.62 0 0 1 3.7,-0.13 2,2 0 0 1 2.33,-0.45 2.68,2.68 0 0 1 1.38,2.06 2.33,2.33 0 0 0 -2.51,-3.26 4.68,4.68 0 0 0 -0.54,0.07 0.58,0.58 0 0 1 -0.23,0 0.6,0.6 0 0 1 -0.31,-0.19 3,3 0 0 0 -1.9,-0.73 3.46,3.46 0 0 1 3.21,0.2 2.94,2.94 0 0 1 3.33,-0.36 2.14,2.14 0 0 1 0.29,-1.66 1.55,1.55 0 0 1 1.5,-0.64 3.26,3.26 0 0 0 -2.75,-0.39 2.9,2.9 0 0 1 3.6,-0.91 1.81,1.81 0 0 1 0.44,-1.62 0.93,0.93 0 0 1 0.5,-0.3 c 0.46,-0.09 0.85,0.35 1.12,0.74 A 1.61,1.61 0 0 0 39.52,17.37 1.47,1.47 0 0 0 40,16.3 3.53,3.53 0 0 0 39.24,13.74 1.9,1.9 0 0 1 38.17,14.65 c -2,0.88 -4.2,1.17 -6.1,2.2 -1.11,0.61 -2.19,1.49 -3.45,1.42 l 0.26,-0.06"
       id="path22961"
       style="fill:url(#linearGradient23187);stroke-width:0.974608" />
    <path
       class="cls-12"
       d="M 11,23.76 A 1,1 0 0 1 9.61,23.32 1.39,1.39 0 0 1 9.44,22.65 5.54,5.54 0 0 1 9.77,21.39 c 0,0 -0.39,-0.13 -0.42,-0.15 a 0.87,0.87 0 0 1 -0.47,-0.8 2.7,2.7 0 0 1 0.77,-1.75 1.84,1.84 0 0 1 -0.16,-0.61 2.23,2.23 0 0 0 -1.58,0.84 3,3 0 0 0 -0.59,2 1.84,1.84 0 0 0 0.94,1.69 3.53,3.53 0 0 0 0,0.95 2.58,2.58 0 0 0 0.37,0.83 1.51,1.51 0 0 0 -0.53,0.82 0.66,0.66 0 0 0 0.22,0.76 0.75,0.75 0 0 0 0.57,0 3.59,3.59 0 0 0 1,-0.53 1.24,1.24 0 0 0 1.36,0.48 3.47,3.47 0 0 0 1.35,-0.75 1.4,1.4 0 0 1 -1.6,-1.41 z"
       id="path22963"
       style="fill:url(#linear-gradient-6);stroke-width:0.974608" />
    <path
       class="cls-13"
       d="m 11.5,17.62 a 1.93,1.93 0 0 0 -0.59,0.93 0.92,0.92 0 0 0 0.38,1 1.11,1.11 0 0 0 -0.38,1.07 1.55,1.55 0 0 0 0.67,0.95 1.51,1.51 0 0 1 -1.2,-0.65 A 1.53,1.53 0 0 1 10.2,19.56 2.46,2.46 0 0 1 9.47,18 a 1.85,1.85 0 0 1 0.6,-1.54"
       id="path22965"
       style="fill:url(#linear-gradient-7);stroke-width:0.974608" />
    <path
       class="cls-14"
       d="m 13.82,16.94 c 0,0 0,-0.05 0,0 0,0.05 0,0 0,0.07 a 1.49,1.49 0 0 1 -0.42,1.31 3.78,3.78 0 0 1 -1.24,0.82 3.49,3.49 0 0 0 1.76,0 c -0.22,1 -1.5,0.91 -2.35,0.54 a 2.06,2.06 0 0 0 1,1.59 4.18,4.18 0 0 0 2,0.61 3,3 0 0 0 1.44,-0.21 2.16,2.16 0 0 1 -1.27,-0.48 2.42,2.42 0 0 1 1.78,-0.17 c 0.17,0.06 1.63,0.8 1.55,1 a 1.48,1.48 0 0 1 1.38,-0.64 2.77,2.77 0 0 1 1.54,0.92 3.17,3.17 0 0 1 2.78,-0.92 3.33,3.33 0 0 1 -1.35,-1.33 c -0.31,-0.54 -0.53,-1.1 -0.85,-1.64 A 5.2,5.2 0 0 0 19.72,16.53 C 18.18,15.64 16.29,15.7 14.55,15.79"
       id="path22967"
       style="fill:url(#linear-gradient-8);stroke-width:0.974608" />
    <path
       class="cls-15"
       d="m 18.07,32.36 v 0 a 3.47,3.47 0 0 1 -1.9,0 2.82,2.82 0 0 1 -1.52,-1.58 2.27,2.27 0 0 1 -3.09,-0.24 2.67,2.67 0 0 1 -0.79,-2.12 c -1.94,1.33 -4.37,0.67 -4.67,-1 a 2.42,2.42 0 0 1 0.55,-2.37 c 0,0 -2.43,-0.24 -1.94,-2 a 2.56,2.56 0 0 1 2.09,-1.76 1.76,1.76 0 0 0 -0.92,1.83 1.42,1.42 0 0 0 0.77,0.84 3.16,3.16 0 0 0 1.14,0.26 3.45,3.45 0 0 0 0,2.2 2.17,2.17 0 0 0 1.74,1.12 4.44,4.44 0 0 0 2.09,-0.38 1.21,1.21 0 0 0 1.06,1.22 1.41,1.41 0 0 0 0.17,1.16 1.26,1.26 0 0 0 1,0.3 4.61,4.61 0 0 0 1.33,-0.31 2.57,2.57 0 0 0 0.7,2.1 2.73,2.73 0 0 0 2.19,0.73 z"
       id="path22969"
       style="fill:url(#linearGradient23189);stroke-width:0.974608" />
    <path
       class="cls-7"
       d="m 12,13.53 c 0,0 -3,1.58 -2.7,4.61 a 2.78,2.78 0 0 0 -1.64,1 2.54,2.54 0 0 0 -0.43,2.06 2.77,2.77 0 0 0 -2.54,1.82 c -0.49,1.76 1.94,2 1.94,2 a 2.42,2.42 0 0 0 -0.55,2.37 c 0.3,1.7 2.73,2.36 4.67,1 a 2.67,2.67 0 0 0 0.79,2.12 2.27,2.27 0 0 0 3.09,0.24 2.82,2.82 0 0 0 1.52,1.58 3.35,3.35 0 0 0 1.92,0 3.2,3.2 0 0 0 2.33,2.58 2.66,2.66 0 0 0 2.79,-0.67 4.33,4.33 0 0 1 1.81,3.43 9.83,9.83 0 0 0 1.46,-4.91 c 0,0 1,2.25 0.3,3.82 a 4.21,4.21 0 0 0 1.64,-3.1 1.82,1.82 0 0 0 1.88,0.49 3.13,3.13 0 0 0 2.12,-3.09 2.25,2.25 0 0 0 2.79,-1.64 3.79,3.79 0 0 0 2.86,0.3 c 1.75,-0.42 2,-3.15 1.51,-4.43 a 3.59,3.59 0 0 0 3,-1.33 c 1.22,-1.52 0.06,-3.72 0.06,-3.72 0,0 1.16,-2.71 0.31,-4.41 a 4.16,4.16 0 0 0 -2.06,-2.12 c 0,0 0.91,-1.4 -0.43,-2.12 C 39.1,10.69 12,13.53 12,13.53 Z"
       id="path22971" />
    <path
       class="cls-16"
       d="M 37.32,8.92 C 39.84,7.6 40,10.1 40,10.1 c 2.43,1.38 -0.42,3 -0.42,3 a 3.64,3.64 0 0 1 -0.23,2.41 3.2,3.2 0 0 1 -1.35,1.27 9.52,9.52 0 0 1 -2.76,0.27 3.79,3.79 0 0 1 -1.9,2.18 3.48,3.48 0 0 1 -2.84,0.11 2.2,2.2 0 0 1 -1.24,1.44 A 3.3,3.3 0 0 1 27.3,21 2.88,2.88 0 0 1 25.76,20.35 1.66,1.66 0 0 1 25.21,18.8 3.69,3.69 0 0 1 22.29,20 a 3.47,3.47 0 0 1 -2.67,-1.58 1.63,1.63 0 0 1 -2,-1.51 c -0.59,0.09 -1.07,0.48 -1.66,0.5 a 3,3 0 0 1 -1.84,-0.68 2.52,2.52 0 0 1 -2.49,1 3,3 0 0 1 -2.46,-1.92 c 0,0 -1.49,-0.45 -1.54,-1.73 -0.05,-1.28 1.95,-1.45 1.95,-1.45 a 1.57,1.57 0 0 1 0.76,-1.17 c 0.14,-0.09 1.2,-0.49 1.3,-0.24 A 4.94,4.94 0 0 1 11.11,8.68 1.82,1.82 0 0 1 12.91,7 2.46,2.46 0 0 1 13.49,4.5 2.09,2.09 0 0 1 16,4.27 2.41,2.41 0 0 1 20.55,3.93 c 0.87,-1.69 2,-3.4 4.18,-3.18 a 5.52,5.52 0 0 1 4.21,3.15 5.45,5.45 0 0 1 4.87,-0.34 3.5,3.5 0 0 1 2,3.61 c 1.89,0.26 1.51,1.75 1.51,1.75 z"
       id="path22973"
       style="fill:url(#radialGradient23191);stroke-width:0.974608" />
    <path
       class="cls-17"
       d="m 20,8.68 a 2.54,2.54 0 0 0 -3.13,1.89 3.33,3.33 0 0 0 -2,2 A 2,2 0 0 0 16,15 2.78,2.78 0 0 0 18.46,14.11 2.66,2.66 0 0 0 19.6,12"
       id="path22975"
       style="fill:url(#linear-gradient-10);stroke-width:0.974608" />
    <path
       class="cls-18"
       d="m 21.67,5.1 c -2.31,0.36 -3.13,1.67 -2.94,2.79 1,-2.21 3.12,-2.27 5,-2.53 L 23.29,5.14 a 2.92,2.92 0 0 1 3.28,-1.9 2.79,2.79 0 0 1 1.71,1.2 2,2 0 0 0 -1.7,1.09 3.52,3.52 0 0 1 3.86,0.12 3.69,3.69 0 0 1 2,-1.79 A 3.59,3.59 0 0 1 34.33,4 C 33.65,3.2 32.41,3 30.72,3.2 A 5.48,5.48 0 0 0 29.65,3.52 L 29.43,3.61 A 2.09,2.09 0 0 0 29.22,3.71 2,2 0 0 0 28.76,4.13 4.13,4.13 0 0 0 25.94,2.25 3.63,3.63 0 0 0 23.61,2.72 4.42,4.42 0 0 0 21.67,5.1"
       id="path22977"
       style="fill:url(#linearGradient23193);stroke-width:0.974608" />
    <path
       class="cls-19"
       d="m 39.56,13.11 a 4,4 0 0 1 0.09,0.72 1.16,1.16 0 0 1 -1.14,-0.77 c -0.1,-0.28 -0.12,-0.45 -0.4,-0.6 a 4.09,4.09 0 0 0 -1.27,-0.07 c -0.09,-0.55 0.38,-1.13 0.18,-1.64 a 0.88,0.88 0 0 0 -1.08,-0.42 2.51,2.51 0 0 0 -1,0.76 3.07,3.07 0 0 0 -1,-1.78 A 18.51,18.51 0 0 0 32.27,8.07 0.4,0.4 0 0 1 32,7.9 0.39,0.39 0 0 1 32.05,7.62 1.34,1.34 0 0 0 31,5.75 a 4.06,4.06 0 0 0 -1.1,0 L 27.7,6 C 27.79,5.8 27.9,5.6 28,5.4 28.1,5.2 28.2,5.11 28.15,4.95 a 0.09,0.09 0 0 1 0,-0.07 v 0 A 1.75,1.75 0 0 1 28.48,4.6 1.35,1.35 0 0 0 28.81,4.34 c 0,0 0.07,-0.09 0.06,-0.14 -0.01,-0.05 0.1,-0.22 0.18,-0.29 a 1.35,1.35 0 0 1 0.36,-0.18 c 1.53,-0.52 2.83,-0.92 4.38,-0.17 a 3.48,3.48 0 0 1 1.95,3.61 c 1.94,0.26 1.56,1.75 1.56,1.75 2.54,-1.32 2.7,1.18 2.7,1.18 2.41,1.38 -0.44,3.01 -0.44,3.01 z"
       id="path22979"
       style="fill:url(#radial-gradient-6);stroke-width:0.974608" />
    <path
       class="cls-20"
       d="m 39.33,15.53 c -0.64,1.54 -2.25,1.57 -3.66,1.57 a 0.32,0.32 0 0 0 -0.33,0.18 6.11,6.11 0 0 1 -2.15,2 2.56,2.56 0 0 1 -2.81,-0.21 1.15,1.15 0 0 0 0.8,0 4.08,4.08 0 0 0 3.17,-4.08 2.8,2.8 0 0 0 2.6,0.28 1.37,1.37 0 0 0 0.28,-2.53 3.84,3.84 0 0 0 -1.62,-0.36 1.91,1.91 0 0 0 1.1,-1.24 0.61,0.61 0 0 0 0,-0.4 c -0.46,-0.87 -1.55,0.48 -1.82,0.8 A 3.41,3.41 0 0 0 34.53,9.16 7.09,7.09 0 0 0 32.9,7.37 a 4.09,4.09 0 0 1 2,0.24 1.41,1.41 0 0 1 0.83,1.63 c 0.65,-0.05 1.86,0.14 2.12,0.87 0.26,0.73 -0.66,1.8 -0.66,1.8 a 2.55,2.55 0 0 1 2.34,0.64 c 0.47,0.64 0.09,2.29 -0.2,2.98 z"
       id="path22981"
       style="fill:url(#linear-gradient-12);stroke-width:0.974608" />
    <path
       class="cls-21"
       d="m 27.46,4 a 4.66,4.66 0 0 1 1.87,1.08 c 1.36,-1 4.21,-1 4.71,0.51 a 2.63,2.63 0 0 1 -0.3,2.24 c 0.12,0.14 0.25,0.28 0.37,0.43 a 6.41,6.41 0 0 1 1.29,2.34 3.79,3.79 0 0 1 -0.23,2.67 2.6,2.6 0 0 1 -2.17,1.45 1.8,1.8 0 0 1 -0.38,2.59 3.32,3.32 0 0 1 -2.74,0.49 2.08,2.08 0 0 1 -2.16,1.34 c -1.14,-0.11 -2.48,-1.4 -1.78,-2.4 a 1.46,1.46 0 0 1 -1.48,0.17 2.6,2.6 0 0 1 -0.37,1.2 1.93,1.93 0 0 1 -1.46,0.71 A 2.31,2.31 0 0 1 21,18.38 1.44,1.44 0 0 1 20.52,16.84 c -0.53,0.12 -1.21,0.22 -1.58,-0.23 -0.37,-0.45 -0.47,-1.36 -0.06,-1.68 -0.83,0.64 -2.48,1.12 -3.37,0.35 a 1.27,1.27 0 0 1 -0.43,-1.11 1.16,1.16 0 0 0 1.35,0.4 3.54,3.54 0 0 0 1.24,-0.87 1.41,1.41 0 0 1 -1.2,-1.52 A 1.47,1.47 0 0 1 18,11 c -0.22,0 0.33,-1.14 0.4,-1.23 a 4.25,4.25 0 0 1 1.07,-1 A 4.37,4.37 0 0 1 22.2,8 2.66,2.66 0 0 0 20,7.77 5.14,5.14 0 0 1 24.4,5.68 3,3 0 0 1 26.5,4 2.82,2.82 0 0 1 27.46,4 Z"
       id="path22983"
       style="fill:url(#radial-gradient-7);stroke-width:0.974608" />
    <path
       class="cls-22"
       d="m 33,11.91 c -0.69,1.75 -2.91,1.87 -2.91,1.87 a 1.39,1.39 0 0 1 0.26,2.14 c -0.67,0.55 -1.52,-0.23 -1.52,-0.23 a 1.14,1.14 0 0 1 -0.71,1.25 2.27,2.27 0 0 1 -1.9,-0.36 1.7,1.7 0 0 0 2.14,1.5 C 29.62,17.74 29.42,17 29.42,17 c 1.12,0.71 2.86,0.21 3.08,-0.74 a 2.47,2.47 0 0 0 -0.45,-1.8 3.43,3.43 0 0 0 2.8,-2.22 3.41,3.41 0 0 0 -2.68,-4.17 c 0,0 1.83,1.16 0.83,3.84 z"
       id="path22985"
       style="fill:url(#linear-gradient-13);stroke-width:0.974608" />
    <path
       class="cls-23"
       d="m 15.69,16.55 c -0.18,-0.08 -1.39,-1.12 -1,-1.36 a 5.92,5.92 0 0 1 -1.51,0.75 c -0.71,0.2 -1.86,0.24 -2.34,-0.41 a 0.92,0.92 0 0 1 0.18,-1.3 1.2100103,1.2100103 0 1 1 2.23,-0.94 2,2 0 0 1 0.63,-1.84 A 2.77,2.77 0 0 1 15.76,10.5 2.86,2.86 0 0 1 15.69,8.39 2.13,2.13 0 0 1 17.64,6.94 1.25,1.25 0 0 1 18,5.41 2.35,2.35 0 0 1 20.14,5 2.27,2.27 0 0 0 17.46,4.44 2.32,2.32 0 0 0 16,6.57 a 1.46,1.46 0 0 0 -1.55,0.56 1.41,1.41 0 0 0 0.06,1.63 1.33,1.33 0 0 0 -0.93,0.82 1.25,1.25 0 0 0 0.2,1.21 c -0.16,0.16 -0.76,0.83 -0.47,1.1 a 2.72,2.72 0 0 0 -1.68,-0.66 1.86,1.86 0 0 0 -1.92,1.58 c 0,0 -1.93,0.13 -1.88,1.4 0.05,1.27 1.48,1.65 1.48,1.65 a 2.85,2.85 0 0 0 2.36,1.85 3.08,3.08 0 0 0 1.33,-0.16 2.31,2.31 0 0 0 0.9,-0.55 1.29,1.29 0 0 0 0.17,-0.22 3,3 0 0 0 2.38,0.6 2.91,2.91 0 0 0 1.14,-0.52 3.86,3.86 0 0 1 -1.9,-0.31 z"
       id="path22987"
       style="fill:url(#linear-gradient-14);stroke-width:0.974608" />
    <path
       class="cls-24"
       d="m 29.52,6.2 a 1.56,1.56 0 0 0 -1.79,0.18 3.2,3.2 0 0 0 -1.6,-1 1.2,1.2 0 0 0 -1.36,1 1.59,1.59 0 0 0 -1.41,0 1.79,1.79 0 0 0 -0.92,1.15 12.51,12.51 0 0 1 1.81,-0.33 1.16,1.16 0 0 1 0.69,0.08 c 0.15,0.08 0.3,0.25 0.47,0.2 a 0.77,0.77 0 0 0 -0.75,0.92 0.71,0.71 0 0 0 1.06,0.43 1.06,1.06 0 0 0 0.85,1 1.83,1.83 0 0 0 1.29,-0.31 0.4,0.4 0 0 0 0.2,-0.24 A 0.63,0.63 0 0 0 28,9.05 0.86,0.86 0 0 1 28.5,8 c -0.64,-0.43 0,-1.09 0.52,-1.23 0.17,0 0.94,-0.22 1,0.09 A 1,1 0 0 0 29.52,6.2 Z"
       id="path22989"
       style="fill:url(#linear-gradient-15);stroke-width:0.974608" />
    <path
       class="cls-25"
       d="m 21.85,16.1 a 2.4,2.4 0 0 0 0.13,0.59 1.35,1.35 0 0 0 0.83,0.85 1.14,1.14 0 0 0 1.05,-0.22 1.5,1.5 0 0 0 0.14,-1.93 1.29,1.29 0 0 0 -0.83,-0.44 0.11,0.11 0 0 1 -0.08,0 c 0,0 0,-0.07 0,-0.11 -0.3,-1.51 -2.38,-0.43 -2.67,0.52 a 1.35,1.35 0 0 1 0,-1.25 1.44,1.44 0 0 1 1,-0.73 c 0,-0.15 -0.47,-1.1 -0.66,-0.81 a 1.24,1.24 0 0 0 -0.44,-1.69 1.4,1.4 0 0 0 -1.75,0.47 1.51,1.51 0 0 0 0.17,1.82 0.91,0.91 0 0 0 -0.86,0.91 1,1 0 0 0 1.45,0.78 c -0.21,0.09 0.1,0.83 0.17,0.95 a 0.81,0.81 0 0 0 0.66,0.44 2.1,2.1 0 0 0 1.73,-0.75 4.42,4.42 0 0 0 -0.04,0.6 z"
       id="path22991"
       style="fill:url(#linear-gradient-16);stroke-width:0.974608" />
    <path
       class="cls-26"
       d="M 32.14,11.06 A 1.25,1.25 0 0 0 31.83,9.47 1.12,1.12 0 0 1 31.62,9 1.89,1.89 0 0 0 29.89,7.64 1.45,1.45 0 0 1 31,8.45 1.52,1.52 0 0 1 30.95,9.78 1.13,1.13 0 0 0 29.42,9.34 1,1 0 0 1 30.5,9.9 a 0.85,0.85 0 0 1 -0.09,1 c -0.06,0 -0.14,0.09 -0.2,0.06 a 0.27,0.27 0 0 1 -0.07,-0.08 c -0.2,-0.3 -0.89,-0.51 -1.12,-0.11 -0.56,-1 -1.76,-0.45 -2.29,0.25 a 1.62,1.62 0 0 1 1.8,1.68 1.44,1.44 0 0 1 1.47,0.92 1.54,1.54 0 0 0 1.45,-1.84 5.18,5.18 0 0 0 0.49,-0.35 1.51,1.51 0 0 0 0.2,-0.37 z"
       id="path22993"
       style="fill:url(#linear-gradient-17);stroke-width:0.974608" />
    <path
       class="cls-27"
       d="m 21,10.75 a 1,1 0 0 0 0.51,0.84 c -0.2,-0.09 -0.11,-0.7 -0.05,-0.84 0.11,-0.31 0.62,-0.86 1,-0.69 0.05,0 0.09,0 0.13,0 a 0.16,0.16 0 0 0 0.1,-0.08 1.72,1.72 0 0 1 0.76,-0.63 0.75,0.75 0 0 1 0.88,0.24 0.89,0.89 0 0 0 -0.58,-0.76 1.41,1.41 0 0 0 -1.36,0.43 c -0.26,0.24 -0.66,-0.12 -1,0.26 A 1.52,1.52 0 0 0 21,10.75 Z"
       id="path22995"
       style="fill:url(#linear-gradient-18);stroke-width:0.974608" />
    <path
       class="cls-7"
       d="M 37.32,8.92 C 39.84,7.6 40,10.1 40,10.1 c 2.43,1.38 -0.42,3 -0.42,3 a 3.64,3.64 0 0 1 -0.23,2.41 3.2,3.2 0 0 1 -1.35,1.27 7,7 0 0 1 -2.76,0.27 3.76,3.76 0 0 1 -1.9,2.18 3.48,3.48 0 0 1 -2.84,0.11 2.2,2.2 0 0 1 -1.24,1.44 A 3.3,3.3 0 0 1 27.3,21 2.88,2.88 0 0 1 25.76,20.35 4.13,4.13 0 0 1 25,19.08 a 3.06,3.06 0 0 1 -2.71,0.9 3.47,3.47 0 0 1 -2.67,-1.58 1.63,1.63 0 0 1 -2,-1.51 c -0.59,0.09 -1.07,0.48 -1.66,0.5 a 3,3 0 0 1 -1.84,-0.68 2.52,2.52 0 0 1 -2.49,1 3,3 0 0 1 -2.46,-1.92 c 0,0 -1.49,-0.45 -1.54,-1.73 -0.05,-1.28 1.95,-1.45 1.95,-1.45 a 2.28,2.28 0 0 1 0.76,-1.17 2.2,2.2 0 0 1 1.1,-0.65 A 5.47,5.47 0 0 1 11.11,8.66 1.82,1.82 0 0 1 12.91,7 2.46,2.46 0 0 1 13.49,4.5 2.09,2.09 0 0 1 16,4.27 2.41,2.41 0 0 1 20.55,3.93 c 0.87,-1.69 2,-3.4 4.18,-3.18 a 5.52,5.52 0 0 1 4.21,3.15 5.45,5.45 0 0 1 4.87,-0.34 3.5,3.5 0 0 1 2,3.61 c 1.89,0.26 1.51,1.75 1.51,1.75 z"
       id="path22997" />
    <path
       class="cls-28"
       d="m 14.2,25.4 a 2.79,2.79 0 0 0 0,1.49 c 0.12,0.37 0.45,0.78 0.82,0.66 a 1.05,1.05 0 0 0 1,1.11 A 1.73,1.73 0 0 1 13.46,27.34 2.65,2.65 0 0 1 12.12,27.13 1.44,1.44 0 0 1 11.31,26.08 1,1 0 0 1 12,25 2.23,2.23 0 0 1 11.94,23 c 0.28,-0.55 1.33,-1.27 1.95,-0.85 -0.15,-0.1 -0.65,0.61 -0.71,0.71 A 1.69,1.69 0 0 0 13,24 c 0.08,0.57 0.44,1.43 1.2,1.4 z"
       id="path22999"
       style="fill:url(#linear-gradient-19);stroke-width:0.974608" />
    <path
       class="cls-29"
       d="M 21.33,22.54 C 19.71,22.18 18.48,24 18.48,24 c 0,0 1.85,-0.84 3,-0.29 A 4.12,4.12 0 0 1 23,26 a 2.08,2.08 0 0 1 2.65,-0.5 2.17,2.17 0 0 0 -2.41,-1 3,3 0 0 0 -1.91,-1.96 z"
       id="path23001"
       style="fill:url(#linear-gradient-20);stroke-width:0.974608" />
    <path
       class="cls-30"
       d="m 24.29,44.53 a 15.57,15.57 0 0 0 3.95,0.23 0.3,0.3 0 0 0 0.2,0 0.31,0.31 0 0 0 0.11,-0.18 A 1.26,1.26 0 0 0 28.22,43.21 3.17,3.17 0 0 0 27,42.57 2.1,2.1 0 0 0 27.13,40.82 1.42,1.42 0 0 0 25.8,40 1.35,1.35 0 0 0 24.3,38.29 c 0,-0.54 -0.07,-1.1 -0.66,-1.21 a 1.31,1.31 0 0 0 -1.19,0.52 1.49,1.49 0 0 0 -0.26,0.63 0.9,0.9 0 0 0 0.66,1.08 1.18,1.18 0 0 0 0.15,1.33 1.22,1.22 0 0 0 1.32,0.14 1.24,1.24 0 0 0 0.27,1.75 1.74,1.74 0 0 0 -0.8,1.77 c 0.06,0.23 0.21,0.17 0.5,0.23 z"
       id="path23003"
       style="fill:url(#radial-gradient-8);stroke-width:0.974608" />
    <path
       class="cls-31"
       d="m 24.29,44.53 a 15.57,15.57 0 0 0 3.95,0.23 0.3,0.3 0 0 0 0.2,0 0.31,0.31 0 0 0 0.11,-0.18 A 1.26,1.26 0 0 0 28.22,43.21 3.17,3.17 0 0 0 27,42.57 2.1,2.1 0 0 0 27.13,40.82 1.42,1.42 0 0 0 25.8,40 1.35,1.35 0 0 0 24.3,38.29 c 0,-0.54 -0.07,-1.1 -0.66,-1.21 a 1.31,1.31 0 0 0 -1.19,0.52 1.49,1.49 0 0 0 -0.26,0.63 0.9,0.9 0 0 0 0.66,1.08 1.18,1.18 0 0 0 0.15,1.33 1.22,1.22 0 0 0 1.32,0.14 1.24,1.24 0 0 0 0.27,1.75 1.74,1.74 0 0 0 -0.8,1.77 c 0.06,0.23 0.21,0.17 0.5,0.23 z"
       id="path23005"
       style="fill:url(#linear-gradient-21);stroke-width:0.974608" />
    <path
       class="cls-32"
       d="m 24.3,38.3 c 0,-0.54 -0.07,-1.1 -0.66,-1.21 a 1.31,1.31 0 0 0 -1.19,0.52 1.49,1.49 0 0 0 -0.26,0.63 0.9,0.9 0 0 0 0.66,1.08 1.18,1.18 0 0 0 0.15,1.32 1.22,1.22 0 0 0 1.32,0.14 1.24,1.24 0 0 0 0.27,1.75 1.74,1.74 0 0 0 -0.8,1.77 c 0.08,0.23 0.27,0.17 0.52,0.23 a 15.57,15.57 0 0 0 3.95,0.23 0.3,0.3 0 0 0 0.2,0 0.31,0.31 0 0 0 0.11,-0.18 1.49,1.49 0 0 0 0.08,-0.4 17.51,17.51 0 0 0 4.16,0.13 c 0,0 0.4,-0.1 0.29,-0.67 -0.11,-0.57 -1.41,-0.8 -1.41,-0.8 a 1.41,1.41 0 0 0 -0.29,-1.27 2.61,2.61 0 0 0 -1.67,-0.8 2.21,2.21 0 0 0 -0.78,-2.85"
       id="path23007" />
  </g>
</svg>
