<?xml version="1.0" encoding="UTF-8" standalone="no"?>
<svg
   viewBox="0 0 48 48"
   version="1.1"
   id="svg17745"
   sodipodi:docname="flame_thrower.svg"
   inkscape:version="1.1 (c68e22c387, 2021-05-23)"
   xmlns:inkscape="http://www.inkscape.org/namespaces/inkscape"
   xmlns:sodipodi="http://sodipodi.sourceforge.net/DTD/sodipodi-0.dtd"
   xmlns:xlink="http://www.w3.org/1999/xlink"
   xmlns="http://www.w3.org/2000/svg"
   xmlns:svg="http://www.w3.org/2000/svg"
   xmlns:rdf="http://www.w3.org/1999/02/22-rdf-syntax-ns#"
   xmlns:cc="http://creativecommons.org/ns#"
   xmlns:dc="http://purl.org/dc/elements/1.1/">
  <sodipodi:namedview
     id="namedview17747"
     pagecolor="#ffffff"
     bordercolor="#666666"
     borderopacity="1.0"
     inkscape:pageshadow="2"
     inkscape:pageopacity="0.0"
     inkscape:pagecheckerboard="0"
     showgrid="false"
     inkscape:zoom="15.6875"
     inkscape:cx="24"
     inkscape:cy="24"
     inkscape:window-width="2880"
     inkscape:window-height="1557"
     inkscape:window-x="-8"
     inkscape:window-y="-8"
     inkscape:window-maximized="1"
     inkscape:current-layer="svg17745" />
  <defs
     id="defs17583">
    <style
       id="style17477">.cls-1,.cls-17,.cls-20,.cls-22,.cls-23,.cls-25,.cls-4,.cls-59{fill:none;}.cls-2{isolation:isolate;}.cls-3{fill:url(#radial-gradient);}.cls-17,.cls-22,.cls-25,.cls-4,.cls-59{stroke:#555753;}.cls-22,.cls-23,.cls-4,.cls-59{stroke-linecap:round;stroke-linejoin:round;}.cls-4{stroke-width:0.7px;}.cls-5{fill:url(#linear-gradient);}.cls-6{fill:url(#linear-gradient-2);}.cls-7{fill:url(#linear-gradient-3);}.cls-8{fill:url(#linear-gradient-4);}.cls-9{fill:url(#linear-gradient-5);}.cls-10,.cls-27,.cls-31,.cls-36,.cls-40{mix-blend-mode:multiply;}.cls-10{fill:url(#linear-gradient-6);}.cls-11{fill:url(#linear-gradient-7);}.cls-12{fill:url(#linear-gradient-8);}.cls-13{fill:url(#linear-gradient-9);}.cls-14{fill:#888a85;}.cls-15{fill:url(#linear-gradient-10);}.cls-16{fill:url(#linear-gradient-11);}.cls-17,.cls-20,.cls-25{stroke-miterlimit:10;}.cls-17,.cls-20,.cls-22,.cls-23{stroke-width:0.35px;}.cls-18{fill:url(#linear-gradient-12);}.cls-19{fill:url(#linear-gradient-13);}.cls-20,.cls-23{stroke:#888a85;}.cls-21{fill:url(#linear-gradient-14);}.cls-24{fill:#2e3436;}.cls-25,.cls-59{stroke-width:0.34px;}.cls-26{fill:#204a87;}.cls-27{fill:url(#linear-gradient-15);}.cls-28{fill:url(#linear-gradient-16);}.cls-29{fill:url(#linear-gradient-17);}.cls-30{fill:#555753;}.cls-31{fill:url(#linear-gradient-18);}.cls-32{fill:url(#linear-gradient-19);}.cls-33{fill:url(#linear-gradient-20);}.cls-34{fill:url(#linear-gradient-21);}.cls-35{fill:#231f20;}.cls-36{fill:url(#linear-gradient-22);}.cls-37{fill:url(#linear-gradient-23);}.cls-38{fill:url(#linear-gradient-24);}.cls-39{fill:url(#linear-gradient-25);}.cls-40{fill:url(#linear-gradient-26);}.cls-41{fill:url(#radial-gradient-2);}.cls-42{fill:#fcaf3e;}.cls-43{fill:url(#linear-gradient-27);}.cls-44{fill:url(#linear-gradient-28);}.cls-45{fill:url(#linear-gradient-29);}.cls-46{fill:url(#linear-gradient-30);}.cls-47{fill:url(#linear-gradient-31);}.cls-48{fill:url(#linear-gradient-32);}.cls-49{opacity:0.62;fill:url(#linear-gradient-33);}.cls-50{fill:url(#linear-gradient-34);}.cls-51{fill:url(#linear-gradient-35);}.cls-52{fill:url(#linear-gradient-36);}.cls-53{fill:url(#linear-gradient-37);}.cls-54{fill:url(#linear-gradient-38);}.cls-55{fill:url(#linear-gradient-39);}.cls-56{fill:url(#linear-gradient-40);}.cls-57{clip-path:url(#clip-path);}.cls-58{fill:url(#linear-gradient-41);}</style>
    <radialGradient
       id="radial-gradient"
       cx="139.43"
       cy="49.88"
       r="12.25"
       gradientTransform="matrix(1.19,0,0,0.46,-150.68,15.55)"
       gradientUnits="userSpaceOnUse">
      <stop
         offset="0.03"
         stop-color="#2c2c2c"
         stop-opacity="0.5"
         id="stop17479" />
      <stop
         offset="0.68"
         stop-color="#2c2c2c"
         stop-opacity="0.1"
         id="stop17481" />
      <stop
         offset="0.93"
         stop-color="#2c2c2c"
         stop-opacity="0"
         id="stop17483" />
    </radialGradient>
    <linearGradient
       id="linear-gradient"
       x1="17.03"
       y1="18.64"
       x2="19.9"
       y2="18.64"
       gradientUnits="userSpaceOnUse">
      <stop
         offset="0"
         stop-color="#eeeeec"
         id="stop17486" />
      <stop
         offset="1"
         stop-color="#d3d7cf"
         id="stop17488" />
      <stop
         offset="1"
         id="stop17490" />
    </linearGradient>
    <linearGradient
       id="linear-gradient-2"
       x1="7.54"
       y1="24.29"
       x2="20.8"
       y2="24.29"
       xlink:href="#linear-gradient" />
    <linearGradient
       id="linear-gradient-3"
       x1="18.58"
       y1="23.99"
       x2="-5.54"
       y2="24.97"
       gradientUnits="userSpaceOnUse">
      <stop
         offset="0"
         stop-color="#555753"
         stop-opacity="0"
         id="stop17494" />
      <stop
         offset="0.96"
         stop-color="#555753"
         id="stop17496" />
    </linearGradient>
    <linearGradient
       id="linear-gradient-4"
       x1="17.07"
       y1="17.02"
       x2="20.56"
       y2="15.36"
       gradientUnits="userSpaceOnUse">
      <stop
         offset="0"
         stop-color="#fce94f"
         stop-opacity="0.2"
         id="stop17499" />
      <stop
         offset="0.43"
         stop-color="#fcaf3e"
         id="stop17501" />
      <stop
         offset="0.54"
         stop-color="#faa02d"
         id="stop17503" />
      <stop
         offset="0.85"
         stop-color="#f57900"
         id="stop17505" />
    </linearGradient>
    <linearGradient
       id="linear-gradient-5"
       x1="16.95"
       y1="27.29"
       x2="21.32"
       y2="24.29"
       gradientUnits="userSpaceOnUse">
      <stop
         offset="0"
         stop-color="#fce94f"
         stop-opacity="0.2"
         id="stop17508" />
      <stop
         offset="0.43"
         stop-color="#fcaf3e"
         id="stop17510" />
      <stop
         offset="0.85"
         stop-color="#f57900"
         id="stop17512" />
    </linearGradient>
    <linearGradient
       id="linear-gradient-6"
       x1="13.15"
       y1="28.22"
       x2="7.94"
       y2="25.57"
       xlink:href="#linear-gradient-3" />
    <linearGradient
       id="linear-gradient-7"
       x1="11.04"
       y1="15.74"
       x2="17.28"
       y2="15.74"
       xlink:href="#linear-gradient-3" />
    <linearGradient
       id="linear-gradient-8"
       x1="20.63"
       y1="31.22"
       x2="13.09"
       y2="27.75"
       xlink:href="#linear-gradient-3" />
    <linearGradient
       id="linear-gradient-9"
       x1="18.74"
       y1="16.8"
       x2="17.68"
       y2="18.17"
       xlink:href="#linear-gradient-3" />
    <linearGradient
       id="linear-gradient-10"
       x1="8.83"
       y1="20.15"
       x2="9.25"
       y2="21.62"
       xlink:href="#linear-gradient-3" />
    <linearGradient
       id="linear-gradient-11"
       x1="8.77"
       y1="17.15"
       x2="11.03"
       y2="19.79"
       xlink:href="#linear-gradient-3" />
    <linearGradient
       id="linear-gradient-12"
       x1="17.77"
       y1="20.82"
       x2="20.92"
       y2="20.82"
       gradientTransform="matrix(0.98,0.19,-0.19,0.98,4.13,-3.01)"
       xlink:href="#linear-gradient" />
    <linearGradient
       id="linear-gradient-13"
       x1="19.63"
       y1="21.44"
       x2="20.6"
       y2="20.43"
       xlink:href="#linear-gradient-5" />
    <linearGradient
       id="linear-gradient-14"
       x1="19.39"
       y1="21.47"
       x2="19.18"
       y2="22.58"
       xlink:href="#linear-gradient-3" />
    <linearGradient
       id="linear-gradient-15"
       x1="13.34"
       y1="18.39"
       x2="13.34"
       y2="19.36"
       xlink:href="#linear-gradient-3" />
    <linearGradient
       id="linear-gradient-16"
       x1="16.59"
       y1="14.64"
       x2="13.97"
       y2="17.59"
       gradientUnits="userSpaceOnUse">
      <stop
         offset="0"
         stop-color="#b2cbe5"
         id="stop17525" />
      <stop
         offset="1"
         stop-color="#3465a4"
         id="stop17527" />
    </linearGradient>
    <linearGradient
       id="linear-gradient-17"
       x1="13.48"
       y1="17.98"
       x2="15.66"
       y2="12.62"
       xlink:href="#linear-gradient-5" />
    <linearGradient
       id="linear-gradient-18"
       x1="18.89"
       y1="18.39"
       x2="18.89"
       y2="19.36"
       xlink:href="#linear-gradient-3" />
    <linearGradient
       id="linear-gradient-19"
       x1="20.1"
       y1="16.13"
       x2="17.51"
       y2="20.82"
       xlink:href="#linear-gradient-16" />
    <linearGradient
       id="linear-gradient-20"
       x1="16.74"
       y1="18.87"
       x2="29.58"
       y2="14.8"
       xlink:href="#linear-gradient-5" />
    <linearGradient
       id="linear-gradient-21"
       x1="21.52"
       y1="17.91"
       x2="20.57"
       y2="19.39"
       gradientUnits="userSpaceOnUse">
      <stop
         offset="0"
         stop-color="#fce94f"
         id="stop17534" />
      <stop
         offset="0.36"
         stop-color="#fcaf3e"
         id="stop17536" />
      <stop
         offset="0.67"
         stop-color="#f57900"
         id="stop17538" />
    </linearGradient>
    <linearGradient
       id="linear-gradient-22"
       x1="19.56"
       y1="35.99"
       x2="15.37"
       y2="34.62"
       xlink:href="#linear-gradient-3" />
    <linearGradient
       id="linear-gradient-23"
       x1="18.12"
       y1="35.43"
       x2="23.96"
       y2="34.34"
       xlink:href="#linear-gradient-5" />
    <linearGradient
       id="linear-gradient-24"
       x1="14.89"
       y1="15.2"
       x2="17.42"
       y2="15.2"
       gradientUnits="userSpaceOnUse">
      <stop
         offset="0"
         stop-color="#fff"
         stop-opacity="0"
         id="stop17543" />
      <stop
         offset="0.98"
         stop-color="#fce94f"
         id="stop17545" />
    </linearGradient>
    <linearGradient
       id="linear-gradient-25"
       x1="8.84"
       y1="36.49"
       x2="18"
       y2="33.59"
       xlink:href="#linear-gradient-5" />
    <linearGradient
       id="linear-gradient-26"
       x1="10.77"
       y1="36.84"
       x2="7.75"
       y2="36.36"
       xlink:href="#linear-gradient-3" />
    <radialGradient
       id="radial-gradient-2"
       cx="39.52"
       cy="14.99"
       r="11.08"
       gradientTransform="matrix(0.95,-0.17,0.09,0.58,0.31,12.96)"
       xlink:href="#linear-gradient-21" />
    <linearGradient
       id="linear-gradient-27"
       x1="35.79"
       y1="20.7"
       x2="40.92"
       y2="20.7"
       gradientUnits="userSpaceOnUse">
      <stop
         offset="0"
         stop-color="#fdf4a4"
         id="stop17551" />
      <stop
         offset="1"
         stop-color="#fce94f"
         id="stop17553" />
    </linearGradient>
    <linearGradient
       id="linear-gradient-28"
       x1="33.59"
       y1="15.46"
       x2="36.13"
       y2="15.46"
       xlink:href="#linear-gradient-27" />
    <linearGradient
       id="linear-gradient-29"
       x1="38.62"
       y1="10.8"
       x2="41.49"
       y2="10.8"
       xlink:href="#linear-gradient-27" />
    <linearGradient
       id="linear-gradient-30"
       x1="42.98"
       y1="13.64"
       x2="44.19"
       y2="13.64"
       xlink:href="#linear-gradient-27" />
    <linearGradient
       id="linear-gradient-31"
       x1="33.22"
       y1="18.63"
       x2="45.16"
       y2="11.64"
       xlink:href="#linear-gradient-27" />
    <linearGradient
       id="linear-gradient-32"
       x1="30.47"
       y1="15.97"
       x2="32.17"
       y2="15.97"
       xlink:href="#linear-gradient-27" />
    <linearGradient
       id="linear-gradient-33"
       x1="10.51"
       y1="20.86"
       x2="10.51"
       y2="19.9"
       gradientUnits="userSpaceOnUse">
      <stop
         offset="0"
         stop-color="#fff"
         stop-opacity="0"
         id="stop17561" />
      <stop
         offset="1"
         stop-color="snow"
         id="stop17563" />
    </linearGradient>
    <linearGradient
       id="linear-gradient-34"
       x1="11.51"
       y1="19.8"
       x2="11.64"
       y2="22.28"
       xlink:href="#linear-gradient-3" />
    <linearGradient
       id="linear-gradient-35"
       x1="18.35"
       y1="20.7"
       x2="18.11"
       y2="22.42"
       xlink:href="#linear-gradient-3" />
    <linearGradient
       id="linear-gradient-36"
       x1="18.13"
       y1="18.81"
       x2="16.39"
       y2="21.69"
       xlink:href="#linear-gradient-3" />
    <linearGradient
       id="linear-gradient-37"
       x1="12.32"
       y1="13.11"
       x2="18.43"
       y2="13.11"
       xlink:href="#linear-gradient" />
    <linearGradient
       id="linear-gradient-38"
       x1="17.31"
       y1="13.78"
       x2="13.5"
       y2="11.99"
       xlink:href="#linear-gradient-3" />
    <linearGradient
       id="linear-gradient-39"
       x1="16.44"
       y1="14.96"
       x2="18.48"
       y2="12.97"
       xlink:href="#linear-gradient-5" />
    <linearGradient
       id="linear-gradient-40"
       x1="16.97"
       y1="10.48"
       x2="18.63"
       y2="13.18"
       xlink:href="#linear-gradient-5" />
    <clipPath
       id="clip-path">
      <path
         class="cls-1"
         d="M15.45,11.93a.33.33,0,0,1,.43-.21,6.66,6.66,0,0,0,1.38.35,2.37,2.37,0,0,0,1.15,0L18,13.51a2.3,2.3,0,0,1-1.1.18,3.52,3.52,0,0,1-1.66-.45.34.34,0,0,1-.13-.4Z"
         id="path17573" />
    </clipPath>
    <linearGradient
       id="linear-gradient-41"
       x1="18.6"
       y1="13.78"
       x2="17.08"
       y2="10.56"
       gradientUnits="userSpaceOnUse">
      <stop
         offset="0.01"
         stop-color="#fff"
         id="stop17576" />
      <stop
         offset="0.36"
         stop-color="#fce94f"
         id="stop17578" />
      <stop
         offset="0.67"
         stop-color="#f57900"
         id="stop17580" />
    </linearGradient>
    <linearGradient
       inkscape:collect="always"
       xlink:href="#linear-gradient"
       id="linearGradient17806"
       gradientUnits="userSpaceOnUse"
       x1="17.03"
       y1="18.64"
       x2="19.9"
       y2="18.64" />
    <linearGradient
       inkscape:collect="always"
       xlink:href="#linear-gradient-3"
       id="linearGradient17808"
       gradientUnits="userSpaceOnUse"
       x1="18.58"
       y1="23.99"
       x2="-5.54"
       y2="24.97" />
    <linearGradient
       inkscape:collect="always"
       xlink:href="#linear-gradient-5"
       id="linearGradient17810"
       gradientUnits="userSpaceOnUse"
       x1="16.95"
       y1="27.29"
       x2="21.32"
       y2="24.29" />
    <linearGradient
       inkscape:collect="always"
       xlink:href="#linear-gradient-16"
       id="linearGradient17812"
       gradientUnits="userSpaceOnUse"
       x1="16.59"
       y1="14.64"
       x2="13.97"
       y2="17.59" />
    <linearGradient
       inkscape:collect="always"
       xlink:href="#linear-gradient-21"
       id="linearGradient17814"
       gradientUnits="userSpaceOnUse"
       x1="21.52"
       y1="17.91"
       x2="20.57"
       y2="19.39" />
    <linearGradient
       inkscape:collect="always"
       xlink:href="#linear-gradient-27"
       id="linearGradient17816"
       gradientUnits="userSpaceOnUse"
       x1="35.79"
       y1="20.7"
       x2="40.92"
       y2="20.7" />
  </defs>
  <title
     id="title17585">21-Flamethrower</title>
  <g
     id="shadow"
     transform="matrix(0.6917773,0,0,0.73147702,-0.48543939,14.123258)"
     style="isolation:isolate;stroke-width:1.40578">
    <ellipse
       class="cls-3"
       cx="14.66"
       cy="38.59"
       rx="13.96"
       ry="5.46"
       id="ellipse17587"
       style="fill:url(#radial-gradient);stroke-width:1.40578" />
  </g>
  <g
     id="ART"
     transform="matrix(1.2138815,0,0,1.2142922,-7.5775026,-5.4413475)"
     style="isolation:isolate;stroke-width:0.823664">
    <path
       class="cls-4"
       d="m 21.13,37.48 c -0.22,-0.36 -1.35,-0.42 -1.75,-0.43 -0.4,-0.01 -0.54,-0.94 -0.52,-1.1 a 14,14 0 0 1 0.91,-2.28 c 0.13,-0.28 0.52,-1.28 0.67,-1.74 a 0.54,0.54 0 0 0 0,-0.45 v 0 A 1.34,1.34 0 0 1 20.61,31.14 2.45,2.45 0 0 0 20.83,29.36 34.79,34.79 0 0 0 18,24 2.09,2.09 0 0 1 17.63,22.63 c 0,-0.11 0,-0.43 0,-0.82 a 2.73,2.73 0 0 0 1.73,0.91 c 0.79,0.06 0.93,-0.19 1.1,-0.68 A 1.63,1.63 0 0 0 19.91,19.9 1.61,1.61 0 0 0 19.6,19.7 C 19.3,18.77 19.37,17.46 19.16,16.78 A 3.37,3.37 0 0 0 16.85,15 v 0 a 0.77,0.77 0 0 0 0.68,-0.36 7,7 0 0 0 0.47,-1.1 l 0.41,-1.5 a 1.85,1.85 0 0 0 -1.54,-2.23 2.53,2.53 0 0 0 -2,0.51 4.89,4.89 0 0 0 -0.85,2 5.39,5.39 0 0 1 -1.33,1.68 1.34,1.34 0 0 0 -0.37,0.57 h 0.17 a 0.79,0.79 0 0 1 0.22,0.07 h -0.19 c -0.49,0.05 -2.18,0.19 -2.87,1.07 a 13.27,13.27 0 0 0 -2,3.81 3.78,3.78 0 0 0 -0.08,1.38 1.81,1.81 0 0 0 0.5,0.81 A 1.71,1.71 0 0 0 9,22.2 h 0.15 a 1.14,1.14 0 0 0 0.42,0.3 7.38,7.38 0 0 0 2,-0.15 3.13,3.13 0 0 1 -0.43,1.22 c -0.47,0.78 -1.44,2.06 -1.78,2.74 a 16.67,16.67 0 0 0 -1.55,3.76 4.86,4.86 0 0 0 0.3,1.69 c 0,0.08 0,0.2 0,0.36 H 8.02 a 0.81,0.81 0 0 0 -0.16,0.56 c 0,0.4 0.06,1.1 0.12,1.76 a 14.9,14.9 0 0 1 0.09,2.93 4,4 0 0 1 -1,1.4 1.21,1.21 0 0 0 -0.37,1 v 0.58 c 0,0 0.07,0.33 1.3,0.33 a 2.06,2.06 0 0 0 1.92,-1 5.85,5.85 0 0 1 0.6,-0.51 4.76,4.76 0 0 0 0.09,-1.48 c -0.08,-0.74 -0.15,-0.93 -0.16,-1.16 a 14,14 0 0 1 0.33,-2 17.43,17.43 0 0 0 0.25,-1.86 c 0,-0.43 -0.14,-0.53 -0.14,-0.53 h -0.12 v 0 a 4.73,4.73 0 0 0 0.31,-1.71 c 0,-0.32 1.14,-1.18 1.89,-1.83 a 8.07,8.07 0 0 0 1.34,-1.47 0.44,0.44 0 0 1 0.38,-0.2 c 0.11,0 0.39,0.39 0.77,0.94 a 11.31,11.31 0 0 0 1.33,1.68 c 0.33,0.25 0.72,0.52 0.84,0.63 0.12,0.11 -0.35,0.37 -0.49,0.56 -0.14,0.19 -0.23,0.55 0.1,0.69 a 1.18,1.18 0 0 0 -0.26,0.42 c -0.52,1.48 -0.56,3.27 -0.77,3.75 a 6.57,6.57 0 0 0 -0.46,1.92 4.55,4.55 0 0 0 0.12,1.22 27.25,27.25 0 0 0 3.46,0.11 12.27,12.27 0 0 0 1.89,-0.32 2.15,2.15 0 0 0 -0.09,-1.05 z"
       id="path17590" />
    <path
       class="cls-5"
       d="m 18.09,15.48 a 3.37,3.37 0 0 1 1.12,1.35 29.08,29.08 0 0 0 0.49,3.17 c 0.38,0.93 0.19,1.84 -0.33,1.86 -0.52,0.02 -1.79,-1 -2.25,-2.75 a 4.72,4.72 0 0 1 0.97,-3.63 z"
       id="path17592"
       style="fill:url(#linearGradient17806);stroke-width:0.823664" />
    <path
       class="cls-6"
       d="m 20.52,31.14 c -0.21,0.27 -0.31,0.92 -0.64,1.51 a 2.23,2.23 0 0 1 -2.19,0.64 c -0.27,-0.28 -0.07,-1.72 -0.39,-1.85 -0.32,-0.13 -0.23,-0.51 -0.1,-0.69 0.13,-0.18 0.49,-0.56 0.49,-0.56 0,0 -0.51,-0.38 -0.84,-0.63 a 11.31,11.31 0 0 1 -1.33,-1.68 c -0.38,-0.55 -0.66,-0.94 -0.77,-0.94 a 0.44,0.44 0 0 0 -0.38,0.2 8.07,8.07 0 0 1 -1.37,1.47 c -0.75,0.65 -1.84,1.51 -1.89,1.83 a 4.73,4.73 0 0 1 -0.31,1.71 c -0.31,0.68 -1,2.18 -1.87,1.82 C 8.06,33.61 8.17,32.12 8.11,31.78 a 4.86,4.86 0 0 1 -0.3,-1.69 16.67,16.67 0 0 1 1.55,-3.76 c 0.34,-0.68 1.31,-2 1.78,-2.74 a 3,3 0 0 0 0.44,-1.26 c 0.08,-0.59 0.17,-1.39 0.18,-1.76 a 10.76,10.76 0 0 0 -0.21,-1.71 2.64,2.64 0 0 0 -1.18,0.95 c 0.36,0.25 0.68,0.52 1,0.72 C 12,20.9 11,22.2 11,22.2 a 9.8,9.8 0 0 1 -2,0 1.71,1.71 0 0 1 -0.94,-0.55 1.81,1.81 0 0 1 -0.5,-0.81 3.78,3.78 0 0 1 0.08,-1.38 13.27,13.27 0 0 1 2,-3.81 c 0.69,-0.88 2.38,-1 2.87,-1.07 a 19.87,19.87 0 0 1 4.12,0.29 5.06,5.06 0 0 1 1.6,0.73 2.93,2.93 0 0 1 0.94,1.21 28.75,28.75 0 0 0 0.5,3.11 c 0.38,0.94 0.2,1.85 -0.32,1.87 a 2.59,2.59 0 0 1 -1.61,-1.31 c -0.06,0.71 -0.13,1.95 -0.15,2.18 A 2.09,2.09 0 0 0 18,24 a 34.79,34.79 0 0 1 2.77,5.33 2.45,2.45 0 0 1 -0.25,1.81 z"
       id="path17594"
       style="fill:url(#linear-gradient-2);stroke-width:0.823664" />
    <path
       class="cls-7"
       d="m 20.52,31.14 c -0.21,0.27 -0.31,0.92 -0.64,1.51 a 2.23,2.23 0 0 1 -2.19,0.64 c -0.27,-0.28 -0.07,-1.72 -0.39,-1.85 -0.32,-0.13 -0.23,-0.51 -0.1,-0.69 0.13,-0.18 0.49,-0.56 0.49,-0.56 0,0 -0.51,-0.38 -0.84,-0.63 a 11.31,11.31 0 0 1 -1.33,-1.68 c -0.38,-0.55 -0.66,-0.94 -0.77,-0.94 a 0.44,0.44 0 0 0 -0.38,0.2 8.07,8.07 0 0 1 -1.37,1.47 c -0.75,0.65 -1.84,1.51 -1.89,1.83 a 4.73,4.73 0 0 1 -0.31,1.71 c -0.31,0.68 -1,2.18 -1.87,1.82 C 8.06,33.61 8.17,32.12 8.11,31.78 a 4.86,4.86 0 0 1 -0.3,-1.69 16.67,16.67 0 0 1 1.55,-3.76 c 0.34,-0.68 1.31,-2 1.78,-2.74 a 3,3 0 0 0 0.44,-1.26 c 0.08,-0.59 0.17,-1.39 0.18,-1.76 a 10.76,10.76 0 0 0 -0.21,-1.71 2.64,2.64 0 0 0 -1.18,0.95 c 0.36,0.25 0.68,0.52 1,0.72 C 12,20.9 11,22.2 11,22.2 a 9.8,9.8 0 0 1 -2,0 1.71,1.71 0 0 1 -0.94,-0.55 1.81,1.81 0 0 1 -0.5,-0.81 3.78,3.78 0 0 1 0.08,-1.38 13.27,13.27 0 0 1 2,-3.81 c 0.69,-0.88 2.38,-1 2.87,-1.07 a 19.87,19.87 0 0 1 4.12,0.29 5.06,5.06 0 0 1 1.6,0.73 2.93,2.93 0 0 1 0.94,1.21 28.75,28.75 0 0 0 0.5,3.11 c 0.38,0.94 0.2,1.85 -0.32,1.87 a 2.59,2.59 0 0 1 -1.61,-1.31 c -0.06,0.71 -0.13,1.95 -0.15,2.18 A 2.09,2.09 0 0 0 18,24 a 34.79,34.79 0 0 1 2.77,5.33 2.45,2.45 0 0 1 -0.25,1.81 z"
       id="path17596"
       style="fill:url(#linearGradient17808);stroke-width:0.823664" />
    <path
       class="cls-8"
       d="m 17.21,15.13 a 6,6 0 0 1 -1.06,1.1 1.14,1.14 0 0 1 -0.66,0.24 1.93,1.93 0 0 0 0.92,-0.23 1.88,1.88 0 0 1 1.59,0 1.41,1.41 0 0 1 0.62,0.71 5.88,5.88 0 0 1 0.16,0.65 l 0.76,0.1 a 4.33,4.33 0 0 0 -0.69,-1.46 4.92,4.92 0 0 0 -1.09,-0.79"
       id="path17598"
       style="fill:url(#linear-gradient-4);stroke-width:0.823664" />
    <path
       class="cls-9"
       d="m 17,21.66 a 6.11,6.11 0 0 1 -1.49,1.9 c -0.41,0.2 0.75,0.65 1.35,1.58 0.6,0.93 2.55,3.43 2.86,4.1 0.31,0.67 0,1.44 0.48,1.38 0.48,-0.06 0.67,-0.59 0.51,-1.26 -0.16,-0.67 -1.94,-3.84 -2.23,-4.45 a 8.78,8.78 0 0 1 -0.91,-1.86 c 0,-0.34 0.08,-0.93 0.08,-0.93"
       id="path17600"
       style="fill:url(#linearGradient17810);stroke-width:0.823664" />
    <path
       class="cls-10"
       d="M 12.64,21.47 A 1.73,1.73 0 0 0 11.51,23 c 0.09,-0.06 0.21,-0.11 0.29,0 a 0.24,0.24 0 0 1 0,0.2 0.66,0.66 0 0 1 0,0.14 3.9,3.9 0 0 1 -0.8,1.66 14.49,14.49 0 0 0 -1.24,2 27.42,27.42 0 0 0 -1.17,2.71 2.92,2.92 0 0 0 0,1.55 13.47,13.47 0 0 1 0.18,2 c 0,0 1.93,-0.28 1.7,-1 -0.23,-0.72 -0.73,-1 -0.86,-1.47 -0.13,-0.47 1.16,-3 2.18,-4.49 a 2.64,2.64 0 0 1 1.89,-1.23 c 0.53,0 -0.33,-0.38 -0.65,-0.84 -0.32,-0.46 0.53,-0.92 1.15,-1.32 0.62,-0.4 -0.31,-1.62 -0.31,-1.62"
       id="path17602"
       style="fill:url(#linear-gradient-6);stroke-width:0.823664" />
    <path
       class="cls-11"
       d="m 12.05,14.62 c 0,0 0.24,0 0.3,0 0.21,0 0.32,0.08 0.5,0.14 a 0.34,0.34 0 0 1 0.14,0 0.59,0.59 0 0 1 0.17,0.18 9.22,9.22 0 0 0 0.62,0.78 2,2 0 0 0 2,0.56 1.81,1.81 0 0 0 1.36,-1.13 c 0.09,0.08 0.05,0.08 0.16,0.12 0.11,0.04 -0.29,0.56 -0.32,0.61 a 2.3,2.3 0 0 1 -2.32,1 8.13,8.13 0 0 1 -1.64,-1 3.17,3.17 0 0 0 -0.91,-0.26 3.54,3.54 0 0 0 -0.85,-0.11 c -0.22,0 -0.27,0 -0.05,-0.12 0.22,-0.12 1.26,-0.16 1.24,-0.43 a 0.27,0.27 0 0 0 -0.11,-0.15 2.26,2.26 0 0 0 -0.29,-0.19 z"
       id="path17604"
       style="fill:url(#linear-gradient-7);stroke-width:0.823664" />
    <path
       class="cls-12"
       d="m 20.77,30.45 a 1.51,1.51 0 0 1 -0.25,0.69 c -0.21,0.27 -0.31,0.92 -0.64,1.51 a 2.23,2.23 0 0 1 -2.19,0.64 c -0.27,-0.28 -0.07,-1.72 -0.39,-1.85 -0.32,-0.13 -0.23,-0.51 -0.1,-0.69 0.13,-0.18 0.49,-0.56 0.49,-0.56 0,0 -0.51,-0.38 -0.84,-0.63 a 11.31,11.31 0 0 1 -1.33,-1.68 c -0.38,-0.55 -0.66,-0.94 -0.77,-0.94 a 0.44,0.44 0 0 0 -0.38,0.2 8.07,8.07 0 0 1 -1.37,1.47 l -0.19,0.16 V 28.71 A 6.22,6.22 0 0 0 14,27 c 0.08,-0.32 -0.13,-0.44 -0.32,-0.67 -0.19,-0.23 0.25,-0.26 0.67,-0.13 a 1.25,1.25 0 0 0 1.47,-0.34 c 0.38,-0.54 0.38,0.09 0.3,0.61 -0.08,0.52 1.07,2.14 1.57,2.67 0.5,0.53 1.32,0.48 1.49,0.92 0.17,0.44 -0.47,0.34 -0.51,0.65 -0.04,0.31 0.55,0.42 0.79,0.42 A 2.68,2.68 0 0 0 20.21,31 0.86,0.86 0 0 0 20.77,30.45 Z"
       id="path17606"
       style="fill:url(#linear-gradient-8);stroke-width:0.823664" />
    <path
       class="cls-13"
       d="m 18,16.82 c 0.14,-0.4 0.31,-0.45 0.32,-0.35 a 1.87,1.87 0 0 0 0.3,1.29 C 19.01,18.18 17.84,17.7 17.84,17.7 A 1.6,1.6 0 0 1 18,16.82 Z"
       id="path17608"
       style="fill:url(#linear-gradient-9);stroke-width:0.823664" />
    <path
       class="cls-14"
       d="m 17.27,22.18 a 12,12 0 0 1 -2.17,0.15 17.18,17.18 0 0 1 -2.78,-0.25 7.64,7.64 0 0 0 2.79,0.44 c 1.73,0 2.16,-0.34 2.16,-0.34 z"
       id="path17610"
       style="stroke-width:0.823664" />
    <path
       class="cls-14"
       d="m 17.27,23.3 a 12.85,12.85 0 0 1 -2.17,0.14 17.87,17.87 0 0 1 -2.78,-0.24 5.32,5.32 0 0 0 2.64,0.52 4,4 0 0 0 2.31,-0.42 z"
       id="path17612"
       style="stroke-width:0.823664" />
    <path
       class="cls-15"
       d="m 10.22,21.74 a 2,2 0 0 1 -2.08,-0.8 c -0.39,-0.67 0.39,0.41 1.93,0.21"
       id="path17614"
       style="fill:url(#linear-gradient-10);stroke-width:0.823664" />
    <path
       class="cls-16"
       d="m 8.18,19.8 a 1.84,1.84 0 0 1 1.05,-0.44 2,2 0 0 1 1.18,0.5 c 0,0 0.23,-0.05 0.21,-0.08 -0.02,-0.03 -0.37,-0.79 -0.37,-0.79 a 4.91,4.91 0 0 0 1,-0.74 c 0.11,-0.21 0,-1.95 -0.54,-2.34 -0.54,-0.39 -0.11,1 -0.14,1.31 -0.03,0.31 -0.37,0.14 -0.52,0.12 a 0.33,0.33 0 0 0 -0.1,0 0.27,0.27 0 0 0 -0.19,0.3 c 0,0.14 0.07,0.26 0.07,0.39 a 0.75,0.75 0 0 1 -0.54,0.79 1.83,1.83 0 0 0 -1.2,0.76 C 8,19.74 8,19.94 8.18,19.8 Z"
       id="path17616"
       style="fill:url(#linear-gradient-11);stroke-width:0.823664" />
    <path
       class="cls-17"
       d="m 20.52,31.14 c -0.21,0.27 -0.31,0.92 -0.64,1.51 a 2.23,2.23 0 0 1 -2.19,0.64 c -0.27,-0.28 -0.07,-1.72 -0.39,-1.85 -0.32,-0.13 -0.23,-0.51 -0.1,-0.69 0.13,-0.18 0.49,-0.56 0.49,-0.56 0,0 -0.51,-0.38 -0.84,-0.63 a 11.31,11.31 0 0 1 -1.33,-1.68 c -0.38,-0.55 -0.66,-0.94 -0.77,-0.94 a 0.44,0.44 0 0 0 -0.38,0.2 8.07,8.07 0 0 1 -1.37,1.47 c -0.75,0.65 -1.84,1.51 -1.89,1.83 a 4.73,4.73 0 0 1 -0.31,1.71 c -0.31,0.68 -1,2.18 -1.87,1.82 C 8.06,33.61 8.17,32.12 8.11,31.78 a 4.86,4.86 0 0 1 -0.3,-1.69 16.67,16.67 0 0 1 1.55,-3.76 c 0.34,-0.68 1.31,-2 1.78,-2.74 a 3,3 0 0 0 0.44,-1.26 c 0.08,-0.59 0.17,-1.39 0.18,-1.76 a 10.76,10.76 0 0 0 -0.21,-1.71 2.64,2.64 0 0 0 -1.18,0.95 c 0.36,0.25 0.68,0.52 1,0.72 C 12,20.9 11,22.2 11,22.2 a 9.8,9.8 0 0 1 -2,0 1.71,1.71 0 0 1 -0.94,-0.55 1.81,1.81 0 0 1 -0.5,-0.81 3.78,3.78 0 0 1 0.08,-1.38 13.27,13.27 0 0 1 2,-3.81 c 0.69,-0.88 2.38,-1 2.87,-1.07 a 19.87,19.87 0 0 1 4.12,0.29 c 1,0.37 2.18,0.81 2.54,1.94 a 28.75,28.75 0 0 0 0.5,3.11 c 0.38,0.94 0.2,1.85 -0.32,1.87 a 2.59,2.59 0 0 1 -1.61,-1.31 c -0.06,0.71 -0.13,1.95 -0.15,2.18 A 2.09,2.09 0 0 0 18,24 a 34.79,34.79 0 0 1 2.77,5.33 2.45,2.45 0 0 1 -0.25,1.81 z"
       id="path17618" />
    <path
       class="cls-18"
       d="m 17.42,21.6 a 3,3 0 0 0 2,1.15 c 0.79,0.06 0.93,-0.19 1.1,-0.68 a 1.63,1.63 0 0 0 -0.55,-2.14 c -1.06,-0.85 -1.51,0.24 -1.52,0.21"
       id="path17620"
       style="fill:url(#linear-gradient-12);stroke-width:0.823664" />
    <path
       class="cls-19"
       d="m 19.6,19.88 0.23,0.63 a 2.44,2.44 0 0 1 0.29,0.74 c 0,0.31 -0.2,0.86 -0.45,0.93 a 0.85,0.85 0 0 1 -0.53,-0.05 l -0.49,0.37 a 7.06,7.06 0 0 0 0.82,0.2 2.18,2.18 0 0 0 0.65,-0.18 c 0.07,-0.06 0.49,-1.14 0.49,-1.14 L 20.48,20.6 20.11,20.17 19.86,20"
       id="path17622"
       style="fill:url(#linear-gradient-13);stroke-width:0.823664" />
    <path
       class="cls-20"
       d="m 17.42,21.6 a 3,3 0 0 0 2,1.15 c 0.79,0.06 0.93,-0.19 1.1,-0.68 a 1.63,1.63 0 0 0 -0.55,-2.14 c -1.06,-0.85 -1.51,0.24 -1.52,0.21"
       id="path17624" />
    <path
       class="cls-21"
       d="m 18.57,22 a 2.14,2.14 0 0 0 1,0.27 c 0.39,0 0.47,-0.57 0.47,-0.57 a 0.71,0.71 0 0 1 -0.83,-0.34"
       id="path17626"
       style="fill:url(#linear-gradient-14);stroke-width:0.823664" />
    <path
       class="cls-14"
       d="m 17.94,19.34 a 9.09,9.09 0 0 0 1.32,0.27 1.87,1.87 0 0 1 0.6,1 1.7,1.7 0 0 1 -0.67,1.44 1.56,1.56 0 0 1 -1.36,0.24 1.35,1.35 0 0 1 -0.83,-1.53 2.2,2.2 0 0 1 0.94,-1.42 z"
       id="path17628"
       style="stroke-width:0.823664" />
    <path
       class="cls-22"
       d="m 17.94,19.34 a 9.09,9.09 0 0 0 1.32,0.27 1.87,1.87 0 0 1 0.6,1 1.7,1.7 0 0 1 -0.67,1.44 1.56,1.56 0 0 1 -1.36,0.24 1.35,1.35 0 0 1 -0.83,-1.53 2.2,2.2 0 0 1 0.94,-1.42 z"
       id="path17630" />
    <path
       class="cls-23"
       d="m 11,16.5 a 3.4,3.4 0 0 1 0.27,0.85 8,8 0 0 1 0.07,1.46"
       id="path17632" />
    <path
       class="cls-23"
       d="m 17.93,18.62 a 3.34,3.34 0 0 1 0.13,-1.95"
       id="path17634" />
    <path
       class="cls-24"
       d="m 13.43,22 c 0,0 0,0.36 0,0.58 0,0.22 0,0.31 -0.44,0.39 -0.44,0.08 -0.73,0 -0.81,-0.11 -0.08,-0.11 0,-0.41 0,-0.73 0,-0.32 0.68,-0.4 0.68,-0.4 z"
       id="path17636"
       style="stroke-width:0.823664" />
    <path
       class="cls-25"
       d="m 13.43,22 c 0,0 0,0.36 0,0.58 0,0.22 0,0.31 -0.44,0.39 -0.44,0.08 -0.73,0 -0.81,-0.11 -0.08,-0.11 0,-0.41 0,-0.73 0,-0.32 0.68,-0.4 0.68,-0.4 z"
       id="path17638" />
    <path
       class="cls-26"
       d="m 11.62,20.46 0.26,-0.92 A 1.36,1.36 0 0 1 11.63,18.81 0.48,0.48 0 0 1 12.1,18.3 h 6.82 v 1.3 h -3.78 c 0,0 -0.79,0.15 -0.86,0.86 0,0 -2.12,0.44 -2.66,0 z"
       id="path17640"
       style="stroke-width:0.823664" />
    <rect
       class="cls-26"
       x="9.8599997"
       y="17.9"
       width="6.9499998"
       height="1.5"
       rx="0.75"
       id="rect17642"
       style="stroke-width:0.823664" />
    <rect
       class="cls-27"
       x="9.8599997"
       y="17.9"
       width="6.9499998"
       height="1.5"
       rx="0.75"
       id="rect17644"
       style="fill:url(#linear-gradient-15);stroke-width:0.823664" />
    <path
       class="cls-28"
       d="M 16.73,18.33 H 9.94 a 0.72,0.72 0 0 1 0.67,-0.43 h 5.45 a 0.72,0.72 0 0 1 0.67,0.43 z"
       id="path17646"
       style="fill:url(#linearGradient17812);stroke-width:0.823664" />
    <path
       class="cls-29"
       d="M 16.73,18.33 H 9.94 a 0.72,0.72 0 0 1 0.67,-0.43 h 5.45 a 0.72,0.72 0 0 1 0.67,0.43 z"
       id="path17648"
       style="fill:url(#linear-gradient-17);stroke-width:0.823664" />
    <path
       class="cls-30"
       d="m 16.06,17.9 a 0.75,0.75 0 0 1 0,1.5 h -5.45 a 0.75,0.75 0 0 1 0,-1.5 h 5.45 m 0,-0.35 h -5.45 a 1.1,1.1 0 1 0 0,2.2 h 5.45 a 1.1,1.1 0 1 0 0,-2.2 z"
       id="path17650"
       style="stroke-width:0.823664" />
    <rect
       class="cls-26"
       x="16.190001"
       y="17.85"
       width="5.3899999"
       height="1.59"
       rx="0.80000001"
       id="rect17652"
       style="stroke-width:0.823664" />
    <rect
       class="cls-31"
       x="16.190001"
       y="17.85"
       width="5.3899999"
       height="1.59"
       rx="0.80000001"
       id="rect17654"
       style="fill:url(#linear-gradient-18);stroke-width:0.823664" />
    <path
       class="cls-32"
       d="m 21.51,18.33 h -5.25 a 0.79,0.79 0 0 1 0.73,-0.48 h 3.8 a 0.79,0.79 0 0 1 0.72,0.48 z"
       id="path17656"
       style="fill:url(#linear-gradient-19);stroke-width:0.823664" />
    <path
       class="cls-33"
       d="m 21.51,18.33 h -5.25 a 0.79,0.79 0 0 1 0.73,-0.48 h 3.8 a 0.79,0.79 0 0 1 0.72,0.48 z"
       id="path17658"
       style="fill:url(#linear-gradient-20);stroke-width:0.823664" />
    <path
       class="cls-30"
       d="m 20.79,17.85 a 0.8,0.8 0 0 1 0.79,0.8 0.79,0.79 0 0 1 -0.79,0.79 H 17 a 0.79,0.79 0 0 1 -0.8,-0.79 0.8,0.8 0 0 1 0.8,-0.8 h 3.8 m 0,-0.35 H 17 a 1.15,1.15 0 1 0 0,2.29 h 3.8 a 1.15,1.15 0 0 0 0,-2.29 z"
       id="path17660"
       style="stroke-width:0.823664" />
    <ellipse
       class="cls-34"
       cx="21.049999"
       cy="18.65"
       rx="0.50999999"
       ry="0.63999999"
       id="ellipse17662"
       style="fill:url(#linearGradient17814);stroke-width:0.823664" />
    <ellipse
       class="cls-35"
       cx="21.139999"
       cy="18.65"
       rx="0.22"
       ry="0.28999999"
       id="ellipse17664"
       style="stroke-width:0.823664" />
    <path
       class="cls-14"
       d="m 17.3,31.44 a 1.18,1.18 0 0 0 -0.26,0.42 c -0.52,1.48 -0.56,3.27 -0.77,3.75 a 6.57,6.57 0 0 0 -0.46,1.92 4.55,4.55 0 0 0 0.12,1.22 21.09,21.09 0 0 0 3.46,0.11 c 0.78,-0.09 1.89,-0.32 1.89,-0.32 a 2.15,2.15 0 0 0 -0.15,-1.06 c -0.22,-0.36 -1.35,-0.42 -1.75,-0.43 -0.4,-0.01 -0.54,-0.94 -0.52,-1.1 a 14,14 0 0 1 0.91,-2.28 c 0.13,-0.28 0.52,-1.28 0.67,-1.74 a 0.54,0.54 0 0 0 0,-0.45 z"
       id="path17666"
       style="stroke-width:0.823664" />
    <path
       class="cls-36"
       d="m 18.2,38.89 c -1.09,0 -2.27,-0.14 -2.27,-0.14 a 4.55,4.55 0 0 1 -0.12,-1.22 6.57,6.57 0 0 1 0.46,-1.92 c 0.21,-0.48 0.25,-2.27 0.77,-3.75 a 1.18,1.18 0 0 1 0.26,-0.42 h 0.44 l 0.16,0.11 a 25,25 0 0 0 -0.9,3.93 20.28,20.28 0 0 0 -0.16,2.5 c 0,0.45 0.58,0.67 1.25,0.86 z"
       id="path17668"
       style="fill:url(#linear-gradient-22);stroke-width:0.823664" />
    <path
       class="cls-37"
       d="m 21.28,38.54 c 0,0 -0.42,0.09 -0.92,0.17 A 1.68,1.68 0 0 0 20.24,38 c -0.18,-0.38 -0.58,-0.36 -1.23,-0.4 -0.92,-0.05 -1.16,-1.46 -1.07,-1.86 0.09,-0.4 1,-2.49 1.21,-3 0.21,-0.51 0.18,-0.79 -0.22,-0.87 -0.4,-0.08 -0.2,-0.26 -0.2,-0.26 l 1.61,-0.12 h 0.07 a 0.49,0.49 0 0 1 0,0.42 c -0.15,0.46 -0.54,1.46 -0.67,1.74 A 14,14 0 0 0 18.86,36 c 0,0.16 0.12,1.08 0.52,1.1 0.4,0.02 1.53,0.07 1.75,0.43 a 2.15,2.15 0 0 1 0.15,1.01 z"
       id="path17670"
       style="fill:url(#linear-gradient-23);stroke-width:0.823664" />
    <path
       class="cls-17"
       d="m 17.3,31.44 a 1.18,1.18 0 0 0 -0.26,0.42 c -0.52,1.48 -0.56,3.27 -0.77,3.75 a 6.57,6.57 0 0 0 -0.46,1.92 4.55,4.55 0 0 0 0.12,1.22 27.25,27.25 0 0 0 3.46,0.11 12.27,12.27 0 0 0 1.89,-0.32 2.15,2.15 0 0 0 -0.15,-1.06 c -0.22,-0.36 -1.35,-0.42 -1.75,-0.43 -0.4,-0.01 -0.54,-0.94 -0.52,-1.1 a 14,14 0 0 1 0.91,-2.28 c 0.13,-0.28 0.52,-1.28 0.67,-1.74 a 0.54,0.54 0 0 0 0,-0.45 z"
       id="path17672" />
    <path
       class="cls-38"
       d="m 15.36,16.43 a 2.11,2.11 0 0 0 1.52,-0.81 c 0.25,-0.32 0.29,-0.61 0.54,-0.61 l -0.15,-0.22 c -0.07,-0.12 -0.56,-0.76 -1,-0.82 -0.44,-0.06 -1,0.47 -1.28,1.36 -0.28,0.89 0.37,1.1 0.37,1.1 z"
       id="path17674"
       style="fill:url(#linear-gradient-24);stroke-width:0.823664" />
    <path
       class="cls-14"
       d="m 10.94,32.14 c 0,0 0.16,0.1 0.14,0.53 a 17.43,17.43 0 0 1 -0.25,1.86 14,14 0 0 0 -0.33,2 c 0,0.23 0.08,0.42 0.16,1.16 a 4.76,4.76 0 0 1 -0.09,1.48 5.85,5.85 0 0 0 -0.6,0.51 2.06,2.06 0 0 1 -1.92,1 c -1.23,0 -1.3,-0.33 -1.3,-0.33 v -0.58 a 1.21,1.21 0 0 1 0.37,-1 4,4 0 0 0 1,-1.4 A 14.9,14.9 0 0 0 8,34.41 C 7.94,33.75 7.88,33.05 7.88,32.65 a 0.81,0.81 0 0 1 0.16,-0.56 2.24,2.24 0 0 0 1.17,0.28 5.37,5.37 0 0 0 1.73,-0.23 z"
       id="path17676"
       style="stroke-width:0.823664" />
    <path
       class="cls-39"
       d="m 10.83,34.53 a 14,14 0 0 0 -0.33,2 c 0,0.23 0.08,0.42 0.16,1.16 a 4.76,4.76 0 0 1 -0.09,1.48 5.85,5.85 0 0 0 -0.6,0.51 L 9.73,40 a 5.59,5.59 0 0 0 0.36,-1.67 C 10.19,37.6 9.72,37.11 9.92,36.46 a 31.15,31.15 0 0 0 0.54,-3.35 c 0,-0.43 -0.2,-0.35 -0.49,-0.28 -0.29,0.07 -0.17,-0.36 0.09,-0.5 a 5.08,5.08 0 0 0 0.88,-0.18 c 0,0 0.16,0.1 0.14,0.53 a 17.43,17.43 0 0 1 -0.25,1.85 z"
       id="path17678"
       style="fill:url(#linear-gradient-25);stroke-width:0.823664" />
    <path
       class="cls-40"
       d="M 9.81,32.35 C 9.59,32.57 9.65,32.98 9.56,34.2 a 19.82,19.82 0 0 1 -0.42,3.36 c -0.2,0.66 -0.91,1 -1.34,1.66 A 2.84,2.84 0 0 0 7.59,40.66 C 6.8,40.59 6.75,40.35 6.75,40.35 v -0.58 a 1.21,1.21 0 0 1 0.37,-1 4,4 0 0 0 1,-1.4 A 14.9,14.9 0 0 0 8,34.41 C 7.94,33.75 7.88,33.05 7.88,32.65 a 0.81,0.81 0 0 1 0.16,-0.56 2.24,2.24 0 0 0 1.17,0.28 3.54,3.54 0 0 0 0.6,-0.02 z"
       id="path17680"
       style="fill:url(#linear-gradient-26);stroke-width:0.823664" />
    <path
       class="cls-17"
       d="m 10.94,32.14 c 0,0 0.16,0.1 0.14,0.53 a 17.43,17.43 0 0 1 -0.25,1.86 14,14 0 0 0 -0.33,2 c 0,0.23 0.08,0.42 0.16,1.16 a 4.76,4.76 0 0 1 -0.09,1.48 5.85,5.85 0 0 0 -0.6,0.51 2.06,2.06 0 0 1 -1.92,1 c -1.23,0 -1.3,-0.33 -1.3,-0.33 v -0.58 a 1.21,1.21 0 0 1 0.37,-1 4,4 0 0 0 1,-1.4 A 14.9,14.9 0 0 0 8,34.41 C 7.94,33.75 7.88,33.05 7.88,32.65 a 0.81,0.81 0 0 1 0.16,-0.56 2.24,2.24 0 0 0 1.17,0.28 5.37,5.37 0 0 0 1.73,-0.23 z"
       id="path17682" />
    <path
       class="cls-41"
       d="m 29.16,17.1 a 2.79,2.79 0 0 1 1,0.43 1.77,1.77 0 0 1 -0.49,-1.11 2.1,2.1 0 0 1 0,-0.56 1.46,1.46 0 0 1 2.12,-1 6.84,6.84 0 0 0 1,0.65 1.93,1.93 0 0 1 0,-1.36 2.14,2.14 0 0 1 0.55,-1.15 1.82,1.82 0 0 1 1.22,-0.59 1.19,1.19 0 0 0 -0.58,0.91 1.1,1.1 0 0 0 0.45,1 3.27,3.27 0 0 1 1.14,-2.13 4.27,4.27 0 0 1 2.68,-1 0.87,0.87 0 0 0 -0.25,-0.77 1.86,1.86 0 0 0 -2.09,0 1.65,1.65 0 0 0 -0.51,1.18 c 0,0 -0.46,-0.74 0.51,-2 0.97,-1.26 3.14,-1.13 4.28,-0.81 a 3.18,3.18 0 0 1 2.2,2.35 c 0,0 0.48,-1.12 0.16,-1.6 A 1.15,1.15 0 0 0 41.74,9 c 0,0 0.85,-0.3 2.23,1 1.38,1.3 1.2,3.63 1.11,4.22 a 5.68,5.68 0 0 1 -1.27,2.93 c -0.84,0.79 -1.38,1.34 -1.28,2.12 a 3.08,3.08 0 0 1 1.53,-1.57 1.71,1.71 0 0 1 1.65,0.06 1.09,1.09 0 0 0 -1,0.6 14.87,14.87 0 0 1 -0.78,2.25 1.46,1.46 0 0 1 -2.34,0.21 3,3 0 0 1 -2.2,1.87 3.18,3.18 0 0 1 -3.07,-1.09 1,1 0 0 0 -1.18,-0.35 3.88,3.88 0 0 1 -1.4,0.31 2.06,2.06 0 0 1 -2,-1.45 c -0.18,-0.65 -0.77,-0.8 -1.26,-0.18 -0.72,0.89 -1.68,0.88 -1.9,0.28 -0.22,-0.6 -0.78,-1.06 -2.17,-1.12 L 22.3,18.94 c 0,0 3,-0.59 4,-0.77 a 1.9,1.9 0 0 0 1,-0.67 1.84,1.84 0 0 1 1.26,-0.5 2.6,2.6 0 0 1 0.6,0.1 z"
       id="path17684"
       style="fill:url(#radial-gradient-2);stroke-width:0.823664" />
    <path
       class="cls-42"
       d="m 38.63,9.06 a 5.33,5.33 0 0 1 1.43,0.18 2.73,2.73 0 0 1 1.85,2 0.48,0.48 0 0 0 0.43,0.39 v 0 a 0.5,0.5 0 0 0 0.45,-0.3 3.68,3.68 0 0 0 0.36,-1.33 4.06,4.06 0 0 1 0.48,0.41 c 1.33,1.23 1,3.69 1,3.79 a 5.13,5.13 0 0 1 -1.12,2.64 c -0.8,0.76 -1.56,1.48 -1.42,2.55 a 0.49,0.49 0 0 0 0.42,0.42 h 0.06 a 0.51,0.51 0 0 0 0.46,-0.3 2.61,2.61 0 0 1 1.24,-1.31 v 0 a 4,4 0 0 0 -0.31,1 3.75,3.75 0 0 1 -0.45,1.24 1,1 0 0 1 -0.86,0.46 0.78,0.78 0 0 1 -0.66,-0.29 0.51,0.51 0 0 0 -0.4,-0.2 h -0.07 a 0.48,0.48 0 0 0 -0.39,0.32 2.5,2.5 0 0 1 -2.37,1.59 2.61,2.61 0 0 1 -2,-0.95 1.56,1.56 0 0 0 -1.21,-0.62 1.46,1.46 0 0 0 -0.55,0.11 3.13,3.13 0 0 1 -1.21,0.28 1.57,1.57 0 0 1 -1.56,-1.14 1.14,1.14 0 0 0 -1.07,-1 1.35,1.35 0 0 0 -1,0.58 1.23,1.23 0 0 1 -0.86,0.52 c -0.07,0 -0.17,0 -0.2,-0.1 -0.33,-0.87 -1.13,-1.34 -2.45,-1.43 a 2.06,2.06 0 0 0 0.91,-0.63 l 0.13,-0.13 a 1.4,1.4 0 0 1 0.91,-0.36 v 0 a 1.9,1.9 0 0 1 0.48,0.09 2.43,2.43 0 0 1 0.82,0.33 0.43,0.43 0 0 0 0.3,0.11 0.52,0.52 0 0 0 0.38,-0.17 0.5,0.5 0 0 0 -0.05,-0.69 1.33,1.33 0 0 1 -0.33,-0.8 1.59,1.59 0 0 1 0,-0.43 1,1 0 0 1 1,-0.78 0.78,0.78 0 0 1 0.42,0.11 2.29,2.29 0 0 1 0.33,0.24 3,3 0 0 0 0.7,0.44 h 0.18 a 0.51,0.51 0 0 0 0.36,-0.15 0.49,0.49 0 0 0 0.09,-0.54 1.47,1.47 0 0 1 0,-1 2.49,2.49 0 0 1 0.29,-0.72 1.64,1.64 0 0 0 0.67,1.14 0.43,0.43 0 0 0 0.27,0.08 0.42,0.42 0 0 0 0.22,-0.05 0.48,0.48 0 0 0 0.27,-0.42 2.88,2.88 0 0 1 1,-1.79 3.78,3.78 0 0 1 2.33,-0.86 v 0 A 0.48,0.48 0 0 0 38.81,11.19 1.34,1.34 0 0 0 38.32,10 2.42,2.42 0 0 0 36.88,9.56 h -0.22 a 3.64,3.64 0 0 1 2,-0.49 m 0,-0.5 a 3.46,3.46 0 0 0 -2.72,1 c -1,1.22 -0.51,2 -0.51,2 a 1.65,1.65 0 0 1 0.51,-1.18 1.43,1.43 0 0 1 1,-0.33 1.89,1.89 0 0 1 1.12,0.33 0.87,0.87 0 0 1 0.25,0.77 v 0 a 4.26,4.26 0 0 0 -2.67,1 3.27,3.27 0 0 0 -1.14,2.13 1.1,1.1 0 0 1 -0.45,-1 1.19,1.19 0 0 1 0.58,-0.91 v 0 a 1.94,1.94 0 0 0 -1.2,0.59 2.14,2.14 0 0 0 -0.61,1.17 1.93,1.93 0 0 0 0,1.36 6.84,6.84 0 0 1 -1,-0.65 1.3,1.3 0 0 0 -0.66,-0.17 1.46,1.46 0 0 0 -1.46,1.2 2.1,2.1 0 0 0 0,0.56 1.77,1.77 0 0 0 0.49,1.11 2.79,2.79 0 0 0 -1,-0.43 2.6,2.6 0 0 0 -0.59,-0.1 v 0 a 1.84,1.84 0 0 0 -1.24,0.5 1.9,1.9 0 0 1 -1,0.67 c -1.06,0.18 -4,0.77 -4,0.77 l 4.11,0.15 c 1.39,0.06 1.95,0.53 2.17,1.12 a 0.66,0.66 0 0 0 0.66,0.42 1.66,1.66 0 0 0 1.24,-0.7 0.89,0.89 0 0 1 0.66,-0.4 c 0.27,0 0.5,0.21 0.6,0.58 a 2.06,2.06 0 0 0 2,1.45 3.88,3.88 0 0 0 1.4,-0.31 0.9,0.9 0 0 1 0.36,-0.08 1.05,1.05 0 0 1 0.82,0.43 3.12,3.12 0 0 0 2.44,1.14 3.48,3.48 0 0 0 0.63,0 3,3 0 0 0 2.2,-1.87 1.29,1.29 0 0 0 1.06,0.5 1.49,1.49 0 0 0 1.28,-0.71 14.87,14.87 0 0 0 0.78,-2.25 1.08,1.08 0 0 1 1,-0.6 v 0 a 1.4,1.4 0 0 0 -0.83,-0.23 2.11,2.11 0 0 0 -0.82,0.17 3.08,3.08 0 0 0 -1.53,1.57 c -0.1,-0.78 0.44,-1.33 1.28,-2.12 a 5.68,5.68 0 0 0 1.27,-2.93 c 0.09,-0.59 0.27,-2.93 -1.11,-4.22 a 3,3 0 0 0 -2,-1 0.87,0.87 0 0 0 -0.25,0 1.15,1.15 0 0 1 0.81,0.51 c 0.32,0.48 -0.16,1.6 -0.16,1.6 A 3.18,3.18 0 0 0 40.23,8.83 5.77,5.77 0 0 0 38.67,8.62 Z"
       id="path17686"
       style="stroke-width:0.823664" />
    <path
       class="cls-43"
       d="m 40.27,21.12 a 1.63,1.63 0 0 0 0.55,-0.92 4.76,4.76 0 0 1 0.1,-0.52 c -0.11,0.16 -0.18,0.34 -0.3,0.49 a 2.06,2.06 0 0 1 -1.25,0.63 3.48,3.48 0 0 1 -0.85,0.11 1.18,1.18 0 0 1 -0.78,-0.29 1.08,1.08 0 0 0 0.73,0.06 3.7,3.7 0 0 0 0.7,-0.26 C 38.9,20.29 38.63,20.18 38.35,20.07 a 2.64,2.64 0 0 0 -1.92,-0.18 2.86,2.86 0 0 0 -0.64,0.4 c 0.49,-0.37 0.87,0 1.19,0.37 a 3.57,3.57 0 0 0 0.73,0.67 1.83,1.83 0 0 0 0.82,0.36 1.81,1.81 0 0 0 0.8,-0.08 2.42,2.42 0 0 0 0.94,-0.49 z"
       id="path17688"
       style="fill:url(#linearGradient17816);stroke-width:0.823664" />
    <path
       class="cls-44"
       d="m 33.6,14.53 a 2.15,2.15 0 0 0 0.4,1.35 1.36,1.36 0 0 0 1.71,0.36 1.18,1.18 0 0 0 0.47,-0.6 1,1 0 0 1 -0.72,0.44 0.89,0.89 0 0 1 -0.9,-0.31 0.57,0.57 0 0 0 0.77,-0.31 1,1 0 0 1 -1,0 1.12,1.12 0 0 1 -0.73,-0.93 z"
       id="path17690"
       style="fill:url(#linear-gradient-28);stroke-width:0.823664" />
    <path
       class="cls-45"
       d="m 38.62,9.6 a 2.39,2.39 0 0 1 2,0.59 2.64,2.64 0 0 1 0.87,1.81 2.73,2.73 0 0 0 -1.26,-1.51 1.79,1.79 0 0 1 0.27,0.92 2.41,2.41 0 0 0 -1.88,-1.81 z"
       id="path17692"
       style="fill:url(#linear-gradient-29);stroke-width:0.823664" />
    <path
       class="cls-46"
       d="m 43.49,11 a 7.52,7.52 0 0 1 0,2.3 3.76,3.76 0 0 1 -0.49,1.12 2.34,2.34 0 0 0 0.79,-0.8 5,5 0 0 1 -0.8,2.67 A 3.45,3.45 0 0 0 44.2,13.61 3.33,3.33 0 0 0 43.49,11 Z"
       id="path17694"
       style="fill:url(#linear-gradient-30);stroke-width:0.823664" />
    <path
       class="cls-47"
       d="m 24.88,18.77 c 0.46,-0.1 2.26,-0.3 2.88,-0.4 0.25,0 0.87,-0.3 1.12,-0.33 a 0.6,0.6 0 0 1 0.69,0.35 c 0.18,0.32 0.9,-0.06 1.11,-0.16 a 1.42,1.42 0 0 0 0.54,-0.36 c 0.26,-0.31 0.13,-0.68 0.29,-1 a 1,1 0 0 1 0.86,-0.48 2.6,2.6 0 0 1 0.92,0.18 6.37,6.37 0 0 0 1.25,0.37 1.83,1.83 0 0 0 1.51,-0.63 2.2,2.2 0 0 0 0.15,-2.18 2,2 0 0 0 -0.14,1.1 1.78,1.78 0 0 1 0,-1.65 1.72,1.72 0 0 1 1.36,-1 3.56,3.56 0 0 1 0.65,0 1.43,1.43 0 0 0 -1.07,1.23 0.48,0.48 0 0 1 0.55,0.1 2,2 0 0 1 0.45,1.18 1.28,1.28 0 0 1 0.76,-0.74 1.1,1.1 0 0 1 1.34,0.32 1.23,1.23 0 0 1 0,1 1.88,1.88 0 0 0 0.2,-1.83 1,1 0 0 0 -1.76,0.06 1.42,1.42 0 0 1 1,-1.43 2.06,2.06 0 0 1 2.46,1 3.53,3.53 0 0 1 0.38,2.89 4.3,4.3 0 0 1 -2,2.76 c -1.64,0.94 -1.93,-0.06 -1.77,-0.77 0.16,-0.71 0.87,-0.63 0.8,-0.84 -0.07,-0.21 -0.58,-0.26 -1.39,0.3 a 18.86,18.86 0 0 1 -2.53,1.77 3.41,3.41 0 0 1 -1.65,0.35 c -0.21,0 -0.42,0 -0.53,-0.22 a 0.52,0.52 0 0 1 0,-0.54 c 0.14,-0.2 0.41,-0.31 0.43,-0.55 0.02,-0.24 -0.2,-0.36 -0.4,-0.42 a 2.28,2.28 0 0 0 -1.07,0 A 7.3,7.3 0 0 0 30,19 c -0.18,0.1 -0.52,0.37 -0.75,0.25 -0.23,-0.12 -0.25,-0.4 -0.33,-0.5 -0.08,-0.1 -0.57,-0.19 -0.87,-0.17 -1.24,0.07 -3.17,0.15 -3.17,0.15"
       id="path17696"
       style="fill:url(#linear-gradient-31);stroke-width:0.823664" />
    <path
       class="cls-48"
       d="M 32.17,16.12 C 31.83,15.92 31.29,15.51 30.9,15.66 A 0.64,0.64 0 0 0 30.47,16.32 0.9,0.9 0 0 1 31,16 a 2.19,2.19 0 0 1 1.17,0.12 z"
       id="path17698"
       style="fill:url(#linear-gradient-32);stroke-width:0.823664" />
    <path
       class="cls-14"
       d="m 12.11,20 a 6.4,6.4 0 0 1 -1.67,-0.44 1.41,1.41 0 0 0 -1.6,0.94 1.61,1.61 0 0 0 0.75,2 11.43,11.43 0 0 0 2.44,-0.2 c 1.2,-0.09 1.33,-1.51 1.33,-1.51 0,0 0.5,-0.64 -1.25,-0.79 z"
       id="path17700"
       style="stroke-width:0.823664" />
    <path
       class="cls-49"
       d="m 12.25,20 a 0.9,0.9 0 0 1 -0.48,0.44 2.3,2.3 0 0 1 -1.64,0 1.32,1.32 0 0 0 -1.37,0.36 1.32,1.32 0 0 1 0.08,-0.33 1.41,1.41 0 0 1 1.6,-0.94 6.4,6.4 0 0 0 1.67,0.44 z"
       id="path17702"
       style="fill:url(#linear-gradient-33);stroke-width:0.823664" />
    <path
       class="cls-17"
       d="m 12.11,20 a 6.4,6.4 0 0 1 -1.67,-0.44 1.41,1.41 0 0 0 -1.6,0.94 1.61,1.61 0 0 0 0.75,2 11.43,11.43 0 0 0 2.44,-0.2 c 1.2,-0.09 1.33,-1.51 1.33,-1.51 0,0 0.5,-0.64 -1.25,-0.79 z"
       id="path17704" />
    <path
       class="cls-14"
       d="m 11.61,22.24 c 0,0 0.64,0.2 0.9,-0.13 0.26,-0.33 1,-0.26 1,-0.14 0,0.12 0,0.27 0,0.27 a 1,1 0 0 0 0.69,-0.26 1.13,1.13 0 0 0 0.28,-0.88 1.19,1.19 0 0 0 -0.27,-0.53 c 0,0 0.07,-0.32 0.07,-0.35 a 0.55,0.55 0 0 0 -0.34,-0.47 2.06,2.06 0 0 0 -0.82,-0.15 1.47,1.47 0 0 0 -0.94,0.2 2,2 0 0 0 -0.58,0.92 2.88,2.88 0 0 0 -0.19,1.06 0.47,0.47 0 0 0 0.2,0.46 z"
       id="path17706"
       style="stroke-width:0.823664" />
    <path
       class="cls-50"
       d="m 9.38,20.82 c 0.13,0.13 0.12,0.3 0.29,0.38 a 1.24,1.24 0 0 0 0.57,0.09 3.44,3.44 0 0 0 0.72,-0.17 1,1 0 0 0 0.33,-0.14 c 0.05,0 0.07,-0.1 0.12,-0.12 0.05,-0.02 0.08,0 0.09,0 a 0.08,0.08 0 0 1 0,0.07 0.62,0.62 0 0 0 0,0.38 c 0,0 0.05,0.08 0.08,0.07 0.03,-0.01 0,0 0,0 A 0.7,0.7 0 0 0 11.8,21 c 0.09,-0.33 0.27,-0.81 0.63,-0.92 a 0.14,0.14 0 0 1 0.09,0 0.11,0.11 0 0 1 0.05,0.12 1.29,1.29 0 0 0 -0.06,0.48 1.16,1.16 0 0 0 0.19,0.66 c 0.28,0.29 1.19,0 1.27,0.56 0,0 0,0.1 -0.1,0.11 a 0.27,0.27 0 0 1 -0.15,0 l -0.25,-0.09 a 1.14,1.14 0 0 0 -0.88,0.16 2.12,2.12 0 0 1 -1,0.25 0.11,0.11 0 0 1 -0.08,0 c -0.05,0 -0.06,-0.09 -0.08,-0.14 -0.06,-0.27 -1,-0.15 -1.42,-0.09 -0.59,0.11 -0.82,-0.79 -0.72,-1.22 0,0 0,-0.06 0,-0.06 0,0 0.07,-0.02 0.09,0 z"
       id="path17708"
       style="fill:url(#linear-gradient-34);stroke-width:0.823664" />
    <path
       class="cls-51"
       d="m 17.32,21.18 c 0.07,0.16 0.29,0.77 0.8,0.76 a 1.16,1.16 0 0 0 1.08,-0.74 0.8,0.8 0 0 0 0.06,-0.52 0.61,0.61 0 0 1 -0.67,0.23 1.08,1.08 0 0 1 -0.68,-0.6"
       id="path17710"
       style="fill:url(#linear-gradient-35);stroke-width:0.823664" />
    <path
       class="cls-14"
       d="m 16.47,19.12 c 0.32,-0.23 0.57,-0.48 0.74,-0.56 0.17,-0.08 0.42,-0.09 0.59,0.41 0.17,0.5 0.24,0.86 0.61,1 0.37,0.14 -0.09,1.26 -0.79,1.43 -0.7,0.17 -0.83,0 -1.36,-0.46 a 1.12,1.12 0 0 1 -0.49,-1.36 c 0.23,-0.48 0.48,-0.31 0.7,-0.46 z"
       id="path17712"
       style="stroke-width:0.823664" />
    <path
       class="cls-22"
       d="m 16.47,19.12 c 0.32,-0.23 0.57,-0.48 0.74,-0.56 0.17,-0.08 0.42,-0.09 0.59,0.41 0.17,0.5 0.24,0.86 0.61,1 0.37,0.14 -0.09,1.26 -0.79,1.43 -0.7,0.17 -0.83,0 -1.36,-0.46 a 1.12,1.12 0 0 1 -0.49,-1.36 c 0.23,-0.48 0.48,-0.31 0.7,-0.46 z"
       id="path17714" />
    <path
       class="cls-52"
       d="m 16,20.42 a 0.58,0.58 0 0 1 0.46,-0.65 c 0.29,0 0.53,-0.3 0.65,-0.27 0.12,0.03 0.07,0.48 0.38,0.83 a 1,1 0 0 0 0.86,0.25 c 0,0 -0.18,0.65 -0.61,0.78 A 1.53,1.53 0 0 1 16,20.42 Z"
       id="path17716"
       style="fill:url(#linear-gradient-36);stroke-width:0.823664" />
    <path
       class="cls-53"
       d="m 12.32,14.54 a 1.34,1.34 0 0 1 0.37,-0.57 5.39,5.39 0 0 0 1.31,-1.68 4.89,4.89 0 0 1 0.85,-2 2.53,2.53 0 0 1 2,-0.51 1.85,1.85 0 0 1 1.53,2.22 L 18,13.54 a 7,7 0 0 1 -0.41,1.05 0.77,0.77 0 0 1 -0.68,0.36 1.21,1.21 0 0 0 -1,0.35 3.07,3.07 0 0 0 -0.5,1.13 3.09,3.09 0 0 1 -1.13,-0.26 c -0.53,-0.24 -0.7,-0.5 -1.12,-1.25 A 0.93,0.93 0 0 0 12.54,14.5 Z"
       id="path17718"
       style="fill:url(#linear-gradient-37);stroke-width:0.823664" />
    <path
       class="cls-54"
       d="m 16.85,10.25 c 0,0 -1.09,-0.19 -1.55,0.31 a 4.27,4.27 0 0 0 -0.72,1.87 c -0.11,0.49 -0.34,0.65 -0.69,1.06 a 7.3,7.3 0 0 1 -0.72,0.71 1.88,1.88 0 0 1 0.53,0.73 1.33,1.33 0 0 0 1.19,0.92 3.42,3.42 0 0 1 -0.34,-1.14 c 0,-0.44 0.48,-0.52 0.66,-0.85 0.18,-0.33 0,-0.92 0.33,-1.26 0.33,-0.34 1.05,-0.56 1,-0.6 -0.05,-0.04 -0.74,-0.35 -0.63,-0.9 a 1.14,1.14 0 0 1 0.94,-0.85 z"
       id="path17720"
       style="fill:url(#linear-gradient-38);stroke-width:0.823664" />
    <path
       class="cls-55"
       d="m 17.92,13.39 a 7.64,7.64 0 0 1 -0.57,1.39 v 0.05 a 0.77,0.77 0 0 1 -0.43,0.12 c -0.09,0 -1,0.1 -0.93,0.27 -0.15,-0.33 0.37,-0.94 0.68,-1 0.31,-0.06 0.39,-0.22 0.51,-0.64 z"
       id="path17722"
       style="fill:url(#linear-gradient-39);stroke-width:0.823664" />
    <path
       class="cls-56"
       d="m 17.28,10.07 a 2.7,2.7 0 0 1 0,2.63 l 0.93,0.07 a 4.65,4.65 0 0 0 0.11,-1.47 c -0.04,-0.75 -1.04,-1.23 -1.04,-1.23 z"
       id="path17724"
       style="fill:url(#linear-gradient-40);stroke-width:0.823664" />
    <path
       class="cls-35"
       d="m 15.45,11.93 a 0.33,0.33 0 0 1 0.43,-0.21 6.66,6.66 0 0 0 1.38,0.35 2.37,2.37 0 0 0 1.15,0 L 18,13.51 a 2.3,2.3 0 0 1 -1.1,0.18 3.52,3.52 0 0 1 -1.66,-0.45 0.34,0.34 0 0 1 -0.13,-0.4 z"
       id="path17726"
       style="stroke-width:0.823664" />
    <g
       class="cls-57"
       clip-path="url(#clip-path)"
       id="g17730"
       style="stroke-width:0.823664">
      <polygon
         class="cls-58"
         points="17.17,13.96 18.47,13.99 18.98,11.39 17.75,11.73 "
         id="polygon17728"
         style="fill:url(#linear-gradient-41);stroke-width:0.823664" />
    </g>
    <path
       class="cls-17"
       d="m 16.84,9.81 a 2.53,2.53 0 0 0 -2,0.51 4.89,4.89 0 0 0 -0.85,2 5.39,5.39 0 0 1 -1.3,1.68 1.34,1.34 0 0 0 -0.37,0.57 h 0.17 a 0.93,0.93 0 0 1 0.62,0.42 c 0.42,0.75 0.59,1 1.12,1.25 a 2.12,2.12 0 0 0 2.65,-0.55 c 0.25,-0.32 0.29,-0.61 0.54,-0.61 0,0 -0.06,-0.08 -0.12,-0.18 A 0.74,0.74 0 0 0 17.56,14.66 7,7 0 0 0 18,13.54 l 0.41,-1.5 A 1.85,1.85 0 0 0 16.84,9.81 Z"
       id="path17732" />
    <path
       class="cls-59"
       d="m 13.43,22.1 c 0,0.13 0,0.32 0,0.46 0,0.14 0,0.31 -0.44,0.39"
       id="path17734" />
    <path
       class="cls-22"
       d="m 12.51,22.11 a 0.88,0.88 0 0 1 1.25,0.05"
       id="path17736" />
    <path
       class="cls-22"
       d="m 11.61,22.24 c 0,0 0.64,0.2 0.9,-0.13 0.26,-0.33 1,-0.26 1,-0.14 0,0.12 0,0.27 0,0.27 a 1,1 0 0 0 0.69,-0.26 1.13,1.13 0 0 0 0.28,-0.88 1.3,1.3 0 0 0 -0.22,-0.48 v -0.05 c 0,-0.11 0.07,-0.25 0,-0.38 -0.1,-0.52 -0.69,-0.58 -1.15,-0.59 a 1.47,1.47 0 0 0 -0.94,0.2 2,2 0 0 0 -0.58,0.92 2.49,2.49 0 0 0 -0.18,1.08"
       id="path17738" />
    <path
       class="cls-22"
       d="m 17.31,14.83 a 0.77,0.77 0 0 1 -0.43,0.12 1.23,1.23 0 0 0 -0.93,0.27"
       id="path17740" />
  </g>
  <metadata
     id="metadata17897">
    <rdf:RDF>
      <cc:Work
         rdf:about="">
        <dc:title>21-Flamethrower</dc:title>
      </cc:Work>
    </rdf:RDF>
  </metadata>
</svg>
