<?xml version="1.0" encoding="UTF-8" standalone="no"?>
<svg
   viewBox="0 0 48 48"
   version="1.1"
   id="svg56"
   sodipodi:docname="gaseousflame.svg"
   inkscape:version="1.3-dev (fdc7329b, 2022-05-31)"
   xmlns:inkscape="http://www.inkscape.org/namespaces/inkscape"
   xmlns:sodipodi="http://sodipodi.sourceforge.net/DTD/sodipodi-0.dtd"
   xmlns:xlink="http://www.w3.org/1999/xlink"
   xmlns="http://www.w3.org/2000/svg"
   xmlns:svg="http://www.w3.org/2000/svg">
  <sodipodi:namedview
     id="namedview56"
     pagecolor="#ffffff"
     bordercolor="#666666"
     borderopacity="1.0"
     inkscape:showpageshadow="2"
     inkscape:pageopacity="0.0"
     inkscape:pagecheckerboard="0"
     inkscape:deskcolor="#d1d1d1"
     showgrid="false"
     inkscape:zoom="19.666667"
     inkscape:cx="22.245763"
     inkscape:cy="24"
     inkscape:window-width="2880"
     inkscape:window-height="1557"
     inkscape:window-x="-8"
     inkscape:window-y="-8"
     inkscape:window-maximized="1"
     inkscape:current-layer="svg56" />
  <defs
     id="defs32">
    <linearGradient
       id="linearGradient72"
       x1="14.74"
       y1="9.72"
       x2="38.72"
       y2="31.69"
       gradientTransform="matrix(1, 0, 0, 1, 0, 0)"
       gradientUnits="userSpaceOnUse">
      <stop
         offset=".24"
         stop-color="#fdfadc"
         id="stop70" />
      <stop
         offset=".63"
         stop-color="#f9e53f"
         id="stop71" />
      <stop
         offset="1"
         stop-color="#fbae3e"
         id="stop72"
         style="stop-color:#fbae3e;stop-opacity:1;" />
    </linearGradient>
    <radialGradient
       id="radialGradient68"
       cx="23.52"
       cy="37.12"
       fx="23.52"
       fy="37.12"
       r="32.53"
       gradientTransform="matrix(1, 0, 0, 1, 0, 0)"
       gradientUnits="userSpaceOnUse">
      <stop
         offset=".03"
         stop-color="#729ece"
         id="stop66" />
      <stop
         offset="0.28295821"
         stop-color="#729ece"
         id="stop69"
         style="stop-color:#00c275;stop-opacity:1;" />
      <stop
         offset="0.42864949"
         stop-color="#f9e53f"
         id="stop67" />
      <stop
         offset="0.67897105"
         stop-color="#f47900"
         id="stop68" />
    </radialGradient>
    <linearGradient
       inkscape:collect="always"
       id="linearGradient57">
      <stop
         style="stop-color:#729fcf;stop-opacity:1;"
         offset="0"
         id="stop56" />
      <stop
         style="stop-color:#729fcf;stop-opacity:0;"
         offset="1"
         id="stop57" />
    </linearGradient>
    <radialGradient
       id="radial-gradient"
       cx="-242.13"
       cy="115.35"
       fx="-242.13"
       fy="115.35"
       r="9.14"
       gradientTransform="translate(375.46 -44.79) scale(1.45 .74)"
       gradientUnits="userSpaceOnUse">
      <stop
         offset=".41"
         stop-color="#212121"
         stop-opacity=".4"
         id="stop1" />
      <stop
         offset=".89"
         stop-color="#212121"
         stop-opacity="0"
         id="stop2" />
    </radialGradient>
    <radialGradient
       id="radial-gradient-2"
       cx="23.52"
       cy="37.12"
       fx="23.52"
       fy="37.12"
       r="32.53"
       gradientTransform="matrix(1, 0, 0, 1, 0, 0)"
       gradientUnits="userSpaceOnUse">
      <stop
         offset=".03"
         stop-color="#729ece"
         id="stop3" />
      <stop
         offset=".21"
         stop-color="#f9e53f"
         id="stop4" />
      <stop
         offset=".56"
         stop-color="#f47900"
         id="stop5" />
    </radialGradient>
    <radialGradient
       id="radial-gradient-3"
       cx="23.67"
       cy="30.36"
       fx="23.67"
       fy="30.36"
       r="39.07"
       xlink:href="#radial-gradient-2"
       gradientTransform="matrix(1.0368938,0,0,1.036494,-1.6195349,0.03372994)" />
    <linearGradient
       id="linear-gradient"
       x1="24.56"
       y1="25.25"
       x2="29.48"
       y2="39.5"
       gradientTransform="translate(-.25 .25) rotate(-.6)"
       gradientUnits="userSpaceOnUse">
      <stop
         offset="0"
         stop-color="#fbae3e"
         id="stop6" />
      <stop
         offset=".27"
         stop-color="#f47900"
         id="stop7" />
      <stop
         offset=".69"
         stop-color="#6089c1"
         id="stop8" />
      <stop
         offset="1"
         stop-color="#285090"
         id="stop9" />
    </linearGradient>
    <linearGradient
       id="linear-gradient-2"
       x1="24.47"
       y1="25.13"
       x2="29.45"
       y2="39.54"
       xlink:href="#linear-gradient"
       gradientTransform="matrix(1.0368938,0,0,1.036494,-1.6195349,0.03372994)" />
    <linearGradient
       id="linear-gradient-3"
       x1="17.02"
       y1="20.21"
       x2="23.39"
       y2="30.62"
       gradientTransform="translate(-.25 .25) rotate(-.6)"
       gradientUnits="userSpaceOnUse">
      <stop
         offset="0"
         stop-color="#faf291"
         id="stop10" />
      <stop
         offset=".43"
         stop-color="#f9e53f"
         id="stop11" />
      <stop
         offset="1"
         stop-color="#f47900"
         id="stop12" />
    </linearGradient>
    <linearGradient
       id="linear-gradient-4"
       x1="22.58"
       y1="27.15"
       x2="20.23"
       y2="26.22"
       gradientTransform="translate(-.25 .25) rotate(-.6)"
       gradientUnits="userSpaceOnUse">
      <stop
         offset="0"
         stop-color="#fcf7be"
         id="stop13" />
      <stop
         offset=".71"
         stop-color="#f9e53f"
         id="stop14" />
      <stop
         offset="1"
         stop-color="#fbae3e"
         id="stop15" />
    </linearGradient>
    <linearGradient
       id="linear-gradient-5"
       x1="39.6"
       y1="33.58"
       x2="27.87"
       y2="19.81"
       xlink:href="#linear-gradient-3"
       gradientTransform="matrix(1.0368938,0,0,1.036494,-1.6195349,0.03372994)" />
    <linearGradient
       id="linear-gradient-6"
       x1="14.74"
       y1="9.72"
       x2="38.72"
       y2="31.69"
       gradientTransform="matrix(1, 0, 0, 1, 0, 0)"
       gradientUnits="userSpaceOnUse">
      <stop
         offset=".24"
         stop-color="#fdfadc"
         id="stop16" />
      <stop
         offset=".63"
         stop-color="#f9e53f"
         id="stop17" />
      <stop
         offset="1"
         stop-color="#fbae3e"
         id="stop18" />
    </linearGradient>
    <linearGradient
       id="linear-gradient-7"
       x1="20.03"
       y1="18.53"
       x2="33.28"
       y2="23.94"
       xlink:href="#linear-gradient-6"
       gradientTransform="matrix(1.0368938,0,0,1.036494,-1.6195349,0.03372994)" />
    <linearGradient
       id="linear-gradient-8"
       x1="24.9"
       y1="14.76"
       x2="22.46"
       y2="47.29"
       gradientUnits="userSpaceOnUse"
       gradientTransform="matrix(1.0368938,0,0,1.036494,-1.6195349,0.03372994)">
      <stop
         offset=".02"
         stop-color="#ecd300"
         id="stop19" />
      <stop
         offset=".28"
         stop-color="#fbae3e"
         id="stop20" />
      <stop
         offset=".76"
         stop-color="#6089c1"
         id="stop21" />
      <stop
         offset="1"
         stop-color="#285090"
         id="stop22" />
    </linearGradient>
    <linearGradient
       id="linear-gradient-9"
       x1="25.11"
       y1="24.43"
       x2="20.15"
       y2="41.21"
       gradientTransform="matrix(1, 0, 0, 1, 0, 0)"
       gradientUnits="userSpaceOnUse">
      <stop
         offset="0"
         stop-color="#729ece"
         id="stop23" />
      <stop
         offset="1"
         stop-color="#285090"
         id="stop24" />
    </linearGradient>
    <linearGradient
       id="linear-gradient-10"
       x1="24.06"
       y1="42.65"
       x2="24.06"
       y2="2.74"
       gradientTransform="matrix(1, 0, 0, 1, 0, 0)"
       gradientUnits="userSpaceOnUse">
      <stop
         offset="0"
         stop-color="#3465a3"
         id="stop25" />
      <stop
         offset=".54"
         stop-color="#ee6308"
         id="stop26" />
      <stop
         offset="1"
         stop-color="#fbae3e"
         id="stop27" />
    </linearGradient>
    <linearGradient
       id="linear-gradient-11"
       x1="24.98"
       y1="28.26"
       x2="17.95"
       y2="40.83"
       xlink:href="#linear-gradient-9"
       gradientTransform="matrix(1.0368938,0,0,1.036494,-1.6195349,0.03372994)" />
    <linearGradient
       id="linear-gradient-12"
       x1="24.06"
       y1="42.65"
       x2="24.06"
       y2="2.74"
       xlink:href="#linear-gradient-10"
       gradientTransform="matrix(1.0368938,0,0,1.036494,-1.6195349,0.03372994)" />
    <linearGradient
       id="linear-gradient-13"
       x1="13.47"
       y1="24.79"
       x2="19.84"
       y2="35.52"
       xlink:href="#linear-gradient-6"
       gradientTransform="matrix(1.0368938,0,0,1.036494,-1.6195349,0.03372994)" />
    <linearGradient
       id="linear-gradient-14"
       x1="26.18"
       y1="8.01"
       x2="22.26"
       y2="18.04"
       gradientTransform="matrix(1.0368369,-0.01085394,0.01085813,1.0364372,-1.8787583,0.29285341)"
       xlink:href="#linear-gradient-6" />
    <linearGradient
       id="linear-gradient-15"
       x1="33.44"
       y1="22.72"
       x2="22.8"
       y2="31.44"
       xlink:href="#linear-gradient-6"
       gradientTransform="matrix(1.0368938,0,0,1.036494,-1.6195349,0.03372994)" />
    <linearGradient
       id="linear-gradient-16"
       x1="19.69"
       y1="18.62"
       x2="14.99"
       y2="15.08"
       xlink:href="#linear-gradient-4"
       gradientTransform="matrix(1.0368938,0,0,1.036494,-1.6195349,0.03372994)" />
    <linearGradient
       id="linear-gradient-17"
       x1="15.96"
       y1="19.95"
       x2="13.69"
       y2="11.38"
       gradientTransform="translate(-.25 .25) rotate(-.6)"
       gradientUnits="userSpaceOnUse">
      <stop
         offset="0"
         stop-color="#fcf7be"
         id="stop28" />
      <stop
         offset=".45"
         stop-color="#f9e53f"
         id="stop29" />
      <stop
         offset="1"
         stop-color="#fbae3e"
         id="stop30" />
    </linearGradient>
    <linearGradient
       id="linear-gradient-18"
       x1="18.26"
       y1="19.34"
       x2="15.7"
       y2="9.68"
       xlink:href="#linear-gradient-17"
       gradientTransform="matrix(1.0368938,0,0,1.036494,-1.6195349,0.03372994)" />
    <linearGradient
       id="linear-gradient-19"
       x1="16.91"
       y1="17.3"
       x2="13.65"
       y2="11.4"
       xlink:href="#linear-gradient-17"
       gradientTransform="matrix(1.0368938,0,0,1.036494,-1.6195349,0.03372994)" />
    <linearGradient
       id="linear-gradient-20"
       x1="15.83"
       y1="21.15"
       x2="15.83"
       y2="11.1"
       gradientTransform="translate(.57 -.14) rotate(.96)"
       gradientUnits="userSpaceOnUse">
      <stop
         offset="0"
         stop-color="#ee6308"
         id="stop31" />
      <stop
         offset="1"
         stop-color="#fbae3e"
         id="stop32" />
    </linearGradient>
    <linearGradient
       id="linear-gradient-21"
       x1="29.81"
       y1="8.61"
       x2="28.96"
       y2="3.69"
       xlink:href="#linear-gradient-4"
       gradientTransform="matrix(1.0368938,0,0,1.036494,-1.6195349,0.03372994)" />
    <linearGradient
       id="linear-gradient-22"
       x1="27.22"
       y1="4.61"
       x2="30.63"
       y2="4.61"
       xlink:href="#linear-gradient-20"
       gradientTransform="matrix(1.0368938,0,0,1.036494,-1.6195349,0.03372994)" />
    <linearGradient
       id="linear-gradient-23"
       x1="24.01"
       y1="42.66"
       x2="24.01"
       y2="2.77"
       gradientTransform="matrix(1.0368369,-0.01085394,0.01085813,1.0364372,-1.8787583,0.29285341)"
       xlink:href="#linear-gradient-10" />
    <radialGradient
       inkscape:collect="always"
       xlink:href="#linearGradient57"
       id="radialGradient57"
       cx="23.9"
       cy="40.610001"
       fx="23.9"
       fy="40.610001"
       r="12.76"
       gradientTransform="matrix(1,0,0,0.51175549,0,19.82761)"
       gradientUnits="userSpaceOnUse" />
    <radialGradient
       inkscape:collect="always"
       xlink:href="#linearGradient57"
       id="radialGradient58"
       gradientUnits="userSpaceOnUse"
       gradientTransform="matrix(1,0,0,0.51175549,0,19.82761)"
       cx="23.9"
       cy="40.610001"
       fx="23.9"
       fy="40.610001"
       r="12.76" />
    <radialGradient
       inkscape:collect="always"
       xlink:href="#radialGradient68"
       id="radialGradient59"
       gradientUnits="userSpaceOnUse"
       cx="23.52"
       cy="37.12"
       fx="23.52"
       fy="37.12"
       r="32.53"
       gradientTransform="matrix(1.0368938,0,0,1.036494,-1.6195349,0.03372994)" />
    <linearGradient
       inkscape:collect="always"
       xlink:href="#linear-gradient"
       id="linearGradient59"
       gradientUnits="userSpaceOnUse"
       gradientTransform="matrix(1.0368369,-0.01085394,0.01085813,1.0364372,-1.8787583,0.29285341)"
       x1="24.56"
       y1="25.25"
       x2="29.48"
       y2="39.5" />
    <linearGradient
       inkscape:collect="always"
       xlink:href="#linear-gradient-3"
       id="linearGradient60"
       gradientUnits="userSpaceOnUse"
       gradientTransform="matrix(1.0368369,-0.01085394,0.01085813,1.0364372,-1.8787583,0.29285341)"
       x1="17.02"
       y1="20.21"
       x2="23.39"
       y2="30.62" />
    <linearGradient
       inkscape:collect="always"
       xlink:href="#linear-gradient-4"
       id="linearGradient61"
       gradientUnits="userSpaceOnUse"
       gradientTransform="matrix(1.0368369,-0.01085394,0.01085813,1.0364372,-1.8787583,0.29285341)"
       x1="22.58"
       y1="27.15"
       x2="20.23"
       y2="26.22" />
    <linearGradient
       inkscape:collect="always"
       xlink:href="#linearGradient72"
       id="linearGradient62"
       gradientUnits="userSpaceOnUse"
       x1="14.74"
       y1="9.72"
       x2="38.72"
       y2="31.69"
       gradientTransform="matrix(1.0368938,0,0,1.036494,-1.6195349,0.03372994)" />
    <linearGradient
       inkscape:collect="always"
       xlink:href="#linear-gradient-9"
       id="linearGradient63"
       gradientUnits="userSpaceOnUse"
       x1="25.11"
       y1="24.43"
       x2="20.15"
       y2="41.21"
       gradientTransform="matrix(1.0368938,0,0,1.036494,-1.6195349,0.03372994)" />
    <linearGradient
       inkscape:collect="always"
       xlink:href="#linear-gradient-10"
       id="linearGradient64"
       gradientUnits="userSpaceOnUse"
       x1="24.06"
       y1="42.65"
       x2="24.06"
       y2="2.74"
       gradientTransform="matrix(1.0368938,0,0,1.036494,-1.6195349,0.03372994)" />
    <linearGradient
       inkscape:collect="always"
       xlink:href="#linear-gradient-17"
       id="linearGradient65"
       gradientUnits="userSpaceOnUse"
       gradientTransform="matrix(1.0368369,-0.01085394,0.01085813,1.0364372,-1.8787583,0.29285341)"
       x1="15.96"
       y1="19.95"
       x2="13.69"
       y2="11.38" />
    <linearGradient
       inkscape:collect="always"
       xlink:href="#linear-gradient-20"
       id="linearGradient66"
       gradientUnits="userSpaceOnUse"
       gradientTransform="matrix(1.0367483,0.01736581,-0.01737251,1.0363485,-1.0285055,-0.11137924)"
       x1="15.83"
       y1="21.15"
       x2="15.83"
       y2="11.1" />
  </defs>
  <g
     id="shadow"
     style="fill:url(#radialGradient57);fill-opacity:1;stroke-width:0.914544"
     transform="matrix(1.093441,0,0,1.093441,-2.2332389,-3.7946375)">
    <ellipse
       cx="23.9"
       cy="40.610001"
       rx="12.76"
       ry="6.5300002"
       style="fill:url(#radialGradient58);fill-opacity:1;stroke-width:0.914544"
       id="ellipse32" />
  </g>
  <path
     d="m 33.074932,19.271058 c -1.265011,-1.565106 -1.544972,-2.746709 -1.285749,-3.410065 0.259224,-0.663356 0.476972,-1.648025 -0.311068,-1.243793 -0.788039,0.404233 -1.296117,1.886419 -0.68435,3.855758 0.611768,1.969339 -1.627923,5.22393 -3.546176,4.612398 -1.918254,-0.601166 -2.478177,-3.565539 -1.534603,-5.379404 0.943573,-1.813864 2.281166,-2.757074 1.94936,-6.146409 C 27.33054,8.1702078 24.053956,7.0818891 22.965217,6.4703577 21.876479,5.8588262 22.685256,4.4699243 22.685256,4.4699243 21.6691,5.2991195 21.845372,6.3563433 22.218654,7.1751736 c 0.373281,0.8188303 2.654448,1.4199968 3.027729,3.3271454 0.383651,1.907149 -1.016155,4.063057 -2.395224,3.876488 -1.389438,-0.186569 -1.27538,-1.927879 -0.653243,-2.891819 0.622136,-0.963939 0.611767,-1.8138641 -0.01037,-1.419996 -0.622137,0.393867 -2.426332,1.409631 -3.51507,4.21853 -1.088739,2.808899 0.808777,5.130646 2.063418,8.177938 1.254642,3.047292 -0.425126,6.519547 -2.83072,6.053125 -2.405593,-0.466422 -2.104894,-3.068022 -1.296117,-4.664223 0.808777,-1.585836 0.207379,-2.632695 -1.327224,-1.274888 -2.384856,2.124813 -5.049673,3.938677 -5.6407022,7.338378 -0.1866409,1.077954 0,2.643059 0.7154562,3.503349 0.331806,0.393868 0.78804,0.673722 1.150953,1.036494 0.165903,0.176204 0.300699,0.373138 0.425126,0.580437 0.29033,0.497517 0.497709,1.046859 0.912467,1.430362 0.145165,0.134744 0.300699,0.248758 0.466602,0.352408 0.165903,0.103649 0.352544,0.186569 0.528816,0.248758 v 0 c 0.103689,0.0311 0.29033,0.08292 0.466602,0.09329 0.02074,0 0.05185,0 0.07258,0 h 0.01037 c 0.05185,-0.02073 0.10369,-0.05183 0.145166,-0.10365 0.124427,-0.155474 0,-0.393867 -0.165903,-0.611531 -0.08295,-0.08292 -0.165903,-0.165839 -0.207379,-0.228029 -0.02074,-0.04146 -0.03111,-0.08292 -0.06221,-0.124379 -0.03111,-0.04146 -0.05185,-0.08292 -0.07258,-0.114014 -0.04148,-0.07256 -0.06221,-0.155474 -0.09332,-0.238394 -0.03111,-0.08292 -0.07258,-0.176204 -0.09332,-0.259123 -0.04148,-0.134745 -0.06221,-0.279854 -0.09332,-0.414598 -0.01037,-0.08292 -0.03111,-0.165839 -0.04148,-0.238394 -0.01037,-0.155474 0,-0.310948 0,-0.466422 0,-0.07256 0,-0.134744 0,-0.207299 0.03111,-0.228028 0.07258,-0.445692 0.155535,-0.663356 0.07258,-0.217664 0.155534,-0.404233 0.228116,-0.559707 0.466602,-0.943209 0.943574,-0.891385 1.182059,-0.269488 0.04148,0.103649 0.07258,0.217664 0.10369,0.352408 v 0 c 0.165903,0.829195 0,1.730945 0.134796,2.591235 0.114058,0.642626 0.300699,1.419997 0.642874,2.404666 0.04148,0.103649 0.08295,0.217664 0.124427,0.321313 0.311068,0.445692 0.767302,0.767006 1.503496,0.83956 0.642874,0.06219 1.306486,-0.145109 1.907885,0.09329 0.798408,0.310948 1.119845,1.243792 1.472389,2.021163 0.352544,0.756641 0.819146,1.451092 1.389438,2.052258 0.321437,0.342043 0.705087,0.507882 1.109476,0.549342 1.005787,-0.09329 1.679768,-0.424963 2.094525,-0.92248 0.09332,-0.103649 0.155535,-0.217664 0.228117,-0.342043 0.03111,-0.05183 0.07258,-0.103649 0.103689,-0.155474 0.07258,-0.155474 0.124428,-0.321313 0.176272,-0.487152 0,-0.0311 0.02074,-0.05183 0.03111,-0.08292 0.05185,-0.196933 0.08295,-0.404232 0.09332,-0.611531 0.02074,-0.207299 0.02074,-0.414598 0.01037,-0.621896 -0.05185,-1.710216 1.544971,-3.638094 2.488545,-4.633129 0.943573,-0.995034 2.384855,-1.63766 2.042681,0.176204 -0.342175,1.813865 0.48734,2.757074 0.48734,2.757074 0,0 0.05184,-1.451091 0.933204,-2.58087 0.88136,-1.129778 4.634915,-3.731378 4.759343,-7.493851 0.124427,-3.752109 -2.747769,-8.032829 -4.023148,-9.6083 z"
     style="fill:url(#radialGradient59);stroke-width:1"
     id="path32" />
  <path
     d="m 20.860323,18.379674 c -0.279962,-0.331679 -0.456234,-1.140144 0.05184,-1.409632 0.07258,-0.04146 0.155534,-0.08292 0.238486,-0.08292 0.311068,0 0.632505,0.269489 0.77767,0.518247 0.05185,0.10365 0.09332,0.207299 0.145165,0.310948 0.10369,0.228029 0.248855,0.445693 0.414758,0.632262 0.05185,0.06219 0.114058,0.114014 0.186641,0.145109 0.165903,0.06219 0.352544,-0.02073 0.476971,-0.145109 0.217748,-0.217664 0.311068,-0.538977 0.404389,-0.83956 0.06221,-0.207299 0.18664,-0.445693 0.394019,-0.435328 0.124427,0 0.228117,0.103649 0.279962,0.228029 0.05184,0.124379 0.05184,0.248758 0.04147,0.373138 0,1.181603 -0.01037,2.570505 0.3007,3.721013 0.114058,0.404233 0.29033,0.7981 0.591029,1.088319 0.497709,0.487152 1.244273,0.601166 1.94936,0.684086 0.311068,0.04146 0.632506,0.07255 0.922836,-0.04146 -0.269593,0.09328 -0.518447,-0.176204 -0.736195,-0.373138 -0.238485,-0.217664 -0.539185,-0.362773 -0.798408,-0.559707 -1.005787,-0.704815 -1.555341,-2.021163 -1.337593,-3.233861 0.114058,-0.652991 0.435495,-1.254158 0.601398,-1.896784 0.165903,-0.642626 0.155534,-1.399267 -0.300699,-1.886419 -0.09332,-0.103649 -0.207379,-0.186569 -0.331806,-0.238394 -0.331806,-0.145109 -0.715457,-0.04146 -1.036894,0.12438 -0.321437,0.165839 -0.611767,0.383503 -0.953942,0.497517 -0.58066,0.196934 -1.254641,0.04146 -1.75235,-0.310948 -0.176272,-0.12438 -0.466603,-0.424963 -0.673981,-0.476788 -0.445865,-0.114014 -0.922836,0.155475 -1.026525,0.601167 -0.269593,1.129778 0.331806,2.373571 1.119845,3.057657 -0.05185,-0.114014 0.39402,0.362773 0.06221,-0.0311 z"
     style="fill:url(#radial-gradient-3);stroke-width:1"
     id="path33" />
  <path
     d="m 29.259162,34.642264 c 1.161322,-1.088318 2.747769,-2.052258 4.178682,-2.684519 0.342175,-0.155474 0.549554,-0.507882 0.642875,-0.870655 0.09332,-0.352408 0.103689,-0.735911 -0.04148,-1.077954 -0.145165,-0.342043 -0.134796,-0.570071 -0.114058,-0.943209 0.02074,-0.404233 -0.124428,-0.829196 -0.39402,-1.129779 -0.02074,-0.02073 -0.04148,-0.04146 -0.06221,-0.06219 -0.06221,-0.0311 -0.145165,0 -0.19701,0.04146 -0.05184,0.04146 -0.08295,0.12438 -0.103689,0.186569 -0.269592,0.663356 -0.632505,1.285253 -1.016156,1.886419 -0.217748,0.331678 -0.435495,0.601167 -0.746563,0.849925 -0.124428,0.10365 -0.259224,0.207299 -0.425127,0.228029 -0.103689,0.01037 -0.217748,-0.02073 -0.321437,-0.05183 -0.632505,-0.186569 -0.383651,-0.891384 -0.414757,-1.399267 -0.04148,-0.601166 -0.134797,-1.223062 0.18664,-1.772404 0.186641,-0.310948 0.487341,-0.570072 0.839884,-0.611532 0.456234,-0.05182 0.922836,0.321313 0.974681,0.777371 -0.04148,-0.538977 -0.134797,-1.098684 -0.476972,-1.513281 -0.18664,-0.238394 -0.445864,-0.414598 -0.632505,-0.652992 -0.331806,-0.404232 -0.466602,-0.932844 -0.466602,-1.451091 0,-0.518247 0.114058,-1.036494 0.228117,-1.534011 0,0.01037 -0.311068,0.165839 -0.342175,0.207298 -0.124428,0.114015 -0.145165,0.269489 -0.238486,0.393868 -0.176272,0.238394 -0.425126,0.445693 -0.653243,0.632261 -0.508078,0.424963 -1.068001,0.808466 -1.327224,1.440727 -0.331806,0.829195 -0.07258,1.76204 -0.362913,2.653425 -0.311068,0.943209 -0.860622,1.813864 -1.596816,2.487585 -0.248855,0.228029 -0.622137,0.435328 -0.902098,0.248759 -0.176272,-0.124379 -0.228117,-0.362773 -0.228117,-0.580437 0,-0.83956 0.518447,-1.668755 0.279962,-2.47722 -0.10369,-0.352408 -0.342175,-0.642627 -0.570292,-0.92248 -0.48734,-0.590802 -1.773088,-2.777804 -2.747768,-2.456491 -0.508078,0.165839 -0.497709,0.86029 -0.549554,1.388902 -0.103689,0.932845 -0.725826,1.76204 -1.513865,2.269922 -0.788039,0.507882 -1.731613,0.735911 -2.664817,0.829195 -0.435495,0.04146 -0.891729,0.05183 -1.275379,-0.155474 -0.165903,-0.08292 -0.39402,-0.196934 -0.497709,-0.04146 -0.04148,0.07255 -0.03111,0.155474 -0.01037,0.238394 0.228116,0.891385 1.099107,1.534011 2.011574,1.63766 0.767301,0.09328 1.472389,-0.321313 1.835302,0.684087 0.269592,0.746275 -0.217748,1.357807 -0.352544,2.062623 -0.124428,0.642626 -0.134797,1.482186 -0.02074,2.124812 0.321437,1.917514 2.778875,4.332545 4.831925,3.938677 0.342175,-0.06219 0.663612,-0.207298 0.97468,-0.373137 1.804195,-1.015764 2.789244,-3.016198 4.303109,-4.42583 z"
     style="opacity:0.3;fill:url(#linearGradient59);stroke-width:1"
     id="path34" />
  <path
     d="m 32.390582,30.413369 c -0.39402,0.570072 -0.912467,1.057224 -1.420545,1.544376 -0.342175,0.321313 -0.694719,0.590802 -1.140583,0.746276 -0.497709,0.186569 -0.995418,0.331678 -1.493127,0.528612 -0.352544,0.145109 -0.850253,0.269488 -1.057632,-0.06219 -0.352544,-0.570072 0.902098,-1.513281 1.233904,-1.855324 0.611767,-0.632262 1.161321,-1.378537 1.254641,-2.280287 0.05185,-0.549342 -0.06221,-1.109049 0.05185,-1.648026 0.02074,-0.103649 0.06221,-0.217663 0.155534,-0.259123 0.07258,-0.0311 0.155534,-0.02073 0.238486,0 0.456233,0.134744 0.767301,0.590801 0.850253,1.057224 0.08295,0.466422 -0.03111,0.953574 -0.186641,1.399267 0.497709,-0.466423 1.244272,-0.767006 1.420544,-1.419997 0.124428,-0.424963 -0.05184,-0.891385 -0.300699,-1.254158 -0.248854,-0.362773 -0.58066,-0.673721 -0.850253,-1.036494 -0.228116,-0.310948 -0.404388,-0.673721 -0.508078,-1.046859 -0.08295,-0.300583 -0.186641,-0.673721 -0.497709,-0.735911 -0.114058,-0.02073 -0.228116,0 -0.331806,0.04146 -0.611767,0.207299 -1.26501,0.777371 -1.513865,1.378537 -0.404388,1.005399 0,2.010799 -0.207379,3.016198 -0.176271,0.891385 -0.964311,2.000433 -1.627923,2.6016 -0.259223,0.238393 -0.559922,0.445692 -0.902097,0.497517 -0.342175,0.05183 -0.736195,-0.06219 -0.912467,-0.362773 -0.09332,-0.155474 -0.124427,-0.352408 -0.114058,-0.538977 0.04148,-1.181603 0.922835,-1.896784 0.207379,-3.161307 -0.290331,-0.518247 -0.68435,-1.067588 -1.047263,-1.554741 -0.279962,-0.393867 -1.337593,-1.305982 -1.285749,-1.834594 -0.18664,1.72058 -0.933204,3.37897 -2.094525,4.664223 0.518447,0.114014 0.933204,-0.538977 1.472389,-0.559707 0.549554,-0.02073 0.870991,0.611532 0.964311,1.150509 0.228117,1.233427 -0.279961,2.187002 -0.331806,3.35824 -0.02074,0.487152 0.124428,0.995034 -0.02074,1.461457 -0.279962,0.912114 -1.410176,1.378537 -2.260429,0.953574 -0.705088,-0.352408 -1.07837,-1.254158 -0.819146,-2.000433 -0.445864,0.746275 -0.456233,1.69985 -0.186641,2.529045 0.269592,0.829195 0.808777,1.544376 1.410176,2.176637 0.891728,0.932845 2.115263,1.751675 3.390642,1.513282 0.342175,-0.06219 0.663612,-0.207299 0.974681,-0.373138 1.804195,-1.015764 2.789244,-3.016198 4.303109,-4.425829 0.68435,-0.632262 1.46202,-1.150509 2.187846,-1.730945 0.362913,-0.290219 0.68435,-0.611532 1.005787,-0.94321 0.321437,-0.331678 0.559922,-0.518247 0.642874,-0.995034 0.05185,-0.310948 0.04148,-0.632262 0.02074,-0.953575 0,-0.176204 -0.03111,-0.383503 -0.176272,-0.487152 -0.145165,0.196934 -0.248855,0.414598 -0.373282,0.621896 -0.05185,0.09329 -0.114058,0.176204 -0.176272,0.269489 z"
     style="opacity:0.8;fill:url(#linear-gradient-2);stroke-width:1"
     id="path35" />
  <path
     d="m 19.823429,19.623466 c -0.155534,-0.103649 -0.342175,-0.196934 -0.518447,-0.207298 0.445864,0.963939 0.97468,1.958973 1.420545,3.047292 1.254641,3.047292 -0.425127,6.519547 -2.830721,6.053125 -2.084156,-0.404233 -2.136001,-2.415031 -1.586447,-3.980137 l -0.995418,-0.746276 c 0.124427,0.621897 -0.124427,1.243793 -0.279961,1.855324 -0.279962,1.160874 -0.134797,2.497951 0.715456,3.337511 0.549554,0.549342 1.327224,0.81883 2.104895,0.829195 0.77767,0.01037 1.534603,-0.207298 2.229321,-0.549341 0.746564,-0.362773 1.513865,-2.155908 2.426332,-1.637661 0.29033,0.165839 0.456233,0.487152 0.58066,0.7981 0.279962,0.684086 0.466603,1.409632 0.539185,2.155908 0.321437,-1.067589 0.653243,-2.187002 0.404389,-3.275321 -0.09332,-0.424963 -0.279962,-0.829195 -0.476971,-1.212698 -1.150953,-2.238827 -1.482759,-4.975171 -3.722449,-6.467723 z"
     style="fill:url(#linearGradient60);stroke-width:1"
     id="path36" />
  <path
     d="m 16.909757,28.402571 c 0,0 2.25006,1.243792 3.587653,0.559706 1.337593,-0.684086 1.358331,-2.280287 1.150952,-2.839993 -0.207379,-0.559707 -0.673981,0.08292 -0.912467,0.611531 -0.238485,0.528612 -1.057631,2.124813 -3.826138,1.67912 z"
     style="fill:url(#linearGradient61);stroke-width:1"
     id="path37" />
  <path
     d="m 34.588797,34.165477 c 0.197009,-0.186569 0.38365,-0.373138 0.559922,-0.570072 1.068001,-1.202333 1.897516,-3.109482 1.949361,-4.716047 0.124427,-3.752109 -2.747769,-8.032829 -4.023148,-9.6083 -1.265011,-1.565106 -1.544972,-2.746709 -1.285749,-3.410065 0.259224,-0.663356 0.476972,-1.648025 -0.311068,-1.243793 -0.788039,0.404233 -1.296117,1.886419 -0.68435,3.855758 0.611768,1.969339 -1.627923,5.22393 -3.546176,4.612398 -1.918254,-0.601166 -2.478177,-3.565539 -1.534603,-5.379404 0.248854,-0.487152 0.528816,-0.912114 0.798408,-1.337077 -0.03111,-0.145109 -0.09332,-0.269488 -0.228117,-0.321313 -0.269592,-0.124379 -0.559922,0.09328 -0.746563,0.321313 -0.819146,0.984669 -0.964311,2.352842 -0.964311,3.627729 0,0.787736 0.04148,1.596201 0.331806,2.332112 0.279961,0.725545 0.746563,1.430361 1.275379,2.000433 0.39402,0.424963 1.016156,0.466422 1.441282,0.81883 0.238486,0.207299 0.902098,1.098684 0.819146,1.409632 0.259224,-0.974304 0.922836,-1.782769 1.586448,-2.56014 l 1.088738,-1.285253 c 1.223535,-1.440726 1.741982,1.689486 2.021943,2.155908 0.300699,0.487152 0.839884,0.756641 1.285749,1.109049 0.891728,0.71518 1.26501,1.689485 1.389437,2.788168 0.238486,2.041894 -0.736194,3.275321 -2.104894,4.695318 -0.97468,1.026129 -1.980467,2.228462 -1.94936,3.638094 -0.01037,-0.538977 1.192427,-1.471821 1.55534,-1.803499 0.414758,-0.383503 0.860622,-0.746276 1.27538,-1.129779 z"
     style="fill:url(#linear-gradient-5);stroke-width:1"
     id="path38" />
  <path
     d="m 23.545878,20.68069 c -0.06221,-0.279853 -0.155534,-0.538977 -0.331806,-0.767005 -0.279962,-0.362773 -0.725826,-0.549342 -1.140584,-0.746276 -0.715456,-0.352408 -1.399806,-0.787735 -1.866408,-1.430362 -0.466603,-0.642626 -0.68435,-1.502916 -0.414758,-2.238827 0.653243,-1.74131 1.710875,0.217664 2.685555,0.445693 0.788039,0.186569 1.316855,-0.362773 2.05305,-0.373138 0.622136,0 0.933204,0.476787 0.788039,1.109048 -0.05185,0.207299 -0.155534,0.404233 -0.238486,0.611532 -0.228116,0.580436 -0.217747,1.243793 0.03111,1.813864 0.10369,0 0.155534,-0.114014 0.176272,-0.217663 0.238486,-0.787736 0.653243,-1.627296 1.088739,-2.321747 0.259223,-0.404233 0.518447,-0.81883 0.725825,-1.254158 0.570292,-1.181603 0.673981,-2.47722 0.549554,-3.762473 C 27.320171,8.1598429 24.043587,7.0715242 22.954848,6.4599927 21.86611,5.8484613 22.674887,4.4595593 22.674887,4.4595593 c -1.016156,0.8291952 -0.839884,1.8864191 -0.466602,2.7052494 0.373281,0.8188302 2.654448,1.4199967 3.02773,3.3271453 0.373281,1.907149 -1.016156,4.063057 -2.395225,3.876488 -1.389438,-0.186569 -1.27538,-1.927879 -0.653243,-2.891819 0.611767,-0.963939 0.611767,-1.813864 -0.01037,-1.419996 -0.622136,0.393867 -2.426332,1.409632 -3.51507,4.21853 -0.59103,1.523646 -0.300699,2.902183 0.29033,4.34291 0.97468,2.373571 2.602604,4.291085 3.307691,6.768306 0.259224,0.912115 1.088739,1.409632 1.482758,2.228462 0.39402,0.81883 0.39402,2.114448 0.05185,2.922913 -0.300699,0.756641 -0.425126,1.575471 -0.383651,2.383936 0.10369,-0.943209 0.425127,-1.865689 0.943574,-2.674154 0.321437,-0.497517 0.715457,-0.953575 0.97468,-1.482187 0.259223,-0.528612 0.362913,-1.181603 0.09332,-1.710215 -0.279961,-0.528612 -0.839884,-0.73591 -1.213165,-1.160873 -0.342175,-0.383503 -0.673981,-0.974304 -0.902098,-1.440727 -0.456233,-0.932844 -0.342175,-1.886419 -1.140583,-2.715614 -0.48734,-0.507882 -1.182059,-1.015764 -1.088739,-1.710215 0.88136,0.290218 1.638293,0.912115 2.094526,1.72058 0.186641,0.342043 0.331806,0.715181 0.601398,1.005399 0.269593,0.290219 0.715457,0.456058 1.057632,0.259124 -0.622136,-0.0311 -0.995418,-0.715181 -1.109476,-1.326713 -0.06221,-0.331678 -0.08295,-0.684086 -0.165903,-1.005399 z"
     style="fill:url(#linearGradient62);stroke-width:1;opacity:0.70522388"
     id="path39" />
  <path
     d="m 23.649567,14.078223 -0.03111,0.414598 c -1.441282,0.456057 -2.675186,0 -3.038099,-0.88102 -0.352544,-0.870655 -1.94936,1.233428 -0.611767,4.374005 1.337593,3.140577 2.415963,4.684953 2.312273,6.892685 -0.103689,2.207732 -0.746563,3.855758 -2.353749,4.34291 -1.607185,0.487152 -4.074992,-0.07256 -4.230526,-2.238827 -0.03111,-0.383503 0.04148,-0.725546 0.165903,-1.036494 -0.05185,1.160873 0.404388,2.238827 1.876777,2.51868 2.405594,0.466422 4.085362,-3.005832 2.83072,-6.053125 -1.244272,-3.047292 -3.152157,-5.369039 -2.063418,-8.177937 1.088738,-2.808899 2.892933,-3.814298 3.51507,-4.218531 0.622136,-0.4042327 0.632505,0.456057 0.01037,1.419997 -0.611768,0.953574 -0.725826,2.705249 0.663612,2.881453 0.321437,0.04146 0.653243,-0.04146 0.953942,-0.238394 z"
     style="fill:url(#linear-gradient-7);stroke-width:1;opacity:0.51119403"
     id="path40" />
  <path
     d="m 32.919398,34.870293 c -0.414758,0.684086 -0.798409,1.451092 -1.036894,2.259557 -0.05185,0.114014 -0.10369,0.228029 -0.145165,0.342043 -0.04148,0.114014 -0.08295,0.228029 -0.114059,0.331678 -0.07258,0.217664 -0.114058,0.414598 -0.145165,0.580437 -0.06221,0.342043 -0.07258,0.559706 -0.07258,0.559706 0,0 -0.829515,-0.943209 -0.48734,-2.757074 0.342175,-1.813864 -1.099108,-1.171238 -2.042681,-0.176204 -0.943574,0.995035 -2.54039,2.922914 -2.488545,4.633129 0.01037,0.248758 0,0.497517 -0.03111,0.746275 -0.01037,0.07256 -0.02074,0.155474 -0.03111,0.228029 -0.02074,0.134744 -0.05185,0.259124 -0.08295,0.383503 -0.05185,0.176204 -0.114059,0.342043 -0.19701,0.507882 -0.08295,0.165839 -0.186641,0.331678 -0.321437,0.476787 -0.06221,0.07256 -0.124428,0.134744 -0.19701,0.196934 -0.10369,0.09328 -0.217748,0.186569 -0.331806,0.248759 -0.373282,0.217663 -0.839884,0.373137 -1.441283,0.435327 -0.435495,-0.02073 -0.860621,-0.186569 -1.202796,-0.559707 -0.570292,-0.601166 -1.036894,-1.295617 -1.389438,-2.052258 -0.362913,-0.77737 -0.673981,-1.710215 -1.472389,-2.021163 -0.601399,-0.228029 -1.27538,-0.0311 -1.907885,-0.09329 -0.736194,-0.07255 -1.213166,-0.393867 -1.513865,-0.849925 -0.05185,-0.09328 -0.09332,-0.196934 -0.124427,-0.300583 -0.321437,-0.92248 -0.518447,-1.689485 -0.632505,-2.311382 0,-0.02073 -0.01037,-0.03109 -0.01037,-0.05182 -0.279962,-1.554741 -0.05185,-2.269922 -0.124427,-2.64306 -0.217748,-1.046859 -0.912467,-1.233428 -1.513865,0.487152 -0.124428,0.342043 -0.186641,0.704816 -0.186641,1.067589 0,0.114014 0.01037,0.238394 0.02074,0.352408 0.02074,0.248759 0.08295,0.487152 0.176271,0.725546 0,0.0311 0.02074,0.07255 0.03111,0.103649 0.02074,0.04146 0.04148,0.09328 0.06221,0.134744 0.02074,0.04146 0.03111,0.07256 0.05185,0.114015 0.01037,0.0311 0.03111,0.06219 0.05184,0.09328 0.01037,0 0.01037,0.02073 0.02074,0.0311 0.08295,0.165839 0.186641,0.321313 0.29033,0.476787 0.10369,0.155474 0.290331,0.445693 -0.103689,0.404233 -0.155534,-0.02073 -0.404389,-0.238394 -0.528816,-0.342043 -0.352544,-0.279854 -0.622136,-0.642626 -0.788039,-1.046859 -0.248855,-0.632261 -0.228117,-1.378537 -0.518447,-1.990069 -0.19701,-0.414597 -0.508078,-0.507882 -0.77767,-0.829195 -0.767302,-0.932844 -0.155534,-2.435761 0.238485,-3.42043 0.279962,-0.704816 0.580661,-1.430362 1.109477,-1.958974 0.103689,-0.103649 0.217747,-0.196933 0.352544,-0.217663 0.456233,-0.10365 0.725825,0.507882 0.829515,0.984669 0.165903,0.77737 0.373281,1.575471 0.860621,2.187002 0.715457,0.90175 2.021943,1.057224 3.006992,0.559707 0.279962,-0.134744 0.528816,-0.321313 0.819147,-0.414598 0.29033,-0.09328 0.632505,-0.08292 0.850252,0.14511 0.207379,0.207298 0.238486,0.528612 0.217748,0.829195 -0.08295,1.160873 -0.860622,2.49795 -0.373282,3.679554 0.176272,0.424962 0.642875,0.652991 1.088739,0.7981 0.435495,0.145109 0.912466,0.238394 1.26501,0.549342 0.445865,0.393867 0.622137,1.057224 1.130215,1.378537 0.352543,0.217663 0.819146,0.207299 1.213165,0.07255 1.150952,-0.383502 2.094526,-1.264522 2.758138,-2.269922 0.456233,-0.694451 0.819146,-1.492551 1.451651,-2.000433 0.528816,-0.424963 1.182059,-0.611531 1.773089,-0.932845 1.451651,-0.787735 2.747768,-3.016197 2.872195,-4.674588 0.02074,-0.269488 0,-0.590801 0.207379,-0.77737 0.19701,-0.165839 0.518447,-0.103649 0.705088,0.08292 0.186641,0.186568 0.269592,0.435327 0.342175,0.684086 0.300699,1.129778 0.466602,2.529045 0.207379,3.689918 -0.259224,1.160873 -1.088739,2.145543 -1.669399,3.119847 z"
     style="fill:url(#linear-gradient-8);stroke-width:1"
     id="path41" />
  <path
     d="m 32.535747,33.108253 c -0.342175,1.243793 -1.275379,2.311382 -1.389438,3.58627 0.01037,-0.114015 -0.03111,-0.331679 -0.08295,-0.549342 -0.04148,-0.12438 -0.07258,-0.248759 -0.09332,-0.342043 -0.01037,-0.04146 -0.02074,-0.08292 -0.03111,-0.114015 -0.03111,-0.165839 -0.02074,-0.321313 -0.07258,-0.445692 -0.04148,-0.08292 -0.114058,-0.134744 -0.186641,-0.165839 -0.01037,-0.01037 -0.02074,-0.02073 -0.03111,-0.02073 h -0.02074 c 0,0 -0.02074,-0.01037 -0.04148,-0.01037 -0.476972,-0.155474 -1.130215,0.383503 -1.513865,0.767006 -0.07258,0.06219 -0.134797,0.124379 -0.19701,0.196933 -0.943574,0.995035 -2.54039,2.922914 -2.488545,4.633129 0.01037,0.248758 0,0.497517 -0.03111,0.746275 -0.01037,0.07256 -0.02074,0.155474 -0.03111,0.228029 -0.02074,0.134744 -0.05185,0.259124 -0.08295,0.383503 -0.05185,0.176204 -0.114059,0.342043 -0.19701,0.507882 -0.08295,0.165839 -0.186641,0.331678 -0.321437,0.476787 -0.06221,0.07256 -0.124428,0.134744 -0.19701,0.196934 -0.10369,0.09328 -0.217748,0.186569 -0.331806,0.248759 -0.373282,0.217663 -0.839884,0.373137 -1.441283,0.435327 -0.435495,-0.02073 -0.860621,-0.186569 -1.202796,-0.559707 -0.570292,-0.601166 -1.036894,-1.295617 -1.389438,-2.052258 -0.362913,-0.77737 -0.673981,-1.710215 -1.472389,-2.021163 -0.601399,-0.228029 -1.27538,-0.0311 -1.907885,-0.09329 -0.736194,-0.07255 -1.213166,-0.393867 -1.513865,-0.849925 -0.05185,-0.09328 -0.09332,-0.196934 -0.124427,-0.300583 -0.321437,-0.92248 -0.518447,-1.689485 -0.632505,-2.311382 0,-0.02073 -0.01037,-0.03109 -0.01037,-0.05182 -0.279962,-1.554741 -0.05185,-2.269922 -0.124427,-2.632695 v 0 c -0.217748,-1.057224 -0.912467,-1.243793 -1.513865,0.476787 -0.165903,0.466422 -0.217748,0.94321 -0.165903,1.419997 0.04148,0.528612 0.217747,1.057224 0.539184,1.471821 0.134797,0.176204 0.539185,0.611532 0.04148,0.601167 -0.217748,-0.01037 -0.497709,-0.290218 -0.653243,-0.435328 -0.279961,-0.259123 -0.518447,-0.580436 -0.663612,-0.943209 -0.228117,-0.570072 -0.207379,-1.212698 -0.435495,-1.78277 -0.19701,-0.507882 -0.435496,-0.75664 -0.445865,-1.316347 -0.01037,-0.487152 0.68435,-4.063057 1.513865,-2.933278 0.508078,0.694451 0.518447,1.326712 1.347962,1.803499 0.725826,0.414598 1.990836,0.621897 2.789244,0.352408 0.3007,-0.103649 0.653244,-0.238393 0.912467,-0.05182 0.124427,0.08292 0.19701,0.238393 0.248854,0.383502 0.10369,0.331679 0.155535,0.684086 0.06221,1.015765 -0.04148,0.196933 -0.134796,0.373137 -0.207379,0.559706 -0.466602,1.129779 -0.839884,3.130212 0.777671,3.48262 0.642874,0.145109 1.347962,-0.114014 1.959729,0.124379 0.632505,0.228029 0.985049,0.891385 1.524234,1.285253 0.466602,0.342043 1.088738,0.466422 1.65903,0.331678 0.912466,-0.217664 1.690137,-1.254158 2.291535,-1.927879 0.476971,-0.518247 0.88136,-1.098683 1.358331,-1.627295 0.943573,-1.026129 2.125632,-1.8035 3.307691,-2.560141 0.290331,-0.186568 0.746564,-0.342043 0.902098,-0.03109 0.07258,0.124379 0.04148,0.279853 0.01037,0.414597 z"
     style="opacity:0.51;fill:url(#linearGradient63);stroke-width:1"
     id="path42" />
  <path
     d="m 16.266883,38.290723 c 0.300699,0.456058 0.777671,0.777371 1.513865,0.849925 0.632505,0.06219 1.306486,-0.134744 1.907885,0.09329 0.798408,0.310948 1.109476,1.243793 1.472389,2.021163 0.352544,0.756641 0.819146,1.451092 1.389438,2.052258 0.342175,0.373138 0.767301,0.538977 1.202796,0.559707 0.48734,0.04146 1.005787,-0.124379 1.441283,-0.435327 0.114058,-0.06219 0.228116,-0.155475 0.331806,-0.248759 0.07258,-0.06219 0.134796,-0.124379 0.19701,-0.196934 0.134796,-0.145109 0.238485,-0.310948 0.321437,-0.476787 0.08295,-0.165839 0.145165,-0.331678 0.19701,-0.507882 0.03111,-0.124379 0.06221,-0.248759 0.08295,-0.383503 0.01037,-0.07256 0.02074,-0.155474 0.03111,-0.228029 0.03111,-0.248758 0.04148,-0.497517 0.03111,-0.746275 -0.05185,-1.710215 1.544971,-3.638094 2.488545,-4.633129 0.06221,-0.07255 0.124427,-0.134744 0.19701,-0.196933 0.518446,-0.487153 1.130214,-0.839561 1.513865,-0.767006 0.02074,0 0.03111,0.01037 0.04148,0.01037 h 0.01037 c 0,0 0.03111,0.01037 0.04148,0.02073 0.07258,0.0311 0.145165,0.08292 0.186641,0.165839 0.07258,0.124379 0.114058,0.300583 0.103689,0.559707 -0.01037,0.114014 -0.03111,0.238393 -0.05184,0.383502 -0.342175,1.813865 0.48734,2.757074 0.48734,2.757074 0,0 0.05184,-1.451091 0.933204,-2.58087 0.870991,-1.129778 4.634915,-3.731378 4.759343,-7.483486 0.124427,-3.762473 -2.747769,-8.043194 -4.023148,-9.6083 -1.265011,-1.565106 -1.544972,-2.746709 -1.285749,-3.410065 0.259224,-0.663356 0.476972,-1.648025 -0.311068,-1.254158 -0.788039,0.404233 -1.296117,1.896784 -0.68435,3.866123 0.622137,1.969339 -1.617554,5.213565 -3.535808,4.612398 -1.918253,-0.601166 -2.478176,-3.565539 -1.544971,-5.379404 0.943573,-1.824229 2.281166,-2.757074 1.94936,-6.146409 -0.331806,-3.3893352 -3.60839,-4.4776539 -4.697129,-5.0891853 -1.099107,-0.6115315 -0.29033,-2.0107984 -0.29033,-2.0107984 -1.005787,0.8395602 -0.829515,1.8864191 -0.466602,2.7052494 0.373281,0.8188302 2.654448,1.4199967 3.038098,3.3271453 0.383651,1.907149 -1.016155,4.063057 -2.395224,3.876488 -1.389438,-0.176204 -1.27538,-1.927879 -0.663612,-2.881454 0.622136,-0.963939 0.611767,-1.824229 -0.01037,-1.419996 -0.622136,0.404232 -2.426332,1.409631 -3.51507,4.21853 -1.088739,2.808899 0.819146,5.130646 2.063419,8.177938 1.254641,3.047292 -0.425127,6.519547 -2.830721,6.053125 -2.415962,-0.466422 -2.104894,-3.068022 -1.306486,-4.664223 0.808777,-1.585836 0.207379,-2.632695 -1.327224,-1.264523 -2.384856,2.124813 -5.049673,3.938677 -5.6407021,7.328013 -0.1866409,1.077954 0,2.643059 0.7154571,3.513714 0.331806,0.393868 0.788039,0.673722 1.150952,1.036494 0.165903,0.176204 0.300699,0.373138 0.425126,0.580437 0.29033,0.497517 0.497709,1.046859 0.902098,1.430362 0.29033,0.259123 0.642874,0.466422 1.005787,0.590801 0.207379,0.07256 0.528816,0.196934 0.694719,-0.01036 0.207378,-0.248758 -0.248855,-0.704816 -0.435496,-0.984669 -0.03111,-0.05183 -0.05184,-0.09328 -0.07258,-0.134744 -0.155534,-0.331678 -0.259224,-0.684086 -0.311068,-1.046859 -0.05185,-0.476787 0,-0.953575 0.165903,-1.419997 0.601398,-1.72058 1.296117,-1.534011 1.513865,-0.487152 v 0 c 0.165903,0.849925 -0.02074,1.772405 0.124427,2.64306 0,0.02073 0.01037,0.0311 0.01037,0.05182"
     style="fill:none;stroke:url(#linearGradient64);stroke-width:0.7px;stroke-miterlimit:10"
     id="path43" />
  <path
     d="m 31.125571,34.631899 c 0.01037,0.248759 -0.103689,0.487153 -0.207378,0.704816 -0.59103,-0.07255 -1.182059,0.07256 -1.721244,0.373138 -0.508078,0.259124 -0.964311,0.652991 -1.306486,1.109049 -0.331806,0.445692 -0.570292,0.943209 -0.767302,1.461456 -0.207379,0.580437 -0.352544,1.202333 -0.456233,1.813865 -0.103689,0.621896 -0.19701,1.274887 -0.414758,1.865689 -0.02074,0.103649 -0.05184,0.186569 -0.09332,0.279853 -0.165903,0.373138 -0.383651,0.715181 -0.694719,0.995035 -0.06221,0.06219 -0.134796,0.114014 -0.207379,0.165839 -0.352543,0.248758 -0.767301,0.393867 -1.202796,0.456057 -0.07258,0.01037 -0.155534,0.01037 -0.228117,0.02073 h -0.03111 c -0.456233,-0.02073 -0.891729,-0.186569 -1.244272,-0.570072 -0.570292,-0.601166 -1.036894,-1.295617 -1.389438,-2.052258 -0.362913,-0.77737 -0.673981,-1.710215 -1.472389,-2.021163 -0.601399,-0.228029 -1.27538,-0.0311 -1.907885,-0.09329 -0.663612,-0.06219 -1.109476,-0.331678 -1.420544,-0.715181 -0.518447,-1.181603 -0.819146,-2.466855 -0.922836,-3.762473 -0.04148,-0.424962 -0.06221,-0.870655 -0.05185,-1.305982 0,-0.601167 -0.476971,-1.036494 -0.953942,-0.96394 -0.207379,0.0311 -0.404388,0.14511 -0.570291,0.383503 -0.373282,0.538977 -0.321438,2.031528 -0.145166,2.591235 l -0.02074,0.456058 c -0.321438,-0.114015 -0.445865,-0.487153 -0.518447,-0.818831 -0.238486,-1.233428 -0.217748,-2.529045 0.06221,-3.752108 0.02074,-0.103649 0.05185,-0.217664 0.145165,-0.259123 0.134797,-0.06219 0.279962,0.06219 0.39402,0.176203 0.77767,0.849926 2.011574,1.243793 3.141788,1.0054 0.39402,-0.08292 0.891729,-0.186569 1.109477,0.145109 0.114058,0.176204 0.08295,0.414597 0.05184,0.621896 -0.145165,0.849925 -0.29033,1.710215 -0.248854,2.58087 0.05184,1.140144 0.611767,3.244227 2.14637,2.777804 0.404389,-0.124379 0.860622,-0.300583 1.233904,-0.103649 0.362912,0.196934 0.476971,0.632261 0.611767,1.015764 0.145165,0.414598 0.352544,0.81883 0.68435,1.109049 0.331806,0.279853 0.808777,0.435327 1.223535,0.300583 0.435495,-0.134744 0.736194,-0.538977 1.078369,-0.849925 0.580661,-0.507882 1.399807,-0.787736 1.85604,-1.419997 0.559923,-0.756641 1.047263,-1.461457 1.721244,-2.145543 0.622136,-0.621896 1.068,-1.295617 1.762719,-1.865689 0.155534,-0.134744 0.352544,-0.269488 0.559923,-0.248758 0.238485,0.03109 0.404388,0.290218 0.414757,0.538976 z"
     style="fill:url(#linear-gradient-11);stroke-width:1"
     id="path44" />
  <path
     d="m 37.09808,28.879358 c -0.124428,3.752108 -3.888352,6.353708 -4.759343,7.483486 -0.88136,1.129779 -0.933204,2.58087 -0.933204,2.58087 0,0 -0.829515,-0.943209 -0.48734,-2.757074 0.07258,-0.393867 0.06221,-0.673721 0,-0.849925 -0.228117,-0.580436 -1.026525,-0.238393 -1.721244,0.373138 -0.114058,0.09328 -0.217748,0.196934 -0.321437,0.300583 -0.518447,0.538977 -1.223535,1.357808 -1.752351,2.269922 -0.445864,0.767006 -0.756932,1.585836 -0.736194,2.363207 0.01037,0.435327 -0.02074,0.891384 -0.134797,1.316347 -0.02074,0.103649 -0.05184,0.186569 -0.09332,0.279853 -0.103689,0.269489 -0.238486,0.528612 -0.435495,0.746276 -0.08295,0.09329 -0.165903,0.176204 -0.259224,0.248759 -0.06221,0.06219 -0.134796,0.114014 -0.207379,0.165839 -0.362912,0.259123 -0.77767,0.424962 -1.202796,0.456057 -0.07258,0.02073 -0.155534,0.02073 -0.228117,0.02073 h -0.03111 c -0.456233,-0.02073 -0.891729,-0.186569 -1.244272,-0.570072 -0.570292,-0.601166 -1.036894,-1.295617 -1.389438,-2.052258 -0.362913,-0.77737 -0.673981,-1.710215 -1.472389,-2.021163 -0.601399,-0.228029 -1.27538,-0.0311 -1.907885,-0.09329 -0.663612,-0.06219 -1.109476,-0.331678 -1.420544,-0.715181 -0.570292,-0.704815 -0.673981,-1.803499 -0.850253,-2.746709 -0.06221,-0.331678 -0.07258,-0.673721 -0.07258,-1.015764 0,-0.570071 0.04148,-1.140143 -0.06221,-1.67912 -0.155535,-0.725546 -0.528816,-1.036494 -0.943574,-0.590802 -0.186641,0.196934 -0.383651,0.538977 -0.570291,1.077954 -0.290331,0.81883 -0.228117,1.710215 0.155534,2.497951 0.124427,0.269488 0.725825,0.808465 0.497709,1.088318 -0.165903,0.207299 -0.48734,0.08292 -0.694719,0.01036 -0.362916,-0.124369 -0.71546,-0.331668 -1.00579,-0.590791 -0.404389,-0.383503 -0.611768,-0.932845 -0.902098,-1.430362 -0.124427,-0.207299 -0.259223,-0.404233 -0.425126,-0.580437 -0.362913,-0.362772 -0.819146,-0.642626 -1.150952,-1.036494 -0.7154571,-0.870655 -0.902098,-2.43576 -0.7154571,-3.513714 0.5910291,-3.389336 3.2558461,-5.2032 5.6407021,-7.328013 1.534603,-1.368172 2.136001,-0.321313 1.327224,1.264523 -0.798408,1.596201 -1.109476,4.197801 1.306486,4.664223 2.405594,0.466422 4.085362,-3.005833 2.830721,-6.053125 -1.244273,-3.047292 -3.152158,-5.369039 -2.063419,-8.177938 1.088738,-2.808899 2.892934,-3.814298 3.51507,-4.21853 0.622136,-0.404233 0.632505,0.456057 0.01037,1.419996 -0.611768,0.953575 -0.725826,2.70525 0.663612,2.881454 1.379069,0.186569 2.778875,-1.969339 2.395224,-3.876488 -0.38365,-1.9071486 -2.664817,-2.5083151 -3.038098,-3.3271453 -0.362913,-0.8188303 -0.539185,-1.8656892 0.466602,-2.7052494 0,0 -0.808777,1.3992669 0.29033,2.0107984 1.088739,0.6115314 4.365323,1.6998501 4.697129,5.0891853 0.331806,3.389335 -1.005787,4.32218 -1.94936,6.146409 -0.933205,1.813865 -0.373282,4.778238 1.544971,5.379404 1.918254,0.601167 4.157945,-2.643059 3.535808,-4.612398 -0.611767,-1.969339 -0.103689,-3.46189 0.68435,-3.866123 0.78804,-0.393867 0.570292,0.590802 0.311068,1.254158 -0.259223,0.663356 0.02074,1.844959 1.285749,3.410065 1.275379,1.565106 4.147575,5.845827 4.023147,9.6083 z"
     style="fill:none;stroke:url(#linear-gradient-12);stroke-width:0.7px;stroke-miterlimit:10"
     id="path45" />
  <path
     d="m 15.872864,28.371476 c -0.19701,-1.554741 0,-3.099117 0.715456,-4.519114 0.808777,-1.585836 0.207379,-2.632695 -1.327224,-1.274888 -2.384856,2.124813 -5.049673,3.938677 -5.6407021,7.338378 -0.1866409,1.077954 0,2.643059 0.7154571,3.503349 0.03111,0.04146 0.07258,0.06219 0.103689,0.10365 -0.248855,-0.518247 -0.373282,-1.109049 -0.362913,-1.689485 0.02074,-0.912115 0.311068,-1.793135 0.694719,-2.611965 0.445864,-0.953575 1.026525,-1.855324 1.710875,-2.653425 0.331806,-0.383503 2.167108,-2.684519 2.530021,-1.368172 0.06221,0.238394 0,0.487152 -0.04148,0.725546 -0.134796,0.632261 -0.207379,1.285252 -0.228117,1.927879 -0.01037,0.404232 0,0.808465 0.114059,1.191968 0.321437,1.098683 1.420544,1.793134 2.509283,2.145542 0.373281,0.12438 0.756932,0.217664 1.068,0.445693 0.539185,0.393868 0.539185,0.735911 0.425127,1.337077 -0.10369,0.549342 -0.19701,1.129779 -0.03111,1.668755 0.145165,0.445693 0.476971,0.829196 0.891729,1.067589 0.414757,0.238394 0.902097,0.321313 1.368699,0.279854 -0.197009,-0.155475 -0.414757,-0.290219 -0.611767,-0.445693 -0.601398,-0.507882 -0.839884,-1.399267 -0.808777,-2.155907 0.02074,-0.549342 0.186641,-1.088319 0.445864,-1.575471 0.06221,-0.114015 0.134796,-0.238394 0.176272,-0.362773 0.114058,-0.352408 0,-0.767006 -0.29033,-1.005399 -0.06221,-0.05183 -0.134796,-0.10365 -0.217748,-0.12438 -0.134796,-0.04146 -0.269592,-0.03109 -0.414757,-0.02073 -0.248855,0.02073 -0.48734,0.06219 -0.725826,0.09328 -0.756933,0.103649 -1.721244,-0.04146 -2.25006,-0.642626 -0.331806,-0.373138 -0.445864,-0.88102 -0.518446,-1.368172 z"
     style="fill:url(#linear-gradient-13);stroke-width:1"
     id="path46" />
  <path
     d="m 26.075899,16.296321 c 0.311068,-1.316348 0.622136,-2.694885 0.331806,-4.021597 -0.19701,-0.86029 -0.663612,-1.648026 -1.306487,-2.259557 C 24.479082,8.481156 22.560829,7.9214493 22.218654,7.1648087 21.845372,6.3459784 21.679469,5.2991195 22.685256,4.4699243 c 0,0 -0.808777,1.3889019 0.29033,2.0004334 1.088739,0.6115314 4.365323,1.6998501 4.697129,5.0891853 0.321437,3.337511 -0.964311,4.291085 -1.897516,6.06349 0.10369,-0.435328 0.207379,-0.88102 0.311068,-1.316347 z"
     style="fill:url(#linear-gradient-14);stroke-width:1"
     id="path47" />
  <path
     d="m 36.133768,24.401704 c -2.115263,-4.653858 -3.877982,-6.332979 -4.230526,-7.089619 -0.155534,-0.331678 -0.248855,-0.652992 -0.3007,-0.92248 0.09332,-0.321313 0.186641,-0.538977 0.186641,-0.538977 0.259224,-0.663356 0.476972,-1.648025 -0.311068,-1.243793 -0.788039,0.404233 -1.296117,1.886419 -0.68435,3.855758 0.570292,1.834594 -0.881359,3.783203 -1.887146,5.172105 -0.165903,0.228029 -0.331806,0.456057 -0.476972,0.694451 -0.518446,0.90175 -0.601398,1.834594 -0.414757,2.819264 0.03111,0.186569 0.05185,0.373138 0.05185,0.559707 0,0.891384 -0.362913,1.834594 -0.725826,2.591235 0.217748,-0.269489 0.435495,-0.549342 0.653243,-0.818831 0.300699,-0.383503 0.611767,-0.77737 0.746564,-1.243793 0.09332,-0.321313 0.134796,-0.71518 0.09332,-1.057223 -0.04148,-0.331678 -0.145165,-0.632262 -0.04148,-0.974305 0.145165,-0.466422 0.611768,-0.90175 0.922836,-1.254158 0.06221,-0.07255 0.134796,-0.155474 0.238485,-0.186568 0.19701,-0.06219 0.39402,0.124379 0.466603,0.310948 0.07258,0.196934 0.06221,0.404232 0.134796,0.601166 0.155534,0.435328 0.642874,0.642627 0.964311,0.96394 0.622136,0.601166 0.632505,1.72058 0.03111,2.342476 0.497709,-0.207299 0.902097,-0.663356 1.047263,-1.181603 0.145165,-0.528612 0.04148,-1.109049 -0.279962,-1.554741 -0.300699,-0.414598 -0.756932,-0.684086 -1.057631,-1.088319 -0.808778,-1.098683 -0.06221,-2.487585 0.300699,-3.689918 v 0 c 0.05184,-0.186569 0.103689,-0.373138 0.134796,-0.538977 0.207379,-0.549342 0.508078,-0.09329 1.005787,1.129778 0.622136,1.502917 1.327224,2.56014 2.405594,3.534445 1.078369,0.974304 1.907884,3.866122 1.078369,5.711082 0,0 2.063419,-2.238827 -0.05185,-6.892685 z"
     style="fill:url(#linear-gradient-15);stroke-width:1"
     id="path48" />
  <path
     d="m 16.059504,18.213834 c 0,0 -0.01037,-0.08292 -0.02074,-0.134744 -0.3007,-1.907149 -0.03111,-3.928312 0.715456,-5.690352 -0.964311,0.642626 -0.922835,2.249192 -1.835302,2.974738 -0.124427,0.103649 -0.311068,0.186569 -0.445864,0.103649 -0.134796,-0.07255 -0.165903,-0.259123 -0.176272,-0.414597 -0.02074,-0.424963 0.04148,-0.849925 0.186641,-1.243793 -0.508078,0.424963 -0.870991,1.368172 -1.088739,1.990068 -0.114058,0.331679 -0.197009,0.704816 -0.08295,1.036494 0.134796,0.383503 0.48734,0.611532 0.767301,0.891385 0.601399,0.590802 0.694719,1.596201 0.518447,2.394301 -0.103689,0.476788 -0.456233,1.388902 -0.456233,1.388902 0,0 0.663612,-0.352408 0.798408,-0.456057 0.269592,-0.207299 0.508078,-0.466422 0.705088,-0.756641 0.445864,-0.652991 0.539185,-1.305982 0.425126,-2.083353 z"
     style="fill:url(#linear-gradient-16);stroke-width:1"
     id="path49" />
  <path
     d="m 14.587115,20.255728 c 0,0 0.03111,-0.321313 0.06221,-0.818831 0.03111,0.290219 0,0.559707 -0.06221,0.818831 z"
     style="fill:url(#linearGradient65);stroke-width:1"
     id="path50" />
  <path
     d="m 15.945446,13.497787 c -0.207379,0.487152 -0.362913,1.015764 -0.653243,1.430362 0.279961,-0.746276 0.580661,-1.316348 0.653243,-1.430362 z"
     style="fill:url(#linear-gradient-18);stroke-width:1"
     id="path51" />
  <path
     d="m 15.800281,18.151645 c 0.114058,0.77737 0.02074,1.430362 -0.425126,2.083353 -0.19701,0.290218 -0.425127,0.538977 -0.705088,0.75664 -0.124428,0.114015 -0.798409,0.456058 -0.798409,0.456058 0,0 0.352544,-0.92248 0.456234,-1.399267 0.05184,-0.290218 0.09332,-0.590802 0.06221,-0.912115 0.05185,-0.590801 0.10369,-1.409632 0.155534,-2.249192 0.04148,-0.684086 0.259224,-1.419997 0.497709,-2.031528 0.279962,-0.414598 0.445865,-0.94321 0.653244,-1.430362 0,-0.01037 0,-0.01037 0,-0.02073 0.197009,-0.424962 0.414757,-0.829195 0.788039,-1.077953 -0.746564,1.762039 -1.016156,3.783203 -0.715457,5.690352 0,0.04146 0.02074,0.08292 0.02074,0.134744 z"
     style="fill:url(#linear-gradient-19);stroke-width:1"
     id="path52" />
  <path
     d="m 16.059504,18.213834 c 0,0 -0.01037,-0.08292 -0.02074,-0.134744 -0.3007,-1.907149 -0.03111,-3.928312 0.715456,-5.690352 -0.964311,0.642626 -0.922835,2.249192 -1.835302,2.974738 -0.124427,0.103649 -0.311068,0.186569 -0.445864,0.103649 -0.134796,-0.07255 -0.165903,-0.259123 -0.176272,-0.414597 -0.02074,-0.424963 0.04148,-0.849925 0.186641,-1.243793 -0.508078,0.424963 -0.870991,1.368172 -1.088739,1.990068 -0.114058,0.331679 -0.197009,0.704816 -0.08295,1.036494 0.134796,0.383503 0.48734,0.611532 0.767301,0.891385 0.601399,0.590802 0.694719,1.596201 0.518447,2.394301 -0.103689,0.476788 -0.456233,1.388902 -0.456233,1.388902 0,0 0.663612,-0.352408 0.798408,-0.456057 0.269592,-0.207299 0.508078,-0.466422 0.705088,-0.756641 0.445864,-0.652991 0.539185,-1.305982 0.425126,-2.083353 z"
     style="fill:none;stroke:url(#linearGradient66);stroke-width:0.5px;stroke-miterlimit:10"
     id="path53" />
  <path
     d="M 29.850192,5.9521107 C 29.76724,5.547878 29.549493,5.1851051 29.487279,4.7705075 29.362852,4.0345968 29.777609,3.298686 29.756872,2.5420454 29.736134,1.7232152 29.155473,0.9562096 28.367434,0.70745104 28.906619,1.1946032 29.134735,1.9823387 28.948094,2.6767896 28.823667,3.1432119 28.398541,3.5992693 27.931938,3.4956199 27.454967,3.3919705 27.299433,2.8426287 27.23722,2.4280311 c -0.311069,0.7566406 -0.518447,1.3059824 -0.259224,2.1559075 0.238486,0.7462757 0.715457,1.3681721 1.254642,1.9175139 0.58066,0.6011665 0.663612,1.3578071 0.414757,2.1870023 0.767302,-0.6633561 1.399807,-1.6894852 1.192428,-2.757074 z"
     style="fill:url(#linear-gradient-21);stroke-width:1"
     id="path54" />
  <path
     d="M 29.487279,4.7705075 C 29.362852,4.0345968 29.777609,3.298686 29.756872,2.5420454 29.736134,1.7232152 29.155473,0.9562096 28.367434,0.70745104 28.906619,1.1946032 29.134735,1.9823387 28.948094,2.6767896 28.823667,3.1432119 28.398541,3.5992693 27.931938,3.4956199 27.454967,3.3919705 27.299433,2.8426287 27.23722,2.4280311 c -0.311069,0.7566406 -0.518447,1.3059824 -0.259224,2.1559075 0.238486,0.7462757 0.715457,1.3681721 1.254642,1.9175139 0.58066,0.6011665 0.663612,1.3578071 0.414757,2.1870023 0.767302,-0.6633561 1.399807,-1.6894852 1.259826,-2.415031 C 29.76724,5.547878 29.549493,5.1851051 29.487279,4.7705075 Z"
     style="fill:none;stroke:url(#linear-gradient-22);stroke-width:0.5px;stroke-miterlimit:10"
     id="path55"
     sodipodi:nodetypes="ccccccccccc" />
  <path
     d="M 11.911929,35.046497 C 11.787502,34.839198 11.652706,34.642264 11.486803,34.46606 11.12389,34.103288 10.667657,33.823434 10.335851,33.429566 9.610025,32.569276 9.433753,30.993806 9.6203939,29.926217 10.211423,26.526516 12.87624,24.712652 15.261096,22.587839 c 1.534603,-1.368172 2.136001,-0.321313 1.327224,1.274888 -0.808777,1.596201 -1.109476,4.1978 1.296117,4.664223 2.405594,0.466422 4.085362,-3.005833 2.830721,-6.053125 -1.254642,-3.047293 -3.152158,-5.369039 -2.063419,-8.177938 1.088738,-2.808899 2.892934,-3.814298 3.51507,-4.21853 0.622136,-0.4042331 0.632505,0.456057 0.01037,1.419996 -0.622136,0.96394 -0.725826,2.70525 0.653243,2.891819 1.379069,0.186569 2.778875,-1.969339 2.395225,-3.876488 C 24.841996,8.6055353 22.56083,8.0043688 22.197917,7.1855385 21.835004,6.3667083 21.648363,5.3094844 22.664519,4.4802892 c 0,0 -0.808777,1.388902 0.279961,2.0004334 1.088739,0.6115315 4.365323,1.6998502 4.697129,5.0891854 0.331806,3.389335 -1.005787,4.32218 -1.94936,6.146409 -0.943574,1.82423 -0.373282,4.778238 1.534603,5.379404 1.907884,0.601167 4.157944,-2.643059 3.546176,-4.612398 -0.611767,-1.969339 -0.103689,-3.451525 0.68435,-3.855758 0.78804,-0.404232 0.570292,0.590802 0.311068,1.243793 -0.259223,0.652991 0.02074,1.844959 1.285749,3.410065 1.26501,1.565106 4.147575,5.845826 4.023148,9.6083 -0.124428,3.752108 -3.888352,6.364073 -4.759343,7.493851 -0.870991,1.129779 -0.933204,2.58087 -0.933204,2.58087 0,0 -0.829515,-0.943209 -0.48734,-2.757074 0.342175,-1.813864 -1.099108,-1.171238 -2.042681,-0.176204 -0.943573,0.995035 -2.54039,2.922913 -2.488545,4.633129 0.02074,0.81883 -0.10369,1.710215 -0.663612,2.342476 -0.829515,0.932845 -2.270798,1.285253 -3.172895,0.321313 -0.570292,-0.601166 -1.036894,-1.305982 -1.389438,-2.052258 -0.362913,-0.777371 -0.673981,-1.69985 -1.472389,-2.021163 -0.601399,-0.228029 -1.265011,-0.0311 -1.907885,-0.09329 -1.887146,-0.186569 -2.001205,-2.010798 -2.270797,-3.472255 -0.165903,-0.891385 0.03111,-1.824229 -0.145165,-2.684519 -0.207379,-1.046859 -0.902098,-1.243793 -1.513865,0.476787 -0.290331,0.829195 -0.228117,1.72058 0.155534,2.508316 0.124427,0.259123 0.736194,0.808465 0.508078,1.088318 -0.165903,0.207299 -0.48734,0.08292 -0.694719,0.01037 -0.362913,-0.124379 -0.715457,-0.331678 -1.005787,-0.601166 -0.414758,-0.373138 -0.622136,-0.932845 -0.912467,-1.430362 z"
     style="fill:none;stroke:url(#linear-gradient-23);stroke-width:0.7px;stroke-miterlimit:10"
     id="path56" />
</svg>
