<?xml version="1.0" encoding="UTF-8" standalone="no"?>
<svg
   viewBox="0 0 48 48"
   version="1.1"
   id="svg42078"
   sodipodi:docname="14-Headphones.svg"
   inkscape:version="1.1 (c68e22c387, 2021-05-23)"
   xmlns:inkscape="http://www.inkscape.org/namespaces/inkscape"
   xmlns:sodipodi="http://sodipodi.sourceforge.net/DTD/sodipodi-0.dtd"
   xmlns:xlink="http://www.w3.org/1999/xlink"
   xmlns="http://www.w3.org/2000/svg"
   xmlns:svg="http://www.w3.org/2000/svg">
  <sodipodi:namedview
     id="namedview42080"
     pagecolor="#ffffff"
     bordercolor="#666666"
     borderopacity="1.0"
     inkscape:pageshadow="2"
     inkscape:pageopacity="0.0"
     inkscape:pagecheckerboard="0"
     showgrid="false"
     inkscape:zoom="15.6875"
     inkscape:cx="24"
     inkscape:cy="24"
     inkscape:window-width="2880"
     inkscape:window-height="1557"
     inkscape:window-x="-8"
     inkscape:window-y="-8"
     inkscape:window-maximized="1"
     inkscape:current-layer="svg42078" />
  <defs
     id="defs41946">
    <style
       id="style41902">.cls-1{isolation:isolate;}.cls-2{fill:url(#radial-gradient);}.cls-28,.cls-3,.cls-36,.cls-4,.cls-8{fill:none;}.cls-3{stroke:#555753;}.cls-3,.cls-4{stroke-linecap:round;stroke-linejoin:round;}.cls-3,.cls-36,.cls-4,.cls-5{stroke-width:1.4px;}.cls-28,.cls-4{stroke:#888a85;}.cls-5{fill:#f57900;}.cls-36,.cls-5{stroke:#ce5c00;}.cls-28,.cls-36,.cls-5{stroke-miterlimit:10;}.cls-6{fill:#d3d7cf;}.cls-10,.cls-11,.cls-13,.cls-15,.cls-19,.cls-27,.cls-31,.cls-32,.cls-34,.cls-35,.cls-7{mix-blend-mode:multiply;}.cls-7{fill:url(#linear-gradient);}.cls-9{fill:#555753;}.cls-10{fill:url(#linear-gradient-2);}.cls-11{fill:url(#linear-gradient-3);}.cls-12{fill:#888a85;}.cls-13{fill:url(#linear-gradient-4);}.cls-14{fill:url(#linear-gradient-5);}.cls-15{fill:url(#linear-gradient-6);}.cls-16{fill:#eeeeec;}.cls-17{fill:#babdb6;}.cls-18{fill:url(#linear-gradient-7);}.cls-19{fill:url(#linear-gradient-8);}.cls-20{fill:#2e3436;}.cls-21{fill:url(#linear-gradient-9);}.cls-22{fill:#fcaf3e;}.cls-23{fill:url(#linear-gradient-10);}.cls-24{fill:url(#linear-gradient-11);}.cls-25{fill:url(#linear-gradient-12);}.cls-26{fill:url(#linear-gradient-13);}.cls-27{fill:url(#linear-gradient-14);}.cls-28{stroke-width:0.7px;}.cls-29{fill:url(#linear-gradient-15);}.cls-30{fill:#fff;}.cls-31{fill:url(#linear-gradient-16);}.cls-32{fill:url(#linear-gradient-17);}.cls-33{fill:url(#linear-gradient-18);}.cls-34{fill:url(#linear-gradient-19);}.cls-35{fill:url(#linear-gradient-20);}.cls-37{fill:url(#linear-gradient-21);}.cls-38{fill:url(#linear-gradient-22);}.cls-39{fill:url(#linear-gradient-23);}</style>
    <radialGradient
       id="radial-gradient"
       cx="13.8"
       cy="-41.93"
       r="21.39"
       gradientTransform="matrix(1.11,0,0,0.42,8.66,54.5)"
       gradientUnits="userSpaceOnUse">
      <stop
         offset="0.03"
         stop-color="#2c2c2c"
         stop-opacity="0.5"
         id="stop41904" />
      <stop
         offset="0.68"
         stop-color="#2c2c2c"
         stop-opacity="0.1"
         id="stop41906" />
      <stop
         offset="0.93"
         stop-color="#2c2c2c"
         stop-opacity="0"
         id="stop41908" />
    </radialGradient>
    <linearGradient
       id="linear-gradient"
       x1="17.8"
       y1="13.24"
       x2="20.78"
       y2="6.34"
       gradientTransform="translate(12.34 -6.26) rotate(26.66)"
       gradientUnits="userSpaceOnUse">
      <stop
         offset="0"
         stop-color="#2e3436"
         id="stop41911" />
      <stop
         offset="1"
         stop-color="#d3d7cf"
         stop-opacity="0"
         id="stop41913" />
    </linearGradient>
    <linearGradient
       id="linear-gradient-2"
       x1="23.01"
       y1="6.57"
       x2="20.58"
       y2="18.97"
       xlink:href="#linear-gradient"
       gradientTransform="translate(0.19123506,2.3585657)" />
    <linearGradient
       id="linear-gradient-3"
       x1="15.47"
       y1="20.69"
       x2="15.36"
       y2="21.25"
       xlink:href="#linear-gradient"
       gradientTransform="translate(0.19123506,2.3585657)" />
    <linearGradient
       id="linear-gradient-4"
       x1="30.98"
       y1="8.87"
       x2="32.47"
       y2="5.12"
       xlink:href="#linear-gradient"
       gradientTransform="translate(0.19123506,2.3585657)" />
    <linearGradient
       id="linear-gradient-5"
       x1="31.67"
       y1="9.47"
       x2="33.67"
       y2="2.78"
       gradientTransform="translate(12.34 -6.26) rotate(26.66)"
       gradientUnits="userSpaceOnUse">
      <stop
         offset="0.05"
         stop-color="#fff"
         stop-opacity="0"
         id="stop41919" />
      <stop
         offset="0.69"
         stop-color="snow"
         id="stop41921" />
    </linearGradient>
    <linearGradient
       id="linear-gradient-6"
       x1="31.62"
       y1="2.39"
       x2="31.72"
       y2="5.89"
       xlink:href="#linear-gradient"
       gradientTransform="translate(0.19123506,2.3585657)" />
    <linearGradient
       id="linear-gradient-7"
       x1="22.84"
       y1="15.02"
       x2="18.12"
       y2="-2.36"
       xlink:href="#linear-gradient-5"
       gradientTransform="translate(0.19123506,2.3585657)" />
    <linearGradient
       id="linear-gradient-8"
       x1="36.13"
       y1="17.68"
       x2="29.47"
       y2="13.49"
       xlink:href="#linear-gradient"
       gradientTransform="translate(0.19123506,2.3585657)" />
    <linearGradient
       id="linear-gradient-9"
       x1="32.42"
       y1="15.36"
       x2="34.46"
       y2="9.1"
       xlink:href="#linear-gradient-5"
       gradientTransform="translate(0.19123506,2.3585657)" />
    <linearGradient
       id="linear-gradient-10"
       x1="27.53"
       y1="33.11"
       x2="30.67"
       y2="15.97"
       xlink:href="#linear-gradient-5"
       gradientTransform="translate(0.19123506,2.3585657)" />
    <linearGradient
       id="linear-gradient-11"
       x1="28.59"
       y1="28.44"
       x2="30.59"
       y2="39.17"
       gradientTransform="translate(42.37 -4.06) rotate(68.33)"
       gradientUnits="userSpaceOnUse">
      <stop
         offset="0"
         stop-color="#f57900"
         id="stop41929" />
      <stop
         offset="1"
         stop-color="#ce5c00"
         id="stop41931" />
    </linearGradient>
    <linearGradient
       id="linear-gradient-12"
       x1="29.4"
       y1="43.34"
       x2="26.81"
       y2="38.04"
       xlink:href="#linear-gradient-11"
       gradientTransform="translate(0.19123506,2.3585657)" />
    <linearGradient
       id="linear-gradient-13"
       x1="30.79"
       y1="21.03"
       x2="28.66"
       y2="22.94"
       xlink:href="#linear-gradient-5"
       gradientTransform="translate(0.19123506,2.3585657)" />
    <linearGradient
       id="linear-gradient-14"
       x1="36.93"
       y1="14.63"
       x2="29.09"
       y2="22.25"
       xlink:href="#linear-gradient"
       gradientTransform="translate(0.19123506,2.3585657)" />
    <linearGradient
       id="linear-gradient-15"
       x1="29.86"
       y1="34.78"
       x2="26.2"
       y2="16.76"
       xlink:href="#linear-gradient-5"
       gradientTransform="translate(0.19123506,2.3585657)" />
    <linearGradient
       id="linear-gradient-16"
       x1="25.31"
       y1="40.33"
       x2="24.05"
       y2="30.1"
       xlink:href="#linear-gradient"
       gradientTransform="translate(0.19123506,2.3585657)" />
    <linearGradient
       id="linear-gradient-17"
       x1="17.09"
       y1="18.88"
       x2="14.11"
       y2="24.8"
       xlink:href="#linear-gradient"
       gradientTransform="translate(0.19123506,2.3585657)" />
    <linearGradient
       id="linear-gradient-18"
       x1="14.19"
       y1="26.47"
       x2="14.01"
       y2="25.11"
       xlink:href="#linear-gradient-5"
       gradientTransform="translate(0.19123506,2.3585657)" />
    <linearGradient
       id="linear-gradient-19"
       x1="14.71"
       y1="27.87"
       x2="14.11"
       y2="25.23"
       xlink:href="#linear-gradient" />
    <linearGradient
       id="linear-gradient-20"
       x1="15.33"
       y1="21.02"
       x2="15.09"
       y2="21.69"
       xlink:href="#linear-gradient"
       gradientTransform="translate(0.19123506,2.3585657)" />
    <linearGradient
       id="linear-gradient-21"
       x1="15.62"
       y1="31.59"
       x2="12.51"
       y2="21.4"
       xlink:href="#linear-gradient-5"
       gradientTransform="translate(0.19123506,2.3585657)" />
    <linearGradient
       id="linear-gradient-22"
       x1="19.29"
       y1="26.01"
       x2="15.16"
       y2="38.29"
       gradientTransform="rotate(102.67,-1.0822985,8.3373103)"
       xlink:href="#linear-gradient-11" />
    <linearGradient
       id="linear-gradient-23"
       x1="17.33"
       y1="28.21"
       x2="13.25"
       y2="30.32"
       xlink:href="#linear-gradient-11"
       gradientTransform="translate(0.19123506,2.3585657)" />
    <linearGradient
       inkscape:collect="always"
       xlink:href="#linear-gradient"
       id="linearGradient42139"
       gradientUnits="userSpaceOnUse"
       gradientTransform="rotate(26.66,14.498475,24.492858)"
       x1="17.8"
       y1="13.24"
       x2="20.78"
       y2="6.34" />
    <linearGradient
       inkscape:collect="always"
       xlink:href="#linear-gradient-5"
       id="linearGradient42141"
       gradientUnits="userSpaceOnUse"
       gradientTransform="rotate(26.66,14.498475,24.492858)"
       x1="31.67"
       y1="9.47"
       x2="33.67"
       y2="2.78" />
    <linearGradient
       inkscape:collect="always"
       xlink:href="#linear-gradient-11"
       id="linearGradient42143"
       gradientUnits="userSpaceOnUse"
       gradientTransform="rotate(68.33,1.9783268,11.523683)"
       x1="28.59"
       y1="28.44"
       x2="30.59"
       y2="39.17" />
  </defs>
  <title
     id="title41948">14-Headphones</title>
  <g
     id="shadow"
     transform="translate(0.19123506,2.3585657)"
     style="isolation:isolate">
    <ellipse
       class="cls-2"
       cx="24"
       cy="36.970001"
       rx="22.85"
       ry="8.6300001"
       id="ellipse41950"
       style="fill:url(#radial-gradient)" />
  </g>
  <g
     id="g42361"
     transform="matrix(1.3940521,0,0,1.3937977,-8.9920076,-14.561046)"
     style="stroke-width:0.717399">
    <path
       class="cls-3"
       d="m 39.541235,13.798566 -0.09,-0.18 -0.06,-0.09 c -0.24,-0.37 -0.44,-0.49 -0.57,-0.51 -0.26,-0.22 -0.52,-0.27 -0.51,0.09 a 12,12 0 0 1 -0.29,2.37 4.5,4.5 0 0 0 -0.64,-1.21 c -0.27,-0.37 -0.72,-0.9 -1,-1.35 v 0 l -0.07,-0.11 a 3.2,3.2 0 0 0 -1.73,-1.3 9.45,9.45 0 0 0 -6.12,0.45 0.84,0.84 0 0 0 -0.21,-0.54 0.77,0.77 0 0 0 -0.89,-0.3 35.12,35.12 0 0 0 -8,6.49 h -0.21 c 0,0 -2.71,2.75 -3.26,3.41 v 0 l 1.3,1.49 a 0.86,0.86 0 0 0 0.75,0 22.19,22.19 0 0 1 4.64,-4.73 c 3.29,-2.63 6.78,-4.3 9.27,-4.58 2.27,-0.26 3.61,0.15 4.36,0.7 v 0 a 6.57,6.57 0 0 1 0.07,2.7 15,15 0 0 1 -1.09,3.44 v 0 l -0.09,0.19 v 0.05 a 1,1 0 0 1 -0.07,0.15 l -0.07,0.16 v 0.05 l -0.13,0.27 v 0 c -0.15,0.3 -0.32,0.6 -0.49,0.9 a 24.45,24.45 0 0 1 -2.76,3.61 c 0,0 1.27,1.49 1.51,1.72 a 2.85,2.85 0 0 0 0.74,0.47 0.3,0.3 0 0 0 0.3,-0.05 l 0.1,-0.1 v 0 a 0.7,0.7 0 0 0 0.09,-0.17 0.5,0.5 0 0 0 0,-0.16 47.36,47.36 0 0 0 2.63,-3.94 0.33,0.33 0 0 0 0,-0.37 l -0.17,-0.24 a 27.63,27.63 0 0 0 2.12,-4.76 10,10 0 0 0 0.52,-3.11 0.15,0.15 0 0 0 0.13,0 c 0.16,-0.18 0.24,-0.42 -0.01,-0.91 z"
       id="path41953"
       style="isolation:isolate" />
    <path
       class="cls-4"
       d="m 33.411235,27.188566 -1,-1.17 a 0.11,0.11 0 0 0 -0.16,0 c -0.4,0.38 -2.22,2.07 -4.49,4 l -0.15,-0.18 c 0,0 -3.26,2.83 -5.42,4.61 -1.44,1.18 -1.11,3.51 0.28,4.74 a 3.36,3.36 0 0 0 4.72,-0.28 2.82,2.82 0 0 0 0.8,-2.75 c -0.11,-0.54 -0.31,-1.21 -0.43,-2 -0.12,-0.79 0.06,-1 0.29,-1.25 0.23,-0.25 1.34,-1.11 1.34,-1.11 v -0.27 l -0.1,-0.12 c 0,0 2.1,-1.8 4.31,-4.05 a 0.12,0.12 0 0 0 0.01,-0.17 z"
       id="path41955"
       style="isolation:isolate" />
    <path
       class="cls-4"
       d="m 16.391235,21.358566 a 0.09,0.09 0 0 0 -0.14,0 13.55,13.55 0 0 0 -1.47,1.62 c -0.5,0.66 -1,1.56 -1.27,1.94 h -0.4 c 0,0 -1.37,2.44 -1.41,2.44 l 1.73,0.8 1.07,-1.89 -0.23,-0.39 c 0.12,-0.22 0.29,-0.54 0.43,-0.76 a 4,4 0 0 0 0.64,-0.53 21.76,21.76 0 0 1 1.85,-2.23 0.1,0.1 0 0 0 0,-0.14 z"
       id="path41957"
       style="isolation:isolate" />
    <path
       class="cls-5"
       d="m 29.191235,34.628566 h 0.08 v -0.32 l -0.52,-1.06 a 4.47,4.47 0 0 0 -1.14,-1.51 5.24,5.24 0 0 0 -8.07,6.16 l 0.56,1.15 a 4.67,4.67 0 0 1 0.59,0.39 5.14,5.14 0 0 0 7.15,-0.62 5.25,5.25 0 0 0 1.35,-4.19 z"
       id="path41959"
       style="isolation:isolate" />
    <path
       class="cls-5"
       d="m 29.191235,34.628566 h 0.08 v -0.32 l -0.52,-1.06 a 4.47,4.47 0 0 0 -1.14,-1.51 5.24,5.24 0 0 0 -8.07,6.16 l 0.56,1.15 a 4.67,4.67 0 0 1 0.59,0.39 5.14,5.14 0 0 0 7.15,-0.62 5.25,5.25 0 0 0 1.35,-4.19 z"
       id="path41961"
       style="isolation:isolate" />
    <path
       id="ellipse41963"
       style="isolation:isolate;fill:#f57900;stroke:#ce5c00;stroke-width:1.00435px;stroke-miterlimit:10"
       class="cls-5"
       transform="rotate(-41.67)"
       d="m -0.75293255,43.779934 a 5.1799998,4.9000001 0 0 1 -5.17999985,4.9 5.1799998,4.9000001 0 0 1 -5.1799996,-4.9 5.1799998,4.9000001 0 0 1 5.1799996,-4.9 5.1799998,4.9000001 0 0 1 5.17999985,4.9 z" />
    <path
       class="cls-6"
       d="m 19.191235,17.828566 a 35.8,35.8 0 0 1 8.18,-6.69 0.77,0.77 0 0 1 0.89,0.3 0.84,0.84 0 0 1 0.17,0.81 l -8.63,6.11 z"
       id="path41965"
       style="isolation:isolate;stroke-width:0.717399" />
    <path
       class="cls-7"
       d="m 19.191235,17.828566 a 35.8,35.8 0 0 1 8.18,-6.69 0.77,0.77 0 0 1 0.89,0.3 0.84,0.84 0 0 1 0.17,0.81 l -8.63,6.11 z"
       id="path41967"
       style="isolation:isolate;fill:url(#linearGradient42139);stroke-width:0.717399" />
    <path
       class="cls-8"
       d="m 15.881235,21.018566 c 0,0 1.17,1.34 1.31,1.48 a 0.86,0.86 0 0 0 0.75,0 21.82,21.82 0 0 1 4.64,-4.74 c 3.29,-2.62 6.78,-4.31 9.28,-4.58 2.5,-0.27 3.87,0.24 4.56,0.87 a 2.78,2.78 0 0 0 -1.82,-2.56 c -1.78,-0.53 -3.82,-0.48 -7,0.79 a 25.93,25.93 0 0 0 -8,5.34 l -0.41,-0.02 c 0,0 -2.76,2.76 -3.31,3.42 z"
       id="path41969"
       style="isolation:isolate;stroke-width:0.717399" />
    <path
       class="cls-9"
       d="m 36.321235,14.038566 c -0.71,-0.61 -2.08,-1.1 -4.5,-0.82 -2.42,0.28 -6,2 -9.27,4.58 a 22.19,22.19 0 0 0 -4.64,4.73 0.86,0.86 0 0 1 -0.75,0 l -1.28,-1.49 a 0.9,0.9 0 0 1 0.86,0.09 33.63,33.63 0 0 1 7.06,-6.33 c 4.5,-3.04 8.21,-3.44 10.39,-2.87 a 3.07,3.07 0 0 1 2.13,2.11 z"
       id="path41971"
       style="isolation:isolate;stroke-width:0.717399" />
    <path
       class="cls-10"
       d="m 36.321235,14.038566 c -0.71,-0.61 -2.08,-1.1 -4.5,-0.82 -2.42,0.28 -6,2 -9.27,4.58 a 22.19,22.19 0 0 0 -4.64,4.73 0.86,0.86 0 0 1 -0.75,0 l -1.28,-1.49 a 0.9,0.9 0 0 1 0.86,0.09 33.63,33.63 0 0 1 7.06,-6.33 c 4.5,-3.04 8.21,-3.44 10.39,-2.87 a 3.07,3.07 0 0 1 2.13,2.11 z"
       id="path41973"
       style="isolation:isolate;fill:url(#linear-gradient-2);stroke-width:0.717399" />
    <path
       class="cls-11"
       d="m 17.891235,22.548566 a 0.12,0.12 0 0 1 -0.09,-0.05 l -1.06,-1.39 v 0 a 0.92,0.92 0 0 0 -0.85,-0.08 l 1.3,1.48 a 0.92,0.92 0 0 0 0.7,0.04 z"
       id="path41975"
       style="isolation:isolate;fill:url(#linear-gradient-3);stroke-width:0.717399" />
    <path
       class="cls-12"
       d="m 36.361235,12.918566 c 0.3,0.45 0.75,1 1,1.35 a 4.63,4.63 0 0 1 0.83,3.57 19.19,19.19 0 0 1 -1.57,4.64 l -1.63,-1.26 a 16.28,16.28 0 0 0 1.61,-4.17 7.68,7.68 0 0 0 -0.24,-4.13 z"
       id="path41977"
       style="isolation:isolate;stroke-width:0.717399" />
    <path
       class="cls-13"
       d="m 36.361235,12.918566 c 0.3,0.45 0.75,1 1,1.35 a 4.63,4.63 0 0 1 0.83,3.57 19.19,19.19 0 0 1 -1.57,4.64 l -1.63,-1.26 a 16.28,16.28 0 0 0 1.61,-4.17 7.68,7.68 0 0 0 -0.24,-4.13 z"
       id="path41979"
       style="isolation:isolate;fill:url(#linear-gradient-4);stroke-width:0.717399" />
    <path
       class="cls-6"
       d="m 35.711235,21.088566 c 0,0 1.12,-2.12 1.76,-3.72 a 13.37,13.37 0 0 0 0.84,-4.26 c 0,-0.55 0.61,-0.15 0.9,0.41 0.29,0.56 0.38,2.06 -0.3,4.26 a 27.51,27.51 0 0 1 -2.13,4.77"
       id="path41981"
       style="isolation:isolate;stroke-width:0.717399" />
    <path
       class="cls-14"
       d="m 35.711235,21.088566 c 0,0 1.12,-2.12 1.76,-3.72 a 13.37,13.37 0 0 0 0.84,-4.26 c 0,-0.55 0.61,-0.15 0.9,0.41 0.29,0.56 0.38,2.06 -0.3,4.26 a 27.51,27.51 0 0 1 -2.13,4.77"
       id="path41983"
       style="isolation:isolate;fill:url(#linearGradient42141);stroke-width:0.717399" />
    <path
       class="cls-15"
       d="m 39.431235,14.938566 a 3.52,3.52 0 0 0 -0.16,-1.28 c -0.37,-0.55 -0.63,-0.53 -0.74,-0.48 -0.11,0.05 -0.27,0.41 0.14,1 0.28,0.5 0.57,0.8 0.76,0.76 z"
       id="path41985"
       style="isolation:isolate;fill:url(#linear-gradient-6);stroke-width:0.717399" />
    <path
       class="cls-16"
       d="m 38.801235,14.018566 c -0.38,-0.6 -0.25,-0.93 -0.14,-1 0.11,-0.07 0.39,-0.06 0.77,0.56 0.38,0.62 0.3,0.92 0.13,1 -0.17,0.08 -0.47,-0.1 -0.76,-0.56 z"
       id="path41987"
       style="isolation:isolate;stroke-width:0.717399" />
    <path
       class="cls-17"
       d="m 39.011235,13.908566 c -0.27,-0.42 -0.18,-0.64 -0.1,-0.68 0.08,-0.04 0.27,0 0.54,0.39 0.27,0.39 0.2,0.64 0.09,0.73 -0.11,0.09 -0.35,-0.12 -0.53,-0.44 z"
       id="path41989"
       style="isolation:isolate;stroke-width:0.717399" />
    <path
       class="cls-12"
       d="m 35.411235,21.068566 c 0,0 -0.52,-0.12 -0.62,-0.16 a 15.3,15.3 0 0 0 1.46,-4.28 6.57,6.57 0 0 0 -0.07,-2.7 2.74,2.74 0 0 0 -1.38,-1.75 3.09,3.09 0 0 0 -0.61,-0.25 c -2.18,-0.57 -5.89,-0.17 -10.39,2.85 a 33.33,33.33 0 0 0 -7.06,6.33 1.07,1.07 0 0 0 -0.85,-0.09 c 0.55,-0.66 3.3,-3.41 3.3,-3.41 h 0.47 a 26.32,26.32 0 0 1 8,-5.34 c 3.15,-1.26 5.2,-1.31 7,-0.78 a 3.2,3.2 0 0 1 1.73,1.3 4.07,4.07 0 0 1 0.65,1.87 10,10 0 0 1 -0.65,4.28 13.68,13.68 0 0 1 -0.98,2.13 z"
       id="path41991"
       style="isolation:isolate;stroke-width:0.717399" />
    <path
       class="cls-12"
       d="m 35.411235,21.068566 c 0,0 -0.52,-0.12 -0.62,-0.16 a 15.3,15.3 0 0 0 1.46,-4.28 6.57,6.57 0 0 0 -0.07,-2.7 2.74,2.74 0 0 0 -1.38,-1.75 3.09,3.09 0 0 0 -0.61,-0.25 c -2.18,-0.57 -5.89,-0.17 -10.39,2.85 a 33.33,33.33 0 0 0 -7.06,6.33 1.07,1.07 0 0 0 -0.85,-0.09 c 0.55,-0.66 3.3,-3.41 3.3,-3.41 h 0.47 a 26.32,26.32 0 0 1 8,-5.34 c 3.15,-1.26 5.2,-1.31 7,-0.78 a 3.2,3.2 0 0 1 1.73,1.3 4.07,4.07 0 0 1 0.65,1.87 10,10 0 0 1 -0.65,4.28 13.68,13.68 0 0 1 -0.98,2.13 z"
       id="path41993"
       style="isolation:isolate;stroke-width:0.717399" />
    <path
       class="cls-18"
       d="m 35.411235,21.068566 c 0,0 -0.52,-0.12 -0.62,-0.16 a 15.3,15.3 0 0 0 1.46,-4.28 6.57,6.57 0 0 0 -0.07,-2.7 2.74,2.74 0 0 0 -1.38,-1.75 3.09,3.09 0 0 0 -0.61,-0.25 c -2.18,-0.57 -5.89,-0.17 -10.39,2.85 a 33.33,33.33 0 0 0 -7.06,6.33 v 0 a 1.07,1.07 0 0 0 -0.83,-0.08 c 0.53,-0.67 3.28,-3.42 3.28,-3.42 h 0.47 a 26.32,26.32 0 0 1 8,-5.34 c 3.15,-1.26 5.2,-1.31 7,-0.78 a 3.2,3.2 0 0 1 1.73,1.3 4.07,4.07 0 0 1 0.65,1.87 10,10 0 0 1 -0.65,4.28 13.68,13.68 0 0 1 -0.98,2.13 z"
       id="path41995"
       style="isolation:isolate;fill:url(#linear-gradient-7);stroke-width:0.717399" />
    <path
       class="cls-12"
       d="m 35.191235,20.038566 a 18.44,18.44 0 0 1 -0.9,1.77 24.45,24.45 0 0 1 -2.76,3.61 c 0,0 1.27,1.49 1.51,1.72 a 2.85,2.85 0 0 0 0.74,0.47 0.3,0.3 0 0 0 0.3,-0.05 l 0.1,-0.1 v 0 a 0.7,0.7 0 0 0 0.09,-0.17 0.5,0.5 0 0 0 0,-0.16 47.36,47.36 0 0 0 2.63,-3.94 0.33,0.33 0 0 0 0,-0.37 c -0.32,-0.45 -1.15,-1.61 -1.24,-1.7 a 2.06,2.06 0 0 0 -0.54,-0.26"
       id="path41997"
       style="isolation:isolate;stroke-width:0.717399" />
    <path
       class="cls-19"
       d="m 34.191235,27.418566 a 0.7,0.7 0 0 0 0.09,-0.17 0.5,0.5 0 0 0 0,-0.16 c 0,0 1.33,-1.76 2.55,-3.8 a 0.53,0.53 0 0 0 -0.06,-0.32 13.82,13.82 0 0 0 -1.17,-1.48 0.85,0.85 0 0 0 -0.36,-0.19 23.48,23.48 0 0 1 -1.93,2.77 14.45,14.45 0 0 1 -1.12,1.29 l 1.58,2.22 v 0 a 0.3,0.3 0 0 0 0.3,-0.05 l 0.1,-0.1 z"
       id="path41999"
       style="isolation:isolate;fill:url(#linear-gradient-8);stroke-width:0.717399" />
    <path
       class="cls-20"
       d="m 34.091235,27.548566 a 0.24,0.24 0 0 1 -0.11,0.06 0.26,0.26 0 0 1 -0.21,0 l -0.18,-0.09 a 3.12,3.12 0 0 1 -0.43,-0.27 l -0.11,-0.09 c -0.24,-0.24 -1.52,-1.73 -1.5,-1.75 a 0.84,0.84 0 0 1 0.44,-0.13 c 0.25,0 0.39,0.12 0.68,0.42 0.29,0.3 1.24,1.34 1.39,1.57 a 0.6,0.6 0 0 1 0.08,0.16 0.17,0.17 0 0 1 -0.05,0.12 z"
       id="path42001"
       style="isolation:isolate;stroke-width:0.717399" />
    <path
       class="cls-20"
       d="m 35.711235,21.898566 a 10.61,10.61 0 0 1 0.92,1.17 0.31,0.31 0 0 1 0,0.37 c -0.15,0.22 -1.29,2.07 -1.87,2.75 a 0.15,0.15 0 0 1 -0.27,0 c -0.16,-0.17 -0.83,-1.06 -0.91,-1.17 -0.08,-0.11 -0.05,-0.15 0.08,-0.31 a 22.58,22.58 0 0 0 1.72,-2.32 c 0.19,-0.4 0.24,-0.6 0.33,-0.49 z"
       id="path42003"
       style="isolation:isolate;stroke-width:0.717399" />
    <path
       class="cls-8"
       d="m 36.241235,23.358566 a 17.44,17.44 0 0 1 -1.93,2.68 v 0 c -0.26,-0.32 -0.7,-0.91 -0.77,-1 -0.07,-0.09 -0.05,-0.16 0.08,-0.33 a 20.46,20.46 0 0 0 1.72,-2.32 c 0.06,-0.12 0.12,-0.22 0.16,-0.31 0.04,-0.09 0.64,0.77 0.78,1 0.14,0.23 0.05,0.17 -0.04,0.28 z"
       id="path42005"
       style="isolation:isolate;stroke-width:0.717399" />
    <path
       class="cls-6"
       d="m 36.241235,23.358566 a 17.44,17.44 0 0 1 -1.93,2.68 v 0 c -0.26,-0.32 -0.7,-0.91 -0.77,-1 -0.07,-0.09 -0.05,-0.16 0.08,-0.33 a 20.46,20.46 0 0 0 1.72,-2.32 c 0.06,-0.12 0.12,-0.22 0.16,-0.31 0.04,-0.09 0.64,0.77 0.78,1 0.14,0.23 0.05,0.17 -0.04,0.28 z"
       id="path42007"
       style="isolation:isolate;stroke-width:0.717399" />
    <path
       class="cls-21"
       d="m 36.241235,23.358566 a 17.44,17.44 0 0 1 -1.93,2.68 v 0 c -0.26,-0.32 -0.7,-0.91 -0.77,-1 -0.07,-0.09 -0.05,-0.16 0.08,-0.33 a 20.46,20.46 0 0 0 1.72,-2.32 c 0.06,-0.12 0.12,-0.22 0.16,-0.31 0.04,-0.09 0.64,0.77 0.78,1 0.14,0.23 0.05,0.17 -0.04,0.28 z"
       id="path42009"
       style="isolation:isolate;fill:url(#linear-gradient-9);stroke-width:0.717399" />
    <path
       class="cls-22"
       d="m 29.191235,34.628566 h 0.08 v -0.32 l -0.52,-1.06 a 4.47,4.47 0 0 0 -1.14,-1.51 5.24,5.24 0 0 0 -8.07,6.16 l 0.56,1.15 a 4.67,4.67 0 0 1 0.59,0.39 5.14,5.14 0 0 0 7.15,-0.62 5.25,5.25 0 0 0 1.35,-4.19 z"
       id="path42011"
       style="isolation:isolate;stroke-width:0.717399" />
    <path
       class="cls-23"
       d="m 29.191235,34.628566 h 0.08 v -0.32 l -0.52,-1.06 a 4.47,4.47 0 0 0 -1.14,-1.51 5.24,5.24 0 0 0 -8.07,6.16 l 0.56,1.15 a 4.67,4.67 0 0 1 0.59,0.39 5.14,5.14 0 0 0 7.15,-0.62 5.25,5.25 0 0 0 1.35,-4.19 z"
       id="path42013"
       style="isolation:isolate;fill:url(#linear-gradient-10);stroke-width:0.717399" />
    <path
       id="ellipse42015"
       style="isolation:isolate;fill:url(#linearGradient42143);stroke-width:0.717399"
       class="cls-24"
       transform="rotate(-41.67)"
       d="m -0.75293255,43.779934 a 5.1799998,4.9000001 0 0 1 -5.17999985,4.9 5.1799998,4.9000001 0 0 1 -5.1799996,-4.9 5.1799998,4.9000001 0 0 1 5.1799996,-4.9 5.1799998,4.9000001 0 0 1 5.17999985,4.9 z" />
    <path
       class="cls-25"
       d="m 28.691235,36.748566 c -0.13,-0.6 -0.36,-1.37 -0.51,-2.28 a 1.45,1.45 0 0 1 0.27,-1.36 c -0.1,-0.11 -0.21,-0.21 -0.32,-0.31 a 4.8,4.8 0 0 0 -2.39,-1.12 c -1.22,1 -2.67,2.21 -3.83,3.14 -1.67,1.34 -1.28,4 0.33,5.36 a 4,4 0 0 0 5.51,-0.32 3.18,3.18 0 0 0 0.94,-3.11 z"
       id="path42017"
       style="isolation:isolate;fill:url(#linear-gradient-12);stroke-width:0.717399" />
    <path
       class="cls-6"
       d="m 29.021235,31.408566 c 0,0 2.17,-1.8 4.38,-4.05 a 0.12,0.12 0 0 0 0,-0.15 l -1,-1.17 a 0.11,0.11 0 0 0 -0.16,0 c -0.4,0.38 -2.22,2.07 -4.49,4 z"
       id="path42019"
       style="isolation:isolate;stroke-width:0.717399" />
    <path
       class="cls-26"
       d="m 29.021235,31.408566 c 0,0 2.17,-1.8 4.38,-4.05 a 0.12,0.12 0 0 0 0,-0.15 l -1,-1.17 a 0.11,0.11 0 0 0 -0.16,0 c -0.4,0.38 -2.22,2.07 -4.49,4 z"
       id="path42021"
       style="isolation:isolate;fill:url(#linear-gradient-13);stroke-width:0.717399" />
    <path
       class="cls-27"
       d="m 33.401235,27.358566 c -1.21,1.2 -2.39,2.3 -3.21,3 a 5.72,5.72 0 0 0 -1.13,-1.47 c 1.66,-1.46 2.92,-2.63 3.24,-2.93 a 0.12,0.12 0 0 1 0.16,0 l 1,1.18 a 0.11401754,0.11401754 0 0 1 -0.06,0.22 z"
       id="path42023"
       style="isolation:isolate;fill:url(#linear-gradient-14);stroke-width:0.717399" />
    <path
       class="cls-28"
       d="m 28.011235,36.158566 a 2.82,2.82 0 0 1 -0.8,2.75 3.36,3.36 0 0 1 -4.74,0.28 c -1.39,-1.23 -1.72,-3.56 -0.28,-4.74 2.16,-1.78 5.45,-4.62 5.45,-4.62 l 1.48,1.7 v 0.27 c 0,0 -1.05,0.88 -1.27,1.09 -0.22,0.21 -0.4,0.52 -0.29,1.25 0.11,0.73 0.34,1.48 0.45,2.02 z"
       id="path42025"
       style="isolation:isolate" />
    <path
       class="cls-6"
       d="m 28.011235,36.158566 a 2.82,2.82 0 0 1 -0.8,2.75 3.36,3.36 0 0 1 -4.74,0.28 c -1.39,-1.23 -1.72,-3.56 -0.28,-4.74 2.16,-1.78 5.45,-4.62 5.45,-4.62 l 1.48,1.7 v 0.27 c 0,0 -1.05,0.88 -1.27,1.09 -0.22,0.21 -0.4,0.52 -0.29,1.25 0.11,0.73 0.34,1.48 0.45,2.02 z"
       id="path42027"
       style="isolation:isolate;stroke-width:0.717399" />
    <path
       class="cls-29"
       d="m 28.011235,36.158566 a 2.82,2.82 0 0 1 -0.8,2.75 3.36,3.36 0 0 1 -4.74,0.28 c -1.39,-1.23 -1.72,-3.56 -0.28,-4.74 2.16,-1.78 5.45,-4.62 5.45,-4.62 l 1.48,1.7 v 0.27 c 0,0 -1.05,0.88 -1.27,1.09 -0.22,0.21 -0.4,0.52 -0.29,1.25 0.11,0.73 0.34,1.48 0.45,2.02 z"
       id="path42029"
       style="isolation:isolate;fill:url(#linear-gradient-15);stroke-width:0.717399" />
    <path
       id="circle42031"
       style="isolation:isolate;fill:#ffffff;stroke-width:0.717399"
       class="cls-30"
       d="m 27.041235,37.028564 a 2.24,2.24 0 0 1 -2.24,2.24 2.24,2.24 0 0 1 -2.24,-2.24 2.24,2.24 0 0 1 2.24,-2.24 2.24,2.24 0 0 1 2.24,2.24 z" />
    <path
       id="circle42033"
       style="isolation:isolate;mix-blend-mode:multiply;fill:url(#linear-gradient-16);stroke-width:0.717399"
       class="cls-31"
       d="m 27.041235,37.028564 a 2.24,2.24 0 0 1 -2.24,2.24 2.24,2.24 0 0 1 -2.24,-2.24 2.24,2.24 0 0 1 2.24,-2.24 2.24,2.24 0 0 1 2.24,2.24 z" />
    <path
       id="circle42035"
       style="isolation:isolate;fill:#ffffff;stroke-width:0.717399"
       class="cls-30"
       d="m 26.891235,36.888565 a 2.0799999,2.0799999 0 0 1 -2.08,2.08 2.0799999,2.0799999 0 0 1 -2.079999,-2.08 2.0799999,2.0799999 0 0 1 2.079999,-2.08 2.0799999,2.0799999 0 0 1 2.08,2.08 z" />
    <path
       class="cls-17"
       d="m 14.191235,26.098566 c 0,0 0.33,-0.65 0.56,-1 a 4,4 0 0 0 0.64,-0.53 21.76,21.76 0 0 1 1.8,-2.21 0.1,0.1 0 0 0 0,-0.14 l -0.8,-0.86 a 0.09,0.09 0 0 0 -0.14,0 13.55,13.55 0 0 0 -1.47,1.62 24.11,24.11 0 0 0 -1.37,2.12 z"
       id="path42037"
       style="isolation:isolate;stroke-width:0.717399" />
    <path
       class="cls-32"
       d="m 14.191235,26.098566 c 0,0 0.33,-0.65 0.56,-1 a 4,4 0 0 0 0.64,-0.53 21.76,21.76 0 0 1 1.8,-2.21 0.1,0.1 0 0 0 0,-0.14 l -0.8,-0.86 a 0.09,0.09 0 0 0 -0.14,0 13.55,13.55 0 0 0 -1.47,1.62 24.11,24.11 0 0 0 -1.37,2.12 z"
       id="path42039"
       style="isolation:isolate;fill:url(#linear-gradient-17);stroke-width:0.717399" />
    <path
       class="cls-16"
       d="m 11.701235,27.358566 c 0,0 1.41,-2.43 1.41,-2.43 h 0.6 l 0.79,1.36 -1.07,1.89 z"
       id="path42041"
       style="isolation:isolate;stroke-width:0.717399" />
    <path
       class="cls-33"
       d="m 11.701235,27.358566 c 0,0 1.41,-2.43 1.41,-2.43 h 0.6 l 0.79,1.36 -1.07,1.89 z"
       id="path42043"
       style="isolation:isolate;fill:url(#linear-gradient-18);stroke-width:0.717399" />
    <path
       id="polygon42045"
       style="isolation:isolate;fill:#babdb6;stroke-width:0.717399"
       class="cls-17"
       transform="translate(0.19123506,2.3585657)"
       d="m 13.52,22.53 0.78,1.36 -1.06,1.9 -1.23,-0.58 z" />
    <path
       id="polygon42047"
       style="isolation:isolate;mix-blend-mode:multiply;fill:url(#linear-gradient-19);stroke-width:0.717399"
       class="cls-34"
       transform="translate(0.19123506,2.3585657)"
       d="m 13.52,22.53 0.78,1.36 -1.06,1.9 -1.23,-0.58 z" />
    <path
       class="cls-12"
       d="m 33.401235,27.358566 -0.09,0.1 c 0,0 0,-0.05 0,-0.11 0,-0.06 -0.88,-1 -1,-1.1 a 0.18,0.18 0 0 0 -0.18,-0.09 l 0.14,-0.13 a 0.12,0.12 0 0 1 0.16,0 l 1,1.18 a 0.1,0.1 0 0 1 -0.03,0.15 z"
       id="path42049"
       style="isolation:isolate;stroke-width:0.717399" />
    <path
       class="cls-12"
       d="m 33.401235,27.358566 -0.09,0.1 c 0,0 0,-0.05 0,-0.11 0,-0.06 -0.88,-1 -1,-1.1 a 0.18,0.18 0 0 0 -0.18,-0.09 l 0.14,-0.13 a 0.12,0.12 0 0 1 0.16,0 l 1,1.18 a 0.1,0.1 0 0 1 -0.03,0.15 z"
       id="path42051"
       style="isolation:isolate;stroke-width:0.717399" />
    <path
       class="cls-17"
       d="m 17.191235,22.358566 -0.09,0.08 c 0,-0.05 0,-0.08 0,-0.13 l -0.76,-0.88 c -0.08,-0.1 -0.15,0 -0.15,0 a 0.76,0.76 0 0 0 0.09,-0.09 c 0.07,-0.06 0.14,0 0.14,0 l 0.8,0.9 a 0.11,0.11 0 0 1 -0.03,0.12 z"
       id="path42053"
       style="isolation:isolate;stroke-width:0.717399" />
    <path
       class="cls-35"
       d="m 17.191235,22.358566 -0.09,0.08 c 0,-0.05 0,-0.08 0,-0.13 l -0.76,-0.88 c -0.08,-0.1 -0.15,0 -0.15,0 a 0.76,0.76 0 0 0 0.09,-0.09 c 0.07,-0.06 0.14,0 0.14,0 l 0.8,0.9 a 0.11,0.11 0 0 1 -0.03,0.12 z"
       id="path42055"
       style="isolation:isolate;fill:url(#linear-gradient-20);stroke-width:0.717399" />
    <path
       class="cls-36"
       d="m 15.871235,27.028566 h -0.11 l -2.33,-0.55 c -1.46,-0.35 -3.11,1.25 -3.6799999,3.57 -0.57,2.32 0.16,4.49 1.6199999,4.84 l 2.4,0.57 h 0.05 c 1.46,0.35 3.11,-1.25 3.68,-3.58 0.57,-2.33 -0.16,-4.52 -1.63,-4.85 z"
       id="path42057"
       style="isolation:isolate" />
    <path
       class="cls-22"
       d="m 15.881235,27.028566 -2.06,8.41 -2.45,-0.58 c -1.4599999,-0.35 -2.1799999,-2.5 -1.6199999,-4.84 0.5599999,-2.34 2.2199999,-3.92 3.6799999,-3.57 z"
       id="path42059"
       style="isolation:isolate;stroke-width:0.717399" />
    <path
       class="cls-37"
       d="m 15.881235,27.028566 -2.06,8.41 -2.45,-0.58 c -1.4599999,-0.35 -2.1799999,-2.5 -1.6199999,-4.84 0.5599999,-2.34 2.2199999,-3.92 3.6799999,-3.57 z"
       id="path42061"
       style="isolation:isolate;fill:url(#linear-gradient-21);stroke-width:0.717399" />
    <path
       id="ellipse42063"
       style="isolation:isolate;fill:url(#linear-gradient-22);stroke-width:0.717399"
       class="cls-38"
       transform="rotate(-76.02)"
       d="m -22.385393,21.951921 a 4.3299999,2.73 0 0 1 -4.33,2.73 4.3299999,2.73 0 0 1 -4.33,-2.73 4.3299999,2.73 0 0 1 4.33,-2.73 4.3299999,2.73 0 0 1 4.33,2.73 z" />
    <path
       class="cls-39"
       d="m 12.911235,33.758566 c 0.55,1.85 2.22,1.15 2.93,0.55 a 1.78,1.78 0 0 1 -2.11,-1 8.69,8.69 0 0 1 -0.41,-3.48 5.14,5.14 0 0 0 -0.41,3.93 z"
       id="path42065"
       style="isolation:isolate;fill:url(#linear-gradient-23);stroke-width:0.717399" />
    <path
       id="rect42067"
       style="isolation:isolate;fill:#d3d7cf;stroke-width:0.717399"
       class="cls-6"
       transform="rotate(-34.49)"
       d="m -1.1675442,43.153954 h 1.21999998 v 0.45 H -1.1675442 Z" />
    <path
       id="rect42069"
       style="isolation:isolate;fill:#d3d7cf;stroke-width:0.717399"
       class="cls-6"
       transform="rotate(-34.49)"
       d="m -1.1673687,44.053265 h 1.22000008 v 0.45 H -1.1673687 Z" />
    <path
       id="rect42071"
       style="isolation:isolate;fill:#d3d7cf;stroke-width:0.717399"
       class="cls-6"
       transform="rotate(-34.49)"
       d="m -1.1671926,44.952572 h 1.22000005 v 0.45 H -1.1671926 Z" />
    <path
       id="rect42073"
       style="isolation:isolate;fill:#d3d7cf;stroke-width:0.717399"
       class="cls-6"
       transform="rotate(-34.49)"
       d="m -1.167017,45.861877 h 1.22000005 v 0.45 H -1.167017 Z" />
  </g>
</svg>
