<?xml version="1.0" encoding="UTF-8" standalone="no"?>
<svg
   viewBox="0 0 48 48"
   version="1.1"
   id="svg116"
   sodipodi:docname="3-Land Slide.svg"
   inkscape:version="1.3.2 (091e20e, 2023-11-25, custom)"
   xmlns:inkscape="http://www.inkscape.org/namespaces/inkscape"
   xmlns:sodipodi="http://sodipodi.sourceforge.net/DTD/sodipodi-0.dtd"
   xmlns:xlink="http://www.w3.org/1999/xlink"
   xmlns="http://www.w3.org/2000/svg"
   xmlns:svg="http://www.w3.org/2000/svg">
  <sodipodi:namedview
     id="namedview116"
     pagecolor="#ffffff"
     bordercolor="#666666"
     borderopacity="1.0"
     inkscape:showpageshadow="2"
     inkscape:pageopacity="0.0"
     inkscape:pagecheckerboard="0"
     inkscape:deskcolor="#d1d1d1"
     inkscape:zoom="23.0208"
     inkscape:cx="23.9783"
     inkscape:cy="24"
     inkscape:current-layer="svg116" />
  <defs
     id="defs25">
    <radialGradient
       id="radial-gradient"
       cx="-136.62"
       cy="114.48"
       fx="-136.62"
       fy="114.48"
       r="16.49"
       gradientTransform="translate(222.24 -50.72) scale(1.45 .74)"
       gradientUnits="userSpaceOnUse">
      <stop
         offset=".55"
         stop-color="#1a1718"
         stop-opacity=".5"
         id="stop1" />
      <stop
         offset=".93"
         stop-color="#1a1718"
         stop-opacity="0"
         id="stop2" />
    </radialGradient>
    <linearGradient
       id="linear-gradient"
       x1="23.95"
       y1="30.75"
       x2="23.95"
       y2="30.71"
       gradientUnits="userSpaceOnUse">
      <stop
         offset=".11"
         stop-color="#f0ce99"
         id="stop3" />
      <stop
         offset="1"
         stop-color="#c17d11"
         id="stop4" />
    </linearGradient>
    <linearGradient
       id="linear-gradient-2"
       x1="16.87"
       y1="32.02"
       x2="3.15"
       y2="2.87"
       gradientTransform="matrix(1, 0, 0, 1, 0, 0)"
       gradientUnits="userSpaceOnUse">
      <stop
         offset="0"
         stop-color="#8f5902"
         id="stop5" />
      <stop
         offset="1"
         stop-color="#4f2e02"
         id="stop6" />
    </linearGradient>
    <linearGradient
       id="linear-gradient-3"
       x1="29.19"
       y1="26.45"
       x2="44.17"
       y2="23.51"
       gradientTransform="matrix(1, 0, 0, 1, 0, 0)"
       gradientUnits="userSpaceOnUse">
      <stop
         offset="0"
         stop-color="#8f5902"
         id="stop7" />
      <stop
         offset="1"
         stop-color="#e9b96e"
         id="stop8" />
    </linearGradient>
    <linearGradient
       id="linear-gradient-4"
       x1="14.2"
       y1="28.48"
       x2="8.47"
       y2="23.06"
       xlink:href="#linear-gradient-2" />
    <linearGradient
       id="linear-gradient-5"
       x1="12.91"
       y1="40.54"
       x2="15.72"
       y2="32.69"
       xlink:href="#linear-gradient-2" />
    <linearGradient
       id="linear-gradient-6"
       x1="33.85"
       y1="32.56"
       x2="39.33"
       y2="26.43"
       xlink:href="#linear-gradient-3" />
    <linearGradient
       id="linear-gradient-7"
       x1="10.87"
       y1="26.59"
       x2="27.29"
       y2="11.93"
       gradientTransform="matrix(1, 0, 0, 1, 0, 0)"
       gradientUnits="userSpaceOnUse">
      <stop
         offset="0"
         stop-color="#4e9a06"
         id="stop9" />
      <stop
         offset="1"
         stop-color="#8ae234"
         id="stop10" />
    </linearGradient>
    <linearGradient
       id="linear-gradient-8"
       x1="30.15"
       y1="20.89"
       x2="39.6"
       y2="11.74"
       gradientUnits="userSpaceOnUse">
      <stop
         offset="0"
         stop-color="#8f5902"
         id="stop11" />
      <stop
         offset=".68"
         stop-color="#cc9a4b"
         id="stop12" />
      <stop
         offset="1"
         stop-color="#e9b96e"
         id="stop13" />
    </linearGradient>
    <linearGradient
       id="linear-gradient-9"
       x1="33.86"
       y1="19.73"
       x2="32.97"
       y2="15.07"
       xlink:href="#linear-gradient-2" />
    <linearGradient
       id="linear-gradient-10"
       x1="20.35"
       y1="28.36"
       x2="14.78"
       y2="14.57"
       xlink:href="#linear-gradient-2" />
    <linearGradient
       id="linear-gradient-11"
       x1="8.28"
       y1="37.55"
       x2="11.2"
       y2="27.54"
       xlink:href="#linear-gradient-2" />
    <linearGradient
       id="linear-gradient-12"
       x1="37.9"
       y1="32.95"
       x2="7.63"
       y2="25"
       xlink:href="#linear-gradient-2" />
    <linearGradient
       id="linear-gradient-13"
       x1="15.09"
       y1="20.3"
       x2="40.14"
       y2="49.22"
       xlink:href="#linear-gradient-3" />
    <linearGradient
       id="linear-gradient-14"
       x1="38.88"
       y1="36.34"
       x2="37.63"
       y2="32.87"
       gradientTransform="matrix(1, 0, 0, 1, 0, 0)"
       gradientUnits="userSpaceOnUse">
      <stop
         offset=".12"
         stop-color="#fcaf3e"
         id="stop14" />
      <stop
         offset="1"
         stop-color="#fff7d4"
         stop-opacity="0"
         id="stop15" />
    </linearGradient>
    <linearGradient
       id="linear-gradient-15"
       x1="24.95"
       y1="39.22"
       x2="23.6"
       y2="32.15"
       gradientTransform="matrix(1, 0, 0, 1, 0, 0)"
       gradientUnits="userSpaceOnUse">
      <stop
         offset="0"
         stop-color="#8f5902"
         stop-opacity=".2"
         id="stop16" />
      <stop
         offset="1"
         stop-color="#4f2e02"
         id="stop17" />
    </linearGradient>
    <linearGradient
       id="linear-gradient-16"
       x1="25.27"
       y1="33.53"
       x2="15.55"
       y2="19.62"
       xlink:href="#linear-gradient-15" />
    <linearGradient
       id="linear-gradient-17"
       x1="19.65"
       y1="16.48"
       x2="19.11"
       y2="33.19"
       gradientTransform="translate(2.46 -2.16) rotate(6.66)"
       gradientUnits="userSpaceOnUse">
      <stop
         offset="0"
         stop-color="#9f6a16"
         id="stop18" />
      <stop
         offset="1"
         stop-color="#cb994a"
         id="stop19" />
    </linearGradient>
    <linearGradient
       id="linear-gradient-18"
       x1="17.76"
       y1="15.17"
       x2="16.79"
       y2="25.95"
       xlink:href="#linear-gradient-17" />
    <linearGradient
       id="linear-gradient-19"
       x1="21.28"
       y1="20.26"
       x2="22.35"
       y2="20.26"
       xlink:href="#linear-gradient-17" />
    <linearGradient
       id="linear-gradient-20"
       x1="23.2"
       y1="17.84"
       x2="23.89"
       y2="17.84"
       gradientTransform="rotate(2.72,23.0449,20.9469)"
       xlink:href="#linear-gradient-17" />
    <linearGradient
       id="linear-gradient-21"
       x1="24.82"
       y1="19.71"
       x2="26.7"
       y2="19.71"
       xlink:href="#linear-gradient-17" />
    <linearGradient
       id="linear-gradient-22"
       x1="26.87"
       y1="17.77"
       x2="28.6"
       y2="17.77"
       xlink:href="#linear-gradient-17" />
    <linearGradient
       id="linear-gradient-23"
       x1="28.58"
       y1="20.1"
       x2="32.36"
       y2="20.1"
       xlink:href="#linear-gradient-17" />
    <linearGradient
       id="linear-gradient-24"
       x1="29.49"
       y1="20.11"
       x2="31.74"
       y2="41.14"
       xlink:href="#linear-gradient-17" />
    <linearGradient
       id="linear-gradient-25"
       x1="31.22"
       y1="19.92"
       x2="33.47"
       y2="40.95"
       xlink:href="#linear-gradient-17" />
    <linearGradient
       id="linear-gradient-26"
       x1="29.71"
       y1="20.09"
       x2="31.96"
       y2="41.11"
       xlink:href="#linear-gradient-17" />
    <linearGradient
       id="linear-gradient-27"
       x1="26.56"
       y1="20.42"
       x2="28.81"
       y2="41.45"
       xlink:href="#linear-gradient-17" />
    <linearGradient
       id="linear-gradient-28"
       x1="27.1"
       y1="20.36"
       x2="29.35"
       y2="41.39"
       xlink:href="#linear-gradient-17" />
    <linearGradient
       id="linear-gradient-29"
       x1="28.26"
       y1="14.68"
       x2="30.51"
       y2="35.71"
       xlink:href="#linear-gradient-17" />
    <linearGradient
       id="linear-gradient-30"
       x1="23.56"
       y1="20.66"
       x2="25.81"
       y2="41.69"
       xlink:href="#linear-gradient-17" />
    <linearGradient
       id="linear-gradient-31"
       x1="25.12"
       y1="20.58"
       x2="27.37"
       y2="41.6"
       xlink:href="#linear-gradient-17" />
    <linearGradient
       id="linear-gradient-32"
       x1="30.64"
       y1="18.69"
       x2="32.9"
       y2="39.72"
       xlink:href="#linear-gradient-17" />
    <linearGradient
       id="linear-gradient-33"
       x1="15.28"
       y1="21.63"
       x2="17.53"
       y2="42.66"
       xlink:href="#linear-gradient-17" />
    <linearGradient
       id="linear-gradient-34"
       x1="13.71"
       y1="21.8"
       x2="15.96"
       y2="42.82"
       xlink:href="#linear-gradient-17" />
    <linearGradient
       id="linear-gradient-35"
       x1="23.06"
       y1="20.8"
       x2="25.31"
       y2="41.82"
       xlink:href="#linear-gradient-17" />
    <linearGradient
       id="linear-gradient-36"
       x1="16.84"
       y1="21.46"
       x2="19.09"
       y2="42.49"
       xlink:href="#linear-gradient-17" />
    <linearGradient
       id="linear-gradient-37"
       x1="14.75"
       y1="21.69"
       x2="17"
       y2="42.71"
       xlink:href="#linear-gradient-17" />
    <linearGradient
       id="linear-gradient-38"
       x1="17.34"
       y1="21.41"
       x2="19.59"
       y2="42.44"
       xlink:href="#linear-gradient-17" />
    <linearGradient
       id="linear-gradient-39"
       x1="19.38"
       y1="20.57"
       x2="21.63"
       y2="41.6"
       xlink:href="#linear-gradient-17" />
    <linearGradient
       id="linear-gradient-40"
       x1="21.4"
       y1="21.06"
       x2="23.63"
       y2="41.95"
       xlink:href="#linear-gradient-17" />
    <linearGradient
       id="linear-gradient-41"
       x1="19.65"
       y1="21.16"
       x2="21.9"
       y2="42.19"
       xlink:href="#linear-gradient-17" />
    <linearGradient
       id="linear-gradient-42"
       x1="31.38"
       y1="20.41"
       x2="33.64"
       y2="41.43"
       xlink:href="#linear-gradient-17" />
    <linearGradient
       id="linear-gradient-43"
       x1="26.11"
       y1="28.94"
       x2="25.08"
       y2="23.56"
       xlink:href="#linear-gradient-2" />
    <linearGradient
       id="linear-gradient-44"
       x1="22.87"
       y1="20.06"
       x2="26.03"
       y2="2.97"
       xlink:href="#linear-gradient-7" />
    <linearGradient
       id="linear-gradient-45"
       x1="26.56"
       y1="14"
       x2="30.83"
       y2="8.35"
       gradientUnits="userSpaceOnUse">
      <stop
         offset="0"
         stop-color="#73d216"
         id="stop20" />
      <stop
         offset="1"
         stop-color="#a9ff57"
         id="stop21" />
    </linearGradient>
    <linearGradient
       id="linear-gradient-46"
       x1="33.86"
       y1="35.63"
       x2="33.57"
       y2="29.74"
       xlink:href="#linear-gradient-15" />
    <linearGradient
       id="linear-gradient-47"
       x1="32.91"
       y1="30.75"
       x2="34.3"
       y2="33.32"
       xlink:href="#linear-gradient-7" />
    <linearGradient
       id="linear-gradient-48"
       x1="21.97"
       y1="30.99"
       x2="22.57"
       y2="24.55"
       xlink:href="#linear-gradient-15" />
    <linearGradient
       id="linear-gradient-49"
       x1="21.45"
       y1="28.25"
       x2="23.43"
       y2="28.25"
       xlink:href="#linear-gradient-7" />
    <linearGradient
       id="linear-gradient-50"
       x1="27.35"
       y1="35.85"
       x2="28.01"
       y2="26.34"
       xlink:href="#linear-gradient-15" />
    <linearGradient
       id="linear-gradient-51"
       x1="26.01"
       y1="28.46"
       x2="27.81"
       y2="32.62"
       xlink:href="#linear-gradient-7" />
    <linearGradient
       id="linear-gradient-52"
       x1="11.43"
       y1="33.79"
       x2="13.9"
       y2="38.51"
       xlink:href="#linear-gradient-7" />
    <linearGradient
       id="linear-gradient-53"
       x1="36.21"
       y1="35.65"
       x2="37.93"
       y2="35.65"
       gradientTransform="translate(-8.5 10.02) rotate(-14.5)"
       gradientUnits="userSpaceOnUse">
      <stop
         offset=".14"
         stop-color="#73d216"
         id="stop22" />
      <stop
         offset=".63"
         stop-color="#8ae234"
         id="stop23" />
    </linearGradient>
    <linearGradient
       id="linear-gradient-54"
       x1="32.29"
       y1="34.67"
       x2="32.19"
       y2="39.75"
       xlink:href="#linear-gradient-53" />
    <linearGradient
       id="linear-gradient-55"
       x1="13.26"
       y1="30.12"
       x2="15.06"
       y2="30.12"
       xlink:href="#linear-gradient-7" />
    <linearGradient
       id="linear-gradient-56"
       x1="20.18"
       y1="38.19"
       x2="17.9"
       y2="33.86"
       xlink:href="#linear-gradient-15" />
    <linearGradient
       id="linear-gradient-57"
       x1="18.23"
       y1="30.59"
       x2="19.26"
       y2="35.67"
       gradientTransform="matrix(1, 0, 0, 1, 0, 0)"
       gradientUnits="userSpaceOnUse">
      <stop
         offset=".14"
         stop-color="#4e9a06"
         id="stop24" />
      <stop
         offset=".93"
         stop-color="#8ae234"
         id="stop25" />
    </linearGradient>
    <linearGradient
       id="linear-gradient-58"
       x1="28.64"
       y1="38.13"
       x2="28.63"
       y2="34.16"
       xlink:href="#linear-gradient-15" />
    <linearGradient
       id="linear-gradient-59"
       x1="27.74"
       y1="36.21"
       x2="29.6"
       y2="36.21"
       xlink:href="#linear-gradient-7" />
    <linearGradient
       id="linear-gradient-60"
       x1="35.6"
       y1="39.35"
       x2="35.59"
       y2="36.95"
       xlink:href="#linear-gradient-15" />
    <linearGradient
       id="linear-gradient-61"
       x1="35.12"
       y1="38.1"
       x2="36.17"
       y2="38.1"
       xlink:href="#linear-gradient-53" />
    <linearGradient
       id="linear-gradient-62"
       x1="9.56"
       y1="34.96"
       x2="10.7"
       y2="34.96"
       xlink:href="#linear-gradient-7" />
    <linearGradient
       id="linear-gradient-63"
       x1="34.05"
       y1="31.49"
       x2="33.58"
       y2="28.67"
       xlink:href="#linear-gradient-15" />
    <linearGradient
       id="linear-gradient-64"
       x1="33.42"
       y1="30.61"
       x2="34.59"
       y2="30.61"
       xlink:href="#linear-gradient-7" />
    <linearGradient
       id="linear-gradient-65"
       x1="15.41"
       y1="40.72"
       x2="14.93"
       y2="37.9"
       gradientTransform="rotate(-12.87,14.4039,42.659)"
       xlink:href="#linear-gradient-15" />
    <linearGradient
       id="linear-gradient-66"
       x1="14.79"
       y1="39.86"
       x2="15.95"
       y2="39.86"
       gradientTransform="rotate(-12.87,14.4039,42.659)"
       xlink:href="#linear-gradient-7" />
    <linearGradient
       id="linear-gradient-67"
       x1="19.26"
       y1="35.43"
       x2="19.87"
       y2="40.31"
       xlink:href="#linear-gradient-53" />
    <linearGradient
       id="linear-gradient-68"
       x1="21.98"
       y1="39.03"
       x2="28.51"
       y2="39.03"
       gradientTransform="rotate(4.57,24.6462,42.0654)"
       xlink:href="#linear-gradient-53" />
    <linearGradient
       id="linear-gradient-69"
       x1="23.32"
       y1="32.31"
       x2="24.86"
       y2="36.78"
       xlink:href="#linear-gradient-57" />
    <linearGradient
       id="linear-gradient-70"
       x1="18.99"
       y1="38.17"
       x2="27.71"
       y2="46.44"
       xlink:href="#linear-gradient-3" />
    <linearGradient
       id="linear-gradient-71"
       x1="20.83"
       y1="40.78"
       x2="21.91"
       y2="43.19"
       xlink:href="#linear-gradient-53" />
    <linearGradient
       id="linear-gradient-72"
       x1="35.56"
       y1="27.99"
       x2="33.4"
       y2="26.31"
       xlink:href="#linear-gradient-14" />
    <radialGradient
       inkscape:collect="always"
       xlink:href="#radial-gradient"
       id="radialGradient116"
       gradientUnits="userSpaceOnUse"
       gradientTransform="matrix(1.45,0,0,0.74,222.24,-50.72)"
       cx="-136.62"
       cy="114.48"
       fx="-136.62"
       fy="114.48"
       r="16.49" />
    <radialGradient
       inkscape:collect="always"
       xlink:href="#radial-gradient"
       id="radialGradient117"
       gradientUnits="userSpaceOnUse"
       gradientTransform="matrix(1.45,0,0,0.74,222.24,-50.72)"
       cx="-136.62"
       cy="114.48"
       fx="-136.62"
       fy="114.48"
       r="16.49" />
    <linearGradient
       inkscape:collect="always"
       xlink:href="#linear-gradient-2"
       id="linearGradient117"
       gradientUnits="userSpaceOnUse"
       x1="16.87"
       y1="32.02"
       x2="3.15"
       y2="2.87" />
    <linearGradient
       inkscape:collect="always"
       xlink:href="#linear-gradient-3"
       id="linearGradient118"
       gradientUnits="userSpaceOnUse"
       x1="29.19"
       y1="26.45"
       x2="44.17"
       y2="23.51" />
    <linearGradient
       inkscape:collect="always"
       xlink:href="#linear-gradient-7"
       id="linearGradient119"
       gradientUnits="userSpaceOnUse"
       x1="10.87"
       y1="26.59"
       x2="27.29"
       y2="11.93" />
    <linearGradient
       inkscape:collect="always"
       xlink:href="#linear-gradient-14"
       id="linearGradient120"
       gradientUnits="userSpaceOnUse"
       x1="38.88"
       y1="36.34"
       x2="37.63"
       y2="32.87" />
    <linearGradient
       inkscape:collect="always"
       xlink:href="#linear-gradient-15"
       id="linearGradient121"
       gradientUnits="userSpaceOnUse"
       x1="24.95"
       y1="39.22"
       x2="23.6"
       y2="32.15" />
    <linearGradient
       inkscape:collect="always"
       xlink:href="#linear-gradient-17"
       id="linearGradient122"
       gradientUnits="userSpaceOnUse"
       gradientTransform="rotate(6.66,19.7915,20.0595)"
       x1="19.65"
       y1="16.48"
       x2="19.11"
       y2="33.19" />
    <linearGradient
       inkscape:collect="always"
       xlink:href="#linear-gradient-53"
       id="linearGradient123"
       gradientUnits="userSpaceOnUse"
       gradientTransform="rotate(-14.5,35.1318,38.4177)"
       x1="36.21"
       y1="35.65"
       x2="37.93"
       y2="35.65" />
    <linearGradient
       inkscape:collect="always"
       xlink:href="#linear-gradient-57"
       id="linearGradient124"
       gradientUnits="userSpaceOnUse"
       x1="18.23"
       y1="30.59"
       x2="19.26"
       y2="35.67" />
  </defs>
  <g
     id="shadow"
     style="opacity:0.45;isolation:isolate;mix-blend-mode:multiply"
     transform="translate(0,2.21538)">
    <ellipse
       cx="23.88"
       cy="34.03"
       rx="23.01"
       ry="11.78"
       style="fill:url(#radialGradient116)"
       id="ellipse25" />
    <ellipse
       cx="23.88"
       cy="34.03"
       rx="23.01"
       ry="11.78"
       style="fill:url(#radialGradient117)"
       id="ellipse26" />
  </g>
  <g
     id="ART"
     style="isolation:isolate;stroke-width:0.829358"
     transform="matrix(1.20585,0,0,1.20565,-5.23555,-7.20377)">
    <g
       id="g115"
       style="stroke-width:0.829358">
      <path
         d="M 23.95,40.58 41.3,30.59 v -3.28 c 0,0 -1.29,-1.46 -1.65,-1.9 0,0 -0.63,-1.03 -0.9,-1.62 0,0 -0.58,-1.13 -1.39,-1.52 -0.81,-0.39 -0.58,-1.23 -1.66,-2.16 -1.08,-0.93 -1.27,-4.72 -2.52,-5.5 -1.26,-0.78 -2.29,-2.11 -3.99,-2.76 -1.69,-0.65 -3,-0.95 -4.32,-0.59 H 23.01 C 21.7,10.9 20.39,11.2 18.69,11.85 17,12.5 15.96,13.83 14.7,14.61 c -1.26,0.78 -1.45,4.57 -2.52,5.5 -1.08,0.93 -0.85,1.77 -1.66,2.16 -0.81,0.39 -1.39,1.52 -1.39,1.52 -0.27,0.59 -0.9,1.62 -0.9,1.62 -0.36,0.44 -1.65,1.9 -1.65,1.9 v 3.28 l 17.35,9.99 z"
         style="fill:url(#linear-gradient);stroke-width:0.829358"
         id="path26" />
      <path
         d="M 24.01,38.31 21.55,39.2 6.6,30.59 v -3.27 c 0,0 1.29,-1.46 1.65,-1.91 0,0 0.62,-1.03 0.89,-1.62 0,0 0.58,-1.13 1.39,-1.52 0.81,-0.39 0.58,-1.23 1.66,-2.17 0.22,-0.19 0.39,-0.49 0.56,-0.86 0.47,0.25 0.97,0.45 1.44,0.66 1.39,0.63 2.65,1.49 3.89,2.38 1.9,1.34 3.79,2.71 5.66,4.11 0.05,0.03 0.1,0.07 0.13,0.13 0.03,0.07 0.02,0.17 0,0.25 -0.18,0.92 -0.55,1.81 -1.09,2.58 -0.38,0.54 -0.86,1.18 -0.6,1.78 0.2,0.49 0.82,0.74 0.93,1.26 0.08,0.36 -0.13,0.74 -0.38,1.02 -0.23,0.24 -0.5,0.5 -0.48,0.82 0,0.16 0.08,0.3 0.17,0.44 0.38,0.58 0.9,1.07 1.29,1.65 0.37,0.59 0.59,1.36 0.29,1.98 z"
         style="fill:url(#linearGradient117);stroke-width:0.829358"
         id="path27" />
      <path
         d="m 34.94,20.26 c -1.12,0.3 -1.86,1.49 -3.04,1.68 0.68,-0.11 1.44,0.05 2.14,0.02 0.16,0 0.33,-0.01 0.47,0.05 0.21,0.09 0.34,0.3 0.46,0.5 0.2,0.33 0.39,0.75 0.19,1.08 -0.05,0.07 -0.11,0.14 -0.13,0.22 -0.02,0.11 0.05,0.22 0.13,0.3 0.32,0.39 0.74,0.78 0.75,1.28 -0.73,0.2 -1.55,0.02 -2.14,-0.45 l 0.94,1.12 c 0.07,0.09 0.15,0.17 0.25,0.23 0.11,0.06 0.23,0.06 0.36,0.07 l 1.43,0.07 c 0.16,0 0.33,0.02 0.45,0.13 0.09,0.08 0.13,0.21 0.2,0.31 0.38,0.6 1.51,0.44 1.75,1.11 0.06,0.17 0.04,0.37 0.07,0.55 0.05,0.28 0.22,0.54 0.47,0.69 0.61,0.37 0.9,-0.08 1.44,-0.2 0.08,-0.02 0.16,-0.02 0.22,-0.08 0.07,-0.06 0.07,-0.17 0.07,-0.27 -0.03,-0.76 -0.27,-1.52 -0.7,-2.15 -0.5,-0.74 -1.24,-1.3 -1.7,-2.06 -0.17,-0.28 -0.3,-0.59 -0.47,-0.88 -0.31,-0.54 -0.74,-0.99 -1.17,-1.45 -0.35,-0.38 -0.68,-0.72 -0.94,-1.16 -0.32,-0.54 -0.65,-0.88 -1.33,-0.75 -0.05,0 -0.1,0.02 -0.15,0.03 z"
         style="fill:url(#linearGradient118);stroke-width:0.829358"
         id="path28" />
      <path
         d="m 12.64,22.55 c -0.55,0.67 -1.18,1.31 -1.48,2.13 0.29,0.07 0.58,-0.09 0.78,-0.31 0.2,-0.22 0.32,-0.49 0.48,-0.74 0.49,-0.79 1.33,-1.36 2.24,-1.53 -0.77,0.76 -1.57,1.56 -1.88,2.59 -0.07,0.23 -0.11,0.47 -0.25,0.67 -0.38,0.56 -1.3,0.59 -1.6,1.19 -0.08,0.15 -0.1,0.33 -0.18,0.49 -0.17,0.32 -0.54,0.48 -0.81,0.72 -0.6,0.53 -0.68,1.42 -0.73,2.21 0,0 -1.9,-0.15 -2.07,-0.26 C 7.02,29.63 6.93,29.5 6.86,29.36 6.62,28.9 6.57,28.36 6.59,27.83 6.61,27.15 6.97,26.7 7.49,26.28 8.01,25.86 8.27,25.46 8.61,24.94 9.01,24.33 9.4,23.73 9.8,23.12 c 0.36,-0.55 0.76,-0.8 1.21,-1.26 0.21,-0.21 0.33,-0.49 0.48,-0.75 0.19,-0.35 0.42,-0.68 0.67,-0.98 0.21,-0.25 0.6,-0.68 0.97,-0.54 0.29,0.11 0.47,0.62 0.49,0.9 0.06,0.76 -0.53,1.5 -0.98,2.06 z"
         style="fill:url(#linear-gradient-4);stroke-width:0.829358"
         id="path29" />
      <g
         id="g30"
         style="stroke-width:0.829358">
        <polygon
           points="6.61,30.59 6.61,27.28 23.95,37.27 23.95,40.58 "
           style="fill:url(#linear-gradient-5);stroke-width:0.829358"
           id="polygon29" />
        <polygon
           points="41.3,30.59 41.3,27.28 23.95,37.27 23.95,40.58 "
           style="fill:url(#linear-gradient-6);stroke-width:0.829358"
           id="polygon30" />
      </g>
      <path
         d="m 12.12,13.98 0.98,-0.22 c 0,0 0.76,-0.87 1.09,-1.14 0.33,-0.27 1.3,-0.65 1.9,-0.98 0.6,-0.33 2.39,-0.81 3.1,-1.03 0.71,-0.22 1.19,-0.71 1.9,-1.14 0.71,-0.43 2.87,-0.87 2.87,-0.87 0,0 1.41,0.54 2.17,0.86 0.76,0.32 1.9,0.8 2.28,0.69 0.38,-0.11 1.25,0.41 1.25,0.41 0,0 0.83,0.37 1.21,0.8 0.38,0.43 1.03,0.43 1.63,0.76 0.6,0.33 1.36,0.22 1.36,0.22 0,0 0.27,0.43 0.54,0.6 0.27,0.17 1.39,1.03 1.39,1.03 0,0 -0.65,1.72 -1.24,2.86 -0.59,1.14 -7.48,5.4 -7.48,5.4 0,0 -1.15,3.48 -3.16,3.13 -2.01,-0.35 -5.58,-2.04 -5.58,-2.04 L 14.37,20.88 13.28,16.7 12.14,13.98 Z"
         style="fill:url(#linearGradient119);stroke-width:0.829358"
         id="path30" />
      <path
         d="m 35.79,20.35 c 0,0.08 -0.67,0.38 -0.73,0.42 -0.43,0.27 -0.81,0.53 -1.32,0.63 -0.23,0.05 -0.48,0.07 -0.69,0.17 -0.42,0.2 -0.63,0.64 -0.99,0.93 -0.37,0.3 -0.89,0.5 -1.31,0.74 l -2.98,1.72 -3.76,2.17 -0.05,0.03 v -2.13 c 0,0 0.8,-0.4 1.08,-0.65 0.28,-0.25 0.8,-1.47 1.09,-1.68 0.5,-0.39 0.71,-1.08 1.05,-1.59 0.35,-0.54 0.97,-0.7 1.3,-1.25 0.47,-0.8 0.19,-1.86 0.6,-2.69 0.26,-0.52 0.75,-0.89 1.25,-1.19 0.93,-0.57 1.95,-1 3,-1.29 0.29,-0.08 2.47,-0.27 2.47,-0.66 v 6.32 z"
         style="fill:url(#linear-gradient-8);stroke-width:0.829358"
         id="path31" />
      <path
         d="m 30.63,16.58 c -0.02,0.55 0.08,1.09 0.08,1.63 0,0.38 -0.07,0.67 0.26,0.96 -0.08,-0.07 0.03,-0.71 0.05,-0.82 0.03,-0.24 0.06,-0.54 0.24,-0.72 0.32,-0.33 0.92,-0.74 1.38,-0.8 0.18,-0.03 0.36,-0.01 0.53,-0.04 0.31,-0.05 0.58,-0.22 0.8,-0.45 0.09,-0.1 0.17,-0.2 0.29,-0.26 0.09,-0.04 0.18,-0.04 0.27,-0.06 0.34,-0.05 0.82,-0.29 0.98,-0.61 0.18,-0.36 0.13,-0.96 0.22,-1.36 -1.59,0.38 -3.13,0.96 -4.58,1.72 -0.16,0.08 -0.33,0.18 -0.42,0.33 -0.09,0.14 -0.1,0.32 -0.1,0.48 z"
         style="fill:url(#linear-gradient-9);stroke-width:0.829358"
         id="path32" />
      <path
         d="m 17.88,15.63 c -0.56,-0.26 -1.15,-0.47 -1.74,-0.67 -0.56,-0.19 -1.11,-0.38 -1.69,-0.51 -0.3,-0.07 -2.33,-0.07 -2.33,-0.48 v 6.32 c 0,0 0.46,0.27 0.5,0.29 0.31,0.15 0.61,0.16 0.94,0.25 0.62,0.18 1.23,0.54 1.52,1.14 0.36,0.26 0.85,0.24 1.27,0.37 0.83,0.27 1.23,1.09 1.96,1.51 0.91,0.52 1.82,1.05 2.73,1.57 l 2.08,1.2 c 0.07,0.04 0.83,0.39 0.83,0.48 v -2.13 c 0,0 -0.8,-0.4 -1.08,-0.65 -0.48,-0.43 -0.62,-1.16 -1.04,-1.65 -0.56,-0.64 -0.69,-1.56 -1.19,-2.3 -0.2,-0.3 -0.43,-0.6 -0.53,-0.95 -0.15,-0.51 0,-1.07 -0.09,-1.6 -0.13,-0.79 -0.76,-1.41 -1.44,-1.83 -0.22,-0.14 -0.46,-0.26 -0.7,-0.37 z"
         style="fill:url(#linear-gradient-10);stroke-width:0.829358"
         id="path33" />
      <path
         d="m 12.2,15.42 c 0,0.12 0.94,0.46 1.07,0.61 0.11,0.13 0.2,0.29 0.34,0.39 0.29,0.23 0.71,0.19 1.06,0.29 1.04,0.31 1.03,1.51 0.92,2.39 -0.21,1.62 -0.55,3.23 -1.01,4.8 1,-1.53 1.77,-3.22 2.28,-4.98 0.13,-0.44 0.24,-0.89 0.28,-1.35 0.07,-0.83 -0.12,-1.77 -0.72,-2.39 -0.37,-0.38 -0.93,-0.62 -1.38,-0.89 l -2.51,-0.74 -0.42,0.05 z"
         style="fill:url(#linear-gradient-11);stroke-width:0.829358"
         id="path34" />
      <path
         d="m 39.65,25.42 c 0,0 -0.63,-1.03 -0.9,-1.62 0,0 -0.58,-1.13 -1.39,-1.52 -0.79,-0.38 -0.6,-1.18 -1.58,-2.09 v -6.21 c 0,0 -1.12,-0.87 -1.39,-1.03 -0.27,-0.16 -0.54,-0.6 -0.54,-0.6 0,0 -0.76,0.11 -1.36,-0.22 -0.6,-0.33 -1.25,-0.33 -1.63,-0.76 -0.38,-0.43 -1.21,-0.8 -1.21,-0.8 0,0 -0.87,-0.52 -1.25,-0.41 -0.38,0.11 -1.52,-0.37 -2.28,-0.69 -0.76,-0.33 -2.17,-0.86 -2.17,-0.86 0,0 -2.16,0.43 -2.87,0.87 -0.71,0.43 -1.19,0.92 -1.9,1.14 -0.71,0.22 -2.5,0.71 -3.1,1.03 -0.6,0.33 -1.58,0.71 -1.9,0.98 -0.33,0.27 -1.09,1.14 -1.09,1.14 l -0.98,0.22 v 6.21 c -0.98,0.9 -0.8,1.7 -1.58,2.09 -0.81,0.39 -1.39,1.52 -1.39,1.52 -0.27,0.59 -0.9,1.62 -0.9,1.62 -0.36,0.44 -1.65,1.9 -1.65,1.9 v 3.28 l 17.35,9.99 17.35,-9.99 v -3.28 c 0,0 -1.29,-1.46 -1.65,-1.9 z"
         style="fill:none;stroke:#6d3209;stroke-width:0.580551px;stroke-linecap:round;stroke-linejoin:round"
         id="path35" />
      <path
         d="m 40.18,36.49 c -1.11,0.93 -2.98,-0.13 -4.18,0.66 -0.97,0.63 -0.43,2.25 -1.06,3.23 -0.44,0.68 -1.03,0.97 -1.85,0.98 -0.87,0.01 -2.46,-0.48 -3.32,-0.31 -0.65,0.12 -1.18,0.59 -1.71,1.01 C 26.4,43.35 24.71,45 21.94,44.7 19.15,44.38 18.14,42.17 17.96,40.08 17.89,39.25 16.84,38.94 16,38.89 14.72,38.83 13.44,38.9 12.17,38.71 11.15,38.58 9.64,38.21 8.97,37.33 8.39,36.56 8.84,35.41 9.53,34.88 c 0.62,-0.48 1.4,-0.67 2.14,-0.94 0.57,-0.22 1.11,-0.48 1.63,-0.8 0.29,-0.17 0.58,-0.37 0.72,-0.68 0.12,-0.3 0.02,-0.74 -0.3,-0.84 -0.22,-0.07 -0.47,0.04 -0.7,0.07 -1.11,0.15 -1.34,-1.03 -1.01,-1.82 0.64,-1.57 1.81,-2.5 3.13,-3.45 0.49,-0.35 1.34,-2.02 0.17,-2.15 -0.25,-0.03 -0.52,0.17 -0.75,0.06 -0.15,-0.07 -0.21,-0.26 -0.2,-0.42 0.01,-0.16 0.1,-0.32 0.18,-0.46 0.65,-1.21 0.95,-2.48 1.43,-3.76 0.42,-1.13 0.26,-2.34 0.18,-3.54 0.57,-0.24 1.25,-0.23 1.81,0.03 0.58,0.27 1.03,0.77 1.62,1.04 0.69,0.32 1.49,0.28 2.25,0.19 3.11,-0.39 6.06,-1.6 9.13,-2.28 -0.2,0.04 0.23,2.97 0.28,3.26 0.14,0.81 0.25,1.8 0.61,2.54 0.32,0.65 0.83,1.13 1.23,1.73 0.26,0.38 0.41,0.82 0.56,1.26 0.22,0.64 0.43,1.29 0.7,1.92 0.27,0.63 0.65,1.14 1.12,1.67 0.14,0.16 0.29,0.32 0.39,0.51 0.1,0.19 0.17,0.41 0.12,0.62 -0.05,0.25 -0.25,0.46 -0.5,0.52 -0.25,0.06 -0.32,-0.06 -0.5,-0.19 -0.28,-0.2 -1,-0.29 -0.69,0.26 0.2,0.34 0.6,0.71 0.87,1 0.6,0.65 1.3,1.21 2.07,1.65 0.94,0.54 2.01,0.92 2.77,1.72 0.75,0.79 1.01,2.21 0.18,2.92 z"
         style="fill:url(#linear-gradient-12);stroke-width:0.829358"
         id="path36" />
      <path
         d="m 34.74,37.51 c 0.03,-0.13 0.04,-0.27 0.04,-0.41 0,-0.31 -0.1,-0.6 -0.12,-0.91 -0.02,-0.31 0.08,-0.65 0.35,-0.79 0.12,-0.06 0.25,-0.08 0.38,-0.08 0.45,0 0.91,0.2 1.33,0.33 0.26,0.08 0.5,0.22 0.76,0.31 0.49,0.17 1.04,0.28 1.56,0.19 0.54,-0.1 1.06,-0.47 1.14,-1.04 0.05,-0.37 -0.11,-0.73 -0.32,-1.03 C 39.39,33.4 38.64,33.15 38,32.69 37.27,32.17 36.49,31.71 35.74,31.2 34.94,30.66 34.11,30 33.52,29.23 c -0.59,-0.77 -0.89,-2.11 -1.15,-3.05 0,-0.03 -0.02,-0.07 0,-0.1 0.02,-0.07 0.12,-0.09 0.19,-0.06 0.07,0.03 0.11,0.1 0.14,0.17 0.37,0.67 0.78,1.26 1.37,1.75 0.22,0.18 0.43,0.49 0.74,0.32 0.23,-0.13 0.3,-0.47 0.23,-0.7 -0.08,-0.3 -0.31,-0.53 -0.51,-0.77 C 33.98,26.14 33.62,25.35 33.26,24.58 32.94,23.88 32.67,22.9 32.2,22.3 31.82,21.82 31.22,21.55 30.87,21.02 30.83,20.97 30.8,20.91 30.77,20.85 30.31,20 30.39,19.18 30.21,18.28 c -0.19,-0.97 -0.22,-1.97 -0.07,-2.94 0.02,-0.1 0.03,-0.21 0,-0.31 C 30.1,14.91 30,14.83 29.9,14.75 29.35,14.31 28.74,13.85 28.1,13.54 27.83,13.41 27.6,13.45 27.35,13.36 27.06,13.25 26.89,12.98 26.69,12.77 26,12.04 24.81,12.11 23.85,12.42 c -0.83,0.27 -1.61,0.69 -2.39,1.1 l -2.67,1.42 c -0.7,0.37 -1.44,0.79 -1.79,1.5 -0.16,0.33 -0.22,0.7 -0.27,1.06 -0.2,1.46 -0.31,2.96 -0.87,4.33 -0.23,0.55 -0.53,1.09 -0.65,1.67 -0.02,0.09 -0.03,0.2 0.05,0.26 0.08,0.06 0.19,0.01 0.28,-0.03 0.17,-0.08 0.37,-0.15 0.56,-0.11 0.47,0.1 0.3,0.58 0.22,0.91 -0.18,0.73 -0.23,1.43 -0.76,2.02 -0.5,0.55 -1.18,0.86 -1.7,1.38 -0.43,0.43 -0.77,0.91 -1.01,1.48 -0.06,0.14 -0.51,1.44 -0.09,1.43 0.31,-0.1 0.6,-0.27 0.89,-0.41 0.29,-0.14 0.63,-0.24 0.95,-0.18 0.32,0.06 0.63,0.32 0.64,0.65 0.05,1.24 -0.97,2.14 -1.96,2.7 -0.69,0.4 -1.61,0.58 -2.14,1.21 -0.23,0.28 -0.35,0.65 -0.61,0.91 -0.23,0.24 -0.59,0.41 -0.66,0.74 -0.07,0.37 0.16,0.82 0.48,1.02 0.41,0.26 0.69,-0.11 1.06,-0.32 0.47,-0.28 1.08,-0.32 1.59,-0.1 0.53,0.23 0.92,0.69 1.44,0.94 0.26,0.12 0.54,0.18 0.81,0.25 0.79,0.18 1.63,0.19 2.36,0.55 0.41,0.2 0.59,0.56 1.02,0.72 1.09,0.41 2.27,0.26 3.38,0.54 0.64,0.17 1.18,0.38 1.85,0.46 0.82,0.09 1.63,-0.11 2.43,-0.28 0.41,-0.09 0.84,-0.19 1.26,-0.21 0.31,0 0.54,0.06 0.81,-0.12 0.13,-0.09 0.24,-0.22 0.27,-0.38 0.05,-0.36 0.18,-0.49 0.59,-0.41 0.93,0.19 1.85,0.5 2.8,0.55 0.59,0.03 1.18,-0.05 1.72,-0.3 0.23,-0.1 0.36,-0.15 0.48,-0.38 0.15,-0.29 0.26,-0.6 0.36,-0.92 0.06,-0.18 0.12,-0.37 0.15,-0.56 z"
         style="fill:url(#linear-gradient-13);stroke-width:0.829358"
         id="path37" />
      <path
         d="m 38.93,33.59 c 0.67,0.29 1.15,0.96 0.75,1.57 -0.4,0.61 -1.49,0.58 -2.44,0.24 -0.95,-0.34 0.01,-0.96 0.79,-0.85 0.78,0.11 1.57,-0.03 0.91,-0.96 z"
         style="fill:url(#linearGradient120);stroke-width:0.829358"
         id="path38" />
      <path
         d="m 24.66,35.58 1.24,0.14 c 0.36,0.04 0.79,0.13 0.92,0.47 0.11,0.27 -0.04,0.58 -0.22,0.81 -0.42,0.55 -0.99,0.96 -1.58,1.33 -0.11,0.07 -0.24,0.15 -0.38,0.12 -0.11,-0.02 -0.19,-0.1 -0.27,-0.18 -0.58,-0.56 -1.24,-1.03 -1.96,-1.39 -0.15,-0.08 -0.31,-0.16 -0.4,-0.3 -0.05,-0.09 -0.07,-0.19 -0.07,-0.29 -0.03,-0.48 0.19,-0.97 0.56,-1.28 -0.02,0.06 -0.04,-0.02 0,-0.06 0.04,-0.04 0.11,-0.09 0.16,-0.06 0.01,0 0.03,0.02 0.04,0.03 0.3,0.27 0.7,0.4 1.08,0.52 l 0.8,0.24 c 0.08,0.02 0,-0.05 0.06,-0.11 z"
         style="fill:url(#linearGradient121);stroke-width:0.829358"
         id="path39" />
      <path
         d="m 40.18,36.49 c -1.11,0.93 -2.98,-0.13 -4.18,0.66 -0.97,0.63 -0.43,2.25 -1.06,3.23 -0.44,0.68 -1.03,0.97 -1.85,0.98 -0.87,0.01 -2.46,-0.48 -3.32,-0.31 -0.65,0.12 -1.18,0.59 -1.71,1.01 C 26.4,43.35 24.71,45 21.94,44.7 19.15,44.38 18.14,42.17 17.96,40.08 17.89,39.25 16.84,38.94 16,38.89 14.72,38.83 13.44,38.9 12.17,38.71 11.15,38.58 9.64,38.21 8.97,37.33 8.39,36.56 8.84,35.41 9.53,34.88 c 0.62,-0.48 1.4,-0.67 2.14,-0.94 0.57,-0.22 1.11,-0.48 1.63,-0.8 0.29,-0.17 0.58,-0.37 0.72,-0.68 0.09,-0.22 0.07,-0.52 -0.09,-0.7 -0.22,-0.25 -0.42,-0.13 -0.67,-0.05 -0.54,0.17 -1.11,-0.06 -1.43,-0.53 -0.31,-0.47 -0.34,-1.09 -0.17,-1.63 0.17,-0.54 0.51,-1.01 0.89,-1.43 0.3,-0.33 0.62,-0.63 0.96,-0.91 0.43,-0.35 0.9,-0.66 1.31,-1.03 0.32,-0.29 1.47,-1.57 0.6,-1.88 -0.27,-0.1 -0.57,0.18 -0.84,0.05 -0.15,-0.07 -0.21,-0.26 -0.2,-0.42 0.01,-0.16 0.1,-0.32 0.18,-0.46 0.65,-1.21 0.95,-2.48 1.43,-3.76 0.26,-0.7 0.24,-1.39 0.27,-2.12 0.02,-0.49 -0.28,-0.95 -0.23,-1.42 0.03,-0.3 0.3,-0.51 0.47,-0.76 0.14,-0.21 0.21,-0.46 0.3,-0.7 0.41,-1.07 1.24,-1.92 2.13,-2.65 0.55,-0.45 1.14,-0.88 1.8,-1.15 0.86,-0.36 1.81,-0.45 2.74,-0.41 2.36,0.08 4.73,0.97 6.41,2.63 0.36,0.36 0.7,0.76 0.83,1.25 0.36,1.29 0.33,2.71 0.55,4.04 0.19,1.11 0.46,2.21 0.84,3.27 0.15,0.41 0.35,0.68 0.56,1.05 0.26,0.44 0.34,0.98 0.55,1.45 0.43,0.95 1.08,1.8 1.74,2.6 0.34,0.41 1.11,1.37 0.87,1.96 -0.08,0.18 -0.27,0.31 -0.47,0.31 -0.17,0 -0.33,-0.09 -0.49,-0.17 -0.42,-0.2 -0.77,-0.05 -0.54,0.36 0.2,0.34 0.6,0.71 0.87,1 0.6,0.65 1.3,1.21 2.07,1.65 0.94,0.54 2.01,0.92 2.77,1.72 0.75,0.79 1.01,2.21 0.18,2.92 z"
         style="fill:url(#linear-gradient-16);stroke-width:0.829358"
         id="path40" />
      <g
         style="opacity:0.77;stroke-width:0.829358"
         id="g67">
        <path
           d="m 20.82,15.13 c -0.32,0.01 -0.63,0.09 -0.94,0.24 -0.3,0.84 -0.34,1.62 -0.47,2.54 -0.14,1 -0.28,2 -0.44,2.99 -0.1,0.66 -0.21,1.34 -0.54,1.87 0.15,0.11 0.15,0.37 0.13,0.58 -0.13,1.4 -0.33,2.8 -0.61,4.17 0.29,-0.45 0.59,-0.91 0.87,-1.37 0.1,-0.16 0.2,-0.32 0.25,-0.51 0.05,-0.16 0.06,-0.32 0.08,-0.49 0.1,-1.05 0.21,-2.09 0.31,-3.13 0.08,-0.82 0.22,-1.75 0.76,-2.15 0,-1.54 0.21,-3.08 0.57,-4.55"
           style="opacity:0.56;fill:url(#linearGradient122);stroke-width:0.829358"
           id="path41" />
        <path
           d="m 18.8,14.71 c 0.03,0.47 -0.31,0.61 -0.46,0.94 -0.12,0.26 -0.16,0.66 -0.21,0.96 -0.15,0.81 -0.13,1.73 -0.56,2.38 -0.15,0.23 -0.35,0.41 -0.51,0.63 -0.75,0.99 -0.56,2.59 -1.14,3.63 0.65,-0.34 0.83,-1.29 1.05,-2.11 0.03,-0.1 0.06,-0.2 0.12,-0.27 0.13,-0.14 0.33,-0.11 0.48,-0.18 0.21,-0.1 0.4,-0.29 0.58,-0.44 0.03,-0.33 0.09,-0.66 0.18,-0.98 0.07,-0.25 0.17,-0.5 0.22,-0.76 0.09,-0.48 0.04,-1 0.03,-1.5 -0.01,-0.77 0.06,-1.55 0.22,-2.29 z"
           style="opacity:0.56;fill:url(#linear-gradient-18);stroke-width:0.829358"
           id="path42" />
        <path
           d="m 21.86,14.43 c -0.66,0.63 -0.62,2.35 -0.51,3.4 0.1,0.99 0.07,1.98 0,2.96 -0.04,0.48 -0.09,0.97 -0.04,1.46 0.03,0.28 0.09,0.56 0.14,0.84 0.1,0.52 0.16,1.05 0.22,1.58 0.11,0.89 0.17,0.57 0.28,1.46 0.12,-1.09 0.28,-0.97 0.39,-2.05 0.01,-0.13 0.02,-0.26 0,-0.39 -0.02,-0.13 -0.06,-0.26 -0.1,-0.38 -0.14,-0.49 -0.19,-1 -0.21,-1.51 -0.03,-0.73 -0.01,-1.45 0,-2.17 0.02,-1.02 0.04,-2 0.02,-3.02 0,-0.66 0.13,-1.3 0.07,-1.96 -0.01,-0.12 -0.04,-0.26 -0.12,-0.29 -0.06,-0.02 -0.11,0.02 -0.15,0.06 z"
           style="opacity:0.56;fill:url(#linear-gradient-19);stroke-width:0.829358"
           id="path43" />
        <path
           d="m 23.56,22.25 c 0.32,-1.42 0.45,-2.91 0.46,-4.42 0,-0.78 -0.03,-1.57 -0.01,-2.35 0.01,-0.56 0.22,-1.46 0.12,-1.97 -0.75,0.27 -0.67,2.7 -0.71,3.54 -0.1,1.73 -0.12,3.48 0.15,5.2 z"
           style="opacity:0.56;fill:url(#linear-gradient-20);stroke-width:0.829358"
           id="path44" />
        <path
           d="m 26.3,14.15 c -0.36,0.17 -0.89,0.25 -1.2,0.56 -0.33,0.33 -0.26,1.1 -0.27,1.65 -0.02,1.56 0.04,3.11 0.08,4.64 0.02,0.79 0.12,1.63 0.06,2.42 -0.05,0.63 -0.13,1.23 -0.12,1.88 0.26,-0.39 0.76,-0.9 0.89,-1.35 0.14,-0.48 0,-1.26 -0.02,-1.77 0,-0.71 0.03,-1.55 0.46,-1.88 0.07,1.08 0.19,2.15 0.35,3.21 0.07,-2.42 0.1,-4.85 0.16,-7.36 0,-0.35 0.01,-0.71 -0.09,-1.03 -0.04,-0.12 -0.09,-0.24 -0.09,-0.37 0,-0.2 0.11,-0.42 0,-0.56 -0.06,-0.09 -0.15,-0.06 -0.23,-0.02 z"
           style="opacity:0.56;fill:url(#linear-gradient-21);stroke-width:0.829358"
           id="path45" />
        <path
           d="m 27.48,20.04 c 0.08,0.86 0.12,1.71 0.07,2.55 0.27,-0.51 0.46,-1.09 0.56,-1.7 0.08,-0.51 0.11,-1.04 0.13,-1.57 0.1,-2.1 0.19,-4.21 0.36,-6.38 l -0.54,0.2 c -0.18,1.64 -0.28,3.26 -0.34,4.89 -0.18,-0.85 -0.32,-1.71 -0.42,-2.58 -0.07,-0.64 0,-1.56 -0.18,-2.16 -0.39,0.56 -0.22,1.96 -0.15,2.69 0.12,1.37 0.37,2.72 0.51,4.07 z"
           style="opacity:0.56;fill:url(#linear-gradient-22);stroke-width:0.829358"
           id="path46" />
        <path
           d="m 28.6,14.67 c -0.04,2.13 0,4.21 0.02,6.27 0.21,-0.01 0.43,-0.03 0.65,-0.04 0.19,0.76 0.33,1.49 0.72,2.15 0.18,0.32 0.4,0.61 0.66,0.85 0.16,0.15 1.62,1.46 1.7,1.63 -0.74,-1.41 -2.19,-3.95 -2.52,-5.53 -0.12,-0.56 -0.19,-1.14 -0.27,-1.71 -0.12,-0.94 -0.22,-1.9 -0.18,-2.84 0.01,-0.25 0.03,-0.52 -0.06,-0.75"
           style="opacity:0.56;fill:url(#linear-gradient-23);stroke-width:0.829358"
           id="path47" />
        <path
           d="m 30.35,28.46 -0.03,0.16 c 0.41,-0.19 0.85,-0.33 1.29,-0.42 0,-0.34 -0.06,-0.67 -0.18,-0.98 -0.06,-0.15 -0.13,-0.34 -0.04,-0.47 l -1.04,-0.23 c -0.33,-0.07 -0.78,-0.2 -1.05,-0.41 0.15,0.27 0.28,0.55 0.39,0.84 0.01,0.03 0.02,0.06 0.02,0.09 0,0.06 -0.05,0.09 -0.1,0.13 -0.22,0.17 -0.42,0.37 -0.59,0.59 0.38,0.48 0.81,0.92 1.28,1.29 0.19,-0.22 -0.14,-0.37 0.05,-0.58 z"
           style="fill:url(#linear-gradient-24);stroke-width:0.829358"
           id="path48" />
        <path
           d="m 31.22,32.6 c 0.78,0.16 1.49,0.69 1.88,1.42 0.05,0.1 0.12,0.22 0.22,0.24 0.05,0 0.09,0 0.14,-0.01 l 0.84,-0.2 c 0,0 0.07,-0.02 0.09,-0.05 0.04,-0.06 -0.02,-0.13 -0.07,-0.18 -0.22,-0.22 -0.4,-0.48 -0.58,-0.74 l -0.38,-0.56 c -0.07,-0.1 -0.13,-0.2 -0.18,-0.31 -0.14,-0.33 -0.06,-0.74 0.17,-0.99 -0.27,0 -0.53,-0.06 -0.77,-0.18 -0.2,-0.11 -0.41,-0.43 -0.61,-0.48 -0.1,-0.03 -0.37,0.09 -0.5,0.09 -0.17,0 -0.35,-0.09 -0.52,-0.08 -0.39,0.03 -0.29,-0.08 -0.18,0.32 0.03,0.09 0.59,1.75 0.44,1.72 z"
           style="fill:url(#linear-gradient-25);stroke-width:0.829358"
           id="path49" />
        <path
           d="m 30.67,34.45 c -0.17,-0.13 -0.3,-0.31 -0.37,-0.52 0.31,0.06 0.63,0.04 0.92,-0.07 0,0.14 0.12,0.24 0.23,0.32 l 0.71,0.48 c -0.23,0.01 -0.46,0.14 -0.6,0.34 -0.03,0.04 -0.06,0.09 -0.1,0.09 -0.03,0 -0.05,-0.01 -0.08,-0.03 -0.29,-0.17 -0.45,-0.41 -0.71,-0.61 z"
           style="fill:url(#linear-gradient-26);stroke-width:0.829358"
           id="path50" />
        <path
           d="m 28.72,29.62 c -0.41,0.42 -0.44,1.19 -0.07,1.65 0.11,0.14 0.26,0.25 0.33,0.41 0.07,0.14 0.08,0.3 0.09,0.46 l 0.1,1.51 -0.61,-0.62 c -0.59,-0.6 -1.19,-1.21 -1.6,-1.96 -0.27,-0.5 -0.46,-1.06 -0.63,-1.61 -0.29,-0.93 -0.12,-1.52 0.45,-2.24 -0.27,0.34 1.82,2.5 1.93,2.39 z"
           style="fill:url(#linear-gradient-27);stroke-width:0.829358"
           id="path51" />
        <path
           d="m 27.04,24.12 c -0.06,0.5 0,1.02 0.17,1.5 0.26,0.72 0.75,1.32 1.23,1.9 L 27.7,25.09 c -0.05,-0.17 -0.1,-0.34 -0.15,-0.51 -0.1,-0.35 -0.19,-0.71 -0.26,-1.06 l -0.4,0.27 0.26,1.23"
           style="opacity:0.56;fill:url(#linear-gradient-28);stroke-width:0.829358"
           id="path52" />
        <path
           d="m 28.96,29.41 0.64,-0.15 c 0,0 0.05,-0.01 0.08,0 0.03,0 0.06,0.04 0.09,0.06 0.14,0.14 0.34,0.17 0.52,0.22 0.18,0.05 0.38,0.12 0.47,0.3 l -0.05,0.28 c 0,0 -0.01,0.06 -0.03,0.08 -0.03,0.02 -0.07,0.02 -0.1,0.01 l -0.73,-0.16 0.53,0.98 c -0.14,-0.08 -0.32,0.19 -0.44,0.09 -0.48,-0.39 -0.51,-1.35 -0.98,-1.7 z"
           style="fill:url(#linear-gradient-29);stroke-width:0.829358"
           id="path53" />
        <path
           d="m 23.37,25.89 c 0.26,2.06 0.32,4.15 0.18,6.22 0.49,-0.2 0.57,-0.88 0.57,-1.44 v -1.66 l 0.37,-0.1 c 0.18,0.69 0.38,1.38 0.59,2.06 0.2,-0.24 0.47,-0.42 0.76,-0.51 -0.58,-1.05 -1.03,-2.19 -1.47,-3.32 l -0.23,-0.59 -0.58,-1.49 c -0.21,0.14 -0.2,0.45 -0.17,0.71 l 0.18,1.61"
           style="fill:url(#linear-gradient-30);stroke-width:0.829358"
           id="path54" />
        <path
           d="m 26.17,34.8 c 0.25,0.02 0.31,0.37 0.5,0.55 0.17,0.15 0.44,0.17 0.54,0.38 -0.13,-0.45 0.38,-0.94 0.17,-1.36 -0.17,-0.34 -0.7,-0.37 -0.78,-0.74 -0.28,0.12 -0.58,0.21 -0.88,0.26 0.1,0.37 0.25,0.59 0.45,0.91 z"
           style="fill:url(#linear-gradient-31);stroke-width:0.829358"
           id="path55" />
        <path
           d="m 31.68,35.41 c 0.4,0.26 0.91,0.14 1.36,0.01 0.16,-0.05 0.34,-0.1 0.44,-0.25 0.04,0.21 0.21,0.35 0.35,0.5 0.29,0.29 0.55,0.63 0.76,1 0.01,0.02 0.03,0.05 0.03,0.07 0,0.03 -0.02,0.06 -0.03,0.08 l -0.29,0.44 c 0,0 -0.05,0.06 -0.08,0.07 -0.03,0 -0.06,-0.02 -0.09,-0.04 L 33.54,36.8 c -0.05,-0.04 -0.11,-0.09 -0.18,-0.09 -0.05,0 -0.1,0.03 -0.14,0.07 -0.34,0.26 -0.62,0.59 -0.83,0.98 -0.02,0.03 -0.04,0.07 -0.07,0.08 -0.03,0.01 -0.07,0 -0.1,0 -0.57,-0.18 -1.03,-0.58 -1.63,-0.67 0.38,-0.59 0.81,-1.09 1.1,-1.76 z"
           style="fill:url(#linear-gradient-32);stroke-width:0.829358"
           id="path56" />
        <g
           id="g66"
           style="stroke-width:0.829358">
          <path
             d="m 16.29,30.09 c 0,-0.26 -0.26,-0.48 -0.5,-0.41 0.22,-0.35 0.33,-0.77 0.33,-1.19 -0.73,0.58 -1.38,1.27 -1.94,2.04 -0.15,-0.5 0.2,-1 0.51,-1.4 0.69,-0.92 1.28,-1.93 1.74,-2.99 0.23,-0.53 0.43,-1.08 0.6,-1.64 0.13,-0.42 0.17,-1.01 0.39,-1.37 0.37,0.77 0.05,2.12 -0.08,2.92 -0.22,1.39 -0.57,2.75 -1.06,4.05 z"
             style="opacity:0.56;fill:url(#linear-gradient-33);stroke-width:0.829358"
             id="path57" />
          <path
             d="m 15.98,34.39 c -0.12,0.67 -0.33,1.33 -0.63,1.93 0,-0.02 -1.45,0.08 -0.97,-0.75 0.15,-0.26 0.48,-0.62 0.7,-0.83 0.31,-0.3 0.51,-0.15 0.9,-0.35 z"
             style="fill:url(#linear-gradient-34);stroke-width:0.829358"
             id="path58" />
          <path
             d="m 23.99,33.86 c -0.07,-0.47 -0.07,-0.94 0,-1.41 0,0.01 0.92,-0.4 0.79,0.25 -0.04,0.21 -0.18,0.52 -0.28,0.71 -0.14,0.27 -0.3,0.22 -0.51,0.44 z"
             style="fill:url(#linear-gradient-35);stroke-width:0.829358"
             id="path59" />
          <path
             d="m 17.18,30.16 c 0.1,0.76 -0.14,1.51 -0.37,2.23 l 0.42,0.04 c 0,0 0.06,0 0.09,-0.01 0.03,-0.02 0.05,-0.07 0.06,-0.11 l 0.26,-0.91 c 0.12,-0.42 0.3,-0.91 0.67,-1.02 0.07,-0.02 0.15,-0.03 0.21,-0.09 0.04,-0.04 0.06,-0.1 0.08,-0.16 0.16,-0.45 0.6,-1.41 -0.13,-1.32 -0.24,0.03 -0.41,0.22 -0.57,0.4 -0.08,0.09 -0.73,0.87 -0.72,0.95 z"
             style="fill:url(#linear-gradient-36);stroke-width:0.829358"
             id="path60" />
          <path
             d="m 16.12,32.55 -0.64,0.96 c 0.31,0.28 0.85,0.13 1.01,-0.26 0.01,-0.03 0.02,-0.06 0.02,-0.08 0,-0.03 -0.02,-0.06 -0.04,-0.09 -0.11,-0.2 -0.13,-0.44 -0.12,-0.68 0,-0.05 0,-0.1 -0.04,-0.13 -0.04,-0.03 -0.1,0.04 -0.06,0.06"
             style="fill:url(#linear-gradient-37);stroke-width:0.829358"
             id="path61" />
          <path
             d="m 17.58,32.61 c -0.03,0.07 -0.07,0.15 -0.04,0.22 0.02,0.05 0.07,0.09 0.11,0.12 l 0.51,0.37 c -0.17,0.63 -0.32,1.27 -0.45,1.92 0.17,-0.18 0.42,-0.27 0.66,-0.25 0.27,-0.94 0.61,-1.85 1.04,-2.72 L 18.76,32.1 c 0.3,-0.31 0.44,-0.74 0.58,-1.15 0.06,-0.19 0.13,-0.4 0.08,-0.6 -0.07,-0.25 -0.4,-0.51 -0.65,-0.5 -0.36,0.02 -0.4,0.43 -0.48,0.82 -0.14,0.74 -0.35,1.27 -0.69,1.95 z"
             style="fill:url(#linear-gradient-38);stroke-width:0.829358"
             id="path62" />
          <path
             d="m 19.82,26.38 c -0.07,0.33 -0.19,0.65 -0.2,0.98 0,0.36 0.12,0.75 -0.05,1.06 l 0.38,0.08 0.04,1.86 0.39,-0.25 c 0,0 0.06,-0.04 0.08,-0.07 0.02,-0.03 0.03,-0.08 0.03,-0.12 l 0.14,-1.3 c 0.04,-0.43 0.09,-0.85 0.09,-1.28 0,-0.26 -0.01,-0.52 -0.04,-0.78 l -0.27,0.09 c 0,-0.3 0.11,-1.86 -0.16,-1.83 -0.45,0.04 -0.37,1.3 -0.42,1.56 z"
             style="fill:url(#linear-gradient-39);stroke-width:0.829358"
             id="path63" />
          <path
             d="m 22.58,35.92 c 0.05,0.09 0.1,0.19 0.17,0.28 0.02,0.03 0.05,0.06 0.08,0.05 0.03,0 0.04,-0.03 0.05,-0.05 0.18,-0.34 0.22,-0.77 0.35,-1.13 0.13,-0.35 0.2,-1.79 -0.41,-1.13 -0.21,0.22 -0.26,0.75 -0.33,1.02 -0.09,0.35 -0.05,0.66 0.1,0.96 z"
             style="fill:url(#linear-gradient-40);stroke-width:0.829358"
             id="path64" />
          <path
             d="m 21.13,33.16 c -0.2,0.31 -0.39,0.63 -0.55,0.96 0.17,0 0.35,0.05 0.49,0.14 l 0.37,-0.77 -0.42,-0.29"
             style="fill:url(#linear-gradient-41);stroke-width:0.829358"
             id="path65" />
          <path
             d="M 32.72,28.44 C 32.5,28.15 32.26,27.87 32,27.61 c -0.04,0.18 -0.14,0.34 -0.26,0.47 l 0.59,0.59 0.37,-0.34"
             style="fill:url(#linear-gradient-42);stroke-width:0.829358"
             id="path66" />
        </g>
      </g>
      <path
         d="m 30.98,17.5 c 0,0.18 0.02,0.36 0.03,0.54 0,0.1 0.02,0.2 0,0.3 -0.51,-0.61 -1.4,-0.95 -1.79,-1.67 -0.04,-0.08 -0.15,-0.82 -0.16,-0.82 -0.32,-0.09 -0.56,-0.4 -0.57,-0.72 -0.45,0.02 -0.82,1.26 -0.97,1.61 -0.29,0.68 -0.53,1.37 -0.72,2.09 -0.19,-0.81 -0.69,-1.47 -0.99,-2.23 -0.33,-0.82 -0.58,-1.68 -0.75,-2.55 -0.1,0.13 -0.15,0.32 -0.24,0.47 -0.02,-0.31 -0.04,-0.63 -0.06,-0.94 -0.16,0.1 -0.35,0.06 -0.53,0.14 -0.22,0.1 -0.4,0.33 -0.51,0.54 -0.17,0.31 -0.23,0.66 -0.28,1 -0.09,0.67 -0.1,1.36 -0.34,1.99 -0.3,0.79 -0.65,1.55 -0.92,2.36 -0.17,-0.49 -0.11,-1.04 -0.27,-1.53 -0.15,-0.44 -0.48,-0.79 -0.64,-1.23 -0.13,-0.35 -0.17,-1.06 -0.72,-1.01 -0.34,0.03 -0.74,0.67 -0.87,0.94 -0.02,0.05 -0.05,0.1 -0.09,0.13 -0.19,0.11 -0.32,-0.3 -0.55,-0.31 -0.07,0 -0.14,0.04 -0.2,0.08 l -1.09,0.74 c -0.14,0.1 -0.29,0.2 -0.42,0.31 -0.19,0.17 -0.34,0.39 -0.49,0.6 L 16.45,16.8 c -0.02,-0.08 -0.04,-0.17 -0.01,-0.25 0.03,-0.09 0.11,-0.14 0.19,-0.19 0.22,-0.15 0.44,-0.29 0.66,-0.43 0.62,-0.39 1.26,-0.72 1.93,-1.01 0.32,-0.13 0.68,-0.21 0.99,-0.36 0.26,-0.12 0.47,-0.36 0.77,-0.4 0.12,-0.01 0.25,0.01 0.36,-0.01 0.37,-0.08 0.46,-0.58 0.71,-0.86 0.28,-0.32 0.75,-0.33 1.11,-0.51 0.38,-0.18 0.65,-0.51 0.98,-0.76 0.12,-0.09 0.33,-0.13 0.38,0 0.02,0.06 0,0.13 0.05,0.18 0.02,0.03 0.07,0.05 0.1,0.06 0.49,0.15 0.96,0.39 1.45,0.53 0.44,0.12 0.94,0.06 1.39,0.08 0.68,0.03 1.35,0.17 1.98,0.4 0.13,0.05 0.27,0.11 0.38,0.19 0.35,0.27 0.39,0.76 0.57,1.13 0.25,0.51 0.53,1.06 0.51,1.64 -0.01,0.42 0,0.84 0.02,1.26 z"
         style="fill:url(#linear-gradient-43);stroke-width:0.829358"
         id="path67" />
      <path
         d="m 12.36,14.1 c 0.03,0.25 1.17,0.47 1.45,0.59 0.68,0.32 1.28,0.8 1.84,1.3 0.14,0.12 0.3,0.24 0.42,0.38 0.07,0.08 0.09,0.23 0.19,0.28 0.49,0.26 0.77,-0.72 0.98,-0.99 0.01,-0.02 0.03,-0.03 0.05,-0.03 0.02,0 0.04,0.01 0.05,0.03 0.15,0.16 0.28,0.36 0.37,0.56 0.06,0.08 0.16,-0.05 0.18,-0.14 0.07,-0.32 0.27,-0.61 0.55,-0.79 0.14,-0.09 0.55,-0.62 0.73,-0.34 l 0.63,0.92 c -0.39,-0.56 0.6,-2.4 1.27,-1.87 0.19,0.15 0.41,0.81 0.6,1.05 0.27,0.34 0.59,0.64 0.66,1.09 0.15,-0.86 0.16,-1.75 0.02,-2.62 -0.01,-0.08 -0.03,-0.16 0,-0.24 0.28,-1.11 4.13,-1.14 4.11,-0.72 -0.08,1.35 -0.14,2.77 0.44,4 l 0.87,-2.73 c 0.02,-0.06 0.04,-0.12 0.09,-0.16 0.07,-0.06 0.18,-0.06 0.27,-0.05 l 0.94,0.1 c 0.11,0.37 0.33,0.71 0.62,0.97 0.06,0.06 0.13,0.11 0.17,0.18 0.07,0.12 0.07,0.26 0.06,0.4 l -0.05,1.23 c 0,-0.2 0.33,-0.61 0.53,-0.66 0.46,-0.09 0.42,0.31 0.47,0.65 -0.03,-0.22 1.12,-0.53 1.28,-0.58 0.54,-0.18 1.04,-0.48 1.55,-0.75 0.43,-0.23 1.17,-0.44 1.51,-0.79 0.05,-0.02 0.57,-0.25 0.57,-0.3 v -0.13 c 0.16,-0.41 0.44,-1.71 0.18,-2.06 C 35.7,11.52 35.25,11.31 34.81,11.34 34.7,10.74 34.04,10.31 33.45,10.44 33.38,9.71 32.54,9.17 31.85,9.4 31.75,8.68 30.78,8.25 30.18,8.65 30,8.01 29.29,7.56 28.63,7.68 28.54,7.7 28.45,7.72 28.36,7.7 28.2,7.67 28.09,7.51 27.98,7.39 27.58,6.95 26.86,6.84 26.35,7.16 25.95,6.43 24.83,6.24 24.21,6.8 24.04,6.52 23.69,6.35 23.36,6.4 23.03,6.45 22.74,6.7 22.65,7.03 21.78,6.68 20.67,7.09 20.23,7.92 19.59,7.69 18.81,8.14 18.68,8.8 18.26,8.54 17.71,8.58 17.28,8.82 16.85,9.06 16.54,9.46 16.3,9.89 c -0.59,-0.17 -1.27,0.23 -1.41,0.83 -0.7,-0.12 -1.44,0.39 -1.58,1.09 -0.22,-0.13 -0.52,-0.02 -0.68,0.17 -0.16,0.19 -0.22,0.46 -0.25,0.71 -0.06,0.42 -0.07,0.85 -0.03,1.27 v 0.11 z"
         style="fill:url(#linear-gradient-44);stroke-width:0.829358"
         id="path68" />
      <path
         d="m 35.78,13.98 v 0.12 c 0,0.05 -0.52,0.28 -0.57,0.3 -0.34,0.34 -1.08,0.56 -1.52,0.79 -0.51,0.26 -1.01,0.57 -1.55,0.75 -0.07,0.02 -0.35,0.1 -0.62,0.2 -0.26,-0.1 -1.02,-0.5 -1.08,-1.54 -0.07,-1.26 0.98,-1.75 0.98,-1.75 0,0 0,-0.75 -0.56,-1.47 -0.57,-0.74 -1.5,-0.18 -1.5,-0.18 0,0 0.16,-1.17 -0.49,-1.59 -0.65,-0.43 -1.36,0.2 -1.36,0.2 0,0 -0.13,-0.59 -0.68,-0.85 -0.55,-0.25 -1.16,0 -1.16,0 0,0 -0.38,-1.06 -0.93,-1.06 -0.55,0 -1.04,0.74 -1.04,0.74 0,0 -0.52,-1.39 -1.14,-1.55 L 22.54,7.03 c 0,0 0.08,0.02 0.12,0.03 0.08,-0.32 0.37,-0.58 0.71,-0.63 0.32,-0.04 0.67,0.12 0.85,0.4 0.61,-0.56 1.74,-0.37 2.14,0.36 0.51,-0.31 1.23,-0.21 1.63,0.23 0.11,0.12 0.22,0.28 0.37,0.31 0.09,0.02 0.19,-0.01 0.28,-0.02 0.65,-0.11 1.37,0.33 1.55,0.98 0.6,-0.4 1.57,0.02 1.67,0.74 0.7,-0.23 1.54,0.32 1.6,1.05 0.6,-0.12 1.26,0.31 1.37,0.9 0.44,-0.03 0.88,0.19 1.14,0.54 0.26,0.35 -0.01,1.65 -0.18,2.06 z"
         style="fill:url(#linear-gradient-45);stroke-width:0.829358"
         id="path69" />
      <path
         d="m 12.13,14.1 c 0.03,0.25 1.23,0.48 1.51,0.61 1.14,0.52 2.1,1.56 3.06,2.34 -0.36,-0.3 0.22,-1.15 0.4,-1.37 0.01,-0.02 0.03,-0.03 0.05,-0.03 0.02,0 0.04,0.01 0.05,0.03 0.16,0.16 0.28,0.35 0.38,0.56 0.06,0.08 0.16,-0.05 0.18,-0.14 0.07,-0.32 0.28,-0.61 0.55,-0.78 0.14,-0.09 0.55,-0.61 0.74,-0.34 l 0.64,0.92 c -0.39,-0.56 0.61,-2.39 1.28,-1.86 0.19,0.15 0.41,0.81 0.61,1.05 0.27,0.34 0.45,0.19 0.61,0.35 0.15,-0.86 0.22,-1.01 0.08,-1.87 -0.01,-0.08 -0.03,-0.16 0,-0.24 0.16,-0.63 1.71,-1.1 2.21,-1.29 l 0.07,0.16 c 0.12,0.28 1.56,0.14 1.86,0.4 -0.08,1.35 -0.14,2.76 0.44,3.98 l 0.88,-2.72 c 0.02,-0.06 0.04,-0.12 0.09,-0.16 0.07,-0.06 0.18,-0.06 0.28,-0.05 l 0.95,0.1 c 0.11,0.37 0.33,0.71 0.62,0.97 0.06,0.06 0.13,0.11 0.17,0.18 0.07,0.12 0.07,0.26 0.06,0.4 l -0.05,1.22 c 0,-0.2 0.33,-0.61 0.54,-0.65 0.47,-0.09 0.42,0.31 0.47,0.65 -0.03,-0.21 1.13,-0.53 1.29,-0.58 0.54,-0.18 1.05,-0.48 1.57,-0.75 0.44,-0.23 1.18,-0.44 1.53,-0.78 0.05,-0.02 0.62,-0.26 0.62,-0.31 0,0 0.32,-1.43 -0.11,-2.19 -0.22,-0.38 -0.47,-0.55 -0.92,-0.52 -0.11,-0.6 -0.77,-1.03 -1.37,-0.9 C 33.4,9.77 32.56,9.22 31.86,9.45 31.76,8.73 30.78,8.3 30.17,8.71 29.99,8.07 29.27,7.63 28.61,7.74 28.52,7.76 28.42,7.78 28.33,7.76 28.17,7.73 28.06,7.57 27.95,7.45 27.55,7.01 26.82,6.91 26.31,7.22 25.91,6.49 24.77,6.3 24.15,6.86 23.97,6.58 23.62,6.41 23.29,6.46 22.96,6.51 22.67,6.76 22.58,7.08 21.7,6.73 20.59,7.14 20.14,7.97 19.5,7.74 18.71,8.19 18.58,8.85 18.16,8.59 17.6,8.63 17.17,8.87 c -0.43,0.24 -0.75,0.64 -0.98,1.07 -0.59,-0.17 -1.28,0.23 -1.42,0.83 -0.7,-0.12 -1.45,0.39 -1.59,1.08 -0.22,-0.13 -0.52,-0.02 -0.69,0.17 -0.17,0.19 -0.22,0.46 -0.26,0.71 -0.06,0.42 -0.11,0.83 -0.08,1.25 v 0.11 z"
         style="fill:none;stroke:#4e9a06;stroke-width:0.580551px;stroke-miterlimit:10"
         id="path70" />
      <path
         d="m 33.45,32.66 1.32,0.59 c 0.09,0.04 0.19,0.09 0.26,0.17 0.06,0.07 0.09,0.16 0.15,0.22 0.07,0.08 0.19,0.11 0.24,0.21 0.05,0.1 0.02,0.23 -0.04,0.31 -0.06,0.08 -0.16,0.14 -0.25,0.18 -0.29,0.15 -0.57,0.3 -0.88,0.38 -0.27,0.08 -0.55,0.1 -0.84,0.13 -0.12,0.01 -0.25,0.02 -0.35,-0.04 -0.15,-0.08 -0.21,-0.27 -0.27,-0.44 -0.14,-0.38 -0.34,-0.73 -0.58,-1.05 -0.06,-0.08 -0.12,-0.16 -0.13,-0.26 0,-0.13 0.1,-0.24 0.21,-0.31 0.11,-0.07 0.23,-0.1 0.32,-0.19 0.1,-0.1 0.23,-0.04 0.35,0 0.1,0.03 0.19,0.09 0.29,0.13 0.18,0.08 0.02,0 0.21,-0.03 z"
         style="fill:url(#linear-gradient-46);stroke-width:0.829358"
         id="path71" />
      <path
         d="m 34.96,33.96 -1.41,0.29 c -0.09,0.02 -0.19,0.04 -0.27,-0.02 -0.12,-0.07 -0.13,-0.21 -0.21,-0.31 -0.08,-0.1 -0.17,-0.17 -0.25,-0.26 -0.19,-0.25 -0.29,-0.57 -0.51,-0.81 0.06,-0.06 0.08,-0.15 0.1,-0.23 0.02,-0.09 0.04,-0.19 0.07,-0.28 0.04,-0.12 0.09,-0.26 0.2,-0.32 0.15,-0.08 0.37,-0.02 0.54,-0.03 0.22,-0.02 0.44,-0.01 0.68,0 0.32,0.03 0.45,-0.19 0.76,-0.15 0.03,0 0.16,0.8 0.29,0.9 0.07,0.05 0.16,0.09 0.21,0.16 0.07,0.1 0.05,0.24 0.03,0.36 -0.03,0.18 0.02,0.64 -0.23,0.7 z"
         style="fill:#4e9a06;stroke-width:0.829358"
         id="path72" />
      <path
         d="m 34.96,33.23 h 0.03 l -1.44,0.19 c -0.09,0.01 -0.19,0.02 -0.27,-0.01 -0.08,-0.03 -0.13,-0.1 -0.18,-0.17 -0.1,-0.15 -0.17,-0.33 -0.24,-0.5 l -0.18,-0.47 c -0.02,-0.06 -0.05,-0.13 -0.03,-0.2 0.03,-0.16 0.25,-0.19 0.41,-0.18 l 0.84,0.05 c 0.32,0.02 0.45,-0.12 0.76,-0.1 0.04,0.36 0.37,0.63 0.48,0.97 0.01,0.04 0.03,0.09 0.02,0.14 0,0.18 -0.04,0.2 -0.21,0.28 z"
         style="fill:url(#linear-gradient-47);stroke-width:0.829358"
         id="path73" />
      <path
         d="m 23.5,29.56 c 0,0.05 0,0.11 -0.03,0.15 -0.02,0.04 -0.05,0.07 -0.09,0.11 l -0.42,0.41 c 0,0 -0.08,0.07 -0.13,0.07 -0.06,0 -0.1,-0.05 -0.14,-0.09 -0.15,-0.19 -0.27,-0.4 -0.36,-0.62 -0.02,-0.04 -0.04,-0.09 -0.08,-0.12 -0.04,-0.02 -0.09,-0.02 -0.13,-0.02 l -0.67,0.03 c -0.28,-0.41 -0.48,-0.87 -0.59,-1.36 0,-0.04 -0.02,-0.07 0,-0.11 0.02,-0.08 0.1,-0.13 0.18,-0.16 l 0.52,-0.24 c 0.16,0.23 0.34,0.45 0.54,0.66 0.05,0.05 0.1,0.1 0.17,0.13 0.07,0.02 0.15,0 0.23,0 0.3,-0.04 0.63,0.05 0.85,0.26 0.26,0.26 0.17,0.57 0.16,0.9 z"
         style="fill:url(#linear-gradient-48);stroke-width:0.829358"
         id="path74" />
      <path
         d="m 22.51,28.92 c 0.05,0.3 0.16,0.59 0.31,0.86 0.15,-0.12 0.38,-0.06 0.54,-0.15 0.12,-0.07 0.19,-0.2 0.21,-0.34 0.02,-0.14 0,-0.28 -0.02,-0.42 -0.04,-0.23 -0.08,-0.47 -0.23,-0.65 -0.15,-0.18 -0.26,-0.14 -0.49,-0.17 -0.12,-0.02 -0.21,-0.12 -0.27,-0.23 -0.06,-0.11 -0.07,-0.23 -0.1,-0.35 -0.03,-0.12 -0.08,-0.23 -0.14,-0.34 0,-0.02 -0.02,-0.04 -0.04,-0.05 -0.02,-0.01 -0.05,0 -0.07,0 -0.27,0.03 -0.66,-0.01 -0.82,0.23 -0.18,0.26 -0.15,0.72 -0.04,1.01 0.1,0.26 0.27,0.5 0.25,0.77 0.31,-0.03 0.61,-0.08 0.91,-0.16 z"
         style="fill:#4e9a06;stroke-width:0.829358"
         id="path75" />
      <path
         d="m 22.76,28.71 c 0.09,0.18 0.09,0.46 0.16,0.63 0,0.03 0.02,0.06 0.05,0.07 0.02,0.01 0.06,0 0.08,0 l 0.29,-0.05 c 0,0 0.07,-0.01 0.09,-0.04 0.01,-0.02 0.01,-0.05 0,-0.08 -0.03,-0.3 -0.01,-0.69 -0.11,-0.98 -0.09,-0.27 -0.25,-0.18 -0.5,-0.22 -0.12,-0.02 -0.21,-0.12 -0.27,-0.23 -0.06,-0.11 -0.07,-0.23 -0.1,-0.35 -0.03,-0.12 -0.08,-0.23 -0.14,-0.34 0,-0.02 -0.02,-0.04 -0.04,-0.05 -0.02,-0.01 -0.05,0 -0.07,0 l -0.59,0.07 c -0.06,0 -0.13,0.02 -0.16,0.08 -0.02,0.04 -0.01,0.08 0,0.12 0.06,0.39 0.09,0.83 0.23,1.19 0,0.01 0.01,0.03 0.03,0.04 0.01,0 0.02,0 0.03,0 0.24,-0.01 0.78,-0.13 0.94,0.03 0.03,0.03 0.05,0.06 0.07,0.1 z"
         style="fill:url(#linear-gradient-49);stroke-width:0.829358"
         id="path76" />
      <path
         d="m 28.09,32.28 c 0.57,0 1.13,0.21 1.59,0.6 0.14,0.12 0.28,0.26 0.33,0.45 0.1,0.37 -0.15,0.74 -0.39,1.02 L 25.4,33.04 C 25.28,33 25.14,32.95 25.08,32.82 c -0.04,-0.09 -0.03,-0.2 -0.01,-0.3 0.06,-0.37 0.23,-0.71 0.47,-0.96 0.11,-0.11 0.08,-0.13 0.16,-0.27 0.12,0.17 0.31,0.26 0.5,0.32 0.19,0.06 0.38,0.07 0.57,0.14 0.23,0.08 0.44,0.24 0.67,0.33 0.31,0.13 0.37,0 0.65,0.21 z"
         style="fill:url(#linear-gradient-50);stroke-width:0.829358"
         id="path77" />
      <path
         d="m 25.33,31.55 0.03,0.74 c 0,0 0,0.09 0.04,0.13 0.03,0.03 0.08,0.04 0.12,0.06 0.11,0.03 0.2,0.11 0.29,0.17 0.22,0.14 0.48,0.2 0.74,0.26 1.04,0.24 2.08,0.45 3.13,0.64 l 0.04,-0.96 c 0,-0.06 0,-0.11 -0.01,-0.17 C 29.66,32.29 29.5,32.23 29.36,32.19 28.63,32 27.89,31.86 27.15,31.76 l -1.82,-0.2 z"
         style="fill:#4e9a06;stroke-width:0.829358"
         id="path78" />
      <path
         d="M 28.17,30.56 27.77,31 c -0.05,0.06 -0.11,0.12 -0.18,0.15 -0.15,0.06 -0.32,-0.02 -0.47,-0.09 -0.38,-0.17 -0.8,-0.26 -1.22,-0.25 -0.03,0 -0.06,0 -0.09,0.01 -0.04,0.02 -0.06,0.06 -0.09,0.09 l -0.4,0.64 c 0.35,0.26 0.83,0.43 1.25,0.56 0.53,0.18 1.01,0.31 1.56,0.45 0.29,0.08 0.56,0.24 0.86,0.28 1.92,0.25 -0.61,-2.53 -0.83,-2.29 z"
         style="fill:url(#linear-gradient-51);stroke-width:0.829358"
         id="path79" />
      <path
         d="m 11.88,35.89 c 0.44,0.17 0.91,0.23 1.38,0.19 0.12,-0.01 0.24,-0.03 0.35,0 0.15,0.04 0.26,0.16 0.37,0.27 0.19,0.19 0.37,0.39 0.49,0.64 0.13,0.28 0.27,1.04 0.08,1.31 -0.19,0.27 -1.13,0.42 -1.46,0.52 -0.32,0.1 -1.26,-0.91 -1.43,-1.15 -0.03,-0.03 -0.05,-0.07 -0.06,-0.11 -0.01,-0.06 0,-0.11 0.02,-0.17 0.14,-0.49 0.23,-0.99 0.27,-1.49 z"
         style="fill:#4e9a06;stroke-width:0.829358"
         id="path80" />
      <path
         d="m 11.86,36 1.88,0.09 c 0,0 0.07,0 0.1,0.02 0.04,0.02 0.07,0.07 0.09,0.11 0.27,0.49 0.5,0.99 0.68,1.52 0.01,0.1 -0.11,0.17 -0.21,0.19 -0.44,0.12 -0.88,0.23 -1.32,0.34 -0.02,0 -0.04,0 -0.05,0 -0.02,0 -0.04,-0.02 -0.06,-0.03 -0.32,-0.27 -0.8,-0.55 -0.93,-0.96 C 11.99,37.12 12.01,36 11.86,35.99 Z"
         style="fill:url(#linear-gradient-52);stroke-width:0.829358"
         id="path81" />
      <path
         d="m 35.33,34.8 c 0.18,-0.05 0.49,-0.16 0.67,-0.11 0.37,0.1 0.73,0.16 0.99,0.48 0.12,0.15 0.33,0.59 0.25,0.78 -0.08,0.19 -0.62,0.43 -0.8,0.54 -0.18,0.11 -0.9,-0.36 -1.04,-0.47 -0.02,-0.02 -0.04,-0.03 -0.05,-0.06 -0.06,-0.11 -0.03,-0.37 -0.05,-0.5 -0.02,-0.18 0,-0.37 -0.04,-0.55 0,-0.02 0,-0.05 0,-0.07 0.01,-0.03 0.04,-0.04 0.07,-0.04 z"
         style="fill:#4e9a06;stroke-width:0.829358"
         id="path82" />
      <path
         d="m 35.3,34.78 1.15,-0.24 c 0,0 0.04,0 0.06,0 0.03,0 0.05,0.03 0.07,0.05 0.24,0.25 0.45,0.52 0.65,0.81 0.03,0.06 -0.04,0.12 -0.1,0.15 -0.25,0.14 -0.49,0.28 -0.74,0.41 -0.01,0 -0.02,0.01 -0.03,0.01 -0.01,0 -0.03,0 -0.04,-0.01 -0.23,-0.11 -0.57,-0.2 -0.71,-0.43 -0.06,-0.09 -0.22,-0.77 -0.31,-0.75 z"
         style="fill:url(#linearGradient123);stroke-width:0.829358"
         id="path83" />
      <path
         d="m 33.29,37.1 c -0.16,0 -0.3,0.11 -0.44,0.18 -0.76,0.39 -1.6,-0.12 -2.41,-0.07 -0.05,0 -0.1,0.01 -0.13,0.05 -0.03,0.03 -0.05,0.09 -0.06,0.14 -0.09,0.34 -0.12,0.78 -0.35,1.06 l -0.81,0.96 c 1.16,0.27 2.39,0.51 3.48,0.98 0.52,-0.31 2.31,-0.92 2.12,-1.89 C 34.6,38.03 33.65,37.1 33.3,37.1 Z"
         style="fill:#4e9a06;stroke-width:0.829358"
         id="path84" />
      <path
         d="m 33.29,37.1 c -0.16,0 -0.3,0.08 -0.44,0.14 -0.76,0.29 -1.6,-0.09 -2.41,-0.05 -0.05,0 -0.1,0 -0.13,0.04 -0.03,0.03 -0.05,0.06 -0.06,0.1 -0.21,0.56 -0.39,1.14 -0.52,1.73 0.96,0.02 1.92,0.18 2.84,0.48 0.52,-0.23 2.31,-0.68 2.12,-1.39 -0.09,-0.36 -1.04,-1.04 -1.39,-1.04 z"
         style="fill:url(#linear-gradient-54);stroke-width:0.829358"
         id="path85" />
      <path
         d="m 13.29,30.24 -0.02,0.56 c 0,0 0,0.06 0.01,0.09 0.01,0.03 0.04,0.05 0.07,0.07 0.24,0.19 0.46,0.41 0.65,0.65 0.26,-0.2 0.54,-0.39 0.83,-0.55 0.08,-0.05 0.16,-0.09 0.21,-0.17 0.13,-0.21 -0.07,-0.49 0.04,-0.71 -0.25,-0.11 -0.55,-0.11 -0.81,-0.01 l -0.97,0.07 z"
         style="fill:#4e9a06;stroke-width:0.829358"
         id="path86" />
      <path
         d="m 13.3,30.2 c 0,0 -0.04,0.05 -0.04,0.08 0,0.02 0.02,0.03 0.03,0.04 0.21,0.18 0.43,0.34 0.65,0.5 0.03,0.02 0.05,0.03 0.08,0.03 0.03,0 0.05,-0.02 0.08,-0.03 0.31,-0.22 0.66,-0.42 0.95,-0.67 -0.15,-0.28 -0.39,-0.53 -0.68,-0.68 -0.31,-0.16 -0.27,-0.16 -0.53,0.1 -0.19,0.19 -0.37,0.41 -0.55,0.62 z"
         style="fill:url(#linear-gradient-55);stroke-width:0.829358"
         id="path87" />
      <path
         d="m 19.06,34.98 c 0.62,-0.29 1.32,-0.35 1.99,-0.18 0.15,0.04 0.3,0.09 0.41,0.2 0.11,0.11 0.17,0.28 0.11,0.42 -0.06,0.14 -0.2,0.22 -0.33,0.3 -0.7,0.4 -1.3,0.96 -1.99,1.36 -0.69,0.4 -1.56,0.65 -2.31,0.36 -0.07,-0.03 -0.14,-0.06 -0.2,-0.12 -0.15,-0.16 -0.08,-0.42 0.01,-0.63 0.22,-0.48 0.53,-0.92 0.9,-1.3 0,-0.04 -0.03,0.02 0,0 0.42,-0.25 0.96,-0.21 1.4,-0.42 z"
         style="fill:url(#linear-gradient-56);stroke-width:0.829358"
         id="path88" />
      <path
         d="m 19.31,33.47 c -0.24,0.21 -0.5,0.38 -0.75,0.58 -0.14,0.11 -0.79,0.53 -0.8,0.7 -0.02,0.34 -0.04,0.69 -0.22,0.97 -0.08,0.12 -0.18,0.23 -0.25,0.36 -0.1,0.18 -0.3,0.8 -0.18,1.01 0.14,0.24 0.81,0.2 1.06,0.11 0.43,-0.15 0.86,-0.47 1.26,-0.68 0.4,-0.22 0.33,-0.71 0.9,-0.89 0.2,-0.06 0.74,-0.09 0.86,-0.27 0.07,-0.11 0,-0.65 -0.03,-0.8 -0.12,-0.54 -0.59,-1.05 -1.12,-1.23 -0.36,-0.12 -0.55,-0.02 -0.73,0.14 z"
         style="fill:#4e9a06;stroke-width:0.829358"
         id="path89" />
      <path
         d="m 19.28,33.4 -1.47,1.21 0.3,0.62 c 0,0 0.05,0.1 0.04,0.15 -0.01,0.05 -0.05,0.09 -0.09,0.12 l -0.88,0.78 c 0.19,-0.03 0.33,0.17 0.51,0.21 0.13,0.03 0.27,-0.02 0.39,-0.08 l 1.35,-0.58 c 0.06,-0.03 0.12,-0.05 0.16,-0.11 0.03,-0.04 0.04,-0.09 0.06,-0.14 l 0.16,-0.63 c 0.28,-0.03 1.18,0.02 1.34,-0.19 0.14,-0.18 0,-0.63 -0.13,-0.79 -0.35,-0.46 -1.26,-0.98 -1.74,-0.59 z"
         style="fill:url(#linearGradient124);stroke-width:0.829358"
         id="path90" />
      <path
         d="m 27.44,36.37 c 0,0.07 0.02,0.13 0.03,0.2 0.07,0.26 0.11,0.54 0.12,0.81 0,0.11 0.03,0.29 0.15,0.34 0.06,0.02 0.12,0.03 0.18,0.03 0.61,0.01 1.23,0.02 1.84,-0.02 0.02,0 0.04,0 0.06,-0.02 0.03,-0.02 0.02,-0.07 0.02,-0.1 -0.06,-0.28 -0.23,-0.52 -0.44,-0.71 -0.17,-0.16 -0.38,-0.33 -0.61,-0.37 -0.29,-0.05 -0.55,-0.21 -0.8,-0.35 -0.09,-0.05 -0.2,-0.11 -0.31,-0.08 -0.12,0.03 -0.23,0.15 -0.24,0.28 z"
         style="fill:url(#linear-gradient-58);stroke-width:0.829358"
         id="path91" />
      <path
         d="m 27.81,35.62 c -0.18,0.53 -0.19,1.12 -0.03,1.65 0.59,0 1.18,0.08 1.76,0.22 -0.01,-0.23 0.08,-0.47 0.03,-0.69 -0.07,-0.31 -0.38,-0.5 -0.68,-0.58 z"
         style="fill:#4e9a06;stroke-width:0.829358"
         id="path92" />
      <path
         d="m 29.6,36.89 c -0.57,-0.22 -1.17,-0.37 -1.74,-0.56 0.14,-0.25 -0.23,-0.45 -0.07,-0.69 0.11,-0.16 0.44,-0.11 0.6,-0.09 0.29,0.04 0.57,0.14 0.81,0.3 0.43,0.29 0.27,0.58 0.4,1.03 z"
         style="fill:url(#linear-gradient-59);stroke-width:0.829358"
         id="path93" />
      <path
         d="m 34.94,38.28 c 0,0 0.01,0.08 0.02,0.12 0.05,0.16 0.07,0.33 0.07,0.49 0,0.07 0.02,0.16 0.08,0.2 0.09,0.05 0.17,0 0.25,-0.03 0.24,-0.09 0.49,-0.15 0.73,-0.24 0.06,-0.02 0.13,-0.06 0.15,-0.12 0,-0.02 0,-0.05 0,-0.07 0,-0.06 -0.01,-0.12 -0.04,-0.17 -0.03,-0.05 -0.07,-0.1 -0.13,-0.11 -0.03,0 -0.06,0 -0.09,0 -0.12,0 -0.26,0.03 -0.37,0 -0.06,-0.01 -0.13,-0.05 -0.19,-0.08 -0.04,-0.02 -0.12,-0.09 -0.17,-0.09 -0.06,-0.03 -0.12,-0.07 -0.19,-0.05 -0.07,0.02 -0.14,0.09 -0.15,0.17 z"
         style="fill:url(#linear-gradient-60);stroke-width:0.829358"
         id="path94" />
      <path
         d="m 35.17,37.83 c -0.11,0.32 -0.12,0.68 -0.02,1.01 0.1,0 0.21,0.02 0.31,0 0.1,-0.02 0.21,-0.04 0.32,-0.06 0.04,0 0.09,-0.02 0.12,-0.03 0.06,-0.03 0.12,-0.08 0.16,-0.13 0.01,-0.01 0.03,-0.03 0.04,-0.05 0,-0.01 0.01,-0.03 0.01,-0.04 0.03,-0.11 0.04,-0.22 0.04,-0.34 0,-0.02 0,-0.04 -0.02,-0.05 -0.01,0 -0.02,0 -0.04,-0.01 -0.07,0 -0.13,0 -0.2,0 -0.06,0 -0.14,0.02 -0.19,0.01 C 35.63,38.12 35.54,38.05 35.47,38.01 35.45,38 35.14,37.84 35.14,37.83 Z"
         style="fill:#4e9a06;stroke-width:0.829358"
         id="path95" />
      <path
         d="m 36.05,38.4 c 0,0 -0.02,0.02 -0.03,0.02 -0.01,0 -0.03,0 -0.04,0 -0.22,-0.01 -0.44,-0.03 -0.68,-0.05 0,0 -0.01,-0.02 -0.02,-0.03 -0.05,-0.12 -0.21,-0.38 -0.12,-0.5 0.07,-0.1 0.27,-0.07 0.36,-0.06 0.17,0.02 0.35,0.09 0.49,0.19 0.06,0.04 0.16,0.12 0.16,0.2 0,0.07 -0.07,0.17 -0.12,0.23 z"
         style="fill:url(#linear-gradient-61);stroke-width:0.829358"
         id="path96" />
      <path
         d="m 9.56,34.92 0.05,0.66 0.59,0.22 c 0,0 0.05,0.02 0.08,0 0.01,0 0.02,-0.02 0.03,-0.03 l 0.1,-0.11 c 0.09,-0.1 0.18,-0.2 0.24,-0.31 0.1,-0.2 0.09,-0.44 -0.01,-0.63 -0.24,0.09 -0.49,0.15 -0.75,0.18 H 9.56 Z"
         style="fill:#4e9a06;stroke-width:0.829358"
         id="path97" />
      <path
         d="m 9.67,35.21 c 0,0 0.05,0.01 0.08,0.01 0.18,0 0.33,0.05 0.5,0.12 l 0.46,-0.55 c -0.05,-0.1 -0.13,-0.22 -0.25,-0.22 -0.04,0 -0.08,0.02 -0.12,0.04 l -0.44,0.2 c 0,0 -0.34,0.13 -0.34,0.13 0.04,0.11 0.01,0.23 0.11,0.27 z"
         style="fill:url(#linear-gradient-62);stroke-width:0.829358"
         id="path98" />
      <path
         d="m 33.83,30.48 c -0.22,0.07 -0.43,0.16 -0.62,0.28 0.08,0.19 0.17,0.37 0.28,0.55 0.08,0.13 0.18,0.26 0.32,0.33 0.02,0 0.04,0.02 0.06,0.02 0.13,0.03 0.27,-0.04 0.38,-0.12 0.12,-0.08 0.24,-0.16 0.34,-0.27 0.07,-0.08 0.13,-0.2 0.08,-0.29 -0.02,-0.04 -0.06,-0.07 -0.09,-0.11 -0.03,-0.04 -0.05,-0.09 -0.03,-0.13 -0.2,-0.05 -0.26,-0.2 -0.45,-0.28 -0.09,-0.04 -0.21,-0.02 -0.29,0.04 0.02,0 0,-0.01 0.02,-0.02 z"
         style="fill:url(#linear-gradient-63);stroke-width:0.829358"
         id="path99" />
      <path
         d="m 33.43,30.34 -0.05,0.24 c 0,0 -0.02,0.08 -0.01,0.11 0,0.07 0.05,0.12 0.09,0.17 0.15,0.2 0.29,0.4 0.41,0.62 l 0.3,-0.17 c 0.07,-0.04 0.13,-0.08 0.19,-0.13 0.14,-0.13 0.2,-0.34 0.21,-0.53 -0.2,-0.04 -0.39,-0.11 -0.58,-0.19 z"
         style="fill:#4e9a06;stroke-width:0.829358"
         id="path100" />
      <path
         d="m 34.15,30.15 c 0,0 0.06,0 0.08,0.02 0.04,0.03 0.05,0.08 0.07,0.13 0.07,0.13 0.25,0.19 0.29,0.33 0.04,0.15 -0.12,0.28 -0.26,0.36 -0.07,0.04 -0.14,0.08 -0.22,0.06 -0.06,-0.01 -0.1,-0.06 -0.14,-0.1 -0.18,-0.19 -0.39,-0.38 -0.55,-0.58 0.25,-0.21 0.39,-0.25 0.73,-0.22 z"
         style="fill:url(#linear-gradient-64);stroke-width:0.829358"
         id="path101" />
      <path
         d="m 14.51,39.61 c -0.2,0.11 -0.38,0.25 -0.54,0.41 0.12,0.17 0.25,0.32 0.4,0.47 0.11,0.11 0.23,0.22 0.39,0.25 0.02,0 0.04,0 0.06,0 0.14,0 0.25,-0.1 0.34,-0.2 0.1,-0.1 0.2,-0.21 0.27,-0.33 0.05,-0.09 0.09,-0.22 0.01,-0.3 -0.03,-0.04 -0.08,-0.06 -0.11,-0.08 -0.03,-0.02 -0.07,-0.08 -0.05,-0.12 -0.2,0 -0.3,-0.14 -0.5,-0.17 -0.1,-0.02 -0.21,0.02 -0.28,0.1 0.02,-0.01 0,-0.01 0.02,-0.03 z"
         style="fill:url(#linear-gradient-65);stroke-width:0.829358"
         id="path102" />
      <path
         d="m 14.09,39.56 v 0.24 c 0,0 0,0.08 0.02,0.11 0.02,0.06 0.08,0.11 0.13,0.15 0.19,0.16 0.37,0.33 0.54,0.51 l 0.25,-0.24 c 0.06,-0.05 0.11,-0.1 0.15,-0.17 0.11,-0.16 0.12,-0.37 0.09,-0.57 -0.2,0 -0.41,-0.02 -0.61,-0.06 h -0.57 z"
         style="fill:#4e9a06;stroke-width:0.829358"
         id="path103" />
      <path
         d="m 14.74,39.29 c 0.22,0 0.44,0.1 0.54,0.3 0.07,0.14 -0.05,0.3 -0.17,0.41 -0.06,0.05 -0.12,0.11 -0.2,0.11 -0.06,0 -0.11,-0.03 -0.16,-0.07 -0.22,-0.14 -0.47,-0.27 -0.65,-0.44 0.12,-0.2 0.39,-0.32 0.65,-0.31 z"
         style="fill:url(#linear-gradient-66);stroke-width:0.829358"
         id="path104" />
      <path
         d="m 15.89,38.33 c -0.15,0.53 -0.05,1.1 0.06,1.64 0.01,0.06 0.02,0.11 0.06,0.16 0.04,0.05 0.1,0.07 0.15,0.09 0.44,0.2 0.69,0.67 0.9,1.11 0.79,-0.23 1.69,-0.45 2.4,-0.04 0.09,0.05 0.19,0.12 0.29,0.14 0.16,0.03 0.33,-0.04 0.47,-0.11 1.04,-0.54 1.97,-1.35 3.12,-1.57 l 0.11,-1.44 c -1.85,-0.27 -3.72,0.53 -5.58,0.35 l -1.99,-0.33 z"
         style="fill:#4e9a06;stroke-width:0.829358"
         id="path105" />
      <path
         d="m 20.89,40.16 c -0.8,0.49 -1.33,0.09 -2.17,0 -0.35,-0.04 -0.71,0.05 -1.06,0.07 -0.35,0.02 -0.75,-0.04 -0.97,-0.31 -0.08,-0.1 -0.13,-0.23 -0.23,-0.32 -0.09,-0.08 -0.22,-0.13 -0.32,-0.2 -0.32,-0.22 -0.35,-0.66 -0.35,-1.03 0,-0.07 0,-0.14 0.05,-0.19 0.04,-0.04 0.11,-0.06 0.17,-0.07 0.48,-0.11 0.92,-0.29 1.2,-0.66 0.26,-0.34 0.69,-0.56 1.15,-0.47 0.3,0.06 0.59,0.24 0.9,0.19 0.28,-0.05 0.49,-0.27 0.77,-0.33 0.26,-0.06 0.53,0.04 0.76,0.17 0.23,0.13 0.44,0.28 0.7,0.36 0.45,0.14 0.94,0 1.39,-0.15 l 0.59,1.13 c 0,0 0.05,0.09 0.04,0.14 0,0.05 -0.03,0.1 -0.06,0.14 -0.33,0.46 -0.96,0.62 -1.48,0.88 -0.38,0.19 -0.72,0.44 -1.07,0.66 z"
         style="fill:url(#linear-gradient-67);stroke-width:0.829358"
         id="path106" />
      <g
         id="g108"
         style="stroke-width:0.829358">
        <path
           d="m 23.36,39.69 c -0.14,0.04 -0.27,0.12 -0.41,0.15 -0.19,0.05 -0.39,0.04 -0.57,0.1 -0.22,0.07 -0.47,0.3 -0.5,0.54 -0.02,0.22 0.17,0.29 0.3,0.45 0.34,0.4 0.67,0.81 1.24,0.85 0.23,0.02 0.47,-0.05 0.69,-0.11 l 1.38,-0.38 c 0.12,-0.03 0.24,-0.06 0.36,-0.02 0.14,0.05 0.22,0.18 0.34,0.27 0.39,0.31 0.96,0.03 1.37,-0.25 0.28,-0.19 0.63,-0.29 0.93,-0.46 0.15,-0.09 0.32,-0.19 0.43,-0.33 0.14,-0.2 0.05,-0.25 0.02,-0.45 -0.02,-0.14 -0.05,-0.28 -0.08,-0.42 -0.02,-0.08 -0.04,-0.15 -0.09,-0.21 -0.11,-0.13 -0.22,-0.04 -0.34,-0.08 -0.14,-0.05 -0.3,-0.27 -0.39,-0.38 -0.24,-0.28 -0.42,-0.59 -0.61,-0.9 -0.16,0.1 -0.16,0.35 -0.28,0.49 -0.04,0.04 -0.08,0.07 -0.13,0.1 -0.02,0.01 -0.05,0.03 -0.07,0.04 -0.43,0.21 -0.84,0.46 -1.28,0.64 -0.17,0.07 -0.35,0.17 -0.53,0.22 -0.24,0.07 -0.53,0.02 -0.77,0.02 -0.05,0 -0.1,0 -0.15,0.02 -0.07,0.03 -0.12,0.1 -0.19,0.11 -0.1,0 -0.19,-0.06 -0.29,-0.06 -0.11,0 -0.26,0.05 -0.37,0.08 z"
           style="fill:#4e9a06;stroke-width:0.829358"
           id="path107" />
        <path
           d="m 27.45,37.5 c -0.02,-0.06 -0.04,-0.12 -0.1,-0.16 -0.06,-0.04 -0.14,-0.02 -0.21,0 l -1.84,0.41 c -0.28,0.06 -0.6,0.16 -0.71,0.42 -0.07,0.15 -0.04,0.33 -0.09,0.49 -0.1,0.35 -0.47,0.53 -0.8,0.66 -0.51,0.2 -1.03,0.38 -1.55,0.53 0.37,0.47 0.81,0.97 1.4,1.01 0.23,0.02 0.47,-0.05 0.69,-0.11 l 1.38,-0.38 c 0.12,-0.03 0.24,-0.06 0.36,-0.02 0.14,0.05 0.22,0.18 0.34,0.27 0.39,0.31 0.96,0.03 1.37,-0.25 l 0.69,-0.47 c 0.11,-0.08 0.23,-0.16 0.3,-0.28 0.1,-0.17 0.06,-0.41 -0.08,-0.55 C 28.46,38.93 28.23,38.93 28.05,39 27.76,38.55 27.62,38.02 27.44,37.51 Z"
           style="fill:url(#linear-gradient-68);stroke-width:0.829358"
           id="path108" />
      </g>
      <path
         d="m 22.33,35.01 -0.03,0.92 c 0,0.08 0,0.17 0.03,0.24 0.03,0.07 0.1,0.12 0.16,0.16 l 2.04,1.53 c 0,0 0.07,0.05 0.11,0.05 0.03,0 0.05,-0.02 0.07,-0.03 l 1.36,-0.9 c 0.13,-0.09 0.27,-0.18 0.33,-0.33 0.04,-0.1 0.04,-0.21 0.04,-0.32 v -0.68 c 0,-0.06 0,-0.13 -0.05,-0.17 -0.04,-0.04 -0.1,-0.03 -0.16,-0.03 -0.73,0.03 -1.46,-0.04 -2.17,-0.21 -0.21,-0.05 -0.43,-0.11 -0.64,-0.06 l -1.11,-0.15 z"
         style="fill:#4e9a06;stroke-width:0.829358"
         id="path109" />
      <path
         d="m 24.87,34.39 c 0.3,0.32 0.74,0.5 1.18,0.47 0.06,0 0.14,0 0.18,0.05 0.02,0.03 0.02,0.06 0.02,0.09 0.03,0.26 0.22,0.49 0.21,0.75 0,0.29 -0.26,0.52 -0.5,0.69 -0.32,0.23 -0.66,0.44 -1.02,0.62 -0.04,0.02 -0.08,0.04 -0.12,0.04 -0.06,0 -0.11,-0.03 -0.16,-0.06 -0.86,-0.56 -1.71,-0.8 -2.32,-1.7 -0.02,-0.03 -0.04,-0.07 -0.04,-0.1 0,-0.04 0.02,-0.08 0.04,-0.11 0.19,-0.31 0.48,-0.74 0.86,-0.84 0.25,-0.07 0.55,0.06 0.81,0.03 0.35,-0.03 0.59,-0.21 0.86,0.09 z"
         style="fill:url(#linear-gradient-69);stroke-width:0.829358"
         id="path110" />
      <path
         d="m 23.88,42.03 c -0.83,0.19 -1.74,-0.1 -2.32,-0.72 -0.07,-0.08 -0.15,-0.17 -0.26,-0.2 -0.1,-0.02 -0.2,0.02 -0.29,0.06 l -1.04,0.46 c -0.09,0.04 -0.18,0.08 -0.24,0.15 -0.2,0.24 0.04,0.6 0.3,0.78 0.81,0.58 1.85,0.8 2.85,0.77 0.65,-0.02 1.32,-0.06 1.95,-0.23 0.34,-0.09 0.63,-0.26 0.97,-0.33 0.34,-0.07 0.7,-0.12 0.97,-0.38 0.06,-0.06 0.11,-0.14 0.06,-0.21 -0.02,-0.03 -0.05,-0.04 -0.09,-0.06 -0.59,-0.26 -0.98,-0.44 -1.63,-0.37 -0.42,0.05 -0.82,0.17 -1.23,0.26 z"
         style="fill:url(#linear-gradient-70);stroke-width:0.829358"
         id="path111" />
      <path
         d="m 31.43,16.18 c -0.29,0.1 -0.56,0.23 -0.56,0.33 -0.05,-0.34 -0.01,-0.74 -0.48,-0.64 -0.2,0.04 -0.52,0.46 -0.53,0.66 0.02,-0.42 0.04,-0.82 0.05,-1.23 0.01,-0.13 0.01,-0.28 -0.06,-0.4 -0.04,-0.07 -0.1,-0.12 -0.17,-0.18 -0.29,-0.26 -0.51,-0.6 -0.61,-0.98 -0.32,-0.03 -0.63,-0.07 -0.94,-0.1 -0.09,-0.01 -0.21,-0.02 -0.28,0.04 -0.04,0.04 -0.06,0.1 -0.08,0.17 -0.29,0.91 -0.58,1.83 -0.87,2.74 -0.58,-1.22 -0.52,-2.65 -0.44,-4.01 0.02,-0.42 -3.83,-0.38 -4.11,0.73 -0.02,0.08 -0.01,0.17 0,0.24 0.13,0.87 0.13,1.75 -0.02,2.63 -0.07,-0.45 -0.39,-0.76 -0.66,-1.09 -0.19,-0.25 -0.42,-0.9 -0.6,-1.06 -0.66,-0.54 -1.65,1.3 -1.27,1.87 -0.21,-0.31 -0.43,-0.62 -0.63,-0.92 -0.19,-0.27 -0.59,0.25 -0.73,0.34 -0.28,0.18 -0.48,0.47 -0.55,0.79 -0.02,0.09 -0.12,0.22 -0.19,0.15 -0.08,-0.21 -0.22,-0.4 -0.37,-0.57 -0.01,-0.01 -0.03,-0.03 -0.05,-0.03 -0.02,0.01 -0.03,0.02 -0.04,0.04 -0.22,0.26 -0.5,1.25 -0.99,0.99 -0.09,-0.05 -0.12,-0.21 -0.19,-0.29 -0.12,-0.13 -0.28,-0.26 -0.43,-0.37 -0.23,-0.2 -0.46,-0.39 -0.7,-0.58 0.08,-0.26 0.19,-0.49 0.33,-0.57 0.46,-0.26 0.91,0.35 0.91,0.35 0,0 0,-1.1 0.51,-1.48 0.52,-0.39 1.07,0.26 1.07,0.26 0,0 -0.03,-0.72 0.58,-1.27 0.62,-0.55 1.33,-0.26 1.33,-0.26 0,0 0.1,-0.81 0.52,-1.07 0.43,-0.26 1.1,0.13 1.1,0.13 0,0 0.03,-0.61 0.36,-1.04 0.72,-0.93 1.45,-0.09 1.45,-0.09 0.35,-0.72 1.01,-0.94 1.45,-0.36 0.32,0.43 0.39,0.68 0.39,0.68 0,0 0.29,-0.61 1.03,-0.35 0.75,0.26 0.98,1.26 0.98,1.26 0,0 0.35,-0.42 1.13,-0.06 0.78,0.35 0.87,1.36 0.87,1.36 0,0 0.87,-0.56 1.2,0.32 0.19,0.52 0.28,1.37 0.28,1.37 0,0 0.27,-0.5 0.85,-0.13 0.38,0.23 0.26,1.13 0.13,1.71 z"
         style="fill:#4e9a06;stroke-width:0.829358"
         id="path112" />
      <path
         d="m 15.64,15.2 -0.32,0.52 C 14.85,15.33 14.37,14.95 13.81,14.69 13.54,14.57 12.4,14.36 12.37,14.1 L 12.35,14 c -0.02,-0.3 -0.02,-0.6 -0.01,-0.9 v 0 c 0.29,-0.48 0.74,-0.43 1.07,0.04 0,0 0.21,-0.75 0.79,-0.52 0.57,0.23 0.54,1.04 0.54,1.04 0,0 0.36,-0.33 0.78,0.09 0.43,0.42 0.13,1.45 0.13,1.45 z"
         style="fill:#4e9a06;stroke-width:0.829358"
         id="path113" />
      <path
         d="m 20.68,42.61 0.12,0.35 c 0.02,0.05 0.04,0.11 0.07,0.16 0.06,0.08 0.16,0.12 0.25,0.15 0.39,0.16 0.66,0.27 1.08,0.31 -0.01,0 0.16,-0.26 0.17,-0.28 0.05,-0.1 0.11,-0.2 0.14,-0.31 0.08,-0.28 0,-0.59 -0.13,-0.85 -0.29,0.1 -0.59,0.16 -0.89,0.19 z"
         style="fill:#4e9a06;stroke-width:0.829358"
         id="path114" />
      <path
         d="m 21.46,41.83 c 0,0 0.08,-0.03 0.12,-0.03 0.07,0 0.13,0.07 0.19,0.11 0.19,0.12 0.47,0.05 0.62,0.21 0.17,0.17 0.06,0.45 -0.06,0.66 -0.06,0.1 -0.12,0.21 -0.23,0.25 -0.08,0.03 -0.17,0 -0.26,-0.02 -0.38,-0.11 -0.78,-0.19 -1.15,-0.33 0.17,-0.46 0.31,-0.61 0.76,-0.84 z"
         style="fill:url(#linear-gradient-71);stroke-width:0.829358"
         id="path115" />
    </g>
    <path
       d="m 33.65,25.89 c 0.53,0.69 1.17,1.25 1.09,1.63 -0.08,0.38 -0.59,0.13 -0.83,-0.29 -0.24,-0.42 -0.27,-1.33 -0.27,-1.33 z"
       style="fill:url(#linear-gradient-72);stroke-width:0.829358"
       id="path116" />
  </g>
</svg>
