<?xml version="1.0" encoding="UTF-8" standalone="no"?>
<svg
   viewBox="0 0 48 48"
   version="1.1"
   id="svg30"
   sodipodi:docname="lightning.svg"
   inkscape:version="1.3-dev (fdc7329b, 2022-05-31)"
   xmlns:inkscape="http://www.inkscape.org/namespaces/inkscape"
   xmlns:sodipodi="http://sodipodi.sourceforge.net/DTD/sodipodi-0.dtd"
   xmlns:xlink="http://www.w3.org/1999/xlink"
   xmlns="http://www.w3.org/2000/svg"
   xmlns:svg="http://www.w3.org/2000/svg">
  <sodipodi:namedview
     id="namedview30"
     pagecolor="#ffffff"
     bordercolor="#666666"
     borderopacity="1.0"
     inkscape:showpageshadow="2"
     inkscape:pageopacity="0.0"
     inkscape:pagecheckerboard="0"
     inkscape:deskcolor="#d1d1d1"
     showgrid="false"
     inkscape:zoom="13.906433"
     inkscape:cx="23.082842"
     inkscape:cy="24.017661"
     inkscape:window-width="2880"
     inkscape:window-height="1557"
     inkscape:window-x="-8"
     inkscape:window-y="-8"
     inkscape:window-maximized="1"
     inkscape:current-layer="svg30" />
  <defs
     id="defs14">
    <radialGradient
       id="radial-gradient"
       cx="-240.08"
       cy="115.29"
       fx="-240.08"
       fy="115.29"
       r="9.14"
       gradientTransform="translate(632.39 -43.21) scale(2.53 .73)"
       gradientUnits="userSpaceOnUse">
      <stop
         offset=".12"
         stop-color="#212121"
         stop-opacity=".4"
         id="stop1" />
      <stop
         offset=".97"
         stop-color="#212121"
         stop-opacity="0"
         id="stop2" />
    </radialGradient>
    <linearGradient
       id="linear-gradient"
       x1="29.18"
       y1="20.56"
       x2="29.18"
       y2="6.83"
       gradientTransform="matrix(1, 0, 0, 1, 0, 0)"
       gradientUnits="userSpaceOnUse">
      <stop
         offset="0"
         stop-color="#d1e0ef"
         id="stop3" />
      <stop
         offset=".19"
         stop-color="#b2cbe5"
         id="stop4" />
      <stop
         offset="1"
         stop-color="#3465a4"
         id="stop5" />
    </linearGradient>
    <linearGradient
       id="linear-gradient-2"
       x1="39.05"
       y1="5.24"
       x2="37.23"
       y2="15.54"
       gradientTransform="matrix(1, 0, 0, 1, 0, 0)"
       gradientUnits="userSpaceOnUse">
      <stop
         offset="0"
         stop-color="#204a87"
         id="stop6" />
      <stop
         offset="1"
         stop-color="#729fcf"
         id="stop7" />
    </linearGradient>
    <linearGradient
       id="linear-gradient-3"
       x1="13.9"
       y1="18.38"
       x2="16.84"
       y2="22.7"
       xlink:href="#linear-gradient-2" />
    <linearGradient
       id="linear-gradient-4"
       x1="27.38"
       y1="15.02"
       x2="27.38"
       y2="8.25"
       xlink:href="#linear-gradient" />
    <linearGradient
       id="linear-gradient-5"
       x1="23.18"
       y1="6.62"
       x2="27.09"
       y2="17.19"
       xlink:href="#linear-gradient-2" />
    <linearGradient
       id="linear-gradient-6"
       x1="27.43"
       y1="20.95"
       x2="27.43"
       y2="13.32"
       gradientTransform="matrix(1, 0, 0, 1, 0, 0)"
       gradientUnits="userSpaceOnUse">
      <stop
         offset="0"
         stop-color="snow"
         id="stop8" />
      <stop
         offset="1"
         stop-color="#fffdfd"
         stop-opacity=".19"
         id="stop9" />
    </linearGradient>
    <linearGradient
       id="linear-gradient-7"
       x1="26.03"
       y1="18.12"
       x2="24.88"
       y2="14.61"
       xlink:href="#linear-gradient-6" />
    <radialGradient
       id="radial-gradient-2"
       cx="23.97"
       cy="19.29"
       fx="23.97"
       fy="19.29"
       r="12.91"
       gradientUnits="userSpaceOnUse">
      <stop
         offset=".21"
         stop-color="#fff"
         id="stop10" />
      <stop
         offset=".31"
         stop-color="#fefbea"
         id="stop11" />
      <stop
         offset="1"
         stop-color="#edd400"
         id="stop12" />
    </radialGradient>
    <linearGradient
       id="linear-gradient-8"
       x1="12.11"
       y1="18.85"
       x2="12.11"
       y2="10.07"
       xlink:href="#linear-gradient" />
    <linearGradient
       id="linear-gradient-9"
       x1="12.11"
       y1="21.28"
       x2="12.11"
       y2="10.04"
       xlink:href="#linear-gradient-6" />
    <linearGradient
       id="New_Gradient_Swatch_22"
       x1="8.15"
       y1="13.77"
       x2="12.21"
       y2="19.78"
       gradientUnits="userSpaceOnUse">
      <stop
         offset="0"
         stop-color="#204a87"
         id="stop13" />
      <stop
         offset="1"
         stop-color="#729fcf"
         stop-opacity="0"
         id="stop14" />
    </linearGradient>
    <linearGradient
       inkscape:collect="always"
       xlink:href="#linear-gradient"
       id="linearGradient30"
       gradientUnits="userSpaceOnUse"
       x1="29.18"
       y1="20.56"
       x2="29.18"
       y2="6.83" />
    <linearGradient
       inkscape:collect="always"
       xlink:href="#linear-gradient-2"
       id="linearGradient31"
       gradientUnits="userSpaceOnUse"
       x1="39.05"
       y1="5.24"
       x2="37.23"
       y2="15.54" />
    <linearGradient
       inkscape:collect="always"
       xlink:href="#linear-gradient-6"
       id="linearGradient32"
       gradientUnits="userSpaceOnUse"
       x1="27.43"
       y1="20.95"
       x2="27.43"
       y2="13.32" />
  </defs>
  <g
     id="shadow">
    <ellipse
       cx="24"
       cy="40.59"
       rx="22.27"
       ry="6.41"
       style="fill:url(#radial-gradient);"
       id="ellipse14" />
  </g>
  <g
     id="ART"
     transform="matrix(1.0802758,0,0,1.0802476,-2.0064277,-3.6777762)"
     style="stroke-width:0.925701">
    <path
       d="m 13.78,10.96 c 0.12,-1.01 0.31,-2.58 1.83,-2.95 1.52,-0.37 2.17,0.37 2.17,0.37 0,0 0.77,-3.35 3.59,-4.22 2.82,-0.87 5.07,0.51 5.91,1.78 0,0 0.81,-0.64 1.97,-0.42 1.16,0.22 1.79,1.57 1.79,1.57 0,0 1.41,-0.75 2.73,-0.03 1.41,0.77 1.54,2.65 1.54,2.65 0,0 1.65,-0.75 3.28,0.19 1.84,1.06 1.59,3.4 1.37,3.86 0,0 2.31,-0.49 3.93,1.03 1.62,1.52 0.65,3.96 -0.96,4.99 -1.61,1.03 -3.75,1.2 -5.69,0.89 -1.05,-0.17 -1.88,-1.03 -1.88,-1.03 0,0 -0.29,1.45 -3.11,1.83 -2.82,0.38 -4.41,-1.01 -4.41,-1.01 0,0 -0.46,1.03 -2.94,1.24 -2.48,0.21 -4.05,-1.05 -4.05,-1.05 0,0 -0.72,1.31 -3.09,1.73 -2.37,0.42 -3.88,-1.76 -3.88,-1.76 l -0.24,-8.01 0.14,-1.66 z"
       style="fill:url(#linearGradient30);stroke-width:0.862411"
       id="path14" />
    <path
       d="m 43.89,14.8 c -1.61,-1.53 -3.93,-1.03 -3.93,-1.03 0.04,-0.1 0.09,-0.27 0.12,-0.49 0,0 -0.02,0 -0.02,0 0.15,-0.84 0.07,-2.61 -1.47,-3.49 -1.63,-0.93 -3.28,-0.18 -3.28,-0.18 0,0 -0.14,-1.89 -1.54,-2.66 -1.32,-0.72 -2.73,0.03 -2.73,0.03 0,0 0,-0.01 -0.02,-0.03 L 30.97,7.1 c 0,0 1.12,-0.13 2.23,0.99 1.11,1.11 1.01,2.98 1.01,2.98 0,0 1.05,-1.05 2.85,-0.46 1.8,0.59 1.15,2.88 1.15,2.88 l 0.97,0.5 c -0.55,0.8 -0.6,1.87 0.53,1.38 1.56,-0.69 3.15,0.46 2.52,2.36 -0.64,1.9 -3.13,2.83 -4.13,2.78 l 0.24,0.26 c 1.62,0.11 3.27,-0.16 4.59,-1 1.61,-1.03 2.58,-3.46 0.96,-4.98 z"
       style="fill:url(#linearGradient31);stroke-width:0.862411"
       id="path15" />
    <path
       d="m 14.97,19.6 c 0,0 0.24,2.53 3.12,2.65 0,0 -2.18,0.95 -4.21,-1.62 z"
       style="fill:url(#linear-gradient-3);stroke-width:0.862411"
       id="path16" />
    <path
       d="m 13.78,10.96 c 0.12,-1.01 0.31,-2.58 1.83,-2.95 1.52,-0.37 2.17,0.37 2.17,0.37 0,0 0.77,-3.35 3.59,-4.22 2.82,-0.87 5.07,0.51 5.91,1.78 0,0 0.81,-0.64 1.97,-0.42 1.16,0.22 1.79,1.57 1.79,1.57 0,0 1.41,-0.75 2.73,-0.03 1.41,0.77 1.54,2.65 1.54,2.65 0,0 1.65,-0.75 3.28,0.19 1.84,1.06 1.59,3.4 1.37,3.86 0,0 2.31,-0.49 3.93,1.03 1.62,1.52 0.65,3.96 -0.96,4.99 -1.61,1.03 -3.75,1.2 -5.69,0.89 -1.05,-0.17 -1.88,-1.03 -1.88,-1.03 0,0 -0.29,1.45 -3.11,1.83 -2.82,0.38 -4.41,-1.01 -4.41,-1.01 0,0 -0.46,1.03 -2.94,1.24 -2.48,0.21 -4.05,-1.05 -4.05,-1.05 0,0 -0.72,1.31 -3.09,1.73 -2.37,0.42 -3.88,-1.76 -3.88,-1.76 l -0.24,-8.01 0.14,-1.66 z"
       style="fill:none;stroke:#3465a4;stroke-width:0.647991px;stroke-linecap:round;stroke-linejoin:round"
       id="path17" />
    <path
       d="m 40.25,16.74 c -0.22,0.82 -1.21,1.57 -2.3,1.73 -1.15,0.17 -2.4,-0.29 -2.4,-0.29 0,0 -0.28,1.39 -3.03,1.75 -2.74,0.36 -4.29,-0.96 -4.29,-0.96 0,0 -0.45,0.99 -2.88,1.19 -2.42,0.2 -3.94,-1.01 -3.94,-1.01 0,0 -0.71,1.25 -3,1.66 -2.3,0.4 -3.79,-1.68 -3.79,-1.68 l -0.19,-6.08 1.1,-1.86 c 0,0 0.12,-1.33 1.42,-1.75 1.29,-0.41 2.45,0.23 2.45,0.23 0,0 0.71,-2.91 3.77,-3.23 3.05,-0.31 4.31,2.19 4.31,2.19 0,0 1.87,-0.84 3,0.04 1.12,0.87 1.24,2.56 1.24,2.56 0,0 1.83,0.02 1.88,1.91 0,0 1.11,-0.98 3.54,-0.57 2.43,0.41 3.56,2.5 3.11,4.17 z"
       style="fill:url(#linear-gradient-4);stroke-width:0.862411"
       id="path18" />
    <path
       d="m 37.14,12.57 c -2.72,-0.16 -3.78,1.89 -3.78,1.89 -0.04,-2.1 -1.45,-2.7 -2.17,-2.78 0,-0.49 -0.11,-1.74 -1.35,-2.16 -1.57,-0.5 -2.64,0.56 -2.64,0.56 0,0 -1.51,-3.02 -4.08,-2.12 -2.58,0.89 -2.13,2.8 -2.13,2.8 C 17.8,9.69 16.4,12.1 17.53,13.73 L 14.12,13.89 14.1,13 14.95,10.98 c 0,0 0.12,-1.36 1.45,-1.79 1.33,-0.43 2.52,0.24 2.52,0.24 0,0 0.38,-3.36 3.76,-3.72 3.38,-0.34 4.42,2.02 4.42,2.02 0,0 2.04,-0.73 3.25,0.11 1.68,1.18 1.51,2.69 1.51,2.69 0,0 1.97,0.02 2.02,1.96 0,0 1.09,-0.32 3.27,0.07 z"
       style="fill:url(#linear-gradient-5);stroke-width:0.862411"
       id="path19" />
    <path
       d="m 40.08,16.84 c -0.21,0.82 -1.21,1.58 -2.3,1.72 -1.15,0.17 -2.39,-0.29 -2.39,-0.29 0,0 -0.28,1.39 -3.04,1.75 -2.74,0.37 -4.16,-0.83 -4.16,-0.83 0,0 -0.58,0.86 -3.01,1.06 -2.41,0.21 -3.94,-1.01 -3.94,-1.01 0,0 -0.71,1.26 -3,1.66 -1.79,0.32 -3.09,-0.88 -3.57,-1.42 l 1.29,-1.1 3.36,-0.21 c 0,0 2.07,-0.21 3,-0.33 0.95,-0.12 0.63,0.07 0.78,-0.02 0.17,-0.1 1.53,0.56 2.79,0.28 1.26,-0.28 1.58,-0.78 1.58,-0.78 0,0 1.09,1.18 3.93,0.73 2.84,-0.45 3.17,-1.92 3.17,-1.92 0,0 1.37,1.01 3,0.62 1.32,-0.32 1.86,-2.23 0.9,-3.43 1.39,0.82 1.96,2.21 1.6,3.52 z"
       style="fill:url(#linearGradient32);stroke-width:0.862411"
       id="path20" />
    <path
       d="m 19.83,16.23 c 1.04,0.64 2.5,0.43 3.32,-0.48 0.46,0.86 1.4,1.44 2.36,1.46 0.96,0.02 1.91,-0.53 2.4,-1.38 0.71,0.43 1.66,0.47 2.36,0.01 0.7,-0.46 1.08,-1.4 0.83,-2.21 -0.25,-0.81 -1.16,-1.36 -1.96,-1.13 1.25,-0.41 2.84,0.11 3.32,1.37 0.39,1.01 -0.03,2.22 -0.82,2.95 -0.79,0.73 -1.86,1.04 -2.92,1.13 -0.22,0.02 -0.44,0.03 -0.65,0.1 -0.24,0.08 -0.45,0.22 -0.68,0.35 -1.23,0.7 -2.76,0.79 -4.06,0.25 -0.14,-0.06 -0.28,-0.12 -0.42,-0.11 -0.11,0.01 -0.2,0.06 -0.3,0.11 -0.75,0.39 -1.57,0.7 -2.41,0.66 -0.84,-0.04 -1.7,-0.48 -2.04,-1.27"
       style="fill:url(#linear-gradient-7);stroke-width:0.862411"
       id="path21" />
    <path
       d="M 33.81,37.82 C 33.71,37.4 33.7,36.97 33.53,36.56 32.96,36.37 32.4,36.13 31.87,35.82 31.76,35.76 31.64,35.69 31.55,35.59 31.44,35.47 31.39,35.32 31.35,35.18 l -0.4,-1.25 c -0.39,-0.16 -0.8,-0.16 -1.2,-0.26 -0.04,0 -0.08,-0.03 -0.12,-0.04 0.49,-0.14 0.82,-0.74 1.47,-0.25 0.42,0.32 0.93,0.44 1.41,0.57 0.2,0.05 0.4,0.11 0.58,0.23 0.14,0.11 0.25,0.32 0.4,0.4 0.14,0.07 0.39,0.05 0.55,0.06 0.44,0.04 0.62,-0.47 1.03,-0.6 -0.31,-0.06 -0.54,0.13 -0.78,0.27 -0.24,0.14 -0.6,0.19 -0.84,-0.05 -0.1,-0.1 -0.15,-0.23 -0.26,-0.31 -0.1,-0.07 -0.21,-0.08 -0.32,-0.09 -0.62,-0.08 -1.26,-0.34 -1.82,-0.73 -0.13,-0.09 -0.26,-0.2 -0.41,-0.21 -0.08,0 -0.15,0.01 -0.22,0.04 -0.66,0.24 -1.1,0.36 -1.69,-0.04 -0.12,-0.33 -0.02,-0.7 -0.27,-0.98 -0.11,-0.12 -0.28,-0.19 -0.43,-0.24 -0.29,-0.09 -0.9,-0.17 -1.19,-0.27 L 26.6,30.89 c -0.1,-0.2 -0.11,-0.43 -0.25,-0.62 -0.23,-0.3 -0.83,-0.24 -1.13,-0.28 l -0.19,-0.34 c 0,0 -0.05,-0.09 -0.09,-0.12 C 24.9,29.5 24.85,29.5 24.8,29.5 h -1.36 c -0.14,-0.07 -0.27,-0.16 -0.39,-0.27 -0.1,-0.09 -0.19,-0.2 -0.31,-0.25 -0.29,-0.14 -0.71,-0.19 -1.03,-0.22 -0.4,-0.05 -0.81,-0.09 -1.21,-0.18 -0.04,-0.01 -0.09,-0.02 -0.13,-0.06 -0.03,-0.03 -0.04,-0.07 -0.04,-0.1 l -0.09,-0.41 c -0.07,-0.31 0.37,-0.13 0.56,-0.16 0.32,-0.05 0.64,-0.28 0.93,-0.41 0.52,-0.23 0.98,-0.39 1.54,-0.49 0.13,-0.02 0.27,-0.06 0.32,-0.18 0.05,-0.12 -0.04,-0.25 -0.12,-0.35 -0.3,-0.38 -0.59,-0.77 -0.86,-1.18 -0.21,-0.31 -0.51,-0.58 -0.7,-0.88 -0.22,-0.35 -0.09,-0.58 0.15,-0.76 0.02,0.19 0.09,0.35 0.31,0.41 0.44,0.13 0.95,-0.15 1.35,0.15 0.32,0.23 0.29,0.63 0.49,0.93 0.14,0.2 0.35,0.37 0.57,0.52 0.29,0.32 0.37,0.56 0.56,0.93 0.07,0.13 0.09,0.4 0.19,0.52 0.23,0.29 0.83,0.23 1.08,0.47 0.09,0.09 0.27,0.58 0.32,0.72 0.05,0.14 0.13,0.31 0.28,0.35 -0.16,-0.44 -0.07,-0.89 -0.23,-1.33 -0.3,-0.09 -0.76,-0.09 -1.01,-0.31 -0.11,-0.1 -0.15,-0.7 -0.31,-0.9 0.24,0.1 0.16,0.04 0.36,0.07 0.26,0.04 0.1,-0.11 0.17,-0.11 0.44,-0.03 0.92,0.05 1.15,0.47 0.08,0.14 0.13,0.31 0.26,0.41 0.15,0.13 0.35,0.13 0.53,0.15 0.49,0.05 1.05,0.31 1.29,0.77 -0.23,-0.54 -0.82,-0.99 -1.38,-1.05 -0.11,-0.01 -0.22,-0.02 -0.31,-0.09 -0.09,-0.07 -0.21,-0.49 -0.27,-0.59 -0.24,-0.45 -1.36,-0.55 -1.41,-0.52 -0.05,0.02 -0.07,0.07 -0.1,0.11 -0.13,0.13 -0.38,0.06 -0.58,-0.01 -0.23,-0.08 -0.46,-0.17 -0.64,-0.35 -0.1,-0.1 -0.17,-0.22 -0.23,-0.34 -0.2,-0.36 -0.4,-0.72 -0.6,-1.08 -0.02,-0.04 -0.47,-0.08 -0.54,-0.1 -0.13,-0.04 -0.32,-0.07 -0.43,-0.16 -0.18,-0.16 -0.07,-0.34 0.06,-0.49 0.02,0 0.04,-0.02 0.06,-0.03 0.03,-0.02 0.06,-0.04 0.07,-0.08 0.02,-0.05 -0.02,-0.11 -0.05,-0.17 -0.2,-0.38 -0.33,-0.78 -0.37,-1.17 0,-0.03 0,-0.06 0,-0.08 0.01,-0.02 0.03,-0.03 0.05,-0.04 0.25,-0.12 0.43,-0.28 0.69,-0.37 0.25,-0.09 0.53,-0.12 0.73,-0.29 0.49,-0.44 0.11,-1.24 0.53,-1.7 0.14,-0.16 0.33,-0.26 0.48,-0.42 -0.56,-0.03 -1.14,-0.08 -1.61,-0.38 -0.11,-0.07 -0.26,-0.15 -0.35,-0.07 -0.04,0.04 -0.05,0.09 -0.06,0.14 -0.1,0.44 -0.27,0.83 -0.39,1.26 -0.11,0.41 -0.15,0.57 -0.36,0.72 -0.22,0.09 -0.45,0.16 -0.68,0.24 -0.19,0.06 -0.36,0.42 -0.45,0.58 -0.18,0.31 -0.31,0.68 -0.62,0.87 -0.02,0.01 -0.04,0.02 -0.06,0.02 0,0 0,-0.01 0.01,-0.02 -0.06,0.04 -0.13,0.07 -0.2,0.1 -0.2,0.07 -0.42,0.11 -0.61,0.19 -0.66,0.14 -1.94,0.39 -2.37,0.86 -0.2,0.23 0.25,0.35 0,0.53 -0.14,0.1 -0.32,0.16 -0.44,0.28 -0.15,0.16 -0.2,0.42 -0.39,0.53 -0.31,0.18 -0.85,-0.1 -1.16,0.09 -0.22,0.14 -0.24,0.47 -0.46,0.61 -0.31,0.2 -0.85,-0.09 -1.18,0.09 -0.29,0.16 -0.26,0.6 -0.14,0.96 0.12,0.36 0.3,0.75 0.21,1.07 0.13,-0.27 0.26,-0.57 0.13,-0.9 -0.08,-0.21 -0.27,-0.41 -0.27,-0.62 0,-0.25 0.29,-0.35 0.54,-0.35 0.26,0 0.54,0.06 0.75,-0.04 0.17,-0.08 0.26,-0.25 0.41,-0.36 0.17,-0.12 0.41,-0.14 0.63,-0.18 0.76,-0.15 1.57,-0.39 1.89,-1.05 0.32,-0.65 0.65,-1.12 1.43,-1.19 h 0.05 c -0.12,0.3 -0.06,0.7 -0.2,1.01 -0.27,0.59 -1.25,0.59 -1.43,1.23 -0.04,0.15 -0.03,0.32 -0.1,0.46 -0.09,0.17 -0.28,0.24 -0.47,0.31 -0.67,0.24 -1.34,0.48 -2.01,0.72 -0.15,0.05 -0.31,0.11 -0.39,0.24 -0.06,0.1 -0.07,0.22 -0.08,0.34 -0.04,0.57 -0.04,1.16 -0.01,1.75 0,0.13 0.02,0.27 0.09,0.39 0.06,0.11 0.17,0.21 0.26,0.31 0.41,0.47 0.41,1.09 0.37,1.62 0.07,-0.35 0.12,-0.72 0.07,-1.11 -0.06,-0.52 -0.28,-1.04 -0.42,-1.56 -0.14,-0.52 -0.19,-1.08 0.07,-1.47 0.19,-0.28 3.52,-0.85 3.61,-1.03 0.05,-0.09 -0.06,-0.53 0,-0.62 0.2,-0.35 0.66,-0.76 0.91,-1.07 0.23,-0.3 0.08,-0.79 0.23,-1.14 0.25,-0.58 0.81,-0.51 1.23,-0.97 0.11,-0.12 0.18,-0.26 0.24,-0.4 0.01,0.39 0.14,0.8 0.29,1.13 -0.35,0.06 -0.7,0.13 -1.05,0.19 -0.11,0.02 -0.23,0.05 -0.31,0.13 -0.15,0.16 -0.05,0.41 0.05,0.61 0.5,0.95 1.03,1.94 1.9,2.56 -0.58,0.07 -1.07,0.06 -1.55,0.39 -0.52,0.36 -1.89,0.52 -1.95,0.57 -0.11,0.1 -0.12,0.27 -0.1,0.43 0.02,0.15 0.07,0.3 0.1,0.44 0,0.1 0,0.2 0.02,0.27 0.06,0.42 -0.38,0.5 -0.34,0.91 0.03,0.24 0.49,0.91 0.41,1.14 -0.08,0.21 -0.35,0.24 -0.52,0.32 -0.04,0.02 -0.08,0.05 -0.09,0.09 -0.01,0.04 0,0.09 0.01,0.13 l 0.13,0.53 c 0.01,0.05 0.03,0.1 0.01,0.15 -0.02,0.08 -0.12,0.1 -0.19,0.14 -0.26,0.16 -0.13,0.58 -0.11,0.87 0.02,0.18 0.25,1.03 0.2,1.12 0.18,-0.25 0.11,-0.62 0.05,-0.96 -0.03,-0.2 -0.06,-0.4 0,-0.57 0.06,-0.17 0.22,-0.3 0.43,-0.26 -0.17,-0.27 -0.2,-0.59 -0.1,-0.82 0.1,-0.22 0.33,-0.36 0.59,-0.37 0.28,0.49 0.64,0.95 1.06,1.36 0.06,0.06 0.13,0.13 0.17,0.2 0.05,0.1 0.05,0.2 0.05,0.3 0,0.12 -0.02,0.24 -0.08,0.34 -0.2,0.31 -0.75,0.21 -0.99,0.48 -0.07,0.08 -0.11,0.19 -0.14,0.3 -0.12,0.44 -0.11,0.94 0.02,1.43 0.05,0.18 0.11,0.4 -0.02,0.5 0.26,-0.16 0.25,-0.53 0.2,-0.86 -0.05,-0.33 -0.13,-0.7 0.05,-0.94 0.14,-0.19 0.39,-0.25 0.6,-0.36 0.55,-0.27 0.84,-0.9 0.74,-1.57 -0.57,-0.16 -0.97,-0.73 -1.29,-1.24 -0.03,-0.05 -0.07,-0.11 -0.06,-0.16 0,-0.11 0.16,-0.13 0.21,-0.22 0.04,-0.07 0,-0.16 -0.02,-0.24 -0.08,-0.26 -0.16,-0.51 -0.24,-0.77 0.14,0.08 0.28,0.14 0.4,0.17 0.34,0.1 0.65,0.13 1,0.13 0.36,0 0.73,-0.08 1.09,0.03 0.18,0.06 0.34,0.16 0.49,0.27 0.19,0.13 0.38,0.27 0.59,0.36 0.1,0.04 0.2,0.07 0.28,0.13 0.29,0.2 0.83,0.6 0.63,0.89 -0.11,0.16 -0.72,0.38 -0.9,0.47 -0.1,0.05 -0.22,0.12 -0.22,0.23 0,0.08 0.07,0.15 0.13,0.21 1,0.82 4.34,2.21 4.21,2.31 -0.23,0.17 -0.41,0.31 -0.79,0.52 -0.19,0.1 -0.4,0.17 -0.61,0.25 -0.17,0.07 -0.33,0.16 -0.49,0.23 -0.16,0.08 -0.38,0.11 -0.49,0.28 -0.04,0.06 -0.03,0.15 -0.03,0.22 0,0.11 -0.01,0.22 -0.03,0.32 -0.06,0.13 -0.11,0.27 -0.21,0.38 -0.06,0.07 -0.15,0.11 -0.23,0.15 -0.5,0.23 -1.22,0.15 -1.71,-0.1 -0.26,0.24 -0.11,0.66 -0.48,0.83 -0.27,0.12 -0.66,-0.04 -0.92,0.09 -0.29,0.14 -0.3,0.52 -0.47,0.75 -0.22,0.29 -0.8,0.19 -1.13,0.19 l 0.78,0.14 c 0.74,0.13 0.59,-0.57 1.04,-0.88 0.58,-0.39 1.3,0.08 1.44,-0.82 0.37,0.17 0.74,0.28 1.11,0.19 -0.16,0.18 -0.19,0.41 -0.2,0.63 -0.35,0.07 -0.91,-0.1 -1.15,0.25 -0.04,0.06 -0.06,0.13 -0.09,0.2 l -0.15,0.45 c -0.02,0.05 -0.03,0.1 -0.03,0.16 0.02,0.22 0.23,0.36 0.18,0.61 -0.01,0.06 -0.21,0.63 -0.18,0.63 -0.67,0 -1.34,0.04 -2,0.11 -0.12,0.01 -0.24,0.03 -0.33,0.09 -0.13,0.1 -0.18,0.35 -0.26,0.49 -0.06,0.1 -0.12,0.21 -0.17,0.31 -0.03,0.06 -0.08,0.23 -0.13,0.26 0.26,-0.15 0.39,-0.44 0.53,-0.7 0.03,-0.06 0.07,-0.13 0.13,-0.18 0.09,-0.07 0.2,-0.08 0.31,-0.1 0.3,-0.03 0.61,-0.12 0.9,-0.05 0.25,0.05 0.5,0.19 0.74,0.19 0.33,0 0.54,-0.27 0.62,-0.57 0.05,-0.2 0.1,-0.47 0.09,-0.67 -0.01,-0.17 -0.13,-0.28 -0.17,-0.44 -0.05,-0.17 0.08,-0.34 0.2,-0.48 0.03,-0.04 0.07,-0.07 0.11,-0.09 0.05,-0.02 0.11,-0.02 0.17,-0.02 0.29,0 0.59,0.03 0.86,-0.08 0.02,0 0.05,-0.02 0.06,-0.04 0.01,-0.02 0,-0.05 0,-0.07 -0.01,-0.15 0,-0.28 0.02,-0.39 0.05,-0.22 0.19,-0.38 0.43,-0.55 0.23,-0.15 0.39,-0.37 0.48,-0.63 0.08,-0.24 0,-0.59 0.18,-0.77 0.08,-0.08 0.18,-0.13 0.28,-0.18 0.03,-0.01 0.06,-0.02 0.09,-0.03 -0.11,0.12 -0.16,0.29 -0.13,0.46 0.07,0.49 0.84,0.56 1.08,1.01 0.29,0.56 0.58,1.11 0.87,1.67 0.07,0.13 0.14,0.26 0.17,0.41 0.18,0.71 -0.49,0.88 -1.05,1 -0.11,0.02 -0.22,0.05 -0.3,0.12 -0.25,0.24 0.13,0.77 0.03,1.11 -0.04,0.14 -0.17,0.24 -0.22,0.38 -0.08,0.18 -0.04,0.4 0,0.61 0.05,0.28 0.11,0.57 0.16,0.85 0,0.03 0.01,0.06 0.02,0.09 0.12,0.57 0.38,0.96 0.9,1.35 0.37,0.28 1.18,0.74 1.18,0.74 0,0 -0.75,-0.96 -1.02,-1.13 -0.08,-0.05 -0.16,-0.11 -0.22,-0.19 -0.06,-0.09 -0.09,-0.2 -0.12,-0.3 -0.11,-0.42 -0.21,-0.83 -0.32,-1.25 -0.02,-0.07 -0.03,-0.14 -0.02,-0.21 0.02,-0.1 0.1,-0.18 0.15,-0.27 0.24,-0.38 0.03,-0.88 0.15,-1.3 0.01,-0.04 0.03,-0.08 0.06,-0.1 0.03,-0.02 0.06,-0.02 0.09,-0.02 0.29,-0.03 0.42,-0.15 0.68,-0.27 0.25,-0.11 0.47,-0.14 0.69,-0.3 0.1,-0.07 0.11,-0.22 0.09,-0.34 -0.02,-0.12 -0.05,-0.25 0,-0.36 0.02,-0.06 0.06,-0.09 0.1,-0.13 0.07,0.1 0.09,0.23 0.09,0.35 0.02,0.35 0.07,0.62 0.17,0.96 0.05,0.17 0.09,0.35 0.21,0.49 0.05,0.07 0.12,0.12 0.16,0.19 0.06,0.1 0.06,0.21 0.08,0.32 0.02,0.12 0.05,0.33 0.12,0.42 0.05,0.07 0.12,0.11 0.2,0.15 0.16,0.09 0.33,0.17 0.5,0.23 0.05,0.02 0.09,0.04 0.12,0.07 0.02,0.03 0.03,0.06 0.04,0.09 l 0.11,0.39 c 0,0 0.01,0.04 0,0.06 0,0.03 -0.03,0.06 -0.06,0.08 -0.13,0.12 -0.2,0.31 -0.18,0.49 0.1,-0.19 0.24,-0.37 0.39,-0.52 0.02,-0.02 0.05,-0.05 0.06,-0.08 0,-0.03 0,-0.05 0,-0.08 L 30.5,42.65 c -0.01,-0.07 -0.03,-0.14 -0.07,-0.2 -0.04,-0.06 -0.1,-0.1 -0.16,-0.13 -0.16,-0.09 -0.34,-0.14 -0.49,-0.24 -0.32,-0.22 -0.11,-0.44 -0.24,-0.7 -0.04,-0.09 -0.12,-0.16 -0.18,-0.24 -0.25,-0.29 -0.41,-0.64 -0.44,-0.97 -0.03,-0.26 0.01,-0.52 -0.03,-0.79 -0.03,-0.17 -0.12,-0.35 -0.24,-0.49 H 28.64 C 28.57,38.81 28.49,38.74 28.4,38.71 l -0.02,0.02 C 28.32,38.71 28.26,38.68 28.2,38.65 27.99,38.52 27.85,38.31 27.79,38.07 27.76,37.96 27.75,37.85 27.72,37.75 27.67,37.59 27.58,37.44 27.49,37.3 27.28,36.98 27.05,36.68 26.8,36.39 c -0.11,-0.13 -0.23,-0.3 -0.15,-0.45 0.03,-0.06 0.09,-0.1 0.15,-0.13 0.48,-0.29 1.51,-0.91 1.35,-1.31 -0.04,-0.1 -0.13,-0.16 -0.22,-0.21 -0.57,-0.32 -2.71,-1.2 -3.67,-2.1 0.16,-0.05 1.1,-0.12 1.07,-0.28 -0.05,-0.29 -0.65,-1.11 -0.78,-1.38 -0.06,-0.12 -0.15,-0.29 -0.25,-0.45 0.06,-0.01 0.11,-0.03 0.16,-0.02 0.22,0 0.18,0.11 0.31,0.26 0.16,0.18 0.22,0.05 0.42,0 0.67,-0.18 0.98,0.55 1.15,1.07 0.02,0.07 0.05,0.14 0.1,0.2 0.06,0.06 0.15,0.08 0.24,0.1 0.46,0.1 0.93,0.2 1.39,0.29 0.16,0.4 -0.12,0.81 0.04,1.2 0.04,0.09 0.08,0.19 0.15,0.26 0.06,0.06 0.14,0.11 0.22,0.14 0.53,0.26 1.52,0.41 2.07,0.49 0.17,0.57 0.43,1.14 0.78,1.66 0.09,0.14 0.2,0.29 0.33,0.39 0.15,0.12 0.33,0.19 0.51,0.24 0.3,0.1 0.61,0.18 0.92,0.24 0.13,0.35 0.26,0.7 0.38,1.05 0.09,0.26 0.19,0.53 0.36,0.76 0.17,0.24 0.43,0.44 0.7,0.48 -0.41,-0.22 -0.64,-0.69 -0.74,-1.11 z"
       style="fill:none;stroke:#fefbea;stroke-width:1.29598px;stroke-linecap:round;stroke-linejoin:round"
       id="path22" />
    <path
       d="M 33.81,37.82 C 33.71,37.4 33.7,36.97 33.53,36.56 32.96,36.37 32.4,36.13 31.87,35.82 31.76,35.76 31.64,35.69 31.55,35.59 31.44,35.47 31.39,35.32 31.35,35.18 l -0.4,-1.25 c -0.39,-0.16 -0.8,-0.16 -1.2,-0.26 -0.04,0 -0.08,-0.03 -0.12,-0.04 0.49,-0.14 0.82,-0.74 1.47,-0.25 0.42,0.32 0.93,0.44 1.41,0.57 0.2,0.05 0.4,0.11 0.58,0.23 0.14,0.11 0.25,0.32 0.4,0.4 0.14,0.07 0.39,0.05 0.55,0.06 0.44,0.04 0.62,-0.47 1.03,-0.6 -0.31,-0.06 -0.54,0.13 -0.78,0.27 -0.24,0.14 -0.6,0.19 -0.84,-0.05 -0.1,-0.1 -0.15,-0.23 -0.26,-0.31 -0.1,-0.07 -0.21,-0.08 -0.32,-0.09 -0.62,-0.08 -1.26,-0.34 -1.82,-0.73 -0.13,-0.09 -0.26,-0.2 -0.41,-0.21 -0.08,0 -0.15,0.01 -0.22,0.04 -0.66,0.24 -1.1,0.36 -1.69,-0.04 -0.12,-0.33 -0.02,-0.7 -0.27,-0.98 -0.11,-0.12 -0.28,-0.19 -0.43,-0.24 -0.29,-0.09 -0.9,-0.17 -1.19,-0.27 L 26.6,30.89 c -0.1,-0.2 -0.11,-0.43 -0.25,-0.62 -0.23,-0.3 -0.83,-0.24 -1.13,-0.28 l -0.19,-0.34 c 0,0 -0.05,-0.09 -0.09,-0.12 C 24.9,29.5 24.85,29.5 24.8,29.5 h -1.36 c -0.14,-0.07 -0.27,-0.16 -0.39,-0.27 -0.1,-0.09 -0.19,-0.2 -0.31,-0.25 -0.29,-0.14 -0.71,-0.19 -1.03,-0.22 -0.4,-0.05 -0.81,-0.09 -1.21,-0.18 -0.04,-0.01 -0.09,-0.02 -0.13,-0.06 -0.03,-0.03 -0.04,-0.07 -0.04,-0.1 l -0.09,-0.41 c -0.07,-0.31 0.37,-0.13 0.56,-0.16 0.32,-0.05 0.64,-0.28 0.93,-0.41 0.52,-0.23 0.98,-0.39 1.54,-0.49 0.13,-0.02 0.27,-0.06 0.32,-0.18 0.05,-0.12 -0.04,-0.25 -0.12,-0.35 -0.3,-0.38 -0.59,-0.77 -0.86,-1.18 -0.21,-0.31 -0.51,-0.58 -0.7,-0.88 -0.22,-0.35 -0.09,-0.58 0.15,-0.76 0.02,0.19 0.09,0.35 0.31,0.41 0.44,0.13 0.95,-0.15 1.35,0.15 0.32,0.23 0.29,0.63 0.49,0.93 0.14,0.2 0.35,0.37 0.57,0.52 0.29,0.32 0.37,0.56 0.56,0.93 0.07,0.13 0.09,0.4 0.19,0.52 0.23,0.29 0.83,0.23 1.08,0.47 0.09,0.09 0.27,0.58 0.32,0.72 0.05,0.14 0.13,0.31 0.28,0.35 -0.16,-0.44 -0.07,-0.89 -0.23,-1.33 -0.3,-0.09 -0.76,-0.09 -1.01,-0.31 -0.11,-0.1 -0.15,-0.7 -0.31,-0.9 0.24,0.1 0.16,0.04 0.36,0.07 0.26,0.04 0.1,-0.11 0.17,-0.11 0.44,-0.03 0.92,0.05 1.15,0.47 0.08,0.14 0.13,0.31 0.26,0.41 0.15,0.13 0.35,0.13 0.53,0.15 0.49,0.05 1.05,0.31 1.29,0.77 -0.23,-0.54 -0.82,-0.99 -1.38,-1.05 -0.11,-0.01 -0.22,-0.02 -0.31,-0.09 -0.09,-0.07 -0.21,-0.49 -0.27,-0.59 -0.24,-0.45 -1.36,-0.55 -1.41,-0.52 -0.05,0.02 -0.07,0.07 -0.1,0.11 -0.13,0.13 -0.38,0.06 -0.58,-0.01 -0.23,-0.08 -0.46,-0.17 -0.64,-0.35 -0.1,-0.1 -0.17,-0.22 -0.23,-0.34 -0.2,-0.36 -0.4,-0.72 -0.6,-1.08 -0.02,-0.04 -0.47,-0.08 -0.54,-0.1 -0.13,-0.04 -0.32,-0.07 -0.43,-0.16 -0.18,-0.16 -0.07,-0.34 0.06,-0.49 0.02,0 0.04,-0.02 0.06,-0.03 0.03,-0.02 0.06,-0.04 0.07,-0.08 0.02,-0.05 -0.02,-0.11 -0.05,-0.17 -0.2,-0.38 -0.33,-0.78 -0.37,-1.17 0,-0.03 0,-0.06 0,-0.08 0.01,-0.02 0.03,-0.03 0.05,-0.04 0.25,-0.12 0.43,-0.28 0.69,-0.37 0.25,-0.09 0.53,-0.12 0.73,-0.29 0.49,-0.44 0.11,-1.24 0.53,-1.7 0.14,-0.16 0.33,-0.26 0.48,-0.42 -0.56,-0.03 -1.14,-0.08 -1.61,-0.38 -0.11,-0.07 -0.26,-0.15 -0.35,-0.07 -0.04,0.04 -0.05,0.09 -0.06,0.14 -0.1,0.44 -0.27,0.83 -0.39,1.26 -0.11,0.41 -0.15,0.57 -0.36,0.72 -0.22,0.09 -0.45,0.16 -0.68,0.24 -0.19,0.06 -0.36,0.42 -0.45,0.58 -0.18,0.31 -0.31,0.68 -0.62,0.87 -0.02,0.01 -0.04,0.02 -0.06,0.02 0,0 0,-0.01 0.01,-0.02 -0.06,0.04 -0.13,0.07 -0.2,0.1 -0.2,0.07 -0.42,0.11 -0.61,0.19 -0.66,0.14 -1.94,0.39 -2.37,0.86 -0.2,0.23 0.25,0.35 0,0.53 -0.14,0.1 -0.32,0.16 -0.44,0.28 -0.15,0.16 -0.2,0.42 -0.39,0.53 -0.31,0.18 -0.85,-0.1 -1.16,0.09 -0.22,0.14 -0.24,0.47 -0.46,0.61 -0.31,0.2 -0.85,-0.09 -1.18,0.09 -0.29,0.16 -0.26,0.6 -0.14,0.96 0.12,0.36 0.3,0.75 0.21,1.07 0.13,-0.27 0.26,-0.57 0.13,-0.9 -0.08,-0.21 -0.27,-0.41 -0.27,-0.62 0,-0.25 0.29,-0.35 0.54,-0.35 0.26,0 0.54,0.06 0.75,-0.04 0.17,-0.08 0.26,-0.25 0.41,-0.36 0.17,-0.12 0.41,-0.14 0.63,-0.18 0.76,-0.15 1.57,-0.39 1.89,-1.05 0.32,-0.65 0.65,-1.12 1.43,-1.19 h 0.05 c -0.12,0.3 -0.06,0.7 -0.2,1.01 -0.27,0.59 -1.25,0.59 -1.43,1.23 -0.04,0.15 -0.03,0.32 -0.1,0.46 -0.09,0.17 -0.28,0.24 -0.47,0.31 -0.67,0.24 -1.34,0.48 -2.01,0.72 -0.15,0.05 -0.31,0.11 -0.39,0.24 -0.06,0.1 -0.07,0.22 -0.08,0.34 -0.04,0.57 -0.04,1.16 -0.01,1.75 0,0.13 0.02,0.27 0.09,0.39 0.06,0.11 0.17,0.21 0.26,0.31 0.41,0.47 0.41,1.09 0.37,1.62 0.07,-0.35 0.12,-0.72 0.07,-1.11 -0.06,-0.52 -0.28,-1.04 -0.42,-1.56 -0.14,-0.52 -0.19,-1.08 0.07,-1.47 0.19,-0.28 3.52,-0.85 3.61,-1.03 0.05,-0.09 -0.06,-0.53 0,-0.62 0.2,-0.35 0.66,-0.76 0.91,-1.07 0.23,-0.3 0.08,-0.79 0.23,-1.14 0.25,-0.58 0.81,-0.51 1.23,-0.97 0.11,-0.12 0.18,-0.26 0.24,-0.4 0.01,0.39 0.14,0.8 0.29,1.13 -0.35,0.06 -0.7,0.13 -1.05,0.19 -0.11,0.02 -0.23,0.05 -0.31,0.13 -0.15,0.16 -0.05,0.41 0.05,0.61 0.5,0.95 1.03,1.94 1.9,2.56 -0.58,0.07 -1.07,0.06 -1.55,0.39 -0.52,0.36 -1.89,0.52 -1.95,0.57 -0.11,0.1 -0.12,0.27 -0.1,0.43 0.02,0.15 0.07,0.3 0.1,0.44 0,0.1 0,0.2 0.02,0.27 0.06,0.42 -0.38,0.5 -0.34,0.91 0.03,0.24 0.49,0.91 0.41,1.14 -0.08,0.21 -0.35,0.24 -0.52,0.32 -0.04,0.02 -0.08,0.05 -0.09,0.09 -0.01,0.04 0,0.09 0.01,0.13 l 0.13,0.53 c 0.01,0.05 0.03,0.1 0.01,0.15 -0.02,0.08 -0.12,0.1 -0.19,0.14 -0.26,0.16 -0.13,0.58 -0.11,0.87 0.02,0.18 0.25,1.03 0.2,1.12 0.18,-0.25 0.11,-0.62 0.05,-0.96 -0.03,-0.2 -0.06,-0.4 0,-0.57 0.06,-0.17 0.22,-0.3 0.43,-0.26 -0.17,-0.27 -0.2,-0.59 -0.1,-0.82 0.1,-0.22 0.33,-0.36 0.59,-0.37 0.28,0.49 0.64,0.95 1.06,1.36 0.06,0.06 0.13,0.13 0.17,0.2 0.05,0.1 0.05,0.2 0.05,0.3 0,0.12 -0.02,0.24 -0.08,0.34 -0.2,0.31 -0.75,0.21 -0.99,0.48 -0.07,0.08 -0.11,0.19 -0.14,0.3 -0.12,0.44 -0.11,0.94 0.02,1.43 0.05,0.18 0.11,0.4 -0.02,0.5 0.26,-0.16 0.25,-0.53 0.2,-0.86 -0.05,-0.33 -0.13,-0.7 0.05,-0.94 0.14,-0.19 0.39,-0.25 0.6,-0.36 0.55,-0.27 0.84,-0.9 0.74,-1.57 -0.57,-0.16 -0.97,-0.73 -1.29,-1.24 -0.03,-0.05 -0.07,-0.11 -0.06,-0.16 0,-0.11 0.16,-0.13 0.21,-0.22 0.04,-0.07 0,-0.16 -0.02,-0.24 -0.08,-0.26 -0.16,-0.51 -0.24,-0.77 0.14,0.08 0.28,0.14 0.4,0.17 0.34,0.1 0.65,0.13 1,0.13 0.36,0 0.73,-0.08 1.09,0.03 0.18,0.06 0.34,0.16 0.49,0.27 0.19,0.13 0.38,0.27 0.59,0.36 0.1,0.04 0.2,0.07 0.28,0.13 0.29,0.2 0.83,0.6 0.63,0.89 -0.11,0.16 -0.72,0.38 -0.9,0.47 -0.1,0.05 -0.22,0.12 -0.22,0.23 0,0.08 0.07,0.15 0.13,0.21 1,0.82 4.34,2.21 4.21,2.31 -0.23,0.17 -0.41,0.31 -0.79,0.52 -0.19,0.1 -0.4,0.17 -0.61,0.25 -0.17,0.07 -0.33,0.16 -0.49,0.23 -0.16,0.08 -0.38,0.11 -0.49,0.28 -0.04,0.06 -0.03,0.15 -0.03,0.22 0,0.11 -0.01,0.22 -0.03,0.32 -0.06,0.13 -0.11,0.27 -0.21,0.38 -0.06,0.07 -0.15,0.11 -0.23,0.15 -0.5,0.23 -1.22,0.15 -1.71,-0.1 -0.26,0.24 -0.11,0.66 -0.48,0.83 -0.27,0.12 -0.66,-0.04 -0.92,0.09 -0.29,0.14 -0.3,0.52 -0.47,0.75 -0.22,0.29 -0.8,0.19 -1.13,0.19 l 0.78,0.14 c 0.74,0.13 0.59,-0.57 1.04,-0.88 0.58,-0.39 1.3,0.08 1.44,-0.82 0.37,0.17 0.74,0.28 1.11,0.19 -0.16,0.18 -0.19,0.41 -0.2,0.63 -0.35,0.07 -0.91,-0.1 -1.15,0.25 -0.04,0.06 -0.06,0.13 -0.09,0.2 l -0.15,0.45 c -0.02,0.05 -0.03,0.1 -0.03,0.16 0.02,0.22 0.23,0.36 0.18,0.61 -0.01,0.06 -0.21,0.63 -0.18,0.63 -0.67,0 -1.34,0.04 -2,0.11 -0.12,0.01 -0.24,0.03 -0.33,0.09 -0.13,0.1 -0.18,0.35 -0.26,0.49 -0.06,0.1 -0.12,0.21 -0.17,0.31 -0.03,0.06 -0.08,0.23 -0.13,0.26 0.26,-0.15 0.39,-0.44 0.53,-0.7 0.03,-0.06 0.07,-0.13 0.13,-0.18 0.09,-0.07 0.2,-0.08 0.31,-0.1 0.3,-0.03 0.61,-0.12 0.9,-0.05 0.25,0.05 0.5,0.19 0.74,0.19 0.33,0 0.54,-0.27 0.62,-0.57 0.05,-0.2 0.1,-0.47 0.09,-0.67 -0.01,-0.17 -0.13,-0.28 -0.17,-0.44 -0.05,-0.17 0.08,-0.34 0.2,-0.48 0.03,-0.04 0.07,-0.07 0.11,-0.09 0.05,-0.02 0.11,-0.02 0.17,-0.02 0.29,0 0.59,0.03 0.86,-0.08 0.02,0 0.05,-0.02 0.06,-0.04 0.01,-0.02 0,-0.05 0,-0.07 -0.01,-0.15 0,-0.28 0.02,-0.39 0.05,-0.22 0.19,-0.38 0.43,-0.55 0.23,-0.15 0.39,-0.37 0.48,-0.63 0.08,-0.24 0,-0.59 0.18,-0.77 0.08,-0.08 0.18,-0.13 0.28,-0.18 0.03,-0.01 0.06,-0.02 0.09,-0.03 -0.11,0.12 -0.16,0.29 -0.13,0.46 0.07,0.49 0.84,0.56 1.08,1.01 0.29,0.56 0.58,1.11 0.87,1.67 0.07,0.13 0.14,0.26 0.17,0.41 0.18,0.71 -0.49,0.88 -1.05,1 -0.11,0.02 -0.22,0.05 -0.3,0.12 -0.25,0.24 0.13,0.77 0.03,1.11 -0.04,0.14 -0.17,0.24 -0.22,0.38 -0.08,0.18 -0.04,0.4 0,0.61 0.05,0.28 0.11,0.57 0.16,0.85 0,0.03 0.01,0.06 0.02,0.09 0.12,0.57 0.38,0.96 0.9,1.35 0.37,0.28 1.18,0.74 1.18,0.74 0,0 -0.75,-0.96 -1.02,-1.13 -0.08,-0.05 -0.16,-0.11 -0.22,-0.19 -0.06,-0.09 -0.09,-0.2 -0.12,-0.3 -0.11,-0.42 -0.21,-0.83 -0.32,-1.25 -0.02,-0.07 -0.03,-0.14 -0.02,-0.21 0.02,-0.1 0.1,-0.18 0.15,-0.27 0.24,-0.38 0.03,-0.88 0.15,-1.3 0.01,-0.04 0.03,-0.08 0.06,-0.1 0.03,-0.02 0.06,-0.02 0.09,-0.02 0.29,-0.03 0.42,-0.15 0.68,-0.27 0.25,-0.11 0.47,-0.14 0.69,-0.3 0.1,-0.07 0.11,-0.22 0.09,-0.34 -0.02,-0.12 -0.05,-0.25 0,-0.36 0.02,-0.06 0.06,-0.09 0.1,-0.13 0.07,0.1 0.09,0.23 0.09,0.35 0.02,0.35 0.07,0.62 0.17,0.96 0.05,0.17 0.09,0.35 0.21,0.49 0.05,0.07 0.12,0.12 0.16,0.19 0.06,0.1 0.06,0.21 0.08,0.32 0.02,0.12 0.05,0.33 0.12,0.42 0.05,0.07 0.12,0.11 0.2,0.15 0.16,0.09 0.33,0.17 0.5,0.23 0.05,0.02 0.09,0.04 0.12,0.07 0.02,0.03 0.03,0.06 0.04,0.09 l 0.11,0.39 c 0,0 0.01,0.04 0,0.06 0,0.03 -0.03,0.06 -0.06,0.08 -0.13,0.12 -0.2,0.31 -0.18,0.49 0.1,-0.19 0.24,-0.37 0.39,-0.52 0.02,-0.02 0.05,-0.05 0.06,-0.08 0,-0.03 0,-0.05 0,-0.08 L 30.5,42.65 c -0.01,-0.07 -0.03,-0.14 -0.07,-0.2 -0.04,-0.06 -0.1,-0.1 -0.16,-0.13 -0.16,-0.09 -0.34,-0.14 -0.49,-0.24 -0.32,-0.22 -0.11,-0.44 -0.24,-0.7 -0.04,-0.09 -0.12,-0.16 -0.18,-0.24 -0.25,-0.29 -0.41,-0.64 -0.44,-0.97 -0.03,-0.26 0.01,-0.52 -0.03,-0.79 -0.03,-0.17 -0.12,-0.35 -0.24,-0.49 H 28.64 C 28.57,38.81 28.49,38.74 28.4,38.71 l -0.02,0.02 C 28.32,38.71 28.26,38.68 28.2,38.65 27.99,38.52 27.85,38.31 27.79,38.07 27.76,37.96 27.75,37.85 27.72,37.75 27.67,37.59 27.58,37.44 27.49,37.3 27.28,36.98 27.05,36.68 26.8,36.39 c -0.11,-0.13 -0.23,-0.3 -0.15,-0.45 0.03,-0.06 0.09,-0.1 0.15,-0.13 0.48,-0.29 1.51,-0.91 1.35,-1.31 -0.04,-0.1 -0.13,-0.16 -0.22,-0.21 -0.57,-0.32 -2.71,-1.2 -3.67,-2.1 0.16,-0.05 1.1,-0.12 1.07,-0.28 -0.05,-0.29 -0.65,-1.11 -0.78,-1.38 -0.06,-0.12 -0.15,-0.29 -0.25,-0.45 0.06,-0.01 0.11,-0.03 0.16,-0.02 0.22,0 0.18,0.11 0.31,0.26 0.16,0.18 0.22,0.05 0.42,0 0.67,-0.18 0.98,0.55 1.15,1.07 0.02,0.07 0.05,0.14 0.1,0.2 0.06,0.06 0.15,0.08 0.24,0.1 0.46,0.1 0.93,0.2 1.39,0.29 0.16,0.4 -0.12,0.81 0.04,1.2 0.04,0.09 0.08,0.19 0.15,0.26 0.06,0.06 0.14,0.11 0.22,0.14 0.53,0.26 1.52,0.41 2.07,0.49 0.17,0.57 0.43,1.14 0.78,1.66 0.09,0.14 0.2,0.29 0.33,0.39 0.15,0.12 0.33,0.19 0.51,0.24 0.3,0.1 0.61,0.18 0.92,0.24 0.13,0.35 0.26,0.7 0.38,1.05 0.09,0.26 0.19,0.53 0.36,0.76 0.17,0.24 0.43,0.44 0.7,0.48 -0.41,-0.22 -0.64,-0.69 -0.74,-1.11 z"
       style="fill:url(#radial-gradient-2);stroke-width:0.862411"
       id="path23" />
    <path
       d="m 20.24,17.21 c 0,0 1.67,0.98 3.09,-0.27 0,0 0.78,1.25 2.82,1.11 2.04,-0.14 2.84,-0.84 2.84,-0.84 0,0 -0.85,2.34 -3.99,2.01 -0.86,-0.09 -1.87,-0.78 -1.87,-0.78 0,0 -1.17,1.1 -3.51,0.75 z"
       style="fill:#ffffff;stroke-width:0.862411"
       id="path24" />
    <path
       d="m 16.59,13.39 c 0,0 -0.56,-2.94 -3.35,-3.34 -2.62,-0.38 -3.81,1.98 -3.81,1.98 0,0 -1.35,-0.17 -1.93,0.62 -0.48,0.66 -0.57,1.66 -0.57,1.66 0,0 -3.39,0.15 -3.51,3.15 -0.04,0.91 0.57,1.65 1.25,1.97 0.68,0.32 1.61,0.53 3.02,0.03 0.12,0.04 1.39,1.64 3.7,1.81 2.31,0.17 3.58,-1.67 3.58,-1.67 0,0 1.74,0.87 3.55,0.28 1.81,-0.59 2.54,-2.28 2.19,-3.89 -0.35,-1.61 -2.17,-3 -4.12,-2.61 z"
       style="fill:none;stroke:#5c3566;stroke-width:0.647991px;stroke-linecap:round;stroke-linejoin:round"
       id="path25" />
    <path
       d="m 16.59,13.39 c 0,0 -0.56,-2.94 -3.35,-3.34 -2.62,-0.38 -3.81,1.98 -3.81,1.98 0,0 -1.35,-0.17 -1.93,0.62 -0.48,0.66 -0.57,1.66 -0.57,1.66 0,0 -3.39,0.15 -3.51,3.15 -0.04,0.91 0.57,1.65 1.25,1.97 0.68,0.32 1.61,0.53 3.02,0.03 0.12,0.04 1.39,1.64 3.7,1.81 2.31,0.17 3.58,-1.67 3.58,-1.67 0,0 1.74,0.87 3.55,0.28 1.81,-0.59 2.54,-2.28 2.19,-3.89 -0.35,-1.61 -2.17,-3 -4.12,-2.61 z"
       style="fill:url(#linear-gradient-8);stroke-width:0.862411"
       id="path26" />
    <path
       d="m 18.52,19.88 c -1.8,0.59 -3.55,-0.28 -3.55,-0.28 0,0 -1.27,1.84 -3.59,1.67 -2.3,-0.18 -3.57,-1.78 -3.69,-1.82 -1.4,0.49 -2.34,0.28 -3.02,-0.04 -0.63,-0.3 -1.19,-0.94 -1.25,-1.76 0.32,0.55 0.89,1.2 1.84,1.2 1.59,0 2.93,-0.63 2.93,-0.63 0,0 1.56,2.36 3.56,1.53 1.99,-0.83 2.07,-2.49 2.07,-2.49 1.59,1.25 3.74,1.04 4.21,0.21 0.49,-0.83 0.69,-1.79 -0.83,-2.62 -1.52,-0.83 -3.17,0 -3.17,0 0,0 0.76,-0.71 0.73,-2.18 -0.02,-0.82 -0.42,-2.1 -1.6,-2.64 h 0.07 c 2.8,0.4 3.36,3.35 3.36,3.35 1.95,-0.4 3.78,1.03 4.11,2.6 0.36,1.61 -0.38,3.3 -2.18,3.89 z"
       style="fill:url(#linear-gradient-9);stroke-width:0.862411"
       id="path27" />
    <path
       d="m 5.72,17.26 c 0.09,-0.32 0.34,-0.58 0.64,-0.73 0.3,-0.15 0.63,-0.21 0.96,-0.25 0.78,-0.08 2.48,0.06 2.48,0.06 0,0 -0.39,-0.96 -0.07,-1.57 0.33,-0.63 0.97,-0.58 1.54,-0.22 0.03,-0.66 0.09,-1.38 0.57,-1.83 0.45,-0.42 1.17,-0.46 1.72,-0.19 0.09,0.04 0.15,0.09 0.22,0.14 -0.28,-0.59 -0.91,-1.18 -1.93,-1.06 -1.48,0.17 -1.89,1.49 -1.89,1.49 0,0 -0.74,-0.19 -1.35,0.02 -0.87,0.31 -1,1.59 -0.83,2.37 0,0 -0.91,-0.17 -1.93,0.21 -1.39,0.51 -1.82,2.05 -0.89,2.61 0.49,0.3 1.09,0.29 1.48,0 C 5.89,18.19 5.56,17.92 5.73,17.26 Z"
       style="fill:url(#New_Gradient_Swatch_22);stroke-width:0.862411"
       id="path28" />
    <path
       d="m 16.59,13.39 c 0,0 -0.56,-2.94 -3.35,-3.34 -2.62,-0.38 -3.81,1.98 -3.81,1.98 0,0 -1.35,-0.17 -1.93,0.62 -0.48,0.66 -0.57,1.66 -0.57,1.66 0,0 -3.39,0.15 -3.51,3.15 -0.04,0.91 0.57,1.65 1.25,1.97 0.68,0.32 1.61,0.53 3.02,0.03 0.12,0.04 1.39,1.64 3.7,1.81 2.31,0.17 3.58,-1.67 3.58,-1.67 0,0 1.74,0.87 3.55,0.28 1.81,-0.59 2.54,-2.28 2.19,-3.89 -0.35,-1.61 -2.17,-3 -4.12,-2.61 z"
       style="fill:none;stroke:#3465a4;stroke-width:0.647991px;stroke-linecap:round;stroke-linejoin:round"
       id="path29" />
    <path
       d="m 19.14,19.95 c -1.98,0.65 -3.89,-0.31 -3.89,-0.31 0,0 -1.41,2.02 -3.93,1.83 -1.82,-0.14 -3.05,-1.08 -3.65,-1.61 1.93,1.28 3.5,1.33 4.79,0.46 1.32,-0.88 1.63,-2.1 1.63,-2.1 1.54,0.96 3.46,1.08 4.69,0.47 1.24,-0.6 2.21,-3.1 0.53,-4.47 -1.68,-1.37 -3.92,-0.78 -3.92,-0.78 0,0 -0.32,-2.87 -2.13,-3.56 -1.57,-0.59 -2.81,0.06 -3.48,0.57 0.65,-0.71 1.82,-1.57 3.56,-1.32 3.07,0.45 3.68,3.67 3.68,3.67 2.14,-0.44 4.14,1.14 4.52,2.86 0.38,1.76 -0.43,3.62 -2.41,4.26 z"
       style="fill:none;stroke-width:0.862411"
       id="path30" />
  </g>
</svg>
