<?xml version="1.0" encoding="UTF-8" standalone="no"?>
<svg
   xmlns:dc="http://purl.org/dc/elements/1.1/"
   xmlns:cc="http://creativecommons.org/ns#"
   xmlns:rdf="http://www.w3.org/1999/02/22-rdf-syntax-ns#"
   xmlns:svg="http://www.w3.org/2000/svg"
   xmlns="http://www.w3.org/2000/svg"
   xmlns:xlink="http://www.w3.org/1999/xlink"
   xmlns:sodipodi="http://sodipodi.sourceforge.net/DTD/sodipodi-0.dtd"
   xmlns:inkscape="http://www.inkscape.org/namespaces/inkscape"
   viewBox="0 0 48 48"
   version="1.1"
   id="svg15200"
   sodipodi:docname="13-Sharpie.svg"
   inkscape:version="1.0.1 (3bc2e813f5, 2020-09-07)">
  <metadata
     id="metadata15204">
    <rdf:RDF>
      <cc:Work
         rdf:about="">
        <dc:format>image/svg+xml</dc:format>
        <dc:type
           rdf:resource="http://purl.org/dc/dcmitype/StillImage" />
      </cc:Work>
    </rdf:RDF>
  </metadata>
  <sodipodi:namedview
     pagecolor="#ffffff"
     bordercolor="#666666"
     borderopacity="1"
     objecttolerance="10"
     gridtolerance="10"
     guidetolerance="10"
     inkscape:pageopacity="0"
     inkscape:pageshadow="2"
     inkscape:window-width="2560"
     inkscape:window-height="1377"
     id="namedview15202"
     showgrid="false"
     inkscape:snap-global="false"
     inkscape:zoom="10.827573"
     inkscape:cx="-0.99978142"
     inkscape:cy="28.499485"
     inkscape:window-x="-8"
     inkscape:window-y="-8"
     inkscape:window-maximized="1"
     inkscape:current-layer="svg15200" />
  <defs
     id="defs15121">
    <linearGradient
       inkscape:collect="always"
       id="linearGradient15898">
      <stop
         style="stop-color:#e81111;stop-opacity:1;"
         offset="0"
         id="stop15894" />
      <stop
         style="stop-color:#ff6767;stop-opacity:1"
         offset="0.23662375"
         id="stop15902" />
      <stop
         style="stop-color:#c60808;stop-opacity:1;"
         offset="0.43082091"
         id="stop15904" />
      <stop
         style="stop-color:#820202;stop-opacity:1"
         offset="0.75474083"
         id="stop15906" />
      <stop
         style="stop-color:#a40000;stop-opacity:1"
         offset="1"
         id="stop15896" />
    </linearGradient>
    <linearGradient
       inkscape:collect="always"
       id="linearGradient15880">
      <stop
         style="stop-color:#f89797;stop-opacity:1"
         offset="0"
         id="stop15876" />
      <stop
         style="stop-color:#ef2929;stop-opacity:1"
         offset="1"
         id="stop15878" />
    </linearGradient>
    <linearGradient
       inkscape:collect="always"
       id="linearGradient15872">
      <stop
         style="stop-color:#ef2929;stop-opacity:1;"
         offset="0"
         id="stop15868" />
      <stop
         style="stop-color:#ef2929;stop-opacity:0;"
         offset="1"
         id="stop15870" />
    </linearGradient>
    <linearGradient
       inkscape:collect="always"
       id="linearGradient15864">
      <stop
         style="stop-color:#ffffff;stop-opacity:1;"
         offset="0"
         id="stop15860" />
      <stop
         style="stop-color:#ffffff;stop-opacity:0;"
         offset="1"
         id="stop15862" />
    </linearGradient>
    <linearGradient
       inkscape:collect="always"
       id="linearGradient15856">
      <stop
         style="stop-color:#d3d3d3;stop-opacity:1;"
         offset="0"
         id="stop15852" />
      <stop
         style="stop-color:#bebebe;stop-opacity:1"
         offset="1"
         id="stop15854" />
    </linearGradient>
    <linearGradient
       inkscape:collect="always"
       id="linearGradient15848">
      <stop
         style="stop-color:#8c989c;stop-opacity:1"
         offset="0"
         id="stop15844" />
      <stop
         style="stop-color:#2e3436;stop-opacity:1"
         offset="1"
         id="stop15846" />
    </linearGradient>
    <style
       id="style15082">.cls-1{isolation:isolate;}.cls-2{fill:#d0d0d0;}.cls-3{fill:url(#radial-gradient);}.cls-4{fill:none;stroke-linecap:round;stroke-linejoin:round;stroke-width:1.4px;stroke:url(#linear-gradient);}.cls-5{fill:#2e3436;}.cls-6{fill:#555753;}.cls-7{fill:url(#linear-gradient-2);}.cls-11,.cls-13,.cls-8{mix-blend-mode:multiply;}.cls-8{fill:url(#linear-gradient-3);}.cls-9{fill:url(#linear-gradient-5);}.cls-10{fill:#d3d7cf;}.cls-11{opacity:0.71;fill:url(#linear-gradient-6);}.cls-12{fill:url(#linear-gradient-7);}.cls-13{fill:url(#linear-gradient-8);}.cls-14{opacity:0.9;fill:url(#linear-gradient-9);}.cls-15{fill:#5e605c;}.cls-16{fill:#676a65;}.cls-17{fill:#71736e;}.cls-18{fill:#7a7c77;}.cls-19{fill:#838580;}.cls-20{fill:#8c8f89;}.cls-21{fill:#959892;}.cls-22{fill:#9ea19b;}.cls-23{fill:#a8aaa4;}.cls-24{fill:#b1b4ad;}.cls-25{fill:#babdb6;}</style>
    <radialGradient
       id="radial-gradient"
       cx="-39.73"
       cy="102.42"
       r="15.35"
       gradientTransform="matrix(1.43,0,0,0.4,80.69,-0.59)"
       gradientUnits="userSpaceOnUse">
      <stop
         offset="0.08"
         stop-color="#2c2c2c"
         stop-opacity="0.4"
         id="stop15084" />
      <stop
         offset="0.28"
         stop-color="#2c2c2c"
         stop-opacity="0.27"
         id="stop15086" />
      <stop
         offset="0.71"
         stop-color="#2c2c2c"
         stop-opacity="0.1"
         id="stop15088" />
      <stop
         offset="0.95"
         stop-color="#2c2c2c"
         stop-opacity="0"
         id="stop15090" />
    </radialGradient>
    <linearGradient
       id="linear-gradient"
       x1="39.1"
       y1="39.19"
       x2="14.78"
       y2="39.19"
       gradientUnits="userSpaceOnUse"
       gradientTransform="translate(-12.212245,4.1795918)">
      <stop
         offset="0"
         stop-color="#888a85"
         stop-opacity="0.1"
         id="stop15093" />
      <stop
         offset="0.46"
         stop-color="#848681"
         stop-opacity="0.9"
         id="stop15095" />
      <stop
         offset="0.87"
         stop-color="#555753"
         id="stop15097" />
    </linearGradient>
    <linearGradient
       id="linear-gradient-2"
       x1="20.92"
       y1="9.75"
       x2="17.45"
       y2="3.61"
       gradientTransform="translate(14.58 -8.42) rotate(30)"
       gradientUnits="userSpaceOnUse">
      <stop
         offset="0"
         stop-color="#fff"
         stop-opacity="0"
         id="stop15100" />
      <stop
         offset="1"
         stop-color="snow"
         id="stop15102" />
    </linearGradient>
    <linearGradient
       id="linear-gradient-3"
       x1="21.61"
       y1="38.25"
       x2="26.33"
       y2="38.25"
       gradientTransform="translate(14.58 -8.42) rotate(30)"
       gradientUnits="userSpaceOnUse">
      <stop
         offset="0"
         stop-color="#eeeeec"
         stop-opacity="0"
         id="stop15105" />
      <stop
         offset="0.87"
         stop-color="#555753"
         id="stop15107" />
    </linearGradient>
    <linearGradient
       id="linear-gradient-5"
       x1="19.20347"
       y1="36.244083"
       x2="14.649796"
       y2="37.471634"
       xlink:href="#linear-gradient-2"
       gradientTransform="matrix(1.334784,0,0,1.3316751,-9.7420962,-7.5333787)" />
    <linearGradient
       id="linear-gradient-6"
       x1="24.26"
       y1="21.11"
       x2="25.91"
       y2="21.11"
       gradientTransform="matrix(1.1559569,0.66583753,-0.66739201,1.1532644,9.7190554,-18.746083)"
       gradientUnits="userSpaceOnUse">
      <stop
         offset="0"
         stop-color="#888a85"
         stop-opacity="0.4"
         id="stop15111" />
      <stop
         offset="0.46"
         stop-color="#848681"
         stop-opacity="0.9"
         id="stop15113" />
      <stop
         offset="0.87"
         stop-color="#555753"
         id="stop15115" />
    </linearGradient>
    <linearGradient
       id="linear-gradient-7"
       x1="23.14"
       y1="26.2"
       x2="21.25"
       y2="26.2"
       xlink:href="#linear-gradient-2"
       gradientTransform="translate(-24.42449,1.0448979)" />
    <linearGradient
       id="linear-gradient-8"
       x1="22.02"
       y1="20.72"
       x2="27.9"
       y2="20.72"
       xlink:href="#linear-gradient-3"
       gradientTransform="translate(5.942857,4.8979591)" />
    <linearGradient
       id="linear-gradient-9"
       x1="23.09"
       y1="9.98"
       x2="21.25"
       y2="9.98"
       xlink:href="#linear-gradient-2"
       gradientTransform="translate(2.3510203,5.1591836)" />
    <linearGradient
       inkscape:collect="always"
       xlink:href="#linear-gradient-3"
       id="linearGradient15769"
       gradientUnits="userSpaceOnUse"
       gradientTransform="matrix(1.1559569,0.66583753,-0.66739201,1.1532644,9.7190554,-18.746083)"
       x1="21.61"
       y1="38.25"
       x2="26.33"
       y2="38.25" />
    <linearGradient
       inkscape:collect="always"
       xlink:href="#linear-gradient-3"
       id="linearGradient15771"
       gradientUnits="userSpaceOnUse"
       gradientTransform="matrix(1.1559569,0.66583753,-0.66739201,1.1532644,9.7190554,-18.746083)"
       x1="21.61"
       y1="38.25"
       x2="26.33"
       y2="38.25" />
    <linearGradient
       inkscape:collect="always"
       xlink:href="#linearGradient15848"
       id="linearGradient15850"
       x1="8.7030544"
       y1="25.334515"
       x2="15.539937"
       y2="28.599821"
       gradientUnits="userSpaceOnUse"
       gradientTransform="matrix(1.334784,0,0,1.3316751,6.558614,-13.099237)" />
    <linearGradient
       inkscape:collect="always"
       xlink:href="#linearGradient15856"
       id="linearGradient15858"
       x1="8.9559011"
       y1="26.29767"
       x2="14.005919"
       y2="29.236446"
       gradientUnits="userSpaceOnUse"
       gradientTransform="matrix(1.334784,0,0,1.3316751,6.558614,-13.099237)" />
    <linearGradient
       inkscape:collect="always"
       xlink:href="#linearGradient15864"
       id="linearGradient15866"
       x1="7.5155764"
       y1="29.167448"
       x2="9.2044897"
       y2="30.244999"
       gradientUnits="userSpaceOnUse"
       gradientTransform="matrix(1.334784,0,0,1.3316751,6.558614,-13.099237)" />
    <linearGradient
       inkscape:collect="always"
       xlink:href="#linearGradient15872"
       id="linearGradient15874"
       x1="19.284336"
       y1="43.562943"
       x2="26.887755"
       y2="43.378227"
       gradientUnits="userSpaceOnUse"
       gradientTransform="matrix(1.334784,0,0,1.3316751,6.558614,-13.099237)" />
    <radialGradient
       inkscape:collect="always"
       xlink:href="#linearGradient15880"
       id="radialGradient15882"
       cx="20.852167"
       cy="10.789051"
       fx="20.852167"
       fy="10.789051"
       r="1.6844702"
       gradientTransform="matrix(1.5102946,1.0012298,-0.42177477,0.63326147,7.6965767,-25.554727)"
       gradientUnits="userSpaceOnUse" />
    <linearGradient
       inkscape:collect="always"
       xlink:href="#linearGradient15898"
       id="linearGradient15900"
       x1="15.239658"
       y1="15.51727"
       x2="20.317165"
       y2="18.463211"
       gradientUnits="userSpaceOnUse"
       gradientTransform="matrix(1.334784,0,0,1.3316751,6.558614,-13.099237)" />
  </defs>
  <title
     id="title15123">13-Sharpie</title>
  <g
     id="shadow"
     style="isolation:isolate;stroke-width:1.64432"
     transform="matrix(0.56569149,0,0,0.65380798,-0.30292471,17.924313)">
    <ellipse
       class="cls-3"
       cx="24.01"
       cy="39.98"
       rx="21.049999"
       ry="5.8699999"
       id="ellipse15128"
       style="fill:url(#radial-gradient);stroke-width:1.64432" />
  </g>
  <path
     class="cls-4"
     d="m 10.920361,45.334121 a 19.501194,19.455773 0 0 0 6.914182,-0.932172 c 0.947696,-0.372869 5.913093,-3.888491 6.500398,-1.771128 a 1.6150887,1.6113269 0 0 1 -0.106782,0.932172 21.356544,21.306801 0 0 0 -0.827567,1.97088 1.9888282,1.9841958 0 0 0 -0.08008,1.145241 c 0.533914,1.704544 2.949873,-0.199752 3.603917,-0.745739 a 12.253317,12.224777 0 0 1 1.935437,-1.531426 1.6150887,1.6113269 0 0 1 2.34922,0.399503 c 0.547261,0.732421 1.187958,0.732421 2.149002,0.719104 h 8.155531"
     id="path15131"
     style="isolation:isolate;stroke:url(#linearGradient15874)" />
  <path
     class="cls-5"
     d="m 32.757428,1.0426089 a 4.4715265,4.4611114 0 0 1 2.082263,0.639204 c 1.121219,0.6392041 1.801959,1.5846934 1.761915,2.0108294 v 0 A 6.6739201,6.6583753 0 0 1 36.121084,6.1828747 21.142979,21.093733 0 0 1 34.279082,10.1779 l -2.095611,3.622156 -5.259049,9.082024 -6.447007,11.146121 c -0.173522,0.306284 -0.347044,0.599253 -0.533914,0.892222 -0.934349,1.491476 -1.922088,3.009586 -2.989916,4.447794 a 8.0087042,7.9900504 0 0 1 -1.107871,1.398259 4.8052225,4.7940303 0 0 1 -2.34922,1.518109 l -1.334784,1.464843 c 0,0.09322 -0.146826,0.119851 -0.307,0.119851 a 2.9098292,2.9030517 0 0 1 -1.241349,-0.41282 C 9.9059254,43.043641 9.438751,42.510971 9.5855772,42.271269 l 0.6940878,-1.864345 a 5.3391361,5.3267003 0 0 1 0.507218,-3.821908 l 0.654044,-1.504792 c 0.774175,-1.624644 1.575045,-3.249287 2.46935,-4.807348 l 6.447007,-11.172754 c 2.282481,-3.995024 4.311353,-7.430746 5.259049,-9.082023 l 2.095611,-3.6221564 a 21.983892,21.932688 0 0 1 2.589481,-3.5688891 6.9675726,6.9513439 0 0 1 1.92209,-1.6645938 v 0 a 0.93434882,0.93217255 0 0 1 0.533913,-0.1198508 m 0,-0.93217278 v 0 A 1.8820455,1.8776618 0 0 0 31.716297,0.3767714 8.7695311,8.7491052 0 0 0 29.607338,2.214483 20.368804,20.321362 0 0 0 26.93777,5.9698067 l -2.108958,3.6221562 -1.761916,3.0495361 -3.443743,6.032487 -6.540442,11.172754 c -0.907653,1.584694 -1.735219,3.262604 -2.482698,4.847298 -0.226913,0.506037 -0.467174,0.998756 -0.6807398,1.491476 a 6.3001806,6.2855064 0 0 0 -0.6406963,4.22141 l -0.507218,1.518109 c -0.3336959,0.745739 0.2002177,1.63796 1.4282191,2.343749 a 3.7240474,3.7153734 0 0 0 1.708523,0.545986 1.2413491,1.2384578 0 0 0 1.041132,-0.412819 l 1.081175,-1.211825 a 5.8863976,5.872687 0 0 0 2.402611,-1.584693 l 0.106783,-0.09322 a 9.2367055,9.2151914 0 0 0 1.094523,-1.331673 l 0.133478,-0.173118 c 1.147914,-1.624643 2.122307,-3.089486 2.976569,-4.461112 0.18687,-0.306284 0.37374,-0.612569 0.547261,-0.918855 v 0 l 6.447008,-11.146121 5.232352,-9.175241 0.587306,-1.025389 1.508305,-2.663351 A 22.037284,21.985955 0 0 0 36.975346,6.4758432 7.7283995,7.7103986 0 0 0 37.495912,3.812493 C 37.575999,2.80042 36.441432,1.6019125 35.266822,0.92275817 A 5.5260059,5.5131348 0 0 0 32.717385,0.16370312 Z"
     id="path15133"
     style="isolation:isolate;fill:url(#linearGradient15850);fill-opacity:1;stroke-width:1;stroke-miterlimit:4;stroke-dasharray:none" />
  <polygon
     points="16.36,38.71 15.49,40.08 13.03,39.94 14.54,37.61 "
     id="polygon15135"
     style="isolation:isolate;fill:#ef2929;stroke:#a40000;stroke-width:0.37503;stroke-miterlimit:4;stroke-dasharray:none"
     transform="matrix(1.3347841,0,0,1.3316751,-9.7420952,-7.5333788)" />
  <path
     class="cls-5"
     d="m 31.542774,1.468745 h 0.333697 l -0.547262,0.479403 -1.815306,3.1161196 -0.667392,-0.372869 a 2.4426548,2.4369653 0 0 0 0.18687,-0.3861857 0.37373953,0.37286901 0 0 0 -0.333696,-0.4794031 h -0.09344 -0.427131 a 0.33369601,0.33291877 0 0 0 -0.213565,0.106534 26.281898,26.220682 0 0 0 -2.963221,3.9950252 1.7485671,1.7444943 0 0 0 -0.226913,0.7856883 0.08008704,0.07990051 0 0 0 0.06674,0.106534 h 0.120131 a 0.10678272,0.106534 0 0 1 0.08008,0.1065341 4.0043521,3.9950252 0 0 1 -0.507218,1.9176126 2.4026112,2.3970151 0 0 1 -1.121219,0.892222 h -0.08008 a 0.22691328,0.22638477 0 0 1 -0.226913,-0.199751 5.5927451,5.5797186 0 0 1 0,-1.8510289 19.060716,19.01632 0 0 1 2.7897,-4.7540799 20.315413,20.268095 0 0 1 2.856438,-3.0628528 1.334784,1.3316751 0 0 1 0.68074,-0.3062852 16.017409,15.980101 0 0 1 2.215741,-0.1198507 m 0,-0.93217259 a 15.096407,15.061245 0 0 0 -2.375916,0.1331675 2.3892634,2.3836983 0 0 0 -1.121217,0.50603649 22.611242,22.558576 0 0 0 -3.123396,3.3025542 19.901629,19.855276 0 0 0 -2.936524,5.0869988 5.4192232,5.4066008 0 0 0 0,1.9708791 v 0.213068 a 1.1479143,1.1452405 0 0 0 1.147914,1.012073 1.1612621,1.1585573 0 0 0 0.427131,-0.0799 3.3102644,3.3025542 0 0 0 1.561697,-1.238457 5.1656142,5.1535825 0 0 0 0.654045,-2.4236488 1.17461,1.171874 0 0 0 -0.133479,-0.5326701 v 0 a 28.297421,28.231512 0 0 1 2.255785,-3.1427532 0.93434882,0.93217255 0 0 0 0.293652,0.2663351 l 0.667393,0.3861857 a 0.97439234,0.97212279 0 0 0 0.467174,0.1198497 0.93434882,0.93217255 0 0 0 0.867609,-0.5593035 l 1.73522,-2.9829522 0.42713,-0.3861857 A 0.92100098,0.91885579 0 0 0 32.717385,1.1358261 0.90765314,0.90553904 0 0 0 31.863123,0.5365724 Z"
     id="path15141"
     style="isolation:isolate;fill:#906565;fill-opacity:1;stroke-width:1" />
  <path
     class="cls-6"
     d="m 31.876471,1.468745 a 19.114108,19.069587 0 0 0 -2.549438,0.1198507 1.334784,1.3316751 0 0 0 -0.68074,0.3062853 20.315413,20.268095 0 0 0 -2.856437,3.0628527 19.060716,19.01632 0 0 0 -2.789699,4.8206636 5.5927451,5.5797186 0 0 0 0,1.8510287 0.22691328,0.22638477 0 0 0 0.307,0.186434 2.4026112,2.3970151 0 0 0 1.121219,-0.892222 4.0043521,3.9950252 0 0 0 0.533914,-1.9841959 0.10678272,0.106534 0 0 0 -0.08009,-0.106534 h -0.08008 a 0.08008704,0.07990051 0 0 1 -0.06674,-0.106534 1.7485671,1.7444943 0 0 1 0.226913,-0.7856883 26.281898,26.220682 0 0 1 2.96322,-3.9950252 0.33369601,0.33291877 0 0 1 0.213566,-0.1065341 h 0.520566 a 0.37373953,0.37286901 0 0 1 0.333695,0.4794031 2.4426548,2.4369653 0 0 1 -0.18687,0.3861858 l 0.667392,0.3728689 1.815307,-3.1161196 z"
     id="path15143"
     style="isolation:isolate;fill:#f36464;fill-opacity:1;stroke-width:1" />
  <path
     class="cls-5"
     d="m 30.127904,3.120022 -1.268046,1.5580599 a 1.6417844,1.6379604 0 0 0 0.106784,-0.372869 0.34704384,0.34623552 0 0 0 -0.320349,-0.4660864 3.1634382,3.1560699 0 0 0 -0.520566,0 0.24026112,0.23970151 0 0 0 -0.186869,0.079901 10.87849,10.853152 0 0 1 0.827566,-0.7990051 0.70743554,0.70578778 0 0 1 0.520566,-0.1331674 z"
     id="path15149"
     style="isolation:isolate;fill:#800000;fill-opacity:1;stroke-width:1" />
  <path
     class="cls-5"
     d="m 15.859062,40.79311 -5.472614,-3.142754 a 4.1244827,4.114876 0 0 0 -0.106783,2.756568 l -0.6140007,1.877661 c -0.1468262,0.239702 0.3203482,0.772372 1.0277837,1.185192 0.707436,0.412819 1.414871,0.545986 1.548349,0.292968 l 1.334784,-1.464842 a 4.685092,4.6741795 0 0 0 2.282481,-1.504793 z"
     id="path15151"
     style="isolation:isolate;stroke-width:1" />
  <path
     class="cls-8"
     d="m 15.859062,40.79311 -5.472614,-3.142754 a 4.1244827,4.114876 0 0 0 -0.106783,2.756568 l -0.6140007,1.877661 c -0.1468262,0.239702 0.3203482,0.772372 1.0277837,1.185192 0.707436,0.412819 1.414871,0.545986 1.548349,0.292968 l 1.334784,-1.464842 a 4.685092,4.6741795 0 0 0 2.282481,-1.504793 z"
     id="path15153"
     style="isolation:isolate;fill:url(#linearGradient15769);stroke-width:1" />
  <path
     class="cls-8"
     d="m 15.859062,40.79311 -5.472614,-3.142754 a 4.1244827,4.114876 0 0 0 -0.106783,2.756568 l -0.6140007,1.877661 c -0.1468262,0.239702 0.3203482,0.772372 1.0277837,1.185192 0.707436,0.412819 1.414871,0.545986 1.548349,0.292968 l 1.334784,-1.464842 a 4.685092,4.6741795 0 0 0 2.282481,-1.504793 z"
     id="path15155"
     style="isolation:isolate;fill:url(#linearGradient15771);stroke-width:1" />
  <path
     class="cls-9"
     d="m 10.386448,37.650356 c -0.352452,0.879227 -0.3901664,1.852825 -0.106783,2.756568 l -0.6140007,1.877661 c -0.1468262,0.239702 0.3203482,0.772372 1.0277837,1.185192 0.334235,0.267096 0.786697,0.376926 1.29474,0.412819 0.08779,0.002 0.169681,-0.04396 0.213566,-0.119851 l 1.334784,-1.464842 c 0.906813,-0.253017 1.716168,-0.772767 2.322524,-1.491477 z"
     id="path15157"
     style="isolation:isolate;fill:url(#linear-gradient-5);stroke-width:1"
     sodipodi:nodetypes="ccccccccc" />
  <path
     class="cls-5"
     d="m 16.17941,40.500141 v 0 c 0.654045,-0.838956 3.016612,-4.208093 4.284657,-6.405357 l -6.55379,-3.80859 c -1.268044,2.197263 -3.003264,5.925953 -3.403699,6.898076 v 0 0 c -0.387087,1.038707 0.400435,2.463599 1.882046,3.315871 a 3.0833511,3.0761694 0 0 0 3.804134,0 v 0 z"
     id="path15159"
     style="isolation:isolate;fill:#a40000;stroke-width:1" />
  <path
     class="cls-10"
     d="m 25.616333,10.058049 -5.259049,9.042073 -6.447007,11.186072 c -0.547261,0.958806 0.467175,2.583449 2.282481,3.622155 1.815307,1.038707 3.737395,1.118608 4.284657,0.159801 l 6.447007,-11.14612 5.259049,-9.082023"
     id="path15161"
     style="isolation:isolate;fill:url(#linearGradient15858);fill-opacity:1;stroke-width:1" />
  <path
     class="cls-11"
     d="M 27.765336,14.39931 16.419671,34.014883 C 16.339584,34.134735 13.910277,38.28956 13.21619,39.275 l -0.894306,1.238458 v 0 a 4.351396,4.3412607 0 0 0 1.988829,0.61257 c 0.573957,-0.785688 3.483787,-4.953831 4.311353,-6.39204 l 11.49249,-19.762058 0.266956,-0.466086 3.243526,-5.6063522 a 17.632497,17.591428 0 0 0 2.015524,-5.553085 l -1.66848,-0.7990051 a 27.843595,27.778742 0 0 1 -2.602829,5.6329856 z"
     id="path15165"
     style="isolation:isolate;fill:url(#linear-gradient-6);stroke-width:1" />
  <path
     class="cls-12"
     d="M 12.182958,40.434373 A 4.177874,4.168143 0 0 1 10.995,39.102697 2.1756979,2.1706304 0 0 1 10.741391,37.371519 v 0 c 0,0 0,0 0,0 0.413783,-0.972122 2.149002,-4.700813 3.417047,-6.898076 l 6.460355,-11.199387 3.857526,-6.658375 c -0.440479,0.759054 0.106782,1.930928 1.254697,2.903051 L 15.626701,32.963675 c -0.707436,1.225141 -2.669568,4.847298 -3.110047,5.899321 -0.440479,1.052023 -0.640696,1.198507 -0.333696,1.571377 z"
     id="path15167"
     style="isolation:isolate;fill:url(#linearGradient15866);fill-opacity:1;stroke-width:1" />
  <path
     class="cls-5"
     d="m 32.223515,1.1624597 a 7.020964,7.0046108 0 0 0 -1.92209,1.6645938 21.983892,21.932688 0 0 0 -2.589481,3.6088394 l -3.497133,6.0058541 c -0.56061,0.958806 0.467174,2.58345 2.28248,3.635473 1.815306,1.052024 3.737396,1.105291 4.284657,0.146485 l 3.52383,-6.005855 A 21.142979,21.093733 0 0 0 36.14778,6.222825 7.528182,7.5106474 0 0 0 36.64165,3.7325925"
     id="path15163"
     style="isolation:isolate;fill:url(#linearGradient15900);fill-opacity:1;stroke-width:1" />
  <path
     class="cls-6"
     d="M 36.660282,4.1749218 C 36.86516,3.8245207 36.243861,2.5126544 34.882886,1.6804507 33.521911,0.84824696 31.948087,0.99210914 31.787112,1.3571107 c -0.160976,0.3650014 0.731707,1.2702048 2.092683,2.0586084 1.360974,0.7884037 2.575609,1.1242041 2.780487,0.7592027 z"
     id="path15173"
     style="isolation:isolate;fill:url(#radialGradient15882);fill-opacity:1;stroke-width:1"
     sodipodi:nodetypes="csssc" />
</svg>
