<?xml version="1.0" encoding="UTF-8" standalone="no"?>
<svg
   viewBox="0 0 48 48"
   version="1.1"
   id="svg73"
   sodipodi:docname="meteor.svg"
   inkscape:version="1.3-dev (fdc7329b, 2022-05-31)"
   xmlns:inkscape="http://www.inkscape.org/namespaces/inkscape"
   xmlns:sodipodi="http://sodipodi.sourceforge.net/DTD/sodipodi-0.dtd"
   xmlns:xlink="http://www.w3.org/1999/xlink"
   xmlns="http://www.w3.org/2000/svg"
   xmlns:svg="http://www.w3.org/2000/svg">
  <sodipodi:namedview
     id="namedview73"
     pagecolor="#ffffff"
     bordercolor="#666666"
     borderopacity="1.0"
     inkscape:showpageshadow="2"
     inkscape:pageopacity="0.0"
     inkscape:pagecheckerboard="0"
     inkscape:deskcolor="#d1d1d1"
     showgrid="false"
     inkscape:zoom="13.906433"
     inkscape:cx="23.370478"
     inkscape:cy="24.017661"
     inkscape:window-width="2880"
     inkscape:window-height="1557"
     inkscape:window-x="-8"
     inkscape:window-y="-8"
     inkscape:window-maximized="1"
     inkscape:current-layer="svg73" />
  <defs
     id="defs32">
    <radialGradient
       id="radial-gradient"
       cx="-174.7"
       cy="115.26"
       fx="-174.7"
       fy="115.26"
       r="9.14"
       gradientTransform="matrix(1.7,0,0,0.71,313.44,-41.7)"
       gradientUnits="userSpaceOnUse">
      <stop
         offset=".12"
         stop-color="#212121"
         stop-opacity=".4"
         id="stop1" />
      <stop
         offset=".97"
         stop-color="#212121"
         stop-opacity="0"
         id="stop2" />
    </radialGradient>
    <linearGradient
       id="linear-gradient"
       x1="41.02"
       y1="11.32"
       x2="19.39"
       y2="27.05"
       gradientUnits="userSpaceOnUse">
      <stop
         offset="0"
         stop-color="#f57900"
         id="stop3" />
      <stop
         offset=".7"
         stop-color="#fdcf4d"
         id="stop4" />
    </linearGradient>
    <linearGradient
       id="linear-gradient-2"
       x1="13.89"
       y1="30.43"
       x2="30.02"
       y2="18.11"
       gradientUnits="userSpaceOnUse">
      <stop
         offset=".22"
         stop-color="#f7ea81"
         id="stop5" />
      <stop
         offset="1"
         stop-color="#fcaf3e"
         id="stop6" />
    </linearGradient>
    <linearGradient
       id="linear-gradient-3"
       x1="8.63"
       y1="35.24"
       x2="24.35"
       y2="19.66"
       gradientTransform="matrix(1, 0, 0, 1, 0, 0)"
       gradientUnits="userSpaceOnUse">
      <stop
         offset="0"
         stop-color="#fcf7d2"
         id="stop7" />
      <stop
         offset="1"
         stop-color="#edd400"
         id="stop8" />
    </linearGradient>
    <linearGradient
       id="linear-gradient-4"
       x1="19.2"
       y1="33.35"
       x2="32.78"
       y2="21.03"
       xlink:href="#linear-gradient-3" />
    <linearGradient
       id="linear-gradient-5"
       x1="17.44"
       y1="31.41"
       x2="31.02"
       y2="19.09"
       xlink:href="#linear-gradient-3" />
    <linearGradient
       id="linear-gradient-6"
       x1="14.79"
       y1="28.49"
       x2="28.37"
       y2="16.17"
       xlink:href="#linear-gradient-3" />
    <linearGradient
       id="linear-gradient-7"
       x1="12.6"
       y1="25.55"
       x2="23.49"
       y2="15.67"
       xlink:href="#linear-gradient-3" />
    <linearGradient
       id="linear-gradient-8"
       x1="7.87"
       y1="36.56"
       x2="20.84"
       y2="22.41"
       gradientUnits="userSpaceOnUse">
      <stop
         offset=".11"
         stop-color="#f57900"
         id="stop9" />
      <stop
         offset=".51"
         stop-color="#e9b96e"
         id="stop10" />
      <stop
         offset=".78"
         stop-color="#e9b96e"
         id="stop11" />
      <stop
         offset="1"
         stop-color="#c17d11"
         id="stop12" />
    </linearGradient>
    <linearGradient
       id="linear-gradient-9"
       x1="12.63"
       y1="37.49"
       x2="21.49"
       y2="26.7"
       gradientUnits="userSpaceOnUse">
      <stop
         offset=".02"
         stop-color="#ef2929"
         id="stop13" />
      <stop
         offset=".4"
         stop-color="#e9b96e"
         id="stop14" />
      <stop
         offset=".79"
         stop-color="#c17d11"
         id="stop15" />
      <stop
         offset="1"
         stop-color="#8f5902"
         id="stop16" />
    </linearGradient>
    <linearGradient
       id="linear-gradient-10"
       x1="10.34"
       y1="34.36"
       x2="17.45"
       y2="25.11"
       gradientTransform="matrix(1, 0, 0, 1, 0, 0)"
       gradientUnits="userSpaceOnUse">
      <stop
         offset="0"
         stop-color="#ef2929"
         id="stop17" />
      <stop
         offset=".24"
         stop-color="#f57900"
         id="stop18" />
      <stop
         offset=".4"
         stop-color="#e9b96e"
         id="stop19" />
      <stop
         offset=".79"
         stop-color="#c17d11"
         id="stop20" />
      <stop
         offset="1"
         stop-color="#8f5902"
         id="stop21" />
    </linearGradient>
    <linearGradient
       id="linear-gradient-11"
       x1="7.56"
       y1="33.32"
       x2="16.41"
       y2="22.53"
       xlink:href="#linear-gradient-10" />
    <linearGradient
       id="linear-gradient-12"
       x1="11.07"
       y1="36.2"
       x2="19.93"
       y2="25.42"
       xlink:href="#linear-gradient-10" />
    <linearGradient
       id="linear-gradient-13"
       x1="5.77"
       y1="31.85"
       x2="14.62"
       y2="21.06"
       xlink:href="#linear-gradient-10" />
    <linearGradient
       id="linear-gradient-14"
       x1="15.83"
       y1="28.21"
       x2="16.41"
       y2="27.49"
       gradientUnits="userSpaceOnUse">
      <stop
         offset="0"
         stop-color="#c17d11"
         id="stop22" />
      <stop
         offset="1"
         stop-color="#8f5902"
         id="stop23" />
    </linearGradient>
    <linearGradient
       id="linear-gradient-15"
       x1="10.45"
       y1="34.52"
       x2="13.66"
       y2="30.2"
       xlink:href="#linear-gradient-3" />
    <linearGradient
       id="linear-gradient-16"
       x1="9.39"
       y1="35.36"
       x2="11.69"
       y2="32.19"
       xlink:href="#linear-gradient-3" />
    <linearGradient
       id="linear-gradient-17"
       x1="9.9"
       y1="30.4"
       x2="14.61"
       y2="25.81"
       gradientTransform="matrix(1, 0, 0, 1, 0, 0)"
       gradientUnits="userSpaceOnUse">
      <stop
         offset="0"
         stop-color="#c17d11"
         stop-opacity="0"
         id="stop24" />
      <stop
         offset=".21"
         stop-color="#c17d11"
         id="stop25" />
      <stop
         offset="1"
         stop-color="#8f5902"
         id="stop26" />
    </linearGradient>
    <linearGradient
       id="linear-gradient-18"
       x1="8.95"
       y1="29.43"
       x2="13.66"
       y2="24.83"
       xlink:href="#linear-gradient-17" />
    <linearGradient
       id="linear-gradient-19"
       x1="15.12"
       y1="35.75"
       x2="19.83"
       y2="31.15"
       xlink:href="#linear-gradient-17" />
    <linearGradient
       id="linear-gradient-20"
       x1="13.83"
       y1="34.43"
       x2="18.54"
       y2="29.83"
       xlink:href="#linear-gradient-17" />
    <linearGradient
       id="linear-gradient-21"
       x1="10.07"
       y1="30.57"
       x2="14.78"
       y2="25.98"
       xlink:href="#linear-gradient-17" />
    <linearGradient
       id="linear-gradient-22"
       x1="10.96"
       y1="31.49"
       x2="15.67"
       y2="26.89"
       xlink:href="#linear-gradient-17" />
    <linearGradient
       id="linear-gradient-23"
       x1="9.63"
       y1="30.13"
       x2="14.34"
       y2="25.53"
       xlink:href="#linear-gradient-17" />
    <linearGradient
       id="linear-gradient-24"
       x1="8.54"
       y1="29.01"
       x2="13.25"
       y2="24.42"
       xlink:href="#linear-gradient-17" />
    <linearGradient
       id="linear-gradient-25"
       x1="11.21"
       y1="31.74"
       x2="15.92"
       y2="27.15"
       xlink:href="#linear-gradient-17" />
    <linearGradient
       id="linear-gradient-26"
       x1="11.49"
       y1="32.03"
       x2="16.2"
       y2="27.43"
       xlink:href="#linear-gradient-17" />
    <linearGradient
       id="linear-gradient-27"
       x1="12.77"
       y1="33.35"
       x2="17.48"
       y2="28.75"
       xlink:href="#linear-gradient-17" />
    <linearGradient
       id="linear-gradient-28"
       x1="13.06"
       y1="33.64"
       x2="17.77"
       y2="29.04"
       xlink:href="#linear-gradient-17" />
    <linearGradient
       id="linear-gradient-29"
       x1="14.3"
       y1="34.91"
       x2="19.01"
       y2="30.31"
       xlink:href="#linear-gradient-17" />
    <linearGradient
       id="linear-gradient-30"
       x1="11.82"
       y1="32.37"
       x2="16.53"
       y2="27.77"
       xlink:href="#linear-gradient-17" />
    <linearGradient
       id="linear-gradient-31"
       x1="13.6"
       y1="23.08"
       x2="8.38"
       y2="27.44"
       gradientTransform="translate(2.58 -.93) rotate(5.61)"
       gradientUnits="userSpaceOnUse">
      <stop
         offset="0"
         stop-color="#fff"
         stop-opacity="0"
         id="stop27" />
      <stop
         offset="1"
         stop-color="#fff"
         id="stop28" />
    </linearGradient>
    <linearGradient
       id="linear-gradient-32"
       x1="16.1"
       y1="23.55"
       x2="9.49"
       y2="28.24"
       xlink:href="#linear-gradient-31" />
    <linearGradient
       id="linear-gradient-33"
       x1="20.53"
       y1="31.37"
       x2="17.13"
       y2="34.53"
       xlink:href="#linear-gradient-31" />
    <linearGradient
       id="linear-gradient-34"
       x1="8.83"
       y1="24.6"
       x2="6.25"
       y2="27.04"
       xlink:href="#linear-gradient-31" />
    <linearGradient
       id="linear-gradient-35"
       x1="20.39"
       y1="28.77"
       x2="17.08"
       y2="32.46"
       gradientTransform="rotate(0.17,6.805675,43.804387)"
       xlink:href="#linear-gradient-31" />
    <linearGradient
       id="linear-gradient-36"
       x1="19.89"
       y1="26.71"
       x2="18.07"
       y2="28.62"
       xlink:href="#linear-gradient-31" />
    <radialGradient
       id="radial-gradient-2"
       cx="11.88"
       cy="31.64"
       fx="11.88"
       fy="31.64"
       r="7.75"
       gradientTransform="matrix(-0.6939047,0.72006685,-0.77047153,-0.74247803,44.49,46.57)"
       gradientUnits="userSpaceOnUse">
      <stop
         offset=".56"
         stop-color="#f57900"
         id="stop29" />
      <stop
         offset=".77"
         stop-color="#fcaf3e"
         id="stop30" />
      <stop
         offset=".9"
         stop-color="#edd400"
         id="stop31" />
      <stop
         offset="1"
         stop-color="#fdfbe8"
         id="stop32" />
    </radialGradient>
    <linearGradient
       id="linear-gradient-37"
       x1="19.9"
       y1="24.17"
       x2="11.98"
       y2="29.29"
       xlink:href="#linear-gradient-31" />
    <linearGradient
       inkscape:collect="always"
       xlink:href="#linear-gradient-3"
       id="linearGradient73"
       gradientUnits="userSpaceOnUse"
       x1="8.63"
       y1="35.24"
       x2="24.35"
       y2="19.66" />
    <linearGradient
       inkscape:collect="always"
       xlink:href="#linear-gradient-10"
       id="linearGradient74"
       gradientUnits="userSpaceOnUse"
       x1="10.34"
       y1="34.36"
       x2="17.45"
       y2="25.11" />
    <linearGradient
       inkscape:collect="always"
       xlink:href="#linear-gradient-17"
       id="linearGradient75"
       gradientUnits="userSpaceOnUse"
       x1="9.9"
       y1="30.4"
       x2="14.61"
       y2="25.81" />
    <linearGradient
       inkscape:collect="always"
       xlink:href="#linear-gradient-31"
       id="linearGradient76"
       gradientUnits="userSpaceOnUse"
       gradientTransform="rotate(5.61,10.780641,25.863876)"
       x1="13.6"
       y1="23.08"
       x2="8.38"
       y2="27.44" />
  </defs>
  <g
     id="shadow"
     transform="translate(-0.93481914,1.5100924)">
    <ellipse
       cx="16.01"
       cy="40.080002"
       rx="14.96"
       ry="6.2600002"
       style="fill:url(#radial-gradient)"
       id="ellipse32" />
  </g>
  <g
     id="ART"
     transform="matrix(1.0507073,0,0,1.1376499,-1.0536671,-4.1520176)"
     style="stroke-width:0.91465">
    <path
       d="m 18.04,19.61 c 3.68,-1.5 3.39,-3.13 7.31,-4.59 3.92,-1.46 5.77,-2.99 7.95,-3.41 0,0 -5.6,3.46 -3.68,2.9 0,0 4.04,-1.56 5.41,-2.55 1.37,-0.99 2.3,-1.94 3.42,-2.35 1.12,-0.41 7.9,-5.59 7.9,-5.59 0,0 -4.81,4.16 -6.23,5.85 -1.42,1.69 -1.83,1.53 -2.71,2.52 -0.88,0.99 -2.42,3.65 -3.8,4.51 -1.38,0.86 -2.61,3.45 -1.14,2.83 1.47,-0.62 2.89,-2.22 3.73,-3.19 0.84,-0.97 1.53,-2.39 2.87,-3.15 1.34,-0.76 1.88,-2.09 1.94,-2.14 0.06,-0.05 -0.56,1.7 -1.96,3.17 -1.4,1.47 -1.73,1.77 -2.18,3.04 -0.45,1.27 -1.49,1.79 -2.57,2.91 -1.08,1.12 -1.34,2.11 -2.93,3.32 -1.59,1.21 -2.67,2.35 -2.67,2.35 0,0 1.04,-0.54 2.54,-0.82 1.5,-0.28 2.29,-1.79 2.52,-2.37 0,0 0.22,1.55 -1.77,3.34 -1.99,1.79 -3.77,1.66 -5.52,3.88 -1.75,2.22 -4.18,1.85 -4.18,1.85 L 19.98,28.53 18.04,19.6 Z"
       style="fill:url(#linear-gradient);stroke:#ce5c00;stroke-width:0.274395px;stroke-miterlimit:10"
       id="path32" />
    <path
       d="m 8.22,25.74 c 0.84,-1.34 1.04,-2.39 2.76,-3.15 1.72,-0.76 1.9,-0.28 2.85,-1.06 0.95,-0.78 1.29,-3.34 3.64,-3.95 0,0 -1.04,0.99 -1.25,2.11 0,0 1.21,-1.04 3.62,-1.62 2.41,-0.58 3.13,-1.1 3.13,-1.1 0,0 -0.24,1.1 -1.9,1.94 0,0 0.95,0.26 2.22,-0.65 1.27,-0.91 2.87,-1.88 4.42,-2.29 0,0 -2.76,1.6 -2.93,2.46 0,0 -0.07,0.73 3.46,-1.2 1.29,-0.7 3.1,-1.45 6.48,-3.53 0,0 -1.64,1.64 -3.82,3.68 -1.16,1.08 -1.24,2.14 -2.52,3.39 -1.28,1.25 -2.29,2.29 -2.68,3.9 0,0 0.82,-0.22 1.68,-0.93 0.86,-0.71 2.63,-1.1 2.63,-1.1 0,0 -1.16,0.84 -1.94,1.94 -0.78,1.1 -0.65,2.22 -1.68,2.83 -1.03,0.61 -1.9,1.06 -1.79,1.85 0.11,0.79 1.49,0.06 2.24,-0.63 0.75,-0.69 1.73,-1.1 1.73,-1.1 0,0 -0.6,0.52 -1.44,1.88 -0.84,1.36 -1.38,2.59 -3.28,3.77 -1.9,1.18 -3.13,0.75 -5.28,3.28 C 16.42,38.99 8.33,37.71 7.4,33.96 6.47,30.21 8.22,25.72 8.22,25.72 Z"
       style="fill:url(#linear-gradient-2);stroke-width:0.91465"
       id="path33" />
    <path
       d="m 8.22,25.74 c 0.84,-1.34 1.04,-2.39 2.76,-3.15 1.72,-0.76 1.9,-0.28 2.85,-1.06 0.95,-0.78 1.29,-3.34 3.64,-3.95 0,0 -1.04,0.99 -1.25,2.11 0,0 1.21,-1.04 3.62,-1.62 2.41,-0.58 3.13,-1.1 3.13,-1.1 0,0 -0.24,1.1 -1.9,1.94 0,0 0.95,0.26 2.22,-0.65 1.27,-0.91 2.87,-1.88 4.42,-2.29 0,0 -2.76,1.6 -2.93,2.46 0,0 -0.07,0.73 3.46,-1.2 1.29,-0.7 3.1,-1.45 6.48,-3.53 0,0 -1.64,1.64 -3.82,3.68 -1.16,1.08 -1.24,2.14 -2.52,3.39 -1.28,1.25 -2.29,2.29 -2.68,3.9 0,0 0.82,-0.22 1.68,-0.93 0.86,-0.71 2.63,-1.1 2.63,-1.1 0,0 -1.16,0.84 -1.94,1.94 -0.78,1.1 -0.65,2.22 -1.68,2.83 -1.03,0.61 -1.9,1.06 -1.79,1.85 0.11,0.79 1.49,0.06 2.24,-0.63 0.75,-0.69 1.73,-1.1 1.73,-1.1 0,0 -0.6,0.52 -1.44,1.88 -0.84,1.36 -1.38,2.59 -3.28,3.77 -1.9,1.18 -3.13,0.75 -5.28,3.28 C 16.42,38.99 8.33,37.71 7.4,33.96 6.47,30.21 8.22,25.72 8.22,25.72 Z"
       style="fill:none;stroke:#f57900;stroke-width:0.36586px;stroke-miterlimit:10"
       id="path34" />
    <path
       d="m 4.62,28.64 c 0.46,-1.14 0.55,-3.54 3.16,-4.23 2.61,-0.69 2.68,0.13 5.15,-0.87 2.47,-1 1.56,-1.33 3.13,-2.16 1.57,-0.83 3.55,-0.72 3.55,-0.72 0,0 -1.79,0.1 -2.37,1.71 -0.58,1.61 0.63,1.42 1.7,0.77 1.07,-0.65 1.38,-1.59 2.85,-2.19 1.47,-0.6 4.55,-1.43 6.02,-2.01 0,0 -2.49,2.04 -4.35,2.94 -1.86,0.9 -2.83,2.34 -1.85,2.52 0.98,0.18 1.71,-0.6 1.71,-0.6 0,0 -0.02,0.92 -1.1,1.65 -1.08,0.73 -0.5,1.07 0.55,0.72 1.05,-0.35 1.6,-1.21 2.07,-2 0.47,-0.79 1.96,-1.98 1.96,-1.98 0,0 -1.32,1.66 -1.79,2.81 -0.47,1.15 -0.81,2.38 -1.82,3.44 -1.01,1.06 -1.28,1.29 -1.28,1.29 0,0 1.23,-0.18 2.09,-0.71 0,0 -0.64,1.11 -1.48,1.78 -0.84,0.67 -1.93,0.92 -1.56,1.52 0.37,0.6 1.33,-0.18 2.02,-0.35 0.69,-0.17 1.01,-0.1 1.01,-0.1 0,0 -0.65,0.06 -1.33,0.75 -0.68,0.69 -1.87,1.94 -3.38,4.26 -1.51,2.32 -4.16,3.2 -5.34,3.36 -1.18,0.16 -0.82,0.66 -1.57,0.88 -0.75,0.22 -0.6,-0.48 -1.59,-0.55 C 9.79,40.5 9.27,40.35 8.49,40.59 7.71,40.83 6.8,40.22 6.77,39.61 6.74,39 6.42,38.35 5.65,37.96 4.88,37.57 4.15,37.48 3.96,36.77 3.81,36.24 3.33,35.93 3.24,35.36 3.18,34.98 3.36,34.77 3.44,34.44 3.6,33.8 3.03,33.31 2.62,32.93 2.23,32.57 2.54,31.28 3.31,30.62 4.08,29.96 4.3,29.44 4.63,28.65 Z"
       style="fill:url(#linearGradient73);stroke-width:0.91465"
       id="path35" />
    <path
       d="m 4.62,28.64 c 0.46,-1.14 0.55,-3.54 3.16,-4.23 2.61,-0.69 2.68,0.13 5.15,-0.87 2.47,-1 1.56,-1.33 3.13,-2.16 1.57,-0.83 3.55,-0.72 3.55,-0.72 0,0 -1.79,0.1 -2.37,1.71 -0.58,1.61 0.63,1.42 1.7,0.77 1.07,-0.65 1.38,-1.59 2.85,-2.19 1.47,-0.6 4.55,-1.43 6.02,-2.01 0,0 -2.49,2.04 -4.35,2.94 -1.86,0.9 -2.83,2.34 -1.85,2.52 0.98,0.18 1.71,-0.6 1.71,-0.6 0,0 -0.02,0.92 -1.1,1.65 -1.08,0.73 -0.5,1.07 0.55,0.72 1.05,-0.35 1.6,-1.21 2.07,-2 0.47,-0.79 1.96,-1.98 1.96,-1.98 0,0 -1.32,1.66 -1.79,2.81 -0.47,1.15 -0.81,2.38 -1.82,3.44 -1.01,1.06 -1.28,1.29 -1.28,1.29 0,0 1.23,-0.18 2.09,-0.71 0,0 -0.64,1.11 -1.48,1.78 -0.84,0.67 -1.93,0.92 -1.56,1.52 0.37,0.6 1.33,-0.18 2.02,-0.35 0.69,-0.17 1.01,-0.1 1.01,-0.1 0,0 -0.65,0.06 -1.33,0.75 -0.68,0.69 -1.87,1.94 -3.38,4.26 -0.8,1.23 -2,2.16 -3.34,2.75 -0.49,0.22 -1.02,0.43 -1.55,0.52 -0.35,0.06 -0.59,0.04 -0.91,0.23 -0.32,0.19 -0.64,0.48 -1.03,0.6 C 11.69,41.2 11.21,40.6 10.51,40.54 9.81,40.48 9.17,40.38 8.5,40.58 7.72,40.82 6.81,40.21 6.78,39.6 6.75,38.99 6.43,38.34 5.66,37.95 5.24,37.73 4.74,37.62 4.36,37.32 3.97,37.01 3.94,36.55 3.74,36.14 3.67,36 3.55,35.9 3.48,35.76 3.24,35.27 3.46,34.83 3.46,34.34 3.46,33.56 3.01,33.27 2.62,32.91 2.23,32.55 2.54,31.26 3.31,30.6 4.08,29.94 4.3,29.42 4.63,28.63 Z"
       style="fill:none;stroke:#fcaf3e;stroke-width:0.457325px;stroke-miterlimit:10"
       id="path36" />
    <g
       id="g40"
       style="stroke-width:0.91465">
      <path
         d="m 14.03,36.59 c 0.19,-0.1 0.33,-0.15 0.46,-0.32 0.11,-0.15 0.19,-0.32 0.36,-0.41 0.19,-0.11 0.36,-0.27 0.53,-0.41 l 2.87,-2.46 c 0.13,-0.11 0.23,-0.34 0.35,-0.48 0.14,-0.16 0.25,-0.33 0.37,-0.5 0.11,-0.16 0.21,-0.31 0.34,-0.45 0.27,-0.29 0.61,-0.49 0.95,-0.68 -0.57,0.54 -0.85,1.28 -1.16,1.98 -0.15,0.33 -0.38,0.66 -0.48,1.01 -0.09,0.31 -0.34,0.83 -0.63,1.02 0.68,-0.43 1.27,-0.98 1.76,-1.61 -0.06,0.75 -0.48,1.44 -0.95,2.05 -0.23,0.3 -0.48,0.59 -0.81,0.8 -0.23,0.14 -0.47,0.17 -0.72,0.26 -0.25,0.09 -0.5,0.25 -0.74,0.38 -0.78,0.42 -1.66,0.64 -2.55,0.65 -0.06,0 -0.12,0 -0.17,-0.02 -0.16,-0.06 -0.22,-0.28 -0.16,-0.44 0.06,-0.16 0.22,-0.27 0.37,-0.35 z"
         style="fill:url(#linear-gradient-4);stroke-width:0.91465"
         id="path37" />
      <path
         d="m 17.77,28.67 c 0.53,-0.32 1.02,-0.7 1.46,-1.13 -0.24,0.6 -0.51,1.19 -0.82,1.76 1.02,-0.72 1.91,-1.6 2.8,-2.49 -0.51,0.94 -1.1,1.83 -1.77,2.66 1.04,-0.94 2.17,-1.79 3.37,-2.53 -0.95,0.92 -1.91,1.84 -2.74,2.86 -0.83,1.02 -1.54,2.17 -1.95,3.42 -0.13,-0.35 -0.21,-0.72 -0.24,-1.1 l -0.11,-3.46 z"
         style="fill:url(#linear-gradient-5);stroke-width:0.91465"
         id="path38" />
      <path
         d="m 14.58,26.17 c 0.64,-0.34 1.26,-0.73 1.84,-1.17 l -1.02,1.28 c 2.47,-1.01 4.25,-3.26 6.67,-4.38 -1.2,0.98 -2.35,2.06 -3.15,3.39 -0.36,0.6 -0.64,1.26 -1.12,1.77 0.76,-0.61 1.44,-1.31 2.04,-2.08 -0.26,0.81 -0.56,1.63 -1.08,2.3 -0.32,0.42 -0.72,0.78 -1.12,1.14 -0.54,0.48 -1.15,0.99 -1.87,0.98 l -1.2,-3.23 z"
         style="fill:url(#linear-gradient-6);stroke-width:0.91465"
         id="path39" />
      <path
         d="m 9.6,26.43 c 0.68,-0.62 1.55,-1.04 2.46,-1.2 0.32,-0.06 0.64,-0.08 0.95,-0.14 0.92,-0.17 1.78,-0.64 2.44,-1.31 -0.24,0.59 -0.64,1.11 -1.14,1.5 0.53,-0.21 1.03,-0.52 1.45,-0.91 -0.62,0.81 -1.4,1.49 -2.32,1.94 -0.92,0.45 -1.95,0.65 -2.96,0.52 L 9.59,26.42 Z"
         style="fill:url(#linear-gradient-7);stroke-width:0.91465"
         id="path40" />
    </g>
    <path
       d="m 9.9,26.05 c 0.36,-0.09 0.54,-0.08 0.9,0 0.43,0.08 1,0.2 1.43,0.07 0.41,-0.12 0.75,-0.38 1.19,-0.46 0.12,-0.02 0.35,-0.08 0.47,-0.03 0.13,0.05 0.17,0.18 0.28,0.26 0.07,0.05 0.16,0.05 0.24,0.06 0.08,0.01 0.18,0.05 0.21,0.12 0.05,0.14 -0.12,0.28 -0.09,0.42 0.03,0.16 0.45,0.27 0.59,0.31 0.34,0.09 0.69,-0.03 1.02,0.14 0.34,0.17 0.47,0.54 0.75,0.77 0.23,0.2 0.66,0.37 0.8,0.65 0.15,0.3 -0.03,0.7 -0.05,1.01 -0.04,0.67 0.09,1.43 0.15,2.1 0.05,0.54 0.28,0.99 0.37,1.51 0.12,0.64 -0.16,1.18 -0.3,1.79 -0.04,0.19 -0.06,0.45 -0.16,0.61 -0.07,0.11 -0.2,0.18 -0.3,0.25 -0.36,0.28 -0.68,0.59 -1.02,0.89 -0.5,0.43 -1.02,1.27 -1.66,1.48 -0.59,0.19 -1.24,0.17 -1.84,0.31 -0.23,0.05 -0.46,0.1 -0.68,0.18 -0.17,0.06 -0.31,0.19 -0.47,0.26 -0.26,0.1 -0.64,0.01 -0.91,-0.01 -0.46,-0.05 -0.88,-0.01 -1.34,0 C 8.76,38.77 8.14,38.15 7.6,37.74 7.36,37.55 7.23,37.47 7.09,37.21 6.98,37 6.78,36.86 6.66,36.65 6.58,36.51 6.55,36.34 6.48,36.19 6.34,35.87 6.07,35.64 5.84,35.37 5.65,35.15 5.5,34.9 5.34,34.65 5.3,34.59 5.27,34.53 5.25,34.46 5.23,34.39 5.23,34.32 5.22,34.25 5.21,33.63 5.35,33 5.3,32.38 5.28,32.06 5.21,31.74 5.2,31.42 5.17,30.45 5.75,29.78 6.34,29.07 6.62,28.74 6.89,28.37 7.13,28.01 7.27,27.8 7.36,27.53 7.52,27.34 7.65,27.18 7.76,27.15 7.97,27.07 8.34,26.92 8.66,26.7 9,26.5 9.26,26.35 9.61,26.12 9.88,26.06 Z"
       style="fill:url(#linear-gradient-8);stroke-width:0.91465"
       id="path41" />
    <g
       id="g46"
       style="stroke-width:0.91465">
      <path
         d="m 15.67,34.48 c 0,0 0.03,-0.03 0.04,-0.05 0.01,-0.04 -0.02,-0.08 -0.06,-0.09 -0.2,-0.1 -0.25,-0.17 -0.25,-0.4 -0.62,-0.05 -1.12,0.83 -1.01,1.39 0.05,0.23 0.11,0.25 0.3,0.12 0.18,-0.12 0.28,-0.37 0.43,-0.52 0.17,-0.17 0.38,-0.27 0.56,-0.44 z"
         style="fill:url(#linear-gradient-9);stroke-width:0.91465"
         id="path42" />
      <path
         d="m 17.47,32.83 c -0.02,-0.09 -0.05,-0.18 -0.07,-0.28 -0.06,-0.29 -0.03,-0.6 -0.13,-0.88 -0.06,-0.19 -0.18,-0.36 -0.26,-0.54 -0.08,-0.18 -0.13,-0.39 -0.05,-0.58 0.04,-0.1 0.12,-0.19 0.13,-0.3 0.02,-0.2 -0.2,-0.36 -0.21,-0.57 0,-0.11 0.06,-0.22 0.12,-0.32 0.09,-0.17 0.15,-0.36 0.13,-0.55 -0.02,-0.19 -0.14,-0.38 -0.32,-0.44 -0.23,-0.08 -0.51,0.05 -0.71,-0.08 -0.27,-0.17 -0.17,-0.61 -0.36,-0.85 -0.12,-0.14 -0.32,-0.19 -0.5,-0.2 -0.18,-0.01 -0.37,0.03 -0.56,0 -0.2,-0.03 -0.39,-0.24 -0.44,-0.42 -0.01,-0.04 0,-0.08 -0.01,-0.12 -0.02,-0.12 -0.15,-0.2 -0.27,-0.22 -0.12,-0.02 -0.25,0 -0.37,0 -0.13,0 -0.26,-0.05 -0.39,-0.05 -0.3,0 -0.56,0.16 -0.83,0.29 -0.22,0.1 -0.45,0.17 -0.69,0.18 -0.35,0.02 -0.7,-0.1 -1.05,-0.14 -0.35,-0.04 -0.76,0.02 -0.97,0.3 -0.04,0.05 -0.07,0.1 -0.11,0.14 -0.12,0.11 -0.29,0.13 -0.45,0.18 -0.19,0.06 -0.35,0.18 -0.51,0.3 l -0.43,0.33 c -0.26,0.2 -0.52,0.4 -0.71,0.65 -0.03,0.04 -0.07,0.09 -0.06,0.15 0.02,0.2 0.33,0.07 0.45,0.08 0.46,0.02 0.98,0.07 0.86,0.65 -0.04,0.21 -0.13,0.42 -0.07,0.63 0.26,0.02 0.75,0.08 0.87,0.37 0.03,0.08 0.03,0.17 0.04,0.25 0.04,0.24 0.23,0.44 0.45,0.54 0.35,0.18 1.39,0.29 1.31,0.9 -0.03,0.2 -0.22,0.33 -0.42,0.37 -0.19,0.04 -0.4,0.01 -0.59,0.02 -0.07,0 -0.14,0.01 -0.19,0.06 -0.05,0.04 -0.08,0.12 -0.04,0.18 0.03,0.04 0.08,0.05 0.12,0.06 0.21,0.05 0.43,0.05 0.65,0.06 -0.23,0.09 -0.48,0.14 -0.69,0.28 -0.03,0.02 -0.07,0.06 -0.06,0.09 0,0.02 0.02,0.03 0.03,0.04 0.2,0.16 0.48,0.1 0.74,0.07 0.2,-0.03 0.4,-0.03 0.61,-0.02 0.62,0.04 0.99,0 1.29,-0.6 0.13,-0.26 0.23,-0.54 0.41,-0.76 0.24,-0.01 0.64,0 0.66,0.12 0,0.05 -0.01,0.11 -0.03,0.16 l -0.04,0.13 c -0.08,0.1 -0.16,0.2 -0.26,0.28 -0.03,0.03 -0.07,0.06 -0.07,0.1 0,0.07 0.1,0.08 0.16,0.07 0.11,-0.01 0.23,-0.04 0.35,-0.06 0.21,-0.05 0.42,-0.1 0.62,-0.15 0.04,-0.01 0.08,-0.02 0.12,-0.02 0.38,-0.04 0.46,0.36 0.77,0.35 0.23,0 0.36,-0.29 0.41,-0.57 0.02,-0.03 0.04,-0.07 0.08,-0.08 0.07,-0.03 0.16,0.01 0.21,0.11 0,0.12 0,0.23 -0.01,0.35 -0.02,0.33 -0.11,0.66 -0.26,0.96 -0.02,0.03 -0.04,0.07 -0.03,0.11 0,0.1 0.13,0.13 0.22,0.14 0.07,0 0.14,0 0.21,0 0.02,0.04 0.04,0.09 0.06,0.15 0,0.01 0,0.03 0,0.04 -0.01,0.05 -0.02,0.1 -0.04,0.15 -0.07,0.19 -0.26,0.31 -0.43,0.42 -0.54,0.33 -1.15,0.65 -1.01,1.41 0.13,0.05 0.27,-0.01 0.38,-0.09 0.19,-0.13 0.28,-0.35 0.48,-0.47 0.1,-0.06 0.2,-0.1 0.31,-0.13 -0.03,0.1 -0.05,0.2 -0.08,0.3 0.24,-0.1 0.41,-0.26 0.62,-0.41 0.19,-0.13 0.39,-0.17 0.53,-0.37 0.05,-0.07 0.09,-0.15 0.12,-0.24 0.08,-0.25 0.04,-0.53 0.08,-0.79 0.06,-0.33 0.26,-0.63 0.24,-0.97 0,-0.08 -0.02,-0.17 -0.04,-0.25 z"
         style="fill:url(#linearGradient74);stroke-width:0.91465"
         id="path43" />
      <path
         d="m 10.61,32.3 c 0,0 0.07,-0.07 0.07,-0.12 0,-0.06 -0.02,-0.12 -0.06,-0.17 -0.2,-0.28 -0.56,-0.4 -0.89,-0.42 C 9.57,31.58 9.38,31.57 9.27,31.44 9.1,31.22 9.33,30.85 9.14,30.64 9.09,30.58 9.01,30.55 8.94,30.53 c -0.24,-0.07 -0.51,-0.07 -0.75,0 -0.11,0.03 -0.22,0.09 -0.34,0.09 -0.09,0 -0.18,-0.11 -0.27,-0.03 -0.03,0.03 -0.04,0.07 -0.05,0.11 -0.07,0.53 0.5,1.05 0.92,1.27 0.32,0.17 0.66,0.27 1,0.38 0.19,0.06 0.39,0.12 0.59,0.13 0.2,0 0.41,-0.05 0.56,-0.18 z"
         style="fill:url(#linear-gradient-11);stroke-width:0.91465"
         id="path44" />
      <path
         d="m 15.2,33.37 c 0.03,-0.13 -0.13,-0.22 -0.27,-0.23 -0.52,-0.03 -1.04,0.44 -1.52,0.24 -0.11,-0.04 -0.21,-0.12 -0.32,-0.13 -0.19,0 -0.33,0.17 -0.46,0.32 -0.44,0.47 -1.01,0.46 -1.59,0.56 -0.06,0.01 -0.12,0.03 -0.15,0.08 -0.03,0.06 0.01,0.13 0.06,0.16 0.05,0.03 0.12,0.04 0.18,0.05 0.19,0.03 0.38,0.1 0.54,0.2 0.05,0.03 0.09,0.06 0.14,0.08 0.39,0.13 0.83,-0.14 1.24,0.05 0.07,0.03 0.14,0.08 0.22,0.09 0.16,0.03 0.33,-0.06 0.45,-0.18 0.12,-0.12 0.2,-0.27 0.31,-0.4 0.28,-0.33 0.71,-0.5 1.05,-0.77 0.05,-0.04 0.09,-0.08 0.11,-0.13 z"
         style="fill:url(#linear-gradient-12);stroke-width:0.91465"
         id="path45" />
      <path
         d="m 8.24,29.58 c 0.04,-0.09 0.08,-0.18 0.09,-0.27 0,-0.02 0,-0.05 0,-0.07 -0.01,-0.02 -0.03,-0.03 -0.05,-0.03 -0.29,-0.09 -0.6,0 -0.88,0.12 -0.22,0.09 -0.43,0.21 -0.6,0.37 -0.17,0.17 -0.3,0.39 -0.31,0.62 0,0.03 0,0.07 0.01,0.09 0.02,0.04 0.07,0.07 0.12,0.08 0.17,0.04 0.34,-0.05 0.5,-0.11 0.23,-0.1 0.51,-0.1 0.72,-0.21 0.22,-0.11 0.33,-0.39 0.42,-0.6 z"
         style="fill:url(#linear-gradient-13);stroke-width:0.91465"
         id="path46" />
    </g>
    <path
       d="m 15.76,27.07 c 0.06,0.07 0.19,0.06 0.23,-0.03 0.04,-0.09 -0.03,-0.2 -0.13,-0.2 -0.1,0 -0.16,0.12 -0.12,0.2 0.33,0.21 0.5,0.65 0.39,1.02 0.31,-0.1 0.65,-0.12 0.97,-0.06 -0.17,-0.24 -0.39,-0.45 -0.63,-0.63 -0.11,-0.08 -0.24,-0.16 -0.32,-0.27 l -0.4,-0.04 z"
       style="fill:url(#linear-gradient-14);stroke-width:0.91465"
       id="path47" />
    <path
       d="m 9.97,26.29 c 0.69,-0.15 1.37,0.2 2.07,0.11 0.54,-0.07 1.28,-0.72 1.79,-0.49 0.08,0.04 0.33,0.19 0.4,0.25 0.15,0.13 0.04,0.09 0.06,0.32 0.04,0.35 0.49,0.49 0.78,0.55 0.43,0.1 0.82,-0.04 1.2,0.3 0.19,0.17 0.3,0.4 0.49,0.56 0.17,0.15 0.45,0.24 0.59,0.41 0.28,0.34 0.06,0.85 0.05,1.25 -0.02,0.65 0.08,1.32 0.17,1.97 0.11,0.84 0.5,1.52 0.29,2.38 -0.08,0.31 -0.16,0.63 -0.25,0.94 -0.12,0.44 -0.39,0.61 -0.71,0.89 -0.52,0.45 -0.98,0.92 -1.45,1.42 -0.57,0.6 -1.13,0.7 -1.93,0.8 -0.31,0.04 -0.61,0.09 -0.91,0.16 -0.39,0.1 -0.82,0.4 -1.21,0.42 -0.29,0.02 -0.6,-0.07 -0.89,-0.08 C 10.13,38.44 9.74,38.5 9.36,38.46 8.71,38.39 8.01,37.8 7.55,37.35 7.12,36.93 6.93,36.39 6.64,35.9 6.31,35.33 5.61,34.93 5.5,34.24 5.43,33.8 5.57,33.28 5.59,32.84 5.61,32.4 5.52,31.97 5.49,31.53 c -0.05,-0.94 0.5,-1.61 1.06,-2.3 0.22,-0.27 0.44,-0.55 0.64,-0.84 0.2,-0.29 0.37,-0.81 0.68,-1.02 0.27,-0.19 0.65,-0.3 0.95,-0.48 0.38,-0.22 0.75,-0.48 1.16,-0.62 0.3,-0.1 0.17,-0.59 -0.13,-0.48 -0.73,0.25 -1.36,0.74 -2.05,1.07 -0.62,0.29 -0.83,1.02 -1.22,1.54 -0.47,0.63 -1.06,1.19 -1.37,1.93 -0.35,0.83 -0.08,1.63 -0.11,2.5 -0.02,0.47 -0.12,0.94 -0.09,1.4 0.02,0.35 0.19,0.61 0.39,0.89 0.2,0.28 0.43,0.53 0.65,0.79 0.25,0.31 0.34,0.7 0.56,1.03 0.68,1 1.85,2.04 3.12,2.01 0.44,0 0.86,-0.02 1.29,0.03 0.3,0.03 0.58,0.07 0.86,-0.04 0.44,-0.17 0.82,-0.37 1.3,-0.45 0.48,-0.08 0.97,-0.09 1.44,-0.21 0.65,-0.17 1.06,-0.63 1.5,-1.12 0.25,-0.28 0.53,-0.53 0.81,-0.78 0.32,-0.28 0.79,-0.54 1.02,-0.89 0.16,-0.25 0.17,-0.6 0.24,-0.88 0.09,-0.35 0.22,-0.69 0.26,-1.05 0.1,-0.84 -0.33,-1.7 -0.42,-2.54 -0.05,-0.42 -0.1,-0.85 -0.11,-1.28 0,-0.37 0.12,-0.73 0.11,-1.09 -0.01,-0.72 -0.63,-0.83 -1.05,-1.28 -0.24,-0.25 -0.39,-0.56 -0.73,-0.71 -0.38,-0.17 -0.88,0 -1.23,-0.2 -0.35,-0.2 -0.09,0 -0.13,-0.22 -0.02,-0.11 0.04,-0.22 -0.02,-0.33 -0.12,-0.24 -0.39,-0.21 -0.58,-0.32 -0.29,-0.17 -0.3,-0.27 -0.69,-0.24 -0.35,0.03 -0.65,0.18 -0.97,0.31 -0.62,0.26 -1.09,0.23 -1.74,0.12 -0.36,-0.06 -0.67,-0.07 -1.03,0 -0.31,0.07 -0.18,0.55 0.13,0.48 z"
       style="fill:#8f5902;stroke-width:0.91465"
       id="path48" />
    <path
       d="M 7.28,37.82 C 6.02,36.42 5.26,34.3 5.06,33.08 4.86,31.86 4.71,30.66 5.41,29.36 c 0.7,-1.3 0.93,-2.35 1.99,-2.9 0,0 -0.73,0.62 -0.67,1.55 0.06,0.93 -0.11,1.29 -0.26,1.69 -0.15,0.4 -0.13,1 -0.13,1 0,0 0.24,-0.75 0.91,-1.28 0,0 -0.46,1.04 -0.4,1.82 0.06,0.78 1.42,-0.44 1.42,-0.44 0,0 0.04,0.56 -0.2,0.91 -0.24,0.35 0,0.67 0.36,0.51 0.36,-0.16 0.84,-0.26 0.77,0.13 -0.07,0.39 0.27,0.4 0.55,0.18 0.28,-0.22 0.73,-0.53 0.73,-0.53 0,0 -0.11,0.64 -0.53,1.04 -0.42,0.4 0.47,0.26 0.97,-0.04 0.5,-0.3 0.87,-0.84 0.87,-0.84 0,0 0.05,0.49 -0.15,0.93 0,0 0.49,-0.31 0.98,-1.15 0,0 0.11,0.44 -0.16,0.98 -0.27,0.54 0.04,1.15 -0.2,1.79 0,0 0.78,-0.6 1.18,-1.11 0,0 -0.02,0.58 -0.31,0.91 0,0 0.73,-0.64 1.57,-0.89 0,0 -0.64,0.47 -0.98,1.42 0,0 0.67,-0.42 1.24,-0.56 0,0 -0.2,0.8 -0.62,1.37 -0.42,0.57 -0.35,1.02 0.64,0.67 0.99,-0.35 1.28,-0.89 1.28,-0.89 0,0 0.11,0.67 -0.24,1.11 0,0 0.49,-0.2 0.86,-0.55 0.37,-0.35 1.28,-1.2 2.53,-1.15 0,0 -0.36,0.07 -0.87,0.73 -0.51,0.66 -1.42,2.44 -3.63,2.81 C 12.7,38.95 9.55,38.18 8.75,38.07 7.95,37.96 7.29,37.8 7.29,37.8 Z"
       style="fill:url(#linear-gradient-15);stroke-width:0.91465"
       id="path49" />
    <path
       d="m 12.93,35.65 c -0.13,0.13 -0.26,0.25 -0.39,0.38 0.5,-0.07 0.98,-0.21 1.44,-0.41 -0.33,0.33 -0.69,0.63 -1.08,0.89 h 0.63 l -0.84,0.64 c 0,0 -0.06,0.05 -0.07,0.09 -0.03,0.1 0.1,0.16 0.2,0.18 0.64,0.11 1.3,0.06 1.91,-0.15 -0.17,0.14 -0.32,0.3 -0.46,0.47 0.14,-0.03 1.41,-0.36 1.47,-0.19 0.13,0.31 -1.2,0.77 -1.39,0.8 -0.11,0.02 -0.2,0.04 -0.3,0.07 -0.24,0.07 -0.45,0.16 -0.7,0.23 -0.35,0.1 -0.74,0.03 -1.08,0.16 -0.18,0.07 -0.33,0.21 -0.49,0.28 -0.29,0.11 -0.68,0.02 -0.98,0 -0.48,-0.05 -0.94,-0.02 -1.42,0 -0.77,0.03 -1.43,-0.62 -2,-1.07 C 7.12,37.82 6.99,37.73 6.84,37.46 6.72,37.24 6.5,37.08 6.39,36.87 6.3,36.71 6.27,36.54 6.2,36.38 6.05,36.04 5.76,35.8 5.52,35.51 5.32,35.27 5.15,35.01 5,34.74 4.96,34.68 4.92,34.61 4.89,34.54 4.87,34.47 4.87,34.39 4.87,34.32 4.85,33.63 4.95,32.99 4.84,32.32 4.75,31.72 4.9,30.93 5.12,30.37 5.25,30.05 5.43,29.74 5.64,29.47 5.79,29.27 6.2,28.98 6.28,28.76 6.07,29.35 5.65,30.08 5.65,30.71 v 1.08 C 5.84,31.5 6.14,31.28 6.48,31.2 l -0.29,0.65 c -0.06,0.14 -0.12,0.33 0,0.44 0.05,0.05 0.13,0.06 0.2,0.06 0.25,0 0.45,-0.17 0.68,-0.27 0.29,-0.13 0.61,-0.09 0.67,0.23 0.08,0.4 -0.03,0.94 -0.04,1.36 0.18,-0.4 0.48,-0.74 0.85,-0.97 0.02,-0.02 0.05,-0.03 0.08,-0.03 0.03,0 0.05,0.03 0.06,0.06 0.13,0.26 -0.26,0.55 -0.16,0.82 l 1.1,-0.52 -0.62,1.01 c -0.29,0.52 -0.29,0.83 0.05,0.81 0.34,-0.02 1.53,-0.69 1.53,-0.69 0,0 -0.04,0.38 -0.26,0.8 0,0 0.86,-0.04 1.59,-0.86 0,0 0.13,0.82 -0.51,1.55 -0.64,0.73 -0.38,0.77 -0.15,0.73 0.23,-0.04 0.37,-0.66 1.66,-0.71 z"
       style="fill:url(#linear-gradient-16);stroke-width:0.91465"
       id="path50" />
    <g
       style="opacity:0.54;stroke-width:0.91465"
       id="g64">
      <path
         d="m 14.16,27.02 c -0.06,-0.1 -0.12,-0.19 -0.21,-0.26 -0.17,-0.13 -0.41,-0.14 -0.62,-0.12 -0.21,0.02 -0.43,0.07 -0.62,0.18 -0.05,0.03 -0.31,0.25 -0.36,0.24 0.19,0.04 0.46,0.04 0.64,0.11 0.23,0.08 0.3,0.35 0.56,0.21 0.11,-0.06 0.15,-0.14 0.28,-0.17 0.02,0 0.41,-0.02 0.38,-0.08 -0.02,-0.04 -0.04,-0.07 -0.06,-0.11 z"
         style="fill:url(#linearGradient75);stroke-width:0.91465"
         id="path51" />
      <path
         d="m 11.13,27.44 c 0.06,0.02 0.13,0.04 0.19,0.03 0.17,0 0.3,-0.14 0.47,-0.15 0.08,0 0.19,0 0.23,-0.07 l -0.31,-0.13 c -0.1,-0.04 -0.19,-0.08 -0.3,-0.1 C 11.33,27 11.25,27 11.16,27 c -0.14,0 -0.33,-0.05 -0.46,-0.02 -0.1,0.02 -0.29,0.28 -0.35,0.28 0.16,0.01 0.31,0.02 0.47,0.07 0.1,0.03 0.2,0.09 0.31,0.13 z"
         style="fill:url(#linear-gradient-18);stroke-width:0.91465"
         id="path52" />
      <path
         d="m 16.93,33.69 -0.25,0.14 c -0.07,0.04 -0.14,0.08 -0.19,0.14 -0.14,0.18 -0.04,0.39 -0.16,0.57 -0.13,0.19 -0.33,0.31 -0.42,0.54 0.17,0 0.32,-0.09 0.45,-0.19 0.17,-0.13 0.4,-0.26 0.5,-0.45 0.05,-0.08 0.1,-0.77 0.07,-0.75 z"
         style="fill:url(#linear-gradient-19);stroke-width:0.91465"
         id="path53" />
      <path
         d="m 16.9,31.23 c 0,0 0.07,0.08 0.09,0.12 0.03,0.06 0.01,0.13 0,0.19 -0.01,0.1 0.04,0.18 0.08,0.27 0.03,0.07 0.04,0.16 0.01,0.23 -0.03,0.07 -0.08,0 -0.12,-0.02 -0.08,-0.04 -0.15,-0.08 -0.23,-0.13 -0.05,-0.03 -0.11,-0.06 -0.13,-0.1 -0.03,-0.04 -0.03,-0.08 -0.03,-0.11 -0.01,-0.24 -0.02,-0.49 0.01,-0.73 0.13,-0.04 0.11,0.06 0.16,0.13 0.04,0.05 0.1,0.1 0.15,0.16 z"
         style="fill:url(#linear-gradient-20);stroke-width:0.91465"
         id="path54" />
      <path
         d="m 12.28,30.5 c -0.1,0.05 -0.23,0.06 -0.33,0.01 -0.35,-0.15 -0.48,-0.84 -0.99,-0.47 -0.07,0.05 -0.13,0.12 -0.21,0.16 -0.23,0.11 -0.42,-0.06 -0.63,-0.14 C 9.86,29.96 9.69,30.01 9.44,29.96 8.93,29.85 9.1,29.47 9.35,29.05 c 0.15,-0.26 0.4,-0.12 0.62,-0.1 0.45,0.05 0.85,-0.21 1.1,0.27 0.23,0.44 0.33,0.1 0.72,-0.06 0.11,-0.04 0.24,-0.07 0.32,0 0.08,0.07 0.08,0.18 0.13,0.28 0.12,0.24 0.49,0.23 0.67,0.44 0.02,0.03 0.05,0.06 0.04,0.1 0,0.04 -0.05,0.07 -0.09,0.09 -0.11,0.05 -0.22,0.1 -0.31,0.18 -0.08,0.07 -0.13,0.16 -0.21,0.22 -0.02,0.01 -0.03,0.02 -0.05,0.03 z"
         style="fill:url(#linear-gradient-21);stroke-width:0.91465"
         id="path55" />
      <path
         d="m 12.44,31.98 c 0,0 -0.05,0.09 -0.1,0.1 C 12.26,32.1 12.19,32.04 12.13,31.99 12,31.9 11.86,31.9 11.72,31.85 11.59,31.81 11.5,31.73 11.36,31.68 c -0.33,-0.14 -0.56,-0.5 -0.92,-0.52 -0.1,0 -0.21,0.02 -0.31,-0.02 -0.1,-0.03 -0.17,-0.12 -0.2,-0.22 -0.2,-0.53 0.14,-0.4 0.51,-0.46 0.28,-0.05 0.75,-0.23 0.97,0.04 0.06,0.08 0.08,0.18 0.13,0.27 0.13,0.21 0.44,0.23 0.68,0.16 0.16,-0.05 0.36,-0.11 0.46,0.02 0.03,0.04 0.05,0.1 0.05,0.15 0.01,0.17 -0.06,0.33 -0.13,0.49 l -0.14,0.34 c 0,0 -0.01,0.03 -0.02,0.04 z"
         style="fill:url(#linear-gradient-22);stroke-width:0.91465"
         id="path56" />
      <path
         d="m 11.01,27.74 c -0.15,-0.06 -0.32,-0.1 -0.48,-0.14 -0.05,-0.01 -0.13,-0.01 -0.14,0.04 -0.01,0.05 0.05,0.08 0.1,0.1 0.26,0.09 0.48,0.3 0.59,0.56 0.06,0.14 0.08,0.29 0.14,0.43 0.02,0.03 0.03,0.07 0.07,0.09 0.03,0.02 0.07,0.02 0.1,0.02 0.41,-0.01 0.66,0.04 0.95,-0.24 0.23,-0.22 0.67,-0.38 0.99,-0.38 0.1,-0.03 0.22,-0.11 0.17,-0.2 -0.02,-0.04 -0.06,-0.06 -0.1,-0.08 L 12.61,27.6 c -0.08,-0.03 -0.16,-0.07 -0.24,-0.08 -0.38,-0.04 -0.56,0.39 -0.89,0.42 -0.15,0.01 -0.22,-0.08 -0.34,-0.15 -0.04,-0.02 -0.08,-0.04 -0.13,-0.06 z"
         style="fill:url(#linear-gradient-23);stroke-width:0.91465"
         id="path57" />
      <path
         d="M 9.68,28.5 C 9.46,28.54 9.39,28.68 9.21,28.76 9.04,28.84 9.06,28.78 8.9,28.72 8.73,28.66 8.64,28.67 8.46,28.7 8.34,28.72 8.17,28.81 8.07,28.68 c -0.29,-0.39 0.6,-0.65 0.82,-0.65 0.1,0 0.2,0 0.29,-0.01 0.12,-0.03 0.23,-0.1 0.33,-0.18 0.1,-0.08 0.2,-0.16 0.32,-0.2 0.37,-0.12 0.57,0.43 0.5,0.72 l -0.65,0.13 z"
         style="fill:url(#linear-gradient-24);stroke-width:0.91465"
         id="path58" />
      <path
         d="m 14.9,28.99 c -0.06,0.15 -0.11,0.32 -0.19,0.45 -0.05,0.09 -0.16,0.13 -0.19,0.24 -0.02,0.08 -0.03,0.18 -0.09,0.24 -0.07,0.07 -0.18,0.07 -0.27,0.04 -0.09,-0.03 -0.17,-0.09 -0.25,-0.14 -0.3,-0.19 -0.68,-0.23 -1.01,-0.34 -0.08,-0.03 -0.17,-0.06 -0.23,-0.12 -0.06,-0.06 -0.1,-0.15 -0.08,-0.24 0.02,-0.08 0.1,-0.14 0.17,-0.18 0.18,-0.1 0.39,-0.15 0.6,-0.14 0.49,0.02 0.91,-0.03 1.41,0 0.06,0 0.13,0.02 0.16,0.07 0.02,0.04 0,0.08 -0.02,0.12 z"
         style="fill:url(#linear-gradient-25);stroke-width:0.91465"
         id="path59" />
      <path
         d="m 14.17,28.3 c 0,0 -0.01,0.05 0,0.07 0.01,0.02 0.04,0.03 0.06,0.04 0.14,0.05 0.29,0.07 0.43,0.06 0.12,0 0.25,-0.02 0.36,0.03 0.11,0.06 0.16,0.18 0.25,0.25 0.04,0.03 0.09,0.05 0.12,0.09 0.03,0.04 0.04,0.09 0.06,0.13 0.07,0.11 0.23,0.11 0.35,0.09 0,0 -0.09,-0.76 -0.12,-0.84 -0.11,-0.3 -0.47,-0.38 -0.76,-0.46 -0.34,-0.09 -0.67,0.21 -0.76,0.53 z"
         style="fill:url(#linear-gradient-26);stroke-width:0.91465"
         id="path60" />
      <path
         d="m 15.8,29.55 c -0.16,0.02 -0.28,0.16 -0.32,0.31 -0.04,0.15 0,0.31 0.05,0.46 0.04,0.09 0.09,0.17 0.13,0.26 0.11,0.2 0.26,0.41 0.48,0.44 0.06,0 0.14,0 0.17,-0.06 0.02,-0.03 0.02,-0.07 0.02,-0.1 0,-0.34 -0.11,-0.68 -0.07,-1.02 0.04,-0.3 0.19,-0.57 0.37,-0.81 0.04,-0.05 0.07,-0.14 0.01,-0.16 -0.01,0 -0.02,0 -0.04,0 -0.23,0 -0.46,0.09 -0.61,0.27 -0.1,0.12 -0.13,0.3 -0.21,0.43 z"
         style="fill:url(#linear-gradient-27);stroke-width:0.91465"
         id="path61" />
      <path
         d="m 14.08,32.42 c 0,0.07 0.49,-0.06 0.52,-0.07 0.03,0 0.07,-0.02 0.1,-0.02 0.31,-0.03 0.37,0.29 0.63,0.28 0.29,0 0.38,-0.55 0.34,-0.78 -0.04,-0.22 -0.2,-0.4 -0.33,-0.58 -0.02,-0.03 -0.05,-0.06 -0.06,-0.1 -0.01,-0.04 0,-0.09 0,-0.13 l 0.05,-0.57 c 0,0 0,-0.09 -0.03,-0.11 -0.02,-0.01 -0.05,0 -0.08,0 -0.32,0.09 -0.39,0.54 -0.69,0.68 -0.15,0.07 -0.2,0.14 -0.2,0.3 0,0.16 0.03,0.33 -0.04,0.47 -0.04,0.08 -0.1,0.15 -0.15,0.23 -0.07,0.12 -0.1,0.27 -0.06,0.41 z"
         style="fill:url(#linear-gradient-28);stroke-width:0.91465"
         id="path62" />
      <path
         d="m 16.94,32.87 c 0,0.17 0,0.34 0,0.51 0,0.13 -0.13,0.19 -0.24,0.22 -0.12,0.03 -0.24,0.05 -0.36,0.05 -0.07,0 -0.16,-0.02 -0.17,-0.09 0,-0.03 0,-0.06 0.02,-0.09 0.1,-0.3 0.1,-0.59 0.13,-0.9 0.01,-0.13 0.04,-0.18 -0.03,-0.3 -0.04,-0.08 -0.23,-0.2 -0.12,-0.31 0.05,-0.05 0.13,-0.03 0.19,0 0.29,0.11 0.61,0.27 0.59,0.65 0,0.08 0,0.17 0,0.25 z"
         style="fill:url(#linear-gradient-29);stroke-width:0.91465"
         id="path63" />
      <path
         d="m 14.48,30.36 c -0.1,-0.18 -1.14,-0.24 -1.26,-0.06 -0.04,0.05 -0.03,0.12 -0.02,0.19 0.03,0.31 -0.04,0.62 -0.2,0.89 0.14,0.08 0.33,0 0.47,-0.08 0.34,-0.21 0.66,-0.46 0.94,-0.74 0.05,-0.05 0.11,-0.13 0.08,-0.19 z"
         style="fill:url(#linear-gradient-30);stroke-width:0.91465"
         id="path64" />
    </g>
    <path
       d="m 7.49,27.63 c 0,0 0.3,-1.85 2.54,-2.51 2.24,-0.66 4.22,-0.92 4.22,-0.92 0,0 -3.94,0.72 -6.77,3.43 z"
       style="fill:url(#linearGradient76);stroke-width:0.91465"
       id="path65" />
    <path
       d="m 7.57,29.88 c 0,0 1.83,-3.24 5.29,-4.68 3.46,-1.44 4.19,-1.37 4.19,-1.37 0,0 -4.04,1.41 -6.28,3.28 -2.24,1.87 -3.2,2.78 -3.2,2.78 z"
       style="fill:url(#linear-gradient-32);stroke-width:0.91465"
       id="path66" />
    <path
       d="m 15.49,35.55 c 2.59,-1.18 3.43,-1.87 5.26,-4.49 0,0 -3.28,3.28 -5.26,4.49 z"
       style="fill:url(#linear-gradient-33);stroke-width:0.91465"
       id="path67" />
    <path
       d="m 5.25,28.81 c 0.5,-1.49 0.57,-3.69 4.3,-4.07 0,0 -2.28,0.3 -4.3,4.07 z"
       style="fill:url(#linear-gradient-34);stroke-width:0.91465"
       id="path68" />
    <path
       d="m 14.4,34.49 c 1.98,-0.79 3.25,-0.92 6.84,-6.32 0,0 -2.37,3.37 -6.84,6.32 z"
       style="fill:url(#linear-gradient-35);stroke-width:0.91465"
       id="path69" />
    <path
       d="m 15.93,30.92 c 2.09,-1.18 4.19,-5.29 4.19,-5.29 0,0 -1.18,4.3 -4.19,5.29 z"
       style="fill:url(#linear-gradient-36);stroke-width:0.91465"
       id="path70" />
    <path
       d="m 30.91,17.39 c -1.16,1.08 -1.24,2.14 -2.52,3.39 -1.28,1.25 -2.29,2.29 -2.68,3.9 0,0 0.82,-0.22 1.68,-0.93 0.86,-0.71 2.63,-1.1 2.63,-1.1"
       style="fill:none;stroke:#f57900;stroke-width:0.36586px;stroke-miterlimit:10"
       id="path71" />
    <path
       d="M 7.59,38.55 C 6.7,38.05 5.24,36.56 4.67,34.98 4.1,33.4 4.24,31.81 4.24,31.81 c 0,0 0.2,1.06 0.61,1.43 0,0 -0.18,-0.34 -0.18,-0.86 0,-0.52 -0.21,-1.86 0.27,-2.47 0,0 -0.16,0.8 0.14,1.53 0.3,0.73 0.7,2.11 0.7,2.11 0,0 0.04,-0.68 -0.02,-1.06 0,0 0.47,0.56 0.54,2.13 0,0 0.23,-0.61 0.25,-1.02 0,0 0.25,0.54 0.21,0.9 0,0 0.29,-0.61 0.25,-1.15 0,0 0.21,0.43 0.16,1.22 -0.05,0.79 0.07,1.35 0.4,1.44 0.33,0.09 1.32,-0.68 1.32,-0.68 0,0 -0.09,0.48 -0.34,0.7 0,0 0.77,-0.34 1.4,-0.97 0,0 -0.16,0.72 -0.52,1.09 0,0 0.56,-0.07 0.93,-0.3 0,0 -0.27,0.66 -0.93,1.18 -0.27,0.21 0.04,0.5 0.66,0.5 0.62,0 1.68,-0.36 1.68,-0.36 0,0 -0.07,0.18 -0.38,0.5 0,0 1.24,-0.04 2.31,-0.52 0,0 -0.56,0.64 -1.38,1 -0.82,0.36 0.17,0.51 0.93,0.27 0.76,-0.24 1.24,-0.29 1.84,-0.14 0.6,0.15 1.95,-0.36 2.44,-0.72 0,0 -0.66,1.06 -3.11,1.68 -2.45,0.62 -4.98,0.35 -6.84,-0.69 z"
       style="fill:url(#radial-gradient-2);stroke-width:0.91465"
       id="path72" />
    <path
       d="m 10.41,30.78 c 1.98,-2.17 2.79,-2.99 8.73,-6.45 0,0 -5.08,3.82 -8.73,6.45 z"
       style="fill:url(#linear-gradient-37);stroke-width:0.91465"
       id="path73" />
  </g>
</svg>
