<?xml version="1.0" encoding="UTF-8" standalone="no"?>
<svg
   viewBox="0 0 48 48"
   version="1.1"
   id="svg83"
   sodipodi:docname="mpm_mud.svg"
   inkscape:version="1.3.2 (091e20e, 2023-11-25, custom)"
   xmlns:inkscape="http://www.inkscape.org/namespaces/inkscape"
   xmlns:sodipodi="http://sodipodi.sourceforge.net/DTD/sodipodi-0.dtd"
   xmlns:xlink="http://www.w3.org/1999/xlink"
   xmlns="http://www.w3.org/2000/svg"
   xmlns:svg="http://www.w3.org/2000/svg">
  <sodipodi:namedview
     id="namedview83"
     pagecolor="#ffffff"
     bordercolor="#666666"
     borderopacity="1.0"
     inkscape:showpageshadow="2"
     inkscape:pageopacity="0.0"
     inkscape:pagecheckerboard="0"
     inkscape:deskcolor="#d1d1d1"
     inkscape:zoom="11.5208"
     inkscape:cx="23.2622"
     inkscape:cy="24.0434"
     inkscape:current-layer="svg83" />
  <defs
     id="defs28">
    <linearGradient
       id="linearGradient91"
       inkscape:collect="always">
      <stop
         style="stop-color:#000000;stop-opacity:0.518293;"
         offset="0"
         id="stop91" />
      <stop
         style="stop-color:#000000;stop-opacity:0;"
         offset="1"
         id="stop92" />
    </linearGradient>
    <radialGradient
       id="radial-gradient"
       cx="-281.18"
       cy="-45.16"
       fx="-281.18"
       fy="-45.16"
       r="8.27"
       gradientTransform="matrix(2.63425,0.716696,-0.836365,1.76224,728.05,309.74)"
       gradientUnits="userSpaceOnUse">
      <stop
         offset=".62"
         stop-color="#2c2c2c"
         stop-opacity=".5"
         id="stop1" />
      <stop
         offset=".99"
         stop-color="#2c2c2c"
         stop-opacity="0"
         id="stop2" />
    </radialGradient>
    <linearGradient
       id="linear-gradient"
       x1="30.8"
       y1="-1.45"
       x2="17.57"
       y2="45.74"
       gradientUnits="userSpaceOnUse">
      <stop
         offset="0"
         stop-color="#c17d11"
         id="stop3" />
      <stop
         offset="1"
         stop-color="#e9b96e"
         id="stop4" />
    </linearGradient>
    <linearGradient
       id="linear-gradient-2"
       x1="25.81"
       y1="19.64"
       x2="13.14"
       y2="55.04"
       gradientUnits="userSpaceOnUse">
      <stop
         offset="0"
         stop-color="#633206"
         id="stop5" />
      <stop
         offset="1"
         stop-color="#c7953f"
         id="stop6" />
    </linearGradient>
    <linearGradient
       id="linear-gradient-3"
       x1="20.79"
       y1="16.84"
       x2="20.67"
       y2="13.02"
       gradientTransform="matrix(1, 0, 0, 1, 0, 0)"
       gradientUnits="userSpaceOnUse">
      <stop
         offset="0"
         stop-color="#b9bcb5"
         stop-opacity="0"
         id="stop7" />
      <stop
         offset="1"
         stop-color="#2e3436"
         id="stop8" />
    </linearGradient>
    <linearGradient
       id="linear-gradient-4"
       x1="26.45"
       y1="10.42"
       x2="19.69"
       y2="49.56"
       gradientTransform="matrix(1, 0, 0, 1, 0, 0)"
       gradientUnits="userSpaceOnUse">
      <stop
         offset="0"
         stop-color="#633206"
         id="stop9" />
      <stop
         offset="1"
         stop-color="#c17d11"
         id="stop10" />
    </linearGradient>
    <linearGradient
       id="linear-gradient-5"
       x1="25.08"
       y1="25.53"
       x2="31.25"
       y2="40.85"
       gradientTransform="matrix(1.00999,-0.004054,-4.01425e-5,1.00001,-0.52,0.16)"
       gradientUnits="userSpaceOnUse">
      <stop
         offset="0"
         stop-color="#633206"
         id="stop11" />
      <stop
         offset="1"
         stop-color="#633206"
         stop-opacity=".2"
         id="stop12" />
    </linearGradient>
    <linearGradient
       id="linear-gradient-6"
       x1="42.16"
       y1="16"
       x2="42.16"
       y2="20.26"
       xlink:href="#linear-gradient-4" />
    <linearGradient
       id="linear-gradient-7"
       x1="12.83"
       y1="29.53"
       x2="18.08"
       y2="34.78"
       gradientTransform="matrix(1, 0, 0, 1, 0, 0)"
       gradientUnits="userSpaceOnUse">
      <stop
         offset=".08"
         stop-color="#c17d11"
         stop-opacity=".8"
         id="stop13" />
      <stop
         offset="1"
         stop-color="#e9b96e"
         stop-opacity="0"
         id="stop14" />
    </linearGradient>
    <linearGradient
       id="linear-gradient-8"
       x1="7.18"
       y1="23.99"
       x2="8.36"
       y2="28.2"
       xlink:href="#linear-gradient-7" />
    <linearGradient
       id="linear-gradient-9"
       x1="37.15"
       y1="28.42"
       x2="41.93"
       y2="20.94"
       gradientUnits="userSpaceOnUse">
      <stop
         offset=".08"
         stop-color="#c17d11"
         stop-opacity=".8"
         id="stop15" />
      <stop
         offset="1"
         stop-color="#e9b96e"
         stop-opacity=".2"
         id="stop16" />
    </linearGradient>
    <linearGradient
       id="linear-gradient-10"
       x1="39"
       y1="18.6"
       x2="38.41"
       y2="14.49"
       gradientTransform="matrix(1, 0, 0, 1, 0, 0)"
       gradientUnits="userSpaceOnUse">
      <stop
         offset="0"
         stop-color="#b9bcb5"
         stop-opacity="0"
         id="stop17" />
      <stop
         offset="1"
         stop-color="#2e3436"
         id="stop18" />
    </linearGradient>
    <linearGradient
       id="linear-gradient-11"
       x1="36.59"
       y1="13.64"
       x2="35"
       y2="9.98"
       xlink:href="#linear-gradient-3" />
    <linearGradient
       id="linear-gradient-12"
       x1="9.06"
       y1="31.31"
       x2="5.43"
       y2="35.56"
       xlink:href="#linear-gradient-4" />
    <linearGradient
       id="linear-gradient-13"
       x1="28.88"
       y1="28.59"
       x2="27.83"
       y2="40.4"
       xlink:href="#linear-gradient-4" />
    <linearGradient
       id="linear-gradient-14"
       x1="33.06"
       y1="31.06"
       x2="32.31"
       y2="39.48"
       xlink:href="#linear-gradient-4" />
    <linearGradient
       id="linear-gradient-15"
       x1="31.87"
       y1="29.78"
       x2="30.92"
       y2="40.45"
       xlink:href="#linear-gradient-4" />
    <linearGradient
       id="linear-gradient-16"
       x1="5.57"
       y1="21.13"
       x2="3.35"
       y2="24.27"
       xlink:href="#linear-gradient-4" />
    <linearGradient
       id="linear-gradient-17"
       x1="6.68"
       y1="21.76"
       x2="4.46"
       y2="24.9"
       xlink:href="#linear-gradient-4" />
    <linearGradient
       id="linear-gradient-18"
       x1="11.62"
       y1="33.27"
       x2="8.02"
       y2="37.49"
       xlink:href="#linear-gradient-4" />
    <linearGradient
       id="linear-gradient-19"
       x1="27.36"
       y1="30.03"
       x2="21.4"
       y2="17.57"
       xlink:href="#linear-gradient-10"
       gradientTransform="matrix(1.12494,0,0,1.12494,-2.45844,-2.90612)" />
    <linearGradient
       id="linear-gradient-20"
       x1="31.06"
       y1="16.66"
       x2="30.98"
       y2="14.19"
       gradientTransform="matrix(1, 0, 0, 1, 0, 0)"
       gradientUnits="userSpaceOnUse">
      <stop
         offset=".15"
         stop-color="#bf735c"
         id="stop19" />
      <stop
         offset="1"
         stop-color="#efa189"
         id="stop20" />
    </linearGradient>
    <linearGradient
       id="linear-gradient-21"
       x1="23.37"
       y1="23.86"
       x2="22.87"
       y2="17.6"
       xlink:href="#linear-gradient-20"
       gradientTransform="matrix(1.12494,0,0,1.12494,-2.45844,-2.90612)" />
    <linearGradient
       id="linear-gradient-22"
       x1="26.8"
       y1="15.29"
       x2="27.03"
       y2="20.07"
       gradientTransform="matrix(1, 0, 0, 1, 0, 0)"
       gradientUnits="userSpaceOnUse">
      <stop
         offset=".09"
         stop-color="#ffc5b6"
         id="stop21" />
      <stop
         offset="1"
         stop-color="#efa189"
         stop-opacity="0"
         id="stop22" />
    </linearGradient>
    <linearGradient
       id="linear-gradient-23"
       x1="27.03"
       y1="17.71"
       x2="26.02"
       y2="13.61"
       gradientTransform="matrix(1, 0, 0, 1, 0, 0)"
       gradientUnits="userSpaceOnUse">
      <stop
         offset="0"
         stop-color="#fff"
         stop-opacity="0"
         id="stop23" />
      <stop
         offset="1"
         stop-color="#fff7f7"
         id="stop24" />
    </linearGradient>
    <linearGradient
       id="linear-gradient-24"
       x1="23.66"
       y1="23.25"
       x2="22.08"
       y2="16.54"
       xlink:href="#linear-gradient-20"
       gradientTransform="matrix(1.12494,0,0,1.12494,-2.45844,-2.90612)" />
    <linearGradient
       id="linear-gradient-25"
       x1="24.53"
       y1="25.56"
       x2="22.77"
       y2="19.95"
       gradientTransform="matrix(1, 0, 0, 1, 0, 0)"
       gradientUnits="userSpaceOnUse">
      <stop
         offset=".16"
         stop-color="#7c4639"
         id="stop25" />
      <stop
         offset="1"
         stop-color="#efa189"
         stop-opacity="0"
         id="stop26" />
    </linearGradient>
    <linearGradient
       id="linear-gradient-26"
       x1="20.93"
       y1="18.43"
       x2="24.59"
       y2="20.91"
       xlink:href="#linear-gradient-25"
       gradientTransform="matrix(1.12494,0,0,1.12494,-2.45844,-2.90612)" />
    <linearGradient
       id="linear-gradient-27"
       x1="24.19"
       y1="24.83"
       x2="22.78"
       y2="20.3"
       xlink:href="#linear-gradient-25"
       gradientTransform="matrix(1.12494,0,0,1.12494,-2.45844,-2.90612)" />
    <linearGradient
       id="linear-gradient-28"
       x1="16.16"
       y1="13.13"
       x2="17.82"
       y2="25.21"
       xlink:href="#linear-gradient-22"
       gradientTransform="matrix(1.12494,0,0,1.12494,-2.45844,-2.90612)" />
    <linearGradient
       id="linear-gradient-29"
       x1="16.84"
       y1="15.28"
       x2="17.31"
       y2="18.89"
       xlink:href="#linear-gradient-22"
       gradientTransform="matrix(1.12494,0,0,1.12494,-2.45844,-2.90612)" />
    <linearGradient
       id="linear-gradient-30"
       x1="17.07"
       y1="17.07"
       x2="16.75"
       y2="14.53"
       xlink:href="#linear-gradient-23"
       gradientTransform="matrix(1.12494,0,0,1.12494,-2.45844,-2.90612)" />
    <linearGradient
       id="linear-gradient-31"
       x1="16.69"
       y1="23.89"
       x2="17.45"
       y2="25.02"
       xlink:href="#linear-gradient-20"
       gradientTransform="matrix(1.12494,0,0,1.12494,-2.45844,-2.90612)" />
    <linearGradient
       id="linear-gradient-32"
       x1="18.35"
       y1="29.37"
       x2="16.84"
       y2="18.24"
       xlink:href="#linear-gradient-20"
       gradientTransform="matrix(1.12494,0,0,1.12494,-2.45844,-2.90612)" />
    <linearGradient
       id="linear-gradient-33"
       x1="12.93"
       y1="16.17"
       x2="15.3"
       y2="16.17"
       xlink:href="#linear-gradient-20"
       gradientTransform="matrix(1.12494,0,0,1.12494,-2.45844,-2.90612)" />
    <linearGradient
       id="linear-gradient-34"
       x1="11.63"
       y1="16.92"
       x2="14.64"
       y2="18.18"
       xlink:href="#linear-gradient-20"
       gradientTransform="matrix(1.12494,0,0,1.12494,-2.45844,-2.90612)" />
    <linearGradient
       id="linear-gradient-35"
       x1="16.69"
       y1="23.98"
       x2="16.52"
       y2="22.09"
       xlink:href="#linear-gradient-20"
       gradientTransform="matrix(1.12494,0,0,1.12494,-2.45844,-2.90612)" />
    <linearGradient
       id="linear-gradient-36"
       x1="13.92"
       y1="21.87"
       x2="15.3"
       y2="21.87"
       xlink:href="#linear-gradient-20"
       gradientTransform="matrix(1.12494,0,0,1.12494,-2.45844,-2.90612)" />
    <linearGradient
       id="linear-gradient-37"
       x1="16.48"
       y1="24.6"
       x2="16.66"
       y2="21.91"
       xlink:href="#linear-gradient-25"
       gradientTransform="matrix(1.12494,0,0,1.12494,-2.45844,-2.90612)" />
    <linearGradient
       id="linear-gradient-38"
       x1="16.08"
       y1="25.24"
       x2="15.2"
       y2="22.9"
       gradientUnits="userSpaceOnUse">
      <stop
         offset=".15"
         stop-color="#bf735c"
         id="stop27" />
      <stop
         offset="1"
         stop-color="#efa189"
         stop-opacity="0"
         id="stop28" />
    </linearGradient>
    <linearGradient
       id="linear-gradient-39"
       x1="15.31"
       y1="23.18"
       x2="14.71"
       y2="20.97"
       xlink:href="#linear-gradient-23" />
    <linearGradient
       id="linear-gradient-40"
       x1="15.95"
       y1="20.77"
       x2="16.96"
       y2="22.58"
       xlink:href="#linear-gradient-22"
       gradientTransform="matrix(1.12494,0,0,1.12494,-2.45844,-2.90612)" />
    <linearGradient
       id="linear-gradient-41"
       x1="19.93"
       y1="15.17"
       x2="21.49"
       y2="17.17"
       xlink:href="#linear-gradient-20"
       gradientTransform="matrix(1.12494,0,0,1.12494,-2.45844,-2.90612)" />
    <linearGradient
       id="linear-gradient-42"
       x1="20.92"
       y1="17.73"
       x2="21.06"
       y2="12.66"
       xlink:href="#linear-gradient-23"
       gradientTransform="matrix(1.12494,0,0,1.12494,-2.45844,-2.90612)" />
    <linearGradient
       id="linear-gradient-43"
       x1="21.1"
       y1="16.05"
       x2="20.52"
       y2="17.96"
       xlink:href="#linear-gradient-20"
       gradientTransform="matrix(1.12494,0,0,1.12494,-2.45844,-2.90612)" />
    <linearGradient
       inkscape:collect="always"
       xlink:href="#linear-gradient-3"
       id="linearGradient83"
       gradientUnits="userSpaceOnUse"
       x1="20.79"
       y1="16.84"
       x2="20.67"
       y2="13.02" />
    <linearGradient
       inkscape:collect="always"
       xlink:href="#linear-gradient-4"
       id="linearGradient84"
       gradientUnits="userSpaceOnUse"
       x1="26.45"
       y1="10.42"
       x2="19.69"
       y2="49.56" />
    <linearGradient
       inkscape:collect="always"
       xlink:href="#linear-gradient-7"
       id="linearGradient85"
       gradientUnits="userSpaceOnUse"
       x1="12.83"
       y1="29.53"
       x2="18.08"
       y2="34.78" />
    <linearGradient
       inkscape:collect="always"
       xlink:href="#linear-gradient-10"
       id="linearGradient86"
       gradientUnits="userSpaceOnUse"
       x1="39"
       y1="18.6"
       x2="38.41"
       y2="14.49" />
    <linearGradient
       inkscape:collect="always"
       xlink:href="#linear-gradient-20"
       id="linearGradient87"
       gradientUnits="userSpaceOnUse"
       x1="31.06"
       y1="16.66"
       x2="30.98"
       y2="14.19"
       gradientTransform="matrix(1.12494,0,0,1.12494,-2.45844,-2.90612)" />
    <linearGradient
       inkscape:collect="always"
       xlink:href="#linear-gradient-22"
       id="linearGradient88"
       gradientUnits="userSpaceOnUse"
       x1="26.8"
       y1="15.29"
       x2="27.03"
       y2="20.07"
       gradientTransform="matrix(1.12494,0,0,1.12494,-2.45844,-2.90612)" />
    <linearGradient
       inkscape:collect="always"
       xlink:href="#linear-gradient-23"
       id="linearGradient89"
       gradientUnits="userSpaceOnUse"
       x1="27.03"
       y1="17.71"
       x2="26.02"
       y2="13.61"
       gradientTransform="matrix(1.12494,0,0,1.12494,-2.45844,-2.90612)" />
    <linearGradient
       inkscape:collect="always"
       xlink:href="#linear-gradient-25"
       id="linearGradient90"
       gradientUnits="userSpaceOnUse"
       x1="24.53"
       y1="25.56"
       x2="22.77"
       y2="19.95"
       gradientTransform="matrix(1.12494,0,0,1.12494,-2.45844,-2.90612)" />
    <radialGradient
       inkscape:collect="always"
       xlink:href="#linearGradient91"
       id="radialGradient92"
       cx="24.1182"
       cy="28.3958"
       fx="24.1182"
       fy="28.3958"
       r="22.7561"
       gradientTransform="matrix(0.860058,-0.64261,0.475846,0.636865,-10.1369,25.8101)"
       gradientUnits="userSpaceOnUse" />
  </defs>
  <g
     id="shadow"
     style="opacity:1;isolation:isolate;mix-blend-mode:multiply;fill:url(#radialGradient92)">
    <ellipse
       cx="24.12"
       cy="28.39"
       rx="23.73"
       ry="17.96"
       transform="rotate(-25.71,24.1318,28.3968)"
       style="fill:url(#radialGradient92)"
       id="ellipse28" />
  </g>
  <g
     id="g46"
     style="isolation:isolate;stroke-width:0.888936"
     transform="matrix(1.12494,0,0,1.12494,-2.45844,-2.90612)">
    <path
       d="M 26.21,39.12 C 25.24,38.94 24.37,38.49 23.45,38.16 20.81,37.2 17.82,37.22 15.01,37.68 11.44,38.26 7.72,39.15 5.16,36.2 4.25,35.15 3.79,33.81 3.88,32.5 3.96,31.3 4.49,30.12 4.35,28.93 4.22,27.79 3.51,26.78 2.96,25.74 2.41,24.7 2.03,23.47 2.57,22.43 c 0.8,-1.54 2.62,-2.29 3.17,-4.01 0.22,-0.68 0.34,-1.4 0.7,-2.04 0.39,-0.7 1.01,-1.17 1.74,-1.59 0.78,-0.45 1.65,-0.39 2.54,-0.62 1.91,-0.49 3.46,-1.84 5.4,-2.2 2.22,-0.41 4.41,0.5 6.63,0.28 2.22,-0.22 4.48,-1.1 6.3,-2.15 2.68,-1.55 5.28,-2.56 8.56,-2.22 0.78,0.08 1.58,0.26 2.21,0.68 0.45,0.3 0.79,0.7 1.04,1.14 0.36,0.63 0.56,1.33 0.57,2.04 0,0.42 -0.06,0.85 0,1.27 0.25,1.72 3,2.25 3.22,4.12 0.12,1.02 -0.7,1.74 -0.69,2.7 0.02,1.25 0.41,2.49 0.61,3.73 0.36,2.2 -0.02,4.8 -2.44,6 -1.42,0.7 -3.21,0.7 -4.55,1.52 -1.51,0.93 -2.04,2.59 -2.74,4 -0.33,0.65 -0.71,1.42 -1.26,1.95 -1.73,1.66 -4.86,2.56 -7.37,2.08 z"
       style="fill:url(#linear-gradient);stroke-width:0.888936"
       id="path28" />
    <path
       d="m 31.87,11.92 c -0.25,0.04 -0.52,0.06 -0.81,0.06 -0.88,0 -1.85,0.03 -2.68,0.32 -0.65,0.23 -0.89,0.73 -1.45,1.09 -1.14,0.74 -2.67,0.95 -4.06,0.92 -1.86,-0.04 -3.72,-0.43 -5.56,-0.2 -2.35,0.3 -4.34,1.56 -6.1,2.88 -1.55,1.16 -3.45,2.01 -3.76,3.99 -0.14,0.9 -0.03,1.81 -0.21,2.71 -0.22,1.12 -0.87,2.13 -1.16,3.24 -0.29,1.11 -0.1,2.45 0.98,3.07 0.38,0.22 0.83,0.33 1.24,0.5 0.73,0.31 1.32,0.81 1.9,1.31 1.15,0.99 2.34,1.97 3.73,2.68 3.84,1.95 8.79,0.74 11.92,-1.77 0.97,-0.78 1.8,-1.7 2.88,-2.36 2.42,-1.49 5.64,-1.43 8.37,-2.43 1.32,-0.48 2.52,-1.22 3.52,-2.12 0.94,-0.85 1.73,-1.88 1.97,-3.05 0.24,-1.17 -0.17,-2.48 -1.24,-3.21 -0.57,-0.38 -1.3,-0.61 -1.71,-1.12 -0.51,-0.64 -0.37,-1.52 -0.09,-2.26 0.28,-0.74 0.66,-1.5 0.56,-2.28 -0.15,-1.14 -1.37,-2.07 -2.47,-2.55 -1.5,-0.67 -2.63,-0.39 -4.12,0.11 -0.62,0.21 -1.1,0.38 -1.65,0.47 z"
       style="fill:url(#linear-gradient-2);stroke-width:0.888936"
       id="path29" />
    <path
       d="m 16.08,14.61 c 1.57,-0.43 2.68,-0.4 4.95,-0.14 2.27,0.26 3.94,0 4.95,-0.32 1.01,-0.32 -0.15,1.22 -2.06,1.51 -1.91,0.29 -4.37,-0.69 -5.74,-0.72 -1.37,-0.03 -2.13,0.12 -2.76,0.35 -0.63,0.23 -0.31,-0.36 0.66,-0.68 z"
       style="mix-blend-mode:multiply;fill:url(#linearGradient83);stroke-width:0.888936"
       id="path30" />
    <path
       d="m 31.87,11.92 c -0.25,0.04 -0.52,0.06 -0.81,0.06 -0.88,0 -1.85,0.03 -2.68,0.32 -0.65,0.23 -0.89,0.73 -1.45,1.09 -1.14,0.74 -2.67,0.95 -4.06,0.92 -1.86,-0.04 -3.72,-0.43 -5.56,-0.2 -2.35,0.3 -4.34,1.56 -6.1,2.88 -1.55,1.16 -3.45,2.01 -3.76,3.99 -0.14,0.9 -0.03,1.81 -0.21,2.71 -0.22,1.12 -0.87,2.13 -1.16,3.24 -0.29,1.11 -0.1,2.45 0.98,3.07 0.38,0.22 0.83,0.33 1.24,0.5 0.73,0.31 1.32,0.81 1.9,1.31 1.15,0.99 2.34,1.97 3.73,2.68 3.84,1.95 8.79,0.74 11.92,-1.77 0.97,-0.78 1.8,-1.7 2.88,-2.36 2.42,-1.49 5.64,-1.43 8.37,-2.43 1.32,-0.48 2.52,-1.22 3.52,-2.12 0.94,-0.85 1.73,-1.88 1.97,-3.05 0.24,-1.17 -0.17,-2.48 -1.24,-3.21 -0.57,-0.38 -1.3,-0.61 -1.71,-1.12 -0.51,-0.64 -0.37,-1.52 -0.09,-2.26 0.28,-0.74 0.66,-1.5 0.56,-2.28 -0.15,-1.14 -1.37,-2.07 -2.47,-2.55 -1.5,-0.67 -2.63,-0.39 -4.12,0.11 -0.62,0.21 -1.1,0.38 -1.65,0.47 z"
       style="fill:none;stroke:#633206;stroke-width:0.622255px;stroke-linecap:round;stroke-linejoin:round"
       id="path31" />
    <path
       d="m 35.93,12.22 c -0.44,0 -0.88,0.06 -1.31,0.15 -0.97,0.19 -1.79,0.44 -2.63,0.86 -0.9,0.46 -1.76,0.35 -2.76,0.34 -2.42,-0.04 -3.8,2.75 -5.85,3.65 -1.35,0.59 -2.9,0.65 -4.39,0.6 -1.49,-0.05 -3,-0.18 -4.47,0.08 -1.51,0.26 -2.92,0.96 -4,1.94 -0.51,0.46 -0.97,1 -1.35,1.54 -0.67,0.97 -0.81,2.18 -1.28,3.22 -0.51,1.12 -1.07,2.3 -0.59,3.5 0.22,0.56 0.63,1.01 1.23,1.27 0.7,0.3 1.51,0.37 2.21,0.67 1.02,0.45 1.57,1.14 2.13,1.97 0.26,0.39 0.59,0.74 0.97,1.04 1.84,1.51 4.79,1.86 7.05,0.82 0.77,-0.35 1.44,-0.84 2.1,-1.33 0.5,-0.37 0.99,-0.75 1.41,-1.19 0.44,-0.45 0.8,-0.95 1.25,-1.39 2.06,-2 5.72,-2.41 8.54,-2.93 1.16,-0.21 2.32,-0.44 3.41,-0.86 1.09,-0.42 2.09,-1.08 2.69,-1.99 0.71,-1.07 0.75,-2.82 -0.3,-3.77 -0.81,-0.74 -1.9,-1.17 -2.86,-1.74 -0.24,-0.14 -0.5,-0.3 -0.6,-0.54 -0.11,-0.26 0,-0.54 0.13,-0.79 0.32,-0.56 0.86,-1.01 1.32,-1.49 0.46,-0.48 0.87,-1.07 0.85,-1.7 -0.02,-0.79 -0.74,-1.47 -1.58,-1.74 -0.43,-0.14 -0.88,-0.19 -1.34,-0.19 z"
       style="fill:url(#linearGradient84);stroke-width:0.888936"
       id="path32" />
    <path
       d="m 38.54,27.28 c -0.47,0.25 -0.95,0.47 -1.46,0.66 -2.76,1.01 -6.02,0.97 -8.47,2.47 -1.1,0.66 -1.94,1.58 -2.92,2.37 -0.35,0.28 -0.71,0.53 -1.1,0.77 -0.19,-0.39 -0.11,-0.94 -0.5,-1.23 -0.29,-0.2 -0.71,-0.18 -1.07,-0.1 -0.39,0.08 -0.78,0.08 -1.18,0.09 -0.23,0 -0.47,0.01 -0.68,-0.07 -0.21,-0.08 -0.39,-0.26 -0.36,-0.46 0.03,-0.17 0.19,-0.3 0.35,-0.42 l 1.22,-0.87 c 0.24,-0.17 0.48,-0.34 0.64,-0.57 0.1,-0.14 0.16,-0.35 0.01,-0.46 -0.12,-0.09 -0.3,-0.05 -0.45,0 -0.65,0.22 -1.22,0.59 -1.85,0.84 -0.47,0.19 -3.23,1.14 -3.34,0.21 -0.03,-0.26 0.25,-0.45 0.47,-0.6 0.24,-0.16 0.46,-0.42 0.33,-0.65 -0.12,-0.19 -0.42,-0.2 -0.67,-0.2 C 16.46,29.07 15.39,29 14.45,28.6 13.5,28.19 12.5,27.44 12.2,26.55 c -0.3,-0.89 -0.11,-1.9 0.5,-2.66 0.54,-0.65 1.69,-0.88 2.5,-1.28 1.33,-0.65 2.75,-1.13 4.19,-1.55 0.6,-0.17 1.24,-0.42 1.85,-0.54 0.69,-0.14 1.31,-0.14 1.96,-0.43 0.64,-0.29 1.22,-0.67 1.84,-0.97 0.65,-0.31 1.35,-0.54 2,-0.85 1,-0.48 1.88,-1.17 2.94,-1.55 1.21,-0.42 2.66,-0.38 3.75,0.24 1.09,0.62 1.71,1.85 1.35,2.94 -0.09,0.27 -0.22,0.61 0.02,0.81 0.16,0.13 0.4,0.12 0.6,0.2 0.29,0.12 0.42,0.44 0.36,0.72 -0.23,1.09 -1.49,1.76 -2.2,2.62 -0.13,0.15 -0.24,0.37 -0.1,0.51 0.09,0.08 0.23,0.09 0.35,0.09 0.64,-0.02 1.24,-0.27 1.87,-0.41 0.16,-0.04 0.34,-0.07 0.5,-0.04 0.16,0.03 0.33,0.12 0.38,0.26 0.17,0.5 -0.72,0.92 -0.38,1.53 0.08,0.13 0.24,0.21 0.39,0.27 0.34,0.12 0.72,0.16 1.05,0.29 0.28,0.11 0.52,0.29 0.59,0.53 z"
       style="fill:url(#linear-gradient-5);stroke-width:0.888936"
       id="path33" />
    <g
       style="opacity:0.51;stroke-width:0.888936"
       id="g34">
      <path
         d="m 42.21,17.02 c -0.72,0.04 -1.13,0.47 -0.84,0.77 0.29,0.3 0.85,0.19 1.09,0.12 0.15,-0.04 0.3,-0.13 0.42,-0.23 0.51,-0.44 -0.33,-0.67 -0.67,-0.65 z"
         style="fill:url(#linear-gradient-6);stroke-width:0.888936"
         id="path34" />
    </g>
    <path
       d="m 11.91,31.5 c 1.69,1.85 3.91,3.5 6.72,2.89 2.81,-0.61 0.21,-1.39 -1.13,-1.62 -1.34,-0.23 -4.1,-1.2 -5.25,-2.05 -1.15,-0.85 -1.19,-0.15 -0.34,0.78 z"
       style="fill:url(#linearGradient85);stroke-width:0.888936"
       id="path35" />
    <path
       d="M 7.82,24.58 C 7.67,24.96 7.48,25.33 7.31,25.71 7.05,26.31 7,26.93 7.07,27.57 7.11,27.95 7.21,28.54 7.7,28.68 8.23,28.83 8.51,28.19 8.46,27.82 8.39,27.22 8.14,26.73 8.24,26.09 8.36,25.35 8.56,24.44 8.22,23.73 8.21,23.7 8.18,23.67 8.15,23.66 8.09,23.66 8.06,23.72 8.05,23.77 8,24.05 7.91,24.32 7.81,24.58 Z"
       style="fill:url(#linear-gradient-8);stroke-width:0.888936"
       id="path36" />
    <path
       d="m 40.83,21.22 c -0.9,-0.17 -0.21,0.65 -0.48,1.77 -0.27,1.12 -1.08,1.74 -1.51,2.15 -0.43,0.41 0.72,0.61 1.99,-0.58 1.27,-1.19 1.02,-3.12 0,-3.34 z"
       style="fill:url(#linear-gradient-9);stroke-width:0.888936"
       id="path37" />
    <path
       d="m 39.53,15.23 c -0.35,0.94 -0.87,1.89 -0.35,2.73 0.52,0.84 -0.91,0.84 -1.28,-0.1 -0.37,-0.94 1.13,-2.44 1.63,-2.63 z"
       style="mix-blend-mode:multiply;fill:url(#linearGradient86);stroke-width:0.888936"
       id="path38" />
    <path
       d="m 38.06,11.83 c -1.54,-0.67 -4,-0.41 -4.74,0.35 -0.74,0.76 1.63,0.3 3.1,0.2 1.47,-0.1 2.76,0.56 2.76,0.56 0,0 -0.39,-0.78 -1.13,-1.1 z"
       style="mix-blend-mode:multiply;fill:url(#linear-gradient-11);stroke-width:0.888936"
       id="path39" />
    <path
       d="m 7.38,32.42 c -1.67,0.09 -2.6,1.01 -1.94,1.63 0.66,0.62 1.95,0.39 2.51,0.24 C 8.51,34.14 9.76,33.38 9.3,32.96 8.84,32.54 8.06,32.37 7.38,32.41 Z"
       style="opacity:0.51;fill:url(#linear-gradient-12);stroke-width:0.888936"
       id="path40" />
    <path
       d="m 28.43,34.13 c -2.18,0.12 -3.4,1.32 -2.54,2.13 0.86,0.81 2.55,0.52 3.29,0.32 0.45,-0.12 0.91,-0.37 1.26,-0.64 1.55,-1.22 -0.99,-1.87 -2.01,-1.82 z"
       style="opacity:0.7;fill:url(#linear-gradient-13);stroke-width:0.888936"
       id="path41" />
    <path
       d="m 32.85,33.48 c -0.78,0.05 -1.22,0.51 -0.91,0.83 0.31,0.32 0.92,0.2 1.18,0.12 0.16,-0.05 0.33,-0.14 0.45,-0.25 0.56,-0.47 -0.35,-0.73 -0.72,-0.71 z"
       style="opacity:0.7;fill:url(#linear-gradient-14);stroke-width:0.888936"
       id="path42" />
    <path
       d="m 31.69,31.87 c -0.51,0.03 -0.8,0.34 -0.6,0.54 0.2,0.2 0.6,0.13 0.77,0.08 0.11,-0.03 0.21,-0.09 0.3,-0.16 0.36,-0.31 -0.23,-0.48 -0.47,-0.46 z"
       style="opacity:0.7;fill:url(#linear-gradient-15);stroke-width:0.888936"
       id="path43" />
    <path
       d="m 4.89,21.59 c -0.94,0.06 -1.47,0.62 -1.1,1 0.37,0.38 1.1,0.24 1.42,0.15 C 5.4,22.68 5.6,22.57 5.75,22.44 6.42,21.87 5.32,21.56 4.88,21.59 Z"
       style="opacity:0.51;fill:url(#linear-gradient-16);stroke-width:0.888936"
       id="path44" />
    <path
       d="M 5.1,23.75 C 4.66,23.78 4.41,24.04 4.58,24.22 4.75,24.4 5.1,24.33 5.25,24.29 5.34,24.26 5.44,24.21 5.51,24.15 5.83,23.88 5.31,23.74 5.1,23.75 Z"
       style="opacity:0.51;fill:url(#linear-gradient-17);stroke-width:0.888936"
       id="path45" />
    <path
       d="m 10.02,34.81 c -0.74,0.04 -1.15,0.45 -0.86,0.72 0.29,0.27 0.86,0.17 1.11,0.11 0.79,-0.21 0.51,-0.87 -0.25,-0.83 z"
       style="opacity:0.51;fill:url(#linear-gradient-18);stroke-width:0.888936"
       id="path46" />
  </g>
  <g
     id="g92"
     transform="matrix(1.24338,0,0,1.24338,-4.78255,-6.1482)"
     style="stroke-width:0.804259">
    <path
       d="m 22.414,28.041 c 2.7561,-1.0912 5.4222,-2.3849 7.9646,-3.8473 1.1136,-0.6412 2.1936,-1.3274 3.296,-1.9912 0.9787,-0.5849 1.9012,-1.2711 2.4074,-2.2723 0.8437,-1.6537 0.034,-3.6336 -1.9911,-3.9598 -0.855,-0.135 -1.7437,0 -2.5874,0.2137 -0.6637,0.1688 -1.2712,0.4162 -1.9124,0.6187 -0.5625,0.18 -1.1474,0.225 -1.7212,0.36 -1.1249,0.2587 -2.2273,0.5625 -3.3298,0.9 -2.1599,0.6524 -4.2748,1.4061 -6.4009,2.1598 -0.8212,0.2925 -1.6424,0.585 -2.4074,0.99 -0.9337,0.495 -2.4073,1.2487 -2.9473,2.1261 -0.4612,0.7537 -0.9787,2.0249 -0.855,2.8686 0.045,0.3375 0.1913,0.6637 0.3938,0.9562 0.5849,0.8662 1.4511,1.2262 2.4861,1.4849 1.4737,0.36 2.8236,0.63 4.3535,0.3825 1.1249,-0.18 2.2049,-0.5737 3.2623,-0.9899 z"
       style="isolation:isolate;mix-blend-mode:multiply;fill:url(#linear-gradient-19);stroke-width:0.804259"
       id="path47" />
    <path
       d="m 32.0435,14.7667 c 0.1462,-0.3712 0.4049,-0.6075 0.4049,-1.2149 0,-0.6075 -0.4837,-1.2262 -0.7874,-1.305 -0.3037,-0.079 -0.079,-0.1912 0.2587,-0.068 0.3375,0.1238 1.2487,0.6412 1.3387,1.6087 0.067,0.8099 -0.6637,0.9899 -1.0462,1.0912"
       style="isolation:isolate;fill:url(#linearGradient87);stroke-width:0.804259"
       id="path48" />
    <path
       d="m 33.1684,19.7839 c -0.9449,0.5512 -1.2824,0.4162 -2.4411,0.8212 -1.1587,0.405 -2.1486,1.9574 -5.456,3.8136 -0.2025,0.1125 -0.4049,0.2137 -0.6074,0.315 -0.023,0 -0.034,0.023 -0.056,0.034 -1.3162,0.72 -4.2523,1.6087 -4.781,1.8787 -0.5399,0.2699 -3.7798,1.6199 -5.1522,0.6412 -1.3727,-0.979 -1.6202,-2.0365 -2.1377,-2.6552 L 18.2855,23.26 c 0.7424,-1.9124 1.7324,-3.9936 1.7324,-3.9936 -0.675,-1.9573 1.3499,-4.4885 2.4861,-4.7359 1.1249,-0.2475 2.5311,0.4499 3.2511,0.6524 0.7199,0.2025 1.9011,-0.3375 2.9473,-0.6974 1.0574,-0.3488 3.6223,-0.023 4.466,0.6749 0.8437,0.6862 1.2712,1.2937 1.4624,1.9462 0.18,0.6637 -0.5287,2.1373 -1.4624,2.6773 z"
       style="isolation:isolate;fill:#efa189;stroke-width:0.804259"
       id="path49" />
    <path
       d="m 33.1684,19.7839 c -0.9449,0.5512 -1.2824,0.4162 -2.4411,0.8212 -1.1587,0.405 -2.1486,1.9574 -5.456,3.8136 -0.2025,0.1125 -0.4049,0.2137 -0.6074,0.315 -0.023,0 -0.034,0.023 -0.056,0.034 -1.3162,0.72 -4.2523,1.6087 -4.781,1.8787 -0.5399,0.2699 -3.7798,1.6199 -5.1522,0.6412 -1.3727,-0.979 -1.6202,-2.0365 -2.1377,-2.6552 L 18.2855,23.26 c 0.7424,-1.9124 1.7324,-3.9936 1.7324,-3.9936 -0.675,-1.9573 1.3499,-4.4885 2.4861,-4.7359 1.1249,-0.2475 2.5311,0.4499 3.2511,0.6524 0.7199,0.2025 1.9011,-0.3375 2.9473,-0.6974 1.0574,-0.3488 3.6223,-0.023 4.466,0.6749 0.8437,0.6862 1.2712,1.2937 1.4624,1.9462 0.18,0.6637 -0.5287,2.1373 -1.4624,2.6773 z"
       style="isolation:isolate;fill:url(#linear-gradient-21);stroke-width:0.804259"
       id="path50" />
    <path
       d="m 22.5377,14.8792 c -0.4162,0.2812 -0.4612,0.7087 -0.6187,1.1362 -0.056,0.1687 -0.1125,0.3375 -0.1462,0.5062 0.4837,-0.2475 0.7087,-0.4275 1.3049,-0.3825 0.5512,0.045 1.0799,0.2588 1.5862,0.4837 l 1.1362,0.4838 c 0.2362,0.1012 0.4837,0.2025 0.7312,0.2362 0.2475,0.034 0.5174,0 0.7424,-0.09 0.4275,-0.1687 0.7312,-0.5287 1.0687,-0.8325 0.81,-0.7199 1.8899,-1.1474 2.9924,-1.1586 0.6974,0 2.0586,0.2924 2.4636,0.9224 -0.3375,-0.5287 -0.6975,-1.0799 -1.26,-1.3724 -0.2024,-0.1125 -0.4274,-0.18 -0.6524,-0.2475 -0.5512,-0.1575 -1.2037,-0.3487 -1.7774,-0.3487 -0.4613,0 -0.9787,0.2025 -1.4287,0.3262 -1.0574,0.2925 -2.1599,0.6975 -3.2848,0.5175 -0.495,-0.079 -0.9562,-0.27 -1.4512,-0.36 -0.495,-0.09 -1.0349,-0.09 -1.4399,0.18 z"
       style="isolation:isolate;fill:url(#linearGradient88);stroke-width:0.804259"
       id="path51" />
    <path
       d="m 22.5377,14.8792 c -0.4162,0.2812 -0.4612,0.7087 -0.6187,1.1362 -0.056,0.1687 -0.1125,0.3375 -0.1462,0.5062 0.4837,-0.2475 0.7087,-0.4275 1.3049,-0.3825 0.5512,0.045 1.0799,0.2588 1.5862,0.4837 l 1.1362,0.4838 c 0.2362,0.1012 0.4837,0.2025 0.7312,0.2362 0.2475,0.034 0.5174,0 0.7424,-0.09 0.4275,-0.1687 0.7312,-0.5287 1.0687,-0.8325 0.81,-0.7199 1.8899,-1.1474 2.9924,-1.1586 0.6974,0 2.0586,0.2924 2.4636,0.9224 -0.3375,-0.5287 -0.6975,-1.0799 -1.26,-1.3724 -0.2024,-0.1125 -0.4274,-0.18 -0.6524,-0.2475 -0.5512,-0.1575 -1.2037,-0.3487 -1.7774,-0.3487 -0.4613,0 -0.9787,0.2025 -1.4287,0.3262 -1.0574,0.2925 -2.1599,0.6975 -3.2848,0.5175 -0.495,-0.079 -0.9562,-0.27 -1.4512,-0.36 -0.495,-0.09 -1.0349,-0.09 -1.4399,0.18 z"
       style="isolation:isolate;fill:url(#linearGradient89);stroke-width:0.804259"
       id="path52" />
    <path
       d="m 34.5971,17.7253 c -0.1575,0.7199 -0.7312,1.6536 -1.4287,2.0586 -0.9449,0.5512 -1.2824,0.4162 -2.4411,0.8212 -1.1587,0.405 -2.1486,1.9574 -5.456,3.8136 -0.2025,0.1125 -0.4049,0.2137 -0.6074,0.315 -0.023,0 -0.034,0.023 -0.056,0.034 -1.3162,0.72 -4.2523,1.6087 -4.781,1.8787 -0.5399,0.2699 -3.7798,1.6199 -5.1522,0.6412 -1.0912,-0.7762 -1.4737,-1.6087 -1.8449,-2.2162 0.034,-0.079 0.079,-0.1462 0.1575,-0.1687 0.1012,-0.034 0.2025,0.011 0.2925,0.045 0.36,0.1575 0.7312,0.3037 1.0912,0.4837 0.2812,0.1575 0.5737,0.3263 0.8774,0.4275 0.495,0.18 1.0125,0.18 1.5299,0.1575 0.4838,-0.034 0.8325,-0.2025 1.2712,-0.3825 0.5512,-0.2362 1.0912,-0.4725 1.6424,-0.7087 0,0 1.5412,0.3487 2.9136,-0.8325 1.3724,-1.1811 1.5637,-3.6223 2.0249,-4.8035 0.45,-1.1811 1.4849,-1.0349 1.8224,-0.9224 0.3487,0.1237 1.26,0.5175 2.2499,0.5962 0.9899,0.079 1.6087,-0.5287 2.3961,-1.7661 0.7875,-1.2375 1.8224,-1.1925 2.5649,-0.8887 0.4612,0.2024 0.8887,0.7537 0.9337,1.4174 z"
       style="isolation:isolate;fill:url(#linear-gradient-24);stroke-width:0.804259"
       id="path53" />
    <path
       d="m 34.5971,17.7253 c -0.1575,0.7199 -0.7312,1.6536 -1.4287,2.0586 -0.9449,0.5512 -1.2824,0.4162 -2.4411,0.8212 -1.1587,0.405 -2.1486,1.9574 -5.456,3.8136 -0.2025,0.1125 -0.4049,0.2137 -0.6074,0.315 -0.023,0 -0.034,0.023 -0.056,0.034 -1.3162,0.72 -4.2523,1.6087 -4.781,1.8787 -0.5399,0.2699 -3.7798,1.6199 -5.1522,0.6412 -1.0912,-0.7762 -1.4737,-1.6087 -1.8449,-2.2162 0.034,-0.079 0.079,-0.1462 0.1575,-0.1687 0.1012,-0.034 0.2025,0.011 0.2925,0.045 0.36,0.1575 0.7312,0.3037 1.0912,0.4837 0.2812,0.1575 0.5737,0.3263 0.8774,0.4275 0.495,0.18 1.0125,0.18 1.5299,0.1575 0.4838,-0.034 0.8325,-0.2025 1.2712,-0.3825 0.5512,-0.2362 1.0912,-0.4725 1.6424,-0.7087 0,0 1.5412,0.3487 2.9136,-0.8325 1.3724,-1.1811 1.5637,-3.6223 2.0249,-4.8035 0.45,-1.1811 1.4849,-1.0349 1.8224,-0.9224 0.3487,0.1237 1.26,0.5175 2.2499,0.5962 0.9899,0.079 1.6087,-0.5287 2.3961,-1.7661 0.7875,-1.2375 1.8224,-1.1925 2.5649,-0.8887 0.4612,0.2024 0.8887,0.7537 0.9337,1.4174 z"
       style="isolation:isolate;fill:url(#linearGradient90);stroke-width:0.804259"
       id="path54" />
    <path
       d="m 20.8728,17.984 c 0.3712,0.36 0.8212,0.675 1.1925,1.035 0.2024,0.1912 0.3149,0.4949 0.4612,0.7312 0.09,0.1462 0.495,0.5737 0.4837,0.7199 0.022,-0.5849 -0.1912,-1.3161 -0.3712,-1.8674 -0.135,-0.3937 -0.2025,-0.8212 -0.27,-1.2262 0,0 -0.72,0.6975 -1.4962,0.6188 z"
       style="isolation:isolate;fill:url(#linear-gradient-26);stroke-width:0.804259"
       id="path55" />
    <path
       d="m 33.1684,19.7839 c -0.9449,0.5512 -1.2824,0.4162 -2.4411,0.8212 -1.1587,0.405 -2.1486,1.9574 -5.456,3.8136 -0.2025,0.1125 -0.4049,0.2137 -0.6074,0.315 -0.023,0 -0.034,0.023 -0.056,0.034 -1.3162,0.72 -4.2523,1.6087 -4.781,1.8787 -0.5399,0.2699 -3.7798,1.6199 -5.1522,0.6412 -1.3727,-0.979 -1.6202,-2.0365 -2.1377,-2.6552 L 18.2855,23.26 c 0.7424,-1.9124 1.7324,-3.9936 1.7324,-3.9936 -0.675,-1.9573 1.3499,-4.4885 2.4861,-4.7359 1.1249,-0.2475 2.5311,0.4499 3.2511,0.6524 0.7199,0.2025 1.9011,-0.3375 2.9473,-0.6974 1.0574,-0.3488 3.6223,-0.023 4.466,0.6749 0.8437,0.6862 1.2712,1.2937 1.4624,1.9462 0.18,0.6637 -0.5287,2.1373 -1.4624,2.6773 z"
       style="isolation:isolate;fill:none;stroke:#bf735c;stroke-width:0.562981px;stroke-miterlimit:10"
       id="path56" />
    <path
       d="m 34.5858,17.7928 c -0.18,0.7087 -0.7424,1.5974 -1.4174,1.9911 -0.9449,0.5512 -1.2824,0.4162 -2.4411,0.8212 -1.1587,0.405 -2.1486,1.9574 -5.456,3.8136 -0.2025,0.1125 -0.4049,0.2137 -0.6074,0.315 -0.023,0 -0.034,0.023 -0.056,0.034 -1.3162,0.72 -4.2523,1.6087 -4.781,1.8787 -0.5399,0.2699 -3.7798,1.6199 -5.1522,0.6412 -1.3727,-0.979 -1.6202,-2.0365 -2.1377,-2.6552 L 18.2855,23.26 c 0.034,-0.079 0.067,-0.1688 0.1012,-0.2475 l 2.1036,1.3724 c -0.6074,0.9675 1.305,0.2138 2.7111,-0.1575 1.395,-0.3599 2.4749,-0.3824 4.0161,-1.7324 1.5524,-1.3499 2.3061,-2.1599 3.4873,-2.3511 1.1812,-0.2025 3.2061,-0.7425 3.881,-2.3511 z"
       style="isolation:isolate;fill:url(#linear-gradient-27);stroke-width:0.804259"
       id="path57" />
    <path
       d="m 12.1995,19.4689 c 0,0 0.022,-0.5737 -0.3037,-1.1699 -0.3262,-0.5962 -0.7312,-1.6199 -0.7875,-2.1486 -0.067,-0.6525 0.045,-1.1025 0,-1.53 -0.045,-0.4274 0.1688,-1.0237 0.6075,-0.7087 0.2362,0.1688 0.9675,0.5288 1.5074,0.6637 0.54,0.135 1.3725,0.8663 1.8787,0.72 0,0 0.9899,-1.0912 2.1374,-1.1024 1.1474,-0.011 2.0698,0.7649 2.1823,0.9112 0,0 0.6638,0.6524 1.1475,1.4174 0.4837,0.765 0.6412,1.7212 1.3612,2.5424 0.7199,0.8212 1.6874,2.4073 0.6074,4.2072 -1.0799,1.7999 -3.2848,2.4524 -3.7123,2.7674 -0.4275,0.315 -0.5849,0.8662 -1.4736,0.9449 -0.8887,0.079 -1.4737,-0.3262 -2.0587,-0.6524 -0.585,-0.3263 -3.4311,-1.2375 -3.9485,-2.9811 -0.5175,-1.7437 0.6299,-2.7786 0.8437,-3.8811 z"
       style="isolation:isolate;fill:#efa189;stroke-width:0.804259"
       id="path58" />
    <path
       d="m 12.1995,19.4689 c 0,0 0.022,-0.5737 -0.3037,-1.1699 -0.3262,-0.5962 -0.7312,-1.6199 -0.7875,-2.1486 -0.067,-0.6525 0.045,-1.1025 0,-1.53 -0.045,-0.4274 0.1688,-1.0237 0.6075,-0.7087 0.2362,0.1688 0.9675,0.5288 1.5074,0.6637 0.54,0.135 1.3725,0.8663 1.8787,0.72 0,0 0.9899,-1.0912 2.1374,-1.1024 1.1474,-0.011 2.0698,0.7649 2.1823,0.9112 0,0 0.6638,0.6524 1.1475,1.4174 0.4837,0.765 0.6412,1.7212 1.3612,2.5424 0.7199,0.8212 1.6874,2.4073 0.6074,4.2072 -1.0799,1.7999 -3.2735,2.6886 -3.7123,3.0036 -0.4387,0.315 -0.5962,0.63 -1.4849,0.6975 -0.8887,0.067 -1.4737,-0.3262 -2.0586,-0.6525 -0.585,-0.3262 -3.4311,-1.2374 -3.9486,-2.9811 -0.5174,-1.7436 0.63,-2.7786 0.8437,-3.881 z"
       style="isolation:isolate;fill:url(#linear-gradient-28);stroke-width:0.804259"
       id="path59" />
    <path
       d="m 15.2594,16.5103 c 0.056,0.056 0.1125,0.1125 0.2025,0.1688 1.4736,0.9787 2.981,-0.4612 3.656,-1.6874 0.011,-0.022 0.023,-0.045 0.023,-0.067 0,-0.045 -0.034,-0.068 -0.067,-0.09 -0.7199,-0.5175 -1.6874,-0.675 -2.5311,-0.3937 -0.8325,0.2812 -1.6087,0.8212 -2.5086,0.7762 0.2025,0.3262 0.6074,0.4049 0.8324,0.6974 0.1575,0.2138 0.225,0.4163 0.3825,0.5962 z"
       style="isolation:isolate;fill:url(#linear-gradient-29);stroke-width:0.804259"
       id="path60" />
    <path
       d="m 15.2594,16.5103 c 0.056,0.056 0.1125,0.1125 0.2025,0.1688 1.4736,0.9787 2.981,-0.4612 3.656,-1.6874 0.011,-0.022 0.023,-0.045 0.023,-0.067 0,-0.045 -0.034,-0.068 -0.067,-0.09 -0.7199,-0.5175 -1.6874,-0.675 -2.5311,-0.3937 -0.8325,0.2812 -1.6087,0.8212 -2.5086,0.7762 0.2025,0.3262 0.6074,0.4049 0.8324,0.6974 0.1575,0.2138 0.225,0.4163 0.3825,0.5962 z"
       style="isolation:isolate;fill:url(#linear-gradient-30);stroke-width:0.804259"
       id="path61" />
    <path
       d="m 17.7005,23.035 c -0.1913,0.9112 -0.405,1.5524 -0.9562,1.7999 -0.5512,0.2475 -1.9799,0 -2.0362,-0.27 -0.056,-0.27 1.4962,0 2.0924,-0.4725 0.5963,-0.4724 0.9,-1.0574 0.9,-1.0574 z"
       style="isolation:isolate;fill:url(#linear-gradient-31);stroke-width:0.804259"
       id="path62" />
    <path
       d="m 12.1995,22.5963 c 0.2813,-0.27 0.7425,-0.1013 1.0012,0.2025 0.2588,0.3037 0.945,1.8786 2.5986,1.9011 1.6537,0.023 2.7786,-0.5287 3.4311,-1.6537 0.6525,-1.1249 0.8212,-1.5861 1.3949,-1.4961 0.5737,0.09 0.4838,0.6187 0.4275,0.7987 -0.056,0.18 -0.079,-0.3487 -0.45,-0.2925 -0.3712,0.056 -0.6524,0.5625 -1.2599,1.4624 -0.8325,1.2375 -2.1711,2.0249 -3.4761,1.8224 -1.3049,-0.2025 -2.8461,-1.8899 -3.0823,-2.2836 -0.2362,-0.3937 -0.585,-0.4612 -0.585,-0.4612 z"
       style="isolation:isolate;fill:#7c4639;stroke-width:0.804259"
       id="path63" />
    <path
       d="m 22.4252,23.6762 c -1.0124,1.7999 -3.0598,2.1824 -3.476,2.4974 -0.4163,0.315 -0.7762,0.7199 -1.6087,0.7874 -0.8212,0.068 -1.3724,-0.3262 -1.9236,-0.6637 -0.5513,-0.3262 -3.3974,-0.8662 -3.8811,-2.6098 -0.1237,-0.4613 0.034,-1.2487 0.079,-1.6312 0.079,1.5187 1.2599,2.3511 2.0586,2.5424 0.81,0.1912 1.0012,0.6749 1.6199,1.1137 0.6075,0.4499 0.8212,0.6524 1.5974,0.5512 0.765,-0.09 1.5187,-0.8212 2.6549,-1.3725 1.1362,-0.5512 1.9236,-1.5411 2.3061,-2.2273 0.5062,-0.9337 0.6187,-2.1487 0.034,-3.0824 1.3386,1.0687 1.0012,3.2961 0.5512,4.0948 z"
       style="isolation:isolate;fill:url(#linear-gradient-32);stroke-width:0.804259"
       id="path64" />
    <path
       d="m 12.1995,14.3055 c 0.3038,0.4499 0.8325,0.5849 1.1925,1.1249 0.3599,0.54 0.8999,1.0349 1.2711,1.0687 0.3713,0.034 -0.3937,-0.225 -0.6299,-0.6975 -0.2363,-0.4724 -0.2475,-0.8887 -0.63,-1.1587 C 13.0207,14.373 12.087,14.0467 12.087,14.0467 Z"
       style="isolation:isolate;fill:url(#linear-gradient-33);stroke-width:0.804259"
       id="path65" />
    <path
       d="m 11.1083,16.1504 c -0.067,-0.6525 0.045,-1.1025 0,-1.53 -0.045,-0.4274 0.1913,-1.0461 0.6075,-0.7087 0.4162,0.3375 0.3712,0.8212 0.8437,1.2487 0.4725,0.4275 0.8325,0.495 0.765,1.2487 -0.068,0.7537 -0.2588,1.5749 -0.5738,2.2499 -0.3149,0.6749 -0.5512,0.7987 -0.5512,0.7987 0,0 0.022,-0.5737 -0.3037,-1.17 -0.3262,-0.5962 -0.7312,-1.6199 -0.7875,-2.1486 z"
       style="isolation:isolate;fill:url(#linear-gradient-34);stroke-width:0.804259"
       id="path66" />
    <ellipse
       cx="13.7744"
       cy="20.6276"
       rx="0.393729"
       ry="0.607468"
       style="isolation:isolate;fill:#633206;stroke-width:0.804259"
       id="ellipse66" />
    <ellipse
       cx="18.4542"
       cy="21.0214"
       rx="0.416228"
       ry="0.652465"
       style="isolation:isolate;fill:#633206;stroke-width:0.804259"
       id="ellipse67" />
    <path
       d="m 12.1995,19.4689 c 0,0 0.022,-0.5737 -0.3037,-1.1699 -0.3262,-0.5962 -0.7312,-1.6199 -0.7875,-2.1486 -0.067,-0.6525 0.045,-1.1025 0,-1.53 -0.045,-0.4274 0.1688,-1.0237 0.6075,-0.7087 0.2362,0.1688 0.9675,0.5288 1.5074,0.6637 0.54,0.135 1.3725,0.8663 1.8787,0.72 0,0 0.9899,-1.0912 2.1374,-1.1024 1.1474,-0.011 2.0698,0.7649 2.1823,0.9112 0,0 0.6638,0.6524 1.1475,1.4174 0.4837,0.765 0.6412,1.7212 1.3612,2.5424 0.7199,0.8212 1.6424,2.7561 0.5737,4.556 -1.0687,1.7999 -3.1386,2.3173 -3.5773,2.6323 -0.4388,0.315 -0.675,0.6637 -1.5637,0.7312 -0.8887,0.067 -1.4737,-0.3262 -2.0586,-0.6524 -0.585,-0.3263 -3.4536,-0.6075 -3.9486,-2.9811 -0.3712,-1.7774 0.63,-2.7786 0.8437,-3.8811 z"
       style="isolation:isolate;fill:none;stroke:#bf735c;stroke-width:0.562981px;stroke-miterlimit:10"
       id="path67" />
    <path
       d="m 15.8668,22.9563 c 0.1688,0.3599 0.945,0.3262 1.2712,0.067 0.3262,-0.2587 0.5175,-0.5174 0.5625,-0.8662 0.045,-0.3487 0.2025,-0.2474 0.1912,0.2588 -0.011,0.5062 -0.3262,1.4287 -1.0574,1.8561 -0.7312,0.4275 -1.7324,0.3938 -2.1262,0.2813 -0.3937,-0.1125 0.63,-0.9 0.63,-0.9 l 0.5175,-0.6974 z"
       style="isolation:isolate;fill:url(#linear-gradient-35);stroke-width:0.804259"
       id="path68" />
    <path
       d="m 13.2007,22.7988 c 0.034,-0.6525 0.079,-0.99 0.5512,-1.3275 0.4725,-0.3375 0.9675,-0.8774 0.9675,-0.8774 0,0 0.09,0.045 0,0.3487 -0.09,0.3037 -0.765,0.5625 -0.9562,1.0575 -0.1912,0.4949 -0.5625,0.7874 -0.5625,0.7874 z"
       style="isolation:isolate;fill:url(#linear-gradient-36);stroke-width:0.804259"
       id="path69" />
    <path
       d="m 16.0806,23.9687 c 0,0 0.6637,-0.022 1.0799,-0.3825 0.4162,-0.36 0.6075,-0.7199 0.6637,-0.8999 0.056,-0.18 0.079,0.5174 -0.5399,1.1924 -0.6188,0.675 -1.5075,0.9337 -2.8349,0.6525 l 1.6312,-0.5513 z"
       style="isolation:isolate;fill:url(#linear-gradient-37);stroke-width:0.804259"
       id="path70" />
    <g
       id="g75"
       style="isolation:isolate;stroke-width:0.714935"
       transform="matrix(1.12494,0,0,1.12494,-2.45844,-2.90612)">
      <path
         d="m 15.03,24.39 c -0.46,-0.11 -0.9,-0.53 -1.05,-0.98 -0.15,-0.45 -0.04,-0.87 0.17,-1.07 0.21,-0.2 0.55,-0.24 0.66,-0.5 0.11,-0.26 0.49,-0.53 0.7,-0.2 0.21,0.33 0,0.42 0.42,0.61 0.42,0.19 0.81,0.61 0.78,1.22 -0.03,0.61 -0.87,1.1 -1.69,0.91 z"
         style="fill:#ffc5b6;stroke-width:0.714935"
         id="path71" />
      <path
         d="m 15.03,24.39 c -0.46,-0.11 -0.9,-0.53 -1.05,-0.98 -0.15,-0.45 -0.04,-0.87 0.17,-1.07 0.21,-0.2 0.55,-0.24 0.66,-0.5 0.11,-0.26 0.49,-0.53 0.7,-0.2 0.21,0.33 0,0.42 0.42,0.61 0.42,0.19 0.81,0.61 0.78,1.22 -0.03,0.61 -0.87,1.1 -1.69,0.91 z"
         style="fill:url(#linear-gradient-38);stroke-width:0.714935"
         id="path72" />
      <path
         d="m 15.03,24.39 c -0.46,-0.11 -0.9,-0.53 -1.05,-0.98 -0.15,-0.45 -0.04,-0.87 0.17,-1.07 0.21,-0.2 0.55,-0.24 0.66,-0.5 0.11,-0.26 0.49,-0.53 0.7,-0.2 0.21,0.33 0,0.42 0.42,0.61 0.42,0.19 0.81,0.61 0.78,1.22 -0.03,0.61 -0.87,1.1 -1.69,0.91 z"
         style="fill:url(#linear-gradient-39);stroke-width:0.714935"
         id="path73" />
      <path
         d="m 14.69,22.88 c -0.03,0.32 0,0.52 0.05,0.62 0.05,0.1 -0.32,0.06 -0.38,-0.28 -0.06,-0.34 0.13,-0.61 0.26,-0.69 0.13,-0.08 0.09,0.17 0.07,0.35 z"
         style="fill:#7c4639;stroke-width:0.714935"
         id="path74" />
      <path
         d="m 15.44,23.73 c 0,0 -0.09,0 -0.09,-0.04 0,-0.03 0,-0.07 0.02,-0.09 0.03,-0.11 0.05,-0.21 0.06,-0.32 0.03,-0.3 -0.1,-0.37 0,-0.55 0.1,-0.18 0.37,-0.11 0.43,0.25 0.04,0.24 -0.08,0.48 -0.24,0.63 -0.04,0.04 -0.08,0.09 -0.14,0.11 -0.01,0 -0.02,0.01 -0.04,0.01 z"
         style="fill:#7c4639;stroke-width:0.714935"
         id="path75" />
    </g>
    <path
       d="m 16.553,20.9426 c -0.6637,-0.3487 -1.2374,-0.2812 -1.4511,-0.1125 -0.3938,0.2925 0.056,0.4725 0.4387,0.585 0.3825,0.1125 1.0237,0.068 1.2037,0.034 0.18,-0.034 0.034,-0.3824 -0.1913,-0.5062 z"
       style="isolation:isolate;fill:url(#linear-gradient-40);stroke-width:0.804259"
       id="path76" />
    <path
       d="m 13.077,15.7341 c 0.1912,0.7537 -0.3038,1.35 -0.54,2.0137 -0.135,0.3825 -0.045,0.7987 -0.011,1.1924 0.034,0.3937 -0.023,0.8662 -0.36,1.0912 0.045,-0.54 0.1125,-1.0912 -0.09,-1.5862 -0.2025,-0.4949 -0.1575,-0.9674 0.225,-1.3386 0.5062,-0.5063 0.6412,-0.945 0.6299,-1.1587 -0.011,-0.2138 0.1238,-0.3263 0.1463,-0.2138 z"
       style="isolation:isolate;fill:#bf735c;stroke-width:0.804259"
       id="path77" />
    <path
       d="m 19.2754,15.2954 c -0.2587,0.3937 -0.3937,0.8212 -0.1125,1.2937 0.2812,0.4725 0.3825,1.1474 0.99,1.4849 0.6074,0.3375 1.4399,-0.1012 1.8224,-0.54 0.3824,-0.4387 0.4274,-1.2824 0.5962,-1.8786 0.1687,-0.5962 0.9337,-1.0125 0.5399,-1.5974 -0.3937,-0.585 -1.5074,-0.54 -2.4636,0 -0.9562,0.5399 -1.3836,1.2374 -1.3836,1.2374 z"
       style="isolation:isolate;fill:#efa189;stroke-width:0.804259"
       id="path78" />
    <path
       d="m 19.8829,16.3529 c -0.045,-1.1362 1.5299,-2.0137 2.5311,-1.7662 0.056,0.011 0.1125,0.034 0.1462,0.079 0.1013,0.1463 -0.1462,0.6975 -0.1462,0.9112 0,0.36 0,0.72 -0.1125,1.0687 -0.1013,0.3038 -0.3037,0.5513 -0.495,0.7987 -0.09,0.1125 -0.18,0.225 -0.315,0.27 -0.1125,0.034 -0.225,0.011 -0.3374,0 -0.8213,-0.1912 -1.2375,-0.4724 -1.2712,-1.3611 z"
       style="isolation:isolate;fill:url(#linear-gradient-41);stroke-width:0.804259"
       id="path79" />
    <path
       d="m 19.2754,15.2954 c -0.2587,0.3937 -0.3937,0.8212 -0.1125,1.2937 0.2812,0.4725 0.3825,1.1474 0.99,1.4849 0.6074,0.3375 1.4399,-0.1012 1.8224,-0.54 0.3824,-0.4387 0.4274,-1.2824 0.5962,-1.8786 0.1687,-0.5962 0.9337,-1.0125 0.5399,-1.5974 -0.3937,-0.585 -1.5074,-0.54 -2.4636,0 -0.9562,0.5399 -1.3836,1.2374 -1.3836,1.2374 z"
       style="isolation:isolate;fill:url(#linear-gradient-42);stroke-width:0.804259"
       id="path80" />
    <path
       d="m 21.3678,15.8129 c 0.2587,-0.27 0.5737,-0.675 0.7424,-0.7762 0.1688,-0.1013 -0.6637,-0.2363 -1.2486,0.1687 -0.585,0.405 -0.72,0.7875 -0.6412,1.1137 0.079,0.3262 0.5287,0.315 0.6974,0.1237 0.1688,-0.1912 0.36,-0.5287 0.4612,-0.6187 z"
       style="isolation:isolate;fill:url(#linear-gradient-43);stroke-width:0.804259"
       id="path81" />
    <path
       d="m 18.9267,15.5879 c 0.6074,-1.2937 1.8224,-2.3736 3.3185,-2.2611 0.5738,0.067 1.17,0.034 1.4512,0.7649 0.023,0.5175 -0.225,0.6525 -0.315,0.8437 -0.4274,0.5512 -0.315,1.08 -0.5399,1.8112 -0.2813,0.8774 -1.3162,2.1149 -2.3174,1.5187 -0.079,-0.056 -0.067,-0.1913 0.023,-0.2363 0.7537,-0.3937 1.3724,-0.6525 1.6086,-1.4962 0.1575,-0.5399 0.2138,-1.4511 0.675,-1.9686 0.135,-0.1687 0.2587,-0.3937 0.2362,-0.3487 -0.056,-0.1463 -0.5962,-0.3038 -0.8437,-0.3038 -1.3611,-0.1687 -2.2723,0.7875 -3.0823,1.8112 -0.079,0.1237 -0.2812,0 -0.2137,-0.1238 v 0 z"
       style="isolation:isolate;fill:#bf735c;stroke-width:0.804259"
       id="path82" />
  </g>
</svg>
