<?xml version="1.0" encoding="UTF-8" standalone="no"?>
<svg
   viewBox="0 0 48 48"
   version="1.1"
   id="svg42"
   sodipodi:docname="mpm_rubber.svg"
   inkscape:version="1.3.2 (091e20e, 2023-11-25, custom)"
   xmlns:inkscape="http://www.inkscape.org/namespaces/inkscape"
   xmlns:sodipodi="http://sodipodi.sourceforge.net/DTD/sodipodi-0.dtd"
   xmlns:xlink="http://www.w3.org/1999/xlink"
   xmlns="http://www.w3.org/2000/svg"
   xmlns:svg="http://www.w3.org/2000/svg">
  <sodipodi:namedview
     id="namedview42"
     pagecolor="#ffffff"
     bordercolor="#666666"
     borderopacity="1.0"
     inkscape:showpageshadow="2"
     inkscape:pageopacity="0.0"
     inkscape:pagecheckerboard="0"
     inkscape:deskcolor="#d1d1d1"
     inkscape:zoom="16.2929"
     inkscape:cx="23.9982"
     inkscape:cy="23.9982"
     inkscape:current-layer="svg42" />
  <defs
     id="defs12">
    <radialGradient
       id="radial-gradient"
       cx="-331.64"
       cy="113.8"
       fx="-331.64"
       fy="113.8"
       r="16.75"
       gradientTransform="matrix(1.45,0,0,0.74,505.62,-48.29)"
       gradientUnits="userSpaceOnUse">
      <stop
         offset=".41"
         stop-color="#212121"
         stop-opacity=".4"
         id="stop1" />
      <stop
         offset=".89"
         stop-color="#212121"
         stop-opacity="0"
         id="stop2" />
    </radialGradient>
    <radialGradient
       id="radial-gradient-2"
       cx="-335.19"
       cy="150.04"
       fx="-335.19"
       fy="150.04"
       r="16.75"
       gradientTransform="matrix(1.45,0,0,0.56,510.78,-46.6)"
       gradientUnits="userSpaceOnUse">
      <stop
         offset=".03"
         stop-color="#1a1718"
         stop-opacity=".5"
         id="stop3" />
      <stop
         offset=".68"
         stop-color="#1a1718"
         stop-opacity=".1"
         id="stop4" />
      <stop
         offset=".93"
         stop-color="#1a1718"
         stop-opacity="0"
         id="stop5" />
    </radialGradient>
    <linearGradient
       id="linear-gradient"
       x1="21.55"
       y1="32.1"
       x2="18.35"
       y2="43.69"
       gradientTransform="matrix(1, 0, 0, 1, 0, 0)"
       gradientUnits="userSpaceOnUse">
      <stop
         offset="0"
         stop-color="#ededeb"
         id="stop6" />
      <stop
         offset="1"
         stop-color="#555753"
         id="stop7" />
    </linearGradient>
    <linearGradient
       id="linear-gradient-2"
       x1="25.54"
       y1="32.29"
       x2="24.93"
       y2="20.99"
       xlink:href="#linear-gradient" />
    <linearGradient
       id="linear-gradient-3"
       x1="22.43"
       y1="13.3"
       x2="8.87"
       y2="36.28"
       xlink:href="#linear-gradient" />
    <linearGradient
       id="linear-gradient-4"
       x1="10.93"
       y1="34.2"
       x2="26.02"
       y2="6.8"
       gradientTransform="matrix(1, 0, 0, 1, 0, 0)"
       gradientUnits="userSpaceOnUse">
      <stop
         offset="0"
         stop-color="#fff"
         stop-opacity="0"
         id="stop8" />
      <stop
         offset=".52"
         stop-color="#fff7f7"
         stop-opacity=".9"
         id="stop9" />
      <stop
         offset="1"
         stop-color="#fff"
         stop-opacity="0"
         id="stop10" />
    </linearGradient>
    <linearGradient
       id="linear-gradient-5"
       x1="27.65"
       y1="35.56"
       x2="30.09"
       y2="20.03"
       xlink:href="#linear-gradient" />
    <linearGradient
       id="linear-gradient-6"
       x1="27.65"
       y1="35.56"
       x2="30.09"
       y2="20.03"
       xlink:href="#linear-gradient" />
    <linearGradient
       id="linear-gradient-7"
       x1="29.26"
       y1="34.28"
       x2="29.26"
       y2="18.92"
       xlink:href="#linear-gradient" />
    <linearGradient
       id="linear-gradient-8"
       x1="27.33"
       y1="31.4"
       x2="23.89"
       y2="44.73"
       xlink:href="#linear-gradient" />
    <linearGradient
       id="linear-gradient-9"
       x1="17.58"
       y1="35.61"
       x2="33.69"
       y2="9.45"
       xlink:href="#linear-gradient-4" />
    <linearGradient
       id="linear-gradient-10"
       x1="21.43"
       y1="31.3"
       x2="45.43"
       y2="18.65"
       xlink:href="#linear-gradient" />
    <linearGradient
       id="linear-gradient-11"
       x1="18.55"
       y1="37.82"
       x2="33.26"
       y2="37.82"
       xlink:href="#linear-gradient" />
    <linearGradient
       id="linear-gradient-12"
       x1="19.39"
       y1="23"
       x2="58.69"
       y2="37.43"
       gradientUnits="userSpaceOnUse">
      <stop
         offset="0"
         stop-color="#fff"
         stop-opacity="0"
         id="stop11" />
      <stop
         offset="1"
         stop-color="#fff7f7"
         id="stop12" />
    </linearGradient>
    <linearGradient
       id="linear-gradient-13"
       x1="35.66"
       y1="33.34"
       x2="25.81"
       y2="23.49"
       xlink:href="#linear-gradient" />
    <linearGradient
       id="linear-gradient-14"
       x1="27.86"
       y1="29.36"
       x2="25.79"
       y2="37.37"
       xlink:href="#linear-gradient" />
    <linearGradient
       inkscape:collect="always"
       xlink:href="#linear-gradient"
       id="linearGradient42"
       gradientUnits="userSpaceOnUse"
       x1="21.55"
       y1="32.1"
       x2="18.35"
       y2="43.69" />
    <linearGradient
       inkscape:collect="always"
       xlink:href="#linear-gradient-4"
       id="linearGradient43"
       gradientUnits="userSpaceOnUse"
       x1="10.93"
       y1="34.2"
       x2="26.02"
       y2="6.8" />
    <linearGradient
       inkscape:collect="always"
       xlink:href="#linear-gradient-4"
       id="linearGradient44"
       gradientUnits="userSpaceOnUse"
       x1="10.93"
       y1="34.2"
       x2="26.02"
       y2="6.8" />
  </defs>
  <g
     id="shadow"
     style="opacity:0.45;isolation:isolate;mix-blend-mode:multiply">
    <ellipse
       cx="24.1"
       cy="35.95"
       rx="23.37"
       ry="11.96"
       style="fill:url(#radial-gradient)"
       id="ellipse12" />
    <ellipse
       cx="24.1"
       cy="38.16"
       rx="23.37"
       ry="9.13"
       transform="rotate(-7.1,24.0896,38.1445)"
       style="fill:url(#radial-gradient-2)"
       id="ellipse13" />
  </g>
  <g
     id="ART"
     style="isolation:isolate;stroke-width:0.832002"
     transform="matrix(1.20213,0,0,1.20171,-5.0617,-5.63788)">
    <g
       id="g41"
       style="stroke-width:0.832002">
      <g
         id="g38"
         style="stroke-width:0.832002">
        <path
           d="M 37.63,11.21 C 35.09,9.09 30.24,6.4 27.13,5.54 27.05,5.52 26.99,5.5 26.92,5.48 24.81,4.72 21.9,5.29 19.08,6.49 12.07,9.48 6.74,18.99 7.15,27.42 c 0.02,0.42 0.06,0.83 0.1,1.24 0,0.08 0.02,0.16 0.03,0.25 0.05,0.4 0.1,0.77 0.17,1.15 0.02,0.06 0.03,0.13 0.04,0.19 0.07,0.34 0.15,0.68 0.23,1.01 0,0.05 0.03,0.11 0.04,0.16 0.09,0.35 0.2,0.69 0.32,1.02 0.03,0.07 0.05,0.14 0.08,0.22 0.12,0.33 0.25,0.65 0.4,0.96 0,0.02 0,0.03 0.02,0.04 0.14,0.29 0.29,0.58 0.45,0.84 0.03,0.06 0.07,0.11 0.1,0.17 0.15,0.27 0.33,0.52 0.51,0.76 l 0.1,0.13 c 0.17,0.22 0.34,0.42 0.53,0.61 0.03,0.02 0.04,0.04 0.06,0.06 0,0.02 0.03,0.03 0.06,0.06 0.21,0.21 0.83,0.8 1.47,1.3 2.6,1.97 7.59,4.33 10.22,5.01 0.59,0.17 1.23,0.26 1.89,0.26 1.45,0 3.03,-0.41 4.7,-1.28 6.76,-3.52 12.23,-13.22 12.23,-21.66 0,-4.03 -1.22,-7.03 -3.26,-8.7 z M 20.52,31.2 c -0.41,0.22 -0.82,0.39 -1.21,0.51 0.15,-3.16 0.62,-8.31 2,-11.04 1.33,-2.63 3.95,-5.03 5.68,-6.42 0.57,1.01 0.9,2.33 0.9,3.93 0,5.08 -3.3,10.91 -7.36,13.02 z"
           style="fill:#555753;stroke-width:0.832002"
           id="path13" />
        <path
           d="M 37.63,11.21 C 35.09,9.09 30.24,6.4 27.13,5.54 27.05,5.52 26.99,5.5 26.92,5.48 24.81,4.72 21.9,5.29 19.08,6.49 12.07,9.48 6.74,18.99 7.15,27.42 c 0.02,0.42 0.06,0.83 0.1,1.24 0,0.08 0.02,0.16 0.03,0.25 0.05,0.4 0.1,0.77 0.17,1.15 0.02,0.06 0.03,0.13 0.04,0.19 0.07,0.34 0.15,0.68 0.23,1.01 0,0.05 0.03,0.11 0.04,0.16 0.09,0.35 0.2,0.69 0.32,1.02 0.03,0.07 0.05,0.14 0.08,0.22 0.12,0.33 0.25,0.65 0.4,0.96 0,0.02 0,0.03 0.02,0.04 0.14,0.29 0.29,0.58 0.45,0.84 0.03,0.06 0.07,0.11 0.1,0.17 0.15,0.27 0.33,0.52 0.51,0.76 l 0.1,0.13 c 0.17,0.22 0.34,0.42 0.53,0.61 0.03,0.02 0.04,0.04 0.06,0.06 0,0.02 0.03,0.03 0.06,0.06 0.21,0.21 0.83,0.8 1.47,1.3 2.6,1.97 7.59,4.33 10.22,5.01 0.59,0.17 1.23,0.26 1.89,0.26 1.45,0 3.03,-0.41 4.7,-1.28 6.76,-3.52 12.23,-13.22 12.23,-21.66 0,-4.03 -1.22,-7.03 -3.26,-8.7 z M 20.52,31.2 c -0.41,0.22 -0.82,0.39 -1.21,0.51 0.15,-3.16 0.62,-8.31 2,-11.04 1.33,-2.63 3.95,-5.03 5.68,-6.42 0.57,1.01 0.9,2.33 0.9,3.93 0,5.08 -3.3,10.91 -7.36,13.02 z"
           style="opacity:0.7;mix-blend-mode:multiply;fill:url(#linearGradient42);stroke-width:0.832002"
           id="path14" />
        <path
           d="m 29.02,16.18 c -0.62,0.1 -1.02,0.35 -1.25,0.56 0.06,0.45 0.11,0.92 0.11,1.43 0,4.88 -3.05,10.45 -6.9,12.75 l -0.75,2.13 c 3.49,-1.47 8.15,-3.27 9.69,-6.22 1.54,-2.95 -0.9,-10.65 -0.9,-10.65 z"
           style="opacity:0.7;mix-blend-mode:multiply;fill:url(#linear-gradient-2);stroke-width:0.832002"
           id="path15" />
        <g
           id="g18"
           style="stroke-width:0.832002">
          <path
             d="m 20.52,31.2 c -0.41,0.22 -0.82,0.39 -1.21,0.51 0.15,-3.16 0.62,-8.31 2,-11.04 1.33,-2.63 3.95,-5.03 5.68,-6.42 0.57,1.01 0.9,2.33 0.9,3.93 0,5.08 -3.3,10.91 -7.36,13.02 z m -5,8.66 C 15.47,39.83 15.41,39.8 15.35,39.77"
             style="fill:none;stroke-width:0.832002"
             id="path16" />
          <path
             d="m 26.99,14.25 c -1.73,1.39 -4.36,3.8 -5.68,6.42 -1.38,2.73 -1.84,7.88 -2,11.04 0.4,-0.12 0.8,-0.29 1.21,-0.51 4.06,-2.12 7.36,-7.95 7.36,-13.02 0,-1.59 -0.33,-2.92 -0.9,-3.93 z"
             style="fill:none;stroke:#2e3436;stroke-width:0.582402px;stroke-miterlimit:10"
             id="path17" />
          <path
             d="m 20.52,31.2 c -0.41,0.22 -0.82,0.39 -1.21,0.51 0.15,-3.16 0.62,-8.31 2,-11.04 1.33,-2.63 3.95,-5.03 5.68,-6.42 0.57,1.01 0.9,2.33 0.9,3.93 0,5.08 -3.3,10.91 -7.36,13.02 z"
             style="fill:none;stroke:#555753;stroke-width:0px;stroke-miterlimit:10"
             id="path18" />
        </g>
        <path
           d="m 22.56,5.38 v 0 c -1.13,0.23 -2.32,0.61 -3.49,1.1 -7,2.99 -12.34,12.49 -11.93,20.92 0.02,0.42 0.06,0.83 0.1,1.24 0,0.08 0.02,0.16 0.03,0.24 0.05,0.4 0.1,0.77 0.17,1.15 0.02,0.07 0.03,0.13 0.04,0.2 0.08,0.34 0.15,0.68 0.24,1 0,0.06 0.03,0.11 0.05,0.17 0.03,0.1 0.06,0.21 0.09,0.31 0.3,0.41 0.96,1.17 2.26,2.11 2,1.44 6.22,4.89 7.55,3.89 -1.36,-1.58 -0.28,-6.14 2.09,-11.05 v 0 c 0.31,-2.25 0.79,-4.49 1.55,-6 1.33,-2.63 3.95,-5.03 5.68,-6.42 0.2,0.36 0.38,0.76 0.5,1.2 2.39,-2.38 4.93,-4.01 7.31,-4.17 C 30.99,8.98 26.92,6.99 22.56,5.38 Z"
           style="opacity:0.7;mix-blend-mode:multiply;fill:url(#linear-gradient-3);stroke-width:0.832002"
           id="path19" />
        <path
           d="m 22.56,5.38 v 0 c -1.13,0.23 -2.32,0.61 -3.49,1.1 -7,2.99 -12.34,12.49 -11.93,20.92 0.02,0.42 0.06,0.83 0.1,1.24 0,0.08 0.02,0.16 0.03,0.24 0.05,0.4 0.1,0.77 0.17,1.15 0.02,0.07 0.03,0.13 0.04,0.2 0.08,0.34 0.15,0.68 0.24,1 0,0.06 0.03,0.11 0.05,0.17 0.03,0.1 0.06,0.21 0.09,0.31 0.3,0.41 0.96,1.17 2.26,2.11 2,1.44 6.22,4.89 7.55,3.89 -1.36,-1.58 -0.28,-6.14 2.09,-11.05 v 0 c 0.31,-2.25 0.79,-4.49 1.55,-6 1.33,-2.63 3.95,-5.03 5.68,-6.42 0.2,0.36 0.38,0.76 0.5,1.2 2.39,-2.38 4.93,-4.01 7.31,-4.17 C 30.99,8.98 26.92,6.99 22.56,5.38 Z"
           style="opacity:0.24;fill:url(#linearGradient43);stroke-width:0.832002"
           id="path20" />
        <path
           d="m 22.56,5.38 v 0 c -1.13,0.23 -2.32,0.61 -3.49,1.1 -7,2.99 -12.34,12.49 -11.93,20.92 0.02,0.42 0.06,0.83 0.1,1.24 0,0.08 0.02,0.16 0.03,0.24 0.05,0.4 0.1,0.77 0.17,1.15 0.02,0.07 0.03,0.13 0.04,0.2 0.08,0.34 0.15,0.68 0.24,1 0,0.06 0.03,0.11 0.05,0.17 0.03,0.1 0.06,0.21 0.09,0.31 0.3,0.41 0.96,1.17 2.26,2.11 2,1.44 6.22,4.89 7.55,3.89 -1.36,-1.58 -0.28,-6.14 2.09,-11.05 v 0 c 0.31,-2.25 0.79,-4.49 1.55,-6 1.33,-2.63 3.95,-5.03 5.68,-6.42 0.2,0.36 0.38,0.76 0.5,1.2 2.39,-2.38 4.93,-4.01 7.31,-4.17 C 30.99,8.98 26.92,6.99 22.56,5.38 Z"
           style="opacity:0.24;fill:url(#linearGradient44);stroke-width:0.832002"
           id="path21" />
        <path
           d="m 20.52,31.2 c -0.41,0.22 -0.82,0.39 -1.21,0.51 0.15,-3.16 0.62,-8.31 2,-11.04 1.33,-2.63 3.95,-5.03 5.68,-6.42 0.57,1.01 0.9,2.33 0.9,3.93 0,5.08 -3.3,10.91 -7.36,13.02 z"
           style="fill:none;stroke-width:0.832002"
           id="path22" />
        <path
           d="m 28.48,14.25 c 0.47,1.14 0.71,2.45 0.71,3.93 0,5.74 -3.64,12.13 -8.29,14.55 -0.52,0.27 -1.02,0.48 -1.51,0.63 0,0 3.08,4.02 5.16,4.74 2.08,0.72 1.99,0.63 2.71,0.99 0.72,0.36 5.96,-2.98 7.86,-6.05 1.9,-3.07 4.61,-12.19 2.35,-16.52 -2.26,-4.33 -8.99,-2.26 -8.99,-2.26 z"
           style="fill:#2e3436;stroke-width:0.832002"
           id="path23" />
        <path
           d="m 28.48,14.25 c 0.47,1.14 0.71,2.45 0.71,3.93 0,5.74 -3.64,12.13 -8.29,14.55 -0.52,0.27 -1.02,0.48 -1.51,0.63 0,0 3.08,4.02 5.16,4.74 2.08,0.72 1.99,0.63 2.71,0.99 0.72,0.36 5.96,-2.98 7.86,-6.05 1.9,-3.07 4.61,-12.19 2.35,-16.52 -2.26,-4.33 -8.99,-2.26 -8.99,-2.26 z"
           style="opacity:0.7;mix-blend-mode:multiply;fill:url(#linear-gradient-5);stroke-width:0.832002"
           id="path24" />
        <path
           d="m 28.48,14.25 c 0.47,1.14 0.71,2.45 0.71,3.93 0,5.74 -3.64,12.13 -8.29,14.55 -0.52,0.27 -1.02,0.48 -1.51,0.63 0,0 3.08,4.02 5.16,4.74 2.08,0.72 1.99,0.63 2.71,0.99 0.72,0.36 5.96,-2.98 7.86,-6.05 1.9,-3.07 4.61,-12.19 2.35,-16.52 -2.26,-4.33 -8.99,-2.26 -8.99,-2.26 z"
           style="opacity:0.7;mix-blend-mode:multiply;fill:url(#linear-gradient-6);stroke-width:0.832002"
           id="path25" />
        <path
           d="m 20.8,33.19 c 1.28,2.04 3.64,2.62 6.33,1.21 4.06,-2.12 7.35,-7.95 7.35,-13.02 0,-3.68 -1.73,-5.95 -4.23,-6.12 0,0 3.51,-1.29 5.68,0.88 2.17,2.17 2.72,8.29 -0.27,13.99 -2.99,5.7 -5.86,8.22 -9.21,8.95 -3.35,0.73 -5.71,-2.39 -5.65,-5.89 z"
           style="fill:#555753;stroke-width:0.832002"
           id="path26" />
        <path
           d="m 20.8,33.19 c 1.28,2.04 3.64,2.62 6.33,1.21 4.06,-2.12 7.35,-7.95 7.35,-13.02 0,-3.68 -1.73,-5.95 -4.23,-6.12 0,0 3.51,-1.29 5.68,0.88 2.17,2.17 2.72,8.29 -0.27,13.99 -2.99,5.7 -5.86,8.22 -9.21,8.95 -3.35,0.73 -5.71,-2.39 -5.65,-5.89 z"
           style="opacity:0.7;mix-blend-mode:multiply;fill:url(#linear-gradient-7);stroke-width:0.832002"
           id="path27" />
        <path
           d="m 21.3,20.67 c 1.33,-2.63 3.95,-5.03 5.68,-6.42 0.57,1.01 0.9,2.33 0.9,3.93 0,5.08 -3.3,10.91 -7.36,13.02 -0.41,0.22 -0.82,0.39 -1.21,0.51 0.15,-3.16 0.62,-8.31 2,-11.04 z"
           style="fill:none;stroke:#232728;stroke-width:0.582402px;stroke-miterlimit:10"
           id="path28" />
        <g
           id="g37"
           style="stroke-width:0.832002">
          <path
             d="m 28.66,11 c -6.76,3.52 -12.23,13.21 -12.23,21.66 0,8.45 5.47,12.43 12.23,8.91 C 35.42,38.05 40.89,28.35 40.89,19.91 40.89,11.47 35.42,7.48 28.66,11 Z m 0,24.47 c -4.06,2.12 -7.35,-0.28 -7.35,-5.35 0,-5.07 3.29,-10.91 7.35,-13.02 4.06,-2.12 7.35,0.28 7.35,5.35 0,5.07 -3.29,10.91 -7.35,13.02 z"
             style="fill:#878984;stroke-width:0.832002"
             id="path29" />
          <path
             d="m 28.66,11 c -6.76,3.52 -12.23,13.21 -12.23,21.66 0,8.45 5.47,12.43 12.23,8.91 C 35.42,38.05 40.89,28.35 40.89,19.91 40.89,11.47 35.42,7.48 28.66,11 Z m 0,24.47 c -4.06,2.12 -7.35,-0.28 -7.35,-5.35 0,-5.07 3.29,-10.91 7.35,-13.02 4.06,-2.12 7.35,0.28 7.35,5.35 0,5.07 -3.29,10.91 -7.35,13.02 z"
             style="opacity:0.7;mix-blend-mode:multiply;fill:url(#linear-gradient-8);stroke-width:0.832002"
             id="path30" />
          <path
             d="m 37.18,12.46 c 0,0 -6.93,-0.7 -14.3,9.04 -2.84,3.76 -2.76,12.25 -2.56,16.12 0.07,1.26 0.42,2.49 1.03,3.6 v 0 c 0,0 -2.04,-0.15 -3.23,-2.18 -0.73,-1.24 -1.49,-4.09 -1.65,-7.55 0.46,-8.15 5.75,-17.14 12.19,-20.5 1.99,-1.04 3.86,-1.41 5.51,-1.23 h 0.03 c 0.38,0.09 0.7,0.21 0.97,0.31 2.02,0.8 2.01,2.38 2.01,2.38 z"
             style="opacity:0.65;fill:url(#linear-gradient-9);stroke-width:0.832002"
             id="path31" />
          <path
             d="m 29.97,13 c -6.3,3.28 -11.4,12.32 -11.4,20.19 0,7.87 4.25,11.14 10.56,7.86 6.29,-3.28 11.4,-12.32 11.4,-20.18 0,-7.86 -4.25,-11.15 -10.56,-7.86 z m -1.31,22.47 c -4.06,2.12 -7.35,-0.28 -7.35,-5.35 0,-5.07 3.29,-10.91 7.35,-13.02 4.06,-2.12 7.35,0.28 7.35,5.35 0,5.07 -3.29,10.91 -7.35,13.02 z"
             style="fill:#555753;stroke-width:0.832002"
             id="path32" />
          <path
             d="m 29.97,13 c -6.3,3.28 -11.4,12.32 -11.4,20.19 0,7.87 4.25,11.14 10.56,7.86 6.29,-3.28 11.4,-12.32 11.4,-20.18 0,-7.86 -4.25,-11.15 -10.56,-7.86 z m -1.31,22.47 c -4.06,2.12 -7.35,-0.28 -7.35,-5.35 0,-5.07 3.29,-10.91 7.35,-13.02 4.06,-2.12 7.35,0.28 7.35,5.35 0,5.07 -3.29,10.91 -7.35,13.02 z"
             style="opacity:0.7;mix-blend-mode:multiply;fill:url(#linear-gradient-10);stroke-width:0.832002"
             id="path33" />
          <path
             d="m 18.56,33.19 c 0,0 0.17,7.15 5.62,7.97 5.45,0.82 9.08,-3.51 9.08,-3.51 0,0 -2.88,4.49 -8.38,4.78 -5.5,0.29 -6.44,-5.57 -6.31,-9.24 z"
             style="opacity:0.7;mix-blend-mode:multiply;fill:url(#linear-gradient-11);stroke-width:0.832002"
             id="path34" />
          <path
             d="M 37.63,11.21 C 35.09,9.09 30.24,6.4 27.13,5.54 27.04,5.52 27,5.5 26.92,5.48 24.81,4.72 21.9,5.29 19.08,6.49 12.07,9.48 6.74,18.99 7.15,27.42 c 0.02,0.42 0.06,0.83 0.1,1.24 0,0.08 0.02,0.16 0.03,0.25 0.05,0.4 0.1,0.77 0.17,1.15 0.02,0.06 0.03,0.13 0.04,0.19 0.07,0.34 0.15,0.68 0.23,1.01 0,0.05 0.03,0.11 0.04,0.16 0.09,0.35 0.2,0.69 0.32,1.02 0.03,0.07 0.05,0.14 0.08,0.22 0.12,0.33 0.25,0.65 0.4,0.96 0,0.02 0,0.03 0.02,0.04 0.14,0.29 0.29,0.58 0.45,0.84 0.03,0.06 0.07,0.11 0.1,0.17 0.15,0.27 0.33,0.52 0.51,0.76 l 0.1,0.13 c 0.17,0.22 0.34,0.42 0.53,0.61 0.03,0.02 0.04,0.04 0.06,0.06 0,0.02 0.03,0.03 0.06,0.06 0.21,0.21 0.83,0.8 1.47,1.3 1.43,1.08 3.57,2.28 5.65,3.25 1.71,0.81 3.39,1.45 4.57,1.76 0.59,0.17 1.23,0.26 1.89,0.26 1.45,0 3.03,-0.41 4.7,-1.28 6.76,-3.52 12.23,-13.22 12.23,-21.66 0,-4.03 -1.22,-7.03 -3.26,-8.7 z"
             style="fill:none;stroke:#232728;stroke-width:0.582402px;stroke-miterlimit:10"
             id="path35" />
          <path
             d="m 29.13,15.27 c -5.06,2.69 -9.2,9.94 -9.2,16.29 0,6.35 4.22,8.48 9.27,5.95 4.46,-2.23 8.89,-9.38 8.65,-16.02 -0.21,-5.97 -4.09,-8.68 -8.72,-6.22 z M 28.65,35.48 C 24.59,37.6 21.3,35.2 21.3,30.13 c 0,-5.07 3.29,-10.91 7.35,-13.02 4.06,-2.12 7.35,0.28 7.35,5.35 0,5.07 -3.29,10.91 -7.35,13.02 z"
             style="fill:url(#linear-gradient-12);stroke-width:0.832002"
             id="path36" />
          <path
             d="m 29.13,15.27 c -5.06,2.69 -9.2,9.94 -9.2,16.29 0,6.35 4.22,8.48 9.27,5.95 4.46,-2.23 8.89,-9.38 8.65,-16.02 -0.21,-5.97 -4.09,-8.68 -8.72,-6.22 z M 28.65,35.48 C 24.59,37.6 21.3,35.2 21.3,30.13 c 0,-5.07 3.29,-10.91 7.35,-13.02 4.06,-2.12 7.35,0.28 7.35,5.35 0,5.07 -3.29,10.91 -7.35,13.02 z"
             style="opacity:0.7;mix-blend-mode:multiply;fill:url(#linear-gradient-13);stroke-width:0.832002"
             id="path37" />
        </g>
      </g>
      <g
         id="g40"
         style="stroke-width:0.832002">
        <path
           d="M 34.39,8.94 C 32.2,7.76 28.87,8.04 25.86,9.61 18.88,13.3 13.7,22.63 13.79,31.11 c 0.02,1.95 0.26,3.81 0.83,5.39 0.82,2.26 2.22,3.98 3.85,4.77"
           style="fill:none;stroke:#232728;stroke-width:0.582402px;stroke-miterlimit:10"
           id="path38" />
        <path
           d="m 31.55,7.36 c -2.17,-0.83 -5.49,-0.25 -8.18,1.18 -7.2,3.85 -12.06,12.82 -11.91,21.35 0.09,5.07 1.76,8.55 4.24,10.07"
           style="fill:none;stroke:#232728;stroke-width:0.582402px;stroke-miterlimit:10"
           id="path39" />
        <path
           d="m 28.55,6.01 c -2.16,-0.48 -5.29,0.16 -7.67,1.44 -7.42,4.02 -12,12.63 -11.75,21.19 0.15,5.24 1.8,8.15 3.99,9.83"
           style="fill:none;stroke:#232728;stroke-width:0.582402px;stroke-miterlimit:10"
           id="path40" />
      </g>
      <path
         d="m 28.65,17.09 c -4.06,2.12 -7.35,7.95 -7.35,13.03 0,5.08 3.29,7.47 7.35,5.35 4.06,-2.12 7.36,-7.94 7.36,-13.02 0,-5.08 -3.3,-7.47 -7.36,-5.36 z m 0,0 c -4.06,2.12 -7.35,7.95 -7.35,13.03 0,5.08 3.29,7.47 7.35,5.35 4.06,-2.12 7.36,-7.94 7.36,-13.02 0,-5.08 -3.3,-7.47 -7.36,-5.36 z"
         style="opacity:0.7;mix-blend-mode:multiply;fill:url(#linear-gradient-14);stroke-width:0.832002"
         id="path41" />
      <ellipse
         cx="28.66"
         cy="26.29"
         rx="10.61"
         ry="6.37"
         transform="rotate(-64.3,28.6558,26.2896)"
         style="fill:none;stroke:#232728;stroke-width:0.582402px;stroke-miterlimit:10"
         id="ellipse41" />
    </g>
  </g>
</svg>
