<?xml version="1.0" encoding="UTF-8" standalone="no"?>
<svg
   viewBox="0 0 48 48"
   version="1.1"
   id="svg85"
   sodipodi:docname="mpm_snow_footprints.svg"
   inkscape:version="1.3.2 (091e20e, 2023-11-25, custom)"
   xmlns:inkscape="http://www.inkscape.org/namespaces/inkscape"
   xmlns:sodipodi="http://sodipodi.sourceforge.net/DTD/sodipodi-0.dtd"
   xmlns:xlink="http://www.w3.org/1999/xlink"
   xmlns="http://www.w3.org/2000/svg"
   xmlns:svg="http://www.w3.org/2000/svg">
  <sodipodi:namedview
     id="namedview85"
     pagecolor="#ffffff"
     bordercolor="#666666"
     borderopacity="1.0"
     inkscape:showpageshadow="2"
     inkscape:pageopacity="0.0"
     inkscape:pagecheckerboard="0"
     inkscape:deskcolor="#d1d1d1"
     inkscape:zoom="11.5208"
     inkscape:cx="24.0434"
     inkscape:cy="24.0434"
     inkscape:current-layer="svg85" />
  <defs
     id="defs18">
    <radialGradient
       id="radial-gradient"
       cx="-168.69"
       cy="-45.81"
       fx="-168.69"
       fy="-45.81"
       r="9.42"
       gradientTransform="matrix(2.52775,0.249184,-0.346885,1.79463,433.9,152.19)"
       gradientUnits="userSpaceOnUse">
      <stop
         offset=".66"
         stop-color="#2c2c2c"
         stop-opacity=".5"
         id="stop1" />
      <stop
         offset=".99"
         stop-color="#2c2c2c"
         stop-opacity="0"
         id="stop2" />
    </radialGradient>
    <linearGradient
       id="linear-gradient"
       x1="17.68"
       y1="19.37"
       x2="49.06"
       y2="43.82"
       gradientTransform="matrix(1, 0, 0, 1, 0, 0)"
       gradientUnits="userSpaceOnUse">
      <stop
         offset="0"
         stop-color="#ceddee"
         id="stop3" />
      <stop
         offset=".99"
         stop-color="#729ece"
         id="stop4" />
    </linearGradient>
    <linearGradient
       id="linear-gradient-2"
       x1="39.28"
       y1="16.56"
       x2="43.27"
       y2="16.56"
       gradientTransform="matrix(1, 0, 0, 1, 0, 0)"
       gradientUnits="userSpaceOnUse">
      <stop
         offset="0"
         stop-color="#729ece"
         id="stop5" />
      <stop
         offset=".99"
         stop-color="#204a86"
         id="stop6" />
    </linearGradient>
    <linearGradient
       id="linear-gradient-3"
       x1="35.34"
       y1="26.69"
       x2="40.46"
       y2="26.69"
       xlink:href="#linear-gradient-2" />
    <linearGradient
       id="linear-gradient-4"
       x1="21.94"
       y1="34.29"
       x2="24.47"
       y2="41.72"
       xlink:href="#linear-gradient-2" />
    <linearGradient
       id="linear-gradient-5"
       x1="16.26"
       y1="36.21"
       x2="34.27"
       y2="36.21"
       xlink:href="#linear-gradient-2" />
    <linearGradient
       id="linear-gradient-6"
       x1="4.38"
       y1="23.93"
       x2="43.57"
       y2="23.93"
       gradientUnits="userSpaceOnUse">
      <stop
         offset="0"
         stop-color="#729ece"
         id="stop7" />
      <stop
         offset="1"
         stop-color="#436ea5"
         id="stop8" />
    </linearGradient>
    <linearGradient
       id="linear-gradient-7"
       x1="32.31"
       y1="34.11"
       x2="17.66"
       y2="14.7"
       gradientTransform="matrix(1, 0, 0, 1, 0, 0)"
       gradientUnits="userSpaceOnUse">
      <stop
         offset="0"
         stop-color="#fff"
         stop-opacity="0"
         id="stop9" />
      <stop
         offset="1"
         stop-color="#fff7f7"
         id="stop10" />
    </linearGradient>
    <linearGradient
       id="linear-gradient-8"
       x1="30.95"
       y1="11.33"
       x2="33.2"
       y2="18.72"
       xlink:href="#linear-gradient" />
    <linearGradient
       id="linear-gradient-9"
       x1="25.7"
       y1="19.34"
       x2="42.38"
       y2="35.1"
       gradientTransform="translate(-1.03 1.28) rotate(-2.78)"
       gradientUnits="userSpaceOnUse">
      <stop
         offset="0"
         stop-color="#ceddee"
         id="stop11" />
      <stop
         offset=".69"
         stop-color="#729ece"
         id="stop12" />
    </linearGradient>
    <linearGradient
       id="linear-gradient-10"
       x1="14.53"
       y1="34.54"
       x2="11.12"
       y2="34"
       xlink:href="#linear-gradient-9" />
    <linearGradient
       id="linear-gradient-11"
       x1="12.15"
       y1="34.9"
       x2="13.6"
       y2="35.94"
       gradientTransform="matrix(1, 0, 0, 1, 0, 0)"
       gradientUnits="userSpaceOnUse">
      <stop
         offset="0"
         stop-color="#729ece"
         id="stop13" />
      <stop
         offset="1"
         stop-color="#fff7f7"
         id="stop14" />
    </linearGradient>
    <linearGradient
       id="linear-gradient-12"
       x1="13.07"
       y1="35.53"
       x2="11.65"
       y2="34.39"
       xlink:href="#linear-gradient-2" />
    <linearGradient
       id="linear-gradient-13"
       x1="14.42"
       y1="32"
       x2="16.01"
       y2="32"
       xlink:href="#linear-gradient-11" />
    <linearGradient
       id="linear-gradient-14"
       x1="15.06"
       y1="31.86"
       x2="12.81"
       y2="31.45"
       xlink:href="#linear-gradient-2" />
    <linearGradient
       id="linear-gradient-15"
       x1="13.91"
       y1="31.03"
       x2="12.58"
       y2="31.53"
       gradientTransform="matrix(1, 0, 0, 1, 0, 0)"
       gradientUnits="userSpaceOnUse">
      <stop
         offset="0"
         stop-color="#204a86"
         id="stop15" />
      <stop
         offset="1"
         stop-color="#0f274b"
         id="stop16" />
    </linearGradient>
    <linearGradient
       id="linear-gradient-16"
       x1="10"
       y1="34.24"
       x2="11.42"
       y2="34.24"
       xlink:href="#linear-gradient-15" />
    <linearGradient
       id="linear-gradient-17"
       x1="14.13"
       y1="27.87"
       x2="11.24"
       y2="26.58"
       xlink:href="#linear-gradient-9" />
    <linearGradient
       id="linear-gradient-18"
       x1="11.61"
       y1="28.13"
       x2="13.84"
       y2="28.13"
       xlink:href="#linear-gradient-11" />
    <linearGradient
       id="linear-gradient-19"
       x1="13.88"
       y1="29.05"
       x2="11.49"
       y2="27.34"
       xlink:href="#linear-gradient-2" />
    <linearGradient
       id="linear-gradient-20"
       x1="14.48"
       y1="25.99"
       x2="15.95"
       y2="25.99"
       xlink:href="#linear-gradient-11" />
    <linearGradient
       id="linear-gradient-21"
       x1="15.66"
       y1="26.55"
       x2="13.27"
       y2="24.84"
       xlink:href="#linear-gradient-2" />
    <linearGradient
       id="linear-gradient-22"
       x1="12.09"
       y1="25.16"
       x2="14.24"
       y2="25.16"
       xlink:href="#linear-gradient-15" />
    <linearGradient
       id="linear-gradient-23"
       x1="10.86"
       y1="27.55"
       x2="11.86"
       y2="27.55"
       xlink:href="#linear-gradient-15" />
    <linearGradient
       id="linear-gradient-24"
       x1="21.38"
       y1="19.14"
       x2="23.81"
       y2="19.14"
       xlink:href="#linear-gradient-11" />
    <linearGradient
       id="linear-gradient-25"
       x1="23.34"
       y1="18.82"
       x2="21.79"
       y2="16.81"
       xlink:href="#linear-gradient-9" />
    <linearGradient
       id="linear-gradient-26"
       x1="23.49"
       y1="20.07"
       x2="21.71"
       y2="18.26"
       xlink:href="#linear-gradient-2" />
    <linearGradient
       id="linear-gradient-27"
       x1="24.59"
       y1="17.8"
       x2="26.36"
       y2="17.8"
       xlink:href="#linear-gradient-11" />
    <linearGradient
       id="linear-gradient-28"
       x1="25.53"
       y1="18.04"
       x2="23.75"
       y2="16.23"
       xlink:href="#linear-gradient-2" />
    <linearGradient
       id="linear-gradient-29"
       x1="22.53"
       y1="16.61"
       x2="24.96"
       y2="16.61"
       xlink:href="#linear-gradient-15" />
    <linearGradient
       id="linear-gradient-30"
       x1="20.8"
       y1="18.23"
       x2="22.08"
       y2="18.23"
       xlink:href="#linear-gradient-15" />
    <linearGradient
       id="linear-gradient-31"
       x1="31.13"
       y1="17.92"
       x2="31.48"
       y2="15.83"
       xlink:href="#linear-gradient-9" />
    <linearGradient
       id="linear-gradient-32"
       x1="29.25"
       y1="18.5"
       x2="31.69"
       y2="18.5"
       xlink:href="#linear-gradient-11" />
    <linearGradient
       id="linear-gradient-33"
       x1="31.2"
       y1="19.4"
       x2="29.45"
       y2="17.23"
       xlink:href="#linear-gradient-2" />
    <linearGradient
       id="linear-gradient-34"
       x1="32.53"
       y1="16.64"
       x2="34.6"
       y2="16.64"
       xlink:href="#linear-gradient-11" />
    <linearGradient
       id="linear-gradient-35"
       x1="33.79"
       y1="17.3"
       x2="32.04"
       y2="15.14"
       xlink:href="#linear-gradient-2" />
    <linearGradient
       id="linear-gradient-36"
       x1="30.97"
       y1="15.73"
       x2="32.96"
       y2="15.73"
       xlink:href="#linear-gradient-15" />
    <linearGradient
       id="linear-gradient-37"
       x1="28.83"
       y1="17.46"
       x2="30.54"
       y2="17.46"
       xlink:href="#linear-gradient-15" />
    <linearGradient
       id="linear-gradient-38"
       x1="30.83"
       y1="13.23"
       x2="33.25"
       y2="13.23"
       xlink:href="#linear-gradient-11" />
    <linearGradient
       id="linear-gradient-39"
       x1="32.07"
       y1="12.84"
       x2="32.84"
       y2="11"
       xlink:href="#linear-gradient-9" />
    <linearGradient
       id="linear-gradient-40"
       x1="31.93"
       y1="13.58"
       x2="31.35"
       y2="12.18"
       xlink:href="#linear-gradient-2" />
    <linearGradient
       id="linear-gradient-41"
       x1="34.01"
       y1="12.2"
       x2="35.76"
       y2="12.2"
       xlink:href="#linear-gradient-11" />
    <linearGradient
       id="linear-gradient-42"
       x1="34.29"
       y1="12.6"
       x2="33.7"
       y2="11.2"
       xlink:href="#linear-gradient-2" />
    <linearGradient
       id="linear-gradient-43"
       x1="31.93"
       y1="11.2"
       x2="34.34"
       y2="11.2"
       xlink:href="#linear-gradient-15" />
    <linearGradient
       id="linear-gradient-44"
       x1="30.24"
       y1="12.46"
       x2="31.5"
       y2="12.46"
       xlink:href="#linear-gradient-15" />
    <linearGradient
       id="linear-gradient-45"
       x1="27"
       y1="25.8"
       x2="29.41"
       y2="30.09"
       gradientUnits="userSpaceOnUse">
      <stop
         offset="0"
         stop-color="#729ece"
         stop-opacity=".47"
         id="stop17" />
      <stop
         offset=".99"
         stop-color="#204a86"
         id="stop18" />
    </linearGradient>
    <linearGradient
       id="linear-gradient-46"
       x1="21.95"
       y1="25.39"
       x2="19.14"
       y2="22.18"
       xlink:href="#linear-gradient-9" />
    <linearGradient
       id="linear-gradient-47"
       x1="19.66"
       y1="25.69"
       x2="22.11"
       y2="25.69"
       xlink:href="#linear-gradient-11" />
    <linearGradient
       id="linear-gradient-48"
       x1="21.94"
       y1="26.24"
       x2="20.12"
       y2="24.61"
       xlink:href="#linear-gradient-2" />
    <linearGradient
       id="linear-gradient-49"
       x1="22.97"
       y1="23.31"
       x2="25.09"
       y2="23.31"
       xlink:href="#linear-gradient-11" />
    <linearGradient
       id="linear-gradient-50"
       x1="24.32"
       y1="23.6"
       x2="22.51"
       y2="21.96"
       xlink:href="#linear-gradient-2" />
    <linearGradient
       id="linear-gradient-51"
       x1="21.45"
       y1="22.23"
       x2="23.47"
       y2="22.23"
       xlink:href="#linear-gradient-15" />
    <linearGradient
       id="linear-gradient-52"
       x1="19.26"
       y1="24.43"
       x2="20.99"
       y2="24.43"
       xlink:href="#linear-gradient-15" />
    <linearGradient
       id="linear-gradient-53"
       x1="23.52"
       y1="14.27"
       x2="25.83"
       y2="16.8"
       xlink:href="#linear-gradient" />
    <linearGradient
       id="linear-gradient-54"
       x1="35.04"
       y1="21.83"
       x2="39.73"
       y2="28.55"
       xlink:href="#linear-gradient-2" />
    <linearGradient
       id="linear-gradient-55"
       x1="27.73"
       y1="31.67"
       x2="30.91"
       y2="34.78"
       xlink:href="#linear-gradient-2" />
    <linearGradient
       id="linear-gradient-56"
       x1="11.92"
       y1="29.93"
       x2="10.95"
       y2="28.65"
       xlink:href="#linear-gradient" />
    <linearGradient
       id="linear-gradient-57"
       x1="19.14"
       y1="25.73"
       x2="18.8"
       y2="27.86"
       xlink:href="#linear-gradient-9" />
    <linearGradient
       id="linear-gradient-58"
       x1="5.65"
       y1="31.42"
       x2="3.5"
       y2="37.74"
       xlink:href="#linear-gradient-2" />
    <linearGradient
       id="linear-gradient-59"
       x1="7.24"
       y1="32.09"
       x2="4.33"
       y2="39.19"
       xlink:href="#linear-gradient-2" />
    <linearGradient
       id="linear-gradient-60"
       x1="7.74"
       y1="57.28"
       x2="9.81"
       y2="59.56"
       gradientTransform="rotate(-2.87,-369.213,21.1085)"
       xlink:href="#linear-gradient" />
    <linearGradient
       id="linear-gradient-61"
       x1="8.86"
       y1="58.98"
       x2="7.72"
       y2="56.87"
       gradientTransform="rotate(-2.87,-369.213,21.1085)"
       xlink:href="#linear-gradient-7" />
    <linearGradient
       id="linear-gradient-62"
       x1="9.48"
       y1="59.42"
       x2="10.09"
       y2="61.6"
       gradientTransform="rotate(-2.87,-369.213,21.1085)"
       xlink:href="#linear-gradient" />
    <linearGradient
       id="linear-gradient-63"
       x1="9.77"
       y1="60.23"
       x2="9.44"
       y2="59.5"
       gradientTransform="rotate(-2.87,-369.213,21.1085)"
       xlink:href="#linear-gradient-7" />
    <linearGradient
       id="linear-gradient-64"
       x1="-.37"
       y1="-72.03"
       x2=".32"
       y2="-69.56"
       gradientTransform="matrix(0.947601,0.319456,-0.308909,0.993368,-14.19,111.72)"
       xlink:href="#linear-gradient" />
    <linearGradient
       id="linear-gradient-65"
       x1="7.78"
       y1="40.56"
       x2="7.48"
       y2="39.77"
       xlink:href="#linear-gradient-7" />
    <linearGradient
       inkscape:collect="always"
       xlink:href="#linear-gradient"
       id="linearGradient85"
       gradientUnits="userSpaceOnUse"
       x1="17.68"
       y1="19.37"
       x2="49.06"
       y2="43.82" />
    <linearGradient
       inkscape:collect="always"
       xlink:href="#linear-gradient-2"
       id="linearGradient86"
       gradientUnits="userSpaceOnUse"
       x1="39.28"
       y1="16.56"
       x2="43.27"
       y2="16.56" />
    <linearGradient
       inkscape:collect="always"
       xlink:href="#linear-gradient-7"
       id="linearGradient87"
       gradientUnits="userSpaceOnUse"
       x1="32.31"
       y1="34.11"
       x2="17.66"
       y2="14.7" />
    <linearGradient
       inkscape:collect="always"
       xlink:href="#linear-gradient-9"
       id="linearGradient88"
       gradientUnits="userSpaceOnUse"
       gradientTransform="rotate(-2.78,25.8606,21.8641)"
       x1="25.7"
       y1="19.34"
       x2="42.38"
       y2="35.1" />
    <linearGradient
       inkscape:collect="always"
       xlink:href="#linear-gradient-11"
       id="linearGradient89"
       gradientUnits="userSpaceOnUse"
       x1="12.15"
       y1="34.9"
       x2="13.6"
       y2="35.94" />
    <linearGradient
       inkscape:collect="always"
       xlink:href="#linear-gradient-15"
       id="linearGradient90"
       gradientUnits="userSpaceOnUse"
       x1="13.91"
       y1="31.03"
       x2="12.58"
       y2="31.53" />
  </defs>
  <g
     id="shadow"
     style="opacity:0.45;isolation:isolate;mix-blend-mode:multiply;stroke-width:0.921101"
     transform="matrix(1.05565,0,0,1.11652,-1.00347,-2.28566)">
    <ellipse
       cx="23.49"
       cy="27.81"
       rx="23.09"
       ry="16.49"
       transform="rotate(-16.73,23.4939,27.8066)"
       style="fill:url(#radial-gradient);stroke-width:0.921101"
       id="ellipse18" />
  </g>
  <g
     id="ART"
     style="isolation:isolate;stroke-width:0.822708"
     transform="matrix(1.21523,0,0,1.21576,-5.24894,-7.84603)">
    <g
       id="g84"
       style="stroke-width:0.822708">
      <g
         id="g77"
         style="stroke-width:0.822708">
        <path
           d="M 43,12.45 C 42.91,11.96 42.88,11.46 42.38,11.23 42.16,11.13 41.92,11.09 41.69,11.02 41.02,10.83 40.41,10.46 39.77,10.18 39.3,9.97 38.76,9.76 38.24,9.77 37.38,9.8 36.54,9.65 35.67,9.78 c -0.4,0.06 -0.8,0.16 -1.2,0.24 -1.01,0.19 -2.03,0.26 -3.06,0.2 -0.14,0 -0.52,-0.37 -0.73,-0.42 C 30.41,9.73 30.21,9.72 29.95,9.61 28.76,9.13 27.95,8.9 26.71,9.36 26.58,9.41 26.45,9.45 26.32,9.46 26.1,9.48 25.88,9.42 25.66,9.38 25.29,9.3 24.91,9.25 24.54,9.24 23.08,9.2 22,9.97 21,10.99 c -0.3,0.31 -0.61,0.62 -0.84,0.99 -0.41,0.63 -0.45,1.33 -0.74,1.98 -0.26,0.58 -0.95,1.14 -1.46,1.5 -0.94,0.68 -2.25,0.8 -3,1.75 -0.3,0.37 -0.47,0.85 -0.85,1.15 -0.48,0.37 -1.16,0.34 -1.75,0.49 -0.83,0.21 -1.24,0.81 -1.89,1.29 -0.71,0.52 -1.5,0.97 -2.23,1.49 -0.51,0.37 -1.03,0.74 -1.44,1.23 -0.22,0.27 -0.41,0.58 -0.58,0.89 -0.24,0.44 -0.45,0.91 -0.56,1.4 -0.26,1.1 0.01,2.2 0.61,3.14 0.52,0.81 0.7,1.94 -0.05,2.69 -0.11,0.11 -0.23,0.19 -0.34,0.3 -0.18,0.18 -0.31,0.4 -0.4,0.64 -0.12,0.31 -0.19,0.63 -0.25,0.96 -0.13,0.65 -0.42,1.29 -0.48,1.94 -0.12,1.32 0.7,2.6 1.81,3.26 0.53,0.32 1.04,0.61 1.66,0.6 0.85,-0.01 1.71,-0.13 2.55,-0.29 0.85,-0.17 1.7,-0.49 2.56,-0.53 0.48,-0.02 0.93,0.16 1.37,0.35 0.98,0.41 1.64,0.82 2.7,0.33 0.53,-0.25 1.01,-0.6 1.55,-0.83 2.43,-1.05 5.43,0.54 7.83,-0.59 0.47,-0.22 0.9,-0.55 1.38,-0.75 0.48,-0.2 0.98,-0.2 1.52,-0.22 1.98,-0.05 3.67,-1.4 4.93,-2.82 0.45,-0.51 0.87,-1.18 0.94,-1.87 0.07,-0.69 -0.36,-1.34 -0.13,-2.04 0.09,-0.26 0.3,-0.46 0.52,-0.62 0.64,-0.45 1.43,-0.63 2.18,-0.85 0.75,-0.22 1.52,-0.52 2.02,-1.13 0.63,-0.78 0.35,-1.44 -0.02,-2.21 -0.43,-0.9 -0.16,-1.22 0.65,-1.96 0.61,-0.56 1.29,-1.02 1.9,-1.58 0.2,-0.18 0.4,-0.39 0.49,-0.64 0.07,-0.2 0.07,-0.43 0.07,-0.65 0,-0.44 -0.03,-0.89 -0.22,-1.29 -0.49,-1.04 -0.9,-1.32 -0.44,-2.46 0.4,-1.02 0.67,-2.39 0.44,-3.58 z"
           style="fill:url(#linearGradient85);stroke-width:0.822708"
           id="path18" />
        <path
           d="m 41.57,20.96 c 0.1,-0.08 0.22,-0.16 0.27,-0.28 0.04,-0.09 0.03,-0.19 0.03,-0.29 l -0.04,-1.12 c 0,-0.09 0,-0.19 0.04,-0.26 0.03,-0.05 0.09,-0.09 0.13,-0.14 0.24,-0.26 0.08,-0.69 -0.16,-0.96 -0.24,-0.27 -0.55,-0.5 -0.64,-0.84 -0.06,-0.25 0.02,-0.52 0.12,-0.76 0.17,-0.41 0.4,-0.8 0.67,-1.16 0.07,-0.09 0.15,-0.19 0.18,-0.3 0.02,-0.08 0.01,-0.15 0,-0.23 -0.03,-0.68 0.19,-1.4 -0.07,-2.02 -0.15,-0.36 -0.45,-0.64 -0.74,-0.9 -0.13,-0.12 -0.27,-0.25 -0.43,-0.33 -0.5,-0.25 -1.11,-0.02 -1.67,-0.06 0.31,-0.22 0.64,-0.41 0.99,-0.57 0.51,0.15 1.04,0.24 1.57,0.29 0.26,0.02 0.53,0.03 0.75,0.18 0.18,0.12 0.28,0.32 0.37,0.52 0.54,1.3 0.22,2.79 -0.27,4.11 -0.17,0.46 -0.36,0.94 -0.27,1.43 0.04,0.21 0.13,0.4 0.22,0.59 0.22,0.46 0.45,0.92 0.57,1.41 0.12,0.49 0.11,1.04 -0.13,1.49 -0.11,0.2 -0.25,0.37 -0.41,0.54 -0.38,0.41 -1.3,1.28 -1.94,1.07 -0.61,-0.19 0.61,-1.21 0.86,-1.4 z"
           style="opacity:0.52;fill:url(#linearGradient86);stroke-width:0.822708"
           id="path19" />
        <path
           d="m 35.34,29.28 c 0.28,-0.65 0.62,-1.33 1.23,-1.7 0.27,-0.16 0.57,-0.26 0.85,-0.4 0.7,-0.36 1.22,-1.04 1.38,-1.81 0.12,-0.04 0.21,0.1 0.25,0.22 0.04,0.12 0.08,0.27 0.21,0.28 0.14,0.02 0.23,-0.15 0.26,-0.29 0.13,-0.49 0.21,-0.99 0.26,-1.5 0.39,0.34 0.51,0.88 0.61,1.39 0.06,0.3 0.12,0.6 0.05,0.9 -0.12,0.48 -0.54,0.82 -0.96,1.08 -1.15,0.72 -2.44,1.2 -3.78,1.4 l -0.35,0.43 z"
           style="opacity:0.52;fill:url(#linear-gradient-3);stroke-width:0.822708"
           id="path20" />
        <path
           d="m 35.39,29.54 c -0.22,0.69 0.21,1.34 0.14,2.03 -0.07,0.69 -0.5,1.37 -0.94,1.87 -1.26,1.42 -2.96,2.76 -4.94,2.81 -0.54,0.02 -1.02,0 -1.51,0.22 -0.49,0.2 -0.91,0.53 -1.38,0.76 -2.4,1.14 -5.4,-0.46 -7.83,0.59 -0.54,0.23 -1.02,0.58 -1.56,0.83 -1.06,0.49 -1.72,0.08 -2.69,-0.33 -0.44,-0.18 -0.9,-0.37 -1.37,-0.34 -0.87,0.04 -1.72,0.36 -2.57,0.53 -0.42,0.08 -0.86,0.16 -1.3,0.2 C 8.8,38.57 8.16,38.42 7.52,38.29 7.96,38.35 8.43,38.25 8.82,38.03 8.38,37.65 7.9,37.33 7.38,37.05 c 0.45,0.04 0.9,0.06 1.36,0.1 -0.44,-0.18 -0.83,-0.5 -1.11,-0.9 0.31,0.38 0.89,0.38 1.37,0.37 0.39,0 0.7,-0.07 1.06,0.11 0.32,0.16 0.66,0.29 1.01,0.38 0.11,0.03 0.22,0.05 0.33,0.05 0.16,0 0.32,-0.06 0.48,-0.11 1.22,-0.38 2.67,0.41 3.81,0.82 0.1,0.04 0.21,0.08 0.31,0.06 0.08,0 0.14,-0.06 0.2,-0.11 0.46,-0.39 0.78,-0.94 1.26,-1.31 1,-0.77 2.4,-0.56 3.64,-0.39 1.25,0.17 2.71,0.19 3.53,-0.77 0.2,-0.25 0.36,-0.54 0.64,-0.72 0.62,-0.41 1.41,0.06 2.14,0.22 0.88,0.21 1.81,-0.05 2.59,-0.5 0.78,-0.46 1.42,-1.11 2.05,-1.75 0.13,-0.13 0.26,-0.27 0.3,-0.45 0.15,0.41 0.2,0.84 0.18,1.26 0.41,-0.77 0.74,-1.57 1.01,-2.4 -0.11,0.57 -0.06,1.18 0.15,1.73 0.41,-0.6 0.4,-1.38 0.62,-2.07 0.26,-0.79 0.88,-1.44 1.63,-1.77 -0.22,0.16 -0.43,0.36 -0.53,0.62 z"
           style="opacity:0.52;fill:url(#linear-gradient-4);stroke-width:0.822708"
           id="path21" />
        <path
           d="m 34.27,33.67 c -1.23,1.27 -2.8,2.4 -4.6,2.45 -0.54,0.02 -1.02,0 -1.51,0.22 -0.49,0.2 -0.91,0.53 -1.38,0.76 -2.4,1.14 -5.4,-0.46 -7.83,0.59 -0.54,0.23 -1.02,0.58 -1.56,0.83 -0.42,0.19 -0.79,0.25 -1.14,0.21 0.14,-0.09 0.26,-0.21 0.36,-0.33 0.31,-0.35 0.55,-0.78 0.95,-1.03 0.39,-0.24 0.86,-0.28 1.3,-0.3 0.89,-0.04 1.78,-0.05 2.67,-0.03 0.49,0 0.99,0.04 1.48,-0.05 0.85,-0.14 1.66,-0.59 2.52,-0.51 -0.09,-0.23 -0.19,-0.47 -0.29,-0.7 0.44,0.41 1.14,0.31 1.73,0.19 0.7,-0.15 1.41,-0.29 2.03,-0.64 0.24,-0.14 0.45,-0.3 0.68,-0.44 0.74,-0.44 1.59,-0.66 2.43,-0.89 -0.29,0.18 -0.56,0.35 -0.85,0.53 0.91,0.24 1.95,-0.1 2.54,-0.83 l 0.46,-0.04 z"
           style="opacity:0.52;fill:url(#linear-gradient-5);stroke-width:0.822708"
           id="path22" />
        <path
           d="M 43,12.45 C 42.91,11.96 42.88,11.46 42.38,11.23 42.16,11.13 41.92,11.09 41.69,11.02 41.02,10.83 40.41,10.46 39.77,10.18 39.3,9.97 38.76,9.76 38.24,9.77 37.38,9.8 36.54,9.65 35.67,9.78 c -0.4,0.06 -0.8,0.16 -1.2,0.24 -1.01,0.19 -2.03,0.26 -3.06,0.2 -0.14,0 -0.52,-0.37 -0.73,-0.42 C 30.41,9.73 30.21,9.72 29.95,9.61 28.76,9.13 27.95,8.9 26.71,9.36 26.58,9.41 26.45,9.45 26.32,9.46 26.1,9.48 25.88,9.42 25.66,9.38 25.29,9.3 24.91,9.25 24.54,9.24 23.08,9.2 22,9.97 21,10.99 c -0.3,0.31 -0.61,0.62 -0.84,0.99 -0.41,0.63 -0.45,1.33 -0.74,1.98 -0.26,0.58 -0.95,1.14 -1.46,1.5 -0.94,0.68 -2.25,0.8 -3,1.75 -0.3,0.37 -0.47,0.85 -0.85,1.15 -0.48,0.37 -1.16,0.34 -1.75,0.49 -0.83,0.21 -1.24,0.81 -1.89,1.29 -0.71,0.52 -1.5,0.97 -2.23,1.49 -0.51,0.37 -1.03,0.74 -1.44,1.23 -0.22,0.27 -0.41,0.58 -0.58,0.89 -0.24,0.44 -0.45,0.91 -0.56,1.4 -0.26,1.1 0.01,2.2 0.61,3.14 0.52,0.81 0.7,1.94 -0.05,2.69 -0.11,0.11 -0.23,0.19 -0.34,0.3 -0.18,0.18 -0.31,0.4 -0.4,0.64 -0.12,0.31 -0.19,0.63 -0.25,0.96 -0.13,0.65 -0.42,1.29 -0.48,1.94 -0.12,1.32 0.7,2.6 1.81,3.26 0.53,0.32 1.04,0.61 1.66,0.6 0.85,-0.01 1.71,-0.13 2.55,-0.29 0.85,-0.17 1.7,-0.49 2.56,-0.53 0.48,-0.02 0.93,0.16 1.37,0.35 0.98,0.41 1.64,0.82 2.7,0.33 0.53,-0.25 1.01,-0.6 1.55,-0.83 2.43,-1.05 5.43,0.54 7.83,-0.59 0.47,-0.22 0.9,-0.55 1.38,-0.75 0.48,-0.2 0.98,-0.2 1.52,-0.22 1.98,-0.05 3.67,-1.4 4.93,-2.82 0.45,-0.51 0.87,-1.18 0.94,-1.87 0.07,-0.69 -0.36,-1.34 -0.13,-2.04 0.09,-0.26 0.3,-0.46 0.52,-0.62 0.64,-0.45 1.43,-0.63 2.18,-0.85 0.75,-0.22 1.52,-0.52 2.02,-1.13 0.63,-0.78 0.35,-1.44 -0.02,-2.21 -0.43,-0.9 -0.16,-1.22 0.65,-1.96 0.61,-0.56 1.29,-1.02 1.9,-1.58 0.2,-0.18 0.4,-0.39 0.49,-0.64 0.07,-0.2 0.07,-0.43 0.07,-0.65 0,-0.44 -0.03,-0.89 -0.22,-1.29 -0.49,-1.04 -0.9,-1.32 -0.44,-2.46 0.4,-1.02 0.67,-2.39 0.44,-3.58 z"
           style="fill:none;stroke:url(#linear-gradient-6);stroke-width:0.575896px;stroke-miterlimit:10"
           id="path23" />
        <path
           d="m 31.02,21.79 c -0.05,0.28 1.62,1.37 1.95,1.64 0.53,0.43 1.45,0.99 2.09,1.23 0.35,0.13 0.73,0.04 1.09,0.17 0.01,0.58 -0.59,1.01 -1.07,1.25 -0.52,0.26 -1.11,0.44 -1.5,0.87 -0.38,0.41 -0.59,1.05 -1.13,1.18 -0.25,0.06 -0.53,0 -0.76,0.12 -0.16,0.09 -0.25,0.27 -0.35,0.42 -0.32,0.48 -0.89,0.86 -1.44,0.72 -0.55,-0.14 -0.83,-0.9 -0.42,-1.31 -0.5,0.26 -0.84,0.73 -1.31,1.03 -0.65,0.43 -1.34,0.8 -1.09,1.77 -0.88,0.35 -1.14,1.37 -2.01,1.58 -0.74,0.19 -1.49,-0.19 -1.74,-0.92 -0.15,-0.45 -0.07,-0.94 0.03,-1.4 0.05,-0.2 0.11,-0.43 0.29,-0.54 l -0.72,0.7 -0.23,0.23 c -0.08,0.08 -0.16,0.16 -0.23,0.25 -0.1,0.14 -0.16,0.3 -0.24,0.46 -0.7,1.47 -1.43,2.16 -3.16,1.59 -0.46,-0.15 -0.96,-0.26 -1.45,-0.28 -0.25,0 -0.5,0.01 -0.74,0.07 -0.37,0.09 -0.71,0.27 -0.99,0.53 -0.05,0.12 0,0.28 0.12,0.34 0.2,-0.06 0.41,-0.1 0.63,-0.12 0.12,-0.01 0.24,-0.02 0.36,-0.03 l 0.41,-0.02 c -0.31,0.12 -0.4,0.35 -0.64,0.54 -0.21,0.17 -0.44,0.19 -0.68,0.3 -0.45,0.21 -0.68,0.81 -1.18,0.92 0.85,0.17 2.03,-0.39 2.77,-0.78 0.17,-0.09 0.34,-0.17 0.51,-0.23 0.04,-0.01 0.09,-0.03 0.13,0 -0.05,0.22 -0.18,0.41 -0.37,0.53 -0.08,0.05 -0.18,0.09 -0.25,0.16 -0.07,0.08 -0.12,0.19 -0.21,0.24 -0.06,0.03 -0.12,0.03 -0.19,0.05 -0.12,0.03 -0.2,0.12 -0.3,0.19 -0.07,0.05 -0.15,0.08 -0.22,0.12 l -0.66,0.3 c -0.84,0.38 -1.86,0.64 -2.69,0.23 -0.33,-0.16 -0.62,-0.39 -0.9,-0.63 -0.04,-0.03 -0.67,-0.59 -0.66,-0.2 0,0.28 0.09,0.55 0.24,0.79 -0.2,0.04 -0.4,0.08 -0.6,0.05 -0.18,-0.03 -0.35,-0.12 -0.5,-0.23 C 10.65,35.4 10.37,35.03 10.21,34.6 10.1,34.28 10,34.11 9.68,34.03 9.32,33.95 9,33.97 8.71,33.71 8.2,33.26 7.97,32.31 7.82,31.67 c -0.38,0.38 -0.42,0.97 -0.41,1.5 0,0.14 0.01,0.29 -0.02,0.43 -0.02,0.08 -0.06,0.17 -0.06,0.25 0,0.08 0.01,0.15 0.03,0.23 l 0.26,0.99 -0.6,-1.01 C 6.91,33.88 6.8,33.7 6.75,33.5 6.69,33.27 6.7,33.02 6.73,32.78 6.84,31.95 7.18,31.1 7.84,30.57 8.28,30.21 8.73,30.26 9.28,30.33 9.49,30.36 8.94,28.04 8.8,27.77 8.79,27.86 8.74,27.96 8.66,28.01 8.61,28.04 8.55,28.06 8.51,28.11 8.49,28.14 8.47,28.17 8.44,28.18 8.39,28.2 8.35,28.15 8.32,28.12 8.08,27.81 7.96,27.43 7.87,27.05 7.82,26.86 7.78,26.67 7.79,26.48 c 0,-0.18 0.05,-0.35 0.12,-0.52 0.06,-0.13 0.62,0.09 0.72,0.08 0.29,-0.02 0.31,-0.19 0.48,-0.36 0.12,-0.12 0.34,-0.02 0.48,-0.12 0.15,-0.1 0.11,-0.36 0.26,-0.46 0.13,-0.09 0.33,0 0.48,-0.08 0.14,-0.08 0.15,-0.3 0.28,-0.4 0.11,-0.08 0.26,-0.06 0.39,-0.1 0.24,-0.08 0.35,-0.33 0.49,-0.55 0.14,-0.22 0.38,-0.42 0.61,-0.32 0.07,-0.08 -0.12,-0.17 -0.15,-0.07 l -1.11,0.1 c -0.13,0.01 -0.27,0.03 -0.39,0.09 -0.1,0.05 -0.18,0.13 -0.28,0.16 C 9.92,24.01 9.65,23.8 9.4,23.89 9.29,23.93 9.21,24.03 9.09,24.06 8.87,24.11 8.7,23.89 8.5,23.8 8.38,23.75 8.23,23.75 8.12,23.69 6.59,22.88 10.69,22 10.72,21.97 c -0.07,-0.32 -0.07,-0.76 0.25,-0.85 0.13,-0.04 0.27,0 0.39,-0.04 0.12,-0.04 0.2,-0.24 0.08,-0.29 0.28,0.05 0.58,-0.08 0.74,-0.32 0.2,0.16 0.5,0.13 0.73,0.02 0.23,-0.11 0.42,-0.3 0.62,-0.45 0.42,-0.33 0.92,-0.55 1.4,-0.77 0.76,-0.34 1.55,-0.84 2.33,-1.09 0.58,-0.19 1.2,-0.25 1.78,-0.44 0.35,-0.11 0.67,-0.3 0.99,-0.49 0.26,-0.15 0.41,-0.25 0.69,-0.3 0.35,-0.06 0.66,-0.13 0.99,-0.27 0.14,-0.06 0.29,-0.12 0.41,-0.23 0.15,-0.14 0.23,-0.34 0.35,-0.5 0.08,-0.11 0.17,-0.2 0.26,-0.3 l 0.18,-0.18 c -0.12,-0.02 -0.24,0 -0.35,0.03 l -0.58,0.14 c -0.22,0.05 -0.44,0.11 -0.66,0.13 -0.41,0.04 -0.86,0.03 -1.26,0.14 -0.31,0.08 -0.57,0.55 -0.89,0.48 -0.52,-0.12 -0.25,-0.78 -0.08,-1.05 0.46,-0.74 1.43,-1.74 2.28,-2.02 0.45,-0.15 0.96,-0.22 1.26,-0.59 0,0 -0.71,-0.7 -0.34,-1.08 0.12,-0.13 0.3,-0.19 0.47,-0.24 l 1.36,-0.45 c 0.21,-0.07 0.43,-0.14 0.63,-0.25 0.15,-0.08 0.28,-0.19 0.42,-0.3 l 0.68,-0.53 c -0.18,-0.02 -0.37,0.04 -0.55,0.09 -0.29,0.07 -0.6,0.11 -0.9,0.11 -0.28,0 -0.56,-0.03 -0.81,-0.13 l 0.47,-0.14 c 0.15,-0.05 0.3,-0.09 0.46,-0.13 0.74,-0.19 1.63,-0.13 2.39,-0.1 0.49,0.02 0.97,0.07 1.46,0.16 0.49,0.09 1.13,-0.01 1.4,0.47 -0.2,0.1 -0.42,0.15 -0.65,0.15 -0.19,0 -0.39,-0.04 -0.57,0.04 -0.18,0.07 -0.34,0.26 -0.53,0.24 -0.07,0 -0.14,-0.04 -0.22,-0.04 -0.18,0 -0.35,0.24 -0.5,0.14 0.24,0.13 0.52,0.18 0.79,0.13 0.06,-0.01 0.12,-0.02 0.17,0 0.07,0.02 0.11,0.09 0.17,0.13 0.07,0.05 0.18,0.07 0.26,0.04 -0.27,0.32 -1.01,0.97 -1.39,1.13 l 0.84,-0.36 c 0.15,-0.06 0.29,-0.12 0.45,-0.16 0.15,-0.04 0.31,-0.05 0.47,-0.07 0.72,-0.09 1.9,-0.82 2.56,-0.3 0.08,0.07 0.15,0.15 0.25,0.2 0.08,0.03 0.16,0.03 0.25,0.03 1.13,-0.07 2.05,-0.83 3.15,-1 1.08,-0.13 2.16,0.05 3.25,-0.03 0.19,-0.01 0.42,0 0.53,0.15 -0.04,0.19 -0.3,0.2 -0.48,0.25 -0.13,0.04 -0.24,0.12 -0.35,0.2 l -1.2,0.89 c 0.39,0.07 0.79,0.05 1.17,-0.06 0.11,-0.03 0.22,-0.07 0.33,-0.06 0.09,0.01 0.17,0.05 0.26,0.07 0.26,0.05 0.51,-0.19 0.77,-0.21 0.26,-0.02 0.61,0.04 0.86,0.1 0.49,0.13 0.92,0.33 0.91,0.92 -0.01,0.43 -0.42,0.81 -0.92,1.07 -0.56,0.29 -1.23,0.44 -1.62,0.4 l 0.99,0.12 c 0.18,0.02 0.38,0.06 0.45,0.22 0.09,0.2 -0.1,0.42 -0.29,0.55 -0.7,0.47 -1.55,0.65 -2.37,0.81 -0.58,0.12 -1.24,0.22 -1.74,-0.1 0.04,0.34 0.28,0.64 0.57,0.83 0.55,0.37 1.16,0.38 1.8,0.46 0.19,0.03 0.39,0.06 0.55,0.17 0.15,0.11 0.23,0.29 0.38,0.4 0.16,0.12 0.38,0.15 0.53,0.28 0.15,0.13 0.18,0.44 -0.02,0.48 -0.06,0.01 -0.12,0 -0.17,0 -0.17,0.02 -0.26,0.23 -0.22,0.39 0.04,0.16 0.17,0.29 0.29,0.4 l 0.95,0.89 -0.23,0.21 c -0.4,0.15 -0.79,0.33 -1.16,0.53 -0.56,0.3 -1.1,0.65 -1.69,0.9 -0.15,0.06 -0.34,0.11 -0.45,0 0,0 -0.88,0.14 -0.98,0.13 -0.36,-0.03 -0.73,-0.15 -1.07,-0.28 -0.28,-0.11 -1.31,-0.44 -1.47,-0.67 -0.01,0.24 -0.25,0.42 -0.49,0.44 -0.22,0.02 -0.48,-0.06 -0.68,-0.12 -0.07,0.28 -0.24,0.32 -0.52,0.3 -0.14,-0.01 -0.27,-0.04 -0.41,-0.03 -0.14,0.01 -0.28,0.1 -0.3,0.24 z"
           style="fill:url(#linearGradient87);stroke-width:0.822708"
           id="path24" />
        <path
           d="m 29.64,12.02 c -0.82,0 -1.96,1.33 -2.52,1.9 -0.27,0.28 -0.57,0.65 -0.43,1.02 -0.27,0.19 -0.57,0.34 -0.88,0.44 l -0.1,0.19 c 0.4,-0.17 0.85,-0.23 1.28,-0.28 1.28,-0.16 2.22,-0.48 3.4,-0.86 1.35,-0.44 2.9,0.15 4.29,0.09 0.74,-0.04 1.6,-0.44 2.31,-0.65 0.28,-0.08 0.55,-0.17 0.8,-0.33 0.11,-0.07 0.26,-0.14 0.34,-0.05 -0.4,-0.17 -0.82,-0.34 -1.25,-0.33 -0.16,0 -0.32,0.03 -0.48,0.06 l -0.42,0.08 c -0.31,0.06 -0.61,0.11 -0.92,0.15 -0.32,0.04 -0.67,0.09 -0.99,0.02 -0.27,-0.06 -0.64,-0.1 -0.88,0.11 -0.04,0.04 -0.07,0.08 -0.11,0.12 -0.04,0.03 -0.08,0.05 -0.12,0.07 -0.28,0.12 -0.6,0.19 -0.91,0.18 -0.4,0 -0.85,-0.16 -1.01,-0.53 0.12,-0.04 0.25,-0.06 0.37,-0.11 0.17,-0.07 0.39,-0.31 0.18,-0.47 -0.11,-0.09 -0.56,-0.02 -0.74,-0.1 0.51,-0.46 1.18,-0.73 1.87,-0.75 l -3.09,0.04 z"
           style="fill:url(#linear-gradient-8);stroke-width:0.822708"
           id="path25" />
        <path
           d="m 19.67,20.06 c 0.05,-0.39 0.19,-0.78 0.4,-1.12 0.14,0.78 0.98,1.32 1.78,1.28 1.6,-0.07 1.87,-1.59 3,-2.32 1.4,-0.91 2.94,-1.66 4.58,-2.02 1.95,-0.42 4.11,-0.23 5.78,0.87 -0.79,0.08 -1.53,-0.44 -2.33,-0.5 -0.58,-0.04 -1.15,0.16 -1.7,0.37 -1.37,0.52 -2.73,1.08 -4.08,1.68 1.93,0.1 3.87,0.19 5.78,-0.1 0.64,-0.1 1.28,-0.24 1.92,-0.3 1.16,-0.1 2.33,0.06 3.49,0.22 -1.29,0.24 -2.58,0.28 -3.88,0.45 -0.52,0.06 -1.08,0.13 -1.49,0.47 0.19,0.03 0.36,0.14 0.46,0.29 -0.81,0.07 -1.6,0.3 -2.33,0.66 -0.24,0.12 -0.47,0.26 -0.73,0.34 -1.21,0.42 -2.5,-0.31 -3.77,-0.37 -1.06,-0.05 -2.07,0.37 -3.05,0.78 -0.47,0.2 -0.98,0.43 -1.23,0.88 0.38,-0.05 0.76,-0.08 1.14,-0.08 0.41,0 0.82,0.03 1.23,0.06 l 3.26,0.25 -1.91,0.84 c -0.42,0.18 -0.85,0.37 -1.31,0.36 -0.25,0 -0.49,-0.07 -0.73,-0.13 -0.93,-0.22 -1.85,-0.28 -2.79,-0.3 -0.74,-0.02 -1.42,-0.36 -2.18,-0.34 -0.73,0.02 -1.55,0.45 -2.15,0.79 -0.26,0.15 -0.65,0.32 -0.85,0.14 0,-0.2 0.13,-0.39 0.25,-0.58 0.5,-0.75 1.09,-1.93 2.19,-2.19 0.45,-0.11 0.81,-0.15 1.23,-0.36 v -0.05 z"
           style="fill:url(#linearGradient88);stroke-width:0.822708"
           id="path26" />
        <g
           id="g33"
           style="stroke-width:0.822708">
          <path
             d="m 12.14,33.23 c 0.52,0.05 1.15,0.76 1.56,0.92 0.41,0.16 0.67,0.11 0.51,0.44 -0.16,0.33 -0.32,0.38 -0.59,0.66 -0.27,0.28 -1.45,-0.68 -1.45,-0.68 l -0.19,-0.59 0.12,-0.65 0.04,-0.11 z"
             style="fill:url(#linear-gradient-10);stroke-width:0.822708"
             id="path27" />
          <path
             d="m 13.55,34.56 c 0.19,0.14 0.25,0.18 0.26,0.33 0.01,0.15 -0.27,0.49 -0.59,0.75 -0.32,0.26 -0.62,0.36 -0.89,0.37 -0.27,0.01 -0.58,-0.07 -0.8,-0.21 -0.22,-0.14 1.42,-1.1 1.42,-1.1 z"
             style="fill:url(#linearGradient89);stroke-width:0.822708"
             id="path28" />
          <path
             d="m 12.9,34.15 c -0.33,-0.3 -0.6,-0.67 -0.77,-0.93 -0.04,-0.06 -0.19,-0.03 -0.23,0.04 -0.06,0.09 -0.12,0.17 -0.19,0.24 -0.26,0.3 -1.23,0.97 -0.65,1.9 0.58,0.93 1.74,0.31 2.34,-0.4 0.05,-0.06 0.11,-0.12 0.16,-0.18 0.06,-0.06 0.05,-0.22 -0.02,-0.25 -0.22,-0.1 -0.46,-0.23 -0.65,-0.41 z"
             style="fill:url(#linear-gradient-12);stroke-width:0.822708"
             id="path29" />
          <path
             d="m 15.37,30.09 c 0.31,0.31 0.79,0.98 0.61,1.94 -0.2,1.09 -0.71,1.61 -0.94,1.79 -0.23,0.18 -0.44,0.1 -0.6,-0.04 -0.16,-0.14 0.81,-2.28 0.81,-2.28 l 0.12,-1.4 z"
             style="fill:url(#linear-gradient-13);stroke-width:0.822708"
             id="path30" />
          <path
             d="m 15.15,29.93 c -1.16,-0.67 -2.16,0.67 -2.33,1.32 -0.06,0.22 -0.18,0.61 -0.34,0.95 -0.03,0.06 0.05,0.22 0.12,0.25 0.53,0.21 1.28,0.68 1.74,1.26 0.05,0.06 0.24,0.11 0.29,0.07 0.22,-0.19 0.43,-0.37 0.64,-0.7 0.58,-0.93 0.91,-2.56 -0.12,-3.15 z"
             style="fill:url(#linear-gradient-14);stroke-width:0.822708"
             id="path31" />
          <path
             d="m 12.85,32.55 c -0.08,-0.03 -0.16,-0.07 -0.24,-0.1 -0.08,-0.03 -0.15,-0.19 -0.12,-0.24 0.15,-0.35 0.28,-0.74 0.33,-0.96 0.1,-0.41 0.56,-1.11 1.17,-1.38 -0.39,0.24 -0.64,0.96 -0.81,1.49 -0.17,0.52 -0.44,1.11 -0.33,1.19 z"
             style="fill:url(#linearGradient90);stroke-width:0.822708"
             id="path32" />
          <path
             d="m 12.31,33.45 v 0 c -0.18,-0.08 -0.25,0.04 -0.42,0.26 -0.17,0.22 -0.94,1.01 -0.87,1.58 -0.46,-0.87 0.45,-1.5 0.71,-1.79 0.06,-0.07 0.12,-0.16 0.18,-0.25 0.05,-0.06 0.19,-0.09 0.24,-0.03 0.04,0.08 0.1,0.14 0.16,0.23 z"
             style="fill:url(#linear-gradient-16);stroke-width:0.822708"
             id="path33" />
        </g>
        <g
           id="g40"
           style="stroke-width:0.822708">
          <g
             id="g38"
             style="stroke-width:0.822708">
            <path
               d="m 11.59,26.61 c 0.51,-0.12 1.15,0.24 1.73,0.39 0.58,0.15 0.52,0.58 0.52,0.58 -0.11,0.35 -0.67,0.38 -0.67,0.38 L 11.96,27.18 11.59,26.6 Z"
               style="fill:url(#linear-gradient-17);stroke-width:0.822708"
               id="path34" />
            <path
               d="m 13.57,27.43 c 0.16,0.05 0.2,0.06 0.26,0.09 0.06,0.03 -0.15,0.52 -0.46,0.89 -0.31,0.37 -0.99,0.53 -1.62,0.35 -0.63,-0.18 1.08,-1.03 1.08,-1.03 l 0.73,-0.3 z"
               style="fill:url(#linear-gradient-18);stroke-width:0.822708"
               id="path35" />
            <path
               d="m 12.52,27.09 c -0.35,-0.16 -0.61,-0.32 -0.78,-0.45 -0.07,-0.05 -0.24,-0.04 -0.3,0.05 -0.11,0.18 -0.28,0.44 -0.34,0.56 -0.36,0.62 -0.26,0.95 -0.05,1.16 0.59,0.55 1.58,0.5 2.03,-0.03 0.25,-0.29 0.35,-0.65 0.49,-0.94 -0.29,-0.07 -0.66,-0.17 -1.04,-0.35 z"
               style="fill:url(#linear-gradient-19);stroke-width:0.822708"
               id="path36" />
            <path
               d="m 15.81,24.98 c 0.18,0.28 0.23,0.92 -0.06,1.33 -0.29,0.41 -0.71,0.65 -0.88,0.68 -0.17,0.03 -0.23,-0.05 -0.39,-0.14"
               style="fill:url(#linear-gradient-20);stroke-width:0.822708"
               id="path37" />
            <path
               d="m 15.35,24.47 c -0.6,-0.38 -1.92,-0.11 -2.67,0.63 -0.22,0.22 -0.41,0.43 -0.58,0.65 -0.03,0.04 0.02,0.15 0.08,0.16 0.68,0.13 1.64,0.54 2.3,0.94 0.47,-0.15 0.99,-0.39 1.24,-0.97 0.23,-0.54 0.24,-1.02 -0.37,-1.41 z"
               style="fill:url(#linear-gradient-21);stroke-width:0.822708"
               id="path38" />
          </g>
          <path
             d="m 14.24,24.34 c 0,0 -0.21,0.03 -0.82,0.51 -0.57,0.43 -0.97,1.01 -0.92,1.14 -0.1,-0.03 -0.21,-0.06 -0.31,-0.08 -0.07,0 -0.12,-0.12 -0.08,-0.15 0.17,-0.22 0.36,-0.45 0.58,-0.65 0.41,-0.42 1,-0.68 1.55,-0.77 h 0.01 z"
             style="fill:url(#linear-gradient-22);stroke-width:0.822708"
             id="path39" />
          <path
             d="m 11.49,27.15 c -0.17,0.21 -0.59,0.91 -0.33,1.34 -0.03,-0.03 -0.07,-0.06 -0.11,-0.08 -0.22,-0.2 -0.32,-0.53 0.05,-1.15 0.06,-0.12 0.23,-0.39 0.34,-0.56 0.06,-0.1 0.23,-0.11 0.3,-0.05 0.03,0.03 0.07,0.06 0.12,0.09 -0.13,-0.05 -0.22,0.22 -0.37,0.41 z"
             style="fill:url(#linear-gradient-23);stroke-width:0.822708"
             id="path40" />
        </g>
        <g
           id="g47"
           style="stroke-width:0.822708">
          <path
             d="m 23.57,18.65 c 0.15,0.09 0.18,0.1 0.23,0.14 0.05,0.04 -0.27,0.42 -0.65,0.67 -0.38,0.25 -1.09,0.23 -1.66,-0.07 -0.57,-0.3 1.3,-0.65 1.3,-0.65 z"
             style="fill:url(#linear-gradient-24);stroke-width:0.822708"
             id="path41" />
          <g
             id="g45"
             style="stroke-width:0.822708">
            <path
               d="m 21.85,17.46 c 0.52,0.01 1.06,0.48 1.59,0.75 0.53,0.27 0.36,0.63 0.36,0.63 -0.19,0.28 -0.74,0.18 -0.74,0.18 l -0.98,-0.97 z"
               style="fill:url(#linear-gradient-25);stroke-width:0.822708"
               id="path42" />
            <path
               d="m 22.64,18.1 c -0.3,-0.23 -0.51,-0.42 -0.65,-0.58 -0.06,-0.06 -0.23,-0.09 -0.31,-0.02 -0.16,0.13 -0.37,0.32 -0.46,0.41 -0.5,0.46 -0.48,0.77 -0.32,1 0.44,0.62 1.41,0.81 1.98,0.45 0.31,-0.19 0.5,-0.49 0.7,-0.71 -0.27,-0.13 -0.6,-0.31 -0.93,-0.55 z"
               style="fill:url(#linear-gradient-26);stroke-width:0.822708"
               id="path43" />
            <path
               d="m 26.33,17.03 c 0.1,0.29 0,0.85 -0.38,1.15 -0.38,0.3 -0.84,0.4 -1.01,0.39 -0.17,-0.01 -0.22,-0.1 -0.34,-0.21"
               style="fill:url(#linear-gradient-27);stroke-width:0.822708"
               id="path44" />
            <path
               d="m 25.97,16.49 c -0.49,-0.48 -1.83,-0.55 -2.74,-0.08 -0.26,0.14 -0.5,0.28 -0.72,0.43 -0.04,0.03 -0.02,0.13 0.04,0.16 0.63,0.27 1.46,0.86 2,1.37 0.49,-0.02 1.05,-0.11 1.44,-0.56 0.35,-0.42 0.47,-0.84 -0.02,-1.32 z"
               style="fill:url(#linear-gradient-28);stroke-width:0.822708"
               id="path45" />
          </g>
          <path
             d="m 24.96,16.1 c 0,0 -0.22,-0.02 -0.92,0.25 -0.65,0.24 -1.18,0.66 -1.17,0.78 -0.09,-0.05 -0.19,-0.1 -0.28,-0.14 -0.06,-0.02 -0.09,-0.13 -0.04,-0.15 0.22,-0.15 0.45,-0.31 0.72,-0.44 0.5,-0.27 1.14,-0.36 1.69,-0.31 h 0.01 z"
             style="fill:url(#linear-gradient-29);stroke-width:0.822708"
             id="path46" />
          <path
             d="m 21.62,17.91 c -0.21,0.14 -0.79,0.66 -0.64,1.1 -0.02,-0.03 -0.06,-0.07 -0.08,-0.1 -0.16,-0.22 -0.18,-0.54 0.32,-0.99 0.08,-0.09 0.31,-0.28 0.47,-0.41 0.09,-0.07 0.25,-0.04 0.3,0.03 0.02,0.03 0.06,0.07 0.09,0.1 -0.12,-0.07 -0.27,0.14 -0.46,0.27 z"
             style="fill:url(#linear-gradient-30);stroke-width:0.822708"
             id="path47" />
        </g>
        <g
           id="g54"
           style="stroke-width:0.822708">
          <path
             d="m 30.43,16.88 c 0.5,0.15 0.95,0.78 1.31,0.98 0.36,0.2 0.63,0.22 0.4,0.42 -0.23,0.2 -0.39,0.2 -0.72,0.34 -0.33,0.14 -1.26,-0.78 -1.26,-0.78 l -0.06,-0.45 0.26,-0.43 0.06,-0.07 z"
             style="fill:url(#linear-gradient-31);stroke-width:0.822708"
             id="path48" />
          <path
             d="m 31.5,18.11 c 0.15,0.14 0.2,0.18 0.18,0.29 -0.02,0.11 -0.37,0.28 -0.74,0.41 -0.37,0.13 -0.68,0.13 -0.94,0.07 -0.26,-0.06 -0.55,-0.17 -0.73,-0.31 -0.18,-0.14 1.62,-0.48 1.62,-0.48 l 0.62,0.03 z"
             style="fill:url(#linear-gradient-32);stroke-width:0.822708"
             id="path49" />
          <g
             id="g52"
             style="stroke-width:0.822708">
            <path
               d="m 30.96,17.69 c -0.25,-0.28 -0.43,-0.6 -0.54,-0.82 -0.03,-0.05 -0.18,-0.06 -0.23,-0.02 -0.08,0.05 -0.15,0.09 -0.23,0.13 -0.32,0.16 -1.41,0.42 -1.05,1.2 0.36,0.78 1.63,0.59 2.37,0.21 0.07,-0.03 0.13,-0.06 0.2,-0.09 0.07,-0.03 0.1,-0.15 0.04,-0.18 -0.2,-0.12 -0.39,-0.26 -0.54,-0.43 z"
               style="fill:url(#linear-gradient-33);stroke-width:0.822708"
               id="path50" />
            <path
               d="m 34.25,15.35 c 0.23,0.28 0.55,0.85 0.16,1.49 -0.44,0.72 -1.04,0.99 -1.31,1.06 -0.27,0.07 -0.45,-0.02 -0.58,-0.16 -0.13,-0.14 1.29,-1.43 1.29,-1.43 l 0.43,-0.96 z"
               style="fill:url(#linear-gradient-34);stroke-width:0.822708"
               id="path51" />
            <path
               d="m 34.08,15.19 c -0.98,-0.72 -2.25,0.02 -2.55,0.44 -0.1,0.14 -0.31,0.39 -0.54,0.6 -0.04,0.03 0,0.16 0.06,0.2 0.47,0.26 1.09,0.75 1.41,1.25 0.04,0.06 0.21,0.13 0.26,0.11 0.26,-0.09 0.5,-0.17 0.78,-0.36 0.77,-0.53 1.45,-1.61 0.58,-2.24 z"
               style="fill:url(#linear-gradient-35);stroke-width:0.822708"
               id="path52" />
          </g>
          <path
             d="m 31.26,16.55 c -0.08,-0.04 -0.14,-0.09 -0.21,-0.12 -0.07,-0.03 -0.1,-0.17 -0.06,-0.2 0.22,-0.22 0.44,-0.46 0.53,-0.6 0.19,-0.27 0.79,-0.66 1.44,-0.73 -0.43,0.08 -0.83,0.54 -1.12,0.88 -0.27,0.33 -0.67,0.69 -0.58,0.77 z"
             style="fill:url(#linear-gradient-36);stroke-width:0.822708"
             id="path53" />
          <path
             d="m 30.54,17.07 v 0 c -0.16,-0.1 -0.25,-0.03 -0.46,0.09 -0.21,0.12 -1.14,0.51 -1.19,0.93 -0.25,-0.71 0.77,-0.96 1.09,-1.11 0.08,-0.04 0.15,-0.09 0.23,-0.14 0.06,-0.03 0.21,-0.02 0.24,0.03 0.02,0.06 0.06,0.12 0.11,0.19 z"
             style="fill:url(#linear-gradient-37);stroke-width:0.822708"
             id="path54" />
        </g>
        <g
           id="g61"
           style="stroke-width:0.822708">
          <path
             d="m 33,12.84 c 0.15,0.07 0.18,0.09 0.24,0.12 0.06,0.03 -0.26,0.34 -0.64,0.53 -0.38,0.19 -1.08,0.16 -1.66,-0.09 -0.58,-0.25 1.28,-0.5 1.28,-0.5 z"
             style="fill:url(#linear-gradient-38);stroke-width:0.822708"
             id="path55" />
          <g
             id="g59"
             style="stroke-width:0.822708">
            <path
               d="m 31.26,11.85 c 0.52,0.02 1.07,0.41 1.6,0.64 0.53,0.23 0.38,0.52 0.38,0.52 -0.18,0.22 -0.74,0.13 -0.74,0.13 l -1,-0.8 -0.24,-0.48 z"
               style="fill:url(#linear-gradient-39);stroke-width:0.822708"
               id="path56" />
            <path
               d="m 32.06,12.38 c -0.31,-0.19 -0.52,-0.35 -0.66,-0.48 -0.06,-0.05 -0.23,-0.08 -0.31,-0.03 -0.15,0.11 -0.37,0.25 -0.45,0.32 -0.48,0.36 -0.47,0.62 -0.3,0.8 0.45,0.51 1.43,0.68 1.98,0.4 C 32.62,13.24 32.8,13 33,12.83 32.73,12.72 32.39,12.57 32.06,12.37 Z"
               style="fill:url(#linear-gradient-40);stroke-width:0.822708"
               id="path57" />
            <path
               d="m 35.72,11.59 c 0.11,0.24 0.02,0.69 -0.35,0.92 -0.37,0.23 -0.83,0.31 -1,0.3 -0.17,-0.01 -0.22,-0.08 -0.35,-0.18"
               style="fill:url(#linear-gradient-41);stroke-width:0.822708"
               id="path58" />
            <path
               d="m 35.39,11.14 c -0.5,-0.4 -1.84,-0.48 -2.73,-0.12 -0.26,0.11 -0.49,0.22 -0.71,0.34 -0.04,0.02 -0.02,0.11 0.04,0.13 0.64,0.23 1.48,0.73 2.03,1.15 0.49,0 1.05,-0.07 1.42,-0.43 0.34,-0.33 0.46,-0.67 -0.05,-1.07 z"
               style="fill:url(#linear-gradient-42);stroke-width:0.822708"
               id="path59" />
          </g>
          <path
             d="m 34.34,10.81 c 0,0 -0.22,-0.02 -0.91,0.18 -0.64,0.18 -1.17,0.51 -1.15,0.61 -0.09,-0.04 -0.19,-0.08 -0.29,-0.12 -0.06,-0.02 -0.09,-0.11 -0.05,-0.12 0.21,-0.12 0.45,-0.24 0.71,-0.34 0.49,-0.21 1.13,-0.27 1.68,-0.22 h 0.01 z"
             style="fill:url(#linear-gradient-43);stroke-width:0.822708"
             id="path60" />
          <path
             d="m 31.04,12.2 c -0.21,0.11 -0.77,0.52 -0.62,0.88 -0.02,-0.03 -0.06,-0.06 -0.09,-0.08 -0.17,-0.18 -0.19,-0.44 0.3,-0.8 0.08,-0.07 0.31,-0.22 0.46,-0.32 0.08,-0.06 0.24,-0.03 0.3,0.03 0.02,0.03 0.06,0.06 0.1,0.09 -0.12,-0.06 -0.27,0.11 -0.45,0.21 z"
             style="fill:url(#linear-gradient-44);stroke-width:0.822708"
             id="path61" />
        </g>
        <path
           d="m 31.48,25.22 c -0.24,0 -0.48,0.01 -0.72,0.02 -0.46,0.01 -0.72,0.2 -1.16,0.24 -0.23,0.02 -0.47,-0.01 -0.7,-0.04 -0.95,-0.11 -1.93,-0.15 -2.84,0 -0.91,0.15 -1.75,0.49 -2.24,1.02 -0.25,0.28 -0.41,0.61 -0.77,0.82 -0.25,0.15 -0.59,0.24 -0.77,0.44 -0.05,0.05 0.77,0.2 0.84,0.2 0.23,0 0.32,-0.04 0.5,-0.11 0.53,-0.2 1.08,-0.39 1.65,-0.54 0.62,-0.17 1.31,-0.26 1.99,-0.14 l -2.13,0.8 c 0.71,0.09 1.43,0.18 2.13,0.11 0.65,-0.07 1.23,-0.14 1.59,-0.51 0.32,-0.34 0.47,-0.75 0.89,-1.05 0.54,-0.38 1.36,-0.57 2.04,-0.81 0.22,-0.08 0.46,-0.15 0.59,-0.29 0.05,-0.05 0.09,-0.11 0.12,-0.17 -0.34,0 -0.67,0 -1,0.01 z"
           style="opacity:0.52;fill:url(#linear-gradient-45);stroke-width:0.822708"
           id="path62" />
        <g
           id="g69"
           style="stroke-width:0.822708">
          <path
             d="m 20.89,23.69 c 0.49,0.17 0.93,0.94 1.29,1.17 0.36,0.23 0.62,0.25 0.39,0.51 -0.23,0.26 -0.4,0.25 -0.73,0.44 C 21.51,26 20.6,24.87 20.6,24.87 l -0.04,-0.56 0.27,-0.54 0.07,-0.08 z"
             style="fill:url(#linear-gradient-46);stroke-width:0.822708"
             id="path63" />
          <path
             d="m 21.93,25.19 c 0.15,0.17 0.19,0.22 0.17,0.35 -0.02,0.13 -0.38,0.36 -0.75,0.52 -0.37,0.16 -0.69,0.17 -0.95,0.11 -0.26,-0.06 -0.54,-0.2 -0.73,-0.37 -0.19,-0.17 1.64,-0.63 1.64,-0.63 z"
             style="fill:url(#linear-gradient-47);stroke-width:0.822708"
             id="path64" />
          <g
             id="g67"
             style="stroke-width:0.822708">
            <path
               d="m 21.4,24.68 c -0.25,-0.34 -0.42,-0.73 -0.52,-0.99 -0.02,-0.06 -0.18,-0.07 -0.23,-0.02 -0.08,0.06 -0.16,0.12 -0.24,0.17 -0.33,0.2 -1.43,0.55 -1.09,1.5 0.34,0.95 1.62,0.68 2.37,0.2 0.07,-0.04 0.13,-0.08 0.2,-0.12 0.07,-0.04 0.1,-0.18 0.05,-0.22 -0.19,-0.14 -0.39,-0.31 -0.53,-0.51 z"
               style="fill:url(#linear-gradient-48);stroke-width:0.822708"
               id="path65" />
            <path
               d="m 24.76,21.71 c 0.23,0.34 0.53,1.04 0.13,1.84 -0.46,0.9 -1.07,1.24 -1.34,1.34 -0.27,0.1 -0.45,-0.02 -0.57,-0.18 -0.12,-0.16 1.33,-1.8 1.33,-1.8 z"
               style="fill:url(#linear-gradient-49);stroke-width:0.822708"
               id="path66" />
            <path
               d="m 24.59,21.52 c -0.97,-0.86 -2.26,0.08 -2.57,0.61 -0.11,0.18 -0.32,0.49 -0.56,0.75 -0.04,0.04 0,0.2 0.06,0.24 0.47,0.31 1.07,0.9 1.39,1.51 0.03,0.07 0.21,0.16 0.26,0.13 0.26,-0.11 0.51,-0.22 0.79,-0.46 0.79,-0.67 1.49,-2.02 0.64,-2.78 z"
               style="fill:url(#linear-gradient-50);stroke-width:0.822708"
               id="path67" />
          </g>
          <path
             d="m 21.73,23.27 c -0.07,-0.05 -0.14,-0.1 -0.21,-0.14 -0.07,-0.04 -0.1,-0.2 -0.06,-0.24 0.23,-0.27 0.45,-0.58 0.55,-0.76 0.2,-0.34 0.81,-0.84 1.46,-0.93 -0.44,0.11 -0.85,0.69 -1.14,1.11 -0.28,0.41 -0.69,0.86 -0.6,0.96 z"
             style="fill:url(#linear-gradient-51);stroke-width:0.822708"
             id="path68" />
          <path
             d="m 20.99,23.93 v 0 c -0.16,-0.11 -0.25,-0.03 -0.47,0.12 -0.22,0.15 -1.16,0.66 -1.22,1.17 -0.23,-0.87 0.8,-1.21 1.12,-1.39 0.08,-0.05 0.16,-0.11 0.23,-0.17 0.06,-0.04 0.21,-0.03 0.24,0.03 0.02,0.08 0.06,0.15 0.11,0.24 z"
             style="fill:url(#linear-gradient-52);stroke-width:0.822708"
             id="path69" />
        </g>
        <path
           d="m 23.49,14.05 c -0.66,-0.01 -1.32,0.17 -1.89,0.51 -0.23,0.14 -0.45,0.31 -0.66,0.47 l -0.45,0.35 c 0.38,0.02 0.69,-0.39 1.06,-0.35 0.14,0.01 0.27,0.08 0.4,0.07 0.19,-0.01 0.35,-0.18 0.54,-0.2 0.16,-0.02 0.31,0.06 0.47,0.04 0.25,-0.04 0.43,-0.34 0.68,-0.3 0.08,0.01 0.15,0.06 0.22,0.05 0.07,-0.01 0.12,-0.07 0.17,-0.12 0.37,-0.38 0.81,-0.68 1.29,-0.9 0.12,-0.05 0.25,-0.11 0.33,-0.2 0.04,-0.04 0.07,-0.1 0.12,-0.12 0.05,-0.03 0.11,-0.02 0.17,-0.02 0.2,0 0.39,-0.11 0.49,-0.28 -0.88,0.08 -1.64,0.32 -2.55,0.11 -0.04,-0.15 -0.26,-0.07 -0.41,-0.03 -0.46,0.12 -0.91,0.28 -1.34,0.47 l -0.17,-0.02 c 0,0.05 -0.01,0.11 -0.06,0.14 -0.05,0.03 -0.11,-0.06 -0.06,-0.08 0.05,0.15 0.27,0.15 0.4,0.07 0.13,-0.08 0.26,-0.19 0.42,-0.19 0.08,0 0.16,0.03 0.24,0.05 0.26,0.07 0.54,0.06 0.8,-0.04 0.13,0.09 0.3,0.12 0.45,0.07 l 0.09,-0.13 -0.11,0.18 c -0.04,0.07 -0.08,0.14 -0.16,0.16 -0.06,0.02 -0.12,0 -0.18,0 -0.19,-0.02 -0.39,0.12 -0.43,0.31 -0.06,-0.08 0.13,-0.14 0.12,-0.04 z"
           style="fill:url(#linear-gradient-53);stroke-width:0.822708"
           id="path70" />
        <path
           d="m 36.1,22.84 c -0.34,0.01 -0.69,0.04 -1.03,0 -0.65,-0.08 -1.27,-0.45 -1.65,-0.99 -0.04,-0.08 -0.17,-0.06 -0.21,0.02 -0.04,0.08 -0.02,0.17 0,0.26 0.28,0.89 1.03,1.71 1.96,1.76 0.35,0.02 0.84,0 1.16,0.16 0.47,0.24 0.26,0.59 0.56,0.83 0.33,0.27 0.36,0.17 0.7,-0.22 0.2,-0.23 0.76,-1.06 0.62,-1.41 -0.22,-0.54 -1.63,-0.42 -2.12,-0.41 z"
           style="opacity:0.52;fill:url(#linear-gradient-54);stroke-width:0.822708"
           id="path71" />
        <path
           d="m 27.59,32.14 c 0.06,-0.1 0.11,-0.2 0.2,-0.28 0.06,-0.06 0.14,-0.09 0.2,-0.15 0.13,-0.12 0.17,-0.29 0.22,-0.45 0.08,-0.22 0.18,-0.44 0.31,-0.64 0.2,-0.3 0.5,-0.59 0.86,-0.58 l -0.3,1.52 c -0.04,0.19 -0.08,0.39 -0.15,0.57 -0.18,0.47 -0.55,0.84 -1,1.06 -0.22,0.11 -0.47,0.18 -0.72,0.2 -0.55,0.05 -1.19,-0.12 -1.56,-0.53 0.81,-0.12 1.42,0.14 1.94,-0.73 z"
           style="opacity:0.52;fill:url(#linear-gradient-55);stroke-width:0.822708"
           id="path72" />
        <path
           d="m 35.22,27.68 c 0.24,-0.55 0.82,-0.95 1.43,-0.97 0.33,-0.01 0.65,0.08 0.98,0.08 0.75,0 1.41,-0.48 2,-0.95 0.4,-0.32 0.84,-0.8 0.63,-1.27 0.13,-0.17 0.4,-0.02 0.53,0.15 0.4,0.49 0.67,1.11 0.69,1.74 0.02,0.63 -0.2,1.29 -0.66,1.73 -0.3,0.29 -0.67,0.48 -1.04,0.66 -0.82,0.41 -1.64,0.64 -2.47,1.01 -0.76,0.34 -1.51,0.84 -1.87,1.59 0.02,-0.05 -0.55,-1.09 -0.59,-1.25 -0.12,-0.45 -0.2,-1.03 -0.04,-1.48 0.24,-0.71 1,-1.14 1.49,-1.67 -0.38,0.18 -0.74,0.4 -1.08,0.63 z"
           style="fill:none;stroke-width:0.822708"
           id="path73" />
        <path
           d="m 12.25,29.3 c -0.76,0.08 -0.97,-0.19 -1.51,-0.39 -0.54,-0.2 0.02,1.39 1.51,0.39 z"
           style="fill:url(#linear-gradient-56);stroke-width:0.822708"
           id="path74" />
        <path
           d="m 20.03,26.45 c -0.11,0 -0.21,0 -0.31,-0.03 -0.09,-0.03 -0.18,-0.06 -0.27,-0.11 -0.17,-0.09 -0.33,-0.21 -0.46,-0.36 -0.14,-0.16 -0.27,-0.35 -0.35,-0.55 -0.07,-0.19 -0.3,-0.41 -0.44,-0.06 -0.14,0.35 0.43,1.08 0.97,1.2 0.54,0.12 0.86,-0.1 0.86,-0.1 z"
           style="fill:url(#linear-gradient-57);stroke-width:0.822708"
           id="path75" />
        <path
           d="M 6.4,29.29 C 6.06,28.26 5.45,27.28 5.5,26.16 5.52,25.7 5.65,25.26 5.82,24.84 5.98,24.43 6.18,24.02 6.41,23.64 6.57,23.37 6.75,23.1 6.95,22.85 7.2,22.52 7.47,22.21 7.76,21.92 c -0.37,0.52 -0.61,1.13 -0.7,1.77 -0.1,0.71 0.4,0.72 0.81,1.15 L 6.6,25.8 c -0.07,0.05 -0.14,0.11 -0.18,0.18 -0.12,0.2 0,0.45 0.11,0.66 l 1.04,1.86 c 0.12,-0.31 0.08,-0.67 -0.11,-0.94 0.43,0.82 0.67,1.73 0.7,2.65 l -0.6,-0.5 c 0,0.23 -0.24,0.37 -0.43,0.49 -0.24,0.15 -0.45,0.35 -0.62,0.57 0.14,-0.48 0.06,-1 -0.1,-1.48 z"
           style="opacity:0.52;fill:url(#linear-gradient-58);stroke-width:0.822708"
           id="path76" />
        <path
           d="m 6.75,30.86 c -0.26,0.45 -0.52,0.91 -0.62,1.41 -0.04,0.23 -0.05,0.46 -0.06,0.7 l -0.04,1.18 -0.22,-0.1 c 0.11,0.36 0.3,0.68 0.5,0.99 L 7,36.15 C 6.6,35.86 6.22,35.54 5.86,35.19 l 0.68,1.46 C 6.28,36.49 6.06,36.28 5.88,36.04 c 0.05,0.72 0.65,1.29 0.74,2.01 -1.03,-0.64 -1.71,-1.81 -1.75,-3.03 0,-0.19 0,-0.39 0.02,-0.58 0.07,-0.9 0.28,-1.79 0.62,-2.63 0.04,-0.11 0.09,-0.22 0.15,-0.31 0.12,-0.18 0.29,-0.31 0.44,-0.46 0.56,-0.57 0.8,-1.4 0.73,-2.2"
           style="opacity:0.52;fill:url(#linear-gradient-59);stroke-width:0.822708"
           id="path77" />
      </g>
      <g
         id="g79"
         style="stroke-width:0.822708">
        <path
           d="m 9.67,37.86 c 0.47,-0.3 0.97,-0.17 1.27,0.88 0.51,1.78 -1.41,1.32 -2.33,1.03 0.05,-0.68 0.53,-1.57 1.06,-1.91 z"
           style="fill:url(#linear-gradient-60);stroke-width:0.822708"
           id="path78" />
        <path
           d="m 9.67,37.86 c 0.47,-0.3 0.97,-0.17 1.27,0.88 0.51,1.78 -1.41,1.32 -2.33,1.03 0.05,-0.68 0.53,-1.57 1.06,-1.91 z"
           style="fill:url(#linear-gradient-61);stroke-width:0.822708"
           id="path79" />
      </g>
      <g
         id="g81"
         style="stroke-width:0.822708">
        <path
           d="m 10.94,40.35 c -0.26,0.12 -0.46,0.37 -0.52,0.65 l 0.38,0.4 c 0,0 0.03,0.03 0.05,0.03 0.02,0 0.03,-0.01 0.05,-0.02 l 0.71,-0.52 c 0.06,-0.04 0.12,-0.1 0.11,-0.17 0,-0.04 -0.04,-0.07 -0.07,-0.1 -0.12,-0.1 -0.24,-0.2 -0.39,-0.26 -0.15,-0.06 -0.32,-0.06 -0.45,0.03"
           style="fill:url(#linear-gradient-62);stroke-width:0.822708"
           id="path80" />
        <path
           d="m 10.94,40.35 c -0.26,0.12 -0.46,0.37 -0.52,0.65 l 0.38,0.4 c 0,0 0.03,0.03 0.05,0.03 0.02,0 0.03,-0.01 0.05,-0.02 l 0.71,-0.52 c 0.06,-0.04 0.12,-0.1 0.11,-0.17 0,-0.04 -0.04,-0.07 -0.07,-0.1 -0.12,-0.1 -0.24,-0.2 -0.39,-0.26 -0.15,-0.06 -0.32,-0.06 -0.45,0.03"
           style="fill:url(#linear-gradient-63);stroke-width:0.822708"
           id="path81" />
      </g>
      <g
         id="g83"
         style="stroke-width:0.822708">
        <path
           d="m 7.13,40.41 0.21,0.53 c 0,0 0.02,0.04 0.03,0.05 0.02,0 0.04,0 0.05,0 L 7.9,40.85 c 0.06,-0.02 0.13,-0.03 0.18,-0.07 0.06,-0.04 0.1,-0.09 0.17,-0.11 0.03,0 0.06,-0.02 0.08,-0.09 0,-0.12 -0.06,-0.23 -0.11,-0.33 L 8.07,39.96 c 0,0 -0.04,-0.07 -0.07,-0.1 -0.04,-0.03 -0.09,-0.05 -0.14,-0.05 -0.09,0 -0.18,0.02 -0.25,0.08 -0.09,0.07 -0.13,0.19 -0.22,0.26 -0.1,0.08 -0.19,0.13 -0.27,0.25 z"
           style="fill:url(#linear-gradient-64);stroke-width:0.822708"
           id="path82" />
        <path
           d="m 7.13,40.41 0.21,0.53 c 0,0 0.02,0.04 0.03,0.05 0.02,0 0.04,0 0.05,0 L 7.9,40.85 c 0.06,-0.02 0.13,-0.03 0.18,-0.07 0.06,-0.04 0.1,-0.09 0.17,-0.11 0.03,0 0.06,-0.02 0.08,-0.09 0,-0.12 -0.06,-0.23 -0.11,-0.33 L 8.07,39.96 c 0,0 -0.04,-0.07 -0.07,-0.1 -0.04,-0.03 -0.09,-0.05 -0.14,-0.05 -0.09,0 -0.18,0.02 -0.25,0.08 -0.09,0.07 -0.13,0.19 -0.22,0.26 -0.1,0.08 -0.19,0.13 -0.27,0.25 z"
           style="fill:url(#linear-gradient-65);stroke-width:0.822708"
           id="path83" />
      </g>
    </g>
  </g>
</svg>
