<?xml version="1.0" encoding="UTF-8" standalone="no"?>
<svg
   viewBox="0 0 48 48"
   version="1.1"
   id="svg9642"
   sodipodi:docname="muscles.svg"
   inkscape:version="1.1 (c68e22c387, 2021-05-23)"
   xmlns:inkscape="http://www.inkscape.org/namespaces/inkscape"
   xmlns:sodipodi="http://sodipodi.sourceforge.net/DTD/sodipodi-0.dtd"
   xmlns:xlink="http://www.w3.org/1999/xlink"
   xmlns="http://www.w3.org/2000/svg"
   xmlns:svg="http://www.w3.org/2000/svg"
   xmlns:rdf="http://www.w3.org/1999/02/22-rdf-syntax-ns#"
   xmlns:cc="http://creativecommons.org/ns#"
   xmlns:dc="http://purl.org/dc/elements/1.1/">
  <sodipodi:namedview
     id="namedview9644"
     pagecolor="#ffffff"
     bordercolor="#666666"
     borderopacity="1.0"
     inkscape:pageshadow="2"
     inkscape:pageopacity="0.0"
     inkscape:pagecheckerboard="0"
     showgrid="false"
     inkscape:zoom="15.6875"
     inkscape:cx="24"
     inkscape:cy="24"
     inkscape:window-width="2880"
     inkscape:window-height="1557"
     inkscape:window-x="-8"
     inkscape:window-y="-8"
     inkscape:window-maximized="1"
     inkscape:current-layer="svg9642" />
  <defs
     id="defs9476">
    <style
       id="style9320">.cls-1{fill:url(#radial-gradient);}.cls-2{fill:url(#radial-gradient-2);}.cls-3{fill:url(#linear-gradient);}.cls-4{fill:url(#radial-gradient-3);}.cls-5{fill:url(#linear-gradient-2);}.cls-6{fill:url(#linear-gradient-3);}.cls-10,.cls-59,.cls-7,.cls-8{fill:none;stroke-linecap:round;stroke-linejoin:round;}.cls-10,.cls-7,.cls-8{stroke:#a40000;}.cls-7{stroke-width:0.6px;}.cls-59,.cls-8{stroke-width:0.35px;}.cls-9{fill:url(#radial-gradient-4);}.cls-10{stroke-width:0.7px;}.cls-11{fill:url(#radial-gradient-5);}.cls-12{fill:url(#linear-gradient-4);}.cls-13{fill:url(#radial-gradient-6);}.cls-14{fill:url(#radial-gradient-7);}.cls-15{fill:url(#radial-gradient-8);}.cls-16{fill:url(#radial-gradient-9);}.cls-17{fill:url(#radial-gradient-10);}.cls-18{fill:url(#radial-gradient-11);}.cls-19{fill:url(#radial-gradient-12);}.cls-20{fill:url(#radial-gradient-13);}.cls-21{fill:url(#radial-gradient-14);}.cls-22{fill:url(#radial-gradient-15);}.cls-23{fill:url(#radial-gradient-16);}.cls-24{fill:url(#radial-gradient-17);}.cls-25{fill:url(#radial-gradient-18);}.cls-26{fill:url(#radial-gradient-19);}.cls-27{fill:url(#radial-gradient-20);}.cls-28{fill:url(#radial-gradient-21);}.cls-29{fill:url(#radial-gradient-22);}.cls-30{fill:url(#radial-gradient-23);}.cls-31{fill:#a40000;}.cls-32{fill:url(#radial-gradient-24);}.cls-33{fill:url(#radial-gradient-25);}.cls-34{fill:url(#radial-gradient-26);}.cls-35{fill:url(#radial-gradient-27);}.cls-36{fill:url(#linear-gradient-5);}.cls-37{fill:url(#radial-gradient-28);}.cls-38{fill:url(#linear-gradient-6);}.cls-39{fill:url(#radial-gradient-29);}.cls-40{fill:url(#radial-gradient-30);}.cls-41{fill:url(#radial-gradient-31);}.cls-42{fill:url(#linear-gradient-7);}.cls-43{fill:url(#radial-gradient-32);}.cls-44{fill:url(#linear-gradient-8);}.cls-45{fill:url(#radial-gradient-33);}.cls-46{fill:url(#linear-gradient-9);}.cls-47{fill:url(#radial-gradient-34);}.cls-48{fill:url(#radial-gradient-35);}.cls-49{fill:url(#linear-gradient-10);}.cls-50{fill:url(#radial-gradient-36);}.cls-51{fill:url(#radial-gradient-37);}.cls-52{fill:url(#linear-gradient-11);}.cls-53{fill:url(#linear-gradient-12);}.cls-54{fill:url(#radial-gradient-38);}.cls-55{fill:url(#radial-gradient-39);}.cls-56{fill:url(#linear-gradient-13);}.cls-57{fill:url(#linear-gradient-14);}.cls-58{fill:url(#linear-gradient-15);}.cls-59{stroke:#c84b4b;}</style>
    <radialGradient
       id="radial-gradient"
       cx="-86.24"
       cy="92.14"
       r="18.28"
       gradientTransform="matrix(1.27,0,0,0.46,134.3,-3.75)"
       gradientUnits="userSpaceOnUse">
      <stop
         offset="0.13"
         stop-color="#2c2c2c"
         stop-opacity="0.4"
         id="stop9322" />
      <stop
         offset="0.9"
         stop-color="#2c2c2c"
         stop-opacity="0"
         id="stop9324" />
    </radialGradient>
    <radialGradient
       id="radial-gradient-2"
       cx="38.67"
       cy="30.61"
       r="7.39"
       gradientUnits="userSpaceOnUse">
      <stop
         offset="0.3"
         stop-color="#f9deda"
         id="stop9327" />
      <stop
         offset="1"
         stop-color="#ed9991"
         id="stop9329" />
    </radialGradient>
    <linearGradient
       id="linear-gradient"
       x1="36.9"
       y1="34.29"
       x2="32.43"
       y2="37.24"
       gradientUnits="userSpaceOnUse">
      <stop
         offset="0"
         stop-color="#a40000"
         stop-opacity="0"
         id="stop9332" />
      <stop
         offset="0.71"
         stop-color="#a40000"
         stop-opacity="0.71"
         id="stop9334" />
      <stop
         offset="1"
         stop-color="#a40000"
         id="stop9336" />
    </linearGradient>
    <radialGradient
       id="radial-gradient-3"
       cx="21.42"
       cy="35.62"
       r="10.15"
       gradientUnits="userSpaceOnUse">
      <stop
         offset="0.3"
         stop-color="#fbe7e4"
         id="stop9339" />
      <stop
         offset="1"
         stop-color="#ed9991"
         id="stop9341" />
    </radialGradient>
    <linearGradient
       id="linear-gradient-2"
       x1="14.88"
       y1="37.32"
       x2="11.52"
       y2="39.54"
       xlink:href="#linear-gradient" />
    <linearGradient
       id="linear-gradient-3"
       x1="17.69"
       y1="40.48"
       x2="20.29"
       y2="44.56"
       gradientUnits="userSpaceOnUse">
      <stop
         offset="0"
         stop-color="#a40000"
         stop-opacity="0"
         id="stop9345" />
      <stop
         offset="1"
         stop-color="#a40000"
         id="stop9347" />
    </linearGradient>
    <radialGradient
       id="radial-gradient-4"
       cx="31.92"
       cy="23.15"
       r="5.14"
       gradientTransform="matrix(1, 0.03, 0, 1, 0.12, -0.78)"
       gradientUnits="userSpaceOnUse">
      <stop
         offset="0"
         stop-color="#fa9db5"
         id="stop9350" />
      <stop
         offset="0.29"
         stop-color="#f992ad"
         id="stop9352" />
      <stop
         offset="1"
         stop-color="#d83252"
         id="stop9354" />
    </radialGradient>
    <radialGradient
       id="radial-gradient-5"
       cx="31.11"
       cy="25.68"
       r="19.75"
       xlink:href="#radial-gradient-3" />
    <linearGradient
       id="linear-gradient-4"
       x1="21.58"
       y1="34.5"
       x2="24.44"
       y2="59.56"
       xlink:href="#linear-gradient" />
    <radialGradient
       id="radial-gradient-6"
       cx="29.56"
       cy="16.62"
       r="0.45"
       xlink:href="#radial-gradient-4" />
    <radialGradient
       id="radial-gradient-7"
       cx="31.54"
       cy="16.24"
       r="5.09"
       xlink:href="#radial-gradient-4" />
    <radialGradient
       id="radial-gradient-8"
       cx="28.75"
       cy="21.49"
       r="6.48"
       xlink:href="#radial-gradient-4" />
    <radialGradient
       id="radial-gradient-9"
       cx="33.22"
       cy="20.13"
       r="2.38"
       xlink:href="#radial-gradient-4" />
    <radialGradient
       id="radial-gradient-10"
       cx="18.32"
       cy="16.82"
       r="1.98"
       xlink:href="#radial-gradient-4" />
    <radialGradient
       id="radial-gradient-11"
       cx="21.77"
       cy="15.8"
       r="0.81"
       xlink:href="#radial-gradient-4" />
    <radialGradient
       id="radial-gradient-12"
       cx="22.88"
       cy="39.05"
       r="3.48"
       gradientTransform="matrix(0.88,0.48,-0.27,0.5,13.32,8.77)"
       xlink:href="#radial-gradient-4" />
    <radialGradient
       id="radial-gradient-13"
       cx="28.22"
       cy="31.22"
       r="2.79"
       xlink:href="#radial-gradient-4" />
    <radialGradient
       id="radial-gradient-14"
       cx="32.32"
       cy="30.12"
       r="2.58"
       xlink:href="#radial-gradient-4" />
    <radialGradient
       id="radial-gradient-15"
       cx="32.25"
       cy="33.05"
       r="2.42"
       xlink:href="#radial-gradient-4" />
    <radialGradient
       id="radial-gradient-16"
       cx="32.21"
       cy="35.99"
       r="2.28"
       xlink:href="#radial-gradient-4" />
    <radialGradient
       id="radial-gradient-17"
       cx="32"
       cy="38.89"
       r="1.64"
       xlink:href="#radial-gradient-4" />
    <radialGradient
       id="radial-gradient-18"
       cx="28.57"
       cy="37.43"
       r="2.61"
       xlink:href="#radial-gradient-4" />
    <radialGradient
       id="radial-gradient-19"
       cx="28.66"
       cy="40.34"
       r="2.25"
       xlink:href="#radial-gradient-4" />
    <radialGradient
       id="radial-gradient-20"
       cx="21.38"
       cy="32.19"
       r="2.79"
       xlink:href="#radial-gradient-4" />
    <radialGradient
       id="radial-gradient-21"
       cx="22.49"
       cy="34.05"
       r="3.67"
       gradientTransform="matrix(0.8, 0.6, -0.26, 0.34, 13.33, 8.85)"
       gradientUnits="userSpaceOnUse">
      <stop
         offset="0"
         stop-color="#fa9db5"
         id="stop9374" />
      <stop
         offset="0.17"
         stop-color="#f996b0"
         id="stop9376" />
      <stop
         offset="0.43"
         stop-color="#f992ad"
         id="stop9378" />
      <stop
         offset="1"
         stop-color="#d83252"
         id="stop9380" />
    </radialGradient>
    <radialGradient
       id="radial-gradient-22"
       cx="23.35"
       cy="36.68"
       r="3.15"
       gradientTransform="matrix(0.83,0.53,-0.22,0.37,12.07,10.78)"
       xlink:href="#radial-gradient-4" />
    <radialGradient
       id="radial-gradient-23"
       cx="22.4"
       cy="31.87"
       r="3.29"
       gradientTransform="matrix(0.75562488,0.65500462,-0.32750231,0.37781244,15.94,5.12)"
       xlink:href="#radial-gradient-21" />
    <radialGradient
       id="radial-gradient-24"
       cx="23.08"
       cy="29.98"
       r="3.07"
       gradientTransform="matrix(0.80323352,0.59566426,-0.34548527,0.46587544,14.99,2.15)"
       xlink:href="#radial-gradient-4" />
    <radialGradient
       id="radial-gradient-25"
       cx="9.14"
       cy="33.52"
       r="3.42"
       gradientTransform="matrix(0.73372986,0.6794413,-0.35330948,0.38153953,14.23,14.57)"
       gradientUnits="userSpaceOnUse">
      <stop
         offset="0.04"
         stop-color="#f992ad"
         id="stop9386" />
      <stop
         offset="1"
         stop-color="#d83252"
         id="stop9388" />
    </radialGradient>
    <radialGradient
       id="radial-gradient-26"
       cx="9.23"
       cy="30.73"
       r="3.89"
       gradientTransform="matrix(-0.85273134,-0.52234974,0.23505738,-0.38372911,9.82,47.45)"
       gradientUnits="userSpaceOnUse">
      <stop
         offset="0.16"
         stop-color="#fa9db5"
         id="stop9391" />
      <stop
         offset="0.29"
         stop-color="#f992ad"
         id="stop9393" />
      <stop
         offset="1"
         stop-color="#d83252"
         id="stop9395" />
    </radialGradient>
    <radialGradient
       id="radial-gradient-27"
       cx="11.65"
       cy="32.74"
       r="4.96"
       xlink:href="#radial-gradient-2" />
    <linearGradient
       id="linear-gradient-5"
       x1="10.85"
       y1="33.57"
       x2="8.99"
       y2="35.51"
       xlink:href="#linear-gradient-3" />
    <radialGradient
       id="radial-gradient-28"
       cx="7.73"
       cy="24.64"
       r="2.61"
       gradientTransform="matrix(0.73147272,-0.6818707,0.38184759,0.40962472,-7.31,19.84)"
       gradientUnits="userSpaceOnUse">
      <stop
         offset="0"
         stop-color="#fa9db5"
         id="stop9400" />
      <stop
         offset="1"
         stop-color="#d83252"
         id="stop9402" />
    </radialGradient>
    <linearGradient
       id="linear-gradient-6"
       x1="6.4"
       y1="25.45"
       x2="12.35"
       y2="21.44"
       gradientUnits="userSpaceOnUse">
      <stop
         offset="0"
         stop-color="#fff"
         stop-opacity="0"
         id="stop9405" />
      <stop
         offset="1"
         stop-color="snow"
         id="stop9407" />
    </linearGradient>
    <radialGradient
       id="radial-gradient-29"
       cx="11.09"
       cy="26.8"
       r="4.91"
       gradientTransform="matrix(1,0,0,0.46,0,14.48)"
       gradientUnits="userSpaceOnUse">
      <stop
         offset="0.28"
         stop-color="#fa9db5"
         id="stop9410" />
      <stop
         offset="0.41"
         stop-color="#f58fa8"
         id="stop9412" />
      <stop
         offset="0.67"
         stop-color="#e96985"
         id="stop9414" />
      <stop
         offset="1"
         stop-color="#d83252"
         id="stop9416" />
    </radialGradient>
    <radialGradient
       id="radial-gradient-30"
       cx="17.77"
       cy="26.34"
       r="1.58"
       xlink:href="#radial-gradient-3" />
    <radialGradient
       id="radial-gradient-31"
       cx="15.36"
       cy="22.18"
       r="6.08"
       gradientTransform="matrix(0.96810393,-0.25054897,0.1453184,0.56150028,-2.74,13.54)"
       gradientUnits="userSpaceOnUse">
      <stop
         offset="0"
         stop-color="#fa9db5"
         id="stop9420" />
      <stop
         offset="0.19"
         stop-color="#f992ad"
         id="stop9422" />
      <stop
         offset="0.34"
         stop-color="#f78da8"
         id="stop9424" />
      <stop
         offset="0.52"
         stop-color="#f27d99"
         id="stop9426" />
      <stop
         offset="0.71"
         stop-color="#e96380"
         id="stop9428" />
      <stop
         offset="0.93"
         stop-color="#dd3f5e"
         id="stop9430" />
      <stop
         offset="1"
         stop-color="#d83252"
         id="stop9432" />
    </radialGradient>
    <linearGradient
       id="linear-gradient-7"
       x1="15.55"
       y1="21.41"
       x2="14.93"
       y2="17.53"
       xlink:href="#linear-gradient-6" />
    <radialGradient
       id="radial-gradient-32"
       cx="32.21"
       cy="24.23"
       r="2.56"
       gradientTransform="matrix(1.19,0,0,2.17,-6,-28.95)"
       gradientUnits="userSpaceOnUse">
      <stop
         offset="0"
         stop-color="#fa9db5"
         id="stop9436" />
      <stop
         offset="0.48"
         stop-color="#f992ad"
         id="stop9438" />
      <stop
         offset="0.57"
         stop-color="#f689a5"
         id="stop9440" />
      <stop
         offset="0.71"
         stop-color="#ee728f"
         id="stop9442" />
      <stop
         offset="0.89"
         stop-color="#e14c6a"
         id="stop9444" />
      <stop
         offset="1"
         stop-color="#d83252"
         id="stop9446" />
    </radialGradient>
    <linearGradient
       id="linear-gradient-8"
       x1="24.1"
       y1="33.98"
       x2="17.21"
       y2="35.21"
       xlink:href="#linear-gradient-3" />
    <radialGradient
       id="radial-gradient-33"
       cx="25.02"
       cy="25.49"
       r="5.01"
       gradientTransform="matrix(1.07,0,0,1.04,-1.34,-1.59)"
       gradientUnits="userSpaceOnUse">
      <stop
         offset="0"
         stop-color="#fa9db5"
         id="stop9450" />
      <stop
         offset="0.54"
         stop-color="#f992ad"
         id="stop9452" />
      <stop
         offset="0.62"
         stop-color="#f68ba6"
         id="stop9454" />
      <stop
         offset="0.73"
         stop-color="#f07793"
         id="stop9456" />
      <stop
         offset="0.87"
         stop-color="#e45674"
         id="stop9458" />
      <stop
         offset="1"
         stop-color="#d83252"
         id="stop9460" />
    </radialGradient>
    <linearGradient
       id="linear-gradient-9"
       x1="23.53"
       y1="19.8"
       x2="24"
       y2="12.54"
       xlink:href="#linear-gradient-3" />
    <radialGradient
       id="radial-gradient-34"
       cx="29.19"
       cy="11.83"
       r="7.49"
       xlink:href="#radial-gradient-4" />
    <radialGradient
       id="radial-gradient-35"
       cx="28.96"
       cy="15.23"
       r="2.43"
       xlink:href="#radial-gradient-2" />
    <linearGradient
       id="linear-gradient-10"
       x1="31.9"
       y1="12.4"
       x2="31.16"
       y2="10.63"
       xlink:href="#linear-gradient-3" />
    <radialGradient
       id="radial-gradient-36"
       cx="24.88"
       cy="10.83"
       r="2.15"
       gradientTransform="matrix(0.92,0,0,1,1.68,0)"
       xlink:href="#radial-gradient-2" />
    <radialGradient
       id="radial-gradient-37"
       cx="28.99"
       cy="4.2"
       r="9.04"
       xlink:href="#radial-gradient-3" />
    <linearGradient
       id="linear-gradient-11"
       x1="28.6"
       y1="9.89"
       x2="34.19"
       y2="6.11"
       xlink:href="#linear-gradient-6" />
    <linearGradient
       id="linear-gradient-12"
       x1="26.38"
       y1="7.61"
       x2="23.39"
       y2="7.21"
       xlink:href="#linear-gradient-3" />
    <radialGradient
       id="radial-gradient-38"
       cx="24.88"
       cy="10.7"
       r="2.34"
       gradientTransform="matrix(0.92,0,0,1,1.68,0)"
       xlink:href="#radial-gradient-2" />
    <radialGradient
       id="radial-gradient-39"
       cx="28.57"
       cy="34.47"
       r="3.16"
       xlink:href="#radial-gradient-4" />
    <linearGradient
       id="linear-gradient-13"
       x1="31.98"
       y1="19.88"
       x2="33.8"
       y2="16.5"
       xlink:href="#linear-gradient-6" />
    <linearGradient
       id="linear-gradient-14"
       x1="28.12"
       y1="12.35"
       x2="28.11"
       y2="10.52"
       xlink:href="#linear-gradient-3" />
    <linearGradient
       id="linear-gradient-15"
       x1="29.48"
       y1="14.16"
       x2="30.07"
       y2="13.27"
       xlink:href="#linear-gradient-3" />
    <radialGradient
       inkscape:collect="always"
       xlink:href="#radial-gradient-2"
       id="radialGradient9703"
       gradientUnits="userSpaceOnUse"
       cx="38.67"
       cy="30.61"
       r="7.39" />
    <linearGradient
       inkscape:collect="always"
       xlink:href="#linear-gradient"
       id="linearGradient9705"
       gradientUnits="userSpaceOnUse"
       x1="36.9"
       y1="34.29"
       x2="32.43"
       y2="37.24" />
    <radialGradient
       inkscape:collect="always"
       xlink:href="#radial-gradient-3"
       id="radialGradient9707"
       gradientUnits="userSpaceOnUse"
       cx="21.42"
       cy="35.62"
       r="10.15" />
    <linearGradient
       inkscape:collect="always"
       xlink:href="#linear-gradient-3"
       id="linearGradient9709"
       gradientUnits="userSpaceOnUse"
       x1="17.69"
       y1="40.48"
       x2="20.29"
       y2="44.56" />
    <radialGradient
       inkscape:collect="always"
       xlink:href="#radial-gradient-4"
       id="radialGradient9711"
       gradientUnits="userSpaceOnUse"
       gradientTransform="matrix(1,0.03,0,1,0.12,-0.78)"
       cx="31.92"
       cy="23.15"
       r="5.14" />
    <radialGradient
       inkscape:collect="always"
       xlink:href="#radial-gradient-21"
       id="radialGradient9713"
       gradientUnits="userSpaceOnUse"
       gradientTransform="matrix(0.8,0.6,-0.26,0.34,13.33,8.85)"
       cx="22.49"
       cy="34.05"
       r="3.67" />
    <linearGradient
       inkscape:collect="always"
       xlink:href="#linear-gradient-6"
       id="linearGradient9715"
       gradientUnits="userSpaceOnUse"
       x1="6.4"
       y1="25.45"
       x2="12.35"
       y2="21.44" />
  </defs>
  <title
     id="title9478">9=CharacterMuscles</title>
  <g
     id="shadow"
     transform="matrix(1.0742882,0,0,1,-0.28098099,1.4023904)"
     style="stroke-width:0.964805">
    <ellipse
       class="cls-1"
       cx="22.66"
       cy="38.439999"
       rx="22.309999"
       ry="8.1400003"
       id="ellipse9480"
       style="fill:url(#radial-gradient);stroke-width:0.964805" />
  </g>
  <g
     id="ART"
     transform="matrix(1.1238138,0,0,1.1235411,-2.434692,-4.8556738)"
     style="stroke-width:0.889935">
    <path
       class="cls-2"
       d="m 33.25,35.48 -1.84,-1 c -1,-0.56 -3.61,-2.09 -4.34,-3.22 a 2.74,2.74 0 0 1 0.4,-3.78 2.28,2.28 0 0 1 3.09,0.29 20.06,20.06 0 0 1 1.68,2.8 5.46,5.46 0 0 0 2.85,2.43 1.88,1.88 0 0 0 0.91,0 3.06,3.06 0 0 1 1.47,0.46 c 0.41,0.26 0.26,0.45 0.46,0.86 0.2,0.41 0.74,0.89 0.76,1.54 0.02,0.65 -1,1.87 -1.43,2.31 a 2.18,2.18 0 0 1 -1.65,0.42 c -0.41,0 -1.07,-0.67 -1.24,-1 A 0.52,0.52 0 0 1 34.4,37 3.36,3.36 0 0 1 33.25,35.48 Z"
       id="path9483"
       style="fill:url(#radialGradient9703);stroke-width:0.889935" />
    <path
       class="cls-3"
       d="m 33.6,33.29 a 8.54,8.54 0 0 0 2.49,1.14 c 0.39,0 0.28,0.36 0.28,0.36 0,0 -0.11,1 0.46,1.06 a 0.69,0.69 0 0 0 0.78,-0.39 c 0,0 0.29,0.36 -0.21,0.6 -0.5,0.24 -1,1.07 -1.31,1.53 -0.31,0.46 -0.57,0.78 -0.57,0.78 0,0 -1.07,-0.07 -1.21,-0.6 -0.14,-0.53 0.25,-0.68 -0.1,-1 a 6.75,6.75 0 0 1 -1,-1.33"
       id="path9485"
       style="fill:url(#linearGradient9705);stroke-width:0.889935" />
    <path
       class="cls-4"
       d="m 16.59,36.7 a 6.79,6.79 0 0 1 -2.95,-2.76 c -0.83,-1.52 -2.21,-4.5 -3.28,-6 a 3.15,3.15 0 0 0 -4,-1.29 c -0.63,0.28 -1,0.36 -1.16,1.42 -0.16,1.06 -0.13,4.28 2.09,5.93 a 67.3,67.3 0 0 1 6.54,5.76 10.85,10.85 0 0 1 1.82,3.07 c 0.14,0.53 1.19,0.45 1.69,0.53 a 4.42,4.42 0 0 0 1.84,-0.16 c 0.48,-0.17 0.54,-0.47 0.72,-0.65 a 10.11,10.11 0 0 0 0.85,-2.43 1.49,1.49 0 0 0 -0.75,-1.25 2.18,2.18 0 0 0 -0.29,-1 2.89,2.89 0 0 0 -1.49,-1 C 17.64,36.76 17.39,37 16.59,36.7 Z"
       id="path9487"
       style="fill:url(#radialGradient9707);stroke-width:0.889935" />
    <path
       class="cls-5"
       d="m 10.74,33.8 a 47.44,47.44 0 0 0 4,3.85 14,14 0 0 1 2,2.5 c 0.26,0.51 -0.65,2.44 -0.73,2.71 -0.08,0.27 -0.62,-1.5 -1.73,-2.75 A 42.72,42.72 0 0 0 11,37"
       id="path9489"
       style="fill:url(#linear-gradient-2);stroke-width:0.889935" />
    <path
       class="cls-6"
       d="m 16.24,43.13 c 0.37,0 0.92,-1.7 1.1,-2.32 0.18,-0.62 0.66,-0.15 1.84,-0.44 1.18,-0.29 1.25,-0.52 1.25,-0.52 a 4.35,4.35 0 0 1 -0.59,2.24 c -0.66,1.13 -0.66,0.88 -1.25,1"
       id="path9491"
       style="fill:url(#linearGradient9709);stroke-width:0.889935" />
    <path
       class="cls-7"
       d="m 33.25,35.48 c 0,0 0,-0.48 -1.36,-1.31 -1,-0.6 -4.09,-1.81 -4.82,-2.94 a 2.74,2.74 0 0 1 0.4,-3.78 2.28,2.28 0 0 1 3.09,0.29 20.06,20.06 0 0 1 1.68,2.8 5.46,5.46 0 0 0 2.85,2.46 1.39,1.39 0 0 0 0.91,0 1.73,1.73 0 0 1 1.47,0.46 1.81,1.81 0 0 1 0.57,1 c 0.2,0.4 0.63,0.77 0.65,1.42 0.02,0.65 -1,1.87 -1.43,2.31 a 2.18,2.18 0 0 1 -1.65,0.42 c -0.41,0 -1.07,-0.67 -1.24,-1 A 0.52,0.52 0 0 1 34.4,37 3.36,3.36 0 0 1 33.25,35.48 Z"
       id="path9493" />
    <path
       class="cls-8"
       d="m 34.45,37.34 a 5.82,5.82 0 0 1 1.19,-1.82 c 0.23,-0.15 0.51,-0.26 0.73,0"
       id="path9495" />
    <path
       class="cls-8"
       d="m 36.54,34.62 c -0.12,0.16 -0.4,1 0,1.19 0.4,0.19 0.71,0.11 0.83,-0.1 a 8.28,8.28 0 0 0 0.33,-0.79 1.61,1.61 0 0 0 0.08,-0.86"
       id="path9497" />
    <path
       class="cls-9"
       d="m 28.43,17.22 a 11.87,11.87 0 0 0 2.94,-0.2 3.34,3.34 0 0 1 3.93,2.53 6.5,6.5 0 0 1 -0.69,3.83 24.35,24.35 0 0 1 -0.35,3 c -0.27,1.37 -2,3.29 -2.63,3.29 -0.63,0 -2.1,-1.51 -2.17,-5.73 a 21.19,21.19 0 0 0 -1.03,-6.72 z"
       id="path9499"
       style="fill:url(#radialGradient9711);stroke-width:0.889935" />
    <path
       class="cls-10"
       d="m 28.43,17.22 a 12.13,12.13 0 0 0 2.36,-0.07 c 2.21,-0.41 4.08,0.32 4.51,2.4 a 6.5,6.5 0 0 1 -0.69,3.83 24.35,24.35 0 0 1 -0.35,3 c -0.27,1.37 -2,3.29 -2.63,3.29 -0.63,0 -2.1,-1.51 -2.17,-5.73 a 21.19,21.19 0 0 0 -1.03,-6.72 z"
       id="path9501" />
    <path
       class="cls-11"
       d="m 34.77,22.24 a 9.65,9.65 0 0 1 -0.4,3.8 3.84,3.84 0 0 1 -1,2.12 19.66,19.66 0 0 1 0.22,3 31.56,31.56 0 0 1 -0.4,4.57 c -0.07,0.74 -0.25,2.68 -0.28,3 a 2.78,2.78 0 0 1 -1.06,1.89 14.09,14.09 0 0 1 -6,2.09 9.33,9.33 0 0 1 -4.7,-0.71 1.29,1.29 0 0 0 -0.16,-0.09 c -0.54,-0.28 -0.38,-0.89 -0.42,-1.39 a 1.88,1.88 0 0 0 -0.22,-0.95 1.17,1.17 0 0 1 -0.21,-0.24 1.19,1.19 0 0 1 -0.16,-0.77 5.28,5.28 0 0 0 0.12,-1.19 14,14 0 0 0 -1,-4.42 25.76,25.76 0 0 0 -2.19,-3 8.69,8.69 0 0 1 -1,-2.66 c -0.92,0.14 -0.29,0.31 -0.29,0.31 A 4.46,4.46 0 0 1 13.14,28.9 10.48,10.48 0 0 1 10,29 C 9.36,29 8.72,28.91 8.1,28.93 a 2.67,2.67 0 0 1 -1.7,-0.29 1.31,1.31 0 0 1 -0.75,-1 2,2 0 0 1 0.36,-1 C 6.17,26.3 6.27,25.93 6.42,25.59 A 3.76,3.76 0 0 1 7.73,24 13.32,13.32 0 0 1 9.62,23 11.39,11.39 0 0 1 14,19.2 a 11.39,11.39 0 0 1 4.15,-1 26.77,26.77 0 0 0 3,-1.27 c 1,-0.55 1.56,-0.69 1.79,-0.83 a 8.34,8.34 0 0 0 1,-2 12.67,12.67 0 0 0 0.28,-2.5 c 0,-0.51 0.11,-3.3 3.69,-3.3 3.58,0 3.09,4.7 3.02,5.7 a 10.39,10.39 0 0 1 -0.81,2.47 c -0.11,0.28 -0.22,0.52 -0.3,0.69 -0.08,0.17 -0.12,0.27 -0.12,0.27 0.88,0.36 2.33,-0.2 3.41,0 a 3.62,3.62 0 0 1 0.88,0.39 v 0 c 2.01,1.92 0.54,3.56 0.78,4.42 z"
       id="path9503"
       style="fill:url(#radial-gradient-5);stroke-width:0.889935" />
    <path
       class="cls-12"
       d="m 34.77,22.24 a 9.65,9.65 0 0 1 -0.4,3.8 3.84,3.84 0 0 1 -1,2.12 19.66,19.66 0 0 1 0.22,3 31.56,31.56 0 0 1 -0.4,4.57 c -0.07,0.74 -0.25,2.68 -0.28,3 a 2.78,2.78 0 0 1 -1.06,1.89 14.09,14.09 0 0 1 -6,2.09 9.33,9.33 0 0 1 -4.7,-0.71 1.29,1.29 0 0 0 -0.16,-0.09 c -0.54,-0.28 -0.38,-0.89 -0.42,-1.39 a 1.88,1.88 0 0 0 -0.22,-0.95 1.17,1.17 0 0 1 -0.21,-0.24 1.19,1.19 0 0 1 -0.16,-0.77 5.28,5.28 0 0 0 0.12,-1.19 14,14 0 0 0 -1,-4.42 25.76,25.76 0 0 0 -2.19,-3 8.69,8.69 0 0 1 -1,-2.66 c -0.92,0.14 -0.29,0.31 -0.29,0.31 A 4.46,4.46 0 0 1 13.14,28.9 10.48,10.48 0 0 1 10,29 C 9.36,29 8.72,28.91 8.1,28.93 a 2.67,2.67 0 0 1 -1.7,-0.29 1.31,1.31 0 0 1 -0.75,-1 2,2 0 0 1 0.36,-1 C 6.17,26.3 6.27,25.93 6.42,25.59 A 3.76,3.76 0 0 1 7.73,24 13.32,13.32 0 0 1 9.62,23 11.39,11.39 0 0 1 14,19.2 a 11.39,11.39 0 0 1 4.15,-1 26.77,26.77 0 0 0 3,-1.27 c 1,-0.55 1.56,-0.69 1.79,-0.83 a 8.34,8.34 0 0 0 1,-2 12.67,12.67 0 0 0 0.28,-2.5 c 0,-0.51 0.11,-3.3 3.69,-3.3 3.58,0 3.09,4.7 3.02,5.7 a 10.39,10.39 0 0 1 -0.81,2.47 c -0.11,0.28 -0.22,0.52 -0.3,0.69 -0.08,0.17 -0.12,0.27 -0.12,0.27 0.88,0.36 2.33,-0.2 3.41,0 a 3.62,3.62 0 0 1 0.88,0.39 v 0 c 2.01,1.92 0.54,3.56 0.78,4.42 z"
       id="path9505"
       style="fill:url(#linear-gradient-4);stroke-width:0.889935" />
    <path
       class="cls-13"
       d="m 29.61,16.62 0.51,-0.12 c -0.11,0.28 -0.22,0.52 -0.3,0.69 h -0.2 l -0.09,-0.47 z"
       id="path9507"
       style="fill:url(#radial-gradient-6);stroke-width:0.889935" />
    <path
       class="cls-14"
       d="m 28.65,16.59 a 4.24,4.24 0 0 0 0.93,0.43 v 0.2 a 3.89,3.89 0 0 1 2.51,-0.29 5.23,5.23 0 0 1 0.66,0.18 c -1,0 -1.45,1.7 -2.39,2.63 a 6.28,6.28 0 0 1 -1,0.89 0.62,0.62 0 0 1 -0.77,-0.26 3,3 0 0 1 -0.17,-0.7 9,9 0 0 1 0.71,-2.61 c 0,-0.11 -0.13,-0.12 -0.41,-0.17"
       id="path9509"
       style="fill:url(#radial-gradient-7);stroke-width:0.889935" />
    <path
       class="cls-15"
       d="M 28.76,16.89 A 2.55,2.55 0 0 1 27.3,16.07 L 26.44,15.6 a 27.23,27.23 0 0 0 0.56,3.66 6.6,6.6 0 0 0 0.5,1.12 c 0.15,0.28 0,0.67 -0.15,0.61 -0.15,-0.06 -0.56,-0.18 -0.8,-0.26 -1.74,-0.54 -2.59,-0.59 -4.23,-1.13 A 9.14,9.14 0 0 1 20.2,18.41 4.91,4.91 0 0 0 22.94,16 a 8.06,8.06 0 0 0 1,-2 13.33,13.33 0 0 0 0.29,-2.43 c 0,0 1.13,-1.1 1.62,-0.1 0.49,1 2.42,4.82 2.42,4.82 0,0 0.16,0.12 0.41,0.27"
       id="path9511"
       style="fill:url(#radial-gradient-8);stroke-width:0.889935" />
    <path
       class="cls-16"
       d="m 31.3,20 c 0.46,-0.55 1,-2.08 1.36,-2.44 0.36,-0.36 1.07,0.12 1.33,0.3 a 2.89,2.89 0 0 1 1.07,1.54 5.32,5.32 0 0 1 -0.35,2.87 c -0.4,1.16 -2.41,0.46 -2.41,0.46 z"
       id="path9513"
       style="fill:url(#radial-gradient-9);stroke-width:0.889935" />
    <path
       class="cls-17"
       d="m 18.72,18 v 0 a 2.11,2.11 0 0 1 -0.61,0.06 25.09,25.09 0 0 0 3,-1.25 l 0.55,-0.29 c -0.47,0.31 -1,0.64 -1.4,0.87 C 19.61,17.71 18.78,18 18.72,18 Z"
       id="path9515"
       style="fill:url(#radial-gradient-10);stroke-width:0.889935" />
    <path
       class="cls-18"
       d="m 23,15.65 -0.1,0.37 c -0.19,0.12 -0.59,0.23 -1.24,0.55 C 22.42,16.09 23,15.65 23,15.65 Z"
       id="path9517"
       style="fill:url(#radial-gradient-11);stroke-width:0.889935" />
    <path
       class="cls-19"
       d="m 24.9,41.83 a 1.75,1.75 0 0 1 -1.67,0.51 c -0.6,-0.06 -2.07,-0.06 -2.74,-0.87 0,-0.43 0,-0.82 0.05,-1 A 1.51,1.51 0 0 0 19.96,39.17 0.27,0.27 0 0 1 19.72,38.96 4.66,4.66 0 0 0 20,37.2 c -0.1,-0.88 -0.15,-2.9 -0.15,-2.9 l 2.15,1.53 0.61,2 a 7.62,7.62 0 0 0 2.22,1.85 c 0.63,0.37 0.58,1.62 0.07,2.15 z"
       id="path9519"
       style="fill:url(#radial-gradient-12);stroke-width:0.889935" />
    <path
       class="cls-20"
       d="m 29.56,31.84 c 0,0.58 -0.1,0.84 -1.15,1.27 a 5.72,5.72 0 0 1 -2.2,0.36 c -0.26,0 -0.64,0 -0.72,-0.33 -0.08,-0.33 0.14,-0.6 0.2,-0.85 a 6.22,6.22 0 0 0 0.17,-1 c 0,-0.44 0.18,-0.59 0.62,-0.62 a 5.8,5.8 0 0 0 1.43,-0.31 4.65,4.65 0 0 0 0.81,-0.33 c 0.21,-0.11 0.69,-0.16 0.75,0.2 a 7.45,7.45 0 0 1 0.09,1.61 z"
       id="path9521"
       style="fill:url(#radial-gradient-13);stroke-width:0.889935" />
    <path
       class="cls-21"
       d="m 30.93,29.47 c -0.4,0.09 -0.86,0.25 -0.78,0.73 a 9.67,9.67 0 0 1 0.05,1.67 c 0,0.36 0.54,0.43 1.25,0.21 A 3.14,3.14 0 0 0 33.2,31 3.45,3.45 0 0 0 33.06,28.5 c 0,0 -0.25,0.57 -2.13,0.97 z"
       id="path9523"
       style="fill:url(#radial-gradient-14);stroke-width:0.889935" />
    <path
       class="cls-22"
       d="m 31,32.72 c -0.37,0 -0.85,0.25 -0.74,0.66 a 6.45,6.45 0 0 1 0,1.62 c 0,0.35 0.25,0.52 1.05,0.2 a 3.32,3.32 0 0 0 1.7,-1.48 c 0.28,-0.54 0.5,-1.9 0.17,-2.21 0,0 0,0.25 -0.57,0.57 A 5.67,5.67 0 0 1 31,32.72 Z"
       id="path9525"
       style="fill:url(#radial-gradient-15);stroke-width:0.889935" />
    <path
       class="cls-23"
       d="m 33,34.47 a 3,3 0 0 1 -1.93,1.36 c -0.23,0.08 -0.52,0.18 -0.53,0.48 -0.01,0.3 0.07,0.85 0.06,1.29 -0.01,0.44 -0.07,0.64 0.22,0.71 a 2.48,2.48 0 0 0 1.87,-1.17 3,3 0 0 0 0.24,-1.85"
       id="path9527"
       style="fill:url(#radial-gradient-16);stroke-width:0.889935" />
    <path
       class="cls-24"
       d="m 32.71,37.46 a 1.89,1.89 0 0 1 -1,1.07 c -0.48,0.28 -0.73,0.32 -0.87,0.54 -0.14,0.22 0.15,0.94 0,1.68 -0.15,0.74 0.25,0.39 0.66,0.31 0.41,-0.08 0.86,-0.79 1.35,-1.68 a 2.14,2.14 0 0 0 -0.14,-1.92 z"
       id="path9529"
       style="fill:url(#radial-gradient-17);stroke-width:0.889935" />
    <path
       class="cls-25"
       d="M 26.14,36.92 A 5.59,5.59 0 0 0 29,36.55 c 0.34,-0.15 0.7,-0.31 0.9,0.26 a 2.54,2.54 0 0 1 -0.07,1.81 4.84,4.84 0 0 1 -3,0.53 c -0.75,-0.15 -1,-0.42 -1,-0.79 0,-0.37 -0.3,-1.62 0.31,-1.44 z"
       id="path9531"
       style="fill:url(#radial-gradient-18);stroke-width:0.889935" />
    <path
       class="cls-26"
       d="m 28.58,39.61 a 4.73,4.73 0 0 1 -2.24,-0.09 c -0.32,-0.09 -0.3,0.77 -0.14,1.41 0.16,0.64 0.59,1.34 1.27,1.25 a 18.8,18.8 0 0 0 2.68,-1 2.92,2.92 0 0 0 0,-1.65 c -0.09,-0.3 -0.31,-0.38 -0.68,-0.2 a 5.69,5.69 0 0 1 -0.89,0.28 z"
       id="path9533"
       style="fill:url(#radial-gradient-19);stroke-width:0.889935" />
    <path
       class="cls-27"
       d="m 19.77,25 a 10.77,10.77 0 0 0 0.69,2.51 c 0.45,1 2.74,4.61 2.31,5.22 -0.43,0.61 -2.08,2.84 -2.72,2.68 0,0 -0.28,-2.48 -3.29,-5.69 a 4.43,4.43 0 0 1 -1,-2.85 c 0,0 2.81,-1.41 4.01,-1.87 z"
       id="path9535"
       style="fill:url(#radial-gradient-20);stroke-width:0.889935" />
    <path
       class="cls-28"
       d="m 19.63,31 c -0.9,-0.57 -1.26,-1.25 -1.53,-1.32 -0.27,-0.07 0.46,2 1.35,3.54 a 10.54,10.54 0 0 0 4.91,4 c 1.33,0.27 0.71,-1.51 0.4,-1.93 -0.31,-0.42 -0.57,-0.53 -1.47,-1.13"
       id="path9537"
       style="fill:url(#radialGradient9713);stroke-width:0.889935" />
    <path
       class="cls-29"
       d="m 19.47,32.8 a 9,9 0 0 0 3.65,3.66 c 1.67,0.8 1.88,1.09 2.15,1.8 0.27,0.71 0.3,1.18 -0.61,1 a 6.67,6.67 0 0 1 -3.17,-2.05 9.49,9.49 0 0 1 -1.93,-3.35"
       id="path9539"
       style="fill:url(#radial-gradient-22);stroke-width:0.889935" />
    <path
       class="cls-30"
       d="m 19.9,29 c -0.61,-0.15 -1.4,-0.63 -1.57,-0.5 a 6.32,6.32 0 0 0 1.17,2.76 16.72,16.72 0 0 0 2.36,2.44 6.34,6.34 0 0 0 2.53,1.3 c 0.29,0 0.77,-0.57 0.48,-1.42 A 3.76,3.76 0 0 0 23.5,32.03"
       id="path9541"
       style="fill:url(#radial-gradient-23);stroke-width:0.889935" />
    <path
       class="cls-31"
       d="m 18.27,31.27 c -1,-1.14 -1.51,-2.24 -0.55,-2.78 A 4.23,4.23 0 0 1 19.83,28 18,18 0 0 1 19,26.19 l -2.8,1.52 A 3.21,3.21 0 0 0 17,29.8"
       id="path9543"
       style="stroke-width:0.889935" />
    <path
       class="cls-31"
       d="m 17.09,27.85 a 4.62,4.62 0 0 0 1.07,2.07 4.26,4.26 0 0 1 -0.28,-2.45"
       id="path9545"
       style="stroke-width:0.889935" />
    <path
       class="cls-31"
       d="m 17.68,27.49 a 4.67,4.67 0 0 0 1.07,2.07 4.26,4.26 0 0 1 -0.28,-2.45"
       id="path9547"
       style="stroke-width:0.889935" />
    <path
       class="cls-31"
       d="M 18.43,27.36 A 4.67,4.67 0 0 0 19.5,29.43 4.26,4.26 0 0 1 19.22,27"
       id="path9549"
       style="stroke-width:0.889935" />
    <path
       class="cls-32"
       d="m 25.32,30.07 c 0.25,0.15 0.18,1.11 0,1.56 -0.18,0.45 -0.34,1 -1.06,0.93 a 9.25,9.25 0 0 1 -4.88,-4.4 16.22,16.22 0 0 1 5.94,1.91 z"
       id="path9551"
       style="fill:url(#radial-gradient-24);stroke-width:0.889935" />
    <path
       class="cls-33"
       d="m 8.45,31.2 a 15.05,15.05 0 0 1 3.58,4 30.28,30.28 0 0 1 2.09,4.52 c 0,0 -3,-2.45 -3.84,-3.11 A 18.7,18.7 0 0 1 6.52,33.34 C 5.44,31.87 5.33,30.14 5.71,29.85 6.09,29.56 7.39,30.69 8.45,31.2 Z"
       id="path9553"
       style="fill:url(#radial-gradient-25);stroke-width:0.889935" />
    <path
       class="cls-34"
       d="m 5.17,27.78 c -0.2,0.93 0.71,3.58 2.33,4.23 1.62,0.65 3.07,-0.12 5.62,3.13 a 6.17,6.17 0 0 0 3.94,2 8,8 0 0 1 -2.91,-2.39 c -1.44,-1.8 -3,-5.31 -3.57,-5.81 -0.57,-0.5 -4.72,-1.55 -4.76,-2.38 0,0.03 -0.4,0.03 -0.65,1.22 z"
       id="path9555"
       style="fill:url(#radial-gradient-26);stroke-width:0.889935" />
    <path
       class="cls-35"
       d="m 12,31.56 a 12.63,12.63 0 0 0 -3.76,-3 l 2.95,0.67"
       id="path9557"
       style="fill:url(#radial-gradient-27);stroke-width:0.889935" />
    <path
       class="cls-36"
       d="m 6.12,26.63 c -0.39,0.67 0.18,4.65 3,5.67 a 6,6 0 0 0 1.27,2.14 c 1.09,1.34 4.11,4.89 4.75,6.55 a 36.19,36.19 0 0 0 -4,-3.8 c -1.48,-1.06 -4,-2.53 -5,-4.61 A 12.05,12.05 0 0 1 5.2,28"
       id="path9559"
       style="fill:url(#linear-gradient-5);stroke-width:0.889935" />
    <path
       class="cls-10"
       d="m 16.59,36.7 a 6.79,6.79 0 0 1 -2.95,-2.76 c -0.83,-1.52 -2.21,-4.5 -3.28,-6 C 9.29,26.44 8.54,25 7.12,25.6 a 4.14,4.14 0 0 0 -1.63,1.91 6.28,6.28 0 0 0 0,2.89 c 0.32,2.12 1.19,3.35 3.55,5.11 a 40.55,40.55 0 0 1 4.76,4.27 c 0.81,0.92 1.66,2.85 2.14,3.35 0.3,0.32 2.72,0.26 3.21,0.09 a 1.05,1.05 0 0 0 0.72,-0.65 17.43,17.43 0 0 0 0.85,-2.43 1.49,1.49 0 0 0 -0.72,-1.27 2.18,2.18 0 0 0 -0.29,-1 2.89,2.89 0 0 0 -1.49,-1 C 17.64,36.76 17.39,37 16.59,36.7 Z"
       id="path9561" />
    <path
       class="cls-37"
       d="m 10.42,22.46 a 20.44,20.44 0 0 0 -2.74,1.43 4.27,4.27 0 0 0 -1.86,3.31 0.67,0.67 0 0 0 0.12,0.57 c 0.54,0.53 2.46,-1.22 2.89,-1.56 0.6,-0.48 1.86,-1.31 2,-2.16 a 2,2 0 0 0 -0.41,-1.59 z"
       id="path9563"
       style="fill:url(#radial-gradient-28);stroke-width:0.889935" />
    <path
       class="cls-38"
       d="m 6.25,26.3 a 8.55,8.55 0 0 1 3.64,-2.53 l 0.33,-1.23 a 17.27,17.27 0 0 0 -2.64,1.37 6.94,6.94 0 0 0 -1.64,2.15"
       id="path9565"
       style="fill:url(#linearGradient9715);stroke-width:0.889935" />
    <path
       class="cls-39"
       d="m 6.11,28.05 c -0.17,0 -0.3,-0.11 -0.28,-0.33 a 1.16,1.16 0 0 1 0.32,-0.63 1.8,1.8 0 0 1 0.62,-0.54 7,7 0 0 1 1.05,-0.47 c 0,0 4.55,-1.79 6,-1.63 4.59,0.52 3.47,0.79 5.08,1.61 0,0 -1.89,1.13 -2.4,1.47 A 4.74,4.74 0 0 1 13.59,29.08 8.31,8.31 0 0 1 9,28.69 C 8.65,28.55 8.31,28.38 7.95,28.27 A 4.61,4.61 0 0 0 6.63,28.06 2.82,2.82 0 0 1 6.11,28.05 Z"
       id="path9567"
       style="fill:url(#radial-gradient-29);stroke-width:0.889935" />
    <path
       class="cls-40"
       d="m 18.93,25.65 a 9.82,9.82 0 0 1 -4.46,0 7.68,7.68 0 0 0 3,1.09"
       id="path9569"
       style="fill:url(#radial-gradient-30);stroke-width:0.889935" />
    <path
       class="cls-41"
       d="m 12,25.24 a 9.6,9.6 0 0 0 -2.61,0.34 c -0.06,0 -0.38,0.06 -0.41,0.11 -0.03,0.05 0.49,-0.89 0.94,-1.81 a 11,11 0 0 1 0.85,-1.65 7.09,7.09 0 0 1 2.75,-2.76 5.69,5.69 0 0 1 4.77,-0.73 c 1,0.43 2.47,1.31 3.27,1.57 0.8,0.26 2.86,0.62 2.86,0.62 -0.23,0.68 -3.22,2.36 -4.05,3.66 -0.83,1.3 1.24,0.07 -0.67,0.72 A 6.22,6.22 0 0 1 14.52,25.66 10.62,10.62 0 0 0 12,25.24 Z"
       id="path9571"
       style="fill:url(#radial-gradient-31);stroke-width:0.889935" />
    <path
       class="cls-42"
       d="m 21.21,20.2 a 47.89,47.89 0 0 0 -6.48,0.25 c -2.12,0.36 -4.41,2.78 -4.69,3.08 a 7.84,7.84 0 0 1 0.68,-1.3 7.08,7.08 0 0 1 2.68,-2.73 c 0,0 0,0 0.06,0 a 9.07,9.07 0 0 1 4.19,-0.89 2.21,2.21 0 0 1 0.58,0.17 c 0.88,0.35 2.14,1.07 2.98,1.42 z"
       id="path9573"
       style="fill:url(#linear-gradient-7);stroke-width:0.889935" />
    <path
       class="cls-43"
       d="m 30.78,20.39 a 2.79,2.79 0 0 0 -1.38,2.77 c 0.24,1.17 0.24,2.37 0.43,3.54 0.17,1 0.6,2.49 1.94,2.18 a 4.14,4.14 0 0 0 2.34,-2.7 16.69,16.69 0 0 0 0.26,-5.28 c -0.2,-1.53 -1,-1.92 -1.75,-1.92 -0.52,0.02 -0.85,0.6 -1.84,1.41 z"
       id="path9575"
       style="fill:url(#radial-gradient-32);stroke-width:0.889935" />
    <path
       class="cls-10"
       d="m 11.29,29.3 c 2.86,0.22 4,-0.17 6.59,-2.62 A 2.27,2.27 0 0 1 19,26"
       id="path9577" />
    <path
       class="cls-10"
       d="m 5.49,27.51 a 9.07,9.07 0 0 1 2.42,-3.77 7.69,7.69 0 0 1 2.35,-1.3 10,10 0 0 1 3.74,-3.24 13.11,13.11 0 0 1 4.15,-1 26.06,26.06 0 0 0 3,-1.26 22,22 0 0 0 1.91,-1.3 2.5,2.5 0 0 0 0.85,-1.54 12,12 0 0 0 0.29,-2.5 c 0,-0.5 0.11,-3.3 3.68,-3.3 3.57,0 3.12,4.7 3.05,5.7"
       id="path9579" />
    <path
       class="cls-31"
       d="m 20.7,41.23 a 5.15,5.15 0 0 0 2.67,1 13.09,13.09 0 0 0 3,0 13.09,13.09 0 0 0 2.89,-0.8 13.13,13.13 0 0 0 1.38,-0.61 4.87,4.87 0 0 0 1.19,-0.76 2.28,2.28 0 0 0 0.6,-1.16 c 0.09,-0.45 0.11,-1 0.17,-1.5 l 0.15,-1.54 c 0,-0.54 0.15,-1.05 0.22,-1.55 a 21.29,21.29 0 0 0 0,-6.07 0.42,0.42 0 0 1 0.12,-0.34 v 0 a 3.64,3.64 0 0 0 0.81,-1.58 12.07,12.07 0 0 0 0.37,-1.92 18.82,18.82 0 0 0 0,-4 0.08,0.08 0 0 1 0.08,-0.1 0.08,0.08 0 0 1 0.1,0.07 11.79,11.79 0 0 1 0.55,4.07 11,11 0 0 1 -0.34,2 4.11,4.11 0 0 1 -1,2 l 0.14,-0.36 a 22.24,22.24 0 0 1 0,6.31 c -0.06,0.52 -0.15,1 -0.19,1.53 l -0.14,1.55 c -0.07,0.54 -0.07,1 -0.18,1.59 a 3.21,3.21 0 0 1 -0.82,1.55 5.58,5.58 0 0 1 -1.41,0.92 15.57,15.57 0 0 1 -1.45,0.64 12.94,12.94 0 0 1 -3.09,0.83 13.17,13.17 0 0 1 -3.2,0 5.67,5.67 0 0 1 -3,-1.22 0.36,0.36 0 0 1 0,-0.49 0.35,0.35 0 0 1 0.49,0 z"
       id="path9581"
       style="stroke-width:0.889935" />
    <path
       class="cls-31"
       d="m 16.34,28.23 a 13.42,13.42 0 0 0 1.66,2.35 10.86,10.86 0 0 1 1.69,2.58 14.56,14.56 0 0 1 0.67,3 4.12,4.12 0 0 1 -0.41,3 0.09,0.09 0 0 1 -0.14,0 0.1,0.1 0 0 1 0,-0.06 4.86,4.86 0 0 1 0,-1.47 7,7 0 0 0 -0.12,-1.41 13.26,13.26 0 0 0 -0.7,-2.79 10,10 0 0 0 -1.56,-2.38 12.25,12.25 0 0 1 -1.66,-2.58 0.35106979,0.35106979 0 0 1 0.63,-0.31 z"
       id="path9583"
       style="stroke-width:0.889935" />
    <path
       class="cls-44"
       d="M 22.44,42.25 C 21.92,41.87 21.81,38.77 21.88,36.73 A 14.93,14.93 0 0 0 21.49,33.4 c -0.12,-0.64 -0.26,-1.27 -0.41,-1.9 -0.15,-0.63 -0.35,-1.1 0,-1.72 0,0 -1.27,-1.6 -1.4,-1.76 a 9.67,9.67 0 0 0 -1.08,-1 L 16,28.85 c 0,0 2.92,3.1 3.34,4.4 0.42,1.3 0.35,0.81 0.42,1.3 0.07,0.49 0.32,4.43 0.32,4.43 a 0.86,0.86 0 0 1 0.56,1 10,10 0 0 1 -0.42,1.48"
       id="path9585"
       style="fill:url(#linear-gradient-8);stroke-width:0.889935" />
    <path
       class="cls-45"
       d="m 20.34,28.63 c 0.52,1 2.26,1.66 4.34,1.63 2.08,-0.03 3.31,-0.19 3.92,-0.72 0.61,-0.53 0.77,-1.73 0.59,-3.51 A 8.32,8.32 0 0 0 28,22.27 c -0.82,-0.71 -1.73,-0.73 -3.67,-1.34 -1.66,-0.53 -2.55,-0.17 -3.28,0.61 a 9.62,9.62 0 0 0 -1.65,2.63 5.37,5.37 0 0 0 0.94,4.46 z"
       id="path9587"
       style="fill:url(#radial-gradient-33);stroke-width:0.889935" />
    <path
       class="cls-46"
       d="m 27.68,16.4 a 4.88,4.88 0 0 1 -2,-1.75 l -0.29,-0.44 c -0.06,-0.1 -0.1,-0.17 -0.1,-0.15 l -0.4,-0.63 v -0.16 l -0.2,-1.19 -0.36,-0.24 -0.18,0.3 h -0.08 a 6.9,6.9 0 0 1 -0.83,3.1 8,8 0 0 1 -1.24,1.13 c -0.66,0.44 -4,1.87 -4,1.87 l 0.42,0.45 c 0,0 3.91,-0.28 5.26,-1.63 a 4,4 0 0 0 0.67,-0.87 7.65,7.65 0 0 0 0.32,-0.71 c 0.06,-0.13 0.23,-0.52 0.43,-0.47 0.2,0.05 0.33,0.47 0.39,0.62 0.15,0.33 0.21,0.69 0.37,1 a 4,4 0 0 0 0.46,0.76 3.33,3.33 0 0 0 1.29,1.18 1.16,1.16 0 0 0 0.52,0.11 1.07,1.07 0 0 0 1.09,-0.68 l 0.15,-1.05 A 5.37,5.37 0 0 1 27.68,16.4 Z"
       id="path9589"
       style="fill:url(#linear-gradient-9);stroke-width:0.889935" />
    <path
       class="cls-47"
       d="m 32.26,7.23 a 4.88,4.88 0 0 1 0.23,1.77 6.25,6.25 0 0 1 -0.19,1.43 1.25,1.25 0 0 0 -0.11,0.92 1.93,1.93 0 0 1 -0.38,1.92 c -0.66,0.82 -1,2.51 -1.42,3.06 a 1.65,1.65 0 0 1 -1.56,0.68 4,4 0 0 1 -2.44,-1.52 5.06,5.06 0 0 1 -1.57,-3.19 c 0,-1.08 -1.17,-2.43 -0.65,-4.56 A 4.33,4.33 0 0 1 28.55,5 a 6.69,6.69 0 0 1 3.1,1.31 2.49,2.49 0 0 1 0.61,0.92 z"
       id="path9591"
       style="fill:url(#radial-gradient-34);stroke-width:0.889935" />
    <path
       class="cls-48"
       d="m 27,15.88 a 3.87,3.87 0 0 0 2.23,0.17 1.67,1.67 0 0 0 1,-0.67 c 0.06,-0.17 -0.15,1.18 -0.75,1.32 a 3.68,3.68 0 0 1 -1.6,-0.2"
       id="path9593"
       style="fill:url(#radial-gradient-35);stroke-width:0.889935" />
    <path
       class="cls-49"
       d="m 32,11.07 c 0.08,0.37 -0.11,0.6 -0.74,0.7 -0.43,0.06 -0.43,0.42 -0.47,0.48 a 5.49,5.49 0 0 1 -0.22,-1.47 0.35,0.35 0 0 1 0.32,-0.31 c 0.37,0 1,0 1.21,-0.34 0,0.1 0,0.2 0,0.3 0,0.1 -0.2,0.39 -0.1,0.64 z"
       id="path9595"
       style="fill:url(#linear-gradient-10);stroke-width:0.889935" />
    <path
       class="cls-50"
       d="M 24.86,12.28 A 5,5 0 0 0 25.31,14 3.1,3.1 0 0 1 24.45,12.33"
       id="path9597"
       style="fill:url(#radial-gradient-36);stroke-width:0.889935" />
    <path
       class="cls-51"
       d="M 25.56,6.27 C 24.56,6.36 24.3,8.9 24.3,8.9 l -0.15,1.22 A 14.37,14.37 0 0 1 24.3,7.05 c 0.24,-0.78 1.46,-1.68 3.24,-2.14 a 3.93,3.93 0 0 1 3.7,1 2.34,2.34 0 0 1 0.88,1.64 c 0,-0.1 -0.67,-1.36 -1.14,-1.31 -0.47,0.05 -0.37,1.21 -0.47,1.87 A 4.9,4.9 0 0 0 29.91,6.9 c -0.44,-0.65 -2.23,-1.7 -2.47,0 0,0.24 -0.47,2.27 -0.54,2.58 -0.07,0.31 -0.35,0.4 -0.49,0.51 A 1.41,1.41 0 0 0 25.8,10.75 1.06,1.06 0 0 1 26,9.94 c 0.32,-0.39 0.35,-0.3 0.35,-0.93 0,-0.63 0.03,-2.68 -0.79,-2.74 z"
       id="path9599"
       style="fill:url(#radial-gradient-37);stroke-width:0.889935" />
    <path
       class="cls-52"
       d="m 30.69,14.21 c 0.17,-0.49 0.76,-1.43 0.84,-1.82 C 31.61,12 31.31,10.83 31.41,10.46 A 8.22,8.22 0 0 0 31.22,7.8 2.9,2.9 0 0 0 29.14,5.8 3.61,3.61 0 0 0 26.77,6 C 26.2,6.22 26.25,5.48 27.23,5.26 28.21,5.04 29.7,4.55 31.04,5.91 32.38,7.27 32.62,7.6 32.47,8.5 a 13.05,13.05 0 0 0 -0.15,2.78 c 0.07,0.45 0.3,1.31 -0.35,1.86"
       id="path9601"
       style="fill:url(#linear-gradient-11);stroke-width:0.889935" />
    <path
       class="cls-53"
       d="M 27.5,5.28 A 2.83,2.83 0 0 0 25.12,7.71 8.76,8.76 0 0 0 24.94,10 c 0,0 -1,-0.65 -1,-0.92 a 7.27,7.27 0 0 1 0.88,-2.75 18.87,18.87 0 0 1 2.07,-1.19"
       id="path9603"
       style="fill:url(#linear-gradient-12);stroke-width:0.889935" />
    <path
       class="cls-10"
       d="m 29.74,16.81 a 1.5,1.5 0 0 0 0.67,-0.76 5.67,5.67 0 0 1 1.4,-2.76 c 0.8,-0.68 0.48,-1.38 0.38,-1.92 A 0.9,0.9 0 0 1 32.3,10.55 3.6,3.6 0 0 0 32.54,9 3.88,3.88 0 0 0 30.28,5.24 a 4.79,4.79 0 0 0 -4.13,0.07 3.73,3.73 0 0 0 -2,4.26"
       id="path9605" />
    <path
       class="cls-31"
       d="m 26,15.09 a 6.5,6.5 0 0 0 1.76,1.25 3.35,3.35 0 0 0 1,0.3 1.87,1.87 0 0 0 0.9,-0.2 v 0 a 0.25,0.25 0 0 1 0.32,0.14 0.25,0.25 0 0 1 -0.1,0.31 1.82,1.82 0 0 1 -1.22,0.25 A 3.72,3.72 0 0 1 27.59,16.66 5.63,5.63 0 0 1 26,15.13 c 0,0 0,0 0,0 z"
       id="path9607"
       style="stroke-width:0.889935" />
    <path
       class="cls-54"
       d="M 24.89,12.56 A 0.59,0.59 0 0 1 24.26,12.76 1.7,1.7 0 0 1 23.19,11 c 0,-0.85 0.25,-1.39 0.87,-1.41 a 1.67,1.67 0 0 1 0.84,0.44 c -0.04,0.47 -0.03,1.67 -0.01,2.53 z"
       id="path9609"
       style="fill:url(#radial-gradient-38);stroke-width:0.889935" />
    <path
       class="cls-31"
       d="m 16.68,18.74 a 5.35,5.35 0 0 1 2.59,0.5 2.53,2.53 0 0 0 -1.33,-0.91"
       id="path9611"
       style="stroke-width:0.889935" />
    <path
       class="cls-55"
       d="m 25.67,33.91 a 8.48,8.48 0 0 0 2.33,-0.13 5.07,5.07 0 0 0 1.06,-0.4 c 0.17,-0.08 0.39,-0.11 0.47,0.09 a 3.88,3.88 0 0 1 0.13,1.28 2.12,2.12 0 0 1 -0.05,0.8 0.65,0.65 0 0 1 -0.4,0.44 5.6,5.6 0 0 1 -1.69,0.43 c -1.16,0.1 -1.76,-0.12 -1.91,-0.4 a 3.73,3.73 0 0 1 -0.32,-1.51 c 0.01,-0.51 0.38,-0.6 0.38,-0.6 z"
       id="path9613"
       style="fill:url(#radial-gradient-39);stroke-width:0.889935" />
    <path
       class="cls-31"
       d="M 24.06,14.79 A 6.58,6.58 0 0 1 21.8,18 a 7,7 0 0 0 1,-2.21"
       id="path9615"
       style="stroke-width:0.889935" />
    <path
       class="cls-31"
       d="m 33.93,26.52 c -0.32,0.56 -1.08,2.07 -2.37,2.39 A 2.37,2.37 0 0 0 34,27.57"
       id="path9617"
       style="stroke-width:0.889935" />
    <path
       class="cls-31"
       d="m 19.53,26.73 a 5,5 0 0 0 2.4,2.8 12.72,12.72 0 0 0 3.79,0.69 11.75,11.75 0 0 1 -4,-0.28 4.22,4.22 0 0 1 -2.9,-3.06 c 0,-0.06 -0.4,-0.85 -0.4,-0.85 l 0.84,-0.66 a 6.34,6.34 0 0 0 0.27,1.36 z"
       id="path9619"
       style="stroke-width:0.889935" />
    <path
       class="cls-8"
       d="m 7.34,28.15 a 12.91,12.91 0 0 0 5,1"
       id="path9621" />
    <path
       class="cls-31"
       d="m 11,22 a 13.45,13.45 0 0 0 -1.17,2 8.68,8.68 0 0 1 0.31,-1.53"
       id="path9623"
       style="stroke-width:0.889935" />
    <path
       class="cls-56"
       d="m 34.76,22.09 v 0.07 a 0.17,0.17 0 0 1 -0.09,0 L 34.5,21 a 2.43,2.43 0 0 0 -1.08,-2.67 c -1.27,-0.75 -4,-0.39 -4,-0.39 l 0.14,-0.92 a 2.33,2.33 0 0 1 0.38,0 c 0,0.1 -0.17,0.21 -0.2,0.28 a 8,8 0 0 1 2.75,0.05 c 0.22,0 0.43,0.1 0.62,0.16 v 0 a 4.11,4.11 0 0 1 0.72,0.3 l 0.12,0.08 c 0,0 0,0 0,0 a 2.89,2.89 0 0 1 1.06,1.52 5.35,5.35 0 0 1 -0.25,2.68 z"
       id="path9625"
       style="fill:url(#linear-gradient-13);stroke-width:0.889935" />
    <path
       class="cls-31"
       d="m 30.1,16.83 -0.88,0.06 a 6.59,6.59 0 0 0 0,2.06 c 0,0 0.41,-1.89 0.88,-2.12 z"
       id="path9627"
       style="stroke-width:0.889935" />
    <path
       class="cls-8"
       d="m 20.24,39.31 a 4.81,4.81 0 0 0 -2.15,-0.74 c -0.31,0 -0.23,0.29 0,0.61 a 0.63,0.63 0 0 0 0.68,0.3 c 0.14,0 -0.55,-0.56 -0.55,-0.56"
       id="path9629" />
    <path
       class="cls-57"
       d="m 29.35,11.19 c 0.15,-0.35 0.07,-0.63 -0.23,-0.68 -0.3,-0.05 -1.65,0 -2,-0.07 -0.35,-0.07 -0.5,0.19 -0.26,0.76 a 1.4,1.4 0 0 0 1.35,0.77 1.26,1.26 0 0 0 1.14,-0.78 z"
       id="path9631"
       style="fill:url(#linear-gradient-14);stroke-width:0.889935" />
    <path
       class="cls-58"
       d="m 29.1,13.38 a 2.59,2.59 0 0 0 0.72,0.25 2.56,2.56 0 0 0 1,-0.07 c 0,0 -0.66,0.56 -1,0.49 -0.34,-0.07 -0.72,-0.67 -0.72,-0.67 z"
       id="path9633"
       style="fill:url(#linear-gradient-15);stroke-width:0.889935" />
    <path
       class="cls-59"
       d="M 24.42,12.78 A 1.64,1.64 0 0 1 23.18,11 c 0,-0.85 0.26,-1.39 0.94,-1.41 a 0.8,0.8 0 0 1 0.69,0.48"
       id="path9635" />
    <path
       class="cls-31"
       d="m 17.87,26.2 a 8.8,8.8 0 0 1 1.36,-0.84 2.4,2.4 0 0 0 -0.25,0.83"
       id="path9637"
       style="stroke-width:0.889935" />
    <path
       class="cls-10"
       d="m 29.55,17.27 a 5,5 0 0 0 1.24,-0.12 c 2.21,-0.41 4.08,0.32 4.51,2.4 a 6.22,6.22 0 0 1 -0.54,3.5"
       id="path9639" />
  </g>
  <metadata
     id="metadata9717">
    <rdf:RDF>
      <cc:Work
         rdf:about="">
        <dc:title>9=CharacterMuscles</dc:title>
      </cc:Work>
    </rdf:RDF>
  </metadata>
</svg>
