<?xml version="1.0" encoding="UTF-8" standalone="no"?>
<svg
   viewBox="0 0 48 48"
   version="1.1"
   id="svg11993"
   sodipodi:docname="rbd_guided2.svg"
   inkscape:version="1.1 (c68e22c387, 2021-05-23)"
   xmlns:inkscape="http://www.inkscape.org/namespaces/inkscape"
   xmlns:sodipodi="http://sodipodi.sourceforge.net/DTD/sodipodi-0.dtd"
   xmlns:xlink="http://www.w3.org/1999/xlink"
   xmlns="http://www.w3.org/2000/svg"
   xmlns:svg="http://www.w3.org/2000/svg">
  <sodipodi:namedview
     id="namedview11995"
     pagecolor="#ffffff"
     bordercolor="#666666"
     borderopacity="1.0"
     inkscape:pageshadow="2"
     inkscape:pageopacity="0.0"
     inkscape:pagecheckerboard="0"
     showgrid="false"
     inkscape:zoom="15.6875"
     inkscape:cx="24"
     inkscape:cy="24"
     inkscape:window-width="2880"
     inkscape:window-height="1557"
     inkscape:window-x="-8"
     inkscape:window-y="-8"
     inkscape:window-maximized="1"
     inkscape:current-layer="svg11993" />
  <defs
     id="defs11901">
    <linearGradient
       inkscape:collect="always"
       id="linearGradient12238">
      <stop
         style="stop-color:#000000;stop-opacity:1;"
         offset="0"
         id="stop12234" />
      <stop
         style="stop-color:#000000;stop-opacity:0;"
         offset="1"
         id="stop12236" />
    </linearGradient>
    <style
       id="style11820">.cls-1{isolation:isolate;}.cls-2{fill:url(#radial-gradient);}.cls-19,.cls-3,.cls-4,.cls-7{fill:none;stroke-miterlimit:10;}.cls-19,.cls-3,.cls-4{stroke:#fce94f;}.cls-3{stroke-width:0.5px;}.cls-4{stroke-width:0.7px;}.cls-5{fill:url(#linear-gradient);}.cls-6{fill:url(#linear-gradient-2);}.cls-7{stroke-width:1.4px;stroke:url(#linear-gradient-3);}.cls-8{fill:url(#linear-gradient-4);}.cls-9{fill:url(#linear-gradient-5);}.cls-10{fill:url(#linear-gradient-6);}.cls-11,.cls-16{mix-blend-mode:multiply;}.cls-12{fill:url(#linear-gradient-7);}.cls-13{fill:url(#linear-gradient-8);}.cls-14{fill:url(#linear-gradient-9);}.cls-15{fill:url(#linear-gradient-10);}.cls-16{fill:url(#linear-gradient-11);}.cls-17{fill:url(#linear-gradient-12);}.cls-18{fill:url(#linear-gradient-13);}.cls-19{stroke-width:0.6px;}.cls-20{fill:url(#linear-gradient-14);}</style>
    <radialGradient
       id="radial-gradient"
       cx="-9.12"
       cy="-0.94"
       r="19.24"
       gradientTransform="matrix(1.21,0,0,0.54,35.08,38.09)"
       gradientUnits="userSpaceOnUse">
      <stop
         offset="0.2"
         stop-color="#2c2c2c"
         stop-opacity="0.5"
         id="stop11822" />
      <stop
         offset="0.73"
         stop-color="#2c2c2c"
         stop-opacity="0.1"
         id="stop11824" />
      <stop
         offset="0.95"
         stop-color="#2c2c2c"
         stop-opacity="0"
         id="stop11826" />
    </radialGradient>
    <linearGradient
       id="linear-gradient"
       x1="16.9"
       y1="37.53"
       x2="34.83"
       y2="14.37"
       gradientUnits="userSpaceOnUse">
      <stop
         offset="0"
         stop-color="#fff"
         stop-opacity="0.8"
         id="stop11829" />
      <stop
         offset="0.57"
         stop-color="#757774"
         stop-opacity="0.6"
         id="stop11831" />
      <stop
         offset="1"
         stop-color="#555753"
         stop-opacity="0.2"
         id="stop11833" />
    </linearGradient>
    <linearGradient
       id="linear-gradient-2"
       x1="17.34"
       y1="37.59"
       x2="39.34"
       y2="9.15"
       gradientUnits="userSpaceOnUse">
      <stop
         offset="0"
         stop-color="#979896"
         stop-opacity="0.7"
         id="stop11836" />
      <stop
         offset="0.53"
         stop-color="#757774"
         stop-opacity="0.6"
         id="stop11838" />
      <stop
         offset="1"
         stop-color="#555753"
         stop-opacity="0.2"
         id="stop11840" />
    </linearGradient>
    <linearGradient
       id="linear-gradient-3"
       x1="4.54"
       y1="36.92"
       x2="21.51"
       y2="36.92"
       gradientUnits="userSpaceOnUse">
      <stop
         offset="0"
         stop-color="#d26e01"
         id="stop11843" />
      <stop
         offset="1"
         stop-color="#745800"
         id="stop11845" />
    </linearGradient>
    <linearGradient
       id="linear-gradient-4"
       x1="94.48"
       y1="41.3"
       x2="96.82"
       y2="30.11"
       gradientTransform="matrix(-1,0,0,1,114.05,0)"
       gradientUnits="userSpaceOnUse">
      <stop
         offset="0"
         stop-color="#232729"
         id="stop11848" />
      <stop
         offset="1"
         stop-color="#c8cdc3"
         id="stop11850" />
    </linearGradient>
    <linearGradient
       id="linear-gradient-5"
       x1="11.29"
       y1="33.57"
       x2="14.78"
       y2="42.83"
       gradientUnits="userSpaceOnUse">
      <stop
         offset="0"
         stop-color="#edd400"
         id="stop11853" />
      <stop
         offset="0.64"
         stop-color="#f57900"
         id="stop11855" />
      <stop
         offset="1"
         stop-color="#8f5902"
         id="stop11857" />
    </linearGradient>
    <linearGradient
       id="linear-gradient-6"
       x1="16.13"
       y1="31.97"
       x2="17.98"
       y2="38.05"
       gradientUnits="userSpaceOnUse">
      <stop
         offset="0"
         stop-color="#e9b96e"
         id="stop11860" />
      <stop
         offset="0.32"
         stop-color="#c17d11"
         id="stop11862" />
      <stop
         offset="1"
         stop-color="#8f5902"
         id="stop11864" />
    </linearGradient>
    <linearGradient
       id="linear-gradient-7"
       x1="15.33"
       y1="30.97"
       x2="19.56"
       y2="40.06"
       gradientUnits="userSpaceOnUse">
      <stop
         offset="0"
         stop-color="#e9b96e"
         stop-opacity="0"
         id="stop11867" />
      <stop
         offset="1"
         stop-color="#663e04"
         id="stop11869" />
    </linearGradient>
    <linearGradient
       id="linear-gradient-8"
       x1="17"
       y1="31.32"
       x2="19.67"
       y2="37.4"
       gradientUnits="userSpaceOnUse">
      <stop
         offset="0"
         stop-color="#fcaf3e"
         id="stop11872" />
      <stop
         offset="0.64"
         stop-color="#f57900"
         id="stop11874" />
      <stop
         offset="1"
         stop-color="#8f5902"
         id="stop11876" />
    </linearGradient>
    <linearGradient
       id="linear-gradient-9"
       x1="6.38"
       y1="37.45"
       x2="8.84"
       y2="42.92"
       xlink:href="#linear-gradient-6" />
    <linearGradient
       id="linear-gradient-10"
       x1="11.75"
       y1="34.66"
       x2="14.29"
       y2="41.09"
       gradientUnits="userSpaceOnUse">
      <stop
         offset="0"
         stop-color="#fff"
         id="stop11880" />
      <stop
         offset="1"
         stop-color="#fff"
         stop-opacity="0"
         id="stop11882" />
    </linearGradient>
    <linearGradient
       id="linear-gradient-11"
       x1="11.59"
       y1="33.95"
       x2="14.31"
       y2="41.15"
       xlink:href="#linear-gradient-7" />
    <linearGradient
       id="linear-gradient-12"
       x1="16.9"
       y1="31.76"
       x2="38.89"
       y2="4.53"
       gradientUnits="userSpaceOnUse">
      <stop
         offset="0"
         stop-color="#fff"
         id="stop11886" />
      <stop
         offset="0.57"
         stop-color="#757774"
         stop-opacity="0.6"
         id="stop11888" />
      <stop
         offset="1"
         stop-color="#555753"
         stop-opacity="0.2"
         id="stop11890" />
    </linearGradient>
    <linearGradient
       id="linear-gradient-13"
       x1="17.29"
       y1="32.08"
       x2="39.28"
       y2="4.85"
       gradientUnits="userSpaceOnUse">
      <stop
         offset="0"
         stop-color="#fff"
         id="stop11893" />
      <stop
         offset="0.57"
         stop-color="#babdb6"
         id="stop11895" />
      <stop
         offset="1"
         stop-color="#555753"
         stop-opacity="0.2"
         id="stop11897" />
    </linearGradient>
    <linearGradient
       id="linear-gradient-14"
       x1="8.42"
       y1="38.14"
       x2="11.97"
       y2="35.94"
       xlink:href="#linear-gradient-10" />
    <linearGradient
       inkscape:collect="always"
       xlink:href="#linear-gradient-6"
       id="linearGradient12165"
       gradientUnits="userSpaceOnUse"
       x1="16.13"
       y1="31.97"
       x2="17.98"
       y2="38.05" />
    <linearGradient
       inkscape:collect="always"
       xlink:href="#linear-gradient-7"
       id="linearGradient12167"
       gradientUnits="userSpaceOnUse"
       x1="15.33"
       y1="30.97"
       x2="19.56"
       y2="40.06" />
    <linearGradient
       inkscape:collect="always"
       xlink:href="#linear-gradient-10"
       id="linearGradient12169"
       gradientUnits="userSpaceOnUse"
       x1="11.75"
       y1="34.66"
       x2="14.29"
       y2="41.09" />
    <radialGradient
       inkscape:collect="always"
       xlink:href="#linearGradient12238"
       id="radialGradient12240"
       cx="24"
       cy="37.580002"
       fx="24"
       fy="37.580002"
       r="22.469999"
       gradientTransform="matrix(1,0,0,0.44993324,0,20.67151)"
       gradientUnits="userSpaceOnUse" />
    <radialGradient
       inkscape:collect="always"
       xlink:href="#linearGradient12238"
       id="radialGradient12440"
       gradientUnits="userSpaceOnUse"
       gradientTransform="matrix(1,0,0,0.44993324,0,20.67151)"
       cx="24"
       cy="37.580002"
       fx="24"
       fy="37.580002"
       r="22.469999" />
  </defs>
  <g
     id="shadow"
     style="opacity:0.304878;isolation:isolate;fill:url(#radialGradient12240);fill-opacity:1"
     transform="translate(-1.3386454,0.06374502)">
    <ellipse
       class="cls-2"
       cx="24"
       cy="37.580002"
       rx="22.469999"
       ry="10.11"
       id="ellipse11903"
       style="fill:url(#radialGradient12440);fill-opacity:1" />
  </g>
  <g
     id="ART"
     style="isolation:isolate;stroke-width:0.893665"
     transform="matrix(1.1190677,0,0,1.1189068,0.55533049,-3.3518954)">
    <ellipse
       class="cls-3"
       cx="32.279999"
       cy="8.7200003"
       rx="2.3"
       ry="3.51"
       transform="rotate(-18.56,32.283965,8.7310169)"
       id="ellipse11906" />
    <ellipse
       class="cls-3"
       cx="27.58"
       cy="10.93"
       rx="2.4400001"
       ry="3.6500001"
       transform="rotate(-17.89,27.579476,10.916749)"
       id="ellipse11908" />
    <ellipse
       class="cls-3"
       cx="24.27"
       cy="13.12"
       rx="4.29"
       ry="3.8299999"
       transform="rotate(-89.01,24.263845,13.126576)"
       id="ellipse11910" />
    <circle
       class="cls-3"
       cx="22.58"
       cy="14.72"
       r="4.5300002"
       id="circle11912" />
    <ellipse
       class="cls-3"
       cx="36.98"
       cy="6.5100002"
       rx="2.0799999"
       ry="3.0999999"
       transform="rotate(-17.89,36.997786,6.5070878)"
       id="ellipse11914" />
    <ellipse
       class="cls-3"
       cx="24.639999"
       cy="15.87"
       rx="4.4299998"
       ry="4.96"
       transform="rotate(-0.99,24.750426,15.840733)"
       id="ellipse11916" />
    <ellipse
       class="cls-3"
       cx="29.07"
       cy="17.059999"
       rx="5.23"
       ry="3.5"
       transform="rotate(-72.11,29.065005,17.061466)"
       id="ellipse11918" />
    <ellipse
       class="cls-3"
       cx="33.610001"
       cy="19.059999"
       rx="4.79"
       ry="5.3699999"
       transform="rotate(-0.99,33.98012,19.393118)"
       id="ellipse11920" />
    <circle
       class="cls-3"
       cx="34.98"
       cy="22.219999"
       r="5.75"
       id="circle11922" />
    <ellipse
       class="cls-3"
       cx="33.599998"
       cy="26.24"
       rx="6.3299999"
       ry="5.6500001"
       transform="matrix(0.02,-1,1,0.02,6.78,59.39)"
       id="ellipse11924" />
    <path
       class="cls-4"
       d="m 34.82,34 c 1.8,-1.44 1.8,-5.19 0,-8.37 -1.8,-3.18 -4.73,-4.63 -6.53,-3.17 -1.8,1.46 -1.8,5.19 0,8.37 1.65,2.91 4.24,4.34 6,3.45 A 2.8,2.8 0 0 0 34.82,34 Z"
       id="path11926" />
    <path
       class="cls-4"
       d="m 30.08,36.84 c 1.9,-1.52 1.9,-5.48 0,-8.84 -1.9,-3.36 -5,-4.85 -6.9,-3.33 -1.9,1.52 -1.9,5.48 0,8.85 1.74,3.07 4.48,4.58 6.39,3.64 a 2.29,2.29 0 0 0 0.51,-0.32 z"
       id="path11928" />
    <path
       class="cls-5"
       d="m 17.88,38.11 c 1.45,-1 6.45,-5.36 8.83,-7.15 2.38,-1.79 5.12,-2.79 8.27,-4.18 3.15,-1.39 2.23,-7 -1.07,-8.78 C 30.61,16.22 23.62,15.81 23,14.31 22,12 35.43,8 37.29,7.53 c 0,0 -14.13,5.23 -12.49,6.43 1.34,1 8.38,1 12.18,3.71 3.11,2.19 3.2,7.18 -1.67,11.74 -3.46,3.23 -17.43,8.7 -17.43,8.7 z"
       id="path11930"
       style="fill:url(#linear-gradient);stroke-width:0.893665" />
    <path
       class="cls-6"
       d="M 35.31,29.41 C 32,32.49 19.17,37.6 18,38.07 c -0.22,-1.47 6.05,-3.76 9.91,-6.4 3.86,-2.64 6.77,-3 8.82,-4.8 2.05,-1.8 1.7,-6 0.41,-7.81 -1.29,-1.81 -5.84,-3.12 -7.89,-3.47 -2.05,-0.35 -5.66,-0.79 -5.28,-1.85 0.38,-1.06 4.92,-3.66 13.32,-6.2 -0.76,0.29 -14,5.27 -12.45,6.43 1.33,1 8.37,1 12.17,3.7 3.08,2.19 3.17,7.18 -1.7,11.74 z"
       id="path11932"
       style="fill:url(#linear-gradient-2);stroke-width:0.893665" />
    <path
       class="cls-4"
       d="m 40.7,21.65 a 9.11,9.11 0 0 0 -4.87,-7.34 l -3.69,-1.6 c 3.92,-2 5.42,-2.7 5.79,-2.87 A 2.05,2.05 0 0 0 39,8.22 3.4,3.4 0 0 0 39.14,7.22 3.9,3.9 0 0 0 37,3.58 1.71,1.71 0 0 0 36.57,3.5 1.49,1.49 0 0 0 35.63,3.56 147.84,147.84 0 0 0 21.1,10.09 a 5.61,5.61 0 0 0 -3,4.79 c 0,2.85 3.22,5.28 5.71,5.85 a 36.51,36.51 0 0 1 4.38,1.59 c 0,0 -5.8,2.57 -9.31,4.13 a 3.15,3.15 0 0 0 -0.75,0.43 c -2,1.61 -2,5.78 0,9.32 1.84,3.24 4.72,4.83 6.73,3.85 l 0.24,-0.14 c 0.56,-0.32 3,-1.72 5.29,-3.11 2.7,-1.61 5.72,-3.49 6.82,-4.68 A 13.38,13.38 0 0 0 40.7,21.65 Z"
       id="path11934" />
    <path
       class="cls-7"
       d="m 20.06,33.51 c -0.93,-1.63 -2.39,-2.43 -3.39,-1.9 -0.4,0.19 -4.28,2.08 -7.39,3.57 -2.3,1.1 -3.54,4.13 -4,5.47 a 0.76,0.76 0 0 0 0.42,0.93 c 4.05,1.61 6.65,0.33 6.65,0.33 l 7.44,-3.58 a 2,2 0 0 0 0.27,-0.17 c 1,-0.8 1,-2.88 0,-4.65 z"
       id="path11936"
       style="stroke:url(#linear-gradient-3)" />
    <path
       class="cls-8"
       d="m 20.06,38.16 c 1,-0.8 1,-2.88 0,-4.65 -1,-1.77 -2.62,-2.51 -3.62,-1.75 -1,0.76 -1,2.88 0,4.65 1,1.77 2.35,2.41 3.35,1.92 a 2,2 0 0 0 0.27,-0.17 z"
       id="path11938"
       style="fill:url(#linear-gradient-4);stroke-width:0.893665" />
    <path
       class="cls-9"
       d="m 20.06,33.51 c -0.93,-1.63 -2.39,-2.43 -3.39,-1.9 -0.4,0.19 -4.28,2.08 -7.39,3.57 -2.3,1.1 -3.54,4.13 -4,5.47 a 0.76,0.76 0 0 0 0.42,0.93 c 4.05,1.61 6.65,0.33 6.65,0.33 l 7.44,-3.58 a 2,2 0 0 0 0.27,-0.17 c 1,-0.8 1,-2.88 0,-4.65 z"
       id="path11940"
       style="fill:url(#linear-gradient-5);stroke-width:0.893665" />
    <path
       class="cls-10"
       d="m 18.62,38.89 a 1.24,1.24 0 0 0 0.27,-0.17 c 1,-0.8 1,-2.88 0,-4.65 -0.91,-1.6 -2.34,-2.39 -3.34,-1.93 l -1.43,0.69 c 1,-0.46 2.43,0.33 3.34,1.93 1,1.77 1,3.85 0,4.65 l -0.26,0.17 z"
       id="path11942"
       style="fill:url(#linearGradient12165);stroke-width:0.893665" />
    <g
       class="cls-11"
       id="g11946"
       style="stroke-width:0.893665">
      <path
         class="cls-12"
         d="m 18.62,38.89 a 1.24,1.24 0 0 0 0.27,-0.17 c 1,-0.8 1,-2.88 0,-4.65 -0.91,-1.6 -2.34,-2.39 -3.34,-1.93 l -1.43,0.69 c 1,-0.46 2.43,0.33 3.34,1.93 1,1.77 1,3.85 0,4.65 l -0.26,0.17 z"
         id="path11944"
         style="fill:url(#linearGradient12167);stroke-width:0.893665" />
    </g>
    <path
       class="cls-13"
       d="m 19.79,38.33 a 2,2 0 0 0 0.27,-0.17 c 1,-0.8 1,-2.88 0,-4.65 -0.91,-1.6 -2.34,-2.39 -3.34,-1.93 l -1.43,0.69 c 1,-0.47 2.43,0.33 3.34,1.93 1,1.76 1,3.84 0,4.64 a 1,1 0 0 1 -0.27,0.17 z"
       id="path11948"
       style="fill:url(#linear-gradient-8);stroke-width:0.893665" />
    <path
       class="cls-14"
       d="M 9.65,42.11 9.46,42.23 A 1.2,1.2 0 0 1 8.98,42.34 H 8.84 a 10.16,10.16 0 0 1 -3.09,-0.73 0.82,0.82 0 0 1 -0.47,-1 12,12 0 0 1 1.38,-2.88 v 0 A 1.48,1.48 0 0 1 7,37.35 c 0.74,-0.59 1.94,0 2.68,1.3 0.74,1.3 0.71,2.85 -0.03,3.46 z"
       id="path11950"
       style="fill:url(#linear-gradient-9);stroke-width:0.893665" />
    <path
       class="cls-15"
       d="M 20,33.42 5.75,41 c 0,0 -0.48,0 -0.27,-0.36 a 15.16,15.16 0 0 1 2.81,-3.9 c 1.13,-0.82 8.05,-4.12 9.94,-5 A 4.19,4.19 0 0 1 20,33.42 Z"
       id="path11952"
       style="fill:url(#linearGradient12169);stroke-width:0.893665" />
    <path
       class="cls-16"
       d="m 20.65,37.23 c -0.23,0.12 -7.78,3.91 -8.9,4.36 a 12.55,12.55 0 0 1 -5.46,0 C 5.88,41.51 5.39,41.27 5.86,41.18 A 20.7,20.7 0 0 0 10.14,40 c 1.67,-0.8 10.44,-5.25 10.44,-5.25 a 4.18,4.18 0 0 1 0.07,2.48 z"
       id="path11954"
       style="fill:url(#linear-gradient-11);stroke-width:0.893665" />
    <path
       class="cls-17"
       d="m 12.14,36.18 a 43.76,43.76 0 0 0 7.68,-5.76 c 1.91,-1.85 2.34,-3.89 8.34,-5.88 3.32,-1.1 4.8,-2.67 3.77,-4.34 -1.03,-1.67 -9.55,-2.7 -11.62,-3.7 -2.58,-1.25 -1.21,-3.31 0.87,-4.9 2.08,-1.59 11.38,-5.09 21,-7.43 0,0 -19.06,6.69 -20.33,9.57 -1.27,2.88 8.79,2.43 12.27,5.51 3.48,3.08 1.29,6.18 -2.82,8 -4.11,1.82 -13.62,7.52 -19.16,8.93 z"
       id="path11956"
       style="fill:url(#linear-gradient-12);stroke-width:0.893665" />
    <path
       class="cls-18"
       d="M 34.15,19.25 C 30.67,16.17 20.62,16.62 21.88,13.74 23.14,10.86 42.21,4.17 42.21,4.17 c 0,0 -14.61,4.3 -19,7.05 -4.39,2.75 -2.75,4.18 -1.51,4.78 1.24,0.6 6,1.46 8.32,2.26 2.32,0.8 4.32,1.74 4.16,3.74 -0.16,2 -3.45,3.48 -6.71,4.77 -3.26,1.29 -3.55,2.1 -5.9,4 a 31,31 0 0 1 -9.43,5.42 c 5.54,-1.41 15.08,-7.11 19.19,-8.93 4.11,-1.82 6.29,-4.94 2.82,-8.01 z"
       id="path11958"
       style="fill:url(#linear-gradient-13);stroke-width:0.893665" />
    <path
       class="cls-3"
       d="m 30.16,11.76 c 0,-1.91 -1.15,-3.83 -2.58,-4.29"
       id="path11960" />
    <path
       class="cls-3"
       d="M 28.09,13.11 A 4,4 0 0 0 24.27,8.84"
       id="path11962" />
    <path
       class="cls-3"
       d="m 24.64,20.84 a 4.76,4.76 0 0 1 -4.43,-5 4.69,4.69 0 0 1 4.43,-4.94 4.4,4.4 0 0 1 3.84,2.51"
       id="path11964" />
    <path
       class="cls-4"
       d="m 30.08,36.84 c 1.9,-1.52 1.9,-5.48 0,-8.84 -1.9,-3.36 -5,-4.85 -6.9,-3.33"
       id="path11966" />
    <path
       class="cls-4"
       d="m 34.82,34 c 1.8,-1.44 1.8,-5.19 0,-8.37 -1.8,-3.18 -4.73,-4.63 -6.53,-3.17"
       id="path11968" />
    <path
       class="cls-19"
       d="m 39.26,26.22 c 0,-3.5 -2.53,-6.32 -5.66,-6.31"
       id="path11970" />
    <path
       class="cls-3"
       d="m 40.72,22.22 a 5.75,5.75 0 1 0 -11.49,0"
       id="path11972" />
    <path
       class="cls-3"
       d="m 28.82,19 a 5.08,5.08 0 0 1 4.79,-5.34 4.38,4.38 0 0 1 1.7,0.35"
       id="path11974" />
    <path
       class="cls-3"
       d="m 25.37,18.25 c 0,-2.73 1.66,-5.48 3.7,-6.13 a 2.5,2.5 0 0 1 3,1"
       id="path11976" />
    <path
       class="cls-19"
       d="m 33.6,32.57 c 3.13,0 5.66,-2.86 5.66,-6.35 0,-3.49 -2.53,-6.32 -5.66,-6.31 a 5.43,5.43 0 0 0 -4.12,2"
       id="path11978" />
    <path
       class="cls-4"
       d="m 23,40.29 a 3,3 0 0 0 1.81,-0.24 3.77,3.77 0 0 0 0.54,-0.34 c 2,-1.61 2,-5.78 0,-9.32 -2,-3.54 -5.26,-5.11 -7.27,-3.51 a 4.71,4.71 0 0 0 -1.49,3.51"
       id="path11980" />
    <path
       class="cls-3"
       d="m 27,13.54 a 4.53,4.53 0 0 0 -8.91,1.18"
       id="path11982" />
    <path
       class="cls-3"
       d="m 34.73,9.59 c 0,-1.82 -1.1,-3.69 -2.45,-4.16"
       id="path11984" />
    <path
       class="cls-4"
       d="M 39.17,7.22 A 3.9,3.9 0 0 0 37,3.58"
       id="path11986" />
    <path
       class="cls-20"
       d="m 6,40.33 c 0,0 1.69,-2.13 2.13,-2.55 a 5.75,5.75 0 0 1 1.76,-1.1 l 2.53,-1.18 c 0,0 -2.77,1.84 -3.42,2.3 -0.65,0.46 -2.57,2.28 -3,2.53 z"
       id="path11988"
       style="fill:url(#linear-gradient-14);stroke-width:0.893665" />
  </g>
</svg>
