<?xml version="1.0" encoding="UTF-8" standalone="no"?>
<svg
   width="48.0px"
   height="48.0px"
   viewBox="0 0 48.0 48.0"
   version="1.1"
   id="SVGRoot"
   sodipodi:docname="shockwave.svg"
   inkscape:version="1.1 (c68e22c387, 2021-05-23)"
   xmlns:inkscape="http://www.inkscape.org/namespaces/inkscape"
   xmlns:sodipodi="http://sodipodi.sourceforge.net/DTD/sodipodi-0.dtd"
   xmlns:xlink="http://www.w3.org/1999/xlink"
   xmlns="http://www.w3.org/2000/svg"
   xmlns:svg="http://www.w3.org/2000/svg"
   xmlns:rdf="http://www.w3.org/1999/02/22-rdf-syntax-ns#"
   xmlns:cc="http://creativecommons.org/ns#"
   xmlns:dc="http://purl.org/dc/elements/1.1/">
  <defs
     id="defs17399">
    <linearGradient
       inkscape:collect="always"
       id="linearGradient75769">
      <stop
         style="stop-color:#d3d7cf;stop-opacity:0"
         offset="0"
         id="stop75763" />
      <stop
         style="stop-color:#fcaf3e;stop-opacity:0"
         offset="0.51159155"
         id="stop75765" />
      <stop
         style="stop-color:#fcaf3e;stop-opacity:1"
         offset="1"
         id="stop75767" />
    </linearGradient>
    <linearGradient
       inkscape:collect="always"
       id="linearGradient18079">
      <stop
         style="stop-color:#ef2929;stop-opacity:1;"
         offset="0"
         id="stop18075" />
      <stop
         style="stop-color:#fcaf3e;stop-opacity:1"
         offset="0.44847721"
         id="stop18083" />
      <stop
         style="stop-color:#ef2929;stop-opacity:1"
         offset="1"
         id="stop18077" />
    </linearGradient>
    <linearGradient
       inkscape:collect="always"
       id="linearGradient18069">
      <stop
         style="stop-color:#ef2929;stop-opacity:1;"
         offset="0"
         id="stop18065" />
      <stop
         style="stop-color:#ef2929;stop-opacity:1"
         offset="0.61982197"
         id="stop18073" />
      <stop
         style="stop-color:#ef8e29;stop-opacity:1"
         offset="1"
         id="stop18067" />
    </linearGradient>
    <linearGradient
       inkscape:collect="always"
       id="linearGradient18053">
      <stop
         style="stop-color:#d3d7cf;stop-opacity:0"
         offset="0"
         id="stop18049" />
      <stop
         style="stop-color:#fcaf3e;stop-opacity:0"
         offset="0.78587896"
         id="stop18057" />
      <stop
         style="stop-color:#fcaf3e;stop-opacity:1"
         offset="1"
         id="stop18051" />
    </linearGradient>
    <radialGradient
       inkscape:collect="always"
       xlink:href="#linearGradient75769"
       id="radialGradient18000"
       cx="24.5"
       cy="36"
       fx="24.5"
       fy="36"
       r="22.75"
       gradientTransform="matrix(0.83274086,0,0,0.48564732,3.5177032,10.204068)"
       gradientUnits="userSpaceOnUse" />
    <radialGradient
       inkscape:collect="always"
       xlink:href="#linearGradient18053"
       id="radialGradient18055"
       cx="24.598215"
       cy="30.829273"
       fx="24.598215"
       fy="30.829273"
       r="18.955357"
       gradientTransform="matrix(0.95754969,0.01072994,-0.00983765,0.87792099,50.418342,1.3596917)"
       gradientUnits="userSpaceOnUse" />
    <radialGradient
       inkscape:collect="always"
       xlink:href="#linearGradient18069"
       id="radialGradient18071"
       cx="23.992424"
       cy="36.368591"
       fx="23.992424"
       fy="36.368591"
       r="24.007023"
       gradientTransform="matrix(0.99993125,0.01172615,-0.0078895,0.67276663,0.28857977,2.6245564)"
       gradientUnits="userSpaceOnUse" />
    <radialGradient
       inkscape:collect="always"
       xlink:href="#linearGradient18079"
       id="radialGradient18081"
       cx="23.938093"
       cy="12.690242"
       fx="23.938093"
       fy="12.690242"
       r="22.517818"
       gradientTransform="matrix(-1.0594072,-0.00577377,0.00297037,-0.57691845,49.283098,33.46998)"
       gradientUnits="userSpaceOnUse" />
  </defs>
  <sodipodi:namedview
     id="base"
     pagecolor="#ffffff"
     bordercolor="#666666"
     borderopacity="1.0"
     inkscape:pageopacity="0.0"
     inkscape:pageshadow="2"
     inkscape:zoom="15.839192"
     inkscape:cx="21.560443"
     inkscape:cy="25.664188"
     inkscape:document-units="px"
     inkscape:current-layer="layer1"
     inkscape:document-rotation="0"
     showgrid="false"
     inkscape:window-width="2880"
     inkscape:window-height="1557"
     inkscape:window-x="-8"
     inkscape:window-y="-8"
     inkscape:window-maximized="1"
     inkscape:snap-global="false"
     inkscape:pagecheckerboard="0">
    <inkscape:grid
       type="xygrid"
       id="grid17969" />
  </sodipodi:namedview>
  <metadata
     id="metadata17402">
    <rdf:RDF>
      <cc:Work
         rdf:about="">
        <dc:format>image/svg+xml</dc:format>
        <dc:type
           rdf:resource="http://purl.org/dc/dcmitype/StillImage" />
        <dc:title />
      </cc:Work>
    </rdf:RDF>
  </metadata>
  <g
     inkscape:label="Layer 1"
     inkscape:groupmode="layer"
     id="layer1">
    <ellipse
       style="color:#000000;overflow:visible;fill:#ffffff;fill-opacity:1;stroke:none;stroke-width:0.499998;stroke-miterlimit:4;stroke-dasharray:none;stroke-opacity:1;stop-color:#000000"
       id="path18085"
       cx="23.80172"
       cy="27.905466"
       rx="19.129763"
       ry="11.111679" />
    <ellipse
       style="color:#000000;overflow:visible;fill:url(#radialGradient18000);fill-opacity:1;stroke:none;stroke-width:0.5;stroke-opacity:1;stop-color:#000000"
       id="path17976"
       cx="23.919853"
       cy="27.68737"
       rx="19.315277"
       ry="11.368314" />
    <path
       style="fill:url(#radialGradient18071);fill-rule:evenodd;stroke:#ffffff;stroke-width:0.5;stroke-linecap:butt;stroke-linejoin:miter;stroke-miterlimit:4;stroke-dasharray:none;stroke-opacity:1;fill-opacity:1"
       d="m 0.31296304,24.617913 c 0,0 3.26946966,1.706724 3.58652516,1.137029 0.3170555,-0.569696 -3.49904886,-3.58601 -3.49904886,-3.58601 0,0 3.17996556,1.620871 3.49904886,1.137028 0.3190833,-0.483844 -1.6620481,-2.536445 -1.6620481,-2.536445 0,0 2.2730742,0.950677 2.5368099,0.524782 0.2637357,-0.425896 -4.54876315,-5.247818 -4.54876315,-5.247818 0,0 6.39131645,2.102939 6.99809745,1.749272 0.6067811,-0.353667 -0.6998094,-3.673472 -0.6998094,-3.673472 0,0 5.7637711,3.720855 6.3857641,3.411081 0.621992,-0.309773 0.437382,-1.836736 0.437382,-1.836736 0,0 0.958576,0.232394 1.322262,0.08747 0.363687,-0.144927 -0.797406,-3.236154 -0.797406,-3.236154 0,0 3.602097,4.497021 4.63624,4.198254 1.034143,-0.298766 2.011954,-4.985427 2.011954,-4.985427 0,0 2.877314,3.938362 3.674002,4.023327 0.796687,0.08497 1.574572,-1.311954 1.574572,-1.311954 0,0 0.899038,1.62606 1.312143,1.749272 0.413105,0.123212 1.837,-0.874636 1.837,-0.874636 0,0 -0.05459,1.023288 0.349906,1.22449 0.404487,0.201203 3.761478,-2.448981 3.761478,-2.448981 0,0 -1.250806,2.234581 -0.787288,2.361518 0.463518,0.126936 2.711765,-1.9242 2.711765,-1.9242 0,0 0.150456,0.94162 0.612334,1.224491 0.461877,0.282871 4.898667,-2.973763 4.898667,-2.973763 0,0 -3.677413,3.596873 -3.324096,3.935863 0.353316,0.338991 1.39962,0.437318 1.39962,0.437318 0,0 -0.948866,0.687387 -0.699811,0.962099 0.249055,0.274713 4.023907,-2.711371 4.023907,-2.711371 0,0 -0.651286,2.601339 -0.524856,2.973762 0.126429,0.372423 2.186905,0.174928 2.186905,0.174928 l 3.848954,-1.399418 c 0,0 -3.634243,4.965638 -3.411573,5.685135 0.222671,0.719497 3.761478,-1.574345 3.761478,-1.574345 0,0 -3.138852,3.023541 -2.974191,3.673473 0.16466,0.649931 0.929353,0.662349 1.749523,0.612245 -0.807972,0.133281 -2.703889,1.47692 -3.936429,3.848399 l 0.874762,0.874635 -1.264385,0.318021 0.455873,-2.196135 C 43.26673,23.131965 35.594343,16.72081 24.336177,16.679037 13.078011,16.637263 5.4222162,21.634184 5.0242466,27.340054 l -0.030025,1.89312 z"
       id="path18030"
       sodipodi:nodetypes="czczczczczczczczczczczczczczczcczczccccczccc" />
    <path
       id="path18038"
       style="color:#000000;overflow:visible;fill:url(#radialGradient18055);fill-opacity:1;stroke:none;stroke-width:0.5;stroke-miterlimit:4;stroke-dasharray:none;stroke-opacity:1;stop-color:#000000"
       d="m 91.838709,30.913974 c 0,-10.330683 -8.374674,-18.705357 -18.705357,-18.705357 -10.330683,0 -18.705356,8.374674 -18.705356,18.705357 3.611788,12.764865 33.204069,14.277574 37.410713,0 z"
       sodipodi:nodetypes="cscc" />
    <path
       style="fill:url(#radialGradient18081);fill-opacity:1;fill-rule:evenodd;stroke:#ffffff;stroke-width:0.5;stroke-linecap:butt;stroke-linejoin:miter;stroke-miterlimit:4;stroke-dasharray:none;stroke-opacity:1"
       d="m -0.09272504,25.521238 7.43861704,6.029525 1.4877211,-1.226344 1.1901809,3.576837 1.090998,-0.510976 1.090995,1.021952 0.396728,-3.883423 3.967262,6.949285 1.686088,-3.168057 1.686085,3.065862 2.975446,-0.510977 1.19018,1.226346 0.892633,-1.328542 0.991816,1.430736 3.074629,-2.248298 -0.297543,-2.146104 1.785267,1.226346 2.181993,-3.883424 1.388543,2.759274 4.165626,-3.679034 -0.198363,2.350494 2.380358,-1.941711 0.595088,1.328539 6.149258,-5.007573 -5.15349,5.987197 c 0,0 -6.498132,6.429105 -17.940863,6.299981 C 12.679798,39.110026 5.8355404,34.707555 3.1842194,29.586198 Z"
       id="path18032"
       sodipodi:nodetypes="ccccccccccccccccccccccccczcc" />
  </g>
</svg>
