<?xml version="1.0" encoding="UTF-8" standalone="no"?>
<svg
   viewBox="0 0 48 48"
   version="1.1"
   id="svg12048"
   sodipodi:docname="shockwave2.svg"
   inkscape:version="1.1 (c68e22c387, 2021-05-23)"
   xmlns:inkscape="http://www.inkscape.org/namespaces/inkscape"
   xmlns:sodipodi="http://sodipodi.sourceforge.net/DTD/sodipodi-0.dtd"
   xmlns:xlink="http://www.w3.org/1999/xlink"
   xmlns="http://www.w3.org/2000/svg"
   xmlns:svg="http://www.w3.org/2000/svg"
   xmlns:rdf="http://www.w3.org/1999/02/22-rdf-syntax-ns#"
   xmlns:cc="http://creativecommons.org/ns#"
   xmlns:dc="http://purl.org/dc/elements/1.1/">
  <sodipodi:namedview
     id="namedview12050"
     pagecolor="#ffffff"
     bordercolor="#666666"
     borderopacity="1.0"
     inkscape:pageshadow="2"
     inkscape:pageopacity="0.0"
     inkscape:pagecheckerboard="0"
     showgrid="false"
     inkscape:zoom="15.6875"
     inkscape:cx="24"
     inkscape:cy="24"
     inkscape:window-width="2880"
     inkscape:window-height="1557"
     inkscape:window-x="-8"
     inkscape:window-y="-8"
     inkscape:window-maximized="1"
     inkscape:current-layer="svg12048" />
  <defs
     id="defs12028">
    <style
       id="style12005">.cls-1{fill:url(#radial-gradient);}.cls-2,.cls-7{fill:none;stroke-linecap:round;stroke-linejoin:round;}.cls-2{stroke-width:1.4px;stroke:url(#New_Gradient_Swatch_5);}.cls-3{fill:#a9f9ff;}.cls-4{fill:url(#linear-gradient);}.cls-5{fill:#fff;}.cls-6{fill:url(#linear-gradient-2);}.cls-7{stroke-width:0.35px;stroke:url(#linear-gradient-3);}</style>
    <radialGradient
       id="radial-gradient"
       cx="-147.73"
       cy="90.17"
       r="18.28"
       gradientTransform="matrix(1.27,0,0,0.67,213.75,-25.52)"
       gradientUnits="userSpaceOnUse">
      <stop
         offset="0.13"
         stop-color="#2c2c2c"
         stop-opacity="0.4"
         id="stop12007" />
      <stop
         offset="0.9"
         stop-color="#2c2c2c"
         stop-opacity="0"
         id="stop12009" />
    </radialGradient>
    <linearGradient
       id="New_Gradient_Swatch_5"
       x1="25.57"
       y1="10.48"
       x2="25.57"
       y2="36.13"
       gradientTransform="translate(-9.77 15.49) rotate(-30)"
       gradientUnits="userSpaceOnUse">
      <stop
         offset="0"
         stop-color="#35a1de"
         id="stop12012" />
      <stop
         offset="1"
         stop-color="#0062c4"
         id="stop12014" />
    </linearGradient>
    <linearGradient
       id="linear-gradient"
       x1="25.57"
       y1="14.84"
       x2="25.57"
       y2="34.71"
       gradientTransform="rotate(-30,24.019734,25.976068)"
       gradientUnits="userSpaceOnUse">
      <stop
         offset="0.41"
         stop-color="#fff"
         stop-opacity="0"
         id="stop12017" />
      <stop
         offset="1"
         stop-color="snow"
         id="stop12019" />
    </linearGradient>
    <linearGradient
       id="linear-gradient-2"
       x1="17.97"
       y1="12.39"
       x2="30.09"
       y2="33.39"
       gradientUnits="userSpaceOnUse">
      <stop
         offset="0"
         stop-color="#59cbef"
         id="stop12022" />
      <stop
         offset="1"
         stop-color="#a9f9f7"
         id="stop12024" />
    </linearGradient>
    <linearGradient
       id="linear-gradient-3"
       x1="26.37"
       y1="13.54"
       x2="26.37"
       y2="29.85"
       xlink:href="#New_Gradient_Swatch_5" />
    <linearGradient
       inkscape:collect="always"
       xlink:href="#New_Gradient_Swatch_5"
       id="linearGradient12109"
       gradientUnits="userSpaceOnUse"
       gradientTransform="rotate(-30,24.019734,25.976068)"
       x1="25.57"
       y1="10.48"
       x2="25.57"
       y2="36.13" />
  </defs>
  <title
     id="title12030">12-Destruction-Shockwave</title>
  <g
     id="ART"
     transform="matrix(0.94616176,0.72015073,-0.54626675,1.2473377,13.83285,-22.312328)"
     style="stroke-width:0.797179">
    <path
       class="cls-2"
       d="M 36.75,9.69 C 36.58,9.54 37.64,8.46 37.64,8.46 a 16.48,16.48 0 0 1 -2.13,1.2 c -0.15,-0.06 0.48,-0.78 0.48,-0.78 0,0 -1.16,0.6 -1.34,0.5 C 34.47,9.28 33.36,9.2 32.65,8.97 31.94,8.74 32.14,8.44 30.98,8.76 29.82,9.08 29.44,9.34 29.15,9.2 28.86,9.06 29,8.5 29,8.5 a 9.87,9.87 0 0 1 -1,0.89 c -0.28,0.15 0.58,-1.7 0.58,-1.7 a 19.66,19.66 0 0 1 -2.27,2 C 25.74,10 25.93,9.19 25.93,9.19 a 13.48,13.48 0 0 1 -1.36,1.16 c -0.33,0.19 -0.85,0.22 -1.58,0.54 a 12.81,12.81 0 0 0 -1.53,1 1.31,1.31 0 0 1 -1.16,-0.15 c 0,0 0.14,0.58 -0.13,0.75 -0.27,0.17 -1.77,-0.33 -1.77,-0.33 0,0 0.21,1 -0.31,1.36 a 1.4,1.4 0 0 1 -1.23,0.09 c 0,0 0.42,0.7 0,0.87 -0.2,0.09 -0.38,-0.1 -1,0.38 -0.62,0.48 -0.36,0.6 -0.83,0.89 -0.47,0.29 -1,0.59 -1,0.78 0,0.19 -1.13,0.62 -1.13,0.62 a 0.24,0.24 0 0 1 0,0.32 1.21,1.21 0 0 1 -0.52,0.22 c 0,0 0.08,0.23 0,0.33 a 15.72,15.72 0 0 1 -2.73,2.16 0.91,0.91 0 0 0 -0.28,1.4 l -1.49,0.25 c -0.18,0 0.91,0.28 0.91,0.28 l -2,0.66 a 6.81,6.81 0 0 1 1.52,0.17 0.56,0.56 0 0 1 -0.29,0.51 c -0.21,0.1 -0.9,0.94 -0.7,1 0.2,0.06 0,0.57 -0.08,0.87 -0.08,0.3 -0.6,1.15 -0.6,1.15 0,0 0.46,0.17 0.37,0.51 -0.09,0.34 -1.54,1.35 -1.54,1.35 0,0 1.59,-0.46 1.4,0.14 a 4.08,4.08 0 0 0 0.19,2.22 c 0.2,0.44 0.56,0.15 0.78,0.6 0.22,0.45 1,0.37 0.61,1 A 32.65,32.65 0 0 1 6.3,34.88 22.72,22.72 0 0 1 8.72,33 c 0.24,0 -0.53,1.18 -0.53,1.18 0,0 1.21,-1.07 1.41,-0.88 0.2,0.19 0,1.48 0,1.48 0,0 1,-1.42 1.21,-1.18 0.21,0.24 0,1.1 0.14,1.71 0.14,0.61 1.7,0.75 2.57,0 0.87,-0.75 2.36,-1.16 2.72,-0.84 A 4,4 0 0 0 19.52,34 c 0.89,-0.72 1.61,-1.29 2.14,-0.8 a 3.47,3.47 0 0 1 0.79,1.5 9.12,9.12 0 0 1 0.69,-1.62 c 0.23,-0.26 1.1,0.93 1.1,0.93 A 6.27,6.27 0 0 1 25,32.46 c 0.32,-0.29 1.67,1.08 1.67,1.08 l 0.33,-2.26 3.45,1.88 c 0,0 -0.85,-2.9 -0.45,-3.16 0.4,-0.26 1.44,-0.25 2.42,-1.25 0.98,-1 0.62,-1.66 2.54,-2.86 1.92,-1.2 1.8,-2 2.65,-2.91 0.85,-0.91 3.95,-1.21 3.95,-1.21 0,0 -1.58,-0.45 -1.84,-0.58 a 19.6,19.6 0 0 1 3.16,-0.81 c 0,0 -3.29,0 -3,-0.43 0.29,-0.43 0.68,-0.89 1.22,-1.68 0.54,-0.79 -0.25,-0.89 -0.27,-1.67 -0.02,-0.78 3.13,-1.87 3.13,-1.87 a 18.76,18.76 0 0 1 -3,0.4 c -0.15,-0.14 1.62,-0.92 1.62,-0.92 0,0 -1.79,0.47 -1.79,0.08 0,-0.39 1.13,-1.14 0.78,-1.48 C 41.22,12.47 40.19,12.6 39.9,12.12 A 5,5 0 0 0 38.42,10.87 C 38.1,10.68 37.23,10.34 37.61,9.92 a 5.77,5.77 0 0 1 1,-0.92 c 0,0 -1.69,0.83 -1.86,0.69 z"
       id="path12035"
       style="stroke:url(#linearGradient12109)" />
    <path
       class="cls-3"
       d="M 36.75,9.69 C 36.58,9.54 37.64,8.46 37.64,8.46 a 16.48,16.48 0 0 1 -2.13,1.2 c -0.15,-0.06 0.48,-0.78 0.48,-0.78 0,0 -1.16,0.6 -1.34,0.5 C 34.47,9.28 33.36,9.2 32.65,8.97 31.94,8.74 32.14,8.44 30.98,8.76 29.82,9.08 29.44,9.34 29.15,9.2 28.86,9.06 29,8.5 29,8.5 a 9.87,9.87 0 0 1 -1,0.89 c -0.28,0.15 0.58,-1.7 0.58,-1.7 a 19.66,19.66 0 0 1 -2.27,2 C 25.74,10 25.93,9.19 25.93,9.19 a 13.48,13.48 0 0 1 -1.36,1.16 c -0.33,0.19 -0.85,0.22 -1.58,0.54 a 12.81,12.81 0 0 0 -1.53,1 1.31,1.31 0 0 1 -1.16,-0.15 c 0,0 0.14,0.58 -0.13,0.75 -0.27,0.17 -1.77,-0.33 -1.77,-0.33 0,0 0.21,1 -0.31,1.36 a 1.4,1.4 0 0 1 -1.23,0.09 c 0,0 0.42,0.7 0,0.87 -0.2,0.09 -0.38,-0.1 -1,0.38 -0.62,0.48 -0.36,0.6 -0.83,0.89 -0.47,0.29 -1,0.59 -1,0.78 0,0.19 -1.13,0.62 -1.13,0.62 a 0.24,0.24 0 0 1 0,0.32 1.21,1.21 0 0 1 -0.52,0.22 c 0,0 0.08,0.23 0,0.33 a 15.72,15.72 0 0 1 -2.73,2.16 0.91,0.91 0 0 0 -0.28,1.4 l -1.49,0.25 c -0.18,0 0.91,0.28 0.91,0.28 l -2,0.66 a 6.81,6.81 0 0 1 1.52,0.17 0.56,0.56 0 0 1 -0.29,0.51 c -0.21,0.1 -0.9,0.94 -0.7,1 0.2,0.06 0,0.57 -0.08,0.87 -0.08,0.3 -0.6,1.15 -0.6,1.15 0,0 0.46,0.17 0.37,0.51 -0.09,0.34 -1.54,1.35 -1.54,1.35 0,0 1.59,-0.46 1.4,0.14 a 4.08,4.08 0 0 0 0.19,2.22 c 0.2,0.44 0.56,0.15 0.78,0.6 0.22,0.45 1,0.37 0.61,1 A 32.65,32.65 0 0 1 6.3,34.88 22.72,22.72 0 0 1 8.72,33 c 0.24,0 -0.53,1.18 -0.53,1.18 0,0 1.21,-1.07 1.41,-0.88 0.2,0.19 0,1.48 0,1.48 0,0 1,-1.42 1.21,-1.18 0.21,0.24 0,1.1 0.14,1.71 0.14,0.61 1.7,0.75 2.57,0 0.87,-0.75 2.36,-1.16 2.72,-0.84 A 4,4 0 0 0 19.52,34 c 0.89,-0.72 1.61,-1.29 2.14,-0.8 a 3.47,3.47 0 0 1 0.79,1.5 9.12,9.12 0 0 1 0.69,-1.62 c 0.23,-0.26 1.1,0.93 1.1,0.93 A 6.27,6.27 0 0 1 25,32.46 c 0.32,-0.29 1.67,1.08 1.67,1.08 l 0.33,-2.26 3.45,1.88 c 0,0 -0.85,-2.9 -0.45,-3.16 0.4,-0.26 1.44,-0.25 2.42,-1.25 0.98,-1 0.62,-1.66 2.54,-2.86 1.92,-1.2 1.8,-2 2.65,-2.91 0.85,-0.91 3.95,-1.21 3.95,-1.21 0,0 -1.58,-0.45 -1.84,-0.58 a 19.6,19.6 0 0 1 3.16,-0.81 c 0,0 -3.29,0 -3,-0.43 0.29,-0.43 0.68,-0.89 1.22,-1.68 0.54,-0.79 -0.25,-0.89 -0.27,-1.67 -0.02,-0.78 3.13,-1.87 3.13,-1.87 a 18.76,18.76 0 0 1 -3,0.4 c -0.15,-0.14 1.62,-0.92 1.62,-0.92 0,0 -1.79,0.47 -1.79,0.08 0,-0.39 1.13,-1.14 0.78,-1.48 C 41.22,12.47 40.19,12.6 39.9,12.12 A 5,5 0 0 0 38.42,10.87 C 38.1,10.68 37.23,10.34 37.61,9.92 a 5.77,5.77 0 0 1 1,-0.92 c 0,0 -1.69,0.83 -1.86,0.69 z m -3.29,1.43 A 11,11 0 0 1 31.85,13 c 1.26,-0.75 3.53,-1.41 3.13,-1 -0.4,0.41 -3.92,2.91 -3.92,2.91 0,0 5,-2.37 5.12,-2 0.12,0.37 -1.87,1.58 -1.87,1.58 0,0 2.55,-0.84 2.38,-0.36 -0.17,0.48 -4.85,2.31 -4.85,2.31 0,0 4.82,-0.91 4.52,-0.63 -0.3,0.28 -6.13,2.16 -6.13,2.16 0,0 5.82,-0.77 6.36,-0.65 0.54,0.12 1.16,0.53 0.52,0.88 A 48.23,48.23 0 0 1 32,19.48 c 0,0 3.89,-0.21 3.28,0.29 -0.61,0.5 -4.7,0.72 -4.7,0.72 0,0 3.9,0.53 4.09,0.63 0.19,0.1 0.58,0.64 -0.31,0.89 a 12.84,12.84 0 0 1 -3.4,-0.16 c 1.66,0.53 1.23,1.27 0.22,1.52 -1.01,0.25 -4.82,-1.11 -4.82,-1.11 0,0 2.64,2.62 2.1,2.94 -0.54,0.32 -2.24,-0.47 -2.24,-0.47 1.22,1.87 0.69,3.1 0.4,3.15 a 4.45,4.45 0 0 1 -1.31,-0.51 c 0,0 0.66,1.95 -0.37,2.34 -1.03,0.39 -1.37,-2 -1.37,-2 0,0 -0.7,1.25 -0.8,0.93 -0.1,-0.32 -0.69,-1.93 -0.69,-1.93 -0.2,2.28 -0.76,4.19 -1.72,4.55 -0.96,0.36 -0.61,-0.9 -0.66,-1.21 -0.05,-0.31 -0.18,-1.73 -0.18,-1.73 0,0 -0.37,0.68 -0.79,1.63 -0.42,0.95 -1.43,1.66 -1.41,1 a 40.74,40.74 0 0 1 1.23,-4.19 c 0,0 -1.05,1.5 -1.83,2.56 -0.78,1.06 -1.25,0.55 -1.08,0.13 0.17,-0.42 2,-3.53 2,-3.53 0,0 -1.63,1.93 -2.9,3.22 -1.27,1.29 -2.16,1.95 -2,1.51 0.16,-0.44 2.81,-4.05 2.81,-4.05 0,0 -1.62,1.6 -2.44,2.27 -0.82,0.67 -1.4,0.53 -0.77,-0.29 0.63,-0.82 3.56,-3.8 3.56,-3.8 0,0 -2.91,2 -4.21,2.77 -1.3,0.77 -1.14,-0.32 -0.63,-0.7 0.51,-0.38 2.94,-1.8 2.94,-1.77 0,0.03 -1.26,0.17 -1,-0.11 a 31.88,31.88 0 0 1 2.64,-1.81 c 0,0 -6,2.62 -5.83,1.91 0.17,-0.71 2.52,-2 2.52,-2 -1,0.4 -2.1,0.27 -1.65,-0.11 a 19.17,19.17 0 0 1 3.11,-1.18 c 0,0 -1,-0.14 -0.9,-0.19 l 0.84,-0.41 c 0,0 -2.29,0 -1.74,-0.59 C 12.54,20 14,20 14,20 c 0,0 -0.45,-0.25 -0.31,-0.37 a 7.2,7.2 0 0 1 1.06,-0.37 c -0.49,-0.06 -1.3,-0.51 -0.81,-0.67 a 27.11,27.11 0 0 1 3.21,-0.16 c 0,0 -1.59,-0.76 -1.4,-1.18 0.19,-0.42 1.62,-0.05 1.65,0 0.03,0.05 -0.34,-0.91 0,-0.93 0.34,-0.02 2.4,0.45 2.4,0.45 0,0 -1.37,-1.9 -1,-1.85 a 17.12,17.12 0 0 1 1.78,0.62 c 0,0 0,-0.45 -0.14,-1 -0.14,-0.55 0.86,-1.28 1.61,-1.28 0.75,0 1.1,1.27 1.18,1.27 0.08,0 0.67,-2 1,-2.11 0.33,-0.11 0.33,0.74 0.33,0.74 0,0 0.27,-0.57 0.46,-0.93 0.19,-0.36 1,-0.91 1.05,-0.59 a 20.46,20.46 0 0 1 -0.83,2.59 11.9,11.9 0 0 0 1.27,-1.61 c 0.38,-0.65 1.25,-1.56 1.66,-1.42 0.41,0.14 0,1.35 0,1.35 0,0 0.59,-0.69 0.91,-1 0.32,-0.31 1.71,-1.12 1.66,-0.52 -0.05,0.6 -1.93,3 -1.93,3 a 21.47,21.47 0 0 1 2.17,-1.86 c 1.54,-1.23 2.63,-1.51 2.48,-1.05 z"
       id="path12037"
       style="stroke-width:0.797179" />
    <path
       class="cls-4"
       d="M 36.75,9.69 C 36.58,9.54 37.64,8.46 37.64,8.46 a 16.48,16.48 0 0 1 -2.13,1.2 c -0.15,-0.06 0.48,-0.78 0.48,-0.78 0,0 -1.16,0.6 -1.34,0.5 C 34.47,9.28 33.36,9.2 32.65,8.97 31.94,8.74 32.14,8.44 30.98,8.76 29.82,9.08 29.44,9.34 29.15,9.2 28.86,9.06 29,8.5 29,8.5 a 9.87,9.87 0 0 1 -1,0.89 c -0.28,0.15 0.58,-1.7 0.58,-1.7 a 19.66,19.66 0 0 1 -2.27,2 C 25.74,10 25.93,9.19 25.93,9.19 a 13.48,13.48 0 0 1 -1.36,1.16 c -0.33,0.19 -0.85,0.22 -1.58,0.54 a 12.81,12.81 0 0 0 -1.53,1 1.31,1.31 0 0 1 -1.16,-0.15 c 0,0 0.14,0.58 -0.13,0.75 -0.27,0.17 -1.77,-0.33 -1.77,-0.33 0,0 0.21,1 -0.31,1.36 a 1.4,1.4 0 0 1 -1.23,0.09 c 0,0 0.42,0.7 0,0.87 -0.2,0.09 -0.38,-0.1 -1,0.38 -0.62,0.48 -0.36,0.6 -0.83,0.89 -0.47,0.29 -1,0.59 -1,0.78 0,0.19 -1.13,0.62 -1.13,0.62 a 0.24,0.24 0 0 1 0,0.32 1.21,1.21 0 0 1 -0.52,0.22 c 0,0 0.08,0.23 0,0.33 a 15.72,15.72 0 0 1 -2.73,2.16 0.91,0.91 0 0 0 -0.28,1.4 l -1.49,0.25 c -0.18,0 0.91,0.28 0.91,0.28 l -2,0.66 a 6.81,6.81 0 0 1 1.52,0.17 0.56,0.56 0 0 1 -0.29,0.51 c -0.21,0.1 -0.9,0.94 -0.7,1 0.2,0.06 0,0.57 -0.08,0.87 -0.08,0.3 -0.6,1.15 -0.6,1.15 0,0 0.46,0.17 0.37,0.51 -0.09,0.34 -1.54,1.35 -1.54,1.35 0,0 1.59,-0.46 1.4,0.14 a 4.08,4.08 0 0 0 0.19,2.22 c 0.2,0.44 0.56,0.15 0.78,0.6 0.22,0.45 1,0.37 0.61,1 A 32.65,32.65 0 0 1 6.3,34.88 22.72,22.72 0 0 1 8.72,33 c 0.24,0 -0.53,1.18 -0.53,1.18 0,0 1.21,-1.07 1.41,-0.88 0.2,0.19 0,1.48 0,1.48 0,0 1,-1.42 1.21,-1.18 0.21,0.24 0,1.1 0.14,1.71 0.14,0.61 1.7,0.75 2.57,0 0.87,-0.75 2.36,-1.16 2.72,-0.84 A 4,4 0 0 0 19.52,34 c 0.89,-0.72 1.61,-1.29 2.14,-0.8 a 3.47,3.47 0 0 1 0.79,1.5 9.12,9.12 0 0 1 0.69,-1.62 c 0.23,-0.26 1.1,0.93 1.1,0.93 A 6.27,6.27 0 0 1 25,32.46 c 0.32,-0.29 1.67,1.08 1.67,1.08 l 0.33,-2.26 3.45,1.88 c 0,0 -0.85,-2.9 -0.45,-3.16 0.4,-0.26 1.44,-0.25 2.42,-1.25 0.98,-1 0.62,-1.66 2.54,-2.86 1.92,-1.2 1.8,-2 2.65,-2.91 0.85,-0.91 3.95,-1.21 3.95,-1.21 0,0 -1.58,-0.45 -1.84,-0.58 a 19.6,19.6 0 0 1 3.16,-0.81 c 0,0 -3.29,0 -3,-0.43 0.29,-0.43 0.68,-0.89 1.22,-1.68 0.54,-0.79 -0.25,-0.89 -0.27,-1.67 -0.02,-0.78 3.13,-1.87 3.13,-1.87 a 18.76,18.76 0 0 1 -3,0.4 c -0.15,-0.14 1.62,-0.92 1.62,-0.92 0,0 -1.79,0.47 -1.79,0.08 0,-0.39 1.13,-1.14 0.78,-1.48 C 41.22,12.47 40.19,12.6 39.9,12.12 A 5,5 0 0 0 38.42,10.87 C 38.1,10.68 37.23,10.34 37.61,9.92 a 5.77,5.77 0 0 1 1,-0.92 c 0,0 -1.69,0.83 -1.86,0.69 z m -3.29,1.43 A 11,11 0 0 1 31.85,13 c 1.26,-0.75 3.53,-1.41 3.13,-1 -0.4,0.41 -3.92,2.91 -3.92,2.91 0,0 5,-2.37 5.12,-2 0.12,0.37 -1.87,1.58 -1.87,1.58 0,0 2.55,-0.84 2.38,-0.36 -0.17,0.48 -4.85,2.31 -4.85,2.31 0,0 4.82,-0.91 4.52,-0.63 -0.3,0.28 -6.13,2.16 -6.13,2.16 0,0 5.82,-0.77 6.36,-0.65 0.54,0.12 1.16,0.53 0.52,0.88 A 48.23,48.23 0 0 1 32,19.48 c 0,0 3.89,-0.21 3.28,0.29 -0.61,0.5 -4.7,0.72 -4.7,0.72 0,0 3.9,0.53 4.09,0.63 0.19,0.1 0.58,0.64 -0.31,0.89 a 12.84,12.84 0 0 1 -3.4,-0.16 c 1.66,0.53 1.23,1.27 0.22,1.52 -1.01,0.25 -4.82,-1.11 -4.82,-1.11 0,0 2.64,2.62 2.1,2.94 -0.54,0.32 -2.24,-0.47 -2.24,-0.47 1.22,1.87 0.69,3.1 0.4,3.15 a 4.45,4.45 0 0 1 -1.31,-0.51 c 0,0 0.66,1.95 -0.37,2.34 -1.03,0.39 -1.37,-2 -1.37,-2 0,0 -0.7,1.25 -0.8,0.93 -0.1,-0.32 -0.69,-1.93 -0.69,-1.93 -0.2,2.28 -0.76,4.19 -1.72,4.55 -0.96,0.36 -0.61,-0.9 -0.66,-1.21 -0.05,-0.31 -0.18,-1.73 -0.18,-1.73 0,0 -0.37,0.68 -0.79,1.63 -0.42,0.95 -1.43,1.66 -1.41,1 a 40.74,40.74 0 0 1 1.23,-4.19 c 0,0 -1.05,1.5 -1.83,2.56 -0.78,1.06 -1.25,0.55 -1.08,0.13 0.17,-0.42 2,-3.53 2,-3.53 0,0 -1.63,1.93 -2.9,3.22 -1.27,1.29 -2.16,1.95 -2,1.51 0.16,-0.44 2.81,-4.05 2.81,-4.05 0,0 -1.62,1.6 -2.44,2.27 -0.82,0.67 -1.4,0.53 -0.77,-0.29 0.63,-0.82 3.56,-3.8 3.56,-3.8 0,0 -2.91,2 -4.21,2.77 -1.3,0.77 -1.14,-0.32 -0.63,-0.7 0.51,-0.38 2.94,-1.8 2.94,-1.77 0,0.03 -1.26,0.17 -1,-0.11 a 31.88,31.88 0 0 1 2.64,-1.81 c 0,0 -6,2.62 -5.83,1.91 0.17,-0.71 2.52,-2 2.52,-2 -1,0.4 -2.1,0.27 -1.65,-0.11 a 19.17,19.17 0 0 1 3.11,-1.18 c 0,0 -1,-0.14 -0.9,-0.19 l 0.84,-0.41 c 0,0 -2.29,0 -1.74,-0.59 C 12.54,20 14,20 14,20 c 0,0 -0.45,-0.25 -0.31,-0.37 a 7.2,7.2 0 0 1 1.06,-0.37 c -0.49,-0.06 -1.3,-0.51 -0.81,-0.67 a 27.11,27.11 0 0 1 3.21,-0.16 c 0,0 -1.59,-0.76 -1.4,-1.18 0.19,-0.42 1.62,-0.05 1.65,0 0.03,0.05 -0.34,-0.91 0,-0.93 0.34,-0.02 2.4,0.45 2.4,0.45 0,0 -1.37,-1.9 -1,-1.85 a 17.12,17.12 0 0 1 1.78,0.62 c 0,0 0,-0.45 -0.14,-1 -0.14,-0.55 0.86,-1.28 1.61,-1.28 0.75,0 1.1,1.27 1.18,1.27 0.08,0 0.67,-2 1,-2.11 0.33,-0.11 0.33,0.74 0.33,0.74 0,0 0.27,-0.57 0.46,-0.93 0.19,-0.36 1,-0.91 1.05,-0.59 a 20.46,20.46 0 0 1 -0.83,2.59 11.9,11.9 0 0 0 1.27,-1.61 c 0.38,-0.65 1.25,-1.56 1.66,-1.42 0.41,0.14 0,1.35 0,1.35 0,0 0.59,-0.69 0.91,-1 0.32,-0.31 1.71,-1.12 1.66,-0.52 -0.05,0.6 -1.93,3 -1.93,3 a 21.47,21.47 0 0 1 2.17,-1.86 c 1.54,-1.23 2.63,-1.51 2.48,-1.05 z"
       id="path12039"
       style="fill:url(#linear-gradient);stroke-width:0.797179" />
    <path
       class="cls-5"
       d="m 31.59,9.83 a 4.1,4.1 0 0 0 0.46,0.22 l -0.39,0.2 A 1.33,1.33 0 0 0 31.52,10.06 1.54,1.54 0 0 0 31.33,9.89 l 0.26,-0.06 m 3,0.75 v 0 l 0.18,0.08 H 34.6 v -0.1 m 1.55,0.14 a 1.61,1.61 0 0 0 0.32,0.14 2.79,2.79 0 0 0 1.15,0.93 l 0.14,0.07 a 4.42,4.42 0 0 1 1,0.84 1.86,1.86 0 0 0 0.94,0.77 1.54,1.54 0 0 0 -0.22,0.78 1.39,1.39 0 0 0 0.17,0.64 l -0.1,0.64 0.23,0.21 a 1.33,1.33 0 0 0 -0.21,0.85 2.35,2.35 0 0 0 0.43,1.18 c -0.18,0.26 -0.35,0.47 -0.5,0.67 a 7.58,7.58 0 0 0 -0.64,0.9 1.29,1.29 0 0 0 -0.08,1.1 1.24,1.24 0 0 0 -0.19,0.57 v 0.13 a 4,4 0 0 0 -1.78,1 6.48,6.48 0 0 0 -0.81,1.09 4,4 0 0 1 -1.63,1.63 5.59,5.59 0 0 0 -2.24,2.29 2.87,2.87 0 0 1 -0.51,0.74 2.74,2.74 0 0 1 -1.32,0.71 3,3 0 0 0 -0.94,0.4 c -0.39,0.27 -0.72,0.65 -0.6,1.86 l -1.13,-0.61 -1.07,-0.58 a 2.65,2.65 0 0 0 0.15,-0.57 v 0 h 0.1 a 1.56,1.56 0 0 0 1.15,-1 3.14,3.14 0 0 0 0.2,-1.61 1.92,1.92 0 0 0 0.91,-0.24 1.38,1.38 0 0 0 0.66,-1 1.42,1.42 0 0 0 -0.1,-0.78 7.21,7.21 0 0 0 1.27,0.16 2.65,2.65 0 0 0 0.59,-0.07 2.31,2.31 0 0 0 1.69,-1.25 h 0.38 a 4.5,4.5 0 0 0 1.15,-0.12 1.72,1.72 0 0 0 1.42,-1.47 1.65,1.65 0 0 0 -0.17,-0.92 l 0.11,-0.08 a 1.35,1.35 0 0 0 0.5,-1.08 6.83,6.83 0 0 0 1.12,-0.4 1.54,1.54 0 0 0 0.88,-1.58 1.75,1.75 0 0 0 -1.06,-1.3 l 0.27,-0.26 -0.29,-0.76 a 2.21,2.21 0 0 0 -0.11,-0.21 1.21,1.21 0 0 0 0.44,-0.61 1.3,1.3 0 0 0 -0.16,-1.18 1.17,1.17 0 0 0 -0.27,-0.28 1.54,1.54 0 0 0 0,-0.47 1.25,1.25 0 0 0 -1.14,-0.92 1.55,1.55 0 0 0 -0.07,-0.23 1.27,1.27 0 0 0 -0.49,-0.56 1.6,1.6 0 0 0 0.5,-0.14 M 10.67,21 a 2.29,2.29 0 0 0 0.07,0.28 L 10.55,21.08 10.67,21 m -1.92,3.43 a 1.24,1.24 0 0 0 -0.1,0.2 v -0.11 l 0.06,-0.07 v 0 m -0.18,0.8 a 1.27,1.27 0 0 0 0.25,0.63 1.33,1.33 0 0 0 1.07,0.53 1.86,1.86 0 0 0 -0.33,1.66 1.46,1.46 0 0 0 1.31,1 1.41,1.41 0 0 0 0.14,0.73 1.36,1.36 0 0 0 0.57,0.59 1.29,1.29 0 0 0 0.15,1.11 l 0.39,0.55 h 0.64 c 0.34,0 0.71,0 2.07,-1.28 a 1.47,1.47 0 0 0 1.07,0.45 h 0.23 a 1.44,1.44 0 0 0 0.39,0.86 1.39,1.39 0 0 0 1,0.41 2,2 0 0 0 1.28,-0.56 1.68,1.68 0 0 0 0.75,0.58 C 19.25,32.7 19,32.9 18.74,33.12 a 3.3,3.3 0 0 1 -1.69,0.42 h -0.26 a 1.92,1.92 0 0 0 -1,-0.26 5.43,5.43 0 0 0 -3.08,1.22 1.26,1.26 0 0 1 -0.65,0.22 v -0.17 a 2.43,2.43 0 0 0 -0.35,-1.6 1.28,1.28 0 0 0 -1,-0.49 H 10.39 A 1.35,1.35 0 0 0 9.78,32.16 1.53,1.53 0 0 0 8.87,30.63 v 0 A 1.53,1.53 0 0 0 8.11,29.97 3.33,3.33 0 0 1 8.05,28.87 1.41,1.41 0 0 0 8,27.76 1.34,1.34 0 0 0 8.22,27.28 1.52,1.52 0 0 0 8.15,26.28 4.23,4.23 0 0 0 8.41,25.74 5.19,5.19 0 0 0 8.58,25.22 M 23,29.91 a 2,2 0 0 0 1.71,1.09 2.09,2.09 0 0 0 1.23,-0.46 l -0.1,0.58 -0.05,0.3 a 1.52,1.52 0 0 0 -0.7,-0.16 1.37,1.37 0 0 0 -0.93,0.36 2.1,2.1 0 0 0 -0.33,0.41 1.26,1.26 0 0 0 -0.6,-0.13 1.32,1.32 0 0 0 -0.9,0.34 1.88,1.88 0 0 0 -0.7,-0.33 4.87,4.87 0 0 0 1.08,-1.94 h 0.12 0.21 M 28.56,7.69 a 19.66,19.66 0 0 1 -2.27,2 0.49,0.49 0 0 1 -0.22,0.07 c -0.3,0 -0.16,-0.57 -0.16,-0.57 a 13.48,13.48 0 0 1 -1.36,1.16 c -0.33,0.19 -0.85,0.22 -1.58,0.54 a 12.81,12.81 0 0 0 -1.53,1 0.8,0.8 0 0 1 -0.39,0.09 1.62,1.62 0 0 1 -0.77,-0.24 c 0,0 0.14,0.58 -0.13,0.75 a 0.3,0.3 0 0 1 -0.18,0 7.64,7.64 0 0 1 -1.59,-0.37 c 0,0 0.21,1 -0.31,1.36 a 1.15,1.15 0 0 1 -0.66,0.2 1.56,1.56 0 0 1 -0.57,-0.11 c 0,0 0.42,0.7 0,0.87 -0.2,0.09 -0.38,-0.1 -1,0.38 -0.62,0.48 -0.36,0.6 -0.83,0.89 -0.47,0.29 -1,0.59 -1,0.78 0,0.19 -1.13,0.62 -1.13,0.62 a 0.24,0.24 0 0 1 0,0.32 1.21,1.21 0 0 1 -0.52,0.22 c 0,0 0.08,0.23 0,0.33 a 15.72,15.72 0 0 1 -2.73,2.16 0.91,0.91 0 0 0 -0.28,1.4 l -1.49,0.25 c -0.18,0 0.91,0.28 0.91,0.28 l -2,0.66 A 6.81,6.81 0 0 1 8.29,22.9 0.56,0.56 0 0 1 8,23.41 c -0.21,0.1 -0.9,0.94 -0.7,1 0.2,0.06 0,0.57 -0.08,0.87 -0.08,0.3 -0.6,1.15 -0.6,1.15 0,0 0.46,0.17 0.37,0.51 -0.09,0.34 -1.54,1.35 -1.54,1.35 a 4.57,4.57 0 0 1 1,-0.17 c 0.27,0 0.47,0.07 0.39,0.31 a 4.08,4.08 0 0 0 0.19,2.22 c 0.2,0.44 0.56,0.15 0.78,0.6 0.22,0.45 1,0.37 0.61,1 A 32.65,32.65 0 0 1 6.3,34.88 22.72,22.72 0 0 1 8.72,33 v 0 c 0.23,0 -0.53,1.18 -0.53,1.18 0,0 1,-0.9 1.34,-0.9 0,0 0.06,0 0.07,0 0.21,0.2 0,1.48 0,1.48 0,0 0.87,-1.21 1.15,-1.21 a 0.06,0.06 0 0 1 0.06,0 c 0.19,0.24 0,1.1 0.14,1.71 0.06,0.33 0.52,0.52 1.08,0.52 a 2.35,2.35 0 0 0 1.49,-0.5 4.38,4.38 0 0 1 2.32,-0.94 0.62,0.62 0 0 1 0.4,0.1 1.48,1.48 0 0 0 0.87,0.18 4.35,4.35 0 0 0 2.41,-0.62 3.56,3.56 0 0 1 1.69,-1 0.61,0.61 0 0 1 0.45,0.19 3.47,3.47 0 0 1 0.79,1.5 9.12,9.12 0 0 1 0.69,-1.62 0.12,0.12 0 0 1 0.09,0 c 0.31,0 1,1 1,1 a 6.27,6.27 0 0 1 0.77,-1.61 0.19,0.19 0 0 1 0.12,0 c 0.45,0 1.55,1.12 1.55,1.12 l 0.33,-2.3 3.45,1.88 c 0,0 -0.85,-2.9 -0.45,-3.16 0.4,-0.26 1.44,-0.25 2.42,-1.25 0.98,-1 0.62,-1.66 2.54,-2.86 1.92,-1.2 1.8,-2 2.65,-2.91 0.85,-0.91 3.95,-1.21 3.95,-1.21 0,0 -1.58,-0.45 -1.84,-0.58 a 19.6,19.6 0 0 1 3.16,-0.81 v 0 c -0.14,0 -3.28,0 -3,-0.43 0.28,-0.43 0.68,-0.89 1.22,-1.68 0.54,-0.79 -0.25,-0.89 -0.27,-1.67 -0.02,-0.78 3.13,-1.87 3.13,-1.87 0,0 -2.27,0.43 -2.9,0.43 -0.08,0 -0.14,0 -0.15,0 -0.01,0 1.62,-0.92 1.62,-0.92 a 7.27,7.27 0 0 1 -1.42,0.24 c -0.22,0 -0.37,0 -0.37,-0.16 0,-0.39 1.13,-1.14 0.78,-1.48 -0.35,-0.34 -1.38,-0.21 -1.67,-0.69 A 5,5 0 0 0 38.37,10.9 C 38.05,10.71 37.18,10.37 37.56,9.95 A 5.77,5.77 0 0 1 38.61,9 9.08,9.08 0 0 1 36.82,9.69 H 36.75 C 36.58,9.54 37.64,8.46 37.64,8.46 a 17.41,17.41 0 0 1 -2.12,1.2 v 0 C 35.37,9.6 36,8.88 36,8.88 A 5.59,5.59 0 0 1 34.72,9.39 H 34.66 C 34.48,9.28 33.37,9.21 32.66,8.98 32.15,8.82 32.1,8.63 31.74,8.63 a 3.1,3.1 0 0 0 -0.75,0.14 13.55,13.55 0 0 1 -1.64,0.48 0.41,0.41 0 0 1 -0.19,0 C 28.88,9.11 29.08,8.55 29.08,8.55 a 9.87,9.87 0 0 1 -1,0.89 v 0 c -0.18,0 0.61,-1.71 0.61,-1.71 z m -0.45,4.88 c 0,0 0.59,-0.69 0.91,-1 a 3.23,3.23 0 0 1 1.45,-0.74 c 0.14,0 0.22,0.06 0.21,0.22 -0.05,0.61 -1.93,3 -1.93,3 a 21.47,21.47 0 0 1 2.17,-1.86 5.41,5.41 0 0 1 2.37,-1.28 c 0.15,0 0.21,0.07 0.17,0.21 a 11,11 0 0 1 -1.61,1.88 9.39,9.39 0 0 1 3,-1.12 c 0.13,0 0.17,0 0.08,0.13 -0.4,0.42 -3.92,2.91 -3.92,2.91 a 38.08,38.08 0 0 1 5,-2.05 q 0.09,0 0.09,0 c 0.1,0.36 -1.87,1.58 -1.87,1.58 A 11.32,11.32 0 0 1 36.46,14 c 0.17,0 0.26,0 0.23,0.15 -0.18,0.48 -4.85,2.31 -4.85,2.31 0,0 3.62,-0.68 4.39,-0.68 0.12,0 0.17,0 0.13,0 -0.31,0.28 -6.13,2.16 -6.13,2.16 0,0 5,-0.66 6.16,-0.66 h 0.2 c 0.55,0.12 1.16,0.53 0.52,0.88 A 48.23,48.23 0 0 1 32,19.48 c 0,0 0.78,0 1.59,0 1,0 2,0.06 1.69,0.33 -0.61,0.51 -4.7,0.72 -4.7,0.72 0,0 3.9,0.53 4.09,0.63 0.19,0.1 0.58,0.64 -0.31,0.89 A 3.1,3.1 0 0 1 33.54,22.13 20,20 0 0 1 31,21.85 c 1.66,0.53 1.23,1.27 0.22,1.52 a 0.87,0.87 0 0 1 -0.3,0 21.58,21.58 0 0 1 -4.52,-1.15 c 0,0 2.6,2.66 2.06,2.98 a 0.68,0.68 0 0 1 -0.37,0.08 5.93,5.93 0 0 1 -1.87,-0.55 c 1.22,1.87 0.69,3.1 0.4,3.15 v 0 a 4.81,4.81 0 0 1 -1.27,-0.51 c 0,0 0.66,1.95 -0.37,2.34 a 0.68,0.68 0 0 1 -0.23,0.05 c -0.85,0 -1.14,-2 -1.14,-2 0,0 -0.55,1 -0.74,1 a 0.06,0.06 0 0 1 -0.06,-0.05 c -0.09,-0.32 -0.69,-1.93 -0.69,-1.93 -0.2,2.28 -0.76,4.19 -1.72,4.55 a 0.88,0.88 0 0 1 -0.29,0.06 c -0.58,0 -0.32,-1 -0.37,-1.27 -0.05,-0.27 -0.18,-1.73 -0.18,-1.73 0,0 -0.37,0.68 -0.79,1.63 -0.32,0.71 -0.92,1.26 -1.22,1.26 -0.12,0 -0.19,-0.08 -0.19,-0.27 a 40.74,40.74 0 0 1 1.23,-4.19 c 0,0 -1.05,1.5 -1.83,2.56 -0.35,0.48 -0.63,0.64 -0.82,0.64 -0.19,0 -0.35,-0.28 -0.26,-0.51 0.17,-0.42 2,-3.53 2,-3.53 0,0 -1.63,1.93 -2.9,3.22 a 7.45,7.45 0 0 1 -2,1.65 c 0,0 -0.06,-0.05 0,-0.14 0.18,-0.44 2.81,-4.05 2.81,-4.05 0,0 -1.62,1.6 -2.44,2.27 a 1.65,1.65 0 0 1 -0.85,0.43 c -0.25,0 -0.28,-0.25 0.08,-0.72 0.61,-0.8 3.56,-3.8 3.56,-3.8 0,0 -2.91,2 -4.21,2.77 a 1.57,1.57 0 0 1 -0.72,0.27 c -0.48,0 -0.29,-0.68 0.09,-1 0.38,-0.32 2.7,-1.68 2.92,-1.79 a 3.63,3.63 0 0 1 -0.63,0.05 c -0.27,0 -0.5,0 -0.39,-0.17 a 31.88,31.88 0 0 1 2.64,-1.81 c 0,0 -4.68,2 -5.66,2 -0.13,0 -0.19,0 -0.17,-0.12 0.21,-0.69 2.52,-2 2.52,-2 a 3.49,3.49 0 0 1 -1.21,0.24 c -0.45,0 -0.7,-0.13 -0.44,-0.35 a 19.17,19.17 0 0 1 3.11,-1.18 c 0,0 -1,-0.14 -0.9,-0.19 l 0.84,-0.41 h -0.11 c -0.45,0 -2.1,0 -1.63,-0.59 C 12.46,19.97 13.94,20 14,20 v 0 c 0,0 -0.45,-0.25 -0.31,-0.37 a 7.2,7.2 0 0 1 1.06,-0.37 c -0.49,-0.06 -1.3,-0.51 -0.81,-0.67 a 27.11,27.11 0 0 1 3.21,-0.16 c 0,0 -1.59,-0.76 -1.4,-1.18 0.06,-0.15 0.29,-0.19 0.56,-0.19 a 4.16,4.16 0 0 1 1.09,0.17 v 0 c 0,0 -0.33,-0.91 0,-0.93 v 0 c 0.37,0 2.37,0.45 2.37,0.45 0,0 -1.33,-1.85 -1,-1.85 v 0 a 17.12,17.12 0 0 1 1.78,0.62 c 0,0 0,-0.45 -0.14,-1 -0.14,-0.55 0.86,-1.28 1.61,-1.28 v 0 c 0.77,0 1.1,1.27 1.18,1.27 v 0 c 0.07,0 0.67,-2 1,-2.11 h 0.06 c 0.28,0 0.27,0.75 0.27,0.75 0,0 0.27,-0.57 0.46,-0.93 a 1.69,1.69 0 0 1 0.95,-0.69 0.09,0.09 0 0 1 0.1,0.1 20.46,20.46 0 0 1 -0.83,2.59 11.9,11.9 0 0 0 1.27,-1.61 c 0.35,-0.61 1.13,-1.43 1.57,-1.43 h 0.09 c 0.42,0.14 0,1.35 0,1.35 z M 14,25.08 Z"
       id="path12041"
       style="stroke-width:0.797179" />
    <path
       class="cls-6"
       d="m 31.69,9.32 h 0.09 a 2.26,2.26 0 0 0 0.61,0.27 9.37,9.37 0 0 0 1.49,0.3 l 0.49,0.09 a 0.94,0.94 0 0 0 0.34,0.07 h 0.17 v 0.1 l 0.34,0.13 0.14,0.06 h 0.14 a 1.34,1.34 0 0 0 0.68,-0.23 l 0.09,0.09 a 0.78,0.78 0 0 0 0.51,0.18 1.91,1.91 0 0 0 1.05,0.95 l 0.15,0.08 a 4.78,4.78 0 0 1 1.23,1 1.91,1.91 0 0 0 1.35,0.75 1.66,1.66 0 0 0 -0.56,1.09 0.84,0.84 0 0 0 0.21,0.54 0.94,0.94 0 0 0 0,0.16 l -0.06,0.4 0.28,0.25 a 0.41,0.41 0 0 0 0.1,0.09 1.06,1.06 0 0 0 -0.4,0.88 2,2 0 0 0 0.37,1.08 l 0.07,0.11 v 0.08 c -0.24,0.35 -0.47,0.64 -0.66,0.88 a 7.33,7.33 0 0 0 -0.59,0.85 0.78,0.78 0 0 0 0,0.78 0.56,0.56 0 0 0 0.12,0.16 0.57,0.57 0 0 0 -0.34,0.54 v 0.44 a 4.24,4.24 0 0 0 -1.88,1 6.29,6.29 0 0 0 -0.71,1 4.49,4.49 0 0 1 -1.79,1.79 5.09,5.09 0 0 0 -2.07,2.11 3.49,3.49 0 0 1 -0.6,0.85 3.18,3.18 0 0 1 -1.53,0.84 2.32,2.32 0 0 0 -0.79,0.33 c -0.26,0.18 -0.65,0.45 -0.23,2.38 l -2,-1.1 -0.86,-0.47 -0.16,1 -0.18,1 a 1.94,1.94 0 0 0 -1.07,-0.46 0.86,0.86 0 0 0 -0.59,0.23 2.32,2.32 0 0 0 -0.49,0.75 1.11,1.11 0 0 0 -0.78,-0.34 0.8,0.8 0 0 0 -0.62,0.28 2.08,2.08 0 0 0 -0.22,0.33 2.18,2.18 0 0 0 -0.25,-0.28 1.35,1.35 0 0 0 -0.93,-0.37 3.83,3.83 0 0 0 -2.13,1.15 3.72,3.72 0 0 1 -2,0.53 1.61,1.61 0 0 1 -0.46,0 1.36,1.36 0 0 0 -0.81,-0.23 4.92,4.92 0 0 0 -2.76,1.1 1.69,1.69 0 0 1 -1.05,0.34 1.22,1.22 0 0 1 -0.41,-0.06 6.05,6.05 0 0 1 0,-0.61 2,2 0 0 0 -0.25,-1.29 0.77,0.77 0 0 0 -0.61,-0.3 0.76,0.76 0 0 0 -0.47,0.14 0.54,0.54 0 0 0 -0.16,-0.21 0.78,0.78 0 0 0 -0.56,-0.22 1,1 0 0 0 -0.21,0 L 9.35,32.5 A 1,1 0 0 0 9.41,31.82 1.18,1.18 0 0 0 8.63,31 0.66,0.66 0 0 0 8.51,31 v 0 A 1.17,1.17 0 0 0 7.7,30.33 3.67,3.67 0 0 1 7.58,28.69 0.91,0.91 0 0 0 7.46,27.87 L 7.35,27.75 A 1.25,1.25 0 0 0 7.73,27.17 1,1 0 0 0 7.58,26.31 8,8 0 0 0 7.94,25.58 1.93,1.93 0 0 0 8.12,24.39 2.47,2.47 0 0 1 8.41,24.07 1.25,1.25 0 0 0 9,22.77 v 0 l 1.31,-0.43 -0.17,0.11 a 0.85,0.85 0 0 0 -0.31,1 0.72,0.72 0 0 0 0.19,0.3 2.74,2.74 0 0 0 -1,1.15 0.79,0.79 0 0 0 0.12,0.7 0.85,0.85 0 0 0 0.72,0.33 9.45,9.45 0 0 0 2.33,-0.64 v 0 c -0.67,0.4 -1.37,0.84 -1.63,1 A 1.51,1.51 0 0 0 10,27.9 a 0.94,0.94 0 0 0 0.93,0.65 1.59,1.59 0 0 0 0.66,-0.16 1.17,1.17 0 0 0 -0.17,1.16 0.86,0.86 0 0 0 0.8,0.48 h 0.05 c -0.11,0.18 -0.18,0.31 -0.22,0.39 a 0.83,0.83 0 0 0 0.05,0.78 l 0.25,0.33 h 0.37 c 0.22,0 0.59,0 2.18,-1.58 a 1.3,1.3 0 0 0 0.14,0.32 1,1 0 0 0 0.82,0.43 1.33,1.33 0 0 0 0.82,-0.32 c 0,0.25 -0.09,0.46 -0.1,0.59 a 1,1 0 0 0 0.26,0.73 0.86,0.86 0 0 0 0.63,0.26 2.12,2.12 0 0 0 1.48,-1 1.25,1.25 0 0 0 0.32,0.81 1,1 0 0 0 0.76,0.32 1.41,1.41 0 0 0 0.54,-0.11 c 0.79,-0.29 1.39,-1.19 1.77,-2.67 a 0.72,0.72 0 0 0 0.45,0.15 0.74,0.74 0 0 0 0.45,-0.14 1.66,1.66 0 0 0 1.43,1.17 1.27,1.27 0 0 0 0.47,-0.09 1.77,1.77 0 0 0 1,-1.84 1.63,1.63 0 0 0 0.36,0 h 0.15 a 1,1 0 0 0 0.77,-0.68 2.92,2.92 0 0 0 0,-2 2.72,2.72 0 0 0 0.55,0.06 1.45,1.45 0 0 0 0.72,-0.17 0.84,0.84 0 0 0 0.42,-0.64 c 0,-0.17 0.07,-0.54 -0.63,-1.48 a 10,10 0 0 0 2.3,0.42 1.68,1.68 0 0 0 0.47,-0.06 c 0.85,-0.21 1.38,-0.69 1.42,-1.29 h 0.77 a 3.88,3.88 0 0 0 1,-0.1 c 0.86,-0.24 1,-0.76 1.07,-1.05 a 1.2,1.2 0 0 0 -0.48,-1 1.9,1.9 0 0 0 0.59,-0.29 0.78,0.78 0 0 0 0.27,-0.89 1,1 0 0 0 -0.07,-0.15 8,8 0 0 0 1.5,-0.49 1,1 0 0 0 0.62,-1.07 c -0.11,-0.77 -1,-1 -1.33,-1.1 a 1.16,1.16 0 0 0 -0.35,0 H 36.18 A 1.78,1.78 0 0 0 36.7,16.3 L 37.06,15.94 37,15.5 a 0.72,0.72 0 0 0 -0.47,-0.43 c 0.67,-0.4 0.74,-0.59 0.8,-0.74 a 0.77,0.77 0 0 0 -0.1,-0.72 0.75,0.75 0 0 0 -0.44,-0.31 0.73,0.73 0 0 0 0,-0.6 0.76,0.76 0 0 0 -0.77,-0.55 1.7,1.7 0 0 0 -0.43,0.07 0.8,0.8 0 0 0 0,-0.6 0.79,0.79 0 0 0 -0.77,-0.46 3.59,3.59 0 0 0 -0.77,0.13 0.82,0.82 0 0 0 -0.11,-0.73 0.85,0.85 0 0 0 -0.73,-0.35 4.19,4.19 0 0 0 -1.91,0.79 0.86,0.86 0 0 0 -0.23,-0.6 0.89,0.89 0 0 0 -0.68,-0.28 3.48,3.48 0 0 0 -1.7,0.75 1,1 0 0 0 -0.44,-0.31 0.81,0.81 0 0 0 -0.31,-0.05 2.18,2.18 0 0 0 -1.4,0.78 0.79,0.79 0 0 0 -0.71,-0.43 2.25,2.25 0 0 0 -1.46,0.89 h -0.22 a 0.86,0.86 0 0 0 -0.28,0 c -0.38,0.13 -0.63,0.5 -0.94,1.25 a 1.44,1.44 0 0 0 -1,-0.44 2.74,2.74 0 0 0 -1.93,1 1.48,1.48 0 0 0 -0.38,0.9 6.16,6.16 0 0 0 -0.84,-0.25 H 18.67 18.2 l -0.19,0.38 c -0.11,0.22 -0.21,0.4 0.19,1.12 a 6.22,6.22 0 0 0 -0.86,-0.12 h -0.08 a 0.78,0.78 0 0 0 -0.61,0.35 1,1 0 0 0 -0.15,0.41 h -0.24 c -0.78,0 -1.08,0.33 -1.21,0.61 a 0.9,0.9 0 0 0 0,0.8 7.32,7.32 0 0 0 -1.42,0.16 0.83,0.83 0 0 0 -0.63,0.88 0.76,0.76 0 0 0 0.11,0.33 0.64,0.64 0 0 0 -0.18,0.25 2.71,2.71 0 0 0 -1.6,0.77 0.92,0.92 0 0 0 -0.18,1 1,1 0 0 0 0.62,0.53 L 11.07,21.95 10.32,21.77 10,21.15 A 0.4,0.4 0 0 1 9.92,20.93 c 0,0 0.07,-0.1 0.17,-0.16 a 14,14 0 0 0 3,-2.41 0.71,0.71 0 0 0 0.08,-0.18 1.15,1.15 0 0 0 0.34,-0.25 0.85,0.85 0 0 0 0.2,-0.34 c 0.7,-0.32 0.92,-0.54 1,-0.75 0.08,-0.21 0.42,-0.29 0.61,-0.41 l 0.16,-0.1 a 1.45,1.45 0 0 0 0.59,-0.61 0.88,0.88 0 0 1 0.3,-0.32 c 0.25,-0.2 0.33,-0.2 0.4,-0.2 a 1.15,1.15 0 0 0 0.45,-0.1 0.93,0.93 0 0 0 0.52,-0.58 v -0.14 a 1.65,1.65 0 0 0 0.75,-0.3 1.54,1.54 0 0 0 0.61,-1 3.88,3.88 0 0 0 0.89,0.14 1,1 0 0 0 0.56,-0.15 1,1 0 0 0 0.36,-0.41 h 0.16 a 1.52,1.52 0 0 0 0.71,-0.17 4,4 0 0 0 0.68,-0.46 3.31,3.31 0 0 1 0.81,-0.51 6.4,6.4 0 0 1 0.88,-0.29 3,3 0 0 0 0.75,-0.23 5.52,5.52 0 0 0 0.76,-0.6 0.83,0.83 0 0 0 0.41,0.1 1.17,1.17 0 0 0 0.55,-0.15 5.72,5.72 0 0 0 0.73,-0.54 l 0.22,0.33 h 0.59 l 0.16,-0.09 A 2.38,2.38 0 0 0 28.67,9.8 l 0.12,0.08 a 1.18,1.18 0 0 0 0.5,0.11 2.93,2.93 0 0 0 0.93,-0.22 l 0.9,-0.29 A 2.63,2.63 0 0 1 31.69,9.37 M 28.56,7.69 a 19.66,19.66 0 0 1 -2.27,2 0.49,0.49 0 0 1 -0.22,0.07 c -0.3,0 -0.16,-0.57 -0.16,-0.57 a 13.48,13.48 0 0 1 -1.36,1.16 c -0.33,0.19 -0.85,0.22 -1.58,0.54 a 12.81,12.81 0 0 0 -1.53,1 0.8,0.8 0 0 1 -0.39,0.09 1.62,1.62 0 0 1 -0.77,-0.24 c 0,0 0.14,0.58 -0.13,0.75 a 0.3,0.3 0 0 1 -0.18,0 7.64,7.64 0 0 1 -1.59,-0.37 c 0,0 0.21,1 -0.31,1.36 a 1.15,1.15 0 0 1 -0.66,0.2 1.56,1.56 0 0 1 -0.57,-0.11 c 0,0 0.42,0.7 0,0.87 -0.2,0.09 -0.38,-0.1 -1,0.38 -0.62,0.48 -0.36,0.6 -0.83,0.89 -0.47,0.29 -1,0.59 -1,0.78 0,0.19 -1.13,0.62 -1.13,0.62 a 0.24,0.24 0 0 1 0,0.32 1.21,1.21 0 0 1 -0.52,0.22 c 0,0 0.08,0.23 0,0.33 a 15.72,15.72 0 0 1 -2.73,2.16 0.91,0.91 0 0 0 -0.28,1.4 l -1.49,0.25 c -0.18,0 0.91,0.28 0.91,0.28 l -2,0.66 A 6.81,6.81 0 0 1 8.29,22.9 0.56,0.56 0 0 1 8,23.41 c -0.21,0.1 -0.9,0.94 -0.7,1 0.2,0.06 0,0.57 -0.08,0.87 -0.08,0.3 -0.6,1.15 -0.6,1.15 0,0 0.46,0.17 0.37,0.51 -0.09,0.34 -1.54,1.35 -1.54,1.35 a 4.57,4.57 0 0 1 1,-0.17 c 0.27,0 0.47,0.07 0.39,0.31 a 4.08,4.08 0 0 0 0.19,2.22 c 0.2,0.44 0.56,0.15 0.78,0.6 0.22,0.45 1,0.37 0.61,1 A 32.65,32.65 0 0 1 6.3,34.88 22.72,22.72 0 0 1 8.72,33 v 0 c 0.23,0 -0.53,1.18 -0.53,1.18 0,0 1,-0.9 1.34,-0.9 0,0 0.06,0 0.07,0 0.21,0.2 0,1.48 0,1.48 0,0 0.87,-1.21 1.15,-1.21 a 0.06,0.06 0 0 1 0.06,0 c 0.19,0.24 0,1.1 0.14,1.71 0.06,0.33 0.52,0.52 1.08,0.52 a 2.35,2.35 0 0 0 1.49,-0.5 4.38,4.38 0 0 1 2.32,-0.94 0.62,0.62 0 0 1 0.4,0.1 1.48,1.48 0 0 0 0.87,0.18 4.35,4.35 0 0 0 2.41,-0.62 3.56,3.56 0 0 1 1.69,-1 0.61,0.61 0 0 1 0.45,0.19 3.47,3.47 0 0 1 0.79,1.5 9.12,9.12 0 0 1 0.69,-1.62 0.12,0.12 0 0 1 0.09,0 c 0.31,0 1,1 1,1 a 6.27,6.27 0 0 1 0.77,-1.61 0.19,0.19 0 0 1 0.12,0 c 0.45,0 1.55,1.12 1.55,1.12 l 0.33,-2.3 3.45,1.88 c 0,0 -0.85,-2.9 -0.45,-3.16 0.4,-0.26 1.44,-0.25 2.42,-1.25 0.98,-1 0.62,-1.66 2.54,-2.86 1.92,-1.2 1.8,-2 2.65,-2.91 0.85,-0.91 3.95,-1.21 3.95,-1.21 0,0 -1.58,-0.45 -1.84,-0.58 a 19.6,19.6 0 0 1 3.16,-0.81 v 0 c -0.14,0 -3.28,0 -3,-0.43 0.28,-0.43 0.68,-0.89 1.22,-1.68 0.54,-0.79 -0.25,-0.89 -0.27,-1.67 -0.02,-0.78 3.13,-1.87 3.13,-1.87 0,0 -2.27,0.43 -2.9,0.43 -0.08,0 -0.14,0 -0.15,0 -0.01,0 1.62,-0.92 1.62,-0.92 a 7.27,7.27 0 0 1 -1.42,0.24 c -0.22,0 -0.37,0 -0.37,-0.16 0,-0.39 1.13,-1.14 0.78,-1.48 -0.35,-0.34 -1.38,-0.21 -1.67,-0.69 A 5,5 0 0 0 38.37,10.9 C 38.05,10.71 37.18,10.37 37.56,9.95 A 5.77,5.77 0 0 1 38.61,9 9.08,9.08 0 0 1 36.82,9.69 H 36.75 C 36.58,9.54 37.64,8.46 37.64,8.46 a 17.41,17.41 0 0 1 -2.12,1.2 v 0 C 35.37,9.6 36,8.88 36,8.88 A 5.59,5.59 0 0 1 34.72,9.39 H 34.66 C 34.48,9.28 33.37,9.21 32.66,8.98 32.15,8.82 32.1,8.63 31.74,8.63 a 3.1,3.1 0 0 0 -0.75,0.14 13.55,13.55 0 0 1 -1.64,0.48 0.41,0.41 0 0 1 -0.19,0 C 28.88,9.11 29.08,8.55 29.08,8.55 a 9.87,9.87 0 0 1 -1,0.89 v 0 c -0.18,0 0.61,-1.71 0.61,-1.71 z m -0.45,4.88 c 0,0 0.59,-0.69 0.91,-1 a 3.23,3.23 0 0 1 1.45,-0.74 c 0.14,0 0.22,0.06 0.21,0.22 -0.05,0.61 -1.93,3 -1.93,3 a 21.47,21.47 0 0 1 2.17,-1.86 5.41,5.41 0 0 1 2.37,-1.28 c 0.15,0 0.21,0.07 0.17,0.21 a 11,11 0 0 1 -1.61,1.88 9.39,9.39 0 0 1 3,-1.12 c 0.13,0 0.17,0 0.08,0.13 -0.4,0.42 -3.92,2.91 -3.92,2.91 a 38.08,38.08 0 0 1 5,-2.05 q 0.09,0 0.09,0 c 0.1,0.36 -1.87,1.58 -1.87,1.58 A 11.32,11.32 0 0 1 36.46,14 c 0.17,0 0.26,0 0.23,0.15 -0.18,0.48 -4.85,2.31 -4.85,2.31 0,0 3.62,-0.68 4.39,-0.68 0.12,0 0.17,0 0.13,0 -0.31,0.28 -6.13,2.16 -6.13,2.16 0,0 5,-0.66 6.16,-0.66 h 0.2 c 0.55,0.12 1.16,0.53 0.52,0.88 A 48.23,48.23 0 0 1 32,19.48 c 0,0 0.78,0 1.59,0 1,0 2,0.06 1.69,0.33 -0.61,0.51 -4.7,0.72 -4.7,0.72 0,0 3.9,0.53 4.09,0.63 0.19,0.1 0.58,0.64 -0.31,0.89 A 3.1,3.1 0 0 1 33.54,22.13 20,20 0 0 1 31,21.85 c 1.66,0.53 1.23,1.27 0.22,1.52 a 0.87,0.87 0 0 1 -0.3,0 21.58,21.58 0 0 1 -4.52,-1.15 c 0,0 2.6,2.66 2.06,2.98 a 0.68,0.68 0 0 1 -0.37,0.08 5.93,5.93 0 0 1 -1.87,-0.55 c 1.22,1.87 0.69,3.1 0.4,3.15 v 0 a 4.81,4.81 0 0 1 -1.27,-0.51 c 0,0 0.66,1.95 -0.37,2.34 a 0.68,0.68 0 0 1 -0.23,0.05 c -0.85,0 -1.14,-2 -1.14,-2 0,0 -0.55,1 -0.74,1 a 0.06,0.06 0 0 1 -0.06,-0.05 c -0.09,-0.32 -0.69,-1.93 -0.69,-1.93 -0.2,2.28 -0.76,4.19 -1.72,4.55 a 0.88,0.88 0 0 1 -0.29,0.06 c -0.58,0 -0.32,-1 -0.37,-1.27 -0.05,-0.27 -0.18,-1.73 -0.18,-1.73 0,0 -0.37,0.68 -0.79,1.63 -0.32,0.71 -0.92,1.26 -1.22,1.26 -0.12,0 -0.19,-0.08 -0.19,-0.27 a 40.74,40.74 0 0 1 1.23,-4.19 c 0,0 -1.05,1.5 -1.83,2.56 -0.35,0.48 -0.63,0.64 -0.82,0.64 -0.19,0 -0.35,-0.28 -0.26,-0.51 0.17,-0.42 2,-3.53 2,-3.53 0,0 -1.63,1.93 -2.9,3.22 a 7.45,7.45 0 0 1 -2,1.65 c 0,0 -0.06,-0.05 0,-0.14 0.18,-0.44 2.81,-4.05 2.81,-4.05 0,0 -1.62,1.6 -2.44,2.27 a 1.65,1.65 0 0 1 -0.85,0.43 c -0.25,0 -0.28,-0.25 0.08,-0.72 0.61,-0.8 3.56,-3.8 3.56,-3.8 0,0 -2.91,2 -4.21,2.77 a 1.57,1.57 0 0 1 -0.72,0.27 c -0.48,0 -0.29,-0.68 0.09,-1 0.38,-0.32 2.7,-1.68 2.92,-1.79 a 3.63,3.63 0 0 1 -0.63,0.05 c -0.27,0 -0.5,0 -0.39,-0.17 a 31.88,31.88 0 0 1 2.64,-1.81 c 0,0 -4.68,2 -5.66,2 -0.13,0 -0.19,0 -0.17,-0.12 0.21,-0.69 2.52,-2 2.52,-2 a 3.49,3.49 0 0 1 -1.21,0.24 c -0.45,0 -0.7,-0.13 -0.44,-0.35 a 19.17,19.17 0 0 1 3.11,-1.18 c 0,0 -1,-0.14 -0.9,-0.19 l 0.84,-0.41 h -0.11 c -0.45,0 -2.1,0 -1.63,-0.59 C 12.46,19.97 13.94,20 14,20 v 0 c 0,0 -0.45,-0.25 -0.31,-0.37 a 7.2,7.2 0 0 1 1.06,-0.37 c -0.49,-0.06 -1.3,-0.51 -0.81,-0.67 a 27.11,27.11 0 0 1 3.21,-0.16 c 0,0 -1.59,-0.76 -1.4,-1.18 0.06,-0.15 0.29,-0.19 0.56,-0.19 a 4.16,4.16 0 0 1 1.09,0.17 v 0 c 0,0 -0.33,-0.91 0,-0.93 v 0 c 0.37,0 2.37,0.45 2.37,0.45 0,0 -1.33,-1.85 -1,-1.85 v 0 a 17.12,17.12 0 0 1 1.78,0.62 c 0,0 0,-0.45 -0.14,-1 -0.14,-0.55 0.86,-1.28 1.61,-1.28 v 0 c 0.77,0 1.1,1.27 1.18,1.27 v 0 c 0.07,0 0.67,-2 1,-2.11 h 0.06 c 0.28,0 0.27,0.75 0.27,0.75 0,0 0.27,-0.57 0.46,-0.93 a 1.69,1.69 0 0 1 0.95,-0.69 0.09,0.09 0 0 1 0.1,0.1 20.46,20.46 0 0 1 -0.83,2.59 11.9,11.9 0 0 0 1.27,-1.61 c 0.35,-0.61 1.13,-1.43 1.57,-1.43 h 0.09 c 0.42,0.14 0,1.35 0,1.35 z M 14,25.08 Z"
       id="path12043"
       style="fill:url(#linear-gradient-2);stroke-width:0.797179" />
    <path
       class="cls-7"
       d="M 33.46,11.12 A 11,11 0 0 1 31.85,13 c 1.26,-0.75 3.53,-1.41 3.13,-1 -0.4,0.41 -3.92,2.91 -3.92,2.91 0,0 5,-2.37 5.12,-2 0.12,0.37 -1.87,1.58 -1.87,1.58 0,0 2.55,-0.84 2.38,-0.36 -0.17,0.48 -4.85,2.31 -4.85,2.31 0,0 4.82,-0.91 4.52,-0.63 -0.3,0.28 -6.13,2.16 -6.13,2.16 0,0 5.82,-0.77 6.36,-0.65 0.54,0.12 1.16,0.53 0.52,0.88 A 48.23,48.23 0 0 1 32,19.48 c 0,0 3.89,-0.21 3.28,0.29 -0.61,0.5 -4.7,0.72 -4.7,0.72 0,0 3.9,0.53 4.09,0.63 0.19,0.1 0.58,0.64 -0.31,0.89 a 12.84,12.84 0 0 1 -3.4,-0.16 c 1.66,0.53 1.23,1.27 0.22,1.52 -1.01,0.25 -4.82,-1.11 -4.82,-1.11 0,0 2.64,2.62 2.1,2.94 -0.54,0.32 -2.24,-0.47 -2.24,-0.47 1.22,1.87 0.69,3.1 0.4,3.15 a 4.45,4.45 0 0 1 -1.31,-0.51 c 0,0 0.66,1.95 -0.37,2.34 -1.03,0.39 -1.37,-2 -1.37,-2 0,0 -0.7,1.25 -0.8,0.93 -0.1,-0.32 -0.69,-1.93 -0.69,-1.93 -0.2,2.28 -0.76,4.19 -1.72,4.55 -0.96,0.36 -0.61,-0.9 -0.66,-1.21 -0.05,-0.31 -0.18,-1.73 -0.18,-1.73 0,0 -0.37,0.68 -0.79,1.63 -0.42,0.95 -1.43,1.66 -1.41,1 a 40.74,40.74 0 0 1 1.23,-4.19 c 0,0 -1.05,1.5 -1.83,2.56 -0.78,1.06 -1.25,0.55 -1.08,0.13 0.17,-0.42 2,-3.53 2,-3.53 0,0 -1.63,1.93 -2.9,3.22 -1.27,1.29 -2.16,1.95 -2,1.51 0.16,-0.44 2.81,-4.05 2.81,-4.05 0,0 -1.62,1.6 -2.44,2.27 -0.82,0.67 -1.4,0.53 -0.77,-0.29 0.63,-0.82 3.56,-3.8 3.56,-3.8 0,0 -2.91,2 -4.21,2.77 -1.3,0.77 -1.14,-0.32 -0.63,-0.7 0.51,-0.38 2.94,-1.8 2.94,-1.77 0,0.03 -1.26,0.17 -1,-0.11 a 31.88,31.88 0 0 1 2.64,-1.81 c 0,0 -6,2.62 -5.83,1.91 0.17,-0.71 2.52,-2 2.52,-2 -1,0.4 -2.1,0.27 -1.65,-0.11 a 19.17,19.17 0 0 1 3.11,-1.18 c 0,0 -1,-0.14 -0.9,-0.19 l 0.84,-0.41 c 0,0 -2.29,0 -1.74,-0.59 C 12.54,20 14,20 14,20 c 0,0 -0.45,-0.25 -0.31,-0.37 a 7.2,7.2 0 0 1 1.06,-0.37 c -0.49,-0.06 -1.3,-0.51 -0.81,-0.67 a 27.11,27.11 0 0 1 3.21,-0.16 c 0,0 -1.59,-0.76 -1.4,-1.18 0.19,-0.42 1.62,-0.05 1.65,0 0.03,0.05 -0.34,-0.91 0,-0.93 0.34,-0.02 2.4,0.45 2.4,0.45 0,0 -1.37,-1.9 -1,-1.85 a 17.12,17.12 0 0 1 1.78,0.62 c 0,0 0,-0.45 -0.14,-1 -0.14,-0.55 0.86,-1.28 1.61,-1.28 0.75,0 1.1,1.27 1.18,1.27 0.08,0 0.67,-2 1,-2.11 0.33,-0.11 0.33,0.74 0.33,0.74 0,0 0.27,-0.57 0.46,-0.93 0.19,-0.36 1,-0.91 1.05,-0.59 a 20.46,20.46 0 0 1 -0.83,2.59 11.9,11.9 0 0 0 1.27,-1.61 c 0.38,-0.65 1.25,-1.56 1.66,-1.42 0.41,0.14 0,1.35 0,1.35 0,0 0.59,-0.69 0.91,-1 0.32,-0.31 1.71,-1.12 1.66,-0.52 -0.05,0.6 -1.93,3 -1.93,3 a 21.47,21.47 0 0 1 2.17,-1.86 c 1.54,-1.23 2.63,-1.51 2.48,-1.05 z"
       id="path12045"
       style="stroke:url(#linear-gradient-3)" />
  </g>
  <metadata
     id="metadata12191">
    <rdf:RDF>
      <cc:Work
         rdf:about="">
        <dc:title>12-Destruction-Shockwave</dc:title>
      </cc:Work>
    </rdf:RDF>
  </metadata>
</svg>
