<?xml version="1.0" encoding="UTF-8" standalone="no"?>
<svg
   viewBox="0 0 48 48"
   version="1.1"
   id="svg60"
   sodipodi:docname="4-Syrup on Pancakes.svg"
   inkscape:version="1.3.2 (091e20e, 2023-11-25, custom)"
   xmlns:inkscape="http://www.inkscape.org/namespaces/inkscape"
   xmlns:sodipodi="http://sodipodi.sourceforge.net/DTD/sodipodi-0.dtd"
   xmlns:xlink="http://www.w3.org/1999/xlink"
   xmlns="http://www.w3.org/2000/svg"
   xmlns:svg="http://www.w3.org/2000/svg">
  <sodipodi:namedview
     id="namedview60"
     pagecolor="#ffffff"
     bordercolor="#666666"
     borderopacity="1.0"
     inkscape:showpageshadow="2"
     inkscape:pageopacity="0.0"
     inkscape:pagecheckerboard="0"
     inkscape:deskcolor="#d1d1d1"
     inkscape:zoom="16.2782"
     inkscape:cx="24.0199"
     inkscape:cy="23.9892"
     inkscape:current-layer="svg60" />
  <defs
     id="defs22">
    <radialGradient
       id="radial-gradient"
       cx="73.35"
       cy="-55.06"
       fx="73.35"
       fy="-55.06"
       r="9.86"
       gradientTransform="matrix(-0.286016,2.18133,-0.997406,-0.623495,-10.87,-158.9)"
       gradientUnits="userSpaceOnUse">
      <stop
         offset=".5"
         stop-color="#2c2c2c"
         stop-opacity=".5"
         id="stop1" />
      <stop
         offset=".99"
         stop-color="#2c2c2c"
         stop-opacity="0"
         id="stop2" />
    </radialGradient>
    <linearGradient
       id="linear-gradient"
       x1="26.49"
       y1="28.32"
       x2="26.49"
       y2="42.48"
       gradientTransform="translate(50.08) rotate(-180) scale(1 -1)"
       gradientUnits="userSpaceOnUse">
      <stop
         offset=".19"
         stop-color="#fcaf3e"
         id="stop3" />
      <stop
         offset="1"
         stop-color="#bb5c1d"
         id="stop4" />
    </linearGradient>
    <linearGradient
       id="linear-gradient-2"
       x1="10.45"
       y1="30.93"
       x2="36.73"
       y2="30.93"
       gradientTransform="matrix(1, 0, 0, 1, 0, 0)"
       gradientUnits="userSpaceOnUse">
      <stop
         offset="0"
         stop-color="#fff7d4"
         stop-opacity="0"
         id="stop5" />
      <stop
         offset=".53"
         stop-color="#fffbe8"
         stop-opacity=".7"
         id="stop6" />
      <stop
         offset="1"
         stop-color="#fff7d4"
         stop-opacity="0"
         id="stop7" />
    </linearGradient>
    <linearGradient
       id="linear-gradient-3"
       x1="26.49"
       y1="26.95"
       x2="26.49"
       y2="43.74"
       gradientTransform="matrix(-1,0,0,1,50.08,0)"
       xlink:href="#linear-gradient" />
    <linearGradient
       id="linear-gradient-4"
       x1="27.09"
       y1="32.38"
       x2="12.54"
       y2="16.38"
       gradientTransform="matrix(1, 0, 0, 1, 0, 0)"
       gradientUnits="userSpaceOnUse">
      <stop
         offset="0"
         stop-color="#c17d11"
         stop-opacity=".6"
         id="stop8" />
      <stop
         offset="1"
         stop-color="#8f4002"
         id="stop9" />
    </linearGradient>
    <linearGradient
       id="linear-gradient-5"
       x1="25.61"
       y1="21.83"
       x2="25.61"
       y2="35.55"
       xlink:href="#linear-gradient" />
    <linearGradient
       id="linear-gradient-6"
       x1="11.74"
       y1="24.36"
       x2="37.21"
       y2="24.36"
       xlink:href="#linear-gradient-2" />
    <linearGradient
       id="linear-gradient-7"
       x1="25.61"
       y1="20.51"
       x2="25.61"
       y2="36.79"
       gradientTransform="matrix(-1,0,0,1,50.08,0)"
       xlink:href="#linear-gradient" />
    <linearGradient
       id="linear-gradient-8"
       x1="27.87"
       y1="25.76"
       x2="13.77"
       y2="10.26"
       xlink:href="#linear-gradient-4" />
    <linearGradient
       id="linear-gradient-9"
       x1="26.3"
       y1="14.69"
       x2="26.3"
       y2="28.41"
       xlink:href="#linear-gradient" />
    <linearGradient
       id="linear-gradient-10"
       x1="26.3"
       y1="13.52"
       x2="26.3"
       y2="30.41"
       gradientTransform="matrix(-1,0,0,1,50.08,0)"
       xlink:href="#linear-gradient" />
    <linearGradient
       id="linear-gradient-11"
       x1="27.18"
       y1="18.62"
       x2="13.08"
       y2="3.12"
       gradientUnits="userSpaceOnUse">
      <stop
         offset="0"
         stop-color="#fff"
         stop-opacity="0"
         id="stop10" />
      <stop
         offset="1"
         stop-color="#fff8f8"
         id="stop11" />
    </linearGradient>
    <linearGradient
       id="linear-gradient-12"
       x1="22.88"
       y1="3.65"
       x2="23.99"
       y2="18.33"
       gradientTransform="matrix(1, 0, 0, 1, 0, 0)"
       gradientUnits="userSpaceOnUse">
      <stop
         offset=".39"
         stop-color="#e07d05"
         id="stop12" />
      <stop
         offset="1"
         stop-color="#f57900"
         stop-opacity="0"
         id="stop13" />
    </linearGradient>
    <linearGradient
       id="linear-gradient-13"
       x1="27.45"
       y1="3.24"
       x2="23.43"
       y2="14.91"
       gradientUnits="userSpaceOnUse">
      <stop
         offset=".12"
         stop-color="#fcaf3e"
         id="stop14" />
      <stop
         offset="1"
         stop-color="#fff7d4"
         stop-opacity="0"
         id="stop15" />
    </linearGradient>
    <linearGradient
       id="linear-gradient-14"
       x1="39.7"
       y1="15.88"
       x2="26.33"
       y2="18.19"
       gradientTransform="matrix(1, 0, 0, 1, 0, 0)"
       gradientUnits="userSpaceOnUse">
      <stop
         offset=".12"
         stop-color="#fffbe8"
         id="stop16" />
      <stop
         offset="1"
         stop-color="#fff7d4"
         stop-opacity="0"
         id="stop17" />
    </linearGradient>
    <linearGradient
       id="linear-gradient-15"
       x1="39.96"
       y1="17.27"
       x2="26.56"
       y2="19.58"
       xlink:href="#linear-gradient-14" />
    <linearGradient
       id="linear-gradient-16"
       x1="10.99"
       y1="14.28"
       x2="14.08"
       y2="16.18"
       xlink:href="#linear-gradient-14" />
    <linearGradient
       id="linear-gradient-17"
       x1="20.35"
       y1="43.27"
       x2="22.7"
       y2="38.97"
       xlink:href="#linear-gradient-12" />
    <linearGradient
       id="linear-gradient-18"
       x1="21.13"
       y1="20.19"
       x2="22.25"
       y2="17.76"
       xlink:href="#linear-gradient-14" />
    <linearGradient
       id="linear-gradient-19"
       x1="19.16"
       y1="41.12"
       x2="24.82"
       y2="41.12"
       xlink:href="#linear-gradient-14" />
    <linearGradient
       id="linear-gradient-20"
       x1="24.52"
       y1="13.82"
       x2="23.87"
       y2="10.97"
       gradientUnits="userSpaceOnUse">
      <stop
         offset=".2"
         stop-color="#fff"
         stop-opacity="0"
         id="stop18" />
      <stop
         offset="1"
         stop-color="#fff7f7"
         id="stop19" />
    </linearGradient>
    <linearGradient
       id="linear-gradient-21"
       x1="26.43"
       y1="8.87"
       x2="25.74"
       y2="21.42"
       gradientUnits="userSpaceOnUse">
      <stop
         offset=".11"
         stop-color="#c4a000"
         id="stop20" />
      <stop
         offset=".46"
         stop-color="#fce94f"
         id="stop21" />
      <stop
         offset="1"
         stop-color="#fce94f"
         id="stop22" />
    </linearGradient>
    <linearGradient
       id="linear-gradient-22"
       x1="37.03"
       y1="19.41"
       x2="37.58"
       y2="14.92"
       xlink:href="#linear-gradient" />
    <linearGradient
       id="linear-gradient-23"
       x1="31.27"
       y1="6.97"
       x2="30.43"
       y2="13.94"
       xlink:href="#linear-gradient-14" />
    <linearGradient
       id="linear-gradient-24"
       x1="26.82"
       y1="34.17"
       x2="21.93"
       y2="28.13"
       xlink:href="#linear-gradient-14" />
    <linearGradient
       inkscape:collect="always"
       xlink:href="#linear-gradient"
       id="linearGradient60"
       gradientUnits="userSpaceOnUse"
       gradientTransform="matrix(-1,0,0,1,50.08,0)"
       x1="26.49"
       y1="28.32"
       x2="26.49"
       y2="42.48" />
    <linearGradient
       inkscape:collect="always"
       xlink:href="#linear-gradient-2"
       id="linearGradient61"
       gradientUnits="userSpaceOnUse"
       x1="10.45"
       y1="30.93"
       x2="36.73"
       y2="30.93" />
    <linearGradient
       inkscape:collect="always"
       xlink:href="#linear-gradient-4"
       id="linearGradient62"
       gradientUnits="userSpaceOnUse"
       x1="27.09"
       y1="32.38"
       x2="12.54"
       y2="16.38" />
    <linearGradient
       inkscape:collect="always"
       xlink:href="#linear-gradient-12"
       id="linearGradient63"
       gradientUnits="userSpaceOnUse"
       x1="22.88"
       y1="3.65"
       x2="23.99"
       y2="18.33" />
    <linearGradient
       inkscape:collect="always"
       xlink:href="#linear-gradient-14"
       id="linearGradient64"
       gradientUnits="userSpaceOnUse"
       x1="39.7"
       y1="15.88"
       x2="26.33"
       y2="18.19" />
  </defs>
  <g
     id="shadow"
     style="opacity:0.45;isolation:isolate;mix-blend-mode:multiply"
     transform="translate(1.10577,2.64157)">
    <ellipse
       cx="22.89"
       cy="35.55"
       rx="9.85"
       ry="21.53"
       transform="rotate(-89.56,22.8942,35.5495)"
       style="fill:url(#radial-gradient)"
       id="ellipse22" />
  </g>
  <g
     id="ART"
     style="isolation:isolate;stroke-width:0.771788"
     transform="matrix(1.29625,0,0,1.29514,-6.78488,-10.0112)">
    <path
       d="m 18.11,38.37 c 0,0 -1.16,1.16 -0.38,2.62 0.78,1.46 2.92,1.54 4.44,1.43 1.52,-0.11 5.66,-1.18 5.74,-2.88 l -9.79,-1.17 z"
       style="fill:#8f5902;stroke-width:0.771788"
       id="path22" />
    <path
       d="m 18.11,38.37 c 0,0 -1.16,1.16 -0.38,2.62 0.78,1.46 2.92,1.54 4.44,1.43 1.52,-0.11 5.66,-1.18 5.74,-2.88 l -9.79,-1.17 z"
       style="fill:none;stroke:#6d3209;stroke-width:0.540252px;stroke-linecap:round;stroke-linejoin:round"
       id="path23" />
    <g
       id="g41"
       style="stroke-width:0.771788">
      <g
         id="g29"
         style="stroke-width:0.771788">
        <path
           d="m 23.59,40.09 c 7.25,0 13.12,-2.32 13.12,-8.1 0,-1.05 0,-2.43 -0.32,-3.37 -1.13,-3.31 -4.7,-5.85 -12.8,-5.85 -8.1,0 -11.67,2.54 -12.8,5.85 -0.32,0.93 -0.32,2.31 -0.32,3.37 0,5.78 5.87,8.1 13.12,8.1 z"
           style="fill:url(#linearGradient60);stroke-width:0.771788"
           id="path24" />
        <path
           d="m 23.59,39.09 c 7.21,0 13.12,-2.74 13.12,-7.25 0,-0.67 0.09,-2.44 -0.15,-3.07 -1.39,-3.57 -6.83,-6 -12.97,-6 -6.14,0 -11.58,2.43 -12.97,6 -0.24,0.62 -0.15,2.4 -0.15,3.07 0,4.51 5.91,7.25 13.12,7.25 z"
           style="fill:#ffd983;stroke-width:0.771788"
           id="path25" />
        <path
           d="m 23.59,39.09 c 7.21,0 13.12,-2.74 13.12,-7.25 0,-0.67 0.09,-2.44 -0.15,-3.07 -1.39,-3.57 -6.83,-6 -12.97,-6 -6.14,0 -11.58,2.43 -12.97,6 -0.24,0.62 -0.15,2.4 -0.15,3.07 0,4.51 5.91,7.25 13.12,7.25 z"
           style="fill:url(#linearGradient61);stroke-width:0.771788"
           id="path26" />
        <g
           id="g28"
           style="stroke-width:0.771788">
          <path
             d="m 23.59,22.77 c 6.93,0 12.78,2.66 13.1,6.09 0.33,3.6 -5.01,6.43 -13.1,6.43 -8.08,0 -13.42,-2.83 -13.1,-6.43 0.32,-3.6 6.17,-6.09 13.1,-6.09 z"
             style="fill:url(#linear-gradient-3);stroke-width:0.771788"
             id="path27" />
          <path
             d="M 36.38,28.31 C 36.12,25.2 30.4,22.77 23.59,22.77 c -6.81,0 -12.53,2.43 -12.79,5.54 -0.26,3.11 5.45,5.97 12.79,5.97 7.34,0 13.06,-2.73 12.79,-5.97 z"
             style="fill:url(#linearGradient62);stroke-width:0.771788"
             id="path28" />
        </g>
        <path
           d="m 36.7,29.1 c -0.05,-0.37 -0.14,-0.73 -0.29,-1.08 -0.47,-1.09 -1.34,-2.01 -2.32,-2.68 -3.01,-2.04 -7.33,-2.57 -10.51,-2.57 -3.18,0 -7.49,0.72 -10.6,2.63 -1.91,1.18 -2.38,2.82 -2.5,3.7 -0.01,0.1 -0.02,2.24 -0.02,2.75 0,0.04 0,0.09 0,0.14 0,5.78 5.87,8.1 13.12,8.1 7.25,0 13.12,-2.32 13.12,-8.1 0,-0.04 0,-0.09 0,-0.15 0,-0.89 0.11,-1.84 0,-2.75 z"
           style="fill:none;stroke:#6d3209;stroke-width:0.540252px;stroke-linecap:round;stroke-linejoin:round"
           id="path29" />
      </g>
      <g
         id="g35"
         style="stroke-width:0.771788">
        <path
           d="m 24.48,33.24 c 7.02,0 12.72,-2.25 12.72,-7.85 0,-1.02 0,-2.36 -0.31,-3.26 -1.09,-3.2 -4.56,-5.67 -12.41,-5.67 -7.85,0 -11.31,2.46 -12.41,5.67 -0.31,0.9 -0.31,2.24 -0.31,3.26 0,5.6 5.69,7.85 12.72,7.85 z"
           style="fill:url(#linear-gradient-5);stroke-width:0.771788"
           id="path30" />
        <path
           d="m 24.48,32.27 c 6.99,0 12.72,-2.66 12.72,-7.02 0,-0.65 0.09,-2.37 -0.14,-2.97 -1.35,-3.46 -6.62,-5.82 -12.57,-5.82 -5.95,0 -11.22,2.36 -12.57,5.82 -0.24,0.6 -0.14,2.32 -0.14,2.97 0,4.37 5.73,7.02 12.72,7.02 z"
           style="fill:#ffd983;stroke-width:0.771788"
           id="path31" />
        <path
           d="m 24.48,32.27 c 6.99,0 12.72,-2.66 12.72,-7.02 0,-0.65 0.09,-2.37 -0.14,-2.97 -1.35,-3.46 -6.62,-5.82 -12.57,-5.82 -5.95,0 -11.22,2.36 -12.57,5.82 -0.24,0.6 -0.14,2.32 -0.14,2.97 0,4.37 5.73,7.02 12.72,7.02 z"
           style="fill:url(#linear-gradient-6);stroke-width:0.771788"
           id="path32" />
        <g
           id="g34"
           style="stroke-width:0.771788">
          <path
             d="m 24.48,16.45 c 6.71,0 12.39,2.58 12.69,5.91 0.32,3.49 -4.86,6.24 -12.69,6.24 -7.84,0 -13.01,-2.75 -12.69,-6.24 0.32,-3.49 5.98,-5.91 12.69,-5.91 z"
             style="fill:url(#linear-gradient-7);stroke-width:0.771788"
             id="path33" />
          <path
             d="m 36.87,21.82 c -0.25,-3.01 -5.8,-5.37 -12.4,-5.37 -6.6,0 -12.15,2.35 -12.4,5.37 -0.26,3.14 5.28,5.78 12.4,5.78 7.12,0 12.66,-2.64 12.4,-5.78 z"
             style="fill:url(#linear-gradient-8);stroke-width:0.771788"
             id="path34" />
        </g>
        <path
           d="m 37.17,22.58 c 0,-0.85 -0.77,-2.47 -2.51,-3.65 -2.92,-1.98 -7.1,-2.49 -10.19,-2.49 -3.09,0 -7.26,0.69 -10.27,2.55 -1.85,1.14 -2.31,2.74 -2.42,3.58 -0.01,0.1 -0.02,2.17 -0.02,2.66 v 0 c 0,0.05 0,0.1 0,0.14 0,5.6 5.69,7.85 12.72,7.85 7.03,0 12.72,-2.25 12.72,-7.85 0,-0.04 0,-0.09 0,-0.13 v 0 c 0,-0.5 -0.02,-2.57 -0.02,-2.67 z"
           style="fill:none;stroke:#6d3209;stroke-width:0.540252px;stroke-linecap:round;stroke-linejoin:round"
           id="path35" />
      </g>
      <g
         id="g40"
         style="stroke-width:0.771788">
        <path
           d="m 23.79,26.1 c 7.02,0 12.72,-2.25 12.72,-7.85 0,-1.02 0,-2.36 -0.31,-3.26 -1.09,-3.2 -4.56,-5.67 -12.41,-5.67 -7.85,0 -11.31,2.46 -12.41,5.67 -0.31,0.9 -0.31,2.24 -0.31,3.26 0,5.6 5.69,7.85 12.72,7.85 z"
           style="fill:url(#linear-gradient-9);stroke-width:0.771788"
           id="path36" />
        <path
           d="m 23.79,25.13 c 6.99,0 12.72,-2.66 12.72,-7.02 0,-0.65 0.09,-2.37 -0.14,-2.97 -1.35,-3.46 -6.62,-5.82 -12.57,-5.82 -5.95,0 -11.22,2.36 -12.57,5.82 -0.24,0.6 -0.14,2.32 -0.14,2.97 0,4.37 5.73,7.02 12.72,7.02 z"
           style="fill:#fad16f;stroke-width:0.771788"
           id="path37" />
        <g
           id="g39"
           style="stroke-width:0.771788">
          <path
             d="m 23.79,9.31 c 6.71,0 12.39,2.68 12.69,6.13 0.32,3.62 -4.86,6.47 -12.69,6.47 -7.84,0 -13.01,-2.85 -12.69,-6.47 0.32,-3.62 5.98,-6.13 12.69,-6.13 z"
             style="fill:url(#linear-gradient-10);stroke-width:0.771788"
             id="path38" />
          <path
             d="m 36.18,14.68 c -0.25,-3.01 -5.8,-5.37 -12.4,-5.37 -6.6,0 -12.15,2.35 -12.4,5.37 -0.25,3.02 5.28,5.78 12.4,5.78 7.12,0 12.66,-2.64 12.4,-5.78 z"
             style="fill:url(#linear-gradient-11);stroke-width:0.771788"
             id="path39" />
        </g>
        <path
           d="m 36.48,15.45 c 0,-0.85 -0.77,-2.47 -2.51,-3.65 -2.92,-1.98 -7.1,-2.49 -10.19,-2.49 -3.09,0 -7.26,0.69 -10.27,2.55 -1.85,1.14 -2.31,2.74 -2.42,3.58 -0.01,0.1 -0.02,2.17 -0.02,2.66 v 0 c 0,0.05 0,0.1 0,0.14 0,5.6 5.69,7.85 12.72,7.85 7.03,0 12.72,-2.25 12.72,-7.85 0,-0.04 0,-0.09 0,-0.13 v 0 c 0,-0.5 -0.02,-2.57 -0.02,-2.67 z"
           style="fill:none;stroke:#6d3209;stroke-width:0.540252px;stroke-linecap:round;stroke-linejoin:round"
           id="path40" />
      </g>
    </g>
    <path
       d="m 23.8,8.11 c -8.16,0 -13.29,3.27 -14.01,5.77 -0.41,1.42 -0.38,2.97 -0.35,4.96 0.03,1.99 0.09,3.25 0.37,3.89 0.28,0.64 0.92,0.76 1.17,-0.23 0.25,-0.99 0.43,-2.31 1.38,-2.98 0.95,-0.67 1.76,-0.62 3.04,0.7 1.61,1.68 1.72,5.05 1.79,5.96 0.07,0.91 0.29,2.92 0.81,3.41 0.52,0.49 1.33,-0.35 1.5,-1.05 0.17,-0.7 1.4,-2.24 2.15,-0.74 0.75,1.5 0.55,6.8 0.48,7.61 -0.07,0.81 0.58,1.75 1.19,1.47 0.61,-0.28 0.44,-1.4 0.55,-2.21 0.11,-0.81 0.14,-8.77 1.5,-10.66 1.36,-1.89 3.89,-2.56 5.16,-1.47 1.27,1.09 2.37,2.19 2.64,1.31 0.27,-0.88 2.27,-3 2.89,-1.52 0.62,1.48 0.44,4.43 0.58,4.92 0.14,0.49 0.99,0.85 1.22,-0.07 0.23,-0.92 -0.19,-5.02 0.08,-7.19 0.27,-2.17 1.09,-4.84 -0.89,-7.23 C 35.07,10.37 29.78,8.11 23.8,8.11 Z"
       style="opacity:0.85;fill:#894a06;stroke-width:0.771788"
       id="path41" />
    <path
       d="m 13.69,17.45 c -0.76,-0.15 -2.21,0.2 -2.65,1.5 -0.44,1.3 -0.46,2.12 -0.56,1.38 -0.1,-0.74 -0.75,-5.75 0.56,-7.25 1.06,-1.22 5.47,-3.83 10.86,-4.18 5.39,-0.35 10.34,1.27 12.39,2.61 2.05,1.34 2.86,2.59 3.13,3.68 0.27,1.09 -0.24,4.62 -0.17,5.85 0.07,1.23 0.31,4.5 0.21,4.99 -0.1,0.49 -0.34,-0.01 -0.34,-1.25 0,-1.24 -0.14,-4.32 -2.19,-4.09 -1.05,0.12 -1.37,1.76 -2.05,2.11 -0.48,0.25 -1.45,-1.05 -1.94,-1.38 -1.12,-0.77 -3.2,-1.49 -5.25,0.62 -2.05,2.11 -1.98,5.72 -2.12,7.09 -0.14,1.37 -0.07,5.13 -0.41,4.99 -0.34,-0.14 -0.47,-4.82 -0.61,-5.69 -0.23,-1.4 -0.4,-3.08 -1.83,-2.94 -1.43,0.14 -1.99,2.15 -2.36,1.73 -0.37,-0.42 0,-2.02 -0.75,-4.61 -0.75,-2.59 -2.13,-4.78 -3.9,-5.13 z"
       style="opacity:0.8;fill:#b55d06;stroke-width:0.771788"
       id="path42" />
    <path
       d="m 13.69,17.45 c -0.76,-0.15 -2.21,0.2 -2.65,1.5 -0.44,1.3 -0.46,2.12 -0.56,1.38 -0.1,-0.74 -0.75,-5.75 0.56,-7.25 1.06,-1.22 5.47,-3.83 10.86,-4.18 5.39,-0.35 10.34,1.27 12.39,2.61 2.05,1.34 2.86,2.59 3.13,3.68 0.27,1.09 -0.24,4.62 -0.17,5.85 0.07,1.23 0.31,4.5 0.21,4.99 -0.1,0.49 -0.34,-0.01 -0.34,-1.25 0,-1.24 -0.14,-4.32 -2.19,-4.09 -1.05,0.12 -1.37,1.76 -2.05,2.11 -0.48,0.25 -1.45,-1.05 -1.94,-1.38 -1.12,-0.77 -3.2,-1.49 -5.25,0.62 -2.05,2.11 -1.98,5.72 -2.12,7.09 -0.14,1.37 -0.07,5.13 -0.41,4.99 -0.34,-0.14 -0.47,-4.82 -0.61,-5.69 -0.23,-1.4 -0.4,-3.08 -1.83,-2.94 -1.43,0.14 -1.99,2.15 -2.36,1.73 -0.37,-0.42 0,-2.02 -0.75,-4.61 -0.75,-2.59 -2.13,-4.78 -3.9,-5.13 z"
       style="fill:url(#linearGradient63);stroke-width:0.771788"
       id="path43" />
    <path
       d="m 21.9,8.9 c -3.92,0.25 -7.31,1.7 -9.28,2.94 3.14,-1.18 12.34,-0.66 14.64,0.66 3.15,1.8 7.29,2.49 8.34,1.34 0.31,-0.34 0.26,-0.83 -0.02,-1.38 C 35.22,12.15 34.79,11.83 34.3,11.5 32.25,10.17 27.3,8.54 21.91,8.89 Z"
       style="fill:url(#linear-gradient-13);stroke-width:0.771788"
       id="path44" />
    <path
       d="m 23.8,8.11 c -8.16,0 -13.29,3.27 -14.01,5.77 -0.41,1.42 -0.38,2.97 -0.35,4.96 0.03,1.99 0.09,3.25 0.37,3.89 0.28,0.64 0.92,0.76 1.17,-0.23 0.25,-0.99 0.43,-2.31 1.38,-2.98 0.95,-0.67 1.76,-0.62 3.04,0.7 1.61,1.68 1.72,5.05 1.79,5.96 0.07,0.91 0.29,2.92 0.81,3.41 0.52,0.49 1.33,-0.35 1.5,-1.05 0.17,-0.7 1.4,-2.24 2.15,-0.74 0.75,1.5 0.55,6.8 0.48,7.61 -0.07,0.81 0.58,1.75 1.19,1.47 0.61,-0.28 0.44,-1.4 0.55,-2.21 0.11,-0.81 0.14,-8.77 1.5,-10.66 1.36,-1.89 3.89,-2.56 5.16,-1.47 1.27,1.09 2.16,2.31 3.02,1.12 0.53,-0.74 1.9,-2.8 2.52,-1.33 0.62,1.47 0.44,4.43 0.58,4.92 0.14,0.49 0.99,0.85 1.22,-0.07 0.23,-0.92 -0.19,-5.02 0.08,-7.19 0.27,-2.17 1.09,-4.84 -0.89,-7.23 C 35.08,10.37 29.79,8.11 23.81,8.11 Z"
       style="fill:none;stroke:#6d3209;stroke-width:0.540252px;stroke-linecap:round;stroke-linejoin:round"
       id="path45" />
    <path
       d="m 36.76,14.36 c 0,0 0.27,0.76 -0.11,1.85 -0.38,1.09 -2.28,2.43 -3.27,2.75 -0.99,0.32 -1.67,0.25 -1.64,-0.32 0.03,-0.57 0.72,-0.81 2.39,-1.33 1.67,-0.52 2.56,-1.54 2.63,-2.95 z"
       style="fill:url(#linearGradient64);stroke-width:0.771788"
       id="path46" />
    <path
       d="m 30.24,18.57 c -0.65,-0.05 -0.79,0.42 -0.41,0.63 0.38,0.21 0.68,0.18 0.89,-0.04 0.21,-0.22 0,-0.56 -0.48,-0.6 z"
       style="fill:url(#linear-gradient-15);stroke-width:0.771788"
       id="path47" />
    <path
       d="m 11.51,13.03 c 0,0 -0.68,0.9 -0.47,1.74 0.21,0.84 0.98,1.64 1.61,2.1 0.63,0.46 0.58,-0.56 -0.04,-1.09 -0.62,-0.53 -1.55,-1.54 -1.1,-2.74 z"
       style="fill:url(#linear-gradient-16);stroke-width:0.771788"
       id="path48" />
    <path
       d="m 17.3,39.18 c 0,0 0.76,-0.69 1.81,-0.25 1.05,0.44 2.24,1.05 3.46,1.19 1.22,0.14 3.35,-0.78 4.08,-0.91 0.73,-0.13 1.12,-0.08 1.26,0.32 L 26,40.66 19.03,40.93 17.31,39.17 Z"
       style="fill:#6d3209;stroke-width:0.771788"
       id="path49" />
    <path
       d="m 26.81,40.57 c 0.46,-0.35 0.68,-0.57 0.45,-0.85 -0.23,-0.28 -3.04,0.41 -5.44,0.22 -2.4,-0.19 -3.69,-1.15 -3.98,-0.6 -0.29,0.55 -0.24,2.55 2.7,2.88 2.94,0.33 5.93,-1.39 6.27,-1.65 z"
       style="fill:#894a06;stroke-width:0.771788"
       id="path50" />
    <path
       d="m 21.69,40.18 c -1.75,-0.14 -3.46,-0.81 -3.33,-0.08 0.13,0.73 1.01,1.68 3.19,1.77 2.18,0.09 5.07,-1.61 3.95,-1.64 -1.12,-0.03 -2.3,0.07 -3.81,-0.05 z"
       style="fill:url(#linear-gradient-17);stroke-width:0.771788"
       id="path51" />
    <path
       d="m 24.1,19.64 c -2.43,0 -6.05,-0.54 -6.76,-0.92 -0.71,-0.38 -0.75,0.92 2.35,1.5 3.1,0.58 5.64,-0.12 6.34,-0.46 0.7,-0.34 -0.75,-0.12 -1.94,-0.12 z"
       style="fill:url(#linear-gradient-18);stroke-width:0.771788"
       id="path52" />
    <path
       d="m 22.3,41.07 c -0.91,0.08 -2.81,-0.25 -3.09,-0.35 -0.28,-0.1 0.43,0.89 2.43,0.82 2,-0.07 3.17,-0.85 3.17,-0.85 0,0 -1.05,0.25 -2.51,0.38 z"
       style="fill:url(#linear-gradient-19);stroke-width:0.771788"
       id="path53" />
    <g
       id="g55"
       style="stroke-width:0.771788">
      <polygon
         points="28.54,12.63 28.54,11.02 24.17,9.58 19.25,11.15 19.29,12.75 23.85,14.23 "
         style="fill:#fce94f;stroke-width:0.771788"
         id="polygon53" />
      <polygon
         points="19.25,11.15 23.91,12.74 28.54,11.02 24.17,9.58 "
         style="opacity:0.65;fill:url(#linear-gradient-20);stroke-width:0.771788"
         id="polygon54" />
      <polygon
         points="23.85,14.23 23.91,12.74 28.54,11.02 28.54,12.63 "
         style="fill:url(#linear-gradient-21);stroke-width:0.771788"
         id="polygon55" />
    </g>
    <path
       d="m 12.65,17.52 c -0.64,0.29 -1.62,1.48 -1.82,2.35 -0.2,0.87 -0.25,1.07 -0.35,0.46 -0.1,-0.61 -0.45,-2.5 2.16,-2.81 z"
       style="fill:#6d3209;stroke-width:0.771788"
       id="path55" />
    <path
       d="m 21.88,26.07 c -0.64,-0.64 -1.6,-0.35 -1.99,-0.04 -0.39,0.31 -1.09,1.82 -1.37,1.82 -0.28,0 -0.42,-1.35 -0.44,-2.13 -0.02,-0.78 -0.22,-1.88 -0.22,-1.88 0,0 0.56,1.1 0.6,1.84 0.1,1.98 1.09,-0.9 2.06,-0.7 0.97,0.2 1.37,1.1 1.37,1.1 z"
       style="fill:#6d3209;stroke-width:0.771788"
       id="path56" />
    <path
       d="m 35.49,20.71 c -0.6,-0.11 -1.06,0.29 -1.55,0.89 -0.49,0.6 -0.8,1.44 -1.44,1.22 -0.64,-0.22 -1.29,-1.24 -1.56,-1.42 0,0 0.85,0.24 1.34,0.53 1.06,0.63 1.24,-1.79 3.21,-1.22 z"
       style="fill:#6d3209;stroke-width:0.771788"
       id="path57" />
    <path
       d="m 37.49,16.33 c -0.04,1.48 -0.34,2.92 -0.25,4.41 0.09,1.49 -0.64,-0.13 -0.64,-1.19 0,-1.06 0.89,-3.22 0.89,-3.22 z"
       style="fill:url(#linear-gradient-22);stroke-width:0.771788"
       id="path58" />
    <path
       d="m 26.02,9.12 c 2.36,0.2 6.23,1.27 7.99,2.39 1.76,1.12 1.73,1.5 1.27,1.5 -0.46,0 -4.38,-2.91 -9.25,-3.89 z"
       style="fill:url(#linear-gradient-23);stroke-width:0.771788"
       id="path59" />
    <path
       d="m 23.57,25.71 c -0.26,1 -0.67,5.39 -0.7,6.53 -0.03,1.14 -0.03,1.82 0.32,1.76 0.35,-0.06 0.38,-8.29 0.38,-8.29 z"
       style="fill:url(#linear-gradient-24);stroke-width:0.771788"
       id="path60" />
  </g>
</svg>
