<?xml version="1.0" encoding="UTF-8" standalone="no"?>
<svg
   viewBox="0 0 48 48"
   version="1.1"
   id="svg89"
   sodipodi:docname="2-Torn Metal.svg"
   inkscape:version="1.3.2 (091e20e, 2023-11-25, custom)"
   xmlns:inkscape="http://www.inkscape.org/namespaces/inkscape"
   xmlns:sodipodi="http://sodipodi.sourceforge.net/DTD/sodipodi-0.dtd"
   xmlns:xlink="http://www.w3.org/1999/xlink"
   xmlns="http://www.w3.org/2000/svg"
   xmlns:svg="http://www.w3.org/2000/svg">
  <sodipodi:namedview
     id="namedview89"
     pagecolor="#ffffff"
     bordercolor="#666666"
     borderopacity="1.0"
     inkscape:showpageshadow="2"
     inkscape:pageopacity="0.0"
     inkscape:pagecheckerboard="0"
     inkscape:deskcolor="#d1d1d1"
     inkscape:zoom="16.2782"
     inkscape:cx="24.0199"
     inkscape:cy="23.9892"
     inkscape:current-layer="svg89" />
  <defs
     id="defs18">
    <radialGradient
       id="radial-gradient"
       cx="157.46"
       cy="-19.63"
       fx="157.46"
       fy="-19.63"
       r="8.81"
       gradientTransform="matrix(-2.06529,-0.320461,-0.530875,1.23318,338.16,109.18)"
       gradientUnits="userSpaceOnUse">
      <stop
         offset=".59"
         stop-color="#2c2c2c"
         stop-opacity=".5"
         id="stop1" />
      <stop
         offset=".99"
         stop-color="#2c2c2c"
         stop-opacity="0"
         id="stop2" />
    </radialGradient>
    <linearGradient
       id="linear-gradient"
       x1="20.55"
       y1="29.14"
       x2="30.28"
       y2="5.1"
       gradientTransform="matrix(1, 0, 0, 1, 0, 0)"
       gradientUnits="userSpaceOnUse">
      <stop
         offset=".2"
         stop-color="#fff"
         stop-opacity="0"
         id="stop3" />
      <stop
         offset="1"
         stop-color="#fff7f7"
         id="stop4" />
    </linearGradient>
    <linearGradient
       id="linear-gradient-2"
       x1="33.84"
       y1="20.58"
       x2="26.07"
       y2="20.62"
       gradientTransform="matrix(1, 0, 0, 1, 0, 0)"
       gradientUnits="userSpaceOnUse">
      <stop
         offset="0"
         stop-color="#b9bcb5"
         stop-opacity="0"
         id="stop5" />
      <stop
         offset="1"
         stop-color="#2e3436"
         id="stop6" />
    </linearGradient>
    <linearGradient
       id="linear-gradient-3"
       x1="17.43"
       y1="24.21"
       x2="29.43"
       y2="30.77"
       xlink:href="#linear-gradient" />
    <linearGradient
       id="linear-gradient-4"
       x1="36.12"
       y1="31.12"
       x2="11.35"
       y2="15.45"
       xlink:href="#linear-gradient" />
    <linearGradient
       id="linear-gradient-5"
       x1="19.05"
       y1="19.49"
       x2="22.21"
       y2="15.81"
       xlink:href="#linear-gradient-2" />
    <linearGradient
       id="linear-gradient-6"
       x1="19.05"
       y1="19.49"
       x2="22.21"
       y2="15.81"
       xlink:href="#linear-gradient-2" />
    <linearGradient
       id="linear-gradient-7"
       x1="19.05"
       y1="19.49"
       x2="22.21"
       y2="15.81"
       xlink:href="#linear-gradient-2" />
    <linearGradient
       id="linear-gradient-8"
       x1="16.28"
       y1="25.67"
       x2="19.47"
       y2="22.72"
       xlink:href="#linear-gradient-2" />
    <linearGradient
       id="linear-gradient-9"
       x1="16.28"
       y1="25.67"
       x2="19.47"
       y2="22.72"
       xlink:href="#linear-gradient-2" />
    <linearGradient
       id="linear-gradient-10"
       x1="16.28"
       y1="25.67"
       x2="19.47"
       y2="22.72"
       xlink:href="#linear-gradient-2" />
    <linearGradient
       id="linear-gradient-11"
       x1="20.81"
       y1="34.77"
       x2="20.22"
       y2="27.87"
       gradientTransform="rotate(1.44,19.0847,30.4007)"
       xlink:href="#linear-gradient-2" />
    <linearGradient
       id="linear-gradient-12"
       x1="20.81"
       y1="34.77"
       x2="20.22"
       y2="27.87"
       gradientTransform="rotate(1.44,19.0847,30.4007)"
       xlink:href="#linear-gradient-2" />
    <linearGradient
       id="linear-gradient-13"
       x1="29.45"
       y1="32.56"
       x2="25.85"
       y2="27.48"
       xlink:href="#linear-gradient-2" />
    <linearGradient
       id="linear-gradient-14"
       x1="29.45"
       y1="32.56"
       x2="25.85"
       y2="27.48"
       xlink:href="#linear-gradient-2" />
    <linearGradient
       id="linear-gradient-15"
       x1="28.6"
       y1="34.43"
       x2="26.05"
       y2="26.97"
       xlink:href="#linear-gradient-2" />
    <linearGradient
       id="linear-gradient-16"
       x1="34"
       y1="3.75"
       x2="18.3"
       y2="12.37"
       gradientTransform="matrix(1, 0, 0, 1, 0, 0)"
       gradientUnits="userSpaceOnUse">
      <stop
         offset=".38"
         stop-color="#fff"
         stop-opacity="0"
         id="stop7" />
      <stop
         offset="1"
         stop-color="#fff7f7"
         id="stop8" />
    </linearGradient>
    <linearGradient
       id="linear-gradient-17"
       x1="27.54"
       y1="19.6"
       x2="30.98"
       y2="18.65"
       gradientTransform="matrix(1, 0, 0, 1, 0, 0)"
       gradientUnits="userSpaceOnUse">
      <stop
         offset="0"
         stop-color="#fff"
         stop-opacity="0"
         id="stop9" />
      <stop
         offset="1"
         stop-color="#fff7f7"
         id="stop10" />
    </linearGradient>
    <linearGradient
       id="linear-gradient-18"
       x1="29.29"
       y1="19.35"
       x2="25.68"
       y2="20.03"
       xlink:href="#linear-gradient-16" />
    <linearGradient
       id="linear-gradient-19"
       x1="29.29"
       y1="19.35"
       x2="25.68"
       y2="20.03"
       xlink:href="#linear-gradient-16" />
    <linearGradient
       id="linear-gradient-20"
       x1="29"
       y1="25.41"
       x2="26.49"
       y2="24.92"
       xlink:href="#linear-gradient-16" />
    <linearGradient
       id="linear-gradient-21"
       x1="29"
       y1="25.41"
       x2="26.49"
       y2="24.92"
       xlink:href="#linear-gradient-16" />
    <linearGradient
       id="linear-gradient-22"
       x1="25.51"
       y1="25.5"
       x2="30.94"
       y2="25.5"
       gradientUnits="userSpaceOnUse">
      <stop
         offset=".33"
         stop-color="#fff"
         stop-opacity="0"
         id="stop11" />
      <stop
         offset="1"
         stop-color="#fff7f7"
         id="stop12" />
    </linearGradient>
    <linearGradient
       id="linear-gradient-23"
       x1="25.33"
       y1="28.38"
       x2="28.86"
       y2="31.15"
       gradientTransform="matrix(1, 0, 0, 1, 0, 0)"
       gradientUnits="userSpaceOnUse">
      <stop
         offset="0"
         stop-color="#fff"
         stop-opacity="0"
         id="stop13" />
      <stop
         offset=".75"
         stop-color="#fff7f7"
         id="stop14" />
    </linearGradient>
    <linearGradient
       id="linear-gradient-24"
       x1="26.63"
       y1="30.84"
       x2="25"
       y2="27.88"
       xlink:href="#linear-gradient-16" />
    <linearGradient
       id="linear-gradient-25"
       x1="26.63"
       y1="30.84"
       x2="25"
       y2="27.88"
       xlink:href="#linear-gradient-16" />
    <linearGradient
       id="linear-gradient-26"
       x1="22.29"
       y1="27.11"
       x2="18.3"
       y2="29.46"
       xlink:href="#linear-gradient-23" />
    <linearGradient
       id="linear-gradient-27"
       x1="18.54"
       y1="26.83"
       x2="19.68"
       y2="25.92"
       xlink:href="#linear-gradient-16" />
    <linearGradient
       id="linear-gradient-28"
       x1="20.15"
       y1="28.82"
       x2="21.29"
       y2="27.9"
       xlink:href="#linear-gradient-16" />
    <linearGradient
       id="linear-gradient-29"
       x1="20.15"
       y1="28.82"
       x2="21.29"
       y2="27.9"
       xlink:href="#linear-gradient-16" />
    <linearGradient
       id="linear-gradient-30"
       x1="18.34"
       y1="26.59"
       x2="19.48"
       y2="25.67"
       xlink:href="#linear-gradient-16" />
    <linearGradient
       id="linear-gradient-31"
       x1="23.41"
       y1="17.28"
       x2="21.58"
       y2="12.82"
       xlink:href="#linear-gradient-17" />
    <linearGradient
       id="linear-gradient-32"
       x1="22.02"
       y1="15.11"
       x2="24.26"
       y2="18.85"
       xlink:href="#linear-gradient" />
    <linearGradient
       id="linear-gradient-33"
       x1="22.02"
       y1="15.11"
       x2="24.26"
       y2="18.85"
       xlink:href="#linear-gradient" />
    <linearGradient
       id="linear-gradient-34"
       x1="19.05"
       y1="16.84"
       x2="21.32"
       y2="20.62"
       xlink:href="#linear-gradient" />
    <linearGradient
       id="linear-gradient-35"
       x1="21.41"
       y1="22.43"
       x2="16.55"
       y2="19.84"
       xlink:href="#linear-gradient-23" />
    <linearGradient
       id="linear-gradient-36"
       x1="16.88"
       y1="24.12"
       x2="19.72"
       y2="25.18"
       xlink:href="#linear-gradient-16" />
    <linearGradient
       id="linear-gradient-37"
       x1="17.99"
       y1="21.23"
       x2="20.81"
       y2="22.29"
       xlink:href="#linear-gradient-16" />
    <linearGradient
       id="linear-gradient-38"
       x1="17.99"
       y1="21.23"
       x2="20.81"
       y2="22.29"
       xlink:href="#linear-gradient-16" />
    <linearGradient
       id="linear-gradient-39"
       x1="27.81"
       y1="15.85"
       x2="34.34"
       y2="24.14"
       xlink:href="#linear-gradient" />
    <linearGradient
       id="linear-gradient-40"
       x1="25.66"
       y1="17.1"
       x2="32.19"
       y2="25.38"
       xlink:href="#linear-gradient" />
    <linearGradient
       id="linear-gradient-41"
       x1="23.51"
       y1="18.34"
       x2="30.03"
       y2="26.62"
       xlink:href="#linear-gradient" />
    <linearGradient
       id="linear-gradient-42"
       x1="21.35"
       y1="19.58"
       x2="27.88"
       y2="27.87"
       xlink:href="#linear-gradient" />
    <radialGradient
       id="radial-gradient-2"
       cx="36.91"
       cy="29.21"
       fx="36.91"
       fy="29.21"
       r="5.28"
       gradientTransform="matrix(1, 0, 0, 1, 0, 0)"
       gradientUnits="userSpaceOnUse">
      <stop
         offset=".11"
         stop-color="#fff7f7"
         id="stop15" />
      <stop
         offset=".73"
         stop-color="#fff"
         stop-opacity="0"
         id="stop16" />
    </radialGradient>
    <radialGradient
       id="radial-gradient-3"
       cx="36.91"
       cy="29.21"
       fx="36.91"
       fy="29.21"
       r="5.28"
       gradientUnits="userSpaceOnUse">
      <stop
         offset=".11"
         stop-color="#fff7f7"
         id="stop17" />
      <stop
         offset="1"
         stop-color="#fff"
         stop-opacity="0"
         id="stop18" />
    </radialGradient>
    <linearGradient
       id="linear-gradient-43"
       x1="36.68"
       y1="26.05"
       x2="36.22"
       y2="34.92"
       xlink:href="#linear-gradient-2" />
    <linearGradient
       id="linear-gradient-44"
       x1="36.75"
       y1="26.29"
       x2="36.23"
       y2="33.46"
       xlink:href="#linear-gradient-2" />
    <linearGradient
       id="linear-gradient-45"
       x1="34.93"
       y1="30.79"
       x2="37.02"
       y2="28.3"
       xlink:href="#linear-gradient" />
    <linearGradient
       inkscape:collect="always"
       xlink:href="#linear-gradient"
       id="linearGradient89"
       gradientUnits="userSpaceOnUse"
       x1="20.55"
       y1="29.14"
       x2="30.28"
       y2="5.1" />
    <linearGradient
       inkscape:collect="always"
       xlink:href="#linear-gradient-2"
       id="linearGradient90"
       gradientUnits="userSpaceOnUse"
       x1="33.84"
       y1="20.58"
       x2="26.07"
       y2="20.62" />
    <linearGradient
       inkscape:collect="always"
       xlink:href="#linear-gradient-2"
       id="linearGradient91"
       gradientUnits="userSpaceOnUse"
       x1="33.84"
       y1="20.58"
       x2="26.07"
       y2="20.62" />
    <linearGradient
       inkscape:collect="always"
       xlink:href="#linear-gradient-2"
       id="linearGradient92"
       gradientUnits="userSpaceOnUse"
       x1="33.84"
       y1="20.58"
       x2="26.07"
       y2="20.62" />
    <linearGradient
       inkscape:collect="always"
       xlink:href="#linear-gradient-16"
       id="linearGradient93"
       gradientUnits="userSpaceOnUse"
       x1="34"
       y1="3.75"
       x2="18.3"
       y2="12.37" />
    <linearGradient
       inkscape:collect="always"
       xlink:href="#linear-gradient-17"
       id="linearGradient94"
       gradientUnits="userSpaceOnUse"
       x1="27.54"
       y1="19.6"
       x2="30.98"
       y2="18.65" />
    <linearGradient
       inkscape:collect="always"
       xlink:href="#linear-gradient-23"
       id="linearGradient95"
       gradientUnits="userSpaceOnUse"
       x1="25.33"
       y1="28.38"
       x2="28.86"
       y2="31.15" />
    <radialGradient
       inkscape:collect="always"
       xlink:href="#radial-gradient-2"
       id="radialGradient95"
       gradientUnits="userSpaceOnUse"
       cx="36.91"
       cy="29.21"
       fx="36.91"
       fy="29.21"
       r="5.28" />
    <radialGradient
       inkscape:collect="always"
       xlink:href="#radial-gradient-2"
       id="radialGradient96"
       gradientUnits="userSpaceOnUse"
       cx="36.91"
       cy="29.21"
       fx="36.91"
       fy="29.21"
       r="5.28" />
  </defs>
  <g
     id="shadow"
     style="opacity:0.45;isolation:isolate;mix-blend-mode:multiply;stroke-width:0.904794"
     transform="matrix(1.10535,0,0,1.10509,-3.80169,-3.64439)">
    <ellipse
       cx="23.25"
       cy="34.4"
       rx="18.06"
       ry="10.86"
       transform="rotate(-22.93,23.2561,34.4134)"
       style="fill:url(#radial-gradient);stroke-width:0.904794"
       id="ellipse18" />
  </g>
  <g
     id="ART"
     style="isolation:isolate;stroke-width:0.826658"
     transform="matrix(1.21031,0,0,1.20906,-7.28994,-4.25483)">
    <g
       id="g24"
       style="stroke-width:0.826658">
      <path
         d="m 24.63,28.46 c -0.51,0.38 -1.07,0.78 -1.71,0.77 -0.66,-0.01 -1.24,-0.48 -1.57,-1.05 -0.33,-0.57 -0.45,-1.23 -0.57,-1.88 l -0.52,-2.82 c -0.07,-0.39 -0.12,-0.81 -0.25,-1.18 -0.13,-0.37 -0.27,-0.52 -0.08,-0.91 0.49,-0.96 1.08,-1.85 1.79,-2.66 0.78,-0.87 1.52,-1.47 2.57,-1.95 0.51,-0.23 1.17,-0.25 1.59,0.13 0.37,0.33 0.6,1.08 0.85,1.52 0.34,0.6 0.64,1.23 0.75,1.92 0.1,0.58 0.07,1.17 0.04,1.76 -0.1,1.77 -0.28,3.68 -1.41,5.04 -0.42,0.51 -0.95,0.91 -1.48,1.3 z"
         style="fill:none;stroke:#555753;stroke-width:0.826658;stroke-miterlimit:10"
         id="path18" />
      <path
         d="m 28.52,21.83 c -0.2,0.5 -0.58,0.92 -1.06,1.16 -0.18,0.09 -0.57,-0.15 -0.57,-0.15 -0.02,0.01 -0.05,-1.26 -0.08,-1.56 -0.08,-0.76 -0.19,-1.58 -0.44,-2.31 -0.26,-0.77 -0.55,-1.44 -1.28,-1.79 0.14,-0.38 0.88,-0.55 1.3,-0.58 0.8,-0.05 1.52,-0.02 2.3,0.22 0.21,0.06 0.44,0.15 0.56,0.33 0.06,0.09 0.1,0.2 0.12,0.31 0.07,0.32 0.04,0.64 0.15,0.94 0.13,0.38 0.22,0.75 0.3,1.15 0.01,0.05 0.02,0.11 0,0.16 -0.03,0.04 -0.08,0.07 -0.12,0.09 -0.68,0.31 -0.91,0.88 -1.03,1.56 -0.03,0.16 -0.07,0.31 -0.13,0.46 z"
         style="fill:none;stroke:#555753;stroke-width:0.826658;stroke-miterlimit:10"
         id="path19" />
      <path
         d="m 26.91,22.73 c 0.36,-0.16 1.16,-0.03 1.53,0.08 0.52,0.15 0.97,0.46 1.43,0.73 0.32,0.18 0.66,0.34 0.88,0.61 0.22,0.27 0.28,0.7 0.02,0.94 -0.06,0.06 -0.14,0.1 -0.2,0.16 -0.2,0.21 -0.16,0.52 -0.12,0.8 0.04,0.28 0.03,0.61 -0.22,0.76 0.23,-1.4 -2.39,-0.29 -2.9,0 -0.35,0.21 -0.67,0.46 -0.97,0.72 -0.27,0.23 -0.36,0.6 -0.64,0.8 0.03,-0.43 -0.38,-0.81 -0.13,-1.18 0.21,-0.31 0.86,-1.28 1.08,-2.52 0.04,-0.25 0.24,-1.92 0.24,-1.92 z"
         style="fill:none;stroke:#555753;stroke-width:0.826658;stroke-miterlimit:10"
         id="path20" />
      <path
         d="m 25.52,27.16 c 0.18,-0.26 0.39,-0.56 0.69,-0.71 0.33,-0.17 1.04,0.1 1.42,0.47 1.17,1.16 1.01,3.09 0.39,4.08 -0.34,0.54 -0.79,0.97 -1.24,1.39 0.25,-0.48 0.02,-1.15 -0.21,-1.75 -0.09,-0.23 -0.18,-0.47 -0.34,-0.67 -0.46,-0.57 -1.21,-0.59 -1.77,-0.59 -0.48,0 -1.18,0 -1.19,0.64 -0.06,-0.47 0.02,-0.94 0.3,-1.25 0.33,-0.36 0.8,-0.45 1.16,-0.74 0.19,-0.15 0.59,-0.57 0.8,-0.88 z"
         style="fill:none;stroke:#555753;stroke-width:0.826658;stroke-miterlimit:10"
         id="path21" />
      <path
         d="m 19.33,29.96 c 0.06,0.06 0.13,0.08 0.23,-0.02 0.27,-0.26 0.3,-0.48 0.67,-0.63 0.37,-0.15 0.75,-0.24 1.14,-0.27 0.72,-0.06 1.54,0.26 1.87,0.98 0.47,-1.08 -0.37,-1.03 -1.4,-2.37 -0.3,-0.39 -0.81,-1.94 -0.9,-2.21 -0.09,-0.27 -0.51,-0.72 -0.51,-0.72 0,0 0.23,0.43 0,0.85 -0.33,0.61 -0.8,1.15 -1.19,1.72 -0.39,0.57 -0.85,1.04 -1.47,1.38 0.23,0.32 0.74,0.25 1.07,0.47 0.2,0.14 0.31,0.37 0.38,0.6 0.03,0.08 0.06,0.16 0.11,0.21 z"
         style="fill:none;stroke:#555753;stroke-width:0.826658;stroke-miterlimit:10"
         id="path22" />
      <path
         d="m 26.07,15.12 c -0.13,-0.19 -0.33,-0.35 -0.53,-0.49 -0.64,-0.43 -1.38,-0.72 -2.15,-0.84 -0.08,-0.01 -0.16,-0.02 -0.23,0 -0.11,0.03 -0.18,0.12 -0.26,0.19 -0.4,0.36 -1.01,0.37 -1.55,0.38 -0.54,0.01 -1.16,0.07 -1.5,0.48 0.6,-0.06 1.3,0.12 1.76,0.53 0.36,0.32 0.47,1 0.47,1.46 0,0.81 -0.43,1.41 -0.81,2.09 -0.12,0.21 -0.26,0.39 -0.37,0.6 -0.02,0.04 -0.04,0.09 -0.04,0.14 0.02,0.11 0.24,0.75 0.29,0.64 0.31,-0.61 1.02,-1.67 1.51,-2.08 0.54,-0.45 1.65,-1.17 2.47,-0.99 0.87,0.19 1.4,-0.86 1.05,-1.88 -0.03,-0.09 -0.07,-0.17 -0.12,-0.24 z"
         style="fill:none;stroke:#555753;stroke-width:0.826658;stroke-miterlimit:10"
         id="path23" />
      <path
         d="m 21.13,20.77 c 0.16,-0.51 0.33,-0.9 0.42,-1.23 0.04,-0.12 -0.12,-0.61 -0.56,-0.82 -0.41,-0.2 -0.88,-0.22 -1.34,-0.22 -0.54,0 -1.08,0.62 -1.62,0.7 0.19,0.64 0.09,0.78 -0.27,1.34 -0.08,0.12 -0.17,0.25 -0.3,0.32 -0.12,0.07 -0.26,0.09 -0.38,0.16 -0.25,0.16 -0.3,0.49 -0.24,0.77 0.1,0.51 0.31,0.72 0.73,1.04 0.39,0.3 0.81,0.56 1.25,0.77 0.25,0.12 0.51,0.22 0.74,0.37 0.6,0.38 0.95,1.02 1.28,1.63 -0.38,-1.57 -0.2,-3.32 0.28,-4.85 z"
         style="fill:none;stroke:#555753;stroke-width:0.826658;stroke-miterlimit:10"
         id="path24" />
    </g>
    <path
       d="M 32.6,4.71 31.78,4.24 12.21,15.53 v 26.35 l 0.83,0.48 19.56,-11.29 z"
       style="fill:none;stroke:#2e3436;stroke-width:1.15732px;stroke-miterlimit:10"
       id="path25" />
    <path
       d="M 13.04,16 V 42.35 L 32.6,31.06 V 4.7 Z m 11.98,12.43 c -0.31,0.35 -0.66,0.67 -1.11,0.78 -0.55,0.13 -1.13,-0.1 -1.62,-0.39 -0.37,-0.22 -0.73,-0.47 -0.97,-0.83 -0.34,-0.51 -0.39,-1.15 -0.45,-1.76 -0.1,-0.94 -0.26,-1.86 -0.47,-2.78 -0.13,-0.55 -0.51,-1.44 -0.24,-1.98 0.49,-0.95 0.71,-1.94 1.42,-2.79 0.32,-0.38 0.69,-0.7 1.06,-1.02 0.15,-0.13 0.3,-0.26 0.48,-0.34 0.15,-0.07 0.31,-0.1 0.47,-0.13 0.49,-0.08 1.17,-0.26 1.65,-0.09 0.56,0.19 0.95,0.74 1.25,1.21 0.53,0.83 0.75,1.84 0.74,2.81 -0.02,1.47 -0.48,2.9 -0.8,4.34 -0.15,0.66 -0.27,1.34 -0.61,1.92 -0.17,0.29 -0.39,0.55 -0.6,0.8 -0.07,0.08 -0.13,0.16 -0.2,0.23 z"
       style="fill:#888a85;stroke-width:0.826658"
       id="path26" />
    <path
       d="M 13.04,16 V 42.35 L 32.6,31.06 V 4.7 Z m 11.59,12.46 c -0.51,0.38 -1.07,0.78 -1.71,0.77 -0.66,-0.01 -1.24,-0.48 -1.57,-1.05 -0.33,-0.57 -0.45,-1.23 -0.57,-1.88 l -0.52,-2.82 c -0.07,-0.39 -0.12,-0.81 -0.25,-1.18 -0.13,-0.37 -0.27,-0.52 -0.08,-0.91 0.49,-0.96 1.08,-1.85 1.79,-2.66 0.78,-0.87 1.52,-1.47 2.57,-1.95 0.51,-0.23 1.17,-0.25 1.59,0.13 0.37,0.33 0.6,1.08 0.85,1.52 0.34,0.6 0.64,1.23 0.75,1.92 0.1,0.58 0.07,1.17 0.04,1.76 -0.1,1.77 -0.28,3.68 -1.41,5.04 -0.42,0.51 -0.95,0.91 -1.48,1.3 z"
       style="opacity:0.65;fill:url(#linearGradient89);stroke-width:0.826658"
       id="path27" />
    <path
       d="m 27.98,16.99 c 0.36,0 0.72,0.08 1.07,0.25 0.12,0.06 0.25,0.14 0.29,0.3 0.03,0.1 0,0.2 0,0.3 -0.13,0.79 -0.18,1.71 0.19,2.42 0.14,0.26 0.34,0.51 0.34,0.81 0,0.37 -0.27,0.57 -0.4,0.87 -0.23,0.55 0.04,1.39 -0.25,1.88 -0.17,0.29 -0.47,0.35 -0.75,0.39 -0.05,0 -0.11,0.01 -0.16,-0.02 -0.06,-0.04 -0.08,-0.13 -0.11,-0.21 -0.11,-0.38 -0.19,-0.78 -0.27,-1.17 -0.37,-1.8 -0.74,-3.67 -0.55,-5.44 l 0.6,-0.39 z"
       style="fill:url(#linearGradient90);stroke-width:0.826658"
       id="path28" />
    <path
       d="m 27.98,16.99 c 0.36,0 0.72,0.08 1.07,0.25 0.12,0.06 0.25,0.14 0.29,0.3 0.03,0.1 0,0.2 0,0.3 -0.13,0.79 -0.18,1.71 0.19,2.42 0.14,0.26 0.34,0.51 0.34,0.81 0,0.37 -0.27,0.57 -0.4,0.87 -0.23,0.55 0.04,1.39 -0.25,1.88 -0.17,0.29 -0.47,0.35 -0.75,0.39 -0.05,0 -0.11,0.01 -0.16,-0.02 -0.06,-0.04 -0.08,-0.13 -0.11,-0.21 -0.11,-0.38 -0.19,-0.78 -0.27,-1.17 -0.37,-1.8 -0.74,-3.67 -0.55,-5.44 l 0.6,-0.39 z"
       style="fill:url(#linearGradient91);stroke-width:0.826658"
       id="path29" />
    <path
       d="m 27.98,16.99 c 0.36,0 0.72,0.08 1.07,0.25 0.12,0.06 0.25,0.14 0.29,0.3 0.03,0.1 0,0.2 0,0.3 -0.13,0.79 -0.18,1.71 0.19,2.42 0.14,0.26 0.34,0.51 0.34,0.81 0,0.37 -0.27,0.57 -0.4,0.87 -0.23,0.55 0.04,1.39 -0.25,1.88 -0.17,0.29 -0.47,0.35 -0.75,0.39 -0.05,0 -0.11,0.01 -0.16,-0.02 -0.06,-0.04 -0.08,-0.13 -0.11,-0.21 -0.11,-0.38 -0.19,-0.78 -0.27,-1.17 -0.37,-1.8 -0.74,-3.67 -0.55,-5.44 l 0.6,-0.39 z"
       style="fill:url(#linearGradient92);stroke-width:0.826658"
       id="path30" />
    <path
       d="M 32.6,13.68 V 31.06 L 14.57,41.47 c 0.47,-1.23 1.66,-3.46 4.38,-4.66 3.87,-1.72 6.04,-4.2 6.93,-6.48 0.87,-2.24 3.04,-13.67 6.72,-16.65 z"
       style="opacity:0.65;fill:url(#linear-gradient-3);stroke-width:0.826658"
       id="path31" />
    <polygon
       points="12.21,15.53 13.04,16 13.04,42.35 12.21,41.88 "
       style="fill:#555753;stroke-width:0.826658"
       id="polygon31" />
    <path
       d="m 32.6,4.7 v 2.19 c 0,0.36 -0.72,1.1 -0.94,1.38 -0.31,0.39 -0.65,0.76 -0.97,1.13 -0.63,0.72 -1.64,1 -2.55,1.17 -1.24,0.24 -1.91,1.09 -2.3,2.25 -0.32,0.93 -0.5,1.95 -1.14,2.7 -0.54,0.64 -1.35,1 -1.87,1.65 -0.24,0.3 -0.37,0.67 -0.59,0.99 -0.26,0.38 -0.62,0.68 -0.94,1.01 -0.18,0.18 -0.35,0.34 -0.41,0.59 -0.08,0.34 0.04,0.62 0.03,0.95 -0.01,0.24 -0.12,0.49 -0.17,0.73 -0.13,0.61 -0.18,1.24 -0.2,1.87 -0.04,1.23 0.03,2.46 -0.11,3.68 -0.09,0.76 -0.05,1.31 -0.75,1.79 -0.65,0.44 -1.51,0.5 -2.11,1.05 -0.87,0.8 -1.15,2.04 -1.37,3.21 -0.16,0.84 -0.22,1.79 -0.64,2.53 -0.42,0.74 -0.78,1.45 -1.14,2.19 -0.46,0.94 -0.89,1.89 -1.29,2.85 l -0.03,0.08 -0.06,0.02 V 16 Z"
       style="opacity:0.65;fill:url(#linear-gradient-4);stroke-width:0.826658"
       id="path32" />
    <path
       d="m 21.32,18.69 c -0.23,-0.44 -0.47,-0.9 -0.84,-1.12 -0.43,-0.26 -0.94,-0.12 -1.41,-0.19 -0.1,-0.18 -0.03,-0.43 0.06,-0.61 0.52,-1.11 1.49,-1.83 2.49,-1.85 0.19,0 0.39,0.02 0.57,0.12 0.38,0.21 0.63,0.75 0.66,1.29 0.03,0.54 -0.11,1.08 -0.33,1.55 -0.22,0.47 -0.49,0.87 -0.76,1.29 z"
       style="fill:url(#linear-gradient-5);stroke-width:0.826658"
       id="path33" />
    <path
       d="m 21.32,18.69 c -0.23,-0.44 -0.47,-0.9 -0.84,-1.12 -0.43,-0.26 -0.94,-0.12 -1.41,-0.19 -0.1,-0.18 -0.03,-0.43 0.06,-0.61 0.52,-1.11 1.49,-1.83 2.49,-1.85 0.19,0 0.39,0.02 0.57,0.12 0.38,0.21 0.63,0.75 0.66,1.29 0.03,0.54 -0.11,1.08 -0.33,1.55 -0.22,0.47 -0.49,0.87 -0.76,1.29 z"
       style="fill:url(#linear-gradient-6);stroke-width:0.826658"
       id="path34" />
    <path
       d="m 21.32,18.69 c -0.23,-0.44 -0.47,-0.9 -0.84,-1.12 -0.43,-0.26 -0.94,-0.12 -1.41,-0.19 -0.1,-0.18 -0.03,-0.43 0.06,-0.61 0.52,-1.11 1.49,-1.83 2.49,-1.85 0.19,0 0.39,0.02 0.57,0.12 0.38,0.21 0.63,0.75 0.66,1.29 0.03,0.54 -0.11,1.08 -0.33,1.55 -0.22,0.47 -0.49,0.87 -0.76,1.29 z"
       style="fill:url(#linear-gradient-7);stroke-width:0.826658"
       id="path35" />
    <path
       d="m 20.57,24.45 c -0.02,-0.2 -0.03,-0.4 -0.05,-0.6 C 20.48,23.41 20.4,22.8 20.22,22.4 20.17,22.3 20.11,22.2 20.08,22.09 19.95,21.63 20.23,21.17 20.05,20.71 20,20.59 19.93,20.48 19.83,20.38 19.69,20.24 19.5,20.13 19.27,20.09 c -0.4,-0.07 -0.8,0.1 -1.1,0.31 -0.71,0.5 -1.05,1.27 -1.13,2.02 -0.08,0.68 -0.05,1.85 0.88,2.2 0.32,0.12 0.67,0.09 1.01,0.13 0.43,0.06 0.85,0.15 1.26,0.27 0.15,0.04 0.31,0.1 0.38,0.23 -0.07,-0.13 0.02,-0.59 0,-0.8 z"
       style="fill:url(#linear-gradient-8);stroke-width:0.826658"
       id="path36" />
    <path
       d="m 20.57,24.45 c -0.02,-0.2 -0.03,-0.4 -0.05,-0.6 C 20.48,23.41 20.4,22.8 20.22,22.4 20.17,22.3 20.11,22.2 20.08,22.09 19.95,21.63 20.23,21.17 20.05,20.71 20,20.59 19.93,20.48 19.83,20.38 19.69,20.24 19.5,20.13 19.27,20.09 c -0.4,-0.07 -0.8,0.1 -1.1,0.31 -0.71,0.5 -1.05,1.27 -1.13,2.02 -0.08,0.68 -0.05,1.85 0.88,2.2 0.32,0.12 0.67,0.09 1.01,0.13 0.43,0.06 0.85,0.15 1.26,0.27 0.15,0.04 0.31,0.1 0.38,0.23 -0.07,-0.13 0.02,-0.59 0,-0.8 z"
       style="fill:url(#linear-gradient-9);stroke-width:0.826658"
       id="path37" />
    <path
       d="m 20.57,24.45 c -0.02,-0.2 -0.03,-0.4 -0.05,-0.6 C 20.48,23.41 20.4,22.8 20.22,22.4 20.17,22.3 20.11,22.2 20.08,22.09 19.95,21.63 20.23,21.17 20.05,20.71 20,20.59 19.93,20.48 19.83,20.38 19.69,20.24 19.5,20.13 19.27,20.09 c -0.4,-0.07 -0.8,0.1 -1.1,0.31 -0.71,0.5 -1.05,1.27 -1.13,2.02 -0.08,0.68 -0.05,1.85 0.88,2.2 0.32,0.12 0.67,0.09 1.01,0.13 0.43,0.06 0.85,0.15 1.26,0.27 0.15,0.04 0.31,0.1 0.38,0.23 -0.07,-0.13 0.02,-0.59 0,-0.8 z"
       style="fill:url(#linear-gradient-10);stroke-width:0.826658"
       id="path38" />
    <path
       d="m 21.61,28.81 c -0.42,-0.14 -0.85,0.11 -1.28,0.05 -0.49,-0.07 -1.23,-0.12 -1.7,0.08 -0.36,0.16 -0.68,0.59 -0.84,0.94 -0.11,0.24 -0.38,0.66 -0.08,0.84 0.1,0.06 0.22,0.09 0.34,0.12 0.27,0.09 0.51,0.26 0.68,0.47 0.09,0.12 0.18,0.26 0.33,0.29 0.2,0.05 0.38,-0.12 0.51,-0.25 0.5,-0.49 1.17,-0.75 1.83,-1.01 0.66,-0.25 1.24,-0.35 1.9,-0.02 -0.06,-0.27 -0.22,-0.52 -0.44,-0.7 -0.2,-0.16 -0.44,-0.27 -0.65,-0.43 -0.19,-0.15 -0.35,-0.32 -0.59,-0.4 z"
       style="fill:url(#linear-gradient-11);stroke-width:0.826658"
       id="path39" />
    <path
       d="m 21.61,28.81 c -0.42,-0.14 -0.85,0.11 -1.28,0.05 -0.49,-0.07 -1.23,-0.12 -1.7,0.08 -0.36,0.16 -0.68,0.59 -0.84,0.94 -0.11,0.24 -0.38,0.66 -0.08,0.84 0.1,0.06 0.22,0.09 0.34,0.12 0.27,0.09 0.51,0.26 0.68,0.47 0.09,0.12 0.18,0.26 0.33,0.29 0.2,0.05 0.38,-0.12 0.51,-0.25 0.5,-0.49 1.17,-0.75 1.83,-1.01 0.66,-0.25 1.24,-0.35 1.9,-0.02 -0.06,-0.27 -0.22,-0.52 -0.44,-0.7 -0.2,-0.16 -0.44,-0.27 -0.65,-0.43 -0.19,-0.15 -0.35,-0.32 -0.59,-0.4 z"
       style="fill:url(#linear-gradient-12);stroke-width:0.826658"
       id="path40" />
    <path
       d="m 23.28,30.33 c 0.99,0.28 1.88,1.15 2.38,1.93 0.04,0.06 0.08,0.13 0.14,0.18 0.37,0.28 0.82,-0.1 0.99,-0.39 0.2,-0.34 0.26,-0.76 0.25,-1.15 -0.02,-0.8 -0.38,-1.73 0.43,-2.27 0.63,-0.42 1.47,-0.29 2.24,-0.25 0.13,0 0.27,0 0.35,-0.1 0.04,-0.06 0.05,-0.13 0.05,-0.2 0,-0.26 -0.02,-0.53 -0.07,-0.79 -0.1,-0.53 -0.39,-1.1 -0.93,-1.24 -0.42,-0.1 -0.85,0.09 -1.24,0.28 l -0.69,0.33 c -0.23,0.11 -0.46,0.22 -0.67,0.37 -0.32,0.23 -0.58,0.54 -0.82,0.85 -0.24,0.3 -0.49,0.72 -0.81,0.94 -0.29,0.2 -0.73,0.31 -1.06,0.47 -0.23,0.11 -0.49,0.26 -0.5,0.51"
       style="fill:url(#linear-gradient-13);stroke-width:0.826658"
       id="path41" />
    <path
       d="m 23.28,30.33 c 0.99,0.28 1.88,1.15 2.38,1.93 0.04,0.06 0.08,0.13 0.14,0.18 0.37,0.28 0.82,-0.1 0.99,-0.39 0.2,-0.34 0.26,-0.76 0.25,-1.15 -0.02,-0.8 -0.38,-1.73 0.43,-2.27 0.63,-0.42 1.47,-0.29 2.24,-0.25 0.13,0 0.27,0 0.35,-0.1 0.04,-0.06 0.05,-0.13 0.05,-0.2 0,-0.26 -0.02,-0.53 -0.07,-0.79 -0.1,-0.53 -0.39,-1.1 -0.93,-1.24 -0.42,-0.1 -0.85,0.09 -1.24,0.28 l -0.69,0.33 c -0.23,0.11 -0.46,0.22 -0.67,0.37 -0.59,0.42 -0.89,1.1 -1.49,1.5 -0.6,0.4 -1.35,0.64 -1.81,1.19"
       style="fill:url(#linear-gradient-14);stroke-width:0.826658"
       id="path42" />
    <path
       d="m 23.28,30.33 c 0.99,0.28 1.88,1.15 2.38,1.93 0.04,0.06 0.08,0.13 0.14,0.18 0.37,0.28 0.82,-0.1 0.99,-0.39 0.2,-0.34 0.26,-0.76 0.25,-1.15 -0.02,-0.8 -0.38,-1.73 0.43,-2.27 0.63,-0.42 1.47,-0.29 2.24,-0.25 0.13,0 0.27,0 0.35,-0.1 0.04,-0.06 0.05,-0.13 0.05,-0.2 0,-0.26 -0.02,-0.53 -0.07,-0.79 -0.1,-0.53 -0.39,-1.1 -0.93,-1.24 -0.42,-0.1 -0.85,0.09 -1.24,0.28 l -0.69,0.33 c -0.23,0.11 -0.46,0.22 -0.67,0.37 -0.59,0.42 -0.89,1.1 -1.49,1.5 -0.6,0.4 -1.35,0.64 -1.81,1.19"
       style="fill:url(#linear-gradient-15);stroke-width:0.826658"
       id="path43" />
    <polygon
       points="32.6,4.7 13.04,16 12.21,15.53 31.78,4.23 "
       style="fill:#babdb6;stroke-width:0.826658"
       id="polygon43" />
    <g
       style="opacity:0.65;stroke-width:0.826658"
       id="g44">
      <polygon
         points="31.78,4.23 32.6,4.7 13.04,16 12.21,15.53 "
         style="fill:url(#linearGradient93);stroke-width:0.826658"
         id="polygon44" />
    </g>
    <path
       d="m 28.52,21.83 c -0.2,0.5 -0.58,0.92 -1.06,1.16 -0.18,0.09 -0.57,-0.15 -0.57,-0.15 -0.02,0.01 -0.05,-1.26 -0.08,-1.56 -0.08,-0.76 -0.19,-1.58 -0.44,-2.31 -0.26,-0.77 -0.55,-1.44 -1.28,-1.79 0.14,-0.38 0.88,-0.55 1.3,-0.58 0.8,-0.05 1.52,-0.02 2.3,0.22 0.21,0.06 0.44,0.15 0.56,0.33 0.06,0.09 0.1,0.2 0.12,0.31 0.07,0.32 0.04,0.64 0.15,0.94 0.13,0.38 0.22,0.75 0.3,1.15 0.01,0.05 0.02,0.11 0,0.16 -0.03,0.04 -0.08,0.07 -0.12,0.09 -0.68,0.31 -0.91,0.88 -1.03,1.56 -0.03,0.16 -0.07,0.31 -0.13,0.46 z"
       style="fill:#555753;stroke-width:0.826658"
       id="path44" />
    <path
       d="m 28.52,21.83 c -0.2,0.5 -0.58,0.92 -1.06,1.16 -0.18,0.09 -0.57,-0.15 -0.57,-0.15 -0.02,0.01 -0.05,-1.26 -0.08,-1.56 -0.08,-0.76 -0.19,-1.58 -0.44,-2.31 -0.26,-0.77 -0.55,-1.44 -1.28,-1.79 0.14,-0.38 0.88,-0.55 1.3,-0.58 0.8,-0.05 1.52,-0.02 2.3,0.22 0.21,0.06 0.44,0.15 0.56,0.33 0.06,0.09 0.1,0.2 0.12,0.31 0.07,0.32 0.04,0.64 0.15,0.94 0.13,0.38 0.22,0.75 0.3,1.15 0.01,0.05 0.02,0.11 0,0.16 -0.03,0.04 -0.08,0.07 -0.12,0.09 -0.68,0.31 -0.91,0.88 -1.03,1.56 -0.03,0.16 -0.07,0.31 -0.13,0.46 z"
       style="opacity:0.65;fill:url(#linearGradient94);stroke-width:0.826658"
       id="path45" />
    <path
       d="m 28.43,22 c -0.21,0.43 -0.55,0.78 -0.98,0.99 -0.17,0.09 -0.57,-0.15 -0.57,-0.15 -0.02,0 -0.05,-1.26 -0.08,-1.55 -0.09,-0.76 -0.2,-1.58 -0.44,-2.31 -0.26,-0.77 -0.54,-1.44 -1.27,-1.79 0.14,-0.37 0.87,-0.55 1.3,-0.58 0.44,-0.03 0.86,-0.03 1.27,0.03 -0.55,1.57 -0.12,3.98 0.77,5.36 z"
       style="opacity:0.65;fill:url(#linear-gradient-18);stroke-width:0.826658"
       id="path46" />
    <path
       d="m 28.43,22 c -0.21,0.43 -0.55,0.78 -0.98,0.99 -0.17,0.09 -0.57,-0.15 -0.57,-0.15 -0.02,0 -0.05,-1.26 -0.08,-1.55 -0.09,-0.76 -0.2,-1.58 -0.44,-2.31 -0.26,-0.77 -0.54,-1.44 -1.27,-1.79 0.14,-0.37 0.87,-0.55 1.3,-0.58 0.44,-0.03 0.86,-0.03 1.27,0.03 -0.55,1.57 -0.12,3.98 0.77,5.36 z"
       style="opacity:0.65;fill:url(#linear-gradient-19);stroke-width:0.826658"
       id="path47" />
    <path
       d="m 28.52,21.83 c -0.2,0.5 -0.58,0.92 -1.06,1.16 -0.18,0.09 -0.57,-0.15 -0.57,-0.15 -0.02,0.01 -0.05,-1.26 -0.08,-1.56 -0.08,-0.76 -0.19,-1.58 -0.44,-2.31 -0.26,-0.77 -0.55,-1.44 -1.28,-1.79 0.14,-0.38 0.88,-0.55 1.3,-0.58 0.8,-0.05 1.52,-0.02 2.3,0.22 0.21,0.06 0.44,0.15 0.56,0.33 0.06,0.09 0.1,0.2 0.12,0.31 0.07,0.32 0.04,0.64 0.15,0.94 0.13,0.38 0.22,0.75 0.3,1.15 0.01,0.05 0.02,0.11 0,0.16 -0.03,0.04 -0.08,0.07 -0.12,0.09 -0.68,0.31 -0.91,0.88 -1.03,1.56 -0.03,0.16 -0.07,0.31 -0.13,0.46 z"
       style="fill:none;stroke:#555753;stroke-width:0.413329px;stroke-miterlimit:10"
       id="path48" />
    <path
       d="m 26.91,22.73 c 0.36,-0.16 1.16,-0.03 1.53,0.08 0.52,0.15 0.97,0.46 1.43,0.73 0.32,0.18 0.66,0.34 0.88,0.61 0.22,0.27 0.28,0.7 0.02,0.94 -0.06,0.06 -0.14,0.1 -0.2,0.16 -0.2,0.21 -0.16,0.52 -0.12,0.8 0.04,0.28 0.03,0.61 -0.22,0.76 0.23,-1.4 -2.39,-0.29 -2.9,0 -0.35,0.21 -0.67,0.46 -0.97,0.72 -0.27,0.23 -0.36,0.6 -0.64,0.8 0.03,-0.43 -0.38,-0.81 -0.13,-1.18 0.21,-0.31 0.86,-1.28 1.08,-2.52 0.04,-0.25 0.24,-1.92 0.24,-1.92 z"
       style="fill:#555753;stroke-width:0.826658"
       id="path49" />
    <path
       d="m 26.91,22.73 c 0.36,-0.16 1.16,-0.03 1.53,0.08 0.52,0.15 0.97,0.46 1.43,0.73 0.32,0.18 0.66,0.34 0.88,0.61 0.22,0.27 0.28,0.7 0.02,0.94 -0.06,0.06 -0.14,0.1 -0.2,0.16 -0.2,0.21 -0.16,0.52 -0.12,0.8 0.04,0.28 0.03,0.61 -0.22,0.76 0.23,-1.4 -2.39,-0.29 -2.9,0 -0.35,0.21 -0.67,0.46 -0.97,0.72 -0.27,0.23 -0.36,0.6 -0.64,0.8 0.03,-0.43 -0.38,-0.81 -0.13,-1.18 0.21,-0.31 0.86,-1.28 1.08,-2.52 0.04,-0.25 0.24,-1.92 0.24,-1.92 z"
       style="fill:none;stroke:#555753;stroke-width:0.247997px;stroke-miterlimit:10"
       id="path50" />
    <path
       d="m 28.33,24.52 c 0,0 -0.4,0.09 -0.83,0.76 -0.4,0.62 -0.83,2.15 -1.92,1.95 0,-0.01 0,-0.03 0.02,-0.04 0.21,-0.31 0.86,-1.27 1.07,-2.53 0.05,-0.24 0.23,-1.92 0.23,-1.92 0.17,-0.07 0.43,-0.09 0.71,-0.06 0.41,0.59 -0.18,1.29 0.72,1.85 z"
       style="opacity:0.65;fill:url(#linear-gradient-20);stroke-width:0.826658"
       id="path51" />
    <path
       d="m 28.33,24.52 c 0,0 -0.4,0.09 -0.83,0.76 -0.4,0.62 -0.83,2.15 -1.92,1.95 0,-0.01 0,-0.03 0.02,-0.04 0.21,-0.31 0.86,-1.27 1.07,-2.53 0.05,-0.24 0.23,-1.92 0.23,-1.92 0.17,-0.07 0.43,-0.09 0.71,-0.06 0.41,0.59 -0.18,1.29 0.72,1.85 z"
       style="opacity:0.65;fill:url(#linear-gradient-21);stroke-width:0.826658"
       id="path52" />
    <path
       d="m 26.91,22.73 c 0.36,-0.16 1.16,-0.03 1.53,0.08 0.52,0.15 0.97,0.46 1.43,0.73 0.32,0.18 0.66,0.34 0.88,0.61 0.22,0.27 0.28,0.7 0.02,0.94 -0.06,0.06 -0.14,0.1 -0.2,0.16 -0.2,0.21 -0.16,0.52 -0.12,0.8 0.04,0.28 0.03,0.61 -0.22,0.76 0.23,-1.4 -2.39,-0.29 -2.9,0 -0.35,0.21 -0.67,0.46 -0.97,0.72 -0.27,0.23 -0.36,0.6 -0.64,0.8 0.03,-0.43 -0.38,-0.81 -0.13,-1.18 0.21,-0.31 0.86,-1.28 1.08,-2.52 0.04,-0.25 0.24,-1.92 0.24,-1.92 z"
       style="opacity:0.65;fill:url(#linear-gradient-22);stroke-width:0.826658"
       id="path53" />
    <path
       d="m 26.91,22.73 c 0.36,-0.16 1.16,-0.03 1.53,0.08 0.52,0.15 0.97,0.46 1.43,0.73 0.32,0.18 0.66,0.34 0.88,0.61 0.22,0.27 0.28,0.7 0.02,0.94 -0.06,0.06 -0.14,0.1 -0.2,0.16 -0.2,0.21 -0.16,0.52 -0.12,0.8 0.04,0.28 0.03,0.61 -0.22,0.76 0.23,-1.4 -2.39,-0.29 -2.9,0 -0.35,0.21 -0.67,0.46 -0.97,0.72 -0.27,0.23 -0.36,0.6 -0.64,0.8 0.03,-0.43 -0.38,-0.81 -0.13,-1.18 0.21,-0.31 0.86,-1.28 1.08,-2.52 0.04,-0.25 0.24,-1.92 0.24,-1.92 z"
       style="fill:none;stroke:#555753;stroke-width:0.413329px;stroke-miterlimit:10"
       id="path54" />
    <path
       d="m 25.52,27.16 c 0.18,-0.26 0.39,-0.56 0.69,-0.71 0.33,-0.17 1.04,0.1 1.42,0.47 1.17,1.16 1.01,3.09 0.39,4.08 -0.34,0.54 -0.79,0.97 -1.24,1.39 0.25,-0.48 0.02,-1.15 -0.21,-1.75 -0.09,-0.23 -0.18,-0.47 -0.34,-0.67 -0.46,-0.57 -1.21,-0.59 -1.77,-0.59 -0.48,0 -1.18,0 -1.19,0.64 -0.06,-0.47 0.02,-0.94 0.3,-1.25 0.33,-0.36 0.8,-0.45 1.16,-0.74 0.19,-0.15 0.59,-0.57 0.8,-0.88 z"
       style="fill:#555753;stroke-width:0.826658"
       id="path55" />
    <path
       d="m 25.52,27.16 c 0.18,-0.26 0.39,-0.56 0.69,-0.71 0.33,-0.17 1.04,0.1 1.42,0.47 1.17,1.16 1.01,3.09 0.39,4.08 -0.34,0.54 -0.79,0.97 -1.24,1.39 0.25,-0.48 0.02,-1.15 -0.21,-1.75 -0.09,-0.23 -0.18,-0.47 -0.34,-0.67 -0.46,-0.57 -1.21,-0.59 -1.77,-0.59 -0.48,0 -1.18,0 -1.19,0.64 -0.06,-0.47 0.02,-0.94 0.3,-1.25 0.33,-0.36 0.8,-0.45 1.16,-0.74 0.19,-0.15 0.59,-0.57 0.8,-0.88 z"
       style="opacity:0.65;fill:url(#linearGradient95);stroke-width:0.826658"
       id="path56" />
    <path
       d="m 26.36,27.55 c 0.46,0.3 0.64,1.13 0.67,1.3 -0.08,-0.09 -0.43,-0.49 -1.32,-0.5 -0.67,0 -1.52,0.65 -2.01,1.11 -0.21,0.06 -0.38,0.18 -0.43,0.4 -0.02,0.04 -0.03,0.1 -0.03,0.16 -0.02,-0.07 -0.02,-0.13 -0.02,-0.21 -0.02,-0.4 0.08,-0.77 0.32,-1.04 0.32,-0.37 0.8,-0.46 1.17,-0.74 0.18,-0.15 0.58,-0.58 0.8,-0.87 0.17,-0.27 0.38,-0.56 0.69,-0.73 0.23,-0.12 0.67,-0.01 1.04,0.21 -0.69,0.19 -1.27,0.65 -0.89,0.9 z"
       style="opacity:0.65;fill:url(#linear-gradient-24);stroke-width:0.826658"
       id="path57" />
    <path
       d="m 26.36,27.55 c 0.46,0.3 0.64,1.13 0.67,1.3 -0.08,-0.09 -0.43,-0.49 -1.32,-0.5 -0.67,0 -1.52,0.65 -2.01,1.11 -0.21,0.06 -0.38,0.18 -0.43,0.4 -0.02,0.04 -0.03,0.1 -0.03,0.16 -0.02,-0.07 -0.02,-0.13 -0.02,-0.21 -0.02,-0.4 0.08,-0.77 0.32,-1.04 0.32,-0.37 0.8,-0.46 1.17,-0.74 0.18,-0.15 0.58,-0.58 0.8,-0.87 0.17,-0.27 0.38,-0.56 0.69,-0.73 0.23,-0.12 0.67,-0.01 1.04,0.21 -0.69,0.19 -1.27,0.65 -0.89,0.9 z"
       style="opacity:0.65;fill:url(#linear-gradient-25);stroke-width:0.826658"
       id="path58" />
    <path
       d="m 25.52,27.16 c 0.18,-0.26 0.39,-0.56 0.69,-0.71 0.33,-0.17 1.04,0.1 1.42,0.47 1.17,1.16 1.01,3.09 0.39,4.08 -0.34,0.54 -0.79,0.97 -1.24,1.39 0.25,-0.48 0.02,-1.15 -0.21,-1.75 -0.09,-0.23 -0.18,-0.47 -0.34,-0.67 -0.46,-0.57 -1.21,-0.59 -1.77,-0.59 -0.48,0 -1.18,0 -1.19,0.64 -0.06,-0.47 0.02,-0.94 0.3,-1.25 0.33,-0.36 0.8,-0.45 1.16,-0.74 0.19,-0.15 0.59,-0.57 0.8,-0.88 z"
       style="fill:none;stroke:#555753;stroke-width:0.413329px;stroke-miterlimit:10"
       id="path59" />
    <path
       d="m 19.33,29.96 c 0.06,0.06 0.13,0.08 0.23,-0.02 0.27,-0.26 0.3,-0.48 0.67,-0.63 0.37,-0.15 0.75,-0.24 1.14,-0.27 0.72,-0.06 1.54,0.26 1.87,0.98 0.47,-1.08 -0.37,-1.03 -1.4,-2.37 -0.3,-0.39 -0.81,-1.94 -0.9,-2.21 -0.09,-0.27 -0.51,-0.72 -0.51,-0.72 0,0 0.23,0.43 0,0.85 -0.33,0.61 -0.8,1.15 -1.19,1.72 -0.39,0.57 -0.85,1.04 -1.47,1.38 0.23,0.32 0.74,0.25 1.07,0.47 0.2,0.14 0.31,0.37 0.38,0.6 0.03,0.08 0.06,0.16 0.11,0.21 z"
       style="fill:#555753;stroke-width:0.826658"
       id="path60" />
    <path
       d="m 19.33,29.96 c 0.06,0.06 0.13,0.08 0.23,-0.02 0.27,-0.26 0.3,-0.48 0.67,-0.63 0.37,-0.15 0.75,-0.24 1.14,-0.27 0.72,-0.06 1.54,0.26 1.87,0.98 0.47,-1.08 -0.37,-1.03 -1.4,-2.37 -0.3,-0.39 -0.81,-1.94 -0.9,-2.21 -0.09,-0.27 -0.51,-0.72 -0.51,-0.72 0,0 0.23,0.43 0,0.85 -0.33,0.61 -0.8,1.15 -1.19,1.72 -0.39,0.57 -0.85,1.04 -1.47,1.38 0.23,0.32 0.74,0.25 1.07,0.47 0.2,0.14 0.31,0.37 0.38,0.6 0.03,0.08 0.06,0.16 0.11,0.21 z"
       style="opacity:0.65;fill:url(#linear-gradient-26);stroke-width:0.826658"
       id="path61" />
    <path
       d="m 20.44,25.57 0.06,-0.59 c 0.05,0.16 0.05,0.39 -0.06,0.59 z"
       style="opacity:0.65;fill:url(#linear-gradient-27);stroke-width:0.826658"
       id="path62" />
    <path
       d="m 23.24,30.02 c -0.18,-0.43 -0.57,-0.71 -1.01,-0.86 h -0.02 c -0.75,-0.76 -1.84,-1.21 -1.84,-1.21 0.37,-0.62 0.08,-2.38 0.08,-2.38 0.11,-0.21 0.11,-0.43 0.06,-0.59 l 0.02,-0.15 c 0.12,0.15 0.35,0.41 0.41,0.61 0.09,0.28 0.6,1.82 0.9,2.22 1.03,1.33 1.87,1.29 1.4,2.37 z"
       style="opacity:0.65;fill:url(#linear-gradient-28);stroke-width:0.826658"
       id="path63" />
    <path
       d="m 23.24,30.02 c -0.18,-0.43 -0.57,-0.71 -1.01,-0.86 h -0.02 c -0.75,-0.76 -1.84,-1.21 -1.84,-1.21 0.37,-0.62 0.08,-2.38 0.08,-2.38 0.11,-0.21 0.11,-0.43 0.06,-0.59 l 0.02,-0.15 c 0.12,0.15 0.35,0.41 0.41,0.61 0.09,0.28 0.6,1.82 0.9,2.22 1.03,1.33 1.87,1.29 1.4,2.37 z"
       style="opacity:0.65;fill:url(#linear-gradient-29);stroke-width:0.826658"
       id="path64" />
    <path
       d="m 20.52,24.83 -0.02,0.15 c -0.02,-0.1 -0.05,-0.18 -0.06,-0.22 0.03,0.01 0.05,0.04 0.08,0.07 z"
       style="opacity:0.65;fill:url(#linear-gradient-30);stroke-width:0.826658"
       id="path65" />
    <path
       d="m 19.33,29.96 c 0.06,0.06 0.13,0.08 0.23,-0.02 0.27,-0.26 0.3,-0.48 0.67,-0.63 0.37,-0.15 0.75,-0.24 1.14,-0.27 0.72,-0.06 1.54,0.26 1.87,0.98 0.47,-1.08 -0.37,-1.03 -1.4,-2.37 -0.3,-0.39 -0.81,-1.94 -0.9,-2.21 -0.09,-0.27 -0.51,-0.72 -0.51,-0.72 0,0 0.23,0.43 0,0.85 -0.33,0.61 -0.8,1.15 -1.19,1.72 -0.39,0.57 -0.85,1.04 -1.47,1.38 0.23,0.32 0.74,0.25 1.07,0.47 0.2,0.14 0.31,0.37 0.38,0.6 0.03,0.08 0.06,0.16 0.11,0.21 z"
       style="fill:none;stroke:#555753;stroke-width:0.413329px;stroke-miterlimit:10"
       id="path66" />
    <path
       d="m 26.07,15.12 c -0.13,-0.19 -0.33,-0.35 -0.53,-0.49 -0.64,-0.43 -1.38,-0.72 -2.15,-0.84 -0.08,-0.01 -0.16,-0.02 -0.23,0 -0.11,0.03 -0.18,0.12 -0.26,0.19 -0.4,0.36 -1.01,0.37 -1.55,0.38 -0.54,0.01 -1.16,0.07 -1.5,0.48 0.6,-0.06 1.3,0.12 1.76,0.53 0.36,0.32 0.47,1 0.47,1.46 0,0.81 -0.43,1.41 -0.81,2.09 -0.12,0.21 -0.26,0.39 -0.37,0.6 -0.02,0.04 -0.04,0.09 -0.04,0.14 0.02,0.11 0.24,0.75 0.29,0.64 0.31,-0.61 1.02,-1.67 1.51,-2.08 0.54,-0.45 1.65,-1.17 2.47,-0.99 0.87,0.19 1.4,-0.86 1.05,-1.88 -0.03,-0.09 -0.07,-0.17 -0.12,-0.24 z"
       style="fill:#555753;stroke-width:0.826658"
       id="path67" />
    <path
       d="m 26.07,15.12 c -0.13,-0.19 -0.33,-0.35 -0.53,-0.49 -0.64,-0.43 -1.38,-0.72 -2.15,-0.84 -0.08,-0.01 -0.16,-0.02 -0.23,0 -0.11,0.03 -0.18,0.12 -0.26,0.19 -0.4,0.36 -1.01,0.37 -1.55,0.38 -0.54,0.01 -1.16,0.07 -1.5,0.48 0.6,-0.06 1.3,0.12 1.76,0.53 0.36,0.32 0.47,1 0.47,1.46 0,0.81 -0.43,1.41 -0.81,2.09 -0.12,0.21 -0.26,0.39 -0.37,0.6 -0.02,0.04 -0.04,0.09 -0.04,0.14 0.02,0.11 0.24,0.75 0.29,0.64 0.31,-0.61 1.02,-1.67 1.51,-2.08 0.54,-0.45 1.65,-1.17 2.47,-0.99 0.87,0.19 1.4,-0.86 1.05,-1.88 -0.03,-0.09 -0.07,-0.17 -0.12,-0.24 z"
       style="opacity:0.65;fill:url(#linear-gradient-31);stroke-width:0.826658"
       id="path68" />
    <path
       d="m 25.14,17.25 c -0.83,-0.18 -1.93,0.53 -2.47,0.99 -0.49,0.4 -1.21,1.47 -1.52,2.07 0,-0.03 -0.05,-0.09 -0.12,-0.16 q 0,0 -0.02,-0.01 c -0.06,-0.18 -0.14,-0.41 -0.15,-0.47 0,-0.04 0.02,-0.09 0.03,-0.13 0.11,-0.21 0.26,-0.4 0.37,-0.61 0.38,-0.68 0.81,-1.27 0.81,-2.09 0,-0.44 -0.11,-1.14 -0.46,-1.45 0.9,0.53 1.49,1.13 1.73,1.29 0.26,0.15 0.86,-0.09 0.57,-1.11 0,0 0.78,0.37 0.95,0.95 0.15,0.58 1.21,-0.12 1.33,-1.14 0.34,1.02 -0.18,2.06 -1.06,1.88 z"
       style="opacity:0.65;fill:url(#linear-gradient-32);stroke-width:0.826658"
       id="path69" />
    <path
       d="m 25.14,17.25 c -0.83,-0.18 -1.93,0.53 -2.47,0.99 -0.49,0.4 -1.21,1.47 -1.52,2.07 0,-0.03 -0.05,-0.09 -0.12,-0.16 q 0,0 -0.02,-0.01 c -0.06,-0.18 -0.14,-0.41 -0.15,-0.47 0,-0.04 0.02,-0.09 0.03,-0.13 0.11,-0.21 0.26,-0.4 0.37,-0.61 0.38,-0.68 0.81,-1.27 0.81,-2.09 0,-0.44 -0.11,-1.14 -0.46,-1.45 0.9,0.53 1.49,1.13 1.73,1.29 0.26,0.15 0.86,-0.09 0.57,-1.11 0,0 0.78,0.37 0.95,0.95 0.15,0.58 1.21,-0.12 1.33,-1.14 0.34,1.02 -0.18,2.06 -1.06,1.88 z"
       style="opacity:0.65;fill:url(#linear-gradient-33);stroke-width:0.826658"
       id="path70" />
    <path
       d="m 26.07,15.12 c -0.13,-0.19 -0.33,-0.35 -0.53,-0.49 -0.64,-0.43 -1.38,-0.72 -2.15,-0.84 -0.08,-0.01 -0.16,-0.02 -0.23,0 -0.11,0.03 -0.18,0.12 -0.26,0.19 -0.4,0.36 -1.01,0.37 -1.55,0.38 -0.54,0.01 -1.16,0.07 -1.5,0.48 0.6,-0.06 1.3,0.12 1.76,0.53 0.36,0.32 0.47,1 0.47,1.46 0,0.81 -0.43,1.41 -0.81,2.09 -0.12,0.21 -0.26,0.39 -0.37,0.6 -0.02,0.04 -0.04,0.09 -0.04,0.14 0.02,0.11 0.24,0.75 0.29,0.64 0.31,-0.61 1.02,-1.67 1.51,-2.08 0.54,-0.45 1.65,-1.17 2.47,-0.99 0.87,0.19 1.4,-0.86 1.05,-1.88 -0.03,-0.09 -0.07,-0.17 -0.12,-0.24 z"
       style="fill:none;stroke:#555753;stroke-width:0.413329px;stroke-miterlimit:10"
       id="path71" />
    <path
       d="m 21.15,20.31 c 0,0 -0.08,-0.04 -0.12,-0.16 0.08,0.07 0.12,0.13 0.12,0.16 z"
       style="opacity:0.65;fill:url(#linear-gradient-34);stroke-width:0.826658"
       id="path72" />
    <path
       d="m 21.13,20.77 c 0.16,-0.51 0.33,-0.9 0.42,-1.23 0.04,-0.12 -0.12,-0.61 -0.56,-0.82 -0.41,-0.2 -0.88,-0.22 -1.34,-0.22 -0.54,0 -1.08,0.62 -1.62,0.7 0.19,0.64 0.09,0.78 -0.27,1.34 -0.08,0.12 -0.17,0.25 -0.3,0.32 -0.12,0.07 -0.26,0.09 -0.38,0.16 -0.25,0.16 -0.3,0.49 -0.24,0.77 0.1,0.51 0.31,0.72 0.73,1.04 0.39,0.3 0.81,0.56 1.25,0.77 0.25,0.12 0.51,0.22 0.74,0.37 0.6,0.38 0.95,1.02 1.28,1.63 -0.38,-1.57 -0.2,-3.32 0.28,-4.85 z"
       style="fill:#555753;stroke-width:0.826658"
       id="path73" />
    <path
       d="m 21.13,20.77 c 0.16,-0.51 0.33,-0.9 0.42,-1.23 0.04,-0.12 -0.12,-0.61 -0.56,-0.82 -0.41,-0.2 -0.88,-0.22 -1.34,-0.22 -0.54,0 -1.08,0.62 -1.62,0.7 0.19,0.64 0.09,0.78 -0.27,1.34 -0.08,0.12 -0.17,0.25 -0.3,0.32 -0.12,0.07 -0.26,0.09 -0.38,0.16 -0.25,0.16 -0.3,0.49 -0.24,0.77 0.1,0.51 0.31,0.72 0.73,1.04 0.39,0.3 0.81,0.56 1.25,0.77 0.25,0.12 0.51,0.22 0.74,0.37 0.6,0.38 0.95,1.02 1.28,1.63 -0.38,-1.57 -0.2,-3.32 0.28,-4.85 z"
       style="opacity:0.65;fill:url(#linear-gradient-35);stroke-width:0.826658"
       id="path74" />
    <path
       d="m 20.84,25.63 c 0,0 -0.02,-0.03 -0.02,-0.04 h 0.02 z"
       style="opacity:0.65;fill:url(#linear-gradient-36);stroke-width:0.826658"
       id="path75" />
    <path
       d="m 21.13,20.77 c -0.49,1.51 -0.67,3.26 -0.31,4.81 -0.32,-0.61 -0.67,-1.23 -1.26,-1.6 -0.18,-0.12 -0.4,-0.21 -0.61,-0.31 1.29,-1.42 0.66,-2.95 0.87,-3.79 0.23,-0.92 1.3,-1.15 1.72,-0.34 -0.09,0.33 -0.26,0.73 -0.41,1.23 z"
       style="opacity:0.65;fill:url(#linear-gradient-37);stroke-width:0.826658"
       id="path76" />
    <path
       d="m 21.13,20.77 c -0.49,1.51 -0.67,3.26 -0.31,4.81 -0.32,-0.61 -0.67,-1.23 -1.26,-1.6 -0.18,-0.12 -0.4,-0.21 -0.61,-0.31 1.29,-1.42 0.66,-2.95 0.87,-3.79 0.23,-0.92 1.3,-1.15 1.72,-0.34 -0.09,0.33 -0.26,0.73 -0.41,1.23 z"
       style="opacity:0.65;fill:url(#linear-gradient-38);stroke-width:0.826658"
       id="path77" />
    <path
       d="m 21.13,20.77 c 0.16,-0.51 0.33,-0.9 0.42,-1.23 0.04,-0.12 -0.12,-0.61 -0.56,-0.82 -0.41,-0.2 -0.88,-0.22 -1.34,-0.22 -0.54,0 -1.08,0.62 -1.62,0.7 0.19,0.64 0.09,0.78 -0.27,1.34 -0.08,0.12 -0.17,0.25 -0.3,0.32 -0.12,0.07 -0.26,0.09 -0.38,0.16 -0.25,0.16 -0.3,0.49 -0.24,0.77 0.1,0.51 0.31,0.72 0.73,1.04 0.39,0.3 0.81,0.56 1.25,0.77 0.25,0.12 0.51,0.22 0.74,0.37 0.6,0.38 0.95,1.02 1.28,1.63 -0.38,-1.57 -0.2,-3.32 0.28,-4.85 z"
       style="fill:none;stroke:#555753;stroke-width:0.413329px;stroke-miterlimit:10"
       id="path78" />
    <g
       id="g88"
       style="stroke-width:0.826658">
      <path
         d="m 25.81,17.78 c 0,0 2.03,2.25 3.96,3.57 1.93,1.32 6.38,4.39 6.38,4.39 l 2.57,-0.5 -12.92,-7.46 z"
         style="fill:url(#linear-gradient-39);stroke-width:0.826658"
         id="path79" />
      <path
         d="m 23.66,19.02 c 0,0 2.03,2.25 3.96,3.57 1.93,1.32 6.38,4.39 6.38,4.39 l 2.57,-0.5 -12.92,-7.46 z"
         style="opacity:0.8;fill:url(#linear-gradient-40);stroke-width:0.826658"
         id="path80" />
      <path
         d="m 21.5,20.27 c 0,0 2.03,2.25 3.96,3.57 1.93,1.32 6.38,4.39 6.38,4.39 l 2.57,-0.5 -12.92,-7.46 z"
         style="opacity:0.8;fill:url(#linear-gradient-41);stroke-width:0.826658"
         id="path81" />
      <path
         d="m 19.35,21.51 c 0,0 2.03,2.25 3.96,3.57 1.93,1.32 7.41,4.79 7.41,4.79 l 1.55,-0.89 -12.92,-7.46 z"
         style="opacity:0.95;fill:url(#linear-gradient-42);stroke-width:0.826658"
         id="path82" />
      <g
         id="g87"
         style="stroke-width:0.826658">
        <circle
           cx="36.44"
           cy="30.3"
           r="5.32"
           style="fill:#babdb6;stroke-width:0.826658"
           id="circle82" />
        <circle
           cx="36.44"
           cy="30.3"
           r="5.32"
           style="opacity:0.65;fill:url(#radialGradient95);stroke-width:0.826658"
           id="circle83" />
        <circle
           cx="36.44"
           cy="30.3"
           r="5.32"
           style="opacity:0.65;fill:url(#radialGradient96);stroke-width:0.826658"
           id="circle84" />
        <circle
           cx="36.44"
           cy="30.3"
           r="5.32"
           style="opacity:0.65;fill:url(#radial-gradient-3);stroke-width:0.826658"
           id="circle85" />
        <path
           d="m 32.62,30.82 c 0.25,1.96 1.87,3.47 3.83,3.47 1.82,0 3.3,-1.31 3.75,-3.05 0.36,-1.39 -0.2,-2.13 -0.52,-2.33 -0.41,-0.26 -0.62,0.33 -0.77,0.61 -0.24,0.46 -0.53,0.91 -0.98,1.18 -0.52,0.32 -1.19,0.54 -1.8,0.49 -0.68,-0.06 -1.41,-0.32 -1.85,-0.89 -0.36,-0.47 -0.31,-1.57 -1.07,-1.52 -0.25,0.02 -0.67,0.64 -0.58,2.04 z"
           style="opacity:0.77;fill:url(#linear-gradient-43);stroke-width:0.826658"
           id="path85" />
        <path
           d="m 32.62,30.82 c 0.25,1.96 1.87,3.47 3.83,3.47 1.82,0 3.34,-1.3 3.75,-3.05 0.03,-0.14 0.04,-0.58 -0.28,-0.79 -0.31,-0.19 -0.72,0.17 -0.8,0.29 -0.45,0.65 -1.25,1.9 -2.85,1.73 -1.9,-0.2 -2.41,-1.23 -2.63,-1.51 -0.1,-0.14 -0.34,-0.53 -0.57,-0.61 -0.23,-0.08 -0.47,0.15 -0.46,0.46 z"
           style="fill:url(#linear-gradient-44);stroke-width:0.826658"
           id="path86" />
        <path
           d="m 36.81,27.67 c -0.84,-0.09 -1.54,0.41 -1.68,0.85 -0.14,0.44 0.63,1.3 1.7,1.34 0.56,0.02 1.24,-0.44 1.31,-1.02 0.09,-0.75 -0.73,-1.12 -1.33,-1.18 z"
           style="opacity:0.65;fill:url(#linear-gradient-45);stroke-width:0.826658"
           id="path87" />
      </g>
      <circle
         cx="36.44"
         cy="30.3"
         r="5.32"
         style="fill:none;stroke:#555753;stroke-width:0.578661px;stroke-miterlimit:10"
         id="circle87" />
    </g>
  </g>
</svg>
