<?xml version="1.0" encoding="UTF-8" standalone="no"?>
<svg
   viewBox="0 0 48 48"
   version="1.1"
   id="svg1510"
   sodipodi:docname="vellum_fluid.svg"
   inkscape:version="1.1 (c68e22c387, 2021-05-23)"
   xmlns:inkscape="http://www.inkscape.org/namespaces/inkscape"
   xmlns:sodipodi="http://sodipodi.sourceforge.net/DTD/sodipodi-0.dtd"
   xmlns:xlink="http://www.w3.org/1999/xlink"
   xmlns="http://www.w3.org/2000/svg"
   xmlns:svg="http://www.w3.org/2000/svg">
  <sodipodi:namedview
     id="namedview1512"
     pagecolor="#ffffff"
     bordercolor="#666666"
     borderopacity="1.0"
     inkscape:pageshadow="2"
     inkscape:pageopacity="0.0"
     inkscape:pagecheckerboard="0"
     showgrid="false"
     inkscape:zoom="15.633536"
     inkscape:cx="23.826982"
     inkscape:cy="22.803542"
     inkscape:window-width="2880"
     inkscape:window-height="1557"
     inkscape:window-x="-8"
     inkscape:window-y="-8"
     inkscape:window-maximized="1"
     inkscape:current-layer="svg1510" />
  <defs
     id="defs1424">
    <linearGradient
       inkscape:collect="always"
       id="linearGradient3034">
      <stop
         style="stop-color:#000000;stop-opacity:0.39485982"
         offset="0"
         id="stop3030" />
      <stop
         style="stop-color:#000000;stop-opacity:0;"
         offset="1"
         id="stop3032" />
    </linearGradient>
    <style
       id="style1338">.cls-1,.cls-12,.cls-15,.cls-20,.cls-21,.cls-22,.cls-36,.cls-9{fill:none;}.cls-2{isolation:isolate;}.cls-3{fill:url(#radial-gradient);}.cls-4{fill:url(#linear-gradient);}.cls-5{fill:url(#linear-gradient-2);}.cls-6{fill:url(#linear-gradient-3);}.cls-7{fill:url(#linear-gradient-4);}.cls-11,.cls-14,.cls-16,.cls-8{mix-blend-mode:multiply;opacity:0.79;}.cls-8{fill:url(#linear-gradient-5);}.cls-12,.cls-15,.cls-20,.cls-21,.cls-22,.cls-36,.cls-9{stroke-linecap:round;stroke-linejoin:round;}.cls-12,.cls-15,.cls-20,.cls-36,.cls-9{stroke-width:0.7px;}.cls-9{stroke:url(#linear-gradient-6);}.cls-10{fill:url(#linear-gradient-7);}.cls-11{fill:url(#linear-gradient-8);}.cls-12{stroke:url(#linear-gradient-9);}.cls-13{fill:url(#linear-gradient-10);}.cls-14{fill:url(#linear-gradient-11);}.cls-15{stroke:url(#linear-gradient-12);}.cls-16{fill:url(#linear-gradient-13);}.cls-17{fill:url(#linear-gradient-14);}.cls-18{fill:url(#linear-gradient-15);}.cls-19{fill:url(#linear-gradient-16);}.cls-20{stroke:url(#linear-gradient-17);}.cls-21,.cls-22{stroke-width:0.35px;}.cls-21{stroke:url(#linear-gradient-18);}.cls-22{stroke:url(#linear-gradient-19);}.cls-23{fill:url(#linear-gradient-20);}.cls-24{fill:url(#linear-gradient-21);}.cls-25{fill:url(#linear-gradient-22);}.cls-26{fill:url(#linear-gradient-23);}.cls-27{fill:url(#linear-gradient-24);}.cls-28{fill:url(#linear-gradient-25);}.cls-29{fill:url(#linear-gradient-26);}.cls-30{fill:url(#linear-gradient-27);}.cls-31{clip-path:url(#clip-path);}.cls-32{fill:url(#linear-gradient-28);}.cls-33{fill:url(#linear-gradient-30);}.cls-34{fill:url(#linear-gradient-31);}.cls-35{fill:#231f20;}.cls-36{stroke:url(#linear-gradient-32);}.cls-37{fill:url(#linear-gradient-33);}</style>
    <radialGradient
       id="radial-gradient"
       cx="-83.2"
       cy="111.61"
       r="13.05"
       gradientTransform="matrix(1.32,0,0,0.35,127.15,2.31)"
       gradientUnits="userSpaceOnUse" />
    <linearGradient
       id="linear-gradient"
       x1="41.67"
       y1="9.21"
       x2="41.56"
       y2="11.47"
       gradientUnits="userSpaceOnUse">
      <stop
         offset="0.01"
         stop-color="#befafc"
         id="stop1345" />
      <stop
         offset="0.47"
         stop-color="#31e8ef"
         id="stop1347" />
      <stop
         offset="1"
         stop-color="#134a4c"
         id="stop1349" />
    </linearGradient>
    <linearGradient
       id="linear-gradient-2"
       x1="35.34"
       y1="6.95"
       x2="35.51"
       y2="10.97"
       xlink:href="#linear-gradient" />
    <linearGradient
       id="linear-gradient-3"
       x1="6.44"
       y1="4.4"
       x2="6.88"
       y2="4.4"
       gradientTransform="translate(9.54 22.79) rotate(30)"
       gradientUnits="userSpaceOnUse">
      <stop
         offset="0"
         stop-color="#232729"
         id="stop1353" />
      <stop
         offset="1"
         stop-color="#edeeeb"
         id="stop1355" />
    </linearGradient>
    <linearGradient
       id="linear-gradient-4"
       x1="6.34"
       y1="18.56"
       x2="6.34"
       y2="9.42"
       gradientTransform="rotate(90,-4.255,24.645)"
       xlink:href="#linear-gradient-3" />
    <linearGradient
       id="linear-gradient-5"
       x1="12.28"
       y1="34.5"
       x2="12.8"
       y2="40.11"
       gradientUnits="userSpaceOnUse">
      <stop
         offset="0"
         stop-color="#314d7c"
         id="stop1359" />
      <stop
         offset="1"
         stop-color="#c2eeec"
         stop-opacity="0.4"
         id="stop1361" />
    </linearGradient>
    <linearGradient
       id="linear-gradient-6"
       x1="-1.09"
       y1="10.72"
       x2="13.78"
       y2="10.72"
       gradientTransform="translate(20.39 28.9) rotate(90)"
       gradientUnits="userSpaceOnUse">
      <stop
         offset="0"
         stop-color="#555753"
         id="stop1364" />
      <stop
         offset="1"
         stop-color="#888a85"
         id="stop1366" />
    </linearGradient>
    <linearGradient
       id="linear-gradient-7"
       x1="27.38"
       y1="32.9"
       x2="12.64"
       y2="22.37"
       xlink:href="#linear-gradient-3" />
    <linearGradient
       id="linear-gradient-8"
       x1="21.34"
       y1="20.06"
       x2="10.71"
       y2="28.93"
       gradientUnits="userSpaceOnUse">
      <stop
         offset="0"
         stop-color="#314d7c"
         id="stop1370" />
      <stop
         offset="1"
         stop-color="#c2eeec"
         id="stop1372" />
    </linearGradient>
    <linearGradient
       id="linear-gradient-9"
       x1="-3.9"
       y1="-1.12"
       x2="16.59"
       y2="-1.12"
       gradientTransform="rotate(30,-37.756719,29.196882)"
       xlink:href="#linear-gradient-6" />
    <linearGradient
       id="linear-gradient-10"
       x1="-11.73"
       y1="-13.24"
       x2="5.58"
       y2="-13.24"
       gradientTransform="rotate(90,0.13,8.28)"
       xlink:href="#linear-gradient-3" />
    <linearGradient
       id="linear-gradient-11"
       x1="28.16"
       y1="21.96"
       x2="24.36"
       y2="11.88"
       xlink:href="#linear-gradient-5" />
    <linearGradient
       id="linear-gradient-12"
       x1="-4.38"
       y1="-13.24"
       x2="17.06"
       y2="-13.24"
       gradientTransform="rotate(90,0.13,8.28)"
       xlink:href="#linear-gradient-6" />
    <linearGradient
       id="linear-gradient-13"
       x1="14.19"
       y1="13.09"
       x2="20.17"
       y2="10.84"
       xlink:href="#linear-gradient-5" />
    <linearGradient
       id="linear-gradient-14"
       x1="5.34"
       y1="13.17"
       x2="2.49"
       y2="9.49"
       gradientTransform="rotate(30,-37.756719,29.196882)"
       gradientUnits="userSpaceOnUse">
      <stop
         offset="0"
         stop-color="#fff"
         stop-opacity="0"
         id="stop1380" />
      <stop
         offset="1"
         stop-color="#fff8f8"
         id="stop1382" />
    </linearGradient>
    <linearGradient
       id="linear-gradient-15"
       x1="30.04"
       y1="14.09"
       x2="30.48"
       y2="23.56"
       xlink:href="#linear-gradient" />
    <linearGradient
       id="linear-gradient-16"
       x1="29.55"
       y1="12.6"
       x2="30.43"
       y2="24.98"
       gradientUnits="userSpaceOnUse">
      <stop
         offset="0"
         stop-color="#31e8ef"
         id="stop1386" />
      <stop
         offset="1"
         stop-color="#134a4c"
         id="stop1388" />
    </linearGradient>
    <linearGradient
       id="linear-gradient-17"
       x1="45.92"
       y1="18.01"
       x2="14.59"
       y2="18.01"
       xlink:href="#linear-gradient-16" />
    <linearGradient
       id="linear-gradient-18"
       x1="42.82"
       y1="9.49"
       x2="40.49"
       y2="9.49"
       xlink:href="#linear-gradient-16" />
    <linearGradient
       id="linear-gradient-19"
       x1="39.37"
       y1="8.52"
       x2="31.5"
       y2="8.52"
       xlink:href="#linear-gradient-16" />
    <linearGradient
       id="linear-gradient-20"
       x1="22.52"
       y1="16.75"
       x2="22.14"
       y2="19.4"
       xlink:href="#linear-gradient-16" />
    <linearGradient
       id="linear-gradient-21"
       x1="16.04"
       y1="19.44"
       x2="20.86"
       y2="19.44"
       gradientUnits="userSpaceOnUse">
      <stop
         offset="0"
         stop-color="#729fcf"
         id="stop1395" />
      <stop
         offset="1"
         stop-color="#eeeeec"
         id="stop1397" />
    </linearGradient>
    <linearGradient
       id="linear-gradient-22"
       x1="28.67"
       y1="14.81"
       x2="28.99"
       y2="17.36"
       xlink:href="#linear-gradient-16" />
    <linearGradient
       id="linear-gradient-23"
       x1="36.26"
       y1="13.25"
       x2="36.13"
       y2="17.46"
       xlink:href="#linear-gradient-16" />
    <linearGradient
       id="linear-gradient-24"
       x1="23.19"
       y1="16.22"
       x2="24"
       y2="17.87"
       gradientUnits="userSpaceOnUse">
      <stop
         offset="0"
         stop-color="#eeeeec"
         id="stop1402" />
      <stop
         offset="1"
         stop-color="#bdfafb"
         id="stop1404" />
    </linearGradient>
    <linearGradient
       id="linear-gradient-25"
       x1="33.84"
       y1="13.81"
       x2="34.48"
       y2="15.14"
       xlink:href="#linear-gradient-24" />
    <linearGradient
       id="linear-gradient-26"
       x1="39.33"
       y1="14.2"
       x2="38.07"
       y2="15.73"
       xlink:href="#linear-gradient-24" />
    <linearGradient
       id="linear-gradient-27"
       x1="43.83"
       y1="15.44"
       x2="42.24"
       y2="18.91"
       xlink:href="#linear-gradient-16" />
    <clipPath
       id="clip-path">
      <path
         class="cls-1"
         d="M29.45,20.64,16.11,26.21a.94.94,0,0,0-.42.37L11.41,34a.89.89,0,0,1-1.66-.45.85.85,0,0,1,.12-.43l4.29-7.43a.9.9,0,0,0,.11-.56L12.43,10.82c.33,2.19,3.06,5.23,7,7.5S27.37,21.45,29.45,20.64Z"
         id="path1410" />
    </clipPath>
    <linearGradient
       id="linear-gradient-28"
       x1="28.32"
       y1="13.91"
       x2="30.26"
       y2="19.52"
       gradientUnits="userSpaceOnUse">
      <stop
         offset="0"
         stop-color="#96f7fa"
         id="stop1413" />
      <stop
         offset="0.37"
         stop-color="#31e8ef"
         id="stop1415" />
      <stop
         offset="1"
         stop-color="#134a4c"
         id="stop1417" />
    </linearGradient>
    <linearGradient
       id="linear-gradient-30"
       x1="19.9"
       y1="18.12"
       x2="21.54"
       y2="20.22"
       xlink:href="#linear-gradient-16" />
    <linearGradient
       id="linear-gradient-31"
       x1="16.12"
       y1="19.4"
       x2="20.94"
       y2="19.4"
       xlink:href="#linear-gradient-24" />
    <linearGradient
       id="linear-gradient-32"
       x1="12.08"
       y1="15.88"
       x2="29.8"
       y2="15.88"
       xlink:href="#linear-gradient-6" />
    <linearGradient
       id="linear-gradient-33"
       x1="37.03"
       y1="6.92"
       x2="38.1"
       y2="9.15"
       gradientTransform="rotate(-5.53,36.663225,10.072285)"
       xlink:href="#linear-gradient-24" />
    <linearGradient
       inkscape:collect="always"
       xlink:href="#linear-gradient"
       id="linearGradient1571"
       gradientUnits="userSpaceOnUse"
       x1="41.67"
       y1="9.21"
       x2="41.56"
       y2="11.47" />
    <linearGradient
       inkscape:collect="always"
       xlink:href="#linear-gradient-3"
       id="linearGradient1573"
       gradientUnits="userSpaceOnUse"
       gradientTransform="rotate(30,-37.756719,29.196882)"
       x1="6.44"
       y1="4.4"
       x2="6.88"
       y2="4.4" />
    <linearGradient
       inkscape:collect="always"
       xlink:href="#linear-gradient-5"
       id="linearGradient1575"
       gradientUnits="userSpaceOnUse"
       x1="12.28"
       y1="34.5"
       x2="12.8"
       y2="40.11" />
    <linearGradient
       inkscape:collect="always"
       xlink:href="#linear-gradient-6"
       id="linearGradient1577"
       gradientUnits="userSpaceOnUse"
       gradientTransform="rotate(90,-4.255,24.645)"
       x1="-1.09"
       y1="10.72"
       x2="13.78"
       y2="10.72" />
    <linearGradient
       inkscape:collect="always"
       xlink:href="#linear-gradient-16"
       id="linearGradient1579"
       gradientUnits="userSpaceOnUse"
       x1="29.55"
       y1="12.6"
       x2="30.43"
       y2="24.98" />
    <linearGradient
       inkscape:collect="always"
       xlink:href="#linear-gradient-16"
       id="linearGradient1581"
       x1="45.92"
       y1="18.01"
       x2="14.59"
       y2="18.01" />
    <linearGradient
       inkscape:collect="always"
       xlink:href="#linear-gradient-24"
       id="linearGradient1583"
       gradientUnits="userSpaceOnUse"
       x1="23.19"
       y1="16.22"
       x2="24"
       y2="17.87" />
    <radialGradient
       inkscape:collect="always"
       xlink:href="#linearGradient3034"
       id="radialGradient3036"
       cx="17.25"
       cy="40.900002"
       fx="17.25"
       fy="40.900002"
       r="16.559999"
       gradientTransform="matrix(1,0,0,0.26268114,0,30.156342)"
       gradientUnits="userSpaceOnUse" />
  </defs>
  <g
     id="shadow"
     style="isolation:isolate;stroke-width:0.94632"
     transform="matrix(1.0566999,0,0,1.0567498,-0.49235854,0.1163909)">
    <path
       id="ellipse1426"
       style="fill:url(#radialGradient3036);fill-opacity:1"
       class="cls-3"
       d="M 33.809999,40.900002 A 16.559999,4.3499999 0 0 1 17.25,45.250001 16.559999,4.3499999 0 0 1 0.69000053,40.900002 16.559999,4.3499999 0 0 1 17.25,36.550002 a 16.559999,4.3499999 0 0 1 16.559999,4.35 z" />
  </g>
  <g
     id="ART"
     style="isolation:isolate;stroke-width:0.894175"
     transform="matrix(1.1182026,0,0,1.1184956,-3.2971378,-3.2945883)">
    <path
       class="cls-4"
       d="m 40.72,9.21 a 1.08,1.08 0 0 1 1.67,-0.13 c 0.38,0.5 0.39,0.88 -0.31,1.11 -0.7,0.23 -1.64,-0.53 -1.36,-0.98 z"
       id="path1429"
       style="fill:url(#linearGradient1571);stroke-width:0.894175" />
    <path
       class="cls-5"
       d="m 32.8,9.92 c 0.64,-1 1.87,-2.19 2.72,-2.25 0.85,-0.06 1.89,0.84 2.74,1 0.85,0.16 1.16,-0.29 0.76,-1 a 2,2 0 0 0 -2,-1.24 7,7 0 0 0 -2.91,0.69 3.94,3.94 0 0 0 -2.1,2 c -0.28,0.68 -0.4,1.33 -0.19,1.47 0.21,0.14 0.63,-0.11 0.98,-0.67 z"
       id="path1431"
       style="fill:url(#linear-gradient-2);stroke-width:0.894175" />
    <path
       class="cls-6"
       d="m 15.58,26.65 a 2.28,2.28 0 0 0 -1.24,1.08 l -2.91,5.05 c -0.37,0.63 -0.2,0.85 0,0.82 0.2,-0.03 0.25,-0.13 0.6,-0.74 l 3.09,-5.34 z"
       id="path1433"
       style="fill:url(#linearGradient1573);stroke-width:0.894175" />
    <ellipse
       class="cls-7"
       cx="9.6700001"
       cy="35.25"
       rx="3.02"
       ry="7.0900002"
       transform="rotate(-60,9.6716605,35.248193)"
       id="ellipse1435"
       style="fill:url(#linear-gradient-4);stroke-width:0.894175" />
    <path
       class="cls-8"
       d="m 10.75,38.26 a 3.64,3.64 0 0 0 2.12,-0.44 c 0.7,-0.56 -1.07,-2.19 -2.16,-2.87 -1.09,-0.68 0.36,-1.28 0.36,-1.28 a 9.26,9.26 0 0 1 3.15,2.85 c 0.89,1.62 -0.1,2.56 -3.47,1.74 z"
       id="path1437"
       style="fill:url(#linearGradient1575);stroke-width:0.894175" />
    <ellipse
       class="cls-9"
       cx="9.6700001"
       cy="35.25"
       rx="3.02"
       ry="7.0900002"
       transform="rotate(-60,9.6716605,35.248193)"
       id="ellipse1439"
       style="stroke:url(#linearGradient1577)" />
    <path
       class="cls-10"
       d="m 29.45,20.64 -13.34,5.57 a 0.94,0.94 0 0 0 -0.42,0.37 L 11.41,34 A 0.89,0.89 0 0 1 9.75,33.55 0.85,0.85 0 0 1 9.87,33.12 l 4.29,-7.43 a 0.9,0.9 0 0 0 0.11,-0.56 L 12.43,10.82 c 0.33,2.19 3.06,5.23 7,7.5 3.94,2.27 7.94,3.13 10.02,2.32 z"
       id="path1441"
       style="fill:url(#linear-gradient-7);stroke-width:0.894175" />
    <path
       class="cls-11"
       d="m 10.19,34.34 5.31,-9.19 c 0.7,-1.22 -0.08,-3.32 -0.24,-5.4 -0.16,-2.08 2.42,0.49 3.16,2 0.74,1.51 3.53,0.6 3.53,0.6 0,0 -4.42,2 -5.31,3 -0.89,1 -4.6,8 -5.08,8.8 -0.48,0.8 -1.37,0.19 -1.37,0.19 z"
       id="path1443"
       style="fill:url(#linear-gradient-8);stroke-width:0.894175" />
    <path
       class="cls-12"
       d="m 29.56,20.59 -13.44,5.62 a 0.86,0.86 0 0 0 -0.43,0.37 L 11.4,34 a 0.88,0.88 0 0 1 -1.21,0.33 v 0 A 0.89,0.89 0 0 1 9.87,33.12 l 4.29,-7.43 a 0.85,0.85 0 0 0 0.11,-0.56 L 12.42,10.69"
       id="path1445"
       style="stroke:url(#linear-gradient-9)" />
    <ellipse
       class="cls-13"
       cx="21.65"
       cy="14.49"
       rx="4.4200001"
       ry="10.37"
       transform="rotate(-60,21.65166,14.498224)"
       id="ellipse1447"
       style="fill:url(#linear-gradient-10);stroke-width:0.894175" />
    <path
       class="cls-14"
       d="m 27.26,20.77 c 1.1,-0.19 3.21,-1.1 2,-3.59 -1.21,-2.49 -5.29,-5 -5.29,-5 0,0 2.56,2.71 1.7,4.4 a 11.61,11.61 0 0 0 -1,3.88"
       id="path1449"
       style="fill:url(#linear-gradient-11);stroke-width:0.894175" />
    <ellipse
       class="cls-15"
       cx="21.65"
       cy="14.49"
       rx="4.4200001"
       ry="10.37"
       transform="rotate(-60,21.65166,14.498224)"
       id="ellipse1451"
       style="stroke:url(#linear-gradient-12)" />
    <path
       class="cls-16"
       d="m 16.77,15.39 a 12.28,12.28 0 0 1 -3.1,-3.81 1.32,1.32 0 0 1 0.67,-1.78 c 1.24,-0.73 3.33,-0.16 4,0.14 0.67,0.3 -1,0.94 -2,1.25 -1,0.31 -0.81,2.73 0.43,4.2 z"
       id="path1453"
       style="fill:url(#linear-gradient-13);stroke-width:0.894175" />
    <path
       class="cls-17"
       d="M 9.33,32.59 C 7.33,31.86 5.43,31.31 4.86,31.98 4.29,32.65 5,34.22 7.08,35.73 9.16,37.24 9.45,36.05 8.84,35.47 8.23,34.89 5.63,33.4 6,32.63 6.37,31.86 9.33,32.59 9.33,32.59 Z"
       id="path1455"
       style="fill:url(#linear-gradient-14);stroke-width:0.894175" />
    <path
       class="cls-18"
       d="m 44.08,16.79 c -1.1,-0.62 -2.89,-0.55 -3.42,-1.38 -0.33,-0.52 -0.39,-1.17 -0.67,-1.71 a 3.18,3.18 0 0 0 -2.63,-1.39 7.65,7.65 0 0 0 -3.61,0.36 c -1.45,0.51 -2.68,1.48 -4.12,2 -1.29,0.48 -3.35,1.31 -4.4,0.71 -1.05,-0.6 -1.61,-1.14 -3,-0.24 -1.39,0.9 -1.93,3.44 -4.23,4.07 a 2.8,2.8 0 0 1 -3,-0.95 l 0.39,3 a 4.68,4.68 0 0 0 0.18,0.48 c 0.58,1.42 0.59,2.11 1.75,2.06 a 5.93,5.93 0 0 0 1.21,-0.24 l 7.17,-3 A 6.41,6.41 0 0 1 29,17.68 c 2.53,-0.94 4.12,-0.6 4.78,0.08 a 2.14,2.14 0 0 0 2.55,0.5 c 1,-0.45 0.94,-1 2.71,-1 1.77,0 2.44,1.27 3,2.07 0.56,0.8 1.83,1.87 3,1 1.17,-0.87 0.14,-2.93 -0.96,-3.54 z"
       id="path1457"
       style="fill:url(#linear-gradient-15);stroke-width:0.894175" />
    <path
       class="cls-19"
       d="m 45.07,20.3 v 0 c -1.18,0.9 -2.48,-0.17 -3,-1 -0.52,-0.83 -1.21,-2.1 -3,-2.08 -1.79,0.02 -1.71,0.53 -2.71,1 a 2.14,2.14 0 0 1 -2.55,-0.5 c -0.65,-0.69 -2.25,-1 -4.79,-0.08 a 6.37,6.37 0 0 0 -3.39,2.88 l -7.17,3 a 6.06,6.06 0 0 1 -1.21,0.24 C 16.09,23.81 16.08,23.12 15.5,21.7 L 15.31,21.22 15,18.89 c 0.05,-0.12 0.1,-0.23 0.16,-0.35 a 6.78,6.78 0 0 0 0.6,1.83 2.3,2.3 0 0 0 1.46,1.17 2.93,2.93 0 0 0 2.45,-1.14 6.45,6.45 0 0 1 2.13,-1.77 c 0.89,-0.33 1.93,-0.13 2.77,-0.57 a 6.23,6.23 0 0 0 1.2,-1 5.44,5.44 0 0 1 3.77,-1.43 c 1.53,0.05 3,0.74 4.53,0.65 0.65,0 1.3,-0.23 1.94,-0.27 a 13.83,13.83 0 0 1 2.94,0.22 c 2.11,0.41 3.77,1 4.88,2.88 a 3.4,3.4 0 0 0 0.78,1.08 0.8,0.8 0 0 0 0.46,0.11 z"
       id="path1459"
       style="fill:url(#linearGradient1579);stroke-width:0.894175" />
    <path
       class="cls-20"
       d="m 44.08,16.79 c -1.1,-0.62 -2.89,-0.55 -3.42,-1.38 -0.33,-0.52 -0.39,-1.17 -0.67,-1.71 a 3.18,3.18 0 0 0 -2.63,-1.39 7.65,7.65 0 0 0 -3.61,0.36 c -1.45,0.51 -2.68,1.48 -4.12,2 -1.29,0.48 -3.35,1.31 -4.4,0.71 -1.05,-0.6 -1.61,-1.14 -3,-0.24 -1.39,0.9 -1.93,3.44 -4.23,4.07 a 2.8,2.8 0 0 1 -3,-0.95 l 0.28,2.19 a 6.2,6.2 0 0 0 0.66,2.14 c 0.33,0.63 0.8,1.22 1.38,1.2 a 5.93,5.93 0 0 0 1.21,-0.24 l 7.17,-3 A 6.41,6.41 0 0 1 29,17.68 c 2.53,-0.94 4.12,-0.6 4.78,0.08 a 2.14,2.14 0 0 0 2.55,0.5 c 1,-0.45 0.94,-1 2.71,-1 1.77,0 2.44,1.27 3,2.07 0.56,0.8 1.83,1.87 3,1 1.17,-0.87 0.14,-2.93 -0.96,-3.54 z"
       id="path1461"
       style="stroke:url(#linearGradient1581)" />
    <path
       class="cls-21"
       d="m 40.72,9.21 a 1.08,1.08 0 0 1 1.67,-0.13 c 0.38,0.5 0.39,0.88 -0.31,1.11 -0.7,0.23 -1.64,-0.53 -1.36,-0.98 z"
       id="path1463"
       style="stroke:url(#linear-gradient-18)" />
    <path
       class="cls-22"
       d="m 32.8,9.92 c 0.64,-1 1.87,-2.19 2.72,-2.25 0.85,-0.06 1.89,0.84 2.74,1 0.85,0.16 1.16,-0.29 0.76,-1 a 2,2 0 0 0 -2,-1.24 7,7 0 0 0 -2.91,0.69 3.94,3.94 0 0 0 -2.1,2 c -0.28,0.68 -0.4,1.33 -0.19,1.47 0.21,0.14 0.63,-0.11 0.98,-0.67 z"
       id="path1465"
       style="stroke:url(#linear-gradient-19)" />
    <path
       class="cls-23"
       d="m 18.22,22.63 c 0.5,-0.51 1.07,-0.44 1.74,-0.72 a 8.74,8.74 0 0 0 2.09,-1.86 c 0.65,-0.68 1.57,-0.29 2.49,-0.53 0.92,-0.24 1.15,-0.62 1.15,-0.62 a 2.69,2.69 0 0 1 -1.7,0 2.79,2.79 0 0 0 -2.72,0.41 c -0.56,0.62 -0.71,1.76 -1.48,2 -0.77,0.24 -1.45,0.77 -1.57,1.32 z"
       id="path1467"
       style="fill:url(#linear-gradient-20);stroke-width:0.894175" />
    <path
       class="cls-24"
       d="m 16,20.08 a 2.39,2.39 0 0 0 2.61,0.54 3.8,3.8 0 0 0 2.21,-2.56 6.71,6.71 0 0 1 -2.68,2 3.72,3.72 0 0 1 -2.14,0.02 z"
       id="path1469"
       style="fill:url(#linear-gradient-21);stroke-width:0.894175" />
    <path
       class="cls-25"
       d="m 26.15,18.3 a 6,6 0 0 1 1.72,-1.69 6.65,6.65 0 0 1 3.13,-0.53 1.28,1.28 0 0 1 0.87,0.39 5.48,5.48 0 0 0 -3.18,0.39 6.07,6.07 0 0 0 -2.54,1.44 z"
       id="path1471"
       style="fill:url(#linear-gradient-22);stroke-width:0.894175" />
    <path
       class="cls-26"
       d="m 35.75,17.18 c 0.56,0 0.52,-0.91 1.14,-0.87 0.62,0.04 0.65,0.29 1.59,0.22 0.94,-0.07 0.4,-0.75 -0.35,-0.86 -0.75,-0.11 -0.43,-0.75 -1.71,-0.68 -1.28,0.07 -1.06,0.89 -2.25,0.9 -0.17,0 -0.75,0 -0.81,0.21 -0.14,0.57 1.2,0.49 1.46,0.57 0.42,0.14 0.65,0.49 0.93,0.51 z"
       id="path1473"
       style="fill:url(#linear-gradient-23);stroke-width:0.894175" />
    <path
       class="cls-27"
       d="m 25.44,16.47 c -1.14,0 -0.92,-0.4 -1.74,-0.68 -0.82,-0.28 -1.64,0.53 -1.86,1.23 -0.22,0.7 0.05,1 0.39,0.94 0.34,-0.06 0.53,-0.53 1,-1.15 0.47,-0.62 0.93,0.38 2.21,-0.34 z"
       id="path1475"
       style="fill:url(#linearGradient1583);stroke-width:0.894175" />
    <path
       class="cls-28"
       d="m 34.27,13.58 c -1.08,0.19 -1.85,0.91 -2.86,1.26 -1.01,0.35 0.5,0.79 1.57,0.3 1.07,-0.49 2.26,-1.71 4.07,-1.71 a 6,6 0 0 0 -2.78,0.15 z"
       id="path1477"
       style="fill:url(#linear-gradient-25);stroke-width:0.894175" />
    <path
       class="cls-29"
       d="m 38,13.73 c -0.4,0.18 0,1.09 0.63,1.31 A 3,3 0 0 1 39.79,15.88 7.94,7.94 0 0 0 39,14.36 c -0.39,-0.57 -0.84,-0.73 -1,-0.63 z"
       id="path1479"
       style="fill:url(#linear-gradient-26);stroke-width:0.894175" />
    <path
       class="cls-30"
       d="m 40.79,16.75 a 4.34,4.34 0 0 1 2.06,1.94 c 0.44,0.74 1.11,1.14 1.49,0.83 0.38,-0.31 0,-1.13 0,-1.13 0,0 -0.14,0.42 -0.67,-0.05 a 4.26,4.26 0 0 0 -2.88,-1.59 z"
       id="path1481"
       style="fill:url(#linear-gradient-27);stroke-width:0.894175" />
    <g
       class="cls-31"
       clip-path="url(#clip-path)"
       id="g1501"
       style="stroke-width:0.894175">
      <path
         class="cls-32"
         d="m 44.08,16.79 c -1.1,-0.62 -2.89,-0.55 -3.42,-1.38 -0.33,-0.52 -0.39,-1.17 -0.67,-1.71 a 3.18,3.18 0 0 0 -2.63,-1.39 7.65,7.65 0 0 0 -3.61,0.36 c -1.45,0.51 -2.68,1.48 -4.12,2 -1.29,0.48 -3.35,1.31 -4.4,0.71 -1.05,-0.6 -1.61,-1.14 -3,-0.24 -1.39,0.9 -1.93,3.44 -4.23,4.07 a 2.8,2.8 0 0 1 -3,-0.95 l 0.39,3 a 4.68,4.68 0 0 0 0.18,0.48 c 0.58,1.42 0.59,2.11 1.75,2.06 a 5.93,5.93 0 0 0 1.21,-0.24 l 7.17,-3 A 6.41,6.41 0 0 1 29,17.68 c 2.53,-0.94 4.12,-0.6 4.78,0.08 a 2.14,2.14 0 0 0 2.55,0.5 c 1,-0.45 0.94,-1 2.71,-1 1.77,0 2.44,1.27 3,2.07 0.56,0.8 1.83,1.87 3,1 1.17,-0.87 0.14,-2.93 -0.96,-3.54 z"
         id="path1483"
         style="fill:url(#linear-gradient-28);stroke-width:0.894175" />
      <path
         class="cls-20"
         d="m 44.08,16.79 c -1.1,-0.62 -2.89,-0.55 -3.42,-1.38 -0.33,-0.52 -0.39,-1.17 -0.67,-1.71 a 3.18,3.18 0 0 0 -2.63,-1.39 7.65,7.65 0 0 0 -3.61,0.36 c -1.45,0.51 -2.68,1.48 -4.12,2 -1.29,0.48 -3.35,1.31 -4.4,0.71 -1.05,-0.6 -1.61,-1.14 -3,-0.24 -1.39,0.9 -1.93,3.44 -4.23,4.07 a 2.8,2.8 0 0 1 -3,-0.95 l 0.28,2.19 a 6.2,6.2 0 0 0 0.66,2.14 c 0.33,0.63 0.8,1.22 1.38,1.2 a 5.93,5.93 0 0 0 1.21,-0.24 l 7.17,-3 A 6.41,6.41 0 0 1 29,17.68 c 2.53,-0.94 4.12,-0.6 4.78,0.08 a 2.14,2.14 0 0 0 2.55,0.5 c 1,-0.45 0.94,-1 2.71,-1 1.77,0 2.44,1.27 3,2.07 0.56,0.8 1.83,1.87 3,1 1.17,-0.87 0.14,-2.93 -0.96,-3.54 z"
         id="path1485"
         style="stroke:url(#linear-gradient-17)" />
      <path
         class="cls-33"
         d="m 18.22,22.63 c 0.5,-0.51 1.07,-0.44 1.74,-0.72 a 8.74,8.74 0 0 0 2.09,-1.86 c 0.65,-0.68 1.57,-0.29 2.49,-0.53 0.92,-0.24 1.15,-0.62 1.15,-0.62 a 2.69,2.69 0 0 1 -1.7,0 2.79,2.79 0 0 0 -2.72,0.41 c -0.56,0.62 -0.71,1.76 -1.48,2 -0.77,0.24 -1.45,0.77 -1.57,1.32 z"
         id="path1487"
         style="fill:url(#linear-gradient-30);stroke-width:0.894175" />
      <path
         class="cls-34"
         d="m 16.12,20 a 2.39,2.39 0 0 0 2.61,0.54 3.8,3.8 0 0 0 2.21,-2.54 6.8,6.8 0 0 1 -2.68,2 3.71,3.71 0 0 1 -2.14,0 z"
         id="path1489"
         style="fill:url(#linear-gradient-31);stroke-width:0.894175" />
      <path
         class="cls-35"
         d="m 26.34,18.12 a 6.45,6.45 0 0 1 1.86,-1.82 7.13,7.13 0 0 1 3.33,-0.57 1.39,1.39 0 0 1 0.94,0.42 5.93,5.93 0 0 0 -3.44,0.42 6.67,6.67 0 0 0 -2.69,1.55 z"
         id="path1491"
         style="stroke-width:0.894175" />
      <path
         class="cls-35"
         d="m 35.62,17 c 0.56,0 0.52,-0.9 1.13,-0.87 0.61,0.03 0.65,0.3 1.6,0.22 0.95,-0.08 0.39,-0.74 -0.36,-0.86 -0.75,-0.12 -0.42,-0.74 -1.71,-0.67 -1.29,0.07 -1.06,0.89 -2.24,0.89 -0.17,0 -0.75,0 -0.81,0.21 -0.14,0.58 1.19,0.49 1.46,0.58 0.42,0.1 0.65,0.5 0.93,0.5 z"
         id="path1493"
         style="stroke-width:0.894175" />
      <path
         class="cls-35"
         d="m 25.44,16.47 c -1.14,0 -0.92,-0.4 -1.74,-0.68 -0.82,-0.28 -1.64,0.53 -1.86,1.23 -0.22,0.7 0.05,1 0.39,0.94 0.34,-0.06 0.53,-0.53 1,-1.15 0.47,-0.62 0.93,0.38 2.21,-0.34 z"
         id="path1495"
         style="stroke-width:0.894175" />
      <path
         class="cls-35"
         d="m 38,13.73 c -0.4,0.18 0,1.09 0.63,1.31 A 3,3 0 0 1 39.79,15.88 7.94,7.94 0 0 0 39,14.36 c -0.39,-0.57 -0.84,-0.73 -1,-0.63 z"
         id="path1497"
         style="stroke-width:0.894175" />
      <path
         class="cls-35"
         d="m 40.79,16.75 a 4.34,4.34 0 0 1 2.06,1.94 c 0.44,0.74 1.11,1.14 1.49,0.83 0.38,-0.31 0,-1.13 0,-1.13 0,0 -0.14,0.42 -0.67,-0.05 a 4.26,4.26 0 0 0 -2.88,-1.59 z"
         id="path1499"
         style="stroke-width:0.894175" />
    </g>
    <path
       class="cls-36"
       d="m 12.43,10.82 c 0.33,2.19 3.06,5.23 7,7.5 3.94,2.27 7.93,3.13 10,2.32"
       id="path1503"
       style="stroke:url(#linear-gradient-32)" />
    <path
       class="cls-37"
       d="M 35.76,7.19 A 2.94,2.94 0 0 1 37.57,7 c 0.65,0.3 0.87,0.68 0.73,1 -0.14,0.32 -0.67,0 -1.08,-0.34 A 3.63,3.63 0 0 0 35.76,7.19 Z"
       id="path1505"
       style="fill:url(#linear-gradient-33);stroke-width:0.894175" />
  </g>
</svg>
