<?xml version="1.0" encoding="UTF-8" standalone="no"?>
<!-- Created with Inkscape (http://www.inkscape.org/) -->

<svg
   width="48"
   height="48"
   viewBox="0 0 12.7 12.7"
   version="1.1"
   id="svg1"
   xml:space="preserve"
   inkscape:version="1.3-dev (fdc7329b, 2022-05-31)"
   sodipodi:docname="volcano.svg"
   xmlns:inkscape="http://www.inkscape.org/namespaces/inkscape"
   xmlns:sodipodi="http://sodipodi.sourceforge.net/DTD/sodipodi-0.dtd"
   xmlns:xlink="http://www.w3.org/1999/xlink"
   xmlns="http://www.w3.org/2000/svg"
   xmlns:svg="http://www.w3.org/2000/svg"><sodipodi:namedview
     id="namedview1"
     pagecolor="#ffffff"
     bordercolor="#666666"
     borderopacity="1.0"
     inkscape:showpageshadow="2"
     inkscape:pageopacity="0.0"
     inkscape:pagecheckerboard="0"
     inkscape:deskcolor="#d1d1d1"
     inkscape:document-units="mm"
     showgrid="false"
     inkscape:zoom="13.455443"
     inkscape:cx="36.23069"
     inkscape:cy="36.862405"
     inkscape:window-width="2880"
     inkscape:window-height="1557"
     inkscape:window-x="-8"
     inkscape:window-y="-8"
     inkscape:window-maximized="1"
     inkscape:current-layer="layer1" /><defs
     id="defs1"><linearGradient
       inkscape:collect="always"
       id="linearGradient24"><stop
         style="stop-color:#d3d7cf;stop-opacity:1;"
         offset="0"
         id="stop18" /><stop
         style="stop-color:#d3d7cf;stop-opacity:0;"
         offset="1"
         id="stop24" /></linearGradient><linearGradient
       inkscape:collect="always"
       id="linearGradient17"><stop
         style="stop-color:#888a85;stop-opacity:1;"
         offset="0"
         id="stop16" /><stop
         style="stop-color:#888a85;stop-opacity:0;"
         offset="1"
         id="stop17" /></linearGradient><linearGradient
       inkscape:collect="always"
       id="linearGradient15"><stop
         style="stop-color:#babdb6;stop-opacity:1;"
         offset="0"
         id="stop14" /><stop
         style="stop-color:#babdb6;stop-opacity:0;"
         offset="1"
         id="stop15" /></linearGradient><radialGradient
       id="radial-gradient"
       cx="-122.48"
       cy="115.27"
       fx="-122.48"
       fy="115.27"
       r="9.1400003"
       gradientTransform="matrix(2.7,0,0,0.62,355.13,-29.75)"
       gradientUnits="userSpaceOnUse"><stop
         offset=".44"
         stop-color="#212121"
         stop-opacity=".4"
         id="stop1" /><stop
         offset=".97"
         stop-color="#212121"
         stop-opacity="0"
         id="stop2" /></radialGradient><linearGradient
       id="linear-gradient"
       x1="23.82"
       y1="24.940001"
       x2="23.82"
       y2="44.169998"
       gradientUnits="userSpaceOnUse"><stop
         offset=".12"
         stop-color="#c17d11"
         id="stop3" /><stop
         offset="1"
         stop-color="#6d4100"
         id="stop4" /></linearGradient><linearGradient
       id="linear-gradient-2"
       x1="23.790001"
       y1="5.04"
       x2="23.790001"
       y2="48.880001"
       gradientUnits="userSpaceOnUse"><stop
         offset=".11"
         stop-color="#c17d11"
         id="stop5" /><stop
         offset="1"
         stop-color="#6d4100"
         id="stop6" /></linearGradient><linearGradient
       id="linear-gradient-3"
       x1="23.09"
       y1="16.77"
       x2="23.09"
       y2="22.65"
       gradientUnits="userSpaceOnUse"><stop
         offset=".11"
         stop-color="#fce94f"
         id="stop7" /><stop
         offset="1"
         stop-color="#f57900"
         id="stop8" /></linearGradient><linearGradient
       id="linear-gradient-4"
       x1="23.219999"
       y1="17.77"
       x2="23.219999"
       y2="22.709999"
       gradientUnits="userSpaceOnUse"><stop
         offset=".21"
         stop-color="#fef7bb"
         id="stop9" /><stop
         offset=".39"
         stop-color="#fce94f"
         id="stop10" /><stop
         offset="1"
         stop-color="#f57900"
         id="stop11" /></linearGradient><linearGradient
       id="linear-gradient-5"
       x1="23.09"
       y1="26.33"
       x2="23.09"
       y2="19.84"
       gradientUnits="userSpaceOnUse"><stop
         offset="0"
         stop-color="#ef2929"
         id="stop12" /><stop
         offset="1"
         stop-color="#f57900"
         id="stop13" /></linearGradient><linearGradient
       id="linear-gradient-6"
       x1="161.41"
       y1="-504.48999"
       x2="161.49001"
       y2="-502.66"
       gradientTransform="matrix(0.22287398,-0.14258867,0.14258867,0.22287398,40.155673,139.84666)"
       xlink:href="#linear-gradient-3" /><linearGradient
       id="linear-gradient-7"
       x1="362.64999"
       y1="728.32001"
       x2="363.34"
       y2="729.94"
       gradientTransform="matrix(0.1753528,0.1981306,-0.1981306,0.1753528,89.048027,-195.42011)"
       xlink:href="#linear-gradient-3" /><linearGradient
       id="linear-gradient-8"
       x1="35.720001"
       y1="176.39999"
       x2="34.549999"
       y2="178.14"
       gradientTransform="matrix(0.26056371,0.04594441,-0.04594441,0.26056371,4.0241732,-45.017713)"
       xlink:href="#linear-gradient-3" /><linearGradient
       id="linear-gradient-9"
       x1="16.33"
       y1="11.65"
       x2="16.73"
       y2="13.58"
       xlink:href="#linear-gradient-3" /><radialGradient
       id="radial-gradient-1"
       cx="-122.48"
       cy="115.27"
       fx="-122.48"
       fy="115.27"
       r="9.1400003"
       gradientTransform="matrix(0.71437499,0,0,0.16404166,93.982505,-7.8411093)"
       gradientUnits="userSpaceOnUse"><stop
         offset=".44"
         stop-color="#212121"
         stop-opacity=".4"
         id="stop1-7" /><stop
         offset=".97"
         stop-color="#212121"
         stop-opacity="0"
         id="stop2-3" /></radialGradient><linearGradient
       id="linear-gradient-68"
       x1="23.82"
       y1="24.940001"
       x2="23.82"
       y2="44.169998"
       gradientUnits="userSpaceOnUse"
       gradientTransform="matrix(0.26458333,0,0,0.26458333,0.02102738,0.03024474)"><stop
         offset=".12"
         stop-color="#c17d11"
         id="stop3-2" /><stop
         offset="1"
         stop-color="#6d4100"
         id="stop4-9" /></linearGradient><linearGradient
       id="linear-gradient-2-4"
       x1="23.790001"
       y1="5.04"
       x2="23.790001"
       y2="48.880001"
       gradientUnits="userSpaceOnUse"
       gradientTransform="matrix(0.26458333,0,0,0.26458333,0.02102738,0.03024474)"><stop
         offset=".11"
         stop-color="#c17d11"
         id="stop5-2" /><stop
         offset="1"
         stop-color="#6d4100"
         id="stop6-7" /></linearGradient><linearGradient
       inkscape:collect="always"
       xlink:href="#linear-gradient-3"
       id="linearGradient1"
       gradientUnits="userSpaceOnUse"
       x1="23.09"
       y1="16.77"
       x2="23.09"
       y2="22.65"
       gradientTransform="matrix(0.26458333,0,0,0.26458333,0.02102738,0.03024474)" /><linearGradient
       id="linear-gradient-4-7"
       x1="23.219999"
       y1="17.77"
       x2="23.219999"
       y2="22.709999"
       gradientUnits="userSpaceOnUse"
       gradientTransform="matrix(0.26458333,0,0,0.26458333,0.02102738,0.03024474)"><stop
         offset=".21"
         stop-color="#fef7bb"
         id="stop9-0" /><stop
         offset=".39"
         stop-color="#fce94f"
         id="stop10-2" /><stop
         offset="1"
         stop-color="#f57900"
         id="stop11-9" /></linearGradient><linearGradient
       id="linear-gradient-5-8"
       x1="23.09"
       y1="26.33"
       x2="23.09"
       y2="19.84"
       gradientUnits="userSpaceOnUse"
       gradientTransform="matrix(0.26458333,0,0,0.26458333,0.02102738,0.03024474)"><stop
         offset="0"
         stop-color="#ef2929"
         id="stop12-4" /><stop
         offset="1"
         stop-color="#f57900"
         id="stop13-6" /></linearGradient><linearGradient
       id="linear-gradient-9-7"
       x1="16.33"
       y1="11.65"
       x2="16.73"
       y2="13.58"
       xlink:href="#linear-gradient-3"
       gradientTransform="matrix(0.26458333,0,0,0.26458333,0.02102738,0.03024474)" /><radialGradient
       inkscape:collect="always"
       xlink:href="#linearGradient7"
       id="radialGradient7"
       cx="41.312332"
       cy="-14.727643"
       fx="41.312332"
       fy="-14.727643"
       r="4.2515602"
       gradientTransform="matrix(1.0065295,0.054649,0.35336213,0.47795287,-31.364153,10.993805)"
       gradientUnits="userSpaceOnUse" /><linearGradient
       inkscape:collect="always"
       id="linearGradient7"><stop
         style="stop-color:#efe429;stop-opacity:1;"
         offset="0"
         id="stop6-76" /><stop
         style="stop-color:#ff7600;stop-opacity:1;"
         offset="0.5"
         id="stop8-9" /><stop
         style="stop-color:#ef2929;stop-opacity:1;"
         offset="1"
         id="stop7-7" /></linearGradient><radialGradient
       inkscape:collect="always"
       xlink:href="#linearGradient20"
       id="radialGradient20"
       cx="39.099312"
       cy="3.0099177"
       fx="39.099312"
       fy="3.0099177"
       r="0.9786306"
       gradientTransform="matrix(2.5453527,-1.7899479,1.4429983,2.0660174,-100.58898,66.850489)"
       gradientUnits="userSpaceOnUse" /><linearGradient
       inkscape:collect="always"
       id="linearGradient20"><stop
         style="stop-color:#fcfcfc;stop-opacity:1;"
         offset="0"
         id="stop19" /><stop
         style="stop-color:#fcf126;stop-opacity:1;"
         offset="0.15434083"
         id="stop21" /><stop
         style="stop-color:#fcc800;stop-opacity:1;"
         offset="0.36977491"
         id="stop22" /><stop
         style="stop-color:#fc0000;stop-opacity:1;"
         offset="0.70418006"
         id="stop23" /><stop
         style="stop-color:#4a1212;stop-opacity:1;"
         offset="1"
         id="stop20" /></linearGradient><linearGradient
       inkscape:collect="always"
       xlink:href="#linearGradient119"
       id="linearGradient120"
       x1="38.795902"
       y1="1.3178008"
       x2="39.117443"
       y2="2.751462"
       gradientUnits="userSpaceOnUse"
       gradientTransform="matrix(0.44367054,-0.32508163,0.32397548,0.44518537,-14.363668,15.108471)" /><linearGradient
       inkscape:collect="always"
       id="linearGradient119"><stop
         style="stop-color:#ef2929;stop-opacity:1;"
         offset="0"
         id="stop118" /><stop
         style="stop-color:#ef2929;stop-opacity:0;"
         offset="1"
         id="stop119" /></linearGradient><radialGradient
       inkscape:collect="always"
       xlink:href="#linearGradient20"
       id="radialGradient23"
       gradientUnits="userSpaceOnUse"
       gradientTransform="matrix(3.7021239,-2.4719122,2.6483758,3.8643708,-150.96981,87.712827)"
       cx="39.763958"
       cy="2.9169319"
       fx="39.763958"
       fy="2.9169319"
       r="0.9786306" /><linearGradient
       inkscape:collect="always"
       xlink:href="#linearGradient119"
       id="linearGradient122"
       x1="41.92276"
       y1="0.24272399"
       x2="41.504375"
       y2="2.7695825"
       gradientUnits="userSpaceOnUse"
       gradientTransform="matrix(0.48584901,-0.35018175,0.35477489,0.47955891,-17.0557,15.134054)" /><radialGradient
       inkscape:collect="always"
       xlink:href="#linearGradient20"
       id="radialGradient25"
       gradientUnits="userSpaceOnUse"
       gradientTransform="matrix(2.0956157,0.09335709,-0.07303516,1.686044,-75.419329,-6.8119946)"
       cx="40.602661"
       cy="4.1408439"
       fx="40.602661"
       fy="4.1408439"
       r="0.9786306" /><linearGradient
       inkscape:collect="always"
       xlink:href="#linearGradient119"
       id="linearGradient126"
       x1="47.199356"
       y1="6.6580601"
       x2="45.536263"
       y2="6.8935351"
       gradientUnits="userSpaceOnUse"
       gradientTransform="matrix(0.37063389,0.00933751,-0.00875621,0.36864731,-8.069563,1.0649966)" /><radialGradient
       inkscape:collect="always"
       xlink:href="#linearGradient20"
       id="radialGradient24"
       gradientUnits="userSpaceOnUse"
       gradientTransform="matrix(2.9908205,-0.7880555,0.68246253,2.3874736,-114.84669,25.430558)"
       cx="40.297699"
       cy="3.6416595"
       fx="40.297699"
       fy="3.6416595"
       r="0.9786306" /><linearGradient
       inkscape:collect="always"
       xlink:href="#linearGradient119"
       id="linearGradient124"
       x1="45.518669"
       y1="4.3403335"
       x2="44.188282"
       y2="5.032114"
       gradientUnits="userSpaceOnUse"
       gradientTransform="matrix(0.52562044,-0.14939874,0.15936204,0.51885108,-16.455428,6.9165479)" /><radialGradient
       inkscape:collect="always"
       xlink:href="#linearGradient2"
       id="radialGradient55"
       gradientUnits="userSpaceOnUse"
       gradientTransform="matrix(-0.53888863,0.55441563,-0.53801057,-0.74192599,42.348513,-0.30155318)"
       cx="33.753899"
       cy="12.714036"
       fx="33.753899"
       fy="12.714036"
       r="20.600277" /><linearGradient
       inkscape:collect="always"
       id="linearGradient2"><stop
         style="stop-color:#530000;stop-opacity:1;"
         offset="0"
         id="stop30" /><stop
         style="stop-color:#ff0000;stop-opacity:1;"
         offset="0.16398714"
         id="stop33" /><stop
         style="stop-color:#581d50;stop-opacity:1;"
         offset="0.30622625"
         id="stop31" /><stop
         style="stop-color:#5c7039;stop-opacity:1;"
         offset="0.52787393"
         id="stop32" /><stop
         style="stop-color:#33d425;stop-opacity:1;"
         offset="0.75"
         id="stop34" /><stop
         style="stop-color:#0074ff;stop-opacity:1;"
         offset="1"
         id="stop35" /></linearGradient><radialGradient
       inkscape:collect="always"
       xlink:href="#linearGradient15"
       id="radialGradient15"
       cx="6.559701"
       cy="4.8531542"
       fx="6.559701"
       fy="4.8531542"
       r="3.0597421"
       gradientTransform="matrix(1.9471882,-0.02870775,0.0156844,1.5262718,-6.3083691,-2.4432482)"
       gradientUnits="userSpaceOnUse" /><radialGradient
       inkscape:collect="always"
       xlink:href="#linearGradient17"
       id="radialGradient17"
       cx="6.2546477"
       cy="5.2214117"
       fx="6.2546477"
       fy="5.2214117"
       r="3.2554127"
       gradientTransform="matrix(1.9678614,0.01436008,-0.00803151,1.5790268,-6.057393,-3.2682181)"
       gradientUnits="userSpaceOnUse" /><radialGradient
       inkscape:collect="always"
       xlink:href="#linearGradient24"
       id="radialGradient26"
       cx="6.3675895"
       cy="5.1565919"
       fx="6.3675895"
       fy="5.1565919"
       r="3.0616217"
       gradientTransform="matrix(2.9246631,9.2275241e-4,-4.8962208e-4,2.2265302,-12.288744,-6.4468559)"
       gradientUnits="userSpaceOnUse" /></defs><g
     inkscape:label="Layer 1"
     inkscape:groupmode="layer"
     id="layer1"><ellipse
       cx="6.3710275"
       cy="11.200953"
       rx="6.2865"
       ry="1.4578542"
       style="fill:url(#radial-gradient-1);stroke-width:0.264583"
       id="ellipse13" /><path
       d="M 11.707673,11.277682 C 11.572736,11.071307 11.435152,10.878161 11.300215,10.695599 11.197027,10.560661 11.101777,10.425724 11.001236,10.293432 10.448256,9.5473071 9.9455481,8.8302863 9.4190273,7.9889113 8.6199856,6.708328 7.8712148,5.4727238 7.5934023,5.009703 7.5113815,4.8721197 7.3790898,4.7927447 7.2388606,4.7927447 H 5.4158815 c -0.1349375,0 -0.269875,0.079375 -0.3545417,0.2169583 -0.2778125,0.4630208 -1.0292291,1.698625 -1.8309166,2.9792083 -0.5265209,0.8440208 -1.031875,1.5583958 -1.5875,2.3045207 -0.1005417,0.132292 -0.1957917,0.267229 -0.2989792,0.402167 -0.1349375,0.182562 -0.2725208,0.375708 -0.4074583,0.582083 0,0 0.09525,0.105833 0.4021667,-0.113771 0.2989791,-0.214312 0.4815416,-0.404812 0.7593541,-0.259291 0.2778125,0.14552 0.09525,0.53975 0.3942292,0.627062 0.2989791,0.08731 0.6164791,-0.722312 1.1826875,-0.751417 0.5662083,-0.03175 0.3175,0.759355 0.8651875,0.759355 0.5476874,0 0.9524999,-1.172105 1.5822083,-1.240896 0.6244166,-0.06879 0.66675,0.960437 1.3917083,0.841375 0.714375,-0.116417 0.7540625,-0.957792 1.2197291,-1.005417 0.4656667,-0.04763 0.6561667,0.312208 1.0424584,0.637646 0.3862912,0.325437 0.6402912,0.410104 0.8995832,0.187854 0.259292,-0.22225 0.6985,-0.01852 1.029229,0.322792 z"
       style="fill:url(#linear-gradient-68);stroke-width:0.264583"
       id="path13" /><path
       d="m 11.694444,11.269745 c -0.261938,-0.100542 -0.468313,-0.132292 -0.735542,-0.07673 -0.264583,0.05292 -0.526521,0.121709 -0.796396,0.132292 C 9.7576939,11.338536 9.3502356,11.20889 8.9480689,11.261807 8.5538398,11.314724 8.1913606,11.53962 7.7971314,11.592536 7.0933398,11.68514 6.4027773,11.22212 5.6963398,11.28562 5.2068606,11.333245 4.7200273,11.632224 4.2437773,11.491995 4.0982565,11.449661 3.9659648,11.370286 3.820444,11.322661 3.5902565,11.248578 3.3362565,11.261807 3.0981315,11.338536 2.9049857,11.39939 2.7144857,11.49464 2.5134023,11.473474 2.3969857,11.460245 2.2885065,11.409974 2.1773815,11.36764 1.931319,11.277682 1.6720274,11.243286 1.4127357,11.259161 c -0.03175,0 -0.47889583,0.02381 -0.47625,0.01852 0.0291042,-0.04498 0.0608542,-0.08996 0.0899583,-0.132292 0.1058334,-0.100541 0.1905,-0.259291 0.2778125,-0.388937 0.013229,-0.02117 0.026458,-0.04233 0.042333,-0.06085 0.1031875,-0.134938 0.1984375,-0.269875 0.2963333,-0.399521 0.03175,-0.04498 0.066146,-0.08996 0.097896,-0.132292 C 1.8440065,10.031495 1.9419024,9.9018488 2.0318607,9.7695571 2.074194,9.708703 2.344069,9.359453 2.3520065,9.3250571 2.296444,9.5684738 2.2091315,9.8145363 2.0927149,10.055307 2.6404023,9.7589738 3.0981315,8.9678696 3.4764857,8.4281196 3.836319,7.9068905 4.1829232,7.4200571 4.4792565,6.9385155 4.4342773,7.0681613 3.7225482,9.1266196 3.6193607,9.4308905 3.5055898,9.7483905 4.1088398,8.7614946 4.2781732,8.4492863 4.3231523,8.3646196 4.3231523,8.4201821 4.2993398,8.5471821 4.4422148,8.3328696 4.2887565,8.295828 4.3681315,8.041828 4.4527982,7.7693071 4.5956732,7.5417655 4.6962148,7.3009946 4.7597148,7.1448905 4.8099857,6.9861405 4.8734857,6.8406197 5.0216523,6.4993072 5.265069,6.2347238 5.5322981,6.105078 5.4476315,6.549578 5.3365065,7.0231822 5.1962773,7.5205988 5.1407148,7.7137446 5.0798606,7.914828 5.042819,8.1264946 5.003132,8.3169946 5.12484,8.3646196 5.074569,8.5604113 5.016361,8.7826613 4.7861732,9.6346196 5.053402,9.6822446 5.2253812,9.7113486 5.3947145,9.2059946 5.466152,9.0366613 5.6116731,8.6979946 5.6884023,8.4201821 5.7598398,8.073578 5.8021731,7.8698488 5.8392148,7.6687655 5.8815481,7.4782655 5.900069,7.3724321 5.9238815,7.2692446 5.9424023,7.1660572 5.9979648,6.9041197 6.0508815,6.6474738 6.0985065,6.4040572 6.1487773,6.1606405 6.2360898,5.978078 6.4186523,5.8722447 6.4371731,6.0071822 6.5218398,8.375203 6.5615273,8.5101405 6.6276731,8.4836821 6.6594231,6.2347238 6.709694,6.295578 c 0.018521,0.021167 0.029104,0.047625 0.039688,0.076729 0.3227916,0.8757708 0.3413125,2.0240624 0.6693958,3.2305624 0.015875,0.055563 0.037042,0.1190625 0.071438,0.1402292 0.084667,0.055562 0.1217083,-0.142875 0.111125,-0.2778125 -0.044979,-0.5265208 -0.084667,-1.0186458 -0.127,-1.4869583 0.021167,0.2751666 0.3254375,0.79375 0.4392083,1.0742083 0.082021,0.2037292 0.2090208,0.7196667 0.301625,0.4312708 C 8.2680898,9.3197655 8.1860689,8.9017238 8.1649023,8.7297446 8.0934648,8.0471196 7.9029648,7.4941405 7.7415689,6.930578 7.6674856,6.6818697 7.5960481,6.4278697 7.630444,6.200328 7.6489648,6.0627447 7.7098189,5.9410363 7.7944856,5.8590155 c 0.052917,0.142875 0.1640417,0.2513542 0.2487083,0.3836458 0.060854,0.092604 0.1058334,0.2037292 0.1508125,0.3122084 0.3677709,0.8254999 0.936625,1.9023541 1.6271875,2.7384374 0.3201461,0.3915834 0.1164167,-0.47625 0.1164167,-0.47625 0,0 0.010583,0.00529 0.029104,0.023813 0.082021,0.1243542 0.1640414,0.2487084 0.2513544,0.3704167 0.08467,0.1217083 0.171979,0.2460625 0.256646,0.365125 0.171979,0.238125 0.346604,0.4788962 0.523875,0.7196672 0.103187,0.132292 0.198437,0.267229 0.298979,0.399521 0.113771,0.156103 0.338667,0.365125 0.388937,0.550333 v 0 c 0,0 0.0053,0.01852 0.0053,0.02381 z"
       style="fill:url(#linear-gradient-2-4);stroke-width:0.264583"
       id="path14" /><path
       d="m 11.707673,11.275036 c 0,0 -0.0079,-0.0026 -0.01323,-0.0053 -0.261938,-0.100542 -0.468313,-0.132292 -0.735542,-0.07673 -0.264583,0.05292 -0.526521,0.121709 -0.796396,0.132292 C 9.7576939,11.338536 9.3502356,11.20889 8.9480689,11.261807 8.5538398,11.314724 8.1913606,11.53962 7.7971314,11.592536 7.0933398,11.68514 6.4027773,11.22212 5.6963398,11.28562 5.2068606,11.333245 4.7200273,11.632224 4.2437773,11.491995 4.0982565,11.449661 3.9659648,11.370286 3.820444,11.322661 3.5902565,11.248578 3.3362565,11.261807 3.0981315,11.338536 2.9049857,11.39939 2.7144857,11.49464 2.5134023,11.473474 2.3969857,11.460245 2.2885065,11.409974 2.1773815,11.36764 1.931319,11.277682 1.6720274,11.243286 1.4127357,11.259161 c -0.03175,0 -0.47889583,0.02381 -0.47625,0.01852 0.0291042,-0.04498 0.0608542,-0.08996 0.0899583,-0.132292 0.089958,-0.134937 0.1852084,-0.267229 0.2778125,-0.388937 0.013229,-0.02117 0.026458,-0.04233 0.042333,-0.06085 0.1031875,-0.134938 0.1984375,-0.269875 0.2963333,-0.399521 0.03175,-0.04498 0.066146,-0.08996 0.097896,-0.132292 C 2.2594024,9.4652863 2.7330065,8.7826613 3.2277773,7.9889113 4.0321107,6.708328 4.7808815,5.4727238 5.058694,5.009703 5.1407148,4.8721197 5.2756523,4.7900988 5.4132356,4.7900988 h 1.8229792 c 0.1402292,0 0.2725208,0.082021 0.3545417,0.2196042 0.2751666,0.4630208 1.0239374,1.698625 1.8256249,2.9792083 0.1852084,0.2963333 0.365125,0.5767917 0.5503334,0.8493125 0.082021,0.1243542 0.1640412,0.2487083 0.2513542,0.3704167 0.08467,0.1217083 0.171979,0.2434166 0.256646,0.365125 0.171979,0.238125 0.343958,0.4788955 0.523875,0.7196665 0.103187,0.132292 0.198437,0.267229 0.298979,0.399521 0.129646,0.174625 0.259292,0.359833 0.388937,0.550333 v 0 c 0,0 0.01323,0.02117 0.01852,0.0291 z"
       style="fill:none;stroke:#6d4100;stroke-width:0.185208px;stroke-linecap:round;stroke-linejoin:round"
       id="path15" /><path
       d="M 11.707673,11.277682 C 11.572736,11.071307 11.435152,10.878161 11.300215,10.695599 11.197027,10.560661 11.101777,10.425724 11.001236,10.293432 10.448256,9.5473071 9.9455481,8.8302863 9.4190273,7.9889113 8.6199856,6.708328 7.8712148,5.4727238 7.5934023,5.009703 7.5113815,4.8721197 7.3790898,4.7927447 7.2388606,4.7927447 H 5.4158815 c -0.1349375,0 -0.269875,0.079375 -0.3545417,0.2169583 -0.2778125,0.4630208 -1.0292291,1.698625 -1.8309166,2.9792083 -0.5265209,0.8440208 -1.031875,1.5583958 -1.5875,2.3045207 -0.1005417,0.132292 -0.1957917,0.267229 -0.2989792,0.402167 -0.1349375,0.182562 -0.2725208,0.375708 -0.4074583,0.579437 -0.002646,0.0053 0.4445,-0.01852 0.47625,-0.02117 0.2592917,-0.01587 0.5212292,0.02117 0.7646458,0.111125 0.111125,0.03969 0.2196042,0.0926 0.3360208,0.103187 0.2010834,0.02117 0.3915834,-0.07673 0.5847292,-0.134937 0.2354792,-0.07144 0.4868333,-0.08996 0.7223125,-0.01323 0.142875,0.04763 0.2778125,0.129646 0.4233333,0.17198 0.47625,0.140229 0.9630833,-0.161396 1.4552083,-0.206375 0.7064375,-0.06615 1.3943542,0.39952 2.0981458,0.306916 0.3942292,-0.05292 0.7567084,-0.277812 1.1509375,-0.330729 0.4021667,-0.05292 0.809625,0.07673 1.2144371,0.0635 0.269875,-0.0079 0.531813,-0.07938 0.796396,-0.132292 0.264584,-0.05292 0.478896,-0.02381 0.746125,0.08467 z"
       style="fill:none;stroke:#6d4100;stroke-width:0.185208px;stroke-linecap:round;stroke-linejoin:round"
       id="path16" /><path
       d="M 1.9180899,11.261807 C 2.9896523,9.3488696 4.5136523,6.8220988 4.4184023,7.0655155 c 0,0 -1.2012083,2.9236458 -2.0769791,4.3418125 z"
       style="fill:#6d4100;stroke-width:0.264583"
       id="path17" /><path
       d="m 2.7779857,11.447015 c 0,0 0.8440208,-1.394354 1.2091458,-2.1246037 0,0 -0.4788958,1.3969997 -0.7593542,1.9261667 z"
       style="fill:#6d4100;stroke-width:0.264583"
       id="path18" /><path
       d="m 5.1671731,11.420557 c 0.018521,-0.08731 0.7514167,-2.9712707 0.9181042,-3.8973124 0,0 -0.013229,2.3230417 -0.396875,3.7121044 z"
       style="fill:#6d4100;stroke-width:0.264583"
       id="path19" /><path
       d="m 7.3870273,11.576661 c 0,0 -0.2936875,-2.153708 -0.365125,-2.9897914 0,0 0.635,2.5426454 0.8493125,2.9765624 z"
       style="fill:#6d4100;stroke-width:0.264583"
       id="path20" /><path
       d="m 9.7894439,11.261807 c 0,0 -1.4313958,-2.7199165 -1.5822083,-3.5268957 0,0 1.3837708,2.6511247 2.2383754,3.5136667 z"
       style="fill:#6d4100;stroke-width:0.264583"
       id="path21" /><path
       d="M 6.8790273,11.470828 C 6.8896106,11.41262 6.8578606,9.4679321 6.8578606,9.4679321 l 0.3730625,2.0954999 z"
       style="fill:#6d4100;stroke-width:0.264583"
       id="path22" /><path
       d="M 4.598319,11.550203 C 4.6432982,11.491995 5.3814856,9.6822446 5.3814856,9.6822446 L 5.0348815,11.351765 Z"
       style="fill:#6d4100;stroke-width:0.264583"
       id="path23" /><polygon
       points="40.22,42.2 34.37,33.37 42.1,41.95 "
       style="fill:#6d4100"
       id="polygon23"
       transform="matrix(0.26458333,0,0,0.26458333,0.02102738,0.03024474)" /><path
       d="M 1.1164024,11.288265 C 1.1640274,11.251224 2.4922357,9.9177238 2.4922357,9.9177238 L 1.5529649,11.275036 Z"
       style="fill:#6d4100;stroke-width:0.264583"
       id="path24" /><path
       d="M 8.7813814,6.994078 C 8.4374231,6.882953 8.2839648,6.2532447 7.9214856,6.1976822 c -0.047625,-0.00794 -0.1031875,0.010583 -0.127,0.060854 -0.021167,0.042333 0.010583,0.092604 0.026458,0.142875 0.026458,0.071438 0.044979,0.1534584 0.029104,0.2248959 -0.013229,0.074083 -0.066146,0.142875 -0.1349375,0.142875 -0.097896,0.00265 -0.1931458,-0.1084792 -0.2804583,-0.071438 -0.09525,0.047625 -0.092604,0.3227916 -0.076729,0.428625 0.013229,0.082021 0.034396,0.1799166 -0.010583,0.2407708 -0.044979,0.060854 -0.1296458,0.060854 -0.1905,0.021167 C 7.0933398,7.343328 7.0562981,7.2718905 7.0219023,7.200453 6.8763815,6.8882447 6.773194,6.311453 6.5774023,6.0653905 6.5562356,6.0362863 6.5297773,6.009828 6.5006731,6.0045363 6.3472148,5.9674947 6.3710273,6.168578 6.3472148,6.2505988 6.2995898,6.4199322 6.233444,6.3828905 6.0985065,6.3696613 6.0032565,6.3617238 5.9238815,6.4516822 5.8736106,6.549578 5.8259856,6.644828 5.7942356,6.7533072 5.725444,6.8326822 5.6540065,6.9120572 5.519069,6.9385155 5.4635065,6.8485572 5.439694,6.8088697 5.439694,6.7612447 5.4158815,6.724203 5.3682565,6.6474738 5.2571315,6.6554113 5.1830481,6.7136197 5.1116106,6.771828 5.058694,6.8750155 5.0163607,6.962328 4.9713815,7.0496405 4.9211107,7.1475363 4.8443815,7.1951613 4.8152773,7.216328 4.7782357,7.2269113 4.7438398,7.2189738 4.6697565,7.1978071 4.645944,7.0946197 4.6671107,7.009953 4.6882773,6.9226405 4.7464857,6.8644322 4.7702982,6.7797655 4.788819,6.6977447 4.7835273,6.597203 4.7200273,6.5628072 4.6882773,6.5442863 4.645944,6.5469322 4.6062565,6.5601613 4.5136523,6.5866197 4.439569,6.660703 4.3681315,6.7294947 4.2279023,6.867078 4.0850273,7.0046613 3.9395065,7.1448905 3.8177982,7.263953 3.677569,7.4570988 3.5399857,7.5470571 3.4315065,7.6184946 3.2992148,7.5761613 3.3203815,7.406828 3.3362565,7.2904113 3.4897148,7.1078488 3.5558607,7.0125988 3.6378815,6.8855988 4.0453398,6.2453072 4.1617565,6.0680363 4.169694,6.0521613 4.1749857,6.041578 4.1829232,6.0309947 4.4845482,5.5520988 4.6803398,5.2398905 4.8734857,4.9250363 4.963444,4.7795155 5.1169023,4.692203 5.2782981,4.692203 H 7.408194 c 0.1640416,0 0.3148541,0.087312 0.4048124,0.2328333 0.1058334,0.1719792 0.3148542,0.5027084 0.5529792,0.8810625 0.058208,0.089958 0.4577292,0.7249584 0.5159375,0.8175625 0.050271,0.142875 0.1666875,0.4577292 -0.092604,0.3730625 z"
       style="fill:url(#linearGradient1);stroke-width:0.264583"
       id="path28" /><path
       d="m 5.1724648,5.0705572 c 0.127,0.092604 0.00794,0.3571875 0.2169583,0.2328333 0.2090209,-0.1243542 0.2989792,-0.2936875 0.47625,-0.238125 0.1772709,0.055563 0.142875,0.3386667 0.3175,0.1957917 0.2169584,-0.1799167 0.3280834,-0.41275 0.5794375,-0.1005417 0.0635,0.076729 0.1137709,0.1666875 0.1772709,0.2434167 0.023813,0.029104 0.050271,0.058208 0.084667,0.068792 0.034396,0.010583 0.076729,0.00529 0.09525,-0.026458 0.013229,-0.023813 0.010583,-0.052917 0.00794,-0.079375 -0.00794,-0.068792 -0.023813,-0.142875 -0.00529,-0.206375 0.018521,-0.0635 0.084667,-0.1217083 0.1508125,-0.1005417 0.042333,0.013229 0.074083,0.055562 0.09525,0.097896 0.021167,0.042333 0.037042,0.087313 0.071438,0.1217083 0.034396,0.034396 0.089958,0.050271 0.1243541,0.023813 0.047625,-0.039688 0.079375,-0.1508125 0.1613958,-0.1058333 0.026458,0.015875 0.047625,0.042333 0.066146,0.068792 0.1693333,0.2248959 0.333375,0.492125 0.5953125,0.6323542 0,0 -0.635,-1.0451042 -0.777875,-1.1509375 C 7.4664023,4.6419322 5.2200898,4.6948488 5.1169023,4.7054322 5.0137148,4.7160155 4.7967565,5.0758488 4.725319,5.1975572 4.6538815,5.3192655 3.947444,6.4093488 3.947444,6.4093488 c 0,0 0.5371042,-0.4974166 0.6720417,-0.6932083 C 4.7544232,5.5203488 5.0481106,4.9805988 5.1751106,5.0705572 Z"
       style="opacity:0.83;fill:url(#linear-gradient-4-7);stroke-width:0.264583"
       id="path29" /><path
       d="M 8.7628606,6.994078 C 8.4215481,6.882953 8.2680898,6.2532447 7.9109023,6.1976822 c -0.050271,-0.00794 -0.1031875,0.010583 -0.127,0.058208 -0.021167,0.044979 0.010583,0.092604 0.026458,0.142875 0.023813,0.074083 0.042333,0.1534583 0.029104,0.2275417 -0.013229,0.074083 -0.066146,0.142875 -0.1349375,0.1455208 -0.09525,0.00265 -0.1931458,-0.111125 -0.2804583,-0.071438 -0.09525,0.044979 -0.092604,0.3227917 -0.076729,0.4259792 0.013229,0.082021 0.03175,0.1772708 -0.010583,0.2434166 -0.042333,0.060854 -0.1296459,0.060854 -0.1905,0.018521 C 7.0854023,7.3459738 7.0457148,7.2745363 7.0139648,7.2030988 6.868444,6.8882447 6.7679023,6.311453 6.5721106,6.0653905 6.550944,6.0389322 6.5271315,6.0124738 6.4953815,6.0045363 6.344569,5.9674947 6.3683815,6.168578 6.3419231,6.2532447 6.2942981,6.4199322 6.2307981,6.3828905 6.0958606,6.3723072 6.0006106,6.3643697 5.9185898,6.454328 5.8736106,6.549578 5.8286315,6.644828 5.7942356,6.755953 5.7227981,6.835328 5.6513606,6.914703 5.519069,6.9411613 5.4661523,6.851203 5.4423398,6.8141613 5.439694,6.7638905 5.4158815,6.7268488 5.3682565,6.6501197 5.2571315,6.6554113 5.1883398,6.7136197 5.1195481,6.771828 5.0666315,6.8723697 5.0242982,6.962328 4.9819648,7.0522863 4.931694,7.1448905 4.852319,7.1951613 4.820569,7.2136821 4.7861732,7.2269113 4.7544232,7.2189738 4.6803398,7.200453 4.6591732,7.0946197 4.677694,7.0073072 4.6962148,6.9199947 4.7544232,6.8644322 4.7782357,6.7824113 4.8020482,6.7003905 4.7941107,6.597203 4.7279648,6.5628072 4.6962148,6.5442863 4.6538815,6.5469322 4.6168398,6.5601613 4.5268815,6.5892655 4.4501523,6.660703 4.3787148,6.7321405 L 3.9527357,7.1475363 C 3.8336732,7.263953 3.693444,7.4570988 3.5585065,7.549703 3.4526732,7.6211405 3.3203815,7.581453 3.3415482,7.4094738 3.3547773,7.2930571 3.5108815,7.1131405 3.5743815,7.0152447 c 0.00265,-0.03175 0.071438,-0.1137709 0.089958,-0.1375834 0.034396,-0.044979 0.076729,-0.089958 0.1137709,-0.1349375 0.00794,0.023813 0,0.058208 0.018521,0.071438 0.015875,0.013229 0.039687,0 0.058208,-0.015875 0.2936875,-0.22225 0.5662084,-0.4656666 0.8307917,-0.7064375 0.026458,-0.023813 0.055562,-0.050271 0.087312,-0.060854 0.060854,-0.021167 0.1243542,0.00794 0.1666875,0.052917 0.015875,0.015875 0.03175,0.034396 0.052917,0.042333 0.023813,0.00794 0.050271,0 0.074083,-0.013229 0.066146,-0.03175 0.1243541,-0.082021 0.1719791,-0.1402292 0.029104,-0.037042 0.055562,-0.076729 0.092604,-0.1031875 0.037042,-0.026458 0.092604,-0.029104 0.1164167,0.00794 0.018521,0.026458 0.015875,0.066146 0.015875,0.1005417 0,0.1005417 0.03175,0.4021667 0.1613958,0.4021667 0.1957917,0 0.4445,-0.9789584 0.8043333,-0.9974792 0.1666875,-0.010583 0.2936875,0.1931458 0.3783542,0.3227917 0.066146,0.1005416 0.111125,0.2196041 0.1719792,0.3254375 0.03175,0.055562 0.068792,0.1164166 0.1137708,0.1613958 0.09525,0.089958 0.092604,-0.013229 0.174625,-0.037042 0.071438,-0.021167 0.127,0.1005417 0.2037292,0.1084792 0.050271,0.00529 0.092604,-0.042333 0.111125,-0.09525 0.018521,-0.052917 0.021167,-0.111125 0.037042,-0.1640417 0.037042,-0.1164166 0.1455208,-0.1905 0.2592917,-0.1852083 0.2936875,0.013229 0.4524375,0.4524375 0.650875,0.6614583 0.03175,0.034396 0.074083,0.068792 0.1137708,0.058208 0.029104,-0.00794 0.047625,-0.034396 0.052917,-0.066146 0.00529,-0.03175 0.00529,-0.066146 0,-0.097896 0.03175,0.021167 0.052917,0.079375 0.074083,0.1137708 0.023813,0.042333 0.068792,0.092604 0.084667,0.1402292 0.050271,0.142875 0.1640416,0.4577292 -0.092604,0.3730625 z"
       style="opacity:0.83;fill:url(#linear-gradient-5-8);stroke-width:0.264583"
       id="path30" /><path
       d="M 8.7813814,6.994078 C 8.4374231,6.882953 8.2839648,6.2532447 7.9214856,6.1976822 c -0.047625,-0.00794 -0.1031875,0.010583 -0.127,0.060854 -0.021167,0.042333 0.010583,0.092604 0.026458,0.142875 0.026458,0.071438 0.044979,0.1534584 0.029104,0.2248959 -0.013229,0.074083 -0.066146,0.142875 -0.1349375,0.142875 -0.097896,0.00265 -0.1931458,-0.1084792 -0.2804583,-0.071438 -0.09525,0.047625 -0.092604,0.3227916 -0.076729,0.428625 0.013229,0.082021 0.034396,0.1799166 -0.010583,0.2407708 -0.044979,0.060854 -0.1296458,0.060854 -0.1905,0.021167 C 7.0933398,7.343328 7.0562981,7.2718905 7.0219023,7.200453 6.8763815,6.8882447 6.773194,6.311453 6.5774023,6.0653905 6.5562356,6.0362863 6.5297773,6.009828 6.5006731,6.0045363 6.3472148,5.9674947 6.3710273,6.168578 6.3472148,6.2505988 6.2995898,6.4199322 6.233444,6.3828905 6.0985065,6.3696613 6.0032565,6.3617238 5.9238815,6.4516822 5.8736106,6.549578 5.8259856,6.644828 5.7942356,6.7533072 5.725444,6.8326822 5.6540065,6.9120572 5.519069,6.9385155 5.4635065,6.8485572 5.439694,6.8088697 5.439694,6.7612447 5.4158815,6.724203 5.3682565,6.6474738 5.2571315,6.6554113 5.1830481,6.7136197 5.1116106,6.771828 5.058694,6.8750155 5.0163607,6.962328 4.9713815,7.0496405 4.9211107,7.1475363 4.8443815,7.1951613 4.8152773,7.216328 4.7782357,7.2269113 4.7438398,7.2189738 4.6697565,7.1978071 4.645944,7.0946197 4.6671107,7.009953 4.6882773,6.9226405 4.7464857,6.8644322 4.7702982,6.7797655 4.788819,6.6977447 4.7835273,6.597203 4.7200273,6.5628072 4.6882773,6.5442863 4.645944,6.5469322 4.6062565,6.5601613 4.5136523,6.5866197 4.439569,6.660703 4.3681315,6.7294947 4.2279023,6.867078 4.0850273,7.0046613 3.9395065,7.1448905 3.8177982,7.263953 3.677569,7.4570988 3.5399857,7.5470571 3.4315065,7.6184946 3.2992148,7.5761613 3.3203815,7.406828 3.3362565,7.2904113 3.4897148,7.1078488 3.5558607,7.0125988 3.6378815,6.8855988 4.0453398,6.2453072 4.1617565,6.0680363 4.169694,6.0521613 4.1749857,6.041578 4.1829232,6.0309947 4.4845482,5.5520988 4.6803398,5.2398905 4.8734857,4.9250363 4.963444,4.7795155 5.1275346,4.7498135 5.2782981,4.692203 5.7679724,4.3794349 7.1790647,4.4425478 7.8130064,4.9250363 c 0.1058334,0.1719792 0.3148542,0.5027084 0.5529792,0.8810625 0.058208,0.089958 0.4577292,0.7249584 0.5159375,0.8175625 0.050271,0.142875 0.1666875,0.4577292 -0.092604,0.3730625 z"
       style="fill:none;stroke:#cc0000;stroke-width:0.132292px;stroke-miterlimit:10"
       id="path31"
       sodipodi:nodetypes="ccccccccscccccccccccccccccccccccccccccccc" /><path
       d="M 3.8945273,11.261807 C 4.0876732,11.010453 4.4527982,10.169078 4.4527982,10.169078 L 4.2437773,11.49464 Z"
       style="fill:#6d4100;stroke-width:0.264583"
       id="path40" /><polygon
       points="25.23,39.81 25.28,43 24.45,42.65 "
       style="fill:#6d4100"
       id="polygon40"
       transform="matrix(0.26458333,0,0,0.26458333,0.02102738,0.03024474)" /><polygon
       points="34.13,39.06 35.87,42.35 33.35,42.2 32.8,36.62 34.26,41.35 "
       style="fill:#6d4100"
       id="polygon41"
       transform="matrix(0.26458333,0,0,0.26458333,0.02102738,0.03024474)" /><ellipse
       style="color:#000000;overflow:visible;fill:url(#radialGradient7);fill-opacity:1;stroke:#a40000;stroke-width:0.13329889;stroke-linecap:round;stroke-linejoin:round;stop-color:#000000;stroke-dasharray:none"
       id="path6"
       cx="5.3043413"
       cy="5.3246212"
       rx="1.5253849"
       ry="0.59198338"
       transform="matrix(0.99975371,-0.02219293,0.19468502,0.98086581,0,0)" /><path
       id="path2"
       style="color:#000000;overflow:visible;fill:url(#radialGradient20);fill-opacity:1;stroke:url(#linearGradient120);stroke-width:0.132292;stroke-linecap:round;stroke-linejoin:round;stroke-dasharray:none;stop-color:#000000"
       d="M 2.9033641,2.8175275 C 2.6967676,3.0379955 2.8112159,3.3146052 3.0527779,3.4937454 3.2943423,3.6728897 4.5639802,4.0741314 5.5079496,5.4759133 5.1038053,3.9896969 3.6711493,2.8645031 3.5344632,2.7635787 3.3977774,2.662657 3.1099461,2.597058 2.9033557,2.8175274 Z"
       sodipodi:nodetypes="zzczz" /><path
       id="circle2"
       style="color:#000000;font-variation-settings:normal;overflow:visible;fill:url(#radialGradient23);fill-opacity:1;stroke:url(#linearGradient122);stroke-width:0.132292;stroke-linecap:round;stroke-linejoin:round;stroke-miterlimit:4;stroke-dasharray:none;stroke-dashoffset:0;stroke-opacity:1;stop-color:#000000"
       d="M 3.605759,0.37653798 C 3.3377626,0.57831398 3.3645586,0.93208428 3.525155,1.0953938 3.6857492,1.2587095 5.3564467,3.1750346 5.429411,4.5601181 5.7030259,3.0682102 4.4754889,0.71600628 4.3331461,0.52311638 4.190801,0.33022658 3.8737646,0.17475938 3.605759,0.37653798 Z"
       sodipodi:nodetypes="zzczz" /><path
       id="path11"
       style="color:#000000;overflow:visible;fill:#000000;stroke:none;stroke-width:0.264582;stroke-linecap:round;stroke-linejoin:round;stop-color:#000000"
       d="m 3.1775644,2.9253304 -0.044849,0.2886827 a 0.19811842,0.19744425 89.995791 0 0 0.025725,0.027918 l 0.051866,-0.333698 a 0.19811842,0.19744425 89.995791 0 0 -0.032765,0.017126 z m -0.054525,0.055061 A 0.19811842,0.19744425 89.995791 0 0 3.097232,3.146471 Z m 0.1352527,-0.085355 -0.058118,0.3740483 a 0.19811842,0.19744425 89.995791 0 0 0.028425,0.010797 l 0.060049,-0.3864635 a 0.19811842,0.19744425 89.995791 0 0 -0.030356,0.0016 z m 0.075455,0.00385 -0.060524,0.3895685 a 0.19811842,0.19744425 89.995791 0 0 0.027906,-0.00121 L 3.360221,2.9069902 a 0.19811842,0.19744425 89.995791 0 0 -0.026473,-0.00811 z m 0.069308,0.033108 -0.053777,0.3461115 a 0.19811842,0.19744425 89.995791 0 0 0.028696,-0.011407 0.19811842,0.19744425 89.995791 0 0 9.302e-4,-6.819e-4 L 3.4269499,2.951616 A 0.19811842,0.19744425 89.995791 0 0 3.4031129,2.931948 Z m 0.061314,0.074724 -0.033118,0.2181887 a 0.19811842,0.19744425 89.995791 0 0 0.033118,-0.2181887 z" /><path
       id="path17-7"
       style="color:#000000;overflow:visible;fill:#000000;stroke:none;stroke-width:0.264582;stroke-linecap:round;stroke-linejoin:round;stop-color:#000000"
       d="m 3.7890111,0.59641651 -0.049113,0.3109722 a 0.2162147,0.21341549 0.00110108 0 0 0.028171,0.030073 l 0.056777,-0.3594587 a 0.2162147,0.21341549 0.00110108 0 0 -0.03588,0.018448 z m -0.059708,0.059313 a 0.2162147,0.21341549 0.00110108 0 0 -0.028263,0.178902 z m 0.1481105,-0.091946 -0.063643,0.4029291 a 0.2162147,0.21341549 0.00110108 0 0 0.031127,0.011631 l 0.065758,-0.4163045 a 0.2162147,0.21341549 0.00110108 0 0 -0.033242,0.00172 z m 0.082626,0.00415 -0.066279,0.4196479 a 0.2162147,0.21341549 0.00110108 0 0 0.030557,-0.0013 l 0.06471,-0.4096176 a 0.2162147,0.21341549 0.00110108 0 0 -0.028989,-0.00873 z m 0.075897,0.035664 -0.05889,0.3728342 a 0.2162147,0.21341549 0.00110108 0 0 0.031424,-0.012288 0.2162147,0.21341549 0.00110108 0 0 0.00102,-7.36e-4 l 0.05264,-0.3386889 a 0.2162147,0.21341549 0.00110108 0 0 -0.026101,-0.0211864 z m 0.067143,0.080493 -0.036267,0.2350355 a 0.2162147,0.21341549 0.00110108 0 0 0.036267,-0.2350355 z" /><path
       d="m 5.7916639,5.5373558 c 0,0 -0.1668989,-0.3756898 0.077695,-0.6962326 0,0 -0.2704912,-0.1585481 -0.305022,-0.4687507 -0.034531,-0.3102027 0.037408,-0.4618572 0.1266129,-0.5514714 0,0 -0.2704913,-0.5824916 0.014388,-1.0409022 0.2848791,-0.4584106 0.6733506,-0.2412687 0.6733506,-0.2412687 0,0 0.034531,-0.6376389 0.3999818,-0.9719683 0.3654507,-0.3343295 0.702126,-0.1688881 0.702126,-0.1688881 0,0 0.2215726,-0.84099382 0.7596776,-1.03056219 0.538105,-0.18956825 0.9064335,0.24126881 0.9064335,0.24126881 0,0 0.2647362,-0.6962327 0.7884534,-0.68244583 0.5237173,0.01378635 0.7596783,0.72725284 0.7596783,0.72725284 0,0 0.330921,-0.15854798 0.633065,-0.0103433 0.302145,0.14820789 0.440268,0.69278587 0.440268,0.69278587 0,0 0.181286,-0.1688881 0.425879,-0.099954 0.244594,0.068934 0.466166,0.3584565 0.440268,0.8099737 -0.02303,0.3825832 -0.336675,0.6238521 -0.538105,0.6169586 -0.215818,-0.010343 -0.313655,-0.1516546 -0.313655,-0.1516546 0,0 -0.126613,0.5790449 -0.509329,0.703126 -0.382717,0.124081 -0.673351,-0.2171419 -0.673351,-0.2171419 0,0 -0.01151,0.2412688 -0.149633,0.3963701 -0.138123,0.1551014 -0.374084,0.068934 -0.374084,0.068934 0,0 -0.02302,0.5273444 -0.3769619,0.7961867 -0.3539413,0.2688427 -0.7913314,-0.044807 -0.8891687,-0.3170955 0,0 -0.023021,0.2860757 -0.2733688,0.4136035 -0.2503483,0.127528 -0.5668807,-0.2964159 -0.5668807,-0.2964159 0,0 -0.043164,0.2619488 -0.2877566,0.3860299 -0.2445932,0.1240811 -0.5150845,-0.089614 -0.5150845,-0.089614 0,0 0.037408,0.1895682 -0.054674,0.3619031 -0.092083,0.1723347 -0.2071848,0.1861216 -0.2071848,0.1861216 0,0 0.3050221,0.2033549 0.1294905,0.6927857"
       style="fill:url(#radialGradient17);fill-opacity:1;stroke-width:0.264583"
       id="path25" /><path
       d="m 5.94993,5.4753153 c 0,0 -0.1611436,-0.703126 0.2014298,-0.8754609 0,0 -0.3078997,-0.1723347 -0.3078997,-0.5721515 0,-0.3998168 0.2014296,-0.4963242 0.2014296,-0.4963242 0,0 -0.2129398,-0.3825833 0.054674,-0.6858925 0.2676137,-0.3033094 0.6301871,-0.02068 0.6301871,-0.02068 0,0 -0.1755316,-0.8203138 0.3078996,-1.1615366 0.4834312,-0.3412229 0.736657,0.02068 0.736657,0.02068 0,0 0.1640214,-1.18221684 0.7769431,-1.18221684 0.6129217,0 0.7222693,0.39981679 0.7222693,0.39981679 0,0 0.2273277,-0.78240006 0.7625552,-0.82031363 0.535228,-0.0379134 0.736657,0.79963345 0.736657,0.79963345 0,0 0.302145,-0.34811635 0.681984,-0.0585936 0.201429,0.15165463 0.282001,0.39981683 0.293512,0.78240003 0,0 0.146755,-0.2653956 0.443145,-0.2481621 0.296389,0.017233 0.348185,0.3239894 0.282001,0.5135576 -0.06618,0.1895684 -0.307899,0.4377305 -0.681983,0.1723349 0,0 -0.187042,0.5514713 -0.641698,0.6272987 -0.454655,0.075827 -0.549615,-0.6100652 -0.549615,-0.6100652 0,0 -0.01439,0.6858925 -0.333797,0.8961409 -0.3194107,0.2102483 -0.4546564,-0.02068 -0.4546564,-0.02068 0,0 0.014388,0.534238 -0.3222874,0.8203138 -0.3366753,0.2860754 -0.710759,-0.1516549 -0.710759,-0.1516549 0,0 -0.040286,0.3412229 -0.3222875,0.5135577 -0.2820015,0.1723346 -0.5496152,-0.172335 -0.5496152,-0.172335 0,0 -0.1064702,0.3412229 -0.4143696,0.4756441 C 7.1844062,4.5550474 6.9685887,4.0587232 6.9685887,4.0587232 c 0,0 -0.025899,0.5135577 -0.4143696,0.7410397 0,0 0.2676137,0.2860757 0.014388,0.6272986 l -0.6157993,0.037913 z"
       style="fill:url(#radialGradient15);fill-opacity:1;stroke-width:0.264583"
       id="path26" /><path
       d="m 12.473374,1.8769645 c -0.01151,0.034466 -0.02878,0.07238 -0.05467,0.1068478 -0.0028,-0.1482079 -0.06618,-0.3205426 -0.267615,-0.3308827 -0.287756,-0.017233 -0.431635,0.1895683 -0.431635,0.1895683 0,0 -0.05467,-0.5445781 -0.35394,-0.6583191 -0.305022,-0.1068477 -0.431635,0.1895684 -0.431635,0.1895684 -0.132368,-0.3205427 -0.382716,-0.2964159 -0.382716,-0.2964159 0,0 -0.155389,-0.63763881 -0.5870243,-0.54457802 C 9.5325038,0.62581468 9.411646,1.3392802 9.411646,1.3392802 c 0,0 -0.3136548,-0.56181145 -0.8114739,-0.41360356 C 8.0994735,1.080778 8.1685351,1.9907057 8.1685351,1.9907057 c 0,0 -0.2244502,-0.2240351 -0.7481673,0 C 6.8966495,2.2147408 7.0031195,3.0316078 7.0031195,3.0316078 6.4736472,2.7179583 6.4247285,3.2556429 6.4247285,3.2556429 6.16287,3.3314703 6.2664624,3.7416271 6.2664624,3.7416271 c 0,0 -0.1582661,0 -0.1841642,0.261949 -0.025899,0.2619488 0.2215725,0.4687506 0.2215725,0.4687506 -0.2445931,0.093061 -0.092083,0.5618114 -0.092083,0.5618114 -0.1410008,0.0517 -0.1410008,0.3894767 -0.1410008,0.3894767 l -0.037409,0.048254 -0.077695,0.00689 c 0,0 -0.1611438,-0.703126 0.1985521,-0.8754607 0,0 -0.3078997,-0.1723349 -0.3078997,-0.5687049 0,-0.3963701 0.1985521,-0.4963242 0.1985521,-0.4963242 0,0 -0.2129398,-0.3791366 0.054674,-0.6858926 0.2704912,-0.3033092 0.6330646,-0.017233 0.6330646,-0.017233 0,0 -0.1755315,-0.816867 0.3078997,-1.1615365 0.4776761,-0.3446697 0.7337796,0.017233 0.7337796,0.017233 0,0 0.1668988,-1.17877005 0.7798205,-1.1822167 0.6129217,0 0.7251469,0.40326345 0.7251469,0.40326345 0,0 0.2302052,-0.78240007 0.7625553,-0.81686699 0.538105,-0.0413604 0.736657,0.79963346 0.736657,0.79963346 0,0 0.305022,-0.34811622 0.681983,-0.0585936 0.198553,0.15510128 0.282002,0.40326348 0.29639,0.78239988 0,0 0.146756,-0.2653955 0.440268,-0.2481621 0.29639,0.017233 0.351062,0.3239895 0.282001,0.5135578 z"
       style="fill:url(#radialGradient26);fill-opacity:1;stroke-width:0.264583"
       id="path27" /><path
       id="path10"
       style="color:#000000;font-variation-settings:normal;overflow:visible;fill:url(#radialGradient24);fill-opacity:1;stroke:url(#linearGradient124);stroke-width:0.132292;stroke-linecap:round;stroke-linejoin:round;stroke-miterlimit:4;stroke-dasharray:none;stroke-dashoffset:0;stroke-opacity:1;stop-color:#000000"
       d="M 8.4359121,2.0517051 C 8.6527656,2.2451295 8.596095,2.6013584 8.4620239,2.6858938 8.3278894,2.7704459 6.7704338,3.9175695 6.5206088,5.0184445 6.5471626,3.7278299 7.7314413,2.1867848 7.8572547,2.0728175 7.9830725,1.9588564 8.2190609,1.8582799 8.4359071,2.0517066 Z"
       sodipodi:nodetypes="zzczz" /><path
       id="path18-4"
       style="color:#000000;overflow:visible;fill:#000000;stroke:none;stroke-width:0.264582;stroke-linecap:round;stroke-linejoin:round;stop-color:#000000"
       d="m 8.1291742,2.1911027 -0.1372566,0.250452 a 0.19788723,0.19355811 19.669742 0 0 0.015098,0.034362 L 8.1656792,2.1864162 a 0.19788723,0.19355811 19.669742 0 0 -0.036555,0.0047 z m -0.069565,0.032262 a 0.19788723,0.19355811 19.669742 0 0 -0.07897,0.144083 z M 8.2153244,2.1904656 8.0374731,2.514976 a 0.19788723,0.19355811 19.669742 0 0 0.023271,0.019536 l 0.183773,-0.3352711 a 0.19788723,0.19355811 19.669742 0 0 -0.029174,-0.00877 z m 0.069943,0.029004 -0.1852479,0.3379692 a 0.19788723,0.19355811 19.669742 0 0 0.026732,0.0083 L 8.3075656,2.2358443 a 0.19788723,0.19355811 19.669742 0 0 -0.022318,-0.016388 z m 0.054523,0.053839 -0.164568,0.3002723 a 0.19788723,0.19355811 19.669742 0 0 0.030833,-8.135e-4 0.19788723,0.19355811 19.669742 0 0 0.0011,-3.138e-4 L 8.3558906,2.2994211 A 0.19788723,0.19355811 19.669742 0 0 8.3398656,2.2732822 Z M 8.373083,2.3627368 8.2700775,2.5522934 A 0.19788723,0.19355811 19.669742 0 0 8.373083,2.3627368 Z" /><path
       id="path9"
       style="color:#000000;font-variation-settings:normal;overflow:visible;fill:url(#radialGradient25);fill-opacity:1;stroke:url(#linearGradient126);stroke-width:0.132292;stroke-linecap:round;stroke-linejoin:round;stroke-miterlimit:4;stroke-dasharray:none;stroke-dashoffset:0;stroke-opacity:1;stop-color:#000000"
       d="m 9.6385274,3.8680877 c 0.05189,0.1823935 -0.082,0.3064781 -0.257876,0.3399098 C 9.2047564,4.241414 8.4227338,4.1119968 7.5503246,4.6387748 8.1574892,3.9129826 9.2172354,3.6793653 9.3166514,3.6607114 c 0.0994,-0.018659 0.270008,0.025002 0.3219,0.2073945 z"
       sodipodi:nodetypes="zzczz" /><path
       id="path19-5"
       style="color:#000000;overflow:visible;fill:#000000;stroke:none;stroke-width:0.264583;stroke-linecap:round;stroke-linejoin:round;stop-color:#000000"
       d="m 9.3706664,3.8210262 -0.142185,0.1346674 a 0.13326183,0.13251797 8.8567058 0 0 0.0023,0.025323 L 9.3951834,3.825362 a 0.13326183,0.13251797 8.8567058 0 0 -0.02455,-0.00434 z m -0.05173,0.00686 a 0.13326183,0.13251797 8.8567058 0 0 -0.08181,0.07747 z m 0.107362,0.010133 -0.184231,0.1744866 a 0.13326183,0.13251797 8.8567058 0 0 0.01078,0.017371 l 0.190344,-0.1802815 a 0.13326183,0.13251797 8.8567058 0 0 -0.01689,-0.011585 z m 0.03881,0.032937 -0.191884,0.1817201 a 0.13326183,0.13251797 8.8567058 0 0 0.01544,0.010795 L 9.4759564,3.886101 a 0.13326183,0.13251797 8.8567058 0 0 -0.0109,-0.015123 z m 0.02361,0.045915 -0.170472,0.1614532 a 0.13326183,0.13251797 8.8567058 0 0 0.02004,0.0057 0.13326183,0.13251797 8.8567058 0 0 7.54e-4,1.13e-5 l 0.154446,-0.1469826 a 0.13326183,0.13251797 8.8567058 0 0 -0.0047,-0.020194 z m 0.0022,0.064717 -0.107049,0.1021009 a 0.13326183,0.13251797 8.8567058 0 0 0.107049,-0.1021009 z" /><path
       style="color:#000000;overflow:visible;fill:url(#radialGradient55);fill-opacity:1;stroke-width:0.264998;stroke-linecap:round;stroke-linejoin:round;stop-color:#000000"
       d="m 10.182214,5.4244695 a 9.164016,7.6916649 89.722853 0 0 -0.2021483,0.071363 c 0.06708,-0.024363 0.1340743,-0.04881 0.2021483,-0.071363 z"
       id="path56" /></g></svg>
