<?xml version="1.0" encoding="UTF-8" standalone="no"?>
<svg
   viewBox="0 0 48 48"
   version="1.1"
   id="svg40256"
   sodipodi:docname="12-Waterfall.svg"
   inkscape:version="1.1 (c68e22c387, 2021-05-23)"
   xmlns:inkscape="http://www.inkscape.org/namespaces/inkscape"
   xmlns:sodipodi="http://sodipodi.sourceforge.net/DTD/sodipodi-0.dtd"
   xmlns:xlink="http://www.w3.org/1999/xlink"
   xmlns="http://www.w3.org/2000/svg"
   xmlns:svg="http://www.w3.org/2000/svg">
  <sodipodi:namedview
     id="namedview40258"
     pagecolor="#ffffff"
     bordercolor="#666666"
     borderopacity="1.0"
     inkscape:pageshadow="2"
     inkscape:pageopacity="0.0"
     inkscape:pagecheckerboard="0"
     showgrid="false"
     inkscape:zoom="15.6875"
     inkscape:cx="24"
     inkscape:cy="24"
     inkscape:window-width="2880"
     inkscape:window-height="1557"
     inkscape:window-x="-8"
     inkscape:window-y="-8"
     inkscape:window-maximized="1"
     inkscape:current-layer="svg40256" />
  <defs
     id="defs40097">
    <style
       id="style39996">.cls-1{isolation:isolate;}.cls-2{fill:url(#radial-gradient);}.cls-3{fill:url(#linear-gradient);}.cls-4{fill:url(#linear-gradient-2);}.cls-5{opacity:0.57;fill:url(#linear-gradient-3);}.cls-17,.cls-5{mix-blend-mode:multiply;}.cls-6{fill:url(#linear-gradient-4);}.cls-12,.cls-16,.cls-20,.cls-28,.cls-39,.cls-47,.cls-7{fill:none;}.cls-20,.cls-28,.cls-47,.cls-7{stroke:#8f5902;}.cls-20,.cls-47,.cls-7{stroke-miterlimit:3.38;}.cls-12,.cls-7{stroke-width:0.7px;}.cls-8{fill:url(#linear-gradient-5);}.cls-9{fill:url(#linear-gradient-6);}.cls-10{fill:url(#linear-gradient-7);}.cls-11{fill:url(#linear-gradient-8);}.cls-12,.cls-16{stroke:#d0dfef;}.cls-12,.cls-16,.cls-28{stroke-linecap:round;stroke-linejoin:round;}.cls-13{fill:#d9e5f2;}.cls-14{fill:url(#radial-gradient-2);}.cls-15,.cls-52,.cls-55,.cls-58{opacity:0.35;}.cls-15{fill:url(#radial-gradient-3);}.cls-16,.cls-28,.cls-47{stroke-width:0.35px;}.cls-17{fill:url(#linear-gradient-9);}.cls-18{fill:url(#linear-gradient-10);}.cls-19{fill:url(#linear-gradient-11);}.cls-20{stroke-width:1.4px;}.cls-21{fill:url(#linear-gradient-12);}.cls-22{fill:url(#linear-gradient-13);}.cls-23{fill:url(#linear-gradient-14);}.cls-24{fill:url(#linear-gradient-15);}.cls-25{fill:url(#linear-gradient-16);}.cls-26{fill:url(#linear-gradient-17);}.cls-27{fill:url(#linear-gradient-18);}.cls-29{fill:#3465a4;}.cls-30{fill:url(#linear-gradient-19);}.cls-31{fill:url(#linear-gradient-20);}.cls-32{fill:url(#linear-gradient-21);}.cls-33{fill:url(#linear-gradient-22);}.cls-34{fill:url(#linear-gradient-23);}.cls-35{fill:url(#linear-gradient-24);}.cls-36{fill:url(#linear-gradient-25);}.cls-37{fill:url(#linear-gradient-26);}.cls-38{fill:url(#linear-gradient-27);}.cls-39{stroke:#3465a4;stroke-miterlimit:10;stroke-width:0.1px;}.cls-40{fill:url(#linear-gradient-28);}.cls-41{fill:url(#linear-gradient-29);}.cls-42{fill:url(#linear-gradient-30);}.cls-43{fill:url(#linear-gradient-31);}.cls-44{fill:url(#linear-gradient-32);}.cls-45{fill:url(#linear-gradient-33);}.cls-46{fill:url(#linear-gradient-34);}.cls-48{fill:url(#linear-gradient-35);}.cls-49{fill:url(#linear-gradient-36);}.cls-50{fill:url(#linear-gradient-37);}.cls-51{fill:url(#radial-gradient-4);}.cls-52{fill:url(#radial-gradient-5);}.cls-53{fill:url(#linear-gradient-38);}.cls-54{fill:url(#radial-gradient-6);}.cls-55{fill:url(#radial-gradient-7);}.cls-56{fill:url(#linear-gradient-39);}.cls-57{fill:url(#radial-gradient-8);}.cls-58{fill:url(#radial-gradient-9);}.cls-59{fill:url(#linear-gradient-40);}</style>
    <radialGradient
       id="radial-gradient"
       cx="-10230.84"
       cy="-2542.95"
       r="15.14"
       gradientTransform="matrix(-0.11,1.06,-0.68,-0.17,-2781.6,10498.59)"
       gradientUnits="userSpaceOnUse">
      <stop
         offset="0.32"
         stop-color="#2c2c2c"
         stop-opacity="0.5"
         id="stop39998" />
      <stop
         offset="0.73"
         stop-color="#2c2c2c"
         stop-opacity="0.1"
         id="stop40000" />
      <stop
         offset="0.99"
         stop-color="#2c2c2c"
         stop-opacity="0"
         id="stop40002" />
    </radialGradient>
    <linearGradient
       id="linear-gradient"
       x1="34.08"
       y1="31.24"
       x2="24.87"
       y2="18.08"
       gradientUnits="userSpaceOnUse">
      <stop
         offset="0"
         stop-color="#f0d09e"
         id="stop40005" />
      <stop
         offset="0.77"
         stop-color="#c17d11"
         id="stop40007" />
      <stop
         offset="1"
         stop-color="#8f5902"
         id="stop40009" />
    </linearGradient>
    <linearGradient
       id="linear-gradient-2"
       x1="34.32"
       y1="33.3"
       x2="29.43"
       y2="22.72"
       xlink:href="#linear-gradient" />
    <linearGradient
       id="linear-gradient-3"
       x1="28.33"
       y1="16.47"
       x2="30.43"
       y2="26.55"
       gradientUnits="userSpaceOnUse">
      <stop
         offset="0"
         stop-color="#8f5902"
         id="stop40013" />
      <stop
         offset="1"
         stop-color="#e9b96e"
         stop-opacity="0"
         id="stop40015" />
    </linearGradient>
    <linearGradient
       id="linear-gradient-4"
       x1="29.81"
       y1="32.34"
       x2="21.38"
       y2="20.28"
       xlink:href="#linear-gradient" />
    <linearGradient
       id="linear-gradient-5"
       x1="23.61"
       y1="30.03"
       x2="21.19"
       y2="40.94"
       gradientUnits="userSpaceOnUse">
      <stop
         offset="0"
         stop-color="#b2cbe5"
         id="stop40019" />
      <stop
         offset="1"
         stop-color="#3465a4"
         id="stop40021" />
    </linearGradient>
    <linearGradient
       id="linear-gradient-6"
       x1="23.38"
       y1="26.76"
       x2="20.43"
       y2="40.02"
       xlink:href="#linear-gradient-5" />
    <linearGradient
       id="linear-gradient-7"
       x1="22.34"
       y1="23.93"
       x2="21.41"
       y2="41.42"
       xlink:href="#linear-gradient-5" />
    <linearGradient
       id="linear-gradient-8"
       x1="21.81"
       y1="17.01"
       x2="21.81"
       y2="46.58"
       xlink:href="#linear-gradient-5" />
    <radialGradient
       id="radial-gradient-2"
       cx="317.47"
       cy="183.35"
       r="1.28"
       gradientTransform="translate(1.41 -338.68) rotate(56.69)"
       gradientUnits="userSpaceOnUse">
      <stop
         offset="0"
         stop-color="#d5e3f1"
         id="stop40027" />
      <stop
         offset="0.14"
         stop-color="#bed1e6"
         id="stop40029" />
      <stop
         offset="1"
         stop-color="#3465a4"
         id="stop40031" />
    </radialGradient>
    <radialGradient
       id="radial-gradient-3"
       cx="318.64"
       cy="193.27"
       r="0.63"
       gradientTransform="translate(-250.49 -226.31) rotate(11.69)"
       gradientUnits="userSpaceOnUse">
      <stop
         offset="0.28"
         stop-color="snow"
         id="stop40034" />
      <stop
         offset="1"
         stop-color="#fff"
         stop-opacity="0"
         id="stop40036" />
    </radialGradient>
    <linearGradient
       id="linear-gradient-9"
       x1="135.86"
       y1="155.87"
       x2="135.32"
       y2="156.41"
       gradientTransform="rotate(-39.39,-100.28535,250.09566)"
       gradientUnits="userSpaceOnUse">
      <stop
         offset="0"
         stop-color="#b2cbe5"
         stop-opacity="0"
         id="stop40039" />
      <stop
         offset="1"
         stop-color="#3465a4"
         id="stop40041" />
    </linearGradient>
    <linearGradient
       id="linear-gradient-10"
       x1="143.27"
       y1="147.44"
       x2="143.65"
       y2="147.06"
       gradientTransform="translate(-82.64 -149.13) rotate(13.43)"
       gradientUnits="userSpaceOnUse">
      <stop
         offset="0.05"
         stop-color="#fff"
         stop-opacity="0"
         id="stop40044" />
      <stop
         offset="0.69"
         stop-color="snow"
         id="stop40046" />
    </linearGradient>
    <linearGradient
       id="linear-gradient-11"
       x1="22.82"
       y1="25.64"
       x2="23.34"
       y2="25.11"
       gradientTransform="matrix(0.99,0.17,-0.17,0.99,3.73,-1.5)"
       xlink:href="#linear-gradient-10" />
    <linearGradient
       id="linear-gradient-12"
       x1="35.01"
       y1="19.94"
       x2="31.49"
       y2="9.07"
       xlink:href="#linear-gradient" />
    <linearGradient
       id="linear-gradient-13"
       x1="25.12"
       y1="21.96"
       x2="25.59"
       y2="16.72"
       xlink:href="#linear-gradient" />
    <linearGradient
       id="linear-gradient-14"
       x1="7.09"
       y1="5.98"
       x2="12.03"
       y2="15.4"
       gradientTransform="matrix(-1,0,0,1,33.35,0)"
       xlink:href="#linear-gradient" />
    <linearGradient
       id="linear-gradient-15"
       x1="16.3"
       y1="15.91"
       x2="20.07"
       y2="9.08"
       xlink:href="#linear-gradient" />
    <linearGradient
       id="linear-gradient-16"
       x1="8.22"
       y1="5.43"
       x2="17.28"
       y2="19.67"
       gradientTransform="matrix(-1,0,0,1,33.35,0)"
       xlink:href="#linear-gradient-5" />
    <linearGradient
       id="linear-gradient-17"
       x1="23.12"
       y1="11.75"
       x2="23.12"
       y2="0.38"
       xlink:href="#linear-gradient" />
    <linearGradient
       id="linear-gradient-18"
       x1="23.12"
       y1="5.39"
       x2="23.12"
       y2="15.78"
       xlink:href="#linear-gradient-10" />
    <linearGradient
       id="linear-gradient-19"
       x1="21.95"
       y1="30.6"
       x2="26.43"
       y2="14.42"
       gradientUnits="userSpaceOnUse">
      <stop
         offset="0"
         stop-color="#729fcf"
         id="stop40057" />
      <stop
         offset="1"
         stop-color="#eeeeec"
         id="stop40059" />
    </linearGradient>
    <linearGradient
       id="linear-gradient-20"
       x1="18.82"
       y1="32.43"
       x2="21.6"
       y2="21.59"
       xlink:href="#linear-gradient-19" />
    <linearGradient
       id="linear-gradient-21"
       x1="19.67"
       y1="20.47"
       x2="19.67"
       y2="35.39"
       xlink:href="#linear-gradient-5" />
    <linearGradient
       id="linear-gradient-22"
       x1="16.47"
       y1="32.3"
       x2="24.26"
       y2="18.1"
       xlink:href="#linear-gradient-19" />
    <linearGradient
       id="linear-gradient-23"
       x1="28.76"
       y1="9.73"
       x2="23.02"
       y2="20.67"
       xlink:href="#linear-gradient-19" />
    <linearGradient
       id="linear-gradient-24"
       x1="26.18"
       y1="18.71"
       x2="30.68"
       y2="8.68"
       xlink:href="#linear-gradient-5" />
    <linearGradient
       id="linear-gradient-25"
       x1="24.78"
       y1="16.16"
       x2="26.25"
       y2="10.76"
       xlink:href="#linear-gradient-5" />
    <linearGradient
       id="linear-gradient-26"
       x1="30.24"
       y1="17.64"
       x2="31.71"
       y2="12.25"
       xlink:href="#linear-gradient-5" />
    <linearGradient
       id="linear-gradient-27"
       x1="27.29"
       y1="16.84"
       x2="28.76"
       y2="11.44"
       xlink:href="#linear-gradient-5" />
    <linearGradient
       id="linear-gradient-28"
       x1="29.13"
       y1="13.28"
       x2="30.47"
       y2="9.35"
       xlink:href="#linear-gradient" />
    <linearGradient
       id="linear-gradient-29"
       x1="-2.56"
       y1="10.6"
       x2="2.38"
       y2="20.02"
       gradientTransform="matrix(-1,0,0,1,33.35,0)"
       xlink:href="#linear-gradient" />
    <linearGradient
       id="linear-gradient-30"
       x1="26.35"
       y1="20.74"
       x2="30.12"
       y2="13.92"
       xlink:href="#linear-gradient" />
    <linearGradient
       id="linear-gradient-31"
       x1="-1.83"
       y1="10.26"
       x2="7.23"
       y2="24.5"
       gradientTransform="matrix(-1,0,0,1,33.35,0)"
       xlink:href="#linear-gradient-5" />
    <linearGradient
       id="linear-gradient-32"
       x1="30.41"
       y1="10.79"
       x2="35.64"
       y2="4.26"
       xlink:href="#linear-gradient" />
    <linearGradient
       id="linear-gradient-33"
       x1="33.18"
       y1="16.58"
       x2="33.18"
       y2="5.22"
       xlink:href="#linear-gradient" />
    <linearGradient
       id="linear-gradient-34"
       x1="33.18"
       y1="10.22"
       x2="33.18"
       y2="20.62"
       xlink:href="#linear-gradient-10" />
    <linearGradient
       id="linear-gradient-35"
       x1="17.65"
       y1="31.93"
       x2="15.02"
       y2="40.45"
       xlink:href="#linear-gradient-5" />
    <linearGradient
       id="linear-gradient-36"
       x1="14.97"
       y1="29.91"
       x2="15.81"
       y2="45.31"
       gradientUnits="userSpaceOnUse">
      <stop
         offset="0"
         stop-color="snow"
         id="stop40078" />
      <stop
         offset="1"
         stop-color="#fffdfd"
         stop-opacity="0.19"
         id="stop40080" />
    </linearGradient>
    <linearGradient
       id="linear-gradient-37"
       x1="15.89"
       y1="31.25"
       x2="15.24"
       y2="44.69"
       gradientUnits="userSpaceOnUse">
      <stop
         offset="0.16"
         stop-color="#b2cbe5"
         stop-opacity="0"
         id="stop40083" />
      <stop
         offset="1"
         stop-color="#3465a4"
         id="stop40085" />
    </linearGradient>
    <radialGradient
       id="radial-gradient-4"
       cx="323.72"
       cy="178.47"
       r="2.07"
       xlink:href="#radial-gradient-2" />
    <radialGradient
       id="radial-gradient-5"
       cx="29.66"
       cy="30.03"
       r="1.2"
       xlink:href="#radial-gradient-3" />
    <linearGradient
       id="linear-gradient-38"
       x1="30.29"
       y1="27.12"
       x2="31.14"
       y2="26.27"
       gradientTransform="matrix(0.99,0.17,-0.17,0.99,3.73,-1.5)"
       xlink:href="#linear-gradient-10" />
    <radialGradient
       id="radial-gradient-6"
       cx="309.78"
       cy="195.33"
       r="2.07"
       xlink:href="#radial-gradient-2" />
    <radialGradient
       id="radial-gradient-7"
       cx="7.92"
       cy="27.64"
       r="1.2"
       xlink:href="#radial-gradient-3" />
    <linearGradient
       id="linear-gradient-39"
       x1="8.45"
       y1="28.43"
       x2="9.3"
       y2="27.58"
       gradientTransform="matrix(0.99,0.17,-0.17,0.99,3.73,-1.5)"
       xlink:href="#linear-gradient-10" />
    <radialGradient
       id="radial-gradient-8"
       cx="311.17"
       cy="189.92"
       r="1.67"
       xlink:href="#radial-gradient-2" />
    <radialGradient
       id="radial-gradient-9"
       cx="13.28"
       cy="25.8"
       r="0.97"
       xlink:href="#radial-gradient-3" />
    <linearGradient
       id="linear-gradient-40"
       x1="13.54"
       y1="25.63"
       x2="14.23"
       y2="24.94"
       gradientTransform="matrix(0.99,0.17,-0.17,0.99,3.73,-1.5)"
       xlink:href="#linear-gradient-10" />
    <linearGradient
       inkscape:collect="always"
       xlink:href="#linear-gradient"
       id="linearGradient40317"
       gradientUnits="userSpaceOnUse"
       x1="34.08"
       y1="31.24"
       x2="24.87"
       y2="18.08" />
    <linearGradient
       inkscape:collect="always"
       xlink:href="#linear-gradient-5"
       id="linearGradient40319"
       gradientUnits="userSpaceOnUse"
       x1="23.61"
       y1="30.03"
       x2="21.19"
       y2="40.94" />
    <radialGradient
       inkscape:collect="always"
       xlink:href="#radial-gradient-2"
       id="radialGradient40321"
       gradientUnits="userSpaceOnUse"
       gradientTransform="rotate(56.69,314.61263,-168.03313)"
       cx="317.47"
       cy="183.35"
       r="1.28" />
    <radialGradient
       inkscape:collect="always"
       xlink:href="#radial-gradient-3"
       id="radialGradient40323"
       gradientUnits="userSpaceOnUse"
       gradientTransform="rotate(11.69,980.10963,-1336.6108)"
       cx="318.64"
       cy="193.27"
       r="0.63" />
    <linearGradient
       inkscape:collect="always"
       xlink:href="#linear-gradient-10"
       id="linearGradient40325"
       gradientUnits="userSpaceOnUse"
       gradientTransform="rotate(13.43,591.99068,-425.51246)"
       x1="143.27"
       y1="147.44"
       x2="143.65"
       y2="147.06" />
    <linearGradient
       inkscape:collect="always"
       xlink:href="#linear-gradient-19"
       id="linearGradient40327"
       gradientUnits="userSpaceOnUse"
       x1="21.95"
       y1="30.6"
       x2="26.43"
       y2="14.42" />
  </defs>
  <title
     id="title40099">12-Waterfall</title>
  <g
     class="cls-1"
     id="g40254"
     transform="matrix(1.246456,0,0,1.2460001,-4.8443948,-6.2880812)"
     style="stroke-width:0.802421">
    <g
       id="ART"
       style="stroke-width:0.802421">
      <ellipse
         class="cls-2"
         cx="24.139999"
         cy="29.709999"
         rx="9.9899998"
         ry="15.68"
         transform="rotate(-81.11,24.137589,29.714379)"
         id="ellipse40101"
         style="fill:url(#radial-gradient);stroke-width:0.802421" />
      <polygon
         class="cls-3"
         points="33.56,14.85 22.66,16.87 22.66,30.58 26.04,32.19 33.56,28.56 "
         id="polygon40103"
         style="fill:url(#linearGradient40317);stroke-width:0.802421" />
      <polygon
         class="cls-4"
         points="33.56,28.56 26.04,32.19 26.04,18.48 33.56,14.85 "
         id="polygon40105"
         style="fill:url(#linear-gradient-2);stroke-width:0.802421" />
      <polygon
         class="cls-5"
         points="33.56,28.56 26.04,32.19 26.04,18.48 33.56,14.85 "
         id="polygon40107"
         style="fill:url(#linear-gradient-3);stroke-width:0.802421" />
      <polygon
         class="cls-6"
         points="22.66,30.58 26.04,32.19 26.04,18.48 22.66,16.87 "
         id="polygon40109"
         style="fill:url(#linear-gradient-4);stroke-width:0.802421" />
      <polygon
         class="cls-7"
         points="32.34,14.26 24.82,17.89 22.66,16.87 22.66,30.58 26.04,32.19 33.56,28.56 33.56,14.85 "
         id="polygon40111" />
      <path
         class="cls-8"
         d="m 23.08,28.11 a 3.15,3.15 0 0 0 -2.93,-2 c -2.24,0 -3.29,1.28 -3.47,2.26 a 3.33,3.33 0 0 0 0,1.74 2.47,2.47 0 0 0 -2.27,-0.49 C 13,30 12.67,32 13.16,33 c 0,0 -1.51,-0.24 -2.16,0.66 a 2.14,2.14 0 0 0 0.85,3 4.18,4.18 0 0 0 2.5,0 c 0,0 0.4,1.44 3,2.36 a 6.48,6.48 0 0 0 4.29,0.25 6.45,6.45 0 0 0 2.73,1.61 c 1.71,0.49 3.53,-1.09 3.53,-1.09 a 1.76,1.76 0 0 0 1.68,0.24 c 0,0 0.44,1.35 2.33,0.94 1.89,-0.41 1.82,-2.41 1.48,-3.39 a 2.83,2.83 0 0 0 -3.44,-1.66 c 0,0 0.57,-1.8 -0.17,-2.78 A 2.49,2.49 0 0 0 27.53,32.44 4.59,4.59 0 0 0 27,28.68 3,3 0 0 0 23.08,28.11 Z"
         id="path40113"
         style="fill:url(#linearGradient40319);stroke-width:0.802421" />
      <path
         class="cls-9"
         d="m 25.48,40.93 a 2.49,2.49 0 0 1 -1.15,0 6.45,6.45 0 0 1 -2.73,-1.61 6.23,6.23 0 0 1 -3.69,-0.06 c -0.09,-4.57 0,-9.84 0.27,-12.67 a 4.05,4.05 0 0 1 2,-0.42 3.15,3.15 0 0 1 2.93,2 3.07,3.07 0 0 1 2.65,-0.37 70.83,70.83 0 0 0 -0.28,13.13 z"
         id="path40115"
         style="fill:url(#linear-gradient-6);stroke-width:0.802421" />
      <path
         class="cls-10"
         d="m 25.48,40.93 a 2.49,2.49 0 0 1 -1.15,0 6.45,6.45 0 0 1 -2.73,-1.61 6.23,6.23 0 0 1 -3.69,-0.06 c -0.09,-4.57 0,-9.84 0.27,-12.67 a 4.05,4.05 0 0 1 2,-0.42 3.15,3.15 0 0 1 2.93,2 3.07,3.07 0 0 1 2.65,-0.37 70.83,70.83 0 0 0 -0.28,13.13 z"
         id="path40117"
         style="fill:url(#linear-gradient-7);stroke-width:0.802421" />
      <path
         class="cls-11"
         d="m 25.48,40.93 a 2.49,2.49 0 0 1 -1.15,0 6.45,6.45 0 0 1 -2.73,-1.61 6.23,6.23 0 0 1 -3.69,-0.06 c -0.09,-4.57 0,-9.84 0.27,-12.67 a 4.05,4.05 0 0 1 2,-0.42 3.15,3.15 0 0 1 2.93,2 3.07,3.07 0 0 1 2.65,-0.37 70.83,70.83 0 0 0 -0.28,13.13 z"
         id="path40119"
         style="fill:url(#linear-gradient-8);stroke-width:0.802421" />
      <path
         class="cls-12"
         d="m 23.08,28.11 a 3.15,3.15 0 0 0 -2.93,-2 c -2.24,0 -3.29,1.28 -3.47,2.26 a 3.33,3.33 0 0 0 0,1.74 2.47,2.47 0 0 0 -2.27,-0.49 C 13,30 12.67,32 13.16,33 c 0,0 -1.51,-0.24 -2.16,0.66 a 2.14,2.14 0 0 0 0.85,3 4.18,4.18 0 0 0 2.5,0 c 0,0 0.4,1.44 3,2.36 a 6.48,6.48 0 0 0 4.29,0.25 6.45,6.45 0 0 0 2.73,1.61 c 1.71,0.49 3.53,-1.09 3.53,-1.09 a 1.76,1.76 0 0 0 1.68,0.24 c 0,0 0.44,1.35 2.33,0.94 1.89,-0.41 1.82,-2.41 1.48,-3.39 a 2.83,2.83 0 0 0 -3.44,-1.66 c 0,0 0.57,-1.8 -0.17,-2.78 A 2.49,2.49 0 0 0 27.53,32.44 4.59,4.59 0 0 0 27,28.68 3,3 0 0 0 23.08,28.11 Z"
         id="path40121" />
      <circle
         class="cls-13"
         cx="12.06"
         cy="30.23"
         r="0.23999999"
         id="circle40123"
         style="stroke-width:0.802421" />
      <circle
         class="cls-13"
         cx="17.469999"
         cy="29.82"
         r="0.23999999"
         id="circle40125"
         style="stroke-width:0.802421" />
      <circle
         class="cls-13"
         cx="7.6199999"
         cy="32.389999"
         r="0.38999999"
         id="circle40127"
         style="stroke-width:0.802421" />
      <circle
         class="cls-13"
         cx="27.719999"
         cy="34.029999"
         r="0.56"
         id="circle40129"
         style="stroke-width:0.802421" />
      <circle
         class="cls-13"
         cx="26.42"
         cy="34.700001"
         r="0.31999999"
         id="circle40131"
         style="stroke-width:0.802421" />
      <circle
         class="cls-13"
         cx="31.34"
         cy="32.439999"
         r="0.34999999"
         id="circle40133"
         style="stroke-width:0.802421" />
      <circle
         class="cls-13"
         cx="31.15"
         cy="28.35"
         r="0.25"
         id="circle40135"
         style="stroke-width:0.802421" />
      <circle
         class="cls-13"
         cx="25.459999"
         cy="25.42"
         r="0.38999999"
         id="circle40137"
         style="stroke-width:0.802421" />
      <circle
         class="cls-13"
         cx="20.459999"
         cy="29.459999"
         r="0.5"
         id="circle40139"
         style="stroke-width:0.802421" />
      <circle
         class="cls-13"
         cx="17.25"
         cy="28.559999"
         r="0.41999999"
         id="circle40141"
         style="stroke-width:0.802421" />
      <circle
         class="cls-13"
         cx="26.129999"
         cy="29.82"
         r="0.28"
         id="circle40143"
         style="stroke-width:0.802421" />
      <circle
         class="cls-14"
         cx="22.379999"
         cy="27.67"
         r="0.74000001"
         id="circle40145"
         style="fill:url(#radialGradient40321);stroke-width:0.802421" />
      <circle
         class="cls-15"
         cx="22.389999"
         cy="27.67"
         r="0.74000001"
         id="circle40147"
         style="fill:url(#radialGradient40323);stroke-width:0.802421" />
      <circle
         class="cls-16"
         cx="22.379999"
         cy="27.67"
         r="0.74000001"
         id="circle40149" />
      <path
         class="cls-17"
         d="M 22.84,27.78 A 0.61,0.61 0 0 1 22.69,28.02 0.46,0.46 0 0 1 22,28 a 0.39,0.39 0 0 1 -0.1,-0.25 0.94,0.94 0 0 0 0.43,0.16 0.74,0.74 0 0 0 0.51,-0.13 z"
         id="path40151"
         style="fill:url(#linear-gradient-9);stroke-width:0.802421" />
      <path
         class="cls-18"
         d="m 22.74,27.35 c -0.09,-0.09 -0.24,-0.13 -0.29,-0.05 -0.05,0.08 0,0.08 0,0.12 a 1,1 0 0 1 0.08,0.14 1.25,1.25 0 0 0 0.08,0.12 c 0.08,0.05 0.15,0 0.17,-0.09 a 0.3,0.3 0 0 0 -0.04,-0.24 z"
         id="path40153"
         style="fill:url(#linearGradient40325);stroke-width:0.802421" />
      <path
         class="cls-19"
         d="m 22.06,27.37 c 0.06,-0.06 0.17,-0.12 0.24,-0.06 0.07,0.06 -0.07,0.15 -0.19,0.29 -0.12,0.14 -0.11,-0.13 -0.05,-0.23 z"
         id="path40155"
         style="fill:url(#linear-gradient-11);stroke-width:0.802421" />
      <polygon
         class="cls-20"
         points="17.38,13.91 18.84,14.62 28.87,9.78 28.87,6.51 27.4,5.81 17.38,10.64 "
         id="polygon40157" />
      <polygon
         class="cls-20"
         points="25.68,8.05 25.68,9.44 34.26,13.57 34.26,12.18 37.45,10.64 28.87,6.51 "
         id="polygon40159" />
      <path
         class="cls-20"
         d="m 37.45,10.64 -10,4.83 v 0 3.26 L 28.92,19.44 36,16 a 5.2,5.2 0 0 0 2.94,-4.69 v 0 z"
         id="path40161" />
      <polyline
         class="cls-21"
         points="28.87 6.51 37.45 10.64 37.45 13.51 27.2 12.63"
         id="polyline40163"
         style="fill:url(#linear-gradient-12);stroke-width:0.802421" />
      <polygon
         class="cls-20"
         points="30.17,15.48 30.17,15.95 34.32,13.57 26.04,9.54 18.84,13.17 18.84,14.62 27.44,18.75 27.44,15.48 "
         id="polygon40165" />
      <polyline
         class="cls-22"
         points="17.38 13.91 28.9 19.45 28.9 16.68 34.32 13.57 26.04 9.54"
         id="polyline40167"
         style="fill:url(#linear-gradient-13);stroke-width:0.802421" />
      <polygon
         class="cls-23"
         points="28.87,9.78 18.84,14.62 18.84,11.35 28.87,6.51 "
         id="polygon40169"
         style="fill:url(#linear-gradient-14);stroke-width:0.802421" />
      <polygon
         class="cls-24"
         points="17.38,13.91 18.84,14.62 18.84,11.35 17.38,10.64 "
         id="polygon40171"
         style="fill:url(#linear-gradient-15);stroke-width:0.802421" />
      <polygon
         class="cls-25"
         points="28.87,6.51 18.84,11.35 17.38,10.64 27.4,5.81 "
         id="polygon40173"
         style="fill:url(#linear-gradient-16);stroke-width:0.802421" />
      <polyline
         class="cls-26"
         points="28.87 6.51 18.84 11.35 17.38 10.64 27.4 5.81 28.87 6.51"
         id="polyline40175"
         style="fill:url(#linear-gradient-17);stroke-width:0.802421" />
      <polyline
         class="cls-27"
         points="28.87 6.51 18.84 11.35 17.38 10.64 27.4 5.81 28.87 6.51"
         id="polyline40177"
         style="fill:url(#linear-gradient-18);stroke-width:0.802421" />
      <polygon
         class="cls-28"
         points="28.87,9.78 18.84,14.62 18.84,11.35 28.87,6.51 "
         id="polygon40179" />
      <path
         class="cls-29"
         d="M 28.87,8.12 18.84,13 c -1.76,0.92 -2.35,2.76 -2.84,6 -0.76,4.94 -0.65,14.55 -0.65,14.55 l 8.45,4.08 c 0,0 -0.11,-9.61 0.65,-14.55 0.49,-3.21 1.08,-5.05 2.84,-6 l 10,-4.83 z"
         id="path40181"
         style="stroke-width:0.802421" />
      <path
         class="cls-30"
         d="m 16.05,33 a 116.47,116.47 0 0 1 0.64,-14 c 0.53,-3.43 1.13,-4.76 2.48,-5.46 l 9.7,-4.68 6.84,3.31 L 27,16.4 c -2,1.06 -2.71,3.1 -3.23,6.49 A 109.89,109.89 0 0 0 23.1,36.43 Z"
         id="path40183"
         style="fill:url(#linearGradient40327);stroke-width:0.802421" />
      <path
         class="cls-31"
         d="m 23.68,23.46 a 118.19,118.19 0 0 0 -0.59,13 l -7,-3.4 c 0,-1.64 0,-7.62 0.39,-12 v 0 c 0.26,-0.54 0.64,-1.27 0.8,-1.07 0.16,0.2 -0.11,5.69 0.89,5.56 1,-0.13 1.53,-3.59 2,-3.56 0.47,0.03 0.08,2.32 1.21,2.5 1.13,0.18 1.15,-1.9 1.7,-1.86 0.24,0.02 0.46,0.37 0.6,0.83 z"
         id="path40185"
         style="fill:url(#linear-gradient-20);stroke-width:0.802421" />
      <path
         class="cls-32"
         d="m 23.29,27.91 c -0.63,-0.47 -0.34,-2.05 -0.81,-2 -0.47,0.05 -0.35,3.56 -1.36,3.73 -1.01,0.17 -0.84,-3.55 -1,-4.32 -0.16,-0.77 -0.34,-0.74 -0.56,0.12 -0.22,0.86 -0.76,4.43 -1.79,4.32 -1.03,-0.11 -0.85,-3.51 -1.44,-3.53 a 0.3,0.3 0 0 0 -0.23,0.1 C 16,29.31 16,32 16.05,33 l 7,3.4 c 0.04,-1.71 0.06,-5.17 0.24,-8.49 z"
         id="path40187"
         style="fill:url(#linear-gradient-21);stroke-width:0.802421" />
      <path
         class="cls-33"
         d="m 28.87,8.89 -9.7,4.68 c -1.23,0.64 -1.84,1.81 -2.34,4.63 0,0.12 0.08,0.41 0.33,0.36 0.25,-0.05 0.51,-1.24 1,-1.12 0.49,0.12 0.24,3.62 0.1,4.7 -0.14,1.08 -0.07,2 0.42,1.4 0.49,-0.6 0.75,-4.25 1.73,-4 0.98,0.25 -0.12,3.17 0.94,3.3 1.06,0.13 0.82,-2 1.83,-2 0.44,0 0.65,0.47 0.75,1 0.5,-2.75 1.23,-4.47 3,-5.42 l 8.72,-4.2 z"
         id="path40189"
         style="fill:url(#linear-gradient-22);stroke-width:0.802421" />
      <path
         class="cls-34"
         d="m 28.87,8.89 -9.7,4.68 c -1,0.54 -1.63,1.44 -2.08,3.36 a 0.34,0.34 0 0 0 0.31,0.24 c 0.45,0.07 0.58,-1.72 1.27,-2.31 0.69,-0.59 1.44,-0.86 1.65,-0.68 0.21,0.18 -0.24,0.45 -0.3,0.53 a 1.76,1.76 0 0 0 -0.49,1.16 c 0,0 0,0.08 0,0.09 a 0.08,0.08 0 0 0 0.08,0 13.28,13.28 0 0 0 1,-1 1.92,1.92 0 0 1 1.42,-0.51 c 0.34,0 0.15,0.46 -0.3,1.07 -0.3,0.4 -0.75,1 -0.44,1.48 a 0.21,0.21 0 0 0 0.14,0.12 c 0.27,0 0.49,-0.51 0.6,-0.69 a 2.94,2.94 0 0 1 0.94,-1.07 c 0.85,-0.49 1,-0.09 0.69,0.27 a 3.71,3.71 0 0 0 -0.51,2.26 c 0.12,0.6 0.53,0.1 0.92,-1 0.39,-1.1 1.35,-1.18 1.48,-1 0.13,0.18 0,0.45 -0.26,0.75 -0.26,0.3 -0.64,1.23 -0.31,1.57 A 4.58,4.58 0 0 1 27,16.4 l 8.72,-4.2 z"
         id="path40191"
         style="fill:url(#linear-gradient-23);stroke-width:0.802421" />
      <path
         class="cls-35"
         d="M 28.87,8.89 25,10.76 c -1.49,0.72 -3,1.7 -2.61,2 0.39,0.3 4.01,-1.76 4.61,-1.23 0.6,0.53 -2.91,1.47 -2.33,1.86 0.58,0.39 4,-1.35 4.46,-1.06 0.46,0.29 -2.56,1.23 -2.05,1.7 0.51,0.47 3.41,-1.37 4.08,-0.88 0.67,0.49 -3.16,1.39 -2.65,2.09 0.1,0.15 0.35,0.17 0.68,0.1 l 6.52,-3.14 z"
         id="path40193"
         style="fill:url(#linear-gradient-24);stroke-width:0.802421" />
      <path
         class="cls-36"
         d="m 24.06,11.89 a 10.41,10.41 0 0 1 1.59,-0.65 c 0.3,-0.11 0.6,-0.2 0.91,-0.29 a 2.32,2.32 0 0 0 0.78,-0.26 3.06,3.06 0 0 0 0.32,-0.3 3.76,3.76 0 0 1 0.72,-0.54 1.64,1.64 0 0 0 -0.8,0.25 3.25,3.25 0 0 1 -0.79,0.49 c -0.31,0.09 -0.62,0.18 -0.92,0.29 a 5.85,5.85 0 0 0 -1.81,1.01 z"
         id="path40195"
         style="fill:url(#linear-gradient-25);stroke-width:0.802421" />
      <path
         class="cls-37"
         d="m 27.87,13.69 a 13.42,13.42 0 0 1 3.52,-0.94 c 1,0 2.15,-0.24 2.43,-0.68 a 2.5,2.5 0 0 1 1.61,-0.84 2.86,2.86 0 0 0 -2.17,0.59 4.27,4.27 0 0 1 -2.33,0.63 7.21,7.21 0 0 0 -3.06,1.24 z"
         id="path40197"
         style="fill:url(#linear-gradient-26);stroke-width:0.802421" />
      <path
         class="cls-38"
         d="m 25.63,13.11 a 13.09,13.09 0 0 1 2.27,-0.82 c 0.41,-0.12 0.83,-0.22 1.26,-0.31 a 4,4 0 0 0 1.16,-0.37 1.39,1.39 0 0 0 0.31,-0.23 c 0.15,-0.16 0.26,-0.36 0.4,-0.53 a 1.82,1.82 0 0 1 0.71,-0.55 2.33,2.33 0 0 0 -0.79,0.12 1.9,1.9 0 0 0 -0.39,0.23 c -0.26,0.19 -0.49,0.41 -0.76,0.58 a 8,8 0 0 1 -2.06,0.76 7.31,7.31 0 0 0 -1.09,0.44 5.64,5.64 0 0 0 -0.53,0.31 5.72,5.72 0 0 1 -0.49,0.37 z"
         id="path40199"
         style="fill:url(#linear-gradient-27);stroke-width:0.802421" />
      <path
         class="cls-39"
         d="m 16.05,33 a 116.47,116.47 0 0 1 0.64,-14 c 0.53,-3.43 1.13,-4.76 2.48,-5.46 l 9.7,-4.68 6.84,3.31 L 27,16.4 c -2,1.06 -2.71,3.1 -3.23,6.49 A 109.89,109.89 0 0 0 23.1,36.43 Z"
         id="path40201" />
      <polygon
         class="cls-40"
         points="25.68,8.05 34.26,12.18 34.26,13.57 25.68,9.44 "
         id="polygon40203"
         style="fill:url(#linear-gradient-28);stroke-width:0.802421" />
      <path
         class="cls-41"
         d="m 28.9,16.18 10,-4.83 v 0 A 5.2,5.2 0 0 1 36,16 l -7.1,3.45 z"
         id="path40205"
         style="fill:url(#linear-gradient-29);stroke-width:0.802421" />
      <polygon
         class="cls-42"
         points="27.43,18.74 28.9,19.45 28.9,16.18 27.43,15.48 "
         id="polygon40207"
         style="fill:url(#linear-gradient-30);stroke-width:0.802421" />
      <polygon
         class="cls-43"
         points="38.92,11.35 28.9,16.18 27.43,15.48 37.45,10.64 "
         id="polygon40209"
         style="fill:url(#linear-gradient-31);stroke-width:0.802421" />
      <polygon
         class="cls-44"
         points="28.87,6.51 25.68,8.05 34.26,12.18 37.45,10.64 "
         id="polygon40211"
         style="fill:url(#linear-gradient-32);stroke-width:0.802421" />
      <polygon
         class="cls-28"
         points="25.68,8.05 25.68,9.44 33.75,13.32 34.26,12.18 37.45,10.64 28.87,6.51 "
         id="polygon40213" />
      <polyline
         class="cls-45"
         points="38.92 11.35 28.9 16.18 27.43 15.47 37.45 10.64 38.92 11.35"
         id="polyline40215"
         style="fill:url(#linear-gradient-33);stroke-width:0.802421" />
      <polyline
         class="cls-46"
         points="38.92 11.35 28.9 16.18 27.43 15.47 37.45 10.64 38.92 11.35"
         id="polyline40217"
         style="fill:url(#linear-gradient-34);stroke-width:0.802421" />
      <path
         class="cls-47"
         d="m 37.45,10.64 -10,4.83 v 0 3.26 L 28.92,19.44 36,16 a 5.2,5.2 0 0 0 2.94,-4.69 v 0 z"
         id="path40219" />
      <path
         class="cls-48"
         d="m 7.53,34.85 a 3.58,3.58 0 0 1 3.21,-3.13 c 3,-0.38 3.58,1.56 3.58,1.56 0,0 0.06,-1.09 1.94,-2.06 a 4.62,4.62 0 0 1 5.15,0.56 3.58,3.58 0 0 1 0.85,3.8 1.66,1.66 0 0 1 1.39,0.32 2.9,2.9 0 0 1 1,2.77 3.28,3.28 0 0 1 -0.7,1.52 1.65,1.65 0 0 1 1.4,1 1.46,1.46 0 0 1 -1.22,1.95 2.42,2.42 0 0 1 -1.63,-0.5 6.71,6.71 0 0 1 -3.37,0.38 3.13,3.13 0 0 1 -2.39,-1.83 7.2,7.2 0 0 1 -3.58,0.57 5,5 0 0 1 -2.93,-2.1 9.35,9.35 0 0 1 -1.55,0 1.76,1.76 0 0 1 -1.15,-2 3.28,3.28 0 0 1 -1.43,-0.23 1.35,1.35 0 0 1 -0.33,-2 1.69,1.69 0 0 1 1.76,-0.58 z"
         id="path40221"
         style="fill:url(#linear-gradient-35);stroke-width:0.802421" />
      <path
         class="cls-49"
         d="m 7.53,34.85 a 3.58,3.58 0 0 1 3.21,-3.13 c 3,-0.38 3.58,1.56 3.58,1.56 0,0 0.06,-1.09 1.94,-2.06 a 4.62,4.62 0 0 1 5.15,0.56 3.58,3.58 0 0 1 0.85,3.8 1.66,1.66 0 0 1 1.39,0.32 2.9,2.9 0 0 1 1,2.77 3.28,3.28 0 0 1 -0.7,1.52 1.65,1.65 0 0 1 1.4,1 1.46,1.46 0 0 1 -1.22,1.95 2.42,2.42 0 0 1 -1.63,-0.5 6.71,6.71 0 0 1 -3.37,0.38 3.13,3.13 0 0 1 -2.39,-1.83 7.2,7.2 0 0 1 -3.58,0.57 5,5 0 0 1 -2.93,-2.1 9.35,9.35 0 0 1 -1.55,0 1.76,1.76 0 0 1 -1.15,-2 3.28,3.28 0 0 1 -1.43,-0.23 1.35,1.35 0 0 1 -0.33,-2 1.69,1.69 0 0 1 1.76,-0.58 z"
         id="path40223"
         style="fill:url(#linear-gradient-36);stroke-width:0.802421" />
      <path
         class="cls-50"
         d="m 24,42.77 a 1.55,1.55 0 0 1 -1.42,-0.1 v 0 a 6.66,6.66 0 0 1 -3.36,0.38 3.11,3.11 0 0 1 -2.39,-1.84 7.37,7.37 0 0 1 -3.59,0.59 5,5 0 0 1 -2.94,-2.11 9.22,9.22 0 0 1 -1.54,0 1.74,1.74 0 0 1 -1.15,-2 3.8,3.8 0 0 1 -0.51,0 0.77,0.77 0 0 1 -0.21,-1.1 1.13,1.13 0 0 1 1.46,-0.14 0.71,0.71 0 0 1 0.88,-0.5 2.57,2.57 0 0 1 2.41,-1.16 2.35,2.35 0 0 1 2,1.47 1.81,1.81 0 0 1 1.7,-0.67 3.38,3.38 0 0 1 3.1,-1.15 2.67,2.67 0 0 1 2.1,2.44 c 0,0 0.68,0.06 0.64,0.93 a 1.93,1.93 0 0 1 1.53,1.11 1.64,1.64 0 0 1 -0.21,1.7 0.73,0.73 0 0 1 0.53,0.62 1,1 0 0 1 0.9,0.1 0.87,0.87 0 0 1 0.07,1.43 z"
         id="path40225"
         style="fill:url(#linear-gradient-37);stroke-width:0.802421" />
      <path
         class="cls-12"
         d="m 7.53,34.85 a 3.58,3.58 0 0 1 3.21,-3.13 c 3,-0.38 3.58,1.56 3.58,1.56 0,0 0.06,-1.09 1.94,-2.06 a 4.62,4.62 0 0 1 5.15,0.56 3.58,3.58 0 0 1 0.85,3.8 1.66,1.66 0 0 1 1.39,0.32 2.9,2.9 0 0 1 1,2.77 3.28,3.28 0 0 1 -0.7,1.52 1.65,1.65 0 0 1 1.4,1 1.46,1.46 0 0 1 -1.22,1.95 2.42,2.42 0 0 1 -1.63,-0.5 6.71,6.71 0 0 1 -3.37,0.38 3.13,3.13 0 0 1 -2.39,-1.83 7.2,7.2 0 0 1 -3.58,0.57 5,5 0 0 1 -2.93,-2.1 9.35,9.35 0 0 1 -1.55,0 1.76,1.76 0 0 1 -1.15,-2 3.28,3.28 0 0 1 -1.43,-0.23 1.35,1.35 0 0 1 -0.33,-2 1.69,1.69 0 0 1 1.76,-0.58 z"
         id="path40227" />
      <circle
         class="cls-51"
         cx="29.799999"
         cy="30.440001"
         r="1.1900001"
         id="circle40229"
         style="fill:url(#radial-gradient-4);stroke-width:0.802421" />
      <circle
         class="cls-52"
         cx="29.809999"
         cy="30.43"
         r="1.1900001"
         id="circle40231"
         style="fill:url(#radial-gradient-5);stroke-width:0.802421" />
      <circle
         class="cls-16"
         cx="29.799999"
         cy="30.440001"
         r="1.1900001"
         id="circle40233" />
      <path
         class="cls-53"
         d="m 29.27,30 c 0.11,-0.1 0.28,-0.19 0.39,-0.1 0.11,0.09 -0.11,0.24 -0.3,0.46 -0.19,0.22 -0.25,-0.25 -0.09,-0.36 z"
         id="path40235"
         style="fill:url(#linear-gradient-38);stroke-width:0.802421" />
      <circle
         class="cls-54"
         cx="8.0500002"
         cy="28.040001"
         r="1.1900001"
         id="circle40237"
         style="fill:url(#radial-gradient-6);stroke-width:0.802421" />
      <circle
         class="cls-55"
         cx="8.0600004"
         cy="28.040001"
         r="1.1900001"
         id="circle40239"
         style="fill:url(#radial-gradient-7);stroke-width:0.802421" />
      <circle
         class="cls-16"
         cx="8.0500002"
         cy="28.040001"
         r="1.1900001"
         id="circle40241" />
      <path
         class="cls-56"
         d="m 7.52,27.56 c 0.11,-0.11 0.29,-0.2 0.39,-0.11 0.1,0.09 -0.1,0.25 -0.3,0.47 -0.2,0.22 -0.25,-0.2 -0.09,-0.36 z"
         id="path40243"
         style="fill:url(#linear-gradient-39);stroke-width:0.802421" />
      <circle
         class="cls-57"
         cx="13.39"
         cy="26.120001"
         r="0.95999998"
         id="circle40245"
         style="fill:url(#radial-gradient-8);stroke-width:0.802421" />
      <circle
         class="cls-58"
         cx="13.4"
         cy="26.120001"
         r="0.95999998"
         id="circle40247"
         style="fill:url(#radial-gradient-9);stroke-width:0.802421" />
      <circle
         class="cls-16"
         cx="13.39"
         cy="26.120001"
         r="0.95999998"
         id="circle40249" />
      <path
         class="cls-59"
         d="m 13,25.73 c 0.09,-0.09 0.23,-0.16 0.31,-0.08 0.08,0.08 -0.08,0.2 -0.24,0.37 -0.16,0.17 -0.24,-0.16 -0.07,-0.29 z"
         id="path40251"
         style="fill:url(#linear-gradient-40);stroke-width:0.802421" />
    </g>
  </g>
</svg>
