<?xml version="1.0" encoding="UTF-8" standalone="no"?>
<svg
   width="16px"
   height="16px"
   viewBox="0 0 16 16"
   version="1.1"
   id="svg25595"
   inkscape:version="1.3-dev (fdc7329b, 2022-05-31)"
   sodipodi:docname="show_value_numbers.svg"
   xmlns:inkscape="http://www.inkscape.org/namespaces/inkscape"
   xmlns:sodipodi="http://sodipodi.sourceforge.net/DTD/sodipodi-0.dtd"
   xmlns="http://www.w3.org/2000/svg"
   xmlns:svg="http://www.w3.org/2000/svg"
   xmlns:rdf="http://www.w3.org/1999/02/22-rdf-syntax-ns#"
   xmlns:cc="http://creativecommons.org/ns#"
   xmlns:dc="http://purl.org/dc/elements/1.1/">
  <metadata
     id="metadata25615">
    <rdf:RDF>
      <cc:Work
         rdf:about="">
        <dc:format>image/svg+xml</dc:format>
        <dc:type
           rdf:resource="http://purl.org/dc/dcmitype/StillImage" />
      </cc:Work>
    </rdf:RDF>
  </metadata>
  <sodipodi:namedview
     pagecolor="#ffffff"
     bordercolor="#666666"
     borderopacity="1"
     objecttolerance="10"
     gridtolerance="10"
     guidetolerance="10"
     inkscape:pageopacity="0"
     inkscape:pageshadow="2"
     inkscape:window-width="2560"
     inkscape:window-height="1378"
     id="namedview25613"
     showgrid="true"
     inkscape:zoom="41.7193"
     inkscape:cx="2.7325482"
     inkscape:cy="7.6343563"
     inkscape:window-x="-6"
     inkscape:window-y="-6"
     inkscape:window-maximized="1"
     inkscape:current-layer="svg25595"
     inkscape:pagecheckerboard="0"
     inkscape:showpageshadow="2"
     inkscape:deskcolor="#d1d1d1"
     showguides="true">
    <inkscape:grid
       type="xygrid"
       id="grid1" />
  </sodipodi:namedview>
  <!-- Generator: Sketch 50.2 (55047) - http://www.bohemiancoding.com/sketch -->
  <title
     id="title25597">show_value_numbers</title>
  <g
     aria-label="3"
     id="g2"
     style="font-weight:bold;font-size:16px;line-height:125%;font-family:Corbel;-inkscape-font-specification:'Corbel, Bold';letter-spacing:0px;word-spacing:0px;fill:#dbffb8;stroke:#295103;stroke-width:2;stroke-dasharray:none;stroke-opacity:1"
     transform="translate(-1.6299411,0.3355761)">
    <path
       d="m 9.9467998,4.5288906 q 0,0.7890625 -0.34375,1.40625 -0.34375,0.6171875 -1.09375,0.96875 v 0.03125 q 0.3671875,0.1015625 0.671875,0.3125 0.3046875,0.2109375 0.5234375,0.515625 0.2265625,0.3046875 0.3515627,0.6953125 0.125,0.3828125 0.125,0.8515625 0,0.7656254 -0.2500002,1.3828124 -0.2421875,0.617188 -0.7421875,1.054688 -0.5,0.4375 -1.2578125,0.671875 -0.75,0.234375 -1.7578125,0.234375 -0.28125,0 -0.59375,-0.03125 -0.3125,-0.02344 -0.625,-0.08594 -0.3046875,-0.05469 -0.6015625,-0.140625 -0.2890625,-0.08594 -0.53125,-0.203125 v -1.609375 q 0.4375,0.203125 1.0078125,0.34375 0.578125,0.140625 1.25,0.140625 0.609375,0 1.0234375,-0.140625 0.421875,-0.140625 0.6796875,-0.382812 0.2578125,-0.234375 0.3671875,-0.5546879 0.1171875,-0.3125 0.1171875,-0.6640625 0,-0.515625 -0.21875,-0.8515625 -0.2109375,-0.34375 -0.609375,-0.515625 -0.203125,-0.085937 -0.46875,-0.1171875 -0.2578125,-0.039063 -0.625,-0.039063 h -1.21875 v -1.57031 h 0.828125 q 0.359375,0 0.640625,-0.03125 0.28125,-0.039063 0.5078125,-0.1328125 0.4453125,-0.1796875 0.6875,-0.546875 0.2421875,-0.375 0.2421875,-0.9375 0,-0.3671875 -0.140625,-0.6171875 Q 7.7514873,3.7085781 7.5092998,3.5523281 7.2671123,3.3960781 6.9389873,3.3257656 6.6108623,3.2554531 6.2905498,3.2554531 q -0.65625,0 -1.21875,0.1328125 -0.5546875,0.125 -1.0859375,0.34375 V 2.1304531 q 0.5078125,-0.1953125 1.1171875,-0.328125 0.609375,-0.1328125 1.4296875,-0.1328125 0.796875,0 1.4296875,0.2265625 0.640625,0.21875 1.078125,0.609375 0.4453125,0.3828125 0.671875,0.90625 0.234375,0.515625 0.234375,1.1171875 z"
       id="path2"
       style="stroke:#295103;stroke-width:2;stroke-dasharray:none;stroke-opacity:1" />
  </g>
  <desc
     id="desc25599">Created with Sketch.</desc>
  <defs
     id="defs25601" />
  <circle
     id="Oval-5"
     cx="12.277123"
     cy="12.286346"
     r="2"
     style="fill:#ffffff;stroke:#000000;stroke-width:1.5" />
  <g
     aria-label="3"
     id="text1"
     style="font-weight:bold;font-size:16px;line-height:125%;font-family:Corbel;-inkscape-font-specification:'Corbel, Bold';letter-spacing:0px;word-spacing:0px;fill:#dbffb8;stroke-width:1px"
     transform="translate(-1.6299411,0.3355761)">
    <path
       d="m 9.9467998,4.5288906 q 0,0.7890625 -0.34375,1.40625 -0.34375,0.6171875 -1.09375,0.96875 v 0.03125 q 0.3671875,0.1015625 0.671875,0.3125 0.3046875,0.2109375 0.5234375,0.515625 0.2265625,0.3046875 0.3515627,0.6953125 0.125,0.3828125 0.125,0.8515625 0,0.7656254 -0.2500002,1.3828124 -0.2421875,0.617188 -0.7421875,1.054688 -0.5,0.4375 -1.2578125,0.671875 -0.75,0.234375 -1.7578125,0.234375 -0.28125,0 -0.59375,-0.03125 -0.3125,-0.02344 -0.625,-0.08594 -0.3046875,-0.05469 -0.6015625,-0.140625 -0.2890625,-0.08594 -0.53125,-0.203125 v -1.609375 q 0.4375,0.203125 1.0078125,0.34375 0.578125,0.140625 1.25,0.140625 0.609375,0 1.0234375,-0.140625 0.421875,-0.140625 0.6796875,-0.382812 0.2578125,-0.234375 0.3671875,-0.5546879 0.1171875,-0.3125 0.1171875,-0.6640625 0,-0.515625 -0.21875,-0.8515625 -0.2109375,-0.34375 -0.609375,-0.515625 -0.203125,-0.085937 -0.46875,-0.1171875 -0.2578125,-0.039063 -0.625,-0.039063 h -1.21875 v -1.57031 h 0.828125 q 0.359375,0 0.640625,-0.03125 0.28125,-0.039063 0.5078125,-0.1328125 0.4453125,-0.1796875 0.6875,-0.546875 0.2421875,-0.375 0.2421875,-0.9375 0,-0.3671875 -0.140625,-0.6171875 Q 7.7514873,3.7085781 7.5092998,3.5523281 7.2671123,3.3960781 6.9389873,3.3257656 6.6108623,3.2554531 6.2905498,3.2554531 q -0.65625,0 -1.21875,0.1328125 -0.5546875,0.125 -1.0859375,0.34375 V 2.1304531 q 0.5078125,-0.1953125 1.1171875,-0.328125 0.609375,-0.1328125 1.4296875,-0.1328125 0.796875,0 1.4296875,0.2265625 0.640625,0.21875 1.078125,0.609375 0.4453125,0.3828125 0.671875,0.90625 0.234375,0.515625 0.234375,1.1171875 z"
       id="path1" />
  </g>
</svg>
