<?xml version="1.0" encoding="UTF-8" standalone="no"?>
<!-- Created with Inkscape (http://www.inkscape.org/) -->

<svg
   width="16px"
   height="16px"
   id="svg12784"
   version="1.1"
   inkscape:version="1.3-dev (fdc7329b, 2022-05-31)"
   sodipodi:docname="show_names.svg"
   xmlns:inkscape="http://www.inkscape.org/namespaces/inkscape"
   xmlns:sodipodi="http://sodipodi.sourceforge.net/DTD/sodipodi-0.dtd"
   xmlns:xlink="http://www.w3.org/1999/xlink"
   xmlns="http://www.w3.org/2000/svg"
   xmlns:svg="http://www.w3.org/2000/svg"
   xmlns:rdf="http://www.w3.org/1999/02/22-rdf-syntax-ns#"
   xmlns:cc="http://creativecommons.org/ns#"
   xmlns:dc="http://purl.org/dc/elements/1.1/">
  <defs
     id="defs12786">
    <linearGradient
       inkscape:collect="always"
       xlink:href="#linearGradient2809"
       id="linearGradient2815"
       x1="6.9810791"
       y1="11.000004"
       x2="8.9988976"
       y2="11.000004"
       gradientUnits="userSpaceOnUse"
       gradientTransform="matrix(1,0,0,1.666667,0,-10.33334)" />
    <linearGradient
       id="linearGradient2809">
      <stop
         style="stop-color:#99a28f;stop-opacity:1;"
         offset="0"
         id="stop2811" />
      <stop
         style="stop-color:white;stop-opacity:1;"
         offset="1"
         id="stop2813" />
    </linearGradient>
    <linearGradient
       inkscape:collect="always"
       xlink:href="#linearGradient2849"
       id="linearGradient2855"
       x1="6.000001"
       y1="8.0000038"
       x2="9.9999981"
       y2="8.0000038"
       gradientUnits="userSpaceOnUse" />
    <linearGradient
       id="linearGradient2849">
      <stop
         style="stop-color:#2e3436;stop-opacity:1;"
         offset="0"
         id="stop2851" />
      <stop
         style="stop-color:#aeaeae;stop-opacity:1;"
         offset="1"
         id="stop2853" />
    </linearGradient>
    <linearGradient
       id="linearGradient2797">
      <stop
         style="stop-color:white;stop-opacity:1;"
         offset="0"
         id="stop2799" />
      <stop
         style="stop-color:#999e93;stop-opacity:1;"
         offset="1"
         id="stop2801" />
    </linearGradient>
    <linearGradient
       id="linearGradient2841">
      <stop
         style="stop-color:#5c5c5c;stop-opacity:1;"
         offset="0"
         id="stop2843" />
      <stop
         style="stop-color:#2e3436;stop-opacity:1;"
         offset="1"
         id="stop2845" />
    </linearGradient>
  </defs>
  <sodipodi:namedview
     id="base"
     pagecolor="#ffffff"
     bordercolor="#666666"
     borderopacity="1.0"
     inkscape:pageopacity="0.0"
     inkscape:pageshadow="2"
     inkscape:zoom="31.392433"
     inkscape:cx="1.6564501"
     inkscape:cy="3.9022143"
     inkscape:current-layer="layer1"
     showgrid="true"
     inkscape:grid-bbox="true"
     inkscape:document-units="px"
     inkscape:snap-global="false"
     inkscape:window-width="2560"
     inkscape:window-height="1378"
     inkscape:window-x="-6"
     inkscape:window-y="-6"
     inkscape:window-maximized="1"
     inkscape:showpageshadow="2"
     inkscape:pagecheckerboard="0"
     inkscape:deskcolor="#d1d1d1">
    <inkscape:grid
       type="xygrid"
       id="grid12792" />
  </sodipodi:namedview>
  <metadata
     id="metadata12789">
    <rdf:RDF>
      <cc:Work
         rdf:about="">
        <dc:format>image/svg+xml</dc:format>
        <dc:type
           rdf:resource="http://purl.org/dc/dcmitype/StillImage" />
        <dc:title />
      </cc:Work>
    </rdf:RDF>
  </metadata>
  <g
     id="layer1"
     inkscape:label="Layer 1"
     inkscape:groupmode="layer">
    <path
       inkscape:connector-curvature="0"
       style="fill:none;stroke:#2e3436;stroke-width:3;stroke-linecap:round;stroke-linejoin:miter;stroke-miterlimit:4;stroke-opacity:1;stroke-dasharray:none"
       d="M 13.383265,2.5025278 C 12.894558,5.7420892 10.156631,8.0788705 8.0176544,8.0728138 6.0602873,8.0673115 3.0293996,10.385246 2.5441454,13.601921"
       id="path4126"
       sodipodi:nodetypes="csc" />
    <path
       inkscape:connector-curvature="0"
       style="fill:none;stroke:#ffffff;stroke-width:0.99999987999999995px;stroke-linecap:round;stroke-linejoin:miter;stroke-opacity:1"
       d="M 13.383262,2.5025278 C 12.894556,5.7420892 10.156629,8.0788705 8.0176508,8.0728138 6.0602849,8.0673115 3.0293967,10.385246 2.5441426,13.601921"
       id="path2770"
       sodipodi:nodetypes="csc" />
    <path
       d="m 8.2289767,14.152214 0.128366,0.785008 c -0.250152,0.05266 -0.473969,0.07899 -0.671453,0.07899 -0.322563,0 -0.572712,-0.05102 -0.750448,-0.153052 -0.177739,-0.102029 -0.302814,-0.236155 -0.375224,-0.402373 -0.072413,-0.166217 -0.108619,-0.515932 -0.108618,-1.049146 l 0,-3.016604 -0.651705,0 0,-0.6912021 0.651705,0 0,-1.2984726 0.883751,-0.533213 0,1.8316856 0.893626,0 0,0.6912021 -0.893626,0 0,3.065975 c -1e-6,0.253442 0.01563,0.416368 0.0469,0.488779 0.03127,0.07241 0.08229,0.130012 0.153052,0.1728 0.07076,0.04279 0.171976,0.06418 0.303636,0.06418 0.09874,10e-7 0.228752,-0.01152 0.390035,-0.03456 z"
       style="font-size:40px;font-style:normal;font-weight:normal;line-height:125%;letter-spacing:0px;word-spacing:0px;fill:#8ae234;fill-opacity:1;stroke:#295103;stroke-width:2;stroke-miterlimit:4;stroke-opacity:1;stroke-dasharray:none;font-family:Sans"
       id="path16988"
       inkscape:connector-curvature="0" />
    <path
       d="m 9.3287453,14.947097 1.9156167,-2.725312 -1.7724397,-2.5179501 1.1108607,0 0.804756,1.2293521 c 0.151405,0.233696 0.273188,0.429537 0.36535,0.587522 0.144821,-0.217231 0.278124,-0.40978 0.39991,-0.577647 l 0.883751,-1.2392271 1.061489,0 -1.811937,2.4685791 1.950178,2.774683 -1.091112,0 -1.076301,-1.629262 -0.286355,-0.439408 -1.377467,2.06867 z"
       style="font-size:40px;font-style:normal;font-weight:normal;line-height:125%;letter-spacing:0px;word-spacing:0px;fill:#8ae234;fill-opacity:1;stroke:#295103;stroke-width:2;stroke-miterlimit:4;stroke-opacity:1;stroke-dasharray:none;font-family:Sans"
       id="path16990"
       inkscape:connector-curvature="0" />
    <path
       id="path16984"
       style="font-style:normal;font-weight:normal;font-size:40px;line-height:125%;font-family:Sans;letter-spacing:0px;word-spacing:0px;fill:#dbffb8;fill-opacity:1;stroke:none"
       sodipodi:type="inkscape:offset"
       inkscape:radius="0.071229503"
       inkscape:original="M 7.3359375 7.8730469 L 6.4511719 8.40625 L 6.4511719 9.703125 L 5.8007812 9.703125 L 5.8007812 10.394531 L 6.4511719 10.394531 L 6.4511719 13.412109 C 6.4511709 13.945323 6.4881339 14.294721 6.5605469 14.460938 C 6.6329569 14.627156 6.7578079 14.761252 6.9355469 14.863281 C 7.1132829 14.965313 7.3629839 15.015625 7.6855469 15.015625 C 7.8830309 15.015625 8.1072699 14.99016 8.3574219 14.9375 L 8.2285156 14.152344 C 8.0672326 14.175384 7.9385838 14.187501 7.8398438 14.1875 C 7.7081838 14.1875 7.6059162 14.165837 7.5351562 14.123047 C 7.4643943 14.080259 7.4140825 14.021629 7.3828125 13.949219 C 7.3515425 13.876808 7.3359365 13.714379 7.3359375 13.460938 L 7.3359375 10.394531 L 8.2285156 10.394531 L 8.2285156 9.703125 L 7.3359375 9.703125 L 7.3359375 7.8730469 z M 9.4726562 9.703125 L 11.244141 12.222656 L 9.328125 14.947266 L 10.404297 14.947266 L 11.783203 12.878906 L 12.068359 13.318359 L 13.144531 14.947266 L 14.236328 14.947266 L 12.285156 12.171875 L 14.097656 9.703125 L 13.037109 9.703125 L 12.152344 10.943359 C 12.030558 11.111226 11.896774 11.304253 11.751953 11.521484 C 11.659791 11.363499 11.538124 11.16729 11.386719 10.933594 L 10.582031 9.703125 L 9.4726562 9.703125 z "
       d="M 7.3710938,7.8105469 A 0.07123663,0.07123663 0 0 0 7.2988281,7.8125 L 6.4140625,8.3457031 A 0.07123663,0.07123663 0 0 0 6.3808594,8.40625 V 9.6328125 H 5.8007812 a 0.07123663,0.07123663 0 0 0 -0.070312,0.070312 v 0.691406 a 0.07123663,0.07123663 0 0 0 0.070312,0.07031 h 0.5800782 v 2.947265 c -1e-6,0.536506 0.031768,0.886537 0.1152344,1.078125 0.078781,0.180843 0.2156782,0.327273 0.4042968,0.435547 0.1939493,0.11134 0.4551866,0.160156 0.7851563,0.160157 0.2036072,0 0.433481,-0.02465 0.6875,-0.07813 a 0.07123663,0.07123663 0 0 0 0.054687,-0.08203 L 8.2988281,14.140625 A 0.07123663,0.07123663 0 0 0 8.21875,14.082031 c -0.1594946,0.02278 -0.2859942,0.03516 -0.3789062,0.03516 -0.1238468,0 -0.2137135,-0.02212 -0.2675782,-0.05469 -0.058901,-0.03562 -0.099207,-0.0809 -0.125,-0.140625 -0.019319,-0.04474 -0.041017,-0.210421 -0.041016,-0.460937 v -2.996094 h 0.8222656 a 0.07123663,0.07123663 0 0 0 0.070312,-0.07031 V 9.703125 A 0.07123663,0.07123663 0 0 0 8.2285156,9.6328125 H 7.40625 V 7.8730469 a 0.07123663,0.07123663 0 0 0 -0.035156,-0.0625 z M 9.4726562,9.6328125 A 0.07123663,0.07123663 0 0 0 9.4140625,9.7441406 L 11.15625,12.222656 9.2695312,14.90625 a 0.07123663,0.07123663 0 0 0 0.058594,0.111328 h 1.076172 a 0.07123663,0.07123663 0 0 0 0.05859,-0.03125 l 1.318359,-1.978516 0.226562,0.34961 a 0.07123663,0.07123663 0 0 0 0.002,0 l 1.076172,1.628906 a 0.07123663,0.07123663 0 0 0 0.05859,0.03125 h 1.091797 a 0.07123663,0.07123663 0 0 0 0.05859,-0.111328 l -1.921875,-2.734375 1.78125,-2.4257812 a 0.07123663,0.07123663 0 0 0 -0.05664,-0.1132813 h -1.060547 a 0.07123663,0.07123663 0 0 0 -0.05859,0.029297 L 12.09375,10.902344 c -0.103451,0.142594 -0.218088,0.312533 -0.337891,0.490234 -0.08602,-0.144122 -0.180865,-0.300896 -0.308593,-0.498047 L 10.642578,9.6640625 a 0.07123663,0.07123663 0 0 0 -0.06055,-0.03125 z" />
  </g>
</svg>
